<svg width="32" height="32" version="1.1" viewBox="0 0 32 32" xmlns="http://www.w3.org/2000/svg" xmlns:xlink="http://www.w3.org/1999/xlink">
<defs>
<linearGradient id="linearGradient3403" x1="6.9492" x2="11.215" y1="4.5549" y2="59.052" gradientUnits="userSpaceOnUse">
<stop style="stop-color:#32373c" offset="0"/>
<stop style="stop-color:#1a1a1a" offset=".36805"/>
<stop style="stop-color:#31363b" offset="1"/>
</linearGradient>
<linearGradient id="linearGradient20558" x1="25.802" x2="25.111" y1="20.374" y2="58.913" gradientUnits="userSpaceOnUse">
<stop style="stop-color:#3d3d3d" offset="0"/>
<stop offset=".61772"/>
<stop style="stop-color:#3d3d3d" offset="1"/>
</linearGradient>
<linearGradient id="linearGradient4557" x1="43.5" x2="44.142" y1="64.012" y2=".30621" gradientTransform="translate(.36068 -.13017)" gradientUnits="userSpaceOnUse">
<stop style="stop-color:#141618" offset="0"/>
<stop style="stop-color:#686868" offset=".51821"/>
<stop style="stop-color:#31363b" offset="1"/>
</linearGradient>
<linearGradient id="c" x2="0" y1="543.8" y2="503.8" gradientTransform="matrix(.665 0 0 .665 -250.04 -332.88)" gradientUnits="userSpaceOnUse">
<stop stop-color="#1d1e1e" offset="0"/>
<stop stop-color="#44484c" offset="1"/>
</linearGradient>
<linearGradient id="d" x1="10" x2="35" y1="7" y2="32" gradientTransform="matrix(.665 0 0 .665 5.7008 -.51283)" gradientUnits="userSpaceOnUse">
<stop stop-color="#383e51" offset="0"/>
<stop stop-color="#655c6f" stop-opacity="0" offset="1"/>
</linearGradient>
<linearGradient id="e" x2="0" y1="506.8" y2="504.8" gradientTransform="matrix(.665 0 0 .665 -250.04 -332.88)" gradientUnits="userSpaceOnUse" xlink:href="#a"/>
<linearGradient id="a" x2="0" y1="543.8" y2="503.8" gradientTransform="matrix(1.125,0,0,1,-51.07,0)" gradientUnits="userSpaceOnUse">
<stop stop-color="#c6cdd1" offset="0"/>
<stop stop-color="#e0e5e7" offset="1"/>
</linearGradient>
<linearGradient id="f" x2="0" y1="508.8" y2="506.8" gradientTransform="matrix(.665 0 0 .665 -250.04 -332.88)" gradientUnits="userSpaceOnUse" xlink:href="#a"/>
<linearGradient id="g" x2="0" y1="510.8" y2="508.8" gradientTransform="matrix(.665 0 0 .665 -250.04 -332.88)" gradientUnits="userSpaceOnUse" xlink:href="#a"/>
<linearGradient id="h" x2="0" y1="512.8" y2="510.8" gradientTransform="matrix(.665 0 0 .665 -250.04 -332.88)" gradientUnits="userSpaceOnUse" xlink:href="#a"/>
<linearGradient id="i" x2="0" y1="514.8" y2="512.8" gradientTransform="matrix(.665 0 0 .665 -250.04 -332.88)" gradientUnits="userSpaceOnUse" xlink:href="#a"/>
<linearGradient id="j" x2="0" y1="516.8" y2="514.8" gradientTransform="matrix(.665 0 0 .665 -250.04 -332.88)" gradientUnits="userSpaceOnUse" xlink:href="#a"/>
<linearGradient id="k" x2="0" y1="518.8" y2="516.8" gradientTransform="matrix(.665 0 0 .665 -250.04 -332.88)" gradientUnits="userSpaceOnUse" xlink:href="#a"/>
<linearGradient id="l" x2="0" y1="520.8" y2="518.8" gradientTransform="matrix(.665 0 0 .665 -250.04 -332.88)" gradientUnits="userSpaceOnUse" xlink:href="#a"/>
<linearGradient id="m" x2="0" y1="523.8" y2="520.8" gradientTransform="matrix(.665 0 0 .665 -250.04 -332.88)" gradientUnits="userSpaceOnUse" xlink:href="#a"/>
<linearGradient id="n" x2="0" y1="33" y2="25" gradientTransform="matrix(.665 0 0 .665 5.7008 -.51283)" gradientUnits="userSpaceOnUse" xlink:href="#a"/>
</defs>
<rect x="2.1033" y="2.0073" width="27.986" height="28.404" ry="0" style="fill-opacity:.99608;fill-rule:evenodd;fill:#f8f8f8"/>
<path d="m19.001 2.1472h5.32v26.6h-5.32z" style="fill:url(#c);stroke-width:.665"/>
<path d="m24.321 4.1422v1.995h-1.995l1.995 1.995v0.665h-1.995l1.995 1.995v0.665h-1.995l1.995 1.995v0.665h-1.995l8.458 11.305v-11.97l-1.1902-1.6625zm-1.33 11.97v2.66h-0.665v2.66h-1.33l4.468 7.315h5.32v-1.995l-1.6939-2.2714z" style="fill-rule:evenodd;fill:url(#d);opacity:.2;stroke-width:.665"/>
<path d="m19.001 2.8122v1.995h1.995v-0.665h0.665v-0.665h-0.665v-0.665z" style="fill:url(#e);stroke-opacity:.55;stroke-width:1.862"/>
<path d="m24.321 4.1422v1.995h-1.995v-0.665h-0.665v-0.665h0.665v-0.665z" style="fill:url(#f);stroke-opacity:.55;stroke-width:1.862"/>
<path d="m19.001 5.4722v1.995h1.995v-0.665h0.665v-0.665h-0.665v-0.665z" style="fill:url(#g);stroke-opacity:.55;stroke-width:1.862"/>
<path d="m24.321 6.8022v1.995h-1.995v-0.665h-0.665v-0.665h0.665v-0.665z" style="fill:url(#h);stroke-opacity:.55;stroke-width:1.862"/>
<path d="m19.001 8.1322v1.995h1.995v-0.665h0.665v-0.665h-0.665v-0.665z" style="fill:url(#i);stroke-opacity:.55;stroke-width:1.862"/>
<path d="m24.321 9.4622v1.995h-1.995v-0.665h-0.665v-0.665h0.665v-0.665z" style="fill:url(#j);stroke-opacity:.55;stroke-width:1.862"/>
<path d="m19.001 10.792v1.995h1.995v-0.665h0.665v-0.665h-0.665v-0.665z" style="fill:url(#k);stroke-opacity:.55;stroke-width:1.862"/>
<path d="m24.321 12.122v1.995h-1.995v-0.665h-0.665v-0.665h0.665v-0.665z" style="fill:url(#l);stroke-opacity:.55;stroke-width:1.862"/>
<path d="m19.001 13.452v1.995h1.995v-0.665h0.665v-0.665h-0.665v-0.665z" style="fill:url(#m);stroke-opacity:.55;stroke-width:1.862"/>
<path d="m20.331 16.112v2.66h0.665v2.66h1.33v-2.66h0.665v-2.66zm0.665 0.665h1.33v1.33h-1.33z" style="fill:url(#n);stroke-opacity:.55;stroke-width:1.862"/>
<path transform="matrix(.5 0 0 .5 .066304 .016549)" d="m4.7043 3.9815-0.012938 56.82h53.904l1.0222-2.8664s-23.875 0.76639-32.844-4.1404c-10.516-5.7529-15.372-49.697-15.372-49.697z" style="fill:url(#linearGradient3403);mix-blend-mode:normal;stroke-linejoin:round;stroke-width:1.1624;stroke:url(#linearGradient20558)"/>
<rect transform="matrix(.46839 0 0 .46744 .90638 1.0269)" x="1.0324" y=".59551" width="62.567" height="62.867" rx="5.803" ry="6.2447" style="fill:none;stroke-linejoin:round;stroke-miterlimit:7.8;stroke-opacity:.99515;stroke-width:3.7137;stroke:url(#linearGradient4557)"/>
</svg>
