<svg width="32" height="32" version="1.1" viewBox="0 0 32 32" xmlns="http://www.w3.org/2000/svg" xmlns:xlink="http://www.w3.org/1999/xlink">
<defs>
<linearGradient id="linearGradient3403" x1="6.9492" x2="11.215" y1="4.5549" y2="59.052" gradientUnits="userSpaceOnUse">
<stop style="stop-color:#32373c" offset="0"/>
<stop style="stop-color:#1a1a1a" offset=".36805"/>
<stop style="stop-color:#31363b" offset="1"/>
</linearGradient>
<linearGradient id="linearGradient20558" x1="25.802" x2="25.111" y1="20.374" y2="58.913" gradientUnits="userSpaceOnUse">
<stop style="stop-color:#3d3d3d" offset="0"/>
<stop offset=".61772"/>
<stop style="stop-color:#3d3d3d" offset="1"/>
</linearGradient>
<linearGradient id="linearGradient4557" x1="43.5" x2="44.142" y1="64.012" y2=".30621" gradientTransform="translate(.36068 -.13017)" gradientUnits="userSpaceOnUse">
<stop style="stop-color:#141618" offset="0"/>
<stop style="stop-color:#686868" offset=".51821"/>
<stop style="stop-color:#31363b" offset="1"/>
</linearGradient>
<linearGradient id="e" x2="0" y1="543.8" y2="503.8" gradientTransform="matrix(1.125 0 0 1 -432.98 -499.38)" gradientUnits="userSpaceOnUse">
<stop stop-color="#426467" offset="0"/>
<stop stop-color="#525b58" offset="1"/>
</linearGradient>
<linearGradient id="f" x1="14" x2="14" y1="21" y2="4" gradientTransform="translate(.66433 .41329)" gradientUnits="userSpaceOnUse">
<stop stop-color="#ffa92d" offset="0"/>
<stop stop-color="#ffdaa5" offset="1"/>
</linearGradient>
<linearGradient id="g" x2="0" y1="527.8" y2="504.8" gradientTransform="translate(-381.91 -499.38)" gradientUnits="userSpaceOnUse">
<stop stop-color="#fff" offset="0"/>
<stop stop-color="#fff" stop-opacity="0" offset="1"/>
</linearGradient>
<linearGradient id="h" x1="8" x2="22" y1="4" y2="18" gradientTransform="translate(2.6643 .41329)" gradientUnits="userSpaceOnUse">
<stop stop-color="#292c2f" offset="0"/>
<stop stop-opacity="0" offset="1"/>
</linearGradient>
</defs>
<g transform="matrix(.70703 0 0 .72851 -.35906 -1.9542)">
<path d="m8.6643 4.4133v40h29.355a6.63 6.63 0 0 0 6.645-6.645v-26.71a6.63 6.63 0 0 0-6.645-6.645h-22.71z" style="fill:url(#e)"/>
<path d="m8.6643 43.413v1h29.355c0.92 0 1.797-0.184 2.592-0.52 0.269-0.113 0.464-0.334 0.713-0.48z" style="opacity:.15"/>
<path d="m8.6643 4.4133h2v40h-2z" style="fill:#080809;opacity:.6"/>
<path d="m41.324 43.413c0.489-0.287 1.001-0.544 1.399-0.941 0.016-0.017 0.022-0.042 0.039-0.059h-32.098v1z" style="fill:#8b8f8f"/>
<path d="m42.762 42.413c0.281-0.287 0.448-0.665 0.673-1h-32.771v1z" style="fill-opacity:.452;fill:#212323"/>
<path d="m10.664 4.4133v17l4-2.309 4 2.309v-17z" style="fill:url(#f)"/>
<path d="m11.664 4.4133h6v15l-3-2-3 2z" style="fill:url(#g);opacity:.15"/>
<path d="m33.664 44.413h4.355a6.63 6.63 0 0 0 6.645-6.645v-7.355l-26-26v17l-4-2.309-4 2.309z" style="fill-rule:evenodd;fill:url(#h);opacity:.2"/>
</g>
<path transform="matrix(.5 0 0 .5 .066304 .01655)" d="m4.7043 3.9815-0.012938 56.82h53.904l1.0222-2.8664s-23.875 0.76639-32.844-4.1404c-10.516-5.7529-15.372-49.697-15.372-49.697z" style="fill:url(#linearGradient3403);mix-blend-mode:normal;stroke-linejoin:round;stroke-width:1.1624;stroke:url(#linearGradient20558)"/>
<rect transform="matrix(.46839 0 0 .46744 .90638 1.0269)" x="1.0324" y=".59551" width="62.567" height="62.867" rx="5.803" ry="6.2447" style="fill:none;stroke-linejoin:round;stroke-miterlimit:7.8;stroke-opacity:.99515;stroke-width:3.7137;stroke:url(#linearGradient4557)"/>
</svg>
