<svg width="32" height="32" version="1.1" viewBox="0 0 32 32" xmlns="http://www.w3.org/2000/svg" xmlns:xlink="http://www.w3.org/1999/xlink">
<defs>
<linearGradient id="linearGradient3403" x1="6.9492" x2="11.215" y1="4.5549" y2="59.052" gradientUnits="userSpaceOnUse">
<stop style="stop-color:#32373c" offset="0"/>
<stop style="stop-color:#1a1a1a" offset=".36805"/>
<stop style="stop-color:#31363b" offset="1"/>
</linearGradient>
<linearGradient id="linearGradient20558" x1="25.802" x2="25.111" y1="20.374" y2="58.913" gradientUnits="userSpaceOnUse">
<stop style="stop-color:#3d3d3d" offset="0"/>
<stop offset=".61772"/>
<stop style="stop-color:#3d3d3d" offset="1"/>
</linearGradient>
<linearGradient id="linearGradient4557" x1="43.5" x2="44.142" y1="64.012" y2=".30621" gradientTransform="translate(.36068 -.13017)" gradientUnits="userSpaceOnUse">
<stop style="stop-color:#141618" offset="0"/>
<stop style="stop-color:#686868" offset=".51821"/>
<stop style="stop-color:#31363b" offset="1"/>
</linearGradient>
<linearGradient x1="14.369" x2="26.522" y1="22.522" y2="22.522" gradientUnits="userSpaceOnUse">
<stop stop-color="#536161" style="stop-color:#bfc9c9" offset="0"/>
<stop stop-color="#f4f5f5" style="stop-color:#fbfbfb" offset="1"/>
</linearGradient>
</defs>
<g transform="matrix(.68944 0 0 .68944 -.34558 -.78288)">
<rect x="4" y="4" width="40" height="40" rx="2" ry="2" fill="#3f5979"/>
<path d="m30.879 22.495c0 1.367 0.035 2.504-0.625 3.715-0.531 0.984-1.375 1.59-2.316 1.59-1.285 0-2.031-1.023-2.031-2.535 0-2.984 2.555-3.527 4.973-3.527v0.758m3.375 8.531c-0.219 0.207-0.539 0.223-0.789 0.086-1.109-0.965-1.309-1.414-1.922-2.336-1.836 1.961-3.133 2.547-5.516 2.547-2.816 0-5.01-1.816-5.01-5.453 0-2.84 1.473-4.777 3.566-5.723 1.813-0.836 4.352-0.984 6.293-1.215v-0.453c0-0.832 0.063-1.816-0.402-2.535-0.41-0.645-1.191-0.91-1.879-0.91-1.277 0-2.414 0.684-2.691 2.102-0.059 0.316-0.277 0.625-0.582 0.641l-3.246-0.363c-0.273-0.066-0.574-0.297-0.5-0.734 0.75-4.109 4.305-5.352 7.484-5.352 1.629 0 3.758 0.453 5.04 1.742 1.629 1.59 1.473 3.711 1.473 6.02v5.453c0 1.641 0.648 2.359 1.262 3.246 0.215 0.313 0.262 0.695-8e-3 0.93-0.684 0.602-1.898 1.703-2.566 2.324l-0.012-0.012" style="fill-rule:evenodd;opacity:.2"/>
<path d="m30.879 21.495c0 1.367 0.035 2.504-0.625 3.715-0.531 0.984-1.375 1.59-2.316 1.59-1.285 0-2.031-1.023-2.031-2.535 0-2.984 2.555-3.527 4.973-3.527v0.758m3.375 8.531c-0.219 0.207-0.539 0.223-0.789 0.086-1.109-0.965-1.309-1.414-1.922-2.336-1.836 1.961-3.133 2.547-5.516 2.547-2.816 0-5.01-1.816-5.01-5.453 0-2.84 1.473-4.777 3.566-5.723 1.813-0.836 4.352-0.984 6.293-1.215v-0.453c0-0.832 0.063-1.816-0.402-2.535-0.41-0.645-1.191-0.91-1.879-0.91-1.277 0-2.414 0.684-2.691 2.102-0.059 0.316-0.277 0.625-0.582 0.641l-3.246-0.363c-0.273-0.066-0.574-0.297-0.5-0.734 0.75-4.109 4.305-5.352 7.484-5.352 1.629 0 3.758 0.453 5.04 1.742 1.629 1.59 1.473 3.711 1.473 6.02v5.453c0 1.641 0.648 2.359 1.262 3.246 0.215 0.313 0.262 0.695-8e-3 0.93-0.684 0.602-1.898 1.703-2.566 2.324l-0.012-0.012" style="fill-rule:evenodd;fill:#fff"/>
<path d="m40.11 31.318c-0.91 0.013-1.985 0.223-2.797 0.809-0.254 0.18-0.211 0.429 0.07 0.394 0.914-0.114 2.958-0.364 3.321 0.113 0.367 0.476-0.407 2.446-0.747 3.325-0.105 0.266 0.118 0.375 0.352 0.172 1.531-1.308 1.922-4.051 1.609-4.446-0.154-0.197-0.899-0.38-1.808-0.367zm-23.903 0.527c-0.189 0.026-0.273 0.261-0.074 0.446 3.394 3.143 7.88 5.029 12.86 5.029 3.554 0 7.677-1.149 10.525-3.297l2e-3 -4e-3c0.473-0.36 0.07-0.89-0.414-0.683-3.188 1.391-6.661 2.058-9.813 2.058-4.676 0-9.207-1.312-12.867-3.496-0.08-0.048-0.155-0.061-0.219-0.053z" style="opacity:.2"/>
<path d="m40.11 30.318c-0.91 0.013-1.985 0.223-2.797 0.809-0.254 0.18-0.211 0.429 0.07 0.394 0.914-0.114 2.958-0.364 3.321 0.113 0.367 0.476-0.407 2.446-0.747 3.325-0.105 0.266 0.118 0.375 0.352 0.172 1.531-1.308 1.922-4.051 1.609-4.446-0.154-0.197-0.899-0.38-1.808-0.367zm-23.903 0.527c-0.189 0.026-0.273 0.261-0.074 0.446 3.394 3.143 7.88 5.029 12.86 5.029 3.554 0 7.677-1.149 10.525-3.297l2e-3 -4e-3c0.473-0.36 0.07-0.89-0.414-0.683-3.188 1.391-6.661 2.058-9.813 2.058-4.676 0-9.207-1.312-12.867-3.496-0.08-0.048-0.155-0.061-0.219-0.053z" style="fill:#f90"/>
</g>
<path transform="matrix(.5 0 0 .5 .066304 .01655)" d="m4.7043 3.9815-0.012938 56.82h53.904l1.0222-2.8664s-23.875 0.76639-32.844-4.1404c-10.516-5.7529-15.372-49.697-15.372-49.697z" style="fill:url(#linearGradient3403);mix-blend-mode:normal;stroke-linejoin:round;stroke-width:1.1624;stroke:url(#linearGradient20558)"/>
<rect transform="matrix(.46839 0 0 .46744 .90638 1.0269)" x="1.0324" y=".59551" width="62.567" height="62.867" rx="5.803" ry="6.2447" style="fill:none;stroke-linejoin:round;stroke-miterlimit:7.8;stroke-opacity:.99515;stroke-width:3.7137;stroke:url(#linearGradient4557)"/>
</svg>
