<svg width="32" height="32" version="1.1" viewBox="0 0 32 32" xmlns="http://www.w3.org/2000/svg" xmlns:xlink="http://www.w3.org/1999/xlink">
<defs>
<linearGradient id="linearGradient3403" x1="6.9492" x2="11.215" y1="4.5549" y2="59.052" gradientUnits="userSpaceOnUse">
<stop style="stop-color:#32373c" offset="0"/>
<stop style="stop-color:#1a1a1a" offset=".36805"/>
<stop style="stop-color:#31363b" offset="1"/>
</linearGradient>
<linearGradient id="linearGradient20558" x1="25.802" x2="25.111" y1="20.374" y2="58.913" gradientUnits="userSpaceOnUse">
<stop style="stop-color:#3d3d3d" offset="0"/>
<stop offset=".61772"/>
<stop style="stop-color:#3d3d3d" offset="1"/>
</linearGradient>
<linearGradient id="linearGradient4557" x1="43.5" x2="44.142" y1="64.012" y2=".30621" gradientTransform="translate(.36068 -.13017)" gradientUnits="userSpaceOnUse">
<stop style="stop-color:#141618" offset="0"/>
<stop style="stop-color:#686868" offset=".51821"/>
<stop style="stop-color:#31363b" offset="1"/>
</linearGradient>
<linearGradient id="linearGradient4218" x1="20" x2="38" y1="17" y2="35" gradientUnits="userSpaceOnUse">
<stop offset="0"/>
<stop style="stop-opacity:0" offset="1"/>
</linearGradient>
<linearGradient id="linearGradient4204" x1="24" x2="24" y1="1032.4" y2="1018.4" gradientUnits="userSpaceOnUse">
<stop style="stop-color:#272b2d" offset="0"/>
<stop style="stop-color:#3e4447" offset="1"/>
</linearGradient>
<radialGradient id="radialGradient4191" cx="24" cy="1025.4" r="2" gradientTransform="matrix(1 0 0 .99987 0 .12868)" gradientUnits="userSpaceOnUse">
<stop style="stop-color:#acacac" offset="0"/>
<stop style="stop-color:#cbcbcb" offset="1"/>
</radialGradient>
</defs>
<rect x="2.1033" y="2.0073" width="27.986" height="28.404" ry="0" style="fill-rule:evenodd;fill:#8ece65"/>
<g transform="matrix(.665 0 0 .665 3.5578 -670.21)">
<path transform="translate(0 1004.4)" d="m26.014 14.02-2.7676 5.0156-5.6348 13.598-2.3867 7.0586 0.04297 0.04297a18 18 0 0 0 8.7324 2.2656 18 18 0 0 0 17.316-13.15z" style="fill:url(#linearGradient4218);opacity:.2"/>
<path d="m23.298 1021.6-2.5981 1.5 13.5 23.383 2.799 1.848-0.20091-3.348z" style="fill:#dcdcdc"/>
<path d="m35 1026.4c0 4.0083-1.1911 4.9591-2.6407 6.6529-0.74918 0.8632-1.6287 1.5961-2.6384 2.1498-1.3681 0.7655-3.448 1.189-5.1256 1.189-1.6775 0-3.2573-0.4398-4.6091-1.189-0.98621-0.7944-2.9862 2.2056-1.6612 2.5989 1.8567 1.0424 4.0065 1.6067 6.2866 1.6067s4.9301-0.5643 6.7868-1.6067c0.99349-0.5537 1.9055-1.2377 2.7036-2.0195 2.4104-2.3453 3.9251-5.7336 3.9251-9.3655-1.0284-0.01-2.1151 0-3.0271-0.01z" style="fill:#c3c3c3"/>
<path d="m24.701 1021.6 2.5981 1.5-13.5 23.383-2.799 1.848 0.20091-3.348z" style="fill:#c3c3c3"/>
<path d="m27.114 1021.4h-1.1138v-3.0002h-4v3.0002h-1.1301c-1.0244 0-1.8699 0.8465-1.8699 1.8592v4.8955h0.01627c-0.01627 0.1608 0.08127 0.3377 0.29268 0.5466l3.7561 3.3129c0.26016 0.2572 0.60163 0.3858 0.92683 0.3858v-0.016l0.01627 0.016c0.34146 0 0.68292-0.1286 0.92683-0.3858l3.7561-3.3129c0.21138-0.2089 0.29268-0.4019 0.29268-0.5466h0.01627v-4.8794c-0.01627-1.0287-0.84553-1.8753-1.8862-1.8753z" style="fill:url(#linearGradient4204)"/>
<path d="m24.007 1027.4h-0.01304c-1.0945 0-1.9935-0.8902-1.9935-1.9867 0-1.0966 0.89902-1.9868 1.9935-1.9868v-0.026l0.01304 0.026c1.0945 0.013 1.9935 0.8902 1.9935 1.9868 0 1.0965-0.89902 1.9738-1.9935 1.9867z" style="fill:url(#radialGradient4191)"/>
</g>
<path transform="matrix(.5 0 0 .5 .066304 .01655)" d="m4.7043 3.9815-0.012938 56.82h53.904l1.0222-2.8664s-23.875 0.76639-32.844-4.1404c-10.516-5.7529-15.372-49.697-15.372-49.697z" style="fill:url(#linearGradient3403);mix-blend-mode:normal;stroke-linejoin:round;stroke-width:1.1624;stroke:url(#linearGradient20558)"/>
<rect transform="matrix(.46839 0 0 .46744 .90638 1.0269)" x="1.0324" y=".59551" width="62.567" height="62.867" rx="5.803" ry="6.2447" style="fill:none;stroke-linejoin:round;stroke-miterlimit:7.8;stroke-opacity:.99515;stroke-width:3.7137;stroke:url(#linearGradient4557)"/>
</svg>
