<svg width="32" height="32" version="1.1" viewBox="0 0 32 32" xmlns="http://www.w3.org/2000/svg" xmlns:xlink="http://www.w3.org/1999/xlink">
<defs>
<linearGradient id="linearGradient3403" x1="6.9492" x2="11.215" y1="4.5549" y2="59.052" gradientUnits="userSpaceOnUse">
<stop style="stop-color:#32373c" offset="0"/>
<stop style="stop-color:#1a1a1a" offset=".36805"/>
<stop style="stop-color:#31363b" offset="1"/>
</linearGradient>
<linearGradient id="linearGradient20558" x1="25.802" x2="25.111" y1="20.374" y2="58.913" gradientUnits="userSpaceOnUse">
<stop style="stop-color:#3d3d3d" offset="0"/>
<stop offset=".61772"/>
<stop style="stop-color:#3d3d3d" offset="1"/>
</linearGradient>
<linearGradient id="linearGradient4557" x1="43.5" x2="44.142" y1="64.012" y2=".30621" gradientTransform="translate(.36068 -.13017)" gradientUnits="userSpaceOnUse">
<stop style="stop-color:#141618" offset="0"/>
<stop style="stop-color:#686868" offset=".51821"/>
<stop style="stop-color:#31363b" offset="1"/>
</linearGradient>
<linearGradient id="linearGradient919" x1="7.4006" x2="33.063" y1="41.743" y2="7.1074" gradientTransform="scale(.665)" gradientUnits="userSpaceOnUse">
<stop style="stop-opacity:.99608" offset="0"/>
<stop style="stop-color:#353a3f;stop-opacity:.99608" offset="1"/>
</linearGradient>
<linearGradient id="linearGradient4276" x1="24" x2="24" y1="36" y2="4" gradientUnits="userSpaceOnUse">
<stop style="stop-color:#c6cdd1" offset="0"/>
<stop style="stop-color:#e0e5e7" offset="1"/>
</linearGradient>
<linearGradient id="linearGradient4286" x1="15" x2="36.81" y1="10" y2="31.81" gradientUnits="userSpaceOnUse">
<stop style="stop-color:#383e51" offset="0"/>
<stop style="stop-color:#383e51;stop-opacity:0" offset="1"/>
</linearGradient>
<linearGradient id="linearGradient4316" x1="24" x2="24" y1="26" y2="44" gradientUnits="userSpaceOnUse">
<stop style="stop-color:#569914" offset="0"/>
<stop style="stop-color:#9cc94b" offset="1"/>
</linearGradient>
<linearGradient id="linearGradient4294" x1="28" x2="38" y1="34" y2="44" gradientUnits="userSpaceOnUse" xlink:href="#linearGradient4163"/>
<linearGradient id="linearGradient4163">
<stop offset="0"/>
<stop style="stop-opacity:0" offset="1"/>
</linearGradient>
<linearGradient id="linearGradient4302" x1="16" x2="26" y1="34" y2="44" gradientUnits="userSpaceOnUse" xlink:href="#linearGradient4163"/>
</defs>
<rect x="2.1033" y="2.0073" width="27.986" height="28.404" ry="0" style="fill-rule:evenodd;fill:url(#linearGradient919)"/>
<g transform="matrix(.665 0 0 .665 3.2751 -.27565)">
<path d="m11 4h26v32h-26z" style="fill:url(#linearGradient4276);stroke-opacity:.55;stroke-width:2.8"/>
<path d="m22 11-7 7 17.814 18h4.1855v-20.998l-4-4h-7v4z" style="fill-rule:evenodd;fill:url(#linearGradient4286);opacity:.2"/>
<rect x="15" y="11" width="7" height="7" style="fill:#202224;stroke-opacity:.55;stroke-width:2.8"/>
<rect x="26" y="11" width="7" height="7" style="fill:#202224;stroke-opacity:.55;stroke-width:2.8"/>
<rect x="17" y="11" width="3" height="7" style="fill:#fdbc4a;stroke-opacity:.55;stroke-width:2.8"/>
<rect x="28" y="11" width="3" height="7" style="fill:#fdbc4a;stroke-opacity:.55;stroke-width:2.8"/>
<path d="m14.877 20.018c-0.12891 0.016-0.25701 0.058-0.37695 0.1269-0.47978 0.277-0.64223 0.8855-0.36523 1.3653l3.2871 5.6933c-9.4157 3.89-9.4219 15.959-9.4219 16.797h32c-8e-6 -0.8379-0.0059-12.906-9.4199-16.797l3.2871-5.6933c0.277-0.4798 0.11259-1.0883-0.36719-1.3653s-1.0882-0.1145-1.3652 0.3653l-3.4961 6.0547c-1.376-0.3558-2.9088-0.5645-4.6387-0.5645s-3.2626 0.2087-4.6387 0.5645l-3.4941-6.0547c-0.20775-0.3599-0.60349-0.5407-0.99024-0.4922z" style="fill:url(#linearGradient4316);stroke-opacity:.55;stroke-width:2.8"/>
<rect x="14" y="41" width="20" height="2" rx="1" ry="1" style="fill:#fff"/>
<path d="m31.361 34.533-2.8281 2.8301 6.6367 6.6367h4.8301c-1e-6 -0.1006-0.0091-0.4627-0.02539-0.8535z" style="fill:url(#linearGradient4294);opacity:.2"/>
<path d="m19.357 34.529-2.8281 2.8281 6.6445 6.6426h5.6562z" style="fill:url(#linearGradient4302);opacity:.2"/>
<circle cx="18" cy="36" r="2" style="fill:#fff"/>
<circle cx="30" cy="36" r="2" style="fill:#fff"/>
</g>
<path transform="matrix(.5 0 0 .5 .066304 .01655)" d="m4.7043 3.9815-0.012938 56.82h53.904l1.0222-2.8664s-23.875 0.76639-32.844-4.1404c-10.516-5.7529-15.372-49.697-15.372-49.697z" style="fill:url(#linearGradient3403);mix-blend-mode:normal;stroke-linejoin:round;stroke-width:1.1624;stroke:url(#linearGradient20558)"/>
<rect transform="matrix(.46839 0 0 .46744 .90638 1.0269)" x="1.0324" y=".59551" width="62.567" height="62.867" rx="5.803" ry="6.2447" style="fill:none;stroke-linejoin:round;stroke-miterlimit:7.8;stroke-opacity:.99515;stroke-width:3.7137;stroke:url(#linearGradient4557)"/>
</svg>
