<?xml version="1.0" encoding="UTF-8" standalone="no"?>
<!-- Created with Inkscape (http://www.inkscape.org/) -->

<svg
  width="32"
  height="32"
  version="1.1"
  viewBox="0 0 32 32"
  id="svg22"
  xmlns:xlink="http://www.w3.org/1999/xlink"
  xmlns="http://www.w3.org/2000/svg"
  xmlns:svg="http://www.w3.org/2000/svg">
 <defs
   id="defs12">
  <linearGradient
    xlink:href="#linearGradient3487"
    id="linearGradient3403"
    gradientUnits="userSpaceOnUse"
    x1="6.9491749"
    y1="4.5549412"
    x2="11.215498"
    y2="59.052471" />
  <linearGradient
    id="linearGradient3487">
   <stop
     style="stop-color:#32373c;stop-opacity:1"
     offset="0"
     id="stop3481" />
   <stop
     id="stop3483"
     offset="0.36804965"
     style="stop-color:#1a1a1a;stop-opacity:1" />
   <stop
     style="stop-color:#31363b;stop-opacity:1"
     offset="1"
     id="stop3485" />
  </linearGradient>
  <linearGradient
    xlink:href="#linearGradient20604"
    id="linearGradient20558"
    gradientUnits="userSpaceOnUse"
    x1="25.802212"
    y1="20.373846"
    x2="25.111048"
    y2="58.912758" />
  <linearGradient
    id="linearGradient20604">
   <stop
     id="stop20598"
     offset="0"
     style="stop-color:#3d3d3d;stop-opacity:1" />
   <stop
     style="stop-color:#000000;stop-opacity:1"
     offset="0.61772454"
     id="stop20600" />
   <stop
     id="stop20602"
     offset="1"
     style="stop-color:#3d3d3d;stop-opacity:1" />
  </linearGradient>
  <filter
    style="color-interpolation-filters:sRGB"
    id="filter20720"
    x="-0.010582688"
    y="-0.010229875"
    width="1.0211649"
    height="1.0204598">
   <feGaussianBlur
     stdDeviation="2.387537e-05"
     id="feGaussianBlur20722" />
  </filter>
  <linearGradient
    gradientTransform="translate(0.36067797,-0.13016949)"
    xlink:href="#linearGradient4555"
    id="linearGradient4557"
    x1="43.499737"
    y1="64.011795"
    x2="44.141731"
    y2="0.30621234"
    gradientUnits="userSpaceOnUse" />
  <linearGradient
    id="linearGradient4555">
   <stop
     style="stop-color:#141618;stop-opacity:1"
     offset="0"
     id="stop4551" />
   <stop
     id="stop4559"
     offset="0.51820582"
     style="stop-color:#686868;stop-opacity:1" />
   <stop
     style="stop-color:#31363b;stop-opacity:1"
     offset="1"
     id="stop4553" />
  </linearGradient>
  <filter
    style="color-interpolation-filters:sRGB"
    id="filter4601"
    x="-0.029678592"
    width="1.0593572"
    y="-0.029536986"
    height="1.059074">
   <feGaussianBlur
     stdDeviation="2.5512574e-05"
     id="feGaussianBlur4603" />
  </filter>
 </defs>
 <rect
   style="display:inline;fill:#e89643;fill-opacity:1;fill-rule:evenodd;stroke:none;stroke-width:0.617;stroke-linejoin:round;stroke-miterlimit:7.8"
   id="rect1192"
   width="27.986259"
   height="28.403551"
   x="2.1033354"
   y="2.0072958"
   ry="0" />
 <g
   id="g868"
   transform="matrix(0.71031183,0,0,0.72304139,-0.32750249,-1.5431704)">
  <path
    style="opacity:1;fill:#545454;fill-opacity:0.62481;fill-rule:nonzero;stroke:none;stroke-width:10.9;stroke-miterlimit:4;stroke-dasharray:none;stroke-opacity:0.502732"
    d="m 23.607415,11.556846 c -0.72528,0.027 -1.12297,0.2699 -1.38281,0.7929 -0.1667,0.3356 -0.30258,0.8943 -0.30273,1.2422 -5.4e-4,1.2763 -1.28975,2.4414 -2.70313,2.4414 -0.6935,0 -1.07422,-0.1905 -2.47852,-1.2422 -0.63918,-0.4787 -1.04342,-0.3552 -2.03515,0.6211 -0.9422,0.9277 -0.9651,1.3715 -0.13086,2.4785 0.34476,0.4576 0.69349,1.0681 0.77539,1.3575 0.20259,0.7155 -0.12946,2.0252 -0.66211,2.6074 -0.43658,0.4772 -1.5195,0.8496 -2.46484,0.8496 -0.89895,0 -1.22266,0.5113 -1.22266,1.9277 0,1.1029 0.0417,1.2529 0.41992,1.5039 0.23112,0.1535 0.89977,0.3477 1.48633,0.4317 0.58659,0.084 1.26284,0.2827 1.50195,0.4414 0.50483,0.3351 1.09071,1.5349 1.09571,2.2461 0.004,0.5163 -0.39315,1.4288 -0.80274,1.8437 -0.44642,0.4522 -0.77384,1.2751 -0.65625,1.6504 0.15065,0.4808 1.17075,1.5094 1.69922,1.7129 0.30269,0.1166 0.52332,0.083 0.81641,-0.125 0.85907,-0.6095 2.32831,-1.2715 2.82422,-1.2715 0.74764,0 1.98779,0.66 2.25976,1.2031 0.12804,0.2558 0.28767,0.8509 0.35547,1.3223 0.16437,1.1433 0.42541,1.6825 0.86133,1.7754 0.19818,0.042 0.51634,0.1125 0.70703,0.1563 v 0 c 0.19069,0.045 0.6194,0.045 0.95312,0 0.87043,-0.1169 1.33428,-0.7653 1.48047,-2.0704 0.13367,-1.1933 0.24434,-1.3853 1.12305,-1.9472 0.89229,-0.5706 1.59085,-0.6819 2.27734,-0.3633 0.56919,0.2642 0.79877,0.4009 1.73243,1.0234 0.68408,0.4562 1.10963,0.3799 1.90039,-0.3437 1.18898,-1.0881 1.2138,-1.5598 0.14843,-2.8028 -1.01411,-1.183 -1.02637,-2.6398 -0.0293,-3.7578 0.38182,-0.4281 0.72453,-0.5767 1.85547,-0.8027 1.70756,-0.3412 1.98523,-0.62 1.99023,-2.0059 0.005,-1.3842 -0.21502,-1.6102 -1.81836,-1.8613 -1.5256,-0.2389 -2.01475,-0.5829 -2.55078,-1.791 -0.44569,-1.0045 -0.32223,-1.5935 0.62891,-2.9727 0.48775,-0.7072 0.72992,-1.2238 0.67382,-1.4414 -0.12537,-0.4856 -1.70452,-1.9336 -2.10937,-1.9336 -0.18748,0 -0.68681,0.269 -1.10938,0.5957 -1.16562,0.9014 -1.86079,1.105 -2.85742,0.8379 -1.17104,-0.3137 -1.58705,-0.8089 -1.88281,-2.2382 -0.33967,-1.6415 -0.55907,-1.9366 -1.52539,-2.0469 -0.32197,-0.037 -0.60004,-0.052 -0.8418,-0.043 z"
    id="path50235" />
  <path
    style="display:inline;fill:#ffffff;fill-opacity:1;fill-rule:nonzero;stroke:none;stroke-width:10.9;stroke-miterlimit:4;stroke-dasharray:none;stroke-opacity:0.502732"
    d="m 23.607415,11.002 c -0.72528,0.027 -1.12297,0.2699 -1.38281,0.7929 -0.1667,0.3356 -0.30258,0.8943 -0.30273,1.2422 -5.4e-4,1.2763 -1.28975,2.4414 -2.70313,2.4414 -0.6935,0 -1.07422,-0.1905 -2.47852,-1.2422 -0.63918,-0.4787 -1.04342,-0.3552 -2.03515,0.6211 -0.9422,0.9277 -0.9651,1.3715 -0.13086,2.4785 0.34476,0.4576 0.69349,1.0681 0.77539,1.3575 0.20259,0.7155 -0.12946,2.0252 -0.66211,2.6074 -0.43658,0.4772 -1.5195,0.8496 -2.46484,0.8496 -0.89895,0 -1.22266,0.5113 -1.22266,1.9277 0,1.1029 0.0417,1.2529 0.41992,1.5039 0.23112,0.1535 0.89977,0.3477 1.48633,0.4317 0.58659,0.084 1.26284,0.2827 1.50195,0.4414 0.50483,0.3351 1.09071,1.5349 1.09571,2.2461 0.004,0.5163 -0.39315,1.4288 -0.80274,1.8437 -0.44642,0.4522 -0.77384,1.2751 -0.65625,1.6504 0.15065,0.4808 1.17075,1.5094 1.69922,1.7129 0.30269,0.1166 0.52332,0.083 0.81641,-0.125 0.85907,-0.6095 2.32831,-1.2715 2.82422,-1.2715 0.74764,0 1.98779,0.66 2.25976,1.2031 0.12804,0.2558 0.28767,0.8509 0.35547,1.3223 0.16437,1.1433 0.42541,1.6825 0.86133,1.7754 0.19818,0.042 0.51634,0.1125 0.70703,0.1563 v 0 c 0.19069,0.045 0.6194,0.045 0.95312,0 0.87043,-0.1169 1.33428,-0.7653 1.48047,-2.0704 0.13367,-1.1933 0.24434,-1.3853 1.12305,-1.9472 0.89229,-0.5706 1.59085,-0.6819 2.27734,-0.3633 0.56919,0.2642 0.79877,0.4009 1.73243,1.0234 0.68408,0.4562 1.10963,0.3799 1.90039,-0.3437 1.18898,-1.0881 1.2138,-1.5598 0.14843,-2.8028 -1.01411,-1.183 -1.02637,-2.6398 -0.0293,-3.7578 0.38182,-0.4281 0.72453,-0.5767 1.85547,-0.8027 1.70756,-0.3412 1.98523,-0.62 1.99023,-2.0059 0.005,-1.3842 -0.21502,-1.6102 -1.81836,-1.8613 -1.5256,-0.2389 -2.01475,-0.5829 -2.55078,-1.791 -0.44569,-1.0045 -0.32223,-1.5935 0.62891,-2.9727 0.48775,-0.7072 0.72992,-1.2238 0.67382,-1.4414 -0.12537,-0.4856 -1.70452,-1.9336 -2.10937,-1.9336 -0.18748,0 -0.68681,0.269 -1.10938,0.5957 -1.16562,0.9014 -1.86079,1.105 -2.85742,0.8379 -1.17104,-0.3137 -1.58705,-0.8089 -1.88281,-2.2382 -0.33967,-1.6415 -0.55907,-1.9366 -1.52539,-2.0469 -0.32197,-0.037 -0.60004,-0.052 -0.8418,-0.043 z"
    id="path50235-5" />
  <path
    style="opacity:1;fill:#e89643;fill-opacity:1;fill-rule:nonzero;stroke:none;stroke-width:10.9;stroke-miterlimit:4;stroke-dasharray:none;stroke-opacity:0.502732"
    d="m 23.999995,19 a 5,5 0 0 1 5,5 5,5 0 0 1 -5,5 5,5 0 0 1 -5,-5 5,5 0 0 1 5,-5 z"
    id="path50237" />
 </g>
 <path
   style="display:inline;mix-blend-mode:normal;fill:url(#linearGradient3403);fill-opacity:1;stroke:url(#linearGradient20558);stroke-width:1.16242;stroke-linecap:butt;stroke-linejoin:round;stroke-miterlimit:4;stroke-dasharray:none;stroke-opacity:1"
   d="M 4.7043071,3.9814882 4.6913695,60.80196 H 58.59546 l 1.022155,-2.866369 c 0,0 -23.87537,0.766388 -32.844441,-4.140386 C 16.257548,48.042344 11.401114,4.0978197 11.401114,4.0978197 Z"
   id="path1686"
   transform="matrix(0.5,0,0,0.5,0.06630362,0.0165495)" />
 <rect
   style="display:inline;fill:none;fill-opacity:1;stroke:url(#linearGradient4557);stroke-width:3.71366;stroke-linejoin:round;stroke-miterlimit:7.8;stroke-dasharray:none;stroke-opacity:0.995146"
   id="rect4539"
   width="62.566689"
   height="62.866646"
   x="1.0323594"
   y="0.59551275"
   ry="6.2447233"
   rx="5.8029528"
   transform="matrix(0.46839137,0,0,0.46743668,0.90638486,1.0268973)" />
</svg>
