<?xml version="1.0" encoding="UTF-8" standalone="no"?>
<!-- Created with Inkscape (http://www.inkscape.org/) -->

<svg
   width="32"
   height="32"
   version="1.1"
   viewBox="0 0 32 32"
   id="svg22"
   sodipodi:docname="bittorrent.svg"
   inkscape:version="1.1.2 (0a00cf5339, 2022-02-04)"
   xmlns:inkscape="http://www.inkscape.org/namespaces/inkscape"
   xmlns:sodipodi="http://sodipodi.sourceforge.net/DTD/sodipodi-0.dtd"
   xmlns:xlink="http://www.w3.org/1999/xlink"
   xmlns="http://www.w3.org/2000/svg"
   xmlns:svg="http://www.w3.org/2000/svg">
  <sodipodi:namedview
     id="namedview24"
     pagecolor="#ffffff"
     bordercolor="#666666"
     borderopacity="1.0"
     inkscape:showpageshadow="2"
     inkscape:pageopacity="0.0"
     inkscape:pagecheckerboard="0"
     inkscape:deskcolor="#d1d1d1"
     showgrid="false"
     inkscape:zoom="11.15"
     inkscape:cx="-17.040359"
     inkscape:cy="24.529148"
     inkscape:window-width="3440"
     inkscape:window-height="1359"
     inkscape:window-x="0"
     inkscape:window-y="0"
     inkscape:window-maximized="1"
     inkscape:current-layer="svg22"
     inkscape:pageshadow="2" />
  <defs
     id="defs12">
    <linearGradient
       inkscape:collect="always"
       id="linearGradient917">
      <stop
         style="stop-color:#000000;stop-opacity:0.99607843"
         offset="0"
         id="stop913" />
      <stop
         style="stop-color:#353a3f;stop-opacity:0.99607843"
         offset="1"
         id="stop915" />
    </linearGradient>
    <linearGradient
       id="linearGradient1005-3-3"
       x1="5.2535"
       x2="9.3823996"
       y1="15.383"
       y2="2.9421"
       gradientTransform="matrix(0.99999,0,0,0.99999,1.632,-0.61743)"
       gradientUnits="userSpaceOnUse">
      <stop
         stop-color="#fa8200"
         offset="0"
         id="stop2" />
      <stop
         stop-color="#ff9600"
         offset=".36953"
         id="stop4" />
      <stop
         stop-color="#ffb400"
         offset="1"
         id="stop6" />
    </linearGradient>
    <filter
       id="filter4014"
       x="-0.062499933"
       y="-0.057692993"
       width="1.1249999"
       height="1.115386"
       color-interpolation-filters="sRGB">
      <feGaussianBlur
         stdDeviation="1.093751"
         id="feGaussianBlur9" />
    </filter>
    <linearGradient
       inkscape:collect="always"
       xlink:href="#linearGradient3487"
       id="linearGradient3403"
       gradientUnits="userSpaceOnUse"
       x1="6.9491749"
       y1="4.5549412"
       x2="11.215498"
       y2="59.052471" />
    <linearGradient
       id="linearGradient3487">
      <stop
         style="stop-color:#32373c;stop-opacity:1"
         offset="0"
         id="stop3481" />
      <stop
         id="stop3483"
         offset="0.36804965"
         style="stop-color:#1a1a1a;stop-opacity:1" />
      <stop
         style="stop-color:#31363b;stop-opacity:1"
         offset="1"
         id="stop3485" />
    </linearGradient>
    <linearGradient
       inkscape:collect="always"
       xlink:href="#linearGradient20604"
       id="linearGradient20558"
       gradientUnits="userSpaceOnUse"
       x1="25.802212"
       y1="20.373846"
       x2="25.111048"
       y2="58.912758" />
    <linearGradient
       id="linearGradient20604">
      <stop
         id="stop20598"
         offset="0"
         style="stop-color:#3d3d3d;stop-opacity:1" />
      <stop
         style="stop-color:#000000;stop-opacity:1"
         offset="0.61772454"
         id="stop20600" />
      <stop
         id="stop20602"
         offset="1"
         style="stop-color:#3d3d3d;stop-opacity:1" />
    </linearGradient>
    <filter
       inkscape:collect="always"
       style="color-interpolation-filters:sRGB"
       id="filter20720"
       x="-0.017024755"
       y="-0.016457183"
       width="1.0340491"
       height="1.0329144">
      <feGaussianBlur
         inkscape:collect="always"
         stdDeviation="0.14745661"
         id="feGaussianBlur20722" />
    </filter>
    <linearGradient
       gradientTransform="translate(0.36067797,-0.13016949)"
       xlink:href="#linearGradient4555"
       id="linearGradient4557"
       x1="43.499737"
       y1="64.011795"
       x2="44.141731"
       y2="0.30621234"
       gradientUnits="userSpaceOnUse" />
    <linearGradient
       id="linearGradient4555">
      <stop
         style="stop-color:#141618;stop-opacity:1"
         offset="0"
         id="stop4551" />
      <stop
         id="stop4559"
         offset="0.51820582"
         style="stop-color:#686868;stop-opacity:1" />
      <stop
         style="stop-color:#31363b;stop-opacity:1"
         offset="1"
         id="stop4553" />
    </linearGradient>
    <filter
       style="color-interpolation-filters:sRGB"
       id="filter4601"
       x="-0.030244955"
       width="1.0604899"
       y="-0.030100647"
       height="1.0602013">
      <feGaussianBlur
         stdDeviation="0.014790289"
         id="feGaussianBlur4603" />
    </filter>
    <linearGradient
       inkscape:collect="always"
       xlink:href="#linearGradient917"
       id="linearGradient919"
       x1="7.400631"
       y1="41.743092"
       x2="33.063145"
       y2="7.1074457"
       gradientUnits="userSpaceOnUse"
       gradientTransform="matrix(0.65788638,0,0,0.65788638,0.25907186,0.21644156)" />
  </defs>
  <rect
     style="display:inline;fill:url(#linearGradient919);fill-opacity:1;fill-rule:evenodd;stroke:none;stroke-width:0.6104;stroke-linejoin:round;stroke-miterlimit:7.8"
     id="rect1192"
     width="27.686886"
     height="28.099714"
     x="2.3399076"
     y="2.202265"
     ry="0"
     inkscape:label="arriere" />
  <path
     d="M 13.392367,6.4895917 C 7.9092556,9.6554217 6.0306602,16.666887 9.1962248,22.150746 c 2.1428282,3.703342 6.1694972,5.905205 10.4434212,5.710769 -2.417053,-0.04353 -4.648644,-1.255579 -6.217079,-3.963514 -1.332007,-2.296754 -1.690436,-4.960883 -1.012629,-7.504783 0.682921,-2.555944 2.331506,-4.699849 4.648731,-6.037745 l 0.860607,1.49074 c -1.917532,1.107119 -3.282992,2.880894 -3.846411,4.990548 -0.560472,2.099046 -0.261411,4.297437 0.837507,6.195832 2.016702,3.479506 5.608038,4.854794 9.122586,3.542047 -0.652295,0.178903 -1.339772,0.232587 -2.048124,0.09122 -4.33594,-0.343786 -7.495234,-3.617883 -7.511607,-7.785064 -0.0077,-1.983594 0.786003,-3.875962 2.234429,-5.328989 1.474659,-1.480196 3.422806,-2.296484 5.482249,-2.297007 l 0.0011,1.724134 c -1.598353,5.34e-4 -3.112254,0.634725 -4.262607,1.789885 -1.123105,1.12447 -1.735661,2.583058 -1.731486,4.10451 0.01174,3.250758 2.503807,5.80546 5.925817,6.075207 4.216951,0.330491 6.011201,-1.491983 6.680047,-2.469184 -0.950149,0.790294 -1.766679,1.303061 -4.553344,1.791913 -2.388469,0.421008 -4.071413,-0.413175 -4.536957,-0.680275 -0.0027,-3.85e-4 -0.04889,-0.0287 -0.06813,-0.04154 -0.01304,-0.0062 -0.03078,-0.01617 -0.03078,-0.01617 l 0.0022,-0.0011 c -0.0102,-0.0062 -0.03541,-0.02081 -0.03656,-0.02293 l 0.0011,-0.0062 c -0.776834,-0.479582 -1.397673,-1.124013 -1.828029,-1.869446 -0.928163,-1.607767 -0.998255,-3.653833 -0.0064,-5.373384 0.717716,-1.240777 1.874394,-2.13094 3.258785,-2.502118 1.38576,-0.368948 2.830961,-0.179276 4.071707,0.538491 l 0.05053,0.03128 -0.910983,1.45996 c -0.843423,-0.486038 -1.826048,-0.615958 -2.764661,-0.364481 -0.940775,0.252777 -1.726717,0.856305 -2.214155,1.697415 -0.672011,1.169463 -0.624976,2.557912 0.0049,3.649247 0.308567,0.53442 0.757887,0.997233 1.329513,1.32886 5.3e-4,0.0011 -0.23215,-0.138505 0.01064,0.0062 0.242148,0.14462 1.486594,0.802539 3.36711,0.471276 3.099075,-0.544577 4.847112,-1.68505 6.04586,-2.559888 1.030332,-3.102033 0.687488,-6.496271 -0.942155,-9.329296 C 25.887204,5.2038422 18.876035,3.3252175 13.392411,6.490914 Z M 29.397304,21.488678 c -0.08069,0.162674 -0.186855,0.350712 -0.28611,0.532549 0.100084,-0.174974 0.195455,-0.352559 0.28611,-0.532549 z"
     fill-opacity="0.9962"
     stroke-width="1.06451"
     id="path30-3-3-6"
     style="fill:#008080" />
  <path
     style="display:inline;mix-blend-mode:normal;fill:url(#linearGradient3403);fill-opacity:1;stroke:url(#linearGradient20558);stroke-width:1.16242;stroke-linecap:butt;stroke-linejoin:round;stroke-miterlimit:4;stroke-dasharray:none;stroke-opacity:1;filter:url(#filter20720)"
     d="M 4.7043071,3.9814882 4.6913695,60.80196 H 58.59546 l 1.022155,-2.866369 c 0,0 -23.87537,0.766388 -32.844441,-4.140386 C 16.257548,48.042344 11.401114,4.0978197 11.401114,4.0978197 Z"
     id="path1686"
     sodipodi:nodetypes="ccccscc"
     transform="matrix(0.49465141,0,0,0.49465141,0.3246662,0.23281396)"
     inkscape:label="folder" />
  <rect
     style="display:inline;fill:none;fill-opacity:1;stroke:url(#linearGradient4557);stroke-width:3.71366;stroke-linejoin:round;stroke-miterlimit:7.8;stroke-dasharray:none;stroke-opacity:0.995146;filter:url(#filter4601)"
     id="rect4539"
     width="62.566689"
     height="62.866646"
     x="1.0323594"
     y="0.59551275"
     ry="6.2447233"
     rx="5.8029528"
     transform="matrix(0.46338091,0,0,0.46243644,1.1557609,1.2323539)"
     inkscape:label="contour" />
</svg>
