<?xml version="1.0" encoding="UTF-8" standalone="no"?>
<!-- Created with Inkscape (http://www.inkscape.org/) -->

<svg
  width="32"
  height="32"
  version="1.1"
  viewBox="0 0 32 32"
  id="svg22"
  xmlns:xlink="http://www.w3.org/1999/xlink"
  xmlns="http://www.w3.org/2000/svg"
  xmlns:svg="http://www.w3.org/2000/svg">
 <defs
   id="defs12">
  <linearGradient
    id="linearGradient917">
   <stop
     style="stop-color:#000000;stop-opacity:0.99607843"
     offset="0"
     id="stop913" />
   <stop
     style="stop-color:#353a3f;stop-opacity:0.99607843"
     offset="1"
     id="stop915" />
  </linearGradient>
  <linearGradient
    xlink:href="#linearGradient3487"
    id="linearGradient3403"
    gradientUnits="userSpaceOnUse"
    x1="6.9491749"
    y1="4.5549412"
    x2="11.215498"
    y2="59.052471" />
  <linearGradient
    id="linearGradient3487">
   <stop
     style="stop-color:#32373c;stop-opacity:1"
     offset="0"
     id="stop3481" />
   <stop
     id="stop3483"
     offset="0.36804965"
     style="stop-color:#1a1a1a;stop-opacity:1" />
   <stop
     style="stop-color:#31363b;stop-opacity:1"
     offset="1"
     id="stop3485" />
  </linearGradient>
  <linearGradient
    xlink:href="#linearGradient20604"
    id="linearGradient20558"
    gradientUnits="userSpaceOnUse"
    x1="25.802212"
    y1="20.373846"
    x2="25.111048"
    y2="58.912758" />
  <linearGradient
    id="linearGradient20604">
   <stop
     id="stop20598"
     offset="0"
     style="stop-color:#3d3d3d;stop-opacity:1" />
   <stop
     style="stop-color:#000000;stop-opacity:1"
     offset="0.61772454"
     id="stop20600" />
   <stop
     id="stop20602"
     offset="1"
     style="stop-color:#3d3d3d;stop-opacity:1" />
  </linearGradient>
  <filter
    style="color-interpolation-filters:sRGB"
    id="filter20720"
    x="-0.01065221"
    y="-0.010297079"
    width="1.021304"
    height="1.0205942">
   <feGaussianBlur
     stdDeviation="0.0016149527"
     id="feGaussianBlur20722" />
  </filter>
  <linearGradient
    gradientTransform="translate(0.36067797,-0.13016949)"
    xlink:href="#linearGradient4555"
    id="linearGradient4557"
    x1="43.499737"
    y1="64.011795"
    x2="44.141731"
    y2="0.30621234"
    gradientUnits="userSpaceOnUse" />
  <linearGradient
    id="linearGradient4555">
   <stop
     style="stop-color:#141618;stop-opacity:1"
     offset="0"
     id="stop4551" />
   <stop
     id="stop4559"
     offset="0.51820582"
     style="stop-color:#686868;stop-opacity:1" />
   <stop
     style="stop-color:#31363b;stop-opacity:1"
     offset="1"
     id="stop4553" />
  </linearGradient>
  <filter
    style="color-interpolation-filters:sRGB"
    id="filter4601"
    x="-0.02974381"
    width="1.0594876"
    y="-0.029601892"
    height="1.0592038">
   <feGaussianBlur
     stdDeviation="0.0017256947"
     id="feGaussianBlur4603" />
  </filter>
  <linearGradient
    xlink:href="#linearGradient917"
    id="linearGradient919"
    x1="7.400631"
    y1="41.743092"
    x2="33.063145"
    y2="7.1074457"
    gradientUnits="userSpaceOnUse"
    gradientTransform="matrix(0.66452827,0,0,0.66500953,5.803757e-4,-2.2932455e-4)" />
  <linearGradient
    xlink:href="#linearGradient4564"
    id="linearGradient4570"
    x1="18.653"
    y1="20.191"
    x2="7.4320002"
    y2="8.5249996"
    gradientUnits="userSpaceOnUse"
    gradientTransform="matrix(0.9090909,0,0,1.0526316,2.1818183,-1.2631584)" />
  <linearGradient
    id="linearGradient4564">
   <stop
     style="stop-color:#ffa92d;stop-opacity:1;"
     offset="0"
     id="stop4566" />
   <stop
     style="stop-color:#ffc169;stop-opacity:1"
     offset="1"
     id="stop4568" />
  </linearGradient>
  <linearGradient
    xlink:href="#linearGradient4574"
    id="linearGradient4580"
    x1="28.615"
    y1="21.502001"
    x2="39.939999"
    y2="10.118"
    gradientUnits="userSpaceOnUse"
    gradientTransform="matrix(0.9090909,0,0,1.0526316,2.1818183,-1.2631584)" />
  <linearGradient
    id="linearGradient4574">
   <stop
     style="stop-color:#bf4231;stop-opacity:1;"
     offset="0"
     id="stop4576" />
   <stop
     style="stop-color:#f58273;stop-opacity:1"
     offset="1"
     id="stop4578" />
  </linearGradient>
  <linearGradient
    xlink:href="#linearGradient4590"
    id="linearGradient4596"
    x1="33.241001"
    y1="30.191"
    x2="40.393002"
    y2="37.416"
    gradientUnits="userSpaceOnUse"
    gradientTransform="matrix(0.9090909,0,0,1.0526316,2.1818183,-1.2631584)" />
  <linearGradient
    id="linearGradient4590">
   <stop
     id="stop4594"
     offset="0"
     style="stop-color:#54d883;stop-opacity:1" />
   <stop
     id="stop4592"
     offset="1"
     style="stop-color:#3bb566;stop-opacity:1;" />
  </linearGradient>
  <linearGradient
    xlink:href="#linearGradient4582"
    id="linearGradient4588"
    x1="19.830999"
    y1="26.561001"
    x2="9.6899996"
    y2="37.881001"
    gradientUnits="userSpaceOnUse"
    gradientTransform="matrix(0.9090909,0,0,1.0526316,2.1818183,-1.2631584)" />
  <linearGradient
    id="linearGradient4582">
   <stop
     id="stop4586"
     offset="0"
     style="stop-color:#7cbcec;stop-opacity:1" />
   <stop
     id="stop4584"
     offset="1"
     style="stop-color:#3b85b5;stop-opacity:1;" />
  </linearGradient>
  <linearGradient
    xlink:href="#linearGradient4626"
    id="linearGradient4632"
    x1="23.693001"
    y1="21.277"
    x2="34.937"
    y2="32.521999"
    gradientUnits="userSpaceOnUse" />
  <linearGradient
    id="linearGradient4626">
   <stop
     style="stop-color:#000000;stop-opacity:1;"
     offset="0"
     id="stop4628" />
   <stop
     style="stop-color:#000000;stop-opacity:0;"
     offset="1"
     id="stop4630" />
  </linearGradient>
  <linearGradient
    xlink:href="#linearGradient4598"
    id="linearGradient4604"
    x1="27.197001"
    y1="33.474998"
    x2="21.365999"
    y2="14.901"
    gradientUnits="userSpaceOnUse"
    gradientTransform="matrix(1,0,0,1.2,0,-4.8)" />
  <linearGradient
    id="linearGradient4598">
   <stop
     style="stop-color:#172525;stop-opacity:1;"
     offset="0"
     id="stop4600" />
   <stop
     style="stop-color:#334545;stop-opacity:1"
     offset="1"
     id="stop4602" />
  </linearGradient>
  <linearGradient
    xlink:href="#linearGradient4656"
    id="linearGradient4662"
    x1="19.025"
    y1="15.232"
    x2="29.945999"
    y2="31.764999"
    gradientUnits="userSpaceOnUse"
    gradientTransform="translate(1)" />
  <linearGradient
    id="linearGradient4656">
   <stop
     style="stop-color:#ffffff;stop-opacity:1;"
     offset="0"
     id="stop4658" />
   <stop
     style="stop-color:#536161;stop-opacity:1"
     offset="1"
     id="stop4660" />
  </linearGradient>
 </defs>
 <rect
   style="display:inline;fill:url(#linearGradient919);fill-opacity:1;fill-rule:evenodd;stroke:none;stroke-width:0.616786;stroke-linejoin:round;stroke-miterlimit:7.8"
   id="rect1192"
   width="27.966408"
   height="28.403959"
   x="2.1024237"
   y="2.0070951"
   ry="0" />
 <g
   transform="matrix(0.67781225,0,0,0.69788122,1.7148327,-1.302326)"
   id="g51808">
  <path
    style="fill:url(#linearGradient4570);fill-opacity:1"
    id="rect4203"
    d="M 24,3.9999996 C 12.92,3.9999996 4.0000001,12.92 4.0000001,24 H 24 Z" />
  <path
    style="fill:url(#linearGradient4580);fill-opacity:1"
    id="path4556"
    d="M 24,3.9999996 C 35.08,3.9999996 44,12.92 44,24 H 24 Z" />
  <path
    style="fill:url(#linearGradient4596);fill-opacity:1"
    id="path4564"
    d="M 24,44 C 35.08,44 44,35.08 44,24 H 24 Z" />
  <path
    style="fill:url(#linearGradient4588);fill-opacity:1"
    id="path4566"
    d="M 24,44 C 12.92,44 4.0000001,35.08 4.0000001,24 H 24 Z" />
  <path
    style="opacity:0.2;fill:url(#linearGradient4632);fill-opacity:1"
    d="M 25.296875,14.412109 24,16.138672 V 24 H 18.097656 L 15.5,27.460938 15.066406,32.070312 26.798828,43.802734 C 35.606316,42.579389 42.539439,35.666677 43.792969,26.869141 L 31.832031,14.908203 Z"
    id="path4598" />
  <circle
    id="path4181"
    cx="24"
    cy="24"
    style="fill:url(#linearGradient4604);fill-opacity:1"
    r="12" />
  <path
    style="color:#4d4d4d;fill:url(#linearGradient4662);fill-opacity:1;stroke:none"
    d="M 25.832031,15.677734 23,15.943359 V 26.882812 L 25.800781,26.5 V 21.824219 L 29.537109,27 32.462891,26.117188 28.634766,21.148438 32.494141,16.441406 29.505859,15.794922 25.800781,20.5 Z m -6.875,2.998047 c -0.03167,0 -0.06986,0.01825 -0.09375,0.03125 l -1.089843,1.058594 c -0.0464,0.046 -0.06526,0.122181 -0.03125,0.175781 l 1.277343,2 c -0.22912,0.3639 -0.398064,0.762181 -0.529297,1.175782 L 16.125,23.587891 c -0.06596,0.017 -0.125,0.05504 -0.125,0.11914 v 1.46875 c 0,0.062 0.06152,0.131385 0.125,0.146485 l 2.302734,0.53125 c 0.122648,0.4795 0.30916,0.934162 0.560547,1.351562 l -1.33789,1.91211 c -0.03713,0.054 -0.0178,0.130681 0.03125,0.175781 l 1.08789,1.029297 c 0.0464,0.042 0.130877,0.06525 0.1875,0.03125 l 2.085938,-1.207032 c 0.41008,0.2235 0.839197,0.410097 1.30664,0.529297 l 0.498047,2.207031 c 0.01429,0.064 0.05783,0.117188 0.125,0.117188 h 1.556641 c 0.0656,0 0.140564,-0.05629 0.15625,-0.117188 l 0.558594,-2.207031 c 0.481832,-0.1229 0.951026,-0.324794 1.371093,-0.558593 l 2.054688,1.294921 c 0.05654,0.034 0.13747,0.01575 0.185547,-0.03125 l 1.089843,-1.029297 c 0.04668,-0.046 0.06546,-0.122381 0.03125,-0.175781 L 29.230469,28 l -0.25,0.08789 c -0.03554,0.017 -0.07289,7.03e-4 -0.09375,-0.0293 0,0 -0.471179,-0.673697 -1.089844,-1.529297 -0.739591,1.3676 -2.246763,2.292969 -3.984375,2.292969 -2.468722,0 -4.482422,-1.872579 -4.482422,-4.205078 0,-1.715701 1.091384,-3.192516 2.646484,-3.853516 V 19.675777 C 21.693517,19.769781 21.427859,19.8659 21.167969,20 h -0.03125 l -2.085938,-1.294922 c -0.02836,-0.017 -0.062,-0.03034 -0.09375,-0.02734 v -0.002 z"
    id="path4653" />
  <path
    style="opacity:0.15;fill:#000000;fill-opacity:1"
    d="m 4,24 c 0,11.08 8.92,20 20,20 11.08,0 20,-8.92 20,-20 H 43.97461 C 43.456395,34.611272 34.744236,43 24,43 13.255764,43 4.5436047,34.611272 4.0253906,24 Z"
    id="path4634" />
 </g>
 <path
   style="display:inline;mix-blend-mode:normal;fill:url(#linearGradient3403);fill-opacity:1;stroke:url(#linearGradient20558);stroke-width:1.16242;stroke-linecap:butt;stroke-linejoin:round;stroke-miterlimit:4;stroke-dasharray:none;stroke-opacity:1"
   d="M 4.7043071,3.9814882 4.6913695,60.80196 H 58.59546 l 1.022155,-2.866369 c 0,0 -23.87537,0.766388 -32.844441,-4.140386 C 16.257548,48.042344 11.401114,4.0978197 11.401114,4.0978197 Z"
   id="path1686"
   transform="matrix(0.49964531,0,0,0.50000717,0.06683695,0.01632034)" />
 <rect
   style="display:inline;fill:none;fill-opacity:1;stroke:url(#linearGradient4557);stroke-width:3.71366;stroke-linejoin:round;stroke-miterlimit:7.8;stroke-dasharray:none;stroke-opacity:0.995146"
   id="rect4539"
   width="62.566689"
   height="62.866646"
   x="1.0323594"
   y="0.59551275"
   ry="6.2447233"
   rx="5.8029528"
   transform="matrix(0.46805911,0,0,0.46744338,0.90632227,1.0266827)" />
</svg>
