<?xml version="1.0" encoding="UTF-8" standalone="no"?>
<!-- Created with Inkscape (http://www.inkscape.org/) -->

<svg
  width="32"
  height="32"
  version="1.1"
  viewBox="0 0 32 32"
  id="svg22"
  xmlns:xlink="http://www.w3.org/1999/xlink"
  xmlns="http://www.w3.org/2000/svg"
  xmlns:svg="http://www.w3.org/2000/svg">
 <defs
   id="defs12">
  <linearGradient
    id="linearGradient917">
   <stop
     style="stop-color:#000000;stop-opacity:0.99607843"
     offset="0"
     id="stop913" />
   <stop
     style="stop-color:#bbeeff;stop-opacity:0.99607843"
     offset="1"
     id="stop915" />
  </linearGradient>
  <linearGradient
    xlink:href="#linearGradient3487"
    id="linearGradient3403"
    gradientUnits="userSpaceOnUse"
    x1="6.9491749"
    y1="4.5549412"
    x2="11.215498"
    y2="59.052471" />
  <linearGradient
    id="linearGradient3487">
   <stop
     style="stop-color:#32373c;stop-opacity:1"
     offset="0"
     id="stop3481" />
   <stop
     id="stop3483"
     offset="0.36804965"
     style="stop-color:#1a1a1a;stop-opacity:1" />
   <stop
     style="stop-color:#31363b;stop-opacity:1"
     offset="1"
     id="stop3485" />
  </linearGradient>
  <linearGradient
    xlink:href="#linearGradient20604"
    id="linearGradient20558"
    gradientUnits="userSpaceOnUse"
    x1="25.802212"
    y1="20.373846"
    x2="25.111048"
    y2="58.912758" />
  <linearGradient
    id="linearGradient20604">
   <stop
     id="stop20598"
     offset="0"
     style="stop-color:#3d3d3d;stop-opacity:1" />
   <stop
     style="stop-color:#000000;stop-opacity:1"
     offset="0.61772454"
     id="stop20600" />
   <stop
     id="stop20602"
     offset="1"
     style="stop-color:#3d3d3d;stop-opacity:1" />
  </linearGradient>
  <filter
    style="color-interpolation-filters:sRGB"
    id="filter20720"
    x="-0.010655421"
    y="-0.010300183"
    width="1.0213104"
    height="1.0206004">
   <feGaussianBlur
     stdDeviation="0.0016884382"
     id="feGaussianBlur20722" />
  </filter>
  <linearGradient
    gradientTransform="translate(0.36067797,-0.13016949)"
    xlink:href="#linearGradient4555"
    id="linearGradient4557"
    x1="43.499737"
    y1="64.011795"
    x2="44.141731"
    y2="0.30621234"
    gradientUnits="userSpaceOnUse" />
  <linearGradient
    id="linearGradient4555">
   <stop
     style="stop-color:#141618;stop-opacity:1"
     offset="0"
     id="stop4551" />
   <stop
     id="stop4559"
     offset="0.51820582"
     style="stop-color:#686868;stop-opacity:1" />
   <stop
     style="stop-color:#31363b;stop-opacity:1"
     offset="1"
     id="stop4553" />
  </linearGradient>
  <filter
    style="color-interpolation-filters:sRGB"
    id="filter4601"
    x="-0.029746822"
    width="1.0594936"
    y="-0.02960489"
    height="1.0592098">
   <feGaussianBlur
     stdDeviation="0.0018042194"
     id="feGaussianBlur4603" />
  </filter>
  <linearGradient
    xlink:href="#linearGradient917"
    id="linearGradient919"
    x1="7.400631"
    y1="41.743092"
    x2="33.063145"
    y2="7.1074457"
    gradientUnits="userSpaceOnUse"
    gradientTransform="scale(0.665)" />
  <linearGradient
    xlink:href="#linearGradient564"
    id="linearGradient4309"
    x1="7.6230001"
    y1="16.497"
    x2="46"
    y2="40"
    gradientUnits="userSpaceOnUse"
    gradientTransform="translate(0,-2.0004844)" />
  <linearGradient
    id="linearGradient564">
   <stop
     style="stop-color:#5e98d7;stop-opacity:1"
     offset="0"
     id="stop52154" />
   <stop
     style="stop-color:#3363ac;stop-opacity:1"
     offset="1"
     id="stop52156" />
  </linearGradient>
  <linearGradient
    xlink:href="#linearGradient4413"
    id="linearGradient4419"
    x1="4"
    y1="29"
    x2="15.409"
    y2="40.409"
    gradientUnits="userSpaceOnUse" />
  <linearGradient
    id="linearGradient4413">
   <stop
     style="stop-color:#000000;stop-opacity:1;"
     offset="0"
     id="stop52134" />
   <stop
     style="stop-color:#000000;stop-opacity:0;"
     offset="1"
     id="stop52136" />
  </linearGradient>
  <linearGradient
    xlink:href="#linearGradient4413"
    id="linearGradient4407"
    x1="10"
    y1="8"
    x2="33.004002"
    y2="31.004"
    gradientUnits="userSpaceOnUse" />
  <linearGradient
    x1="27.719999"
    y1="14.786"
    x2="27.719999"
    y2="24.357"
    id="linearGradient3432"
    xlink:href="#linearGradient4321"
    gradientUnits="userSpaceOnUse"
    gradientTransform="matrix(0.94072063,0,0,1.253843,-12.076923,-5.54014)"
    spreadMethod="pad" />
  <linearGradient
    id="linearGradient4321">
   <stop
     offset="0"
     style="stop-color:#ffffff;stop-opacity:1"
     id="stop52144" />
   <stop
     offset="1"
     style="stop-color:#b1b1b1;stop-opacity:1"
     id="stop52146" />
  </linearGradient>
  <linearGradient
    xlink:href="#linearGradient4192"
    id="linearGradient4333"
    x1="17"
    y1="18"
    x2="11.574"
    y2="9.3629999"
    gradientUnits="userSpaceOnUse"
    gradientTransform="translate(0,-2.0004844)" />
  <linearGradient
    id="linearGradient4192">
   <stop
     style="stop-color:#44a3c8;stop-opacity:1"
     offset="0"
     id="stop52129" />
   <stop
     style="stop-color:#8dcdda;stop-opacity:1"
     offset="1"
     id="stop52131" />
  </linearGradient>
  <linearGradient
    xlink:href="#linearGradient4313"
    id="linearGradient4319"
    x1="12"
    y1="18"
    x2="14"
    y2="20"
    gradientUnits="userSpaceOnUse"
    gradientTransform="translate(0.5,-1.9004844)" />
  <linearGradient
    id="linearGradient4313">
   <stop
     style="stop-color:#ffffff;stop-opacity:1;"
     offset="0"
     id="stop52149" />
   <stop
     style="stop-color:#ffffff;stop-opacity:0;"
     offset="1"
     id="stop52151" />
  </linearGradient>
  <linearGradient
    xlink:href="#linearGradient4192"
    id="linearGradient4350"
    x1="13"
    y1="38"
    x2="4"
    y2="30"
    gradientUnits="userSpaceOnUse"
    gradientTransform="translate(0,-2.0004844)" />
 </defs>
 <rect
   style="display:inline;fill:url(#linearGradient919);fill-opacity:1;fill-rule:evenodd;stroke:none;stroke-width:0.617;stroke-linejoin:round;stroke-miterlimit:7.8"
   id="rect1192"
   width="27.986261"
   height="28.403553"
   x="2.1033354"
   y="2.0072956"
   ry="0" />
 <g
   transform="matrix(0.51657516,0,0,0.51657516,7.9192894,3.8464823)"
   id="g52223">
  <path
    style="opacity:1;fill:url(#linearGradient4309);fill-opacity:1"
    d="M 19.029297,7.9995156 C 10.148193,8.2424256 4,15.438713 4,24.755375 c 0,9.316862 7.010368,17.122745 15.152344,17.244141 7.368073,0.100714 15.295671,-7.671212 17.929687,-13.703125 1.225264,2.928291 3.63038,6.703355 7.917969,6.703125 0,0 -2,-5.285664 -2,-10.142578 0,-4.856914 2,-9.857422 2,-9.857422 -4.365626,0 -6.786413,3.860998 -7.990234,6.767578 C 34.345763,16.523149 26.661843,8.0970936 19.029297,7.9995156 Z"
    id="path52168" />
  <path
    style="opacity:0.2;fill:url(#linearGradient4419);fill-opacity:1;stroke:none;stroke-width:4;stroke-linecap:round;stroke-linejoin:round;stroke-miterlimit:4;stroke-dasharray:none;stroke-opacity:1"
    d="M 8.9453125,29.181641 3.8945312,33.820312 12.074219,42 H 24.996094 L 13.263672,30.267578 Z"
    id="path52170" />
  <path
    style="opacity:0.2;fill:url(#linearGradient4407);fill-opacity:1;stroke:none;stroke-width:4;stroke-linecap:round;stroke-linejoin:round;stroke-miterlimit:4;stroke-dasharray:none;stroke-opacity:1"
    d="M 13.251953,7.2070312 9.7128906,13.863281 10.058594,23.0625 26.693359,39.697266 c 4.639414,-2.739272 8.658468,-7.438212 10.388672,-11.400391 1.20306,2.875225 3.548281,6.558772 7.691407,6.691406 L 17.873047,8.0878906 c -0.02577,0.00264 -0.05236,0.0032 -0.07813,0.00586 C 17.611123,7.8537792 17.408063,7.6329857 17.193359,7.4257812 Z"
    id="path52172" />
  <path
    style="opacity:0.15;fill:#000000;fill-opacity:1"
    d="m 45,14.999516 c -0.12437,0 -0.242051,0.01337 -0.363281,0.01953 C 44.062173,16.7113 43,20.302888 43,23.856938 c 0,0.166517 0.0189,0.334658 0.02344,0.501953 C 43.151169,19.664591 45,14.999516 45,14.999516 Z M 4.0214844,24.224125 C 4.0169306,24.402285 4,24.575602 4,24.755375 c 0,9.316862 7.010368,17.122745 15.152344,17.244141 7.368073,0.100714 15.295671,-7.671212 17.929687,-13.703125 1.225264,2.928291 3.63038,6.703355 7.917969,6.703125 0,0 -0.144379,-0.394448 -0.347656,-1.019531 C 40.585259,33.779539 38.27322,30.143245 37.082031,27.296391 34.448015,33.328304 26.520417,41.10023 19.152344,40.999516 11.14852,40.88018 4.2536862,33.330746 4.0214844,24.224125 Z"
    id="path52174" />
  <path
    style="fill:url(#linearGradient3432)"
    d="m 20,16.999129 a 6,7.997122 0 1 1 -11.9999995,0 6,7.997122 0 1 1 11.9999995,0 z"
    id="path52176" />
  <path
    style="fill:url(#linearGradient4333);fill-opacity:1"
    d="M 20,16.999516 C 19.005811,16.1115 15.744246,10.794912 8,14.174641 8,10.801314 9.3437734,5.9995156 13.744428,5.9995156 19.376876,6.174143 20,13.626179 20,16.999516 Z"
    id="path52178" />
  <path
    d="m 16,18.00093 a 2,2 0 0 1 -3.999999,0 2,2 0 1 1 3.999999,0 z"
    style="fill:#272b2d;fill-opacity:1"
    id="path52180" />
  <path
    style="fill:url(#linearGradient4319);fill-opacity:1"
    d="m 14.5,17.099516 a 1,1 0 0 1 -2,0 1,1 0 1 1 2,0 z"
    id="path52182" />
  <path
    style="opacity:1;fill:url(#linearGradient4350);fill-opacity:1;stroke:none;stroke-width:4;stroke-linecap:round;stroke-linejoin:round;stroke-miterlimit:4;stroke-dasharray:none;stroke-opacity:1"
    d="m 14,31.499516 c 0,1.932997 -5.5670034,3.5 -7.5,3.5 -1.9329966,0 -3.5,-1.567003 -3.5,-3.5 0,-1.932997 1.5670034,-3.5 3.5,-3.5 1.9329966,0 7.5,1.567003 7.5,3.5 z"
    id="path52184" />
 </g>
 <path
   style="display:inline;mix-blend-mode:normal;fill:url(#linearGradient3403);fill-opacity:1;stroke:url(#linearGradient20558);stroke-width:1.16242;stroke-linecap:butt;stroke-linejoin:round;stroke-miterlimit:4;stroke-dasharray:none;stroke-opacity:1"
   d="M 4.7043071,3.9814882 4.6913695,60.80196 H 58.59546 l 1.022155,-2.866369 c 0,0 -23.87537,0.766388 -32.844441,-4.140386 C 16.257548,48.042344 11.401114,4.0978197 11.401114,4.0978197 Z"
   id="path1686"
   transform="matrix(0.5,0,0,0.5,0.06630362,0.01654936)" />
 <rect
   style="display:inline;fill:none;fill-opacity:1;stroke:url(#linearGradient4557);stroke-width:3.71366;stroke-linejoin:round;stroke-miterlimit:7.8;stroke-dasharray:none;stroke-opacity:0.995146"
   id="rect4539"
   width="62.566689"
   height="62.866646"
   x="1.0323594"
   y="0.59551275"
   ry="6.2447233"
   rx="5.8029528"
   transform="matrix(0.46839137,0,0,0.46743669,0.90638486,1.0268972)" />
</svg>
