<?xml version="1.0" encoding="UTF-8" standalone="no"?>
<!-- Created with Inkscape (http://www.inkscape.org/) -->

<svg
  width="32"
  height="32"
  version="1.1"
  viewBox="0 0 32 32"
  id="svg22"
  xmlns:xlink="http://www.w3.org/1999/xlink"
  xmlns="http://www.w3.org/2000/svg"
  xmlns:svg="http://www.w3.org/2000/svg">
 <defs
   id="defs12">
  <linearGradient
    id="linearGradient861">
   <stop
     style="stop-color:#f3bf4e;stop-opacity:1;"
     offset="0"
     id="stop857" />
   <stop
     style="stop-color:#fa8200;stop-opacity:1"
     offset="1"
     id="stop859" />
  </linearGradient>
  <linearGradient
    id="linearGradient51994">
   <stop
     id="stop51988"
     offset="0"
     style="stop-color:#3d3d3d;stop-opacity:1" />
   <stop
     style="stop-color:#000000;stop-opacity:1"
     offset="0.58673579"
     id="stop51990" />
   <stop
     id="stop51992"
     offset="1"
     style="stop-color:#3d3d3d;stop-opacity:1" />
  </linearGradient>
  <linearGradient
    id="linearGradient1005-3-3"
    x1="5.2535"
    x2="9.3823996"
    y1="15.383"
    y2="2.9421"
    gradientTransform="matrix(0.99999,0,0,0.99999,1.632,-0.61743)"
    gradientUnits="userSpaceOnUse">
   <stop
     stop-color="#fa8200"
     offset="0"
     id="stop2" />
   <stop
     stop-color="#ff9600"
     offset=".36953"
     id="stop4" />
   <stop
     stop-color="#ffb400"
     offset="1"
     id="stop6" />
  </linearGradient>
  <filter
    id="filter4014"
    x="-0.062499933"
    y="-0.057692993"
    width="1.1249999"
    height="1.115386"
    color-interpolation-filters="sRGB">
   <feGaussianBlur
     stdDeviation="1.093751"
     id="feGaussianBlur9" />
  </filter>
  <linearGradient
    xlink:href="#linearGradient3487"
    id="linearGradient3403"
    gradientUnits="userSpaceOnUse"
    x1="6.9491749"
    y1="4.5549412"
    x2="11.215498"
    y2="59.052471" />
  <linearGradient
    id="linearGradient3487">
   <stop
     style="stop-color:#32373c;stop-opacity:1"
     offset="0"
     id="stop3481" />
   <stop
     id="stop3483"
     offset="0.36804965"
     style="stop-color:#1a1a1a;stop-opacity:1" />
   <stop
     style="stop-color:#31363b;stop-opacity:1"
     offset="1"
     id="stop3485" />
  </linearGradient>
  <linearGradient
    xlink:href="#linearGradient20604"
    id="linearGradient20558"
    gradientUnits="userSpaceOnUse"
    x1="25.802212"
    y1="20.373846"
    x2="25.111048"
    y2="58.912758" />
  <linearGradient
    id="linearGradient20604">
   <stop
     id="stop20598"
     offset="0"
     style="stop-color:#3d3d3d;stop-opacity:1" />
   <stop
     style="stop-color:#000000;stop-opacity:1"
     offset="0.61772454"
     id="stop20600" />
   <stop
     id="stop20602"
     offset="1"
     style="stop-color:#3d3d3d;stop-opacity:1" />
  </linearGradient>
  <linearGradient
    gradientTransform="translate(0.36067797,-0.13016949)"
    xlink:href="#linearGradient4555"
    id="linearGradient4557"
    x1="43.499737"
    y1="64.011795"
    x2="44.141731"
    y2="0.30621234"
    gradientUnits="userSpaceOnUse" />
  <linearGradient
    id="linearGradient4555">
   <stop
     style="stop-color:#141618;stop-opacity:1"
     offset="0"
     id="stop4551" />
   <stop
     id="stop4559"
     offset="0.51820582"
     style="stop-color:#686868;stop-opacity:1" />
   <stop
     style="stop-color:#31363b;stop-opacity:1"
     offset="1"
     id="stop4553" />
  </linearGradient>
  <filter
    style="color-interpolation-filters:sRGB"
    id="filter4601"
    x="-0.029694242"
    width="1.0593885"
    y="-0.029552561"
    height="1.0591051">
   <feGaussianBlur
     stdDeviation="0.00043349112"
     id="feGaussianBlur4603" />
  </filter>
  <filter
    id="filter4014-8"
    x="-0.062499932"
    y="-0.057692992"
    width="1.1249999"
    height="1.115386"
    color-interpolation-filters="sRGB">
   <feGaussianBlur
     stdDeviation="1.093751"
     id="feGaussianBlur9-1" />
  </filter>
  <linearGradient
    xlink:href="#linearGradient861"
    id="linearGradient863"
    x1="40.788078"
    y1="6.9347911"
    x2="12.978144"
    y2="38.083424"
    gradientUnits="userSpaceOnUse"
    gradientTransform="matrix(0.6576889,0,0,0.6576889,0.2592214,0.2165665)" />
 </defs>
 <rect
   style="display:inline;fill:url(#linearGradient863);fill-opacity:1;fill-rule:evenodd;stroke:none;stroke-width:0.610217;stroke-linejoin:round;stroke-miterlimit:7.8"
   id="rect1192"
   width="27.678576"
   height="28.09128"
   x="2.3394325"
   y="2.2017937"
   ry="0" />
 <g
   id="g837"
   transform="matrix(2.0776362,0,0,2.0776362,-2.9691857,-0.34125966)">
  <path
    transform="matrix(0.26458,0,0,0.26458,1.6676,-0.62406)"
    d="m 25,9.25 c -0.875,0 -3.9375,3.5 -4.375,3.5 h -2.1875 c -0.875,0 -3.9375,3.0625 -3.9375,3.9375 v 2.625 c 0,0.4375 -3.4808,3.5 -3.5,4.375 -0.0192,0.875 6.125,21.438 7,22.312 0.875,0.874 10.5,8.75 13.125,8.75 h 1.75 c 2.625,0 12.25,-7.875 13.125,-8.75 0.875,-0.875 7.0175,-21.438 7,-22.312 -0.01925,-0.86975 -3.5,-3.9375 -3.5,-4.375 v -2.625 C 49.5,15.8125 46.4375,12.75 45.5625,12.75 H 43.375 c -0.4375,0 -3.5,-3.5 -4.375,-3.5 z m 7,6.1113 c 0.875,0 1.7395,0.29892 2.625,0.88867 2.625,1.75 6.125,-0.875 7,-0.875 0.875,0 6.125,6.3752 6.125,8.75 0,1.75 -6.5625,5.775 -6.5625,7 0,0.875 1.3125,1.2973 1.3125,3.1523 0,1.2232 -1.75,3.4102 -3.5,3.4102 -1.75,0 -6.1285,-3.4347 -6.125,-4.2852 v -0.52734 c 0,-1.05 3.9375,-2.373 3.9375,-4.375 0,-1.75 -1.3125,-2.3975 -1.3125,-4.375 0,-1.701 3.5,-2.1875 6.125,-2.625 0.875,0 -2.625,-2.8791 -7.4375,0.23242 -1.218,0.7875 1.3125,3.9011 0.875,6.7676 -0.65625,0.6125 -1.8585,0.91992 -3.0625,0.91992 -1.2022,0 -2.4062,-0.30742 -3.0625,-0.91992 -0.4375,-2.8665 2.093,-5.9801 0.875,-6.7676 C 25,18.62085 21.5,21.49993 22.375,21.49993 c 2.625,0.4375 6.125,0.924 6.125,2.625 0,1.9775 -1.3125,2.625 -1.3125,4.375 0,2.002 3.9375,3.325 3.9375,4.375 v 0.52734 c 0.0035,0.8505 -4.375,4.2852 -6.125,4.2852 -1.75,0 -3.5,-2.1869 -3.5,-3.4102 0,-1.8568 1.3125,-2.2773 1.3125,-3.1523 0,-1.225 -6.5625,-5.25 -6.5625,-7 0,-2.3748 5.25,-8.75 6.125,-8.75 0.875,0 4.375,2.625 7,0.875 C 30.2605,15.66022 31.1285,15.3613 32,15.3613 Z m 0,20.84 c 1.75,0 5.6875,2.7113 5.6875,3.2363 0,0.525 -3.9375,4.8125 -5.6875,4.8125 -1.75,0 -5.6875,-4.2875 -5.6875,-4.8125 0,-0.525 3.9375,-3.2363 5.6875,-3.2363 z"
    fill="#f04b00"
    filter="url(#filter4014)"
    id="path16"
    style="filter:url(#filter4014-8)" />
  <path
    d="m 8.2822,1.8233 c -0.23151,0 -1.0418,0.92604 -1.1576,0.92604 H 6.54582 c -0.23151,0 -1.0418,0.81029 -1.0418,1.0418 v 0.69453 c 0,0.11576 -0.92096,0.92604 -0.92604,1.1576 -0.00508,0.23156 1.6206,5.6721 1.8521,5.9034 0.23151,0.23125 2.7781,2.3151 3.4727,2.3151 h 0.46302 c 0.69453,0 3.2411,-2.0836 3.4727,-2.3151 0.23151,-0.23151 1.8567,-5.6721 1.8521,-5.9034 -0.0051,-0.23012 -0.92604,-1.0418 -0.92604,-1.1576 V 3.79114 c 0,-0.23151 -0.81029,-1.0418 -1.0418,-1.0418 h -0.57878 c -0.11576,0 -0.92604,-0.92604 -1.1576,-0.92604 z m 1.8521,1.6169 c 0.23151,0 0.46024,0.079089 0.69453,0.23513 0.69453,0.46302 1.6206,-0.23151 1.8521,-0.23151 0.23151,0 1.6206,1.6868 1.6206,2.3151 0,0.46302 -1.7363,1.528 -1.7363,1.8521 0,0.23151 0.34727,0.34324 0.34727,0.83405 0,0.32364 -0.46302,0.90228 -0.92604,0.90228 -0.46302,0 -1.6215,-0.90876 -1.6206,-1.1338 V 8.07402 c 0,-0.27781 1.0418,-0.62786 1.0418,-1.1576 0,-0.46302 -0.34727,-0.63434 -0.34727,-1.1576 0,-0.45006 0.92604,-0.57878 1.6206,-0.69453 0.23151,0 -0.69453,-0.76176 -1.9678,0.061495 -0.32226,0.20836 0.34726,1.0322 0.23151,1.7906 -0.17363,0.16206 -0.49173,0.2434 -0.81029,0.2434 -0.31808,0 -0.63664,-0.081338 -0.81029,-0.2434 -0.11576,-0.75843 0.55377,-1.5822 0.23151,-1.7906 -1.2733,-0.82325 -2.1993,-0.061494 -1.9678,-0.061494 0.69453,0.11576 1.6206,0.24448 1.6206,0.69453 0,0.52321 -0.34727,0.69453 -0.34727,1.1576 0,0.5297 1.0418,0.87974 1.0418,1.1576 v 0.13953 c 9.261e-4,0.22503 -1.1576,1.1338 -1.6206,1.1338 -0.46302,0 -0.92604,-0.57862 -0.92604,-0.90228 0,-0.49128 0.34727,-0.60254 0.34727,-0.83405 0,-0.32411 -1.7363,-1.3891 -1.7363,-1.8521 0,-0.62833 1.3891,-2.3151 1.6206,-2.3151 0.2315,0 1.1576,0.69453 1.8521,0.23151 0.23429,-0.15604 0.46395,-0.23513 0.69453,-0.23513 z m 0,5.5139 c 0.46302,0 1.5048,0.71736 1.5048,0.85627 0,0.13891 -1.0418,1.2733 -1.5048,1.2733 -0.46302,0 -1.5048,-1.1344 -1.5048,-1.2733 0,-0.13891 1.0418,-0.85627 1.5048,-0.85627 z"
    fill="#ffffff"
    stroke-width="0.26458"
    id="path18" />
 </g>
 <path
   style="display:inline;mix-blend-mode:normal;fill:url(#linearGradient3403);fill-opacity:1;stroke:url(#linearGradient20558);stroke-width:1.16242;stroke-linecap:butt;stroke-linejoin:round;stroke-miterlimit:4;stroke-dasharray:none;stroke-opacity:1"
   d="M 4.7043071,3.9814882 4.6913695,60.80196 H 58.59546 l 1.022155,-2.866369 c 0,0 -23.87537,0.766388 -32.844441,-4.140386 C 16.257548,48.042344 11.401114,4.0978197 11.401114,4.0978197 Z"
   id="path1686"
   transform="matrix(0.49450293,0,0,0.49450293,0.32479606,0.23293398)" />
 <rect
   style="display:inline;fill:none;fill-opacity:1;stroke:url(#linearGradient4557);stroke-width:3.71366;stroke-linejoin:round;stroke-miterlimit:7.8;stroke-dasharray:none;stroke-opacity:0.995146"
   id="rect4539"
   width="62.566689"
   height="62.866646"
   x="1.0323594"
   y="0.59551275"
   ry="6.2447233"
   rx="5.8029528"
   transform="matrix(0.46324181,0,0,0.46229762,1.1556413,1.2321739)" />
</svg>
