<?xml version="1.0" encoding="UTF-8" standalone="no"?>
<!-- Created with Inkscape (http://www.inkscape.org/) -->

<svg
  width="32"
  height="32"
  version="1.1"
  viewBox="0 0 32 32"
  id="svg22"
  xmlns:xlink="http://www.w3.org/1999/xlink"
  xmlns="http://www.w3.org/2000/svg"
  xmlns:svg="http://www.w3.org/2000/svg">
 <defs
   id="defs12">
  <linearGradient
    id="linearGradient917">
   <stop
     style="stop-color:#000000;stop-opacity:0.99607843"
     offset="0"
     id="stop913" />
   <stop
     style="stop-color:#353a3f;stop-opacity:0.99607843"
     offset="1"
     id="stop915" />
  </linearGradient>
  <linearGradient
    xlink:href="#linearGradient3487"
    id="linearGradient3403"
    gradientUnits="userSpaceOnUse"
    x1="6.9491749"
    y1="4.5549412"
    x2="11.215498"
    y2="59.052471" />
  <linearGradient
    id="linearGradient3487">
   <stop
     style="stop-color:#32373c;stop-opacity:1"
     offset="0"
     id="stop3481" />
   <stop
     id="stop3483"
     offset="0.36804965"
     style="stop-color:#1a1a1a;stop-opacity:1" />
   <stop
     style="stop-color:#31363b;stop-opacity:1"
     offset="1"
     id="stop3485" />
  </linearGradient>
  <linearGradient
    xlink:href="#linearGradient20604"
    id="linearGradient20558"
    gradientUnits="userSpaceOnUse"
    x1="25.802212"
    y1="20.373846"
    x2="25.111048"
    y2="58.912758" />
  <linearGradient
    id="linearGradient20604">
   <stop
     id="stop20598"
     offset="0"
     style="stop-color:#3d3d3d;stop-opacity:1" />
   <stop
     style="stop-color:#000000;stop-opacity:1"
     offset="0.61772454"
     id="stop20600" />
   <stop
     id="stop20602"
     offset="1"
     style="stop-color:#3d3d3d;stop-opacity:1" />
  </linearGradient>
  <filter
    style="color-interpolation-filters:sRGB"
    id="filter20720"
    x="-0.010581663"
    y="-0.010228884"
    width="1.0211629"
    height="1.0204578">
   <feGaussianBlur
     stdDeviation="4.2779974e-07"
     id="feGaussianBlur20722" />
  </filter>
  <linearGradient
    gradientTransform="translate(0.36067797,-0.13016949)"
    xlink:href="#linearGradient4555"
    id="linearGradient4557"
    x1="43.499737"
    y1="64.011795"
    x2="44.141731"
    y2="0.30621234"
    gradientUnits="userSpaceOnUse" />
  <linearGradient
    id="linearGradient4555">
   <stop
     style="stop-color:#141618;stop-opacity:1"
     offset="0"
     id="stop4551" />
   <stop
     id="stop4559"
     offset="0.51820582"
     style="stop-color:#686868;stop-opacity:1" />
   <stop
     style="stop-color:#31363b;stop-opacity:1"
     offset="1"
     id="stop4553" />
  </linearGradient>
  <filter
    style="color-interpolation-filters:sRGB"
    id="filter4601"
    x="-0.029677631"
    width="1.0593553"
    y="-0.029536029"
    height="1.0590721">
   <feGaussianBlur
     stdDeviation="4.5713521e-07"
     id="feGaussianBlur4603" />
  </filter>
  <linearGradient
    xlink:href="#linearGradient917"
    id="linearGradient919"
    x1="7.400631"
    y1="41.743092"
    x2="33.063145"
    y2="7.1074457"
    gradientUnits="userSpaceOnUse"
    gradientTransform="scale(0.665)" />
  <linearGradient
    id="linearGradient3861"
    x1="23"
    x2="23"
    y1="290.01785"
    y2="188.14763"
    gradientTransform="matrix(0.26458333,0,0,0.25828372,3.3333334e-8,-64.293749)"
    gradientUnits="userSpaceOnUse">
   <stop
     stop-color="#eff0f1"
     offset="0"
     id="stop12" />
   <stop
     stop-color="#bdc3c7"
     offset="1"
     id="stop14" />
  </linearGradient>
  <linearGradient
    id="linearGradient1066"
    x1="23.064789"
    x2="23.064789"
    y1="2.9331775"
    y2="-9.4093714"
    gradientUnits="userSpaceOnUse">
   <stop
     stop-color="#da4453"
     offset="0"
     id="stop17" />
   <stop
     stop-color="#ed1515"
     offset="1"
     id="stop19" />
  </linearGradient>
  <radialGradient
    id="radialGradient1341"
    cx="2.6748774"
    cy="4.5400662"
    r="1.7617654"
    gradientTransform="matrix(0.98103659,0,0,0.91815864,0.28626415,0.85858219)"
    gradientUnits="userSpaceOnUse"
    xlink:href="#linearGradient1339" />
  <linearGradient
    id="linearGradient1339">
   <stop
     offset="0"
     id="stop7" />
   <stop
     stop-opacity="0"
     offset="1"
     id="stop9" />
  </linearGradient>
  <radialGradient
    id="radialGradient1345"
    cx="2.6748774"
    cy="4.5400662"
    r="1.7617654"
    gradientTransform="matrix(0.98103659,0,0,0.91815864,2.6715797,0.85858219)"
    gradientUnits="userSpaceOnUse"
    xlink:href="#linearGradient1339" />
  <radialGradient
    id="radialGradient1349"
    cx="2.6748774"
    cy="4.5400662"
    r="1.7617654"
    gradientTransform="matrix(0.98103659,0,0,0.91815864,5.0466293,0.85858219)"
    gradientUnits="userSpaceOnUse"
    xlink:href="#linearGradient1339" />
  <radialGradient
    id="radialGradient1353"
    cx="2.6748774"
    cy="4.5400662"
    r="1.7617654"
    gradientTransform="matrix(3.7078548,0,0,3.4702059,28.197438,3.245035)"
    gradientUnits="userSpaceOnUse"
    xlink:href="#linearGradient1339" />
  <radialGradient
    id="radialGradient1385"
    cx="2.6748774"
    cy="4.5400662"
    r="1.7617654"
    gradientTransform="matrix(3.7078548,0,0,3.4702059,28.197438,12.153046)"
    gradientUnits="userSpaceOnUse"
    xlink:href="#linearGradient1339" />
  <radialGradient
    id="radialGradient1405"
    cx="2.6748774"
    cy="4.5400662"
    r="1.7617654"
    gradientTransform="matrix(3.7078548,0,0,3.4702059,1.0819432,21.211459)"
    gradientUnits="userSpaceOnUse"
    xlink:href="#linearGradient1339" />
  <radialGradient
    id="radialGradient1407"
    cx="2.6748774"
    cy="4.5400662"
    r="1.7617654"
    gradientTransform="matrix(3.7078548,0,0,3.4702059,10.097309,21.211459)"
    gradientUnits="userSpaceOnUse"
    xlink:href="#linearGradient1339" />
  <radialGradient
    id="radialGradient1409"
    cx="2.6748774"
    cy="4.5400662"
    r="1.7617654"
    gradientTransform="matrix(3.7078548,0,0,3.4702059,19.073875,21.211459)"
    gradientUnits="userSpaceOnUse"
    xlink:href="#linearGradient1339" />
  <radialGradient
    id="radialGradient1411"
    cx="2.6748774"
    cy="4.5400662"
    r="1.7617654"
    gradientTransform="matrix(3.7078548,0,0,3.4702059,28.197438,21.211459)"
    gradientUnits="userSpaceOnUse"
    xlink:href="#linearGradient1339" />
  <linearGradient
    id="linearGradient1439"
    x1="23.281746"
    x2="23.281746"
    y1="11.251275"
    y2="2.2961013"
    gradientUnits="userSpaceOnUse">
   <stop
     stop-color="#bdc3c7"
     offset="0"
     id="stop31" />
   <stop
     stop-color="#eff0f1"
     offset="1"
     id="stop33" />
  </linearGradient>
  <linearGradient
    id="linearGradient1441"
    x1="22.997158"
    x2="22.997158"
    y1="25.901901"
    y2="4.0953283"
    gradientTransform="matrix(3.7795276,0,0,3.7795276,-64.000003,0)"
    gradientUnits="userSpaceOnUse">
   <stop
     stop-color="#7f8c8d"
     offset="0"
     id="stop36" />
   <stop
     stop-color="#bdc3c7"
     offset="1"
     id="stop38" />
  </linearGradient>
  <linearGradient
    id="linearGradient1501"
    x1="19.511889"
    x2="19.511889"
    y1="5.8208332"
    y2="2.3392355"
    gradientUnits="userSpaceOnUse">
   <stop
     stop-color="#16a085"
     offset="0"
     id="stop41" />
   <stop
     stop-color="#fff"
     offset="1"
     id="stop43" />
  </linearGradient>
  <linearGradient
    id="linearGradient1509"
    x1="19.511889"
    x2="19.511889"
    y1="5.8208332"
    y2="3.0994468"
    gradientTransform="translate(2.3918707,4.7625003)"
    gradientUnits="userSpaceOnUse"
    xlink:href="#linearGradient1515" />
  <linearGradient
    id="linearGradient1515">
   <stop
     stop-color="#f39c1f"
     offset="0"
     id="stop2-3" />
   <stop
     stop-color="#fff"
     offset="1"
     id="stop4-9" />
  </linearGradient>
  <linearGradient
    id="linearGradient1505"
    x1="19.511889"
    x2="19.511889"
    y1="5.8208332"
    y2="3.0994468"
    gradientTransform="translate(4.7625,2.38125)"
    gradientUnits="userSpaceOnUse">
   <stop
     stop-color="#16a085"
     offset="0"
     id="stop46" />
   <stop
     stop-color="#d9faf4"
     offset="1"
     id="stop48" />
  </linearGradient>
  <linearGradient
    id="linearGradient1525"
    x1="19.511889"
    x2="19.511889"
    y1="5.8208332"
    y2="3.0994468"
    gradientTransform="translate(7.143749,-0.03049597)"
    gradientUnits="userSpaceOnUse"
    xlink:href="#linearGradient1515" />
  <radialGradient
    xlink:href="#linearGradient1339"
    id="radialGradient1136"
    gradientUnits="userSpaceOnUse"
    gradientTransform="matrix(0.98103659,0,0,0.91815864,0.28626415,0.85858219)"
    cx="2.6748774"
    cy="4.5400662"
    r="1.7617654" />
  <radialGradient
    xlink:href="#linearGradient1339"
    id="radialGradient1138"
    gradientUnits="userSpaceOnUse"
    gradientTransform="matrix(0.98103659,0,0,0.91815864,2.6715797,0.85858219)"
    cx="2.6748774"
    cy="4.5400662"
    r="1.7617654" />
  <radialGradient
    xlink:href="#linearGradient1339"
    id="radialGradient1140"
    gradientUnits="userSpaceOnUse"
    gradientTransform="matrix(0.98103659,0,0,0.91815864,5.0466293,0.85858219)"
    cx="2.6748774"
    cy="4.5400662"
    r="1.7617654" />
 </defs>
 <rect
   style="display:inline;fill:url(#linearGradient919);fill-opacity:1;fill-rule:evenodd;stroke:none;stroke-width:0.617;stroke-linejoin:round;stroke-miterlimit:7.8"
   id="rect1192"
   width="27.986261"
   height="28.403553"
   x="2.1033354"
   y="2.0072956"
   ry="0" />
 <g
   id="g980"
   transform="matrix(2.5133858,0,0,2.5133859,0.82959635,1.1508482)">
  <rect
    x="1.0583333"
    y="1.0583338"
    width="10.583333"
    height="10.318749"
    rx="1.5874996"
    ry="1.5874996"
    fill="#0000ff"
    style="paint-order:normal"
    id="rect57" />
  <rect
    x="1.0583333"
    y="1.0583333"
    width="10.583333"
    height="10.583333"
    rx="1.5875001"
    ry="1.5875001"
    fill="#99a3a5"
    stroke-width="0.264583"
    style="paint-order:markers fill stroke"
    id="rect59" />
  <rect
    x="1.0583333"
    y="1.0583333"
    width="10.583333"
    height="10.318749"
    rx="1.5869061"
    ry="1.5869061"
    fill="url(#linearGradient3861)"
    stroke-width="0.264583"
    style="fill:url(#linearGradient3861);paint-order:markers fill stroke"
    id="rect61" />
  <path
    d="m 2.6458333,1.0583333 c -0.8794748,0 -1.5875,0.7080252 -1.5875,1.5875 V 3.175 H 11.641666 V 2.6458333 c 0,-0.8794748 -0.708025,-1.5875 -1.5875,-1.5875 z"
    fill="url(#linearGradient1066)"
    style="fill:url(#linearGradient1066);paint-order:normal"
    id="path71" />
  <g
    transform="translate(3.3333334e-8,4.7536164)"
    opacity="0.2"
    id="g97">
   <path
     transform="translate(0,-4.7536164)"
     d="M 1.9048215,5.7122724 2.6902079,6.4976589 H 5.4283523 V 5.8451724 L 3.6045858,4.0214058"
     fill="url(#radialGradient1341)"
     opacity="1"
     style="fill:url(#radialGradient1136);paint-order:normal"
     id="path73" />
   <path
     transform="translate(0,-4.7536164)"
     d="M 4.2901371,5.7122724 5.0755235,6.4976589 H 7.8136679 V 5.8451724 L 5.9899014,4.0214058"
     fill="url(#radialGradient1345)"
     opacity="1"
     style="fill:url(#radialGradient1138);paint-order:normal"
     id="path75" />
   <path
     transform="translate(0,-4.7536164)"
     d="M 6.6651867,5.7122724 7.4505731,6.4976589 H 10.188717 V 5.8451724 L 8.364951,4.0214058"
     fill="url(#radialGradient1349)"
     opacity="1"
     style="fill:url(#radialGradient1140);paint-order:normal"
     id="path77" />
   <path
     transform="matrix(0.26458333,0,0,0.26458333,0,-4.7536164)"
     d="m 40.738281,15.199219 -6.423828,6.390625 2.96875,2.96875 H 44 v -6.097656 z"
     fill="url(#radialGradient1353)"
     opacity="1"
     style="fill:url(#radialGradient1353);paint-order:normal"
     id="path79" />
   <path
     transform="translate(0,-2.3967052)"
     d="M 1.9048215,5.7122724 2.6902079,6.4976589 H 5.4283523 V 5.8451724 L 3.6045858,4.0214058"
     fill="url(#radialGradient1341)"
     opacity="1"
     style="fill:url(#radialGradient1341);paint-order:normal"
     id="path81" />
   <path
     transform="translate(0,-2.3967052)"
     d="M 4.2901371,5.7122724 5.0755235,6.4976589 H 7.8136679 V 5.8451724 L 5.9899014,4.0214058"
     fill="url(#radialGradient1345)"
     opacity="1"
     style="fill:url(#radialGradient1345);paint-order:normal"
     id="path83" />
   <path
     transform="translate(0,-2.3967052)"
     d="M 6.6651867,5.7122724 7.4505731,6.4976589 H 10.188717 V 5.8451724 L 8.364951,4.0214058"
     fill="url(#radialGradient1349)"
     opacity="1"
     style="fill:url(#radialGradient1349);paint-order:normal"
     id="path85" />
   <path
     transform="matrix(0.26458333,0,0,0.26458333,0,-4.7536164)"
     d="m 40.738281,24.107422 -6.423828,6.390625 2.96875,2.96875 H 44 v -6.097656 z"
     fill="url(#radialGradient1385)"
     opacity="1"
     style="fill:url(#radialGradient1385);paint-order:normal"
     id="path87" />
   <path
     transform="matrix(0.26458333,0,0,0.26458333,0,-4.7536164)"
     d="m 13.623047,33.166016 -6.4238282,6.390625 3.4335932,3.433593 C 10.700203,42.992181 10.766106,43 10.833984,43 h 11 l -1.316406,-2.941406 z"
     fill="url(#radialGradient1405)"
     opacity="1"
     style="fill:url(#radialGradient1405);paint-order:normal"
     id="path89" />
   <path
     transform="matrix(0.26458333,0,0,0.26458333,0,-4.7536164)"
     d="M 22.638672,33.166016 16.214844,39.556641 19.658203,43 H 30.847656 L 29.53125,40.058594 Z"
     fill="url(#radialGradient1407)"
     opacity="1"
     style="fill:url(#radialGradient1407);paint-order:normal"
     id="path91" />
   <path
     transform="matrix(0.26458333,0,0,0.26458333,0,-4.7536164)"
     d="M 31.615234,33.166016 25.191406,39.556641 28.634766,43 h 8.53125 c 0.866467,0 1.691674,-0.167365 2.453125,-0.458984 l -1.111329,-2.482422 z"
     fill="url(#radialGradient1409)"
     opacity="1"
     style="fill:url(#radialGradient1409);paint-order:normal"
     id="path93" />
   <path
     transform="matrix(0.26458333,0,0,0.26458333,0,-4.7536164)"
     d="m 40.738281,33.166016 -6.423828,6.390625 3.416016,3.416015 c 3.437224,-0.279022 6.133869,-3.078382 6.257812,-6.558594 z"
     fill="url(#radialGradient1411)"
     opacity="1"
     style="fill:url(#radialGradient1411);paint-order:normal"
     id="path95" />
  </g>
  <g
    transform="translate(-14.619002,0.34048972)"
    shape-rendering="auto"
    id="g105">
   <path
     d="m 18.306641,1.5683594 c 0,-0.1563847 -0.128761,-0.2871094 -0.285157,-0.2871094 -0.156395,0 -0.285156,0.1307247 -0.285156,0.2871094 0,0.1563846 0.128761,0.2851562 0.285156,0.2851562 0.156396,0 0.285157,-0.1287716 0.285157,-0.2851562 z m -0.197266,0 c 0,0.050309 -0.03828,0.087891 -0.08789,0.087891 -0.04961,0 -0.08789,-0.037581 -0.08789,-0.087891 0,-0.050309 0.03828,-0.089844 0.08789,-0.089844 0.04961,0 0.08789,0.039534 0.08789,0.089844 z"
     color="#000000"
     color-rendering="auto"
     dominant-baseline="auto"
     fill="#232629"
     image-rendering="auto"
     solid-color="#000000"
     style="font-variant-ligatures:normal;font-variant-position:normal;font-variant-caps:normal;font-variant-numeric:normal;font-variant-alternates:normal;font-feature-settings:normal;text-indent:0;text-decoration-line:none;text-decoration-style:solid;text-decoration-color:#000000;text-transform:none;text-orientation:mixed;white-space:normal;shape-padding:0;isolation:auto;mix-blend-mode:normal;paint-order:markers fill stroke"
     id="path99" />
   <path
     d="m 18.115234,-0.2109375 c -0.05619,-0.0164115 -0.120321,-0.004845 -0.167968,0.0234375 -0.0953,0.0565655 -0.145674,0.15565464 -0.189454,0.28710937 -0.08755,0.26289977 -0.111409,0.6274567 -0.06641,0.95507813 0.04715,0.3431878 0.236328,0.578125 0.236328,0.578125 a 0.11131392,0.11131392 0 1 0 0.173828,-0.1386719 c 0,0 -0.151226,-0.1905298 -0.189453,-0.46875 -0.04036,-0.29378453 -0.01397,-0.64346049 0.05664,-0.85546872 0.03449,-0.10355718 0.07869,-0.15429016 0.08984,-0.16210938 0.0025,0.00148774 0.0054,0.00235329 0.01758,0.01757813 0.04138,0.05185364 0.09426,0.18819729 0.121094,0.35937499 a 0.11174276,0.11174276 0 1 0 0.220703,-0.0351562 C 18.387781,0.15701908 18.338322,-0.0025989 18.25,-0.11328125 18.21464,-0.15759848 18.171429,-0.194526 18.115234,-0.2109375 Z"
     color="#000000"
     color-rendering="auto"
     dominant-baseline="auto"
     fill="#bdc3c7"
     image-rendering="auto"
     solid-color="#000000"
     style="font-variant-ligatures:normal;font-variant-position:normal;font-variant-caps:normal;font-variant-numeric:normal;font-variant-alternates:normal;font-feature-settings:normal;text-indent:0;text-decoration-line:none;text-decoration-style:solid;text-decoration-color:#000000;text-transform:none;text-orientation:mixed;white-space:normal;shape-padding:0;isolation:auto;mix-blend-mode:normal;paint-order:markers fill stroke"
     id="path101" />
   <path
     d="m 18.207031,-0.16015625 -0.148437,0.16601563 c 0.0037,0.00328219 0.01479,0.01605398 0.01758,0.01953125 0.06596,0.0826527 0.146743,0.36999135 0.146484,0.69140625 L 18.445312,0.71875 C 18.445595,0.3677309 18.39029,0.06252405 18.25,-0.11328125 c -0.01522,-0.0190027 -0.02829,-0.0336972 -0.04297,-0.046875 z"
     color="#000000"
     color-rendering="auto"
     dominant-baseline="auto"
     fill="#9ca5ac"
     image-rendering="auto"
     solid-color="#000000"
     style="font-variant-ligatures:normal;font-variant-position:normal;font-variant-caps:normal;font-variant-numeric:normal;font-variant-alternates:normal;font-feature-settings:normal;text-indent:0;text-decoration-line:none;text-decoration-style:solid;text-decoration-color:#000000;text-transform:none;text-orientation:mixed;white-space:normal;shape-padding:0;isolation:auto;mix-blend-mode:normal;paint-order:markers fill stroke"
     id="path103" />
  </g>
  <g
    transform="translate(-8.697658,0.33958333)"
    shape-rendering="auto"
    id="g113">
   <path
     d="m 18.306641,1.5683594 c 0,-0.1563847 -0.128761,-0.2871094 -0.285157,-0.2871094 -0.156395,0 -0.285156,0.1307247 -0.285156,0.2871094 0,0.1563846 0.128761,0.2851562 0.285156,0.2851562 0.156396,0 0.285157,-0.1287716 0.285157,-0.2851562 z m -0.197266,0 c 0,0.050309 -0.03828,0.087891 -0.08789,0.087891 -0.04961,0 -0.08789,-0.037581 -0.08789,-0.087891 0,-0.050309 0.03828,-0.089844 0.08789,-0.089844 0.04961,0 0.08789,0.039534 0.08789,0.089844 z"
     color="#000000"
     color-rendering="auto"
     dominant-baseline="auto"
     fill="#232629"
     image-rendering="auto"
     solid-color="#000000"
     style="font-variant-ligatures:normal;font-variant-position:normal;font-variant-caps:normal;font-variant-numeric:normal;font-variant-alternates:normal;font-feature-settings:normal;text-indent:0;text-decoration-line:none;text-decoration-style:solid;text-decoration-color:#000000;text-transform:none;text-orientation:mixed;white-space:normal;shape-padding:0;isolation:auto;mix-blend-mode:normal;paint-order:markers fill stroke"
     id="path107" />
   <path
     d="m 18.115234,-0.2109375 c -0.05619,-0.0164115 -0.120321,-0.004845 -0.167968,0.0234375 -0.0953,0.0565655 -0.145674,0.15565464 -0.189454,0.28710937 -0.08755,0.26289977 -0.111409,0.6274567 -0.06641,0.95507813 0.04715,0.3431878 0.236328,0.578125 0.236328,0.578125 0.09114,0.1263844 0.276804,-0.021733 0.173828,-0.1386719 -0.04899,-0.055627 -0.151226,-0.1905298 -0.189453,-0.46875 -0.04036,-0.29378453 -0.01397,-0.64346049 0.05664,-0.85546872 0.03449,-0.10355718 0.07869,-0.15429016 0.08984,-0.16210938 0.0025,0.00148774 0.0054,0.00235329 0.01758,0.01757813 0.04138,0.05185364 0.09426,0.18819729 0.121094,0.35937499 0.0234,0.14718946 0.244101,0.11203326 0.220703,-0.0351562 C 18.387781,0.15701908 18.338322,-0.0025989 18.25,-0.11328125 18.21464,-0.15759848 18.171429,-0.194526 18.115234,-0.2109375 Z"
     color="#000000"
     color-rendering="auto"
     dominant-baseline="auto"
     fill="#bdc3c7"
     image-rendering="auto"
     solid-color="#000000"
     style="font-variant-ligatures:normal;font-variant-position:normal;font-variant-caps:normal;font-variant-numeric:normal;font-variant-alternates:normal;font-feature-settings:normal;text-indent:0;text-decoration-line:none;text-decoration-style:solid;text-decoration-color:#000000;text-transform:none;text-orientation:mixed;white-space:normal;shape-padding:0;isolation:auto;mix-blend-mode:normal;paint-order:markers fill stroke"
     id="path109" />
   <path
     d="m 18.207031,-0.16015625 -0.148437,0.16601563 c 0.0037,0.00328219 0.01479,0.01605398 0.01758,0.01953125 0.06596,0.0826527 0.146743,0.36999135 0.146484,0.69140625 L 18.445312,0.71875 C 18.445595,0.3677309 18.39029,0.06252405 18.25,-0.11328125 c -0.01522,-0.0190027 -0.02829,-0.0336972 -0.04297,-0.046875 z"
     color="#000000"
     color-rendering="auto"
     dominant-baseline="auto"
     fill="#9ca5ac"
     image-rendering="auto"
     solid-color="#000000"
     style="font-variant-ligatures:normal;font-variant-position:normal;font-variant-caps:normal;font-variant-numeric:normal;font-variant-alternates:normal;font-feature-settings:normal;text-indent:0;text-decoration-line:none;text-decoration-style:solid;text-decoration-color:#000000;text-transform:none;text-orientation:mixed;white-space:normal;shape-padding:0;isolation:auto;mix-blend-mode:normal;paint-order:markers fill stroke"
     id="path111" />
  </g>
  <g
    transform="translate(-16.933334)"
    id="g127">
   <g
     fill="url(#linearGradient1439)"
     id="g117"
     style="fill:url(#linearGradient1439)">
    <path
      transform="matrix(0.26458333,0,0,0.26458333,16.933334,0)"
      d="m 35.023438,14.882812 c -0.554,1e-6 -1,0.446 -1,1 v 5 c 0,0.554001 0.446,1 1,1 h 5 c 0.553999,10e-7 1,-0.445999 1,-1 v -5 c 0,-0.554 -0.446001,-1 -1,-1 z M 8.023438,15 c -0.5539992,0 -1,0.446 -1,1 v 5 c 0,0.554 0.4460008,1 1,1 h 5 c 0.553999,0 1,-0.446 1,-1 v -5 c 0,-0.554 -0.446001,-1 -1,-1 z m 9,0 c -0.554,0 -1,0.446 -1,1 v 5 c 0,0.554 0.446,1 1,1 h 5 c 0.553999,0 1,-0.446 1,-1 v -5 c 0,-0.554 -0.446001,-1 -1,-1 z M 26,15 c -0.553999,0 -1,0.446 -1,1 v 5 c 0,0.554 0.446001,1 1,1 h 5 c 0.553999,0 1,-0.446 1,-1 v -5 c 0,-0.554 -0.446001,-1 -1,-1 z m 9.023438,8.882812 c -0.554,10e-7 -1,0.446 -1,1 v 5 c 0,0.554001 0.446,1 1,1 h 5 c 0.553999,0 1,-0.445999 1,-1 v -5 c 0,-0.554 -0.446001,-1 -1,-1 z M 8.0234385,24 c -0.5539992,0 -1,0.446 -1,1 v 5 c 0,0.554 0.4460008,1 1,1 h 5.0000005 c 0.553999,0 1,-0.446 1,-1 v -5 c 0,-0.554 -0.446001,-1 -1,-1 z m 9.0000005,0 c -0.554,0 -1,0.446 -1,1 v 5 c 0,0.554 0.446,1 1,1 h 5 c 0.553999,0 1,-0.446 1,-1 v -5 c 0,-0.554 -0.446001,-1 -1,-1 z m 8.976562,0 c -0.553999,0 -1,0.446 -1,1 v 5 c 0,0.554 0.446001,1 1,1 h 5 c 0.553999,0 1,-0.446 1,-1 v -5 c 0,-0.554 -0.446001,-1 -1,-1 z m 9.046875,8.882812 c -0.553999,0 -1,0.446 -1,1 v 5 c 0,0.554001 0.446001,1 1,1 h 5 c 0.553999,0 1,-0.445999 1,-1 v -5 c 0,-0.554 -0.446001,-1 -1,-1 z M 8.046876,33 c -0.5539992,0 -1,0.446 -1,1 v 5 c 0,0.554 0.4460008,1 1,1 h 5 c 0.553999,0 1,-0.446 1,-1 v -5 c 0,-0.554 -0.446001,-1 -1,-1 z m 9,0 c -0.553999,0 -1,0.446 -1,1 v 5 c 0,0.554 0.446001,1 1,1 h 5 c 0.553999,0 1,-0.446 1,-1 v -5 c 0,-0.554 -0.446001,-1 -1,-1 z m 8.976563,0 c -0.554,0 -1,0.446 -1,1 v 5 c 0,0.554 0.446,1 1,1 h 5 c 0.553999,0 1,-0.446 1,-1 v -5 c 0,-0.554 -0.446001,-1 -1,-1 z"
      fill="url(#linearGradient1441)"
      style="fill:url(#linearGradient1441);paint-order:markers fill stroke"
      id="path115" />
   </g>
   <path
     d="m 18.791619,5.5562497 c 0,0.1465791 0.118004,0.2645833 0.264583,0.2645833 h 1.322917 c 0.135585,0 0.242474,-0.1024218 0.258382,-0.2335773 v -0.031006 z"
     fill="url(#linearGradient1501)"
     style="fill:url(#linearGradient1501);paint-order:markers fill stroke"
     id="path119" />
   <path
     d="m 21.18349,10.31875 c 0,0.146579 0.118004,0.264583 0.264583,0.264583 h 1.322917 c 0.135585,0 0.242474,-0.102421 0.258382,-0.233577 v -0.03101 z"
     fill="url(#linearGradient1509)"
     style="fill:url(#linearGradient1509);paint-order:markers fill stroke"
     id="path121" />
   <path
     d="m 23.554119,7.9374997 c 0,0.1465791 0.118004,0.2645833 0.264583,0.2645833 h 1.322917 c 0.135585,0 0.242474,-0.1024218 0.258382,-0.2335773 v -0.031006 z"
     fill="url(#linearGradient1505)"
     style="fill:url(#linearGradient1505);paint-order:markers fill stroke"
     id="path123" />
   <path
     d="m 25.935369,5.5257538 c 0,0.146579 0.118004,0.264583 0.264583,0.264583 h 1.322917 c 0.135585,0 0.242474,-0.102421 0.258382,-0.233577 v -0.03101 z"
     fill="url(#linearGradient1525)"
     style="fill:url(#linearGradient1525);paint-order:markers fill stroke"
     id="path125" />
  </g>
 </g>
 <path
   style="display:inline;mix-blend-mode:normal;fill:url(#linearGradient3403);fill-opacity:1;stroke:url(#linearGradient20558);stroke-width:1.16242;stroke-linecap:butt;stroke-linejoin:round;stroke-miterlimit:4;stroke-dasharray:none;stroke-opacity:1"
   d="M 4.7043071,3.9814882 4.6913695,60.80196 H 58.59546 l 1.022155,-2.866369 c 0,0 -23.87537,0.766388 -32.844441,-4.140386 C 16.257548,48.042344 11.401114,4.0978197 11.401114,4.0978197 Z"
   id="path1686"
   transform="matrix(0.5,0,0,0.5,0.06630362,0.01654936)" />
 <rect
   style="display:inline;fill:none;fill-opacity:1;stroke:url(#linearGradient4557);stroke-width:3.71366;stroke-linejoin:round;stroke-miterlimit:7.8;stroke-dasharray:none;stroke-opacity:0.995146"
   id="rect4539"
   width="62.566689"
   height="62.866646"
   x="1.0323594"
   y="0.59551275"
   ry="6.2447233"
   rx="5.8029528"
   transform="matrix(0.46839137,0,0,0.46743669,0.90638486,1.0268972)" />
</svg>
