<?xml version="1.0" encoding="UTF-8" standalone="no"?>
<!-- Created with Inkscape (http://www.inkscape.org/) -->

<svg
  width="32"
  height="32"
  version="1.1"
  viewBox="0 0 32 32"
  id="svg22"
  xmlns:xlink="http://www.w3.org/1999/xlink"
  xmlns="http://www.w3.org/2000/svg"
  xmlns:svg="http://www.w3.org/2000/svg">
 <defs
   id="defs12">
  <linearGradient
    id="linearGradient917">
   <stop
     style="stop-color:#000000;stop-opacity:0.99607843"
     offset="0"
     id="stop913" />
   <stop
     style="stop-color:#353a3f;stop-opacity:0.99607843"
     offset="1"
     id="stop915" />
  </linearGradient>
  <linearGradient
    xlink:href="#linearGradient3487"
    id="linearGradient3403"
    gradientUnits="userSpaceOnUse"
    x1="6.9491749"
    y1="4.5549412"
    x2="11.215498"
    y2="59.052471" />
  <linearGradient
    id="linearGradient3487">
   <stop
     style="stop-color:#32373c;stop-opacity:1"
     offset="0"
     id="stop3481" />
   <stop
     id="stop3483"
     offset="0.36804965"
     style="stop-color:#1a1a1a;stop-opacity:1" />
   <stop
     style="stop-color:#31363b;stop-opacity:1"
     offset="1"
     id="stop3485" />
  </linearGradient>
  <linearGradient
    xlink:href="#linearGradient20604"
    id="linearGradient20558"
    gradientUnits="userSpaceOnUse"
    x1="25.802212"
    y1="20.373846"
    x2="25.111048"
    y2="58.912758" />
  <linearGradient
    id="linearGradient20604">
   <stop
     id="stop20598"
     offset="0"
     style="stop-color:#3d3d3d;stop-opacity:1" />
   <stop
     style="stop-color:#000000;stop-opacity:1"
     offset="0.61772454"
     id="stop20600" />
   <stop
     id="stop20602"
     offset="1"
     style="stop-color:#3d3d3d;stop-opacity:1" />
  </linearGradient>
  <filter
    style="color-interpolation-filters:sRGB"
    id="filter20720"
    x="-0.010581649"
    y="-0.01022887"
    width="1.0211628"
    height="1.0204578">
   <feGaussianBlur
     stdDeviation="9.4737658e-08"
     id="feGaussianBlur20722" />
  </filter>
  <linearGradient
    gradientTransform="translate(0.36067797,-0.13016949)"
    xlink:href="#linearGradient4555"
    id="linearGradient4557"
    x1="43.499737"
    y1="64.011795"
    x2="44.141731"
    y2="0.30621234"
    gradientUnits="userSpaceOnUse" />
  <linearGradient
    id="linearGradient4555">
   <stop
     style="stop-color:#141618;stop-opacity:1"
     offset="0"
     id="stop4551" />
   <stop
     id="stop4559"
     offset="0.51820582"
     style="stop-color:#686868;stop-opacity:1" />
   <stop
     style="stop-color:#31363b;stop-opacity:1"
     offset="1"
     id="stop4553" />
  </linearGradient>
  <filter
    style="color-interpolation-filters:sRGB"
    id="filter4601"
    x="-0.029677617"
    width="1.0593552"
    y="-0.029536016"
    height="1.059072">
   <feGaussianBlur
     stdDeviation="1.012341e-07"
     id="feGaussianBlur4603" />
  </filter>
  <linearGradient
    xlink:href="#linearGradient917"
    id="linearGradient919"
    x1="7.400631"
    y1="41.743092"
    x2="33.063145"
    y2="7.1074457"
    gradientUnits="userSpaceOnUse"
    gradientTransform="scale(0.665)" />
  <linearGradient
    id="c"
    y1="5"
    x1="2"
    y2="43"
    x2="40"
    gradientUnits="userSpaceOnUse">
   <stop
     stop-color="#2ecc71"
     id="stop48984" />
   <stop
     offset="1"
     stop-color="#55b019"
     id="stop48986" />
  </linearGradient>
  <linearGradient
    id="a"
    y1="21"
    x1="27"
    y2="37"
    x2="43"
    gradientUnits="userSpaceOnUse"
    gradientTransform="translate(-3,-1)">
   <stop
     stop-color="#292c2f"
     id="stop48974" />
   <stop
     offset="1"
     stop-opacity="0"
     id="stop48976" />
  </linearGradient>
  <linearGradient
    id="b"
    y1="10"
    x1="1"
    y2="44"
    x2="35"
    gradientUnits="userSpaceOnUse"
    gradientTransform="translate(0.366,-0.856)">
   <stop
     stop-color="#2980b9"
     id="stop48979" />
   <stop
     offset="1"
     stop-color="#1a7459"
     id="stop48981" />
  </linearGradient>
 </defs>
 <rect
   style="display:inline;fill:url(#linearGradient919);fill-opacity:1;fill-rule:evenodd;stroke:none;stroke-width:0.617;stroke-linejoin:round;stroke-miterlimit:7.8"
   id="rect1192"
   width="27.986261"
   height="28.403553"
   x="2.1033354"
   y="2.0072956"
   ry="0" />
 <g
   transform="matrix(0.665,0,0,0.665,1.4959032,0.75215981)"
   id="g49036">
  <g
    style="stroke-width:2;stroke-linejoin:round"
    id="g49003">
   <g
     style="fill:#bdc3c7"
     id="g48995">
    <circle
      style="stroke-linecap:round"
      cx="24"
      cy="24"
      r="20"
      id="circle48991" />
    <path
      d="M 43.978516,23.417969 A 20,20 0 0 1 24,43 20,20 0 0 1 4.02148,23.582031 20,20 0 0 0 4,24 20,20 0 0 0 24,44 20,20 0 0 0 44,24 20,20 0 0 0 43.978516,23.417969"
      id="path48993" />
   </g>
   <path
     style="fill:url(#c)"
     d="M 24,4 A 20,20 0 0 0 4,24 20,20 0 0 0 24,44 20,20 0 0 0 38.13281,38.13281 L 24,24 38.13,9.867 A 20,20 0 0 0 24,4"
     id="path48997" />
   <path
     style="fill:#258e52"
     d="M 4.02,23.418 C 4.01,23.612 4.003,23.806 3.999,24 c 0,11.05 8.954,20 20,20 5.302,-0.005 10.386,-2.115 14.13,-5.867 L 37.608,37.612 C 33.915,41.064 29.052,42.989 23.997,43.001 13.121,42.992 4.246,34.293 4.018,23.419"
     id="path48999" />
   <circle
     style="fill:#fcfcfc;stroke-linecap:round"
     cx="24"
     cy="24"
     r="16"
     id="circle49001" />
  </g>
  <g
    style="fill-rule:evenodd"
    id="g49009">
   <path
     style="opacity:0.2;fill:url(#a)"
     d="m 25,5 -1,5 v 24 l -9.602,7.855 C 16.519,42.605 18.75,43.992 21,44 32.05,44 44,35.046 44,24 43.992,23.285 25,5 25,5"
     id="path49005" />
   <path
     style="fill:url(#b)"
     d="m 22,4 3,1 c 0,0 1.242,3.822 2.242,4.822 C 28.823,11.403 35,15 35,23 c 0,6 -4,10 -9,13 5,-5 7,-7 7,-13 0,-8 -8,-9 -8,-9 v 21.775 c 0,2.225 -2.097,5.918 -5.519,7.339 -4.338,1.797 -8.883,0.771 -10.15,-2.291 -1.267,-3.061 1.22,-6.999 5.557,-8.795 2.591,-1.074 5.02,-1.32 7.113,-0.417 z"
     id="path49007" />
  </g>
 </g>
 <path
   style="display:inline;mix-blend-mode:normal;fill:url(#linearGradient3403);fill-opacity:1;stroke:url(#linearGradient20558);stroke-width:1.16242;stroke-linecap:butt;stroke-linejoin:round;stroke-miterlimit:4;stroke-dasharray:none;stroke-opacity:1"
   d="M 4.7043071,3.9814882 4.6913695,60.80196 H 58.59546 l 1.022155,-2.866369 c 0,0 -23.87537,0.766388 -32.844441,-4.140386 C 16.257548,48.042344 11.401114,4.0978197 11.401114,4.0978197 Z"
   id="path1686"
   transform="matrix(0.5,0,0,0.5,0.06630362,0.01654936)" />
 <rect
   style="display:inline;fill:none;fill-opacity:1;stroke:url(#linearGradient4557);stroke-width:3.71366;stroke-linejoin:round;stroke-miterlimit:7.8;stroke-dasharray:none;stroke-opacity:0.995146"
   id="rect4539"
   width="62.566689"
   height="62.866646"
   x="1.0323594"
   y="0.59551275"
   ry="6.2447233"
   rx="5.8029528"
   transform="matrix(0.46839137,0,0,0.46743669,0.90638486,1.0268972)" />
</svg>
