<?xml version="1.0" encoding="UTF-8" standalone="no"?>
<!-- Created with Inkscape (http://www.inkscape.org/) -->

<svg
  width="32"
  height="32"
  version="1.1"
  viewBox="0 0 32 32"
  id="svg22"
  xmlns:xlink="http://www.w3.org/1999/xlink"
  xmlns="http://www.w3.org/2000/svg"
  xmlns:svg="http://www.w3.org/2000/svg">
 <defs
   id="defs12">
  <linearGradient
    id="linearGradient917">
   <stop
     style="stop-color:#000000;stop-opacity:0.99607843"
     offset="0"
     id="stop913" />
   <stop
     style="stop-color:#353a3f;stop-opacity:0.99607843"
     offset="1"
     id="stop915" />
  </linearGradient>
  <linearGradient
    xlink:href="#linearGradient3487"
    id="linearGradient3403"
    gradientUnits="userSpaceOnUse"
    x1="6.9491749"
    y1="4.5549412"
    x2="11.215498"
    y2="59.052471" />
  <linearGradient
    id="linearGradient3487">
   <stop
     style="stop-color:#32373c;stop-opacity:1"
     offset="0"
     id="stop3481" />
   <stop
     id="stop3483"
     offset="0.36804965"
     style="stop-color:#1a1a1a;stop-opacity:1" />
   <stop
     style="stop-color:#31363b;stop-opacity:1"
     offset="1"
     id="stop3485" />
  </linearGradient>
  <linearGradient
    xlink:href="#linearGradient20604"
    id="linearGradient20558"
    gradientUnits="userSpaceOnUse"
    x1="25.802212"
    y1="20.373846"
    x2="25.111048"
    y2="58.912758" />
  <linearGradient
    id="linearGradient20604">
   <stop
     id="stop20598"
     offset="0"
     style="stop-color:#3d3d3d;stop-opacity:1" />
   <stop
     style="stop-color:#000000;stop-opacity:1"
     offset="0.61772454"
     id="stop20600" />
   <stop
     id="stop20602"
     offset="1"
     style="stop-color:#3d3d3d;stop-opacity:1" />
  </linearGradient>
  <filter
    style="color-interpolation-filters:sRGB"
    id="filter20720"
    x="-0.010582033"
    y="-0.010229242"
    width="1.0211636"
    height="1.0204585">
   <feGaussianBlur
     stdDeviation="8.8909071e-06"
     id="feGaussianBlur20722" />
  </filter>
  <linearGradient
    gradientTransform="translate(0.36067797,-0.13016949)"
    xlink:href="#linearGradient4555"
    id="linearGradient4557"
    x1="43.499737"
    y1="64.011795"
    x2="44.141731"
    y2="0.30621234"
    gradientUnits="userSpaceOnUse" />
  <linearGradient
    id="linearGradient4555">
   <stop
     style="stop-color:#141618;stop-opacity:1"
     offset="0"
     id="stop4551" />
   <stop
     id="stop4559"
     offset="0.51820582"
     style="stop-color:#686868;stop-opacity:1" />
   <stop
     style="stop-color:#31363b;stop-opacity:1"
     offset="1"
     id="stop4553" />
  </linearGradient>
  <filter
    style="color-interpolation-filters:sRGB"
    id="filter4601"
    x="-0.029677978"
    width="1.059356"
    y="-0.029536375"
    height="1.0590727">
   <feGaussianBlur
     stdDeviation="9.5005826e-06"
     id="feGaussianBlur4603" />
  </filter>
  <linearGradient
    xlink:href="#linearGradient917"
    id="linearGradient919"
    x1="7.400631"
    y1="41.743092"
    x2="33.063145"
    y2="7.1074457"
    gradientUnits="userSpaceOnUse"
    gradientTransform="scale(0.665)" />
  <linearGradient
    id="a"
    gradientUnits="userSpaceOnUse"
    x1="4"
    x2="4"
    y1="3"
    y2="45"
    gradientTransform="translate(-76.810582,-17.097955)">
   <stop
     offset="0"
     stop-color="#f10000"
     id="stop2-0" />
   <stop
     offset="1"
     stop-color="#b20000"
     id="stop4-8" />
  </linearGradient>
 </defs>
 <rect
   style="display:inline;fill:url(#linearGradient919);fill-opacity:1;fill-rule:evenodd;stroke:none;stroke-width:0.617;stroke-linejoin:round;stroke-miterlimit:7.8"
   id="rect1192"
   width="27.986261"
   height="28.403553"
   x="2.1033354"
   y="2.0072956"
   ry="0" />
 <g
   id="g56336"
   transform="matrix(0.665,0,0,0.665,52.589638,10.7756)">
  <path
    d="m -70.410192,-13.097955 c -1.3296,0 -2.40039,1.070791 -2.40039,2.400391 v 7.1992181 c 0,1.3296 1.07079,2.400391 2.40039,2.400391 h 14.19922 c 1.3296,0 2.40039,-1.070791 2.40039,-2.400391 v -7.1992181 c 0,-1.3296 -1.07079,-2.400391 -2.40039,-2.400391 z m 21,0 c -1.3296,0 -2.40039,1.070791 -2.40039,2.400391 v 7.1992181 c 0,1.3296 1.07079,2.400391 2.40039,2.400391 h 14.19922 c 1.3296,0 2.40039,-1.070791 2.40039,-2.400391 v -7.1992181 c 0,-1.3296 -1.07079,-2.400391 -2.40039,-2.400391 z m -12,14.00000012 c -1.3296,0 -2.40039,1.07079098 -2.40039,2.40039098 v 7.1992179 c 0,1.3296 1.07079,2.400391 2.40039,2.400391 h 14.19922 c 1.3296,0 2.40039,-1.070791 2.40039,-2.400391 V 3.3024361 c 0,-1.3296 -1.07079,-2.40039098 -2.40039,-2.40039098 z m 21,0 c -1.3296,0 -2.40039,1.07079098 -2.40039,2.40039098 v 7.1992179 c 0,1.3296 1.07079,2.400391 2.40039,2.400391 h 7.59961 V 0.90204512 Z m -30,13.99999988 c -1.3296,0 -2.40039,1.070791 -2.40039,2.400391 v 7.199218 c 0,1.3296 1.07079,2.400391 2.40039,2.400391 h 14.19922 c 1.3296,0 2.40039,-1.070791 2.40039,-2.400391 v -7.199218 c 0,-1.3296 -1.07079,-2.400391 -2.40039,-2.400391 z m 21,0 c -1.3296,0 -2.40039,1.070791 -2.40039,2.400391 v 7.199218 c 0,1.3296 1.07079,2.400391 2.40039,2.400391 h 14.19922 c 1.3296,0 2.40039,-1.070791 2.40039,-2.400391 v -7.199218 c 0,-1.3296 -1.07079,-2.400391 -2.40039,-2.400391 z"
    fill="url(#a)"
    id="path7"
    style="fill:url(#a)" />
  <path
    d="m -55.810582,-13.056939 v 7.9589841 c 0,1.108 -0.892,2 -2,2 h -14.95898 c 0.19067,1.136455 1.16718,2 2.35937,2 h 14.19922 c 1.3296,0 2.40039,-1.070791 2.40039,-2.400391 v -7.1992181 c 0,-1.192195 -0.86354,-2.168704 -2,-2.359375 z m 21,0 v 7.9589841 c 0,1.108 -0.892,2 -2,2 h -14.95898 c 0.19067,1.136455 1.16718,2 2.35937,2 h 14.19922 c 1.3296,0 2.40039,-1.070791 2.40039,-2.400391 v -7.1992181 c 0,-1.192195 -0.86355,-2.168704 -2,-2.359375 z m -12,14.00000012 V 8.9020451 c 0,1.1079999 -0.892,1.9999999 -2,1.9999999 h -14.95898 c 0.19067,1.136455 1.16718,2 2.35937,2 h 14.19922 c 1.3296,0 2.40039,-1.070791 2.40039,-2.400391 V 3.3024361 c 0,-1.192195 -0.86355,-2.168704 -2,-2.35937498 z m 4.04102,9.95898388 c 0.19067,1.136455 1.16718,2 2.35937,2 h 7.59961 v -2 z m -13.04102,4.041016 v 7.958984 c 0,1.108 -0.892,2 -2,2 h -14.95898 c 0.19067,1.136455 1.16718,2 2.35937,2 h 14.19922 c 1.3296,0 2.40039,-1.070791 2.40039,-2.400391 v -7.199218 c 0,-1.192195 -0.86354,-2.168704 -2,-2.359375 z m 21,0 v 7.958984 c 0,1.108 -0.892,2 -2,2 h -14.95898 c 0.19067,1.136455 1.16718,2 2.35937,2 h 14.19922 c 1.3296,0 2.40039,-1.070791 2.40039,-2.400391 v -7.199218 c 0,-1.192195 -0.86355,-2.168704 -2,-2.359375 z"
    fill="#101010"
    opacity="0.23"
    id="path9" />
 </g>
 <path
   style="display:inline;mix-blend-mode:normal;fill:url(#linearGradient3403);fill-opacity:1;stroke:url(#linearGradient20558);stroke-width:1.16242;stroke-linecap:butt;stroke-linejoin:round;stroke-miterlimit:4;stroke-dasharray:none;stroke-opacity:1"
   d="M 4.7043071,3.9814882 4.6913695,60.80196 H 58.59546 l 1.022155,-2.866369 c 0,0 -23.87537,0.766388 -32.844441,-4.140386 C 16.257548,48.042344 11.401114,4.0978197 11.401114,4.0978197 Z"
   id="path1686"
   transform="matrix(0.5,0,0,0.5,0.06630362,0.01654936)" />
 <rect
   style="display:inline;fill:none;fill-opacity:1;stroke:url(#linearGradient4557);stroke-width:3.71366;stroke-linejoin:round;stroke-miterlimit:7.8;stroke-dasharray:none;stroke-opacity:0.995146"
   id="rect4539"
   width="62.566689"
   height="62.866646"
   x="1.0323594"
   y="0.59551275"
   ry="6.2447233"
   rx="5.8029528"
   transform="matrix(0.46839137,0,0,0.46743669,0.90638486,1.0268972)" />
</svg>
