<?xml version="1.0" encoding="UTF-8" standalone="no"?>
<!-- Created with Inkscape (http://www.inkscape.org/) -->

<svg
  width="32"
  height="32"
  version="1.1"
  viewBox="0 0 32 32"
  id="svg22"
  xmlns:xlink="http://www.w3.org/1999/xlink"
  xmlns="http://www.w3.org/2000/svg"
  xmlns:svg="http://www.w3.org/2000/svg">
 <defs
   id="defs12">
  <linearGradient
    id="linearGradient917">
   <stop
     style="stop-color:#000000;stop-opacity:0.99607843"
     offset="0"
     id="stop913" />
   <stop
     style="stop-color:#353a3f;stop-opacity:0.99607843"
     offset="1"
     id="stop915" />
  </linearGradient>
  <linearGradient
    id="linearGradient1005-3-3"
    x1="5.2535"
    x2="9.3823996"
    y1="15.383"
    y2="2.9421"
    gradientTransform="matrix(0.99999,0,0,0.99999,1.632,-0.61743)"
    gradientUnits="userSpaceOnUse">
   <stop
     stop-color="#fa8200"
     offset="0"
     id="stop2" />
   <stop
     stop-color="#ff9600"
     offset=".36953"
     id="stop4" />
   <stop
     stop-color="#ffb400"
     offset="1"
     id="stop6" />
  </linearGradient>
  <filter
    id="filter4014"
    x="-0.062499933"
    y="-0.057692993"
    width="1.1249999"
    height="1.115386"
    color-interpolation-filters="sRGB">
   <feGaussianBlur
     stdDeviation="1.093751"
     id="feGaussianBlur9" />
  </filter>
  <linearGradient
    xlink:href="#linearGradient3487"
    id="linearGradient3403"
    gradientUnits="userSpaceOnUse"
    x1="6.9491749"
    y1="4.5549412"
    x2="11.215498"
    y2="59.052471" />
  <linearGradient
    id="linearGradient3487">
   <stop
     style="stop-color:#32373c;stop-opacity:1"
     offset="0"
     id="stop3481" />
   <stop
     id="stop3483"
     offset="0.36804965"
     style="stop-color:#1a1a1a;stop-opacity:1" />
   <stop
     style="stop-color:#31363b;stop-opacity:1"
     offset="1"
     id="stop3485" />
  </linearGradient>
  <linearGradient
    xlink:href="#linearGradient20604"
    id="linearGradient20558"
    gradientUnits="userSpaceOnUse"
    x1="25.802212"
    y1="20.373846"
    x2="25.111048"
    y2="58.912758" />
  <linearGradient
    id="linearGradient20604">
   <stop
     id="stop20598"
     offset="0"
     style="stop-color:#3d3d3d;stop-opacity:1" />
   <stop
     style="stop-color:#000000;stop-opacity:1"
     offset="0.61772454"
     id="stop20600" />
   <stop
     id="stop20602"
     offset="1"
     style="stop-color:#3d3d3d;stop-opacity:1" />
  </linearGradient>
  <filter
    style="color-interpolation-filters:sRGB"
    id="filter20720"
    x="-0.010581918"
    y="-0.01022913"
    width="1.0211634"
    height="1.0204583">
   <feGaussianBlur
     stdDeviation="6.2541657e-06"
     id="feGaussianBlur20722" />
  </filter>
  <linearGradient
    gradientTransform="translate(0.36067797,-0.13016949)"
    xlink:href="#linearGradient4555"
    id="linearGradient4557"
    x1="43.499737"
    y1="64.011795"
    x2="44.141731"
    y2="0.30621234"
    gradientUnits="userSpaceOnUse" />
  <linearGradient
    id="linearGradient4555">
   <stop
     style="stop-color:#141618;stop-opacity:1"
     offset="0"
     id="stop4551" />
   <stop
     id="stop4559"
     offset="0.51820582"
     style="stop-color:#686868;stop-opacity:1" />
   <stop
     style="stop-color:#31363b;stop-opacity:1"
     offset="1"
     id="stop4553" />
  </linearGradient>
  <filter
    style="color-interpolation-filters:sRGB"
    id="filter4601"
    x="-0.02967787"
    width="1.0593557"
    y="-0.029536267"
    height="1.0590725">
   <feGaussianBlur
     stdDeviation="6.6830321e-06"
     id="feGaussianBlur4603" />
  </filter>
  <linearGradient
    xlink:href="#linearGradient917"
    id="linearGradient919"
    x1="7.400631"
    y1="41.743092"
    x2="33.063145"
    y2="7.1074457"
    gradientUnits="userSpaceOnUse"
    gradientTransform="scale(0.665)" />
  <linearGradient
    y2="8.0699997"
    x2="0"
    y1="44"
    gradientUnits="userSpaceOnUse"
    id="linearGradient48703"
    xlink:href="#a" />
  <linearGradient
    id="a"
    y1="44"
    y2="8.0699997"
    x2="0"
    gradientUnits="userSpaceOnUse">
   <stop
     stop-color="#42a603"
     id="stop48569" />
   <stop
     offset="1"
     stop-color="#78da06"
     id="stop48571" />
  </linearGradient>
  <linearGradient
    xlink:href="#c"
    id="h"
    y1="518.79999"
    x1="418.57001"
    y2="525.79999"
    x2="425.57001"
    gradientUnits="userSpaceOnUse" />
  <linearGradient
    id="c"
    y1="529.47998"
    x1="410.03"
    y2="538.66998"
    x2="417.07999"
    gradientUnits="userSpaceOnUse">
   <stop
     id="stop48579" />
   <stop
     offset="1"
     stop-opacity="0"
     id="stop48581" />
  </linearGradient>
  <linearGradient
    xlink:href="#c"
    id="g"
    y1="518.98999"
    x1="393.76001"
    y2="525.90997"
    x2="400.69"
    gradientUnits="userSpaceOnUse" />
  <linearGradient
    id="f"
    y1="529.39001"
    x1="417.19"
    y2="532.27002"
    x2="420.64001"
    gradientUnits="userSpaceOnUse">
   <stop
     stop-color="#f39c12"
     id="stop48590" />
   <stop
     offset="1"
     stop-color="#f5ab35"
     id="stop48592" />
  </linearGradient>
  <linearGradient
    y2="527.59003"
    x2="400.57001"
    y1="511.79999"
    x1="388.57001"
    gradientUnits="userSpaceOnUse"
    id="linearGradient48705"
    xlink:href="#d" />
  <linearGradient
    id="d"
    y1="511.79999"
    x1="388.57001"
    y2="527.59003"
    x2="400.57001"
    gradientUnits="userSpaceOnUse">
   <stop
     stop-color="#ffffff"
     id="stop48584" />
   <stop
     offset="1"
     stop-color="#d9fafd"
     id="stop48586" />
  </linearGradient>
  <linearGradient
    xlink:href="#d"
    id="e"
    y1="507.79999"
    x1="418.57001"
    y2="523.31"
    x2="430.07001"
    gradientUnits="userSpaceOnUse" />
  <linearGradient
    y2="538.66998"
    x2="417.07999"
    y1="529.47998"
    x1="410.03"
    gradientUnits="userSpaceOnUse"
    id="linearGradient48707"
    xlink:href="#c" />
  <linearGradient
    id="b"
    y1="519.46002"
    x1="406.13"
    y2="525.15002"
    x2="416.44"
    gradientUnits="userSpaceOnUse"
    gradientTransform="matrix(1.27402,-0.19577,0.10158,1,-166.77,85.12)">
   <stop
     stop-color="#ffc35a"
     id="stop48574" />
   <stop
     offset="1"
     stop-color="#faae2a"
     id="stop48576" />
  </linearGradient>
  <linearGradient
    xlink:href="#a"
    id="i"
    y1="508.04999"
    x1="419.63"
    y2="504.42001"
    x2="422.26001"
    gradientUnits="userSpaceOnUse" />
  <linearGradient
    id="linearGradient956"
    y1="44"
    y2="8.0699997"
    x2="0"
    gradientUnits="userSpaceOnUse">
   <stop
     stop-color="#42a603"
     id="stop952" />
   <stop
     offset="1"
     stop-color="#78da06"
     id="stop954" />
  </linearGradient>
 </defs>
 <rect
   style="display:inline;fill:url(#linearGradient919);fill-opacity:1;fill-rule:evenodd;stroke:none;stroke-width:0.617;stroke-linejoin:round;stroke-miterlimit:7.8"
   id="rect1192"
   width="27.986261"
   height="28.403553"
   x="2.1033354"
   y="2.0072956"
   ry="0" />
 <g
   transform="matrix(0.85516723,0,0,0.87741349,-321.78043,-436.14795)"
   id="g48650">
  <g
    style="fill-rule:evenodd"
    id="g48608"
    transform="matrix(0.665,0,0,0.665,126.05306,166.52304)">
   <path
     style="fill:url(#linearGradient48703)"
     d="m 4,8 v 30 h 24 l 7,6 v -6 h 9 V 8 Z"
     transform="translate(384.57,499.8)"
     id="path48600" />
   <path
     style="opacity:0.1;fill:url(#h)"
     d="m 418.57,518.8 10,10 v -10 z"
     id="path48602" />
   <path
     style="opacity:0.1;fill:url(#g)"
     d="m 398.82,513.67 10,10 -11.25,9.625 -9,-9 z"
     id="path48604" />
   <path
     style="fill:url(#f)"
     d="m 400.57,529.8 c 7.883,7.515 15.183,7.239 18.736,2.951 3.554,-4.288 0.895,-7.951 0.895,-7.951 z"
     id="path48606" />
  </g>
  <g
    style="color:#000000;stroke-width:3;stroke-linejoin:round"
    id="g48620"
    transform="matrix(0.665,0,0,0.665,126.05306,166.52304)">
   <path
     style="fill:url(#linearGradient48705)"
     d="m 393.07,510.8 c -1.69,0 -3.246,0.056 -4.5,1 v 12.491 c 1.254,0.944 2.81,1.509 4.5,1.509 4.142,0 8.531,-1.858 8.531,-6 0,-4.142 -4.389,-9 -8.531,-9"
     id="path48610" />
   <path
     style="fill:url(#e)"
     d="m 419.57,507.8 c -2.132,2.607 -3.492,5.765 -2.482,8.842 1.413,4.304 6.287,4.841 10.289,3.527 0.421,-0.138 0.816,-0.319 1.193,-0.525 v -11.843 z"
     id="path48612" />
   <g
     style="fill:#31363b;stroke-linecap:round"
     id="g48618">
    <circle
      cx="395.07001"
      cy="518.29999"
      r="3.5"
      id="circle48614" />
    <circle
      cx="421.07001"
      cy="514.29999"
      r="3.5"
      id="circle48616" />
   </g>
  </g>
  <g
    style="fill-rule:evenodd"
    id="g48648"
    transform="matrix(0.665,0,0,0.665,126.05306,166.52304)">
   <path
     style="fill:#192629"
     d="m 401.57,529.8 c 5.99,6.172 13.883,5.86 16.583,2.339 2.701,-3.522 0.68,-6.53 0.68,-6.53 z"
     id="path48622" />
   <path
     style="fill:#da4453"
     d="m 416.02,531.65 c -2.06,0.073 -4.539,0.715 -6.829,1.883 3.244,0.942 5.47,0.429 7.243,-0.677 0.643,-0.401 1.115,-0.693 1.269,-1.121 -0.516,-0.076 -1.08,-0.107 -1.683,-0.085"
     id="path48624" />
   <path
     style="opacity:0.2;fill:url(#linearGradient48707)"
     d="m 400.57,529.8 8,8 h 4 l 7,6 v -6 h 9 v -5 l -8,-8 z"
     id="path48626" />
   <path
     style="fill:url(#b)"
     d="m 400.57,529.8 c 0,0 1.432,-4.319 8.931,-6.267 7.499,-1.948 11.07,1.267 11.07,1.267 0.999,2.908 -8.664,7.427 -8.664,7.427 0,0 -10.699,0.576 -11.334,-2.427"
     id="path48628" />
   <path
     style="fill:url(#i)"
     d="m 428.57,507.8 c 0,-3 -4.75,-4 -4.75,-4 0,0 -0.589,1.268 0,2 -2.25,-2 -4.25,-1 -4.25,-1 0,0 0.504,1.312 1.25,2 -1.199,-0.575 -2.5,0 -2.5,0 0,0 0.679,1 1.25,1 z"
     id="path48630" />
   <g
     style="fill:#31363b"
     transform="matrix(1.03138,0,0,1,-12.192,0)"
     id="g48646">
    <path
      d="m 388.57,526.8 c 0,0 -3.573,2.122 -3.864,1.035 -0.291,-1.087 3.864,-1.035 3.864,-1.035"
      id="path48640" />
    <path
      d="m 388.57,526.8 c 0,0 -4.126,-0.491 -3.696,-1.531 0.431,-1.039 3.696,1.531 3.696,1.531"
      id="path48642" />
    <path
      d="m 388.57,526.8 c 0,0 -1.543,3.858 -2.435,3.173 -0.893,-0.685 2.435,-3.173 2.435,-3.173"
      id="path48644" />
   </g>
  </g>
 </g>
 <path
   style="display:inline;mix-blend-mode:normal;fill:url(#linearGradient3403);fill-opacity:1;stroke:url(#linearGradient20558);stroke-width:1.16242;stroke-linecap:butt;stroke-linejoin:round;stroke-miterlimit:4;stroke-dasharray:none;stroke-opacity:1"
   d="M 4.7043071,3.9814882 4.6913695,60.80196 H 58.59546 l 1.022155,-2.866369 c 0,0 -23.87537,0.766388 -32.844441,-4.140386 C 16.257548,48.042344 11.401114,4.0978197 11.401114,4.0978197 Z"
   id="path1686"
   transform="matrix(0.5,0,0,0.5,0.06630362,0.01654936)" />
 <rect
   style="display:inline;fill:none;fill-opacity:1;stroke:url(#linearGradient4557);stroke-width:3.71366;stroke-linejoin:round;stroke-miterlimit:7.8;stroke-dasharray:none;stroke-opacity:0.995146"
   id="rect4539"
   width="62.566689"
   height="62.866646"
   x="1.0323594"
   y="0.59551275"
   ry="6.2447233"
   rx="5.8029528"
   transform="matrix(0.46839137,0,0,0.46743669,0.90638486,1.0268972)" />
</svg>
