<?xml version="1.0" encoding="UTF-8" standalone="no"?>
<!-- Created with Inkscape (http://www.inkscape.org/) -->

<svg
  width="32"
  height="32"
  version="1.1"
  viewBox="0 0 32 32"
  id="svg22"
  xmlns:xlink="http://www.w3.org/1999/xlink"
  xmlns="http://www.w3.org/2000/svg"
  xmlns:svg="http://www.w3.org/2000/svg">
 <defs
   id="defs12">
  <linearGradient
    id="linearGradient1013">
   <stop
     style="stop-color:#ff7a01;stop-opacity:1"
     offset="0"
     id="stop1009" />
   <stop
     style="stop-color:#feb500;stop-opacity:1"
     offset="1"
     id="stop1011" />
  </linearGradient>
  <linearGradient
    id="linearGradient1005-3-3"
    x1="5.2535"
    x2="9.3823996"
    y1="15.383"
    y2="2.9421"
    gradientTransform="matrix(0.99999,0,0,0.99999,1.632,-0.61743)"
    gradientUnits="userSpaceOnUse">
   <stop
     stop-color="#fa8200"
     offset="0"
     id="stop2" />
   <stop
     stop-color="#ff9600"
     offset=".36953"
     id="stop4" />
   <stop
     stop-color="#ffb400"
     offset="1"
     id="stop6" />
  </linearGradient>
  <filter
    id="filter4014"
    x="-0.062499933"
    y="-0.057692993"
    width="1.1249999"
    height="1.115386"
    color-interpolation-filters="sRGB">
   <feGaussianBlur
     stdDeviation="1.093751"
     id="feGaussianBlur9" />
  </filter>
  <linearGradient
    xlink:href="#linearGradient3487"
    id="linearGradient3403"
    gradientUnits="userSpaceOnUse"
    x1="6.9491749"
    y1="4.5549412"
    x2="11.215498"
    y2="59.052471" />
  <linearGradient
    id="linearGradient3487">
   <stop
     style="stop-color:#32373c;stop-opacity:1"
     offset="0"
     id="stop3481" />
   <stop
     id="stop3483"
     offset="0.36804965"
     style="stop-color:#1a1a1a;stop-opacity:1" />
   <stop
     style="stop-color:#31363b;stop-opacity:1"
     offset="1"
     id="stop3485" />
  </linearGradient>
  <linearGradient
    xlink:href="#linearGradient20604"
    id="linearGradient20558"
    gradientUnits="userSpaceOnUse"
    x1="25.802212"
    y1="20.373846"
    x2="25.111048"
    y2="58.912758" />
  <linearGradient
    id="linearGradient20604">
   <stop
     id="stop20598"
     offset="0"
     style="stop-color:#3d3d3d;stop-opacity:1" />
   <stop
     style="stop-color:#000000;stop-opacity:1"
     offset="0.61772454"
     id="stop20600" />
   <stop
     id="stop20602"
     offset="1"
     style="stop-color:#3d3d3d;stop-opacity:1" />
  </linearGradient>
  <linearGradient
    gradientTransform="translate(0.36067797,-0.13016949)"
    xlink:href="#linearGradient4555"
    id="linearGradient4557"
    x1="43.499737"
    y1="64.011795"
    x2="44.141731"
    y2="0.30621234"
    gradientUnits="userSpaceOnUse" />
  <linearGradient
    id="linearGradient4555">
   <stop
     style="stop-color:#141618;stop-opacity:1"
     offset="0"
     id="stop4551" />
   <stop
     id="stop4559"
     offset="0.51820582"
     style="stop-color:#686868;stop-opacity:1" />
   <stop
     style="stop-color:#31363b;stop-opacity:1"
     offset="1"
     id="stop4553" />
  </linearGradient>
  <filter
    style="color-interpolation-filters:sRGB"
    id="filter4601"
    x="-0.029692965"
    width="1.0593859"
    y="-0.02955129"
    height="1.0591026">
   <feGaussianBlur
     stdDeviation="0.00040020527"
     id="feGaussianBlur4603" />
  </filter>
  <linearGradient
    id="e"
    gradientUnits="userSpaceOnUse"
    x1="24.229177"
    x2="24.229177"
    xlink:href="#f"
    y1="1050.8901"
    y2="1005.1862" />
  <linearGradient
    id="f">
   <stop
     offset="0"
     stop-color="#ff7a01"
     id="stop19" />
   <stop
     offset="1"
     stop-color="#feb600"
     id="stop21" />
  </linearGradient>
  <linearGradient
    id="d"
    gradientUnits="userSpaceOnUse"
    x1="24.193117"
    x2="24.193117"
    xlink:href="#b"
    y1="1007.5298"
    y2="1049.7181" />
  <linearGradient
    id="b">
   <stop
     offset="0"
     stop-color="#fffce4"
     id="stop3" />
   <stop
     offset="1"
     stop-color="#fafacd"
     id="stop5" />
  </linearGradient>
  <linearGradient
    id="a"
    gradientUnits="userSpaceOnUse"
    x1="24"
    x2="24"
    xlink:href="#b"
    y1="1010.3622"
    y2="1046.3622" />
  <linearGradient
    id="c"
    gradientUnits="userSpaceOnUse"
    x1="23.716213"
    x2="24.283766"
    xlink:href="#f"
    y1="1047.5164"
    y2="1012.1548" />
  <linearGradient
    xlink:href="#linearGradient1013"
    id="linearGradient1015"
    x1="62.082153"
    y1="53.916931"
    x2="-7.6629019"
    y2="16.739738"
    gradientUnits="userSpaceOnUse"
    gradientTransform="matrix(0.65928072,0,0,0.65928072,0.25801596,0.21555942)" />
 </defs>
 <rect
   style="display:inline;fill:url(#linearGradient1015);fill-opacity:1;fill-rule:evenodd;stroke:none;stroke-width:0.611694;stroke-linejoin:round;stroke-miterlimit:7.8"
   id="rect1192"
   width="27.745567"
   height="28.159269"
   x="2.343262"
   y="2.2055917"
   ry="0" />
 <g
   transform="matrix(0.56191057,0,0,0.56191057,4.2888196,-562.50725)"
   id="g34">
  <circle
    cx="24.229177"
    cy="1028.6241"
    fill="url(#e)"
    r="23.437929"
    id="circle24"
    style="fill:url(#e)" />
  <circle
    cx="24.19313"
    cy="1028.624"
    fill="url(#d)"
    r="21.09413"
    id="circle26"
    style="fill:url(#d)" />
  <g
    transform="matrix(1.1718961,0,0,1.1718961,-3.798086,-176.44407)"
    id="g32">
   <circle
     cx="24.000002"
     cy="1028.3622"
     fill="url(#a)"
     r="0"
     id="circle28"
     style="fill:url(#a)" />
   <path
     d="m 23.99999,1012.3622 c -3,0 -5,2 -5,2 0,0 1.19323,4.0523 2,6 0.85571,2.0659 3,6 3,6 0,0 2.14429,-3.9341 3,-6 0.80677,-1.9477 2,-6 2,-6 0,0 -2,-2 -5,-2 z m -6.363281,2.5645 c 0,0 -2.829852,-3e-4 -4.951172,2.121 -2.12132,2.1214 -2.121094,4.9512 -2.121094,4.9512 0,0 3.710492,2.0214 5.658203,2.8281 2.065862,0.8557 6.363282,2.1211 6.363282,2.1211 0,0 -1.265389,-4.2974 -2.121094,-6.3632 -0.806767,-1.9478 -2.828125,-5.6582 -2.828125,-5.6582 z m 12.726562,0 c 0,0 -2.021358,3.7104 -2.828125,5.6582 -0.855705,2.0658 -2.121094,6.3632 -2.121094,6.3632 0,0 4.29742,-1.2654 6.363282,-2.1211 1.947711,-0.8067 5.658203,-2.8281 5.658203,-2.8281 0,0 2.26e-4,-2.8298 -2.121094,-4.9512 -2.12132,-2.1213 -4.951172,-2.121 -4.951172,-2.121 z m -20.363281,8.4355 c 0,0 -2,2 -2,5 0,3 2,5 2,5 0,0 4.05229,-1.1932 6,-2 2.06586,-0.8557 6,-3 6,-3 0,0 -3.93414,-2.1443 -6,-3 -1.94771,-0.8068 -6,-2 -6,-2 z m 28,0 c 0,0 -4.05229,1.1932 -6,2 -2.06586,0.8557 -6,3 -6,3 0,0 3.93414,2.1443 6,3 1.94771,0.8068 6,2 6,2 0,0 2,-2 2,-5 0,-3 -2,-5 -2,-5 z m -15.414062,6.4141 c 0,0 -4.29742,1.2654 -6.363282,2.1211 -1.947711,0.8067 -5.658203,2.8281 -5.658203,2.8281 0,0 -2.26e-4,2.8298 2.121094,4.9512 2.12132,2.1213 4.951172,2.121 4.951172,2.121 0,0 2.021358,-3.7104 2.828125,-5.6582 0.855705,-2.0658 2.121094,-6.3632 2.121094,-6.3632 z m 2.828124,0 c 0,0 1.265389,4.2974 2.121094,6.3632 0.806767,1.9478 2.828125,5.6582 2.828125,5.6582 0,0 2.829852,3e-4 4.951172,-2.121 2.12132,-2.1214 2.121094,-4.9512 2.121094,-4.9512 0,0 -3.710492,-2.0214 -5.658203,-2.8281 -2.065862,-0.8557 -6.363282,-2.1211 -6.363282,-2.1211 z m -1.414062,0.5859 c 0,0 -2.14429,3.9341 -3,6 -0.80677,1.9477 -2,6 -2,6 0,0 2,2 5,2 3,0 5,-2 5,-2 0,0 -1.19323,-4.0523 -2,-6 -0.85571,-2.0659 -3,-6 -3,-6 z"
     fill="url(#c)"
     id="path30"
     style="fill:url(#c)" />
  </g>
 </g>
 <path
   style="display:inline;mix-blend-mode:normal;fill:url(#linearGradient3403);fill-opacity:1;stroke:url(#linearGradient20558);stroke-width:1.16242;stroke-linecap:butt;stroke-linejoin:round;stroke-miterlimit:4;stroke-dasharray:none;stroke-opacity:1"
   d="M 4.7043071,3.9814882 4.6913695,60.80196 H 58.59546 l 1.022155,-2.866369 c 0,0 -23.87537,0.766388 -32.844441,-4.140386 C 16.257548,48.042344 11.401114,4.0978197 11.401114,4.0978197 Z"
   id="path1686"
   transform="matrix(0.49569979,0,0,0.49569979,0.32374933,0.23196652)" />
 <rect
   style="display:inline;fill:none;fill-opacity:1;stroke:url(#linearGradient4557);stroke-width:3.71366;stroke-linejoin:round;stroke-miterlimit:7.8;stroke-dasharray:none;stroke-opacity:0.995146"
   id="rect4539"
   width="62.566689"
   height="62.866646"
   x="1.0323594"
   y="0.59551275"
   ry="6.2447233"
   rx="5.8029528"
   transform="matrix(0.46436301,0,0,0.46341654,1.1566055,1.2336249)" />
</svg>
