<?xml version="1.0" encoding="UTF-8" standalone="no"?>
<!-- Created with Inkscape (http://www.inkscape.org/) -->

<svg
  width="32"
  height="32"
  version="1.1"
  viewBox="0 0 32 32"
  id="svg22"
  xml:space="preserve"
  xmlns:xlink="http://www.w3.org/1999/xlink"
  xmlns="http://www.w3.org/2000/svg"
  xmlns:svg="http://www.w3.org/2000/svg"><defs
   id="defs12"><linearGradient
    id="linearGradient917"><stop
     style="stop-color:#a75b8a;stop-opacity:1;"
     offset="0"
     id="stop913" /><stop
     style="stop-color:#23adcc;stop-opacity:1;"
     offset="1"
     id="stop915" /></linearGradient><linearGradient
    xlink:href="#linearGradient3487"
    id="linearGradient3403"
    gradientUnits="userSpaceOnUse"
    x1="6.9491749"
    y1="4.5549412"
    x2="11.215498"
    y2="59.052471" /><linearGradient
    id="linearGradient3487"><stop
     style="stop-color:#32373c;stop-opacity:1"
     offset="0"
     id="stop3481" /><stop
     id="stop3483"
     offset="0.36804965"
     style="stop-color:#1a1a1a;stop-opacity:1" /><stop
     style="stop-color:#31363b;stop-opacity:1"
     offset="1"
     id="stop3485" /></linearGradient><linearGradient
    xlink:href="#linearGradient20604"
    id="linearGradient20558"
    gradientUnits="userSpaceOnUse"
    x1="25.802212"
    y1="20.373846"
    x2="25.111048"
    y2="58.912758" /><linearGradient
    id="linearGradient20604"><stop
     id="stop20598"
     offset="0"
     style="stop-color:#3d3d3d;stop-opacity:1" /><stop
     style="stop-color:#000000;stop-opacity:1"
     offset="0.61772454"
     id="stop20600" /><stop
     id="stop20602"
     offset="1"
     style="stop-color:#3d3d3d;stop-opacity:1" /></linearGradient><filter
    style="color-interpolation-filters:sRGB"
    id="filter20720"
    x="-0.010582101"
    y="-0.010229307"
    width="1.0211637"
    height="1.0204586"><feGaussianBlur
     stdDeviation="1.044486e-05"
     id="feGaussianBlur20722" /></filter><linearGradient
    gradientTransform="translate(0.36067797,-0.13016949)"
    xlink:href="#linearGradient4555"
    id="linearGradient4557"
    x1="43.499737"
    y1="64.011795"
    x2="44.141731"
    y2="0.30621234"
    gradientUnits="userSpaceOnUse" /><linearGradient
    id="linearGradient4555"><stop
     style="stop-color:#141618;stop-opacity:1"
     offset="0"
     id="stop4551" /><stop
     id="stop4559"
     offset="0.51820582"
     style="stop-color:#686868;stop-opacity:1" /><stop
     style="stop-color:#31363b;stop-opacity:1"
     offset="1"
     id="stop4553" /></linearGradient><filter
    style="color-interpolation-filters:sRGB"
    id="filter4601"
    x="-0.029677852"
    width="1.0593557"
    y="-0.029536438"
    height="1.0590729"><feGaussianBlur
     stdDeviation="1.1161095e-05"
     id="feGaussianBlur4603" /></filter><linearGradient
    xlink:href="#linearGradient917"
    id="linearGradient919"
    x1="33.575405"
    y1="38.850441"
    x2="33.082706"
    y2="3.9169106"
    gradientUnits="userSpaceOnUse"
    gradientTransform="matrix(0.66499999,0,0,0.66499999,-0.09646559,-0.00729585)" /></defs><rect
   style="display:inline;fill:url(#linearGradient919);fill-opacity:1;fill-rule:evenodd;stroke:none;stroke-width:0.617;stroke-linejoin:round;stroke-miterlimit:7.8"
   id="rect1192"
   width="27.986259"
   height="28.403551"
   x="2.0068698"
   y="2"
   ry="0" /><path
   style="display:inline;opacity:1;fill:#c01f61;fill-opacity:1;stroke-width:0.226"
   d="M 16,16.440909 25.806101,31 H 16 Z"
   id="path2" /><path
   style="display:inline;opacity:1;fill:#ea277f;fill-opacity:1;stroke-width:0.226"
   d="m 21.592534,24.744129 3.7044,-5.334186 L 25,29.803184 23.062753,26.926959 Z"
   id="path3" /><path
   style="display:inline;opacity:1;fill:#ea277f;fill-opacity:1;stroke-width:0.226"
   d="M 4.2298877,27.643071 16,16.440909 V 31 H 4.2298877 Z"
   id="path1" /><path
   style="display:inline;opacity:1;fill:#c01f61;fill-opacity:1;stroke-width:0.226"
   d="M 25.296934,19.409943 30.695818,27.452912 29.459046,31 H 25.806101 L 25,29.803184 Z"
   id="path4" /><path
   style="display:inline;mix-blend-mode:normal;fill:url(#linearGradient3403);fill-opacity:1;stroke:url(#linearGradient20558);stroke-width:1.16242;stroke-linecap:butt;stroke-linejoin:round;stroke-miterlimit:4;stroke-dasharray:none;stroke-opacity:1"
   d="M 4.7043071,3.9814882 4.6913695,60.80196 H 58.59546 l 1.022155,-2.866369 c 0,0 -23.87537,0.766388 -32.844441,-4.140386 C 16.257548,48.042344 11.401114,4.0978197 11.401114,4.0978197 Z"
   id="path1686"
   transform="matrix(0.49999999,0,0,0.5,0.06630363,0.0165495)" /><path
   id="path5"
   style="display:inline;opacity:1;fill:#5f5555;fill-opacity:0.38571352;stroke-width:0.226"
   d="m 13,9.7142419 5,10.8489221 2,-4.566548 2.365839,4.594635 L 27.376121,9.5033552 19.755682,12.343346 19.126489,11 h 3.140172 L 22.869723,9.647297 Z M 14.690591,11 h 3.150613 L 19.45976,14.455664 18,18 Z M 25.341245,11.521162 22.375895,18 21.201929,15.431126 20.238719,13.374643 Z" /><path
   id="path5-5"
   style="display:inline;fill:#f6e5e8;fill-opacity:1;stroke-width:0.226"
   d="m 13,9.5013423 5,10.8489217 2,-4.566548 2.365839,4.594635 L 27.376121,9.2904553 19.755682,12.130446 19.126489,10.7871 h 3.140172 L 22.869723,9.4343973 Z M 14.690591,10.7871 h 3.150613 L 19.45976,14.242764 18,17.7871 Z m 10.650654,0.521162 -2.96535,6.478838 -1.173966,-2.568874 -0.96321,-2.056483 z" /><rect
   style="display:inline;fill:none;fill-opacity:1;stroke:url(#linearGradient4557);stroke-width:3.71366;stroke-linejoin:round;stroke-miterlimit:7.8;stroke-dasharray:none;stroke-opacity:0.995146"
   id="rect4539"
   width="62.567089"
   height="62.866646"
   x="1.0323594"
   y="0.59551275"
   ry="6.2447233"
   rx="5.8029528"
   transform="matrix(0.46839137,0,0,0.46743668,0.90638486,1.0268973)" /></svg>
