<?xml version="1.0" encoding="UTF-8" standalone="no"?>
<!-- Created with Inkscape (http://www.inkscape.org/) -->

<svg
   width="32"
   height="32"
   version="1.1"
   viewBox="0 0 32 32"
   id="svg22"
   sodipodi:docname="com.tutanota.Tutanota.svg"
   inkscape:version="1.1.2 (0a00cf5339, 2022-02-04)"
   xmlns:inkscape="http://www.inkscape.org/namespaces/inkscape"
   xmlns:sodipodi="http://sodipodi.sourceforge.net/DTD/sodipodi-0.dtd"
   xmlns:xlink="http://www.w3.org/1999/xlink"
   xmlns="http://www.w3.org/2000/svg"
   xmlns:svg="http://www.w3.org/2000/svg">
  <sodipodi:namedview
     id="namedview24"
     pagecolor="#ffffff"
     bordercolor="#666666"
     borderopacity="1.0"
     inkscape:showpageshadow="2"
     inkscape:pageopacity="0.0"
     inkscape:pagecheckerboard="0"
     inkscape:deskcolor="#d1d1d1"
     showgrid="false"
     inkscape:zoom="18.14"
     inkscape:cx="-14.663727"
     inkscape:cy="24.669239"
     inkscape:window-width="3440"
     inkscape:window-height="1359"
     inkscape:window-x="0"
     inkscape:window-y="0"
     inkscape:window-maximized="1"
     inkscape:current-layer="svg22"
     inkscape:pageshadow="2" />
  <defs
     id="defs12">
    <linearGradient
       id="linearGradient1005-3-3"
       x1="5.2535"
       x2="9.3823996"
       y1="15.383"
       y2="2.9421"
       gradientTransform="matrix(0.99999,0,0,0.99999,1.632,-0.61743)"
       gradientUnits="userSpaceOnUse">
      <stop
         stop-color="#fa8200"
         offset="0"
         id="stop2" />
      <stop
         stop-color="#ff9600"
         offset=".36953"
         id="stop4" />
      <stop
         stop-color="#ffb400"
         offset="1"
         id="stop6" />
    </linearGradient>
    <filter
       id="filter4014"
       x="-0.062499933"
       y="-0.057692993"
       width="1.1249999"
       height="1.115386"
       color-interpolation-filters="sRGB">
      <feGaussianBlur
         stdDeviation="1.093751"
         id="feGaussianBlur9" />
    </filter>
    <linearGradient
       inkscape:collect="always"
       xlink:href="#linearGradient3487"
       id="linearGradient3403"
       gradientUnits="userSpaceOnUse"
       x1="6.9491749"
       y1="4.5549412"
       x2="11.215498"
       y2="59.052471" />
    <linearGradient
       id="linearGradient3487">
      <stop
         style="stop-color:#32373c;stop-opacity:1"
         offset="0"
         id="stop3481" />
      <stop
         id="stop3483"
         offset="0.36804965"
         style="stop-color:#1a1a1a;stop-opacity:1" />
      <stop
         style="stop-color:#31363b;stop-opacity:1"
         offset="1"
         id="stop3485" />
    </linearGradient>
    <linearGradient
       inkscape:collect="always"
       xlink:href="#linearGradient20604"
       id="linearGradient20558"
       gradientUnits="userSpaceOnUse"
       x1="25.802212"
       y1="20.373846"
       x2="25.111048"
       y2="58.912758" />
    <linearGradient
       id="linearGradient20604">
      <stop
         id="stop20598"
         offset="0"
         style="stop-color:#3d3d3d;stop-opacity:1" />
      <stop
         style="stop-color:#000000;stop-opacity:1"
         offset="0.61772454"
         id="stop20600" />
      <stop
         id="stop20602"
         offset="1"
         style="stop-color:#3d3d3d;stop-opacity:1" />
    </linearGradient>
    <filter
       inkscape:collect="always"
       style="color-interpolation-filters:sRGB"
       id="filter20720"
       x="-0.017024755"
       y="-0.016457183"
       width="1.0340491"
       height="1.0329144">
      <feGaussianBlur
         inkscape:collect="always"
         stdDeviation="0.14745661"
         id="feGaussianBlur20722" />
    </filter>
    <linearGradient
       gradientTransform="translate(0.36067797,-0.13016949)"
       xlink:href="#linearGradient4555"
       id="linearGradient4557"
       x1="43.499737"
       y1="64.011795"
       x2="44.141731"
       y2="0.30621234"
       gradientUnits="userSpaceOnUse" />
    <linearGradient
       id="linearGradient4555">
      <stop
         style="stop-color:#141618;stop-opacity:1"
         offset="0"
         id="stop4551" />
      <stop
         id="stop4559"
         offset="0.51820582"
         style="stop-color:#686868;stop-opacity:1" />
      <stop
         style="stop-color:#31363b;stop-opacity:1"
         offset="1"
         id="stop4553" />
    </linearGradient>
    <filter
       style="color-interpolation-filters:sRGB"
       id="filter4601"
       x="-0.030244955"
       width="1.0604899"
       y="-0.030100647"
       height="1.0602013">
      <feGaussianBlur
         stdDeviation="0.014790289"
         id="feGaussianBlur4603" />
    </filter>
    <linearGradient
       id="linearGradient7013-3"
       x1="34.102001"
       x2="34.102001"
       y1="25.742001"
       y2="61.487"
       gradientUnits="userSpaceOnUse"
       gradientTransform="matrix(0.55472265,0,0,0.55432515,-1.0302223,-5.0113241)">
      <stop
         stop-color="#fff"
         offset="0"
         id="stop3-6" />
      <stop
         stop-color="#ffcdd6"
         offset="1"
         id="stop4-7" />
    </linearGradient>
  </defs>
  <rect
     style="display:inline;fill:#e05e6e;fill-opacity:1;fill-rule:evenodd;stroke:none;stroke-width:0.613278;stroke-linejoin:round;stroke-miterlimit:7.8"
     id="rect1192"
     width="27.817432"
     height="28.232206"
     x="2.3473699"
     y="2.2096658"
     ry="0"
     inkscape:label="arriere" />
  <path
     d="m 17.886935,8.2924899 c 0,0 2.1755,0.3533743 2.169084,1.2461198 0,0.032071 -1.15e-4,0.057803 -0.0073,0.089862 -0.127434,0.7972763 -2.307474,0.9171833 -3.819154,1.0003863 -0.315061,0.01736 -0.600763,0.03306 -0.833193,0.053 -0.196015,0.01684 -0.440523,0.02998 -0.718319,0.04445 h -0.0022 c -1.632099,0.08491 -4.40788,0.229419 -5.1972454,1.606658 -0.044974,0.0835 -0.070458,0.166515 -0.070458,0.243595 -0.00311,0.604047 1.2893374,1.128115 2.8429474,1.758263 2.229485,0.904225 4.99756,2.026667 5.254723,3.919251 0.01279,0.10277 0.0195,0.212278 0.0195,0.315052 -0.0063,2.60655 -4.475497,4.974029 -10.5979606,7.552682 a 16.641686,16.629761 0 0 0 9.7926186,3.235004 16.641686,16.629761 0 0 0 14.126002,-7.869767 c -0.840364,-1.964572 -2.237706,-3.747007 -4.502642,-4.921787 -2.912903,-1.515571 -6.747647,-2.335811 -9.610012,-2.948112 -2.232706,-0.47758 -3.874241,-0.828108 -4.026062,-1.284039 -0.01279,-0.04495 -0.0195,-0.09032 -0.0195,-0.128839 0.0073,-0.71297 2.220449,-0.879949 3.670718,-0.950552 1.533699,-0.07708 3.856428,-0.282139 4.138734,-1.3869216 0.0084,-0.034788 0.01457,-0.070339 0.0174,-0.1050344 0.002,-0.016657 0.0031,-0.033063 0.0031,-0.049726 C 20.525051,8.6843562 17.8871,8.2926816 17.8871,8.2926816 Z"
     id="path5"
     style="fill:url(#linearGradient7013-3);stroke-width:0.554535" />
  <path
     style="display:inline;mix-blend-mode:normal;fill:url(#linearGradient3403);fill-opacity:1;stroke:url(#linearGradient20558);stroke-width:1.16242;stroke-linecap:butt;stroke-linejoin:round;stroke-miterlimit:4;stroke-dasharray:none;stroke-opacity:1;filter:url(#filter20720)"
     d="M 4.7043071,3.9814882 4.6913695,60.80196 H 58.59546 l 1.022155,-2.866369 c 0,0 -23.87537,0.766388 -32.844441,-4.140386 C 16.257548,48.042344 11.401114,4.0978197 11.401114,4.0978197 Z"
     id="path1686"
     sodipodi:nodetypes="ccccscc"
     transform="matrix(0.49698374,0,0,0.49698374,0.32262645,0.23092865)"
     inkscape:label="folder" />
  <rect
     style="display:inline;fill:none;fill-opacity:1;stroke:url(#linearGradient4557);stroke-width:3.71366;stroke-linejoin:round;stroke-miterlimit:7.8;stroke-dasharray:none;stroke-opacity:0.995146;filter:url(#filter4601)"
     id="rect4539"
     width="62.566689"
     height="62.866646"
     x="1.0323594"
     y="0.59551275"
     ry="6.2447233"
     rx="5.8029528"
     transform="matrix(0.46556579,0,0,0.46461686,1.1576399,1.2351815)"
     inkscape:label="contour" />
</svg>
