<?xml version="1.0" encoding="UTF-8" standalone="no"?>
<!-- Created with Inkscape (http://www.inkscape.org/) -->

<svg
  width="32"
  height="32"
  version="1.1"
  viewBox="0 0 32 32"
  id="svg22"
  xmlns:xlink="http://www.w3.org/1999/xlink"
  xmlns="http://www.w3.org/2000/svg"
  xmlns:svg="http://www.w3.org/2000/svg">
 <defs
   id="defs12">
  <linearGradient
    xlink:href="#linearGradient3487"
    id="linearGradient3403"
    gradientUnits="userSpaceOnUse"
    x1="6.9491749"
    y1="4.5549412"
    x2="11.215498"
    y2="59.052471" />
  <linearGradient
    id="linearGradient3487">
   <stop
     style="stop-color:#32373c;stop-opacity:1"
     offset="0"
     id="stop3481" />
   <stop
     id="stop3483"
     offset="0.36804965"
     style="stop-color:#1a1a1a;stop-opacity:1" />
   <stop
     style="stop-color:#31363b;stop-opacity:1"
     offset="1"
     id="stop3485" />
  </linearGradient>
  <linearGradient
    xlink:href="#linearGradient20604"
    id="linearGradient20558"
    gradientUnits="userSpaceOnUse"
    x1="25.802212"
    y1="20.373846"
    x2="25.111048"
    y2="58.912758" />
  <linearGradient
    id="linearGradient20604">
   <stop
     id="stop20598"
     offset="0"
     style="stop-color:#3d3d3d;stop-opacity:1" />
   <stop
     style="stop-color:#000000;stop-opacity:1"
     offset="0.61772454"
     id="stop20600" />
   <stop
     id="stop20602"
     offset="1"
     style="stop-color:#3d3d3d;stop-opacity:1" />
  </linearGradient>
  <filter
    style="color-interpolation-filters:sRGB"
    id="filter20720"
    x="-0.010599848"
    y="-0.010246462"
    width="1.0211992"
    height="1.0204929">
   <feGaussianBlur
     stdDeviation="0.00041659442"
     id="feGaussianBlur20722" />
  </filter>
  <linearGradient
    gradientTransform="translate(0.36067797,-0.13016949)"
    xlink:href="#linearGradient4555"
    id="linearGradient4557"
    x1="43.499737"
    y1="64.011795"
    x2="44.141731"
    y2="0.30621234"
    gradientUnits="userSpaceOnUse" />
  <linearGradient
    id="linearGradient4555">
   <stop
     style="stop-color:#141618;stop-opacity:1"
     offset="0"
     id="stop4551" />
   <stop
     id="stop4559"
     offset="0.51820582"
     style="stop-color:#686868;stop-opacity:1" />
   <stop
     style="stop-color:#31363b;stop-opacity:1"
     offset="1"
     id="stop4553" />
  </linearGradient>
  <filter
    style="color-interpolation-filters:sRGB"
    id="filter4601"
    x="-0.029694689"
    width="1.0593894"
    y="-0.029553006"
    height="1.059106">
   <feGaussianBlur
     stdDeviation="0.00044516151"
     id="feGaussianBlur4603" />
  </filter>
 </defs>
 <rect
   style="display:inline;fill:#4c566a;fill-opacity:0.992157;fill-rule:evenodd;stroke:none;stroke-width:0.615361;stroke-linejoin:round;stroke-miterlimit:7.8"
   id="rect1192"
   width="27.911873"
   height="28.328056"
   x="2.0990832"
   y="2.0030785"
   ry="0" />
 <path
   style="display:inline;mix-blend-mode:normal;fill:url(#linearGradient3403);fill-opacity:1;stroke:url(#linearGradient20558);stroke-width:1.16242;stroke-linecap:butt;stroke-linejoin:round;stroke-miterlimit:4;stroke-dasharray:none;stroke-opacity:1"
   d="M 4.7043071,3.9814882 4.6913695,60.80196 H 58.59546 l 1.022155,-2.866369 c 0,0 -23.87537,0.766388 -32.844441,-4.140386 C 16.257548,48.042344 11.401114,4.0978197 11.401114,4.0978197 Z"
   id="path1686"
   transform="matrix(0.49867097,0,0,0.49867098,0.06746593,0.01762359)" />
 <rect
   style="display:inline;fill:none;fill-opacity:1;stroke:url(#linearGradient4557);stroke-width:3.71366;stroke-linejoin:round;stroke-miterlimit:7.8;stroke-dasharray:none;stroke-opacity:0.995146"
   id="rect4539"
   width="62.566689"
   height="62.866646"
   x="1.0323594"
   y="0.59551275"
   ry="6.2447233"
   rx="5.8029528"
   transform="matrix(0.46714637,0,0,0.46619422,0.90531422,1.0252859)" />
 <g
   id="g904"
   transform="matrix(0.63294873,0,0,0.63242172,3.610111,0.1474625)">
  <path
    style="fill:#ffffff;fill-opacity:1;stroke:none;stroke-width:0.2;stroke-linecap:round;stroke-linejoin:round;stroke-miterlimit:4;stroke-dasharray:none;stroke-dashoffset:0;stroke-opacity:1;paint-order:fill markers stroke"
    d="m 14.469026,19.965283 a 4.1707315,4.1707315 0 0 0 -4.048828,3.191406 c -0.765326,0.49973 -1.2714839,1.35963 -1.2714839,2.345703 0,1.55367 1.2510179,2.804688 2.8046869,2.804688 h 2.515625 3.091797 c 1.55367,0 2.804688,-1.251018 2.804688,-2.804688 0,-1.24736 -0.811696,-2.287919 -1.933594,-2.654296 a 4.1707315,4.1707315 0 0 0 -3.962891,-2.882813 z"
    id="rect4529" />
  <text
    xml:space="preserve"
    style="font-style:normal;font-variant:normal;font-weight:bold;font-stretch:condensed;font-size:13.632px;line-height:0%;font-family:'Roboto Condensed';-inkscape-font-specification:'Roboto Condensed, Bold Condensed';letter-spacing:0px;word-spacing:0px;fill:#ffffff;fill-opacity:1;stroke:none;stroke-width:0.331763"
    x="16.690565"
    y="18.346107"
    id="text4536"
    transform="scale(1.135989,0.88029021)"><tspan
     id="tspan4534"
     x="16.690565"
     y="18.346107"
     style="font-size:13.2706px;line-height:1.25;fill:#ffffff;fill-opacity:1;stroke-width:0.331763">@</tspan></text>
  <path
    style="fill:#ffffff;fill-opacity:1;fill-rule:nonzero;stroke:none;stroke-width:0.833206;stroke-linecap:square;stroke-linejoin:miter;stroke-miterlimit:4;stroke-dasharray:none;stroke-dashoffset:0;stroke-opacity:1"
    d="m 34.36057,20.808227 c -0.461596,0 -0.833206,0.371609 -0.833206,0.833206 v 3.557398 a 1.6664119,1.6664119 0 0 0 -0.833206,-0.224575 1.6664119,1.6664119 0 0 0 -1.666412,1.666412 1.6664119,1.6664119 0 0 0 1.666412,1.666412 1.6664119,1.6664119 0 0 0 1.666412,-1.666412 v -4.16603 h 4.999235 v 2.724193 a 1.6664119,1.6664119 0 0 0 -0.833206,-0.224575 1.6664119,1.6664119 0 0 0 -1.666411,1.666412 1.6664119,1.6664119 0 0 0 1.666411,1.666412 1.6664119,1.6664119 0 0 0 1.666412,-1.666412 v -4.999235 c 0,-0.461597 -0.37161,-0.833206 -0.833206,-0.833206 z"
    id="rect826-3" />
  <path
    style="fill:#ffffff;fill-opacity:0.849168;stroke:none;stroke-width:0.2;stroke-linecap:round;stroke-linejoin:round;stroke-miterlimit:4;stroke-dasharray:none;stroke-dashoffset:0;stroke-opacity:1;paint-order:fill markers stroke"
    d="m 25.025667,30.563204 -1.826172,3.164063 a 4.2711864,4.2711864 0 0 0 -2.445312,3.855469 4.2711864,4.2711864 0 0 0 4.271484,4.271484 4.2711864,4.2711864 0 0 0 4.271484,-4.271484 4.2711864,4.2711864 0 0 0 -2.445312,-3.855469 z"
    id="path4605" />
 </g>
 <path
   style="fill:#4c566a;fill-opacity:0.992157;fill-rule:nonzero;stroke:none;stroke-width:0.146261"
   d="m 12.997737,14.081708 c -0.474627,0 -0.949814,0.262392 -0.949814,0.787761 h 0.379806 c 0,-0.525368 1.140009,-0.525368 1.140009,0 0,0.09309 -0.04489,0.159413 -0.172801,0.254247 -0.127914,0.09483 -0.323706,0.189667 -0.529601,0.296138 -0.205896,0.107052 -0.423578,0.226321 -0.600856,0.401443 -0.177852,0.175122 -0.311373,0.421224 -0.311373,0.72318 v 0.197231 h 1.995 v -0.394462 h -1.580966 c 0.03144,-0.08901 0.08359,-0.165813 0.15877,-0.240284 0.125669,-0.123342 0.311366,-0.232139 0.50941,-0.334536 0.198043,-0.102398 0.405624,-0.198395 0.580664,-0.328719 0.175037,-0.129742 0.332122,-0.321736 0.332122,-0.574238 0,-0.525368 -0.475188,-0.787761 -0.95037,-0.787761 z m 0,0"
   id="path5" />
</svg>
