<?xml version="1.0" encoding="UTF-8" standalone="no"?>
<!-- Created with Inkscape (http://www.inkscape.org/) -->

<svg
  width="32"
  height="32"
  version="1.1"
  viewBox="0 0 32 32"
  id="svg22"
  xmlns:xlink="http://www.w3.org/1999/xlink"
  xmlns="http://www.w3.org/2000/svg"
  xmlns:svg="http://www.w3.org/2000/svg">
 <defs
   id="defs12">
  <linearGradient
    xlink:href="#linearGradient3487"
    id="linearGradient3403"
    gradientUnits="userSpaceOnUse"
    x1="6.9491749"
    y1="4.5549412"
    x2="11.215498"
    y2="59.052471" />
  <linearGradient
    id="linearGradient3487">
   <stop
     style="stop-color:#32373c;stop-opacity:1"
     offset="0"
     id="stop3481" />
   <stop
     id="stop3483"
     offset="0.36804965"
     style="stop-color:#1a1a1a;stop-opacity:1" />
   <stop
     style="stop-color:#31363b;stop-opacity:1"
     offset="1"
     id="stop3485" />
  </linearGradient>
  <linearGradient
    xlink:href="#linearGradient20604"
    id="linearGradient20558"
    gradientUnits="userSpaceOnUse"
    x1="25.802212"
    y1="20.373846"
    x2="25.111048"
    y2="58.912758" />
  <linearGradient
    id="linearGradient20604">
   <stop
     id="stop20598"
     offset="0"
     style="stop-color:#3d3d3d;stop-opacity:1" />
   <stop
     style="stop-color:#000000;stop-opacity:1"
     offset="0.61772454"
     id="stop20600" />
   <stop
     id="stop20602"
     offset="1"
     style="stop-color:#3d3d3d;stop-opacity:1" />
  </linearGradient>
  <filter
    style="color-interpolation-filters:sRGB"
    id="filter20720"
    x="-0.010581905"
    y="-0.010229118"
    width="1.0211634"
    height="1.0204583">
   <feGaussianBlur
     stdDeviation="5.9688425e-06"
     id="feGaussianBlur20722" />
  </filter>
  <linearGradient
    gradientTransform="translate(0.36067797,-0.13016949)"
    xlink:href="#linearGradient4555"
    id="linearGradient4557"
    x1="43.499737"
    y1="64.011795"
    x2="44.141731"
    y2="0.30621234"
    gradientUnits="userSpaceOnUse" />
  <linearGradient
    id="linearGradient4555">
   <stop
     style="stop-color:#141618;stop-opacity:1"
     offset="0"
     id="stop4551" />
   <stop
     id="stop4559"
     offset="0.51820582"
     style="stop-color:#686868;stop-opacity:1" />
   <stop
     style="stop-color:#31363b;stop-opacity:1"
     offset="1"
     id="stop4553" />
  </linearGradient>
  <filter
    style="color-interpolation-filters:sRGB"
    id="filter4601"
    x="-0.029677858"
    width="1.0593557"
    y="-0.029536255"
    height="1.0590725">
   <feGaussianBlur
     stdDeviation="6.3781435e-06"
     id="feGaussianBlur4603" />
  </filter>
 </defs>
 <rect
   style="display:inline;fill:#1fb5f9;fill-opacity:1;fill-rule:evenodd;stroke:none;stroke-width:0.617;stroke-linejoin:round;stroke-miterlimit:7.8"
   id="rect1192"
   width="27.986261"
   height="28.403553"
   x="2.1033354"
   y="2.0072956"
   ry="0" />
 <g
   transform="matrix(0.80621135,0,0,0.84204116,-311.75808,-425.39021)"
   id="g47778">
  <path
    style="fill:#ecf0f1;fill-rule:evenodd"
    d="m 409.78685,507.798 c 3.93874,3.40021 4.92347,6.84669 4.92347,12.26249 l 1.61555,-4.185 c 1.70085,1.67225 2.86007,3.88792 3.20027,6.36972 0.1252,1.90845 -0.1864,3.59799 -0.67873,5.07501 2.00911,-1.27923 4.54669,-2.74105 5.6329,-5.07501 -0.72501,-7.72267 -6.93245,-13.8567 -14.69346,-14.44721 z m -2.76822,0.0911 c -7.72267,0.72501 -13.85669,6.93236 -14.4472,14.69333 3.40025,-3.93874 6.84658,-4.92333 12.26236,-4.92333 l -4.18487,-1.61556 c 1.67226,-1.70084 3.88791,-2.85996 6.36971,-3.20013 1.9084,-0.12521 3.59798,0.18626 5.07502,0.6786 -1.27921,-2.00913 -2.74103,-4.54671 -5.07502,-5.63291 z m -8.72305,12.38666 c -2.00912,1.27921 -4.54685,2.74102 -5.63304,5.07501 0.72502,7.72267 6.93247,13.85672 14.69346,14.44722 -3.93874,-3.40024 -4.92347,-6.84672 -4.92347,-12.2625 l -1.61556,4.18498 c -1.70081,-1.67222 -2.85996,-3.88792 -3.20012,-6.3697 -0.12521,-1.90844 0.1864,-3.59795 0.67873,-5.07501 z m 26.27585,4.73765 c -3.40023,3.93873 -6.84658,4.92348 -12.26237,4.92348 l 4.18486,1.61555 c -1.67223,1.70086 -3.88791,2.86006 -6.36972,3.20027 -1.90843,0.1252 -3.59797,-0.1864 -5.07501,-0.67875 1.27922,2.0091 2.74103,4.54672 5.07501,5.63291 7.72266,-0.72501 13.8567,-6.93244 14.44723,-14.69346 z"
    id="path47776" />
 </g>
 <path
   style="display:inline;mix-blend-mode:normal;fill:url(#linearGradient3403);fill-opacity:1;stroke:url(#linearGradient20558);stroke-width:1.16242;stroke-linecap:butt;stroke-linejoin:round;stroke-miterlimit:4;stroke-dasharray:none;stroke-opacity:1"
   d="M 4.7043071,3.9814882 4.6913695,60.80196 H 58.59546 l 1.022155,-2.866369 c 0,0 -23.87537,0.766388 -32.844441,-4.140386 C 16.257548,48.042344 11.401114,4.0978197 11.401114,4.0978197 Z"
   id="path1686"
   transform="matrix(0.5,0,0,0.5,0.06630362,0.01654936)" />
 <rect
   style="display:inline;fill:none;fill-opacity:1;stroke:url(#linearGradient4557);stroke-width:3.71366;stroke-linejoin:round;stroke-miterlimit:7.8;stroke-dasharray:none;stroke-opacity:0.995146"
   id="rect4539"
   width="62.566689"
   height="62.866646"
   x="1.0323594"
   y="0.59551275"
   ry="6.2447233"
   rx="5.8029528"
   transform="matrix(0.46839137,0,0,0.46743669,0.90638486,1.0268972)" />
</svg>
