<?xml version="1.0" encoding="UTF-8" standalone="no"?>
<!-- Created with Inkscape (http://www.inkscape.org/) -->

<svg
  width="32"
  height="32"
  version="1.1"
  viewBox="0 0 32 32"
  id="svg22"
  xmlns:xlink="http://www.w3.org/1999/xlink"
  xmlns="http://www.w3.org/2000/svg"
  xmlns:svg="http://www.w3.org/2000/svg">
 <defs
   id="defs12">
  <linearGradient
    xlink:href="#linearGradient3487"
    id="linearGradient3403"
    gradientUnits="userSpaceOnUse"
    x1="6.9491749"
    y1="4.5549412"
    x2="11.215498"
    y2="59.052471" />
  <linearGradient
    id="linearGradient3487">
   <stop
     style="stop-color:#32373c;stop-opacity:1"
     offset="0"
     id="stop3481" />
   <stop
     id="stop3483"
     offset="0.36804965"
     style="stop-color:#1a1a1a;stop-opacity:1" />
   <stop
     style="stop-color:#31363b;stop-opacity:1"
     offset="1"
     id="stop3485" />
  </linearGradient>
  <linearGradient
    xlink:href="#linearGradient20604"
    id="linearGradient20558"
    gradientUnits="userSpaceOnUse"
    x1="25.802212"
    y1="20.373846"
    x2="25.111048"
    y2="58.912758" />
  <linearGradient
    id="linearGradient20604">
   <stop
     id="stop20598"
     offset="0"
     style="stop-color:#3d3d3d;stop-opacity:1" />
   <stop
     style="stop-color:#000000;stop-opacity:1"
     offset="0.61772454"
     id="stop20600" />
   <stop
     id="stop20602"
     offset="1"
     style="stop-color:#3d3d3d;stop-opacity:1" />
  </linearGradient>
  <filter
    style="color-interpolation-filters:sRGB"
    id="filter20720"
    x="-0.010581654"
    y="-0.010228875"
    width="1.0211628"
    height="1.0204578">
   <feGaussianBlur
     stdDeviation="2.1315973e-07"
     id="feGaussianBlur20722" />
  </filter>
  <linearGradient
    gradientTransform="translate(0.36067797,-0.13016949)"
    xlink:href="#linearGradient4555"
    id="linearGradient4557"
    x1="43.499737"
    y1="64.011795"
    x2="44.141731"
    y2="0.30621234"
    gradientUnits="userSpaceOnUse" />
  <linearGradient
    id="linearGradient4555">
   <stop
     style="stop-color:#141618;stop-opacity:1"
     offset="0"
     id="stop4551" />
   <stop
     id="stop4559"
     offset="0.51820582"
     style="stop-color:#686868;stop-opacity:1" />
   <stop
     style="stop-color:#31363b;stop-opacity:1"
     offset="1"
     id="stop4553" />
  </linearGradient>
  <filter
    style="color-interpolation-filters:sRGB"
    id="filter4601"
    x="-0.029677622"
    width="1.0593552"
    y="-0.029536021"
    height="1.059072">
   <feGaussianBlur
     stdDeviation="2.2777671e-07"
     id="feGaussianBlur4603" />
  </filter>
 </defs>
 <g
   id="g8"
   transform="matrix(-0.49875805,0,0,-0.49875805,32.337686,31.465224)">
  <rect
    style="fill:#4f4f4f"
    width="56"
    height="56"
    x="-60"
    y="-60"
    rx="2.8"
    ry="2.8"
    transform="matrix(0,-1,-1,0,0,0)"
    id="rect2" />
  <rect
    style="opacity:0.2"
    width="40"
    height="40"
    x="-53"
    y="-52"
    rx="2"
    ry="2"
    transform="matrix(0,-1,-1,0,0,0)"
    id="rect3" />
  <rect
    style="fill:#6c6c6c"
    width="40"
    height="40"
    x="-52"
    y="-52"
    rx="2"
    ry="2"
    transform="matrix(0,-1,-1,0,0,0)"
    id="rect4" />
  <path
    style="fill:none;stroke:#3f3f3f;stroke-width:6;stroke-linecap:round"
    d="M 32,20 V 32"
    id="path4" />
  <path
    style="fill:none;stroke:#3f3f3f;stroke-width:6;stroke-linecap:round"
    d="m 23,41 9,-9"
    id="path5" />
  <path
    style="fill:none;stroke:#3f3f3f;stroke-width:6;stroke-linecap:round"
    d="M 41,41 32,32"
    id="path6" />
  <circle
    style="opacity:0.2"
    cx="32"
    cy="33"
    r="5"
    id="circle6" />
  <circle
    style="fill:#ffffff"
    cx="32"
    cy="32"
    id="circle7"
    r="5" />
  <path
    style="opacity:0.1;fill:#ffffff"
    d="m 14,12 c -1.108,0 -2,0.892 -2,2 v 1 c 0,-1.108 0.892,-2 2,-2 h 36 c 1.108,0 2,0.892 2,2 v -1 c 0,-1.108 -0.892,-2 -2,-2 z"
    id="path8" />
 </g>
 <path
   style="display:inline;mix-blend-mode:normal;fill:url(#linearGradient3403);fill-opacity:1;stroke:url(#linearGradient20558);stroke-width:1.16242;stroke-linecap:butt;stroke-linejoin:round;stroke-miterlimit:4;stroke-dasharray:none;stroke-opacity:1"
   d="M 4.7043071,3.9814882 4.6913695,60.80196 H 58.59546 l 1.022155,-2.866369 c 0,0 -23.87537,0.766388 -32.844441,-4.140386 C 16.257548,48.042344 11.401114,4.0978197 11.401114,4.0978197 Z"
   id="path1686"
   transform="matrix(0.5,0,0,0.5,0.06630362,0.01654936)" />
 <rect
   style="display:inline;fill:none;fill-opacity:1;stroke:url(#linearGradient4557);stroke-width:3.71366;stroke-linejoin:round;stroke-miterlimit:7.8;stroke-dasharray:none;stroke-opacity:0.995146"
   id="rect4539"
   width="62.566689"
   height="62.866646"
   x="1.0323594"
   y="0.59551275"
   ry="6.2447233"
   rx="5.8029528"
   transform="matrix(0.46839137,0,0,0.46743669,0.90638486,1.0268972)" />
</svg>
