<?xml version="1.0" encoding="UTF-8" standalone="no"?>
<!-- Created with Inkscape (http://www.inkscape.org/) -->

<svg
  width="32"
  height="32"
  version="1.1"
  viewBox="0 0 32 32"
  id="svg22"
  xmlns:xlink="http://www.w3.org/1999/xlink"
  xmlns="http://www.w3.org/2000/svg"
  xmlns:svg="http://www.w3.org/2000/svg">
 <defs
   id="defs12">
  <linearGradient
    xlink:href="#linearGradient3487"
    id="linearGradient3403"
    gradientUnits="userSpaceOnUse"
    x1="6.9491749"
    y1="4.5549412"
    x2="11.215498"
    y2="59.052471" />
  <linearGradient
    id="linearGradient3487">
   <stop
     style="stop-color:#32373c;stop-opacity:1"
     offset="0"
     id="stop3481" />
   <stop
     id="stop3483"
     offset="0.36804965"
     style="stop-color:#1a1a1a;stop-opacity:1" />
   <stop
     style="stop-color:#31363b;stop-opacity:1"
     offset="1"
     id="stop3485" />
  </linearGradient>
  <linearGradient
    xlink:href="#linearGradient20604"
    id="linearGradient20558"
    gradientUnits="userSpaceOnUse"
    x1="25.802212"
    y1="20.373846"
    x2="25.111048"
    y2="58.912758" />
  <linearGradient
    id="linearGradient20604">
   <stop
     id="stop20598"
     offset="0"
     style="stop-color:#3d3d3d;stop-opacity:1" />
   <stop
     style="stop-color:#000000;stop-opacity:1"
     offset="0.61772454"
     id="stop20600" />
   <stop
     id="stop20602"
     offset="1"
     style="stop-color:#3d3d3d;stop-opacity:1" />
  </linearGradient>
  <filter
    style="color-interpolation-filters:sRGB"
    id="filter20720"
    x="-0.010582507"
    y="-0.0102297"
    width="1.0211646"
    height="1.0204594">
   <feGaussianBlur
     stdDeviation="1.9747251e-05"
     id="feGaussianBlur20722" />
  </filter>
  <linearGradient
    gradientTransform="translate(0.36067797,-0.13016949)"
    xlink:href="#linearGradient4555"
    id="linearGradient4557"
    x1="43.499737"
    y1="64.011795"
    x2="44.141731"
    y2="0.30621234"
    gradientUnits="userSpaceOnUse" />
  <linearGradient
    id="linearGradient4555">
   <stop
     style="stop-color:#141618;stop-opacity:1"
     offset="0"
     id="stop4551" />
   <stop
     id="stop4559"
     offset="0.51820582"
     style="stop-color:#686868;stop-opacity:1" />
   <stop
     style="stop-color:#31363b;stop-opacity:1"
     offset="1"
     id="stop4553" />
  </linearGradient>
  <filter
    style="color-interpolation-filters:sRGB"
    id="filter4601"
    x="-0.029678423"
    width="1.0593568"
    y="-0.029536817"
    height="1.0590736">
   <feGaussianBlur
     stdDeviation="2.1101377e-05"
     id="feGaussianBlur4603" />
  </filter>
 </defs>
 <rect
   style="fill:#efefef;fill-opacity:1;stroke-width:0.678632"
   width="27.145348"
   height="27.145348"
   x="3.5473113"
   y="2.0363762"
   rx="0.49511665"
   ry="0.58476192"
   id="rect2" />
 <g
   id="g1"
   transform="matrix(0.56817538,0,0,0.56817538,34.188365,0.8684595)">
  <path
    style="opacity:0.2"
    d="m -19.847691,6.4437336 c -7.732,0 -14,6.2680004 -14,14.0000004 0,7.732 6.268,14 14,14 7.732,0 13.9999999,-6.268 13.9999999,-14 V 8.4437336 c 0,-1.11 -0.89,-2 -2,-2 z"
    id="path1" />
  <path
    style="opacity:0.2"
    d="m -31.847691,46.443734 c 7.732,0 14,-6.268 14,-14 0,-7.732 -6.268,-14 -14,-14 -7.732,0 -14,6.268 -14,14 v 12 c 0,1.11 0.89,2 2,2"
    id="path2" />
  <path
    style="fill:#666666"
    d="m -19.847691,5.4437336 c -7.732,0 -14,6.2680004 -14,14.0000004 0,7.732 6.268,14 14,14 7.732,0 13.9999999,-6.268 13.9999999,-14 V 7.4437336 c 0,-1.11 -0.89,-2 -2,-2 z"
    id="path3" />
  <path
    style="opacity:0.2"
    d="m -19.847691,30.443734 c 5.54,0 9.9999999,-4.46 9.9999999,-10 v -10 h -9.9999999 c -5.54,0 -10,4.46 -10,10 0,5.54 4.46,10 10,10 z"
    id="path4" />
  <path
    style="fill:#ececec"
    d="m -19.847691,29.443734 c 5.54,0 9.9999999,-4.46 9.9999999,-10 V 9.4437336 h -9.9999999 c -5.54,0 -10,4.4600004 -10,10.0000004 0,5.54 4.46,10 10,10 z"
    id="path5" />
  <path
    style="opacity:0.1;fill:#ffffff"
    d="m -19.847691,5.4437336 c -7.732,0 -14,6.2680004 -14,14.0000004 0.005,0.137 0.011,0.273 0.02,0.41 0.316,-7.493 6.48,-13.4059004 13.98,-13.4100004 h 11.9999999 c 1.11,0 2,0.89 2,2 v -1 c 0,-1.11 -0.89,-2 -2,-2 z"
    id="path6" />
  <path
    style="fill:#808080"
    d="m -31.847691,17.443734 c -7.732,0 -14,6.268 -14,14 v 12 c 0,1.11 0.89,2 2,2 h 12 c 7.732,0 14,-6.268 14,-14 0,-7.732 -6.268,-14 -14,-14 z"
    id="path7" />
  <path
    style="opacity:0.2;fill:#ffffff"
    d="m -31.847691,17.443734 a 14,14 0 0 0 -14,14 v 1 a 14,14 0 0 1 14,-14 14,14 0 0 1 13.98,13.59 14,14 0 0 0 0.02,-0.59 14,14 0 0 0 -14,-14 z"
    id="path8" />
  <path
    style="opacity:0.2"
    d="m -31.847691,22.443734 c -5.54,0 -10,4.46 -10,10 v 10 h 10 c 5.54,0 10,-4.46 10,-10 0,-5.54 -4.46,-10 -10,-10 z"
    id="path9" />
  <path
    style="fill:#ffffff"
    d="m -31.847691,21.443734 c -5.54,0 -10,4.46 -10,10 v 10 h 10 c 5.54,0 10,-4.46 10,-10 0,-5.54 -4.46,-10 -10,-10 z"
    id="path10" />
 </g>
 <path
   style="display:inline;mix-blend-mode:normal;fill:url(#linearGradient3403);fill-opacity:1;stroke:url(#linearGradient20558);stroke-width:1.16242;stroke-linecap:butt;stroke-linejoin:round;stroke-miterlimit:4;stroke-dasharray:none;stroke-opacity:1"
   d="M 4.7043071,3.9814882 4.6913695,60.80196 H 58.59546 l 1.022155,-2.866369 c 0,0 -23.87537,0.766388 -32.844441,-4.140386 C 16.257548,48.042344 11.401114,4.0978197 11.401114,4.0978197 Z"
   id="path1686"
   transform="matrix(0.5,0,0,0.5,0.06630362,0.01654936)" />
 <rect
   style="display:inline;fill:none;fill-opacity:1;stroke:url(#linearGradient4557);stroke-width:3.71366;stroke-linejoin:round;stroke-miterlimit:7.8;stroke-dasharray:none;stroke-opacity:0.995146"
   id="rect4539"
   width="62.566689"
   height="62.866646"
   x="1.0323594"
   y="0.59551275"
   ry="6.2447233"
   rx="5.8029528"
   transform="matrix(0.46839137,0,0,0.46743669,0.90638486,1.0268972)" />
 <circle
   style="display:none;fill:#dc2928"
   cx="-32.350708"
   cy="23.5"
   id="circle2"
   r="20" />
</svg>
