<?xml version="1.0" encoding="UTF-8" standalone="no"?>
<!-- Created with Inkscape (http://www.inkscape.org/) -->

<svg
  width="32"
  height="32"
  version="1.1"
  viewBox="0 0 32 32"
  id="svg22"
  xmlns:xlink="http://www.w3.org/1999/xlink"
  xmlns="http://www.w3.org/2000/svg"
  xmlns:svg="http://www.w3.org/2000/svg">
 <defs
   id="defs12">
  <linearGradient
    xlink:href="#linearGradient3487"
    id="linearGradient3403"
    gradientUnits="userSpaceOnUse"
    x1="6.9491749"
    y1="4.5549412"
    x2="11.215498"
    y2="59.052471" />
  <linearGradient
    id="linearGradient3487">
   <stop
     style="stop-color:#32373c;stop-opacity:1"
     offset="0"
     id="stop3481" />
   <stop
     id="stop3483"
     offset="0.36804965"
     style="stop-color:#1a1a1a;stop-opacity:1" />
   <stop
     style="stop-color:#31363b;stop-opacity:1"
     offset="1"
     id="stop3485" />
  </linearGradient>
  <linearGradient
    xlink:href="#linearGradient20604"
    id="linearGradient20558"
    gradientUnits="userSpaceOnUse"
    x1="25.802212"
    y1="20.373846"
    x2="25.111048"
    y2="58.912758" />
  <linearGradient
    id="linearGradient20604">
   <stop
     id="stop20598"
     offset="0"
     style="stop-color:#3d3d3d;stop-opacity:1" />
   <stop
     style="stop-color:#000000;stop-opacity:1"
     offset="0.61772454"
     id="stop20600" />
   <stop
     id="stop20602"
     offset="1"
     style="stop-color:#3d3d3d;stop-opacity:1" />
  </linearGradient>
  <filter
    style="color-interpolation-filters:sRGB"
    id="filter20720"
    x="-0.010582008"
    y="-0.010229218"
    width="1.0211636"
    height="1.0204585">
   <feGaussianBlur
     stdDeviation="8.326552e-06"
     id="feGaussianBlur20722" />
  </filter>
  <linearGradient
    gradientTransform="translate(0.36067797,-0.13016949)"
    xlink:href="#linearGradient4555"
    id="linearGradient4557"
    x1="43.499737"
    y1="64.011795"
    x2="44.141731"
    y2="0.30621234"
    gradientUnits="userSpaceOnUse" />
  <linearGradient
    id="linearGradient4555">
   <stop
     style="stop-color:#141618;stop-opacity:1"
     offset="0"
     id="stop4551" />
   <stop
     id="stop4559"
     offset="0.51820582"
     style="stop-color:#686868;stop-opacity:1" />
   <stop
     style="stop-color:#31363b;stop-opacity:1"
     offset="1"
     id="stop4553" />
  </linearGradient>
  <filter
    style="color-interpolation-filters:sRGB"
    id="filter4601"
    x="-0.029677955"
    width="1.0593559"
    y="-0.029536352"
    height="1.0590727">
   <feGaussianBlur
     stdDeviation="8.8975279e-06"
     id="feGaussianBlur4603" />
  </filter>
 </defs>
 <g
   id="g6"
   transform="matrix(0.6786337,0,0,0.6786337,0.83277678,-0.6781584)">
  <rect
    style="fill:#315080;fill-opacity:1"
    width="40"
    height="40"
    x="4"
    y="4"
    rx="0.72957867"
    ry="0.86167526"
    id="rect2" />
  <g
    id="g4"
    transform="matrix(0.90655153,0,0,0.90655153,3.3237607,3.2595644)">
   <path
     opacity="0.2"
     d="m 25.395645,8.6847933 a 0.23221116,0.23281762 0 0 0 -0.13861,0.065692 c -4.193504,4.0425327 -9.070377,6.8100727 -13.84157,8.3282967 a 0.23221116,0.23281762 0 0 0 -0.128531,0.103606 c -0.74679,1.281304 -1.215857,3.189355 -1.3886739,5.18759 -0.1727774,1.998233 -0.046401,4.082276 0.4385119,5.705534 a 0.23221116,0.23281762 0 0 0 0.367956,0.113704 C 14.128669,25.411997 21.910633,21.993863 27.027639,9.0030196 a 0.23221116,0.23281762 0 0 0 -0.21674,-0.3183815 h -1.393705 a 0.23221116,0.23281762 0 0 0 -0.02268,0 z m 4.191052,0.4649381 A 0.23221116,0.23281762 0 0 0 29.372474,9.3291425 C 26.864165,19.985099 23.918041,30.206985 16.902415,36.684535 a 0.23221116,0.23281762 0 0 0 -0.0026,0.341116 c 2.753861,2.573859 6.772782,2.981738 11.335971,2.38779 a 0.23221116,0.23281762 0 0 0 0.18395,-0.141498 C 33.477515,27.3237 33.086797,16.636645 29.810861,9.289399 A 0.23221116,0.23281762 0 0 0 29.58634,9.1513322 Z m 4.168471,1.8622316 a 0.23221116,0.23281762 0 0 0 -0.181448,0.343645 c 3.745624,7.087757 4.346539,14.64933 4.614545,21.781087 a 0.23221116,0.23281762 0 0 0 0.453635,0.06063 c 1.046525,-3.330132 2.338112,-6.784395 2.129591,-10.460986 -0.208507,-3.67659 -1.939264,-7.550604 -6.844912,-11.668753 a 0.23221116,0.23281762 0 0 0 -0.148688,-0.05559 0.23221116,0.23281762 0 0 0 -0.02268,0 z"
     id="path2"
     style="stroke-width:1.29035" />
   <path
     fill="#ffffff"
     d="m 25.395645,7.394445 a 0.23221116,0.23281762 0 0 0 -0.13861,0.065692 c -4.193504,4.042533 -9.070377,6.810073 -13.84157,8.328297 a 0.23221116,0.23281762 0 0 0 -0.128531,0.103606 c -0.74679,1.281303 -1.215857,3.189355 -1.3886739,5.187588 -0.1727774,1.998235 -0.046401,4.082277 0.4385119,5.705536 a 0.23221116,0.23281762 0 0 0 0.367956,0.113704 c 3.423941,-2.77722 11.205905,-6.195353 16.322911,-19.1861979 a 0.23221116,0.23281762 0 0 0 -0.21674,-0.3183803 h -1.393705 a 0.23221116,0.23281762 0 0 0 -0.02268,0 z m 4.191052,0.4649382 A 0.23221116,0.23281762 0 0 0 29.372474,8.0387931 C 26.864165,18.694751 23.918041,28.916635 16.902415,35.394187 a 0.23221116,0.23281762 0 0 0 -0.0026,0.341116 c 2.753861,2.573859 6.772782,2.981738 11.335971,2.38779 a 0.23221116,0.23281762 0 0 0 0.18395,-0.1415 C 33.477515,26.033352 33.086797,15.346297 29.810861,7.9990507 A 0.23221116,0.23281762 0 0 0 29.58634,7.8609828 Z m 4.168471,1.8622309 A 0.23221116,0.23281762 0 0 0 33.57372,10.06526 c 3.745624,7.087757 4.346539,14.649329 4.614545,21.781086 a 0.23221116,0.23281762 0 0 0 0.453635,0.06063 c 1.046525,-3.330133 2.338112,-6.784396 2.129591,-10.460987 -0.208507,-3.67659 -1.939264,-7.550605 -6.844912,-11.668752 a 0.23221116,0.23281762 0 0 0 -0.148688,-0.055593 0.23221116,0.23281762 0 0 0 -0.02268,0 z"
     id="path3"
     style="stroke-width:1.29035" />
   <path
     fill="none"
     d="m 25.418871,6.4189412 c -4.220214,4.0576298 -9.127152,6.8344608 -13.931895,8.3595238 -1.433577,2.453341 -1.871908,7.527121 -0.927438,10.680603 3.4842,-2.818637 11.15958,-6.144898 16.253233,-19.0403847 H 25.419065 Z M 29.59986,6.8826665 C 27.089872,17.517978 24.140393,27.760509 17.059217,34.281931 19.73953,36.780433 23.673675,37.191409 28.206154,36.60301 33.242772,24.735803 32.844182,14.139329 29.59986,6.8824086 Z m 4.178535,1.8574571 C 37.551117,15.860655 38.152419,23.444938 38.420682,30.565082 40.51879,23.906108 43.521431,16.897708 33.778395,8.7401236 Z"
     id="path4"
     style="stroke-width:1.29035" />
  </g>
 </g>
 <path
   style="display:inline;mix-blend-mode:normal;fill:url(#linearGradient3403);fill-opacity:1;stroke:url(#linearGradient20558);stroke-width:1.16242;stroke-linecap:butt;stroke-linejoin:round;stroke-miterlimit:4;stroke-dasharray:none;stroke-opacity:1"
   d="M 4.7043071,3.9814882 4.6913695,60.80196 H 58.59546 l 1.022155,-2.866369 c 0,0 -23.87537,0.766388 -32.844441,-4.140386 C 16.257548,48.042344 11.401114,4.0978197 11.401114,4.0978197 Z"
   id="path1686"
   transform="matrix(0.5,0,0,0.5,0.06630362,0.01654936)" />
 <rect
   style="display:inline;fill:none;fill-opacity:1;stroke:url(#linearGradient4557);stroke-width:3.71366;stroke-linejoin:round;stroke-miterlimit:7.8;stroke-dasharray:none;stroke-opacity:0.995146"
   id="rect4539"
   width="62.566689"
   height="62.866646"
   x="1.0323594"
   y="0.59551275"
   ry="6.2447233"
   rx="5.8029528"
   transform="matrix(0.46839137,0,0,0.46743669,0.90638486,1.0268972)" />
</svg>
