<?xml version="1.0" encoding="UTF-8" standalone="no"?>
<!-- Created with Inkscape (http://www.inkscape.org/) -->

<svg
  width="32"
  height="32"
  version="1.1"
  viewBox="0 0 32 32"
  id="svg22"
  xmlns:xlink="http://www.w3.org/1999/xlink"
  xmlns="http://www.w3.org/2000/svg"
  xmlns:svg="http://www.w3.org/2000/svg">
 <defs
   id="defs12">
  <linearGradient
    id="linearGradient917">
   <stop
     style="stop-color:#1c87e3;stop-opacity:1"
     offset="0"
     id="stop913" />
   <stop
     style="stop-color:#3fa3f5;stop-opacity:1"
     offset="1"
     id="stop915" />
  </linearGradient>
  <linearGradient
    id="linearGradient1005-3-3"
    x1="5.2535"
    x2="9.3823996"
    y1="15.383"
    y2="2.9421"
    gradientTransform="matrix(0.99999,0,0,0.99999,1.632,-0.61743)"
    gradientUnits="userSpaceOnUse">
   <stop
     stop-color="#fa8200"
     offset="0"
     id="stop2" />
   <stop
     stop-color="#ff9600"
     offset=".36953"
     id="stop4" />
   <stop
     stop-color="#ffb400"
     offset="1"
     id="stop6" />
  </linearGradient>
  <filter
    id="filter4014"
    x="-0.062499933"
    y="-0.057692993"
    width="1.1249999"
    height="1.115386"
    color-interpolation-filters="sRGB">
   <feGaussianBlur
     stdDeviation="1.093751"
     id="feGaussianBlur9" />
  </filter>
  <linearGradient
    xlink:href="#linearGradient3487"
    id="linearGradient3403"
    gradientUnits="userSpaceOnUse"
    x1="6.9491749"
    y1="4.5549412"
    x2="11.215498"
    y2="59.052471" />
  <linearGradient
    id="linearGradient3487">
   <stop
     style="stop-color:#32373c;stop-opacity:1"
     offset="0"
     id="stop3481" />
   <stop
     id="stop3483"
     offset="0.36804965"
     style="stop-color:#1a1a1a;stop-opacity:1" />
   <stop
     style="stop-color:#31363b;stop-opacity:1"
     offset="1"
     id="stop3485" />
  </linearGradient>
  <linearGradient
    xlink:href="#linearGradient20604"
    id="linearGradient20558"
    gradientUnits="userSpaceOnUse"
    x1="25.802212"
    y1="20.373846"
    x2="25.111048"
    y2="58.912758" />
  <linearGradient
    id="linearGradient20604">
   <stop
     id="stop20598"
     offset="0"
     style="stop-color:#3d3d3d;stop-opacity:1" />
   <stop
     style="stop-color:#000000;stop-opacity:1"
     offset="0.61772454"
     id="stop20600" />
   <stop
     id="stop20602"
     offset="1"
     style="stop-color:#3d3d3d;stop-opacity:1" />
  </linearGradient>
  <linearGradient
    gradientTransform="translate(0.36067797,-0.13016949)"
    xlink:href="#linearGradient4555"
    id="linearGradient4557"
    x1="43.499737"
    y1="64.011795"
    x2="44.141731"
    y2="0.30621234"
    gradientUnits="userSpaceOnUse" />
  <linearGradient
    id="linearGradient4555">
   <stop
     style="stop-color:#141618;stop-opacity:1"
     offset="0"
     id="stop4551" />
   <stop
     id="stop4559"
     offset="0.51820582"
     style="stop-color:#686868;stop-opacity:1" />
   <stop
     style="stop-color:#31363b;stop-opacity:1"
     offset="1"
     id="stop4553" />
  </linearGradient>
  <filter
    style="color-interpolation-filters:sRGB"
    id="filter4601"
    x="-0.029677614"
    width="1.0593552"
    y="-0.029536012"
    height="1.059072">
   <feGaussianBlur
     stdDeviation="3.5590112e-09"
     id="feGaussianBlur4603" />
  </filter>
  <linearGradient
    xlink:href="#linearGradient917"
    id="linearGradient919"
    x1="18.257399"
    y1="45.594536"
    x2="59.273731"
    y2="28.048244"
    gradientUnits="userSpaceOnUse"
    gradientTransform="matrix(0.65750456,0,0,0.65750456,0.25936099,0.21668312)" />
 </defs>
 <rect
   style="display:inline;fill:url(#linearGradient919);fill-opacity:1;fill-rule:evenodd;stroke:none;stroke-width:0.610046;stroke-linejoin:round;stroke-miterlimit:7.8"
   id="rect1192"
   width="27.670818"
   height="28.083406"
   x="2.338989"
   y="2.201354"
   ry="0" />
 <g
   id="surface1"
   transform="matrix(0.6322834,0,0,0.63229562,2.2878081,0.88594689)">
  <path
    style="fill:#3fa3f5;fill-opacity:1;fill-rule:nonzero;stroke:none"
    d="M 42.765625,12.949219 C 39.011719,6.386719 31.945312,1.984375 23.8125,1.984375 c -12.09375,0 -21.828125,9.734375 -21.828125,21.828125 0,3.984375 1.058594,7.714844 2.90625,10.921875 l 36.105469,-20.84375 c 0.585937,-0.335937 1.175781,-0.652344 1.769531,-0.941406 z m 0,0"
    id="path2" />
  <path
    style="fill:#1c87e3;fill-opacity:1;fill-rule:nonzero;stroke:none"
    d="m 42.699219,12.828125 c 3.804687,6.535156 4.082031,14.855469 0.01563,21.898437 C 36.667969,45.199219 23.371094,48.761719 12.898438,42.714844 9.445312,40.722656 6.746094,37.941406 4.890625,34.734375 l 36.105469,-20.84375 c 0.585937,-0.335937 1.152344,-0.691406 1.703125,-1.0625 z m 0,0"
    id="path4" />
  <path
    style="fill:#3f3f3f;fill-opacity:1;fill-rule:nonzero;stroke:none"
    d="m 23.8125,5.953125 c 9.863281,0 17.859375,7.996094 17.859375,17.859375 0,9.863281 -7.996094,17.859375 -17.859375,17.859375 -9.863281,0 -17.859375,-7.996094 -17.859375,-17.859375 0,-9.863281 7.996094,-17.859375 17.859375,-17.859375 z m 0,0"
    id="path6" />
  <path
    style="fill:#dedede;fill-opacity:1;fill-rule:nonzero;stroke:none"
    d="m 37.296875,14.050781 c 0,-0.02734 -0.140625,0.0625 -0.308594,0.199219 -0.425781,0.339844 -0.867187,0.476562 -2.125,0.660156 -1.167969,0.171875 -1.734375,0.367188 -1.882812,0.648438 -0.1875,0.324218 -0.667969,0.589844 -0.769531,0.941406 0.08594,1.132812 1.398437,1.847656 1.421874,2.9375 0,0.335938 -0.03906,0.417969 -0.316406,0.679688 -0.472656,0.453124 -1.070312,0.613281 -2.210937,0.605468 -1.664063,-0.01172 -3.222657,-0.441406 -6.300781,-1.753906 -2.523438,-1.078125 -3.621094,-1.347656 -4.734376,-1.140625 -0.597656,0.109375 -1.507812,0.550781 -1.980468,0.953125 -0.742188,0.636719 -2.128906,2.664062 -3,4.402344 l -0.578125,1.160156 -0.445313,-0.464844 c -0.734375,-0.761718 -0.960937,-1.0625 -0.960937,-1.277344 0,-0.128906 -0.04687,-0.203124 -0.132813,-0.203124 -0.113281,0 -0.128906,0.06641 -0.09375,0.410156 0.04297,0.445312 0.363282,0.984375 1.027344,1.726562 l 0.363281,0.402344 -0.296875,0.945312 c -0.164062,0.523438 -0.34375,1.207032 -0.394531,1.515626 -0.09766,0.539062 -0.117187,0.585937 -0.710937,1.203124 -0.710938,0.742188 -0.808594,0.765626 -1.652344,0.449219 -0.335938,-0.132812 -3.03125,-1.019531 -3.078125,-0.1875 1.453125,-0.07031 3.070312,1.386719 4.359375,1.160157 0.234375,-0.04688 0.449218,-0.191407 0.851562,-0.582032 l 0.542969,-0.523437 c 0.585937,0.609375 1.417969,0.859375 2.1875,1.082031 l -0.371094,0.08984 c -0.507812,0.12891 -0.832031,0.382816 -1.011719,0.78516 -0.152343,0.335938 -0.152343,0.34375 0,0.457031 0.199219,0.144531 1.625,0.148438 1.914063,0.0039 0.167969,-0.08203 0.488281,-0.535157 0.589844,-0.824219 0.78125,0.121093 1.683593,0.230469 2.417969,-0.03516 0.226562,-0.08594 0.410156,-0.128906 0.410156,-0.09375 0,0.03516 -0.164063,0.222657 -0.367188,0.425782 -0.242187,0.242187 -0.363281,0.4375 -0.363281,0.574218 0,0.460938 0.01172,0.464844 1.152344,0.464844 0.765625,0 1.0625,-0.02344 1.085937,-0.09766 v -0.0078 C 21.554688,31.6875 21.582031,31 21.59375,30.207031 c 0.02344,-1.308593 0.03906,-1.460937 0.191406,-1.667969 1.378906,-1.015624 2.996094,-1.5625 4.597656,-1.71875 v 0.25 c 0,0.140626 -0.171874,0.738282 -0.382812,1.328126 l -0.390625,1.070312 -0.429687,0.09766 c -0.488282,0.109375 -0.921876,0.4375 -1.078126,0.816406 -0.1875,0.453126 -0.109374,0.488282 0.976563,0.488282 1.148437,0 1.0625,0.05078 1.671875,-1.023438 0.332031,-0.589844 0.617188,-0.925781 1.574219,-1.878906 l 1.171875,-1.164062 c 1.480468,0.675781 3.421875,1.921874 4.257812,3.332031 0.132813,0.253906 0.101563,0.414062 -0.132812,0.722656 -0.191406,0.246094 -0.199219,0.550781 -0.01563,0.597656 0.324219,0.08203 1.734375,0.07031 1.890625,-0.01563 0.09375,-0.04687 0.171875,-0.167968 0.171875,-0.265625 0,-0.101562 -0.296875,-0.695312 -0.652344,-1.320312 -0.773437,-1.363281 -0.882813,-1.613281 -1.765625,-4.214844 -0.574219,-1.695313 -0.679688,-2.09375 -0.679688,-2.535156 0,-0.917969 0.386719,-1.636719 1.273438,-2.367188 1.039062,-0.824219 0.578125,-2.160156 -0.109375,-2.972656 -0.550781,-0.652344 -0.644531,-0.871094 -0.460937,-1.078125 0.08203,-0.08594 0.25,-0.152344 0.398437,-0.152344 0.429687,0 1.085937,-0.234375 1.820313,-0.65625 0.382812,-0.21875 0.753906,-0.402344 0.824218,-0.402344 0.191406,0 0.433594,-0.292968 0.722656,-0.871093 0.140626,-0.28125 0.257813,-0.527344 0.257813,-0.554688 z m 0,0"
    id="path8" />
 </g>
 <path
   style="display:inline;mix-blend-mode:normal;fill:url(#linearGradient3403);fill-opacity:1;stroke:url(#linearGradient20558);stroke-width:1.16242;stroke-linecap:butt;stroke-linejoin:round;stroke-miterlimit:4;stroke-dasharray:none;stroke-opacity:1"
   d="M 4.7043071,3.9814882 4.6913695,60.80196 H 58.59546 l 1.022155,-2.866369 c 0,0 -23.87537,0.766388 -32.844441,-4.140386 C 16.257548,48.042344 11.401114,4.0978197 11.401114,4.0978197 Z"
   id="path1686"
   transform="matrix(0.49436433,0,0,0.49436433,0.01654534,0.22974379)" />
 <rect
   style="display:inline;fill:none;fill-opacity:1;stroke:url(#linearGradient4557);stroke-width:3.71366;stroke-linejoin:round;stroke-miterlimit:7.8;stroke-dasharray:none;stroke-opacity:0.995146"
   id="rect4539"
   width="62.566689"
   height="62.866646"
   x="1.0323594"
   y="0.59551275"
   ry="6.2447233"
   rx="5.8029528"
   transform="matrix(0.46311198,0,0,0.46216805,1.1555297,1.2320059)" />
</svg>
