<?xml version="1.0" encoding="UTF-8" standalone="no"?>
<!-- Created with Inkscape (http://www.inkscape.org/) -->

<svg
  width="32"
  height="32"
  version="1.1"
  viewBox="0 0 32 32"
  id="svg22"
  xmlns:xlink="http://www.w3.org/1999/xlink"
  xmlns="http://www.w3.org/2000/svg"
  xmlns:svg="http://www.w3.org/2000/svg">
 <defs
   id="defs12">
  <linearGradient
    xlink:href="#linearGradient3487"
    id="linearGradient3403"
    gradientUnits="userSpaceOnUse"
    x1="6.9491749"
    y1="4.5549412"
    x2="11.215498"
    y2="59.052471" />
  <linearGradient
    id="linearGradient3487">
   <stop
     style="stop-color:#32373c;stop-opacity:1"
     offset="0"
     id="stop3481" />
   <stop
     id="stop3483"
     offset="0.36804965"
     style="stop-color:#1a1a1a;stop-opacity:1" />
   <stop
     style="stop-color:#31363b;stop-opacity:1"
     offset="1"
     id="stop3485" />
  </linearGradient>
  <linearGradient
    xlink:href="#linearGradient20604"
    id="linearGradient20558"
    gradientUnits="userSpaceOnUse"
    x1="25.802212"
    y1="20.373846"
    x2="25.111048"
    y2="58.912758" />
  <linearGradient
    id="linearGradient20604">
   <stop
     id="stop20598"
     offset="0"
     style="stop-color:#3d3d3d;stop-opacity:1" />
   <stop
     style="stop-color:#000000;stop-opacity:1"
     offset="0.61772454"
     id="stop20600" />
   <stop
     id="stop20602"
     offset="1"
     style="stop-color:#3d3d3d;stop-opacity:1" />
  </linearGradient>
  <filter
    style="color-interpolation-filters:sRGB"
    id="filter20720"
    x="-0.010581649"
    y="-0.01022887"
    width="1.0211628"
    height="1.0204578">
   <feGaussianBlur
     stdDeviation="9.4737658e-08"
     id="feGaussianBlur20722" />
  </filter>
  <linearGradient
    gradientTransform="translate(0.36067797,-0.13016949)"
    xlink:href="#linearGradient4555"
    id="linearGradient4557"
    x1="43.499737"
    y1="64.011795"
    x2="44.141731"
    y2="0.30621234"
    gradientUnits="userSpaceOnUse" />
  <linearGradient
    id="linearGradient4555">
   <stop
     style="stop-color:#141618;stop-opacity:1"
     offset="0"
     id="stop4551" />
   <stop
     id="stop4559"
     offset="0.51820582"
     style="stop-color:#686868;stop-opacity:1" />
   <stop
     style="stop-color:#31363b;stop-opacity:1"
     offset="1"
     id="stop4553" />
  </linearGradient>
  <filter
    style="color-interpolation-filters:sRGB"
    id="filter4601"
    x="-0.029677617"
    width="1.0593552"
    y="-0.029536016"
    height="1.059072">
   <feGaussianBlur
     stdDeviation="1.012341e-07"
     id="feGaussianBlur4603" />
  </filter>
 </defs>
 <rect
   style="fill:#16a085;fill-opacity:1;stroke-width:0.678632"
   width="27.145348"
   height="27.145348"
   x="3.5473113"
   y="2.0363762"
   rx="0.49511665"
   ry="0.58476192"
   id="rect2" />
 <g
   id="g4"
   transform="matrix(0.61521642,0,0,0.61521642,3.0883928,1.5338918)">
  <path
    style="opacity:0.2;stroke-width:0.820864"
    d="m 11.149413,8.2626993 c -0.909517,0 -1.6417269,0.7322107 -1.6417269,1.6417281 V 39.455534 c 0,0.909517 0.7322099,1.641728 1.6417269,1.641728 h 8.208641 V 18.113068 H 30.850151 V 8.2626993 Z m 21.342466,0 V 41.097262 h 8.208641 c 0.909517,0 1.641728,-0.732211 1.641728,-1.641728 V 9.9044274 c 0,-0.9095174 -0.732211,-1.6417281 -1.641728,-1.6417281 z M 20.999782,19.754796 v 21.342466 h 9.850369 V 19.754796 Z"
    id="path1" />
  <path
    style="fill:#e8fcf8;fill-opacity:1;stroke-width:0.820864"
    d="m 11.149413,7.4418352 c -0.909517,0 -1.6417269,0.7322108 -1.6417269,1.6417281 V 38.63467 c 0,0.909517 0.7322099,1.641728 1.6417269,1.641728 h 8.208641 V 17.292204 H 30.850151 V 7.4418352 Z m 21.342466,0 V 40.276398 h 8.208641 c 0.909517,0 1.641728,-0.732211 1.641728,-1.641728 V 9.0835633 c 0,-0.9095173 -0.732211,-1.6417281 -1.641728,-1.6417281 z M 20.999782,18.933932 v 21.342466 h 9.850369 V 18.933932 Z"
    id="path2" />
  <path
    style="display:inline;opacity:0.2;fill:#ffffff;stroke-width:0.820864"
    d="m 11.149413,7.4418352 c -0.909517,0 -1.6417269,0.7322108 -1.6417269,1.6417281 v 0.8208641 c 0,-0.9095174 0.7322099,-1.6417281 1.6417269,-1.6417281 H 30.850151 V 7.4418352 Z m 21.342466,0 v 0.8208641 h 8.208641 c 0.909517,0 1.641728,0.7322107 1.641728,1.6417281 V 9.0835633 c 0,-0.9095173 -0.732211,-1.6417281 -1.641728,-1.6417281 z M 20.999782,18.933932 v 0.820864 h 9.850369 v -0.820864 z"
    id="path3" />
 </g>
 <path
   style="display:inline;mix-blend-mode:normal;fill:url(#linearGradient3403);fill-opacity:1;stroke:url(#linearGradient20558);stroke-width:1.16242;stroke-linecap:butt;stroke-linejoin:round;stroke-miterlimit:4;stroke-dasharray:none;stroke-opacity:1"
   d="M 4.7043071,3.9814882 4.6913695,60.80196 H 58.59546 l 1.022155,-2.866369 c 0,0 -23.87537,0.766388 -32.844441,-4.140386 C 16.257548,48.042344 11.401114,4.0978197 11.401114,4.0978197 Z"
   id="path1686"
   transform="matrix(0.5,0,0,0.5,0.06630362,0.01654936)" />
 <rect
   style="display:inline;fill:none;fill-opacity:1;stroke:url(#linearGradient4557);stroke-width:3.71366;stroke-linejoin:round;stroke-miterlimit:7.8;stroke-dasharray:none;stroke-opacity:0.995146"
   id="rect4539"
   width="62.566689"
   height="62.866646"
   x="1.0323594"
   y="0.59551275"
   ry="6.2447233"
   rx="5.8029528"
   transform="matrix(0.46839137,0,0,0.46743669,0.90638486,1.0268972)" />
</svg>
