<?xml version="1.0" encoding="UTF-8" standalone="no"?>
<!-- Created with Inkscape (http://www.inkscape.org/) -->

<svg
  width="32"
  height="32"
  version="1.1"
  viewBox="0 0 32 32"
  id="svg22"
  xmlns:xlink="http://www.w3.org/1999/xlink"
  xmlns="http://www.w3.org/2000/svg"
  xmlns:svg="http://www.w3.org/2000/svg">
 <defs
   id="defs12">
  <linearGradient
    xlink:href="#linearGradient3487"
    id="linearGradient3403"
    gradientUnits="userSpaceOnUse"
    x1="6.9491749"
    y1="4.5549412"
    x2="11.215498"
    y2="59.052471" />
  <linearGradient
    id="linearGradient3487">
   <stop
     style="stop-color:#32373c;stop-opacity:1"
     offset="0"
     id="stop3481" />
   <stop
     id="stop3483"
     offset="0.36804965"
     style="stop-color:#1a1a1a;stop-opacity:1" />
   <stop
     style="stop-color:#31363b;stop-opacity:1"
     offset="1"
     id="stop3485" />
  </linearGradient>
  <linearGradient
    xlink:href="#linearGradient20604"
    id="linearGradient20558"
    gradientUnits="userSpaceOnUse"
    x1="25.802212"
    y1="20.373846"
    x2="25.111048"
    y2="58.912758" />
  <linearGradient
    id="linearGradient20604">
   <stop
     id="stop20598"
     offset="0"
     style="stop-color:#3d3d3d;stop-opacity:1" />
   <stop
     style="stop-color:#000000;stop-opacity:1"
     offset="0.61772454"
     id="stop20600" />
   <stop
     id="stop20602"
     offset="1"
     style="stop-color:#3d3d3d;stop-opacity:1" />
  </linearGradient>
  <filter
    style="color-interpolation-filters:sRGB"
    id="filter20720"
    x="-0.010617448"
    y="-0.010263476"
    width="1.0212344"
    height="1.020527">
   <feGaussianBlur
     stdDeviation="0.000819386"
     id="feGaussianBlur20722" />
  </filter>
  <linearGradient
    gradientTransform="translate(0.36067797,-0.13016949)"
    xlink:href="#linearGradient4555"
    id="linearGradient4557"
    x1="43.499737"
    y1="64.011795"
    x2="44.141731"
    y2="0.30621234"
    gradientUnits="userSpaceOnUse" />
  <linearGradient
    id="linearGradient4555">
   <stop
     style="stop-color:#141618;stop-opacity:1"
     offset="0"
     id="stop4551" />
   <stop
     id="stop4559"
     offset="0.51820582"
     style="stop-color:#686868;stop-opacity:1" />
   <stop
     style="stop-color:#31363b;stop-opacity:1"
     offset="1"
     id="stop4553" />
  </linearGradient>
  <filter
    style="color-interpolation-filters:sRGB"
    id="filter4601"
    x="-0.0297112"
    width="1.0594224"
    y="-0.029569438"
    height="1.0591389">
   <feGaussianBlur
     stdDeviation="0.00087557369"
     id="feGaussianBlur4603" />
  </filter>
 </defs>
 <rect
   style="fill:#4f4f4f;fill-opacity:1;stroke-width:0.678632"
   width="27.145348"
   height="27.145348"
   x="3.5473113"
   y="2.0363762"
   rx="0.49511665"
   ry="0.58476192"
   id="rect2" />
 <g
   id="g1"
   transform="matrix(0.75717478,0,0,0.75717479,-3.3409383,-2.2281086)">
  <path
    style="opacity:0.2"
    d="M 29.914826,9.7148946 C 24.265826,22.914895 37.01253,27.05502 45.63553,10.04302 39.166529,15.53202 29.734826,21.582895 29.914826,9.7148946 Z m 0.357422,12.5566414 -0.002,0.0078 c -3.984295,0.01235 -10.062595,4.253388 -18.751906,16.109388 18.523262,-13.74 22.166625,-10.809712 24.515625,0.01172 1.366601,-7.414 -0.03411,-16.138906 -5.761719,-16.128906 z"
    id="path2" />
  <path
    fill="#c0c0c0"
    d="m 30.270532,21.279012 c -3.984342,0.01234 -10.062879,4.254 -18.75219,16.11 18.523262,-13.74 22.166204,-10.81 24.515204,0.01143 1.366601,-7.414 -0.03441,-16.14 -5.762018,-16.13 z"
    id="path4" />
  <path
    fill="#c0c0c0"
    d="m 29.915223,8.7145928 c -5.649,13.2000002 7.097,17.3400002 15.72,0.328 -6.469,5.4890002 -15.9,11.5400002 -15.72,-0.328 z"
    id="path5" />
 </g>
 <path
   style="display:inline;mix-blend-mode:normal;fill:url(#linearGradient3403);fill-opacity:1;stroke:url(#linearGradient20558);stroke-width:1.16242;stroke-linecap:butt;stroke-linejoin:round;stroke-miterlimit:4;stroke-dasharray:none;stroke-opacity:1"
   d="M 4.7043071,3.9814882 4.6913695,60.80196 H 58.59546 l 1.022155,-2.866369 c 0,0 -23.87537,0.766388 -32.844441,-4.140386 C 16.257548,48.042344 11.401114,4.0978197 11.401114,4.0978197 Z"
   id="path1686"
   transform="matrix(0.5,0,0,0.5,0.06630362,0.01654936)" />
 <rect
   style="display:inline;fill:none;fill-opacity:1;stroke:url(#linearGradient4557);stroke-width:3.71366;stroke-linejoin:round;stroke-miterlimit:7.8;stroke-dasharray:none;stroke-opacity:0.995146"
   id="rect4539"
   width="62.566689"
   height="62.866646"
   x="1.0323594"
   y="0.59551275"
   ry="6.2447233"
   rx="5.8029528"
   transform="matrix(0.46839137,0,0,0.46743669,0.90638486,1.0268972)" />
 <circle
   style="display:none;fill:#dc2928"
   cx="-32.350708"
   cy="23.5"
   id="circle2"
   r="20" />
</svg>
