<?xml version="1.0" encoding="UTF-8" standalone="no"?>
<!-- Created with Inkscape (http://www.inkscape.org/) -->

<svg
  width="32"
  height="32"
  version="1.1"
  viewBox="0 0 32 32"
  id="svg22"
  xmlns:xlink="http://www.w3.org/1999/xlink"
  xmlns="http://www.w3.org/2000/svg"
  xmlns:svg="http://www.w3.org/2000/svg">
 <defs
   id="defs12">
  <linearGradient
    xlink:href="#linearGradient3487"
    id="linearGradient3403"
    gradientUnits="userSpaceOnUse"
    x1="6.9491749"
    y1="4.5549412"
    x2="11.215498"
    y2="59.052471" />
  <linearGradient
    id="linearGradient3487">
   <stop
     style="stop-color:#32373c;stop-opacity:1"
     offset="0"
     id="stop3481" />
   <stop
     id="stop3483"
     offset="0.36804965"
     style="stop-color:#1a1a1a;stop-opacity:1" />
   <stop
     style="stop-color:#31363b;stop-opacity:1"
     offset="1"
     id="stop3485" />
  </linearGradient>
  <linearGradient
    xlink:href="#linearGradient20604"
    id="linearGradient20558"
    gradientUnits="userSpaceOnUse"
    x1="25.802212"
    y1="20.373846"
    x2="25.111048"
    y2="58.912758" />
  <linearGradient
    id="linearGradient20604">
   <stop
     id="stop20598"
     offset="0"
     style="stop-color:#3d3d3d;stop-opacity:1" />
   <stop
     style="stop-color:#000000;stop-opacity:1"
     offset="0.61772454"
     id="stop20600" />
   <stop
     id="stop20602"
     offset="1"
     style="stop-color:#3d3d3d;stop-opacity:1" />
  </linearGradient>
  <filter
    style="color-interpolation-filters:sRGB"
    id="filter20720"
    x="-0.010606268"
    y="-0.010252669"
    width="1.0212121"
    height="1.0205054">
   <feGaussianBlur
     stdDeviation="0.00056352475"
     id="feGaussianBlur20722" />
  </filter>
  <linearGradient
    gradientTransform="translate(0.36067797,-0.13016949)"
    xlink:href="#linearGradient4555"
    id="linearGradient4557"
    x1="43.499737"
    y1="64.011795"
    x2="44.141731"
    y2="0.30621234"
    gradientUnits="userSpaceOnUse" />
  <linearGradient
    id="linearGradient4555">
   <stop
     style="stop-color:#141618;stop-opacity:1"
     offset="0"
     id="stop4551" />
   <stop
     id="stop4559"
     offset="0.51820582"
     style="stop-color:#686868;stop-opacity:1" />
   <stop
     style="stop-color:#31363b;stop-opacity:1"
     offset="1"
     id="stop4553" />
  </linearGradient>
  <filter
    style="color-interpolation-filters:sRGB"
    id="filter4601"
    x="-0.029700712"
    width="1.0594014"
    y="-0.029559"
    height="1.059118">
   <feGaussianBlur
     stdDeviation="0.00060216729"
     id="feGaussianBlur4603" />
  </filter>
 </defs>
 <rect
   y="1.7317957"
   x="3.8445313"
   height="27.50642"
   width="26.747194"
   id="rect4539-1"
   style="opacity:1;fill:#191919;fill-opacity:1;stroke:none;stroke-width:0.49563;stroke-linejoin:round;stroke-miterlimit:7.8;stroke-dasharray:none;stroke-opacity:0.995146" />
 <g
   id="g7"
   transform="matrix(0.6137299,0,0,0.6137299,3.1159986,7.981203)">
  <path
    style="fill:none;stroke:#2e9551;stroke-width:4;stroke-linecap:round"
    d="M 13,19 9,13"
    id="path2" />
  <path
    style="fill:none;stroke:#2e9551;stroke-width:4;stroke-linecap:round"
    d="m 35,19 4,-6"
    id="path3" />
  <path
    style="opacity:0.1;fill:#ffffff"
    d="m 8.9785156,10.976562 a 2.0002,2.0002 0 0 0 -1.9296875,2.5 2.0002,2.0002 0 0 1 1.9296875,-1.5 2.0002,2.0002 0 0 1 1.6855464,0.914063 l 4,6 a 2.0002,2.0002 0 0 1 0.289063,0.634766 2.0002,2.0002 0 0 0 -0.289063,-1.634766 l -4,-6 A 2.0002,2.0002 0 0 0 8.9785156,10.976562 Z m 29.9824224,0 a 2.0002,2.0002 0 0 0 -1.625,0.914063 l -4,6 a 2.0002,2.0002 0 0 0 -0.28711,1.632813 2.0002,2.0002 0 0 1 0.28711,-0.632813 l 4,-6 a 2.0002,2.0002 0 0 1 1.625,-0.914063 2.0002,2.0002 0 0 1 1.988281,1.5 2.0002,2.0002 0 0 0 -1.988281,-2.5 z"
    id="path4" />
  <path
    style="fill:#30dd81"
    d="M 42.008786,34 H 5.94193 c 0,0 -2.0307707,0 -1.9389047,-1.924931 C 4.976113,21.932468 13.5596,14 24.004456,14 34.416291,14 42.978506,21.882389 43.99643,31.978935 44.097753,34 42.008786,34 42.008786,34 Z"
    id="path5" />
  <path
    style="opacity:0.2"
    d="m 14,25 a 2,2 0 0 0 -2,2 2,2 0 0 0 2,2 2,2 0 0 0 2,-2 2,2 0 0 0 -2,-2 z m 20,0 a 2,2 0 0 0 -2,2 2,2 0 0 0 2,2 2,2 0 0 0 2,-2 2,2 0 0 0 -2,-2 z"
    id="path6" />
  <circle
    style="fill:#ffffff"
    cx="14"
    cy="26"
    r="2"
    id="circle6" />
  <circle
    style="fill:#ffffff"
    cx="-34"
    cy="26"
    r="2"
    transform="scale(-1,1)"
    id="circle7" />
  <path
    style="opacity:0.2;fill:#ffffff"
    d="M 24.003906,14 C 13.55905,14 4.9769939,21.931618 4.0039062,32.074219 c -0.011131,0.233228 0.010884,0.437052 0.054688,0.617187 C 5.2102424,22.735 13.69245,15 24.003906,15 c 10.287826,0 18.756881,7.699664 19.939453,17.623047 0.04376,-0.188166 0.06493,-0.401378 0.05273,-0.644531 C 42.97817,21.88197 34.415741,14 24.003906,14 Z"
    id="path7" />
 </g>
 <path
   style="display:inline;mix-blend-mode:normal;fill:url(#linearGradient3403);fill-opacity:1;stroke:url(#linearGradient20558);stroke-width:1.16242;stroke-linecap:butt;stroke-linejoin:round;stroke-miterlimit:4;stroke-dasharray:none;stroke-opacity:1"
   d="M 4.7043071,3.9814882 4.6913695,60.80196 H 58.59546 l 1.022155,-2.866369 c 0,0 -23.87537,0.766388 -32.844441,-4.140386 C 16.257548,48.042344 11.401114,4.0978197 11.401114,4.0978197 Z"
   id="path1686"
   transform="matrix(0.5,0,0,0.5,0.06630362,0.01654936)" />
 <rect
   style="display:inline;fill:none;fill-opacity:1;stroke:url(#linearGradient4557);stroke-width:3.71366;stroke-linejoin:round;stroke-miterlimit:7.8;stroke-dasharray:none;stroke-opacity:0.995146"
   id="rect4539"
   width="62.566689"
   height="62.866646"
   x="1.0323594"
   y="0.59551275"
   ry="6.2447233"
   rx="5.8029528"
   transform="matrix(0.46839137,0,0,0.46743669,0.90638486,1.0268972)" />
</svg>
