<?xml version="1.0" encoding="UTF-8" standalone="no"?>
<!-- Created with Inkscape (http://www.inkscape.org/) -->

<svg
  width="32"
  height="32"
  version="1.1"
  viewBox="0 0 32 32"
  id="svg22"
  xmlns:xlink="http://www.w3.org/1999/xlink"
  xmlns="http://www.w3.org/2000/svg"
  xmlns:svg="http://www.w3.org/2000/svg">
 <defs
   id="defs12">
  <linearGradient
    xlink:href="#linearGradient3487"
    id="linearGradient3403"
    gradientUnits="userSpaceOnUse"
    x1="6.9491749"
    y1="4.5549412"
    x2="11.215498"
    y2="59.052471" />
  <linearGradient
    id="linearGradient3487">
   <stop
     style="stop-color:#32373c;stop-opacity:1"
     offset="0"
     id="stop3481" />
   <stop
     id="stop3483"
     offset="0.36804965"
     style="stop-color:#1a1a1a;stop-opacity:1" />
   <stop
     style="stop-color:#31363b;stop-opacity:1"
     offset="1"
     id="stop3485" />
  </linearGradient>
  <linearGradient
    xlink:href="#linearGradient20604"
    id="linearGradient20558"
    gradientUnits="userSpaceOnUse"
    x1="25.802212"
    y1="20.373846"
    x2="25.111048"
    y2="58.912758" />
  <linearGradient
    id="linearGradient20604">
   <stop
     id="stop20598"
     offset="0"
     style="stop-color:#3d3d3d;stop-opacity:1" />
   <stop
     style="stop-color:#000000;stop-opacity:1"
     offset="0.61772454"
     id="stop20600" />
   <stop
     id="stop20602"
     offset="1"
     style="stop-color:#3d3d3d;stop-opacity:1" />
  </linearGradient>
  <filter
    style="color-interpolation-filters:sRGB"
    id="filter20720"
    x="-0.010581673"
    y="-0.010228894"
    width="1.0211629"
    height="1.0204578">
   <feGaussianBlur
     stdDeviation="6.5280167e-07"
     id="feGaussianBlur20722" />
  </filter>
  <linearGradient
    gradientTransform="translate(0.36067797,-0.13016949)"
    xlink:href="#linearGradient4555"
    id="linearGradient4557"
    x1="43.499737"
    y1="64.011795"
    x2="44.141731"
    y2="0.30621234"
    gradientUnits="userSpaceOnUse" />
  <linearGradient
    id="linearGradient4555">
   <stop
     style="stop-color:#141618;stop-opacity:1"
     offset="0"
     id="stop4551" />
   <stop
     id="stop4559"
     offset="0.51820582"
     style="stop-color:#686868;stop-opacity:1" />
   <stop
     style="stop-color:#31363b;stop-opacity:1"
     offset="1"
     id="stop4553" />
  </linearGradient>
  <filter
    style="color-interpolation-filters:sRGB"
    id="filter4601"
    x="-0.02967764"
    width="1.0593553"
    y="-0.029536039"
    height="1.0590721">
   <feGaussianBlur
     stdDeviation="6.9756619e-07"
     id="feGaussianBlur4603" />
  </filter>
 </defs>
 <rect
   style="fill:#f56e2c;fill-opacity:1;stroke-width:0.678632"
   width="27.145348"
   height="27.145348"
   x="3.5473113"
   y="2.0363762"
   rx="0.49511665"
   ry="0.58476192"
   id="rect2" />
 <g
   id="g1"
   transform="matrix(0.77467087,0,0,0.77467087,45.098607,-6.1694335)">
  <path
    opacity="0.2"
    d="m -25.400737,14.514799 c -0.13607,-0.0085 -0.2702,-0.0073 -0.40234,0.0019 -0.88096,0.0622 -1.6968,0.55025 -2.1719,1.373 -0.75742,1.315 -0.30403,2.9859 1.0137,3.7461 1.315,0.7574 2.9887,0.31715 3.7461,-1.002 0.76009,-1.3109 0.32479,-3.0128 -0.99023,-3.7715 -0.3706,-0.21315 -0.78711,-0.3221 -1.1953,-0.34766 z m -7.2168,2.9141 c -1.901,0 -3.6789,0.44903 -5.2734,1.2402 l 1.9102,3.4492 c 1.0288,-0.4804 2.1563,-0.76367 3.3633,-0.76367 4.2016,0 7.6694,3.2151 8.0312,7.3262 l 3.9004,-0.04883 c -0.19444,-3.0297 -1.52,-5.755 -3.5547,-7.7559 -1.0477,0.393 -2.2376,0.33276 -3.2812,-0.27344 -1.0436,-0.6035 -1.7038,-1.6122 -1.8848,-2.7207 -1.018,-0.2795 -2.1052,-0.45312 -3.2109,-0.45312 z m -6.6211,2.0156 c -2.4086,1.608 -4.1824,4.0758 -4.9277,6.957 0.87218,0.7088 1.3965,1.7686 1.3965,2.9824 0,1.2056 -0.52296,2.3048 -1.3965,3.0176 0.74529,2.8798 2.5191,5.3373 4.9277,6.9453 l 2.015,-3.389 c -2.067,-1.4527 -3.4121,-3.8551 -3.4121,-6.5742 10e-7,-2.7219 1.3451,-5.1214 3.4121,-6.5742 z m -7.3867,7.1953 c -1.5216,0 -2.7441,1.2225 -2.7441,2.7441 0,1.5162 1.2225,2.7441 2.7441,2.7441 1.5229,0 2.7578,-1.2279 2.7578,-2.7441 0,-1.5216 -1.2349,-2.7441 -2.7578,-2.7441 z m 22.039,3.4727 c -0.36183,4.1044 -3.8296,7.3262 -8.0312,7.3262 -1.2084,0 -2.3345,-0.27125 -3.3633,-0.75195 l -1.9102,3.4238 c 1.5945,0.7939 3.3725,1.2285 5.2734,1.2285 1.1058,0 2.1929,-0.14759 3.2109,-0.42969 0.18092,-1.1071 0.83978,-2.1126 1.8848,-2.7188 1.0464,-0.6034 2.2336,-0.66197 3.2812,-0.26367 2.0347,-2.0036 3.3601,-4.7235 3.5547,-7.7559 z m -1.2051,8.6738 c -0.39816,0.0339 -0.80006,0.16636 -1.1699,0.38086 -1.3176,0.7548 -1.7711,2.4221 -1.0137,3.7344 0.76015,1.3191 2.4532,1.7613 3.7695,1.0039 1.3166,-0.7588 1.7503,-2.433 0.99023,-3.748 -0.47508,-0.8227 -1.3025,-1.3091 -2.1836,-1.3711 -0.1323,-0.011 -0.25998,-0.011 -0.39258,0 z"
    id="path2" />
  <path
    fill="#ffffff"
    d="m -25.400737,13.514899 c -0.13607,-0.0085 -0.2702,-0.0073 -0.40234,0.002 -0.88096,0.0622 -1.6968,0.55025 -2.1719,1.373 -0.75742,1.315 -0.30403,2.9859 1.0137,3.7461 1.315,0.7574 2.9887,0.31715 3.7461,-1.002 0.76009,-1.3109 0.32479,-3.0128 -0.99023,-3.7715 -0.3706,-0.21315 -0.78711,-0.3221 -1.1953,-0.34766 z m -7.2168,2.9141 c -1.901,0 -3.6789,0.44903 -5.2734,1.2402 l 1.9102,3.4492 c 1.0288,-0.4804 2.1563,-0.76367 3.3633,-0.76367 4.2016,0 7.6694,3.2151 8.0312,7.3262 l 3.9004,-0.04883 c -0.19444,-3.0297 -1.52,-5.755 -3.5547,-7.7559 -1.0477,0.393 -2.2376,0.33276 -3.2812,-0.27344 -1.0436,-0.6035 -1.7038,-1.6122 -1.8848,-2.7207 -1.018,-0.2795 -2.1052,-0.45312 -3.2109,-0.45312 z m -6.6211,2.0156 c -2.4086,1.608 -4.1824,4.0758 -4.9277,6.957 0.87218,0.7088 1.3965,1.7686 1.3965,2.9824 0,1.2056 -0.52296,2.3048 -1.3965,3.0176 0.74529,2.8798 2.5191,5.3373 4.9277,6.9453 l 2.015,-3.389 c -2.067,-1.4527 -3.4121,-3.8551 -3.4121,-6.5742 10e-7,-2.7219 1.3451,-5.1214 3.4121,-6.5742 z m -7.3867,7.1953 c -1.5216,0 -2.7441,1.2225 -2.7441,2.7441 0,1.5162 1.2225,2.7441 2.7441,2.7441 1.5229,0 2.7578,-1.2279 2.7578,-2.7441 0,-1.5216 -1.2349,-2.7441 -2.7578,-2.7441 z m 22.039,3.4727 c -0.36183,4.1044 -3.8296,7.3262 -8.0312,7.3262 -1.2084,0 -2.3345,-0.27125 -3.3633,-0.75195 l -1.9102,3.4238 c 1.5945,0.7939 3.3725,1.2285 5.2734,1.2285 1.1058,0 2.1929,-0.14759 3.2109,-0.42969 0.18092,-1.1071 0.83978,-2.1126 1.8848,-2.7188 1.0464,-0.6034 2.2336,-0.66197 3.2812,-0.26367 2.0347,-2.0036 3.3601,-4.7235 3.5547,-7.7559 z m -1.2051,8.6738 c -0.39816,0.0339 -0.80006,0.16636 -1.1699,0.38086 -1.3176,0.7548 -1.7711,2.4221 -1.0137,3.7344 0.76015,1.3191 2.4532,1.7613 3.7695,1.0039 1.3166,-0.7588 1.7503,-2.433 0.99023,-3.748 -0.47508,-0.8227 -1.3025,-1.3091 -2.1836,-1.3711 -0.1323,-0.011 -0.25998,-0.011 -0.39258,0 z"
    id="path3" />
 </g>
 <path
   style="display:inline;mix-blend-mode:normal;fill:url(#linearGradient3403);fill-opacity:1;stroke:url(#linearGradient20558);stroke-width:1.16242;stroke-linecap:butt;stroke-linejoin:round;stroke-miterlimit:4;stroke-dasharray:none;stroke-opacity:1"
   d="M 4.7043071,3.9814882 4.6913695,60.80196 H 58.59546 l 1.022155,-2.866369 c 0,0 -23.87537,0.766388 -32.844441,-4.140386 C 16.257548,48.042344 11.401114,4.0978197 11.401114,4.0978197 Z"
   id="path1686"
   transform="matrix(0.5,0,0,0.5,0.06630362,0.01654936)" />
 <rect
   style="display:inline;fill:none;fill-opacity:1;stroke:url(#linearGradient4557);stroke-width:3.71366;stroke-linejoin:round;stroke-miterlimit:7.8;stroke-dasharray:none;stroke-opacity:0.995146"
   id="rect4539"
   width="62.566689"
   height="62.866646"
   x="1.0323594"
   y="0.59551275"
   ry="6.2447233"
   rx="5.8029528"
   transform="matrix(0.46839137,0,0,0.46743669,0.90638486,1.0268972)" />
 <circle
   style="display:none;fill:#dc2928"
   cx="-32.350708"
   cy="23.5"
   id="circle2"
   r="20" />
</svg>
