<?xml version="1.0" encoding="UTF-8" standalone="no"?>
<!-- Created with Inkscape (http://www.inkscape.org/) -->

<svg
  width="32"
  height="32"
  version="1.1"
  viewBox="0 0 32 32"
  id="svg22"
  xmlns:xlink="http://www.w3.org/1999/xlink"
  xmlns="http://www.w3.org/2000/svg"
  xmlns:svg="http://www.w3.org/2000/svg">
 <defs
   id="defs12">
  <linearGradient
    xlink:href="#linearGradient3487"
    id="linearGradient3403"
    gradientUnits="userSpaceOnUse"
    x1="6.9491749"
    y1="4.5549412"
    x2="11.215498"
    y2="59.052471" />
  <linearGradient
    id="linearGradient3487">
   <stop
     style="stop-color:#32373c;stop-opacity:1"
     offset="0"
     id="stop3481" />
   <stop
     id="stop3483"
     offset="0.36804965"
     style="stop-color:#1a1a1a;stop-opacity:1" />
   <stop
     style="stop-color:#31363b;stop-opacity:1"
     offset="1"
     id="stop3485" />
  </linearGradient>
  <linearGradient
    xlink:href="#linearGradient20604"
    id="linearGradient20558"
    gradientUnits="userSpaceOnUse"
    x1="25.802212"
    y1="20.373846"
    x2="25.111048"
    y2="58.912758" />
  <linearGradient
    id="linearGradient20604">
   <stop
     id="stop20598"
     offset="0"
     style="stop-color:#3d3d3d;stop-opacity:1" />
   <stop
     style="stop-color:#000000;stop-opacity:1"
     offset="0.61772454"
     id="stop20600" />
   <stop
     id="stop20602"
     offset="1"
     style="stop-color:#3d3d3d;stop-opacity:1" />
  </linearGradient>
  <filter
    style="color-interpolation-filters:sRGB"
    id="filter20720"
    x="-0.010581646"
    y="-0.010228868"
    width="1.0211628"
    height="1.0204578">
   <feGaussianBlur
     stdDeviation="3.7006898e-08"
     id="feGaussianBlur20722" />
  </filter>
  <linearGradient
    gradientTransform="translate(0.36067797,-0.13016949)"
    xlink:href="#linearGradient4555"
    id="linearGradient4557"
    x1="43.499737"
    y1="64.011795"
    x2="44.141731"
    y2="0.30621234"
    gradientUnits="userSpaceOnUse" />
  <linearGradient
    id="linearGradient4555">
   <stop
     style="stop-color:#141618;stop-opacity:1"
     offset="0"
     id="stop4551" />
   <stop
     id="stop4559"
     offset="0.51820582"
     style="stop-color:#686868;stop-opacity:1" />
   <stop
     style="stop-color:#31363b;stop-opacity:1"
     offset="1"
     id="stop4553" />
  </linearGradient>
  <filter
    style="color-interpolation-filters:sRGB"
    id="filter4601"
    x="-0.029677615"
    width="1.0593552"
    y="-0.029536013"
    height="1.059072">
   <feGaussianBlur
     stdDeviation="3.9544569e-08"
     id="feGaussianBlur4603" />
  </filter>
 </defs>
 <rect
   style="fill:#6eaa36;fill-opacity:1;stroke-width:0.678632"
   width="27.145348"
   height="27.145348"
   x="3.5473113"
   y="2.0363762"
   rx="0.49511665"
   ry="0.58476192"
   id="rect2" />
 <g
   id="g1"
   transform="scale(0.665)">
  <path
    opacity="0.2"
    d="m 27.301191,6.2418061 c -6.6076,0 -10.384,2.7054 -12.848,5.7538999 1.8882,0.5179 3.2077,0.94914 3.6328,1.0898 0.0051,-0.2855 0.05078,-2.8574 0.05078,-2.8574 l 0.03711,-0.08203 0.0957,-0.0293 c 0.581,0.084 12.97,1.916 18.188,4.957 0.646,0.38 0.96328,0.77655 1.3633,1.1855 1.442,1.491 3.3575,7.6975 3.5605,8.9805 l -0.08203,0.13281 c -0.07443,0.02753 -0.25658,0.1543 -0.49414,0.31641 -1.2173,0.8513 -4.0639,2.8438 -7.7129,2.5195 -3.2817,-0.2926 -7.5634,-2.175 -12.729,-5.5762 0.2274,0.5363 1.301,3.0855 1.4805,3.5137 l 0.07422,0.08789 c 0.748,0.3864 7.9241,4.0451 11.484,3.9707 2.8731,-0.0571 5.9404,-1.4592 7.168,-2.1953 l 0.39062,-0.07422 c 0.1091,0.08564 0.09219,0.25229 0.05859,0.40625 -0.07544,0.35174 -0.24408,0.99712 -0.36133,1.2969 l -0.0957,0.25 c -0.13968,0.37112 -0.2761,0.72926 -0.53711,0.94336 -0.7239,0.6586 -1.8827,1.1794 -3.6914,1.9727 -2.7974,1.2224 -7.3302,1.9913 -11.543,1.9668 -1.508,-0.03364 -2.9684,-0.1999 -4.25,-0.3457 -2.6742,-0.30485 -4.8466,-0.55027 -6.1445,0.45703 3.1565,3.5674 7.7676,5.8203 12.906,5.8203 9.516,0 17.238,-7.714 17.238,-17.23 0,-9.5153 -7.7218,-17.2299999 -17.238,-17.2299999 h -0.002 z m 4.5547,9.1190999 c -1.3189,0.0198 -2.5601,0.51288 -3.5293,1.4219 -1.0379,0.9614 -1.6355,2.2763 -1.6855,3.6914 -0.0948,2.9169 2.2011,5.3792 5.1191,5.4883 1.4213,0.0459 2.766,-0.46009 3.8008,-1.4297 1.0318,-0.9645 1.6277,-2.2705 1.6797,-3.6836 0.0999,-2.921 -2.196,-5.3833 -5.1191,-5.4883 -0.08851,-0.0029 -0.17773,-0.0013 -0.26562,0 z m -0.14063,1.5625 c 0.12161,-0.0074 0.23796,-0.0046 0.36133,0 2.0381,0.0714 3.6406,1.7801 3.5723,3.8223 -0.0306,0.9829 -0.4491,1.9041 -1.1699,2.5801 -0.7228,0.67087 -1.6624,1.0169 -2.6523,0.98633 -2.0371,-0.0755 -3.6337,-1.791 -3.5664,-3.8301 0.0316,-0.9869 0.45512,-1.8994 1.1719,-2.5723 0.6289,-0.58969 1.4319,-0.93457 2.2832,-0.98633 z m 0.97266,1.8496 c -0.9084,0 -1.6426,0.49204 -1.6426,1.0977 0,0.60153 0.73416,1.0977 1.6426,1.0977 0.90541,0 1.6348,-0.4951 1.6348,-1.0977 0,-0.60561 -0.7294,-1.0977 -1.6348,-1.0977 z"
    id="path2" />
  <path
    fill="#ffffff"
    d="m 27.301191,5.2422061 c -6.608,0 -10.384,2.7054 -12.848,5.7534999 1.888,0.518 3.208,0.95 3.633,1.09 0.005,-0.285 0.051,-2.8569999 0.051,-2.8569999 l 0.037,-0.082 0.095,-0.029 c 0.582,0.084 12.97,1.9159999 18.188,4.9569999 0.646,0.38 0.963,0.776 1.363,1.185 1.442,1.491 3.358,7.698 3.561,8.981 l -0.082,0.132 c -0.075,0.028 -0.257,0.155 -0.494,0.317 -1.218,0.851 -4.064,2.844 -7.713,2.519 -3.282,-0.292 -7.564,-2.175 -12.729,-5.576 0.228,0.536 1.301,3.086 1.481,3.514 l 0.074,0.088 c 0.748,0.386 7.924,4.045 11.484,3.97 2.873,-0.057 5.941,-1.459 7.168,-2.195 l 0.391,-0.074 c 0.109,0.086 0.092,0.252 0.058,0.406 -0.075,0.352 -0.244,0.997 -0.361,1.297 l -0.096,0.25 c -0.139,0.371 -0.276,0.729 -0.537,0.943 -0.724,0.659 -1.882,1.18 -3.691,1.973 -2.797,1.222 -7.33,1.991 -11.543,1.967 -1.508,-0.034 -2.968,-0.2 -4.25,-0.346 -2.674,-0.305 -4.847,-0.55 -6.145,0.457 3.157,3.568 7.768,5.82 12.907,5.82 9.516,0 17.238,-7.714 17.238,-17.23 0,-9.515 -7.722,-17.2299999 -17.238,-17.2299999 z m 4.554,9.1194999 c -1.318,0.019 -2.56,0.513 -3.529,1.422 -1.038,0.961 -1.635,2.276 -1.685,3.691 -0.095,2.917 2.201,5.379 5.119,5.488 1.421,0.046 2.766,-0.46 3.801,-1.429 1.031,-0.965 1.627,-2.271 1.679,-3.684 0.1,-2.921 -2.196,-5.383 -5.119,-5.488 -0.088,-0.003 -0.178,-0.002 -0.266,0 z m -0.14,1.562 c 0.121,-0.007 0.238,-0.004 0.361,0 2.038,0.072 3.641,1.78 3.572,3.822 -0.03,0.983 -0.449,1.905 -1.17,2.581 -0.722,0.67 -1.662,1.016 -2.652,0.986 -2.037,-0.076 -3.634,-1.791 -3.566,-3.83 0.031,-0.987 0.455,-1.9 1.172,-2.572 0.629,-0.59 1.432,-0.935 2.283,-0.987 z m 0.972,1.85 c -0.908,0 -1.642,0.492 -1.642,1.097 0,0.602 0.734,1.098 1.642,1.098 0.906,0 1.635,-0.495 1.635,-1.098 0,-0.605 -0.729,-1.097 -1.635,-1.097 z"
    id="path3" />
 </g>
 <path
   style="display:inline;mix-blend-mode:normal;fill:url(#linearGradient3403);fill-opacity:1;stroke:url(#linearGradient20558);stroke-width:1.16242;stroke-linecap:butt;stroke-linejoin:round;stroke-miterlimit:4;stroke-dasharray:none;stroke-opacity:1"
   d="M 4.7043071,3.9814882 4.6913695,60.80196 H 58.59546 l 1.022155,-2.866369 c 0,0 -23.87537,0.766388 -32.844441,-4.140386 C 16.257548,48.042344 11.401114,4.0978197 11.401114,4.0978197 Z"
   id="path1686"
   transform="matrix(0.5,0,0,0.5,0.06630362,0.01654936)" />
 <rect
   style="display:inline;fill:none;fill-opacity:1;stroke:url(#linearGradient4557);stroke-width:3.71366;stroke-linejoin:round;stroke-miterlimit:7.8;stroke-dasharray:none;stroke-opacity:0.995146"
   id="rect4539"
   width="62.566689"
   height="62.866646"
   x="1.0323594"
   y="0.59551275"
   ry="6.2447233"
   rx="5.8029528"
   transform="matrix(0.46839137,0,0,0.46743669,0.90638486,1.0268972)" />
</svg>
