<?xml version="1.0" encoding="UTF-8" standalone="no"?>
<!-- Created with Inkscape (http://www.inkscape.org/) -->

<svg
   width="32"
   height="32"
   version="1.1"
   viewBox="0 0 32 32"
   id="svg22"
   sodipodi:docname="distributor-logo-deepin.svg"
   inkscape:version="1.1.2 (0a00cf5339, 2022-02-04)"
   xmlns:inkscape="http://www.inkscape.org/namespaces/inkscape"
   xmlns:sodipodi="http://sodipodi.sourceforge.net/DTD/sodipodi-0.dtd"
   xmlns:xlink="http://www.w3.org/1999/xlink"
   xmlns="http://www.w3.org/2000/svg"
   xmlns:svg="http://www.w3.org/2000/svg">
  <sodipodi:namedview
     id="namedview24"
     pagecolor="#ffffff"
     bordercolor="#666666"
     borderopacity="1.0"
     inkscape:showpageshadow="2"
     inkscape:pageopacity="0.0"
     inkscape:pagecheckerboard="0"
     inkscape:deskcolor="#d1d1d1"
     showgrid="false"
     inkscape:zoom="10.4"
     inkscape:cx="-48.365385"
     inkscape:cy="10.721154"
     inkscape:window-width="3440"
     inkscape:window-height="1359"
     inkscape:window-x="0"
     inkscape:window-y="0"
     inkscape:window-maximized="1"
     inkscape:current-layer="svg22"
     inkscape:pageshadow="2" />
  <defs
     id="defs12">
    <linearGradient
       id="linearGradient1005-3-3"
       x1="5.2535"
       x2="9.3823996"
       y1="15.383"
       y2="2.9421"
       gradientTransform="matrix(0.99999,0,0,0.99999,1.632,-0.61743)"
       gradientUnits="userSpaceOnUse">
      <stop
         stop-color="#fa8200"
         offset="0"
         id="stop2" />
      <stop
         stop-color="#ff9600"
         offset=".36953"
         id="stop4" />
      <stop
         stop-color="#ffb400"
         offset="1"
         id="stop6" />
    </linearGradient>
    <filter
       id="filter4014"
       x="-0.062499933"
       y="-0.057692993"
       width="1.1249999"
       height="1.115386"
       color-interpolation-filters="sRGB">
      <feGaussianBlur
         stdDeviation="1.093751"
         id="feGaussianBlur9" />
    </filter>
    <linearGradient
       inkscape:collect="always"
       xlink:href="#linearGradient3487"
       id="linearGradient3403"
       gradientUnits="userSpaceOnUse"
       x1="6.9491749"
       y1="4.5549412"
       x2="11.215498"
       y2="59.052471" />
    <linearGradient
       id="linearGradient3487">
      <stop
         style="stop-color:#32373c;stop-opacity:1"
         offset="0"
         id="stop3481" />
      <stop
         id="stop3483"
         offset="0.36804965"
         style="stop-color:#1a1a1a;stop-opacity:1" />
      <stop
         style="stop-color:#31363b;stop-opacity:1"
         offset="1"
         id="stop3485" />
    </linearGradient>
    <linearGradient
       inkscape:collect="always"
       xlink:href="#linearGradient20604"
       id="linearGradient20558"
       gradientUnits="userSpaceOnUse"
       x1="25.802212"
       y1="20.373846"
       x2="25.111048"
       y2="58.912758" />
    <linearGradient
       id="linearGradient20604">
      <stop
         id="stop20598"
         offset="0"
         style="stop-color:#3d3d3d;stop-opacity:1" />
      <stop
         style="stop-color:#000000;stop-opacity:1"
         offset="0.61772454"
         id="stop20600" />
      <stop
         id="stop20602"
         offset="1"
         style="stop-color:#3d3d3d;stop-opacity:1" />
    </linearGradient>
    <filter
       inkscape:collect="always"
       style="color-interpolation-filters:sRGB"
       id="filter20720"
       x="-0.017024755"
       y="-0.016457183"
       width="1.0340491"
       height="1.0329144">
      <feGaussianBlur
         inkscape:collect="always"
         stdDeviation="0.14745661"
         id="feGaussianBlur20722" />
    </filter>
    <linearGradient
       gradientTransform="translate(0.36067797,-0.13016949)"
       xlink:href="#linearGradient4555"
       id="linearGradient4557"
       x1="43.499737"
       y1="64.011795"
       x2="44.141731"
       y2="0.30621234"
       gradientUnits="userSpaceOnUse" />
    <linearGradient
       id="linearGradient4555">
      <stop
         style="stop-color:#141618;stop-opacity:1"
         offset="0"
         id="stop4551" />
      <stop
         id="stop4559"
         offset="0.51820582"
         style="stop-color:#686868;stop-opacity:1" />
      <stop
         style="stop-color:#31363b;stop-opacity:1"
         offset="1"
         id="stop4553" />
    </linearGradient>
    <filter
       style="color-interpolation-filters:sRGB"
       id="filter4601"
       x="-0.030244955"
       width="1.0604899"
       y="-0.030100647"
       height="1.0602013">
      <feGaussianBlur
         stdDeviation="0.014790289"
         id="feGaussianBlur4603" />
    </filter>
  </defs>
  <rect
     style="display:inline;fill:#3485fd;fill-opacity:1;fill-rule:evenodd;stroke:none;stroke-width:0.610435;stroke-linejoin:round;stroke-miterlimit:7.8"
     id="rect1192"
     width="27.688469"
     height="28.10132"
     x="2.339998"
     y="2.2023547"
     ry="0"
     inkscape:label="arriere" />
  <path
     style="fill:#f5f5f5;fill-opacity:1;fill-rule:evenodd;stroke:none;stroke-width:0.694669"
     d="m 12.555401,28.416978 c -0.816776,-0.301203 -1.579281,-0.681099 -2.29837,-1.115266 3.573739,0.276782 8.235603,-0.548136 11.380602,-3.49233 0,0 5.994218,-4.789405 1.657973,-12.65054 0,0 0.700097,3.169418 -0.192655,5.77442 0,0 -0.849345,3.665998 -4.62931,4.694431 C 12.91088,23.144563 6.5693277,19.128519 3.9181939,17.239892 3.7173925,15.302422 3.8937852,13.297114 4.607437,11.340649 5.6602906,8.4425842 7.822983,6.1822033 10.243461,4.665332 c -0.6051197,4.2331277 -0.127532,8.129777 0.558996,9.76333 0.925315,2.189828 2.347209,4.86267 5.475931,5.191009 3.128714,0.328339 4.854526,-2.721685 4.854526,-2.721685 1.606419,-2.439476 1.856066,-5.942659 1.831644,-6.02678 -0.02441,-0.08412 -0.426027,-0.317485 -0.426027,-0.317485 -1.082707,4.371519 -2.862789,5.834119 -2.862789,5.834119 -2.808519,2.71083 -5.03905,0.770646 -5.03905,0.770646 -2.138277,-2.298371 -0.643112,-6.029493 -0.643112,-6.029493 0.83849,-2.5425906 3.51947,-6.2058739 6.287282,-8.0972132 0.458588,0.1139678 0.922606,0.1845198 1.378479,0.3500463 1.674257,0.6105474 3.139568,1.5304391 4.379661,2.6592731 -2.024306,0.7407967 -5.288698,2.3010845 -5.288698,2.3010845 -5.174729,2.1789753 -5.524777,5.4759303 -5.524777,5.4759303 -0.534566,3.397356 2.159984,1.959179 2.159984,1.959179 2.775957,-1.351345 4.138152,-5.562765 4.138152,-5.562765 -0.865621,-0.165526 -1.546719,0.09769 -1.546719,0.09769 -1.107123,2.732538 -3.367508,3.858659 -3.367508,3.858659 -0.890044,0.469443 -1.096269,-0.360902 -1.096269,-0.360902 -0.149247,-0.624114 0.643112,-0.729942 0.643112,-0.729942 1.231947,-0.477584 2.018875,-1.771944 2.197969,-2.301086 0.176379,-0.529141 0.507427,-0.572557 0.507427,-0.572557 3.079875,-2.0053086 7.904556,-0.6268289 10.550259,0.64311 1.174969,2.936054 1.359486,6.40125 0.195377,9.605944 -2.510025,6.911395 -10.145939,10.476991 -17.05191,7.961536 z m 0,0"
     id="path3161" />
  <path
     style="display:inline;mix-blend-mode:normal;fill:url(#linearGradient3403);fill-opacity:1;stroke:url(#linearGradient20558);stroke-width:1.16242;stroke-linecap:butt;stroke-linejoin:round;stroke-miterlimit:4;stroke-dasharray:none;stroke-opacity:1;filter:url(#filter20720)"
     d="M 4.7043071,3.9814882 4.6913695,60.80196 H 58.59546 l 1.022155,-2.866369 c 0,0 -23.87537,0.766388 -32.844441,-4.140386 C 16.257548,48.042344 11.401114,4.0978197 11.401114,4.0978197 Z"
     id="path1686"
     sodipodi:nodetypes="ccccscc"
     transform="matrix(0.49467969,0,0,0.49467969,0.32464147,0.2327911)"
     inkscape:label="folder" />
  <rect
     style="display:inline;fill:none;fill-opacity:1;stroke:url(#linearGradient4557);stroke-width:3.71366;stroke-linejoin:round;stroke-miterlimit:7.8;stroke-dasharray:none;stroke-opacity:0.995146;filter:url(#filter4601)"
     id="rect4539"
     width="62.566689"
     height="62.866646"
     x="1.0323594"
     y="0.59551275"
     ry="6.2447233"
     rx="5.8029528"
     transform="matrix(0.4634074,0,0,0.46246287,1.1557837,1.2323882)"
     inkscape:label="contour" />
</svg>
