<?xml version="1.0" encoding="UTF-8" standalone="no"?>
<!-- Created with Inkscape (http://www.inkscape.org/) -->

<svg
   width="32"
   height="32"
   version="1.1"
   viewBox="0 0 32 32"
   id="svg22"
   sodipodi:docname="distributor-logo-opensuse.svg"
   inkscape:version="1.1.2 (0a00cf5339, 2022-02-04)"
   xmlns:inkscape="http://www.inkscape.org/namespaces/inkscape"
   xmlns:sodipodi="http://sodipodi.sourceforge.net/DTD/sodipodi-0.dtd"
   xmlns:xlink="http://www.w3.org/1999/xlink"
   xmlns="http://www.w3.org/2000/svg"
   xmlns:svg="http://www.w3.org/2000/svg">
  <sodipodi:namedview
     id="namedview24"
     pagecolor="#ffffff"
     bordercolor="#666666"
     borderopacity="1.0"
     inkscape:showpageshadow="2"
     inkscape:pageopacity="0.0"
     inkscape:pagecheckerboard="0"
     inkscape:deskcolor="#d1d1d1"
     showgrid="false"
     inkscape:zoom="10.4"
     inkscape:cx="-21.634615"
     inkscape:cy="11.971154"
     inkscape:window-width="3440"
     inkscape:window-height="1359"
     inkscape:window-x="0"
     inkscape:window-y="0"
     inkscape:window-maximized="1"
     inkscape:current-layer="svg22"
     inkscape:pageshadow="2" />
  <defs
     id="defs12">
    <linearGradient
       id="linearGradient1005-3-3"
       x1="5.2535"
       x2="9.3823996"
       y1="15.383"
       y2="2.9421"
       gradientTransform="matrix(0.99999,0,0,0.99999,1.632,-0.61743)"
       gradientUnits="userSpaceOnUse">
      <stop
         stop-color="#fa8200"
         offset="0"
         id="stop2" />
      <stop
         stop-color="#ff9600"
         offset=".36953"
         id="stop4" />
      <stop
         stop-color="#ffb400"
         offset="1"
         id="stop6" />
    </linearGradient>
    <filter
       id="filter4014"
       x="-0.062499933"
       y="-0.057692993"
       width="1.1249999"
       height="1.115386"
       color-interpolation-filters="sRGB">
      <feGaussianBlur
         stdDeviation="1.093751"
         id="feGaussianBlur9" />
    </filter>
    <linearGradient
       inkscape:collect="always"
       xlink:href="#linearGradient3487"
       id="linearGradient3403"
       gradientUnits="userSpaceOnUse"
       x1="6.9491749"
       y1="4.5549412"
       x2="11.215498"
       y2="59.052471" />
    <linearGradient
       id="linearGradient3487">
      <stop
         style="stop-color:#32373c;stop-opacity:1"
         offset="0"
         id="stop3481" />
      <stop
         id="stop3483"
         offset="0.36804965"
         style="stop-color:#1a1a1a;stop-opacity:1" />
      <stop
         style="stop-color:#31363b;stop-opacity:1"
         offset="1"
         id="stop3485" />
    </linearGradient>
    <linearGradient
       inkscape:collect="always"
       xlink:href="#linearGradient20604"
       id="linearGradient20558"
       gradientUnits="userSpaceOnUse"
       x1="25.802212"
       y1="20.373846"
       x2="25.111048"
       y2="58.912758" />
    <linearGradient
       id="linearGradient20604">
      <stop
         id="stop20598"
         offset="0"
         style="stop-color:#3d3d3d;stop-opacity:1" />
      <stop
         style="stop-color:#000000;stop-opacity:1"
         offset="0.61772454"
         id="stop20600" />
      <stop
         id="stop20602"
         offset="1"
         style="stop-color:#3d3d3d;stop-opacity:1" />
    </linearGradient>
    <filter
       inkscape:collect="always"
       style="color-interpolation-filters:sRGB"
       id="filter20720"
       x="-0.017024755"
       y="-0.016457183"
       width="1.0340491"
       height="1.0329144">
      <feGaussianBlur
         inkscape:collect="always"
         stdDeviation="0.14745661"
         id="feGaussianBlur20722" />
    </filter>
    <linearGradient
       gradientTransform="translate(0.36067797,-0.13016949)"
       xlink:href="#linearGradient4555"
       id="linearGradient4557"
       x1="43.499737"
       y1="64.011795"
       x2="44.141731"
       y2="0.30621234"
       gradientUnits="userSpaceOnUse" />
    <linearGradient
       id="linearGradient4555">
      <stop
         style="stop-color:#141618;stop-opacity:1"
         offset="0"
         id="stop4551" />
      <stop
         id="stop4559"
         offset="0.51820582"
         style="stop-color:#686868;stop-opacity:1" />
      <stop
         style="stop-color:#31363b;stop-opacity:1"
         offset="1"
         id="stop4553" />
    </linearGradient>
    <filter
       style="color-interpolation-filters:sRGB"
       id="filter4601"
       x="-0.030244955"
       width="1.0604899"
       y="-0.030100647"
       height="1.0602013">
      <feGaussianBlur
         stdDeviation="0.014790289"
         id="feGaussianBlur4603" />
    </filter>
  </defs>
  <rect
     style="display:inline;fill:#f5f5f5;fill-opacity:1;fill-rule:evenodd;stroke:none;stroke-width:0.611178;stroke-linejoin:round;stroke-miterlimit:7.8"
     id="rect1192"
     width="27.722155"
     height="28.135509"
     x="2.3419235"
     y="2.2042644"
     ry="0"
     inkscape:label="arriere" />
  <g
     id="surface1"
     transform="matrix(0.63318526,0,0,0.63318526,2.0971033,1.4350651)">
    <path
       style="fill:#00a489;fill-opacity:1;fill-rule:nonzero;stroke:none"
       d="m 23.8125,4.960938 c 10.410156,0 18.851562,8.441406 18.851562,18.851562 0,10.410156 -8.441406,18.851562 -18.851562,18.851562 -10.410156,0 -18.851562,-8.441406 -18.851562,-18.851562 0,-10.410156 8.441406,-18.851562 18.851562,-18.851562 z m 0,0"
       id="path4287" />
    <path
       style="fill:#f5f5f5;fill-opacity:1;fill-rule:nonzero;stroke:none"
       d="M 23.859375,1.964844 C 16.457031,1.945312 9.257812,5.710938 5.152344,12.488281 c -0.035156,0.05859 -0.074219,0.117188 -0.109375,0.179688 -0.00781,0.01172 -0.015625,0.02344 -0.023438,0.03906 -0.035156,0.0625 -0.074219,0.128907 -0.109375,0.191407 -0.042968,0.07422 -0.085937,0.152343 -0.128906,0.226562 -0.015625,0.02344 -0.027344,0.05078 -0.042969,0.07422 -0.027343,0.05078 -0.058593,0.105469 -0.085937,0.15625 -0.015625,0.02734 -0.03125,0.05469 -0.042969,0.08203 -0.03125,0.05078 -0.058594,0.101562 -0.082031,0.152344 -0.015625,0.02734 -0.03125,0.05469 -0.042969,0.07813 -0.03125,0.05859 -0.058594,0.113281 -0.089844,0.171875 -0.00781,0.01953 -0.019531,0.04297 -0.03125,0.0625 -0.039062,0.07813 -0.078125,0.152344 -0.117187,0.230468 -0.00781,0.01563 -0.011719,0.02734 -0.019532,0.04297 -0.03125,0.0625 -0.0625,0.125 -0.09375,0.1875 -0.011718,0.02734 -0.023437,0.05469 -0.039062,0.08203 -0.023438,0.05078 -0.046875,0.105469 -0.074219,0.15625 -0.011719,0.02734 -0.023437,0.05469 -0.035156,0.07813 -0.023437,0.05469 -0.046875,0.105468 -0.070313,0.15625 -0.015624,0.03125 -0.027343,0.05859 -0.039062,0.08594 -0.027344,0.05859 -0.050781,0.113281 -0.078125,0.171875 -0.00781,0.01953 -0.015625,0.04297 -0.027344,0.0625 -0.03125,0.07422 -0.066406,0.152344 -0.097656,0.230469 -0.00781,0.02344 -0.019531,0.04687 -0.03125,0.07422 -0.023437,0.05469 -0.042969,0.109374 -0.066406,0.160156 -0.011719,0.03125 -0.023438,0.05859 -0.035157,0.08594 -0.019531,0.05469 -0.039062,0.105469 -0.0625,0.15625 -0.011718,0.03125 -0.023437,0.05859 -0.03125,0.08984 -0.023437,0.05078 -0.042968,0.101563 -0.0625,0.152344 -0.00781,0.02734 -0.019531,0.05469 -0.03125,0.08594 -0.023437,0.06641 -0.050781,0.132813 -0.074218,0.199219 -0.00391,0.01172 -0.00781,0.02344 -0.011719,0.03516 0,0 0,0.0039 0,0.0039 -0.03125,0.07812 -0.058594,0.15625 -0.085937,0.234374 -0.00781,0.02344 -0.015626,0.04688 -0.023438,0.07422 C 3.136719,16.789062 3.117188,16.84375 3.101562,16.898438 3.089844,16.929688 3.078125,16.964844 3.066406,17 3.050781,17.046875 3.035156,17.09375 3.019531,17.140625 3.011719,17.171875 3,17.203125 2.992188,17.234375 2.972656,17.289062 2.953125,17.347656 2.9375,17.402344 c -0.00781,0.02344 -0.015625,0.04687 -0.023438,0.07031 -0.023437,0.07813 -0.046874,0.15625 -0.070312,0.234375 0,0.0039 0,0.0039 0,0.0039 -0.00391,0.01562 -0.00781,0.03125 -0.011719,0.04687 -0.019531,0.0625 -0.039062,0.128907 -0.054687,0.191407 -0.011719,0.03125 -0.019532,0.05859 -0.027344,0.08594 -0.011719,0.05469 -0.027344,0.105469 -0.042969,0.160156 -0.00781,0.03125 -0.015625,0.0625 -0.023437,0.09375 -0.011719,0.04688 -0.023438,0.09375 -0.039063,0.144532 -0.00781,0.03125 -0.015625,0.06641 -0.023437,0.101562 -0.015625,0.05078 -0.027344,0.101563 -0.039063,0.15625 -0.00781,0.02734 -0.015625,0.05469 -0.019531,0.08203 -0.019531,0.07812 -0.039062,0.15625 -0.054688,0.234374 -0.00781,0.02734 -0.011718,0.05469 -0.019531,0.07813 -0.011719,0.05469 -0.023437,0.109374 -0.035156,0.160156 -0.00781,0.03516 -0.015625,0.07031 -0.023437,0.105468 -0.00781,0.04688 -0.019532,0.09375 -0.027344,0.136719 -0.00781,0.03516 -0.015625,0.07031 -0.019532,0.109375 -0.011718,0.04687 -0.019531,0.09375 -0.027343,0.140625 -0.00781,0.03516 -0.015625,0.07031 -0.023438,0.105469 -0.00781,0.05078 -0.015625,0.101562 -0.027343,0.15625 -0.00391,0.02734 -0.00781,0.05469 -0.015626,0.08203 -0.011718,0.07813 -0.027343,0.15625 -0.039062,0.234375 -0.00391,0.03125 -0.00781,0.05859 -0.011719,0.08594 -0.00781,0.05078 -0.015625,0.101562 -0.023437,0.152344 -0.00781,0.03516 -0.011719,0.07422 -0.019532,0.109374 -0.00391,0.04297 -0.011718,0.08984 -0.019531,0.136719 -0.00391,0.03516 -0.00781,0.07422 -0.015625,0.109375 -0.00391,0.04298 -0.011718,0.08985 -0.015625,0.13282 -0.00391,0.03906 -0.00781,0.07422 -0.015625,0.109375 -0.00781,0.07031 -0.015625,0.136718 -0.023437,0.207031 0,0.0078 0,0.01953 -0.00391,0.02734 0,0.01563 -0.00391,0.03125 -0.00391,0.04297 -0.00781,0.06641 -0.015625,0.132812 -0.019531,0.195312 -0.00391,0.03516 -0.00781,0.06641 -0.011719,0.101562 -0.00391,0.04688 -0.00781,0.09375 -0.011718,0.144532 -0.00391,0.03516 -0.00781,0.07031 -0.011719,0.105468 -0.00391,0.04688 -0.00781,0.09375 -0.011719,0.136719 0,0.03516 -0.00391,0.07031 -0.00781,0.109375 -0.00391,0.04687 -0.00391,0.09766 -0.00781,0.148438 -0.00391,0.03125 -0.00391,0.0625 -0.00781,0.09375 -0.00391,0.07422 -0.00781,0.152344 -0.011718,0.230468 -0.00391,0.03125 -0.00391,0.0625 -0.00391,0.09375 -0.00391,0.05078 -0.00781,0.101563 -0.00781,0.148438 -0.00391,0.03906 -0.00391,0.07422 -0.00391,0.109375 -0.00391,0.04687 -0.00391,0.08984 -0.00391,0.132813 -0.00391,0.03906 -0.00391,0.07812 -0.00391,0.113281 0,0.04687 -0.00391,0.08984 -0.00391,0.132812 0,0.03906 0,0.07422 0,0.113281 0,0.04297 -0.00391,0.08984 -0.00391,0.136719 0,0.03516 0,0.07031 0,0.105469 0,0.07422 0,0.148438 0,0.222656 0,0.04297 0.00391,0.08203 0.00391,0.125 0,0.03906 0,0.07422 0,0.113282 0,0.04297 0.00391,0.08594 0.00391,0.128906 0,0.03906 0,0.07422 0.00391,0.109375 0,0.04687 0,0.08984 0.00391,0.136719 0,0.03125 0.00391,0.06641 0.00391,0.101562 0,0.04297 0.00391,0.08984 0.00391,0.136719 0.00391,0.03125 0.00391,0.0625 0.00781,0.09375 0.00391,0.08984 0.00781,0.179687 0.015625,0.269531 0,0.03125 0.00391,0.05859 0.00391,0.08984 0.00391,0.04297 0.00781,0.08594 0.011719,0.132812 0,0.03516 0.00391,0.07031 0.00781,0.105469 0.00391,0.04687 0.00781,0.09375 0.011719,0.136719 0,0.03125 0.00391,0.0625 0.00781,0.09375 0.00391,0.04687 0.00781,0.09375 0.011718,0.144531 0.00391,0.02734 0.00781,0.05859 0.00781,0.08984 0.00781,0.05078 0.011719,0.09766 0.015625,0.148437 0.00391,0.0078 0.00391,0.01953 0.00391,0.02734 0.011719,0.109375 0.027344,0.222656 0.039062,0.332031 0.00391,0.02734 0.00781,0.05469 0.011719,0.08203 0.00391,0.05078 0.011719,0.101563 0.019531,0.148438 0.00391,0.02734 0.00781,0.05469 0.011719,0.08203 0.00781,0.05469 0.011719,0.105469 0.019531,0.15625 0.00391,0.02344 0.00781,0.04687 0.011719,0.07031 0.00781,0.05469 0.015625,0.109375 0.023438,0.160156 0.00391,0.01953 0.00781,0.03906 0.011719,0.05859 0.027343,0.183594 0.058593,0.363281 0.09375,0.542968 0.00391,0.02344 0.00781,0.04297 0.011718,0.0625 0.011719,0.05469 0.019532,0.105469 0.03125,0.160157 0.00391,0.02344 0.00781,0.04687 0.011719,0.06641 0.011719,0.05469 0.023437,0.105469 0.035156,0.160156 0.00391,0.02344 0.00781,0.04687 0.011719,0.06641 0.011719,0.05469 0.023438,0.109374 0.035156,0.164062 0.00391,0.01172 0.00781,0.02734 0.011719,0.03906 0.039063,0.1875 0.085937,0.378907 0.132813,0.566407 0,0.01172 0.00391,0.02734 0.00781,0.03906 0.015625,0.05859 0.027344,0.113281 0.042969,0.167969 0.00781,0.01953 0.011719,0.03906 0.015625,0.0625 0.015625,0.05078 0.03125,0.105469 0.042968,0.160156 0.00391,0.01563 0.011719,0.03516 0.015626,0.05469 0.070312,0.253906 0.144531,0.507812 0.222656,0.761718 0.00781,0.01563 0.011718,0.02734 0.015625,0.04297 0.015625,0.05859 0.035156,0.113281 0.054687,0.171875 0.00391,0.01172 0.00781,0.02734 0.015625,0.04297 0.019531,0.05859 0.035157,0.117187 0.058594,0.175781 0,0.0078 0.00391,0.01563 0.00391,0.01953 0.070313,0.199218 0.136719,0.398437 0.210938,0.597656 0.023437,0.0625 0.046875,0.121094 0.070312,0.183594 0.00391,0.01172 0.00781,0.01953 0.011719,0.02734 0.023438,0.0625 0.046875,0.121094 0.070312,0.183594 0.00391,0.0078 0.00391,0.01172 0.00781,0.01953 0.023437,0.0625 0.050781,0.125 0.074219,0.1875 0.082031,0.199219 0.164062,0.398438 0.25,0.597656 0.00391,0 0.00391,0 0.00391,0 0.027344,0.0625 0.054688,0.125 0.082031,0.1875 0.00391,0.0078 0.00391,0.01172 0.00781,0.01953 0.027344,0.0625 0.058594,0.125 0.085937,0.1875 0.121094,0.261718 0.25,0.523437 0.378907,0.777344 0,0 0,0 0.00391,0.0039 0.03125,0.0625 0.0625,0.125 0.09375,0.1875 0.00391,0 0.00391,0.0039 0.00781,0.0078 0.03125,0.0625 0.066406,0.125 0.097656,0.1875 0.136719,0.25 0.273438,0.496094 0.417969,0.742188 0.00391,0.0078 0.011719,0.01563 0.015625,0.01953 0.035156,0.05859 0.070313,0.121094 0.105469,0.179687 0,0 0,0.0039 0,0.0039 0.1875,0.308593 0.382813,0.613281 0.585937,0.914062 0.042969,0.0625 0.082032,0.121094 0.125,0.179688 0.203126,0.300781 0.417969,0.59375 0.636719,0.878906 0.00391,0.0039 0.00781,0.0078 0.011719,0.01172 0.21875,0.289062 0.449219,0.574218 0.6875,0.851562 0.046875,0.05469 0.09375,0.109375 0.140625,0.164063 0,0.0039 0.00391,0.0039 0.00391,0.0039 0.238281,0.277344 0.488281,0.550781 0.742188,0.816406 0.00391,0 0.00391,0 0.00391,0 1.394531,1.449219 3.015625,2.730469 4.851563,3.789063 10.472656,6.046875 23.769531,2.484375 29.816406,-7.988282 6.046864,-10.4726 2.484364,-23.769475 -7.988293,-29.81635 C 31.289062,2.925781 27.550781,1.976562 23.859375,1.964844 Z M 23.8125,4.960938 c 10.445312,0 18.851562,8.40625 18.851562,18.851562 0,10.445312 -8.40625,18.851562 -18.851562,18.851562 -5.65625,0 -10.710938,-2.464843 -14.160156,-6.382812 1.351562,-0.742188 3.421875,-0.507812 5.921875,-0.226562 1.3125,0.152343 2.804687,0.324218 4.351562,0.359374 4.320313,0.02734 8.96875,-0.769531 11.835938,-2.023437 1.855469,-0.804687 3.039062,-1.34375 3.78125,-2.015625 0.265625,-0.222656 0.402343,-0.582031 0.546875,-0.96875 l 0.101562,-0.253906 c 0.121094,-0.3125 0.296875,-0.972656 0.375,-1.332032 0.03125,-0.160156 0.04687,-0.328124 -0.06641,-0.417968 l -0.394531,0.07422 c -1.257813,0.757813 -4.40625,2.191407 -7.347657,2.253907 -3.652343,0.07422 -11.003906,-3.671875 -11.773437,-4.070313 l -0.07422,-0.08594 c -0.179687,-0.441407 -1.28125,-3.050781 -1.519531,-3.601563 5.296875,3.488282 9.6875,5.414063 13.046875,5.710938 3.742188,0.335937 6.660156,-1.707032 7.90625,-2.582032 0.246094,-0.160156 0.429688,-0.296874 0.503906,-0.328124 l 0.08203,-0.125 c -0.207032,-1.3125 -2.164063,-7.675782 -3.644532,-9.203126 -0.40625,-0.417968 -0.734375,-0.828124 -1.394531,-1.214843 -5.351563,-3.117188 -18.042969,-5 -18.640625,-5.085938 l -0.101562,0.02734 -0.03516,0.08984 c 0,0 -0.05078,2.632812 -0.05859,2.925781 -0.496094,-0.167969 -2.191407,-0.71875 -4.589844,-1.351562 3.414062,-4.773438 9.003906,-7.875 15.347656,-7.875 z m 3.496094,11.554687 c 0.04687,0 0.08984,0 0.136718,0 2.992188,0.109375 5.34375,2.636719 5.242188,5.625 -0.05859,1.449219 -0.664062,2.796875 -1.722656,3.777344 -1.0625,0.996093 -2.441406,1.511719 -3.898438,1.460937 -2.988281,-0.109375 -5.339844,-2.628906 -5.238281,-5.621094 0.05469,-1.449218 0.660156,-2.796874 1.722656,-3.785156 1.027344,-0.957031 2.355469,-1.46875 3.757813,-1.457031 z m -0.09766,1.597656 C 26.265625,18.125 25.375,18.480469 24.6875,19.128906 c -0.738281,0.691406 -1.171875,1.625 -1.199219,2.636719 -0.07422,2.089844 1.566407,3.851563 3.652344,3.925781 1.011719,0.03125 1.980469,-0.328125 2.71875,-1.015625 0.742187,-0.695312 1.164063,-1.628906 1.199219,-2.636719 0.07031,-2.089843 -1.566406,-3.847656 -3.660156,-3.921874 -0.03125,0 -0.0625,0 -0.09375,-0.0039 -0.03125,0 -0.0625,0 -0.09375,0 z m 0.808593,1.90625 c 0.929688,0 1.679688,0.5 1.679688,1.121094 0,0.617187 -0.75,1.117187 -1.679688,1.117187 -0.929687,0 -1.679687,-0.5 -1.679687,-1.117187 0,-0.621094 0.75,-1.121094 1.679687,-1.121094 z m 0,0"
       id="path4289" />
    <path
       style="fill:#00a489;fill-opacity:1;fill-rule:nonzero;stroke:none"
       d="m 23.8125,1.984375 c -12.09375,0 -21.828125,9.734375 -21.828125,21.828125 0,12.09375 9.734375,21.828125 21.828125,21.828125 12.09375,0 21.828125,-9.734375 21.828125,-21.828125 0,-12.09375 -9.734375,-21.828125 -21.828125,-21.828125 z m 0,0.992187 c 11.542969,0 20.835938,9.292969 20.835938,20.835938 0,11.542969 -9.292969,20.835938 -20.835938,20.835938 -11.542969,0 -20.835938,-9.292969 -20.835938,-20.835938 0,-11.542969 9.292969,-20.835938 20.835938,-20.835938 z m 0,0"
       id="path4291" />
  </g>
  <path
     style="display:inline;mix-blend-mode:normal;fill:url(#linearGradient3403);fill-opacity:1;stroke:url(#linearGradient20558);stroke-width:1.16242;stroke-linecap:butt;stroke-linejoin:round;stroke-miterlimit:4;stroke-dasharray:none;stroke-opacity:1;filter:url(#filter20720)"
     d="M 4.7043071,3.9814882 4.6913695,60.80196 H 58.59546 l 1.022155,-2.866369 c 0,0 -23.87537,0.766388 -32.844441,-4.140386 C 16.257548,48.042344 11.401114,4.0978197 11.401114,4.0978197 Z"
     id="path1686"
     sodipodi:nodetypes="ccccscc"
     transform="matrix(0.49528152,0,0,0.49528152,0.32411514,0.23230462)"
     inkscape:label="folder" />
  <rect
     style="display:inline;fill:none;fill-opacity:1;stroke:url(#linearGradient4557);stroke-width:3.71366;stroke-linejoin:round;stroke-miterlimit:7.8;stroke-dasharray:none;stroke-opacity:0.995146;filter:url(#filter4601)"
     id="rect4539"
     width="62.566689"
     height="62.866646"
     x="1.0323594"
     y="0.59551275"
     ry="6.2447233"
     rx="5.8029528"
     transform="matrix(0.46397118,0,0,0.4630255,1.1562685,1.2331178)"
     inkscape:label="contour" />
</svg>
