<?xml version="1.0" encoding="UTF-8" standalone="no"?>
<!-- Created with Inkscape (http://www.inkscape.org/) -->

<svg
  width="32"
  height="32"
  version="1.1"
  viewBox="0 0 32 32"
  id="svg22"
  xmlns:xlink="http://www.w3.org/1999/xlink"
  xmlns="http://www.w3.org/2000/svg"
  xmlns:svg="http://www.w3.org/2000/svg">
 <defs
   id="defs12">
  <linearGradient
    xlink:href="#linearGradient3487"
    id="linearGradient3403"
    gradientUnits="userSpaceOnUse"
    x1="6.9491749"
    y1="4.5549412"
    x2="11.215498"
    y2="59.052471" />
  <linearGradient
    id="linearGradient3487">
   <stop
     style="stop-color:#32373c;stop-opacity:1"
     offset="0"
     id="stop3481" />
   <stop
     id="stop3483"
     offset="0.36804965"
     style="stop-color:#1a1a1a;stop-opacity:1" />
   <stop
     style="stop-color:#31363b;stop-opacity:1"
     offset="1"
     id="stop3485" />
  </linearGradient>
  <linearGradient
    xlink:href="#linearGradient20604"
    id="linearGradient20558"
    gradientUnits="userSpaceOnUse"
    x1="25.802212"
    y1="20.373846"
    x2="25.111048"
    y2="58.912758" />
  <linearGradient
    id="linearGradient20604">
   <stop
     id="stop20598"
     offset="0"
     style="stop-color:#3d3d3d;stop-opacity:1" />
   <stop
     style="stop-color:#000000;stop-opacity:1"
     offset="0.61772454"
     id="stop20600" />
   <stop
     id="stop20602"
     offset="1"
     style="stop-color:#3d3d3d;stop-opacity:1" />
  </linearGradient>
  <filter
    style="color-interpolation-filters:sRGB"
    id="filter20720"
    x="-0.010587485"
    y="-0.010234512"
    width="1.0211745"
    height="1.020469">
   <feGaussianBlur
     stdDeviation="0.00013366928"
     id="feGaussianBlur20722" />
  </filter>
  <linearGradient
    gradientTransform="translate(0.36067797,-0.13016949)"
    xlink:href="#linearGradient4555"
    id="linearGradient4557"
    x1="43.499737"
    y1="64.011795"
    x2="44.141731"
    y2="0.30621234"
    gradientUnits="userSpaceOnUse" />
  <linearGradient
    id="linearGradient4555">
   <stop
     style="stop-color:#141618;stop-opacity:1"
     offset="0"
     id="stop4551" />
   <stop
     id="stop4559"
     offset="0.51820582"
     style="stop-color:#686868;stop-opacity:1" />
   <stop
     style="stop-color:#31363b;stop-opacity:1"
     offset="1"
     id="stop4553" />
  </linearGradient>
  <filter
    style="color-interpolation-filters:sRGB"
    id="filter4601"
    x="-0.029683093"
    width="1.0593662"
    y="-0.029541465"
    height="1.0590829">
   <feGaussianBlur
     stdDeviation="0.00014283538"
     id="feGaussianBlur4603" />
  </filter>
 </defs>
 <g
   id="g6"
   transform="matrix(0.6786337,0,0,0.6786337,0.83277678,-0.6781584)">
  <rect
    style="fill:#0079c1;fill-opacity:1"
    width="40"
    height="40"
    x="4"
    y="4"
    rx="0.72957867"
    ry="0.86167526"
    id="rect2" />
  <g
    id="g4"
    transform="matrix(0.90655153,0,0,0.90655153,3.3237607,3.2595644)">
   <path
     opacity="0.2"
     d="m 25.482372,5.4834695 a 2.1618408,2.1618408 0 0 0 -1.929659,1.1865263 18.375647,18.375647 0 0 0 -9.614247,3.9922712 2.1618408,2.1618408 0 0 0 -0.654465,-0.114004 2.1618408,2.1618408 0 0 0 -1.5602,0.633354 2.1618408,2.1618408 0 0 0 -0.523576,2.208321 18.375647,18.375647 0 0 0 -3.9700052,9.614787 2.1618408,2.1618408 0 0 0 -1.205442,1.935928 2.1618408,2.1618408 0 0 0 1.186526,1.92966 18.375647,18.375647 0 0 0 3.9922722,9.614246 2.1618408,2.1618408 0 0 0 0.519349,2.21459 2.1618408,2.1618408 0 0 0 2.208321,0.523576 18.375647,18.375647 0 0 0 9.614246,3.969032 2.1618408,2.1618408 0 0 0 1.935929,1.205226 2.1618408,2.1618408 0 0 0 1.929659,-1.186527 18.375647,18.375647 0 0 0 9.614246,-3.992271 2.1618408,2.1618408 0 0 0 2.21459,-0.51935 2.1618408,2.1618408 0 0 0 0.523576,-2.20832 18.375647,18.375647 0 0 0 3.969032,-9.614247 A 2.1618408,2.1618408 0 0 0 44.93775,24.94034 2.1618408,2.1618408 0 0 0 43.750899,23.010897 18.375647,18.375647 0 0 0 39.75906,13.39611 2.1618408,2.1618408 0 0 0 39.240218,11.181304 2.1618408,2.1618408 0 0 0 37.679369,10.548965 2.1618408,2.1618408 0 0 0 37.031898,10.658138 18.375647,18.375647 0 0 0 27.417111,6.6892146 2.1618408,2.1618408 0 0 0 25.481183,5.4837722 Z m 0,1.0809204 a 1.0809204,1.0809204 0 0 1 1.08092,1.0809204 1.0809204,1.0809204 0 0 1 -1.08092,1.0809204 1.0809204,1.0809204 0 0 1 -1.080921,-1.0809204 1.0809204,1.0809204 0 0 1 1.080921,-1.0809204 z m 1.805029,2.2695005 a 16.213806,16.213806 0 0 1 8.307413,3.4518116 2.1618408,2.1618408 0 0 0 0.589015,1.952791 2.1618408,2.1618408 0 0 0 1.9676,0.586907 16.213806,16.213806 0 0 1 3.424356,8.318007 2.1618408,2.1618408 0 0 0 -0.960939,1.79649 2.1618408,2.1618408 0 0 0 0.97325,1.805029 16.213806,16.213806 0 0 1 -3.449649,8.30536 2.1618408,2.1618408 0 0 0 -0.394785,-0.04222 2.1618408,2.1618408 0 0 0 -1.5602,0.633354 2.1618408,2.1618408 0 0 0 -0.586907,1.9676 16.213806,16.213806 0 0 1 -8.318007,3.424356 2.1618408,2.1618408 0 0 0 -1.79649,-0.960939 2.1618408,2.1618408 0 0 0 -1.805137,0.972829 16.213806,16.213806 0 0 1 -8.306873,-3.451379 2.1618408,2.1618408 0 0 0 -0.589102,-1.953223 2.1618408,2.1618408 0 0 0 -1.560849,-0.63342 2.1618408,2.1618408 0 0 0 -0.409668,0.04432 16.213806,16.213806 0 0 1 -3.4218702,-8.31552 2.1618408,2.1618408 0 0 0 0.9606142,-1.79649 2.1618408,2.1618408 0 0 0 -0.9732612,-1.80514 16.213806,16.213806 0 0 1 3.4518112,-8.306873 2.1618408,2.1618408 0 0 0 1.953223,-0.589102 2.1618408,2.1618408 0 0 0 0.58694,-1.968356 16.213806,16.213806 0 0 1 8.317683,-3.4243565 2.1618408,2.1618408 0 0 0 1.796489,0.9609382 2.1618408,2.1618408 0 0 0 1.805137,-0.9728284 z m -1.805137,2.0537486 a 2.1618408,2.1618408 0 0 0 -1.955385,1.24522 12.971045,12.971045 0 0 0 -11.01566,12.806746 12.971045,12.971045 0 0 0 11.017822,12.814311 2.1618408,2.1618408 0 0 0 1.953223,1.237654 2.1618408,2.1618408 0 0 0 1.955385,-1.24522 A 12.971045,12.971045 0 0 0 38.453308,24.939605 12.971045,12.971045 0 0 0 27.435487,12.125293 2.1618408,2.1618408 0 0 0 25.482264,10.887639 Z m -12.21332,0.741025 a 1.0809204,1.0809204 0 0 1 0.747359,0.316677 1.0809204,1.0809204 0 0 1 0,1.52853 1.0809204,1.0809204 0 0 1 -1.528529,0 1.0809204,1.0809204 0 0 1 0,-1.52853 1.0809204,1.0809204 0 0 1 0.781138,-0.316677 z m 24.426639,0 a 1.0809204,1.0809204 0 0 1 0.781138,0.316677 1.0809204,1.0809204 0 0 1 0,1.52853 1.0809204,1.0809204 0 0 1 -1.528529,0 1.0809204,1.0809204 0 0 1 0,-1.52853 1.0809204,1.0809204 0 0 1 0.747359,-0.316677 z m -12.213319,0.339409 a 1.0809204,1.0809204 0 0 1 1.08092,1.080921 1.0809204,1.0809204 0 0 1 -1.08092,1.080921 1.0809204,1.0809204 0 0 1 -1.080921,-1.080921 1.0809204,1.0809204 0 0 1 1.080921,-1.080921 z m -1.777574,2.311765 a 2.1618408,2.1618408 0 0 0 1.777033,0.930673 2.1618408,2.1618408 0 0 0 1.769467,-0.923106 10.809204,10.809204 0 0 1 9.039737,10.651389 10.809204,10.809204 0 0 1 -9.03109,10.658956 2.1618408,2.1618408 0 0 0 -1.778114,-0.930672 2.1618408,2.1618408 0 0 0 -1.769466,0.923106 10.809204,10.809204 0 0 1 -9.039738,-10.65139 10.809204,10.809204 0 0 1 9.03109,-10.658956 z m 1.777033,5.254354 a 5.404602,5.404602 0 0 0 -5.404602,5.404602 5.404602,5.404602 0 0 0 5.404602,5.404602 5.404602,5.404602 0 0 0 5.404602,-5.404602 5.404602,5.404602 0 0 0 -5.404602,-5.404602 z M 8.1869968,23.857874 a 1.0809204,1.0809204 0 0 1 1.08092,1.08092 1.0809204,1.0809204 0 0 1 -1.08092,1.080921 1.0809204,1.0809204 0 0 1 -1.080921,-1.080921 1.0809204,1.0809204 0 0 1 1.080921,-1.08092 z m 34.5894522,0 a 1.0809204,1.0809204 0 0 1 1.080921,1.08092 1.0809204,1.0809204 0 0 1 -1.080921,1.080921 1.0809204,1.0809204 0 0 1 -1.08092,-1.080921 1.0809204,1.0809204 0 0 1 1.08092,-1.08092 z M 25.481723,35.747998 a 1.0809204,1.0809204 0 0 1 1.080921,1.080921 1.0809204,1.0809204 0 0 1 -1.080921,1.08092 1.0809204,1.0809204 0 0 1 -1.08092,-1.08092 1.0809204,1.0809204 0 0 1 1.08092,-1.080921 z m -12.244666,0.339896 a 1.0809204,1.0809204 0 0 1 0.779019,0.316677 1.0809204,1.0809204 0 0 1 0,1.528529 1.0809204,1.0809204 0 0 1 -1.528529,0 1.0809204,1.0809204 0 0 1 0,-1.528529 1.0809204,1.0809204 0 0 1 0.749467,-0.316677 z m 24.489332,0 a 1.0809204,1.0809204 0 0 1 0.749467,0.316677 1.0809204,1.0809204 0 0 1 0,1.528529 1.0809204,1.0809204 0 0 1 -1.528529,0 1.0809204,1.0809204 0 0 1 0,-1.528529 1.0809204,1.0809204 0 0 1 0.779019,-0.316677 z m -12.244666,5.065193 a 1.0809204,1.0809204 0 0 1 1.080921,1.08092 1.0809204,1.0809204 0 0 1 -1.080921,1.08092 1.0809204,1.0809204 0 0 1 -1.08092,-1.08092 1.0809204,1.0809204 0 0 1 1.08092,-1.08092 z"
     id="path4"
     style="stroke-width:1.08092" />
   <path
     fill="#ffffff"
     d="m 25.482372,4.4025491 a 2.1618408,2.1618408 0 0 0 -1.929443,1.1865263 18.375647,18.375647 0 0 0 -9.614787,3.9921633 2.1618408,2.1618408 0 0 0 -0.653957,-0.1134966 2.1618408,2.1618408 0 0 0 -1.560849,0.6323379 2.1618408,2.1618408 0 0 0 -0.523165,2.208321 18.375647,18.375647 0 0 0 -3.9689242,9.614787 2.1618408,2.1618408 0 0 0 -1.205443,1.935929 2.1618408,2.1618408 0 0 0 1.186527,1.929443 18.375647,18.375647 0 0 0 3.9921632,9.614787 2.1618408,2.1618408 0 0 0 0.518842,2.214806 2.1618408,2.1618408 0 0 0 2.20832,0.523165 18.375647,18.375647 0 0 0 9.614787,3.96914 2.1618408,2.1618408 0 0 0 1.935929,1.205226 2.1618408,2.1618408 0 0 0 1.929443,-1.18685 18.375647,18.375647 0 0 0 9.614786,-3.99184 2.1618408,2.1618408 0 0 0 2.214806,-0.518841 2.1618408,2.1618408 0 0 0 0.523166,-2.208321 18.375647,18.375647 0 0 0 3.96914,-9.614787 2.1618408,2.1618408 0 0 0 1.205226,-1.935928 A 2.1618408,2.1618408 0 0 0 43.752088,21.929674 18.375647,18.375647 0 0 0 39.760249,12.314887 2.1618408,2.1618408 0 0 0 39.241407,10.10008 2.1618408,2.1618408 0 0 0 37.680558,9.4677421 2.1618408,2.1618408 0 0 0 37.033087,9.5769151 18.375647,18.375647 0 0 0 27.4183,5.6079915 2.1618408,2.1618408 0 0 0 25.482372,4.4025491 Z m 0,1.0809204 a 1.0809204,1.0809204 0 0 1 1.08092,1.0809204 1.0809204,1.0809204 0 0 1 -1.08092,1.0809204 1.0809204,1.0809204 0 0 1 -1.080921,-1.0809204 1.0809204,1.0809204 0 0 1 1.080921,-1.0809204 z M 27.287509,7.75297 a 16.213806,16.213806 0 0 1 8.306873,3.451811 2.1618408,2.1618408 0 0 0 0.589102,1.953224 2.1618408,2.1618408 0 0 0 1.968356,0.58694 16.213806,16.213806 0 0 1 3.424355,8.317682 2.1618408,2.1618408 0 0 0 -0.960938,1.79649 2.1618408,2.1618408 0 0 0 0.972829,1.805137 16.213806,16.213806 0 0 1 -3.449217,8.305792 2.1618408,2.1618408 0 0 0 -0.394536,-0.04324 2.1618408,2.1618408 0 0 0 -1.560849,0.633419 2.1618408,2.1618408 0 0 0 -0.58694,1.968356 16.213806,16.213806 0 0 1 -8.317682,3.424356 2.1618408,2.1618408 0 0 0 -1.79649,-0.960939 2.1618408,2.1618408 0 0 0 -1.805137,0.972829 16.213806,16.213806 0 0 1 -8.306873,-3.451379 2.1618408,2.1618408 0 0 0 -0.589102,-1.953223 2.1618408,2.1618408 0 0 0 -1.560849,-0.633419 2.1618408,2.1618408 0 0 0 -0.409669,0.04432 16.213806,16.213806 0 0 1 -3.4218702,-8.31552 2.1618408,2.1618408 0 0 0 0.9606142,-1.79649 2.1618408,2.1618408 0 0 0 -0.9732602,-1.805137 16.213806,16.213806 0 0 1 3.4518112,-8.306873 2.1618408,2.1618408 0 0 0 1.953223,-0.589102 2.1618408,2.1618408 0 0 0 0.58694,-1.968357 16.213806,16.213806 0 0 1 8.317682,-3.4240313 2.1618408,2.1618408 0 0 0 1.79649,0.960614 2.1618408,2.1618408 0 0 0 1.805137,-0.9732597 z m -1.805137,2.0541811 a 2.1618408,2.1618408 0 0 0 -1.955385,1.2452199 12.971045,12.971045 0 0 0 -11.01566,12.806746 12.971045,12.971045 0 0 0 11.017822,12.814311 2.1618408,2.1618408 0 0 0 1.953223,1.237654 2.1618408,2.1618408 0 0 0 1.955385,-1.24522 A 12.971045,12.971045 0 0 0 38.453416,23.859117 12.971045,12.971045 0 0 0 27.435595,11.044805 2.1618408,2.1618408 0 0 0 25.482372,9.8071511 Z m -12.21332,0.7415109 a 1.0809204,1.0809204 0 0 1 0.747997,0.31671 1.0809204,1.0809204 0 0 1 0,1.528422 1.0809204,1.0809204 0 0 1 -1.528421,0 1.0809204,1.0809204 0 0 1 0,-1.528422 1.0809204,1.0809204 0 0 1 0.780424,-0.31671 z m 24.426639,0 a 1.0809204,1.0809204 0 0 1 0.780425,0.31671 1.0809204,1.0809204 0 0 1 0,1.528422 1.0809204,1.0809204 0 0 1 -1.528422,0 1.0809204,1.0809204 0 0 1 0,-1.528422 1.0809204,1.0809204 0 0 1 0.747997,-0.31671 z m -12.213319,0.339409 a 1.0809204,1.0809204 0 0 1 1.08092,1.080921 1.0809204,1.0809204 0 0 1 -1.08092,1.080921 1.0809204,1.0809204 0 0 1 -1.080921,-1.080921 1.0809204,1.0809204 0 0 1 1.080921,-1.080921 z m -1.778114,2.31209 a 2.1618408,2.1618408 0 0 0 1.778114,0.930672 2.1618408,2.1618408 0 0 0 1.769467,-0.923106 10.809204,10.809204 0 0 1 9.039737,10.65139 10.809204,10.809204 0 0 1 -9.03109,10.658956 2.1618408,2.1618408 0 0 0 -1.778114,-0.930673 2.1618408,2.1618408 0 0 0 -1.769467,0.923107 10.809204,10.809204 0 0 1 -9.039737,-10.65139 10.809204,10.809204 0 0 1 9.03109,-10.658956 z m 1.778114,5.254354 a 5.404602,5.404602 0 0 0 -5.404602,5.404602 5.404602,5.404602 0 0 0 5.404602,5.404602 5.404602,5.404602 0 0 0 5.404602,-5.404602 5.404602,5.404602 0 0 0 -5.404602,-5.404602 z M 8.1876448,22.778196 a 1.0809204,1.0809204 0 0 1 1.080921,1.080921 1.0809204,1.0809204 0 0 1 -1.080921,1.08092 1.0809204,1.0809204 0 0 1 -1.08092,-1.08092 1.0809204,1.0809204 0 0 1 1.08092,-1.080921 z m 34.5894532,0 a 1.0809204,1.0809204 0 0 1 1.08092,1.080921 1.0809204,1.0809204 0 0 1 -1.08092,1.08092 1.0809204,1.0809204 0 0 1 -1.08092,-1.08092 1.0809204,1.0809204 0 0 1 1.08092,-1.080921 z M 25.482372,34.668321 a 1.0809204,1.0809204 0 0 1 1.08092,1.08092 1.0809204,1.0809204 0 0 1 -1.08092,1.080921 1.0809204,1.0809204 0 0 1 -1.080921,-1.080921 1.0809204,1.0809204 0 0 1 1.080921,-1.08092 z M 13.237706,35.00773 a 1.0809204,1.0809204 0 0 1 0.779343,0.31671 1.0809204,1.0809204 0 0 1 0,1.528421 1.0809204,1.0809204 0 0 1 -1.528421,0 1.0809204,1.0809204 0 0 1 0,-1.528421 1.0809204,1.0809204 0 0 1 0.749078,-0.31671 z m 24.489332,0 a 1.0809204,1.0809204 0 0 1 0.749078,0.31671 1.0809204,1.0809204 0 0 1 0,1.528421 1.0809204,1.0809204 0 0 1 -1.528422,0 1.0809204,1.0809204 0 0 1 0,-1.528421 1.0809204,1.0809204 0 0 1 0.779344,-0.31671 z m -12.244666,5.065193 a 1.0809204,1.0809204 0 0 1 1.08092,1.08092 1.0809204,1.0809204 0 0 1 -1.08092,1.080921 1.0809204,1.0809204 0 0 1 -1.080921,-1.080921 1.0809204,1.0809204 0 0 1 1.080921,-1.08092 z"
     id="path5"
     style="stroke-width:1.08092" />
  </g>
 </g>
 <path
   style="display:inline;mix-blend-mode:normal;fill:url(#linearGradient3403);fill-opacity:1;stroke:url(#linearGradient20558);stroke-width:1.16242;stroke-linecap:butt;stroke-linejoin:round;stroke-miterlimit:4;stroke-dasharray:none;stroke-opacity:1"
   d="M 4.7043071,3.9814882 4.6913695,60.80196 H 58.59546 l 1.022155,-2.866369 c 0,0 -23.87537,0.766388 -32.844441,-4.140386 C 16.257548,48.042344 11.401114,4.0978197 11.401114,4.0978197 Z"
   id="path1686"
   transform="matrix(0.5,0,0,0.5,0.06630362,0.01654936)" />
 <rect
   style="display:inline;fill:none;fill-opacity:1;stroke:url(#linearGradient4557);stroke-width:3.71366;stroke-linejoin:round;stroke-miterlimit:7.8;stroke-dasharray:none;stroke-opacity:0.995146"
   id="rect4539"
   width="62.566689"
   height="62.866646"
   x="1.0323594"
   y="0.59551275"
   ry="6.2447233"
   rx="5.8029528"
   transform="matrix(0.46839137,0,0,0.46743669,0.90638486,1.0268972)" />
</svg>
