<?xml version="1.0" encoding="UTF-8" standalone="no"?>
<!-- Created with Inkscape (http://www.inkscape.org/) -->

<svg
  width="32"
  height="32"
  version="1.1"
  viewBox="0 0 32 32"
  id="svg22"
  xmlns:xlink="http://www.w3.org/1999/xlink"
  xmlns="http://www.w3.org/2000/svg"
  xmlns:svg="http://www.w3.org/2000/svg">
 <defs
   id="defs12">
  <linearGradient
    id="linearGradient1005-3-3"
    x1="5.2535"
    x2="9.3823996"
    y1="15.383"
    y2="2.9421"
    gradientTransform="matrix(0.99999,0,0,0.99999,1.632,-0.61743)"
    gradientUnits="userSpaceOnUse">
   <stop
     stop-color="#fa8200"
     offset="0"
     id="stop2" />
   <stop
     stop-color="#ff9600"
     offset=".36953"
     id="stop4" />
   <stop
     stop-color="#ffb400"
     offset="1"
     id="stop6" />
  </linearGradient>
  <filter
    id="filter4014"
    x="-0.062499933"
    y="-0.057692993"
    width="1.1249999"
    height="1.115386"
    color-interpolation-filters="sRGB">
   <feGaussianBlur
     stdDeviation="1.093751"
     id="feGaussianBlur9" />
  </filter>
  <linearGradient
    xlink:href="#linearGradient3487"
    id="linearGradient3403"
    gradientUnits="userSpaceOnUse"
    x1="6.9491749"
    y1="4.5549412"
    x2="11.215498"
    y2="59.052471" />
  <linearGradient
    id="linearGradient3487">
   <stop
     style="stop-color:#32373c;stop-opacity:1"
     offset="0"
     id="stop3481" />
   <stop
     id="stop3483"
     offset="0.36804965"
     style="stop-color:#1a1a1a;stop-opacity:1" />
   <stop
     style="stop-color:#31363b;stop-opacity:1"
     offset="1"
     id="stop3485" />
  </linearGradient>
  <linearGradient
    xlink:href="#linearGradient20604"
    id="linearGradient20558"
    gradientUnits="userSpaceOnUse"
    x1="25.802212"
    y1="20.373846"
    x2="25.111048"
    y2="58.912758" />
  <linearGradient
    id="linearGradient20604">
   <stop
     id="stop20598"
     offset="0"
     style="stop-color:#3d3d3d;stop-opacity:1" />
   <stop
     style="stop-color:#000000;stop-opacity:1"
     offset="0.61772454"
     id="stop20600" />
   <stop
     id="stop20602"
     offset="1"
     style="stop-color:#3d3d3d;stop-opacity:1" />
  </linearGradient>
  <linearGradient
    gradientTransform="translate(0.36067797,-0.13016949)"
    xlink:href="#linearGradient4555"
    id="linearGradient4557"
    x1="43.499737"
    y1="64.011795"
    x2="44.141731"
    y2="0.30621234"
    gradientUnits="userSpaceOnUse" />
  <linearGradient
    id="linearGradient4555">
   <stop
     style="stop-color:#141618;stop-opacity:1"
     offset="0"
     id="stop4551" />
   <stop
     id="stop4559"
     offset="0.51820582"
     style="stop-color:#686868;stop-opacity:1" />
   <stop
     style="stop-color:#31363b;stop-opacity:1"
     offset="1"
     id="stop4553" />
  </linearGradient>
  <filter
    style="color-interpolation-filters:sRGB"
    id="filter4601"
    x="-0.029678282"
    width="1.0593566"
    y="-0.029536678"
    height="1.0590734">
   <feGaussianBlur
     stdDeviation="1.7439155e-05"
     id="feGaussianBlur4603" />
  </filter>
 </defs>
 <rect
   style="display:inline;fill:#3a4160;fill-opacity:1;fill-rule:evenodd;stroke:none;stroke-width:0.613931;stroke-linejoin:round;stroke-miterlimit:7.8"
   id="rect1192"
   width="27.847021"
   height="28.262236"
   x="2.3490613"
   y="2.2113431"
   ry="0" />
 <path
   style="fill:#cfd7dc;fill-opacity:1;fill-rule:nonzero;stroke:none;stroke-width:0.70484"
   d="m 1.7629159,7.1131923 c -0.2918527,0.00278 -0.583698,0.01377 -0.87279557,0.049554 3.20758777,0.057812 6.42067867,0.3193819 9.55943067,0.9939379 0.60848,0.079846 1.194926,0.2643153 1.784134,0.412994 0.286343,0.068836 0.553413,0.1954842 0.839755,0.2670693 0.473564,0.1211444 0.93887,0.2808357 1.40693,0.4185 0.289097,0.1266517 0.600215,0.181717 0.883809,0.3138753 0.426755,0.1789643 0.845259,0.3827071 1.258251,0.5919582 0.05503,0.0358 0.137665,0.05231 0.154189,0.126651 0.107372,0.45154 0.165195,0.914093 0.2946,1.360126 0.247792,0.831495 0.558916,1.651975 1.00495,2.403624 -0.473563,0.22577 -0.881054,0.564426 -1.236225,0.944379 -0.509359,0.558919 -0.905836,1.233475 -1.07654,1.97411 -0.206493,0.757156 -0.162447,1.792393 0.01649,2.549549 0.192733,0.680063 0.539645,1.172902 1.010461,1.701534 0.944372,1.073784 2.414634,1.698782 3.846345,1.533585 1.726313,-0.140419 3.524216,0.137664 5.04128,1.004951 0.795701,0.4598 1.547348,1.024225 2.114523,1.753847 0.773674,0.8783 1.354625,1.98237 1.797903,3.058906 0.06331,0.162445 0.123896,0.330396 0.212003,0.481827 0,-0.20099 -0.07434,-0.390968 -0.143174,-0.578191 C 29.452741,27.92532 29.221466,27.31409 28.929613,26.801977 28.585448,26.187995 28.20825,25.585024 27.731932,25.064652 27.035344,24.22765 26.18733,23.511794 25.218176,23.013449 c 0.737879,0.09636 1.459242,0.311122 2.161333,0.556164 0.751647,0.26707 1.47301,0.624998 2.122789,1.093058 0.638765,0.517619 1.203183,1.139863 1.618932,1.855719 0.214759,0.344161 0.352424,0.801207 0.539645,1.161889 -0.165195,-0.834248 -0.583698,-1.671249 -1.106819,-2.334792 -0.308369,-0.40198 -0.702091,-0.724116 -1.087554,-1.046251 -0.892067,-0.70209 -1.927302,-1.200435 -2.998332,-1.558363 -1.968601,-0.647023 -4.050091,-0.89482 -6.115065,-0.89482 -0.501094,0.0055 -1.002195,-0.06332 -1.47301,-0.236783 -1.082044,-0.390967 -1.938316,-1.205942 -2.205386,-2.326532 -0.34141,-1.216955 0.03854,-2.830383 0.933366,-3.716944 0.726872,-0.743388 1.786889,-1.167396 2.830382,-1.065524 1.073786,0.07709 2.098014,0.454294 3.100209,0.820481 0.823231,0.322135 1.649225,0.638764 2.442171,1.026978 0.02205,0.228523 0.04133,0.465306 0.123896,0.680063 0.11289,0.223017 0.355178,0.330396 0.569929,0.429514 0.410246,0.184471 0.798458,0.346915 1.148125,0.633257 0.258812,0.206497 0.473571,0.462553 0.718615,0.685569 0.0826,-0.132158 0.09636,-0.165197 0.12114,-0.212002 0.01378,-0.01102 0.0029,0.0028 0.01928,-0.01652 0.187221,-0.195483 0.465306,-0.23403 0.702091,-0.352421 -0.616738,-0.154185 -1.222463,-0.377201 -1.627198,-0.883807 -0.06331,-0.07709 0.203745,-0.0055 0.148677,-0.129404 -0.03854,-0.104626 -0.07434,-0.165198 -0.126651,-0.256057 -0.225771,-0.330395 -0.454291,-0.658036 -0.655281,-1.002198 -0.231275,-0.0055 -0.465306,-0.0083 -0.696581,-0.01377 -0.294607,-0.344161 -0.616738,-0.658037 -0.916849,-0.996691 0.02477,0.18447 0.0606,0.371695 0.0606,0.558918 -0.200989,-0.112884 -0.399231,-0.234029 -0.578194,-0.379954 -0.192732,-0.17621 -0.37445,-0.368941 -0.564427,-0.547905 0.02477,0.134911 0.04953,0.272576 0.07159,0.410241 -0.390974,-0.159691 -0.762668,-0.396473 -1.037997,-0.721363 -0.0059,0.07985 -0.0083,0.15969 -0.01099,0.24229 -0.247799,-0.09637 -0.487332,-0.20099 -0.732376,-0.297355 -0.619493,-0.231278 -1.230721,-0.498346 -1.886003,-0.616738 -0.718615,-0.0358 -1.481276,0.06057 -2.16134,-0.234029 C 18.20008,13.145651 17.814617,12.773957 17.5916,12.32517 17.178599,11.559751 17.236421,10.648412 17.354806,9.8169184 16.831686,9.4700035 16.26726,9.1946737 15.683562,8.9606447 15.413736,8.8642786 15.157686,8.7238611 14.874091,8.6605359 13.84987,8.3218809 12.800867,8.0630715 11.74085,7.8648341 11.278293,7.762962 10.807484,7.7161566 10.347682,7.6142846 9.907159,7.5289324 9.4583701,7.4848796 9.0150918,7.4298143 6.8978056,7.1875241 4.7640033,7.0966659 2.6357114,7.1131857 c -0.2918527,0.00278 -0.583698,-0.00278 -0.8755434,0 z M 16.616928,10.450182 c -3.884897,-0.03304 -7.7808072,0.143171 -11.6188945,0.765415 -1.0049494,0.167951 -2.0154094,0.322135 -2.9983322,0.59471 3.2874297,-0.462552 6.5996345,-0.776427 9.9201047,-0.848013 1.61894,-0.01102 3.237872,0.03855 4.848547,0.20099 -0.05232,-0.236783 -0.107379,-0.473566 -0.151425,-0.713102 z m 0.253302,1.051757 c -2.186115,0.203744 -4.328175,0.724116 -6.409665,1.412438 -1.4372226,0.49284 -2.8469072,1.068278 -4.2070278,1.748342 C 5.7717081,14.905008 5.2816206,15.141791 4.8245736,15.430887 5.342191,15.20787 5.8432918,14.957321 6.3664196,14.750824 9.7667315,13.352152 13.370797,12.37198 17.054695,12.184755 16.985889,11.958986 16.917031,11.730462 16.87023,11.501939 Z m 4.330922,0.715856 c 0.385464,0.173458 0.792954,0.297356 1.175662,0.479072 1.170144,0.509361 2.293487,1.148124 3.281919,1.960345 0.357926,0.297356 0.691078,0.622244 0.980176,0.985679 0.07709,0.08535 0.200989,0.01927 0.30011,0.0358 -0.110134,-0.203744 -0.311124,-0.333148 -0.46806,-0.495593 -0.787443,-0.77643 -1.696027,-1.42896 -2.676202,-1.941072 -0.825987,-0.429514 -1.687769,-0.803961 -2.593605,-1.024225 z m 0,0"
   id="path3658" />
 <path
   style="display:inline;mix-blend-mode:normal;fill:url(#linearGradient3403);fill-opacity:1;stroke:url(#linearGradient20558);stroke-width:1.16242;stroke-linecap:butt;stroke-linejoin:round;stroke-miterlimit:4;stroke-dasharray:none;stroke-opacity:1"
   d="M 4.7043071,3.9814882 4.6913695,60.80196 H 58.59546 l 1.022155,-2.866369 c 0,0 -23.87537,0.766388 -32.844441,-4.140386 C 16.257548,48.042344 11.401114,4.0978197 11.401114,4.0978197 Z"
   id="path1686"
   transform="matrix(0.49751235,0,0,0.49751235,0.32216414,0.23050136)" />
 <rect
   style="display:inline;fill:none;fill-opacity:1;stroke:url(#linearGradient4557);stroke-width:3.71366;stroke-linejoin:round;stroke-miterlimit:7.8;stroke-dasharray:none;stroke-opacity:0.995146"
   id="rect4539"
   width="62.566689"
   height="62.866646"
   x="1.0323594"
   y="0.59551275"
   ry="6.2447233"
   rx="5.8029528"
   transform="matrix(0.46606098,0,0,0.46511105,1.1580657,1.2358224)" />
</svg>
