<?xml version="1.0" encoding="UTF-8" standalone="no"?>
<!-- Created with Inkscape (http://www.inkscape.org/) -->

<svg
  width="32"
  height="32"
  version="1.1"
  viewBox="0 0 32 32"
  id="svg22"
  xmlns:xlink="http://www.w3.org/1999/xlink"
  xmlns="http://www.w3.org/2000/svg"
  xmlns:svg="http://www.w3.org/2000/svg">
 <defs
   id="defs12">
  <linearGradient
    id="linearGradient1005-3-3"
    x1="5.2535"
    x2="9.3823996"
    y1="15.383"
    y2="2.9421"
    gradientTransform="matrix(0.99999,0,0,0.99999,1.632,-0.61743)"
    gradientUnits="userSpaceOnUse">
   <stop
     stop-color="#fa8200"
     offset="0"
     id="stop2" />
   <stop
     stop-color="#ff9600"
     offset=".36953"
     id="stop4" />
   <stop
     stop-color="#ffb400"
     offset="1"
     id="stop6" />
  </linearGradient>
  <filter
    id="filter4014"
    x="-0.062499933"
    y="-0.057692993"
    width="1.1249999"
    height="1.115386"
    color-interpolation-filters="sRGB">
   <feGaussianBlur
     stdDeviation="1.093751"
     id="feGaussianBlur9" />
  </filter>
  <linearGradient
    xlink:href="#linearGradient3487"
    id="linearGradient3403"
    gradientUnits="userSpaceOnUse"
    x1="6.9491749"
    y1="4.5549412"
    x2="11.215498"
    y2="59.052471" />
  <linearGradient
    id="linearGradient3487">
   <stop
     style="stop-color:#32373c;stop-opacity:1"
     offset="0"
     id="stop3481" />
   <stop
     id="stop3483"
     offset="0.36804965"
     style="stop-color:#1a1a1a;stop-opacity:1" />
   <stop
     style="stop-color:#31363b;stop-opacity:1"
     offset="1"
     id="stop3485" />
  </linearGradient>
  <linearGradient
    xlink:href="#linearGradient20604"
    id="linearGradient20558"
    gradientUnits="userSpaceOnUse"
    x1="25.802212"
    y1="20.373846"
    x2="25.111048"
    y2="58.912758" />
  <linearGradient
    id="linearGradient20604">
   <stop
     id="stop20598"
     offset="0"
     style="stop-color:#3d3d3d;stop-opacity:1" />
   <stop
     style="stop-color:#000000;stop-opacity:1"
     offset="0.61772454"
     id="stop20600" />
   <stop
     id="stop20602"
     offset="1"
     style="stop-color:#3d3d3d;stop-opacity:1" />
  </linearGradient>
  <linearGradient
    gradientTransform="translate(0.36067797,-0.13016949)"
    xlink:href="#linearGradient4555"
    id="linearGradient4557"
    x1="43.499737"
    y1="64.011795"
    x2="44.141731"
    y2="0.30621234"
    gradientUnits="userSpaceOnUse" />
  <linearGradient
    id="linearGradient4555">
   <stop
     style="stop-color:#141618;stop-opacity:1"
     offset="0"
     id="stop4551" />
   <stop
     id="stop4559"
     offset="0.51820582"
     style="stop-color:#686868;stop-opacity:1" />
   <stop
     style="stop-color:#31363b;stop-opacity:1"
     offset="1"
     id="stop4553" />
  </linearGradient>
  <filter
    style="color-interpolation-filters:sRGB"
    id="filter4601"
    x="-0.029679326"
    width="1.0593587"
    y="-0.029537716"
    height="1.0590754">
   <feGaussianBlur
     stdDeviation="4.4644236e-05"
     id="feGaussianBlur4603" />
  </filter>
 </defs>
 <rect
   style="display:inline;fill:#1ba97f;fill-opacity:1;fill-rule:evenodd;stroke:none;stroke-width:0.609194;stroke-linejoin:round;stroke-miterlimit:7.8"
   id="rect1192"
   width="27.632185"
   height="28.044197"
   x="2.6479156"
   y="2.1991618"
   ry="0" />
 <path
   fill="#173f4f"
   d="m 17.787587,7.4393619 c -4.391681,0 -8.0180388,3.3590061 -8.4462679,7.6404361 H 5.0535185 a 0.84902254,0.84902241 0 1 0 0,1.697876 h 4.2878006 c 0.4282291,4.281432 4.0545869,7.640437 8.4462679,7.640437 4.39168,0 8.018038,-3.359005 8.446261,-7.640437 h 4.287807 a 0.84902254,0.84902241 0 1 0 0,-1.697876 H 26.233848 C 25.805625,10.798368 22.179267,7.4393619 17.787587,7.4393619 Z m 0,1.6978745 c 3.732559,0 6.739678,2.9870916 6.784866,6.7085926 a 0.84902254,0.84902241 0 0 0 0,0.162487 c -0.04341,3.723079 -3.051179,6.711922 -6.784866,6.711922 -3.732566,0 -6.739679,-2.987092 -6.784866,-6.708594 a 0.84902254,0.84902241 0 0 0 0,-0.162487 c 0.04341,-3.723081 3.051178,-6.7119206 6.784866,-6.7119206 z m 0,3.3957506 c -1.865371,0 -3.395751,1.53038 -3.395751,3.395749 0,1.865371 1.53038,3.395751 3.395751,3.395751 1.865364,0 3.395749,-1.53038 3.395749,-3.395751 0,-1.865369 -1.530385,-3.395749 -3.395749,-3.395749 z m 0,1.697875 c 0.94776,0 1.697875,0.750101 1.697875,1.697875 0,0.947773 -0.750115,1.697874 -1.697875,1.697874 -0.947766,0 -1.697875,-0.750101 -1.697875,-1.697874 0,-0.947774 0.750109,-1.697875 1.697875,-1.697875 z"
   id="path2-6"
   style="stroke-width:0.242768" />
 <path
   style="display:inline;mix-blend-mode:normal;fill:url(#linearGradient3403);fill-opacity:1;stroke:url(#linearGradient20558);stroke-width:1.16242;stroke-linecap:butt;stroke-linejoin:round;stroke-miterlimit:4;stroke-dasharray:none;stroke-opacity:1"
   d="M 4.7043071,3.9814882 4.6913695,60.80196 H 58.59546 l 1.022155,-2.866369 c 0,0 -23.87537,0.766388 -32.844441,-4.140386 C 16.257548,48.042344 11.401114,4.0978197 11.401114,4.0978197 Z"
   id="path1686"
   transform="matrix(0.49367413,0,0,0.49367413,0.32552089,0.23360393)" />
 <rect
   style="display:inline;fill:none;fill-opacity:1;stroke:url(#linearGradient4557);stroke-width:3.71366;stroke-linejoin:round;stroke-miterlimit:7.8;stroke-dasharray:none;stroke-opacity:0.995146"
   id="rect4539"
   width="62.566689"
   height="62.866646"
   x="1.0323594"
   y="0.59551275"
   ry="6.2447233"
   rx="5.8029528"
   transform="matrix(0.46246541,0,0,0.4615228,1.1549736,1.2311691)" />
</svg>
