<?xml version="1.0" encoding="UTF-8" standalone="no"?>
<!-- Created with Inkscape (http://www.inkscape.org/) -->

<svg
  width="32"
  height="32"
  version="1.1"
  viewBox="0 0 32 32"
  id="svg22"
  xmlns:xlink="http://www.w3.org/1999/xlink"
  xmlns="http://www.w3.org/2000/svg"
  xmlns:svg="http://www.w3.org/2000/svg">
 <defs
   id="defs12">
  <linearGradient
    xlink:href="#linearGradient3487"
    id="linearGradient3403"
    gradientUnits="userSpaceOnUse"
    x1="6.9491749"
    y1="4.5549412"
    x2="11.215498"
    y2="59.052471" />
  <linearGradient
    id="linearGradient3487">
   <stop
     style="stop-color:#32373c;stop-opacity:1"
     offset="0"
     id="stop3481" />
   <stop
     id="stop3483"
     offset="0.36804965"
     style="stop-color:#1a1a1a;stop-opacity:1" />
   <stop
     style="stop-color:#31363b;stop-opacity:1"
     offset="1"
     id="stop3485" />
  </linearGradient>
  <linearGradient
    xlink:href="#linearGradient20604"
    id="linearGradient20558"
    gradientUnits="userSpaceOnUse"
    x1="25.802212"
    y1="20.373846"
    x2="25.111048"
    y2="58.912758" />
  <linearGradient
    id="linearGradient20604">
   <stop
     id="stop20598"
     offset="0"
     style="stop-color:#3d3d3d;stop-opacity:1" />
   <stop
     style="stop-color:#000000;stop-opacity:1"
     offset="0.61772454"
     id="stop20600" />
   <stop
     id="stop20602"
     offset="1"
     style="stop-color:#3d3d3d;stop-opacity:1" />
  </linearGradient>
  <filter
    style="color-interpolation-filters:sRGB"
    id="filter20720"
    x="-0.010581655"
    y="-0.010228876"
    width="1.0211628"
    height="1.0204578">
   <feGaussianBlur
     stdDeviation="2.3129311e-07"
     id="feGaussianBlur20722" />
  </filter>
  <linearGradient
    gradientTransform="translate(0.36067797,-0.13016949)"
    xlink:href="#linearGradient4555"
    id="linearGradient4557"
    x1="43.499737"
    y1="64.011795"
    x2="44.141731"
    y2="0.30621234"
    gradientUnits="userSpaceOnUse" />
  <linearGradient
    id="linearGradient4555">
   <stop
     style="stop-color:#141618;stop-opacity:1"
     offset="0"
     id="stop4551" />
   <stop
     id="stop4559"
     offset="0.51820582"
     style="stop-color:#686868;stop-opacity:1" />
   <stop
     style="stop-color:#31363b;stop-opacity:1"
     offset="1"
     id="stop4553" />
  </linearGradient>
  <filter
    style="color-interpolation-filters:sRGB"
    id="filter4601"
    x="-0.029677623"
    width="1.0593552"
    y="-0.029536021"
    height="1.059072">
   <feGaussianBlur
     stdDeviation="2.4715355e-07"
     id="feGaussianBlur4603" />
  </filter>
  <linearGradient
    y2="5.1285472"
    x2="35.057411"
    y1="54.399067"
    x1="56.678883"
    gradientTransform="translate(0.36135313,-0.12490449)"
    gradientUnits="userSpaceOnUse"
    id="linearGradient46503"
    xlink:href="#linearGradient4585" />
  <linearGradient
    id="linearGradient4585">
   <stop
     id="stop4581"
     offset="0"
     style="stop-color:#742f74;stop-opacity:1" />
   <stop
     id="stop4583"
     offset="1"
     style="stop-color:#cf7294;stop-opacity:1" />
  </linearGradient>
 </defs>
 <g
   id="g865"
   transform="matrix(0.44759995,0,0,0.45170013,1.6221616,1.7426054)">
  <rect
    y="0.60077608"
    x="1.033034"
    height="62.866646"
    width="62.567139"
    id="rect4539-1"
    style="opacity:1;fill:url(#linearGradient46503);fill-opacity:1;stroke:none;stroke-width:1.146;stroke-linejoin:round;stroke-miterlimit:7.8;stroke-dasharray:none;stroke-opacity:0.995146" />
  <g
    transform="matrix(1.33,0,0,1.33,-506.43964,-664.64766)"
    id="g46483">
   <path
     style="opacity:1;fill:#ffffff;fill-opacity:1;fill-rule:nonzero;stroke:none;stroke-width:42.535;stroke-miterlimit:4;stroke-dasharray:none;stroke-opacity:1"
     d="m 23.78125,10.386719 c -2.68998,-0.01228 -4.99636,0.486969 -7.09375,1.537109 -0.69823,0.34958 -0.806919,0.472199 -0.761719,0.84961 0.09231,0.770269 0.490029,0.845046 1.667969,0.316406 2.18986,-0.98274 3.255358,-1.192313 6.017578,-1.195313 3.17015,-0.0026 4.33761,0.268945 6.9375,1.615235 0.44669,0.23099 1.860852,1.322618 2.388672,0.736328 0.52275,-0.52272 0.246551,-0.955363 -1.099609,-1.720703 -2.6548,-1.50935 -4.974401,-2.124072 -8.056641,-2.138672 z M 23.699219,13.5 c -3.549223,-0.0027 -7.096241,1.399569 -9.697266,4.208984 -1.0062,1.08683 -2.179687,2.868164 -2.179687,3.308594 0,0.51354 0.211753,0.796875 0.595703,0.796875 0.30096,0 0.607197,-0.324692 1.335937,-1.419922 1.62983,-2.44946 3.742724,-4.074446 6.464844,-4.972656 2.11111,-0.68904 4.583264,-0.60927 6.958984,0 3.06748,1.00827 5.699035,3.254453 7.140625,6.095703 0.31369,0.61823 0.501334,0.806641 0.808594,0.806641 0.52917,0 0.839863,-0.393793 0.695313,-0.882813 -0.23308,-0.78876 -1.476519,-2.699927 -2.417969,-3.716797 C 30.799652,14.911234 27.248441,13.502685 23.699219,13.5 Z m 0.167969,3.091797 c -0.756485,-0.01314 -1.52404,0.05843 -2.291016,0.21875 -3.64461,0.76184 -6.690876,3.713504 -7.666016,7.427734 -0.51749,1.97103 -0.279601,5.190525 0.574219,7.765625 0.25517,0.76956 0.378361,0.930057 0.744141,0.972656 0.84097,0.09774 0.92315,-0.302518 0.419922,-2.042968 -1.439952,-4.98014 -0.200267,-9.217104 3.371093,-11.527344 3.53093,-2.28409 8.387061,-1.608119 11.150391,1.550781 1.73162,1.97952 2.681421,5.327843 1.925781,6.789063 -0.49917,0.96532 -1.714558,1.545482 -2.712891,1.294922 -0.729559,-0.1831 -1.594378,-1.079688 -1.705078,-1.767578 -0.39067,-2.42748 -0.94209,-3.377464 -2.33789,-4.027344 -1.19066,-0.55439 -2.183113,-0.539086 -3.351563,0.05273 -1.08873,0.55146 -1.922877,1.664486 -2.091797,2.791016 -0.06094,0.40595 -0.03415,1.284442 0.06055,1.951172 0.58902,4.15309 3.560395,7.438538 7.640625,8.449218 0.51314,0.12705 1.352095,0.216819 1.865235,0.199219 l 0.933593,-0.03125 c 0.52735,-0.26769 0.55621,-0.88379 0,-1.1875 l -1.320312,-0.201172 c -1.66178,-0.25323 -2.349938,-0.472194 -3.492188,-1.115234 -2.48398,-1.39837 -4.263672,-4.429739 -4.263672,-7.261719 0,-1.24802 0.472529,-1.977024 1.574219,-2.433594 0.79604,-0.32992 0.807476,-0.32992 1.603516,0 1.00744,0.41752 1.492387,1.116262 1.617187,2.326172 0.22918,2.22048 1.770063,3.681641 3.882813,3.681641 1.69558,0 3.122796,-1.100315 3.628906,-2.796875 0.49535,-1.66036 -0.169636,-4.449113 -1.566406,-6.570313 -1.851119,-2.811176 -4.915264,-4.450863 -8.193359,-4.507812 z m -0.109376,3.216797 c -1.055759,0.01336 -2.141469,0.208167 -3.03125,0.554687 -1.37195,0.67192 -2.679258,2.013797 -3.355468,3.441407 -0.51455,1.086259 -0.545242,1.255429 -0.544922,3.099609 3.8e-4,2.26889 0.274953,3.474189 1.251953,5.511719 0.84186,1.75567 2.008218,3.286907 3.304687,4.335937 1.12375,0.90928 1.243128,0.953408 1.710938,0.611328 0.47892,-0.35017 0.211801,-0.951509 -0.755859,-1.693359 -1.04919,-0.80436 -2.182396,-2.259326 -2.947266,-3.785156 -1.25635,-2.50621 -1.572866,-5.603674 -0.753906,-7.376954 0.59437,-1.286979 1.50069,-2.246983 2.65625,-2.814453 1.38836,-0.6818 3.416327,-0.6818 4.804687,0 1.6571,0.81376 2.716647,2.295505 3.091797,4.328125 0.22392,1.2133 0.562888,1.616594 1.080078,1.283204 0.23965,-0.15448 0.291831,-0.411898 0.269531,-1.335938 -0.05418,-2.24624 -1.627974,-4.501519 -3.927734,-5.630859 -0.772,-0.37564 -1.797756,-0.542652 -2.853516,-0.529297 z"
     transform="translate(384.57143,499.798)"
     id="path46479" />
   <path
     style="opacity:1;fill:#ffffff;fill-opacity:1;fill-rule:nonzero;stroke:none;stroke-width:42.535;stroke-miterlimit:4;stroke-dasharray:none;stroke-opacity:1"
     d="m 413.01689,533.25511 c -2.89862,-0.6323 -5.1328,-3.18614 -5.38364,-6.15391 -0.0793,-0.93797 -0.0518,-1.06193 0.27295,-1.23578 0.61868,-0.33111 0.97625,0.0165 1.1,1.06933 0.31116,2.64741 2.25668,4.64408 4.87395,5.00201 1.28052,0.17513 1.69235,0.66676 1.07537,1.28374 -0.30891,0.30891 -0.65299,0.31506 -1.93863,0.0347 z"
     id="path46481" />
  </g>
 </g>
 <path
   style="display:inline;mix-blend-mode:normal;fill:url(#linearGradient3403);fill-opacity:1;stroke:url(#linearGradient20558);stroke-width:1.16242;stroke-linecap:butt;stroke-linejoin:round;stroke-miterlimit:4;stroke-dasharray:none;stroke-opacity:1"
   d="M 4.7043071,3.9814882 4.6913695,60.80196 H 58.59546 l 1.022155,-2.866369 c 0,0 -23.87537,0.766388 -32.844441,-4.140386 C 16.257548,48.042344 11.401114,4.0978197 11.401114,4.0978197 Z"
   id="path1686"
   transform="matrix(0.5,0,0,0.5,0.06630362,0.01654936)" />
 <rect
   style="display:inline;fill:none;fill-opacity:1;stroke:url(#linearGradient4557);stroke-width:3.71366;stroke-linejoin:round;stroke-miterlimit:7.8;stroke-dasharray:none;stroke-opacity:0.995146"
   id="rect4539"
   width="62.566689"
   height="62.866646"
   x="1.0323594"
   y="0.59551275"
   ry="6.2447233"
   rx="5.8029528"
   transform="matrix(0.46839137,0,0,0.46743669,0.90638486,1.0268972)" />
</svg>
