<?xml version="1.0" encoding="UTF-8" standalone="no"?>
<!-- Created with Inkscape (http://www.inkscape.org/) -->

<svg
  width="32"
  height="32"
  version="1.1"
  viewBox="0 0 32 32"
  id="svg22"
  xmlns:xlink="http://www.w3.org/1999/xlink"
  xmlns="http://www.w3.org/2000/svg"
  xmlns:svg="http://www.w3.org/2000/svg">
 <defs
   id="defs12">
  <linearGradient
    xlink:href="#linearGradient3487"
    id="linearGradient3403"
    gradientUnits="userSpaceOnUse"
    x1="6.9491749"
    y1="4.5549412"
    x2="11.215498"
    y2="59.052471" />
  <linearGradient
    id="linearGradient3487">
   <stop
     style="stop-color:#32373c;stop-opacity:1"
     offset="0"
     id="stop3481" />
   <stop
     id="stop3483"
     offset="0.36804965"
     style="stop-color:#1a1a1a;stop-opacity:1" />
   <stop
     style="stop-color:#31363b;stop-opacity:1"
     offset="1"
     id="stop3485" />
  </linearGradient>
  <linearGradient
    xlink:href="#linearGradient20604"
    id="linearGradient20558"
    gradientUnits="userSpaceOnUse"
    x1="25.802212"
    y1="20.373846"
    x2="25.111048"
    y2="58.912758" />
  <linearGradient
    id="linearGradient20604">
   <stop
     id="stop20598"
     offset="0"
     style="stop-color:#3d3d3d;stop-opacity:1" />
   <stop
     style="stop-color:#000000;stop-opacity:1"
     offset="0.61772454"
     id="stop20600" />
   <stop
     id="stop20602"
     offset="1"
     style="stop-color:#3d3d3d;stop-opacity:1" />
  </linearGradient>
  <filter
    style="color-interpolation-filters:sRGB"
    id="filter20720"
    x="-0.010581674"
    y="-0.010228895"
    width="1.0211629"
    height="1.0204578">
   <feGaussianBlur
     stdDeviation="6.8425754e-07"
     id="feGaussianBlur20722" />
  </filter>
  <linearGradient
    gradientTransform="translate(0.36067797,-0.13016949)"
    xlink:href="#linearGradient4555"
    id="linearGradient4557"
    x1="43.499737"
    y1="64.011795"
    x2="44.141731"
    y2="0.30621234"
    gradientUnits="userSpaceOnUse" />
  <linearGradient
    id="linearGradient4555">
   <stop
     style="stop-color:#141618;stop-opacity:1"
     offset="0"
     id="stop4551" />
   <stop
     id="stop4559"
     offset="0.51820582"
     style="stop-color:#686868;stop-opacity:1" />
   <stop
     style="stop-color:#31363b;stop-opacity:1"
     offset="1"
     id="stop4553" />
  </linearGradient>
  <filter
    style="color-interpolation-filters:sRGB"
    id="filter4601"
    x="-0.029677642"
    width="1.0593553"
    y="-0.02953604"
    height="1.0590721">
   <feGaussianBlur
     stdDeviation="7.3117907e-07"
     id="feGaussianBlur4603" />
  </filter>
 </defs>
 <rect
   style="display:inline;fill:#4f4f4f;fill-opacity:1;fill-rule:evenodd;stroke:none;stroke-width:0.617;stroke-linejoin:round;stroke-miterlimit:7.8"
   id="rect1192"
   width="27.986261"
   height="28.403553"
   x="2.1033354"
   y="2.0072956"
   ry="0" />
 <path
   opacity="0.2"
   d="m 14.047487,7.3533499 h 10.64 v 3.9899331 h -7.98 v 3.325067 h 3.989601 v 2.66 h -3.989601 v 7.315 h -2.66 z"
   id="path3"
   style="stroke-width:0.665" />
 <path
   fill="#ff6363"
   d="m 14.047487,6.6883499 h 10.64 v 3.9899331 h -7.98 v 3.325067 h 3.989601 v 2.66 h -3.989601 v 7.315 h -2.66 z"
   id="path4"
   style="stroke-width:0.665" />
 <circle
   opacity="0.2"
   cx="24.121284"
   cy="23.860224"
   r="5.5560164"
   id="circle4"
   style="stroke-width:0.505092" />
 <circle
   fill="#3f92e7"
   cx="24.121284"
   cy="23.355131"
   r="5.5560164"
   id="circle5"
   style="stroke-width:0.505092" />
 <path
   fill="#ffffff"
   d="m 23.336878,20.324073 -0.0668,0.798248 a 2.381157,2.3811571 0 0 0 -0.695916,0.402503 l -0.725515,-0.341619 -0.757638,1.312331 0.65869,0.457462 a 2.381157,2.3811571 0 0 0 -0.03637,0.401649 2.381157,2.3811571 0 0 0 0.03465,0.403342 l -0.657125,0.456098 0.757638,1.312331 0.723798,-0.340766 a 2.381157,2.3811571 0 0 0 0.697583,0.399958 l 0.06617,0.800066 h 1.515277 l 0.0668,-0.798248 a 2.381157,2.3811571 0 0 0 0.695916,-0.402498 l 0.725515,0.341614 0.757638,-1.312331 -0.658691,-0.457462 a 2.381157,2.3811571 0 0 0 0.03637,-0.401644 2.381157,2.3811571 0 0 0 -0.03465,-0.403342 l 0.657024,-0.45577 -0.757638,-1.312331 -0.723797,0.340771 a 2.381157,2.3811571 0 0 0 -0.697533,-0.399024 l -0.0668,-0.799914 H 23.33619 Z m 0.757639,2.164674 a 0.86587987,0.86587988 0 0 1 0.86588,0.86588 0.86587987,0.86587988 0 0 1 -0.86588,0.86588 0.86587987,0.86587988 0 0 1 -0.86588,-0.86588 0.86587987,0.86587988 0 0 1 0.86588,-0.86588 z"
   id="path5"
   style="stroke-width:0.505092" />
 <path
   style="display:inline;mix-blend-mode:normal;fill:url(#linearGradient3403);fill-opacity:1;stroke:url(#linearGradient20558);stroke-width:1.16242;stroke-linecap:butt;stroke-linejoin:round;stroke-miterlimit:4;stroke-dasharray:none;stroke-opacity:1"
   d="M 4.7043071,3.9814882 4.6913695,60.80196 H 58.59546 l 1.022155,-2.866369 c 0,0 -23.87537,0.766388 -32.844441,-4.140386 C 16.257548,48.042344 11.401114,4.0978197 11.401114,4.0978197 Z"
   id="path1686"
   transform="matrix(0.5,0,0,0.5,0.06630362,0.01654936)" />
 <rect
   style="display:inline;fill:none;fill-opacity:1;stroke:url(#linearGradient4557);stroke-width:3.71366;stroke-linejoin:round;stroke-miterlimit:7.8;stroke-dasharray:none;stroke-opacity:0.995146"
   id="rect4539"
   width="62.566689"
   height="62.866646"
   x="1.0323594"
   y="0.59551275"
   ry="6.2447233"
   rx="5.8029528"
   transform="matrix(0.46839137,0,0,0.46743669,0.90638486,1.0268972)" />
</svg>
