<?xml version="1.0" encoding="UTF-8" standalone="no"?>
<!-- Created with Inkscape (http://www.inkscape.org/) -->

<svg
  width="32"
  height="32"
  version="1.1"
  viewBox="0 0 32 32"
  id="svg22"
  xmlns:xlink="http://www.w3.org/1999/xlink"
  xmlns="http://www.w3.org/2000/svg"
  xmlns:svg="http://www.w3.org/2000/svg">
 <defs
   id="defs12">
  <linearGradient
    id="linearGradient1005-3-3"
    x1="5.2535"
    x2="9.3823996"
    y1="15.383"
    y2="2.9421"
    gradientTransform="matrix(0.99999,0,0,0.99999,1.632,-0.61743)"
    gradientUnits="userSpaceOnUse">
   <stop
     stop-color="#fa8200"
     offset="0"
     id="stop2" />
   <stop
     stop-color="#ff9600"
     offset=".36953"
     id="stop4" />
   <stop
     stop-color="#ffb400"
     offset="1"
     id="stop6" />
  </linearGradient>
  <filter
    id="filter4014"
    x="-0.062499933"
    y="-0.057692993"
    width="1.1249999"
    height="1.115386"
    color-interpolation-filters="sRGB">
   <feGaussianBlur
     stdDeviation="1.093751"
     id="feGaussianBlur9" />
  </filter>
  <linearGradient
    xlink:href="#linearGradient3487"
    id="linearGradient3403"
    gradientUnits="userSpaceOnUse"
    x1="6.9491749"
    y1="4.5549412"
    x2="11.215498"
    y2="59.052471" />
  <linearGradient
    id="linearGradient3487">
   <stop
     style="stop-color:#32373c;stop-opacity:1"
     offset="0"
     id="stop3481" />
   <stop
     id="stop3483"
     offset="0.36804965"
     style="stop-color:#1a1a1a;stop-opacity:1" />
   <stop
     style="stop-color:#31363b;stop-opacity:1"
     offset="1"
     id="stop3485" />
  </linearGradient>
  <linearGradient
    xlink:href="#linearGradient20604"
    id="linearGradient20558"
    gradientUnits="userSpaceOnUse"
    x1="25.802212"
    y1="20.373846"
    x2="25.111048"
    y2="58.912758" />
  <linearGradient
    id="linearGradient20604">
   <stop
     id="stop20598"
     offset="0"
     style="stop-color:#3d3d3d;stop-opacity:1" />
   <stop
     style="stop-color:#000000;stop-opacity:1"
     offset="0.61772454"
     id="stop20600" />
   <stop
     id="stop20602"
     offset="1"
     style="stop-color:#3d3d3d;stop-opacity:1" />
  </linearGradient>
  <linearGradient
    gradientTransform="translate(0.36067797,-0.13016949)"
    xlink:href="#linearGradient4555"
    id="linearGradient4557"
    x1="43.499737"
    y1="64.011795"
    x2="44.141731"
    y2="0.30621234"
    gradientUnits="userSpaceOnUse" />
  <linearGradient
    id="linearGradient4555">
   <stop
     style="stop-color:#141618;stop-opacity:1"
     offset="0"
     id="stop4551" />
   <stop
     id="stop4559"
     offset="0.51820582"
     style="stop-color:#686868;stop-opacity:1" />
   <stop
     style="stop-color:#31363b;stop-opacity:1"
     offset="1"
     id="stop4553" />
  </linearGradient>
  <filter
    style="color-interpolation-filters:sRGB"
    id="filter4601"
    x="-0.029677699"
    width="1.0593554"
    y="-0.029536097"
    height="1.0590722">
   <feGaussianBlur
     stdDeviation="2.224382e-06"
     id="feGaussianBlur4603" />
  </filter>
  <filter
    id="filter5877"
    x="-2.357507"
    y="-2.3296077"
    width="5.7150141"
    height="5.6592153"
    color-interpolation-filters="sRGB">
   <feGaussianBlur
     stdDeviation="0.28543518"
     id="feGaussianBlur1374" />
  </filter>
  <filter
    id="filter976"
    x="-2.357507"
    y="-2.3296077"
    width="5.715014"
    height="5.6592155"
    color-interpolation-filters="sRGB">
   <feGaussianBlur
     stdDeviation="0.28543518"
     id="feGaussianBlur974" />
  </filter>
  <filter
    id="filter980"
    x="-2.357507"
    y="-2.3296077"
    width="5.715014"
    height="5.6592155"
    color-interpolation-filters="sRGB">
   <feGaussianBlur
     stdDeviation="0.28543518"
     id="feGaussianBlur978" />
  </filter>
  <filter
    id="filter984"
    x="-2.357507"
    y="-2.3296077"
    width="5.715014"
    height="5.6592155"
    color-interpolation-filters="sRGB">
   <feGaussianBlur
     stdDeviation="0.28543518"
     id="feGaussianBlur982" />
  </filter>
  <filter
    id="filter988"
    x="-2.357507"
    y="-2.3296077"
    width="5.715014"
    height="5.6592155"
    color-interpolation-filters="sRGB">
   <feGaussianBlur
     stdDeviation="0.28543518"
     id="feGaussianBlur986" />
  </filter>
  <filter
    id="filter992"
    x="-2.357507"
    y="-2.3296077"
    width="5.715014"
    height="5.6592155"
    color-interpolation-filters="sRGB">
   <feGaussianBlur
     stdDeviation="0.28543518"
     id="feGaussianBlur990" />
  </filter>
  <filter
    id="filter996"
    x="-2.357507"
    y="-2.3296077"
    width="5.715014"
    height="5.6592155"
    color-interpolation-filters="sRGB">
   <feGaussianBlur
     stdDeviation="0.28543518"
     id="feGaussianBlur994" />
  </filter>
  <filter
    id="filter1000"
    x="-2.357507"
    y="-2.3296077"
    width="5.715014"
    height="5.6592155"
    color-interpolation-filters="sRGB">
   <feGaussianBlur
     stdDeviation="0.28543518"
     id="feGaussianBlur998" />
  </filter>
  <filter
    id="filter1004"
    x="-2.357507"
    y="-2.3296077"
    width="5.715014"
    height="5.6592155"
    color-interpolation-filters="sRGB">
   <feGaussianBlur
     stdDeviation="0.28543518"
     id="feGaussianBlur1002" />
  </filter>
  <filter
    id="filter1008"
    x="-2.357507"
    y="-2.3296077"
    width="5.715014"
    height="5.6592155"
    color-interpolation-filters="sRGB">
   <feGaussianBlur
     stdDeviation="0.28543518"
     id="feGaussianBlur1006" />
  </filter>
  <filter
    id="filter1012"
    x="-2.357507"
    y="-2.3296077"
    width="5.715014"
    height="5.6592155"
    color-interpolation-filters="sRGB">
   <feGaussianBlur
     stdDeviation="0.28543518"
     id="feGaussianBlur1010" />
  </filter>
  <filter
    id="filter1016"
    x="-2.357507"
    y="-2.3296077"
    width="5.715014"
    height="5.6592155"
    color-interpolation-filters="sRGB">
   <feGaussianBlur
     stdDeviation="0.28543518"
     id="feGaussianBlur1014" />
  </filter>
  <filter
    id="filter1020"
    x="-2.357507"
    y="-2.3296077"
    width="5.715014"
    height="5.6592155"
    color-interpolation-filters="sRGB">
   <feGaussianBlur
     stdDeviation="0.28543518"
     id="feGaussianBlur1018" />
  </filter>
  <filter
    id="filter1024"
    x="-2.357507"
    y="-2.3296077"
    width="5.715014"
    height="5.6592155"
    color-interpolation-filters="sRGB">
   <feGaussianBlur
     stdDeviation="0.28543518"
     id="feGaussianBlur1022" />
  </filter>
  <filter
    id="filter1028"
    x="-2.357507"
    y="-2.3296077"
    width="5.715014"
    height="5.6592155"
    color-interpolation-filters="sRGB">
   <feGaussianBlur
     stdDeviation="0.28543518"
     id="feGaussianBlur1026" />
  </filter>
  <linearGradient
    xlink:href="#linearGradient1278"
    id="linearGradient1280"
    x1="23"
    y1="45"
    x2="25"
    y2="3"
    gradientUnits="userSpaceOnUse"
    gradientTransform="matrix(0.6562066,0,0,0.6562066,0.04476819,-0.03712485)" />
  <linearGradient
    id="linearGradient1278">
   <stop
     style="stop-color:#42506c;stop-opacity:1;"
     offset="0"
     id="stop1274" />
   <stop
     style="stop-color:#455372;stop-opacity:0.66408366;"
     offset="1"
     id="stop1276" />
  </linearGradient>
  <filter
    id="filter5815"
    x="-0.055005962"
    y="-0.11783287"
    width="1.1100119"
    height="1.2356657"
    color-interpolation-filters="sRGB">
   <feGaussianBlur
     stdDeviation="0.19020097"
     id="feGaussianBlur1371" />
  </filter>
 </defs>
 <rect
   style="display:inline;fill:#313b51;fill-opacity:1;fill-rule:evenodd;stroke:none;stroke-width:0.608842;stroke-linejoin:round;stroke-miterlimit:7.8"
   id="rect1192"
   width="27.616194"
   height="28.027967"
   x="2.3358667"
   y="2.1982572"
   ry="0" />
 <g
   id="g964"
   transform="translate(0.62705016,0.7406458)">
  <ellipse
    cx="8.3550997"
    cy="7.1348"
    rx="0.84224999"
    ry="0.85237002"
    stroke-width="0.017683"
    id="ellipse1397"
    transform="matrix(1.9901587,0,0,1.9901587,-1.027494,1.3352204)"
    style="opacity:0.25;fill:#2e3440;filter:url(#filter5877)" />
  <ellipse
    cx="8.3550997"
    cy="7.1348"
    rx="0.68221998"
    ry="0.69041997"
    opacity="0.075"
    stroke-width="0.014323"
    id="ellipse1399"
    transform="matrix(1.9901587,0,0,1.9901587,-0.98641139,1.4687447)"
    style="fill:#2e3440;filter:url(#filter5877)" />
  <ellipse
    cx="8.3550997"
    cy="7.1348"
    rx="0.18161"
    ry="0.18379"
    opacity="0.2125"
    stroke-width="0.0038128"
    id="ellipse1401"
    transform="matrix(1.9901587,0,0,1.9901587,-0.98641139,1.4687447)"
    style="fill:#2e3440;filter:url(#filter5877)" />
  <ellipse
    cx="8.3550997"
    cy="8.2214003"
    rx="0.14529"
    ry="0.14703"
    id="ellipse1403"
    transform="matrix(1.9901587,0,0,1.9901587,-0.98641139,1.4687447)"
    style="opacity:0.125;fill:#2e3440;stroke-width:0.0030502;filter:url(#filter5877)" />
  <ellipse
    cx="8.3550997"
    cy="6.0479999"
    rx="0.14529"
    ry="0.14703"
    id="ellipse1405"
    transform="matrix(1.9901587,0,0,1.9901587,-0.98641139,1.4687447)"
    style="opacity:0.125;fill:#2e3440;stroke-width:0.0030502;filter:url(#filter5877)" />
  <ellipse
    transform="matrix(0,1.9901587,-1.9901587,0,-0.98641139,1.4687447)"
    cx="7.1346998"
    cy="-7.2684002"
    rx="0.14529"
    ry="0.14703"
    id="ellipse1407"
    style="opacity:0.125;fill:#2e3440;stroke-width:0.0030502;filter:url(#filter5877)" />
  <ellipse
    transform="matrix(0,1.9901587,-1.9901587,0,-0.98641139,1.4687447)"
    cx="7.1346998"
    cy="-9.4418001"
    rx="0.14529"
    ry="0.14703"
    id="ellipse1409"
    style="opacity:0.125;fill:#2e3440;stroke-width:0.0030502;filter:url(#filter5877)" />
  <ellipse
    transform="matrix(-0.9950795,1.7235281,-1.7235281,-0.9950795,-0.98641139,1.4687447)"
    cx="2.0013001"
    cy="-9.7164001"
    rx="0.14529"
    ry="0.14703"
    id="ellipse1411"
    style="opacity:0.125;fill:#2e3440;stroke-width:0.0030502;filter:url(#filter5877)" />
  <ellipse
    transform="matrix(-0.9950795,1.7235281,-1.7235281,-0.9950795,-0.98641139,1.4687447)"
    cx="2.0013001"
    cy="-11.89"
    rx="0.14529"
    ry="0.14703"
    id="ellipse1413"
    style="opacity:0.125;fill:#2e3440;stroke-width:0.0030502;filter:url(#filter5877)" />
  <ellipse
    transform="matrix(-1.7235281,0.9950795,-0.9950795,-1.7235281,-0.98641139,1.4687447)"
    cx="-3.6684"
    cy="-9.2697001"
    rx="0.14529"
    ry="0.14703"
    id="ellipse1415"
    style="opacity:0.125;fill:#2e3440;stroke-width:0.0030502;filter:url(#filter5877)" />
  <ellipse
    transform="matrix(-1.7235281,0.9950795,-0.9950795,-1.7235281,-0.98641139,1.4687447)"
    cx="-3.6684"
    cy="-11.443"
    rx="0.14529"
    ry="0.14703"
    id="ellipse1417"
    style="opacity:0.125;fill:#2e3440;stroke-width:0.0030502;filter:url(#filter5877)" />
  <ellipse
    transform="matrix(-1.7235281,-0.9950795,0.9950795,-1.7235281,-0.98641139,1.4687447)"
    cx="-10.803"
    cy="-0.91459"
    rx="0.14529"
    ry="0.14703"
    id="ellipse1419"
    style="opacity:0.125;fill:#2e3440;stroke-width:0.0030502;filter:url(#filter5877)" />
  <ellipse
    transform="matrix(-1.7235281,-0.9950795,0.9950795,-1.7235281,-0.98641139,1.4687447)"
    cx="-10.803"
    cy="-3.0880001"
    rx="0.14529"
    ry="0.14703"
    id="ellipse1421"
    style="opacity:0.125;fill:#2e3440;stroke-width:0.0030502;filter:url(#filter5877)" />
  <ellipse
    transform="matrix(-0.9950795,-1.7235281,1.7235281,-0.9950795,-0.98641139,1.4687447)"
    cx="-10.356"
    cy="4.7550998"
    rx="0.14529"
    ry="0.14703"
    id="ellipse1423"
    style="opacity:0.125;fill:#2e3440;stroke-width:0.0030502;filter:url(#filter5877)" />
  <ellipse
    transform="matrix(-0.9950795,-1.7235281,1.7235281,-0.9950795,-0.98641139,1.4687447)"
    cx="-10.356"
    cy="2.5817001"
    rx="0.14529"
    ry="0.14703"
    id="ellipse1425"
    style="opacity:0.125;fill:#2e3440;stroke-width:0.0030502;filter:url(#filter5877)" />
  <rect
    x="2.0133879"
    y="1.931495"
    width="27.560677"
    height="27.560677"
    rx="13.780338"
    ry="13.780338"
    stroke-linecap="round"
    stroke-linejoin="round"
    stroke-width="2.24331"
    id="rect1431"
    style="fill:url(#linearGradient1280);fill-opacity:1" />
  <ellipse
    cx="15.641555"
    cy="15.668138"
    rx="9.0347204"
    ry="9.1431971"
    stroke-width="0.189682"
    id="ellipse1433"
    style="fill:#3c83c3;fill-opacity:1" />
  <ellipse
    cx="15.641555"
    cy="15.668138"
    rx="8.1311893"
    ry="8.2289066"
    stroke-width="0.170709"
    id="ellipse1435"
    style="fill:#9eadc7;fill-opacity:1" />
  <ellipse
    cx="15.641555"
    cy="15.668138"
    rx="2.6190481"
    ry="2.6504946"
    fill="#4c566a"
    opacity="0.3"
    stroke-width="0.0549833"
    id="ellipse1437" />
  <ellipse
    cx="15.641555"
    cy="15.668138"
    rx="1.6762109"
    ry="1.696352"
    fill="#eceff4"
    stroke-width="0.0351898"
    id="ellipse1439" />
  <ellipse
    cx="15.641555"
    cy="15.668138"
    rx="1.3577268"
    ry="1.3740458"
    fill="#4c566a"
    opacity="0.3"
    stroke-width="0.0285022"
    id="ellipse1441" />
  <ellipse
    cx="15.641555"
    cy="15.668138"
    rx="0.36143285"
    ry="0.36577144"
    fill="#4c566a"
    opacity="0.85"
    stroke-width="0.0075885"
    id="ellipse1443" />
  <ellipse
    cx="15.641555"
    cy="17.830622"
    rx="0.28915021"
    ry="0.29261327"
    id="ellipse1445"
    style="opacity:0.5;fill:#4c566a;stroke-width:0.00607024" />
  <ellipse
    cx="15.641555"
    cy="13.505219"
    rx="0.28915021"
    ry="0.29261327"
    id="ellipse1447"
    style="opacity:0.5;fill:#4c566a;stroke-width:0.00607024" />
  <ellipse
    transform="rotate(90)"
    cx="15.66793"
    cy="-13.47885"
    rx="0.28915021"
    ry="0.29261327"
    id="ellipse1449"
    style="opacity:0.5;fill:#4c566a;stroke-width:0.00607024" />
  <ellipse
    transform="rotate(90)"
    cx="15.66793"
    cy="-17.804266"
    rx="0.28915021"
    ry="0.29261327"
    id="ellipse1451"
    style="opacity:0.5;fill:#4c566a;stroke-width:0.00607024" />
  <ellipse
    transform="rotate(120)"
    cx="5.748075"
    cy="-19.2173"
    rx="0.28915021"
    ry="0.29261327"
    id="ellipse1453"
    style="opacity:0.5;fill:#4c566a;stroke-width:0.00607024" />
  <ellipse
    transform="rotate(120)"
    cx="5.748075"
    cy="-23.543097"
    rx="0.28915021"
    ry="0.29261327"
    id="ellipse1455"
    style="opacity:0.5;fill:#4c566a;stroke-width:0.00607024" />
  <ellipse
    transform="rotate(150)"
    cx="-5.7120662"
    cy="-19.226925"
    rx="0.28915021"
    ry="0.29261327"
    id="ellipse1457"
    style="opacity:0.5;fill:#4c566a;stroke-width:0.00607024" />
  <ellipse
    transform="rotate(150)"
    cx="-5.7120662"
    cy="-23.552149"
    rx="0.28915021"
    ry="0.29261327"
    id="ellipse1459"
    style="opacity:0.5;fill:#4c566a;stroke-width:0.00607024" />
  <ellipse
    transform="rotate(-150)"
    cx="-21.37978"
    cy="-3.5853546"
    rx="0.28915021"
    ry="0.29261327"
    id="ellipse1461"
    style="opacity:0.5;fill:#4c566a;stroke-width:0.00607024" />
  <ellipse
    transform="rotate(-150)"
    cx="-21.37978"
    cy="-7.9107823"
    rx="0.28915021"
    ry="0.29261327"
    id="ellipse1463"
    style="opacity:0.5;fill:#4c566a;stroke-width:0.00607024" />
  <ellipse
    transform="rotate(-120)"
    cx="-21.388868"
    cy="7.8747759"
    rx="0.28915021"
    ry="0.29261327"
    id="ellipse1465"
    style="opacity:0.5;fill:#4c566a;stroke-width:0.00607024" />
  <ellipse
    transform="rotate(-120)"
    cx="-21.388868"
    cy="3.5493631"
    rx="0.28915021"
    ry="0.29261327"
    id="ellipse1467"
    style="opacity:0.5;fill:#4c566a;stroke-width:0.00607024" />
  <path
    d="m 11.547619,10.514684 -7.8399012,2.7123 c -0.057374,0.01156 -0.11241,0.03144 -0.16331,0.059 l -0.019074,0.0071 0.00124,0.0035 c -0.084175,0.04958 -0.15369,0.11942 -0.20222,0.20319 -0.16065,0.27805 -0.056565,0.63878 0.23244,0.80557 0.13922,0.08019 0.30344,0.10369 0.45634,0.06531 l 0.00101,0.0019 0.00858,-0.0046 c 0.08912,-0.02371 0.17067,-0.06771 0.23815,-0.12849 l 8.469e-4,-5.43e-4 z"
    fill="#2e3440"
    filter="url(#filter5815)"
    opacity="0.25"
    id="path1473"
    style="stroke-width:0.11841"
    transform="matrix(1.8275106,0,0,1.8275106,0.33502257,0.24466658)" />
  <path
    d="M 21.228245,19.166134 6.9007504,24.122909 c -0.1048257,0.0217 -0.2054418,0.05742 -0.2984501,0.108096 l -0.034871,0.01541 0.00256,0.0076 c -0.1538156,0.09039 -0.2808743,0.218203 -0.3695632,0.371289 -0.2935908,0.508136 -0.1033952,1.167374 0.4247871,1.472188 0.2544257,0.146682 0.5545392,0.189673 0.8339664,0.119468 l 0.0019,0.0041 0.015605,-0.01 c 0.1628934,-0.0436 0.3119009,-0.123505 0.4352205,-0.234816 l 0.00157,-9.84e-4 z"
    fill="#d8dee9"
    id="path1475"
    style="stroke-width:0.216387" />
  <path
    d="M 21.228245,19.166134 6.9007504,24.122909 c -0.1048257,0.0217 -0.2054418,0.05742 -0.2984501,0.108096 l -0.034871,0.01541 0.00256,0.0076 c -0.1538156,0.09039 -0.2808743,0.218203 -0.3695632,0.371289 -0.2935908,0.508136 -0.1033952,1.167374 0.4247871,1.472188 0.2544257,0.146682 0.5545392,0.189673 0.8339664,0.119468 l 0.0019,0.0041 0.015605,-0.01 c 0.1628934,-0.0436 0.3119009,-0.123505 0.4352205,-0.234816 l 0.00157,-9.84e-4 z"
    fill="#2e3440"
    opacity="0.15"
    id="path1477"
    style="stroke-width:0.216387" />
  <ellipse
    cx="7.1516666"
    cy="25.266356"
    rx="0.44174567"
    ry="0.44704568"
    opacity="0.5"
    id="ellipse1481"
    style="fill:#4c566a;stroke-width:0.00927443" />
 </g>
 <path
   style="display:inline;mix-blend-mode:normal;fill:url(#linearGradient3403);fill-opacity:1;stroke:url(#linearGradient20558);stroke-width:1.16242;stroke-linecap:butt;stroke-linejoin:round;stroke-miterlimit:4;stroke-dasharray:none;stroke-opacity:1"
   d="M 4.7043071,3.9814882 4.6913695,60.80196 H 58.59546 l 1.022155,-2.866369 c 0,0 -23.87537,0.766388 -32.844441,-4.140386 C 16.257548,48.042344 11.401114,4.0978197 11.401114,4.0978197 Z"
   id="path1686"
   transform="matrix(0.49338842,0,0,0.49338842,0.32577076,0.23383489)" />
 <rect
   style="display:inline;fill:none;fill-opacity:1;stroke:url(#linearGradient4557);stroke-width:3.71366;stroke-linejoin:round;stroke-miterlimit:7.8;stroke-dasharray:none;stroke-opacity:0.995146"
   id="rect4539"
   width="62.566689"
   height="62.866646"
   x="1.0323594"
   y="0.59551275"
   ry="6.2447233"
   rx="5.8029528"
   transform="matrix(0.46219776,0,0,0.4612557,1.1547435,1.2308227)" />
</svg>
