<?xml version="1.0" encoding="UTF-8" standalone="no"?>
<!-- Created with Inkscape (http://www.inkscape.org/) -->

<svg
  width="32"
  height="32"
  version="1.1"
  viewBox="0 0 32 32"
  id="svg22"
  xmlns:xlink="http://www.w3.org/1999/xlink"
  xmlns="http://www.w3.org/2000/svg"
  xmlns:svg="http://www.w3.org/2000/svg">
 <defs
   id="defs12">
  <linearGradient
    id="linearGradient917">
   <stop
     style="stop-color:#000000;stop-opacity:0.99607843"
     offset="0"
     id="stop913" />
   <stop
     style="stop-color:#353a3f;stop-opacity:0.99607843"
     offset="1"
     id="stop915" />
  </linearGradient>
  <linearGradient
    id="linearGradient1005-3-3"
    x1="5.2535"
    x2="9.3823996"
    y1="15.383"
    y2="2.9421"
    gradientTransform="matrix(0.99999,0,0,0.99999,1.632,-0.61743)"
    gradientUnits="userSpaceOnUse">
   <stop
     stop-color="#fa8200"
     offset="0"
     id="stop2" />
   <stop
     stop-color="#ff9600"
     offset=".36953"
     id="stop4" />
   <stop
     stop-color="#ffb400"
     offset="1"
     id="stop6" />
  </linearGradient>
  <filter
    id="filter4014"
    x="-0.062499933"
    y="-0.057692993"
    width="1.1249999"
    height="1.115386"
    color-interpolation-filters="sRGB">
   <feGaussianBlur
     stdDeviation="1.093751"
     id="feGaussianBlur9" />
  </filter>
  <linearGradient
    xlink:href="#linearGradient3487"
    id="linearGradient3403"
    gradientUnits="userSpaceOnUse"
    x1="6.9491749"
    y1="4.5549412"
    x2="11.215498"
    y2="59.052471" />
  <linearGradient
    id="linearGradient3487">
   <stop
     style="stop-color:#32373c;stop-opacity:1"
     offset="0"
     id="stop3481" />
   <stop
     id="stop3483"
     offset="0.36804965"
     style="stop-color:#1a1a1a;stop-opacity:1" />
   <stop
     style="stop-color:#31363b;stop-opacity:1"
     offset="1"
     id="stop3485" />
  </linearGradient>
  <linearGradient
    xlink:href="#linearGradient20604"
    id="linearGradient20558"
    gradientUnits="userSpaceOnUse"
    x1="25.802212"
    y1="20.373846"
    x2="25.111048"
    y2="58.912758" />
  <linearGradient
    id="linearGradient20604">
   <stop
     id="stop20598"
     offset="0"
     style="stop-color:#3d3d3d;stop-opacity:1" />
   <stop
     style="stop-color:#000000;stop-opacity:1"
     offset="0.61772454"
     id="stop20600" />
   <stop
     id="stop20602"
     offset="1"
     style="stop-color:#3d3d3d;stop-opacity:1" />
  </linearGradient>
  <filter
    style="color-interpolation-filters:sRGB"
    id="filter20720"
    x="-0.01058975"
    y="-0.010236701"
    width="1.021179"
    height="1.0204734">
   <feGaussianBlur
     stdDeviation="0.00018550226"
     id="feGaussianBlur20722" />
  </filter>
  <linearGradient
    gradientTransform="translate(0.36067797,-0.13016949)"
    xlink:href="#linearGradient4555"
    id="linearGradient4557"
    x1="43.499737"
    y1="64.011795"
    x2="44.141731"
    y2="0.30621234"
    gradientUnits="userSpaceOnUse" />
  <linearGradient
    id="linearGradient4555">
   <stop
     style="stop-color:#141618;stop-opacity:1"
     offset="0"
     id="stop4551" />
   <stop
     id="stop4559"
     offset="0.51820582"
     style="stop-color:#686868;stop-opacity:1" />
   <stop
     style="stop-color:#31363b;stop-opacity:1"
     offset="1"
     id="stop4553" />
  </linearGradient>
  <filter
    style="color-interpolation-filters:sRGB"
    id="filter4601"
    x="-0.029685217"
    width="1.0593704"
    y="-0.029543579"
    height="1.0590872">
   <feGaussianBlur
     stdDeviation="0.00019822269"
     id="feGaussianBlur4603" />
  </filter>
  <linearGradient
    xlink:href="#linearGradient917"
    id="linearGradient919"
    x1="7.400631"
    y1="41.743092"
    x2="33.063145"
    y2="7.1074457"
    gradientUnits="userSpaceOnUse"
    gradientTransform="scale(0.665)" />
  <linearGradient
    xlink:href="#linearGradient4283"
    id="linearGradient4298"
    x1="7.7779999"
    y1="33.234001"
    x2="12.567"
    y2="33.941002"
    gradientUnits="userSpaceOnUse" />
  <linearGradient
    id="linearGradient4283">
   <stop
     style="stop-color:#334545;stop-opacity:1"
     offset="0"
     id="stop43927" />
   <stop
     style="stop-color:#536161;stop-opacity:1"
     offset="1"
     id="stop43929" />
  </linearGradient>
  <linearGradient
    xlink:href="#linearGradient4283"
    id="linearGradient4290"
    x1="-43"
    y1="30"
    x2="-13"
    y2="10"
    gradientUnits="userSpaceOnUse" />
  <radialGradient
    xlink:href="#linearGradient3964"
    id="radialGradient4219"
    cx="41"
    cy="7"
    fx="41"
    fy="7"
    r="4"
    gradientUnits="userSpaceOnUse"
    gradientTransform="matrix(1.5,0,0,1.5,-20.5,-3.5)" />
  <linearGradient
    id="linearGradient3964">
   <stop
     offset="0"
     style="stop-color:#ffa92d;stop-opacity:1"
     id="stop43932" />
   <stop
     offset="1"
     style="stop-color:#f74028;stop-opacity:1"
     id="stop43934" />
  </linearGradient>
 </defs>
 <rect
   style="display:inline;fill:url(#linearGradient919);fill-opacity:1;fill-rule:evenodd;stroke:none;stroke-width:0.617;stroke-linejoin:round;stroke-miterlimit:7.8"
   id="rect1192"
   width="27.986261"
   height="28.403553"
   x="2.1033354"
   y="2.0072956"
   ry="0" />
 <g
   transform="matrix(0.665,0,0,0.665,0.84668615,-0.80192088)"
   id="g43952">
  <path
    style="color:#000000;font-style:normal;font-variant:normal;font-weight:normal;font-stretch:normal;font-size:medium;line-height:normal;font-family:Sans;-inkscape-font-specification:Sans;text-indent:0;text-align:start;text-decoration:none;text-decoration-line:none;letter-spacing:normal;word-spacing:normal;text-transform:none;writing-mode:lr-tb;direction:ltr;baseline-shift:baseline;text-anchor:start;display:inline;overflow:visible;visibility:visible;fill:#b0b8b8;fill-opacity:1;stroke:none;stroke-width:1px;marker:none;enable-background:accumulate"
    d="m 40.03125,7.028125 c -2.463176,-0.095122 -3.89681,0.020858 -4.8125,0.40625 -0.457845,0.1926959 -0.814003,0.4869204 -1,0.84375 -0.185997,0.3568296 -0.191548,0.742313 -0.15625,1.09375 0.07059,0.702874 0.934325,1.846496 0.9755,2.471875 0.04118,0.625379 -0.68322,1.164994 -1.38175,1.78125 v 0.03125 c -0.483983,0.483983 -0.839075,0.749477 -1.15625,1.03125 -0.317175,0.281773 -0.599001,0.576116 -0.90625,1.03125 l 0.8125,0.5625 c 0.257486,-0.381419 0.458359,-0.584661 0.75,-0.84375 0.291641,-0.259089 0.671483,-0.577733 1.1875,-1.09375 0.891715,-0.798888 1.748091,-1.744737 1.69425,-2.5625 -0.05428,-0.824465 -0.926346,-2.013733 -0.9755,-2.503125 -0.02458,-0.244696 -4.85e-4,-0.4104155 0.0625,-0.53125 0.06298,-0.1208345 0.158804,-0.2445512 0.46875,-0.375 0.619892,-0.2608976 1.967639,-0.4367164 4.375,-0.34375 z"
    id="path43942" />
  <rect
    style="fill:url(#linearGradient4298);fill-opacity:1;stroke:none"
    width="9"
    height="10"
    x="3.5699999"
    y="28.940001"
    rx="1"
    ry="1"
    transform="rotate(-45)"
    id="rect43944" />
  <rect
    style="fill:url(#linearGradient4290);fill-opacity:1;stroke:#808080;stroke-width:0;stroke-linecap:round;stroke-linejoin:round;stroke-miterlimit:4;stroke-dasharray:none;stroke-opacity:1"
    width="32"
    height="32"
    x="-45"
    y="3"
    rx="21"
    ry="21"
    transform="rotate(-90)"
    id="rect43946" />
  <path
    style="opacity:0.15;fill:#000000;fill-opacity:1;stroke:#808080;stroke-width:0;stroke-linecap:round;stroke-linejoin:round;stroke-miterlimit:4;stroke-dasharray:none;stroke-opacity:1"
    d="M 3.0253906,28.5 C 3.0202495,28.667553 3,28.831155 3,29 3,37.864 10.136,45 19,45 27.864,45 35,37.864 35,29 35,28.831155 34.97975,28.667553 34.97461,28.5 34.709854,37.128653 27.695155,44 19,44 10.304845,44 3.2901455,37.128653 3.0253906,28.5 Z"
    id="path43948" />
  <path
    style="opacity:1;fill:url(#radialGradient4219);fill-opacity:1;stroke:none;stroke-width:2;stroke-linecap:round;stroke-linejoin:round;stroke-miterlimit:4;stroke-dasharray:none;stroke-opacity:1"
    d="m 41,2.9999997 a 1,4 0 0 0 -0.853516,1.9375 A 4,1 45 0 0 38.171875,4.1718747 4,1 45 0 0 38.9375,6.1445309 4,1 0 0 0 37,6.9999997 4,1 0 0 0 38.9375,7.8535153 1,4 45 0 0 38.171875,9.8281247 1,4 45 0 0 40.144531,9.0624997 1,4 0 0 0 41,11 1,4 0 0 0 41.853516,9.0624997 4,1 45 0 0 43.828125,9.8281247 4,1 45 0 0 43.0625,7.8554685 4,1 0 0 0 45,6.9999997 4,1 0 0 0 43.0625,6.1464841 1,4 45 0 0 43.828125,4.1718747 1,4 45 0 0 41.855469,4.9374997 1,4 0 0 0 41,2.9999997 Z"
    id="path43950" />
 </g>
 <path
   style="display:inline;mix-blend-mode:normal;fill:url(#linearGradient3403);fill-opacity:1;stroke:url(#linearGradient20558);stroke-width:1.16242;stroke-linecap:butt;stroke-linejoin:round;stroke-miterlimit:4;stroke-dasharray:none;stroke-opacity:1"
   d="M 4.7043071,3.9814882 4.6913695,60.80196 H 58.59546 l 1.022155,-2.866369 c 0,0 -23.87537,0.766388 -32.844441,-4.140386 C 16.257548,48.042344 11.401114,4.0978197 11.401114,4.0978197 Z"
   id="path1686"
   transform="matrix(0.5,0,0,0.5,0.06630362,0.01654936)" />
 <rect
   style="display:inline;fill:none;fill-opacity:1;stroke:url(#linearGradient4557);stroke-width:3.71366;stroke-linejoin:round;stroke-miterlimit:7.8;stroke-dasharray:none;stroke-opacity:0.995146"
   id="rect4539"
   width="62.566689"
   height="62.866646"
   x="1.0323594"
   y="0.59551275"
   ry="6.2447233"
   rx="5.8029528"
   transform="matrix(0.46839137,0,0,0.46743669,0.90638486,1.0268972)" />
</svg>
