<?xml version="1.0" encoding="UTF-8" standalone="no"?>
<!-- Created with Inkscape (http://www.inkscape.org/) -->

<svg
  width="32"
  height="32"
  version="1.1"
  viewBox="0 0 32 32"
  id="svg22"
  xmlns:xlink="http://www.w3.org/1999/xlink"
  xmlns="http://www.w3.org/2000/svg"
  xmlns:svg="http://www.w3.org/2000/svg">
 <defs
   id="defs12">
  <linearGradient
    id="linearGradient1005-3-3"
    x1="5.2535"
    x2="9.3823996"
    y1="15.383"
    y2="2.9421"
    gradientTransform="matrix(0.99999,0,0,0.99999,1.632,-0.61743)"
    gradientUnits="userSpaceOnUse">
   <stop
     stop-color="#fa8200"
     offset="0"
     id="stop2" />
   <stop
     stop-color="#ff9600"
     offset=".36953"
     id="stop4" />
   <stop
     stop-color="#ffb400"
     offset="1"
     id="stop6" />
  </linearGradient>
  <filter
    id="filter4014"
    x="-0.062499933"
    y="-0.057692993"
    width="1.1249999"
    height="1.115386"
    color-interpolation-filters="sRGB">
   <feGaussianBlur
     stdDeviation="1.093751"
     id="feGaussianBlur9" />
  </filter>
  <linearGradient
    xlink:href="#linearGradient3487"
    id="linearGradient3403"
    gradientUnits="userSpaceOnUse"
    x1="6.9491749"
    y1="4.5549412"
    x2="11.215498"
    y2="59.052471" />
  <linearGradient
    id="linearGradient3487">
   <stop
     style="stop-color:#32373c;stop-opacity:1"
     offset="0"
     id="stop3481" />
   <stop
     id="stop3483"
     offset="0.36804965"
     style="stop-color:#1a1a1a;stop-opacity:1" />
   <stop
     style="stop-color:#31363b;stop-opacity:1"
     offset="1"
     id="stop3485" />
  </linearGradient>
  <linearGradient
    xlink:href="#linearGradient20604"
    id="linearGradient20558"
    gradientUnits="userSpaceOnUse"
    x1="25.802212"
    y1="20.373846"
    x2="25.111048"
    y2="58.912758" />
  <linearGradient
    id="linearGradient20604">
   <stop
     id="stop20598"
     offset="0"
     style="stop-color:#3d3d3d;stop-opacity:1" />
   <stop
     style="stop-color:#000000;stop-opacity:1"
     offset="0.61772454"
     id="stop20600" />
   <stop
     id="stop20602"
     offset="1"
     style="stop-color:#3d3d3d;stop-opacity:1" />
  </linearGradient>
  <filter
    style="color-interpolation-filters:sRGB"
    id="filter20720"
    x="-0.010675952"
    y="-0.01032003"
    width="1.0213514"
    height="1.0206401">
   <feGaussianBlur
     stdDeviation="0.0021583255"
     id="feGaussianBlur20722" />
  </filter>
  <linearGradient
    gradientTransform="translate(0.36067797,-0.13016949)"
    xlink:href="#linearGradient4555"
    id="linearGradient4557"
    x1="43.499737"
    y1="64.011795"
    x2="44.141731"
    y2="0.30621234"
    gradientUnits="userSpaceOnUse" />
  <linearGradient
    id="linearGradient4555">
   <stop
     style="stop-color:#141618;stop-opacity:1"
     offset="0"
     id="stop4551" />
   <stop
     id="stop4559"
     offset="0.51820582"
     style="stop-color:#686868;stop-opacity:1" />
   <stop
     style="stop-color:#31363b;stop-opacity:1"
     offset="1"
     id="stop4553" />
  </linearGradient>
  <filter
    style="color-interpolation-filters:sRGB"
    id="filter4601"
    x="-0.029766082"
    width="1.0595322"
    y="-0.029624058"
    height="1.0592481">
   <feGaussianBlur
     stdDeviation="0.0023063282"
     id="feGaussianBlur4603" />
  </filter>
  <linearGradient
    xlink:href="#d"
    id="e"
    x1="389.95999"
    x2="410.34"
    gradientUnits="userSpaceOnUse"
    gradientTransform="matrix(0.91926,-0.16589,0.15464,0.98614,-48.43,74.963)" />
  <linearGradient
    id="d"
    y1="525.26001"
    x1="395.91"
    y2="513.95001"
    x2="425.20999"
    gradientUnits="userSpaceOnUse"
    gradientTransform="translate(-384.57,-499.8)">
   <stop
     stop-color="#da4453"
     id="stop40198" />
   <stop
     offset="1"
     stop-color="#ff7336"
     id="stop40200" />
  </linearGradient>
  <linearGradient
    y2="537.95001"
    x2="422.73001"
    y1="509.79999"
    x1="394.57001"
    gradientTransform="translate(-384.57,-499.8)"
    gradientUnits="userSpaceOnUse"
    id="linearGradient40300"
    xlink:href="#a" />
  <linearGradient
    id="a"
    y1="509.79999"
    x1="394.57001"
    y2="537.95001"
    x2="422.73001"
    gradientUnits="userSpaceOnUse"
    gradientTransform="translate(-384.57,-499.8)">
   <stop
     stop-color="#e5e7e8"
     id="stop40187" />
   <stop
     offset="1"
     stop-color="#dcdee0"
     id="stop40189" />
  </linearGradient>
  <linearGradient
    id="b"
    x1="389.57001"
    x2="427.57001"
    gradientUnits="userSpaceOnUse"
    gradientTransform="matrix(0.70711,0.70711,-0.70711,0.70711,105.48,-635.28)">
   <stop
     stop-color="#fcfcfc"
     id="stop40192" />
   <stop
     offset="1"
     stop-color="#eff0f1"
     id="stop40194" />
  </linearGradient>
  <linearGradient
    xlink:href="#a"
    id="c"
    y1="-366.47"
    x1="387.13"
    y2="-339.14001"
    gradientUnits="userSpaceOnUse"
    x2="414.47" />
  <linearGradient
    y2="40.130001"
    x2="22"
    y1="27.554001"
    x1="9.4200001"
    gradientUnits="userSpaceOnUse"
    id="linearGradient40302"
    xlink:href="#g" />
  <linearGradient
    id="g"
    y1="27.554001"
    x1="9.4200001"
    y2="40.130001"
    x2="22"
    gradientUnits="userSpaceOnUse">
   <stop
     id="stop40209" />
   <stop
     offset="1"
     stop-opacity="0"
     id="stop40211" />
  </linearGradient>
  <linearGradient
    y2="513.95001"
    x2="425.20999"
    y1="525.26001"
    x1="395.91"
    gradientTransform="translate(-384.57,-499.8)"
    gradientUnits="userSpaceOnUse"
    id="linearGradient40304"
    xlink:href="#d" />
  <linearGradient
    id="f"
    y1="44.09"
    x1="26.362"
    y2="33.75"
    x2="44"
    gradientUnits="userSpaceOnUse">
   <stop
     stop-color="#c0392b"
     id="stop40204" />
   <stop
     offset="1"
     stop-color="#c0392b"
     stop-opacity="0"
     id="stop40206" />
  </linearGradient>
  <linearGradient
    id="i"
    y1="519.84998"
    x1="388.57001"
    y2="528.52002"
    x2="398.82001"
    gradientUnits="userSpaceOnUse">
   <stop
     stop-color="#4d4d4d"
     id="stop40215" />
   <stop
     offset="1"
     stop-color="#31363b"
     id="stop40217" />
  </linearGradient>
  <linearGradient
    xlink:href="#g"
    id="h"
    y1="27.554001"
    x1="9.4200001"
    y2="37"
    x2="18.865999"
    gradientUnits="userSpaceOnUse" />
 </defs>
 <rect
   style="display:inline;fill:#fdfdfd;fill-opacity:0.996078;fill-rule:evenodd;stroke:none;stroke-width:0.617;stroke-linejoin:round;stroke-miterlimit:7.8"
   id="rect1192"
   width="27.986261"
   height="28.403553"
   x="2.1033354"
   y="2.0072956"
   ry="0" />
 <g
   transform="matrix(0.665,0,0,0.665,-254.97775,-331.34757)"
   id="g40254">
  <path
    style="opacity:0.4;fill:#f9f9f9;stroke-width:8.587;stroke-opacity:0.55"
    d="m 24,17 c -1.788,0 -3.576,0.685 -4.945,2.055 -2.74,2.74 -2.74,7.151 0,9.891 2.74,2.74 7.151,2.74 9.891,0 2.74,-2.74 2.74,-7.151 0,-9.891 C 27.576,17.685 25.788,17 24.001,17 m -0.002,3.955078 a 3.00255,3.00255 0 0 1 3.00195,3.00391 3.00255,3.00255 0 0 1 -3.00195,3.00195 3.00255,3.00255 0 0 1 -3.00391,-3.00195 3.00255,3.00255 0 0 1 3.00391,-3.00391"
    transform="translate(384.57,499.8)"
    id="path40222" />
  <path
    style="fill:url(#e);fill-rule:evenodd"
    d="m 408.57,503.8 c -9.315,0.382 -9.927,1.46 -11.07,2.041 -1.537,0.778 -3.427,1.216 -3.229,-0.043 -0.654,0.239 -1.407,1.15 -0.769,2.29 0.638,1.14 -0.637,2.468 -1.25,1.749 -1.175,-1.375 -4.055,-0.296 -3.635,1.463 0.414,-0.414 2.341,-1.319 2.073,0.701 -0.268,2.02 -0.401,3.568 1.653,4.945 2.054,1.377 10.02,-0.016 10.02,-0.016 z"
    id="path40224" />
  <g
    style="stroke-width:8.587;stroke-opacity:0.55"
    id="g40232">
   <path
     style="fill:url(#linearGradient40300)"
     d="M 24,4 C 12.97,4 4.087,12.838 4.004,23.846 l 1.123,0.023 4.684,12.02 10.166,5.922 11.4,-0.707 7.779,-5.48 3.623,-12.02 L 40.658,14.942 34.469,7.311 32.906,6.155 32.64,5.969 C 30.024,4.718 27.103,3.998 23.999,3.998 m 0,5 c 8.31,0 15,6.69 15,15 0,8.31 -6.69,15 -15,15 -8.31,0 -15,-6.69 -15,-15 0,-8.31 6.69,-15 15,-15"
     transform="translate(384.57,499.8)"
     id="path40226" />
   <path
     style="fill:url(#b)"
     d="m 24,4.982 c -4.857,0 -9.714,1.861 -13.436,5.582 -7.443,7.443 -7.443,19.428 0,26.871 7.443,7.443 19.428,7.443 26.871,0 7.443,-7.443 7.443,-19.428 0,-26.871 C 33.714,6.843 28.856,4.982 23.999,4.982 m 0,13.02 c 1.532,0 3.064,0.588 4.238,1.762 2.348,2.348 2.348,6.128 0,8.477 -2.348,2.348 -6.128,2.348 -8.477,0 -2.348,-2.348 -2.348,-6.128 0,-8.477 1.174,-1.174 2.706,-1.762 4.238,-1.762"
     transform="translate(384.57,499.8)"
     id="path40228" />
   <path
     style="fill:url(#c)"
     d="m 24.1875,13 a 11,11 0 0 0 -0.779297,0.02734 11,11 0 0 0 -1.089844,0.132816 11,11 0 0 0 -1.074218,0.240235 11,11 0 0 0 -1.042971,0.347656 11,11 0 0 0 -1.0039,0.447265 11,11 0 0 0 -0.953129,0.548829 11,11 0 0 0 -0.894532,0.638671 11,11 0 0 0 -0.826171,0.726568 11,11 0 0 0 -0.748047,0.804682 11,11 0 0 0 -0.666011,0.875 11,11 0 0 0 -0.574224,0.9375 A 11,11 0 0 0 14.05664,19.716797 11,11 0 0 0 13.677734,20.75 11,11 0 0 0 13.40625,21.814453 11,11 0 0 0 13.242188,22.900391 11,11 0 0 0 13.1875,24 a 11,11 0 0 0 0.02734,0.779297 11,11 0 0 0 0.132812,1.089844 11,11 0 0 0 0.242188,1.074218 11,11 0 0 0 0.345703,1.042969 11,11 0 0 0 0.447265,1.003906 11,11 0 0 0 0.548829,0.953125 11,11 0 0 0 0.640625,0.894532 11,11 0 0 0 0.724609,0.826171 11,11 0 0 0 0.804685,0.748047 11,11 0 0 0 0.875002,0.666021 11,11 0 0 0 0.9375,0.574214 11,11 0 0 0 0.990235,0.478516 11,11 0 0 0 1.033203,0.378906 11,11 0 0 0 1.06445,0.271484 11,11 0 0 0 1.08594,0.164062 A 11,11 0 0 0 24.1875,35 a 11,11 0 0 0 0.779297,-0.02734 11,11 0 0 0 1.089843,-0.132812 11,11 0 0 0 1.07422,-0.242188 11,11 0 0 0 1.04297,-0.345706 11,11 0 0 0 1.0039,-0.447262 11,11 0 0 0 0.95313,-0.548828 11,11 0 0 0 0.89453,-0.640626 11,11 0 0 0 0.826172,-0.724609 11,11 0 0 0 0.748047,-0.804685 11,11 0 0 0 0.666021,-0.875 11,11 0 0 0 0.574214,-0.9375 A 11,11 0 0 0 34.31836,28.2832 11,11 0 0 0 34.697266,27.25 11,11 0 0 0 34.96875,26.18555 11,11 0 0 0 35.13281,25.09961 11,11 0 0 0 35.1875,24 11,11 0 0 0 35.16016,23.2207 11,11 0 0 0 35.02734,22.13086 11,11 0 0 0 34.785156,21.05664 11,11 0 0 0 34.439453,20.01367 11,11 0 0 0 33.992188,19.00977 11,11 0 0 0 33.443359,18.05664 11,11 0 0 0 32.804688,17.16211 11,11 0 0 0 32.07813,16.335938 11,11 0 0 0 31.27344,15.587891 11,11 0 0 0 30.398438,14.921875 11,11 0 0 0 29.460938,14.347656 11,11 0 0 0 28.470703,13.869141 11,11 0 0 0 27.4375,13.490234 11,11 0 0 0 26.373047,13.21875 11,11 0 0 0 25.287109,13.05469 11,11 0 0 0 24.1875,13 m -0.1915,4.998 c 1.533,0 3.064,0.585 4.244,1.76 2.348,2.352 2.348,6.135 0,8.482 -2.351,2.351 -6.13,2.351 -8.484,0 -2.349,-2.347 -2.349,-6.13 0,-8.482 1.175,-1.175 2.707,-1.76 4.24,-1.76"
     transform="translate(384.57,499.8)"
     id="path40230" />
  </g>
  <g
    style="fill-rule:evenodd"
    id="g40238">
   <path
     style="opacity:0.4;fill:url(#linearGradient40302)"
     d="M 17.625,22.875 4.064,25.543 C 4.848,35.896 13.44,44 24,44 c 4.193,0 8.07,-1.281 11.281,-3.469 l -10.58,-10.58 a 6,6 0 0 1 -0.701172,0.04883 6,6 0 0 1 -6,-6 6,6 0 0 1 0.04492,-0.705078 z"
     transform="translate(384.57,499.8)"
     id="path40234" />
   <path
     style="fill:url(#linearGradient40304)"
     d="m 32.467,5.887 c 0.626,0.575 1.438,1.404 1.939,2.301 0.875,1.563 0.75,4.281 -1.938,4.781 -2.688,0.5 -2.79,-0.415 -2.781,-1.5 -1.429,0.197 -2.068,3.364 0.438,4.469 2.125,0.938 2.906,0.563 6.906,0.313 4,-0.25 4.469,4.625 2.594,5.375 -1.875,0.75 -2.591,-0.587 -2.469,-1.313 -1.503,0.587 -1.686,2.224 -0.938,3 5.847,6.06 3.043,10.739 1.438,11.219 -1.989,0.594 -3.391,-0.584 -2.375,-2.156 0.828,-1.281 0.113,-3.394 -0.893,-4.143 -1.01,-0.748 -2.96,-0.569 -3.795,-0.014 1.204,0.455 2.969,1.156 2.5,2.719 -0.362,1.207 -1.548,1.967 -3.03,1.938 -3.379,-0.066 -2.309,-3.119 -1.844,-3.469 -1.816,-0.225 -3.03,3.089 -1.844,4.219 1.166,1.112 2.805,1.733 1.813,3.438 -1.041,1.788 -2.5,2.75 -5,2.25 -2.5,-0.5 -3.875,-2.094 -3.563,-3.563 0.313,-1.469 1.042,-1.665 2.313,-1.688 -0.792,-1.679 -4.688,-1.688 -4.625,1.219 0.032,1.501 -2.481,1.748 -3.531,0.063 -1.188,-1.906 -0.183,-2.722 1.156,-2.406 0.09,-2.122 -1.719,-1.094 -2.188,-3.438 -0.469,-2.344 3.438,-4.125 3.438,-4.125 L 4.034,25.134 c 0.584,10.548 9.268,18.867 19.967,18.867 11.08,0 20,-8.92 20,-20 0,-8.05 -4.715,-14.934 -11.533,-18.11"
     transform="translate(384.57,499.8)"
     id="path40236" />
  </g>
  <path
    style="fill:url(#f);stroke-width:8.587;stroke-opacity:0.55"
    d="m 4.01,23.5 c -0.004,0.167 -0.012,0.332 -0.012,0.5 0,11.08 8.92,20 20,20 11.08,0 20,-8.92 20,-20 0,-0.168 -0.008,-0.333 -0.012,-0.5 C 43.721,34.346 34.906,43 23.998,43 13.086,43 4.274,34.346 4.01,23.5"
    transform="translate(384.57,499.8)"
    id="path40240" />
  <g
    style="color:#000000;stroke-width:3;stroke-linejoin:round"
    id="g40246">
   <path
     style="fill:url(#i)"
     d="m 388.94,519.85 c -0.241,1.277 -0.373,2.594 -0.373,3.943 0,1.349 0.132,2.666 0.373,3.943 l 11.627,-1.943 c 1.095,-0.168 2,-0.892 2,-2 0,-1.108 -0.905,-1.832 -2,-2 z"
     id="path40242" />
   <circle
     style="fill:#27ae60;stroke-linecap:round"
     cx="400.57001"
     cy="523.79999"
     r="1"
     id="circle40244" />
  </g>
  <path
    style="opacity:0.1;stroke-width:8.587;stroke-opacity:0.55"
    d="m 408.57,520.75 c -1.659,-10e-4 -3,1.345 -3,3 -10e-4,0.173 0.014,0.345 0.043,0.516 0.237,-1.452 1.49,-2.518 2.961,-2.52 1.46,0 2.709,1.05 2.959,2.488 0.027,-0.16 0.042,-0.322 0.043,-0.484 10e-4,-1.659 -1.343,-3 -3,-3"
    id="path40248" />
  <path
    style="opacity:0.2;fill:url(#h);fill-rule:evenodd"
    d="m 18.04,23.291 c -0.21,1.761 0.359,3.595 1.715,4.951 1.356,1.356 3.191,1.925 4.951,1.715 L 24.7,29.951 c -0.233,0.03 -6.685,-6.422 -6.656,-6.656 z"
    transform="translate(384.57,499.8)"
    id="path40250" />
  <path
    style="fill:#95a5a6;stroke-width:8.587;stroke-opacity:0.55"
    d="m 412.57,523.8 c 0,1.022 -0.391,2.043 -1.174,2.826 -0.783,0.783 -1.804,1.174 -2.826,1.174 v 1 c 1.277,0 2.555,-0.488 3.533,-1.467 0.978,-0.978 1.467,-2.256 1.467,-3.533 z"
    id="path40252" />
 </g>
 <path
   style="display:inline;mix-blend-mode:normal;fill:url(#linearGradient3403);fill-opacity:1;stroke:url(#linearGradient20558);stroke-width:1.16242;stroke-linecap:butt;stroke-linejoin:round;stroke-miterlimit:4;stroke-dasharray:none;stroke-opacity:1"
   d="M 4.7043071,3.9814882 4.6913695,60.80196 H 58.59546 l 1.022155,-2.866369 c 0,0 -23.87537,0.766388 -32.844441,-4.140386 C 16.257548,48.042344 11.401114,4.0978197 11.401114,4.0978197 Z"
   id="path1686"
   transform="matrix(0.5,0,0,0.5,0.06630362,0.01654936)" />
 <rect
   style="display:inline;fill:none;fill-opacity:1;stroke:url(#linearGradient4557);stroke-width:3.71366;stroke-linejoin:round;stroke-miterlimit:7.8;stroke-dasharray:none;stroke-opacity:0.995146"
   id="rect4539"
   width="62.566689"
   height="62.866646"
   x="1.0323594"
   y="0.59551275"
   ry="6.2447233"
   rx="5.8029528"
   transform="matrix(0.46839137,0,0,0.46743669,0.90638486,1.0268972)" />
</svg>
