<svg width="32" height="32" version="1.1" viewBox="0 0 32 32" xmlns="http://www.w3.org/2000/svg" xmlns:xlink="http://www.w3.org/1999/xlink">
<defs>
<linearGradient id="linearGradient3403" x1="6.9492" x2="11.215" y1="4.5549" y2="59.052" gradientUnits="userSpaceOnUse">
<stop style="stop-color:#32373c" offset="0"/>
<stop style="stop-color:#1a1a1a" offset=".36805"/>
<stop style="stop-color:#31363b" offset="1"/>
</linearGradient>
<linearGradient id="linearGradient20558" x1="25.802" x2="25.111" y1="20.374" y2="58.913" gradientUnits="userSpaceOnUse">
<stop style="stop-color:#3d3d3d" offset="0"/>
<stop offset=".61772"/>
<stop style="stop-color:#3d3d3d" offset="1"/>
</linearGradient>
<linearGradient id="linearGradient4557" x1="43.5" x2="44.142" y1="64.012" y2=".30621" gradientTransform="translate(.36068 -.13017)" gradientUnits="userSpaceOnUse">
<stop style="stop-color:#141618" offset="0"/>
<stop style="stop-color:#686868" offset=".51821"/>
<stop style="stop-color:#31363b" offset="1"/>
</linearGradient>
<linearGradient id="linearGradient919" x1="7.4006" x2="33.063" y1="41.743" y2="7.1074" gradientTransform="scale(.665)" gradientUnits="userSpaceOnUse">
<stop style="stop-opacity:.99608" offset="0"/>
<stop style="stop-color:#353a3f;stop-opacity:.99608" offset="1"/>
</linearGradient>
<linearGradient id="c" x1="61.163" x2="64.928" y1="105.11" y2="109.04" gradientUnits="userSpaceOnUse">
<stop stop-color="#e6e6e6" offset="0"/>
<stop stop-color="#b3b3b3" offset="1"/>
</linearGradient>
<linearGradient id="d" x1="77.167" x2="64.372" y1="115.71" y2="112" gradientUnits="userSpaceOnUse">
<stop stop-color="#0cf" offset="0"/>
<stop stop-color="#2a7fff" offset="1"/>
</linearGradient>
<linearGradient id="e" x1="68.707" x2="75.819" y1="113.06" y2="117.91" gradientUnits="userSpaceOnUse">
<stop stop-color="#2a7fff" offset="0"/>
<stop stop-color="#0cf" offset="1"/>
</linearGradient>
<linearGradient id="g" x1="77.401" x2="68.67" y1="106.37" y2="120.36" gradientUnits="userSpaceOnUse" xlink:href="#f"/>
<linearGradient id="f">
<stop stop-color="#fff" offset="0"/>
<stop stop-color="#b3b3b3" offset="1"/>
</linearGradient>
<linearGradient id="h" x1="68.229" x2="68.164" y1="112.73" y2="118.55" gradientUnits="userSpaceOnUse">
<stop stop-color="#b3b3b3" offset="0"/>
<stop stop-color="#fff" offset="1"/>
</linearGradient>
<linearGradient id="i" x1="63.367" x2="71.136" y1="106.86" y2="104.89" gradientUnits="userSpaceOnUse" xlink:href="#f"/>
<linearGradient id="j" x1="66.951" x2="66.336" y1="104.46" y2="109.67" gradientUnits="userSpaceOnUse">
<stop stop-color="#ccc" offset="0"/>
<stop stop-color="#b3b3b3" offset="1"/>
</linearGradient>
<linearGradient id="k" x1="62.961" x2="77.488" y1="115.88" y2="107.31" gradientUnits="userSpaceOnUse">
<stop stop-color="#e6e6e6" offset="0"/>
<stop stop-color="#fff" offset="1"/>
</linearGradient>
</defs>
<rect x="2.1033" y="2.0073" width="27.986" height="28.404" ry="0" style="fill-rule:evenodd;fill:url(#linearGradient919)"/>
<g transform="matrix(.25387 0 0 .25387 -10.793 -39.429)">
<g transform="matrix(3.9992 0 0 3.9039 -158.55 -226.07)" stroke-width=".26458">
<path d="m65.429 109.92c-0.79474-2.5809-5.2859-1.9546-6.0367-2.0106 0.8426-0.40914 1.6041-0.74639 3.3411-1.9773 3.3463-2.3712 6.8892-1.8541 8.6634-0.91242-4.8503 0.18036-3.9263 2.7652-3.2119 4.1271-0.90852 0.25814-2.3427 0.64782-2.7559 0.77319z" fill="url(#c)" style="fill:url(#c)"/>
<path d="m77.401 106.37c-1.7466 2.2567-4.6505 5.3057-7.8287 5.7074-3.1782 0.40163-6.208-0.0433-6.9099 2.272-0.64633 2.1322 1.6269 4.1229 3.9846 3.6431 2.5188-0.51257 1.9748-3.3051 0.59714-5.2068 1.0465-0.0587 0.85181-0.0435 2.6264-0.131 2.6451 2.2055 3.5219 2.8343 8.143 6.0521-3.5612-0.36484-4.8573-0.69982-7.4114-2.1943 0.66167 1.6246 2.0759 5.3119 2.3822 8.1728-1.4732-2.0706-2.0316-2.8316-4.3147-4.3254-2.9244-1.9135-5.2929-1.9783-6.6637-4.7974-1.3679-2.8131 0.44269-4.8394 3.6825-5.717 4.63-1.2541 8.6193-2.4431 11.712-3.4755z" fill="url(#d)" style="fill:url(#d)"/>
<path d="m67.245 112.78c1.0465-0.0587 0.85181-0.0435 2.6264-0.131 2.6451 2.2055 3.5219 2.8343 8.143 6.0521-4.6449-0.32503-8.1593-1.6651-10.769-5.9211z" fill="url(#e)" style="fill:url(#e)"/>
<path d="m77.401 106.37c-1.7466 2.2567-4.6505 5.3057-7.8287 5.7074-3.1782 0.40163-6.208-0.0433-6.9099 2.272-0.64633 2.1322 1.6269 4.1229 3.9846 3.6431 2.5188-0.51257 1.9748-3.3051 0.59714-5.2068 1.0465-0.0587 0.85181-0.0435 2.6264-0.131 2.6451 2.2055 3.5219 2.8343 8.143 6.0521-3.5612-0.36484-4.8573-0.69982-7.4114-2.1943 0.66167 1.6246 2.0759 5.3119 2.3822 8.1728-1.4732-2.0706-2.0316-2.8316-4.3147-4.3254-2.9244-1.9135-5.2929-1.9783-6.6637-4.7974-1.3679-2.8131 0.44269-4.8394 3.6825-5.717 4.63-1.2541 8.6193-2.4431 11.712-3.4755z" fill="url(#g)" style="fill:url(#g)"/>
<path d="m67.245 112.78c1.0465-0.0587 0.85181-0.0435 2.6264-0.131 2.6451 2.2055 3.5219 2.8343 8.143 6.0521-4.6449-0.32503-8.1593-1.6651-10.769-5.9211z" fill="url(#h)" style="fill:url(#h)"/>
<path d="m59.392 107.91c0.8426-0.40914 1.6041-0.74639 3.3411-1.9773 3.3463-2.3712 6.8892-1.8541 8.6634-0.91242-4.8503 0.18036-4.2254 1.1257-4.2433 1.8668-3.2226-0.66446-4.1635 0.2396-7.7612 1.0229z" fill="url(#i)" style="fill:url(#i)"/>
<path d="m71.397 105.02c-4.8503 0.18036-3.9263 2.7652-3.2119 4.1271-0.56601 0.16082-1.1795 0.34403-1.9361 0.53991-3.0529-5.3212 2.6563-6.0134 5.148-4.667z" fill="url(#j)" style="fill:url(#j)"/>
<path d="m62.88 116.89c-2.3735-2.9895-1.9352-5.7296 2.7124-7.1533 4.5864-1.4049 8.716-2.3324 11.809-3.3648-8.3473 3.1111-18.8 5.19-14.522 10.518z" fill="url(#k)" style="fill:url(#k)"/>
</g>
</g>
<path transform="matrix(.5 0 0 .5 .066304 .016549)" d="m4.7043 3.9815-0.012938 56.82h53.904l1.0222-2.8664s-23.875 0.76639-32.844-4.1404c-10.516-5.7529-15.372-49.697-15.372-49.697z" style="fill:url(#linearGradient3403);mix-blend-mode:normal;stroke-linejoin:round;stroke-width:1.1624;stroke:url(#linearGradient20558)"/>
<rect transform="matrix(.46839 0 0 .46744 .90638 1.0269)" x="1.0324" y=".59551" width="62.567" height="62.867" rx="5.803" ry="6.2447" style="fill:none;stroke-linejoin:round;stroke-miterlimit:7.8;stroke-opacity:.99515;stroke-width:3.7137;stroke:url(#linearGradient4557)"/>
</svg>
