<?xml version="1.0" encoding="UTF-8" standalone="no"?>
<!-- Created with Inkscape (http://www.inkscape.org/) -->

<svg
  width="32"
  height="32"
  version="1.1"
  viewBox="0 0 32 32"
  id="svg22"
  xmlns:xlink="http://www.w3.org/1999/xlink"
  xmlns="http://www.w3.org/2000/svg"
  xmlns:svg="http://www.w3.org/2000/svg">
 <defs
   id="defs12">
  <linearGradient
    xlink:href="#linearGradient3487"
    id="linearGradient3403"
    gradientUnits="userSpaceOnUse"
    x1="6.9491749"
    y1="4.5549412"
    x2="11.215498"
    y2="59.052471" />
  <linearGradient
    id="linearGradient3487">
   <stop
     style="stop-color:#32373c;stop-opacity:1"
     offset="0"
     id="stop3481" />
   <stop
     id="stop3483"
     offset="0.36804965"
     style="stop-color:#1a1a1a;stop-opacity:1" />
   <stop
     style="stop-color:#31363b;stop-opacity:1"
     offset="1"
     id="stop3485" />
  </linearGradient>
  <linearGradient
    xlink:href="#linearGradient20604"
    id="linearGradient20558"
    gradientUnits="userSpaceOnUse"
    x1="25.802212"
    y1="20.373846"
    x2="25.111048"
    y2="58.912758" />
  <linearGradient
    id="linearGradient20604">
   <stop
     id="stop20598"
     offset="0"
     style="stop-color:#3d3d3d;stop-opacity:1" />
   <stop
     style="stop-color:#000000;stop-opacity:1"
     offset="0.61772454"
     id="stop20600" />
   <stop
     id="stop20602"
     offset="1"
     style="stop-color:#3d3d3d;stop-opacity:1" />
  </linearGradient>
  <filter
    style="color-interpolation-filters:sRGB"
    id="filter20720"
    x="-0.010582364"
    y="-0.010229562"
    width="1.0211643"
    height="1.0204591">
   <feGaussianBlur
     stdDeviation="1.6475827e-05"
     id="feGaussianBlur20722" />
  </filter>
  <linearGradient
    gradientTransform="translate(0.36067797,-0.13016949)"
    xlink:href="#linearGradient4555"
    id="linearGradient4557"
    x1="43.499737"
    y1="64.011795"
    x2="44.141731"
    y2="0.30621234"
    gradientUnits="userSpaceOnUse" />
  <linearGradient
    id="linearGradient4555">
   <stop
     style="stop-color:#141618;stop-opacity:1"
     offset="0"
     id="stop4551" />
   <stop
     id="stop4559"
     offset="0.51820582"
     style="stop-color:#686868;stop-opacity:1" />
   <stop
     style="stop-color:#31363b;stop-opacity:1"
     offset="1"
     id="stop4553" />
  </linearGradient>
  <filter
    style="color-interpolation-filters:sRGB"
    id="filter4601"
    x="-0.029678289"
    width="1.0593566"
    y="-0.029536684"
    height="1.0590734">
   <feGaussianBlur
     stdDeviation="1.7605623e-05"
     id="feGaussianBlur4603" />
  </filter>
 </defs>
 <rect
   x="2.996032"
   y="1.8817534"
   width="27.572727"
   height="27.522865"
   rx="1.2392242"
   ry="1.1528834"
   stroke-width="1.85923"
   id="rect24"
   style="display:inline;fill:#57a27f;fill-opacity:1" />
 <g
   id="g1"
   transform="scale(0.66499999)">
  <path
    style="opacity:0.2;stroke-width:1.35256"
    d="m 9.5135727,2.8297048 c -0.6092521,0 -2.1209196,0.00432 -2.70511,0.00432 V 33.23037 c 0,0.654006 -0.00176,3.138532 -0.00176,4.107219 H 14.923795 V 2.8297021 Z"
    id="path2" />
  <path
    style="opacity:0.2;stroke-width:1.35256"
    d="m 27.096791,10.827003 v 9.467887 l 9.017035,-9.467887 7.213627,1.2173 -12.459902,12.308252 12.459902,12.172997 -7.213627,1.352555 -9.017035,-9.467886 v 8.115331 L 21.68657,37.878107 V 12.044303 Z"
    id="path4" />
  <path
    style="fill:#ffffff;stroke-width:1.35256"
    d="M 27.096791,9.4744477 V 18.942334 L 36.113826,9.4744477 43.327453,10.691747 30.867551,23 43.327453,35.172997 36.113826,36.525552 27.096791,27.057666 v 8.115331 L 21.68657,36.525552 V 10.691747 Z"
    id="path5" />
 </g>
 <path
   style="display:inline;mix-blend-mode:normal;fill:url(#linearGradient3403);fill-opacity:1;stroke:url(#linearGradient20558);stroke-width:1.16242;stroke-linecap:butt;stroke-linejoin:round;stroke-miterlimit:4;stroke-dasharray:none;stroke-opacity:1"
   d="M 4.7043071,3.9814882 4.6913695,60.80196 H 58.59546 l 1.022155,-2.866369 c 0,0 -23.87537,0.766388 -32.844441,-4.140386 C 16.257548,48.042344 11.401114,4.0978197 11.401114,4.0978197 Z"
   id="path1686"
   transform="matrix(0.49513179,0,0,0.4942364,0.32252972,0.23139084)" />
 <rect
   style="display:inline;fill:none;fill-opacity:1;stroke:url(#linearGradient4557);stroke-width:3.71366;stroke-linejoin:round;stroke-miterlimit:7.8;stroke-dasharray:none;stroke-opacity:0.995146"
   id="rect4539"
   width="62.566689"
   height="62.866646"
   x="1.0323594"
   y="0.59551275"
   ry="6.2447233"
   rx="5.8029528"
   transform="matrix(0.46383092,0,0,0.46204845,1.1544315,1.2300922)" />
</svg>
