<?xml version="1.0" encoding="UTF-8" standalone="no"?>
<!-- Created with Inkscape (http://www.inkscape.org/) -->

<svg
  width="32"
  height="32"
  version="1.1"
  viewBox="0 0 32 32"
  id="svg22"
  xmlns:xlink="http://www.w3.org/1999/xlink"
  xmlns="http://www.w3.org/2000/svg"
  xmlns:svg="http://www.w3.org/2000/svg">
 <defs
   id="defs12">
  <linearGradient
    id="linearGradient917">
   <stop
     style="stop-color:#000000;stop-opacity:0.99607843"
     offset="0"
     id="stop913" />
   <stop
     style="stop-color:#353a3f;stop-opacity:0.99607843"
     offset="1"
     id="stop915" />
  </linearGradient>
  <linearGradient
    id="linearGradient1005-3-3"
    x1="5.2535"
    x2="9.3823996"
    y1="15.383"
    y2="2.9421"
    gradientTransform="matrix(0.99999,0,0,0.99999,1.632,-0.61743)"
    gradientUnits="userSpaceOnUse">
   <stop
     stop-color="#fa8200"
     offset="0"
     id="stop2" />
   <stop
     stop-color="#ff9600"
     offset=".36953"
     id="stop4" />
   <stop
     stop-color="#ffb400"
     offset="1"
     id="stop6" />
  </linearGradient>
  <filter
    id="filter4014"
    x="-0.062499933"
    y="-0.057692993"
    width="1.1249999"
    height="1.115386"
    color-interpolation-filters="sRGB">
   <feGaussianBlur
     stdDeviation="1.093751"
     id="feGaussianBlur9" />
  </filter>
  <linearGradient
    xlink:href="#linearGradient3487"
    id="linearGradient3403"
    gradientUnits="userSpaceOnUse"
    x1="6.9491749"
    y1="4.5549412"
    x2="11.215498"
    y2="59.052471" />
  <linearGradient
    id="linearGradient3487">
   <stop
     style="stop-color:#32373c;stop-opacity:1"
     offset="0"
     id="stop3481" />
   <stop
     id="stop3483"
     offset="0.36804965"
     style="stop-color:#1a1a1a;stop-opacity:1" />
   <stop
     style="stop-color:#31363b;stop-opacity:1"
     offset="1"
     id="stop3485" />
  </linearGradient>
  <linearGradient
    xlink:href="#linearGradient20604"
    id="linearGradient20558"
    gradientUnits="userSpaceOnUse"
    x1="25.802212"
    y1="20.373846"
    x2="25.111048"
    y2="58.912758" />
  <linearGradient
    id="linearGradient20604">
   <stop
     id="stop20598"
     offset="0"
     style="stop-color:#3d3d3d;stop-opacity:1" />
   <stop
     style="stop-color:#000000;stop-opacity:1"
     offset="0.61772454"
     id="stop20600" />
   <stop
     id="stop20602"
     offset="1"
     style="stop-color:#3d3d3d;stop-opacity:1" />
  </linearGradient>
  <filter
    style="color-interpolation-filters:sRGB"
    id="filter20720"
    x="-0.010581677"
    y="-0.010228898"
    width="1.0211629"
    height="1.0204578">
   <feGaussianBlur
     stdDeviation="7.4938968e-07"
     id="feGaussianBlur20722" />
  </filter>
  <linearGradient
    gradientTransform="translate(0.36067797,-0.13016949)"
    xlink:href="#linearGradient4555"
    id="linearGradient4557"
    x1="43.499737"
    y1="64.011795"
    x2="44.141731"
    y2="0.30621234"
    gradientUnits="userSpaceOnUse" />
  <linearGradient
    id="linearGradient4555">
   <stop
     style="stop-color:#141618;stop-opacity:1"
     offset="0"
     id="stop4551" />
   <stop
     id="stop4559"
     offset="0.51820582"
     style="stop-color:#686868;stop-opacity:1" />
   <stop
     style="stop-color:#31363b;stop-opacity:1"
     offset="1"
     id="stop4553" />
  </linearGradient>
  <filter
    style="color-interpolation-filters:sRGB"
    id="filter4601"
    x="-0.029677644"
    width="1.0593553"
    y="-0.029536043"
    height="1.0590721">
   <feGaussianBlur
     stdDeviation="8.0077751e-07"
     id="feGaussianBlur4603" />
  </filter>
  <linearGradient
    xlink:href="#linearGradient917"
    id="linearGradient919"
    x1="7.400631"
    y1="41.743092"
    x2="33.063145"
    y2="7.1074457"
    gradientUnits="userSpaceOnUse"
    gradientTransform="scale(0.665)" />
  <linearGradient
    gradientTransform="matrix(0.97222222,0,0,0.975,0.66666667,0.6)"
    y2="21.905001"
    x2="5.928"
    y1="34.487999"
    x1="21.796"
    gradientUnits="userSpaceOnUse"
    id="linearGradient4241"
    xlink:href="#linearGradient4211" />
  <linearGradient
    id="linearGradient4211">
   <stop
     offset="0"
     style="stop-color:#172525;stop-opacity:1"
     id="stop37100" />
   <stop
     offset="1"
     style="stop-color:#334545;stop-opacity:1"
     id="stop37102" />
  </linearGradient>
  <linearGradient
    gradientUnits="userSpaceOnUse"
    y2="25.25"
    x2="13.173"
    y1="59.820999"
    x1="39.597"
    id="linearGradient4225"
    xlink:href="#linearGradient4174" />
  <linearGradient
    id="linearGradient4174">
   <stop
     style="stop-color:#172525;stop-opacity:1"
     offset="0"
     id="stop37085" />
   <stop
     style="stop-color:#394d4d;stop-opacity:1"
     offset="1"
     id="stop37087" />
  </linearGradient>
  <linearGradient
    xlink:href="#linearGradient4456"
    id="linearGradient4481"
    x1="13.076"
    y1="32.973999"
    x2="19.142"
    y2="43.480999"
    gradientUnits="userSpaceOnUse" />
  <linearGradient
    id="linearGradient4456">
   <stop
     style="stop-color:#000000;stop-opacity:1;"
     offset="0"
     id="stop37090" />
   <stop
     style="stop-color:#000000;stop-opacity:0;"
     offset="1"
     id="stop37092" />
  </linearGradient>
  <linearGradient
    xlink:href="#linearGradient4456"
    id="linearGradient4470"
    x1="8.6619997"
    y1="20"
    x2="14.783"
    y2="26.122"
    gradientUnits="userSpaceOnUse" />
  <linearGradient
    gradientUnits="userSpaceOnUse"
    y2="9.1359997"
    x2="0.204"
    y1="42.16"
    x1="42.960999"
    id="linearGradient4217"
    xlink:href="#linearGradient4180" />
  <linearGradient
    id="linearGradient4180">
   <stop
     style="stop-color:#172525;stop-opacity:1"
     offset="0"
     id="stop37080" />
   <stop
     style="stop-color:#354848;stop-opacity:1"
     offset="1"
     id="stop37082" />
  </linearGradient>
  <linearGradient
    gradientUnits="userSpaceOnUse"
    y2="9.6730003"
    x2="11.236"
    y1="31.120001"
    x1="36.446999"
    id="linearGradient4233"
    xlink:href="#linearGradient4211" />
  <linearGradient
    xlink:href="#linearGradient4432"
    id="linearGradient4438"
    x1="8.8079996"
    y1="15.038"
    x2="17.167999"
    y2="35.845001"
    gradientUnits="userSpaceOnUse" />
  <linearGradient
    id="linearGradient4432">
   <stop
     style="stop-color:#eff1f1;stop-opacity:1"
     offset="0"
     id="stop37095" />
   <stop
     style="stop-color:#6f8181;stop-opacity:1"
     offset="1"
     id="stop37097" />
  </linearGradient>
 </defs>
 <rect
   style="display:inline;fill:url(#linearGradient919);fill-opacity:1;fill-rule:evenodd;stroke:none;stroke-width:0.617;stroke-linejoin:round;stroke-miterlimit:7.8"
   id="rect1192"
   width="27.986261"
   height="28.403553"
   x="2.1033354"
   y="2.0072956"
   ry="0" />
 <g
   transform="matrix(0.665,0,0,0.665,2.9490098,0.35310226)"
   id="g37166">
  <path
    d="M 24,4.5 6.5,14.25 v 19.5 L 24,43.5 41.5,33.75 v -19.5 z"
    style="opacity:1;fill:url(#linearGradient4241);fill-opacity:1;stroke:none;stroke-width:2;stroke-linecap:round;stroke-linejoin:round;stroke-miterlimit:4;stroke-dasharray:none;stroke-opacity:1"
    id="path37114" />
  <path
    d="M 6,14 V 34 L 24,44 V 24 Z"
    style="opacity:1;fill:url(#linearGradient4225);fill-opacity:1;stroke:none;stroke-width:2;stroke-linecap:round;stroke-linejoin:round;stroke-miterlimit:4;stroke-dasharray:none;stroke-opacity:1"
    id="path37116" />
  <path
    style="opacity:0.4;fill:url(#linearGradient4481);fill-opacity:1;stroke:none;stroke-width:2;stroke-linecap:round;stroke-linejoin:round;stroke-miterlimit:4;stroke-dasharray:none;stroke-opacity:1"
    d="m 18.322266,23.238281 -0.259766,6.117188 -3.208984,0.296875 -1.90625,1.685547 3.697265,3.697265 -2.855469,-0.634765 -0.351562,0.460937 -0.525391,0.871094 4.742188,4.742187 L 24,44 V 42.390625 42.195312 28.916016 Z"
    id="path37118" />
  <path
    style="opacity:0.4;fill:url(#linearGradient4470);fill-opacity:1;stroke:none;stroke-width:2;stroke-linecap:round;stroke-linejoin:round;stroke-miterlimit:4;stroke-dasharray:none;stroke-opacity:1"
    d="M 12.736328,20.974609 7.9804688,21.830078 24,37.849609 v -6.839843 z"
    id="path37120" />
  <path
    transform="matrix(0.73773055,0,0,0.70988157,16.947796,-1.411355)"
    style="opacity:1;fill:url(#linearGradient4217);fill-opacity:1;stroke:none;stroke-width:2;stroke-linecap:round;stroke-linejoin:round;stroke-miterlimit:4;stroke-dasharray:none;stroke-opacity:1"
    d="M 9.5593231,7.6228981 33.958475,21.709756 9.5593216,35.796612 -14.839829,21.709754 Z"
    id="path37122" />
  <path
    style="opacity:1;fill:url(#linearGradient4233);fill-opacity:1;stroke:none;stroke-width:2;stroke-linecap:round;stroke-linejoin:round;stroke-miterlimit:4;stroke-dasharray:none;stroke-opacity:1"
    d="M 42,14 V 34 L 24,44 V 24 Z"
    id="path37124" />
  <path
    d="m 6,33 v 1 L 24,44 42,34 V 33 L 24,43 Z"
    style="opacity:0.15;fill:#000000;fill-opacity:1;stroke:none;stroke-width:2;stroke-linecap:round;stroke-linejoin:round;stroke-miterlimit:4;stroke-dasharray:none;stroke-opacity:1"
    id="path37126" />
  <path
    d="M 14.949067,20.728048 C 13.024893,19.617126 11.226249,19.079771 9.956341,19.283351 8.686419,19.4898 8.006344,20.431489 8,21.856335 c 0,0 3.960377,2.286525 3.960377,2.286525 0.0034,-0.773734 0.320149,-1.093416 0.787498,-1.170115 0.467348,-0.07598 1.145482,0.08189 2.190118,0.68501 1.044635,0.60312 1.720693,1.227095 2.184969,1.840948 0.464276,0.613854 0.776512,1.297373 0.773067,2.071107 -0.003,0.671908 -0.183122,0.854762 -0.42305,0.97002 -0.23993,0.115259 -0.63212,0.128949 -1.215237,0.09495 -0.583116,-0.03399 -1.358069,-0.132732 -2.075258,0.07219 -0.717189,0.204928 -1.254973,0.831921 -1.259596,1.870259 0,0 -0.0033,0.732859 -0.0033,0.732859 0,0 3.960377,2.286525 3.960377,2.286525 0,0 0.0033,-0.73286 0.0033,-0.73286 0.0019,-0.427382 0.08478,-0.452146 0.298847,-0.513317 0.214071,-0.06117 0.680987,-0.04035 1.336991,-0.0017 0.656004,0.03869 1.504126,0.07902 2.196272,-0.254671 0.692146,-0.333696 1.135862,-1.076826 1.141034,-2.238502 0.0063,-1.424847 -0.662861,-3.145543 -1.923452,-4.812984 -1.261576,-1.668009 -3.055782,-3.202111 -4.979956,-4.313034 m -2.034019,12.05249 c 0,0 -0.01305,2.93144 -0.01305,2.93144 0,0 3.960377,2.286525 3.960377,2.286525 0,0 0.01305,-2.93144 0.01305,-2.93144 0,0 -3.960377,-2.286525 -3.960377,-2.286525"
    style="fill:url(#linearGradient4438);fill-opacity:1;stroke-width:2;stroke-linejoin:round"
    id="path37128" />
 </g>
 <path
   style="display:inline;mix-blend-mode:normal;fill:url(#linearGradient3403);fill-opacity:1;stroke:url(#linearGradient20558);stroke-width:1.16242;stroke-linecap:butt;stroke-linejoin:round;stroke-miterlimit:4;stroke-dasharray:none;stroke-opacity:1"
   d="M 4.7043071,3.9814882 4.6913695,60.80196 H 58.59546 l 1.022155,-2.866369 c 0,0 -23.87537,0.766388 -32.844441,-4.140386 C 16.257548,48.042344 11.401114,4.0978197 11.401114,4.0978197 Z"
   id="path1686"
   transform="matrix(0.5,0,0,0.5,0.06630362,0.01654936)" />
 <rect
   style="display:inline;fill:none;fill-opacity:1;stroke:url(#linearGradient4557);stroke-width:3.71366;stroke-linejoin:round;stroke-miterlimit:7.8;stroke-dasharray:none;stroke-opacity:0.995146"
   id="rect4539"
   width="62.566689"
   height="62.866646"
   x="1.0323594"
   y="0.59551275"
   ry="6.2447233"
   rx="5.8029528"
   transform="matrix(0.46839137,0,0,0.46743669,0.90638486,1.0268972)" />
</svg>
