<?xml version="1.0" encoding="UTF-8" standalone="no"?>
<!-- Created with Inkscape (http://www.inkscape.org/) -->

<svg
  width="32"
  height="32"
  version="1.1"
  viewBox="0 0 32 32"
  id="svg22"
  xmlns:xlink="http://www.w3.org/1999/xlink"
  xmlns="http://www.w3.org/2000/svg"
  xmlns:svg="http://www.w3.org/2000/svg">
 <defs
   id="defs12">
  <linearGradient
    id="linearGradient1005-3-3"
    x1="5.2535"
    x2="9.3823996"
    y1="15.383"
    y2="2.9421"
    gradientTransform="matrix(0.99999,0,0,0.99999,1.632,-0.61743)"
    gradientUnits="userSpaceOnUse">
   <stop
     stop-color="#fa8200"
     offset="0"
     id="stop2" />
   <stop
     stop-color="#ff9600"
     offset=".36953"
     id="stop4" />
   <stop
     stop-color="#ffb400"
     offset="1"
     id="stop6" />
  </linearGradient>
  <filter
    id="filter4014"
    x="-0.062499933"
    y="-0.057692993"
    width="1.1249999"
    height="1.115386"
    color-interpolation-filters="sRGB">
   <feGaussianBlur
     stdDeviation="1.093751"
     id="feGaussianBlur9" />
  </filter>
  <linearGradient
    xlink:href="#linearGradient3487"
    id="linearGradient3403"
    gradientUnits="userSpaceOnUse"
    x1="6.9491749"
    y1="4.5549412"
    x2="11.215498"
    y2="59.052471" />
  <linearGradient
    id="linearGradient3487">
   <stop
     style="stop-color:#32373c;stop-opacity:1"
     offset="0"
     id="stop3481" />
   <stop
     id="stop3483"
     offset="0.36804965"
     style="stop-color:#1a1a1a;stop-opacity:1" />
   <stop
     style="stop-color:#31363b;stop-opacity:1"
     offset="1"
     id="stop3485" />
  </linearGradient>
  <linearGradient
    xlink:href="#linearGradient20604"
    id="linearGradient20558"
    gradientUnits="userSpaceOnUse"
    x1="25.802212"
    y1="20.373846"
    x2="25.111048"
    y2="58.912758" />
  <linearGradient
    id="linearGradient20604">
   <stop
     id="stop20598"
     offset="0"
     style="stop-color:#3d3d3d;stop-opacity:1" />
   <stop
     style="stop-color:#000000;stop-opacity:1"
     offset="0.61772454"
     id="stop20600" />
   <stop
     id="stop20602"
     offset="1"
     style="stop-color:#3d3d3d;stop-opacity:1" />
  </linearGradient>
  <linearGradient
    gradientTransform="translate(0.36067797,-0.13016949)"
    xlink:href="#linearGradient4555"
    id="linearGradient4557"
    x1="43.499737"
    y1="64.011795"
    x2="44.141731"
    y2="0.30621234"
    gradientUnits="userSpaceOnUse" />
  <linearGradient
    id="linearGradient4555">
   <stop
     style="stop-color:#141618;stop-opacity:1"
     offset="0"
     id="stop4551" />
   <stop
     id="stop4559"
     offset="0.51820582"
     style="stop-color:#686868;stop-opacity:1" />
   <stop
     style="stop-color:#31363b;stop-opacity:1"
     offset="1"
     id="stop4553" />
  </linearGradient>
  <filter
    style="color-interpolation-filters:sRGB"
    id="filter4601"
    x="-0.029704729"
    width="1.0594095"
    y="-0.029562998"
    height="1.059126">
   <feGaussianBlur
     stdDeviation="0.00070688645"
     id="feGaussianBlur4603" />
  </filter>
 </defs>
 <rect
   style="display:inline;fill:#feffff;fill-opacity:1;fill-rule:evenodd;stroke:none;stroke-width:0.60792;stroke-linejoin:round;stroke-miterlimit:7.8"
   id="rect1192"
   width="27.57439"
   height="27.98554"
   x="2.333477"
   y="2.1958873"
   ry="0" />
 <path
   d="m 17.466945,28.952321 c -7.228038,0 -13.1042652,-5.876229 -13.1042652,-13.104266 0,-7.2280371 5.8762272,-13.1042654 13.1042652,-13.1042654 7.228038,0 13.104266,5.8762283 13.104266,13.1042654 0,7.228037 -5.876228,13.104266 -13.104266,13.104266 z m 0,-25.325718 c -6.731451,0 -12.2214505,5.4899978 -12.2214505,12.221452 0,6.731454 5.4899995,12.221452 12.2214505,12.221452 6.731452,0 12.221451,-5.489998 12.221451,-12.221452 0,-6.7314542 -5.489999,-12.221452 -12.221451,-12.221452 z m 1.84839,2.2070349 c 0.02758,0.1379394 0.05517,0.2758788 0.05517,0.4138183 0,1.0483409 -0.855224,1.9035672 -1.903565,1.9035672 -1.048342,0 -1.903565,-0.8552263 -1.903565,-1.9035672 0,-0.1379395 0.02758,-0.2758789 0.05517,-0.4138183 0.60693,-0.1103524 1.241452,-0.1655279 1.848389,-0.1655279 0.634522,-0.027585 1.241459,0.055175 1.84839,0.1655279 z m -7.200447,2.3173855 c 0,2.1242706 1.241459,3.9726606 3.062257,4.8278876 v 9.683362 l 2.2898,2.289798 2.2898,-2.289798 -0.137942,-2.013918 1.075933,-1.075929 -1.075933,-1.07593 1.627688,-1.627687 -1.627688,-1.627689 0.137942,-2.262209 c 1.793214,-0.855227 3.062258,-2.703617 3.062258,-4.8278876 0,-0.3586434 -0.02758,-0.6896985 -0.110351,-1.0483412 3.062257,1.8483907 4.938237,5.1589428 4.965828,8.7453728 0,5.627938 -4.552009,10.207533 -10.207535,10.207533 -5.627935,0 -10.2075348,-4.552008 -10.2075348,-10.207533 0,-3.58643 1.8759805,-6.8969821 4.9658288,-8.7453728 -0.05517,0.3586427 -0.110351,0.6896978 -0.110351,1.0483412 z m 3.834721,6.0969316 h 0.772464 v 7.641856 h -0.772464 z"
   id="path1364"
   style="stroke-width:0.27588" />
 <path
   style="display:inline;mix-blend-mode:normal;fill:url(#linearGradient3403);fill-opacity:1;stroke:url(#linearGradient20558);stroke-width:1.16242;stroke-linecap:butt;stroke-linejoin:round;stroke-miterlimit:4;stroke-dasharray:none;stroke-opacity:1"
   d="M 4.7043071,3.9814882 4.6913695,60.80196 H 58.59546 l 1.022155,-2.866369 c 0,0 -23.87537,0.766388 -32.844441,-4.140386 C 16.257548,48.042344 11.401114,4.0978197 11.401114,4.0978197 Z"
   id="path1686"
   transform="matrix(0.49264157,0,0,0.49264157,0.32642393,0.2344386)" />
 <rect
   style="display:inline;fill:none;fill-opacity:1;stroke:url(#linearGradient4557);stroke-width:3.71366;stroke-linejoin:round;stroke-miterlimit:7.8;stroke-dasharray:none;stroke-opacity:0.995146"
   id="rect4539"
   width="62.566689"
   height="62.866646"
   x="1.0323594"
   y="0.59551275"
   ry="6.2447233"
   rx="5.8029528"
   transform="matrix(0.46149812,0,0,0.46055748,1.1541418,1.2299173)" />
</svg>
