<?xml version="1.0" encoding="UTF-8" standalone="no"?>
<!-- Created with Inkscape (http://www.inkscape.org/) -->

<svg
  width="32"
  height="32"
  version="1.1"
  viewBox="0 0 32 32"
  id="svg22"
  xmlns:xlink="http://www.w3.org/1999/xlink"
  xmlns="http://www.w3.org/2000/svg"
  xmlns:svg="http://www.w3.org/2000/svg">
 <defs
   id="defs12">
  <linearGradient
    id="linearGradient1005-3-3"
    x1="5.2535"
    x2="9.3823996"
    y1="15.383"
    y2="2.9421"
    gradientTransform="matrix(0.99999,0,0,0.99999,1.632,-0.61743)"
    gradientUnits="userSpaceOnUse">
   <stop
     stop-color="#fa8200"
     offset="0"
     id="stop2" />
   <stop
     stop-color="#ff9600"
     offset=".36953"
     id="stop4" />
   <stop
     stop-color="#ffb400"
     offset="1"
     id="stop6" />
  </linearGradient>
  <filter
    id="filter4014"
    x="-0.062499933"
    y="-0.057692993"
    width="1.1249999"
    height="1.115386"
    color-interpolation-filters="sRGB">
   <feGaussianBlur
     stdDeviation="1.093751"
     id="feGaussianBlur9" />
  </filter>
  <linearGradient
    xlink:href="#linearGradient3487"
    id="linearGradient3403"
    gradientUnits="userSpaceOnUse"
    x1="6.9491749"
    y1="4.5549412"
    x2="11.215498"
    y2="59.052471" />
  <linearGradient
    id="linearGradient3487">
   <stop
     style="stop-color:#32373c;stop-opacity:1"
     offset="0"
     id="stop3481" />
   <stop
     id="stop3483"
     offset="0.36804965"
     style="stop-color:#1a1a1a;stop-opacity:1" />
   <stop
     style="stop-color:#31363b;stop-opacity:1"
     offset="1"
     id="stop3485" />
  </linearGradient>
  <linearGradient
    xlink:href="#linearGradient20604"
    id="linearGradient20558"
    gradientUnits="userSpaceOnUse"
    x1="25.802212"
    y1="20.373846"
    x2="25.111048"
    y2="58.912758" />
  <linearGradient
    id="linearGradient20604">
   <stop
     id="stop20598"
     offset="0"
     style="stop-color:#3d3d3d;stop-opacity:1" />
   <stop
     style="stop-color:#000000;stop-opacity:1"
     offset="0.61772454"
     id="stop20600" />
   <stop
     id="stop20602"
     offset="1"
     style="stop-color:#3d3d3d;stop-opacity:1" />
  </linearGradient>
  <filter
    style="color-interpolation-filters:sRGB"
    id="filter20720"
    x="-0.010586572"
    y="-0.010233629"
    width="1.0211727"
    height="1.0204673">
   <feGaussianBlur
     stdDeviation="0.0001127615"
     id="feGaussianBlur20722" />
  </filter>
  <linearGradient
    gradientTransform="translate(0.36067797,-0.13016949)"
    xlink:href="#linearGradient4555"
    id="linearGradient4557"
    x1="43.499737"
    y1="64.011795"
    x2="44.141731"
    y2="0.30621234"
    gradientUnits="userSpaceOnUse" />
  <linearGradient
    id="linearGradient4555">
   <stop
     style="stop-color:#141618;stop-opacity:1"
     offset="0"
     id="stop4551" />
   <stop
     id="stop4559"
     offset="0.51820582"
     style="stop-color:#686868;stop-opacity:1" />
   <stop
     style="stop-color:#31363b;stop-opacity:1"
     offset="1"
     id="stop4553" />
  </linearGradient>
  <filter
    style="color-interpolation-filters:sRGB"
    id="filter4601"
    x="-0.029682236"
    width="1.0593645"
    y="-0.029540612"
    height="1.0590812">
   <feGaussianBlur
     stdDeviation="0.00012049388"
     id="feGaussianBlur4603" />
  </filter>
  <linearGradient
    gradientUnits="userSpaceOnUse"
    y2="5.1285472"
    x2="35.057411"
    y1="53.859512"
    x1="11.086592"
    id="linearGradient4587-3"
    xlink:href="#linearGradient4585"
    gradientTransform="translate(0.36135313,-0.12490449)" />
  <linearGradient
    id="linearGradient4585">
   <stop
     id="stop4581"
     offset="0"
     style="stop-color:#1980f2;stop-opacity:1" />
   <stop
     id="stop4583"
     offset="1"
     style="stop-color:#20c4fa;stop-opacity:1" />
  </linearGradient>
  <linearGradient
    y2="531.79999"
    x2="408.57001"
    y1="524.79999"
    x1="401.57001"
    gradientTransform="matrix(1.42857,0,0,1.42265,-159.1,-232.81)"
    gradientUnits="userSpaceOnUse"
    id="linearGradient32862"
    xlink:href="#b" />
  <linearGradient
    id="b"
    y1="524.79999"
    y2="531.79999"
    x1="401.57001"
    gradientUnits="userSpaceOnUse"
    x2="408.57001"
    gradientTransform="matrix(1.42857,0,0,1.42265,-159.1,-232.81)">
   <stop
     stop-color="#292c2f"
     id="stop32804" />
   <stop
     offset="1"
     stop-opacity="0"
     id="stop32806" />
  </linearGradient>
  <linearGradient
    xlink:href="#b"
    id="c"
    y1="9"
    x1="9"
    y2="23"
    x2="23"
    gradientUnits="userSpaceOnUse"
    gradientTransform="translate(390.85,510.79)" />
  <linearGradient
    x2="409.39999"
    x1="391.73999"
    gradientUnits="userSpaceOnUse"
    id="linearGradient32866"
    xlink:href="#d" />
  <linearGradient
    id="d"
    x1="391.73999"
    x2="409.39999"
    gradientUnits="userSpaceOnUse">
   <stop
     stop-color="#7cbaf8"
     id="stop32810" />
   <stop
     offset="1"
     stop-color="#f4fcff"
     id="stop32812" />
  </linearGradient>
  <linearGradient
    xlink:href="#d"
    id="e"
    y1="538.08002"
    x1="409.41"
    y2="523.62"
    gradientUnits="userSpaceOnUse"
    x2="391.57001"
    gradientTransform="matrix(1.0014,0,0,1.01644,-0.552,-8.643)" />
  <linearGradient
    id="linearGradient1020"
    x1="391.73999"
    x2="409.39999"
    gradientUnits="userSpaceOnUse">
   <stop
     stop-color="#7cbaf8"
     id="stop1016" />
   <stop
     offset="1"
     stop-color="#f4fcff"
     id="stop1018" />
  </linearGradient>
  <linearGradient
    x2="409.39999"
    x1="391.73999"
    gradientUnits="userSpaceOnUse"
    id="linearGradient32864"
    xlink:href="#d" />
  <linearGradient
    id="linearGradient1027"
    x1="391.73999"
    x2="409.39999"
    gradientUnits="userSpaceOnUse">
   <stop
     stop-color="#7cbaf8"
     id="stop1023" />
   <stop
     offset="1"
     stop-color="#f4fcff"
     id="stop1025" />
  </linearGradient>
 </defs>
 <g
   id="g988"
   transform="matrix(0.42929919,0,0,0.4292992,2.6918832,1.7509232)">
  <rect
    y="0.60077608"
    x="1.033034"
    height="62.866646"
    width="62.567188"
    id="rect4539-1"
    style="opacity:1;fill:url(#linearGradient4587-3);fill-opacity:1;stroke:none;stroke-width:1.146;stroke-linejoin:round;stroke-miterlimit:7.8;stroke-dasharray:none;stroke-opacity:0.995146" />
  <g
    transform="matrix(1.33,0,0,1.33,-502.09655,-668.51881)"
    id="g32834">
   <g
     style="fill-rule:evenodd"
     id="g32826">
    <path
      style="fill:#313437"
      d="m 424.57,513.8 -10,-10 v 10 z"
      id="path32820" />
    <path
      style="opacity:0.2;fill:url(#linearGradient32862)"
      d="m 414.57,513.8 10,9.959 V 513.8 Z"
      id="path32822" />
    <path
      style="opacity:0.2;fill:url(#c)"
      d="m 402.57,517.8 -6,14 12,12 16,-17 -5,-6 v 4 l -3,1 -11.684,-10 z"
      id="path32824" />
   </g>
   <g
     style="fill:url(#linearGradient32866)"
     transform="matrix(1.35913,0,0,1.32697,-135.86,-181.88)"
     id="g32832">
    <path
      style="fill:url(#e)"
      d="m 395.03,532.9 2,-5.748 1.806,5.748 z m 5.582,4.922 h 1.432 l -4.182,-12.06 h -1.692 l -4.426,12.06 h 1.432 l 1.416,-3.815 h 4.719 z"
      id="path32828" />
    <path
      style="fill:url(#linearGradient32864)"
      d="m 405.53,536.79 c -0.829,0 -1.446,-0.406 -1.446,-1.381 0,-1.219 0.731,-1.609 3.201,-1.934 0.016,0 0.796,-0.114 0.796,-0.114 v 2.145 c -0.569,0.78 -1.723,1.284 -2.551,1.284 m 2.584,-0.114 0.195,0.959 h 1.089 v -6.403 c 0,-1.95 -1.349,-2.519 -3.071,-2.519 -1.235,0 -2.389,0.309 -3.055,0.666 l 0.374,1.04 c 0.715,-0.341 1.755,-0.585 2.714,-0.585 1.202,0 1.723,0.553 1.723,1.609 v 0.991 l -0.877,0.097 c -2.243,0.325 -4.452,0.634 -4.452,2.925 0,1.625 1.219,2.372 2.649,2.372 0.91,0 1.95,-0.293 2.714,-1.154"
      id="path32830" />
   </g>
  </g>
 </g>
 <path
   style="display:inline;mix-blend-mode:normal;fill:url(#linearGradient3403);fill-opacity:1;stroke:url(#linearGradient20558);stroke-width:1.16242;stroke-linecap:butt;stroke-linejoin:round;stroke-miterlimit:4;stroke-dasharray:none;stroke-opacity:1"
   d="M 4.7043071,3.9814882 4.6913695,60.80196 H 58.59546 l 1.022155,-2.866369 c 0,0 -23.87537,0.766388 -32.844441,-4.140386 C 16.257548,48.042344 11.401114,4.0978197 11.401114,4.0978197 Z"
   id="path1686"
   transform="matrix(0.5,0,0,0.5,0.06630362,0.01654936)" />
 <rect
   style="display:inline;fill:none;fill-opacity:1;stroke:url(#linearGradient4557);stroke-width:3.71366;stroke-linejoin:round;stroke-miterlimit:7.8;stroke-dasharray:none;stroke-opacity:0.995146"
   id="rect4539"
   width="62.566689"
   height="62.866646"
   x="1.0323594"
   y="0.59551275"
   ry="6.2447233"
   rx="5.8029528"
   transform="matrix(0.46839137,0,0,0.46743669,0.90638486,1.0268972)" />
</svg>
