<?xml version="1.0" encoding="UTF-8" standalone="no"?>
<!-- Created with Inkscape (http://www.inkscape.org/) -->

<svg
  width="32"
  height="32"
  version="1.1"
  viewBox="0 0 32 32"
  id="svg22"
  xmlns:xlink="http://www.w3.org/1999/xlink"
  xmlns="http://www.w3.org/2000/svg"
  xmlns:svg="http://www.w3.org/2000/svg">
 <defs
   id="defs12">
  <linearGradient
    xlink:href="#linearGradient3487"
    id="linearGradient3403"
    gradientUnits="userSpaceOnUse"
    x1="6.9491749"
    y1="4.5549412"
    x2="11.215498"
    y2="59.052471" />
  <linearGradient
    id="linearGradient3487">
   <stop
     style="stop-color:#32373c;stop-opacity:1"
     offset="0"
     id="stop3481" />
   <stop
     id="stop3483"
     offset="0.36804965"
     style="stop-color:#1a1a1a;stop-opacity:1" />
   <stop
     style="stop-color:#31363b;stop-opacity:1"
     offset="1"
     id="stop3485" />
  </linearGradient>
  <linearGradient
    xlink:href="#linearGradient20604"
    id="linearGradient20558"
    gradientUnits="userSpaceOnUse"
    x1="25.802212"
    y1="20.373846"
    x2="25.111048"
    y2="58.912758" />
  <linearGradient
    id="linearGradient20604">
   <stop
     id="stop20598"
     offset="0"
     style="stop-color:#3d3d3d;stop-opacity:1" />
   <stop
     style="stop-color:#000000;stop-opacity:1"
     offset="0.61772454"
     id="stop20600" />
   <stop
     id="stop20602"
     offset="1"
     style="stop-color:#3d3d3d;stop-opacity:1" />
  </linearGradient>
  <filter
    style="color-interpolation-filters:sRGB"
    id="filter20720"
    x="-0.010606588"
    y="-0.010252978"
    width="1.0212127"
    height="1.020506">
   <feGaussianBlur
     stdDeviation="0.00057085461"
     id="feGaussianBlur20722" />
  </filter>
  <linearGradient
    gradientTransform="translate(0.36067797,-0.13016949)"
    xlink:href="#linearGradient4555"
    id="linearGradient4557"
    x1="43.499737"
    y1="64.011795"
    x2="44.141731"
    y2="0.30621234"
    gradientUnits="userSpaceOnUse" />
  <linearGradient
    id="linearGradient4555">
   <stop
     style="stop-color:#141618;stop-opacity:1"
     offset="0"
     id="stop4551" />
   <stop
     id="stop4559"
     offset="0.51820582"
     style="stop-color:#686868;stop-opacity:1" />
   <stop
     style="stop-color:#31363b;stop-opacity:1"
     offset="1"
     id="stop4553" />
  </linearGradient>
  <filter
    style="color-interpolation-filters:sRGB"
    id="filter4601"
    x="-0.029701013"
    width="1.059402"
    y="-0.029559299"
    height="1.0591186">
   <feGaussianBlur
     stdDeviation="0.00060999977"
     id="feGaussianBlur4603" />
  </filter>
 </defs>
 <rect
   x="2.996032"
   y="1.8817534"
   width="27.572727"
   height="27.522865"
   rx="1.2392242"
   ry="1.1528834"
   stroke-width="1.85923"
   id="rect24"
   style="display:inline;fill:#4e91d9;fill-opacity:1" />
 <g
   id="g1"
   transform="matrix(0.66499999,0,0,0.665,4.6451418e-8,1.163989)">
  <path
    fill="#742424"
    d="m 41.570071,14.103708 h 4 v 2 h -4 z"
    id="path3" />
  <path
    fill="#ad3131"
    d="m 3.9376041,14.103708 h 4 v 2 h -4 z"
    id="path4" />
  <rect
    fill="#742424"
    width="8"
    height="2"
    x="7.937604"
    y="14.103708"
    id="rect4" />
  <rect
    fill="#ad3131"
    width="8"
    height="2"
    x="15.937604"
    y="14.103708"
    id="rect5" />
  <rect
    fill="#742424"
    width="8"
    height="2"
    x="23.937605"
    y="14.103708"
    id="rect6" />
  <path
    fill="#742424"
    d="m 41.570071,12.103708 h 4 v 2 h -4 z"
    id="path6" />
  <rect
    fill="#742424"
    width="8"
    height="2"
    x="3.9376042"
    y="12.103708"
    id="rect7" />
  <rect
    fill="#ad3131"
    width="8"
    height="2"
    x="11.937604"
    y="12.103708"
    id="rect8" />
  <rect
    fill="#742424"
    width="8"
    height="2"
    x="19.937605"
    y="12.103708"
    id="rect9" />
  <path
    fill="#ad3131"
    d="m 27.937604,12.103708 h 4 v 2 h -4 z"
    id="path9" />
  <rect
    fill="#742424"
    width="8"
    height="2"
    x="-46.095695"
    y="-33.103706"
    transform="scale(-1)"
    id="rect10" />
  <rect
    fill="#ad3131"
    width="8"
    height="2"
    x="-38.095695"
    y="-33.103706"
    transform="scale(-1)"
    id="rect11" />
  <rect
    fill="#742424"
    width="8"
    height="2"
    x="-30.095694"
    y="-33.103706"
    transform="scale(-1)"
    id="rect12" />
  <rect
    fill="#ad3131"
    width="8"
    height="2"
    x="-22.095694"
    y="-33.103706"
    transform="scale(-1)"
    id="rect13" />
  <rect
    fill="#742424"
    width="8"
    height="2"
    x="-14.095695"
    y="-33.103706"
    transform="scale(-1)"
    id="rect14" />
  <path
    fill="#742424"
    d="m 46.095694,35.103708 h -4 v -2 h 4 z"
    id="path14" />
  <rect
    fill="#ad3131"
    width="8"
    height="2"
    x="-42.095695"
    y="-35.103706"
    transform="scale(-1)"
    id="rect15" />
  <rect
    fill="#742424"
    width="8"
    height="2"
    x="-34.095695"
    y="-35.103706"
    transform="scale(-1)"
    id="rect16" />
  <rect
    fill="#ad3131"
    width="8"
    height="2"
    x="-26.095694"
    y="-35.103706"
    transform="scale(-1)"
    id="rect17" />
  <rect
    fill="#742424"
    width="8"
    height="2"
    x="-18.095694"
    y="-35.103706"
    transform="scale(-1)"
    id="rect18" />
  <path
    fill="#ad3131"
    d="M 10.095694,35.103708 H 6.0956941 v -2 h 3.9999999 z"
    id="path18" />
  <rect
    fill="#ffffff"
    width="2"
    height="18"
    x="33.753838"
    y="12.103708"
    id="rect19" />
  <rect
    fill="#ffffff"
    width="2"
    height="18"
    x="37.753838"
    y="12.103708"
    id="rect20" />
  <rect
    fill="#ffffff"
    width="6"
    height="2"
    x="33.753838"
    y="13.103708"
    id="rect21" />
  <rect
    fill="#ffffff"
    width="6"
    height="2"
    x="33.753838"
    y="19.103708"
    id="rect22" />
  <rect
    fill="#ffffff"
    width="6"
    height="2"
    x="33.753838"
    y="25.103708"
    id="rect23" />
  <path
    fill="#ffeb5d"
    d="m 29.937676,5.1698526 0.445046,1.1563 1.158801,-0.36404 -0.603871,1.0778 0.999985,0.70234 -1.198091,0.18774 0.08814,1.2397999 -0.89008,-0.84372 -0.890082,0.84372 0.08814,-1.2397999 -1.198092,-0.18774 0.999985,-0.70234 -0.603871,-1.0778 1.158801,0.36404 z"
    id="path23"
    style="stroke-width:0.987385" />
 </g>
 <path
   style="display:inline;mix-blend-mode:normal;fill:url(#linearGradient3403);fill-opacity:1;stroke:url(#linearGradient20558);stroke-width:1.16242;stroke-linecap:butt;stroke-linejoin:round;stroke-miterlimit:4;stroke-dasharray:none;stroke-opacity:1"
   d="M 4.7043071,3.9814882 4.6913695,60.80196 H 58.59546 l 1.022155,-2.866369 c 0,0 -23.87537,0.766388 -32.844441,-4.140386 C 16.257548,48.042344 11.401114,4.0978197 11.401114,4.0978197 Z"
   id="path1686"
   transform="matrix(0.49513179,0,0,0.4942364,0.32252972,0.23139084)" />
 <rect
   style="display:inline;fill:none;fill-opacity:1;stroke:url(#linearGradient4557);stroke-width:3.71366;stroke-linejoin:round;stroke-miterlimit:7.8;stroke-dasharray:none;stroke-opacity:0.995146"
   id="rect4539"
   width="62.566689"
   height="62.866646"
   x="1.0323594"
   y="0.59551275"
   ry="6.2447233"
   rx="5.8029528"
   transform="matrix(0.46383092,0,0,0.46204845,1.1544315,1.2300922)" />
</svg>
