<?xml version="1.0" encoding="UTF-8" standalone="no"?>
<!-- Created with Inkscape (http://www.inkscape.org/) -->

<svg
  width="32"
  height="32"
  version="1.1"
  viewBox="0 0 32 32"
  id="svg22"
  xmlns:xlink="http://www.w3.org/1999/xlink"
  xmlns="http://www.w3.org/2000/svg"
  xmlns:svg="http://www.w3.org/2000/svg">
 <defs
   id="defs12">
  <linearGradient
    xlink:href="#linearGradient3487"
    id="linearGradient3403"
    gradientUnits="userSpaceOnUse"
    x1="6.9491749"
    y1="4.5549412"
    x2="11.215498"
    y2="59.052471" />
  <linearGradient
    id="linearGradient3487">
   <stop
     style="stop-color:#32373c;stop-opacity:1"
     offset="0"
     id="stop3481" />
   <stop
     id="stop3483"
     offset="0.36804965"
     style="stop-color:#1a1a1a;stop-opacity:1" />
   <stop
     style="stop-color:#31363b;stop-opacity:1"
     offset="1"
     id="stop3485" />
  </linearGradient>
  <linearGradient
    xlink:href="#linearGradient20604"
    id="linearGradient20558"
    gradientUnits="userSpaceOnUse"
    x1="25.802212"
    y1="20.373846"
    x2="25.111048"
    y2="58.912758" />
  <linearGradient
    id="linearGradient20604">
   <stop
     id="stop20598"
     offset="0"
     style="stop-color:#3d3d3d;stop-opacity:1" />
   <stop
     style="stop-color:#000000;stop-opacity:1"
     offset="0.61772454"
     id="stop20600" />
   <stop
     id="stop20602"
     offset="1"
     style="stop-color:#3d3d3d;stop-opacity:1" />
  </linearGradient>
  <filter
    style="color-interpolation-filters:sRGB"
    id="filter20720"
    x="-0.010581653"
    y="-0.010228874"
    width="1.0211628"
    height="1.0204578">
   <feGaussianBlur
     stdDeviation="1.9576633e-07"
     id="feGaussianBlur20722" />
  </filter>
  <linearGradient
    gradientTransform="translate(0.36067797,-0.13016949)"
    xlink:href="#linearGradient4555"
    id="linearGradient4557"
    x1="43.499737"
    y1="64.011795"
    x2="44.141731"
    y2="0.30621234"
    gradientUnits="userSpaceOnUse" />
  <linearGradient
    id="linearGradient4555">
   <stop
     style="stop-color:#141618;stop-opacity:1"
     offset="0"
     id="stop4551" />
   <stop
     id="stop4559"
     offset="0.51820582"
     style="stop-color:#686868;stop-opacity:1" />
   <stop
     style="stop-color:#31363b;stop-opacity:1"
     offset="1"
     id="stop4553" />
  </linearGradient>
  <filter
    style="color-interpolation-filters:sRGB"
    id="filter4601"
    x="-0.029677622"
    width="1.0593552"
    y="-0.02953602"
    height="1.059072">
   <feGaussianBlur
     stdDeviation="2.0919059e-07"
     id="feGaussianBlur4603" />
  </filter>
 </defs>
 <rect
   x="2.996032"
   y="1.8817534"
   width="27.572727"
   height="27.522865"
   rx="1.2392242"
   ry="1.1528834"
   stroke-width="1.85923"
   id="rect24"
   style="display:inline;fill:#353535;fill-opacity:1" />
 <g
   id="g1"
   transform="scale(0.66499999)">
  <rect
    style="fill:#a6a6a6"
    width="16"
    height="8"
    x="9.2407446"
    y="24.91732"
    rx="1"
    ry="1"
    id="rect3" />
  <rect
    style="fill:#a6a6a6"
    width="16"
    height="8"
    x="29.240744"
    y="24.91732"
    rx="1"
    ry="1"
    id="rect4" />
  <path
    style="opacity:0.1"
    d="m 22.480977,20.267553 -5.027343,5.865235 -1.167969,-1.001953 a 0.8205353,0.75571939 34.165177 0 0 -1.294922,0.382812 l -0.371094,2.222656 -0.36914,2.22461 a 0.8205353,0.75571939 34.165177 0 0 0.318359,0.771484 0.8205353,0.75571939 34.165177 0 0 0.757813,0.152344 l 2.199218,-0.652344 2.201172,-0.650391 a 0.8205353,0.75571939 34.165177 0 0 0.21875,-1.308593 l -0.974609,-0.835938 5.029297,-5.86914 z m 9.519532,0 -1.519532,1.300782 5.029297,5.86914 -0.974609,0.835938 a 0.75571939,0.8205353 55.834823 0 0 0.21875,1.308593 l 2.201172,0.650391 2.199218,0.652344 a 0.75571939,0.8205353 55.834823 0 0 0.757813,-0.152344 0.75571939,0.8205353 55.834823 0 0 0.318359,-0.771484 l -0.36914,-2.22461 -0.371094,-2.222656 a 0.75571939,0.8205353 55.834823 0 0 -1.294922,-0.382812 l -1.167969,1.001953 z"
    id="path4" />
  <path
    style="fill:none;stroke:#3f3f3f;stroke-width:2"
    d="m 23.240743,19.917319 -6,7 v 0"
    id="path5" />
  <path
    style="fill:none;stroke:#3f3f3f;stroke-width:2"
    d="m 31.240743,19.917319 6,7"
    id="path6" />
  <path
    style="fill:#525252"
    d="m 14.569295,29.731874 a 0.8205353,0.75571939 34.165177 0 0 0.7583,0.152922 l 2.199131,-0.652676 2.200324,-0.651653 a 0.8205353,0.75571939 34.165177 0 0 0.21792,-1.307972 l -1.828281,-1.570381 -1.830663,-1.572426 a 0.8205353,0.75571939 34.165177 0 0 -1.294647,0.383149 l -0.370849,2.22306 -0.369658,2.22408 a 0.8205353,0.75571939 34.165177 0 0 0.318426,0.771898 z"
    id="path7" />
  <rect
    style="opacity:0.1"
    width="16"
    height="8"
    x="19.240746"
    y="13.917319"
    rx="1"
    ry="1"
    id="rect7" />
  <rect
    style="fill:#a6a6a6"
    width="16"
    height="8"
    x="19.240746"
    y="12.917319"
    rx="1"
    ry="1"
    id="rect8" />
  <path
    style="fill:#525252"
    d="m 39.912191,29.731874 a 0.75571939,0.8205353 55.834823 0 1 -0.7583,0.152922 L 36.95476,29.23212 34.754436,28.580467 a 0.75571939,0.8205353 55.834823 0 1 -0.21792,-1.307972 l 1.828281,-1.570381 1.830663,-1.572426 a 0.75571939,0.8205353 55.834823 0 1 1.294647,0.383149 l 0.370849,2.22306 0.369658,2.22408 a 0.75571939,0.8205353 55.834823 0 1 -0.318426,0.771898 z"
    id="path8" />
 </g>
 <path
   style="display:inline;mix-blend-mode:normal;fill:url(#linearGradient3403);fill-opacity:1;stroke:url(#linearGradient20558);stroke-width:1.16242;stroke-linecap:butt;stroke-linejoin:round;stroke-miterlimit:4;stroke-dasharray:none;stroke-opacity:1"
   d="M 4.7043071,3.9814882 4.6913695,60.80196 H 58.59546 l 1.022155,-2.866369 c 0,0 -23.87537,0.766388 -32.844441,-4.140386 C 16.257548,48.042344 11.401114,4.0978197 11.401114,4.0978197 Z"
   id="path1686"
   transform="matrix(0.49513179,0,0,0.4942364,0.32252972,0.23139084)" />
 <rect
   style="display:inline;fill:none;fill-opacity:1;stroke:url(#linearGradient4557);stroke-width:3.71366;stroke-linejoin:round;stroke-miterlimit:7.8;stroke-dasharray:none;stroke-opacity:0.995146"
   id="rect4539"
   width="62.566689"
   height="62.866646"
   x="1.0323594"
   y="0.59551275"
   ry="6.2447233"
   rx="5.8029528"
   transform="matrix(0.46383092,0,0,0.46204845,1.1544315,1.2300922)" />
</svg>
