<?xml version="1.0" encoding="UTF-8" standalone="no"?>
<!-- Created with Inkscape (http://www.inkscape.org/) -->

<svg
  width="32"
  height="32"
  version="1.1"
  viewBox="0 0 32 32"
  id="svg22"
  xmlns:xlink="http://www.w3.org/1999/xlink"
  xmlns="http://www.w3.org/2000/svg"
  xmlns:svg="http://www.w3.org/2000/svg">
 <defs
   id="defs12">
  <linearGradient
    id="linearGradient917">
   <stop
     style="stop-color:#000000;stop-opacity:0.99607843"
     offset="0"
     id="stop913" />
   <stop
     style="stop-color:#353a3f;stop-opacity:0.99607843"
     offset="1"
     id="stop915" />
  </linearGradient>
  <linearGradient
    id="linearGradient1005-3-3"
    x1="5.2535"
    x2="9.3823996"
    y1="15.383"
    y2="2.9421"
    gradientTransform="matrix(0.99999,0,0,0.99999,1.632,-0.61743)"
    gradientUnits="userSpaceOnUse">
   <stop
     stop-color="#fa8200"
     offset="0"
     id="stop2" />
   <stop
     stop-color="#ff9600"
     offset=".36953"
     id="stop4" />
   <stop
     stop-color="#ffb400"
     offset="1"
     id="stop6" />
  </linearGradient>
  <filter
    id="filter4014"
    x="-0.062499933"
    y="-0.057692993"
    width="1.1249999"
    height="1.115386"
    color-interpolation-filters="sRGB">
   <feGaussianBlur
     stdDeviation="1.093751"
     id="feGaussianBlur9" />
  </filter>
  <linearGradient
    xlink:href="#linearGradient3487"
    id="linearGradient3403"
    gradientUnits="userSpaceOnUse"
    x1="6.9491749"
    y1="4.5549412"
    x2="11.215498"
    y2="59.052471" />
  <linearGradient
    id="linearGradient3487">
   <stop
     style="stop-color:#32373c;stop-opacity:1"
     offset="0"
     id="stop3481" />
   <stop
     id="stop3483"
     offset="0.36804965"
     style="stop-color:#1a1a1a;stop-opacity:1" />
   <stop
     style="stop-color:#31363b;stop-opacity:1"
     offset="1"
     id="stop3485" />
  </linearGradient>
  <linearGradient
    xlink:href="#linearGradient20604"
    id="linearGradient20558"
    gradientUnits="userSpaceOnUse"
    x1="25.802212"
    y1="20.373846"
    x2="25.111048"
    y2="58.912758" />
  <linearGradient
    id="linearGradient20604">
   <stop
     id="stop20598"
     offset="0"
     style="stop-color:#3d3d3d;stop-opacity:1" />
   <stop
     style="stop-color:#000000;stop-opacity:1"
     offset="0.61772454"
     id="stop20600" />
   <stop
     id="stop20602"
     offset="1"
     style="stop-color:#3d3d3d;stop-opacity:1" />
  </linearGradient>
  <filter
    style="color-interpolation-filters:sRGB"
    id="filter20720"
    x="-0.010581953"
    y="-0.010229164"
    width="1.0211634"
    height="1.0204583">
   <feGaussianBlur
     stdDeviation="7.0475936e-06"
     id="feGaussianBlur20722" />
  </filter>
  <linearGradient
    gradientTransform="translate(0.36067797,-0.13016949)"
    xlink:href="#linearGradient4555"
    id="linearGradient4557"
    x1="43.499737"
    y1="64.011795"
    x2="44.141731"
    y2="0.30621234"
    gradientUnits="userSpaceOnUse" />
  <linearGradient
    id="linearGradient4555">
   <stop
     style="stop-color:#141618;stop-opacity:1"
     offset="0"
     id="stop4551" />
   <stop
     id="stop4559"
     offset="0.51820582"
     style="stop-color:#686868;stop-opacity:1" />
   <stop
     style="stop-color:#31363b;stop-opacity:1"
     offset="1"
     id="stop4553" />
  </linearGradient>
  <filter
    style="color-interpolation-filters:sRGB"
    id="filter4601"
    x="-0.029677902"
    width="1.0593558"
    y="-0.029536299"
    height="1.0590726">
   <feGaussianBlur
     stdDeviation="7.5308676e-06"
     id="feGaussianBlur4603" />
  </filter>
  <linearGradient
    xlink:href="#linearGradient917"
    id="linearGradient919"
    x1="7.400631"
    y1="41.743092"
    x2="33.063145"
    y2="7.1074457"
    gradientUnits="userSpaceOnUse"
    gradientTransform="matrix(0.66491297,0,0,0.66491339,0.0041324,0.00411237)" />
  <linearGradient
    xlink:href="#linearGradient3193"
    id="linearGradient3456"
    gradientUnits="userSpaceOnUse"
    gradientTransform="matrix(0.932483,-0.152213,0.11652,0.928023,-183.4831,39.99585)"
    x1="246.5528"
    y1="127.77462"
    x2="308.37363"
    y2="-73.111198" />
  <linearGradient
    id="linearGradient3193">
   <stop
     style="stop-color:black;stop-opacity:1;"
     offset="0"
     id="stop3195" />
   <stop
     style="stop-color:black;stop-opacity:0;"
     offset="1"
     id="stop3197" />
  </linearGradient>
  <radialGradient
    xlink:href="#linearGradient3075"
    id="radialGradient3449"
    gradientUnits="userSpaceOnUse"
    gradientTransform="matrix(3.224746,-0.586495,0.496512,3.4186,128.9156,-272.1603)"
    cx="-25"
    cy="106.49996"
    fx="-25"
    fy="106.49996"
    r="45" />
  <linearGradient
    id="linearGradient3075">
   <stop
     id="stop3077"
     offset="0"
     style="stop-color:#ffffff;stop-opacity:1;" />
   <stop
     style="stop-color:#ffffff;stop-opacity:1;"
     offset="0.42597079"
     id="stop3093" />
   <stop
     style="stop-color:#f1f1f1;stop-opacity:1;"
     offset="0.5892781"
     id="stop2133" />
   <stop
     id="stop2135"
     offset="0.80219781"
     style="stop-color:#eaeaea;stop-opacity:1;" />
   <stop
     id="stop3079"
     offset="1"
     style="stop-color:#dfdfdf;stop-opacity:1;" />
  </linearGradient>
  <linearGradient
    xlink:href="#linearGradient3562"
    id="linearGradient3582"
    x1="19.426067"
    y1="104.24564"
    x2="81.925842"
    y2="8.1233034"
    gradientUnits="userSpaceOnUse" />
  <linearGradient
    id="linearGradient3562">
   <stop
     style="stop-color:#0057ae;stop-opacity:1;"
     offset="0"
     id="stop3564" />
   <stop
     style="stop-color:#0057ae;stop-opacity:0;"
     offset="1"
     id="stop3566" />
  </linearGradient>
  <linearGradient
    xlink:href="#linearGradient3562"
    id="linearGradient3572"
    x1="19.426067"
    y1="104.24564"
    x2="81.925842"
    y2="8.1233034"
    gradientUnits="userSpaceOnUse"
    gradientTransform="matrix(1,0,0,1.819874,0.828641,-42.86736)" />
  <linearGradient
    xlink:href="#linearGradient3562"
    id="linearGradient3570"
    x1="19.426067"
    y1="104.24564"
    x2="81.925842"
    y2="8.1233034"
    gradientUnits="userSpaceOnUse"
    gradientTransform="translate(-4.7e-5)" />
  <radialGradient
    xlink:href="#linearGradient2257"
    id="radialGradient3536"
    gradientUnits="userSpaceOnUse"
    gradientTransform="matrix(1.846219,2.10415,-19.07412,16.75756,2262.469,-2019.342)"
    cx="42.617531"
    cy="120.64188"
    fx="42.617531"
    fy="120.64188"
    r="3.406888" />
  <linearGradient
    id="linearGradient2257">
   <stop
     id="stop2259"
     offset="0"
     style="stop-color:#b4942a;stop-opacity:1;" />
   <stop
     id="stop2261"
     offset="1"
     style="stop-color:#e4dcc9;stop-opacity:1" />
  </linearGradient>
  <radialGradient
    xlink:href="#linearGradient2598"
    id="radialGradient3538"
    gradientUnits="userSpaceOnUse"
    gradientTransform="matrix(2.331342,2.403265,-34.46994,34.18483,2042.51,-1974.86)"
    cx="15.727077"
    cy="58.089687"
    fx="15.727077"
    fy="58.089687"
    r="2.6143966" />
  <linearGradient
    id="linearGradient2598">
   <stop
     style="stop-color:#252525;stop-opacity:1;"
     offset="0"
     id="stop2600" />
   <stop
     id="stop2606"
     offset="0.5"
     style="stop-color:#252525;stop-opacity:1;" />
   <stop
     style="stop-color:#252525;stop-opacity:1;"
     offset="0.75"
     id="stop2608" />
   <stop
     style="stop-color:#000000;stop-opacity:1;"
     offset="1"
     id="stop2602" />
  </linearGradient>
  <radialGradient
    xlink:href="#linearGradient3311"
    id="radialGradient3540"
    gradientUnits="userSpaceOnUse"
    gradientTransform="matrix(0.0808702,0.08102772,-1.035432,1.040959,187.5974,-63.00773)"
    cx="89.454559"
    cy="100.74671"
    fx="89.454559"
    fy="100.74671"
    r="47.746403" />
  <linearGradient
    id="linearGradient3311">
   <stop
     id="stop3313"
     offset="0"
     style="stop-color:#2d2d2d;stop-opacity:1;" />
   <stop
     style="stop-color:#000000;stop-opacity:1;"
     offset="0.5"
     id="stop3319" />
   <stop
     id="stop3315"
     offset="1"
     style="stop-color:#000000;stop-opacity:1;" />
  </linearGradient>
  <radialGradient
    xlink:href="#linearGradient3303"
    id="radialGradient3542"
    gradientUnits="userSpaceOnUse"
    gradientTransform="matrix(0.999914,-0.00784165,5.666079e-4,0.02048306,-0.00124223,7.581357)"
    cx="34.677639"
    cy="7.4622769"
    fx="34.677639"
    fy="7.4622769"
    r="47.595196" />
  <linearGradient
    id="linearGradient3303">
   <stop
     id="stop3305"
     offset="0"
     style="stop-color:#ffffff;stop-opacity:0.68345326;" />
   <stop
     id="stop3307"
     offset="1"
     style="stop-color:#ffffff;stop-opacity:0;" />
  </linearGradient>
  <radialGradient
    xlink:href="#linearGradient3325"
    id="radialGradient3544"
    gradientUnits="userSpaceOnUse"
    gradientTransform="matrix(-1.5103,0.00264127,-1.167078e-4,-0.00911022,87.0522,7.438666)"
    cx="34.677639"
    cy="7.4622769"
    fx="34.677639"
    fy="7.4622769"
    r="47.595196" />
  <linearGradient
    id="linearGradient3325">
   <stop
     style="stop-color:#ffffff;stop-opacity:1;"
     offset="0"
     id="stop3327" />
   <stop
     style="stop-color:#ffffff;stop-opacity:0;"
     offset="1"
     id="stop3329" />
  </linearGradient>
  <radialGradient
    xlink:href="#linearGradient3225"
    id="radialGradient3546"
    gradientUnits="userSpaceOnUse"
    gradientTransform="matrix(1.676097,1.695197,-0.636537,0.633964,34.18276,-71.32053)"
    cx="49.009884"
    cy="8.4953117"
    fx="47.370888"
    fy="6.7701697"
    r="3.9750404" />
  <linearGradient
    id="linearGradient3225">
   <stop
     id="stop3227"
     offset="0"
     style="stop-color:#ffffff;stop-opacity:1;" />
   <stop
     id="stop3229"
     offset="1"
     style="stop-color:#aeaeae;stop-opacity:1;" />
  </linearGradient>
  <linearGradient
    xlink:href="#linearGradient3217"
    id="linearGradient3548"
    gradientUnits="userSpaceOnUse"
    gradientTransform="matrix(2.383905,0,0,2.384561,-26.41162,-87.0782)"
    x1="48.914677"
    y1="2.9719031"
    x2="48.913002"
    y2="2.5548496" />
  <linearGradient
    id="linearGradient3217">
   <stop
     style="stop-color:#252525;stop-opacity:1;"
     offset="0"
     id="stop3219" />
   <stop
     style="stop-color:#252525;stop-opacity:0;"
     offset="1"
     id="stop3221" />
  </linearGradient>
  <radialGradient
    xlink:href="#linearGradient3207"
    id="radialGradient3550"
    gradientUnits="userSpaceOnUse"
    gradientTransform="matrix(2.383905,0,0,0.290103,-26.41162,-81.53982)"
    cx="49.011971"
    cy="2.6743078"
    fx="49.011971"
    fy="2.6743078"
    r="1.7246193" />
  <linearGradient
    id="linearGradient3207">
   <stop
     id="stop3209"
     offset="0"
     style="stop-color:#ffffff;stop-opacity:1;" />
   <stop
     id="stop3211"
     offset="1"
     style="stop-color:#252525;stop-opacity:0;" />
  </linearGradient>
  <linearGradient
    xlink:href="#linearGradient3325"
    id="linearGradient3552"
    gradientUnits="userSpaceOnUse"
    gradientTransform="matrix(1.676097,1.695197,-1.689549,1.682718,43.1284,-80.23005)"
    x1="48.498562"
    y1="0.81150496"
    x2="48.732723"
    y2="2.3657269" />
  <linearGradient
    xlink:href="#linearGradient3251"
    id="linearGradient3554"
    gradientUnits="userSpaceOnUse"
    gradientTransform="matrix(2.370782,0,0,2.384561,-25.79109,-87.0782)"
    x1="46.051746"
    y1="3.0999987"
    x2="46.051746"
    y2="2.395859" />
  <linearGradient
    id="linearGradient3251">
   <stop
     style="stop-color:#000000;stop-opacity:1;"
     offset="0"
     id="stop3253" />
   <stop
     id="stop14161"
     offset="0.7087912"
     style="stop-color:#090909;stop-opacity:0.67870039;" />
   <stop
     style="stop-color:#131313;stop-opacity:0;"
     offset="1"
     id="stop3255" />
  </linearGradient>
  <radialGradient
    xlink:href="#linearGradient3273"
    id="radialGradient3556"
    gradientUnits="userSpaceOnUse"
    gradientTransform="matrix(1.580908,0,0,0.290103,6.107237,-81.53982)"
    cx="49.011971"
    cy="2.6743078"
    fx="49.011971"
    fy="2.6743078"
    r="1.7246193" />
  <linearGradient
    id="linearGradient3273">
   <stop
     id="stop3275"
     offset="0"
     style="stop-color:#ffffff;stop-opacity:0.55035973;" />
   <stop
     id="stop3277"
     offset="1"
     style="stop-color:#ffffff;stop-opacity:0;" />
  </linearGradient>
  <linearGradient
    xlink:href="#linearGradient3251"
    id="linearGradient3558"
    gradientUnits="userSpaceOnUse"
    gradientTransform="matrix(1.837915,0,0,1.838421,38.9227,-73.63438)"
    x1="46.051746"
    y1="3.0999987"
    x2="46.051746"
    y2="2.395859" />
  <radialGradient
    xlink:href="#linearGradient3259"
    id="radialGradient3560"
    gradientUnits="userSpaceOnUse"
    gradientTransform="matrix(1.568562,0,0,0.290103,-174.115,-81.53982)"
    cx="49.011971"
    cy="2.6743078"
    fx="49.011971"
    fy="2.6743078"
    r="1.7246193" />
  <linearGradient
    id="linearGradient3259">
   <stop
     style="stop-color:#ffffff;stop-opacity:0.55035973;"
     offset="0"
     id="stop3261" />
   <stop
     style="stop-color:#000000;stop-opacity:0;"
     offset="1"
     id="stop3263" />
  </linearGradient>
  <linearGradient
    xlink:href="#linearGradient3562"
    id="linearGradient3586"
    gradientUnits="userSpaceOnUse"
    gradientTransform="matrix(-0.737267,0.276247,0.451981,0.892027,78.66796,-10.47495)"
    x1="19.426067"
    y1="104.24564"
    x2="81.925842"
    y2="8.1233034" />
  <linearGradient
    xlink:href="#linearGradient3562"
    id="linearGradient140871"
    gradientUnits="userSpaceOnUse"
    x1="19.426067"
    y1="104.24564"
    x2="81.925842"
    y2="8.1233034" />
  <linearGradient
    xlink:href="#linearGradient3562"
    id="linearGradient140873"
    gradientUnits="userSpaceOnUse"
    x1="19.426067"
    y1="104.24564"
    x2="81.925842"
    y2="8.1233034" />
  <linearGradient
    xlink:href="#linearGradient3562"
    id="linearGradient140875"
    gradientUnits="userSpaceOnUse"
    x1="19.426067"
    y1="104.24564"
    x2="81.925842"
    y2="8.1233034" />
  <linearGradient
    xlink:href="#linearGradient3562"
    id="linearGradient140877"
    gradientUnits="userSpaceOnUse"
    x1="19.426067"
    y1="104.24564"
    x2="81.925842"
    y2="8.1233034" />
 </defs>
 <rect
   style="display:inline;fill:url(#linearGradient919);fill-opacity:1;fill-rule:evenodd;stroke:none;stroke-width:0.616919;stroke-linejoin:round;stroke-miterlimit:7.8"
   id="rect1192"
   width="27.982597"
   height="28.399853"
   x="2.1071928"
   y="2.0111465"
   ry="0" />
 <g
   id="g1284"
   transform="matrix(0.1797281,0,0,0.17972822,6.9247794,4.9327325)">
  <path
    id="path1444"
    d="M 5.227539,17.297757 18.790462,123.44016 106.47869,109.64351 88.211272,5.5140281 Z"
    style="opacity:1;fill:none;fill-opacity:1;fill-rule:nonzero;stroke:url(#linearGradient3456);stroke-width:4.8;stroke-linecap:round;stroke-linejoin:round;stroke-miterlimit:4;stroke-dasharray:none;stroke-dashoffset:4;stroke-opacity:0.117886" />
  <path
    id="path1448"
    d="M 5.087715,16.18413 18.650638,122.32654 106.32722,108.43708 88.071448,4.4004012 Z"
    style="opacity:1;fill:#ffffff;fill-opacity:1;fill-rule:nonzero;stroke:none;stroke-width:3.632;stroke-linecap:round;stroke-linejoin:round;stroke-miterlimit:4;stroke-dasharray:none;stroke-dashoffset:4;stroke-opacity:1" />
  <path
    id="path1450"
    d="M 6.346519,17.115102 19.48997,119.91663 104.92859,106.39248 87.092293,5.6966844 Z"
    style="opacity:1;fill:url(#radialGradient3449);fill-opacity:1;fill-rule:nonzero;stroke:none;stroke-width:3.632;stroke-linecap:round;stroke-linejoin:round;stroke-miterlimit:4;stroke-dasharray:none;stroke-dashoffset:4;stroke-opacity:1" />
  <path
    style="opacity:0.598361;fill:#6193cf;fill-opacity:1;fill-rule:nonzero;stroke:none;stroke-width:0.1;stroke-linecap:round;stroke-linejoin:round;stroke-miterlimit:4;stroke-dasharray:none;stroke-dashoffset:4;stroke-opacity:1"
    d="m 95.844785,99.931632 c -0.07171,0.0069 -0.142191,0.02918 -0.219075,0.06661 -0.280585,0.162478 -0.590897,0.413558 -0.927705,0.762948 -0.329338,0.33975 -0.633411,0.73085 -0.924781,1.18344 -0.283895,0.44294 -0.519296,0.91406 -0.703653,1.40933 -0.175976,0.494 -0.253019,0.9761 -0.227799,1.43874 0.0099,0.16811 0.06759,0.32944 0.167902,0.4665 0.0994,0.12874 0.212243,0.23992 0.349891,0.32875 0.137648,0.0888 0.28301,0.14273 0.440311,0.17759 0.156388,0.0265 0.29763,0.0221 0.420625,-0.0225 0.148145,-0.0485 0.303053,-0.12411 0.455922,-0.20732 0.160331,-0.0928 0.312754,-0.18185 0.455405,-0.28042 0.142658,-0.0986 0.264626,-0.20015 0.382132,-0.2948 0.116594,-0.10301 0.224223,-0.19151 0.309108,-0.2726 0.06249,-0.0522 0.07209,-0.0919 0.03581,-0.11167 -0.0372,-0.0281 -0.08356,-0.008 -0.146043,0.0444 -0.212602,0.16038 -0.477582,0.31449 -0.783319,0.48089 -0.297354,0.16508 -0.585169,0.29032 -0.85723,0.37512 -0.108068,0.0253 -0.218246,0.0356 -0.329054,0.0359 -0.103338,-0.009 -0.18472,-0.0314 -0.274951,-0.0767 -0.08278,-0.055 -0.158122,-0.13526 -0.221245,-0.2442 -0.05473,-0.11022 -0.101152,-0.26637 -0.112916,-0.45116 -0.0136,-0.20148 0.0039,-0.39402 0.05079,-0.58796 0.04601,-0.20229 0.105936,-0.38701 0.178927,-0.57654 0.07298,-0.18951 0.149923,-0.3771 0.234051,-0.54291 0.09157,-0.17544 0.192642,-0.33227 0.271119,-0.47173 0.251498,-0.0392 0.541869,-0.0862 0.877176,-0.13844 0.335321,-0.0523 0.67067,-0.10298 1.005064,-0.16356 0.3344,-0.0606 0.637785,-0.1255 0.913506,-0.17695 0.284098,-0.0528 0.499544,-0.0968 0.639314,-0.14399 0.19536,-0.0591 0.35806,-0.16425 0.51028,-0.28337 -0.0827,0.13911 -0.16541,0.25642 -0.25324,0.41591 -0.16442,0.28861 -0.34238,0.6115 -0.52372,0.97907 -0.38414,0.77243 -0.644348,1.37773 -0.792288,1.81645 -0.0393,0.10793 -0.03566,0.19125 0.0015,0.21938 0.01389,0.0487 0.05619,0.0598 0.146567,0.0287 0.335456,-0.1286 0.547435,-0.25918 0.619359,-0.38065 0.43141,-0.65256 0.84829,-1.24527 1.26829,-1.7688 0.42839,-0.52482 0.86621,-0.99702 1.30742,-1.4051 0.06248,-0.0521 0.13359,-0.0734 0.20065,-0.0839 0.1509,-0.0235 0.224365,0.0367 0.239015,0.17009 0.005,0.05 0.004,0.0917 -0.0174,0.12895 -0.206485,0.37151 -0.398845,0.75395 -0.577435,1.14654 -0.17111,0.38295 -0.33492,0.7828 -0.4856,1.1965 -0.37804,0.98355 -0.54783,1.77941 -0.53219,2.38774 0.01106,0.3579 0.07009,0.6349 0.18886,0.84946 l 0.65787,-0.10839 c -0.21572,-0.17847 -0.32673,-0.47103 -0.33531,-0.8599 -0.03057,-0.58905 0.12379,-1.40193 0.47682,-2.45794 0.36886,-1.06696 0.803495,-2.03521 1.315365,-2.88692 0.10926,-0.16972 0.1016,-0.26811 -0.0203,-0.29154 -0.11447,-0.0331 -0.24459,0.0201 -0.41986,0.13223 -0.0886,0.0477 -0.18471,0.11669 -0.291075,0.23506 -0.2088,0.11737 -0.60778,0.48907 -1.18156,1.08745 -0.24445,0.25865 -0.49115,0.52306 -0.72629,0.78874 -0.22768,0.25604 -0.44326,0.50478 -0.65326,0.76654 -0.04389,0.0662 -0.09523,0.1097 -0.14554,0.11754 -0.06705,0.0104 -0.10054,-0.0303 -0.11061,-0.1221 -0.0073,-0.0667 0.0063,-0.13786 0.03529,-0.18479 0.12646,-0.40142 0.28049,-0.78332 0.46746,-1.17722 0.19442,-0.40355 0.42654,-0.82819 0.70481,-1.24481 0.0224,-0.0289 0.03959,-0.06 0.03593,-0.0934 -0.0093,-0.007 -0.04194,0.007 -0.0913,0.0232 -0.01672,0.006 -0.0212,0.0144 -0.03645,0.0202 -0.0042,-0.004 0.0069,-0.016 -1.3e-4,-0.0183 -0.02699,-0.0128 -0.07373,0.0141 -0.10921,0.079 -0.01528,0.008 -0.04237,0.0127 -0.05474,0.0212 -0.03917,0.0316 -0.07011,0.069 -0.09068,0.11459 -0.01045,0.009 -0.007,0.028 -0.01804,0.0375 -0.0016,0.003 -0.01666,-0.002 -0.01828,9.8e-4 -0.06375,0.0541 -0.1175,0.11829 -0.20003,0.17531 -0.16597,0.11918 -0.33631,0.2027 -0.51052,0.24681 -0.1323,0.0376 -0.301367,0.0612 -0.493266,0.0996 -0.183514,0.0371 -0.385814,0.0814 -0.602848,0.12374 -0.217969,0.034 -0.451326,0.0725 -0.694433,0.11035 -0.234723,0.0366 -0.468087,0.0751 -0.694427,0.11035 0.411823,-0.13204 0.784538,-0.30641 1.094077,-0.51582 0.30954,-0.20941 0.517085,-0.43833 0.617201,-0.69146 0.0617,-0.13686 0.06689,-0.27492 0.03363,-0.42243 -0.02487,-0.14883 -0.07912,-0.28838 -0.167391,-0.39339 -0.0808,-0.11465 -0.180397,-0.182218 -0.31254,-0.221008 -0.06655,-0.02357 -0.148004,-0.03175 -0.219712,-0.02482 z m 0.130557,0.358788 c 0.09968,-0.024 0.163129,-0.007 0.219846,0.0431 0.05578,0.0422 0.09036,0.1131 0.09297,0.21448 0.0026,0.1014 -0.03801,0.22502 -0.107181,0.37151 -0.08413,0.16581 -0.200268,0.32411 -0.362568,0.47665 -0.153931,0.15123 -0.32897,0.29787 -0.527545,0.43061 -0.19951,0.12441 -0.408813,0.24017 -0.638035,0.3268 -0.229228,0.0866 -0.457671,0.14853 -0.675634,0.18249 0.251144,-0.35299 0.52865,-0.69809 0.816076,-1.0313 0.286491,-0.34155 0.56297,-0.62696 0.853916,-0.85045 0.118413,-0.0863 0.235941,-0.14951 0.328155,-0.16388 z m -3.644306,2.09722 c -0.855976,0.12492 -1.747771,0.56968 -2.661731,1.33135 -0.913052,0.77002 -1.524532,1.59523 -1.830626,2.45731 -0.05988,0.15352 -0.08317,0.28935 -0.07035,0.40612 0.0017,0.0158 0.01606,0.0207 0.01854,0.0356 -0.158314,0.0512 -0.314913,0.0982 -0.47459,0.15343 0.242341,-1.13207 0.410506,-1.99779 0.51224,-2.62442 0.03367,-0.0816 0.06946,-0.16038 0.09004,-0.206 0.02803,-0.0553 0.06146,-0.10423 0.09042,-0.15117 0.0076,-0.086 -0.04586,-0.1492 -0.129546,-0.21251 -0.07531,-0.0646 -0.169812,-0.087 -0.311403,-0.0565 -0.05777,0.0175 -0.111559,0.051 -0.163825,0.1185 -0.04481,0.0579 -0.09294,0.12637 -0.126613,0.20796 -0.105462,0.1267 -0.251142,0.2808 -0.435848,0.46227 -0.17633,0.18016 -0.39858,0.40364 -0.654153,0.63857 -0.325535,0.29673 -0.613733,0.54015 -0.872971,0.74173 -0.251774,0.19191 -0.470991,0.33237 -0.655557,0.43746 -0.06432,0.0355 -0.132624,0.0603 -0.2192,0.0483 -0.06981,-0.0145 -0.120005,-0.0743 -0.129161,-0.15766 -0.0046,-0.0417 0.0176,-0.0959 0.03543,-0.16652 0.124481,-0.34174 0.323843,-0.7956 0.612605,-1.3496 0.347583,-0.63948 0.611178,-0.99996 0.778981,-1.10246 -0.03233,-0.13917 -0.104284,-0.19769 -0.220729,-0.17107 -0.06615,0.0188 -0.259587,0.12316 -0.546722,0.30362 -0.271288,0.16952 -0.409492,0.28898 -0.436614,0.35259 -0.01966,0.054 -0.01863,0.13054 0.0017,0.23765 0.02867,0.10583 0.03279,0.16415 0.01969,0.20012 -0.571538,1.39547 -0.866214,2.19614 -0.898198,2.37078 -0.01036,0.061 -6.97e-4,0.11106 0.05601,0.16162 0.05671,0.0505 0.12623,0.0741 0.201676,0.0623 0.02515,-0.004 0.06101,-0.0179 0.109472,-0.0424 0.457684,-0.25795 1.056194,-0.72749 1.801442,-1.395 0.567088,-0.50404 1.045876,-0.97007 1.417271,-1.39271 -0.0039,0.11939 -0.01241,0.27894 -0.03326,0.47729 -0.01247,0.19706 -0.05041,0.44215 -0.08634,0.73617 -0.07947,0.67407 -0.151101,1.21637 -0.244936,1.60424 -1.230893,0.43781 -2.423693,0.91766 -3.575616,1.45345 -1.160308,0.53708 -2.311357,1.12446 -3.427147,1.75642 -0.204531,0.11718 -0.389526,0.22595 -0.583044,0.34212 l 0.639565,-0.10741 c 1.998858,-1.20217 4.308059,-2.28204 6.91107,-3.24151 -0.123076,0.58753 -0.257206,1.17875 -0.408635,1.74102 -0.434352,0.21809 -0.869524,0.44025 -1.294228,0.67285 l 0.676139,-0.10937 c 0.174141,-0.0935 0.350257,-0.1923 0.528563,-0.28436 -0.01979,0.0707 -0.0515,0.13479 -0.07175,0.20502 l 0.420365,-0.0591 c 0.03416,-0.12023 0.05531,-0.24815 0.08889,-0.37055 1.393702,-0.69696 2.903015,-1.34974 4.541686,-1.96239 -0.116167,0.56055 -0.249171,1.11264 -0.390982,1.64863 l 0.401951,-0.0764 c 0.145792,-0.54346 0.292709,-1.10233 0.427303,-1.68717 0.24194,-0.0939 0.508525,-0.17764 0.784851,-0.26151 -0.02825,0.32839 -0.200566,0.72084 -0.577179,1.18311 -0.07743,0.0714 -0.114089,0.12038 -0.108581,0.17042 9.05e-4,0.008 0.0016,0.0199 0.01841,0.0173 0.05029,-0.008 0.103953,-0.0596 0.163701,-0.13679 0.398362,-0.40988 0.639169,-0.70951 0.725261,-0.93499 0.04205,-0.0829 0.06472,-0.18702 0.05283,-0.29545 -0.0033,-0.03 -0.01187,-0.0617 -0.01892,-0.0904 0.190541,-0.0538 0.378557,-0.10998 0.584316,-0.15932 0.615755,-0.13838 1.301748,-0.26606 2.064604,-0.38492 0.192812,-0.0301 0.360911,-0.0405 0.511812,-0.064 0.16019,-0.0165 0.302201,-0.0309 0.420487,-0.0408 0.414428,-0.0306 0.628458,0.10326 0.661428,0.40351 0.04029,0.36698 -0.150098,0.81284 -0.594323,1.34862 -0.0536,0.0495 -0.07668,0.0937 -0.09055,0.13288 l 0.127888,-0.0251 c 0.01772,-0.0165 0.0355,-0.0175 0.05461,-0.0395 0.398362,-0.40988 0.639048,-0.72779 0.725148,-0.95328 0.03274,-0.0899 0.04551,-0.19438 0.03454,-0.29448 -0.01193,-0.10842 -0.05062,-0.21265 -0.11191,-0.3049 -0.06128,-0.0922 -0.14563,-0.16453 -0.239524,-0.24322 -0.0846,-0.0717 -0.168716,-0.14368 -0.275714,-0.18641 -0.09864,-0.044 -0.199086,-0.0551 -0.293112,-0.0575 -0.119207,0.002 -0.259653,-0.004 -0.42075,0.004 -0.15182,0.0152 -0.338684,0.0516 -0.548263,0.0842 -0.865281,0.13482 -1.751988,0.32371 -2.685115,0.60105 -0.0069,-0.0118 -0.01088,-0.0241 -0.01854,-0.0356 -0.0613,-0.0922 -0.146555,-0.17288 -0.239532,-0.24322 -0.08461,-0.0716 -0.168596,-0.12542 -0.275595,-0.16811 -0.06817,-0.0304 -0.135696,-0.0519 -0.201675,-0.0624 0.09526,-0.43686 0.209183,-0.91312 0.283809,-1.27713 0.130535,-0.59718 0.22854,-1.0955 0.318723,-1.51674 0.06446,-0.11184 0.101648,-0.23225 0.107432,-0.33495 -0.0073,-0.0667 -0.04591,-0.1277 -0.111004,-0.17695 -0.05671,-0.0505 -0.114624,-0.0754 -0.183515,-0.0816 -0.0186,-0.014 -0.03975,-0.0196 -0.07328,-0.0144 z m -7.733968,0.67032 c -0.02492,0.006 -0.06368,0.0202 -0.09118,0.0415 -0.158506,0.10952 -0.371886,0.28171 -0.636759,0.50961 -0.256497,0.2266 -0.51346,0.47263 -0.799819,0.73781 -0.286364,0.26519 -0.574801,0.53335 -0.836012,0.79462 -0.262131,0.25292 -0.454006,0.44915 -0.599546,0.59906 -0.05474,-0.11023 -0.115678,-0.25009 -0.167523,-0.41166 -0.04438,-0.17123 -0.09711,-0.33413 -0.149873,-0.50406 -0.04529,-0.17958 -0.08734,-0.35209 -0.131713,-0.52332 -0.0453,-0.17956 -0.09153,-0.33894 -0.131331,-0.46847 -0.01663,-0.0738 -0.0396,-0.12093 -0.07404,-0.12405 -0.03536,-0.0115 -0.0604,0.0112 -0.09118,0.0415 -0.0317,0.0219 -0.05273,0.0597 -0.07239,0.11361 -0.344843,0.0454 -0.659924,0.089 -0.932169,0.12308 -0.269175,0.0335 -0.500835,0.0704 -0.694555,0.0921 -0.01769,-0.006 -0.01915,-0.0288 -0.03683,-0.0346 -0.0093,-0.007 -0.03731,-0.01 -0.05499,-0.0153 -0.260507,-0.1206 -0.45315,-0.16243 -0.586359,-0.1332 -0.183512,0.0371 -0.362858,0.1536 -0.528052,0.35747 -0.05502,0.0425 -0.09398,0.0748 -0.127505,0.08 -0.0084,0.001 -0.165848,0.0237 -0.475101,0.0803 -0.191895,0.0384 -0.289558,0.0807 -0.310128,0.12635 -0.02057,0.0456 -0.03856,0.0866 -0.03581,0.11163 0.0055,0.0501 0.04718,0.0928 0.129034,0.13941 0.08094,0.0383 0.15848,0.067 0.238508,0.097 0.05213,0.009 0.06459,0.0624 0.03747,0.126 -0.958213,1.52357 -1.408128,2.63279 -1.348892,3.32765 0.0073,0.0667 0.03449,0.12575 0.07443,0.17891 0.04832,0.0518 0.110605,0.0853 0.165482,0.11915 0.06326,0.0326 0.114493,0.0571 0.183389,0.0633 0.06981,0.0145 0.1434,0.007 0.201166,-0.0108 0.725797,-0.22338 1.532095,-0.83528 2.420423,-1.83049 0.456275,-0.50373 0.774754,-0.9544 0.97849,-1.35092 0.211194,-0.40616 0.31314,-0.75614 0.303497,-1.07699 -0.0018,-0.0167 -0.0077,-0.0484 -0.0188,-0.0722 -0.01114,-0.0237 -0.0077,-0.0484 -0.0188,-0.0721 -0.01952,-0.0224 -0.03282,-0.0445 -0.0188,-0.0721 0.05864,-0.10176 0.217218,-0.16364 0.437633,-0.20633 0.02212,0.12119 0.05101,0.27924 0.09463,0.45213 0.0453,0.17958 0.09554,0.35402 0.150128,0.54063 0.05459,0.18661 0.11395,0.37132 0.168544,0.55792 0.06206,0.17697 0.12051,0.32836 0.167778,0.44822 -0.182879,0.19817 -0.378822,0.42582 -0.599035,0.67221 -0.221132,0.23804 -0.445699,0.49481 -0.67155,0.76753 -0.22585,0.2727 -0.454614,0.5426 -0.671167,0.82235 -0.224017,0.2894 -0.433156,0.56318 -0.616176,0.83771 -0.166253,0.27192 -0.309691,0.55095 -0.451712,0.81062 -0.133717,0.25395 -0.228374,0.49391 -0.287633,0.72866 l 0.237614,-0.031 c 0.0082,-0.0251 0.0086,-0.0489 0.01778,-0.0741 0.09172,-0.25183 0.206113,-0.49828 0.342496,-0.7316 0.136386,-0.23335 0.259094,-0.43461 0.361804,-0.58633 0.205422,-0.30348 0.428478,-0.58685 0.652497,-0.87624 0.224934,-0.28107 0.442091,-0.54968 0.653007,-0.80311 0.219297,-0.25473 0.418466,-0.48233 0.617195,-0.69145 0.198728,-0.2091 0.382756,-0.38875 0.545066,-0.54128 0.06769,0.15062 0.152087,0.31268 0.259726,0.51647 0.10672,0.19543 0.217494,0.40145 0.333516,0.60395 0.123485,0.19283 0.248967,0.37932 0.36971,0.54713 0.120737,0.16781 0.22805,0.28729 0.313571,0.36728 0.102281,0.0774 0.180006,0.10286 0.220092,0.0797 0.04846,-0.0245 0.0032,-0.0858 -0.11113,-0.19524 -0.104119,-0.094 -0.217267,-0.24526 -0.332369,-0.43942 -0.11419,-0.18579 -0.224965,-0.39182 -0.333516,-0.60394 -0.100173,-0.21342 -0.187911,-0.41877 -0.27878,-0.62517 -0.09087,-0.2064 -0.164939,-0.3716 -0.204737,-0.50112 0.161391,-0.16087 0.373863,-0.36638 0.635994,-0.61931 0.262126,-0.25292 0.539082,-0.50154 0.81798,-0.75708 0.277976,-0.26386 0.553227,-0.51089 0.818107,-0.73879 0.264871,-0.22789 0.478858,-0.40679 0.655046,-0.51058 0.0634,-0.0438 0.09756,-0.0812 0.108835,-0.13386 0.01035,-0.061 0.01041,-0.10749 -0.01931,-0.14527 -0.02135,-0.0391 -0.06571,-0.067 -0.110365,-0.0855 -0.02233,-0.009 -0.03007,-0.0213 -0.05499,-0.0153 z m 7.261042,-0.2792 c 0.05959,-8e-4 0.0949,0.0817 0.111382,0.23178 -0.0075,0.01 -0.0024,0.0298 3.77e-4,0.0548 0.0084,-0.001 0.0175,0.009 0.01842,0.0173 0.0078,0.30418 -0.09534,0.55583 -0.287508,0.74695 -0.151182,0.17626 -0.343233,0.3757 -0.581129,0.61637 -0.230436,0.23102 -0.500577,0.49821 -0.817726,0.79363 -0.499365,0.47014 -0.855528,0.79055 -1.109184,0.97385 -0.174153,0.044 -0.353694,0.0889 -0.529582,0.13811 -0.07842,-0.0532 -0.131019,-0.144 -0.14847,-0.30296 -0.0046,-0.0417 -0.01631,-0.0837 -0.01905,-0.10872 0.0056,-0.0263 0.01372,-0.0677 0.01752,-0.11067 0.11927,-0.54452 0.467053,-1.10248 1.049224,-1.70218 0.553211,-0.55277 1.133293,-0.95284 1.729688,-1.18997 0.285163,-0.12079 0.470156,-0.17734 0.566037,-0.15834 z m -12.39291,1.55997 c 0.38181,-0.0171 0.546071,0.11543 0.514865,0.37477 -0.0589,0.62845 -0.471601,1.36924 -1.228399,2.24216 -0.71672,0.8497 -1.350181,1.36655 -1.910149,1.54713 -0.262761,0.0918 -0.39992,0.0399 -0.421896,-0.1603 -0.01007,-0.0917 -0.0056,-0.17661 0.03466,-0.27618 0.359847,-1.22672 0.945278,-2.32889 1.751606,-3.29434 0.116586,-0.10302 0.182589,-0.1445 0.200273,-0.13876 0.144482,-0.0819 0.31841,-0.14686 0.492625,-0.19099 0.173291,-0.0525 0.36247,-0.0972 0.566412,-0.10349 z m 12.455167,-0.50257 c -0.02255,0.10531 -0.03252,0.23826 -0.05232,0.36858 -0.01233,0.12069 -0.04413,0.23952 -0.07047,0.38785 -0.07337,0.44805 -0.140725,0.8418 -0.211292,1.18179 -0.187802,0.009 -0.399125,0.0498 -0.657983,0.0901 -0.475546,0.0741 -0.953902,0.16266 -1.443329,0.27849 0.302537,-0.25471 0.626831,-0.5338 1.018253,-0.89583 0.347923,-0.32566 0.641112,-0.59219 0.87246,-0.81486 0.238809,-0.23231 0.416815,-0.44046 0.544682,-0.59613 z m 10.975253,-0.22211 c -0.0587,0.009 -0.1106,0.0378 -0.18237,0.0829 -0.0634,0.0438 -0.0959,0.10111 -0.0904,0.15115 0.003,0.025 0.0216,0.0389 0.0551,0.0336 0.0419,-0.007 0.0759,-0.0157 0.12802,-0.007 0.0512,5e-4 0.10869,0.0288 0.14681,0.0653 0.0456,0.0268 0.0651,0.0772 0.0743,0.16061 0.0449,0.40868 -0.28967,1.01027 -1.01187,1.80991 -0.42923,0.47325 -0.8164,0.81599 -1.16342,1.06819 l 0.45695,-0.061 c 0.29872,-0.24975 0.58449,-0.54287 0.85366,-0.88702 0.26135,-0.33763 0.47019,-0.65144 0.6337,-0.94838 0.16349,-0.29693 0.25626,-0.58569 0.30515,-0.83933 0.0338,-0.15796 0.0624,-0.27684 0.0523,-0.36858 -0.0211,-0.19183 -0.11544,-0.28272 -0.25794,-0.26052 z m -10.942047,2.36013 c 0.357217,-0.013 0.541817,0.13243 0.58814,0.38913 -0.23788,0.0727 -0.487861,0.15841 -0.730107,0.24028 0.05345,-0.2383 0.09353,-0.40883 0.141967,-0.62941 z m -0.475232,0.062 c 0.02062,-0.003 0.03494,2e-5 0.05487,-0.003 -0.06095,0.27025 -0.119235,0.51668 -0.178038,0.7045 -1.554027,0.54728 -3.057344,1.18089 -4.50562,1.88732 0.142013,-0.53131 0.296342,-1.06157 0.427687,-1.63231 0.17796,-0.0662 0.367288,-0.13278 0.565776,-0.1949 0.07989,0.13505 0.23044,0.19199 0.440182,0.15931 0.09221,-0.0144 0.173043,-0.0321 0.23736,-0.0676 0.156832,-0.0993 0.362187,-0.27947 0.564115,-0.43258 0.568903,-0.13034 1.195128,-0.24983 1.881863,-0.35684 0.192808,-0.03 0.359987,-0.0488 0.511806,-0.064 z"
    id="path2024" />
  <path
    style="fill:url(#linearGradient140871);fill-opacity:1;fill-rule:nonzero;stroke:none;stroke-width:1px;stroke-linecap:butt;stroke-linejoin:miter;stroke-opacity:1"
    id="path2180"
    d="m 24.895491,23.79042 c -0.158985,1.603063 -0.04657,3.213343 0.06696,4.815985 0.371142,4.479594 0.929657,8.946634 1.42357,13.418466 0.53706,5.367385 1.581412,10.683798 2.612589,16.000753 0.988854,5.276615 2.262677,10.51524 3.730248,15.720189 0.976282,3.300425 2.010389,6.581707 2.780803,9.916781 l -5.004803,2.108083 C 29.869756,82.403464 28.88506,79.095194 27.994318,75.766353 26.535577,70.552983 25.274064,65.308415 24.220675,60.03334 23.155804,54.706811 22.304595,49.358625 21.63872,43.991342 21.051032,39.55728 20.432787,35.125979 19.926613,30.685348 19.712752,29.127713 19.533767,27.567944 19.426068,26.003174 Z" />
  <path
    style="fill:url(#linearGradient140873);fill-opacity:1;fill-rule:nonzero;stroke:none;stroke-width:1px;stroke-linecap:butt;stroke-linejoin:miter;stroke-opacity:1"
    id="path2182"
    d="m 21.08335,91.340653 c 0.107559,-0.51392 0.521498,-0.96408 0.823534,-1.39964 3.665997,-4.014653 9.166463,-5.334135 14.273645,-6.303127 3.180799,-0.402209 6.382634,-0.488595 9.583287,-0.543308 l -2.814191,2.048624 c -3.169181,0.0039 -6.341683,0.04316 -9.481284,0.548651 -6.560985,1.392468 -7.622556,1.836149 -7.864828,2.614276 -0.239677,0.391374 -0.450953,0.917964 -0.835408,1.157044 z" />
  <path
    style="fill:url(#linearGradient140875);fill-opacity:1;fill-rule:nonzero;stroke:none;stroke-width:1px;stroke-linecap:butt;stroke-linejoin:miter;stroke-opacity:1"
    id="path2186"
    d="m 19.907172,26.688997 c 1.356234,-0.713887 2.764208,-1.339885 4.174926,-1.945452 6.804656,-2.668773 14.014678,-4.124663 21.158591,-5.560116 4.317467,-0.84314 8.642984,-1.644008 12.968076,-2.446796 l -2.587586,1.950335 c -4.2709,0.722112 -8.537422,1.469276 -12.785216,2.319092 -7.338892,1.537484 -14.742074,3.113652 -21.673086,6.051248 -1.51287,0.696466 -3.015125,1.41109 -4.477696,2.208978 z" />
  <path
    style="fill:url(#linearGradient140877);fill-opacity:1;fill-rule:nonzero;stroke:none;stroke-width:1px;stroke-linecap:butt;stroke-linejoin:miter;stroke-opacity:1"
    id="path2188"
    d="m 50.871902,16.575387 c 0.864654,1.233735 0.840572,3.192885 1.066616,4.712902 0.494752,4.147563 1.267297,8.254292 2.116812,12.341616 l -3.241962,1.726731 c -0.658703,-4.116382 -1.312588,-8.235597 -2.17925,-12.3146 -0.224518,-1.190178 -0.403366,-3.22693 -1.107904,-4.035865 z" />
  <path
    style="fill:url(#linearGradient3582);fill-opacity:1;fill-rule:nonzero;stroke:none;stroke-width:1px;stroke-linecap:butt;stroke-linejoin:miter;stroke-opacity:1"
    id="path2190"
    d="m 57.26733,34.716865 c -0.288151,-0.528086 -1.008401,-0.655733 -1.553083,-0.875899 -6.093365,0.509278 1.881449,-2.706695 -1.506942,-0.283155 -2.506983,2.125171 -4.637827,4.787185 -5.858775,7.851358 -0.178673,3.585069 2.092199,5.834923 4.886523,7.654316 3.40651,2.842851 11.20522,0.01551 8.685633,0.629464 3.496648,-4.21842 3.324617,-9.303189 1.559922,-14.205322 -1.230462,-2.970972 -3.438351,-3.162608 -6.325978,-3.056802 l 3.023064,-2.208159 c 3.058369,-0.04434 5.368541,0.301404 6.510273,3.49652 1.60172,5.032431 1.911725,10.206742 -1.437705,14.63799 -5.30216,3.504735 -9.134578,5.909952 -15.146954,2.715977 -2.965298,-1.937303 -5.198597,-4.303758 -5.222435,-8.056037 1.176385,-3.104117 3.369207,-5.786893 5.768566,-8.044813 2.400207,-1.881799 5.238757,-4.381182 8.379534,-3.366946 0.734194,0.303902 1.535226,0.483813 1.923112,1.234032 z" />
  <path
    style="fill:url(#linearGradient3572);fill-opacity:1;fill-rule:nonzero;stroke:none;stroke-width:1px;stroke-linecap:butt;stroke-linejoin:miter;stroke-opacity:1"
    id="path2192"
    d="m 56.991117,56.002822 c 4.488387,-6.27854 3.687281,-4.038004 4.18247,2.497936 0.229077,2.692027 0.10351,1.37921 0.373292,3.939523 l -3.439041,3.333451 C 57.857402,63.178915 57.979299,64.501631 57.74339,61.805205 57.08429,55.03074 56.389473,56.949557 60.675872,52.58605 Z" />
  <path
    style="fill:url(#linearGradient3570);fill-opacity:1;fill-rule:nonzero;stroke:none;stroke-width:1px;stroke-linecap:butt;stroke-linejoin:miter;stroke-opacity:1"
    id="path2194"
    d="m 58.062512,54.456187 c 3.904795,-2.676056 3.915113,-2.270635 7.598183,-0.787898 5.256816,2.162258 10.772134,3.549241 16.265146,4.953265 l -2.850573,1.956272 c -5.492994,-1.625132 -11.0245,-3.118545 -16.491207,-4.833197 -3.35732,-1.082031 -6.137432,-0.26311 -0.703796,-2.869807 z" />
  <rect
    ry="0.42543191"
    rx="0.42543191"
    y="109.40813"
    x="68.489357"
    height="2.7044675"
    width="10.04137"
    id="rect2202"
    style="opacity:0.86;fill:#525352;fill-opacity:1;fill-rule:nonzero;stroke:none;stroke-width:0.2;stroke-linecap:round;stroke-linejoin:round;stroke-miterlimit:4;stroke-dasharray:none;stroke-dashoffset:4;stroke-opacity:1"
    transform="rotate(-10.3658)" />
  <rect
    style="opacity:0.86;fill:#525352;fill-opacity:1;fill-rule:nonzero;stroke:none;stroke-width:0.2;stroke-linecap:round;stroke-linejoin:round;stroke-miterlimit:4;stroke-dasharray:none;stroke-dashoffset:4;stroke-opacity:1"
    id="rect2204"
    width="10.04137"
    height="2.7044675"
    x="53.518303"
    y="109.40813"
    rx="0.42543191"
    ry="0.42543191"
    transform="rotate(-10.3658)" />
  <rect
    ry="0.42543191"
    rx="0.42543191"
    y="109.40813"
    x="38.547234"
    height="2.7044675"
    width="10.04137"
    id="rect2206"
    style="opacity:0.86;fill:#525352;fill-opacity:1;fill-rule:nonzero;stroke:none;stroke-width:0.2;stroke-linecap:round;stroke-linejoin:round;stroke-miterlimit:4;stroke-dasharray:none;stroke-dashoffset:4;stroke-opacity:1"
    transform="rotate(-10.3658)" />
  <rect
    style="opacity:0.86;fill:#525352;fill-opacity:1;fill-rule:nonzero;stroke:none;stroke-width:0.2;stroke-linecap:round;stroke-linejoin:round;stroke-miterlimit:4;stroke-dasharray:none;stroke-dashoffset:4;stroke-opacity:1"
    id="rect2208"
    width="10.04137"
    height="2.7044675"
    x="23.576162"
    y="109.40813"
    rx="0.42543191"
    ry="0.42543191"
    transform="rotate(-10.3658)" />
  <rect
    ry="0.42543191"
    rx="0.42543191"
    y="109.40813"
    x="8.6050882"
    height="2.7044675"
    width="10.04137"
    id="rect2210"
    style="opacity:0.86;fill:#525352;fill-opacity:1;fill-rule:nonzero;stroke:none;stroke-width:0.2;stroke-linecap:round;stroke-linejoin:round;stroke-miterlimit:4;stroke-dasharray:none;stroke-dashoffset:4;stroke-opacity:1"
    transform="rotate(-10.3658)" />
  <text
    xml:space="preserve"
    style="font-style:normal;font-variant:normal;font-weight:normal;font-stretch:normal;line-height:0%;font-family:'Bitstream Vera Sans';text-align:start;writing-mode:lr-tb;text-anchor:start;fill:#000000;fill-opacity:1;stroke:none;stroke-width:1px;stroke-linecap:butt;stroke-linejoin:miter;stroke-opacity:1"
    x="12.287316"
    y="107.72732"
    id="text2216"
    transform="rotate(-8.8186176)"><tspan
     id="tspan2218"
     x="12.287316"
     y="107.72732"
     style="font-size:14px;line-height:1.25">k</tspan></text>
  <g
    id="g2417"
    transform="matrix(0.765879,-0.07345382,0.18044,0.746495,27.91303,8.493379)">
   <path
     id="path3180"
     d="m 114.15996,0.42886473 c 0.69076,-0.68798428 4.9357,-0.0953317 9.23871,4.25670597 4.3452,4.3947023 5.0353,8.4431433 4.17003,9.3048623 -0.56316,0.560909 -1.12633,1.121814 -1.6895,1.682722 -4.46961,-4.520526 -8.93919,-9.0410474 -13.40879,-13.5615721 0.56318,-0.5609066 1.12636,-1.12181153 1.68955,-1.68271817 0,0 0,0 0,0"
     style="fill:#000000;fill-opacity:1;fill-rule:evenodd;stroke:none;stroke-width:1px;stroke-linecap:butt;stroke-linejoin:miter;stroke-opacity:1" />
   <path
     id="path3299"
     d="m 33.1875,81.15625 -0.3125,0.3125 -19.6875,29.875 3.40625,3.09375 29.53125,-19.25 0.25,-0.21875 z"
     style="fill:#000000;fill-opacity:1;fill-rule:evenodd;stroke:#000000;stroke-width:0;stroke-linecap:butt;stroke-linejoin:miter;stroke-miterlimit:4;stroke-dasharray:none;stroke-opacity:1" />
   <path
     id="path2247"
     d="M 9.288771,118.5949 45.784375,94.811785 46.009559,94.587511 33.543773,81.553137 33.238529,81.857026 Z"
     style="fill:url(#radialGradient3536);fill-opacity:1;fill-rule:evenodd;stroke:#000000;stroke-width:0;stroke-linecap:butt;stroke-linejoin:miter;stroke-miterlimit:4;stroke-dasharray:none;stroke-opacity:1" />
   <path
     id="rect2192"
     d="m 38.477649,89.364338 c 1.653867,1.672703 3.438036,1.145458 4.029224,1.743368 0.09553,0.09662 0.15628,0.225657 0.197388,0.362595 L 123.33483,11.064885 116.83504,4.491035 36.001557,85.09852 c 0.309367,-0.01207 0.582019,0.01839 0.769008,0.207492 0.540357,0.546536 0.04554,2.377842 1.707084,4.058326 z"
     style="fill:url(#radialGradient3538);fill-opacity:1;fill-rule:nonzero;stroke:none;stroke-width:0.5;stroke-linecap:round;stroke-linejoin:round;stroke-miterlimit:4;stroke-dasharray:none;stroke-dashoffset:4;stroke-opacity:1" />
   <path
     id="rect2190"
     d="m 123.09752,10.824896 -80.549388,80.32456 c 0.515812,0.616367 -0.09364,2.02345 0.904712,3.03315 1.075887,1.088194 2.140465,0.156717 2.839944,0.855985 L 126.89289,14.663523 Z"
     style="fill:url(#radialGradient3540);fill-opacity:1;fill-rule:nonzero;stroke:none;stroke-width:0.5;stroke-linecap:round;stroke-linejoin:round;stroke-miterlimit:4;stroke-dasharray:none;stroke-dashoffset:4;stroke-opacity:1" />
   <path
     style="opacity:0.353488;fill:#000000;fill-opacity:1;fill-rule:nonzero;stroke:none;stroke-width:0.5;stroke-linecap:round;stroke-linejoin:round;stroke-miterlimit:4;stroke-dasharray:none;stroke-dashoffset:4;stroke-opacity:1"
     d="m 46.539778,87.173949 -4.185174,4.168238 c 0.512973,0.613477 -0.292043,2.211259 0.701218,3.215829 1.070431,1.082633 2.32817,-0.04186 3.024127,0.653803 l 4.2359,-4.218804 z"
     id="path2233" />
   <path
     style="opacity:0.386047;fill:#252525;fill-opacity:1;fill-rule:nonzero;stroke:none;stroke-width:0.5;stroke-linecap:round;stroke-linejoin:round;stroke-miterlimit:4;stroke-dasharray:none;stroke-dashoffset:4;stroke-opacity:1"
     d="m 38.805146,83.281485 -2.146904,2.138228 -0.08123,0.07907 c 0.440174,0.475152 -0.299164,2.104071 1.105883,3.808407 l 0.08255,0.08346 0.588073,0.594778 0.08254,0.08349 c 1.702962,1.439176 3.332225,0.680312 3.923401,1.278193 L 44.6337,89.070283 Z"
     id="path2231" />
   <path
     style="opacity:0.353488;fill:#131313;fill-opacity:1;fill-rule:nonzero;stroke:none;stroke-width:0.5;stroke-linecap:round;stroke-linejoin:round;stroke-miterlimit:4;stroke-dasharray:none;stroke-dashoffset:4;stroke-opacity:1"
     d="m 35.05083,79.438885 -2.168145,2.04108 c 0.02073,0.02086 -0.156718,0.199168 -0.135921,0.22021 0.424268,0.4291 -0.256738,2.059631 0.437112,3.056725 l 0.07222,0.07303 0.319817,0.323493 0.04129,0.04171 c 1.010419,0.738755 2.441494,-0.06883 2.959807,0.303657 l 2.249888,-2.240785 z"
     id="path2229" />
   <path
     id="rect1315"
     d="m 33.819056,84.592006 c 1.042337,1.029873 2.400253,0.156482 2.951509,0.714006 L 117.31997,4.9814725 113.48413,1.101952 32.884002,81.477027 c 0.02106,0.02118 0.04175,0.04222 0.06286,0.06362 0.430995,0.435879 -0.177916,2.013563 0.872189,3.051361 z"
     style="fill:#131313;fill-opacity:1;fill-rule:nonzero;stroke:none;stroke-width:0.5;stroke-linecap:round;stroke-linejoin:round;stroke-miterlimit:4;stroke-dasharray:none;stroke-dashoffset:4;stroke-opacity:1" />
   <ellipse
     transform="matrix(0.726055,-0.721815,-1.742833,-1.753922,68.83446,75.19743)"
     id="path3301"
     style="fill:url(#radialGradient3542);fill-opacity:1;fill-rule:nonzero;stroke:none;stroke-width:0.2;stroke-linecap:round;stroke-linejoin:round;stroke-miterlimit:4;stroke-dasharray:none;stroke-dashoffset:4;stroke-opacity:1"
     cx="34.677639"
     cy="7.4622769"
     rx="47.495197"
     ry="0.97142172" />
   <path
     style="fill:url(#radialGradient3544);fill-opacity:1;fill-rule:nonzero;stroke:none;stroke-width:0.2;stroke-linecap:round;stroke-linejoin:round;stroke-miterlimit:4;stroke-dasharray:none;stroke-dashoffset:4;stroke-opacity:1"
     id="path3321"
     transform="matrix(0.575382,-0.57452,-1.262984,-1.27456,65.29537,75.27667)"
     d="M 106.56087,7.4622769 A 71.883232,0.4230493 0 0 1 35.242273,7.8853132 71.883232,0.4230493 0 0 1 -37.196723,7.4689227 71.883232,0.4230493 0 0 1 32.983878,7.0393451 71.883232,0.4230493 0 0 1 106.52539,7.448987" />
   <path
     style="fill:url(#radialGradient3546);fill-opacity:1;fill-rule:nonzero;stroke:none;stroke-width:0.5;stroke-linecap:round;stroke-linejoin:round;stroke-miterlimit:4;stroke-dasharray:none;stroke-dashoffset:4;stroke-opacity:1"
     d="m 106.68643,7.8839598 c -2.0225,1.1549904 -3.98021,3.2333522 -5.06053,5.0400682 l 10.78347,10.807475 5.06052,-5.040068 z m 9.65052,9.6616642 -5.06051,5.040067 3.77636,3.819378 c 1.75986,-0.960932 3.81522,-2.933061 5.06052,-5.040064 z"
     id="path2274" />
   <path
     id="path2265"
     d="m 17.90625,104.25 -8.9375,13.46875 -0.90625,1.375 c -0.00143,0.003 0.00113,0.0278 0,0.0312 H 8.03125 c -5.571e-4,0.004 2.818e-4,0.0275 0,0.0312 -1.38e-5,0.004 -2.469e-4,0.0273 0,0.0312 0.00149,0.008 0.028817,0.0229 0.03125,0.0312 0.00144,0.004 -0.00166,0.0269 0,0.0312 0.0056,0.013 0.023898,0.0493 0.03125,0.0625 0.028038,0.0442 0.083707,0.11536 0.125,0.15625 0.068905,0.0631 0.1752738,0.12713 0.25,0.15625 0.013752,0.004 0.049301,0.0288 0.0625,0.0312 0.00432,5.8e-4 0.02701,-3.6e-4 0.03125,0 0.00405,-1.2e-4 0.027304,3.7e-4 0.03125,0 0.00371,-8.9e-4 0.027664,10e-4 0.03125,0 0.00359,-0.001 -0.00345,-0.0298 0,-0.0312 0.00331,-0.002 0.02809,0.002 0.03125,0 l 1.625,-1.03125 13.5,-8.8125 c -2.512761,-0.40944 -4.523994,-4.29929 -5.875,-5.53125 z"
     style="fill:#000000;fill-opacity:1;fill-rule:evenodd;stroke:none;stroke-width:0;stroke-linecap:butt;stroke-linejoin:miter;stroke-miterlimit:4;stroke-dasharray:none;stroke-opacity:1" />
   <rect
     transform="matrix(0.703089,0.711101,-0.708537,0.705673,0,0)"
     style="fill:url(#linearGradient3548);fill-opacity:1;fill-rule:nonzero;stroke:none;stroke-width:0;stroke-linecap:round;stroke-linejoin:round;stroke-miterlimit:4;stroke-dasharray:none;stroke-dashoffset:4;stroke-opacity:1"
     id="rect3215"
     width="8.2226744"
     height="1.1569091"
     x="86.317268"
     y="-80.842911" />
   <rect
     transform="matrix(0.703089,0.711101,-0.708537,0.705673,0,0)"
     y="-81.48642"
     x="86.317268"
     height="1.8004045"
     width="8.2226744"
     id="rect3205"
     style="fill:url(#radialGradient3550);fill-opacity:1;fill-rule:nonzero;stroke:none;stroke-width:0;stroke-linecap:round;stroke-linejoin:round;stroke-miterlimit:4;stroke-dasharray:none;stroke-dashoffset:4;stroke-opacity:1" />
   <path
     id="path3233"
     d="m 122.03978,3.6950068 c 2.80003,2.4325926 4.71309,5.6772518 4.81095,5.983871 0.0979,0.30662 -2.54885,-3.3526751 -4.87789,-5.0931904 -2.31125,-1.7272237 -5.66707,-1.9619539 -5.90401,-2.169657 -0.23694,-0.2077022 -1.8122,-2.08005868 -0.29351,-1.92612806 1.58847,0.16100493 4.10162,1.32782266 6.26446,3.20510446 z"
     style="fill:url(#linearGradient3552);fill-opacity:1;fill-rule:evenodd;stroke:none;stroke-width:1px;stroke-linecap:butt;stroke-linejoin:miter;stroke-opacity:1" />
   <rect
     transform="matrix(0.703089,0.711101,-0.708537,0.705673,0,0)"
     y="-80.842911"
     x="80.864449"
     height="1.1569091"
     width="5.4529686"
     id="rect3243"
     style="fill:url(#linearGradient3554);fill-opacity:1;fill-rule:nonzero;stroke:none;stroke-width:0;stroke-linecap:round;stroke-linejoin:round;stroke-miterlimit:4;stroke-dasharray:none;stroke-dashoffset:4;stroke-opacity:1" />
   <rect
     transform="matrix(0.703089,0.711101,-0.708537,0.705673,0,0)"
     style="fill:url(#radialGradient3556);fill-opacity:1;fill-rule:nonzero;stroke:none;stroke-width:0;stroke-linecap:round;stroke-linejoin:round;stroke-miterlimit:4;stroke-dasharray:none;stroke-dashoffset:4;stroke-opacity:1"
     id="rect3245"
     width="5.4529686"
     height="1.8004045"
     x="80.864449"
     y="-81.48642" />
   <rect
     transform="matrix(-0.703089,-0.711101,-0.708537,0.705673,0,0)"
     style="fill:url(#linearGradient3558);fill-opacity:1;fill-rule:nonzero;stroke:none;stroke-width:0;stroke-linecap:round;stroke-linejoin:round;stroke-miterlimit:4;stroke-dasharray:none;stroke-dashoffset:4;stroke-opacity:1"
     id="rect3265"
     width="5.4103823"
     height="1.1569091"
     x="-99.935844"
     y="-80.842911" />
   <rect
     transform="matrix(-0.703089,-0.711101,-0.708537,0.705673,0,0)"
     y="-81.48642"
     x="-99.935844"
     height="1.8004045"
     width="5.4103823"
     id="rect3267"
     style="fill:url(#radialGradient3560);fill-opacity:1;fill-rule:nonzero;stroke:none;stroke-width:0;stroke-linecap:round;stroke-linejoin:round;stroke-miterlimit:4;stroke-dasharray:none;stroke-dashoffset:4;stroke-opacity:1" />
   <path
     id="text3284"
     d="m 54.27479,82.331174 c -0.328917,0.327248 -0.520217,0.64561 -0.573946,0.955069 -0.05372,0.309515 0.03519,0.581459 0.266738,0.815881 0.230569,0.233429 0.500268,0.32453 0.809078,0.273338 0.308825,-0.05126 0.627674,-0.240451 0.956576,-0.567686 0.330793,-0.329116 0.523021,-0.648397 0.576762,-0.957896 0.05372,-0.309497 -0.03472,-0.580935 -0.265279,-0.814375 -0.231558,-0.234433 -0.501735,-0.326018 -0.810546,-0.274802 -0.308818,0.05121 -0.628604,0.241367 -0.959383,0.570471 m -0.410601,-0.415728 c 0.672762,-0.669335 1.3008,-1.091357 1.884147,-1.266029 0.583326,-0.174669 1.053086,-0.08169 1.40923,0.278874 0.355168,0.359604 0.443196,0.831337 0.26409,1.415261 -0.179123,0.583933 -0.605056,1.210563 -1.27782,1.879923 -0.670883,0.667469 -1.29892,1.089493 -1.884143,1.266033 -0.583333,0.174663 -1.052584,0.0822 -1.407767,-0.27739 -0.356142,-0.360565 -0.444666,-0.83283 -0.265542,-1.416733 0.180983,-0.58579 0.606916,-1.21242 1.277805,-1.879939 m 6.211668,-3.940904 2.573476,-0.309309 -1.124075,1.118396 -1.728855,0.213421 -0.219324,1.724897 -1.129661,1.123939 0.330569,-2.580044 -2.471773,0.299714 1.126868,-1.121169 1.624512,-0.195295 0.205948,-1.62589 1.132474,-1.126743 -0.320159,2.478083 m 0.437892,-2.595225 1.180124,-1.174143 1.736006,-0.155576 0.170137,-1.740931 1.182927,-1.176929 -0.323443,2.874268 0.925714,0.937202 -1.079232,1.073777 -0.925696,-0.937237 -2.866537,0.299569 m 10.527444,-6.391364 c -0.200443,0.337264 -0.42831,0.667373 -0.683623,0.990329 -0.255322,0.322973 -0.53716,0.637852 -0.845499,0.944625 -0.697059,0.693527 -1.351305,1.139633 -1.962778,1.338359 -0.612441,0.197744 -1.093801,0.119268 -1.44407,-0.235341 -0.354206,-0.358602 -0.425403,-0.847096 -0.213623,-1.465463 0.211765,-0.618409 0.678338,-1.286432 1.399668,-2.004125 0.278458,-0.277037 0.558493,-0.528097 0.840115,-0.75314 0.283494,-0.226917 0.565273,-0.425513 0.845357,-0.595895 l 0.454762,0.460441 c -0.303263,0.161877 -0.587923,0.340711 -0.853991,0.536494 -0.264193,0.193914 -0.512175,0.40618 -0.74389,0.636729 -0.429816,0.427634 -0.698226,0.821728 -0.805264,1.182275 -0.106137,0.357717 -0.04197,0.655285 0.192524,0.892666 0.232524,0.235438 0.524215,0.30564 0.875037,0.210673 0.350805,-0.09498 0.732702,-0.347908 1.145713,-0.758833 0.112111,-0.111532 0.212387,-0.218205 0.30084,-0.32001 0.08932,-0.104614 0.164462,-0.203002 0.225364,-0.295122 L 69.341053,69.3205 68.6823,69.975922 l -0.379683,-0.384417 1.681886,-1.673371 1.05669,1.069819 m -1.086438,-3.001847 2.912475,-2.897732 0.428255,0.433567 -1.833262,1.823985 0.409138,0.414224 1.72394,-1.715211 0.428264,0.433583 -1.723937,1.715213 0.503329,0.509591 1.894929,-1.885332 0.428268,0.433586 -2.974153,2.959101 -2.197246,-2.224575 m 3.924416,-3.904559 1.205352,-1.199258 3.029137,0.01135 -1.507023,-1.525756 1.023147,-1.017964 2.197253,2.22457 -1.205356,1.199261 -3.029141,-0.01137 1.507031,1.525776 -1.023149,1.017962 -2.197251,-2.224571 m 6.794835,-6.760443 1.205353,-1.199239 3.029132,0.01133 -1.507022,-1.52574 1.023148,-1.017981 2.197252,2.224571 -1.205351,1.199259 -3.029145,-0.01137 1.507032,1.525777 -1.023148,1.017964 -2.197251,-2.224573 m 5.852482,-5.90263 c 0.398054,-0.396014 0.766448,-0.653264 1.105215,-0.771708 0.34064,-0.120275 0.604153,-0.08607 0.790577,0.102669 0.186407,0.188732 0.218651,0.452079 0.09672,0.790033 -0.121933,0.337979 -0.382854,0.7059 -0.782769,1.103787 -0.399916,0.397902 -0.769701,0.657491 -1.109361,0.778766 -0.33778,0.11943 -0.599887,0.08478 -0.786292,-0.103955 -0.186426,-0.188733 -0.219144,-0.452578 -0.0982,-0.791539 0.122823,-0.340808 0.384201,-0.710147 0.784108,-1.108053 m 0.238812,2.560088 2.306994,-2.295309 0.294334,0.297989 -2.306997,2.295325 -0.294331,-0.298005 m 0.01138,-2.30679 c -0.156967,0.156198 -0.24753,0.308343 -0.27169,0.456436 -0.02229,0.146256 0.02348,0.276992 0.137296,0.392216 0.11381,0.115229 0.243178,0.161803 0.388107,0.13972 0.14679,-0.02394 0.298679,-0.113998 0.455645,-0.270196 0.155117,-0.154307 0.2443,-0.304095 0.26757,-0.449358 0.02513,-0.147111 -0.01922,-0.278284 -0.133023,-0.393512 -0.113813,-0.115223 -0.244606,-0.161364 -0.392383,-0.138423 -0.145899,0.02111 -0.296405,0.108811 -0.451522,0.263117 m 7.081139,-5.435228 c 0.320443,-0.242 0.601139,-0.387341 0.842066,-0.436026 0.241824,-0.05152 0.435832,-0.0033 0.582025,0.144731 0.217806,0.220515 0.224773,0.546426 0.02089,0.977733 -0.204863,0.430317 -0.611904,0.948544 -1.221116,1.554675 -0.214911,0.213821 -0.440066,0.419146 -0.675496,0.615945 -0.232563,0.195945 -0.47258,0.380589 -0.720042,0.553943 l -0.437113,-0.442547 c 0.254815,-0.147149 0.494995,-0.30538 0.720554,-0.474652 0.226448,-0.172127 0.435922,-0.353941 0.628403,-0.545445 0.285916,-0.284474 0.47857,-0.528339 0.577943,-0.731589 0.101224,-0.205116 0.103282,-0.356835 0.0061,-0.455184 -0.100072,-0.10131 -0.254112,-0.09972 -0.462105,0.0048 -0.207112,0.101683 -0.462965,0.304052 -0.767573,0.607121 l -0.431684,0.429498 -0.36498,-0.369518 0.45411,-0.451811 c 0.270969,-0.269595 0.450721,-0.492745 0.539248,-0.669469 0.08755,-0.177695 0.0857,-0.312742 -0.0055,-0.405114 -0.08439,-0.08544 -0.214097,-0.08734 -0.389166,-0.0057 -0.175054,0.08161 -0.380312,0.239548 -0.615788,0.473811 -0.173785,0.172929 -0.339145,0.358137 -0.496082,0.555612 -0.156926,0.197511 -0.303107,0.404005 -0.438551,0.619496 l -0.415011,-0.420174 c 0.181638,-0.243747 0.36926,-0.47768 0.562864,-0.701829 0.193603,-0.224127 0.391329,-0.43659 0.593146,-0.637409 0.543816,-0.54104 0.997353,-0.89778 1.360652,-1.070159 0.36418,-0.175227 0.640456,-0.167483 0.828835,0.02323 0.128529,0.130141 0.169535,0.301079 0.123008,0.512806 -0.04753,0.210724 -0.180743,0.458486 -0.399658,0.743258"
     style="font-style:normal;font-variant:normal;font-weight:bold;font-stretch:normal;font-size:12px;line-height:125%;font-family:'Bitstream Vera Sans';text-align:start;writing-mode:lr-tb;text-anchor:start;fill:#999999;fill-opacity:1;stroke:none;stroke-width:1px;stroke-linecap:butt;stroke-linejoin:miter;stroke-opacity:1" />
  </g>
  <path
    d="m 60.473499,54.141069 c -4.088405,-1.308428 -3.912769,-0.943931 -5.958008,1.396148 -2.89838,3.380974 -6.337754,6.14179 -9.75298,8.911647 l 2.985832,0.957586 c 3.315277,-2.967086 6.718482,-5.827313 9.973917,-8.866992 1.986185,-1.89265 4.406008,-1.930148 -0.778213,-2.754367 z"
    id="path3584"
    style="fill:url(#linearGradient3586);fill-opacity:1;fill-rule:nonzero;stroke:none;stroke-width:1px;stroke-linecap:butt;stroke-linejoin:miter;stroke-opacity:1" />
  <text
    transform="rotate(-8.8186176)"
    id="text3588"
    y="106.87846"
    x="71.676811"
    style="font-style:normal;font-variant:normal;font-weight:normal;font-stretch:normal;line-height:0%;font-family:'Bitstream Vera Sans';text-align:start;writing-mode:lr-tb;text-anchor:start;fill:#000000;fill-opacity:1;stroke:none;stroke-width:1px;stroke-linecap:butt;stroke-linejoin:miter;stroke-opacity:1"
    xml:space="preserve"><tspan
     y="106.87846"
     x="71.676811"
     id="tspan3590"
     style="font-size:14px;line-height:1.25">e</tspan></text>
 </g>
 <path
   style="display:inline;mix-blend-mode:normal;fill:url(#linearGradient3403);fill-opacity:1;stroke:url(#linearGradient20558);stroke-width:1.16242;stroke-linecap:butt;stroke-linejoin:round;stroke-miterlimit:4;stroke-dasharray:none;stroke-opacity:1"
   d="M 4.7043071,3.9814882 4.6913695,60.80196 H 58.59546 l 1.022155,-2.866369 c 0,0 -23.87537,0.766388 -32.844441,-4.140386 C 16.257548,48.042344 11.401114,4.0978197 11.401114,4.0978197 Z"
   id="path1686"
   transform="matrix(0.49993457,0,0,0.49993488,0.07042733,0.02065965)" />
 <rect
   style="display:inline;fill:none;fill-opacity:1;stroke:url(#linearGradient4557);stroke-width:3.71366;stroke-linejoin:round;stroke-miterlimit:7.8;stroke-dasharray:none;stroke-opacity:0.995146"
   id="rect4539"
   width="62.566689"
   height="62.866646"
   x="1.0323594"
   y="0.59551275"
   ry="6.2447233"
   rx="5.8029528"
   transform="matrix(0.46833008,0,0,0.46737581,0.91039863,1.0308759)" />
</svg>
