<?xml version="1.0" encoding="UTF-8" standalone="no"?>
<!-- Created with Inkscape (http://www.inkscape.org/) -->

<svg
  width="32"
  height="32"
  version="1.1"
  viewBox="0 0 32 32"
  id="svg22"
  xmlns:xlink="http://www.w3.org/1999/xlink"
  xmlns="http://www.w3.org/2000/svg"
  xmlns:svg="http://www.w3.org/2000/svg">
 <defs
   id="defs12">
  <linearGradient
    id="linearGradient917">
   <stop
     style="stop-color:#000000;stop-opacity:0.99607843"
     offset="0"
     id="stop913" />
   <stop
     style="stop-color:#353a3f;stop-opacity:0.99607843"
     offset="1"
     id="stop915" />
  </linearGradient>
  <linearGradient
    id="linearGradient1005-3-3"
    x1="5.2535"
    x2="9.3823996"
    y1="15.383"
    y2="2.9421"
    gradientTransform="matrix(0.99999,0,0,0.99999,1.632,-0.61743)"
    gradientUnits="userSpaceOnUse">
   <stop
     stop-color="#fa8200"
     offset="0"
     id="stop2" />
   <stop
     stop-color="#ff9600"
     offset=".36953"
     id="stop4" />
   <stop
     stop-color="#ffb400"
     offset="1"
     id="stop6" />
  </linearGradient>
  <filter
    id="filter4014"
    x="-0.062499933"
    y="-0.057692993"
    width="1.1249999"
    height="1.115386"
    color-interpolation-filters="sRGB">
   <feGaussianBlur
     stdDeviation="1.093751"
     id="feGaussianBlur9" />
  </filter>
  <linearGradient
    xlink:href="#linearGradient3487"
    id="linearGradient3403"
    gradientUnits="userSpaceOnUse"
    x1="6.9491749"
    y1="4.5549412"
    x2="11.215498"
    y2="59.052471" />
  <linearGradient
    id="linearGradient3487">
   <stop
     style="stop-color:#32373c;stop-opacity:1"
     offset="0"
     id="stop3481" />
   <stop
     id="stop3483"
     offset="0.36804965"
     style="stop-color:#1a1a1a;stop-opacity:1" />
   <stop
     style="stop-color:#31363b;stop-opacity:1"
     offset="1"
     id="stop3485" />
  </linearGradient>
  <linearGradient
    xlink:href="#linearGradient20604"
    id="linearGradient20558"
    gradientUnits="userSpaceOnUse"
    x1="25.802212"
    y1="20.373846"
    x2="25.111048"
    y2="58.912758" />
  <linearGradient
    id="linearGradient20604">
   <stop
     id="stop20598"
     offset="0"
     style="stop-color:#3d3d3d;stop-opacity:1" />
   <stop
     style="stop-color:#000000;stop-opacity:1"
     offset="0.61772454"
     id="stop20600" />
   <stop
     id="stop20602"
     offset="1"
     style="stop-color:#3d3d3d;stop-opacity:1" />
  </linearGradient>
  <filter
    style="color-interpolation-filters:sRGB"
    id="filter20720"
    x="-0.010582234"
    y="-0.010229436"
    width="1.021164"
    height="1.0204589">
   <feGaussianBlur
     stdDeviation="1.3500486e-05"
     id="feGaussianBlur20722" />
  </filter>
  <linearGradient
    gradientTransform="translate(0.36067797,-0.13016949)"
    xlink:href="#linearGradient4555"
    id="linearGradient4557"
    x1="43.499737"
    y1="64.011795"
    x2="44.141731"
    y2="0.30621234"
    gradientUnits="userSpaceOnUse" />
  <linearGradient
    id="linearGradient4555">
   <stop
     style="stop-color:#141618;stop-opacity:1"
     offset="0"
     id="stop4551" />
   <stop
     id="stop4559"
     offset="0.51820582"
     style="stop-color:#686868;stop-opacity:1" />
   <stop
     style="stop-color:#31363b;stop-opacity:1"
     offset="1"
     id="stop4553" />
  </linearGradient>
  <filter
    style="color-interpolation-filters:sRGB"
    id="filter4601"
    x="-0.029678167"
    width="1.0593563"
    y="-0.029536563"
    height="1.0590731">
   <feGaussianBlur
     stdDeviation="1.4426254e-05"
     id="feGaussianBlur4603" />
  </filter>
  <linearGradient
    xlink:href="#linearGradient917"
    id="linearGradient919"
    x1="7.400631"
    y1="41.743092"
    x2="33.063145"
    y2="7.1074457"
    gradientUnits="userSpaceOnUse"
    gradientTransform="scale(0.665)" />
  <radialGradient
    xlink:href="#linearGradient3866"
    id="radialGradient3872"
    cx="257.24106"
    cy="-52.010551"
    fx="257.24106"
    fy="-52.010551"
    r="240"
    gradientTransform="matrix(1.9350945,0,0,0.7023514,-278.2348,-37.098819)"
    gradientUnits="userSpaceOnUse" />
  <linearGradient
    id="linearGradient3866">
   <stop
     style="stop-color:#000000;stop-opacity:1;"
     offset="0"
     id="stop3868" />
   <stop
     id="stop3874"
     offset="0.5"
     style="stop-color:#000000;stop-opacity:1;" />
   <stop
     style="stop-color:#000000;stop-opacity:0;"
     offset="1"
     id="stop3870" />
  </linearGradient>
  <filter
    id="filter7237"
    x="-0.041723876"
    y="-0.059405983"
    width="1.0834478"
    height="1.118812">
   <feGaussianBlur
     id="feGaussianBlur7239"
     stdDeviation="8.3447749" />
  </filter>
  <radialGradient
    xlink:href="#linearGradient5827"
    id="radialGradient2523"
    gradientUnits="userSpaceOnUse"
    gradientTransform="matrix(1.7648658,1.6855958,-1.7647948,1.9327334,-661.95002,319.1531)"
    cx="81.47065"
    cy="-347.54205"
    fx="81.47065"
    fy="-347.54205"
    r="240" />
  <linearGradient
    id="linearGradient5827">
   <stop
     id="stop5829"
     style="stop-color:#a7a7a7;stop-opacity:1;"
     offset="0" />
   <stop
     id="stop5831"
     style="stop-color:#ffffff;stop-opacity:1;"
     offset="0.5" />
   <stop
     id="stop5833"
     style="stop-color:#adadad;stop-opacity:1;"
     offset="0.54056305" />
   <stop
     id="stop5835"
     style="stop-color:#f0f0f0;stop-opacity:1;"
     offset="0.72974294" />
   <stop
     id="stop5837"
     style="stop-color:#dcdcdc;stop-opacity:1;"
     offset="1" />
  </linearGradient>
  <clipPath
    clipPathUnits="userSpaceOnUse"
    id="clipPath3734">
   <use
     xlink:href="#XMLID_5_"
     height="347.30399"
     width="480"
     y="0"
     x="0"
     id="use3736"
     transform="matrix(1,0,0,1.0366026,-534.11764,3.1026321)" />
  </clipPath>
  <filter
    id="filter3673"
    x="-0.035430643"
    y="-0.032979875"
    width="1.0708613"
    height="1.0659597">
   <feGaussianBlur
     stdDeviation="3.764281"
     id="feGaussianBlur3675" />
  </filter>
  <filter
    id="filter3669"
    x="-0.044224115"
    y="-0.028467609"
    width="1.0884482"
    height="1.0569352">
   <feGaussianBlur
     stdDeviation="3.764281"
     id="feGaussianBlur3671" />
  </filter>
  <filter
    id="filter3665"
    x="-0.10953822"
    width="1.2190764"
    y="-0.081923546"
    height="1.1638471">
   <feGaussianBlur
     stdDeviation="3.764281"
     id="feGaussianBlur3667" />
  </filter>
  <filter
    id="filter3661"
    x="-0.13833415"
    width="1.2766683"
    y="-0.092125207"
    height="1.1842504">
   <feGaussianBlur
     stdDeviation="3.764281"
     id="feGaussianBlur3663" />
  </filter>
  <filter
    id="filter3657"
    x="-0.085129419"
    y="-0.05293501"
    width="1.1702588"
    height="1.10587">
   <feGaussianBlur
     stdDeviation="3.764281"
     id="feGaussianBlur3659" />
  </filter>
  <filter
    id="filter3653"
    x="-0.18343736"
    width="1.3668747"
    y="-0.14975724"
    height="1.2995145">
   <feGaussianBlur
     stdDeviation="3.764281"
     id="feGaussianBlur3655" />
  </filter>
  <filter
    id="filter3649"
    x="-1.350936"
    width="3.7018721"
    y="-2.3748202"
    height="5.7496404">
   <feGaussianBlur
     stdDeviation="3.764281"
     id="feGaussianBlur3651" />
  </filter>
  <filter
    id="filter3645"
    x="-0.073667994"
    y="-0.042780706"
    width="1.147336"
    height="1.0855614">
   <feGaussianBlur
     stdDeviation="3.764281"
     id="feGaussianBlur3647" />
  </filter>
  <filter
    id="filter3641"
    x="-0.076702052"
    width="1.1534041"
    y="-0.21131018"
    height="1.4226204">
   <feGaussianBlur
     stdDeviation="3.764281"
     id="feGaussianBlur3643" />
  </filter>
  <filter
    id="filter3637"
    x="-0.36862553"
    width="1.7372511"
    y="-0.73527995"
    height="2.4705599">
   <feGaussianBlur
     stdDeviation="3.764281"
     id="feGaussianBlur3639" />
  </filter>
  <filter
    id="filter3633"
    x="-0.15696767"
    width="1.3139353"
    y="-0.25629933"
    height="1.5125987">
   <feGaussianBlur
     stdDeviation="3.764281"
     id="feGaussianBlur3635" />
  </filter>
  <filter
    id="filter3629"
    x="-0.19897968"
    width="1.3979594"
    y="-0.30909471"
    height="1.6181894">
   <feGaussianBlur
     stdDeviation="3.764281"
     id="feGaussianBlur3631" />
  </filter>
  <filter
    id="filter3625"
    x="-1.0208571"
    width="3.0417142"
    y="-1.9948017"
    height="4.9896033">
   <feGaussianBlur
     stdDeviation="3.764281"
     id="feGaussianBlur3627" />
  </filter>
  <filter
    id="filter3621"
    x="-0.4542234"
    width="1.9084468"
    y="-0.68494764"
    height="2.3698953">
   <feGaussianBlur
     stdDeviation="3.764281"
     id="feGaussianBlur3623" />
  </filter>
  <filter
    id="filter3617"
    x="-0.10739758"
    width="1.2147952"
    y="-0.056969775"
    height="1.1139395">
   <feGaussianBlur
     stdDeviation="3.764281"
     id="feGaussianBlur3619" />
  </filter>
  <filter
    id="filter3613"
    x="-0.42844895"
    width="1.8568979"
    y="-0.39989317"
    height="1.7997863">
   <feGaussianBlur
     stdDeviation="3.764281"
     id="feGaussianBlur3615" />
  </filter>
  <filter
    id="filter3609"
    x="-0.75274311"
    width="2.5054862"
    y="-0.58513386"
    height="2.1702677">
   <feGaussianBlur
     stdDeviation="3.764281"
     id="feGaussianBlur3611" />
  </filter>
  <filter
    id="filter3605"
    x="-1.5097384"
    width="4.0194768"
    y="-1.7149243"
    height="4.4298486">
   <feGaussianBlur
     stdDeviation="3.764281"
     id="feGaussianBlur3607" />
  </filter>
  <filter
    id="filter3601"
    x="-0.18559637"
    width="1.3711927"
    y="-0.11812885"
    height="1.2362577">
   <feGaussianBlur
     stdDeviation="3.764281"
     id="feGaussianBlur3603" />
  </filter>
  <filter
    id="filter3597"
    x="-0.71735801"
    width="2.434716"
    y="-0.32299121"
    height="1.6459824">
   <feGaussianBlur
     stdDeviation="3.764281"
     id="feGaussianBlur3599" />
  </filter>
  <filter
    id="filter3593"
    x="-0.53534274"
    width="2.0706855"
    y="-0.47529593"
    height="1.9505919">
   <feGaussianBlur
     stdDeviation="3.764281"
     id="feGaussianBlur3595" />
  </filter>
  <filter
    id="filter3589"
    x="-0.030740874"
    y="-0.02644808"
    width="1.0614817"
    height="1.0528962">
   <feGaussianBlur
     stdDeviation="3.764281"
     id="feGaussianBlur3591" />
  </filter>
  <filter
    id="filter3585"
    x="-1.3671723"
    width="3.7343446"
    y="-1.0845288"
    height="3.1690576">
   <feGaussianBlur
     stdDeviation="3.764281"
     id="feGaussianBlur3587" />
  </filter>
  <filter
    id="filter3581"
    x="-0.37693094"
    width="1.7538619"
    y="-0.58442316"
    height="2.1688463">
   <feGaussianBlur
     stdDeviation="3.764281"
     id="feGaussianBlur3583" />
  </filter>
  <filter
    id="filter3577"
    x="-1.4429071"
    width="3.8858141"
    y="-1.6476478"
    height="4.2952956">
   <feGaussianBlur
     stdDeviation="3.764281"
     id="feGaussianBlur3579" />
  </filter>
  <filter
    id="filter3573"
    x="-0.12719063"
    width="1.2543813"
    y="-0.060415544"
    height="1.1208311">
   <feGaussianBlur
     stdDeviation="3.764281"
     id="feGaussianBlur3575" />
  </filter>
  <filter
    id="filter3569"
    x="-0.88226957"
    width="2.7645391"
    y="-0.43823961"
    height="1.8764792">
   <feGaussianBlur
     stdDeviation="3.764281"
     id="feGaussianBlur3571" />
  </filter>
  <filter
    id="filter3565"
    x="-0.19911301"
    width="1.398226"
    y="-0.15262517"
    height="1.3052503">
   <feGaussianBlur
     stdDeviation="3.764281"
     id="feGaussianBlur3567" />
  </filter>
  <filter
    id="filter3561"
    x="-0.43951522"
    width="1.8790304"
    y="-0.5628668"
    height="2.1257336">
   <feGaussianBlur
     stdDeviation="3.764281"
     id="feGaussianBlur3563" />
  </filter>
  <filter
    id="filter3557"
    x="-1.7066077"
    width="4.4132154"
    y="-0.39996664"
    height="1.7999333">
   <feGaussianBlur
     stdDeviation="3.764281"
     id="feGaussianBlur3559" />
  </filter>
  <filter
    id="filter3553"
    x="-0.63599257"
    width="2.2719851"
    y="-0.39498171"
    height="1.7899634">
   <feGaussianBlur
     stdDeviation="3.764281"
     id="feGaussianBlur3555" />
  </filter>
  <filter
    id="filter3549"
    x="-0.096658405"
    y="-0.056375234"
    width="1.1933168"
    height="1.1127505">
   <feGaussianBlur
     stdDeviation="3.764281"
     id="feGaussianBlur3551" />
  </filter>
  <filter
    id="filter3545"
    x="-0.67638588"
    width="2.3527718"
    y="-0.74586677"
    height="2.4917335">
   <feGaussianBlur
     stdDeviation="3.764281"
     id="feGaussianBlur3547" />
  </filter>
  <filter
    id="filter3541"
    x="-0.22987976"
    width="1.4597595"
    y="-0.20813868"
    height="1.4162774">
   <feGaussianBlur
     stdDeviation="3.764281"
     id="feGaussianBlur3543" />
  </filter>
  <filter
    id="filter3537"
    x="-0.17092398"
    width="1.341848"
    y="-0.20326869"
    height="1.4065374">
   <feGaussianBlur
     stdDeviation="3.764281"
     id="feGaussianBlur3539" />
  </filter>
  <filter
    id="filter3533"
    x="-0.26794298"
    width="1.535886"
    y="-0.32771713"
    height="1.6554343">
   <feGaussianBlur
     stdDeviation="3.764281"
     id="feGaussianBlur3535" />
  </filter>
  <filter
    id="filter3529"
    x="-0.14167633"
    width="1.2833527"
    y="-0.24200211"
    height="1.4840042">
   <feGaussianBlur
     stdDeviation="3.764281"
     id="feGaussianBlur3531" />
  </filter>
  <filter
    id="filter3525"
    x="-1.0478166"
    width="3.0956331"
    y="-1.1382099"
    height="3.2764197">
   <feGaussianBlur
     stdDeviation="3.764281"
     id="feGaussianBlur3527" />
  </filter>
  <filter
    id="filter3521"
    x="-0.37505291"
    width="1.7501058"
    y="-0.18851332"
    height="1.3770266">
   <feGaussianBlur
     stdDeviation="3.764281"
     id="feGaussianBlur3523" />
  </filter>
  <filter
    id="filter3517"
    x="-0.038323294"
    width="1.0766466"
    y="-0.13608854"
    height="1.2721771">
   <feGaussianBlur
     stdDeviation="3.764281"
     id="feGaussianBlur3519" />
  </filter>
  <filter
    id="filter3513"
    x="-0.2281905"
    width="1.456381"
    y="-0.45619384"
    height="1.9123877">
   <feGaussianBlur
     stdDeviation="3.764281"
     id="feGaussianBlur3515" />
  </filter>
  <filter
    id="filter3509"
    x="-0.1075304"
    width="1.2150608"
    y="-0.3093136"
    height="1.6186272">
   <feGaussianBlur
     stdDeviation="3.764281"
     id="feGaussianBlur3511" />
  </filter>
  <filter
    id="filter3505"
    x="-0.145787"
    width="1.291574"
    y="-0.38672354"
    height="1.7734471">
   <feGaussianBlur
     stdDeviation="3.764281"
     id="feGaussianBlur3507" />
  </filter>
  <filter
    id="filter3501"
    x="-0.057045005"
    width="1.11409"
    y="-0.34676555"
    height="1.6935311">
   <feGaussianBlur
     stdDeviation="3.764281"
     id="feGaussianBlur3503" />
  </filter>
  <filter
    id="filter3497"
    x="-0.91292184"
    width="2.8258437"
    y="-0.61740387"
    height="2.2348077">
   <feGaussianBlur
     stdDeviation="3.764281"
     id="feGaussianBlur3499" />
  </filter>
  <filter
    id="filter3493"
    x="-0.066594485"
    width="1.133189"
    y="-0.2544011"
    height="1.5088022">
   <feGaussianBlur
     stdDeviation="3.764281"
     id="feGaussianBlur3495" />
  </filter>
  <filter
    id="filter3489"
    x="-1.0273591"
    width="3.0547183"
    y="-0.43138513"
    height="1.8627703">
   <feGaussianBlur
     stdDeviation="3.764281"
     id="feGaussianBlur3491" />
  </filter>
  <filter
    id="filter3485"
    x="-0.092397669"
    width="1.1847953"
    y="-0.1106631"
    height="1.2213262">
   <feGaussianBlur
     stdDeviation="3.764281"
     id="feGaussianBlur3487" />
  </filter>
  <filter
    id="filter3481"
    x="-0.96211656"
    width="2.9242331"
    y="-0.18899941"
    height="1.3779988">
   <feGaussianBlur
     stdDeviation="3.764281"
     id="feGaussianBlur3483" />
  </filter>
  <filter
    id="filter3477"
    x="-0.045349824"
    y="-0.058562683"
    width="1.0906996"
    height="1.1171254">
   <feGaussianBlur
     stdDeviation="3.764281"
     id="feGaussianBlur3479" />
  </filter>
  <filter
    id="filter3473"
    x="-0.5916795"
    width="2.183359"
    y="-3.3024791"
    height="7.6049582">
   <feGaussianBlur
     stdDeviation="3.764281"
     id="feGaussianBlur3475" />
  </filter>
  <filter
    id="filter3469"
    x="-0.30878268"
    width="1.6175654"
    y="-0.23897669"
    height="1.4779534">
   <feGaussianBlur
     stdDeviation="3.764281"
     id="feGaussianBlur3471" />
  </filter>
  <filter
    id="filter3465"
    x="-0.58568664"
    width="2.1713733"
    y="-0.35159235"
    height="1.7031847">
   <feGaussianBlur
     stdDeviation="3.764281"
     id="feGaussianBlur3467" />
  </filter>
  <filter
    id="filter3461"
    x="-1.548989"
    width="4.097978"
    y="-2.2827937"
    height="5.5655875">
   <feGaussianBlur
     stdDeviation="3.764281"
     id="feGaussianBlur3463" />
  </filter>
  <filter
    id="filter3457"
    x="-10.266221"
    width="21.532442"
    y="-0.75903787"
    height="2.5180757">
   <feGaussianBlur
     stdDeviation="3.764281"
     id="feGaussianBlur3459" />
  </filter>
  <linearGradient
    xlink:href="#linearGradient3229"
    id="linearGradient3235"
    x1="330.87811"
    y1="-114.17457"
    x2="167.34872"
    y2="-172.99809"
    gradientUnits="userSpaceOnUse"
    gradientTransform="translate(0,14.117647)" />
  <linearGradient
    id="linearGradient3229">
   <stop
     style="stop-color:#f70000;stop-opacity:1;"
     offset="0"
     id="stop3231" />
   <stop
     style="stop-color:#7c0000;stop-opacity:1;"
     offset="1"
     id="stop3233" />
  </linearGradient>
  <clipPath
    clipPathUnits="userSpaceOnUse"
    id="clipPath3858">
   <path
     style="opacity:0.892193;fill:url(#linearGradient3862);fill-opacity:1;stroke:none;stroke-width:0.1;stroke-linecap:round;stroke-linejoin:round;stroke-miterlimit:4;stroke-dashoffset:1.0878;stroke-opacity:1"
     d="m 360.2899,-150.93929 c 0,68.425593 -61.04651,121.176473 -120.58824,121.176473 -51.30353,0 -87.64706,-37.445186 -87.64706,-95.294113 0,-51.30353 47.49722,-125.29412 115.88235,-125.29412 59.54173,0 92.35295,48.10823 92.35295,99.41176 z"
     id="path3860" />
  </clipPath>
  <clipPath
    clipPathUnits="userSpaceOnUse"
    id="clipPath3852">
   <path
     style="opacity:0.892193;fill:url(#linearGradient3856);fill-opacity:1;stroke:none;stroke-width:0.1;stroke-linecap:round;stroke-linejoin:round;stroke-miterlimit:4;stroke-dashoffset:1.0878;stroke-opacity:1"
     d="m -173.82775,-150.93929 c 0,68.425593 -61.04651,121.176473 -120.58824,121.176473 -51.30353,0 -87.64706,-37.445186 -87.64706,-95.294113 0,-51.30353 47.49722,-125.29412 115.88235,-125.29412 59.54173,0 92.35295,48.10823 92.35295,99.41176 z"
     id="path3854" />
  </clipPath>
 </defs>
 <rect
   style="display:inline;fill:url(#linearGradient919);fill-opacity:1;fill-rule:evenodd;stroke:none;stroke-width:0.617;stroke-linejoin:round;stroke-miterlimit:7.8"
   id="rect1192"
   width="27.986261"
   height="28.403553"
   x="2.1033354"
   y="2.0072956"
   ry="0" />
 <g
   id="g1196"
   style="overflow:visible"
   transform="matrix(0.0581702,0,0,0.05786187,1.1512141,23.063275)">
  <path
    d="M 46.416656,-293.204 468.256,-279.213 495.584,21.918 c -158.80005,-33.020745 -318.80105,40.121014 -480,17.628 z"
    transform="matrix(0.9812499,0,0,0.9502191,3.2921994,23.899387)"
    id="path7231"
    style="opacity:0.7;fill:url(#radialGradient3872);fill-opacity:1;filter:url(#filter7237)" />
  <path
    style="fill:url(#radialGradient2523);fill-opacity:1"
    id="path5264"
    d="m 42.595001,-299.43633 c 141.886999,52.53709 283.773009,-39.74542 425.661019,14.5031 9.109,104.05107 18.219,208.103158 27.328,312.15318 C 335.58501,-22.410509 175.584,93.194522 15.584,45.493181 24.588,-69.48367 33.591,-184.46052 42.595001,-299.43633 Z" />
  <g
    id="g3677"
    clip-path="url(#clipPath3734)"
    transform="translate(534.11765)"
    style="opacity:0.133829">
   <path
     style="opacity:0.712433;fill:#151515;fill-opacity:0.279835;filter:url(#filter3673)"
     id="path5276"
     d="m -286.70264,-158.85436 c -8.421,24.90334 -18.622,48.87166 -41.342,62.670917 -1.225,-34.344717 32.919,-44.063907 31.046,-74.597037 -1.56,-4.60666 -10.453,-0.83342 -7.929,-10.1162 -7.118,3.92665 -16.872,5.55619 -24.106,9.2921 -8.164,9.52431 -7.303,19.70064 -8.643,30.99961 -1.38,11.73641 -11.494,24.61101 -6.638,37.65666 -30.225,8.741668 -50.364,-13.84901 -49.625,-44.08567 0.248,-10.98281 7.04,-25.96586 2.475,-32.71622 -13.629,-8.20574 -22.664,-13.0332 -22.383,-32.74316 0.475,-21.64116 35.422,-56.61302 42.083,-70.33245 -39.924,1.6596 -79.847,-1.65753 -119.771,-16.43845 -0.093,1.18795 -6.515,83.2112 -6.701,85.58917 21.508,3.33475 27.419,-16.01862 29.23,-38.60619 19.569,9.92443 25.238,23.0841 31.812,42.45302 -8.08,7.06237 -8.39,17.0065 -7.106,31.07424 3.231,36.06133 21.328,57.80303 30.733,81.243726 -24.109,-7.957996 -25.859,-12.040136 -40.267,-34.506426 -11.125,-17.90628 -14.944,-41.8207 -32.392,-55.94441 -6.291,-0.31409 -8.639,4.99954 -13.38,6.77731 5.463,12.61338 8.339,34.83399 -3.148,40.41506 -0.387,-0.1275 -0.774,-0.25604 -1.161,-0.38561 -0.249,3.16993 -0.497,6.34089 -0.745,9.51083 0.135,-0.0363 0.26,-0.086 0.394,-0.12543 -2.135,3.86652 -4.16,13.26333 -5.066,24.68047 -0.841,10.604442 -0.487,20.209602 0.749,25.565727 -0.616,7.862631 -1.231,15.725262 -1.847,23.587893 0.398,0.125429 0.796,0.251894 1.195,0.37525 1.578,-2.1665 0.835,-7.600371 4.223,-7.223047 6.656,5.194415 15.844,11.506289 24.702,10.913352 17.543,11.169393 28.946,35.480834 57.456,26.641723 -3.491,-15.880751 -27.527,-13.96511 -30.703,-31.028625 17.774,1.443987 38.308,7.563052 49.34,16.580458 14.363,1.652345 24.575,-2.779131 39.521,-4.504038 2.537,2.09912 -0.694,3.377251 -0.206,6.947311 24.142,-16.158562 36.429,-34.209959 60.401,-60.883814 7.093,-7.92483 15.095,-14.47616 25.89,-25.00182 6.549,-6.39584 23.608,-21.96561 23.157,-27.68144 -0.793,-10.41993 -20.839,-11.85666 -31.248,-6.05479 z" />
   <path
     style="opacity:0.712433;fill:#151515;fill-opacity:0.279835;filter:url(#filter3669)"
     id="path5278"
     d="m -393.89064,-282.45575 c 16.091,0.16171 32.182,-0.68001 48.273,-2.10015 -1.055,22.31183 12.767,36.86884 6.378,58.02797 0.808,6.60731 10.411,3.33164 11.01,10.14005 -3.393,7.4397 -13.129,9.09619 -19.44,13.79407 -2.791,2.59047 1.749,5.29186 -1.337,8.20367 -13.967,6.59694 -18.758,12.17386 -26.868,24.33736 -2.761,4.13397 -7.817,8.02123 -9.551,11.0139 -13.531,23.20124 9.135,52.49978 29.532,51.8291 5.875,-13.92261 1.245,-29.23013 5.771,-43.30201 1.38,-4.28738 7.469,-14.13615 10.754,-18.56658 14.353,-19.14605 46.445,-35.17089 68.605,-53.47833 8.823,-7.24793 13.715,-18.92422 24.645,-16.02381 1.685,11.38812 -9.025,12.35216 -13.335,18.81434 0.086,16.84065 -15.965,30.02623 -19.179,48.23416 12.256,4.39001 22.155,11.51458 35.891,14.44091 -30.397,51.57616 -73.665,97.498692 -115.687,143.527994 16.593,-4.554832 35.644,-17.087357 48.619,-28.648586 6.827,-6.082784 7.672,-14.687622 13.322,-20.676076 3.507,-3.718293 12.848,-7.573418 17.901,-11.288602 16.768,-12.300326 31.043,-32.51822 50.757,-31.42668 2.31,3.11084 4.199,6.703708 6.14,10.243706 1.675,-1.732163 2.871,-5.543746 5.876,-3.102552 -0.633,8.69295 1.597,14.209749 4.051,19.504715 -2.383,16.857231 -11.003,29.743238 -15.955,42.762967 -8.803,23.134897 -14.227,46.1132666 -27.309,66.957272 -3.3,0.670682 -6.599,1.350693 -9.896,2.033814 14.98,-16.108804 22.065,-48.417634 31.096,-71.290271 3.228,-8.158062 9.404,-18.504393 9.227,-23.971435 -0.28,-8.73856 -9.359,-12.868384 -11.136,-19.444591 -8.995,1.28435 -5.241,12.264045 -11.745,15.526233 -12.475,-0.70178 -27.448,-1.956069 -38.26,0.350372 -13.959,2.969867 -10.236,11.423361 -15.642,19.978442 -3,4.740384 -7.827,6.824992 -12.085,9.073383 -16.389,8.617277 -34.348,28.4391919 -56.029,30.6419724 44.32,-45.3824614 83.995,-95.9624474 118.69,-146.0925474 -5.935,-11.04293 -20.305,-12.28893 -34.727,-13.41986 -2.383,-16.86034 10.76,-26.49867 3.482,-37.96868 -28.671,11.87947 -52.783,27.42021 -63.511,55.06018 3.072,15.8963 -7.317,27.68248 -3.417,45.29228 -34.384,6.637367 -52.803,-36.53817 -34.814,-68.43858 1.396,-6.28388 -3.992,-5.60076 -2.976,-11.49799 4.206,-3.75458 12.259,4.72898 15.972,-2.06802 -20.68,-4.4377 -44.65,-1.74357 -45.244,-27.2129 -0.297,-14.73012 12.986,-59.6005 22.151,-69.77061 m 3.29,53.7126 c -26.768,-21.44109 -31.073,52.33081 3.194,32.55243 4.597,-14.36005 0.167,-21.23584 -3.194,-32.55243 z" />
   <path
     style="opacity:0.712433;fill:#151515;fill-opacity:0.279835;filter:url(#filter3665)"
     id="path5280"
     d="m -46.35164,-62.075071 c -3.698,-5.127037 -5.776,-1.185874 -10.684,-2.21522 -1.042,5.707534 -2.599,10.858412 -5.88,14.252249 -2.801,-0.352445 -4.391,0.59812 -8.351,-0.876966 -6.447,1.988204 -1.407,15.730445 -9.501,16.273625 -4.887,-3.493351 -12.405,-4.64398 -13.938,-10.603408 -4.751,-1.588076 -4.702,3.647804 -8.396,0.1586 -0.608,-5.594544 -4.544,-8.317699 -4.529,-14.432618 -6.089,-1.556977 -0.347,7.82013 -8.098,4.825385 -5.741,-5.167464 -7.624,-13.7609 -13.099,-19.007145 7.094,-6.827065 14.537,-12.872531 16.405,-24.022229 3.272,-1.052152 7.236,-0.637511 10.683,1.111238 2.615,-0.815806 -0.007,-6.75554 0.53,-9.60412 12.019,-18.69409 24.933,-35.9753 47.605,-38.7026 0.095,1.07807 7.253,82.843209 7.253,82.843209 z m -60.214,0.495496 c 2.104,-4.174399 8.672,-3.960859 6.348,-12.267155 -8.805,-9.71504 -12.979,7.360915 -6.348,12.267155 z" />
   <path
     style="opacity:0.712433;fill:#151515;fill-opacity:0.279835;filter:url(#filter3661)"
     id="path5282"
     d="m -53.32064,-141.68822 c 0.125,1.43465 6.373,72.79956 6.499,74.233181 -3.731,-3.970188 -6.8,-1.259472 -11.946,-3.633292 -3.216,3.992993 -3.687,11.018049 -6.987,15.070129 -4.04,0.940198 -12.31,-2.285709 -15.391,-0.02695 -0.1,3.903846 1.738,9.747174 -0.332,11.677328 -5.771,-0.484093 -10.036,-1.952959 -11.183,-5.98016 4.802,-16.010327 -5.061,-31.17375 -19.147,-37.599649 0.01,-3.049685 -1.488,-7.543358 1.898,-7.386831 6.105,0.07464 6.286,5.246246 13.29,4.761116 -4.439,-25.575062 14.992,-41.053612 32.133,-49.454242 3.1,-1.54972 6.46,-3.49646 11.166,-1.66063 z" />
   <path
     style="opacity:0.712433;fill:#151515;fill-opacity:0.279835;filter:url(#filter3657)"
     id="path5284"
     d="m -503.91764,-141.15023 c 0.28,-3.56695 3.972,-50.72304 4.655,-59.44086 3.686,2.64644 14.833,6.60108 18.581,4.97569 21.91,41.44959 26.53,66.62867 62.807,93.23722 -7.856,-26.25196 -25.083,-44.5169 -27.635,-78.48948 -0.967,-12.67661 0.715,-25.39054 7.146,-31.54381 -7.085,-14.40567 -9.253,-20.08522 -22.705,-29.82513 -1.375,27.16831 -16.568,41.75953 -38.024,39.48523 0.124,-1.58497 0.73,-9.32943 0.855,-10.91439 21.508,3.33371 27.42,-16.01862 29.23,-38.60619 19.558,10.07059 31.436,24.20052 38.068,43.29889 -8.06,7.21993 -9.896,17.11949 -8.593,31.14161 3.191,36.27487 32.039,73.66513 41.739,96.226786 -12.2,-3.164748 -35.897,-16.422895 -57.618,-31.318876 -21.779,-14.40463 -41.58,-30.44813 -47.345,-27.83796 -0.387,-0.13061 -0.774,-0.26019 -1.161,-0.38873 z" />
   <path
     style="opacity:0.712433;fill:#151515;fill-opacity:0.279835;filter:url(#filter3653)"
     id="path5286"
     d="m -278.69264,-292.6611 c 2.559,-0.35141 5.12,-0.70178 7.68,-1.05111 -0.521,4.08214 7.552,3.95463 6.582,-0.89045 2.195,-0.29439 4.39,-0.58671 6.583,-0.87593 -1.379,10.30487 -4.911,18.78013 -4.178,30.9965 -7.691,11.76129 -23.711,19.70685 -36.725,17.77773 0.104,2.89108 3.724,1.71972 6.682,1.30301 -0.422,5.33332 -3.844,8.05751 -7.884,10.24889 -12.148,-6.06516 -6.255,-12.23813 -0.947,-21.48774 7.634,-13.29546 14.041,-27.68454 22.207,-36.0209 z" />
   <path
     style="opacity:0.712433;fill:#151515;fill-opacity:0.279835;filter:url(#filter3649)"
     id="path5288"
     d="m -271.01264,-293.71221 c 2.193,-0.29855 4.387,-0.59605 6.582,-0.89045 0.972,4.84612 -7.102,4.97259 -6.582,0.89045 z" />
   <path
     style="opacity:0.712433;fill:#151515;fill-opacity:0.279835;filter:url(#filter3645)"
     id="path5290"
     d="m -147.03664,-301.84436 c 0.73,0.11506 17.348,0.89666 33.782,4.02927 16.435,2.75426 32.686,7.85952 32.686,7.92587 4.947,2.02966 9.896,4.22104 14.85,6.58657 0,0 2.445,27.93229 2.603,29.72665 -11.718,-2.64748 -20.861,-1.18795 -29.189,1.62954 -1.022,20.2915 -0.113,39.92164 -15.541,47.13121 -10.749,-4.09147 -17.872,-11.13622 -32.299,-10.72987 4.347,6.87682 14.808,11.32384 24.884,18.31884 7.999,5.42765 21.858,14.13926 26.338,20.39101 10.224,13.86145 -11.747,34.1913 -18.721,44.02866 -8.196,11.48452 -13.756,50.643217 -38.873,40.467926 -6.557,-2.644373 -17.215,-20.008506 -18.927,-24.597546 -2.945,-7.82738 -2.768,-16.964 -0.985,-23.06026 3.602,-12.36459 20.32,-19.83124 19.425,-32.15541 -0.357,-4.99021 -8.208,-13.20632 -12.46,-19.68612 -8.645,-13.19595 -15.694,-21.11767 -25.2,-29.86556 0.012,-7.50396 7.769,-7.45006 14.486,-6.14913 12.798,-5.68058 24.73,-11.14451 26.834,-25.92335 6.062,-1.9654 9.756,-6.19785 18.609,-4.92283 -23.948,-8.85569 -57.596,3.77427 -61.016,-22.58031 7.329,-12.96998 31.014,-9.59169 38.714,-20.56516 z m 19.784,20.19716 c 7.567,1.43155 10.629,-1.61502 11.583,-6.97426 -0.314,-1.25429 -1.333,-1.88662 -2.346,-2.51998 -4.485,1.56631 -8.968,3.32438 -9.237,9.49424 z" />
   <path
     style="opacity:0.712433;fill:#151515;fill-opacity:0.279835;filter:url(#filter3641)"
     id="path5292"
     d="m -65.84864,-284.7767 c 0.219,2.51065 2.04,23.31008 2.261,25.82073 -19.24,-2.43705 -44.988,5.61839 -69.403,-8.16842 6.789,-9.66632 22.503,-8.99979 21.358,-26.15349 -17.924,-4.32574 -18.411,10.71744 -29.747,14.63061 -1.083,4.8824 4.948,6.38651 1.654,9.88815 -16.849,0.50276 -40.843,8.03886 -41.646,-13.79199 20.403,-0.19178 31.904,-7.35885 38.724,-18.98642 25.599,1.95711 51.199,6.97426 76.799,16.76083 z" />
   <path
     style="opacity:0.712433;fill:#151515;fill-opacity:0.279835;filter:url(#filter3637)"
     id="path5294"
     d="m -133.87164,-300.74453 c 5.487,0.57428 10.972,1.29783 16.458,2.18827 -9.581,1.44295 -15.326,7.36921 -24.508,10.09858 1.419,-5.44009 5.574,-8.05129 8.05,-12.28685 z" />
   <path
     style="opacity:0.712433;fill:#151515;fill-opacity:0.279835;filter:url(#filter3633)"
     id="path5296"
     d="m -65.75564,-283.70071 c -2.344,-0.36384 -6.879,0 -7.774,-3.87171 -4.022,-1.39008 -8.045,-2.66718 -12.067,-3.8375 0.862,4.26666 -3.617,2.26083 -5.071,3.86653 0.335,0.84172 -1.225,2.19345 -2.862,3.5939 0.024,-1.2885 -0.104,-2.75114 -0.436,-4.44703 -2.838,-1.95503 -5.11,-4.3133 -6.99,-6.97633 -2.926,-0.66135 -5.852,-1.26984 -8.777,-1.82961 9.553,18.57074 -9.385,20.23552 -12.068,32.39591 25.331,7.25725 40.406,-1.61192 57.555,-1.68241 -0.096,-1.07392 -1.416,-16.13575 -1.51,-17.21175 z" />
   <path
     style="opacity:0.712433;fill:#151515;fill-opacity:0.279835;filter:url(#filter3629)"
     id="path5298"
     d="m -100.95664,-295.37182 c 5.118,1.15685 10.239,2.4723 15.359,3.9619 0.862,4.26666 -3.617,2.26083 -5.071,3.86653 0.696,1.74875 1.839,3.15645 2.535,4.91038 9.417,2.49822 15.436,1.43881 22.661,2.15925 0.125,1.43362 0.251,2.86931 0.376,4.30293 -6.215,0.52556 -12.646,1.16204 -17.943,3.4125 4.965,2.19345 12.295,-0.91014 18.226,-0.18555 0.095,1.07599 0.189,2.15199 0.283,3.22798 -13.769,-0.20007 -26.741,7.12457 -45.403,1.34862 4.812,-7.66982 19.123,-4.02202 15.967,-20.03027 -2.838,-1.95193 -5.11,-4.31123 -6.99,-6.97427 z" />
   <path
     style="opacity:0.712433;fill:#151515;fill-opacity:0.279835;filter:url(#filter3625)"
     id="path5300"
     d="m -167.90564,-278.40885 c 0.963,4.81709 -7.2,6.03821 -8.771,2.32614 1.029,-2.57285 4.998,-2.39248 8.771,-2.32614 z" />
   <path
     style="opacity:0.712433;fill:#151515;fill-opacity:0.279835;filter:url(#filter3621)"
     id="path5302"
     d="m -154.63764,-256.39037 c 0.217,5.91381 -9.713,10.80347 -17.322,13.18973 -0.976,-2.42047 -2.537,-4.21898 -2.564,-7.6294 4.33,-4.16092 13.094,-4.07903 19.886,-5.56033 z" />
   <path
     style="opacity:0.712433;fill:#151515;fill-opacity:0.279835;filter:url(#filter3617)"
     id="path5304"
     d="m -109.20464,-208.23707 c -12.076,-5.34369 -25.61,-14.56842 -41.325,-10.92891 10.417,16.74839 69.275,32.12847 57.491,63.89619 -3.473,8.83289 -15.07,16.59186 -21.222,28.23187 -6.408,12.10752 -6.495,26.46654 -18.099,32.570054 -15.944,-0.812696 -30.689,-23.912344 -30.224,-38.000814 0.665,-19.95978 27.971,-30.10294 15.023,-50.61109 -8.886,-14.33828 -23.739,-21.89823 -28.046,-39.0851 17.537,-3.27359 23.916,-16.00929 37.282,-21.53127 -0.27,-14.25847 20.883,-8.65563 30.768,-6.06309 17.897,13.90603 11.869,35.35955 -1.648,41.52216 z" />
   <path
     style="opacity:0.712433;fill:#151515;fill-opacity:0.279835;filter:url(#filter3613)"
     id="path5306"
     d="m -58.87864,-205.16355 c 0.659,7.53092 1.318,15.06184 1.978,22.59172 -9.734,-1.73216 -19.618,0.4136 -21.086,-12.85387 9.15,-0.40324 11.736,-8.01605 19.108,-9.73785 z" />
   <path
     style="opacity:0.712433;fill:#151515;fill-opacity:0.279835;filter:url(#filter3609)"
     id="path5308"
     d="m -213.48964,-194.69282 c -2.957,5.51472 -4.703,12.0505 -11.151,14.79439 -3.15,-5.95425 2.866,-18.40488 11.151,-14.79439 z" />
   <path
     style="opacity:0.712433;fill:#151515;fill-opacity:0.279835;filter:url(#filter3605)"
     id="path5310"
     d="m -128.33364,-187.68954 c -3.725,0.0145 -5.596,-1.64612 -5.984,-4.72587 2.179,-1.92912 5.401,1.6793 5.984,4.72587 z" />
   <path
     style="opacity:0.712433;fill:#151515;fill-opacity:0.279835;filter:url(#filter3601)"
     id="path5312"
     d="m -52.94364,-137.38529 c 0.533,6.09626 5.181,59.171353 5.745,65.628351 -19.824,-7.361952 -16.049,12.033919 -31.944,10.752678 -8.013,-4.525807 -12.339,-11.657633 -16.733,-18.738665 6.558,-7.681225 0.263,-16.81784 0.58,-25.646584 0.707,-18.42976 28.157,-32.84994 42.352,-31.99578 z" />
   <path
     style="opacity:0.712433;fill:#151515;fill-opacity:0.279835;filter:url(#filter3597)"
     id="path5316"
     d="m -51.34264,-119.0934 c 0.815,9.32321 1.632,18.64641 2.448,27.970651 -14.183,-10.276881 -18.236,-27.529051 -2.448,-27.970651 z" />
   <path
     style="opacity:0.712433;fill:#151515;fill-opacity:0.279835;filter:url(#filter3593)"
     id="path5318"
     d="m -121.30564,-127.61323 c 0.05,10.13693 -4.006,24.39229 -16.681,16.69344 -1.097,-6.17504 2.582,-8.10208 7.779,-8.50117 -0.376,-5.84852 2.258,-8.9832 8.902,-8.19227 z" />
   <path
     style="opacity:0.712433;fill:#151515;fill-opacity:0.279835;filter:url(#filter3589)"
     id="path5322"
     d="m -393.89064,-282.45575 c 14.993,0.15031 29.988,-0.57013 44.982,-1.8182 -0.232,17.92701 15.087,38.44034 4.173,53.74474 -5.221,1.21282 -6.719,-0.90703 -10.078,0.97648 -0.719,11.26994 9.421,10.62517 10.704,19.66435 -6.753,5.64223 -22.245,12.44338 -31.763,7.35158 1.694,-3.50682 5.667,-4.74038 5.96,-9.64869 -10.688,-12.64241 -13.88,-33.08214 -28.508,-42.24467 -9.329,10.15456 -17.96,27.01386 -17.622,41.7388 0.594,25.4714 24.563,22.77727 45.245,27.2129 -3.713,6.79804 -11.767,-1.68552 -15.972,2.06802 -1.016,5.89723 4.372,5.21515 2.976,11.49799 -17.989,31.90041 0.43,75.07802 34.814,68.43754 -3.9,-17.60876 6.487,-29.3939 3.417,-45.29124 10.728,-27.63997 34.839,-43.18071 63.511,-55.06018 7.278,11.46897 -5.865,21.10938 -3.482,37.96868 14.423,1.1299 28.792,2.37693 34.727,13.41986 -34.697,50.13632 -74.372,100.715269 -118.691,146.0956576 21.682,-2.2027805 39.641,-22.0215856 56.029,-30.6419726 4.259,-2.246318 9.085,-4.331963 12.085,-9.072346 5.406,-8.555081 1.683,-17.007539 15.642,-19.978442 10.813,-2.306441 25.786,-1.052152 38.26,-0.351408 6.505,-3.261152 2.75,-14.23981 11.746,-15.525198 1.775,6.576207 10.855,10.707069 11.135,19.445629 0.178,5.467042 -6.001,15.813372 -9.227,23.970398 -9.031,22.872637 -16.115,55.182503 -31.096,71.290271 -9.485,1.965398 -18.971,3.967078 -28.455,5.936623 -0.019,-3.882077 -30.155,-0.939162 -62.431,2.239061 -32.299,3.646768 -66.739,7.529882 -75.919,16.322345 -9.485,0.140978 -31.173,-0.471654 -50.49,-3.67061 -19.317,-2.789497 -36.263,-8.165318 -36.263,-8.114525 0,0 2.368,-30.924965 2.555,-33.302932 7.809,-1.870031 18.906,0.05805 24.088,-5.9065613 -2.74,-7.28731627 -7.274,-22.5015327 -1.267,-34.0192237 -5.714,-8.606912 -11.646,-9.398876 -19.191,-6.436266 0.62,-7.925863 1.241,-15.85069 1.862,-23.77759 0.398,0.126465 0.796,0.251894 1.195,0.376286 1.578,-2.168572 0.835,-7.601407 4.224,-7.224083 6.656,5.194415 15.845,11.506289 24.702,10.914389 17.543,11.169393 28.948,35.480833 57.458,26.640686 -3.49,-15.880751 -27.526,-13.96511 -30.702,-31.028625 17.774,1.442951 38.308,7.563052 49.34,16.580458 14.363,1.651308 24.574,-2.779131 39.521,-4.504038 2.538,2.101194 -0.694,3.378288 -0.205,6.947311 24.143,-16.158562 36.43,-34.209959 60.401,-60.882784 7.093,-7.92586 15.095,-14.47615 25.891,-25.00285 6.548,-6.39584 23.608,-21.96561 23.156,-27.68144 -0.795,-10.41993 -20.84,-11.85666 -31.249,-6.05376 -8.422,24.90334 -18.622,48.87167 -41.343,62.670923 -1.225,-34.344713 32.919,-44.063903 31.046,-74.595993 -1.56,-4.6077 -10.452,-0.83447 -7.929,-10.11724 -7.119,3.92665 -16.872,5.55722 -24.106,9.2921 -8.165,9.52431 -7.303,19.70271 -8.643,30.9996 -1.379,11.73538 -11.494,24.61102 -6.638,37.65563 -30.225,8.741668 -50.364,-13.84798 -49.625,-44.08464 0.249,-10.9828 7.04,-25.96586 2.474,-32.71621 -13.634,-8.13215 -27.149,-13.26541 -26.83,-33.05208 0.419,-21.95317 17.552,-56.47825 24.406,-69.65451 z" />
   <path
     style="opacity:0.712433;fill:#151515;fill-opacity:0.279835;filter:url(#filter3585)"
     id="path5324"
     d="m -43.99664,-35.178344 c 0.157,1.793323 0.314,3.585609 0.472,5.378931 -3.747,-1.858628 -6.398,-4.297754 -6.608,-8.330138 2.773,0.492386 4.655,1.595331 6.136,2.951207 z" />
   <path
     style="opacity:0.712433;fill:#151515;fill-opacity:0.279835;filter:url(#filter3581)"
     id="path5326"
     d="m -152.41764,-13.169197 c -1.249,5.8682072 -16.682,4.2106796 -21.959,3.9587852 -9.966,-21.6960922 20.301,-17.1205282 21.959,-3.9587852 z" />
   <path
     style="opacity:0.712433;fill:#151515;fill-opacity:0.279835;filter:url(#filter3577)"
     id="path5330"
     d="m -120.18164,14.620045 c -2.062,-0.03732 -4.122,-0.05701 -6.186,-0.05909 -0.496,-3.87793 1.463,-5.7168633 5.873,-5.3861871 0.105,1.8161281 0.208,3.6291461 0.313,5.4452731 z" />
   <path
     style="opacity:0.712433;fill:#151515;fill-opacity:0.279835;filter:url(#filter3573)"
     id="path5332"
     d="m -109.49464,-212.57111 c -13.563,-7.01365 -40.794,-17.26151 -51.138,-4.46879 5.172,5.8682 6.138,15.89111 16.749,16.58978 3.965,-1.54868 -7.26,-8.00153 -1.54,-7.67811 17.515,9.21851 50.439,22.00915 49.833,49.19923 -0.26,10.80036 -12.964,19.68094 -17.772,27.66174 -3.535,5.81534 -8.716,28.67969 -15.799,30.36728 -17.704,4.28531 -30.103,-24.70535 -25.736,-42.77645 2.156,-8.96454 13.429,-21.73963 13.724,-27.2699 1.109,-21.31048 -28.488,-27.8587 -25.18,-47.10841 1.767,-10.70914 25.058,-15.74703 34.83,-24.04192 2.59,-2.26498 4.229,-7.38476 7.325,-7.91239 27.234,0.81062 31.055,31.10637 14.704,37.43794 z" />
   <path
     style="opacity:0.712433;fill:#151515;fill-opacity:0.279835;filter:url(#filter3569)"
     id="path5334"
     d="m -138.24464,-180.6479 c 12.523,3.59805 8.932,19.96808 -2.351,20.61492 1.427,-6.29321 0.861,-14.42122 2.351,-20.61492 z" />
   <path
     style="opacity:0.712433;fill:#151515;fill-opacity:0.279835;filter:url(#filter3565)"
     id="path5336"
     d="m -347.88964,-238.27056 c -7.63,1.66167 -9.137,-3.44671 -14.335,-4.54654 -1.784,4.57142 2.473,12.25161 0.48,20.77766 -16.797,-1.91046 -16.323,-21.98634 -24.341,-35.93175 -2.638,-4.62118 -6.553,-7.66672 -6.103,-12.7865 1.149,-12.91192 16.664,-12.36356 25.535,-6.51193 5.679,3.78463 4.457,9.16875 8.249,17.98505 3.178,7.44073 15.104,12.19148 10.515,21.01401 z m -38.556,-38.34808 c -1.021,5.15503 3.373,4.73209 4.083,8.08861" />
   <path
     style="opacity:0.712433;fill:#151515;fill-opacity:0.279835;filter:url(#filter3561)"
     id="path5338"
     d="m -366.04264,-262.242 c -4.353,0.95782 -7.354,-8.29074 -16.319,-6.28803 -0.71,-3.35652 -5.104,-2.93462 -4.083,-8.08861 9.763,-5.81638 18.207,5.38826 20.402,14.37664 z" />
   <path
     style="opacity:0.712433;fill:#151515;fill-opacity:0.279835;filter:url(#filter3557)"
     id="path5340"
     d="m -501.31064,-174.43761 c 5.093,5.75107 4.805,21.04822 -1.769,22.58757 0.589,-7.52884 1.179,-15.05665 1.769,-22.58757 z" />
   <path
     style="opacity:0.712433;fill:#151515;fill-opacity:0.279835;filter:url(#filter3553)"
     id="path5342"
     d="m -301.84564,-138.13164 c -1.757,10.02291 -6.982,17.25943 -14.205,22.87264 0.845,-10.12139 7.739,-21.29182 14.205,-22.87264 z" />
   <path
     style="opacity:0.712433;fill:#151515;fill-opacity:0.279835;filter:url(#filter3549)"
     id="path5344"
     d="m -499.26364,-200.59006 c 0.217,-2.77395 0.435,-5.54893 0.651,-8.32184 21.399,2.20278 33.513,-11.34458 34.93,-38.49735 13.402,10.00736 21.103,23.74857 28.229,37.9946 -6.428,6.22376 -9.475,16.04349 -8.503,28.70663 2.479,34.25142 30.044,68.01564 38.159,93.551312 -39.897,-19.504712 -54.635,-66.234762 -76.408,-108.159112 -3.751,1.58393 -13.372,-2.65267 -17.058,-5.27424 z m 28.762,20.19717 c 4.547,13.06119 12.822,32.30883 19.343,42.78059 7.642,12.39569 17.797,24.60894 27.645,28.15412 -9.067,-29.87074 -38.292,-68.53601 -17.372,-104.13813 -6.767,-7.58378 -11.055,-17.40041 -18.881,-24.56955 -2.913,22.68086 -18.061,36.66878 -10.735,57.77297 z" />
   <path
     style="opacity:0.712433;fill:#151515;fill-opacity:0.279835;filter:url(#filter3545)"
     id="path5346"
     d="m -251.29264,-87.083109 c -0.129,2.041071 1.48,2.110523 1.235,4.281169 -5.495,2.519981 -6.202,4.038604 -11.852,7.782812 -4.387,-6.000892 1.525,-12.751248 10.617,-12.063981 z" />
   <path
     style="opacity:0.712433;fill:#151515;fill-opacity:0.279835;filter:url(#filter3541)"
     id="path5348"
     d="m -332.23364,-60.022598 c 1.159,-0.15549 0.898,1.255326 1.149,2.104303 -0.81,5.944916 -7.136,7.408599 -10.938,10.906096 -6.022,12.964789 -13.098,25.289994 -28.362,30.382822 6.836,-19.422823 25.223,-28.999994 38.151,-43.393221 z" />
   <path
     style="opacity:0.712433;fill:#151515;fill-opacity:0.279835;filter:url(#filter3537)"
     id="path5350"
     d="m -244.99164,-58.96319 c -1.308,8.318736 1.15,13.932975 -4.591,19.963929 -8.285,0.963004 -12.477,4.980876 -16.88,8.867099 0.016,3.385544 0.032,6.769015 0.048,10.155596 -13.746,2.693093 -17.396,-5.990527 -29.083,-5.601801 -4.586,-7.727872 -1.05,-20.76315 -1.022,-31.619489 15.267,-10.690483 40.037,-6.507791 51.528,-1.765334 z" />
   <path
     style="opacity:0.712433;fill:#151515;fill-opacity:0.279835;filter:url(#filter3533)"
     id="path5352"
     d="m -282.18864,-33.846309 c -7.555,1.372462 -15.446,-17.629501 -8.353,-24.478334 7.018,-6.780418 20.625,-0.01866 29.941,-0.01762 5.751,13.552542 -14.749,16.461249 -21.588,24.495956 z" />
   <path
     style="opacity:0.712433;fill:#151515;fill-opacity:0.279835;filter:url(#filter3529)"
     id="path5354"
     d="m -392.47864,-36.523854 c -3,8.123855 1.697,17.239738 5.051,25.147979 -13.248,16.5545439 -58.975,17.4729738 -63.767,-5.149841 9.789,-5.130147 30.152,-0.0041 37.851,-8.482519 0.125,-2.731448 0.25,-5.463933 0.375,-8.195381 6.279,-1.514476 12.049,-3.589754 20.49,-3.320238 z" />
   <path
     style="opacity:0.712433;fill:#151515;fill-opacity:0.279835;filter:url(#filter3525)"
     id="path5356"
     d="m -364.93664,-38.072538 c -0.902,4.36617 -4.29,6.586573 -8.622,7.937266 0.265,-4.943558 3.069,-7.612809 8.622,-7.937266 z" />
   <path
     style="opacity:0.712433;fill:#151515;fill-opacity:0.279835;filter:url(#filter3521)"
     id="path5358"
     d="m -515.92664,12.205798 c 1.21,-15.4547082 2.42,-30.90838 3.63,-46.363088 7.544,-2.96261 13.477,-2.170646 19.191,6.436266 -6.007,11.517691 -1.474,26.73190743 1.267,34.0192237 -5.182,5.9646113 -16.279,4.0365303 -24.088,5.9075983 z" />
   <path
     style="opacity:0.712433;fill:#151515;fill-opacity:0.279835;filter:url(#filter3517)"
     id="path5360"
     d="m -328.21664,-16.062355 c -0.113,3.7836 -2.145,6.0724181 -1.388,10.5401753 12.768,11.977943 42.343,3.9059186 59.622,7.7206161 -0.57,8.0616586 7.439,11.6949506 6.22,16.8105846 -6.769,0.179332 -6.992,3.17926 -13.543,3.915248 -8.85,0.998248 -17.001,-2.291929 -25.814,-1.526916 -20.468,1.824421 -45.302,6.521267 -65.062,9.027772 -28.931,3.756648 -60.963,19.555508 -91.854,19.894477 -12.966,0.142015 -25.645,-4.309157 -39.339,-8.314589 5.605,-4.089397 16.37,-7.230303 24.055,-5.259722 1.492,4.724835 -3.53,1.793323 -2.849,5.566556 21.427,-0.425007 50.743,-0.06634 73.196,-9.33357 1.993,-5.843328 5.262,-10.495601 9.141,-14.616096 2.847,-0.59812 4.683,-0.205248 6.066,0.638547 10.827,-18.79878818 35.169,-32.019618 61.549,-35.063083 z" />
   <path
     style="opacity:0.712433;fill:#151515;fill-opacity:0.279835;filter:url(#filter3513)"
     id="path5362"
     d="m -320.93264,-18.503554 c 5.9,-1.685516 5.606,3.521339 9.622,3.921468 4.779,-0.591901 3.756,-5.581069 8.527,-6.180225 8.864,1.45539 22.84,6.147053 15.689,18.4929902 -17.13,3.11810064 -29.32,0.5514726 -37.612,-6.4124237 -0.209,-4.4180005 2.696,-6.4113875 3.774,-9.8218095 z" />
   <path
     style="opacity:0.712433;fill:#151515;fill-opacity:0.279835;filter:url(#filter3509)"
     id="path5364"
     d="m -289.56464,7.3026676 c -15.171,8.7530724 -61.067,25.9938464 -75.927,14.6845124 -4.599,-3.407313 -4.749,-9.411315 -8.089,-13.9713298 7.046,-11.174576 23.092,-12.6071608 35.445,-10.9247548 4.302,0.6064125 7.239,4.8025799 12.031,5.9065616 12.232,2.8299251 29.96,-2.87968199 36.54,4.3050106 z" />
   <path
     style="opacity:0.712433;fill:#151515;fill-opacity:0.279835;filter:url(#filter3505)"
     id="path5366"
     d="m -392.98464,7.6758446 c -13.612,18.0171894 -38.23,30.0158644 -61.969,19.3388584 16.845,-8.299041 38.283,-19.1076961 61.969,-19.3388584 z m -32.166,12.0266634 c 4.137,2.454675 20.001,-1.640942 22.331,-8.991491 -8.288,2.449492 -20.935,0.173113 -22.331,8.991491 z" />
   <path
     style="opacity:0.712433;fill:#151515;fill-opacity:0.279835;filter:url(#filter3501)"
     id="path5368"
     d="m -293.37964,38.731422 c -4.948,1.026236 -9.896,2.046253 -14.846,3.045538 -4.657,-4.46361 -21.767,-2.060766 -36.96,0.08811 -10.05,1.44917 -22.356,3.49957 -32.088,4.747639 -8.812,1.206606 -22.16,2.842365 -23.499,3.533779 -2.267,1.242886 -4.721,2.363454 -2.71,6.023697 -16.083,1.178618 -32.165,1.499964 -48.247,0.634401 40.661,-12.882897 117.474,-33.182686 158.371,-22.619705 -0.003,0.758793 -0.007,1.514476 -0.01,2.272233 -0.004,0.759829 -0.007,1.515513 -0.011,2.274306 z" />
   <path
     style="opacity:0.712433;fill:#151515;fill-opacity:0.279835;filter:url(#filter3497)"
     id="path5370"
     d="m -508.63764,48.238104 c -3.299,-0.847941 -6.598,-1.762224 -9.896,-2.744923 0.31,-3.961896 0.621,-7.925864 0.931,-11.887759 3.844,1.729053 4.517,-0.85727 8.716,1.24496 -1.248,4.179581 -3.411,9.81248 0.249,13.387722 z" />
   <path
     style="opacity:0.712433;fill:#151515;fill-opacity:0.279835;filter:url(#filter3493)"
     id="path5372"
     d="m -517.32364,30.038472 c 0.28,-3.565912 0.559,-7.132862 0.838,-10.697738 12.6,-0.609523 27.153,4.933191 36.281,-2.455712 5.1,-4.144337 2.81,-13.9381585 12.045,-14.9654317 3.912,-0.4706176 6.254,5.1197803 9.44,5.8060112 2.521,0.6022661 14.198,0.2975049 19.541,0.057013 18.824,-0.5100084 41.134,-6.3263856 57.516,-11.5944 -10.229,9.573025 -24.418,9.8000409 -36.884,12.862165 -25.646,6.3543745 -49.404,19.3430045 -72.596,22.6497665 -10.144,-1.913568 -18.453,-2.053509 -26.181,-1.661674 z" />
   <path
     style="opacity:0.712433;fill:#151515;fill-opacity:0.279835;filter:url(#filter3489)"
     id="path5374"
     d="m -392.89364,-280.10888 c 0.212,5.56552 -6.878,13.49449 -8.641,20.94248 -1.274,-6.80426 6.021,-14.47201 8.641,-20.94248 z" />
   <path
     style="opacity:0.712433;fill:#151515;fill-opacity:0.279835;filter:url(#filter3485)"
     id="path5376"
     d="m -491.53664,-299.26322 c -0.776,9.90785 -1.552,19.81466 -2.327,29.72043 2.219,-1.28953 8.062,1.23356 8.783,4.22727 -4.429,11.71464 2.814,20.01576 -0.251,33.95081 7.716,-2.07736 1.028,-17.89177 5.192,-23.92583 16.771,-3.84476 22.394,14.00243 39.724,14.41811 1.298,12.72844 12.63,16.51515 20.108,23.24685 4.929,-12.92126 9.841,-25.84562 12.131,-41.74606 -12.548,-6.52438 -34.106,0.53281 -43.895,-10.82214 14.682,0.71319 32.883,4.41075 47.596,2.74078 3.127,-4.62636 5.921,-9.64559 8.388,-15.03074 -31.815,-0.50171 -63.632,-4.99953 -95.449,-16.77948 z m 10.635,38.89333 c 0.022,-0.002 0.046,10e-4 0.068,-10e-4 -0.023,10e-4 -0.045,0 -0.068,10e-4 z" />
   <path
     style="opacity:0.712433;fill:#151515;fill-opacity:0.279835;filter:url(#filter3481)"
     id="path5378"
     d="m -497.68064,-220.8007 c 1.179,-15.05769 2.358,-30.11641 3.538,-45.17514 1.368,-0.53178 3.098,-0.4955 5.644,0.75361 -3.438,8.16428 -2.94,29.35659 0.208,42.66553 -0.494,4.36513 -6.26,5.59869 -9.39,1.756 z" />
   <path
     style="opacity:0.712433;fill:#151515;fill-opacity:0.279835;filter:url(#filter3477)"
     id="path5380"
     d="m -508.38664,-84.087327 c 1.241,-15.850691 2.482,-31.702413 3.724,-47.553113 14.43,-4.08214 14.472,-27.34039 10.599,-45.30057 4.459,0.36178 7.886,-0.8697 11.8,-1.45642 31.234,42.42192 45.108,104.852351 107.803,103.234214 -1.013,-8.587216 -13.599,-7.75275 -19.559,-12.453743 -8.54,-6.63944 -16.361,-21.874391 -22.969,-35.792851 -10.971,-22.84465 -24.668,-46.55797 -15.536,-77.42696 30.768,11.93026 23.113,62.47708 43.037,87.37316 10.876,13.25608 28.907,18.112559 53.293,13.945416 3.871,3.360666 1.098,9.744065 -0.3,14.952993 10.496,-4.867886 16.395,-13.573275 27.321,-18.158169 -15.639,25.313837 -38.911,52.708133 -72.188,56.008676 -12.343,1.176544 -29.352,-5.065877 -46.011,-9.92547 -24.95,-7.288353 -45.255,-16.411492 -66.45,-28.038027 -4.874,-0.143051 -8.752,0.989956 -13.378,0.972333 -0.396,-0.127502 -0.791,-0.255004 -1.186,-0.381469 z" />
   <path
     style="opacity:0.712433;fill:#151515;fill-opacity:0.279835;filter:url(#filter3473)"
     id="path5382"
     d="m -486.96764,25.293942 c -2.754,3.501644 -11.031,-0.0311 -15.062,1.611917 -1.864,-4.184764 9.33,-2.560408 15.062,-1.611917 z" />
   <path
     style="opacity:0.712433;fill:#151515;fill-opacity:0.279835;filter:url(#filter3469)"
     id="path5384"
     d="m -291.46964,-121.72429 c 3.386,-11.72813 6.455,-23.65942 10.533,-34.70131 8.491,-5.6101 17.303,-2.91078 18.519,2.52827 2.682,11.86703 -21.614,25.8425 -29.052,32.17304 z" />
   <path
     style="opacity:0.712433;fill:#151515;fill-opacity:0.279835;filter:url(#filter3465)"
     id="path5386"
     d="m -323.94864,-132.28624 c 0.506,7.56927 -4.95,19.72137 -10.935,25.69531 -10.648,-5.46497 -0.296,-24.41199 10.935,-25.69531 z" />
   <path
     style="opacity:0.712433;fill:#151515;fill-opacity:0.279835;filter:url(#filter3461)"
     id="path5388"
     d="m -373.76664,-96.064234 c 2.928,-0.452995 3.578,1.476122 5.802,1.746676 -0.562,3.927687 -6.298,1.923934 -5.802,-1.746676 z" />
   <path
     style="opacity:0.712433;fill:#151515;fill-opacity:0.279835;filter:url(#filter3457)"
     id="path5390"
     d="m -518.48064,45.50873 c 0,0 0.661,-8.445202 0.88,-11.902271" />
  </g>
  <path
    id="path3850"
    d="m 360.2899,-150.93929 c 0,68.425593 -61.04651,121.176473 -120.58824,121.176473 -51.30353,0 -87.64706,-37.445186 -87.64706,-95.294113 0,-51.30353 47.49722,-125.29412 115.88235,-125.29412 59.54173,0 92.35295,48.10823 92.35295,99.41176 z"
    style="opacity:0.892193;fill:url(#linearGradient3235);fill-opacity:1;stroke:none;stroke-width:0.1;stroke-linecap:round;stroke-linejoin:round;stroke-miterlimit:4;stroke-dashoffset:1.0878;stroke-opacity:1"
    clip-path="url(#clipPath3858)"
    transform="matrix(0.8165632,0,0,0.8165632,37.711621,-23.384057)" />
  <g
    style="opacity:0.137546;fill:#430000;fill-opacity:1"
    transform="matrix(0.8165632,0,0,0.8165632,473.85246,-23.384057)"
    clip-path="url(#clipPath3852)"
    id="g3738">
   <path
     d="m -286.70264,-158.85436 c -8.421,24.90334 -18.622,48.87166 -41.342,62.670917 -1.225,-34.344717 32.919,-44.063907 31.046,-74.597037 -1.56,-4.60666 -10.453,-0.83342 -7.929,-10.1162 -7.118,3.92665 -16.872,5.55619 -24.106,9.2921 -8.164,9.52431 -7.303,19.70064 -8.643,30.99961 -1.38,11.73641 -11.494,24.61101 -6.638,37.65666 -30.225,8.741668 -50.364,-13.84901 -49.625,-44.08567 0.248,-10.98281 7.04,-25.96586 2.475,-32.71622 -13.629,-8.20574 -22.664,-13.0332 -22.383,-32.74316 0.475,-21.64116 35.422,-56.61302 42.083,-70.33245 -39.924,1.6596 -79.847,-1.65753 -119.771,-16.43845 -0.093,1.18795 -6.515,83.2112 -6.701,85.58917 21.508,3.33475 27.419,-16.01862 29.23,-38.60619 19.569,9.92443 25.238,23.0841 31.812,42.45302 -8.08,7.06237 -8.39,17.0065 -7.106,31.07424 3.231,36.06133 21.328,57.80303 30.733,81.243726 -24.109,-7.957996 -25.859,-12.040136 -40.267,-34.506426 -11.125,-17.90628 -14.944,-41.8207 -32.392,-55.94441 -6.291,-0.31409 -8.639,4.99954 -13.38,6.77731 5.463,12.61338 8.339,34.83399 -3.148,40.41506 -0.387,-0.1275 -0.774,-0.25604 -1.161,-0.38561 -0.249,3.16993 -0.497,6.34089 -0.745,9.51083 0.135,-0.0363 0.26,-0.086 0.394,-0.12543 -2.135,3.86652 -4.16,13.26333 -5.066,24.68047 -0.841,10.604442 -0.487,20.209602 0.749,25.565727 -0.616,7.862631 -1.231,15.725262 -1.847,23.587893 0.398,0.125429 0.796,0.251894 1.195,0.37525 1.578,-2.1665 0.835,-7.600371 4.223,-7.223047 6.656,5.194415 15.844,11.506289 24.702,10.913352 17.543,11.169393 28.946,35.480834 57.456,26.641723 -3.491,-15.880751 -27.527,-13.96511 -30.703,-31.028625 17.774,1.443987 38.308,7.563052 49.34,16.580458 14.363,1.652345 24.575,-2.779131 39.521,-4.504038 2.537,2.09912 -0.694,3.377251 -0.206,6.947311 24.142,-16.158562 36.429,-34.209959 60.401,-60.883814 7.093,-7.92483 15.095,-14.47616 25.89,-25.00182 6.549,-6.39584 23.608,-21.96561 23.157,-27.68144 -0.793,-10.41993 -20.839,-11.85666 -31.248,-6.05479 z"
     id="path3740"
     style="opacity:0.712433;fill:#430000;fill-opacity:1;filter:url(#filter3673)" />
   <path
     d="m -393.89064,-282.45575 c 16.091,0.16171 32.182,-0.68001 48.273,-2.10015 -1.055,22.31183 12.767,36.86884 6.378,58.02797 0.808,6.60731 10.411,3.33164 11.01,10.14005 -3.393,7.4397 -13.129,9.09619 -19.44,13.79407 -2.791,2.59047 1.749,5.29186 -1.337,8.20367 -13.967,6.59694 -18.758,12.17386 -26.868,24.33736 -2.761,4.13397 -7.817,8.02123 -9.551,11.0139 -13.531,23.20124 9.135,52.49978 29.532,51.8291 5.875,-13.92261 1.245,-29.23013 5.771,-43.30201 1.38,-4.28738 7.469,-14.13615 10.754,-18.56658 14.353,-19.14605 46.445,-35.17089 68.605,-53.47833 8.823,-7.24793 13.715,-18.92422 24.645,-16.02381 1.685,11.38812 -9.025,12.35216 -13.335,18.81434 0.086,16.84065 -15.965,30.02623 -19.179,48.23416 12.256,4.39001 22.155,11.51458 35.891,14.44091 -30.397,51.57616 -73.665,97.498692 -115.687,143.527994 16.593,-4.554832 35.644,-17.087357 48.619,-28.648586 6.827,-6.082784 7.672,-14.687622 13.322,-20.676076 3.507,-3.718293 12.848,-7.573418 17.901,-11.288602 16.768,-12.300326 31.043,-32.51822 50.757,-31.42668 2.31,3.11084 4.199,6.703708 6.14,10.243706 1.675,-1.732163 2.871,-5.543746 5.876,-3.102552 -0.633,8.69295 1.597,14.209749 4.051,19.504715 -2.383,16.857231 -11.003,29.743238 -15.955,42.762967 -8.803,23.134897 -14.227,46.1132666 -27.309,66.957272 -3.3,0.670682 -6.599,1.350693 -9.896,2.033814 14.98,-16.108804 22.065,-48.417634 31.096,-71.290271 3.228,-8.158062 9.404,-18.504393 9.227,-23.971435 -0.28,-8.73856 -9.359,-12.868384 -11.136,-19.444591 -8.995,1.28435 -5.241,12.264045 -11.745,15.526233 -12.475,-0.70178 -27.448,-1.956069 -38.26,0.350372 -13.959,2.969867 -10.236,11.423361 -15.642,19.978442 -3,4.740384 -7.827,6.824992 -12.085,9.073383 -16.389,8.617277 -34.348,28.4391919 -56.029,30.6419724 44.32,-45.3824614 83.995,-95.9624474 118.69,-146.0925474 -5.935,-11.04293 -20.305,-12.28893 -34.727,-13.41986 -2.383,-16.86034 10.76,-26.49867 3.482,-37.96868 -28.671,11.87947 -52.783,27.42021 -63.511,55.06018 3.072,15.8963 -7.317,27.68248 -3.417,45.29228 -34.384,6.637367 -52.803,-36.53817 -34.814,-68.43858 1.396,-6.28388 -3.992,-5.60076 -2.976,-11.49799 4.206,-3.75458 12.259,4.72898 15.972,-2.06802 -20.68,-4.4377 -44.65,-1.74357 -45.244,-27.2129 -0.297,-14.73012 12.986,-59.6005 22.151,-69.77061 m 3.29,53.7126 c -26.768,-21.44109 -31.073,52.33081 3.194,32.55243 4.597,-14.36005 0.167,-21.23584 -3.194,-32.55243 z"
     id="path3742"
     style="opacity:0.712433;fill:#430000;fill-opacity:1;filter:url(#filter3669)" />
   <path
     d="m -46.35164,-62.075071 c -3.698,-5.127037 -5.776,-1.185874 -10.684,-2.21522 -1.042,5.707534 -2.599,10.858412 -5.88,14.252249 -2.801,-0.352445 -4.391,0.59812 -8.351,-0.876966 -6.447,1.988204 -1.407,15.730445 -9.501,16.273625 -4.887,-3.493351 -12.405,-4.64398 -13.938,-10.603408 -4.751,-1.588076 -4.702,3.647804 -8.396,0.1586 -0.608,-5.594544 -4.544,-8.317699 -4.529,-14.432618 -6.089,-1.556977 -0.347,7.82013 -8.098,4.825385 -5.741,-5.167464 -7.624,-13.7609 -13.099,-19.007145 7.094,-6.827065 14.537,-12.872531 16.405,-24.022229 3.272,-1.052152 7.236,-0.637511 10.683,1.111238 2.615,-0.815806 -0.007,-6.75554 0.53,-9.60412 12.019,-18.69409 24.933,-35.9753 47.605,-38.7026 0.095,1.07807 7.253,82.843209 7.253,82.843209 z m -60.214,0.495496 c 2.104,-4.174399 8.672,-3.960859 6.348,-12.267155 -8.805,-9.71504 -12.979,7.360915 -6.348,12.267155 z"
     id="path3744"
     style="opacity:0.712433;fill:#430000;fill-opacity:1;filter:url(#filter3665)" />
   <path
     d="m -53.32064,-141.68822 c 0.125,1.43465 6.373,72.79956 6.499,74.233181 -3.731,-3.970188 -6.8,-1.259472 -11.946,-3.633292 -3.216,3.992993 -3.687,11.018049 -6.987,15.070129 -4.04,0.940198 -12.31,-2.285709 -15.391,-0.02695 -0.1,3.903846 1.738,9.747174 -0.332,11.677328 -5.771,-0.484093 -10.036,-1.952959 -11.183,-5.98016 4.802,-16.010327 -5.061,-31.17375 -19.147,-37.599649 0.01,-3.049685 -1.488,-7.543358 1.898,-7.386831 6.105,0.07464 6.286,5.246246 13.29,4.761116 -4.439,-25.575062 14.992,-41.053612 32.133,-49.454242 3.1,-1.54972 6.46,-3.49646 11.166,-1.66063 z"
     id="path3746"
     style="opacity:0.712433;fill:#430000;fill-opacity:1;filter:url(#filter3661)" />
   <path
     d="m -503.91764,-141.15023 c 0.28,-3.56695 3.972,-50.72304 4.655,-59.44086 3.686,2.64644 14.833,6.60108 18.581,4.97569 21.91,41.44959 26.53,66.62867 62.807,93.23722 -7.856,-26.25196 -25.083,-44.5169 -27.635,-78.48948 -0.967,-12.67661 0.715,-25.39054 7.146,-31.54381 -7.085,-14.40567 -9.253,-20.08522 -22.705,-29.82513 -1.375,27.16831 -16.568,41.75953 -38.024,39.48523 0.124,-1.58497 0.73,-9.32943 0.855,-10.91439 21.508,3.33371 27.42,-16.01862 29.23,-38.60619 19.558,10.07059 31.436,24.20052 38.068,43.29889 -8.06,7.21993 -9.896,17.11949 -8.593,31.14161 3.191,36.27487 32.039,73.66513 41.739,96.226786 -12.2,-3.164748 -35.897,-16.422895 -57.618,-31.318876 -21.779,-14.40463 -41.58,-30.44813 -47.345,-27.83796 -0.387,-0.13061 -0.774,-0.26019 -1.161,-0.38873 z"
     id="path3748"
     style="opacity:0.712433;fill:#430000;fill-opacity:1;filter:url(#filter3657)" />
   <path
     d="m -278.69264,-292.6611 c 2.559,-0.35141 5.12,-0.70178 7.68,-1.05111 -0.521,4.08214 7.552,3.95463 6.582,-0.89045 2.195,-0.29439 4.39,-0.58671 6.583,-0.87593 -1.379,10.30487 -4.911,18.78013 -4.178,30.9965 -7.691,11.76129 -23.711,19.70685 -36.725,17.77773 0.104,2.89108 3.724,1.71972 6.682,1.30301 -0.422,5.33332 -3.844,8.05751 -7.884,10.24889 -12.148,-6.06516 -6.255,-12.23813 -0.947,-21.48774 7.634,-13.29546 14.041,-27.68454 22.207,-36.0209 z"
     id="path3750"
     style="opacity:0.712433;fill:#430000;fill-opacity:1;filter:url(#filter3653)" />
   <path
     d="m -271.01264,-293.71221 c 2.193,-0.29855 4.387,-0.59605 6.582,-0.89045 0.972,4.84612 -7.102,4.97259 -6.582,0.89045 z"
     id="path3752"
     style="opacity:0.712433;fill:#430000;fill-opacity:1;filter:url(#filter3649)" />
   <path
     d="m -147.03664,-301.84436 c 0.73,0.11506 17.348,0.89666 33.782,4.02927 16.435,2.75426 32.686,7.85952 32.686,7.92587 4.947,2.02966 9.896,4.22104 14.85,6.58657 0,0 2.445,27.93229 2.603,29.72665 -11.718,-2.64748 -20.861,-1.18795 -29.189,1.62954 -1.022,20.2915 -0.113,39.92164 -15.541,47.13121 -10.749,-4.09147 -17.872,-11.13622 -32.299,-10.72987 4.347,6.87682 14.808,11.32384 24.884,18.31884 7.999,5.42765 21.858,14.13926 26.338,20.39101 10.224,13.86145 -11.747,34.1913 -18.721,44.02866 -8.196,11.48452 -13.756,50.643217 -38.873,40.467926 -6.557,-2.644373 -17.215,-20.008506 -18.927,-24.597546 -2.945,-7.82738 -2.768,-16.964 -0.985,-23.06026 3.602,-12.36459 20.32,-19.83124 19.425,-32.15541 -0.357,-4.99021 -8.208,-13.20632 -12.46,-19.68612 -8.645,-13.19595 -15.694,-21.11767 -25.2,-29.86556 0.012,-7.50396 7.769,-7.45006 14.486,-6.14913 12.798,-5.68058 24.73,-11.14451 26.834,-25.92335 6.062,-1.9654 9.756,-6.19785 18.609,-4.92283 -23.948,-8.85569 -57.596,3.77427 -61.016,-22.58031 7.329,-12.96998 31.014,-9.59169 38.714,-20.56516 z m 19.784,20.19716 c 7.567,1.43155 10.629,-1.61502 11.583,-6.97426 -0.314,-1.25429 -1.333,-1.88662 -2.346,-2.51998 -4.485,1.56631 -8.968,3.32438 -9.237,9.49424 z"
     id="path3754"
     style="opacity:0.712433;fill:#430000;fill-opacity:1;filter:url(#filter3645)" />
   <path
     d="m -65.84864,-284.7767 c 0.219,2.51065 2.04,23.31008 2.261,25.82073 -19.24,-2.43705 -44.988,5.61839 -69.403,-8.16842 6.789,-9.66632 22.503,-8.99979 21.358,-26.15349 -17.924,-4.32574 -18.411,10.71744 -29.747,14.63061 -1.083,4.8824 4.948,6.38651 1.654,9.88815 -16.849,0.50276 -40.843,8.03886 -41.646,-13.79199 20.403,-0.19178 31.904,-7.35885 38.724,-18.98642 25.599,1.95711 51.199,6.97426 76.799,16.76083 z"
     id="path3756"
     style="opacity:0.712433;fill:#430000;fill-opacity:1;filter:url(#filter3641)" />
   <path
     d="m -133.87164,-300.74453 c 5.487,0.57428 10.972,1.29783 16.458,2.18827 -9.581,1.44295 -15.326,7.36921 -24.508,10.09858 1.419,-5.44009 5.574,-8.05129 8.05,-12.28685 z"
     id="path3758"
     style="opacity:0.712433;fill:#430000;fill-opacity:1;filter:url(#filter3637)" />
   <path
     d="m -65.75564,-283.70071 c -2.344,-0.36384 -6.879,0 -7.774,-3.87171 -4.022,-1.39008 -8.045,-2.66718 -12.067,-3.8375 0.862,4.26666 -3.617,2.26083 -5.071,3.86653 0.335,0.84172 -1.225,2.19345 -2.862,3.5939 0.024,-1.2885 -0.104,-2.75114 -0.436,-4.44703 -2.838,-1.95503 -5.11,-4.3133 -6.99,-6.97633 -2.926,-0.66135 -5.852,-1.26984 -8.777,-1.82961 9.553,18.57074 -9.385,20.23552 -12.068,32.39591 25.331,7.25725 40.406,-1.61192 57.555,-1.68241 -0.096,-1.07392 -1.416,-16.13575 -1.51,-17.21175 z"
     id="path3760"
     style="opacity:0.712433;fill:#430000;fill-opacity:1;filter:url(#filter3633)" />
   <path
     d="m -100.95664,-295.37182 c 5.118,1.15685 10.239,2.4723 15.359,3.9619 0.862,4.26666 -3.617,2.26083 -5.071,3.86653 0.696,1.74875 1.839,3.15645 2.535,4.91038 9.417,2.49822 15.436,1.43881 22.661,2.15925 0.125,1.43362 0.251,2.86931 0.376,4.30293 -6.215,0.52556 -12.646,1.16204 -17.943,3.4125 4.965,2.19345 12.295,-0.91014 18.226,-0.18555 0.095,1.07599 0.189,2.15199 0.283,3.22798 -13.769,-0.20007 -26.741,7.12457 -45.403,1.34862 4.812,-7.66982 19.123,-4.02202 15.967,-20.03027 -2.838,-1.95193 -5.11,-4.31123 -6.99,-6.97427 z"
     id="path3762"
     style="opacity:0.712433;fill:#430000;fill-opacity:1;filter:url(#filter3629)" />
   <path
     d="m -167.90564,-278.40885 c 0.963,4.81709 -7.2,6.03821 -8.771,2.32614 1.029,-2.57285 4.998,-2.39248 8.771,-2.32614 z"
     id="path3764"
     style="opacity:0.712433;fill:#430000;fill-opacity:1;filter:url(#filter3625)" />
   <path
     d="m -154.63764,-256.39037 c 0.217,5.91381 -9.713,10.80347 -17.322,13.18973 -0.976,-2.42047 -2.537,-4.21898 -2.564,-7.6294 4.33,-4.16092 13.094,-4.07903 19.886,-5.56033 z"
     id="path3766"
     style="opacity:0.712433;fill:#430000;fill-opacity:1;filter:url(#filter3621)" />
   <path
     d="m -109.20464,-208.23707 c -12.076,-5.34369 -25.61,-14.56842 -41.325,-10.92891 10.417,16.74839 69.275,32.12847 57.491,63.89619 -3.473,8.83289 -15.07,16.59186 -21.222,28.23187 -6.408,12.10752 -6.495,26.46654 -18.099,32.570054 -15.944,-0.812696 -30.689,-23.912344 -30.224,-38.000814 0.665,-19.95978 27.971,-30.10294 15.023,-50.61109 -8.886,-14.33828 -23.739,-21.89823 -28.046,-39.0851 17.537,-3.27359 23.916,-16.00929 37.282,-21.53127 -0.27,-14.25847 20.883,-8.65563 30.768,-6.06309 17.897,13.90603 11.869,35.35955 -1.648,41.52216 z"
     id="path3768"
     style="opacity:0.712433;fill:#430000;fill-opacity:1;filter:url(#filter3617)" />
   <path
     d="m -58.87864,-205.16355 c 0.659,7.53092 1.318,15.06184 1.978,22.59172 -9.734,-1.73216 -19.618,0.4136 -21.086,-12.85387 9.15,-0.40324 11.736,-8.01605 19.108,-9.73785 z"
     id="path3770"
     style="opacity:0.712433;fill:#430000;fill-opacity:1;filter:url(#filter3613)" />
   <path
     d="m -213.48964,-194.69282 c -2.957,5.51472 -4.703,12.0505 -11.151,14.79439 -3.15,-5.95425 2.866,-18.40488 11.151,-14.79439 z"
     id="path3772"
     style="opacity:0.712433;fill:#430000;fill-opacity:1;filter:url(#filter3609)" />
   <path
     d="m -128.33364,-187.68954 c -3.725,0.0145 -5.596,-1.64612 -5.984,-4.72587 2.179,-1.92912 5.401,1.6793 5.984,4.72587 z"
     id="path3774"
     style="opacity:0.712433;fill:#430000;fill-opacity:1;filter:url(#filter3605)" />
   <path
     d="m -52.94364,-137.38529 c 0.533,6.09626 5.181,59.171353 5.745,65.628351 -19.824,-7.361952 -16.049,12.033919 -31.944,10.752678 -8.013,-4.525807 -12.339,-11.657633 -16.733,-18.738665 6.558,-7.681225 0.263,-16.81784 0.58,-25.646584 0.707,-18.42976 28.157,-32.84994 42.352,-31.99578 z"
     id="path3776"
     style="opacity:0.712433;fill:#430000;fill-opacity:1;filter:url(#filter3601)" />
   <path
     d="m -51.34264,-119.0934 c 0.815,9.32321 1.632,18.64641 2.448,27.970651 -14.183,-10.276881 -18.236,-27.529051 -2.448,-27.970651 z"
     id="path3778"
     style="opacity:0.712433;fill:#430000;fill-opacity:1;filter:url(#filter3597)" />
   <path
     d="m -121.30564,-127.61323 c 0.05,10.13693 -4.006,24.39229 -16.681,16.69344 -1.097,-6.17504 2.582,-8.10208 7.779,-8.50117 -0.376,-5.84852 2.258,-8.9832 8.902,-8.19227 z"
     id="path3780"
     style="opacity:0.712433;fill:#430000;fill-opacity:1;filter:url(#filter3593)" />
   <path
     d="m -393.89064,-282.45575 c 14.993,0.15031 29.988,-0.57013 44.982,-1.8182 -0.232,17.92701 15.087,38.44034 4.173,53.74474 -5.221,1.21282 -6.719,-0.90703 -10.078,0.97648 -0.719,11.26994 9.421,10.62517 10.704,19.66435 -6.753,5.64223 -22.245,12.44338 -31.763,7.35158 1.694,-3.50682 5.667,-4.74038 5.96,-9.64869 -10.688,-12.64241 -13.88,-33.08214 -28.508,-42.24467 -9.329,10.15456 -17.96,27.01386 -17.622,41.7388 0.594,25.4714 24.563,22.77727 45.245,27.2129 -3.713,6.79804 -11.767,-1.68552 -15.972,2.06802 -1.016,5.89723 4.372,5.21515 2.976,11.49799 -17.989,31.90041 0.43,75.07802 34.814,68.43754 -3.9,-17.60876 6.487,-29.3939 3.417,-45.29124 10.728,-27.63997 34.839,-43.18071 63.511,-55.06018 7.278,11.46897 -5.865,21.10938 -3.482,37.96868 14.423,1.1299 28.792,2.37693 34.727,13.41986 -34.697,50.13632 -74.372,100.715269 -118.691,146.0956576 21.682,-2.2027805 39.641,-22.0215856 56.029,-30.6419726 4.259,-2.246318 9.085,-4.331963 12.085,-9.072346 5.406,-8.555081 1.683,-17.007539 15.642,-19.978442 10.813,-2.306441 25.786,-1.052152 38.26,-0.351408 6.505,-3.261152 2.75,-14.23981 11.746,-15.525198 1.775,6.576207 10.855,10.707069 11.135,19.445629 0.178,5.467042 -6.001,15.813372 -9.227,23.970398 -9.031,22.872637 -16.115,55.182503 -31.096,71.290271 -9.485,1.965398 -18.971,3.967078 -28.455,5.936623 -0.019,-3.882077 -30.155,-0.939162 -62.431,2.239061 -32.299,3.646768 -66.739,7.529882 -75.919,16.322345 -9.485,0.140978 -31.173,-0.471654 -50.49,-3.67061 -19.317,-2.789497 -36.263,-8.165318 -36.263,-8.114525 0,0 2.368,-30.924965 2.555,-33.302932 7.809,-1.870031 18.906,0.05805 24.088,-5.9065613 -2.74,-7.28731627 -7.274,-22.5015327 -1.267,-34.0192237 -5.714,-8.606912 -11.646,-9.398876 -19.191,-6.436266 0.62,-7.925863 1.241,-15.85069 1.862,-23.77759 0.398,0.126465 0.796,0.251894 1.195,0.376286 1.578,-2.168572 0.835,-7.601407 4.224,-7.224083 6.656,5.194415 15.845,11.506289 24.702,10.914389 17.543,11.169393 28.948,35.480833 57.458,26.640686 -3.49,-15.880751 -27.526,-13.96511 -30.702,-31.028625 17.774,1.442951 38.308,7.563052 49.34,16.580458 14.363,1.651308 24.574,-2.779131 39.521,-4.504038 2.538,2.101194 -0.694,3.378288 -0.205,6.947311 24.143,-16.158562 36.43,-34.209959 60.401,-60.882784 7.093,-7.92586 15.095,-14.47615 25.891,-25.00285 6.548,-6.39584 23.608,-21.96561 23.156,-27.68144 -0.795,-10.41993 -20.84,-11.85666 -31.249,-6.05376 -8.422,24.90334 -18.622,48.87167 -41.343,62.670923 -1.225,-34.344713 32.919,-44.063903 31.046,-74.595993 -1.56,-4.6077 -10.452,-0.83447 -7.929,-10.11724 -7.119,3.92665 -16.872,5.55722 -24.106,9.2921 -8.165,9.52431 -7.303,19.70271 -8.643,30.9996 -1.379,11.73538 -11.494,24.61102 -6.638,37.65563 -30.225,8.741668 -50.364,-13.84798 -49.625,-44.08464 0.249,-10.9828 7.04,-25.96586 2.474,-32.71621 -13.634,-8.13215 -27.149,-13.26541 -26.83,-33.05208 0.419,-21.95317 17.552,-56.47825 24.406,-69.65451 z"
     id="path3782"
     style="opacity:0.712433;fill:#430000;fill-opacity:1;filter:url(#filter3589)" />
   <path
     d="m -43.99664,-35.178344 c 0.157,1.793323 0.314,3.585609 0.472,5.378931 -3.747,-1.858628 -6.398,-4.297754 -6.608,-8.330138 2.773,0.492386 4.655,1.595331 6.136,2.951207 z"
     id="path3784"
     style="opacity:0.712433;fill:#430000;fill-opacity:1;filter:url(#filter3585)" />
   <path
     d="m -152.41764,-13.169197 c -1.249,5.8682072 -16.682,4.2106796 -21.959,3.9587852 -9.966,-21.6960922 20.301,-17.1205282 21.959,-3.9587852 z"
     id="path3786"
     style="opacity:0.712433;fill:#430000;fill-opacity:1;filter:url(#filter3581)" />
   <path
     d="m -120.18164,14.620045 c -2.062,-0.03732 -4.122,-0.05701 -6.186,-0.05909 -0.496,-3.87793 1.463,-5.7168633 5.873,-5.3861871 0.105,1.8161281 0.208,3.6291461 0.313,5.4452731 z"
     id="path3788"
     style="opacity:0.712433;fill:#430000;fill-opacity:1;filter:url(#filter3577)" />
   <path
     d="m -109.49464,-212.57111 c -13.563,-7.01365 -40.794,-17.26151 -51.138,-4.46879 5.172,5.8682 6.138,15.89111 16.749,16.58978 3.965,-1.54868 -7.26,-8.00153 -1.54,-7.67811 17.515,9.21851 50.439,22.00915 49.833,49.19923 -0.26,10.80036 -12.964,19.68094 -17.772,27.66174 -3.535,5.81534 -8.716,28.67969 -15.799,30.36728 -17.704,4.28531 -30.103,-24.70535 -25.736,-42.77645 2.156,-8.96454 13.429,-21.73963 13.724,-27.2699 1.109,-21.31048 -28.488,-27.8587 -25.18,-47.10841 1.767,-10.70914 25.058,-15.74703 34.83,-24.04192 2.59,-2.26498 4.229,-7.38476 7.325,-7.91239 27.234,0.81062 31.055,31.10637 14.704,37.43794 z"
     id="path3790"
     style="opacity:0.712433;fill:#430000;fill-opacity:1;filter:url(#filter3573)" />
   <path
     d="m -138.24464,-180.6479 c 12.523,3.59805 8.932,19.96808 -2.351,20.61492 1.427,-6.29321 0.861,-14.42122 2.351,-20.61492 z"
     id="path3792"
     style="opacity:0.712433;fill:#430000;fill-opacity:1;filter:url(#filter3569)" />
   <path
     d="m -347.88964,-238.27056 c -7.63,1.66167 -9.137,-3.44671 -14.335,-4.54654 -1.784,4.57142 2.473,12.25161 0.48,20.77766 -16.797,-1.91046 -16.323,-21.98634 -24.341,-35.93175 -2.638,-4.62118 -6.553,-7.66672 -6.103,-12.7865 1.149,-12.91192 16.664,-12.36356 25.535,-6.51193 5.679,3.78463 4.457,9.16875 8.249,17.98505 3.178,7.44073 15.104,12.19148 10.515,21.01401 z m -38.556,-38.34808 c -1.021,5.15503 3.373,4.73209 4.083,8.08861"
     id="path3794"
     style="opacity:0.712433;fill:#430000;fill-opacity:1;filter:url(#filter3565)" />
   <path
     d="m -366.04264,-262.242 c -4.353,0.95782 -7.354,-8.29074 -16.319,-6.28803 -0.71,-3.35652 -5.104,-2.93462 -4.083,-8.08861 9.763,-5.81638 18.207,5.38826 20.402,14.37664 z"
     id="path3796"
     style="opacity:0.712433;fill:#430000;fill-opacity:1;filter:url(#filter3561)" />
   <path
     d="m -501.31064,-174.43761 c 5.093,5.75107 4.805,21.04822 -1.769,22.58757 0.589,-7.52884 1.179,-15.05665 1.769,-22.58757 z"
     id="path3798"
     style="opacity:0.712433;fill:#430000;fill-opacity:1;filter:url(#filter3557)" />
   <path
     d="m -301.84564,-138.13164 c -1.757,10.02291 -6.982,17.25943 -14.205,22.87264 0.845,-10.12139 7.739,-21.29182 14.205,-22.87264 z"
     id="path3800"
     style="opacity:0.712433;fill:#430000;fill-opacity:1;filter:url(#filter3553)" />
   <path
     d="m -499.26364,-200.59006 c 0.217,-2.77395 0.435,-5.54893 0.651,-8.32184 21.399,2.20278 33.513,-11.34458 34.93,-38.49735 13.402,10.00736 21.103,23.74857 28.229,37.9946 -6.428,6.22376 -9.475,16.04349 -8.503,28.70663 2.479,34.25142 30.044,68.01564 38.159,93.551312 -39.897,-19.504712 -54.635,-66.234762 -76.408,-108.159112 -3.751,1.58393 -13.372,-2.65267 -17.058,-5.27424 z m 28.762,20.19717 c 4.547,13.06119 12.822,32.30883 19.343,42.78059 7.642,12.39569 17.797,24.60894 27.645,28.15412 -9.067,-29.87074 -38.292,-68.53601 -17.372,-104.13813 -6.767,-7.58378 -11.055,-17.40041 -18.881,-24.56955 -2.913,22.68086 -18.061,36.66878 -10.735,57.77297 z"
     id="path3802"
     style="opacity:0.712433;fill:#430000;fill-opacity:1;filter:url(#filter3549)" />
   <path
     d="m -251.29264,-87.083109 c -0.129,2.041071 1.48,2.110523 1.235,4.281169 -5.495,2.519981 -6.202,4.038604 -11.852,7.782812 -4.387,-6.000892 1.525,-12.751248 10.617,-12.063981 z"
     id="path3804"
     style="opacity:0.712433;fill:#430000;fill-opacity:1;filter:url(#filter3545)" />
   <path
     d="m -332.23364,-60.022598 c 1.159,-0.15549 0.898,1.255326 1.149,2.104303 -0.81,5.944916 -7.136,7.408599 -10.938,10.906096 -6.022,12.964789 -13.098,25.289994 -28.362,30.382822 6.836,-19.422823 25.223,-28.999994 38.151,-43.393221 z"
     id="path3806"
     style="opacity:0.712433;fill:#430000;fill-opacity:1;filter:url(#filter3541)" />
   <path
     d="m -244.99164,-58.96319 c -1.308,8.318736 1.15,13.932975 -4.591,19.963929 -8.285,0.963004 -12.477,4.980876 -16.88,8.867099 0.016,3.385544 0.032,6.769015 0.048,10.155596 -13.746,2.693093 -17.396,-5.990527 -29.083,-5.601801 -4.586,-7.727872 -1.05,-20.76315 -1.022,-31.619489 15.267,-10.690483 40.037,-6.507791 51.528,-1.765334 z"
     id="path3808"
     style="opacity:0.712433;fill:#430000;fill-opacity:1;filter:url(#filter3537)" />
   <path
     d="m -282.18864,-33.846309 c -7.555,1.372462 -15.446,-17.629501 -8.353,-24.478334 7.018,-6.780418 20.625,-0.01866 29.941,-0.01762 5.751,13.552542 -14.749,16.461249 -21.588,24.495956 z"
     id="path3810"
     style="opacity:0.712433;fill:#430000;fill-opacity:1;filter:url(#filter3533)" />
   <path
     d="m -392.47864,-36.523854 c -3,8.123855 1.697,17.239738 5.051,25.147979 -13.248,16.5545439 -58.975,17.4729738 -63.767,-5.149841 9.789,-5.130147 30.152,-0.0041 37.851,-8.482519 0.125,-2.731448 0.25,-5.463933 0.375,-8.195381 6.279,-1.514476 12.049,-3.589754 20.49,-3.320238 z"
     id="path3812"
     style="opacity:0.712433;fill:#430000;fill-opacity:1;filter:url(#filter3529)" />
   <path
     d="m -364.93664,-38.072538 c -0.902,4.36617 -4.29,6.586573 -8.622,7.937266 0.265,-4.943558 3.069,-7.612809 8.622,-7.937266 z"
     id="path3814"
     style="opacity:0.712433;fill:#430000;fill-opacity:1;filter:url(#filter3525)" />
   <path
     d="m -515.92664,12.205798 c 1.21,-15.4547082 2.42,-30.90838 3.63,-46.363088 7.544,-2.96261 13.477,-2.170646 19.191,6.436266 -6.007,11.517691 -1.474,26.73190743 1.267,34.0192237 -5.182,5.9646113 -16.279,4.0365303 -24.088,5.9075983 z"
     id="path3816"
     style="opacity:0.712433;fill:#430000;fill-opacity:1;filter:url(#filter3521)" />
   <path
     d="m -328.21664,-16.062355 c -0.113,3.7836 -2.145,6.0724181 -1.388,10.5401753 12.768,11.977943 42.343,3.9059186 59.622,7.7206161 -0.57,8.0616586 7.439,11.6949506 6.22,16.8105846 -6.769,0.179332 -6.992,3.17926 -13.543,3.915248 -8.85,0.998248 -17.001,-2.291929 -25.814,-1.526916 -20.468,1.824421 -45.302,6.521267 -65.062,9.027772 -28.931,3.756648 -60.963,19.555508 -91.854,19.894477 -12.966,0.142015 -25.645,-4.309157 -39.339,-8.314589 5.605,-4.089397 16.37,-7.230303 24.055,-5.259722 1.492,4.724835 -3.53,1.793323 -2.849,5.566556 21.427,-0.425007 50.743,-0.06634 73.196,-9.33357 1.993,-5.843328 5.262,-10.495601 9.141,-14.616096 2.847,-0.59812 4.683,-0.205248 6.066,0.638547 10.827,-18.79878818 35.169,-32.019618 61.549,-35.063083 z"
     id="path3818"
     style="opacity:0.712433;fill:#430000;fill-opacity:1;filter:url(#filter3517)" />
   <path
     d="m -320.93264,-18.503554 c 5.9,-1.685516 5.606,3.521339 9.622,3.921468 4.779,-0.591901 3.756,-5.581069 8.527,-6.180225 8.864,1.45539 22.84,6.147053 15.689,18.4929902 -17.13,3.11810064 -29.32,0.5514726 -37.612,-6.4124237 -0.209,-4.4180005 2.696,-6.4113875 3.774,-9.8218095 z"
     id="path3820"
     style="opacity:0.712433;fill:#430000;fill-opacity:1;filter:url(#filter3513)" />
   <path
     d="m -289.56464,7.3026676 c -15.171,8.7530724 -61.067,25.9938464 -75.927,14.6845124 -4.599,-3.407313 -4.749,-9.411315 -8.089,-13.9713298 7.046,-11.174576 23.092,-12.6071608 35.445,-10.9247548 4.302,0.6064125 7.239,4.8025799 12.031,5.9065616 12.232,2.8299251 29.96,-2.87968199 36.54,4.3050106 z"
     id="path3822"
     style="opacity:0.712433;fill:#430000;fill-opacity:1;filter:url(#filter3509)" />
   <path
     d="m -392.98464,7.6758446 c -13.612,18.0171894 -38.23,30.0158644 -61.969,19.3388584 16.845,-8.299041 38.283,-19.1076961 61.969,-19.3388584 z m -32.166,12.0266634 c 4.137,2.454675 20.001,-1.640942 22.331,-8.991491 -8.288,2.449492 -20.935,0.173113 -22.331,8.991491 z"
     id="path3824"
     style="opacity:0.712433;fill:#430000;fill-opacity:1;filter:url(#filter3505)" />
   <path
     d="m -293.37964,38.731422 c -4.948,1.026236 -9.896,2.046253 -14.846,3.045538 -4.657,-4.46361 -21.767,-2.060766 -36.96,0.08811 -10.05,1.44917 -22.356,3.49957 -32.088,4.747639 -8.812,1.206606 -22.16,2.842365 -23.499,3.533779 -2.267,1.242886 -4.721,2.363454 -2.71,6.023697 -16.083,1.178618 -32.165,1.499964 -48.247,0.634401 40.661,-12.882897 117.474,-33.182686 158.371,-22.619705 -0.003,0.758793 -0.007,1.514476 -0.01,2.272233 -0.004,0.759829 -0.007,1.515513 -0.011,2.274306 z"
     id="path3826"
     style="opacity:0.712433;fill:#430000;fill-opacity:1;filter:url(#filter3501)" />
   <path
     d="m -508.63764,48.238104 c -3.299,-0.847941 -6.598,-1.762224 -9.896,-2.744923 0.31,-3.961896 0.621,-7.925864 0.931,-11.887759 3.844,1.729053 4.517,-0.85727 8.716,1.24496 -1.248,4.179581 -3.411,9.81248 0.249,13.387722 z"
     id="path3828"
     style="opacity:0.712433;fill:#430000;fill-opacity:1;filter:url(#filter3497)" />
   <path
     d="m -517.32364,30.038472 c 0.28,-3.565912 0.559,-7.132862 0.838,-10.697738 12.6,-0.609523 27.153,4.933191 36.281,-2.455712 5.1,-4.144337 2.81,-13.9381585 12.045,-14.9654317 3.912,-0.4706176 6.254,5.1197803 9.44,5.8060112 2.521,0.6022661 14.198,0.2975049 19.541,0.057013 18.824,-0.5100084 41.134,-6.3263856 57.516,-11.5944 -10.229,9.573025 -24.418,9.8000409 -36.884,12.862165 -25.646,6.3543745 -49.404,19.3430045 -72.596,22.6497665 -10.144,-1.913568 -18.453,-2.053509 -26.181,-1.661674 z"
     id="path3830"
     style="opacity:0.712433;fill:#430000;fill-opacity:1;filter:url(#filter3493)" />
   <path
     d="m -392.89364,-280.10888 c 0.212,5.56552 -6.878,13.49449 -8.641,20.94248 -1.274,-6.80426 6.021,-14.47201 8.641,-20.94248 z"
     id="path3832"
     style="opacity:0.712433;fill:#430000;fill-opacity:1;filter:url(#filter3489)" />
   <path
     d="m -491.53664,-299.26322 c -0.776,9.90785 -1.552,19.81466 -2.327,29.72043 2.219,-1.28953 8.062,1.23356 8.783,4.22727 -4.429,11.71464 2.814,20.01576 -0.251,33.95081 7.716,-2.07736 1.028,-17.89177 5.192,-23.92583 16.771,-3.84476 22.394,14.00243 39.724,14.41811 1.298,12.72844 12.63,16.51515 20.108,23.24685 4.929,-12.92126 9.841,-25.84562 12.131,-41.74606 -12.548,-6.52438 -34.106,0.53281 -43.895,-10.82214 14.682,0.71319 32.883,4.41075 47.596,2.74078 3.127,-4.62636 5.921,-9.64559 8.388,-15.03074 -31.815,-0.50171 -63.632,-4.99953 -95.449,-16.77948 z m 10.635,38.89333 c 0.022,-0.002 0.046,10e-4 0.068,-10e-4 -0.023,10e-4 -0.045,0 -0.068,10e-4 z"
     id="path3834"
     style="opacity:0.712433;fill:#430000;fill-opacity:1;filter:url(#filter3485)" />
   <path
     d="m -497.68064,-220.8007 c 1.179,-15.05769 2.358,-30.11641 3.538,-45.17514 1.368,-0.53178 3.098,-0.4955 5.644,0.75361 -3.438,8.16428 -2.94,29.35659 0.208,42.66553 -0.494,4.36513 -6.26,5.59869 -9.39,1.756 z"
     id="path3836"
     style="opacity:0.712433;fill:#430000;fill-opacity:1;filter:url(#filter3481)" />
   <path
     d="m -508.38664,-84.087327 c 1.241,-15.850691 2.482,-31.702413 3.724,-47.553113 14.43,-4.08214 14.472,-27.34039 10.599,-45.30057 4.459,0.36178 7.886,-0.8697 11.8,-1.45642 31.234,42.42192 45.108,104.852351 107.803,103.234214 -1.013,-8.587216 -13.599,-7.75275 -19.559,-12.453743 -8.54,-6.63944 -16.361,-21.874391 -22.969,-35.792851 -10.971,-22.84465 -24.668,-46.55797 -15.536,-77.42696 30.768,11.93026 23.113,62.47708 43.037,87.37316 10.876,13.25608 28.907,18.112559 53.293,13.945416 3.871,3.360666 1.098,9.744065 -0.3,14.952993 10.496,-4.867886 16.395,-13.573275 27.321,-18.158169 -15.639,25.313837 -38.911,52.708133 -72.188,56.008676 -12.343,1.176544 -29.352,-5.065877 -46.011,-9.92547 -24.95,-7.288353 -45.255,-16.411492 -66.45,-28.038027 -4.874,-0.143051 -8.752,0.989956 -13.378,0.972333 -0.396,-0.127502 -0.791,-0.255004 -1.186,-0.381469 z"
     id="path3838"
     style="opacity:0.712433;fill:#430000;fill-opacity:1;filter:url(#filter3477)" />
   <path
     d="m -486.96764,25.293942 c -2.754,3.501644 -11.031,-0.0311 -15.062,1.611917 -1.864,-4.184764 9.33,-2.560408 15.062,-1.611917 z"
     id="path3840"
     style="opacity:0.712433;fill:#430000;fill-opacity:1;filter:url(#filter3473)" />
   <path
     d="m -291.46964,-121.72429 c 3.386,-11.72813 6.455,-23.65942 10.533,-34.70131 8.491,-5.6101 17.303,-2.91078 18.519,2.52827 2.682,11.86703 -21.614,25.8425 -29.052,32.17304 z"
     id="path3842"
     style="opacity:0.712433;fill:#430000;fill-opacity:1;filter:url(#filter3469)" />
   <path
     d="m -323.94864,-132.28624 c 0.506,7.56927 -4.95,19.72137 -10.935,25.69531 -10.648,-5.46497 -0.296,-24.41199 10.935,-25.69531 z"
     id="path3844"
     style="opacity:0.712433;fill:#430000;fill-opacity:1;filter:url(#filter3465)" />
   <path
     d="m -373.76664,-96.064234 c 2.928,-0.452995 3.578,1.476122 5.802,1.746676 -0.562,3.927687 -6.298,1.923934 -5.802,-1.746676 z"
     id="path3846"
     style="opacity:0.712433;fill:#430000;fill-opacity:1;filter:url(#filter3461)" />
   <path
     d="m -518.48064,45.50873 c 0,0 0.661,-8.445202 0.88,-11.902271"
     id="path3848"
     style="opacity:0.712433;fill:#430000;fill-opacity:1;filter:url(#filter3457)" />
  </g>
 </g>
 <path
   style="display:inline;mix-blend-mode:normal;fill:url(#linearGradient3403);fill-opacity:1;stroke:url(#linearGradient20558);stroke-width:1.16242;stroke-linecap:butt;stroke-linejoin:round;stroke-miterlimit:4;stroke-dasharray:none;stroke-opacity:1"
   d="M 4.7043071,3.9814882 4.6913695,60.80196 H 58.59546 l 1.022155,-2.866369 c 0,0 -23.87537,0.766388 -32.844441,-4.140386 C 16.257548,48.042344 11.401114,4.0978197 11.401114,4.0978197 Z"
   id="path1686"
   transform="matrix(0.5,0,0,0.5,0.06630362,0.01654936)" />
 <rect
   style="display:inline;fill:none;fill-opacity:1;stroke:url(#linearGradient4557);stroke-width:3.71366;stroke-linejoin:round;stroke-miterlimit:7.8;stroke-dasharray:none;stroke-opacity:0.995146"
   id="rect4539"
   width="62.566689"
   height="62.866646"
   x="1.0323594"
   y="0.59551275"
   ry="6.2447233"
   rx="5.8029528"
   transform="matrix(0.46839137,0,0,0.46743669,0.90638486,1.0268972)" />
</svg>
