<?xml version="1.0" encoding="UTF-8" standalone="no"?>
<!-- Created with Inkscape (http://www.inkscape.org/) -->

<svg
  width="32"
  height="32"
  version="1.1"
  viewBox="0 0 32 32"
  id="svg22"
  xmlns:xlink="http://www.w3.org/1999/xlink"
  xmlns="http://www.w3.org/2000/svg"
  xmlns:svg="http://www.w3.org/2000/svg">
 <defs
   id="defs12">
  <linearGradient
    xlink:href="#linearGradient3487"
    id="linearGradient3403"
    gradientUnits="userSpaceOnUse"
    x1="6.9491749"
    y1="4.5549412"
    x2="11.215498"
    y2="59.052471" />
  <linearGradient
    id="linearGradient3487">
   <stop
     style="stop-color:#32373c;stop-opacity:1"
     offset="0"
     id="stop3481" />
   <stop
     id="stop3483"
     offset="0.36804965"
     style="stop-color:#1a1a1a;stop-opacity:1" />
   <stop
     style="stop-color:#31363b;stop-opacity:1"
     offset="1"
     id="stop3485" />
  </linearGradient>
  <linearGradient
    xlink:href="#linearGradient20604"
    id="linearGradient20558"
    gradientUnits="userSpaceOnUse"
    x1="25.802212"
    y1="20.373846"
    x2="25.111048"
    y2="58.912758" />
  <linearGradient
    id="linearGradient20604">
   <stop
     id="stop20598"
     offset="0"
     style="stop-color:#3d3d3d;stop-opacity:1" />
   <stop
     style="stop-color:#000000;stop-opacity:1"
     offset="0.61772454"
     id="stop20600" />
   <stop
     id="stop20602"
     offset="1"
     style="stop-color:#3d3d3d;stop-opacity:1" />
  </linearGradient>
  <filter
    style="color-interpolation-filters:sRGB"
    id="filter20720"
    x="-0.010590121"
    y="-0.01023706"
    width="1.0211798"
    height="1.0204741">
   <feGaussianBlur
     stdDeviation="0.00019398128"
     id="feGaussianBlur20722" />
  </filter>
  <linearGradient
    gradientTransform="translate(0.36067797,-0.13016949)"
    xlink:href="#linearGradient4555"
    id="linearGradient4557"
    x1="43.499737"
    y1="64.011795"
    x2="44.141731"
    y2="0.30621234"
    gradientUnits="userSpaceOnUse" />
  <linearGradient
    id="linearGradient4555">
   <stop
     style="stop-color:#141618;stop-opacity:1"
     offset="0"
     id="stop4551" />
   <stop
     id="stop4559"
     offset="0.51820582"
     style="stop-color:#686868;stop-opacity:1" />
   <stop
     style="stop-color:#31363b;stop-opacity:1"
     offset="1"
     id="stop4553" />
  </linearGradient>
  <filter
    style="color-interpolation-filters:sRGB"
    id="filter4601"
    x="-0.029685565"
    width="1.0593711"
    y="-0.029543925"
    height="1.0590879">
   <feGaussianBlur
     stdDeviation="0.00020728314"
     id="feGaussianBlur4603" />
  </filter>
  <linearGradient
    xlink:href="#linearGradient1"
    id="linearGradient24"
    x1="-9.7863646"
    y1="-1.8894"
    x2="-4.9803853"
    y2="2.7576001"
    gradientUnits="userSpaceOnUse" />
  <linearGradient
    id="linearGradient1">
   <stop
     style="stop-color:#ffff00;stop-opacity:1"
     offset="0"
     id="stop23" />
   <stop
     style="stop-color:#ffe680;stop-opacity:1"
     offset="1"
     id="stop24" />
  </linearGradient>
  <linearGradient
    id="sunrise"
    x1="0"
    x2="0"
    y1="0"
    y2="1">
   <stop
     offset="0%"
     style="stop-color: #FF8501; stop-opacity:1"
     id="stop11" />
   <stop
     offset="100%"
     style="stop-color: #FFCB01; stop-opacity:1"
     id="stop12" />
  </linearGradient>
 </defs>
 <rect
   style="fill:#c2352a;fill-opacity:1;stroke-width:0.681525"
   width="27.195942"
   x="2.9220245"
   y="1.8862323"
   rx="0"
   height="27.326124"
   id="rect8656" />
 <path
   opacity="0.2"
   d="m 18.152204,6.2173498 c -0.172932,0.1525292 -0.216163,0.3813271 -0.216163,0.6482552 0,0.4957176 0.172932,1.1058172 0.259394,1.3345985 0,0 0.129701,2.6692815 0.172931,2.9743225 -0.389094,0.03817 -1.080811,0.07626 -1.340229,0.152529 h -0.345863 c -0.734966,0.03817 -1.426675,0.07626 -1.729315,0.343198 l -0.129701,0.114398 0.129701,0.152529 c 0.216162,0.22879 0.302623,0.877037 0.389093,1.563464 0.216163,1.410942 0.475548,3.165015 1.772538,3.851359 l 0.259401,0.114399 v -0.266928 c 0,0 0.04331,-0.114399 0.04331,-0.266928 0,-0.114399 -0.04331,-0.305059 -0.08645,-0.571987 0.345854,0.03817 1.080811,0.114399 1.34023,0.114399 0.04388,0.306367 1.168332,12.737398 1.168332,12.737398 h 0.432325 c 0,0 0.475564,-12.278676 0.475564,-12.659564 0.302615,0 1.64287,0.03817 2.031956,0.07626 -0.08645,0.228797 -0.432317,1.182078 -0.432317,1.182078 l 0.605248,-0.495718 c 0.172931,-0.114399 3.934161,-3.126844 3.415408,-5.109781 -0.17294,-0.648247 -0.778188,-1.105818 -1.772538,-1.334599 h -0.08661 c -0.562018,0 -2.291291,0.03817 -3.588299,0.114399 0.04331,-0.9914682 0.04331,-1.5252916 0.04331,-1.7922445 V 8.8500402 c 0,-0.1906675 0.216163,-0.4575952 0.389094,-0.6482547 0.17294,-0.2287979 0.389094,-0.4194574 0.389094,-0.6482473 0,-0.07626 -0.04331,-0.152537 -0.08644,-0.2287979 -0.2594,-0.3431879 -2.161622,-1.2202493 -2.983016,-1.2965097 -0.259401,0.038172 -0.432333,0.07626 -0.518794,0.1906594 z m 0.0433,6.2536872 h 0.216163 c 0,0.343189 0.129701,2.745541 0.172932,3.088755 -0.345864,-0.03817 -1.167258,-0.1144 -1.426675,-0.1144 -0.129701,-0.495725 -0.172932,-1.029557 -0.216163,-1.563462 -0.04314,-0.457588 -0.08645,-0.915209 -0.172931,-1.3346 0.389094,0 1.426674,-0.07626 1.426674,-0.07626 z m 2.637238,1.182078 c 0,0 0.04314,-0.915208 0.04314,-1.22025 0.562018,0.07626 1.297007,0.114399 1.988733,0.114399 h 0.778196 c 0,0.152529 -0.0433,0.343188 -0.0433,0.343188 -0.08645,0.838949 -0.216163,1.830334 -0.605265,2.821802 -0.259384,0 -1.858983,-0.07626 -2.204846,-0.114398 0,-0.266929 0.04331,-1.944766 0.04331,-1.944766 z"
   id="path1"
   style="stroke-width:0.828018" />
 <path
   fill="#ffffff"
   d="m 18.152204,5.3893321 c -0.172932,0.1525291 -0.216163,0.381327 -0.216163,0.6482551 0,0.4957177 0.172932,1.1058176 0.259394,1.3345988 0,0 0.129701,2.669281 0.172931,2.974323 -0.389094,0.03817 -1.080811,0.07626 -1.340229,0.152529 h -0.345863 c -0.734966,0.03817 -1.426675,0.07626 -1.729315,0.343197 l -0.129701,0.114399 0.129701,0.152529 c 0.216162,0.228789 0.302623,0.877036 0.389093,1.563463 0.216163,1.410942 0.475548,3.165015 1.772538,3.851359 l 0.259401,0.114399 v -0.266928 c 0,0 0.04331,-0.114399 0.04331,-0.266928 0,-0.114399 -0.04331,-0.305058 -0.08645,-0.571987 0.345854,0.03817 1.080811,0.1144 1.34023,0.1144 0.0433,0.305058 1.167256,12.736569 1.167256,12.736569 h 0.432325 c 0,0 0.475563,-12.278676 0.475563,-12.659564 0.302616,0 1.642871,0.03817 2.031956,0.07626 -0.08644,0.228797 -0.432316,1.182078 -0.432316,1.182078 l 0.605247,-0.495718 c 0.172932,-0.114399 3.934162,-3.126843 3.415408,-5.109781 -0.172939,-0.648247 -0.778187,-1.105817 -1.772537,-1.334598 h -0.08661 c -0.562017,0 -2.291291,0.03817 -3.588298,0.114398 0.04331,-0.9914682 0.04331,-1.5252916 0.04331,-1.7922446 V 8.0211948 c 0,-0.1906681 0.216162,-0.4575958 0.389094,-0.6482553 0.172939,-0.2287972 0.389093,-0.4194567 0.389093,-0.6482467 0,-0.07626 -0.0433,-0.1525373 -0.08644,-0.2287977 -0.259402,-0.3431886 -2.161623,-1.2202499 -2.983017,-1.2965103 -0.259402,0.038172 -0.432333,0.07626 -0.518795,0.1906594 z m 0.0433,6.2536869 h 0.216163 c 0,0.343188 0.129701,2.745541 0.172932,3.088755 -0.345864,-0.03817 -1.167258,-0.114399 -1.426675,-0.114399 -0.129701,-0.495726 -0.172932,-1.029558 -0.216163,-1.563464 -0.04314,-0.457587 -0.08645,-0.915208 -0.172931,-1.334599 0.389094,0 1.426674,-0.07626 1.426674,-0.07626 z m 2.637238,1.182078 c 0,0 0.04314,-0.915208 0.04314,-1.22025 0.562018,0.07626 1.297007,0.114399 1.988733,0.114399 h 0.778196 c 0,0.15253 -0.0433,0.343189 -0.0433,0.343189 -0.08645,0.838947 -0.216163,1.830333 -0.605265,2.821802 -0.259384,0 -1.858983,-0.07626 -2.204846,-0.114399 0,-0.266928 0.04331,-1.944766 0.04331,-1.944766 z"
   id="path2"
   style="stroke-width:0.828018" />
 <path
   style="display:inline;mix-blend-mode:normal;fill:url(#linearGradient3403);fill-opacity:1;stroke:url(#linearGradient20558);stroke-width:1.16242;stroke-linecap:butt;stroke-linejoin:round;stroke-miterlimit:4;stroke-dasharray:none;stroke-opacity:1"
   d="M 4.7043071,3.9814882 4.6913695,60.80196 H 58.59546 l 1.022155,-2.866369 c 0,0 -23.87537,0.766388 -32.844441,-4.140386 C 16.257548,48.042344 11.401114,4.0978197 11.401114,4.0978197 Z"
   id="path1686"
   transform="matrix(0.5,0,0,0.5,0.06630362,0.01654936)" />
 <rect
   style="display:inline;fill:none;fill-opacity:1;stroke:url(#linearGradient4557);stroke-width:3.71366;stroke-linejoin:round;stroke-miterlimit:7.8;stroke-dasharray:none;stroke-opacity:0.995146"
   id="rect4539"
   width="62.566689"
   height="62.866646"
   x="1.0323594"
   y="0.59551275"
   ry="6.2447233"
   rx="5.8029528"
   transform="matrix(0.46839137,0,0,0.46743669,0.90638486,1.0268972)" />
</svg>
