<?xml version="1.0" encoding="UTF-8" standalone="no"?>
<!-- Created with Inkscape (http://www.inkscape.org/) -->

<svg
  width="32"
  height="32"
  version="1.1"
  viewBox="0 0 32 32"
  id="svg22"
  xmlns:xlink="http://www.w3.org/1999/xlink"
  xmlns="http://www.w3.org/2000/svg"
  xmlns:svg="http://www.w3.org/2000/svg">
 <defs
   id="defs12">
  <linearGradient
    xlink:href="#linearGradient3487"
    id="linearGradient3403"
    gradientUnits="userSpaceOnUse"
    x1="6.9491749"
    y1="4.5549412"
    x2="11.215498"
    y2="59.052471" />
  <linearGradient
    id="linearGradient3487">
   <stop
     style="stop-color:#32373c;stop-opacity:1"
     offset="0"
     id="stop3481" />
   <stop
     id="stop3483"
     offset="0.36804965"
     style="stop-color:#1a1a1a;stop-opacity:1" />
   <stop
     style="stop-color:#31363b;stop-opacity:1"
     offset="1"
     id="stop3485" />
  </linearGradient>
  <linearGradient
    xlink:href="#linearGradient20604"
    id="linearGradient20558"
    gradientUnits="userSpaceOnUse"
    x1="25.802212"
    y1="20.373846"
    x2="25.111048"
    y2="58.912758" />
  <linearGradient
    id="linearGradient20604">
   <stop
     id="stop20598"
     offset="0"
     style="stop-color:#3d3d3d;stop-opacity:1" />
   <stop
     style="stop-color:#000000;stop-opacity:1"
     offset="0.61772454"
     id="stop20600" />
   <stop
     id="stop20602"
     offset="1"
     style="stop-color:#3d3d3d;stop-opacity:1" />
  </linearGradient>
  <filter
    style="color-interpolation-filters:sRGB"
    id="filter20720"
    x="-0.010581901"
    y="-0.010229114"
    width="1.0211633"
    height="1.0204582">
   <feGaussianBlur
     stdDeviation="5.8752151e-06"
     id="feGaussianBlur20722" />
  </filter>
  <linearGradient
    gradientTransform="translate(0.36067797,-0.13016949)"
    xlink:href="#linearGradient4555"
    id="linearGradient4557"
    x1="43.499737"
    y1="64.011795"
    x2="44.141731"
    y2="0.30621234"
    gradientUnits="userSpaceOnUse" />
  <linearGradient
    id="linearGradient4555">
   <stop
     style="stop-color:#141618;stop-opacity:1"
     offset="0"
     id="stop4551" />
   <stop
     id="stop4559"
     offset="0.51820582"
     style="stop-color:#686868;stop-opacity:1" />
   <stop
     style="stop-color:#31363b;stop-opacity:1"
     offset="1"
     id="stop4553" />
  </linearGradient>
  <filter
    style="color-interpolation-filters:sRGB"
    id="filter4601"
    x="-0.029677854"
    width="1.0593557"
    y="-0.029536252"
    height="1.0590725">
   <feGaussianBlur
     stdDeviation="6.2780957e-06"
     id="feGaussianBlur4603" />
  </filter>
 </defs>
 <rect
   style="fill:#222222;fill-opacity:1;stroke-width:0.681525"
   width="27.195942"
   x="2.9220245"
   y="1.8862323"
   rx="0"
   height="27.326124"
   id="rect8656" />
 <g
   class="ColorScheme-Text"
   id="g22"
   transform="matrix(1.5539411,0,0,1.5026413,-494.47699,282.31711)"
   style="color:#d5c289">
  <path
    class="ColorScheme-Text"
    d="m 330.97,-185 c -0.56912,0 -0.93191,0.41811 -0.96875,0.96875 v 1 0.125 c 0.0521,0.50391 0.4829,0.90625 1,0.90625 0.12928,0 0.26142,-0.0169 0.375,-0.0625 0.34175,-0.13678 0.58591,-0.46581 0.625,-0.84375 v -0.125 V -184 c 0,-0.55187 -0.46213,-1 -1.0312,-1 z m -1.9375,2.3438 c -0.65858,0.23314 -1.2784,0.60022 -1.8125,1.0312 0.23112,0.16706 0.42497,0.36936 0.5625,0.625 0.004,0.007 -0.004,0.0239 0,0.0312 0.0623,0.12037 0.12161,0.241 0.15625,0.375 0.003,0.01 -0.002,0.0216 0,0.0312 0.0326,0.13504 0.0625,0.29248 0.0625,0.4375 0,0.12728 -0.007,0.25498 -0.0312,0.375 -0.0241,0.12002 -0.0791,0.23346 -0.125,0.34375 -0.27515,0.66175 -0.90548,1.125 -1.6562,1.125 -0.35885,0 -0.65601,-0.0982 -0.9375,-0.28125 -0.0403,0.11408 -0.1,0.22149 -0.125,0.34375 -0.002,0.009 0.002,0.0219 0,0.0312 -0.037,0.1856 -0.0743,0.37116 -0.0937,0.5625 -10e-4,0.0108 0.001,0.0204 0,0.0312 -0.0186,0.19192 -0.0313,0.39697 -0.0313,0.59375 0,0.0103 -5e-5,0.0209 0,0.0312 -5e-5,0.0103 0,0.0209 0,0.0312 0.002,0.186 0.0128,0.38092 0.0312,0.5625 0.002,0.0208 -0.002,0.0417 0,0.0625 0.0202,0.18044 0.0579,0.35601 0.0937,0.53125 0.0333,0.17288 0.0761,0.3338 0.125,0.5 0.37098,-0.21511 0.79417,-0.29869 1.0625,-0.3125 0.36227,-0.0186 0.70042,0.0872 0.96875,0.28125 0.26833,0.1941 0.46966,0.45035 0.59375,0.78125 0.0414,0.10918 0.0721,0.22453 0.0937,0.34375 0.025,0.12858 0.0312,0.23843 0.0312,0.375 0,0.50655 -0.41487,1.1735 -0.71875,1.5 0.12312,0.0962 0.24313,0.19309 0.375,0.28125 0.15756,0.10534 0.30107,0.22204 0.46875,0.3125 0.23804,0.12931 0.49388,0.2471 0.75,0.34375 0.0489,0.0183 0.1032,0.0226 0.15625,0.0312 -0.0141,-0.0688 -0.0312,-0.14701 -0.0312,-0.21875 0,-0.79471 0.89543,-1.4375 2,-1.4375 1.10457,0 2,0.64279 2,1.4375 0,0.0717 -0.0172,0.14996 -0.0312,0.21875 0.30066,-0.10342 0.59888,-0.22667 0.875,-0.375 0.21316,-0.11255 0.39696,-0.23857 0.59375,-0.375 0.061,-0.0429 0.12821,-0.0799 0.1875,-0.125 0.0468,-0.0352 0.0796,-0.0875 0.125,-0.125 -0.14238,-0.11092 -0.25033,-0.22403 -0.34375,-0.34375 -0.18962,-0.2371 -0.30041,-0.49522 -0.34375,-0.75 -0.0222,-0.12758 -0.0312,-0.24836 -0.0312,-0.375 0,-0.24256 0.0553,-0.48133 0.125,-0.6875 0.003,-0.009 -0.003,-0.0222 0,-0.0312 0.0379,-0.10666 0.0703,-0.18709 0.125,-0.28125 0.0556,-0.0932 0.11637,-0.17099 0.1875,-0.25 0.0743,-0.0874 0.15935,-0.14968 0.25,-0.21875 0.16836,-0.12827 0.34648,-0.22642 0.5625,-0.28125 0.10801,-0.0274 0.22594,-0.0559 0.34375,-0.0625 0.28125,-0.0156 0.75402,0.0974 1.125,0.3125 0.0452,-0.15684 0.0937,-0.30597 0.125,-0.46875 0.0359,-0.17524 0.0735,-0.35081 0.0937,-0.53125 0.002,-0.0208 -0.002,-0.0417 0,-0.0625 0.0184,-0.18158 0.0294,-0.3765 0.0312,-0.5625 0,-0.22888 -0.005,-0.46609 -0.0312,-0.6875 -0.0194,-0.19134 -0.0568,-0.3769 -0.0937,-0.5625 -0.002,-0.009 0.002,-0.0219 0,-0.0312 -0.0271,-0.13223 -0.0812,-0.25162 -0.125,-0.375 -0.28149,0.18314 -0.57865,0.28125 -0.9375,0.28125 -0.50051,0 -0.95325,-0.1976 -1.2812,-0.53125 -0.082,-0.0834 -0.15361,-0.18316 -0.21875,-0.28125 -0.19538,-0.29426 -0.31245,-0.6494 -0.31245,-1.0312 0,-0.31038 0.0867,-0.5964 0.21875,-0.84375 0.0661,-0.12481 0.12769,-0.23753 0.21875,-0.34375 0.0928,-0.10468 0.19694,-0.19772 0.3125,-0.28125 -0.53426,-0.43251 -1.1219,-0.80164 -1.7812,-1.0312 0.014,0.0688 0.0312,0.14705 0.0312,0.21875 0,0.79471 -0.89543,1.4375 -2,1.4375 -0.69036,0 -1.2968,-0.24266 -1.6562,-0.625 -0.0719,-0.0765 -0.1369,-0.16399 -0.1875,-0.25 -0.10116,-0.17202 -0.1562,-0.36382 -0.1562,-0.5625 0,-0.0717 0.0171,-0.14995 0.0312,-0.21875 z m -4.3438,0.6875 c -0.24763,0.0619 -0.47499,0.22695 -0.625,0.46875 -0.30004,0.48362 -0.15645,1.1153 0.3125,1.4062 l 0.8125,0.5 0.3125,0.1875 c 0.12661,0.0462 0.26354,0.0937 0.40625,0.0937 0.15317,0 0.30624,-0.0409 0.4375,-0.0937 0.13126,-0.0529 0.24532,-0.1249 0.34375,-0.21875 0.19685,-0.1877 0.3125,-0.43829 0.3125,-0.71875 0,-0.29531 -0.12807,-0.59978 -0.34375,-0.78125 l -0.375,-0.21875 -0.84375,-0.5 c -0.23448,-0.14548 -0.50237,-0.18686 -0.75,-0.125 z m 12.25,0 c -0.12745,0.0192 -0.25776,0.0523 -0.375,0.125 l -0.84375,0.5 -0.375,0.21875 c -0.0111,0.009 -0.0206,0.0215 -0.0312,0.0312 -0.21573,0.18147 -0.31255,0.42344 -0.31255,0.71875 0,0.28046 0.11565,0.53105 0.3125,0.71875 0.0984,0.0939 0.21249,0.16589 0.34375,0.21875 0.13126,0.0529 0.28433,0.0937 0.4375,0.0937 0.14271,0 0.27964,-0.0163 0.40625,-0.0625 l 0.3125,-0.1875 0.8125,-0.5 c 0.46895,-0.29093 0.61254,-0.92263 0.3125,-1.4062 -0.22501,-0.36271 -0.61765,-0.52633 -1,-0.46875 z m -5.94,2.97 c 1.1046,0 2,0.89543 2,2 0,1.10457 -0.89543,2 -2,2 -0.55228,0 -1.0443,-0.23182 -1.4062,-0.59375 -0.0905,-0.0905 -0.17812,-0.17485 -0.25,-0.28125 -0.21565,-0.3192 -0.34375,-0.71079 -0.34375,-1.125 0,-0.13807 0.005,-0.27605 0.0312,-0.40625 0.18654,-0.91137 1.0023,-1.5938 1.9688,-1.5938 z m 0,1 c -0.41511,0 -0.75472,0.26608 -0.90625,0.625 -0.0506,0.11964 -0.0937,0.23693 -0.0937,0.375 0,0.55231 0.44651,1 1,1 0.55349,0 1,-0.44769 1,-1 0,-0.55231 -0.44651,-1 -1,-1 z m -5.0938,3.3438 c -0.2334,0.0254 -0.29465,0.0845 -0.40625,0.125 l -0.21875,0.125 -0.8125,0.5 c -0.46895,0.29093 -0.61254,0.92263 -0.3125,1.4062 0.30002,0.48361 0.9373,0.63471 1.4062,0.34375 l 0.8125,-0.5 0.28125,-0.1875 c 0.13602,-0.14307 0.26258,-0.30302 0.3125,-0.5 0.0187,-0.0631 0.0312,-0.11894 0.0312,-0.1875 0,-0.15445 -0.0329,-0.29188 -0.0937,-0.4375 -0.0516,-0.12933 -0.12846,-0.23976 -0.21875,-0.34375 -0.0977,-0.1089 -0.21341,-0.22396 -0.34375,-0.28125 -0.13034,-0.0573 -0.2853,-0.0791 -0.4375,-0.0625 z m 10.219,0.0625 c -0.5868,0 -1.0625,0.48088 -1.0625,1.0625 0,0.27422 0.0767,0.474 0.25,0.65625 l 0.3125,0.21875 0.8125,0.5 c 0.46895,0.29096 1.1062,0.13986 1.4062,-0.34375 0.30004,-0.48362 0.15645,-1.1153 -0.3125,-1.4062 l -0.8125,-0.5 c -0.0715,-0.0421 -0.13904,-0.0884 -0.21875,-0.125 -0.1116,-0.0401 -0.24973,-0.0625 -0.375,-0.0625 z m -5.13,2.6 c -0.12928,0 -0.25474,0.0162 -0.375,0.0625 -0.12026,0.0463 -0.24587,0.13599 -0.34375,0.21875 -0.19575,0.16553 -0.31769,0.37305 -0.34375,0.625 v 0.125 0.96875 c 0,0.55187 0.46213,1 1.0312,1 0.56912,0 1.0312,-0.44813 1.0312,-1 v -0.96875 -0.125 c -0.0522,-0.50391 -0.4829,-0.90625 -1,-0.90625 z"
    id="path22"
    style="color:#d5c289;display:inline;fill:#bcbcbc;fill-opacity:1" />
  <path
    class="ColorScheme-Text"
    d="m 330.94438,-185.1901 c -0.56912,0 -0.9319,0.4181 -0.96874,0.96873 v 1 0.12499 c 0.052,0.50391 0.4829,0.90625 1,0.90625 0.12927,0 0.26142,-0.0169 0.375,-0.0626 0.34174,-0.13678 0.58591,-0.46581 0.625,-0.84374 v -0.125 -0.96874 c 0,-0.55187 -0.46214,-0.99999 -1.0312,-0.99999 z m -1.9375,2.34377 c -0.65857,0.23315 -1.27839,0.60022 -1.8125,1.03119 0.23113,0.16706 0.42498,0.36935 0.5625,0.62499 0.004,0.007 -0.004,0.0239 0,0.0312 0.0623,0.1203 0.12162,0.241 0.15626,0.37499 0.004,0.01 -0.002,0.0215 0,0.0311 0.0326,0.13504 0.0625,0.29248 0.0625,0.4375 0,0.12728 -0.007,0.25497 -0.0312,0.37499 -0.0241,0.12006 -0.0791,0.23346 -0.125,0.34376 -0.27516,0.66174 -0.90549,1.12499 -1.65621,1.12499 -0.35884,0 -0.65601,-0.0981 -0.9375,-0.28125 -0.0402,0.11402 -0.10002,0.22149 -0.125,0.34374 -0.002,0.009 0.002,0.0219 0,0.0312 -0.037,0.1856 -0.0743,0.37116 -0.0937,0.5625 -10e-4,0.0111 0.001,0.0204 0,0.0312 -0.0186,0.19192 -0.0313,0.39697 -0.0313,0.59375 0,0.01 -4e-5,0.0209 0,0.0311 -4e-5,0.01 0,0.0209 0,0.0311 0.002,0.18601 0.0129,0.38092 0.0312,0.56251 0.002,0.0208 -0.002,0.0417 0,0.0624 0.0202,0.18044 0.0579,0.35601 0.0937,0.53125 0.0333,0.17288 0.0761,0.33379 0.125,0.49999 0.37097,-0.21511 0.79417,-0.29868 1.0625,-0.3125 0.36227,-0.0186 0.70042,0.0872 0.96874,0.28125 0.26834,0.1941 0.46966,0.45034 0.59376,0.78124 0.0414,0.10922 0.072,0.22454 0.0937,0.34375 0.025,0.12858 0.0312,0.23843 0.0312,0.375 0,0.50655 -0.41487,1.17349 -0.71875,1.49998 0.12312,0.0962 0.24313,0.19309 0.375,0.28125 0.15756,0.10528 0.30107,0.22204 0.46875,0.31249 0.23804,0.12932 0.49388,0.24711 0.74999,0.34376 0.0489,0.0183 0.10324,0.0225 0.15626,0.0311 -0.014,-0.0688 -0.0312,-0.14701 -0.0312,-0.21875 0,-0.79471 0.89542,-1.43749 2,-1.43749 1.10457,0 2,0.64278 2,1.43749 0,0.0717 -0.0173,0.14996 -0.0312,0.21875 0.30067,-0.10343 0.59889,-0.22668 0.875,-0.37501 0.21316,-0.11254 0.39696,-0.23856 0.59376,-0.37499 0.061,-0.0428 0.1282,-0.0799 0.1875,-0.12499 0.0468,-0.0352 0.0795,-0.0875 0.125,-0.12501 -0.14238,-0.11094 -0.25033,-0.22403 -0.34376,-0.34374 -0.18962,-0.23709 -0.3004,-0.49522 -0.34374,-0.75 -0.0222,-0.12758 -0.0312,-0.24835 -0.0312,-0.37499 0,-0.24256 0.0553,-0.48133 0.125,-0.6875 0.004,-0.009 -0.004,-0.0222 0,-0.0311 0.0379,-0.10663 0.0703,-0.18709 0.125,-0.28124 0.0556,-0.0932 0.11634,-0.17099 0.1875,-0.25 0.0743,-0.0874 0.15936,-0.14968 0.25,-0.21875 0.16837,-0.12826 0.34649,-0.22641 0.5625,-0.28125 0.108,-0.0275 0.22595,-0.0559 0.34376,-0.0626 0.28124,-0.0156 0.75401,0.0974 1.125,0.3125 0.0453,-0.15683 0.0937,-0.30596 0.125,-0.46874 0.0358,-0.17524 0.0735,-0.35081 0.0937,-0.53125 0.002,-0.0208 -0.002,-0.0418 0,-0.0624 0.0183,-0.18159 0.0294,-0.3765 0.0312,-0.5625 0,-0.22887 -0.005,-0.46609 -0.0312,-0.6875 -0.0194,-0.19134 -0.0568,-0.37689 -0.0937,-0.56249 -0.002,-0.009 0.002,-0.0219 0,-0.0311 -0.0272,-0.13222 -0.0812,-0.25162 -0.125,-0.375 -0.28149,0.18314 -0.57866,0.28126 -0.9375,0.28126 -0.50051,0 -0.95325,-0.19761 -1.2812,-0.53125 -0.082,-0.0834 -0.15361,-0.18317 -0.21875,-0.28126 -0.19539,-0.29425 -0.31246,-0.64938 -0.31246,-1.03118 0,-0.31038 0.0867,-0.59639 0.21876,-0.84374 0.0661,-0.12481 0.12769,-0.23753 0.21874,-0.34375 0.0928,-0.10466 0.19695,-0.19772 0.3125,-0.28125 -0.53425,-0.43251 -1.12189,-0.80163 -1.78119,-1.03118 0.014,0.0688 0.0312,0.14704 0.0312,0.21874 0,0.7947 -0.89542,1.43749 -2,1.43749 -0.69035,0 -1.29679,-0.24267 -1.65619,-0.625 -0.0719,-0.0765 -0.1369,-0.16399 -0.1875,-0.25 -0.10121,-0.17202 -0.1562,-0.36381 -0.1562,-0.56249 0,-0.0717 0.0172,-0.14995 0.0312,-0.21874 z m -4.34379,0.6875 c -0.24763,0.0619 -0.47499,0.22695 -0.625,0.46875 -0.30004,0.48361 -0.15644,1.11528 0.3125,1.40618 l 0.8125,0.5 0.3125,0.18749 c 0.12661,0.0462 0.26354,0.0937 0.40625,0.0937 0.15317,0 0.30625,-0.0409 0.4375,-0.0937 0.13126,-0.053 0.24532,-0.12489 0.34375,-0.21875 0.19685,-0.18769 0.3125,-0.43828 0.3125,-0.71874 0,-0.2953 -0.12807,-0.59978 -0.34375,-0.78124 l -0.375,-0.21875 -0.84375,-0.5 c -0.23448,-0.14548 -0.50237,-0.18685 -0.75,-0.12499 z m 12.24999,0 c -0.12744,0.0192 -0.25775,0.0523 -0.375,0.12499 l -0.84374,0.5 -0.375,0.21875 c -0.0107,0.009 -0.0206,0.0216 -0.0312,0.0311 -0.21573,0.18147 -0.31256,0.42344 -0.31256,0.71874 0,0.28046 0.11562,0.53105 0.3125,0.71874 0.0983,0.094 0.21249,0.16589 0.34376,0.21875 0.13126,0.0529 0.28432,0.0937 0.4375,0.0937 0.1427,0 0.27963,-0.0163 0.40624,-0.0626 l 0.3125,-0.18749 0.8125,-0.5 c 0.46896,-0.29093 0.61255,-0.92262 0.3125,-1.40618 -0.22501,-0.36272 -0.61764,-0.52633 -1,-0.46875 z m -5.93999,2.96997 c 1.10459,0 2,0.89542 2,1.99999 0,1.10455 -0.89543,1.99997 -2,1.99997 -0.55228,0 -1.0443,-0.23182 -1.40621,-0.59374 -0.0905,-0.0905 -0.17811,-0.17485 -0.25,-0.28126 -0.21564,-0.31918 -0.34374,-0.71078 -0.34374,-1.12497 0,-0.13807 0.005,-0.27606 0.0312,-0.40626 0.18654,-0.91135 1.00229,-1.59378 1.9688,-1.59378 z m 0,0.99999 c -0.41511,0 -0.75472,0.26608 -0.90625,0.62499 -0.0506,0.11969 -0.0937,0.23694 -0.0937,0.37501 0,0.55229 0.44651,0.99998 1,0.99998 0.55348,0 1,-0.44769 1,-0.99998 0,-0.55231 -0.44652,-1 -1,-1 z m -5.0938,3.34377 c -0.2334,0.0254 -0.29465,0.0845 -0.40625,0.12499 l -0.21875,0.12501 -0.8125,0.49999 c -0.46895,0.29093 -0.61253,0.92263 -0.3125,1.40619 0.30002,0.48361 0.9373,0.63471 1.4062,0.34374 l 0.8125,-0.49999 0.28125,-0.18749 c 0.13601,-0.14307 0.26257,-0.30302 0.3125,-0.5 0.0187,-0.0632 0.0312,-0.11895 0.0312,-0.1875 0,-0.15445 -0.0329,-0.29188 -0.0937,-0.43749 -0.0516,-0.12933 -0.12847,-0.23977 -0.21876,-0.34376 -0.0978,-0.10885 -0.21341,-0.22395 -0.34374,-0.28124 -0.13035,-0.0573 -0.28531,-0.079 -0.4375,-0.0625 z m 10.21899,0.0626 c -0.5868,0 -1.0625,0.48088 -1.0625,1.06249 0,0.27422 0.0767,0.47399 0.25,0.65624 l 0.3125,0.21875 0.8125,0.49999 c 0.46896,0.29097 1.1062,0.13987 1.4062,-0.34374 0.30004,-0.48361 0.15646,-1.11529 -0.3125,-1.40618 l -0.81249,-0.5 c -0.0714,-0.0421 -0.13905,-0.0884 -0.21876,-0.12501 -0.11156,-0.0401 -0.24972,-0.0624 -0.375,-0.0624 z m -5.12999,2.59997 c -0.12928,0 -0.25475,0.0163 -0.375,0.0626 -0.12026,0.0463 -0.24588,0.13599 -0.34375,0.21875 -0.19575,0.16553 -0.31769,0.37305 -0.34375,0.62499 v 0.12501 0.96873 c 0,0.55187 0.46213,1 1.0312,1 0.56912,0 1.0312,-0.44813 1.0312,-1 v -0.96873 -0.12501 c -0.0522,-0.5039 -0.48291,-0.90624 -1,-0.90624 z"
    id="path22-6"
    style="color:#d5c289;fill:#9b9b9b;fill-opacity:1;stroke-width:0.999996" />
 </g>
 <path
   style="display:inline;mix-blend-mode:normal;fill:url(#linearGradient3403);fill-opacity:1;stroke:url(#linearGradient20558);stroke-width:1.16242;stroke-linecap:butt;stroke-linejoin:round;stroke-miterlimit:4;stroke-dasharray:none;stroke-opacity:1"
   d="M 4.7043071,3.9814882 4.6913695,60.80196 H 58.59546 l 1.022155,-2.866369 c 0,0 -23.87537,0.766388 -32.844441,-4.140386 C 16.257548,48.042344 11.401114,4.0978197 11.401114,4.0978197 Z"
   id="path1686"
   transform="matrix(0.5,0,0,0.5,0.06630362,0.01654936)" />
 <rect
   style="display:inline;fill:none;fill-opacity:1;stroke:url(#linearGradient4557);stroke-width:3.71366;stroke-linejoin:round;stroke-miterlimit:7.8;stroke-dasharray:none;stroke-opacity:0.995146"
   id="rect4539"
   width="62.566689"
   height="62.866646"
   x="1.0323594"
   y="0.59551275"
   ry="6.2447233"
   rx="5.8029528"
   transform="matrix(0.46839137,0,0,0.46743669,0.90638486,1.0268972)" />
</svg>
