<?xml version="1.0" encoding="UTF-8" standalone="no"?>
<!-- Created with Inkscape (http://www.inkscape.org/) -->

<svg
  width="32"
  height="32"
  version="1.1"
  viewBox="0 0 32 32"
  id="svg22"
  xmlns:xlink="http://www.w3.org/1999/xlink"
  xmlns="http://www.w3.org/2000/svg"
  xmlns:svg="http://www.w3.org/2000/svg">
 <defs
   id="defs12">
  <linearGradient
    xlink:href="#linearGradient3487"
    id="linearGradient3403"
    gradientUnits="userSpaceOnUse"
    x1="6.9491749"
    y1="4.5549412"
    x2="11.215498"
    y2="59.052471" />
  <linearGradient
    id="linearGradient3487">
   <stop
     style="stop-color:#32373c;stop-opacity:1"
     offset="0"
     id="stop3481" />
   <stop
     id="stop3483"
     offset="0.36804965"
     style="stop-color:#1a1a1a;stop-opacity:1" />
   <stop
     style="stop-color:#31363b;stop-opacity:1"
     offset="1"
     id="stop3485" />
  </linearGradient>
  <linearGradient
    xlink:href="#linearGradient20604"
    id="linearGradient20558"
    gradientUnits="userSpaceOnUse"
    x1="25.802212"
    y1="20.373846"
    x2="25.111048"
    y2="58.912758" />
  <linearGradient
    id="linearGradient20604">
   <stop
     id="stop20598"
     offset="0"
     style="stop-color:#3d3d3d;stop-opacity:1" />
   <stop
     style="stop-color:#000000;stop-opacity:1"
     offset="0.61772454"
     id="stop20600" />
   <stop
     id="stop20602"
     offset="1"
     style="stop-color:#3d3d3d;stop-opacity:1" />
  </linearGradient>
  <filter
    style="color-interpolation-filters:sRGB"
    id="filter20720"
    x="-0.010581673"
    y="-0.010228894"
    width="1.0211629"
    height="1.0204578">
   <feGaussianBlur
     stdDeviation="6.5280377e-07"
     id="feGaussianBlur20722" />
  </filter>
  <linearGradient
    gradientTransform="translate(0.36067797,-0.13016949)"
    xlink:href="#linearGradient4555"
    id="linearGradient4557"
    x1="43.499737"
    y1="64.011795"
    x2="44.141731"
    y2="0.30621234"
    gradientUnits="userSpaceOnUse" />
  <linearGradient
    id="linearGradient4555">
   <stop
     style="stop-color:#141618;stop-opacity:1"
     offset="0"
     id="stop4551" />
   <stop
     id="stop4559"
     offset="0.51820582"
     style="stop-color:#686868;stop-opacity:1" />
   <stop
     style="stop-color:#31363b;stop-opacity:1"
     offset="1"
     id="stop4553" />
  </linearGradient>
  <filter
    style="color-interpolation-filters:sRGB"
    id="filter4601"
    x="-0.02967745"
    width="1.0593549"
    y="-0.029536039"
    height="1.0590721">
   <feGaussianBlur
     stdDeviation="6.9756842e-07"
     id="feGaussianBlur4603" />
  </filter>
 </defs>
 <rect
   style="fill:#f9e6fb;fill-opacity:1;stroke-width:0.699873"
   width="27.994946"
   height="27.994947"
   x="2.4121892"
   y="1.5397409"
   rx="1.3997473"
   ry="1.3997474"
   id="rect2" />
 <path
   fill="#f65e5e"
   d="m 18.527883,28.504714 c 6.799625,0 12.31314,-5.955208 12.31314,-13.3 0,-7.3447917 -5.513315,-13.2999998 -12.31314,-13.2999998 -3.483336,0 -6.306793,2.312604 -6.306793,5.9850001 0,3.6723957 3.057404,5.7475947 5.985,6.6499997 2.862559,0.882322 6.628587,3.642604 6.628587,7.315 0,3.672396 -2.823457,6.65 -6.306794,6.65 z"
   id="path1"
   style="stroke-width:0.665" />
 <path
   fill="#8d62ad"
   d="m 16.552833,1.9047142 c -6.7996246,0 -12.3131398,5.9550751 -12.3131398,13.2999998 0,7.344925 5.5133157,13.3 12.3131398,13.3 3.483337,0 6.306794,-2.312604 6.306794,-5.985 0,-3.672396 -3.057404,-5.747595 -5.985,-6.65 -2.862559,-0.882322 -6.628587,-3.642604 -6.628587,-7.3149997 0,-3.6723961 2.823457,-6.6500001 6.306793,-6.6500001 z"
   id="path2"
   style="stroke-width:0.665" />
 <circle
   cx="16.21369"
   cy="23.184713"
   r="2.6600001"
   id="circle2"
   style="fill:#714a8e;fill-opacity:1;stroke-width:0.665" />
 <circle
   cx="-18.87369"
   cy="-8.5547199"
   r="2.6600001"
   transform="scale(-1)"
   id="circle3"
   style="fill:#f44343;fill-opacity:1;stroke-width:0.665" />
 <circle
   cx="16.21369"
   cy="22.519714"
   r="2.6600001"
   id="circle4"
   style="fill:#f9e6fb;fill-opacity:1;stroke-width:0.665" />
 <circle
   cx="-18.87369"
   cy="-7.8897204"
   r="2.6600001"
   transform="scale(-1)"
   id="circle5"
   style="fill:#f9e6fb;fill-opacity:1;stroke-width:0.665" />
 <path
   opacity="0.2"
   d="m 15.374453,2.6320912 c -0.87381,0.089908 -1.720355,0.279034 -2.53099,0.5558735 -1.5694,1.2097015 -2.592835,3.1602795 -2.592835,5.3667496 0,0.096425 0.0133,0.19019 0.01862,0.28595 0.16093,-3.0067976 2.20913,-5.4777381 4.921,-6.1098871 0.06118,-0.033583 0.121695,-0.067098 0.184205,-0.098686 z m -3.134145,5.5768231 c -0.0053,0.115045 -0.01663,0.228095 -0.01663,0.3458 0,3.6721297 3.05767,5.7475947 5.985,6.6499997 2.787015,0.85918 6.41991,3.501225 6.609435,7.02905 0.0073,-0.12635 0.01862,-0.250705 0.01862,-0.37905 0,-3.67213 -3.76523,-6.432545 -6.628055,-7.315 -2.840215,-0.875805 -5.794145,-2.8595 -5.968375,-6.3307997 z M 4.2589782,15.537214 c -0.00253,0.11172 -0.015561,0.220115 -0.015561,0.3325 0,7.344925 5.5128502,13.3 12.3131398,13.3 1.151115,0 2.227085,-0.25669 3.15609,-0.72751 -0.38969,0.04057 -0.78337,0.06251 -1.18237,0.06251 0.470155,0 0.926345,-0.05852 1.366575,-0.16093 1.77954,-0.979545 2.966565,-2.781695 2.966565,-5.15907 0,-0.109725 -0.0113,-0.2128 -0.01662,-0.3192 -0.173565,3.46864 -2.918685,5.6392 -6.290235,5.6392 -6.6965496,0 -12.1322598,-5.77752 -12.2978448,-12.9675 z m 26.5694098,0 c -0.133665,5.799465 -3.69341,10.6799 -8.584485,12.34905 -1.042055,0.803985 -2.322845,1.28345 -3.71336,1.28345 6.80029,0 12.31314,-5.955075 12.31314,-13.3 0,-0.112385 -0.0133,-0.22078 -0.01529,-0.3325 z"
   id="path5"
   style="stroke-width:0.665" />
 <path
   fill="#ffffff"
   opacity="0.2"
   d="m 16.556823,1.9047142 c -6.8002896,0 -12.3131398,5.9550751 -12.3131398,13.2999998 0,0.112385 0.013034,0.22078 0.015561,0.3325 C 4.3923107,9.7377493 7.9526544,4.8573142 12.843729,3.1881642 c 1.042055,-0.8037855 2.322845,-1.28345 3.71336,-1.28345 z m 1.97372,0 c -1.151115,0 -2.227085,0.25669 -3.15609,0.727377 0.38969,-0.0401 0.78337,-0.062377 1.18237,-0.062377 -0.470155,0 -0.926345,0.058387 -1.366575,0.161063 -1.77954,0.979146 -2.966565,2.7816285 -2.966565,5.1589371 0,0.109725 0.01131,0.2128 0.01663,0.3192 0.173565,-3.4687731 2.918685,-5.6392001 6.290235,-5.6392001 6.69655,0 12.132925,5.7775201 12.297845,12.9674998 0.002,-0.11172 0.01529,-0.220115 0.01529,-0.3325 0,-7.3449247 -5.51285,-13.2999998 -12.31314,-13.2999998 z m -8.261295,6.9359501 c -0.0073,0.12635 -0.01862,0.250705 -0.01862,0.37905 0,3.6721297 3.76523,6.4325447 6.628055,7.3149997 2.840215,0.875805 5.794145,2.8595 5.968375,6.3308 0.0053,-0.115045 0.01663,-0.228095 0.01663,-0.3458 0,-3.67213 -3.05767,-5.747595 -5.985,-6.65 -2.787015,-0.85918 -6.41991,-3.501225 -6.609435,-7.0290497 z m 14.54887,13.3930997 c -0.16093,3.006465 -2.20913,5.477605 -4.921,6.11002 -0.06118,0.03325 -0.121695,0.06716 -0.184205,0.09842 0.87381,-0.08977 1.720355,-0.278635 2.53099,-0.55594 1.5694,-1.209635 2.592835,-3.16008 2.592835,-5.36655 0,-0.09642 -0.0133,-0.19019 -0.01862,-0.28595 z"
   id="path6"
   style="stroke-width:0.665" />
 <path
   style="display:inline;mix-blend-mode:normal;fill:url(#linearGradient3403);fill-opacity:1;stroke:url(#linearGradient20558);stroke-width:1.16242;stroke-linecap:butt;stroke-linejoin:round;stroke-miterlimit:4;stroke-dasharray:none;stroke-opacity:1"
   d="M 4.7043071,3.9814882 4.6913695,60.80196 H 58.59546 l 1.022155,-2.866369 c 0,0 -23.87537,0.766388 -32.844441,-4.140386 C 16.257548,48.042344 11.401114,4.0978197 11.401114,4.0978197 Z"
   id="path1686"
   transform="matrix(0.49999999,0,0,0.5,0.06630363,0.01654935)" />
 <rect
   style="display:inline;fill:none;fill-opacity:1;stroke:url(#linearGradient4557);stroke-width:3.71366;stroke-linejoin:round;stroke-miterlimit:7.8;stroke-dasharray:none;stroke-opacity:0.995146"
   id="rect4539"
   width="62.567089"
   height="62.866646"
   x="1.0323594"
   y="0.59551275"
   ry="6.2447233"
   rx="5.8029528"
   transform="matrix(0.46839137,0,0,0.46743669,0.90638486,1.0268972)" />
</svg>
