<?xml version="1.0" encoding="UTF-8" standalone="no"?>
<!-- Created with Inkscape (http://www.inkscape.org/) -->

<svg
  width="32"
  height="32"
  version="1.1"
  viewBox="0 0 32 32"
  id="svg22"
  xmlns:xlink="http://www.w3.org/1999/xlink"
  xmlns="http://www.w3.org/2000/svg"
  xmlns:svg="http://www.w3.org/2000/svg">
 <defs
   id="defs12">
  <linearGradient
    id="linearGradient1005-3-3"
    x1="5.2535"
    x2="9.3823996"
    y1="15.383"
    y2="2.9421"
    gradientTransform="matrix(0.99999,0,0,0.99999,1.632,-0.61743)"
    gradientUnits="userSpaceOnUse">
   <stop
     stop-color="#fa8200"
     offset="0"
     id="stop2" />
   <stop
     stop-color="#ff9600"
     offset=".36953"
     id="stop4" />
   <stop
     stop-color="#ffb400"
     offset="1"
     id="stop6" />
  </linearGradient>
  <filter
    id="filter4014"
    x="-0.062499933"
    y="-0.057692993"
    width="1.1249999"
    height="1.115386"
    color-interpolation-filters="sRGB">
   <feGaussianBlur
     stdDeviation="1.093751"
     id="feGaussianBlur9" />
  </filter>
  <linearGradient
    xlink:href="#linearGradient3487"
    id="linearGradient3403"
    gradientUnits="userSpaceOnUse"
    x1="6.9491749"
    y1="4.5549412"
    x2="11.215498"
    y2="59.052471" />
  <linearGradient
    id="linearGradient3487">
   <stop
     style="stop-color:#32373c;stop-opacity:1"
     offset="0"
     id="stop3481" />
   <stop
     id="stop3483"
     offset="0.36804965"
     style="stop-color:#1a1a1a;stop-opacity:1" />
   <stop
     style="stop-color:#31363b;stop-opacity:1"
     offset="1"
     id="stop3485" />
  </linearGradient>
  <linearGradient
    xlink:href="#linearGradient20604"
    id="linearGradient20558"
    gradientUnits="userSpaceOnUse"
    x1="25.802212"
    y1="20.373846"
    x2="25.111048"
    y2="58.912758" />
  <linearGradient
    id="linearGradient20604">
   <stop
     id="stop20598"
     offset="0"
     style="stop-color:#3d3d3d;stop-opacity:1" />
   <stop
     style="stop-color:#000000;stop-opacity:1"
     offset="0.61772454"
     id="stop20600" />
   <stop
     id="stop20602"
     offset="1"
     style="stop-color:#3d3d3d;stop-opacity:1" />
  </linearGradient>
  <filter
    style="color-interpolation-filters:sRGB"
    id="filter20720"
    x="-0.010584676"
    y="-0.010231797"
    width="1.0211689"
    height="1.0204636">
   <feGaussianBlur
     stdDeviation="6.9383862e-05"
     id="feGaussianBlur20722" />
  </filter>
  <linearGradient
    gradientTransform="translate(0.36067797,-0.13016949)"
    xlink:href="#linearGradient4555"
    id="linearGradient4557"
    x1="43.499737"
    y1="64.011795"
    x2="44.141731"
    y2="0.30621234"
    gradientUnits="userSpaceOnUse" />
  <linearGradient
    id="linearGradient4555">
   <stop
     style="stop-color:#141618;stop-opacity:1"
     offset="0"
     id="stop4551" />
   <stop
     id="stop4559"
     offset="0.51820582"
     style="stop-color:#686868;stop-opacity:1" />
   <stop
     style="stop-color:#31363b;stop-opacity:1"
     offset="1"
     id="stop4553" />
  </linearGradient>
  <filter
    style="color-interpolation-filters:sRGB"
    id="filter4601"
    x="-0.029680458"
    width="1.0593609"
    y="-0.029538842"
    height="1.0590777">
   <feGaussianBlur
     stdDeviation="7.4141716e-05"
     id="feGaussianBlur4603" />
  </filter>
  <linearGradient
    id="a"
    y1="543.79999"
    y2="503.79999"
    x2="0"
    gradientUnits="userSpaceOnUse">
   <stop
     stop-color="#c6cdd1"
     id="stop23746" />
   <stop
     offset="1"
     stop-color="#e0e5e7"
     id="stop23748" />
  </linearGradient>
  <linearGradient
    id="b"
    y1="510.79999"
    x1="389.57001"
    y2="541.79999"
    gradientUnits="userSpaceOnUse"
    x2="427.57001"
    gradientTransform="translate(-384.57,-499.8)">
   <stop
     id="stop23751" />
   <stop
     offset="1"
     stop-opacity="0"
     id="stop23753" />
  </linearGradient>
  <linearGradient
    y2="533.40997"
    x2="416.85001"
    y1="521.15002"
    x1="394.22"
    gradientTransform="translate(-12.764,-10.07)"
    gradientUnits="userSpaceOnUse"
    id="linearGradient23838"
    xlink:href="#c" />
  <linearGradient
    id="c"
    y1="521.15002"
    x1="394.22"
    y2="533.40997"
    gradientUnits="userSpaceOnUse"
    x2="416.85001"
    gradientTransform="translate(-12.764,-10.07)">
   <stop
     stop-color="#292c2f"
     id="stop23756" />
   <stop
     offset="1"
     stop-opacity="0"
     id="stop23758" />
  </linearGradient>
  <linearGradient
    xlink:href="#c"
    id="d"
    y1="528.87"
    x1="394.34"
    y2="539.87"
    gradientUnits="userSpaceOnUse"
    x2="417.34"
    gradientTransform="translate(7.236,-10.07)" />
 </defs>
 <g
   transform="matrix(0.65345979,0,0,0.67672874,-250.08964,-338.8932)"
   id="g23800">
  <rect
    style="fill:url(#a)"
    width="40"
    x="388.57001"
    y="503.79999"
    rx="0"
    height="40"
    id="rect23764" />
  <rect
    style="fill:#99a1a7"
    width="40"
    x="388.57001"
    y="542.79999"
    height="1"
    id="rect23766" />
  <path
    style="opacity:0.2;fill:url(#b);fill-rule:evenodd"
    d="M 42.842,11.11 25,25.676 v 16.328 l 2,2 H 44 V 12.27 Z M 23,27.309 5,42.004 l 2,2 h 18 l -2,-2 z"
    transform="translate(384.57,499.8)"
    id="path23768" />
  <g
    style="stroke-width:0.1"
    id="g23776">
   <rect
     style="fill:#566069"
     width="40"
     x="388.57001"
     y="503.79999"
     height="5"
     id="rect23770" />
   <rect
     style="fill:#eff0f1"
     width="3"
     x="424.57001"
     y="504.79999"
     rx="1.5"
     height="3"
     id="rect23772" />
   <rect
     style="fill:#da4453"
     width="40"
     x="388.57001"
     y="508.79999"
     rx="0"
     height="1"
     id="rect23774" />
  </g>
  <g
    style="color:#000000;color-interpolation:sRGB;color-interpolation-filters:linearRGB;fill:#ffffff;color-rendering:auto;image-rendering:auto;shape-rendering:auto;text-rendering:auto"
    id="g23781">
   <path
     id="e"
     d="m 389.57,510.8 h 18 v 31 h -18 z" />
   <use
     height="100%"
     width="100%"
     y="0"
     x="20"
     xlink:href="#e"
     id="use23779" />
  </g>
  <g
    style="fill-rule:evenodd"
    id="g23787">
   <path
     style="opacity:0.2;fill:url(#linearGradient23838)"
     d="m 392.57,511.8 -2,4 17,8.576 V 518.8 Z m 0,8 -2,4 17,9 v -5.695 z"
     id="path23783" />
   <path
     style="opacity:0.2;fill:url(#d)"
     d="m 412.57,511.8 -2,4 17,8.576 V 518.8 Z m 0,8 -2,4 17,9 v -5.695 z m 0,8 -2,4 17,9 v -5.695 z"
     id="path23785" />
  </g>
  <g
    style="fill:#da4453"
    id="g23798">
   <path
     id="f"
     d="m 390.57,511.8 h 2 v 1 h 2 v 3 h -4 z" />
   <use
     height="100%"
     width="100%"
     x="0"
     y="8"
     xlink:href="#f"
     id="use23790" />
   <use
     height="100%"
     width="100%"
     y="0"
     x="20"
     xlink:href="#f"
     id="use23792" />
   <use
     height="100%"
     width="100%"
     x="20"
     y="8"
     xlink:href="#f"
     id="use23794" />
   <use
     height="100%"
     width="100%"
     x="20"
     y="16"
     xlink:href="#f"
     id="use23796" />
  </g>
 </g>
 <path
   style="display:inline;mix-blend-mode:normal;fill:url(#linearGradient3403);fill-opacity:1;stroke:url(#linearGradient20558);stroke-width:1.16242;stroke-linecap:butt;stroke-linejoin:round;stroke-miterlimit:4;stroke-dasharray:none;stroke-opacity:1"
   d="M 4.7043071,3.9814882 4.6913695,60.80196 H 58.59546 l 1.022155,-2.866369 c 0,0 -23.87537,0.766388 -32.844441,-4.140386 C 16.257548,48.042344 11.401114,4.0978197 11.401114,4.0978197 Z"
   id="path1686"
   transform="matrix(0.5,0,0,0.5,0.06630362,0.01654936)" />
 <rect
   style="display:inline;fill:none;fill-opacity:1;stroke:url(#linearGradient4557);stroke-width:3.71366;stroke-linejoin:round;stroke-miterlimit:7.8;stroke-dasharray:none;stroke-opacity:0.995146"
   id="rect4539"
   width="62.566689"
   height="62.866646"
   x="1.0323594"
   y="0.59551275"
   ry="6.2447233"
   rx="5.8029528"
   transform="matrix(0.46839137,0,0,0.46743669,0.90638486,1.0268972)" />
</svg>
