<?xml version="1.0" encoding="UTF-8" standalone="no"?>
<!-- Created with Inkscape (http://www.inkscape.org/) -->

<svg
  width="32"
  height="32"
  version="1.1"
  viewBox="0 0 32 32"
  id="svg22"
  xmlns:xlink="http://www.w3.org/1999/xlink"
  xmlns="http://www.w3.org/2000/svg"
  xmlns:svg="http://www.w3.org/2000/svg">
 <defs
   id="defs12">
  <linearGradient
    id="linearGradient917">
   <stop
     style="stop-color:#000000;stop-opacity:0.99607843"
     offset="0"
     id="stop913" />
   <stop
     style="stop-color:#353a3f;stop-opacity:0.99607843"
     offset="1"
     id="stop915" />
  </linearGradient>
  <linearGradient
    id="linearGradient1005-3-3"
    x1="5.2535"
    x2="9.3823996"
    y1="15.383"
    y2="2.9421"
    gradientTransform="matrix(0.99999,0,0,0.99999,1.632,-0.61743)"
    gradientUnits="userSpaceOnUse">
   <stop
     stop-color="#fa8200"
     offset="0"
     id="stop2" />
   <stop
     stop-color="#ff9600"
     offset=".36953"
     id="stop4" />
   <stop
     stop-color="#ffb400"
     offset="1"
     id="stop6" />
  </linearGradient>
  <filter
    id="filter4014"
    x="-0.062499933"
    y="-0.057692993"
    width="1.1249999"
    height="1.115386"
    color-interpolation-filters="sRGB">
   <feGaussianBlur
     stdDeviation="1.093751"
     id="feGaussianBlur9" />
  </filter>
  <linearGradient
    xlink:href="#linearGradient3487"
    id="linearGradient3403"
    gradientUnits="userSpaceOnUse"
    x1="6.9491749"
    y1="4.5549412"
    x2="11.215498"
    y2="59.052471" />
  <linearGradient
    id="linearGradient3487">
   <stop
     style="stop-color:#32373c;stop-opacity:1"
     offset="0"
     id="stop3481" />
   <stop
     id="stop3483"
     offset="0.36804965"
     style="stop-color:#1a1a1a;stop-opacity:1" />
   <stop
     style="stop-color:#31363b;stop-opacity:1"
     offset="1"
     id="stop3485" />
  </linearGradient>
  <linearGradient
    xlink:href="#linearGradient20604"
    id="linearGradient20558"
    gradientUnits="userSpaceOnUse"
    x1="25.802212"
    y1="20.373846"
    x2="25.111048"
    y2="58.912758" />
  <linearGradient
    id="linearGradient20604">
   <stop
     id="stop20598"
     offset="0"
     style="stop-color:#3d3d3d;stop-opacity:1" />
   <stop
     style="stop-color:#000000;stop-opacity:1"
     offset="0.61772454"
     id="stop20600" />
   <stop
     id="stop20602"
     offset="1"
     style="stop-color:#3d3d3d;stop-opacity:1" />
  </linearGradient>
  <filter
    style="color-interpolation-filters:sRGB"
    id="filter20720"
    x="-0.010581847"
    y="-0.010229062"
    width="1.0211632"
    height="1.0204581">
   <feGaussianBlur
     stdDeviation="4.6421452e-06"
     id="feGaussianBlur20722" />
  </filter>
  <linearGradient
    gradientTransform="translate(0.36067797,-0.13016949)"
    xlink:href="#linearGradient4555"
    id="linearGradient4557"
    x1="43.499737"
    y1="64.011795"
    x2="44.141731"
    y2="0.30621234"
    gradientUnits="userSpaceOnUse" />
  <linearGradient
    id="linearGradient4555">
   <stop
     style="stop-color:#141618;stop-opacity:1"
     offset="0"
     id="stop4551" />
   <stop
     id="stop4559"
     offset="0.51820582"
     style="stop-color:#686868;stop-opacity:1" />
   <stop
     style="stop-color:#31363b;stop-opacity:1"
     offset="1"
     id="stop4553" />
  </linearGradient>
  <filter
    style="color-interpolation-filters:sRGB"
    id="filter4601"
    x="-0.029677804"
    width="1.0593556"
    y="-0.029536201"
    height="1.0590724">
   <feGaussianBlur
     stdDeviation="4.9604707e-06"
     id="feGaussianBlur4603" />
  </filter>
  <linearGradient
    xlink:href="#linearGradient917"
    id="linearGradient919"
    x1="7.400631"
    y1="41.743092"
    x2="33.063145"
    y2="7.1074457"
    gradientUnits="userSpaceOnUse"
    gradientTransform="scale(0.665)" />
  <radialGradient
    xlink:href="#linearGradient3887"
    id="radialGradient10053"
    gradientUnits="userSpaceOnUse"
    gradientTransform="matrix(1.230357,0.490848,-0.30559,0.765992,6.44469,-26.19364)"
    cx="21.288511"
    cy="62.975674"
    fx="20.364378"
    fy="54.510296"
    r="33.898083" />
  <linearGradient
    id="linearGradient3887">
   <stop
     style="stop-color:white;stop-opacity:1;"
     offset="0"
     id="stop3889" />
   <stop
     style="stop-color:white;stop-opacity:0;"
     offset="1"
     id="stop3891" />
  </linearGradient>
  <radialGradient
    xlink:href="#linearGradient3770"
    id="radialGradient10055"
    gradientUnits="userSpaceOnUse"
    cx="45.072037"
    cy="48.438328"
    fx="49.431042"
    fy="63.654842"
    r="20.470032" />
  <linearGradient
    id="linearGradient3770">
   <stop
     style="stop-color:#eeeeec;stop-opacity:1;"
     offset="0"
     id="stop3772" />
   <stop
     style="stop-color:#9f9f94;stop-opacity:1;"
     offset="1"
     id="stop3774" />
  </linearGradient>
  <linearGradient
    xlink:href="#linearGradient3887"
    id="linearGradient10057"
    gradientUnits="userSpaceOnUse"
    gradientTransform="matrix(1.160976,0.127867,-0.112206,1.162701,-7.645123,-42.36726)"
    x1="46.229446"
    y1="34.836998"
    x2="50.325378"
    y2="67.717461" />
  <linearGradient
    xlink:href="#linearGradient3770"
    id="linearGradient10059"
    gradientUnits="userSpaceOnUse"
    gradientTransform="matrix(1.120553,0,0,1.120553,-15.31808,-8.79879)"
    x1="105.21383"
    y1="66.387939"
    x2="119.67432"
    y2="66.387939" />
  <linearGradient
    xlink:href="#linearGradient3770"
    id="linearGradient10061"
    gradientUnits="userSpaceOnUse"
    gradientTransform="matrix(0.931423,0,0,0.931423,41.30228,-34.92743)"
    x1="-11.3125"
    y1="75.197922"
    x2="24.776604"
    y2="75.197922" />
  <radialGradient
    xlink:href="#linearGradient3887"
    id="radialGradient10063"
    gradientUnits="userSpaceOnUse"
    gradientTransform="matrix(1.038889,0.691318,-0.102656,0.154268,1.697475,-11.26445)"
    cx="58.680527"
    cy="7.2303805"
    fx="58.680527"
    fy="7.2303805"
    r="55.698994" />
  <radialGradient
    xlink:href="#linearGradient3964"
    id="radialGradient10065"
    gradientUnits="userSpaceOnUse"
    gradientTransform="matrix(1,0,0,1.191489,0,-12.53059)"
    cx="116.125"
    cy="65.4375"
    fx="115.49471"
    fy="64.290573"
    r="2.9375" />
  <linearGradient
    id="linearGradient3964">
   <stop
     style="stop-color:black;stop-opacity:1;"
     offset="0"
     id="stop3966" />
   <stop
     style="stop-color:black;stop-opacity:0;"
     offset="1"
     id="stop3968" />
  </linearGradient>
  <radialGradient
    xlink:href="#linearGradient3887"
    id="radialGradient10067"
    gradientUnits="userSpaceOnUse"
    gradientTransform="matrix(-0.149257,0.05954567,0.03707168,0.09292389,126.4361,56.59784)"
    cx="21.288511"
    cy="62.975674"
    fx="20.364378"
    fy="54.510296"
    r="33.898083" />
  <linearGradient
    xlink:href="#linearGradient3770"
    id="linearGradient10069"
    gradientUnits="userSpaceOnUse"
    gradientTransform="matrix(-0.112993,0,0,0.112993,122.2074,55.53833)"
    x1="-11.3125"
    y1="75.197922"
    x2="24.776604"
    y2="75.197922" />
  <radialGradient
    xlink:href="#linearGradient3887"
    id="radialGradient10071"
    gradientUnits="userSpaceOnUse"
    gradientTransform="matrix(-0.12603,0.08386505,0.01245339,0.01871453,127.012,58.40892)"
    cx="58.680527"
    cy="7.2303805"
    fx="58.680527"
    fy="7.2303805"
    r="55.698994" />
  <radialGradient
    xlink:href="#linearGradient2285"
    id="radialGradient10073"
    gradientUnits="userSpaceOnUse"
    gradientTransform="matrix(1,0,0,1.013699,0,-0.980936)"
    cx="71.881821"
    cy="71.608231"
    fx="71.881821"
    fy="71.608231"
    r="1.6130873" />
  <linearGradient
    id="linearGradient2285">
   <stop
     id="stop2287"
     offset="0"
     style="stop-color:#5e5e5e;stop-opacity:1;" />
   <stop
     style="stop-color:#dedede;stop-opacity:1;"
     offset="0.75901806"
     id="stop2293" />
   <stop
     id="stop2295"
     offset="0.93379617"
     style="stop-color:#8d8d8d;stop-opacity:1;" />
   <stop
     id="stop2289"
     offset="1"
     style="stop-color:#616161;stop-opacity:1;" />
  </linearGradient>
  <radialGradient
    xlink:href="#linearGradient3887"
    id="radialGradient10075"
    gradientUnits="userSpaceOnUse"
    gradientTransform="matrix(-0.149257,0.05954567,0.03707168,0.09292389,126.4361,56.59784)"
    cx="21.288511"
    cy="62.975674"
    fx="20.364378"
    fy="54.510296"
    r="33.898083" />
  <radialGradient
    xlink:href="#linearGradient3887"
    id="radialGradient10079"
    gradientUnits="userSpaceOnUse"
    gradientTransform="matrix(-0.12603,0.08386505,0.01245339,0.01871453,127.012,58.40892)"
    cx="58.680527"
    cy="7.2303805"
    fx="58.680527"
    fy="7.2303805"
    r="55.698994" />
  <radialGradient
    xlink:href="#linearGradient3770"
    id="radialGradient10081"
    gradientUnits="userSpaceOnUse"
    gradientTransform="matrix(1.213029,-3.857778e-6,0.03916403,1.515872,-21.27707,-21.93227)"
    cx="92.0625"
    cy="42.515625"
    fx="92.07354"
    fy="41.43642"
    r="1.96875" />
  <radialGradient
    xlink:href="#linearGradient3964"
    id="radialGradient10083"
    gradientUnits="userSpaceOnUse"
    gradientTransform="matrix(1,0,0,0.316667,0,83.33806)"
    cx="36.747746"
    cy="121.95814"
    fx="33.78273"
    fy="122.4772"
    r="4.9659114" />
  <radialGradient
    xlink:href="#linearGradient3964"
    id="radialGradient10085"
    gradientUnits="userSpaceOnUse"
    gradientTransform="matrix(1,0,0,0.316667,0,83.33806)"
    cx="36.747746"
    cy="121.95814"
    fx="33.78273"
    fy="122.4772"
    r="4.9659114" />
  <linearGradient
    xlink:href="#linearGradient2285"
    id="linearGradient10087"
    gradientUnits="userSpaceOnUse"
    gradientTransform="matrix(0.540477,0,0,0.09355344,48.63483,105.6998)"
    x1="38.357395"
    y1="86.916695"
    x2="48.092773"
    y2="86.916695" />
  <linearGradient
    xlink:href="#linearGradient2301"
    id="linearGradient10089"
    gradientUnits="userSpaceOnUse"
    gradientTransform="matrix(1.514456,0,0,0.837898,10.98058,49.94771)"
    spreadMethod="reflect"
    x1="41.109016"
    y1="79.413818"
    x2="44.111984"
    y2="79.413818" />
  <linearGradient
    id="linearGradient2301">
   <stop
     id="stop2303"
     offset="0"
     style="stop-color:#dcdcdc;stop-opacity:1;" />
   <stop
     id="stop2305"
     offset="1"
     style="stop-color:#dcdcdc;stop-opacity:0;" />
  </linearGradient>
  <linearGradient
    xlink:href="#linearGradient2285"
    id="linearGradient10091"
    gradientUnits="userSpaceOnUse"
    gradientTransform="matrix(0.540477,0,0,0.540477,-2.804764,82.82737)"
    x1="38.357395"
    y1="86.916695"
    x2="48.092773"
    y2="86.916695" />
  <linearGradient
    xlink:href="#linearGradient2301"
    id="linearGradient10093"
    gradientUnits="userSpaceOnUse"
    gradientTransform="matrix(1.514457,0,0,1.445422,-40.35187,34.23177)"
    spreadMethod="reflect"
    x1="41.109016"
    y1="79.413818"
    x2="44.111984"
    y2="79.413818" />
  <linearGradient
    xlink:href="#linearGradient2285"
    id="linearGradient10095"
    gradientUnits="userSpaceOnUse"
    gradientTransform="matrix(0.540477,0,0,0.540477,-127.2611,10.54281)"
    x1="38.357395"
    y1="86.916695"
    x2="48.092773"
    y2="86.916695" />
  <linearGradient
    xlink:href="#linearGradient2301"
    id="linearGradient10097"
    gradientUnits="userSpaceOnUse"
    gradientTransform="matrix(1.514457,0,0,1.445422,-164.8738,-38.46197)"
    spreadMethod="reflect"
    x1="41.109016"
    y1="79.413818"
    x2="44.111984"
    y2="79.413818" />
  <linearGradient
    xlink:href="#linearGradient3964"
    id="linearGradient10099"
    gradientUnits="userSpaceOnUse"
    gradientTransform="matrix(1.286851,0,0,1.286851,-11.51164,-38.10921)"
    x1="65.788818"
    y1="122.79063"
    x2="65.09919"
    y2="106.68057" />
  <radialGradient
    xlink:href="#linearGradient3964"
    id="radialGradient10101"
    gradientUnits="userSpaceOnUse"
    gradientTransform="matrix(1,0,0,0.844444,0,18.98414)"
    cx="64.63961"
    cy="122.04091"
    fx="64.63961"
    fy="122.04091"
    r="3.7244337" />
  <radialGradient
    xlink:href="#linearGradient9083"
    id="radialGradient10103"
    gradientUnits="userSpaceOnUse"
    gradientTransform="matrix(1.27094,0.201737,-0.414722,2.612754,18.29114,-164.7345)"
    cx="71.993324"
    cy="91.360512"
    fx="71.993324"
    fy="91.360512"
    r="1.2120775" />
  <linearGradient
    id="linearGradient9083">
   <stop
     style="stop-color:#656565;stop-opacity:1;"
     offset="0"
     id="stop9085" />
   <stop
     style="stop-color:#656565;stop-opacity:0;"
     offset="1"
     id="stop9087" />
  </linearGradient>
  <radialGradient
    xlink:href="#linearGradient9093"
    id="radialGradient10105"
    gradientUnits="userSpaceOnUse"
    gradientTransform="matrix(1.114143,0.64395,-0.838953,1.451529,67.68717,-91.71487)"
    cx="72.915199"
    cy="90.395607"
    fx="72.915199"
    fy="90.395607"
    r="1.2120775" />
  <linearGradient
    id="linearGradient9093">
   <stop
     style="stop-color:#a5a5a5;stop-opacity:1;"
     offset="0"
     id="stop9095" />
   <stop
     style="stop-color:#a5a5a5;stop-opacity:0;"
     offset="1"
     id="stop9097" />
  </linearGradient>
  <radialGradient
    xlink:href="#linearGradient3887"
    id="radialGradient10107"
    gradientUnits="userSpaceOnUse"
    gradientTransform="matrix(0.874459,0.23431,-0.534303,1.994044,57.13836,-110.7997)"
    cx="72.249008"
    cy="89.825218"
    fx="72.249008"
    fy="89.825218"
    r="1.2120775" />
  <radialGradient
    xlink:href="#linearGradient3887"
    id="radialGradient11015"
    gradientUnits="userSpaceOnUse"
    gradientTransform="matrix(-0.14309,0.169755,-0.805092,-0.678625,139.9553,88.28146)"
    cx="37.298531"
    cy="65.512085"
    fx="37.298531"
    fy="65.512085"
    r="17.969616" />
  <linearGradient
    xlink:href="#linearGradient3770"
    id="linearGradient15365"
    gradientUnits="userSpaceOnUse"
    gradientTransform="matrix(-0.112993,0,0,0.112993,122.2074,55.53833)"
    x1="-11.3125"
    y1="75.197922"
    x2="24.776604"
    y2="75.197922" />
 </defs>
 <rect
   style="display:inline;fill:url(#linearGradient919);fill-opacity:1;fill-rule:evenodd;stroke:none;stroke-width:0.617;stroke-linejoin:round;stroke-miterlimit:7.8"
   id="rect1192"
   width="27.986261"
   height="28.403553"
   x="2.1033354"
   y="2.0072956"
   ry="0" />
 <g
   id="g1168"
   transform="matrix(0.21538906,0,0,0.21538906,6.1902726,3.007104)">
  <path
    id="path2276"
    d="M 50.892799,3.2812959 V 0.48658747 Z"
    style="fill:#ffffff;fill-opacity:0.756881;fill-rule:nonzero;stroke:none;stroke-width:0.5;stroke-linecap:round;stroke-linejoin:round;stroke-miterlimit:4;stroke-dasharray:none;stroke-dashoffset:4;stroke-opacity:1" />
  <g
    id="g10035"
    transform="matrix(0.983225,0.133307,-0.133307,0.983225,6.038054,-5.426873)">
   <path
     id="path2855"
     d="M 37.811106,2.1872674 C 27.504929,1.7630241 15.730004,12.650551 11.293218,26.346014 7.165626,39.08705 12.180953,50.942455 21.94758,54.696547 l 90.32594,22.352086 c 0.22985,0.06341 0.4731,0.08883 0.7221,0.116257 7.30848,0.0699 11.70881,-9.281571 6.04053,-14.231294 L 45.282739,4.275919 C 43.590791,3.0988942 41.072621,2.5464816 38.826959,2.2991503 38.497597,2.2628754 38.143563,2.200952 37.811106,2.1872674 Z"
     style="opacity:1;fill:#000000;fill-opacity:1;fill-rule:nonzero;stroke:none;stroke-width:8;stroke-linecap:round;stroke-linejoin:round;stroke-miterlimit:4;stroke-dasharray:none;stroke-dashoffset:4;stroke-opacity:1" />
   <path
     id="path3882"
     d="M 37.90441,2.7178301 C 27.839703,2.9836918 16.640046,13.6066 12.34191,26.87408 8.214318,39.615116 13.231533,51.463738 22.99816,55.21783 l 55.6875,13.78125 V 30.53033 L 46.34191,4.8115801 c -1.691947,-1.1770248 -4.223088,-1.7214187 -6.46875,-1.96875 -0.329361,-0.036275 -0.667543,-0.1113154 -1,-0.125 -0.322068,-0.013258 -0.644082,-0.00858 -0.96875,0 z"
     style="opacity:0.87;fill:url(#radialGradient10053);fill-opacity:1;fill-rule:nonzero;stroke:none;stroke-width:8;stroke-linecap:round;stroke-linejoin:round;stroke-miterlimit:4;stroke-dasharray:none;stroke-dashoffset:4;stroke-opacity:1" />
   <circle
     transform="matrix(0.842901,0.09283444,-0.366665,1.134676,12.01036,-27.68145)"
     id="path1962"
     style="opacity:0.15;fill:#000000;fill-opacity:1;fill-rule:nonzero;stroke:none;stroke-width:8;stroke-linecap:round;stroke-linejoin:round;stroke-miterlimit:4;stroke-dasharray:none;stroke-dashoffset:4;stroke-opacity:1"
     cx="48.230759"
     cy="47.24152"
     r="20.470032" />
   <circle
     style="opacity:1;fill:url(#radialGradient10055);fill-opacity:1;fill-rule:nonzero;stroke:none;stroke-width:8;stroke-linecap:round;stroke-linejoin:round;stroke-miterlimit:4;stroke-dasharray:none;stroke-dashoffset:4;stroke-opacity:1"
     id="path2853"
     transform="matrix(0.874568,0.09632247,-0.380036,1.173095,10.30427,-29.96168)"
     cx="48.230759"
     cy="47.24152"
     r="20.470032" />
   <path
     id="path3780"
     d="M 42.310316,6.0978151 C 34.138528,5.1977958 24.869694,11.806816 19.473389,21.612437 c -1.240134,5.076567 -1.011108,8.873217 2.717733,11.352228 7.831308,5.206421 23.606046,0.648208 31.326994,-11.164532 0.17084,-0.261378 0.316542,-0.528514 0.479736,-0.791737 C 53.568136,12.880155 49.278939,6.8653213 42.310316,6.0978151 Z"
     style="opacity:1;fill:url(#linearGradient10057);fill-opacity:1;fill-rule:nonzero;stroke:none;stroke-width:8;stroke-linecap:round;stroke-linejoin:round;stroke-miterlimit:4;stroke-dasharray:none;stroke-dashoffset:4;stroke-opacity:1" />
   <path
     id="path3755"
     d="M 44.742045,4.4561673 74.174385,28.680248 57.759041,62.59596 19.283002,52.840711 c 0.926082,0.325016 1.902535,0.540026 2.943444,0.654668 C 32.766075,54.656186 45.030347,44.136326 49.610259,29.999078 53.214335,18.874023 50.990966,8.8033128 44.742045,4.4561673 Z"
     style="opacity:1;fill:#000000;fill-opacity:1;fill-rule:nonzero;stroke:none;stroke-width:8;stroke-linecap:round;stroke-linejoin:round;stroke-miterlimit:4;stroke-dasharray:none;stroke-dashoffset:4;stroke-opacity:1" />
   <path
     id="path3835"
     d="m 109.05784,54.911949 c 5.9382,6.708547 1.69767,17.310779 -6.4782,19.819789 l 5.74284,1.435709 c 0.25755,0.07106 0.52638,0.07432 0.80539,0.105052 8.18955,0.07833 13.10995,-10.38644 6.75834,-15.932869 z"
     style="opacity:1;fill:url(#linearGradient10059);fill-opacity:1;fill-rule:nonzero;stroke:none;stroke-width:8;stroke-linecap:round;stroke-linejoin:round;stroke-miterlimit:4;stroke-dasharray:none;stroke-dashoffset:4;stroke-opacity:1" />
   <path
     id="path3856"
     d="m 54.487744,11.701957 1.309814,1.076959 C 55.382867,12.391559 54.950729,12.02404 54.487744,11.701957 Z m 1.309814,1.076959 c 4.798569,4.482279 6.320765,13.165565 3.230874,22.703442 C 54.762596,48.650119 43.318468,58.452 33.501614,57.370804 c -0.334094,-0.0368 -0.640158,-0.115277 -0.96053,-0.174642 l 4.919079,1.2516 c 9.753624,1.028599 21.084709,-8.284321 25.323069,-20.811488 3.068271,-9.068787 1.559565,-17.331045 -3.201767,-21.597377 l -1.309814,-1.047851 c 0.462984,0.308399 0.895442,0.676559 1.309814,1.047851 z M 32.541084,57.196162 30.765558,56.759557 c 0.565336,0.19841 1.166189,0.323695 1.775526,0.436605 z"
     style="opacity:1;fill:url(#linearGradient10061);fill-opacity:1;fill-rule:nonzero;stroke:none;stroke-width:8;stroke-linecap:round;stroke-linejoin:round;stroke-miterlimit:4;stroke-dasharray:none;stroke-dashoffset:4;stroke-opacity:1" />
   <path
     id="path3869"
     d="m 45.6875,4.875 c 9.542644,6.243613 8.726336,21.892976 1.09375,34.9375 -17.360583,29.606131 -56.949298,-1.794469 -24.84375,14.875 l 90.34375,22.375 c 0.22985,0.06342 0.46975,0.06633 0.71875,0.09375 7.30848,0.06991 11.69953,-9.269027 6.03125,-14.21875 L 45.28125,4.28125 C 32.411333,2.9025972 31.622698,-2.7968975 45.6875,4.875 Z"
     style="opacity:1;fill:url(#radialGradient10063);fill-opacity:1;fill-rule:nonzero;stroke:none;stroke-width:8;stroke-linecap:round;stroke-linejoin:round;stroke-miterlimit:4;stroke-dasharray:none;stroke-dashoffset:4;stroke-opacity:1" />
   <ellipse
     transform="matrix(0.809672,0.280887,0.266851,1.15104,2.327355,-41.1892)"
     id="path3962"
     style="opacity:1;fill:url(#radialGradient10065);fill-opacity:1;fill-rule:nonzero;stroke:none;stroke-width:0.2;stroke-linecap:round;stroke-linejoin:round;stroke-miterlimit:4;stroke-dasharray:none;stroke-dashoffset:4;stroke-opacity:1"
     cx="116.125"
     cy="65.4375"
     rx="2.9375"
     ry="3.5" />
   <g
     transform="matrix(0.749609,0.184501,-0.149539,0.753064,33.91717,-6.173438)"
     id="g3949">
    <path
      style="opacity:1;fill:#000000;fill-opacity:1;fill-rule:nonzero;stroke:none;stroke-width:8;stroke-linecap:round;stroke-linejoin:round;stroke-miterlimit:4;stroke-dasharray:none;stroke-dashoffset:4;stroke-opacity:1"
      d="m 122.62415,60.02886 c -0.0403,0.0017 -0.14581,0.01028 -0.18577,0.01468 -0.27242,0.03 -0.51523,0.09253 -0.72048,0.23532 l -3.90625,3.09375 c -0.0219,0.0196 -0.0419,0.04135 -0.0625,0.0625 -0.3958,0.40601 -0.55388,1.09068 -0.375,1.875 0.28515,1.25025 1.33478,2.28125 2.34375,2.28125 0.10393,0 0.18676,-0.04182 0.28125,-0.0625 l 4.5625,-1.125 c 1.18481,-0.45541 1.78198,-1.89186 1.28125,-3.4375 -0.53823,-1.66142 -1.96849,-2.98897 -3.21875,-2.9375 z"
      id="path3899" />
    <path
      id="path3901"
      d="m 122.61963,60.10514 c 1.22097,0.03225 2.57962,1.32094 3.10103,2.93044 0.50073,1.54564 -0.10792,2.98302 -1.29273,3.43843 l -6.75555,1.67183 v -4.66671 l 3.92368,-3.11999 c 0.20525,-0.14279 0.51231,-0.20883 0.78474,-0.23883 0.04,-0.0044 0.081,-0.01351 0.12131,-0.01517 0.0391,-0.0016 0.0781,-10e-4 0.11752,0 z"
      style="opacity:0.87;fill:url(#radialGradient10067);fill-opacity:1;fill-rule:nonzero;stroke:none;stroke-width:8;stroke-linecap:round;stroke-linejoin:round;stroke-miterlimit:4;stroke-dasharray:none;stroke-dashoffset:4;stroke-opacity:1" />
    <path
      id="path3909"
      d="m 121.79014,60.31602 -3.57049,2.93867 1.99138,4.11438 4.6676,-1.18343 c -0.11235,0.03943 -0.2308,0.06551 -0.35708,0.07942 -1.27858,0.14082 -2.76638,-1.13537 -3.32198,-2.85038 -0.43722,-1.3496 -0.16749,-2.5713 0.59057,-3.09866 z"
      style="opacity:1;fill:#000000;fill-opacity:1;fill-rule:nonzero;stroke:none;stroke-width:8;stroke-linecap:round;stroke-linejoin:round;stroke-miterlimit:4;stroke-dasharray:none;stroke-dashoffset:4;stroke-opacity:1" />
    <path
      id="path3913"
      d="m 120.60787,61.19502 -0.15889,0.13065 c 0.0503,-0.04699 0.10273,-0.09158 0.15889,-0.13065 z m -0.15889,0.13065 c -0.58212,0.54375 -0.76678,1.59714 -0.39194,2.7542 0.51749,1.5974 1.9058,2.78648 3.0967,2.65532 0.0405,-0.0045 0.0777,-0.01398 0.11652,-0.02118 l -0.59674,0.15183 c -1.18323,0.12478 -2.55782,-1.00499 -3.07199,-2.52468 -0.37221,-1.10015 -0.18919,-2.10246 0.38842,-2.62002 l 0.15889,-0.12711 c -0.0562,0.03741 -0.10863,0.08207 -0.15889,0.12711 z m 2.82128,5.38834 0.2154,-0.05297 c -0.0686,0.02407 -0.14148,0.03927 -0.2154,0.05297 z"
      style="opacity:1;fill:url(#linearGradient15365);fill-opacity:1;fill-rule:nonzero;stroke:none;stroke-width:8;stroke-linecap:round;stroke-linejoin:round;stroke-miterlimit:4;stroke-dasharray:none;stroke-dashoffset:4;stroke-opacity:1" />
    <path
      style="opacity:1;fill:url(#radialGradient10071);fill-opacity:1;fill-rule:nonzero;stroke:none;stroke-width:8;stroke-linecap:round;stroke-linejoin:round;stroke-miterlimit:4;stroke-dasharray:none;stroke-dashoffset:4;stroke-opacity:1"
      d="m 121.8429,60.27886 c 1.31676,-0.22769 1.03582,-0.14208 0,0 z m 0,0 c -0.0439,0.0058 -0.0785,0.02627 -0.125,0.03125 l -4,3.15625 c -0.3733,0.40952 -0.51797,1.07985 -0.34375,1.84375 0.28515,1.25025 1.33478,2.28125 2.34375,2.28125 0.10393,0 0.18676,-0.04182 0.28125,-0.0625 l 4.5625,-1.125 c 0.27239,-0.14143 0.40255,-0.19234 0.59375,-0.28125 -0.99552,0.21719 -2.62226,0.17879 -3.625,-1.53125 -0.92592,-1.58245 -1.00138,-3.46132 0.15625,-4.21875 0.0646,-0.03522 0.0968,-0.06306 0.15625,-0.09375 z m 3.3125,5.84375 c 0.94914,-0.20708 1.24107,-0.57708 0,0 z"
      id="path3915" />
   </g>
  </g>
  <path
    id="path8915"
    d="M 46.024007,89.450216 V 86.655507 Z"
    style="fill:#ffffff;fill-opacity:0.756881;fill-rule:nonzero;stroke:none;stroke-width:0.5;stroke-linecap:round;stroke-linejoin:round;stroke-miterlimit:4;stroke-dasharray:none;stroke-dashoffset:4;stroke-opacity:1" />
  <g
    id="g10007"
    transform="matrix(0.960176,0,0,0.960176,1.880318,5.8102)">
   <ellipse
     transform="matrix(1.606336,0,0,1.338798,-43.43367,-23.92013)"
     id="path9111"
     style="opacity:1;fill:url(#radialGradient10073);fill-opacity:1;fill-rule:nonzero;stroke:none;stroke-width:0.2;stroke-linecap:round;stroke-linejoin:round;stroke-miterlimit:4;stroke-dasharray:none;stroke-dashoffset:4;stroke-opacity:1"
     cx="71.881821"
     cy="71.608231"
     rx="1.6130873"
     ry="1.6351844" />
   <g
     id="g3994"
     transform="matrix(1.163613,0.2864,-0.232128,1.168977,-41.02318,-65.74521)">
    <path
      id="path3996"
      d="m 122.62415,60.02886 c -0.0403,0.0017 -0.14581,0.01028 -0.18577,0.01468 -0.27242,0.03 -0.51523,0.09253 -0.72048,0.23532 l -3.90625,3.09375 c -0.0219,0.0196 -0.0419,0.04135 -0.0625,0.0625 -0.3958,0.40601 -0.55388,1.09068 -0.375,1.875 0.28515,1.25025 1.33478,2.28125 2.34375,2.28125 0.10393,0 0.18676,-0.04182 0.28125,-0.0625 l 4.5625,-1.125 c 1.18481,-0.45541 1.78198,-1.89186 1.28125,-3.4375 -0.53823,-1.66142 -1.96849,-2.98897 -3.21875,-2.9375 z"
      style="opacity:1;fill:#000000;fill-opacity:1;fill-rule:nonzero;stroke:none;stroke-width:8;stroke-linecap:round;stroke-linejoin:round;stroke-miterlimit:4;stroke-dasharray:none;stroke-dashoffset:4;stroke-opacity:1" />
    <path
      style="opacity:0.87;fill:url(#radialGradient10075);fill-opacity:1;fill-rule:nonzero;stroke:none;stroke-width:8;stroke-linecap:round;stroke-linejoin:round;stroke-miterlimit:4;stroke-dasharray:none;stroke-dashoffset:4;stroke-opacity:1"
      d="m 122.61963,60.10514 c 1.22097,0.03225 2.57962,1.32094 3.10103,2.93044 0.50073,1.54564 -0.10792,2.98302 -1.29273,3.43843 l -6.75555,1.67183 v -4.66671 l 3.92368,-3.11999 c 0.20525,-0.14279 0.51231,-0.20883 0.78474,-0.23883 0.04,-0.0044 0.081,-0.01351 0.12131,-0.01517 0.0391,-0.0016 0.0781,-10e-4 0.11752,0 z"
      id="path3998" />
    <path
      style="opacity:1;fill:#000000;fill-opacity:1;fill-rule:nonzero;stroke:none;stroke-width:8;stroke-linecap:round;stroke-linejoin:round;stroke-miterlimit:4;stroke-dasharray:none;stroke-dashoffset:4;stroke-opacity:1"
      d="m 121.79014,60.31602 -3.57049,2.93867 1.99138,4.11438 4.6676,-1.18343 c -0.11235,0.03943 -0.2308,0.06551 -0.35708,0.07942 -1.27858,0.14082 -2.76638,-1.13537 -3.32198,-2.85038 -0.43722,-1.3496 -0.16749,-2.5713 0.59057,-3.09866 z"
      id="path4000" />
    <path
      style="opacity:1;fill:url(#linearGradient10069);fill-opacity:1;fill-rule:nonzero;stroke:none;stroke-width:8;stroke-linecap:round;stroke-linejoin:round;stroke-miterlimit:4;stroke-dasharray:none;stroke-dashoffset:4;stroke-opacity:1"
      d="m 120.60787,61.19502 -0.15889,0.13065 c 0.0503,-0.04699 0.10273,-0.09158 0.15889,-0.13065 z m -0.15889,0.13065 c -0.58212,0.54375 -0.76678,1.59714 -0.39194,2.7542 0.51749,1.5974 1.9058,2.78648 3.0967,2.65532 0.0405,-0.0045 0.0777,-0.01398 0.11652,-0.02118 l -0.59674,0.15183 c -1.18323,0.12478 -2.55782,-1.00499 -3.07199,-2.52468 -0.37221,-1.10015 -0.18919,-2.10246 0.38842,-2.62002 l 0.15889,-0.12711 c -0.0562,0.03741 -0.10863,0.08207 -0.15889,0.12711 z m 2.82128,5.38834 0.2154,-0.05297 c -0.0686,0.02407 -0.14148,0.03927 -0.2154,0.05297 z"
      id="path4002" />
    <path
      id="path4004"
      d="m 121.8429,60.27886 c 1.31676,-0.22769 1.03582,-0.14208 0,0 z m 0,0 c -0.0439,0.0058 -0.0785,0.02627 -0.125,0.03125 l -4,3.15625 c -0.3733,0.40952 -0.51797,1.07985 -0.34375,1.84375 0.28515,1.25025 1.33478,2.28125 2.34375,2.28125 0.10393,0 0.18676,-0.04182 0.28125,-0.0625 l 4.5625,-1.125 c 0.27239,-0.14143 0.40255,-0.19234 0.59375,-0.28125 -0.99552,0.21719 -2.62226,0.17879 -3.625,-1.53125 -0.92592,-1.58245 -1.00138,-3.46132 0.15625,-4.21875 0.0646,-0.03522 0.0968,-0.06306 0.15625,-0.09375 z m 3.3125,5.84375 c 0.94914,-0.20708 1.24107,-0.57708 0,0 z"
      style="opacity:1;fill:url(#radialGradient10079);fill-opacity:1;fill-rule:nonzero;stroke:none;stroke-width:8;stroke-linecap:round;stroke-linejoin:round;stroke-miterlimit:4;stroke-dasharray:none;stroke-dashoffset:4;stroke-opacity:1" />
   </g>
   <path
     id="path4012"
     d="m 85.40625,40.65625 c 0.570242,2.342222 0.871859,4.859355 0.84375,7.46875 -0.137823,12.793827 -8.061667,23.1875 -17.6875,23.1875 -0.300578,0 -0.578027,-0.01097 -0.875,-0.03125 -0.256826,-0.183764 -0.527039,-0.391337 -0.78125,-0.59375 -3.36539,-2.679678 -5.996634,-6.625068 -7.75,-11.09375 h -4.125 c 1.736735,3.827509 4.152776,7.195883 7.125,9.5625 0.689842,0.549278 1.3899,0.995919 2.09375,1.40625 l 0.28125,0.1875 c 0.806006,0.446936 1.624726,0.785552 2.4375,1.0625 l 0.53125,0.15625 0.125,0.0625 0.5625,0.25 c 0.766108,0.313063 1.538341,0.539771 2.34375,0.71875 l 0.34375,0.0625 c 0.777869,0.144523 1.596686,0.25 2.40625,0.25 9.625833,3e-6 17.549672,-10.393671 17.6875,-23.1875 0.03625,-3.364963 -0.49842,-6.587353 -1.4375,-9.46875 -0.509041,-0.621863 -3.87725,-0.805877 -4.125,0 z"
     style="opacity:1;fill:#000000;fill-opacity:1;fill-rule:nonzero;stroke:none;stroke-width:0.2;stroke-linecap:round;stroke-linejoin:round;stroke-miterlimit:4;stroke-dasharray:none;stroke-dashoffset:4;stroke-opacity:1" />
   <ellipse
     transform="matrix(0.596032,0,0.07227823,0.552206,30.35284,19.51436)"
     id="path4038"
     style="opacity:1;fill:url(#radialGradient10081);fill-opacity:1;fill-rule:nonzero;stroke:#8a8a8a;stroke-width:0.2;stroke-linecap:round;stroke-linejoin:round;stroke-miterlimit:4;stroke-dasharray:none;stroke-dashoffset:4;stroke-opacity:1"
     cx="92.0625"
     cy="42.515625"
     rx="1.96875"
     ry="2.984375" />
   <ellipse
     transform="matrix(2.976524,-0.546624,0.285376,2.039351,-85.96056,-106.9435)"
     id="path2662"
     style="opacity:0.495902;fill:url(#radialGradient10083);fill-opacity:1;fill-rule:nonzero;stroke:none;stroke-width:0.7125;stroke-linecap:square;stroke-linejoin:miter;stroke-miterlimit:4;stroke-dasharray:none;stroke-dashoffset:4;stroke-opacity:1"
     cx="36.747746"
     cy="121.95814"
     rx="4.9659114"
     ry="1.5725386" />
   <ellipse
     style="opacity:0.495902;fill:url(#radialGradient10085);fill-opacity:1;fill-rule:nonzero;stroke:none;stroke-width:0.7125;stroke-linecap:square;stroke-linejoin:miter;stroke-miterlimit:4;stroke-dasharray:none;stroke-dashoffset:4;stroke-opacity:1"
     id="path2672"
     transform="matrix(-2.976524,-0.546624,-0.285376,2.039351,230.5908,-105.7626)"
     cx="36.747746"
     cy="121.95814"
     rx="4.9659114"
     ry="1.5725386" />
   <path
     id="rect2332"
     d="m 69.791543,72.346581 c 1.138554,-0.456148 2.605676,-0.460515 4.410893,0 0.266939,0.109375 0.425431,0.189742 0.425431,0.425431 v 44.240178 c 0,0.23569 -0.189742,0.42543 -0.425431,0.42543 h -4.410893 c -0.235689,0 -0.425431,-0.18974 -0.425431,-0.42543 V 72.772012 c 0,-0.235689 0.232711,-0.347306 0.425431,-0.425431 z"
     style="fill:url(#linearGradient10087);fill-opacity:1;fill-rule:nonzero;stroke:none;stroke-width:0.7125;stroke-linecap:square;stroke-linejoin:miter;stroke-miterlimit:4;stroke-dashoffset:4;stroke-opacity:1" />
   <rect
     rx="1.8250477"
     ry="1.8250479"
     y="110.91685"
     x="67.988029"
     height="8.7983522"
     width="8.0179071"
     id="rect2334"
     style="fill:#000000;fill-opacity:1;fill-rule:nonzero;stroke:none;stroke-width:0.7125;stroke-linecap:square;stroke-linejoin:miter;stroke-miterlimit:4;stroke-dasharray:none;stroke-dashoffset:4;stroke-opacity:1" />
   <rect
     ry="1.2443508"
     rx="1.2766114"
     y="111.52327"
     x="68.494843"
     height="7.7033844"
     width="6.8960838"
     id="rect2336"
     style="opacity:0.479508;fill:url(#linearGradient10089);fill-opacity:1;fill-rule:nonzero;stroke:none;stroke-width:0.7125;stroke-linecap:square;stroke-linejoin:miter;stroke-miterlimit:4;stroke-dasharray:none;stroke-dashoffset:4;stroke-opacity:1" />
   <rect
     transform="matrix(0.866026,-0.5,0.5,0.866026,0,0)"
     y="108.96725"
     x="17.926571"
     height="41.673038"
     width="5.2617474"
     id="rect1410"
     style="fill:url(#linearGradient10091);fill-opacity:1;fill-rule:nonzero;stroke:none;stroke-width:0.7125;stroke-linecap:square;stroke-linejoin:miter;stroke-miterlimit:4;stroke-dasharray:none;stroke-dashoffset:4;stroke-opacity:1" />
   <rect
     transform="matrix(0.866026,-0.5,0.5,0.866026,0,0)"
     rx="1.8250505"
     ry="1.8250504"
     y="143.55989"
     x="16.655664"
     height="11.024617"
     width="8.0179024"
     id="rect2297"
     style="fill:#000000;fill-opacity:1;fill-rule:nonzero;stroke:none;stroke-width:0.7125;stroke-linecap:square;stroke-linejoin:miter;stroke-miterlimit:4;stroke-dasharray:none;stroke-dashoffset:4;stroke-opacity:1" />
   <rect
     transform="matrix(0.866026,-0.5,0.5,0.866026,0,0)"
     ry="1.2443521"
     rx="1.2766131"
     y="144.29451"
     x="17.162485"
     height="9.4472322"
     width="6.89608"
     id="rect2299"
     style="opacity:0.479508;fill:url(#linearGradient10093);fill-opacity:1;fill-rule:nonzero;stroke:none;stroke-width:0.7125;stroke-linecap:square;stroke-linejoin:miter;stroke-miterlimit:4;stroke-dasharray:none;stroke-dashoffset:4;stroke-opacity:1" />
   <rect
     transform="matrix(-0.866026,-0.5,-0.5,0.866026,0,0)"
     style="fill:url(#linearGradient10095);fill-opacity:1;fill-rule:nonzero;stroke:none;stroke-width:0.7125;stroke-linecap:square;stroke-linejoin:miter;stroke-miterlimit:4;stroke-dasharray:none;stroke-dashoffset:4;stroke-opacity:1"
     id="rect2316"
     width="5.2617474"
     height="41.673038"
     x="-106.52976"
     y="36.682716" />
   <rect
     transform="matrix(-0.866026,-0.5,-0.5,0.866026,0,0)"
     style="fill:#000000;fill-opacity:1;fill-rule:nonzero;stroke:none;stroke-width:0.7125;stroke-linecap:square;stroke-linejoin:miter;stroke-miterlimit:4;stroke-dasharray:none;stroke-dashoffset:4;stroke-opacity:1"
     id="rect2318"
     width="8.0179024"
     height="11.024617"
     x="-107.86619"
     y="70.866051"
     ry="1.8250515"
     rx="1.8250517" />
   <rect
     transform="matrix(-0.866026,-0.5,-0.5,0.866026,0,0)"
     style="opacity:0.479508;fill:url(#linearGradient10097);fill-opacity:1;fill-rule:nonzero;stroke:none;stroke-width:0.7125;stroke-linecap:square;stroke-linejoin:miter;stroke-miterlimit:4;stroke-dasharray:none;stroke-dashoffset:4;stroke-opacity:1"
     id="rect2320"
     width="6.89608"
     height="9.4472322"
     x="-107.35938"
     y="71.600655"
     rx="1.2766137"
     ry="1.2443531" />
   <path
     id="rect2342"
     d="m 70.766374,99.181684 c -0.06541,0.01672 -0.138604,0.05073 -0.201071,0.08043 -0.642886,0.334813 -1.125993,1.339606 -1.125993,2.533486 v 9.85245 c -0.151481,0.0666 -0.321088,0.17412 -0.442356,0.2815 -0.01824,0.0169 -0.06304,0.0626 -0.08043,0.0804 -0.01695,0.0182 -0.06438,0.0615 -0.08043,0.0804 -0.02338,0.029 -0.05921,0.09 -0.08043,0.12063 -0.03413,0.052 -0.09302,0.14503 -0.120641,0.20108 -0.03677,0.0795 -0.05781,0.1954 -0.08043,0.28149 -0.02634,0.11178 -0.04021,0.24216 -0.04021,0.36193 v 4.62463 c 0,0.17301 0.02684,0.36782 0.08043,0.52277 0.02205,0.0589 0.05146,0.1458 0.08043,0.20107 0.09691,0.17432 0.246452,0.35744 0.402141,0.48257 0.09926,0.076 0.245403,0.14988 0.361928,0.20107 0.188841,0.0776 0.424955,0.12064 0.643424,0.12064 h 0.281499 c 0.05826,0.0442 0.139256,0.0885 0.20107,0.12065 0.137424,0.0653 0.29216,0.12064 0.442356,0.12064 h 1.849847 c 0.232122,0 0.445335,-0.0912 0.643426,-0.24129 h 0.321713 c 0.150197,0 0.30493,-0.002 0.442354,-0.0402 0.160721,-0.0485 0.348623,-0.14857 0.482569,-0.24129 0.0607,-0.0442 0.147613,-0.10876 0.20107,-0.16086 0.05217,-0.0533 0.116958,-0.14081 0.160857,-0.20107 0.07073,-0.10221 0.156965,-0.24408 0.201071,-0.36193 0.05359,-0.15495 0.08043,-0.34976 0.08043,-0.52277 v -4.62463 c 0,-0.11977 -0.01387,-0.25015 -0.04022,-0.36193 -0.08079,-0.3075 -0.284495,-0.6032 -0.522782,-0.80428 -0.01946,-0.0156 -0.06019,-0.0657 -0.08043,-0.0804 -0.09273,-0.0642 -0.215488,-0.11721 -0.321712,-0.16086 v -9.85245 c 0,-1.12499 -0.419856,-2.066218 -1.005352,-2.453058 -0.169275,-0.103823 -0.371837,-0.160856 -0.562998,-0.160856 h -1.849847 c -0.08193,0 -0.162794,-0.02005 -0.241285,0 z"
     style="opacity:0.77459;fill:url(#linearGradient10099);fill-opacity:1;fill-rule:nonzero;stroke:none;stroke-width:0.7125;stroke-linecap:square;stroke-linejoin:miter;stroke-miterlimit:4;stroke-dasharray:none;stroke-dashoffset:4;stroke-opacity:1" />
   <ellipse
     transform="matrix(1.487028,0,0,1.286851,-23.77696,-37.14954)"
     id="path2676"
     style="opacity:0.495902;fill:url(#radialGradient10101);fill-opacity:1;fill-rule:nonzero;stroke:none;stroke-width:0.7125;stroke-linecap:square;stroke-linejoin:miter;stroke-miterlimit:4;stroke-dasharray:none;stroke-dashoffset:4;stroke-opacity:1"
     cx="64.63961"
     cy="122.04091"
     rx="3.7244337"
     ry="3.1450772" />
   <path
     id="path9053"
     d="m 70.984688,83.364371 0.924924,5.127297 2.194601,-3.785491 -0.746894,-1.221163 -1.045566,0.583104 z"
     style="fill:#c2c2c2;fill-opacity:1;fill-rule:evenodd;stroke:none;stroke-width:1px;stroke-linecap:butt;stroke-linejoin:miter;stroke-opacity:1" />
   <path
     style="fill:url(#radialGradient10103);fill-opacity:1;fill-rule:evenodd;stroke:none;stroke-width:1px;stroke-linecap:butt;stroke-linejoin:miter;stroke-opacity:1"
     d="m 70.984688,83.364371 0.924924,5.127297 2.194601,-3.785491 -0.746894,-1.221163 -1.045566,0.583104 z"
     id="path9073" />
   <path
     id="path9091"
     d="m 70.984688,83.364371 0.924924,5.127297 2.194601,-3.785491 -0.746894,-1.221163 -1.045566,0.583104 z"
     style="fill:url(#radialGradient10105);fill-opacity:1;fill-rule:evenodd;stroke:none;stroke-width:1px;stroke-linecap:butt;stroke-linejoin:miter;stroke-opacity:1" />
   <path
     style="opacity:0.82;fill:url(#radialGradient10107);fill-opacity:1;fill-rule:evenodd;stroke:none;stroke-width:1px;stroke-linecap:butt;stroke-linejoin:miter;stroke-opacity:1"
     d="m 70.984688,83.364371 0.924924,5.127297 2.194601,-3.785491 -0.746894,-1.221163 -1.045566,0.583104 z"
     id="path9101" />
   <path
     style="opacity:0.86;fill:url(#radialGradient11015);fill-opacity:1;fill-rule:nonzero;stroke:none;stroke-width:0.2;stroke-linecap:round;stroke-linejoin:round;stroke-miterlimit:4;stroke-dasharray:none;stroke-dashoffset:4;stroke-opacity:1"
     d="m 85.03125,47.8125 c 0.196614,1.09183 0.355089,2.197348 0.34375,3.25 -0.05261,4.883865 -1.369642,9.321996 -3.5,12.9375 h 4.71875 c 1.403806,-3.284987 2.237023,-7.082146 2.28125,-11.1875 0.01801,-1.671862 0.04466,-3.378765 -0.0625,-5 z"
     transform="matrix(1.033373,0,0,1.033373,-1.449563,-4.240534)"
     id="path10109" />
  </g>
 </g>
 <path
   style="display:inline;mix-blend-mode:normal;fill:url(#linearGradient3403);fill-opacity:1;stroke:url(#linearGradient20558);stroke-width:1.16242;stroke-linecap:butt;stroke-linejoin:round;stroke-miterlimit:4;stroke-dasharray:none;stroke-opacity:1"
   d="M 4.7043071,3.9814882 4.6913695,60.80196 H 58.59546 l 1.022155,-2.866369 c 0,0 -23.87537,0.766388 -32.844441,-4.140386 C 16.257548,48.042344 11.401114,4.0978197 11.401114,4.0978197 Z"
   id="path1686"
   transform="matrix(0.5,0,0,0.5,0.06630362,0.01654936)" />
 <rect
   style="display:inline;fill:none;fill-opacity:1;stroke:url(#linearGradient4557);stroke-width:3.71366;stroke-linejoin:round;stroke-miterlimit:7.8;stroke-dasharray:none;stroke-opacity:0.995146"
   id="rect4539"
   width="62.566689"
   height="62.866646"
   x="1.0323594"
   y="0.59551275"
   ry="6.2447233"
   rx="5.8029528"
   transform="matrix(0.46839137,0,0,0.46743669,0.90638486,1.0268972)" />
</svg>
