<?xml version="1.0" encoding="UTF-8" standalone="no"?>
<!-- Created with Inkscape (http://www.inkscape.org/) -->

<svg
  width="32"
  height="32"
  version="1.1"
  viewBox="0 0 32 32"
  id="svg22"
  xmlns:xlink="http://www.w3.org/1999/xlink"
  xmlns="http://www.w3.org/2000/svg"
  xmlns:svg="http://www.w3.org/2000/svg">
 <defs
   id="defs12">
  <linearGradient
    id="linearGradient1005-3-3"
    x1="5.2535"
    x2="9.3823996"
    y1="15.383"
    y2="2.9421"
    gradientTransform="matrix(0.99999,0,0,0.99999,1.632,-0.61743)"
    gradientUnits="userSpaceOnUse">
   <stop
     stop-color="#fa8200"
     offset="0"
     id="stop2" />
   <stop
     stop-color="#ff9600"
     offset=".36953"
     id="stop4" />
   <stop
     stop-color="#ffb400"
     offset="1"
     id="stop6" />
  </linearGradient>
  <filter
    id="filter4014"
    x="-0.062499933"
    y="-0.057692993"
    width="1.1249999"
    height="1.115386"
    color-interpolation-filters="sRGB">
   <feGaussianBlur
     stdDeviation="1.093751"
     id="feGaussianBlur9" />
  </filter>
  <linearGradient
    xlink:href="#linearGradient3487"
    id="linearGradient3403"
    gradientUnits="userSpaceOnUse"
    x1="6.9491749"
    y1="4.5549412"
    x2="11.215498"
    y2="59.052471" />
  <linearGradient
    id="linearGradient3487">
   <stop
     style="stop-color:#32373c;stop-opacity:1"
     offset="0"
     id="stop3481" />
   <stop
     id="stop3483"
     offset="0.36804965"
     style="stop-color:#1a1a1a;stop-opacity:1" />
   <stop
     style="stop-color:#31363b;stop-opacity:1"
     offset="1"
     id="stop3485" />
  </linearGradient>
  <linearGradient
    xlink:href="#linearGradient20604"
    id="linearGradient20558"
    gradientUnits="userSpaceOnUse"
    x1="25.802212"
    y1="20.373846"
    x2="25.111048"
    y2="58.912758" />
  <linearGradient
    id="linearGradient20604">
   <stop
     id="stop20598"
     offset="0"
     style="stop-color:#3d3d3d;stop-opacity:1" />
   <stop
     style="stop-color:#000000;stop-opacity:1"
     offset="0.61772454"
     id="stop20600" />
   <stop
     id="stop20602"
     offset="1"
     style="stop-color:#3d3d3d;stop-opacity:1" />
  </linearGradient>
  <filter
    style="color-interpolation-filters:sRGB"
    id="filter20720"
    x="-0.01058177"
    y="-0.010228987"
    width="1.0211631"
    height="1.020458">
   <feGaussianBlur
     stdDeviation="2.8658233e-06"
     id="feGaussianBlur20722" />
  </filter>
  <linearGradient
    gradientTransform="translate(0.36067797,-0.13016949)"
    xlink:href="#linearGradient4555"
    id="linearGradient4557"
    x1="43.499737"
    y1="64.011795"
    x2="44.141731"
    y2="0.30621234"
    gradientUnits="userSpaceOnUse" />
  <linearGradient
    id="linearGradient4555">
   <stop
     style="stop-color:#141618;stop-opacity:1"
     offset="0"
     id="stop4551" />
   <stop
     id="stop4559"
     offset="0.51820582"
     style="stop-color:#686868;stop-opacity:1" />
   <stop
     style="stop-color:#31363b;stop-opacity:1"
     offset="1"
     id="stop4553" />
  </linearGradient>
  <filter
    style="color-interpolation-filters:sRGB"
    id="filter4601"
    x="-0.029677541"
    width="1.0593551"
    y="-0.029536129"
    height="1.0590723">
   <feGaussianBlur
     stdDeviation="3.0623412e-06"
     id="feGaussianBlur4603" />
  </filter>
  <linearGradient
    id="c"
    y1="523.79999"
    x1="403.57001"
    y2="536.79999"
    x2="416.57001"
    gradientUnits="userSpaceOnUse"
    gradientTransform="translate(-382.3618,-501.38052)">
   <stop
     stop-color="#292c2f"
     id="stop2-1" />
   <stop
     offset="1"
     stop-opacity="0"
     id="stop4-7" />
  </linearGradient>
  <linearGradient
    xlink:href="#b-2"
    id="linearGradient4189"
    x1="14.369"
    y1="22.521999"
    x2="26.521999"
    y2="22.521999"
    gradientUnits="userSpaceOnUse" />
  <linearGradient
    x1="36"
    gradientUnits="userSpaceOnUse"
    x2="14"
    y2="12"
    y1="44"
    id="b-2">
   <stop
     style="stop-color:#bfc9c9;stop-opacity:1"
     stop-color="#536161"
     id="stop13" />
   <stop
     style="stop-color:#fbfbfb;stop-opacity:1"
     stop-color="#f4f5f5"
     offset="1"
     id="stop15" />
  </linearGradient>
  <linearGradient
    xlink:href="#b-2"
    id="linearGradient4428"
    gradientUnits="userSpaceOnUse"
    x1="31.586"
    y1="36.345001"
    x2="1.2029999"
    y2="6.723" />
 </defs>
 <g
   id="g5"
   transform="matrix(0.71524839,0,0,0.7152484,-1.0653002,-0.79553443)">
  <rect
    style="fill:#226ccc"
    width="39"
    height="39"
    x="5"
    y="4"
    rx="1.95"
    ry="1.95"
    id="rect2" />
  <path
    style="opacity:0.3"
    d="M 6.9492188,4 C 5.8689187,4 5,4.8689187 5,5.9492188 V 17 H 18 V 4 Z M 18,17 V 30 H 31 V 17 Z m 13,0 H 44 V 5.9492188 C 44,4.8689187 43.131081,4 42.050781,4 H 31 Z m 0,13 V 43 H 42.050781 C 43.131081,43 44,42.131081 44,41.050781 V 30 Z M 18,30 H 5 V 41.050781 C 5,42.131081 5.8689187,43 6.9492188,43 H 18 Z"
    id="path2" />
  <path
    style="opacity:0.2"
    d="M 38.267578,7 C 37.980929,7 37.608674,7.0263294 37.25,7.078125 c -0.358657,0.051739 -0.703698,0.1288307 -0.935547,0.2324219 -0.455266,0.198895 -0.858795,0.4443197 -1.212891,0.734375 l 0.59375,0.7324219 c 0.345667,-0.2651935 0.682916,-0.4719225 1.011719,-0.6210938 0.328803,-0.1491709 1.113712,-0.2246094 1.560547,-0.2246094 0.236064,0 0.450777,0.03343 0.642578,0.097656 0.192185,0.064566 0.362226,0.1606095 0.509766,0.2890625 0.295079,0.2486188 0.441406,0.6165184 0.441406,1.1054687 0,0.4060774 -0.08005,0.7759302 -0.240234,1.1074222 -0.160186,0.331492 -0.400332,0.669512 -0.720703,1.017578 -0.311942,0.348066 -0.691837,0.745844 -1.138672,1.19336 L 35,15.091797 V 16 h 5.96875 v -0.994141 h -4.564453 v -0.05078 l 2.28125,-1.826172 c 0.463696,-0.439227 0.869178,-0.85807 1.214844,-1.255859 0.345664,-0.39779 0.614683,-0.799001 0.808593,-1.205078 C 40.902889,10.26189 41,9.8254165 41,9.3613281 41,8.9966872 40.938654,8.6707959 40.816406,8.3828125 40.694159,8.0948291 40.51012,7.8460916 40.265625,7.6347656 40.142945,7.5287286 40.010202,7.4368558 39.865234,7.3574219 39.721373,7.2783819 39.566224,7.2110389 39.400391,7.1582031 h -0.002 C 39.231888,7.1052731 39.055775,7.0655521 38.867141,7.0390625 38.678594,7.0126468 38.478349,7 38.267578,7 Z M 25.099609,20 c -0.612766,0 -1.362549,0.08969 -1.847656,0.269531 -0.476596,0.179837 -0.877767,0.393441 -1.201172,0.638672 l 0.5625,0.734375 c 0.340426,-0.212534 0.684267,-0.388379 1.033203,-0.527344 0.348937,-0.138964 0.971227,-0.207031 1.464844,-0.207031 0.510639,0 0.915019,0.118412 1.212891,0.355469 0.297872,0.228883 0.447265,0.5554 0.447265,0.980469 10e-7,0.498637 -0.196401,0.898719 -0.58789,1.201171 -0.382979,0.302453 -1.149502,0.552735 -1.898438,0.552735 H 24 v 0.820312 h 0.271484 c 0.808511,0 1.434399,0.123909 1.876954,0.369141 0.451063,0.237057 0.677734,0.628097 0.677734,1.175781 0,0.53951 -0.182871,0.964764 -0.548828,1.275391 -0.357447,0.302452 -0.944698,0.453125 -1.761719,0.453125 -0.408511,0 -0.834791,-0.04839 -1.277344,-0.146485 C 22.795728,27.847222 22.382979,27.703636 22,27.515625 v 1.005859 c 0.374468,0.179837 0.765317,0.301793 1.173828,0.367188 C 23.582339,28.962241 24.025357,29 24.501953,29 25.310464,29 25.96983,28.888677 26.480469,28.667969 26.999618,28.44726 27.382098,28.142371 27.628906,27.75 27.875715,27.357629 28,26.903658 28,26.388672 28,25.80829 27.817129,25.338189 27.451172,24.978516 27.093725,24.618843 26.553482,24.39815 25.830078,24.316406 v -0.04883 c 0.570213,-0.114441 1.225981,-0.344176 1.566406,-0.6875 0.348937,-0.351499 0.523438,-0.8216 0.523438,-1.410156 0,-0.629428 -0.233087,-1.147921 -0.701172,-1.556641 C 26.759176,20.204566 26.0528,20 25.099609,20 Z m 13.303369,12.919922 c -0.587234,0 -1.102368,0.118411 -1.544921,0.355469 -0.434043,0.237056 -0.769515,0.576161 -1.007813,1.017578 -0.238298,0.441417 -0.357422,0.968952 -0.357422,1.582031 0,0.841961 0.238251,1.494993 0.714844,1.960938 0.485106,0.457765 1.119364,0.6875 1.902345,0.6875 0.55319,0 1.004578,-0.09874 1.353514,-0.294922 0.348936,-0.20436 0.620662,-0.444729 0.816406,-0.722656 h 0.07617 c -0.01702,0.474114 -0.07561,0.928086 -0.177734,1.361328 -0.102126,0.425068 -0.26826,0.799977 -0.498047,1.126953 -0.229787,0.3188 -0.540151,0.573704 -0.931641,0.761719 -0.382978,0.188009 -0.873005,0.281248 -1.468749,0.28125 -0.417021,-3e-6 -0.791132,-0.05389 -1.123047,-0.160157 v 0.919922 c 0.13617,0.04087 0.319041,0.06959 0.548828,0.08594 0.229791,0.02452 0.429399,0.03711 0.599611,0.03711 0.859575,0 1.562741,-0.147128 2.107422,-0.441406 0.553191,-0.294278 0.977521,-0.687271 1.27539,-1.177735 0.306384,-0.498637 0.514363,-1.049391 0.625,-1.654297 0.119154,-0.613081 0.179688,-1.233853 0.179688,-1.863281 0,-0.87466 -0.135862,-1.59417 -0.408203,-2.158203 -0.27234,-0.572207 -0.643243,-0.997461 -1.111328,-1.27539 -0.468086,-0.286105 -0.991589,-0.429688 -1.570313,-0.429688 z m 0,0.908203 c 0.434043,0 0.796576,0.112914 1.085938,0.341797 0.289361,0.228883 0.50571,0.51605 0.65039,0.859375 0.144682,0.343324 0.216797,0.689517 0.216797,1.041016 0,0.26158 -0.08369,0.516487 -0.253906,0.761718 -0.161703,0.245232 -0.391581,0.449794 -0.689453,0.613282 -0.297873,0.155313 -0.652037,0.232423 -1.060547,0.232421 -0.595745,0 -1.038763,-0.159714 -1.328125,-0.478515 -0.280851,-0.326975 -0.419921,-0.771905 -0.419921,-1.335938 0,-0.686648 0.166132,-1.198053 0.498046,-1.533203 0.340426,-0.335149 0.773122,-0.501953 1.300781,-0.501953 z"
    id="path3" />
  <path
    style="fill:#ffffff"
    d="M 38.267578,6 C 37.980929,6 37.608674,6.0263294 37.25,6.078125 c -0.358657,0.051739 -0.703698,0.1288307 -0.935547,0.2324219 -0.455266,0.198895 -0.858795,0.4443197 -1.212891,0.734375 l 0.59375,0.7324219 c 0.345667,-0.2651935 0.682916,-0.4719225 1.011719,-0.6210938 0.328803,-0.1491709 1.113712,-0.2246094 1.560547,-0.2246094 0.236064,0 0.450777,0.03343 0.642578,0.097656 0.192185,0.064566 0.362226,0.1606095 0.509766,0.2890625 0.295079,0.2486188 0.441406,0.6165184 0.441406,1.1054687 0,0.4060774 -0.08005,0.7759301 -0.240234,1.1074219 -0.160186,0.3314919 -0.400332,0.6695123 -0.720703,1.0175783 -0.311942,0.348066 -0.691837,0.745844 -1.138672,1.19336 L 35,14.091797 V 15 h 5.96875 v -0.994141 h -4.564453 v -0.05078 l 2.28125,-1.826172 c 0.463696,-0.439227 0.869178,-0.85807 1.214844,-1.255859 0.345664,-0.39779 0.614683,-0.799001 0.808593,-1.2050782 C 40.902889,9.2618903 41,8.8254165 41,8.3613281 41,7.9966872 40.938654,7.6707959 40.816406,7.3828125 40.694159,7.0948291 40.51012,6.8460916 40.265625,6.6347656 40.142945,6.5287286 40.010202,6.4368558 39.865234,6.3574219 39.721373,6.2783819 39.566224,6.2110389 39.400391,6.1582031 h -0.002 C 39.231888,6.1052731 39.055775,6.0655521 38.867141,6.0390625 38.678594,6.0126468 38.478349,6 38.267578,6 Z M 25.099609,19 c -0.612766,0 -1.362549,0.08969 -1.847656,0.269531 -0.476596,0.179837 -0.877767,0.393441 -1.201172,0.638672 l 0.5625,0.734375 c 0.340426,-0.212534 0.684267,-0.388379 1.033203,-0.527344 0.348937,-0.138964 0.971227,-0.207031 1.464844,-0.207031 0.510639,0 0.915019,0.118412 1.212891,0.355469 0.297872,0.228883 0.447265,0.5554 0.447265,0.980469 10e-7,0.498637 -0.196401,0.898719 -0.58789,1.201171 -0.382979,0.302453 -1.149502,0.552735 -1.898438,0.552735 H 24 v 0.820312 h 0.271484 c 0.808511,0 1.434399,0.123909 1.876954,0.369141 0.451063,0.237057 0.677734,0.628097 0.677734,1.175781 0,0.53951 -0.182871,0.964764 -0.548828,1.275391 -0.357447,0.302452 -0.944698,0.453125 -1.761719,0.453125 -0.408511,0 -0.834791,-0.04839 -1.277344,-0.146485 C 22.795728,26.847222 22.382979,26.703636 22,26.515625 v 1.005859 c 0.374468,0.179837 0.765317,0.301793 1.173828,0.367188 C 23.582339,27.962241 24.025357,28 24.501953,28 25.310464,28 25.96983,27.888677 26.480469,27.667969 26.999618,27.44726 27.382098,27.142371 27.628906,26.75 27.875715,26.357629 28,25.903658 28,25.388672 28,24.80829 27.817129,24.338189 27.451172,23.978516 27.093725,23.618843 26.553482,23.39815 25.830078,23.316406 v -0.04883 c 0.570213,-0.114441 1.225981,-0.344176 1.566406,-0.6875 0.348937,-0.351499 0.523438,-0.8216 0.523438,-1.410156 0,-0.629428 -0.233087,-1.147921 -0.701172,-1.556641 C 26.759176,19.204566 26.0528,19 25.099609,19 Z m 13.303369,13 c -0.587234,0 -1.102369,0.118411 -1.544922,0.355469 -0.434042,0.237056 -0.769514,0.576161 -1.007812,1.017578 -0.238298,0.441417 -0.357422,0.968952 -0.357422,1.582031 0,0.841961 0.238251,1.494993 0.714844,1.960938 0.485106,0.457765 1.119364,0.6875 1.902344,0.6875 0.55319,0 1.004579,-0.09874 1.353515,-0.294922 0.348936,-0.20436 0.620662,-0.444729 0.816406,-0.722656 h 0.07617 c -0.01702,0.474114 -0.07561,0.928086 -0.177734,1.361328 -0.102127,0.425068 -0.26826,0.799977 -0.498047,1.126953 -0.229787,0.3188 -0.540151,0.573704 -0.931641,0.761719 -0.382978,0.188009 -0.873005,0.281248 -1.46875,0.28125 -0.417021,-3e-6 -0.791132,-0.05389 -1.123046,-0.160157 v 0.919922 c 0.13617,0.04087 0.31904,0.06959 0.548828,0.08594 C 36.935502,40.987411 37.135109,41 37.305322,41 c 0.859575,0 1.562741,-0.147128 2.107422,-0.441406 0.553191,-0.294278 0.977521,-0.687271 1.27539,-1.177735 0.306384,-0.498637 0.514363,-1.049391 0.625,-1.654297 0.119154,-0.613081 0.179688,-1.233853 0.179688,-1.863281 0,-0.87466 -0.135862,-1.59417 -0.408203,-2.158203 -0.27234,-0.572207 -0.643243,-0.997461 -1.111328,-1.27539 C 39.505205,32.143583 38.981702,32 38.402978,32 Z m 0,0.908203 c 0.434043,0 0.796576,0.112914 1.085938,0.341797 0.289361,0.228883 0.50571,0.51605 0.65039,0.859375 0.144682,0.343324 0.216797,0.689517 0.216797,1.041016 0,0.26158 -0.08369,0.516487 -0.253906,0.761718 -0.161703,0.245232 -0.391581,0.449794 -0.689453,0.613282 -0.297873,0.155313 -0.652037,0.232423 -1.060547,0.232421 -0.595745,0 -1.038763,-0.159714 -1.328125,-0.478515 -0.280851,-0.326975 -0.419922,-0.771905 -0.419922,-1.335938 0,-0.686648 0.166132,-1.198053 0.498047,-1.533203 0.340426,-0.335149 0.773122,-0.501953 1.300781,-0.501953 z"
    id="path4" />
 </g>
 <path
   style="display:inline;mix-blend-mode:normal;fill:url(#linearGradient3403);fill-opacity:1;stroke:url(#linearGradient20558);stroke-width:1.16242;stroke-linecap:butt;stroke-linejoin:round;stroke-miterlimit:4;stroke-dasharray:none;stroke-opacity:1"
   d="M 4.7043071,3.9814882 4.6913695,60.80196 H 58.59546 l 1.022155,-2.866369 c 0,0 -23.87537,0.766388 -32.844441,-4.140386 C 16.257548,48.042344 11.401114,4.0978197 11.401114,4.0978197 Z"
   id="path1686"
   transform="matrix(0.49999999,0,0,0.5,0.06630363,0.01654935)" />
 <rect
   style="display:inline;fill:none;fill-opacity:1;stroke:url(#linearGradient4557);stroke-width:3.71366;stroke-linejoin:round;stroke-miterlimit:7.8;stroke-dasharray:none;stroke-opacity:0.995146"
   id="rect4539"
   width="62.567089"
   height="62.866646"
   x="1.0323594"
   y="0.59551275"
   ry="6.2447233"
   rx="5.8029528"
   transform="matrix(0.46839137,0,0,0.46743669,0.90638486,1.0268972)" />
</svg>
