<?xml version="1.0" encoding="UTF-8" standalone="no"?>
<!-- Created with Inkscape (http://www.inkscape.org/) -->

<svg
  width="32"
  height="32"
  version="1.1"
  viewBox="0 0 32 32"
  id="svg22"
  xmlns:xlink="http://www.w3.org/1999/xlink"
  xmlns="http://www.w3.org/2000/svg"
  xmlns:svg="http://www.w3.org/2000/svg">
 <defs
   id="defs12">
  <linearGradient
    id="linearGradient1005-3-3"
    x1="5.2535"
    x2="9.3823996"
    y1="15.383"
    y2="2.9421"
    gradientTransform="matrix(0.99999,0,0,0.99999,1.632,-0.61743)"
    gradientUnits="userSpaceOnUse">
   <stop
     stop-color="#fa8200"
     offset="0"
     id="stop2" />
   <stop
     stop-color="#ff9600"
     offset=".36953"
     id="stop4" />
   <stop
     stop-color="#ffb400"
     offset="1"
     id="stop6" />
  </linearGradient>
  <filter
    id="filter4014"
    x="-0.062499933"
    y="-0.057692993"
    width="1.1249999"
    height="1.115386"
    color-interpolation-filters="sRGB">
   <feGaussianBlur
     stdDeviation="1.093751"
     id="feGaussianBlur9" />
  </filter>
  <linearGradient
    xlink:href="#linearGradient3487"
    id="linearGradient3403"
    gradientUnits="userSpaceOnUse"
    x1="6.9491749"
    y1="4.5549412"
    x2="11.215498"
    y2="59.052471" />
  <linearGradient
    id="linearGradient3487">
   <stop
     style="stop-color:#32373c;stop-opacity:1"
     offset="0"
     id="stop3481" />
   <stop
     id="stop3483"
     offset="0.36804965"
     style="stop-color:#1a1a1a;stop-opacity:1" />
   <stop
     style="stop-color:#31363b;stop-opacity:1"
     offset="1"
     id="stop3485" />
  </linearGradient>
  <linearGradient
    xlink:href="#linearGradient20604"
    id="linearGradient20558"
    gradientUnits="userSpaceOnUse"
    x1="25.802212"
    y1="20.373846"
    x2="25.111048"
    y2="58.912758" />
  <linearGradient
    id="linearGradient20604">
   <stop
     id="stop20598"
     offset="0"
     style="stop-color:#3d3d3d;stop-opacity:1" />
   <stop
     style="stop-color:#000000;stop-opacity:1"
     offset="0.61772454"
     id="stop20600" />
   <stop
     id="stop20602"
     offset="1"
     style="stop-color:#3d3d3d;stop-opacity:1" />
  </linearGradient>
  <filter
    style="color-interpolation-filters:sRGB"
    id="filter20720"
    x="-0.010582008"
    y="-0.010229218"
    width="1.0211636"
    height="1.0204585">
   <feGaussianBlur
     stdDeviation="8.326552e-06"
     id="feGaussianBlur20722" />
  </filter>
  <linearGradient
    gradientTransform="translate(0.36067797,-0.13016949)"
    xlink:href="#linearGradient4555"
    id="linearGradient4557"
    x1="43.499737"
    y1="64.011795"
    x2="44.141731"
    y2="0.30621234"
    gradientUnits="userSpaceOnUse" />
  <linearGradient
    id="linearGradient4555">
   <stop
     style="stop-color:#141618;stop-opacity:1"
     offset="0"
     id="stop4551" />
   <stop
     id="stop4559"
     offset="0.51820582"
     style="stop-color:#686868;stop-opacity:1" />
   <stop
     style="stop-color:#31363b;stop-opacity:1"
     offset="1"
     id="stop4553" />
  </linearGradient>
  <filter
    style="color-interpolation-filters:sRGB"
    id="filter4601"
    x="-0.029677955"
    width="1.0593559"
    y="-0.029536352"
    height="1.0590727">
   <feGaussianBlur
     stdDeviation="8.8975279e-06"
     id="feGaussianBlur4603" />
  </filter>
  <linearGradient
    id="c"
    gradientUnits="userSpaceOnUse"
    x1="4"
    x2="4"
    y1="3"
    y2="45">
   <stop
     offset="0"
     stop-color="#c6cdd1"
     id="stop2-8" />
   <stop
     offset="1"
     stop-color="#e0e5e7"
     id="stop4-8" />
  </linearGradient>
  <linearGradient
    id="d"
    gradientUnits="userSpaceOnUse"
    x1="4"
    x2="4"
    y1="3"
    y2="45">
   <stop
     offset="0"
     stop-color="#292c2f"
     id="stop7" />
   <stop
     offset="1"
     stop-opacity="0"
     id="stop9" />
  </linearGradient>
  <linearGradient
    id="a"
    gradientUnits="userSpaceOnUse"
    x1="4"
    x2="4"
    y1="4"
    y2="45"
    gradientTransform="matrix(1,0,0,0.87287307,0,3.8220587)">
   <stop
     offset="0"
     stop-color="#21c9fb"
     id="stop12" />
   <stop
     offset="1"
     stop-color="#1a86f2"
     id="stop14" />
  </linearGradient>
  <linearGradient
    xlink:href="#d"
    id="linearGradient896"
    gradientUnits="userSpaceOnUse"
    x1="4"
    y1="3"
    x2="4"
    y2="45"
    gradientTransform="matrix(1,0,0,0.9376976,0,2.7413054)" />
  <linearGradient
    xlink:href="#d"
    id="linearGradient19071"
    gradientUnits="userSpaceOnUse"
    x1="4"
    y1="3"
    x2="4"
    y2="45" />
 </defs>
 <g
   id="g862"
   transform="matrix(0.55396622,0,0,0.67732478,3.2847325,-1.0695328)">
  <path
    style="fill:url(#c)"
    d="M 0,4 V 44 H 48 V 4 Z"
    id="path17" />
  <path
    style="opacity:0.2;fill:url(#linearGradient19071)"
    d="M 46.5,12.57 1.5,41.14 4.5,44 H 48 V 14 Z"
    id="path19" />
  <path
    style="fill:#566069"
    d="M 0,4 V 9.7 H 48 V 4 Z"
    id="path21" />
  <path
    style="fill:#3daee9"
    d="m 0,9.7 v 1.44 H 48 V 9.7 Z"
    id="path23" />
  <path
    style="fill:#ffffff"
    d="m 1.5,12.57 v 28.57 h 45 V 12.57 Z"
    id="path25" />
  <path
    style="fill:#eff0f1"
    d="m 45,5.4 c -0.83,0 -1.5,0.6 -1.5,1.46 0,0.79 0.669,1.44 1.5,1.44 0.831,0 1.5,-0.65 1.5,-1.44 C 46.5,6 45.831,5.4 45,5.4 Z"
    id="path27" />
  <path
    style="opacity:0.2;fill:url(#linearGradient896);stroke-width:0.968348"
    d="m 21.15,18.925966 a 6.9,6.5076214 0 0 0 -6.65,4.819766 6.9,6.5076214 0 0 0 0.4,4.472817 L 14,28.996838 30,44 h 18 v -5.626186 l -22.2,-19.31657 -1,0.843928 A 6.9,6.5076214 0 0 0 23,19.151013 6.9,6.5076214 0 0 0 21.15,18.925966 Z"
    id="path29" />
  <path
    style="fill:url(#a);stroke-width:0.934277"
    d="m 21.25,17.788028 c -4.57,0 -8.25,3.212172 -8.25,7.201202 0,3.98903 3.68,7.201203 8.25,7.201203 1.95,0 3.74258,-0.593554 5.15,-1.571171 L 33.7,36.991235 35,35.8565 27.7,29.484526 c 1.12,-1.222021 1.8,-2.793193 1.8,-4.495296 0,-3.98903 -3.68,-7.201202 -8.25,-7.201202 z m 0,1.571171 c 3.55,0 6.417001,2.496417 6.4,5.586388 0,3.098699 -2.86,5.586387 -6.42,5.586387 -3.55,0 -6.4,-2.496417 -6.4,-5.586387 0,-3.098699 2.86,-5.586388 6.4,-5.586388 z"
    id="path31" />
 </g>
 <path
   style="display:inline;mix-blend-mode:normal;fill:url(#linearGradient3403);fill-opacity:1;stroke:url(#linearGradient20558);stroke-width:1.16242;stroke-linecap:butt;stroke-linejoin:round;stroke-miterlimit:4;stroke-dasharray:none;stroke-opacity:1"
   d="M 4.7043071,3.9814882 4.6913695,60.80196 H 58.59546 l 1.022155,-2.866369 c 0,0 -23.87537,0.766388 -32.844441,-4.140386 C 16.257548,48.042344 11.401114,4.0978197 11.401114,4.0978197 Z"
   id="path1686"
   transform="matrix(0.5,0,0,0.5,0.06630362,0.01654936)" />
 <rect
   style="display:inline;fill:none;fill-opacity:1;stroke:url(#linearGradient4557);stroke-width:3.71366;stroke-linejoin:round;stroke-miterlimit:7.8;stroke-dasharray:none;stroke-opacity:0.995146"
   id="rect4539"
   width="62.566689"
   height="62.866646"
   x="1.0323594"
   y="0.59551275"
   ry="6.2447233"
   rx="5.8029528"
   transform="matrix(0.46839137,0,0,0.46743669,0.90638486,1.0268972)" />
</svg>
