<?xml version="1.0" encoding="UTF-8" standalone="no"?>
<!-- Created with Inkscape (http://www.inkscape.org/) -->

<svg
  width="32"
  height="32"
  version="1.1"
  viewBox="0 0 32 32"
  id="svg22"
  xmlns:xlink="http://www.w3.org/1999/xlink"
  xmlns="http://www.w3.org/2000/svg"
  xmlns:svg="http://www.w3.org/2000/svg">
 <defs
   id="defs12">
  <linearGradient
    id="linearGradient1005-3-3"
    x1="5.2535"
    x2="9.3823996"
    y1="15.383"
    y2="2.9421"
    gradientTransform="matrix(0.99999,0,0,0.99999,1.632,-0.61743)"
    gradientUnits="userSpaceOnUse">
   <stop
     stop-color="#fa8200"
     offset="0"
     id="stop2" />
   <stop
     stop-color="#ff9600"
     offset=".36953"
     id="stop4" />
   <stop
     stop-color="#ffb400"
     offset="1"
     id="stop6" />
  </linearGradient>
  <filter
    id="filter4014"
    x="-0.062499933"
    y="-0.057692993"
    width="1.1249999"
    height="1.115386"
    color-interpolation-filters="sRGB">
   <feGaussianBlur
     stdDeviation="1.093751"
     id="feGaussianBlur9" />
  </filter>
  <linearGradient
    xlink:href="#linearGradient3487"
    id="linearGradient3403"
    gradientUnits="userSpaceOnUse"
    x1="6.9491749"
    y1="4.5549412"
    x2="11.215498"
    y2="59.052471" />
  <linearGradient
    id="linearGradient3487">
   <stop
     style="stop-color:#32373c;stop-opacity:1"
     offset="0"
     id="stop3481" />
   <stop
     id="stop3483"
     offset="0.36804965"
     style="stop-color:#1a1a1a;stop-opacity:1" />
   <stop
     style="stop-color:#31363b;stop-opacity:1"
     offset="1"
     id="stop3485" />
  </linearGradient>
  <linearGradient
    xlink:href="#linearGradient20604"
    id="linearGradient20558"
    gradientUnits="userSpaceOnUse"
    x1="25.802212"
    y1="20.373846"
    x2="25.111048"
    y2="58.912758" />
  <linearGradient
    id="linearGradient20604">
   <stop
     id="stop20598"
     offset="0"
     style="stop-color:#3d3d3d;stop-opacity:1" />
   <stop
     style="stop-color:#000000;stop-opacity:1"
     offset="0.61772454"
     id="stop20600" />
   <stop
     id="stop20602"
     offset="1"
     style="stop-color:#3d3d3d;stop-opacity:1" />
  </linearGradient>
  <filter
    style="color-interpolation-filters:sRGB"
    id="filter20720"
    x="-0.010590121"
    y="-0.01023706"
    width="1.0211798"
    height="1.0204741">
   <feGaussianBlur
     stdDeviation="0.00019398128"
     id="feGaussianBlur20722" />
  </filter>
  <linearGradient
    gradientTransform="translate(0.36067797,-0.13016949)"
    xlink:href="#linearGradient4555"
    id="linearGradient4557"
    x1="43.499737"
    y1="64.011795"
    x2="44.141731"
    y2="0.30621234"
    gradientUnits="userSpaceOnUse" />
  <linearGradient
    id="linearGradient4555">
   <stop
     style="stop-color:#141618;stop-opacity:1"
     offset="0"
     id="stop4551" />
   <stop
     id="stop4559"
     offset="0.51820582"
     style="stop-color:#686868;stop-opacity:1" />
   <stop
     style="stop-color:#31363b;stop-opacity:1"
     offset="1"
     id="stop4553" />
  </linearGradient>
  <filter
    style="color-interpolation-filters:sRGB"
    id="filter4601"
    x="-0.029685565"
    width="1.0593711"
    y="-0.029543925"
    height="1.0590879">
   <feGaussianBlur
     stdDeviation="0.00020728314"
     id="feGaussianBlur4603" />
  </filter>
  <linearGradient
    id="b"
    y1="16"
    x1="16"
    y2="32"
    x2="32"
    gradientUnits="userSpaceOnUse"
    gradientTransform="translate(384.57,499.8)">
   <stop
     stop-color="#383e51"
     id="stop19812" />
   <stop
     offset="1"
     stop-color="#655c6f"
     stop-opacity="0"
     id="stop19814" />
  </linearGradient>
  <linearGradient
    id="c"
    y1="32"
    y2="16"
    x2="0"
    gradientUnits="userSpaceOnUse"
    gradientTransform="matrix(1.2522973,0,0,1.2522973,365.27612,487.66676)">
   <stop
     stop-color="#b985ce"
     id="stop19817" />
   <stop
     offset="1"
     stop-color="#e2cdeb"
     id="stop19819" />
  </linearGradient>
 </defs>
 <g
   id="g869"
   transform="matrix(0.65449663,0,0,0.65449663,4.2909202,2.5202497)">
  <rect
    y="-0.89045805"
    x="-1.509313"
    height="41.80632"
    width="41.607147"
    id="rect4539-1"
    style="opacity:1;fill:#9955b4;fill-opacity:1;stroke:none;stroke-width:0.76209;stroke-linejoin:round;stroke-miterlimit:7.8;stroke-dasharray:none;stroke-opacity:0.995146" />
  <g
    transform="matrix(1.33,0,0,1.33,-502.39202,-668.55943)"
    id="g19834">
   <path
     style="color:#000000;fill:url(#c);stroke-width:2.5046"
     d="m 395.33127,507.70354 c -5.53265,0 -10.01838,1.1208 -10.01838,2.50459 v 15.02757 c 0,1.38379 4.48573,2.5046 10.01838,2.5046 5.53265,0 10.01838,-1.12081 10.01838,-2.5046 v -15.02757 c 0,-1.38379 -4.48573,-2.50459 -10.01838,-2.50459 m 0,1.25229 c 4.84138,0 8.76608,0.56103 8.76608,1.2523 0,0.69127 -3.9247,1.2523 -8.76608,1.2523 -4.84139,0 -8.76608,-0.56103 -8.76608,-1.2523 0,-0.69127 3.92469,-1.2523 8.76608,-1.2523 m -8.76608,2.44073 c 1.69686,0.78018 4.9641,1.31617 8.76608,1.31617 3.80197,0 7.06922,-0.53599 8.76608,-1.31617 v 3.82076 c 0,0.69127 -3.9247,1.2523 -8.76608,1.2523 -4.84139,0 -8.76608,-0.56103 -8.76608,-1.2523 z m 0,5.00919 c 1.69686,0.78018 4.9641,1.31616 8.76608,1.31616 3.80197,0 7.06922,-0.53598 8.76608,-1.31616 v 3.82076 c 0,0.69127 -3.9247,1.2523 -8.76608,1.2523 -4.84139,0 -8.76608,-0.56103 -8.76608,-1.2523 z m 0,5.00919 c 1.69686,0.78018 4.9641,1.31617 8.76608,1.31617 3.80197,0 7.06922,-0.53599 8.76608,-1.31617 v 3.82076 c 0,0.69127 -3.9247,1.2523 -8.76608,1.2523 -4.84139,0 -8.76608,-0.56103 -8.76608,-1.2523 z"
     id="path19832" />
  </g>
 </g>
 <path
   style="display:inline;mix-blend-mode:normal;fill:url(#linearGradient3403);fill-opacity:1;stroke:url(#linearGradient20558);stroke-width:1.16242;stroke-linecap:butt;stroke-linejoin:round;stroke-miterlimit:4;stroke-dasharray:none;stroke-opacity:1"
   d="M 4.7043071,3.9814882 4.6913695,60.80196 H 58.59546 l 1.022155,-2.866369 c 0,0 -23.87537,0.766388 -32.844441,-4.140386 C 16.257548,48.042344 11.401114,4.0978197 11.401114,4.0978197 Z"
   id="path1686"
   transform="matrix(0.5,0,0,0.5,0.06630362,0.01654936)" />
 <rect
   style="display:inline;fill:none;fill-opacity:1;stroke:url(#linearGradient4557);stroke-width:3.71366;stroke-linejoin:round;stroke-miterlimit:7.8;stroke-dasharray:none;stroke-opacity:0.995146"
   id="rect4539"
   width="62.566689"
   height="62.866646"
   x="1.0323594"
   y="0.59551275"
   ry="6.2447233"
   rx="5.8029528"
   transform="matrix(0.46839137,0,0,0.46743669,0.90638486,1.0268972)" />
</svg>
