<?xml version="1.0" encoding="UTF-8" standalone="no"?>
<!-- Created with Inkscape (http://www.inkscape.org/) -->

<svg
  width="32"
  height="32"
  version="1.1"
  viewBox="0 0 32 32"
  id="svg22"
  xmlns:xlink="http://www.w3.org/1999/xlink"
  xmlns="http://www.w3.org/2000/svg"
  xmlns:svg="http://www.w3.org/2000/svg">
 <defs
   id="defs12">
  <linearGradient
    id="linearGradient917">
   <stop
     style="stop-color:#000000;stop-opacity:0.99607843"
     offset="0"
     id="stop913" />
   <stop
     style="stop-color:#353a3f;stop-opacity:0.99607843"
     offset="1"
     id="stop915" />
  </linearGradient>
  <linearGradient
    id="linearGradient1005-3-3"
    x1="5.2535"
    x2="9.3823996"
    y1="15.383"
    y2="2.9421"
    gradientTransform="matrix(0.99999,0,0,0.99999,1.632,-0.61743)"
    gradientUnits="userSpaceOnUse">
   <stop
     stop-color="#fa8200"
     offset="0"
     id="stop2" />
   <stop
     stop-color="#ff9600"
     offset=".36953"
     id="stop4" />
   <stop
     stop-color="#ffb400"
     offset="1"
     id="stop6" />
  </linearGradient>
  <filter
    id="filter4014"
    x="-0.062499933"
    y="-0.057692993"
    width="1.1249999"
    height="1.115386"
    color-interpolation-filters="sRGB">
   <feGaussianBlur
     stdDeviation="1.093751"
     id="feGaussianBlur9" />
  </filter>
  <linearGradient
    xlink:href="#linearGradient3487"
    id="linearGradient3403"
    gradientUnits="userSpaceOnUse"
    x1="6.9491749"
    y1="4.5549412"
    x2="11.215498"
    y2="59.052471" />
  <linearGradient
    id="linearGradient3487">
   <stop
     style="stop-color:#32373c;stop-opacity:1"
     offset="0"
     id="stop3481" />
   <stop
     id="stop3483"
     offset="0.36804965"
     style="stop-color:#1a1a1a;stop-opacity:1" />
   <stop
     style="stop-color:#31363b;stop-opacity:1"
     offset="1"
     id="stop3485" />
  </linearGradient>
  <linearGradient
    xlink:href="#linearGradient20604"
    id="linearGradient20558"
    gradientUnits="userSpaceOnUse"
    x1="25.802212"
    y1="20.373846"
    x2="25.111048"
    y2="58.912758" />
  <linearGradient
    id="linearGradient20604">
   <stop
     id="stop20598"
     offset="0"
     style="stop-color:#3d3d3d;stop-opacity:1" />
   <stop
     style="stop-color:#000000;stop-opacity:1"
     offset="0.61772454"
     id="stop20600" />
   <stop
     id="stop20602"
     offset="1"
     style="stop-color:#3d3d3d;stop-opacity:1" />
  </linearGradient>
  <filter
    style="color-interpolation-filters:sRGB"
    id="filter20720"
    x="-0.010581847"
    y="-0.010229062"
    width="1.0211632"
    height="1.0204581">
   <feGaussianBlur
     stdDeviation="4.6421452e-06"
     id="feGaussianBlur20722" />
  </filter>
  <linearGradient
    gradientTransform="translate(0.36067797,-0.13016949)"
    xlink:href="#linearGradient4555"
    id="linearGradient4557"
    x1="43.499737"
    y1="64.011795"
    x2="44.141731"
    y2="0.30621234"
    gradientUnits="userSpaceOnUse" />
  <linearGradient
    id="linearGradient4555">
   <stop
     style="stop-color:#141618;stop-opacity:1"
     offset="0"
     id="stop4551" />
   <stop
     id="stop4559"
     offset="0.51820582"
     style="stop-color:#686868;stop-opacity:1" />
   <stop
     style="stop-color:#31363b;stop-opacity:1"
     offset="1"
     id="stop4553" />
  </linearGradient>
  <filter
    style="color-interpolation-filters:sRGB"
    id="filter4601"
    x="-0.029677804"
    width="1.0593556"
    y="-0.029536201"
    height="1.0590724">
   <feGaussianBlur
     stdDeviation="4.9604707e-06"
     id="feGaussianBlur4603" />
  </filter>
  <linearGradient
    xlink:href="#linearGradient917"
    id="linearGradient919"
    x1="7.400631"
    y1="41.743092"
    x2="33.063145"
    y2="7.1074457"
    gradientUnits="userSpaceOnUse"
    gradientTransform="scale(0.665)" />
  <linearGradient
    id="a"
    x1="543.79999"
    x2="503.79999"
    gradientUnits="userSpaceOnUse"
    gradientTransform="matrix(0,1,-1.16667,0,-452.67,-499.8)">
   <stop
     stop-color="#197cf1"
     id="stop17444" />
   <stop
     offset="1"
     stop-color="#21c9fb"
     id="stop17446" />
  </linearGradient>
  <linearGradient
    id="e"
    y1="44"
    y2="20"
    x2="0"
    gradientUnits="userSpaceOnUse">
   <stop
     stop-color="#eef1f2"
     id="stop17464" />
   <stop
     offset="1"
     stop-color="#f9fafb"
     id="stop17466" />
  </linearGradient>
  <linearGradient
    id="c"
    x1="384.57001"
    x2="414.57001"
    gradientUnits="userSpaceOnUse">
   <stop
     stop-opacity=".275"
     id="stop17454" />
   <stop
     offset="1"
     stop-color="#ffffff"
     stop-opacity="0"
     id="stop17456" />
  </linearGradient>
  <linearGradient
    id="d"
    y1="547.79999"
    x1="432.57001"
    y2="527.79999"
    x2="421.01999"
    gradientUnits="userSpaceOnUse">
   <stop
     stop-opacity=".082"
     id="stop17459" />
   <stop
     offset="1"
     stop-opacity="0"
     id="stop17461" />
  </linearGradient>
  <linearGradient
    id="b"
    y1="547.79999"
    x1="384.57001"
    y2="530.47998"
    x2="394.57001"
    gradientUnits="userSpaceOnUse">
   <stop
     stop-color="#ffffff"
     stop-opacity="0"
     id="stop17449" />
   <stop
     offset="1"
     stop-color="#ffffff"
     stop-opacity=".314"
     id="stop17451" />
  </linearGradient>
  <linearGradient
    id="f"
    y1="523.79999"
    y2="507.79999"
    gradientUnits="userSpaceOnUse"
    x2="0"
    gradientTransform="translate(0,4)">
   <stop
     stop-color="#7cbaf8"
     id="stop17469" />
   <stop
     offset="1"
     stop-color="#f4fcff"
     id="stop17471" />
  </linearGradient>
  <linearGradient
    id="g"
    y1="511.79999"
    x1="414.57001"
    y2="519.79999"
    x2="422.57001"
    gradientUnits="userSpaceOnUse">
   <stop
     stop-color="#292c2f"
     id="stop17474" />
   <stop
     offset="1"
     stop-opacity="0"
     id="stop17476" />
  </linearGradient>
 </defs>
 <rect
   style="display:inline;fill:url(#linearGradient919);fill-opacity:1;fill-rule:evenodd;stroke:none;stroke-width:0.617;stroke-linejoin:round;stroke-miterlimit:7.8"
   id="rect1192"
   width="27.986261"
   height="28.403553"
   x="2.1033354"
   y="2.0072956"
   ry="0" />
 <g
   transform="matrix(0.58500176,0,0,0.53927204,-220.83909,-264.27178)"
   id="g17507">
  <g
    transform="translate(384.57,499.8)"
    id="g17487">
   <path
     style="fill:#c8cfd3;fill-rule:evenodd"
     d="M 24,8 4,20 24,35 44,20 Z"
     id="path17481" />
   <path
     style="fill:url(#a)"
     d="M 10,4 V 44 H 38 V 12 L 30,4 Z"
     id="path17483" />
   <path
     style="fill:url(#e)"
     d="M 4,20 V 44 H 44 V 20 L 28,32 h -8 z"
     id="path17485" />
  </g>
  <g
    style="fill-rule:evenodd"
    id="g17495">
   <path
     style="fill:url(#c)"
     d="m 388.57,543.8 16,-12 h 8 l 16,12 z"
     id="path17489" />
   <path
     style="fill:url(#d)"
     d="m 428.57,543.8 -16,-12 16,-12 z"
     id="path17491" />
   <path
     style="fill:url(#b)"
     d="m 388.57,543.8 16,-12 -16,-12 z"
     id="path17493" />
  </g>
  <rect
    style="fill:#d1d3d4"
    width="40"
    x="388.57001"
    y="542.79999"
    height="1"
    id="rect17497" />
  <path
    style="fill:url(#f)"
    d="m 404.57,511.8 c -0.554,0 -1,0.446 -1,1 0,0.554 0.446,1 1,1 0.554,0 1,-0.446 1,-1 0,-0.554 -0.446,-1 -1,-1 m 7,0 -2,2 3,3 -3,3 2,2 5,-5 z m -9.5,6 c -0.831,0 -1.5,0.669 -1.5,1.5 0,0.831 0.669,1.5 1.5,1.5 0.831,0 1.5,-0.669 1.5,-1.5 0,-0.831 -0.669,-1.5 -1.5,-1.5 m 4.5,6 c -1.108,0 -2,0.892 -2,2 0,1.108 0.892,2 2,2 1.108,0 2,-0.892 2,-2 0,-1.108 -0.892,-2 -2,-2"
    id="path17499" />
  <g
    style="fill-rule:evenodd"
    id="g17505">
   <path
     style="fill:#313437"
     d="m 422.57,511.8 h -8 v -8 z"
     id="path17501" />
   <path
     style="opacity:0.2;fill:url(#g)"
     d="m 414.57,511.8 h 8 v 8 z"
     id="path17503" />
  </g>
 </g>
 <path
   style="display:inline;mix-blend-mode:normal;fill:url(#linearGradient3403);fill-opacity:1;stroke:url(#linearGradient20558);stroke-width:1.16242;stroke-linecap:butt;stroke-linejoin:round;stroke-miterlimit:4;stroke-dasharray:none;stroke-opacity:1"
   d="M 4.7043071,3.9814882 4.6913695,60.80196 H 58.59546 l 1.022155,-2.866369 c 0,0 -23.87537,0.766388 -32.844441,-4.140386 C 16.257548,48.042344 11.401114,4.0978197 11.401114,4.0978197 Z"
   id="path1686"
   transform="matrix(0.5,0,0,0.5,0.06630362,0.01654936)" />
 <rect
   style="display:inline;fill:none;fill-opacity:1;stroke:url(#linearGradient4557);stroke-width:3.71366;stroke-linejoin:round;stroke-miterlimit:7.8;stroke-dasharray:none;stroke-opacity:0.995146"
   id="rect4539"
   width="62.566689"
   height="62.866646"
   x="1.0323594"
   y="0.59551275"
   ry="6.2447233"
   rx="5.8029528"
   transform="matrix(0.46839137,0,0,0.46743669,0.90638486,1.0268972)" />
</svg>
