<?xml version="1.0" encoding="UTF-8" standalone="no"?>
<!-- Created with Inkscape (http://www.inkscape.org/) -->

<svg
  width="32"
  height="32"
  version="1.1"
  viewBox="0 0 32 32"
  id="svg22"
  xmlns:xlink="http://www.w3.org/1999/xlink"
  xmlns="http://www.w3.org/2000/svg"
  xmlns:svg="http://www.w3.org/2000/svg">
 <defs
   id="defs12">
  <linearGradient
    id="linearGradient1005-3-3"
    x1="5.2535"
    x2="9.3823996"
    y1="15.383"
    y2="2.9421"
    gradientTransform="matrix(0.99999,0,0,0.99999,1.632,-0.61743)"
    gradientUnits="userSpaceOnUse">
   <stop
     stop-color="#fa8200"
     offset="0"
     id="stop2" />
   <stop
     stop-color="#ff9600"
     offset=".36953"
     id="stop4" />
   <stop
     stop-color="#ffb400"
     offset="1"
     id="stop6" />
  </linearGradient>
  <filter
    id="filter4014"
    x="-0.062499933"
    y="-0.057692993"
    width="1.1249999"
    height="1.115386"
    color-interpolation-filters="sRGB">
   <feGaussianBlur
     stdDeviation="1.093751"
     id="feGaussianBlur9" />
  </filter>
  <linearGradient
    xlink:href="#linearGradient3487"
    id="linearGradient3403"
    gradientUnits="userSpaceOnUse"
    x1="6.9491749"
    y1="4.5549412"
    x2="11.215498"
    y2="59.052471" />
  <linearGradient
    id="linearGradient3487">
   <stop
     style="stop-color:#32373c;stop-opacity:1"
     offset="0"
     id="stop3481" />
   <stop
     id="stop3483"
     offset="0.36804965"
     style="stop-color:#1a1a1a;stop-opacity:1" />
   <stop
     style="stop-color:#31363b;stop-opacity:1"
     offset="1"
     id="stop3485" />
  </linearGradient>
  <linearGradient
    xlink:href="#linearGradient20604"
    id="linearGradient20558"
    gradientUnits="userSpaceOnUse"
    x1="25.802212"
    y1="20.373846"
    x2="25.111048"
    y2="58.912758" />
  <linearGradient
    id="linearGradient20604">
   <stop
     id="stop20598"
     offset="0"
     style="stop-color:#3d3d3d;stop-opacity:1" />
   <stop
     style="stop-color:#000000;stop-opacity:1"
     offset="0.61772454"
     id="stop20600" />
   <stop
     id="stop20602"
     offset="1"
     style="stop-color:#3d3d3d;stop-opacity:1" />
  </linearGradient>
  <filter
    style="color-interpolation-filters:sRGB"
    id="filter20720"
    x="-0.010581662"
    y="-0.010228883"
    width="1.0211629"
    height="1.0204578">
   <feGaussianBlur
     stdDeviation="4.0300511e-07"
     id="feGaussianBlur20722" />
  </filter>
  <linearGradient
    gradientTransform="translate(0.36067797,-0.13016949)"
    xlink:href="#linearGradient4555"
    id="linearGradient4557"
    x1="43.499737"
    y1="64.011795"
    x2="44.141731"
    y2="0.30621234"
    gradientUnits="userSpaceOnUse" />
  <linearGradient
    id="linearGradient4555">
   <stop
     style="stop-color:#141618;stop-opacity:1"
     offset="0"
     id="stop4551" />
   <stop
     id="stop4559"
     offset="0.51820582"
     style="stop-color:#686868;stop-opacity:1" />
   <stop
     style="stop-color:#31363b;stop-opacity:1"
     offset="1"
     id="stop4553" />
  </linearGradient>
  <filter
    style="color-interpolation-filters:sRGB"
    id="filter4601"
    x="-0.02967763"
    width="1.0593553"
    y="-0.029536028"
    height="1.0590721">
   <feGaussianBlur
     stdDeviation="4.3064035e-07"
     id="feGaussianBlur4603" />
  </filter>
  <linearGradient
    id="a"
    y1="44"
    y2="4"
    gradientUnits="userSpaceOnUse"
    x2="0"
    gradientTransform="translate(0,1004.36)">
   <stop
     stop-color="#63984b"
     id="stop13290" />
   <stop
     offset="1"
     stop-color="#8fc278"
     id="stop13292" />
  </linearGradient>
  <linearGradient
    y2="41"
    x2="44"
    y1="11"
    x1="17"
    gradientTransform="translate(0,1004.36)"
    gradientUnits="userSpaceOnUse"
    id="linearGradient13416"
    xlink:href="#b" />
  <linearGradient
    id="b"
    y1="11"
    x1="17"
    y2="41"
    gradientUnits="userSpaceOnUse"
    x2="44"
    gradientTransform="translate(0,1004.36)">
   <stop
     id="stop13295" />
   <stop
     offset="1"
     stop-opacity="0"
     id="stop13297" />
  </linearGradient>
  <linearGradient
    id="c"
    y1="40"
    y2="6"
    gradientUnits="userSpaceOnUse"
    x2="0"
    gradientTransform="matrix(0.94118,0,0,0.91176,1.412,1006.44)">
   <stop
     stop-color="#b1b1b1"
     id="stop13300" />
   <stop
     offset="1"
     stop-color="#dddddd"
     id="stop13302" />
  </linearGradient>
  <linearGradient
    xlink:href="#b"
    id="d"
    y1="21"
    x1="23"
    y2="39"
    gradientUnits="userSpaceOnUse"
    x2="40"
    gradientTransform="translate(0,1004.36)" />
  <linearGradient
    id="e"
    y1="1040.95"
    y2="1012.95"
    gradientUnits="userSpaceOnUse"
    x2="0">
   <stop
     stop-color="#f2f2f2"
     id="stop13306" />
   <stop
     offset="1"
     stop-color="#ffffff"
     id="stop13308" />
  </linearGradient>
 </defs>
 <g
   transform="matrix(0.64277199,0,0,0.68853029,1.6980954,-692.65919)"
   id="g13367">
  <g
    style="fill-rule:evenodd"
    id="g13317">
   <path
     style="fill:#dce269"
     d="m 4,1008.36 v 9 l 3,2 -3,2 v 27 h 40 v -40 z"
     id="path13313" />
   <path
     style="fill:url(#a)"
     d="m 4,1008.36 v 8 l 3,2 -3,2 v 27 h 40 v -39 z"
     id="path13315" />
  </g>
  <g
    style="color:#000000;fill:#dee372"
    id="g13323">
   <path
     style="opacity:0.6"
     d="m 9,1044.36 v 1 h 1 v -1 z m 1,1 v 1 h 1 v -1 z m 1,0 h 1 v -1 h -1 z m 1,0 v 1 h 1 v -1 z m 1,0 h 1 v -1 h -1 z m 1,0 v 1 h 1 v -1 z m 1,0 h 1 v -1 h -1 z m 1,0 v 1 h 1 v -1 z m 1,0 h 1 v -1 h -1 z m 1,0 v 1 h 1 v -1 z m 1,0 h 1 v -1 h -1 z m 1,0 v 1 h 1 v -1 z m 1,0 h 1 v -1 h -1 z m 1,0 v 1 h 1 v -1 z m 1,0 h 1 v -1 h -1 z m 1,0 v 1 h 1 v -1 z"
     id="path13319" />
   <path
     style="opacity:0.6"
     d="m 35,1044.36 v 1 h 1 v -1 z m 1,1 v 1 h 1 v -1 z m 1,0 h 1 v -1 h -1 z m 1,0 v 1 h 1 v -1 z m 1,0 h 1 v -1 h -1 z m -4,0 h -1 v 1 h 1 z"
     id="path13321" />
  </g>
  <path
    style="fill:#e6ea97;fill-rule:evenodd"
    d="m 43,1044.36 -2,2 h 2 z"
    id="path13325" />
  <path
    style="color:#000000;opacity:0.6;fill:#dee372"
    d="m 42,1013.36 v 1 h 1 v -1 z m 0,1 h -1 v 1 h 1 z m 0,1 v 1 h 1 v -1 z m 0,1 h -1 v 1 h 1 z m 0,1 v 1 h 1 v -1 z m 0,1 h -1 v 1 h 1 z m 0,1 v 1 h 1 v -1 z m 0,1 h -1 v 1 h 1 z m 0,1 v 1 h 1 v -1 z m 0,1 h -1 v 1 h 1 z m 0,1 v 1 h 1 v -1 z m 0,1 h -1 v 1 h 1 z m 0,1 v 1 h 1 v -1 z m 0,1 h -1 v 1 h 1 z m 0,1 v 1 h 1 v -1 z m 0,1 h -1 v 1 h 1 z"
    id="path13327" />
  <g
    style="fill-rule:evenodd"
    id="g13365">
   <path
     style="opacity:0.2;fill:url(#linearGradient13416)"
     d="m 40,1012.36 v 31 H 8 l 4.584,5 H 44 v -32 z"
     id="path13329" />
   <rect
     style="fill:url(#c)"
     width="32"
     x="8"
     y="1012.36"
     height="31"
     id="rect13331" />
   <rect
     style="fill:#5c5c5c"
     width="32"
     x="8"
     y="1042.36"
     height="1"
     id="rect13333" />
   <path
     style="opacity:0.2;fill:url(#d)"
     d="M 38,1041.36 H 10 l 6.786,6.963 27.21,0.037 v -28 l -6,-6 z"
     id="path13335" />
   <path
     style="fill:url(#e)"
     d="m 10,1014.36 v 27 h 28 v -27 z"
     id="path13337" />
   <rect
     style="fill:#878787"
     width="28"
     x="10"
     y="1040.36"
     height="1"
     id="rect13339" />
   <g
     style="fill:#bcbcbc"
     id="g13353">
    <rect
      width="8"
      x="13"
      y="1032.36"
      height="1"
      id="rect13341" />
    <rect
      width="6"
      x="22"
      y="1032.36"
      height="1"
      id="rect13343" />
    <rect
      width="7"
      x="13"
      y="1034.36"
      height="1"
      id="rect13345" />
    <rect
      width="3"
      x="21"
      y="1034.36"
      height="1"
      id="rect13347" />
    <rect
      width="4.0300002"
      x="13"
      y="1036.36"
      height="1"
      id="rect13349" />
    <rect
      width="8"
      x="18"
      y="1036.36"
      height="1"
      id="rect13351" />
   </g>
   <g
     style="fill:#959595"
     id="g13363">
    <rect
      width="10"
      x="13"
      y="1016.36"
      height="1"
      id="rect13355" />
    <rect
      width="5"
      x="24"
      y="1016.36"
      height="1"
      id="rect13357" />
    <rect
      width="7"
      x="13"
      y="1018.36"
      height="1"
      id="rect13359" />
    <rect
      width="4"
      x="22"
      y="1018.36"
      height="1"
      id="rect13361" />
   </g>
  </g>
 </g>
 <path
   style="display:inline;mix-blend-mode:normal;fill:url(#linearGradient3403);fill-opacity:1;stroke:url(#linearGradient20558);stroke-width:1.16242;stroke-linecap:butt;stroke-linejoin:round;stroke-miterlimit:4;stroke-dasharray:none;stroke-opacity:1"
   d="M 4.7043071,3.9814882 4.6913695,60.80196 H 58.59546 l 1.022155,-2.866369 c 0,0 -23.87537,0.766388 -32.844441,-4.140386 C 16.257548,48.042344 11.401114,4.0978197 11.401114,4.0978197 Z"
   id="path1686"
   transform="matrix(0.5,0,0,0.5,0.06630362,0.01654936)" />
 <rect
   style="display:inline;fill:none;fill-opacity:1;stroke:url(#linearGradient4557);stroke-width:3.71366;stroke-linejoin:round;stroke-miterlimit:7.8;stroke-dasharray:none;stroke-opacity:0.995146"
   id="rect4539"
   width="62.566689"
   height="62.866646"
   x="1.0323594"
   y="0.59551275"
   ry="6.2447233"
   rx="5.8029528"
   transform="matrix(0.46839137,0,0,0.46743669,0.90638486,1.0268972)" />
</svg>
