<?xml version="1.0" encoding="UTF-8" standalone="no"?>
<!-- Created with Inkscape (http://www.inkscape.org/) -->

<svg
  width="32"
  height="32"
  version="1.1"
  viewBox="0 0 32 32"
  id="svg22"
  xmlns:xlink="http://www.w3.org/1999/xlink"
  xmlns="http://www.w3.org/2000/svg"
  xmlns:svg="http://www.w3.org/2000/svg">
 <defs
   id="defs12">
  <linearGradient
    id="linearGradient1005-3-3"
    x1="5.2535"
    x2="9.3823996"
    y1="15.383"
    y2="2.9421"
    gradientTransform="matrix(0.99999,0,0,0.99999,1.632,-0.61743)"
    gradientUnits="userSpaceOnUse">
   <stop
     stop-color="#fa8200"
     offset="0"
     id="stop2" />
   <stop
     stop-color="#ff9600"
     offset=".36953"
     id="stop4" />
   <stop
     stop-color="#ffb400"
     offset="1"
     id="stop6" />
  </linearGradient>
  <filter
    id="filter4014"
    x="-0.062499933"
    y="-0.057692993"
    width="1.1249999"
    height="1.115386"
    color-interpolation-filters="sRGB">
   <feGaussianBlur
     stdDeviation="1.093751"
     id="feGaussianBlur9" />
  </filter>
  <linearGradient
    xlink:href="#linearGradient3487"
    id="linearGradient3403"
    gradientUnits="userSpaceOnUse"
    x1="6.9491749"
    y1="4.5549412"
    x2="11.215498"
    y2="59.052471" />
  <linearGradient
    id="linearGradient3487">
   <stop
     style="stop-color:#32373c;stop-opacity:1"
     offset="0"
     id="stop3481" />
   <stop
     id="stop3483"
     offset="0.36804965"
     style="stop-color:#1a1a1a;stop-opacity:1" />
   <stop
     style="stop-color:#31363b;stop-opacity:1"
     offset="1"
     id="stop3485" />
  </linearGradient>
  <linearGradient
    xlink:href="#linearGradient20604"
    id="linearGradient20558"
    gradientUnits="userSpaceOnUse"
    x1="25.802212"
    y1="20.373846"
    x2="25.111048"
    y2="58.912758" />
  <linearGradient
    id="linearGradient20604">
   <stop
     id="stop20598"
     offset="0"
     style="stop-color:#3d3d3d;stop-opacity:1" />
   <stop
     style="stop-color:#000000;stop-opacity:1"
     offset="0.61772454"
     id="stop20600" />
   <stop
     id="stop20602"
     offset="1"
     style="stop-color:#3d3d3d;stop-opacity:1" />
  </linearGradient>
  <filter
    style="color-interpolation-filters:sRGB"
    id="filter20720"
    x="-0.010585417"
    y="-0.010232513"
    width="1.0211704"
    height="1.020465">
   <feGaussianBlur
     stdDeviation="8.6333021e-05"
     id="feGaussianBlur20722" />
  </filter>
  <linearGradient
    gradientTransform="translate(0.36067797,-0.13016949)"
    xlink:href="#linearGradient4555"
    id="linearGradient4557"
    x1="43.499737"
    y1="64.011795"
    x2="44.141731"
    y2="0.30621234"
    gradientUnits="userSpaceOnUse" />
  <linearGradient
    id="linearGradient4555">
   <stop
     style="stop-color:#141618;stop-opacity:1"
     offset="0"
     id="stop4551" />
   <stop
     id="stop4559"
     offset="0.51820582"
     style="stop-color:#686868;stop-opacity:1" />
   <stop
     style="stop-color:#31363b;stop-opacity:1"
     offset="1"
     id="stop4553" />
  </linearGradient>
  <filter
    style="color-interpolation-filters:sRGB"
    id="filter4601"
    x="-0.029681152"
    width="1.0593623"
    y="-0.029539534"
    height="1.0590791">
   <feGaussianBlur
     stdDeviation="9.2253128e-05"
     id="feGaussianBlur4603" />
  </filter>
  <linearGradient
    gradientTransform="matrix(1.0033058,0,0,1.0033058,-1.3175929,-1.71504)"
    xlink:href="#0"
    id="linearGradient4205"
    x1="388.57101"
    y1="523.79797"
    x2="428.57101"
    y2="523.79797"
    gradientUnits="userSpaceOnUse" />
  <linearGradient
    id="0"
    y1="1045.87"
    x2="0"
    y2="1006.87"
    gradientUnits="userSpaceOnUse"
    gradientTransform="matrix(2.9898306,0,0,2.9898306,272.24553,-2578.79)">
   <stop
     stop-color="#d3d3d3"
     id="stop13084" />
   <stop
     offset="1"
     stop-color="#fcf9f9"
     id="stop13086" />
  </linearGradient>
  <linearGradient
    gradientTransform="matrix(0.85071974,0,0,0.85071974,360.15356,473.66194)"
    y2="36.609001"
    x2="56.818001"
    y1="81.489998"
    x1="56.580002"
    gradientUnits="userSpaceOnUse"
    id="1-4">
   <stop
     stop-color="#00a661"
     id="stop13078" />
   <stop
     stop-color="#37ce97"
     offset="1"
     id="stop13080" />
  </linearGradient>
 </defs>
 <g
   id="g870"
   transform="matrix(0.43144475,0,0,0.43144475,3.022489,1.8544244)">
  <rect
    y="0.60077608"
    x="1.033034"
    height="62.866646"
    width="62.567139"
    id="rect4539-1"
    style="opacity:1;fill:#dedbdb;fill-opacity:1;stroke:none;stroke-width:1.146;stroke-linejoin:round;stroke-miterlimit:7.8;stroke-dasharray:none;stroke-opacity:0.995146" />
  <g
    transform="matrix(1.33,0,0,1.33,-506.67893,-664.74952)"
    id="g13099">
   <g
     transform="matrix(0.99670418,0,0,0.99670446,1.313593,1.70974)"
     id="g13097">
    <rect
      width="40.132"
      x="388.54001"
      y="503.75"
      rx="20.066"
      height="40.132"
      style="opacity:0.9;fill:url(#linearGradient4205);fill-opacity:1;stroke-width:2.8;stroke-opacity:0.550265"
      id="rect13091" />
    <path
      style="color:#000000;fill:url(#1-4);stroke:none;stroke-width:0.941;stroke-linecap:round;stroke-linejoin:round"
      d="m 408.6786,507.73326 c -1.74566,0 -3.4284,0.28073 -5.00307,0.79712 v 15.21258 c 0,2.76314 2.23995,5.00308 5.00307,5.00308 2.76314,0 5.00309,-2.23994 5.00309,-5.00308 0,-2.76315 -2.23995,-5.00309 -5.00309,-5.00309 v -5.00308 c 5.52629,0 10.00617,4.47989 10.00617,10.00617 0,5.52627 -4.47988,10.00617 -10.00617,10.00617 -5.52627,0 -10.00616,-4.4799 -10.00616,-10.00617 v -12.49198 c -3.65724,2.93414 -6.00608,7.43785 -6.00608,12.49198 0,8.84152 7.16732,16.00969 16.0097,16.00969 8.84152,0 16.00969,-7.16732 16.00969,-16.00969 0,-8.84153 -7.16731,-16.0097 -16.00969,-16.0097"
      id="path13095" />
   </g>
  </g>
 </g>
 <path
   style="display:inline;mix-blend-mode:normal;fill:url(#linearGradient3403);fill-opacity:1;stroke:url(#linearGradient20558);stroke-width:1.16242;stroke-linecap:butt;stroke-linejoin:round;stroke-miterlimit:4;stroke-dasharray:none;stroke-opacity:1"
   d="M 4.7043071,3.9814882 4.6913695,60.80196 H 58.59546 l 1.022155,-2.866369 c 0,0 -23.87537,0.766388 -32.844441,-4.140386 C 16.257548,48.042344 11.401114,4.0978197 11.401114,4.0978197 Z"
   id="path1686"
   transform="matrix(0.5,0,0,0.5,0.06630362,0.01654936)" />
 <rect
   style="display:inline;fill:none;fill-opacity:1;stroke:url(#linearGradient4557);stroke-width:3.71366;stroke-linejoin:round;stroke-miterlimit:7.8;stroke-dasharray:none;stroke-opacity:0.995146"
   id="rect4539"
   width="62.566689"
   height="62.866646"
   x="1.0323594"
   y="0.59551275"
   ry="6.2447233"
   rx="5.8029528"
   transform="matrix(0.46839137,0,0,0.46743669,0.90638486,1.0268972)" />
</svg>
