<?xml version="1.0" encoding="UTF-8" standalone="no"?>
<!-- Created with Inkscape (http://www.inkscape.org/) -->

<svg
  width="32"
  height="32"
  version="1.1"
  viewBox="0 0 32 32"
  id="svg22"
  xmlns:xlink="http://www.w3.org/1999/xlink"
  xmlns="http://www.w3.org/2000/svg"
  xmlns:svg="http://www.w3.org/2000/svg">
 <defs
   id="defs12">
  <linearGradient
    xlink:href="#linearGradient3487"
    id="linearGradient3403"
    gradientUnits="userSpaceOnUse"
    x1="6.9491749"
    y1="4.5549412"
    x2="11.215498"
    y2="59.052471" />
  <linearGradient
    id="linearGradient3487">
   <stop
     style="stop-color:#32373c;stop-opacity:1"
     offset="0"
     id="stop3481" />
   <stop
     id="stop3483"
     offset="0.36804965"
     style="stop-color:#1a1a1a;stop-opacity:1" />
   <stop
     style="stop-color:#31363b;stop-opacity:1"
     offset="1"
     id="stop3485" />
  </linearGradient>
  <linearGradient
    xlink:href="#linearGradient20604"
    id="linearGradient20558"
    gradientUnits="userSpaceOnUse"
    x1="25.802212"
    y1="20.373846"
    x2="25.111048"
    y2="58.912758" />
  <linearGradient
    id="linearGradient20604">
   <stop
     id="stop20598"
     offset="0"
     style="stop-color:#3d3d3d;stop-opacity:1" />
   <stop
     style="stop-color:#000000;stop-opacity:1"
     offset="0.61772454"
     id="stop20600" />
   <stop
     id="stop20602"
     offset="1"
     style="stop-color:#3d3d3d;stop-opacity:1" />
  </linearGradient>
  <filter
    style="color-interpolation-filters:sRGB"
    id="filter20720"
    x="-0.010582285"
    y="-0.010229485"
    width="1.0211641"
    height="1.020459">
   <feGaussianBlur
     stdDeviation="1.4655102e-05"
     id="feGaussianBlur20722" />
  </filter>
  <linearGradient
    gradientTransform="translate(0.36067797,-0.13016949)"
    xlink:href="#linearGradient4555"
    id="linearGradient4557"
    x1="43.499737"
    y1="64.011795"
    x2="44.141731"
    y2="0.30621234"
    gradientUnits="userSpaceOnUse" />
  <linearGradient
    id="linearGradient4555">
   <stop
     style="stop-color:#141618;stop-opacity:1"
     offset="0"
     id="stop4551" />
   <stop
     id="stop4559"
     offset="0.51820582"
     style="stop-color:#686868;stop-opacity:1" />
   <stop
     style="stop-color:#31363b;stop-opacity:1"
     offset="1"
     id="stop4553" />
  </linearGradient>
  <filter
    style="color-interpolation-filters:sRGB"
    id="filter4601"
    x="-0.029678214"
    width="1.0593564"
    y="-0.02953661"
    height="1.0590732">
   <feGaussianBlur
     stdDeviation="1.5660045e-05"
     id="feGaussianBlur4603" />
  </filter>
 </defs>
 <rect
   style="fill:#d9d9d9;fill-opacity:1;stroke:none;stroke-width:0.261227"
   id="rect1-5-3"
   width="13.734311"
   height="13.734311"
   x="16.517704"
   y="15.460195"
   rx="0"
   ry="0" />
 <rect
   style="fill:#000000;fill-opacity:1;stroke:none;stroke-width:0.261227"
   id="rect1"
   width="13.734311"
   height="13.734311"
   x="16.517704"
   y="1.7258843"
   rx="0"
   ry="0" />
 <rect
   style="fill:#d9d9d9;fill-opacity:1;stroke:none;stroke-width:0.261227"
   id="rect1-5"
   width="13.734311"
   height="13.734311"
   x="2.7833934"
   y="1.7258837"
   rx="0"
   ry="0" />
 <rect
   style="fill:#000000;fill-opacity:1;stroke:none;stroke-width:0.261227"
   id="rect1-56"
   width="13.734311"
   height="13.734311"
   x="2.7833934"
   y="15.460195"
   rx="0"
   ry="0" />
 <path
   style="display:inline;fill:#cdcdcd;fill-opacity:0.47724;stroke-width:0.485084"
   d="m 18.800036,5.6662601 c 0.154571,0.075069 0.509623,1.007618 0.64889,1.1105733 0.268063,0.2004131 0.529164,0.4145006 0.769375,0.6453454 0.263885,0.253232 0.536822,0.3968055 0.921859,0.4738876 0.925339,0.1827181 1.471863,0.3850084 2.336628,0.7383801 1.923091,0.7883828 3.195868,2.2734555 4.103105,4.0597515 0.804886,1.587893 0.819507,3.309171 0.753362,5.038493 -0.136469,3.567764 -2.24699,5.913803 -3.632083,8.543021 l -0.155404,0.374917 c 0.45536,0 0.862968,0.298275 0.862968,0.66894 v 1.343107 c 0,0.370664 -0.407608,0.86021 -0.862968,0.86021 h 0.648712 -9.49168 0.648679 c -0.455359,0 -0.772534,-0.489546 -0.772534,-0.86021 v -1.343107 c 0,-0.370665 0.317175,-0.66894 0.772534,-0.66894 h -0.126721 c -0.295217,-0.266771 -0.282297,-0.744681 -0.545485,-1.017484 -1.192708,-1.229293 -1.405766,-2.974033 -0.568156,-4.468086 0.409405,-0.729263 0.985218,-1.321121 1.649458,-1.827182 0.747792,-0.569603 1.520649,-1.106498 2.274721,-1.667522 0.215843,-0.160867 0.188703,-0.343016 0.475566,-0.595041 -0.71089,0.146121 -1.060446,0.326929 -1.632777,0.355082 -0.988003,0.04692 -1.840236,0.462445 -2.631196,1.022799 -0.305661,0.2165 -0.660758,0.390103 -1.018639,0.510753 -0.465107,0.155372 -0.696268,0.04424 -0.973383,-0.365302 -0.0731,-0.108585 0.0018,-0.380835 -0.06789,-0.522936 -0.550747,0.01341 -0.972329,-0.24985 -1.123419,-0.745857 -0.05152,-0.169581 -0.139253,-0.326427 -0.202614,-0.491316 -0.428204,-1.10462 -0.208183,-2.082559 0.61202,-2.935155 0.183118,-0.195051 0.401049,-0.357259 0.592524,-0.544266 0.639173,-0.622021 1.281829,-1.240689 1.904988,-1.877454 0.452574,-0.463164 0.859892,-0.967215 1.316642,-1.426758 C 16.513404,9.8284832 16.704181,9.6017947 16.809319,9.2981577 16.968067,8.843172 17.26607,8.4928833 17.699844,8.2561406 17.85372,8.171685 18.393375,8.0744952 18.504777,8.0047853 18.683718,7.4969819 18.081492,5.9854475 18.80004,5.6662601 Z"
   id="path2" />
 <path
   style="display:inline;fill:#8560ac;fill-opacity:1;stroke-width:0.485084"
   d="m 18.729818,5.5619735 c 0.154571,0.075069 0.509623,1.0076185 0.64889,1.110574 0.268063,0.2004131 0.529164,0.4145005 0.769375,0.6453453 0.263885,0.253232 0.536822,0.3968055 0.921859,0.4738876 0.925339,0.1827181 1.471863,0.3850084 2.336628,0.7383801 1.923091,0.7883828 3.195868,2.2734555 4.103105,4.0597515 0.804886,1.587893 0.819507,3.309171 0.753362,5.038493 -0.136469,3.567764 -2.24699,5.913803 -3.632083,8.543021 l -0.155404,0.374917 c 0.45536,0 0.862968,0.298275 0.862968,0.66894 v 1.343107 c 0,0.370664 -0.407608,0.86021 -0.862968,0.86021 h 0.648712 -9.49168 0.648679 c -0.455359,0 -0.772534,-0.489546 -0.772534,-0.86021 v -1.343107 c 0,-0.370665 0.317175,-0.66894 0.772534,-0.66894 H 16.15454 c -0.295217,-0.266771 -0.282297,-0.744681 -0.545485,-1.017484 -1.192708,-1.229293 -1.405766,-2.974033 -0.568156,-4.468086 0.409405,-0.729263 0.985218,-1.321121 1.649458,-1.827182 0.747792,-0.569603 1.520649,-1.106498 2.274721,-1.667522 0.215843,-0.160867 0.188703,-0.343016 0.475566,-0.595041 -0.71089,0.146121 -1.060446,0.326929 -1.632777,0.355082 -0.988003,0.04691 -1.840236,0.462445 -2.631196,1.022799 -0.305661,0.2165 -0.660758,0.390103 -1.018639,0.510753 -0.465107,0.155372 -0.696268,0.04424 -0.973383,-0.365302 -0.0731,-0.108585 0.0018,-0.380835 -0.06789,-0.522936 -0.550747,0.01341 -0.972329,-0.24985 -1.123419,-0.745857 -0.05152,-0.169581 -0.139253,-0.326427 -0.202614,-0.491316 -0.428204,-1.10462 -0.208183,-2.082559 0.61202,-2.935154 0.183118,-0.195052 0.401049,-0.35726 0.592524,-0.544267 0.639173,-0.62202 1.281829,-1.240689 1.904988,-1.877454 0.452574,-0.463164 0.859892,-0.967215 1.316642,-1.4267582 0.226287,-0.2264205 0.417064,-0.453109 0.522202,-0.756746 0.158747,-0.4549857 0.45675,-0.8052745 0.890524,-1.0420171 C 17.783502,8.067399 18.323157,7.9702092 18.434559,7.9004993 18.6135,7.392696 18.011274,5.8811609 18.729822,5.5619735 Z"
   id="path2-2" />
 <path
   style="display:inline;mix-blend-mode:normal;fill:url(#linearGradient3403);fill-opacity:1;stroke:url(#linearGradient20558);stroke-width:1.16242;stroke-linecap:butt;stroke-linejoin:round;stroke-miterlimit:4;stroke-dasharray:none;stroke-opacity:1"
   d="M 4.7043071,3.9814882 4.6913695,60.80196 H 58.59546 l 1.022155,-2.866369 c 0,0 -23.87537,0.766388 -32.844441,-4.140386 C 16.257548,48.042344 11.401114,4.0978197 11.401114,4.0978197 Z"
   id="path1686"
   transform="matrix(0.5,0,0,0.5,0.06630362,0.01654936)" />
 <rect
   style="display:inline;fill:none;fill-opacity:1;stroke:url(#linearGradient4557);stroke-width:3.71366;stroke-linejoin:round;stroke-miterlimit:7.8;stroke-dasharray:none;stroke-opacity:0.995146"
   id="rect4539"
   width="62.566689"
   height="62.866646"
   x="1.0323594"
   y="0.59551275"
   ry="6.2447233"
   rx="5.8029528"
   transform="matrix(0.46839137,0,0,0.46743669,0.90638486,1.0268972)" />
</svg>
