<?xml version="1.0" encoding="UTF-8" standalone="no"?>
<!-- Created with Inkscape (http://www.inkscape.org/) -->

<svg
  width="32"
  height="32"
  version="1.1"
  viewBox="0 0 32 32"
  id="svg22"
  xmlns:xlink="http://www.w3.org/1999/xlink"
  xmlns="http://www.w3.org/2000/svg"
  xmlns:svg="http://www.w3.org/2000/svg">
 <defs
   id="defs12">
  <linearGradient
    id="linearGradient917">
   <stop
     style="stop-color:#000000;stop-opacity:0.99607843"
     offset="0"
     id="stop913" />
   <stop
     style="stop-color:#353a3f;stop-opacity:0.99607843"
     offset="1"
     id="stop915" />
  </linearGradient>
  <linearGradient
    id="linearGradient1005-3-3"
    x1="5.2535"
    x2="9.3823996"
    y1="15.383"
    y2="2.9421"
    gradientTransform="matrix(0.99999,0,0,0.99999,1.632,-0.61743)"
    gradientUnits="userSpaceOnUse">
   <stop
     stop-color="#fa8200"
     offset="0"
     id="stop2" />
   <stop
     stop-color="#ff9600"
     offset=".36953"
     id="stop4" />
   <stop
     stop-color="#ffb400"
     offset="1"
     id="stop6" />
  </linearGradient>
  <filter
    id="filter4014"
    x="-0.062499933"
    y="-0.057692993"
    width="1.1249999"
    height="1.115386"
    color-interpolation-filters="sRGB">
   <feGaussianBlur
     stdDeviation="1.093751"
     id="feGaussianBlur9" />
  </filter>
  <linearGradient
    xlink:href="#linearGradient3487"
    id="linearGradient3403"
    gradientUnits="userSpaceOnUse"
    x1="6.9491749"
    y1="4.5549412"
    x2="11.215498"
    y2="59.052471" />
  <linearGradient
    id="linearGradient3487">
   <stop
     style="stop-color:#32373c;stop-opacity:1"
     offset="0"
     id="stop3481" />
   <stop
     id="stop3483"
     offset="0.36804965"
     style="stop-color:#1a1a1a;stop-opacity:1" />
   <stop
     style="stop-color:#31363b;stop-opacity:1"
     offset="1"
     id="stop3485" />
  </linearGradient>
  <linearGradient
    xlink:href="#linearGradient20604"
    id="linearGradient20558"
    gradientUnits="userSpaceOnUse"
    x1="25.802212"
    y1="20.373846"
    x2="25.111048"
    y2="58.912758" />
  <linearGradient
    id="linearGradient20604">
   <stop
     id="stop20598"
     offset="0"
     style="stop-color:#3d3d3d;stop-opacity:1" />
   <stop
     style="stop-color:#000000;stop-opacity:1"
     offset="0.61772454"
     id="stop20600" />
   <stop
     id="stop20602"
     offset="1"
     style="stop-color:#3d3d3d;stop-opacity:1" />
  </linearGradient>
  <filter
    style="color-interpolation-filters:sRGB"
    id="filter20720"
    x="-0.010584168"
    y="-0.010231305"
    width="1.0211679"
    height="1.0204626">
   <feGaussianBlur
     stdDeviation="5.7740012e-05"
     id="feGaussianBlur20722" />
  </filter>
  <linearGradient
    gradientTransform="translate(0.36067797,-0.13016949)"
    xlink:href="#linearGradient4555"
    id="linearGradient4557"
    x1="43.499737"
    y1="64.011795"
    x2="44.141731"
    y2="0.30621234"
    gradientUnits="userSpaceOnUse" />
  <linearGradient
    id="linearGradient4555">
   <stop
     style="stop-color:#141618;stop-opacity:1"
     offset="0"
     id="stop4551" />
   <stop
     id="stop4559"
     offset="0.51820582"
     style="stop-color:#686868;stop-opacity:1" />
   <stop
     style="stop-color:#31363b;stop-opacity:1"
     offset="1"
     id="stop4553" />
  </linearGradient>
  <filter
    style="color-interpolation-filters:sRGB"
    id="filter4601"
    x="-0.02967998"
    width="1.05936"
    y="-0.029538367"
    height="1.0590767">
   <feGaussianBlur
     stdDeviation="6.1699413e-05"
     id="feGaussianBlur4603" />
  </filter>
  <linearGradient
    xlink:href="#linearGradient917"
    id="linearGradient919"
    x1="7.400631"
    y1="41.743092"
    x2="33.063145"
    y2="7.1074457"
    gradientUnits="userSpaceOnUse"
    gradientTransform="scale(0.665)" />
  <linearGradient
    id="green"
    y1="44"
    y2="8"
    x2="0"
    gradientUnits="userSpaceOnUse">
   <stop
     stop-color="#42a603"
     id="stop2-5-3" />
   <stop
     offset="1"
     stop-color="#78da06"
     id="stop8" />
  </linearGradient>
  <linearGradient
    id="yellow"
    gradientTransform="scale(0.91237216,1.096044)"
    x1="15.344615"
    y1="3.6494887"
    x2="37.265495"
    y2="3.6494887"
    gradientUnits="userSpaceOnUse">
   <stop
     style="stop-color:#ffa92d;stop-opacity:1;"
     offset="0"
     id="stop7" />
   <stop
     style="stop-color:#ffe569;stop-opacity:1"
     offset="1"
     id="stop9" />
  </linearGradient>
  <linearGradient
    gradientTransform="translate(-384.57,-499.8)"
    gradientUnits="userSpaceOnUse"
    x2="387.60001"
    y2="521.79999"
    x1="408.60001"
    y1="542.79999"
    id="blue">
   <stop
     stop-color="#197cf1"
     id="stop11" />
   <stop
     stop-color="#20bcfa"
     offset="1"
     id="stop13" />
  </linearGradient>
 </defs>
 <rect
   style="display:inline;fill:url(#linearGradient919);fill-opacity:1;fill-rule:evenodd;stroke:none;stroke-width:0.617;stroke-linejoin:round;stroke-miterlimit:7.8"
   id="rect1192"
   width="27.986261"
   height="28.403553"
   x="2.1033354"
   y="2.0072956"
   ry="0" />
 <g
   id="g851"
   transform="matrix(0.665,0,0,0.665,1.9284683,0.76995083)">
  <path
    d="m 24,18 c -10.4,0 -20,5.4 -20,9 0,1.7 6.8,1.5 7,3 l 1.7,10.7 c 0.1,1.2 0.6,1.7 1.3,2 6.8,1.75 13.4,1.7 19.9,0 0.7,-0.2 1.1,-0.7 1.4,-2 L 37,30 c 0.3,-1.2 7,-1.3 7,-3 0,-3.6 -9.6,-9 -20,-9 z"
    style="fill:url(#green)"
    id="path17" />
  <path
    style="opacity:0.15;fill:#000000"
    d="M 4.1,26.3 C 4,26.56 4,26.8 4,27 c 0,1.7 6.8,1.5 7,3 l 1.7,10.7 c 0.1,1.26 0.65,1.7 1.3,2 6.8,1.8 13.4,1.7 19.9,0 0.7,-0.2 1,-0.7 1.35,-2 L 37,30 c 0.3,-1.23 7,-1.33 7,-3 0,-0.2 0,-0.4 -0.1,-0.7 -0.8,1.4 -6.6,1.5 -6.9,2.7 l -1.7,10.7 c -0.3,1.26 -0.65,1.8 -1.3,2 -6.5,1.7 -13.1,1.75 -19.9,0 -0.7,-0.2 -1.2,-0.7 -1.3,-2 L 11,29 C 10.8,27.6 4.9,27.66 4.1,26.3 Z"
    id="path19" />
  <path
    d="m 24,4 c -5.5,0 -10,4.6 -10,10 0,3.4 1.8,6.5 4.6,7.9 1.8,3 1,1.3 1.3,3.8 0,0.65 0.55,1.2 1.2,1.2 2.1,1.6 4,1.4 5.8,0 0.7,0 1.2,-0.5 1.2,-1.2 C 28.45,23.3 27.94,23.6 29.2,22 32.1,20.3 34,17.5 34,14 34,8.64 29.5,4 24,4 Z"
    style="fill:url(#yellow)"
    id="path21" />
  <path
    style="fill:url(#blue)"
    d="m 18.6,21.9 c 0.4,0.7 0.8,1.7 1,3.55 0,0.7 0.8,1.4 1.5,1.4 2.3,1.8 3.95,1.6 5.8,0 0.7,0 1.5,-0.7 1.5,-1.4 0.24,-1.74 0.6,-2.9 0.84,-3.469542 l -2,1 h -6.55 z"
    id="path23" />
  <path
    style="fill:#fbfeff"
    d="m 20,9 c -1.108,0 -2,0.892 -2,2 0,1.108 0.892,2 2,2 1.108,0 2,-0.892 2,-2 0,-1.108 -0.892,-2 -2,-2 z"
    id="path25" />
 </g>
 <path
   style="display:inline;mix-blend-mode:normal;fill:url(#linearGradient3403);fill-opacity:1;stroke:url(#linearGradient20558);stroke-width:1.16242;stroke-linecap:butt;stroke-linejoin:round;stroke-miterlimit:4;stroke-dasharray:none;stroke-opacity:1"
   d="M 4.7043071,3.9814882 4.6913695,60.80196 H 58.59546 l 1.022155,-2.866369 c 0,0 -23.87537,0.766388 -32.844441,-4.140386 C 16.257548,48.042344 11.401114,4.0978197 11.401114,4.0978197 Z"
   id="path1686"
   transform="matrix(0.5,0,0,0.5,0.06630362,0.01654936)" />
 <rect
   style="display:inline;fill:none;fill-opacity:1;stroke:url(#linearGradient4557);stroke-width:3.71366;stroke-linejoin:round;stroke-miterlimit:7.8;stroke-dasharray:none;stroke-opacity:0.995146"
   id="rect4539"
   width="62.566689"
   height="62.866646"
   x="1.0323594"
   y="0.59551275"
   ry="6.2447233"
   rx="5.8029528"
   transform="matrix(0.46839137,0,0,0.46743669,0.90638486,1.0268972)" />
</svg>
