<?xml version="1.0" encoding="UTF-8" standalone="no"?>
<!-- Created with Inkscape (http://www.inkscape.org/) -->

<svg
  width="32"
  height="32"
  version="1.1"
  viewBox="0 0 32 32"
  id="svg22"
  xmlns:xlink="http://www.w3.org/1999/xlink"
  xmlns="http://www.w3.org/2000/svg"
  xmlns:svg="http://www.w3.org/2000/svg">
 <defs
   id="defs12">
  <linearGradient
    id="linearGradient1005-3-3"
    x1="5.2535"
    x2="9.3823996"
    y1="15.383"
    y2="2.9421"
    gradientTransform="matrix(0.99999,0,0,0.99999,1.632,-0.61743)"
    gradientUnits="userSpaceOnUse">
   <stop
     stop-color="#fa8200"
     offset="0"
     id="stop2" />
   <stop
     stop-color="#ff9600"
     offset=".36953"
     id="stop4" />
   <stop
     stop-color="#ffb400"
     offset="1"
     id="stop6" />
  </linearGradient>
  <filter
    id="filter4014"
    x="-0.062499933"
    y="-0.057692993"
    width="1.1249999"
    height="1.115386"
    color-interpolation-filters="sRGB">
   <feGaussianBlur
     stdDeviation="1.093751"
     id="feGaussianBlur9" />
  </filter>
  <linearGradient
    xlink:href="#linearGradient3487"
    id="linearGradient3403"
    gradientUnits="userSpaceOnUse"
    x1="6.9491749"
    y1="4.5549412"
    x2="11.215498"
    y2="59.052471" />
  <linearGradient
    id="linearGradient3487">
   <stop
     style="stop-color:#32373c;stop-opacity:1"
     offset="0"
     id="stop3481" />
   <stop
     id="stop3483"
     offset="0.36804965"
     style="stop-color:#1a1a1a;stop-opacity:1" />
   <stop
     style="stop-color:#31363b;stop-opacity:1"
     offset="1"
     id="stop3485" />
  </linearGradient>
  <linearGradient
    xlink:href="#linearGradient20604"
    id="linearGradient20558"
    gradientUnits="userSpaceOnUse"
    x1="25.802212"
    y1="20.373846"
    x2="25.111048"
    y2="58.912758" />
  <linearGradient
    id="linearGradient20604">
   <stop
     id="stop20598"
     offset="0"
     style="stop-color:#3d3d3d;stop-opacity:1" />
   <stop
     style="stop-color:#000000;stop-opacity:1"
     offset="0.61772454"
     id="stop20600" />
   <stop
     id="stop20602"
     offset="1"
     style="stop-color:#3d3d3d;stop-opacity:1" />
  </linearGradient>
  <filter
    style="color-interpolation-filters:sRGB"
    id="filter20720"
    x="-0.010582192"
    y="-0.010229395"
    width="1.0211639"
    height="1.0204588">
   <feGaussianBlur
     stdDeviation="1.2529095e-05"
     id="feGaussianBlur20722" />
  </filter>
  <linearGradient
    gradientTransform="translate(0.36067797,-0.13016949)"
    xlink:href="#linearGradient4555"
    id="linearGradient4557"
    x1="43.499737"
    y1="64.011795"
    x2="44.141731"
    y2="0.30621234"
    gradientUnits="userSpaceOnUse" />
  <linearGradient
    id="linearGradient4555">
   <stop
     style="stop-color:#141618;stop-opacity:1"
     offset="0"
     id="stop4551" />
   <stop
     id="stop4559"
     offset="0.51820582"
     style="stop-color:#686868;stop-opacity:1" />
   <stop
     style="stop-color:#31363b;stop-opacity:1"
     offset="1"
     id="stop4553" />
  </linearGradient>
  <filter
    style="color-interpolation-filters:sRGB"
    id="filter4601"
    x="-0.029677937"
    width="1.0593559"
    y="-0.029536523"
    height="1.059073">
   <feGaussianBlur
     stdDeviation="1.3388252e-05"
     id="feGaussianBlur4603" />
  </filter>
  <linearGradient
    id="c"
    y1="523.79999"
    x1="403.57001"
    y2="536.79999"
    x2="416.57001"
    gradientUnits="userSpaceOnUse"
    gradientTransform="translate(-382.3618,-501.38052)">
   <stop
     stop-color="#292c2f"
     id="stop2-1" />
   <stop
     offset="1"
     stop-opacity="0"
     id="stop4-7" />
  </linearGradient>
  <linearGradient
    xlink:href="#b-2"
    id="linearGradient4189"
    x1="14.369"
    y1="22.521999"
    x2="26.521999"
    y2="22.521999"
    gradientUnits="userSpaceOnUse" />
  <linearGradient
    x1="36"
    gradientUnits="userSpaceOnUse"
    x2="14"
    y2="12"
    y1="44"
    id="b-2">
   <stop
     style="stop-color:#bfc9c9;stop-opacity:1"
     stop-color="#536161"
     id="stop13" />
   <stop
     style="stop-color:#fbfbfb;stop-opacity:1"
     stop-color="#f4f5f5"
     offset="1"
     id="stop15" />
  </linearGradient>
  <linearGradient
    xlink:href="#b-2"
    id="linearGradient4428"
    gradientUnits="userSpaceOnUse"
    x1="31.586"
    y1="36.345001"
    x2="1.2029999"
    y2="6.723" />
  <linearGradient
    id="linearGradient1067"
    y1="537.59998"
    x1="400.57001"
    y2="546.58002"
    x2="392.89999"
    gradientUnits="userSpaceOnUse"
    gradientTransform="matrix(1.25,0,0,1.26667,-92.14,-151.08)">
   <stop
     id="stop1063"
     stop-color="#ffc35a"
     style="stop-color:#faae2a;stop-opacity:1" />
   <stop
     id="stop1065"
     offset="1"
     stop-color="#faae2a"
     style="stop-color:#fcd187;stop-opacity:1" />
  </linearGradient>
  <linearGradient
    gradientUnits="userSpaceOnUse"
    x2="0"
    y2="2.987"
    y1="43.922001"
    id="h"
    gradientTransform="translate(-122.5135,-45.5035)">
   <stop
     id="stop4658"
     stop-color="#22a7f0"
     style="stop-color:#085077;stop-opacity:1" />
   <stop
     id="stop4660"
     stop-color="#19b5fe"
     offset="1"
     style="stop-color:#0db1fe;stop-opacity:1" />
  </linearGradient>
  <linearGradient
    id="linearGradient6454"
    x1="24"
    x2="24"
    y1="294"
    y2="257"
    gradientTransform="matrix(0.26458333,0,0,0.25828372,-3e-6,-64.293749)"
    gradientUnits="userSpaceOnUse">
   <stop
     stop-color="#2c3e50"
     offset="0"
     id="stop2-3" />
   <stop
     stop-color="#34495e"
     offset="1"
     id="stop4-5" />
  </linearGradient>
  <radialGradient
    id="radialGradient6568"
    cx="178.52753"
    cy="17.337982"
    r="16.220705"
    gradientTransform="matrix(-5.2976991e-4,0.531144,-0.55567627,-5.5424122e-4,12.427566,-89.894258)"
    gradientUnits="userSpaceOnUse">
   <stop
     stop-color="#17222d"
     offset="0"
     id="stop7" />
   <stop
     stop-color="#17222d"
     stop-opacity="0"
     offset="1"
     id="stop9" />
  </radialGradient>
  <linearGradient
    id="linearGradient2162"
    x1="79.999855"
    x2="120"
    y1="152.00008"
    y2="152.00008"
    gradientTransform="matrix(0.06614554,0,0,0.06614561,-0.2645458,-6.6145542)"
    gradientUnits="userSpaceOnUse">
   <stop
     stop-color="#deeff8"
     offset="0"
     id="stop12" />
   <stop
     stop-color="#c0e2f4"
     offset="1"
     id="stop14" />
  </linearGradient>
  <linearGradient
    id="linearGradient2154"
    x1="60.000046"
    x2="140.00034"
    y1="191.93718"
    y2="191.93718"
    gradientTransform="matrix(0.05953106,0,0,0.05953103,0.39688342,-5.4730934)"
    gradientUnits="userSpaceOnUse">
   <stop
     stop-color="#eef6fa"
     offset="0"
     id="stop17" />
   <stop
     stop-color="#b0dbf2"
     offset="1"
     id="stop19" />
  </linearGradient>
  <linearGradient
    id="linearGradient6769"
    x1="170.07874"
    x2="585.82678"
    y1="472.44095"
    y2="472.44095"
    gradientTransform="matrix(0.01591008,0,0,0.01555658,0.04536116,0.61733967)"
    gradientUnits="userSpaceOnUse">
   <stop
     stop-color="#f39c1f"
     offset="0"
     id="stop27" />
   <stop
     stop-color="#fdbc4b"
     offset="1"
     id="stop29" />
  </linearGradient>
 </defs>
 <g
   id="g5"
   transform="matrix(2.5726016,0,0,2.5726016,0.63510977,-0.79348549)">
  <rect
    id="rect36"
    style="fill:#17222d;stroke-width:0.264583;paint-order:markers fill stroke"
    ry="1.8"
    height="10.6"
    width="10.6"
    y="1.1"
    x="1.1" />
  <rect
    id="rect38"
    style="fill:url(#linearGradient6454);stroke-width:0.264583;paint-order:markers fill stroke"
    ry="0.25251684"
    height="10.6"
    width="10.6"
    y="1.1"
    x="1.1" />
  <path
    style="fill:url(#radialGradient6568);paint-order:normal"
    d="m 7.219452,2.7109457 -1.6769,0.425297 0.464571,1.2505695 -0.553455,0.027389 0.896588,0.8960691 1.069184,1.0697022 -0.642856,0.032039 0.558107,0.5581055 -3.324344,0.1643311 0.78858,0.7885822 -1.740461,0.0863 2.097546,2.0975467 -1.180288,0.03876 1.230931,1.231449 h 4.627108 c 1.001625,0 1.80816,-0.806533 1.80816,-1.8081578 V 7.1334148 Z"
    id="path1" />
  <path
    style="fill:url(#linearGradient2162);stroke-width:0.395319;paint-order:normal"
    d="M 6.350018,2.1166667 A 1.3229104,1.3229116 0 0 0 5.0270835,3.4396008 1.3229104,1.3229116 0 0 0 6.350018,4.7625 1.3229104,1.3229116 0 0 0 7.6729169,3.4396008 1.3229104,1.3229116 0 0 0 6.350018,2.1166667 Z"
    id="path2" />
  <path
    style="fill:url(#linearGradient2154);stroke-width:0.355787;paint-order:normal"
    d="m 5.1593568,4.7625 c -0.6596015,0 -1.190607,0.513966 -1.190607,1.1523704 v 0.9312422 c 0,0.1649035 0.1327587,0.2976374 0.297666,0.2976374 h 4.1671691 c 0.1649066,0 0.2976642,-0.1327339 0.2976642,-0.2976374 V 5.9148704 c 0,-0.1035796 -0.013981,-0.2038842 -0.040217,-0.2992488 C 8.5555473,5.123216 8.093195,4.7625 7.5406108,4.7625 H 7.2520489 C 6.9927669,4.9600139 6.6759398,5.0671891 6.3499994,5.0676431 6.0243934,5.0669659 5.7079456,4.9598097 5.448936,4.7625 Z"
    id="path3" />
  <circle
    r="0.39687499"
    cy="5.953125"
    cx="4.8947916"
    style="opacity:1;fill:#000000;fill-opacity:1;stroke:none;stroke-width:0.264583;stroke-linecap:round;stroke-linejoin:round;stroke-miterlimit:4;stroke-dasharray:none;stroke-opacity:1"
    id="circle3" />
  <rect
    ry="0.13229166"
    y="6.3499999"
    x="4.2333341"
    height="1.5875"
    width="0.26458302"
    style="opacity:1;fill:#000000;fill-opacity:1;stroke:none;stroke-width:0.264583;stroke-linecap:round;stroke-linejoin:round;stroke-miterlimit:4;stroke-dasharray:none;stroke-opacity:1"
    id="rect3" />
  <rect
    transform="rotate(45)"
    ry="0.13229166"
    y="0.78968573"
    x="7.5383434"
    height="1.5875"
    width="0.26458302"
    style="opacity:1;fill:#000000;fill-opacity:1;stroke:none;stroke-width:0.264583;stroke-linecap:round;stroke-linejoin:round;stroke-miterlimit:4;stroke-dasharray:none;stroke-opacity:1"
    id="rect4" />
  <path
    style="fill:url(#linearGradient6769);stroke-width:0.355368;paint-order:normal"
    d="m 3.175,7.6729167 c -0.1665672,0 -0.2645835,0.1311285 -0.2645835,0.2939949 0,0.1662297 0.1081063,0.2351717 0.2645835,0.2351717 h 0.5291668 c 0.1660618,-6.3e-6 0.2645903,0.1022114 0.264583,0.2645834 v 1.5875003 c 0,0.162866 0.098013,0.264583 0.2645834,0.264583 h 3.7041667 c 0.1665668,0 0.2645831,-0.101717 0.2645831,-0.264583 V 8.4666667 C 8.2020757,8.3043066 8.300616,8.2020935 8.466666,8.2020833 h 0.7937491 c 0.1665669,0 0.2645831,-0.072305 0.2645831,-0.2351717 0,-0.1628664 -0.098016,-0.2939949 -0.2645831,-0.2939949 h -0.264583 z"
    id="path4" />
  <path
    d="m 3.6489539,8.2020833 c 0.101281,1.22e-4 0.195885,0.050547 0.252417,0.1345827 L 8.466666,8.2020833 c 0,0 0.080755,0.00485 0.00364,0.00477 l -4.2121257,-0.00476 z"
    style="opacity:0.2;fill:#1a1a1a;stroke-width:0.364088"
    id="path5" />
 </g>
 <path
   style="display:inline;mix-blend-mode:normal;fill:url(#linearGradient3403);fill-opacity:1;stroke:url(#linearGradient20558);stroke-width:1.16242;stroke-linecap:butt;stroke-linejoin:round;stroke-miterlimit:4;stroke-dasharray:none;stroke-opacity:1"
   d="M 4.7043071,3.9814882 4.6913695,60.80196 H 58.59546 l 1.022155,-2.866369 c 0,0 -23.87537,0.766388 -32.844441,-4.140386 C 16.257548,48.042344 11.401114,4.0978197 11.401114,4.0978197 Z"
   id="path1686"
   transform="matrix(0.49999999,0,0,0.5,0.06630363,0.01654935)" />
 <rect
   style="display:inline;fill:none;fill-opacity:1;stroke:url(#linearGradient4557);stroke-width:3.71366;stroke-linejoin:round;stroke-miterlimit:7.8;stroke-dasharray:none;stroke-opacity:0.995146"
   id="rect4539"
   width="62.567089"
   height="62.866646"
   x="1.0323594"
   y="0.59551275"
   ry="6.2447233"
   rx="5.8029528"
   transform="matrix(0.46839137,0,0,0.46743669,0.90638486,1.0268972)" />
</svg>
