<?xml version="1.0" encoding="UTF-8" standalone="no"?>
<!-- Created with Inkscape (http://www.inkscape.org/) -->

<svg
   width="32"
   height="32"
   version="1.1"
   viewBox="0 0 32 32"
   id="svg22"
   sodipodi:docname="pattern-qt-devel.svg"
   inkscape:version="1.1.2 (0a00cf5339, 2022-02-04)"
   xmlns:inkscape="http://www.inkscape.org/namespaces/inkscape"
   xmlns:sodipodi="http://sodipodi.sourceforge.net/DTD/sodipodi-0.dtd"
   xmlns:xlink="http://www.w3.org/1999/xlink"
   xmlns="http://www.w3.org/2000/svg"
   xmlns:svg="http://www.w3.org/2000/svg">
  <sodipodi:namedview
     id="namedview24"
     pagecolor="#ffffff"
     bordercolor="#666666"
     borderopacity="1.0"
     inkscape:showpageshadow="2"
     inkscape:pageopacity="0.0"
     inkscape:pagecheckerboard="0"
     inkscape:deskcolor="#d1d1d1"
     showgrid="false"
     inkscape:zoom="18.3"
     inkscape:cx="-4.0983607"
     inkscape:cy="23.032787"
     inkscape:window-width="3440"
     inkscape:window-height="1359"
     inkscape:window-x="0"
     inkscape:window-y="0"
     inkscape:window-maximized="1"
     inkscape:current-layer="svg22"
     inkscape:pageshadow="2" />
  <defs
     id="defs12">
    <linearGradient
       inkscape:collect="always"
       id="linearGradient1823">
      <stop
         style="stop-color:#0d5f0f;stop-opacity:1;"
         offset="0"
         id="stop1819" />
      <stop
         style="stop-color:#41cd52;stop-opacity:1"
         offset="1"
         id="stop1821" />
    </linearGradient>
    <linearGradient
       id="linearGradient1005-3-3"
       x1="5.2535"
       x2="9.3823996"
       y1="15.383"
       y2="2.9421"
       gradientTransform="matrix(0.99999,0,0,0.99999,1.632,-0.61743)"
       gradientUnits="userSpaceOnUse">
      <stop
         stop-color="#fa8200"
         offset="0"
         id="stop2" />
      <stop
         stop-color="#ff9600"
         offset=".36953"
         id="stop4" />
      <stop
         stop-color="#ffb400"
         offset="1"
         id="stop6" />
    </linearGradient>
    <filter
       id="filter4014"
       x="-0.062499933"
       y="-0.057692993"
       width="1.1249999"
       height="1.115386"
       color-interpolation-filters="sRGB">
      <feGaussianBlur
         stdDeviation="1.093751"
         id="feGaussianBlur9" />
    </filter>
    <linearGradient
       inkscape:collect="always"
       xlink:href="#linearGradient3487"
       id="linearGradient3403"
       gradientUnits="userSpaceOnUse"
       x1="6.9491749"
       y1="4.5549412"
       x2="11.215498"
       y2="59.052471" />
    <linearGradient
       id="linearGradient3487">
      <stop
         style="stop-color:#32373c;stop-opacity:1"
         offset="0"
         id="stop3481" />
      <stop
         id="stop3483"
         offset="0.36804965"
         style="stop-color:#1a1a1a;stop-opacity:1" />
      <stop
         style="stop-color:#31363b;stop-opacity:1"
         offset="1"
         id="stop3485" />
    </linearGradient>
    <linearGradient
       inkscape:collect="always"
       xlink:href="#linearGradient20604"
       id="linearGradient20558"
       gradientUnits="userSpaceOnUse"
       x1="25.802212"
       y1="20.373846"
       x2="25.111048"
       y2="58.912758" />
    <linearGradient
       id="linearGradient20604">
      <stop
         id="stop20598"
         offset="0"
         style="stop-color:#3d3d3d;stop-opacity:1" />
      <stop
         style="stop-color:#000000;stop-opacity:1"
         offset="0.61772454"
         id="stop20600" />
      <stop
         id="stop20602"
         offset="1"
         style="stop-color:#3d3d3d;stop-opacity:1" />
    </linearGradient>
    <filter
       inkscape:collect="always"
       style="color-interpolation-filters:sRGB"
       id="filter20720"
       x="-0.017024755"
       y="-0.016457183"
       width="1.0340491"
       height="1.0329144">
      <feGaussianBlur
         inkscape:collect="always"
         stdDeviation="0.14745661"
         id="feGaussianBlur20722" />
    </filter>
    <linearGradient
       gradientTransform="translate(0.36067797,-0.13016949)"
       xlink:href="#linearGradient4555"
       id="linearGradient4557"
       x1="43.499737"
       y1="64.011795"
       x2="44.141731"
       y2="0.30621234"
       gradientUnits="userSpaceOnUse" />
    <linearGradient
       id="linearGradient4555">
      <stop
         style="stop-color:#141618;stop-opacity:1"
         offset="0"
         id="stop4551" />
      <stop
         id="stop4559"
         offset="0.51820582"
         style="stop-color:#686868;stop-opacity:1" />
      <stop
         style="stop-color:#31363b;stop-opacity:1"
         offset="1"
         id="stop4553" />
    </linearGradient>
    <filter
       style="color-interpolation-filters:sRGB"
       id="filter4601"
       x="-0.030245112"
       width="1.0604902"
       y="-0.030100647"
       height="1.0602013">
      <feGaussianBlur
         stdDeviation="0.014790289"
         id="feGaussianBlur4603" />
    </filter>
    <linearGradient
       xlink:href="#a"
       id="b"
       x1="505.44"
       y1="484.728"
       x2="505.44"
       y2="464.04501"
       gradientUnits="userSpaceOnUse"
       gradientTransform="translate(40)" />
    <linearGradient
       id="a">
      <stop
         stop-color="#3e3e3e"
         id="stop2-5" />
      <stop
         offset="1"
         stop-color="#494949"
         id="stop4-3" />
    </linearGradient>
    <linearGradient
       id="c"
       y1="527.01398"
       x1="406.50101"
       y2="539.82501"
       x2="419.974"
       gradientUnits="userSpaceOnUse"
       gradientTransform="matrix(0.69328,0,0,0.69328,242.993,110.881)">
      <stop
         stop-color="#292c2f"
         id="stop8" />
      <stop
         offset="1"
         stop-opacity="0"
         id="stop10" />
    </linearGradient>
    <linearGradient
       id="b-1"
       gradientUnits="userSpaceOnUse"
       x1="32"
       x2="32"
       y1="28"
       y2="4"
       gradientTransform="translate(-75.422111,-48.41206)">
      <stop
         offset="0"
         stop-color="#17a81a"
         id="stop2-59"
         style="stop-color:#0d5f0f;stop-opacity:1" />
      <stop
         offset="1"
         stop-color="#41cd52"
         id="stop4-7" />
    </linearGradient>
    <linearGradient
       id="c-7"
       gradientUnits="userSpaceOnUse"
       x1="8"
       x2="21"
       xlink:href="#a-6"
       y1="10"
       y2="23"
       gradientTransform="translate(1.1811009,-0.94820984)" />
    <linearGradient
       id="a-6"
       gradientTransform="translate(1.01,-1.022)"
       gradientUnits="userSpaceOnUse"
       x1="-14.65"
       x2="-6.4299998"
       y1="9.1780005"
       y2="17.521999">
      <stop
         offset="0"
         stop-color="#292c2f"
         id="stop9" />
      <stop
         offset="1"
         stop-opacity="0"
         id="stop11" />
    </linearGradient>
    <linearGradient
       id="d"
       gradientUnits="userSpaceOnUse"
       x1="20"
       x2="29"
       xlink:href="#a-6"
       y1="12"
       y2="21"
       gradientTransform="matrix(0.79287945,0,0,1,5.6828657,-0.94820984)" />
    <linearGradient
       inkscape:collect="always"
       xlink:href="#linearGradient1823"
       id="linearGradient1825"
       x1="5.9392419"
       y1="25.991179"
       x2="25.564983"
       y2="5.0185919"
       gradientUnits="userSpaceOnUse" />
  </defs>
  <rect
     style="fill:url(#linearGradient1825);fill-opacity:1;fill-rule:evenodd;stroke-width:0.0948715;stroke-linejoin:round;paint-order:markers fill stroke"
     id="rect1668"
     width="28.245506"
     height="29.011631"
     x="2.29615"
     y="1.4831752"
     rx="2.4133918"
     ry="2.8796101" />
  <g
     id="g1024"
     transform="matrix(0.07745528,0,0,0.07745528,1.172959,3.2142428)">
    <path
       d="M 122.37,71.33 C 137.5,61.32 156.21,58.79 174,58.95 c 16.94,0.21 34.72,3.18 48.76,13.29 10.2,7.17 16.83,18.24 21.25,29.69 7.15,18.8 9.25,39.1 9.49,59.08 0.03,20.12 -0.88,40.68 -7.54,59.85 -4.46,13.04 -12.95,24.62 -24.15,32.66 8.06,13.06 16.28,26.02 24.34,39.08 -10.13,4.67 -20.23,9.37 -30.37,14.02 -8.63,-14.24 -17.22,-28.51 -25.88,-42.73 -11.71,1.92 -23.69,1.77 -35.46,0.47 -14.1,-1.69 -28.47,-5.99 -39.35,-15.48 -8.36,-7.24 -13.61,-17.37 -17.2,-27.67 -5.88,-17.42 -7.46,-35.96 -7.73,-54.24 -0.14,-19.76 1.12,-39.83 7.08,-58.79 4.61,-14.26 12.24,-28.49 25.13,-36.85 z"
       id="path8"
       fill="#ffffff" />
    <path
       d="m 294.13,70.69 c 10.6,-0.01 21.2,-0.01 31.8,0 0.03,14.02 -0.01,28.03 0.02,42.05 13.55,0.02 27.1,0 40.65,0.01 -0.23,9.1 -0.48,18.2 -0.74,27.3 -13.54,0.03 -27.07,-0.01 -40.61,0.02 0.03,22.98 -0.07,45.96 0.05,68.94 0.26,6.29 0.12,12.93 2.89,18.74 2.02,4.48 7.46,5.63 11.89,5.78 8.35,-0.03 16.69,-0.52 25.04,-0.67 0.51,8.36 1,16.73 1.48,25.09 -16.61,2.79 -34.04,6.13 -50.54,0.91 -6.95,-2.06 -13.43,-6.67 -16.25,-13.54 -5.05,-11.69 -5.46,-24.7 -5.68,-37.25 -0.02,-22.67 0,-45.33 -0.01,-68 -7.39,-0.02 -14.78,0.01 -22.17,-0.02 -0.02,-9.09 -0.02,-18.19 0,-27.29 7.39,-0.03 14.77,0.01 22.16,-0.02 0.03,-14.02 -0.01,-28.03 0.02,-42.05 z"
       id="path10"
       fill="#ffffff" />
    <path
       fill="#41cd52"
       d="m 160.51,87.7 c 10.29,-1.34 21.09,-0.98 30.83,2.91 7.89,3.12 14.59,9.23 18.13,16.97 5.43,11.73 7.51,24.68 8.56,37.47 1.14,17.02 0.98,34.2 -1.37,51.12 -1.65,10.07 -4,20.68 -10.82,28.62 -6.92,7.97 -17.59,11.39 -27.83,12.19 -10.8,0.79 -22.19,0 -31.94,-5.11 -5.69,-3.03 -10.52,-7.78 -13.34,-13.6 -3.42,-6.97 -5.3,-14.58 -6.62,-22.2 -3.98,-24.16 -4.94,-49.16 0.5,-73.18 2.24,-9.06 5.5,-18.36 12.12,-25.19 5.76,-5.85 13.78,-8.87 21.78,-10 z"
       id="path12" />
  </g>
  <path
     style="display:inline;mix-blend-mode:normal;fill:url(#linearGradient3403);fill-opacity:1;stroke:url(#linearGradient20558);stroke-width:1.16242;stroke-linecap:butt;stroke-linejoin:round;stroke-miterlimit:4;stroke-dasharray:none;stroke-opacity:1;filter:url(#filter20720)"
     d="M 4.7043071,3.9814882 4.6913695,60.80196 H 58.59546 l 1.022155,-2.866369 c 0,0 -23.87537,0.766388 -32.844441,-4.140386 C 16.257548,48.042344 11.401114,4.0978197 11.401114,4.0978197 Z"
     id="path1686"
     sodipodi:nodetypes="ccccscc"
     transform="matrix(0.49325136,0,0,0.49325136,0.32589063,0.23394568)"
     inkscape:label="folder" />
  <rect
     style="display:inline;fill:none;fill-opacity:1;stroke:url(#linearGradient4557);stroke-width:3.71366;stroke-linejoin:round;stroke-miterlimit:7.8;stroke-dasharray:none;stroke-opacity:0.995146;filter:url(#filter4601)"
     id="rect4539"
     width="62.566364"
     height="62.866646"
     x="1.0323594"
     y="0.59551275"
     ry="6.2447233"
     rx="5.8029528"
     transform="matrix(0.46206936,0,0,0.46112756,1.154633,1.2306566)"
     inkscape:label="contour" />
</svg>
