<?xml version="1.0" encoding="UTF-8" standalone="no"?>
<!-- Created with Inkscape (http://www.inkscape.org/) -->

<svg
   width="32"
   height="32"
   version="1.1"
   viewBox="0 0 32 32"
   id="svg22"
   sodipodi:docname="pattern-perl-devel.svg"
   inkscape:version="1.1.2 (0a00cf5339, 2022-02-04)"
   xmlns:inkscape="http://www.inkscape.org/namespaces/inkscape"
   xmlns:sodipodi="http://sodipodi.sourceforge.net/DTD/sodipodi-0.dtd"
   xmlns:xlink="http://www.w3.org/1999/xlink"
   xmlns="http://www.w3.org/2000/svg"
   xmlns:svg="http://www.w3.org/2000/svg">
  <sodipodi:namedview
     id="namedview24"
     pagecolor="#ffffff"
     bordercolor="#666666"
     borderopacity="1.0"
     inkscape:showpageshadow="2"
     inkscape:pageopacity="0.0"
     inkscape:pagecheckerboard="0"
     inkscape:deskcolor="#d1d1d1"
     showgrid="false"
     inkscape:zoom="19.6"
     inkscape:cx="-12.244898"
     inkscape:cy="24.566327"
     inkscape:window-width="3440"
     inkscape:window-height="1359"
     inkscape:window-x="0"
     inkscape:window-y="0"
     inkscape:window-maximized="1"
     inkscape:current-layer="svg22"
     inkscape:pageshadow="2" />
  <defs
     id="defs12">
    <linearGradient
       inkscape:collect="always"
       id="linearGradient14211">
      <stop
         style="stop-color:#7c7a5f;stop-opacity:1"
         offset="0"
         id="stop14207" />
      <stop
         style="stop-color:#d8d8d8;stop-opacity:0.98039216"
         offset="1"
         id="stop14209" />
    </linearGradient>
    <linearGradient
       inkscape:collect="always"
       id="linearGradient14102">
      <stop
         style="stop-color:#0ea9f9;stop-opacity:1;"
         offset="0"
         id="stop14098" />
      <stop
         style="stop-color:#74caf6;stop-opacity:1"
         offset="1"
         id="stop14100" />
    </linearGradient>
    <linearGradient
       id="linearGradient1005-3-3"
       x1="5.2535"
       x2="9.3823996"
       y1="15.383"
       y2="2.9421"
       gradientTransform="matrix(0.99999,0,0,0.99999,1.632,-0.61743)"
       gradientUnits="userSpaceOnUse">
      <stop
         stop-color="#fa8200"
         offset="0"
         id="stop2" />
      <stop
         stop-color="#ff9600"
         offset=".36953"
         id="stop4" />
      <stop
         stop-color="#ffb400"
         offset="1"
         id="stop6" />
    </linearGradient>
    <filter
       id="filter4014"
       x="-0.062499933"
       y="-0.057692993"
       width="1.1249999"
       height="1.115386"
       color-interpolation-filters="sRGB">
      <feGaussianBlur
         stdDeviation="1.093751"
         id="feGaussianBlur9" />
    </filter>
    <linearGradient
       inkscape:collect="always"
       xlink:href="#linearGradient3487"
       id="linearGradient3403"
       gradientUnits="userSpaceOnUse"
       x1="6.9491749"
       y1="4.5549412"
       x2="11.215498"
       y2="59.052471" />
    <linearGradient
       id="linearGradient3487">
      <stop
         style="stop-color:#32373c;stop-opacity:1"
         offset="0"
         id="stop3481" />
      <stop
         id="stop3483"
         offset="0.36804965"
         style="stop-color:#1a1a1a;stop-opacity:1" />
      <stop
         style="stop-color:#31363b;stop-opacity:1"
         offset="1"
         id="stop3485" />
    </linearGradient>
    <linearGradient
       inkscape:collect="always"
       xlink:href="#linearGradient20604"
       id="linearGradient20558"
       gradientUnits="userSpaceOnUse"
       x1="25.802212"
       y1="20.373846"
       x2="25.111048"
       y2="58.912758" />
    <linearGradient
       id="linearGradient20604">
      <stop
         id="stop20598"
         offset="0"
         style="stop-color:#3d3d3d;stop-opacity:1" />
      <stop
         style="stop-color:#000000;stop-opacity:1"
         offset="0.61772454"
         id="stop20600" />
      <stop
         id="stop20602"
         offset="1"
         style="stop-color:#3d3d3d;stop-opacity:1" />
    </linearGradient>
    <filter
       inkscape:collect="always"
       style="color-interpolation-filters:sRGB"
       id="filter20720"
       x="-0.017024755"
       y="-0.016457183"
       width="1.0340491"
       height="1.0329144">
      <feGaussianBlur
         inkscape:collect="always"
         stdDeviation="0.14745661"
         id="feGaussianBlur20722" />
    </filter>
    <linearGradient
       gradientTransform="translate(0.36067797,-0.13016949)"
       xlink:href="#linearGradient4555"
       id="linearGradient4557"
       x1="43.499737"
       y1="64.011795"
       x2="44.141731"
       y2="0.30621234"
       gradientUnits="userSpaceOnUse" />
    <linearGradient
       id="linearGradient4555">
      <stop
         style="stop-color:#141618;stop-opacity:1"
         offset="0"
         id="stop4551" />
      <stop
         id="stop4559"
         offset="0.51820582"
         style="stop-color:#686868;stop-opacity:1" />
      <stop
         style="stop-color:#31363b;stop-opacity:1"
         offset="1"
         id="stop4553" />
    </linearGradient>
    <filter
       style="color-interpolation-filters:sRGB"
       id="filter4601"
       x="-0.030244955"
       width="1.0604899"
       y="-0.030100647"
       height="1.0602013">
      <feGaussianBlur
         stdDeviation="0.014790289"
         id="feGaussianBlur4603" />
    </filter>
    <linearGradient
       xlink:href="#g"
       id="l"
       y1="24.302"
       x1="8.2729998"
       y2="8.3769999"
       gradientUnits="userSpaceOnUse"
       x2="24.149" />
    <linearGradient
       id="g">
      <stop
         stop-color="#e81877"
         id="stop42" />
      <stop
         offset=".312"
         stop-color="#dd1d8c"
         id="stop44" />
      <stop
         offset=".562"
         stop-color="#6d57b1"
         id="stop46" />
      <stop
         offset=".75"
         stop-color="#2a78c1"
         id="stop48" />
      <stop
         offset="1"
         stop-color="#018dcb"
         id="stop50" />
    </linearGradient>
    <clipPath
       id="k">
      <rect
         width="32"
         x="8"
         y="8"
         rx="16"
         height="32"
         id="rect102" />
    </clipPath>
    <linearGradient
       xlink:href="#h"
       id="n"
       y1="24.353001"
       x1="8.3850002"
       y2="8.5740004"
       gradientUnits="userSpaceOnUse"
       x2="23.846001"
       gradientTransform="matrix(1,0,0,-1,384.571,547.798)" />
    <linearGradient
       id="h">
      <stop
         stop-color="#e51561"
         id="stop54" />
      <stop
         offset=".312"
         stop-color="#e4156c"
         id="stop56" />
      <stop
         offset=".562"
         stop-color="#e71e2c"
         id="stop58" />
      <stop
         offset=".75"
         stop-color="#e8301e"
         id="stop60" />
      <stop
         offset="1"
         stop-color="#e6320e"
         id="stop62" />
    </linearGradient>
    <clipPath
       id="m">
      <rect
         width="32"
         x="392.57101"
         y="507.798"
         rx="16"
         height="32"
         id="rect105" />
    </clipPath>
    <linearGradient
       xlink:href="#i"
       id="p"
       y1="24.159"
       x1="8.125"
       y2="8.4809999"
       gradientUnits="userSpaceOnUse"
       x2="23.775"
       gradientTransform="matrix(-1,0,0,1,432.571,499.798)" />
    <linearGradient
       id="i">
      <stop
         stop-color="#bec900"
         id="stop66" />
      <stop
         offset=".312"
         stop-color="#9ec80a"
         id="stop68" />
      <stop
         offset=".562"
         stop-color="#71b93d"
         id="stop70" />
      <stop
         offset=".75"
         stop-color="#35a48f"
         id="stop72" />
      <stop
         offset="1"
         stop-color="#018fca"
         id="stop74" />
    </linearGradient>
    <clipPath
       id="o">
      <rect
         width="32"
         x="392.57101"
         y="507.798"
         rx="16"
         height="32"
         id="rect108" />
    </clipPath>
    <linearGradient
       xlink:href="#j"
       id="r"
       y1="24.063"
       x1="8.2329998"
       y2="7.7870002"
       gradientUnits="userSpaceOnUse"
       x2="23.264999"
       gradientTransform="rotate(-180,216.286,273.899)" />
    <linearGradient
       id="j">
      <stop
         stop-color="#c1cc00"
         id="stop78" />
      <stop
         offset=".312"
         stop-color="#dfcd00"
         id="stop80" />
      <stop
         offset=".562"
         stop-color="#f0cc00"
         id="stop82" />
      <stop
         offset=".75"
         stop-color="#fd8c08"
         id="stop84" />
      <stop
         offset="1"
         stop-color="#f25c13"
         id="stop86" />
    </linearGradient>
    <clipPath
       id="q">
      <rect
         width="32"
         x="392.57101"
         y="507.798"
         rx="16"
         height="32"
         id="rect111" />
    </clipPath>
    <linearGradient
       xlink:href="#g"
       id="t"
       y1="24.160999"
       x1="8.2550001"
       y2="8.4020004"
       gradientUnits="userSpaceOnUse"
       x2="24.093" />
    <clipPath
       id="s">
      <rect
         width="32"
         x="8"
         y="8"
         rx="16"
         height="32"
         id="rect114" />
    </clipPath>
    <filter
       width="1.1668191"
       x="-0.083409542"
       y="-0.080645162"
       height="1.1612903"
       id="u"
       color-interpolation-filters="sRGB">
      <feGaussianBlur
         stdDeviation=".4"
         id="feGaussianBlur138" />
    </filter>
    <linearGradient
       xlink:href="#h"
       id="w"
       y1="23.598"
       x1="7.4899998"
       y2="8.2639999"
       gradientUnits="userSpaceOnUse"
       x2="24.468"
       gradientTransform="matrix(1,0,0,-1,384.571,547.798)" />
    <clipPath
       id="v">
      <rect
         width="32"
         x="392.57101"
         y="507.798"
         rx="16"
         height="32"
         id="rect117" />
    </clipPath>
    <filter
       width="1.1668191"
       x="-0.08340954"
       y="-0.081094779"
       height="1.1621896"
       id="filter1027"
       color-interpolation-filters="sRGB">
      <feGaussianBlur
         stdDeviation=".4"
         id="feGaussianBlur1025" />
    </filter>
    <linearGradient
       xlink:href="#j"
       id="y"
       y1="24.121"
       x1="8.3710003"
       y2="8.0299997"
       gradientUnits="userSpaceOnUse"
       x2="24.011999"
       gradientTransform="rotate(180,216.286,273.899)" />
    <clipPath
       id="x">
      <rect
         width="32"
         x="392.57101"
         y="507.798"
         rx="16"
         height="32"
         id="rect120" />
    </clipPath>
    <filter
       width="1.1668191"
       x="-0.08340954"
       y="-0.081094779"
       height="1.1621896"
       id="filter1046"
       color-interpolation-filters="sRGB">
      <feGaussianBlur
         stdDeviation=".4"
         id="feGaussianBlur1044" />
    </filter>
    <linearGradient
       xlink:href="#i"
       id="A"
       y1="24.08"
       x1="8.3940001"
       y2="8.3620005"
       gradientUnits="userSpaceOnUse"
       x2="24.139"
       gradientTransform="matrix(-1,0,0,1,432.571,499.798)" />
    <clipPath
       id="z">
      <rect
         width="32"
         x="392.57101"
         y="507.798"
         rx="16"
         height="32"
         id="rect123" />
    </clipPath>
    <filter
       width="1.1668191"
       x="-0.08340954"
       y="-0.081094779"
       height="1.1621896"
       id="filter1065"
       color-interpolation-filters="sRGB">
      <feGaussianBlur
         stdDeviation=".4"
         id="feGaussianBlur1063" />
    </filter>
    <linearGradient
       xlink:href="#g"
       id="B"
       gradientUnits="userSpaceOnUse"
       x1="8.4569998"
       y1="23.997999"
       x2="24.105"
       y2="8.2360001" />
    <clipPath
       id="clipPath1082">
      <rect
         width="32"
         x="8"
         y="8"
         rx="16"
         height="32"
         id="rect1080" />
    </clipPath>
    <linearGradient
       xlink:href="#h"
       id="C"
       y1="24.021999"
       x1="8.0430002"
       y2="8"
       gradientUnits="userSpaceOnUse"
       x2="24"
       gradientTransform="matrix(1,0,0,-1,384.571,547.798)" />
    <clipPath
       id="clipPath1099">
      <rect
         width="32"
         x="392.57101"
         y="507.798"
         rx="16"
         height="32"
         id="rect1097" />
    </clipPath>
    <linearGradient
       xlink:href="#j"
       id="D"
       y1="24"
       x1="8"
       y2="8"
       gradientUnits="userSpaceOnUse"
       x2="24"
       gradientTransform="rotate(-180,216.286,273.899)" />
    <clipPath
       id="clipPath1116">
      <rect
         width="32"
         x="392.57101"
         y="507.798"
         rx="16"
         height="32"
         id="rect1114" />
    </clipPath>
    <linearGradient
       xlink:href="#i"
       id="E"
       y1="24.135"
       x1="8.1920004"
       y2="8.2329998"
       gradientUnits="userSpaceOnUse"
       x2="24.062"
       gradientTransform="matrix(-1,0,0,1,432.571,499.798)" />
    <clipPath
       id="clipPath1133">
      <rect
         width="32"
         x="392.57101"
         y="507.798"
         rx="16"
         height="32"
         id="rect1131" />
    </clipPath>
    <linearGradient
       xlink:href="#g"
       id="G"
       y1="23.327999"
       x1="8.059"
       y2="8.3719997"
       gradientUnits="userSpaceOnUse"
       x2="23.775" />
    <clipPath
       id="F">
      <rect
         width="32"
         x="8"
         y="8"
         rx="16"
         height="32"
         id="rect126" />
    </clipPath>
    <linearGradient
       xlink:href="#h"
       id="I"
       y1="23.961"
       x1="8.323"
       y2="8.2550001"
       gradientUnits="userSpaceOnUse"
       x2="23.943001"
       gradientTransform="matrix(1,0,0,-1,384.571,547.798)" />
    <clipPath
       id="H">
      <rect
         width="32"
         x="392.57101"
         y="507.798"
         rx="16"
         height="32"
         id="rect129" />
    </clipPath>
    <linearGradient
       xlink:href="#j"
       id="K"
       y1="24"
       x1="8"
       y2="8.3850002"
       gradientUnits="userSpaceOnUse"
       x2="24.271999"
       gradientTransform="rotate(180,216.286,273.899)" />
    <clipPath
       id="J">
      <rect
         width="32"
         x="392.57101"
         y="507.798"
         rx="16"
         height="32"
         id="rect132" />
    </clipPath>
    <linearGradient
       xlink:href="#i"
       id="M"
       y1="23.524"
       x1="7.302"
       y2="8.4689999"
       gradientUnits="userSpaceOnUse"
       x2="24.042"
       gradientTransform="matrix(-1,0,0,1,432.571,499.798)" />
    <clipPath
       id="L">
      <rect
         width="32"
         x="392.57101"
         y="507.798"
         rx="16"
         height="32"
         id="rect135" />
    </clipPath>
    <linearGradient
       id="N"
       y1="547.79999"
       y2="536.79999"
       x2="0"
       gradientUnits="userSpaceOnUse"
       gradientTransform="matrix(1,0,0,0.54545,-384.57,-255.8)">
      <stop
         stop-color="#c6cdd1"
         id="stop27" />
      <stop
         offset="1"
         stop-color="#e0e5e7"
         id="stop29" />
    </linearGradient>
    <linearGradient
       id="O"
       y1="536.79999"
       y2="503.79999"
       x2="0"
       gradientUnits="userSpaceOnUse"
       gradientTransform="matrix(0.65486649,0,0,0.65486649,-252.312,-326.30921)">
      <stop
         stop-color="#2a2c2f"
         id="stop32" />
      <stop
         offset="1"
         stop-color="#424649"
         id="stop34" />
    </linearGradient>
    <linearGradient
       id="b"
       gradientUnits="userSpaceOnUse"
       x1="16"
       x2="16"
       y1="30"
       y2="4"
       gradientTransform="translate(-90.56291,-12.633769)">
      <stop
         offset="0"
         stop-color="#73ba25"
         id="stop17" />
      <stop
         offset="1"
         stop-color="#59bbe7"
         id="stop19" />
    </linearGradient>
    <linearGradient
       id="c"
       gradientUnits="userSpaceOnUse"
       x1="25.5"
       x2="30"
       xlink:href="#a"
       y1="18"
       y2="22.5"
       gradientTransform="translate(-51.148904,-0.97968524)" />
    <linearGradient
       id="a">
      <stop
         offset="0"
         stop-color="#292c2f"
         id="stop22" />
      <stop
         offset="1"
         stop-opacity="0"
         id="stop24" />
    </linearGradient>
    <linearGradient
       id="d"
       gradientUnits="userSpaceOnUse"
       x1="12"
       x2="12"
       xlink:href="#a"
       y1="24"
       y2="30"
       gradientTransform="translate(-51.148904,-0.97968524)" />
    <linearGradient
       id="e"
       gradientUnits="userSpaceOnUse"
       x1="11"
       x2="19"
       xlink:href="#a"
       y1="9.5"
       y2="17.5"
       gradientTransform="translate(-51.148904,-0.97968524)" />
    <linearGradient
       id="f"
       gradientUnits="userSpaceOnUse"
       x1="15"
       x2="23"
       xlink:href="#a"
       y1="8.5"
       y2="16.5"
       gradientTransform="translate(-51.148904,-0.97968524)" />
    <linearGradient
       id="g-9"
       gradientUnits="userSpaceOnUse"
       x1="21"
       x2="29"
       xlink:href="#a"
       y1="8"
       y2="16"
       gradientTransform="translate(-51.148904,-0.97968524)" />
    <linearGradient
       id="h-4"
       gradientTransform="matrix(1.35501,0,0,1.27276,-55.634904,-5.1616852)"
       gradientUnits="userSpaceOnUse"
       x1="20"
       x2="20"
       y1="25"
       y2="7">
      <stop
         offset="0"
         stop-color="#eff0f1"
         id="stop2-9" />
      <stop
         offset="1"
         stop-color="#fcfcfc"
         id="stop4-0" />
    </linearGradient>
    <linearGradient
       id="i-9"
       gradientTransform="matrix(1.35501,0,0,1.27276,-55.634904,-5.1616852)"
       gradientUnits="userSpaceOnUse"
       x1="20"
       x2="20"
       y1="25"
       y2="7">
      <stop
         offset="0"
         stop-color="#afb0b3"
         id="stop7" />
      <stop
         offset="1"
         stop-color="#bdc3c7"
         id="stop9" />
    </linearGradient>
    <linearGradient
       inkscape:collect="always"
       xlink:href="#linearGradient14102"
       id="linearGradient14125"
       gradientUnits="userSpaceOnUse"
       x1="10.282666"
       y1="26.411596"
       x2="27.028801"
       y2="6.640708" />
    <linearGradient
       inkscape:collect="always"
       xlink:href="#linearGradient14211"
       id="linearGradient14213"
       x1="74.680435"
       y1="170.28871"
       x2="56.345558"
       y2="20.050655"
       gradientUnits="userSpaceOnUse" />
    <linearGradient
       inkscape:collect="always"
       xlink:href="#linearGradient14211"
       id="linearGradient14314"
       gradientUnits="userSpaceOnUse"
       x1="74.680435"
       y1="170.28871"
       x2="56.345558"
       y2="20.050655" />
  </defs>
  <rect
     style="fill:url(#linearGradient14125);fill-rule:evenodd;stroke:none;stroke-width:0.508492;stroke-linejoin:round;stroke-miterlimit:4;stroke-dasharray:none;stroke-opacity:1;paint-order:markers fill stroke;fill-opacity:1"
     id="rect1796"
     width="27.852646"
     height="28.668646"
     x="2.6365924"
     y="1.4818603"
     rx="1.7882818"
     ry="2.1692739" />
  <g
     id="g6"
     transform="matrix(0.19117921,0,0,0.19117921,7.8445242,6.5916608)"
     style="fill:url(#linearGradient14213);fill-opacity:1;stroke:#b0b0b0;stroke-opacity:0.98039216">
    <path
       class="st0"
       d="m 70.73,65.49 c 1.07,6.3 1.79,12.64 2.17,19.02 0.1,3.97 -1.05,7.87 -3.31,11.14 -0.53,1.89 -2.12,0 -3.26,0 -2.8,0 -3.84,-3.03 -5.35,-4.9 -1.52,-1.87 -0.43,-3.56 0.58,-5.05 1.09,-0.78 1.52,-2.53 3.08,-2.53 1.57,0 1.36,-2.15 1.14,-3.28 1.04,-1.59 0.4,-3.94 1.41,-5.68 1.82,-0.81 1.29,-3.64 1.92,-5.23 0.51,-1.14 0,-3.31 1.44,-3.79 0,0 0.18,0 0.15,0.25 z M 68.96,0.58 C 66.59,0.3 64.79,1.92 62.8,2.83 c -1.66,0.55 -3.34,1.01 -5.05,1.36 -1.24,2.53 -4.09,4.02 -5.63,6.39 -1.58,4.72 -4.51,8.87 -8.44,11.92 -5.61,2.9 -8.44,9.22 -10.28,15.15 -0.63,1.34 -0.53,3.31 -1.21,4.44 -2.22,0.63 -1.04,-2.27 -1.29,-3.66 -0.33,-2.07 1.49,-3.41 1.62,-5.43 0.75,-1.44 1.07,-3.06 0.91,-4.67 C 33.18,24.72 34.26,20.32 31.71,17.37 30.19,16.49 30.67,14.62 30.12,13.18 28.61,11.12 26.7,9.4 24.49,8.13 22.67,7.95 21,5.6 19.14,6.69 c -1.16,1.36 -3.31,1.34 -3.99,3.16 -0.43,2.27 -2.98,1.67 -4.65,2.22 -2.12,0.83 -4.85,0 -6.59,1.69 -1.74,1.69 -4.6,4.17 -3.74,7.02 2,3.91 7.15,1.94 9.95,4.32 -0.89,2.63 -1.91,5.21 -3.06,7.73 -0.46,3.42 -0.53,6.89 -0.2,10.33 0.53,3.44 -0.35,7.86 2.53,10.28 1.64,0.61 1.54,2.53 2.17,3.94 0.63,1.41 1.84,-0.51 2.35,0.86 1.46,0.81 0.15,2.53 0.96,3.54 1.35,0.27 2.59,0.93 3.56,1.89 1.55,1.08 3,2.31 4.32,3.66 1.01,2.07 2.3,-2.02 3.41,-0.48 0.27,0.67 0.82,1.19 1.5,1.43 0.68,0.24 1.43,0.18 2.06,-0.17 2.06,-0.35 4,-1.19 5.66,-2.45 1.09,3.86 0.25,8.06 0.73,12.05 0.67,2.91 1.09,5.88 1.26,8.87 0.76,2.94 1.2,5.96 1.31,8.99 0.82,6.31 -0.25,12.72 -3.08,18.41 -0.34,1.79 -1.73,3.19 -3.51,3.54 -1.26,0.58 -3.89,1.62 -3.01,3.44 2.93,2.53 7.58,2.25 10.94,0.96 2.22,-1.09 0.3,-3.79 1.44,-5.43 1.49,-5.76 0.76,-11.92 2.53,-17.68 1.37,-2.9 1.88,-6.13 1.49,-9.32 0.35,-1.94 -0.45,-4.29 0.81,-5.89 0.02,-1.96 0.75,-3.84 2.05,-5.3 0.41,-2.97 0.62,-5.97 0.63,-8.97 1.78,-0.56 3.65,-0.75 5.51,-0.56 0,1.67 -1.19,3.59 -0.83,5.46 0.37,2.1 -0.03,4.26 -1.14,6.09 -0.78,3.28 -1.31,7.32 0.73,10.1 3.38,3.71 7.8,6.34 11.01,10.3 0.52,0.42 0.83,1.04 0.86,1.71 0.03,0.67 -0.23,1.31 -0.71,1.78 -0.59,2.14 -2.2,3.85 -4.29,4.57 -1.34,0.53 -3.49,2.53 -1.92,3.91 3.15,0.71 6.44,0.49 9.47,-0.63 2.07,-0.76 1.31,-3.26 2.12,-4.82 1.12,1.52 2.14,3.09 3.08,4.72 1.29,1.92 3.51,0.33 5.05,-0.28 0.18,-2.81 -0.38,-5.61 -1.64,-8.13 -0.71,-1.67 -3.46,-1.72 -3.33,-3.76 1.36,-5.05 4.75,-8.99 7.43,-13.26 2.22,-2.12 0.56,-5.28 0.68,-7.96 -0.71,-6.88 0.96,-13.8 4.72,-19.6 0.78,3.22 1.78,6.39 3.01,9.47 0.88,3.62 2.48,7.02 4.7,10 1.04,3.59 0.76,7.58 1.44,11.29 0.98,6.42 0.62,12.97 -1.06,19.25 0.18,2.3 -2,3.99 -1.79,6.24 0.61,2.07 3.03,0.4 4.29,1.29 2.28,0.71 4.74,-0.37 5.76,-2.53 -0.53,-1.75 -0.88,-3.56 -1.06,-5.38 -1.73,-5.31 -2.12,-10.97 -1.11,-16.47 0.2,-2.98 2,-6.62 -0.33,-9.17 -0.63,-2.73 0.45,-5.68 -0.2,-8.49 -1.56,-7.18 -1.74,-14.6 -0.53,-21.85 0.4,-1.01 0,-2.88 1.09,-3.43 1.07,1.6 1.56,3.53 1.36,5.46 0.98,2.98 1.1,6.17 0.35,9.22 -1.84,2.35 -0.71,5.53 -0.48,8.18 0.3,1.87 2.25,0.53 2.53,-0.63 1.7,-3.16 3.07,-6.49 4.09,-9.93 1.16,-1.57 0,-3.41 0,-5.05 1.79,-0.23 1.11,-2.25 0.15,-3.13 -0.96,-3.23 -0.73,-6.97 -2.9,-9.72 C 101.65,40.04 98.8,35.96 96.64,31.52 94.34,24.27 87.77,19.45 85.55,12.12 84.72,7.87 82.17,4.15 78.5,1.84 76.85,1.09 75.16,0.48 73.43,0 71.96,0.31 70.46,0.49 68.96,0.56 Z"
       id="path4"
       style="fill:url(#linearGradient14314);fill-opacity:1;stroke:#b0b0b0;stroke-opacity:0.98039216" />
  </g>
  <path
     style="display:inline;mix-blend-mode:normal;fill:url(#linearGradient3403);fill-opacity:1;stroke:url(#linearGradient20558);stroke-width:1.16242;stroke-linecap:butt;stroke-linejoin:round;stroke-miterlimit:4;stroke-dasharray:none;stroke-opacity:1;filter:url(#filter20720)"
     d="M 4.7043071,3.9814882 4.6913695,60.80196 H 58.59546 l 1.022155,-2.866369 c 0,0 -23.87537,0.766388 -32.844441,-4.140386 C 16.257548,48.042344 11.401114,4.0978197 11.401114,4.0978197 Z"
     id="path1686"
     sodipodi:nodetypes="ccccscc"
     transform="matrix(0.49238082,0,0,0.49238082,0.32665197,0.21278583)"
     inkscape:label="folder" />
  <rect
     style="display:inline;fill:none;fill-opacity:1;stroke:url(#linearGradient4557);stroke-width:3.71366;stroke-linejoin:round;stroke-miterlimit:7.8;stroke-dasharray:none;stroke-opacity:0.995146;filter:url(#filter4601)"
     id="rect4539"
     width="62.566689"
     height="62.866646"
     x="1.0323594"
     y="0.59551275"
     ry="6.2447233"
     rx="5.8029528"
     transform="matrix(0.46125386,0,0,0.46031372,1.1539317,1.2077376)"
     inkscape:label="contour" />
</svg>
