<?xml version="1.0" encoding="UTF-8" standalone="no"?>
<!-- Created with Inkscape (http://www.inkscape.org/) -->

<svg
   width="32"
   height="32"
   version="1.1"
   viewBox="0 0 32 32"
   id="svg22"
   sodipodi:docname="pattern-python-devel.svg"
   inkscape:version="1.1.2 (0a00cf5339, 2022-02-04)"
   xmlns:inkscape="http://www.inkscape.org/namespaces/inkscape"
   xmlns:sodipodi="http://sodipodi.sourceforge.net/DTD/sodipodi-0.dtd"
   xmlns:xlink="http://www.w3.org/1999/xlink"
   xmlns="http://www.w3.org/2000/svg"
   xmlns:svg="http://www.w3.org/2000/svg">
  <sodipodi:namedview
     id="namedview24"
     pagecolor="#ffffff"
     bordercolor="#666666"
     borderopacity="1.0"
     inkscape:showpageshadow="2"
     inkscape:pageopacity="0.0"
     inkscape:pagecheckerboard="0"
     inkscape:deskcolor="#d1d1d1"
     showgrid="false"
     inkscape:zoom="12.94"
     inkscape:cx="12.673879"
     inkscape:cy="10.857805"
     inkscape:window-width="1920"
     inkscape:window-height="999"
     inkscape:window-x="0"
     inkscape:window-y="0"
     inkscape:window-maximized="1"
     inkscape:current-layer="svg22"
     inkscape:pageshadow="2" />
  <defs
     id="defs12">
    <linearGradient
       id="linearGradient1005-3-3"
       x1="5.2535"
       x2="9.3823996"
       y1="15.383"
       y2="2.9421"
       gradientTransform="matrix(0.99999,0,0,0.99999,1.632,-0.61743)"
       gradientUnits="userSpaceOnUse">
      <stop
         stop-color="#fa8200"
         offset="0"
         id="stop2" />
      <stop
         stop-color="#ff9600"
         offset=".36953"
         id="stop4" />
      <stop
         stop-color="#ffb400"
         offset="1"
         id="stop6" />
    </linearGradient>
    <filter
       id="filter4014"
       x="-0.062499933"
       y="-0.057692993"
       width="1.1249999"
       height="1.115386"
       color-interpolation-filters="sRGB">
      <feGaussianBlur
         stdDeviation="1.093751"
         id="feGaussianBlur9" />
    </filter>
    <linearGradient
       inkscape:collect="always"
       xlink:href="#linearGradient3487"
       id="linearGradient3403"
       gradientUnits="userSpaceOnUse"
       x1="6.9491749"
       y1="4.5549412"
       x2="11.215498"
       y2="59.052471" />
    <linearGradient
       id="linearGradient3487">
      <stop
         style="stop-color:#32373c;stop-opacity:1"
         offset="0"
         id="stop3481" />
      <stop
         id="stop3483"
         offset="0.36804965"
         style="stop-color:#1a1a1a;stop-opacity:1" />
      <stop
         style="stop-color:#31363b;stop-opacity:1"
         offset="1"
         id="stop3485" />
    </linearGradient>
    <linearGradient
       inkscape:collect="always"
       xlink:href="#linearGradient20604"
       id="linearGradient20558"
       gradientUnits="userSpaceOnUse"
       x1="25.802212"
       y1="20.373846"
       x2="25.111048"
       y2="58.912758" />
    <linearGradient
       id="linearGradient20604">
      <stop
         id="stop20598"
         offset="0"
         style="stop-color:#3d3d3d;stop-opacity:1" />
      <stop
         style="stop-color:#000000;stop-opacity:1"
         offset="0.61772454"
         id="stop20600" />
      <stop
         id="stop20602"
         offset="1"
         style="stop-color:#3d3d3d;stop-opacity:1" />
    </linearGradient>
    <filter
       inkscape:collect="always"
       style="color-interpolation-filters:sRGB"
       id="filter20720"
       x="-0.017024755"
       y="-0.016457183"
       width="1.0340491"
       height="1.0329144">
      <feGaussianBlur
         inkscape:collect="always"
         stdDeviation="0.14745661"
         id="feGaussianBlur20722" />
    </filter>
    <linearGradient
       gradientTransform="translate(0.36067797,-0.13016949)"
       xlink:href="#linearGradient4555"
       id="linearGradient4557"
       x1="43.499737"
       y1="64.011795"
       x2="44.141731"
       y2="0.30621234"
       gradientUnits="userSpaceOnUse" />
    <linearGradient
       id="linearGradient4555">
      <stop
         style="stop-color:#141618;stop-opacity:1"
         offset="0"
         id="stop4551" />
      <stop
         id="stop4559"
         offset="0.51820582"
         style="stop-color:#686868;stop-opacity:1" />
      <stop
         style="stop-color:#31363b;stop-opacity:1"
         offset="1"
         id="stop4553" />
    </linearGradient>
    <filter
       style="color-interpolation-filters:sRGB"
       id="filter4601"
       x="-0.030244955"
       width="1.0604899"
       y="-0.030100647"
       height="1.0602013">
      <feGaussianBlur
         stdDeviation="0.014790289"
         id="feGaussianBlur4603" />
    </filter>
    <linearGradient
       xlink:href="#a"
       id="o"
       gradientUnits="userSpaceOnUse"
       gradientTransform="translate(-384.57,-499.8)"
       y1="543.79999"
       x2="0"
       y2="512.79999" />
    <linearGradient
       id="a"
       y1="543.79999"
       y2="512.79999"
       x2="0"
       gradientUnits="userSpaceOnUse">
      <stop
         stop-color="#cea476"
         id="stop3" />
      <stop
         offset="1"
         stop-color="#dab58b"
         id="stop5" />
    </linearGradient>
    <linearGradient
       id="p"
       gradientTransform="matrix(1.41667,0,0,1.4091,1.167,1.727)"
       gradientUnits="userSpaceOnUse"
       x2="0"
       xlink:href="#n"
       y1="30"
       y2="8" />
    <linearGradient
       id="n"
       gradientUnits="userSpaceOnUse"
       x2="0"
       y1="30"
       y2="8">
      <stop
         offset="0"
         stop-color="#cfd2d5"
         id="stop75" />
      <stop
         offset="1"
         stop-color="#eff0f1"
         id="stop77" />
    </linearGradient>
    <linearGradient
       xlink:href="#c"
       id="q"
       gradientUnits="userSpaceOnUse"
       gradientTransform="matrix(0.50313,0,0,1,-171.625,-499.8)"
       x1="411.427"
       y1="543.79999"
       x2="411.427"
       y2="512.79999" />
    <linearGradient
       id="c"
       gradientTransform="matrix(0.50313,0,0,1,-231.625,-499.8)"
       gradientUnits="userSpaceOnUse"
       x1="411.427"
       x2="411.427"
       y1="543.79999"
       y2="512.79999">
      <stop
         offset="0"
         stop-color="#73ba25"
         id="stop80" />
      <stop
         offset="1"
         stop-color="#81c13b"
         stop-opacity=".85"
         id="stop82" />
    </linearGradient>
    <linearGradient
       id="r"
       gradientUnits="userSpaceOnUse"
       x1="21"
       x2="21"
       xlink:href="#l"
       y1="13"
       y2="4" />
    <linearGradient
       id="l">
      <stop
         offset="0"
         stop-color="#cea476"
         id="stop62" />
      <stop
         offset="1"
         stop-color="#dab58b"
         id="stop64" />
    </linearGradient>
    <linearGradient
       id="s"
       gradientTransform="translate(-384.57,-499.801)"
       gradientUnits="userSpaceOnUse"
       x1="411.57001"
       x2="411.57001"
       xlink:href="#m"
       y1="512.80103"
       y2="503.80099">
      <stop
         offset="0"
         stop-color="#ebc69a"
         id="stop69" />
      <stop
         offset="1"
         stop-color="#f4e0c8"
         stop-opacity="0"
         id="stop71" />
    </linearGradient>
    <linearGradient
       id="m"
       gradientTransform="matrix(0.66667,0,0,-0.37037,-256.38,197.926)"
       gradientUnits="userSpaceOnUse"
       x1="408.57001"
       x2="408.57001"
       y1="512.79797"
       y2="504.698">
      <stop
         offset="0"
         stop-color="#ebc69a"
         id="stop85" />
      <stop
         offset="1"
         stop-color="#73ba25"
         stop-opacity="0"
         id="stop87" />
    </linearGradient>
    <linearGradient
       id="t"
       gradientTransform="matrix(1,0,0,-0.55556,-384.57,297.89)"
       gradientUnits="userSpaceOnUse"
       x1="408.57001"
       x2="408.57001"
       xlink:href="#m"
       y1="512.79797"
       y2="505.59799" />
    <linearGradient
       id="u"
       gradientUnits="userSpaceOnUse"
       x1="18"
       x2="30"
       y1="18"
       y2="30"
       gradientTransform="matrix(1.42857,0,0,1.42857,1.143,1.143)">
      <stop
         offset="0"
         stop-color="#292c2f"
         id="stop49" />
      <stop
         offset="1"
         stop-opacity="0"
         id="stop51" />
    </linearGradient>
    <linearGradient
       xlink:href="#j"
       id="v"
       x1="425.74799"
       y1="547.85901"
       x2="425.74799"
       y2="517.85901"
       gradientUnits="userSpaceOnUse"
       gradientTransform="translate(-400.748,-504.86)" />
    <linearGradient
       id="j"
       gradientUnits="userSpaceOnUse"
       x2="0"
       y1="30"
       y2="8">
      <stop
         offset="0"
         stop-color="#cfd2d5"
         id="stop44" />
      <stop
         offset="1"
         stop-color="#eff0f1"
         id="stop46" />
    </linearGradient>
    <linearGradient
       id="a-1"
       gradientTransform="rotate(180,16,16)"
       gradientUnits="userSpaceOnUse"
       x1="10"
       x2="21"
       y1="3"
       y2="14">
      <stop
         offset="0"
         stop-color="#fdbc4b"
         id="stop7" />
      <stop
         offset="1"
         stop-color="#fed286"
         id="stop9" />
    </linearGradient>
    <linearGradient
       id="b"
       gradientUnits="userSpaceOnUse"
       x1="53"
       x2="37.599998"
       y1="-5.4000001"
       y2="-20.799999">
      <stop
         offset="0"
         stop-color="#2980b9"
         id="stop2-0" />
      <stop
         offset="1"
         stop-color="#489ed6"
         id="stop4-6" />
    </linearGradient>
  </defs>
  <rect
     style="display:inline;fill:#1e1e1d;fill-opacity:1;fill-rule:evenodd;stroke:none;stroke-width:0.610047;stroke-linejoin:round;stroke-miterlimit:7.8"
     id="rect1192"
     width="27.67087"
     height="28.08346"
     x="2.3389921"
     y="2.2013569"
     ry="0"
     inkscape:label="arriere" />
  <g
     id="g845"
     transform="translate(0.91649454,-0.24164057)">
    <path
       d="m 24,10 v 2 a 5,5 0 0 1 -5,5 h -6 a 3,3 0 0 0 -3,3 v 7 a 3,3 0 0 0 3,3 h 7 a 3,3 0 0 0 3,-3 v -3 h -7 v -2 h 11 c 1.657,0 3,-2.686 3,-6 0,-3.314 -1.343,-6 -3,-6 z"
       fill="url(#a)"
       fill-rule="evenodd"
       id="path12"
       style="fill:url(#a-1)" />
    <path
       d="M 12,2 A 3,3 0 0 0 9,5 v 3 h 7 v 2 H 5 c -1.657,0 -3,2.686 -3,6 0,3.314 1.343,6 3,6 h 3 v -2 a 5,5 0 0 1 5,-5 h 6 a 3,3 0 0 0 3,-3 V 5 A 3,3 0 0 0 19,2 Z"
       fill="url(#b)"
       fill-rule="evenodd"
       id="path14"
       style="fill:url(#b)" />
    <path
       d="m 12,4 a 1,1 0 0 0 -1,1 1,1 0 0 0 1,1 1,1 0 0 0 1,-1 1,1 0 0 0 -1,-1 z m 9,23 a 1,1 0 0 1 -1,1 1,1 0 0 1 -1,-1 1,1 0 0 1 1,-1 1,1 0 0 1 1,1 z"
       fill="#fcfcfc"
       id="path16" />
    <path
       d="M 29.975,15.5 C 29.845,18.576 28.57,21 27,21 H 16 v 1 h 11 c 1.657,0 3,-2.686 3,-6 0,-0.171 -0.018,-0.332 -0.025,-0.5 z M 10,26 v 1 a 3,3 0 0 0 3,3 h 7 a 3,3 0 0 0 3,-3 v -1 a 3,3 0 0 1 -3,3 H 13 A 3,3 0 0 1 10,26 Z M 9,7 v 1 h 7 V 7 Z m 13,4 a 3,3 0 0 1 -3,3 h -6 a 5,5 0 0 0 -5,5 v 1 a 5,5 0 0 1 5,-5 h 6 a 3,3 0 0 0 3,-3 z M 2.025,15.5 C 2.018,15.668 2,15.829 2,16 c 0,3.314 1.343,6 3,6 H 8 V 21 H 5 C 3.429,21 2.154,18.576 2.025,15.5 Z"
       fill="#292c2f"
       fill-rule="evenodd"
       opacity="0.2"
       id="path18" />
  </g>
  <path
     style="display:inline;mix-blend-mode:normal;fill:url(#linearGradient3403);fill-opacity:1;stroke:url(#linearGradient20558);stroke-width:1.16242;stroke-linecap:butt;stroke-linejoin:round;stroke-miterlimit:4;stroke-dasharray:none;stroke-opacity:1;filter:url(#filter20720)"
     d="M 4.7043071,3.9814882 4.6913695,60.80196 H 58.59546 l 1.022155,-2.866369 c 0,0 -23.87537,0.766388 -32.844441,-4.140386 C 16.257548,48.042344 11.401114,4.0978197 11.401114,4.0978197 Z"
     id="path1686"
     sodipodi:nodetypes="ccccscc"
     transform="matrix(0.49436527,0,0,0.49436527,0.32491645,0.23304526)"
     inkscape:label="folder" />
  <rect
     style="display:inline;fill:none;fill-opacity:1;stroke:url(#linearGradient4557);stroke-width:3.71366;stroke-linejoin:round;stroke-miterlimit:7.8;stroke-dasharray:none;stroke-opacity:0.995146;filter:url(#filter4601)"
     id="rect4539"
     width="62.566689"
     height="62.866646"
     x="1.0323594"
     y="0.59551275"
     ry="6.2447233"
     rx="5.8029528"
     transform="matrix(0.46311286,0,0,0.46216893,1.1555304,1.232007)"
     inkscape:label="contour" />
</svg>
