<?xml version="1.0" encoding="UTF-8" standalone="no"?>
<!-- Created with Inkscape (http://www.inkscape.org/) -->

<svg
  width="32"
  height="32"
  version="1.1"
  viewBox="0 0 32 32"
  id="svg22"
  xmlns:xlink="http://www.w3.org/1999/xlink"
  xmlns="http://www.w3.org/2000/svg"
  xmlns:svg="http://www.w3.org/2000/svg">
 <defs
   id="defs12">
  <linearGradient
    xlink:href="#linearGradient3487"
    id="linearGradient3403"
    gradientUnits="userSpaceOnUse"
    x1="6.9491749"
    y1="4.5549412"
    x2="11.215498"
    y2="59.052471" />
  <linearGradient
    id="linearGradient3487">
   <stop
     style="stop-color:#32373c;stop-opacity:1"
     offset="0"
     id="stop3481" />
   <stop
     id="stop3483"
     offset="0.36804965"
     style="stop-color:#1a1a1a;stop-opacity:1" />
   <stop
     style="stop-color:#31363b;stop-opacity:1"
     offset="1"
     id="stop3485" />
  </linearGradient>
  <linearGradient
    xlink:href="#linearGradient20604"
    id="linearGradient20558"
    gradientUnits="userSpaceOnUse"
    x1="25.802212"
    y1="20.373846"
    x2="25.111048"
    y2="58.912758" />
  <linearGradient
    id="linearGradient20604">
   <stop
     id="stop20598"
     offset="0"
     style="stop-color:#3d3d3d;stop-opacity:1" />
   <stop
     style="stop-color:#000000;stop-opacity:1"
     offset="0.61772454"
     id="stop20600" />
   <stop
     id="stop20602"
     offset="1"
     style="stop-color:#3d3d3d;stop-opacity:1" />
  </linearGradient>
  <filter
    style="color-interpolation-filters:sRGB"
    id="filter20720"
    x="-0.010585623"
    y="-0.010232712"
    width="1.0211708"
    height="1.0204654">
   <feGaussianBlur
     stdDeviation="9.1042889e-05"
     id="feGaussianBlur20722" />
  </filter>
  <linearGradient
    gradientTransform="translate(0.36067797,-0.13016949)"
    xlink:href="#linearGradient4555"
    id="linearGradient4557"
    x1="43.499737"
    y1="64.011795"
    x2="44.141731"
    y2="0.30621234"
    gradientUnits="userSpaceOnUse" />
  <linearGradient
    id="linearGradient4555">
   <stop
     style="stop-color:#141618;stop-opacity:1"
     offset="0"
     id="stop4551" />
   <stop
     id="stop4559"
     offset="0.51820582"
     style="stop-color:#686868;stop-opacity:1" />
   <stop
     style="stop-color:#31363b;stop-opacity:1"
     offset="1"
     id="stop4553" />
  </linearGradient>
  <filter
    style="color-interpolation-filters:sRGB"
    id="filter4601"
    x="-0.029681345"
    width="1.0593627"
    y="-0.029539726"
    height="1.0590795">
   <feGaussianBlur
     stdDeviation="9.7285966e-05"
     id="feGaussianBlur4603" />
  </filter>
  <linearGradient
    id="b"
    y1="537.21997"
    y2="505.82999"
    x1="423.04001"
    gradientUnits="userSpaceOnUse"
    x2="398.97"
    gradientTransform="matrix(0.28729044,0,0,0.28729044,-101.23414,-134.70622)">
   <stop
     stop-color="#197cf1"
     id="stop11707" />
   <stop
     offset="1"
     stop-color="#20bcfa"
     id="stop11709" />
  </linearGradient>
  <linearGradient
    id="c"
    y1="506.87"
    y2="536.29999"
    x1="398.45999"
    x2="427.88"
    gradientUnits="userSpaceOnUse"
    gradientTransform="matrix(0.28729044,0,0,0.28729044,-101.23386,-134.70593)">
   <stop
     stop-color="#abdaf9"
     id="stop11712" />
   <stop
     offset="1"
     stop-color="#7cbcec"
     id="stop11714" />
  </linearGradient>
 </defs>
 <rect
   style="display:inline;fill:#1a86f2;fill-opacity:1;fill-rule:evenodd;stroke:none;stroke-width:0.608657;stroke-linejoin:round;stroke-miterlimit:7.8"
   id="rect1192"
   width="27.413025"
   height="28.218632"
   x="2.9296298"
   y="1.8890346"
   ry="0" />
 <rect
   style="display:inline;fill:url(#b);stroke-width:0.28729"
   width="11.491618"
   x="10.398307"
   y="10.030701"
   rx="5.7458091"
   height="11.491618"
   id="rect11719" />
 <path
   style="display:inline;fill:url(#c);fill-rule:evenodd;stroke-width:0.28729"
   d="m 16.144113,10.030705 c -0.417146,0 -0.8228,0.04597 -1.214377,0.129568 l -0.509366,1.019593 -0.769938,-0.577453 c -1.380718,0.663928 -2.4503,1.859343 -2.945876,3.327972 l 1.1302,-0.452195 0.861872,0.574581 0.28729,-0.861871 3.734776,-2.011034 -0.227822,-1.137957 c -0.114916,-0.0069 -0.230119,-0.0112 -0.346759,-0.0112 m 4.254771,1.886923 -0.232992,0.698691 0.28729,0.28729 -1.149162,1.723743 0.574581,2.011033 1.905597,0.238451 c 0.06866,-0.355953 0.105436,-0.723685 0.105436,-1.100322 0,-0.98397 -0.246208,-1.907896 -0.678293,-2.715757 l -0.470868,-0.157152 0.171224,-0.342737 c -0.1537,-0.228109 -0.32866,-0.439842 -0.512813,-0.642956 m -9.886812,2.709723 c -0.06349,0.31487 -0.0994,0.639796 -0.109458,0.971329 l 2.006436,0.752414 -0.287291,-0.861872 -0.57458,-0.861871 z m 1.896978,1.723743 1.436452,3.447485 v 1.246266 c 0.703574,0.305964 1.479833,0.477476 2.298323,0.477476 0.05717,0 0.11348,-0.0023 0.170076,-0.004 l 1.840957,-3.156217 -4.596647,-2.585614 z"
   id="path11721" />
 <path
   style="display:inline;opacity:0.2;fill:#2b3c4d;stroke-width:0.804412;stroke-opacity:0.55"
   d="m 10.401176,15.63287 c -0.0012,0.04798 -0.0034,0.09538 -0.0034,0.143645 0,3.183179 2.56263,5.745809 5.745808,5.745809 3.183178,0 5.745809,-2.56263 5.745809,-5.745809 0,-0.04826 -0.0023,-0.09567 -0.0034,-0.143645 -0.07585,3.116239 -2.608597,5.602164 -5.742361,5.602164 -3.134913,0 -5.666516,-2.485925 -5.742361,-5.602164"
   id="path11723" />
 <path
   id="path43-7"
   style="display:inline;fill:#040404;fill-opacity:0.323706;stroke:none;stroke-width:1.61511;stroke-linecap:round;stroke-linejoin:round;stroke-miterlimit:4;stroke-dasharray:none;stroke-opacity:1"
   d="M 18.384925,3.8965612 14.377112,4.2735143 V 20.166093 l 4.007813,-0.814453 v -6.507813 l 4.810546,7.322266 4.009766,-1.626953 -5.210937,-6.84375 5.21289,-6.9843757 -4.197265,-0.8144531 -4.625,6.9140628 z M 9.7345351,7.6524205 c -0.09866,-0.0048 -0.192971,0.025803 -0.271485,0.1054688 l -1.703125,1.7265629 c -0.157027,0.159329 -0.157027,0.416843 0,0.5761718 l 1.757813,2.800781 c -0.140738,0.288117 -0.261058,0.586249 -0.363281,0.890626 l -3.195313,0.71875 c -0.222071,0 -0.400391,0.182878 -0.400391,0.408203 v 2.439453 c 0,0.225325 0.183608,0.35737 0.400391,0.40625 l 3.195313,0.722656 c 0.09898,0.301401 0.21878,0.595041 0.355468,0.880859 l -1.761718,2.808594 c -0.119225,0.190098 -0.157029,0.416843 0,0.576172 l 1.699218,1.726563 c 0.15703,0.159328 0.411332,0.159328 0.5683599,0 l 2.767577,-1.789063 c 0.286378,0.144746 0.582002,0.270057 0.884766,0.375 l 0.708984,3.240234 c 0,0.225325 0.178319,0.408203 0.40039,0.408203 h 2.40625 c 0.222072,0 0.352216,-0.188244 0.400391,-0.408203 l 0.710938,-3.242187 C 18.596545,22.92154 18.89034,22.79965 19.17594,22.658281 l 2.75586,1.78125 c 0.157027,0.159328 0.409377,0.159328 0.566406,0 l 1.703125,-1.726563 c 0.157029,-0.159329 0.119225,-0.386074 0,-0.576172 l -0.751953,-1.197265 -0.560547,0.226562 -1.794922,-2.732422 c -0.905104,2.042059 -2.906549,3.357086 -5.113281,3.359375 -3.099373,0 -5.611328,-2.550535 -5.611328,-5.695312 0.0025,-2.196978 1.250702,-4.195159 3.207031,-5.136719 V 9.2090612 c -0.269752,0.093676 -0.534071,0.204698 -0.791016,0.330078 L 10.029457,7.7578893 C 9.9357771,7.6974013 9.8331951,7.657215 9.7345351,7.6524205 Z" />
 <path
   id="path43-7-5"
   style="fill:#ffffff;fill-opacity:1;stroke:none;stroke-width:1.61511;stroke-linecap:round;stroke-linejoin:round;stroke-miterlimit:4;stroke-dasharray:none;stroke-opacity:1"
   d="M 18.384924,3.4665303 14.377112,3.8434834 V 19.736061 l 4.007812,-0.814453 v -6.507813 l 4.810547,7.322266 4.009766,-1.626953 -5.210938,-6.84375 5.212891,-6.9843746 -4.197266,-0.8144531 -4.625,6.9140617 z M 9.7345349,7.2223896 c -0.09866,-0.0048 -0.192971,0.025803 -0.271485,0.1054688 l -1.703125,1.7265625 c -0.157027,0.1593288 -0.157027,0.4168423 0,0.5761713 l 1.757813,2.8007808 c -0.140738,0.288117 -0.261058,0.586249 -0.363281,0.890626 l -3.195313,0.71875 c -0.222071,0 -0.400391,0.182878 -0.400391,0.408203 v 2.439453 c 0,0.225325 0.183608,0.35737 0.400391,0.40625 l 3.195313,0.722656 c 0.09898,0.301401 0.21878,0.595041 0.355468,0.880859 l -1.761718,2.808594 c -0.1192251,0.190098 -0.1570291,0.416843 0,0.576172 l 1.699218,1.726563 c 0.15703,0.159328 0.411332,0.159328 0.5683601,0 l 2.767577,-1.789063 c 0.286378,0.144746 0.582002,0.270057 0.884766,0.375 l 0.708984,3.240234 c 0,0.225325 0.178319,0.408203 0.40039,0.408203 h 2.40625 c 0.222072,0 0.352216,-0.188244 0.400391,-0.408203 l 0.710938,-3.242187 c 0.301463,-0.101975 0.595258,-0.223865 0.880859,-0.365234 l 2.755859,1.78125 c 0.157028,0.159328 0.409378,0.159328 0.566407,0 l 1.703125,-1.726563 c 0.157028,-0.159329 0.119224,-0.386074 0,-0.576172 l -0.751954,-1.197265 -0.560546,0.226562 -1.794922,-2.732422 c -0.905104,2.042059 -2.90655,3.357086 -5.113281,3.359375 -3.099373,0 -5.611328,-2.550535 -5.611328,-5.695312 0.0025,-2.196978 1.250702,-4.195159 3.207031,-5.136719 V 8.7790303 c -0.269752,0.093676 -0.534071,0.2046972 -0.791016,0.3300781 l -2.755858,-1.78125 C 9.9357769,7.2673704 9.8331949,7.2271841 9.7345349,7.2223896 Z" />
 <path
   style="display:inline;mix-blend-mode:normal;fill:url(#linearGradient3403);fill-opacity:1;stroke:url(#linearGradient20558);stroke-width:1.16242;stroke-linecap:butt;stroke-linejoin:round;stroke-miterlimit:4;stroke-dasharray:none;stroke-opacity:1"
   d="M 4.7043071,3.9814882 4.6913695,60.80196 H 58.59546 l 1.022155,-2.866369 c 0,0 -23.87537,0.766388 -32.844441,-4.140386 C 16.257548,48.042344 11.401114,4.0978197 11.401114,4.0978197 Z"
   id="path1686"
   transform="matrix(0.5,0,0,0.5,0.06630362,0.01654936)" />
 <rect
   style="display:inline;fill:none;fill-opacity:1;stroke:url(#linearGradient4557);stroke-width:3.71366;stroke-linejoin:round;stroke-miterlimit:7.8;stroke-dasharray:none;stroke-opacity:0.995146"
   id="rect4539"
   width="62.566689"
   height="62.866646"
   x="1.0323594"
   y="0.59551275"
   ry="6.2447233"
   rx="5.8029528"
   transform="matrix(0.46839137,0,0,0.46743669,0.90638486,1.0268972)" />
</svg>
