<?xml version="1.0" encoding="UTF-8" standalone="no"?>
<!-- Created with Inkscape (http://www.inkscape.org/) -->

<svg
  width="32"
  height="32"
  version="1.1"
  viewBox="0 0 32 32"
  id="svg22"
  xmlns:xlink="http://www.w3.org/1999/xlink"
  xmlns="http://www.w3.org/2000/svg"
  xmlns:svg="http://www.w3.org/2000/svg">
 <defs
   id="defs12">
  <linearGradient
    xlink:href="#linearGradient3487"
    id="linearGradient3403"
    gradientUnits="userSpaceOnUse"
    x1="6.9491749"
    y1="4.5549412"
    x2="11.215498"
    y2="59.052471" />
  <linearGradient
    id="linearGradient3487">
   <stop
     style="stop-color:#32373c;stop-opacity:1"
     offset="0"
     id="stop3481" />
   <stop
     id="stop3483"
     offset="0.36804965"
     style="stop-color:#1a1a1a;stop-opacity:1" />
   <stop
     style="stop-color:#31363b;stop-opacity:1"
     offset="1"
     id="stop3485" />
  </linearGradient>
  <linearGradient
    xlink:href="#linearGradient20604"
    id="linearGradient20558"
    gradientUnits="userSpaceOnUse"
    x1="25.802212"
    y1="20.373846"
    x2="25.111048"
    y2="58.912758" />
  <linearGradient
    id="linearGradient20604">
   <stop
     id="stop20598"
     offset="0"
     style="stop-color:#3d3d3d;stop-opacity:1" />
   <stop
     style="stop-color:#000000;stop-opacity:1"
     offset="0.61772454"
     id="stop20600" />
   <stop
     id="stop20602"
     offset="1"
     style="stop-color:#3d3d3d;stop-opacity:1" />
  </linearGradient>
  <filter
    style="color-interpolation-filters:sRGB"
    id="filter20720"
    x="-0.010581667"
    y="-0.010228888"
    width="1.0211629"
    height="1.0204578">
   <feGaussianBlur
     stdDeviation="5.0662443e-07"
     id="feGaussianBlur20722" />
  </filter>
  <linearGradient
    gradientTransform="translate(0.36067797,-0.13016949)"
    xlink:href="#linearGradient4555"
    id="linearGradient4557"
    x1="43.499737"
    y1="64.011795"
    x2="44.141731"
    y2="0.30621234"
    gradientUnits="userSpaceOnUse" />
  <linearGradient
    id="linearGradient4555">
   <stop
     style="stop-color:#141618;stop-opacity:1"
     offset="0"
     id="stop4551" />
   <stop
     id="stop4559"
     offset="0.51820582"
     style="stop-color:#686868;stop-opacity:1" />
   <stop
     style="stop-color:#31363b;stop-opacity:1"
     offset="1"
     id="stop4553" />
  </linearGradient>
  <filter
    style="color-interpolation-filters:sRGB"
    id="filter4601"
    x="-0.029677634"
    width="1.0593553"
    y="-0.029536033"
    height="1.0590721">
   <feGaussianBlur
     stdDeviation="5.4136514e-07"
     id="feGaussianBlur4603" />
  </filter>
  <filter
    height="1.0000756"
    y="-3.7782712e-05"
    width="1.0000759"
    x="-3.7963577e-05"
    id="filter4601-2"
    style="color-interpolation-filters:sRGB">
   <feGaussianBlur
     id="feGaussianBlur4603-9"
     stdDeviation="0.00098969686" />
  </filter>
  <linearGradient
    xlink:href="#paint3_linear"
    id="linearGradient3"
    gradientUnits="userSpaceOnUse"
    gradientTransform="matrix(0.18461538,0,0,0.18,-5.7076921,3.5)"
    x1="69.25"
    y1="28.75"
    x2="75.501099"
    y2="35.5" />
  <linearGradient
    id="paint3_linear"
    x1="69.25"
    y1="28.75"
    x2="75.501099"
    y2="35.5"
    gradientUnits="userSpaceOnUse"
    gradientTransform="matrix(0.642,0,0,0.642,-67.471,-33.235)">
   <stop
     id="stop67" />
   <stop
     offset="1"
     stop-opacity="0"
     id="stop69" />
  </linearGradient>
 </defs>
 <rect
   y="0.60077608"
   x="1.033034"
   height="62.866646"
   width="62.567139"
   id="rect4539-1"
   style="opacity:1;fill:#d4d4d4;fill-opacity:1;stroke:none;stroke-width:1.146;stroke-linejoin:round;stroke-miterlimit:7.8;stroke-dasharray:none;stroke-opacity:0.995146"
   transform="matrix(0.438765,0,0,0.438765,2.1819629,1.4472953)" />
 <path
   id="path40-3-3-6-2"
   style="fill:#000000;fill-opacity:0.345841;stroke-width:0.415034"
   d="m 20.13422,15.515856 2.627014,2.561338 -3.046862,3.17606 -2.732567,-2.663792 z m 4.203221,-10.245353 3.152417,3.0736058 -7.355638,7.1717472 7.355638,7.171748 -3.152417,3.073604 -10.508054,-10.24489 z m -7.355636,0 3.152415,3.0736058 -3.152415,3.0736062 -3.152418,-3.0736062 z m 7.355636,7.171747 3.152417,3.073606 -3.152417,3.073606 -3.152414,-3.073606 z m -7.355636,7.171747 3.152415,3.073607 -3.152415,3.073604 -3.152418,-3.073604 z" />
 <g
   id="g2"
   transform="matrix(2.2767451,0,0,2.2767451,2.4385561,-2.9008829)">
  <path
    d="M 6.3846153,9.8 7.7692307,11.15 6.3846153,12.5 5,11.15 Z"
    fill="#1b89f3"
    id="path32-9-2-8"
    style="stroke-width:0.19531" />
  <path
    d="M 9.615384,6.65 11,8 9.615384,9.35 8.2307693,8 Z"
    fill="#63c605"
    id="path34-2-7-9"
    style="stroke-width:0.19531" />
  <path
    d="M 6.3846153,3.5 7.7692307,4.85 6.3846153,6.2 5,4.85 Z"
    fill="#fa8865"
    id="path36-0-0-7"
    style="stroke-width:0.19531" />
  <path
    d="M 9.615384,3.5 11,4.85 7.7692307,8 11,11.15 9.615384,12.5 5,8.000203 Z"
    id="path38-2-9-3"
    style="fill:#212121;fill-opacity:1;stroke-width:0.182293" />
  <path
    d="M 7.7692307,8 8.9230767,9.125 7.5848236,10.52 6.3846153,9.35 Z"
    fill="url(#paint3_linear)"
    id="path40-3-3-6"
    style="fill:url(#linearGradient3);stroke-width:0.182293" />
 </g>
 <path
   style="display:inline;mix-blend-mode:normal;fill:url(#linearGradient3403);fill-opacity:1;stroke:url(#linearGradient20558);stroke-width:1.16242;stroke-linecap:butt;stroke-linejoin:round;stroke-miterlimit:4;stroke-dasharray:none;stroke-opacity:1"
   d="M 4.7043071,3.9814882 4.6913695,60.80196 H 58.59546 l 1.022155,-2.866369 c 0,0 -23.87537,0.766388 -32.844441,-4.140386 C 16.257548,48.042344 11.401114,4.0978197 11.401114,4.0978197 Z"
   id="path1686"
   transform="matrix(0.5,0,0,0.5,0.06630362,0.01654936)" />
 <rect
   style="display:inline;fill:none;fill-opacity:1;stroke:url(#linearGradient4557);stroke-width:3.71366;stroke-linejoin:round;stroke-miterlimit:7.8;stroke-dasharray:none;stroke-opacity:0.995146"
   id="rect4539"
   width="62.566689"
   height="62.866646"
   x="1.0323594"
   y="0.59551275"
   ry="6.2447233"
   rx="5.8029528"
   transform="matrix(0.46839137,0,0,0.46743669,0.90638486,1.0268972)" />
</svg>
