<svg width="32" height="32" version="1.1" viewBox="0 0 32 32" xmlns="http://www.w3.org/2000/svg" xmlns:xlink="http://www.w3.org/1999/xlink">
<defs>
<linearGradient id="linearGradient3403" x1="6.9492" x2="11.215" y1="4.5549" y2="59.052" gradientUnits="userSpaceOnUse">
<stop style="stop-color:#32373c" offset="0"/>
<stop style="stop-color:#1a1a1a" offset=".36805"/>
<stop style="stop-color:#31363b" offset="1"/>
</linearGradient>
<linearGradient id="linearGradient20558" x1="25.802" x2="25.111" y1="20.374" y2="58.913" gradientUnits="userSpaceOnUse">
<stop style="stop-color:#3d3d3d" offset="0"/>
<stop offset=".61772"/>
<stop style="stop-color:#3d3d3d" offset="1"/>
</linearGradient>
<linearGradient id="linearGradient4557" x1="43.5" x2="44.142" y1="64.012" y2=".30621" gradientTransform="translate(.36068 -.13017)" gradientUnits="userSpaceOnUse">
<stop style="stop-color:#141618" offset="0"/>
<stop style="stop-color:#686868" offset=".51821"/>
<stop style="stop-color:#31363b" offset="1"/>
</linearGradient>
<linearGradient id="j" x2="0" y1="536.8" y2="503.8" gradientTransform="translate(-384.57,-499.8)" gradientUnits="userSpaceOnUse">
<stop stop-color="#2a2c2f" offset="0"/>
<stop stop-color="#424649" offset="1"/>
</linearGradient>
<linearGradient id="k" x1="2.004" x2="2" y1="35.998" y2="6" gradientUnits="userSpaceOnUse">
<stop stop-color="#39a1d8" offset="0"/>
<stop stop-color="#4db4e8" offset="1"/>
</linearGradient>
<linearGradient id="l" x2="0" y1="524.8" y2="522.8" gradientTransform="matrix(1.4286 0 0 1.3333 -548.24 -679.73)" gradientUnits="userSpaceOnUse" xlink:href="#b"/>
<linearGradient id="b">
<stop stop-color="#c6cdd1" offset="0"/>
<stop stop-color="#e0e5e7" offset="1"/>
</linearGradient>
<linearGradient id="m" x1="9" x2="23" y1="5" y2="19" gradientTransform="matrix(1.5,0,0,1.5,0,6.5)" gradientUnits="userSpaceOnUse">
<stop stop-color="#383e51" offset="0"/>
<stop stop-color="#655c6f" stop-opacity="0" offset="1"/>
</linearGradient>
<linearGradient id="n" x2="0" y1="524.8" y2="522.8" gradientTransform="matrix(1.4286 0 0 1.3333 -548.24 -679.06)" gradientUnits="userSpaceOnUse" xlink:href="#b"/>
</defs>
<g transform="matrix(.58601 0 0 .80444 2.412 -1.7601)">
<rect y="4" width="48" height="36" rx="5" ry="5" style="fill:url(#j)"/>
<path d="m5.004 6.002a2.987 2.987 0 0 0-3 2.988v27.008h43.994v-27.016a2.985 2.985 0 0 0-0.87-2.105 3.003 3.003 0 0 0-2.124-0.875z" style="fill:url(#k)"/>
<path d="m14 20h20v-4h-20z" style="fill:url(#l)"/>
<path d="m24 36 22-2v-6l-12-12v4h-20.5l6 6h-5.5z" style="fill-rule:evenodd;fill:url(#m)"/>
<path d="m14 26h20v-4h-20z" style="fill:url(#n)"/>
<ellipse cx="16" cy="17.748" rx="1" ry=".74788" style="fill:#4d4d4d;paint-order:stroke fill markers;stroke-width:.8648"/>
<ellipse cx="16" cy="23.692" rx="1" ry=".69176" style="fill:#4d4d4d;paint-order:stroke fill markers;stroke-width:.83172"/>
<ellipse cx="20" cy="23.692" rx="1" ry=".69176" style="fill:#4d4d4d;paint-order:stroke fill markers;stroke-width:.83172"/>
<ellipse cx="24" cy="23.692" rx="1" ry=".69176" style="fill:#4d4d4d;paint-order:stroke fill markers;stroke-width:.83172"/>
</g>
<path transform="matrix(.5 0 0 .5 .066304 .016549)" d="m4.7043 3.9815-0.012938 56.82h53.904l1.0222-2.8664s-23.875 0.76639-32.844-4.1404c-10.516-5.7529-15.372-49.697-15.372-49.697z" style="fill:url(#linearGradient3403);mix-blend-mode:normal;stroke-linejoin:round;stroke-width:1.1624;stroke:url(#linearGradient20558)"/>
<rect transform="matrix(.46839 0 0 .46744 .90638 1.0269)" x="1.0324" y=".59551" width="62.567" height="62.867" rx="5.803" ry="6.2447" style="fill:none;stroke-linejoin:round;stroke-miterlimit:7.8;stroke-opacity:.99515;stroke-width:3.7137;stroke:url(#linearGradient4557)"/>
</svg>
