<svg width="32" height="32" version="1.1" viewBox="0 0 32 32" xmlns="http://www.w3.org/2000/svg" xmlns:xlink="http://www.w3.org/1999/xlink">
<defs>
<linearGradient id="linearGradient3403" x1="6.9492" x2="11.215" y1="4.5549" y2="59.052" gradientUnits="userSpaceOnUse">
<stop style="stop-color:#32373c" offset="0"/>
<stop style="stop-color:#1a1a1a" offset=".36805"/>
<stop style="stop-color:#31363b" offset="1"/>
</linearGradient>
<linearGradient id="linearGradient20558" x1="25.802" x2="25.111" y1="20.374" y2="58.913" gradientUnits="userSpaceOnUse">
<stop style="stop-color:#3d3d3d" offset="0"/>
<stop offset=".61772"/>
<stop style="stop-color:#3d3d3d" offset="1"/>
</linearGradient>
<linearGradient id="linearGradient4557" x1="43.5" x2="44.142" y1="64.012" y2=".30621" gradientTransform="translate(.36068 -.13017)" gradientUnits="userSpaceOnUse">
<stop style="stop-color:#141618" offset="0"/>
<stop style="stop-color:#686868" offset=".51821"/>
<stop style="stop-color:#31363b" offset="1"/>
</linearGradient>
<linearGradient id="c" x2="0" y1="543.8" y2="502.66" gradientTransform="matrix(.5 0 0 .46417 -209.98 -215.48)" gradientUnits="userSpaceOnUse">
<stop stop-color="#c6cdd1" offset="0"/>
<stop stop-color="#e0e5e7" offset="1"/>
</linearGradient>
<linearGradient id="e" x1="431.16" x2="465.16" y1="511.39" y2="543.93" gradientTransform="matrix(1 0 0 .86047 -424.16 -425.03)" gradientUnits="userSpaceOnUse">
<stop offset="0"/>
<stop stop-opacity="0" offset="1"/>
</linearGradient>
</defs>
<g transform="matrix(.58924 0 0 .76611 2.412 -2.5253)">
<rect y="5" width="48" height="38" rx="5" ry="5" fill="url(#c)" style="fill:url(#c)"/>
<path d="m1.1 41c0.132 0.172 0.208 0.386 0.36 0.54a4.989 4.989 0 0 0 3.54 1.46h38a5.005 5.005 0 0 0 3.54-1.46c0.152-0.154 0.228-0.368 0.36-0.54z" fill="#99a1a7"/>
<path d="m6 43h37a5.005 5.005 0 0 0 3.54-1.46 4.989 4.989 0 0 0 1.46-3.54v-20l-3.24-3.24-41.52 25.48z" fill="url(#e)" fill-rule="evenodd" opacity=".2" style="fill:url(#e)"/>
<path d="m24 11h24v-1a5.005 5.005 0 0 0-1.46-3.54 4.989 4.989 0 0 0-3.54-1.46h-19z" fill="#566069"/>
<path d="m24 11v-6h-19a5.005 5.005 0 0 0-3.54 1.46 4.989 4.989 0 0 0-1.46 3.54v1z" fill="#eff0f1"/>
<path d="m0 11h48v1h-48z" fill="#3daee9"/>
<rect x="40" y="6" width="4" height="3.0052" rx="2" fill="#eff0f1" style="stroke-width:.86678"/>
<rect x="2" y="14" width="44" height="27" ry="4" style="fill:#fff"/>
<rect transform="scale(-1,1)" x="-8" y="6" width="4" height="3.2694" rx="2" fill="#566069" style="stroke-width:.90408"/>
</g>
<path transform="matrix(.5 0 0 .5 .066304 .016549)" d="m4.7043 3.9815-0.012938 56.82h53.904l1.0222-2.8664s-23.875 0.76639-32.844-4.1404c-10.516-5.7529-15.372-49.697-15.372-49.697z" style="fill:url(#linearGradient3403);mix-blend-mode:normal;stroke-linejoin:round;stroke-width:1.1624;stroke:url(#linearGradient20558)"/>
<rect transform="matrix(.46839 0 0 .46744 .90638 1.0269)" x="1.0324" y=".59551" width="62.567" height="62.867" rx="5.803" ry="6.2447" style="fill:none;stroke-linejoin:round;stroke-miterlimit:7.8;stroke-opacity:.99515;stroke-width:3.7137;stroke:url(#linearGradient4557)"/>
</svg>
