<svg width="32" height="32" version="1.1" viewBox="0 0 32 32" xmlns="http://www.w3.org/2000/svg" xmlns:xlink="http://www.w3.org/1999/xlink">
<defs>
<linearGradient id="linearGradient3403" x1="6.9492" x2="11.215" y1="4.5549" y2="59.052" gradientUnits="userSpaceOnUse">
<stop style="stop-color:#32373c" offset="0"/>
<stop style="stop-color:#1a1a1a" offset=".36805"/>
<stop style="stop-color:#31363b" offset="1"/>
</linearGradient>
<linearGradient id="linearGradient20558" x1="25.802" x2="25.111" y1="20.374" y2="58.913" gradientUnits="userSpaceOnUse">
<stop style="stop-color:#3d3d3d" offset="0"/>
<stop offset=".61772"/>
<stop style="stop-color:#3d3d3d" offset="1"/>
</linearGradient>
<linearGradient id="linearGradient4557" x1="43.5" x2="44.142" y1="64.012" y2=".30621" gradientTransform="translate(.36068 -.13017)" gradientUnits="userSpaceOnUse">
<stop style="stop-color:#141618" offset="0"/>
<stop style="stop-color:#686868" offset=".51821"/>
<stop style="stop-color:#31363b" offset="1"/>
</linearGradient>
<linearGradient id="g" x2="0" y1="44" y2="4" gradientTransform="translate(0 1004.4)" gradientUnits="userSpaceOnUse">
<stop stop-color="#63984b" offset="0"/>
<stop stop-color="#8fc278" offset="1"/>
</linearGradient>
<linearGradient id="h" x1="17" x2="44" y1="11" y2="41" gradientTransform="translate(0 1004.4)" gradientUnits="userSpaceOnUse">
<stop offset="0"/>
<stop stop-opacity="0" offset="1"/>
</linearGradient>
<linearGradient id="i" x1="15" x2="15" y1="1042.4" y2="1012.4" gradientTransform="translate(0 -1004.4)" gradientUnits="userSpaceOnUse">
<stop stop-color="#999a9c" offset="0"/>
<stop stop-color="#dcdfdf" offset="1"/>
</linearGradient>
</defs>
<g transform="matrix(.71067 0 0 .71067 -.65172 -1.0695)">
<path d="m10 4a5.983 5.983 0 0 0-5.53 3.66 6.01 6.01 0 0 0-0.47 2.34v3l3 2-3 2v21a5.983 5.983 0 0 0 3.66 5.53 6.01 6.01 0 0 0 2.34 0.47h28a5.983 5.983 0 0 0 5.53-3.66 6.01 6.01 0 0 0 0.47-2.34v-28a5.983 5.983 0 0 0-3.66-5.53 6.01 6.01 0 0 0-2.34-0.47z" style="fill-rule:evenodd;fill:#dce269"/>
<path d="m10 4a5.983 5.983 0 0 0-5.53 3.66 6.01 6.01 0 0 0-0.47 2.34v2l3 2-3 2v22a5.983 5.983 0 0 0 1.754 4.246c0.318 0.319 0.735 0.514 1.119 0.754h34.254c0.384-0.24 0.8-0.435 1.12-0.754a5.983 5.983 0 0 0 1.753-4.246v-28a5.983 5.983 0 0 0-3.66-5.53 6.01 6.01 0 0 0-2.34-0.47z" style="fill-rule:evenodd;fill:url(#g)"/>
<g style="color:#000000;fill:#dee372">
<path d="m9 40v1h1v-1zm1 1v1h1v-1zm1 0h1v-1h-1zm1 0v1h1v-1zm1 0h1v-1h-1zm1 0v1h1v-1zm1 0h1v-1h-1zm1 0v1h1v-1zm1 0h1v-1h-1zm1 0v1h1v-1zm1 0h1v-1h-1zm1 0v1h1v-1zm1 0h1v-1h-1zm1 0v1h1v-1zm1 0h1v-1h-1zm1 0v1h1v-1zm11-1v1h1v-1zm1 1v1h1v-1zm1 0h1v-1h-1zm1 0v1h1v-1zm1 0h1v-1h-1zm-4 0h-1v1h1z" style="opacity:.6"/>
</g>
<path d="m42 9v1h1v-1zm0 1h-1v1h1zm0 1v1h1v-1zm0 1h-1v1h1zm0 1v1h1v-1zm0 1h-1v1h1zm0 1v1h1v-1zm0 1h-1v1h1zm0 1v1h1v-1zm0 1h-1v1h1zm0 1v1h1v-1zm0 1h-1v1h1zm0 1v1h1v-1zm0 1h-1v1h1zm0 1v1h1v-1zm0 1h-1v1h1z" style="color:#000000;fill:#dee372;opacity:.6"/>
<path d="m12.584 44h25.416a5.983 5.983 0 0 0 5.53-3.66 6.01 6.01 0 0 0 0.47-2.34v-26l-4-4v31h-32z" style="fill-rule:evenodd;fill:url(#h);opacity:.2"/>
<path d="m8 8h32v31h-32z" style="fill-rule:evenodd;fill:url(#i)"/>
<path d="m8 38h32v1h-32z" style="fill-rule:evenodd;fill:#5c5c5c"/>
<path d="m31 11v6h2v-2h2v-2h-2v-2zm4 2h2v-2h-2zm0 2v2h2v-2zm-24 14v2h6v-2zm0 4v2h4v-2z" style="fill:#484a4b;paint-order:stroke fill markers"/>
</g>
<path transform="matrix(.49357 0 0 .49357 .32561 .23369)" d="m4.7043 3.9815-0.012938 56.82h53.904l1.0222-2.8664s-23.875 0.76639-32.844-4.1404c-10.516-5.7529-15.372-49.697-15.372-49.697z" style="fill:url(#linearGradient3403);mix-blend-mode:normal;stroke-linejoin:round;stroke-width:1.1624;stroke:url(#linearGradient20558)"/>
<rect transform="matrix(.46237 0 0 .46142 1.1549 1.231)" x="1.0324" y=".59551" width="62.567" height="62.867" rx="5.803" ry="6.2447" style="fill:none;stroke-linejoin:round;stroke-miterlimit:7.8;stroke-opacity:.99515;stroke-width:3.7137;stroke:url(#linearGradient4557)"/>
</svg>
