<svg width="32" height="32" version="1.1" viewBox="0 0 32 32" xmlns="http://www.w3.org/2000/svg" xmlns:xlink="http://www.w3.org/1999/xlink">
<defs>
<linearGradient id="linearGradient3403" x1="6.9492" x2="11.215" y1="4.5549" y2="59.052" gradientUnits="userSpaceOnUse">
<stop style="stop-color:#32373c" offset="0"/>
<stop style="stop-color:#1a1a1a" offset=".36805"/>
<stop style="stop-color:#31363b" offset="1"/>
</linearGradient>
<linearGradient id="linearGradient20558" x1="25.802" x2="25.111" y1="20.374" y2="58.913" gradientUnits="userSpaceOnUse">
<stop style="stop-color:#3d3d3d" offset="0"/>
<stop offset=".61772"/>
<stop style="stop-color:#3d3d3d" offset="1"/>
</linearGradient>
<linearGradient id="linearGradient4557" x1="43.5" x2="44.142" y1="64.012" y2=".30621" gradientTransform="translate(.36068 -.13017)" gradientUnits="userSpaceOnUse">
<stop style="stop-color:#141618" offset="0"/>
<stop style="stop-color:#686868" offset=".51821"/>
<stop style="stop-color:#31363b" offset="1"/>
</linearGradient>
<linearGradient id="n" x1="8" x2="24" y1="24" y2="8" gradientTransform="matrix(1.5079 .40404 .40404 -1.5079 -29.886 40.492)" gradientUnits="userSpaceOnUse" xlink:href="#i"/>
<linearGradient id="i">
<stop stop-color="#e51561" offset="0"/>
<stop stop-color="#e4156c" offset=".312"/>
<stop stop-color="#e71e2c" offset=".562"/>
<stop stop-color="#e8301e" offset=".75"/>
<stop stop-color="#e6320e" offset="1"/>
</linearGradient>
<linearGradient id="o" x1="8" x2="24" y1="24" y2="8" gradientTransform="matrix(-1.5079 -.40404 -.40404 1.5079 61.885 -12.492)" gradientUnits="userSpaceOnUse" xlink:href="#j"/>
<linearGradient id="j">
<stop stop-color="#bec900" offset="0"/>
<stop stop-color="#9ec80a" offset=".312"/>
<stop stop-color="#71b93d" offset=".562"/>
<stop stop-color="#35a48f" offset=".75"/>
<stop stop-color="#018fca" offset="1"/>
</linearGradient>
<linearGradient id="p" x1="8" x2="24" y1="24" y2="8" gradientTransform="matrix(-1.5079 -.40404 .40404 -1.5079 42.492 59.886)" gradientUnits="userSpaceOnUse" xlink:href="#k"/>
<linearGradient id="k">
<stop stop-color="#c1cc00" offset="0"/>
<stop stop-color="#dfcd00" offset=".312"/>
<stop stop-color="#f0cc00" offset=".562"/>
<stop stop-color="#fd8c08" offset=".75"/>
<stop stop-color="#f25c13" offset="1"/>
</linearGradient>
<linearGradient id="q" x1="8" x2="24" y1="24" y2="8" gradientTransform="matrix(-.40404 -1.5079 -1.5079 .40404 61.886 40.491)" gradientUnits="userSpaceOnUse" xlink:href="#j"/>
<linearGradient id="r" x1="8" x2="24" y1="24" y2="8" gradientTransform="matrix(-1.1039 -1.1039 -1.1039 1.1039 68.985 14)" gradientUnits="userSpaceOnUse" xlink:href="#j"/>
<linearGradient id="s" x1="8" x2="24" y1="24" y2="8" gradientTransform="matrix(.40404 1.5079 -1.5079 .40404 42.493 -31.887)" gradientUnits="userSpaceOnUse" xlink:href="#l"/>
<linearGradient id="l">
<stop stop-color="#e81877" offset="0"/>
<stop stop-color="#dd1d8c" offset=".312"/>
<stop stop-color="#6d57b1" offset=".562"/>
<stop stop-color="#2a78c1" offset=".75"/>
<stop stop-color="#018dcb" offset="1"/>
</linearGradient>
<linearGradient id="t" x1="8" x2="24" y1="24" y2="8" gradientTransform="matrix(1.5079 .40404 -.40404 1.5079 -10.492 -31.886)" gradientUnits="userSpaceOnUse" xlink:href="#l"/>
<linearGradient id="v" x1="8" x2="24" y1="24" y2="8" gradientTransform="matrix(1.1039 1.1039 1.1039 -1.1039 -36.984 14)" gradientUnits="userSpaceOnUse" xlink:href="#i"/>
<linearGradient id="w" x1="8" x2="24" y1="24" y2="8" gradientTransform="matrix(-1.1039 -1.1039 1.1039 -1.1039 16 66.985)" gradientUnits="userSpaceOnUse" xlink:href="#k"/>
<linearGradient id="x" x1="8" x2="24" y1="24" y2="8" gradientTransform="matrix(-.40404 -1.5079 1.5079 -.40404 -10.493 59.886)" gradientUnits="userSpaceOnUse" xlink:href="#k"/>
<linearGradient id="y" x1="8" x2="24" y1="24" y2="8" gradientTransform="matrix(1.1039 1.1039 -1.1039 1.1039 16 -38.986)" gradientUnits="userSpaceOnUse" xlink:href="#l"/>
<linearGradient id="z" x1="394.57" x2="408.57" y1="523.8" y2="537.8" gradientTransform="translate(-384.57 -515.8)" gradientUnits="userSpaceOnUse">
<stop stop-color="#292c2f" offset="0"/>
<stop stop-color="#292c2f" stop-opacity=".036" offset="1"/>
</linearGradient>
<linearGradient id="A" x1="400.57" x2="400.57" y1="536.8" y2="522.8" gradientTransform="matrix(.99946 0 0 .99953 -384.36 -515.55)" gradientUnits="userSpaceOnUse">
<stop stop-color="#eff0f1" offset="0"/>
<stop stop-color="#fcfcfc" offset="1"/>
</linearGradient>
</defs>
<g transform="matrix(.86771 0 0 1.0218 3.0587 -.45001)">
<path d="m0 9.713v15.289a5.004 5.004 0 0 0 0.025 0.498 5.004 5.004 0 0 0 0.075 0.496 5.004 5.004 0 0 0 0.123 0.484 5.004 5.004 0 0 0 0.17 0.47 5.004 5.004 0 0 0 0.216 0.45 5.004 5.004 0 0 0 0.262 0.428 5.004 5.004 0 0 0 0.303 0.399 5.004 5.004 0 0 0 0.287 0.312 4.99 4.99 0 0 0 0.37 0.334 4.99 4.99 0 0 0 0.4 0.297 4.99 4.99 0 0 0 0.43 0.254 4.99 4.99 0 0 0 0.452 0.21 4.99 4.99 0 0 0 0.471 0.165 4.99 4.99 0 0 0 0.484 0.115 4.99 4.99 0 0 0 0.495 0.068 4.99 4.99 0 0 0 0.437 0.018h6.713l4.287-16z" style="fill:url(#n)"/>
<path d="m32 18.287v-11.287a5.004 5.004 0 0 0-0.023-0.5 5.004 5.004 0 0 0-0.075-0.494 5.004 5.004 0 0 0-0.123-0.485 5.004 5.004 0 0 0-0.172-0.47 5.004 5.004 0 0 0-0.216-0.451 5.004 5.004 0 0 0-0.262-0.426 5.004 5.004 0 0 0-0.3-0.399 5.004 5.004 0 0 0-0.29-0.314 4.99 4.99 0 0 0-0.37-0.334 4.99 4.99 0 0 0-0.401-0.297 4.99 4.99 0 0 0-0.428-0.254 4.99 4.99 0 0 0-0.453-0.21 4.99 4.99 0 0 0-0.471-0.163 4.99 4.99 0 0 0-0.484-0.117 4.99 4.99 0 0 0-0.494-0.066 4.99 4.99 0 0 0-0.438-0.018h-7.785l-3.215 11.998z" style="fill:url(#o)"/>
<path d="m11.713 30h15.287a5.004 5.004 0 0 0 0.5-0.023 5.004 5.004 0 0 0 0.494-0.075 5.004 5.004 0 0 0 0.485-0.123 5.004 5.004 0 0 0 0.47-0.172 5.004 5.004 0 0 0 0.451-0.216 5.004 5.004 0 0 0 0.426-0.26 5.004 5.004 0 0 0 0.399-0.303 5.004 5.004 0 0 0 0.314-0.289 4.99 4.99 0 0 0 0.336-0.37 4.99 4.99 0 0 0 0.295-0.401 4.99 4.99 0 0 0 0.254-0.428 4.99 4.99 0 0 0 0.21-0.453 4.99 4.99 0 0 0 0.165-0.471 4.99 4.99 0 0 0 0.115-0.484 4.99 4.99 0 0 0 0.068-0.494 4.99 4.99 0 0 0 0.018-0.438v-6.713l-16-4.287z" style="fill:url(#p)"/>
<path d="m20.287 30h6.713a5.004 5.004 0 0 0 0.5-0.023 5.004 5.004 0 0 0 0.494-0.075 5.004 5.004 0 0 0 0.485-0.123 5.004 5.004 0 0 0 0.47-0.172 5.004 5.004 0 0 0 0.451-0.216 5.004 5.004 0 0 0 0.426-0.26 5.004 5.004 0 0 0 0.399-0.303 5.004 5.004 0 0 0 0.314-0.289 4.99 4.99 0 0 0 0.336-0.37 4.99 4.99 0 0 0 0.295-0.401 4.99 4.99 0 0 0 0.254-0.428 4.99 4.99 0 0 0 0.21-0.453 4.99 4.99 0 0 0 0.165-0.471 4.99 4.99 0 0 0 0.115-0.484 4.99 4.99 0 0 0 0.068-0.494 4.99 4.99 0 0 0 0.018-0.438v-15.287l-16 4.287z" style="fill:url(#q);opacity:.3"/>
<path d="m30.54 28.54a4.99 4.99 0 0 0 0.335-0.37 4.99 4.99 0 0 0 0.295-0.402 4.99 4.99 0 0 0 0.254-0.428 4.99 4.99 0 0 0 0.21-0.453 4.99 4.99 0 0 0 0.165-0.471 4.99 4.99 0 0 0 0.115-0.484 4.99 4.99 0 0 0 0.068-0.494 4.99 4.99 0 0 0 0.018-0.438v-18a5.004 5.004 0 0 0-0.023-0.5 5.004 5.004 0 0 0-0.075-0.494 5.004 5.004 0 0 0-0.123-0.485 5.004 5.004 0 0 0-0.172-0.47 5.004 5.004 0 0 0-0.216-0.451 5.004 5.004 0 0 0-0.262-0.426 5.004 5.004 0 0 0-0.3-0.399 5.004 5.004 0 0 0-0.29-0.314 4.99 4.99 0 0 0-0.37-0.334 4.99 4.99 0 0 0-0.401-0.297 4.99 4.99 0 0 0-0.428-0.254 4.99 4.99 0 0 0-0.453-0.21 4.99 4.99 0 0 0-0.471-0.163 4.99 4.99 0 0 0-0.484-0.117 4.99 4.99 0 0 0-0.016-2e-3l-11.916 11.916z" style="fill:url(#r);opacity:.35"/>
<path d="m32 9.713v-2.713a5.004 5.004 0 0 0-0.023-0.5 5.004 5.004 0 0 0-0.075-0.494 5.004 5.004 0 0 0-0.123-0.485 5.004 5.004 0 0 0-0.172-0.47 5.004 5.004 0 0 0-0.216-0.451 5.004 5.004 0 0 0-0.262-0.426 5.004 5.004 0 0 0-0.3-0.399 5.004 5.004 0 0 0-0.29-0.314 4.99 4.99 0 0 0-0.37-0.334 4.99 4.99 0 0 0-0.401-0.297 4.99 4.99 0 0 0-0.428-0.254 4.99 4.99 0 0 0-0.453-0.21 4.99 4.99 0 0 0-0.471-0.163 4.99 4.99 0 0 0-0.484-0.117 4.99 4.99 0 0 0-0.494-0.066 4.99 4.99 0 0 0-0.438-0.018l-14.215-2e-3 3.215 12z" style="fill:url(#s);opacity:.3"/>
<path d="m5 2a5.004 5.004 0 0 0-0.5 0.023 5.004 5.004 0 0 0-0.494 0.075 5.004 5.004 0 0 0-0.485 0.123 5.004 5.004 0 0 0-0.47 0.172 5.004 5.004 0 0 0-0.451 0.216 5.004 5.004 0 0 0-0.426 0.262 5.004 5.004 0 0 0-0.399 0.3 5.004 5.004 0 0 0-0.314 0.29 4.99 4.99 0 0 0-0.336 0.37 4.99 4.99 0 0 0-0.295 0.401 4.99 4.99 0 0 0-0.254 0.43 4.99 4.99 0 0 0-0.21 0.451 4.99 4.99 0 0 0-0.165 0.473 4.99 4.99 0 0 0-0.115 0.484 4.99 4.99 0 0 0-0.068 0.494 4.99 4.99 0 0 0-0.018 0.438v2.71l16 4.288 3.215-11.998z" style="fill:url(#t)"/>
<path d="m5 2a5.004 5.004 0 0 0-0.5 0.023 5.004 5.004 0 0 0-0.494 0.075 5.004 5.004 0 0 0-0.485 0.123 5.004 5.004 0 0 0-0.47 0.172 5.004 5.004 0 0 0-0.451 0.216 5.004 5.004 0 0 0-0.426 0.262 5.004 5.004 0 0 0-0.399 0.3 5.004 5.004 0 0 0-0.314 0.29 4.99 4.99 0 0 0-0.336 0.37 4.99 4.99 0 0 0-0.295 0.401 4.99 4.99 0 0 0-0.254 0.43 4.99 4.99 0 0 0-0.21 0.451 4.99 4.99 0 0 0-0.165 0.473 4.99 4.99 0 0 0-0.115 0.484 4.99 4.99 0 0 0-0.068 0.494 4.99 4.99 0 0 0-0.018 0.438v11.285l16-4.287-3.215-12z" style="fill:url(#t)"/>
<path d="m4.086 2.086a5.004 5.004 0 0 0-0.08 0.012 5.004 5.004 0 0 0-0.485 0.123 5.004 5.004 0 0 0-0.47 0.172 5.004 5.004 0 0 0-0.451 0.216 5.004 5.004 0 0 0-0.426 0.262 5.004 5.004 0 0 0-0.399 0.3 5.004 5.004 0 0 0-0.314 0.29 4.99 4.99 0 0 0-0.336 0.37 4.99 4.99 0 0 0-0.295 0.401 4.99 4.99 0 0 0-0.254 0.43 4.99 4.99 0 0 0-0.21 0.451 4.99 4.99 0 0 0-0.165 0.473 4.99 4.99 0 0 0-0.115 0.484 4.99 4.99 0 0 0-0.068 0.494 4.99 4.99 0 0 0-0.018 0.438v18a5.004 5.004 0 0 0 0.025 0.498 5.004 5.004 0 0 0 0.075 0.496 5.004 5.004 0 0 0 0.123 0.484 5.004 5.004 0 0 0 0.17 0.47 5.004 5.004 0 0 0 0.216 0.45 5.004 5.004 0 0 0 0.262 0.428 5.004 5.004 0 0 0 0.303 0.399 5.004 5.004 0 0 0 0.287 0.312l14.539-14.539z" style="fill:url(#v);opacity:.35"/>
<path d="m1.46 28.54a4.99 4.99 0 0 0 0.37 0.333 4.99 4.99 0 0 0 0.4 0.297 4.99 4.99 0 0 0 0.43 0.254 4.99 4.99 0 0 0 0.453 0.21 4.99 4.99 0 0 0 0.471 0.165 4.99 4.99 0 0 0 0.484 0.115 4.99 4.99 0 0 0 0.495 0.068 4.99 4.99 0 0 0 0.437 0.018h22a5.004 5.004 0 0 0 0.5-0.023 5.004 5.004 0 0 0 0.494-0.075 5.004 5.004 0 0 0 0.485-0.123 5.004 5.004 0 0 0 0.47-0.172 5.004 5.004 0 0 0 0.451-0.216 5.004 5.004 0 0 0 0.426-0.26 5.004 5.004 0 0 0 0.399-0.303 5.004 5.004 0 0 0 0.314-0.289l-14.539-14.539z" style="fill:url(#w);opacity:.35"/>
<path d="m0 18.287v6.715a5.004 5.004 0 0 0 0.025 0.498 5.004 5.004 0 0 0 0.075 0.496 5.004 5.004 0 0 0 0.123 0.484 5.004 5.004 0 0 0 0.17 0.47 5.004 5.004 0 0 0 0.216 0.45 5.004 5.004 0 0 0 0.262 0.428 5.004 5.004 0 0 0 0.303 0.399 5.004 5.004 0 0 0 0.287 0.312 4.99 4.99 0 0 0 0.37 0.334 4.99 4.99 0 0 0 0.4 0.297 4.99 4.99 0 0 0 0.43 0.254 4.99 4.99 0 0 0 0.452 0.21 4.99 4.99 0 0 0 0.471 0.165 4.99 4.99 0 0 0 0.484 0.115 4.99 4.99 0 0 0 0.495 0.068 4.99 4.99 0 0 0 0.437 0.018h15.287l-4.287-16z" style="fill:url(#x);opacity:.3"/>
<path d="m4 2 12 12 12-12z" style="fill:url(#y);opacity:.35"/>
<path d="m22.865 7.137a1.75 7.875 44.998 0 1-4.332 6.804 1.75 7.875 44.998 0 1-3.545 3.061l12.834 12.926a5.004 5.004 0 0 0 0.172-0.026 5.004 5.004 0 0 0 0.485-0.123 5.004 5.004 0 0 0 0.47-0.172 5.004 5.004 0 0 0 0.451-0.216 5.004 5.004 0 0 0 0.426-0.26 5.004 5.004 0 0 0 0.399-0.303 5.004 5.004 0 0 0 0.314-0.289 4.99 4.99 0 0 0 0.336-0.37 4.99 4.99 0 0 0 0.295-0.401 4.99 4.99 0 0 0 0.254-0.428 4.99 4.99 0 0 0 0.21-0.453 4.99 4.99 0 0 0 0.165-0.471 4.99 4.99 0 0 0 0.115-0.484 4.99 4.99 0 0 0 0.068-0.494 4.99 4.99 0 0 0 0.018-0.438v-8.729zm-9.847 7.85-0.018 0.013 4e-3 4e-3a1.75 7.875 44.998 0 1 0.014-0.018zm0.136 0.17 1.703 1.714a3.013 3.013 0 0 0-1.703-1.715zm0.696 1.618c0.422 0.389 0.4 0.942 0.4 1.305 0 1.168-1.747 2.92-5.25 2.92l9 9h9a5.004 5.004 0 0 0 0.07-4e-3z" style="fill:url(#z);opacity:.25"/>
<path d="m0.102 26a5.004 5.004 0 0 0 0.12 0.48 5.004 5.004 0 0 0 0.17 0.47 5.004 5.004 0 0 0 0.217 0.45 5.004 5.004 0 0 0 0.262 0.428 5.004 5.004 0 0 0 0.303 0.399 5.004 5.004 0 0 0 0.287 0.312 4.99 4.99 0 0 0 0.37 0.334 4.99 4.99 0 0 0 0.4 0.297 4.99 4.99 0 0 0 0.43 0.254 4.99 4.99 0 0 0 0.452 0.21 4.99 4.99 0 0 0 0.471 0.165 4.99 4.99 0 0 0 0.484 0.115 4.99 4.99 0 0 0 0.495 0.068 4.99 4.99 0 0 0 0.437 0.018h11v-4z" style="fill-opacity:.784;fill:#fff"/>
<path d="m16 30h11a5.004 5.004 0 0 0 0.5-0.023 5.004 5.004 0 0 0 0.494-0.075 5.004 5.004 0 0 0 0.485-0.123 5.004 5.004 0 0 0 0.47-0.172 5.004 5.004 0 0 0 0.451-0.216 5.004 5.004 0 0 0 0.426-0.26 5.004 5.004 0 0 0 0.399-0.303 5.004 5.004 0 0 0 0.314-0.289 4.99 4.99 0 0 0 0.336-0.37 4.99 4.99 0 0 0 0.295-0.401 4.99 4.99 0 0 0 0.254-0.428 4.99 4.99 0 0 0 0.21-0.453 4.99 4.99 0 0 0 0.165-0.471 4.99 4.99 0 0 0 0.1-0.416h-15.899z" style="fill-opacity:.862;fill:#31363b"/>
<circle cx="27" cy="28" r="1" style="fill:#eff0f1"/>
<path d="m4 27v1h1v-1zm1 1v1h1v-1z" style="fill:#4d4d4d"/>
<path d="m22.574 7.006a1.75 7.875 44.998 0 0-6.515 4.461 1.75 7.875 44.998 0 0-3.1 3.6 3.037 3.037 0 0 1 1.976 1.975 1.75 7.875 44.998 0 0 3.599-3.1 1.75 7.875 44.998 0 0 4.33-6.806 1.75 7.875 44.998 0 0-0.29-0.13m-10.074 9.325c-3.5 0.938-0.875 3.153-3.5 4.669 3.503 0 5.25-1.75 5.25-2.919 0-0.582 0.059-1.653-1.75-1.75z" style="fill:url(#A)"/>
</g>
<path transform="matrix(.49205 0 0 .49205 .32694 .23491)" d="m4.7043 3.9815-0.012938 56.82h53.904l1.0222-2.8664s-23.875 0.76639-32.844-4.1404c-10.516-5.7529-15.372-49.697-15.372-49.697z" style="fill:url(#linearGradient3403);mix-blend-mode:normal;stroke-linejoin:round;stroke-width:1.1624;stroke:url(#linearGradient20558)"/>
<rect transform="matrix(.46095 0 0 .46001 1.1537 1.2292)" x="1.0324" y=".59551" width="62.567" height="62.867" rx="5.803" ry="6.2447" style="fill:none;stroke-linejoin:round;stroke-miterlimit:7.8;stroke-opacity:.99515;stroke-width:3.7137;stroke:url(#linearGradient4557)"/>
</svg>
