<svg width="32" height="32" version="1.1" viewBox="0 0 32 32" xmlns="http://www.w3.org/2000/svg" xmlns:xlink="http://www.w3.org/1999/xlink">
<defs>
<linearGradient id="linearGradient3403" x1="6.9492" x2="11.215" y1="4.5549" y2="59.052" gradientUnits="userSpaceOnUse">
<stop style="stop-color:#32373c" offset="0"/>
<stop style="stop-color:#1a1a1a" offset=".36805"/>
<stop style="stop-color:#31363b" offset="1"/>
</linearGradient>
<linearGradient id="linearGradient20558" x1="25.802" x2="25.111" y1="20.374" y2="58.913" gradientUnits="userSpaceOnUse">
<stop style="stop-color:#3d3d3d" offset="0"/>
<stop offset=".61772"/>
<stop style="stop-color:#3d3d3d" offset="1"/>
</linearGradient>
<linearGradient id="linearGradient4557" x1="43.5" x2="44.142" y1="64.012" y2=".30621" gradientTransform="translate(.36068 -.13017)" gradientUnits="userSpaceOnUse">
<stop style="stop-color:#141618" offset="0"/>
<stop style="stop-color:#686868" offset=".51821"/>
<stop style="stop-color:#31363b" offset="1"/>
</linearGradient>
<linearGradient id="linearGradient967" x1="24" x2="24" y1="294" y2="257" gradientTransform="matrix(3.7795 0 0 3.6895 0 -918.43)" gradientUnits="userSpaceOnUse">
<stop stop-color="#27ae60" offset="0"/>
<stop stop-color="#2ecc71" offset="1"/>
</linearGradient>
<linearGradient id="linearGradient1500" x1="24" x2="24" y1="51.299" y2="24" gradientTransform="scale(3.7795)" gradientUnits="userSpaceOnUse" xlink:href="#linearGradient1444"/>
<linearGradient id="linearGradient1444">
<stop stop-color="#2980b9" offset="0"/>
<stop stop-color="#3daee9" offset="1"/>
</linearGradient>
<linearGradient id="linearGradient1482" x1="24" x2="24" y1="51.299" y2="24" gradientUnits="userSpaceOnUse">
<stop stop-color="#1d99f3" offset="0"/>
<stop stop-color="#3daee9" offset="1"/>
</linearGradient>
<linearGradient id="linearGradient1446" x1="90.709" x2="90.709" y1="193.89" y2="90.709" gradientUnits="userSpaceOnUse" xlink:href="#linearGradient1444"/>
</defs>
<g transform="matrix(.71786 0 0 .73795 -.96353 24.213)">
<g transform="translate(0 -35.3)">
<rect x="4" y="4" width="40" height="40" rx="6" ry="6" fill="#34495e" style="paint-order:stroke fill markers"/>
<path transform="scale(.26458)" d="m37.795 15.117c-12.563 0-22.678 10.115-22.678 22.678v102.05c0 12.563 10.115 22.678 22.678 22.678h105.83c12.563 0 22.678-10.115 22.678-22.678v-102.05c0-12.563-10.115-22.678-22.678-22.678z" fill="#34495e" style="paint-order:markers fill stroke"/>
<path transform="scale(.26458)" d="m37.795 15.117c-12.563 0-22.678 10.115-22.678 22.678v102.05c0 12.563 10.115 22.678 22.678 22.678h105.83c12.563 0 22.678-10.115 22.678-22.678v-102.05c0-12.563-10.115-22.678-22.678-22.678z" fill="url(#linearGradient967)" style="fill:url(#linearGradient967);paint-order:markers fill stroke"/>
<path transform="scale(.26458)" d="m25.188 18.926c-4.3107 2.8789-7.5683 7.1968-9.0996 12.279l131.04 131.05c5.4777-0.84457 10.291-3.6408 13.727-7.6543l-135.67-135.67z" fill="#eff0f1" style="paint-order:normal"/>
<path transform="scale(.26458)" d="m156.23 18.926-72.432 72.432 10.689 10.689 70.842-70.842c-1.5314-5.0825-4.7889-9.4004-9.0996-12.279z" fill="#eff0f1" style="paint-order:normal"/>
<path transform="scale(.26458)" d="m159.2 21.299-71.166 71.166a3.7799 3.7799 0 0 0 0 5.3457l20.824 20.824a3.7799 3.7799 0 1 0 5.3438-5.3457l-18.152-18.15 67.738-67.738c-1.1784-2.2906-2.7343-4.3508-4.5879-6.1016z" color="#000000" color-rendering="auto" dominant-baseline="auto" fill="url(#linearGradient1500)" image-rendering="auto" shape-rendering="auto" solid-color="#000000" style="fill:url(#linearGradient1500);font-feature-settings:normal;font-variant-alternates:normal;font-variant-caps:normal;font-variant-ligatures:normal;font-variant-numeric:normal;font-variant-position:normal;isolation:auto;mix-blend-mode:normal;shape-padding:0;text-decoration-color:#000000;text-decoration-line:none;text-decoration-style:solid;text-indent:0;text-orientation:mixed;text-transform:none;white-space:normal"/>
<path transform="scale(.26458)" d="m15.117 41.574v22.678h151.18v-22.678z" fill="#f39c1f" style="paint-order:normal"/>
<path transform="scale(.26458)" d="m15.117 45.354v15.119h151.18v-15.119z" fill="#fdbc4b" style="paint-order:normal"/>
<path transform="scale(.26458)" d="m15.117 75.264v15.422c0.45723 0.11726 0.90941 0.24302 1.3516 0.38476 3.2563 1.0439 6.2133 2.7719 8.4199 4.9805 3.5861 3.5892 6.0287 9.4579 8.6855 16.242 2.689 6.8664 5.9329 15.133 13.209 21.344 7.2614 6.1978 16.11 8.1746 23.822 9.2227 7.6373 1.0378 14.486 1.3509 20.09 3.0781 5.2657 1.6231 10.203 4.6355 14.17 8.5859 2.3585 2.3486 4.3906 5.061 6.0566 7.9961h16.668c-2.6518-6.9641-6.7187-13.392-12.057-18.707-5.6667-5.6429-12.658-9.9426-20.385-12.324-8.1516-2.5126-15.882-2.709-22.508-3.6094-6.55-0.89008-12.354-2.5954-16.041-5.7422-3.7089-3.1656-6.3699-8.7741-8.9473-15.355-2.6096-6.6635-5.4467-14.787-12.068-21.414-4.1415-4.1452-9.2054-6.9935-14.502-8.6914-1.979-0.63441-3.9742-1.0859-5.9648-1.4121z" color="#000000" color-rendering="auto" dominant-baseline="auto" fill="#fdbc4b" image-rendering="auto" shape-rendering="auto" solid-color="#000000" style="font-feature-settings:normal;font-variant-alternates:normal;font-variant-caps:normal;font-variant-ligatures:normal;font-variant-numeric:normal;font-variant-position:normal;isolation:auto;mix-blend-mode:normal;paint-order:fill markers stroke;shape-padding:0;text-decoration-color:#000000;text-decoration-line:none;text-decoration-style:solid;text-indent:0;text-orientation:mixed;text-transform:none;white-space:normal"/>
<path d="m28.118 29.29s0.31647 1.7311 0.82837 3.6571l5.8611 5.8611c0.65764-0.17511 1.2799-0.51667 1.7958-1.0325 0.51581-0.51574 0.85779-1.1383 1.033-1.7958l-5.8611-5.8617c-1.7e-4 -4.5e-5 -2.65e-4 4.5e-5 -5.3e-4 0-1.9259-0.51172-3.6566-0.82837-3.6566-0.82837z" fill="#eff0f1" style="paint-order:normal"/>
<path d="m29.349 30.52s1.2667 6.923 2.8285 8.4851c1.562 1.5622 4.0947 1.5624 5.6569 3.65e-4 1.5624-1.5621 1.5624-4.0951 0-5.6572-1.5622-1.562-8.4854-2.8282-8.4854-2.8282z" fill="url(#linearGradient1482)" style="fill:url(#linearGradient1482);paint-order:normal"/>
<path transform="scale(.26458)" d="m15.117 82.93v56.912c0 12.563 10.115 22.678 22.678 22.678h81.611c-2.2505-4.9513-5.3542-9.5149-9.207-13.352-4.8169-4.7967-10.781-8.4527-17.277-10.455-6.8776-2.1199-14.167-2.3747-21.299-3.3438-7.1314-0.96907-14.458-2.8102-19.932-7.4824-5.4925-4.688-8.4449-11.626-11.078-18.35s-5.2731-13.72-10.377-18.828c-3.1741-3.1769-7.1845-5.465-11.461-6.8359-1.2008-0.38494-2.4228-0.69703-3.6582-0.94336z" fill="url(#linearGradient1446)" style="fill:url(#linearGradient1446);paint-order:stroke fill markers"/>
<circle transform="rotate(-45)" cx="-.82843" cy="50.334" r="2.9937" fill="#eff0f1" style="paint-order:normal"/>
<path transform="scale(.26458)" d="m144.76 15.148c0.36767 0.01887 0.73261 0.04479 1.0957 0.08008-0.36298-0.03524-0.72781-0.06201-1.0957-0.08008zm1.4453 0.11914c0.31711 0.03572 0.63233 0.07462 0.94532 0.12305-0.31281-0.04854-0.62834-0.08734-0.94532-0.12305zm1.2891 0.18555c0.25193 0.04293 0.50492 0.08563 0.7539 0.13672-0.24916-0.0513-0.50178-0.09361-0.7539-0.13672zm7.9394 2.9648c0.39646 0.24152 0.78248 0.49713 1.1621 0.76172-0.37978-0.26466-0.76571-0.52023-1.1621-0.76172zm1.4863 0.99219c0.38775 0.28051 0.76986 0.56893 1.1387 0.87305-0.36896-0.30425-0.75054-0.5923-1.1387-0.87305zm5.3301 5.4316c0.2132 0.30683 0.41781 0.6202 0.61718 0.9375-0.1983-0.3179-0.40381-0.63049-0.61718-0.9375zm0.70898 1.0801c0.21182 0.34276 0.41501 0.69181 0.60742 1.0469-0.19264-0.3555-0.39665-0.70327-0.60742-1.0469zm0.60742 1.0469c0.23119 0.42662 0.44439 0.86391 0.64844 1.3066-0.204-0.44257-0.41735-0.88019-0.64844-1.3066zm0.80078 1.6465c0.198 0.44899 0.38742 0.90327 0.55664 1.3672-0.16928-0.46408-0.35854-0.91802-0.55664-1.3672zm0.55664 1.3672c0.1697 0.46519 0.31947 0.93911 0.45899 1.418-0.13955-0.47872-0.28941-0.9531-0.45899-1.418zm0.55665 1.7656c0.12922 0.47153 0.24842 0.94797 0.34765 1.4316-0.0993-0.48354-0.21833-0.96005-0.34765-1.4316zm0.81445 108.09c0 0.62928-0.0324 1.2512-0.082 1.8672 0.0497-0.61583 0.082-1.2381 0.082-1.8672zm-0.10352 2.1367c-0.0533 0.5768-0.12924 1.1458-0.22461 1.709 0.0955-0.56331 0.17118-1.1321 0.22461-1.709zm-0.28906 2.0742c-0.10268 0.55147-0.22362 1.0964-0.36523 1.6328 0.14164-0.53631 0.26247-1.0815 0.36523-1.6328zm-0.44922 1.9356c-0.15744 0.5643-0.3303 1.1226-0.5293 1.668 0.19888-0.5452 0.37185-1.1038 0.5293-1.668zm-0.5293 1.668c-0.16952 0.46475-0.35805 0.91947-0.55664 1.3691 0.19855-0.45004 0.38702-0.90413 0.55664-1.3691zm-0.70312 1.6934c-0.20569 0.44653-0.42119 0.88811-0.6543 1.3184 0.23304-0.43013 0.44883-0.87185 0.6543-1.3184zm-1.1992 2.2695c-0.37798 0.62335-0.78616 1.2268-1.2207 1.8086 0.43454-0.58176 0.84272-1.1852 1.2207-1.8086zm-1.2207 1.8086c-0.23306 0.31202-0.47611 0.6168-0.72461 0.91602 0.24879-0.29955 0.49129-0.60365 0.72461-0.91602zm-0.93946 1.1641c-0.18171 0.21247-0.36532 0.42339-0.55468 0.6289 0.18947-0.20561 0.37286-0.41633 0.55468-0.6289zm-0.83593 0.92578c-0.1736 0.18171-0.34782 0.36127-0.52735 0.53711 0.17924-0.17556 0.35403-0.3557 0.52735-0.53711zm-0.84961 0.84375c-0.1745 0.16433-0.35158 0.32756-0.53125 0.48633 0.17998-0.15905 0.35645-0.3217 0.53125-0.48633zm-0.89258 0.79687c-0.16852 0.14273-0.339 0.2821-0.51172 0.41992 0.17267-0.13777 0.34325-0.27724 0.51172-0.41992zm-0.91992 0.74024c-0.17112 0.13024-0.34462 0.25738-0.51953 0.38281 0.17498-0.12547 0.34835-0.25253 0.51953-0.38281zm-0.94922 0.6875c-0.19553 0.13343-0.39581 0.26127-0.5957 0.38867 0.19998-0.12744 0.40009-0.2552 0.5957-0.38867zm-0.95899 0.62109c-0.33151 0.2025-0.66722 0.39833-1.0098 0.58399 0.34256-0.18564 0.67824-0.38151 1.0098-0.58399zm-1.0117 0.58399c-0.64227 0.34797-1.3042 0.66527-1.9824 0.95117 0.67819-0.2859 1.3402-0.6032 1.9824-0.95117zm-1.9824 0.95117c-1.3575 0.57227-2.7827 1.0171-4.2617 1.3184 1.4789-0.3011 2.9043-0.74612 4.2617-1.3184z" fill="#34495e" fill-opacity=".12832" style="paint-order:stroke fill markers"/>
<path transform="scale(.26458)" d="m37.795 15.117c-12.563 0-22.678 10.115-22.678 22.678v51.023h151.18v-51.023c0-12.563-10.115-22.678-22.678-22.678h-105.83z" fill="#fff" fill-opacity=".12832" style="paint-order:stroke fill markers"/>
<path transform="scale(.26458)" d="m90.709 15.117v147.4h52.912c12.563 0 22.678-10.115 22.678-22.678v-102.05c0-12.563-10.115-22.678-22.678-22.678h-52.912z" fill="#34495e" fill-opacity=".075221" style="paint-order:stroke fill markers"/>
</g>
</g>
<path transform="matrix(.5 0 0 .5 .066304 .016549)" d="m4.7043 3.9815-0.012938 56.82h53.904l1.0222-2.8664s-23.875 0.76639-32.844-4.1404c-10.516-5.7529-15.372-49.697-15.372-49.697z" style="fill:url(#linearGradient3403);mix-blend-mode:normal;stroke-linejoin:round;stroke-width:1.1624;stroke:url(#linearGradient20558)"/>
<rect transform="matrix(.46839 0 0 .46744 .90638 1.0269)" x="1.0324" y=".59551" width="62.567" height="62.867" rx="5.803" ry="6.2447" style="fill:none;stroke-linejoin:round;stroke-miterlimit:7.8;stroke-opacity:.99515;stroke-width:3.7137;stroke:url(#linearGradient4557)"/>
</svg>
