<svg width="32" height="32" version="1.1" viewBox="0 0 32 32" xmlns="http://www.w3.org/2000/svg" xmlns:xlink="http://www.w3.org/1999/xlink">
<defs>
<linearGradient id="linearGradient3403" x1="6.9492" x2="11.215" y1="4.5549" y2="59.052" gradientUnits="userSpaceOnUse">
<stop style="stop-color:#32373c" offset="0"/>
<stop style="stop-color:#1a1a1a" offset=".36805"/>
<stop style="stop-color:#31363b" offset="1"/>
</linearGradient>
<linearGradient id="linearGradient20558" x1="25.802" x2="25.111" y1="20.374" y2="58.913" gradientUnits="userSpaceOnUse">
<stop style="stop-color:#3d3d3d" offset="0"/>
<stop offset=".61772"/>
<stop style="stop-color:#3d3d3d" offset="1"/>
</linearGradient>
<linearGradient id="linearGradient4557" x1="43.5" x2="44.142" y1="64.012" y2=".30621" gradientTransform="translate(.36068 -.13017)" gradientUnits="userSpaceOnUse">
<stop style="stop-color:#141618" offset="0"/>
<stop style="stop-color:#686868" offset=".51821"/>
<stop style="stop-color:#31363b" offset="1"/>
</linearGradient>
<linearGradient id="linearGradient919" x1="7.4006" x2="33.063" y1="41.743" y2="7.1074" gradientTransform="scale(.665)" gradientUnits="userSpaceOnUse">
<stop style="stop-opacity:.99608" offset="0"/>
<stop style="stop-color:#353a3f;stop-opacity:.99608" offset="1"/>
</linearGradient>
</defs>
<rect x="2.1033" y="2.0073" width="27.986" height="28.404" ry="0" style="fill-rule:evenodd;fill:url(#linearGradient919)"/>
<path d="m14.031 3.4898c-0.01552 0.5721-1.0133 0.076293-1.0569 0.7311-1.1052-0.4926 0.08416 0.74981-0.02661 0.86516h-0.0045l-0.084143-0.010254c-0.053067-0.018014-0.131-0.049828-0.24479-0.12149-0.23387 0.18706-0.39911 0.4318-0.53629 0.7046-0.92284 1.4357-1.3718 2.6329-1.6758 4.1434-0.38662 1.9314-0.48171 4.1871-0.44274 6.0888 0.042067 0.5378 0.17614 1.0444 0.61574 1.3827 1.2377 1.0179 2.2681 2.3024 3.3079 3.5277 2.0468 2.7749 3.8394 5.1413 5.0086 7.6292-0.12939-0.835-0.29618-2.1647-0.37568-3.1935-0.71083-3.6212-2.1606-5.537-2.3274-9.5822-0.03896-1.0008 1.0397-3.0242 2.2479-4.0842 1.8223-1.6025 3.138-1.1988 5.4638-0.85581 0.01247 0.0031 0.02946 0.0064 0.0419 8e-3 0.07624 0.01386 0.16074 0.02807 0.23694 0.04364 0.62199 0.05454 1.8691 0.29618 2.0935-0.1325-0.85732-0.72955-2.0888-0.82309-3.1332-1.1099-0.16362-0.031175-0.37101-0.065456-0.57366-0.084164l-1.0209-0.22611-0.25565-0.068562v0.00914l-3.657-0.71234c-0.057669-0.053014-0.12158-0.106-0.18085-0.14652l3.5682 0.44271v-0.018846c0.12471 0.028076 0.25097 0.051464 0.37724 0.06701v0.00804l2.5207 0.46451c0.43491 0.16212 0.89947 0.28683 1.3344 0.31333 0.71864 0.10445 1.6306 1.1769 1.866 1.2284-0.11542-1.1286-1.2408-1.6337-2.1762-1.9657-1.0927-0.53159-2.7264-0.51288-2.8994-1.9813-0.046723-0.10293-0.090427-0.20419-0.14655-0.30242l-0.42556-0.5643 0.01496-0.00859c-0.58147-0.68575-1.3967-1.1861-2.265-1.3763-0.86204-0.29775-1.8316-0.59236-2.7436-0.71083-0.30865 0.91036-0.65471-0.72176-1.3983-0.2385-0.65316 0.077984-0.56274 0.24942-1.0475-0.16359zm4.5051 2.053c0.23071-0.00665 0.49416 0.045255 0.75916 0.15896 0.7046 0.30397 1.1629 0.94465 1.0273 1.4326-0.13405 0.48792-0.8184 0.63289-1.523 0.32891-0.7046-0.30397-1.1645-0.9353-1.0288-1.4232 0.08572-0.30553 0.38192-0.4848 0.76539-0.49727z" style="fill-opacity:.15439;fill:#fff;isolation:isolate;stroke-width:1.5588"/>
<path d="m13.945 3.0424c-0.01552 0.5721-1.0133 0.076293-1.0569 0.7311-1.1052-0.4926 0.08416 0.74981-0.02661 0.86516h-0.0045l-0.08419-0.010254c-0.053021-0.018013-0.13095-0.049828-0.24474-0.12149-0.23387 0.18706-0.39911 0.4318-0.53628 0.7046-0.92284 1.4357-1.3718 2.6329-1.6758 4.1434-0.38662 1.9314-0.48171 4.1871-0.44274 6.0888 0.042068 0.5378 0.17614 1.0444 0.61574 1.3827 1.2377 1.0179 2.2681 2.3024 3.3079 3.5277 2.0468 2.7749 3.8394 5.1413 5.0086 7.6292-0.12939-0.835-0.29618-2.1647-0.37568-3.1935-0.71083-3.6212-2.1606-5.537-2.3274-9.5822-0.03896-1.0008 1.0398-3.0242 2.2479-4.0842 1.8223-1.6025 3.138-1.1988 5.4638-0.85581 0.01247 0.0031 0.02946 0.0064 0.0419 8e-3 0.07624 0.01386 0.16074 0.02807 0.23694 0.04364 0.62199 0.05454 1.8691 0.29618 2.0935-0.1325-0.85731-0.72955-2.0888-0.82309-3.1332-1.1099-0.16362-0.031175-0.37101-0.065456-0.57366-0.084164l-1.0209-0.22611-0.25565-0.068562v0.00914l-3.657-0.71234c-0.057669-0.053014-0.12158-0.106-0.18085-0.14652l3.5682 0.44271v-0.018846c0.12471 0.028076 0.25097 0.051464 0.37724 0.06701v0.00804l2.5206 0.46451c0.43491 0.16212 0.89947 0.28683 1.3344 0.31333 0.71864 0.10445 1.6306 1.1769 1.866 1.2284-0.11542-1.1286-1.2408-1.6337-2.1762-1.9657-1.0927-0.53159-2.7264-0.51288-2.8994-1.9813-0.046723-0.10293-0.090426-0.20419-0.14654-0.30242l-0.42556-0.5643 0.01496-0.00859c-0.58146-0.68575-1.3967-1.1861-2.265-1.3763-0.86204-0.29775-1.8316-0.59236-2.7436-0.71083-0.30865 0.91036-0.65471-0.72176-1.3983-0.2385-0.65316 0.077984-0.56274 0.24942-1.0475-0.16359zm4.5051 2.053c0.23071-0.00665 0.49416 0.045255 0.75916 0.15896 0.7046 0.30397 1.1629 0.94465 1.0273 1.4326-0.13405 0.48792-0.8184 0.63289-1.523 0.32891-0.7046-0.30397-1.1645-0.9353-1.0288-1.4232 0.085715-0.30553 0.38192-0.4848 0.76539-0.49727z" style="fill:#fff;isolation:isolate;stroke-width:1.5588"/>
<path transform="matrix(.5 0 0 .5 .066304 .016549)" d="m4.7043 3.9815-0.012938 56.82h53.904l1.0222-2.8664s-23.875 0.76639-32.844-4.1404c-10.516-5.7529-15.372-49.697-15.372-49.697z" style="fill:url(#linearGradient3403);mix-blend-mode:normal;stroke-linejoin:round;stroke-width:1.1624;stroke:url(#linearGradient20558)"/>
<rect transform="matrix(.46839 0 0 .46744 .90638 1.0269)" x="1.0324" y=".59551" width="62.567" height="62.867" rx="5.803" ry="6.2447" style="fill:none;stroke-linejoin:round;stroke-miterlimit:7.8;stroke-opacity:.99515;stroke-width:3.7137;stroke:url(#linearGradient4557)"/>
</svg>
