<svg width="32" height="32" version="1.1" viewBox="0 0 32 32" xmlns="http://www.w3.org/2000/svg" xmlns:xlink="http://www.w3.org/1999/xlink">
<defs>
<linearGradient id="linearGradient3403" x1="6.9492" x2="11.215" y1="4.5549" y2="59.052" gradientUnits="userSpaceOnUse">
<stop style="stop-color:#32373c" offset="0"/>
<stop style="stop-color:#1a1a1a" offset=".36805"/>
<stop style="stop-color:#31363b" offset="1"/>
</linearGradient>
<linearGradient id="linearGradient20558" x1="25.802" x2="25.111" y1="20.374" y2="58.913" gradientUnits="userSpaceOnUse">
<stop style="stop-color:#3d3d3d" offset="0"/>
<stop offset=".61772"/>
<stop style="stop-color:#3d3d3d" offset="1"/>
</linearGradient>
<linearGradient id="linearGradient4557" x1="43.5" x2="44.142" y1="64.012" y2=".30621" gradientTransform="translate(.36068 -.13017)" gradientUnits="userSpaceOnUse">
<stop style="stop-color:#141618" offset="0"/>
<stop style="stop-color:#686868" offset=".51821"/>
<stop style="stop-color:#31363b" offset="1"/>
</linearGradient>
<linearGradient id="linearGradient4587-3" x1="56.133" x2="18.826" y1="55.999" y2="5.506" gradientTransform="translate(.36135 -.1249)" gradientUnits="userSpaceOnUse">
<stop style="stop-color:#366f85" offset="0"/>
<stop style="stop-color:#32ae9f" offset="1"/>
</linearGradient>
<linearGradient id="a" x1="428.57" x2="388.57" y1="543.8" y2="503.8" gradientUnits="userSpaceOnUse">
<stop stop-color="#375a7d" offset="0"/>
<stop stop-color="#31bfa6" offset="1"/>
</linearGradient>
<linearGradient id="d" x1="18" x2="27.975" y1="24" y2="37" gradientUnits="userSpaceOnUse">
<stop stop-color="#172525" offset="0"/>
<stop stop-color="#172525" stop-opacity="0" offset="1"/>
</linearGradient>
<linearGradient id="c" x1="14.576" x2="28.742" y1="25.538" y2="44" gradientUnits="userSpaceOnUse">
<stop stop-color="#4ce0c6" offset="0"/>
<stop stop-color="#7fe9d6" offset=".3"/>
<stop stop-color="#31bfa6" offset="1"/>
</linearGradient>
<linearGradient id="b" x1="12.521" x2="22.282" y1="12.08" y2="24.797" gradientTransform="translate(384.57,499.8)" gradientUnits="userSpaceOnUse">
<stop stop-color="#fcfcfc" offset="0"/>
<stop stop-color="#eff1f1" offset="1"/>
</linearGradient>
</defs>
<g transform="matrix(.43386 0 0 .43386 2.5947 1.6517)">
<rect x="1.033" y=".60078" width="62.567" height="62.867" style="fill:url(#linearGradient4587-3)"/>
<g transform="matrix(1.33 0 0 1.33 -506.77 -665.79)" style="fill-rule:evenodd">
<g style="color-rendering:auto;color:#000000;image-rendering:auto;shape-rendering:auto">
<circle cx="408.57" cy="523.8" r="20" style="fill:url(#a)"/>
</g>
<path transform="translate(384.57,499.8)" d="m41 19-6.813 1.813-17.688-1.188-7.5 9.688-0.34 4.074 9.82 9.82a20 20 0 0 0 5.5195 0.79297 20 20 0 0 0 20-20 20 20 0 0 0-0.13867-2.1387z" style="fill:url(#d);opacity:.4"/>
<path transform="translate(384.57,499.8)" d="m17.887 22.848-8.887 1.152-0.355 9.348c15.401-9.854 25.355 6.03 35.36-0.348-8 0-14.673-12.09-24.5-9z" style="fill:url(#c)"/>
<path d="m394.66 512.4c-2.637 3.214-4.08 7.243-4.084 11.4 6e-3 3.314 0.926 6.562 2.66 9.387 13.944-17.18 21.21-5.01 32.34-14.387-10 2-12.898-10.456-30.916-6.4" style="fill:url(#b)"/>
</g>
</g>
<path transform="matrix(.5 0 0 .5 .066304 .016549)" d="m4.7043 3.9815-0.012938 56.82h53.904l1.0222-2.8664s-23.875 0.76639-32.844-4.1404c-10.516-5.7529-15.372-49.697-15.372-49.697z" style="fill:url(#linearGradient3403);mix-blend-mode:normal;stroke-linejoin:round;stroke-width:1.1624;stroke:url(#linearGradient20558)"/>
<rect transform="matrix(.46839 0 0 .46744 .90638 1.0269)" x="1.0324" y=".59551" width="62.567" height="62.867" rx="5.803" ry="6.2447" style="fill:none;stroke-linejoin:round;stroke-miterlimit:7.8;stroke-opacity:.99515;stroke-width:3.7137;stroke:url(#linearGradient4557)"/>
</svg>
