<svg width="32" height="32" version="1.1" viewBox="0 0 32 32" xmlns="http://www.w3.org/2000/svg" xmlns:xlink="http://www.w3.org/1999/xlink">
<defs>
<linearGradient id="linearGradient3403" x1="6.9492" x2="11.215" y1="4.5549" y2="59.052" gradientUnits="userSpaceOnUse">
<stop style="stop-color:#32373c" offset="0"/>
<stop style="stop-color:#1a1a1a" offset=".36805"/>
<stop style="stop-color:#31363b" offset="1"/>
</linearGradient>
<linearGradient id="linearGradient20558" x1="25.802" x2="25.111" y1="20.374" y2="58.913" gradientUnits="userSpaceOnUse">
<stop style="stop-color:#3d3d3d" offset="0"/>
<stop offset=".61772"/>
<stop style="stop-color:#3d3d3d" offset="1"/>
</linearGradient>
<linearGradient id="linearGradient4557" x1="43.5" x2="44.142" y1="64.012" y2=".30621" gradientTransform="translate(.36068 -.13017)" gradientUnits="userSpaceOnUse">
<stop style="stop-color:#141618" offset="0"/>
<stop style="stop-color:#686868" offset=".51821"/>
<stop style="stop-color:#31363b" offset="1"/>
</linearGradient>
</defs>
<rect x="2.333" y="2.1954" width="27.566" height="27.977" ry="0" style="fill-rule:evenodd;fill:#ff4500"/>
<g transform="translate(-65.515 2.5158)">
<g transform="matrix(.82268 0 0 .82268 63.27 -6.4142)">
<path d="m25.512 11.102c-0.37643-0.0056-0.69854 0.26429-0.75293 0.63038l-1.2861 8.232c-2.9544 0.08605-5.7577 0.90617-7.8721 2.3027-0.56033-0.54154-1.3146-0.8454-2.1006-0.84624-1.6569 0-3 1.3196-3 2.9474 8.03e-4 1.0993 0.62423 2.1068 1.6172 2.6135-0.07406 0.35478-0.1132 0.71248-0.11719 1.0707-9e-6 4.4765 5.3726 8.1054 12 8.1054 6.6274 0 12-3.6289 12-8.1054-5e-3 -0.35737-0.0453-0.71409-0.12011-1.0679 0.99503-0.50639 1.6198-1.5154 1.6201-2.6164 1e-5 -1.6278-1.3431-2.9474-3-2.9474-0.78844 8.3e-5 -1.5452 0.30512-2.1064 0.84911-1.9986-1.3256-4.6207-2.1371-7.4121-2.294l1.1396-7.2419 3.8994 0.852c0.13889 1.1065 1.0947 1.9382 2.2295 1.94 1.2426 0 2.25-0.98969 2.25-2.2106s-1.0074-2.2106-2.25-2.2106c-0.77391 6.41e-4 -1.4932 0.39204-1.9043 1.0362l-4.6787-1.0189c-0.0509-0.01114-0.10296-0.0195-0.15527-0.0195zm-5.2617 13.266c1.2426 0 2.25 0.98969 2.25 2.2106 0 1.2209-1.0074 2.2106-2.25 2.2106s-2.25-0.98969-2.25-2.2106c0-1.2209 1.0074-2.2106 2.25-2.2106zm7.5 0c1.2426 0 2.25 0.98969 2.25 2.2106 0 1.2209-1.0074 2.2106-2.25 2.2106s-2.25-0.98969-2.25-2.2106c0-1.2209 1.0074-2.2106 2.25-2.2106zm1.459 6.6056c0.6978-0.05793 1.091 0.76957 0.59766 1.2578 0 0-0.49136 0.51215-1.4268 0.93547-0.9354 0.42342-2.3723 0.81633-4.3975 0.78291-2.0135-0.0337-3.4248-0.42507-4.3506-0.8261-0.92579-0.40076-1.418-0.87214-1.418-0.87214-0.45927-0.44259-0.1755-1.2106 0.46582-1.2607 0.0243-0.0021 0.0488-0.0028 0.0733-0.0028 0.20307 0.0023 0.39652 0.0855 0.53613 0.23032 0 0 0.21382 0.23589 0.95215 0.55552 0.73833 0.31971 1.9463 0.66315 3.7764 0.69657 1.8184 0.03063 3.0008-0.31214 3.7295-0.64188 0.72872-0.32957 0.94336-0.58718 0.94336-0.58718 0.12897-0.15429 0.31601-0.25092 0.51855-0.26763z" style="opacity:.2;stroke-width:2.8097"/>
<path d="m25.512 10.366c-0.37643-0.0056-0.69854 0.26429-0.75293 0.63038l-1.2861 8.232c-2.9544 0.08606-5.7577 0.90617-7.8721 2.3027-0.56033-0.54153-1.3146-0.8454-2.1006-0.84624-1.6569 0-3 1.3196-3 2.9474 8.03e-4 1.0993 0.62423 2.1068 1.6172 2.6135-0.07406 0.35478-0.1132 0.71248-0.11719 1.0707-9e-6 4.4765 5.3726 8.1054 12 8.1054 6.6274 0 12-3.6289 12-8.1054-5e-3 -0.35737-0.0453-0.71409-0.12011-1.0679 0.99503-0.50639 1.6198-1.5154 1.6201-2.6164 1e-5 -1.6278-1.3431-2.9474-3-2.9474-0.78844 8.4e-5 -1.5452 0.30512-2.1064 0.84911-1.9986-1.3256-4.6207-2.1371-7.4121-2.294l1.1396-7.2419 3.8994 0.852c0.13889 1.1065 1.0947 1.9382 2.2295 1.94 1.2426 0 2.25-0.98969 2.25-2.2106 0-1.2209-1.0074-2.2106-2.25-2.2106-0.77391 6.4e-4 -1.4932 0.39204-1.9043 1.0362l-4.6787-1.0189c-0.0509-0.01114-0.10296-0.01949-0.15527-0.01949zm-5.2617 13.266c1.2426 0 2.25 0.98969 2.25 2.2106s-1.0074 2.2106-2.25 2.2106-2.25-0.98969-2.25-2.2106 1.0074-2.2106 2.25-2.2106zm7.5 0c1.2426 0 2.25 0.98969 2.25 2.2106s-1.0074 2.2106-2.25 2.2106-2.25-0.98969-2.25-2.2106 1.0074-2.2106 2.25-2.2106zm1.459 6.6056c0.6978-0.05793 1.091 0.76957 0.59766 1.2578 0 0-0.49136 0.51215-1.4268 0.93547-0.9354 0.42342-2.3723 0.81633-4.3975 0.78291-2.0135-0.0337-3.4248-0.42507-4.3506-0.8261-0.92579-0.40076-1.418-0.87214-1.418-0.87214-0.45927-0.44258-0.1755-1.2106 0.46582-1.2607 0.0243-0.0021 0.0488-0.0028 0.0733-0.0028 0.20307 0.0023 0.39652 0.0855 0.53613 0.23032 0 0 0.21382 0.23589 0.95215 0.55552 0.73833 0.31971 1.9463 0.66315 3.7764 0.69657 1.8184 0.03063 3.0008-0.31214 3.7295-0.64188 0.72872-0.32957 0.94336-0.58718 0.94336-0.58718 0.12897-0.15429 0.31601-0.25092 0.51855-0.26763z" style="fill:#fff;stroke-width:2.8097"/>
</g>
<path d="m24 3a21 20.632 0 0 0-21 20.632 21 20.632 0 0 0 0.01318 0.36267 21 20.632 0 0 1 20.987-20.258 21 20.632 0 0 1 20.981 20.258 21 20.632 0 0 0 0.019-0.36267 21 20.632 0 0 0-21-20.632z" style="fill:#fff;opacity:.2;stroke-width:.7434"/>
</g>
<path transform="matrix(.4925 0 0 .4925 .32655 .23455)" d="m4.7043 3.9815-0.012938 56.82h53.904l1.0222-2.8664s-23.875 0.76639-32.844-4.1404c-10.516-5.7529-15.372-49.697-15.372-49.697z" style="fill:url(#linearGradient3403);mix-blend-mode:normal;stroke-linejoin:round;stroke-width:1.1624;stroke:url(#linearGradient20558)"/>
<rect transform="matrix(.46136 0 0 .46042 1.154 1.2297)" x="1.0324" y=".59551" width="62.567" height="62.867" rx="5.803" ry="6.2447" style="fill:none;stroke-linejoin:round;stroke-miterlimit:7.8;stroke-opacity:.99515;stroke-width:3.7137;stroke:url(#linearGradient4557)"/>
</svg>
