<?xml version="1.0" encoding="UTF-8" standalone="no"?>
<!-- Created with Inkscape (http://www.inkscape.org/) -->

<svg
   width="32"
   height="32"
   version="1.1"
   viewBox="0 0 32 32"
   id="svg22"
   xmlns:xlink="http://www.w3.org/1999/xlink"
   xmlns="http://www.w3.org/2000/svg"
   xmlns:svg="http://www.w3.org/2000/svg">
  <defs
     id="defs12">
    <linearGradient
       id="linearGradient1005-3-3"
       x1="5.2535"
       x2="9.3823996"
       y1="15.383"
       y2="2.9421"
       gradientTransform="matrix(0.99999,0,0,0.99999,1.632,-0.61743)"
       gradientUnits="userSpaceOnUse">
      <stop
         stop-color="#fa8200"
         offset="0"
         id="stop2" />
      <stop
         stop-color="#ff9600"
         offset=".36953"
         id="stop4" />
      <stop
         stop-color="#ffb400"
         offset="1"
         id="stop6" />
    </linearGradient>
    <filter
       id="filter4014"
       x="-0.062499933"
       y="-0.057692993"
       width="1.1249999"
       height="1.115386"
       color-interpolation-filters="sRGB">
      <feGaussianBlur
         stdDeviation="1.093751"
         id="feGaussianBlur9" />
    </filter>
    <linearGradient
       xlink:href="#linearGradient3487"
       id="linearGradient3403"
       gradientUnits="userSpaceOnUse"
       x1="6.9491749"
       y1="4.5549412"
       x2="11.215498"
       y2="59.052471" />
    <linearGradient
       id="linearGradient3487">
      <stop
         style="stop-color:#32373c;stop-opacity:1"
         offset="0"
         id="stop3481" />
      <stop
         id="stop3483"
         offset="0.36804965"
         style="stop-color:#1a1a1a;stop-opacity:1" />
      <stop
         style="stop-color:#31363b;stop-opacity:1"
         offset="1"
         id="stop3485" />
    </linearGradient>
    <linearGradient
       xlink:href="#linearGradient20604"
       id="linearGradient20558"
       gradientUnits="userSpaceOnUse"
       x1="25.802212"
       y1="20.373846"
       x2="25.111048"
       y2="58.912758" />
    <linearGradient
       id="linearGradient20604">
      <stop
         id="stop20598"
         offset="0"
         style="stop-color:#3d3d3d;stop-opacity:1" />
      <stop
         style="stop-color:#000000;stop-opacity:1"
         offset="0.61772454"
         id="stop20600" />
      <stop
         id="stop20602"
         offset="1"
         style="stop-color:#3d3d3d;stop-opacity:1" />
    </linearGradient>
    <filter
       style="color-interpolation-filters:sRGB"
       id="filter20720"
       x="-0.017024755"
       y="-0.016457183"
       width="1.0340491"
       height="1.0329144">
      <feGaussianBlur
         stdDeviation="0.14745661"
         id="feGaussianBlur20722" />
    </filter>
    <linearGradient
       gradientTransform="translate(0.36067797,-0.13016949)"
       xlink:href="#linearGradient4555"
       id="linearGradient4557"
       x1="43.499737"
       y1="64.011795"
       x2="44.141731"
       y2="0.30621234"
       gradientUnits="userSpaceOnUse" />
    <linearGradient
       id="linearGradient4555">
      <stop
         style="stop-color:#141618;stop-opacity:1"
         offset="0"
         id="stop4551" />
      <stop
         id="stop4559"
         offset="0.51820582"
         style="stop-color:#686868;stop-opacity:1" />
      <stop
         style="stop-color:#31363b;stop-opacity:1"
         offset="1"
         id="stop4553" />
    </linearGradient>
    <filter
       style="color-interpolation-filters:sRGB"
       id="filter4601"
       x="-0.030244955"
       width="1.0604899"
       y="-0.030100647"
       height="1.0602013">
      <feGaussianBlur
         stdDeviation="0.014790289"
         id="feGaussianBlur4603" />
    </filter>
    <linearGradient
       gradientUnits="userSpaceOnUse"
       y2="5.1285472"
       x2="35.057411"
       y1="53.859512"
       x1="11.086592"
       id="linearGradient4587-3"
       xlink:href="#linearGradient4585"
       gradientTransform="translate(0.36135313,-0.12490449)" />
    <linearGradient
       id="linearGradient4585">
      <stop
         id="stop4581"
         offset="0"
         style="stop-color:#2a2ac5;stop-opacity:1;" />
      <stop
         id="stop4583"
         offset="1"
         style="stop-color:#8585e9;stop-opacity:1;" />
    </linearGradient>
    <filter
       height="1.0239428"
       y="-0.011971414"
       width="1.0240574"
       x="-0.012028721"
       id="filter4601-2"
       style="color-interpolation-filters:sRGB">
      <feGaussianBlur
         id="feGaussianBlur4603-9"
         stdDeviation="0.31358446" />
    </filter>
    <linearGradient
       gradientTransform="translate(-452.40278,-497.24379)"
       xlink:href="#1"
       id="0"
       x1="426.74097"
       y1="543.08612"
       x2="389.4765"
       y2="502.8252"
       gradientUnits="userSpaceOnUse" />
    <linearGradient
       id="1">
      <stop
         stop-color="#105be2"
         style="stop-color:#1919bf;stop-opacity:1"
         id="stop13" />
      <stop
         offset="1"
         stop-color="#26dbfc"
         style="stop-color:#9e9ef3;stop-opacity:1"
         id="stop15" />
    </linearGradient>
    <linearGradient
       xlink:href="#linearGradient4179"
       id="linearGradient4185"
       x1="4.9491525"
       y1="4.7118645"
       x2="43.118645"
       y2="42.779659"
       gradientUnits="userSpaceOnUse"
       gradientTransform="matrix(0.665,0,0,0.665,2.2084753,0.03834849)" />
    <linearGradient
       id="linearGradient4179">
      <stop
         style="stop-color:#000000;stop-opacity:1;"
         offset="0"
         id="stop2-1" />
      <stop
         style="stop-color:#000000;stop-opacity:0;"
         offset="1"
         id="stop4-4" />
    </linearGradient>
  </defs>
  <rect
     y="0.60077608"
     x="1.033034"
     height="62.866646"
     width="62.567139"
     id="rect4539-1"
     style="display:inline;opacity:1;fill:url(#linearGradient4587-3);fill-opacity:1;stroke:none;stroke-width:1.146;stroke-linejoin:round;stroke-miterlimit:7.8;stroke-dasharray:none;stroke-opacity:0.995146;filter:url(#filter4601-2)"
     transform="matrix(0.43541928,0,0,0.43541928,2.3783285,1.6713792)" />
  <path
     style="opacity:0.3;fill:url(#linearGradient4185);fill-opacity:1;stroke:none;stroke-width:1.33;stroke-linecap:round;stroke-linejoin:round;stroke-miterlimit:4;stroke-dasharray:none;stroke-opacity:1"
     d="m 8.77454,11.516451 -1.0683698,7.60717 5.2350328,8.924786 6.310495,1.266827 c 6.529445,-0.542868 11.68664,-5.760848 12.137549,-12.316788 L 22.229718,6.2301041 14.845596,6.0018683 11.647321,9.7376529 Z"
     id="path24" />
  <path
     id="path5088"
     d="m 14.704181,5.2808452 c -0.443578,0 -0.802044,0.358476 -0.802044,0.8020437 0,0.1703694 0.05331,0.3283366 0.143784,0.4583106 l -1.974779,2.2915533 c -0.08601,-0.024778 -0.177853,-0.040439 -0.271842,-0.040439 -0.53944,0 -0.975033,0.4378533 -0.975033,0.97728 0,0.028362 0.0021,0.055374 0.0045,0.083125 L 9.0899049,10.998496 c -0.1309571,-0.09272 -0.2901395,-0.148277 -0.4628034,-0.148277 -0.443579,0 -0.8042903,0.360723 -0.8042903,0.80429 0,0.277927 0.1426731,0.520806 0.3572128,0.665 l -0.3167741,5.984998 c -0.2000393,0.105452 -0.3347464,0.315315 -0.3347464,0.557162 0,0.347717 0.2813369,0.629053 0.6290541,0.629053 0.028934,0 0.057469,-7.31e-4 0.085371,-0.0045 l 4.3651844,4.475269 c -0.0013,0.01674 -0.0023,0.03235 -0.0023,0.04942 0,0.347717 0.281337,0.629054 0.629054,0.629054 0.127483,0 0.246843,-0.03596 0.34598,-0.101098 l 2.367938,1.269341 c -0.0045,0.03425 -0.0067,0.06788 -0.0067,0.103344 0,0.443579 0.358464,0.80429 0.802043,0.80429 0.418833,0 0.762739,-0.320962 0.799797,-0.730151 l 6.416349,-1.873682 c 0.146551,0.194807 0.377735,0.321266 0.640287,0.321266 0.443568,0 0.802044,-0.358464 0.802044,-0.802043 0,-0.188254 -0.06452,-0.361819 -0.17299,-0.49875 l 2.776823,-6.113055 c 0.443568,0 0.802044,-0.358465 0.802044,-0.802044 0,-0.390388 -0.277848,-0.716165 -0.647027,-0.788564 l -0.86945,-2.907127 c 0.139924,-0.115476 0.229156,-0.291925 0.229156,-0.487516 0,-0.34771 -0.281346,-0.629055 -0.629054,-0.629055 -0.04194,0 -0.08392,0.0057 -0.123564,0.01348 L 22.778537,6.5299664 c 0.006,-0.034808 0.01123,-0.071327 0.01123,-0.1078378 0,-0.3477083 -0.281345,-0.6290538 -0.629054,-0.6290538 -0.197823,0 -0.376589,0.090962 -0.49201,0.2336485 L 15.461293,5.815541 C 15.350815,5.5040077 15.053585,5.2808452 14.704181,5.2808452 Z m 0.750372,1.0896112 6.095082,0.2066891 c 0.0372,0.1480394 0.125969,0.2761829 0.247128,0.3617059 l -0.143783,0.680726 c -0.298678,0.067799 -0.544247,0.2715713 -0.669494,0.5436827 l -6.82074,0.793057 0.456064,-2.0736309 c 0.02842,0.00306 0.05615,0.00452 0.08537,0.00452 0.34217,0 0.634662,-0.2152759 0.750372,-0.5167226 z m 6.984744,0.6155741 3.891147,4.7650825 c -0.04337,0.08546 -0.0674,0.180683 -0.0674,0.283075 0,0.181302 0.07731,0.345678 0.199949,0.460557 l -0.31902,0.898648 -3.410371,-4.3651841 c 0.07223,-0.1362904 0.112331,-0.2910738 0.112331,-0.4560643 0,-0.4198105 -0.264059,-0.7785141 -0.635794,-0.9166213 l 0.130305,-0.6290535 c 0.03459,-0.010334 0.06704,-0.024598 0.09885,-0.040439 z M 14.284063,7.1118412 13.870685,8.990016 12.549672,9.1450328 c -0.0034,-0.00406 -0.0078,-0.00724 -0.01123,-0.011232 z m 6.744356,2.1545096 -1.977026,7.7148962 c -0.05459,0.01239 -0.107978,0.02772 -0.15951,0.04718 l -5.102077,-5.769322 2.376926,-0.265101 c 0.106614,0.19626 0.313612,0.330253 0.552668,0.330253 0.347709,0 0.6313,-0.283583 0.6313,-0.631301 0,-0.04914 -0.0073,-0.09564 -0.01797,-0.141536 L 20.675698,9.3090391 Z M 19.523183,9.4415869 17.213657,10.302043 C 17.09831,10.157164 16.91898,10.063901 16.7194,10.063901 c -0.347717,0 -0.629053,0.281346 -0.629053,0.629054 0,0.0097 0.0018,0.01956 0.0023,0.02921 l -2.376925,0.265102 0.195459,-0.891909 z m 2.572381,0.1100848 3.720404,4.7628353 -0.766098,2.15451 -4.677464,1.087365 c -0.06719,-0.115483 -0.151555,-0.218226 -0.251622,-0.305541 z m -8.474254,0.5773813 -0.16625,0.752618 -0.588615,-0.665 z m -2.58586,0.247128 c 0.0542,0.06835 0.116124,0.130252 0.186469,0.181977 l -0.137044,0.723411 -1.6782253,0.188717 c -0.0016,-0.0068 -0.00273,-0.01351 -0.00452,-0.02022 z m 0.714425,0.368446 c 0.01665,8.65e-4 0.03257,0.0023 0.04942,0.0023 0.02097,0 0.04227,-9.31e-4 0.06291,-0.0023 l 0.363952,0.408885 -0.566148,0.0629 z m 0.700946,0.662753 0.712178,0.806537 -0.30554,1.390658 c -0.33736,0.01178 -0.606588,0.28883 -0.606588,0.629054 0,0.19331 0.08754,0.365286 0.224663,0.480778 l -2.105084,3.228394 1.233394,-6.441063 z m -1.422111,0.15951 -1.334493,6.971265 c -0.2246257,0.04659 -0.4148503,0.188264 -0.5279561,0.379679 L 8.7865818,18.845942 C 8.7802643,18.597359 8.629959,18.385361 8.4158895,18.28878 l 0.3100336,-5.836721 c 0.3658292,-0.04541 0.653963,-0.338706 0.6964525,-0.705439 z m 2.361198,0.903142 4.756097,5.382903 c -0.0076,0.02848 -0.01468,0.05611 -0.02022,0.08537 l -7.692429,0.82451 c -0.05262,-0.05386 -0.113776,-0.09962 -0.17973,-0.137044 l 2.464543,-3.783309 c 0.05132,0.01351 0.106197,0.02022 0.161757,0.02022 0.347708,0 0.629053,-0.281336 0.629053,-0.629053 0,-0.258971 -0.156215,-0.480706 -0.379678,-0.577382 z m 13.313475,0.16625 c 0.01748,0.0055 0.03582,0.0096 0.05392,0.01348 l 0.739138,2.475776 -1.152517,-1.47603 z m -0.687466,1.932094 1.107584,1.417618 -1.756857,0.408885 z m 1.17049,2.255607 -2.525202,5.55814 0.05167,-3.471029 c 0.276147,-0.04879 0.487516,-0.289475 0.487516,-0.579628 0,-0.234376 -0.136571,-0.435334 -0.334746,-0.530203 l 0.170743,-0.47853 z m -2.46679,0.572889 -0.123564,0.348225 c -0.318032,0.0084 -0.575135,0.266318 -0.575135,0.586369 0,0.264352 0.175817,0.489314 0.415625,0.563901 l -0.05841,3.96304 c -0.199511,0.05758 -0.366616,0.190814 -0.469544,0.366199 l -3.504728,-0.757111 c -0.0036,-0.344609 -0.283591,-0.622314 -0.629054,-0.622314 -0.337238,0 -0.612766,0.26441 -0.629053,0.597601 l -0.855963,0.211183 1.055911,-3.271081 c 0.590413,-0.01174 1.077842,-0.443222 1.174984,-1.008732 z m -6.463528,1.356959 c 0.07771,0.140805 0.182945,0.264237 0.307787,0.363952 l -1.217668,3.765337 -2.615067,0.640286 -4.133783,-3.886654 c 0.0083,-0.0197 0.0157,-0.04019 0.02246,-0.06066 z m -9.2875306,0.687465 0.096605,0.01797 c 0.00598,0.03529 0.014271,0.06978 0.024711,0.103345 z m 0.6223143,0.640288 c 0.083398,0.02933 0.1739227,0.04493 0.2673473,0.04493 0.018487,0 0.035744,-9.98e-4 0.053918,-0.0023 l 3.486756,3.280066 c -0.05194,-0.01387 -0.107691,-0.02246 -0.164004,-0.02246 -0.122779,0 -0.235649,0.03582 -0.3325,0.0966 L 9.5908718,20.08153 Z m 9.6020573,2.633039 c 0.09449,0.228374 0.31935,0.388665 0.581874,0.388665 0.252813,0 0.470475,-0.148962 0.570642,-0.363952 l 3.084611,0.662753 -5.944559,1.738884 0.703192,-2.179222 z m -1.945574,0.476284 -0.624561,1.9276 c -0.05327,0.0081 -0.10347,0.02246 -0.15277,0.04044 l -1.498496,-1.410878 z m -3.235134,0.793057 0.402145,0.375186 -0.552668,-0.296555 c 0.0011,-0.01396 0.0021,-0.02849 0.0023,-0.04269 l 0.148276,-0.03594 z"
     style="display:inline;fill:#ffffff;fill-opacity:1;stroke:none;stroke-width:0.0718918" />
  <path
     style="display:inline;mix-blend-mode:normal;fill:url(#linearGradient3403);fill-opacity:1;stroke:url(#linearGradient20558);stroke-width:1.16242;stroke-linecap:butt;stroke-linejoin:round;stroke-miterlimit:4;stroke-dasharray:none;stroke-opacity:1;filter:url(#filter20720)"
     d="M 4.7043071,3.9814882 4.6913695,60.80196 H 58.59546 l 1.022155,-2.866369 c 0,0 -23.87537,0.766388 -32.844441,-4.140386 C 16.257548,48.042344 11.401114,4.0978197 11.401114,4.0978197 Z"
     id="path1686"
     transform="matrix(0.5,0,0,0.5,0.06630362,0.01654936)" />
  <rect
     style="display:inline;fill:none;fill-opacity:1;stroke:url(#linearGradient4557);stroke-width:3.71366;stroke-linejoin:round;stroke-miterlimit:7.8;stroke-dasharray:none;stroke-opacity:0.995146;filter:url(#filter4601)"
     id="rect4539"
     width="62.566689"
     height="62.866646"
     x="1.0323594"
     y="0.59551275"
     ry="6.2447233"
     rx="5.8029528"
     transform="matrix(0.46839137,0,0,0.46743669,0.90638486,1.0268972)" />
</svg>
