<svg width="32" height="32" version="1.1" viewBox="0 0 32 32" xmlns="http://www.w3.org/2000/svg" xmlns:xlink="http://www.w3.org/1999/xlink">
<defs>
<linearGradient id="linearGradient3403" x1="6.9492" x2="11.215" y1="4.5549" y2="59.052" gradientUnits="userSpaceOnUse">
<stop style="stop-color:#32373c" offset="0"/>
<stop style="stop-color:#1a1a1a" offset=".36805"/>
<stop style="stop-color:#31363b" offset="1"/>
</linearGradient>
<linearGradient id="linearGradient20558" x1="25.802" x2="25.111" y1="20.374" y2="58.913" gradientUnits="userSpaceOnUse">
<stop style="stop-color:#3d3d3d" offset="0"/>
<stop offset=".61772"/>
<stop style="stop-color:#3d3d3d" offset="1"/>
</linearGradient>
<linearGradient id="linearGradient4557" x1="43.5" x2="44.142" y1="64.012" y2=".30621" gradientTransform="translate(.36068 -.13017)" gradientUnits="userSpaceOnUse">
<stop style="stop-color:#141618" offset="0"/>
<stop style="stop-color:#686868" offset=".51821"/>
<stop style="stop-color:#31363b" offset="1"/>
</linearGradient>
<linearGradient id="h" x2="0" y1="43.922" y2="2.987" gradientUnits="userSpaceOnUse">
<stop stop-color="#22a7f0" offset="0"/>
<stop stop-color="#19b5fe" offset="1"/>
</linearGradient>
<radialGradient id="l" cx="30.3" cy="38.13" r="16" gradientTransform="matrix(.53188 -.49081 .78529 .851 -19.809 -.579)" gradientUnits="userSpaceOnUse" xlink:href="#a"/>
<linearGradient id="a">
<stop stop-color="#dcedfe" stop-opacity=".742" offset="0"/>
<stop stop-color="#dcedfe" stop-opacity="0" offset="1"/>
</linearGradient>
<radialGradient id="k" cx="31.01" cy="48.672" r="16" gradientTransform="matrix(.59169 -.93256 2.1003 1.3326 -80.07 8.555)" gradientUnits="userSpaceOnUse" xlink:href="#a"/>
<linearGradient id="i" x2="0" y1="43.922" y2="34.04" gradientUnits="userSpaceOnUse">
<stop stop-color="#c8e3fe" offset="0"/>
<stop stop-color="#e4f1fe" offset="1"/>
</linearGradient>
<linearGradient id="j" x1="19" x2="27" y1="33.998" y2="44" gradientUnits="userSpaceOnUse">
<stop stop-color="#383e51" offset="0"/>
<stop stop-color="#655c6f" stop-opacity="0" offset="1"/>
</linearGradient>
<linearGradient id="linearGradient5109" x1="10.972" x2="40.709" y1="-.018" y2="30.416" gradientTransform="translate(15.653,1.018)" gradientUnits="userSpaceOnUse" xlink:href="#b"/>
<linearGradient id="b" x1="10.972" x2="40.709" y1="-.018" y2="30.416" gradientTransform="translate(15.653,1.018)" gradientUnits="userSpaceOnUse">
<stop offset="0"/>
<stop stop-opacity="0" offset="1"/>
</linearGradient>
<linearGradient id="c" x1="11" x2="29.13" y1="4" y2="22.13" gradientTransform="translate(23.03,5.02)" gradientUnits="userSpaceOnUse" xlink:href="#b"/>
<linearGradient id="d" x1="7.347" x2="30.347" y1="6.982" y2="45.982" gradientTransform="translate(19.023,3.98)" gradientUnits="userSpaceOnUse">
<stop stop-color="#eee" offset="0"/>
<stop stop-color="#ccc" offset="1"/>
</linearGradient>
<linearGradient id="f" x1="23.22" x2="19" y1="42.986" y2="33" gradientTransform="matrix(1,0,0,1.25,7.023,-6.022)" gradientUnits="userSpaceOnUse">
<stop stop-color="#70431c" offset="0"/>
<stop stop-color="#be8c5a" offset="1"/>
</linearGradient>
<linearGradient id="g" x1="13.98" x2="21" y1="38.957" y2="46" gradientTransform="translate(12.023 -.022)" gradientUnits="userSpaceOnUse" xlink:href="#b"/>
<linearGradient id="e" x2="0" y1="36" y2="32" gradientTransform="matrix(1,0,0,1.0091,7.521,3.686)" gradientUnits="userSpaceOnUse">
<stop stop-color="#c58c00" offset="0"/>
<stop stop-color="#ffc318" offset="1"/>
</linearGradient>
</defs>
<g transform="matrix(.7942 0 0 .66784 -1.7009 -.69907)">
<path d="m40 3v41h-22l-10-10v-31l10.354-0.013z" style="fill:url(#h)"/>
<g style="color-rendering:auto;color:#000000;image-rendering:auto;shape-rendering:auto">
<path d="m8 5v14l1 1v-2h2v2h-2l1 1h1v1l1 1v-2h2v2h-2l1 1h1v1l1 1v-2h2v2h-2l1 1h1v1l1 1v-2h2v2h1v-2h2v2h1v-2h2v2h1v-2h2v2h1v-2h2v2h1v-2h2v2h1v-2h2v2h1v-2h1v-1h-1v-2h1v-1h-1v-2h1v-1h-1v-2h1v-1h-1v-2h1v-1h-1v-2h1v-1h-1v-2h1v-1h-1v-2h1v-1h-29zm1 1h2v2h-2zm3 0h2v2h-2zm3 0h2v2h-2zm3 0h2v2h-2zm3 0h2v2h-2zm3 0h2v2h-2zm3 0h2v2h-2zm3 0h2v2h-2zm3 0h2v2h-2zm3 0h2v2h-2zm-27 3h2v2h-2zm3 0h2v2h-2zm3 0h2v2h-2zm3 0h2v2h-2zm3 0h2v2h-2zm3 0h2v2h-2zm3 0h2v2h-2zm3 0h2v2h-2zm3 0h2v2h-2zm3 0h2v2h-2zm-27 3h2v2h-2zm3 0h2v2h-2zm3 0h2v2h-2zm3 0h2v2h-2zm3 0h2v2h-2zm3 0h2v2h-2zm3 0h2v2h-2zm3 0h2v2h-2zm3 0h2v2h-2zm3 0h2v2h-2zm-27 3h2v2h-2zm3 0h2v2h-2zm3 0h2v2h-2zm3 0h2v2h-2zm3 0h2v2h-2zm3 0h2v2h-2zm3 0h2v2h-2zm3 0h2v2h-2zm3 0h2v2h-2zm3 0h2v2h-2zm-24 3h2v2h-2zm3 0h2v2h-2zm3 0h2v2h-2zm3 0h2v2h-2zm3 0h2v2h-2zm3 0h2v2h-2zm3 0h2v2h-2zm3 0h2v2h-2zm3 0h2v2h-2zm-21 3h2v2h-2zm3 0h2v2h-2zm3 0h2v2h-2zm3 0h2v2h-2zm3 0h2v2h-2zm3 0h2v2h-2zm3 0h2v2h-2zm3 0h2v2h-2zm-18 3h2v2h-2zm3 0h2v2h-2zm3 0h2v2h-2zm3 0h2v2h-2zm3 0h2v2h-2zm3 0h2v2h-2zm3 0h2v2h-2z" style="fill:url(#l);opacity:.647"/>
<path d="m8 20v14l1 1v-2h2v2h-2l1 1h1v1l1 1v-2h2v2h-2l1 1h1v1l1 1v-2h2v2h-2l1 1h1v1l1 1v-2h2v2h1v-2h2v2h1v-2h2v2h1v-2h2v2h1v-2h2v2h1v-2h2v2h1v-2h2v2h1v-2h1v-1h-1v-2h1v-1h-1v-2h1v-1h-1v-2h1v-1h-1v-2h1v-1h-1v-2h1v-1h-1v-2h1v-1h-1v-2h1v-1h-29zm1 1h2v2h-2zm3 0h2v2h-2zm3 0h2v2h-2zm3 0h2v2h-2zm3 0h2v2h-2zm3 0h2v2h-2zm3 0h2v2h-2zm3 0h2v2h-2zm3 0h2v2h-2zm3 0h2v2h-2zm-27 3h2v2h-2zm3 0h2v2h-2zm3 0h2v2h-2zm3 0h2v2h-2zm3 0h2v2h-2zm3 0h2v2h-2zm3 0h2v2h-2zm3 0h2v2h-2zm3 0h2v2h-2zm3 0h2v2h-2zm-27 3h2v2h-2zm3 0h2v2h-2zm3 0h2v2h-2zm3 0h2v2h-2zm3 0h2v2h-2zm3 0h2v2h-2zm3 0h2v2h-2zm3 0h2v2h-2zm3 0h2v2h-2zm3 0h2v2h-2zm-27 3h2v2h-2zm3 0h2v2h-2zm3 0h2v2h-2zm3 0h2v2h-2zm3 0h2v2h-2zm3 0h2v2h-2zm3 0h2v2h-2zm3 0h2v2h-2zm3 0h2v2h-2zm3 0h2v2h-2zm-24 3h2v2h-2zm3 0h2v2h-2zm3 0h2v2h-2zm3 0h2v2h-2zm3 0h2v2h-2zm3 0h2v2h-2zm3 0h2v2h-2zm3 0h2v2h-2zm3 0h2v2h-2zm-21 3h2v2h-2zm3 0h2v2h-2zm3 0h2v2h-2zm3 0h2v2h-2zm3 0h2v2h-2zm3 0h2v2h-2zm3 0h2v2h-2zm3 0h2v2h-2zm-18 3h2v2h-2zm3 0h2v2h-2zm3 0h2v2h-2zm3 0h2v2h-2zm3 0h2v2h-2zm3 0h2v2h-2zm3 0h2v2h-2z" style="fill:url(#k)"/>
</g>
<g transform="scale(-1,1)">
<rect x="-40" y="43" width="22" height="1" rx="0" style="fill-opacity:.294;fill:#2e3132"/>
<rect x="-40" y="3" width="32" height="1" style="fill-opacity:.41;fill:#fff"/>
</g>
<g style="fill-rule:evenodd">
<path d="m8 34 10 10v-10z" style="fill:url(#i)"/>
<path d="m28 44-10-10v10z" style="fill:url(#j);opacity:.2"/>
</g>
<path d="m29.02 2.987h-12.729c-3.949 0.231-5.847 2.432-6.771 4.589-1.573 5.559 1.063 11.493 6.414 11.613 2.919 0 5.45-1.529 7.592-3.348 0.328-0.278 4.4-3.02 9.948-3.329l0.278-3.261c-6.514 1.106-11.32 5.03-12.199 5.955-1.554 1.644-3.329 2.462-5.334 2.462-5.104-0.667-5.214-6.462-3.618-9.356 0 0 1.893-4.66 16.419-5.325" style="fill-opacity:.474;fill:#0c3155"/>
<g style="fill-rule:evenodd">
<path d="m37.22 9.791-0.57 1.227 1 34h1.857l0.309-32.63z" style="fill:url(#linearGradient5109);opacity:.2"/>
<path d="m34.03 9.02 2 2 2 20-7 2z" style="fill:url(#c);opacity:.2"/>
</g>
<path d="m30.023 7.98c-1.105 0-2 0.895-2 2 1e-3 0.652 0.32 1.263 0.855 1.637-1.466 4.427-4.145 11.653-6.855 14.363 0 0 3.977 6.02 3.977 10.02h10c0-4 4.02-10.02 4.02-10.02-2.71-2.71-5.387-9.934-6.854-14.361 0.535-0.374 0.853-0.986 0.854-1.639 0-1.105-0.895-2-2-2v18.27c0.618 0.357 0.999 1.017 1 1.73 0 1.105-0.895 2-2 2s-2-0.895-2-2c1e-3 -0.713 0.382-1.372 1-1.729v-14.271z" style="fill:url(#d)"/>
<rect x="25.993" y="38.92" width="10.02" height="5.05" rx="0" style="fill:url(#f)"/>
<path d="m26.023 38.98 5 5h5v-5.02z" style="fill-rule:evenodd;fill:url(#g);opacity:.2"/>
<path d="m26.023 35.98h10c0.831 0 1.5 0.675 1.5 1.514s-0.669 1.514-1.5 1.514h-10c-0.831 0-1.5-0.675-1.5-1.514s0.669-1.514 1.5-1.514" style="fill:url(#e)"/>
</g>
<path transform="matrix(.5 0 0 .5 .066304 .016549)" d="m4.7043 3.9815-0.012938 56.82h53.904l1.0222-2.8664s-23.875 0.76639-32.844-4.1404c-10.516-5.7529-15.372-49.697-15.372-49.697z" style="fill:url(#linearGradient3403);mix-blend-mode:normal;stroke-linejoin:round;stroke-width:1.1624;stroke:url(#linearGradient20558)"/>
<rect transform="matrix(.46839 0 0 .46744 .90638 1.0269)" x="1.0324" y=".59551" width="62.567" height="62.867" rx="5.803" ry="6.2447" style="fill:none;stroke-linejoin:round;stroke-miterlimit:7.8;stroke-opacity:.99515;stroke-width:3.7137;stroke:url(#linearGradient4557)"/>
</svg>
