<svg width="32" height="32" version="1.1" viewBox="0 0 32 32" xmlns="http://www.w3.org/2000/svg" xmlns:xlink="http://www.w3.org/1999/xlink">
<defs>
<linearGradient id="linearGradient3403" x1="6.9492" x2="11.215" y1="4.5549" y2="59.052" gradientUnits="userSpaceOnUse">
<stop style="stop-color:#32373c" offset="0"/>
<stop style="stop-color:#1a1a1a" offset=".36805"/>
<stop style="stop-color:#31363b" offset="1"/>
</linearGradient>
<linearGradient id="linearGradient20558" x1="25.802" x2="25.111" y1="20.374" y2="58.913" gradientUnits="userSpaceOnUse">
<stop style="stop-color:#3d3d3d" offset="0"/>
<stop offset=".61772"/>
<stop style="stop-color:#3d3d3d" offset="1"/>
</linearGradient>
<linearGradient id="linearGradient4557" x1="43.5" x2="44.142" y1="64.012" y2=".30621" gradientTransform="translate(.36068 -.13017)" gradientUnits="userSpaceOnUse">
<stop style="stop-color:#141618" offset="0"/>
<stop style="stop-color:#686868" offset=".51821"/>
<stop style="stop-color:#31363b" offset="1"/>
</linearGradient>
</defs>
<g transform="matrix(.67863 0 0 .67863 .83278 -.67816)">
<rect x="4" y="4" width="40" height="40" rx=".72958" ry=".86168" style="fill:#37a0f2"/>
<g transform="matrix(.90655 0 0 .90655 5.3384 1.7899)">
<path d="m36.961 5.0013c-5.6341 0.065201-14.326 1.6316-17.043 4.8691h-0.0059c-2.168 3.152-2.4438 15.487-1.8808 14.727 4.6141-6.2621 15.672-13.995 22.277-17.104 3.566-1.6856 1.0344-2.543-3.3477-2.4922zm-21.045 7.0469c-1.4234 0.24182-7.136 4.1801-5.8203 11.258l2e-3 0.0039c1.2489 3.616 9.2496 8.4226 8.9727 7.5176-2.2721-7.4636-3.0932-12.292-2.8398-18.656 0.0047-0.11795-0.11111-0.15759-0.31445-0.12305zm15.605 3.168c-3.8132 0.27454-10.52 6.7677-9.5781 6.7305 7.7995-0.26902 12.671 0.17688 18.756 2.0684 0.90276 0.28006-0.97261-8.1628-9.1777-8.7988zm-4.125 6.7598c-0.20115 0.01048-0.28447 0.06323-0.2168 0.16016 4.4571 6.4027 6.722 10.739 8.4375 16.877 0.25476 0.91054 6.3275-5.2488 2.4062-12.484-2.011-2.675-9.2179-4.6267-10.627-4.5527zm-20.654 1.2188c-0.73349-0.09648-2.4525 7.9144 4.4004 11.986 3.5432 1.4444 12.428-1.4017 11.566-1.7949-7.1127-3.2062-11.281-5.7707-15.9-10.156-0.021288-0.02039-0.042746-0.03204-0.066406-0.03516zm22.975 3.9102v2e-3c-0.04407-0.01149-0.07531 0.0094-0.08984 0.06641-1.9744 7.5505-3.797 12.095-7.3457 17.387-0.53031 0.78085 8.0967 1.4007 11.049-6.2852l2e-3 0.0039c0.77596-3.5021-2.9543-11.001-3.6153-11.174zm-2.166 4.8262c-0.01803-0.0045-0.03993-9.15e-4 -0.06641 0.01172-7.0421 3.3677-11.687 4.9102-18.027 5.6055-0.93599 0.10761 4.1521 7.0984 11.93 4.3984l0.0078-2e-3c3.2795-1.7227 6.7152-9.8731 6.1562-10.014z" style="opacity:.2"/>
<path d="m36.961 4.0011c-5.6341 0.065201-14.326 1.6316-17.043 4.8692h-0.0059c-2.168 3.152-2.444 15.487-1.881 14.727 4.6141-6.2621 15.673-13.996 22.278-17.104 3.566-1.6856 1.034-2.5428-3.348-2.492zm-5.4401 10.215c-3.8132 0.27454-10.52 6.7678-9.5782 6.7306 7.7995-0.26902 12.671 0.17695 18.756 2.0684 0.90276 0.28006-0.9727-8.1629-9.1778-8.7989zm-4.1251 6.7599c-0.20115 0.01048-0.28447 0.06324-0.2168 0.16016 4.4571 6.4027 6.7221 10.739 8.4376 16.877 0.25476 0.91054 6.3275-5.2486 2.4062-12.484-2.011-2.675-9.2181-4.6271-10.627-4.5531zm2.3203 5.131c-0.04407-0.01149-0.07531 0.0094-0.08984 0.06641-1.9744 7.5505-3.7971 12.095-7.3458 17.387-0.53031 0.78085 8.097 1.4005 11.049-6.2853l2e-3 0.0039c0.77601-3.5021-2.954-11-3.615-11.173zm-2.166 4.8243c-0.01803-0.0045-0.03993-9.13e-4 -0.06641 0.01172-7.0421 3.3677-11.687 4.9103-18.027 5.6056-0.93599 0.10761 4.1526 7.0984 11.93 4.3985l0.0078-2e-3c3.2795-1.7227 6.7152-9.8736 6.1563-10.014z" style="fill:#e9f5fd"/>
<path d="m15.916 11.048c-1.4234 0.24182-7.1361 4.1805-5.8204 11.258l2e-3 0.0039c1.2489 3.616 9.2497 8.4227 8.9728 7.5177-2.2721-7.4636-3.0932-12.292-2.8398-18.656 0.0047-0.11795-0.11111-0.15759-0.31445-0.12305zm-9.1739 11.146c-0.73349-0.096482-2.4524 7.9162 4.4005 11.988 3.5432 1.4444 12.428-1.4017 11.566-1.7949-7.1127-3.2062-11.281-5.7726-15.9-10.158-0.021288-0.02039-0.042747-0.03204-0.066407-0.03516z" style="fill:#4f4f4f"/>
<path d="m36.961 4.002c-5.6341 0.065201-14.326 1.6316-17.043 4.8691h-0.0059c-1.6607 2.4144-2.2055 10.172-2.1191 13.35 0.03022-3.5778 0.60933-10.155 2.1191-12.35h0.0059c2.717-3.2376 11.409-4.8039 17.043-4.8691 2.2733-0.026354 4.0383 0.19323 4.7227 0.64453 1.1899-1.1228-1.1496-1.686-4.7227-1.6445zm-21.045 7.0469c-1.3093 0.22243-6.2345 3.5793-5.9941 9.623 0.29789-5.4149 4.7587-8.4132 5.9941-8.623 0.15251-0.02591 0.25675-0.01046 0.29688 0.04883 0.0072-0.31003 5e-3 -0.60864 0.01758-0.92578 0.0047-0.11795-0.11111-0.15759-0.31445-0.12305zm0.2832 2.8496c-0.04358 5.2844 0.74484 9.7482 2.6016 16.01 0.20182 0.05556 0.30476 0.03507 0.26953-0.08008-1.9366-6.3614-2.8096-10.814-2.8711-15.93zm15.322 0.31836c-3.8132 0.27454-10.52 6.7677-9.5781 6.7305 0.20166-7e-3 0.3803-0.0077 0.57812-0.01367 1.6775-1.8281 6.1473-5.5114 9-5.7168 6.2865 0.48729 8.8502 5.5452 9.3027 7.7637 0.54624-0.61286-1.5594-8.1635-9.3027-8.7637zm-3.8184 7.6895c0.02341 0.03413 0.04508 0.06754 0.06836 0.10156 1.9424 0.15507 8.3619 2.0074 10.252 4.5215 0.85895 1.585 1.2191 3.1106 1.2852 4.5293 0.09255-1.6862-0.22024-3.5643-1.2852-5.5293-0.99668-1.3258-3.2696-2.4713-5.4805-3.2832-1.5369-0.184-3.1288-0.29484-4.8398-0.33984zm-20.961 0.28906c-0.32169-0.04231-0.832 1.4748-0.72656 3.5352 0.068132-1.5283 0.45999-2.5702 0.72656-2.5352 0.02366 0.0031 0.045118 0.01477 0.066406 0.03516 4.4256 4.2019 8.4666 6.7372 15.051 9.7617 0.68296-0.27712 1.0529-0.51274 0.84961-0.60547-1.3376-0.60292-2.5434-1.1819-3.6953-1.7559 0.0206 0.06804 0.03579 0.12879 0.05664 0.19727 0.16406 0.5362-2.5742-0.95008-5.0957-2.9883-2.5694-1.6151-4.8119-3.3743-7.166-5.6094-0.021288-0.02039-0.042746-0.03204-0.066406-0.03516zm22.975 3.9102v2e-3c-0.04407-0.01149-0.07531 0.0094-0.08984 0.06641-1.9744 7.5505-3.797 12.095-7.3457 17.387-0.08662 0.12754 0.09038 0.24662 0.42773 0.33008 3.2591-5.0112 5.0279-9.489 6.918-16.717 0.01453-0.05701 0.04577-0.0779 0.08984-0.06641v-2e-3c0.57204 0.14972 3.4378 5.7821 3.6973 9.5664 0.20026-2.5191-1.293-6.4006-2.4688-8.6934-0.32253-0.55341-0.65557-1.114-1.0137-1.6875-0.08633-0.09881-0.16283-0.17193-0.21484-0.18555zm-2.166 4.8262c-0.01803-0.0045-0.03993-9.15e-4 -0.06641 0.01172-1.8469 0.88323-3.5242 1.6354-5.1152 2.2852 0.11759 0.05339 0.22062 0.10446 0.33984 0.1582 0.59462 0.27124-3.449 1.7074-7.1777 2.0996-1.9368 0.47564-3.9043 0.82453-6.0742 1.0625-0.21381 0.02458-0.09974 0.41752 0.27539 0.96289 6.165-0.70646 10.772-2.2388 17.65-5.5215 0.19407-0.59689 0.28473-1.0292 0.16797-1.0586z" style="fill:#fff;opacity:.1"/>
</g>
</g>
<path transform="matrix(.5 0 0 .5 .066304 .016549)" d="m4.7043 3.9815-0.012938 56.82h53.904l1.0222-2.8664s-23.875 0.76639-32.844-4.1404c-10.516-5.7529-15.372-49.697-15.372-49.697z" style="fill:url(#linearGradient3403);mix-blend-mode:normal;stroke-linejoin:round;stroke-width:1.1624;stroke:url(#linearGradient20558)"/>
<rect transform="matrix(.46839 0 0 .46744 .90638 1.0269)" x="1.0324" y=".59551" width="62.567" height="62.867" rx="5.803" ry="6.2447" style="fill:none;stroke-linejoin:round;stroke-miterlimit:7.8;stroke-opacity:.99515;stroke-width:3.7137;stroke:url(#linearGradient4557)"/>
</svg>
