<svg width="32" height="32" version="1.1" viewBox="0 0 32 32" xmlns="http://www.w3.org/2000/svg" xmlns:xlink="http://www.w3.org/1999/xlink">
<defs>
<linearGradient id="linearGradient3403" x1="6.9492" x2="11.215" y1="4.5549" y2="59.052" gradientUnits="userSpaceOnUse">
<stop style="stop-color:#32373c" offset="0"/>
<stop style="stop-color:#1a1a1a" offset=".36805"/>
<stop style="stop-color:#31363b" offset="1"/>
</linearGradient>
<linearGradient id="linearGradient20558" x1="25.802" x2="25.111" y1="20.374" y2="58.913" gradientUnits="userSpaceOnUse">
<stop style="stop-color:#3d3d3d" offset="0"/>
<stop offset=".61772"/>
<stop style="stop-color:#3d3d3d" offset="1"/>
</linearGradient>
<linearGradient id="linearGradient4557" x1="43.5" x2="44.142" y1="64.012" y2=".30621" gradientTransform="translate(.36068 -.13017)" gradientUnits="userSpaceOnUse">
<stop style="stop-color:#141618" offset="0"/>
<stop style="stop-color:#686868" offset=".51821"/>
<stop style="stop-color:#31363b" offset="1"/>
</linearGradient>
<linearGradient id="linearGradient5783" x2="0" y1="523.8" y2="549.8" gradientTransform="matrix(.70711 -.70711 .70711 .70711 -635.28 -57.48)" gradientUnits="userSpaceOnUse" xlink:href="#c"/>
<linearGradient id="c" x2="0" y1="523.8" y2="549.8" gradientTransform="matrix(.70711 -.70711 .70711 .70711 -635.28 -57.48)" gradientUnits="userSpaceOnUse">
<stop offset="0"/>
<stop stop-opacity="0" offset="1"/>
</linearGradient>
<linearGradient id="f" x1="391.57" x2="461.2" gradientTransform="translate(250.71,-442.32)" gradientUnits="userSpaceOnUse" xlink:href="#a"/>
<linearGradient id="a" x2="0" y1="542.8" y2="503.8" gradientUnits="userSpaceOnUse">
<stop stop-color="#2a2c2f" offset="0"/>
<stop stop-color="#424649" offset="1"/>
</linearGradient>
<linearGradient id="d" x1="410.88" x2="422.57" y1="520.94" y2="532.63" gradientTransform="translate(-384.57,-499.8)" gradientUnits="userSpaceOnUse" xlink:href="#c"/>
<linearGradient id="e" x1="428.57" x2="388.57" y1="543.8" y2="503.8" gradientUnits="userSpaceOnUse" xlink:href="#a"/>
<linearGradient id="b" x1="42" x2="6" y1="42" y2="6" gradientUnits="userSpaceOnUse">
<stop stop-color="#989a9b" offset="0"/>
<stop stop-color="#f6f6f7" offset="1"/>
</linearGradient>
</defs>
<g transform="matrix(.43761 0 0 .43761 2.249 1.6968)">
<rect x="1.033" y=".60078" width="62.567" height="62.867" style="fill:#3e4245"/>
<g transform="matrix(1.33 0 0 1.33 -507.76 -666.32)">
<g style="stroke-linejoin:bevel;stroke-width:2">
<path transform="translate(384.57,499.8)" d="m36.729 11.271-25.457 25.457 6.127 6.127a20 20 0 0 0 6.6016 1.1445 20 20 0 0 0 20-20 20 20 0 0 0-1.1445-6.6016z" style="fill:url(#linearGradient5783);opacity:.2"/>
<circle transform="rotate(45)" cx="659.28" cy="81.48" r="17" style="fill:url(#f);stroke-linecap:round"/>
</g>
<g style="fill-rule:evenodd">
<path transform="translate(384.57,499.8)" d="m26.06 12.789-0.307 1.682 1.9 3.248 4.281 0.563 1.438 2.5-4.094 7.938-4.75 6.156-2.283-1.232-0.248 1.357 11 11 12.563-15.977-12.5-12.5-2 0.266z" style="fill:url(#d);opacity:.2"/>
<path d="m407.6 534.24-7.625-11.06-0.406-5.25 5.344-0.625 3.75-5.03 4.188 5.656 4.844 0.656-2.281 7.906-6.094 7.719z" style="fill:url(#e)"/>
</g>
<path transform="translate(384.57,499.8)" d="m24 6a18 18 0 0 0-18 18 18 18 0 0 0 18 18 18 18 0 0 0 18-18 18 18 0 0 0-18-18m0 2a16 16 0 0 1 15.705 13h-3.7051c-0.554 0-1 0.446-1 1s0.446 1 1 1h3.963a16 16 0 0 1 0.037 1 16 16 0 0 1-0.050781 1h-3.9492c-0.554 0-1 0.446-1 1s0.446 1 1 1h3.709a16 16 0 0 1-15.709 13 16 16 0 0 1-15.705-13h3.7051c0.554 0 1-0.446 1-1s-0.446-1-1-1h-3.96a16 16 0 0 1-0.04-1 16 16 0 0 1 0.05078-1h3.9492c0.554 0 1-0.446 1-1s-0.446-1-1-1h-3.709a16 16 0 0 1 15.709-13m0 4c-0.667 0-1.291 0.188-1.77 0.537-0.47 0.349-0.772 0.811-1 1.266-0.454 0.909-0.684 1.869-1.12 2.75-0.165 0.321-0.217 0.317-0.325 0.349-0.108 0.033-0.371 0.04-0.765-0.017-0.8-0.114-2.109-0.458-3.467 0.225-0.769 0.38-1.274 1.107-1.483 1.872-0.216 0.765-0.198 1.584-0.06 2.432 0.286 1.696 1.09 3.534 2.16 5.141 0.96 1.436 2.214 3.695 3.498 5.625 0.642 0.96 1.288 1.84 1.959 2.533 0.671 0.689 1.373 1.287 2.373 1.287s1.7-0.598 2.371-1.287c0.669-0.693 1.319-1.573 1.961-2.533 1.284-1.93 2.543-4.189 3.5-5.625 1.071-1.607 1.872-3.445 2.154-5.141 0.144-0.848 0.154-1.667-0.054-2.432-0.213-0.765-0.712-1.492-1.485-1.872-1.357-0.683-2.669-0.339-3.465-0.225-0.397 0.057-0.661 0.05-0.772 0.017-0.1-0.032-0.15-0.028-0.315-0.349-0.441-0.881-0.675-1.841-1.125-2.75-0.228-0.455-0.53-0.917-1.006-1.266-0.474-0.349-1.097-0.537-1.764-0.537m0 10c0.554 0 1 0.446 1 1v6c0 0.554-0.446 1-1 1s-1-0.446-1-1v-6c0-0.554 0.446-1 1-1" style="fill:url(#b);stroke-linejoin:round;stroke-width:.5"/>
</g>
</g>
<path transform="matrix(.5 0 0 .5 .066304 .016549)" d="m4.7043 3.9815-0.012938 56.82h53.904l1.0222-2.8664s-23.875 0.76639-32.844-4.1404c-10.516-5.7529-15.372-49.697-15.372-49.697z" style="fill:url(#linearGradient3403);mix-blend-mode:normal;stroke-linejoin:round;stroke-width:1.1624;stroke:url(#linearGradient20558)"/>
<rect transform="matrix(.46839 0 0 .46744 .90638 1.0269)" x="1.0324" y=".59551" width="62.567" height="62.867" rx="5.803" ry="6.2447" style="fill:none;stroke-linejoin:round;stroke-miterlimit:7.8;stroke-opacity:.99515;stroke-width:3.7137;stroke:url(#linearGradient4557)"/>
</svg>
