<svg width="32" height="32" version="1.1" viewBox="0 0 32 32" xmlns="http://www.w3.org/2000/svg" xmlns:xlink="http://www.w3.org/1999/xlink">
<defs>
<linearGradient id="linearGradient3403" x1="6.9492" x2="11.215" y1="4.5549" y2="59.052" gradientUnits="userSpaceOnUse">
<stop style="stop-color:#32373c" offset="0"/>
<stop style="stop-color:#1a1a1a" offset=".36805"/>
<stop style="stop-color:#31363b" offset="1"/>
</linearGradient>
<linearGradient id="linearGradient20558" x1="25.802" x2="25.111" y1="20.374" y2="58.913" gradientUnits="userSpaceOnUse">
<stop style="stop-color:#3d3d3d" offset="0"/>
<stop offset=".61772"/>
<stop style="stop-color:#3d3d3d" offset="1"/>
</linearGradient>
<linearGradient id="linearGradient4557" x1="43.5" x2="44.142" y1="64.012" y2=".30621" gradientTransform="translate(.36068 -.13017)" gradientUnits="userSpaceOnUse">
<stop style="stop-color:#141618" offset="0"/>
<stop style="stop-color:#686868" offset=".51821"/>
<stop style="stop-color:#31363b" offset="1"/>
</linearGradient>
<linearGradient id="linearGradient919" x1="7.4006" x2="33.063" y1="41.743" y2="7.1074" gradientTransform="scale(.665)" gradientUnits="userSpaceOnUse">
<stop style="stop-opacity:.99608" offset="0"/>
<stop style="stop-color:#353a3f;stop-opacity:.99608" offset="1"/>
</linearGradient>
<linearGradient id="linearGradient4828" x2="0" y1="537.8" y2="539.8" gradientTransform="matrix(1.1875 0 0 1.3636 -460.77 -693.52)" gradientUnits="userSpaceOnUse">
<stop style="stop-color:#c6cdd1" offset="0"/>
<stop style="stop-color:#e0e5e7" offset="1"/>
</linearGradient>
<linearGradient id="linearGradient4776-4" x1="410.57" x2="413.57" y1="538.8" y2="541.8" gradientTransform="matrix(1.2727 0 0 1.4242 -495.5 -726.35)" gradientUnits="userSpaceOnUse">
<stop offset="0"/>
<stop style="stop-opacity:0" offset="1"/>
</linearGradient>
<linearGradient id="linearGradient4577" x1="405.57" x2="411.57" y1="534.8" y2="538.8" gradientTransform="matrix(1.25 0 0 .7091 -486.31 -342.93)" gradientUnits="userSpaceOnUse">
<stop style="stop-color:#18222a" offset="0"/>
<stop style="stop-color:#566069" offset="1"/>
</linearGradient>
<linearGradient id="b" x1="414.78" x2="390.67" y1="545.52" y2="521.47" gradientUnits="userSpaceOnUse">
<stop stop-color="#197cf1" offset="0"/>
<stop stop-color="#86dbfc" offset="1"/>
</linearGradient>
<linearGradient id="d" x1=".043" x2="22.06" y1="-2.981" y2="19.04" gradientUnits="userSpaceOnUse">
<stop stop-color="#292c2f" offset="0"/>
<stop stop-opacity="0" offset="1"/>
</linearGradient>
<linearGradient id="c-6" x2="0" y1="30" y2="2" gradientUnits="userSpaceOnUse">
<stop stop-color="#7cbaf8" offset="0"/>
<stop stop-color="#f4fcff" offset="1"/>
</linearGradient>
<linearGradient id="linearGradient4784-5" x2="0" y1="541.8" y2="543.8" gradientTransform="matrix(1.1875 0 0 1 -460.77 -496.51)" gradientUnits="userSpaceOnUse">
<stop style="stop-color:#1d1e1e" offset="0"/>
<stop style="stop-color:#44484c" offset="1"/>
</linearGradient>
</defs>
<rect x="2.1033" y="2.0073" width="27.986" height="28.404" ry="0" style="fill-rule:evenodd;fill:url(#linearGradient919)"/>
<g transform="matrix(.56789 0 0 .56789 5.4395 2.0018)">
<rect x="5.4068" y="39.842" width="38" height="5.4545" style="fill:url(#linearGradient4828);stroke-linecap:round;stroke-linejoin:round;stroke-width:2"/>
<path d="m19.407 41.024 3.8182 4.2727h10.182l-3.8182-4.2727z" style="fill-rule:evenodd;fill:url(#linearGradient4776-4);opacity:.2"/>
<path d="m19.407 36.297h10v4.7273s-1.25 1.1818-5 1.1818-5-1.1818-5-1.1818z" style="fill:url(#linearGradient4577);stroke-linecap:round;stroke-linejoin:round;stroke-width:2"/>
<rect transform="matrix(1.3196 0 0 1.3196 -504.19 -682.91)" x="386.57" y="517.8" width="28" height="28" rx="14" style="fill:url(#b)"/>
<path transform="matrix(1.3196 0 0 1.3196 3.2953 -2.2459)" d="m18.594 2.248-2.975 0.381-4.135 2.387-1.502 2.602s-1.974 1.39-2.271 1.311c-2.517-0.03-3.869 0.665-4.58 1.547-0.301 0.703-0.537 1.44-0.721 2.197-5e-3 0.761 0.162 1.352 0.162 1.352 7.06 6.356 14.12 9.1 21.18 13.643 0.445-0.295 0.869-0.616 1.275-0.959 0.023-0.02 0.045-0.041 0.068-0.061 0.36-0.308 0.703-0.636 1.029-0.979 0.072-0.076 0.14-0.155 0.211-0.232 0.283-0.31 0.553-0.632 0.807-0.967 0.057-0.076 0.114-0.152 0.17-0.229 0.275-0.38 0.535-0.772 0.771-1.18 0.018-0.03 0.037-0.059 0.055-0.09 1.065-1.864 1.714-3.999 1.824-6.281 0-6e-3 2e-3 -0.013 2e-3 -0.02v-2e-3l-1.824-7.637c-2-3.488-5.452-6.02-9.549-6.783" style="fill-rule:evenodd;fill:url(#d);opacity:.2"/>
<path transform="matrix(1.3196 0 0 1.3196 3.2953 -2.2459)" d="m15.807 2.01c-1.072 0.015-2.111 0.154-3.111 0.395-0.263 0.236-0.652 0.356-1.088 0.344-0.156 0.149-0.12 0.428-0.205 0.633-0.072 0.172-0.324 0.356-0.496 0.342-0.127-0.011-0.273-0.19-0.273-0.309 0-0.143 0.199-0.223 0.09-0.383-1.114 0.452-2.151 1.047-3.1 1.756 0.254-0.094 0.535-0.251 0.766-0.256 0.038 0 0.073 3e-3 0.107 0.012 0.155 0.041 0.563 0.488 0.223 0.633-0.032 0.014-0.499 0.065-0.58 0.051-0.119-0.02-0.189-0.184-0.309-0.205-0.201-0.035-0.456 0.174-0.629 0.08-1.908 1.54-3.388 3.575-4.275 5.91 0.081-0.047 0.165-0.096 0.238-0.135 0.25-0.13 0.461-0.34 0.752-0.359 0.145-3e-3 0.355 0.039 0.494 0.068 0.129 0.026 0.232 0.113 0.344 0.121 0.316 0.024 0.391-0.222 0.648-0.359 0.266 0.038 0.443-0.045 0.684-0.018 0.164 0.018 0.282 0.193 0.41 0.203 0.107 0.011 0.203-0.1 0.307-0.084 0.101 0.016 0.275 0.236 0.291 0.359 0.021 0.154-0.112 0.292-0.068 0.461 0.161 0.164 0.454 0.197 0.684 0.291 0.15-0.123 0.02-0.353 0-0.531-3e-3 -0.079 0.011-0.148 0-0.221-0.014-0.123-0.068-0.236-0.068-0.342-3e-3 -0.486 0.392-0.714 0.719-0.906 0.141-0.084 0.252-0.23 0.375-0.291 0.173-0.087 0.302-0.107 0.445-0.188 0.259-0.145 0.481-0.263 0.684-0.428 0.094-0.221 0.01-0.516 0.018-0.734 0.094-0.057 0.174 0.026 0.273 0.018 0.156-0.033 0.169-0.254 0.258-0.342 0.052-0.051 0.192-0.087 0.256-0.137 0.156-0.122 0.206-0.307 0.342-0.359 0.049-0.02 0.161-0.014 0.238-0.035 0.101-0.027 0.245-0.147 0.41-0.203 0.107-0.037 0.354-0.045 0.395-0.086 0.05-0.051 0-0.196 0.018-0.273 0.083-0.386 0.664-0.468 1.01-0.598 0.241-0.091 0.487-0.258 0.752-0.207-0.052 0.183-0.298 0.119-0.256 0.342 0.058 0.309 0.471-0.089 0.58-0.135 0.209-0.088 0.566-0.141 0.84-0.24 0.24-0.088 0.67-0.222 0.443-0.496-0.189-0.011-0.279 0.221-0.443 0.291-0.114 0.018-0.093-0.094-0.189-0.104-0.092-0.011-0.144 0.084-0.238 0.068s-0.226-0.163-0.24-0.273c-0.037-0.285 0.241-0.402 0.359-0.615-0.078-0.258-0.435-0.053-0.65-0.154 0.021-0.154 0.18-0.26 0.359-0.289 0.147-0.025 0.477-0.012 0.564 0.066 0.051 0.043 4e-3 0.151 0.086 0.223 0.087 0.079 0.194 0.071 0.307 0.053 0.041-0.195-0.253-0.147-0.221-0.275 0.231-0.151 0.606-0.026 0.889-0.068 0.163-0.024 0.334-0.14 0.479-0.221 0.137-0.078 0.315-0.214 0.461-0.086 0.04 0.14-0.127 0.186-0.205 0.256-0.262 0.233-0.531 0.499-0.734 0.77 0.125 0.122 0.351 0.061 0.563 0.086 0.082 0.011 0.186 0.035 0.273 0.051 0.102 0.018 0.211 0.013 0.291 0.033 0.144 0.035 0.182 0.189 0.324 0.189 0.234 0 0.236-0.254 0.104-0.412 0.042-0.161 0.107-0.244 0.051-0.357-0.105-0.211-0.492-0.011-0.512-0.273-0.013-0.17 0.143-0.164 0.205-0.291-0.028-0.329 0.27-0.353 0.238-0.648-0.014-0.123-0.119-0.125-0.205-0.24-0.045-0.059-0.065-0.177-0.119-0.223-0.179-0.151-0.542-0.122-0.564-0.41-3e-3 -0.098 0.011-0.185 0.02-0.277-0.165-8e-3 -0.328-0.023-0.494-0.025zm-6.66 3.354c0.08 0.011 0.177 0.096 0.273 0.104 0.091 3e-3 0.167-0.05 0.223-0.035 0.143 0.038 0.203 0.254 0.068 0.359-0.112 0.014-0.156-0.048-0.24-0.033-0.232 0.04-0.321 0.494-0.494 0.479-0.164-0.014-0.252-0.413-0.086-0.531 0.011-0.104-0.076-0.12-0.07-0.223 0.049-0.063 0.19-0.131 0.326-0.119m-0.77 0.053c0.048 2e-3 0.083 0.013 0.102 0.033-0.023 0.182-0.166 0.171-0.307 0.256-0.243 0.147-0.384 0.37-0.461 0.684-0.022 0.091-0.261 0.333-0.377 0.309-0.271-0.057 0.075-0.557 0.137-0.633 0.068-0.084 0.16-0.159 0.24-0.256 0.078-0.094 0.13-0.221 0.205-0.273 0.082-0.057 0.318-0.125 0.461-0.119m2.023 0.615c0.087 2e-3 0.164 0.016 0.199 0.051-0.056 0.226-0.541 0.166-0.719 0.084 0.012-0.085 0.144-0.108 0.256-0.119 0.079-3e-3 0.177-0.018 0.264-0.016m-1.107 0.416c0.058-2e-3 0.117 0.011 0.178 0.027-0.157 0.132-0.328 0.206-0.598 0.291-0.13 0.041-0.355 0.092-0.377-0.053-0.027-0.178 0.19-0.136 0.309-0.152 0.149-0.021 0.313-0.108 0.488-0.113m17.17 0.254c0.013 0.128 0.015 0.25-0.02 0.389-0.047 0.185-0.213 0.353-0.205 0.514 0.011 0.082 0.101 0.162 0.121 0.273 0.011 0.059-0.028 0.186 0 0.24 0.087 0.168 0.324 0.026 0.479 0.051 0.151 0.024 0.326 0.241 0.324 0.41-2e-3 0.118-0.113 0.314-0.188 0.428-0.149 0.227-0.351 0.237-0.564 0.357-0.178 0.101-0.255 0.27-0.359 0.445-0.113 0.19-0.183 0.305-0.137 0.58-0.153 0.303-0.385 0.489-0.701 0.633-0.094 0.042-0.221 0.057-0.307 0.119-0.068 0.049-0.108 0.182-0.205 0.291-0.12 0.133-0.246 0.189-0.309 0.291-0.049 0.079-0.065 0.236-0.119 0.342-0.073 0.144-0.228 0.214-0.324 0.359-0.044 0.067-0.073 0.203-0.121 0.291-0.108 0.197-0.293 0.339-0.273 0.512 0.02 0.167 0.21 0.196 0.223 0.342 3e-3 0.082-0.054 0.133-0.051 0.223 3e-3 0.131 0.091 0.223 0.102 0.324 0.026 0.254-0.087 0.356-0.135 0.529-0.023 0.083-0.013 0.175-0.035 0.24-0.042 0.127-0.219 0.242-0.223 0.393-2e-3 0.107 0.11 0.192 0.119 0.342 3e-3 0.103-0.051 0.214-0.033 0.309 0.036 0.186 0.369 0.402 0.514 0.547 0.193 0.193 0.446 0.343 0.529 0.547 0.07 0.173 0.07 0.399 0.205 0.529 0.1 0.096 0.265 0.156 0.393 0.256 0.119 0.093 0.25 0.174 0.377 0.273 0.208 0.163 0.522 0.488 0.854 0.463 0.173-0.013 0.351-0.155 0.547-0.189 0.202-0.036 0.464-0.054 0.668-0.033 0.156 0.016 0.316 0.109 0.479 0.102 0.171-0.011 0.368-0.138 0.563-0.223 0.308-0.134 0.755-0.3 1.205-0.275 0.086-0.63 0.146-1.269 0.146-1.924 0-2.649-0.741-5.113-2.01-7.221-0.059-4e-3 -0.113-0.012-0.178-0.01-0.173 0.011-0.458 0.011-0.461-0.205-2e-3 -0.177 0.167-0.216 0.369-0.229-0.378-0.578-0.801-1.121-1.258-1.635m-21.369 6.414c-0.284 0.016-0.469 0.029-0.631 0.102-0.37 0.168-0.298 0.669-0.668 0.787-0.128 0.041-0.303 0.042-0.443 0.068-0.121 0.022-0.269 0.089-0.395 0.086-0.148-3e-3 -0.406-0.146-0.494-0.24-0.061-0.066-0.16-0.295-0.225-0.447-0.089 0.492-0.151 0.993-0.188 1.502 0.03 6e-3 0.062 0.014 0.088 0.014 0.162 1e-3 0.335-0.167 0.514-0.172 0.419-0.012 0.601 0.533 0.939 0.701 0.085 0.042 0.197 0.044 0.307 0.068 0.088 0.02 0.155 0.057 0.24 0.086 0.181 0.061 0.402 0.055 0.547 0.119 0.218 0.097 0.377 0.506 0.564 0.615 0.011 0.11-0.02 0.259 0.018 0.342 0.088 0.12 0.214 0.094 0.359 0.172 0.174 0.094 0.227 0.336 0.393 0.41 0.057 0.025 0.201 0.023 0.291 0.051 0.227 0.069 0.3 0.331 0.494 0.273 0.127-0.038 0.118-0.169 0.139-0.291 0.084-0.091 0.175-0.236 0.307-0.238 0.212-0.011 0.231 0.22 0.309 0.426 0.044 0.117 0.158 0.219 0.188 0.342 0.053 0.212 0.027 0.848-0.018 0.975-0.053 0.156-0.265 0.222-0.395 0.395-0.061 0.081-0.09 0.199-0.137 0.256-0.084 0.102-0.209 0.129-0.271 0.223-0.035 0.053-0.069 0.167-0.104 0.238-0.103 0.218-0.241 0.372-0.154 0.633 0.036 0.107 0.205 0.18 0.205 0.307 0 0.149-0.317 0.282-0.342 0.445-0.018 0.121 0.098 0.338 0.137 0.496 0.028 0.119 0.254 0.194 0.324 0.273 0.12 0.135 0.217 0.325 0.326 0.494 0.217 0.333 0.387 0.738 0.598 1.061 0.112 0.169 0.267 0.321 0.342 0.496 0.038 0.088 0.033 0.194 0.068 0.273 0.122 0.276 0.661 0.564 0.939 0.701 0.13 0.063 0.275 0.086 0.395 0.152 0.181 0.101 0.539 0.372 0.631 0.531 0.082 0.143 0.132 0.49 0.172 0.717 0.053 0.3 2e-3 0.531 0.018 0.855 0.011 0.176 0.066 0.353 0.068 0.529 1e-3 0.062-0.032 0.107-0.035 0.17-3e-3 0.213 0.053 0.453 0.035 0.668-1e-3 0.046-6e-3 0.081-0.014 0.121 1.678 0.708 3.524 1.1 5.465 1.1 0.203 0 0.401-0.023 0.602-0.031 5e-3 -0.032 9e-3 -0.064 0.016-0.09 0.062-0.173 0.221-0.231 0.324-0.359 0.078-0.097 0.114-0.21 0.188-0.307 0.08-0.105 0.152-0.198 0.205-0.291 0.05-0.312-0.124-0.53-0.051-0.803 0.082-0.307 0.505-0.494 0.803-0.633 0.102-0.047 0.208-0.125 0.291-0.154 0.206-0.072 0.462-0.033 0.65-0.102 0.32-0.117 0.354-0.46 0.512-0.752 0.075-0.138 0.173-0.277 0.188-0.375 0.013-0.088-0.032-0.171-0.018-0.275 0.016-0.103 0.108-0.193 0.137-0.307 0.038-0.148 0.053-0.364 0.053-0.529 0-0.135-0.063-0.255-0.068-0.377-0.022-0.443 0.16-0.493 0.324-0.734 0.082-0.12 0.112-0.256 0.17-0.342 0.275-0.411 0.753-0.609 0.719-1.23-0.012-0.206-0.14-0.671-0.291-0.736-0.087-0.038-0.285-3e-3 -0.41-0.051-0.404-0.151-0.642-0.652-1.061-0.684-0.089-0.011-0.171 0.037-0.271 0.035-0.166-0.011-0.416-0.116-0.6-0.137-0.117-0.013-0.272 0.035-0.342 0-0.107-0.052-0.118-0.248-0.205-0.307-0.069-0.047-0.202-0.063-0.307-0.104-0.168-0.065-0.302-0.141-0.496-0.154-0.06-3e-3 -0.135 0.029-0.205 0.018-0.107-0.018-0.192-0.145-0.291-0.205-0.124-0.076-0.24-0.113-0.291-0.221 0.112-0.368-0.198-0.471-0.273-0.684-0.036-0.1-0.019-0.22-0.051-0.309-0.044-0.127-0.171-0.2-0.309-0.307-0.247-0.19-0.467-0.369-0.82-0.412-0.155-0.02-0.308 0.047-0.496 0.035-0.199-0.013-0.449-0.187-0.598-0.357-0.145-0.166-0.216-0.315-0.342-0.395-0.119-0.077-0.278-0.075-0.359-0.152-0.036-0.034-0.03-0.092-0.068-0.172-0.06-0.124-0.161-0.193-0.086-0.342-0.136-0.07-0.14 0.129-0.289 0.104-0.133-0.189-0.245-0.278-0.547-0.223-0.138 0.026-0.216 0.201-0.377 0.205-0.132 0.011-0.236-0.147-0.41-0.172-0.132-0.018-0.281 0.035-0.375 0.018-0.146-0.029-0.191-0.151-0.324-0.238-0.098-0.064-0.287-0.174-0.342-0.172-0.172 0.011-0.294 0.366-0.531 0.24-0.115-0.146 0.187-0.223 0.051-0.359-0.104-0.104-0.191 0.046-0.273 0.104-0.095 0.066-0.184 0.131-0.289 0.17-0.235 0.088-0.381 0.042-0.564 0.137-0.17 0.088-0.177 0.235-0.273 0.41-0.079 0.143-0.259 0.351-0.377 0.359-0.143 0.011-0.28-0.2-0.41-0.256-0.391-0.17-0.581 0.15-0.906 0.154-0.302 0.011-0.732-0.486-0.717-0.77 3e-3 -0.173 0.099-0.436 0.119-0.65 0.018-0.17 0.135-0.272 0.137-0.428 3e-3 -0.208-0.275-0.368-0.41-0.393-0.319-0.059-0.763 0.129-1.129-0.018-0.07-0.116 0.082-0.196 0.121-0.309 0.022-0.064 0.01-0.15 0.033-0.221 0.041-0.109 0.154-0.193 0.205-0.309 0.038-0.088 0.048-0.215 0.086-0.324 0.045-0.124 0.127-0.204 0.137-0.291 0.013-0.115-0.031-0.248-0.121-0.324m4.57 3.619c0.116 0.011 0.13 0.25 0.012 0.27-0.128 0.02-0.192-0.2-0.068-0.258 0.021-0.011 0.04-0.013 0.057-0.012" style="fill:url(#c-6)"/>
<rect x="5.4068" y="45.297" width="38" height="2" style="fill:url(#linearGradient4784-5);stroke-linecap:round;stroke-linejoin:round;stroke-width:2"/>
</g>
<path transform="matrix(.5 0 0 .5 .066304 .016549)" d="m4.7043 3.9815-0.012938 56.82h53.904l1.0222-2.8664s-23.875 0.76639-32.844-4.1404c-10.516-5.7529-15.372-49.697-15.372-49.697z" style="fill:url(#linearGradient3403);mix-blend-mode:normal;stroke-linejoin:round;stroke-width:1.1624;stroke:url(#linearGradient20558)"/>
<rect transform="matrix(.46839 0 0 .46744 .90638 1.0269)" x="1.0324" y=".59551" width="62.567" height="62.867" rx="5.803" ry="6.2447" style="fill:none;stroke-linejoin:round;stroke-miterlimit:7.8;stroke-opacity:.99515;stroke-width:3.7137;stroke:url(#linearGradient4557)"/>
</svg>
