<svg width="32" height="32" version="1.1" viewBox="0 0 32 32" xmlns="http://www.w3.org/2000/svg" xmlns:xlink="http://www.w3.org/1999/xlink">
<defs>
<linearGradient id="linearGradient3403" x1="6.9492" x2="11.215" y1="4.5549" y2="59.052" gradientUnits="userSpaceOnUse">
<stop style="stop-color:#32373c" offset="0"/>
<stop style="stop-color:#1a1a1a" offset=".36805"/>
<stop style="stop-color:#31363b" offset="1"/>
</linearGradient>
<linearGradient id="linearGradient20558" x1="25.802" x2="25.111" y1="20.374" y2="58.913" gradientUnits="userSpaceOnUse">
<stop style="stop-color:#3d3d3d" offset="0"/>
<stop offset=".61772"/>
<stop style="stop-color:#3d3d3d" offset="1"/>
</linearGradient>
<linearGradient id="linearGradient4557" x1="43.5" x2="44.142" y1="64.012" y2=".30621" gradientTransform="translate(.36068 -.13017)" gradientUnits="userSpaceOnUse">
<stop style="stop-color:#141618" offset="0"/>
<stop style="stop-color:#686868" offset=".51821"/>
<stop style="stop-color:#31363b" offset="1"/>
</linearGradient>
</defs>
<g transform="scale(.665)" style="fill:#d9d9d9">
<path d="m17.07 3.0566-13.293-0.035646s0.021252 13.747 0.021262 14.258c0 11.272-0.011334 24.095-0.011334 26.544h28.592c0.50478 3.38e-4 12.744-4.5e-4 13.265-4.5e-4l5e-3 -12.187v-25.594c-3.8e-5 -0.3768-0.0071-1.7721-7e-3 -2.9845z" style="fill:#d9d9d9;stroke-width:1.0183"/>
</g>
<g transform="matrix(.665 0 0 .665 3.0354 -.78274)">
<ellipse transform="matrix(-.85217 -.52326 -.42093 .90709 0 0)" cx="-47.282" cy="7.596" rx="3.68" ry="5.856" style="opacity:.2"/>
<ellipse transform="matrix(.85217 -.52326 .42093 .90709 0 0)" cx="-3.467" cy="32.871" rx="3.68" ry="5.856" style="opacity:.2"/>
<path d="m12 20.247v9.157c-0.74176 1.3944-2 3.2929-2 5.8856 0 5.363 6.2679 9.7104 14 9.7104s14-4.3474 14-9.7104c0-2.3784-1.2583-4.1727-2-5.5303v-9.5123l-12-4.49z" style="opacity:.2"/>
<path d="m40 19c0 8.8366-7.1634 16-16 16s-16-7.1634-16-16 9.6881-16 16-16 16 7.1634 16 16z" style="fill:#ea2028"/>
<ellipse transform="matrix(-.85217 -.52326 -.42093 .90709 0 0)" cx="-46.858" cy="6.738" rx="3.68" ry="5.856" style="fill:#e5b493"/>
<path d="m38.67 25.976c0.68518 0.0012 1.2857 0.53097 1.4687 1.2955-0.4708-0.36388-0.81333-0.69184-1.5094-0.69258-0.32394 3.26e-4 -0.96605 0.16601-1.2656 0.25349 0.27576-0.53083 0.77141-0.85576 1.3064-0.85644z" style="opacity:.1"/>
<path d="m38.872 29.982c0.26602 0.63143 0.01229 1.391-0.62044 1.8575 0.15154-0.57541 0.32001-1.0187 0.0493-1.66-0.1266-0.29818-0.5295-0.82489-0.72686-1.0666 0.59634 0.04699 1.0888 0.37674 1.298 0.86913z" style="opacity:.1"/>
<path d="m37.776 20.731h-3.1756v12.182c2.0638-0.70598 3.2756-1.7681 3.4767-3.8069 0.09448-1.1511-0.55711-2.4995-0.61925-3.8235-0.09852-2.0992 0.1846-2.6328 0.31824-4.5514z" style="fill:#a84e37"/>
<ellipse transform="matrix(.85217 -.52326 .42093 .90709 0 0)" cx="-3.043" cy="32.013" rx="3.68" ry="5.856" style="fill:#e5b493"/>
<path d="m9.3068 25.976c-0.68518 0.0012-1.2857 0.53097-1.4687 1.2955 0.4708-0.36388 0.81333-0.69184 1.5094-0.69258 0.32394 3.26e-4 0.96605 0.16601 1.2656 0.25349-0.27576-0.53083-0.77141-0.85576-1.3064-0.85644z" style="opacity:.1"/>
<path d="m9.1046 29.982c-0.26602 0.63143-0.012293 1.391 0.62044 1.8575-0.15154-0.57541-0.32001-1.0187-0.049303-1.66 0.12659-0.29818 0.5295-0.82489 0.72686-1.0666-0.59634 0.04699-1.0888 0.37674-1.298 0.86913z" style="opacity:.1"/>
<path d="m10.31 20.731h3.1756v12.182c-2.0638-0.70598-3.2756-1.7681-3.4767-3.8069-0.09448-1.1511 0.55711-2.4995 0.61925-3.8235 0.09852-2.0992-0.1846-2.6328-0.31824-4.5514z" style="fill:#a84e37"/>
<path d="m12 19.247v9.157c-0.74176 1.3944-2 3.2929-2 5.8856 0 5.363 6.2679 9.7104 14 9.7104s14-4.3474 14-9.7104c0-2.3784-1.2583-4.1727-2-5.5303v-9.5123l-12-4.49z" style="fill:#f0c3a5"/>
<path d="m15 37.581c2.0197 1.8049 6.6853 2.8419 9.2784 2.8431 2.2392-0.001345 4.351-0.34953 5.7216-0.94336-1.5546 0.17016-3.2703 0.25911-5.0108 0.25976-2.5428-0.001117-5.892-0.74023-9.9892-2.1595zm5.7892 3.2434c-0.0425 0.06052-0.06422 0.12198-0.06487 0.18359 0.0022 0.54805 1.635 0.99205 3.6486 0.99219 2.0137-1.35e-4 3.6464-0.44413 3.6486-0.99219-5.42e-4 -0.05168-0.0159-0.10327-0.04594-0.1543-0.96246 0.16398-2.2117 0.25509-3.5081 0.25586-1.3765-5.39e-4 -2.697-0.10291-3.6784-0.28516z" style="opacity:.1;stroke-width:1.1764"/>
<path d="m33.937 30c-2.2833 2.0662-6.0691 3.3018-10.116 3.3017-3.9715-0.0037-7.6937-1.1976-9.9862-3.2032-0.49518 1.1237-0.64102 2.1607-0.83493 3.2344-6.7e-5 1.1586 0.92085 2.0979 2.0569 2.0979 0.33195-2.77e-4 0.65891-0.08248 0.95295-0.2396-0.01831 0.1103-0.02795 0.22192-0.02881 0.33378 1.97e-4 1.1584 0.92104 2.0974 2.0569 2.0974 0.77965-1e-3 1.4917-0.45148 1.839-1.1634-0.01295 0.09511-0.01977 0.19096-0.02044 0.28694 1.49e-4 1.2449 1.0144 2.254 2.2655 2.254 0.75324-2.66e-4 1.4571-0.373 1.878-0.99452 0.42093 0.62153 1.1248 0.99426 1.878 0.99452 1.2513 2.06e-4 2.2658-1.009 2.266-2.254-8.02e-4 -0.09615-0.0078-0.19216-0.02091-0.28743 0.34714 0.71208 1.0592 1.1627 1.839 1.1639 1.1359-1.8e-5 2.0567-0.93898 2.0569-2.0974-8.61e-4 -0.11187-0.01049-0.22348-0.02881-0.33378 0.29404 0.15712 0.62099 0.23933 0.95294 0.2396 1.136-1.7e-5 2.057-0.93928 2.0569-2.0979-0.25177-1.1535-0.65415-2.3181-1.0631-3.333z" style="fill:#5b4b53"/>
<ellipse cx="24" cy="10.5" rx="6" ry="4.5" style="fill:#fff"/>
<path d="m26.096 7.0293-2.1562 2.3652-2.041-2.2539-2.4102 5.1348 2.103 0.64421 0.65673-3.443 1.6895 1.8633 1.832-2.0098 1.0867 3.277 1.6554-0.66374z" style="fill:#ed475f"/>
<ellipse cx="18.5" cy="27" rx="3.5" ry="4" style="opacity:.2"/>
<ellipse cx="18.5" cy="26" rx="3.5" ry="4" style="fill:#fff"/>
<path d="m20.314 22.762a2.3151 3.119 0 0 0-2.3145 3.1191 2.3151 3.119 0 0 0 2.3145 3.1191 2.3151 3.119 0 0 0 0.59961-0.10742 3.5 4 0 0 0 1.0859-2.8926 3.5 4 0 0 0-1.4277-3.2168 2.3151 3.119 0 0 0-0.25781-0.021484z" style="fill:#2784cf"/>
<ellipse cx="20.25" cy="25.866" rx="1.25" ry="1.75" style="fill:#3f3f3f"/>
<path d="m18.502 21.939c-1.7936 5.3e-5 -3.631 1.4751-3.6308 3.7128 0.0013 0.17371 0.14372 0.73008 0.16286 0.90214 0.60321-1.4502 2.105-1.7102 3.5711-1.7117 1.2218 0.0019 2.6988-0.06531 3.3952 1.0242-0.05322-2.1878-1.7439-3.9261-3.4983-3.9274z" style="fill:#f0c3a5"/>
<path d="m18.775 20.731c-1.7936 0-3.267 1.0768-3.2668 3.3145 0.0013 0.17371 0.01159 0.34713 0.03075 0.5192 0.60321-1.4502 1.9327-2.3829 3.3988-2.3845 1.2218 0.0019 2.3655 0.65251 3.062 1.742-0.053216-2.1878-1.4703-3.1912-3.2247-3.1912z" style="fill:#5d4e55"/>
<path d="m29.753 17.336a3.2475 4.0515 0 0 1 3.2474 4.0518 3.2475 4.0515 0 0 1-0.03075 0.5192 3.7331 4.0515 0 0 0-3.3988-2.3845 3.7331 4.0515 0 0 0-3.062 1.742 3.2475 4.0515 0 0 1 3.2441-3.9286z" style="fill:#5d4e55"/>
<ellipse transform="scale(-1,1)" cx="-29.5" cy="27" rx="3.5" ry="4" style="opacity:.2"/>
<ellipse transform="scale(-1,1)" cx="-29.5" cy="26" rx="3.5" ry="4" style="fill:#fff"/>
<path d="m24 14.957c-5.5098 0.09121-11.271 1.2889-13.599 6.0273-0.46262 0.94163-0.67967 2.088 0.22262 2.5566 0.82935 0.39687 1.1951-0.0987 1.7733-0.61719 3.4492-2.993 7.0095-4.5742 11.604-4.5742s8.1544 1.5812 11.604 4.5742c0.57819 0.51849 0.9439 1.0141 1.7733 0.61719 0.90229-0.46862 0.68524-1.615 0.22262-2.5566-2.328-4.7385-8.0897-5.9361-13.599-6.0273z" style="opacity:.1"/>
<path d="m27.686 22.762a2.3151 3.119 0 0 1 2.3145 3.1191 2.3151 3.119 0 0 1-2.3145 3.1191 2.3151 3.119 0 0 1-0.59961-0.10742 3.5 4 0 0 1-1.0859-2.8926 3.5 4 0 0 1 1.4277-3.2168 2.3151 3.119 0 0 1 0.25781-0.02148z" style="fill:#2784cf"/>
<ellipse transform="scale(-1,1)" cx="-27.75" cy="25.866" rx="1.25" ry="1.75" style="fill:#3f3f3f"/>
<ellipse cx="24" cy="32" rx="6" ry="5" style="opacity:.1"/>
<ellipse cx="24" cy="31" rx="6" ry="5" style="fill:#ffd0ae"/>
<path d="m24 13.957c-5.5098 0.09121-11.271 1.2889-13.599 6.0273-0.46262 0.94163-0.67967 2.088 0.22262 2.5566 0.82935 0.39687 1.1951-0.0987 1.7733-0.61719 3.4492-2.993 7.0095-4.5742 11.604-4.5742s8.1544 1.5812 11.604 4.5742c0.57819 0.51849 0.9439 1.0141 1.7733 0.61719 0.90229-0.46862 0.68524-1.615 0.22262-2.5566-2.328-4.7385-8.0897-5.9361-13.599-6.0273z" style="fill:#ff3137"/>
<path d="m24 13.957c-5.5098 0.09121-11.272 1.2889-13.6 6.0273-0.31017 0.63132-0.50011 1.351-0.32617 1.9004 0.0704-0.30268 0.18388-0.61078 0.32617-0.90039 2.328-4.7385 8.0898-5.9361 13.6-6.0273 5.5098 0.09121 11.272 1.2889 13.6 6.0273 0.14229 0.28962 0.25577 0.59771 0.32617 0.90039 0.17394-0.54943-0.01601-1.2691-0.32617-1.9004-2.328-4.7385-8.0898-5.9361-13.6-6.0273z" style="fill:#fff;opacity:.2"/>
<path d="m24 3c-6.3119 0-16 7.1634-16 16 0 0.13444 0.016234 0.26479 0.019531 0.39844 0.4252-8.5576 9.8125-15.398 15.98-15.398s15.555 6.8408 15.98 15.398c0.003297-0.13365 0.019531-0.264 0.019531-0.39844 0-8.8366-9.6881-16-16-16z" style="fill:#fff;opacity:.2"/>
<path d="m 24,26 a 6,5 0 0 0 -6,5 6,5 0 0 0 0.0332,0.476562 A 6,5 0 0 1 24,27 6,5 0 0 1 29.966797,31.523438 6,5 0 0 0 30,31 6,5 0 0 0 24,26 Z" style="fill:#fff;opacity:.2"/>
</g>
<path transform="matrix(.5 0 0 .5 .066304 .016549)" d="m4.7043 3.9815-0.012938 56.82h53.904l1.0222-2.8664s-23.875 0.76639-32.844-4.1404c-10.516-5.7529-15.372-49.697-15.372-49.697z" style="fill:url(#linearGradient3403);mix-blend-mode:normal;stroke-linejoin:round;stroke-width:1.1624;stroke:url(#linearGradient20558)"/>
<rect transform="matrix(.46839 0 0 .46744 .90638 1.0269)" x="1.0324" y=".59551" width="62.567" height="62.867" rx="5.803" ry="6.2447" style="fill:none;stroke-linejoin:round;stroke-miterlimit:7.8;stroke-opacity:.99515;stroke-width:3.7137;stroke:url(#linearGradient4557)"/>
</svg>
