<?xml version="1.0" encoding="UTF-8" standalone="no"?>
<!-- Created with Inkscape (http://www.inkscape.org/) -->

<svg
   width="32"
   height="32"
   version="1.1"
   viewBox="0 0 32 32"
   id="svg22"
   xmlns:xlink="http://www.w3.org/1999/xlink"
   xmlns="http://www.w3.org/2000/svg"
   xmlns:svg="http://www.w3.org/2000/svg">
  <defs
     id="defs12">
    <linearGradient
       xlink:href="#linearGradient3487"
       id="linearGradient3403"
       gradientUnits="userSpaceOnUse"
       x1="6.9491749"
       y1="4.5549412"
       x2="11.215498"
       y2="59.052471" />
    <linearGradient
       id="linearGradient3487">
      <stop
         style="stop-color:#32373c;stop-opacity:1"
         offset="0"
         id="stop3481" />
      <stop
         id="stop3483"
         offset="0.36804965"
         style="stop-color:#1a1a1a;stop-opacity:1" />
      <stop
         style="stop-color:#31363b;stop-opacity:1"
         offset="1"
         id="stop3485" />
    </linearGradient>
    <linearGradient
       xlink:href="#linearGradient20604"
       id="linearGradient20558"
       gradientUnits="userSpaceOnUse"
       x1="25.802212"
       y1="20.373846"
       x2="25.111048"
       y2="58.912758" />
    <linearGradient
       id="linearGradient20604">
      <stop
         id="stop20598"
         offset="0"
         style="stop-color:#3d3d3d;stop-opacity:1" />
      <stop
         style="stop-color:#000000;stop-opacity:1"
         offset="0.61772454"
         id="stop20600" />
      <stop
         id="stop20602"
         offset="1"
         style="stop-color:#3d3d3d;stop-opacity:1" />
    </linearGradient>
    <filter
       style="color-interpolation-filters:sRGB"
       id="filter20720"
       x="-0.017024755"
       y="-0.016457183"
       width="1.0340491"
       height="1.0329144">
      <feGaussianBlur
         stdDeviation="0.14745661"
         id="feGaussianBlur20722" />
    </filter>
    <linearGradient
       gradientTransform="translate(0.36067797,-0.13016949)"
       xlink:href="#linearGradient4555"
       id="linearGradient4557"
       x1="43.499737"
       y1="64.011795"
       x2="44.141731"
       y2="0.30621234"
       gradientUnits="userSpaceOnUse" />
    <linearGradient
       id="linearGradient4555">
      <stop
         style="stop-color:#141618;stop-opacity:1"
         offset="0"
         id="stop4551" />
      <stop
         id="stop4559"
         offset="0.51820582"
         style="stop-color:#686868;stop-opacity:1" />
      <stop
         style="stop-color:#31363b;stop-opacity:1"
         offset="1"
         id="stop4553" />
    </linearGradient>
    <filter
       style="color-interpolation-filters:sRGB"
       id="filter4601"
       x="-0.030244955"
       width="1.0604899"
       y="-0.030100647"
       height="1.0602013">
      <feGaussianBlur
         stdDeviation="0.014790289"
         id="feGaussianBlur4603" />
    </filter>
  </defs>
  <rect
     x="2.7660921"
     y="1.6861579"
     width="27.843826"
     height="27.843826"
     rx="1.2514085"
     ry="1.166328"
     stroke-width="1.87921"
     id="rect24"
     style="display:inline;fill:#7694f3;fill-opacity:1" />
  <path
     id="rect4128-3-3-8-7-3-7"
     style="display:inline;fill:#343434;fill-opacity:0.17307;stroke-width:0.966471;stroke-linecap:round;stroke-linejoin:round"
     d="m 27.468916,4.7524121 c -3.095946,0 -12.080913,0.014287 -12.562265,0.014287 -0.583278,0 -0.967627,0.4215067 -0.967627,1.0247753 V 8.6164257 9.5827538 19.03043 c -0.513195,-0.460974 -1.185415,-0.749424 -1.932657,-0.749424 -1.3408,0 -2.4617271,0.903018 -2.7963764,2.135273 h 2.1846284 v -1.018281 c -1.25e-4,-0.13683 0.124108,-0.24925 0.281846,-0.25457 0.06914,-0.0021 0.136231,0.01655 0.190928,0.05325 l 2.645713,1.78329 c 0.151131,0.101985 0.151131,0.299354 0,0.401338 L 11.867393,23.1646 c -0.192882,0.129329 -0.472082,0.01134 -0.472774,-0.200019 V 21.945 H 9.2099906 c 0.3342416,1.232583 1.4551354,2.135274 2.7963764,2.135274 1.606254,0 2.898985,-1.292715 2.898985,-2.898985 V 7.8202444 c 0,-0.3065537 0.270557,-0.5065431 0.603955,-0.5065431 h 11.395918 c 0,0 0.563691,0.1913404 0.563691,0.5065431 v 8.3112016 c -0.513194,-0.460974 -1.185415,-0.749425 -1.932656,-0.749425 -1.606272,0 -2.898984,1.292731 -2.898984,2.898985 0,1.606271 1.292712,2.900283 2.898984,2.900283 1.354564,0 2.482706,-0.92141 2.80417,-2.17294 h -2.192422 v 1.018282 c -6.65e-4,0.211363 -0.28119,0.330648 -0.474072,0.201318 l -2.645713,-1.783291 c -0.151132,-0.101984 -0.151132,-0.300652 0,-0.402637 l 2.645713,-1.78329 c 0.0547,-0.03671 0.123088,-0.05538 0.192226,-0.05325 0.157738,0.0053 0.28197,0.11774 0.281846,0.25457 v 1.01958 h 2.287236 V 5.7914746 c 0,-0.5852998 -0.475566,-1.0390625 -0.966328,-1.0390625 z" />
  <path
     id="rect4128-3-3-8-7-3-7-0"
     style="display:inline;fill:#f4f4f4;fill-opacity:1;stroke-width:0.966471;stroke-linecap:round;stroke-linejoin:round"
     d="m 27.468916,4.3510762 c -3.095946,0 -12.080913,0.014284 -12.562265,0.014284 -0.583278,0 -0.967627,0.4215069 -0.967627,1.0247757 v 2.8249514 0.9663281 9.4476766 c -0.513195,-0.460974 -1.185415,-0.749424 -1.932657,-0.749424 -1.3408,0 -2.4617278,0.903018 -2.7963771,2.135273 H 11.394619 V 18.99666 c -1.25e-4,-0.136831 0.124108,-0.249251 0.281846,-0.254571 0.06914,-0.0021 0.136231,0.01655 0.190928,0.05325 l 2.645713,1.78329 c 0.151131,0.101984 0.151131,0.299353 0,0.401338 l -2.645713,1.78329 c -0.192882,0.129329 -0.472082,0.01134 -0.472774,-0.200019 V 21.543664 H 9.2099899 c 0.3342417,1.232583 1.4551361,2.135274 2.7963771,2.135274 1.606254,0 2.898985,-1.292714 2.898985,-2.898985 V 7.4189089 c 0,-0.3065536 0.270557,-0.5065431 0.603955,-0.5065431 h 11.395918 c 0,0 0.563691,0.1913405 0.563691,0.5065431 V 15.73011 c -0.513194,-0.460974 -1.185415,-0.749424 -1.932656,-0.749424 -1.606272,0 -2.898984,1.292731 -2.898984,2.898984 0,1.606271 1.292712,2.900284 2.898984,2.900284 1.354564,0 2.482706,-0.921411 2.80417,-2.17294 h -2.192422 v 1.018281 c -6.65e-4,0.211364 -0.28119,0.330648 -0.474072,0.201319 l -2.645713,-1.783291 c -0.151132,-0.101985 -0.151132,-0.300653 0,-0.402637 l 2.645713,-1.783291 c 0.0547,-0.03671 0.123088,-0.05538 0.192226,-0.05325 0.157738,0.0053 0.28197,0.11774 0.281846,0.25457 v 1.01958 h 2.287236 V 5.3901387 c 0,-0.5852997 -0.475566,-1.0390625 -0.966328,-1.0390625 z" />
  <path
     style="display:inline;mix-blend-mode:normal;fill:url(#linearGradient3403);fill-opacity:1;stroke:url(#linearGradient20558);stroke-width:1.16242;stroke-linecap:butt;stroke-linejoin:round;stroke-miterlimit:4;stroke-dasharray:none;stroke-opacity:1;filter:url(#filter20720)"
     d="M 4.7043071,3.9814882 4.6913695,60.80196 H 58.59546 l 1.022155,-2.866369 c 0,0 -23.87537,0.766388 -32.844441,-4.140386 C 16.257548,48.042344 11.401114,4.0978197 11.401114,4.0978197 Z"
     id="path1686"
     transform="matrix(0.5,0,0,0.5,0.06630362,0.01654936)" />
  <rect
     style="display:inline;fill:none;fill-opacity:1;stroke:url(#linearGradient4557);stroke-width:3.71366;stroke-linejoin:round;stroke-miterlimit:7.8;stroke-dasharray:none;stroke-opacity:0.995146;filter:url(#filter4601)"
     id="rect4539"
     width="62.566689"
     height="62.866646"
     x="1.0323594"
     y="0.59551275"
     ry="6.2447233"
     rx="5.8029528"
     transform="matrix(0.46839137,0,0,0.46743669,0.90638486,1.0268972)" />
</svg>
