<svg width="32" height="32" version="1.1" viewBox="0 0 32 32" xmlns="http://www.w3.org/2000/svg" xmlns:xlink="http://www.w3.org/1999/xlink">
<defs>
<linearGradient id="linearGradient3403" x1="6.9492" x2="11.215" y1="4.5549" y2="59.052" gradientUnits="userSpaceOnUse">
<stop style="stop-color:#32373c" offset="0"/>
<stop style="stop-color:#1a1a1a" offset=".36805"/>
<stop style="stop-color:#31363b" offset="1"/>
</linearGradient>
<linearGradient id="linearGradient20558" x1="25.802" x2="25.111" y1="20.374" y2="58.913" gradientUnits="userSpaceOnUse">
<stop style="stop-color:#3d3d3d" offset="0"/>
<stop offset=".61772"/>
<stop style="stop-color:#3d3d3d" offset="1"/>
</linearGradient>
<linearGradient id="linearGradient4557" x1="43.5" x2="44.142" y1="64.012" y2=".30621" gradientTransform="translate(.36068 -.13017)" gradientUnits="userSpaceOnUse">
<stop style="stop-color:#141618" offset="0"/>
<stop style="stop-color:#686868" offset=".51821"/>
<stop style="stop-color:#31363b" offset="1"/>
</linearGradient>
<linearGradient id="linearGradient4587-3" x1="11.087" x2="35.057" y1="53.86" y2="5.1285" gradientTransform="translate(.36135 -.1249)" gradientUnits="userSpaceOnUse">
<stop style="stop-color:#1d95eb" offset="0"/>
<stop style="stop-color:#06528c" offset="1"/>
</linearGradient>
<linearGradient id="linearGradient4373" x1="21.085" x2="35.969" y1="1037" y2="1049.4" gradientTransform="translate(5.9783 -17.513)" gradientUnits="userSpaceOnUse" xlink:href="#shadow-3"/>
<linearGradient id="shadow-3">
<stop style="stop-color:#31363b;stop-opacity:.208" offset="0"/>
<stop style="stop-color:#31363b;stop-opacity:0" offset="1"/>
</linearGradient>
<linearGradient id="linearGradient4199" x1="21.969" x2="35.969" y1="1035.4" y2="1049.4" gradientTransform="translate(10 -14)" gradientUnits="userSpaceOnUse" xlink:href="#shadow-3"/>
<linearGradient id="linearGradient4203" x1="23" x2="36" y1="1035.4" y2="1048.4" gradientTransform="translate(13 -1021.4)" gradientUnits="userSpaceOnUse" xlink:href="#shadow-3"/>
<linearGradient id="linearGradient4377" x1="21.085" x2="35.969" y1="1037" y2="1049.4" gradientTransform="translate(-6.3297 -4.8519)" gradientUnits="userSpaceOnUse" xlink:href="#shadow-3"/>
<linearGradient id="linearGradient4381" x1="21.969" x2="35.969" y1="1035.4" y2="1049.4" gradientTransform="translate(-2.8703 -1.1699)" gradientUnits="userSpaceOnUse" xlink:href="#shadow-3"/>
<linearGradient id="linearGradient4227" x1="21.475" x2="34.475" y1="1035.2" y2="1048.2" gradientTransform="translate(-15.75 -1005.9)" gradientUnits="userSpaceOnUse" xlink:href="#shadow-3"/>
</defs>
<g transform="matrix(.43833 0 0 .43833 2.2124 1.4887)">
<rect x="1.033" y=".60078" width="62.567" height="62.867" style="fill:url(#linearGradient4587-3)"/>
<g transform="matrix(1.33 0 0 1.33 6.0374 -1338.3)">
<path d="m26.586 1028 8.1046-0.4201 1.9103-6.7552-5.591-4.4419-6.8715 5.8329z" style="fill-rule:evenodd;fill:url(#linearGradient4373)"/>
<path d="m31.028 1028.4 3.9725-0.9946 1.9766-2.9766-4-4-4.949 4.9712z" style="fill-rule:evenodd;fill:url(#linearGradient4199)"/>
<path transform="translate(0 1004.4)" d="m35.924 13.33c1.2832 1.3459 2.0762 3.1636 2.0762 5.1699-1e-6 4.1421-3.3579 7.5-7.5 7.5-0.20344-0.0015-0.40673-0.01127-0.60938-0.0293l-5.8965 5.1113c-0.0083 0.73962-0.15335 1.4713-0.42774 2.1582-1.2371 3.0744-4.7324 4.5636-7.8066 3.3262-0.24293-0.09775-0.47079-0.21521-0.69336-0.33984-0.04331-0.0244-0.08621-0.04875-0.12891-0.07422-0.2114-0.12537-0.41437-0.26058-0.60547-0.4082-0.0063-0.0049-0.01326-0.0088-0.01953-0.01367l-0.01172 2e-3 8.1934 8.1934c0.50084 0.043566 1.0032 0.068371 1.5059 0.074175a20 20 0 0 0 1.3105-0.04687c0.06663-0.0043 0.13277-0.01066 0.19922-0.01563a20 20 0 0 0 1.8457-0.22266c0.03199-0.0054 0.06377-0.01202 0.0957-0.01758a20 20 0 0 0 1.3965-0.3125c0.24048-0.05998 0.48181-0.11695 0.71875-0.18555a20 20 0 0 0 1.2168-0.4043c0.2211-0.07984 0.44471-0.15485 0.66211-0.24219a20 20 0 0 0 1.1484-0.51367c0.21932-0.10469 0.44143-0.20405 0.65625-0.31641a20 20 0 0 0 1.0312-0.5918c0.2317-0.13938 0.46789-0.27154 0.69336-0.41992a20 20 0 0 0 0.95312-0.68555c0.20629-0.1538 0.41909-0.29948 0.61914-0.46094a20 20 0 0 0 0.9082-0.79688c0.19011-0.17331 0.38702-0.33909 0.57031-0.51953a20 20 0 0 0 0.83398-0.89258c0.16343-0.18171 0.33542-0.35534 0.49219-0.54297a20 20 0 0 0 0.86328-1.1367c0.10236-0.1419 0.21575-0.27527 0.31445-0.41992a20 20 0 0 0 3.3711-9.2578c6.3e-5 -6.43e-4 -6.4e-5 -0.0013 0-2e-3a20 20 0 0 0 0-0.0059 20 20 0 0 0 0.099609-1.9901 20 20 0 0 0-0.2207-2.8145z" style="fill-rule:evenodd;fill:url(#linearGradient4203)"/>
<path d="m15.316 1040.1 6.359-0.6411 1.3578-7.5507-6.6296-1.7681-3.8 4.5733z" style="fill-rule:evenodd;fill:url(#linearGradient4377)"/>
<path d="m16.985 1040.2 3.9725-0.4165 2.2109-3.4453-3.0625-3.1563-6.9334 3.9868z" style="fill-rule:evenodd;fill:url(#linearGradient4381)"/>
<path transform="translate(0 1004.4)" d="m5.7695 29.312 13.594 14.119a20 20 0 0 0 3.1309 0.49414l-8.1934-8.1934-2.002-4.9746z" style="fill-rule:evenodd;fill:url(#linearGradient4227)"/>
<path transform="translate(0 1004.4)" d="m30.5 11c-4.1421 0-7.5 3.3579-7.5 7.5 0.0017 0.20148 0.01143 0.40282 0.0293 0.60352-1.2896 1.5757-4.8054 5.547-5.1133 5.9023-2.4168 0.03284-4.5779 1.5126-5.4824 3.7539-1.2374 3.0742 0.2518 6.5695 3.3262 7.8066 3.0742 1.2374 6.5695-0.25181 7.8066-3.3262 0.27439-0.68689 0.4194-1.4186 0.42774-2.1582l5.8965-5.1113c0.20264 0.018027 0.40593 0.0278 0.60937 0.029297 4.1421 0 7.5-3.3579 7.5-7.5-1e-6 -4.1421-3.3579-7.5-7.5-7.5zm0 3c2.4853 0 4.5 2.0147 4.5 4.5-1e-6 2.4853-2.0147 4.5-4.5 4.5s-4.5-2.0147-4.5-4.5c1e-6 -2.4853 2.0147-4.5 4.5-4.5zm-12.453 13c0.49618 0.0058 0.98695 0.10377 1.4473 0.28906 2.0497 0.825 3.0423 3.1556 2.2168 5.2051-0.825 2.0497-3.1556 3.0422-5.2051 2.2168-2.0497-0.825-3.0423-3.1556-2.2168-5.2051 0.61606-1.5302 2.1083-2.5253 3.7578-2.5059z" style="fill:#fff"/>
<circle cx="30.5" cy="1022.9" r="3.5" style="fill:#fff"/>
<path transform="translate(0 1004.4)" d="m5.0723 22.564a19 19 0 0 0-0.072266 1.4355 19 19 0 0 0 0.76953 5.3125l11.111 4.4707a3 3 0 0 0 3.9023-1.6641 3 3 0 0 0-1.6641-3.9023z" style="fill:#fff"/>
</g>
</g>
<path transform="matrix(.5 0 0 .5 .066304 .016549)" d="m4.7043 3.9815-0.012938 56.82h53.904l1.0222-2.8664s-23.875 0.76639-32.844-4.1404c-10.516-5.7529-15.372-49.697-15.372-49.697z" style="fill:url(#linearGradient3403);mix-blend-mode:normal;stroke-linejoin:round;stroke-width:1.1624;stroke:url(#linearGradient20558)"/>
<rect transform="matrix(.46839 0 0 .46744 .90638 1.0269)" x="1.0324" y=".59551" width="62.567" height="62.867" rx="5.803" ry="6.2447" style="fill:none;stroke-linejoin:round;stroke-miterlimit:7.8;stroke-opacity:.99515;stroke-width:3.7137;stroke:url(#linearGradient4557)"/>
</svg>
