<svg width="32" height="32" version="1.1" viewBox="0 0 32 32" xmlns="http://www.w3.org/2000/svg" xmlns:xlink="http://www.w3.org/1999/xlink">
<defs>
<linearGradient id="linearGradient3403" x1="6.9492" x2="11.215" y1="4.5549" y2="59.052" gradientUnits="userSpaceOnUse">
<stop style="stop-color:#32373c" offset="0"/>
<stop style="stop-color:#1a1a1a" offset=".36805"/>
<stop style="stop-color:#31363b" offset="1"/>
</linearGradient>
<linearGradient id="linearGradient20558" x1="25.802" x2="25.111" y1="20.374" y2="58.913" gradientUnits="userSpaceOnUse">
<stop style="stop-color:#3d3d3d" offset="0"/>
<stop offset=".61772"/>
<stop style="stop-color:#3d3d3d" offset="1"/>
</linearGradient>
<linearGradient id="linearGradient4557" x1="43.5" x2="44.142" y1="64.012" y2=".30621" gradientTransform="translate(.36068 -.13017)" gradientUnits="userSpaceOnUse">
<stop style="stop-color:#141618" offset="0"/>
<stop style="stop-color:#686868" offset=".51821"/>
<stop style="stop-color:#31363b" offset="1"/>
</linearGradient>
</defs>
<rect x="2.7661" y="1.6862" width="27.844" height="27.844" rx="1.2514" ry="1.1663" stroke-width="1.8792" style="fill:#434c5e"/>
<g transform="matrix(.69917 0 0 .69917 -.9762 -.87036)">
<path d="m26.88 30.233h-8.0281c-3.3449 0-6.0206 2.7445-6.0206 6.1753 0 1.1664 0.86982 2.0586 2.0071 2.0586h16.056c1.1372 0 2.0071-0.89217 2.0071-2.0586 0-3.4304-2.6757-6.1753-6.0206-6.1753z" style="fill:#c0c5d9;stroke-width:.12099"/>
<path d="m22.866 28.175c3.3449 0 6.0206-2.7445 6.0206-6.1753v-2.0586c0-3.4309-2.6757-6.1753-6.0206-6.1753-3.3449 0-6.0206 2.7444-6.0206 6.1753v2.0586c0 3.4304 2.6757 6.1753 6.0206 6.1753z" style="fill:#c0c5d9;stroke-width:.12099"/>
<path d="m35.911 24.058c2.7429 0 5.0174-2.3328 5.0174-5.1463v-2.0586c0-2.8134-2.2744-5.1463-5.0174-5.1463-2.7429 0-5.0174 2.3329-5.0174 5.1463v2.0586c0 2.8134 2.2744 5.1463 5.0174 5.1463z" style="fill:#c0c5d9;stroke-width:.12099"/>
<path d="m38.922 26.116h-6.0206c-1.4051 0-2.6757 0.48054-3.6795 1.3038-0.40131 0.34318-0.26738 1.0291 0.20067 1.1664 2.2744 0.7548 4.0808 2.5387 4.8834 4.8721 0.20066 0.549 0.66917 0.89217 1.2712 0.89217h7.359c1.0705 0 2.0071-0.89217 2.0071-1.9897 0.06678-3.4314-2.6762-6.2448-6.0211-6.2448z" style="fill:#c0c5d9;stroke-width:.12099"/>
</g>
<path transform="matrix(.5 0 0 .5 .066304 .016549)" d="m4.7043 3.9815-0.012938 56.82h53.904l1.0222-2.8664s-23.875 0.76639-32.844-4.1404c-10.516-5.7529-15.372-49.697-15.372-49.697z" style="fill:url(#linearGradient3403);mix-blend-mode:normal;stroke-linejoin:round;stroke-width:1.1624;stroke:url(#linearGradient20558)"/>
<rect transform="matrix(.46839 0 0 .46744 .90638 1.0269)" x="1.0324" y=".59551" width="62.567" height="62.867" rx="5.803" ry="6.2447" style="fill:none;stroke-linejoin:round;stroke-miterlimit:7.8;stroke-opacity:.99515;stroke-width:3.7137;stroke:url(#linearGradient4557)"/>
<g transform="matrix(.532 0 0 .532 -22.471 -573.05)" style="fill:#434c5e;stroke-linecap:round;stroke-linejoin:round;stroke-width:2">
<path d="m67.754 1099.5a0.52304 0.45331 0 0 0-0.50213 0.4533v1.8132h-7.3226c-0.28976 0-0.52304 0.2022-0.52304 0.4533v1.8133c0 0.251 0.23328 0.4532 0.52304 0.4532h7.3226v1.8132a0.52304 0.45331 0 0 0 0.84314 0.3572l4.7074-3.173a0.52304 0.45331 0 0 0 0-0.7154l-4.7074-3.1731a0.52618 0.45603 0 0 0-0.34102-0.095z" style="fill:#434c5e;stroke-width:1.9477"/>
<path d="m90.03 1095.4a0.52304 0.45331 0 0 1 0.50213 0.4533v1.8132h7.3226c0.28976 0 0.52304 0.2022 0.52304 0.4533v1.8133c0 0.251-0.23328 0.4532-0.52304 0.4532h-7.3226v1.8132a0.52304 0.45331 0 0 1-0.84314 0.3572l-4.7074-3.173a0.52304 0.45331 0 0 1 0-0.7154l4.7074-3.1731a0.52618 0.45603 0 0 1 0.34102-0.095z" style="fill:#434c5e;stroke-linecap:round;stroke-linejoin:round;stroke-width:1.9477"/>
</g>
</svg>
