<svg width="32" height="32" version="1.1" viewBox="0 0 32 32" xmlns="http://www.w3.org/2000/svg" xmlns:xlink="http://www.w3.org/1999/xlink">
<defs>
<linearGradient id="linearGradient3403" x1="6.9492" x2="11.215" y1="4.5549" y2="59.052" gradientUnits="userSpaceOnUse">
<stop style="stop-color:#32373c" offset="0"/>
<stop style="stop-color:#1a1a1a" offset=".36805"/>
<stop style="stop-color:#31363b" offset="1"/>
</linearGradient>
<linearGradient id="linearGradient20558" x1="25.802" x2="25.111" y1="20.374" y2="58.913" gradientUnits="userSpaceOnUse">
<stop style="stop-color:#3d3d3d" offset="0"/>
<stop offset=".61772"/>
<stop style="stop-color:#3d3d3d" offset="1"/>
</linearGradient>
<linearGradient id="linearGradient4557" x1="43.5" x2="44.142" y1="64.012" y2=".30621" gradientTransform="translate(.36068 -.13017)" gradientUnits="userSpaceOnUse">
<stop style="stop-color:#141618" offset="0"/>
<stop style="stop-color:#686868" offset=".51821"/>
<stop style="stop-color:#31363b" offset="1"/>
</linearGradient>
<linearGradient id="linearGradient4587-3" x1="11.087" x2="35.057" y1="53.86" y2="5.1285" gradientTransform="translate(.36135 -.1249)" gradientUnits="userSpaceOnUse">
<stop style="stop-color:#070707" offset="0"/>
<stop style="stop-color:#818181" offset="1"/>
</linearGradient>
<linearGradient id="b" x1="399.57" x2="416.57" y1="517.8" y2="534.8" gradientUnits="userSpaceOnUse">
<stop offset="0"/>
<stop stop-opacity="0" offset="1"/>
</linearGradient>
<linearGradient id="c" x2="0" y1="537.8" y2="508.8" gradientUnits="userSpaceOnUse">
<stop stop-color="#026ddc" offset="0"/>
<stop stop-color="#28b0fd" offset="1"/>
</linearGradient>
<linearGradient id="linearGradient16311" x1="408.65" x2="416.65" y1="525.28" y2="533.28" gradientTransform="translate(-.081 -.48)" gradientUnits="userSpaceOnUse" xlink:href="#d"/>
<linearGradient id="d" x1="408.65" x2="416.65" y1="525.28" y2="533.28" gradientTransform="translate(-.081 -.48)" gradientUnits="userSpaceOnUse">
<stop stop-opacity=".065" offset="0"/>
<stop stop-opacity="0" offset="1"/>
</linearGradient>
<linearGradient id="e" x1="417.79" x2="426.22" y1="517.96" y2="525.91" gradientTransform="matrix(-1 0 0 1 817.2 -.48)" gradientUnits="userSpaceOnUse" xlink:href="#d"/>
</defs>
<g transform="matrix(.43876 0 0 .43876 2.182 1.4473)">
<rect x="1.033" y=".60078" width="62.567" height="62.867" style="fill:url(#linearGradient4587-3)"/>
<g transform="matrix(1.33 0 0 1.33 -505.3 -665.02)">
<path d="m398.28 532.51 10.291 10.291c6 1 17.781-10.52 20-16l-20-18z" style="fill-rule:evenodd;fill:url(#b);opacity:.2"/>
<path d="m408.57 508.8c-0.093-3e-3 -0.183 0.034-0.248 0.101-0.931 0.971-1.877 2.061-2.732 3.099-1e-3 1e-3 0 3e-3 0 4e-3 -2.107 2.628-3.709 5.328-4.869 8.218-1.081 2.693-1.713 5.02-2.288 8.416-0.126 0.743-0.253 1.644-0.341 2.368-0.044 0.362-0.078 0.68-0.097 0.915-0.01 0.118-0.015 0.214-0.017 0.292-1e-3 0.039 0 0.072 0 0.112 0 0.02 0 0.042 0.014 0.079 0.01 0.037 0 0.111 0.149 0.202 0.08 0.049 0.09 0.039 0.11 0.044s0.035 8e-3 0.051 0.011c0.032 5e-3 0.066 9e-3 0.105 0.013 0.078 8e-3 0.174 0.016 0.276 0.022 0.808 0.044 1.999 0.25 2.789 0.481 0.533 0.156 0.884 0.285 1.405 0.516 0.12 0.053 0.231 0.102 0.313 0.138 0.041 0.018 0.075 0.032 0.1 0.042 0.012 5e-3 0.023 9e-3 0.032 0.013 1e-3 1e-3 2e-3 2e-3 1e-3 2e-3 0 2e-3 0.01 4e-3 0.014 7e-3v-3e-3 2e-3c0.01 2e-3 0.01 4e-3 0.019 7e-3 0 1e-3 0.01 4e-3 0.012 5e-3 0-1e-3 -0.011 0-0.013-1e-3 0.023 0.012 0.05 0.028 0.087 0.048 0.088 0.048 0.209 0.116 0.341 0.19 1.275 0.716 2.228 1.455 3.75 2.914 0.201 0.192 0.387 0.366 0.529 0.495 0.071 0.064 0.13 0.118 0.176 0.157 0.023 0.02 0.043 0.036 0.064 0.052 0.01 8e-3 0.021 0.016 0.038 0.028 0.01 5e-3 0.02 0.012 0.039 0.022 0.02 9e-3 0.039 0.028 0.13 0.033 0.109 5e-3 0.131-0.019 0.153-0.029s0.034-0.017 0.043-0.023c0.019-0.012 0.03-0.02 0.041-0.029 0.022-0.017 0.043-0.034 0.068-0.055 0.05-0.042 0.115-0.1 0.192-0.169 0.154-0.139 0.358-0.327 0.578-0.536 1.259-1.194 1.869-1.699 2.746-2.281 1.915-1.271 3.621-1.834 6.24-2.056l0.212-0.018c0.171-0.014 0.302-0.157 0.302-0.328v-0.125c0-0.26-0.062-0.798-0.146-1.464s-0.19-1.424-0.287-2c-0.575-3.424-1.228-5.836-2.323-8.562-0.986-2.457-2.399-4.938-4.087-7.184 0-5e-3 -0.01-0.01-0.012-0.015-1.136-1.345-2.235-2.756-3.434-4.065-0.06-0.066-0.144-0.104-0.233-0.107z" style="fill:url(#c)"/>
<g style="fill-rule:evenodd">
<path d="m415.83 519.04-17.797 13.467c0.02 0.03 0.042 0.063 0.102 0.1 0.08 0.049 0.092 0.038 0.111 0.043 0.02 5e-3 0.035 9e-3 0.051 0.012 0.032 5e-3 0.067 8e-3 0.105 0.012 0.078 8e-3 0.174 0.018 0.275 0.023 0.808 0.044 1.999 0.249 2.789 0.48 0.533 0.156 0.886 0.285 1.406 0.516 0.12 0.053 0.23 0.101 0.313 0.137 0.041 0.018 0.074 0.032 0.1 0.043 0.012 5e-3 0.022 0.01 0.031 0.014h4e-3l2e-3 2e-3c4e-3 2e-3 7e-3 3e-3 0.014 6e-3h2e-3c5e-3 2e-3 8e-3 3e-3 0.018 6e-3 4e-3 1e-3 7e-3 5e-3 0.012 6e-3 -3e-3 -1e-3 -0.01-1e-3 -0.012-2e-3 0.023 0.012 0.049 0.028 0.086 0.049 0.088 0.048 0.21 0.115 0.342 0.189 1.275 0.716 2.228 1.455 3.75 2.914 0.201 0.192 0.388 0.367 0.529 0.496 0.071 0.064 0.129 0.116 0.176 0.156 0.023 0.02 0.043 0.037 0.065 0.053 0.01 8e-3 0.021 0.016 0.039 0.027 9e-3 5e-3 0.019 0.012 0.039 0.021s0.038 0.029 0.129 0.033c0.109 5e-3 0.132-0.019 0.154-0.029s0.033-0.018 0.043-0.023c0.019-0.012 0.03-0.019 0.041-0.027 0.022-0.017 0.043-0.034 0.068-0.055 0.05-0.042 0.114-0.101 0.191-0.17 0.154-0.139 0.358-0.327 0.578-0.535 1.259-1.194 1.869-1.699 2.746-2.281 1.915-1.271 3.621-1.834 6.24-2.055l0.211-0.018c0.171-0.014 0.303-0.159 0.303-0.33v-0.123c0-0.26-0.063-0.799-0.146-1.465-0.084-0.666-0.19-1.424-0.287-2-0.575-3.424-1.227-5.836-2.322-8.563-0.151-0.376-0.329-0.752-0.5-1.129" style="fill:url(#linearGradient16311)"/>
<path d="m401.29 519.04 17.797 13.467c-0.02 0.03-0.042 0.063-0.102 0.1-0.08 0.049-0.092 0.038-0.111 0.043-0.02 5e-3 -0.035 9e-3 -0.051 0.012-0.032 5e-3 -0.067 8e-3 -0.105 0.012-0.078 8e-3 -0.174 0.018-0.275 0.023-0.808 0.044-1.999 0.249-2.789 0.48-0.533 0.156-0.886 0.285-1.406 0.516-0.12 0.053-0.23 0.101-0.313 0.137-0.041 0.018-0.074 0.032-0.1 0.043-0.012 5e-3 -0.022 0.01-0.031 0.014h-4e-3l-2e-3 2e-3c-4e-3 2e-3 -7e-3 3e-3 -0.014 6e-3h-2e-3c-5e-3 2e-3 -8e-3 3e-3 -0.018 6e-3 -4e-3 1e-3 -7e-3 5e-3 -0.012 6e-3 3e-3 -1e-3 0.01-1e-3 0.012-2e-3 -0.023 0.012-0.049 0.028-0.086 0.049-0.088 0.048-0.21 0.115-0.342 0.189-1.275 0.716-2.228 1.455-3.75 2.914-0.201 0.192-0.388 0.367-0.529 0.496-0.071 0.064-0.129 0.116-0.176 0.156-0.023 0.02-0.043 0.037-0.065 0.053-0.01 8e-3 -0.021 0.016-0.039 0.027-9e-3 5e-3 -0.019 0.012-0.039 0.021s-0.038 0.029-0.129 0.033c-0.109 5e-3 -0.132-0.019-0.154-0.029s-0.033-0.018-0.043-0.023c-0.019-0.012-0.03-0.019-0.041-0.027-0.022-0.017-0.043-0.034-0.068-0.055-0.05-0.042-0.114-0.101-0.191-0.17-0.154-0.139-0.358-0.327-0.578-0.535-1.259-1.194-1.869-1.699-2.746-2.281-1.915-1.271-3.621-1.834-6.24-2.055l-0.211-0.018c-0.171-0.014-0.303-0.159-0.303-0.33v-0.123c0-0.26 0.063-0.799 0.146-1.465 0.084-0.666 0.19-1.424 0.287-2 0.575-3.424 1.227-5.836 2.322-8.563 0.151-0.376 0.329-0.752 0.5-1.129" style="fill:url(#e)"/>
</g>
</g>
</g>
<path transform="matrix(.5 0 0 .5 .066304 .016549)" d="m4.7043 3.9815-0.012938 56.82h53.904l1.0222-2.8664s-23.875 0.76639-32.844-4.1404c-10.516-5.7529-15.372-49.697-15.372-49.697z" style="fill:url(#linearGradient3403);mix-blend-mode:normal;stroke-linejoin:round;stroke-width:1.1624;stroke:url(#linearGradient20558)"/>
<rect transform="matrix(.46839 0 0 .46744 .90638 1.0269)" x="1.0324" y=".59551" width="62.567" height="62.867" rx="5.803" ry="6.2447" style="fill:none;stroke-linejoin:round;stroke-miterlimit:7.8;stroke-opacity:.99515;stroke-width:3.7137;stroke:url(#linearGradient4557)"/>
</svg>
