<svg width="32" height="32" version="1.1" viewBox="0 0 32 32" xmlns="http://www.w3.org/2000/svg" xmlns:xlink="http://www.w3.org/1999/xlink">
<defs>
<linearGradient id="linearGradient3403" x1="6.9492" x2="11.215" y1="4.5549" y2="59.052" gradientUnits="userSpaceOnUse">
<stop style="stop-color:#32373c" offset="0"/>
<stop style="stop-color:#1a1a1a" offset=".36805"/>
<stop style="stop-color:#31363b" offset="1"/>
</linearGradient>
<linearGradient id="linearGradient20558" x1="25.802" x2="25.111" y1="20.374" y2="58.913" gradientUnits="userSpaceOnUse">
<stop style="stop-color:#3d3d3d" offset="0"/>
<stop offset=".61772"/>
<stop style="stop-color:#3d3d3d" offset="1"/>
</linearGradient>
<linearGradient id="linearGradient4557" x1="43.5" x2="44.142" y1="64.012" y2=".30621" gradientTransform="translate(.36068 -.13017)" gradientUnits="userSpaceOnUse">
<stop style="stop-color:#141618" offset="0"/>
<stop style="stop-color:#686868" offset=".51821"/>
<stop style="stop-color:#31363b" offset="1"/>
</linearGradient>
<linearGradient id="linearGradient4308" x2="0" y1="539.8" y2="527.8" gradientTransform="matrix(1.1622 0 0 1.1458 -447.78 -591.11)" gradientUnits="userSpaceOnUse">
<stop style="stop-color:#fff" offset="0"/>
<stop style="stop-color:#636363" offset="1"/>
</linearGradient>
<linearGradient id="linearGradient15" x1="11.203" x2="38.488" y1="39.045" y2="14.004" gradientTransform="matrix(.66448 0 0 .76678 1.0602 -3.2391)" gradientUnits="userSpaceOnUse">
<stop offset="0"/>
<stop style="stop-color:#424242;stop-opacity:.99944" offset="1"/>
</linearGradient>
<linearGradient id="a" x1="394.57" x2="422.57" y1="525.8" y2="553.8" gradientTransform="matrix(-.6426 -.17218 .17218 -.6426 28.298 39.413)" gradientUnits="userSpaceOnUse">
<stop stop-color="#d6d9dc" offset="0"/>
<stop stop-color="#a1a9b1" offset="1"/>
</linearGradient>
<linearGradient id="linearGradient17" x1="29.145" x2="29.145" y1="38.889" y2="18.811" gradientTransform="matrix(.665 0 0 .665 1.0473 3.901)" gradientUnits="userSpaceOnUse">
<stop style="stop-color:#eff0f1;stop-opacity:.22432" offset="0"/>
<stop style="stop-color:#d7d7d7;stop-opacity:.033238" offset="1"/>
</linearGradient>
<linearGradient id="linearGradient19" x1="20.749" x2="20.711" y1="24.649" y2="38.838" gradientTransform="scale(.665)" gradientUnits="userSpaceOnUse">
<stop style="stop-color:#6e6e6e" offset="0"/>
<stop style="stop-color:#191919;stop-opacity:.90734" offset="1"/>
</linearGradient>
</defs>
<rect x="3.32" y="5.9622" width="27.376" height="23.8" style="fill:url(#linearGradient15);stroke-width:.85143"/>
<rect x="3.7182" y="2.0303" width="26.579" height="3.7436" style="fill:#566069;stroke-width:.70535"/>
<rect x="3.7182" y="5.2135" width="26.579" height=".74872" style="fill:#3daee9;stroke-width:.70535"/>
<rect x="26.975" y="2.779" width="1.9438" height="1.8809" rx=".97188" ry=".93703" style="fill:#eff0f1;stroke-width:.64428"/>
<circle cx="17.007" cy="19.861" r="9.31" fill="#232629" fill-rule="evenodd" style="stroke-width:.665"/>
<path d="m17.007 23.186v2.66h0.665v-2.66zm1.995 0v2.66h1.995v-2.66zm3.325 0v2.66h0.665v-2.66zm1.995 0v2.66h1.4703c0.19071-0.30482 0.36584-0.6191 0.52473-0.94165v-1.7184zm-4.655 0.665h0.665v1.33h-0.665zm5.32 0h0.665v1.33h-0.665zm-7.98 2.66v2.66h1.995v-2.66zm3.325 0v2.66h0.665v-2.66zm1.995 0v2.5119c0.28663-0.15933 0.56574-0.33182 0.83644-0.51693h-0.17144v-1.33h0.665v0.92606c0.22893-0.1728 0.45078-0.35478 0.665-0.54551v-1.0456zm-4.655 0.665h0.665v1.33h-0.665zm-5.8948-4.0089v2.66h0.665v-2.66zm1.995 0v2.66h1.995v-2.66zm0.665 0.665h0.665v1.33h-0.665zm-2.66 2.66v2.66h1.995v-2.66zm3.325 0v2.66h0.665v-2.66zm-2.66 0.665h0.665v1.33h-0.665zm2.5951-7.4303v2.66h0.665v-2.66zm1.995 0v2.66h1.995v-2.66zm3.325 0v2.66h0.665v-2.66zm-2.66 0.665h0.665v1.33h-0.665zm-7.8898-0.68391v2.66h0.665v-2.66zm1.995 0v2.66h1.995v-2.66zm0.665 0.665h0.665v1.33h-0.665zm5.8948-3.9624v2.66h0.665v-2.66zm1.995 0v2.66h1.995v-2.66zm3.325 0v2.66h0.665v-2.66zm-2.66 0.665h0.665v1.33h-0.665zm-7.8898-0.68391v2.66h0.665v-2.66zm1.995 0v2.66h1.995v-2.66zm0.665 0.665h0.665v1.33h-0.665zm-7.9895-0.71144v2.66h0.665v-2.66zm1.995 0v2.66h1.995v-2.66zm0.665 0.665h0.665v1.33h-0.665zm11.918 2.6827v2.66h1.995v-2.66zm3.325 0v2.66h0.665v-2.66zm-2.66 0.665h0.665v1.33h-0.665zm2.584-3.9526v2.66h1.1616v-2.66z" opacity=".5" style="fill:url(#linearGradient17);stroke-width:.665"/>
<path d="m24.802 30.633-0.75507-1.9366c0.6664-0.528 1.2711-1.1295 1.8027-1.793l1.9246 0.74975c0.53444-0.73915 0.99146-1.5313 1.3638-2.3639l-1.6113-1.2913c0.15762-0.39532 0.29279-0.79923 0.40488-1.2098 0.10527-0.41119 0.18731-0.82799 0.24572-1.2484l2.0583-0.316c0.09463-0.90601 0.09597-1.8193 4e-3 -2.7256l-2.0623-0.316c-0.12576-0.83971-0.34568-1.6626-0.6556-2.4531l1.6239-1.3013c-0.37334-0.83173-0.83119-1.6229-1.3663-2.361l-1.9366 0.75507c-0.52796-0.66634-1.1294-1.271-1.7928-1.8026l0.74983-1.9245c-0.73918-0.53445-1.5314-0.99147-2.364-1.3639l-1.2903 1.6113c-0.39566-0.15768-0.79992-0.29289-1.2108-0.40497-0.41119-0.10527-0.82799-0.18731-1.2484-0.24573l-0.31492-2.0583c-0.90601-0.094631-1.8193-0.095968-2.7256-0.00399l-0.31729 2.0623c-0.83964 0.12583-1.6624 0.34581-2.4529 0.65578l-1.3012-1.6237c-0.83173 0.37334-1.6229 0.83119-2.361 1.3663l0.75507 1.9366c-0.6664 0.528-1.2711 1.1295-1.8027 1.793l-1.9247-0.75039c0 5.3285-0.00517 13.296-0.00517 18.457zm-10.205-1.7753c-4.9685-1.3313-7.9171-6.4384-6.5858-11.407 1.3313-4.9685 6.4384-7.9171 11.407-6.5858 4.9685 1.3313 7.9171 6.4384 6.5858 11.407-1.3313 4.9686-6.4384 7.9171-11.407 6.5858" fill="url(#a)" stroke-linejoin="round" stroke-width="1.995" style="fill:url(#a)"/>
<path d="m9.4195 8.956c-0.069246 0.043956-0.13809 0.088551-0.20651 0.13378l0.75525 1.9364c0.063441-0.05785 0.1275-0.11502 0.19222-0.17144zm15.173 0.00532-0.73484 1.885c0.0647 0.05686 0.12881 0.11443 0.19222 0.17275l0.75043-1.9239c-0.068855-0.04522-0.13813-0.089835-0.20781-0.13378zm-7.2371 0.92737c-4.342-0.16207-8.2192 2.6997-9.3438 6.8968-0.20588 0.81911-0.29939 1.6624-0.27795 2.5067 0.030856-0.62166 0.12399-1.2387 0.27795-1.8417 1.3316-4.9679 6.4382-7.916 11.406-6.5851 3.9575 1.0628 6.7555 4.5873 6.8929 8.6827 0.16437-4.3424-2.6959-8.2213-6.8929-9.3477-0.67367-0.18081-1.3655-0.28538-2.0625-0.31172zm11.549 4.0679-1.5557 1.2462c0.06184 0.17391 0.11946 0.3493 0.17274 0.52603l1.6245-1.3007c-0.07739-0.15875-0.15794-0.31594-0.24158-0.47148zm1.3988 5.55c-0.0086 0.35144-0.03112 0.7024-0.06754 1.0521l-2.0586 0.31562c-0.05832 0.42033-0.1403 0.83705-0.24548 1.2482-0.11218 0.41081-0.42269 1.3396-0.58044 1.7351l0.17534 0.14028c0.08392-0.22609 0.3358-0.97939 0.4051-1.2104 0.10518-0.41112 0.18714-0.82784 0.24548-1.2482l2.0586-0.31562c0.05952-0.5703 0.08205-1.1438 0.06754-1.7171zm-1.4066 5.5889c-0.32118 0.66069-0.69653 1.2937-1.1222 1.8924l-1.9249-0.74942c-0.53165 0.66331-1.3289 1.4365-1.9952 1.9643l0.19222 0.49356c0.59019-0.48455 1.3223-1.1995 1.803-1.7928l1.9249 0.74942c0.53441-0.73913 0.9914-1.5312 1.3638-2.3639zm-4.0952 5.5371-0.20651-0.53122z" opacity=".208" stroke-linejoin="round" stroke-width="1.995"/>
<path d="m13.108 13.651v13.75l10.46-6.8749z" style="fill-rule:evenodd;fill:url(#linearGradient4308);stroke-width:.12702;stroke:url(#linearGradient19)"/>
<path transform="matrix(.5 0 0 .5 .066304 .016549)" d="m4.7043 3.9815-0.012938 56.82h53.904l1.0222-2.8664s-23.875 0.76639-32.844-4.1404c-10.516-5.7529-15.372-49.697-15.372-49.697z" style="fill:url(#linearGradient3403);mix-blend-mode:normal;stroke-linejoin:round;stroke-width:1.1624;stroke:url(#linearGradient20558)"/>
<rect transform="matrix(.46839 0 0 .46744 .90638 1.0269)" x="1.0324" y=".59551" width="62.567" height="62.867" rx="5.803" ry="6.2447" style="fill:none;stroke-linejoin:round;stroke-miterlimit:7.8;stroke-opacity:.99515;stroke-width:3.7137;stroke:url(#linearGradient4557)"/>
</svg>
