<svg width="32" height="32" version="1.1" viewBox="0 0 32 32" xmlns="http://www.w3.org/2000/svg" xmlns:xlink="http://www.w3.org/1999/xlink">
<defs>
<linearGradient id="linearGradient3403" x1="6.9492" x2="11.215" y1="4.5549" y2="59.052" gradientUnits="userSpaceOnUse">
<stop style="stop-color:#32373c" offset="0"/>
<stop style="stop-color:#1a1a1a" offset=".36805"/>
<stop style="stop-color:#31363b" offset="1"/>
</linearGradient>
<linearGradient id="linearGradient20558" x1="25.802" x2="25.111" y1="20.374" y2="58.913" gradientUnits="userSpaceOnUse">
<stop style="stop-color:#3d3d3d" offset="0"/>
<stop offset=".61772"/>
<stop style="stop-color:#3d3d3d" offset="1"/>
</linearGradient>
<linearGradient id="linearGradient4557" x1="43.5" x2="44.142" y1="64.012" y2=".30621" gradientTransform="translate(.36068 -.13017)" gradientUnits="userSpaceOnUse">
<stop style="stop-color:#141618" offset="0"/>
<stop style="stop-color:#686868" offset=".51821"/>
<stop style="stop-color:#31363b" offset="1"/>
</linearGradient>
<linearGradient id="a" x2="24" y2="48" gradientUnits="userSpaceOnUse">
<stop stop-color="#1a2530" offset="0"/>
<stop stop-color="#2c3e50" offset=".33333"/>
<stop stop-color="#34495e" offset=".45833"/>
<stop stop-color="#8e44ad" offset=".83333"/>
<stop stop-color="#9b59b6" offset="1"/>
</linearGradient>
<linearGradient id="b" x1="11" x2="6" y1="4" y2="17" gradientUnits="userSpaceOnUse">
<stop stop-color="#194d6f" offset="0"/>
<stop stop-color="#115c92" offset=".23077"/>
<stop stop-color="#9b59b6" offset="1"/>
</linearGradient>
<radialGradient id="c" cx="0" cy="0" r="1" gradientTransform="matrix(5,0,0,8,8,13)" gradientUnits="userSpaceOnUse">
<stop stop-color="#0c3d61" offset="0"/>
<stop stop-color="#0c3d61" stop-opacity=".149" offset="1"/>
</radialGradient>
<linearGradient id="e" x1="10" x2="7" y1="19" y2="11" gradientUnits="userSpaceOnUse" xlink:href="#d"/>
<linearGradient id="d">
<stop stop-color="#fdbc4b" offset="0"/>
<stop stop-color="#fdbc4b" stop-opacity="0" offset="1"/>
</linearGradient>
<linearGradient id="f" x1="5" x2="15" y1="10" y2="22" gradientUnits="userSpaceOnUse">
<stop stop-color="#3daee9" offset="0"/>
<stop stop-color="#177ac2" offset=".5"/>
<stop stop-color="#9b59b6" offset="1"/>
</linearGradient>
<linearGradient id="g" x1="10.131" x2="20.869" y1="14.505" y2="14.505" gradientUnits="userSpaceOnUse" xlink:href="#d"/>
<radialGradient id="h" cx="0" cy="0" r="1" gradientTransform="matrix(29 30 -16.785 16.225 15 14)" gradientUnits="userSpaceOnUse">
<stop stop-color="#fdbc4b" stop-opacity=".851" style="stop-color:#febc4a;stop-opacity:.851" offset="0"/>
<stop stop-color="#fdbc4b" stop-opacity=".349" style="stop-color:#fbbc4d;stop-opacity:.349" offset=".3"/>
<stop stop-color="#2ecc71" stop-opacity=".118" style="stop-color:#2dcd71;stop-opacity:.118" offset=".61667"/>
<stop stop-color="#3daee9" stop-opacity=".05" style="stop-color:#38ace8;stop-opacity:.05" offset="1"/>
</radialGradient>
<linearGradient id="i" x1="8" x2="8" y1="4" y2="14" gradientUnits="userSpaceOnUse">
<stop stop-color="#318bba" offset="0"/>
<stop stop-color="#177ac2" offset=".27586"/>
<stop stop-color="#9b59b6" offset="1"/>
</linearGradient>
<radialGradient id="j" cx="0" cy="0" r="1" gradientTransform="matrix(24,0,0,21,32,44)" gradientUnits="userSpaceOnUse">
<stop stop-color="#fdbc4b" style="stop-color:#fdc665" offset="0"/>
<stop stop-color="#fdbc4b" stop-opacity="0" style="stop-color:#fdc557;stop-opacity:0" offset="1"/>
</radialGradient>
<radialGradient id="k" cx="0" cy="0" r="1" gradientTransform="matrix(16 28 -27.784 15.876 14 16)" gradientUnits="userSpaceOnUse">
<stop stop-opacity=".251" offset="0"/>
<stop stop-opacity=".15" offset=".39591"/>
<stop stop-opacity=".05" offset="1"/>
</radialGradient>
<linearGradient id="l" x1="46" x2="32" y1="50" y2="20" gradientUnits="userSpaceOnUse">
<stop stop-color="#9b59b6" offset="0"/>
<stop stop-color="#9b59b6" stop-opacity="0" offset="1"/>
</linearGradient>
<linearGradient id="m" x1="28" x2="30" y1="23" y2="31" gradientUnits="userSpaceOnUse">
<stop stop-color="#11d116" offset="0"/>
<stop stop-color="#11d116" stop-opacity="0" offset="1"/>
</linearGradient>
</defs>
<g transform="matrix(.7016 0 0 .7016 -.39357 -1.2935)">
<path d="m40 4h-32c-2.2091 0-4 1.7909-4 4v32c0 2.2091 1.7909 4 4 4h32c2.2091 0 4-1.7909 4-4v-32c0-2.2091-1.7909-4-4-4z" fill="url(#a)" style="fill:url(#a)"/>
<path d="m14 4v7.4375c0 0.3116 0.223 0.5625 0.5 0.5625s0.5-0.2509 0.5-0.5625v-7.4375z" fill="#194d6f"/>
<path d="m10.715 6.0098c-0.9598 0.0689-1.8627 0.4815-2.5429 1.1621-1.5617 1.562-1.5617 4.0942 0 5.6562l2.8281 2.8281 7.6563-3.6562-4.8282-4.8281c-0.8201-0.8205-1.9561-1.2445-3.1133-1.1621z" fill="url(#b)" style="fill:url(#b)"/>
<path d="m12 7c-1.2188 0.0313-2 0.3307-2.8281 1.1719-0.8016 1.0701-1.1591 1.979-1.1719 3.1406 0 0.6579 0.446 1.1875 1 1.1875 0.1425 0 0.2779-0.0363 0.4004-0.0996l0.0137 0.0137v-0.0215c0.3459-0.1865 0.5859-0.5981 0.5859-1.0801 0-0.9404 0.1627-1.6016 0.5893-2.1247 0.7501-0.7502 1.4107-1.1879 2.4105-1.1879 2.0002 0 2.4923 0.8358 3.2424 1.5859l-1.4141-1.4141c-0.7501-0.7502-1.7672-1.1719-2.8281-1.1719z" fill="url(#c)" style="fill:url(#c)"/>
<path d="m10.715 6.0098c-0.9598 0.0689-1.8627 0.4815-2.5429 1.1621-1.5617 1.562-1.5617 4.0942 0 5.6562l2.8281 2.8281 7.6563-3.6562-4.8282-4.8281c-0.8201-0.8205-1.9561-1.2445-3.1133-1.1621z" fill="url(#e)" opacity=".35" style="fill:url(#e)"/>
<path d="m19.869 9.5391c-0.0346 6e-4 -0.0691 0.0036-0.1035 0.0078l-5.7656 1.0781c-1.2447 0.1875-2.2399 1.1418-2.4922 2.375h-0.0156l-1.334 5.2461c-0.0175 0.0736-0.0268 0.1489-0.0273 0.2246 0 0.5523 0.4477 1 1 1 0.066-0.0016 0.131-0.0038 0.1953-0.0156l5.7402-1.4336c1.0012-0.2961 1.7901-1.0913 2.0606-2.0996l1.7109-5.1407c0.0204-0.0789 0.0306-0.1605 0.0312-0.2421 0-0.5523-0.4477-1-1-1z" fill="url(#f)" style="fill:url(#f)"/>
<path d="m19.869 9.5391c-0.0346 6e-4 -0.0691 0.0036-0.1035 0.0078l-5.7656 1.0781c-1.2447 0.1875-2.2399 1.1418-2.4922 2.375h-0.0156l-1.334 5.2461c-0.0175 0.0736-0.0268 0.1489-0.0273 0.2246 0 0.5523 0.4477 1 1 1 0.066-0.0016 0.131-0.0038 0.1953-0.0156l5.7402-1.4336c1.0012-0.2961 1.7901-1.0913 2.0606-2.0996l1.7109-5.1407c0.0204-0.0789 0.0306-0.1605 0.0312-0.2421 0-0.5523-0.4477-1-1-1z" fill="url(#g)" opacity=".5" style="fill:url(#g)"/>
<path d="m14.68 16.75c1.2427 0 2.6528-1.0074 3.1498-2.25 0.4969-1.2426-0.1076-2.25-1.3503-2.25-1.2426 0-2.6528 1.0074-3.1497 2.25-0.497 1.2426 0.1076 2.25 1.3502 2.25z" fill="#2c3e50" opacity=".5"/>
<path d="m14.68 16.75c1.2427 0 2.6528-1.0074 3.1498-2.25 0.4969-1.2426-0.1076-2.25-1.3503-2.25-1.2426 0-2.6528 1.0074-3.1497 2.25-0.497 1.2426 0.1076 2.25 1.3502 2.25z" fill="#2c3e50" opacity=".5"/>
<path d="m18.984 12.186c-0.8564 0.0039-1.7124 0.0261-2.5664 0.0665v2e-3c-1.0633 0.0319-2.2489 0.746-2.9297 1.8847-2.9449 6.4339-4.4794 14.101-4.5039 22.047 0.0035 2.6432 0.1828 5.2604 0.5254 7.8145h30.49c2.2091 0 4-1.7909 4-4v-21.873c-6.6845-3.6967-15.433-5.9415-25.016-5.9415z" fill="url(#h)" style="fill:url(#h)"/>
<path d="m8 4v7.4375c0 0.3116 0.223 0.5625 0.5 0.5625s0.5-0.2509 0.5-0.5625v-7.4375z" fill="url(#i)" style="fill:url(#i)"/>
<path d="m40 4h-32c-2.2091 0-4 1.7909-4 4v32c0 2.2091 1.7909 4 4 4h32c2.2091 0 4-1.7909 4-4v-32c0-2.2091-1.7909-4-4-4z" fill="url(#j)" opacity=".3" style="fill:url(#j)"/>
<path d="m13.5 23-0.6992 2.5996 4.1992 4.1992v3.8457l-2 1.3555 9 9h16c2.216 0 4-1.784 4-4v-14l-3-3-4.2676 0.5176 1.1328 1.1328-0.8007 1.2949-2.4278-2.4277-4.6367 0.2207 3.8203 3.8203 0.7461 1.2051-1.6445 2.6582-3.4219-3.4219h-2l-5-5z" fill="url(#k)" style="fill:url(#k)"/>
<path d="m13.5 23-0.6992 2.5996 1.414 1.4141h1.0489l0.541-1.3496h1.1953v7.9804l-2 1.3555 1.4141 1.4141h6v-1l-1.4141-1.4141c-0.1961-0.0012-0.3915-0.013-0.5859-0.0332v-8.3027h1.8007l1.3497 1.3496h1.0488l-0.6992-2.5996-1.4141-1.4141zm16.869 0-0.3691 0.7383 1.4141 1.414c0.383 0.0845 0.7589 0.1984 1.125 0.3379l2.0273 3.2735-3.0059 4.8554-1.4589 1.3809 1.414 1.4141h3.75l0.5176-0.5176-1.1562-1.1563 1.8203-2.9394 1.3711 2.2148-0.9375 0.9844 1.414 1.4141h3.75l0.3692-0.7383-1.4141-1.4141c-0.2976-0.0656-0.5909-0.1492-0.8789-0.248l-2.1465-3.4668 2.918-4.7188c0.6002-0.3039 1.2348-0.5312 1.8906-0.6758l-0.3691-0.7382-1.4141-1.4141-4.2676 0.5176 1.1328 1.1328-1.7695 2.8613-1.3359-2.1562c0.4377-0.1178 0.869-0.2574 1.291-0.4239l-1.4141-1.414zm-0.8691 5-8.2031 0.7539 1.7031 1.7031v8.1524l-1.5605 1.3906 1.414 1.4141h8.6563c0.119-1.0281 0.3703-2.0364 0.748-3l-1.414-1.4141h-1.0782c-0.3155 0.5965-0.5801 1.2184-0.791 1.8594-0.4872-0.0651-0.9785-0.1007-1.4707-0.1055l-0.0039-0.0039h-1.0859v-3.0859l1 2e-3c0.1568 0.0053 0.3081 0.0351 0.4511 0.0859l0.9121 0.9121h0.6368v-3.25l-1.4141-1.4141h-0.541c-0.1697 0.4799-0.5668 0.8318-1.0449 0.9531v-2.289h2v-0.0039c0.255-0.0025 0.5095-0.0145 0.7636-0.0332l1.3868 1.3867h1.0488l-0.6992-2.5996z" opacity=".08"/>
<path d="m13.5 23-0.6992 2.5996h1.0488l0.541-1.3496h2.6094v9.3945c-0.6416 0.2313-1.318 0.3515-2 0.3555v1h6v-1c-0.682-4e-3 -1.3584-0.1242-2-0.3555v-9.3945h2.6094l0.541 1.3496h1.0488l-0.6992-2.5996zm16.869 0-0.3691 0.7383c0.6464 0.1425 1.2726 0.3647 1.8652 0.6621l2.7012 4.3633-3.0059 4.8554c-0.5816 0.288-1.1952 0.5031-1.8281 0.6426l0.3692 0.7383h3.75l0.5175-0.5176c-0.5102-0.2013-1.0339-0.3662-1.5664-0.4961l2.5-4.0332 2.5157 4.0625c-0.4941 0.1255-0.9806 0.2796-1.4551 0.4668l0.5176 0.5176h3.75l0.3691-0.7383c-0.5481-0.1209-1.0826-0.2986-1.5938-0.5312l-2.8457-4.5977 2.918-4.7187c0.6002-0.3039 1.2349-0.5312 1.8906-0.6758l-0.3691-0.7383h-3.75l-0.5176 0.5176c0.4989 0.1968 1.011 0.3577 1.5313 0.4863l-2.4375 3.9434-2.4805-4.0059c0.4377-0.1178 0.869-0.2573 1.291-0.4238l-0.5176-0.5176zm-8.9296 5-0.1426 0.7539c0.6208 0.0332 1.2159 0.2584 1.7031 0.6445v9.211c-0.4849 0.3802-1.0783 0.606-1.7031 0.6367l0.1426 0.7539h8.6562c0.1189-1.0281 0.3704-2.0364 0.7481-3h-1.0782c-0.3155 0.5965-0.5801 1.2184-0.791 1.8594-0.4885-0.0652-0.9811-0.1009-1.4746-0.1055v-0.0039h-2.5v-4.5l1 2e-3c0.6149 0.0207 1.1571 0.4147 1.3633 0.998h0.6367v-3.25h-0.541c-0.2112 0.5972-0.7748 0.9975-1.4082 1h-1.0508v-3.75h2v-0.0039c0.5492-0.0054 1.0973-0.0484 1.6406-0.1289l0.5098 1.4824h1.0488l-0.6992-2.5996z" fill="#fcfcfc"/>
<path d="m13.5 23-0.6992 2.5996h1.0488l0.541-1.3496h2.6094v9.3945c-0.6416 0.2313-1.318 0.3515-2 0.3555v1h6v-1c-0.682-4e-3 -1.3584-0.1242-2-0.3555v-9.3945h2.6094l0.541 1.3496h1.0488l-0.6992-2.5996zm16.869 0-0.3691 0.7383c0.6464 0.1425 1.2726 0.3647 1.8652 0.6621l2.7012 4.3633-3.0059 4.8554c-0.5816 0.288-1.1952 0.5031-1.8281 0.6426l0.3692 0.7383h3.75l0.5175-0.5176c-0.5102-0.2013-1.0339-0.3662-1.5664-0.4961l2.5-4.0332 2.5157 4.0625c-0.4941 0.1255-0.9806 0.2796-1.4551 0.4668l0.5176 0.5176h3.75l0.3691-0.7383c-0.5481-0.1209-1.0826-0.2986-1.5938-0.5312l-2.8457-4.5977 2.918-4.7187c0.6002-0.3039 1.2349-0.5312 1.8906-0.6758l-0.3691-0.7383h-3.75l-0.5176 0.5176c0.4989 0.1968 1.011 0.3577 1.5313 0.4863l-2.4375 3.9434-2.4805-4.0059c0.4377-0.1178 0.869-0.2573 1.291-0.4238l-0.5176-0.5176zm-8.9296 5-0.1426 0.7539c0.6208 0.0332 1.2159 0.2584 1.7031 0.6445v9.211c-0.4849 0.3802-1.0783 0.606-1.7031 0.6367l0.1426 0.7539h8.6562c0.1189-1.0281 0.3704-2.0364 0.7481-3h-1.0782c-0.3155 0.5965-0.5801 1.2184-0.791 1.8594-0.4885-0.0652-0.9811-0.1009-1.4746-0.1055v-0.0039h-2.5v-4.5l1 2e-3c0.6149 0.0207 1.1571 0.4147 1.3633 0.998h0.6367v-3.25h-0.541c-0.2112 0.5972-0.7748 0.9975-1.4082 1h-1.0508v-3.75h2v-0.0039c0.5492-0.0054 1.0973-0.0484 1.6406-0.1289l0.5098 1.4824h1.0488l-0.6992-2.5996z" fill="url(#l)" opacity=".4" style="fill:url(#l)"/>
<path d="m13.5 23-0.6992 2.5996h1.0488l0.541-1.3496h2.6094v9.3945c-0.6416 0.2313-1.318 0.3515-2 0.3555v1h6v-1c-0.682-4e-3 -1.3584-0.1242-2-0.3555v-9.3945h2.6094l0.541 1.3496h1.0488l-0.6992-2.5996zm16.869 0-0.3691 0.7383c0.6464 0.1425 1.2726 0.3647 1.8652 0.6621l2.7012 4.3633-3.0059 4.8554c-0.5816 0.288-1.1952 0.5031-1.8281 0.6426l0.3692 0.7383h3.75l0.5175-0.5176c-0.5102-0.2013-1.0339-0.3662-1.5664-0.4961l2.5-4.0332 2.5157 4.0625c-0.4941 0.1255-0.9806 0.2796-1.4551 0.4668l0.5176 0.5176h3.75l0.3691-0.7383c-0.5481-0.1209-1.0826-0.2986-1.5938-0.5312l-2.8457-4.5977 2.918-4.7187c0.6002-0.3039 1.2349-0.5312 1.8906-0.6758l-0.3691-0.7383h-3.75l-0.5176 0.5176c0.4989 0.1968 1.011 0.3577 1.5313 0.4863l-2.4375 3.9434-2.4805-4.0059c0.4377-0.1178 0.869-0.2573 1.291-0.4238l-0.5176-0.5176zm-8.9296 5-0.1426 0.7539c0.6208 0.0332 1.2159 0.2584 1.7031 0.6445v9.211c-0.4849 0.3802-1.0783 0.606-1.7031 0.6367l0.1426 0.7539h8.6562c0.1189-1.0281 0.3704-2.0364 0.7481-3h-1.0782c-0.3155 0.5965-0.5801 1.2184-0.791 1.8594-0.4885-0.0652-0.9811-0.1009-1.4746-0.1055v-0.0039h-2.5v-4.5l1 2e-3c0.6149 0.0207 1.1571 0.4147 1.3633 0.998h0.6367v-3.25h-0.541c-0.2112 0.5972-0.7748 0.9975-1.4082 1h-1.0508v-3.75h2v-0.0039c0.5492-0.0054 1.0973-0.0484 1.6406-0.1289l0.5098 1.4824h1.0488l-0.6992-2.5996z" fill="url(#m)" opacity=".05" style="fill:url(#m)"/>
<path d="m33.865 10-1.1074 2h-1.7578v1h1v2.4355l2.4551-4.4355h3.5449v-1zm-6.8652 2v1h3v-1zm10 1c-0.8261 0-2 0.5176-2 2.5 0 1.5365 0.9715 2.4689 2 2.5 0.7054 0 1.4791-0.2574 1.835-0.806l-0.7731-0.5122c-0.3461 0.3718-0.74 0.3806-1.0301 0.3806-0.4972 0-1.0182-0.4167-1.0181-1.0624l2.9863-0.15v-0.85c0-1.108-0.892-2-2-2zm-10 1v1h3v-1zm9.9955-0.0924c0.7711-0.0208 1.0391 0.4913 1.0646 1.0924l-2.095-0.0027c0.0297-0.5246 0.2226-1.068 1.0304-1.0897zm-7.9955 2.0924v1h1v2h1v-2h1v2h1v-2h1v-1z" fill="#fcfcfc" opacity=".15"/>
<path d="m16.225 9.5684-2.9746 0.5566c-1.2447 0.1875-2.2399 1.1418-2.4922 2.375h-0.0156l-0.5879 2.3105 0.6992 0.6993 0.6387-2.5098h0.0156c0.2523-1.2332 1.2475-2.1875 2.4922-2.375l2.7637-0.5176z" fill="#000018" opacity=".03"/>
<path d="m16.498 9.8418-2.8476 0.5332c-1.2447 0.1875-2.2399 1.1418-2.4922 2.375h-0.0156l-0.6172 2.4316 0.3281 0.3282 0.6387-2.5098h0.0156c0.2523-1.2332 1.2475-2.1875 2.4922-2.375l2.7637-0.5176z" fill="#000016" opacity=".03"/>
</g>
<path transform="matrix(.5 0 0 .5 .066304 .016549)" d="m4.7043 3.9815-0.012938 56.82h53.904l1.0222-2.8664s-23.875 0.76639-32.844-4.1404c-10.516-5.7529-15.372-49.697-15.372-49.697z" style="fill:url(#linearGradient3403);mix-blend-mode:normal;stroke-linejoin:round;stroke-width:1.1624;stroke:url(#linearGradient20558)"/>
<rect transform="matrix(.46839 0 0 .46744 .90638 1.0269)" x="1.0324" y=".59551" width="62.567" height="62.867" rx="5.803" ry="6.2447" style="fill:none;stroke-linejoin:round;stroke-miterlimit:7.8;stroke-opacity:.99515;stroke-width:3.7137;stroke:url(#linearGradient4557)"/>
</svg>
