<svg width="32" height="32" version="1.1" viewBox="0 0 32 32" xmlns="http://www.w3.org/2000/svg" xmlns:xlink="http://www.w3.org/1999/xlink">
<defs>
<linearGradient id="linearGradient3403" x1="6.9492" x2="11.215" y1="4.5549" y2="59.052" gradientUnits="userSpaceOnUse">
<stop style="stop-color:#32373c" offset="0"/>
<stop style="stop-color:#1a1a1a" offset=".36805"/>
<stop style="stop-color:#31363b" offset="1"/>
</linearGradient>
<linearGradient id="linearGradient20558" x1="25.802" x2="25.111" y1="20.374" y2="58.913" gradientUnits="userSpaceOnUse">
<stop style="stop-color:#3d3d3d" offset="0"/>
<stop offset=".61772"/>
<stop style="stop-color:#3d3d3d" offset="1"/>
</linearGradient>
<linearGradient id="linearGradient4557" x1="43.5" x2="44.142" y1="64.012" y2=".30621" gradientTransform="translate(.36068 -.13017)" gradientUnits="userSpaceOnUse">
<stop style="stop-color:#141618" offset="0"/>
<stop style="stop-color:#686868" offset=".51821"/>
<stop style="stop-color:#31363b" offset="1"/>
</linearGradient>
<linearGradient id="linearGradient919" x1="7.4006" x2="33.063" y1="41.743" y2="7.1074" gradientTransform="scale(.665)" gradientUnits="userSpaceOnUse">
<stop style="stop-opacity:.99608" offset="0"/>
<stop style="stop-color:#353a3f;stop-opacity:.99608" offset="1"/>
</linearGradient>
</defs>
<rect x="2.1033" y="2.0073" width="27.986" height="28.404" ry="0" style="fill-rule:evenodd;fill:url(#linearGradient919)"/>
<g transform="matrix(.45153 0 0 .45153 4.3611 .20117)">
<path d="m25.99 4.9997c-4.3828 0.11698-6.9766 4.2702-8.8203 7.8574-0.341 0.18094-0.68381 0.35473-1.0234 0.54297-3.4799 2.3396-6.33 5.5782-8.5312 9.123-1.9363 3.4178-3.1107 7.2194-3.5469 11.115-0.25919 3.9498 0.19233 7.9746 1.6797 11.67 2.8156 6.3471 9.7862 13.749 16.244 13.67-1.3991-0.80893-4.9016-3.9799-5.998-9.9961 1.164 2.2798 6.4208 5.3021 7.998 5.9961-0.78357-0.73172-3.7919-5.1188-3.998-7.6953l-10.049-3.0898c-0.88629-2.8041-1.4153-5.7051-1.7383-8.6699-0.041247-0.66264-0.12351-1.3798 0.11523-1.2031 0.89309 1.4155 2.1235 1.8623 3.6738 2.666-1.4703-2.3125-2.1401-4.964-1.8984-7.7129 0.24252-2.7583 1.7987-5.4325 3.5078-7.4141 0.20277-0.23214 0.42967-0.45156 0.64062-0.67969 0.09139 0.70968 0.20849 1.4191 0.29102 2.1055-0.02454 0.53111 0.30171 1.6474 0.04687 1.7598-0.51408 1.553-1.0047 3.5561 0.22461 4.9121 0.38936-1.7552 2.3049-2.6016 3.8145-3.3398 1.7065-0.74086 3.0877-2.362 4.7773-3.1406 2.2265-1.2772 4.3762 0.52344 7.2363 0.52344 2.7344 0 5.6242-1.0001 8.3301-2.2168 0.62974 0.65144 1.7556 1.7094 2.248 2.4824h-0.0059c1.4104 2.2556 2.3878 4.8777 2.709 7.4512 0.40079 3.366 0.06449 6.7187-1.9258 9.2676-2.37e-4 4e-5 -0.01563 2e-3 -0.01563 2e-3 4.6e-5 0 0.01347-3.6e-5 0.01367 0 0.04102 0.0054 3.6112 0.25988 5.9922-2-1.6988 13.135-9.7528 20.156-13.994 21.99 5.4708 0.36818 9.6416-3.6592 9.9004-3.9141-0.6124 0.77104-2.4473 3.0434-3.9043 3.9141 3.6894-1.0331 6.1601-1.4087 8.4883-3.1074-8.71e-4 0 1.8915-1.03 3.8652-3.2812 0.26257-0.2995 0.71406-0.71361 0.98438-1.0547 0.16803-0.21203 0.32405-0.42954 0.48828-0.64258 0.02895-0.03502 0.06201-0.06994 0.08984-0.10547 4.1541-5.0818 6.1754-11.399 6.0254-17.125 0.029233-6.9407-2.7874-12.966-7.5195-17.947-3.4222-3.6021-7.3084-6.0047-10.809-7.1973-4.5349-1.3022-10.13-1.8569-14.133-1.0996-0.37902 0.12672 0.05761-2.0834 0.52539-2.416-0.95754 0.089637-1.9808 1.9059-2.8262 2.7832-0.0954 0.020465-0.17898 0.044007-0.26758 0.066406 0.52462-1.0631 0.27114-1.7789 1.0938-2.8496-2.3981 0.44772-2.869 2.0137-3.7012 3.5801-0.31566 0.10659-0.61936 0.23761-0.92969 0.35547 0.78782-2.6105 2.2212-3.9425 4.6309-5.9355z" style="opacity:.2"/>
<path d="m12.849 49.816c2.429 3.4935 5.5644 7.6096 9.1438 8.1615-1.3991-0.80893-4.901-3.9797-5.9975-9.9959 1.164 2.2798 6.4194 5.3035 7.9967 5.9975-0.78357-0.73172-3.7922-5.1203-3.9983-7.6968l-10.084-3.1002c0.06283 0.0956 0.28607 2.9014 2.9398 6.6339z" style="fill:#304776"/>
<path d="m48.757 25.978-18.182-6.3763-19.485 1.2984-4.9731 6.2061c0.88489 5.7369 0.3351 11.947 3.4167 16.959l34.451 10.912 4.7444-13.243z" style="opacity:.2"/>
<path d="m48.757 24.979-18.182-6.3763-19.485 1.2984-4.9731 6.2061c0.88489 5.7369 0.3351 11.947 3.4167 16.959l34.451 10.912 4.7444-13.243z" style="fill:#ebebeb"/>
<path d="m11.556 19.529 3.2828 0.46885 0.90126-4.3933-1.8025 0.87866z" style="fill-rule:evenodd;fill:#3f7da7"/>
<path d="m47.278 29.476-2.6976-8.8615-32.995-0.33115-0.18707 0.23051-0.30919 0.38757 12.911 18.098z" style="opacity:.2"/>
<path d="m47.278 28.476-2.6976-8.8615-32.995-0.33115-0.18707 0.23051-0.30919 0.38757 12.911 18.098z" style="fill:#f7f7f7"/>
<path d="m30.504 8.3352c-0.0034 7.917e-4 -4.1485 0.019972-5.9578 0.60097-3.015 0.69577-5.7199 1.9784-8.4 3.4638-3.4799 2.3396-6.3299 5.579-8.5311 9.1239-1.9363 3.4178-3.1096 7.2195-3.5458 11.115-0.25919 3.9498 0.19264 7.9746 1.68 11.67 2.8156 6.3471 9.7856 13.748 16.244 13.669-0.8203-0.12648-1.4449-0.95718-2.2154-1.4076-2.5917-1.5152-5.0561-4.061-6.9284-6.7539-2.6537-3.7325-2.8765-6.537-2.9393-6.6326l0.035511 0.011c-0.88663-2.8046-1.4143-5.705-1.7374-8.6705-0.041247-0.66264-0.12401-1.3813 0.11473-1.2047 0.89309 1.4155 2.124 1.8637 3.6744 2.6674-1.4703-2.3125-2.1409-4.964-1.8992-7.7128 0.24252-2.7583 1.7988-5.4323 3.5079-7.4138 4.4777-5.1262 11.011-9.2733 16.898-12.525z" style="fill:#2f67a4"/>
<path d="m30.504 8.3359c-0.0034 7.917e-4 -4.1496 0.018607-5.959 0.59961-3.015 0.69577-5.7184 1.9794-8.3984 3.4648-3.4799 2.3396-6.33 5.5782-8.5312 9.123-1.9363 3.4178-3.1107 7.2194-3.5469 11.115-0.05177 0.78893-0.066142 1.5814-0.058594 2.373 0.010456-0.45809 0.028624-0.91634 0.058594-1.373 0.43615-3.8958 1.6106-7.6975 3.5469-11.115 2.2012-3.5449 5.0513-6.7834 8.5312-9.123 2.6801-1.4854 5.3835-2.7691 8.3984-3.4648 1.0674-0.34274 2.707-0.46993 4.0703-0.5332 0.63368-0.3639 1.2663-0.72262 1.8887-1.0664z" style="fill:#fff;opacity:.1"/>
<path d="m25.991 4c-4.7374 0.12644-7.3978 4.9778-9.2647 8.7221-0.67247 1.1901-1.3695 2.6024-1.9569 3.7265-1.1242 1.7715-0.46435 3.899-0.23133 5.8371-0.02454 0.53111 0.30081 1.6462 0.04598 1.7585-0.51408 1.553-1.004 3.5569 0.22532 4.9129 0.38936-1.7552 2.3049-2.601 3.8145-3.3392 1.7065-0.74086 3.0877-2.3632 4.7774-3.1419 2.2265-1.2772 4.3764 0.524 7.2365 0.524 2.7344 0 5.6231-0.9997 8.329-2.2164 0.62974 0.65144 1.7561 1.7095 2.2485 2.4826h-7e-3c1.4104 2.2556 2.3883 4.8778 2.7094 7.4512 0.40079 3.366 0.06497 6.7172-1.9253 9.266-2.36e-4 4e-5 -0.01579 0.0034-0.01579 0.0034 4.6e-5 0 0.01379-3.6e-5 0.01399 0 0.04102 0.0054 3.6104 0.25901 5.9914-2.0009-1.6988 13.135-9.7529 20.157-13.994 21.991 5.6461 0.37998 9.9959-3.9983 9.9959-3.9983 0.82108-1.1694-1.9847 2.7951-3.9983 3.9983 3.6894-1.0331 6.1593-1.4085 8.4875-3.1073-8.71e-4 0 1.8919-1.0299 3.8656-3.2811 0.26257-0.2995 0.71368-0.71509 0.98399-1.0562 0.16803-0.21203 0.32336-0.42946 0.4876-0.6425 0.02895-0.03502 0.06195-0.06833 0.08978-0.10386 4.1541-5.0818 6.1772-11.4 6.0272-17.126 0.029178-6.9407-2.7878-12.966-7.5199-17.947-3.4222-3.6021-7.3088-6.0056-10.809-7.1982-4.5349-1.3022-10.13-1.8574-14.132-1.1001-0.37902 0.12672 0.056751-2.0836 0.52454-2.4162-1.1221 0.10505-2.3384 2.5924-3.2477 3.146 0.74622-1.2363 0.35089-1.9777 1.2485-3.146-3.3369 0.62298-2.9271 3.407-4.9785 5.3517 0.67584-3.6136 2.1661-5.0248 4.9785-7.3509z" style="fill:#4a96e1"/>
<path d="m17.815 25.959s0.35887-0.34632 0.1718-0.9796c-2.2371 0.73967-3.3356-1.4017-3.3278-1.4017 0.0076 0-1.676 4.4123 0.33364 6.4115 0.17409-1.6465 2.7392-3.944 2.747-3.944" style="fill:#5c5f60"/>
<circle cx="19" cy="20" r="1" style="fill:#5c5f60"/>
<path d="m25.99 4c-4.7374 0.12644-7.3967 4.9783-9.2637 8.7227-0.67247 1.1901-1.3696 2.6024-1.957 3.7266-0.58334 0.9192-0.67981 1.934-0.61133 2.9688 0.0511-0.68411 0.21772-1.3485 0.61133-1.9688 0.58738-1.1241 1.2846-2.5364 1.957-3.7266 1.6779-3.3651 4.0013-7.6132 7.8926-8.5332 0.42999-0.3843 0.85528-0.76283 1.3711-1.1895zm0 2c-3.1266 0.58372-2.988 3.0567-4.6426 4.9668-0.12719 0.42648-0.24175 0.88118-0.33594 1.3848 1.9275-1.8273 1.6845-4.3965 4.416-5.2168 0.10159-0.35309 0.23922-0.71398 0.5625-1.1348zm2 0c-0.91192 0.085367-1.8822 1.7309-2.7031 2.6465-0.098486 0.45525-0.19654 0.92085-0.54492 1.498 0.76674-0.46686 1.752-2.2949 2.7148-2.9238 0.12599-0.52963 0.32125-1.07 0.5332-1.2207zm2.7344 2.084c-1.1582 0.034097-2.2592 0.14271-3.2598 0.33203-0.02293 0.00767-0.04146 0.0046-0.05859-0.00391-0.11284 0.56298-0.12677 1.0659 0.05859 1.0039 4.0023-0.75727 9.5979-0.20262 14.133 1.0996 3.5002 1.1926 7.3864 3.5952 10.809 7.1973 4.7321 4.9808 7.5487 11.007 7.5195 17.947 0.0013 0.05112-9.93e-4 0.10308 0 0.1543 0.0093-0.38692 0.01001-0.77211 0-1.1543 0.029178-6.9407-2.7875-12.966-7.5195-17.947-3.4222-3.6021-7.3084-6.0047-10.809-7.1973-3.4012-0.97667-7.3984-1.5339-10.873-1.4316z" style="fill:#fff;opacity:.1"/>
</g>
<path transform="matrix(.5 0 0 .5 .066304 .016549)" d="m4.7043 3.9815-0.012938 56.82h53.904l1.0222-2.8664s-23.875 0.76639-32.844-4.1404c-10.516-5.7529-15.372-49.697-15.372-49.697z" style="fill:url(#linearGradient3403);mix-blend-mode:normal;stroke-linejoin:round;stroke-width:1.1624;stroke:url(#linearGradient20558)"/>
<rect transform="matrix(.46839 0 0 .46744 .90638 1.0269)" x="1.0324" y=".59551" width="62.567" height="62.867" rx="5.803" ry="6.2447" style="fill:none;stroke-linejoin:round;stroke-miterlimit:7.8;stroke-opacity:.99515;stroke-width:3.7137;stroke:url(#linearGradient4557)"/>
</svg>
