<svg width="32" height="32" version="1.1" viewBox="0 0 32 32" xmlns="http://www.w3.org/2000/svg" xmlns:xlink="http://www.w3.org/1999/xlink">
<defs>
<linearGradient id="linearGradient3403" x1="6.9492" x2="11.215" y1="4.5549" y2="59.052" gradientUnits="userSpaceOnUse">
<stop style="stop-color:#32373c" offset="0"/>
<stop style="stop-color:#1a1a1a" offset=".36805"/>
<stop style="stop-color:#31363b" offset="1"/>
</linearGradient>
<linearGradient id="linearGradient20558" x1="25.802" x2="25.111" y1="20.374" y2="58.913" gradientUnits="userSpaceOnUse">
<stop style="stop-color:#3d3d3d" offset="0"/>
<stop offset=".61772"/>
<stop style="stop-color:#3d3d3d" offset="1"/>
</linearGradient>
<linearGradient id="linearGradient4557" x1="43.5" x2="44.142" y1="64.012" y2=".30621" gradientTransform="translate(.36068 -.13017)" gradientUnits="userSpaceOnUse">
<stop style="stop-color:#141618" offset="0"/>
<stop style="stop-color:#686868" offset=".51821"/>
<stop style="stop-color:#31363b" offset="1"/>
</linearGradient>
<clipPath id="clipPath1129-3-7">
<rect x="5" y="5" width="38" height="38" rx="8.9062" ry="8.9062"/>
</clipPath>
<clipPath id="clipPath1123-5-5">
<rect x="5" y="5" width="38" height="38" rx="8.9062" ry="8.9062"/>
</clipPath>
<clipPath id="clipPath1117-6-6">
<rect x="5" y="5" width="38" height="38" rx="8.9062" ry="8.9062"/>
</clipPath>
<radialGradient id="radialGradient2463-1-6" cx="412" cy="741.36" r="40" gradientTransform="matrix(.12193 0 0 .12193 -26.266 -68.221)" gradientUnits="userSpaceOnUse">
<stop style="stop-color:#00b33b" offset="0"/>
<stop style="stop-color:#faffb7" offset="1"/>
</radialGradient>
<clipPath id="clipPath1157-0-0">
<rect x="5" y="5" width="38" height="38" rx="8.9062" ry="8.9062"/>
</clipPath>
<clipPath id="clipPath1149-0-5">
<rect x="5" y="5" width="38" height="38" rx="8.9062" ry="8.9062"/>
</clipPath>
<clipPath id="clipPath1105-1-5">
<rect x="5" y="5" width="38" height="38" rx="8.9062" ry="8.9062"/>
</clipPath>
<clipPath id="clipPath1099-9-3">
<rect x="5" y="5" width="38" height="38" rx="8.9062" ry="8.9062"/>
</clipPath>
<clipPath id="clipPath1093-2-5">
<rect x="5" y="5" width="38" height="38" rx="8.9062" ry="8.9062"/>
</clipPath>
<clipPath id="clipPath1081-5-4">
<rect x="5" y="5" width="38" height="38" rx="8.9062" ry="8.9062"/>
</clipPath>
<clipPath id="clipPath1075-2-4">
<rect x="5" y="5" width="38" height="38" rx="8.9062" ry="8.9062"/>
</clipPath>
</defs>
<rect x="2.3385" y="2.2009" width="27.662" height="28.075" ry="0" style="fill-rule:evenodd;fill:#ffb889"/>
<path transform="matrix(.49421 0 0 .49421 .32505 .23317)" d="m4.7043 3.9815-0.012938 56.82h53.904l1.0222-2.8664s-23.875 0.76639-32.844-4.1404c-10.516-5.7529-15.372-49.697-15.372-49.697z" style="fill:url(#linearGradient3403);mix-blend-mode:normal;stroke-linejoin:round;stroke-width:1.1624;stroke:url(#linearGradient20558)"/>
<rect transform="matrix(.46297 0 0 .46203 1.1554 1.2318)" x="1.0324" y=".59551" width="62.567" height="62.867" rx="5.803" ry="6.2447" style="fill:none;stroke-linejoin:round;stroke-miterlimit:7.8;stroke-opacity:.99515;stroke-width:3.7137;stroke:url(#linearGradient4557)"/>
<g transform="translate(-72.688 2.3398)">
<g transform="translate(76.97 -1.6585)">
<path transform="matrix(.52856 0 0 .52856 .60705 2.7193)" d="m11.105 16.199c-1.3776 0.78758-1.2803 5.1211-1.2803 6.7061s1.707 3.414 3.6579 4.3895c1.9509 0.97544 5.1211 3.1702 7.1939 3.536 2.0728 0.36579 5.182 0.76206 6.1575 0.85351 0.97544 0.09145 3.9713-0.28555 6.5842-2.6215 3.8093-3.4056 2.5337-7.1315 7.2548-9.7544 3.8408-2.1338 2.3329-2.8584 2.2283-4.6884-0.12193-2.1338-0.46031-2.1397-2.1673-2.5664-1.5355-0.38387-6.5232-0.97544-9.0228-0.36579-2.4996 0.60965-5.3525 1.9762-6.8281 2.5605-5.6723 2.2461-6.4394-2.2446-13.778 1.9509z" clip-path="url(#clipPath1129-3-7)" style="fill-rule:evenodd;fill:#fff"/>
<path transform="matrix(.52856 0 0 .52856 .60705 2.7193)" d="m25.497 12.787c0.32335 1.0004 1.4167 0.73547 3.1427 0.1862 0.48567-0.16675 2.0606-0.87404 4.1967-1.2049 2.2837-0.35378 1.9793-0.33039 5.0475 0.01779 2.2614 0.25664 3.873 1.1413 4.0054 0.31056 0.16012-1.0047-2.0195-2.3675-4.0078-2.6972-1.8009-0.29855-4.7862-0.71448-8.1452 0.72046-1.653 0.70613-4.611 1.517-4.2393 2.6671z" clip-path="url(#clipPath1123-5-5)" style="fill-rule:evenodd;stroke-width:.12193px;stroke:#000"/>
<path transform="matrix(.52856 0 0 .52856 .60705 2.7193)" d="m22.231 18.302c-0.73158 0.39627-2.7434 2.2557-3.6274 2.3472-0.88399 0.09145-1.2498-0.39627-1.9814-0.12193-0.73158 0.27434-4.5419 1.4632-4.9991 1.768-0.45724 0.30482-0.60965 0.91447-0.30482 1.1888 0.30482 0.27434 4.0542 0.5182 4.5724 0.79254 0.5182 0.27434 3.5969 1.7985 4.4809 1.768 0.88399-0.03048 4.1456 0.24386 5.3954-0.27434 1.2498-0.5182 3.3836-3.7493 4.5114-4.5724 1.1279-0.82303 2.4386-1.8594 3.6884-2.2252 1.2498-0.36579 2.7129-1.3412 3.2616-2.0728 0.54868-0.73158 0.7011-1.4022 0-1.5546-0.7011-0.15241-1.6765 0.76206-2.53 0.94496s-3.5969 0.1829-5.243 0c-1.6461-0.1829-7.1634 2.0728-7.2243 2.0118z" clip-path="url(#clipPath1117-6-6)" style="fill-rule:evenodd"/>
<circle transform="matrix(.52856 0 0 .52856 .60705 2.7193)" cx="23.969" cy="22.173" r="4.8772" clip-path="url(#clipPath1157-0-0)" style="fill:url(#radialGradient2463-1-6)"/>
<circle transform="matrix(.52856 0 0 .52856 .60705 2.7193)" cx="23.969" cy="22.173" r="1.2193" clip-path="url(#clipPath1149-0-5)" style="stroke-linecap:round;stroke-width:.12193;stroke:#000"/>
<path transform="matrix(.52856 0 0 .52856 .60705 2.7193)" d="m32.189 16.175c-2.5817-0.61958-5.8469 0.03715-7.7346 0.49508-1.7304 0.41978-3.3551 1.3465-4.019 1.9883-0.35307 0.34132-1.0985 0.99128-1.4944 1.1807-0.30008 0.14362-0.72456 0.18349-1.1447 0.12215-0.54571-0.07966-0.9648-0.44322-1.1578-1.1107-0.24587-0.85025-0.46916-1.5835-0.14554-2.5324 0.04524-0.12731-0.02129-0.2672-0.14861-0.31244-0.12731-0.04524-0.2672 0.02129-0.31245 0.14861-0.44709 1.2519-0.47809 2.484-0.15622 3.4521 0.32186 0.96812 1.0264 1.6849 1.9966 1.787 0.65679 0.06917 1.1882-0.05795 1.6461-0.30482 0.45786-0.24686 0.84448-0.6032 1.2803-0.98686 0.87158-0.76733 1.9315-1.6768 4.0618-2.2519 4.4711-1.207 2.4389-1.0962 7.3401-1.1873 0.13468-0.0032 0.2413-0.11489 0.23815-0.24958-0.0032-0.13467-0.11491-0.2413-0.24958-0.23814z" clip-path="url(#clipPath1105-1-5)" style="fill-rule:evenodd"/>
<path transform="matrix(.52856 0 0 .52856 .60705 2.7193)" d="m36.913 15c-0.25494 0.03816-0.50332 0.14383-0.76588 0.26672-1.3033 0.78748-2.5844 0.89444-4.0618 0.79254-0.9228-0.06438-1.9051-0.15583-2.7701-0.06477-1.7079 0.17978-2.8882 0.90685-2.8882 0.90685l0.32007 0.5182s1.0646-0.65412 2.6329-0.81922c0.77311-0.08138 1.7325 0 2.6634 0.06478 0.93087 0.06494 1.8311 0.12111 2.5567-0.0724 0.69878-0.18633 1.3181-0.54509 1.8061-0.77349 0.24397-0.1142 0.45329-0.19226 0.59441-0.21338 0.14112-0.02112 0.18176-0.0088 0.23624 0.04572 0.0964 0.0964 0.13485 0.17518 0.14861 0.2591 0.01374 0.08392 4e-3 0.18905-0.06858 0.34293-0.14533 0.30775-0.54738 0.76928-1.265 1.3603-0.67496 0.55585-1.6166 0.89878-2.6558 1.2993-1.0392 0.40054-2.1088 0.94972-3.2083 1.7184-1.2116 0.84717-1.2895 1.7143-2.6414 2.9294-0.85201 0.76582-1.8981 1.8341-3.1503 1.9815-3.6195 0.42583-4.5665-0.43185-6.8928-0.97862-1.4724-0.34608-2.9232-0.808-4.1494-0.91828-0.61311-0.05514-1.1434-0.11092-1.4784-0.21338-0.16752-0.05124-0.28129-0.11452-0.33912-0.16765-0.05782-0.05314-0.07333-0.08494-0.07621-0.16765-9e-3 -0.26064 0.05028-0.3446 0.2553-0.47629 0.20501-0.13168 0.57662-0.25121 1.0631-0.37722 0.97293-0.25202 2.3965-0.56041 4.0008-1.4555l-0.2972-0.53344c-1.5227 0.84962-2.8612 1.1407-3.856 1.3984-0.4974 0.12884-0.91377 0.24249-1.2422 0.45343-0.32838 0.21094-0.54853 0.5794-0.53344 1.0135 8e-3 0.2307 0.11544 0.44838 0.27434 0.59441 0.15891 0.14602 0.35307 0.23419 0.57155 0.30101 0.43697 0.13365 0.9838 0.1808 1.6003 0.23624 1.2331 0.11088 2.7336 0.23778 3.9246 0.85351 2.3335 1.2064 4.2279 2.5359 7.9369 2.0996 1.4931-0.17566 3.2559-1.5014 3.9943-2.6146 0.73837-1.1133 1.2893-1.9864 2.244-2.7075 0.67438-0.50939 1.2821-1.2119 2.3121-1.9442 0.89965-0.63961 1.9374-1.2006 2.7282-1.8518 0.74805-0.61604 1.2078-1.1054 1.4289-1.5737 0.11054-0.23411 0.15938-0.47249 0.12193-0.7011-0.03744-0.22861-0.15781-0.42834-0.32007-0.5906-0.20417-0.20416-0.4995-0.25915-0.75444-0.221z" clip-path="url(#clipPath1099-9-3)" style="fill-rule:evenodd"/>
<path transform="matrix(.52856 0 0 .52856 .60705 2.7193)" d="m23.44 4.7025s-1.4687 4.1002-1.7772 4.8919c-0.45235 1.1609-2.2853 3.0239-1.2535 3.925 0.54141 0.47283 1.496-0.69359 1.8242-1.1851 1.2385-1.8548 0.24074-0.44292 2.3784-4.8175 0.49933-1.0219 1.0588-2.1796 0.11677-2.4476z" clip-path="url(#clipPath1093-2-5)" style="fill-rule:evenodd;stroke-width:.12193px;stroke:#000"/>
<path transform="matrix(.52856 0 0 .52856 .60705 2.7193)" d="m14.686 4.8284s1.4604 5.1166 2.4088 5.3753c0.94841 0.25865-1.6067-3.5595-0.59485-5.3753h3.3551z" clip-path="url(#clipPath1081-5-4)" style="fill-rule:evenodd;stroke-width:.12193px;stroke:#000"/>
<path transform="matrix(.52856 0 0 .52856 .60705 2.7193)" d="m15.14 36.598c3.2324 1.8028 8.779 4.0237 14.266 2.3167 5.4868-1.707 8.4132-2.8044 11.705-7.0719 3.2921-4.2675 2.4535 0.5796 1.8439 2.0428-0.60965 1.4632-1.9658 3.0783-4.1606 4.6634-2.1947 1.5851-10.869 4.2622-15.485 3.536-5.4259-0.85351-10.242-4.1456-10.852-4.7553-0.60965-0.60965-1.9509-1.4632-1.2193-2.3167 0.73158-0.85351 3.0501 1.1101 3.9018 1.5851z" clip-path="url(#clipPath1075-2-4)" style="fill-rule:evenodd;stroke-width:.12193px;stroke:#000"/>
</g>
</g>
</svg>
