<svg width="32" height="32" version="1.1" viewBox="0 0 32 32" xmlns="http://www.w3.org/2000/svg" xmlns:xlink="http://www.w3.org/1999/xlink">
<defs>
<linearGradient id="linearGradient3403" x1="6.9492" x2="11.215" y1="4.5549" y2="59.052" gradientUnits="userSpaceOnUse">
<stop style="stop-color:#32373c" offset="0"/>
<stop style="stop-color:#1a1a1a" offset=".36805"/>
<stop style="stop-color:#31363b" offset="1"/>
</linearGradient>
<linearGradient id="linearGradient20558" x1="25.802" x2="25.111" y1="20.374" y2="58.913" gradientUnits="userSpaceOnUse">
<stop style="stop-color:#3d3d3d" offset="0"/>
<stop offset=".61772"/>
<stop style="stop-color:#3d3d3d" offset="1"/>
</linearGradient>
<linearGradient id="linearGradient4557" x1="43.5" x2="44.142" y1="64.012" y2=".30621" gradientTransform="translate(.36068 -.13017)" gradientUnits="userSpaceOnUse">
<stop style="stop-color:#141618" offset="0"/>
<stop style="stop-color:#686868" offset=".51821"/>
<stop style="stop-color:#31363b" offset="1"/>
</linearGradient>
<linearGradient id="b" x1="22.54" x2="36.896" y1="23.775" y2="37.804" gradientUnits="userSpaceOnUse">
<stop stop-color="#292c2f" offset="0"/>
<stop stop-color="#292c2f" stop-opacity="0" offset="1"/>
</linearGradient>
<linearGradient id="linearGradient1447" x1="20.01" x2="4.01" y1="42.557" y2="26.557" gradientTransform="translate(5.1808 -1.2604)" gradientUnits="userSpaceOnUse">
<stop stop-color="#cd1f03" offset="0"/>
<stop stop-color="#d94460" offset="1"/>
</linearGradient>
<linearGradient id="linearGradient1207" x1="47.038" x2="13.139" y1="8.7202" y2="55.388" gradientTransform="matrix(.49033 0 0 .49033 .38596 .32245)" gradientUnits="userSpaceOnUse">
<stop style="stop-color:#ffb380" offset="0"/>
<stop style="stop-color:#ffb5ff" offset="1"/>
</linearGradient>
</defs>
<rect x="2.339" y="2.2014" width="27.671" height="28.084" ry="0" style="fill-rule:evenodd;fill:url(#linearGradient1207)"/>
<g transform="matrix(.76852 0 0 .76852 -1.349 -5.4763)">
<path d="m35.538 14.568c-1.381 0-2.5 1.119-2.5 2.5 0 1.208 0.861 2.204 2 2.438v0.031l-2.938 2.844 0.688 0.719 2.25-2.188v1.625l-2.156 4.5 0.906 0.438 1.75-3.688 1.75 3.688 0.906-0.438-2.156-4.5v-1.625l2.25 2.188 0.688-0.719-2.938-2.875c1.139-0.233 2-1.229 2-2.438 0-1.381-1.119-2.5-2.5-2.5m0 1c0.828 0 1.5 0.672 1.5 1.5s-0.672 1.5-1.5 1.5-1.5-0.672-1.5-1.5 0.672-1.5 1.5-1.5" fill="#d5363e"/>
<path d="m20.18 27.294-4e-3 0.455c-1.26 0.095-2.462 0.39-3.548 1-1.849 0.988-3.104 3.854-3.173 5.848 4e-3 0.182-0.039 0.386 0.035 0.554 0.176 0.227 0.596 0.295 0.782 0.042 0.479-0.553 1.221-0.94 1.999-0.901 0.727-0.037 1.399 0.357 1.823 0.885 0.153 0.2 0.479 0.253 0.679 0.087 0.241-0.226 0.454-0.487 0.75-0.66 0.211-0.132 0.446-0.225 0.694-0.27 0.043 1.737-2e-3 2.503 7e-3 4.24 0.015 0.287-0.059 0.572-0.261 0.792-0.358 0.454-1.062 0.622-1.604 0.359-0.428-0.192-0.709-0.612-0.732-1.051-0.021-0.217-0.175-0.44-0.428-0.455-0.284-0.036-0.535 0.215-0.496 0.476-0.017 0.952 0.792 1.812 1.779 1.992 1.06 0.222 2.223-0.4 2.558-1.36 0.19-0.517 0.088-1.072 0.12-1.608 8e-3 -1.454-0.022-1.937 0.023-3.391 0.582 0.112 1.053 0.499 1.414 0.918 0.205 0.184 0.564 0.143 0.717-0.081 0.342-0.419 0.831-0.754 1.394-0.843 0.727-0.139 1.469 0.129 2.02 0.568 0.215 0.135 0.375 0.358 0.617 0.452 0.312 0.092 0.691-0.175 0.611-0.492 0.01-1.853-0.985-4.638-2.579-5.728-1.105-0.767-2.451-1.201-3.818-1.334-0.127-0.022-0.256-0.014-0.368-0.045l-9e-3 -0.452c5e-3 -0.69-0.979-0.68-1 0m4.86 2.943c0.619 0.472 1.452 2.099 1.656 3.208-0.61-0.359-1.113-0.358-1.843-0.29-0.727 0.048-1.413 0.636-1.934 1.105-0.627-0.568-1.498-1.17-2.381-1.108-0.771 0.019-1.502 0.353-2.056 0.841-0.841-0.777-2.161-1.06-3.287-0.696-0.245 0.074-0.502 0.108-0.525-0.101 0.308-1.457 2.035-3.202 2.697-3.58 0.692-0.356 2.164-0.91 3.385-0.866 1.596-0.084 3.588 0.845 4.288 1.489" fill="url(#b)" style="fill:url(#linearGradient1447)"/>
<path d="m38.988 35.239-3.3379-3.3352c-0.0313-0.0313-0.0737-0.0487-0.11813-0.0487-0.0443 0-0.0868 0.0177-0.11811 0.049l-3.3279 3.3349c-0.0477 0.0477-0.0618 0.11929-0.036 0.18161 0.0261 0.0623 0.0868 0.10261 0.15414 0.10261h1.8351v4.1653c0 0.092 0.0747 0.16662 0.16683 0.16662h2.6693c0.0921 0 0.16684-0.0746 0.16684-0.16662v-4.1653h1.8281c0.0674 0 0.12814-0.0407 0.15416-0.10295 0.0261-0.0623 0.0113-0.13361-0.0363-0.18127z" style="fill:#d5363e;stroke-width:.01563"/>
<path d="m17.255 19.085 3.338 3.3352c0.03131 0.0313 0.07372 0.0487 0.11812 0.0487 0.04434 0 0.08677-0.0177 0.11811-0.049l3.328-3.3349c0.04772-0.0477 0.06175-0.11929 0.03612-0.18163-0.02608-0.0623-0.08677-0.1026-0.15416-0.1026h-1.8352v-4.1653c0-0.092-0.07471-0.16662-0.16684-0.16662h-2.6693c-0.09211 0-0.16684 0.0746-0.16684 0.16662v4.1653h-1.8281c-0.06739 0-0.12813 0.0407-0.15416 0.10294-0.02608 0.0623-0.0113 0.13361 0.03632 0.18127z" style="fill:#d5363e;stroke-width:.01563"/>
</g>
<path transform="matrix(.49437 0 0 .49437 .32491 .23304)" d="m4.7043 3.9815-0.012938 56.82h53.904l1.0222-2.8664s-23.875 0.76639-32.844-4.1404c-10.516-5.7529-15.372-49.697-15.372-49.697z" style="fill:url(#linearGradient3403);mix-blend-mode:normal;stroke-linejoin:round;stroke-width:1.1624;stroke:url(#linearGradient20558)"/>
<rect transform="matrix(.46312 0 0 .46218 1.1555 1.232)" x="1.0324" y=".59551" width="62.567" height="62.867" rx="5.803" ry="6.2447" style="fill:none;stroke-linejoin:round;stroke-miterlimit:7.8;stroke-opacity:.99515;stroke-width:3.7137;stroke:url(#linearGradient4557)"/>
</svg>
