<svg width="32" height="32" version="1.1" viewBox="0 0 32 32" xmlns="http://www.w3.org/2000/svg" xmlns:xlink="http://www.w3.org/1999/xlink">
<defs>
<linearGradient id="linearGradient3403" x1="6.9492" x2="11.215" y1="4.5549" y2="59.052" gradientUnits="userSpaceOnUse">
<stop style="stop-color:#32373c" offset="0"/>
<stop style="stop-color:#1a1a1a" offset=".36805"/>
<stop style="stop-color:#31363b" offset="1"/>
</linearGradient>
<linearGradient id="linearGradient20558" x1="25.802" x2="25.111" y1="20.374" y2="58.913" gradientUnits="userSpaceOnUse">
<stop style="stop-color:#3d3d3d" offset="0"/>
<stop offset=".61772"/>
<stop style="stop-color:#3d3d3d" offset="1"/>
</linearGradient>
<linearGradient id="linearGradient4557" x1="43.5" x2="44.142" y1="64.012" y2=".30621" gradientTransform="translate(.36068 -.13017)" gradientUnits="userSpaceOnUse">
<stop style="stop-color:#141618" offset="0"/>
<stop style="stop-color:#686868" offset=".51821"/>
<stop style="stop-color:#31363b" offset="1"/>
</linearGradient>
<linearGradient id="b" x2="0" y1="44" y2="4" gradientUnits="userSpaceOnUse">
<stop stop-color="#c6cdd1" offset="0"/>
<stop stop-color="#e0e5e7" offset="1"/>
</linearGradient>
<linearGradient id="a" x2="0" y1="543.8" y2="503.8" gradientTransform="matrix(1 0 0 .9 0 54.38)" gradientUnits="userSpaceOnUse">
<stop stop-color="#1d1e1e" offset="0"/>
<stop stop-color="#44484c" offset="1"/>
</linearGradient>
</defs>
<g transform="matrix(.70483 0 0 .69723 -271.92 -349.03)">
<path transform="translate(384.57,499.8)" d="m4 4v40h40v-40z" style="fill:url(#b);stroke-opacity:.55;stroke-width:2.8"/>
<rect x="388.57" y="542.8" width="40" height="1" style="fill:#99a1a7"/>
<path d="m402.57 514.8v15l12-7.5z" style="fill-rule:evenodd;fill:#eff0f1"/>
<rect x="388.57" y="508.8" width="40" height="31" rx="0" style="fill:url(#a)"/>
<g transform="translate(-51,-7)">
<rect x="439.57" y="510.8" width="40" height="4" style="fill:#566069"/>
<rect x="439.57" y="514.8" width="40" height="1" style="fill:#3daee9"/>
<rect x="476.57" y="511.8" width="2" height="2" rx="1" style="fill:#eff0f1"/>
</g>
<g style="color:#000000;stroke-linecap:round;stroke-linejoin:round;stroke-width:3">
<circle cx="395.07" cy="533.3" r="3.5" style="fill:#eff0f1"/>
<circle cx="395.07" cy="533.3" r="2.5" style="fill:#3daefd"/>
<circle cx="395.07" cy="524.3" r="3.5" style="fill:#eff0f1"/>
<circle cx="395.07" cy="524.3" r="2.5" style="fill:#3daefd"/>
</g>
<g style="fill:#da4453">
<rect x="399.57" y="513.8" width="2" height="1"/>
<rect x="402.57" y="513.8" width="3" height="1"/>
</g>
<g style="fill:#95a5a6">
<rect x="408.57" y="513.8" width="3" height="1"/>
<rect x="413.57" y="513.8" width="6" height="1"/>
<rect x="420.57" y="513.8" width="4" height="1"/>
</g>
<g style="fill:#bdc3c7">
<rect x="399.57" y="515.8" width="4" height="1"/>
<rect x="404.57" y="515.8" width="2" height="1"/>
</g>
<rect x="408.57" y="515.8" width="8" height="1" style="fill:#95a5a6"/>
<g style="fill:#3daefd">
<rect x="399.57" y="522.8" width="2" height="1"/>
<rect x="402.57" y="522.8" width="3" height="1"/>
</g>
<g style="fill:#95a5a6">
<rect x="408.57" y="522.8" width="4" height="1"/>
<rect x="414.57" y="522.8" width="4" height="1"/>
<rect x="419.57" y="522.8" width="5" height="1"/>
</g>
<rect x="399.57" y="524.8" width="3" height="1" style="fill:#bdc3c7"/>
<g style="fill:#95a5a6">
<rect x="408.57" y="524.8" width="3" height="1"/>
<rect x="412.57" y="524.8" width="1" height="1"/>
<rect x="414.57" y="524.8" width="5" height="1"/>
<g transform="scale(-1,1)">
<rect x="-419.57" y="533.8" width="2" height="1"/>
<rect x="-416.57" y="533.8" width="8" height="1"/>
</g>
</g>
<g transform="scale(-1,1)">
<rect x="-406.57" y="533.8" width="7" height="1" style="fill:#bdc3c7"/>
<g style="fill:#95a5a6">
<rect x="-424.57" y="531.8" width="2" height="1"/>
<rect x="-421.57" y="531.8" width="3" height="1"/>
<rect x="-417.57" y="531.8" width="9" height="1"/>
</g>
<rect x="-404.57" y="531.8" width="5" height="1" style="fill:#3daefd"/>
</g>
<g style="fill-rule:evenodd">
<path d="m395.07 511.72-3.501 1.467s0.416 1.902 0.867 3c0.225 0.551 0.5 1.121 0.889 1.617s0.965 0.99 1.745 0.99 1.354-0.494 1.743-0.99 0.664-1.066 0.889-1.617c0.451-1.102 0.869-3 0.869-3z" style="color-rendering:auto;color:#000000;fill:#eff0f1;image-rendering:auto;shape-rendering:auto;stroke-width:2"/>
<path d="m392.57 513.8 2.5-1 2.5 1s-0.928 4-2.5 4-2.5-4-2.5-4" style="fill:#da4453"/>
</g>
</g>
<path transform="matrix(.49398 0 0 .49398 .32526 .23336)" d="m4.7043 3.9815-0.012938 56.82h53.904l1.0222-2.8664s-23.875 0.76639-32.844-4.1404c-10.516-5.7529-15.372-49.697-15.372-49.697z" style="fill:url(#linearGradient3403);mix-blend-mode:normal;stroke-linejoin:round;stroke-width:1.1624;stroke:url(#linearGradient20558)"/>
<rect transform="matrix(.46275 0 0 .4618 1.1552 1.2315)" x="1.0324" y=".59551" width="62.567" height="62.867" rx="5.803" ry="6.2447" style="fill:none;stroke-linejoin:round;stroke-miterlimit:7.8;stroke-opacity:.99515;stroke-width:3.7137;stroke:url(#linearGradient4557)"/>
</svg>
