<svg width="32" height="32" version="1.1" viewBox="0 0 32 32" xmlns="http://www.w3.org/2000/svg" xmlns:xlink="http://www.w3.org/1999/xlink">
<defs>
<linearGradient id="linearGradient3403" x1="6.9492" x2="11.215" y1="4.5549" y2="59.052" gradientUnits="userSpaceOnUse">
<stop style="stop-color:#32373c" offset="0"/>
<stop style="stop-color:#1a1a1a" offset=".36805"/>
<stop style="stop-color:#31363b" offset="1"/>
</linearGradient>
<linearGradient id="linearGradient20558" x1="25.802" x2="25.111" y1="20.374" y2="58.913" gradientUnits="userSpaceOnUse">
<stop style="stop-color:#3d3d3d" offset="0"/>
<stop offset=".61772"/>
<stop style="stop-color:#3d3d3d" offset="1"/>
</linearGradient>
<linearGradient id="linearGradient4557" x1="43.5" x2="44.142" y1="64.012" y2=".30621" gradientTransform="translate(.36068 -.13017)" gradientUnits="userSpaceOnUse">
<stop style="stop-color:#141618" offset="0"/>
<stop style="stop-color:#686868" offset=".51821"/>
<stop style="stop-color:#31363b" offset="1"/>
</linearGradient>
<linearGradient id="linearGradient919" x1="7.4006" x2="33.063" y1="41.743" y2="7.1074" gradientTransform="scale(.665)" gradientUnits="userSpaceOnUse">
<stop style="stop-color:#1a87f3" offset="0"/>
<stop style="stop-color:#1fb0f8" offset="1"/>
</linearGradient>
</defs>
<rect x="2.1033" y="2.0073" width="27.986" height="28.404" ry="0" style="fill-rule:evenodd;fill:url(#linearGradient919)"/>
<path d="m14.939 2.9945c-0.36863 0-0.68346 0.12736-0.94293 0.38761a1.2894 1.2894 0 0 0-0.3892 0.94135c0 0.36784 0.12973 0.68188 0.3892 0.93976a1.2862 1.2862 0 0 0 0.94214 0.39236c0.36863 0 0.6803-0.13052 0.93976-0.39236 0.25946-0.25788 0.39236-0.57193 0.39236-0.93897 0-0.25313-0.0617-0.48096-0.1851-0.68109a1.3922 1.3922 0 0 0-0.20725-0.26105 1.276 1.276 0 0 0-0.93897-0.38761zm3.4031 0c-0.36784 0-0.68267 0.12736-0.94214 0.38761-0.26104 0.26105-0.3892 0.57509-0.3892 0.94135 0 0.36784 0.12815 0.68188 0.3892 0.93976a1.2862 1.2862 0 0 0 0.94214 0.39236c0.36704 0 0.67872-0.13052 0.93976-0.39236 0.25946-0.25788 0.3892-0.57193 0.3892-0.93897a1.2934 1.2934 0 0 0-0.3892-0.94214 1.2815 1.2815 0 0 0-0.93976-0.38761zm3.4039 0c-0.36942 0-0.68267 0.12736-0.94372 0.38761a1.2894 1.2894 0 0 0-0.3892 0.94135c0 0.36784 0.12973 0.68188 0.3892 0.93976a1.2862 1.2862 0 0 0 0.94372 0.39236 1.2736 1.2736 0 0 0 0.93818-0.39236 1.2736 1.2736 0 0 0 0.39078-0.93897 1.2807 1.2807 0 0 0-0.39078-0.94214 1.2752 1.2752 0 0 0-0.93818-0.38761zm-10.209 3.5866c-0.36863 0-0.68267 0.12894-0.94372 0.38999a1.2815 1.2815 0 0 0-0.38761 0.94135c0 0.36625 0.12736 0.6803 0.38761 0.94055a1.2894 1.2894 0 0 0 0.94372 0.39078c0.36704 0 0.6803-0.13131 0.93897-0.39078 0.26104-0.26025 0.39315-0.5743 0.39315-0.94135 0-0.25313-0.06328-0.48096-0.18906-0.68267a1.3685 1.3685 0 0 0-0.20409-0.25788 1.2736 1.2736 0 0 0-0.93897-0.38999zm13.61 0c-0.36863 0-0.68109 0.12894-0.94134 0.38999-0.26104 0.25946-0.3892 0.57351-0.3892 0.94135 0 0.36625 0.12815 0.6803 0.38999 0.94055a1.2839 1.2839 0 0 0 0.94135 0.39078c0.36625 0 0.67872-0.13131 0.93976-0.39078 0.26026-0.26025 0.38999-0.5743 0.38999-0.94135a1.2894 1.2894 0 0 0-0.38999-0.94134 1.2799 1.2799 0 0 0-0.94055-0.3892zm-10.208 3.5882c-0.36863 0-0.68346 0.12815-0.94293 0.3892a1.2831 1.2831 0 0 0-0.3892 0.94134c0 0.36784 0.12973 0.6803 0.3892 0.94134 0.0799 0.08069 0.16612 0.1503 0.25788 0.20567 0.20251 0.12261 0.43112 0.18431 0.68505 0.18431 0.36784 0 0.67951-0.13131 0.93897-0.3892a1.2894 1.2894 0 0 0 0.39236-0.94293 1.2791 1.2791 0 0 0-0.39236-0.94134 1.272 1.272 0 0 0-0.93897-0.3884zm3.4031 0c-0.36784 0-0.68267 0.12815-0.94214 0.3892-0.26104 0.25946-0.3892 0.5743-0.3892 0.94134 0 0.36784 0.12815 0.6803 0.3892 0.94134 0.0799 0.08069 0.16612 0.1503 0.25788 0.20567 0.20251 0.12261 0.43112 0.18431 0.68426 0.18431 0.36704 0 0.67872-0.13131 0.93976-0.3892 0.25946-0.26104 0.3892-0.5743 0.3892-0.94293a1.2934 1.2934 0 0 0-0.3892-0.94134 1.2767 1.2767 0 0 0-0.93976-0.3884zm3.4039 0a1.2815 1.2815 0 0 0-0.94372 0.3892 1.2831 1.2831 0 0 0-0.3892 0.94134c0 0.36784 0.12973 0.6803 0.3892 0.94134a1.2989 1.2989 0 0 0 0.94372 0.3892c0.36704 0 0.67872-0.13052 0.93818-0.3884 0.26104-0.26104 0.39078-0.5743 0.39078-0.94293a1.2807 1.2807 0 0 0-0.39078-0.94134 1.2704 1.2704 0 0 0-0.93818-0.3884zm-3.4039 3.5874c-0.36784 0-0.68267 0.12973-0.94214 0.3892-0.26104 0.25946-0.3892 0.5743-0.3892 0.94134 0 0.36784 0.12815 0.68267 0.3892 0.94135a1.2862 1.2862 0 0 0 0.94214 0.39078 1.2894 1.2894 0 0 0 0.93976-0.38998c0.25946-0.25946 0.3892-0.5743 0.3892-0.94293a1.2878 1.2878 0 0 0-0.3892-0.94055 1.2823 1.2823 0 0 0-0.93976-0.3892zm0 3.5874c-0.36784 0-0.68267 0.13131-0.94214 0.38919a1.2815 1.2815 0 0 0-0.3892 0.94293c0 0.36625 0.12815 0.6803 0.3892 0.94055a1.2862 1.2862 0 0 0 0.94214 0.39078c0.36704 0 0.67872-0.13131 0.93976-0.39078 0.25946-0.25946 0.3892-0.5743 0.3892-0.94134a1.2934 1.2934 0 0 0-0.3892-0.94134 1.2878 1.2878 0 0 0-0.93976-0.38999zm0 3.589a1.2894 1.2894 0 0 0-0.94214 0.38761 1.2815 1.2815 0 0 0-0.3892 0.94293c0 0.36626 0.12815 0.68109 0.3892 0.94134a1.2862 1.2862 0 0 0 0.94214 0.39078c0.36704 0 0.67872-0.1321 0.93976-0.39157 0.25946-0.25946 0.3892-0.5743 0.3892-0.94134a1.2934 1.2934 0 0 0-0.3892-0.94134 1.287 1.287 0 0 0-0.93976-0.3884zm-3.4031 3.5874a1.2894 1.2894 0 0 0-0.94293 0.38761 1.2894 1.2894 0 0 0-0.3892 0.94293c0 0.36626 0.12973 0.68109 0.3892 0.94134a1.2862 1.2862 0 0 0 0.94214 0.39078c0.36863 0 0.6803-0.1321 0.93976-0.39157 0.25946-0.25946 0.39236-0.5743 0.39236-0.94135a1.2878 1.2878 0 0 0-0.39236-0.94134 1.2815 1.2815 0 0 0-0.93897-0.38761zm3.4031 0a1.2894 1.2894 0 0 0-0.94214 0.38761c-0.26104 0.26104-0.3892 0.57588-0.3892 0.94293 0 0.36626 0.12815 0.68109 0.3892 0.94134a1.2862 1.2862 0 0 0 0.94214 0.39078c0.36704 0 0.67872-0.1321 0.93976-0.39157 0.25946-0.25946 0.3892-0.5743 0.3892-0.94135a1.2934 1.2934 0 0 0-0.3892-0.94134 1.287 1.287 0 0 0-0.93976-0.38761z" fill="#fff" style="stroke-width:.79104"/>
<path d="m19.488 3.6416c0.12182 0.20172 0.18352 0.42875 0.18352 0.68267 0 0.36705-0.12973 0.68109-0.3892 0.93897-0.26104 0.26105-0.57272 0.39315-0.93976 0.39315-0.25314 0-0.48254-0.061701-0.68426-0.1859 0.05537 0.09097 0.12419 0.1764 0.20409 0.2563 0.25946 0.26025 0.5743 0.39236 0.94214 0.39236 0.36863 0 0.6803-0.1321 0.93976-0.39236 0.25946-0.25788 0.39078-0.57272 0.39078-0.94135 0-0.36625-0.13131-0.6803-0.39078-0.94055a1.4089 1.4089 0 0 0-0.2563-0.2033zm3.4015 0c0.12419 0.20172 0.1859 0.42875 0.1859 0.68267 0 0.36705-0.12973 0.68109-0.39078 0.93897a1.2736 1.2736 0 0 1-0.93818 0.39315c-0.25314 0-0.48254-0.061701-0.68426-0.1859 0.05537 0.09097 0.12419 0.1764 0.20409 0.2563 0.25946 0.26025 0.5743 0.39236 0.94214 0.39236 0.36704 0 0.67872-0.1321 0.93976-0.39236 0.25946-0.25946 0.3892-0.57351 0.3892-0.94135 0-0.36625-0.12973-0.6803-0.3892-0.94055a1.3685 1.3685 0 0 0-0.25867-0.2033zm-6.8038 0.00158c0.1234 0.20013 0.1851 0.42716 0.1851 0.6803 0 0.36784-0.1329 0.68188-0.39236 0.93976-0.25946 0.26105-0.57114 0.39315-0.93897 0.39315-0.25314 0-0.48254-0.061701-0.68505-0.1859 0.05617 0.09097 0.12419 0.1764 0.20409 0.2563 0.26104 0.26025 0.57588 0.39236 0.94451 0.39236 0.36626 0 0.67793-0.1321 0.93739-0.39236 0.26105-0.25788 0.39236-0.57272 0.39236-0.94135 0-0.36625-0.13131-0.6803-0.39236-0.94055a1.329 1.329 0 0 0-0.25472-0.20171zm6.803 3.5834c0.12498 0.20409 0.18669 0.43191 0.18669 0.68505 0 0.36705-0.12973 0.68109-0.39078 0.94135a1.2775 1.2775 0 0 1-0.93818 0.39078c-0.25314 0-0.48254-0.061699-0.68267-0.18431 0.05458 0.089388 0.12261 0.17482 0.20251 0.25551 0.25946 0.26105 0.5743 0.39236 0.94214 0.39236 0.36704 0 0.67872-0.13131 0.93976-0.39236 0.25946-0.25867 0.3892-0.57272 0.3892-0.93976 0-0.36863-0.12973-0.68109-0.3892-0.94214a1.374 1.374 0 0 0-0.25946-0.20567zm3.4031 0c0.1242 0.20409 0.1859 0.43191 0.1859 0.68505 0 0.36705-0.12973 0.68109-0.38999 0.94135-0.26104 0.25946-0.57351 0.39078-0.94055 0.39078-0.25314 0-0.48096-0.061699-0.68109-0.18431 0.05538 0.089388 0.12182 0.17482 0.20251 0.25551 0.26105 0.26105 0.57193 0.39236 0.94214 0.39236 0.36705 0 0.6803-0.13131 0.93897-0.39236a1.2736 1.2736 0 0 0 0.39157-0.93976c0-0.36863-0.12973-0.68109-0.39157-0.94214a1.3195 1.3195 0 0 0-0.25788-0.20567zm-13.612 0.00239c0.12578 0.20251 0.18906 0.42954 0.18906 0.68267 0 0.36705-0.13131 0.68109-0.39315 0.94135a1.2815 1.2815 0 0 1-0.93897 0.39078c-0.25314 0-0.48254-0.061699-0.68267-0.18431 0.05379 0.089388 0.12182 0.17482 0.20251 0.25551 0.25946 0.26105 0.57351 0.39236 0.94134 0.39236 0.36863 0 0.67872-0.13131 0.93976-0.39236 0.26025-0.25867 0.39315-0.57272 0.39315-0.93976a1.2894 1.2894 0 0 0-0.39315-0.94214 1.3685 1.3685 0 0 0-0.25788-0.20409zm3.4039 0c0.12498 0.20251 0.18669 0.42954 0.18669 0.68267 0 0.36705-0.1329 0.68109-0.39236 0.94135a1.2791 1.2791 0 0 1-0.93897 0.39078c-0.25234 0-0.48096-0.061699-0.68346-0.1859 0.05537 0.09097 0.12261 0.1764 0.20251 0.25709 0.26104 0.26105 0.57588 0.39236 0.94451 0.39236a1.2736 1.2736 0 0 0 0.93739-0.39236c0.26105-0.25867 0.39236-0.57272 0.39236-0.93976 0-0.36784-0.13131-0.68109-0.39236-0.94214a1.4096 1.4096 0 0 0-0.2563-0.20409zm3.4015 0c0.12419 0.20251 0.1859 0.42954 0.1859 0.68267 0 0.36705-0.12973 0.68109-0.3892 0.94135-0.26104 0.25946-0.57272 0.39078-0.93976 0.39078-0.25314 0-0.48254-0.061699-0.68426-0.1859 0.05537 0.09097 0.12419 0.1764 0.20409 0.25709 0.25946 0.26105 0.5743 0.39236 0.94214 0.39236 0.36863 0 0.6803-0.13131 0.93976-0.39236 0.25946-0.25867 0.39078-0.57272 0.39078-0.93976 0-0.36784-0.13131-0.68109-0.39078-0.94214a1.3685 1.3685 0 0 0-0.25788-0.20408zm-10.206 3.5874c0.12419 0.20251 0.1859 0.42954 0.1859 0.68267 0 0.36863-0.13131 0.68188-0.39078 0.94293a1.2894 1.2894 0 0 1-0.94134 0.3892c-0.25313 0-0.48017-0.0617-0.68109-0.18431 0.054583 0.09097 0.12103 0.1772 0.20093 0.25709 0.26105 0.25946 0.57588 0.39078 0.94372 0.39078 0.36705 0 0.6803-0.13131 0.93976-0.39078 0.26105-0.25946 0.39236-0.5743 0.39236-0.94135 0-0.36784-0.13131-0.68109-0.39236-0.94214a1.4089 1.4089 0 0 0-0.25709-0.20411zm3.4023 0c0.12419 0.20251 0.18748 0.42954 0.18748 0.68267 0 0.36863-0.13131 0.68188-0.39315 0.94293a1.2855 1.2855 0 0 1-0.93897 0.3892c-0.25314 0-0.48254-0.0617-0.68426-0.18431 0.05537 0.09097 0.1234 0.1772 0.20409 0.25709 0.25946 0.25946 0.57351 0.39078 0.94134 0.39078a1.2815 1.2815 0 0 0 0.93976-0.39078c0.26025-0.25946 0.39315-0.5743 0.39315-0.94135a1.2894 1.2894 0 0 0-0.39315-0.94214 1.4096 1.4096 0 0 0-0.2563-0.20409zm6.8062 0c0.12182 0.20251 0.18352 0.42954 0.18352 0.68267 0 0.36863-0.12973 0.68188-0.3892 0.94293-0.26104 0.25788-0.57272 0.3892-0.93976 0.3892-0.25314 0-0.48254-0.0617-0.68426-0.18431 0.05537 0.09097 0.12419 0.1772 0.20409 0.25709 0.25946 0.25946 0.5743 0.39078 0.94214 0.39078 0.36863 0 0.6803-0.13131 0.93976-0.39078 0.25946-0.25946 0.39078-0.5743 0.39078-0.94135 0-0.36784-0.13131-0.68109-0.39078-0.94214a1.4096 1.4096 0 0 0-0.2563-0.20409zm3.4015 0c0.12419 0.20251 0.1859 0.42954 0.1859 0.68267 0 0.36863-0.12973 0.68188-0.39078 0.94293a1.2823 1.2823 0 0 1-0.93818 0.3892c-0.25314 0-0.48254-0.0617-0.68426-0.18431 0.05537 0.09097 0.12419 0.1772 0.20409 0.25709 0.25946 0.25946 0.5743 0.39078 0.94214 0.39078 0.36704 0 0.67872-0.13131 0.93976-0.39078 0.25946-0.25946 0.3892-0.5743 0.3892-0.94135 0-0.36784-0.12973-0.68109-0.3892-0.94214a1.3685 1.3685 0 0 0-0.25867-0.20409zm3.4023 0c0.1242 0.20251 0.1859 0.42954 0.1859 0.68267 0 0.36863-0.12973 0.68188-0.38999 0.94293-0.26104 0.25788-0.57351 0.3892-0.94055 0.3892-0.25314 0-0.48096-0.0617-0.68109-0.18431 0.05379 0.09097 0.12182 0.1772 0.20251 0.25709 0.26105 0.25946 0.57193 0.39078 0.94214 0.39078 0.36705 0 0.6803-0.13131 0.93897-0.39078 0.26105-0.25946 0.39157-0.5743 0.39157-0.94135 0-0.36784-0.12973-0.68109-0.39157-0.94214a1.3685 1.3685 0 0 0-0.25788-0.20411zm3.4039 0c0.1234 0.20251 0.1851 0.42954 0.1851 0.68267 0 0.36863-0.12973 0.68188-0.39078 0.94293a1.2855 1.2855 0 0 1-0.93897 0.3892c-0.25313 0-0.48096-0.0617-0.68346-0.18431 0.05617 0.09097 0.12419 0.1772 0.20409 0.25709 0.25946 0.25946 0.57272 0.39078 0.94134 0.39078 0.36625 0 0.6803-0.13131 0.94134-0.39078 0.25867-0.25946 0.3884-0.5743 0.3884-0.94135 0-0.36784-0.12973-0.68109-0.3892-0.94214a1.3685 1.3685 0 0 0-0.25788-0.20409zm-13.61 0.0016c0.1234 0.20251 0.1851 0.42954 0.1851 0.68109 0 0.36863-0.1329 0.68188-0.39236 0.94293a1.2831 1.2831 0 0 1-0.93897 0.3892c-0.25314 0-0.48254-0.0617-0.68505-0.18352 0.05617 0.09018 0.12419 0.1764 0.20409 0.2563 0.26104 0.25946 0.57588 0.39078 0.94451 0.39078 0.36626 0 0.67793-0.13131 0.93739-0.39078 0.26105-0.25946 0.39236-0.5743 0.39236-0.94135 0-0.36784-0.13131-0.68109-0.39236-0.94214a1.3907 1.3907 0 0 0-0.25472-0.20251zm-6.8062 3.5858c0.12419 0.20409 0.1859 0.43112 0.1859 0.68267 0 0.36863-0.13131 0.68346-0.39078 0.94293-0.26105 0.25788-0.57272 0.39078-0.94134 0.39078-0.25313 0-0.48017-0.0617-0.68109-0.18352 0.055375 0.0886 0.12103 0.17403 0.20093 0.25472 0.26105 0.25946 0.57588 0.39078 0.94372 0.39078 0.36705 0 0.6803-0.13131 0.93976-0.39078 0.26105-0.25946 0.39236-0.5743 0.39236-0.94135 0-0.36625-0.13131-0.6803-0.39236-0.94214a1.4089 1.4089 0 0 0-0.25709-0.20413zm3.4015 0c0.12498 0.20409 0.18827 0.43112 0.18827 0.68267 0 0.36863-0.13131 0.68346-0.39315 0.94293a1.287 1.287 0 0 1-0.93897 0.39078c-0.25314 0-0.48254-0.0617-0.68267-0.18352 0.05379 0.0886 0.12182 0.17403 0.20251 0.25472 0.25946 0.25946 0.57351 0.39078 0.94134 0.39078a1.2815 1.2815 0 0 0 0.93976-0.39078c0.26025-0.25946 0.39315-0.5743 0.39315-0.94135 0-0.36625-0.1329-0.6803-0.39315-0.94214a1.3685 1.3685 0 0 0-0.25788-0.20409zm6.8054 0c0.1234 0.20409 0.18511 0.43112 0.18511 0.68267 0 0.36863-0.12973 0.68346-0.3892 0.94293a1.2894 1.2894 0 0 1-0.93976 0.39078c-0.25314 0-0.48254-0.0617-0.68426-0.1851 0.05537 0.09018 0.12419 0.1764 0.20409 0.2563 0.25946 0.25946 0.5743 0.39078 0.94214 0.39078 0.36863 0 0.6803-0.13131 0.93976-0.39078 0.25946-0.25946 0.39078-0.5743 0.39078-0.94135 0-0.36625-0.13131-0.6803-0.39078-0.94214a1.3685 1.3685 0 0 0-0.25788-0.20409zm3.4015 0c0.12578 0.20251 0.18748 0.42954 0.18748 0.68267 0 0.36863-0.12973 0.68346-0.39078 0.94293a1.2839 1.2839 0 0 1-0.93818 0.39078c-0.25314 0-0.48254-0.0617-0.68267-0.18352 0.05458 0.0886 0.12261 0.17403 0.20251 0.25472 0.25946 0.25946 0.5743 0.39078 0.94214 0.39078 0.36704 0 0.67872-0.13131 0.93976-0.39078 0.25946-0.25946 0.3892-0.5743 0.3892-0.94135a1.2894 1.2894 0 0 0-0.3892-0.94214 1.4278 1.4278 0 0 0-0.25946-0.20409zm3.4039 0c0.1242 0.20251 0.1859 0.42954 0.1859 0.68267 0 0.36863-0.12973 0.68346-0.38999 0.94293-0.26104 0.25788-0.57351 0.39078-0.94055 0.39078-0.25314 0-0.48096-0.0617-0.68109-0.18352 0.05538 0.0886 0.12182 0.17403 0.20251 0.25472 0.26105 0.25946 0.57193 0.39078 0.94214 0.39078 0.36705 0 0.6803-0.13131 0.93897-0.39078 0.26105-0.25946 0.39157-0.5743 0.39157-0.94135 0-0.36625-0.12973-0.6803-0.39157-0.94214a1.3685 1.3685 0 0 0-0.25788-0.20413zm3.4023 0c0.12499 0.20251 0.18669 0.42954 0.18669 0.68267 0 0.36863-0.12973 0.68346-0.39078 0.94293a1.287 1.287 0 0 1-0.93897 0.39078c-0.25313 0-0.48096-0.0617-0.68188-0.18352 0.05537 0.0886 0.12261 0.17403 0.20251 0.25472 0.25946 0.25946 0.57272 0.39078 0.94134 0.39078 0.36625 0 0.6803-0.13131 0.94134-0.39078 0.25867-0.25946 0.3884-0.5743 0.3884-0.94135a1.2894 1.2894 0 0 0-0.3892-0.94214 1.4278 1.4278 0 0 0-0.25946-0.20409zm-13.608 0.0016c0.1234 0.20251 0.1851 0.42954 0.1851 0.68188 0 0.36784-0.1329 0.68267-0.39236 0.94214a1.2847 1.2847 0 0 1-0.93897 0.39078c-0.25234 0-0.48096-0.0617-0.68346-0.1851 0.05617 0.09018 0.12261 0.1764 0.20251 0.2563 0.26104 0.25946 0.57588 0.39078 0.94451 0.39078 0.36626 0 0.67793-0.13131 0.93739-0.39078 0.26105-0.25946 0.39236-0.5743 0.39236-0.94135 0-0.36625-0.13131-0.6803-0.39236-0.94134a1.3764 1.3764 0 0 0-0.25472-0.2033zm6.8038 3.5858c0.12419 0.20409 0.1859 0.43112 0.1859 0.68505 0 0.36625-0.12973 0.6803-0.39078 0.94134a1.2775 1.2775 0 0 1-0.93818 0.38999c-0.25314 0-0.48254-0.0617-0.68426-0.18352 0.05537 0.09018 0.12419 0.1764 0.20409 0.2563 0.25946 0.25788 0.5743 0.3892 0.94214 0.3892 0.36704 0 0.67872-0.13131 0.93976-0.3892a1.2894 1.2894 0 0 0 0.3892-0.94219c0-0.36705-0.12973-0.68188-0.3892-0.94135a1.4144 1.4144 0 0 0-0.25867-0.20567zm3.4023 0c0.1242 0.20409 0.1859 0.43112 0.1859 0.68505 0 0.36625-0.12973 0.6803-0.38999 0.94134-0.26104 0.25867-0.57351 0.38999-0.94055 0.38999-0.25314 0-0.48096-0.0617-0.68109-0.18352 0.05379 0.09018 0.12182 0.1764 0.20251 0.2563 0.26105 0.25788 0.57193 0.3892 0.94214 0.3892 0.36705 0 0.6803-0.13131 0.93897-0.3892 0.26105-0.26104 0.39157-0.57588 0.39157-0.94214 0-0.36705-0.12973-0.68188-0.39157-0.94135a1.3195 1.3195 0 0 0-0.25788-0.20572zm3.4039 0c0.1234 0.20409 0.1851 0.43112 0.1851 0.68505 0 0.36625-0.12973 0.6803-0.39078 0.94134a1.2815 1.2815 0 0 1-0.93897 0.38999c-0.25313 0-0.48096-0.0617-0.68346-0.18352 0.05617 0.09018 0.12419 0.1764 0.20409 0.2563 0.25946 0.25788 0.57272 0.3892 0.94134 0.3892 0.36625 0 0.6803-0.13131 0.94134-0.3892a1.2894 1.2894 0 0 0 0.3884-0.94214c0-0.36705-0.12973-0.68188-0.3892-0.94135a1.4144 1.4144 0 0 0-0.25788-0.20567zm-20.416 0.0016c0.12419 0.20251 0.1859 0.42954 0.1859 0.68346 0 0.36625-0.13131 0.68109-0.39078 0.94134-0.26105 0.25867-0.57272 0.38999-0.94134 0.38999-0.25313 0-0.48017-0.0617-0.68109-0.18352 0.054583 0.09018 0.12103 0.1764 0.20093 0.2563 0.26105 0.25788 0.57588 0.3892 0.94372 0.3892 0.36705 0 0.6803-0.13131 0.93976-0.3892 0.26105-0.26104 0.39236-0.57588 0.39236-0.94214 0-0.36705-0.13131-0.68188-0.39236-0.94135a1.4089 1.4089 0 0 0-0.25709-0.20417zm3.4023 0c0.12419 0.20251 0.18748 0.42954 0.18748 0.68346 0 0.36625-0.13131 0.68109-0.39315 0.94134a1.2815 1.2815 0 0 1-0.93897 0.38999c-0.25314 0-0.48254-0.0617-0.68426-0.18352 0.05537 0.09018 0.1234 0.1764 0.20409 0.2563 0.25946 0.25788 0.57351 0.3892 0.94134 0.3892 0.36863 0 0.67872-0.13131 0.93976-0.3892 0.26025-0.26104 0.39315-0.57588 0.39315-0.94214 0-0.36705-0.1329-0.68188-0.39315-0.94135a1.4089 1.4089 0 0 0-0.2563-0.20415zm3.4039 0c0.1234 0.20409 0.1851 0.43112 0.1851 0.68346 0 0.36625-0.1329 0.68109-0.39236 0.94134a1.2791 1.2791 0 0 1-0.93897 0.38999c-0.25314 0-0.48254-0.0617-0.68505-0.1851 0.05617 0.09176 0.12419 0.17798 0.20409 0.25788 0.26104 0.25788 0.57588 0.3892 0.94451 0.3892 0.36626 0 0.67793-0.13131 0.93739-0.3892 0.26105-0.26104 0.39236-0.57588 0.39236-0.94214 0-0.36705-0.13131-0.68188-0.39236-0.94135a1.4002 1.4002 0 0 0-0.25472-0.20415zm3.4015 0c0.12261 0.20251 0.18431 0.42954 0.18431 0.68346 0 0.36625-0.12973 0.68109-0.3892 0.94134-0.26104 0.25867-0.57272 0.38999-0.93976 0.38999-0.25314 0-0.48254-0.0617-0.68426-0.1851 0.05537 0.09176 0.12419 0.17798 0.20409 0.25788 0.25946 0.25788 0.5743 0.3892 0.94214 0.3892 0.36863 0 0.6803-0.13131 0.93976-0.3892 0.25946-0.26104 0.39078-0.57588 0.39078-0.94214 0-0.36705-0.13131-0.68188-0.39078-0.94135a1.4089 1.4089 0 0 0-0.2563-0.20415zm3.4023 3.5866c0.12419 0.2033 0.1859 0.43033 0.1859 0.68426 0 0.36625-0.12973 0.68109-0.39078 0.94134a1.2775 1.2775 0 0 1-0.93818 0.38999c-0.25314 0-0.48254-0.06091-0.68426-0.18352 0.05537 0.09097 0.12419 0.1764 0.20409 0.2563 0.25946 0.25867 0.5743 0.3892 0.94214 0.3892 0.36704 0 0.67872-0.13052 0.93976-0.3892 0.25946-0.26104 0.3892-0.5743 0.3892-0.94214 0-0.36705-0.12973-0.68109-0.3892-0.94134a1.4144 1.4144 0 0 0-0.25867-0.20574zm3.4023 0c0.1242 0.2033 0.1859 0.43033 0.1859 0.68426 0 0.36625-0.12973 0.68109-0.38999 0.94134-0.26104 0.25867-0.57351 0.38999-0.94055 0.38999-0.25314 0-0.48096-0.06091-0.68109-0.18352 0.05379 0.09097 0.12182 0.1764 0.20251 0.2563 0.26105 0.25867 0.57193 0.3892 0.94214 0.3892 0.36705 0 0.6803-0.13052 0.93897-0.3892 0.26105-0.26104 0.39157-0.5743 0.39157-0.94214 0-0.36705-0.12973-0.68109-0.39157-0.94134a1.3195 1.3195 0 0 0-0.25788-0.20574zm-13.61 0.0016c0.12419 0.20172 0.18748 0.42875 0.18748 0.68267 0 0.36704-0.13131 0.68109-0.39315 0.94134a1.2815 1.2815 0 0 1-0.93897 0.38999c-0.25314 0-0.48254-0.06091-0.68426-0.18352 0.05537 0.09097 0.1234 0.1764 0.20409 0.2563 0.25946 0.25867 0.57351 0.3892 0.94134 0.3892 0.36863 0 0.67872-0.13052 0.93976-0.3892a1.2894 1.2894 0 0 0 0.39315-0.94214c0-0.36705-0.1329-0.68109-0.39315-0.94134a1.4089 1.4089 0 0 0-0.2563-0.2033zm3.4039 0c0.1234 0.2033 0.1851 0.43033 0.1851 0.68267 0 0.36704-0.1329 0.68109-0.39236 0.94134a1.2791 1.2791 0 0 1-0.93897 0.38999c-0.25314 0-0.48254-0.06091-0.68505-0.1851 0.05617 0.09255 0.12419 0.17799 0.20409 0.25788 0.26104 0.25867 0.57588 0.3892 0.94451 0.3892 0.36626 0 0.67793-0.13052 0.93739-0.3892 0.26105-0.26104 0.39236-0.5743 0.39236-0.94214 0-0.36705-0.13131-0.68109-0.39236-0.94134a1.4002 1.4002 0 0 0-0.25472-0.2033zm3.4015 0c0.12261 0.20172 0.18431 0.42875 0.18431 0.68267 0 0.36704-0.12973 0.68109-0.3892 0.94134-0.26104 0.25946-0.57272 0.38999-0.93976 0.38999-0.25314 0-0.48254-0.06091-0.68426-0.1851 0.05537 0.09255 0.12419 0.17799 0.20409 0.25788 0.25946 0.25867 0.5743 0.3892 0.94214 0.3892 0.36863 0 0.6803-0.13052 0.93976-0.3892 0.25946-0.26104 0.39078-0.5743 0.39078-0.94214 0-0.36705-0.13131-0.68109-0.39078-0.94134a1.4089 1.4089 0 0 0-0.2563-0.2033zm3.4023 3.5858c0.12419 0.2033 0.1859 0.43112 0.1859 0.68426 0 0.36705-0.12973 0.68109-0.39078 0.94134a1.2775 1.2775 0 0 1-0.93818 0.39078c-0.25314 0-0.48254-0.0617-0.68426-0.18431 0.05537 0.09097 0.12419 0.1764 0.20409 0.2563 0.25946 0.25867 0.5743 0.39157 0.94214 0.39157a1.2894 1.2894 0 0 0 0.93976-0.39157c0.25946-0.25946 0.3892-0.57351 0.3892-0.94214 0-0.36704-0.12973-0.68109-0.3892-0.94134a1.4144 1.4144 0 0 0-0.25867-0.20575zm-6.8038 0.0016c0.1234 0.2033 0.1851 0.43033 0.1851 0.68267 0 0.36705-0.1329 0.68109-0.39236 0.94134a1.2791 1.2791 0 0 1-0.93897 0.39078c-0.25314 0-0.48254-0.0617-0.68505-0.1859 0.05617 0.09255 0.12419 0.17799 0.20409 0.25788 0.26104 0.25867 0.57588 0.39157 0.94451 0.39157 0.36626 0 0.67793-0.1329 0.93739-0.39157a1.2815 1.2815 0 0 0 0.39236-0.94134c0-0.36784-0.13131-0.68188-0.39236-0.94134a1.4002 1.4002 0 0 0-0.25472-0.20409zm3.4015 0c0.12261 0.20172 0.18431 0.42954 0.18431 0.68267 0 0.36705-0.12973 0.68109-0.3892 0.94134-0.26104 0.25946-0.57272 0.39078-0.93976 0.39078-0.25314 0-0.48254-0.0617-0.68426-0.1859 0.05537 0.09255 0.12419 0.17799 0.20409 0.25788 0.25946 0.25867 0.5743 0.39157 0.94214 0.39157 0.36863 0 0.6803-0.1329 0.93976-0.39157 0.25946-0.25946 0.39078-0.57351 0.39078-0.94134 0-0.36784-0.13131-0.68188-0.39078-0.94134a1.4096 1.4096 0 0 0-0.2563-0.20409z" fill-opacity=".2" style="stroke-width:.79104"/>
<path d="m14.939 6.5811c-0.36863 0-0.68346 0.12894-0.94293 0.38999a1.2831 1.2831 0 0 0-0.3892 0.94135c0 0.36625 0.12973 0.6803 0.3892 0.94055a1.2847 1.2847 0 0 0 0.94214 0.39078c0.36863 0 0.6803-0.13131 0.93976-0.39078 0.25946-0.26025 0.39236-0.5743 0.39236-0.94135 0-0.25313-0.0617-0.48096-0.18669-0.68267a1.3195 1.3195 0 0 0-0.20567-0.25788 1.272 1.272 0 0 0-0.93897-0.38999zm3.4031 0c-0.36784 0-0.68267 0.12894-0.94214 0.38999-0.26104 0.25946-0.3892 0.57351-0.3892 0.94135 0 0.36625 0.12815 0.6803 0.3892 0.94055a1.2862 1.2862 0 0 0 0.94214 0.39078c0.36704 0 0.67872-0.13131 0.93976-0.39078 0.25946-0.26025 0.3892-0.5743 0.3892-0.94135a1.2807 1.2807 0 0 0-0.3892-0.94134 1.2767 1.2767 0 0 0-0.93976-0.3892zm3.4039 0a1.2815 1.2815 0 0 0-0.94372 0.38999 1.2831 1.2831 0 0 0-0.3892 0.94135c0 0.36625 0.12973 0.6803 0.3892 0.94055a1.2894 1.2894 0 0 0 0.94372 0.39078c0.36704 0 0.67872-0.13131 0.93818-0.39078 0.26104-0.26025 0.39078-0.5743 0.39078-0.94135a1.2775 1.2775 0 0 0-0.39078-0.94134 1.2704 1.2704 0 0 0-0.93818-0.3892zm-13.613 3.5882c-0.36784 0-0.68109 0.12815-0.94135 0.3892-0.26104 0.25946-0.38999 0.5743-0.38999 0.94134 0 0.36784 0.12973 0.6803 0.39078 0.94134a1.2839 1.2839 0 0 0 0.94135 0.3892c0.36784 0 0.67951-0.13052 0.94055-0.3884 0.25946-0.26104 0.39078-0.5743 0.39078-0.94293a1.2807 1.2807 0 0 0-0.39078-0.94134 1.2775 1.2775 0 0 0-0.94134-0.3884zm3.4039 0c-0.36863 0-0.68267 0.12815-0.94372 0.3892a1.2815 1.2815 0 0 0-0.38761 0.94134c0 0.36784 0.12736 0.6803 0.38761 0.94134a1.2989 1.2989 0 0 0 0.94372 0.3892c0.36704 0 0.6803-0.13052 0.93897-0.3884 0.26104-0.26104 0.39315-0.5743 0.39315-0.94293a1.2815 1.2815 0 0 0-0.39315-0.94134 1.2736 1.2736 0 0 0-0.93897-0.3884zm13.61 0c-0.36863 0-0.68109 0.12815-0.94134 0.3892-0.26104 0.25946-0.3892 0.5743-0.3892 0.94134 0 0.36784 0.12815 0.6803 0.38999 0.94134a1.2839 1.2839 0 0 0 0.94135 0.3892c0.36625 0 0.67872-0.13052 0.93976-0.3884 0.26026-0.26104 0.38999-0.5743 0.38999-0.94293a1.2807 1.2807 0 0 0-0.38999-0.94134 1.2799 1.2799 0 0 0-0.94055-0.3884zm3.4039 0c-0.37021 0-0.68188 0.12815-0.94293 0.3892a1.2815 1.2815 0 0 0-0.38761 0.94134c0 0.36784 0.12815 0.6803 0.38761 0.94134a1.2934 1.2934 0 0 0 0.94214 0.3892c0.36704 0 0.6803-0.13052 0.93976-0.3884 0.26105-0.26104 0.39078-0.5743 0.39078-0.94293a1.2807 1.2807 0 0 0-0.39078-0.94134 1.2736 1.2736 0 0 0-0.93897-0.3884zm-20.417 3.5874a1.2815 1.2815 0 0 0-0.94135 0.3892c-0.26104 0.25946-0.39078 0.5743-0.39078 0.94134 0 0.36784 0.12973 0.68267 0.39078 0.94135a1.2839 1.2839 0 0 0 0.94135 0.39078c0.36784 7.98e-4 0.67951-0.1321 0.94055-0.38998 0.25946-0.25946 0.39078-0.5743 0.39078-0.94293a1.2878 1.2878 0 0 0-0.39078-0.94055 1.2831 1.2831 0 0 0-0.94134-0.3892zm3.4031 0c-0.36863 0-0.68267 0.12973-0.94372 0.3892a1.2815 1.2815 0 0 0-0.38761 0.94134c0 0.36784 0.12736 0.68267 0.38761 0.94135a1.2894 1.2894 0 0 0 0.94372 0.39078c0.36704 7.98e-4 0.6803-0.1321 0.93897-0.38998a1.2815 1.2815 0 0 0 0.39315-0.94293c0-0.25155-0.06328-0.47858-0.18906-0.68267a1.3685 1.3685 0 0 0-0.20409-0.25788 1.2799 1.2799 0 0 0-0.93897-0.3892zm3.4015 0c-0.36784 0-0.68267 0.12973-0.94134 0.3892a1.2831 1.2831 0 0 0-0.38999 0.94134c0 0.36784 0.12973 0.68267 0.3892 0.94135a1.2847 1.2847 0 0 0 0.94214 0.39078c0.36863 7.98e-4 0.6803-0.1321 0.93976-0.38998 0.25946-0.25946 0.39236-0.5743 0.39236-0.94293a1.2791 1.2791 0 0 0-0.39236-0.94055 1.2775 1.2775 0 0 0-0.93897-0.3892zm6.8077 0c-0.36942 0-0.68267 0.12973-0.94372 0.3892a1.2831 1.2831 0 0 0-0.3892 0.94134c0 0.36784 0.12973 0.68267 0.3892 0.94135a1.2894 1.2894 0 0 0 0.94372 0.39078c0.36704 7.98e-4 0.67872-0.1321 0.93818-0.38998 0.26104-0.25946 0.39078-0.5743 0.39078-0.94293 0-0.25313-0.0617-0.48016-0.18669-0.68267a1.3685 1.3685 0 0 0-0.20409-0.25788 1.2767 1.2767 0 0 0-0.93818-0.3892zm3.4007 0a1.2815 1.2815 0 0 0-0.94134 0.3892c-0.26104 0.25946-0.3892 0.5743-0.3892 0.94134 0 0.36784 0.12815 0.68267 0.38999 0.94135a1.2839 1.2839 0 0 0 0.94135 0.39078c0.36625 7.98e-4 0.67872-0.1321 0.93976-0.38998 0.26026-0.25946 0.38999-0.5743 0.38999-0.94293a1.2807 1.2807 0 0 0-0.38999-0.94055 1.2855 1.2855 0 0 0-0.94055-0.3892zm3.4039 0c-0.37021 0-0.68188 0.12973-0.94293 0.3892a1.2815 1.2815 0 0 0-0.38761 0.94134c0 0.36784 0.12815 0.68267 0.38761 0.94135a1.2839 1.2839 0 0 0 0.94214 0.39078c0.36704 7.98e-4 0.6803-0.1321 0.93976-0.38998 0.26105-0.25946 0.39078-0.5743 0.39078-0.94293 0-0.25313-0.0617-0.48016-0.18669-0.68267a1.3685 1.3685 0 0 0-0.20409-0.25788 1.2799 1.2799 0 0 0-0.93897-0.3892zm-20.417 3.5874c-0.36863 0-0.68188 0.13131-0.94135 0.38919-0.26104 0.26105-0.39078 0.5743-0.39078 0.94293 0 0.36625 0.12973 0.6803 0.39078 0.94055a1.2839 1.2839 0 0 0 0.94135 0.39078c0.36784 0 0.67951-0.13131 0.94055-0.39078 0.25946-0.25946 0.39078-0.5743 0.39078-0.94134a1.2807 1.2807 0 0 0-0.39078-0.94134 1.2894 1.2894 0 0 0-0.94134-0.38999zm3.4031 0c-0.36863 0-0.68267 0.13131-0.94372 0.38919-0.26026 0.26105-0.38761 0.5743-0.38761 0.94293 0 0.36625 0.12736 0.6803 0.38761 0.94055 0.08148 0.08148 0.16691 0.15109 0.25946 0.20725 0.20172 0.12182 0.43033 0.18352 0.68426 0.18352 0.36704 0 0.6803-0.13131 0.93897-0.39078 0.26104-0.25946 0.39315-0.5743 0.39315-0.94134 0-0.25314-0.06328-0.48017-0.18748-0.68267a1.374 1.374 0 0 0-0.20567-0.25946 1.2855 1.2855 0 0 0-0.93897-0.38919zm3.4015 0c-0.36784 0-0.68267 0.13131-0.94134 0.38919-0.26025 0.26105-0.38999 0.5743-0.38999 0.94293 0 0.36625 0.12973 0.6803 0.3892 0.94055a1.2862 1.2862 0 0 0 0.94214 0.39078c0.36863 0 0.6803-0.13131 0.93976-0.39078s0.39236-0.5743 0.39236-0.94134a1.2878 1.2878 0 0 0-0.39236-0.94134 1.2831 1.2831 0 0 0-0.93897-0.38999zm6.8077 0c-0.36942 0-0.68267 0.13131-0.94372 0.38919-0.25946 0.26105-0.3892 0.5743-0.3892 0.94293 0 0.36625 0.12973 0.6803 0.3892 0.94055 0.08148 0.08148 0.1677 0.15109 0.25946 0.20725 0.20251 0.12182 0.43112 0.18352 0.68426 0.18352 0.36704 0 0.67872-0.13131 0.93818-0.39078 0.26104-0.25946 0.39078-0.5743 0.39078-0.94134a1.2894 1.2894 0 0 0-0.39078-0.94134 1.2823 1.2823 0 0 0-0.93818-0.38999zm3.4007 0c-0.36863 0-0.68109 0.13131-0.94134 0.38919a1.2815 1.2815 0 0 0-0.3892 0.94293c0 0.36625 0.12815 0.6803 0.38999 0.94055a1.2839 1.2839 0 0 0 0.94135 0.39078c0.36625 0 0.67872-0.13131 0.93976-0.39078 0.26026-0.25946 0.38999-0.5743 0.38999-0.94134a1.2894 1.2894 0 0 0-0.38999-0.94134 1.2918 1.2918 0 0 0-0.94055-0.38999zm3.4039 0c-0.37021 0-0.68188 0.13131-0.94293 0.38919-0.25946 0.26105-0.38761 0.5743-0.38761 0.94293 0 0.36625 0.12815 0.6803 0.38761 0.94055 0.08148 0.08148 0.1677 0.15109 0.25946 0.20725 0.20251 0.12182 0.42954 0.18352 0.68346 0.18352 0.36626 0 0.6803-0.13131 0.93897-0.39078 0.26105-0.25946 0.39078-0.5743 0.39078-0.94134a1.2894 1.2894 0 0 0-0.39078-0.94134 1.2855 1.2855 0 0 0-0.93897-0.38999zm-17.014 3.589c-0.36863 0-0.68267 0.12973-0.94372 0.38761-0.26026 0.26105-0.38761 0.5743-0.38761 0.94293 0 0.36626 0.12736 0.68109 0.38761 0.94134a1.2989 1.2989 0 0 0 0.94372 0.39078c0.36704 0 0.6803-0.1321 0.93897-0.39157 0.26104-0.25946 0.39315-0.5743 0.39315-0.94134 0-0.25314-0.06328-0.48016-0.18748-0.68267a1.374 1.374 0 0 0-0.20567-0.25946 1.2847 1.2847 0 0 0-0.93897-0.38761zm3.4015 0a1.2894 1.2894 0 0 0-0.94134 0.38761c-0.26025 0.26105-0.38999 0.5743-0.38999 0.94293 0 0.36626 0.12973 0.68109 0.3892 0.94134a1.2862 1.2862 0 0 0 0.94214 0.39078c0.36863 0 0.6803-0.1321 0.93976-0.39157s0.39236-0.5743 0.39236-0.94134a1.2878 1.2878 0 0 0-0.39236-0.94134 1.2815 1.2815 0 0 0-0.93897-0.3884zm6.8077 0c-0.36942 0-0.68267 0.12973-0.94372 0.38761-0.25946 0.26105-0.3892 0.5743-0.3892 0.94293 0 0.36626 0.12973 0.68109 0.3892 0.94134a1.2989 1.2989 0 0 0 0.94372 0.39078c0.36704 0 0.67872-0.1321 0.93818-0.39157 0.26104-0.25946 0.39078-0.5743 0.39078-0.94134a1.2894 1.2894 0 0 0-0.39078-0.94134 1.2815 1.2815 0 0 0-0.93818-0.3884zm3.4007 0c-0.36863 0-0.68109 0.12973-0.94134 0.38761a1.2815 1.2815 0 0 0-0.3892 0.94293c0 0.36626 0.12815 0.68109 0.38999 0.94134a1.2839 1.2839 0 0 0 0.94135 0.39078c0.36625 0 0.67872-0.1321 0.93976-0.39157 0.26026-0.25946 0.38999-0.5743 0.38999-0.94134a1.2894 1.2894 0 0 0-0.38999-0.94134 1.2902 1.2902 0 0 0-0.94055-0.3884zm-3.4007 3.5874c-0.36942 0-0.68267 0.12973-0.94372 0.38761a1.2894 1.2894 0 0 0-0.3892 0.94293c0 0.36626 0.12973 0.68109 0.3892 0.94134 0.08148 0.08069 0.1677 0.1503 0.25946 0.20646 0.20251 0.12261 0.43112 0.18352 0.68426 0.18352 0.36704 0 0.67872-0.13131 0.93818-0.39078 0.26104-0.25946 0.39078-0.5743 0.39078-0.94135a1.2894 1.2894 0 0 0-0.39078-0.94134 1.2815 1.2815 0 0 0-0.93818-0.38761z" fill="#64a2f1" style="stroke-width:.79104"/>
<path transform="matrix(.5 0 0 .5 .066304 .016549)" d="m4.7043 3.9815-0.012938 56.82h53.904l1.0222-2.8664s-23.875 0.76639-32.844-4.1404c-10.516-5.7529-15.372-49.697-15.372-49.697z" style="fill:url(#linearGradient3403);mix-blend-mode:normal;stroke-linejoin:round;stroke-width:1.1624;stroke:url(#linearGradient20558)"/>
<rect transform="matrix(.46839 0 0 .46744 .90638 1.0269)" x="1.0324" y=".59551" width="62.567" height="62.867" rx="5.803" ry="6.2447" style="fill:none;stroke-linejoin:round;stroke-miterlimit:7.8;stroke-opacity:.99515;stroke-width:3.7137;stroke:url(#linearGradient4557)"/>
</svg>
