<svg width="32" height="32" version="1.1" viewBox="0 0 32 32" xmlns="http://www.w3.org/2000/svg" xmlns:xlink="http://www.w3.org/1999/xlink">
<defs>
<linearGradient id="linearGradient3403" x1="6.9492" x2="11.215" y1="4.5549" y2="59.052" gradientUnits="userSpaceOnUse">
<stop style="stop-color:#32373c" offset="0"/>
<stop style="stop-color:#1a1a1a" offset=".36805"/>
<stop style="stop-color:#31363b" offset="1"/>
</linearGradient>
<linearGradient id="linearGradient20558" x1="25.802" x2="25.111" y1="20.374" y2="58.913" gradientUnits="userSpaceOnUse">
<stop style="stop-color:#3d3d3d" offset="0"/>
<stop offset=".61772"/>
<stop style="stop-color:#3d3d3d" offset="1"/>
</linearGradient>
<linearGradient id="linearGradient4557" x1="43.5" x2="44.142" y1="64.012" y2=".30621" gradientTransform="translate(.36068 -.13017)" gradientUnits="userSpaceOnUse">
<stop style="stop-color:#141618" offset="0"/>
<stop style="stop-color:#686868" offset=".51821"/>
<stop style="stop-color:#31363b" offset="1"/>
</linearGradient>
<linearGradient id="linearGradient4235" x1="15.063" x2="35.919" y1="12.237" y2="33.093" gradientTransform="matrix(1.337 0 0 1.6647 33.554 -11.213)" gradientUnits="userSpaceOnUse" xlink:href="#linearGradient4221"/>
<linearGradient id="linearGradient4221">
<stop offset="0"/>
<stop style="stop-opacity:0" offset="1"/>
</linearGradient>
<linearGradient id="linearGradient4227" x1="24.935" x2="39.71" y1="10.262" y2="25.036" gradientTransform="matrix(1.337 0 0 1.6647 33.554 -11.213)" gradientUnits="userSpaceOnUse" xlink:href="#linearGradient4221"/>
<linearGradient id="linearGradient4152" x1="15.588" x2="28.731" y1="8.79" y2="31.554" gradientTransform="matrix(1.337 0 0 1.6647 33.554 -11.213)" gradientUnits="userSpaceOnUse">
<stop style="stop-color:#fff" offset="0"/>
<stop style="stop-color:#cbb0ea" offset="1"/>
</linearGradient>
</defs>
<g transform="matrix(.44093 0 0 .44093 2.2037 1.2778)">
<rect x="1.033" y=".60078" width="62.567" height="62.867" style="fill:#a07cbb"/>
<g transform="matrix(1.33 0 0 1.33 -58.583 -2.4865)">
<path d="m55.29 8.9527-2.2248 11.829 5.2251 10.372 14.106 17.564h5.2773c3.1126 0 5.9608-1.323 8.228-3.5278l-28.669-35.697z" style="fill:url(#linearGradient4235);opacity:.2"/>
<path d="m70.428 6.3743-3.2275 0.7023 0.07573 0.74782 4.4966 5.5989-4.6297-0.04227 0.08879 1.0242 21.587 26.879c1.4053-2.636 2.2248-5.8001 2.2248-9.2145v-4.7991l-14.349-17.87z" style="fill:url(#linearGradient4227);opacity:.2"/>
<path d="m68.166 5.4349c-0.64594 0-1.182 0.6424-1.1881 1.4209-0.0037 0.782 0.53236 1.4396 1.1829 1.4436 2.8075 0.026253 5.1159 1.1311 6.9773 3.31 1.8395 2.1586 2.7984 5.1493 2.8227 9.0519v0.0033c0.0067 0.77636 0.5431 1.4175 1.1907 1.4175 6.8e-5 0 0.0123-3e-3 0.0131-0.0033 0.64909-0.0075 1.1881-0.65906 1.1829-1.4404v-0.0033c-0.015105-2.2747-0.3121-4.3661-0.89308-6.2068-0.58799-1.8597-1.4817-3.5052-2.6478-4.8738-2.3029-2.6967-5.2446-4.0897-8.6302-4.1195h-0.010428zm-12.059 3.3652c-0.45296-0.095871-0.94362 0.00899-1.4336 0.30238h-0.03917l-0.05484 0.039021c-0.90798 0.64265-1.7592 1.5042-2.5564 2.5848l-0.06266 0.08453v0.07803c-0.55161 0.85632-0.91622 1.7182-1.0001 2.5816-0.02677 0.14633-0.02611 0.27824-0.02611 0.41944 0 0.39281 0.04637 0.79201 0.14362 1.1835l0.02611 0.11055 0.05484 0.03902c0.31489 1.3452 1.0295 3.4388 2.593 6.984 1.0414 2.3498 2.1054 4.3126 3.1622 5.9664 0.5567 0.86915 1.1873 1.7741 1.9192 2.6857 0.0087 0.01082 0.03956 0.05007 0.07312 0.08778 0.01163 0.01448 0.0279 0.0445 0.06789 0.09429l0.07312 0.09104h0.0052c0.02576 0.03208 0.04314 0.05537 0.04701 0.06178l0.0131 0.01951 0.0131 0.01631c0.7319 0.90141 1.4538 1.6914 2.1595 2.38 1.3261 1.316 2.9021 2.6514 4.789 3.9504 2.8504 1.958 4.5474 2.843 5.622 3.2287l0.03917 0.05853 0.06528 0.02927c0.30442 0.12637 0.6212 0.18472 0.93483 0.17882 0.1272 0.0087 0.23984-0.0025 0.34729-0.03251 0.73597-0.10714 1.4646-0.54103 2.1857-1.2941l0.0079-0.01299 0.0079-0.0065c0.0111-0.01382 0.0045-0.0072 0.01043-0.01631 0.0064-0.0072 0.0092-0.01548 0.01567-0.02276 0.85331-0.96972 1.542-2.0245 2.0602-3.1538l0.03395-0.07153v-0.06829c0.47594-1.234 0.28743-2.4939-0.48569-3.297-0.01895-0.02023-0.3904-0.40686-0.85127-0.87463-0.47132-0.47822-1.0303-1.0403-1.4077-1.3851-0.71404-0.65771-1.8177-1.5085-2.4468-1.9444h-0.0027c-1.2083-0.84256-2.4708-0.3529-3.0265 0.54298l-0.974 1.5184c-0.39281 0.61628-1.1777 0.5575-1.1986 0.55598-6.6064-2.1164-8.3826-10.388-8.3951-10.447-0.0012-0.02589-0.04867-1.005 0.44652-1.5021l1.2142-1.2095c0.72122-0.68784 1.1267-2.2597 0.44652-3.7684-0.35483-0.77995-1.041-2.1645-1.5616-3.0466h-0.0027c-0.27902-0.46824-0.72908-1.1684-1.1124-1.7558-0.19165-0.29371-0.36614-0.56254-0.49352-0.75432-0.06369-0.095904-0.11491-0.17336-0.15145-0.2276-0.01828-0.027118-0.03367-0.046196-0.04439-0.061778-0.0053-0.00782-0.0084-0.012985-0.0131-0.01951-0.33646-0.49752-0.76535-0.80065-1.2377-0.90063zm12.129 3.297c-0.6371-0.05593-1.2096 0.53847-1.256 1.3038-0.0465 0.76619 0.44988 1.4495 1.0863 1.5054 1.5737 0.13849 2.6357 0.71458 3.4338 1.7654v0.0033c0.81458 1.0704 1.1852 2.2928 1.1542 3.9635v0.0065c-0.0139 0.76873 0.50404 1.4202 1.1437 1.4371h0.02871c0.63033 0 1.1558-0.61959 1.1698-1.3786 0.04312-2.2961-0.55754-4.3451-1.7679-5.9339-1.2159-1.5967-2.9384-2.4909-4.9927-2.6727z" style="fill:url(#linearGradient4152);stroke-width:1.4919"/>
</g>
</g>
<path transform="matrix(.5 0 0 .5 .066304 .016549)" d="m4.7043 3.9815-0.012938 56.82h53.904l1.0222-2.8664s-23.875 0.76639-32.844-4.1404c-10.516-5.7529-15.372-49.697-15.372-49.697z" style="fill:url(#linearGradient3403);mix-blend-mode:normal;stroke-linejoin:round;stroke-width:1.1624;stroke:url(#linearGradient20558)"/>
<rect transform="matrix(.46839 0 0 .46744 .90638 1.0269)" x="1.0324" y=".59551" width="62.567" height="62.867" rx="5.803" ry="6.2447" style="fill:none;stroke-linejoin:round;stroke-miterlimit:7.8;stroke-opacity:.99515;stroke-width:3.7137;stroke:url(#linearGradient4557)"/>
</svg>
