<svg width="32" height="32" version="1.1" viewBox="0 0 32 32" xmlns="http://www.w3.org/2000/svg" xmlns:xlink="http://www.w3.org/1999/xlink">
<defs>
<linearGradient id="linearGradient3403" x1="6.9492" x2="11.215" y1="4.5549" y2="59.052" gradientUnits="userSpaceOnUse">
<stop style="stop-color:#32373c" offset="0"/>
<stop style="stop-color:#1a1a1a" offset=".36805"/>
<stop style="stop-color:#31363b" offset="1"/>
</linearGradient>
<linearGradient id="linearGradient20558" x1="25.802" x2="25.111" y1="20.374" y2="58.913" gradientUnits="userSpaceOnUse">
<stop style="stop-color:#3d3d3d" offset="0"/>
<stop offset=".61772"/>
<stop style="stop-color:#3d3d3d" offset="1"/>
</linearGradient>
<linearGradient id="linearGradient4557" x1="43.5" x2="44.142" y1="64.012" y2=".30621" gradientTransform="translate(.36068 -.13017)" gradientUnits="userSpaceOnUse">
<stop style="stop-color:#141618" offset="0"/>
<stop style="stop-color:#686868" offset=".51821"/>
<stop style="stop-color:#31363b" offset="1"/>
</linearGradient>
<linearGradient id="b" x2="0" y1="511.8" y2="543.53" gradientTransform="matrix(.7936 0 0 .74274 -340.19 -373.41)" gradientUnits="userSpaceOnUse">
<stop stop-color="#1d1e1e" offset="0"/>
<stop stop-color="#2c2f32" offset="1"/>
</linearGradient>
<linearGradient id="a" x2="0" y1="44" y2="4" gradientTransform="matrix(-.7936 0 0 .71418 34.992 -1.1344)" gradientUnits="userSpaceOnUse">
<stop stop-color="#1d1e1e" offset="0"/>
<stop stop-color="#44484c" offset="1"/>
</linearGradient>
<linearGradient id="c" x1="392.57" x2="411.57" y1="518.8" y2="537.8" gradientTransform="matrix(-.7936 0 0 .71418 340.19 -358.08)" gradientUnits="userSpaceOnUse">
<stop stop-color="#292c2f" offset="0"/>
<stop stop-opacity="0" offset="1"/>
</linearGradient>
</defs>
<rect transform="scale(-1,1)" x="-30.23" y="6.7215" width="28.57" height="18.569" style="fill:url(#b);stroke-width:.75285"/>
<rect transform="scale(-1,1)" x="-30.23" y="7.4357" width="28.57" height="5.7134" style="fill:#181a1c;stroke-width:.75285"/>
<rect transform="scale(-1,1)" x="-30.23" y="18.863" width="28.57" height="5.7134" style="fill:#181a1c;stroke-width:.75285"/>
<path d="m30.23 18.863v0.53563h-0.0746l-0.1984-0.28996 0.15634-0.24568zm-0.44362 0-0.12698 0.20068h-0.3968l-0.12698-0.20068zm-0.95312 0 0.15634 0.24568-0.1984 0.28996h-0.3968l-0.1984-0.28996 0.15634-0.24568zm-0.78249 0-0.12698 0.20068h-0.3968l-0.12698-0.20068zm-0.92852 0 0.15634 0.24568-0.1984 0.28996h-0.3968l-0.1984-0.28996 0.15634-0.24568zm-0.83249 0-0.12698 0.20068h-0.3968l-0.12698-0.20068zm-0.92852 0 0.15634 0.24568-0.1984 0.28996h-0.3968l-0.1984-0.28996 0.15634-0.24568zm-0.7825 0-0.12698 0.20068h-0.3968l-0.12698-0.20068zm-0.95312 0 0.15634 0.24568-0.1984 0.28996h-0.3968l-0.1984-0.28996 0.15634-0.24568zm-0.80789 0-0.12698 0.20068h-0.3968l-0.12698-0.20068zm-0.95312 0 0.15634 0.24568-0.1984 0.28996h-0.3968l-0.1984-0.28996 0.15634-0.24568zm-0.80789 0-0.12698 0.20068h-0.3968l-0.12698-0.20068zm-0.92852 0 0.15634 0.24568-0.1984 0.28996h-0.3968l-0.1984-0.28996 0.15634-0.24568zm-0.83249 0-0.12698 0.20068h-0.3968l-0.12698-0.20068zm-0.92852 0 0.15634 0.24568-0.1984 0.28996h-0.3968l-0.1984-0.28996 0.15634-0.24568zm-0.78249 0-0.12698 0.20068h-0.3968l-0.12698-0.20068zm-0.95312 0 0.15634 0.24568-0.1984 0.28996h-0.3968l-0.1984-0.28996 0.15634-0.24568zm-0.80789 0-0.12698 0.20068h-0.3968l-0.12698-0.20068zm-0.95312 0 0.15634 0.24568-0.1984 0.28996h-0.3968l-0.1984-0.28996 0.15634-0.24568zm-0.78249 0-0.12698 0.20068h-0.3968l-0.12698-0.20068zm-0.92852 0 0.15634 0.24568-0.1984 0.28996h-0.3968l-0.1984-0.28996 0.15634-0.24568zm-0.83249 0-0.12698 0.20068h-0.3968l-0.12698-0.20068zm-0.92852 0 0.15634 0.24568-0.1984 0.28996h-0.3968l-0.1984-0.28996 0.15634-0.24568zm-0.7825 0-0.12698 0.20068h-0.3968l-0.12698-0.20068zm-0.95312 0 0.15634 0.24568-0.1984 0.28996h-0.3968l-0.1984-0.28996 0.15634-0.24568zm-0.80789 0-0.12698 0.20068h-0.3968l-0.12698-0.20068zm-0.95312 0 0.15634 0.24568-0.1984 0.28996h-0.3968l-0.1984-0.28996 0.15634-0.24568zm-0.78249 0-0.12698 0.20068h-0.3968l-0.12698-0.20068zm-0.95312 0 0.15634 0.24568-0.1984 0.28996h-0.3968l-0.1984-0.28996 0.15634-0.24568zm-0.80789 0-0.12698 0.20068h-0.3968l-0.12698-0.20068zm-0.95312 0 0.15634 0.24568-0.1984 0.28996h-0.3968l-0.1984-0.28996 0.15634-0.24568zm-0.78249 0-0.12698 0.20068h-0.3968l-0.12698-0.20068zm-0.92852 0 0.15634 0.24568-0.1984 0.28996h-0.3968l-0.1984-0.28996 0.15634-0.24568zm-0.83249 0-0.12698 0.20068h-0.074599v-0.20068zm27.8 0.44636 0.1984 0.31281-0.1984 0.28996h-0.3968l-0.1984-0.28996 0.1984-0.31281zm-1.7364 0 0.1984 0.31281-0.1984 0.28996h-0.3968l-0.1984-0.28996 0.1984-0.31281zm-1.761 0 0.1984 0.31281-0.1984 0.28996h-0.3968l-0.1984-0.28996 0.1984-0.31281zm-1.711 0 0.1984 0.31281-0.1984 0.28996h-0.3968l-0.1984-0.28996 0.1984-0.31281zm-1.761 0 0.1984 0.31281-0.1984 0.28996h-0.3968l-0.1984-0.28996 0.1984-0.31281zm-1.761 0 0.1984 0.31281-0.1984 0.28996h-0.3968l-0.1984-0.28996 0.1984-0.31281zm-1.761 0 0.1984 0.31281-0.1984 0.28996h-0.3968l-0.1984-0.28996 0.1984-0.31281zm-1.711 0 0.1984 0.31281-0.1984 0.28996h-0.3968l-0.1984-0.28996 0.1984-0.31281zm-1.761 0 0.1984 0.31281-0.1984 0.28996h-0.3968l-0.1984-0.28996 0.1984-0.31281zm-1.7364 0 0.1984 0.31281-0.1984 0.28996h-0.3968l-0.1984-0.28996 0.1984-0.31281zm-1.761 0 0.1984 0.31281-0.1984 0.28996h-0.3968l-0.1984-0.28996 0.1984-0.31281zm-1.711 0 0.1984 0.31281-0.1984 0.28996h-0.3968l-0.1984-0.28996 0.1984-0.31281zm-1.761 0 0.1984 0.31281-0.1984 0.28996h-0.3968l-0.1984-0.28996 0.1984-0.31281zm-1.7364 0 0.1984 0.31281-0.1984 0.28996h-0.3968l-0.1984-0.28996 0.1984-0.31281zm-1.761 0 0.1984 0.31281-0.1984 0.28996h-0.3968l-0.1984-0.28996 0.1984-0.31281zm-1.7364 0 0.1984 0.31281-0.1984 0.28996h-0.3968l-0.1984-0.28996 0.1984-0.31281zm-1.761 0 0.1984 0.31281-0.1984 0.28996h-0.074599v-0.60277zm28.495 0.31281v0.60276h-0.0746l-0.1984-0.31281 0.1984-0.28996zm-1.4388 0 0.1984 0.28996-0.1984 0.31281h-0.3968l-0.1984-0.31281 0.1984-0.28996zm-1.711 0 0.1984 0.28996-0.1984 0.31281h-0.3968l-0.1984-0.31281 0.1984-0.28996zm-1.761 0 0.1984 0.28996-0.1984 0.31281h-0.3968l-0.1984-0.31281 0.1984-0.28996zm-1.7364 0 0.1984 0.28996-0.1984 0.31281h-0.3968l-0.1984-0.31281 0.1984-0.28996zm-1.761 0 0.1984 0.28996-0.1984 0.31281h-0.3968l-0.1984-0.31281 0.1984-0.28996zm-1.7364 0 0.1984 0.28996-0.1984 0.31281h-0.3968l-0.1984-0.31281 0.1984-0.28996zm-1.761 0 0.1984 0.28996-0.1984 0.31281h-0.3968l-0.1984-0.31281 0.1984-0.28996zm-1.7364 0 0.1984 0.28996-0.1984 0.31281h-0.3968l-0.1984-0.31281 0.1984-0.28996zm-1.761 0 0.1984 0.28996-0.1984 0.31281h-0.3968l-0.1984-0.31281 0.1984-0.28996zm-1.711 0 0.1984 0.28996-0.1984 0.31281h-0.3968l-0.1984-0.31281 0.1984-0.28996zm-1.761 0 0.1984 0.28996-0.1984 0.31281h-0.3968l-0.1984-0.31281 0.1984-0.28996zm-1.7364 0 0.1984 0.28996-0.1984 0.31281h-0.3968l-0.1984-0.31281 0.1984-0.28996zm-1.761 0 0.1984 0.28996-0.1984 0.31281h-0.3968l-0.1984-0.31281 0.1984-0.28996zm-1.7364 0 0.1984 0.28996-0.1984 0.31281h-0.3968l-0.1984-0.31281 0.1984-0.28996zm-1.761 0 0.1984 0.28996-0.1984 0.31281h-0.3968l-0.1984-0.31281 0.1984-0.28996zm-1.711 0 0.1984 0.28996-0.1984 0.31281h-0.3968l-0.1984-0.31281 0.1984-0.28996zm27.006 0.51349 0.1984 0.31281-0.1984 0.28996h-0.3968l-0.1984-0.28996 0.1984-0.31281zm-1.7364 0 0.1984 0.31281-0.1984 0.28996h-0.3968l-0.1984-0.28996 0.1984-0.31281zm-1.761 0 0.1984 0.31281-0.1984 0.28996h-0.3968l-0.1984-0.28996 0.1984-0.31281zm-1.711 0 0.1984 0.31281-0.1984 0.28996h-0.3968l-0.1984-0.28996 0.1984-0.31281zm-1.761 0 0.1984 0.31281-0.1984 0.28996h-0.3968l-0.1984-0.28996 0.1984-0.31281zm-1.761 0 0.1984 0.31281-0.1984 0.28996h-0.3968l-0.1984-0.28996 0.1984-0.31281zm-1.761 0 0.1984 0.31281-0.1984 0.28996h-0.3968l-0.1984-0.28996 0.1984-0.31281zm-1.711 0 0.1984 0.31281-0.1984 0.28996h-0.3968l-0.1984-0.28996 0.1984-0.31281zm-1.761 0 0.1984 0.31281-0.1984 0.28996h-0.3968l-0.1984-0.28996 0.1984-0.31281zm-1.7364 0 0.1984 0.31281-0.1984 0.28996h-0.3968l-0.1984-0.28996 0.1984-0.31281zm-1.761 0 0.1984 0.31281-0.1984 0.28996h-0.3968l-0.1984-0.28996 0.1984-0.31281zm-1.711 0 0.1984 0.31281-0.1984 0.28996h-0.3968l-0.1984-0.28996 0.1984-0.31281zm-1.761 0 0.1984 0.31281-0.1984 0.28996h-0.3968l-0.1984-0.28996 0.1984-0.31281zm-1.7364 0 0.1984 0.31281-0.1984 0.28996h-0.3968l-0.1984-0.28996 0.1984-0.31281zm-1.761 0 0.1984 0.31281-0.1984 0.28996h-0.3968l-0.1984-0.28996 0.1984-0.31281zm-1.7364 0 0.1984 0.31281-0.1984 0.28996h-0.3968l-0.1984-0.28996 0.1984-0.31281zm-1.761 0 0.1984 0.31281-0.1984 0.28996h-0.074599v-0.60276zm28.495 0.33495v0.6249h-0.0746l-0.1984-0.31281 0.1984-0.31281zm-1.4388 0 0.1984 0.31281-0.1984 0.31281h-0.3968l-0.1984-0.31281 0.1984-0.31281zm-1.711 0 0.1984 0.31281-0.1984 0.31281h-0.3968l-0.1984-0.31281 0.1984-0.31281zm-1.761 0 0.1984 0.31281-0.1984 0.31281h-0.3968l-0.1984-0.31281 0.1984-0.31281zm-1.7364 0 0.1984 0.31281-0.1984 0.31281h-0.3968l-0.1984-0.31281 0.1984-0.31281zm-1.761 0 0.1984 0.31281-0.1984 0.31281h-0.3968l-0.1984-0.31281 0.1984-0.31281zm-1.7364 0 0.1984 0.31281-0.1984 0.31281h-0.3968l-0.1984-0.31281 0.1984-0.31281zm-1.761 0 0.1984 0.31281-0.1984 0.31281h-0.3968l-0.1984-0.31281 0.1984-0.31281zm-1.7364 0 0.1984 0.31281-0.1984 0.31281h-0.3968l-0.1984-0.31281 0.1984-0.31281zm-1.761 0 0.1984 0.31281-0.1984 0.31281h-0.3968l-0.1984-0.31281 0.1984-0.31281zm-1.711 0 0.1984 0.31281-0.1984 0.31281h-0.3968l-0.1984-0.31281 0.1984-0.31281zm-1.761 0 0.1984 0.31281-0.1984 0.31281h-0.3968l-0.1984-0.31281 0.1984-0.31281zm-1.7364 0 0.1984 0.31281-0.1984 0.31281h-0.3968l-0.1984-0.31281 0.1984-0.31281zm-1.761 0 0.1984 0.31281-0.1984 0.31281h-0.3968l-0.1984-0.31281 0.1984-0.31281zm-1.7364 0 0.1984 0.31281-0.1984 0.31281h-0.3968l-0.1984-0.31281 0.1984-0.31281zm-1.761 0 0.1984 0.31281-0.1984 0.31281h-0.3968l-0.1984-0.31281 0.1984-0.31281zm-1.711 0 0.1984 0.31281-0.1984 0.31281h-0.3968l-0.1984-0.31281 0.1984-0.31281zm27.006 0.51349 0.1984 0.31281-0.1984 0.28996h-0.3968l-0.1984-0.28996 0.1984-0.31281zm-1.7364 0 0.1984 0.31281-0.1984 0.28996h-0.3968l-0.1984-0.28996 0.1984-0.31281zm-1.761 0 0.1984 0.31281-0.1984 0.28996h-0.3968l-0.1984-0.28996 0.1984-0.31281zm-1.711 0 0.1984 0.31281-0.1984 0.28996h-0.3968l-0.1984-0.28996 0.1984-0.31281zm-1.761 0 0.1984 0.31281-0.1984 0.28996h-0.3968l-0.1984-0.28996 0.1984-0.31281zm-1.761 0 0.1984 0.31281-0.1984 0.28996h-0.3968l-0.1984-0.28996 0.1984-0.31281zm-1.761 0 0.1984 0.31281-0.1984 0.28996h-0.3968l-0.1984-0.28996 0.1984-0.31281zm-1.711 0 0.1984 0.31281-0.1984 0.28996h-0.3968l-0.1984-0.28996 0.1984-0.31281zm-1.761 0 0.1984 0.31281-0.1984 0.28996h-0.3968l-0.1984-0.28996 0.1984-0.31281zm-1.7364 0 0.1984 0.31281-0.1984 0.28996h-0.3968l-0.1984-0.28996 0.1984-0.31281zm-1.761 0 0.1984 0.31281-0.1984 0.28996h-0.3968l-0.1984-0.28996 0.1984-0.31281zm-1.711 0 0.1984 0.31281-0.1984 0.28996h-0.3968l-0.1984-0.28996 0.1984-0.31281zm-1.761 0 0.1984 0.31281-0.1984 0.28996h-0.3968l-0.1984-0.28996 0.1984-0.31281zm-1.7364 0 0.1984 0.31281-0.1984 0.28996h-0.3968l-0.1984-0.28996 0.1984-0.31281zm-1.761 0 0.1984 0.31281-0.1984 0.28996h-0.3968l-0.1984-0.28996 0.1984-0.31281zm-1.7364 0 0.1984 0.31281-0.1984 0.28996h-0.3968l-0.1984-0.28996 0.1984-0.31281zm-1.761 0 0.1984 0.31281-0.1984 0.28996h-0.074599v-0.60276zm28.495 0.35709v0.60277h-0.0746l-0.1984-0.28996 0.1984-0.31281zm-1.4388 0 0.1984 0.31281-0.1984 0.28996h-0.3968l-0.1984-0.28996 0.1984-0.31281zm-1.711 0 0.1984 0.31281-0.1984 0.28996h-0.3968l-0.1984-0.28996 0.1984-0.31281zm-1.761 0 0.1984 0.31281-0.1984 0.28996h-0.3968l-0.1984-0.28996 0.1984-0.31281zm-1.7364 0 0.1984 0.31281-0.1984 0.28996h-0.3968l-0.1984-0.28996 0.1984-0.31281zm-1.761 0 0.1984 0.31281-0.1984 0.28996h-0.3968l-0.1984-0.28996 0.1984-0.31281zm-1.7364 0 0.1984 0.31281-0.1984 0.28996h-0.3968l-0.1984-0.28996 0.1984-0.31281zm-1.761 0 0.1984 0.31281-0.1984 0.28996h-0.3968l-0.1984-0.28996 0.1984-0.31281zm-1.7364 0 0.1984 0.31281-0.1984 0.28996h-0.3968l-0.1984-0.28996 0.1984-0.31281zm-1.761 0 0.1984 0.31281-0.1984 0.28996h-0.3968l-0.1984-0.28996 0.1984-0.31281zm-1.711 0 0.1984 0.31281-0.1984 0.28996h-0.3968l-0.1984-0.28996 0.1984-0.31281zm-1.761 0 0.1984 0.31281-0.1984 0.28996h-0.3968l-0.1984-0.28996 0.1984-0.31281zm-1.7364 0 0.1984 0.31281-0.1984 0.28996h-0.3968l-0.1984-0.28996 0.1984-0.31281zm-1.761 0 0.1984 0.31281-0.1984 0.28996h-0.3968l-0.1984-0.28996 0.1984-0.31281zm-1.7364 0 0.1984 0.31281-0.1984 0.28996h-0.3968l-0.1984-0.28996 0.1984-0.31281zm-1.761 0 0.1984 0.31281-0.1984 0.28996h-0.3968l-0.1984-0.28996 0.1984-0.31281zm-1.711 0 0.1984 0.31281-0.1984 0.28996h-0.3968l-0.1984-0.28996 0.1984-0.31281zm27.006 0.4685 0.1984 0.31281-0.1984 0.28996h-0.3968l-0.1984-0.28996 0.1984-0.31281zm-1.7364 0 0.1984 0.31281-0.1984 0.28996h-0.3968l-0.1984-0.28996 0.1984-0.31281zm-1.761 0 0.1984 0.31281-0.1984 0.28996h-0.3968l-0.1984-0.28996 0.1984-0.31281zm-1.711 0 0.1984 0.31281-0.1984 0.28996h-0.3968l-0.1984-0.28996 0.1984-0.31281zm-1.761 0 0.1984 0.31281-0.1984 0.28996h-0.3968l-0.1984-0.28996 0.1984-0.31281zm-1.761 0 0.1984 0.31281-0.1984 0.28996h-0.3968l-0.1984-0.28996 0.1984-0.31281zm-1.761 0 0.1984 0.31281-0.1984 0.28996h-0.3968l-0.1984-0.28996 0.1984-0.31281zm-1.711 0 0.1984 0.31281-0.1984 0.28996h-0.3968l-0.1984-0.28996 0.1984-0.31281zm-1.761 0 0.1984 0.31281-0.1984 0.28996h-0.3968l-0.1984-0.28996 0.1984-0.31281zm-1.7364 0 0.1984 0.31281-0.1984 0.28996h-0.3968l-0.1984-0.28996 0.1984-0.31281zm-1.761 0 0.1984 0.31281-0.1984 0.28996h-0.3968l-0.1984-0.28996 0.1984-0.31281zm-1.711 0 0.1984 0.31281-0.1984 0.28996h-0.3968l-0.1984-0.28996 0.1984-0.31281zm-1.761 0 0.1984 0.31281-0.1984 0.28996h-0.3968l-0.1984-0.28996 0.1984-0.31281zm-1.7364 0 0.1984 0.31281-0.1984 0.28996h-0.3968l-0.1984-0.28996 0.1984-0.31281zm-1.761 0 0.1984 0.31281-0.1984 0.28996h-0.3968l-0.1984-0.28996 0.1984-0.31281zm-1.7364 0 0.1984 0.31281-0.1984 0.28996h-0.3968l-0.1984-0.28996 0.1984-0.31281zm-1.761 0 0.1984 0.31281-0.1984 0.28996h-0.074599v-0.60276zm28.495 0.37923v0.60277h-0.0746l-0.1984-0.31281 0.1984-0.28996zm-1.4388 0 0.1984 0.28996-0.1984 0.31281h-0.3968l-0.1984-0.31281 0.1984-0.28996zm-1.711 0 0.1984 0.28996-0.1984 0.31281h-0.3968l-0.1984-0.31281 0.1984-0.28996zm-1.761 0 0.1984 0.28996-0.1984 0.31281h-0.3968l-0.1984-0.31281 0.1984-0.28996zm-1.7364 0 0.1984 0.28996-0.1984 0.31281h-0.3968l-0.1984-0.31281 0.1984-0.28996zm-1.761 0 0.1984 0.28996-0.1984 0.31281h-0.3968l-0.1984-0.31281 0.1984-0.28996zm-1.7364 0 0.1984 0.28996-0.1984 0.31281h-0.3968l-0.1984-0.31281 0.1984-0.28996zm-1.761 0 0.1984 0.28996-0.1984 0.31281h-0.3968l-0.1984-0.31281 0.1984-0.28996zm-1.7364 0 0.1984 0.28996-0.1984 0.31281h-0.3968l-0.1984-0.31281 0.1984-0.28996zm-1.761 0 0.1984 0.28996-0.1984 0.31281h-0.3968l-0.1984-0.31281 0.1984-0.28996zm-1.711 0 0.1984 0.28996-0.1984 0.31281h-0.3968l-0.1984-0.31281 0.1984-0.28996zm-1.761 0 0.1984 0.28996-0.1984 0.31281h-0.3968l-0.1984-0.31281 0.1984-0.28996zm-1.7364 0 0.1984 0.28996-0.1984 0.31281h-0.3968l-0.1984-0.31281 0.1984-0.28996zm-1.761 0 0.1984 0.28996-0.1984 0.31281h-0.3968l-0.1984-0.31281 0.1984-0.28996zm-1.7364 0 0.1984 0.28996-0.1984 0.31281h-0.3968l-0.1984-0.31281 0.1984-0.28996zm-1.761 0 0.1984 0.28996-0.1984 0.31281h-0.3968l-0.1984-0.31281 0.1984-0.28996zm-1.711 0 0.1984 0.28996-0.1984 0.31281h-0.3968l-0.1984-0.31281 0.1984-0.28996zm27.006 0.44636 0.1984 0.31281-0.1984 0.31281h-0.3968l-0.1984-0.31281 0.1984-0.31281zm-1.7364 0 0.1984 0.31281-0.1984 0.31281h-0.3968l-0.1984-0.31281 0.1984-0.31281zm-1.761 0 0.1984 0.31281-0.1984 0.31281h-0.3968l-0.1984-0.31281 0.1984-0.31281zm-1.711 0 0.1984 0.31281-0.1984 0.31281h-0.3968l-0.1984-0.31281 0.1984-0.31281zm-1.761 0 0.1984 0.31281-0.1984 0.31281h-0.3968l-0.1984-0.31281 0.1984-0.31281zm-1.761 0 0.1984 0.31281-0.1984 0.31281h-0.3968l-0.1984-0.31281 0.1984-0.31281zm-1.761 0 0.1984 0.31281-0.1984 0.31281h-0.3968l-0.1984-0.31281 0.1984-0.31281zm-1.711 0 0.1984 0.31281-0.1984 0.31281h-0.3968l-0.1984-0.31281 0.1984-0.31281zm-1.761 0 0.1984 0.31281-0.1984 0.31281h-0.3968l-0.1984-0.31281 0.1984-0.31281zm-1.7364 0 0.1984 0.31281-0.1984 0.31281h-0.3968l-0.1984-0.31281 0.1984-0.31281zm-1.761 0 0.1984 0.31281-0.1984 0.31281h-0.3968l-0.1984-0.31281 0.1984-0.31281zm-1.711 0 0.1984 0.31281-0.1984 0.31281h-0.3968l-0.1984-0.31281 0.1984-0.31281zm-1.761 0 0.1984 0.31281-0.1984 0.31281h-0.3968l-0.1984-0.31281 0.1984-0.31281zm-1.7364 0 0.1984 0.31281-0.1984 0.31281h-0.3968l-0.1984-0.31281 0.1984-0.31281zm-1.761 0 0.1984 0.31281-0.1984 0.31281h-0.3968l-0.1984-0.31281 0.1984-0.31281zm-1.7364 0 0.1984 0.31281-0.1984 0.31281h-0.3968l-0.1984-0.31281 0.1984-0.31281zm-1.761 0 0.1984 0.31281-0.1984 0.31281h-0.074599v-0.6249zm28.495 0.35709v0.6249h-0.0746l-0.1984-0.31281 0.1984-0.31281zm-1.4388 0 0.1984 0.31281-0.1984 0.31281h-0.3968l-0.1984-0.31281 0.1984-0.31281zm-1.711 0 0.1984 0.31281-0.1984 0.31281h-0.3968l-0.1984-0.31281 0.1984-0.31281zm-1.761 0 0.1984 0.31281-0.1984 0.31281h-0.3968l-0.1984-0.31281 0.1984-0.31281zm-1.7364 0 0.1984 0.31281-0.1984 0.31281h-0.3968l-0.1984-0.31281 0.1984-0.31281zm-1.761 0 0.1984 0.31281-0.1984 0.31281h-0.3968l-0.1984-0.31281 0.1984-0.31281zm-1.7364 0 0.1984 0.31281-0.1984 0.31281h-0.3968l-0.1984-0.31281 0.1984-0.31281zm-1.761 0 0.1984 0.31281-0.1984 0.31281h-0.3968l-0.1984-0.31281 0.1984-0.31281zm-1.7364 0 0.1984 0.31281-0.1984 0.31281h-0.3968l-0.1984-0.31281 0.1984-0.31281zm-1.761 0 0.1984 0.31281-0.1984 0.31281h-0.3968l-0.1984-0.31281 0.1984-0.31281zm-1.711 0 0.1984 0.31281-0.1984 0.31281h-0.3968l-0.1984-0.31281 0.1984-0.31281zm-1.761 0 0.1984 0.31281-0.1984 0.31281h-0.3968l-0.1984-0.31281 0.1984-0.31281zm-1.7364 0 0.1984 0.31281-0.1984 0.31281h-0.3968l-0.1984-0.31281 0.1984-0.31281zm-1.761 0 0.1984 0.31281-0.1984 0.31281h-0.3968l-0.1984-0.31281 0.1984-0.31281zm-1.7364 0 0.1984 0.31281-0.1984 0.31281h-0.3968l-0.1984-0.31281 0.1984-0.31281zm-1.761 0 0.1984 0.31281-0.1984 0.31281h-0.3968l-0.1984-0.31281 0.1984-0.31281zm-1.711 0 0.1984 0.31281-0.1984 0.31281h-0.3968l-0.1984-0.31281 0.1984-0.31281zm27.006 0.51349 0.1984 0.31281-0.1984 0.31281h-0.3968l-0.1984-0.31281 0.1984-0.31281zm-1.7364 0 0.1984 0.31281-0.1984 0.31281h-0.3968l-0.1984-0.31281 0.1984-0.31281zm-1.761 0 0.1984 0.31281-0.1984 0.31281h-0.3968l-0.1984-0.31281 0.1984-0.31281zm-1.711 0 0.1984 0.31281-0.1984 0.31281h-0.3968l-0.1984-0.31281 0.1984-0.31281zm-1.761 0 0.1984 0.31281-0.1984 0.31281h-0.3968l-0.1984-0.31281 0.1984-0.31281zm-1.761 0 0.1984 0.31281-0.1984 0.31281h-0.3968l-0.1984-0.31281 0.1984-0.31281zm-1.761 0 0.1984 0.31281-0.1984 0.31281h-0.3968l-0.1984-0.31281 0.1984-0.31281zm-1.711 0 0.1984 0.31281-0.1984 0.31281h-0.3968l-0.1984-0.31281 0.1984-0.31281zm-1.761 0 0.1984 0.31281-0.1984 0.31281h-0.3968l-0.1984-0.31281 0.1984-0.31281zm-1.7364 0 0.1984 0.31281-0.1984 0.31281h-0.3968l-0.1984-0.31281 0.1984-0.31281zm-1.761 0 0.1984 0.31281-0.1984 0.31281h-0.3968l-0.1984-0.31281 0.1984-0.31281zm-1.711 0 0.1984 0.31281-0.1984 0.31281h-0.3968l-0.1984-0.31281 0.1984-0.31281zm-1.761 0 0.1984 0.31281-0.1984 0.31281h-0.3968l-0.1984-0.31281 0.1984-0.31281zm-1.7364 0 0.1984 0.31281-0.1984 0.31281h-0.3968l-0.1984-0.31281 0.1984-0.31281zm-1.761 0 0.1984 0.31281-0.1984 0.31281h-0.3968l-0.1984-0.31281 0.1984-0.31281zm-1.7364 0 0.1984 0.31281-0.1984 0.31281h-0.3968l-0.1984-0.31281 0.1984-0.31281zm-1.761 0 0.1984 0.31281-0.1984 0.31281h-0.074599v-0.6249zm28.495 0.35709v0.60277h-0.0746l-0.1984-0.28996 0.1984-0.31281zm-1.4388 0 0.1984 0.31281-0.1984 0.28996h-0.3968l-0.1984-0.28996 0.1984-0.31281zm-1.711 0 0.1984 0.31281-0.1984 0.28996h-0.3968l-0.1984-0.28996 0.1984-0.31281zm-1.761 0 0.1984 0.31281-0.1984 0.28996h-0.3968l-0.1984-0.28996 0.1984-0.31281zm-1.7364 0 0.1984 0.31281-0.1984 0.28996h-0.3968l-0.1984-0.28996 0.1984-0.31281zm-1.761 0 0.1984 0.31281-0.1984 0.28996h-0.3968l-0.1984-0.28996 0.1984-0.31281zm-1.7364 0 0.1984 0.31281-0.1984 0.28996h-0.3968l-0.1984-0.28996 0.1984-0.31281zm-1.761 0 0.1984 0.31281-0.1984 0.28996h-0.3968l-0.1984-0.28996 0.1984-0.31281zm-1.7364 0 0.1984 0.31281-0.1984 0.28996h-0.3968l-0.1984-0.28996 0.1984-0.31281zm-1.761 0 0.1984 0.31281-0.1984 0.28996h-0.3968l-0.1984-0.28996 0.1984-0.31281zm-1.711 0 0.1984 0.31281-0.1984 0.28996h-0.3968l-0.1984-0.28996 0.1984-0.31281zm-1.761 0 0.1984 0.31281-0.1984 0.28996h-0.3968l-0.1984-0.28996 0.1984-0.31281zm-1.7364 0 0.1984 0.31281-0.1984 0.28996h-0.3968l-0.1984-0.28996 0.1984-0.31281zm-1.761 0 0.1984 0.31281-0.1984 0.28996h-0.3968l-0.1984-0.28996 0.1984-0.31281zm-1.7364 0 0.1984 0.31281-0.1984 0.28996h-0.3968l-0.1984-0.28996 0.1984-0.31281zm-1.761 0 0.1984 0.31281-0.1984 0.28996h-0.3968l-0.1984-0.28996 0.1984-0.31281zm-1.711 0 0.1984 0.31281-0.1984 0.28996h-0.3968l-0.1984-0.28996 0.1984-0.31281zm27.006 0.49135 0.14126 0.22354h-0.67853l0.14126-0.22354zm-1.7364 0 0.14126 0.22354h-0.67853l0.14126-0.22354zm-1.761 0 0.14126 0.22354h-0.67853l0.14126-0.22354zm-1.711 0 0.14126 0.22354h-0.67853l0.14126-0.22354zm-1.761 0 0.14126 0.22354h-0.67853l0.14126-0.22354zm-1.761 0 0.14126 0.22354h-0.67853l0.14126-0.22354zm-1.761 0 0.14126 0.22354h-0.67853l0.14126-0.22354zm-1.711 0 0.14126 0.22354h-0.67853l0.14126-0.22354zm-1.761 0 0.14126 0.22354h-0.67853l0.14126-0.22354zm-1.7364 0 0.14126 0.22354h-0.67853l0.14126-0.22354zm-1.761 0 0.14126 0.22354h-0.67853l0.14126-0.22354zm-1.711 0 0.14126 0.22354h-0.67853l0.14126-0.22354zm-1.761 0 0.14126 0.22354h-0.67853l0.14126-0.22354zm-1.7364 0 0.14126 0.22354h-0.67853l0.14126-0.22354zm-1.761 0 0.14126 0.22354h-0.67853l0.14126-0.22354zm-1.7364 0 0.14126 0.22354h-0.67853l0.14126-0.22354zm-1.761 0 0.14126 0.22354h-0.21507v-0.22354z" style="color:#000000;fill-opacity:.311;stroke-width:.15057"/>
<path d="m30.23 7.4357v0.53563h-0.0746l-0.1984-0.28996 0.15634-0.24568zm-0.44362 0-0.12698 0.20068h-0.3968l-0.12698-0.20068zm-0.95312 0 0.15634 0.24568-0.1984 0.28996h-0.3968l-0.1984-0.28996 0.15634-0.24568zm-0.78249 0-0.12698 0.20068h-0.3968l-0.12698-0.20068zm-0.92852 0 0.15634 0.24568-0.1984 0.28996h-0.3968l-0.1984-0.28996 0.15634-0.24568zm-0.83249 0-0.12698 0.20068h-0.3968l-0.12698-0.20068zm-0.92852 0 0.15634 0.24568-0.1984 0.28996h-0.3968l-0.1984-0.28996 0.15634-0.24568zm-0.78249 0-0.12698 0.20068h-0.3968l-0.12698-0.20068zm-0.95312 0 0.15634 0.24568-0.1984 0.28996h-0.3968l-0.1984-0.28996 0.15634-0.24568zm-0.80789 0-0.12698 0.20068h-0.3968l-0.12698-0.20068zm-0.95312 0 0.15634 0.24568-0.1984 0.28996h-0.3968l-0.1984-0.28996 0.15634-0.24568zm-0.80789 0-0.12698 0.20068h-0.3968l-0.12698-0.20068zm-0.92852 0 0.15634 0.24568-0.1984 0.28996h-0.3968l-0.1984-0.28996 0.15634-0.24568zm-0.83249 0-0.12698 0.20068h-0.3968l-0.12698-0.20068zm-0.92852 0 0.15634 0.24568-0.1984 0.28996h-0.3968l-0.1984-0.28996 0.15634-0.24568zm-0.78249 0-0.12698 0.20068h-0.3968l-0.12698-0.20068zm-0.95312 0 0.15634 0.24568-0.1984 0.28996h-0.3968l-0.1984-0.28996 0.15634-0.24568zm-0.80789 0-0.12698 0.20068h-0.3968l-0.12698-0.20068zm-0.95312 0 0.15634 0.24568-0.1984 0.28996h-0.3968l-0.1984-0.28996 0.15634-0.24568zm-0.78249 0-0.12698 0.20068h-0.3968l-0.12698-0.20068zm-0.92852 0 0.15634 0.24568-0.1984 0.28996h-0.3968l-0.1984-0.28996 0.15634-0.24568zm-0.83249 0-0.12698 0.20068h-0.3968l-0.12698-0.20068zm-0.92852 0 0.15634 0.24568-0.1984 0.28996h-0.3968l-0.1984-0.28996 0.15634-0.24568zm-0.78249 0-0.12698 0.20068h-0.3968l-0.12698-0.20068zm-0.95312 0 0.15634 0.24568-0.1984 0.28996h-0.3968l-0.1984-0.28996 0.15634-0.24568zm-0.80789 0-0.12698 0.20068h-0.3968l-0.12698-0.20068zm-0.95312 0 0.15634 0.24568-0.1984 0.28996h-0.3968l-0.1984-0.28996 0.15634-0.24568zm-0.78249 0-0.12698 0.20068h-0.3968l-0.12698-0.20068zm-0.95312 0 0.15634 0.24568-0.1984 0.28996h-0.3968l-0.1984-0.28996 0.15634-0.24568zm-0.80789 0-0.12698 0.20068h-0.3968l-0.12698-0.20068zm-0.95312 0 0.15634 0.24568-0.1984 0.28996h-0.3968l-0.1984-0.28996 0.15634-0.24568zm-0.78249 0-0.12698 0.20068h-0.3968l-0.12698-0.20068zm-0.92852 0 0.15634 0.24568-0.1984 0.28996h-0.3968l-0.1984-0.28996 0.15634-0.24568zm-0.83249 0-0.12698 0.20068h-0.074599v-0.20068zm27.8 0.44636 0.1984 0.31281-0.1984 0.28996h-0.3968l-0.1984-0.28996 0.1984-0.31281zm-1.7364 0 0.1984 0.31281-0.1984 0.28996h-0.3968l-0.1984-0.28996 0.1984-0.31281zm-1.761 0 0.1984 0.31281-0.1984 0.28996h-0.3968l-0.1984-0.28996 0.1984-0.31281zm-1.711 0 0.1984 0.31281-0.1984 0.28996h-0.3968l-0.1984-0.28996 0.1984-0.31281zm-1.761 0 0.1984 0.31281-0.1984 0.28996h-0.3968l-0.1984-0.28996 0.1984-0.31281zm-1.761 0 0.1984 0.31281-0.1984 0.28996h-0.3968l-0.1984-0.28996 0.1984-0.31281zm-1.761 0 0.1984 0.31281-0.1984 0.28996h-0.3968l-0.1984-0.28996 0.1984-0.31281zm-1.711 0 0.1984 0.31281-0.1984 0.28996h-0.3968l-0.1984-0.28996 0.1984-0.31281zm-1.761 0 0.1984 0.31281-0.1984 0.28996h-0.3968l-0.1984-0.28996 0.1984-0.31281zm-1.7364 0 0.1984 0.31281-0.1984 0.28996h-0.3968l-0.1984-0.28996 0.1984-0.31281zm-1.761 0 0.1984 0.31281-0.1984 0.28996h-0.3968l-0.1984-0.28996 0.1984-0.31281zm-1.711 0 0.1984 0.31281-0.1984 0.28996h-0.3968l-0.1984-0.28996 0.1984-0.31281zm-1.761 0 0.1984 0.31281-0.1984 0.28996h-0.3968l-0.1984-0.28996 0.1984-0.31281zm-1.7364 0 0.1984 0.31281-0.1984 0.28996h-0.3968l-0.1984-0.28996 0.1984-0.31281zm-1.761 0 0.1984 0.31281-0.1984 0.28996h-0.3968l-0.1984-0.28996 0.1984-0.31281zm-1.7364 0 0.1984 0.31281-0.1984 0.28996h-0.3968l-0.1984-0.28996 0.1984-0.31281zm-1.761 0 0.1984 0.31281-0.1984 0.28996h-0.074599v-0.60277zm28.495 0.31281v0.60277h-0.0746l-0.1984-0.31281 0.1984-0.28996zm-1.4388 0 0.1984 0.28996-0.1984 0.31281h-0.3968l-0.1984-0.31281 0.1984-0.28996zm-1.711 0 0.1984 0.28996-0.1984 0.31281h-0.3968l-0.1984-0.31281 0.1984-0.28996zm-1.761 0 0.1984 0.28996-0.1984 0.31281h-0.3968l-0.1984-0.31281 0.1984-0.28996zm-1.7364 0 0.1984 0.28996-0.1984 0.31281h-0.3968l-0.1984-0.31281 0.1984-0.28996zm-1.761 0 0.1984 0.28996-0.1984 0.31281h-0.3968l-0.1984-0.31281 0.1984-0.28996zm-1.7364 0 0.1984 0.28996-0.1984 0.31281h-0.3968l-0.1984-0.31281 0.1984-0.28996zm-1.761 0 0.1984 0.28996-0.1984 0.31281h-0.3968l-0.1984-0.31281 0.1984-0.28996zm-1.7364 0 0.1984 0.28996-0.1984 0.31281h-0.3968l-0.1984-0.31281 0.1984-0.28996zm-1.761 0 0.1984 0.28996-0.1984 0.31281h-0.3968l-0.1984-0.31281 0.1984-0.28996zm-1.711 0 0.1984 0.28996-0.1984 0.31281h-0.3968l-0.1984-0.31281 0.1984-0.28996zm-1.761 0 0.1984 0.28996-0.1984 0.31281h-0.3968l-0.1984-0.31281 0.1984-0.28996zm-1.7364 0 0.1984 0.28996-0.1984 0.31281h-0.3968l-0.1984-0.31281 0.1984-0.28996zm-1.761 0 0.1984 0.28996-0.1984 0.31281h-0.3968l-0.1984-0.31281 0.1984-0.28996zm-1.7364 0 0.1984 0.28996-0.1984 0.31281h-0.3968l-0.1984-0.31281 0.1984-0.28996zm-1.761 0 0.1984 0.28996-0.1984 0.31281h-0.3968l-0.1984-0.31281 0.1984-0.28996zm-1.711 0 0.1984 0.28996-0.1984 0.31281h-0.3968l-0.1984-0.31281 0.1984-0.28996zm27.006 0.51349 0.1984 0.31281-0.1984 0.28996h-0.3968l-0.1984-0.28996 0.1984-0.31281zm-1.7364 0 0.1984 0.31281-0.1984 0.28996h-0.3968l-0.1984-0.28996 0.1984-0.31281zm-1.761 0 0.1984 0.31281-0.1984 0.28996h-0.3968l-0.1984-0.28996 0.1984-0.31281zm-1.711 0 0.1984 0.31281-0.1984 0.28996h-0.3968l-0.1984-0.28996 0.1984-0.31281zm-1.761 0 0.1984 0.31281-0.1984 0.28996h-0.3968l-0.1984-0.28996 0.1984-0.31281zm-1.761 0 0.1984 0.31281-0.1984 0.28996h-0.3968l-0.1984-0.28996 0.1984-0.31281zm-1.761 0 0.1984 0.31281-0.1984 0.28996h-0.3968l-0.1984-0.28996 0.1984-0.31281zm-1.711 0 0.1984 0.31281-0.1984 0.28996h-0.3968l-0.1984-0.28996 0.1984-0.31281zm-1.761 0 0.1984 0.31281-0.1984 0.28996h-0.3968l-0.1984-0.28996 0.1984-0.31281zm-1.7364 0 0.1984 0.31281-0.1984 0.28996h-0.3968l-0.1984-0.28996 0.1984-0.31281zm-1.761 0 0.1984 0.31281-0.1984 0.28996h-0.3968l-0.1984-0.28996 0.1984-0.31281zm-1.711 0 0.1984 0.31281-0.1984 0.28996h-0.3968l-0.1984-0.28996 0.1984-0.31281zm-1.761 0 0.1984 0.31281-0.1984 0.28996h-0.3968l-0.1984-0.28996 0.1984-0.31281zm-1.7364 0 0.1984 0.31281-0.1984 0.28996h-0.3968l-0.1984-0.28996 0.1984-0.31281zm-1.761 0 0.1984 0.31281-0.1984 0.28996h-0.3968l-0.1984-0.28996 0.1984-0.31281zm-1.7364 0 0.1984 0.31281-0.1984 0.28996h-0.3968l-0.1984-0.28996 0.1984-0.31281zm-1.761 0 0.1984 0.31281-0.1984 0.28996h-0.074599v-0.60277zm28.495 0.33495v0.62491h-0.0746l-0.1984-0.31281 0.1984-0.31281zm-1.4388 0 0.1984 0.31281-0.1984 0.31281h-0.3968l-0.1984-0.31281 0.1984-0.31281zm-1.711 0 0.1984 0.31281-0.1984 0.31281h-0.3968l-0.1984-0.31281 0.1984-0.31281zm-1.761 0 0.1984 0.31281-0.1984 0.31281h-0.3968l-0.1984-0.31281 0.1984-0.31281zm-1.7364 0 0.1984 0.31281-0.1984 0.31281h-0.3968l-0.1984-0.31281 0.1984-0.31281zm-1.761 0 0.1984 0.31281-0.1984 0.31281h-0.3968l-0.1984-0.31281 0.1984-0.31281zm-1.7364 0 0.1984 0.31281-0.1984 0.31281h-0.3968l-0.1984-0.31281 0.1984-0.31281zm-1.761 0 0.1984 0.31281-0.1984 0.31281h-0.3968l-0.1984-0.31281 0.1984-0.31281zm-1.7364 0 0.1984 0.31281-0.1984 0.31281h-0.3968l-0.1984-0.31281 0.1984-0.31281zm-1.761 0 0.1984 0.31281-0.1984 0.31281h-0.3968l-0.1984-0.31281 0.1984-0.31281zm-1.711 0 0.1984 0.31281-0.1984 0.31281h-0.3968l-0.1984-0.31281 0.1984-0.31281zm-1.761 0 0.1984 0.31281-0.1984 0.31281h-0.3968l-0.1984-0.31281 0.1984-0.31281zm-1.7364 0 0.1984 0.31281-0.1984 0.31281h-0.3968l-0.1984-0.31281 0.1984-0.31281zm-1.761 0 0.1984 0.31281-0.1984 0.31281h-0.3968l-0.1984-0.31281 0.1984-0.31281zm-1.7364 0 0.1984 0.31281-0.1984 0.31281h-0.3968l-0.1984-0.31281 0.1984-0.31281zm-1.761 0 0.1984 0.31281-0.1984 0.31281h-0.3968l-0.1984-0.31281 0.1984-0.31281zm-1.711 0 0.1984 0.31281-0.1984 0.31281h-0.3968l-0.1984-0.31281 0.1984-0.31281zm27.006 0.51349 0.1984 0.31281-0.1984 0.28996h-0.3968l-0.1984-0.28996 0.1984-0.31281zm-1.7364 0 0.1984 0.31281-0.1984 0.28996h-0.3968l-0.1984-0.28996 0.1984-0.31281zm-1.761 0 0.1984 0.31281-0.1984 0.28996h-0.3968l-0.1984-0.28996 0.1984-0.31281zm-1.711 0 0.1984 0.31281-0.1984 0.28996h-0.3968l-0.1984-0.28996 0.1984-0.31281zm-1.761 0 0.1984 0.31281-0.1984 0.28996h-0.3968l-0.1984-0.28996 0.1984-0.31281zm-1.761 0 0.1984 0.31281-0.1984 0.28996h-0.3968l-0.1984-0.28996 0.1984-0.31281zm-1.761 0 0.1984 0.31281-0.1984 0.28996h-0.3968l-0.1984-0.28996 0.1984-0.31281zm-1.711 0 0.1984 0.31281-0.1984 0.28996h-0.3968l-0.1984-0.28996 0.1984-0.31281zm-1.761 0 0.1984 0.31281-0.1984 0.28996h-0.3968l-0.1984-0.28996 0.1984-0.31281zm-1.7364 0 0.1984 0.31281-0.1984 0.28996h-0.3968l-0.1984-0.28996 0.1984-0.31281zm-1.761 0 0.1984 0.31281-0.1984 0.28996h-0.3968l-0.1984-0.28996 0.1984-0.31281zm-1.711 0 0.1984 0.31281-0.1984 0.28996h-0.3968l-0.1984-0.28996 0.1984-0.31281zm-1.761 0 0.1984 0.31281-0.1984 0.28996h-0.3968l-0.1984-0.28996 0.1984-0.31281zm-1.7364 0 0.1984 0.31281-0.1984 0.28996h-0.3968l-0.1984-0.28996 0.1984-0.31281zm-1.761 0 0.1984 0.31281-0.1984 0.28996h-0.3968l-0.1984-0.28996 0.1984-0.31281zm-1.7364 0 0.1984 0.31281-0.1984 0.28996h-0.3968l-0.1984-0.28996 0.1984-0.31281zm-1.761 0 0.1984 0.31281-0.1984 0.28996h-0.074599v-0.60276zm28.495 0.35709v0.60277h-0.0746l-0.1984-0.28996 0.1984-0.31281zm-1.4388 0 0.1984 0.31281-0.1984 0.28996h-0.3968l-0.1984-0.28996 0.1984-0.31281zm-1.711 0 0.1984 0.31281-0.1984 0.28996h-0.3968l-0.1984-0.28996 0.1984-0.31281zm-1.761 0 0.1984 0.31281-0.1984 0.28996h-0.3968l-0.1984-0.28996 0.1984-0.31281zm-1.7364 0 0.1984 0.31281-0.1984 0.28996h-0.3968l-0.1984-0.28996 0.1984-0.31281zm-1.761 0 0.1984 0.31281-0.1984 0.28996h-0.3968l-0.1984-0.28996 0.1984-0.31281zm-1.7364 0 0.1984 0.31281-0.1984 0.28996h-0.3968l-0.1984-0.28996 0.1984-0.31281zm-1.761 0 0.1984 0.31281-0.1984 0.28996h-0.3968l-0.1984-0.28996 0.1984-0.31281zm-1.7364 0 0.1984 0.31281-0.1984 0.28996h-0.3968l-0.1984-0.28996 0.1984-0.31281zm-1.761 0 0.1984 0.31281-0.1984 0.28996h-0.3968l-0.1984-0.28996 0.1984-0.31281zm-1.711 0 0.1984 0.31281-0.1984 0.28996h-0.3968l-0.1984-0.28996 0.1984-0.31281zm-1.761 0 0.1984 0.31281-0.1984 0.28996h-0.3968l-0.1984-0.28996 0.1984-0.31281zm-1.7364 0 0.1984 0.31281-0.1984 0.28996h-0.3968l-0.1984-0.28996 0.1984-0.31281zm-1.761 0 0.1984 0.31281-0.1984 0.28996h-0.3968l-0.1984-0.28996 0.1984-0.31281zm-1.7364 0 0.1984 0.31281-0.1984 0.28996h-0.3968l-0.1984-0.28996 0.1984-0.31281zm-1.761 0 0.1984 0.31281-0.1984 0.28996h-0.3968l-0.1984-0.28996 0.1984-0.31281zm-1.711 0 0.1984 0.31281-0.1984 0.28996h-0.3968l-0.1984-0.28996 0.1984-0.31281zm27.006 0.4685 0.1984 0.31281-0.1984 0.28996h-0.3968l-0.1984-0.28996 0.1984-0.31281zm-1.7364 0 0.1984 0.31281-0.1984 0.28996h-0.3968l-0.1984-0.28996 0.1984-0.31281zm-1.761 0 0.1984 0.31281-0.1984 0.28996h-0.3968l-0.1984-0.28996 0.1984-0.31281zm-1.711 0 0.1984 0.31281-0.1984 0.28996h-0.3968l-0.1984-0.28996 0.1984-0.31281zm-1.761 0 0.1984 0.31281-0.1984 0.28996h-0.3968l-0.1984-0.28996 0.1984-0.31281zm-1.761 0 0.1984 0.31281-0.1984 0.28996h-0.3968l-0.1984-0.28996 0.1984-0.31281zm-1.761 0 0.1984 0.31281-0.1984 0.28996h-0.3968l-0.1984-0.28996 0.1984-0.31281zm-1.711 0 0.1984 0.31281-0.1984 0.28996h-0.3968l-0.1984-0.28996 0.1984-0.31281zm-1.761 0 0.1984 0.31281-0.1984 0.28996h-0.3968l-0.1984-0.28996 0.1984-0.31281zm-1.7364 0 0.1984 0.31281-0.1984 0.28996h-0.3968l-0.1984-0.28996 0.1984-0.31281zm-1.761 0 0.1984 0.31281-0.1984 0.28996h-0.3968l-0.1984-0.28996 0.1984-0.31281zm-1.711 0 0.1984 0.31281-0.1984 0.28996h-0.3968l-0.1984-0.28996 0.1984-0.31281zm-1.761 0 0.1984 0.31281-0.1984 0.28996h-0.3968l-0.1984-0.28996 0.1984-0.31281zm-1.7364 0 0.1984 0.31281-0.1984 0.28996h-0.3968l-0.1984-0.28996 0.1984-0.31281zm-1.761 0 0.1984 0.31281-0.1984 0.28996h-0.3968l-0.1984-0.28996 0.1984-0.31281zm-1.7364 0 0.1984 0.31281-0.1984 0.28996h-0.3968l-0.1984-0.28996 0.1984-0.31281zm-1.761 0 0.1984 0.31281-0.1984 0.28996h-0.074599v-0.60277zm28.495 0.37923v0.60276h-0.0746l-0.1984-0.31281 0.1984-0.28996zm-1.4388 0 0.1984 0.28996-0.1984 0.31281h-0.3968l-0.1984-0.31281 0.1984-0.28996zm-1.711 0 0.1984 0.28996-0.1984 0.31281h-0.3968l-0.1984-0.31281 0.1984-0.28996zm-1.761 0 0.1984 0.28996-0.1984 0.31281h-0.3968l-0.1984-0.31281 0.1984-0.28996zm-1.7364 0 0.1984 0.28996-0.1984 0.31281h-0.3968l-0.1984-0.31281 0.1984-0.28996zm-1.761 0 0.1984 0.28996-0.1984 0.31281h-0.3968l-0.1984-0.31281 0.1984-0.28996zm-1.7364 0 0.1984 0.28996-0.1984 0.31281h-0.3968l-0.1984-0.31281 0.1984-0.28996zm-1.761 0 0.1984 0.28996-0.1984 0.31281h-0.3968l-0.1984-0.31281 0.1984-0.28996zm-1.7364 0 0.1984 0.28996-0.1984 0.31281h-0.3968l-0.1984-0.31281 0.1984-0.28996zm-1.761 0 0.1984 0.28996-0.1984 0.31281h-0.3968l-0.1984-0.31281 0.1984-0.28996zm-1.711 0 0.1984 0.28996-0.1984 0.31281h-0.3968l-0.1984-0.31281 0.1984-0.28996zm-1.761 0 0.1984 0.28996-0.1984 0.31281h-0.3968l-0.1984-0.31281 0.1984-0.28996zm-1.7364 0 0.1984 0.28996-0.1984 0.31281h-0.3968l-0.1984-0.31281 0.1984-0.28996zm-1.761 0 0.1984 0.28996-0.1984 0.31281h-0.3968l-0.1984-0.31281 0.1984-0.28996zm-1.7364 0 0.1984 0.28996-0.1984 0.31281h-0.3968l-0.1984-0.31281 0.1984-0.28996zm-1.761 0 0.1984 0.28996-0.1984 0.31281h-0.3968l-0.1984-0.31281 0.1984-0.28996zm-1.711 0 0.1984 0.28996-0.1984 0.31281h-0.3968l-0.1984-0.31281 0.1984-0.28996zm27.006 0.44636 0.1984 0.31281-0.1984 0.31281h-0.3968l-0.1984-0.31281 0.1984-0.31281zm-1.7364 0 0.1984 0.31281-0.1984 0.31281h-0.3968l-0.1984-0.31281 0.1984-0.31281zm-1.761 0 0.1984 0.31281-0.1984 0.31281h-0.3968l-0.1984-0.31281 0.1984-0.31281zm-1.711 0 0.1984 0.31281-0.1984 0.31281h-0.3968l-0.1984-0.31281 0.1984-0.31281zm-1.761 0 0.1984 0.31281-0.1984 0.31281h-0.3968l-0.1984-0.31281 0.1984-0.31281zm-1.761 0 0.1984 0.31281-0.1984 0.31281h-0.3968l-0.1984-0.31281 0.1984-0.31281zm-1.761 0 0.1984 0.31281-0.1984 0.31281h-0.3968l-0.1984-0.31281 0.1984-0.31281zm-1.711 0 0.1984 0.31281-0.1984 0.31281h-0.3968l-0.1984-0.31281 0.1984-0.31281zm-1.761 0 0.1984 0.31281-0.1984 0.31281h-0.3968l-0.1984-0.31281 0.1984-0.31281zm-1.7364 0 0.1984 0.31281-0.1984 0.31281h-0.3968l-0.1984-0.31281 0.1984-0.31281zm-1.761 0 0.1984 0.31281-0.1984 0.31281h-0.3968l-0.1984-0.31281 0.1984-0.31281zm-1.711 0 0.1984 0.31281-0.1984 0.31281h-0.3968l-0.1984-0.31281 0.1984-0.31281zm-1.761 0 0.1984 0.31281-0.1984 0.31281h-0.3968l-0.1984-0.31281 0.1984-0.31281zm-1.7364 0 0.1984 0.31281-0.1984 0.31281h-0.3968l-0.1984-0.31281 0.1984-0.31281zm-1.761 0 0.1984 0.31281-0.1984 0.31281h-0.3968l-0.1984-0.31281 0.1984-0.31281zm-1.7364 0 0.1984 0.31281-0.1984 0.31281h-0.3968l-0.1984-0.31281 0.1984-0.31281zm-1.761 0 0.1984 0.31281-0.1984 0.31281h-0.074599v-0.6249zm28.495 0.35709v0.6249h-0.0746l-0.1984-0.31281 0.1984-0.31281zm-1.4388 0 0.1984 0.31281-0.1984 0.31281h-0.3968l-0.1984-0.31281 0.1984-0.31281zm-1.711 0 0.1984 0.31281-0.1984 0.31281h-0.3968l-0.1984-0.31281 0.1984-0.31281zm-1.761 0 0.1984 0.31281-0.1984 0.31281h-0.3968l-0.1984-0.31281 0.1984-0.31281zm-1.7364 0 0.1984 0.31281-0.1984 0.31281h-0.3968l-0.1984-0.31281 0.1984-0.31281zm-1.761 0 0.1984 0.31281-0.1984 0.31281h-0.3968l-0.1984-0.31281 0.1984-0.31281zm-1.7364 0 0.1984 0.31281-0.1984 0.31281h-0.3968l-0.1984-0.31281 0.1984-0.31281zm-1.761 0 0.1984 0.31281-0.1984 0.31281h-0.3968l-0.1984-0.31281 0.1984-0.31281zm-1.7364 0 0.1984 0.31281-0.1984 0.31281h-0.3968l-0.1984-0.31281 0.1984-0.31281zm-1.761 0 0.1984 0.31281-0.1984 0.31281h-0.3968l-0.1984-0.31281 0.1984-0.31281zm-1.711 0 0.1984 0.31281-0.1984 0.31281h-0.3968l-0.1984-0.31281 0.1984-0.31281zm-1.761 0 0.1984 0.31281-0.1984 0.31281h-0.3968l-0.1984-0.31281 0.1984-0.31281zm-1.7364 0 0.1984 0.31281-0.1984 0.31281h-0.3968l-0.1984-0.31281 0.1984-0.31281zm-1.761 0 0.1984 0.31281-0.1984 0.31281h-0.3968l-0.1984-0.31281 0.1984-0.31281zm-1.7364 0 0.1984 0.31281-0.1984 0.31281h-0.3968l-0.1984-0.31281 0.1984-0.31281zm-1.761 0 0.1984 0.31281-0.1984 0.31281h-0.3968l-0.1984-0.31281 0.1984-0.31281zm-1.711 0 0.1984 0.31281-0.1984 0.31281h-0.3968l-0.1984-0.31281 0.1984-0.31281zm27.006 0.51349 0.1984 0.31281-0.1984 0.31281h-0.3968l-0.1984-0.31281 0.1984-0.31281zm-1.7364 0 0.1984 0.31281-0.1984 0.31281h-0.3968l-0.1984-0.31281 0.1984-0.31281zm-1.761 0 0.1984 0.31281-0.1984 0.31281h-0.3968l-0.1984-0.31281 0.1984-0.31281zm-1.711 0 0.1984 0.31281-0.1984 0.31281h-0.3968l-0.1984-0.31281 0.1984-0.31281zm-1.761 0 0.1984 0.31281-0.1984 0.31281h-0.3968l-0.1984-0.31281 0.1984-0.31281zm-1.761 0 0.1984 0.31281-0.1984 0.31281h-0.3968l-0.1984-0.31281 0.1984-0.31281zm-1.761 0 0.1984 0.31281-0.1984 0.31281h-0.3968l-0.1984-0.31281 0.1984-0.31281zm-1.711 0 0.1984 0.31281-0.1984 0.31281h-0.3968l-0.1984-0.31281 0.1984-0.31281zm-1.761 0 0.1984 0.31281-0.1984 0.31281h-0.3968l-0.1984-0.31281 0.1984-0.31281zm-1.7364 0 0.1984 0.31281-0.1984 0.31281h-0.3968l-0.1984-0.31281 0.1984-0.31281zm-1.761 0 0.1984 0.31281-0.1984 0.31281h-0.3968l-0.1984-0.31281 0.1984-0.31281zm-1.711 0 0.1984 0.31281-0.1984 0.31281h-0.3968l-0.1984-0.31281 0.1984-0.31281zm-1.761 0 0.1984 0.31281-0.1984 0.31281h-0.3968l-0.1984-0.31281 0.1984-0.31281zm-1.7364 0 0.1984 0.31281-0.1984 0.31281h-0.3968l-0.1984-0.31281 0.1984-0.31281zm-1.761 0 0.1984 0.31281-0.1984 0.31281h-0.3968l-0.1984-0.31281 0.1984-0.31281zm-1.7364 0 0.1984 0.31281-0.1984 0.31281h-0.3968l-0.1984-0.31281 0.1984-0.31281zm-1.761 0 0.1984 0.31281-0.1984 0.31281h-0.074599v-0.6249zm28.495 0.35709v0.60276h-0.0746l-0.1984-0.28996 0.1984-0.31281zm-1.4388 0 0.1984 0.31281-0.1984 0.28996h-0.3968l-0.1984-0.28996 0.1984-0.31281zm-1.711 0 0.1984 0.31281-0.1984 0.28996h-0.3968l-0.1984-0.28996 0.1984-0.31281zm-1.761 0 0.1984 0.31281-0.1984 0.28996h-0.3968l-0.1984-0.28996 0.1984-0.31281zm-1.7364 0 0.1984 0.31281-0.1984 0.28996h-0.3968l-0.1984-0.28996 0.1984-0.31281zm-1.761 0 0.1984 0.31281-0.1984 0.28996h-0.3968l-0.1984-0.28996 0.1984-0.31281zm-1.7364 0 0.1984 0.31281-0.1984 0.28996h-0.3968l-0.1984-0.28996 0.1984-0.31281zm-1.761 0 0.1984 0.31281-0.1984 0.28996h-0.3968l-0.1984-0.28996 0.1984-0.31281zm-1.7364 0 0.1984 0.31281-0.1984 0.28996h-0.3968l-0.1984-0.28996 0.1984-0.31281zm-1.761 0 0.1984 0.31281-0.1984 0.28996h-0.3968l-0.1984-0.28996 0.1984-0.31281zm-1.711 0 0.1984 0.31281-0.1984 0.28996h-0.3968l-0.1984-0.28996 0.1984-0.31281zm-1.761 0 0.1984 0.31281-0.1984 0.28996h-0.3968l-0.1984-0.28996 0.1984-0.31281zm-1.7364 0 0.1984 0.31281-0.1984 0.28996h-0.3968l-0.1984-0.28996 0.1984-0.31281zm-1.761 0 0.1984 0.31281-0.1984 0.28996h-0.3968l-0.1984-0.28996 0.1984-0.31281zm-1.7364 0 0.1984 0.31281-0.1984 0.28996h-0.3968l-0.1984-0.28996 0.1984-0.31281zm-1.761 0 0.1984 0.31281-0.1984 0.28996h-0.3968l-0.1984-0.28996 0.1984-0.31281zm-1.711 0 0.1984 0.31281-0.1984 0.28996h-0.3968l-0.1984-0.28996 0.1984-0.31281zm27.006 0.49135 0.14126 0.22354h-0.67853l0.14126-0.22354zm-1.7364 0 0.14126 0.22354h-0.67853l0.14126-0.22354zm-1.761 0 0.14126 0.22354h-0.67853l0.14126-0.22354zm-1.711 0 0.14126 0.22354h-0.67853l0.14126-0.22354zm-1.761 0 0.14126 0.22354h-0.67853l0.14126-0.22354zm-1.761 0 0.14126 0.22354h-0.67853l0.14126-0.22354zm-1.761 0 0.14126 0.22354h-0.67853l0.14126-0.22354zm-1.711 0 0.14126 0.22354h-0.67853l0.14126-0.22354zm-1.761 0 0.14126 0.22354h-0.67853l0.14126-0.22354zm-1.7364 0 0.14126 0.22354h-0.67853l0.14126-0.22354zm-1.761 0 0.14126 0.22354h-0.67853l0.14126-0.22354zm-1.711 0 0.14126 0.22354h-0.67853l0.14126-0.22354zm-1.761 0 0.14126 0.22354h-0.67853l0.14126-0.22354zm-1.7364 0 0.14126 0.22354h-0.67853l0.14126-0.22354zm-1.761 0 0.14126 0.22354h-0.67853l0.14126-0.22354zm-1.7364 0 0.14126 0.22354h-0.67853l0.14126-0.22354zm-1.761 0 0.14126 0.22354h-0.21507v-0.22354z" style="color:#000000;fill-opacity:.311;stroke-width:.15057"/>
<path d="m30.23 1.7223v28.567h-28.57v-28.567zm-0.7936 6.4276h-26.983v4.2851h26.983zm0 11.427h-26.983v4.2851h26.983z" style="fill:url(#a);stroke-width:.75285"/>
<rect transform="scale(-1,1)" x="-29.436" y="8.1499" width="26.983" height=".71418" style="fill-opacity:.471;stroke-width:.75285"/>
<rect transform="scale(-1,1)" x="-27.849" y="3.8648" width="2.3808" height=".71418" style="fill:#59f;stroke-width:.75285"/>
<rect transform="scale(-1,1)" x="-29.436" y="19.577" width="26.983" height=".71418" style="fill-opacity:.471;stroke-width:.75285"/>
<path d="m29.436 12.435-7.936 7.1418h-19.047v4.2851h14.285l-7.1424 6.4276h-7.936v-16.617l0.7936-1.237h0.12222z" style="fill-rule:evenodd;fill:url(#c);opacity:.4;stroke-width:.75285"/>
<rect transform="scale(-1,1)" x="-27.849" y="15.649" width="2.381" height=".71418" style="fill:#59f;stroke-width:.75285"/>
<rect transform="scale(-1,1)" x="-27.849" y="27.076" width="2.3808" height=".71418" style="fill:#59f;stroke-width:.75285"/>
<rect transform="scale(-1,1)" x="-30.23" y="29.575" width="28.57" height=".71418" style="fill:#080809;stroke-width:.75285"/>
<path transform="matrix(.5 0 0 .5 .066304 .016549)" d="m4.7043 3.9815-0.012938 56.82h53.904l1.0222-2.8664s-23.875 0.76639-32.844-4.1404c-10.516-5.7529-15.372-49.697-15.372-49.697z" style="fill:url(#linearGradient3403);mix-blend-mode:normal;stroke-linejoin:round;stroke-width:1.1624;stroke:url(#linearGradient20558)"/>
<rect transform="matrix(.46839 0 0 .46744 .90638 1.0269)" x="1.0324" y=".59551" width="62.567" height="62.867" rx="5.803" ry="6.2447" style="fill:none;stroke-linejoin:round;stroke-miterlimit:7.8;stroke-opacity:.99515;stroke-width:3.7137;stroke:url(#linearGradient4557)"/>
<path d="m14.403 14.369a0.40916 0.40576 0 0 0-0.40999 0.40644v3.2529a0.40916 0.40576 0 0 0 0.40985 0.40658h3.2802a0.40916 0.40576 0 0 0 0.40985-0.40658v-3.2529a0.40916 0.40576 0 0 0-0.40985-0.40644z" style="fill:none;stroke-width:.40523;stroke:#1c1c1c"/>
<path d="m15.161 13.579a0.40916 0.40576 0 0 0-0.40986 0.40658v3.2529a0.40916 0.40576 0 0 0 0.40986 0.40644h3.2802a0.40916 0.40576 0 0 0 0.40985-0.40644v-3.2529a0.40916 0.40576 0 0 0-0.40985-0.40644h-3.2804" style="fill:none;stroke-width:.40523;stroke:#363636"/>
<path d="m15.722 14.369h-1.3634" style="stroke-width:.40523;stroke:#1c1c1c"/>
</svg>
