<svg width="32" height="32" version="1.1" viewBox="0 0 32 32" xmlns="http://www.w3.org/2000/svg" xmlns:xlink="http://www.w3.org/1999/xlink">
<defs>
<linearGradient id="linearGradient3403" x1="6.9492" x2="11.215" y1="4.5549" y2="59.052" gradientUnits="userSpaceOnUse">
<stop style="stop-color:#32373c" offset="0"/>
<stop style="stop-color:#1a1a1a" offset=".36805"/>
<stop style="stop-color:#31363b" offset="1"/>
</linearGradient>
<linearGradient id="linearGradient20558" x1="25.802" x2="25.111" y1="20.374" y2="58.913" gradientUnits="userSpaceOnUse">
<stop style="stop-color:#3d3d3d" offset="0"/>
<stop offset=".61772"/>
<stop style="stop-color:#3d3d3d" offset="1"/>
</linearGradient>
<linearGradient id="linearGradient4557" x1="43.5" x2="44.142" y1="64.012" y2=".30621" gradientTransform="translate(.36068 -.13017)" gradientUnits="userSpaceOnUse">
<stop style="stop-color:#141618" offset="0"/>
<stop style="stop-color:#686868" offset=".51821"/>
<stop style="stop-color:#31363b" offset="1"/>
</linearGradient>
<linearGradient id="linearGradient24" x1="-9.7864" x2="-4.9804" y1="-1.8894" y2="2.7576" gradientTransform="matrix(1.6058 0 0 1.6188 22.057 7.8299)" gradientUnits="userSpaceOnUse">
<stop style="stop-color:#ff0" offset="0"/>
<stop style="stop-color:#ffe680" offset="1"/>
</linearGradient>
</defs>
<rect x="2.922" y="1.8862" width="27.196" height="27.326" rx="0" style="fill:#262626;stroke-width:.68152"/>
<path class="ColorScheme-Text" d="m14.371 4.7712-1.6973 2.9625h-3.3931v3.4206l-2.9386 1.7111 1.6973 2.9625-1.6973 2.9625 2.9386 1.7111v3.4206h3.3931l1.6973 2.9625 2.9386-1.7111 2.9386 1.7111 1.6973-2.9625h3.3931v-1.7888c-1.7503 0.0858-3.5392 0.01457-5.304 0.02105-1.0711-0.1117-2.322 0.2493-3.2245-0.51803-1.5014-1.0798-1.1321-3.8642 0.71619-4.332 0.4689-0.2234 1.1706-0.02266 1.4806-0.41766 0.58452-1.431 1.7953-2.8929 3.4621-2.8734 0.39021 0 0.78846-0.01619 1.1722 0.07285 1.9109 0.47594 3.0157 2.5092 2.9483 4.4016-0.1943 0.59088 0.70014 0.361 0.75313 0.82399-0.01445 0.02105-0.03693 0.03399-0.05299 0.05504l0.98758-0.57631-1.6974-2.9625 1.6974-2.9625-2.9386-1.7111v-3.4206h-3.3931l-1.6973-2.9625-2.9386 1.7111z" style="color:#d5c289;fill:url(#linearGradient24);isolation:isolate;stroke-width:1.6123"/>
<path class="ColorScheme-Text" d="m22.694 12.294c-2.1695 0.0016-3.9872 1.3436-4.9138 3.2199l0.09313-8e-3c-0.04176 0.0016-0.07386 0.02752-0.11562 0.03076-0.02088 0.0437-0.06905 0.06475-0.08993 0.10846l0.04496-0.09551c-2.0538 0.24113-3.6532 2.0348-3.6532 4.2105 0 2.3376 1.8258 4.2786 4.098 4.2786h8.771c1.7696 0 3.1892-1.5136 3.1892-3.3218 0-1.3064-0.7724-2.3894-1.8499-2.9252l0.0085 0.09065v0.01292c-0.0016-0.0421-0.0257-0.07771-0.02897-0.11979-0.0466-0.02266-0.0707-0.07932-0.11885-0.10036l0.10602 0.04695c-0.22364-3.0029-2.581-5.4231-5.5357-5.4247h0.03209l-0.01925-0.0016zm0.70013 1.0992c2.1518 0.35776 3.8315 2.1903 3.9375 4.5441v0.0065l0.0305 0.43708 0.39343 0.1716c0.83181 0.35452 1.4179 1.1737 1.4179 2.166 0 0.61354-0.25371 1.1494-0.61663 1.5703 0.36291-0.42251 0.61503-0.96158 0.61021-1.5735-0.0016-0.98587-0.59094-1.8099-1.4147-2.1628l-0.39664-0.16998-0.02731-0.42899v-0.0032l-0.0016-0.0114c-0.10598-2.3505-1.7825-4.1846-3.931-4.544zm-0.70013 0.8078h0.01021c1.9719 0.0065 3.5842 1.6399 3.6805 3.7784v0.0032l0.06743 1.0474 0.93298 0.39662c0.4978 0.21369 0.83984 0.67506 0.83984 1.2902v0.0032c0.0085 0.81589-0.59415 1.4132-1.2943 1.4132h-8.7715c-1.2028 0-2.208-1.0247-2.208-2.3732 0-1.2854 0.93298-2.2728 2.0587-2.3554l0.95867-0.06966 0.41751-0.89683c0.62145-1.3501 1.8515-2.2372 3.308-2.2388zm-4.2137 1.9442-0.13168 0.28168h-0.0016zm-2.6191 1.3485c-0.52992 0.59249-0.8559 1.3906-0.8559 2.268 0 0.45813 0.08832 0.89522 0.2473 1.2918-0.15898-0.39661-0.2489-0.83208-0.2489-1.2918 0-0.88064 0.32759-1.6755 0.85751-2.268zm0.06905 4.6185c0.28584 0.30111 0.62466 0.54394 1.002 0.71229-0.37737-0.16835-0.7162-0.41118-1.002-0.71229zm12.586 0.27683c-0.31956 0.33834-0.78203 0.46136-1.2445 0.54716 0.46248-0.08578 0.92495-0.20883 1.2445-0.54716z" style="color:#d5c289;fill:#2a7fff;isolation:isolate;stroke-width:1.701"/>
<path transform="matrix(.5 0 0 .5 .066304 .016549)" d="m4.7043 3.9815-0.012938 56.82h53.904l1.0222-2.8664s-23.875 0.76639-32.844-4.1404c-10.516-5.7529-15.372-49.697-15.372-49.697z" style="fill:url(#linearGradient3403);mix-blend-mode:normal;stroke-linejoin:round;stroke-width:1.1624;stroke:url(#linearGradient20558)"/>
<rect transform="matrix(.46839 0 0 .46744 .90638 1.0269)" x="1.0324" y=".59551" width="62.567" height="62.867" rx="5.803" ry="6.2447" style="fill:none;stroke-linejoin:round;stroke-miterlimit:7.8;stroke-opacity:.99515;stroke-width:3.7137;stroke:url(#linearGradient4557)"/>
</svg>
