<svg width="32" height="32" version="1.1" viewBox="0 0 32 32" xmlns="http://www.w3.org/2000/svg" xmlns:xlink="http://www.w3.org/1999/xlink">
<defs>
<linearGradient id="linearGradient3403" x1="6.9492" x2="11.215" y1="4.5549" y2="59.052" gradientUnits="userSpaceOnUse">
<stop style="stop-color:#32373c" offset="0"/>
<stop style="stop-color:#1a1a1a" offset=".36805"/>
<stop style="stop-color:#31363b" offset="1"/>
</linearGradient>
<linearGradient id="linearGradient20558" x1="25.802" x2="25.111" y1="20.374" y2="58.913" gradientUnits="userSpaceOnUse">
<stop style="stop-color:#3d3d3d" offset="0"/>
<stop offset=".61772"/>
<stop style="stop-color:#3d3d3d" offset="1"/>
</linearGradient>
<linearGradient id="linearGradient4557" x1="43.5" x2="44.142" y1="64.012" y2=".30621" gradientTransform="translate(.36068 -.13017)" gradientUnits="userSpaceOnUse">
<stop style="stop-color:#141618" offset="0"/>
<stop style="stop-color:#686868" offset=".51821"/>
<stop style="stop-color:#31363b" offset="1"/>
</linearGradient>
<linearGradient id="a" x2="0" y1="543.8" y2="503.8" gradientUnits="userSpaceOnUse">
<stop stop-color="#2f74c8" offset="0"/>
<stop stop-color="#4699d7" offset="1"/>
</linearGradient>
<linearGradient id="c" x2="0" y1="34" y2="14" gradientUnits="userSpaceOnUse">
<stop stop-color="#2a2c2f" offset="0"/>
<stop stop-color="#424649" offset="1"/>
</linearGradient>
<linearGradient id="b" x1="403.57" x2="416.57" y1="523.8" y2="536.8" gradientUnits="userSpaceOnUse">
<stop stop-color="#292c2f" offset="0"/>
<stop stop-opacity="0" offset="1"/>
</linearGradient>
</defs>
<g transform="matrix(.6799 0 0 .68315 -261.27 -342.29)">
<rect x="388.57" y="503.8" width="40" height="40" rx="0" style="fill:url(#a)"/>
<rect x="388.57" y="542.8" width="40" height="1" style="fill:#2a6bae"/>
<path transform="translate(384.57,499.8)" d="M 20.414,14 19,15.414 27.586,24 19,32.586 20.414,34 30.414,24 29,22.586 Z" style="fill:url(#c)"/>
<g style="fill-rule:evenodd">
<path d="m404.99 533.8 9.586 9.586h14v-6l-13.586-13.586z" style="fill:url(#b);opacity:.4"/>
<path d="m414.99 523.8-0.414 0.414-10-10 0.414-0.414z" style="fill-opacity:.196;fill:#fff"/>
</g>
</g>
<path transform="matrix(.5 0 0 .5 .066304 .016549)" d="m4.7043 3.9815-0.012938 56.82h53.904l1.0222-2.8664s-23.875 0.76639-32.844-4.1404c-10.516-5.7529-15.372-49.697-15.372-49.697z" style="fill:url(#linearGradient3403);mix-blend-mode:normal;stroke-linejoin:round;stroke-width:1.1624;stroke:url(#linearGradient20558)"/>
<rect transform="matrix(.46839 0 0 .46744 .90638 1.0269)" x="1.0324" y=".59551" width="62.567" height="62.867" rx="5.803" ry="6.2447" style="fill:none;stroke-linejoin:round;stroke-miterlimit:7.8;stroke-opacity:.99515;stroke-width:3.7137;stroke:url(#linearGradient4557)"/>
</svg>
