<svg width="32" height="32" version="1.1" viewBox="0 0 32 32" xmlns="http://www.w3.org/2000/svg" xmlns:xlink="http://www.w3.org/1999/xlink">
<defs>
<linearGradient id="linearGradient3403" x1="6.9492" x2="11.215" y1="4.5549" y2="59.052" gradientUnits="userSpaceOnUse">
<stop style="stop-color:#32373c" offset="0"/>
<stop style="stop-color:#1a1a1a" offset=".36805"/>
<stop style="stop-color:#31363b" offset="1"/>
</linearGradient>
<linearGradient id="linearGradient20558" x1="25.802" x2="25.111" y1="20.374" y2="58.913" gradientUnits="userSpaceOnUse">
<stop style="stop-color:#3d3d3d" offset="0"/>
<stop offset=".61772"/>
<stop style="stop-color:#3d3d3d" offset="1"/>
</linearGradient>
<linearGradient id="linearGradient4557" x1="43.5" x2="44.142" y1="64.012" y2=".30621" gradientTransform="translate(.36068 -.13017)" gradientUnits="userSpaceOnUse">
<stop style="stop-color:#141618" offset="0"/>
<stop style="stop-color:#686868" offset=".51821"/>
<stop style="stop-color:#31363b" offset="1"/>
</linearGradient>
</defs>
<rect transform="translate(2.1551 1.5413)" x="1.9777" y="-.033912" width="26.481" height="28.682" rx=".60867" ry="28.614" style="fill-rule:evenodd;fill:#23aea1;paint-order:markers fill stroke"/>
<path d="m12.21 6.1985 0.9226 2.166 2.2558 2.5766c-0.73141 0.11548-1.382 0.31181-1.9953 0.54663-0.34646 0.16681-0.67752 0.34646-0.8623 0.71216l-0.56203 0.99574c-0.18093 0.3657-0.5646 0.42616-0.94057 0.72257l-1.1239 0.94404c-0.16251 0.12816-0.28964 0.19493-0.50697 0.36149-0.21892 0.04936-0.36702 0.04823-0.56848 0.20862-0.18093 0.15013-0.1604 0.4042-0.12318 0.64159 0.069285 0.36699 0.37597 0.69292 0.72499 0.93929 0.32464 0.145 0.62362 0.07057 0.91106-0.09881 0.11834-0.08969 0.26805-0.18402 0.49146-0.27717 0.01668-0.06544 2.6395-1.6087 3.3337-1.7716 0.70831-0.18221 1.8131-0.0091 2.6125-0.25806 0.15819 0.04352 0.15686 0.27765 0.1065 0.36398l-0.44526 4.7375-9e-3 4.5809-0.77504 1.1549 0.52738-0.01796 0.6211-0.47782-0.47226 0.6241s2.7037-0.18093 2.7037-0.16168c0 0.01925-0.83407-5.4792-0.83407-5.4792s0.90336-1.0099 0.9226-1.024c0.01925-0.01539 3.3042 1.1087 3.3042 1.1087l-0.50557-0.59668-0.41575-0.22969 0.50429 0.16681s1.1715 1.4192 1.1767 1.4397c0.0051 0.01925 0.20916-0.25535 0.20916-0.25535l-1.2267 4.9787 1.6296 0.55562-0.05132-0.76092 0.39009 0.94442 0.59924 0.03978-0.20606-0.71737 0.50632 0.59034 0.38752-0.07699-0.59387-1.0125 0.71064-4.8426-0.93928-0.74168-0.72756-0.97521 0.68907 0.7019-0.74681-1.0638-0.05903-1.4051 0.26177 1.21 0.2823-0.99446-0.14628 1.1613 0.54278 1.1908 1.0856 0.8084-0.02054 0.18606 0.8546-0.3131 0.55176-1.2472 0.04748-0.77247 0.07955 0.78274s-0.47478 1.1497-0.47478 1.1895c0 0.0385 0.61977-0.58641 0.61977-0.58641l-0.68008 0.8007 1.0869 1.9607 0.36827 2.1378 0.13025 0.03407 0.0027 0.12498-0.79251 0.86365 0.5723-0.12447 0.22199-0.35159-0.09752 0.42858 0.20402 0.01027-0.04748 0.46836 0.42602-0.3811 0.31823 0.0988 0.0988-0.56845v0.57743l0.29898-0.05903 0.145 0.48761 0.21301-0.61464 0.41703-0.01925c-0.39775-3.018-0.92385-5.6495-1.065-8.6675-0.01539-0.57486-0.49787-1.5911-1.0176-2.2558-0.60694-0.69933-1.8465-2.1942-3.6057-2.6138-0.95982-0.1142-1.9376 0.04106-3.0026 0.3888-0.94185 0.27588-1.9145 0.22553-2.9718 0.73238 0.24894 0.40805 0.57871 0.8084 1.1407 1.2832 0.1758 0.17195 0.49274 0.21942 0.80455 0.19504-0.21557 0.07699-0.43756 0.14115-0.66982 0.01925-0.37854-0.25664-0.69035-0.57743-0.98805-0.91619-0.18112-0.22476-0.3341-0.47082-0.45553-0.73269-0.17964-0.40805 0.03209-0.92645 0.37854-1.4834 0.31438-0.38624 0.66084-0.76349 1.3653-1.0342 0.63389-0.25278 1.2703-0.50557 1.8722-0.83919 0.68008-0.44141 1.7657-1.8478 2.3431-2.8307-1.5732 0.57743-3.1451 1.0394-4.7093 1.9607-0.58513 0.40163-1.1587 1.024-1.7438 1.6681-0.24894 0.2823-0.5184 0.54663-0.87256 0.73398-0.48632 0.26048-0.82123 0.01283-1.0458-0.18606-0.34801-0.37668-0.65631-0.78818-0.92003-1.228-0.34646-0.47478-0.7096-0.95083-1.2408-1.4256-0.61079-0.56716-1.1613-1.2216-1.7156-1.8157zm9.9523 1.5565-1.3858 1.6822 0.94057-0.32593-1.8927 0.92774zm-6.3607 4.5694c0.37854 0.0063 0.63517 0.17323 0.63517 0.17323-0.8392-0.22584-1.2999-0.0385-1.6591 0.5107-0.04234-0.03465 0.23867-0.51199 0.61079-0.62491 0.14885-0.04491 0.28743-0.06159 0.41318-0.05903zm0.05246 0.38193c0.18323 0.09563 0.20802 0.16856 0.24138 0.35847 0.02823 0.25535-0.19119 0.40548-0.33748 0.4273-0.14628 0.02182-0.33362-0.01539-0.44141-0.17323-0.0308-0.06416-0.11292-0.30026 0.01796-0.46836 0.19761-0.1448 0.34938-0.18245 0.51954-0.14418zm-6.3092 3.0007c0.19633 0.23226 0.38752 0.45553 0.48119 0.76349 0.01284 0.28487-0.11292 0.27845-0.2361 0.27717-0.10265-0.0012-0.2977-0.11805-0.23482-0.21301 0.060695-0.1233 0.086435-0.26088 0.074427-0.39778zm-0.71858 0.07057c0.15398 0.16168 0.3054 0.26947 0.33362 0.49531 0.011551 0.05389 0.021819 0.18734-0.084692 0.16681-0.31053-0.29385-0.12318-0.26177-0.24765-0.66212z" style="fill-opacity:.31345;fill:#030303;stroke-width:.77318"/>
<path d="m12.21 5.9868 0.9226 2.166 2.2558 2.5766c-0.73141 0.11548-1.382 0.31181-1.9953 0.54663-0.34646 0.16681-0.67752 0.34646-0.8623 0.71216l-0.56203 0.99575c-0.18093 0.3657-0.5646 0.42616-0.94057 0.72257l-1.1239 0.94404c-0.16251 0.12816-0.28964 0.19493-0.50697 0.36149-0.21892 0.04936-0.36702 0.04823-0.56848 0.20862-0.18093 0.15013-0.1604 0.4042-0.12318 0.64159 0.06929 0.36699 0.37597 0.69292 0.725 0.93929 0.32464 0.145 0.62362 0.07057 0.91106-0.09881 0.11834-0.08969 0.26805-0.18402 0.49146-0.27717 0.01668-0.06544 2.6395-1.6087 3.3337-1.7716 0.70831-0.18221 1.8131-0.0091 2.6125-0.25806 0.15819 0.04352 0.15686 0.27765 0.1065 0.36398l-0.44526 4.7375-9e-3 4.5809-0.77504 1.1549 0.52738-0.01796 0.6211-0.47782-0.47226 0.6241s2.7037-0.18093 2.7037-0.16168c0 0.01925-0.83407-5.4792-0.83407-5.4792s0.90336-1.0099 0.9226-1.024c0.01925-0.01539 3.3042 1.1087 3.3042 1.1087l-0.50557-0.59668-0.41575-0.22969 0.50429 0.16681s1.1715 1.4192 1.1767 1.4397c0.0051 0.01925 0.20916-0.25535 0.20916-0.25535l-1.2267 4.9787 1.6296 0.55562-0.05132-0.76092 0.39009 0.94442 0.59924 0.03978-0.20606-0.71737 0.50632 0.59034 0.38752-0.07699-0.59387-1.0125 0.71064-4.8426-0.93928-0.74168-0.72756-0.97521 0.68907 0.7019-0.74681-1.0638-0.05903-1.4051 0.26177 1.21 0.2823-0.99446-0.14628 1.1613 0.54278 1.1908 1.0856 0.8084-0.02054 0.18606 0.8546-0.3131 0.55176-1.2472 0.04748-0.77247 0.07955 0.78274s-0.47478 1.1497-0.47478 1.1895c0 0.0385 0.61977-0.58641 0.61977-0.58641l-0.68008 0.8007 1.0869 1.9607 0.36827 2.1378 0.13025 0.03407 0.0027 0.12498-0.79251 0.86365 0.5723-0.12447 0.22199-0.35159-0.09752 0.42858 0.20402 0.01027-0.04748 0.46836 0.42602-0.3811 0.31823 0.0988 0.0988-0.56845v0.57743l0.29898-0.05903 0.145 0.48761 0.21301-0.61464 0.41703-0.01925c-0.39775-3.018-0.92385-5.6495-1.065-8.6675-0.01539-0.57486-0.49787-1.5911-1.0176-2.2558-0.60694-0.69933-1.8465-2.1942-3.6057-2.6138-0.95982-0.1142-1.9376 0.04106-3.0026 0.3888-0.94185 0.27588-1.9145 0.22553-2.9718 0.73238 0.24894 0.40805 0.57871 0.8084 1.1407 1.2832 0.1758 0.17195 0.49274 0.21942 0.80455 0.19504-0.21557 0.07699-0.43756 0.14115-0.66982 0.01925-0.37854-0.25664-0.69035-0.57743-0.98805-0.91619-0.18112-0.22476-0.3341-0.47082-0.45553-0.73269-0.17964-0.40805 0.03209-0.92646 0.37854-1.4834 0.31438-0.38624 0.66084-0.76349 1.3653-1.0342 0.63389-0.25278 1.2703-0.50557 1.8722-0.83919 0.68008-0.44141 1.7657-1.8478 2.3431-2.8307-1.5732 0.57743-3.1451 1.0394-4.7093 1.9607-0.58513 0.40163-1.1587 1.024-1.7438 1.6681-0.24894 0.2823-0.5184 0.54663-0.87256 0.73398-0.48632 0.26048-0.82123 0.01284-1.0458-0.18606-0.34801-0.37668-0.65631-0.78818-0.92003-1.228-0.34646-0.47478-0.7096-0.95083-1.2408-1.4256-0.61079-0.56716-1.1613-1.2216-1.7156-1.8157zm9.9523 1.5565-1.3858 1.6822 0.94057-0.32593-1.8927 0.92774zm-6.3607 4.5694c0.37854 0.0063 0.63517 0.17323 0.63517 0.17323-0.8392-0.22584-1.2999-0.0385-1.6591 0.5107-0.04234-0.03465 0.23867-0.51199 0.61079-0.62491 0.14885-0.04491 0.28743-0.06159 0.41318-0.05903zm0.05246 0.38193c0.18323 0.09563 0.20802 0.16856 0.24138 0.35847 0.02823 0.25535-0.19119 0.40548-0.33748 0.4273-0.14628 0.02182-0.33362-0.01539-0.44141-0.17323-0.0308-0.06416-0.11292-0.30026 0.01796-0.46836 0.19761-0.1448 0.34938-0.18245 0.51954-0.14418zm-6.3092 3.0007c0.19633 0.23226 0.38752 0.45553 0.48119 0.76349 0.01284 0.28487-0.11292 0.27845-0.2361 0.27717-0.10265-0.0012-0.2977-0.11805-0.23482-0.21301 0.0607-0.1233 0.08643-0.26088 0.07443-0.39778zm-0.71858 0.07057c0.15398 0.16168 0.3054 0.26947 0.33362 0.49531 0.01155 0.05389 0.02182 0.18734-0.08469 0.16681-0.31053-0.29385-0.12318-0.26177-0.24765-0.66212z" style="fill:#fff;stroke-width:.77318"/>
<path transform="matrix(.49445 0 0 .49445 .32485 .23298)" d="m4.7043 3.9815-0.012938 56.82h53.904l1.0222-2.8664s-23.875 0.76639-32.844-4.1404c-10.516-5.7529-15.372-49.697-15.372-49.697z" style="fill:url(#linearGradient3403);mix-blend-mode:normal;stroke-linejoin:round;stroke-width:1.1624;stroke:url(#linearGradient20558)"/>
<rect transform="matrix(.46319 0 0 .46224 1.1556 1.2321)" x="1.0324" y=".59551" width="62.567" height="62.867" rx="5.803" ry="6.2447" style="fill:none;stroke-linejoin:round;stroke-miterlimit:7.8;stroke-opacity:.99515;stroke-width:3.7137;stroke:url(#linearGradient4557)"/>
</svg>
