<svg width="32" height="32" version="1.1" viewBox="0 0 32 32" xmlns="http://www.w3.org/2000/svg" xmlns:xlink="http://www.w3.org/1999/xlink">
<defs>
<linearGradient id="linearGradient3403" x1="6.9492" x2="11.215" y1="4.5549" y2="59.052" gradientUnits="userSpaceOnUse">
<stop style="stop-color:#32373c" offset="0"/>
<stop style="stop-color:#1a1a1a" offset=".36805"/>
<stop style="stop-color:#31363b" offset="1"/>
</linearGradient>
<linearGradient id="linearGradient20558" x1="25.802" x2="25.111" y1="20.374" y2="58.913" gradientUnits="userSpaceOnUse">
<stop style="stop-color:#3d3d3d" offset="0"/>
<stop offset=".61772"/>
<stop style="stop-color:#3d3d3d" offset="1"/>
</linearGradient>
<linearGradient id="linearGradient4557" x1="43.5" x2="44.142" y1="64.012" y2=".30621" gradientTransform="translate(.36068 -.13017)" gradientUnits="userSpaceOnUse">
<stop style="stop-color:#141618" offset="0"/>
<stop style="stop-color:#686868" offset=".51821"/>
<stop style="stop-color:#31363b" offset="1"/>
</linearGradient>
<linearGradient id="p" x2="0" y1="543.8" y2="512.8" gradientTransform="translate(-384.57,-499.8)" gradientUnits="userSpaceOnUse">
<stop stop-color="#cea476" offset="0"/>
<stop stop-color="#dab58b" offset="1"/>
</linearGradient>
<linearGradient id="q" x2="0" y1="30" y2="8" gradientTransform="matrix(1.4167 0 0 1.4091 1.167 1.727)" gradientUnits="userSpaceOnUse">
<stop stop-color="#cfd2d5" offset="0"/>
<stop stop-color="#eff0f1" offset="1"/>
</linearGradient>
<linearGradient id="r" x1="411.43" x2="411.43" y1="543.8" y2="512.8" gradientTransform="matrix(.50313 0 0 1 -171.62 -499.8)" gradientUnits="userSpaceOnUse">
<stop stop-color="#173f4f" offset="0"/>
<stop stop-color="#2f5361" offset="1"/>
</linearGradient>
<linearGradient id="s" x1="21" x2="21" y1="13" y2="4" gradientUnits="userSpaceOnUse">
<stop stop-color="#cea476" offset="0"/>
<stop stop-color="#dab58b" offset="1"/>
</linearGradient>
<linearGradient id="t" x1="411.57" x2="411.57" y1="512.8" y2="503.8" gradientTransform="translate(-384.57 -499.8)" gradientUnits="userSpaceOnUse">
<stop stop-color="#ebc69a" offset="0"/>
<stop stop-color="#f4e0c8" stop-opacity="0" offset="1"/>
</linearGradient>
<linearGradient id="u" x1="408.57" x2="408.57" y1="512.8" y2="505.6" gradientTransform="matrix(1 0 0 -.55556 -384.57 297.89)" gradientUnits="userSpaceOnUse">
<stop stop-color="#ebc69a" offset="0"/>
<stop stop-color="#173f4f" stop-opacity="0" offset="1"/>
</linearGradient>
<linearGradient id="v" x1="18" x2="30" y1="18" y2="30" gradientTransform="matrix(1.4286 0 0 1.4286 1.143 1.143)" gradientUnits="userSpaceOnUse">
<stop stop-color="#292c2f" offset="0"/>
<stop stop-opacity="0" offset="1"/>
</linearGradient>
<linearGradient id="w" x1="45" x2="45" y1="43" y2="13" gradientUnits="userSpaceOnUse">
<stop stop-color="#cfd2d5" offset="0"/>
<stop stop-color="#eff0f1" offset="1"/>
</linearGradient>
</defs>
<rect x="2.3448" y="2.2071" width="27.772" height="28.187" ry="0" style="fill-rule:evenodd;fill:#d5ae82"/>
<g transform="matrix(.65992 0 0 .65992 1.3999 .848)">
<path d="m4 13v25.682c0 0.736 0.148 1.437 0.416 2.074a5.306 5.306 0 0 0 1.139 1.69c0.48 0.48 1.052 0.87 1.69 1.138a5.327 5.327 0 0 0 2.072 0.416h29.364c0.736 0 1.437-0.148 2.074-0.416a5.306 5.306 0 0 0 1.69-1.139c0.48-0.48 0.87-1.052 1.138-1.69a5.327 5.327 0 0 0 0.417-2.072v-25.683h-34.682z" style="fill:url(#p)"/>
<path d="m4 13v25.682c0 0.736 0.148 1.437 0.416 2.074a5.306 5.306 0 0 0 1.139 1.69c0.48 0.48 1.052 0.87 1.69 1.138a5.327 5.327 0 0 0 2.072 0.416h11.683v-31z" style="fill:url(#q)"/>
<path d="m21 44h17.682c0.736 0 1.437-0.148 2.074-0.416a5.306 5.306 0 0 0 1.69-1.139c0.48-0.48 0.87-1.052 1.138-1.69a5.327 5.327 0 0 0 0.416-2.072v-25.683h-23z" style="fill:url(#r)"/>
<path d="m4 13 6-9h29l5 9z" style="fill-rule:evenodd;fill:url(#s)"/>
<path d="m21 4v14l1-1 1 1 1-1 1 1 1-1 1 1v-14z" style="fill:#f4e0c8"/>
<path d="m21 4h6v9h-6z" style="fill:url(#t)"/>
<path d="m21 18h6v-5h-6z" style="fill:url(#u)"/>
<path d="m4.734 41.229c0.24 0.43 0.475 0.87 0.82 1.216 0.481 0.48 1.053 0.87 1.69 1.139a5.327 5.327 0 0 0 2.074 0.416h29.364c0.736 0 1.437-0.148 2.074-0.416a5.306 5.306 0 0 0 1.69-1.139c0.345-0.346 0.58-0.785 0.82-1.216z" style="opacity:.2"/>
<path d="m31.88 44h8.046a4.062 4.062 0 0 0 3.775-2.536 4.062 4.062 0 0 0 0.299-1.538v-6.926l-5-5-2.143-1.143-2.857-2.591-7 2.734-2.734 7 2.591 2.857 1.143 2.143 5 5z" style="fill:url(#v);opacity:.2"/>
<path d="m32 24a8.008 8.008 0 0 0-2 0.266v1.029a7 7 0 0 0-1.328 0.549l-0.729-0.729a8 8 0 0 0-2.828 2.828l0.732 0.732a7 7 0 0 0-0.547 1.325h-1.04a8 8 0 0 0-0.26 2c4e-3 0.675 0.093 1.347 0.266 2h1.029a7 7 0 0 0 0.549 1.328l-0.729 0.729a8 8 0 0 0 2.828 2.828l0.732-0.732a7 7 0 0 0 1.325 0.547v1.039a8 8 0 0 0 2 0.26 8.001 8.001 0 0 0 2-0.26v-1.035a7 7 0 0 0 1.328-0.549l0.729 0.729a8 8 0 0 0 2.828-2.828l-0.732-0.732a7 7 0 0 0 0.547-1.324h1.033a8.008 8.008 0 0 0 0.267-2 8.001 8.001 0 0 0-0.26-2h-1.035a7 7 0 0 0-0.549-1.328l0.729-0.729a8 8 0 0 0-2.828-2.828l-0.733 0.733a7 7 0 0 0-1.324-0.55v-1.032a8.008 8.008 0 0 0-2-0.266zm-0.945 1.072a7 7 0 0 0-0.055 8e-3v-4e-3c0.018-3e-3 0.037-1e-3 0.055-4e-3zm1.89 0c0.018 3e-3 0.037 1e-3 0.055 4e-3v2e-3a7 7 0 0 0-0.055-6e-3zm-0.945 0.928a6 6 0 0 1 1.059 0.1 6 6 0 0 1 0.433 0.095 6 6 0 0 1 0.133 0.035 6 6 0 0 1 0.44 0.145 6 6 0 0 1 0.132 0.049 6 6 0 0 1 0.49 0.219 6 6 0 0 1 0.016 7e-3 6 6 0 0 1 6e-3 4e-3 6 6 0 0 1 0.514 0.293 6 6 0 0 1 0.248 0.168l2e-3 -2e-3a6 6 0 0 1 1.437 1.451 6 6 0 0 1 0.276 0.432 6 6 0 0 1 0.04 0.07 6 6 0 0 1 0.237 0.471 6 6 0 0 1 0.027 0.063 6 6 0 0 1 0.186 0.48 6 6 0 0 1 0.031 0.092 6 6 0 0 1 0.133 0.486 6 6 0 0 1 0.03 0.131 6 6 0 0 1 0.04 0.211h4e-3a6 6 0 0 1 0.086 1 6 6 0 0 1-0.1 1.059 6 6 0 0 1-0.095 0.433 6 6 0 0 1-0.035 0.133 6 6 0 0 1-0.145 0.44 6 6 0 0 1-0.049 0.132 6 6 0 0 1-0.219 0.49 6 6 0 0 1-7e-3 0.016 6 6 0 0 1-4e-3 6e-3 6 6 0 0 1-0.293 0.514 6 6 0 0 1-0.168 0.248l2e-3 2e-3a6 6 0 0 1-1.451 1.437 6 6 0 0 1-0.432 0.276 6 6 0 0 1-0.07 0.04 6 6 0 0 1-0.471 0.237 6 6 0 0 1-0.063 0.027 6 6 0 0 1-0.48 0.186 6 6 0 0 1-0.092 0.031 6 6 0 0 1-0.486 0.133 6 6 0 0 1-0.131 0.03 6 6 0 0 1-0.211 0.04v4e-3a6 6 0 0 1-1 0.086 6 6 0 0 1-1-0.09 6 6 0 0 1-4e-3 0 6 6 0 0 1-0.553-0.123 6 6 0 0 1-0.043-0.01 6 6 0 0 1-0.5-0.164 6 6 0 0 1-0.086-0.031 6 6 0 0 1-0.501-0.225 6 6 0 0 1-0.022-0.011 6 6 0 0 1-0.5-0.284 6 6 0 0 1-0.03-0.019 6 6 0 0 1-0.234-0.156 6 6 0 0 1-1.412-1.416 6 6 0 0 1-0.312-0.489 6 6 0 0 1-0.022-0.037 6 6 0 0 1-0.23-0.453 6 6 0 0 1-0.057-0.123 6 6 0 0 1-0.158-0.412 6 6 0 0 1-0.055-0.162 6 6 0 0 1-0.113-0.414 6 6 0 0 1-0.06-0.277 6 6 0 0 1-0.022-0.104 6 6 0 0 1-0.086-1 6 6 0 0 1 0.09-1 6 6 0 0 1 0-4e-3 6 6 0 0 1 0.123-0.553 6 6 0 0 1 0.01-0.043 6 6 0 0 1 0.164-0.5 6 6 0 0 1 0.031-0.086 6 6 0 0 1 0.225-0.501 6 6 0 0 1 0.011-0.022 6 6 0 0 1 0.284-0.5 6 6 0 0 1 0.02-0.03 6 6 0 0 1 0.155-0.234 6 6 0 0 1 1.416-1.412 6 6 0 0 1 0.489-0.312 6 6 0 0 1 0.037-0.022 6 6 0 0 1 0.453-0.23 6 6 0 0 1 0.123-0.057 6 6 0 0 1 0.412-0.158 6 6 0 0 1 0.162-0.055 6 6 0 0 1 0.414-0.113 6 6 0 0 1 0.278-0.06 6 6 0 0 1 0.103-0.022 6 6 0 0 1 1-0.086zm-4.188 0.398 2e-3 2e-3a7 7 0 0 0-0.027 0.022c0.01-7e-3 0.016-0.017 0.026-0.024zm8.375 0 0.012 0.01a7 7 0 0 0-0.013-8e-3zm1.368 1.356c0.015 0.02 0.034 0.037 0.049 0.057l-4e-3 3e-3a7 7 0 0 0-0.045-0.06zm-11.13 0.023a7 7 0 0 0-0.025 0.037l-4e-3 -3e-3 0.03-0.034zm3.575 1.223v6l5-3zm-4.926 2h4e-3a7 7 0 0 0-0.012 0.094c4e-3 -0.031 4e-3 -0.063 8e-3 -0.094zm13.846 0h6e-3c4e-3 0.026 2e-3 0.052 6e-3 0.078a7 7 0 0 0-0.012-0.078zm-13.848 1.945a7 7 0 0 0 8e-3 0.055h-4e-3c-3e-3 -0.018-1e-3 -0.037-4e-3 -0.055zm13.856 0c-3e-3 0.018-1e-3 0.037-4e-3 0.055h-2e-3a7 7 0 0 0 6e-3 -0.055zm-12.528 3.24a7 7 0 0 0 0.022 0.028c-7e-3 -0.01-0.017-0.016-0.024-0.026zm11.2 0 2e-3 3e-3 -0.01 0.011a7 7 0 0 0 8e-3 -0.013zm-1.354 1.37c-0.02 0.015-0.037 0.034-0.057 0.049l-3e-3 -4e-3a7 7 0 0 0 0.06-0.045zm-8.469 0.02a7 7 0 0 0 0.037 0.025l-3e-3 4e-3 -0.034-0.03zm5.223 1.345v6e-3c-0.026 4e-3 -0.052 2e-3 -0.078 6e-3a7 7 0 0 0 0.078-0.012zm-2 2e-3a7 7 0 0 0 0.094 0.012c-0.031-4e-3 -0.063-4e-3 -0.094-8e-3z" style="fill:url(#w)"/>
</g>
<path transform="matrix(.49618 0 0 .49618 .32333 .23158)" d="m4.7043 3.9815-0.012938 56.82h53.904l1.0222-2.8664s-23.875 0.76639-32.844-4.1404c-10.516-5.7529-15.372-49.697-15.372-49.697z" style="fill:url(#linearGradient3403);mix-blend-mode:normal;stroke-linejoin:round;stroke-width:1.1624;stroke:url(#linearGradient20558)"/>
<rect transform="matrix(.46481 0 0 .46386 1.157 1.2342)" x="1.0324" y=".59551" width="62.567" height="62.867" rx="5.803" ry="6.2447" style="fill:none;stroke-linejoin:round;stroke-miterlimit:7.8;stroke-opacity:.99515;stroke-width:3.7137;stroke:url(#linearGradient4557)"/>
</svg>
