<?xml version="1.0" encoding="UTF-8" standalone="no"?>
<!-- Created with Inkscape (http://www.inkscape.org/) -->

<svg
   width="32"
   height="32"
   version="1.1"
   viewBox="0 0 32 32"
   id="svg22"
   sodipodi:docname="yast.svg"
   inkscape:version="1.1.2 (0a00cf5339, 2022-02-04)"
   xmlns:inkscape="http://www.inkscape.org/namespaces/inkscape"
   xmlns:sodipodi="http://sodipodi.sourceforge.net/DTD/sodipodi-0.dtd"
   xmlns:xlink="http://www.w3.org/1999/xlink"
   xmlns="http://www.w3.org/2000/svg"
   xmlns:svg="http://www.w3.org/2000/svg">
  <sodipodi:namedview
     id="namedview24"
     pagecolor="#ffffff"
     bordercolor="#666666"
     borderopacity="1.0"
     inkscape:showpageshadow="2"
     inkscape:pageopacity="0.0"
     inkscape:pagecheckerboard="0"
     inkscape:deskcolor="#d1d1d1"
     showgrid="false"
     inkscape:zoom="9.8"
     inkscape:cx="-20.306122"
     inkscape:cy="15.255102"
     inkscape:window-width="3440"
     inkscape:window-height="1359"
     inkscape:window-x="0"
     inkscape:window-y="0"
     inkscape:window-maximized="1"
     inkscape:current-layer="g873"
     inkscape:pageshadow="2" />
  <defs
     id="defs12">
    <linearGradient
       inkscape:collect="always"
       id="linearGradient2024">
      <stop
         style="stop-color:#67ba3e;stop-opacity:1"
         offset="0"
         id="stop2020" />
      <stop
         style="stop-color:#40b992;stop-opacity:1"
         offset="1"
         id="stop2022" />
    </linearGradient>
    <linearGradient
       id="linearGradient1005-3-3"
       x1="5.2535"
       x2="9.3823996"
       y1="15.383"
       y2="2.9421"
       gradientTransform="matrix(0.99999,0,0,0.99999,1.632,-0.61743)"
       gradientUnits="userSpaceOnUse">
      <stop
         stop-color="#fa8200"
         offset="0"
         id="stop2" />
      <stop
         stop-color="#ff9600"
         offset=".36953"
         id="stop4" />
      <stop
         stop-color="#ffb400"
         offset="1"
         id="stop6" />
    </linearGradient>
    <filter
       id="filter4014"
       x="-0.062499933"
       y="-0.057692993"
       width="1.1249999"
       height="1.115386"
       color-interpolation-filters="sRGB">
      <feGaussianBlur
         stdDeviation="1.093751"
         id="feGaussianBlur9" />
    </filter>
    <linearGradient
       inkscape:collect="always"
       xlink:href="#linearGradient3487"
       id="linearGradient3403"
       gradientUnits="userSpaceOnUse"
       x1="6.9491749"
       y1="4.5549412"
       x2="11.215498"
       y2="59.052471" />
    <linearGradient
       id="linearGradient3487">
      <stop
         style="stop-color:#32373c;stop-opacity:1"
         offset="0"
         id="stop3481" />
      <stop
         id="stop3483"
         offset="0.36804965"
         style="stop-color:#1a1a1a;stop-opacity:1" />
      <stop
         style="stop-color:#31363b;stop-opacity:1"
         offset="1"
         id="stop3485" />
    </linearGradient>
    <linearGradient
       inkscape:collect="always"
       xlink:href="#linearGradient20604"
       id="linearGradient20558"
       gradientUnits="userSpaceOnUse"
       x1="25.802212"
       y1="20.373846"
       x2="25.111048"
       y2="58.912758" />
    <linearGradient
       id="linearGradient20604">
      <stop
         id="stop20598"
         offset="0"
         style="stop-color:#3d3d3d;stop-opacity:1" />
      <stop
         style="stop-color:#000000;stop-opacity:1"
         offset="0.61772454"
         id="stop20600" />
      <stop
         id="stop20602"
         offset="1"
         style="stop-color:#3d3d3d;stop-opacity:1" />
    </linearGradient>
    <filter
       inkscape:collect="always"
       style="color-interpolation-filters:sRGB"
       id="filter20720"
       x="-0.017024755"
       y="-0.016457183"
       width="1.0340491"
       height="1.0329144">
      <feGaussianBlur
         inkscape:collect="always"
         stdDeviation="0.14745661"
         id="feGaussianBlur20722" />
    </filter>
    <linearGradient
       gradientTransform="translate(0.36067797,-0.13016949)"
       xlink:href="#linearGradient4555"
       id="linearGradient4557"
       x1="43.499737"
       y1="64.011795"
       x2="44.141731"
       y2="0.30621234"
       gradientUnits="userSpaceOnUse" />
    <linearGradient
       id="linearGradient4555">
      <stop
         style="stop-color:#141618;stop-opacity:1"
         offset="0"
         id="stop4551" />
      <stop
         id="stop4559"
         offset="0.51820582"
         style="stop-color:#686868;stop-opacity:1" />
      <stop
         style="stop-color:#31363b;stop-opacity:1"
         offset="1"
         id="stop4553" />
    </linearGradient>
    <filter
       style="color-interpolation-filters:sRGB"
       id="filter4601"
       x="-0.030244955"
       width="1.0604899"
       y="-0.030100647"
       height="1.0602013">
      <feGaussianBlur
         stdDeviation="0.014790289"
         id="feGaussianBlur4603" />
    </filter>
    <linearGradient
       xlink:href="#a"
       id="o"
       gradientUnits="userSpaceOnUse"
       gradientTransform="translate(-384.57,-499.8)"
       y1="543.79999"
       x2="0"
       y2="512.79999" />
    <linearGradient
       id="a"
       y1="543.79999"
       y2="512.79999"
       x2="0"
       gradientUnits="userSpaceOnUse">
      <stop
         stop-color="#cea476"
         id="stop3" />
      <stop
         offset="1"
         stop-color="#dab58b"
         id="stop5" />
    </linearGradient>
    <linearGradient
       id="p"
       gradientTransform="matrix(1.41667,0,0,1.4091,1.167,1.727)"
       gradientUnits="userSpaceOnUse"
       x2="0"
       xlink:href="#n"
       y1="30"
       y2="8" />
    <linearGradient
       id="n"
       gradientUnits="userSpaceOnUse"
       x2="0"
       y1="30"
       y2="8">
      <stop
         offset="0"
         stop-color="#cfd2d5"
         id="stop75" />
      <stop
         offset="1"
         stop-color="#eff0f1"
         id="stop77" />
    </linearGradient>
    <linearGradient
       xlink:href="#c"
       id="q"
       gradientUnits="userSpaceOnUse"
       gradientTransform="matrix(0.33086535,0,0,0.65761403,-113.34161,-328.98659)"
       x1="411.427"
       y1="543.79999"
       x2="411.427"
       y2="512.79999" />
    <linearGradient
       id="c"
       gradientTransform="matrix(0.50313,0,0,1,-231.625,-499.8)"
       gradientUnits="userSpaceOnUse"
       x1="411.427"
       x2="411.427"
       y1="543.79999"
       y2="512.79999">
      <stop
         offset="0"
         stop-color="#73ba25"
         id="stop80" />
      <stop
         offset="1"
         stop-color="#81c13b"
         stop-opacity=".85"
         id="stop82" />
    </linearGradient>
    <linearGradient
       id="r"
       gradientUnits="userSpaceOnUse"
       x1="21"
       x2="21"
       xlink:href="#l"
       y1="13"
       y2="4" />
    <linearGradient
       id="l">
      <stop
         offset="0"
         stop-color="#cea476"
         id="stop62" />
      <stop
         offset="1"
         stop-color="#dab58b"
         id="stop64" />
    </linearGradient>
    <linearGradient
       id="s"
       gradientTransform="matrix(0.65761403,0,0,0.65761403,-253.37723,-328.98725)"
       gradientUnits="userSpaceOnUse"
       x1="411.57001"
       x2="411.57001"
       xlink:href="#m"
       y1="512.80103"
       y2="503.80099">
      <stop
         offset="0"
         stop-color="#ebc69a"
         id="stop69" />
      <stop
         offset="1"
         stop-color="#f4e0c8"
         stop-opacity="0"
         id="stop71" />
    </linearGradient>
    <linearGradient
       id="m"
       gradientTransform="matrix(0.66667,0,0,-0.37037,-256.38,197.926)"
       gradientUnits="userSpaceOnUse"
       x1="408.57001"
       x2="408.57001"
       y1="512.79797"
       y2="504.698">
      <stop
         offset="0"
         stop-color="#ebc69a"
         id="stop85" />
      <stop
         offset="1"
         stop-color="#73ba25"
         stop-opacity="0"
         id="stop87" />
    </linearGradient>
    <linearGradient
       id="t"
       gradientTransform="matrix(0.65761403,0,0,-0.36534405,-253.37723,195.58554)"
       gradientUnits="userSpaceOnUse"
       x1="408.57001"
       x2="408.57001"
       xlink:href="#m"
       y1="512.79797"
       y2="505.59799" />
    <linearGradient
       id="u"
       gradientUnits="userSpaceOnUse"
       x1="18"
       x2="30"
       y1="18"
       y2="30"
       gradientTransform="matrix(1.42857,0,0,1.42857,1.143,1.143)">
      <stop
         offset="0"
         stop-color="#292c2f"
         id="stop49" />
      <stop
         offset="1"
         stop-opacity="0"
         id="stop51" />
    </linearGradient>
    <linearGradient
       xlink:href="#j"
       id="v"
       x1="425.74799"
       y1="547.85901"
       x2="425.74799"
       y2="517.85901"
       gradientUnits="userSpaceOnUse"
       gradientTransform="translate(-400.748,-504.86)" />
    <linearGradient
       id="j"
       gradientUnits="userSpaceOnUse"
       x2="0"
       y1="30"
       y2="8">
      <stop
         offset="0"
         stop-color="#cfd2d5"
         id="stop44" />
      <stop
         offset="1"
         stop-color="#eff0f1"
         id="stop46" />
    </linearGradient>
    <linearGradient
       xlink:href="#a-0"
       id="g"
       gradientUnits="userSpaceOnUse"
       gradientTransform="matrix(0.65761403,0,0,0.65761403,-253.37723,-328.98659)"
       y1="543.79999"
       x2="0"
       y2="512.79999" />
    <linearGradient
       id="a-0"
       y1="543.79999"
       y2="512.79999"
       x2="0"
       gradientUnits="userSpaceOnUse">
      <stop
         stop-color="#cea476"
         id="stop3-9" />
      <stop
         offset="1"
         stop-color="#dab58b"
         id="stop5-2" />
    </linearGradient>
    <linearGradient
       id="h"
       gradientTransform="matrix(0.93162207,0,0,0.92664393,0.28883108,0.82459691)"
       gradientUnits="userSpaceOnUse"
       x2="0"
       xlink:href="#f"
       y1="30"
       y2="8" />
    <linearGradient
       id="f"
       gradientUnits="userSpaceOnUse"
       x2="0"
       y1="30"
       y2="8">
      <stop
         offset="0"
         stop-color="#cfd2d5"
         id="stop29" />
      <stop
         offset="1"
         stop-color="#eff0f1"
         id="stop31" />
    </linearGradient>
    <linearGradient
       id="j-5"
       gradientUnits="userSpaceOnUse"
       x1="21"
       x2="21"
       xlink:href="#l"
       y1="13"
       y2="4"
       gradientTransform="matrix(0.65761403,0,0,0.65761403,-0.47860449,-0.31110252)" />
    <linearGradient
       id="m-0"
       gradientUnits="userSpaceOnUse"
       x1="42"
       x2="62"
       y1="24"
       y2="44">
      <stop
         offset="0"
         stop-color="#292c2f"
         id="stop40" />
      <stop
         offset="1"
         stop-opacity="0"
         id="stop42" />
    </linearGradient>
    <linearGradient
       id="n-5"
       gradientUnits="userSpaceOnUse"
       x1="44"
       x2="44"
       xlink:href="#f"
       y1="44"
       y2="13" />
    <linearGradient
       id="linearGradient918"
       gradientUnits="userSpaceOnUse"
       x2="0"
       y1="30"
       y2="8">
      <stop
         offset="0"
         stop-color="#cfd2d5"
         id="stop914" />
      <stop
         offset="1"
         stop-color="#eff0f1"
         id="stop916" />
    </linearGradient>
    <linearGradient
       id="b"
       gradientUnits="userSpaceOnUse"
       x1="2"
       x2="30"
       xlink:href="#a-1"
       y1="2"
       y2="30" />
    <linearGradient
       id="a-1">
      <stop
         offset="0"
         stop-color="#35b9ab"
         id="stop904" />
      <stop
         offset="1"
         stop-color="#73ba25"
         id="stop906" />
    </linearGradient>
    <linearGradient
       id="c-5"
       gradientUnits="userSpaceOnUse"
       x1="2"
       x2="30"
       xlink:href="#a-1"
       y1="1022.362"
       y2="1050.3621" />
    <linearGradient
       id="d"
       gradientUnits="userSpaceOnUse"
       x1="12.5"
       x2="25.1"
       y1="1031.462"
       y2="1044.062">
      <stop
         offset="0"
         stop-color="#292c2f"
         id="stop911" />
      <stop
         offset="1"
         stop-opacity="0"
         id="stop913" />
    </linearGradient>
    <linearGradient
       inkscape:collect="always"
       xlink:href="#linearGradient2024"
       id="linearGradient2026"
       x1="-74.421623"
       y1="23.494707"
       x2="-58.236778"
       y2="3.9718592"
       gradientUnits="userSpaceOnUse"
       gradientTransform="matrix(1,0,0,1.0219437,81.227715,0.73903851)" />
  </defs>
  <g
     id="g873"
     transform="translate(2.1551192,1.5412909)">
    <path
       d="M 13.33129,26.801666 H 2.6345403 c 0.1578274,0.282774 0.3123667,0.572124 0.5392435,0.799659 0.3163124,0.315655 0.6924676,0.572124 1.1113677,0.749022 a 3.5031099,3.5031099 0 0 0 1.3638915,0.273568 h 7.682247 z"
       id="path68"
       inkscape:connector-curvature="0"
       style="fill:#999999;stroke-width:0.657614" />
    <path
       d="m 13.33129,26.801666 v 1.822249 h 11.627931 c 0.484004,0 0.944992,-0.09733 1.363892,-0.273568 a 3.4893,3.4893 0 0 0 1.111367,-0.749022 c 0.226877,-0.227535 0.381417,-0.516227 0.539244,-0.799659 z"
       id="path70"
       inkscape:connector-curvature="0"
       style="fill:#447821;stroke-width:0.657614" />
    <rect
       style="fill:url(#linearGradient2026);fill-opacity:1;fill-rule:evenodd;stroke:none;stroke-width:0.101091;stroke-linejoin:round;paint-order:markers fill stroke"
       id="rect1901"
       width="26.481131"
       height="28.682056"
       x="1.9777317"
       y="-0.033912417"
       rx="0.60867"
       ry="28.614422" />
    <g
       id="g1003"
       transform="translate(-39.705442,2.1439265)">
      <g
         transform="translate(38.699268,-1022.8392)"
         id="g928">
        <circle
           cx="16"
           cy="1036.3621"
           fill="url(#c)"
           id="ellipse918"
           r="0"
           style="fill:url(#c-5)" />
        <path
           d="m 19.79,1027.262 -13.736,9.397 6.22,6.22 -1.014,1.013 6.359,6.358 a 14,14 0 0 0 12.328,-12.83 z"
           fill="url(#d)"
           opacity="0.2"
           id="path920"
           style="fill:url(#d)" />
        <g
           stroke-width="0.7"
           id="g926">
          <path
             d="m 19.205,1044.509 a 3.553,3.553 0 0 0 -0.312,-0.124 c -0.12,-0.042 -0.323,-0.115 -0.45,-0.163 l -0.558,-0.207 -0.664,-0.248 -0.335,-0.127 -2.542,0.122 c -1.397,0.067 -2.663,0.13 -2.812,0.138 -0.15,0.01 -0.271,0.01 -0.271,-0.01 0,-0.028 0.225,-0.39 0.78,-1.251 l 0.179,-0.278 0.007,-2.012 0.007,-2.011 0.138,-1.378 c 0.076,-0.758 0.13,-1.392 0.119,-1.409 -0.01,-0.016 -0.005,-0.047 0.012,-0.068 a 0.803,0.803 0 0 0 0.048,-0.255 l 0.018,-0.217 -0.219,0.022 c -0.12,0.012 -0.24,0.032 -0.267,0.045 a 1.347,1.347 0 0 1 -0.262,0.044 c -0.708,0.069 -1.268,0.198 -1.723,0.4 -0.12,0.053 -0.225,0.097 -0.233,0.097 -0.043,0 -1.46,0.666 -1.703,0.8 -0.255,0.142 -0.331,0.174 -0.427,0.184 a 0.718,0.718 0 0 0 -0.147,0.109 c -0.144,0.124 -0.428,0.234 -0.68,0.262 a 0.93,0.93 0 0 1 -0.41,-0.048 c -0.207,-0.06 -0.26,-0.094 -0.494,-0.315 -0.204,-0.192 -0.288,-0.3 -0.38,-0.486 -0.107,-0.22 -0.118,-0.267 -0.123,-0.542 -0.005,-0.265 0.004,-0.317 0.075,-0.44 0.096,-0.166 0.349,-0.343 0.531,-0.371 a 0.616,0.616 0 0 0 0.271,-0.135 c 0.077,-0.063 0.255,-0.2 0.396,-0.306 1.107,-0.822 1.594,-1.225 1.594,-1.318 0,-0.03 0.54,-0.95 0.631,-1.074 0.096,-0.131 0.389,-0.357 0.602,-0.464 a 5.96,5.96 0 0 1 0.904,-0.327 c 0.486,-0.125 0.439,-0.101 0.378,-0.192 -0.03,-0.044 -0.371,-0.43 -0.757,-0.856 -0.386,-0.426 -0.724,-0.814 -0.75,-0.863 a 21.429,21.429 0 0 1 -0.301,-0.677 c -0.14,-0.323 -0.284,-0.653 -0.32,-0.731 -0.163,-0.35 -0.19,-0.427 -0.19,-0.552 0,-0.157 0.06,-0.252 0.203,-0.32 0.227,-0.11 0.32,-0.054 0.852,0.514 0.24,0.258 0.713,0.734 1.049,1.057 0.552,0.532 1.109,1.17 1.248,1.431 0.088,0.164 0.466,0.631 0.64,0.79 0.109,0.1 0.209,0.164 0.255,0.164 0.176,0 0.435,-0.173 0.782,-0.525 0.696,-0.703 1.272,-1.246 1.497,-1.41 0.28,-0.204 1.501,-0.792 2.12,-1.02 0.244,-0.09 0.473,-0.177 0.51,-0.192 a 2.31,2.31 0 0 1 0.197,-0.066 0.627,0.627 0 0 0 0.162,-0.066 0.144,0.144 0 0 1 0.082,-0.028 c 0.028,0 0.273,-0.08 0.544,-0.177 0.87,-0.312 0.895,-0.316 1.077,-0.171 0.136,0.109 0.181,0.25 0.125,0.392 -0.104,0.265 -0.934,1.372 -1.393,1.859 -0.56,0.593 -0.866,0.791 -1.83,1.182 -1.117,0.452 -1.161,0.476 -1.487,0.806 -0.19,0.19 -0.521,0.76 -0.472,0.807 0.013,0.012 0.085,0 0.16,-0.03 0.938,-0.35 1.278,-0.469 1.782,-0.618 0.326,-0.096 0.622,-0.187 0.658,-0.201 0.036,-0.015 0.154,-0.043 0.263,-0.064 0.108,-0.021 0.22,-0.05 0.246,-0.062 0.027,-0.014 0.198,-0.042 0.378,-0.064 0.181,-0.022 0.359,-0.05 0.395,-0.061 0.036,-0.012 0.332,-0.012 0.657,-10e-4 0.513,0.018 0.626,0.032 0.842,0.102 0.94,0.306 1.769,0.883 2.702,1.882 0.39,0.418 0.654,0.788 0.891,1.248 0.303,0.59 0.337,0.72 0.43,1.63 0.123,1.214 0.291,2.735 0.377,3.418 0.161,1.278 0.26,2.016 0.28,2.082 0.008,0.027 0.03,0.177 0.05,0.334 0.02,0.158 0.087,0.586 0.15,0.952 0.062,0.366 0.113,0.718 0.113,0.783 0,0.115 -0.002,0.117 -0.152,0.137 a 2.909,2.909 0 0 1 -0.272,0.022 c -0.099,0 -0.156,0.035 -0.348,0.206 -0.127,0.113 -0.247,0.205 -0.268,0.205 -0.02,0 -0.1,-0.1 -0.176,-0.222 l -0.14,-0.222 h -0.18 c -0.162,0 -0.203,0.015 -0.431,0.166 -0.139,0.092 -0.28,0.193 -0.316,0.224 -0.035,0.03 -0.08,0.05 -0.099,0.045 -0.054,-0.017 -0.112,-0.214 -0.114,-0.384 l -0.002,-0.156 -0.216,0.022 a 5.747,5.747 0 0 0 -0.462,0.07 c -0.31,0.063 -0.369,0.047 -0.28,-0.074 0.035,-0.049 0.221,-0.322 0.414,-0.607 l 0.35,-0.52 -0.054,-0.45 a 36.32,36.32 0 0 1 -0.072,-0.65 c -0.01,-0.11 -0.031,-0.208 -0.047,-0.217 -0.015,-0.01 -0.028,-0.05 -0.028,-0.09 0,-0.041 -0.072,-0.223 -0.16,-0.404 -0.09,-0.182 -0.207,-0.423 -0.262,-0.537 a 10.15,10.15 0 0 0 -0.266,-0.493 l -0.165,-0.286 -0.206,0.01 c -0.354,0.015 -0.346,0.01 -0.37,0.253 a 1.07,1.07 0 0 1 -0.052,0.27 c -0.017,0.03 -0.031,0.089 -0.031,0.13 0,0.041 -0.022,0.145 -0.049,0.231 a 4.413,4.413 0 0 0 -0.099,0.458 c -0.027,0.166 -0.063,0.374 -0.08,0.461 -0.017,0.088 -0.048,0.267 -0.069,0.398 -0.02,0.13 -0.05,0.303 -0.066,0.381 -0.015,0.079 -0.045,0.25 -0.065,0.382 a 6.98,6.98 0 0 1 -0.068,0.372 c -0.062,0.272 -0.043,0.307 0.523,0.96 0.2,0.232 0.326,0.402 0.306,0.414 a 2.12,2.12 0 0 1 -0.291,0.078 c -0.51,0.114 -0.67,0.154 -1.01,0.258 -0.303,0.092 -0.393,0.098 -0.522,0.033 z m -3.376,-1.448 c 0.43,-0.446 0.556,-0.597 0.634,-0.763 0.21,-0.447 0.26,-0.554 0.456,-0.992 0.112,-0.25 0.203,-0.49 0.203,-0.534 0,-0.062 -0.736,-1.862 -0.774,-1.893 a 26.127,26.127 0 0 0 -1.044,-0.294 0.351,0.351 0 0 1 -0.121,-0.045 c -0.058,-0.045 -0.13,0.01 -0.398,0.271 l -0.24,0.24 0.02,0.169 c 0.037,0.31 0.083,0.644 0.115,0.837 0.018,0.104 0.077,0.477 0.132,0.826 0.054,0.35 0.114,0.722 0.131,0.827 0.018,0.105 0.077,0.477 0.13,0.827 0.055,0.35 0.114,0.705 0.132,0.79 0.018,0.084 0.033,0.189 0.033,0.232 0,0.044 0.012,0.075 0.027,0.07 0.015,-0.01 0.269,-0.261 0.564,-0.567 z"
             fill="#fcfcfc"
             id="path922" />
          <path
             d="m 19.205,1044.509 a 3.555,3.555 0 0 0 -0.312,-0.124 c -0.12,-0.042 -0.323,-0.115 -0.45,-0.163 l -0.558,-0.207 -0.664,-0.248 -0.335,-0.127 -2.542,0.122 c -1.397,0.067 -2.663,0.13 -2.812,0.138 -0.15,0.01 -0.271,0.01 -0.271,-0.01 0,-0.028 0.225,-0.39 0.78,-1.251 l 0.179,-0.278 0.007,-2.012 0.007,-2.011 0.138,-1.378 c 0.076,-0.758 0.13,-1.392 0.119,-1.409 -0.01,-0.016 -0.005,-0.047 0.012,-0.068 a 0.803,0.803 0 0 0 0.048,-0.255 l 0.018,-0.217 -0.219,0.022 c -0.12,0.012 -0.24,0.032 -0.267,0.045 a 1.347,1.347 0 0 1 -0.262,0.044 c -0.708,0.069 -1.268,0.198 -1.723,0.4 -0.12,0.053 -0.225,0.097 -0.233,0.097 -0.043,0 -1.46,0.666 -1.703,0.8 -0.255,0.142 -0.331,0.174 -0.427,0.184 a 0.718,0.718 0 0 0 -0.147,0.109 c -0.144,0.124 -0.428,0.234 -0.68,0.262 a 0.93,0.93 0 0 1 -0.41,-0.048 c -0.207,-0.06 -0.26,-0.094 -0.494,-0.315 -0.204,-0.192 -0.288,-0.3 -0.38,-0.486 -0.107,-0.22 -0.118,-0.267 -0.123,-0.542 -0.005,-0.265 0.004,-0.317 0.075,-0.44 0.096,-0.166 0.349,-0.343 0.531,-0.371 a 0.616,0.616 0 0 0 0.271,-0.135 c 0.077,-0.063 0.255,-0.2 0.396,-0.306 1.107,-0.822 1.594,-1.225 1.594,-1.318 0,-0.03 0.54,-0.95 0.631,-1.074 0.096,-0.131 0.389,-0.357 0.602,-0.464 a 5.96,5.96 0 0 1 0.904,-0.327 c 0.486,-0.125 0.44,-0.101 0.378,-0.192 -0.03,-0.044 -0.371,-0.43 -0.757,-0.856 -0.387,-0.426 -0.724,-0.814 -0.75,-0.863 a 21.423,21.423 0 0 1 -0.301,-0.677 51.78,51.78 0 0 0 -0.32,-0.731 c -0.163,-0.35 -0.19,-0.427 -0.19,-0.552 0,-0.157 0.06,-0.252 0.203,-0.32 0.227,-0.11 0.32,-0.054 0.852,0.514 0.24,0.258 0.713,0.734 1.049,1.057 0.552,0.532 1.109,1.17 1.248,1.431 0.088,0.164 0.466,0.631 0.64,0.79 0.109,0.1 0.209,0.164 0.255,0.164 0.176,0 0.435,-0.173 0.782,-0.525 0.696,-0.703 1.272,-1.246 1.497,-1.41 0.28,-0.204 1.501,-0.792 2.12,-1.02 0.244,-0.09 0.473,-0.177 0.51,-0.192 a 2.31,2.31 0 0 1 0.197,-0.066 0.627,0.627 0 0 0 0.162,-0.066 0.144,0.144 0 0 1 0.082,-0.028 c 0.028,0 0.273,-0.08 0.544,-0.177 0.87,-0.312 0.895,-0.316 1.077,-0.171 0.136,0.109 0.181,0.25 0.125,0.392 -0.104,0.265 -0.934,1.372 -1.393,1.859 -0.56,0.593 -0.866,0.791 -1.83,1.182 -1.117,0.452 -1.161,0.476 -1.487,0.806 -0.19,0.19 -0.521,0.76 -0.472,0.807 0.013,0.012 0.085,0 0.16,-0.03 0.938,-0.35 1.278,-0.469 1.782,-0.618 a 22.3,22.3 0 0 0 0.658,-0.201 c 0.036,-0.015 0.154,-0.043 0.263,-0.064 0.108,-0.021 0.22,-0.05 0.246,-0.062 0.027,-0.014 0.198,-0.042 0.378,-0.064 0.18,-0.022 0.359,-0.05 0.395,-0.061 0.036,-0.012 0.332,-0.012 0.657,0 0.513,0.017 0.626,0.03 0.842,0.101 0.94,0.306 1.769,0.883 2.702,1.882 0.39,0.418 0.655,0.788 0.891,1.248 0.303,0.59 0.337,0.72 0.43,1.63 0.123,1.214 0.291,2.735 0.377,3.418 0.161,1.278 0.26,2.016 0.28,2.082 0.008,0.027 0.03,0.177 0.05,0.334 0.02,0.158 0.087,0.586 0.15,0.952 0.062,0.366 0.113,0.718 0.113,0.783 0,0.115 -0.002,0.117 -0.152,0.137 a 2.909,2.909 0 0 1 -0.272,0.022 c -0.099,0 -0.156,0.035 -0.348,0.206 -0.127,0.113 -0.247,0.205 -0.268,0.205 -0.02,0 -0.1,-0.1 -0.176,-0.222 l -0.14,-0.223 h -0.179 c -0.163,0 -0.203,0.016 -0.432,0.167 -0.138,0.092 -0.28,0.192 -0.316,0.223 -0.035,0.031 -0.08,0.052 -0.099,0.046 -0.054,-0.017 -0.112,-0.214 -0.114,-0.384 l -0.002,-0.156 -0.216,0.022 a 5.747,5.747 0 0 0 -0.462,0.07 c -0.31,0.062 -0.368,0.047 -0.28,-0.075 0.035,-0.048 0.221,-0.321 0.414,-0.607 l 0.35,-0.519 -0.054,-0.45 a 36.32,36.32 0 0 1 -0.071,-0.65 c -0.01,-0.11 -0.032,-0.208 -0.047,-0.217 -0.016,-0.01 -0.029,-0.05 -0.029,-0.091 0,-0.04 -0.072,-0.222 -0.16,-0.404 -0.09,-0.181 -0.207,-0.422 -0.262,-0.536 a 10.15,10.15 0 0 0 -0.266,-0.493 l -0.164,-0.286 -0.207,0.01 c -0.354,0.015 -0.346,0.01 -0.37,0.254 a 1.07,1.07 0 0 1 -0.051,0.27 0.313,0.313 0 0 0 -0.032,0.13 c 0,0.04 -0.022,0.145 -0.049,0.23 a 4.412,4.412 0 0 0 -0.098,0.459 c -0.028,0.166 -0.064,0.373 -0.081,0.46 -0.017,0.088 -0.048,0.267 -0.068,0.398 a 12.1,12.1 0 0 1 -0.066,0.382 c -0.016,0.079 -0.046,0.25 -0.066,0.382 -0.02,0.13 -0.05,0.298 -0.067,0.371 -0.062,0.273 -0.043,0.308 0.522,0.96 0.2,0.232 0.326,0.403 0.306,0.415 -0.02,0.012 -0.15,0.047 -0.29,0.078 -0.511,0.113 -0.672,0.154 -1.012,0.258 -0.302,0.092 -0.392,0.098 -0.52,0.032 z m 0.473,-0.685 a 1.838,1.838 0 0 1 -0.121,-0.308 c 0.006,-0.01 0.094,0.086 0.195,0.206 0.287,0.34 0.286,0.339 0.481,0.294 a 0.55,0.55 0 0 0 0.166,-0.054 6.57,6.57 0 0 0 -0.272,-0.386 c -0.15,-0.204 -0.284,-0.389 -0.298,-0.41 -0.013,-0.022 0.134,-0.957 0.327,-2.08 0.35,-2.03 0.351,-2.04 0.285,-2.091 a 67.632,67.632 0 0 0 -0.39,-0.295 4.143,4.143 0 0 1 -0.484,-0.422 c -0.158,-0.177 -0.176,-0.238 -0.033,-0.108 0.16,0.145 0.072,-0.031 -0.209,-0.421 -0.24,-0.334 -0.289,-0.422 -0.312,-0.57 -0.029,-0.187 -0.002,-0.668 0.038,-0.668 0.013,0 0.032,0.106 0.042,0.236 a 0.973,0.973 0 0 0 0.086,0.357 c 0.037,0.067 0.172,0.351 0.3,0.631 0.128,0.28 0.25,0.53 0.273,0.558 0.043,0.053 0.511,0.405 0.75,0.563 0.089,0.059 0.161,0.135 0.173,0.182 0.012,0.044 0.042,0.08 0.067,0.08 0.025,0 0.184,-0.05 0.352,-0.113 0.297,-0.109 0.423,-0.182 0.423,-0.244 0,-0.017 0.021,-0.075 0.047,-0.13 0.303,-0.65 0.386,-0.89 0.363,-1.051 -0.013,-0.09 -0.012,-0.092 0.014,-0.02 0.06,0.162 0.035,0.306 -0.106,0.637 a 8.03,8.03 0 0 1 -0.184,0.408 0.22,0.22 0 0 0 -0.024,0.14 0.37,0.37 0 0 1 -0.031,0.182 l -0.05,0.118 0.45,0.784 c 0.466,0.816 0.505,0.911 0.588,1.436 0.092,0.584 0.206,1.128 0.246,1.175 0.033,0.038 0.008,0.086 -0.136,0.262 -0.351,0.433 -0.463,0.584 -0.444,0.602 0.03,0.03 0.356,-0.053 0.491,-0.125 0.123,-0.065 0.204,-0.055 0.13,0.017 -0.062,0.06 -0.046,0.088 0.047,0.088 h 0.087 l -0.023,0.197 c -0.026,0.222 -0.052,0.224 0.253,-0.017 0.126,-0.099 0.166,-0.116 0.204,-0.085 0.026,0.02 0.08,0.034 0.122,0.03 a 0.338,0.338 0 0 1 0.134,0.017 0.379,0.379 0 0 0 0.168,0 l 0.11,-0.02 0.044,0.19 c 0.052,0.226 0.09,0.215 0.18,-0.053 0.086,-0.253 0.096,-0.263 0.301,-0.263 0.155,0 0.177,-0.01 0.162,-0.055 a 6.276,6.276 0 0 1 -0.07,-0.438 c -0.078,-0.57 -0.338,-2.355 -0.377,-2.591 -0.146,-0.886 -0.395,-3.153 -0.46,-4.196 -0.04,-0.656 -0.09,-0.84 -0.362,-1.385 -0.392,-0.782 -1.142,-1.62 -2.025,-2.26 -0.495,-0.36 -0.859,-0.55 -1.372,-0.713 l -0.323,-0.103 -0.63,0.016 c -0.655,0.017 -0.916,0.054 -1.567,0.224 -0.527,0.138 -1.667,0.514 -2.186,0.722 -0.272,0.108 -0.549,0.22 -0.617,0.246 -0.068,0.027 -0.123,0.066 -0.123,0.085 0,0.096 0.278,0.47 0.542,0.73 0.412,0.406 0.5,0.465 0.722,0.488 0.232,0.023 0.272,0.072 0.06,0.072 -0.222,0 -0.374,-0.101 -0.821,-0.55 -0.346,-0.346 -0.404,-0.424 -0.647,-0.876 -0.162,-0.303 0.08,-0.967 0.523,-1.43 0.31,-0.323 0.598,-0.496 1.248,-0.75 0.308,-0.119 0.751,-0.308 0.986,-0.42 0.353,-0.166 0.475,-0.244 0.699,-0.443 0.425,-0.379 0.959,-1.015 1.431,-1.704 0.26,-0.378 0.3,-0.465 0.196,-0.425 a 8.89,8.89 0 0 1 -0.271,0.096 c -1.598,0.55 -1.705,0.588 -2.328,0.844 -0.962,0.395 -1.474,0.683 -1.973,1.109 a 15.19,15.19 0 0 0 -0.753,0.744 c -0.56,0.583 -0.785,0.773 -1.047,0.881 -0.304,0.126 -0.603,0.04 -0.872,-0.249 a 8.318,8.318 0 0 1 -0.669,-0.85 c -0.256,-0.39 -0.574,-0.75 -1.248,-1.414 a 61.795,61.795 0 0 1 -1.05,-1.059 c -0.197,-0.206 -0.363,-0.369 -0.37,-0.362 -0.007,0.01 0.039,0.122 0.102,0.256 0.063,0.134 0.18,0.397 0.26,0.586 0.08,0.188 0.174,0.406 0.21,0.484 0.26,0.56 0.235,0.528 1.214,1.608 l 0.955,1.051 -0.3,0.055 c -0.626,0.113 -1.415,0.372 -1.731,0.57 -0.258,0.16 -0.312,0.228 -0.691,0.876 -0.305,0.52 -0.37,0.61 -0.606,0.827 -0.145,0.135 -0.54,0.449 -0.877,0.699 -0.338,0.25 -0.677,0.508 -0.754,0.574 l -0.14,0.12 0.253,0.135 c 0.138,0.074 0.252,0.14 0.252,0.147 0,0.01 -0.105,-0.023 -0.234,-0.066 -0.354,-0.116 -0.509,-0.127 -0.696,-0.05 -0.13,0.055 -0.17,0.092 -0.225,0.212 -0.06,0.133 -0.063,0.166 -0.028,0.367 0.058,0.334 0.329,0.686 0.657,0.857 0.144,0.074 0.487,0.058 0.674,-0.033 0.14,-0.068 0.18,-0.109 0.271,-0.283 a 0.744,0.744 0 0 0 0.11,-0.414 c 0.003,-0.3 0.047,-0.385 0.074,-0.145 0.047,0.409 0.063,0.524 0.075,0.524 0.007,0 0.386,-0.178 0.842,-0.395 0.901,-0.43 1.619,-0.734 1.981,-0.843 0.208,-0.063 0.416,-0.099 1.561,-0.272 0.777,-0.118 1.165,-0.278 1.506,-0.62 l 0.11,-0.112 -0.076,0.14 c -0.092,0.166 -0.265,0.316 -0.507,0.438 -0.207,0.105 -0.19,0.049 -0.26,0.824 -0.026,0.299 -0.086,0.929 -0.132,1.4 l -0.132,1.348 c -0.035,0.366 -0.048,0.983 -0.048,2.4 v 1.906 l -0.27,0.399 c -0.148,0.22 -0.298,0.43 -0.332,0.468 -0.092,0.101 -0.044,0.137 0.186,0.137 h 0.205 l 0.123,-0.156 c 0.195,-0.247 0.235,-0.261 0.138,-0.05 a 1.577,1.577 0 0 1 -0.12,0.227 c -0.027,0.032 -0.022,0.047 0.022,0.064 0.063,0.023 2.274,-0.098 2.304,-0.126 0.026,-0.025 -0.119,-1.04 -0.302,-2.121 a 75.715,75.715 0 0 1 -0.148,-0.938 c -0.053,-0.35 -0.118,-0.758 -0.144,-0.906 a 11.508,11.508 0 0 1 -0.07,-0.451 l -0.021,-0.18 0.209,-0.218 c 0.114,-0.119 0.293,-0.31 0.396,-0.423 l 0.189,-0.206 0.107,0.041 c 0.202,0.078 2.646,0.864 2.684,0.864 0.071,0 0.037,-0.06 -0.138,-0.244 a 1.726,1.726 0 0 1 -0.216,-0.265 c -0.051,-0.103 0.21,0.164 0.414,0.425 0.084,0.108 0.253,0.312 0.376,0.454 0.192,0.223 0.234,0.256 0.306,0.243 0.063,-0.012 0.084,0 0.084,0.036 0,0.029 -0.108,0.47 -0.241,0.982 -0.583,2.243 -0.755,2.94 -0.737,2.986 0.012,0.03 0.282,0.133 0.713,0.272 l 0.693,0.223 v -0.201 c 0,-0.11 -0.015,-0.21 -0.033,-0.22 -0.018,-0.011 -0.032,-0.044 -0.032,-0.074 0.002,-0.098 0.085,0.044 0.213,0.362 l 0.119,0.297 0.253,0.01 c 0.139,0 0.264,0 0.278,-0.01 0.015,-0.01 -0.033,-0.152 -0.106,-0.315 z m -0.412,-6.876 c 0.033,-0.283 0.08,-0.339 0.08,-0.098 0.001,0.211 -0.02,0.297 -0.071,0.297 -0.02,0 -0.024,-0.073 -0.01,-0.199 z m -12.555,-0.67 c -0.053,-0.037 -0.058,-0.065 -0.037,-0.183 a 0.875,0.875 0 0 0 10e-4,-0.41 l -0.026,-0.112 0.086,0.076 c 0.047,0.042 0.134,0.166 0.193,0.276 0.09,0.168 0.102,0.214 0.074,0.29 -0.038,0.104 -0.187,0.137 -0.29,0.064 z m -0.573,-0.317 a 0.274,0.274 0 0 1 -0.071,-0.169 c 0,-0.052 -0.018,-0.112 -0.04,-0.133 -0.022,-0.022 -0.025,-0.038 -0.006,-0.038 0.069,0 0.214,0.185 0.232,0.297 0.023,0.134 -0.012,0.148 -0.115,0.043 z m 5.626,-2.604 c -0.102,-0.048 -0.174,-0.214 -0.174,-0.4 0,-0.15 0.004,-0.159 0.123,-0.21 0.134,-0.056 0.188,-0.064 0.383,-0.057 0.126,0.01 0.127,0.01 0.069,0.069 -0.033,0.035 -0.046,0.064 -0.029,0.064 0.05,0 0.144,0.177 0.144,0.271 0,0.125 -0.2,0.302 -0.34,0.299 a 0.525,0.525 0 0 1 -0.176,-0.036 z m -0.306,-0.741 c 0,-0.01 0.074,-0.051 0.163,-0.095 0.124,-0.06 0.21,-0.08 0.354,-0.076 h 0.19 l -0.181,0.024 c -0.1,0.013 -0.258,0.054 -0.353,0.09 a 0.554,0.554 0 0 1 -0.173,0.053 z m -0.526,-0.804 c 0,-0.044 0.28,-0.161 0.549,-0.23 0.278,-0.07 0.442,-0.082 0.207,-0.015 -0.22,0.063 -0.616,0.2 -0.69,0.238 -0.037,0.019 -0.066,0.022 -0.066,0.01 z m 4.832,-1.485 c 0,-0.01 0.233,-0.234 0.518,-0.5 0.285,-0.267 0.58,-0.547 0.657,-0.622 0.077,-0.075 0.14,-0.123 0.14,-0.107 0,0.035 -0.52,0.662 -0.62,0.748 -0.113,0.098 -0.092,0.147 0.048,0.11 0.164,-0.044 0.182,-0.01 0.027,0.056 -0.07,0.028 -0.264,0.114 -0.43,0.19 -0.3,0.14 -0.34,0.154 -0.34,0.125 z m 0.065,12.734 c 0.43,-0.446 0.556,-0.597 0.634,-0.763 0.21,-0.447 0.26,-0.554 0.456,-0.992 0.112,-0.25 0.203,-0.49 0.203,-0.534 0,-0.062 -0.736,-1.862 -0.774,-1.893 a 26.127,26.127 0 0 0 -1.044,-0.294 0.351,0.351 0 0 1 -0.121,-0.045 c -0.058,-0.045 -0.13,0.01 -0.398,0.271 l -0.24,0.24 0.02,0.169 c 0.037,0.31 0.083,0.644 0.115,0.837 0.018,0.104 0.077,0.477 0.132,0.826 0.054,0.35 0.114,0.722 0.131,0.827 0.018,0.105 0.077,0.477 0.13,0.827 0.055,0.35 0.114,0.705 0.132,0.79 0.018,0.084 0.033,0.189 0.033,0.232 0,0.044 0.012,0.075 0.027,0.07 0.015,-0.01 0.268,-0.261 0.564,-0.567 z"
             fill="#173f4f"
             id="path924" />
        </g>
      </g>
    </g>
  </g>
  <path
     style="display:inline;mix-blend-mode:normal;fill:url(#linearGradient3403);fill-opacity:1;stroke:url(#linearGradient20558);stroke-width:1.16242;stroke-linecap:butt;stroke-linejoin:round;stroke-miterlimit:4;stroke-dasharray:none;stroke-opacity:1;filter:url(#filter20720)"
     d="M 4.7043071,3.9814882 4.6913695,60.80196 H 58.59546 l 1.022155,-2.866369 c 0,0 -23.87537,0.766388 -32.844441,-4.140386 C 16.257548,48.042344 11.401114,4.0978197 11.401114,4.0978197 Z"
     id="path1686"
     sodipodi:nodetypes="ccccscc"
     transform="matrix(0.49444664,0,0,0.49444664,0.32484529,0.23297949)"
     inkscape:label="folder" />
  <rect
     style="display:inline;fill:none;fill-opacity:1;stroke:url(#linearGradient4557);stroke-width:3.71366;stroke-linejoin:round;stroke-miterlimit:7.8;stroke-dasharray:none;stroke-opacity:0.995146;filter:url(#filter4601)"
     id="rect4539"
     width="62.566689"
     height="62.866646"
     x="1.0323594"
     y="0.59551275"
     ry="6.2447233"
     rx="5.8029528"
     transform="matrix(0.46318908,0,0,0.46224499,1.155596,1.2321057)"
     inkscape:label="contour" />
</svg>
