<svg width="32" height="32" version="1.1" viewBox="0 0 32 32" xmlns="http://www.w3.org/2000/svg" xmlns:xlink="http://www.w3.org/1999/xlink">
<defs>
<linearGradient id="linearGradient3403" x1="6.9492" x2="11.215" y1="4.5549" y2="59.052" gradientUnits="userSpaceOnUse">
<stop style="stop-color:#32373c" offset="0"/>
<stop style="stop-color:#1a1a1a" offset=".36805"/>
<stop style="stop-color:#31363b" offset="1"/>
</linearGradient>
<linearGradient id="linearGradient20558" x1="25.802" x2="25.111" y1="20.374" y2="58.913" gradientUnits="userSpaceOnUse">
<stop style="stop-color:#3d3d3d" offset="0"/>
<stop offset=".61772"/>
<stop style="stop-color:#3d3d3d" offset="1"/>
</linearGradient>
<linearGradient id="linearGradient4557" x1="43.5" x2="44.142" y1="64.012" y2=".30621" gradientTransform="translate(.36068 -.13017)" gradientUnits="userSpaceOnUse">
<stop style="stop-color:#141618" offset="0"/>
<stop style="stop-color:#686868" offset=".51821"/>
<stop style="stop-color:#31363b" offset="1"/>
</linearGradient>
<linearGradient id="linearGradient919" x1="7.4006" x2="33.063" y1="41.743" y2="7.1074" gradientTransform="matrix(.65672 0 0 .65672 .25995 .21718)" gradientUnits="userSpaceOnUse">
<stop style="stop-opacity:.99608" offset="0"/>
<stop style="stop-color:#353a3f;stop-opacity:.99608" offset="1"/>
</linearGradient>
<linearGradient id="g" x1="388.42" x2="0" y1="543.8" y2="503.8" gradientTransform="matrix(1.125,0,0,1,-435.64,-499.8)" gradientUnits="userSpaceOnUse">
<stop stop-color="#7f8c8d" offset="0"/>
<stop stop-color="#afb0b3" offset="1"/>
</linearGradient>
<linearGradient id="h" x2="0" y1="38" y2="5" gradientTransform="translate(40)" gradientUnits="userSpaceOnUse">
<stop stop-color="#eef1f2" offset="0"/>
<stop stop-color="#f9fafb" offset="1"/>
</linearGradient>
<linearGradient id="i" x1="10" x2="24" y1="9" y2="23" gradientTransform="matrix(1.4286 0 0 1.4286 1.143 1.143)" gradientUnits="userSpaceOnUse">
<stop stop-color="#292c2f" offset="0"/>
<stop stop-opacity="0" offset="1"/>
</linearGradient>
<linearGradient id="j" x1="-17" x2="-17" y1="32" y2="10" gradientTransform="translate(40)" gradientUnits="userSpaceOnUse">
<stop stop-color="#173f4f" offset="0"/>
<stop stop-color="#2f5361" offset="1"/>
</linearGradient>
<linearGradient id="k" x1="-17" x2="-17" y1="31.949" y2="10" gradientTransform="translate(40)" gradientUnits="userSpaceOnUse">
<stop stop-color="#35b9ab" offset="0"/>
<stop stop-color="#4ac0b4" offset="1"/>
</linearGradient>
<linearGradient id="l" x1="-17" x2="-17" y1="32" y2="10" gradientTransform="translate(40)" gradientUnits="userSpaceOnUse">
<stop stop-color="#73ba25" offset="0"/>
<stop stop-color="#81c13b" offset="1"/>
</linearGradient>
</defs>
<rect x="2.3371" y="2.1995" width="27.638" height="28.05" ry="0" style="fill-rule:evenodd;fill:url(#linearGradient919)"/>
<g transform="matrix(.66758 0 0 .66758 1.7249 -.53275)">
<path d="m16.838 4a10.809 10.809 0 0 0-7.67 3.168 10.809 10.809 0 0 0-3.168 7.67v29.162h36v-14.227h-4e-3v-14.935a10.81 10.81 0 0 0-3.168-7.67 10.809 10.809 0 0 0-7.67-3.168z" style="fill:url(#g)"/>
<path d="m6 39.9h36v4.1h-36z" style="fill:#626b6c"/>
<path d="m6 43h36v1h-36z" style="fill:#737b81"/>
<g style="fill:#292c2e;stroke-width:.1">
<path d="m16 41h12v3h-12zm16 0h6v3h-6z"/>
</g>
<path d="m17.367 6.025a9.34 9.34 0 0 0-9.367 9.367v4.659c1.698 0.243 3 1.684 3 3.451a3.48 3.48 0 0 1-3 3.45v5.048l1.459 1.486 0.012 0.014c0.02 0.024 0.048 0.044 0.07 0.068l4.354 4.432h10.062l0.043 2e-3h4.088v-2e-3h5.912l3.719-3.719c0.292-0.245 0.567-0.502 0.81-0.781 0.037-0.043 0.068-0.09 0.104-0.133l1.367-1.367v-5.049a3.48 3.48 0 0 1-3-3.449 3.483 3.483 0 0 1 3-3.451v-4.658a9.345 9.345 0 0 0-5.715-8.633 9.376 9.376 0 0 0-3.547-0.729c-9e-3 -1e-3 -0.017-6e-3 -0.027-6e-3z" style="fill:url(#h)"/>
<path d="m18 42v1h8v-1zm15 0v1h3v1h1v-2z" style="fill:#f6b44d"/>
<g style="fill:#202324">
<path d="m16 43h12v1h-12zm16 0h6v1h-6z"/>
</g>
<path d="m24 10a11 11 0 0 0-8.43 3.936l-0.142 0.064-0.065 0.209a11 11 0 0 0-2.363 6.791 11 11 0 0 0 2.482 6.953l0.43 1.277 10.483 10.485h14.748v-17.606l-9.143-9.109-0.771-0.281a11 11 0 0 0-7.229-2.719z" style="fill:url(#i);opacity:.2"/>
<path d="m23 31.95v-10.306l-0.121-0.21-8.828-5.095a11 11 0 0 0-1.051 4.661 11 11 0 0 0 10 10.95z" style="fill:url(#j);paint-order:stroke fill markers"/>
<path d="m33.95 16.338-8.829 5.098-0.121 0.209v10.3a11 11 0 0 0 10-10.945 11 11 0 0 0-1.05-4.662z" style="fill:url(#k);paint-order:stroke fill markers"/>
<path d="m24 10a11 11 0 0 0-8.943 4.611l8.943 5.162 8.94-5.16a11 11 0 0 0-8.94-4.613z" style="fill:url(#l);paint-order:stroke fill markers"/>
</g>
<path transform="matrix(.49378 0 0 .49378 .32543 .23352)" d="m4.7043 3.9815-0.012938 56.82h53.904l1.0222-2.8664s-23.875 0.76639-32.844-4.1404c-10.516-5.7529-15.372-49.697-15.372-49.697z" style="fill:url(#linearGradient3403);mix-blend-mode:normal;stroke-linejoin:round;stroke-width:1.1624;stroke:url(#linearGradient20558)"/>
<rect transform="matrix(.46256 0 0 .46162 1.1551 1.2313)" x="1.0324" y=".59551" width="62.567" height="62.867" rx="5.803" ry="6.2447" style="fill:none;stroke-linejoin:round;stroke-miterlimit:7.8;stroke-opacity:.99515;stroke-width:3.7137;stroke:url(#linearGradient4557)"/>
</svg>
