<svg xmlns="http://www.w3.org/2000/svg" xmlns:svg="http://www.w3.org/2000/svg" width="24" height="24" version="1.1" id="svg1" viewBox="0 0 24 24">
  <defs id="defs1"/>
  <style type="text/css" id="current-color-scheme">
      .ColorScheme-Text {
        color:#fcfcfc;
      }
      .ColorScheme-Background {
        color:#eff0f1;
      }
      .ColorScheme-Highlight {
        color:#3498db;
      }
      .ColorScheme-ViewText {
        color:#31363b;
      }
      .ColorScheme-ViewBackground {
        color:#fcfcfc;
      }
      .ColorScheme-ViewHover {
        color:#93cee9;
      }
      .ColorScheme-ViewFocus{
        color:#3daee9;
      }
      .ColorScheme-ButtonText {
        color:#31363b;
      }
      .ColorScheme-ButtonBackground {
        color:#eff0f1;
      }
      .ColorScheme-ButtonHover {
        color:#93cee9;
      }
      .ColorScheme-ButtonFocus{
        color:#3daee9;
      }
      .ColorScheme-NegativeText{
        color:#e74c3c;
      }
      </style>
  <g transform="translate(1,1)">
    <g id="network-unavailable" transform="translate(-226,-76) translate(44,0)">
      <path style="opacity:0.35;fill:currentColor;fill-opacity:1;stroke:none" d="m 185,81 c 0,2 0,0 0,2 0,2 2,2 2,2 v 7 c 0,1.662 1.338,3 3,3 h 1 1 2 v -5 h -5 v 1 1 h 1 1 V 93 93.726562 94 h -1 c -1.108,0 -2,-0.892 -2,-2 v -7 c 0,0 2,0 2,-2 0,-2 0,0 0,-2 0,-2 -2,-2 -2,-2 h -1 c 0,0 -2,0 -2,2 z m 6,-2 v 1 c 0,0 5,0 7,0 2,0 2,2 2,2 v 5 h 1 v -5 c 0,0 0,-3 -3,-3 -3,0 -7,0 -7,0 z m -5,2 c 0,-1 1,-1 1,-1 h 1 c 0,0 1,0 1,1 0,1 0,1 0,2 0,1 -1,1 -1,1 h -1 c 0,0 -1,0 -1,-1 0,-1 0,-1 0,-2 z m 1,0 v 2 h 1 v -2 z m -2,5 v 6 h 1 v -6 z" id="path1595" class="ColorScheme-Text"/>
      <rect style="opacity:1;fill:none;fill-opacity:1;stroke:none" id="rect1597" width="22" height="22" x="182" y="76"/>
      <path id="path1609" d="M 195.84845,89.003252 195,89.851689 197.15156,92.003252 195,94.154815 l 0.84845,0.848437 2.15156,-2.151564 2.15154,2.151564 L 201,94.154815 198.84844,92.003252 201,89.851689 l -0.84845,-0.848437 -2.15154,2.151563 z" class="ColorScheme-NegativeText" style="fill:currentColor;fill-opacity:1;stroke:none;stroke-width:1.19999874"/>
    </g>
  </g>
</svg>
