<svg xmlns="http://www.w3.org/2000/svg" version="1.1" viewBox="0 0 24 24" width="24" height="24">
  <style id="current-color-scheme" type="text/css">.ColorScheme-Text {
            color:#fcfcfc;}.ColorScheme-NegativeText {color:#da4453;}</style>
  <g transform="translate(1,1)">
    <path class="ColorScheme-Text" d="m 3,5 c 0,2 0,0 0,2 0,2 2,2 2,2 v 7 c 0,1.662 1.338,3 3,3 h 4 v -2 h 1.4 L 14,16 V 14 H 7 v 2 h 2 v 2 H 8 C 6.892,18 6,17.108 6,16 V 9 C 6,9 8,9 8,7 8,5 8,7 8,5 8,3 6,3 6,3 H 5 C 5,3 3,3 3,5 Z M 9,3 v 1 c 0,0 5,0 7,0 2,0 2,2 2,2 v 9 h 1 V 6 C 19,6 19,3 16,3 13,3 9,3 9,3 Z M 4,5 C 4,4 5,4 5,4 H 6 C 6,4 7,4 7,5 7,6 7,6 7,7 7,8 6,8 6,8 H 5 C 5,8 4,8 4,7 4,6 4,6 4,5 Z M 5,5 V 7 H 6 V 5 Z m -2,5 v 6 h 1 v -6 z" fill="currentColor"/>
    <rect width="22" height="22" fill="none"/>
    <path d="m13 19 3-5 3 5z" fill="#fdbc4b" fill-rule="evenodd"/>
  </g>
</svg>
