<svg xmlns="http://www.w3.org/2000/svg" xmlns:svg="http://www.w3.org/2000/svg" viewBox="0 0 24 24" version="1.1" id="svg1" width="24" height="24">
  <defs id="defs3051">
    <style type="text/css" id="current-color-scheme">
      .ColorScheme-Text {
        color:#fcfcfc;
      }
      </style>
  </defs>
  <g transform="translate(1,1)">
    <path style="fill:currentColor;fill-opacity:1;stroke:none" d="m 3,1035.3622 c 0,2 0,0 0,2 0,2 2,2 2,2 v 7 c 0,1.662 1.338,3 3,3 h 1 1 2 3 v -1 h -1 -1 v -2 h 1 2 c 0,0 3,0 3,-3 0,-3 0,-4 0,-7 0,-3 -3,-3 -3,-3 H 9 v 1 h 7 c 0,0 2,0 2,2 0,2 0,4 0,6 0,2 -2,2 -2,2 H 7 v 1 1 h 1 1 v 1 0.7266 0.2734 H 8 c -1.108,0 -2,-0.892 -2,-2 v -7 c 0,0 2,0 2,-2 0,-2 0,0 0,-2 0,-2 -2,-2 -2,-2 H 5 c 0,0 -2,0 -2,2 z m 1,0 c 0,-1 1,-1 1,-1 h 1 c 0,0 1,0 1,1 0,1 0,1 0,2 0,1 -0.9347829,1 -0.9347829,1 H 5.0326085 c 0,0 -1.0326085,0 -1.0326085,-1 0,-1 0,-1 0,-2 z m 1,0 v 2 h 1 v -2 z m -2,5 v 6 h 1 v -6 z" transform="translate(0,-1030.3622)" class="ColorScheme-Text" id="path1"/>
  </g>
</svg>
