<?xml version="1.0" encoding="UTF-8" standalone="no"?>
<svg
   version="1.1"
   viewBox="0 0 24 24"
   width="24"
   height="24"
   id="svg9"
   sodipodi:docname="update-none.svg"
   inkscape:version="1.1.2 (0a00cf5339, 2022-02-04)"
   xmlns:inkscape="http://www.inkscape.org/namespaces/inkscape"
   xmlns:sodipodi="http://sodipodi.sourceforge.net/DTD/sodipodi-0.dtd"
   xmlns="http://www.w3.org/2000/svg"
   xmlns:svg="http://www.w3.org/2000/svg">
  <sodipodi:namedview
     id="namedview11"
     pagecolor="#ffffff"
     bordercolor="#666666"
     borderopacity="1.0"
     inkscape:pageshadow="2"
     inkscape:pageopacity="0.0"
     inkscape:pagecheckerboard="0"
     showgrid="false"
     inkscape:zoom="26.25"
     inkscape:cx="12"
     inkscape:cy="12"
     inkscape:window-width="3440"
     inkscape:window-height="1356"
     inkscape:window-x="0"
     inkscape:window-y="0"
     inkscape:window-maximized="1"
     inkscape:current-layer="g7" />
  <defs
     id="defs3">
    <style
       type="text/css"
       id="current-color-scheme">.ColorScheme-Text {
        color:#eff0f1;
      }</style>
  </defs>
  <g
     transform="translate(1,1)"
     id="g7">
    <path
       class="ColorScheme-Text"
       fill="currentColor"
       d="m 16.480018,5.5054087 -2.480469,0.298829 0.5,-0.867188 c -2.9696,-1.7145 -6.7364095,-1.027347 -8.9121085,1.623047 -2.1757,2.650394 -2.113716,6.4760703 0.146484,9.0546873 l -0.751953,0.658203 C 2.4036715,13.331512 2.3322025,8.9467147 4.8140025,5.923378 7.2958025,2.900093 11.612049,2.116066 14.999549,4.071816 l 0.5,-0.865235 z m 2.517578,5.3671883 c 0.02996,1.841775 -0.573553,3.69341 -1.814453,5.205078 -2.4819,3.023284 -6.796094,3.807312 -10.183594,1.851562 l -0.5,0.865235 -0.982422,-2.298828 2.482422,-0.298829 -0.5,0.865235 c 2.9696,1.7145 6.734457,1.029299 8.910156,-1.621094 2.1757,-2.650393 2.113715,-6.4760703 -0.146484,-9.0546873 l 0.751953,-0.658203 c 1.28915,1.470738 1.95246,3.302755 1.982422,5.1445313 z"
       id="path5"
       sodipodi:nodetypes="cccsccccccsccccccsccs" />
  </g>
</svg>
