<!-- Created with Inkscape (http://www.inkscape.org/) -->
<svg xmlns:inkscape="http://www.inkscape.org/namespaces/inkscape" xmlns:sodipodi="http://sodipodi.sourceforge.net/DTD/sodipodi-0.dtd" xmlns:xlink="http://www.w3.org/1999/xlink" xmlns="http://www.w3.org/2000/svg" xmlns:svg="http://www.w3.org/2000/svg" width="24" height="24" version="1.1" viewBox="0 0 24 24" id="svg22" sodipodi:docname="preferences-web-browser-cookies.svg" inkscape:version="1.1.2 (0a00cf5339, 2022-02-04)">
  <sodipodi:namedview id="namedview24" pagecolor="#ffffff" bordercolor="#666666" borderopacity="1.0" inkscape:showpageshadow="2" inkscape:pageopacity="0.0" inkscape:pagecheckerboard="0" inkscape:deskcolor="#d1d1d1" showgrid="false" inkscape:zoom="18.116076" inkscape:cx="-2.6495804" inkscape:cy="19.264658" inkscape:window-width="3440" inkscape:window-height="1356" inkscape:window-x="0" inkscape:window-y="0" inkscape:window-maximized="1" inkscape:current-layer="svg22" inkscape:pageshadow="2"/>
  <defs id="defs12">
    <linearGradient inkscape:collect="always" id="linearGradient917">
      <stop style="stop-color:#000000;stop-opacity:0.99607843" offset="0" id="stop913"/>
      <stop style="stop-color:#353a3f;stop-opacity:0.99607843" offset="1" id="stop915"/>
    </linearGradient>
    <linearGradient id="linearGradient1005-3-3" x1="5.2535" x2="9.3823996" y1="15.383" y2="2.9421" gradientTransform="matrix(0.99999,0,0,0.99999,1.632,-0.61743)" gradientUnits="userSpaceOnUse">
      <stop stop-color="#fa8200" offset="0" id="stop2"/>
      <stop stop-color="#ff9600" offset=".36953" id="stop4"/>
      <stop stop-color="#ffb400" offset="1" id="stop6"/>
    </linearGradient>
    <filter id="filter4014" x="-0.062499933" y="-0.057692993" width="1.1249999" height="1.115386" color-interpolation-filters="sRGB">
      <feGaussianBlur stdDeviation="1.093751" id="feGaussianBlur9"/>
    </filter>
    <linearGradient inkscape:collect="always" xlink:href="#linearGradient3487" id="linearGradient3403" gradientUnits="userSpaceOnUse" x1="6.9491749" y1="4.5549412" x2="11.215498" y2="59.052471"/>
    <linearGradient id="linearGradient3487">
      <stop style="stop-color:#32373c;stop-opacity:1" offset="0" id="stop3481"/>
      <stop id="stop3483" offset="0.36804965" style="stop-color:#1a1a1a;stop-opacity:1"/>
      <stop style="stop-color:#31363b;stop-opacity:1" offset="1" id="stop3485"/>
    </linearGradient>
    <linearGradient inkscape:collect="always" xlink:href="#linearGradient20604" id="linearGradient20558" gradientUnits="userSpaceOnUse" x1="25.802212" y1="20.373846" x2="25.111048" y2="58.912758"/>
    <linearGradient id="linearGradient20604">
      <stop id="stop20598" offset="0" style="stop-color:#3d3d3d;stop-opacity:1"/>
      <stop style="stop-color:#000000;stop-opacity:1" offset="0.61772454" id="stop20600"/>
      <stop id="stop20602" offset="1" style="stop-color:#3d3d3d;stop-opacity:1"/>
    </linearGradient>
    <filter inkscape:collect="always" style="color-interpolation-filters:sRGB" id="filter20720" x="-0.017024755" y="-0.016457183" width="1.0340491" height="1.0329144">
      <feGaussianBlur inkscape:collect="always" stdDeviation="0.14745661" id="feGaussianBlur20722"/>
    </filter>
    <linearGradient gradientTransform="translate(0.36067797,-0.13016949)" xlink:href="#linearGradient4555" id="linearGradient4557" x1="43.499737" y1="64.011795" x2="44.141731" y2="0.30621234" gradientUnits="userSpaceOnUse"/>
    <linearGradient id="linearGradient4555">
      <stop style="stop-color:#141618;stop-opacity:1" offset="0" id="stop4551"/>
      <stop id="stop4559" offset="0.51820582" style="stop-color:#686868;stop-opacity:1"/>
      <stop style="stop-color:#31363b;stop-opacity:1" offset="1" id="stop4553"/>
    </linearGradient>
    <filter style="color-interpolation-filters:sRGB" id="filter4601" x="-0.030244762" width="1.0604895" y="-0.030100647" height="1.0602013">
      <feGaussianBlur stdDeviation="0.014790289" id="feGaussianBlur4603"/>
    </filter>
    <linearGradient inkscape:collect="always" xlink:href="#linearGradient917" id="linearGradient919" x1="7.400631" y1="41.743092" x2="33.063145" y2="7.1074457" gradientUnits="userSpaceOnUse" gradientTransform="matrix(0.4444159,0,0,0.4444159,0.42072632,0.35149578)"/>
    <linearGradient id="c" gradientUnits="userSpaceOnUse" x1="6" x2="26" xlink:href="#b" y1="6" y2="26"/>
    <linearGradient id="a" xlink:href="#b"/>
    <linearGradient id="b">
      <stop offset="0" stop-color="#292c2f" id="stop3"/>
      <stop offset="1" stop-opacity="0" id="stop5"/>
    </linearGradient>
    <linearGradient id="d" gradientUnits="userSpaceOnUse" x1="23" x2="30" xlink:href="#b" y1="13" y2="20"/>
    <linearGradient id="e" gradientUnits="userSpaceOnUse" x1="2" x2="2" y1="30" y2="2">
      <stop offset="0" stop-color="#a5a5a5" id="stop10"/>
      <stop offset="1" stop-color="#f5f2f5" id="stop12"/>
    </linearGradient>
    <linearGradient id="f" gradientUnits="userSpaceOnUse" x1="12" x2="25" xlink:href="#b" y1="12" y2="25"/>
    <linearGradient id="g" gradientUnits="userSpaceOnUse" x2="0" y1="23" y2="9">
      <stop offset="0" stop-color="#ffd42a" id="stop15"/>
      <stop offset="1" stop-color="#ffdf62" id="stop17"/>
    </linearGradient>
  </defs>
  <g transform="translate(1,1)">
    <rect style="display:inline;fill:url(#linearGradient919);fill-opacity:1;fill-rule:evenodd;stroke:none;stroke-width:0.412338;stroke-linejoin:round;stroke-miterlimit:7.8" id="rect1192" width="18.703066" height="18.981939" x="1.8263739" y="1.6929606" ry="0" inkscape:label="arriere"/>
    <g id="g863" transform="matrix(0.67462724,0,0,0.67462724,0.88529426,0.03565448)">
      <rect fill="#4f575f" height="28" rx="14" width="28" x="2" y="2" id="rect21"/>
      <path d="m 18.594,2.248 -2.975,0.38 -4.135,2.388 -1.502,2.601 c 0,0 -1.973,1.39 -2.271,1.31 -2.517,-0.029 -3.869,0.665 -4.58,1.548 -0.301,0.703 -0.537,1.44 -0.72,2.197 -0.006,0.76 0.161,1.351 0.161,1.351 7.06,6.357 14.121,9.097 21.182,13.643 a 13.9,13.9 0 0 0 1.275,-0.959 l 0.069,-0.06 c 0.36,-0.308 0.703,-0.636 1.029,-0.979 0.072,-0.076 0.14,-0.155 0.21,-0.232 a 13.928,13.928 0 0 0 1.749,-2.375 l 0.055,-0.09 a 13.991,13.991 0 0 0 1.824,-6.282 l 0.002,-0.02 V 16.668 L 28.143,9.03 a 13.95,13.95 0 0 0 -9.55,-6.783 z" fill="url(#c)" fill-rule="evenodd" opacity="0.2" id="path23" style="fill:url(#c)"/>
      <path d="m 29.012,10.842 -4.307,6.66 4.12,4.12 a 13.997,13.997 0 0 0 0.187,-10.78 z" fill="url(#d)" fill-rule="evenodd" opacity="0.2" id="path25" style="fill:url(#d)"/>
      <path d="M 16,2 A 14,14 0 0 0 2.941,11 H 3 l 3,-1 1,1 1,1 V 10 L 10,9 V 8 L 12,7 14,5 V 6 L 15,5 14,4 h 2 V 5 L 18,4 17,3 V 2.05 A 14,14 0 0 0 16,2 Z M 26.375,6.625 26,7 v 1 h 1.469 A 14,14 0 0 0 26.375,6.625 Z M 27.691,8.309 27,9 l -2,2 -1,1 -1,3 v 1 l 1,1 1,1 2,1 2.791,-0.688 A 14,14 0 0 0 30,16 14,14 0 0 0 27.691,8.309 Z M 4,13 3,14 H 2.162 c -0.05,0.34 -0.088,0.681 -0.113,1.023 v 0.002 L 4,16 l 1,1 2,1 1,1 -1,1 v 2 l 1,2 2,2 v 2.629 A 14,14 0 0 0 16,30 c 0.17,-0.003 0.34,-0.009 0.51,-0.018 L 17,29 v -1 l 2,-1 1,-1 v -2 l 1,-1 V 22 L 20,21 17,20 16,19 15,18 H 14 L 13,17 10,16 8,17 H 6 V 15 H 5 v -2 z" fill="url(#e)" id="path27" style="fill:url(#e)"/>
      <path d="M 16.1,9 15,10 v 2 h -2 l -1,1 -1,1 v 6 l 9.318,9.318 a 13.96,13.96 0 0 0 8.83,-8.53 l -8.548,-8.59 -0.692,0.63 z" fill="url(#f)" fill-rule="evenodd" opacity="0.2" id="path29" style="fill:url(#f)"/>
      <path d="m 16,9 a 2,2 0 0 0 -2,2 2,2 0 0 0 0.031,0.338 A 6,6 0 0 0 10,17 6,6 0 0 0 16,23 6,6 0 0 0 22,17 6,6 0 0 0 20.865,13.498 1,1 0 0 0 21,13 1,1 0 0 0 20,12 1,1 0 0 0 19.5,12.135 6,6 0 0 0 17.97,11.34 2,2 0 0 0 18,11 2,2 0 0 0 16,9 Z m 0,1 a 1,1 0 0 1 1,1 1,1 0 0 1 -0.006,0.084 A 6,6 0 0 0 16,11 6,6 0 0 0 15.004,11.09 1,1 0 0 1 15,11 1,1 0 0 1 16,10 Z m 0,2 a 5,5 0 0 1 0.441,0.021 5,5 0 0 1 0.059,0.004 5,5 0 0 1 0.13,0.02 5,5 0 0 1 0.32,0.05 5,5 0 0 1 0.134,0.03 5,5 0 0 1 0.37,0.096 5,5 0 0 1 0.103,0.03 5,5 0 0 1 0.002,0 5,5 0 0 1 0.062,0.024 5,5 0 0 1 0.342,0.133 5,5 0 0 1 0.133,0.06 5,5 0 0 1 0.328,0.167 5,5 0 0 1 0.088,0.05 5,5 0 0 1 0.365,0.235 5,5 0 0 1 0.014,0.008 5,5 0 0 1 0.06,0.045 5,5 0 0 1 0.049,0.035 5,5 0 0 1 0.992,0.992 5,5 0 0 1 0.002,0.004 5,5 0 0 1 0.266,0.39 5,5 0 0 1 0.013,0.02 5,5 0 0 1 0.008,0.016 5,5 0 0 1 0.225,0.416 5,5 0 0 1 0.004,0.007 5,5 0 0 1 0.004,0.008 5,5 0 0 1 0.175,0.422 5,5 0 0 1 0.022,0.059 5,5 0 0 1 0.12,0.388 5,5 0 0 1 0.03,0.123 5,5 0 0 1 0.065,0.323 5,5 0 0 1 0.031,0.2 5,5 0 0 1 0.025,0.28 A 5,5 0 0 1 21,17 a 5,5 0 0 1 -0.021,0.441 5,5 0 0 1 -0.026,0.21 5,5 0 0 1 -0.043,0.275 5,5 0 0 1 -0.053,0.236 5,5 0 0 1 -0.06,0.242 5,5 0 0 1 -0.084,0.25 5,5 0 0 1 -0.08,0.221 5,5 0 0 1 -0.12,0.262 5,5 0 0 1 -0.085,0.177 5,5 0 0 1 -0.145,0.254 5,5 0 0 1 -0.115,0.188 5,5 0 0 1 -0.158,0.22 5,5 0 0 1 -0.137,0.18 5,5 0 0 1 -0.174,0.2 5,5 0 0 1 -0.166,0.177 5,5 0 0 1 -0.178,0.166 5,5 0 0 1 -0.199,0.174 5,5 0 0 1 -0.18,0.137 5,5 0 0 1 -0.22,0.158 5,5 0 0 1 -0.188,0.115 5,5 0 0 1 -0.254,0.145 5,5 0 0 1 -0.177,0.086 5,5 0 0 1 -0.262,0.119 5,5 0 0 1 -0.22,0.08 5,5 0 0 1 -0.25,0.084 5,5 0 0 1 -0.243,0.06 5,5 0 0 1 -0.236,0.053 5,5 0 0 1 -0.276,0.043 5,5 0 0 1 -0.209,0.026 A 5,5 0 0 1 16,22 a 5,5 0 0 1 -0.441,-0.021 5,5 0 0 1 -0.21,-0.026 5,5 0 0 1 -0.275,-0.043 5,5 0 0 1 -0.236,-0.053 5,5 0 0 1 -0.242,-0.06 5,5 0 0 1 -0.25,-0.084 5,5 0 0 1 -0.221,-0.08 5,5 0 0 1 -0.262,-0.12 5,5 0 0 1 -0.177,-0.085 5,5 0 0 1 -0.254,-0.145 5,5 0 0 1 -0.188,-0.115 5,5 0 0 1 -0.22,-0.158 5,5 0 0 1 -0.18,-0.137 5,5 0 0 1 -0.2,-0.174 5,5 0 0 1 -0.177,-0.166 5,5 0 0 1 -0.166,-0.178 5,5 0 0 1 -0.174,-0.199 5,5 0 0 1 -0.137,-0.18 5,5 0 0 1 -0.158,-0.22 5,5 0 0 1 -0.115,-0.188 5,5 0 0 1 -0.145,-0.254 5,5 0 0 1 -0.086,-0.177 5,5 0 0 1 -0.119,-0.262 5,5 0 0 1 -0.08,-0.22 5,5 0 0 1 -0.084,-0.25 5,5 0 0 1 -0.06,-0.243 A 5,5 0 0 1 11.09,17.926 5,5 0 0 1 11.047,17.65 5,5 0 0 1 11.021,17.441 5,5 0 0 1 11,17 a 5,5 0 0 1 0.021,-0.441 5,5 0 0 1 0.024,-0.19 5,5 0 0 1 0.05,-0.318 5,5 0 0 1 0.032,-0.145 5,5 0 0 1 0.088,-0.342 5,5 0 0 1 0.047,-0.142 5,5 0 0 1 0.117,-0.322 5,5 0 0 1 0.072,-0.16 5,5 0 0 1 0.145,-0.295 5,5 0 0 1 0.068,-0.122 5,5 0 0 1 0.195,-0.318 5,5 0 0 1 0.063,-0.086 5,5 0 0 1 0.246,-0.322 5,5 0 0 1 0.039,-0.045 5,5 0 0 1 0.314,-0.336 5,5 0 0 1 0.37,-0.324 5,5 0 0 1 0.023,-0.02 5,5 0 0 1 0.377,-0.267 5,5 0 0 1 0.041,-0.026 5,5 0 0 1 0.406,-0.232 5,5 0 0 1 0.455,-0.203 5,5 0 0 1 1.121,-0.291 5,5 0 0 1 0.026,-0.004 5,5 0 0 1 0.021,-0.002 5,5 0 0 1 0.371,-0.033 5,5 0 0 1 0.114,-0.008 A 5,5 0 0 1 16,12 Z m 0,1 v 3 a 1,1 0 0 1 1,1 h 3 a 4,4 0 0 0 -0.018,-0.338 4,4 0 0 0 -0.025,-0.21 4,4 0 0 0 -0.027,-0.186 4,4 0 0 0 -0.051,-0.223 4,4 0 0 0 -0.04,-0.154 4,4 0 0 0 -0.07,-0.215 4,4 0 0 0 -0.066,-0.18 4,4 0 0 0 -0.078,-0.174 4,4 0 0 0 -0.09,-0.185 4,4 0 0 0 -0.094,-0.164 4,4 0 0 0 -0.115,-0.188 4,4 0 0 0 -0.097,-0.135 4,4 0 0 0 -0.141,-0.185 4,4 0 0 0 -0.113,-0.129 4,4 0 0 0 -0.149,-0.16 4,4 0 0 0 -0.16,-0.149 4,4 0 0 0 -0.129,-0.113 4,4 0 0 0 -0.185,-0.14 4,4 0 0 0 -0.135,-0.098 4,4 0 0 0 -0.188,-0.115 4,4 0 0 0 -0.164,-0.094 4,4 0 0 0 -0.185,-0.09 4,4 0 0 0 -0.174,-0.078 4,4 0 0 0 -0.18,-0.067 4,4 0 0 0 -0.215,-0.07 4,4 0 0 0 -0.154,-0.039 4,4 0 0 0 -0.223,-0.05 A 4,4 0 0 0 16.549,13.043 4,4 0 0 0 16.338,13.018 4,4 0 0 0 16,13 Z" fill="url(#g)" id="path31" style="fill:url(#g)"/>
      <path d="M 29.979,15.414 A 14,14 0 0 1 16,29 14,14 0 0 1 2.021,15.586 14,14 0 0 0 2,16 14,14 0 0 0 16,30 14,14 0 0 0 30,16 14,14 0 0 0 29.979,15.414 Z" fill="#292c2f" opacity="0.3" id="path33"/>
    </g>
    <path style="display:inline;mix-blend-mode:normal;fill:url(#linearGradient3403);fill-opacity:1;stroke:url(#linearGradient20558);stroke-width:1.16242;stroke-linecap:butt;stroke-linejoin:round;stroke-miterlimit:4;stroke-dasharray:none;stroke-opacity:1;filter:url(#filter20720)" d="M 4.7043071,3.9814882 4.6913695,60.80196 H 58.59546 l 1.022155,-2.866369 c 0,0 -23.87537,0.766388 -32.844441,-4.140386 C 16.257548,48.042344 11.401114,4.0978197 11.401114,4.0978197 Z" id="path1686" sodipodi:nodetypes="ccccscc" transform="matrix(0.33414729,0,0,0.33414729,0.46503666,0.36255568)" inkscape:label="folder"/>
    <rect style="display:inline;fill:none;fill-opacity:1;stroke:url(#linearGradient4557);stroke-width:3.71366;stroke-linejoin:round;stroke-miterlimit:7.8;stroke-dasharray:none;stroke-opacity:0.995146;filter:url(#filter4601)" id="rect4539" width="62.567089" height="62.866646" x="1.0323594" y="0.59551275" ry="6.2447233" rx="5.8029528" transform="matrix(0.31302342,0,0,0.3123854,1.0264584,1.0377657)" inkscape:label="contour"/>
  </g>
</svg>
