<!-- Created with Inkscape (http://www.inkscape.org/) -->
<svg xmlns:inkscape="http://www.inkscape.org/namespaces/inkscape" xmlns:sodipodi="http://sodipodi.sourceforge.net/DTD/sodipodi-0.dtd" xmlns:xlink="http://www.w3.org/1999/xlink" xmlns="http://www.w3.org/2000/svg" xmlns:svg="http://www.w3.org/2000/svg" width="24" height="24" version="1.1" viewBox="0 0 24 24" id="svg22" sodipodi:docname="preferences-web-browser-stylesheets.svg" inkscape:version="1.1.2 (0a00cf5339, 2022-02-04)">
  <sodipodi:namedview id="namedview24" pagecolor="#ffffff" bordercolor="#666666" borderopacity="1.0" inkscape:showpageshadow="2" inkscape:pageopacity="0.0" inkscape:pagecheckerboard="0" inkscape:deskcolor="#d1d1d1" showgrid="false" inkscape:zoom="18.116076" inkscape:cx="-2.6495804" inkscape:cy="19.264658" inkscape:window-width="3440" inkscape:window-height="1356" inkscape:window-x="0" inkscape:window-y="0" inkscape:window-maximized="1" inkscape:current-layer="svg22" inkscape:pageshadow="2"/>
  <defs id="defs12">
    <linearGradient inkscape:collect="always" id="linearGradient917">
      <stop style="stop-color:#000000;stop-opacity:0.99607843" offset="0" id="stop913"/>
      <stop style="stop-color:#353a3f;stop-opacity:0.99607843" offset="1" id="stop915"/>
    </linearGradient>
    <linearGradient id="linearGradient1005-3-3" x1="5.2535" x2="9.3823996" y1="15.383" y2="2.9421" gradientTransform="matrix(0.99999,0,0,0.99999,1.632,-0.61743)" gradientUnits="userSpaceOnUse">
      <stop stop-color="#fa8200" offset="0" id="stop2"/>
      <stop stop-color="#ff9600" offset=".36953" id="stop4"/>
      <stop stop-color="#ffb400" offset="1" id="stop6"/>
    </linearGradient>
    <filter id="filter4014" x="-0.062499933" y="-0.057692993" width="1.1249999" height="1.115386" color-interpolation-filters="sRGB">
      <feGaussianBlur stdDeviation="1.093751" id="feGaussianBlur9"/>
    </filter>
    <linearGradient inkscape:collect="always" xlink:href="#linearGradient3487" id="linearGradient3403" gradientUnits="userSpaceOnUse" x1="6.9491749" y1="4.5549412" x2="11.215498" y2="59.052471"/>
    <linearGradient id="linearGradient3487">
      <stop style="stop-color:#32373c;stop-opacity:1" offset="0" id="stop3481"/>
      <stop id="stop3483" offset="0.36804965" style="stop-color:#1a1a1a;stop-opacity:1"/>
      <stop style="stop-color:#31363b;stop-opacity:1" offset="1" id="stop3485"/>
    </linearGradient>
    <linearGradient inkscape:collect="always" xlink:href="#linearGradient20604" id="linearGradient20558" gradientUnits="userSpaceOnUse" x1="25.802212" y1="20.373846" x2="25.111048" y2="58.912758"/>
    <linearGradient id="linearGradient20604">
      <stop id="stop20598" offset="0" style="stop-color:#3d3d3d;stop-opacity:1"/>
      <stop style="stop-color:#000000;stop-opacity:1" offset="0.61772454" id="stop20600"/>
      <stop id="stop20602" offset="1" style="stop-color:#3d3d3d;stop-opacity:1"/>
    </linearGradient>
    <filter inkscape:collect="always" style="color-interpolation-filters:sRGB" id="filter20720" x="-0.017024755" y="-0.016457183" width="1.0340491" height="1.0329144">
      <feGaussianBlur inkscape:collect="always" stdDeviation="0.14745661" id="feGaussianBlur20722"/>
    </filter>
    <linearGradient gradientTransform="translate(0.36067797,-0.13016949)" xlink:href="#linearGradient4555" id="linearGradient4557" x1="43.499737" y1="64.011795" x2="44.141731" y2="0.30621234" gradientUnits="userSpaceOnUse"/>
    <linearGradient id="linearGradient4555">
      <stop style="stop-color:#141618;stop-opacity:1" offset="0" id="stop4551"/>
      <stop id="stop4559" offset="0.51820582" style="stop-color:#686868;stop-opacity:1"/>
      <stop style="stop-color:#31363b;stop-opacity:1" offset="1" id="stop4553"/>
    </linearGradient>
    <filter style="color-interpolation-filters:sRGB" id="filter4601" x="-0.030244762" width="1.0604895" y="-0.030100647" height="1.0602013">
      <feGaussianBlur stdDeviation="0.014790289" id="feGaussianBlur4603"/>
    </filter>
    <linearGradient inkscape:collect="always" xlink:href="#linearGradient917" id="linearGradient919" x1="7.400631" y1="41.743092" x2="33.063145" y2="7.1074457" gradientUnits="userSpaceOnUse" gradientTransform="matrix(0.44488636,0,0,0.44488636,0.42037005,0.35119815)"/>
    <linearGradient id="b" gradientUnits="userSpaceOnUse" x1="-27.898001" x2="-7.8979998" xlink:href="#a" y1="3.8310001" y2="23.830999"/>
    <linearGradient id="a">
      <stop offset="0" stop-color="#292c2f" id="stop2-8"/>
      <stop offset="1" stop-opacity="0" id="stop4-9"/>
    </linearGradient>
    <linearGradient id="c" gradientUnits="userSpaceOnUse" x1="-10.898" x2="-3.898" xlink:href="#a" y1="10.831" y2="17.830999"/>
    <linearGradient id="d" gradientUnits="userSpaceOnUse" x1="-31.898001" x2="-31.898001" y1="27.830999" y2="-0.169">
      <stop offset="0" stop-color="#a5a5a5" id="stop9"/>
      <stop offset="1" stop-color="#f5f2f5" id="stop11"/>
    </linearGradient>
    <linearGradient id="e" gradientUnits="userSpaceOnUse" x1="13" x2="27" xlink:href="#a" y1="10" y2="24"/>
    <linearGradient id="f" gradientUnits="userSpaceOnUse" x1="16" x2="16" y1="23" y2="9">
      <stop offset="0" stop-color="#ffd42a" id="stop15"/>
      <stop offset="1" stop-color="#ffdf62" id="stop17"/>
    </linearGradient>
  </defs>
  <g transform="translate(1,1)">
    <rect style="display:inline;fill:url(#linearGradient919);fill-opacity:1;fill-rule:evenodd;stroke:none;stroke-width:0.412775;stroke-linejoin:round;stroke-miterlimit:7.8" id="rect1192" width="18.722866" height="19.002035" x="1.8275057" y="1.6940831" ry="0" inkscape:label="arriere"/>
    <g id="g865" transform="matrix(0.67534141,0,0,0.67534141,0.93217523,-0.14155021)">
      <g transform="translate(33.898,2.17)" id="g28">
        <rect fill="#4f575f" height="28" rx="14" width="28" x="-31.898001" y="-0.169" id="rect20"/>
        <path d="m -15.304,0.079 -2.975,0.38 -4.135,2.388 -1.502,2.6 c 0,0 -1.973,1.39 -2.271,1.31 -2.517,-0.028 -3.87,0.666 -4.58,1.549 -0.301,0.703 -0.537,1.44 -0.72,2.197 -0.006,0.76 0.16,1.35 0.16,1.35 7.06,6.358 14.122,9.098 21.183,13.644 a 13.9,13.9 0 0 0 1.275,-0.96 l 0.069,-0.06 c 0.36,-0.307 0.703,-0.635 1.029,-0.978 0.072,-0.076 0.14,-0.155 0.21,-0.232 a 13.928,13.928 0 0 0 1.749,-2.375 l 0.055,-0.09 A 13.991,13.991 0 0 0 -3.933,14.52 L -3.931,14.5 V 14.499 L -5.755,6.86 a 13.95,13.95 0 0 0 -9.55,-6.783 z" fill="url(#b)" fill-rule="evenodd" opacity="0.2" id="path22" style="fill:url(#b)"/>
        <path d="m -4.886,8.673 -4.307,6.66 4.12,4.12 a 13.997,13.997 0 0 0 0.187,-10.78 z" fill="url(#c)" fill-rule="evenodd" opacity="0.2" id="path24" style="fill:url(#c)"/>
        <path d="m -17.898,-0.17 a 14,14 0 0 0 -13.06,9 h 0.06 l 3,-1 1,1 1,1 v -2 l 2,-1 v -1 l 2,-1 2,-2 v 1 l 1,-1 -1,-1 h 2 v 1 l 2,-1 -1,-1 v -0.95 a 14,14 0 0 0 -1,-0.05 z m 10.375,4.626 -0.375,0.375 v 1 h 1.469 A 14,14 0 0 0 -7.523,4.456 Z m 1.316,1.684 -0.691,0.69 -2,2 -1,1 -1,3 v 1 l 1,1 1,1 2,1 2.79,-0.687 a 14,14 0 0 0 0.21,-2.312 14,14 0 0 0 -2.31,-7.691 z m -23.691,4.69 -1,1 h -0.838 c -0.05,0.34 -0.088,0.682 -0.113,1.024 v 0.002 l 1.95,0.975 1,1 2,1 1,1 -1,1 v 2 l 1,2 2,2 v 2.629 a 14,14 0 0 0 6,1.37 c 0.17,-0.002 0.34,-0.008 0.51,-0.017 l 0.49,-0.982 v -1 l 2,-1 1,-1 v -2 l 1,-1 v -1 l -1,-1 -3,-1 -1,-1 -1,-1 h -1 l -1,-1 -3,-1 -2,1 h -2 v -2 h -1 v -2 z" fill="url(#d)" id="path26" style="fill:url(#d)"/>
      </g>
      <path d="m 15,9 -1,1 -1,1 v 4 l -1,1 1,1 v 5 l 7.318,7.318 a 13.965,13.965 0 0 0 8.116,-6.884 z m 2,0 v 1 l 11.758,11.758 c 0.215,-0.477 0.41,-0.965 0.572,-1.469 L 19.2,10 Z" fill="url(#e)" fill-rule="evenodd" opacity="0.2" id="path30" style="fill:url(#e)"/>
      <path d="m 15.045,9 c -1.777,0 -2.522,0.706 -2.522,2.51 v 1.441 c 0,1.114 -0.034,2.404 -1.015,2.404 H 11 v 1.29 h 0.508 c 0.981,0 1.015,1.29 1.015,2.404 v 1.441 c 0,1.804 0.745,2.51 2.522,2.51 v -1.184 c -1.185,0 -1.201,-0.478 -1.201,-2.21 V 18.59 c 0,-0.831 -0.205,-2.068 -1.203,-2.58 0.998,-0.513 1.203,-1.751 1.203,-2.582 v -1.034 c 0,-1.732 0.016,-2.21 1.2,-2.21 z m 1.894,0 v 1.184 c 1.185,0 1.217,0.478 1.217,2.21 v 1.034 c 0,0.83 0.205,2.07 1.203,2.582 -0.998,0.512 -1.203,1.749 -1.203,2.58 v 1.016 c 0,1.732 -0.032,2.21 -1.217,2.21 V 23 c 1.777,0 2.538,-0.706 2.538,-2.51 v -1.44 c 0,-1.114 0.068,-2.404 1.033,-2.404 H 21 v -1.29 h -0.49 c -0.965,0 -1.033,-1.29 -1.033,-2.404 V 11.51 C 19.477,9.706 18.717,9 16.939,9 Z" fill="url(#f)" id="path32" style="fill:url(#f)"/>
      <path d="M 29.979,15.414 A 14,14 0 0 1 16,29 14,14 0 0 1 2.021,15.586 14,14 0 0 0 2,16 14,14 0 0 0 16,30 14,14 0 0 0 30,16 14,14 0 0 0 29.979,15.414 Z" fill="#292c2f" opacity="0.3" id="path34"/>
    </g>
    <path style="display:inline;mix-blend-mode:normal;fill:url(#linearGradient3403);fill-opacity:1;stroke:url(#linearGradient20558);stroke-width:1.16242;stroke-linecap:butt;stroke-linejoin:round;stroke-miterlimit:4;stroke-dasharray:none;stroke-opacity:1;filter:url(#filter20720)" d="M 4.7043071,3.9814882 4.6913695,60.80196 H 58.59546 l 1.022155,-2.866369 c 0,0 -23.87537,0.766388 -32.844441,-4.140386 C 16.257548,48.042344 11.401114,4.0978197 11.401114,4.0978197 Z" id="path1686" sodipodi:nodetypes="ccccscc" transform="matrix(0.33450102,0,0,0.33450102,0.4647273,0.36226974)" inkscape:label="folder"/>
    <rect style="display:inline;fill:none;fill-opacity:1;stroke:url(#linearGradient4557);stroke-width:3.71366;stroke-linejoin:round;stroke-miterlimit:7.8;stroke-dasharray:none;stroke-opacity:0.995146;filter:url(#filter4601)" id="rect4539" width="62.567089" height="62.866646" x="1.0323594" y="0.59551275" ry="6.2447233" rx="5.8029528" transform="matrix(0.31335479,0,0,0.3127161,1.0267434,1.0381945)" inkscape:label="contour"/>
  </g>
</svg>
