<!-- Created with Inkscape (http://www.inkscape.org/) -->
<svg xmlns:inkscape="http://www.inkscape.org/namespaces/inkscape" xmlns:sodipodi="http://sodipodi.sourceforge.net/DTD/sodipodi-0.dtd" xmlns:xlink="http://www.w3.org/1999/xlink" xmlns="http://www.w3.org/2000/svg" xmlns:svg="http://www.w3.org/2000/svg" width="24" height="24" version="1.1" viewBox="0 0 24 24" id="svg22" sodipodi:docname="preferences-system-startup.svg" inkscape:version="1.1.2 (0a00cf5339, 2022-02-04)">
  <sodipodi:namedview id="namedview24" pagecolor="#ffffff" bordercolor="#666666" borderopacity="1.0" inkscape:showpageshadow="2" inkscape:pageopacity="0.0" inkscape:pagecheckerboard="0" inkscape:deskcolor="#d1d1d1" showgrid="false" inkscape:zoom="18.116076" inkscape:cx="-1.1591914" inkscape:cy="15.069489" inkscape:window-width="3440" inkscape:window-height="1356" inkscape:window-x="0" inkscape:window-y="0" inkscape:window-maximized="1" inkscape:current-layer="svg22" inkscape:pageshadow="2"/>
  <defs id="defs12">
    <linearGradient inkscape:collect="always" id="linearGradient917">
      <stop style="stop-color:#000000;stop-opacity:0.99607843" offset="0" id="stop913"/>
      <stop style="stop-color:#353a3f;stop-opacity:0.99607843" offset="1" id="stop915"/>
    </linearGradient>
    <linearGradient id="linearGradient1005-3-3" x1="5.2535" x2="9.3823996" y1="15.383" y2="2.9421" gradientTransform="matrix(0.99999,0,0,0.99999,1.632,-0.61743)" gradientUnits="userSpaceOnUse">
      <stop stop-color="#fa8200" offset="0" id="stop2"/>
      <stop stop-color="#ff9600" offset=".36953" id="stop4"/>
      <stop stop-color="#ffb400" offset="1" id="stop6"/>
    </linearGradient>
    <filter id="filter4014" x="-0.062499933" y="-0.057692993" width="1.1249999" height="1.115386" color-interpolation-filters="sRGB">
      <feGaussianBlur stdDeviation="1.093751" id="feGaussianBlur9"/>
    </filter>
    <linearGradient inkscape:collect="always" xlink:href="#linearGradient3487" id="linearGradient3403" gradientUnits="userSpaceOnUse" x1="6.9491749" y1="4.5549412" x2="11.215498" y2="59.052471"/>
    <linearGradient id="linearGradient3487">
      <stop style="stop-color:#32373c;stop-opacity:1" offset="0" id="stop3481"/>
      <stop id="stop3483" offset="0.36804965" style="stop-color:#1a1a1a;stop-opacity:1"/>
      <stop style="stop-color:#31363b;stop-opacity:1" offset="1" id="stop3485"/>
    </linearGradient>
    <linearGradient inkscape:collect="always" xlink:href="#linearGradient20604" id="linearGradient20558" gradientUnits="userSpaceOnUse" x1="25.802212" y1="20.373846" x2="25.111048" y2="58.912758"/>
    <linearGradient id="linearGradient20604">
      <stop id="stop20598" offset="0" style="stop-color:#3d3d3d;stop-opacity:1"/>
      <stop style="stop-color:#000000;stop-opacity:1" offset="0.61772454" id="stop20600"/>
      <stop id="stop20602" offset="1" style="stop-color:#3d3d3d;stop-opacity:1"/>
    </linearGradient>
    <filter inkscape:collect="always" style="color-interpolation-filters:sRGB" id="filter20720" x="-0.017024755" y="-0.016457183" width="1.0340491" height="1.0329144">
      <feGaussianBlur inkscape:collect="always" stdDeviation="0.14745661" id="feGaussianBlur20722"/>
    </filter>
    <linearGradient gradientTransform="translate(0.36067797,-0.13016949)" xlink:href="#linearGradient4555" id="linearGradient4557" x1="43.499737" y1="64.011795" x2="44.141731" y2="0.30621234" gradientUnits="userSpaceOnUse"/>
    <linearGradient id="linearGradient4555">
      <stop style="stop-color:#141618;stop-opacity:1" offset="0" id="stop4551"/>
      <stop id="stop4559" offset="0.51820582" style="stop-color:#686868;stop-opacity:1"/>
      <stop style="stop-color:#31363b;stop-opacity:1" offset="1" id="stop4553"/>
    </linearGradient>
    <filter style="color-interpolation-filters:sRGB" id="filter4601" x="-0.030244762" width="1.0604895" y="-0.030100647" height="1.0602013">
      <feGaussianBlur stdDeviation="0.014790289" id="feGaussianBlur4603"/>
    </filter>
    <linearGradient inkscape:collect="always" xlink:href="#linearGradient917" id="linearGradient919" x1="7.400631" y1="41.743092" x2="33.063145" y2="7.1074457" gradientUnits="userSpaceOnUse" gradientTransform="matrix(0.44193225,0,0,0.44193225,0.42260711,0.35306709)"/>
    <linearGradient id="c" gradientTransform="matrix(1,0,0,1.21053,-3,-111.432)" gradientUnits="userSpaceOnUse" x1="403.57101" x2="403.57101" y1="538.79797" y2="519.79797">
      <stop offset="0" stop-color="#2a2c2f" id="stop7"/>
      <stop offset="1" stop-color="#424649" id="stop9"/>
    </linearGradient>
    <linearGradient id="d" gradientUnits="userSpaceOnUse" x1="400.57101" x2="400.57101" xlink:href="#a" y1="544.79797" y2="540.79797"/>
    <linearGradient id="a">
      <stop offset="0" stop-color="#c6cdd1" id="stop2-0"/>
      <stop offset="1" stop-color="#e0e5e7" id="stop4-5"/>
    </linearGradient>
    <linearGradient id="e" gradientTransform="matrix(1.25,0,0,1.13333,-484.714,-587.238)" gradientUnits="userSpaceOnUse" x1="400.57101" x2="400.57101" y1="535.79797" y2="520.79797">
      <stop offset="0" stop-color="#232629" id="stop13"/>
      <stop offset="1" stop-color="#292c30" id="stop15"/>
    </linearGradient>
    <linearGradient id="f" gradientUnits="userSpaceOnUse" x1="390.57101" x2="397.07101" xlink:href="#b" y1="520.79797" y2="527.29797"/>
    <linearGradient id="b">
      <stop offset="0" id="stop19"/>
      <stop offset="1" stop-opacity="0" id="stop21"/>
    </linearGradient>
    <linearGradient id="g" gradientUnits="userSpaceOnUse" x1="390.57101" x2="397.07101" xlink:href="#b" y1="532.79797" y2="539.29797"/>
    <linearGradient id="h" gradientUnits="userSpaceOnUse" x1="390.57101" x2="396.02499" xlink:href="#b" y1="522.79797" y2="528.25098"/>
    <linearGradient id="i" gradientUnits="userSpaceOnUse" x1="390.57101" x2="396.02499" xlink:href="#b" y1="526.79797" y2="532.25098"/>
    <linearGradient id="j" gradientUnits="userSpaceOnUse" x1="390.57101" x2="396.02499" xlink:href="#b" y1="528.79797" y2="534.25098"/>
    <linearGradient id="k" gradientUnits="userSpaceOnUse" x1="390.57101" x2="395.07101" xlink:href="#b" y1="524.79797" y2="529.29797"/>
    <linearGradient id="l" gradientUnits="userSpaceOnUse" x1="390.57101" x2="395.07101" xlink:href="#b" y1="530.79797" y2="535.29797"/>
    <linearGradient id="m" gradientUnits="userSpaceOnUse" x1="390.57101" x2="395.07101" xlink:href="#b" y1="534.79797" y2="539.29797"/>
    <linearGradient id="n" gradientUnits="userSpaceOnUse" x1="389.57101" x2="389.57101" xlink:href="#a" y1="534.79797" y2="519.79797"/>
    <linearGradient id="o" gradientUnits="userSpaceOnUse" x1="386.57101" x2="389.57101" xlink:href="#b" y1="520.79797" y2="523.79797"/>
    <linearGradient id="p" gradientUnits="userSpaceOnUse" x1="386.57101" x2="389.57101" xlink:href="#b" y1="522.79797" y2="525.79797"/>
    <linearGradient id="q" gradientUnits="userSpaceOnUse" x1="386.57101" x2="389.57101" xlink:href="#b" y1="524.79797" y2="527.79797"/>
    <linearGradient id="r" gradientUnits="userSpaceOnUse" x1="386.57101" x2="389.57101" xlink:href="#b" y1="526.79797" y2="529.79797"/>
    <linearGradient id="s" gradientUnits="userSpaceOnUse" x1="386.57101" x2="389.57101" xlink:href="#b" y1="528.79797" y2="531.79797"/>
    <linearGradient id="t" gradientUnits="userSpaceOnUse" x1="386.57101" x2="389.57101" xlink:href="#b" y1="530.79797" y2="533.79797"/>
    <linearGradient id="u" gradientUnits="userSpaceOnUse" x1="386.57101" x2="389.57101" xlink:href="#b" y1="532.79797" y2="535.79797"/>
    <linearGradient id="v" gradientUnits="userSpaceOnUse" x1="386.57101" x2="389.57101" xlink:href="#b" y1="534.79797" y2="537.79797"/>
  </defs>
  <g transform="translate(1,1)">
    <rect style="display:inline;fill:url(#linearGradient919);fill-opacity:1;fill-rule:evenodd;stroke:none;stroke-width:0.410034;stroke-linejoin:round;stroke-miterlimit:7.8" id="rect1192" width="18.598543" height="18.875858" x="1.8203992" y="1.6870351" ry="0" inkscape:label="arriere"/>
    <g id="g930" transform="matrix(0.56804931,0,0,0.62575242,2.2413638,0.43553026)">
      <path d="m 384.571,517.798 h 32 v 23 h -32 z" fill="url(#c)" transform="translate(-384.571,-515.798)" id="path40" style="fill:url(#c)"/>
      <path d="m 1,20 h 30 v 1 H 1 Z" fill="#333639" id="path42"/>
      <path d="m 397.571,540.798 h 6 v 4 h -6 z" fill="url(#d)" transform="translate(-384.571,-515.798)" id="path44" style="fill:url(#d)"/>
      <path d="m 10,29 h 12 v 1 H 10 Z" fill="#9eaab6" id="path46"/>
      <path d="M 1,3 H 31 V 20 H 1 Z" fill="url(#e)" id="path48" style="fill:url(#e)"/>
      <path d="m 390.571,520.798 1,1 h 7 l 2,2 2,-2 -2,-2 z" fill="url(#f)" opacity="0.2" transform="translate(-384.571,-515.798)" id="path50" style="fill:url(#f)"/>
      <path d="m 390.571,532.798 1,1 h 5 l 3,3 3,-3 -2,-2 z" fill="url(#g)" opacity="0.2" transform="translate(-384.571,-515.798)" id="path52" style="fill:url(#g)"/>
      <path d="m 390.571,522.798 1,1 h 5 l 2,2 2,-2 -2,-2 z" fill="url(#h)" opacity="0.2" transform="translate(-384.571,-515.798)" id="path54" style="fill:url(#h)"/>
      <path d="m 390.571,526.798 1,1 h 7 l 1,1 1,-1 -2,-2 z" fill="url(#i)" opacity="0.2" transform="translate(-384.571,-515.798)" id="path56" style="fill:url(#i)"/>
      <path d="m 390.571,528.798 1,1 h 5 l 2,2 2,-2 -2,-2 z" fill="url(#j)" opacity="0.2" transform="translate(-384.571,-515.798)" id="path58" style="fill:url(#j)"/>
      <path d="m 390.571,524.798 1,1 h 7 l -2,-2 z" fill="url(#k)" opacity="0.2" transform="translate(-384.571,-515.798)" id="path60" style="fill:url(#k)"/>
      <path d="m 390.571,530.798 1,1 h 7 l -2,-2 z" fill="url(#l)" opacity="0.2" transform="translate(-384.571,-515.798)" id="path62" style="fill:url(#l)"/>
      <path d="m 390.571,534.798 2,2 h 5 l 1,-1 -2,-2 z" fill="url(#m)" opacity="0.2" transform="translate(-384.571,-515.798)" id="path64" style="fill:url(#m)"/>
      <path d="m 389.571,519.798 h 5 v 1 h -5 z m 0,6 h 4 v 1 h -4 z m 0,2 h 4 v 1 h -4 z m 0,2 h 3 v 1 h -3 z m 0,-8 h 4 v 1 h -4 z m 0,2 h 3 v 1 h -3 z m 0,8 h 5 v 1 h -5 z m 0,2 h 3 v 1 h -3 z" fill="url(#n)" transform="matrix(2,0,0,1,-773.143,-515.798)" id="path66" style="fill:url(#n)"/>
      <path d="m 386.571,520.798 1,1 h 2 l 1,1 1,-1 -2,-2 z" fill="url(#o)" opacity="0.2" transform="translate(-384.571,-515.798)" id="path68" style="fill:url(#o)"/>
      <path d="m 386.571,522.798 1,1 h 2 l 1,1 1,-1 -2,-2 z" fill="url(#p)" opacity="0.2" transform="translate(-384.571,-515.798)" id="path70" style="fill:url(#p)"/>
      <path d="m 386.571,524.798 1,1 h 2 l 1,1 1,-1 -2,-2 z" fill="url(#q)" opacity="0.2" transform="translate(-384.571,-515.798)" id="path72" style="fill:url(#q)"/>
      <path d="m 386.571,526.798 1,1 h 2 l 1,1 1,-1 -2,-2 z" fill="url(#r)" opacity="0.2" transform="translate(-384.571,-515.798)" id="path74" style="fill:url(#r)"/>
      <path d="m 386.571,528.798 1,1 h 2 l 1,1 1,-1 -2,-2 z" fill="url(#s)" opacity="0.2" transform="translate(-384.571,-515.798)" id="path76" style="fill:url(#s)"/>
      <path d="m 386.571,530.798 1,1 h 2 l 1,1 1,-1 -2,-2 z" fill="url(#t)" opacity="0.2" transform="translate(-384.571,-515.798)" id="path78" style="fill:url(#t)"/>
      <path d="m 386.571,532.798 1,1 h 2 l 1,1 1,-1 -2,-2 z" fill="url(#u)" opacity="0.2" transform="translate(-384.571,-515.798)" id="path80" style="fill:url(#u)"/>
      <path d="m 386.571,534.798 1,1 1,1 h 2 l 1,-1 -2,-2 z" fill="url(#v)" opacity="0.2" transform="translate(-384.571,-515.798)" id="path82" style="fill:url(#v)"/>
      <path d="M 2,4 H 5 V 5 H 2 Z M 2,6 H 5 V 7 H 2 Z M 2,8 H 5 V 9 H 2 Z m 0,2 h 3 v 1 H 2 Z m 0,2 h 3 v 1 H 2 Z m 0,2 h 3 v 1 H 2 Z m 0,2 h 3 v 1 H 2 Z m 0,2 h 3 v 1 H 2 Z" fill="#11d116" id="path84"/>
    </g>
    <path style="display:inline;mix-blend-mode:normal;fill:url(#linearGradient3403);fill-opacity:1;stroke:url(#linearGradient20558);stroke-width:1.16242;stroke-linecap:butt;stroke-linejoin:round;stroke-miterlimit:4;stroke-dasharray:none;stroke-opacity:1;filter:url(#filter20720)" d="M 4.7043071,3.9814882 4.6913695,60.80196 H 58.59546 l 1.022155,-2.866369 c 0,0 -23.87537,0.766388 -32.844441,-4.140386 C 16.257548,48.042344 11.401114,4.0978197 11.401114,4.0978197 Z" id="path1686" sodipodi:nodetypes="ccccscc" transform="matrix(0.33227988,0,0,0.33227988,0.46666982,0.36406517)" inkscape:label="folder"/>
    <rect style="display:inline;fill:none;fill-opacity:1;stroke:url(#linearGradient4557);stroke-width:3.71366;stroke-linejoin:round;stroke-miterlimit:7.8;stroke-dasharray:none;stroke-opacity:0.995146;filter:url(#filter4601)" id="rect4539" width="62.567089" height="62.866646" x="1.0323594" y="0.59551275" ry="6.2447233" rx="5.8029528" transform="matrix(0.31127406,0,0,0.31063961,1.024954,1.0355017)" inkscape:label="contour"/>
  </g>
</svg>
