<!-- Created with Inkscape (http://www.inkscape.org/) -->
<svg xmlns:inkscape="http://www.inkscape.org/namespaces/inkscape" xmlns:sodipodi="http://sodipodi.sourceforge.net/DTD/sodipodi-0.dtd" xmlns:xlink="http://www.w3.org/1999/xlink" xmlns="http://www.w3.org/2000/svg" xmlns:svg="http://www.w3.org/2000/svg" width="24" height="24" version="1.1" viewBox="0 0 24 24" id="svg22" sodipodi:docname="preferences-desktop-emoticons.svg" inkscape:version="1.1.2 (0a00cf5339, 2022-02-04)">
  <sodipodi:namedview id="namedview24" pagecolor="#ffffff" bordercolor="#666666" borderopacity="1.0" inkscape:showpageshadow="2" inkscape:pageopacity="0.0" inkscape:pagecheckerboard="0" inkscape:deskcolor="#d1d1d1" showgrid="false" inkscape:zoom="15.78" inkscape:cx="-16.539924" inkscape:cy="24.493029" inkscape:window-width="3440" inkscape:window-height="1359" inkscape:window-x="0" inkscape:window-y="0" inkscape:window-maximized="1" inkscape:current-layer="svg22" inkscape:pageshadow="2"/>
  <defs id="defs12">
    <linearGradient id="linearGradient1005-3-3" x1="5.2535" x2="9.3823996" y1="15.383" y2="2.9421" gradientTransform="matrix(0.99999,0,0,0.99999,1.632,-0.61743)" gradientUnits="userSpaceOnUse">
      <stop stop-color="#fa8200" offset="0" id="stop2"/>
      <stop stop-color="#ff9600" offset=".36953" id="stop4"/>
      <stop stop-color="#ffb400" offset="1" id="stop6"/>
    </linearGradient>
    <filter id="filter4014" x="-0.062499933" y="-0.057692993" width="1.1249999" height="1.115386" color-interpolation-filters="sRGB">
      <feGaussianBlur stdDeviation="1.093751" id="feGaussianBlur9"/>
    </filter>
    <linearGradient inkscape:collect="always" xlink:href="#linearGradient3487" id="linearGradient3403" gradientUnits="userSpaceOnUse" x1="6.9491749" y1="4.5549412" x2="11.215498" y2="59.052471"/>
    <linearGradient id="linearGradient3487">
      <stop style="stop-color:#32373c;stop-opacity:1" offset="0" id="stop3481"/>
      <stop id="stop3483" offset="0.36804965" style="stop-color:#1a1a1a;stop-opacity:1"/>
      <stop style="stop-color:#31363b;stop-opacity:1" offset="1" id="stop3485"/>
    </linearGradient>
    <linearGradient inkscape:collect="always" xlink:href="#linearGradient20604" id="linearGradient20558" gradientUnits="userSpaceOnUse" x1="25.802212" y1="20.373846" x2="25.111048" y2="58.912758"/>
    <linearGradient id="linearGradient20604">
      <stop id="stop20598" offset="0" style="stop-color:#3d3d3d;stop-opacity:1"/>
      <stop style="stop-color:#000000;stop-opacity:1" offset="0.61772454" id="stop20600"/>
      <stop id="stop20602" offset="1" style="stop-color:#3d3d3d;stop-opacity:1"/>
    </linearGradient>
    <filter inkscape:collect="always" style="color-interpolation-filters:sRGB" id="filter20720" x="-0.017024755" y="-0.016457183" width="1.0340491" height="1.0329144">
      <feGaussianBlur inkscape:collect="always" stdDeviation="0.14745661" id="feGaussianBlur20722"/>
    </filter>
    <linearGradient gradientTransform="translate(0.36067797,-0.13016949)" xlink:href="#linearGradient4555" id="linearGradient4557" x1="43.499737" y1="64.011795" x2="44.141731" y2="0.30621234" gradientUnits="userSpaceOnUse"/>
    <linearGradient id="linearGradient4555">
      <stop style="stop-color:#141618;stop-opacity:1" offset="0" id="stop4551"/>
      <stop id="stop4559" offset="0.51820582" style="stop-color:#686868;stop-opacity:1"/>
      <stop style="stop-color:#31363b;stop-opacity:1" offset="1" id="stop4553"/>
    </linearGradient>
    <filter style="color-interpolation-filters:sRGB" id="filter4601" x="-0.030244762" width="1.0604895" y="-0.030100647" height="1.0602013">
      <feGaussianBlur stdDeviation="0.014790289" id="feGaussianBlur4603"/>
    </filter>
  </defs>
  <g transform="translate(1,1)">
    <rect style="fill:#fecd38;fill-opacity:1;fill-rule:evenodd;stroke-width:0.0791792;stroke-linejoin:round;paint-order:markers fill stroke" id="rect1420" width="17.319294" height="18.311319" x="3.179852" y="1.5201917" rx="0.042965241" ry="18.311319"/>
    <path style="display:inline;mix-blend-mode:normal;fill:url(#linearGradient3403);fill-opacity:1;stroke:url(#linearGradient20558);stroke-width:1.16242;stroke-linecap:butt;stroke-linejoin:round;stroke-miterlimit:4;stroke-dasharray:none;stroke-opacity:1;filter:url(#filter20720)" d="M 4.7043071,3.9814882 4.6913695,60.80196 H 58.59546 l 1.022155,-2.866369 c 0,0 -23.87537,0.766388 -32.844441,-4.140386 C 16.257548,48.042344 11.401114,4.0978197 11.401114,4.0978197 Z" id="path1686" sodipodi:nodetypes="ccccscc" transform="matrix(0.33607167,0,0,0.33607167,0.46335367,0.36100011)" inkscape:label="folder"/>
    <rect style="display:inline;fill:none;fill-opacity:1;stroke:url(#linearGradient4557);stroke-width:3.71366;stroke-linejoin:round;stroke-miterlimit:7.8;stroke-dasharray:none;stroke-opacity:0.995146;filter:url(#filter4601)" id="rect4539" width="62.567089" height="62.866646" x="1.0323594" y="0.59551275" ry="6.2447233" rx="5.8029528" transform="matrix(0.31482615,0,0,0.31418447,1.0280087,1.0400987)" inkscape:label="contour"/>
    <g id="g923" transform="matrix(0.44697534,0,0,0.44697534,-27.497516,0.7195759)">
      <path fill="#ffffff" opacity="0.2" d="m 81.010469,10.103779 a 4.316674,4.3168179 0 0 0 -4.316674,4.316674 4.316674,4.3168179 0 0 0 4.316674,4.316674 4.316674,4.3168179 0 0 0 4.316674,-4.316674 4.316674,4.3168179 0 0 0 -4.316674,-4.316674 z m 20.144471,0 a 4.316674,4.316674 0 0 0 -4.316667,4.316674 4.316674,4.316674 0 0 0 4.316667,4.316674 4.316674,4.316674 0 0 0 4.31668,-4.316674 4.316674,4.316674 0 0 0 -4.31668,-4.316674 z m -21.583363,21.58337 a 13.310177,14.388913 0 0 0 11.516887,7.194457 13.310177,14.388913 0 0 0 11.505366,-7.194457 h -1.61587 a 13.310177,14.388913 0 0 1 -9.889496,4.797264 13.310177,14.388913 0 0 1 -9.895256,-4.797264 z" id="path4-6" style="stroke-width:1.43889"/>
      <circle fill="#3f3f3f" cx="81.010475" cy="12.981561" id="ellipse8" r="4.3166742" style="stroke-width:1.43889"/>
      <circle fill="#3f3f3f" cx="101.15495" cy="12.981561" r="4.3166742" id="circle10" style="stroke-width:1.43889"/>
      <path fill="#3f3f3f" d="m 79.571577,30.248258 a 13.310177,14.388913 0 0 0 11.516311,7.194457 13.310177,14.388913 0 0 0 11.505942,-7.194457 h -1.61688 a 13.310177,14.388913 0 0 1 -9.888055,4.795825 13.310177,14.388913 0 0 1 -9.895255,-4.795825 h -1.621631 z" id="path12-1" style="stroke-width:1.43889"/>
    </g>
  </g>
</svg>
