<svg width="24" height="24" version="1.1" viewBox="0 0 24 24" xmlns="http://www.w3.org/2000/svg" xmlns:xlink="http://www.w3.org/1999/xlink">
<defs>
<linearGradient id="linearGradient3403" x1="6.9492" x2="11.215" y1="4.5549" y2="59.052" gradientUnits="userSpaceOnUse">
<stop style="stop-color:#32373c" offset="0"/>
<stop style="stop-color:#1a1a1a" offset=".36805"/>
<stop style="stop-color:#31363b" offset="1"/>
</linearGradient>
<linearGradient id="linearGradient20558" x1="25.802" x2="25.111" y1="20.374" y2="58.913" gradientUnits="userSpaceOnUse">
<stop style="stop-color:#3d3d3d" offset="0"/>
<stop offset=".61772"/>
<stop style="stop-color:#3d3d3d" offset="1"/>
</linearGradient>
<linearGradient id="linearGradient4557" x1="43.5" x2="44.142" y1="64.012" y2=".30621" gradientTransform="translate(.36068 -.13017)" gradientUnits="userSpaceOnUse">
<stop style="stop-color:#141618" offset="0"/>
<stop style="stop-color:#686868" offset=".51821"/>
<stop style="stop-color:#31363b" offset="1"/>
</linearGradient>
<linearGradient id="c" x1="32" x2="32" y1="30" y2="2" gradientUnits="userSpaceOnUse">
<stop stop-color="#171d25" offset="0"/>
<stop stop-color="#303236" offset="1"/>
</linearGradient>
<linearGradient id="d" x1="8" x2="16" y1="9" y2="17" gradientUnits="userSpaceOnUse" xlink:href="#a"/>
<linearGradient id="a">
<stop offset="0"/>
<stop stop-opacity="0" offset="1"/>
</linearGradient>
<linearGradient id="e" x1="8" x2="15" y1="23" y2="30" gradientUnits="userSpaceOnUse" xlink:href="#a"/>
<linearGradient id="f" x1="24" x2="32" y1="9" y2="17" gradientUnits="userSpaceOnUse" xlink:href="#a"/>
<linearGradient id="g" x1="24" x2="31" y1="23" y2="30" gradientUnits="userSpaceOnUse" xlink:href="#a"/>
<linearGradient id="h" x1="8" x2="12" y1="9" y2="13" gradientUnits="userSpaceOnUse" xlink:href="#b"/>
<linearGradient id="b">
<stop stop-color="#292c2f" offset="0"/>
<stop stop-opacity="0" offset="1"/>
</linearGradient>
<linearGradient id="i" x1="24" x2="28" y1="23" y2="27" gradientUnits="userSpaceOnUse" xlink:href="#b"/>
</defs>
<g transform="translate(1,1)">
<g transform="matrix(.57669 0 0 .63918 1.9709 .33842)">
<path d="m0 2h32v28h-32z" fill="url(#c)" fill-rule="evenodd" style="fill:url(#c)"/>
<path d="m1 15 2 2h12l2 2 2-2-2-2v-10l-2-2z" fill="url(#d)" opacity=".2" style="fill:url(#d)"/>
<path d="m1 29 1 1h16l-1-1v-10l-2-2z" fill="url(#e)" opacity=".2" style="fill:url(#e)"/>
<path d="m17 15 2 2h12l1 1v-14l-1-1z" fill="url(#f)" opacity=".2" style="fill:url(#f)"/>
<path d="m17 29 1 1h14v-12l-1-1z" fill="url(#g)" opacity=".2" style="fill:url(#g)"/>
<path d="m1 3h14v12h-14z" fill="#397da1" fill-rule="evenodd"/>
<path d="m1 17h14v12h-14zm16-14h14v12h-14zm0 14h14v12h-14z" fill="#4a4a4f" fill-rule="evenodd"/>
<path d="m4 12 3 3h8v-6l-3-3z" fill="url(#h)" opacity=".2" style="fill:url(#h)"/>
<path d="m4 6h8v6h-8z" fill="#67aace" fill-rule="evenodd"/>
<path d="m4 6v6h8v-6zm1 1h6v4h-6z" fill="#85c9ec" fill-rule="evenodd"/>
<path d="m20 26 3 3h8v-6l-3-3z" fill="url(#i)" opacity=".2" style="fill:url(#i)"/>
<path d="m20 20h8v6h-8z" fill="#636367"/>
<path d="m20 20v6h8v-6zm1 1h6v4h-6z" fill="#9a9b9d"/>
</g>
<path transform="matrix(.3318 0 0 .3318 .46709 .36445)" d="m4.7043 3.9815-0.012938 56.82h53.904l1.0222-2.8664s-23.875 0.76639-32.844-4.1404c-10.516-5.7529-15.372-49.697-15.372-49.697z" style="fill:url(#linearGradient3403);mix-blend-mode:normal;stroke-linejoin:round;stroke-width:1.1624;stroke:url(#linearGradient20558)"/>
<rect transform="matrix(.31083 0 0 .3102 1.0246 1.0349)" x="1.0324" y=".59551" width="62.567" height="62.867" rx="5.803" ry="6.2447" style="fill:none;stroke-linejoin:round;stroke-miterlimit:7.8;stroke-opacity:.99515;stroke-width:3.7137;stroke:url(#linearGradient4557)"/>
</g>
</svg>
