<svg width="24" height="24" version="1.1" viewBox="0 0 24 24" xmlns="http://www.w3.org/2000/svg" xmlns:xlink="http://www.w3.org/1999/xlink">
<defs>
<linearGradient id="linearGradient3403" x1="6.9492" x2="11.215" y1="4.5549" y2="59.052" gradientUnits="userSpaceOnUse">
<stop style="stop-color:#32373c" offset="0"/>
<stop style="stop-color:#1a1a1a" offset=".36805"/>
<stop style="stop-color:#31363b" offset="1"/>
</linearGradient>
<linearGradient id="linearGradient20558" x1="25.802" x2="25.111" y1="20.374" y2="58.913" gradientUnits="userSpaceOnUse">
<stop style="stop-color:#3d3d3d" offset="0"/>
<stop offset=".61772"/>
<stop style="stop-color:#3d3d3d" offset="1"/>
</linearGradient>
<linearGradient id="linearGradient4557" x1="43.5" x2="44.142" y1="64.012" y2=".30621" gradientTransform="translate(.36068 -.13017)" gradientUnits="userSpaceOnUse">
<stop style="stop-color:#141618" offset="0"/>
<stop style="stop-color:#686868" offset=".51821"/>
<stop style="stop-color:#31363b" offset="1"/>
</linearGradient>
<linearGradient id="linearGradient919" x1="7.4006" x2="33.063" y1="41.743" y2="7.1074" gradientTransform="matrix(.44101 0 0 .44101 .4233 .35365)" gradientUnits="userSpaceOnUse">
<stop style="stop-opacity:.99608" offset="0"/>
<stop style="stop-color:#353a3f;stop-opacity:.99608" offset="1"/>
</linearGradient>
<linearGradient id="linearGradient4314" x2="0" y1="543.8" y2="503.8" gradientTransform="matrix(.13389 0 0 .13389 341.1 -596.51)" gradientUnits="userSpaceOnUse">
<stop style="stop-color:#2a2c2f" offset="0"/>
<stop style="stop-color:#424649" offset="1"/>
</linearGradient>
<linearGradient id="linearGradient4917" x2="0" y1="524.8" y2="522.8" gradientTransform="matrix(.66946 0 0 .66946 122.28 175.71)" gradientUnits="userSpaceOnUse">
<stop style="stop-color:#989a9b" offset="0"/>
<stop style="stop-color:#f6f6f7" offset="1"/>
</linearGradient>
<linearGradient id="g" x1="8" x2="24" y1="24" y2="8" gradientTransform="matrix(1.3379 .35848 .35848 -1.3379 306.98 551.37)" gradientUnits="userSpaceOnUse" xlink:href="#f"/>
<linearGradient id="f">
<stop stop-color="#e51561" offset="0"/>
<stop stop-color="#e4156c" offset=".312"/>
<stop stop-color="#e71e2c" offset=".562"/>
<stop stop-color="#e8301e" offset=".75"/>
<stop stop-color="#e6320e" offset="1"/>
</linearGradient>
<linearGradient id="h" x1="8" x2="24" y1="24" y2="8" gradientTransform="matrix(-1.3379 -.35848 -.35848 1.3379 388.4 504.36)" gradientUnits="userSpaceOnUse" xlink:href="#b"/>
<linearGradient id="b">
<stop stop-color="#bec900" offset="0"/>
<stop stop-color="#9ec80a" offset=".312"/>
<stop stop-color="#71b93d" offset=".562"/>
<stop stop-color="#35a48f" offset=".75"/>
<stop stop-color="#018fca" offset="1"/>
</linearGradient>
<linearGradient id="i" x1="8" x2="24" y1="24" y2="8" gradientTransform="matrix(-1.3379 -.35848 .35848 -1.3379 371.19 568.57)" gradientUnits="userSpaceOnUse" xlink:href="#d"/>
<linearGradient id="d">
<stop stop-color="#c1cc00" offset="0"/>
<stop stop-color="#dfcd00" offset=".312"/>
<stop stop-color="#f0cc00" offset=".562"/>
<stop stop-color="#fd8c08" offset=".75"/>
<stop stop-color="#f25c13" offset="1"/>
</linearGradient>
<linearGradient id="j" x1="8" x2="24" y1="24" y2="8" gradientTransform="matrix(-.35848 -1.3379 -1.3379 .35848 388.4 551.37)" gradientUnits="userSpaceOnUse" xlink:href="#b"/>
<linearGradient id="k" x1="8" x2="24" y1="24" y2="8" gradientTransform="matrix(-.97939 -.97939 -.97939 .97939 394.7 527.86)" gradientUnits="userSpaceOnUse" xlink:href="#b"/>
<linearGradient id="l" x1="8" x2="24" y1="24" y2="8" gradientTransform="matrix(.35848 1.3379 -1.3379 .35848 371.19 487.15)" gradientUnits="userSpaceOnUse" xlink:href="#c"/>
<linearGradient id="c">
<stop stop-color="#e81877" offset="0"/>
<stop stop-color="#dd1d8c" offset=".312"/>
<stop stop-color="#6d57b1" offset=".562"/>
<stop stop-color="#2a78c1" offset=".75"/>
<stop stop-color="#018dcb" offset="1"/>
</linearGradient>
<linearGradient id="m" x1="8" x2="24" y1="24" y2="8" gradientTransform="matrix(1.3379 .35848 -.35848 1.3379 324.18 487.15)" gradientUnits="userSpaceOnUse" xlink:href="#c"/>
<linearGradient id="o" x1="8" x2="24" y1="24" y2="8" gradientTransform="matrix(.97939 .97939 .97939 -.97939 300.68 527.86)" gradientUnits="userSpaceOnUse" xlink:href="#f"/>
<linearGradient id="p" x1="8" x2="24" y1="24" y2="8" gradientTransform="matrix(-.97939 -.97939 .97939 -.97939 347.69 574.87)" gradientUnits="userSpaceOnUse" xlink:href="#d"/>
<linearGradient id="q" x1="8" x2="24" y1="24" y2="8" gradientTransform="matrix(-.35848 -1.3379 1.3379 -.35848 324.18 568.57)" gradientUnits="userSpaceOnUse" xlink:href="#d"/>
<linearGradient id="r" x1="8" x2="24" y1="24" y2="8" gradientTransform="matrix(.97939 .97939 -.97939 .97939 347.69 480.85)" gradientUnits="userSpaceOnUse" xlink:href="#c"/>
</defs>
<g transform="translate(1,1)">
<rect x="1.8182" y="1.6848" width="18.56" height="18.837" ry="0" style="fill-rule:evenodd;fill:url(#linearGradient919)"/>
<g transform="matrix(1.1271 0 0 1.1271 -434.01 -582.84)">
<g transform="matrix(.56848 0 0 .6914 198.1 160.31)">
<path d="m333.49 524.06v13.565a4.4398 4.4398 0 0 0 0.0222 0.44185 4.4398 4.4398 0 0 0 0.0666 0.44007 4.4398 4.4398 0 0 0 0.10913 0.42943 4.4398 4.4398 0 0 0 0.15083 0.41701 4.4398 4.4398 0 0 0 0.19165 0.39926 4.4398 4.4398 0 0 0 0.23245 0.37974 4.4398 4.4398 0 0 0 0.26884 0.35402 4.4398 4.4398 0 0 0 0.25464 0.27682 4.4274 4.4274 0 0 0 0.32828 0.29634 4.4274 4.4274 0 0 0 0.3549 0.26351 4.4274 4.4274 0 0 0 0.38152 0.22537 4.4274 4.4274 0 0 0 0.40104 0.18632 4.4274 4.4274 0 0 0 0.41789 0.14639 4.4274 4.4274 0 0 0 0.42943 0.10204 4.4274 4.4274 0 0 0 0.43919 0.0603 4.4274 4.4274 0 0 0 0.38773 0.016h5.9561l3.8036-14.196z" style="fill:url(#g);stroke-width:.88725"/>
<path d="m361.89 531.66v-10.014a4.4398 4.4398 0 0 0-0.0204-0.44362 4.4398 4.4398 0 0 0-0.0665-0.43831 4.4398 4.4398 0 0 0-0.10913-0.43031 4.4398 4.4398 0 0 0-0.15261-0.41701 4.4398 4.4398 0 0 0-0.19164-0.40015 4.4398 4.4398 0 0 0-0.23246-0.37797 4.4398 4.4398 0 0 0-0.26618-0.35401 4.4398 4.4398 0 0 0-0.2573-0.2786 4.4274 4.4274 0 0 0-0.32828-0.29634 4.4274 4.4274 0 0 0-0.35579-0.26351 4.4274 4.4274 0 0 0-0.37974-0.22536 4.4274 4.4274 0 0 0-0.40193-0.18633 4.4274 4.4274 0 0 0-0.41789-0.14462 4.4274 4.4274 0 0 0-0.42943-0.10381 4.4274 4.4274 0 0 0-0.4383-0.0586 4.4274 4.4274 0 0 0-0.38862-0.016h-6.9072l-2.8525 10.645z" style="fill:url(#h);stroke-width:.88725"/>
<path d="m343.89 542.06h13.563a4.4398 4.4398 0 0 0 0.44363-0.0204 4.4398 4.4398 0 0 0 0.4383-0.0665 4.4398 4.4398 0 0 0 0.43031-0.10913 4.4398 4.4398 0 0 0 0.41701-0.15261 4.4398 4.4398 0 0 0 0.40015-0.19164 4.4398 4.4398 0 0 0 0.37797-0.23069 4.4398 4.4398 0 0 0 0.35401-0.26884 4.4398 4.4398 0 0 0 0.2786-0.25641 4.4274 4.4274 0 0 0 0.29811-0.32828 4.4274 4.4274 0 0 0 0.26174-0.35579 4.4274 4.4274 0 0 0 0.22537-0.37974 4.4274 4.4274 0 0 0 0.18632-0.40193 4.4274 4.4274 0 0 0 0.14639-0.41789 4.4274 4.4274 0 0 0 0.10204-0.42943 4.4274 4.4274 0 0 0 0.0603-0.4383 4.4274 4.4274 0 0 0 0.016-0.38862v-5.9561l-14.196-3.8036z" style="fill:url(#i);stroke-width:.88725"/>
<path d="m351.49 542.06h5.9561a4.4398 4.4398 0 0 0 0.44363-0.0204 4.4398 4.4398 0 0 0 0.4383-0.0665 4.4398 4.4398 0 0 0 0.43031-0.10913 4.4398 4.4398 0 0 0 0.41701-0.15261 4.4398 4.4398 0 0 0 0.40015-0.19164 4.4398 4.4398 0 0 0 0.37797-0.23069 4.4398 4.4398 0 0 0 0.35401-0.26884 4.4398 4.4398 0 0 0 0.2786-0.25641 4.4274 4.4274 0 0 0 0.29811-0.32828 4.4274 4.4274 0 0 0 0.26174-0.35579 4.4274 4.4274 0 0 0 0.22537-0.37974 4.4274 4.4274 0 0 0 0.18632-0.40193 4.4274 4.4274 0 0 0 0.14639-0.41789 4.4274 4.4274 0 0 0 0.10204-0.42943 4.4274 4.4274 0 0 0 0.0603-0.4383 4.4274 4.4274 0 0 0 0.016-0.38862v-13.563l-14.196 3.8036z" style="fill:url(#j);opacity:.3;stroke-width:.88725"/>
<path d="m360.59 540.76a4.4274 4.4274 0 0 0 0.29722-0.32829 4.4274 4.4274 0 0 0 0.26174-0.35667 4.4274 4.4274 0 0 0 0.22537-0.37974 4.4274 4.4274 0 0 0 0.18632-0.40193 4.4274 4.4274 0 0 0 0.14639-0.41789 4.4274 4.4274 0 0 0 0.10204-0.42943 4.4274 4.4274 0 0 0 0.0603-0.4383 4.4274 4.4274 0 0 0 0.016-0.38862v-15.97a4.4398 4.4398 0 0 0-0.0204-0.44362 4.4398 4.4398 0 0 0-0.0665-0.43831 4.4398 4.4398 0 0 0-0.10913-0.43031 4.4398 4.4398 0 0 0-0.15261-0.41701 4.4398 4.4398 0 0 0-0.19164-0.40015 4.4398 4.4398 0 0 0-0.23246-0.37797 4.4398 4.4398 0 0 0-0.26618-0.35401 4.4398 4.4398 0 0 0-0.2573-0.2786 4.4274 4.4274 0 0 0-0.32828-0.29634 4.4274 4.4274 0 0 0-0.35579-0.26351 4.4274 4.4274 0 0 0-0.37974-0.22536 4.4274 4.4274 0 0 0-0.40193-0.18633 4.4274 4.4274 0 0 0-0.41789-0.14462 4.4274 4.4274 0 0 0-0.42943-0.10381 4.4274 4.4274 0 0 0-0.0142-2e-3l-10.572 10.572z" style="fill:url(#k);opacity:.35;stroke-width:.88725"/>
<path d="m361.89 524.06v-2.4071a4.4398 4.4398 0 0 0-0.0204-0.44362 4.4398 4.4398 0 0 0-0.0665-0.43831 4.4398 4.4398 0 0 0-0.10913-0.43031 4.4398 4.4398 0 0 0-0.15261-0.41701 4.4398 4.4398 0 0 0-0.19164-0.40015 4.4398 4.4398 0 0 0-0.23246-0.37797 4.4398 4.4398 0 0 0-0.26618-0.35401 4.4398 4.4398 0 0 0-0.2573-0.2786 4.4274 4.4274 0 0 0-0.32828-0.29634 4.4274 4.4274 0 0 0-0.35579-0.26351 4.4274 4.4274 0 0 0-0.37974-0.22536 4.4274 4.4274 0 0 0-0.40193-0.18633 4.4274 4.4274 0 0 0-0.41789-0.14462 4.4274 4.4274 0 0 0-0.42943-0.10381 4.4274 4.4274 0 0 0-0.4383-0.0586 4.4274 4.4274 0 0 0-0.38862-0.016l-12.612-2e-3 2.8525 10.647z" style="fill:url(#l);opacity:.3;stroke-width:.88725"/>
<path d="m337.93 517.21a4.4398 4.4398 0 0 0-0.44362 0.0204 4.4398 4.4398 0 0 0-0.43831 0.0665 4.4398 4.4398 0 0 0-0.43031 0.10913 4.4398 4.4398 0 0 0-0.41701 0.15261 4.4398 4.4398 0 0 0-0.40015 0.19165 4.4398 4.4398 0 0 0-0.37797 0.23245 4.4398 4.4398 0 0 0-0.35401 0.26618 4.4398 4.4398 0 0 0-0.2786 0.2573 4.4274 4.4274 0 0 0-0.29811 0.32828 4.4274 4.4274 0 0 0-0.26174 0.35579 4.4274 4.4274 0 0 0-0.22536 0.38152 4.4274 4.4274 0 0 0-0.18633 0.40015 4.4274 4.4274 0 0 0-0.14639 0.41967 4.4274 4.4274 0 0 0-0.10204 0.42943 4.4274 4.4274 0 0 0-0.0603 0.4383 4.4274 4.4274 0 0 0-0.016 0.38861v2.4044l14.196 3.8045 2.8525-10.645z" style="fill:url(#m);stroke-width:.88725"/>
<path d="m337.93 517.21a4.4398 4.4398 0 0 0-0.44362 0.0204 4.4398 4.4398 0 0 0-0.43831 0.0665 4.4398 4.4398 0 0 0-0.43031 0.10913 4.4398 4.4398 0 0 0-0.41701 0.15261 4.4398 4.4398 0 0 0-0.40015 0.19165 4.4398 4.4398 0 0 0-0.37797 0.23245 4.4398 4.4398 0 0 0-0.35401 0.26618 4.4398 4.4398 0 0 0-0.2786 0.2573 4.4274 4.4274 0 0 0-0.29811 0.32828 4.4274 4.4274 0 0 0-0.26174 0.35579 4.4274 4.4274 0 0 0-0.22536 0.38152 4.4274 4.4274 0 0 0-0.18633 0.40015 4.4274 4.4274 0 0 0-0.14639 0.41967 4.4274 4.4274 0 0 0-0.10204 0.42943 4.4274 4.4274 0 0 0-0.0603 0.4383 4.4274 4.4274 0 0 0-0.016 0.38861v10.013l14.196-3.8036-2.8525-10.647z" style="fill:url(#m);stroke-width:.88725"/>
<path d="m337.12 517.29a4.4398 4.4398 0 0 0-0.071 0.0106 4.4398 4.4398 0 0 0-0.43031 0.10913 4.4398 4.4398 0 0 0-0.41701 0.15261 4.4398 4.4398 0 0 0-0.40015 0.19165 4.4398 4.4398 0 0 0-0.37797 0.23245 4.4398 4.4398 0 0 0-0.35401 0.26618 4.4398 4.4398 0 0 0-0.2786 0.2573 4.4274 4.4274 0 0 0-0.29811 0.32828 4.4274 4.4274 0 0 0-0.26174 0.35579 4.4274 4.4274 0 0 0-0.22536 0.38152 4.4274 4.4274 0 0 0-0.18633 0.40015 4.4274 4.4274 0 0 0-0.14639 0.41967 4.4274 4.4274 0 0 0-0.10204 0.42943 4.4274 4.4274 0 0 0-0.0603 0.4383 4.4274 4.4274 0 0 0-0.016 0.38861v15.971a4.4398 4.4398 0 0 0 0.0222 0.44185 4.4398 4.4398 0 0 0 0.0666 0.44007 4.4398 4.4398 0 0 0 0.10913 0.42943 4.4398 4.4398 0 0 0 0.15083 0.41701 4.4398 4.4398 0 0 0 0.19165 0.39926 4.4398 4.4398 0 0 0 0.23245 0.37974 4.4398 4.4398 0 0 0 0.26884 0.35402 4.4398 4.4398 0 0 0 0.25464 0.27682l12.9-12.9z" style="fill:url(#o);opacity:.35;stroke-width:.88725"/>
<path d="m334.79 540.76a4.4274 4.4274 0 0 0 0.32828 0.29545 4.4274 4.4274 0 0 0 0.3549 0.26351 4.4274 4.4274 0 0 0 0.38152 0.22537 4.4274 4.4274 0 0 0 0.40192 0.18632 4.4274 4.4274 0 0 0 0.41789 0.14639 4.4274 4.4274 0 0 0 0.42943 0.10204 4.4274 4.4274 0 0 0 0.43919 0.0603 4.4274 4.4274 0 0 0 0.38773 0.016h19.52a4.4398 4.4398 0 0 0 0.44363-0.0204 4.4398 4.4398 0 0 0 0.4383-0.0665 4.4398 4.4398 0 0 0 0.43031-0.10913 4.4398 4.4398 0 0 0 0.41701-0.15261 4.4398 4.4398 0 0 0 0.40015-0.19164 4.4398 4.4398 0 0 0 0.37797-0.23069 4.4398 4.4398 0 0 0 0.35401-0.26884 4.4398 4.4398 0 0 0 0.2786-0.25641l-12.9-12.9z" style="fill:url(#p);opacity:.35;stroke-width:.88725"/>
<path d="m333.49 531.66v5.9579a4.4398 4.4398 0 0 0 0.0222 0.44185 4.4398 4.4398 0 0 0 0.0666 0.44007 4.4398 4.4398 0 0 0 0.10913 0.42943 4.4398 4.4398 0 0 0 0.15083 0.41701 4.4398 4.4398 0 0 0 0.19165 0.39926 4.4398 4.4398 0 0 0 0.23245 0.37974 4.4398 4.4398 0 0 0 0.26884 0.35402 4.4398 4.4398 0 0 0 0.25464 0.27682 4.4274 4.4274 0 0 0 0.32828 0.29634 4.4274 4.4274 0 0 0 0.3549 0.26351 4.4274 4.4274 0 0 0 0.38152 0.22537 4.4274 4.4274 0 0 0 0.40104 0.18632 4.4274 4.4274 0 0 0 0.41789 0.14639 4.4274 4.4274 0 0 0 0.42943 0.10204 4.4274 4.4274 0 0 0 0.43919 0.0603 4.4274 4.4274 0 0 0 0.38773 0.016h13.563l-3.8036-14.196z" style="fill:url(#q);opacity:.3;stroke-width:.88725"/>
<path d="m337.04 517.21 10.647 10.647 10.647-10.647z" style="fill:url(#r);opacity:.35;stroke-width:.88725"/>
</g>
<rect transform="scale(1,-1)" x="393.13" y="-529.06" width="5.3557" height="5.3557" rx="2.6779" style="fill:url(#linearGradient4314);stroke-opacity:.55026;stroke-width:1.8745"/>
<path d="m395.13 527.05 0.66948-1.3389 0.66945 1.3389z" style="fill-rule:evenodd;fill:url(#linearGradient4917);stroke-width:.66946"/>
</g>
<path transform="matrix(.33159 0 0 .33159 .46727 .36462)" d="m4.7043 3.9815-0.012938 56.82h53.904l1.0222-2.8664s-23.875 0.76639-32.844-4.1404c-10.516-5.7529-15.372-49.697-15.372-49.697z" style="fill:url(#linearGradient3403);mix-blend-mode:normal;stroke-linejoin:round;stroke-width:1.1624;stroke:url(#linearGradient20558)"/>
<rect transform="matrix(.31063 0 0 .30999 1.0244 1.0347)" x="1.0324" y=".59551" width="62.567" height="62.867" rx="5.803" ry="6.2447" style="fill:none;stroke-linejoin:round;stroke-miterlimit:7.8;stroke-opacity:.99515;stroke-width:3.7137;stroke:url(#linearGradient4557)"/>
</g>
</svg>
