<!-- Created with Inkscape (http://www.inkscape.org/) -->
<svg xmlns:inkscape="http://www.inkscape.org/namespaces/inkscape" xmlns:sodipodi="http://sodipodi.sourceforge.net/DTD/sodipodi-0.dtd" xmlns:xlink="http://www.w3.org/1999/xlink" xmlns="http://www.w3.org/2000/svg" xmlns:svg="http://www.w3.org/2000/svg" width="24" height="24" version="1.1" viewBox="0 0 24 24" id="svg22" sodipodi:docname="preferences-devices-cpu.svg" inkscape:version="1.1.2 (0a00cf5339, 2022-02-04)">
  <sodipodi:namedview id="namedview24" pagecolor="#ffffff" bordercolor="#666666" borderopacity="1.0" inkscape:showpageshadow="2" inkscape:pageopacity="0.0" inkscape:pagecheckerboard="0" inkscape:deskcolor="#d1d1d1" showgrid="false" inkscape:zoom="25.62" inkscape:cx="-2.0296643" inkscape:cy="16.783763" inkscape:window-width="3440" inkscape:window-height="1356" inkscape:window-x="0" inkscape:window-y="0" inkscape:window-maximized="1" inkscape:current-layer="svg22" inkscape:pageshadow="2"/>
  <defs id="defs12">
    <linearGradient id="linearGradient1005-3-3" x1="5.2535" x2="9.3823996" y1="15.383" y2="2.9421" gradientTransform="matrix(0.99999,0,0,0.99999,1.632,-0.61743)" gradientUnits="userSpaceOnUse">
      <stop stop-color="#fa8200" offset="0" id="stop2"/>
      <stop stop-color="#ff9600" offset=".36953" id="stop4"/>
      <stop stop-color="#ffb400" offset="1" id="stop6"/>
    </linearGradient>
    <filter id="filter4014" x="-0.062499933" y="-0.057692993" width="1.1249999" height="1.115386" color-interpolation-filters="sRGB">
      <feGaussianBlur stdDeviation="1.093751" id="feGaussianBlur9"/>
    </filter>
    <linearGradient inkscape:collect="always" xlink:href="#linearGradient3487" id="linearGradient3403" gradientUnits="userSpaceOnUse" x1="6.9491749" y1="4.5549412" x2="11.215498" y2="59.052471"/>
    <linearGradient id="linearGradient3487">
      <stop style="stop-color:#32373c;stop-opacity:1" offset="0" id="stop3481"/>
      <stop id="stop3483" offset="0.36804965" style="stop-color:#1a1a1a;stop-opacity:1"/>
      <stop style="stop-color:#31363b;stop-opacity:1" offset="1" id="stop3485"/>
    </linearGradient>
    <linearGradient inkscape:collect="always" xlink:href="#linearGradient20604" id="linearGradient20558" gradientUnits="userSpaceOnUse" x1="25.802212" y1="20.373846" x2="25.111048" y2="58.912758"/>
    <linearGradient id="linearGradient20604">
      <stop id="stop20598" offset="0" style="stop-color:#3d3d3d;stop-opacity:1"/>
      <stop style="stop-color:#000000;stop-opacity:1" offset="0.61772454" id="stop20600"/>
      <stop id="stop20602" offset="1" style="stop-color:#3d3d3d;stop-opacity:1"/>
    </linearGradient>
    <filter inkscape:collect="always" style="color-interpolation-filters:sRGB" id="filter20720" x="-0.017024755" y="-0.016457183" width="1.0340491" height="1.0329144">
      <feGaussianBlur inkscape:collect="always" stdDeviation="0.14745661" id="feGaussianBlur20722"/>
    </filter>
    <linearGradient gradientTransform="translate(0.36067797,-0.13016949)" xlink:href="#linearGradient4555" id="linearGradient4557" x1="43.499737" y1="64.011795" x2="44.141731" y2="0.30621234" gradientUnits="userSpaceOnUse"/>
    <linearGradient id="linearGradient4555">
      <stop style="stop-color:#141618;stop-opacity:1" offset="0" id="stop4551"/>
      <stop id="stop4559" offset="0.51820582" style="stop-color:#686868;stop-opacity:1"/>
      <stop style="stop-color:#31363b;stop-opacity:1" offset="1" id="stop4553"/>
    </linearGradient>
    <filter style="color-interpolation-filters:sRGB" id="filter4601" x="-0.030244762" width="1.0604895" y="-0.030100647" height="1.0602013">
      <feGaussianBlur stdDeviation="0.014790289" id="feGaussianBlur4603"/>
    </filter>
    <linearGradient id="b" gradientUnits="userSpaceOnUse" x1="378.57101" x2="378.57101" y1="553.79797" y2="525.79797">
      <stop offset="0" stop-color="#63984b" id="stop2-4"/>
      <stop offset="1" stop-color="#8fc278" id="stop4-4"/>
    </linearGradient>
    <linearGradient id="c" gradientUnits="userSpaceOnUse" x1="392.57101" x2="406.57101" xlink:href="#a" y1="539.79797" y2="553.79797">
      <stop offset="0" id="stop17"/>
      <stop offset="1" stop-opacity="0" id="stop19"/>
    </linearGradient>
    <linearGradient id="a" gradientUnits="userSpaceOnUse" x1="389.57101" x2="399.57101" y1="536.79797" y2="546.79797">
      <stop offset="0" stop-color="#292c2f" id="stop22"/>
      <stop offset="1" stop-opacity="0" id="stop24"/>
    </linearGradient>
    <linearGradient id="d" gradientUnits="userSpaceOnUse" x1="394.57101" x2="394.57101" y1="549.79797" y2="529.79797">
      <stop offset="0" stop-color="#999a9c" id="stop7"/>
      <stop offset="1" stop-color="#dcdfdf" id="stop9"/>
    </linearGradient>
    <linearGradient id="e" gradientUnits="userSpaceOnUse" x1="394.85699" x2="394.85699" y1="543.79797" y2="535.79797">
      <stop offset="0" stop-color="#2a2c2f" id="stop12"/>
      <stop offset="1" stop-color="#424649" id="stop14"/>
    </linearGradient>
    <linearGradient inkscape:collect="always" xlink:href="#a" id="linearGradient899" gradientUnits="userSpaceOnUse" x1="389.57101" y1="536.79797" x2="399.57101" y2="546.79797"/>
  </defs>
  <g transform="translate(1,1)">
    <g id="g857" transform="matrix(0.67247728,0,0,0.67247728,0.74441715,-0.09056922)">
      <path d="m 378.571,530.798 v -2 c 0,-2 1,-3 3.07559,-3 h 21.78466 c 2.13975,0 3.13975,1 3.13975,3 v 22 c 0,2 -1,3 -2.9435,3 H 381.571 c -2,0 -3,-1 -3,-3.01639 V 533.798 l 2,-1 z" fill="url(#b)" transform="translate(-376.571,-523.798)" id="path27" sodipodi:nodetypes="cccccccccccc" style="fill:url(#b)"/>
      <path d="m 29,27 -2,2 h 2 z" fill="#e6ea97" fill-rule="evenodd" id="path29"/>
      <path d="m 382.571,549.798 4,4 h 20 v -20 l -4,-4 z" fill="url(#c)" opacity="0.2" transform="translate(-376.571,-523.798)" id="path31" style="fill:url(#c)"/>
      <path d="m 382.571,529.798 h 20 v 20 h -20 z" fill="url(#d)" transform="translate(-376.571,-523.798)" id="path33" style="fill:url(#d)"/>
      <path d="m 391.425,536.944 2.646,2.646 h 1.5 v -0.292 h 0.5 l 6.5,6.5 v 4 h -1 l -8,-8 -0.5,-0.5 0.647,-0.646 -3,-3 z m -1.072,2.573 -1.063,1.062 2.25,2.25 -0.676,0.676 6.291,6.293 h 3.479 z" fill="url(#a)" opacity="0.2" transform="translate(-376.571,-523.798)" id="path35" style="fill:url(#linearGradient899)"/>
      <path d="m 391.571,541.798 c -0.554,0 -1,0.446 -1,1 0,0.554 0.446,1 1,1 0.554,0 1,-0.446 1,-1 0,-0.554 -0.446,-1 -1,-1 z m -1.75,-2.5 a 0.748,0.748 0 0 0 -0.75,0.75 0.75,0.75 0 1 0 1.5,0 0.748,0.748 0 0 0 -0.75,-0.75 z m 3.75,-2.5 -1,1 1.5,1.5 -1.5,1.5 1,1 1.5,-1.5 1,-1 -1,-1 z m -2.5,0 a 0.5,0.5 0 1 0 0,1 0.5,0.5 0 1 0 0,-1 z" fill="url(#e)" transform="translate(-376.571,-523.798)" id="path37" style="fill:url(#e)"/>
      <path d="m 6,25 h 20 v 1 H 6 Z" fill="#616365" id="path39"/>
      <path d="m 7,21 h 4 v 1 H 7 Z m 0,2 h 2 v 1 H 7 Z M 22,7 v 3 h 1 V 9 h 1 V 8 H 23 V 7 Z m 2,1 h 1 V 7 h -1 z m 0,1 v 1 h 1 V 9 Z" fill="#484a4b" id="path41"/>
      <path d="m 5,27 h 1 v 1 H 5 Z m 1,1 h 1 v 1 H 6 Z m 1,-1 h 1 v 1 H 7 Z m 1,1 h 1 v 1 H 8 Z m 1,-1 h 1 v 1 H 9 Z m 1,1 h 1 v 1 h -1 z m 1,-1 h 1 v 1 h -1 z m 14,0 h 1 v 1 h -1 z m -1,1 h 1 v 1 h -1 z m -1,-1 h 1 v 1 h -1 z m -1,1 h 1 v 1 h -1 z m -1,-1 h 1 v 1 h -1 z m -1,1 h 1 v 1 h -1 z m -1,-1 h 1 v 1 h -1 z m -1,1 h 1 v 1 h -1 z m -6,0 h 1 v 1 H 12 Z M 27,4 h 1 v 1 h -1 z m 1,1 h 1 v 1 h -1 z m -1,1 h 1 v 1 h -1 z m 1,1 h 1 v 1 h -1 z m -1,1 h 1 v 1 h -1 z m 1,1 h 1 v 1 h -1 z m -1,1 h 1 v 1 h -1 z m 1,1 h 1 v 1 h -1 z m -1,1 h 1 v 1 h -1 z m 1,1 h 1 v 1 h -1 z m -1,11 h 1 v 1 h -1 z m 1,-1 h 1 v 1 h -1 z m -1,-1 h 1 v 1 h -1 z m 1,-1 h 1 v 1 h -1 z m -1,-1 h 1 v 1 h -1 z" id="path43"/>
      <path d="m 3,29 h 26 c 0,0 -1,1 -2,1 H 5 c 0,0 -1,0 -2,-1 z" fill="#4a7937" id="path45" sodipodi:nodetypes="ccccc"/>
    </g>
    <path style="display:inline;mix-blend-mode:normal;fill:url(#linearGradient3403);fill-opacity:1;stroke:url(#linearGradient20558);stroke-width:1.16242;stroke-linecap:butt;stroke-linejoin:round;stroke-miterlimit:4;stroke-dasharray:none;stroke-opacity:1;filter:url(#filter20720)" d="M 4.7043071,3.9814882 4.6913695,60.80196 H 58.59546 l 1.022155,-2.866369 c 0,0 -23.87537,0.766388 -32.844441,-4.140386 C 16.257548,48.042344 11.401114,4.0978197 11.401114,4.0978197 Z" id="path1686" sodipodi:nodetypes="ccccscc" transform="matrix(0.3330824,0,0,0.3330824,0.46596797,0.36341647)" inkscape:label="folder"/>
    <rect style="display:inline;fill:none;fill-opacity:1;stroke:url(#linearGradient4557);stroke-width:3.71366;stroke-linejoin:round;stroke-miterlimit:7.8;stroke-dasharray:none;stroke-opacity:0.995146;filter:url(#filter4601)" id="rect4539" width="62.567089" height="62.866646" x="1.0323594" y="0.59551275" ry="6.2447233" rx="5.8029528" transform="matrix(0.31202585,0,0,0.31138986,1.0256005,1.0364746)" inkscape:label="contour"/>
  </g>
</svg>
