<svg width="24" height="24" version="1.1" viewBox="0 0 24 24" xmlns="http://www.w3.org/2000/svg" xmlns:xlink="http://www.w3.org/1999/xlink">
<defs>
<linearGradient id="linearGradient3403" x1="6.9492" x2="11.215" y1="4.5549" y2="59.052" gradientUnits="userSpaceOnUse">
<stop style="stop-color:#32373c" offset="0"/>
<stop style="stop-color:#1a1a1a" offset=".36805"/>
<stop style="stop-color:#31363b" offset="1"/>
</linearGradient>
<linearGradient id="linearGradient20558" x1="25.802" x2="25.111" y1="20.374" y2="58.913" gradientUnits="userSpaceOnUse">
<stop style="stop-color:#3d3d3d" offset="0"/>
<stop offset=".61772"/>
<stop style="stop-color:#3d3d3d" offset="1"/>
</linearGradient>
<linearGradient id="linearGradient4557" x1="43.5" x2="44.142" y1="64.012" y2=".30621" gradientTransform="translate(.36068 -.13017)" gradientUnits="userSpaceOnUse">
<stop style="stop-color:#141618" offset="0"/>
<stop style="stop-color:#686868" offset=".51821"/>
<stop style="stop-color:#31363b" offset="1"/>
</linearGradient>
<linearGradient id="d" x1="22" x2="22" y1="-13" y2="-10" gradientTransform="matrix(1,0,0,-1,0,-8)" gradientUnits="userSpaceOnUse" xlink:href="#c"/>
<linearGradient id="c">
<stop stop-color="#2f3943" offset="0"/>
<stop stop-color="#4d5662" offset="1"/>
</linearGradient>
<linearGradient id="e" x1="16" x2="16" y1="3.2" y2="6" gradientUnits="userSpaceOnUse">
<stop stop-color="#18222a" offset="0"/>
<stop stop-color="#566069" offset="1"/>
</linearGradient>
<linearGradient id="f" x1="387.24" x2="387.24" y1="543.8" y2="503.8" gradientTransform="matrix(.75 0 0 .6 -290.43 -297.28)" gradientUnits="userSpaceOnUse" xlink:href="#a"/>
<linearGradient id="a">
<stop stop-color="#c6cdd1" offset="0"/>
<stop stop-color="#e0e5e7" offset="1"/>
</linearGradient>
<linearGradient id="g" x1="425.95" x2="425.95" y1="508.51" y2="536.87" gradientTransform="matrix(.68906 0 0 .77577 111.07 134.31)" gradientUnits="userSpaceOnUse" xlink:href="#a"/>
<linearGradient id="h" x1="434.17" x2="434.17" y1="509.8" y2="535" gradientTransform="matrix(.625 0 0 .71429 137.21 166.66)" gradientUnits="userSpaceOnUse">
<stop stop-color="#2e5d89" offset="0"/>
<stop stop-color="#1b92f4" offset="1"/>
</linearGradient>
<linearGradient id="i" x1="418.17" x2="418.17" y1="-521.8" y2="-518.8" gradientTransform="matrix(.625 0 0 .66667 137.21 887.67)" gradientUnits="userSpaceOnUse" xlink:href="#b"/>
<linearGradient id="b">
<stop stop-color="#84cbfe" offset="0"/>
<stop stop-color="#84cbfe" stop-opacity="0" offset="1"/>
</linearGradient>
<linearGradient id="j" x1="418.17" x2="418.17" y1="-521.8" y2="-518.8" gradientTransform="matrix(.625 0 0 .66667 137.21 -190.93)" gradientUnits="userSpaceOnUse" xlink:href="#b"/>
<linearGradient id="k" x1="390.57" x2="417.95" y1="507.67" y2="535.71" gradientTransform="matrix(.69397 0 0 .6777 -267.04 -339.05)" gradientUnits="userSpaceOnUse">
<stop offset="0"/>
<stop stop-opacity="0" offset="1"/>
</linearGradient>
<linearGradient id="l" x1="29" x2="5" y1="31" y2="25" gradientUnits="userSpaceOnUse" xlink:href="#a"/>
<linearGradient id="m" x1="22" x2="22" y1="29" y2="27" gradientUnits="userSpaceOnUse" xlink:href="#c"/>
</defs>
<g transform="translate(1,1)">
<g transform="matrix(.67446 0 0 .66657 1.4896 .43724)">
<path d="m4 5v-2c0-0.554 0.446-1 1-1h22c0.554 0 1 0.446 1 1v2z" fill="url(#d)" style="fill:url(#d)"/>
<path d="m4 3h24v2h-24z" fill="url(#e)" style="fill:url(#e)"/>
<path d="m4 5h24v24h-24z" fill="url(#f)" style="fill:url(#f)"/>
<g stroke-linecap="round" stroke-linejoin="bevel">
<path transform="translate(-376.57 -523.8)" d="m381.57 529.8h22v20h-22z" fill="url(#g)" style="fill:url(#g)"/>
<path transform="translate(-376.57 -523.8)" d="m382.57 530.8h20v18h-20z" fill="url(#h)" style="fill:url(#h)"/>
<path d="m6 15h20v1h-20z" fill="#84cbfe"/>
<path transform="translate(-376.57 -523.8)" d="m382.57 539.8h20v2h-20z" fill="url(#i)" opacity=".2" style="fill:url(#i)"/>
<path transform="matrix(1 0 0 -1 -376.57 -523.8)" d="m382.57-538.8h20v2h-20z" fill="url(#j)" opacity=".2" style="fill:url(#j)"/>
<path d="m7 9h11v15h-11z" fill="#eff0f1"/>
</g>
<path d="m4 5 22 22h2v-22z" fill="url(#k)" fill-rule="evenodd" opacity=".2" style="fill:url(#k)"/>
<path d="m4 27v2c0 0.554 0.446 1 1 1h22c0.554 0 1-0.446 1-1v-2z" fill="url(#l)" style="fill:url(#l)"/>
<path d="m7 27v1c0 0.554 0.446 1 1 1h16c0.554 0 1-0.446 1-1v-1z" fill="url(#m)" style="fill:url(#m)"/>
<circle transform="matrix(0,-1,-1,0,0,0)" cx="-27.5" cy="-23.5" r=".5" fill="#11d116"/>
<path d="m4 28v1c0 0.554 0.446 1 1 1h22c0.554 0 1-0.446 1-1v-1c0 0.554-0.446 1-1 1h-22c-0.554 0-1-0.446-1-1z" fill="#292c2f" opacity=".2"/>
</g>
<path transform="matrix(.3334 0 0 .3334 .46569 .36316)" d="m4.7043 3.9815-0.012938 56.82h53.904l1.0222-2.8664s-23.875 0.76639-32.844-4.1404c-10.516-5.7529-15.372-49.697-15.372-49.697z" style="fill:url(#linearGradient3403);mix-blend-mode:normal;stroke-linejoin:round;stroke-width:1.1624;stroke:url(#linearGradient20558)"/>
<rect transform="matrix(.31233 0 0 .31169 1.0259 1.0369)" x="1.0324" y=".59551" width="62.567" height="62.867" rx="5.803" ry="6.2447" style="fill:none;stroke-linejoin:round;stroke-miterlimit:7.8;stroke-opacity:.99515;stroke-width:3.7137;stroke:url(#linearGradient4557)"/>
</g>
</svg>
