<svg version="1.1" viewBox="0 0 64 64" xmlns="http://www.w3.org/2000/svg" xmlns:xlink="http://www.w3.org/1999/xlink">
<defs>
<style id="current-color-scheme" type="text/css">.ColorScheme-Highlight {
        color:#3daee9;
      }</style>
<linearGradient id="linearGradient6218-7" x1="408.33" x2="437.79" y1="555.74" y2="492.4" gradientTransform="matrix(.49005 0 0 .42369 -187.99 -204.88)" gradientUnits="userSpaceOnUse">
<stop style="stop-color:#353a3f;stop-opacity:.99608" offset="0"/>
<stop style="stop-color:#272727;stop-opacity:.98876" offset="1"/>
</linearGradient>
<linearGradient id="linearGradient850-6" x1="392.59" x2="420.29" y1="501.23" y2="503.48" gradientTransform="matrix(.49143 0 0 .31854 -188.93 -153.06)" gradientUnits="userSpaceOnUse">
<stop style="stop-color:#444647" offset="0"/>
<stop style="stop-color:#696969;stop-opacity:.42697" offset="1"/>
</linearGradient>
<radialGradient id="radialGradient6178-3-0" cx="397.99" cy="485.79" r="11.249" gradientTransform="matrix(-5.353e-5 .024235 -.51175 -.0011862 269.24 -6.224)" gradientUnits="userSpaceOnUse">
<stop style="stop-color:#d8dbd8" offset="0"/>
<stop style="stop-color:#272727;stop-opacity:.98876" offset="1"/>
</radialGradient>
<linearGradient id="linearGradient2676-9" x1="406.46" x2="414.47" y1="539.62" y2="506.87" gradientTransform="matrix(.49017 0 0 .49893 -187.96 -241.91)" gradientUnits="userSpaceOnUse">
<stop style="stop-color:#1a1b1b" offset="0"/>
<stop style="stop-color:#474747" offset="1"/>
</linearGradient>
<linearGradient id="linearGradient2684-7" x1="395.58" x2="404.77" y1="530.01" y2="505.63" gradientTransform="matrix(.49017 0 0 .49893 -187.96 -241.91)" gradientUnits="userSpaceOnUse">
<stop offset="0"/>
<stop style="stop-color:#c3c3c3;stop-opacity:0" offset="1"/>
</linearGradient>
<linearGradient id="linearGradient25155-5" x1="21.812" x2="4.0043" y1="3.9336" y2="4" gradientTransform="matrix(.5 0 0 .5 -.0021617 5.801e-7)" gradientUnits="userSpaceOnUse">
<stop style="stop-color:#1b1b1b" offset="0"/>
<stop style="stop-color:#090909;stop-opacity:.24541" offset=".49971"/>
<stop style="stop-color:#010101;stop-opacity:.23889" offset=".813"/>
<stop style="stop-opacity:.87011" offset="1"/>
</linearGradient>
<linearGradient id="linearGradient24" x1="12.021" x2="12.012" y1="7.2813" y2="-.72563" gradientTransform="matrix(.5 0 0 .5 -.0021617 5.801e-7)" gradientUnits="userSpaceOnUse" xlink:href="#linearGradient25029-9"/>
<linearGradient id="linearGradient25029-9" x1="12.021" x2="12.012" y1="7.2813" y2="-.72563" gradientUnits="userSpaceOnUse">
<stop style="stop-color:#4f5152" offset="0"/>
<stop style="stop-color:#010501" offset="1"/>
</linearGradient>
</defs>
<g transform="matrix(1.9784 0 0 2.0002 .67557 -.0032053)">
<path d="m1.2242 20.001v-18s0.023457-0.85555 0.77653-0.85555c0 0 9.7948-0.014237 9.9468 0l2.4893 1.8542 12.564 0.00149c3 0 3 3 3 3v14" style="fill:none;stroke-width:.34525;stroke:#000"/>
<path d="m2.0002 0.99966c-0.77656 0-0.77656 1-0.77656 1v20h28.776s5e-6 -9.6216 0-16c0-3-3.1212-3.2803-3.1212-3.2803l-12.691-0.076857-1.7782-1.3353c-0.26034-0.19459-0.47317-0.30754-0.82329-0.30754z" style="fill:url(#linearGradient6218-7);stroke-linecap:round;stroke-linejoin:bevel;stroke-width:.251;stroke:#000a00"/>
<path d="m1.278 19.054 0.037349-16.044 10.026 0.0287 0.65837-1.0386 1.6495 1.182h13.351c2.662 0 2.662 2.6617 2.662 2.6617v9" style="fill:none;stroke-width:.39565px;stroke:url(#linearGradient850-6)"/>
<path d="m14 2.6429v0.35716s8.6765-0.028469 13-5e-7l0.7982 0.080745s-0.49566-0.35848-0.9194-0.36105c-0.0032-1.93e-5 -12.879-0.076855-12.879-0.076855z" style="fill:url(#radialGradient6178-3-0);stroke-width:.33295"/>
<path d="m0.99798 6.9973v20s0 3 3 3c0 0 19.668 5.4e-4 24 0 3-3.51e-4 3-3 3-3 2.25e-4 -4.3303 0-16 0-16s0-0.99998-1-0.99998c0 0-9.8034 0-13.425-2-1.9089-1.054-3.0486-1.7447-4.0207-1.7447h-10.574c-1 0-0.97931 0.74471-0.97931 0.74471z" style="fill:none;stroke-linejoin:round;stroke-width:.66752;stroke:#000"/>
<path d="m0.85839 26.894s0.1312 3.104 3.1393 3.104c4.7341 4.99e-4 19.669 0 24 0 3 0 3-3 3-3v-16c0-1-1-1-1-1s-10.387 0.00579-14-2c-2.7549-1.5295-3-2-4-2h-10c-1 0-1 1-1 1z" style="fill:url(#linearGradient2676-9);stroke-linejoin:round;stroke-width:.64136;stroke:url(#linearGradient2684-7)"/>
<path class="ColorScheme-Highlight" d="m1.2234 2 1.1e-6 1h9.7765v-1.8559l-8.7765-1.2e-6c-1 1.2e-6 -1 0.8559-1 0.8559z" style="fill:currentColor;mix-blend-mode:normal;stroke-width:.5"/>
<path d="m2.2234 1.1216c-1 0-1 0.6233-1 0.87805v1.0102h9.7765s1.0444-1.3506 1-1.6128c-0.13862-0.25456-0.7189-0.27554-1-0.27554z" style="color:#3daee9;fill:url(#linearGradient25155-5);stroke-width:.345;stroke:url(#linearGradient24)"/>
<path d="m2.2234 1.3899c-1 0-1 0.6233-1 0.87805v0.74205h9.8595s0.5933-0.8606 0.9172-1.3677c-0.16569-0.20501-0.7189-0.25239-1-0.25239z" style="color:#3daee9;fill:none;stroke-width:.345;stroke:url(#linearGradient24)"/>
</g>
<g transform="translate(142.32 44.336)">
<path d="m-113.23-4.6347c-0.53391-1.2653-1.3219-2.4041-2.2877-3.391-0.99138-0.98697-2.1352-1.7462-3.4062-2.2775-1.3221-0.55691-2.72-0.86057-4.169-0.86057-1.449 0-2.8469 0.30364-4.1688 0.86039-1.271 0.53152-2.4148 1.316-3.4062 2.2775-0.99136 0.98696-1.754 2.1257-2.2877 3.391-0.55942 1.3162-0.86441 2.7079-0.86441 4.1505 0 1.4426 0.30498 2.8343 0.86422 4.1503 0.5339 1.2653 1.3219 2.4041 2.2877 3.391 0.99136 0.98695 2.1352 1.7462 3.4062 2.2775 1.3219 0.55675 2.72 0.83512 4.1688 0.83512 1.449 0 2.847-0.27838 4.1688-0.83512 1.271-0.53153 2.4148-1.316 3.4062-2.2775 0.99136-0.98697 1.754-2.1257 2.2877-3.391 0.55923-1.316 0.83884-2.7079 0.83884-4.1503 3.6e-4 -1.4426-0.27926-2.8343-0.83854-4.1503z" style="fill:#646464;stroke-width:.045292"/>
<path transform="translate(-142.32 -44.336)" d="m23.997 36.134c-0.06735-7.23e-4 -0.13643 0.01783-0.20157 0.05934-0.03479 0.02412-0.1859 0.20525-0.33438 0.40314l-0.27033 0.36358-0.09796-0.06688c-0.1371-0.09041-0.26938-0.1104-0.39278-0.05463-0.08528 0.0384-0.28515 0.29644-1.5965 2.0402-0.82761 1.0993-1.5006 2.0073-1.4986 2.0213 0.0017 0.01171 0.3377 0.27412 0.74411 0.57928l0.74317 0.55855 0.9777-1.3027c0.53811-0.71665 0.98581-1.2966 0.99654-1.2885 0.03482 0.02604 0.09819 0.58864 0.08571 0.76954-5e-3 0.09868-0.04192 0.27601-0.08006 0.39372-0.06804 0.21035-0.07545 0.22267-1.2876 1.8424-0.67039 0.89544-1.2286 1.656-1.2386 1.686-0.02879 0.08289 0.0031 0.23794 0.06593 0.32684 0.10486 0.14989 0.36421 0.19727 0.51146 0.09042 0.10172-0.07422 2.5026-3.3061 2.579-3.4747 0.22301-0.48074 0.26918-1.0963 0.1281-1.702-0.05574-0.24041-0.12863-0.4715-0.19969-0.63579-0.0207-0.04485 0.01374-0.10225 0.2383-0.40408 0.2122-0.28812 0.26085-0.36903 0.26468-0.44364 0.0084-0.15879-0.04014-0.24718-0.19592-0.36829l-0.14505-0.11303 0.28822-0.38712c0.23627-0.32018 0.28735-0.4039 0.29105-0.47849 0.01069-0.23782-0.17284-0.41228-0.37488-0.41444zm-4.8556 5.3689c-0.0071 1e-3 -0.88892 1.1727-1.9611 2.6006-1.7244 2.2993-1.9697 2.6397-2.1287 2.9322-0.31598 0.58235-0.65982 1.4702-0.88822 2.2813-0.14805 0.52024-0.15549 0.47316 0.05086 0.36264 0.63648-0.34376 1.4679-0.9018 1.9516-1.3121 0.47301-0.40166 0.55355-0.50379 2.5573-3.1724l1.9272-2.5695-0.74882-0.56232c-0.41184-0.30924-0.75304-0.56144-0.76012-0.56044zm-1.8927 8.0007c-0.82554 0.08473-3.0886 0.26756-3.1662 0.33942-0.15239 0.14082 0.06156 0.83946 0.27762 0.77628 0.05739-0.01736 1.5597-0.26063 2.6131-0.34908 0.23631-0.04051 2.8822-0.28802 3.1071-0.3149 0 0 3.8734-0.39756 3.7776-0.48607-0.45793-0.42297-6.6092 0.03436-6.6092 0.03436z" style="color:#232629;fill:#262727"/>
</g>
</svg>
