<svg version="1.1" viewBox="0 0 64 64" xmlns="http://www.w3.org/2000/svg" xmlns:xlink="http://www.w3.org/1999/xlink">
<defs>
<style id="current-color-scheme" type="text/css">.ColorScheme-Highlight {
        color:#3daee9;
      }</style>
<linearGradient id="linearGradient6218-3" x1="408.33" x2="437.79" y1="555.74" y2="492.4" gradientTransform="matrix(1.0006 0 0 .85094 -.23613 72.315)" gradientUnits="userSpaceOnUse">
<stop style="stop-color:#353a3f;stop-opacity:.99608" offset="0"/>
<stop style="stop-color:#272727;stop-opacity:.98876" offset="1"/>
</linearGradient>
<linearGradient id="linearGradient850-6" x1="392.59" x2="420.29" y1="501.23" y2="503.48" gradientUnits="userSpaceOnUse">
<stop style="stop-color:#444647" offset="0"/>
<stop style="stop-color:#696969;stop-opacity:.42697" offset="1"/>
</linearGradient>
<radialGradient id="radialGradient6178-3-7" cx="397.99" cy="485.79" r="11.249" gradientTransform="matrix(-.00010706 .04847 -1.0235 -.0023723 538.49 -12.448)" gradientUnits="userSpaceOnUse">
<stop style="stop-color:#d8dbd8" offset="0"/>
<stop style="stop-color:#272727;stop-opacity:.98876" offset="1"/>
</radialGradient>
<linearGradient id="linearGradient2676-5" x1="406.46" x2="414.06" y1="539.62" y2="512.92" gradientUnits="userSpaceOnUse">
<stop style="stop-color:#1a1b1b" offset="0"/>
<stop style="stop-color:#474747" offset="1"/>
</linearGradient>
<linearGradient id="linearGradient2684-3" x1="395.58" x2="400.82" y1="530.01" y2="514.08" gradientUnits="userSpaceOnUse">
<stop offset="0"/>
<stop style="stop-color:#c3c3c3;stop-opacity:0" offset="1"/>
</linearGradient>
<linearGradient id="linearGradient25155-5" x1="21.812" x2="4.0043" y1="3.9336" y2="4" gradientUnits="userSpaceOnUse">
<stop style="stop-color:#1b1b1b" offset="0"/>
<stop style="stop-color:#090909;stop-opacity:.24541" offset=".49971"/>
<stop style="stop-color:#010101;stop-opacity:.23889" offset=".813"/>
<stop style="stop-opacity:.87011" offset="1"/>
</linearGradient>
<linearGradient id="linearGradient24" x1="12.021" x2="12.012" y1="7.2813" y2="-.72563" gradientUnits="userSpaceOnUse">
<stop style="stop-color:#4f5152" offset="0"/>
<stop style="stop-color:#010501" offset="1"/>
</linearGradient>
</defs>
<g transform="matrix(2.0086 0 0 2.0024 -.2695 .23583)">
<path transform="matrix(.48869 0 0 .49779 -187.85 -240.96)" d="m386.9 524.24v-36.16s0.048-1.7187 1.589-1.7187c0 0 20.043-0.0286 20.354 0l5.0939 3.7249 25.709 3e-3c6.1389 0 6.1389 6.0266 6.1389 6.0266v28.124" style="fill:none;stroke-width:.7;stroke:#000"/>
<path transform="matrix(.48976 0 0 .49791 -187.87 -240.89)" d="m387.68 485.81c-1.5856 0-1.5856 2.0084-1.5856 2.0084v40.168h58.756s1e-5 -19.324 0-32.134c0-6.0252-6.373-6.5882-6.373-6.5882l-25.913-0.15436-3.6307-2.6818c-0.53156-0.39081-0.96613-0.61766-1.681-0.61766z" style="fill:url(#linearGradient6218-3);stroke-linecap:round;stroke-linejoin:bevel;stroke-width:.50828;stroke:#000a00"/>
<path transform="matrix(.49143 0 0 .31854 -188.93 -153.06)" d="m387.05 540.32 0.076-50.366 20.402 0.0901 1.3397-3.2606 3.3565 3.7108h27.167c5.4168 0 5.4168 8.3559 5.4168 8.3559v31.695" style="fill:none;stroke-width:1px;stroke:url(#linearGradient850-6)"/>
<path transform="matrix(.5 0 0 .5 -.0021617 5.801e-7)" d="m28.004 5.2857v0.71432s17.353-0.056939 26-9e-7l1.5964 0.16149s-0.99131-0.71696-1.8388-0.7221c-0.0064-3.87e-5 -25.758-0.15371-25.758-0.15371z" style="fill:url(#radialGradient6178-3-7);stroke-width:.6659"/>
<path transform="matrix(.49017 0 0 .54047 -188.09 -264.07)" d="m385.76 512.56v25.981s0 5.5507 6.1203 5.5507c0 0 40.125 1e-3 48.963 0 6.1203-6.5e-4 6.1203-5.5507 6.1203-5.5507 4.6e-4 -8.0121 0-18.58 0-18.58s0-1.8502-2.0401-1.8502c0 0-20 0-27.389-3.7005-3.8944-1.9502-6.2195-3.2282-8.2026-3.2282h-21.573c-2.0401 0-1.9979 1.3779-1.9979 1.3779z" style="fill:none;stroke-linejoin:round;stroke-width:1.2969;stroke:#000"/>
<path transform="matrix(.49017 0 0 .49893 -187.96 -241.91)" d="m385.21 538.76s0.26767 6.2213 6.4045 6.2213c9.658 1e-3 40.126 0 48.963 0 6.1203 0 6.1203-6.0129 6.1203-6.0129v-20.154c0-2.0043-2.0401-2.0043-2.0401-2.0043s-21.191 0.0116-28.562-4.0086c-5.6203-3.0656-6.1203-4.0086-8.1604-4.0086h-20.401c-2.0401 0-2.0401 2.0043-2.0401 2.0043z" style="fill:url(#linearGradient2676-5);stroke-linejoin:round;stroke-width:1.2969;stroke:url(#linearGradient2684-3)"/>
<path class="ColorScheme-Highlight" transform="matrix(.5 0 0 .5 -.0021617 5.801e-7)" d="m2.4512 4 2.2e-6 2h19.553v-3.7118l-17.553-2.4e-6c-2 2.4e-6 -2 1.7118-2 1.7118z" style="color:#3daee9;fill:#31bebf;mix-blend-mode:normal"/>
<path transform="matrix(.5 0 0 .5 -.0021617 5.801e-7)" d="m4.4512 2.2432c-2 0-2 1.2466-2 1.7561v2.0205h19.553s2.0889-2.7012 2-3.2256c-0.27723-0.50911-1.4378-0.55108-2-0.55108z" style="color:#3daee9;fill:url(#linearGradient25155-5);stroke-width:.69;stroke:url(#linearGradient24)"/>
<path transform="matrix(.5 0 0 .5 -.0021617 5.801e-7)" d="m4.4512 2.7797c-2 0-2 1.2466-2 1.7561v1.4841h19.719s1.1866-1.7212 1.8344-2.7354c-0.33138-0.41002-1.4378-0.50478-2-0.50478z" style="color:#3daee9;fill:none;stroke-width:.69;stroke:url(#linearGradient24)"/>
</g>
</svg>
