<svg version="1.1" viewBox="0 0 64 64" xmlns="http://www.w3.org/2000/svg" xmlns:xlink="http://www.w3.org/1999/xlink">
<defs>
<style id="current-color-scheme" type="text/css">.ColorScheme-Highlight {
        color:#3daee9;
      }</style>
<linearGradient id="linearGradient6218-4" x1="408.33" x2="437.79" y1="555.74" y2="492.4" gradientTransform="matrix(.49005 0 0 .42369 -187.99 -204.88)" gradientUnits="userSpaceOnUse">
<stop style="stop-color:#353a3f;stop-opacity:.99608" offset="0"/>
<stop style="stop-color:#272727;stop-opacity:.98876" offset="1"/>
</linearGradient>
<linearGradient id="linearGradient850-0" x1="392.59" x2="420.29" y1="501.23" y2="503.48" gradientTransform="matrix(.49143 0 0 .31854 -188.93 -153.06)" gradientUnits="userSpaceOnUse">
<stop style="stop-color:#444647" offset="0"/>
<stop style="stop-color:#696969;stop-opacity:.42697" offset="1"/>
</linearGradient>
<radialGradient id="radialGradient6178-3-5" cx="397.99" cy="485.79" r="11.249" gradientTransform="matrix(-5.353e-5 .024235 -.51175 -.0011862 269.24 -6.224)" gradientUnits="userSpaceOnUse">
<stop style="stop-color:#d8dbd8" offset="0"/>
<stop style="stop-color:#272727;stop-opacity:.98876" offset="1"/>
</radialGradient>
<linearGradient id="linearGradient2676-9" x1="406.46" x2="414.47" y1="539.62" y2="506.87" gradientTransform="matrix(.49017 0 0 .49893 -187.96 -241.91)" gradientUnits="userSpaceOnUse">
<stop style="stop-color:#1a1b1b" offset="0"/>
<stop style="stop-color:#474747" offset="1"/>
</linearGradient>
<linearGradient id="linearGradient2684-4" x1="395.58" x2="404.77" y1="530.01" y2="505.63" gradientTransform="matrix(.49017 0 0 .49893 -187.96 -241.91)" gradientUnits="userSpaceOnUse">
<stop offset="0"/>
<stop style="stop-color:#c3c3c3;stop-opacity:0" offset="1"/>
</linearGradient>
<linearGradient id="linearGradient25155-6" x1="21.812" x2="4.0043" y1="3.9336" y2="4" gradientTransform="matrix(.5 0 0 .5 -.0021617 5.801e-7)" gradientUnits="userSpaceOnUse">
<stop style="stop-color:#1b1b1b" offset="0"/>
<stop style="stop-color:#090909;stop-opacity:.24541" offset=".49971"/>
<stop style="stop-color:#010101;stop-opacity:.23889" offset=".813"/>
<stop style="stop-opacity:.87011" offset="1"/>
</linearGradient>
<linearGradient id="linearGradient24" x1="12.021" x2="12.012" y1="7.2813" y2="-.72563" gradientTransform="matrix(.5 0 0 .5 -.0021617 5.801e-7)" gradientUnits="userSpaceOnUse" xlink:href="#linearGradient25029-9"/>
<linearGradient id="linearGradient25029-9" x1="12.021" x2="12.012" y1="7.2813" y2="-.72563" gradientUnits="userSpaceOnUse">
<stop style="stop-color:#4f5152" offset="0"/>
<stop style="stop-color:#010501" offset="1"/>
</linearGradient>
</defs>
<g transform="matrix(1.9784 0 0 2.0002 .67557 -.0032053)">
<path d="m1.2242 20.001v-18s0.023457-0.85555 0.77653-0.85555c0 0 9.7948-0.014237 9.9468 0l2.4893 1.8542 12.564 0.00149c3 0 3 3 3 3v14" style="fill:none;stroke-width:.34525;stroke:#000"/>
<path d="m2.0002 0.99966c-0.77656 0-0.77656 1-0.77656 1v20h28.776s5e-6 -9.6216 0-16c0-3-3.1212-3.2803-3.1212-3.2803l-12.691-0.076857-1.7782-1.3353c-0.26034-0.19459-0.47317-0.30754-0.82329-0.30754z" style="fill:url(#linearGradient6218-4);stroke-linecap:round;stroke-linejoin:bevel;stroke-width:.251;stroke:#000a00"/>
<path d="m1.278 19.054 0.037349-16.044 10.026 0.0287 0.65837-1.0386 1.6495 1.182h13.351c2.662 0 2.662 2.6617 2.662 2.6617v9" style="fill:none;stroke-width:.39565px;stroke:url(#linearGradient850-0)"/>
<path d="m14 2.6429v0.35716s8.6765-0.028469 13-5e-7l0.7982 0.080745s-0.49566-0.35848-0.9194-0.36105c-0.0032-1.93e-5 -12.879-0.076855-12.879-0.076855z" style="fill:url(#radialGradient6178-3-5);stroke-width:.33295"/>
<g transform="matrix(.54156 0 0 .53328 -213.21 -260.26)" style="fill:#646464">
<rect x="427.57" y="503.8" width="4" height="4" style="fill:#646464;opacity:.6"/>
<rect x="435.57" y="503.8" width="4" height="4" style="fill:#646464;opacity:.6"/>
<rect x="443.57" y="503.8" width="4.1666" height="4" style="fill:#646464;opacity:.6"/>
<rect x="423.57" y="499.8" width="4" height="4" style="fill:#646464;opacity:.6"/>
<rect x="431.57" y="499.8" width="4" height="4" style="fill:#646464;opacity:.6"/>
<rect x="439.57" y="499.8" width="4" height="4" style="fill:#646464;opacity:.6"/>
</g>
<path d="m0.99798 6.9973v20s0 3 3 3c0 0 19.668 5.4e-4 24 0 3-3.51e-4 3-3 3-3 2.25e-4 -4.3303 0-16 0-16s0-0.99998-1-0.99998c0 0-9.8034 0-13.425-2-1.9089-1.054-3.0486-1.7447-4.0207-1.7447h-10.574c-1 0-0.97931 0.74471-0.97931 0.74471z" style="fill:none;stroke-linejoin:round;stroke-width:.66752;stroke:#000"/>
<path d="m0.85839 26.894s0.1312 3.104 3.1393 3.104c4.7341 4.99e-4 19.669 0 24 0 3 0 3-3 3-3v-16c0-1-1-1-1-1s-10.387 0.00579-14-2c-2.7549-1.5295-3-2-4-2h-10c-1 0-1 1-1 1z" style="fill:url(#linearGradient2676-9);stroke-linejoin:round;stroke-width:.64136;stroke:url(#linearGradient2684-4)"/>
<path class="ColorScheme-Highlight" d="m1.2234 2 1.1e-6 1h9.7765v-1.8559l-8.7765-1.2e-6c-1 1.2e-6 -1 0.8559-1 0.8559z" style="fill:currentColor;mix-blend-mode:normal;stroke-width:.5"/>
<path d="m2.2234 1.1216c-1 0-1 0.6233-1 0.87805v1.0102h9.7765s1.0444-1.3506 1-1.6128c-0.13862-0.25456-0.7189-0.27554-1-0.27554z" style="color:#3daee9;fill:url(#linearGradient25155-6);stroke-width:.345;stroke:url(#linearGradient24)"/>
<path d="m2.2234 1.3899c-1 0-1 0.6233-1 0.87805v0.74205h9.8595s0.5933-0.8606 0.9172-1.3677c-0.16569-0.20501-0.7189-0.25239-1-0.25239z" style="color:#3daee9;fill:none;stroke-width:.345;stroke:url(#linearGradient24)"/>
</g>
<g transform="translate(49.043 9.3234)">
<path d="m-19.966 30.39c-0.5339-1.2653-1.3219-2.4041-2.2877-3.391-0.99138-0.98696-2.1352-1.7462-3.4062-2.2775-1.322-0.55692-2.72-0.86056-4.169-0.86056-1.449 0-2.847 0.30363-4.1688 0.86038-1.271 0.53152-2.4148 1.316-3.4062 2.2775-0.99138 0.98696-1.754 2.1257-2.2877 3.391-0.55942 1.3162-0.86441 2.7079-0.86441 4.1505 0 1.4426 0.30498 2.8343 0.86423 4.1503 0.53389 1.2653 1.3219 2.4041 2.2877 3.391 0.99136 0.98695 2.1352 1.7462 3.4062 2.2775 1.3219 0.55674 2.72 0.83511 4.1688 0.83511 1.449 0 2.8469-0.27838 4.1688-0.83511 1.271-0.53154 2.4148-1.316 3.4062-2.2775 0.99136-0.98697 1.754-2.1257 2.2877-3.391 0.55923-1.316 0.83884-2.7079 0.83884-4.1503 3.7e-4 -1.4426-0.27926-2.8343-0.83853-4.1503z" style="fill:#646464;stroke-width:.045292"/>
<path transform="translate(-49.043 -9.3234)" d="m22.888 42.812v-1.8938c0-1.9115-1.6541-3.4667-3.687-3.4667-2.0329 0-3.687 1.5552-3.687 3.4667v1.8938c-0.64669 0.12375-1.1345 0.6624-1.1345 1.3062v4.8c9.6e-5 0.73491 0.63593 1.3333 1.4181 1.3333h6.8067c0.78218 0 1.418-0.5984 1.418-1.3333v-4.8c0-0.64375-0.48781-1.1824-1.1344-1.3062zm-5.6724-1.8938c0-1.0294 0.89053-1.8667 1.9853-1.8667 1.0948 0 1.9853 0.83732 1.9853 1.8667v1.8666h-3.9705z" style="fill:#262727;stroke-width:.023572"/>
</g>
</svg>
