<?xml version="1.0" encoding="UTF-8" standalone="no"?>
<svg
   viewBox="0 0 64 64"
   version="1.1"
   id="svg12"
   sodipodi:docname="folder-deb.svg"
   inkscape:version="1.1.2 (0a00cf5339, 2022-02-04)"
   xmlns:inkscape="http://www.inkscape.org/namespaces/inkscape"
   xmlns:sodipodi="http://sodipodi.sourceforge.net/DTD/sodipodi-0.dtd"
   xmlns:xlink="http://www.w3.org/1999/xlink"
   xmlns="http://www.w3.org/2000/svg"
   xmlns:svg="http://www.w3.org/2000/svg">
  <sodipodi:namedview
     id="namedview14"
     pagecolor="#ffffff"
     bordercolor="#666666"
     borderopacity="1.0"
     inkscape:pageshadow="2"
     inkscape:pageopacity="0.0"
     inkscape:pagecheckerboard="0"
     showgrid="false"
     inkscape:zoom="16"
     inkscape:cx="2.3125"
     inkscape:cy="35.9375"
     inkscape:window-width="3440"
     inkscape:window-height="1356"
     inkscape:window-x="0"
     inkscape:window-y="0"
     inkscape:window-maximized="1"
     inkscape:current-layer="svg12"
     inkscape:snap-nodes="true"
     inkscape:object-paths="true"
     showguides="true"
     inkscape:guide-bbox="true"
     inkscape:snap-intersection-paths="true"
     inkscape:snap-smooth-nodes="true"
     inkscape:snap-midpoints="true">
    <sodipodi:guide
       position="19.213949,9.482174"
       orientation="0,-1"
       id="guide4749" />
    <sodipodi:guide
       position="8.4996728,20.148845"
       orientation="1,0"
       id="guide4751" />
  </sodipodi:namedview>
  <defs
     id="defs3051">
    <linearGradient
       inkscape:collect="always"
       id="linearGradient25153">
      <stop
         style="stop-color:#1b1b1b;stop-opacity:1"
         offset="0"
         id="stop25149" />
      <stop
         style="stop-color:#090909;stop-opacity:0.24540505"
         offset="0.49971318"
         id="stop1797" />
      <stop
         style="stop-color:#010101;stop-opacity:0.23888743"
         offset="0.9430303"
         id="stop2247" />
      <stop
         style="stop-color:#000000;stop-opacity:0.8012926"
         offset="1"
         id="stop25151" />
    </linearGradient>
    <linearGradient
       inkscape:collect="always"
       id="linearGradient14607">
      <stop
         style="stop-color:#4f5152;stop-opacity:1"
         offset="0"
         id="stop14603" />
      <stop
         style="stop-color:#010501;stop-opacity:1"
         offset="1"
         id="stop14605" />
    </linearGradient>
    <style
       type="text/css"
       id="current-color-scheme">
      .ColorScheme-Text {
        color:#232629;
      }
      .ColorScheme-Highlight {
        color:#3daee9;
      }
      </style>
    <filter
       height="1.0449693"
       y="-0.026935052"
       width="1.0344187"
       x="-0.017208866"
       id="filter940"
       style="color-interpolation-filters:sRGB">
      <feGaussianBlur
         id="feGaussianBlur942"
         stdDeviation="0.28795822" />
    </filter>
    <linearGradient
       gradientTransform="matrix(1.0005668,0,0,0.8509446,-0.23612742,72.315207)"
       gradientUnits="userSpaceOnUse"
       y2="492.39743"
       x2="437.78555"
       y1="555.7431"
       x1="408.33118"
       id="linearGradient6218"
       xlink:href="#linearGradient42869" />
    <linearGradient
       id="linearGradient42869">
      <stop
         style="stop-color:#353a3f;stop-opacity:0.99607843"
         offset="0"
         id="stop42865" />
      <stop
         style="stop-color:#272727;stop-opacity:0.98876405"
         offset="1"
         id="stop42867" />
    </linearGradient>
    <filter
       height="1.0667278"
       y="-0.033363852"
       width="1.0561312"
       x="-0.028065609"
       id="filter2714"
       style="color-interpolation-filters:sRGB">
      <feGaussianBlur
         id="feGaussianBlur2716"
         stdDeviation="0.56332734" />
    </filter>
    <radialGradient
       r="10.859361"
       fy="487.69391"
       fx="398.76016"
       cy="487.69391"
       cx="398.76016"
       gradientTransform="matrix(-7.685935e-4,0.15609892,-1.7620566,-0.00728959,850.60261,-66.13108)"
       gradientUnits="userSpaceOnUse"
       id="radialGradient6119"
       xlink:href="#linearGradient6109" />
    <linearGradient
       id="linearGradient6109">
      <stop
         id="stop6105"
         offset="0"
         style="stop-color:#498fff;stop-opacity:1;" />
      <stop
         id="stop6107"
         offset="1"
         style="stop-color:#010006;stop-opacity:1" />
    </linearGradient>
    <linearGradient
       gradientTransform="matrix(1,0,0,0.79783267,-406.29559,-396.90111)"
       gradientUnits="userSpaceOnUse"
       y2="483.23215"
       x2="394.73306"
       y1="493.14221"
       x1="394.80273"
       id="linearGradient6103"
       xlink:href="#linearGradient6101" />
    <linearGradient
       id="linearGradient6101">
      <stop
         id="stop6097"
         offset="0"
         style="stop-color:#000304;stop-opacity:1" />
      <stop
         id="stop6099"
         offset="1"
         style="stop-color:#595959;stop-opacity:0.62352943" />
    </linearGradient>
    <linearGradient
       gradientUnits="userSpaceOnUse"
       y2="539.64374"
       x2="414.83517"
       y1="501.65286"
       x1="415.07861"
       id="linearGradient850"
       xlink:href="#linearGradient848" />
    <linearGradient
       id="linearGradient848">
      <stop
         id="stop844"
         offset="0"
         style="stop-color:#57595a;stop-opacity:0.99607843" />
      <stop
         id="stop846"
         offset="1"
         style="stop-color:#000000;stop-opacity:0.42696628" />
    </linearGradient>
    <filter
       height="1.03215"
       y="-0.025901777"
       width="1.0283593"
       x="-0.01417968"
       id="filter2706"
       style="color-interpolation-filters:sRGB">
      <feGaussianBlur
         id="feGaussianBlur2708"
         stdDeviation="0.140357" />
    </filter>
    <radialGradient
       gradientUnits="userSpaceOnUse"
       gradientTransform="matrix(-1.0705868e-4,0.04846987,-1.0235483,-0.0023723,538.49225,-12.44815)"
       r="11.24949"
       fy="485.79099"
       fx="397.99051"
       cy="485.79099"
       cx="397.99051"
       id="radialGradient6178-3"
       xlink:href="#linearGradient880" />
    <linearGradient
       id="linearGradient880">
      <stop
         style="stop-color:#d8dbd8;stop-opacity:1"
         offset="0"
         id="stop876" />
      <stop
         style="stop-color:#272727;stop-opacity:0.98876405"
         offset="1"
         id="stop878" />
    </linearGradient>
    <filter
       height="1.0707442"
       y="-0.035372174"
       width="1.0508627"
       x="-0.025431326"
       id="filter1073"
       style="color-interpolation-filters:sRGB">
      <feGaussianBlur
         id="feGaussianBlur1075"
         stdDeviation="0.39283137" />
    </filter>
    <linearGradient
       gradientUnits="userSpaceOnUse"
       y2="506.87347"
       x2="414.47186"
       y1="539.61627"
       x1="406.45694"
       id="linearGradient2676"
       xlink:href="#linearGradient2668" />
    <linearGradient
       id="linearGradient2668">
      <stop
         id="stop2664"
         offset="0"
         style="stop-color:#1a1b1b;stop-opacity:1" />
      <stop
         id="stop2666"
         offset="1"
         style="stop-color:#474747;stop-opacity:1" />
    </linearGradient>
    <linearGradient
       gradientUnits="userSpaceOnUse"
       y2="505.62521"
       x2="404.77097"
       y1="530.01428"
       x1="395.58017"
       id="linearGradient2684"
       xlink:href="#linearGradient2682" />
    <linearGradient
       id="linearGradient2682">
      <stop
         id="stop2678"
         offset="0"
         style="stop-color:#000000;stop-opacity:1;" />
      <stop
         id="stop2680"
         offset="1"
         style="stop-color:#c3c3c3;stop-opacity:0" />
    </linearGradient>
    <filter
       height="1.0397525"
       y="-0.019876304"
       width="1.0307531"
       x="-0.015376566"
       id="filter2690"
       style="color-interpolation-filters:sRGB">
      <feGaussianBlur
         id="feGaussianBlur2692"
         stdDeviation="0.13069192" />
    </filter>
    <filter
       inkscape:collect="always"
       style="color-interpolation-filters:sRGB"
       id="filter24684"
       x="-0.024959943"
       y="-0.15409672"
       width="1.0499199"
       height="1.3081934">
      <feGaussianBlur
         inkscape:collect="always"
         stdDeviation="0.21554955"
         id="feGaussianBlur24686" />
    </filter>
    <linearGradient
       inkscape:collect="always"
       xlink:href="#linearGradient14607"
       id="linearGradient25029"
       gradientUnits="userSpaceOnUse"
       x1="12.020759"
       y1="7.2813473"
       x2="12.011944"
       y2="-0.7256338" />
    <linearGradient
       inkscape:collect="always"
       xlink:href="#linearGradient25153"
       id="linearGradient25155"
       x1="21.812489"
       y1="3.9335968"
       x2="4.6537294"
       y2="4.034317"
       gradientUnits="userSpaceOnUse" />
    <filter
       inkscape:collect="always"
       style="color-interpolation-filters:sRGB"
       id="filter30328"
       x="-0.060622242"
       y="-0.37427998"
       width="1.121405"
       height="1.7485472">
      <feGaussianBlur
         inkscape:collect="always"
         stdDeviation="0.2547727"
         id="feGaussianBlur30330" />
    </filter>
  </defs>
  <path
     transform="matrix(0.97737948,0,0,0.9955792,-375.68619,-481.91394)"
     id="path6220-2"
     d="m 386.25703,524.61791 0.77838,-38.71157 22.03057,0.10242 3.50545,3.40716 c 0,0 18.10956,0.35097 27.33843,0.35097 2.88877,0 6.71919,2.18928 6.71919,7.16894 0,13.1364 0.12174,26.49022 0.12174,26.49022"
     style="display:inline;fill:none;fill-opacity:1;stroke:#000000;stroke-width:0.7;stroke-linecap:butt;stroke-linejoin:miter;stroke-miterlimit:4;stroke-dasharray:none;stroke-opacity:1;filter:url(#filter940)"
     sodipodi:nodetypes="ccccssc"
     inkscape:label="dégradé arrière noir" />
  <path
     transform="matrix(0.97951183,0,0,0.99581717,-375.74319,-481.76969)"
     d="m 386.39384,486.19622 c 0,0 -0.10293,36.25523 -0.10293,49.28612 0,1.03908 0.48232,1.87652 1.08144,1.87652 h 58.39816 c 0.59911,0 1.34832,-0.83745 1.34161,-1.87652 0,0 -0.0268,-27.28049 -0.0268,-40.09035 0,-3.00572 -3.75125,-6.05898 -6.82146,-6.05898 -9.03444,0 -27.69471,-0.22684 -27.69471,-0.22684 l -4.13226,-2.8228 z"
     id="rect4180"
     style="display:inline;fill:url(#linearGradient6218);fill-opacity:1;stroke:#000a00;stroke-width:0.71;stroke-linecap:round;stroke-linejoin:bevel;stroke-miterlimit:4;stroke-dasharray:none;stroke-opacity:1;filter:url(#filter2714)"
     sodipodi:nodetypes="cssscssccc"
     inkscape:label="arrière plan" />
  <path
     transform="matrix(0.98285448,0,0,0.63708568,-377.85065,-306.12782)"
     id="path6220"
     d="m 387.04904,540.31904 0.076,-50.36617 20.73641,0.0901 1.41588,-3.75705 2.94655,4.20719 c 0,0 17.40991,0.34184 27.40616,0.34184 3.61218,0 6.32049,4.0507 6.32049,8.9451 0,12.76833 0.1165,38.20486 0.1165,38.20486"
     style="display:inline;fill:none;fill-opacity:1;stroke:url(#linearGradient850);stroke-width:1px;stroke-linecap:butt;stroke-linejoin:miter;stroke-opacity:1;filter:url(#filter2706)"
     sodipodi:nodetypes="cccccssc"
     inkscape:label="contour haut" />
  <path
     d="m 27.921427,5.4393704 v 0.380281 h 0.44553 l 25.49468,0.167876 h 0.44553 l -0.5452,-0.548167 h -0.44553 -24.94948 z"
     id="path4151-2-3-5"
     style="display:inline;fill:url(#radialGradient6178-3);fill-opacity:1;stroke-width:0.665905"
     inkscape:label="reflet haut" />
  <path
     transform="matrix(0.98033173,0,0,1.0809325,-376.17709,-528.13384)"
     style="display:inline;fill:none;fill-opacity:1;stroke:#000000;stroke-width:1.29693;stroke-linejoin:round;stroke-miterlimit:4;stroke-dasharray:none;stroke-opacity:1;filter:url(#filter1073)"
     id="path952"
     d="m 385.15633,501.64377 c 0,13.8136 0.0547,36.33599 0.0547,39.23108 0,2.8951 4.24366,4.43675 7.16501,4.43675 9.65801,10e-4 39.7482,-0.008 48.58578,-0.009 2.73024,-2.9e-4 6.73958,-3.06897 6.73961,-5.5723 4.6e-4,-8.01206 0.0257,-31.8933 0.0257,-31.8933 -21.39075,-0.31416 -23.00468,-0.49626 -28.48106,-3.68616 -5.47637,-3.18989 -6.84254,-3.7889 -8.06758,-3.79572 -8.19718,-0.0456 -25.32423,-0.0254 -25.32423,-0.0254 0,0 -0.68932,-0.094 -0.698,1.31379 z"
     inkscape:label="ombrage folder"
     sodipodi:nodetypes="czcscczsccc" />
  <path
     transform="matrix(0.98033173,0,0,0.99785682,-375.91134,-483.82641)"
     style="display:inline;fill:url(#linearGradient2676);fill-opacity:1;stroke:url(#linearGradient2684);stroke-width:1.29693;stroke-linejoin:round;stroke-miterlimit:4;stroke-dasharray:none;stroke-opacity:1;filter:url(#filter2690)"
     id="path952-7"
     d="m 385.15633,498.35321 c 0,13.8136 0.0547,28.03631 0.0547,40.41503 0,6.52543 4.5187,6.67224 7.29021,6.67224 9.65801,10e-4 38.73653,0 47.57411,0 4.29557,0 7.62608,-4.19689 7.62608,-7.71933 4.6e-4,-8.01206 0.0257,-32.38987 0.0257,-32.38987 -22.81136,0 -23.57647,-0.13663 -31.18143,-4.28484 -5.62028,-3.06564 -5.63216,-3.98161 -7.35295,-3.98161 -8.19718,-0.0456 -23.33849,-0.0254 -23.33849,-0.0254 0,0 -0.68932,-0.094 -0.698,1.31379 z"
     inkscape:label="premier plan folder"
     sodipodi:nodetypes="cscsccscccc" />
  <path
     style="display:inline;mix-blend-mode:normal;fill:currentColor;stroke:none;stroke-width:0.390115;stroke-miterlimit:4;stroke-dasharray:none;filter:url(#filter24684)"
     d="M 3.1185124,2.3943988 C 2.9060465,2.5755409 2.8406898,2.662737 2.8406898,3.1723004 c 0,0.7470828 0.00654,2.4587688 0.00654,2.4587688 H 22.075746 l 0.993727,-1.6353471 c 0,0 0.682408,-0.9793708 0.44826,-1.410869 -0.123324,-0.2272669 -0.513311,-0.2662912 -1.075516,-0.2662912 -0.820732,0 -18.1692197,-0.041813 -18.4326201,-0.041813 0,0 -0.7160982,-0.031538 -0.8910845,0.1176499 z"
     class="ColorScheme-Highlight"
     id="path4"
     sodipodi:nodetypes="sscccsscs"
     inkscape:label="AA-couleur-courant" />
  <path
     style="color:#3daee9;display:inline;fill:url(#linearGradient25155);fill-opacity:1;stroke:url(#linearGradient25029);stroke-width:1.29;stroke-miterlimit:4;stroke-dasharray:none;filter:url(#filter30328)"
     d="M 3.1185124,2.3943988 C 2.9060465,2.5755409 2.8406898,2.662737 2.8406898,3.1723004 c 0,0.7470828 0.00654,2.4587688 0.00654,2.4587688 H 22.075746 l 0.993727,-1.6353471 c 0,0 0.682408,-0.9793708 0.44826,-1.410869 -0.123324,-0.2272669 -0.513311,-0.2662912 -1.075516,-0.2662912 -0.820732,0 -18.1692197,-0.041813 -18.4326201,-0.041813 0,0 -0.7160982,-0.031538 -0.8910845,0.1176499 z"
     class="ColorScheme-Highlight"
     id="path4-0"
     sodipodi:nodetypes="sscccsscs"
     inkscape:label="AA-degradé" />
  <g
     id="g376548"
     transform="translate(42.449559,1.180161)">
    <path
       d="m -13.372576,38.533423 c -0.533908,-1.265323 -1.321872,-2.404084 -2.287679,-3.391041 -0.991373,-0.986959 -2.135207,-1.7462 -3.406173,-2.277505 -1.322051,-0.556921 -2.719998,-0.860565 -4.168998,-0.860565 -1.44901,0 -2.846948,0.303628 -4.16881,0.860388 -1.270984,0.531521 -2.414817,1.315983 -3.406179,2.277509 -0.991367,0.986955 -1.754005,2.125704 -2.287666,3.391043 -0.559415,1.316169 -0.864409,2.707895 -0.864409,4.150469 0,1.442561 0.304984,2.834293 0.864223,4.150285 0.533895,1.26532 1.321862,2.404077 2.287669,3.391042 0.991363,0.986947 2.1352,1.746197 3.406178,2.277506 1.321867,0.556743 2.719984,0.835111 4.16881,0.835111 1.449,0 2.846948,-0.278377 4.16881,-0.835111 1.270973,-0.531534 2.414817,-1.315989 3.406178,-2.277506 0.991364,-0.986965 1.753994,-2.125722 2.287681,-3.391042 0.55923,-1.315992 0.838839,-2.707905 0.838839,-4.150285 3.67e-4,-1.442574 -0.279263,-2.8343 -0.838536,-4.150298 z"
       id="path67-9"
       style="fill:#646464;fill-opacity:1;stroke-width:0.0452915" />
    <path
       style="color:#232629;fill:#cb004e;fill-opacity:1;stroke:none;stroke-width:0.582687"
       d="m -22.473152,49.430394 c -0.70077,-0.11629 -1.693536,-0.523255 -2.277509,-0.901145 -1.343145,-0.872077 -2.222256,-1.842128 -2.765612,-3.052841 -0.1752,-0.406983 -0.279163,-0.697677 -0.583973,-1.74416 -0.05839,-0.261606 -0.157474,-0.554796 -0.194024,-0.646135 -0.06161,-0.154093 -0.06439,-0.20608 -0.03762,-0.720084 0.02554,-0.465109 0.116787,-1.162755 0.175181,-1.218582 0.0082,-0.01346 0.02869,-0.01633 0.04533,-0.007 0.0546,0.03248 0.105668,-0.117542 0.155511,-0.459667 0.02723,-0.187445 0.0703,-0.383998 0.0955,-0.436808 0.02517,-0.05271 0.06771,-0.169347 0.0947,-0.258978 0.06194,-0.206313 0.146456,-0.364898 0.407661,-0.765132 0.114866,-0.176004 0.234276,-0.367719 0.265349,-0.426039 0.03672,-0.06859 0.07649,-0.102161 0.113172,-0.09527 0.0356,0.006 0.09364,-0.03787 0.154719,-0.118023 0.265566,-0.348959 1.516394,-1.378497 1.632127,-1.343393 0.03142,0.0092 0.16358,-0.03401 0.293313,-0.09607 0.234661,-0.112876 0.33804,-0.139011 0.33804,-0.08535 0,0.01526 -0.03429,0.05065 -0.07536,0.07806 -0.07271,0.04839 -0.0713,0.04917 0.0416,0.02308 0.06448,-0.01476 0.173075,-0.03633 0.241323,-0.04759 0.0843,-0.01354 0.118596,-0.03412 0.106934,-0.06264 -0.01072,-0.0254 0.01394,-0.05069 0.0601,-0.06236 0.115325,-0.02917 0.295002,-0.02471 0.295002,0.0082 0,0.03906 -0.102717,0.07861 -0.184233,0.07098 -0.05538,-0.005 -0.05836,-5.35e-4 -0.01636,0.02644 0.04129,0.0271 0.0417,0.03339 0.002,0.03381 -0.02604,2.87e-4 -0.03878,0.0082 -0.02816,0.01832 0.01072,0.01068 0.08036,-0.01176 0.155221,-0.04839 0.07484,-0.03664 0.21199,-0.0819 0.304706,-0.100938 0.114144,-0.02359 0.16859,-0.05056 0.16859,-0.08402 0,-0.04263 0.05296,-0.04719 0.41035,-0.02813 0.225669,0.01176 0.566235,0.04575 0.756804,0.0751 0.346431,0.05376 0.346471,0.05376 0.475595,-0.01664 0.154841,-0.08513 0.403913,-0.09617 0.469385,-0.02126 0.0241,0.02741 0.0899,0.07296 0.14645,0.100939 0.09236,0.04595 0.09845,0.04606 0.0595,5.28e-4 -0.07414,-0.08546 -5.06e-4,-0.08324 0.285784,0.0082 0.92303,0.295323 1.675489,0.821324 2.233848,1.561504 0.132411,0.175544 0.140422,0.254484 0.01481,0.147634 l -0.0718,-0.0611 0.0546,0.102365 c 0.0298,0.0562 0.0546,0.119636 0.0546,0.140685 0,0.02143 0.08882,0.176573 0.197236,0.345619 0.244505,0.381004 0.312905,0.509366 0.296492,0.55639 -0.007,0.02054 -0.115342,-0.114027 -0.240692,-0.298206 -0.125369,-0.184167 -0.31085,-0.4323 -0.412221,-0.551421 -0.15138,-0.177868 -0.191031,-0.208298 -0.221919,-0.170281 -0.02108,0.02552 -0.07119,0.05087 -0.112239,0.0564 l -0.07463,0.01068 0.07384,0.138304 c 0.04039,0.07603 0.07933,0.122875 0.08584,0.103984 0.0356,-0.101039 0.19939,0.03157 0.274013,0.221746 0.0243,0.06166 0.08858,0.188473 0.14302,0.281922 0.0542,0.09344 0.09214,0.176474 0.0838,0.184469 -0.0082,0.0082 -0.05806,-0.01721 -0.110294,-0.05686 l -0.09508,-0.07148 0.06484,0.106349 c 0.0359,0.05846 0.0954,0.13004 0.132695,0.159012 0.04696,0.03633 0.06878,0.09323 0.07097,0.181981 0.003,0.163865 0.102101,0.357447 0.155509,0.306391 0.08329,-0.07949 0.100376,-0.02947 0.07938,0.230622 -0.01522,0.19186 -0.007,0.318318 0.02908,0.452579 0.05541,0.20384 0.04316,0.254133 -0.03774,0.158871 -0.05165,-0.06054 -0.05216,-0.06044 -0.02882,0.002 0.04984,0.134781 0.08664,0.33639 0.07638,0.415528 -0.01928,0.147678 -0.0773,0.08626 -0.09728,-0.102905 l -0.01929,-0.184632 -0.005,0.19649 c -0.002,0.108071 -0.0294,0.316884 -0.05907,0.464036 -0.0294,0.148631 -0.04454,0.328774 -0.03426,0.405243 0.0208,0.143876 0.005,0.149452 -0.119884,0.04686 -0.05122,-0.04171 -0.0601,-0.03391 -0.0953,0.09132 -0.02928,0.105099 -0.02906,0.164844 9.9e-4,0.252837 0.02216,0.06336 0.03496,0.149334 0.02806,0.191023 -0.01446,0.09617 -0.0954,0.126185 -0.0954,0.03575 0,-0.114079 -0.04564,-0.07352 -0.184231,0.164676 -0.374843,0.643085 -0.967951,1.140782 -1.639244,1.375522 -0.395736,0.138425 -0.6612,0.189747 -1.107472,0.214151 l -0.40198,0.02227 0.198611,0.05856 c 0.160136,0.04759 0.254175,0.05406 0.485704,0.03654 0.303307,-0.02359 0.65942,-0.08628 0.820916,-0.144963 0.06436,-0.02359 0.107967,-0.02449 0.130221,-0.003 0.05236,0.05024 -0.41397,0.247454 -0.690885,0.29216 -0.471187,0.07604 -1.101905,-0.006 -1.658685,-0.216172 -0.377735,-0.142512 -0.938324,-0.513613 -0.852416,-0.564324 0.01596,-0.0092 0.122914,0.03884 0.236989,0.10781 0.145822,0.0881 0.207397,0.111287 0.207397,0.07806 0,-0.06271 0.02186,-0.05964 0.13742,0.01932 0.104568,0.07118 0.426375,0.203326 0.658136,0.270301 0.252623,0.07296 0.154661,-0.01527 -0.184231,-0.166445 -1.071556,-0.477292 -1.516429,-0.954697 -1.738146,-1.865266 -0.08133,-0.333909 0.005,-1.065937 0.154094,-1.295194 0.03774,-0.05805 0.06836,-0.12953 0.06836,-0.158747 0,-0.126844 0.22136,-0.461926 0.448481,-0.678928 0.400242,-0.382411 0.816366,-0.541141 1.35657,-0.517512 0.261114,0.01156 0.37264,0.03381 0.589968,0.116031 0.246494,0.09373 0.556871,0.290146 0.461806,0.292148 -0.02262,4.83e-4 -0.120315,-0.03037 -0.217724,-0.06965 -0.148054,-0.05903 -0.243,-0.07074 -0.57905,-0.07198 -0.471911,-0.002 -0.70256,0.06218 -1.038404,0.28798 -0.476139,0.320085 -0.740897,0.688747 -0.834682,1.162222 -0.06285,0.317685 -0.06482,0.405726 -0.01551,0.720865 0.02806,0.181588 0.0486,0.234859 0.0838,0.221897 0.0294,-0.01103 0.04694,0.005 0.04694,0.04395 0,0.112531 0.256314,0.569073 0.434093,0.77316 0.427851,0.491251 1.119942,0.804716 1.776651,0.804716 0.340834,0 0.616361,-0.06249 0.86998,-0.197349 0.101896,-0.05396 0.230389,-0.120368 0.285654,-0.147135 0.19501,-0.0944 0.315997,-0.202306 0.457431,-0.407866 0.0786,-0.114246 0.164135,-0.207734 0.189979,-0.207734 0.03824,0 0.0367,0.01624 -0.0092,0.08799 -0.149495,0.235746 0.201368,-0.192918 0.383082,-0.467996 l 0.20356,-0.30809 -0.02249,-0.20239 c -0.02164,-0.194486 -0.0178,-0.206353 0.07918,-0.304032 0.09375,-0.09406 0.102203,-0.121919 0.113029,-0.373365 0.0092,-0.225038 0.002,-0.271777 -0.03858,-0.272016 -0.03867,-2.21e-4 -0.05505,-0.05954 -0.0719,-0.256348 -0.02226,-0.260515 -0.24405,-1.137089 -0.295713,-1.167605 -0.01536,-0.0092 -0.05895,-0.09353 -0.0962,-0.187328 -0.125878,-0.316577 -0.346732,-0.620991 -0.691057,-0.952636 -0.495472,-0.477177 -1.119576,-0.845644 -1.709123,-1.009063 -0.501463,-0.138955 -1.353,-0.08854 -1.959535,0.116119 -0.296034,0.09983 -0.587688,0.232084 -0.636917,0.288734 -0.02261,0.02573 -0.0545,0.03839 -0.072,0.02803 -0.0177,-0.01091 -0.01306,-0.03937 0.012,-0.06826 0.111735,-0.128657 -0.259054,0.106765 -0.497759,0.316041 -0.144308,0.126494 -0.26764,0.233863 -0.27407,0.238546 -0.006,0.004 0.02196,2.47e-4 0.06235,-0.01068 0.06784,-0.01655 0.07071,-0.01244 0.03426,0.05316 -0.0238,0.04181 -0.146378,0.11778 -0.296888,0.183009 -0.252924,0.109622 -0.41649,0.230073 -0.54645,0.40242 -0.05186,0.06879 -0.0546,0.08364 -0.01373,0.06857 0.02847,-0.01078 0.05226,-0.004 0.05226,0.0145 0,0.09143 -0.08687,0.19343 -0.215666,0.253217 -0.28526,0.132386 -0.786367,0.839658 -1.054768,1.488723 -0.119639,0.289247 -0.11774,0.279204 -0.05261,0.279204 0.06857,0 0.06376,0.0743 -0.03,0.473971 -0.137152,0.582035 -0.137324,0.563382 0.0121,1.382217 0.182006,0.997657 0.288334,1.330947 0.490493,1.537456 0.0478,0.04861 0.09353,0.151493 0.114083,0.255018 0.0246,0.123598 0.0658,0.20519 0.142834,0.282843 0.07027,0.07074 0.09375,0.114176 0.0667,0.123589 -0.05282,0.01821 0.112875,0.254715 0.264161,0.376355 0.07616,0.06124 0.132536,0.0818 0.193661,0.07065 0.133939,-0.02449 0.270304,0.04942 0.479819,0.259314 0.217768,0.218323 0.239581,0.27702 0.0955,0.256824 -0.09289,-0.013 -0.09506,-0.01091 -0.0495,0.05588 0.02625,0.03845 0.123353,0.130588 0.215659,0.204943 0.129651,0.104458 0.16305,0.149645 0.146763,0.198627 -0.0236,0.07051 0.04293,0.136213 0.194358,0.191375 0.09364,0.03457 0.123813,0.107964 0.05319,0.13041 -0.02164,0.007 0.110559,0.136485 0.29308,0.288228 0.205658,0.170931 0.343993,0.264639 0.363718,0.246344 0.05206,-0.04849 0.118832,-0.03401 0.120011,0.02635 9.91e-4,0.0655 0.0604,0.134379 0.273118,0.318033 0.1344,0.11605 0.167946,0.130645 0.250324,0.108973 0.07545,-0.02015 0.122894,-0.007 0.229137,0.06156 0.21196,0.136894 0.340492,0.191554 0.450526,0.191554 0.108288,0 0.123707,0.02937 0.0675,0.130118 -0.0295,0.05306 -0.0236,0.06186 0.04511,0.06186 0.04338,0 0.1673,0.02843 0.274391,0.06398 0.243504,0.08008 0.345085,0.08555 0.284056,0.01501 -0.0902,-0.103764 0.005,-0.07541 0.327544,0.09719 0.450098,0.241133 0.677811,0.2687 1.574073,0.190448 0.132685,-0.01165 0.175843,-0.004 0.175843,0.02741 0,0.02761 -0.115126,0.06956 -0.326607,0.118399 -0.277939,0.0642 -0.426319,0.07674 -0.996511,0.08354 -0.449294,0.004 -0.756218,-0.006 -0.931911,-0.03575 z m -0.458191,-4.79762 c 0,-0.006 -0.04129,-0.03653 -0.09214,-0.0659 l -0.09214,-0.05346 0.07908,0.0659 c 0.07713,0.06432 0.105111,0.07863 0.105111,0.05346 z m 4.611935,-3.35402 c -0.01082,-0.02553 -0.0182,-0.01751 -0.02058,0.01961 -0.002,0.03414 0.006,0.05248 0.01713,0.04171 0.0113,-0.01078 0.0123,-0.03829 0.002,-0.06131 z m -7.601475,-3.356495 c 0.0415,-0.05074 0.04029,-0.05182 -0.0126,-0.01214 -0.03236,0.02429 -0.05857,0.0495 -0.05857,0.05578 0,0.02625 0.02732,0.0092 0.0713,-0.04365 z m 0.38094,-0.296012 c 0.03375,-0.03555 0.05293,-0.06398 0.0434,-0.06398 -0.0092,0 -0.04364,0.02846 -0.0774,0.06398 -0.03376,0.03555 -0.05297,0.06399 -0.04343,0.06399 0.0092,0 0.04363,-0.02849 0.0774,-0.06399 z m 0.421635,-0.224983 c 0.11042,-0.03593 0.173167,-0.04171 0.196455,-0.02005 0.0235,0.02248 0.109679,0.0092 0.2705,-0.04112 0.129943,-0.0405 0.230297,-0.07968 0.22301,-0.08669 -0.007,-0.007 -0.11431,0.01975 -0.237778,0.05892 -0.169587,0.05396 -0.230632,0.06217 -0.24954,0.03326 -0.03194,-0.04962 -0.336757,0.04819 -0.467775,0.149475 l -0.0896,0.06934 0.0962,-0.05494 c 0.05284,-0.02997 0.169228,-0.0788 0.258443,-0.10766 z m 0.9657,-0.08128 c 0.09728,-0.02741 0.171057,-0.05558 0.163976,-0.06247 -0.01544,-0.01473 -0.362174,0.07989 -0.362174,0.09911 0,0.01931 0.002,0.01872 0.198198,-0.03665 z m 0.555474,-0.17445 0.133993,-0.02359 -0.117255,-0.002 c -0.06448,-0.002 -0.154902,0.01943 -0.200967,0.04664 -0.054,0.03189 -0.0601,0.04088 -0.01639,0.02613 0.03692,-0.01254 0.127295,-0.03381 0.200985,-0.04663 z m 0.266052,-0.06032 c 0.01072,-0.01568 -0.0115,-0.02175 -0.0485,-0.01224 -0.0782,0.01975 -0.08806,0.04111 -0.0184,0.04111 0.02645,0 0.05656,-0.01299 0.06707,-0.0287 z m 1.081486,0.0092 c -0.01129,-0.01079 -0.03986,-0.01186 -0.06416,-0.002 -0.0267,0.01068 -0.0185,0.01741 0.02063,0.01931 0.0356,9.84e-4 0.05481,-0.005 0.04351,-0.01643 z m -0.200286,-0.03497 c -0.03236,-0.0082 -0.08495,-0.0082 -0.117226,0 -0.03235,0.0082 -0.005,0.0145 0.05857,0.0145 0.0645,0 0.0908,-0.006 0.05861,-0.0145 z m -0.33407,-0.0336 c -0.06853,-0.007 -0.189191,-0.007 -0.267965,-2.07e-4 -0.07872,0.007 -0.02296,0.01235 0.124717,0.01244 0.147382,1.09e-4 0.211846,-0.004 0.143248,-0.01224 z m -0.437044,-0.02783 c -0.01129,-0.01079 -0.03986,-0.01185 -0.06416,-0.002 -0.02669,0.01068 -0.0185,0.01741 0.02066,0.01966 0.0356,9.88e-4 0.05481,-0.005 0.04351,-0.01643 z m -0.226728,7.692213 c -0.341207,-0.23359 -0.467619,-0.354385 -0.467619,-0.446897 0,-0.04928 0.0117,-0.08919 0.02584,-0.08919 0.0485,0 0.618705,0.568856 0.606238,0.604612 -0.007,0.02116 -0.07606,-0.0082 -0.164441,-0.06848 z m -0.175588,-0.593081 c -0.1772,-0.171092 -0.23397,-0.263114 -0.162356,-0.263114 0.0426,0 0.372766,0.360703 0.372766,0.407778 0,0.02238 -0.004,0.04009 -0.0092,0.04009 -0.005,0 -0.0956,-0.08324 -0.20099,-0.184938 z m 1.96062,-0.7003 c -0.09355,-0.03623 -0.0355,-0.102918 0.11723,-0.134144 0.08754,-0.01751 0.22658,-0.06145 0.30904,-0.09671 0.08249,-0.03555 0.15588,-0.05846 0.16315,-0.05152 0.007,0.007 -0.0297,0.07806 -0.08296,0.158074 -0.0956,0.144534 -0.09729,0.145405 -0.280409,0.142952 -0.101389,-9.85e-4 -0.203056,-0.0092 -0.226087,-0.01852 z m 1.004886,-0.71585 c -0.0904,-0.03503 -0.09416,-0.09384 -0.0184,-0.295041 0.06486,-0.172839 0.132097,-0.206941 0.09469,-0.04829 -0.01338,0.05708 -0.03096,0.140008 -0.03986,0.184011 l -0.01523,0.07999 0.06692,-0.07285 c 0.03953,-0.04265 0.07626,-0.14427 0.0898,-0.247662 0.0125,-0.09607 0.0364,-0.166942 0.05249,-0.157299 0.04129,0.02449 0.03716,0.277517 -0.0082,0.447623 -0.03914,0.148615 -0.07436,0.165928 -0.222118,0.10918 z m -7.926756,-0.401641 c -0.0114,-0.02761 -0.02075,-0.137031 -0.02075,-0.242694 0,-0.139356 0.0116,-0.188428 0.0416,-0.178823 0.04994,0.01545 0.07892,0.472147 0.0298,0.472147 -0.01697,0 -0.0404,-0.02307 -0.05176,-0.05066 z m 8.058379,-0.748571 c -0.05196,-0.06734 -0.06804,-0.120349 -0.05318,-0.176547 0.0299,-0.115416 0.109612,-0.09901 0.168096,0.03515 0.09107,0.208123 0.0121,0.305657 -0.114764,0.141757 z m -8.065245,-0.508025 c -0.002,-0.181481 -3.5e-5,-0.18709 0.084,-0.18404 0.0714,0.002 0.08847,0.02092 0.09671,0.100938 0.0092,0.09053 -0.09386,0.270342 -0.155075,0.270342 -0.0126,0 -0.0243,-0.08422 -0.02574,-0.187175 z m 8.682706,-3.93427 c 0.004,-0.286361 0.05492,-0.383414 0.09449,-0.182885 0.02735,0.13971 -0.007,0.386451 -0.0606,0.428579 -0.02862,0.02319 -0.03762,-0.03947 -0.03428,-0.245694 z m -4.401405,-0.171542 c 0.01338,-0.03863 0.475545,-0.2194 0.560786,-0.2194 0.100173,0 -0.07951,0.117256 -0.286691,0.187076 -0.23102,0.07786 -0.292511,0.08513 -0.274095,0.03249 z"
       class="ColorScheme-Text"
       id="path12-7-1-2" />
  </g>
</svg>
