<svg version="1.1" viewBox="0 0 64 64" xmlns="http://www.w3.org/2000/svg" xmlns:xlink="http://www.w3.org/1999/xlink">
<defs>
<style id="current-color-scheme" type="text/css">.ColorScheme-Text {
        color:#232629;
      }
      .ColorScheme-Highlight {
        color:#3daee9;
      }</style>
<linearGradient id="linearGradient6218-2" x1="408.33" x2="437.79" y1="555.74" y2="492.4" gradientTransform="matrix(.49005 0 0 .42369 -187.99 -204.88)" gradientUnits="userSpaceOnUse">
<stop style="stop-color:#353a3f;stop-opacity:.99608" offset="0"/>
<stop style="stop-color:#272727;stop-opacity:.98876" offset="1"/>
</linearGradient>
<linearGradient id="linearGradient850-5" x1="392.59" x2="420.29" y1="501.23" y2="503.48" gradientTransform="matrix(.49143 0 0 .31854 -188.93 -153.06)" gradientUnits="userSpaceOnUse">
<stop style="stop-color:#444647" offset="0"/>
<stop style="stop-color:#696969;stop-opacity:.42697" offset="1"/>
</linearGradient>
<radialGradient id="radialGradient6178-3-3" cx="397.99" cy="485.79" r="11.249" gradientTransform="matrix(-5.353e-5 .024235 -.51175 -.0011862 269.24 -6.224)" gradientUnits="userSpaceOnUse">
<stop style="stop-color:#d8dbd8" offset="0"/>
<stop style="stop-color:#272727;stop-opacity:.98876" offset="1"/>
</radialGradient>
<linearGradient id="linearGradient2676-4" x1="406.46" x2="414.47" y1="539.62" y2="506.87" gradientTransform="matrix(.49017 0 0 .49893 -187.96 -241.91)" gradientUnits="userSpaceOnUse">
<stop style="stop-color:#1a1b1b" offset="0"/>
<stop style="stop-color:#474747" offset="1"/>
</linearGradient>
<linearGradient id="linearGradient2684-9" x1="395.58" x2="404.77" y1="530.01" y2="505.63" gradientTransform="matrix(.49017 0 0 .49893 -187.96 -241.91)" gradientUnits="userSpaceOnUse">
<stop offset="0"/>
<stop style="stop-color:#c3c3c3;stop-opacity:0" offset="1"/>
</linearGradient>
<linearGradient id="linearGradient25155" x1="21.812" x2="4.0043" y1="3.9336" y2="4" gradientTransform="matrix(.5 0 0 .5 -.0021617 5.801e-7)" gradientUnits="userSpaceOnUse">
<stop style="stop-color:#1b1b1b" offset="0"/>
<stop style="stop-color:#090909;stop-opacity:.24541" offset=".49971"/>
<stop style="stop-color:#010101;stop-opacity:.23889" offset=".813"/>
<stop style="stop-opacity:.87011" offset="1"/>
</linearGradient>
<linearGradient id="linearGradient24" x1="12.021" x2="12.012" y1="7.2813" y2="-.72563" gradientTransform="matrix(.5 0 0 .5 -.0021617 5.801e-7)" gradientUnits="userSpaceOnUse" xlink:href="#linearGradient25029"/>
<linearGradient id="linearGradient25029" x1="12.021" x2="12.012" y1="7.2813" y2="-.72563" gradientUnits="userSpaceOnUse">
<stop style="stop-color:#4f5152" offset="0"/>
<stop style="stop-color:#010501" offset="1"/>
</linearGradient>
</defs>
<g transform="matrix(1.9784 0 0 2.0002 .67557 -.0032053)">
<path d="m1.2242 20.001v-18s0.023457-0.85555 0.77653-0.85555c0 0 9.7948-0.014237 9.9468 0l2.4893 1.8542 12.564 0.00149c3 0 3 3 3 3v14" style="fill:none;stroke-width:.34525;stroke:#000"/>
<path d="m2.0002 0.99966c-0.77656 0-0.77656 1-0.77656 1v20h28.776s5e-6 -9.6216 0-16c0-3-3.1212-3.2803-3.1212-3.2803l-12.691-0.076857-1.7782-1.3353c-0.26034-0.19459-0.47317-0.30754-0.82329-0.30754z" style="fill:url(#linearGradient6218-2);stroke-linecap:round;stroke-linejoin:bevel;stroke-width:.251;stroke:#000a00"/>
<path d="m1.278 19.054 0.037349-16.044 10.026 0.0287 0.65837-1.0386 1.6495 1.182h13.351c2.662 0 2.662 2.6617 2.662 2.6617v9" style="fill:none;stroke-width:.39565px;stroke:url(#linearGradient850-5)"/>
<path d="m14 2.6429v0.35716s8.6765-0.028469 13-5e-7l0.7982 0.080745s-0.49566-0.35848-0.9194-0.36105c-0.0032-1.93e-5 -12.879-0.076855-12.879-0.076855z" style="fill:url(#radialGradient6178-3-3);stroke-width:.33295"/>
<path d="m0.99798 6.9973v20s0 3 3 3c0 0 19.668 5.4e-4 24 0 3-3.51e-4 3-3 3-3 2.25e-4 -4.3303 0-16 0-16s0-0.99998-1-0.99998c0 0-9.8034 0-13.425-2-1.9089-1.054-3.0486-1.7447-4.0207-1.7447h-10.574c-1 0-0.97931 0.74471-0.97931 0.74471z" style="fill:none;stroke-linejoin:round;stroke-width:.66752;stroke:#000"/>
<path d="m0.85839 26.894s0.1312 3.104 3.1393 3.104c4.7341 4.99e-4 19.669 0 24 0 3 0 3-3 3-3v-16c0-1-1-1-1-1s-10.387 0.00579-14-2c-2.7549-1.5295-3-2-4-2h-10c-1 0-1 1-1 1z" style="fill:url(#linearGradient2676-4);stroke-linejoin:round;stroke-width:.64136;stroke:url(#linearGradient2684-9)"/>
<path class="ColorScheme-Highlight" d="m1.2234 2 1.1e-6 1h9.7765v-1.8559l-8.7765-1.2e-6c-1 1.2e-6 -1 0.8559-1 0.8559z" style="fill:currentColor;mix-blend-mode:normal;stroke-width:.5"/>
<path d="m2.2234 1.1216c-1 0-1 0.6233-1 0.87805v1.0102h9.7765s1.0444-1.3506 1-1.6128c-0.13862-0.25456-0.7189-0.27554-1-0.27554z" style="color:#3daee9;fill:url(#linearGradient25155);stroke-width:.345;stroke:url(#linearGradient24)"/>
<path d="m2.2234 1.3899c-1 0-1 0.6233-1 0.87805v0.74205h9.8595s0.5933-0.8606 0.9172-1.3677c-0.16569-0.20501-0.7189-0.25239-1-0.25239z" style="color:#3daee9;fill:none;stroke-width:.345;stroke:url(#linearGradient24)"/>
</g>
<g transform="translate(39.979 -1.6642)">
<path d="m-10.902 41.378c-0.5339-1.2653-1.3219-2.4041-2.2877-3.391-0.99138-0.98697-2.1352-1.7462-3.4062-2.2775-1.322-0.55693-2.72-0.86057-4.169-0.86057-1.449 0-2.847 0.30363-4.1688 0.86039-1.271 0.53152-2.4148 1.316-3.4062 2.2775-0.99137 0.98696-1.754 2.1257-2.2877 3.391-0.55942 1.3162-0.86441 2.7079-0.86441 4.1505 0 1.4426 0.30498 2.8343 0.86422 4.1503 0.53389 1.2653 1.3219 2.4041 2.2877 3.391 0.99136 0.98695 2.1352 1.7462 3.4062 2.2775 1.3219 0.55674 2.72 0.83511 4.1688 0.83511 1.449 0 2.8469-0.27838 4.1688-0.83511 1.271-0.53153 2.4148-1.316 3.4062-2.2775 0.99136-0.98696 1.754-2.1257 2.2877-3.391 0.55923-1.316 0.83884-2.7079 0.83884-4.1503 3.7e-4 -1.4426-0.27927-2.8343-0.83854-4.1503z" style="fill:#646464;stroke-width:.045292"/>
<path d="m-13.877 46.172c-0.034 0.13834-0.10334 0.2608-0.22371 0.33782-0.18939 0.12088-0.42001 0.08572-0.58352-0.06129-0.15319-0.13654-0.20485-0.36747-0.15666-0.56718 0.0497-0.2084 0.20827-0.3922 0.41138-0.45002 0.45268-0.12767 0.64033 0.3729 0.5525 0.74066zm-0.27709-1.4216c-0.28053-0.1139-0.18421-1.6106 0.0724-3.4277 0.0724-0.50774 0.19626-0.7478 0.33567-0.8704 0.19965-0.17316 0.56282-0.1803 0.8089-0.14352 0.28229 0.04059 0.55256 0.1752 0.75737 0.37647 0.18073 0.17873 0.20136 0.36061 0.13937 0.59711-0.10159 0.37645-0.27534 0.7371-0.44234 1.0888-0.03878 0.08562-0.38559 0.75279-0.43198 0.83503-0.83476 1.4952-1.0017 1.6404-1.2392 1.5442z" style="fill:#282929;stroke-width:.017359"/>
<path d="m-19.817 44.077c0.16521 0.71796 0.14798 1.5057 4e-3 2.0728-0.13244 0.53571-0.49217 1.0154-1.0636 1.1764-0.501 0.14185-1.0844 0.03793-1.4424-0.3116-0.58861-0.57425-0.93284-1.9223-0.77968-2.9009 0.12398-0.78587 0.5405-1.7927 1.4545-1.8365 0.0595-2e-3 0.11705-9.96e-4 0.17546 2e-3 0.93123 0.08572 1.4389 0.88422 1.649 1.7964zm-1.6833 1.6334c0.05089 0.01072 0.10338 0.01072 0.15483-4e-3 0.17384-0.05009 0.27368-0.23462 0.32013-0.41313 0.07098-0.2714 0.0607-0.56376-0.03256-0.8299-0.0473-0.13482-0.11514-0.26612-0.22033-0.36417-0.36995-0.34482-0.73988 0.01342-0.80369 0.42192-0.04965 0.31868 0.0232 0.68805 0.21854 0.94544 0.09147 0.11906 0.22219 0.22228 0.36162 0.24679z" style="fill:#282929;stroke-width:.017359"/>
<path d="m-17.802 45.598c-1e-3 1.3251 0.12905 2.3388-0.44413 2.4596-0.46468 0.09607-0.44913-0.31866-0.48539-0.66706-0.1376-1.3497-0.26323-3.5922-0.31669-4.9492 0.0376-0.58302 0.42179-0.94013 0.82108-1.0275 0.61616-0.13485 1.2736-0.09637 1.8193 0.24672 1.0792 0.67938 1.1653 1.9258 0.51122 2.9429-0.35806 0.55498-1.4407 0.95777-1.9054 0.92259zm0.13765-2.9709c-0.0669 0.01116-0.17723 0.04048-0.20827 0.10836-0.074 0.1558-0.0695 1.1452 0.0607 1.56 0.0219 0.06893 0.0661 0.13296 0.13425 0.15747 0.24442 0.09119 0.46475-0.2136 0.56459-0.3974 0.1394-0.25557 0.1841-0.55664 0.0962-0.83686-0.08273-0.26079-0.33906-0.63903-0.64714-0.59157z" style="fill:#282929;stroke-width:.017359"/>
<path d="m-23.974 43.285c-0.40448 0.87024-1.0758 1.5616-2.0051 1.9031 0.26693 0.709 0.53865 1.4093 0.80375 2.1165 0.14809 0.3816 0.28918 0.80004 0.16002 1.1764-0.13424 0.38518-0.65725 0.49193-1.0378 0.0823-0.73161-0.79135-3.2048-5.8052-3.3872-6.1817-0.15502-0.32384-0.38716-0.67054-0.38049-1.0451 0.0121-0.56379 0.86942-1.1345 1.2804-1.4267 0.57508-0.40808 1.2393-0.68648 1.9502-0.68807 0.5543 0 1.0276 0.1542 1.4476 0.42707 0.64363 0.42036 1.0913 1.0906 1.2566 1.8487 0.14444 0.66709 0.11352 1.35-0.088 1.7876m-1.8846-0.95248c-0.14462-0.53381-0.47171-1.0257-0.88312-1.3706-0.0894-0.07536-0.18593-0.14551-0.29748-0.18385-0.77115-0.25744-0.43724 1.0538-0.31158 1.3848 0.17378 0.46383 0.43723 1.0503 0.78992 1.4004 0.0774 0.07706 0.16872 0.1454 0.27362 0.16636 0.16009 0.03427 0.30807-0.08059 0.38913-0.21354 0.0661-0.11033 0.09262-0.24162 0.10843-0.36933 0.028-0.27129 2e-3 -0.5481-0.0697-0.81424z" style="fill:#282929;stroke-width:.017359"/>
<path d="m-14.753 49.95c-2e-3 0.7686-0.46467 1.5372-1.482 1.5372-1.0172 0-1.4905-0.75629-1.4905-1.5284 0-0.96288 0.65919-1.5581 1.5112-1.5581 0.98799 0.01072 1.4699 0.75455 1.4613 1.5493zm-1.4613-1.0644c-0.63856 0-0.99663 0.45174-1 1.0679 0 0.53571 0.2943 1.0382 0.98792 1.0382 0.69361 0 0.95869-0.54441 0.95869-1.0434 0.01076-0.51823-0.26154-1.0504-0.94658-1.0627zm1.8881 2.2076c0 0.11384 2e-3 -0.54097 0-0.64074h0.46818l0.034 0.40095c0.15327 0.08939 0.39071 0.15582 0.58523 0.15582 0.3615 0 0.73843-0.09256 0.73843-0.4517-0.0121-0.32566-0.43204-0.39215-0.77107-0.42724-0.57661-0.06003-1.0413-0.20293-1.0413-0.86128 0-0.58648 0.65228-0.87874 1.1376-0.87874 0.39072-0.01072 0.66782 0.05272 1.0207 0.34127 0 0.23645-2e-3 0.37646-2e-3 0.61273h-0.45258l-0.028-0.38854c-0.18244-0.08949-0.37008-0.11387-0.51462-0.1103-0.31156 2e-3 -0.64374 0.15224-0.64374 0.41836 0 0.2608 0.21515 0.33258 0.59722 0.3887 0.62314 0.08403 1.2238 0.2275 1.2238 0.90329-2e-3 0.73875-0.68504 0.93314-1.2702 0.93314-0.44576 9.96e-4 -0.72465-0.0824-1.0775-0.39572z" style="fill:#282929;stroke-width:.017359"/>
<path d="m-18.357 51.235c0 0.1348-0.10672 0.24331-0.23918 0.24331h-2.766c-0.13254 0-0.23917-0.10851-0.23917-0.24331v-0.022c0-0.13486 0.1066-0.24323 0.23917-0.24323h2.766c0.13242 0 0.23918 0.10838 0.23918 0.24323z" style="fill:#282929;stroke-width:.017359"/>
</g>
</svg>
