<?xml version="1.0" encoding="UTF-8" standalone="no"?>
<svg
   viewBox="0 0 64 64"
   version="1.1"
   id="svg12"
   sodipodi:docname="folder-development.svg"
   inkscape:version="1.1.2 (0a00cf5339, 2022-02-04)"
   xmlns:inkscape="http://www.inkscape.org/namespaces/inkscape"
   xmlns:sodipodi="http://sodipodi.sourceforge.net/DTD/sodipodi-0.dtd"
   xmlns:xlink="http://www.w3.org/1999/xlink"
   xmlns="http://www.w3.org/2000/svg"
   xmlns:svg="http://www.w3.org/2000/svg">
  <sodipodi:namedview
     id="namedview14"
     pagecolor="#ffffff"
     bordercolor="#666666"
     borderopacity="1.0"
     inkscape:pageshadow="2"
     inkscape:pageopacity="0.0"
     inkscape:pagecheckerboard="0"
     showgrid="false"
     inkscape:zoom="16"
     inkscape:cx="2.3125"
     inkscape:cy="35.9375"
     inkscape:window-width="3440"
     inkscape:window-height="1356"
     inkscape:window-x="0"
     inkscape:window-y="0"
     inkscape:window-maximized="1"
     inkscape:current-layer="svg12"
     inkscape:snap-nodes="true"
     inkscape:object-paths="true"
     showguides="true"
     inkscape:guide-bbox="true"
     inkscape:snap-intersection-paths="true"
     inkscape:snap-smooth-nodes="true"
     inkscape:snap-midpoints="true">
    <sodipodi:guide
       position="19.213949,9.482174"
       orientation="0,-1"
       id="guide4749" />
    <sodipodi:guide
       position="8.4996728,20.148845"
       orientation="1,0"
       id="guide4751" />
  </sodipodi:namedview>
  <defs
     id="defs3051">
    <linearGradient
       inkscape:collect="always"
       id="linearGradient25153">
      <stop
         style="stop-color:#1b1b1b;stop-opacity:1"
         offset="0"
         id="stop25149" />
      <stop
         style="stop-color:#090909;stop-opacity:0.24540505"
         offset="0.49971318"
         id="stop1797" />
      <stop
         style="stop-color:#010101;stop-opacity:0.23888743"
         offset="0.9430303"
         id="stop2247" />
      <stop
         style="stop-color:#000000;stop-opacity:0.8012926"
         offset="1"
         id="stop25151" />
    </linearGradient>
    <linearGradient
       inkscape:collect="always"
       id="linearGradient14607">
      <stop
         style="stop-color:#4f5152;stop-opacity:1"
         offset="0"
         id="stop14603" />
      <stop
         style="stop-color:#010501;stop-opacity:1"
         offset="1"
         id="stop14605" />
    </linearGradient>
    <style
       type="text/css"
       id="current-color-scheme">
      .ColorScheme-Text {
        color:#232629;
      }
      .ColorScheme-Highlight {
        color:#3daee9;
      }
      </style>
    <filter
       height="1.0449693"
       y="-0.026935052"
       width="1.0344187"
       x="-0.017208866"
       id="filter940"
       style="color-interpolation-filters:sRGB">
      <feGaussianBlur
         id="feGaussianBlur942"
         stdDeviation="0.28795822" />
    </filter>
    <linearGradient
       gradientTransform="matrix(1.0005668,0,0,0.8509446,-0.23612742,72.315207)"
       gradientUnits="userSpaceOnUse"
       y2="492.39743"
       x2="437.78555"
       y1="555.7431"
       x1="408.33118"
       id="linearGradient6218"
       xlink:href="#linearGradient42869" />
    <linearGradient
       id="linearGradient42869">
      <stop
         style="stop-color:#353a3f;stop-opacity:0.99607843"
         offset="0"
         id="stop42865" />
      <stop
         style="stop-color:#272727;stop-opacity:0.98876405"
         offset="1"
         id="stop42867" />
    </linearGradient>
    <filter
       height="1.0667278"
       y="-0.033363852"
       width="1.0561312"
       x="-0.028065609"
       id="filter2714"
       style="color-interpolation-filters:sRGB">
      <feGaussianBlur
         id="feGaussianBlur2716"
         stdDeviation="0.56332734" />
    </filter>
    <radialGradient
       r="10.859361"
       fy="487.69391"
       fx="398.76016"
       cy="487.69391"
       cx="398.76016"
       gradientTransform="matrix(-7.685935e-4,0.15609892,-1.7620566,-0.00728959,850.60261,-66.13108)"
       gradientUnits="userSpaceOnUse"
       id="radialGradient6119"
       xlink:href="#linearGradient6109" />
    <linearGradient
       id="linearGradient6109">
      <stop
         id="stop6105"
         offset="0"
         style="stop-color:#498fff;stop-opacity:1;" />
      <stop
         id="stop6107"
         offset="1"
         style="stop-color:#010006;stop-opacity:1" />
    </linearGradient>
    <linearGradient
       gradientTransform="matrix(1,0,0,0.79783267,-406.29559,-396.90111)"
       gradientUnits="userSpaceOnUse"
       y2="483.23215"
       x2="394.73306"
       y1="493.14221"
       x1="394.80273"
       id="linearGradient6103"
       xlink:href="#linearGradient6101" />
    <linearGradient
       id="linearGradient6101">
      <stop
         id="stop6097"
         offset="0"
         style="stop-color:#000304;stop-opacity:1" />
      <stop
         id="stop6099"
         offset="1"
         style="stop-color:#595959;stop-opacity:0.62352943" />
    </linearGradient>
    <linearGradient
       gradientUnits="userSpaceOnUse"
       y2="539.64374"
       x2="414.83517"
       y1="501.65286"
       x1="415.07861"
       id="linearGradient850"
       xlink:href="#linearGradient848" />
    <linearGradient
       id="linearGradient848">
      <stop
         id="stop844"
         offset="0"
         style="stop-color:#57595a;stop-opacity:0.99607843" />
      <stop
         id="stop846"
         offset="1"
         style="stop-color:#000000;stop-opacity:0.42696628" />
    </linearGradient>
    <filter
       height="1.03215"
       y="-0.025901777"
       width="1.0283593"
       x="-0.01417968"
       id="filter2706"
       style="color-interpolation-filters:sRGB">
      <feGaussianBlur
         id="feGaussianBlur2708"
         stdDeviation="0.140357" />
    </filter>
    <radialGradient
       gradientUnits="userSpaceOnUse"
       gradientTransform="matrix(-1.0705868e-4,0.04846987,-1.0235483,-0.0023723,538.49225,-12.44815)"
       r="11.24949"
       fy="485.79099"
       fx="397.99051"
       cy="485.79099"
       cx="397.99051"
       id="radialGradient6178-3"
       xlink:href="#linearGradient880" />
    <linearGradient
       id="linearGradient880">
      <stop
         style="stop-color:#d8dbd8;stop-opacity:1"
         offset="0"
         id="stop876" />
      <stop
         style="stop-color:#272727;stop-opacity:0.98876405"
         offset="1"
         id="stop878" />
    </linearGradient>
    <filter
       height="1.0707442"
       y="-0.035372174"
       width="1.0508627"
       x="-0.025431326"
       id="filter1073"
       style="color-interpolation-filters:sRGB">
      <feGaussianBlur
         id="feGaussianBlur1075"
         stdDeviation="0.39283137" />
    </filter>
    <linearGradient
       gradientUnits="userSpaceOnUse"
       y2="506.87347"
       x2="414.47186"
       y1="539.61627"
       x1="406.45694"
       id="linearGradient2676"
       xlink:href="#linearGradient2668" />
    <linearGradient
       id="linearGradient2668">
      <stop
         id="stop2664"
         offset="0"
         style="stop-color:#1a1b1b;stop-opacity:1" />
      <stop
         id="stop2666"
         offset="1"
         style="stop-color:#474747;stop-opacity:1" />
    </linearGradient>
    <linearGradient
       gradientUnits="userSpaceOnUse"
       y2="505.62521"
       x2="404.77097"
       y1="530.01428"
       x1="395.58017"
       id="linearGradient2684"
       xlink:href="#linearGradient2682" />
    <linearGradient
       id="linearGradient2682">
      <stop
         id="stop2678"
         offset="0"
         style="stop-color:#000000;stop-opacity:1;" />
      <stop
         id="stop2680"
         offset="1"
         style="stop-color:#c3c3c3;stop-opacity:0" />
    </linearGradient>
    <filter
       height="1.0397525"
       y="-0.019876304"
       width="1.0307531"
       x="-0.015376566"
       id="filter2690"
       style="color-interpolation-filters:sRGB">
      <feGaussianBlur
         id="feGaussianBlur2692"
         stdDeviation="0.13069192" />
    </filter>
    <filter
       inkscape:collect="always"
       style="color-interpolation-filters:sRGB"
       id="filter24684"
       x="-0.024959943"
       y="-0.15409672"
       width="1.0499199"
       height="1.3081934">
      <feGaussianBlur
         inkscape:collect="always"
         stdDeviation="0.21554955"
         id="feGaussianBlur24686" />
    </filter>
    <linearGradient
       inkscape:collect="always"
       xlink:href="#linearGradient14607"
       id="linearGradient25029"
       gradientUnits="userSpaceOnUse"
       x1="12.020759"
       y1="7.2813473"
       x2="12.011944"
       y2="-0.7256338" />
    <linearGradient
       inkscape:collect="always"
       xlink:href="#linearGradient25153"
       id="linearGradient25155"
       x1="21.812489"
       y1="3.9335968"
       x2="4.6537294"
       y2="4.034317"
       gradientUnits="userSpaceOnUse" />
    <filter
       inkscape:collect="always"
       style="color-interpolation-filters:sRGB"
       id="filter30328"
       x="-0.060622242"
       y="-0.37427998"
       width="1.121405"
       height="1.7485472">
      <feGaussianBlur
         inkscape:collect="always"
         stdDeviation="0.2547727"
         id="feGaussianBlur30330" />
    </filter>
  </defs>
  <path
     transform="matrix(0.97737948,0,0,0.9955792,-375.68619,-481.91394)"
     id="path6220-2"
     d="m 386.25703,524.61791 0.77838,-38.71157 22.03057,0.10242 3.50545,3.40716 c 0,0 18.10956,0.35097 27.33843,0.35097 2.88877,0 6.71919,2.18928 6.71919,7.16894 0,13.1364 0.12174,26.49022 0.12174,26.49022"
     style="display:inline;fill:none;fill-opacity:1;stroke:#000000;stroke-width:0.7;stroke-linecap:butt;stroke-linejoin:miter;stroke-miterlimit:4;stroke-dasharray:none;stroke-opacity:1;filter:url(#filter940)"
     sodipodi:nodetypes="ccccssc"
     inkscape:label="dégradé arrière noir" />
  <path
     transform="matrix(0.97951183,0,0,0.99581717,-375.74319,-481.76969)"
     d="m 386.39384,486.19622 c 0,0 -0.10293,36.25523 -0.10293,49.28612 0,1.03908 0.48232,1.87652 1.08144,1.87652 h 58.39816 c 0.59911,0 1.34832,-0.83745 1.34161,-1.87652 0,0 -0.0268,-27.28049 -0.0268,-40.09035 0,-3.00572 -3.75125,-6.05898 -6.82146,-6.05898 -9.03444,0 -27.69471,-0.22684 -27.69471,-0.22684 l -4.13226,-2.8228 z"
     id="rect4180"
     style="display:inline;fill:url(#linearGradient6218);fill-opacity:1;stroke:#000a00;stroke-width:0.71;stroke-linecap:round;stroke-linejoin:bevel;stroke-miterlimit:4;stroke-dasharray:none;stroke-opacity:1;filter:url(#filter2714)"
     sodipodi:nodetypes="cssscssccc"
     inkscape:label="arrière plan" />
  <path
     transform="matrix(0.98285448,0,0,0.63708568,-377.85065,-306.12782)"
     id="path6220"
     d="m 387.04904,540.31904 0.076,-50.36617 20.73641,0.0901 1.41588,-3.75705 2.94655,4.20719 c 0,0 17.40991,0.34184 27.40616,0.34184 3.61218,0 6.32049,4.0507 6.32049,8.9451 0,12.76833 0.1165,38.20486 0.1165,38.20486"
     style="display:inline;fill:none;fill-opacity:1;stroke:url(#linearGradient850);stroke-width:1px;stroke-linecap:butt;stroke-linejoin:miter;stroke-opacity:1;filter:url(#filter2706)"
     sodipodi:nodetypes="cccccssc"
     inkscape:label="contour haut" />
  <path
     d="m 27.921427,5.4393704 v 0.380281 h 0.44553 l 25.49468,0.167876 h 0.44553 l -0.5452,-0.548167 h -0.44553 -24.94948 z"
     id="path4151-2-3-5"
     style="display:inline;fill:url(#radialGradient6178-3);fill-opacity:1;stroke-width:0.665905"
     inkscape:label="reflet haut" />
  <path
     transform="matrix(0.98033173,0,0,1.0809325,-376.17709,-528.13384)"
     style="display:inline;fill:none;fill-opacity:1;stroke:#000000;stroke-width:1.29693;stroke-linejoin:round;stroke-miterlimit:4;stroke-dasharray:none;stroke-opacity:1;filter:url(#filter1073)"
     id="path952"
     d="m 385.15633,501.64377 c 0,13.8136 0.0547,36.33599 0.0547,39.23108 0,2.8951 4.24366,4.43675 7.16501,4.43675 9.65801,10e-4 39.7482,-0.008 48.58578,-0.009 2.73024,-2.9e-4 6.73958,-3.06897 6.73961,-5.5723 4.6e-4,-8.01206 0.0257,-31.8933 0.0257,-31.8933 -21.39075,-0.31416 -23.00468,-0.49626 -28.48106,-3.68616 -5.47637,-3.18989 -6.84254,-3.7889 -8.06758,-3.79572 -8.19718,-0.0456 -25.32423,-0.0254 -25.32423,-0.0254 0,0 -0.68932,-0.094 -0.698,1.31379 z"
     inkscape:label="ombrage folder"
     sodipodi:nodetypes="czcscczsccc" />
  <path
     transform="matrix(0.98033173,0,0,0.99785682,-375.91134,-483.82641)"
     style="display:inline;fill:url(#linearGradient2676);fill-opacity:1;stroke:url(#linearGradient2684);stroke-width:1.29693;stroke-linejoin:round;stroke-miterlimit:4;stroke-dasharray:none;stroke-opacity:1;filter:url(#filter2690)"
     id="path952-7"
     d="m 385.15633,498.35321 c 0,13.8136 0.0547,28.03631 0.0547,40.41503 0,6.52543 4.5187,6.67224 7.29021,6.67224 9.65801,10e-4 38.73653,0 47.57411,0 4.29557,0 7.62608,-4.19689 7.62608,-7.71933 4.6e-4,-8.01206 0.0257,-32.38987 0.0257,-32.38987 -22.81136,0 -23.57647,-0.13663 -31.18143,-4.28484 -5.62028,-3.06564 -5.63216,-3.98161 -7.35295,-3.98161 -8.19718,-0.0456 -23.33849,-0.0254 -23.33849,-0.0254 0,0 -0.68932,-0.094 -0.698,1.31379 z"
     inkscape:label="premier plan folder"
     sodipodi:nodetypes="cscsccscccc" />
  <path
     style="display:inline;mix-blend-mode:normal;fill:currentColor;stroke:none;stroke-width:0.390115;stroke-miterlimit:4;stroke-dasharray:none;filter:url(#filter24684)"
     d="M 3.1185124,2.3943988 C 2.9060465,2.5755409 2.8406898,2.662737 2.8406898,3.1723004 c 0,0.7470828 0.00654,2.4587688 0.00654,2.4587688 H 22.075746 l 0.993727,-1.6353471 c 0,0 0.682408,-0.9793708 0.44826,-1.410869 -0.123324,-0.2272669 -0.513311,-0.2662912 -1.075516,-0.2662912 -0.820732,0 -18.1692197,-0.041813 -18.4326201,-0.041813 0,0 -0.7160982,-0.031538 -0.8910845,0.1176499 z"
     class="ColorScheme-Highlight"
     id="path4"
     sodipodi:nodetypes="sscccsscs"
     inkscape:label="AA-couleur-courant" />
  <path
     style="color:#3daee9;display:inline;fill:url(#linearGradient25155);fill-opacity:1;stroke:url(#linearGradient25029);stroke-width:1.29;stroke-miterlimit:4;stroke-dasharray:none;filter:url(#filter30328)"
     d="M 3.1185124,2.3943988 C 2.9060465,2.5755409 2.8406898,2.662737 2.8406898,3.1723004 c 0,0.7470828 0.00654,2.4587688 0.00654,2.4587688 H 22.075746 l 0.993727,-1.6353471 c 0,0 0.682408,-0.9793708 0.44826,-1.410869 -0.123324,-0.2272669 -0.513311,-0.2662912 -1.075516,-0.2662912 -0.820732,0 -18.1692197,-0.041813 -18.4326201,-0.041813 0,0 -0.7160982,-0.031538 -0.8910845,0.1176499 z"
     class="ColorScheme-Highlight"
     id="path4-0"
     sodipodi:nodetypes="sscccsscs"
     inkscape:label="AA-degradé" />
  <path
     d="m 29.161462,41.874891 -2.684246,-0.269424 c -0.09024,0 -0.180478,-0.06737 -0.202985,-0.15727 -0.112802,-0.291974 -0.22563,-0.58382 -0.360927,-0.875785 -0.04517,-0.08974 -0.02252,-0.179676 0.02252,-0.269438 l 1.691734,-2.065962 c 0.270618,-0.336771 0.248123,-0.808417 -0.06755,-1.12281 L 25.958553,35.49736 c -0.293281,-0.291963 -0.789556,-0.336763 -1.127814,-0.06725 l -2.07519,1.684205 c -0.06759,0.06728 -0.180471,0.06728 -0.270627,0.0224 -0.293278,-0.134707 -0.56391,-0.269424 -0.879697,-0.359334 -0.09018,-0.02245 -0.157964,-0.112307 -0.157964,-0.202066 l -0.27067,-2.649773 C 21.131291,33.498847 20.770616,33.184495 20.342,33.184495 h -2.300787 c -0.428621,0 -0.789544,0.314379 -0.834533,0.741056 l -0.2708,2.67233 c 0,0.08976 -0.06759,0.179669 -0.157965,0.202064 -0.293288,0.112305 -0.586429,0.22462 -0.879703,0.359338 -0.09018,0.04507 -0.180473,0.02242 -0.270626,-0.0224 l -2.075194,-1.684364 c -0.338269,-0.269427 -0.812026,-0.247023 -1.127813,0.06724 l -1.62406,1.594469 c -0.293272,0.291983 -0.338272,0.78605 -0.06755,1.122825 l 1.691723,2.065963 c 0.06754,0.06737 0.06754,0.179665 0.02247,0.269424 -0.135299,0.291973 -0.270623,0.561397 -0.360935,0.875784 -0.02247,0.08974 -0.112804,0.157271 -0.202961,0.157271 L 9.2217,41.874918 c -0.428611,0.04499 -0.744363,0.404134 -0.744363,0.83084 v 2.290578 c 0,0.426706 0.31578,0.78605 0.744363,0.830843 l 2.68425,0.269582 c 0.09017,0 0.180463,0.06736 0.202971,0.157258 0.112807,0.291986 0.225625,0.583832 0.360937,0.875796 0.04527,0.08974 0.02246,0.179664 -0.02246,0.269424 l -1.691952,2.065997 c -0.27063,0.336787 -0.248131,0.80842 0.06757,1.12281 l 1.624054,1.61684 c 0.293292,0.291977 0.789557,0.336777 1.127825,0.06734 l 2.07519,-1.68421 c 0.06757,-0.06735 0.18047,-0.06735 0.270629,-0.0224 0.293269,0.134714 0.563895,0.269427 0.879703,0.359335 0.09018,0.02243 0.157961,0.112316 0.157961,0.202072 l 0.270633,2.649749 c 0.04526,0.426704 0.405925,0.741054 0.834541,0.741054 h 2.300795 c 0.42861,0 0.789548,-0.314382 0.834544,-0.741054 l 0.248295,-2.672326 c 0,-0.08974 0.06755,-0.179666 0.157975,-0.202064 0.293274,-0.112313 0.586418,-0.224624 0.879696,-0.35934 0.09018,-0.045 0.180465,-0.02241 0.270623,0.0224 l 2.075192,1.684205 c 0.338281,0.269427 0.812029,0.247029 1.127819,-0.06736 l 1.624047,-1.616849 c 0.29329,-0.291987 0.338288,-0.786048 0.06754,-1.122815 l -1.691694,-2.065939 c -0.06755,-0.06733 -0.06755,-0.179672 -0.02253,-0.269425 0.135307,-0.291985 0.270621,-0.56141 0.360928,-0.875797 0.02253,-0.08974 0.112824,-0.15727 0.202973,-0.15727 l 2.661566,-0.269424 c 0.428623,-0.04499 0.744373,-0.404131 0.744373,-0.830841 v -2.268038 c 0,-0.426698 -0.315786,-0.786042 -0.744373,-0.830997 z m -12.270668,3.682805 c 0.135313,0.134718 0.112806,0.33678 -0.02247,0.471664 l -0.49624,0.471661 c -0.06766,0.06737 -0.135322,0.08974 -0.225631,0.08974 -0.09018,0 -0.180473,-0.04499 -0.225637,-0.112312 l -2.30063,-2.402737 c -0.112826,-0.134705 -0.112826,-0.336772 0,-0.449075 l 2.278155,-2.402889 c 0.06764,-0.06735 0.135322,-0.112311 0.225622,-0.112311 0.09018,0 0.157975,0.02242 0.225625,0.08973 l 0.496262,0.471662 c 0.135298,0.134711 0.135298,0.33678 0.02249,0.471655 l -1.601579,1.706623 z m 3.654263,-4.221749 -1.375939,5.389475 c -0.02249,0.08974 -0.06766,0.157271 -0.157974,0.202071 -0.04526,0.02241 -0.112822,0.04499 -0.180473,0.04499 h -0.09017 l -0.676742,-0.179701 c -0.09018,-0.02238 -0.157977,-0.06733 -0.202975,-0.157265 -0.02255,-0.08974 -0.04525,-0.179515 -0.02255,-0.269428 l 1.375936,-5.389481 c 0.02252,-0.08974 0.0676,-0.157264 0.157969,-0.202064 0.09018,-0.045 0.180466,-0.06737 0.248131,-0.045 l 0.676726,0.179662 c 0.180474,0.04501 0.293133,0.24703 0.248135,0.426707 z m 4.218038,2.739647 -2.278156,2.402729 c -0.0676,0.06737 -0.135323,0.112313 -0.225623,0.112313 -0.09018,0 -0.157972,-0.02238 -0.225629,-0.08974 l -0.496242,-0.471652 c -0.06763,-0.06737 -0.112812,-0.134714 -0.112812,-0.224625 0,-0.08974 0.02253,-0.17967 0.09018,-0.24703 l 1.601586,-1.706632 -1.601586,-1.706624 c -0.06757,-0.06732 -0.09018,-0.157262 -0.09018,-0.247017 0,-0.08974 0.04522,-0.179678 0.112812,-0.224636 l 0.496242,-0.47165 c 0.135303,-0.134718 0.338274,-0.112312 0.47377,0.0224 l 2.255633,2.402888 c 0.135303,0.112311 0.135303,0.314379 0,0.449246 z"
     id="path4194-6-9-8-2"
     style="fill:#646464;fill-opacity:1;stroke-width:0.0401893" />
</svg>
