<svg version="1.1" viewBox="0 0 64 64" xmlns="http://www.w3.org/2000/svg" xmlns:xlink="http://www.w3.org/1999/xlink">
<defs>
<style id="current-color-scheme" type="text/css">.ColorScheme-Highlight {
        color:#3daee9;
      }</style>
<linearGradient id="linearGradient6218-9" x1="408.33" x2="437.79" y1="555.74" y2="492.4" gradientTransform="matrix(.49005 0 0 .42369 -187.99 -204.88)" gradientUnits="userSpaceOnUse">
<stop style="stop-color:#353a3f;stop-opacity:.99608" offset="0"/>
<stop style="stop-color:#272727;stop-opacity:.98876" offset="1"/>
</linearGradient>
<linearGradient id="linearGradient850-2" x1="392.59" x2="420.29" y1="501.23" y2="503.48" gradientTransform="matrix(.49143 0 0 .31854 -188.93 -153.06)" gradientUnits="userSpaceOnUse">
<stop style="stop-color:#444647" offset="0"/>
<stop style="stop-color:#696969;stop-opacity:.42697" offset="1"/>
</linearGradient>
<radialGradient id="radialGradient6178-3-8" cx="397.99" cy="485.79" r="11.249" gradientTransform="matrix(-5.353e-5 .024235 -.51175 -.0011862 269.24 -6.224)" gradientUnits="userSpaceOnUse">
<stop style="stop-color:#d8dbd8" offset="0"/>
<stop style="stop-color:#272727;stop-opacity:.98876" offset="1"/>
</radialGradient>
<linearGradient id="linearGradient2676-3" x1="406.46" x2="414.47" y1="539.62" y2="506.87" gradientTransform="matrix(.49017 0 0 .49893 -187.96 -241.91)" gradientUnits="userSpaceOnUse">
<stop style="stop-color:#1a1b1b" offset="0"/>
<stop style="stop-color:#474747" offset="1"/>
</linearGradient>
<linearGradient id="linearGradient2684-0" x1="395.58" x2="404.77" y1="530.01" y2="505.63" gradientTransform="matrix(.49017 0 0 .49893 -187.96 -241.91)" gradientUnits="userSpaceOnUse">
<stop offset="0"/>
<stop style="stop-color:#c3c3c3;stop-opacity:0" offset="1"/>
</linearGradient>
<linearGradient id="linearGradient25155-1" x1="21.812" x2="4.0043" y1="3.9336" y2="4" gradientTransform="matrix(.5 0 0 .5 -.0021617 5.801e-7)" gradientUnits="userSpaceOnUse">
<stop style="stop-color:#1b1b1b" offset="0"/>
<stop style="stop-color:#090909;stop-opacity:.24541" offset=".49971"/>
<stop style="stop-color:#010101;stop-opacity:.23889" offset=".813"/>
<stop style="stop-opacity:.87011" offset="1"/>
</linearGradient>
<linearGradient id="linearGradient24" x1="12.021" x2="12.012" y1="7.2813" y2="-.72563" gradientTransform="matrix(.5 0 0 .5 -.0021617 5.801e-7)" gradientUnits="userSpaceOnUse" xlink:href="#linearGradient25029-7"/>
<linearGradient id="linearGradient25029-7" x1="12.021" x2="12.012" y1="7.2813" y2="-.72563" gradientUnits="userSpaceOnUse">
<stop style="stop-color:#4f5152" offset="0"/>
<stop style="stop-color:#010501" offset="1"/>
</linearGradient>
</defs>
<g transform="matrix(1.9784 0 0 2.0002 .67557 -.0032053)">
<path d="m1.2242 20.001v-18s0.023457-0.85555 0.77653-0.85555c0 0 9.7948-0.014237 9.9468 0l2.4893 1.8542 12.564 0.00149c3 0 3 3 3 3v14" style="fill:none;stroke-width:.34525;stroke:#000"/>
<path d="m2.0002 0.99966c-0.77656 0-0.77656 1-0.77656 1v20h28.776s5e-6 -9.6216 0-16c0-3-3.1212-3.2803-3.1212-3.2803l-12.691-0.076857-1.7782-1.3353c-0.26034-0.19459-0.47317-0.30754-0.82329-0.30754z" style="fill:url(#linearGradient6218-9);stroke-linecap:round;stroke-linejoin:bevel;stroke-width:.251;stroke:#000a00"/>
<path d="m1.278 19.054 0.037349-16.044 10.026 0.0287 0.65837-1.0386 1.6495 1.182h13.351c2.662 0 2.662 2.6617 2.662 2.6617v9" style="fill:none;stroke-width:.39565px;stroke:url(#linearGradient850-2)"/>
<path d="m14 2.6429v0.35716s8.6765-0.028469 13-5e-7l0.7982 0.080745s-0.49566-0.35848-0.9194-0.36105c-0.0032-1.93e-5 -12.879-0.076855-12.879-0.076855z" style="fill:url(#radialGradient6178-3-8);stroke-width:.33295"/>
<path d="m0.99798 6.9973v20s0 3 3 3c0 0 19.668 5.4e-4 24 0 3-3.51e-4 3-3 3-3 2.25e-4 -4.3303 0-16 0-16s0-0.99998-1-0.99998c0 0-9.8034 0-13.425-2-1.9089-1.054-3.0486-1.7447-4.0207-1.7447h-10.574c-1 0-0.97931 0.74471-0.97931 0.74471z" style="fill:none;stroke-linejoin:round;stroke-width:.66752;stroke:#000"/>
<path d="m0.85839 26.894s0.1312 3.104 3.1393 3.104c4.7341 4.99e-4 19.669 0 24 0 3 0 3-3 3-3v-16c0-1-1-1-1-1s-10.387 0.00579-14-2c-2.7549-1.5295-3-2-4-2h-10c-1 0-1 1-1 1z" style="fill:url(#linearGradient2676-3);stroke-linejoin:round;stroke-width:.64136;stroke:url(#linearGradient2684-0)"/>
<path class="ColorScheme-Highlight" d="m1.2234 2 1.1e-6 1h9.7765v-1.8559l-8.7765-1.2e-6c-1 1.2e-6 -1 0.8559-1 0.8559z" style="fill:currentColor;mix-blend-mode:normal;stroke-width:.5"/>
<path d="m2.2234 1.1216c-1 0-1 0.6233-1 0.87805v1.0102h9.7765s1.0444-1.3506 1-1.6128c-0.13862-0.25456-0.7189-0.27554-1-0.27554z" style="color:#3daee9;fill:url(#linearGradient25155-1);stroke-width:.345;stroke:url(#linearGradient24)"/>
<path d="m2.2234 1.3899c-1 0-1 0.6233-1 0.87805v0.74205h9.8595s0.5933-0.8606 0.9172-1.3677c-0.16569-0.20501-0.7189-0.25239-1-0.25239z" style="color:#3daee9;fill:none;stroke-width:.345;stroke:url(#linearGradient24)"/>
</g>
<path d="m19.214 33.184c-5.9169 0-10.714 4.7755-10.714 10.667 0 5.8911 4.7974 10.667 10.714 10.667 5.9169 0 10.714-4.7755 10.714-10.667 0-5.8912-4.7974-10.667-10.714-10.667zm0.05136 1.4772c5.0982 0 9.2344 4.1145 9.2344 9.1895 0 5.0755-4.1368 9.1895-9.2344 9.1895-2.7528 0-5.2229-1.2011-6.914-3.1038 0.69531-0.53725 1.8586-0.40617 3.2912-0.24358 0.68655 0.07769 1.4692 0.1667 2.277 0.18464 2.2569 0.01297 4.6852-0.39702 6.1839-1.049 0.96893-0.42305 1.5893-0.70166 1.9771-1.0529 0.13984-0.11422 0.21325-0.30496 0.2881-0.50287l0.05129-0.1336c0.06282-0.15986 0.15296-0.50388 0.19336-0.69146 0.018-0.08213 0.02703-0.1704-0.03162-0.21608l-0.20916 0.03926c-0.65761 0.39261-2.3006 1.1403-3.8398 1.1708-1.9073 0.03976-5.7514-1.9115-6.1523-2.1176l-0.03946-0.04717c-0.0961-0.22839-0.6714-1.588-0.79321-1.874 2.767 1.814 5.0611 2.818 6.8193 2.9741 1.9548 0.17291 3.4797-0.8896 4.1318-1.3437 0.12727-0.08642 0.22454-0.15425 0.2644-0.16894l0.04332-0.07073c-0.10809-0.68403-1.1337-3.9942-1.906-4.7892-0.21413-0.21805-0.38435-0.43025-0.7301-0.63254-2.7954-1.622-9.4327-2.5989-9.7435-2.6441l-0.0513 0.01567-0.0197 0.04312s-0.0249 1.3721-0.0277 1.5244c-0.22776-0.07498-0.93401-0.30524-1.9456-0.58147 1.3198-1.6259 3.3425-3.0684 6.8824-3.0684zm2.4388 4.8639c0.0472-7.07e-4 0.09465-0.0013 0.14207 0 1.5659 0.05594 2.7962 1.3691 2.7427 2.927-0.02786 0.75367-0.34703 1.45-0.89976 1.9644-0.55438 0.51712-1.2749 0.78665-2.0363 0.76219-1.5632-0.05811-2.7935-1.3712-2.7427-2.927 0.02675-0.75475 0.34768-1.4556 0.9037-1.9683 0.51921-0.48478 1.1838-0.7477 1.8903-0.75825zm-0.07503 0.8329c-0.45607 0.02762-0.88644 0.21197-1.2234 0.52647-0.38395 0.35887-0.61052 0.84478-0.62744 1.3711-0.0361 1.0875 0.81872 2.0027 1.91 2.043 0.53036 0.01639 1.0334-0.16865 1.4207-0.52645 0.38615-0.36052 0.61108-0.85089 0.62746-1.3751 0.0365-1.0892-0.82214-2.001-1.914-2.039-0.0661-0.0021-0.12821-0.0033-0.19336 0zm0.52092 0.98612c0.485 0 0.87608 0.2624 0.87608 0.58539 0 0.32138-0.39107 0.58539-0.87608 0.58539-0.48667 0-0.88004-0.26457-0.88004-0.58539 0-0.32299 0.39337-0.58539 0.88004-0.58539z" style="color:#4d4d4d;fill-rule:evenodd;fill:#646464"/>
</svg>
