<?xml version="1.0" encoding="UTF-8" standalone="no"?>
<!-- Created with Inkscape (http://www.inkscape.org/) -->

<svg
   width="64"
   version="1.1"
   height="64"
   id="svg891"
   sodipodi:docname="smartphone.svg"
   inkscape:version="1.1.2 (0a00cf5339, 2022-02-04)"
   xmlns:inkscape="http://www.inkscape.org/namespaces/inkscape"
   xmlns:sodipodi="http://sodipodi.sourceforge.net/DTD/sodipodi-0.dtd"
   xmlns:xlink="http://www.w3.org/1999/xlink"
   xmlns="http://www.w3.org/2000/svg"
   xmlns:svg="http://www.w3.org/2000/svg">
  <sodipodi:namedview
     id="namedview893"
     pagecolor="#ffffff"
     bordercolor="#000000"
     borderopacity="0.25"
     inkscape:showpageshadow="2"
     inkscape:pageopacity="0.0"
     inkscape:pagecheckerboard="0"
     inkscape:deskcolor="#d1d1d1"
     showgrid="true"
     inkscape:zoom="7.3751237"
     inkscape:cx="-38.643419"
     inkscape:cy="36.134987"
     inkscape:window-width="3440"
     inkscape:window-height="1359"
     inkscape:window-x="0"
     inkscape:window-y="0"
     inkscape:window-maximized="1"
     inkscape:current-layer="layer1"
     inkscape:pageshadow="2">
    <inkscape:grid
       type="xygrid"
       id="grid1012" />
  </sodipodi:namedview>
  <defs
     id="defs5455">
    <linearGradient
       inkscape:collect="always"
       id="linearGradient4298"
       xlink:href="#linearGradient4303"
       y1="545.79797"
       y2="517.79797"
       gradientUnits="userSpaceOnUse"
       x2="0"
       gradientTransform="matrix(1.6666664 0 0 1.8571411 -259.04764 -463.82593)" />
    <linearGradient
       inkscape:collect="always"
       id="linearGradient4303">
      <stop
         style="stop-color:#c6cdd1"
         id="stop4305" />
      <stop
         offset="1"
         style="stop-color:#e0e5e7"
         id="stop4307" />
    </linearGradient>
  </defs>
  <metadata
     id="metadata5458" />
  <g
     inkscape:label="Capa 1"
     inkscape:groupmode="layer"
     id="layer1"
     transform="translate(-376.57144,-491.79797)">
    <rect
       width="29.999998"
       x="393.57144"
       y="497.79797"
       height="51.99995"
       style="fill:url(#linearGradient4298)"
       id="rect4232"
       ry="4.9999962" />
    <rect
       style="display:inline;fill:#000001;fill-opacity:1;fill-rule:evenodd;stroke:none;stroke-width:0.1;stroke-linejoin:round;stroke-miterlimit:4;stroke-dasharray:none;paint-order:markers fill stroke"
       id="rect1167"
       width="28.000034"
       height="50"
       x="394.57144"
       y="498.79797"
       ry="3.9999962" />
    <rect
       width="21.999996"
       x="397.57144"
       y="548.89795"
       height="0.86443728"
       style="fill:#99a1a7;stroke-width:0.957428"
       id="rect4180"
       ry="0.29659674"
       rx="0.44208023" />
    <path
       inkscape:connector-curvature="0"
       style="fill:#b2b3b5;fill-opacity:1;stroke-width:0.1;stroke-linecap:square"
       id="path4518"
       d="m 411.57149,543.79797 a 2.000012,2.000012 0 0 0 -2,2 2.000012,2.000012 0 0 0 2,2 2.000012,2.000012 0 0 0 2,-2 2.000012,2.000012 0 0 0 -2,-2 z" />
    <path
       inkscape:connector-curvature="0"
       style="fill:#b2b3b5;fill-opacity:1;stroke-width:0.1;stroke-linecap:square"
       id="path4715"
       d="m 406.57144,543.79797 a 2,2 0 0 0 -2,2 2,2 0 0 0 2,2 2,2 0 0 0 2,-2 2,2 0 0 0 -2,-2 z" />
    <path
       inkscape:connector-curvature="0"
       style="fill:#b2b3b5;fill-opacity:1;stroke-width:0.1;stroke-linecap:square"
       id="path4713"
       d="m 416.57144,543.79797 a 2,2 0 0 0 -2,2 2,2 0 0 0 2,2 2,2 0 0 0 2,-2 2,2 0 0 0 -2,-2 z" />
    <path
       inkscape:connector-curvature="0"
       style="fill:#b2b3b5;fill-opacity:1;stroke-width:0.1;stroke-linecap:square"
       id="path4268"
       d="m 401.57149,543.79797 a 2,2 0 0 0 -2,2 2,2 0 0 0 2,2 2,2 0 0 0 2,-2 2,2 0 0 0 -2,-2 z" />
    <circle
       cx="419.07141"
       cy="499.90823"
       style="fill:#ffffff"
       id="path4212"
       r="0.5" />
    <circle
       cx="417.07141"
       cy="499.90823"
       style="fill:#ffffff"
       r="0.5"
       id="circle4214" />
    <circle
       cx="398.07144"
       cy="499.90823"
       style="fill:#ffffff"
       id="circle4216"
       r="0.5" />
  </g>
</svg>
