<?xml version="1.0" encoding="UTF-8" standalone="no"?>
<svg
  viewBox="0 0 32 32"
  version="1.1"
  id="svg2"
  xmlns:xlink="http://www.w3.org/1999/xlink"
  xmlns="http://www.w3.org/2000/svg"
  xmlns:svg="http://www.w3.org/2000/svg">
 <defs
   id="defs3051">
  <style
    type="text/css"
    id="current-color-scheme">
      .ColorScheme-Text {
        color:#eff0f1;
      }
      </style>
  <linearGradient
    xlink:href="#linearGradient3"
    id="linearGradient4"
    x1="4.7024746"
    y1="19.687378"
    x2="10.658792"
    y2="5.7927022"
    gradientUnits="userSpaceOnUse"
    gradientTransform="matrix(0.74772591,0,0,0.74572675,2.7388863,3.2003647)" />
  <linearGradient
    id="linearGradient3">
   <stop
     style="stop-color:#000000;stop-opacity:1;"
     offset="0"
     id="stop3" />
   <stop
     style="stop-color:#424242;stop-opacity:1;"
     offset="1"
     id="stop4" />
  </linearGradient>
  <linearGradient
    xlink:href="#linearGradient1"
    id="linearGradient2"
    x1="12.27809"
    y1="4.480504"
    x2="12.27809"
    y2="16.654114"
    gradientUnits="userSpaceOnUse"
    gradientTransform="matrix(0.74772591,0,0,0.74572675,2.7388863,3.2003647)" />
  <linearGradient
    id="linearGradient1">
   <stop
     style="stop-color:#0a8eff;stop-opacity:0.87261772;"
     offset="0"
     id="stop1" />
   <stop
     style="stop-color:#54abfa;stop-opacity:1;"
     offset="1"
     id="stop2" />
  </linearGradient>
  <linearGradient
    xlink:href="#b"
    id="g"
    y1="527.79797"
    x2="0"
    y2="504.798"
    gradientUnits="userSpaceOnUse"
    gradientTransform="matrix(0.64266998,0,0,0.64095169,-240.37405,-317.09526)" />
  <linearGradient
    id="b">
   <stop
     stop-color="#fff"
     id="stop7" />
   <stop
     offset="1"
     stop-color="#fff"
     stop-opacity="0"
     id="stop9" />
  </linearGradient>
  <linearGradient
    xlink:href="#linearGradient3487"
    id="linearGradient3403"
    gradientUnits="userSpaceOnUse"
    x1="6.9491749"
    y1="4.5549412"
    x2="11.215498"
    y2="59.052471" />
  <linearGradient
    id="linearGradient3487">
   <stop
     style="stop-color:#32373c;stop-opacity:1"
     offset="0"
     id="stop3481" />
   <stop
     id="stop3483"
     offset="0.36804965"
     style="stop-color:#1a1a1a;stop-opacity:1" />
   <stop
     style="stop-color:#31363b;stop-opacity:1"
     offset="1"
     id="stop3485" />
  </linearGradient>
  <linearGradient
    xlink:href="#linearGradient20604"
    id="linearGradient20558"
    gradientUnits="userSpaceOnUse"
    x1="25.802212"
    y1="20.373846"
    x2="25.111048"
    y2="58.912758" />
  <linearGradient
    id="linearGradient20604">
   <stop
     id="stop20598"
     offset="0"
     style="stop-color:#3d3d3d;stop-opacity:1" />
   <stop
     style="stop-color:#000000;stop-opacity:1"
     offset="0.61772454"
     id="stop20600" />
   <stop
     id="stop20602"
     offset="1"
     style="stop-color:#3d3d3d;stop-opacity:1" />
  </linearGradient>
  <filter
    style="color-interpolation-filters:sRGB"
    id="filter20720"
    x="-0.010585461"
    y="-0.010232555"
    width="1.0211705"
    height="1.0204651">
   <feGaussianBlur
     stdDeviation="8.7341527e-05"
     id="feGaussianBlur20722" />
  </filter>
  <linearGradient
    gradientTransform="translate(0.36067797,-0.13016949)"
    xlink:href="#linearGradient4555"
    id="linearGradient4557"
    x1="43.499737"
    y1="64.011795"
    x2="44.141731"
    y2="0.30621234"
    gradientUnits="userSpaceOnUse" />
  <linearGradient
    id="linearGradient4555">
   <stop
     style="stop-color:#141618;stop-opacity:1"
     offset="0"
     id="stop4551" />
   <stop
     id="stop4559"
     offset="0.51820582"
     style="stop-color:#686868;stop-opacity:1" />
   <stop
     style="stop-color:#31363b;stop-opacity:1"
     offset="1"
     id="stop4553" />
  </linearGradient>
  <filter
    style="color-interpolation-filters:sRGB"
    id="filter4601"
    x="-0.029681004"
    width="1.059362"
    y="-0.029539575"
    height="1.0590791">
   <feGaussianBlur
     stdDeviation="9.333079e-05"
     id="feGaussianBlur4603" />
  </filter>
 </defs>
 <g
   id="g5"
   transform="matrix(1.499832,0,0,1.5001674,-2.3864251,-2.6388731)">
  <path
    d="M 5.6345752,5.8149043 V 19.474066 H 15.884292 a 2.314959,2.264006 0 0 0 2.320196,-2.269128 V 8.0840325 A 2.314959,2.264006 0 0 0 15.884292,5.8149043 H 7.9547719 Z"
    id="path32"
    style="fill:url(#linearGradient4);fill-opacity:1;stroke-width:0.345301"
    transform="matrix(1.0632004,0,0,1.0954983,0.71828773,-1.5134171)" />
  <path
    d="m 5.8782881,19.132587 v 0.341479 H 15.929278 c 0.315002,0 0.615283,-0.06282 0.887486,-0.17757 0.0921,-0.03858 0.158871,-0.114054 0.244126,-0.163909 z"
    id="path34"
    style="opacity:0.15;stroke-width:0.341936"
    transform="matrix(1.0632004,0,0,1.0954983,0.71828773,-1.5134171)" />
  <path
    d="m 17.06089,19.132587 c 0.167432,-0.09801 0.342738,-0.185765 0.479012,-0.321333 0.0055,-0.0058 0.0075,-0.01435 0.01335,-0.02014 H 6.5630771 v 0.341479 z"
    id="path38"
    style="fill:#8b8f8f;stroke-width:0.341936"
    transform="matrix(1.0632004,0,0,1.0954983,0.71828773,-1.5134171)" />
  <path
    d="m 17.553255,18.791108 c 0.09621,-0.09801 0.153392,-0.227084 0.230431,-0.34148 H 6.5630771 v 0.34148 z"
    id="path40"
    style="fill:#212323;fill-opacity:0.452;stroke-width:0.341936"
    transform="matrix(1.0632004,0,0,1.0954983,0.71828773,-1.5134171)" />
  <path
    d="M 11.919532,5.8149043 V 16.711084 l 2.57068,-1.479959 2.570678,1.479959 V 5.8149043 Z"
    id="path42"
    style="fill:url(#linearGradient2);fill-opacity:1;stroke-width:0.641812"
    transform="matrix(1.0632004,0,0,1.0954983,0.71828773,-1.5134171)" />
  <path
    id="path29"
    d="m 19.602964,6.4492052 h 0.599269 c 0.0071,-5.68e-5 0.01246,-2.126e-4 0.01871,0 0.1528,0.0044 0.305547,0.076913 0.412004,0.186908 L 22,8 23.385788,6.6361132 c 0.159177,-0.1378829 0.267668,-0.182726 0.411999,-0.186908 h 0.59926 v 0.5978685 c 0,0.1712175 -0.02045,0.3292661 -0.149813,0.4484128 l -1.367074,1.3638483 1.348343,1.3452272 c 0.112777,0.112502 0.168542,0.271185 0.168542,0.429774 v 0.597863 h -0.599256 c -0.158994,-6e-6 -0.317964,-0.05536 -0.430723,-0.168084 L 21.999973,9.7002226 20.632921,11.064113 c -0.112795,0.112483 -0.271749,0.168084 -0.430729,0.168084 h -0.599237 v -0.597861 c 0,-0.158573 0.05584,-0.317299 0.16856,-0.429774 L 21.138576,8.8593348 19.771497,7.4954865 C 19.645214,7.3790814 19.589834,7.2149743 19.602955,7.0470737 Z"
    style="fill:#2f2f30;fill-opacity:1;stroke-width:0.408276"
    transform="matrix(0.66674134,0,0,0.66659227,1.5911283,1.7590524)" />
  <path
    d="m 12.562202,5.8149043 h 3.85602 V 15.42918 l -1.92801,-1.281904 -1.92801,1.281904 z"
    id="path44"
    style="display:inline;opacity:0.15;fill:url(#g);stroke-width:0.641812"
    transform="matrix(1.0632004,0,0,1.0954983,0.71828773,-1.5134171)" />
  <path
    style="display:inline;mix-blend-mode:normal;fill:url(#linearGradient3403);fill-opacity:1;stroke:url(#linearGradient20558);stroke-width:1.16242;stroke-linecap:butt;stroke-linejoin:round;stroke-miterlimit:4;stroke-dasharray:none;stroke-opacity:1"
    d="M 4.7043071,3.9814882 4.6913695,60.80196 H 58.59546 l 1.022155,-2.866369 c 0,0 -23.87537,0.766388 -32.844441,-4.140386 C 16.257548,48.042344 11.401114,4.0978197 11.401114,4.0978197 Z"
    id="path1686"
    transform="matrix(0.25743946,0,0,0.25675115,4.0329895,4.2178376)" />
  <rect
    style="display:inline;fill:none;fill-opacity:1;stroke:url(#linearGradient4557);stroke-width:3.71366;stroke-linejoin:round;stroke-miterlimit:7.8;stroke-dasharray:none;stroke-opacity:0.995146"
    id="rect4539"
    width="62.567089"
    height="62.866646"
    x="1.0323594"
    y="0.59551275"
    ry="6.2447233"
    rx="5.8029528"
    transform="matrix(0.24116484,0,0,0.24002982,4.4655296,4.7366535)" />
 </g>
</svg>
