<svg viewBox="0 0 32 32" xmlns="http://www.w3.org/2000/svg">
<style type="text/css" id="current-color-scheme">.ColorScheme-Text {color:#fcfcfc;}</style>
    <g class="ColorScheme-Text" fill="currentColor">
        <path d="M 16 4 C 14.500001 4 14.5 5.4941406 14.5 5.4941406 L 14.5 26.425781 C 14.5 26.425781 14.522797 27.921891 16 27.921875 C 17.477199 27.92186 17.5 26.425781 17.5 26.425781 L 17.5 5.4941406 C 17.5 5.4941406 17.499999 4 16 4 z M 19 4.3828125 L 19 5.7070312 A 10.724531 10.724531 0 0 1 26.724609 16 A 10.724531 10.724531 0 0 1 19 26.292969 L 19 27.595703 A 12 12 0 0 0 28 16 A 12 12 0 0 0 19 4.3828125 z M 13.009766 4.4023438 A 12 12 0 0 0 4 16 A 12 12 0 0 0 13.009766 27.597656 L 13.009766 26.277344 A 10.724531 10.724531 0 0 1 5.2753906 16 A 10.724531 10.724531 0 0 1 13.009766 5.7226562 L 13.009766 4.4023438 z "/>
    </g>
</svg>
