<?xml version="1.0" encoding="UTF-8" standalone="no"?>
<svg
  version="1.1"
  viewBox="0 0 32 32"
  id="svg1"
  xmlns="http://www.w3.org/2000/svg"
  xmlns:svg="http://www.w3.org/2000/svg">
 <defs
   id="defs1">
  <style
    type="text/css"
    id="current-color-scheme">
            .ColorScheme-Text {
                color:#fcfcfc;
            }
        </style>
 </defs>
 <path
   id="path1"
   class="ColorScheme-Text"
   d="M 16,4 C 9.3725896,4 4,9.3725896 4,16 c 0,4.014225 1.3430357,7.011135 4.370117,9.189607 0,0 0.6013975,0.336921 0.6013975,-0.264477 0,-0.601397 -0.6013975,-1.013667 -0.6013975,-1.013667 C 5.9278399,21.893873 5,19.415281 5,16 5,9.9248741 9.9248741,5 16,5 c 6.075126,0 11,4.9248741 11,11 0,3.415281 -0.938541,5.914971 -3.380818,7.932561 0,0 -0.619182,0.388407 -0.619182,0.992569 0,0.604162 0.629883,0.325265 0.629883,0.325265 C 26.656964,23.071923 28,20.014225 28,16 28,9.3725896 22.62741,4 16,4 Z m 0,8 c -2.215998,0 -4,1.784002 -4,4 v 4 c 0,0 -2,0 -2,2 v 4 c 0,2 2,2 2,2 h 8 c 0,0 2,0 2,-2 v -4 c 0,-2 -2,-2 -2,-2 v -4 c 0,-2.215998 -1.784002,-4 -4,-4 z m 0,1 c 1.661998,0 3,1.561002 3,3.5 V 20 H 13 V 16.5 C 13,14.561002 14.338002,13 16,13 Z" fill="currentColor"/>
</svg>
