<svg xmlns="http://www.w3.org/2000/svg" viewBox="0 0 32 32">
  <defs
     id="defs3051">
<style type="text/css" id="current-color-scheme">.ColorScheme-Text {color:#fcfcfc;}</style>
  </defs>
  <path
     style="fill:currentColor;fill-opacity:1;stroke:none" 
     d="M 14.5 4 L 14.5 13 C 14.5 13 14.500001 14.5 16 14.5 C 17.499999 14.5 17.5 13 17.5 13 L 17.5 4 L 14.5 4 z M 19 4.3828125 L 19 5.7070312 A 10.724531 10.724531 0 0 1 26.724609 16 A 10.724531 10.724531 0 0 1 16 26.724609 A 10.724531 10.724531 0 0 1 5.2753906 16 A 10.724531 10.724531 0 0 1 13 5.7246094 L 13 4.4042969 A 12 12 0 0 0 4 16 A 12 12 0 0 0 16 28 A 12 12 0 0 0 28 16 A 12 12 0 0 0 19 4.3828125 z "
     class="ColorScheme-Text"
     />
</svg>
