<svg version="1.1" viewBox="0 0 32 32" xmlns="http://www.w3.org/2000/svg">
    <defs>
        <style type="text/css" id="current-color-scheme">.ColorScheme-Text {
        color:#eff0f1;
      }</style>
    </defs>
    <path class="ColorScheme-Text" fill="currentColor" d="m 21.527344,3.9921879 c -0.21182,0.00984 -0.445957,0.0983 -0.681641,0.3339843 -0.754205,0.7541886 -0.0039,1.5058594 -0.0039,1.5058594 L 25,9.9882816 20.84375,14.150391 c 0,0 -0.752301,0.747699 0,1.5 0.752301,0.752341 1.501953,-0.002 1.501953,-0.002 L 28,9.994141 22.347656,4.3281254 c 0,0 -0.354309,-0.3575819 -0.820312,-0.3359375 z M 16,4 C 9.000021,4 4,9.6663744 4,16 c 0,0 1.7e-6,0.751953 0.75,0.751953 C 5.4999983,16.751953 5.5,16 5.5,16 5.5,10.173819 10.000018,5.501953 16,5.5019531 c 0,0 0.748047,-0.00583 0.748047,-0.7539062 C 16.748047,3.9999766 16,4 16,4 Z M 27.25,15.251953 C 26.500002,15.249107 26.5,16 26.5,16 c 0,5.830673 -4.630241,10.501953 -10.5,10.501953 0,0 -0.75,0.001 -0.75,0.75 C 15.25,28.000951 16,28 16,28 c 6.999979,0 12,-6.343164 12,-12 0,0 -2e-6,-0.745201 -0.75,-0.748047 z m -16.777344,0.744141 c -0.466003,-0.02163 -0.820312,0.335938 -0.820312,0.335938 L 4,22 9.654297,27.654297 c 0,0 0.749652,0.754249 1.501953,0.002 0.752301,-0.752301 0,-1.5 0,-1.5 L 7,21.994141 11.158203,17.835938 c 0,0 0.750293,-0.751671 -0.0039,-1.505859 -0.235684,-0.235685 -0.469821,-0.324153 -0.681641,-0.333985 z"/>
</svg>
