<?xml version="1.0" encoding="UTF-8" standalone="no"?>
<svg
   width="32"
   version="1.1"
   height="32"
   id="svg13"
   sodipodi:docname="android-package-archive.svg"
   inkscape:version="1.1.2 (0a00cf5339, 2022-02-04)"
   xmlns:inkscape="http://www.inkscape.org/namespaces/inkscape"
   xmlns:sodipodi="http://sodipodi.sourceforge.net/DTD/sodipodi-0.dtd"
   xmlns:xlink="http://www.w3.org/1999/xlink"
   xmlns="http://www.w3.org/2000/svg"
   xmlns:svg="http://www.w3.org/2000/svg"
   xmlns:rdf="http://www.w3.org/1999/02/22-rdf-syntax-ns#"
   xmlns:cc="http://creativecommons.org/ns#"
   xmlns:dc="http://purl.org/dc/elements/1.1/">
  <style
     type="text/css"
     id="current-color-scheme">
      .ColorScheme-Text {
        color:#232629;
      }
      .ColorScheme-Highlight {
        color:#3daee9;
      }
   </style>
  <metadata
     id="metadata17">
    <rdf:RDF>
      <cc:Work
         rdf:about="">
        <dc:format>image/svg+xml</dc:format>
        <dc:type
           rdf:resource="http://purl.org/dc/dcmitype/StillImage" />
      </cc:Work>
    </rdf:RDF>
  </metadata>
  <sodipodi:namedview
     pagecolor="#ffffff"
     bordercolor="#666666"
     borderopacity="1"
     objecttolerance="10"
     gridtolerance="10"
     guidetolerance="10"
     inkscape:pageopacity="0"
     inkscape:pageshadow="2"
     inkscape:window-width="3440"
     inkscape:window-height="1356"
     id="namedview15"
     showgrid="false"
     inkscape:zoom="26.83"
     inkscape:cx="14.38688"
     inkscape:cy="20.089452"
     inkscape:window-x="0"
     inkscape:window-y="0"
     inkscape:window-maximized="1"
     inkscape:current-layer="g887"
     inkscape:pagecheckerboard="0" />
  <defs
     id="defs5455">
    <linearGradient
       inkscape:collect="always"
       xlink:href="#linearGradient6251"
       id="linearGradient5849-3"
       gradientUnits="userSpaceOnUse"
       gradientTransform="matrix(0.48,0,0,0.40601922,362.65137,385.60558)"
       y1="394.54437"
       x2="0"
       y2="335.43387" />
    <linearGradient
       inkscape:collect="always"
       id="linearGradient6251">
      <stop
         style="stop-color:#ffffff;stop-opacity:0"
         offset="0"
         id="stop6253" />
      <stop
         style="stop-color:#ffffff;stop-opacity:0.2"
         offset="1"
         id="stop6255" />
    </linearGradient>
  </defs>
  <g
     inkscape:label="Capa 1"
     inkscape:groupmode="layer"
     id="layer1"
     transform="translate(-384.57143,-515.798)">
    <g
       id="g887">
      <rect
         style="color:#000000;isolation:auto;mix-blend-mode:normal;color-interpolation:sRGB;color-interpolation-filters:linearRGB;solid-color:#000000;solid-opacity:1;fill:#414141;fill-opacity:1;color-rendering:auto;image-rendering:auto;shape-rendering:auto"
         ry="2.5980198"
         isolation="auto"
         mix-blend-mode="normal"
         id="rect5837-5"
         width="23.999989"
         height="23.999989"
         x="388.57144"
         y="521.79797" />
      <path
         shape-rendering="auto"
         solid-opacity="1"
         color-interpolation="sRGB"
         stroke-linecap="square"
         isolation="auto"
         stroke-width="2"
         color-rendering="auto"
         image-rendering="auto"
         color-interpolation-filters="linearRGB"
         opacity="0.9"
         solid-color="#000000"
         mix-blend-mode="normal"
         id="path5843"
         class="ColorScheme-Highlight"
         d="m 404.95903,522.79809 v 1 h 1 v -1 z m 1,1 v 1 h 1 v -1 z m 0,1 h -1 v 1 h 1 z m 0,1 v 1 h 1 v -1 z m 0,1 h -1 v 1 h 1 z m 0,1 v 1 h 1 v -1 z m 0,1 h -1 v 0.56054 1.43946 h 2 v -1 h -1 z"
         inkscape:connector-curvature="0"
         style="fill:currentColor;fill-opacity:1" />
      <rect
         ry="2.5504603"
         style="color:#000000;display:inline;isolation:auto;mix-blend-mode:normal;color-interpolation:sRGB;color-interpolation-filters:linearRGB;solid-color:#000000;solid-opacity:1;fill:url(#linearGradient5849-3);color-rendering:auto;image-rendering:auto;shape-rendering:auto"
         isolation="auto"
         mix-blend-mode="normal"
         y="521.79797"
         x="388.57144"
         height="24"
         width="24"
         id="rect5847-5" />
      <path
         inkscape:connector-curvature="0"
         id="path850"
         d="m 391.16908,521.79803 c -1.43931,0 -2.59766,1.15835 -2.59766,2.59766 v 0.82421 c 0,-1.4393 1.15835,-2.59765 2.59766,-2.59765 h 18.80468 c 1.43931,0 2.59766,1.15835 2.59766,2.59765 v -0.82421 c 0,-1.43931 -1.15835,-2.59766 -2.59766,-2.59766 z"
         style="color:#000000;opacity:0.5;isolation:auto;mix-blend-mode:normal;color-interpolation:sRGB;color-interpolation-filters:linearRGB;solid-color:#000000;solid-opacity:1;fill:#ffffff;color-rendering:auto;image-rendering:auto;shape-rendering:auto" />
      <path
         inkscape:connector-curvature="0"
         id="rect5837-3"
         d="m 388.57142,542.3724 v 0.82227 c 0,1.4393 1.15835,2.59961 2.59766,2.59961 h 18.80468 c 1.43931,0 2.59766,-1.16031 2.59766,-2.59961 v -0.82227 c 0,1.43931 -1.15835,2.59766 -2.59766,2.59766 h -18.80468 c -1.43931,0 -2.59766,-1.15835 -2.59766,-2.59766 z"
         style="color:#000000;opacity:0.3;isolation:auto;mix-blend-mode:normal;color-interpolation:sRGB;color-interpolation-filters:linearRGB;solid-color:#000000;solid-opacity:1;fill:#000000;fill-opacity:1;color-rendering:auto;image-rendering:auto;shape-rendering:auto" />
      <path
         id="rect4173"
         d="m 390.72785,532.08362 a 0.50005728,0.50005 0 0 0 -0.34766,0.85742 l 1.27734,1.27735 a 6.0000788,5.9999914 0 0 0 -1.42773,3.87695 v 6 h 12 v -1 -5 a 6.0000788,5.9999914 0 0 0 -1.41797,-3.875 l 1.2793,-1.2793 a 0.50012762,0.50005 0 0 0 -0.36328,-0.85742 0.50012762,0.50005 0 0 0 -0.34375,0.15039 l -1.28516,1.28516 a 6.0000788,5.9999914 0 0 0 -3.86914,-1.42383 6.0000788,5.9999914 0 0 0 -3.86914,1.41211 l -1.27344,-1.27344 a 0.50005728,0.50005 0 0 0 -0.35937,-0.15039 z m 5.50195,1.01172 a 5.0000728,5 0 0 1 5,5 v 1 4 h -10 v -4 -1 a 5.0000728,5 0 0 1 5,-5 z m -2,2 a 1.0000146,1 0 0 0 -1,1 1.0000146,1 0 0 0 1,1 1.0000146,1 0 0 0 1,-1 1.0000146,1 0 0 0 -1,-1 z m 4,0 a 1.0000146,1 0 0 0 -1,1 1.0000146,1 0 0 0 1,1 1.0000146,1 0 0 0 1,-1 1.0000146,1 0 0 0 -1,-1 z"
         style="display:inline;opacity:0.75;fill:#ffffff;fill-opacity:1" />
    </g>
  </g>
</svg>
