<?xml version="1.0" encoding="UTF-8" standalone="no"?>
<svg
   width="32"
   height="32"
   version="1.1"
   id="svg29"
   sodipodi:docname="application-x-skg.svg"
   inkscape:version="1.1.2 (0a00cf5339, 2022-02-04)"
   xmlns:inkscape="http://www.inkscape.org/namespaces/inkscape"
   xmlns:sodipodi="http://sodipodi.sourceforge.net/DTD/sodipodi-0.dtd"
   xmlns:xlink="http://www.w3.org/1999/xlink"
   xmlns="http://www.w3.org/2000/svg"
   xmlns:svg="http://www.w3.org/2000/svg">
  <style
     type="text/css"
     id="current-color-scheme">
      .ColorScheme-Text {
        color:#232629;
      }
      .ColorScheme-Highlight {
        color:#3daee9;
      }
   </style>
  <sodipodi:namedview
     id="namedview31"
     pagecolor="#ffffff"
     bordercolor="#666666"
     borderopacity="1.0"
     inkscape:pageshadow="2"
     inkscape:pageopacity="0.0"
     inkscape:pagecheckerboard="0"
     showgrid="false"
     inkscape:zoom="19.625"
     inkscape:cx="-0.96815287"
     inkscape:cy="16"
     inkscape:window-width="3440"
     inkscape:window-height="1356"
     inkscape:window-x="0"
     inkscape:window-y="0"
     inkscape:window-maximized="1"
     inkscape:current-layer="svg29" />
  <defs
     id="defs13">
    <linearGradient
       id="a"
       y1="392.36"
       y2="365.36"
       x2="0"
       gradientUnits="userSpaceOnUse"
       gradientTransform="translate(309.57 152.44)">
      <stop
         stop-color="#fff"
         stop-opacity="0"
         id="stop2" />
      <stop
         offset="1"
         stop-color="#fff"
         stop-opacity=".2"
         id="stop4" />
    </linearGradient>
    <linearGradient
       id="b"
       y1="17"
       y2="24"
       x1="47"
       x2="54"
       gradientUnits="userSpaceOnUse"
       gradientTransform="translate(-27 -8)">
      <stop
         stop-color="#060606"
         id="stop7" />
      <stop
         offset="1"
         stop-opacity="0"
         id="stop9" />
    </linearGradient>
    <linearGradient
       xlink:href="#a"
       id="c"
       x1="5"
       y1="30"
       x2="5"
       y2="2"
       gradientUnits="userSpaceOnUse"
       gradientTransform="translate(-20)" />
  </defs>
  <path
     d="M20 2H8C6.338 2 5 3.338 5 5v22c0 1.662 1.338 3 3 3h16c1.662 0 3-1.338 3-3V9z"
     id="path15"
     style="fill:#555555;fill-opacity:1" />
  <path
     d="M 8,2 A 2.99,2.99 0 0 0 5.877,2.877 C 5.846,2.908 5.857,2.967 5.827,3 H 20 V 2 Z"
     color="#000000"
     opacity="0.5"
     fill="#ffffff"
     id="path17"
     style="display:inline" />
  <path
     d="m 5.826,29 c 0.03,0.033 0.02,0.092 0.051,0.123 A 2.99,2.99 0 0 0 8,30 h 16 a 2.99,2.99 0 0 0 2.123,-0.877 c 0.031,-0.031 0.02,-0.09 0.05,-0.123 H 5.827 Z"
     id="path19"
     class="ColorScheme-Highlight"
     style="display:inline;fill:currentColor;fill-opacity:1;opacity:1" />
  <path
     d="M27 9l-7-7v7z"
     color="#000"
     opacity=".5"
     fill="#fff"
     fill-rule="evenodd"
     id="path21" />
  <path
     d="M20 9l7 7V9z"
     opacity=".1"
     fill="url(#b)"
     fill-rule="evenodd"
     id="path23" />
  <path
     d="M 20,1.9999999 H 7.9999996 c -1.662,0 -3,1.3380001 -3,3.0000001 v 22 c 0,1.662 1.338,3 3,3 H 24 c 1.662,0 3,-1.338 3,-3 V 9 Z"
     opacity="0.4"
     fill="url(#c)"
     id="path27"
     style="fill:url(#c)" />
  <path
     d="m 15.455284,11.150621 v 1.125 c -0.843,0.078 -1.507,0.291 -2,0.688 -0.542,0.432 -0.813,1.072 -0.813,1.906 0,1.165 0.697,1.921 2.125,2.281 l 0.688,0.188 v 3.688 c -0.887,-0.079 -1.719,-0.273 -2.5,-0.656 l -0.344,0.906 c 0.318,0.195 0.752,0.379 1.281,0.531 0.465,0.129 0.988,0.186 1.563,0.219 v 1.125 h 1 v -1.125 c 0.85,-0.068 1.533,-0.327 2.031,-0.781 0.534,-0.483 0.812,-1.183 0.813,-2.094 0,-0.737 -0.2,-1.289 -0.594,-1.688 -0.394,-0.403 -0.987,-0.693 -1.75,-0.875 l -0.5,-0.125 v -3.25 c 0.386,0.029 0.787,0.083 1.156,0.188 0.424,0.114 0.742,0.262 1,0.406 l 0.313,-0.906 c -0.64,-0.399 -1.461,-0.637 -2.469,-0.688 v -1.063 h -0.75 z m -0.219,2.094 c 0.065,-0.011 0.149,0.008 0.219,0 v 2.969 l -0.281,-0.063 c -0.47,-0.114 -0.825,-0.284 -1.063,-0.5 -0.233,-0.22 -0.344,-0.515 -0.344,-0.875 0,-0.856 0.483,-1.366 1.469,-1.531 m 1.219,4.313 0.188,0.063 c 0.576,0.144 0.971,0.34 1.188,0.594 0.22,0.25 0.312,0.593 0.313,1 0,1.133 -0.563,1.735 -1.688,1.844 z"
     color="#4d4d4d"
     id="path32"
     style="fill:#ffffff;fill-opacity:1;opacity:0.75" />
</svg>
