<?xml version="1.0" encoding="UTF-8" standalone="no"?>
<svg
   width="32"
   height="32"
   version="1.1"
   id="svg32"
   sodipodi:docname="application-x-krita.svg"
   inkscape:version="1.1.2 (0a00cf5339, 2022-02-04)"
   xmlns:inkscape="http://www.inkscape.org/namespaces/inkscape"
   xmlns:sodipodi="http://sodipodi.sourceforge.net/DTD/sodipodi-0.dtd"
   xmlns:xlink="http://www.w3.org/1999/xlink"
   xmlns="http://www.w3.org/2000/svg"
   xmlns:svg="http://www.w3.org/2000/svg">
  <style
     type="text/css"
     id="current-color-scheme">
      .ColorScheme-Text {
        color:#232629;
      }
      .ColorScheme-Highlight {
        color:#3daee9;
      }
      </style>
  <sodipodi:namedview
     id="namedview34"
     pagecolor="#ffffff"
     bordercolor="#666666"
     borderopacity="1.0"
     inkscape:pageshadow="2"
     inkscape:pageopacity="0.0"
     inkscape:pagecheckerboard="0"
     showgrid="false"
     inkscape:zoom="19.625"
     inkscape:cx="-9.9363057"
     inkscape:cy="8.9681529"
     inkscape:window-width="3440"
     inkscape:window-height="1356"
     inkscape:window-x="0"
     inkscape:window-y="0"
     inkscape:window-maximized="1"
     inkscape:current-layer="g929" />
  <defs
     id="defs14">
    <linearGradient
       id="b"
       y1="17"
       x1="47"
       y2="24"
       gradientUnits="userSpaceOnUse"
       x2="54"
       gradientTransform="translate(360.57 510.8)">
      <stop
         stop-color="#060606"
         id="stop2" />
      <stop
         offset="1"
         stop-opacity="0"
         id="stop4" />
    </linearGradient>
    <linearGradient
       xlink:href="#a"
       id="c"
       x1="-.978"
       y1="29.155"
       x2="-.978"
       y2="-1.341"
       gradientUnits="userSpaceOnUse"
       gradientTransform="translate(-20.004)" />
    <linearGradient
       id="a"
       y1="392.36"
       y2="320.48"
       gradientUnits="userSpaceOnUse"
       x2="0"
       gradientTransform="matrix(.5 0 0 .42294 418.57 378.93)">
      <stop
         stop-color="#fff"
         stop-opacity="0"
         id="stop8" />
      <stop
         offset="1"
         stop-color="#fff"
         stop-opacity=".2"
         id="stop10" />
    </linearGradient>
    <linearGradient
       xlink:href="#b"
       id="d"
       gradientUnits="userSpaceOnUse"
       gradientTransform="translate(360.57 510.8)"
       x1="47"
       y1="17"
       x2="54"
       y2="24" />
    <linearGradient
       xlink:href="#a-1"
       id="b-6"
       gradientUnits="userSpaceOnUse"
       x1="-75"
       y1="59"
       x2="-75"
       y2="-1"
       gradientTransform="translate(40)" />
    <linearGradient
       id="a-1"
       y1="392.35999"
       y2="320.48001"
       x2="0"
       gradientUnits="userSpaceOnUse"
       gradientTransform="matrix(1,0,0,0.84587,-34,-272.73)">
      <stop
         stop-color="#fff"
         stop-opacity="0"
         id="stop3" />
      <stop
         offset="1"
         stop-color="#fff"
         stop-opacity=".2"
         id="stop5" />
    </linearGradient>
    <linearGradient
       gradientTransform="translate(6,8)"
       id="c-0"
       y1="17.475"
       y2="31"
       x1="41.616001"
       x2="54"
       gradientUnits="userSpaceOnUse">
      <stop
         stop-color="#060606"
         id="stop8-6" />
      <stop
         offset="1"
         stop-opacity="0"
         id="stop10-1" />
    </linearGradient>
  </defs>
  <g
     id="g842"
     transform="matrix(0.49933608,0,0,0.49933608,-0.00555211,-0.54951507)"
     style="display:inline">
    <path
       d="M 46,11 H 9 c -2.77,0 -5,2.23 -5,5 v 40 c 0,2.77 2.23,5 5,5 h 46 c 2.77,0 5,-2.23 5,-5 V 25 Z"
       id="path15"
       inkscape:connector-curvature="0"
       style="display:inline;fill:#555555;fill-opacity:1" />
    <path
       d="M 46,11 H 9 c -2.77,0 -5,2.23 -5,5 v 40 c 0,2.77 2.23,5 5,5 h 46 c 2.77,0 5,-2.23 5,-5 V 25 Z"
       id="path17"
       style="display:inline;fill:url(#b-6)"
       inkscape:connector-curvature="0" />
    <path
       d="m 60,54.986 a 5.004,5.004 0 0 1 -1.46,3.54 4.989,4.989 0 0 1 -3.54,1.46 H 9 A 5.005,5.005 0 0 1 5.46,58.526 4.989,4.989 0 0 1 4,54.985 V 56 c 0,2.77 2.23,5 5,5 h 46 c 2.77,0 5,-2.23 5,-5 z"
       id="path19"
       inkscape:connector-curvature="0"
       style="display:inline;opacity:1;fill:#2a2a2a;fill-opacity:1" />
    <path
       d="M 46,11 H 9 c -2.77,0 -5,2.23 -5,5 v 1.14 A 5.005,5.005 0 0 1 5.46,13.602 4.989,4.989 0 0 1 9,12.14 h 37 z"
       id="path21"
       inkscape:connector-curvature="0"
       style="opacity:0.3;fill:#ffffff" />
    <path
       d="M 46.73,24.283 60,39 V 25 H 48.465 c -0.68,0 -1.29,-0.276 -1.735,-0.717 z"
       id="path23"
       style="opacity:0.2;fill:url(#c-0);fill-rule:evenodd"
       inkscape:connector-curvature="0" />
    <path
       d="M 46,11 V 22.535 A 2.456,2.456 0 0 0 48.465,25 H 60 Z"
       id="path25"
       inkscape:connector-curvature="0"
       style="opacity:0.6;fill:#ffffff;fill-rule:evenodd" />
    <g
       id="g929"
       style="display:inline"
       transform="matrix(0.99986754,0,0,0.99986754,1.125782,0.51368189)">
      <path
         d="m 16.928,20.527 c -0.061,-0.005 -0.106,0.007 -0.137,0.037 -0.968,0.968 16.932,17.9 16.932,17.9 l 4.959,4.719 c -0.142,4.217 3.768,3.856 4.85,5.748 0.474,0.83 -0.458,1.891 -1.322,1.949 1.716,0.566 3.735,-2.696 3.041,-4.557 -0.829,-2.221 -1.836,-2.852 -3.414,-3.525 -0.652,-0.278 -1.768,-0.101 -2.428,-0.342 l -4.596,-5.08 c 0,0 -16,-16.686 -17.885,-16.85"
         id="path17-4"
         inkscape:connector-curvature="0"
         style="opacity:0.6" />
      <path
         d="m 23.365,38.764 c 0.083,1.719 1.17,6.732 6.57,10.386 4.548,3.077 12.867,1.966 12.733,0.218 -1.83,-2.273 -4.891,-0.853 -4.931,-6.295 -1.78,0.013 -3.695,-0.266 -3.624,0.483 0.299,3.138 -4.676,0.875 -6.605,-2.326 -3.443,-5.215 -4.143,-4.453 -4.142,-2.466 m 7.664,2.364 c -0.295,0 -0.532,0.097 -0.645,0.291 -0.224,0.389 0.139,1.02 0.814,1.41 0.675,0.39 1.404,0.391 1.629,0.002 0.224,-0.389 -0.141,-1.02 -0.816,-1.41 -0.338,-0.195 -0.982,0.002 -0.982,-0.293"
         id="path19-9"
         class="ColorScheme-Highlight"
         inkscape:connector-curvature="0"
         style="opacity:0.6;fill:currentColor;fill-opacity:1" />
    </g>
  </g>
</svg>
