<?xml version="1.0" encoding="UTF-8" standalone="no"?>
<svg
   width="32"
   height="32"
   version="1.1"
   id="svg29"
   sodipodi:docname="application-octet-stream.svg"
   inkscape:version="1.1.2 (0a00cf5339, 2022-02-04)"
   xmlns:inkscape="http://www.inkscape.org/namespaces/inkscape"
   xmlns:sodipodi="http://sodipodi.sourceforge.net/DTD/sodipodi-0.dtd"
   xmlns:xlink="http://www.w3.org/1999/xlink"
   xmlns="http://www.w3.org/2000/svg"
   xmlns:svg="http://www.w3.org/2000/svg">
  <style
     type="text/css"
     id="current-color-scheme">
      .ColorScheme-Text {
        color:#232629;
      }
      .ColorScheme-Highlight {
        color:#3daee9;
      }
   </style>
  <sodipodi:namedview
     id="namedview31"
     pagecolor="#ffffff"
     bordercolor="#666666"
     borderopacity="1.0"
     inkscape:pageshadow="2"
     inkscape:pageopacity="0.0"
     inkscape:pagecheckerboard="0"
     showgrid="false"
     inkscape:zoom="19.625"
     inkscape:cx="-0.96815287"
     inkscape:cy="16"
     inkscape:window-width="3440"
     inkscape:window-height="1356"
     inkscape:window-x="0"
     inkscape:window-y="0"
     inkscape:window-maximized="1"
     inkscape:current-layer="svg29" />
  <defs
     id="defs13">
    <linearGradient
       id="a"
       y1="392.36"
       y2="365.36"
       x2="0"
       gradientUnits="userSpaceOnUse"
       gradientTransform="translate(309.57 152.44)">
      <stop
         stop-color="#fff"
         stop-opacity="0"
         id="stop2" />
      <stop
         offset="1"
         stop-color="#fff"
         stop-opacity=".2"
         id="stop4" />
    </linearGradient>
    <linearGradient
       id="b"
       y1="17"
       y2="24"
       x1="47"
       x2="54"
       gradientUnits="userSpaceOnUse"
       gradientTransform="translate(-27 -8)">
      <stop
         stop-color="#060606"
         id="stop7" />
      <stop
         offset="1"
         stop-opacity="0"
         id="stop9" />
    </linearGradient>
    <linearGradient
       xlink:href="#a"
       id="c"
       x1="5"
       y1="30"
       x2="5"
       y2="2"
       gradientUnits="userSpaceOnUse"
       gradientTransform="translate(-20)" />
  </defs>
  <path
     d="M20 2H8C6.338 2 5 3.338 5 5v22c0 1.662 1.338 3 3 3h16c1.662 0 3-1.338 3-3V9z"
     id="path15"
     style="fill:#555555;fill-opacity:1" />
  <path
     d="M 8,2 A 2.99,2.99 0 0 0 5.877,2.877 C 5.846,2.908 5.857,2.967 5.827,3 H 20 V 2 Z"
     color="#000000"
     opacity="0.5"
     fill="#ffffff"
     id="path17"
     style="display:inline" />
  <path
     d="m 5.826,29 c 0.03,0.033 0.02,0.092 0.051,0.123 A 2.99,2.99 0 0 0 8,30 h 16 a 2.99,2.99 0 0 0 2.123,-0.877 c 0.031,-0.031 0.02,-0.09 0.05,-0.123 H 5.827 Z"
     id="path19"
     class="ColorScheme-Highlight"
     style="display:inline;fill:currentColor;fill-opacity:1;opacity:1" />
  <path
     d="M27 9l-7-7v7z"
     color="#000"
     opacity=".5"
     fill="#fff"
     fill-rule="evenodd"
     id="path21" />
  <path
     d="M20 9l7 7V9z"
     opacity=".1"
     fill="url(#b)"
     fill-rule="evenodd"
     id="path23" />
  <path
     d="M 20,1.9999999 H 7.9999996 c -1.662,0 -3,1.3380001 -3,3.0000001 v 22 c 0,1.662 1.338,3 3,3 H 24 c 1.662,0 3,-1.338 3,-3 V 9 Z"
     opacity="0.4"
     fill="url(#c)"
     id="path27"
     style="fill:url(#c)" />
  <path
     d="m 10.092574,11.268437 v 12 h 12 v -12 z m 1,3 h 10 v 8 c -3.551,-0.037 -6.45,-0.077 -10,0 z m 5.199,1 c -0.486,0 -0.94,0.17 -1.26,0.49 -0.32,0.32 -0.49,0.774 -0.49,1.26 h 1 c 0,-0.264 0.079,-0.435 0.197,-0.553 0.118,-0.118 0.289,-0.197 0.553,-0.197 0.264,0 0.435,0.08 0.553,0.197 0.118,0.118 0.197,0.289 0.197,0.553 0,0.229 -0.045,0.326 -0.105,0.412 -0.261,0.263 -0.575,0.488 -0.828,0.703 -0.286,0.215 -0.566,0.497 -0.566,0.885 v 0.25 h 1 v -0.25 c 0.355,-0.364 0.885,-0.682 1.215,-1.016 0.174,-0.25 0.285,-0.589 0.285,-0.984 0,-0.486 -0.17,-0.94 -0.49,-1.26 -0.32,-0.32 -0.774,-0.49 -1.26,-0.49 m -0.75,5 v 1 h 1 v -1 z"
     opacity="0.75"
     fill="#fbfbfb"
     id="path22" />
</svg>
