<?xml version="1.0" encoding="UTF-8" standalone="no"?>
<svg
   width="32"
   height="32"
   version="1.1"
   id="svg29"
   sodipodi:docname="application-x-python-bytecode.svg"
   inkscape:version="1.1.2 (0a00cf5339, 2022-02-04)"
   xmlns:inkscape="http://www.inkscape.org/namespaces/inkscape"
   xmlns:sodipodi="http://sodipodi.sourceforge.net/DTD/sodipodi-0.dtd"
   xmlns:xlink="http://www.w3.org/1999/xlink"
   xmlns="http://www.w3.org/2000/svg"
   xmlns:svg="http://www.w3.org/2000/svg">
  <style
     type="text/css"
     id="current-color-scheme">
      .ColorScheme-Text {
        color:#232629;
      }
      .ColorScheme-Highlight {
        color:#3daee9;
      }
   </style>
  <sodipodi:namedview
     id="namedview31"
     pagecolor="#ffffff"
     bordercolor="#666666"
     borderopacity="1.0"
     inkscape:pageshadow="2"
     inkscape:pageopacity="0.0"
     inkscape:pagecheckerboard="0"
     showgrid="false"
     inkscape:zoom="19.625"
     inkscape:cx="-0.96815287"
     inkscape:cy="16"
     inkscape:window-width="3440"
     inkscape:window-height="1356"
     inkscape:window-x="0"
     inkscape:window-y="0"
     inkscape:window-maximized="1"
     inkscape:current-layer="svg29" />
  <defs
     id="defs13">
    <linearGradient
       id="a"
       y1="392.36"
       y2="365.36"
       x2="0"
       gradientUnits="userSpaceOnUse"
       gradientTransform="translate(309.57 152.44)">
      <stop
         stop-color="#fff"
         stop-opacity="0"
         id="stop2" />
      <stop
         offset="1"
         stop-color="#fff"
         stop-opacity=".2"
         id="stop4" />
    </linearGradient>
    <linearGradient
       id="b"
       y1="17"
       y2="24"
       x1="47"
       x2="54"
       gradientUnits="userSpaceOnUse"
       gradientTransform="translate(-27 -8)">
      <stop
         stop-color="#060606"
         id="stop7" />
      <stop
         offset="1"
         stop-opacity="0"
         id="stop9" />
    </linearGradient>
    <linearGradient
       xlink:href="#a"
       id="c"
       x1="5"
       y1="30"
       x2="5"
       y2="2"
       gradientUnits="userSpaceOnUse"
       gradientTransform="translate(-20)" />
  </defs>
  <path
     d="M20 2H8C6.338 2 5 3.338 5 5v22c0 1.662 1.338 3 3 3h16c1.662 0 3-1.338 3-3V9z"
     id="path15"
     style="fill:#555555;fill-opacity:1" />
  <path
     d="M 8,2 A 2.99,2.99 0 0 0 5.877,2.877 C 5.846,2.908 5.857,2.967 5.827,3 H 20 V 2 Z"
     color="#000000"
     opacity="0.5"
     fill="#ffffff"
     id="path17"
     style="display:inline" />
  <path
     d="m 5.826,29 c 0.03,0.033 0.02,0.092 0.051,0.123 A 2.99,2.99 0 0 0 8,30 h 16 a 2.99,2.99 0 0 0 2.123,-0.877 c 0.031,-0.031 0.02,-0.09 0.05,-0.123 H 5.827 Z"
     id="path19"
     class="ColorScheme-Highlight"
     style="display:inline;fill:currentColor;fill-opacity:1;opacity:1" />
  <path
     d="M27 9l-7-7v7z"
     color="#000"
     opacity=".5"
     fill="#fff"
     fill-rule="evenodd"
     id="path21" />
  <path
     d="M20 9l7 7V9z"
     opacity=".1"
     fill="url(#b)"
     fill-rule="evenodd"
     id="path23" />
  <path
     d="M 20,1.9999999 H 7.9999996 c -1.662,0 -3,1.3380001 -3,3.0000001 v 22 c 0,1.662 1.338,3 3,3 H 24 c 1.662,0 3,-1.338 3,-3 V 9 Z"
     opacity="0.4"
     fill="url(#c)"
     id="path27"
     style="fill:url(#c)" />
  <g
     fill="#fddda3"
     id="g36"
     transform="translate(0.22264734,-0.59540127)"
     style="fill:#fdfdfd;fill-opacity:1;opacity:0.75">
    <path
       d="m 15.043948,12.017889 c -1.108,0 -2,0.892 -2,2 h 3 v 1 h -4 c -1.108,0 -2,0.892 -2,2 v 2 c 0,1.108 0.892,2 2,2 v -1 c 0,-0.889 0.39,-1.676 1,-2.225 l 0.002,-0.002 a 3.02,3.02 0 0 1 0.426,-0.32 c 0,0 0.003,0 0.004,-0.002 0.149,-0.093 0.305,-0.172 0.47,-0.238 0.03,-0.012 0.062,-0.02 0.092,-0.03 0.14,-0.05 0.285,-0.096 0.434,-0.126 0.186,-0.036 0.377,-0.057 0.574,-0.057 h 4 v -3 c 0,-1.108 -0.892,-2 -2,-2 z m 0,0.5 a 0.5,0.5 0 1 1 0,1 0.5,0.5 0 1 1 0,-1 z m 5,5.5 -1.5,1.5 0.707,0.707 0.793,-0.793 v 3.586 h -1 v 1 h 3 v -1 h -1 v -5 z"
       id="path32"
       style="fill:#fdfdfd;fill-opacity:1" />
    <path
       d="m 16.029384,17.955896 a 1.79,1.79 0 0 0 -1.475,0.8 c -0.352,0.523 -0.525,1.244 -0.525,2.2 0,0.956 0.173,1.677 0.525,2.2 0.353,0.521 0.917,0.8 1.475,0.8 a 1.79,1.79 0 0 0 1.475,-0.8 c 0.352,-0.523 0.525,-1.244 0.525,-2.2 0,-0.956 -0.173,-1.677 -0.525,-2.2 a 1.79,1.79 0 0 0 -1.475,-0.8 z m 0,1 c 0.27,0 0.456,0.078 0.646,0.36 0.035,0.05 0.066,0.12 0.098,0.189 l -1.73,1.73 c -0.005,-0.093 -0.014,-0.177 -0.014,-0.279 0,-0.83 0.163,-1.359 0.354,-1.64 0.19,-0.282 0.375,-0.36 0.646,-0.36 z m 0.986,1.72 c 0.005,0.094 0.014,0.178 0.014,0.28 0,0.83 -0.163,1.359 -0.354,1.64 -0.19,0.282 -0.375,0.36 -0.646,0.36 -0.27,0 -0.456,-0.078 -0.646,-0.36 -0.035,-0.05 -0.066,-0.12 -0.098,-0.189 z"
       id="path34"
       style="fill:#fdfdfd;fill-opacity:1" />
  </g>
</svg>
