<?xml version="1.0" encoding="UTF-8" standalone="no"?>
<svg
   width="32"
   height="32"
   version="1.1"
   id="svg33"
   sodipodi:docname="application-x-fictionbook+xml.svg"
   inkscape:version="1.1.2 (0a00cf5339, 2022-02-04)"
   xmlns:inkscape="http://www.inkscape.org/namespaces/inkscape"
   xmlns:sodipodi="http://sodipodi.sourceforge.net/DTD/sodipodi-0.dtd"
   xmlns:xlink="http://www.w3.org/1999/xlink"
   xmlns="http://www.w3.org/2000/svg"
   xmlns:svg="http://www.w3.org/2000/svg"
   xmlns:rdf="http://www.w3.org/1999/02/22-rdf-syntax-ns#"
   xmlns:cc="http://creativecommons.org/ns#"
   xmlns:dc="http://purl.org/dc/elements/1.1/">
   <style
     type="text/css"
     id="current-color-scheme">
      .ColorScheme-Text {
        color:#232629;
      }
      .ColorScheme-Highlight {
        color:#3daee9;
      }
   </style>
  <metadata
     id="metadata37">
    <rdf:RDF>
      <cc:Work
         rdf:about="">
        <dc:format>image/svg+xml</dc:format>
        <dc:type
           rdf:resource="http://purl.org/dc/dcmitype/StillImage" />
      </cc:Work>
    </rdf:RDF>
  </metadata>
  <sodipodi:namedview
     pagecolor="#ffffff"
     bordercolor="#666666"
     borderopacity="1"
     objecttolerance="10"
     gridtolerance="10"
     guidetolerance="10"
     inkscape:pageopacity="0"
     inkscape:pageshadow="2"
     inkscape:window-width="3440"
     inkscape:window-height="1356"
     id="namedview35"
     showgrid="false"
     inkscape:zoom="15.40625"
     inkscape:cx="16.032454"
     inkscape:cy="15.967546"
     inkscape:window-x="0"
     inkscape:window-y="0"
     inkscape:window-maximized="1"
     inkscape:current-layer="svg33"
     inkscape:pagecheckerboard="0" />
  <defs
     id="defs9">
    <linearGradient
       id="a"
       y1="392.36"
       y2="336.36"
       gradientUnits="userSpaceOnUse"
       x2="0"
       gradientTransform="translate(268.33 166.62)">
      <stop
         stop-color="#ffffff"
         stop-opacity="0"
         id="stop2" />
      <stop
         offset="1"
         stop-color="#ffffff"
         stop-opacity=".2"
         id="stop4" />
    </linearGradient>
    <linearGradient
       xlink:href="#a"
       id="b"
       y1="392.36"
       y2="365.2"
       gradientUnits="userSpaceOnUse"
       x2="0"
       gradientTransform="translate(-39,-363.36)" />
    <linearGradient
       xlink:href="#a"
       id="c"
       y1="392.36"
       y2="336.36"
       gradientUnits="userSpaceOnUse"
       x2="0"
       gradientTransform="matrix(0.5,0,0,0.48276,-7,-159.9)" />
    <linearGradient
       xlink:href="#a-1"
       id="c-1"
       y1="392.35999"
       y2="336.35999"
       gradientUnits="userSpaceOnUse"
       x2="0"
       gradientTransform="matrix(0.5,0,0,0.48276,-7,-159.9)" />
    <linearGradient
       id="a-1"
       y1="392.35999"
       y2="336.35999"
       gradientUnits="userSpaceOnUse"
       x2="0"
       gradientTransform="translate(268.33,166.62)">
      <stop
         stop-color="#ffffff"
         stop-opacity="0"
         id="stop2-5" />
      <stop
         offset="1"
         stop-color="#ffffff"
         stop-opacity=".2"
         id="stop4-9" />
    </linearGradient>
    <linearGradient
       xlink:href="#a-9"
       id="c-12"
       y1="392.35999"
       y2="336.35999"
       gradientUnits="userSpaceOnUse"
       x2="0"
       gradientTransform="matrix(0.5,0,0,0.48276,-7,-159.9)" />
    <linearGradient
       id="a-9"
       y1="392.35999"
       y2="336.35999"
       gradientUnits="userSpaceOnUse"
       x2="0"
       gradientTransform="translate(268.33,166.62)">
      <stop
         stop-color="#ffffff"
         stop-opacity="0"
         id="stop2-3" />
      <stop
         offset="1"
         stop-color="#ffffff"
         stop-opacity=".2"
         id="stop4-90" />
    </linearGradient>
  </defs>
  <g
     id="g861">
    <path
       inkscape:connector-curvature="0"
       id="path862"
       d="M 5,2 V 5.6113281 26.388672 30 h 3.611328 6.462891 8.314453 C 25.389654,30 27,28.389654 27,26.388672 V 5.6113281 C 27,3.6103459 25.389654,2 23.388672,2 H 17.222656 13 8.611328 Z"
       style="color:#000000;display:inline;color-interpolation:sRGB;color-interpolation-filters:linearRGB;fill:#555555;fill-opacity:1;color-rendering:auto;image-rendering:auto;shape-rendering:auto;text-rendering:auto" />
    <rect
       width="1"
       x="8.0000076"
       y="2.9999878"
       height="26"
       id="rect19"
       class="ColorScheme-Highlight"
       style="fill:currentColor;fill-opacity:1" />
    <rect
       style="color:#000000;color-interpolation:sRGB;color-interpolation-filters:linearRGB;fill-opacity:0.059;color-rendering:auto;image-rendering:auto;shape-rendering:auto;text-rendering:auto"
       id="rect21"
       height="26"
       width="1"
       y="2.9999878"
       x="9.0000076" />
    <path
       inkscape:connector-curvature="0"
       id="path905"
       d="m 27,25.234375 c 0,0.500245 -0.100968,0.975845 -0.283203,1.408203 -0.182235,0.432358 -0.44513,0.822083 -0.771485,1.148438 -0.326354,0.326354 -0.716079,0.589249 -1.148437,0.771484 -0.432358,0.182235 -0.907958,0.283203 -1.408203,0.283203 H 15.074219 8.611328 5 V 30 h 3.611328 6.462891 8.314453 C 25.389654,30 27,28.389654 27,26.388672 Z"
       style="color:#000000;display:inline;opacity:0.25;color-interpolation:sRGB;color-interpolation-filters:linearRGB;fill:#000000;color-rendering:auto;image-rendering:auto;shape-rendering:auto;text-rendering:auto" />
    <path
       inkscape:connector-curvature="0"
       id="path862-3"
       d="M 5,2 V 3.0136719 H 8.611328 13 h 4.222656 6.166016 c 0.500245,0 0.975845,0.1009678 1.408203,0.2832031 0.432358,0.1822353 0.822083,0.4451297 1.148437,0.7714844 0.326355,0.3263546 0.58925,0.7160794 0.771485,1.1484375 C 26.899032,5.6491549 27,6.1247545 27,6.625 V 5.6113281 C 27,3.6103459 25.389654,2 23.388672,2 H 17.222656 13 8.611328 Z"
       style="color:#000000;display:inline;opacity:0.5;color-interpolation:sRGB;color-interpolation-filters:linearRGB;fill:#ffffff;color-rendering:auto;image-rendering:auto;shape-rendering:auto;text-rendering:auto" />
    <g
       id="g878"
       style="display:inline"
       transform="translate(0,1.154297)">
      <path
         id="path12"
         fill-rule="evenodd"
         d="M 14,21 14.000365,11.028967 15,11 v 2 l 1.499404,0.02734 c 0.499917,0.0091 0.5,0.486 0.5,0.486 l -3.65e-4,6.999033 c -2.5e-5,0.486 -0.5,0.486 -0.5,0.486 z"
         style="display:inline" />
      <path
         id="path14"
         fill="#ff9900"
         d="m 22,12 4,4 -4,4 -4,-4 z"
         style="display:inline" />
      <path
         id="path16"
         fill-rule="evenodd"
         d="m 11,21 -3.65e-4,-6.9995 h -0.5 v -0.972 h 0.5 L 11,11.514 c 0,0 0,0.486 0,0 0,-0.4855 0.5,-0.4855 0.5,-0.4855 H 13 V 12 l -1,5e-4 -3.65e-4,1.0285 1,-5e-4 V 14 l -1,5e-4 L 12,21 Z"
         style="display:inline" />
      <path
         id="path18"
         opacity="0.99"
         d="M 15.000306,13.685719 H 16 V 20 h -0.999694 z"
         style="display:inline;opacity:0.99;fill:#555555;fill-opacity:1" />
    </g>
  </g>
  <path
     d="M 5,2 V 30 H 27 V 2 h -7 z"
     id="path29"
     style="color:#000000;display:inline;color-interpolation:sRGB;color-interpolation-filters:linearRGB;fill:url(#c-12);color-rendering:auto;image-rendering:auto;shape-rendering:auto;text-rendering:auto"
     inkscape:connector-curvature="0" />
</svg>
