<?xml version="1.0" encoding="UTF-8" standalone="no"?>
<svg
   width="32"
   height="32"
   version="1.1"
   id="svg32"
   sodipodi:docname="image-svg+xml-compressed.svg"
   inkscape:version="1.1.2 (0a00cf5339, 2022-02-04)"
   xmlns:inkscape="http://www.inkscape.org/namespaces/inkscape"
   xmlns:sodipodi="http://sodipodi.sourceforge.net/DTD/sodipodi-0.dtd"
   xmlns:xlink="http://www.w3.org/1999/xlink"
   xmlns="http://www.w3.org/2000/svg"
   xmlns:svg="http://www.w3.org/2000/svg">
  <style
     type="text/css"
     id="current-color-scheme">
      .ColorScheme-Text {
        color:#232629;
      }
      .ColorScheme-Highlight {
        color:#3daee9;
      }
      </style>
  <sodipodi:namedview
     id="namedview34"
     pagecolor="#ffffff"
     bordercolor="#666666"
     borderopacity="1.0"
     inkscape:pageshadow="2"
     inkscape:pageopacity="0.0"
     inkscape:pagecheckerboard="0"
     showgrid="false"
     inkscape:zoom="16"
     inkscape:cx="5"
     inkscape:cy="12.5625"
     inkscape:window-width="3440"
     inkscape:window-height="1356"
     inkscape:window-x="0"
     inkscape:window-y="0"
     inkscape:window-maximized="1"
     inkscape:current-layer="g842"
     inkscape:object-nodes="false" />
  <defs
     id="defs14">
    <linearGradient
       id="b"
       y1="17"
       x1="47"
       y2="24"
       gradientUnits="userSpaceOnUse"
       x2="54"
       gradientTransform="translate(360.57 510.8)">
      <stop
         stop-color="#060606"
         id="stop2" />
      <stop
         offset="1"
         stop-opacity="0"
         id="stop4" />
    </linearGradient>
    <linearGradient
       xlink:href="#a"
       id="c"
       x1="-.978"
       y1="29.155"
       x2="-.978"
       y2="-1.341"
       gradientUnits="userSpaceOnUse"
       gradientTransform="translate(-20.004)" />
    <linearGradient
       id="a"
       y1="392.36"
       y2="320.48"
       gradientUnits="userSpaceOnUse"
       x2="0"
       gradientTransform="matrix(.5 0 0 .42294 418.57 378.93)">
      <stop
         stop-color="#fff"
         stop-opacity="0"
         id="stop8" />
      <stop
         offset="1"
         stop-color="#fff"
         stop-opacity=".2"
         id="stop10" />
    </linearGradient>
    <linearGradient
       xlink:href="#b"
       id="d"
       gradientUnits="userSpaceOnUse"
       gradientTransform="translate(360.57 510.8)"
       x1="47"
       y1="17"
       x2="54"
       y2="24" />
    <linearGradient
       xlink:href="#a-1"
       id="b-6"
       gradientUnits="userSpaceOnUse"
       x1="-75"
       y1="59"
       x2="-75"
       y2="-1"
       gradientTransform="translate(40)" />
    <linearGradient
       id="a-1"
       y1="392.35999"
       y2="320.48001"
       x2="0"
       gradientUnits="userSpaceOnUse"
       gradientTransform="matrix(1,0,0,0.84587,-34,-272.73)">
      <stop
         stop-color="#fff"
         stop-opacity="0"
         id="stop3" />
      <stop
         offset="1"
         stop-color="#fff"
         stop-opacity=".2"
         id="stop5" />
    </linearGradient>
    <linearGradient
       gradientTransform="translate(6,8)"
       id="c-0"
       y1="17.475"
       y2="31"
       x1="41.616001"
       x2="54"
       gradientUnits="userSpaceOnUse">
      <stop
         stop-color="#060606"
         id="stop8-6" />
      <stop
         offset="1"
         stop-opacity="0"
         id="stop10-1" />
    </linearGradient>
  </defs>
  <g
     id="g842"
     transform="matrix(0.49933608,0,0,0.49933608,-0.00555211,-0.54951507)"
     style="display:inline">
    <path
       d="M 46,11 H 9 c -2.77,0 -5,2.23 -5,5 v 40 c 0,2.77 2.23,5 5,5 h 46 c 2.77,0 5,-2.23 5,-5 V 25 Z"
       id="path15"
       inkscape:connector-curvature="0"
       style="display:inline;fill:#555555;fill-opacity:1" />
    <path
       d="M 46,11 H 9 c -2.77,0 -5,2.23 -5,5 v 40 c 0,2.77 2.23,5 5,5 h 46 c 2.77,0 5,-2.23 5,-5 V 25 Z"
       id="path17"
       style="display:inline;fill:url(#b-6)"
       inkscape:connector-curvature="0" />
    <path
       d="m 60,54.986 a 5.004,5.004 0 0 1 -1.46,3.54 4.989,4.989 0 0 1 -3.54,1.46 H 9 A 5.005,5.005 0 0 1 5.46,58.526 4.989,4.989 0 0 1 4,54.985 V 56 c 0,2.77 2.23,5 5,5 h 46 c 2.77,0 5,-2.23 5,-5 z"
       id="path19"
       class="ColorScheme-Highlight"
       inkscape:connector-curvature="0"
       style="display:inline;opacity:1;fill:#373737;fill-opacity:1" />
    <path
       d="M 46,11 H 9 c -2.77,0 -5,2.23 -5,5 v 1.14 A 5.005,5.005 0 0 1 5.46,13.602 4.989,4.989 0 0 1 9,12.14 h 37 z"
       id="path21"
       inkscape:connector-curvature="0"
       style="opacity:0.3;fill:#ffffff" />
    <path
       d="M 46.73,24.283 60,39 V 25 H 48.465 c -0.68,0 -1.29,-0.276 -1.735,-0.717 z"
       id="path23"
       style="opacity:0.2;fill:url(#c-0);fill-rule:evenodd"
       inkscape:connector-curvature="0" />
    <path
       d="M 46,11 V 22.535 A 2.456,2.456 0 0 0 48.465,25 H 60 Z"
       id="path25"
       inkscape:connector-curvature="0"
       style="opacity:0.6;fill:#ffffff;fill-rule:evenodd" />
    <path
       d="m 11.653563,12.179524 c -0.99818,0 -1.643181,0.0083 -2.5528915,0.0083 v 2.858935 H 4.4991763 C 4.2349949,15.698986 4.1582906,15.957813 4,16.765838 v 0.0034 h 5.1006715 v 3.445067 H 4 v 1.722535 h 5.1006715 v 3.445069 H 4 v 1.722534 H 9.1006715 V 30.54951 H 4 v 1.722534 h 5.1006715 v 3.445111 H 4 v 1.722534 h 5.1006715 v 3.445068 H 4 v 1.722535 H 9.1006715 V 46.05236 H 4 v 1.722534 h 5.1006715 v 3.445069 H 4 v 1.722535 h 5.1006715 v 3.445068 l -4.9525428,-0.02465 c 0.3446415,0.590829 0.4339888,1.262618 1.0568955,1.722535 l 3.8956473,0.02465 0.031192,1.819262 c 0.9998765,0 1.5184205,0.0045 2.5114885,0.0045 h 0.0102 v -1.823722 h 5.105784 v 1.823722 h 2.552891 v -1.823722 h 5.105783 v 1.823722 h 2.55289 v -1.823722 h 5.105783 v 1.823722 h 2.552892 v -1.823722 h 5.105777 v 1.823722 h 2.55289 v -1.823722 h 5.105781 v 1.823722 h 2.552891 v -1.823722 h 5.105781 v 1.825173 c 1.041138,-0.01853 1.654851,-0.216285 2.464952,-0.664905 l 0.677026,-0.463944 0.528854,-0.565591 c 0.58249,-0.505903 0.893857,-1.37454 1.050203,-1.866979 l -2.168145,0.01371 v -3.445064 h 2.552891 v -1.722534 h -2.552891 v -3.445069 h 2.552891 v -1.722533 h -2.552891 v -3.445069 h 2.552891 v -1.722535 h -2.552891 v -3.445068 h 2.552891 V 35.71716 h -2.552891 v -3.44507 h 2.552891 v -1.722533 h -2.552891 v -3.445069 h 2.552891 v -1.722533 h -2.552891 -2.55289 -5.105781 -2.552891 -5.105781 V 12.179524 h -2.55289 v 2.867224 h -5.105777 v -2.867224 h -2.552892 v 2.867224 H 26.9709 v -2.867224 h -2.552892 v 2.867224 h -5.105783 v -2.867224 h -2.552891 v 2.867224 H 11.65355 Z m 0,4.589759 h 5.105783 v 3.445068 h -5.105783 z m 7.658675,0 h 5.105783 v 3.445068 h -5.105783 z m 7.658675,0 h 5.105783 v 3.445068 h -5.105783 z m 7.658675,0 h 5.105776 v 3.445068 h -5.105776 z m -22.976025,5.167602 h 5.105783 v 3.44507 h -5.105783 z m 7.658675,0 h 5.105783 v 3.44507 h -5.105783 z m 7.658675,0 h 5.105783 v 3.44507 h -5.105783 z m 7.658675,0 h 5.105776 v 3.44507 h -5.105776 z m -22.976025,5.167603 h 5.105783 v 3.445069 h -5.105783 z m 7.658675,0 h 5.105783 v 3.445069 h -5.105783 z m 7.658675,0 h 5.105783 v 3.445069 h -5.105783 z m 7.658675,0 h 5.105776 v 3.445069 h -5.105776 z m 7.658667,0 h 5.10578 v 3.445069 h -5.10578 z m 7.658672,0 h 5.105781 v 3.445069 H 49.946927 Z M 11.653563,32.27209 h 5.105783 v 3.44507 h -5.105783 z m 7.658675,0 h 5.105783 v 3.44507 h -5.105783 z m 7.658675,0 h 5.105783 v 3.44507 h -5.105783 z m 7.658675,0 h 5.105776 v 3.44507 h -5.105776 z m 7.658667,0 h 5.10578 v 3.44507 h -5.10578 z m 7.658672,0 h 5.105781 v 3.44507 h -5.105781 z m -38.293364,5.167604 h 5.105783 v 3.445068 h -5.105783 z m 7.658675,0 h 5.105783 v 3.445068 h -5.105783 z m 7.658675,0 h 5.105783 v 3.445068 h -5.105783 z m 7.658675,0 h 5.105776 v 3.445068 h -5.105776 z m 7.658667,0 h 5.10578 v 3.445068 h -5.10578 z m 7.658672,0 h 5.105781 v 3.445068 h -5.105781 z m -38.293364,5.167603 h 5.105783 v 3.445069 h -5.105783 z m 7.658675,0 h 5.105783 v 3.445069 h -5.105783 z m 7.658675,0 h 5.105783 v 3.445069 h -5.105783 z m 7.658675,0 h 5.105776 v 3.445069 h -5.105776 z m 7.658667,0 h 5.10578 v 3.445069 h -5.10578 z m 7.658672,0 h 5.105781 v 3.445069 h -5.105781 z m -38.293364,5.167602 h 5.105783 v 3.445069 h -5.105783 v -1.722534 z m 7.658675,0 h 5.105783 v 3.445069 h -5.105783 v -1.722534 z m 7.658675,0 h 5.105783 v 3.445069 h -5.105783 v -1.722534 z m 7.658675,0 h 5.105776 v 3.445069 h -5.105776 v -1.722534 z m 7.658667,0 h 5.10578 v 3.445069 h -5.10578 v -1.722534 z m 7.658672,0 h 5.105781 v 3.445069 h -5.105781 v -1.722534 z m -38.293364,5.167603 h 5.105783 v 3.445069 h -5.105783 v -1.722534 z m 7.658675,0 h 5.105783 v 3.445069 h -5.105783 v -1.722534 z m 7.658675,0 h 5.105783 v 3.445069 h -5.105783 v -1.722534 z m 7.658675,0 h 5.105776 v 3.445069 h -5.105776 v -1.722534 z m 7.658667,0 h 5.10578 v 3.445069 h -5.10578 v -1.722534 z m 7.658672,0 h 5.105781 v 3.445069 h -5.105781 v -1.722534 z"
       color="#000000"
       opacity="0.15"
       fill="#ffffff"
       id="path17-5"
       style="display:inline;stroke-width:2.09701;fill:#232323;fill-opacity:1"
       sodipodi:nodetypes="ccccccccccccccccccccccccccccccccccccccccscccccccccccccccccccccccccccccccccccccccccccccccccccccccccccccccccccccccccccccccccccccccccccccccccccccccccccccccccccccccccccccccccccccccccccccccccccccccccccccccccccccccccccccccccccccccccccccccccccccccccccccccccccccccccccccccccccccccccccccccccccccccccccccccccccccccccccccccccccccccccccccccccccccccccccccccccc" />
    <path
       d="m 22.563063,22.657433 v 6.410444 h 2.141343 v 3.525744 a 3.2120139,3.2052222 0 0 0 -2.141343,3.017183 3.2120139,3.2052222 0 0 0 2.141343,3.017183 v 3.260779 h -2.141343 v 6.410444 h 6.42403 v -3.867635 a 14.989398,12.820889 0 0 0 10.706712,3.867635 v -2.136815 a 12.848055,10.684074 0 0 1 -12.355548,-7.758775 3.2120139,3.2052222 0 0 0 1.648836,-2.797089 3.2120139,3.2052222 0 0 0 -1.710938,-2.82487 12.848055,10.684074 0 0 1 12.41765,-7.989551 v -2.136814 a 14.989398,12.820889 0 0 0 -10.706712,3.852677 v -3.852677 z m 2.141343,2.136814 h 2.141344 v 2.136815 h -2.141344 z m 0,19.231334 h 2.141344 v 2.136814 h -2.141344 z"
       opacity="0.9"
       class="ColorScheme-Highlight"
       id="path29"
       style="opacity:0.75;stroke-width:2.13908;fill:currentColor;fill-opacity:1" />
  </g>
</svg>
