<?xml version="1.0" encoding="UTF-8" standalone="no"?>
<svg
   width="32"
   height="32"
   version="1.1"
   id="svg32"
   sodipodi:docname="image-vnd.djvu.svg"
   inkscape:version="1.1.2 (0a00cf5339, 2022-02-04)"
   xmlns:inkscape="http://www.inkscape.org/namespaces/inkscape"
   xmlns:sodipodi="http://sodipodi.sourceforge.net/DTD/sodipodi-0.dtd"
   xmlns:xlink="http://www.w3.org/1999/xlink"
   xmlns="http://www.w3.org/2000/svg"
   xmlns:svg="http://www.w3.org/2000/svg">
  <style
     type="text/css"
     id="current-color-scheme">
      .ColorScheme-Text {
        color:#232629;
      }
      .ColorScheme-Highlight {
        color:#3daee9;
      }
      </style>
  <sodipodi:namedview
     id="namedview34"
     pagecolor="#ffffff"
     bordercolor="#666666"
     borderopacity="1.0"
     inkscape:pageshadow="2"
     inkscape:pageopacity="0.0"
     inkscape:pagecheckerboard="0"
     showgrid="false"
     inkscape:zoom="19.625"
     inkscape:cx="7.2866242"
     inkscape:cy="8.9681529"
     inkscape:window-width="3440"
     inkscape:window-height="1356"
     inkscape:window-x="0"
     inkscape:window-y="0"
     inkscape:window-maximized="1"
     inkscape:current-layer="g842" />
  <defs
     id="defs14">
    <linearGradient
       id="b"
       y1="17"
       x1="47"
       y2="24"
       gradientUnits="userSpaceOnUse"
       x2="54"
       gradientTransform="translate(360.57 510.8)">
      <stop
         stop-color="#060606"
         id="stop2" />
      <stop
         offset="1"
         stop-opacity="0"
         id="stop4" />
    </linearGradient>
    <linearGradient
       xlink:href="#a"
       id="c"
       x1="-.978"
       y1="29.155"
       x2="-.978"
       y2="-1.341"
       gradientUnits="userSpaceOnUse"
       gradientTransform="translate(-20.004)" />
    <linearGradient
       id="a"
       y1="392.36"
       y2="320.48"
       gradientUnits="userSpaceOnUse"
       x2="0"
       gradientTransform="matrix(.5 0 0 .42294 418.57 378.93)">
      <stop
         stop-color="#fff"
         stop-opacity="0"
         id="stop8" />
      <stop
         offset="1"
         stop-color="#fff"
         stop-opacity=".2"
         id="stop10" />
    </linearGradient>
    <linearGradient
       xlink:href="#b"
       id="d"
       gradientUnits="userSpaceOnUse"
       gradientTransform="translate(360.57 510.8)"
       x1="47"
       y1="17"
       x2="54"
       y2="24" />
    <linearGradient
       xlink:href="#a-1"
       id="b-6"
       gradientUnits="userSpaceOnUse"
       x1="-75"
       y1="59"
       x2="-75"
       y2="-1"
       gradientTransform="translate(40)" />
    <linearGradient
       id="a-1"
       y1="392.35999"
       y2="320.48001"
       x2="0"
       gradientUnits="userSpaceOnUse"
       gradientTransform="matrix(1,0,0,0.84587,-34,-272.73)">
      <stop
         stop-color="#fff"
         stop-opacity="0"
         id="stop3" />
      <stop
         offset="1"
         stop-color="#fff"
         stop-opacity=".2"
         id="stop5" />
    </linearGradient>
    <linearGradient
       gradientTransform="translate(6,8)"
       id="c-0"
       y1="17.475"
       y2="31"
       x1="41.616001"
       x2="54"
       gradientUnits="userSpaceOnUse">
      <stop
         stop-color="#060606"
         id="stop8-6" />
      <stop
         offset="1"
         stop-opacity="0"
         id="stop10-1" />
    </linearGradient>
  </defs>
  <g
     id="g842"
     transform="matrix(0.49933608,0,0,0.49933608,-0.00555211,-0.54951507)"
     style="display:inline">
    <path
       d="M 46,11 H 9 c -2.77,0 -5,2.23 -5,5 v 40 c 0,2.77 2.23,5 5,5 h 46 c 2.77,0 5,-2.23 5,-5 V 25 Z"
       id="path15"
       inkscape:connector-curvature="0"
       style="display:inline;fill:#555555;fill-opacity:1" />
    <path
       d="M 46,11 H 9 c -2.77,0 -5,2.23 -5,5 v 40 c 0,2.77 2.23,5 5,5 h 46 c 2.77,0 5,-2.23 5,-5 V 25 Z"
       id="path17"
       style="display:inline;fill:url(#b-6)"
       inkscape:connector-curvature="0" />
    <path
       d="m 60,54.986 a 5.004,5.004 0 0 1 -1.46,3.54 4.989,4.989 0 0 1 -3.54,1.46 H 9 A 5.005,5.005 0 0 1 5.46,58.526 4.989,4.989 0 0 1 4,54.985 V 56 c 0,2.77 2.23,5 5,5 h 46 c 2.77,0 5,-2.23 5,-5 z"
       id="path19"

       inkscape:connector-curvature="0"
       style="display:inline;opacity:1;fill:#303030;fill-opacity:1" />
    <path
       d="M 46,11 H 9 c -2.77,0 -5,2.23 -5,5 v 1.14 A 5.005,5.005 0 0 1 5.46,13.602 4.989,4.989 0 0 1 9,12.14 h 37 z"
       id="path21"
       inkscape:connector-curvature="0"
       style="opacity:0.3;fill:#ffffff" />
    <path
       d="M 46.73,24.283 60,39 V 25 H 48.465 c -0.68,0 -1.29,-0.276 -1.735,-0.717 z"
       id="path23"
       style="opacity:0.2;fill:url(#c-0);fill-rule:evenodd"
       inkscape:connector-curvature="0" />
    <path
       d="M 46,11 V 22.535 A 2.456,2.456 0 0 0 48.465,25 H 60 Z"
       id="path25"
       inkscape:connector-curvature="0"
       style="opacity:0.6;fill:#ffffff;fill-rule:evenodd" />
    <g
       style=";opacity:0.75;fill:currentColor;fill-opacity:1"
       id="g33"
       class="ColorScheme-Highlight"
       transform="matrix(2.0026592,0,0,2.0026592,-828.50441,-1044.6473)">
      <path
         inkscape:connector-curvature="0"
         id="path15-1"
         class="ColorScheme-Highlight"
         transform="translate(421.71,531.79)"
         d="M 2,3 V 14 H 14 V 3 Z m 1,1 h 10 v 9 H 3 Z"
         style="fill:currentColor;fill-opacity:1" />
      <rect
         id="rect17"
         class="ColorScheme-Highlight"
         height="1"
         y="533.78998"
         x="433.70999"
         width="1"
         style="fill:currentColor;fill-opacity:1" />
      <rect
         id="rect19"
         class="ColorScheme-Highlight"
         height="1"
         y="533.78998"
         x="424.70999"
         width="1"
         style="fill:currentColor;fill-opacity:1" />
      <rect
         id="rect21"
         class="ColorScheme-Highlight"
         height="1"
         y="533.78998"
         x="426.70999"
         width="1"
         style="fill:currentColor;fill-opacity:1" />
      <rect
         id="rect23"
         class="ColorScheme-Highlight"
         height="1"
         y="533.78998"
         x="431.70999"
         width="1"
         style="fill:currentColor;fill-opacity:1" />
      <rect
         id="rect25"
         class="ColorScheme-Highlight"
         height="1"
         y="536.78998"
         x="425.70999"
         width="8"
         style="fill:currentColor;fill-opacity:1" />
      <rect
         id="rect27"
         class="ColorScheme-Highlight"
         height="1"
         y="538.78998"
         x="425.70999"
         width="4"
         style="fill:currentColor;fill-opacity:1" />
      <rect
         id="rect29"
         class="ColorScheme-Highlight"
         height="1"
         y="542.78998"
         x="431.70999"
         width="2"
         style="fill:currentColor;fill-opacity:1" />
      <rect
         id="rect31"
         class="ColorScheme-Highlight"
         height="1"
         y="540.78998"
         x="425.70999"
         width="6"
         style="fill:currentColor;fill-opacity:1" />
    </g>
  </g>
</svg>
