<?xml version="1.0" encoding="UTF-8" standalone="no"?>
<svg
   width="32"
   height="32"
   version="1.1"
   id="svg20"
   sodipodi:docname="image-gif.svg"
   inkscape:version="1.1.2 (0a00cf5339, 2022-02-04)"
   xmlns:inkscape="http://www.inkscape.org/namespaces/inkscape"
   xmlns:sodipodi="http://sodipodi.sourceforge.net/DTD/sodipodi-0.dtd"
   xmlns:xlink="http://www.w3.org/1999/xlink"
   xmlns="http://www.w3.org/2000/svg"
   xmlns:svg="http://www.w3.org/2000/svg">
  <style
     type="text/css"
     id="current-color-scheme">
      .ColorScheme-Text {
        color:#232629;
      }
      .ColorScheme-Highlight {
        color:#3daee9;
      }
   </style>
  <sodipodi:namedview
     id="namedview22"
     pagecolor="#ffffff"
     bordercolor="#666666"
     borderopacity="1.0"
     inkscape:pageshadow="2"
     inkscape:pageopacity="0.0"
     inkscape:pagecheckerboard="0"
     showgrid="false"
     inkscape:zoom="19.625"
     inkscape:cx="11.210191"
     inkscape:cy="10.700637"
     inkscape:window-width="3440"
     inkscape:window-height="1356"
     inkscape:window-x="0"
     inkscape:window-y="0"
     inkscape:window-maximized="1"
     inkscape:current-layer="g837" />
  <defs
     id="defs8">
    <linearGradient
       id="a"
       y1="392.36"
       y2="320.48"
       gradientUnits="userSpaceOnUse"
       x2="0"
       gradientTransform="matrix(.5 0 0 .42294 418.57 378.93)">
      <stop
         stop-color="#fff"
         stop-opacity="0"
         id="stop2" />
      <stop
         offset="1"
         stop-color="#fff"
         stop-opacity=".2"
         id="stop4" />
    </linearGradient>
    <linearGradient
       xlink:href="#a"
       id="b"
       x1="-.978"
       y1="29.155"
       x2="-.978"
       y2="-1.341"
       gradientUnits="userSpaceOnUse"
       gradientTransform="translate(-19.999997)" />
    <linearGradient
       xlink:href="#a-5"
       id="b-1"
       gradientUnits="userSpaceOnUse"
       x1="-75"
       y1="59"
       x2="-75"
       y2="-1"
       gradientTransform="translate(40)" />
    <linearGradient
       id="a-5"
       y1="392.35999"
       y2="320.48001"
       x2="0"
       gradientUnits="userSpaceOnUse"
       gradientTransform="matrix(1,0,0,0.84587,-34,-272.73)">
      <stop
         stop-color="#fff"
         stop-opacity="0"
         id="stop3" />
      <stop
         offset="1"
         stop-color="#fff"
         stop-opacity=".2"
         id="stop5" />
    </linearGradient>
  </defs>
  <g
     id="g837"
     transform="matrix(0.50024066,0,0,0.50024066,0.02641537,-0.54509317)"
     style="display:inline">
    <path
       d="m 9,11 c -2.77,0 -5,2.23 -5,5 v 40 c 0,2.77 2.23,5 5,5 h 46 c 2.77,0 5,-2.23 5,-5 V 16 c 0,-2.77 -2.23,-5 -5,-5 H 18 Z"
       id="path10"
       inkscape:connector-curvature="0"
       style="display:inline;fill:#555555;fill-opacity:1" />
    <path
       d="m 9,11 c -2.77,0 -5,2.23 -5,5 v 40 c 0,2.77 2.23,5 5,5 h 46 c 2.77,0 5,-2.23 5,-5 V 16 c 0,-2.77 -2.23,-5 -5,-5 H 18 Z"
       id="path12-9"
       style="display:inline;fill:url(#b-1)"
       inkscape:connector-curvature="0" />
    <path
       d="m 60,54.986 a 5.004,5.004 0 0 1 -1.46,3.54 4.989,4.989 0 0 1 -3.54,1.46 H 9 A 5.005,5.005 0 0 1 5.46,58.526 4.989,4.989 0 0 1 4,54.985 V 56 c 0,2.77 2.23,5 5,5 h 46 c 2.77,0 5,-2.23 5,-5 z"
       id="path14"

       inkscape:connector-curvature="0"
       style="display:inline;opacity:1;fill:#313131;fill-opacity:1" />
    <path
       d="m 21.05,21.344 v 1.828 h 1 V 21.344 Z M 18.257,22.5 17.55,23.207 18.843,24.5 19.55,23.793 Z m 6.586,0 -1.293,1.293 0.707,0.707 1.293,-1.293 z M 21.499,24 a 2.5,2.5 0 1 0 0,5 2.5,2.5 0 0 0 0,-5 m 0,1 A 1.5005001,1.5005001 0 1 1 21.498,28.001 1.5005001,1.5005001 0 0 1 21.499,25 m -5.105,1 v 1 h 1.828 v -1 z m 8.484,0 v 1 h 1.828 v -1 z m 14.12,5 -2,2 H 36.99 l -8.592,8.58 v 0.02 l -4.6,-4.6 -9,9 h 1.406 l 6.119,-6.082 1.409,-1.404 1.564,1.418 3.102,3.068 4,-4 2.951,-2.936 3.648,-3.462 3.637,3.515 7.957,7.883 h 1.406 z m -20.16,-2.5 -1.293,1.293 0.707,0.707 1.293,-1.293 z m 5.414,0 -0.707,0.707 1.293,1.293 0.707,-0.707 z m -3.207,1.328 v 1.828 h 1 v -1.828 z"
       id="path16-4"
       class="ColorScheme-Highlight"
       inkscape:connector-curvature="0"
       style="opacity:0.75;fill:currentColor;fill-rule:evenodd;fill-opacity:1" />
    <path
       d="m 8,13 c -1.108,0 -2,0.892 -2,2 v 2 h 4 v -4 z m 4,0 v 4 h 4 v -4 z m 6,0 v 4 h 4 v -4 z m 6,0 v 4 h 4 v -4 z m 6,0 v 4 h 4 v -4 z m 6,0 v 4 h 4 v -4 z m 6,0 v 4 h 4 v -4 z m 6,0 v 4 h 4 v -4 z m 6,0 v 4 h 4 v -2 c 0,-1.108 -0.892,-2 -2,-2 z M 6,55 v 2 c 0,1.108 0.892,2 2,2 h 2 v -4 z m 6,0 v 4 h 4 v -4 z m 6,0 v 4 h 4 v -4 z m 6,0 v 4 h 4 v -4 z m 6,0 v 4 h 4 v -4 z m 6,0 v 4 h 4 v -4 z m 6,0 v 4 h 4 v -4 z m 6,0 v 4 h 4 v -4 z m 6,0 v 4 h 2 c 1.108,0 2,-0.892 2,-2 v -2 z"
       id="path18-9"
       inkscape:connector-curvature="0"
       style="color:#000000;opacity:0.5;fill:#ffffff;fill-rule:evenodd" />
    <path
       d="M 60,17.046 A 5.004,5.004 0 0 0 58.54,13.506 4.989,4.989 0 0 0 55,12.046 H 9 A 5.005,5.005 0 0 0 5.46,13.506 4.989,4.989 0 0 0 4,17.047 v -1.014 c 0,-2.77 2.23,-5 5,-5 h 46 c 2.77,0 5,2.23 5,5 z"
       id="path20"
       inkscape:connector-curvature="0"
       style="opacity:0.3;fill:#ffffff" />
  </g>
</svg>
