<?xml version="1.0" encoding="UTF-8" standalone="no"?>
<svg
   width="32"
   height="32"
   version="1.1"
   id="svg32"
   sodipodi:docname="image-vnd.dgn.svg"
   inkscape:version="1.1.2 (0a00cf5339, 2022-02-04)"
   xmlns:inkscape="http://www.inkscape.org/namespaces/inkscape"
   xmlns:sodipodi="http://sodipodi.sourceforge.net/DTD/sodipodi-0.dtd"
   xmlns:xlink="http://www.w3.org/1999/xlink"
   xmlns="http://www.w3.org/2000/svg"
   xmlns:svg="http://www.w3.org/2000/svg">
  <style
     type="text/css"
     id="current-color-scheme">
      .ColorScheme-Text {
        color:#232629;
      }
      .ColorScheme-Highlight {
        color:#3daee9;
      }
      </style>
  <sodipodi:namedview
     id="namedview34"
     pagecolor="#ffffff"
     bordercolor="#666666"
     borderopacity="1.0"
     inkscape:pageshadow="2"
     inkscape:pageopacity="0.0"
     inkscape:pagecheckerboard="0"
     showgrid="false"
     inkscape:zoom="19.625"
     inkscape:cx="7.2866242"
     inkscape:cy="8.9681529"
     inkscape:window-width="3440"
     inkscape:window-height="1356"
     inkscape:window-x="0"
     inkscape:window-y="0"
     inkscape:window-maximized="1"
     inkscape:current-layer="g842" />
  <defs
     id="defs14">
    <linearGradient
       id="b"
       y1="17"
       x1="47"
       y2="24"
       gradientUnits="userSpaceOnUse"
       x2="54"
       gradientTransform="translate(360.57 510.8)">
      <stop
         stop-color="#060606"
         id="stop2" />
      <stop
         offset="1"
         stop-opacity="0"
         id="stop4" />
    </linearGradient>
    <linearGradient
       xlink:href="#a"
       id="c"
       x1="-.978"
       y1="29.155"
       x2="-.978"
       y2="-1.341"
       gradientUnits="userSpaceOnUse"
       gradientTransform="translate(-20.004)" />
    <linearGradient
       id="a"
       y1="392.36"
       y2="320.48"
       gradientUnits="userSpaceOnUse"
       x2="0"
       gradientTransform="matrix(.5 0 0 .42294 418.57 378.93)">
      <stop
         stop-color="#fff"
         stop-opacity="0"
         id="stop8" />
      <stop
         offset="1"
         stop-color="#fff"
         stop-opacity=".2"
         id="stop10" />
    </linearGradient>
    <linearGradient
       xlink:href="#b"
       id="d"
       gradientUnits="userSpaceOnUse"
       gradientTransform="translate(360.57 510.8)"
       x1="47"
       y1="17"
       x2="54"
       y2="24" />
    <linearGradient
       xlink:href="#a-1"
       id="b-6"
       gradientUnits="userSpaceOnUse"
       x1="-75"
       y1="59"
       x2="-75"
       y2="-1"
       gradientTransform="translate(40)" />
    <linearGradient
       id="a-1"
       y1="392.35999"
       y2="320.48001"
       x2="0"
       gradientUnits="userSpaceOnUse"
       gradientTransform="matrix(1,0,0,0.84587,-34,-272.73)">
      <stop
         stop-color="#fff"
         stop-opacity="0"
         id="stop3" />
      <stop
         offset="1"
         stop-color="#fff"
         stop-opacity=".2"
         id="stop5" />
    </linearGradient>
    <linearGradient
       gradientTransform="translate(6,8)"
       id="c-0"
       y1="17.475"
       y2="31"
       x1="41.616001"
       x2="54"
       gradientUnits="userSpaceOnUse">
      <stop
         stop-color="#060606"
         id="stop8-6" />
      <stop
         offset="1"
         stop-opacity="0"
         id="stop10-1" />
    </linearGradient>
  </defs>
  <g
     id="g842"
     transform="matrix(0.49933608,0,0,0.49933608,-0.00555211,-0.54951507)"
     style="display:inline">
    <path
       d="M 46,11 H 9 c -2.77,0 -5,2.23 -5,5 v 40 c 0,2.77 2.23,5 5,5 h 46 c 2.77,0 5,-2.23 5,-5 V 25 Z"
       id="path15"
       inkscape:connector-curvature="0"
       style="display:inline;fill:#555555;fill-opacity:1" />
    <path
       d="M 46,11 H 9 c -2.77,0 -5,2.23 -5,5 v 40 c 0,2.77 2.23,5 5,5 h 46 c 2.77,0 5,-2.23 5,-5 V 25 Z"
       id="path17"
       style="display:inline;fill:url(#b-6)"
       inkscape:connector-curvature="0" />
    <path
       d="m 60,54.986 a 5.004,5.004 0 0 1 -1.46,3.54 4.989,4.989 0 0 1 -3.54,1.46 H 9 A 5.005,5.005 0 0 1 5.46,58.526 4.989,4.989 0 0 1 4,54.985 V 56 c 0,2.77 2.23,5 5,5 h 46 c 2.77,0 5,-2.23 5,-5 z"
       id="path19"

       inkscape:connector-curvature="0"
       style="display:inline;opacity:1;fill:#313131;fill-opacity:1" />
    <path
       d="M 46,11 H 9 c -2.77,0 -5,2.23 -5,5 v 1.14 A 5.005,5.005 0 0 1 5.46,13.602 4.989,4.989 0 0 1 9,12.14 h 37 z"
       id="path21"
       inkscape:connector-curvature="0"
       style="opacity:0.3;fill:#ffffff" />
    <path
       d="M 46.73,24.283 60,39 V 25 H 48.465 c -0.68,0 -1.29,-0.276 -1.735,-0.717 z"
       id="path23"
       style="opacity:0.2;fill:url(#c-0);fill-rule:evenodd"
       inkscape:connector-curvature="0" />
    <path
       d="M 46,11 V 22.535 A 2.456,2.456 0 0 0 48.465,25 H 60 Z"
       id="path25"
       inkscape:connector-curvature="0"
       style="opacity:0.6;fill:#ffffff;fill-rule:evenodd" />
    <path
       style="opacity:0.75;fill:currentColor;fill-opacity:1;fill-rule:evenodd;stroke-width:2.00266"
       inkscape:connector-curvature="0"
       id="path15-5"
       class="ColorScheme-Highlight"
       d="m 30.075019,24.324359 v 4.005318 h 4.00532 v -4.005318 z m -0.26235,4.720268 -3.96527,1.063412 1.63818,1.638175 2.58944,-0.696926 v -2.002659 z m 4.26767,0 v 2.002659 l 6.12213,1.64218 -6.12213,1.638176 v 14.018614 h 0.26234 l 9.734931,-2.609465 0.01602,0.004 v -14.09872 l -0.01602,0.004 -9.734931,-2.609465 z m -11.39313,1.908534 -2.62549,0.704936 V 46.35361 l 12.01596,2.002659 V 34.337655 l -8.79368,-1.465947 1.04138,-0.278369 z m 19.40376,3.308393 v 8.875785 l -6.00797,-1.61214 v -5.651505 z m -6.00797,9.340402 4.11947,1.103465 -4.11947,1.107471 z" />
  </g>
</svg>
