<?xml version="1.0" encoding="UTF-8" standalone="no"?>
<svg
   width="32"
   height="32"
   version="1.1"
   id="svg29"
   sodipodi:docname="text-x-generic.svg"
   inkscape:version="1.1.2 (0a00cf5339, 2022-02-04)"
   xmlns:inkscape="http://www.inkscape.org/namespaces/inkscape"
   xmlns:sodipodi="http://sodipodi.sourceforge.net/DTD/sodipodi-0.dtd"
   xmlns:xlink="http://www.w3.org/1999/xlink"
   xmlns="http://www.w3.org/2000/svg"
   xmlns:svg="http://www.w3.org/2000/svg">
  <style
     type="text/css"
     id="current-color-scheme">
      .ColorScheme-Text {
        color:#232629;
      }
      .ColorScheme-Highlight {
        color:#3daee9;
      }
   </style>
  <sodipodi:namedview
     id="namedview31"
     pagecolor="#ffffff"
     bordercolor="#666666"
     borderopacity="1.0"
     inkscape:pageshadow="2"
     inkscape:pageopacity="0.0"
     inkscape:pagecheckerboard="0"
     showgrid="false"
     inkscape:zoom="19.625"
     inkscape:cx="-17.936306"
     inkscape:cy="16"
     inkscape:window-width="3440"
     inkscape:window-height="1356"
     inkscape:window-x="0"
     inkscape:window-y="0"
     inkscape:window-maximized="1"
     inkscape:current-layer="svg29" />
  <defs
     id="defs13">
    <linearGradient
       id="a"
       y1="392.36"
       y2="365.36"
       x2="0"
       gradientUnits="userSpaceOnUse"
       gradientTransform="translate(309.57 152.44)">
      <stop
         stop-color="#fff"
         stop-opacity="0"
         id="stop2" />
      <stop
         offset="1"
         stop-color="#fff"
         stop-opacity=".2"
         id="stop4" />
    </linearGradient>
    <linearGradient
       id="b"
       y1="17"
       y2="24"
       x1="47"
       x2="54"
       gradientUnits="userSpaceOnUse"
       gradientTransform="translate(-27 -8)">
      <stop
         stop-color="#060606"
         id="stop7" />
      <stop
         offset="1"
         stop-opacity="0"
         id="stop9" />
    </linearGradient>
    <linearGradient
       xlink:href="#a"
       id="c"
       x1="5"
       y1="30"
       x2="5"
       y2="2"
       gradientUnits="userSpaceOnUse"
       gradientTransform="translate(-20)" />
    <linearGradient
       id="e"
       y1="536.83002"
       x1="406.84"
       y2="524.58002"
       x2="400.70999"
       gradientUnits="userSpaceOnUse">
      <stop
         stop-color="#c61423"
         id="stop17" />
      <stop
         offset="1"
         stop-color="#dc2b41"
         id="stop19" />
    </linearGradient>
    <linearGradient
       id="f"
       y1="524.58002"
       x1="400.70999"
       y2="536.83002"
       x2="394.59"
       gradientUnits="userSpaceOnUse">
      <stop
         stop-color="#197cf1"
         id="stop12" />
      <stop
         offset="1"
         stop-color="#20bcfa"
         id="stop14" />
    </linearGradient>
    <linearGradient
       id="g"
       x1="406.84"
       x2="394.59"
       gradientUnits="userSpaceOnUse">
      <stop
         stop-color="#42a603"
         id="stop7-9" />
      <stop
         offset="1"
         stop-color="#78da06"
         id="stop9-0" />
    </linearGradient>
  </defs>
  <path
     d="M 20,2 H 8 C 6.338,2 5,3.338 5,5 v 22 c 0,1.662 1.338,3 3,3 h 16 c 1.662,0 3,-1.338 3,-3 V 9 Z"
     id="path15"
     style="display:inline;fill:#aeaeae;fill-opacity:1" />
  <path
     d="M 8,2 A 2.99,2.99 0 0 0 5.877,2.877 C 5.846,2.908 5.857,2.967 5.827,3 H 20 V 2 Z"
     color="#000000"
     opacity="0.5"
     fill="#ffffff"
     id="path17"
     style="display:inline" />
  <path
     d="m 5.826,29 c 0.03,0.033 0.02,0.092 0.051,0.123 A 2.99,2.99 0 0 0 8,30 h 16 a 2.99,2.99 0 0 0 2.123,-0.877 c 0.031,-0.031 0.02,-0.09 0.05,-0.123 H 5.827 Z"
     id="path19"
     class="ColorScheme-Highlight"
     style="display:inline;fill:currentColor;fill-opacity:1;opacity:1" />
  <path
     d="M27 9l-7-7v7z"
     color="#000"
     opacity=".5"
     fill="#fff"
     fill-rule="evenodd"
     id="path21" />
  <path
     d="M20 9l7 7V9z"
     opacity=".1"
     fill="url(#b)"
     fill-rule="evenodd"
     id="path23" />
  <path
     d="M 20,1.9999999 H 7.9999996 c -1.662,0 -3,1.3380001 -3,3.0000001 v 22 c 0,1.662 1.338,3 3,3 H 24 c 1.662,0 3,-1.338 3,-3 V 9 Z"
     opacity="0.4"
     fill="url(#c)"
     id="path27"
     style="display:inline;fill:url(#c)" />
  <path
     d="m 10.039585,21.696936 v -1 h 6 v 1 z m 0,-2 v -1 h 12 v 1 z m 0,-3 v -1 h 8 v 1 z m 0,-2 v -1 h 12 v 1 z m 0,-2 v -1 h 12 v 1 z"
     color="#000000"
     opacity="0.6"
     id="path25" />
</svg>
