<?xml version="1.0" encoding="UTF-8" standalone="no"?>
<!-- Created with Inkscape (http://www.inkscape.org/) -->

<svg
  width="48"
  height="48"
  version="1.1"
  viewBox="0 0 48 48"
  id="svg22"
  xmlns:xlink="http://www.w3.org/1999/xlink"
  xmlns="http://www.w3.org/2000/svg"
  xmlns:svg="http://www.w3.org/2000/svg">
 <defs
   id="defs12">
  <linearGradient
    id="linearGradient1005-3-3"
    x1="5.2535"
    x2="9.3823996"
    y1="15.383"
    y2="2.9421"
    gradientTransform="matrix(0.99999,0,0,0.99999,1.632,-0.61743)"
    gradientUnits="userSpaceOnUse">
   <stop
     stop-color="#fa8200"
     offset="0"
     id="stop2" />
   <stop
     stop-color="#ff9600"
     offset=".36953"
     id="stop4" />
   <stop
     stop-color="#ffb400"
     offset="1"
     id="stop6" />
  </linearGradient>
  <filter
    id="filter4014"
    x="-0.062499932"
    y="-0.057692992"
    width="1.1249999"
    height="1.115386"
    color-interpolation-filters="sRGB">
   <feGaussianBlur
     stdDeviation="1.093751"
     id="feGaussianBlur9" />
  </filter>
  <linearGradient
    xlink:href="#linearGradient3487"
    id="linearGradient3403"
    gradientUnits="userSpaceOnUse"
    x1="6.9491749"
    y1="4.5549412"
    x2="11.215498"
    y2="59.052471" />
  <linearGradient
    id="linearGradient3487">
   <stop
     style="stop-color:#32373c;stop-opacity:1"
     offset="0"
     id="stop3481" />
   <stop
     id="stop3483"
     offset="0.36804965"
     style="stop-color:#1a1a1a;stop-opacity:1" />
   <stop
     style="stop-color:#31363b;stop-opacity:1"
     offset="1"
     id="stop3485" />
  </linearGradient>
  <linearGradient
    xlink:href="#linearGradient20604"
    id="linearGradient20558"
    gradientUnits="userSpaceOnUse"
    x1="25.802212"
    y1="20.373846"
    x2="25.111048"
    y2="58.912758" />
  <linearGradient
    id="linearGradient20604">
   <stop
     id="stop20598"
     offset="0"
     style="stop-color:#3d3d3d;stop-opacity:1" />
   <stop
     style="stop-color:#000000;stop-opacity:1"
     offset="0.61772454"
     id="stop20600" />
   <stop
     id="stop20602"
     offset="1"
     style="stop-color:#3d3d3d;stop-opacity:1" />
  </linearGradient>
  <linearGradient
    gradientTransform="translate(0.36067797,-0.13016949)"
    xlink:href="#linearGradient4555"
    id="linearGradient4557"
    x1="43.499737"
    y1="64.011795"
    x2="44.141731"
    y2="0.30621234"
    gradientUnits="userSpaceOnUse" />
  <linearGradient
    id="linearGradient4555">
   <stop
     style="stop-color:#141618;stop-opacity:1"
     offset="0"
     id="stop4551" />
   <stop
     id="stop4559"
     offset="0.51820582"
     style="stop-color:#686868;stop-opacity:1" />
   <stop
     style="stop-color:#31363b;stop-opacity:1"
     offset="1"
     id="stop4553" />
  </linearGradient>
  <filter
    style="color-interpolation-filters:sRGB"
    id="filter4601"
    x="-0.029678529"
    width="1.0593571"
    y="-0.029537112"
    height="1.0590742">
   <feGaussianBlur
     stdDeviation="2.8828083e-05"
     id="feGaussianBlur4603" />
  </filter>
  <linearGradient
    xlink:href="#a"
    id="e"
    gradientUnits="userSpaceOnUse"
    gradientTransform="matrix(1.125,0,0,1,-432.97867,-499.38471)"
    y1="543.79797"
    x2="0"
    y2="503.798" />
  <linearGradient
    id="a">
   <stop
     stop-color="#426467"
     id="stop12" />
   <stop
     offset="1"
     stop-color="#525b58"
     id="stop14" />
  </linearGradient>
  <linearGradient
    xlink:href="#d"
    id="f"
    x1="14"
    y1="21"
    x2="14"
    y2="4"
    gradientUnits="userSpaceOnUse"
    gradientTransform="translate(0.66432801,0.41328677)" />
  <linearGradient
    id="d">
   <stop
     offset="0"
     stop-color="#ffa92d"
     id="stop2-7" />
   <stop
     offset="1"
     stop-color="#ffdaa5"
     id="stop4-1" />
  </linearGradient>
  <linearGradient
    xlink:href="#b"
    id="g"
    y1="527.79797"
    x2="0"
    y2="504.798"
    gradientUnits="userSpaceOnUse"
    gradientTransform="translate(-381.90667,-499.38471)" />
  <linearGradient
    id="b">
   <stop
     stop-color="#fff"
     id="stop7" />
   <stop
     offset="1"
     stop-color="#fff"
     stop-opacity="0"
     id="stop9" />
  </linearGradient>
  <linearGradient
    id="h"
    y1="4"
    x1="8"
    y2="18"
    gradientUnits="userSpaceOnUse"
    x2="22"
    gradientTransform="translate(2.664328,0.41328677)">
   <stop
     stop-color="#292c2f"
     id="stop24" />
   <stop
     offset="1"
     stop-opacity="0"
     id="stop26" />
  </linearGradient>
 </defs>
 <g
   id="g12840"
   transform="matrix(1.0632004,0,0,1.0954983,-0.53994643,-2.9386982)">
  <path
    d="M 8.664328,4.4132868 V 44.413287 h 29.355 a 6.63,6.63 0 0 0 6.645,-6.645 v -26.71 a 6.63,6.63 0 0 0 -6.645,-6.6450002 h -22.71 z"
    id="path32"
    style="fill:url(#e)" />
  <path
    d="m 8.664328,43.413287 v 1 h 29.355 c 0.92,0 1.797,-0.184 2.592,-0.52 0.269,-0.113 0.464,-0.334 0.713,-0.48 z"
    id="path34"
    style="opacity:0.15" />
  <path
    d="m 8.664328,4.4132868 h 2 V 44.413287 h -2 z"
    id="path36"
    style="opacity:0.6;fill:#080809" />
  <path
    d="m 41.324328,43.413287 c 0.489,-0.287 1.001,-0.544 1.399,-0.941 0.016,-0.017 0.022,-0.042 0.039,-0.059 h -32.098 v 1 z"
    id="path38"
    style="fill:#8b8f8f" />
  <path
    d="m 42.762328,42.413287 c 0.281,-0.287 0.448,-0.665 0.673,-1 h -32.771 v 1 z"
    id="path40"
    style="fill:#212323;fill-opacity:0.452" />
  <path
    d="M 10.664328,4.4132868 V 21.413287 l 4,-2.309 4,2.309 V 4.4132868 Z"
    id="path42"
    style="fill:url(#f)" />
  <path
    d="m 11.664328,4.4132868 h 6 V 19.413287 l -3,-2 -3,2 z"
    id="path44"
    style="opacity:0.15;fill:url(#g)" />
  <path
    d="m 33.664328,44.413287 h 4.355 a 6.63,6.63 0 0 0 6.645,-6.645 v -7.355 l -26,-26.0000002 V 21.413287 l -4,-2.309 -4,2.309 z"
    id="path46"
    style="opacity:0.2;fill:url(#h);fill-rule:evenodd" />
 </g>
 <path
   style="display:inline;mix-blend-mode:normal;fill:url(#linearGradient3403);fill-opacity:1;stroke:url(#linearGradient20558);stroke-width:1.16242;stroke-linecap:butt;stroke-linejoin:round;stroke-miterlimit:4;stroke-dasharray:none;stroke-opacity:1"
   d="M 4.7043071,3.9814882 4.6913695,60.80196 H 58.59546 l 1.022155,-2.866369 c 0,0 -23.87537,0.766388 -32.844441,-4.140386 C 16.257548,48.042344 11.401114,4.0978197 11.401114,4.0978197 Z"
   id="path1686"
   transform="matrix(0.7518797,0,0,0.7518797,0.09970467,0.02488636)" />
 <rect
   style="display:inline;fill:none;fill-opacity:1;stroke:url(#linearGradient4557);stroke-width:3.71366;stroke-linejoin:round;stroke-miterlimit:7.8;stroke-dasharray:none;stroke-opacity:0.995146"
   id="rect4539"
   width="62.567089"
   height="62.866646"
   x="1.0323594"
   y="0.59551275"
   ry="6.2447233"
   rx="5.8029528"
   transform="matrix(0.70434793,0,0,0.70291231,1.3629847,1.5442064)" />
</svg>
