<?xml version="1.0" encoding="UTF-8" standalone="no"?>
<!-- Created with Inkscape (http://www.inkscape.org/) -->

<svg
  width="48"
  height="48"
  version="1.1"
  viewBox="0 0 48 48"
  id="svg22"
  xmlns:xlink="http://www.w3.org/1999/xlink"
  xmlns="http://www.w3.org/2000/svg"
  xmlns:svg="http://www.w3.org/2000/svg">
 <defs
   id="defs12">
  <linearGradient
    xlink:href="#linearGradient3487"
    id="linearGradient3403"
    gradientUnits="userSpaceOnUse"
    x1="6.9491749"
    y1="4.5549412"
    x2="11.215498"
    y2="59.052471" />
  <linearGradient
    id="linearGradient3487">
   <stop
     style="stop-color:#32373c;stop-opacity:1"
     offset="0"
     id="stop3481" />
   <stop
     id="stop3483"
     offset="0.36804965"
     style="stop-color:#1a1a1a;stop-opacity:1" />
   <stop
     style="stop-color:#31363b;stop-opacity:1"
     offset="1"
     id="stop3485" />
  </linearGradient>
  <linearGradient
    xlink:href="#linearGradient20604"
    id="linearGradient20558"
    gradientUnits="userSpaceOnUse"
    x1="25.802212"
    y1="20.373846"
    x2="25.111048"
    y2="58.912758" />
  <linearGradient
    id="linearGradient20604">
   <stop
     id="stop20598"
     offset="0"
     style="stop-color:#3d3d3d;stop-opacity:1" />
   <stop
     style="stop-color:#000000;stop-opacity:1"
     offset="0.61772454"
     id="stop20600" />
   <stop
     id="stop20602"
     offset="1"
     style="stop-color:#3d3d3d;stop-opacity:1" />
  </linearGradient>
  <filter
    style="color-interpolation-filters:sRGB"
    id="filter20720"
    x="-0.010587941"
    y="-0.010234953"
    width="1.0211754"
    height="1.0204699">
   <feGaussianBlur
     stdDeviation="0.00014409644"
     id="feGaussianBlur20722" />
  </filter>
  <linearGradient
    gradientTransform="translate(0.36067797,-0.13016949)"
    xlink:href="#linearGradient4555"
    id="linearGradient4557"
    x1="43.499737"
    y1="64.011795"
    x2="44.141731"
    y2="0.30621234"
    gradientUnits="userSpaceOnUse" />
  <linearGradient
    id="linearGradient4555">
   <stop
     style="stop-color:#141618;stop-opacity:1"
     offset="0"
     id="stop4551" />
   <stop
     id="stop4559"
     offset="0.51820582"
     style="stop-color:#686868;stop-opacity:1" />
   <stop
     style="stop-color:#31363b;stop-opacity:1"
     offset="1"
     id="stop4553" />
  </linearGradient>
  <filter
    style="color-interpolation-filters:sRGB"
    id="filter4601"
    x="-0.02968333"
    width="1.0593667"
    y="-0.02954189"
    height="1.0590838">
   <feGaussianBlur
     stdDeviation="0.00015397755"
     id="feGaussianBlur4603" />
  </filter>
  <linearGradient
    id="c"
    y1="543.79999"
    y2="503.79999"
    x2="0"
    gradientUnits="userSpaceOnUse"
    gradientTransform="translate(-375.9974,-500.57118)">
   <stop
     stop-color="#1d1e1e"
     id="stop7" />
   <stop
     offset="1"
     stop-color="#44484c"
     id="stop9" />
  </linearGradient>
  <linearGradient
    id="d"
    y1="7"
    x1="10"
    y2="32"
    x2="35"
    gradientUnits="userSpaceOnUse"
    gradientTransform="translate(8.5725999,-0.77117715)">
   <stop
     stop-color="#383e51"
     id="stop22" />
   <stop
     offset="1"
     stop-color="#655c6f"
     stop-opacity="0"
     id="stop24" />
  </linearGradient>
  <linearGradient
    xlink:href="#a"
    id="e"
    y1="506.79999"
    y2="504.79999"
    x2="0"
    gradientUnits="userSpaceOnUse"
    gradientTransform="translate(-375.9974,-500.57118)" />
  <linearGradient
    id="a"
    y1="543.79999"
    y2="503.79999"
    x2="0"
    gradientUnits="userSpaceOnUse"
    gradientTransform="matrix(1.125,0,0,1,-51.07,0)">
   <stop
     stop-color="#c6cdd1"
     id="stop2-0" />
   <stop
     offset="1"
     stop-color="#e0e5e7"
     id="stop4-9" />
  </linearGradient>
  <linearGradient
    xlink:href="#a"
    id="f"
    y1="508.79999"
    y2="506.79999"
    gradientUnits="userSpaceOnUse"
    x2="0"
    gradientTransform="translate(-375.9974,-500.57118)" />
  <linearGradient
    xlink:href="#a"
    id="g"
    y1="510.79999"
    y2="508.79999"
    gradientUnits="userSpaceOnUse"
    x2="0"
    gradientTransform="translate(-375.9974,-500.57118)" />
  <linearGradient
    xlink:href="#a"
    id="h"
    y1="512.79999"
    y2="510.79999"
    gradientUnits="userSpaceOnUse"
    x2="0"
    gradientTransform="translate(-375.9974,-500.57118)" />
  <linearGradient
    xlink:href="#a"
    id="i"
    y1="514.79999"
    y2="512.79999"
    gradientUnits="userSpaceOnUse"
    x2="0"
    gradientTransform="translate(-375.9974,-500.57118)" />
  <linearGradient
    xlink:href="#a"
    id="j"
    y1="516.79999"
    y2="514.79999"
    gradientUnits="userSpaceOnUse"
    x2="0"
    gradientTransform="translate(-375.9974,-500.57118)" />
  <linearGradient
    xlink:href="#a"
    id="k"
    y1="518.79999"
    y2="516.79999"
    gradientUnits="userSpaceOnUse"
    x2="0"
    gradientTransform="translate(-375.9974,-500.57118)" />
  <linearGradient
    xlink:href="#a"
    id="l"
    y1="520.79999"
    y2="518.79999"
    gradientUnits="userSpaceOnUse"
    x2="0"
    gradientTransform="translate(-375.9974,-500.57118)" />
  <linearGradient
    xlink:href="#a"
    id="m"
    y1="523.79999"
    y2="520.79999"
    gradientUnits="userSpaceOnUse"
    x2="0"
    gradientTransform="translate(-375.9974,-500.57118)" />
  <linearGradient
    xlink:href="#a"
    id="n"
    y1="33"
    y2="25"
    x2="0"
    gradientUnits="userSpaceOnUse"
    gradientTransform="translate(8.5725999,-0.77117715)" />
 </defs>
 <rect
   style="display:inline;fill:#f8f8f8;fill-opacity:0.99607843;fill-rule:evenodd;stroke:none;stroke-width:0.92782;stroke-linejoin:round;stroke-miterlimit:7.8"
   id="rect1192"
   width="42.084602"
   height="42.712109"
   x="3.1629105"
   y="3.0184898"
   ry="0" />
 <path
   d="m 28.5726,3.2288229 h 8 V 43.228823 h -8 z"
   id="path32"
   style="fill:url(#c)" />
 <path
   d="m 36.5726,6.2288229 v 3 h -3 l 3,3.0000001 v 1 h -3 l 3,3 v 1 h -3 l 3,3 v 1 h -3 l 12.718746,16.999999 v -18 l -1.789748,-2.5 z m -2,18.0000001 v 4 h -1 v 4 h -2 l 6.718746,10.999999 h 8 v -3 L 43.744082,36.81322 Z"
   id="path34"
   style="opacity:0.2;fill:url(#d);fill-rule:evenodd" />
 <path
   d="m 28.572598,4.2288219 v 3 h 3 v -1 h 1 v -1 h -1 v -1 z"
   id="path36"
   style="fill:url(#e);stroke-width:2.8;stroke-opacity:0.55" />
 <path
   d="m 36.572598,6.2288219 v 3 h -3 v -1 h -1 v -1 h 1 v -1 z"
   id="path38"
   style="fill:url(#f);stroke-width:2.8;stroke-opacity:0.55" />
 <path
   d="m 28.572598,8.2288219 v 3.0000001 h 3 v -1 h 1 V 9.2288219 h -1 v -1 z"
   id="path40"
   style="fill:url(#g);stroke-width:2.8;stroke-opacity:0.55" />
 <path
   d="m 36.572598,10.228822 v 3 h -3 v -1 h -1 v -1 h 1 v -1 z"
   id="path42"
   style="fill:url(#h);stroke-width:2.8;stroke-opacity:0.55" />
 <path
   d="m 28.572598,12.228822 v 3 h 3 v -1 h 1 v -1 h -1 v -1 z"
   id="path44"
   style="fill:url(#i);stroke-width:2.8;stroke-opacity:0.55" />
 <path
   d="m 36.572598,14.228822 v 3 h -3 v -1 h -1 v -1 h 1 v -1 z"
   id="path46"
   style="fill:url(#j);stroke-width:2.8;stroke-opacity:0.55" />
 <path
   d="m 28.572598,16.228822 v 3 h 3 v -1 h 1 v -1 h -1 v -1 z"
   id="path48"
   style="fill:url(#k);stroke-width:2.8;stroke-opacity:0.55" />
 <path
   d="m 36.572598,18.228822 v 3 h -3 v -1 h -1 v -1 h 1 v -1 z"
   id="path50"
   style="fill:url(#l);stroke-width:2.8;stroke-opacity:0.55" />
 <path
   d="m 28.572598,20.228822 v 3 h 3 v -1 h 1 v -1 h -1 v -1 z"
   id="path52"
   style="fill:url(#m);stroke-width:2.8;stroke-opacity:0.55" />
 <path
   d="m 30.5726,24.228823 v 4 h 1 v 4 h 2 v -4 h 1 v -4 z m 1,1 h 2 v 2 h -2 z"
   id="path54"
   style="fill:url(#n);stroke-width:2.8;stroke-opacity:0.55" />
 <path
   style="display:inline;mix-blend-mode:normal;fill:url(#linearGradient3403);fill-opacity:1;stroke:url(#linearGradient20558);stroke-width:1.16242;stroke-linecap:butt;stroke-linejoin:round;stroke-miterlimit:4;stroke-dasharray:none;stroke-opacity:1"
   d="M 4.7043071,3.9814882 4.6913695,60.80196 H 58.59546 l 1.022155,-2.866369 c 0,0 -23.87537,0.766388 -32.844441,-4.140386 C 16.257548,48.042344 11.401114,4.0978197 11.401114,4.0978197 Z"
   id="path1686"
   transform="matrix(0.7518797,0,0,0.7518797,0.09970467,0.02488636)" />
 <rect
   style="display:inline;fill:none;fill-opacity:1;stroke:url(#linearGradient4557);stroke-width:3.71366;stroke-linejoin:round;stroke-miterlimit:7.8;stroke-dasharray:none;stroke-opacity:0.995146"
   id="rect4539"
   width="62.567089"
   height="62.866646"
   x="1.0323594"
   y="0.59551275"
   ry="6.2447233"
   rx="5.8029528"
   transform="matrix(0.70434793,0,0,0.70291231,1.3629847,1.5442064)" />
</svg>
