<?xml version="1.0" encoding="UTF-8" standalone="no"?>
<!-- Created with Inkscape (http://www.inkscape.org/) -->

<svg
  width="48"
  height="48"
  version="1.1"
  viewBox="0 0 48 48"
  id="svg22"
  xmlns:xlink="http://www.w3.org/1999/xlink"
  xmlns="http://www.w3.org/2000/svg"
  xmlns:svg="http://www.w3.org/2000/svg">
 <defs
   id="defs12">
  <linearGradient
    id="linearGradient917">
   <stop
     style="stop-color:#134a83;stop-opacity:1;"
     offset="0"
     id="stop913" />
   <stop
     style="stop-color:#bdd7f0;stop-opacity:1;"
     offset="1"
     id="stop915" />
  </linearGradient>
  <linearGradient
    xlink:href="#linearGradient3487"
    id="linearGradient3403"
    gradientUnits="userSpaceOnUse"
    x1="6.9491749"
    y1="4.5549412"
    x2="11.215498"
    y2="59.052471" />
  <linearGradient
    id="linearGradient3487">
   <stop
     style="stop-color:#32373c;stop-opacity:1"
     offset="0"
     id="stop3481" />
   <stop
     id="stop3483"
     offset="0.36804965"
     style="stop-color:#1a1a1a;stop-opacity:1" />
   <stop
     style="stop-color:#31363b;stop-opacity:1"
     offset="1"
     id="stop3485" />
  </linearGradient>
  <linearGradient
    xlink:href="#linearGradient20604"
    id="linearGradient20558"
    gradientUnits="userSpaceOnUse"
    x1="25.802212"
    y1="20.373846"
    x2="25.111048"
    y2="58.912758" />
  <linearGradient
    id="linearGradient20604">
   <stop
     id="stop20598"
     offset="0"
     style="stop-color:#3d3d3d;stop-opacity:1" />
   <stop
     style="stop-color:#000000;stop-opacity:1"
     offset="0.61772454"
     id="stop20600" />
   <stop
     id="stop20602"
     offset="1"
     style="stop-color:#3d3d3d;stop-opacity:1" />
  </linearGradient>
  <filter
    style="color-interpolation-filters:sRGB"
    id="filter20720"
    x="-0.010581753"
    y="-0.010228971"
    width="1.021163"
    height="1.020458">
   <feGaussianBlur
     stdDeviation="2.4883517e-06"
     id="feGaussianBlur20722" />
  </filter>
  <linearGradient
    gradientTransform="translate(0.36067797,-0.13016949)"
    xlink:href="#linearGradient4555"
    id="linearGradient4557"
    x1="43.499737"
    y1="64.011795"
    x2="44.141731"
    y2="0.30621234"
    gradientUnits="userSpaceOnUse" />
  <linearGradient
    id="linearGradient4555">
   <stop
     style="stop-color:#141618;stop-opacity:1"
     offset="0"
     id="stop4551" />
   <stop
     id="stop4559"
     offset="0.51820582"
     style="stop-color:#686868;stop-opacity:1" />
   <stop
     style="stop-color:#31363b;stop-opacity:1"
     offset="1"
     id="stop4553" />
  </linearGradient>
  <filter
    style="color-interpolation-filters:sRGB"
    id="filter4601"
    x="-0.029677526"
    width="1.0593551"
    y="-0.029536113"
    height="1.0590722">
   <feGaussianBlur
     stdDeviation="2.6589853e-06"
     id="feGaussianBlur4603" />
  </filter>
  <linearGradient
    xlink:href="#linearGradient917"
    id="linearGradient919"
    x1="28.334555"
    y1="32.137646"
    x2="33.063145"
    y2="7.1074457"
    gradientUnits="userSpaceOnUse" />
 </defs>
 <rect
   style="display:inline;fill:url(#linearGradient919);fill-opacity:1;fill-rule:evenodd;stroke:none;stroke-width:0.92782;stroke-linejoin:round;stroke-miterlimit:7.8"
   id="rect1192"
   width="42.084602"
   height="42.712109"
   x="3.1629105"
   y="3.0184898"
   ry="0" />
 <g
   id="g5"
   transform="matrix(0.943859,0,0,0.943859,5.4464442,0.52734303)">
  <path
    fill="#cddff0"
    d="M 41,24 A 17,17 0 0 1 24,41 17,17 0 0 1 7,24 17,17 0 0 1 24,7 17,17 0 0 1 41,24 Z"
    id="path1"
    style="fill:#bdd7f0;fill-opacity:1" />
  <path
    fill="#ffffff"
    opacity="0.2"
    d="M 24,7 A 17,17 0 0 0 7,24 17,17 0 0 0 7.0215,24.58 17,17 0 0 1 23.9995,8 a 17,17 0 0 1 16.979,16.42 17,17 0 0 0 0.021,-0.42 17,17 0 0 0 -17,-17 z"
    id="path2" />
  <path
    fill="#62b4e7"
    d="M 34.503,39.451 C 25.416,44.698 13.795,41.584 8.549,32.497 3.302,23.409 6.4156,11.789 15.503,6.542 c 10.708,-0.04918 17.507,23.089 19,32.909 z"
    id="path3"
    style="fill:#42a8e7;fill-opacity:1" />
  <path
    fill="#357dc5"
    d="M 43,24.34861 C 43,34.649085 34.493,43 24,43 13.507,43 5,34.649085 5,24.34861 c 5.3113,-9.127304 28.749,-3.550342 38,0 z"
    id="path4"
    style="stroke-width:0.990784;fill:#134a83;fill-opacity:1" />
  <path
    opacity="0.2"
    d="M 5.0469,24.93 C 5.0325,24.954 5.0141,24.975 5,25 5,35.493 13.507,44 24,44 34.493,44 43,35.493 43,25 42.985,24.994 42.966,24.988 42.951,24.982 42.437,35.016 34.162,43 24,43 13.82,43 5.535,34.988 5.047,24.93 Z"
    id="path5" />
 </g>
 <path
   style="display:inline;mix-blend-mode:normal;fill:url(#linearGradient3403);fill-opacity:1;stroke:url(#linearGradient20558);stroke-width:1.16242;stroke-linecap:butt;stroke-linejoin:round;stroke-miterlimit:4;stroke-dasharray:none;stroke-opacity:1"
   d="M 4.7043071,3.9814882 4.6913695,60.80196 H 58.59546 l 1.022155,-2.866369 c 0,0 -23.87537,0.766388 -32.844441,-4.140386 C 16.257548,48.042344 11.401114,4.0978197 11.401114,4.0978197 Z"
   id="path1686"
   transform="matrix(0.7518797,0,0,0.7518797,0.09970467,0.02488636)" />
 <rect
   style="display:inline;fill:none;fill-opacity:1;stroke:url(#linearGradient4557);stroke-width:3.71366;stroke-linejoin:round;stroke-miterlimit:7.8;stroke-dasharray:none;stroke-opacity:0.995146"
   id="rect4539"
   width="62.567089"
   height="62.866646"
   x="1.0323594"
   y="0.59551275"
   ry="6.2447233"
   rx="5.8029528"
   transform="matrix(0.70434793,0,0,0.70291231,1.3629847,1.5442064)" />
</svg>
