<?xml version="1.0" encoding="UTF-8" standalone="no"?>
<!-- Created with Inkscape (http://www.inkscape.org/) -->

<svg
  width="48"
  height="48"
  version="1.1"
  viewBox="0 0 48 48"
  id="svg22"
  xmlns:xlink="http://www.w3.org/1999/xlink"
  xmlns="http://www.w3.org/2000/svg"
  xmlns:svg="http://www.w3.org/2000/svg">
 <defs
   id="defs12">
  <linearGradient
    id="linearGradient917">
   <stop
     style="stop-color:#000000;stop-opacity:0.99607843"
     offset="0"
     id="stop913" />
   <stop
     style="stop-color:#353a3f;stop-opacity:0.99607843"
     offset="1"
     id="stop915" />
  </linearGradient>
  <linearGradient
    id="linearGradient1005-3-3"
    x1="5.2535"
    x2="9.3823996"
    y1="15.383"
    y2="2.9421"
    gradientTransform="matrix(0.99999,0,0,0.99999,1.632,-0.61743)"
    gradientUnits="userSpaceOnUse">
   <stop
     stop-color="#fa8200"
     offset="0"
     id="stop2" />
   <stop
     stop-color="#ff9600"
     offset=".36953"
     id="stop4" />
   <stop
     stop-color="#ffb400"
     offset="1"
     id="stop6" />
  </linearGradient>
  <filter
    id="filter4014"
    x="-0.062499932"
    y="-0.057692992"
    width="1.1249999"
    height="1.115386"
    color-interpolation-filters="sRGB">
   <feGaussianBlur
     stdDeviation="1.093751"
     id="feGaussianBlur9" />
  </filter>
  <linearGradient
    xlink:href="#linearGradient3487"
    id="linearGradient3403"
    gradientUnits="userSpaceOnUse"
    x1="6.9491749"
    y1="4.5549412"
    x2="11.215498"
    y2="59.052471" />
  <linearGradient
    id="linearGradient3487">
   <stop
     style="stop-color:#32373c;stop-opacity:1"
     offset="0"
     id="stop3481" />
   <stop
     id="stop3483"
     offset="0.36804965"
     style="stop-color:#1a1a1a;stop-opacity:1" />
   <stop
     style="stop-color:#31363b;stop-opacity:1"
     offset="1"
     id="stop3485" />
  </linearGradient>
  <linearGradient
    xlink:href="#linearGradient20604"
    id="linearGradient20558"
    gradientUnits="userSpaceOnUse"
    x1="25.802212"
    y1="20.373846"
    x2="25.111048"
    y2="58.912758" />
  <linearGradient
    id="linearGradient20604">
   <stop
     id="stop20598"
     offset="0"
     style="stop-color:#3d3d3d;stop-opacity:1" />
   <stop
     style="stop-color:#000000;stop-opacity:1"
     offset="0.61772454"
     id="stop20600" />
   <stop
     id="stop20602"
     offset="1"
     style="stop-color:#3d3d3d;stop-opacity:1" />
  </linearGradient>
  <linearGradient
    gradientTransform="translate(0.36067797,-0.13016949)"
    xlink:href="#linearGradient4555"
    id="linearGradient4557"
    x1="43.499737"
    y1="64.011795"
    x2="44.141731"
    y2="0.30621234"
    gradientUnits="userSpaceOnUse" />
  <linearGradient
    id="linearGradient4555">
   <stop
     style="stop-color:#141618;stop-opacity:1"
     offset="0"
     id="stop4551" />
   <stop
     id="stop4559"
     offset="0.51820582"
     style="stop-color:#686868;stop-opacity:1" />
   <stop
     style="stop-color:#31363b;stop-opacity:1"
     offset="1"
     id="stop4553" />
  </linearGradient>
  <filter
    style="color-interpolation-filters:sRGB"
    id="filter4601"
    x="-0.029678105"
    width="1.0593562"
    y="-0.02953669"
    height="1.0590734">
   <feGaussianBlur
     stdDeviation="1.7772968e-05"
     id="feGaussianBlur4603" />
  </filter>
  <linearGradient
    xlink:href="#linearGradient917"
    id="linearGradient919"
    x1="7.400631"
    y1="41.743092"
    x2="33.063145"
    y2="7.1074457"
    gradientUnits="userSpaceOnUse" />
  <linearGradient
    xlink:href="#linearGradient4140"
    id="linearGradient4146"
    x1="24.705"
    y1="43.938999"
    x2="25.061001"
    y2="4.4050002"
    gradientUnits="userSpaceOnUse" />
  <linearGradient
    id="linearGradient4140">
   <stop
     style="stop-color:#279646;stop-opacity:1"
     offset="0"
     id="stop49253" />
   <stop
     style="stop-color:#76ff68;stop-opacity:1"
     offset="1"
     id="stop49255" />
  </linearGradient>
  <linearGradient
    xlink:href="#linearGradient4154"
    id="linearGradient4190"
    x1="29"
    y1="26"
    x2="36"
    y2="33"
    gradientUnits="userSpaceOnUse" />
  <linearGradient
    id="linearGradient4154">
   <stop
     offset="0"
     style="stop-color:#000000;stop-opacity:1"
     id="stop49243" />
   <stop
     offset="1"
     style="stop-color:#000000;stop-opacity:0"
     id="stop49245" />
  </linearGradient>
  <linearGradient
    xlink:href="#linearGradient4192"
    id="linearGradient4166"
    x1="31"
    y1="34"
    x2="31"
    y2="24"
    gradientUnits="userSpaceOnUse" />
  <linearGradient
    id="linearGradient4192">
   <stop
     style="stop-color:#272b2d;stop-opacity:1"
     offset="0"
     id="stop49248" />
   <stop
     style="stop-color:#33393e;stop-opacity:1"
     offset="1"
     id="stop49250" />
  </linearGradient>
  <linearGradient
    xlink:href="#linearGradient4154"
    id="linearGradient4182"
    x1="13"
    y1="24"
    x2="30"
    y2="41"
    gradientUnits="userSpaceOnUse" />
  <linearGradient
    xlink:href="#linearGradient4192"
    id="linearGradient4168"
    x1="18"
    y1="34"
    x2="18"
    y2="24"
    gradientUnits="userSpaceOnUse" />
 </defs>
 <rect
   style="display:inline;fill:url(#linearGradient919);fill-opacity:1;fill-rule:evenodd;stroke:none;stroke-width:0.92782;stroke-linejoin:round;stroke-miterlimit:7.8"
   id="rect1192"
   width="42.084602"
   height="42.712109"
   x="3.1629105"
   y="3.0184898"
   ry="0" />
 <g
   transform="translate(3.802096,-0.60699789)"
   id="g49306">
  <path
    style="fill:#000000;fill-opacity:1"
    d="m 28.15714,27.08737 c 1.95361,-1.92647 4.67925,-2.62713 7.19485,-2.10281 0.53163,2.48065 -0.17883,5.16843 -2.13244,7.0949 -1.9536,1.92647 -4.67924,2.62712 -7.19484,2.10281 -0.5317,-2.48072 0.17882,-5.1685 2.13243,-7.0949 z"
    id="path49265" />
  <path
    d="m 8.00002,19.47854 c 0,10.28981 8.49612,24.52144 16.00003,24.52144 7.06421,0 15.99997,-14.23163 15.99997,-24.52144 0,-10.2898 -7.16343,-15.47856 -16.00004,-15.47856 -8.8366,0 -15.99996,5.18876 -15.99996,15.47856 z"
    style="fill:url(#linearGradient4146);fill-opacity:1"
    id="path49267" />
  <path
    d="m 35.81641,24.18555 -9.63868,9.63867 5.57618,5.57617 c 2.8996,-3.22701 5.45373,-7.75769 6.92382,-12.35352 z"
    style="opacity:0.2;fill:url(#linearGradient4190);fill-opacity:1;stroke:none;stroke-width:2;stroke-linecap:butt;stroke-linejoin:round;stroke-miterlimit:4;stroke-dasharray:none;stroke-opacity:1"
    id="path49269" />
  <path
    d="m 28.38204,26.38204 c 2.02057,-2.02057 4.83963,-2.75545 7.44146,-2.20552 0.54985,2.60181 -0.18496,5.42087 -2.20553,7.44144 -2.02056,2.02056 -4.83963,2.75543 -7.44145,2.20551 -0.54992,-2.60189 0.18495,-5.42094 2.20552,-7.44143 z"
    style="fill:url(#linearGradient4166);fill-opacity:1"
    id="path49271" />
  <path
    d="M 39.97656,18.9375 C 39.72247,29.18682 30.96138,43 24,43 16.60765,43 8.27023,29.1956 8.02344,18.94727 c -0.004,0.17956 -0.0234,0.34846 -0.0234,0.53125 0,10.28981 8.49609,24.52148 16,24.52148 7.06421,0 16,-14.23167 16,-24.52148 0,-0.18615 -0.0188,-0.35822 -0.0234,-0.54102 z"
    style="opacity:0.2;fill:#000000;fill-opacity:1"
    id="path49273" />
  <path
    d="m 19.30078,26.17969 -5.18945,5.1875 12.17187,12.17187 c 1.96363,-0.74862 3.97836,-2.37305 5.83985,-4.53711 z"
    style="opacity:0.2;fill:url(#linearGradient4182);fill-opacity:1;stroke:none;stroke-width:2;stroke-linecap:butt;stroke-linejoin:round;stroke-miterlimit:4;stroke-dasharray:none;stroke-opacity:1"
    id="path49275" />
  <path
    d="m 12.1765,24.31298 c 2.60182,-0.54222 5.42089,0.18239 7.44145,2.17489 2.02057,1.9925 2.75544,4.77241 2.20553,7.33808 -2.60182,0.54222 -5.42089,-0.18238 -7.44146,-2.17488 -2.02057,-1.99257 -2.75537,-4.77241 -2.20552,-7.33809 z"
    style="fill:url(#linearGradient4168);fill-opacity:1"
    id="path49277" />
 </g>
 <path
   style="display:inline;mix-blend-mode:normal;fill:url(#linearGradient3403);fill-opacity:1;stroke:url(#linearGradient20558);stroke-width:1.16242;stroke-linecap:butt;stroke-linejoin:round;stroke-miterlimit:4;stroke-dasharray:none;stroke-opacity:1"
   d="M 4.7043071,3.9814882 4.6913695,60.80196 H 58.59546 l 1.022155,-2.866369 c 0,0 -23.87537,0.766388 -32.844441,-4.140386 C 16.257548,48.042344 11.401114,4.0978197 11.401114,4.0978197 Z"
   id="path1686"
   transform="matrix(0.7518797,0,0,0.7518797,0.09970467,0.02488636)" />
 <rect
   style="display:inline;fill:none;fill-opacity:1;stroke:url(#linearGradient4557);stroke-width:3.71366;stroke-linejoin:round;stroke-miterlimit:7.8;stroke-dasharray:none;stroke-opacity:0.995146"
   id="rect4539"
   width="62.567089"
   height="62.866646"
   x="1.0323594"
   y="0.59551275"
   ry="6.2447233"
   rx="5.8029528"
   transform="matrix(0.70434793,0,0,0.70291231,1.3629847,1.5442064)" />
</svg>
