<?xml version="1.0" encoding="UTF-8" standalone="no"?>
<!-- Created with Inkscape (http://www.inkscape.org/) -->

<svg
  width="48"
  height="48"
  version="1.1"
  viewBox="0 0 48 48"
  id="svg22"
  xmlns:xlink="http://www.w3.org/1999/xlink"
  xmlns="http://www.w3.org/2000/svg"
  xmlns:svg="http://www.w3.org/2000/svg">
 <defs
   id="defs12">
  <linearGradient
    id="linearGradient1005-3-3"
    x1="5.2535"
    x2="9.3823996"
    y1="15.383"
    y2="2.9421"
    gradientTransform="matrix(0.99999,0,0,0.99999,1.632,-0.61743)"
    gradientUnits="userSpaceOnUse">
   <stop
     stop-color="#fa8200"
     offset="0"
     id="stop2" />
   <stop
     stop-color="#ff9600"
     offset=".36953"
     id="stop4" />
   <stop
     stop-color="#ffb400"
     offset="1"
     id="stop6" />
  </linearGradient>
  <filter
    id="filter4014"
    x="-0.062499932"
    y="-0.057692992"
    width="1.1249999"
    height="1.115386"
    color-interpolation-filters="sRGB">
   <feGaussianBlur
     stdDeviation="1.093751"
     id="feGaussianBlur9" />
  </filter>
  <linearGradient
    xlink:href="#linearGradient3487"
    id="linearGradient3403"
    gradientUnits="userSpaceOnUse"
    x1="6.9491749"
    y1="4.5549412"
    x2="11.215498"
    y2="59.052471" />
  <linearGradient
    id="linearGradient3487">
   <stop
     style="stop-color:#32373c;stop-opacity:1"
     offset="0"
     id="stop3481" />
   <stop
     id="stop3483"
     offset="0.36804965"
     style="stop-color:#1a1a1a;stop-opacity:1" />
   <stop
     style="stop-color:#31363b;stop-opacity:1"
     offset="1"
     id="stop3485" />
  </linearGradient>
  <linearGradient
    xlink:href="#linearGradient20604"
    id="linearGradient20558"
    gradientUnits="userSpaceOnUse"
    x1="25.802212"
    y1="20.373846"
    x2="25.111048"
    y2="58.912758" />
  <linearGradient
    id="linearGradient20604">
   <stop
     id="stop20598"
     offset="0"
     style="stop-color:#3d3d3d;stop-opacity:1" />
   <stop
     style="stop-color:#000000;stop-opacity:1"
     offset="0.61772454"
     id="stop20600" />
   <stop
     id="stop20602"
     offset="1"
     style="stop-color:#3d3d3d;stop-opacity:1" />
  </linearGradient>
  <linearGradient
    gradientTransform="translate(0.36067797,-0.13016949)"
    xlink:href="#linearGradient4555"
    id="linearGradient4557"
    x1="43.499737"
    y1="64.011795"
    x2="44.141731"
    y2="0.30621234"
    gradientUnits="userSpaceOnUse" />
  <linearGradient
    id="linearGradient4555">
   <stop
     style="stop-color:#141618;stop-opacity:1"
     offset="0"
     id="stop4551" />
   <stop
     id="stop4559"
     offset="0.51820582"
     style="stop-color:#686868;stop-opacity:1" />
   <stop
     style="stop-color:#31363b;stop-opacity:1"
     offset="1"
     id="stop4553" />
  </linearGradient>
  <filter
    style="color-interpolation-filters:sRGB"
    id="filter4601"
    x="-0.029677696"
    width="1.0593554"
    y="-0.029536283"
    height="1.0590726">
   <feGaussianBlur
     stdDeviation="7.1006454e-06"
     id="feGaussianBlur4603" />
  </filter>
  <linearGradient
    xlink:href="#linearGradient4212"
    id="linearGradient4218"
    x1="20"
    y1="17"
    x2="38"
    y2="35"
    gradientUnits="userSpaceOnUse" />
  <linearGradient
    id="linearGradient4212">
   <stop
     style="stop-color:#000000;stop-opacity:1;"
     offset="0"
     id="stop49777" />
   <stop
     style="stop-color:#000000;stop-opacity:0;"
     offset="1"
     id="stop49779" />
  </linearGradient>
  <linearGradient
    xlink:href="#linearGradient4198"
    id="linearGradient4204"
    x1="24"
    y1="1032.3621"
    x2="24"
    y2="1018.362"
    gradientUnits="userSpaceOnUse" />
  <linearGradient
    id="linearGradient4198">
   <stop
     style="stop-color:#272b2d;stop-opacity:1;"
     offset="0"
     id="stop49782" />
   <stop
     style="stop-color:#3e4447;stop-opacity:1"
     offset="1"
     id="stop49784" />
  </linearGradient>
  <radialGradient
    xlink:href="#linearGradient4185"
    id="radialGradient4191"
    cx="24"
    cy="1025.3621"
    fx="24"
    fy="1025.3621"
    r="2"
    gradientTransform="matrix(1,0,0,0.9998745,0,0.12868292)"
    gradientUnits="userSpaceOnUse" />
  <linearGradient
    id="linearGradient4185">
   <stop
     style="stop-color:#acacac;stop-opacity:1"
     offset="0"
     id="stop49787" />
   <stop
     style="stop-color:#cbcbcb;stop-opacity:1"
     offset="1"
     id="stop49789" />
  </linearGradient>
 </defs>
 <rect
   style="display:inline;fill:#8ece65;fill-opacity:1;fill-rule:evenodd;stroke:none;stroke-width:0.92782;stroke-linejoin:round;stroke-miterlimit:7.8"
   id="rect1192"
   width="42.084602"
   height="42.712109"
   x="3.1629105"
   y="3.0184898"
   ry="0" />
 <g
   transform="translate(5.3501026,-1007.8385)"
   id="g49819">
  <path
    style="opacity:0.2;fill:url(#linearGradient4218);fill-opacity:1;stroke:none;stroke-width:4;stroke-linecap:round;stroke-linejoin:round;stroke-miterlimit:4;stroke-dasharray:none;stroke-opacity:1"
    d="m 26.013672,14.019531 -2.767578,5.015625 -5.634766,13.597656 -2.386719,7.058594 0.04297,0.04297 A 18,18 0 0 0 24,42 18,18 0 0 0 41.316406,28.849609 Z"
    transform="translate(0,1004.3622)"
    id="path49805" />
  <path
    d="m 23.298076,1021.6314 -2.598076,1.5 13.50005,23.3828 2.798988,1.848 -0.200912,-3.348 z"
    style="opacity:1;fill:#dcdcdc;fill-opacity:1;stroke:none;stroke-width:4;stroke-linecap:round;stroke-linejoin:round;stroke-miterlimit:4;stroke-dasharray:none;stroke-opacity:1"
    id="path49809" />
  <path
    style="fill:#c3c3c3;fill-opacity:1"
    d="m 35,1026.3539 c 0,4.0083 -1.191145,4.9591 -2.640665,6.6529 -0.74918,0.8632 -1.62866,1.5961 -2.63843,2.1498 -1.36808,0.7655 -3.448048,1.189 -5.125578,1.189 -1.67752,0 -3.25733,-0.4398 -4.60912,-1.189 C 19,1034.3622 17,1037.3622 18.324967,1037.7555 c 1.85668,1.0424 4.00652,1.6067 6.28665,1.6067 2.28013,0 4.930138,-0.5643 6.786808,-1.6067 0.99349,-0.5537 1.90554,-1.2377 2.70359,-2.0195 2.41042,-2.3453 3.92508,-5.7336 3.92508,-9.3655 -1.02845,-0.01 -2.115114,0 -3.027095,-0.01 z"
    id="path49811" />
  <path
    style="opacity:1;fill:#c3c3c3;fill-opacity:1;stroke:none;stroke-width:4;stroke-linecap:round;stroke-linejoin:round;stroke-miterlimit:4;stroke-dasharray:none;stroke-opacity:1"
    d="m 24.700962,1021.6314 2.598076,1.5 -13.50005,23.3828 -2.798988,1.848 0.200912,-3.348 z"
    id="path49813" />
  <path
    style="fill:url(#linearGradient4204);fill-opacity:1"
    d="M 27.113803,1021.3622 H 26 v -2.9842 -0.016 H 23.991858 22 v 0.016 2.9842 h -1.130077 c -1.024388,0 -1.869918,0.8465 -1.869918,1.8592 v 4.8955 h 0.01627 c -0.01627,0.1608 0.08127,0.3377 0.292683,0.5466 l 3.75608,3.3129 c 0.260165,0.2572 0.601628,0.3858 0.926827,0.3858 v -0.016 l 0.01627,0.016 c 0.341462,0 0.682925,-0.1286 0.926827,-0.3858 l 3.75608,-3.3129 c 0.211385,-0.2089 0.292683,-0.4019 0.292683,-0.5466 h 0.01627 v -4.8794 c -0.01627,-1.0287 -0.84553,-1.8753 -1.886172,-1.8753 z"
    id="path49815" />
  <path
    style="fill:url(#radialGradient4191);fill-opacity:1"
    d="m 24.006525,1027.3622 h -0.01304 v 0 C 22.899023,1027.3622 22,1026.472 22,1025.3755 c 0,-1.0966 0.899023,-1.9868 1.993485,-1.9868 v -0.026 l 0.01304,0.026 c 1.094462,0.013 1.993477,0.8902 1.993477,1.9868 0,1.0965 -0.899015,1.9738 -1.993477,1.9867 z"
    id="path49817" />
 </g>
 <path
   style="display:inline;mix-blend-mode:normal;fill:url(#linearGradient3403);fill-opacity:1;stroke:url(#linearGradient20558);stroke-width:1.16242;stroke-linecap:butt;stroke-linejoin:round;stroke-miterlimit:4;stroke-dasharray:none;stroke-opacity:1"
   d="M 4.7043071,3.9814882 4.6913695,60.80196 H 58.59546 l 1.022155,-2.866369 c 0,0 -23.87537,0.766388 -32.844441,-4.140386 C 16.257548,48.042344 11.401114,4.0978197 11.401114,4.0978197 Z"
   id="path1686"
   transform="matrix(0.7518797,0,0,0.7518797,0.09970467,0.02488636)" />
 <rect
   style="display:inline;fill:none;fill-opacity:1;stroke:url(#linearGradient4557);stroke-width:3.71366;stroke-linejoin:round;stroke-miterlimit:7.8;stroke-dasharray:none;stroke-opacity:0.995146"
   id="rect4539"
   width="62.567089"
   height="62.866646"
   x="1.0323594"
   y="0.59551275"
   ry="6.2447233"
   rx="5.8029528"
   transform="matrix(0.70434793,0,0,0.70291231,1.3629847,1.5442064)" />
</svg>
