<?xml version="1.0" encoding="UTF-8" standalone="no"?>
<!-- Created with Inkscape (http://www.inkscape.org/) -->

<svg
   width="48"
   height="48"
   version="1.1"
   viewBox="0 0 48 48"
   id="svg22"
   sodipodi:docname="ardour.svg"
   inkscape:version="1.1.2 (0a00cf5339, 2022-02-04)"
   xmlns:inkscape="http://www.inkscape.org/namespaces/inkscape"
   xmlns:sodipodi="http://sodipodi.sourceforge.net/DTD/sodipodi-0.dtd"
   xmlns:xlink="http://www.w3.org/1999/xlink"
   xmlns="http://www.w3.org/2000/svg"
   xmlns:svg="http://www.w3.org/2000/svg">
  <sodipodi:namedview
     id="namedview24"
     pagecolor="#ffffff"
     bordercolor="#666666"
     borderopacity="1.0"
     inkscape:showpageshadow="2"
     inkscape:pageopacity="0.0"
     inkscape:pagecheckerboard="0"
     inkscape:deskcolor="#d1d1d1"
     showgrid="false"
     inkscape:zoom="18.14"
     inkscape:cx="-14.663727"
     inkscape:cy="24.83462"
     inkscape:window-width="3440"
     inkscape:window-height="1359"
     inkscape:window-x="0"
     inkscape:window-y="0"
     inkscape:window-maximized="1"
     inkscape:current-layer="svg22"
     inkscape:pageshadow="2" />
  <defs
     id="defs12">
    <linearGradient
       id="linearGradient1005-3-3"
       x1="5.2535"
       x2="9.3823996"
       y1="15.383"
       y2="2.9421"
       gradientTransform="matrix(0.99999,0,0,0.99999,1.632,-0.61743)"
       gradientUnits="userSpaceOnUse">
      <stop
         stop-color="#fa8200"
         offset="0"
         id="stop2" />
      <stop
         stop-color="#ff9600"
         offset=".36953"
         id="stop4" />
      <stop
         stop-color="#ffb400"
         offset="1"
         id="stop6" />
    </linearGradient>
    <filter
       id="filter4014"
       x="-0.062499932"
       y="-0.057692992"
       width="1.1249999"
       height="1.115386"
       color-interpolation-filters="sRGB">
      <feGaussianBlur
         stdDeviation="1.093751"
         id="feGaussianBlur9" />
    </filter>
    <linearGradient
       inkscape:collect="always"
       xlink:href="#linearGradient3487"
       id="linearGradient3403"
       gradientUnits="userSpaceOnUse"
       x1="6.9491749"
       y1="4.5549412"
       x2="11.215498"
       y2="59.052471" />
    <linearGradient
       id="linearGradient3487">
      <stop
         style="stop-color:#32373c;stop-opacity:1"
         offset="0"
         id="stop3481" />
      <stop
         id="stop3483"
         offset="0.36804965"
         style="stop-color:#1a1a1a;stop-opacity:1" />
      <stop
         style="stop-color:#31363b;stop-opacity:1"
         offset="1"
         id="stop3485" />
    </linearGradient>
    <linearGradient
       inkscape:collect="always"
       xlink:href="#linearGradient20604"
       id="linearGradient20558"
       gradientUnits="userSpaceOnUse"
       x1="25.802212"
       y1="20.373846"
       x2="25.111048"
       y2="58.912758" />
    <linearGradient
       id="linearGradient20604">
      <stop
         id="stop20598"
         offset="0"
         style="stop-color:#3d3d3d;stop-opacity:1" />
      <stop
         style="stop-color:#000000;stop-opacity:1"
         offset="0.61772454"
         id="stop20600" />
      <stop
         id="stop20602"
         offset="1"
         style="stop-color:#3d3d3d;stop-opacity:1" />
    </linearGradient>
    <filter
       inkscape:collect="always"
       style="color-interpolation-filters:sRGB"
       id="filter20720"
       x="-0.017024755"
       y="-0.016457183"
       width="1.0340491"
       height="1.0329144">
      <feGaussianBlur
         inkscape:collect="always"
         stdDeviation="0.14745661"
         id="feGaussianBlur20722" />
    </filter>
    <linearGradient
       gradientTransform="translate(0.36067797,-0.13016949)"
       xlink:href="#linearGradient4555"
       id="linearGradient4557"
       x1="43.499737"
       y1="64.011795"
       x2="44.141731"
       y2="0.30621234"
       gradientUnits="userSpaceOnUse" />
    <linearGradient
       id="linearGradient4555">
      <stop
         style="stop-color:#141618;stop-opacity:1"
         offset="0"
         id="stop4551" />
      <stop
         id="stop4559"
         offset="0.51820582"
         style="stop-color:#686868;stop-opacity:1" />
      <stop
         style="stop-color:#31363b;stop-opacity:1"
         offset="1"
         id="stop4553" />
    </linearGradient>
    <filter
       style="color-interpolation-filters:sRGB"
       id="filter4601"
       x="-0.030244955"
       width="1.0604899"
       y="-0.030100647"
       height="1.0602013">
      <feGaussianBlur
         stdDeviation="0.014790289"
         id="feGaussianBlur4603" />
    </filter>
    <linearGradient
       id="a"
       y1="32.998001"
       x1="34.5"
       y2="11.998"
       gradientUnits="userSpaceOnUse"
       x2="11.786">
      <stop
         stop-color="#dd1627"
         id="stop50328" />
      <stop
         offset="1"
         stop-color="#df3e52"
         id="stop50330" />
    </linearGradient>
    <linearGradient
       id="b"
       y1="10.38"
       x1="46.23"
       y2="35.662998"
       x2="73.029999"
       gradientUnits="userSpaceOnUse"
       gradientTransform="translate(-52)">
      <stop
         stop-color="#f8bac0"
         stop-opacity=".731"
         id="stop50333" />
      <stop
         offset="1"
         stop-color="#f8bac0"
         stop-opacity="0"
         id="stop50335" />
    </linearGradient>
  </defs>
  <rect
     style="display:inline;fill:#e34555;fill-opacity:1;fill-rule:evenodd;stroke:none;stroke-width:0.92782;stroke-linejoin:round;stroke-miterlimit:7.8"
     id="rect1192"
     width="42.084602"
     height="42.712109"
     x="3.1629105"
     y="3.0184898"
     ry="0"
     inkscape:label="arriere" />
  <g
     transform="matrix(0.75746589,0,0,0.75746589,10.232649,8.4924604)"
     id="g50366">
    <path
       id="use50341"
       d="M 0.735,43.06 24,0.71 47.09,43.02 c 0,0 -2.212,-0.155 -5.272,-0.291 C 38.967,42.602 40.024,42.843 33.54,41.64 28.629,40.73 25.018,38.775 18.287,38.913 10.834,39.066 0.738,43.062 0.738,43.062"
       style="fill:#85151f" />
    <g
       style="color:#000000"
       id="g50347">
      <path
         style="fill:url(#a)"
         d="M 6.03,37.701 23.977,4.763 43.223,40.388 c 0,0 0.111,0.275 -0.39,0.133 -0.471,-0.134 -0.874,-0.529 -1.362,-0.487 -0.411,0.035 -0.656,0.63 -1.063,0.565 -0.582,-0.093 -0.88,-1.202 -1.469,-1.185 -0.519,0.015 -0.391,1.01 -1.166,1.072 -0.687,0.058 -0.575,-1.827 -1.267,-1.885 -0.469,-0.039 -0.574,1.942 -1.156,1.941 -0.616,0 0.025,-2.85 -0.863,-2.897 -0.695,-0.037 -0.313,2.501 -0.937,2.504 -0.861,0.004 -0.13,-4.157 -1.192,-4.139 -0.755,0.012 0.057,3.851 -0.926,3.839 -0.905,-0.011 -0.033,-5.941 -1.049,-5.869 -0.838,0.059 0.103,5.304 -0.819,5.326 -1.117,0.026 -0.005,-7.306 -1.114,-7.315 -0.981,-0.009 -0.102,6.486 -1,6.486 -1.094,0 0.003,-8.38 -1.037,-8.435 -1.132,-0.06 0.277,8.418 -0.957,8.409 -1.191,-0.009 0.34,-10.639 -1.04,-10.741 -1.13,-0.083 0.309,9.951 -0.851,9.995 -1.218,0.046 0.368,-11.688 -1.073,-11.691 -1.055,-0.003 0.074,11.242 -1.019,11.4 -1.01,-0.223 0.202,-12.413 -0.978,-12.417 -1.218,-0.004 0.206,12.12 -1.055,12.148 -1.057,0.014 0.449,-12.166 -0.939,-12.12 -1.276,0.038 0.049,12.07 -1,12.05 -1.132,-0.013 0.29,-11.13 -0.979,-11.06 -0.967,0.5 -0.037,8.599 -0.965,11.171 -1.017,-1.01 0.073,-7.962 -1.058,-9.186 -0.928,1.336 -0.202,9.355 -0.957,9.385 -0.927,0.045 -0.045,-6.291 -1.039,-6.351 -0.595,-0.036 -0.911,7.177 -1.64,7.205 -0.847,0.085 -0.754,-4.057 -1.34,-4.044 C 8.844,34.282 9.022,38.727 8.131,38.738 7.619,38.86 7.495,36.986 7.037,37.03 6.626,37.069 6.549,39.001 5.87,39.349 5.249,39.433 5.551,38.757 6.034,37.702"
         id="path50343" />
      <path
         id="use50345"
         d="M 0.735,43.06 24,0.71 47.09,43.02 c 0,0 -2.212,-0.155 -5.272,-0.291 C 38.967,42.602 40.024,42.843 33.54,41.64 28.629,40.73 25.018,38.775 18.287,38.913 10.834,39.066 0.738,43.062 0.738,43.062"
         style="fill:url(#b)" />
    </g>
  </g>
  <path
     style="display:inline;mix-blend-mode:normal;fill:url(#linearGradient3403);fill-opacity:1;stroke:url(#linearGradient20558);stroke-width:1.16242;stroke-linecap:butt;stroke-linejoin:round;stroke-miterlimit:4;stroke-dasharray:none;stroke-opacity:1;filter:url(#filter20720)"
     d="M 4.7043071,3.9814882 4.6913695,60.80196 H 58.59546 l 1.022155,-2.866369 c 0,0 -23.87537,0.766388 -32.844441,-4.140386 C 16.257548,48.042344 11.401114,4.0978197 11.401114,4.0978197 Z"
     id="path1686"
     sodipodi:nodetypes="ccccscc"
     transform="matrix(0.7518797,0,0,0.7518797,0.09970467,0.02488636)"
     inkscape:label="folder" />
  <rect
     style="display:inline;fill:none;fill-opacity:1;stroke:url(#linearGradient4557);stroke-width:3.71366;stroke-linejoin:round;stroke-miterlimit:7.8;stroke-dasharray:none;stroke-opacity:0.995146;filter:url(#filter4601)"
     id="rect4539"
     width="62.566689"
     height="62.866646"
     x="1.0323594"
     y="0.59551275"
     ry="6.2447233"
     rx="5.8029528"
     transform="matrix(0.70434793,0,0,0.70291231,1.3629847,1.5442064)"
     inkscape:label="contour" />
</svg>
