<?xml version="1.0" encoding="UTF-8" standalone="no"?>
<!-- Created with Inkscape (http://www.inkscape.org/) -->

<svg
  width="48"
  height="48"
  version="1.1"
  viewBox="0 0 48 48"
  id="svg22"
  xmlns:xlink="http://www.w3.org/1999/xlink"
  xmlns="http://www.w3.org/2000/svg"
  xmlns:svg="http://www.w3.org/2000/svg">
 <defs
   id="defs12">
  <linearGradient
    id="linearGradient917">
   <stop
     style="stop-color:#a38806;stop-opacity:1;"
     offset="0"
     id="stop913" />
   <stop
     style="stop-color:#fad83b;stop-opacity:1;"
     offset="1"
     id="stop915" />
  </linearGradient>
  <linearGradient
    id="linearGradient1005-3-3"
    x1="5.2535"
    x2="9.3823996"
    y1="15.383"
    y2="2.9421"
    gradientTransform="matrix(0.99999,0,0,0.99999,1.632,-0.61743)"
    gradientUnits="userSpaceOnUse">
   <stop
     stop-color="#fa8200"
     offset="0"
     id="stop2" />
   <stop
     stop-color="#ff9600"
     offset=".36953"
     id="stop4" />
   <stop
     stop-color="#ffb400"
     offset="1"
     id="stop6" />
  </linearGradient>
  <filter
    id="filter4014"
    x="-0.062499932"
    y="-0.057692992"
    width="1.1249999"
    height="1.115386"
    color-interpolation-filters="sRGB">
   <feGaussianBlur
     stdDeviation="1.093751"
     id="feGaussianBlur9" />
  </filter>
  <linearGradient
    xlink:href="#linearGradient3487"
    id="linearGradient3403"
    gradientUnits="userSpaceOnUse"
    x1="6.9491749"
    y1="4.5549412"
    x2="11.215498"
    y2="59.052471" />
  <linearGradient
    id="linearGradient3487">
   <stop
     style="stop-color:#32373c;stop-opacity:1"
     offset="0"
     id="stop3481" />
   <stop
     id="stop3483"
     offset="0.36804965"
     style="stop-color:#1a1a1a;stop-opacity:1" />
   <stop
     style="stop-color:#31363b;stop-opacity:1"
     offset="1"
     id="stop3485" />
  </linearGradient>
  <linearGradient
    xlink:href="#linearGradient20604"
    id="linearGradient20558"
    gradientUnits="userSpaceOnUse"
    x1="25.802212"
    y1="20.373846"
    x2="25.111048"
    y2="58.912758" />
  <linearGradient
    id="linearGradient20604">
   <stop
     id="stop20598"
     offset="0"
     style="stop-color:#3d3d3d;stop-opacity:1" />
   <stop
     style="stop-color:#000000;stop-opacity:1"
     offset="0.61772454"
     id="stop20600" />
   <stop
     id="stop20602"
     offset="1"
     style="stop-color:#3d3d3d;stop-opacity:1" />
  </linearGradient>
  <filter
    style="color-interpolation-filters:sRGB"
    id="filter20720"
    x="-0.010581767"
    y="-0.010228984"
    width="1.0211631"
    height="1.020458">
   <feGaussianBlur
     stdDeviation="2.801061e-06"
     id="feGaussianBlur20722" />
  </filter>
  <linearGradient
    gradientTransform="translate(0.36067797,-0.13016949)"
    xlink:href="#linearGradient4555"
    id="linearGradient4557"
    x1="43.499737"
    y1="64.011795"
    x2="44.141731"
    y2="0.30621234"
    gradientUnits="userSpaceOnUse" />
  <linearGradient
    id="linearGradient4555">
   <stop
     style="stop-color:#141618;stop-opacity:1"
     offset="0"
     id="stop4551" />
   <stop
     id="stop4559"
     offset="0.51820582"
     style="stop-color:#686868;stop-opacity:1" />
   <stop
     style="stop-color:#31363b;stop-opacity:1"
     offset="1"
     id="stop4553" />
  </linearGradient>
  <filter
    style="color-interpolation-filters:sRGB"
    id="filter4601"
    x="-0.029677538"
    width="1.0593551"
    y="-0.029536126"
    height="1.0590723">
   <feGaussianBlur
     stdDeviation="2.993138e-06"
     id="feGaussianBlur4603" />
  </filter>
  <linearGradient
    xlink:href="#linearGradient917"
    id="linearGradient919"
    x1="7.400631"
    y1="41.743092"
    x2="33.063145"
    y2="7.1074457"
    gradientUnits="userSpaceOnUse" />
  <linearGradient
    id="c"
    y1="523.79999"
    x1="403.57001"
    y2="536.79999"
    x2="416.57001"
    gradientUnits="userSpaceOnUse"
    gradientTransform="translate(-382.3618,-501.38052)">
   <stop
     stop-color="#292c2f"
     id="stop2-1" />
   <stop
     offset="1"
     stop-opacity="0"
     id="stop4-7" />
  </linearGradient>
  <linearGradient
    xlink:href="#b-2"
    id="linearGradient4189"
    x1="14.369"
    y1="22.521999"
    x2="26.521999"
    y2="22.521999"
    gradientUnits="userSpaceOnUse" />
  <linearGradient
    x1="36"
    gradientUnits="userSpaceOnUse"
    x2="14"
    y2="12"
    y1="44"
    id="b-2">
   <stop
     style="stop-color:#bfc9c9;stop-opacity:1"
     stop-color="#536161"
     id="stop13" />
   <stop
     style="stop-color:#fbfbfb;stop-opacity:1"
     stop-color="#f4f5f5"
     offset="1"
     id="stop15" />
  </linearGradient>
  <linearGradient
    xlink:href="#b-2"
    id="linearGradient4428"
    gradientUnits="userSpaceOnUse"
    x1="31.586"
    y1="36.345001"
    x2="1.2029999"
    y2="6.723" />
 </defs>
 <rect
   style="display:inline;fill:url(#linearGradient919);fill-opacity:1;fill-rule:evenodd;stroke:none;stroke-width:0.92782;stroke-linejoin:round;stroke-miterlimit:7.8"
   id="rect1192"
   width="42.084602"
   height="42.712109"
   x="3.1629105"
   y="3.0184898"
   ry="0" />
 <g
   id="g5"
   transform="matrix(1.440755,0,0,1.440755,-4.8763014,-8.0630622)">
  <path
    style="opacity:0.1"
    d="M 18,7.5253908 17.792969,7.6464846 14.431641,9.5878908 14,9.8398441 v 7.1035149 5.302735 2.0625 2.064453 c 0,2.350385 1.221198,4.500589 3.238281,5.675781 l 3.523438,2.0625 C 21.756055,34.713256 22.890072,35 23.998047,35 c 1.107974,0 2.243945,-0.315407 3.238281,-0.888672 l 3.523438,-2.0625 C 32.776849,30.873635 34,28.694768 34,26.373047 v -4.097656 c 0,-2.350385 -1.223151,-4.502543 -3.240234,-5.677735 l -3.523438,-2.0625 C 26.241992,13.933228 25.107974,13.646484 24,13.646484 V 18 a 6,6 0 0 1 6,6 6,6 0 0 1 -6,6 6,6 0 0 1 -5.902344,-4.9375 C 18.035429,24.855683 18,24.609135 18,24.308594 V 24 16.425781 14.505859 Z m 5,6.2753902 c -0.323464,0.08599 -0.676536,0.171135 -1,0.314453 v 4.234375 a 6,6 0 0 1 1,-0.263671 z m -2,0.736328 -1,0.572266 v 4.427734 A 6,6 0 0 1 21,18.8125 Z"
    id="path3" />
  <path
    style="fill:#3f3f3f"
    d="m 18,7.6914896 c -1.263508,0 -3.254175,0 -4,0 v 8.2518694 5.302735 2.0625 2.064453 c 0,2.350385 1.221198,4.500589 3.238281,5.675781 l 3.523438,2.0625 C 21.756055,33.713256 22.890072,34 23.998047,34 c 1.107974,0 2.243945,-0.315407 3.238281,-0.888672 l 3.523438,-2.0625 C 32.776849,29.873635 34,27.694768 34,25.373047 v -4.097656 c 0,-2.350385 -1.223151,-4.502543 -3.240234,-5.677735 l -3.523438,-2.0625 C 26.241992,12.933228 25.107974,12.646484 24,12.646484 V 17 c 3.313708,0 6,2.686292 6,6 0,3.313708 -2.686292,6 -6,6 -2.902793,-0.0014 -5.388308,-2.080582 -5.902344,-4.9375 C 18.035429,23.855683 18,23.609135 18,23.308594 V 23 15.425781 13.505859 Z m 5,5.1092914 c -0.323464,0.08599 -0.676536,0.171135 -1,0.314453 v 4.234375 c 0.325123,-0.116507 0.659699,-0.204725 1,-0.263671 z m -2,0.736328 -1,0.572266 v 4.427734 c 0.307523,-0.275288 0.642631,-0.518111 1,-0.724609 z"
    id="path4" />
 </g>
 <path
   style="display:inline;mix-blend-mode:normal;fill:url(#linearGradient3403);fill-opacity:1;stroke:url(#linearGradient20558);stroke-width:1.16242;stroke-linecap:butt;stroke-linejoin:round;stroke-miterlimit:4;stroke-dasharray:none;stroke-opacity:1"
   d="M 4.7043071,3.9814882 4.6913695,60.80196 H 58.59546 l 1.022155,-2.866369 c 0,0 -23.87537,0.766388 -32.844441,-4.140386 C 16.257548,48.042344 11.401114,4.0978197 11.401114,4.0978197 Z"
   id="path1686"
   transform="matrix(0.7518797,0,0,0.7518797,0.09970467,0.02488636)" />
 <rect
   style="display:inline;fill:none;fill-opacity:1;stroke:url(#linearGradient4557);stroke-width:3.71366;stroke-linejoin:round;stroke-miterlimit:7.8;stroke-dasharray:none;stroke-opacity:0.995146"
   id="rect4539"
   width="62.567089"
   height="62.866646"
   x="1.0323594"
   y="0.59551275"
   ry="6.2447233"
   rx="5.8029528"
   transform="matrix(0.70434793,0,0,0.70291231,1.3629847,1.5442064)" />
</svg>
