<?xml version="1.0" encoding="UTF-8" standalone="no"?>
<!-- Created with Inkscape (http://www.inkscape.org/) -->

<svg
  width="48"
  height="48"
  version="1.1"
  viewBox="0 0 48 48"
  id="svg22"
  xmlns:xlink="http://www.w3.org/1999/xlink"
  xmlns="http://www.w3.org/2000/svg"
  xmlns:svg="http://www.w3.org/2000/svg">
 <defs
   id="defs12">
  <linearGradient
    id="linearGradient1005-3-3"
    x1="5.2535"
    x2="9.3823996"
    y1="15.383"
    y2="2.9421"
    gradientTransform="matrix(0.99999,0,0,0.99999,1.632,-0.61743)"
    gradientUnits="userSpaceOnUse">
   <stop
     stop-color="#fa8200"
     offset="0"
     id="stop2" />
   <stop
     stop-color="#ff9600"
     offset=".36953"
     id="stop4" />
   <stop
     stop-color="#ffb400"
     offset="1"
     id="stop6" />
  </linearGradient>
  <filter
    id="filter4014"
    x="-0.062499932"
    y="-0.057692992"
    width="1.1249999"
    height="1.115386"
    color-interpolation-filters="sRGB">
   <feGaussianBlur
     stdDeviation="1.093751"
     id="feGaussianBlur9" />
  </filter>
  <linearGradient
    xlink:href="#linearGradient3487"
    id="linearGradient3403"
    gradientUnits="userSpaceOnUse"
    x1="6.9491749"
    y1="4.5549412"
    x2="11.215498"
    y2="59.052471" />
  <linearGradient
    id="linearGradient3487">
   <stop
     style="stop-color:#32373c;stop-opacity:1"
     offset="0"
     id="stop3481" />
   <stop
     id="stop3483"
     offset="0.36804965"
     style="stop-color:#1a1a1a;stop-opacity:1" />
   <stop
     style="stop-color:#31363b;stop-opacity:1"
     offset="1"
     id="stop3485" />
  </linearGradient>
  <linearGradient
    xlink:href="#linearGradient20604"
    id="linearGradient20558"
    gradientUnits="userSpaceOnUse"
    x1="25.802212"
    y1="20.373846"
    x2="25.111048"
    y2="58.912758" />
  <linearGradient
    id="linearGradient20604">
   <stop
     id="stop20598"
     offset="0"
     style="stop-color:#3d3d3d;stop-opacity:1" />
   <stop
     style="stop-color:#000000;stop-opacity:1"
     offset="0.61772454"
     id="stop20600" />
   <stop
     id="stop20602"
     offset="1"
     style="stop-color:#3d3d3d;stop-opacity:1" />
  </linearGradient>
  <filter
    style="color-interpolation-filters:sRGB"
    id="filter20720"
    x="-0.010581866"
    y="-0.01022908"
    width="1.0211633"
    height="1.0204582">
   <feGaussianBlur
     stdDeviation="5.0658904e-06"
     id="feGaussianBlur20722" />
  </filter>
  <linearGradient
    gradientTransform="translate(0.36067797,-0.13016949)"
    xlink:href="#linearGradient4555"
    id="linearGradient4557"
    x1="43.499737"
    y1="64.011795"
    x2="44.141731"
    y2="0.30621234"
    gradientUnits="userSpaceOnUse" />
  <linearGradient
    id="linearGradient4555">
   <stop
     style="stop-color:#141618;stop-opacity:1"
     offset="0"
     id="stop4551" />
   <stop
     id="stop4559"
     offset="0.51820582"
     style="stop-color:#686868;stop-opacity:1" />
   <stop
     style="stop-color:#31363b;stop-opacity:1"
     offset="1"
     id="stop4553" />
  </linearGradient>
  <filter
    style="color-interpolation-filters:sRGB"
    id="filter4601"
    x="-0.029677631"
    width="1.0593553"
    y="-0.029536219"
    height="1.0590724">
   <feGaussianBlur
     stdDeviation="5.4132733e-06"
     id="feGaussianBlur4603" />
  </filter>
  <linearGradient
    id="c"
    y1="523.79999"
    x1="403.57001"
    y2="536.79999"
    x2="416.57001"
    gradientUnits="userSpaceOnUse"
    gradientTransform="translate(-382.3618,-501.38052)">
   <stop
     stop-color="#292c2f"
     id="stop2-1" />
   <stop
     offset="1"
     stop-opacity="0"
     id="stop4-7" />
  </linearGradient>
  <linearGradient
    xlink:href="#b-2"
    id="linearGradient4189"
    x1="14.369"
    y1="22.521999"
    x2="26.521999"
    y2="22.521999"
    gradientUnits="userSpaceOnUse" />
  <linearGradient
    x1="36"
    gradientUnits="userSpaceOnUse"
    x2="14"
    y2="12"
    y1="44"
    id="b-2">
   <stop
     style="stop-color:#bfc9c9;stop-opacity:1"
     stop-color="#536161"
     id="stop13" />
   <stop
     style="stop-color:#fbfbfb;stop-opacity:1"
     stop-color="#f4f5f5"
     offset="1"
     id="stop15" />
  </linearGradient>
  <linearGradient
    xlink:href="#b-2"
    id="linearGradient4428"
    gradientUnits="userSpaceOnUse"
    x1="31.586"
    y1="36.345001"
    x2="1.2029999"
    y2="6.723" />
 </defs>
 <g
   id="g4"
   transform="matrix(1.0491696,0,0,1.0491696,-0.56939513,-1.4466318)">
  <rect
    style="fill:#175ddc"
    width="40"
    height="40"
    x="4"
    y="4"
    rx="2"
    ry="2"
    id="rect2" />
  <path
    style="opacity:0.2"
    d="m 28.574163,11 c 0,0 -11.147,0.005 -11.43,0.174 -0.601,0.357 -0.57,-0.083 -0.57,8.252 0,8.458 -0.012,8.287 0.645,9.928 0.754,1.886 1.969,3.481 3.964,5.214 1.675,1.454 3.661,2.769 5.875,3.887 0.749,0.378 1.136,0.551 1.516,0.545 0.38,0.006 0.767,-0.167 1.516,-0.545 2.214,-1.118 4.2,-2.433 5.875,-3.887 1.995,-1.733 3.21,-3.328 3.964,-5.214 0.657,-1.641 0.645,-1.47 0.645,-9.928 0,-8.335 0.031,-7.895 -0.57,-8.252 -0.283,-0.169 -11.43,-0.174 -11.43,-0.174 z m 0,4 h 8 v 11.5 c 0,0 -0.017,0.51 -0.359,1.367 -0.494,1.235 -1.189,2.219 -2.873,3.682 -1.313,1.14 -2.956,2.202 -4.768,3.146 z"
    id="path3" />
  <path
    style="fill:#efefef"
    d="m 28.574163,9.9998 c 0,0 -11.147,0.0052 -11.43,0.1742 -0.601,0.357 -0.57,-0.083 -0.57,8.252 0,8.458 -0.012,8.287 0.645,9.928 0.754,1.886 1.969,3.481 3.964,5.214 1.675,1.454 3.661,2.769 5.875,3.887 0.749,0.378 1.136,0.551 1.516,0.545 0.38,0.006 0.767,-0.167 1.516,-0.545 2.214,-1.118 4.2,-2.433 5.875,-3.887 1.995,-1.733 3.21,-3.328 3.964,-5.214 0.657,-1.641 0.645,-1.47 0.645,-9.928 0,-8.335 0.031,-7.895 -0.57,-8.252 -0.283,-0.169 -11.43,-0.1742 -11.43,-0.1742 z m 0,4.0002 h 8 v 11.5 c 0,0 -0.017,0.51 -0.359,1.367 -0.494,1.235 -1.189,2.219 -2.873,3.682 -1.313,1.14 -2.956,2.202 -4.768,3.146 z"
    id="path4" />
 </g>
 <path
   style="display:inline;mix-blend-mode:normal;fill:url(#linearGradient3403);fill-opacity:1;stroke:url(#linearGradient20558);stroke-width:1.16242;stroke-linecap:butt;stroke-linejoin:round;stroke-miterlimit:4;stroke-dasharray:none;stroke-opacity:1"
   d="M 4.7043071,3.9814882 4.6913695,60.80196 H 58.59546 l 1.022155,-2.866369 c 0,0 -23.87537,0.766388 -32.844441,-4.140386 C 16.257548,48.042344 11.401114,4.0978197 11.401114,4.0978197 Z"
   id="path1686"
   transform="matrix(0.7518797,0,0,0.7518797,0.09970467,0.02488636)" />
 <rect
   style="display:inline;fill:none;fill-opacity:1;stroke:url(#linearGradient4557);stroke-width:3.71366;stroke-linejoin:round;stroke-miterlimit:7.8;stroke-dasharray:none;stroke-opacity:0.995146"
   id="rect4539"
   width="62.567089"
   height="62.866646"
   x="1.0323594"
   y="0.59551275"
   ry="6.2447233"
   rx="5.8029528"
   transform="matrix(0.70434793,0,0,0.70291231,1.3629847,1.5442064)" />
</svg>
