<?xml version="1.0" encoding="UTF-8" standalone="no"?>
<!-- Created with Inkscape (http://www.inkscape.org/) -->

<svg
  width="48"
  height="48"
  version="1.1"
  viewBox="0 0 48 48"
  id="svg22"
  xmlns:xlink="http://www.w3.org/1999/xlink"
  xmlns="http://www.w3.org/2000/svg"
  xmlns:svg="http://www.w3.org/2000/svg">
 <defs
   id="defs12">
  <linearGradient
    id="linearGradient917">
   <stop
     style="stop-color:#000000;stop-opacity:0.99607843"
     offset="0"
     id="stop913" />
   <stop
     style="stop-color:#353a3f;stop-opacity:0.99607843"
     offset="1"
     id="stop915" />
  </linearGradient>
  <linearGradient
    id="linearGradient1005-3-3"
    x1="5.2535"
    x2="9.3823996"
    y1="15.383"
    y2="2.9421"
    gradientTransform="matrix(0.99999,0,0,0.99999,1.632,-0.61743)"
    gradientUnits="userSpaceOnUse">
   <stop
     stop-color="#fa8200"
     offset="0"
     id="stop2" />
   <stop
     stop-color="#ff9600"
     offset=".36953"
     id="stop4" />
   <stop
     stop-color="#ffb400"
     offset="1"
     id="stop6" />
  </linearGradient>
  <filter
    id="filter4014"
    x="-0.062499932"
    y="-0.057692992"
    width="1.1249999"
    height="1.115386"
    color-interpolation-filters="sRGB">
   <feGaussianBlur
     stdDeviation="1.093751"
     id="feGaussianBlur9" />
  </filter>
  <linearGradient
    xlink:href="#linearGradient3487"
    id="linearGradient3403"
    gradientUnits="userSpaceOnUse"
    x1="6.9491749"
    y1="4.5549412"
    x2="11.215498"
    y2="59.052471" />
  <linearGradient
    id="linearGradient3487">
   <stop
     style="stop-color:#32373c;stop-opacity:1"
     offset="0"
     id="stop3481" />
   <stop
     id="stop3483"
     offset="0.36804965"
     style="stop-color:#1a1a1a;stop-opacity:1" />
   <stop
     style="stop-color:#31363b;stop-opacity:1"
     offset="1"
     id="stop3485" />
  </linearGradient>
  <linearGradient
    xlink:href="#linearGradient20604"
    id="linearGradient20558"
    gradientUnits="userSpaceOnUse"
    x1="25.802212"
    y1="20.373846"
    x2="25.111048"
    y2="58.912758" />
  <linearGradient
    id="linearGradient20604">
   <stop
     id="stop20598"
     offset="0"
     style="stop-color:#3d3d3d;stop-opacity:1" />
   <stop
     style="stop-color:#000000;stop-opacity:1"
     offset="0.61772454"
     id="stop20600" />
   <stop
     id="stop20602"
     offset="1"
     style="stop-color:#3d3d3d;stop-opacity:1" />
  </linearGradient>
  <linearGradient
    gradientTransform="translate(0.36067797,-0.13016949)"
    xlink:href="#linearGradient4555"
    id="linearGradient4557"
    x1="43.499737"
    y1="64.011795"
    x2="44.141731"
    y2="0.30621234"
    gradientUnits="userSpaceOnUse" />
  <linearGradient
    id="linearGradient4555">
   <stop
     style="stop-color:#141618;stop-opacity:1"
     offset="0"
     id="stop4551" />
   <stop
     id="stop4559"
     offset="0.51820582"
     style="stop-color:#686868;stop-opacity:1" />
   <stop
     style="stop-color:#31363b;stop-opacity:1"
     offset="1"
     id="stop4553" />
  </linearGradient>
  <filter
    style="color-interpolation-filters:sRGB"
    id="filter4601"
    x="-0.02967762"
    width="1.0593552"
    y="-0.029536018"
    height="1.059072">
   <feGaussianBlur
     stdDeviation="1.5817827e-07"
     id="feGaussianBlur4603" />
  </filter>
  <linearGradient
    xlink:href="#linearGradient917"
    id="linearGradient919"
    x1="7.400631"
    y1="41.743092"
    x2="33.063145"
    y2="7.1074457"
    gradientUnits="userSpaceOnUse" />
  <linearGradient
    id="a"
    y1="524.83002"
    y2="506.25"
    x1="411.48999"
    x2="413.94"
    gradientUnits="userSpaceOnUse">
   <stop
     stop-color="#ebc69a"
     id="stop51891" />
   <stop
     offset="1"
     stop-color="#f4e0c8"
     id="stop51893" />
  </linearGradient>
  <linearGradient
    id="b"
    y1="545.52002"
    x1="414.78"
    y2="521.46997"
    x2="390.67001"
    gradientUnits="userSpaceOnUse">
   <stop
     stop-color="#197cf1"
     id="stop51896" />
   <stop
     offset="1"
     stop-color="#86dbfc"
     id="stop51898" />
  </linearGradient>
  <linearGradient
    id="d"
    y1="-2.9809999"
    x1="0.043000001"
    y2="19.040001"
    x2="22.059999"
    gradientUnits="userSpaceOnUse">
   <stop
     stop-color="#292c2f"
     id="stop51906" />
   <stop
     offset="1"
     stop-opacity="0"
     id="stop51908" />
  </linearGradient>
  <linearGradient
    id="c"
    y1="30"
    y2="2"
    x2="0"
    gradientUnits="userSpaceOnUse">
   <stop
     stop-color="#7cbaf8"
     id="stop51901" />
   <stop
     offset="1"
     stop-color="#f4fcff"
     id="stop51903" />
  </linearGradient>
  <linearGradient
    y2="30.416"
    x2="40.709"
    y1="-0.017999999"
    x1="10.972"
    gradientTransform="translate(-6.972,1.018)"
    gradientUnits="userSpaceOnUse"
    id="linearGradient52011"
    xlink:href="#e" />
  <linearGradient
    id="e"
    y1="-0.017999999"
    x1="10.972"
    y2="30.416"
    gradientUnits="userSpaceOnUse"
    x2="40.709"
    gradientTransform="translate(-6.972,1.018)">
   <stop
     id="stop51911" />
   <stop
     offset="1"
     stop-opacity="0"
     id="stop51913" />
  </linearGradient>
  <linearGradient
    xlink:href="#e"
    id="f"
    y1="4"
    x1="11"
    y2="22.129999"
    gradientUnits="userSpaceOnUse"
    x2="29.129999"
    gradientTransform="translate(0.028,5.02)" />
  <linearGradient
    id="g"
    y1="4"
    x1="8"
    y2="32"
    gradientUnits="userSpaceOnUse"
    x2="21"
    gradientTransform="translate(0.028,5.02)">
   <stop
     stop-color="#5583ab"
     id="stop51917" />
   <stop
     offset="1"
     stop-color="#374652"
     id="stop51919" />
  </linearGradient>
  <linearGradient
    id="i"
    y1="42.389999"
    x1="26.972"
    y2="33"
    gradientUnits="userSpaceOnUse"
    x2="19"
    gradientTransform="matrix(1,0,0,1.25,-11.972,-4.982)">
   <stop
     stop-color="#2b116f"
     id="stop51927" />
   <stop
     offset="1"
     stop-color="#693d9b"
     id="stop51929" />
  </linearGradient>
  <linearGradient
    xlink:href="#e"
    id="j"
    y1="38.957001"
    x1="13.98"
    y2="46"
    gradientUnits="userSpaceOnUse"
    x2="21"
    gradientTransform="translate(-6.972,1.018)" />
  <linearGradient
    id="h"
    y1="36"
    y2="32"
    gradientUnits="userSpaceOnUse"
    x2="0"
    gradientTransform="matrix(1,0,0,1.0091,-11.472,4.726)">
   <stop
     stop-color="#572977"
     id="stop51922" />
   <stop
     offset="1"
     stop-color="#833eb4"
     id="stop51924" />
  </linearGradient>
 </defs>
 <rect
   style="display:inline;fill:url(#linearGradient919);fill-opacity:1;fill-rule:evenodd;stroke:none;stroke-width:0.92782;stroke-linejoin:round;stroke-miterlimit:7.8"
   id="rect1192"
   width="42.084602"
   height="42.712109"
   x="3.1629105"
   y="3.0184898"
   ry="0" />
 <g
   transform="matrix(0.91981725,0,0,0.97318321,6.2150513,0.15397313)"
   id="g52009">
  <g
    transform="translate(-384.57,-499.8)"
    id="g51945">
   <path
     style="fill:url(#a)"
     d="m 417.14,506.66 c -2.374,0 -4.286,1.911 -4.286,4.286 0,2.374 1.911,4.286 4.286,4.286 2.374,0 4.286,-1.911 4.286,-4.286 0,-2.374 -1.911,-4.286 -4.286,-4.286 m 0,10 c -3.957,0 -7.143,1.274 -7.143,2.857 v 8.571 h 14.286 v -8.571 c 0,-1.583 -3.186,-2.857 -7.143,-2.857 m 0,1.429 c 3.166,0 5.714,0.909 5.714,2.04 v 6.532 h -11.429 v -6.532 c 0,-1.131 2.549,-2.04 5.714,-2.04"
     id="path51935" />
   <g
     transform="matrix(1.42857,0,0,1.42857,-163.67,-235.91)"
     id="g51943">
    <rect
      style="fill:url(#b)"
      width="28"
      x="386.57001"
      y="517.79999"
      rx="14"
      height="28"
      id="rect51937" />
    <path
      style="opacity:0.2;fill:url(#d);fill-rule:evenodd"
      d="M 18.594,2.248 15.619,2.629 11.484,5.016 9.982,7.618 c 0,0 -1.974,1.39 -2.271,1.311 -2.517,-0.03 -3.869,0.665 -4.58,1.547 -0.301,0.703 -0.537,1.44 -0.721,2.197 -0.005,0.761 0.162,1.352 0.162,1.352 7.06,6.356 14.12,9.1 21.18,13.643 0.445,-0.295 0.869,-0.616 1.275,-0.959 0.023,-0.02 0.045,-0.041 0.068,-0.061 0.36,-0.308 0.703,-0.636 1.029,-0.979 0.072,-0.076 0.14,-0.155 0.211,-0.232 0.283,-0.31 0.553,-0.632 0.807,-0.967 0.057,-0.076 0.114,-0.152 0.17,-0.229 0.275,-0.38 0.535,-0.772 0.771,-1.18 0.018,-0.03 0.037,-0.059 0.055,-0.09 1.065,-1.864 1.714,-3.999 1.824,-6.281 0,-0.006 0.002,-0.013 0.002,-0.02 V 16.668 L 28.14,9.031 c -2,-3.488 -5.452,-6.02 -9.549,-6.783"
      transform="translate(384.57,515.8)"
      id="path51939" />
    <path
      style="fill:url(#c)"
      d="m 15.807,2.01 c -1.072,0.015 -2.111,0.154 -3.111,0.395 -0.263,0.236 -0.652,0.356 -1.088,0.344 -0.156,0.149 -0.12,0.428 -0.205,0.633 -0.072,0.172 -0.324,0.356 -0.496,0.342 -0.127,-0.011 -0.273,-0.19 -0.273,-0.309 0,-0.143 0.199,-0.223 0.09,-0.383 C 9.61,3.484 8.573,4.079 7.624,4.788 7.878,4.694 8.159,4.537 8.39,4.532 8.428,4.532 8.463,4.535 8.497,4.544 8.652,4.585 9.06,5.032 8.72,5.177 8.688,5.191 8.221,5.242 8.14,5.228 8.021,5.208 7.951,5.044 7.831,5.023 7.63,4.988 7.375,5.197 7.202,5.103 c -1.908,1.54 -3.388,3.575 -4.275,5.91 0.081,-0.047 0.165,-0.096 0.238,-0.135 0.25,-0.13 0.461,-0.34 0.752,-0.359 0.145,-0.003 0.355,0.039 0.494,0.068 0.129,0.026 0.232,0.113 0.344,0.121 0.316,0.024 0.391,-0.222 0.648,-0.359 0.266,0.038 0.443,-0.045 0.684,-0.018 0.164,0.018 0.282,0.193 0.41,0.203 0.107,0.011 0.203,-0.1 0.307,-0.084 0.101,0.016 0.275,0.236 0.291,0.359 0.021,0.154 -0.112,0.292 -0.068,0.461 0.161,0.164 0.454,0.197 0.684,0.291 0.15,-0.123 0.02,-0.353 0,-0.531 -0.003,-0.079 0.011,-0.148 0,-0.221 C 7.697,10.686 7.643,10.573 7.643,10.467 7.64,9.981 8.035,9.753 8.362,9.561 8.503,9.477 8.614,9.331 8.737,9.27 8.91,9.183 9.039,9.163 9.182,9.082 9.441,8.937 9.663,8.819 9.866,8.654 9.96,8.433 9.876,8.138 9.884,7.92 9.978,7.863 10.058,7.946 10.157,7.938 10.313,7.905 10.326,7.684 10.415,7.596 10.467,7.545 10.607,7.509 10.671,7.459 10.827,7.337 10.877,7.152 11.013,7.1 c 0.049,-0.02 0.161,-0.014 0.238,-0.035 0.101,-0.027 0.245,-0.147 0.41,-0.203 0.107,-0.037 0.354,-0.045 0.395,-0.086 0.05,-0.051 0,-0.196 0.018,-0.273 0.083,-0.386 0.664,-0.468 1.01,-0.598 C 13.325,5.814 13.571,5.647 13.836,5.698 13.784,5.881 13.538,5.817 13.58,6.04 13.638,6.349 14.051,5.951 14.16,5.905 14.369,5.817 14.726,5.764 15,5.665 15.24,5.577 15.67,5.443 15.443,5.169 15.254,5.158 15.164,5.39 15,5.46 14.886,5.478 14.907,5.366 14.811,5.356 14.719,5.345 14.667,5.44 14.573,5.424 14.479,5.408 14.347,5.261 14.333,5.151 14.296,4.866 14.574,4.749 14.692,4.536 14.614,4.278 14.257,4.483 14.042,4.382 c 0.021,-0.154 0.18,-0.26 0.359,-0.289 0.147,-0.025 0.477,-0.012 0.564,0.066 0.051,0.043 0.004,0.151 0.086,0.223 0.087,0.079 0.194,0.071 0.307,0.053 C 15.399,4.24 15.105,4.288 15.137,4.16 15.368,4.009 15.743,4.134 16.026,4.092 16.189,4.068 16.36,3.952 16.505,3.871 16.642,3.793 16.82,3.657 16.966,3.785 c 0.04,0.14 -0.127,0.186 -0.205,0.256 -0.262,0.233 -0.531,0.499 -0.734,0.77 0.125,0.122 0.351,0.061 0.563,0.086 0.082,0.011 0.186,0.035 0.273,0.051 0.102,0.018 0.211,0.013 0.291,0.033 0.144,0.035 0.182,0.189 0.324,0.189 0.234,0 0.236,-0.254 0.104,-0.412 C 17.624,4.597 17.689,4.514 17.633,4.401 17.528,4.19 17.141,4.39 17.121,4.128 17.108,3.958 17.264,3.964 17.326,3.837 17.298,3.508 17.596,3.484 17.564,3.189 17.55,3.066 17.445,3.064 17.359,2.949 17.314,2.89 17.294,2.772 17.24,2.726 17.061,2.575 16.698,2.604 16.676,2.316 16.673,2.218 16.687,2.131 16.696,2.039 16.531,2.031 16.368,2.016 16.202,2.014 Z M 9.147,5.364 C 9.227,5.375 9.324,5.46 9.42,5.468 9.511,5.471 9.587,5.418 9.643,5.433 9.786,5.471 9.846,5.687 9.711,5.792 9.599,5.806 9.555,5.744 9.471,5.759 9.239,5.799 9.15,6.253 8.977,6.238 8.813,6.224 8.725,5.825 8.891,5.707 8.902,5.603 8.815,5.587 8.821,5.484 8.87,5.421 9.011,5.353 9.147,5.365 M 8.377,5.418 C 8.425,5.42 8.46,5.431 8.479,5.451 8.456,5.633 8.313,5.622 8.172,5.707 7.929,5.854 7.788,6.077 7.711,6.391 7.689,6.482 7.45,6.724 7.334,6.7 7.063,6.643 7.409,6.143 7.471,6.067 7.539,5.983 7.631,5.908 7.711,5.811 7.789,5.717 7.841,5.59 7.916,5.538 7.998,5.481 8.234,5.413 8.377,5.419 M 10.4,6.034 C 10.487,6.036 10.564,6.05 10.599,6.085 10.543,6.311 10.058,6.251 9.88,6.169 9.892,6.084 10.024,6.061 10.136,6.05 10.215,6.047 10.313,6.032 10.4,6.034 M 9.293,6.45 C 9.351,6.448 9.41,6.461 9.471,6.477 9.314,6.609 9.143,6.683 8.873,6.768 8.743,6.809 8.518,6.86 8.496,6.715 8.469,6.537 8.686,6.579 8.805,6.563 8.954,6.542 9.118,6.455 9.293,6.45 m 17.17,0.254 c 0.013,0.128 0.015,0.25 -0.02,0.389 -0.047,0.185 -0.213,0.353 -0.205,0.514 0.011,0.082 0.101,0.162 0.121,0.273 0.011,0.059 -0.028,0.186 0,0.24 0.087,0.168 0.324,0.026 0.479,0.051 0.151,0.024 0.326,0.241 0.324,0.41 -0.002,0.118 -0.113,0.314 -0.188,0.428 -0.149,0.227 -0.351,0.237 -0.564,0.357 -0.178,0.101 -0.255,0.27 -0.359,0.445 -0.113,0.19 -0.183,0.305 -0.137,0.58 -0.153,0.303 -0.385,0.489 -0.701,0.633 -0.094,0.042 -0.221,0.057 -0.307,0.119 -0.068,0.049 -0.108,0.182 -0.205,0.291 -0.12,0.133 -0.246,0.189 -0.309,0.291 -0.049,0.079 -0.065,0.236 -0.119,0.342 -0.073,0.144 -0.228,0.214 -0.324,0.359 -0.044,0.067 -0.073,0.203 -0.121,0.291 -0.108,0.197 -0.293,0.339 -0.273,0.512 0.02,0.167 0.21,0.196 0.223,0.342 0.003,0.082 -0.054,0.133 -0.051,0.223 0.003,0.131 0.091,0.223 0.102,0.324 0.026,0.254 -0.087,0.356 -0.135,0.529 -0.023,0.083 -0.013,0.175 -0.035,0.24 -0.042,0.127 -0.219,0.242 -0.223,0.393 -0.002,0.107 0.11,0.192 0.119,0.342 0.003,0.103 -0.051,0.214 -0.033,0.309 0.036,0.186 0.369,0.402 0.514,0.547 0.193,0.193 0.446,0.343 0.529,0.547 0.07,0.173 0.07,0.399 0.205,0.529 0.1,0.096 0.265,0.156 0.393,0.256 0.119,0.093 0.25,0.174 0.377,0.273 0.208,0.163 0.522,0.488 0.854,0.463 0.173,-0.013 0.351,-0.155 0.547,-0.189 0.202,-0.036 0.464,-0.054 0.668,-0.033 0.156,0.016 0.316,0.109 0.479,0.102 0.171,-0.011 0.368,-0.138 0.563,-0.223 0.308,-0.134 0.755,-0.3 1.205,-0.275 0.086,-0.63 0.146,-1.269 0.146,-1.924 0,-2.649 -0.741,-5.113 -2.01,-7.221 C 27.933,8.779 27.879,8.771 27.814,8.773 27.641,8.784 27.356,8.784 27.353,8.568 27.351,8.391 27.52,8.352 27.722,8.339 27.344,7.761 26.921,7.218 26.464,6.704 M 5.095,13.118 C 4.811,13.134 4.626,13.147 4.464,13.22 4.094,13.388 4.166,13.889 3.796,14.007 3.668,14.048 3.493,14.049 3.353,14.075 3.232,14.097 3.084,14.164 2.958,14.161 2.81,14.158 2.552,14.015 2.464,13.921 2.403,13.855 2.304,13.626 2.239,13.474 2.15,13.966 2.088,14.467 2.051,14.976 c 0.03,0.006 0.062,0.014 0.088,0.014 0.162,10e-4 0.335,-0.167 0.514,-0.172 0.419,-0.012 0.601,0.533 0.939,0.701 0.085,0.042 0.197,0.044 0.307,0.068 0.088,0.02 0.155,0.057 0.24,0.086 0.181,0.061 0.402,0.055 0.547,0.119 0.218,0.097 0.377,0.506 0.564,0.615 0.011,0.11 -0.02,0.259 0.018,0.342 0.088,0.12 0.214,0.094 0.359,0.172 0.174,0.094 0.227,0.336 0.393,0.41 0.057,0.025 0.201,0.023 0.291,0.051 0.227,0.069 0.3,0.331 0.494,0.273 0.127,-0.038 0.118,-0.169 0.139,-0.291 0.084,-0.091 0.175,-0.236 0.307,-0.238 0.212,-0.011 0.231,0.22 0.309,0.426 0.044,0.117 0.158,0.219 0.188,0.342 0.053,0.212 0.027,0.848 -0.018,0.975 -0.053,0.156 -0.265,0.222 -0.395,0.395 -0.061,0.081 -0.09,0.199 -0.137,0.256 -0.084,0.102 -0.209,0.129 -0.271,0.223 -0.035,0.053 -0.069,0.167 -0.104,0.238 -0.103,0.218 -0.241,0.372 -0.154,0.633 0.036,0.107 0.205,0.18 0.205,0.307 0,0.149 -0.317,0.282 -0.342,0.445 -0.018,0.121 0.098,0.338 0.137,0.496 0.028,0.119 0.254,0.194 0.324,0.273 0.12,0.135 0.217,0.325 0.326,0.494 0.217,0.333 0.387,0.738 0.598,1.061 0.112,0.169 0.267,0.321 0.342,0.496 0.038,0.088 0.033,0.194 0.068,0.273 0.122,0.276 0.661,0.564 0.939,0.701 0.13,0.063 0.275,0.086 0.395,0.152 0.181,0.101 0.539,0.372 0.631,0.531 0.082,0.143 0.132,0.49 0.172,0.717 0.053,0.3 0.002,0.531 0.018,0.855 0.011,0.176 0.066,0.353 0.068,0.529 10e-4,0.062 -0.032,0.107 -0.035,0.17 -0.003,0.213 0.053,0.453 0.035,0.668 -0.001,0.046 -0.006,0.081 -0.014,0.121 1.678,0.708 3.524,1.1 5.465,1.1 0.203,0 0.401,-0.023 0.602,-0.031 0.005,-0.032 0.009,-0.064 0.016,-0.09 0.062,-0.173 0.221,-0.231 0.324,-0.359 0.078,-0.097 0.114,-0.21 0.188,-0.307 0.08,-0.105 0.152,-0.198 0.205,-0.291 0.05,-0.312 -0.124,-0.53 -0.051,-0.803 0.082,-0.307 0.505,-0.494 0.803,-0.633 0.102,-0.047 0.208,-0.125 0.291,-0.154 0.206,-0.072 0.462,-0.033 0.65,-0.102 0.32,-0.117 0.354,-0.46 0.512,-0.752 0.075,-0.138 0.173,-0.277 0.188,-0.375 0.013,-0.088 -0.032,-0.171 -0.018,-0.275 0.016,-0.103 0.108,-0.193 0.137,-0.307 0.038,-0.148 0.053,-0.364 0.053,-0.529 0,-0.135 -0.063,-0.255 -0.068,-0.377 -0.022,-0.443 0.16,-0.493 0.324,-0.734 0.082,-0.12 0.112,-0.256 0.17,-0.342 0.275,-0.411 0.753,-0.609 0.719,-1.23 -0.012,-0.206 -0.14,-0.671 -0.291,-0.736 -0.087,-0.038 -0.285,-0.003 -0.41,-0.051 -0.404,-0.151 -0.642,-0.652 -1.061,-0.684 -0.089,-0.011 -0.171,0.037 -0.271,0.035 -0.166,-0.011 -0.416,-0.116 -0.6,-0.137 -0.117,-0.013 -0.272,0.035 -0.342,0 -0.107,-0.052 -0.118,-0.248 -0.205,-0.307 -0.069,-0.047 -0.202,-0.063 -0.307,-0.104 -0.168,-0.065 -0.302,-0.141 -0.496,-0.154 -0.06,-0.003 -0.135,0.029 -0.205,0.018 -0.107,-0.018 -0.192,-0.145 -0.291,-0.205 -0.124,-0.076 -0.24,-0.113 -0.291,-0.221 0.112,-0.368 -0.198,-0.471 -0.273,-0.684 -0.036,-0.1 -0.019,-0.22 -0.051,-0.309 -0.044,-0.127 -0.171,-0.2 -0.309,-0.307 -0.247,-0.19 -0.467,-0.369 -0.82,-0.412 -0.155,-0.02 -0.308,0.047 -0.496,0.035 C 14.128,18.076 13.878,17.902 13.729,17.732 13.584,17.566 13.513,17.417 13.387,17.337 13.268,17.26 13.109,17.262 13.028,17.185 12.992,17.151 12.998,17.093 12.96,17.013 12.9,16.889 12.799,16.82 12.874,16.671 12.738,16.601 12.734,16.8 12.585,16.775 12.452,16.586 12.34,16.497 12.038,16.552 11.9,16.578 11.822,16.753 11.661,16.757 11.529,16.768 11.425,16.61 11.251,16.585 11.119,16.567 10.97,16.62 10.876,16.603 10.73,16.574 10.685,16.452 10.552,16.365 10.454,16.301 10.265,16.191 10.21,16.193 10.038,16.204 9.916,16.559 9.679,16.433 9.564,16.287 9.866,16.21 9.73,16.074 9.626,15.97 9.539,16.12 9.457,16.178 9.362,16.244 9.273,16.309 9.168,16.348 8.933,16.436 8.787,16.39 8.604,16.485 8.434,16.573 8.427,16.72 8.331,16.895 8.252,17.038 8.072,17.246 7.954,17.254 7.811,17.265 7.674,17.054 7.544,16.998 7.153,16.828 6.963,17.148 6.638,17.152 6.336,17.163 5.906,16.666 5.921,16.382 5.924,16.209 6.02,15.946 6.04,15.732 6.058,15.562 6.175,15.46 6.177,15.304 6.18,15.096 5.902,14.936 5.767,14.911 5.448,14.852 5.004,15.04 4.638,14.893 4.568,14.777 4.72,14.697 4.759,14.584 4.781,14.52 4.769,14.434 4.792,14.363 4.833,14.254 4.946,14.17 4.997,14.054 5.035,13.966 5.045,13.839 5.083,13.73 5.128,13.606 5.21,13.526 5.22,13.439 5.233,13.324 5.189,13.191 5.099,13.115 m 4.57,3.619 c 0.116,0.011 0.13,0.25 0.012,0.27 -0.128,0.02 -0.192,-0.2 -0.068,-0.258 0.021,-0.011 0.04,-0.013 0.057,-0.012"
      transform="translate(384.57,515.8)"
      id="path51941" />
   </g>
  </g>
  <g
    style="fill-rule:evenodd"
    id="g51951">
   <path
     style="opacity:0.2;fill:url(#linearGradient52011)"
     d="m 14.598,9.791 -0.57,1.227 1,34 h 20 V 30.221 Z"
     id="path51947" />
   <path
     style="opacity:0.2;fill:url(#f)"
     d="m 11.03,9.02 2,2 2,20 -7,2 z"
     id="path51949" />
  </g>
  <g
    style="stroke-linejoin:bevel"
    id="g51957">
   <path
     style="fill:url(#g);stroke-width:2"
     d="m 11.03,9.02 c -1.105,0 -2,0.895 -2,2 0.001,0.652 0.32,1.263 0.855,1.637 C 8.419,17.084 5.74,24.31 3.03,27.02 c 0,0 3.977,6.02 3.977,10.02 h 10 c 0,-4 4.02,-10.02 4.02,-10.02 -2.71,-2.71 -5.387,-9.934 -6.854,-14.361 0.535,-0.374 0.853,-0.986 0.854,-1.639 0,-1.105 -0.895,-2 -2,-2 v 18.27 c 0.618,0.357 0.999,1.017 1,1.73 0,1.105 -0.895,2 -2,2 -1.105,0 -2,-0.895 -2,-2 0.001,-0.713 0.382,-1.372 1,-1.729 V 13.02 Z"
     id="path51953" />
   <rect
     style="fill:url(#i);stroke-width:6.2;stroke-linecap:round"
     width="10.02"
     x="7"
     y="39.959999"
     rx="0"
     height="5.0500002"
     id="rect51955" />
  </g>
  <path
    style="opacity:0.2;fill:url(#j);fill-rule:evenodd"
    d="m 7.03,40.02 5,5 h 5 V 40 Z"
    id="path51959" />
  <path
    style="fill:url(#h);stroke-width:6.2;stroke-linejoin:bevel"
    d="m 7.03,37.02 h 10 c 0.831,0 1.5,0.675 1.5,1.514 0,0.839 -0.669,1.514 -1.5,1.514 h -10 c -0.831,0 -1.5,-0.675 -1.5,-1.514 0,-0.839 0.669,-1.514 1.5,-1.514"
    id="path51961" />
 </g>
 <path
   style="display:inline;mix-blend-mode:normal;fill:url(#linearGradient3403);fill-opacity:1;stroke:url(#linearGradient20558);stroke-width:1.16242;stroke-linecap:butt;stroke-linejoin:round;stroke-miterlimit:4;stroke-dasharray:none;stroke-opacity:1"
   d="M 4.7043071,3.9814882 4.6913695,60.80196 H 58.59546 l 1.022155,-2.866369 c 0,0 -23.87537,0.766388 -32.844441,-4.140386 C 16.257548,48.042344 11.401114,4.0978197 11.401114,4.0978197 Z"
   id="path1686"
   transform="matrix(0.7518797,0,0,0.7518797,0.09970467,0.02488636)" />
 <rect
   style="display:inline;fill:none;fill-opacity:1;stroke:url(#linearGradient4557);stroke-width:3.71366;stroke-linejoin:round;stroke-miterlimit:7.8;stroke-dasharray:none;stroke-opacity:0.995146"
   id="rect4539"
   width="62.566689"
   height="62.866646"
   x="1.0323594"
   y="0.59551275"
   ry="6.2447233"
   rx="5.8029528"
   transform="matrix(0.70434793,0,0,0.70291231,1.3629847,1.5442064)" />
</svg>
