<?xml version="1.0" encoding="UTF-8" standalone="no"?>
<!-- Created with Inkscape (http://www.inkscape.org/) -->

<svg
  width="48"
  height="48"
  version="1.1"
  viewBox="0 0 48 48"
  id="svg22"
  xmlns:xlink="http://www.w3.org/1999/xlink"
  xmlns="http://www.w3.org/2000/svg"
  xmlns:svg="http://www.w3.org/2000/svg">
 <defs
   id="defs12">
  <linearGradient
    id="linearGradient917">
   <stop
     style="stop-color:#000000;stop-opacity:0.99607843"
     offset="0"
     id="stop913" />
   <stop
     style="stop-color:#353a3f;stop-opacity:0.99607843"
     offset="1"
     id="stop915" />
  </linearGradient>
  <linearGradient
    id="linearGradient1005-3-3"
    x1="5.2535"
    x2="9.3823996"
    y1="15.383"
    y2="2.9421"
    gradientTransform="matrix(0.99999,0,0,0.99999,1.632,-0.61743)"
    gradientUnits="userSpaceOnUse">
   <stop
     stop-color="#fa8200"
     offset="0"
     id="stop2" />
   <stop
     stop-color="#ff9600"
     offset=".36953"
     id="stop4" />
   <stop
     stop-color="#ffb400"
     offset="1"
     id="stop6" />
  </linearGradient>
  <filter
    id="filter4014"
    x="-0.062499932"
    y="-0.057692992"
    width="1.1249999"
    height="1.115386"
    color-interpolation-filters="sRGB">
   <feGaussianBlur
     stdDeviation="1.093751"
     id="feGaussianBlur9" />
  </filter>
  <linearGradient
    xlink:href="#linearGradient3487"
    id="linearGradient3403"
    gradientUnits="userSpaceOnUse"
    x1="6.9491749"
    y1="4.5549412"
    x2="11.215498"
    y2="59.052471" />
  <linearGradient
    id="linearGradient3487">
   <stop
     style="stop-color:#32373c;stop-opacity:1"
     offset="0"
     id="stop3481" />
   <stop
     id="stop3483"
     offset="0.36804965"
     style="stop-color:#1a1a1a;stop-opacity:1" />
   <stop
     style="stop-color:#31363b;stop-opacity:1"
     offset="1"
     id="stop3485" />
  </linearGradient>
  <linearGradient
    xlink:href="#linearGradient20604"
    id="linearGradient20558"
    gradientUnits="userSpaceOnUse"
    x1="25.802212"
    y1="20.373846"
    x2="25.111048"
    y2="58.912758" />
  <linearGradient
    id="linearGradient20604">
   <stop
     id="stop20598"
     offset="0"
     style="stop-color:#3d3d3d;stop-opacity:1" />
   <stop
     style="stop-color:#000000;stop-opacity:1"
     offset="0.61772454"
     id="stop20600" />
   <stop
     id="stop20602"
     offset="1"
     style="stop-color:#3d3d3d;stop-opacity:1" />
  </linearGradient>
  <linearGradient
    gradientTransform="translate(0.36067797,-0.13016949)"
    xlink:href="#linearGradient4555"
    id="linearGradient4557"
    x1="43.499737"
    y1="64.011795"
    x2="44.141731"
    y2="0.30621234"
    gradientUnits="userSpaceOnUse" />
  <linearGradient
    id="linearGradient4555">
   <stop
     style="stop-color:#141618;stop-opacity:1"
     offset="0"
     id="stop4551" />
   <stop
     id="stop4559"
     offset="0.51820582"
     style="stop-color:#686868;stop-opacity:1" />
   <stop
     style="stop-color:#31363b;stop-opacity:1"
     offset="1"
     id="stop4553" />
  </linearGradient>
  <filter
    style="color-interpolation-filters:sRGB"
    id="filter4601"
    x="-0.029677666"
    width="1.0593553"
    y="-0.029536064"
    height="1.0590721">
   <feGaussianBlur
     stdDeviation="1.3765464e-06"
     id="feGaussianBlur4603" />
  </filter>
  <linearGradient
    xlink:href="#linearGradient917"
    id="linearGradient919"
    x1="7.400631"
    y1="41.743092"
    x2="33.063145"
    y2="7.1074457"
    gradientUnits="userSpaceOnUse" />
  <linearGradient
    gradientTransform="matrix(0.33710364,0,0,0.33162938,257.3899,363.04509)"
    xlink:href="#linearGradient3347"
    id="linearGradient3353"
    x1="376.91901"
    y1="410.05899"
    x2="528.57098"
    y2="561.711"
    gradientUnits="userSpaceOnUse" />
  <linearGradient
    id="linearGradient3347">
   <stop
     style="stop-color:#006680;stop-opacity:1;"
     offset="0"
     id="stop52327" />
   <stop
     offset=".252"
     style="stop-color:#80b3ff;stop-opacity:1"
     id="stop52329" />
   <stop
     style="stop-color:#0066ff;stop-opacity:1"
     offset=".459"
     id="stop52331" />
   <stop
     offset=".899"
     style="stop-color:#002255;stop-opacity:1"
     id="stop52333" />
   <stop
     style="stop-color:#006680;stop-opacity:0;"
     offset="1"
     id="stop52335" />
  </linearGradient>
 </defs>
 <rect
   style="display:inline;fill:url(#linearGradient919);fill-opacity:1;fill-rule:evenodd;stroke:none;stroke-width:0.92782;stroke-linejoin:round;stroke-miterlimit:7.8"
   id="rect1192"
   width="42.084602"
   height="42.712109"
   x="3.1629105"
   y="3.0184898"
   ry="0" />
 <g
   transform="matrix(0.81928101,0,0,0.81928101,-303.99817,-405.76526)"
   id="g52342">
  <path
    style="fill:url(#linearGradient3353);fill-opacity:1"
    d="m 428.57117,503.80286 c 0,-0.0562 -0.6399,0.38104 -1.42246,0.97118 -7.36151,5.55155 -16.563,10.40663 -21.7151,11.4582 l -0.97136,0.19856 -0.36828,0.96714 c -1.28309,3.37312 -4.93047,5.7652 -10.64874,6.98326 -0.90345,0.19249 -1.87267,0.46695 -2.1536,0.60977 -0.86789,0.44125 -1.87632,1.45083 -2.33223,2.33539 -0.36832,0.71434 -0.4253,1.02245 -0.36966,1.99078 0.0468,0.81502 0.15926,1.24668 0.38952,1.49682 0.30965,0.33644 1.08152,0.51291 0.88648,0.20258 -0.15336,-0.24405 0.5733,-1.02201 1.29175,-1.3824 1.16332,-0.58348 2.97064,-0.85926 4.86161,-0.83384 0.33764,0.006 0.74383,0.0207 1.024,0.0424 1.41606,0.1002 2.82381,0.36707 3.99226,0.80359 0.6283,0.23474 1.16039,0.51628 1.59225,0.8332 1.61226,0.82581 2.96858,1.90031 4.10792,3.14098 9.7e-4,-0.0412 0.005,-0.0804 0.005,-0.12243 0.007,-0.81564 0.0356,-1.48302 0.0615,-1.48337 0.026,-3.2e-4 0.12875,0.20861 0.22794,0.46506 0.24052,0.62104 0.36584,1.27477 0.3895,1.93224 2.16255,2.68559 3.44138,5.99421 4.19215,9.18813 1.00073,-1.7048 1.94876,-3.95944 1.95299,-4.8801 0.006,-1.36294 0.9667,1.31235 1.26983,3.53741 l 0.20949,1.54055 0.37992,-0.93281 c 0.63507,-1.55978 0.93332,-3.1907 0.9351,-5.11161 9.6e-4,-0.99294 -0.0494,-1.96566 -0.11297,-2.16175 -0.0632,-0.1961 -0.0461,-0.3567 0.0386,-0.3567 0.20796,0 1.86197,1.65707 2.28568,2.28962 0.39983,0.59683 0.43017,0.33618 0.10195,-0.87561 -0.86789,-3.20474 -3.35718,-6.22402 -6.90909,-8.38046 l -1.37251,-0.83319 0.68317,-0.02 c 0.37544,-0.0109 0.91544,-0.0718 1.20003,-0.13525 l 0.51748,-0.11512 -0.69,-0.23085 -0.69,-0.23153 1.10552,-0.22208 c 0.60819,-0.12215 1.65648,-0.47825 2.32883,-0.79148 l 1.22192,-0.56939 -1.55191,0.0605 -1.55253,0.0605 1.20751,-0.40048 c 1.68002,-0.55746 4.90311,-2.22126 4.69668,-2.42423 -0.0291,-0.029 -0.63253,0.0958 -1.34034,0.27662 -2.0809,0.53127 -2.30057,0.4149 -0.67427,-0.35737 1.58318,-0.7518 3.81131,-2.16633 4.90612,-3.11476 l 0.69003,-0.59764 -1.29309,0.57341 c -1.09849,0.48707 -3.60585,1.28747 -4.03335,1.28747 -0.0721,0 0.36979,-0.25649 0.98163,-0.57003 1.75183,-0.89773 3.33493,-2.08665 5.2929,-3.97352 l 1.81131,-1.74583 -1.46561,0.76119 c -1.38619,0.71948 -4.31196,2.01176 -4.31196,1.90468 0,-0.0272 0.36884,-0.30606 0.81941,-0.61919 1.74836,-1.215 4.84355,-4.42526 6.67564,-6.92338 l 0.66542,-0.90659 -1.63129,1.25316 c -1.74161,1.3385 -5.29873,3.60706 -5.43937,3.46879 -0.0463,-0.0456 0.12677,-0.21943 0.38473,-0.38566 0.7616,-0.49062 4.11395,-4.21368 5.95687,-6.61512 0.94006,-1.22498 1.70932,-2.27316 1.70932,-2.32935 z"
    id="path52340" />
 </g>
 <path
   style="display:inline;mix-blend-mode:normal;fill:url(#linearGradient3403);fill-opacity:1;stroke:url(#linearGradient20558);stroke-width:1.16242;stroke-linecap:butt;stroke-linejoin:round;stroke-miterlimit:4;stroke-dasharray:none;stroke-opacity:1"
   d="M 4.7043071,3.9814882 4.6913695,60.80196 H 58.59546 l 1.022155,-2.866369 c 0,0 -23.87537,0.766388 -32.844441,-4.140386 C 16.257548,48.042344 11.401114,4.0978197 11.401114,4.0978197 Z"
   id="path1686"
   transform="matrix(0.7518797,0,0,0.7518797,0.09970467,0.02488636)" />
 <rect
   style="display:inline;fill:none;fill-opacity:1;stroke:url(#linearGradient4557);stroke-width:3.71366;stroke-linejoin:round;stroke-miterlimit:7.8;stroke-dasharray:none;stroke-opacity:0.995146"
   id="rect4539"
   width="62.566689"
   height="62.866646"
   x="1.0323594"
   y="0.59551275"
   ry="6.2447233"
   rx="5.8029528"
   transform="matrix(0.70434793,0,0,0.70291231,1.3629847,1.5442064)" />
</svg>
