<?xml version="1.0" encoding="UTF-8" standalone="no"?>
<!-- Created with Inkscape (http://www.inkscape.org/) -->

<svg
  width="48"
  height="48"
  version="1.1"
  viewBox="0 0 48 48"
  id="svg22"
  xmlns:xlink="http://www.w3.org/1999/xlink"
  xmlns="http://www.w3.org/2000/svg"
  xmlns:svg="http://www.w3.org/2000/svg">
 <defs
   id="defs12">
  <linearGradient
    id="linearGradient917">
   <stop
     style="stop-color:#000000;stop-opacity:0.99607843"
     offset="0"
     id="stop913" />
   <stop
     style="stop-color:#353a3f;stop-opacity:0.99607843"
     offset="1"
     id="stop915" />
  </linearGradient>
  <linearGradient
    id="linearGradient1005-3-3"
    x1="5.2535"
    x2="9.3823996"
    y1="15.383"
    y2="2.9421"
    gradientTransform="matrix(0.99999,0,0,0.99999,1.632,-0.61743)"
    gradientUnits="userSpaceOnUse">
   <stop
     stop-color="#fa8200"
     offset="0"
     id="stop2" />
   <stop
     stop-color="#ff9600"
     offset=".36953"
     id="stop4" />
   <stop
     stop-color="#ffb400"
     offset="1"
     id="stop6" />
  </linearGradient>
  <filter
    id="filter4014"
    x="-0.062499932"
    y="-0.057692992"
    width="1.1249999"
    height="1.115386"
    color-interpolation-filters="sRGB">
   <feGaussianBlur
     stdDeviation="1.093751"
     id="feGaussianBlur9" />
  </filter>
  <linearGradient
    xlink:href="#linearGradient3487"
    id="linearGradient3403"
    gradientUnits="userSpaceOnUse"
    x1="6.9491749"
    y1="4.5549412"
    x2="11.215498"
    y2="59.052471" />
  <linearGradient
    id="linearGradient3487">
   <stop
     style="stop-color:#32373c;stop-opacity:1"
     offset="0"
     id="stop3481" />
   <stop
     id="stop3483"
     offset="0.36804965"
     style="stop-color:#1a1a1a;stop-opacity:1" />
   <stop
     style="stop-color:#31363b;stop-opacity:1"
     offset="1"
     id="stop3485" />
  </linearGradient>
  <linearGradient
    xlink:href="#linearGradient20604"
    id="linearGradient20558"
    gradientUnits="userSpaceOnUse"
    x1="25.802212"
    y1="20.373846"
    x2="25.111048"
    y2="58.912758" />
  <linearGradient
    id="linearGradient20604">
   <stop
     id="stop20598"
     offset="0"
     style="stop-color:#3d3d3d;stop-opacity:1" />
   <stop
     style="stop-color:#000000;stop-opacity:1"
     offset="0.61772454"
     id="stop20600" />
   <stop
     id="stop20602"
     offset="1"
     style="stop-color:#3d3d3d;stop-opacity:1" />
  </linearGradient>
  <linearGradient
    gradientTransform="translate(0.36067797,-0.13016949)"
    xlink:href="#linearGradient4555"
    id="linearGradient4557"
    x1="43.499737"
    y1="64.011795"
    x2="44.141731"
    y2="0.30621234"
    gradientUnits="userSpaceOnUse" />
  <linearGradient
    id="linearGradient4555">
   <stop
     style="stop-color:#141618;stop-opacity:1"
     offset="0"
     id="stop4551" />
   <stop
     id="stop4559"
     offset="0.51820582"
     style="stop-color:#686868;stop-opacity:1" />
   <stop
     style="stop-color:#31363b;stop-opacity:1"
     offset="1"
     id="stop4553" />
  </linearGradient>
  <filter
    style="color-interpolation-filters:sRGB"
    id="filter4601"
    x="-0.02967768"
    width="1.0593554"
    y="-0.029536078"
    height="1.0590722">
   <feGaussianBlur
     stdDeviation="1.7225614e-06"
     id="feGaussianBlur4603" />
  </filter>
  <linearGradient
    xlink:href="#linearGradient917"
    id="linearGradient919"
    x1="7.400631"
    y1="41.743092"
    x2="33.063145"
    y2="7.1074457"
    gradientUnits="userSpaceOnUse" />
  <linearGradient
    id="b"
    y1="12"
    y2="32"
    x2="0"
    gradientUnits="userSpaceOnUse"
    gradientTransform="matrix(1,0,0,1.08333,384.57,492.96)">
   <stop
     stop-color="#9559b6"
     id="stop53675" />
   <stop
     offset="1"
     stop-color="#8e44ad"
     id="stop53677" />
  </linearGradient>
  <linearGradient
    id="a"
    y1="20"
    y2="44"
    x2="0"
    gradientUnits="userSpaceOnUse"
    gradientTransform="translate(384.57,499.8)">
   <stop
     stop-color="#eff0f1"
     id="stop53670" />
   <stop
     offset="1"
     stop-color="#bdc3c7"
     id="stop53672" />
  </linearGradient>
  <linearGradient
    xlink:href="#c"
    id="d"
    y1="36"
    x1="9.9049997"
    y2="41"
    gradientUnits="userSpaceOnUse"
    x2="14.905"
    gradientTransform="translate(398.67,500.8)" />
  <linearGradient
    id="c"
    y1="36"
    x1="10"
    y2="41"
    x2="15"
    gradientUnits="userSpaceOnUse"
    gradientTransform="translate(384.57,500.8)">
   <stop
     stop-color="#292c2f"
     id="stop53680" />
   <stop
     offset="1"
     stop-opacity="0"
     id="stop53682" />
  </linearGradient>
  <linearGradient
    y2="41"
    x2="15"
    y1="36"
    x1="10"
    gradientTransform="translate(384.57,500.8)"
    gradientUnits="userSpaceOnUse"
    id="linearGradient53742"
    xlink:href="#c" />
  <linearGradient
    xlink:href="#c"
    id="e"
    y1="509.79999"
    x1="396.57001"
    y2="533.79999"
    gradientUnits="userSpaceOnUse"
    x2="419.57001" />
 </defs>
 <rect
   style="display:inline;fill:url(#linearGradient919);fill-opacity:1;fill-rule:evenodd;stroke:none;stroke-width:0.92782;stroke-linejoin:round;stroke-miterlimit:7.8"
   id="rect1192"
   width="42.084602"
   height="42.712109"
   x="3.1629105"
   y="3.0184898"
   ry="0" />
 <g
   transform="translate(-382.13568,-498.6333)"
   id="g53711">
  <rect
    style="fill:url(#b)"
    width="32"
    x="392.57001"
    y="503.79999"
    rx="0"
    height="26"
    id="rect53689" />
  <path
    style="opacity:0.2;fill:#232629"
    d="m 408.57,533.8 c -1.662,0 -3,1.338 -3,3 0,1.662 1.338,3 3,3 1.305,0 2.398,-0.841 2.813,-2 h 8.375 c 0.414,1.159 1.507,2 2.813,2 1.662,0 3,-1.338 3,-3 0,-1.662 -1.338,-3 -3,-3 -1.305,0 -2.398,0.841 -2.813,2 h -8.375 c -0.414,-1.159 -1.507,-2 -2.813,-2"
    id="path53691" />
  <path
    style="fill:url(#a)"
    d="m 388.57,529.8 v 14 h 40 v -14 z"
    id="path53693" />
  <path
    style="opacity:0.2;fill:url(#d)"
    d="m 406.67,539.13 4.762,4.667 h 8.143 l -9.143,-9.429 z"
    id="path53695" />
  <path
    style="opacity:0.779;fill:#4d4d4d"
    d="m 411.38,537.8 h 8.375 c 0.414,1.159 1.507,2 2.813,2 1.662,0 3,-1.338 3,-3 0,-1.662 -1.338,-3 -3,-3 -1.305,0 -2.398,0.841 -2.813,2 h -8.375 c 0.188,1 0.188,1 0,2"
    id="path53697" />
  <path
    style="opacity:0.2;fill:url(#linearGradient53742)"
    d="m 392.57,539.13 4.619,4.667 h 13.381 l -4.867,-6.937 -7.133,-0.067 -2.238,-2.425 z"
    id="path53699" />
  <path
    style="fill:#1d99f3"
    d="m 394.57,533.8 c -1.662,0 -3,1.338 -3,3 0,1.662 1.338,3 3,3 1.305,0 2.398,-0.841 2.813,-2 h 8.375 c 0.414,1.159 1.507,2 2.813,2 1.662,0 3,-1.338 3,-3 0,-1.662 -1.338,-3 -3,-3 -1.305,0 -2.398,0.841 -2.813,2 h -8.375 c -0.414,-1.159 -1.507,-2 -2.813,-2"
    id="path53701" />
  <rect
    style="fill:#95a5a6"
    width="40"
    x="388.57001"
    y="542.79999"
    rx="0"
    height="1"
    id="rect53703" />
  <rect
    style="fill:#eff0f1"
    width="40"
    x="388.57001"
    y="529.79999"
    rx="0"
    height="1"
    id="rect53705" />
  <path
    style="opacity:0.2;fill:url(#e);fill-rule:evenodd"
    d="m 409.57,513.8 v 1 l -1,9 20,19 v -14 l -19,-19 z"
    id="path53707" />
  <path
    style="color:#000000;color-interpolation:sRGB;color-interpolation-filters:linearRGB;fill:#fcfcfc;stroke-width:2;color-rendering:auto;image-rendering:auto;shape-rendering:auto;text-rendering:auto"
    d="m 407.57,509.8 v 10 l -4.5,-4.5 -1.5,1.5 7,7 7,-7 -1.5,-1.5 -4.5,4.5 v -10 z"
    id="path53709" />
 </g>
 <path
   style="display:inline;mix-blend-mode:normal;fill:url(#linearGradient3403);fill-opacity:1;stroke:url(#linearGradient20558);stroke-width:1.16242;stroke-linecap:butt;stroke-linejoin:round;stroke-miterlimit:4;stroke-dasharray:none;stroke-opacity:1"
   d="M 4.7043071,3.9814882 4.6913695,60.80196 H 58.59546 l 1.022155,-2.866369 c 0,0 -23.87537,0.766388 -32.844441,-4.140386 C 16.257548,48.042344 11.401114,4.0978197 11.401114,4.0978197 Z"
   id="path1686"
   transform="matrix(0.7518797,0,0,0.7518797,0.09970467,0.02488636)" />
 <rect
   style="display:inline;fill:none;fill-opacity:1;stroke:url(#linearGradient4557);stroke-width:3.71366;stroke-linejoin:round;stroke-miterlimit:7.8;stroke-dasharray:none;stroke-opacity:0.995146"
   id="rect4539"
   width="62.566689"
   height="62.866646"
   x="1.0323594"
   y="0.59551275"
   ry="6.2447233"
   rx="5.8029528"
   transform="matrix(0.70434793,0,0,0.70291231,1.3629847,1.5442064)" />
</svg>
