<?xml version="1.0" encoding="UTF-8" standalone="no"?>
<!-- Created with Inkscape (http://www.inkscape.org/) -->

<svg
  width="48"
  height="48"
  version="1.1"
  viewBox="0 0 48 48"
  id="svg22"
  xmlns:xlink="http://www.w3.org/1999/xlink"
  xmlns="http://www.w3.org/2000/svg"
  xmlns:svg="http://www.w3.org/2000/svg">
 <defs
   id="defs12">
  <linearGradient
    id="linearGradient1005-3-3"
    x1="5.2535"
    x2="9.3823996"
    y1="15.383"
    y2="2.9421"
    gradientTransform="matrix(0.99999,0,0,0.99999,1.632,-0.61743)"
    gradientUnits="userSpaceOnUse">
   <stop
     stop-color="#fa8200"
     offset="0"
     id="stop2" />
   <stop
     stop-color="#ff9600"
     offset=".36953"
     id="stop4" />
   <stop
     stop-color="#ffb400"
     offset="1"
     id="stop6" />
  </linearGradient>
  <filter
    id="filter4014"
    x="-0.062499932"
    y="-0.057692992"
    width="1.1249999"
    height="1.115386"
    color-interpolation-filters="sRGB">
   <feGaussianBlur
     stdDeviation="1.093751"
     id="feGaussianBlur9" />
  </filter>
  <linearGradient
    xlink:href="#linearGradient3487"
    id="linearGradient3403"
    gradientUnits="userSpaceOnUse"
    x1="6.9491749"
    y1="4.5549412"
    x2="11.215498"
    y2="59.052471" />
  <linearGradient
    id="linearGradient3487">
   <stop
     style="stop-color:#32373c;stop-opacity:1"
     offset="0"
     id="stop3481" />
   <stop
     id="stop3483"
     offset="0.36804965"
     style="stop-color:#1a1a1a;stop-opacity:1" />
   <stop
     style="stop-color:#31363b;stop-opacity:1"
     offset="1"
     id="stop3485" />
  </linearGradient>
  <linearGradient
    xlink:href="#linearGradient20604"
    id="linearGradient20558"
    gradientUnits="userSpaceOnUse"
    x1="25.802212"
    y1="20.373846"
    x2="25.111048"
    y2="58.912758" />
  <linearGradient
    id="linearGradient20604">
   <stop
     id="stop20598"
     offset="0"
     style="stop-color:#3d3d3d;stop-opacity:1" />
   <stop
     style="stop-color:#000000;stop-opacity:1"
     offset="0.61772454"
     id="stop20600" />
   <stop
     id="stop20602"
     offset="1"
     style="stop-color:#3d3d3d;stop-opacity:1" />
  </linearGradient>
  <linearGradient
    gradientTransform="translate(0.36067797,-0.13016949)"
    xlink:href="#linearGradient4555"
    id="linearGradient4557"
    x1="43.499737"
    y1="64.011795"
    x2="44.141731"
    y2="0.30621234"
    gradientUnits="userSpaceOnUse" />
  <linearGradient
    id="linearGradient4555">
   <stop
     style="stop-color:#141618;stop-opacity:1"
     offset="0"
     id="stop4551" />
   <stop
     id="stop4559"
     offset="0.51820582"
     style="stop-color:#686868;stop-opacity:1" />
   <stop
     style="stop-color:#31363b;stop-opacity:1"
     offset="1"
     id="stop4553" />
  </linearGradient>
  <filter
    style="color-interpolation-filters:sRGB"
    id="filter4601"
    x="-0.029677614"
    width="1.0593552"
    y="-0.029536012"
    height="1.059072">
   <feGaussianBlur
     stdDeviation="3.9544569e-10"
     id="feGaussianBlur4603" />
  </filter>
  <linearGradient
    xlink:href="#2"
    id="1"
    y1="543.79797"
    x2="0"
    y2="503.798"
    gradientUnits="userSpaceOnUse"
    gradientTransform="matrix(1.1250015,0,0,1,-435.6434,-499.798)" />
  <linearGradient
    id="2">
   <stop
     stop-color="#426467"
     id="stop54020" />
   <stop
     offset="1"
     stop-color="#525b58"
     id="stop54022" />
  </linearGradient>
  <linearGradient
    xlink:href="#linearGradient4193"
    id="linearGradient4199"
    x1="14"
    y1="21"
    x2="14"
    y2="4"
    gradientUnits="userSpaceOnUse"
    gradientTransform="translate(-1.99999)" />
  <linearGradient
    id="linearGradient4193">
   <stop
     style="stop-color:#ffa92d;stop-opacity:1;"
     offset="0"
     id="stop54009" />
   <stop
     style="stop-color:#ffdaa5;stop-opacity:1"
     offset="1"
     id="stop54011" />
  </linearGradient>
  <linearGradient
    xlink:href="#0"
    id="5"
    y1="527.79797"
    x2="0"
    y2="504.798"
    gradientUnits="userSpaceOnUse"
    gradientTransform="translate(-384.57143,-499.79799)" />
  <linearGradient
    id="0">
   <stop
     stop-color="#ffffff"
     id="stop54014" />
   <stop
     offset="1"
     stop-color="#ffffff"
     stop-opacity="0"
     id="stop54016" />
  </linearGradient>
  <linearGradient
    xlink:href="#6"
    id="7"
    x1="404.57101"
    y1="517.79797"
    x2="424.57101"
    y2="537.79797"
    gradientUnits="userSpaceOnUse"
    gradientTransform="translate(-384.57143,-499.798)" />
  <linearGradient
    id="6"
    y1="-0.88300002"
    x1="-41.259998"
    y2="37.956001"
    x2="-2.994"
    gradientUnits="userSpaceOnUse"
    gradientTransform="translate(-1.01,-1.022)">
   <stop
     stop-color="#21c9fb"
     id="stop54026" />
   <stop
     offset="1"
     stop-color="#1a86f2"
     id="stop54028" />
  </linearGradient>
  <linearGradient
    id="b"
    y1="4"
    x1="8"
    y2="18"
    gradientUnits="userSpaceOnUse"
    x2="22">
   <stop
     stop-color="#292c2f"
     id="stop54033" />
   <stop
     offset="1"
     stop-opacity="0"
     id="stop54035" />
  </linearGradient>
 </defs>
 <g
   id="g885"
   transform="matrix(1.0228886,0,0,1.0564197,2.4393496,-1.7407513)">
  <rect
    style="fill:url(#1)"
    rx="0"
    y="4"
    x="6"
    height="40"
    width="36"
    id="rect54040" />
  <path
    style="fill:url(#linearGradient4199);fill-opacity:1"
    d="M 8,4 V 21 L 12,18.69141 16,21 V 4 Z"
    id="path54050" />
  <path
    style="opacity:0.15;fill:url(#5)"
    d="m 9.00001,4 h 6 v 15 l -3,-2 -3,2 z"
    id="path54052" />
  <path
    style="fill:url(#7)"
    d="m 27.21875,18.46875 c -4.44881,0 -8.029297,3.58244 -8.029297,8.03125 0,4.44881 3.580487,8.03125 8.029297,8.03125 1.901607,0 3.642902,-0.659091 5.015625,-1.755859 l 7.107422,7.109375 1.261719,-1.261719 -7.107422,-7.109375 C 34.592399,30.141097 35.25,28.401162 35.25,26.5 c 0,-4.44881 -3.58244,-8.03125 -8.03125,-8.03125 z m 0,1.785156 c 3.46019,0 6.246094,2.785904 6.246094,6.246094 0,3.46019 -2.785904,6.246094 -6.246094,6.246094 -3.46019,0 -6.244141,-2.785904 -6.244141,-6.246094 0,-3.46019 2.783951,-6.246094 6.244141,-6.246094 z"
    id="path54054" />
  <path
    style="opacity:0.2;fill:url(#b);fill-rule:evenodd"
    d="M 16,4 V 21 L 12,18.691 8,21 31,44 H 42 V 30 Z"
    id="path54056" />
 </g>
 <path
   style="display:inline;mix-blend-mode:normal;fill:url(#linearGradient3403);fill-opacity:1;stroke:url(#linearGradient20558);stroke-width:1.16242;stroke-linecap:butt;stroke-linejoin:round;stroke-miterlimit:4;stroke-dasharray:none;stroke-opacity:1"
   d="M 4.7043071,3.9814882 4.6913695,60.80196 H 58.59546 l 1.022155,-2.866369 c 0,0 -23.87537,0.766388 -32.844441,-4.140386 C 16.257548,48.042344 11.401114,4.0978197 11.401114,4.0978197 Z"
   id="path1686"
   transform="matrix(0.7518797,0,0,0.7518797,0.09970467,0.02488636)" />
 <rect
   style="display:inline;fill:none;fill-opacity:1;stroke:url(#linearGradient4557);stroke-width:3.71366;stroke-linejoin:round;stroke-miterlimit:7.8;stroke-dasharray:none;stroke-opacity:0.995146"
   id="rect4539"
   width="62.566689"
   height="62.866646"
   x="1.0323594"
   y="0.59551275"
   ry="6.2447233"
   rx="5.8029528"
   transform="matrix(0.70434793,0,0,0.70291231,1.3629847,1.5442064)" />
</svg>
