<?xml version="1.0" encoding="UTF-8" standalone="no"?>
<!-- Created with Inkscape (http://www.inkscape.org/) -->

<svg
  width="48"
  height="48"
  version="1.1"
  viewBox="0 0 48 48"
  id="svg22"
  xmlns:xlink="http://www.w3.org/1999/xlink"
  xmlns="http://www.w3.org/2000/svg"
  xmlns:svg="http://www.w3.org/2000/svg">
 <defs
   id="defs12">
  <linearGradient
    id="linearGradient1005-3-3"
    x1="5.2535"
    x2="9.3823996"
    y1="15.383"
    y2="2.9421"
    gradientTransform="matrix(0.99999,0,0,0.99999,1.632,-0.61743)"
    gradientUnits="userSpaceOnUse">
   <stop
     stop-color="#fa8200"
     offset="0"
     id="stop2" />
   <stop
     stop-color="#ff9600"
     offset=".36953"
     id="stop4" />
   <stop
     stop-color="#ffb400"
     offset="1"
     id="stop6" />
  </linearGradient>
  <filter
    id="filter4014"
    x="-0.062499932"
    y="-0.057692992"
    width="1.1249999"
    height="1.115386"
    color-interpolation-filters="sRGB">
   <feGaussianBlur
     stdDeviation="1.093751"
     id="feGaussianBlur9" />
  </filter>
  <linearGradient
    xlink:href="#linearGradient3487"
    id="linearGradient3403"
    gradientUnits="userSpaceOnUse"
    x1="6.9491749"
    y1="4.5549412"
    x2="11.215498"
    y2="59.052471" />
  <linearGradient
    id="linearGradient3487">
   <stop
     style="stop-color:#32373c;stop-opacity:1"
     offset="0"
     id="stop3481" />
   <stop
     id="stop3483"
     offset="0.36804965"
     style="stop-color:#1a1a1a;stop-opacity:1" />
   <stop
     style="stop-color:#31363b;stop-opacity:1"
     offset="1"
     id="stop3485" />
  </linearGradient>
  <linearGradient
    xlink:href="#linearGradient20604"
    id="linearGradient20558"
    gradientUnits="userSpaceOnUse"
    x1="25.802212"
    y1="20.373846"
    x2="25.111048"
    y2="58.912758" />
  <linearGradient
    id="linearGradient20604">
   <stop
     id="stop20598"
     offset="0"
     style="stop-color:#3d3d3d;stop-opacity:1" />
   <stop
     style="stop-color:#000000;stop-opacity:1"
     offset="0.61772454"
     id="stop20600" />
   <stop
     id="stop20602"
     offset="1"
     style="stop-color:#3d3d3d;stop-opacity:1" />
  </linearGradient>
  <linearGradient
    gradientTransform="translate(0.36067797,-0.13016949)"
    xlink:href="#linearGradient4555"
    id="linearGradient4557"
    x1="43.499737"
    y1="64.011795"
    x2="44.141731"
    y2="0.30621234"
    gradientUnits="userSpaceOnUse" />
  <linearGradient
    id="linearGradient4555">
   <stop
     style="stop-color:#141618;stop-opacity:1"
     offset="0"
     id="stop4551" />
   <stop
     id="stop4559"
     offset="0.51820582"
     style="stop-color:#686868;stop-opacity:1" />
   <stop
     style="stop-color:#31363b;stop-opacity:1"
     offset="1"
     id="stop4553" />
  </linearGradient>
  <filter
    style="color-interpolation-filters:sRGB"
    id="filter4601"
    x="-0.029678042"
    width="1.0593561"
    y="-0.029536438"
    height="1.0590729">
   <feGaussianBlur
     stdDeviation="1.1161059e-05"
     id="feGaussianBlur4603" />
  </filter>
  <linearGradient
    id="b"
    y1="543.79999"
    y2="503.79999"
    x2="0"
    gradientUnits="userSpaceOnUse"
    gradientTransform="matrix(1.15625,0,0,1,-63.34,0)">
   <stop
     stop-color="#bd8d48"
     id="stop48841" />
   <stop
     offset="1"
     stop-color="#e8b971"
     id="stop48843" />
  </linearGradient>
  <linearGradient
    id="a"
    y1="543.79999"
    y2="503.79999"
    x1="434.57001"
    gradientUnits="userSpaceOnUse"
    x2="384.57001"
    gradientTransform="matrix(0.6875,0,0,0.9,128.18,52.38)">
   <stop
     stop-color="#343b40"
     id="stop48836" />
   <stop
     offset="1"
     stop-color="#555e63"
     id="stop48838" />
  </linearGradient>
  <linearGradient
    id="c"
    y1="17.139999"
    y2="33.139999"
    x1="37.581001"
    gradientUnits="userSpaceOnUse"
    x2="53.580002"
    gradientTransform="translate(362.99,498.66)">
   <stop
     stop-color="#383e51"
     id="stop48846" />
   <stop
     offset="1"
     stop-color="#655c6f"
     stop-opacity="0"
     id="stop48848" />
  </linearGradient>
 </defs>
 <g
   transform="matrix(1.0538881,0,0,1.0196718,-404.12009,-510.88376)"
   id="g48869">
  <rect
    style="fill:url(#b)"
    width="37"
    x="390.57001"
    y="503.79999"
    rx="0"
    height="40"
    id="rect48853" />
  <rect
    style="fill:url(#a)"
    width="33"
    x="392.57001"
    y="505.79999"
    height="36"
    id="rect48855" />
  <path
    style="fill:#aa7f41"
    d="m 392.57,505.8 v 36 h 33 v -36 z m 1,1 h 31 v 34 h -31 z"
    id="path48857" />
  <g
    style="color:#000000"
    id="g48863">
   <rect
     style="fill:#ffffff"
     width="4"
     x="418.57001"
     y="539.79999"
     height="1"
     id="rect48859" />
   <rect
     style="fill:#007ad9"
     width="4"
     x="413.57001"
     y="539.79999"
     height="1"
     id="rect48861" />
  </g>
  <path
    style="opacity:0.2;fill:url(#c);fill-rule:evenodd"
    d="m 416.57,518.8 -1,2 v -1 h -7 l -4,7 h -1 l -1,-2 h -2 l 5,5 h -5 l 14,14 h 9.99 c 0.006,0 0.01,-3.568 0.01,-8 v -9 z"
    id="path48865" />
  <path
    style="fill:#d6d6d6"
    d="m 416.57,518.8 -8,0.004 -4.441,7.691 -1.555,-2.695 h -2 v 1 h 1.428 l 2.133,3.693 5.02,-8.693 h 6.42 v 1 h 1 z m -5,3 c -1.662,0 -3,1.338 -3,3 0,1.662 1.338,3 3,3 0.773,0 1.469,-0.298 2,-0.775 v 0.775 h 1 v -6 h -1 v 0.775 c -0.531,-0.477 -1.227,-0.775 -2,-0.775 m 0,1 c 1.108,0 2,0.892 2,2 0,1.108 -0.892,2 -2,2 -1.108,0 -2,-0.892 -2,-2 0,-1.108 0.892,-2 2,-2 m -10.99,5.99 c -0.006,0 -0.01,0.223 -0.01,0.5 0,0.277 0.004,0.5 0.01,0.5 h 15.98 c 0.006,0 0.01,-0.223 0.01,-0.5 0,-0.277 -0.004,-0.5 -0.01,-0.5 z m 7,2 c -0.006,0 -0.01,0.223 -0.01,0.5 0,0.277 0.004,0.5 0.01,0.5 h 1.98 c 0.006,0 0.01,-0.223 0.01,-0.5 0,-0.277 -0.004,-0.5 -0.01,-0.5 z"
    id="path48867" />
 </g>
 <path
   style="display:inline;mix-blend-mode:normal;fill:url(#linearGradient3403);fill-opacity:1;stroke:url(#linearGradient20558);stroke-width:1.16242;stroke-linecap:butt;stroke-linejoin:round;stroke-miterlimit:4;stroke-dasharray:none;stroke-opacity:1"
   d="M 4.7043071,3.9814882 4.6913695,60.80196 H 58.59546 l 1.022155,-2.866369 c 0,0 -23.87537,0.766388 -32.844441,-4.140386 C 16.257548,48.042344 11.401114,4.0978197 11.401114,4.0978197 Z"
   id="path1686"
   transform="matrix(0.7518797,0,0,0.7518797,0.09970467,0.02488636)" />
 <rect
   style="display:inline;fill:none;fill-opacity:1;stroke:url(#linearGradient4557);stroke-width:3.71366;stroke-linejoin:round;stroke-miterlimit:7.8;stroke-dasharray:none;stroke-opacity:0.995146"
   id="rect4539"
   width="62.566689"
   height="62.866646"
   x="1.0323594"
   y="0.59551275"
   ry="6.2447233"
   rx="5.8029528"
   transform="matrix(0.70434793,0,0,0.70291231,1.3629847,1.5442064)" />
</svg>
