<?xml version="1.0" encoding="UTF-8" standalone="no"?>
<!-- Created with Inkscape (http://www.inkscape.org/) -->

<svg
  width="48"
  height="48"
  version="1.1"
  viewBox="0 0 48 48"
  id="svg22"
  xmlns:xlink="http://www.w3.org/1999/xlink"
  xmlns="http://www.w3.org/2000/svg"
  xmlns:svg="http://www.w3.org/2000/svg">
 <defs
   id="defs12">
  <linearGradient
    id="linearGradient1005-3-3"
    x1="5.2535"
    x2="9.3823996"
    y1="15.383"
    y2="2.9421"
    gradientTransform="matrix(0.99999,0,0,0.99999,1.632,-0.61743)"
    gradientUnits="userSpaceOnUse">
   <stop
     stop-color="#fa8200"
     offset="0"
     id="stop2" />
   <stop
     stop-color="#ff9600"
     offset=".36953"
     id="stop4" />
   <stop
     stop-color="#ffb400"
     offset="1"
     id="stop6" />
  </linearGradient>
  <filter
    id="filter4014"
    x="-0.062499932"
    y="-0.057692992"
    width="1.1249999"
    height="1.115386"
    color-interpolation-filters="sRGB">
   <feGaussianBlur
     stdDeviation="1.093751"
     id="feGaussianBlur9" />
  </filter>
  <linearGradient
    xlink:href="#linearGradient3487"
    id="linearGradient3403"
    gradientUnits="userSpaceOnUse"
    x1="6.9491749"
    y1="4.5549412"
    x2="11.215498"
    y2="59.052471" />
  <linearGradient
    id="linearGradient3487">
   <stop
     style="stop-color:#32373c;stop-opacity:1"
     offset="0"
     id="stop3481" />
   <stop
     id="stop3483"
     offset="0.36804965"
     style="stop-color:#1a1a1a;stop-opacity:1" />
   <stop
     style="stop-color:#31363b;stop-opacity:1"
     offset="1"
     id="stop3485" />
  </linearGradient>
  <linearGradient
    xlink:href="#linearGradient20604"
    id="linearGradient20558"
    gradientUnits="userSpaceOnUse"
    x1="25.802212"
    y1="20.373846"
    x2="25.111048"
    y2="58.912758" />
  <linearGradient
    id="linearGradient20604">
   <stop
     id="stop20598"
     offset="0"
     style="stop-color:#3d3d3d;stop-opacity:1" />
   <stop
     style="stop-color:#000000;stop-opacity:1"
     offset="0.61772454"
     id="stop20600" />
   <stop
     id="stop20602"
     offset="1"
     style="stop-color:#3d3d3d;stop-opacity:1" />
  </linearGradient>
  <filter
    style="color-interpolation-filters:sRGB"
    id="filter20720"
    x="-0.010581647"
    y="-0.010228868"
    width="1.0211628"
    height="1.0204578">
   <feGaussianBlur
     stdDeviation="5.1649535e-08"
     id="feGaussianBlur20722" />
  </filter>
  <linearGradient
    gradientTransform="translate(0.36067797,-0.13016949)"
    xlink:href="#linearGradient4555"
    id="linearGradient4557"
    x1="43.499737"
    y1="64.011795"
    x2="44.141731"
    y2="0.30621234"
    gradientUnits="userSpaceOnUse" />
  <linearGradient
    id="linearGradient4555">
   <stop
     style="stop-color:#141618;stop-opacity:1"
     offset="0"
     id="stop4551" />
   <stop
     id="stop4559"
     offset="0.51820582"
     style="stop-color:#686868;stop-opacity:1" />
   <stop
     style="stop-color:#31363b;stop-opacity:1"
     offset="1"
     id="stop4553" />
  </linearGradient>
  <filter
    style="color-interpolation-filters:sRGB"
    id="filter4601"
    x="-0.029677426"
    width="1.0593549"
    y="-0.029536014"
    height="1.059072">
   <feGaussianBlur
     stdDeviation="5.5191295e-08"
     id="feGaussianBlur4603" />
  </filter>
  <linearGradient
    id="c"
    y1="523.79999"
    x1="403.57001"
    y2="536.79999"
    x2="416.57001"
    gradientUnits="userSpaceOnUse"
    gradientTransform="translate(-382.3618,-501.38052)">
   <stop
     stop-color="#292c2f"
     id="stop2-1" />
   <stop
     offset="1"
     stop-opacity="0"
     id="stop4-7" />
  </linearGradient>
  <linearGradient
    xlink:href="#b-2"
    id="linearGradient4189"
    x1="14.369"
    y1="22.521999"
    x2="26.521999"
    y2="22.521999"
    gradientUnits="userSpaceOnUse" />
  <linearGradient
    x1="36"
    gradientUnits="userSpaceOnUse"
    x2="14"
    y2="12"
    y1="44"
    id="b-2">
   <stop
     style="stop-color:#bfc9c9;stop-opacity:1"
     stop-color="#536161"
     id="stop13" />
   <stop
     style="stop-color:#fbfbfb;stop-opacity:1"
     stop-color="#f4f5f5"
     offset="1"
     id="stop15" />
  </linearGradient>
  <linearGradient
    xlink:href="#b-2"
    id="linearGradient4428"
    gradientUnits="userSpaceOnUse"
    x1="31.586"
    y1="36.345001"
    x2="1.2029999"
    y2="6.723" />
 </defs>
 <rect
   style="display:inline;fill:#2071c5;fill-opacity:1;fill-rule:evenodd;stroke:none;stroke-width:0.92782;stroke-linejoin:round;stroke-miterlimit:7.8"
   id="rect1192"
   width="42.084602"
   height="42.712109"
   x="3.1629105"
   y="3.0184898"
   ry="0" />
 <g
   id="g4"
   transform="matrix(1.037269,0,0,1.037269,3.5854512,0.17247643)">
  <path
    style="opacity:0.2"
    d="m 23.5,10 a 1.5,1.5 0 0 0 -0.306641,0.0332 C 15.285686,10.453945 9,16.98745 9,25 c 0,8.284271 6.715729,15 15,15 8.009812,0 14.542017,-6.281684 14.966797,-14.185547 A 1.5,1.5 0 0 0 39,25.5 1.5,1.5 0 0 0 37.5,24 1.5,1.5 0 0 0 36.001953,25.46875 c -0.0012,0.0044 -0.01153,0.005 -0.01172,0.0098 C 35.739431,31.884468 30.467419,37 24,37 17.372583,37 12,31.627417 12,25 c 0,-6.463024 5.10992,-11.732783 11.509766,-11.990234 0.0037,-1.47e-4 0.0062,-0.0089 0.0098,-0.0098 A 1.5,1.5 0 0 0 25,11.5 1.5,1.5 0 0 0 23.5,10 Z m 0,6 a 1.5,1.5 0 0 0 -0.400391,0.05469 c -6.45e-4,6.4e-5 -0.0013,-6.5e-5 -0.002,0 C 18.552411,16.508892 15,20.335146 15,25 c 0,4.970563 4.029437,9 9,9 4.667117,0 8.494171,-3.5551 8.945312,-8.103516 A 1.5,1.5 0 0 0 33,25.5 1.5,1.5 0 0 0 31.5,24 1.5,1.5 0 0 0 30.003906,25.425781 c -0.0056,0.0115 -0.02051,0.02029 -0.02148,0.0332 C 29.747995,28.558266 27.159293,31 24,31 c -3.313708,0 -6,-2.686292 -6,-6 0,-3.179334 2.472344,-5.780548 5.599609,-5.986328 0.0096,-6.3e-4 0.01506,-0.01503 0.02344,-0.01953 A 1.5,1.5 0 0 0 25,17.5 1.5,1.5 0 0 0 23.5,16 Z m 0.5,6 a 3,3 0 0 0 -3,3 3,3 0 0 0 3,3 3,3 0 0 0 3,-3 3,3 0 0 0 -3,-3 z"
    id="path2" />
  <path
    style="fill:#ffffff"
    d="M 23.5,9 A 1.5,1.5 0 0 0 23.193359,9.033203 C 15.285686,9.4539452 9,15.98745 9,24 c 0,8.284271 6.715729,15 15,15 8.009812,0 14.542017,-6.281684 14.966797,-14.185547 A 1.5,1.5 0 0 0 39,24.5 1.5,1.5 0 0 0 37.5,23 1.5,1.5 0 0 0 36.001953,24.46875 c -0.0012,0.0044 -0.01153,0.005 -0.01172,0.0098 C 35.739431,30.884468 30.467419,36 24,36 17.372583,36 12,30.627417 12,24 c 0,-6.463024 5.10992,-11.732783 11.509766,-11.990234 0.0037,-1.47e-4 0.0062,-0.0089 0.0098,-0.0098 A 1.5,1.5 0 0 0 25,10.5 1.5,1.5 0 0 0 23.5,9 Z m 0,6 a 1.5,1.5 0 0 0 -0.400391,0.05469 c -6.45e-4,6.4e-5 -0.0013,-6.5e-5 -0.002,0 C 18.552411,15.508892 15,19.335146 15,24 c 0,4.970563 4.029437,9 9,9 4.667117,0 8.494171,-3.5551 8.945312,-8.103516 A 1.5,1.5 0 0 0 33,24.5 1.5,1.5 0 0 0 31.5,23 1.5,1.5 0 0 0 30.003906,24.425781 c -0.0056,0.0115 -0.02051,0.02029 -0.02148,0.0332 C 29.747995,27.558266 27.159293,30 24,30 c -3.313708,0 -6,-2.686292 -6,-6 0,-3.179334 2.472344,-5.780548 5.599609,-5.986328 0.0096,-6.3e-4 0.01506,-0.01503 0.02344,-0.01953 A 1.5,1.5 0 0 0 25,16.5 1.5,1.5 0 0 0 23.5,15 Z m 0.5,6 a 3,3 0 0 0 -3,3 3,3 0 0 0 3,3 3,3 0 0 0 3,-3 3,3 0 0 0 -3,-3 z"
    id="path3" />
 </g>
 <path
   style="display:inline;mix-blend-mode:normal;fill:url(#linearGradient3403);fill-opacity:1;stroke:url(#linearGradient20558);stroke-width:1.16242;stroke-linecap:butt;stroke-linejoin:round;stroke-miterlimit:4;stroke-dasharray:none;stroke-opacity:1"
   d="M 4.7043071,3.9814882 4.6913695,60.80196 H 58.59546 l 1.022155,-2.866369 c 0,0 -23.87537,0.766388 -32.844441,-4.140386 C 16.257548,48.042344 11.401114,4.0978197 11.401114,4.0978197 Z"
   id="path1686"
   transform="matrix(0.7518797,0,0,0.7518797,0.09970467,0.02488636)" />
 <rect
   style="display:inline;fill:none;fill-opacity:1;stroke:url(#linearGradient4557);stroke-width:3.71366;stroke-linejoin:round;stroke-miterlimit:7.8;stroke-dasharray:none;stroke-opacity:0.995146"
   id="rect4539"
   width="62.567089"
   height="62.866646"
   x="1.0323594"
   y="0.59551275"
   ry="6.2447233"
   rx="5.8029528"
   transform="matrix(0.70434793,0,0,0.70291231,1.3629847,1.5442064)" />
</svg>
