<?xml version="1.0" encoding="UTF-8" standalone="no"?>
<!-- Created with Inkscape (http://www.inkscape.org/) -->

<svg
  width="48"
  height="48"
  version="1.1"
  viewBox="0 0 48 48"
  id="svg22"
  xml:space="preserve"
  xmlns:xlink="http://www.w3.org/1999/xlink"
  xmlns="http://www.w3.org/2000/svg"
  xmlns:svg="http://www.w3.org/2000/svg"><defs
   id="defs12"><linearGradient
    id="linearGradient917"><stop
     style="stop-color:#a75b8a;stop-opacity:1;"
     offset="0"
     id="stop913" /><stop
     style="stop-color:#23adcc;stop-opacity:1;"
     offset="1"
     id="stop915" /></linearGradient><linearGradient
    xlink:href="#linearGradient3487"
    id="linearGradient3403"
    gradientUnits="userSpaceOnUse"
    x1="6.9491749"
    y1="4.5549412"
    x2="11.215498"
    y2="59.052471" /><linearGradient
    id="linearGradient3487"><stop
     style="stop-color:#32373c;stop-opacity:1"
     offset="0"
     id="stop3481" /><stop
     id="stop3483"
     offset="0.36804965"
     style="stop-color:#1a1a1a;stop-opacity:1" /><stop
     style="stop-color:#31363b;stop-opacity:1"
     offset="1"
     id="stop3485" /></linearGradient><linearGradient
    xlink:href="#linearGradient20604"
    id="linearGradient20558"
    gradientUnits="userSpaceOnUse"
    x1="25.802212"
    y1="20.373846"
    x2="25.111048"
    y2="58.912758" /><linearGradient
    id="linearGradient20604"><stop
     id="stop20598"
     offset="0"
     style="stop-color:#3d3d3d;stop-opacity:1" /><stop
     style="stop-color:#000000;stop-opacity:1"
     offset="0.61772454"
     id="stop20600" /><stop
     id="stop20602"
     offset="1"
     style="stop-color:#3d3d3d;stop-opacity:1" /></linearGradient><filter
    style="color-interpolation-filters:sRGB"
    id="filter20720"
    x="-0.010614263"
    y="-0.010260398"
    width="1.0212281"
    height="1.0205208"><feGaussianBlur
     stdDeviation="0.00074651049"
     id="feGaussianBlur20722" /></filter><linearGradient
    gradientTransform="translate(0.36067797,-0.13016949)"
    xlink:href="#linearGradient4555"
    id="linearGradient4557"
    x1="43.499737"
    y1="64.011795"
    x2="44.141731"
    y2="0.30621234"
    gradientUnits="userSpaceOnUse" /><linearGradient
    id="linearGradient4555"><stop
     style="stop-color:#141618;stop-opacity:1"
     offset="0"
     id="stop4551" /><stop
     id="stop4559"
     offset="0.51820582"
     style="stop-color:#686868;stop-opacity:1" /><stop
     style="stop-color:#31363b;stop-opacity:1"
     offset="1"
     id="stop4553" /></linearGradient><filter
    style="color-interpolation-filters:sRGB"
    id="filter4601"
    x="-0.029708022"
    width="1.059416"
    y="-0.029566465"
    height="1.0591329"><feGaussianBlur
     stdDeviation="0.0007977009"
     id="feGaussianBlur4603" /></filter><linearGradient
    xlink:href="#linearGradient917"
    id="linearGradient919"
    x1="33.575405"
    y1="38.850441"
    x2="33.082706"
    y2="3.9169106"
    gradientUnits="userSpaceOnUse"
    gradientTransform="matrix(0.99750307,0,0,0.99749684,-0.14470594,-0.01093683)" /></defs><rect
   style="display:inline;fill:url(#linearGradient919);fill-opacity:1;fill-rule:evenodd;stroke:none;stroke-width:0.9255;stroke-linejoin:round;stroke-miterlimit:7.8"
   id="rect1192"
   width="41.979519"
   height="42.605194"
   x="3.0103071"
   y="2.9999974"
   ry="0" /><path
   style="display:inline;opacity:1;fill:#c01f61;fill-opacity:1;stroke-width:0.339"
   d="M 24.000068,24.661294 38.709265,46.499862 H 24.000068 Z"
   id="path2" /><path
   style="display:inline;opacity:1;fill:#ea277f;fill-opacity:1;stroke-width:0.339"
   d="M 32.388895,37.116085 37.945512,29.114832 37.50011,44.704645 34.594231,40.390321 Z"
   id="path3" /><path
   style="display:inline;opacity:1;fill:#ea277f;fill-opacity:1;stroke-width:0.339"
   d="M 6.3448442,41.464485 24.000068,24.661294 V 46.499862 H 6.3448442 Z"
   id="path1" /><path
   style="display:inline;opacity:1;fill:#c01f61;fill-opacity:1;stroke-width:0.339"
   d="M 37.945512,29.114832 46.043864,41.179247 44.1887,46.499862 H 38.709265 L 37.50011,44.704645 Z"
   id="path4" /><path
   style="display:inline;mix-blend-mode:normal;fill:url(#linearGradient3403);fill-opacity:1;stroke:url(#linearGradient20558);stroke-width:1.16242;stroke-linecap:butt;stroke-linejoin:round;stroke-miterlimit:4;stroke-dasharray:none;stroke-opacity:1"
   d="M 4.7043071,3.9814882 4.6913695,60.80196 H 58.59546 l 1.022155,-2.866369 c 0,0 -23.87537,0.766388 -32.844441,-4.140386 C 16.257548,48.042344 11.401114,4.0978197 11.401114,4.0978197 Z"
   id="path1686"
   transform="matrix(0.75000232,0,0,0.74999767,0.09944865,0.02483109)" /><path
   id="path5"
   style="display:inline;opacity:1;fill:#5f5555;fill-opacity:0.385714;stroke-width:0.339"
   d="m 19.500054,14.571325 7.500024,16.273333 3.000008,-6.849802 3.548771,6.891932 7.515446,-16.631793 -11.430694,4.259974 -0.943793,-2.015013 h 4.710273 l 0.904596,-2.029048 z m 2.535894,1.928631 h 4.725934 l 2.427842,5.18348 -2.189646,5.316487 z m 15.976031,0.781741 -4.448039,9.718226 -1.760955,-3.853298 -1.444819,-3.084716 z" /><path
   id="path5-5"
   style="display:inline;fill:#f6e5e8;fill-opacity:1;stroke-width:0.339"
   d="m 19.500054,14.251976 7.500024,16.273333 3.000008,-6.849801 3.548771,6.891931 7.515446,-16.631792 -11.430694,4.259973 -0.943793,-2.015013 h 4.710273 l 0.904596,-2.029048 z m 2.535894,1.928631 h 4.725934 l 2.427842,5.18348 -2.189646,5.316488 z m 15.976031,0.781741 -4.448039,9.718227 -1.760955,-3.8533 -1.444819,-3.084714 z" /><rect
   style="display:inline;fill:none;fill-opacity:1;stroke:url(#linearGradient4557);stroke-width:3.71366;stroke-linejoin:round;stroke-miterlimit:7.8;stroke-dasharray:none;stroke-opacity:0.995146"
   id="rect4539"
   width="62.567089"
   height="62.866646"
   x="1.0323594"
   y="0.59551275"
   ry="6.2447233"
   rx="5.8029528"
   transform="matrix(0.70258924,0,0,0.70115283,1.3595743,1.540348)" /></svg>
