<?xml version="1.0" encoding="UTF-8" standalone="no"?>
<!-- Created with Inkscape (http://www.inkscape.org/) -->

<svg
  width="48"
  height="48"
  version="1.1"
  viewBox="0 0 48 48"
  id="svg22"
  xmlns:xlink="http://www.w3.org/1999/xlink"
  xmlns="http://www.w3.org/2000/svg"
  xmlns:svg="http://www.w3.org/2000/svg">
 <defs
   id="defs12">
  <linearGradient
    xlink:href="#linearGradient3487"
    id="linearGradient3403"
    gradientUnits="userSpaceOnUse"
    x1="6.9491749"
    y1="4.5549412"
    x2="11.215498"
    y2="59.052471" />
  <linearGradient
    id="linearGradient3487">
   <stop
     style="stop-color:#32373c;stop-opacity:1"
     offset="0"
     id="stop3481" />
   <stop
     id="stop3483"
     offset="0.36804965"
     style="stop-color:#1a1a1a;stop-opacity:1" />
   <stop
     style="stop-color:#31363b;stop-opacity:1"
     offset="1"
     id="stop3485" />
  </linearGradient>
  <linearGradient
    xlink:href="#linearGradient20604"
    id="linearGradient20558"
    gradientUnits="userSpaceOnUse"
    x1="25.802212"
    y1="20.373846"
    x2="25.111048"
    y2="58.912758" />
  <linearGradient
    id="linearGradient20604">
   <stop
     id="stop20598"
     offset="0"
     style="stop-color:#3d3d3d;stop-opacity:1" />
   <stop
     style="stop-color:#000000;stop-opacity:1"
     offset="0.61772454"
     id="stop20600" />
   <stop
     id="stop20602"
     offset="1"
     style="stop-color:#3d3d3d;stop-opacity:1" />
  </linearGradient>
  <filter
    style="color-interpolation-filters:sRGB"
    id="filter20720"
    x="-0.010584152"
    y="-0.01023129"
    width="1.0211678"
    height="1.0204626">
   <feGaussianBlur
     stdDeviation="5.7388189e-05"
     id="feGaussianBlur20722" />
  </filter>
  <linearGradient
    gradientTransform="translate(0.36067797,-0.13016949)"
    xlink:href="#linearGradient4555"
    id="linearGradient4557"
    x1="43.499737"
    y1="64.011795"
    x2="44.141731"
    y2="0.30621234"
    gradientUnits="userSpaceOnUse" />
  <linearGradient
    id="linearGradient4555">
   <stop
     style="stop-color:#141618;stop-opacity:1"
     offset="0"
     id="stop4551" />
   <stop
     id="stop4559"
     offset="0.51820582"
     style="stop-color:#686868;stop-opacity:1" />
   <stop
     style="stop-color:#31363b;stop-opacity:1"
     offset="1"
     id="stop4553" />
  </linearGradient>
  <filter
    style="color-interpolation-filters:sRGB"
    id="filter4601"
    x="-0.029679966"
    width="1.0593599"
    y="-0.029538353"
    height="1.0590767">
   <feGaussianBlur
     stdDeviation="6.1323465e-05"
     id="feGaussianBlur4603" />
  </filter>
 </defs>
 <rect
   style="display:inline;fill:#4c566a;fill-opacity:0.992157;fill-rule:evenodd;stroke:none;stroke-width:0.925355;stroke-linejoin:round;stroke-miterlimit:7.8"
   id="rect1192"
   width="41.97274"
   height="42.598579"
   x="3.1565161"
   y="3.0121481"
   ry="0" />
 <path
   style="display:inline;mix-blend-mode:normal;fill:url(#linearGradient3403);fill-opacity:1;stroke:url(#linearGradient20558);stroke-width:1.16242;stroke-linecap:butt;stroke-linejoin:round;stroke-miterlimit:4;stroke-dasharray:none;stroke-opacity:1"
   d="M 4.7043071,3.9814882 4.6913695,60.80196 H 58.59546 l 1.022155,-2.866369 c 0,0 -23.87537,0.766388 -32.844441,-4.140386 C 16.257548,48.042344 11.401114,4.0978197 11.401114,4.0978197 Z"
   id="path1686"
   transform="matrix(0.74988117,0,0,0.74988117,0.10145249,0.02650183)" />
 <rect
   style="display:inline;fill:none;fill-opacity:1;stroke:url(#linearGradient4557);stroke-width:3.71366;stroke-linejoin:round;stroke-miterlimit:7.8;stroke-dasharray:none;stroke-opacity:0.995146"
   id="rect4539"
   width="62.566689"
   height="62.866646"
   x="1.0323594"
   y="0.59551275"
   ry="6.2447233"
   rx="5.8029528"
   transform="matrix(0.70247575,0,0,0.70104394,1.3613747,1.5417835)" />
 <g
   id="g904"
   transform="matrix(0.95180261,0,0,0.9510101,5.4287383,0.22174831)">
  <path
    style="fill:#ffffff;fill-opacity:1;stroke:none;stroke-width:0.2;stroke-linecap:round;stroke-linejoin:round;stroke-miterlimit:4;stroke-dasharray:none;stroke-dashoffset:0;stroke-opacity:1;paint-order:fill markers stroke"
    d="m 14.469026,19.965283 a 4.1707315,4.1707315 0 0 0 -4.048828,3.191406 c -0.765326,0.49973 -1.2714839,1.35963 -1.2714839,2.345703 0,1.55367 1.2510179,2.804688 2.8046869,2.804688 h 2.515625 3.091797 c 1.55367,0 2.804688,-1.251018 2.804688,-2.804688 0,-1.24736 -0.811696,-2.287919 -1.933594,-2.654296 a 4.1707315,4.1707315 0 0 0 -3.962891,-2.882813 z"
    id="rect4529" />
  <text
    xml:space="preserve"
    style="font-style:normal;font-variant:normal;font-weight:bold;font-stretch:condensed;font-size:13.632px;line-height:0%;font-family:'Roboto Condensed';-inkscape-font-specification:'Roboto Condensed, Bold Condensed';letter-spacing:0px;word-spacing:0px;fill:#ffffff;fill-opacity:1;stroke:none;stroke-width:0.331763"
    x="16.690565"
    y="18.346107"
    id="text4536"
    transform="scale(1.135989,0.88029021)"><tspan
     id="tspan4534"
     x="16.690565"
     y="18.346107"
     style="font-size:13.2706px;line-height:1.25;fill:#ffffff;fill-opacity:1;stroke-width:0.331763">@</tspan></text>
  <path
    style="fill:#ffffff;fill-opacity:1;fill-rule:nonzero;stroke:none;stroke-width:0.833206;stroke-linecap:square;stroke-linejoin:miter;stroke-miterlimit:4;stroke-dasharray:none;stroke-dashoffset:0;stroke-opacity:1"
    d="m 34.36057,20.808227 c -0.461596,0 -0.833206,0.371609 -0.833206,0.833206 v 3.557398 a 1.6664119,1.6664119 0 0 0 -0.833206,-0.224575 1.6664119,1.6664119 0 0 0 -1.666412,1.666412 1.6664119,1.6664119 0 0 0 1.666412,1.666412 1.6664119,1.6664119 0 0 0 1.666412,-1.666412 v -4.16603 h 4.999235 v 2.724193 a 1.6664119,1.6664119 0 0 0 -0.833206,-0.224575 1.6664119,1.6664119 0 0 0 -1.666411,1.666412 1.6664119,1.6664119 0 0 0 1.666411,1.666412 1.6664119,1.6664119 0 0 0 1.666412,-1.666412 v -4.999235 c 0,-0.461597 -0.37161,-0.833206 -0.833206,-0.833206 z"
    id="rect826-3" />
  <path
    style="fill:#ffffff;fill-opacity:0.849168;stroke:none;stroke-width:0.2;stroke-linecap:round;stroke-linejoin:round;stroke-miterlimit:4;stroke-dasharray:none;stroke-dashoffset:0;stroke-opacity:1;paint-order:fill markers stroke"
    d="m 25.025667,30.563204 -1.826172,3.164063 a 4.2711864,4.2711864 0 0 0 -2.445312,3.855469 4.2711864,4.2711864 0 0 0 4.271484,4.271484 4.2711864,4.2711864 0 0 0 4.271484,-4.271484 4.2711864,4.2711864 0 0 0 -2.445312,-3.855469 z"
    id="path4605" />
 </g>
 <path
   style="fill:#4c566a;fill-opacity:0.99215686;fill-rule:nonzero;stroke:none;stroke-width:0.219941"
   d="m 19.54547,21.175501 c -0.713725,0 -1.428293,0.394574 -1.428293,1.184602 h 0.571137 c 0,-0.790027 1.7143,-0.790027 1.7143,0 0,0.139983 -0.0675,0.23972 -0.259851,0.382327 -0.192353,0.142608 -0.486777,0.285214 -0.796393,0.44532 -0.309618,0.16098 -0.63696,0.340332 -0.903543,0.603674 -0.267447,0.263342 -0.46823,0.63342 -0.46823,1.087489 v 0.296588 h 3 v -0.593176 h -2.377392 c 0.04728,-0.133858 0.1257,-0.249343 0.238751,-0.36133 0.188976,-0.185476 0.46822,-0.349081 0.76603,-0.503062 0.297809,-0.153981 0.609962,-0.298338 0.87318,-0.494313 0.263213,-0.195101 0.499431,-0.483814 0.499431,-0.863517 0,-0.790027 -0.714568,-1.184602 -1.429127,-1.184602 z m 0,0"
   id="path5" />
</svg>
