<?xml version="1.0" encoding="UTF-8" standalone="no"?>
<!-- Created with Inkscape (http://www.inkscape.org/) -->

<svg
  width="48"
  height="48"
  version="1.1"
  viewBox="0 0 48 48"
  id="svg22"
  xmlns:xlink="http://www.w3.org/1999/xlink"
  xmlns="http://www.w3.org/2000/svg"
  xmlns:svg="http://www.w3.org/2000/svg">
 <defs
   id="defs12">
  <linearGradient
    id="linearGradient1">
   <stop
     style="stop-color:#9eccfa;stop-opacity:1;"
     offset="0"
     id="stop1" />
   <stop
     style="stop-color:#d8edfd;stop-opacity:1;"
     offset="1"
     id="stop3" />
  </linearGradient>
  <linearGradient
    xlink:href="#linearGradient3487"
    id="linearGradient3403"
    gradientUnits="userSpaceOnUse"
    x1="6.9491749"
    y1="4.5549412"
    x2="11.215498"
    y2="59.052471" />
  <linearGradient
    id="linearGradient3487">
   <stop
     style="stop-color:#32373c;stop-opacity:1"
     offset="0"
     id="stop3481" />
   <stop
     id="stop3483"
     offset="0.36804965"
     style="stop-color:#1a1a1a;stop-opacity:1" />
   <stop
     style="stop-color:#31363b;stop-opacity:1"
     offset="1"
     id="stop3485" />
  </linearGradient>
  <linearGradient
    xlink:href="#linearGradient20604"
    id="linearGradient20558"
    gradientUnits="userSpaceOnUse"
    x1="25.802212"
    y1="20.373846"
    x2="25.111048"
    y2="58.912758" />
  <linearGradient
    id="linearGradient20604">
   <stop
     id="stop20598"
     offset="0"
     style="stop-color:#3d3d3d;stop-opacity:1" />
   <stop
     style="stop-color:#000000;stop-opacity:1"
     offset="0.61772454"
     id="stop20600" />
   <stop
     id="stop20602"
     offset="1"
     style="stop-color:#3d3d3d;stop-opacity:1" />
  </linearGradient>
  <filter
    style="color-interpolation-filters:sRGB"
    id="filter20720"
    x="-0.010581648"
    y="-0.010228869"
    width="1.0211628"
    height="1.0204578">
   <feGaussianBlur
     stdDeviation="6.9966166e-08"
     id="feGaussianBlur20722" />
  </filter>
  <linearGradient
    gradientTransform="translate(0.36067797,-0.13016949)"
    xlink:href="#linearGradient4555"
    id="linearGradient4557"
    x1="43.499737"
    y1="64.011795"
    x2="44.141731"
    y2="0.30621234"
    gradientUnits="userSpaceOnUse" />
  <linearGradient
    id="linearGradient4555">
   <stop
     style="stop-color:#141618;stop-opacity:1"
     offset="0"
     id="stop4551" />
   <stop
     id="stop4559"
     offset="0.51820582"
     style="stop-color:#686868;stop-opacity:1" />
   <stop
     style="stop-color:#31363b;stop-opacity:1"
     offset="1"
     id="stop4553" />
  </linearGradient>
  <filter
    style="color-interpolation-filters:sRGB"
    id="filter4601"
    x="-0.029677616"
    width="1.0593552"
    y="-0.029536015"
    height="1.059072">
   <feGaussianBlur
     stdDeviation="7.476395e-08"
     id="feGaussianBlur4603" />
  </filter>
  <linearGradient
    id="f"
    x1="15.233"
    x2="39.609001"
    y1="11.995"
    y2="36.369999"
    gradientUnits="userSpaceOnUse">
   <stop
     offset="0"
     id="stop13" />
   <stop
     stop-opacity="0"
     offset="1"
     id="stop15" />
  </linearGradient>
  <linearGradient
    id="g"
    y1="37"
    y2="4"
    x2="0"
    gradientUnits="userSpaceOnUse"
    gradientTransform="matrix(-0.76605,0.42072,-0.44228,-0.72871,49.154,32.593)">
   <stop
     stop-color="#da4453"
     id="stop7" />
   <stop
     offset="1"
     stop-color="#ff7336"
     id="stop9" />
  </linearGradient>
  <linearGradient
    xlink:href="#a"
    id="h"
    y1="22.313"
    x1="20.438"
    y2="25.406"
    x2="23.531"
    gradientUnits="userSpaceOnUse"
    gradientTransform="matrix(-0.76605,0.42072,-0.44228,-0.72871,49.154,32.593)" />
  <linearGradient
    id="a"
    y1="30"
    x1="24"
    y2="44"
    x2="38"
    gradientUnits="userSpaceOnUse">
   <stop
     id="stop2-8" />
   <stop
     offset="1"
     stop-opacity="0"
     id="stop4-5" />
  </linearGradient>
  <linearGradient
    xlink:href="#linearGradient1"
    id="linearGradient3"
    x1="15.017585"
    y1="40.445202"
    x2="14.869866"
    y2="10.335101"
    gradientUnits="userSpaceOnUse" />
 </defs>
 <rect
   style="display:inline;fill:#1c97f5;fill-opacity:1;fill-rule:evenodd;stroke:none;stroke-width:0.61837;stroke-linejoin:round;stroke-miterlimit:7.8"
   id="rect1192"
   width="19.482164"
   height="40.983315"
   x="25.765348"
   y="3.0184898"
   ry="0" />
 <rect
   style="display:inline;fill:url(#linearGradient3);fill-opacity:1;stroke:none;stroke-width:0.186412"
   id="rect1"
   width="19.988001"
   height="40"
   x="4"
   y="4"
   transform="matrix(1.0246115,0,0,1.0246115,1.1869686,-1.0626578)" />
 <path
   d="M 24.104,9.892 23.74,14.081 21,44 24.038,44.05 C 34.2,43.608 40.764,37.146 43.138,29.834 Z"
   style="display:inline;opacity:0.2;fill:url(#f)"
   id="path36"
   transform="matrix(1.0246115,0,0,1.0246115,1.1869686,-1.0626578)" />
 <path
   d="m 36.87,33.07 -2.54,-2.51 0.03,-0.03 C 36.1,28.59 37.34,26.36 38.07,24 H 41 v -2 h -7 v -2 h -2 v 2 h -7 v 1.99 H 36.17 C 35.5,25.92 34.44,27.75 33,29.35 32.07,28.32 31.3,27.19 30.69,26 h -2 a 17.14,17.14 0 0 0 3,4.56 L 26.58,35.58 28,37 l 5,-5 3.11,3.11 z"
   style="display:inline;opacity:0.8;fill:#ffffff;fill-opacity:1;stroke-width:1.77981"
   id="path40"
   transform="matrix(1.0246115,0,0,1.0246115,1.1869686,-1.0626578)" />
 <path
   d="m 16.455,13 h -2.91 L 7,30 h 2.91 l 1.628,-4.25 h 6.91 L 20.09,30 H 23 Z m -3.811,9.917 2.356,-6.134 2.356,6.134 z"
   style="display:inline;opacity:0.8;fill:#156bc0;fill-opacity:1;stroke-width:2.55487"
   id="path42"
   transform="matrix(1.0246115,0,0,1.0246115,1.1869686,-1.0626578)" />
 <path
   style="display:inline;fill:url(#g);fill-rule:evenodd;stroke-width:0.86273"
   d="m 21.34,43.981 1.28,-1.813 c 1.28,-1.815 2.014,-4.75 2.014,-4.75 l -1.583,-1.99 c 0.017,-0.205 0.034,-0.422 0.05,-0.64 l 1.616,0.918 0.363,-2.238 -1.815,-0.987 0.003,-0.035 1.89,0.607 c 0,0 0.24,-1.241 0.638,-5.598 0.398,-4.357 0.091,-9.006 0.091,-9.006 L 24.31,16.043 c 0.017,-0.24 0.034,-0.498 0.052,-0.733 l 1.58,1.813 0.034,-1.686 -0.533,-1.315 0.136,-0.754 c 0,0 -0.855,-3.027 -1.283,-3.424 -0.429,-0.397 -1.732,1.562 -1.732,1.562 l 0.28,0.679 -1.232,1.293 1.877,-0.605 c 0,0.087 -0.003,0.193 -0.005,0.281 a 8.275,8.275 0 0 0 -1.007,0.283 c -1.179,0.401 -1.673,1.165 -1.673,1.165 l -0.203,1.348 c 0,0 0.356,-0.721 0.957,-1.204 0.59,-0.477 1.872,-0.83 1.91,-0.84 -0.002,0.125 -0.004,0.26 -0.008,0.387 -0.241,0.224 -2.41,2.26 -3.3,4.091 -0.94,1.938 -2.096,6.957 -2.096,6.957 0,0 0.764,-0.41 2.416,-1.287 1.553,-0.823 2.913,-1.584 3.064,-1.683 -0.006,0.148 0.442,0.73 0.442,0.73 l -5.983,4.59 c 0,0 0.041,0.998 0.141,2.579 0.1,1.581 0.306,5.586 0.306,5.586 0,0 1.138,-0.585 2.218,-1.004 1.03,-0.398 2.066,-0.676 2.164,-0.702 l -0.005,0.07 c -0.101,0.138 -0.756,1.018 -1.302,1.581 -0.59,0.608 -2.604,2.107 -2.604,2.107 0,0 0.162,0.305 0.371,0.997 0.21,0.693 0.74,2.259 0.74,2.259 l 2.574,-4.14 c -0.033,0.297 -0.071,0.568 -0.108,0.852 l -2.308,3.856 c 0,0 0.223,0.445 0.49,1.04 0.268,0.595 0.663,1.211 0.663,1.211"
   id="path44"
   transform="matrix(1.0246115,0,0,1.0246115,1.1869686,-1.0626578)" />
 <path
   style="display:inline;fill:#31363b;fill-rule:evenodd;stroke-width:0.86273"
   d="m 21.339,43.982 c 0,0 1.355,-5.544 2.078,-12.096 0.723,-6.551 1.13,-13.736 1.085,-21.66 C 24.464,3.343 24,4 24,4 c 0,0 -0.463,1.056 -0.461,6.474 10e-4,5.179 0.066,11.833 -0.722,21.485 -0.376,4.6 -1.48,12.02 -1.48,12.02"
   id="path46"
   transform="matrix(1.0246115,0,0,1.0246115,1.1869686,-1.0626578)" />
 <path
   style="opacity:0.2;fill:url(#h);fill-rule:evenodd;stroke-width:0.86273"
   d="m 21.34,43.981 0.152,-0.94 0.515,-3.488 0.818,-5.336 c -0.101,0.137 -0.756,1.017 -1.303,1.58 -0.59,0.609 -2.603,2.108 -2.603,2.108 0,0 0.16,0.305 0.37,0.997 0.21,0.693 0.74,2.258 0.74,2.258 l 2.23,-3.565 c -0.034,0.299 -0.073,0.568 -0.11,0.853 l -1.963,3.28 c 0,0 0.224,0.444 0.491,1.04 0.268,0.595 0.662,1.211 0.662,1.211 M 22.825,34.216 23.983,23.095 18,27.687 c 0,0 0.04,0.998 0.14,2.579 0.1,1.581 0.306,5.586 0.306,5.586 0,0 1.138,-0.585 2.218,-1.004 1.031,-0.398 2.068,-0.676 2.165,-0.703 l -0.005,0.071 m 1.158,-11.12 0.122,-13.204 c -0.534,0.096 -1.541,1.61 -1.541,1.61 l 0.28,0.677 -1.234,1.294 1.878,-0.605 c 0,0.087 -0.004,0.192 -0.005,0.28 a 8.314,8.314 0 0 0 -1.007,0.284 c -1.18,0.4 -1.672,1.163 -1.672,1.163 l -0.21,1.352 c 0,0 0.357,-0.72 0.956,-1.204 0.59,-0.477 1.872,-0.828 1.91,-0.839 l -0.006,0.386 c -0.242,0.224 -2.41,2.26 -3.3,4.092 -0.942,1.937 -2.096,6.956 -2.096,6.956 0,0 0.764,-0.41 2.415,-1.286 1.553,-0.824 2.913,-1.585 3.064,-1.683 -0.005,0.148 0.442,0.729 0.442,0.729"
   id="path48"
   transform="matrix(1.0246115,0,0,1.0246115,1.1869686,-1.0626578)" />
 <path
   style="display:inline;mix-blend-mode:normal;fill:url(#linearGradient3403);fill-opacity:1;stroke:url(#linearGradient20558);stroke-width:1.16242;stroke-linecap:butt;stroke-linejoin:round;stroke-miterlimit:4;stroke-dasharray:none;stroke-opacity:1"
   d="M 4.7043071,3.9814882 4.6913695,60.80196 H 58.59546 l 1.022155,-2.866369 c 0,0 -23.87537,0.766388 -32.844441,-4.140386 C 16.257548,48.042344 11.401114,4.0978197 11.401114,4.0978197 Z"
   id="path1686"
   transform="matrix(0.7518797,0,0,0.7518797,0.09970467,0.02488636)" />
 <rect
   style="display:inline;fill:none;fill-opacity:1;stroke:url(#linearGradient4557);stroke-width:3.71366;stroke-linejoin:round;stroke-miterlimit:7.8;stroke-dasharray:none;stroke-opacity:0.995146"
   id="rect4539"
   width="62.566689"
   height="62.866646"
   x="1.0323594"
   y="0.59551275"
   ry="6.2447233"
   rx="5.8029528"
   transform="matrix(0.70434793,0,0,0.70291231,1.3629847,1.5442064)" />
</svg>
