<?xml version="1.0" encoding="UTF-8" standalone="no"?>
<!-- Created with Inkscape (http://www.inkscape.org/) -->

<svg
   width="48"
   height="48"
   version="1.1"
   viewBox="0 0 48 48"
   id="svg22"
   xmlns:xlink="http://www.w3.org/1999/xlink"
   xmlns="http://www.w3.org/2000/svg"
   xmlns:svg="http://www.w3.org/2000/svg">
  <defs
     id="defs12">
    <linearGradient
       xlink:href="#linearGradient3487"
       id="linearGradient3403"
       gradientUnits="userSpaceOnUse"
       x1="6.9491749"
       y1="4.5549412"
       x2="11.215498"
       y2="59.052471" />
    <linearGradient
       id="linearGradient3487">
      <stop
         style="stop-color:#32373c;stop-opacity:1"
         offset="0"
         id="stop3481" />
      <stop
         id="stop3483"
         offset="0.36804965"
         style="stop-color:#1a1a1a;stop-opacity:1" />
      <stop
         style="stop-color:#31363b;stop-opacity:1"
         offset="1"
         id="stop3485" />
    </linearGradient>
    <linearGradient
       xlink:href="#linearGradient20604"
       id="linearGradient20558"
       gradientUnits="userSpaceOnUse"
       x1="25.802212"
       y1="20.373846"
       x2="25.111048"
       y2="58.912758" />
    <linearGradient
       id="linearGradient20604">
      <stop
         id="stop20598"
         offset="0"
         style="stop-color:#3d3d3d;stop-opacity:1" />
      <stop
         style="stop-color:#000000;stop-opacity:1"
         offset="0.61772454"
         id="stop20600" />
      <stop
         id="stop20602"
         offset="1"
         style="stop-color:#3d3d3d;stop-opacity:1" />
    </linearGradient>
    <filter
       style="color-interpolation-filters:sRGB"
       id="filter20720"
       x="-0.017024755"
       y="-0.016457183"
       width="1.0340491"
       height="1.0329144">
      <feGaussianBlur
         stdDeviation="0.14745661"
         id="feGaussianBlur20722" />
    </filter>
    <linearGradient
       gradientTransform="translate(0.36067797,-0.13016949)"
       xlink:href="#linearGradient4555"
       id="linearGradient4557"
       x1="43.499737"
       y1="64.011795"
       x2="44.141731"
       y2="0.30621234"
       gradientUnits="userSpaceOnUse" />
    <linearGradient
       id="linearGradient4555">
      <stop
         style="stop-color:#141618;stop-opacity:1"
         offset="0"
         id="stop4551" />
      <stop
         id="stop4559"
         offset="0.51820582"
         style="stop-color:#686868;stop-opacity:1" />
      <stop
         style="stop-color:#31363b;stop-opacity:1"
         offset="1"
         id="stop4553" />
    </linearGradient>
    <filter
       style="color-interpolation-filters:sRGB"
       id="filter4601"
       x="-0.030244955"
       width="1.0604899"
       y="-0.030100647"
       height="1.0602013">
      <feGaussianBlur
         stdDeviation="0.014790289"
         id="feGaussianBlur4603" />
    </filter>
  </defs>
  <rect
     style="fill:#285da4;fill-opacity:1"
     width="40"
     height="40"
     x="4"
     y="4"
     rx="0.72957867"
     ry="0.86167526"
     id="rect2"
     transform="matrix(1.0205018,0,0,1.0205018,1.2522959,-1.019787)" />
  <g
     id="g1"
     transform="translate(1.4683317,0.13687183)">
    <path
       style="opacity:0.2;stroke-width:1.15439"
       d="m 4.9453357,13.566555 c -0.085425,0.167387 -0.1708495,0.333619 -0.2528107,0.501005 1.2986865,0.721493 5.0412137,2.601991 6.817818,3.715976 2.245285,1.374877 5.280172,4.18004 5.51913,4.652185 -2.335327,4.066911 -1.275599,7.666294 -1.551498,8.049551 -0.198554,0.319765 -2.034032,2.335327 -1.442985,2.633159 0.586429,0.293215 1.519175,-0.167386 1.660011,-0.257428 0.293214,-0.180085 0.595664,-0.442131 0.468681,0.07619 -0.248193,1.059729 -1.374876,3.607464 0.180085,3.066056 0.189319,-0.108512 2.692033,-2.867501 2.994483,-2.962161 4.978877,1.298687 10.547647,0.703023 11.578516,0.220489 0.53679,0.03579 2.055965,0.991619 2.921757,1.447603 0.865791,0.451365 3.224206,1.582666 2.525802,-0.4733 -0.217025,-0.64992 -1.767369,-2.308776 -1.515712,-2.417289 0.554106,-0.220488 1.925519,0.572577 2.453075,0.721493 1.578049,0.442131 1.790456,-0.17085 0.794219,-1.519175 -0.983539,-1.348326 -1.131301,-1.140536 -1.442985,-1.762751 -0.243576,-0.501005 0,-1.055111 0.180084,-1.190175 0.319766,-0.243576 5.031979,-2.85942 6.136729,-3.860274 1.636923,-1.488007 0,-3.345418 -0.401727,-3.607464 -3.395057,-2.44384 -6.881309,-1.920902 -6.926331,-2.308777 -0.02309,-0.442131 -0.01385,-1.71773 -0.07273,-2.159861 -0.338236,-2.994483 -1.722348,-2.240667 -1.911667,-2.240667 -1.384112,0.217025 -0.875027,2.335327 -0.288597,4.328956 0.04502,0.509085 -0.482535,0.283979 -0.79422,-0.252811 -1.064346,-2.854803 -1.511094,-2.805164 -1.804309,-2.890589 -0.283979,-0.06349 -1.284834,0.546026 -1.267518,1.700414 0.0046,0.329001 0.39711,1.898969 0.39711,2.381504 -0.653384,0.572576 -0.685707,1.871263 -1.371414,2.344563 -1.997092,0.414425 -6.795884,-0.987003 -7.395012,-1.050494 -2.074436,-0.387874 -2.980631,1.168241 -3.314249,0.794219 C 15.127041,18.162176 11.013956,15.871869 9.2327341,15.474759 8.5424099,15.325843 6.2116997,14.297283 5.3724594,13.778963 5.2373959,13.698156 5.0838623,13.639282 4.9349462,13.561938 m 37.0212358,2.705886 c -0.649921,0.698405 -0.536791,3.309632 -0.401727,3.287698 0.662619,-0.135063 0.600282,-3.497796 0.401727,-3.287698 m 1.880499,0.39711 c -0.07619,-0.212408 -1.785839,2.187566 -1.48339,3.070673 0.135064,0.383257 1.713113,-2.398819 1.48339,-3.070673 m -8.878402,4.080763 c 0.02309,-0.02309 0.04964,0.0092 0.07619,0.03579 0.198555,0.658001 0.419043,1.284834 1.726965,1.442985 0.153534,0.01847 -0.72611,0.532173 -1.329855,0.217025 -0.550644,-0.333618 -0.600282,-1.54688 -0.4733,-1.695796 m 3.391594,3.314249 c 0.12121,-0.01847 0.207789,-0.01385 0.293214,0 0.319766,0.08081 -2.32032,1.456838 -2.525802,1.267518 -0.125828,-0.121211 1.4072,-1.113985 2.237205,-1.267518 m 0.685707,0.870409 c 0.274744,0.02309 -1.52841,1.889733 -1.731583,1.695796 -0.148916,-0.135063 1.168241,-1.740818 1.731583,-1.695796"
       id="path3" />
    <path
       style="fill:#f9f9f9;stroke-width:1.15439"
       d="m 4.9453357,12.412167 c -0.085425,0.167386 -0.1708495,0.333618 -0.2528107,0.501005 1.2986865,0.721492 5.0412137,2.601991 6.817818,3.715976 2.245285,1.374876 5.280172,4.18004 5.51913,4.652185 -2.335327,4.06691 -1.275599,7.666293 -1.551498,8.04955 -0.198554,0.319766 -2.034032,2.335328 -1.442985,2.63316 0.586429,0.293215 1.519175,-0.167386 1.660011,-0.257429 0.293214,-0.180084 0.595664,-0.44213 0.468681,0.07619 -0.248193,1.059729 -1.374876,3.607464 0.180085,3.066056 0.189319,-0.108513 2.692033,-2.867501 2.994483,-2.962161 4.978877,1.298687 10.547647,0.703023 11.578516,0.220488 0.53679,0.03579 2.055965,0.99162 2.921757,1.447603 0.865791,0.451366 3.224206,1.582667 2.525802,-0.473299 -0.217025,-0.649921 -1.767369,-2.308777 -1.515712,-2.417289 0.554106,-0.220488 1.925519,0.572576 2.453075,0.721492 1.578049,0.442131 1.790456,-0.170849 0.794219,-1.519175 -0.983539,-1.348325 -1.131301,-1.140535 -1.442985,-1.762751 -0.243576,-0.501004 0,-1.055111 0.180084,-1.190174 0.319766,-0.243576 5.031979,-2.85942 6.136729,-3.860275 1.636923,-1.488007 0,-3.345417 -0.401727,-3.607464 -3.395057,-2.44384 -6.881309,-1.920902 -6.926331,-2.308776 -0.02309,-0.442131 -0.01385,-1.71773 -0.07273,-2.159861 -0.338236,-2.994483 -1.722348,-2.240668 -1.911667,-2.240668 -1.384112,0.217025 -0.875027,2.335328 -0.288597,4.328957 0.04502,0.509085 -0.482535,0.283979 -0.79422,-0.252811 -1.064346,-2.854803 -1.511094,-2.805164 -1.804309,-2.890589 -0.283979,-0.06349 -1.284834,0.546026 -1.267518,1.700414 0.0046,0.329001 0.39711,1.898969 0.39711,2.381503 -0.653384,0.572577 -0.685707,1.871264 -1.371414,2.344563 -1.997092,0.414426 -6.795884,-0.987002 -7.395012,-1.050493 -2.074436,-0.387875 -2.980631,1.168241 -3.314249,0.794219 C 15.127041,17.007787 11.013956,14.717481 9.2327341,14.320371 8.5424099,14.171455 6.2116997,13.142895 5.3724594,12.624574 5.2373959,12.543767 5.0838623,12.484893 4.9349462,12.407549 m 37.0212358,2.705887 c -0.649921,0.698405 -0.536791,3.309631 -0.401727,3.287698 0.662619,-0.135064 0.600282,-3.497797 0.401727,-3.287698 m 1.880499,0.397109 c -0.07619,-0.212407 -1.785839,2.187566 -1.48339,3.070674 0.135064,0.383256 1.713113,-2.39882 1.48339,-3.070674 m -8.878402,4.080763 c 0.02309,-0.02309 0.04964,0.0092 0.07619,0.03579 0.198555,0.658002 0.419043,1.284835 1.726965,1.442986 0.153534,0.01847 -0.72611,0.532173 -1.329855,0.217025 -0.550644,-0.333618 -0.600282,-1.546881 -0.4733,-1.695797 m 3.391594,3.314249 c 0.12121,-0.01847 0.207789,-0.01385 0.293214,0 0.319766,0.08081 -2.32032,1.456839 -2.525802,1.267519 -0.125828,-0.121211 1.4072,-1.113985 2.237205,-1.267519 m 0.685707,0.870409 c 0.274744,0.02309 -1.52841,1.889734 -1.731583,1.695797 -0.148916,-0.135064 1.168241,-1.740818 1.731583,-1.695797"
       id="path4" />
  </g>
  <path
     style="display:inline;mix-blend-mode:normal;fill:url(#linearGradient3403);fill-opacity:1;stroke:url(#linearGradient20558);stroke-width:1.16242;stroke-linecap:butt;stroke-linejoin:round;stroke-miterlimit:4;stroke-dasharray:none;stroke-opacity:1;filter:url(#filter20720)"
     d="M 4.7043071,3.9814882 4.6913695,60.80196 H 58.59546 l 1.022155,-2.866369 c 0,0 -23.87537,0.766388 -32.844441,-4.140386 C 16.257548,48.042344 11.401114,4.0978197 11.401114,4.0978197 Z"
     id="path1686"
     transform="matrix(0.7518797,0,0,0.7518797,0.09970467,0.02488636)" />
  <rect
     style="display:inline;fill:none;fill-opacity:1;stroke:url(#linearGradient4557);stroke-width:3.71366;stroke-linejoin:round;stroke-miterlimit:7.8;stroke-dasharray:none;stroke-opacity:0.995146;filter:url(#filter4601)"
     id="rect4539"
     width="62.566689"
     height="62.866646"
     x="1.0323594"
     y="0.59551275"
     ry="6.2447233"
     rx="5.8029528"
     transform="matrix(0.70434793,0,0,0.70291231,1.3629847,1.5442064)" />
  <circle
     style="display:none;fill:#dc2928"
     cx="-32.350708"
     cy="23.5"
     id="circle2"
     r="20" />
</svg>
