<?xml version="1.0" encoding="UTF-8" standalone="no"?>
<!-- Created with Inkscape (http://www.inkscape.org/) -->

<svg
  width="48"
  height="48"
  version="1.1"
  viewBox="0 0 48 48"
  id="svg22"
  xmlns:xlink="http://www.w3.org/1999/xlink"
  xmlns="http://www.w3.org/2000/svg"
  xmlns:svg="http://www.w3.org/2000/svg">
 <defs
   id="defs12">
  <linearGradient
    xlink:href="#linearGradient3487"
    id="linearGradient3403"
    gradientUnits="userSpaceOnUse"
    x1="6.9491749"
    y1="4.5549412"
    x2="11.215498"
    y2="59.052471" />
  <linearGradient
    id="linearGradient3487">
   <stop
     style="stop-color:#32373c;stop-opacity:1"
     offset="0"
     id="stop3481" />
   <stop
     id="stop3483"
     offset="0.36804965"
     style="stop-color:#1a1a1a;stop-opacity:1" />
   <stop
     style="stop-color:#31363b;stop-opacity:1"
     offset="1"
     id="stop3485" />
  </linearGradient>
  <linearGradient
    xlink:href="#linearGradient20604"
    id="linearGradient20558"
    gradientUnits="userSpaceOnUse"
    x1="25.802212"
    y1="20.373846"
    x2="25.111048"
    y2="58.912758" />
  <linearGradient
    id="linearGradient20604">
   <stop
     id="stop20598"
     offset="0"
     style="stop-color:#3d3d3d;stop-opacity:1" />
   <stop
     style="stop-color:#000000;stop-opacity:1"
     offset="0.61772454"
     id="stop20600" />
   <stop
     id="stop20602"
     offset="1"
     style="stop-color:#3d3d3d;stop-opacity:1" />
  </linearGradient>
  <filter
    style="color-interpolation-filters:sRGB"
    id="filter20720"
    x="-0.010584121"
    y="-0.01023126"
    width="1.0211678"
    height="1.0204625">
   <feGaussianBlur
     stdDeviation="5.6676734e-05"
     id="feGaussianBlur20722" />
  </filter>
  <linearGradient
    gradientTransform="translate(0.36067797,-0.13016949)"
    xlink:href="#linearGradient4555"
    id="linearGradient4557"
    x1="43.499737"
    y1="64.011795"
    x2="44.141731"
    y2="0.30621234"
    gradientUnits="userSpaceOnUse" />
  <linearGradient
    id="linearGradient4555">
   <stop
     style="stop-color:#141618;stop-opacity:1"
     offset="0"
     id="stop4551" />
   <stop
     id="stop4559"
     offset="0.51820582"
     style="stop-color:#686868;stop-opacity:1" />
   <stop
     style="stop-color:#31363b;stop-opacity:1"
     offset="1"
     id="stop4553" />
  </linearGradient>
  <filter
    style="color-interpolation-filters:sRGB"
    id="filter4601"
    x="-0.029679937"
    width="1.0593599"
    y="-0.029538324"
    height="1.0590766">
   <feGaussianBlur
     stdDeviation="6.0563223e-05"
     id="feGaussianBlur4603" />
  </filter>
 </defs>
 <rect
   style="fill:#0068c8;fill-opacity:1"
   width="40"
   height="40"
   x="4"
   y="4"
   rx="0.72957867"
   ry="0.86167526"
   id="rect2"
   transform="matrix(1.0205018,0,0,1.0205018,1.2522959,-1.019787)" />
 <g
   id="g1">
  <path
    style="opacity:0.2;stroke-width:1.23215"
    d="m 31.553404,8.3025462 c -1.207243,-0.02527 -2.421025,0.321299 -3.431737,0.986685 -1.007904,0.662578 -1.811745,1.6332858 -2.269375,2.7506848 -0.457629,1.120206 -0.568333,2.377311 -0.312851,3.559284 0.255485,1.179164 0.873213,2.278632 1.751967,3.106853 -0.446395,-0.735574 -0.677849,-1.604798 -0.649768,-2.466711 0.02527,-0.861913 0.310061,-1.713088 0.801381,-2.423394 0.491314,-0.707497 1.192877,-1.269867 1.990214,-1.595541 0.797341,-0.325671 1.688625,-0.415525 2.536502,-0.252688 1.232509,0.233026 2.352026,1.382201 3.003372,2.454679 H 46.644867 L 36.944072,11.895523 C 36.483638,10.85112 35.719505,9.9449922 34.773366,9.3132972 33.824423,8.6816022 32.693261,8.3250082 31.553404,8.3025462 Z M 14.007263,10.458814 c -1.381308,1.426227 -2.173112,3.403333 -2.156268,5.388261 0.01615,1.930065 0.805473,3.837777 2.139422,5.231836 l -0.69068,-0.211777 c -0.373403,1.426228 -0.25828,2.973341 0.320071,4.329381 0.581161,1.353231 1.620457,2.50444 2.911923,3.217554 0.985445,0.544661 2.108577,0.832666 3.234401,0.832666 1.12582,0 2.248953,-0.288005 3.2344,-0.832666 -0.906838,0.08142 -1.830213,-0.0682 -2.664048,-0.433179 -0.833841,-0.362172 -1.573903,-0.94179 -2.129795,-1.660518 -0.640118,-0.83103 -1.037627,-1.848267 -1.119045,-2.89267 l 10.225423,1.751967 -10.632129,-3.272906 c -0.752032,-0.808355 -1.223067,-1.877088 -1.309163,-2.9769 -0.08142,-1.078093 0.202172,-2.178763 0.791755,-3.082788 l 11.859468,6.468801 z m 19.500259,7.903104 c -0.586649,0.693562 -0.969214,1.555514 -1.092573,2.454678 -0.115133,0.849821 -9.81e-4,1.720646 0.223809,2.548534 0.224789,0.825152 0.559055,1.619111 0.888016,2.411363 0.328964,0.792251 0.654937,1.587949 0.868764,2.41858 0.211082,0.830631 0.308601,1.704196 0.166052,2.548535 -0.2385,1.414539 -1.141467,2.672234 -2.317507,3.491901 -1.176044,0.819664 -2.60961,1.225582 -4.040594,1.318788 -1.806557,0.11788 -3.640238,-0.248445 -5.26312,-1.051662 l 0.04091,8.420512 2.105731,-4.187393 c 2.782476,0.814181 5.893189,0.41283 8.3796,-1.075727 1.255537,-0.751132 2.358526,-1.773236 3.126105,-3.017812 0.770325,-1.244576 1.1948,-2.712144 1.126265,-4.170547 -0.09869,-2.080691 -1.158813,-3.977449 -2.173113,-5.794968 -1.017042,-1.81752 -2.041487,-3.745227 -2.055192,-5.82866 0,-0.161739 0.0059,-0.324382 0.01684,-0.486122 z"
    id="path2" />
  <path
    style="fill:#ffffff;stroke-width:1.23215"
    d="m 31.553404,7.0699119 c -1.207243,-0.025272 -2.421025,0.3212986 -3.431737,0.9866844 -1.007904,0.6625779 -1.811745,1.6332869 -2.269375,2.7506847 -0.457629,1.120207 -0.568333,2.377312 -0.312851,3.559285 0.255485,1.179164 0.873213,2.278632 1.751967,3.106853 -0.446395,-0.735574 -0.677849,-1.604799 -0.649768,-2.466712 0.02527,-0.861913 0.310061,-1.713087 0.801381,-2.423394 0.491314,-0.707497 1.192877,-1.269866 1.990214,-1.59554 0.797341,-0.325671 1.688625,-0.415525 2.536502,-0.252689 1.232509,0.233026 2.352026,1.382202 3.003372,2.45468 H 46.644867 L 36.944072,10.662889 C 36.483638,9.6184862 35.719505,8.7123582 34.773366,8.0806627 33.824423,7.4489676 32.693261,7.092374 31.553404,7.0699119 Z M 14.007263,9.2261792 c -1.381308,1.4262278 -2.173112,3.4033338 -2.156268,5.3882618 0.01613,1.927424 0.79918,3.835863 2.129796,5.229429 L 13.299737,19.6345 c -0.373403,1.426228 -0.25828,2.973341 0.320071,4.32938 0.581161,1.353232 1.620457,2.50444 2.911923,3.217555 0.985445,0.544661 2.108577,0.832665 3.234401,0.832665 1.12582,0 2.248953,-0.288004 3.2344,-0.832665 -0.906838,0.08142 -1.830213,-0.0682 -2.664048,-0.433179 -0.833841,-0.362172 -1.573903,-0.94179 -2.129795,-1.660518 -0.640118,-0.831031 -1.037627,-1.848267 -1.119045,-2.892671 l 10.225423,1.751967 -10.634536,-3.272905 c -0.751465,-0.808233 -1.220697,-1.87756 -1.306756,-2.976901 -0.08142,-1.078092 0.202172,-2.178762 0.791755,-3.082787 l 11.859468,6.468801 z m 19.500259,7.9031048 c -0.586649,0.693561 -0.969214,1.555514 -1.092573,2.454678 -0.115133,0.849821 -9.81e-4,1.720646 0.223809,2.548534 0.224789,0.825152 0.559055,1.61911 0.888016,2.411362 0.328964,0.792252 0.654937,1.587949 0.868764,2.41858 0.211082,0.830631 0.308601,1.704197 0.166052,2.548535 -0.2385,1.41454 -1.141467,2.672235 -2.317507,3.491901 -1.176044,0.819665 -2.60961,1.225583 -4.040594,1.318789 -1.806557,0.11788 -3.640238,-0.248445 -5.26312,-1.051662 l 0.04091,8.420511 2.105731,-4.187393 c 2.782476,0.814182 5.893189,0.412831 8.3796,-1.075727 1.255537,-0.751131 2.358526,-1.773235 3.126105,-3.017811 0.770325,-1.244577 1.1948,-2.712144 1.126265,-4.170547 -0.09869,-2.080691 -1.158813,-3.977449 -2.173113,-5.794968 -1.017042,-1.81752 -2.041487,-3.745228 -2.055192,-5.82866 0,-0.16174 0.0059,-0.324383 0.01684,-0.486122 z"
    id="path4" />
 </g>
 <path
   style="display:inline;mix-blend-mode:normal;fill:url(#linearGradient3403);fill-opacity:1;stroke:url(#linearGradient20558);stroke-width:1.16242;stroke-linecap:butt;stroke-linejoin:round;stroke-miterlimit:4;stroke-dasharray:none;stroke-opacity:1"
   d="M 4.7043071,3.9814882 4.6913695,60.80196 H 58.59546 l 1.022155,-2.866369 c 0,0 -23.87537,0.766388 -32.844441,-4.140386 C 16.257548,48.042344 11.401114,4.0978197 11.401114,4.0978197 Z"
   id="path1686"
   transform="matrix(0.7518797,0,0,0.7518797,0.09970467,0.02488636)" />
 <rect
   style="display:inline;fill:none;fill-opacity:1;stroke:url(#linearGradient4557);stroke-width:3.71366;stroke-linejoin:round;stroke-miterlimit:7.8;stroke-dasharray:none;stroke-opacity:0.995146"
   id="rect4539"
   width="62.566689"
   height="62.866646"
   x="1.0323594"
   y="0.59551275"
   ry="6.2447233"
   rx="5.8029528"
   transform="matrix(0.70434793,0,0,0.70291231,1.3629847,1.5442064)" />
</svg>
