<?xml version="1.0" encoding="UTF-8" standalone="no"?>
<!-- Created with Inkscape (http://www.inkscape.org/) -->

<svg
  width="48"
  height="48"
  version="1.1"
  viewBox="0 0 48 48"
  id="svg22"
  xmlns:xlink="http://www.w3.org/1999/xlink"
  xmlns="http://www.w3.org/2000/svg"
  xmlns:svg="http://www.w3.org/2000/svg">
 <defs
   id="defs12">
  <linearGradient
    xlink:href="#linearGradient3487"
    id="linearGradient3403"
    gradientUnits="userSpaceOnUse"
    x1="6.9491749"
    y1="4.5549412"
    x2="11.215498"
    y2="59.052471" />
  <linearGradient
    id="linearGradient3487">
   <stop
     style="stop-color:#32373c;stop-opacity:1"
     offset="0"
     id="stop3481" />
   <stop
     id="stop3483"
     offset="0.36804965"
     style="stop-color:#1a1a1a;stop-opacity:1" />
   <stop
     style="stop-color:#31363b;stop-opacity:1"
     offset="1"
     id="stop3485" />
  </linearGradient>
  <linearGradient
    xlink:href="#linearGradient20604"
    id="linearGradient20558"
    gradientUnits="userSpaceOnUse"
    x1="25.802212"
    y1="20.373846"
    x2="25.111048"
    y2="58.912758" />
  <linearGradient
    id="linearGradient20604">
   <stop
     id="stop20598"
     offset="0"
     style="stop-color:#3d3d3d;stop-opacity:1" />
   <stop
     style="stop-color:#000000;stop-opacity:1"
     offset="0.61772454"
     id="stop20600" />
   <stop
     id="stop20602"
     offset="1"
     style="stop-color:#3d3d3d;stop-opacity:1" />
  </linearGradient>
  <filter
    style="color-interpolation-filters:sRGB"
    id="filter20720"
    x="-0.010602047"
    y="-0.010248588"
    width="1.0212036"
    height="1.0204972">
   <feGaussianBlur
     stdDeviation="0.00046692852"
     id="feGaussianBlur20722" />
  </filter>
  <linearGradient
    gradientTransform="translate(0.36067797,-0.13016949)"
    xlink:href="#linearGradient4555"
    id="linearGradient4557"
    x1="43.499737"
    y1="64.011795"
    x2="44.141731"
    y2="0.30621234"
    gradientUnits="userSpaceOnUse" />
  <linearGradient
    id="linearGradient4555">
   <stop
     style="stop-color:#141618;stop-opacity:1"
     offset="0"
     id="stop4551" />
   <stop
     id="stop4559"
     offset="0.51820582"
     style="stop-color:#686868;stop-opacity:1" />
   <stop
     style="stop-color:#31363b;stop-opacity:1"
     offset="1"
     id="stop4553" />
  </linearGradient>
  <filter
    style="color-interpolation-filters:sRGB"
    id="filter4601"
    x="-0.029696753"
    width="1.0593935"
    y="-0.02955506"
    height="1.0591101">
   <feGaussianBlur
     stdDeviation="0.00049894717"
     id="feGaussianBlur4603" />
  </filter>
 </defs>
 <rect
   style="fill:#48b9c7;fill-opacity:1"
   width="40"
   height="40"
   x="4"
   y="4"
   rx="0.72957867"
   ry="0.86167526"
   id="rect2"
   transform="matrix(1.0205018,0,0,1.0205018,1.2522959,-1.019787)" />
 <g
   id="g1"
   transform="matrix(1.2166808,0,0,1.2166808,62.046847,-3.5500455)">
  <path
    style="opacity:0.2"
    d="m -29.738654,9.4776221 c -1.786606,0.04232 -3.822602,1.0168869 -4.861328,1.7363279 -1.038723,0.71944 -3.157669,2.158128 -3.199219,3.554688 0,0.93104 0.49804,1.692007 0.955078,2.623047 0.457039,0.931039 6.607393,13.458226 8.435547,15.447265 0.955627,1.01568 2.285329,0.720102 2.576172,-0.210937 0.290843,-0.931041 -0.04208,-1.946562 -0.416016,-2.919922 l -1.99414,-5.291016 c 2.326742,-0.846401 3.989153,-2.581914 4.986328,-4.740234 v -0.08398 c 0.498588,-1.057999 0.622521,-2.538961 0.207031,-4.44336 -0.415489,-1.9044 -1.538327,-3.55528 -3.117188,-4.613281 -1.038724,-0.6771199 -1.78566,-1.1009138 -3.572265,-1.0585939 z m -1.490235,3.8613279 c 0.09883,0.0108 0.206719,0.0365 0.326172,0.07617 0.290843,0.08464 0.540302,0.295565 0.748047,0.464844 1.038724,0.8464 1.829184,2.115814 2.203125,3.427734 a 5.3182681,5.4169592 0 0 1 0.08203,2.03125 c 0,0.33856 -0.0403,0.593082 -0.248047,0.931641 -0.207746,0.33856 -0.707738,0.591148 -0.957032,0.548828 -0.249295,-0.04232 -0.456317,-0.210275 -0.664062,-0.421875 -0.872528,-0.888719 -1.662282,-2.667272 -1.953125,-3.513672 -0.272664,-0.7935 -1.019574,-3.706877 0.46289,-3.544922 z m 13.482422,3.136719 c -0.590411,0.0098 -1.265253,0.167433 -1.535156,0.417969 -0.35987,0.334048 -0.680932,1.001697 -0.880859,2.33789 -0.679754,4.885452 -0.918959,8.893255 -0.199219,9.185547 0.599784,0.250536 1.039999,-0.167205 3.199219,-4.175781 l 1.11914,-2.212891 c 0.439841,-0.960388 1.000215,-2.295536 1.160157,-2.921875 0.159943,-0.626341 0.120451,-1.128573 -0.359375,-1.58789 a 3.5987004,3.7580404 0 0 0 -1.960938,-1.001953 c -0.159942,-0.03132 -0.346165,-0.04428 -0.542969,-0.04102 z m -2.300781,14 c -0.142446,-0.0025 -0.295389,0.01684 -0.460937,0.0625 -0.639358,0.162354 -1.09737,0.690671 -1.234375,1.177734 -0.137006,0.487062 -0.04532,1.095642 0.457031,1.460938 0.502353,0.365297 1.370981,0.365051 1.736328,0.162109 0.365347,-0.202943 0.592254,-0.527281 0.683594,-0.892578 0.239758,-0.852359 -0.184517,-1.953501 -1.181641,-1.970703 z m -14.138672,4 c -0.893548,0 -1.613281,0.669 -1.613281,1.5 0,0.831 0.719733,1.5 1.613281,1.5 h 16.773438 c 0.893548,0 1.613281,-0.669 1.613281,-1.5 0,-0.831 -0.719733,-1.5 -1.613281,-1.5 z"
    id="path3" />
  <g
    id="g6"
    transform="translate(-49.799201,-0.52433091)">
   <rect
     style="fill:#ffffff"
     width="20"
     height="3"
     x="14"
     y="34"
     rx="1.613"
     ry="1.5"
     id="rect3" />
   <path
     style="fill:#ffffff"
     d="m 26.542139,19.202024 c -0.997175,2.15832 -2.659134,3.893439 -4.985876,4.73984 l 1.99435,5.289999 c 0.373941,0.97336 0.706333,1.989039 0.41549,2.92008 -0.290843,0.931039 -1.620409,1.227279 -2.576036,0.211599 C 19.561913,30.374503 13.412665,17.847784 12.955626,16.916745 12.498588,15.985705 12,15.223945 12,14.292905 c 0.04155,-1.39656 2.160547,-2.835439 3.19927,-3.554879 1.038726,-0.719441 3.074624,-1.6928005 4.86123,-1.7351205 1.786605,-0.04232 2.534487,0.3808799 3.573211,1.0579995 1.578861,1.058001 2.700683,2.70848 3.116172,4.61288 0.41549,1.904399 0.290844,3.3856 -0.207744,4.443599 m -4.695034,-2.285279 c -0.373941,-1.31192 -1.16337,-2.58152 -2.202094,-3.42792 -0.207745,-0.169279 -0.457039,-0.38088 -0.747882,-0.465519 -1.911253,-0.634801 -1.080273,2.623839 -0.789431,3.470239 0.290843,0.8464 1.080274,2.62384 1.952802,3.512559 0.207745,0.2116 0.415489,0.38088 0.664784,0.4232 0.249294,0.04232 0.74788,-0.2116 0.955626,-0.55016 0.207744,-0.338559 0.249294,-0.59248 0.249294,-0.93104 a 5.3182681,5.4169592 0 0 0 -0.0831,-2.031359 z"
     id="path4" />
   <path
     style="fill:#ffffff"
     d="m 30.934553,31.97073 c -0.09134,0.365297 -0.31968,0.690005 -0.685027,0.892948 -0.365347,0.202942 -1.233048,0.202942 -1.735401,-0.162355 -0.502353,-0.365296 -0.59369,-0.974124 -0.456684,-1.461186 0.137005,-0.487063 0.59369,-1.014714 1.233048,-1.177068 1.324384,-0.365297 1.918074,0.933536 1.644064,1.907661 z"
     id="path5" />
   <path
     style="fill:#ffffff"
     d="m 29.437564,27.942053 c -0.71974,-0.292292 -0.479826,-4.300869 0.199928,-9.186321 0.199927,-1.336193 0.519812,-2.004289 0.879682,-2.338337 0.35987,-0.334048 1.43948,-0.501072 2.079249,-0.375804 a 3.5987004,3.7580404 0 0 1 1.959293,1.002144 c 0.479826,0.459317 0.519812,0.960388 0.359869,1.586729 -0.159942,0.626339 -0.719739,1.962532 -1.15958,2.92292 l -1.119597,2.213068 c -2.15922,4.008576 -2.59906,4.426137 -3.198844,4.175601 z"
     id="path6" />
  </g>
 </g>
 <path
   style="display:inline;mix-blend-mode:normal;fill:url(#linearGradient3403);fill-opacity:1;stroke:url(#linearGradient20558);stroke-width:1.16242;stroke-linecap:butt;stroke-linejoin:round;stroke-miterlimit:4;stroke-dasharray:none;stroke-opacity:1"
   d="M 4.7043071,3.9814882 4.6913695,60.80196 H 58.59546 l 1.022155,-2.866369 c 0,0 -23.87537,0.766388 -32.844441,-4.140386 C 16.257548,48.042344 11.401114,4.0978197 11.401114,4.0978197 Z"
   id="path1686"
   transform="matrix(0.7518797,0,0,0.7518797,0.09970467,0.02488636)" />
 <rect
   style="display:inline;fill:none;fill-opacity:1;stroke:url(#linearGradient4557);stroke-width:3.71366;stroke-linejoin:round;stroke-miterlimit:7.8;stroke-dasharray:none;stroke-opacity:0.995146"
   id="rect4539"
   width="62.566689"
   height="62.866646"
   x="1.0323594"
   y="0.59551275"
   ry="6.2447233"
   rx="5.8029528"
   transform="matrix(0.70434793,0,0,0.70291231,1.3629847,1.5442064)" />
 <circle
   style="display:none;fill:#dc2928"
   cx="-32.350708"
   cy="23.5"
   id="circle2"
   r="20" />
</svg>
