<?xml version="1.0" encoding="UTF-8" standalone="no"?>
<!-- Created with Inkscape (http://www.inkscape.org/) -->

<svg
  width="48"
  height="48"
  version="1.1"
  viewBox="0 0 48 48"
  id="svg22"
  xmlns:xlink="http://www.w3.org/1999/xlink"
  xmlns="http://www.w3.org/2000/svg"
  xmlns:svg="http://www.w3.org/2000/svg">
 <defs
   id="defs12">
  <linearGradient
    xlink:href="#linearGradient3487"
    id="linearGradient3403"
    gradientUnits="userSpaceOnUse"
    x1="6.9491749"
    y1="4.5549412"
    x2="11.215498"
    y2="59.052471" />
  <linearGradient
    id="linearGradient3487">
   <stop
     style="stop-color:#32373c;stop-opacity:1"
     offset="0"
     id="stop3481" />
   <stop
     id="stop3483"
     offset="0.36804965"
     style="stop-color:#1a1a1a;stop-opacity:1" />
   <stop
     style="stop-color:#31363b;stop-opacity:1"
     offset="1"
     id="stop3485" />
  </linearGradient>
  <linearGradient
    xlink:href="#linearGradient20604"
    id="linearGradient20558"
    gradientUnits="userSpaceOnUse"
    x1="25.802212"
    y1="20.373846"
    x2="25.111048"
    y2="58.912758" />
  <linearGradient
    id="linearGradient20604">
   <stop
     id="stop20598"
     offset="0"
     style="stop-color:#3d3d3d;stop-opacity:1" />
   <stop
     style="stop-color:#000000;stop-opacity:1"
     offset="0.61772454"
     id="stop20600" />
   <stop
     id="stop20602"
     offset="1"
     style="stop-color:#3d3d3d;stop-opacity:1" />
  </linearGradient>
  <filter
    style="color-interpolation-filters:sRGB"
    id="filter20720"
    x="-0.010600465"
    y="-0.010247059"
    width="1.0212005"
    height="1.0204941">
   <feGaussianBlur
     stdDeviation="0.00043072662"
     id="feGaussianBlur20722" />
  </filter>
  <linearGradient
    gradientTransform="translate(0.36067797,-0.13016949)"
    xlink:href="#linearGradient4555"
    id="linearGradient4557"
    x1="43.499737"
    y1="64.011795"
    x2="44.141731"
    y2="0.30621234"
    gradientUnits="userSpaceOnUse" />
  <linearGradient
    id="linearGradient4555">
   <stop
     style="stop-color:#141618;stop-opacity:1"
     offset="0"
     id="stop4551" />
   <stop
     id="stop4559"
     offset="0.51820582"
     style="stop-color:#686868;stop-opacity:1" />
   <stop
     style="stop-color:#31363b;stop-opacity:1"
     offset="1"
     id="stop4553" />
  </linearGradient>
  <filter
    style="color-interpolation-filters:sRGB"
    id="filter4601"
    x="-0.029695269"
    width="1.0593905"
    y="-0.029553583"
    height="1.0591072">
   <feGaussianBlur
     stdDeviation="0.0004602628"
     id="feGaussianBlur4603" />
  </filter>
 </defs>
 <rect
   style="fill:#dc2928;fill-opacity:1"
   width="40"
   height="40"
   x="4"
   y="4"
   rx="0.72957867"
   ry="0.86167526"
   id="rect2"
   transform="matrix(1.0205018,0,0,1.0205018,1.2522959,-1.019787)" />
 <path
   style="fill:#ffffff"
   d="M 26.452009,3.0622202 C 26.35054,3.3255826 26.272321,3.5368296 26.272321,3.5368296 25.784384,4.8751195 23.57865,11.338659 25.202009,14.538783 c 0,0 0.754518,-0.01351 1.09375,-0.708984 0.195133,-0.391799 -1.412726,6.983839 -0.134766,9.220703 0,0 1.327492,-3.468916 4.035156,-5.273438 0.0077,-0.0062 0.185815,-0.09226 0.171875,-0.101562 -0.580878,-0.497212 -1.283203,-0.242188 -1.283203,-0.242188 0.263331,-7.163878 6.039953,-10.6246927 7.039063,-11.1699219 0,0 0.312823,-0.1801959 0.46875,-0.2675782 1.599315,-1.015379 3.461908,-2.0701031 4.957518,-2.9335937 -2.904376,0 -12.158243,0.042717 -15.098143,0 z M 26.160993,23.050502 c 0,0 3.742159,-0.06367 6.294922,1.945312 0.01084,0.0031 0.144191,0.14635 0.15039,0.13086 0.306704,-0.695477 -0.148437,-1.279297 -0.148437,-1.279297 6.699454,-1.806072 11.64172,2.187758 12.798828,3.24414 l 0.371094,0.324219 c 0,-1.504832 -0.01676,-2.910603 2.62e-4,-4.37955 -0.001,-2.338607 0,-4.589203 0,-6.895613 l -1.177997,0.08376 c -1.392557,0.04182 -7.723905,0.384301 -10.154296,3.009766 0,0 0.28335,0.683389 1.0625,0.75 0.444565,0.03253 -7.536731,1.085303 -9.197266,3.066407 z m 0,0 v 0.002 c 0,0 -3.074769,-2.136011 -3.810547,-5.269531 0,-0.01084 -0.01731,-0.20266 -0.03125,-0.19336 C 21.639179,17.94432 21.62779,18.681408 21.62779,18.681408 15.067747,15.919589 13.787404,9.4545247 13.590681,8.1286265 l -0.05664,-0.5410157 c -0.0538,-1.5628042 -0.181494,-3.5169242 0.01556,-4.5253906 -2.024668,0 -5.5074477,0.013991 -6.5897755,0.013991 l 0.404297,14.7145243 c 0.917012,0.670694 6.4568845,4.582334 10.1171875,3.947266 1e-6,0 0.200827,-0.715074 -0.376953,-1.232422 -0.328389,-0.295849 6.513172,3.120389 9.056641,2.548828 0.0043,0.01017 1.511962,3.609869 0.457031,6.652344 -0.0047,0.0062 -0.09321,0.18164 -0.07617,0.18164 0.766758,0.05111 1.169922,-0.568359 1.169922,-0.568359 3.967006,5.573111 1.810403,11.561907 1.166016,13.056641 l -0.610642,1.505618 c 2.476125,0 9.197014,0 11.352851,0 C 39.384745,43.0043 38.737396,39.8105 38.457871,38.767299 l -0.138672,-0.453125 c -0.526662,-1.497832 -2.828443,-7.550862 -6.048828,-9.033204 0,1e-6 -0.580143,0.472966 -0.408203,1.222657 0.09604,0.429058 -3.284724,-6.485033 -5.701175,-7.453125 z m 0,0.0039 c 0,0 -3.078781,2.503696 -6.337891,2.300781 -0.01084,0 -0.201865,-0.03893 -0.197265,-0.02344 0.153352,0.743494 0.865234,0.964844 0.865234,0.964844 -4.513806,5.351614 -10.8299645,4.789325 -12.2070315,4.595706 L 7.7547425,30.79073 c 1.5832709,3.780913 4.2900455,6.984043 7.7539065,9.175781 l 0.359375,-0.335937 c 1.209774,-0.955701 6.261051,-5.141622 6.587891,-8.648438 0,0 -0.644811,-0.381914 -1.304688,0.0332 -0.376235,0.232238 4.895065,-5.394233 5.009766,-7.960934 z"
   id="path3" />
 <path
   style="display:inline;mix-blend-mode:normal;fill:url(#linearGradient3403);fill-opacity:1;stroke:url(#linearGradient20558);stroke-width:1.16242;stroke-linecap:butt;stroke-linejoin:round;stroke-miterlimit:4;stroke-dasharray:none;stroke-opacity:1"
   d="M 4.7043071,3.9814882 4.6913695,60.80196 H 58.59546 l 1.022155,-2.866369 c 0,0 -23.87537,0.766388 -32.844441,-4.140386 C 16.257548,48.042344 11.401114,4.0978197 11.401114,4.0978197 Z"
   id="path1686"
   transform="matrix(0.7518797,0,0,0.7518797,0.09970467,0.02488636)" />
 <rect
   style="display:inline;fill:none;fill-opacity:1;stroke:url(#linearGradient4557);stroke-width:3.71366;stroke-linejoin:round;stroke-miterlimit:7.8;stroke-dasharray:none;stroke-opacity:0.995146"
   id="rect4539"
   width="62.566689"
   height="62.866646"
   x="1.0323594"
   y="0.59551275"
   ry="6.2447233"
   rx="5.8029528"
   transform="matrix(0.70434793,0,0,0.70291231,1.3629847,1.5442064)" />
 <circle
   style="display:none;fill:#dc2928"
   cx="-32.350708"
   cy="23.5"
   id="circle2"
   r="20" />
</svg>
