<?xml version="1.0" encoding="UTF-8" standalone="no"?>
<!-- Created with Inkscape (http://www.inkscape.org/) -->

<svg
  width="48"
  height="48"
  version="1.1"
  viewBox="0 0 48 48"
  id="svg22"
  xmlns:xlink="http://www.w3.org/1999/xlink"
  xmlns="http://www.w3.org/2000/svg"
  xmlns:svg="http://www.w3.org/2000/svg">
 <defs
   id="defs12">
  <linearGradient
    id="linearGradient1005-3-3"
    x1="5.2535"
    x2="9.3823996"
    y1="15.383"
    y2="2.9421"
    gradientTransform="matrix(0.99999,0,0,0.99999,1.632,-0.61743)"
    gradientUnits="userSpaceOnUse">
   <stop
     stop-color="#fa8200"
     offset="0"
     id="stop2" />
   <stop
     stop-color="#ff9600"
     offset=".36953"
     id="stop4" />
   <stop
     stop-color="#ffb400"
     offset="1"
     id="stop6" />
  </linearGradient>
  <filter
    id="filter4014"
    x="-0.062499932"
    y="-0.057692992"
    width="1.1249999"
    height="1.115386"
    color-interpolation-filters="sRGB">
   <feGaussianBlur
     stdDeviation="1.093751"
     id="feGaussianBlur9" />
  </filter>
  <linearGradient
    xlink:href="#linearGradient3487"
    id="linearGradient3403"
    gradientUnits="userSpaceOnUse"
    x1="6.9491749"
    y1="4.5549412"
    x2="11.215498"
    y2="59.052471" />
  <linearGradient
    id="linearGradient3487">
   <stop
     style="stop-color:#32373c;stop-opacity:1"
     offset="0"
     id="stop3481" />
   <stop
     id="stop3483"
     offset="0.36804965"
     style="stop-color:#1a1a1a;stop-opacity:1" />
   <stop
     style="stop-color:#31363b;stop-opacity:1"
     offset="1"
     id="stop3485" />
  </linearGradient>
  <linearGradient
    xlink:href="#linearGradient20604"
    id="linearGradient20558"
    gradientUnits="userSpaceOnUse"
    x1="25.802212"
    y1="20.373846"
    x2="25.111048"
    y2="58.912758" />
  <linearGradient
    id="linearGradient20604">
   <stop
     id="stop20598"
     offset="0"
     style="stop-color:#3d3d3d;stop-opacity:1" />
   <stop
     style="stop-color:#000000;stop-opacity:1"
     offset="0.61772454"
     id="stop20600" />
   <stop
     id="stop20602"
     offset="1"
     style="stop-color:#3d3d3d;stop-opacity:1" />
  </linearGradient>
  <linearGradient
    gradientTransform="translate(0.36067797,-0.13016949)"
    xlink:href="#linearGradient4555"
    id="linearGradient4557"
    x1="43.499737"
    y1="64.011795"
    x2="44.141731"
    y2="0.30621234"
    gradientUnits="userSpaceOnUse" />
  <linearGradient
    id="linearGradient4555">
   <stop
     style="stop-color:#141618;stop-opacity:1"
     offset="0"
     id="stop4551" />
   <stop
     id="stop4559"
     offset="0.51820582"
     style="stop-color:#686868;stop-opacity:1" />
   <stop
     style="stop-color:#31363b;stop-opacity:1"
     offset="1"
     id="stop4553" />
  </linearGradient>
  <filter
    style="color-interpolation-filters:sRGB"
    id="filter4601"
    x="-0.029678043"
    width="1.0593561"
    y="-0.029536439"
    height="1.0590729">
   <feGaussianBlur
     stdDeviation="1.1184068e-05"
     id="feGaussianBlur4603" />
  </filter>
 </defs>
 <rect
   style="display:inline;fill:#3a4160;fill-opacity:1;fill-rule:evenodd;stroke:none;stroke-width:0.92782;stroke-linejoin:round;stroke-miterlimit:7.8"
   id="rect1192"
   width="42.084602"
   height="42.712109"
   x="3.1629105"
   y="3.0184898"
   ry="0" />
 <path
   style="fill:#cfd7dc;fill-opacity:1;fill-rule:nonzero;stroke:none;stroke-width:1.06521"
   d="m 2.2770818,10.426549 c -0.4410707,0.0042 -0.8821303,0.02081 -1.31903717,0.07489 4.84755837,0.08737 9.70343337,0.482675 14.44696137,1.502117 0.919583,0.120669 1.805866,0.399454 2.696324,0.624149 0.432743,0.10403 0.836361,0.295431 1.269104,0.403616 0.715687,0.183083 1.418893,0.424421 2.126262,0.63247 0.436907,0.191406 0.907092,0.274625 1.335682,0.474353 0.644945,0.270465 1.277421,0.578377 1.901568,0.894613 0.08317,0.0541 0.20805,0.07906 0.233022,0.191406 0.162269,0.682402 0.249655,1.381449 0.445223,2.055528 0.374482,1.256621 0.844678,2.496595 1.518759,3.632546 -0.715686,0.341201 -1.331518,0.853004 -1.86828,1.427219 -0.769783,0.844683 -1.36897,1.864125 -1.626952,2.983431 -0.312069,1.144273 -0.245502,2.708805 0.02492,3.853078 0.291272,1.027765 0.815553,1.772581 1.527087,2.571492 1.427209,1.622787 3.649185,2.567332 5.812899,2.317673 2.608939,-0.212211 5.326071,0.208049 7.618777,1.518761 1.202527,0.694886 2.338475,1.547889 3.195634,2.650551 1.169237,1.327356 2.047215,2.995913 2.717132,4.62286 0.09568,0.245499 0.187241,0.49932 0.320396,0.728174 0,-0.303752 -0.112347,-0.590861 -0.216377,-0.873808 -0.312068,-0.832198 -0.661589,-1.755937 -1.10266,-2.529883 -0.520129,-0.927898 -1.09018,-1.839154 -1.81003,-2.625582 -1.052738,-1.264942 -2.334323,-2.3468 -3.798984,-3.099939 1.11514,0.145635 2.20532,0.470193 3.266375,0.84052 1.135949,0.403616 2.226128,0.944545 3.208125,1.651914 0.965352,0.782266 1.818346,1.72265 2.446658,2.804508 0.32456,0.520124 0.53261,1.210848 0.815553,1.755938 -0.249655,-1.260781 -0.88213,-2.525722 -1.672711,-3.528521 -0.466032,-0.607504 -1.061055,-1.09434 -1.643597,-1.581176 -1.348162,-1.061053 -2.91269,-1.814192 -4.531315,-2.355121 -2.975104,-0.977832 -6.120815,-1.352322 -9.241566,-1.352322 -0.757292,0.0083 -1.514595,-0.0957 -2.226128,-0.357845 -1.63527,-0.59086 -2.929335,-1.822514 -3.332953,-3.516038 -0.515965,-1.839157 0.05825,-4.277497 1.410576,-5.617337 1.098507,-1.123466 2.700488,-1.76426 4.277496,-1.610304 1.622789,0.116509 3.170684,0.686565 4.685279,1.239976 1.244132,0.486836 2.492439,0.96535 3.690801,1.55205 0.03333,0.345362 0.06246,0.703207 0.187241,1.027764 0.170608,0.337041 0.536773,0.49932 0.861322,0.649115 0.619995,0.278787 1.206691,0.524285 1.735136,0.957028 0.391137,0.312075 0.715697,0.699046 1.086027,1.036086 0.124827,-0.199728 0.145624,-0.249659 0.183077,-0.320395 0.02082,-0.01666 0.0044,0.0042 0.02913,-0.02497 0.282943,-0.29543 0.703206,-0.353685 1.061055,-0.532607 -0.932064,-0.233016 -1.847483,-0.570055 -2.45915,-1.335678 -0.09568,-0.116508 0.307915,-0.0083 0.224693,-0.195566 -0.05825,-0.158119 -0.112347,-0.24966 -0.191405,-0.386973 -0.341204,-0.499319 -0.686561,-0.994476 -0.990313,-1.5146 -0.349521,-0.0083 -0.703206,-0.01248 -1.052727,-0.02081 -0.445234,-0.520124 -0.932063,-0.994477 -1.385615,-1.506278 0.03743,0.278786 0.09158,0.561734 0.09158,0.844681 -0.303751,-0.1706 -0.60335,-0.353684 -0.873813,-0.574216 -0.291272,-0.266303 -0.565898,-0.557573 -0.853006,-0.828037 0.03743,0.203888 0.07486,0.411938 0.108194,0.619988 -0.59087,-0.241338 -1.152604,-0.599182 -1.568703,-1.090181 -0.0089,0.120669 -0.01251,0.241337 -0.01661,0.366168 -0.374493,-0.145635 -0.736495,-0.303752 -1.106824,-0.449387 -0.936227,-0.349524 -1.859963,-0.753139 -2.850276,-0.932062 -1.086027,-0.0541 -2.23862,0.09154 -3.266386,-0.353683 -0.71153,-0.274624 -1.294072,-0.836356 -1.631113,-1.514599 -0.624148,-1.156756 -0.536762,-2.534044 -0.357849,-3.790662 -0.79058,-0.524285 -1.643586,-0.940385 -2.525716,-1.294068 -0.407782,-0.145636 -0.794744,-0.357846 -1.223335,-0.453548 -1.547883,-0.511802 -3.133219,-0.902935 -4.7352,-1.202527 -0.699053,-0.153957 -1.410576,-0.224693 -2.105465,-0.37865 -0.665753,-0.128991 -1.343998,-0.195567 -2.013915,-0.278786 -3.199809,-0.366168 -6.4245785,-0.50348 -9.6410201,-0.478514 -0.4410707,0.0042 -0.8821303,-0.0042 -1.3231899,0 z M 24.72563,15.469669 C 18.854469,15.419736 12.966664,15.686041 7.1662454,16.626425 5.6474869,16.880246 4.1204005,17.11326 2.6349305,17.525198 7.6031522,16.826153 12.608816,16.3518 17.626971,16.243614 c 2.446669,-0.01665 4.893327,0.05826 7.327505,0.303752 -0.07907,-0.357845 -0.16228,-0.71569 -0.228846,-1.077697 z m 0.38281,1.589499 c -3.303828,0.307913 -6.541078,1.094341 -9.686789,2.134587 -2.172043,0.744818 -4.302469,1.614465 -6.3579899,2.642231 -0.728178,0.366166 -1.4688366,0.724011 -2.159562,1.160916 0.782264,-0.337041 1.5395669,-0.71569 2.3301587,-1.027764 C 14.373076,19.855354 19.819822,18.374041 25.387219,18.091093 25.283233,17.749893 25.17917,17.40453 25.10844,17.059168 Z m 6.54523,1.081857 c 0.582543,0.262143 1.198374,0.449388 1.776752,0.724012 1.768414,0.769785 3.466097,1.735135 4.959894,2.962626 0.540926,0.449388 1.044411,0.940384 1.481318,1.489636 0.11651,0.12899 0.303751,0.02912 0.453551,0.0541 C 40.158741,23.063486 39.854989,22.86792 39.617815,22.622421 38.427769,21.449019 37.054646,20.462864 35.573329,19.68892 34.325033,19.039805 33.02264,18.473911 31.65367,18.141031 Z m 0,0"
   id="path3658" />
 <path
   style="display:inline;mix-blend-mode:normal;fill:url(#linearGradient3403);fill-opacity:1;stroke:url(#linearGradient20558);stroke-width:1.16242;stroke-linecap:butt;stroke-linejoin:round;stroke-miterlimit:4;stroke-dasharray:none;stroke-opacity:1"
   d="M 4.7043071,3.9814882 4.6913695,60.80196 H 58.59546 l 1.022155,-2.866369 c 0,0 -23.87537,0.766388 -32.844441,-4.140386 C 16.257548,48.042344 11.401114,4.0978197 11.401114,4.0978197 Z"
   id="path1686"
   transform="matrix(0.7518797,0,0,0.7518797,0.09970467,0.02488636)" />
 <rect
   style="display:inline;fill:none;fill-opacity:1;stroke:url(#linearGradient4557);stroke-width:3.71366;stroke-linejoin:round;stroke-miterlimit:7.8;stroke-dasharray:none;stroke-opacity:0.995146"
   id="rect4539"
   width="62.566689"
   height="62.866646"
   x="1.0323594"
   y="0.59551275"
   ry="6.2447233"
   rx="5.8029528"
   transform="matrix(0.70434793,0,0,0.70291231,1.3629847,1.5442064)" />
</svg>
