<?xml version="1.0" encoding="UTF-8" standalone="no"?>
<!-- Created with Inkscape (http://www.inkscape.org/) -->

<svg
  width="48"
  height="48"
  version="1.1"
  viewBox="0 0 48 48"
  id="svg22"
  xmlns:xlink="http://www.w3.org/1999/xlink"
  xmlns="http://www.w3.org/2000/svg"
  xmlns:svg="http://www.w3.org/2000/svg">
 <defs
   id="defs12">
  <linearGradient
    xlink:href="#linearGradient3487"
    id="linearGradient3403"
    gradientUnits="userSpaceOnUse"
    x1="6.9491749"
    y1="4.5549412"
    x2="11.215498"
    y2="59.052471" />
  <linearGradient
    id="linearGradient3487">
   <stop
     style="stop-color:#32373c;stop-opacity:1"
     offset="0"
     id="stop3481" />
   <stop
     id="stop3483"
     offset="0.36804965"
     style="stop-color:#1a1a1a;stop-opacity:1" />
   <stop
     style="stop-color:#31363b;stop-opacity:1"
     offset="1"
     id="stop3485" />
  </linearGradient>
  <linearGradient
    xlink:href="#linearGradient20604"
    id="linearGradient20558"
    gradientUnits="userSpaceOnUse"
    x1="25.802212"
    y1="20.373846"
    x2="25.111048"
    y2="58.912758" />
  <linearGradient
    id="linearGradient20604">
   <stop
     id="stop20598"
     offset="0"
     style="stop-color:#3d3d3d;stop-opacity:1" />
   <stop
     style="stop-color:#000000;stop-opacity:1"
     offset="0.61772454"
     id="stop20600" />
   <stop
     id="stop20602"
     offset="1"
     style="stop-color:#3d3d3d;stop-opacity:1" />
  </linearGradient>
  <filter
    style="color-interpolation-filters:sRGB"
    id="filter20720"
    x="-0.010581794"
    y="-0.010229011"
    width="1.0211631"
    height="1.020458">
   <feGaussianBlur
     stdDeviation="3.4283421e-06"
     id="feGaussianBlur20722" />
  </filter>
  <linearGradient
    gradientTransform="translate(0.36067797,-0.13016949)"
    xlink:href="#linearGradient4555"
    id="linearGradient4557"
    x1="43.499737"
    y1="64.011795"
    x2="44.141731"
    y2="0.30621234"
    gradientUnits="userSpaceOnUse" />
  <linearGradient
    id="linearGradient4555">
   <stop
     style="stop-color:#141618;stop-opacity:1"
     offset="0"
     id="stop4551" />
   <stop
     id="stop4559"
     offset="0.51820582"
     style="stop-color:#686868;stop-opacity:1" />
   <stop
     style="stop-color:#31363b;stop-opacity:1"
     offset="1"
     id="stop4553" />
  </linearGradient>
  <filter
    style="color-interpolation-filters:sRGB"
    id="filter4601"
    x="-0.029677754"
    width="1.0593555"
    y="-0.029536152"
    height="1.0590723">
   <feGaussianBlur
     stdDeviation="3.6634335e-06"
     id="feGaussianBlur4603" />
  </filter>
 </defs>
 <rect
   style="fill:#86be43;fill-opacity:1"
   width="40"
   height="40"
   x="4"
   y="4"
   rx="0.72957867"
   ry="0.86167526"
   id="rect2"
   transform="matrix(1.0205018,0,0,1.0205018,1.2522959,-1.019787)" />
 <g
   id="g1">
  <path
    style="opacity:0.2;stroke-width:1.20964"
    d="m 13.728424,11.073235 v 20.099039 c 0,4.906955 4.048719,8.932905 8.984881,8.932905 h 12.271539 c 4.936164,0 8.984881,-4.02595 8.984881,-8.932905 v -0.744211 -1.20964 -9.049266 c 1.5e-5,-0.0079 1.5e-5,-0.01575 0,-0.02362 0,-3.674361 -2.978657,-6.653018 -6.653017,-6.653018 -1.5454,8.19e-4 -3.04231,0.539607 -4.233739,1.523862 -1.191428,-0.984255 -2.688339,-1.523043 -4.233738,-1.523862 -3.67436,0 -6.653018,2.978657 -6.653018,6.653017 v 11.491576 h 4.838558 v -5.091354 -6.400222 c 0,-1.002098 0.812362,-1.814459 1.81446,-1.814459 1.002098,0 1.814459,0.812361 1.814459,1.814459 v 6.400222 5.091354 h 4.838558 v -5.091354 -6.376596 c 1.5e-5,-0.0079 1.5e-5,-0.01575 0,-0.02362 0,-1.002098 0.812362,-1.814459 1.81446,-1.814459 1.002098,0 1.814459,0.812361 1.814459,1.814459 v 6.400817 2.672074 1.20964 0.382737 c 0,2.493153 -2.002166,4.455821 -4.510161,4.455821 H 23.077143 c -2.507995,0 -4.51225,-1.962669 -4.510161,-4.455821 V 11.073235 Z"
    id="path2" />
  <path
    style="fill:#ffffff;stroke-width:1.20964"
    d="M 13.728424,9.8635949 V 29.962634 c 0,4.906955 4.048719,8.932905 8.984881,8.932905 h 12.271539 c 4.936164,0 8.984881,-4.02595 8.984881,-8.932905 v -0.744211 -1.20964 -9.049266 c 1.5e-5,-0.0079 1.5e-5,-0.01575 0,-0.02362 0,-3.674361 -2.978657,-6.653019 -6.653017,-6.653019 -1.5454,8.19e-4 -3.04231,0.539607 -4.233739,1.523863 -1.191428,-0.984256 -2.688339,-1.523044 -4.233738,-1.523863 -3.67436,0 -6.653018,2.978658 -6.653018,6.653018 v 11.491571 h 4.838558 v -5.091353 -6.400222 c 0,-1.002098 0.812362,-1.81446 1.81446,-1.81446 1.002098,0 1.814459,0.812362 1.814459,1.81446 v 6.400222 5.091353 h 4.838558 v -5.091353 -6.376597 c 1.5e-5,-0.0079 1.5e-5,-0.01575 0,-0.02362 0,-1.002098 0.812362,-1.814459 1.81446,-1.814459 1.002098,0 1.814459,0.812361 1.814459,1.814459 v 6.400816 2.672074 1.20964 0.382737 c 0,2.493153 -2.002166,4.455821 -4.510161,4.455821 H 23.077143 c -2.507995,0 -4.51225,-1.962669 -4.510161,-4.455821 V 9.8635949 Z"
    id="path3" />
 </g>
 <path
   style="display:inline;mix-blend-mode:normal;fill:url(#linearGradient3403);fill-opacity:1;stroke:url(#linearGradient20558);stroke-width:1.16242;stroke-linecap:butt;stroke-linejoin:round;stroke-miterlimit:4;stroke-dasharray:none;stroke-opacity:1"
   d="M 4.7043071,3.9814882 4.6913695,60.80196 H 58.59546 l 1.022155,-2.866369 c 0,0 -23.87537,0.766388 -32.844441,-4.140386 C 16.257548,48.042344 11.401114,4.0978197 11.401114,4.0978197 Z"
   id="path1686"
   transform="matrix(0.7518797,0,0,0.7518797,0.09970467,0.02488636)" />
 <rect
   style="display:inline;fill:none;fill-opacity:1;stroke:url(#linearGradient4557);stroke-width:3.71366;stroke-linejoin:round;stroke-miterlimit:7.8;stroke-dasharray:none;stroke-opacity:0.995146"
   id="rect4539"
   width="62.566689"
   height="62.866646"
   x="1.0323594"
   y="0.59551275"
   ry="6.2447233"
   rx="5.8029528"
   transform="matrix(0.70434793,0,0,0.70291231,1.3629847,1.5442064)" />
</svg>
