<?xml version="1.0" encoding="UTF-8" standalone="no"?>
<!-- Created with Inkscape (http://www.inkscape.org/) -->

<svg
  width="48"
  height="48"
  version="1.1"
  viewBox="0 0 48 48"
  id="svg22"
  xmlns:xlink="http://www.w3.org/1999/xlink"
  xmlns="http://www.w3.org/2000/svg"
  xmlns:svg="http://www.w3.org/2000/svg">
 <defs
   id="defs12">
  <linearGradient
    id="linearGradient1005-3-3"
    x1="5.2535"
    x2="9.3823996"
    y1="15.383"
    y2="2.9421"
    gradientTransform="matrix(0.99999,0,0,0.99999,1.632,-0.61743)"
    gradientUnits="userSpaceOnUse">
   <stop
     stop-color="#fa8200"
     offset="0"
     id="stop2" />
   <stop
     stop-color="#ff9600"
     offset=".36953"
     id="stop4" />
   <stop
     stop-color="#ffb400"
     offset="1"
     id="stop6" />
  </linearGradient>
  <filter
    id="filter4014"
    x="-0.062499932"
    y="-0.057692992"
    width="1.1249999"
    height="1.115386"
    color-interpolation-filters="sRGB">
   <feGaussianBlur
     stdDeviation="1.093751"
     id="feGaussianBlur9" />
  </filter>
  <linearGradient
    xlink:href="#linearGradient3487"
    id="linearGradient3403"
    gradientUnits="userSpaceOnUse"
    x1="6.9491749"
    y1="4.5549412"
    x2="11.215498"
    y2="59.052471" />
  <linearGradient
    id="linearGradient3487">
   <stop
     style="stop-color:#32373c;stop-opacity:1"
     offset="0"
     id="stop3481" />
   <stop
     id="stop3483"
     offset="0.36804965"
     style="stop-color:#1a1a1a;stop-opacity:1" />
   <stop
     style="stop-color:#31363b;stop-opacity:1"
     offset="1"
     id="stop3485" />
  </linearGradient>
  <linearGradient
    xlink:href="#linearGradient20604"
    id="linearGradient20558"
    gradientUnits="userSpaceOnUse"
    x1="25.802212"
    y1="20.373846"
    x2="25.111048"
    y2="58.912758" />
  <linearGradient
    id="linearGradient20604">
   <stop
     id="stop20598"
     offset="0"
     style="stop-color:#3d3d3d;stop-opacity:1" />
   <stop
     style="stop-color:#000000;stop-opacity:1"
     offset="0.61772454"
     id="stop20600" />
   <stop
     id="stop20602"
     offset="1"
     style="stop-color:#3d3d3d;stop-opacity:1" />
  </linearGradient>
  <linearGradient
    gradientTransform="translate(0.36067797,-0.13016949)"
    xlink:href="#linearGradient4555"
    id="linearGradient4557"
    x1="43.499737"
    y1="64.011795"
    x2="44.141731"
    y2="0.30621234"
    gradientUnits="userSpaceOnUse" />
  <linearGradient
    id="linearGradient4555">
   <stop
     style="stop-color:#141618;stop-opacity:1"
     offset="0"
     id="stop4551" />
   <stop
     id="stop4559"
     offset="0.51820582"
     style="stop-color:#686868;stop-opacity:1" />
   <stop
     style="stop-color:#31363b;stop-opacity:1"
     offset="1"
     id="stop4553" />
  </linearGradient>
  <filter
    style="color-interpolation-filters:sRGB"
    id="filter4601"
    x="-0.029677932"
    width="1.0593559"
    y="-0.029536329"
    height="1.0590727">
   <feGaussianBlur
     stdDeviation="8.3032223e-06"
     id="feGaussianBlur4603" />
  </filter>
  <filter
    id="a-1"
    color-interpolation-filters="sRGB"
    x="-0.079999737"
    y="-0.080003933"
    width="1.1599995"
    height="1.1933428">
   <feFlood
     flood-opacity=".196"
     flood-color="#000"
     result="flood"
     id="feFlood1852-2" />
   <feComposite
     in="flood"
     in2="SourceGraphic"
     operator="in"
     result="composite1"
     id="feComposite1854-7" />
   <feGaussianBlur
     in="composite1"
     stdDeviation="1"
     result="blur"
     id="feGaussianBlur1856-0" />
   <feOffset
     dx="0"
     dy="1"
     result="offset"
     id="feOffset1858-9" />
   <feComposite
     in="SourceGraphic"
     in2="offset"
     operator="over"
     result="composite2"
     id="feComposite1860-3" />
  </filter>
  <filter
    id="a-1-0"
    color-interpolation-filters="sRGB"
    x="-0.079999737"
    y="-0.080003958"
    width="1.1599995"
    height="1.1933429">
   <feFlood
     flood-opacity=".196"
     flood-color="#000"
     result="flood"
     id="feFlood1852-2-6" />
   <feComposite
     in="flood"
     in2="SourceGraphic"
     operator="in"
     result="composite1"
     id="feComposite1854-7-1" />
   <feGaussianBlur
     in="composite1"
     stdDeviation="1"
     result="blur"
     id="feGaussianBlur1856-0-5" />
   <feOffset
     dx="0"
     dy="1"
     result="offset"
     id="feOffset1858-9-9" />
   <feComposite
     in="SourceGraphic"
     in2="offset"
     operator="over"
     result="composite2"
     id="feComposite1860-3-4" />
  </filter>
  <filter
    id="filter902"
    color-interpolation-filters="sRGB"
    x="-0.079999737"
    y="-0.11660674"
    width="1.1599995"
    height="1.2817996">
   <feFlood
     flood-opacity=".196"
     flood-color="#000"
     result="flood"
     id="feFlood892" />
   <feComposite
     in="flood"
     in2="SourceGraphic"
     operator="in"
     result="composite1"
     id="feComposite894" />
   <feGaussianBlur
     in="composite1"
     stdDeviation="1"
     result="blur"
     id="feGaussianBlur896" />
   <feOffset
     dx="0"
     dy="1"
     result="offset"
     id="feOffset898" />
   <feComposite
     in="SourceGraphic"
     in2="offset"
     operator="over"
     result="composite2"
     id="feComposite900" />
  </filter>
  <filter
    id="filter914"
    color-interpolation-filters="sRGB"
    x="-0.079999737"
    y="-0.11660674"
    width="1.1599995"
    height="1.2817996">
   <feFlood
     flood-opacity=".196"
     flood-color="#000"
     result="flood"
     id="feFlood904" />
   <feComposite
     in="flood"
     in2="SourceGraphic"
     operator="in"
     result="composite1"
     id="feComposite906" />
   <feGaussianBlur
     in="composite1"
     stdDeviation="1"
     result="blur"
     id="feGaussianBlur908" />
   <feOffset
     dx="0"
     dy="1"
     result="offset"
     id="feOffset910" />
   <feComposite
     in="SourceGraphic"
     in2="offset"
     operator="over"
     result="composite2"
     id="feComposite912" />
  </filter>
  <filter
    id="filter926"
    color-interpolation-filters="sRGB"
    x="-0.079999737"
    y="-0.11660674"
    width="1.1599995"
    height="1.2817996">
   <feFlood
     flood-opacity=".196"
     flood-color="#000"
     result="flood"
     id="feFlood916" />
   <feComposite
     in="flood"
     in2="SourceGraphic"
     operator="in"
     result="composite1"
     id="feComposite918" />
   <feGaussianBlur
     in="composite1"
     stdDeviation="1"
     result="blur"
     id="feGaussianBlur920" />
   <feOffset
     dx="0"
     dy="1"
     result="offset"
     id="feOffset922" />
   <feComposite
     in="SourceGraphic"
     in2="offset"
     operator="over"
     result="composite2"
     id="feComposite924" />
  </filter>
  <filter
    id="filter938"
    color-interpolation-filters="sRGB"
    x="-0.079999737"
    y="-0.11660674"
    width="1.1599995"
    height="1.2817996">
   <feFlood
     flood-opacity=".196"
     flood-color="#000"
     result="flood"
     id="feFlood928" />
   <feComposite
     in="flood"
     in2="SourceGraphic"
     operator="in"
     result="composite1"
     id="feComposite930" />
   <feGaussianBlur
     in="composite1"
     stdDeviation="1"
     result="blur"
     id="feGaussianBlur932" />
   <feOffset
     dx="0"
     dy="1"
     result="offset"
     id="feOffset934" />
   <feComposite
     in="SourceGraphic"
     in2="offset"
     operator="over"
     result="composite2"
     id="feComposite936" />
  </filter>
 </defs>
 <rect
   style="display:inline;fill:#0079c1;fill-opacity:1;fill-rule:evenodd;stroke:none;stroke-width:0.92782;stroke-linejoin:round;stroke-miterlimit:7.8"
   id="rect1192"
   width="42.084602"
   height="42.712109"
   x="3.1629105"
   y="3.0184898"
   ry="0" />
 <g
   id="g1470"
   transform="matrix(1.0956199,0,0,1.0956199,-4.2902995,-2.3157679)">
  <path
    d="m 24.702,10 c -3.342,0.109 8.905,17.006 -0.528,15.927 7.866,2.179 9.668,-7.973 8.061,-12.94 -1.59,-4.92 -2.418,-1.85 -7.16,-2.943 A 1.477,1.477 0 0 0 24.702,10 Z m -9.372,2.356 c -5.17,-0.007 -2.507,1.729 -5.011,5.901 -2.392,3.985 18.894,-3.152 14.826,5.764 4.503,-6.807 -4.596,-11.658 -9.816,-11.665 z m 3.637,7.628 c -4.137,-0.01 -8.3,4.69 -9.464,8.257 -1.605,4.915 0.87,2.918 4.063,6.59 3.05,3.506 2.843,-18.946 10.065,-12.322 -1.43,-1.796 -3.045,-2.521 -4.664,-2.525 z m 17.782,0.798 c -2.793,0.267 -12.981,13.217 -14.687,4.813 0.359,8.154 10.573,6.73 14.8,3.668 4.186,-3.034 1.01,-2.873 0.584,-7.721 -0.051,-0.579 -0.299,-0.798 -0.697,-0.76 z m -15.023,2.7 c -7.644,2.86 -3.134,12.135 1.085,15.208 4.18,3.045 3.045,0.074 7.523,-1.83 4.278,-1.817 -17.14,-8.557 -8.609,-13.379 z"
    fill-rule="evenodd"
    opacity="0.2"
    id="path1871-6-9"
    transform="matrix(1.0532022,0,0,1.0532022,4.2407204,-1.4225303)"
    style="filter:url(#a-1-0)" />
  <path
    d="m 24.702,9 c -3.342,0.109 8.905,17.006 -0.528,15.927 7.866,2.179 9.668,-7.973 8.061,-12.94 -1.59,-4.92 -2.418,-1.85 -7.16,-2.943 A 1.477,1.477 0 0 0 24.703,9 Z m -9.372,2.356 c -5.17,-0.007 -2.507,1.729 -5.011,5.901 -2.392,3.985 18.894,-3.152 14.826,5.764 4.503,-6.807 -4.596,-11.658 -9.816,-11.665 z m 3.637,7.628 c -4.137,-0.01 -8.3,4.69 -9.464,8.257 -1.605,4.915 0.87,2.918 4.063,6.59 3.05,3.506 2.843,-18.946 10.065,-12.322 -1.43,-1.796 -3.045,-2.521 -4.664,-2.525 z m 17.782,0.798 c -2.793,0.267 -12.981,13.217 -14.687,4.813 0.359,8.154 10.573,6.73 14.8,3.668 4.186,-3.034 1.01,-2.873 0.584,-7.721 -0.051,-0.579 -0.299,-0.798 -0.697,-0.76 z m -15.023,2.7 c -7.644,2.86 -3.134,12.135 1.085,15.208 4.18,3.045 3.045,0.074 7.523,-1.83 4.278,-1.817 -17.14,-8.557 -8.609,-13.379 z"
    fill-rule="evenodd"
    fill="#ffffff"
    id="path1873-1"
    transform="matrix(1.0532022,0,0,1.0532022,4.2407204,-1.4225303)"
    style="filter:url(#a-1-0)" />
 </g>
 <path
   style="display:inline;mix-blend-mode:normal;fill:url(#linearGradient3403);fill-opacity:1;stroke:url(#linearGradient20558);stroke-width:1.16242;stroke-linecap:butt;stroke-linejoin:round;stroke-miterlimit:4;stroke-dasharray:none;stroke-opacity:1"
   d="M 4.7043071,3.9814882 4.6913695,60.80196 H 58.59546 l 1.022155,-2.866369 c 0,0 -23.87537,0.766388 -32.844441,-4.140386 C 16.257548,48.042344 11.401114,4.0978197 11.401114,4.0978197 Z"
   id="path1686"
   transform="matrix(0.7518797,0,0,0.7518797,0.09970467,0.02488636)" />
 <rect
   style="display:inline;fill:none;fill-opacity:1;stroke:url(#linearGradient4557);stroke-width:3.71366;stroke-linejoin:round;stroke-miterlimit:7.8;stroke-dasharray:none;stroke-opacity:0.995146"
   id="rect4539"
   width="62.566689"
   height="62.866646"
   x="1.0323594"
   y="0.59551275"
   ry="6.2447233"
   rx="5.8029528"
   transform="matrix(0.70434793,0,0,0.70291231,1.3629847,1.5442064)" />
</svg>
