<?xml version="1.0" encoding="UTF-8" standalone="no"?>
<!-- Created with Inkscape (http://www.inkscape.org/) -->

<svg
  width="48"
  height="48"
  version="1.1"
  viewBox="0 0 48 48"
  id="svg22"
  xmlns:xlink="http://www.w3.org/1999/xlink"
  xmlns="http://www.w3.org/2000/svg"
  xmlns:svg="http://www.w3.org/2000/svg">
 <defs
   id="defs12">
  <linearGradient
    id="linearGradient917">
   <stop
     style="stop-color:#000000;stop-opacity:0.99607843"
     offset="0"
     id="stop913" />
   <stop
     style="stop-color:#353a3f;stop-opacity:0.99607843"
     offset="1"
     id="stop915" />
  </linearGradient>
  <linearGradient
    id="linearGradient1005-3-3"
    x1="5.2535"
    x2="9.3823996"
    y1="15.383"
    y2="2.9421"
    gradientTransform="matrix(0.99999,0,0,0.99999,1.632,-0.61743)"
    gradientUnits="userSpaceOnUse">
   <stop
     stop-color="#fa8200"
     offset="0"
     id="stop2" />
   <stop
     stop-color="#ff9600"
     offset=".36953"
     id="stop4" />
   <stop
     stop-color="#ffb400"
     offset="1"
     id="stop6" />
  </linearGradient>
  <filter
    id="filter4014"
    x="-0.062499932"
    y="-0.057692992"
    width="1.1249999"
    height="1.115386"
    color-interpolation-filters="sRGB">
   <feGaussianBlur
     stdDeviation="1.093751"
     id="feGaussianBlur9" />
  </filter>
  <linearGradient
    xlink:href="#linearGradient3487"
    id="linearGradient3403"
    gradientUnits="userSpaceOnUse"
    x1="6.9491749"
    y1="4.5549412"
    x2="11.215498"
    y2="59.052471" />
  <linearGradient
    id="linearGradient3487">
   <stop
     style="stop-color:#32373c;stop-opacity:1"
     offset="0"
     id="stop3481" />
   <stop
     id="stop3483"
     offset="0.36804965"
     style="stop-color:#1a1a1a;stop-opacity:1" />
   <stop
     style="stop-color:#31363b;stop-opacity:1"
     offset="1"
     id="stop3485" />
  </linearGradient>
  <linearGradient
    xlink:href="#linearGradient20604"
    id="linearGradient20558"
    gradientUnits="userSpaceOnUse"
    x1="25.802212"
    y1="20.373846"
    x2="25.111048"
    y2="58.912758" />
  <linearGradient
    id="linearGradient20604">
   <stop
     id="stop20598"
     offset="0"
     style="stop-color:#3d3d3d;stop-opacity:1" />
   <stop
     style="stop-color:#000000;stop-opacity:1"
     offset="0.61772454"
     id="stop20600" />
   <stop
     id="stop20602"
     offset="1"
     style="stop-color:#3d3d3d;stop-opacity:1" />
  </linearGradient>
  <linearGradient
    gradientTransform="translate(0.36067797,-0.13016949)"
    xlink:href="#linearGradient4555"
    id="linearGradient4557"
    x1="43.499737"
    y1="64.011795"
    x2="44.141731"
    y2="0.30621234"
    gradientUnits="userSpaceOnUse" />
  <linearGradient
    id="linearGradient4555">
   <stop
     style="stop-color:#141618;stop-opacity:1"
     offset="0"
     id="stop4551" />
   <stop
     id="stop4559"
     offset="0.51820582"
     style="stop-color:#686868;stop-opacity:1" />
   <stop
     style="stop-color:#31363b;stop-opacity:1"
     offset="1"
     id="stop4553" />
  </linearGradient>
  <filter
    style="color-interpolation-filters:sRGB"
    id="filter4601"
    x="-0.029702747"
    width="1.0594055"
    y="-0.029561026"
    height="1.0591221">
   <feGaussianBlur
     stdDeviation="0.00065521931"
     id="feGaussianBlur4603" />
  </filter>
  <linearGradient
    xlink:href="#linearGradient917"
    id="linearGradient919"
    x1="7.400631"
    y1="41.743092"
    x2="33.063145"
    y2="7.1074457"
    gradientUnits="userSpaceOnUse" />
 </defs>
 <rect
   style="display:inline;fill:url(#linearGradient919);fill-opacity:1;fill-rule:evenodd;stroke:none;stroke-width:0.92782;stroke-linejoin:round;stroke-miterlimit:7.8"
   id="rect1192"
   width="42.084602"
   height="42.712109"
   x="3.1629105"
   y="3.0184898"
   ry="0" />
 <path
   fill="#35b9ab"
   d="m 37.804366,16.007867 c -1.583897,0 -3.123767,0.457721 -4.495107,1.239293 -1.333805,0.759682 -2.496196,1.790334 -3.531557,2.916032 a 25.196912,25.19691 0 0 0 -1.180073,1.384688 39.952882,39.952882 0 0 0 -1.058458,1.402658 c -0.175026,0.241131 -0.34897,0.482952 -0.523275,0.725006 -0.347523,0.482837 -0.701186,0.96602 -1.105728,1.403463 a 30.942822,30.942822 0 0 1 -1.152649,1.181117 c -0.983032,0.955305 -2.032109,1.863374 -3.190891,2.600132 -0.916272,0.58249 -1.988077,1.137563 -3.100669,1.137563 -2.983383,0 -5.657854,-2.365567 -5.657854,-5.966053 0,-3.600138 2.571621,-5.554644 5.657854,-5.554644 1.788155,0 3.369165,0.762908 4.903262,2.082964 l -0.821001,0.844474 2.007929,0.507491 2.007567,0.507263 -0.564412,-1.99241 -0.564416,-1.992408 -0.898226,0.924199 c -1.569461,-1.403811 -3.520011,-2.52755 -5.96785,-2.52755 -4.01225,0 -7.303825,2.880202 -7.303825,7.303502 0,4.217541 3.291575,7.303043 6.995272,7.303043 1.53229,0 3.015864,-0.456457 4.331264,-1.231001 1.179354,-0.695277 2.20894,-1.612337 3.154082,-2.596211 0.319016,-0.331686 0.629012,-0.671894 0.936842,-1.013603 0.398769,-0.443436 0.773361,-0.883416 1.107537,-1.386876 l 0.440633,-0.663253 c 0.270297,-0.406683 0.520024,-0.809798 0.809811,-1.205307 0.533739,-0.729036 1.093099,-1.439985 1.695047,-2.113724 1.009739,-1.130651 2.153721,-2.182618 3.501604,-2.896332 1.069284,-0.566247 2.252604,-0.883416 3.464436,-0.883416 4.217951,0 6.58351,2.931703 6.58351,6.68622 0,3.497601 -2.263073,6.377807 -6.172106,6.377807 -2.234202,0 -4.19305,-0.605879 -6.256557,-2.389992 l 0.955967,-1.162454 -2.042572,-0.339516 -2.042934,-0.339635 0.727172,1.938952 0.72789,1.938953 0.812339,-0.98733 c 1.999628,1.799434 4.179697,2.986999 7.015839,2.986999 4.731484,0 7.817359,-3.600482 7.817359,-8.126551 0,-4.731943 -3.188366,-8.023553 -8.023059,-8.023553"
   id="path2"
   style="stroke-width:0.270019" />
 <path
   style="display:inline;mix-blend-mode:normal;fill:url(#linearGradient3403);fill-opacity:1;stroke:url(#linearGradient20558);stroke-width:1.16242;stroke-linecap:butt;stroke-linejoin:round;stroke-miterlimit:4;stroke-dasharray:none;stroke-opacity:1"
   d="M 4.7043071,3.9814882 4.6913695,60.80196 H 58.59546 l 1.022155,-2.866369 c 0,0 -23.87537,0.766388 -32.844441,-4.140386 C 16.257548,48.042344 11.401114,4.0978197 11.401114,4.0978197 Z"
   id="path1686"
   transform="matrix(0.7518797,0,0,0.7518797,0.09970467,0.02488636)" />
 <rect
   style="display:inline;fill:none;fill-opacity:1;stroke:url(#linearGradient4557);stroke-width:3.71366;stroke-linejoin:round;stroke-miterlimit:7.8;stroke-dasharray:none;stroke-opacity:0.995146"
   id="rect4539"
   width="62.566689"
   height="62.866646"
   x="1.0323594"
   y="0.59551275"
   ry="6.2447233"
   rx="5.8029528"
   transform="matrix(0.70434793,0,0,0.70291231,1.3629847,1.5442064)" />
</svg>
