<?xml version="1.0" encoding="UTF-8" standalone="no"?>
<!-- Created with Inkscape (http://www.inkscape.org/) -->

<svg
  width="48"
  height="48"
  version="1.1"
  viewBox="0 0 48 48"
  id="svg22"
  xmlns:xlink="http://www.w3.org/1999/xlink"
  xmlns="http://www.w3.org/2000/svg"
  xmlns:svg="http://www.w3.org/2000/svg">
 <defs
   id="defs12">
  <linearGradient
    xlink:href="#linearGradient3487"
    id="linearGradient3403"
    gradientUnits="userSpaceOnUse"
    x1="6.9491749"
    y1="4.5549412"
    x2="11.215498"
    y2="59.052471" />
  <linearGradient
    id="linearGradient3487">
   <stop
     style="stop-color:#32373c;stop-opacity:1"
     offset="0"
     id="stop3481" />
   <stop
     id="stop3483"
     offset="0.36804965"
     style="stop-color:#1a1a1a;stop-opacity:1" />
   <stop
     style="stop-color:#31363b;stop-opacity:1"
     offset="1"
     id="stop3485" />
  </linearGradient>
  <linearGradient
    xlink:href="#linearGradient20604"
    id="linearGradient20558"
    gradientUnits="userSpaceOnUse"
    x1="25.802212"
    y1="20.373846"
    x2="25.111048"
    y2="58.912758" />
  <linearGradient
    id="linearGradient20604">
   <stop
     id="stop20598"
     offset="0"
     style="stop-color:#3d3d3d;stop-opacity:1" />
   <stop
     style="stop-color:#000000;stop-opacity:1"
     offset="0.61772454"
     id="stop20600" />
   <stop
     id="stop20602"
     offset="1"
     style="stop-color:#3d3d3d;stop-opacity:1" />
  </linearGradient>
  <filter
    style="color-interpolation-filters:sRGB"
    id="filter20720"
    x="-0.010581657"
    y="-0.010228878"
    width="1.0211629"
    height="1.0204578">
   <feGaussianBlur
     stdDeviation="2.9013408e-07"
     id="feGaussianBlur20722" />
  </filter>
  <linearGradient
    gradientTransform="translate(0.36067797,-0.13016949)"
    xlink:href="#linearGradient4555"
    id="linearGradient4557"
    x1="43.499737"
    y1="64.011795"
    x2="44.141731"
    y2="0.30621234"
    gradientUnits="userSpaceOnUse" />
  <linearGradient
    id="linearGradient4555">
   <stop
     style="stop-color:#141618;stop-opacity:1"
     offset="0"
     id="stop4551" />
   <stop
     id="stop4559"
     offset="0.51820582"
     style="stop-color:#686868;stop-opacity:1" />
   <stop
     style="stop-color:#31363b;stop-opacity:1"
     offset="1"
     id="stop4553" />
  </linearGradient>
  <filter
    style="color-interpolation-filters:sRGB"
    id="filter4601"
    x="-0.029677625"
    width="1.0593553"
    y="-0.029536024"
    height="1.059072">
   <feGaussianBlur
     stdDeviation="3.1002942e-07"
     id="feGaussianBlur4603" />
  </filter>
 </defs>
 <rect
   style="display:inline;fill:#5a8bff;fill-opacity:1;fill-rule:evenodd;stroke:none;stroke-width:0.92782;stroke-linejoin:round;stroke-miterlimit:7.8"
   id="rect1192"
   width="42.084602"
   height="42.712109"
   x="3.1629105"
   y="3.0184898"
   ry="0" />
 <path
   style="opacity:0.2"
   d="m 29.36429,10.999886 c -3.402386,0.0048 -6.572272,1.515133 -8.830078,4.011719 -0.05034,-0.0013 -0.100029,-0.01129 -0.150391,-0.01172 h -0.0098 -0.0078 c -4.946873,0 -9,4.053127 -9,9 0,3.971951 2.617703,7.355033 6.208984,8.537109 0.687244,2.5552 3.032194,4.462891 5.791016,4.462891 3.290021,0 6,-2.709979 6,-6 0,-0.529884 -0.07729,-1.04231 -0.208984,-1.533203 l 6.416015,-4.101563 -2.154297,-3.36914 -6.527343,4.171875 c -0.993535,-0.729533 -2.210718,-1.167969 -3.525391,-1.167969 -2.348646,0 -4.396311,1.38389 -5.378906,3.371094 -1.560832,-0.83689 -2.621094,-2.456792 -2.621094,-4.371094 0,-2.783107 2.211855,-4.996813 4.994141,-5 0.225365,0.0024 0.450839,0.01994 0.673828,0.05273 l 1.189453,0.175782 0.71289,-0.96875 c 1.505532,-2.046518 3.887248,-3.25494 6.427735,-3.259762 h 0.0039 c 3.220734,0.0051 6.112562,1.929354 7.361328,4.898438 l 0.408203,0.970703 1.033204,0.21289 c 1.871842,0.384418 3.195196,2.007077 3.195318,3.917969 0,2.231489 -1.765164,3.997882 -3.996094,4 h -2.003906 a 2.0002,2.0002 0 1 0 0,4 h 1.996094 0.0039 0.142578 a 2.0002,2.0002 0 0 0 0.306641,-0.02344 c 4.187312,-0.236792 7.550781,-3.733477 7.550781,-7.97656 -2.19e-4,-3.43521 -2.261756,-6.36103 -5.441406,-7.460938 -2.046158,-3.946989 -6.059633,-6.534184 -10.556641,-6.539062 h -0.002 z m -5.998047,18 c 1.128383,0 2,0.871617 2,2 0,1.128383 -0.871617,2 -2,2 -1.128383,0 -2,-0.871617 -2,-2 0,-1.128383 0.871617,-2 2,-2 z"
   id="path3" />
 <path
   style="fill:#ffffff"
   d="m 29.36429,9.9998855 c -3.402386,0.0048 -6.572272,1.5151335 -8.830078,4.0117195 -0.05034,-0.0013 -0.100029,-0.01129 -0.150391,-0.01172 h -0.0098 -0.0078 c -4.946873,0 -9,4.053127 -9,9 0,4.497982 3.354796,8.245447 7.681641,8.890625 v -4.083984 c -2.129718,-0.57379 -3.681641,-2.482014 -3.681641,-4.806641 0,-2.783107 2.211855,-4.996813 4.994141,-5 0.225365,0.0024 0.450839,0.01994 0.673828,0.05273 l 1.189453,0.175782 0.71289,-0.96875 c 1.505532,-2.046522 3.887248,-3.25494 6.427735,-3.259762 h 0.0039 c 3.220734,0.0051 6.112562,1.929354 7.361328,4.898438 l 0.408203,0.970703 1.033204,0.21289 c 1.871837,0.384418 3.195196,2.007077 3.195318,3.917969 0,2.231489 -1.765164,3.997882 -3.996094,4 -0.107871,-1.68e-4 -0.214835,0.185857 -0.322265,0.177 v 3.789797 c 0.104771,0.01107 0.20838,0.03304 0.314453,0.0332 h 0.002 0.0019 c 4.394589,0 8,-3.605411 8,-8 -2.19e-4,-3.43521 -2.261756,-6.36103 -5.441406,-7.460938 -2.046158,-3.946989 -6.059633,-6.534181 -10.556641,-6.5390595 h -0.002 z"
   id="path4" />
 <circle
   style="fill:none;stroke:#ffffff;stroke-width:3.99977"
   cx="23.366241"
   cy="29.999886"
   r="4"
   id="circle4" />
 <path
   style="fill:none;stroke:#ffffff;stroke-width:4"
   d="m 34.495368,22.680296 -8.096044,5.176131"
   id="path5" />
 <path
   style="fill:none;stroke:#ffffff;stroke-width:4;stroke-linecap:round"
   d="m 35.366243,29.999886 h 2.142"
   id="path6" />
 <path
   style="display:inline;mix-blend-mode:normal;fill:url(#linearGradient3403);fill-opacity:1;stroke:url(#linearGradient20558);stroke-width:1.16242;stroke-linecap:butt;stroke-linejoin:round;stroke-miterlimit:4;stroke-dasharray:none;stroke-opacity:1"
   d="M 4.7043071,3.9814882 4.6913695,60.80196 H 58.59546 l 1.022155,-2.866369 c 0,0 -23.87537,0.766388 -32.844441,-4.140386 C 16.257548,48.042344 11.401114,4.0978197 11.401114,4.0978197 Z"
   id="path1686"
   transform="matrix(0.7518797,0,0,0.7518797,0.09970467,0.02488636)" />
 <rect
   style="display:inline;fill:none;fill-opacity:1;stroke:url(#linearGradient4557);stroke-width:3.71366;stroke-linejoin:round;stroke-miterlimit:7.8;stroke-dasharray:none;stroke-opacity:0.995146"
   id="rect4539"
   width="62.566689"
   height="62.866646"
   x="1.0323594"
   y="0.59551275"
   ry="6.2447233"
   rx="5.8029528"
   transform="matrix(0.70434793,0,0,0.70291231,1.3629847,1.5442064)" />
</svg>
