<?xml version="1.0" encoding="UTF-8" standalone="no"?>
<!-- Created with Inkscape (http://www.inkscape.org/) -->

<svg
  width="48"
  height="48"
  version="1.1"
  viewBox="0 0 48 48"
  id="svg22"
  xmlns:xlink="http://www.w3.org/1999/xlink"
  xmlns="http://www.w3.org/2000/svg"
  xmlns:svg="http://www.w3.org/2000/svg">
 <defs
   id="defs12">
  <linearGradient
    xlink:href="#linearGradient3487"
    id="linearGradient3403"
    gradientUnits="userSpaceOnUse"
    x1="6.9491749"
    y1="4.5549412"
    x2="11.215498"
    y2="59.052471" />
  <linearGradient
    id="linearGradient3487">
   <stop
     style="stop-color:#32373c;stop-opacity:1"
     offset="0"
     id="stop3481" />
   <stop
     id="stop3483"
     offset="0.36804965"
     style="stop-color:#1a1a1a;stop-opacity:1" />
   <stop
     style="stop-color:#31363b;stop-opacity:1"
     offset="1"
     id="stop3485" />
  </linearGradient>
  <linearGradient
    xlink:href="#linearGradient20604"
    id="linearGradient20558"
    gradientUnits="userSpaceOnUse"
    x1="25.802212"
    y1="20.373846"
    x2="25.111048"
    y2="58.912758" />
  <linearGradient
    id="linearGradient20604">
   <stop
     id="stop20598"
     offset="0"
     style="stop-color:#3d3d3d;stop-opacity:1" />
   <stop
     style="stop-color:#000000;stop-opacity:1"
     offset="0.61772454"
     id="stop20600" />
   <stop
     id="stop20602"
     offset="1"
     style="stop-color:#3d3d3d;stop-opacity:1" />
  </linearGradient>
  <filter
    style="color-interpolation-filters:sRGB"
    id="filter20720"
    x="-0.010581651"
    y="-0.010228872"
    width="1.0211628"
    height="1.0204578">
   <feGaussianBlur
     stdDeviation="1.4802759e-07"
     id="feGaussianBlur20722" />
  </filter>
  <linearGradient
    gradientTransform="translate(0.36067797,-0.13016949)"
    xlink:href="#linearGradient4555"
    id="linearGradient4557"
    x1="43.499737"
    y1="64.011795"
    x2="44.141731"
    y2="0.30621234"
    gradientUnits="userSpaceOnUse" />
  <linearGradient
    id="linearGradient4555">
   <stop
     style="stop-color:#141618;stop-opacity:1"
     offset="0"
     id="stop4551" />
   <stop
     id="stop4559"
     offset="0.51820582"
     style="stop-color:#686868;stop-opacity:1" />
   <stop
     style="stop-color:#31363b;stop-opacity:1"
     offset="1"
     id="stop4553" />
  </linearGradient>
  <filter
    style="color-interpolation-filters:sRGB"
    id="filter4601"
    x="-0.02967762"
    width="1.0593552"
    y="-0.029536018"
    height="1.059072">
   <feGaussianBlur
     stdDeviation="1.5817827e-07"
     id="feGaussianBlur4603" />
  </filter>
 </defs>
 <rect
   style="display:inline;fill:#009eff;fill-opacity:1;fill-rule:evenodd;stroke:none;stroke-width:0.92782;stroke-linejoin:round;stroke-miterlimit:7.8"
   id="rect1192"
   width="42.084602"
   height="42.712109"
   x="3.1629105"
   y="3.0184898"
   ry="0" />
 <path
   d="m 29.39671,4.8219605 c -0.489846,0.00363 -0.979296,0.02715 -1.467009,0.070498 -0.353561,0.028008 -0.700358,0.07318 -1.047447,0.1208499 -0.183956,0.023471 -0.3675,0.049772 -0.550553,0.078891 -0.49453,0.083327 -0.979983,0.1886142 -1.458673,0.3105298 -0.03135,0.00775 -0.06269,0.015582 -0.094,0.0235 -7.255123,1.8894079 -12.565404,8.0972538 -12.565404,15.4659018 8.7e-5,0.05342 0.0044,0.106103 0.0051,0.159464 -0.0018,0.03266 -0.0035,0.06617 -0.0051,0.09883 0.0085,5.059334 2.654711,9.805844 6.875263,12.891118 v 5.156446 l 4.5589,-2.682297 c 1.846008,0.630805 3.791707,0.956521 5.753735,0.963396 9.14324,-0.01031 16.677668,-6.819401 17.144327,-15.494264 0.01367,-0.19004 0.02367,-0.380597 0.03022,-0.572382 0.0052,-0.08766 0.01031,-0.17446 0.01375,-0.26212 -8.59e-4,-0.03524 -0.0017,-0.07047 -0.0034,-0.105707 8.6e-4,-0.05156 0.0034,-0.10141 0.0034,-0.152974 0,-8.322506 -6.769555,-15.1822982 -15.472778,-15.9875634 -0.475253,-0.042025 -0.952224,-0.065057 -1.430055,-0.069096 -0.09629,-0.00146 -0.189963,-0.013407 -0.287076,-0.013407 z"
   id="path1"
   style="stroke-width:0.859408;fill:#eef8ff;fill-opacity:1" />
 <path
   opacity="0.2"
   d="m 31.120682,26.307155 -4.297039,-5.156447 -9.453486,5.156447 10.312894,-10.312893 4.297039,5.156446 9.453485,-5.156446 z"
   id="path2"
   style="stroke-width:0.859408" />
 <path
   d="m 31.120682,25.447747 -4.297039,-5.156446 -9.453486,5.156446 10.312894,-10.312893 4.297039,5.156447 9.453485,-5.156447 z"
   id="path3"
   style="stroke-width:0.859408;fill:#009eff;fill-opacity:1" />
 <path
   opacity="0.2"
   d="m 29.39671,4.8219605 a 17.188156,16.328748 0 0 0 -1.467009,0.070472 c -0.353217,0.028017 -0.700418,0.073222 -1.047619,0.1209186 a 17.188156,16.328748 0 0 0 -0.550021,0.078894 c -0.495018,0.083277 -0.980584,0.188554 -1.459274,0.310504 a 17.188156,16.328748 0 0 0 -0.09368,0.023462 C 17.523991,7.3156182 12.21371,13.523464 12.21371,20.892113 c 8.6e-5,0.05328 0.0044,0.106566 0.0051,0.159849 a 17.188156,16.328748 0 0 0 -0.0051,0.09883 17.188156,16.328748 0 0 0 0.01513,0.273292 C 12.384475,14.200763 17.632276,8.1470953 24.778768,6.2856179 a 17.188156,16.328748 0 0 1 0.09368,-0.023376 c 0.47869,-0.12195 0.964256,-0.2272275 1.459275,-0.3105041 a 17.188156,16.328748 0 0 1 0.550021,-0.078894 c 0.3472,-0.047697 0.694401,-0.092902 1.047618,-0.1209187 a 17.188156,16.328748 0 0 1 1.467009,-0.070471 h 0.0034 c 0.09711,0 0.190788,0.011946 0.287042,0.013407 a 17.188156,16.328748 0 0 1 1.430054,0.068839 c 8.596657,0.7957257 15.294881,7.5011689 15.457309,15.6859099 8.6e-4,-0.01289 0.0017,-0.02492 0.0017,-0.03695 a 17.188156,16.328748 0 0 0 0.01375,-0.26212 17.188156,16.328748 0 0 0 -0.0034,-0.105707 c 8.59e-4,-0.05156 0.0034,-0.10141 0.0034,-0.152974 0,-8.322504 -6.769555,-15.1822976 -15.472778,-15.9875627 a 17.188156,16.328748 0 0 0 -1.430002,-0.069101 c -0.09625,-0.00146 -0.189929,-0.013407 -0.287042,-0.013407 h -0.0034 z"
   id="path4"
   style="stroke-width:0.859408" />
 <path
   opacity="0.2"
   d="m 46.574553,21.449782 c -0.0065,0.179264 -0.01574,0.35766 -0.02853,0.535454 C 46.079364,30.660099 38.544936,37.469187 29.401696,37.4795 27.43984,37.4726 25.493797,37.146788 23.647703,36.516018 l -4.559158,2.682211 v 0.859408 l 4.5589,-2.682298 c 1.846008,0.630806 3.791708,0.956521 5.753736,0.963397 9.143239,-0.01031 16.677667,-6.819401 17.144326,-15.494264 0.01367,-0.190041 0.02367,-0.380597 0.03022,-0.572383 0.0052,-0.08766 0.01031,-0.174459 0.01375,-0.262119 -8.59e-4,-0.03524 -0.0026,-0.07047 -0.0034,-0.105707 8.59e-4,-0.05157 0.0034,-0.10141 0.0034,-0.152975 0,-0.101874 -0.01309,-0.200706 -0.01511,-0.302133 z m -34.348811,0.04469 c -0.0015,0.0868 -0.01177,0.171023 -0.01177,0.256963 8.7e-5,0.05342 0.0044,0.106103 0.0051,0.159464 -0.0018,0.03266 -0.0035,0.06617 -0.0051,0.09883 0.0085,5.059334 2.654711,9.805843 6.875262,12.891118 v -0.859408 c -4.12456,-3.015662 -6.738448,-7.617791 -6.863492,-12.547354 z"
   id="path5"
   style="stroke-width:0.859408" />
 <path
   style="display:inline;mix-blend-mode:normal;fill:url(#linearGradient3403);fill-opacity:1;stroke:url(#linearGradient20558);stroke-width:1.16242;stroke-linecap:butt;stroke-linejoin:round;stroke-miterlimit:4;stroke-dasharray:none;stroke-opacity:1"
   d="M 4.7043071,3.9814882 4.6913695,60.80196 H 58.59546 l 1.022155,-2.866369 c 0,0 -23.87537,0.766388 -32.844441,-4.140386 C 16.257548,48.042344 11.401114,4.0978197 11.401114,4.0978197 Z"
   id="path1686"
   transform="matrix(0.7518797,0,0,0.7518797,0.09970467,0.02488636)" />
 <rect
   style="display:inline;fill:none;fill-opacity:1;stroke:url(#linearGradient4557);stroke-width:3.71366;stroke-linejoin:round;stroke-miterlimit:7.8;stroke-dasharray:none;stroke-opacity:0.995146"
   id="rect4539"
   width="62.566689"
   height="62.866646"
   x="1.0323594"
   y="0.59551275"
   ry="6.2447233"
   rx="5.8029528"
   transform="matrix(0.70434793,0,0,0.70291231,1.3629847,1.5442064)" />
</svg>
