<?xml version="1.0" encoding="UTF-8" standalone="no"?>
<!-- Created with Inkscape (http://www.inkscape.org/) -->

<svg
  width="48"
  height="48"
  version="1.1"
  viewBox="0 0 48 48"
  id="svg22"
  xmlns:xlink="http://www.w3.org/1999/xlink"
  xmlns="http://www.w3.org/2000/svg"
  xmlns:svg="http://www.w3.org/2000/svg">
 <defs
   id="defs12">
  <linearGradient
    xlink:href="#linearGradient3487"
    id="linearGradient3403"
    gradientUnits="userSpaceOnUse"
    x1="6.9491749"
    y1="4.5549412"
    x2="11.215498"
    y2="59.052471" />
  <linearGradient
    id="linearGradient3487">
   <stop
     style="stop-color:#32373c;stop-opacity:1"
     offset="0"
     id="stop3481" />
   <stop
     id="stop3483"
     offset="0.36804965"
     style="stop-color:#1a1a1a;stop-opacity:1" />
   <stop
     style="stop-color:#31363b;stop-opacity:1"
     offset="1"
     id="stop3485" />
  </linearGradient>
  <linearGradient
    xlink:href="#linearGradient20604"
    id="linearGradient20558"
    gradientUnits="userSpaceOnUse"
    x1="25.802212"
    y1="20.373846"
    x2="25.111048"
    y2="58.912758" />
  <linearGradient
    id="linearGradient20604">
   <stop
     id="stop20598"
     offset="0"
     style="stop-color:#3d3d3d;stop-opacity:1" />
   <stop
     style="stop-color:#000000;stop-opacity:1"
     offset="0.61772454"
     id="stop20600" />
   <stop
     id="stop20602"
     offset="1"
     style="stop-color:#3d3d3d;stop-opacity:1" />
  </linearGradient>
  <filter
    style="color-interpolation-filters:sRGB"
    id="filter20720"
    x="-0.010590523"
    y="-0.010237449"
    width="1.0211806"
    height="1.0204749">
   <feGaussianBlur
     stdDeviation="0.00020319784"
     id="feGaussianBlur20722" />
  </filter>
  <linearGradient
    gradientTransform="translate(0.36067797,-0.13016949)"
    xlink:href="#linearGradient4555"
    id="linearGradient4557"
    x1="43.499737"
    y1="64.011795"
    x2="44.141731"
    y2="0.30621234"
    gradientUnits="userSpaceOnUse" />
  <linearGradient
    id="linearGradient4555">
   <stop
     style="stop-color:#141618;stop-opacity:1"
     offset="0"
     id="stop4551" />
   <stop
     id="stop4559"
     offset="0.51820582"
     style="stop-color:#686868;stop-opacity:1" />
   <stop
     style="stop-color:#31363b;stop-opacity:1"
     offset="1"
     id="stop4553" />
  </linearGradient>
  <filter
    style="color-interpolation-filters:sRGB"
    id="filter4601"
    x="-0.029685942"
    width="1.0593719"
    y="-0.029544301"
    height="1.0590886">
   <feGaussianBlur
     stdDeviation="0.00021713171"
     id="feGaussianBlur4603" />
  </filter>
 </defs>
 <rect
   style="fill:#2a2a2a;fill-opacity:1"
   width="40"
   x="388.57001"
   y="503.79999"
   rx="0"
   height="40"
   id="rect8656"
   transform="matrix(1.0224038,0,0,1.0272979,-392.88143,-514.71623)" />
 <rect
   width="2"
   height="32"
   x="27"
   y="-40"
   transform="rotate(90,2.9834618,2.0411308)"
   id="rect1"
   style="fill:#8e8e8e" />
 <rect
   width="2"
   height="32.880772"
   x="22.057669"
   y="-45.024593"
   transform="rotate(90)"
   id="rect2"
   style="fill:#8e8e8e;stroke-width:1.01367" />
 <rect
   width="2"
   height="34"
   x="18.057669"
   y="-45.024593"
   transform="rotate(90)"
   id="rect3"
   style="fill:#8e8e8e;stroke-width:1.03078" />
 <rect
   width="2"
   height="34.553185"
   x="14.057669"
   y="-45.024593"
   transform="rotate(90)"
   id="rect4"
   style="fill:#8e8e8e;stroke-width:1.03913" />
 <rect
   width="2"
   height="32"
   x="31"
   y="-40"
   transform="rotate(90,2.9834618,2.0411308)"
   id="rect5"
   style="fill:#8e8e8e" />
 <rect
   width="2"
   height="32"
   x="35"
   y="-40"
   transform="rotate(90,2.9834618,2.0411308)"
   id="rect6"
   style="fill:#8e8e8e" />
 <rect
   width="2"
   height="32"
   x="39"
   y="-40"
   transform="rotate(90,2.9834618,2.0411308)"
   id="rect7"
   style="fill:#8e8e8e" />
 <rect
   width="2"
   height="35.239334"
   x="10.057669"
   y="-45.024593"
   transform="rotate(90)"
   id="rect8"
   style="fill:#8e8e8e;stroke-width:1.04939" />
 <rect
   width="2"
   height="35.842579"
   x="6.0576692"
   y="-45.024593"
   transform="rotate(90)"
   id="rect9"
   style="fill:#8e8e8e;stroke-width:1.05834" />
 <rect
   width="2"
   height="40"
   x="23"
   y="4"
   id="rect10"
   style="fill:#8e8e8e"
   transform="translate(5.0245926,-0.94233106)" />
 <rect
   width="2"
   height="40"
   x="19"
   y="4"
   id="rect11"
   style="fill:#8e8e8e"
   transform="translate(5.0245926,-0.94233106)" />
 <rect
   width="2"
   height="40"
   x="15"
   y="4"
   id="rect12"
   style="fill:#8e8e8e"
   transform="translate(5.0245926,-0.94233106)" />
 <rect
   width="2"
   height="40"
   x="11"
   y="4"
   id="rect13"
   style="fill:#8e8e8e"
   transform="translate(5.0245926,-0.94233106)" />
 <rect
   width="2"
   height="40.870686"
   x="32.024593"
   y="3.0576689"
   id="rect14"
   style="fill:#8e8e8e;stroke-width:1.01083" />
 <rect
   width="2"
   height="40.870686"
   x="36.024593"
   y="3.0576689"
   id="rect15"
   style="fill:#8e8e8e;stroke-width:1.01083" />
 <rect
   width="2"
   height="40.870686"
   x="40.024593"
   y="3.0576689"
   id="rect16"
   style="fill:#8e8e8e;stroke-width:1.01083" />
 <rect
   style="opacity:0.2"
   width="28"
   height="36"
   x="15.024591"
   y="6.0576692"
   rx="2"
   ry="2"
   id="rect17" />
 <rect
   style="fill:#4f4f4f"
   width="28"
   height="36"
   x="15.024591"
   y="5.0576687"
   rx="2"
   ry="2"
   id="rect18" />
 <g
   style="display:inline;opacity:0.4;fill:#ffffff"
   id="g26"
   transform="translate(5.0245926,-0.94233106)">
  <path
    style="opacity:0.1;fill:#ffffff"
    d="m 17.024593,5.0576689 c -1.108,0 -2,0.892 -2,2 v 1 c 0,-1.108 0.892,-2 2,-2 h 24 c 1.108,0 2,0.892 2,2 v -1 c 0,-1.108 -0.892,-2 -2,-2 z"
    id="path18"
    transform="translate(-5.0245926,0.94233106)" />
  <rect
    width="2"
    height="4"
    x="17"
    y="11"
    id="rect19" />
  <rect
    width="2"
    height="4"
    x="17"
    y="17"
    id="rect20" />
  <rect
    width="2"
    height="8"
    x="17"
    y="23"
    id="rect21" />
  <rect
    width="2"
    height="11"
    x="23"
    y="11"
    id="rect22" />
  <rect
    width="2"
    height="9"
    x="29"
    y="11"
    id="rect23" />
  <rect
    width="2"
    height="11"
    x="23"
    y="24"
    id="rect24" />
  <rect
    width="2"
    height="4"
    x="29"
    y="22"
    id="rect25" />
  <rect
    width="2"
    height="9"
    x="29"
    y="28"
    id="rect26" />
 </g>
 <circle
   style="fill:#526ece;fill-opacity:1;stroke-width:0.863637"
   cx="38.024593"
   cy="37.593254"
   r="9.5000029"
   id="circle27" />
 <path
   style="fill:#ffffff;stroke-width:0.863637"
   d="m 32.842774,37.593255 c 0,2.861833 2.319987,5.18182 5.18182,5.18182 2.832814,0 5.130261,-2.274128 5.176724,-5.095801 a 0.86363661,0.86363661 0 0 0 0.0052,-0.08603 0.86363661,0.86363661 0 0 0 -0.863637,-0.863637 0.86363661,0.86363661 0 0 0 -0.863636,0.863637 c 0,1.907859 -1.546687,3.454546 -3.454547,3.454546 -1.907859,0 -3.454546,-1.546687 -3.454546,-3.454546 0,-1.90786 1.546687,-3.454547 3.454546,-3.454547 v 1.727273 l 3.454547,-2.590909 -3.454547,-2.59091 v 1.727273 c -2.861832,0 -5.181819,2.319987 -5.181819,5.18182 z"
   id="path27" />
 <path
   style="display:inline;mix-blend-mode:normal;fill:url(#linearGradient3403);fill-opacity:1;stroke:url(#linearGradient20558);stroke-width:1.16242;stroke-linecap:butt;stroke-linejoin:round;stroke-miterlimit:4;stroke-dasharray:none;stroke-opacity:1"
   d="M 4.7043071,3.9814882 4.6913695,60.80196 H 58.59546 l 1.022155,-2.866369 c 0,0 -23.87537,0.766388 -32.844441,-4.140386 C 16.257548,48.042344 11.401114,4.0978197 11.401114,4.0978197 Z"
   id="path1686"
   transform="matrix(0.7518797,0,0,0.7518797,0.09970467,0.02488636)" />
 <rect
   style="display:inline;fill:none;fill-opacity:1;stroke:url(#linearGradient4557);stroke-width:3.71366;stroke-linejoin:round;stroke-miterlimit:7.8;stroke-dasharray:none;stroke-opacity:0.995146"
   id="rect4539"
   width="62.566689"
   height="62.866646"
   x="1.0323594"
   y="0.59551275"
   ry="6.2447233"
   rx="5.8029528"
   transform="matrix(0.70434793,0,0,0.70291231,1.3629847,1.5442064)" />
</svg>
