<?xml version="1.0" encoding="UTF-8" standalone="no"?>
<!-- Created with Inkscape (http://www.inkscape.org/) -->

<svg
  width="48"
  height="48"
  version="1.1"
  viewBox="0 0 48 48"
  id="svg22"
  xmlns:xlink="http://www.w3.org/1999/xlink"
  xmlns="http://www.w3.org/2000/svg"
  xmlns:svg="http://www.w3.org/2000/svg">
 <defs
   id="defs12">
  <linearGradient
    xlink:href="#linearGradient3487"
    id="linearGradient3403"
    gradientUnits="userSpaceOnUse"
    x1="6.9491749"
    y1="4.5549412"
    x2="11.215498"
    y2="59.052471" />
  <linearGradient
    id="linearGradient3487">
   <stop
     style="stop-color:#32373c;stop-opacity:1"
     offset="0"
     id="stop3481" />
   <stop
     id="stop3483"
     offset="0.36804965"
     style="stop-color:#1a1a1a;stop-opacity:1" />
   <stop
     style="stop-color:#31363b;stop-opacity:1"
     offset="1"
     id="stop3485" />
  </linearGradient>
  <linearGradient
    xlink:href="#linearGradient20604"
    id="linearGradient20558"
    gradientUnits="userSpaceOnUse"
    x1="25.802212"
    y1="20.373846"
    x2="25.111048"
    y2="58.912758" />
  <linearGradient
    id="linearGradient20604">
   <stop
     id="stop20598"
     offset="0"
     style="stop-color:#3d3d3d;stop-opacity:1" />
   <stop
     style="stop-color:#000000;stop-opacity:1"
     offset="0.61772454"
     id="stop20600" />
   <stop
     id="stop20602"
     offset="1"
     style="stop-color:#3d3d3d;stop-opacity:1" />
  </linearGradient>
  <filter
    style="color-interpolation-filters:sRGB"
    id="filter20720"
    x="-0.010609014"
    y="-0.010255323"
    width="1.0212176"
    height="1.0205107">
   <feGaussianBlur
     stdDeviation="0.00062637912"
     id="feGaussianBlur20722" />
  </filter>
  <linearGradient
    gradientTransform="translate(0.36067797,-0.13016949)"
    xlink:href="#linearGradient4555"
    id="linearGradient4557"
    x1="43.499737"
    y1="64.011795"
    x2="44.141731"
    y2="0.30621234"
    gradientUnits="userSpaceOnUse" />
  <linearGradient
    id="linearGradient4555">
   <stop
     style="stop-color:#141618;stop-opacity:1"
     offset="0"
     id="stop4551" />
   <stop
     id="stop4559"
     offset="0.51820582"
     style="stop-color:#686868;stop-opacity:1" />
   <stop
     style="stop-color:#31363b;stop-opacity:1"
     offset="1"
     id="stop4553" />
  </linearGradient>
  <filter
    style="color-interpolation-filters:sRGB"
    id="filter4601"
    x="-0.029703288"
    width="1.0594066"
    y="-0.029561564"
    height="1.0591231">
   <feGaussianBlur
     stdDeviation="0.00066933176"
     id="feGaussianBlur4603" />
  </filter>
 </defs>
 <g
   id="g9"
   transform="matrix(0.08854015,0,0,0.08854015,2.4397829,1.3953176)">
  <path
    id="rect7175"
    d="m 80.25,612.46875 c -34.640959,0 -72.1143514,-0.0937 -94.484316,-0.0937 l 0.109316,121.4062 0.04605,350.59395 c 29.174606,0 42.090818,-0.094 94.328954,-0.094 z"
    style="display:inline;fill:#15ffb7;fill-opacity:1;fill-rule:nonzero;stroke:none"
    transform="rotate(-90,-57.25001,535.12502)" />
  <path
    id="rect7177"
    d="m 84.21875,612.375 c -1.324215,0 -2.657551,0.0424 -3.96875,0.0937 v 471.8125 c 1.311199,0.051 2.644535,0.094 3.96875,0.094 h 90.4375 V 612.37515 h -90.4375 z"
    style="display:inline;fill:#15ffea;fill-opacity:1;fill-rule:nonzero;stroke:none"
    transform="rotate(-90,-57.25001,535.12502)" />
  <path
    id="rect7179"
    d="m 174.65625,612.375 v 472 h 94.40625 v -472 z"
    style="display:inline;fill:#15e9ff;fill-opacity:1;fill-rule:nonzero;stroke:none"
    transform="rotate(-90,-57.25001,535.12502)" />
  <path
    id="rect7181"
    d="m 269.0625,612.375 v 472 h 90.46875 c 1.32422,0 2.6263,-0.042 3.9375,-0.094 V 612.46855 c -1.3112,-0.0514 -2.61328,-0.0937 -3.9375,-0.0937 H 269.0625 Z"
    style="display:inline;fill:#15c2ff;fill-opacity:1;fill-rule:nonzero;stroke:none"
    transform="rotate(-90,-57.25001,535.12502)" />
  <path
    id="rect7183"
    d="m 363.46875,612.46875 v 471.81245 c 33.44814,0 69.11099,0.094 94.55317,0.094 l -0.14692,-350.59375 0.19804,-121.4064 c -36.82664,0 -74.1056,0.0939 -94.60429,0.0939 z"
    style="display:inline;fill:#15a8ff;fill-opacity:1;fill-rule:nonzero;stroke:none"
    transform="rotate(-90,-57.25001,535.12502)" />
  <path
    style="fill:#000000;fill-opacity:0.285504"
    d="m 277.87037,190.28405 -57.02761,57.13611 c -55.57863,55.66795 -57.08792,57.23851 -59.52311,62.36581 -3.15443,6.64169 -4.447,14.15379 -3.3635,19.48661 l 0.7595,3.7324 -14.1484,14.2352 c -7.77161,7.82936 -14.78389,15.46908 -15.58061,16.9911 -3.86965,7.39245 -0.0133,17.55887 7.5082,19.83381 3.43102,1.03774 7.33634,0.6785 10.85001,-0.9982 2.54637,-1.21511 7.12855,-5.35647 17.2298,-15.51551 l 13.7795,-13.8446 6.8138,0.3255 c 8.2854,0.39898 14.18222,-1.1349 20.52821,-5.3165 2.64514,-1.74298 24.30852,-22.91402 60.04391,-58.69851 l 55.89921,-55.96431 -21.8953,-21.8736 z"
    id="path6378" />
  <path
    style="fill:#000000;fill-opacity:0.285504"
    d="m 354.16759,127.35404 c -2.72922,0.0229 -5.41094,0.32408 -7.7035,0.9114 -7.89463,2.02251 -11.12295,4.46855 -28.34021,21.5047 l -16.1665,15.99291 -8.6149,-8.59321 c -7.35906,-7.34139 -8.92299,-8.5932 -10.78491,-8.5932 -1.87873,0 -3.55924,1.38294 -12.1954,10.0037 -8.45216,8.43708 -10.0254,10.32782 -10.0254,12.08691 0,1.83012 4.8173,6.92221 39.40721,41.51211 22.72771,22.72771 39.94911,39.4072 40.6658,39.4072 2.46156,0 5.13379,-2.11062 13.84461,-10.9368 11.69015,-11.84497 11.66845,-10.92859 0.5208,-22.0472 -4.58304,-4.57111 -8.3328,-8.6131 -8.3328,-8.9838 0,-0.37072 7.27202,-8.0422 16.1665,-17.03451 17.18467,-17.37367 18.72985,-19.43652 20.9622,-28.1232 3.71158,-14.44272 -3.55958,-29.67846 -16.709,-35.02381 -3.43366,-1.39581 -8.14581,-2.1214 -12.6945,-2.0832 z"
    id="path6380" />
  <path
    style="fill:#ffffff;fill-opacity:1"
    d="m 277.87037,190.28405 -57.02761,57.13611 c -55.57863,55.66795 -57.08792,57.23851 -59.52311,62.36581 -3.15443,6.64169 -4.447,14.15379 -3.3635,19.48661 l 0.7595,3.7324 -14.1484,14.2352 c -7.77161,7.82936 -14.78389,15.46908 -15.58061,16.9911 -3.86965,7.39245 -0.0133,17.55887 7.5082,19.83381 3.43102,1.03774 7.33634,0.6785 10.85001,-0.9982 2.54637,-1.21511 7.12855,-5.35647 17.2298,-15.51551 l 13.7795,-13.8446 6.8138,0.3255 c 8.2854,0.39898 14.18222,-1.1349 20.52821,-5.3165 2.64514,-1.74298 24.30852,-22.91402 60.04391,-58.69851 l 55.89921,-55.96431 -21.8953,-21.8736 z"
    id="path6378-8"
    transform="translate(-0.77115918,-7.4978339)" />
  <path
    style="fill:#404040;fill-opacity:1"
    d="m 354.16759,127.35404 c -2.72922,0.0229 -5.41094,0.32408 -7.7035,0.9114 -7.89463,2.02251 -11.12295,4.46855 -28.34021,21.5047 l -16.1665,15.99291 -8.6149,-8.59321 c -7.35906,-7.34139 -8.92299,-8.5932 -10.78491,-8.5932 -1.87873,0 -3.55924,1.38294 -12.1954,10.0037 -8.45216,8.43708 -10.0254,10.32782 -10.0254,12.08691 0,1.83012 4.8173,6.92221 39.40721,41.51211 22.72771,22.72771 39.94911,39.4072 40.6658,39.4072 2.46156,0 5.13379,-2.11062 13.84461,-10.9368 11.69015,-11.84497 11.66845,-10.92859 0.5208,-22.0472 -4.58304,-4.57111 -8.3328,-8.6131 -8.3328,-8.9838 0,-0.37072 7.27202,-8.0422 16.1665,-17.03451 17.18467,-17.37367 18.72985,-19.43652 20.9622,-28.1232 3.71158,-14.44272 -3.55958,-29.67846 -16.709,-35.02381 -3.43366,-1.39581 -8.14581,-2.1214 -12.6945,-2.0832 z"
    id="path6380-9"
    transform="translate(-0.77115918,-7.4978339)" />
  <path
    id="path1"
    d="m 80.25,612.46875 c -34.640959,0 -72.1143514,-0.0937 -94.484316,-0.0937 l 0.109316,121.4062 0.04605,350.59395 c 29.174606,0 42.090818,-0.094 94.328954,-0.094 z"
    style="display:inline;fill:#15ffb7;fill-opacity:1;fill-rule:nonzero;stroke:none"
    transform="rotate(-90,-57.25001,535.12502)" />
  <path
    id="path2"
    d="m 84.21875,612.375 c -1.324215,0 -2.657551,0.0424 -3.96875,0.0937 v 471.8125 c 1.311199,0.051 2.644535,0.094 3.96875,0.094 h 90.4375 V 612.37515 h -90.4375 z"
    style="display:inline;fill:#15ffea;fill-opacity:1;fill-rule:nonzero;stroke:none"
    transform="rotate(-90,-57.25001,535.12502)" />
  <path
    id="path3"
    d="m 174.65625,612.375 v 472 h 94.40625 v -472 z"
    style="display:inline;fill:#15e9ff;fill-opacity:1;fill-rule:nonzero;stroke:none"
    transform="rotate(-90,-57.25001,535.12502)" />
  <path
    id="path4"
    d="m 269.0625,612.375 v 472 h 90.46875 c 1.32422,0 2.6263,-0.042 3.9375,-0.094 V 612.46855 c -1.3112,-0.0514 -2.61328,-0.0937 -3.9375,-0.0937 H 269.0625 Z"
    style="display:inline;fill:#15c2ff;fill-opacity:1;fill-rule:nonzero;stroke:none"
    transform="rotate(-90,-57.25001,535.12502)" />
  <path
    id="path5"
    d="m 363.46875,612.46875 v 471.81245 c 33.44814,0 69.11099,0.094 94.55317,0.094 l -0.14692,-350.59375 0.19804,-121.4064 c -36.82664,0 -74.1056,0.0939 -94.60429,0.0939 z"
    style="display:inline;fill:#15a8ff;fill-opacity:1;fill-rule:nonzero;stroke:none"
    transform="rotate(-90,-57.25001,535.12502)" />
  <path
    style="fill:#000000;fill-opacity:0.285504"
    d="m 339.19984,190.28405 -57.02761,57.13611 c -55.57863,55.66795 -57.08792,57.23851 -59.52311,62.36581 -3.15443,6.64169 -4.447,14.15379 -3.3635,19.48661 l 0.7595,3.7324 -14.1484,14.2352 c -7.77161,7.82936 -14.78389,15.46908 -15.58061,16.9911 -3.86965,7.39245 -0.0133,17.55887 7.5082,19.83381 3.43102,1.03774 7.33634,0.6785 10.85001,-0.9982 2.54637,-1.21511 7.12855,-5.35647 17.2298,-15.51551 l 13.7795,-13.8446 6.8138,0.3255 c 8.2854,0.39898 14.18222,-1.1349 20.52821,-5.3165 2.64514,-1.74298 24.30852,-22.91402 60.04391,-58.69851 l 55.89921,-55.96431 -21.8953,-21.8736 z"
    id="path6" />
  <path
    style="fill:#000000;fill-opacity:0.285504"
    d="m 415.49706,127.35404 c -2.72922,0.0229 -5.41094,0.32408 -7.7035,0.9114 -7.89463,2.02251 -11.12295,4.46855 -28.34021,21.5047 l -16.1665,15.99291 -8.6149,-8.59321 c -7.35906,-7.34139 -8.92299,-8.5932 -10.78491,-8.5932 -1.87873,0 -3.55924,1.38294 -12.1954,10.0037 -8.45216,8.43708 -10.0254,10.32782 -10.0254,12.08691 0,1.83012 4.8173,6.92221 39.40721,41.51211 22.72771,22.72771 39.94911,39.4072 40.6658,39.4072 2.46156,0 5.13379,-2.11062 13.84461,-10.9368 11.69015,-11.84497 11.66845,-10.92859 0.5208,-22.0472 -4.58304,-4.57111 -8.3328,-8.6131 -8.3328,-8.9838 0,-0.37072 7.27202,-8.0422 16.1665,-17.03451 17.18467,-17.37367 18.72985,-19.43652 20.9622,-28.1232 3.71158,-14.44272 -3.55958,-29.67846 -16.709,-35.02381 -3.43366,-1.39581 -8.14581,-2.1214 -12.6945,-2.0832 z"
    id="path7" />
  <path
    style="fill:#ffffff;fill-opacity:1"
    d="m 338.42868,182.78622 -57.02761,57.13611 c -55.57863,55.66795 -57.08792,57.23851 -59.52311,62.36581 -3.15443,6.64169 -4.447,14.15379 -3.3635,19.48661 l 0.7595,3.7324 -14.1484,14.2352 c -7.77161,7.82936 -14.78389,15.46908 -15.58061,16.9911 -3.86965,7.39245 -0.0133,17.55887 7.5082,19.83381 3.43102,1.03774 7.33634,0.6785 10.85001,-0.9982 2.54637,-1.21511 7.12855,-5.35647 17.2298,-15.51551 l 13.7795,-13.8446 6.8138,0.3255 c 8.2854,0.39898 14.18222,-1.1349 20.52821,-5.3165 2.64514,-1.74298 24.30852,-22.91402 60.04391,-58.69851 l 55.89921,-55.96431 -21.8953,-21.8736 z"
    id="path8" />
  <path
    style="fill:#404040;fill-opacity:1"
    d="m 414.7259,119.85621 c -2.72922,0.0229 -5.41094,0.32408 -7.7035,0.9114 -7.89463,2.02251 -11.12295,4.46855 -28.34021,21.5047 l -16.1665,15.99291 -8.6149,-8.59321 c -7.35906,-7.34139 -8.92299,-8.5932 -10.78491,-8.5932 -1.87873,0 -3.55924,1.38294 -12.1954,10.0037 -8.45216,8.43708 -10.0254,10.32782 -10.0254,12.08691 0,1.83012 4.8173,6.92221 39.40721,41.51211 22.72771,22.72771 39.94911,39.4072 40.6658,39.4072 2.46156,0 5.13379,-2.11062 13.84461,-10.9368 11.69015,-11.84497 11.66845,-10.92859 0.5208,-22.0472 -4.58304,-4.57111 -8.3328,-8.6131 -8.3328,-8.9838 0,-0.37072 7.27202,-8.0422 16.1665,-17.03451 17.18467,-17.37367 18.72985,-19.43652 20.9622,-28.1232 3.71158,-14.44272 -3.55958,-29.67846 -16.709,-35.02381 -3.43366,-1.39581 -8.14581,-2.1214 -12.6945,-2.0832 z"
    id="path9" />
 </g>
 <path
   style="display:inline;mix-blend-mode:normal;fill:url(#linearGradient3403);fill-opacity:1;stroke:url(#linearGradient20558);stroke-width:1.16242;stroke-linecap:butt;stroke-linejoin:round;stroke-miterlimit:4;stroke-dasharray:none;stroke-opacity:1"
   d="M 4.7043071,3.9814882 4.6913695,60.80196 H 58.59546 l 1.022155,-2.866369 c 0,0 -23.87537,0.766388 -32.844441,-4.140386 C 16.257548,48.042344 11.401114,4.0978197 11.401114,4.0978197 Z"
   id="path1686"
   transform="matrix(0.7518797,0,0,0.7518797,0.09970467,0.02488636)" />
 <rect
   style="display:inline;fill:none;fill-opacity:1;stroke:url(#linearGradient4557);stroke-width:3.71366;stroke-linejoin:round;stroke-miterlimit:7.8;stroke-dasharray:none;stroke-opacity:0.995146"
   id="rect4539"
   width="62.566689"
   height="62.866646"
   x="1.0323594"
   y="0.59551275"
   ry="6.2447233"
   rx="5.8029528"
   transform="matrix(0.70434793,0,0,0.70291231,1.3629847,1.5442064)" />
</svg>
