<?xml version="1.0" encoding="UTF-8" standalone="no"?>
<!-- Created with Inkscape (http://www.inkscape.org/) -->

<svg
  width="48"
  height="48"
  version="1.1"
  viewBox="0 0 48 48"
  id="svg22"
  xmlns:xlink="http://www.w3.org/1999/xlink"
  xmlns="http://www.w3.org/2000/svg"
  xmlns:svg="http://www.w3.org/2000/svg">
 <defs
   id="defs12">
  <linearGradient
    id="linearGradient917">
   <stop
     style="stop-color:#000000;stop-opacity:0.99607843"
     offset="0"
     id="stop913" />
   <stop
     style="stop-color:#353a3f;stop-opacity:0.99607843"
     offset="1"
     id="stop915" />
  </linearGradient>
  <linearGradient
    xlink:href="#linearGradient3487"
    id="linearGradient3403"
    gradientUnits="userSpaceOnUse"
    x1="6.9491749"
    y1="4.5549412"
    x2="11.215498"
    y2="59.052471" />
  <linearGradient
    id="linearGradient3487">
   <stop
     style="stop-color:#32373c;stop-opacity:1"
     offset="0"
     id="stop3481" />
   <stop
     id="stop3483"
     offset="0.36804965"
     style="stop-color:#1a1a1a;stop-opacity:1" />
   <stop
     style="stop-color:#31363b;stop-opacity:1"
     offset="1"
     id="stop3485" />
  </linearGradient>
  <linearGradient
    xlink:href="#linearGradient20604"
    id="linearGradient20558"
    gradientUnits="userSpaceOnUse"
    x1="25.802212"
    y1="20.373846"
    x2="25.111048"
    y2="58.912758" />
  <linearGradient
    id="linearGradient20604">
   <stop
     id="stop20598"
     offset="0"
     style="stop-color:#3d3d3d;stop-opacity:1" />
   <stop
     style="stop-color:#000000;stop-opacity:1"
     offset="0.61772454"
     id="stop20600" />
   <stop
     id="stop20602"
     offset="1"
     style="stop-color:#3d3d3d;stop-opacity:1" />
  </linearGradient>
  <filter
    style="color-interpolation-filters:sRGB"
    id="filter20720"
    x="-0.010585066"
    y="-0.010232174"
    width="1.0211697"
    height="1.0204644">
   <feGaussianBlur
     stdDeviation="7.8306595e-05"
     id="feGaussianBlur20722" />
  </filter>
  <linearGradient
    gradientTransform="translate(0.36067797,-0.13016949)"
    xlink:href="#linearGradient4555"
    id="linearGradient4557"
    x1="43.499737"
    y1="64.011795"
    x2="44.141731"
    y2="0.30621234"
    gradientUnits="userSpaceOnUse" />
  <linearGradient
    id="linearGradient4555">
   <stop
     style="stop-color:#141618;stop-opacity:1"
     offset="0"
     id="stop4551" />
   <stop
     id="stop4559"
     offset="0.51820582"
     style="stop-color:#686868;stop-opacity:1" />
   <stop
     style="stop-color:#31363b;stop-opacity:1"
     offset="1"
     id="stop4553" />
  </linearGradient>
  <filter
    style="color-interpolation-filters:sRGB"
    id="filter4601"
    x="-0.029680823"
    width="1.0593616"
    y="-0.029539206"
    height="1.0590784">
   <feGaussianBlur
     stdDeviation="8.3676307e-05"
     id="feGaussianBlur4603" />
  </filter>
  <linearGradient
    xlink:href="#linearGradient917"
    id="linearGradient919"
    x1="7.400631"
    y1="41.743092"
    x2="33.063145"
    y2="7.1074457"
    gradientUnits="userSpaceOnUse" />
  <linearGradient
    xlink:href="#linearGradient9138"
    id="linearGradient9144"
    x1="33.010448"
    y1="63.643616"
    x2="33.010448"
    y2="1.4182189"
    gradientUnits="userSpaceOnUse"
    gradientTransform="translate(419.74371,553.0317)" />
  <linearGradient
    id="linearGradient9138">
   <stop
     style="stop-color:#000000;stop-opacity:0.25120774"
     offset="0"
     id="stop9140" />
   <stop
     style="stop-color:#ffffff;stop-opacity:0;"
     offset="1"
     id="stop9142" />
  </linearGradient>
  <linearGradient
    gradientUnits="userSpaceOnUse"
    y2="563.45239"
    x2="448.15787"
    y1="615.15955"
    x1="448.15787"
    id="linearGradient4249"
    xlink:href="#linearGradient4243"
    gradientTransform="translate(0.06902845,0.29773101)" />
  <linearGradient
    id="linearGradient4243">
   <stop
     id="stop4245"
     offset="0"
     style="stop-color:#cf5e19;stop-opacity:1" />
   <stop
     id="stop4247"
     offset="1"
     style="stop-color:#e77936;stop-opacity:0;" />
  </linearGradient>
  <linearGradient
    xlink:href="#linearGradient9138"
    id="linearGradient9167"
    x1="451.07458"
    y1="614.4151"
    x2="451.07458"
    y2="555.28333"
    gradientUnits="userSpaceOnUse"
    gradientTransform="translate(-0.95875879,-3.9229838e-4)" />
 </defs>
 <rect
   style="display:inline;fill:url(#linearGradient919);fill-opacity:1;fill-rule:evenodd;stroke:none;stroke-width:0.92782;stroke-linejoin:round;stroke-miterlimit:7.8"
   id="rect1192"
   width="42.084602"
   height="42.712109"
   x="3.1629105"
   y="3.0184898"
   ry="0" />
 <g
   id="g894"
   style="display:inline"
   transform="matrix(0.60186937,0,0,0.60186937,-242.68941,-326.66864)">
  <path
    style="display:inline;fill:url(#linearGradient9144);fill-opacity:1;fill-rule:evenodd;stroke:none;stroke-width:1px;stroke-linecap:butt;stroke-linejoin:miter;stroke-opacity:1"
    d="m 432.55035,553.22506 -5.40234,5.40039 0.23438,0.23438 c -10.57581,13.19902 -8.05474,34.55018 5.65625,44.6914 2.56164,2.10222 5.43502,3.69936 8.47656,4.81445 -3.79135,0.58348 -7.33951,1.79211 -9.58203,4.79493 -2.68879,5.09867 4.12888,3.33996 7.56445,3.54882 h 34.67773 c 0.16871,-1.68215 -0.22443,-3.02407 -0.98828,-4.10546 1.63659,-0.24367 3.31998,-0.49414 4.23438,-0.66797 2.64904,-1.07886 2.86833,-4.39962 4.40625,-6.45703 1.13923,-2.37276 2.58977,-4.88415 2.73633,-7.49414 -1.91502,-3.93903 -4.96196,-7.21143 -7.80469,-10.47657 -0.69101,-0.52565 -1.54611,-0.69536 -2.40039,-0.73047 -0.0325,-10e-4 -0.16573,0.003 -0.21094,0.002 1.05978,-2.68379 1.60763,-5.5423 1.61523,-8.42774 -3.3e-4,-12.7639 -10.34742,-23.111 -23.11132,-23.11133 -4.89746,0.01 -9.66513,1.57556 -13.61524,4.47071 l -6.48633,-6.48633 z m -1.04687,9.75586 2.17969,2.17969 c -2.6946,3.87139 -4.14017,8.47456 -4.14258,13.1914 -7.5e-4,12.76466 10.34667,23.11296 23.11133,23.11328 4.71384,-0.01 9.31198,-1.46072 13.17773,-4.1582 l 2.82617,2.82617 c -1.08902,0.77047 -2.22904,1.96891 -3.45898,3.61133 -12.25066,8.6528 -35.17971,-4.83729 -38.5957,-19.10547 -2.21438,-7.47172 -0.11532,-15.78306 4.90234,-21.6582 z m 38.89062,42.16601 -0.0976,5.10352 c -1.90504,-0.97216 -4.24406,-1.51347 -6.48438,-1.875 2.30685,-0.81954 4.52034,-1.89737 6.58203,-3.22852 z"
    id="path18961-1-9-3" />
  <path
    id="path4182"
    d="m 430.20198,558.64 c -4.77759,5.457 -7.41717,12.45963 -7.43048,19.7125 0,16.57366 13.43561,30.00927 30.00928,30.00927 7.25529,-0.008 14.26224,-2.64309 19.72384,-7.41913 l -3.52237,-3.52237 c -4.5208,3.851 -10.2628,5.9705 -16.20147,5.98029 -13.83366,0 -25.04808,-11.21439 -25.04808,-25.04806 10e-4,-5.94196 2.11626,-11.68971 5.96519,-16.21659 z"
    style="color:#000000;clip-rule:nonzero;display:inline;overflow:visible;visibility:visible;opacity:1;isolation:auto;mix-blend-mode:normal;color-interpolation:sRGB;color-interpolation-filters:linearRGB;solid-color:#000000;solid-opacity:1;fill:#e77936;fill-opacity:1;fill-rule:nonzero;stroke:none;stroke-width:2;stroke-linecap:butt;stroke-linejoin:miter;stroke-miterlimit:4;stroke-dasharray:none;stroke-dashoffset:0;stroke-opacity:1;marker:none;color-rendering:auto;image-rendering:auto;shape-rendering:auto;text-rendering:auto;enable-background:accumulate" />
  <rect
    transform="rotate(-45)"
    style="color:#000000;clip-rule:nonzero;display:inline;overflow:visible;visibility:visible;opacity:1;isolation:auto;mix-blend-mode:normal;color-interpolation:sRGB;color-interpolation-filters:linearRGB;solid-color:#000000;solid-opacity:1;fill:#e77936;fill-opacity:1;fill-rule:nonzero;stroke:none;stroke-width:2;stroke-linecap:butt;stroke-linejoin:miter;stroke-miterlimit:4;stroke-dasharray:none;stroke-dashoffset:0;stroke-opacity:1;marker:none;color-rendering:auto;image-rendering:auto;shape-rendering:auto;text-rendering:auto;enable-background:accumulate"
    id="rect4180-3"
    width="4.7278013"
    height="60.744595"
    x="-91.247795"
    y="698.65808"
    rx="2.011425e-07"
    ry="0" />
  <ellipse
    style="color:#000000;clip-rule:nonzero;display:inline;overflow:visible;visibility:visible;opacity:1;isolation:auto;mix-blend-mode:normal;color-interpolation:sRGB;color-interpolation-filters:linearRGB;solid-color:#000000;solid-opacity:1;fill:#e77935;fill-opacity:1;fill-rule:nonzero;stroke:none;stroke-width:18.9477;stroke-linecap:butt;stroke-linejoin:miter;stroke-miterlimit:4;stroke-dasharray:none;stroke-dashoffset:0;stroke-opacity:1;marker:none;color-rendering:auto;image-rendering:auto;shape-rendering:auto;text-rendering:auto;enable-background:accumulate"
    id="path4848"
    cx="452.65173"
    cy="578.35254"
    rx="21.236917"
    ry="21.236921" />
  <path
    id="rect5297"
    d="m 472.14161,615.07415 h -19.36082 -19.36082 c 0,-3.87217 9.68041,-5.80825 19.36082,-5.80825 9.68041,0 19.36082,1.93608 19.36082,5.80825 z"
    style="color:#000000;clip-rule:nonzero;display:inline;overflow:visible;visibility:visible;opacity:1;isolation:auto;mix-blend-mode:normal;color-interpolation:sRGB;color-interpolation-filters:linearRGB;solid-color:#000000;solid-opacity:1;fill:#e77936;fill-opacity:1;fill-rule:nonzero;stroke:none;stroke-width:2;stroke-linecap:butt;stroke-linejoin:miter;stroke-miterlimit:4;stroke-dasharray:none;stroke-dashoffset:0;stroke-opacity:1;marker:none;color-rendering:auto;image-rendering:auto;shape-rendering:auto;text-rendering:auto;enable-background:accumulate" />
  <path
    style="color:#000000;clip-rule:nonzero;display:inline;overflow:visible;visibility:visible;opacity:1;isolation:auto;mix-blend-mode:normal;color-interpolation:sRGB;color-interpolation-filters:linearRGB;solid-color:#000000;solid-opacity:1;fill:url(#linearGradient4249);fill-opacity:1;fill-rule:nonzero;stroke:none;stroke-width:2;stroke-linecap:butt;stroke-linejoin:miter;stroke-miterlimit:4;stroke-dasharray:none;stroke-dashoffset:0;stroke-opacity:1;marker:none;color-rendering:auto;image-rendering:auto;shape-rendering:auto;text-rendering:auto;enable-background:accumulate"
    d="m 432.84723,555.20553 -3.34375,3.34179 0.42187,0.42188 c -4.59936,5.40832 -7.14125,12.27392 -7.1543,19.38281 0,15.92294 12.40327,28.94305 28.07422,29.94141 v 1.02148 c -8.99132,0.24204 -17.42578,2.14702 -17.42578,5.75977 h 19.36133 19.36133 c 0,-3.61275 -8.43446,-5.51773 -17.42578,-5.75977 v -1.02539 c 6.41499,-0.42157 12.53912,-2.89117 17.45898,-7.07031 l 0.28125,0.28125 3.34375,-3.34375 -6.56836,-6.56836 a 21.236917,21.236921 0 0 0 4.65625,-13.23633 21.236917,21.236921 0 0 0 -21.23633,-21.23633 21.236917,21.236921 0 0 0 -13.25,4.64454 z m 0.58593,7.27148 2.63868,2.63867 a 21.236917,21.236921 0 0 0 -4.65625,13.23633 21.236917,21.236921 0 0 0 21.23632,21.23828 21.236917,21.236921 0 0 0 13.25,-4.64453 l 2.74024,2.74024 c -4.46822,3.67496 -10.06708,5.70529 -15.86133,5.71484 -13.83366,0 -25.04883,-11.21516 -25.04883,-25.04883 9.8e-4,-5.79715 2.02871,-11.40098 5.70117,-15.875 z"
    id="rect5300-3" />
  <path
    d="m 460.96035,569.23567 c 0,0 -3.24925,-3.15097 -8.81079,-3.15755 -5.56153,-0.007 -11.13101,6.70068 -11.13774,12.36549 -0.007,5.6648 3.23857,12.17269 11.8432,12.18287 8.60465,0.009 12.5975,-4.49595 11.14085,-14.98806 l -10.6024,3.34438 1.99129,2.10041 1.25961,-0.3132 c 0,0 2.09558,2.62508 -1.05296,3.04097 -3.14853,0.41587 -5.9808,-0.4267 -6.39579,-4.41355 -0.41503,-3.98685 2.73638,-6.81552 6.40723,-5.23763 z"
    id="path8810-6-7-0-4-9-8"
    style="display:inline;opacity:1;fill:#ffffff;fill-opacity:1;fill-rule:evenodd;stroke:none;stroke-width:18.9477;stroke-linecap:butt;stroke-linejoin:miter;stroke-miterlimit:4;stroke-dasharray:none;stroke-opacity:1" />
  <path
    d="m 460.96035,569.23567 c 0,0 -3.24925,-3.15097 -8.81079,-3.15755 -5.56153,-0.007 -11.13101,6.70068 -11.13774,12.36549 -0.007,5.6648 3.23857,12.17269 11.8432,12.18287 8.60465,0.009 12.5975,-4.49595 11.14085,-14.98806 l -10.6024,3.34437 1.99129,2.10042 1.25961,-0.3132 c 0,0 2.09558,2.62507 -1.05296,3.04096 -3.14853,0.41588 -5.9808,-0.4267 -6.39579,-4.41355 -0.41503,-3.98684 2.73638,-6.81551 6.40723,-5.23762 z"
    id="path8810-6-7-0-4-9-8-6"
    style="display:inline;opacity:1;fill:url(#linearGradient9167);fill-opacity:1;fill-rule:evenodd;stroke:none;stroke-width:18.9477;stroke-linecap:butt;stroke-linejoin:miter;stroke-miterlimit:4;stroke-dasharray:none;stroke-opacity:1" />
 </g>
 <path
   style="display:inline;mix-blend-mode:normal;fill:url(#linearGradient3403);fill-opacity:1;stroke:url(#linearGradient20558);stroke-width:1.16242;stroke-linecap:butt;stroke-linejoin:round;stroke-miterlimit:4;stroke-dasharray:none;stroke-opacity:1"
   d="M 4.7043071,3.9814882 4.6913695,60.80196 H 58.59546 l 1.022155,-2.866369 c 0,0 -23.87537,0.766388 -32.844441,-4.140386 C 16.257548,48.042344 11.401114,4.0978197 11.401114,4.0978197 Z"
   id="path1686"
   transform="matrix(0.7518797,0,0,0.7518797,0.09970467,0.02488636)" />
 <rect
   style="display:inline;fill:none;fill-opacity:1;stroke:url(#linearGradient4557);stroke-width:3.71366;stroke-linejoin:round;stroke-miterlimit:7.8;stroke-dasharray:none;stroke-opacity:0.995146"
   id="rect4539"
   width="62.566689"
   height="62.866646"
   x="1.0323594"
   y="0.59551275"
   ry="6.2447233"
   rx="5.8029528"
   transform="matrix(0.70434793,0,0,0.70291231,1.3629847,1.5442064)" />
</svg>
