<?xml version="1.0" encoding="UTF-8" standalone="no"?>
<!-- Created with Inkscape (http://www.inkscape.org/) -->

<svg
  width="48"
  height="48"
  version="1.1"
  viewBox="0 0 48 48"
  id="svg22"
  xmlns:xlink="http://www.w3.org/1999/xlink"
  xmlns="http://www.w3.org/2000/svg"
  xmlns:svg="http://www.w3.org/2000/svg">
 <defs
   id="defs12">
  <linearGradient
    id="linearGradient917">
   <stop
     style="stop-color:#000000;stop-opacity:0.99607843"
     offset="0"
     id="stop913" />
   <stop
     style="stop-color:#353a3f;stop-opacity:0.99607843"
     offset="1"
     id="stop915" />
  </linearGradient>
  <linearGradient
    id="linearGradient1005-3-3"
    x1="5.2535"
    x2="9.3823996"
    y1="15.383"
    y2="2.9421"
    gradientTransform="matrix(0.99999,0,0,0.99999,1.632,-0.61743)"
    gradientUnits="userSpaceOnUse">
   <stop
     stop-color="#fa8200"
     offset="0"
     id="stop2" />
   <stop
     stop-color="#ff9600"
     offset=".36953"
     id="stop4" />
   <stop
     stop-color="#ffb400"
     offset="1"
     id="stop6" />
  </linearGradient>
  <filter
    id="filter4014"
    x="-0.062499932"
    y="-0.057692992"
    width="1.1249999"
    height="1.115386"
    color-interpolation-filters="sRGB">
   <feGaussianBlur
     stdDeviation="1.093751"
     id="feGaussianBlur9" />
  </filter>
  <linearGradient
    xlink:href="#linearGradient3487"
    id="linearGradient3403"
    gradientUnits="userSpaceOnUse"
    x1="6.9491749"
    y1="4.5549412"
    x2="11.215498"
    y2="59.052471" />
  <linearGradient
    id="linearGradient3487">
   <stop
     style="stop-color:#32373c;stop-opacity:1"
     offset="0"
     id="stop3481" />
   <stop
     id="stop3483"
     offset="0.36804965"
     style="stop-color:#1a1a1a;stop-opacity:1" />
   <stop
     style="stop-color:#31363b;stop-opacity:1"
     offset="1"
     id="stop3485" />
  </linearGradient>
  <linearGradient
    xlink:href="#linearGradient20604"
    id="linearGradient20558"
    gradientUnits="userSpaceOnUse"
    x1="25.802212"
    y1="20.373846"
    x2="25.111048"
    y2="58.912758" />
  <linearGradient
    id="linearGradient20604">
   <stop
     id="stop20598"
     offset="0"
     style="stop-color:#3d3d3d;stop-opacity:1" />
   <stop
     style="stop-color:#000000;stop-opacity:1"
     offset="0.61772454"
     id="stop20600" />
   <stop
     id="stop20602"
     offset="1"
     style="stop-color:#3d3d3d;stop-opacity:1" />
  </linearGradient>
  <linearGradient
    gradientTransform="translate(0.36067797,-0.13016949)"
    xlink:href="#linearGradient4555"
    id="linearGradient4557"
    x1="43.499737"
    y1="64.011795"
    x2="44.141731"
    y2="0.30621234"
    gradientUnits="userSpaceOnUse" />
  <linearGradient
    id="linearGradient4555">
   <stop
     style="stop-color:#141618;stop-opacity:1"
     offset="0"
     id="stop4551" />
   <stop
     id="stop4559"
     offset="0.51820582"
     style="stop-color:#686868;stop-opacity:1" />
   <stop
     style="stop-color:#31363b;stop-opacity:1"
     offset="1"
     id="stop4553" />
  </linearGradient>
  <filter
    style="color-interpolation-filters:sRGB"
    id="filter4601"
    x="-0.029677759"
    width="1.0593555"
    y="-0.029536157"
    height="1.0590723">
   <feGaussianBlur
     stdDeviation="3.7978604e-06"
     id="feGaussianBlur4603" />
  </filter>
  <linearGradient
    xlink:href="#linearGradient917"
    id="linearGradient919"
    x1="7.400631"
    y1="41.743092"
    x2="33.063145"
    y2="7.1074457"
    gradientUnits="userSpaceOnUse" />
  <linearGradient
    id="c"
    y1="44"
    y2="4"
    x2="0"
    gradientUnits="userSpaceOnUse">
   <stop
     stop-color="#2a2c2f"
     id="stop44867" />
   <stop
     offset="1"
     stop-color="#424649"
     id="stop44869" />
  </linearGradient>
  <linearGradient
    id="a"
    y1="41"
    y2="7"
    x2="0"
    gradientUnits="userSpaceOnUse">
   <stop
     stop-color="#728790"
     id="stop44857" />
   <stop
     offset="1"
     stop-color="#85969e"
     id="stop44859" />
  </linearGradient>
  <linearGradient
    id="d"
    y1="15"
    x1="15"
    y2="44"
    x2="44"
    gradientUnits="userSpaceOnUse">
   <stop
     stop-color="#020303"
     id="stop44872" />
   <stop
     offset="1"
     stop-color="#424649"
     stop-opacity="0"
     id="stop44874" />
  </linearGradient>
  <linearGradient
    id="b"
    y1="36"
    y2="12"
    x2="0"
    gradientUnits="userSpaceOnUse">
   <stop
     stop-color="#06a370"
     id="stop44862" />
   <stop
     offset="1"
     stop-color="#22d1b0"
     id="stop44864" />
  </linearGradient>
 </defs>
 <rect
   style="display:inline;fill:url(#linearGradient919);fill-opacity:1;fill-rule:evenodd;stroke:none;stroke-width:0.92782;stroke-linejoin:round;stroke-miterlimit:7.8"
   id="rect1192"
   width="42.084602"
   height="42.712109"
   x="3.1629105"
   y="3.0184898"
   ry="0" />
 <g
   transform="translate(3.4403199,-0.45611833)"
   id="g44924">
  <g
    style="stroke-width:2.8;stroke-opacity:0.55"
    id="g44883">
   <path
     style="fill:url(#c)"
     d="M 24,4 C 12.92,4 4,12.92 4,24 h 7 c 0,-7.202 5.798,-13 13,-13 z m 13,20 c 0,7.202 -5.798,13 -13,13 v 7 c 11.08,0 20,-8.92 20,-20 z"
     id="path44879" />
   <path
     style="fill:url(#a)"
     d="M 24,7 C 14.582,7 7,14.582 7,24 c 0,9.418 7.582,17 17,17 9.418,0 17,-7.582 17,-17 H 34 C 34,29.54 29.54,34 24,34 18.46,34 14,29.54 14,24 14,18.46 18.46,14 24,14 Z"
     id="path44881" />
  </g>
  <path
    style="opacity:0.2;fill:url(#d);fill-rule:evenodd"
    d="m 22,15 -7,7 2.68,10 -1.68,1 10.801,10.801 c 8.829,-1.227 15.773,-8.171 17,-17 L 41,24 h -5 c 0,-3.597 -1.575,-6.804 -4.066,-9 z m 2,2 c 3.878,0 7,3.122 7,7 0,3.878 -3.122,7 -7,7 -3.878,0 -7,-3.122 -7,-7 0,-3.878 3.122,-7 7,-7"
    id="path44885" />
  <g
    style="stroke-width:2.8;stroke-opacity:0.55"
    id="g44895">
   <path
     style="fill:url(#b)"
     d="m 24,12 c -6.648,0 -12,5.352 -12,12 0,6.648 5.352,12 12,12 6.648,0 12,-5.352 12,-12 0,-6.648 -5.352,-12 -12,-12 m 0,5 c 3.878,0 7,3.122 7,7 0,3.878 -3.122,7 -7,7 -3.878,0 -7,-3.122 -7,-7 0,-3.878 3.122,-7 7,-7"
     id="path44887" />
   <g
     style="fill-opacity:0.118"
     id="g44893">
    <path
      d="m 4.03,23 c -0.016,0.332 -0.025,0.664 -0.025,1 h 3 v -1 h -2 z m 39.949,1 c -0.518,10.611 -9.23,19 -19.975,19 v 1 c 11.08,0 20,-8.92 20,-20 z"
      id="path44889" />
    <path
      d="m 7,24 c 0,9.418 7.582,17 17,17 9.418,0 17,-7.582 17,-17 H 40.949 C 40.432,32.946 33.08,40 24,40 14.92,40 7.583,32.94 7.064,24 Z"
      id="path44891" />
   </g>
  </g>
 </g>
 <path
   style="display:inline;mix-blend-mode:normal;fill:url(#linearGradient3403);fill-opacity:1;stroke:url(#linearGradient20558);stroke-width:1.16242;stroke-linecap:butt;stroke-linejoin:round;stroke-miterlimit:4;stroke-dasharray:none;stroke-opacity:1"
   d="M 4.7043071,3.9814882 4.6913695,60.80196 H 58.59546 l 1.022155,-2.866369 c 0,0 -23.87537,0.766388 -32.844441,-4.140386 C 16.257548,48.042344 11.401114,4.0978197 11.401114,4.0978197 Z"
   id="path1686"
   transform="matrix(0.7518797,0,0,0.7518797,0.09970467,0.02488636)" />
 <rect
   style="display:inline;fill:none;fill-opacity:1;stroke:url(#linearGradient4557);stroke-width:3.71366;stroke-linejoin:round;stroke-miterlimit:7.8;stroke-dasharray:none;stroke-opacity:0.995146"
   id="rect4539"
   width="62.566689"
   height="62.866646"
   x="1.0323594"
   y="0.59551275"
   ry="6.2447233"
   rx="5.8029528"
   transform="matrix(0.70434793,0,0,0.70291231,1.3629847,1.5442064)" />
</svg>
