<?xml version="1.0" encoding="UTF-8" standalone="no"?>
<!-- Created with Inkscape (http://www.inkscape.org/) -->

<svg
  width="48"
  height="48"
  version="1.1"
  viewBox="0 0 48 48"
  id="svg22"
  xmlns:xlink="http://www.w3.org/1999/xlink"
  xmlns="http://www.w3.org/2000/svg"
  xmlns:svg="http://www.w3.org/2000/svg">
 <defs
   id="defs12">
  <linearGradient
    xlink:href="#linearGradient3487"
    id="linearGradient3403"
    gradientUnits="userSpaceOnUse"
    x1="6.9491749"
    y1="4.5549412"
    x2="11.215498"
    y2="59.052471" />
  <linearGradient
    id="linearGradient3487">
   <stop
     style="stop-color:#32373c;stop-opacity:1"
     offset="0"
     id="stop3481" />
   <stop
     id="stop3483"
     offset="0.36804965"
     style="stop-color:#1a1a1a;stop-opacity:1" />
   <stop
     style="stop-color:#31363b;stop-opacity:1"
     offset="1"
     id="stop3485" />
  </linearGradient>
  <linearGradient
    xlink:href="#linearGradient20604"
    id="linearGradient20558"
    gradientUnits="userSpaceOnUse"
    x1="25.802212"
    y1="20.373846"
    x2="25.111048"
    y2="58.912758" />
  <linearGradient
    id="linearGradient20604">
   <stop
     id="stop20598"
     offset="0"
     style="stop-color:#3d3d3d;stop-opacity:1" />
   <stop
     style="stop-color:#000000;stop-opacity:1"
     offset="0.61772454"
     id="stop20600" />
   <stop
     id="stop20602"
     offset="1"
     style="stop-color:#3d3d3d;stop-opacity:1" />
  </linearGradient>
  <filter
    style="color-interpolation-filters:sRGB"
    id="filter20720"
    x="-0.010581658"
    y="-0.010228879"
    width="1.0211629"
    height="1.0204578">
   <feGaussianBlur
     stdDeviation="3.1122801e-07"
     id="feGaussianBlur20722" />
  </filter>
  <linearGradient
    gradientTransform="translate(0.36067797,-0.13016949)"
    xlink:href="#linearGradient4555"
    id="linearGradient4557"
    x1="43.499737"
    y1="64.011795"
    x2="44.141731"
    y2="0.30621234"
    gradientUnits="userSpaceOnUse" />
  <linearGradient
    id="linearGradient4555">
   <stop
     style="stop-color:#141618;stop-opacity:1"
     offset="0"
     id="stop4551" />
   <stop
     id="stop4559"
     offset="0.51820582"
     style="stop-color:#686868;stop-opacity:1" />
   <stop
     style="stop-color:#31363b;stop-opacity:1"
     offset="1"
     id="stop4553" />
  </linearGradient>
  <filter
    style="color-interpolation-filters:sRGB"
    id="filter4601"
    x="-0.029677626"
    width="1.0593553"
    y="-0.029536025"
    height="1.059072">
   <feGaussianBlur
     stdDeviation="3.3256982e-07"
     id="feGaussianBlur4603" />
  </filter>
 </defs>
 <rect
   y="0.60077608"
   x="1.033034"
   height="62.866646"
   width="62.567139"
   id="rect4539-1"
   style="opacity:1;fill:#dde2e5;fill-opacity:1;stroke:none;stroke-width:1.146;stroke-linejoin:round;stroke-miterlimit:7.8;stroke-dasharray:none;stroke-opacity:0.995146"
   transform="matrix(0.65757423,0,0,0.65757423,3.6375952,2.5786771)" />
 <path
   class="ColorScheme-Text"
   d="M 34.667453,9.7010051 30.071085,22.28885 h -0.0014 l -7.811611,21.384617 h 5.200188 l 6.643376,-18.172346 h 3.909207 l -6.643378,18.172768 5.198371,0.0014 6.190402,-16.953506 c 0.891027,-2.436977 -0.510487,-4.432376 -3.111951,-4.432376 H 35.273082 L 40.104551,9.0605473 C 38.491042,8.8906051 35.866032,9.2515615 34.667453,9.7024115 Z M 48.289413,22.28885 40.256298,44.284992 h -0.0036 l -4.506226,12.338543 a 24.538733,24.45124 0 0 0 4.96192,0.665742 l 4.973206,-13.619461 h 6.901573 c 1.211269,0 2.541206,-0.929791 2.955226,-2.061131 l 5.440265,-14.890128 c 0.890097,-2.438101 -0.510936,-4.432095 -3.114227,-4.432095 z m 4.04555,3.200755 h 3.90784 l -5.471975,14.960073 h -3.907845 z"
   display="block"
   overflow="visible"
   id="path22"
   style="color:#d5c289;fill:#000000;fill-opacity:0.32827091;stroke-width:14.0452"
   transform="matrix(0.65757423,0,0,0.65757423,3.6375952,2.5786771)" />
 <path
   class="ColorScheme-Text"
   d="M 34.739491,9.2065049 30.143123,21.79435 h -0.0014 L 22.330112,43.178967 H 27.5303 l 6.643376,-18.172346 h 3.909207 l -6.643378,18.172768 5.198371,0.0014 6.190402,-16.953506 c 0.891027,-2.436977 -0.510487,-4.432376 -3.111951,-4.432376 H 35.34512 L 40.176589,8.5660469 C 38.56308,8.3961049 35.93807,8.7570619 34.739491,9.2079119 Z M 48.361451,21.79435 40.328336,43.790492 h -0.0036 L 35.81851,56.129035 a 24.538733,24.45124 0 0 0 4.96192,0.665742 l 4.973206,-13.619461 h 6.901573 c 1.211269,0 2.541206,-0.929791 2.955226,-2.061131 L 61.0507,26.224057 c 0.890097,-2.438101 -0.510936,-4.432095 -3.114227,-4.432095 z m 4.04555,3.200755 h 3.90784 l -5.471975,14.960073 h -3.907845 z"
   display="block"
   overflow="visible"
   id="path22-3"
   style="color:#d5c289;fill:#000000;fill-opacity:1;stroke-width:14.0452"
   transform="matrix(0.65757423,0,0,0.65757423,3.6375952,2.5786771)" />
 <path
   style="display:inline;mix-blend-mode:normal;fill:url(#linearGradient3403);fill-opacity:1;stroke:url(#linearGradient20558);stroke-width:1.16242;stroke-linecap:butt;stroke-linejoin:round;stroke-miterlimit:4;stroke-dasharray:none;stroke-opacity:1"
   d="M 4.7043071,3.9814882 4.6913695,60.80196 H 58.59546 l 1.022155,-2.866369 c 0,0 -23.87537,0.766388 -32.844441,-4.140386 C 16.257548,48.042344 11.401114,4.0978197 11.401114,4.0978197 Z"
   id="path1686"
   transform="matrix(0.7518797,0,0,0.7518797,0.09970467,0.02488636)" />
 <rect
   style="display:inline;fill:none;fill-opacity:1;stroke:url(#linearGradient4557);stroke-width:3.71366;stroke-linejoin:round;stroke-miterlimit:7.8;stroke-dasharray:none;stroke-opacity:0.995146"
   id="rect4539"
   width="62.566689"
   height="62.866646"
   x="1.0323594"
   y="0.59551275"
   ry="6.2447233"
   rx="5.8029528"
   transform="matrix(0.70434793,0,0,0.70291231,1.3629847,1.5442064)" />
</svg>
