<?xml version="1.0" encoding="UTF-8" standalone="no"?>
<!-- Created with Inkscape (http://www.inkscape.org/) -->

<svg
  width="48"
  height="48"
  version="1.1"
  viewBox="0 0 48 48"
  id="svg22"
  xmlns:xlink="http://www.w3.org/1999/xlink"
  xmlns="http://www.w3.org/2000/svg"
  xmlns:svg="http://www.w3.org/2000/svg">
 <defs
   id="defs12">
  <linearGradient
    id="linearGradient1005-3-3"
    x1="5.2535"
    x2="9.3823996"
    y1="15.383"
    y2="2.9421"
    gradientTransform="matrix(0.99999,0,0,0.99999,1.632,-0.61743)"
    gradientUnits="userSpaceOnUse">
   <stop
     stop-color="#fa8200"
     offset="0"
     id="stop2" />
   <stop
     stop-color="#ff9600"
     offset=".36953"
     id="stop4" />
   <stop
     stop-color="#ffb400"
     offset="1"
     id="stop6" />
  </linearGradient>
  <filter
    id="filter4014"
    x="-0.062499932"
    y="-0.057692992"
    width="1.1249999"
    height="1.115386"
    color-interpolation-filters="sRGB">
   <feGaussianBlur
     stdDeviation="1.093751"
     id="feGaussianBlur9" />
  </filter>
  <linearGradient
    xlink:href="#linearGradient3487"
    id="linearGradient3403"
    gradientUnits="userSpaceOnUse"
    x1="6.9491749"
    y1="4.5549412"
    x2="11.215498"
    y2="59.052471" />
  <linearGradient
    id="linearGradient3487">
   <stop
     style="stop-color:#32373c;stop-opacity:1"
     offset="0"
     id="stop3481" />
   <stop
     id="stop3483"
     offset="0.36804965"
     style="stop-color:#1a1a1a;stop-opacity:1" />
   <stop
     style="stop-color:#31363b;stop-opacity:1"
     offset="1"
     id="stop3485" />
  </linearGradient>
  <linearGradient
    xlink:href="#linearGradient20604"
    id="linearGradient20558"
    gradientUnits="userSpaceOnUse"
    x1="25.802212"
    y1="20.373846"
    x2="25.111048"
    y2="58.912758" />
  <linearGradient
    id="linearGradient20604">
   <stop
     id="stop20598"
     offset="0"
     style="stop-color:#3d3d3d;stop-opacity:1" />
   <stop
     style="stop-color:#000000;stop-opacity:1"
     offset="0.61772454"
     id="stop20600" />
   <stop
     id="stop20602"
     offset="1"
     style="stop-color:#3d3d3d;stop-opacity:1" />
  </linearGradient>
  <linearGradient
    gradientTransform="translate(0.36067797,-0.13016949)"
    xlink:href="#linearGradient4555"
    id="linearGradient4557"
    x1="43.499737"
    y1="64.011795"
    x2="44.141731"
    y2="0.30621234"
    gradientUnits="userSpaceOnUse" />
  <linearGradient
    id="linearGradient4555">
   <stop
     style="stop-color:#141618;stop-opacity:1"
     offset="0"
     id="stop4551" />
   <stop
     id="stop4559"
     offset="0.51820582"
     style="stop-color:#686868;stop-opacity:1" />
   <stop
     style="stop-color:#31363b;stop-opacity:1"
     offset="1"
     id="stop4553" />
  </linearGradient>
  <filter
    style="color-interpolation-filters:sRGB"
    id="filter4601"
    x="-0.029678354"
    width="1.0593567"
    y="-0.029536749"
    height="1.0590735">
   <feGaussianBlur
     stdDeviation="1.9313963e-05"
     id="feGaussianBlur4603" />
  </filter>
  <linearGradient
    xlink:href="#b"
    id="linearGradient4412"
    gradientUnits="userSpaceOnUse"
    gradientTransform="translate(30)"
    x1="-7.283"
    y1="15.656"
    x2="11.881"
    y2="33.522999" />
  <linearGradient
    id="b"
    y1="23.775"
    x1="22.540001"
    y2="44.054001"
    x2="42.646"
    gradientUnits="userSpaceOnUse"
    gradientTransform="translate(30)">
   <stop
     stop-color="#292c2f"
     id="stop41641" />
   <stop
     offset="1"
     stop-color="#292c2f"
     stop-opacity="0"
     id="stop41643" />
  </linearGradient>
  <linearGradient
    xlink:href="#b"
    id="linearGradient4384"
    gradientUnits="userSpaceOnUse"
    gradientTransform="translate(30)"
    x1="-21.261"
    y1="13.899"
    x2="10.555"
    y2="48.902" />
 </defs>
 <g
   id="g884"
   transform="matrix(0.67274806,0,0,0.67274806,2.5119394,2.4227551)">
  <rect
    y="0.60077608"
    x="1.033034"
    height="62.866646"
    width="62.567139"
    id="rect4539-1"
    style="opacity:1;fill:#70ddaa;fill-opacity:1;stroke:none;stroke-width:1.146;stroke-linejoin:round;stroke-miterlimit:7.8;stroke-dasharray:none;stroke-opacity:0.995146" />
  <g
    transform="matrix(1.4471436,0,0,1.472886,-0.51489355,-6.4212308)"
    id="g41681">
   <path
     d="m 27.390709,12.269322 a 3.363519,3.363519 0 0 1 -0.502788,1.711949 l 4.947686,2.859418 a 3.3505631,3.3505631 0 0 1 0.931548,-1.465181 z m -6.721328,0.05244 -5.404206,3.121608 a 3.3505631,3.3505631 0 0 1 0.863686,1.425082 l 5.027885,-2.905686 A 3.363519,3.363519 0 0 1 20.669381,12.32176 Z m -6.773767,8.720144 a 3.3505631,3.3505631 0 0 1 -0.971646,0.144981 3.3505631,3.3505631 0 0 1 -0.592242,-0.05243 v 6.058141 a 3.3505631,3.3505631 0 0 1 0.592242,-0.05553 3.3505631,3.3505631 0 0 1 0.971646,0.144981 v -6.240132 z m 20.219508,0.01548 v 6.209286 a 3.3505631,3.3505631 0 0 1 0.919209,-0.129551 3.3505631,3.3505631 0 0 1 0.783487,0.09871 v -6.144509 a 3.3505631,3.3505631 0 0 1 -0.783487,0.09563 3.3505631,3.3505631 0 0 1 -0.919209,-0.129551 z M 16.205975,31.16554 a 3.3505631,3.3505631 0 0 1 -0.65085,1.39115 l 5.132763,2.964294 a 3.3505631,3.3505631 0 0 1 0.515127,-1.468265 z m 15.555602,0.02776 -4.92301,2.843994 a 3.3505631,3.3505631 0 0 1 0.524381,1.542297 l 5.101917,-2.945787 A 3.3505631,3.3505631 0 0 1 31.761577,31.1933 Z"
     style="color:#000000;clip-rule:nonzero;display:inline;overflow:visible;visibility:visible;opacity:0.5;isolation:auto;mix-blend-mode:normal;color-interpolation:sRGB;color-interpolation-filters:linearRGB;solid-color:#000000;solid-opacity:1;fill:#ffffff;fill-opacity:1;fill-rule:nonzero;stroke:none;stroke-width:0.633187;stroke-linecap:butt;stroke-linejoin:miter;stroke-miterlimit:4;stroke-dasharray:none;stroke-dashoffset:0;stroke-opacity:1;marker:none;color-rendering:auto;image-rendering:auto;shape-rendering:auto;text-rendering:auto;enable-background:accumulate"
     id="path41657" />
   <path
     d="m 23.957557,9.6875179 a 2.3689674,2.3689674 0 0 0 -2.368967,2.3689671 2.3689674,2.3689674 0 0 0 2.368967,2.368968 2.3689674,2.3689674 0 0 0 2.368968,-2.368968 2.3689674,2.3689674 0 0 0 -2.368968,-2.3689671 z m -0.05553,1.5793121 a 0.7896558,0.7896558 0 0 1 0.05553,0 0.7896558,0.7896558 0 0 1 0.789656,0.789655 0.7896558,0.7896558 0 0 1 -0.789656,0.789656 0.7896558,0.7896558 0 0 1 -0.789656,-0.789656 0.7896558,0.7896558 0 0 1 0.734134,-0.789655 z"
     style="color:#000000;clip-rule:nonzero;display:inline;overflow:visible;visibility:visible;opacity:0.5;isolation:auto;mix-blend-mode:normal;color-interpolation:sRGB;color-interpolation-filters:linearRGB;solid-color:#000000;solid-opacity:1;fill:#ffffff;fill-opacity:1;fill-rule:nonzero;stroke:none;stroke-width:0.633187;stroke-linecap:butt;stroke-linejoin:miter;stroke-miterlimit:4;stroke-dasharray:none;stroke-dashoffset:0;stroke-opacity:1;marker:none;color-rendering:auto;image-rendering:auto;shape-rendering:auto;text-rendering:auto;enable-background:accumulate"
     id="path41659" />
   <path
     style="color:#000000;clip-rule:nonzero;display:inline;overflow:visible;visibility:visible;opacity:0.5;isolation:auto;mix-blend-mode:normal;color-interpolation:sRGB;color-interpolation-filters:linearRGB;solid-color:#000000;solid-opacity:1;fill:#ffffff;fill-opacity:1;fill-rule:nonzero;stroke:none;stroke-width:0.633187;stroke-linecap:butt;stroke-linejoin:miter;stroke-miterlimit:4;stroke-dasharray:none;stroke-dashoffset:0;stroke-opacity:1;marker:none;color-rendering:auto;image-rendering:auto;shape-rendering:auto;text-rendering:auto;enable-background:accumulate"
     d="m 35.055181,28.043956 a 2.3689674,2.3689674 0 0 0 -2.368968,2.368967 2.3689674,2.3689674 0 0 0 2.368968,2.368968 2.3689674,2.3689674 0 0 0 2.368967,-2.368968 2.3689674,2.3689674 0 0 0 -2.368967,-2.368967 z m -0.05553,1.579312 a 0.7896558,0.7896558 0 0 1 0.05553,0 0.7896558,0.7896558 0 0 1 0.789656,0.789655 0.7896558,0.7896558 0 0 1 -0.789656,0.789656 0.7896558,0.7896558 0 0 1 -0.789656,-0.789656 0.7896558,0.7896558 0 0 1 0.734133,-0.789655 z"
     id="path41661" />
   <path
     d="m 33.437502,19.562499 9.65625,9.46875 0.875,-5.8125 -7.34375,-7.218751 -2.625,0.40625 z"
     style="color:#000000;clip-rule:nonzero;display:inline;overflow:visible;visibility:visible;opacity:0.21;isolation:auto;mix-blend-mode:normal;color-interpolation:sRGB;color-interpolation-filters:linearRGB;solid-color:#000000;solid-opacity:1;fill:url(#linearGradient4412);fill-opacity:1;fill-rule:nonzero;stroke:none;stroke-width:1;stroke-linecap:butt;stroke-linejoin:miter;stroke-miterlimit:4;stroke-dasharray:none;stroke-dashoffset:0;stroke-opacity:1;color-rendering:auto;image-rendering:auto;shape-rendering:auto;text-rendering:auto;enable-background:accumulate"
     id="path41663" />
   <path
     d="m 35.055181,15.39288 a 2.3689674,2.3689674 0 0 0 -2.368968,2.368968 2.3689674,2.3689674 0 0 0 2.368968,2.368967 2.3689674,2.3689674 0 0 0 2.368967,-2.368967 2.3689674,2.3689674 0 0 0 -2.368967,-2.368968 z m -0.05553,1.579312 a 0.7896558,0.7896558 0 0 1 0.05553,0 0.7896558,0.7896558 0 0 1 0.789656,0.789656 0.7896558,0.7896558 0 0 1 -0.789656,0.789656 0.7896558,0.7896558 0 0 1 -0.789656,-0.789656 0.7896558,0.7896558 0 0 1 0.734133,-0.789656 z"
     style="color:#000000;clip-rule:nonzero;display:inline;overflow:visible;visibility:visible;opacity:1;isolation:auto;mix-blend-mode:normal;color-interpolation:sRGB;color-interpolation-filters:linearRGB;solid-color:#000000;solid-opacity:1;fill:#ffffff;fill-opacity:1;fill-rule:nonzero;stroke:none;stroke-width:0.633187;stroke-linecap:butt;stroke-linejoin:miter;stroke-miterlimit:4;stroke-dasharray:none;stroke-dashoffset:0;stroke-opacity:1;marker:none;color-rendering:auto;image-rendering:auto;shape-rendering:auto;text-rendering:auto;enable-background:accumulate"
     id="path41665" />
   <path
     d="m 12.944818,28.043956 a 2.3689674,2.3689674 0 0 0 -2.368967,2.368967 2.3689674,2.3689674 0 0 0 2.368967,2.368968 2.3689674,2.3689674 0 0 0 2.368968,-2.368968 2.3689674,2.3689674 0 0 0 -2.368968,-2.368967 z m -0.05553,1.579312 a 0.7896558,0.7896558 0 0 1 0.05553,0 0.7896558,0.7896558 0 0 1 0.789656,0.789655 0.7896558,0.7896558 0 0 1 -0.789656,0.789656 0.7896558,0.7896558 0 0 1 -0.789655,-0.789656 0.7896558,0.7896558 0 0 1 0.734133,-0.789655 z"
     style="color:#000000;clip-rule:nonzero;display:inline;overflow:visible;visibility:visible;opacity:0.5;isolation:auto;mix-blend-mode:normal;color-interpolation:sRGB;color-interpolation-filters:linearRGB;solid-color:#000000;solid-opacity:1;fill:#ffffff;fill-opacity:1;fill-rule:nonzero;stroke:none;stroke-width:0.633187;stroke-linecap:butt;stroke-linejoin:miter;stroke-miterlimit:4;stroke-dasharray:none;stroke-dashoffset:0;stroke-opacity:1;marker:none;color-rendering:auto;image-rendering:auto;shape-rendering:auto;text-rendering:auto;enable-background:accumulate"
     id="path41667" />
   <path
     d="m 14.578125,16.0625 -3.015625,0.34375 -0.34375,2.96875 7.181641,7.166016 3.144531,7.117187 1.457031,1.453125 -0.949219,2.238281 5.300782,5.378907 c 1.077417,-0.194333 1.90878,-0.421918 2.634765,-0.648438 l 0.01953,0.01953 0.142579,-0.06836 c 1.103785,-0.355334 1.877499,-0.706 2.376953,-0.925781 2.038888,-0.749487 3.676725,-2.301075 5.377788,-3.726211 4.211162,-4.606789 3.732208,-5.360983 4.956197,-7.514023 L 33.888672,20.937499 28.125,29.4375 Z"
     style="color:#000000;clip-rule:nonzero;display:inline;overflow:visible;visibility:visible;opacity:0.21;isolation:auto;mix-blend-mode:normal;color-interpolation:sRGB;color-interpolation-filters:linearRGB;solid-color:#000000;solid-opacity:1;fill:url(#linearGradient4384);fill-opacity:1;fill-rule:nonzero;stroke:none;stroke-width:1;stroke-linecap:butt;stroke-linejoin:miter;stroke-miterlimit:4;stroke-dasharray:none;stroke-dashoffset:0;stroke-opacity:1;color-rendering:auto;image-rendering:auto;shape-rendering:auto;text-rendering:auto;enable-background:accumulate"
     id="path41669" />
   <path
     style="color:#000000;clip-rule:nonzero;display:inline;overflow:visible;visibility:visible;opacity:1;isolation:auto;mix-blend-mode:normal;color-interpolation:sRGB;color-interpolation-filters:linearRGB;solid-color:#000000;solid-opacity:1;fill:#ffffff;fill-opacity:1;fill-rule:nonzero;stroke:none;stroke-width:0.633187;stroke-linecap:butt;stroke-linejoin:miter;stroke-miterlimit:4;stroke-dasharray:none;stroke-dashoffset:0;stroke-opacity:1;marker:none;color-rendering:auto;image-rendering:auto;shape-rendering:auto;text-rendering:auto;enable-background:accumulate"
     d="m 12.944818,15.39288 a 2.3689674,2.3689674 0 0 0 -2.368967,2.368968 2.3689674,2.3689674 0 0 0 2.368967,2.368967 2.3689674,2.3689674 0 0 0 2.368968,-2.368967 2.3689674,2.3689674 0 0 0 -2.368968,-2.368968 z m -0.05553,1.579312 a 0.7896558,0.7896558 0 0 1 0.05553,0 0.7896558,0.7896558 0 0 1 0.789656,0.789656 0.7896558,0.7896558 0 0 1 -0.789656,0.789656 0.7896558,0.7896558 0 0 1 -0.789655,-0.789656 0.7896558,0.7896558 0 0 1 0.734133,-0.789656 z"
     id="path41671" />
   <path
     style="color:#000000;clip-rule:nonzero;display:inline;overflow:visible;visibility:visible;opacity:1;isolation:auto;mix-blend-mode:normal;color-interpolation:sRGB;color-interpolation-filters:linearRGB;solid-color:#000000;solid-opacity:1;fill:#ffffff;fill-opacity:1;fill-rule:nonzero;stroke:none;stroke-width:0.633187;stroke-linecap:butt;stroke-linejoin:miter;stroke-miterlimit:4;stroke-dasharray:none;stroke-dashoffset:0;stroke-opacity:1;marker:none;color-rendering:auto;image-rendering:auto;shape-rendering:auto;text-rendering:auto;enable-background:accumulate"
     d="m 23.957557,33.574547 a 2.3689674,2.3689674 0 0 0 -2.368967,2.368968 2.3689674,2.3689674 0 0 0 2.368967,2.368967 2.3689674,2.3689674 0 0 0 2.368968,-2.368967 2.3689674,2.3689674 0 0 0 -2.368968,-2.368968 z m -0.05553,1.579312 a 0.7896558,0.7896558 0 0 1 0.05553,0 0.7896558,0.7896558 0 0 1 0.789656,0.789656 0.7896558,0.7896558 0 0 1 -0.789656,0.789655 0.7896558,0.7896558 0 0 1 -0.789656,-0.789655 0.7896558,0.7896558 0 0 1 0.734134,-0.789656 z"
     id="path41673" />
   <path
     d="m 15.49035,19.993143 a 3.3505631,3.3505631 0 0 1 -1.283191,0.934632 l 7.325908,12.690015 a 3.3505631,3.3505631 0 0 1 1.304783,-0.894531 z"
     style="color:#000000;clip-rule:nonzero;display:inline;overflow:visible;visibility:visible;opacity:1;isolation:auto;mix-blend-mode:normal;color-interpolation:sRGB;color-interpolation-filters:linearRGB;solid-color:#000000;solid-opacity:1;fill:#ffffff;fill-opacity:1;fill-rule:nonzero;stroke:none;stroke-width:0.633187;stroke-linecap:butt;stroke-linejoin:miter;stroke-miterlimit:4;stroke-dasharray:none;stroke-dashoffset:0;stroke-opacity:1;marker:none;color-rendering:auto;image-rendering:auto;shape-rendering:auto;text-rendering:auto;enable-background:accumulate"
     id="path41675" />
   <path
     d="m 32.523472,20.05175 -7.316654,12.674593 a 3.3505631,3.3505631 0 0 1 1.307867,0.894532 L 33.82517,20.955536 A 3.3505631,3.3505631 0 0 1 32.523472,20.05175 Z"
     style="color:#000000;clip-rule:nonzero;display:inline;overflow:visible;visibility:visible;opacity:1;isolation:auto;mix-blend-mode:normal;color-interpolation:sRGB;color-interpolation-filters:linearRGB;solid-color:#000000;solid-opacity:1;fill:#ffffff;fill-opacity:1;fill-rule:nonzero;stroke:none;stroke-width:0.633187;stroke-linecap:butt;stroke-linejoin:miter;stroke-miterlimit:4;stroke-dasharray:none;stroke-dashoffset:0;stroke-opacity:1;marker:none;color-rendering:auto;image-rendering:auto;shape-rendering:auto;text-rendering:auto;enable-background:accumulate"
     id="path41677" />
  </g>
 </g>
 <path
   style="display:inline;mix-blend-mode:normal;fill:url(#linearGradient3403);fill-opacity:1;stroke:url(#linearGradient20558);stroke-width:1.16242;stroke-linecap:butt;stroke-linejoin:round;stroke-miterlimit:4;stroke-dasharray:none;stroke-opacity:1"
   d="M 4.7043071,3.9814882 4.6913695,60.80196 H 58.59546 l 1.022155,-2.866369 c 0,0 -23.87537,0.766388 -32.844441,-4.140386 C 16.257548,48.042344 11.401114,4.0978197 11.401114,4.0978197 Z"
   id="path1686"
   transform="matrix(0.7518797,0,0,0.7518797,0.09970467,0.02488636)" />
 <rect
   style="display:inline;fill:none;fill-opacity:1;stroke:url(#linearGradient4557);stroke-width:3.71366;stroke-linejoin:round;stroke-miterlimit:7.8;stroke-dasharray:none;stroke-opacity:0.995146"
   id="rect4539"
   width="62.566689"
   height="62.866646"
   x="1.0323594"
   y="0.59551275"
   ry="6.2447233"
   rx="5.8029528"
   transform="matrix(0.70434793,0,0,0.70291231,1.3629847,1.5442064)" />
</svg>
