<?xml version="1.0" encoding="UTF-8" standalone="no"?>
<!-- Created with Inkscape (http://www.inkscape.org/) -->

<svg
  width="48"
  height="48"
  version="1.1"
  viewBox="0 0 48 48"
  id="svg22"
  xmlns:xlink="http://www.w3.org/1999/xlink"
  xmlns="http://www.w3.org/2000/svg"
  xmlns:svg="http://www.w3.org/2000/svg">
 <defs
   id="defs12">
  <linearGradient
    id="linearGradient917">
   <stop
     style="stop-color:#420c5d;stop-opacity:1;"
     offset="0"
     id="stop913" />
   <stop
     style="stop-color:#951ad1;stop-opacity:1;"
     offset="1"
     id="stop915" />
  </linearGradient>
  <linearGradient
    id="linearGradient1005-3-3"
    x1="5.2535"
    x2="9.3823996"
    y1="15.383"
    y2="2.9421"
    gradientTransform="matrix(0.99999,0,0,0.99999,1.632,-0.61743)"
    gradientUnits="userSpaceOnUse">
   <stop
     stop-color="#fa8200"
     offset="0"
     id="stop2" />
   <stop
     stop-color="#ff9600"
     offset=".36953"
     id="stop4" />
   <stop
     stop-color="#ffb400"
     offset="1"
     id="stop6" />
  </linearGradient>
  <filter
    id="filter4014"
    x="-0.062499932"
    y="-0.057692992"
    width="1.1249999"
    height="1.115386"
    color-interpolation-filters="sRGB">
   <feGaussianBlur
     stdDeviation="1.093751"
     id="feGaussianBlur9" />
  </filter>
  <linearGradient
    xlink:href="#linearGradient3487"
    id="linearGradient3403"
    gradientUnits="userSpaceOnUse"
    x1="6.9491749"
    y1="4.5549412"
    x2="11.215498"
    y2="59.052471" />
  <linearGradient
    id="linearGradient3487">
   <stop
     style="stop-color:#32373c;stop-opacity:1"
     offset="0"
     id="stop3481" />
   <stop
     id="stop3483"
     offset="0.36804965"
     style="stop-color:#1a1a1a;stop-opacity:1" />
   <stop
     style="stop-color:#31363b;stop-opacity:1"
     offset="1"
     id="stop3485" />
  </linearGradient>
  <linearGradient
    xlink:href="#linearGradient20604"
    id="linearGradient20558"
    gradientUnits="userSpaceOnUse"
    x1="25.802212"
    y1="20.373846"
    x2="25.111048"
    y2="58.912758" />
  <linearGradient
    id="linearGradient20604">
   <stop
     id="stop20598"
     offset="0"
     style="stop-color:#3d3d3d;stop-opacity:1" />
   <stop
     style="stop-color:#000000;stop-opacity:1"
     offset="0.61772454"
     id="stop20600" />
   <stop
     id="stop20602"
     offset="1"
     style="stop-color:#3d3d3d;stop-opacity:1" />
  </linearGradient>
  <filter
    style="color-interpolation-filters:sRGB"
    id="filter20720"
    x="-0.010581663"
    y="-0.010228884"
    width="1.0211629"
    height="1.0204578">
   <feGaussianBlur
     stdDeviation="4.278011e-07"
     id="feGaussianBlur20722" />
  </filter>
  <linearGradient
    gradientTransform="translate(0.36067797,-0.13016949)"
    xlink:href="#linearGradient4555"
    id="linearGradient4557"
    x1="43.499737"
    y1="64.011795"
    x2="44.141731"
    y2="0.30621234"
    gradientUnits="userSpaceOnUse" />
  <linearGradient
    id="linearGradient4555">
   <stop
     style="stop-color:#141618;stop-opacity:1"
     offset="0"
     id="stop4551" />
   <stop
     id="stop4559"
     offset="0.51820582"
     style="stop-color:#686868;stop-opacity:1" />
   <stop
     style="stop-color:#31363b;stop-opacity:1"
     offset="1"
     id="stop4553" />
  </linearGradient>
  <filter
    style="color-interpolation-filters:sRGB"
    id="filter4601"
    x="-0.029677441"
    width="1.0593549"
    y="-0.029536029"
    height="1.0590721">
   <feGaussianBlur
     stdDeviation="4.5713667e-07"
     id="feGaussianBlur4603" />
  </filter>
  <linearGradient
    xlink:href="#linearGradient917"
    id="linearGradient919"
    x1="7.400631"
    y1="41.743092"
    x2="33.063145"
    y2="7.1074457"
    gradientUnits="userSpaceOnUse" />
  <linearGradient
    id="c"
    y1="523.79999"
    x1="403.57001"
    y2="536.79999"
    x2="416.57001"
    gradientUnits="userSpaceOnUse"
    gradientTransform="translate(-382.3618,-501.38052)">
   <stop
     stop-color="#292c2f"
     id="stop2-1" />
   <stop
     offset="1"
     stop-opacity="0"
     id="stop4-7" />
  </linearGradient>
  <linearGradient
    xlink:href="#b-2"
    id="linearGradient4189"
    x1="14.369"
    y1="22.521999"
    x2="26.521999"
    y2="22.521999"
    gradientUnits="userSpaceOnUse" />
  <linearGradient
    x1="36"
    gradientUnits="userSpaceOnUse"
    x2="14"
    y2="12"
    y1="44"
    id="b-2">
   <stop
     style="stop-color:#bfc9c9;stop-opacity:1"
     stop-color="#536161"
     id="stop13" />
   <stop
     style="stop-color:#fbfbfb;stop-opacity:1"
     stop-color="#f4f5f5"
     offset="1"
     id="stop15" />
  </linearGradient>
  <linearGradient
    xlink:href="#b-2"
    id="linearGradient4428"
    gradientUnits="userSpaceOnUse"
    x1="31.586"
    y1="36.345001"
    x2="1.2029999"
    y2="6.723" />
  <linearGradient
    xlink:href="#linearGradient-1"
    id="linearGradient3"
    gradientUnits="userSpaceOnUse"
    gradientTransform="matrix(0.06475991,0,0,0.12895913,2.7122445,0.98040374)"
    x1="198.26646"
    y1="346.52609"
    x2="198.26646"
    y2="20.550627" />
  <linearGradient
    x1="198.26646"
    y1="346.52609"
    x2="198.26646"
    y2="20.550627"
    id="linearGradient-1"
    gradientTransform="scale(0.7086423,1.4111492)"
    gradientUnits="userSpaceOnUse">
   <stop
     stop-color="#420C5D"
     offset="0"
     id="stop1"
     style="stop-color:#e1b9f3;stop-opacity:1;" />
   <stop
     stop-color="#951AD1"
     offset="1"
     id="stop2-9"
     style="stop-color:#f4e5fc;stop-opacity:1;" />
  </linearGradient>
  <filter
    x="-0.13852814"
    y="-0.052173913"
    width="1.2424242"
    height="1.1043478"
    filterUnits="objectBoundingBox"
    id="filter-3">
   <feOffset
     dx="-8"
     dy="0"
     in="SourceAlpha"
     result="shadowOffsetOuter1"
     id="feOffset2" />
   <feGaussianBlur
     stdDeviation="10"
     in="shadowOffsetOuter1"
     result="shadowBlurOuter1"
     id="feGaussianBlur2" />
   <feColorMatrix
     values="0 0 0 0 0.250980392   0 0 0 0 0.250980392   0 0 0 0 0.250980392  0 0 0 0.2 0"
     type="matrix"
     in="shadowBlurOuter1"
     id="feColorMatrix2" />
  </filter>
  <linearGradient
    x1="198.26646"
    y1="346.52609"
    x2="198.26646"
    y2="20.550627"
    id="linearGradient-1-1"
    gradientTransform="scale(0.7086423,1.4111492)"
    gradientUnits="userSpaceOnUse">
   <stop
     stop-color="#420C5D"
     offset="0%"
     id="stop1-2" />
   <stop
     stop-color="#951AD1"
     offset="100%"
     id="stop2-7" />
  </linearGradient>
 </defs>
 <rect
   style="display:inline;fill:#00acff;fill-opacity:1;fill-rule:evenodd;stroke:none;stroke-width:0.92782;stroke-linejoin:round;stroke-miterlimit:7.8"
   id="rect1192"
   width="42.084602"
   height="42.712109"
   x="3.1629105"
   y="3.0184898"
   ry="0" />
 <path
   style="display:inline;fill:#ffffff;stroke-width:0.132292"
   d="m 72.543594,214.67719 c -4.744093,-0.60875 -9.281981,-2.49991 -13.241953,-5.51858 -1.29157,-0.98455 -3.714943,-3.42363 -4.772834,-4.80375 -2.96241,-3.86476 -4.804479,-8.2508 -5.41218,-12.88661 -0.260164,-1.98464 -0.258719,-5.63349 0.0029,-7.44738 1.308078,-9.0677 7.01463,-16.8454 15.20915,-20.72918 3.811512,-1.80647 7.300266,-2.57114 11.730683,-2.57114 7.165903,0 13.5265,2.56749 18.680882,7.54063 2.483054,2.39575 4.148141,4.66808 5.573968,7.60677 1.92868,3.9751 2.70979,7.43276 2.70979,11.99526 0,6.00619 -1.7345,11.24407 -5.336957,16.11672 -1.070527,1.44797 -3.161747,3.64749 -4.549468,4.78507 -3.806562,3.12041 -8.658642,5.23183 -13.473174,5.86296 -1.663528,0.21807 -5.593318,0.24524 -7.120854,0.0492 z m 10.041381,-4.86547 c 2.898391,-0.91366 5.260364,-2.14146 7.540624,-3.91979 1.212494,-0.9456 3.308223,-3.06144 4.186916,-4.22711 2.38328,-3.16162 4.004927,-7.12196 4.482067,-10.94597 0.229814,-1.84182 0.09634,-5.73827 -0.2545,-7.4296 -0.9294,-4.48046 -2.931647,-8.26499 -6.086007,-11.50342 -1.966575,-2.01898 -3.756882,-3.34972 -6.060203,-4.50458 -3.495001,-1.75236 -6.489835,-2.46043 -10.423481,-2.46442 -4.164073,-0.004 -7.815325,0.95024 -11.429055,2.98766 -3.289753,1.85476 -6.690628,5.25952 -8.553227,8.563 -1.371786,2.43299 -2.37583,5.32029 -2.767595,7.95869 -0.256867,1.72991 -0.261933,5.16508 -0.01006,6.82145 0.504067,3.31489 1.761474,6.59111 3.584314,9.33904 0.995409,1.50058 0.964154,1.48393 1.842248,0.98153 1.570774,-0.8987 1.980396,-1.33342 2.836087,-3.00984 1.000624,-1.96036 2.070459,-3.6735 3.037094,-4.86332 1.115822,-1.37347 1.269228,-1.61793 1.828988,-2.9147 0.281654,-0.65249 0.786977,-1.61074 1.122938,-2.12943 l 0.61084,-0.94309 -0.79023,-0.77671 c -1.049647,-1.03168 -1.922751,-2.2016 -2.087012,-2.79651 -0.167761,-0.60758 0.03021,-0.9466 0.818744,-1.40207 0.797354,-0.46057 1.367585,-0.5929 3.498657,-0.81193 1.037629,-0.10665 2.164153,-0.30199 2.518962,-0.43681 0.353024,-0.13414 1.407825,-0.70824 2.344001,-1.27579 2.702947,-1.63863 2.931619,-1.72344 4.552111,-1.68831 1.368686,0.0297 1.371262,0.0291 2.182813,-0.46143 1.700674,-1.02802 4.14305,-2.88289 7.357044,-5.58733 0.61632,-0.5186 1.21002,-0.92569 1.31934,-0.90464 0.45462,0.0876 1.289567,2.13636 1.416407,3.47562 0.07693,0.81225 -0.08023,1.6155 -0.562014,2.87261 -0.13146,0.34301 -0.19208,0.67043 -0.134706,0.7276 0.13774,0.13726 0.610706,-0.4535 0.610706,-0.76279 0,-0.39435 0.261127,-0.43936 0.616327,-0.10623 0.258235,0.24218 0.480842,0.31151 1.000202,0.31151 0.567073,0 0.707447,0.0526 0.928773,0.3479 0.375574,0.50112 0.463647,1.86688 0.176201,2.73231 -0.279641,0.84191 -1.124801,1.81287 -1.891829,2.17341 -0.686334,0.32262 -2.075841,1.67928 -2.726081,2.66164 -0.248906,0.37604 -0.715586,1.15995 -1.037066,1.74204 -0.321487,0.58208 -0.86074,1.46154 -1.19834,1.95436 -0.664294,0.96972 -1.233147,2.3224 -1.782214,4.23798 -0.322553,1.1253 -0.34962,1.41826 -0.362953,3.92797 -0.01613,3.0317 -0.172894,3.77561 -0.9925,4.7091 -0.931805,1.06126 -1.861937,3.39186 -1.940127,4.8613 -0.04935,0.92751 -0.192246,1.83164 -0.395304,2.50122 -0.08942,0.29484 0.07752,0.2914 1.072102,-0.0221 z"
   id="path847"
   transform="matrix(0.76944488,0,0,0.76944488,-32.640628,-121.3502)" />
 <path
   style="display:inline;fill:#00acff;fill-opacity:1;stroke:none;stroke-width:1.5;stroke-miterlimit:4;stroke-dasharray:none"
   id="path814"
   d="m 18.854025,174.59199 -1.603617,-1.60362 1.603617,-1.60361 1.603617,1.60361 z"
   transform="matrix(0.17853526,0.30923213,-0.76477406,0.4415425,156.81148,-64.497394)" />
 <path
   style="display:inline;mix-blend-mode:normal;fill:url(#linearGradient3403);fill-opacity:1;stroke:url(#linearGradient20558);stroke-width:1.16242;stroke-linecap:butt;stroke-linejoin:round;stroke-miterlimit:4;stroke-dasharray:none;stroke-opacity:1"
   d="M 4.7043071,3.9814882 4.6913695,60.80196 H 58.59546 l 1.022155,-2.866369 c 0,0 -23.87537,0.766388 -32.844441,-4.140386 C 16.257548,48.042344 11.401114,4.0978197 11.401114,4.0978197 Z"
   id="path1686"
   transform="matrix(0.7518797,0,0,0.7518797,0.09970467,0.02488636)" />
 <rect
   style="display:inline;fill:none;fill-opacity:1;stroke:url(#linearGradient4557);stroke-width:3.71366;stroke-linejoin:round;stroke-miterlimit:7.8;stroke-dasharray:none;stroke-opacity:0.995146"
   id="rect4539"
   width="62.567089"
   height="62.866646"
   x="1.0323594"
   y="0.59551275"
   ry="6.2447233"
   rx="5.8029528"
   transform="matrix(0.70434793,0,0,0.70291231,1.3629847,1.5442064)" />
</svg>
