<?xml version="1.0" encoding="UTF-8" standalone="no"?>
<!-- Created with Inkscape (http://www.inkscape.org/) -->

<svg
  width="48"
  height="48"
  version="1.1"
  viewBox="0 0 48 48"
  id="svg22"
  xmlns:xlink="http://www.w3.org/1999/xlink"
  xmlns="http://www.w3.org/2000/svg"
  xmlns:svg="http://www.w3.org/2000/svg">
 <defs
   id="defs12">
  <linearGradient
    id="linearGradient917">
   <stop
     style="stop-color:#000000;stop-opacity:0.99607843"
     offset="0"
     id="stop913" />
   <stop
     style="stop-color:#353a3f;stop-opacity:0.99607843"
     offset="1"
     id="stop915" />
  </linearGradient>
  <linearGradient
    id="linearGradient1005-3-3"
    x1="5.2535"
    x2="9.3823996"
    y1="15.383"
    y2="2.9421"
    gradientTransform="matrix(0.99999,0,0,0.99999,1.632,-0.61743)"
    gradientUnits="userSpaceOnUse">
   <stop
     stop-color="#fa8200"
     offset="0"
     id="stop2" />
   <stop
     stop-color="#ff9600"
     offset=".36953"
     id="stop4" />
   <stop
     stop-color="#ffb400"
     offset="1"
     id="stop6" />
  </linearGradient>
  <filter
    id="filter4014"
    x="-0.062499932"
    y="-0.057692992"
    width="1.1249999"
    height="1.115386"
    color-interpolation-filters="sRGB">
   <feGaussianBlur
     stdDeviation="1.093751"
     id="feGaussianBlur9" />
  </filter>
  <linearGradient
    xlink:href="#linearGradient3487"
    id="linearGradient3403"
    gradientUnits="userSpaceOnUse"
    x1="6.9491749"
    y1="4.5549412"
    x2="11.215498"
    y2="59.052471" />
  <linearGradient
    id="linearGradient3487">
   <stop
     style="stop-color:#32373c;stop-opacity:1"
     offset="0"
     id="stop3481" />
   <stop
     id="stop3483"
     offset="0.36804965"
     style="stop-color:#1a1a1a;stop-opacity:1" />
   <stop
     style="stop-color:#31363b;stop-opacity:1"
     offset="1"
     id="stop3485" />
  </linearGradient>
  <linearGradient
    xlink:href="#linearGradient20604"
    id="linearGradient20558"
    gradientUnits="userSpaceOnUse"
    x1="25.802212"
    y1="20.373846"
    x2="25.111048"
    y2="58.912758" />
  <linearGradient
    id="linearGradient20604">
   <stop
     id="stop20598"
     offset="0"
     style="stop-color:#3d3d3d;stop-opacity:1" />
   <stop
     style="stop-color:#000000;stop-opacity:1"
     offset="0.61772454"
     id="stop20600" />
   <stop
     id="stop20602"
     offset="1"
     style="stop-color:#3d3d3d;stop-opacity:1" />
  </linearGradient>
  <linearGradient
    gradientTransform="translate(0.36067797,-0.13016949)"
    xlink:href="#linearGradient4555"
    id="linearGradient4557"
    x1="43.499737"
    y1="64.011795"
    x2="44.141731"
    y2="0.30621234"
    gradientUnits="userSpaceOnUse" />
  <linearGradient
    id="linearGradient4555">
   <stop
     style="stop-color:#141618;stop-opacity:1"
     offset="0"
     id="stop4551" />
   <stop
     id="stop4559"
     offset="0.51820582"
     style="stop-color:#686868;stop-opacity:1" />
   <stop
     style="stop-color:#31363b;stop-opacity:1"
     offset="1"
     id="stop4553" />
  </linearGradient>
  <filter
    style="color-interpolation-filters:sRGB"
    id="filter4601"
    x="-0.029678263"
    width="1.0593565"
    y="-0.029536659"
    height="1.0590733">
   <feGaussianBlur
     stdDeviation="1.6944452e-05"
     id="feGaussianBlur4603" />
  </filter>
  <linearGradient
    xlink:href="#linearGradient917"
    id="linearGradient919"
    x1="7.400631"
    y1="41.743092"
    x2="33.063145"
    y2="7.1074457"
    gradientUnits="userSpaceOnUse" />
  <linearGradient
    y2="503.79999"
    x2="0"
    y1="543.79999"
    gradientUnits="userSpaceOnUse"
    id="linearGradient40571"
    xlink:href="#a" />
  <linearGradient
    id="a"
    y1="543.79999"
    y2="503.79999"
    x2="0"
    gradientUnits="userSpaceOnUse">
   <stop
     stop-color="#2a2c2f"
     id="stop40492" />
   <stop
     offset="1"
     stop-color="#424649"
     id="stop40494" />
  </linearGradient>
  <linearGradient
    id="d"
    y1="523.79999"
    x1="408.57001"
    y2="537.79999"
    x2="422.57001"
    gradientUnits="userSpaceOnUse"
    gradientTransform="translate(-384.57,-499.8)">
   <stop
     stop-color="#292c2f"
     id="stop40503" />
   <stop
     offset="1"
     stop-opacity="0"
     id="stop40505" />
  </linearGradient>
  <linearGradient
    id="b"
    y1="530.79999"
    y2="516.79999"
    gradientUnits="userSpaceOnUse"
    x2="0">
   <stop
     stop-color="#ee643a"
     id="stop40497" />
   <stop
     offset="1"
     stop-color="#fe9473"
     id="stop40499" />
  </linearGradient>
  <linearGradient
    xlink:href="#a"
    id="c"
    y1="-521.79999"
    y2="-525.79999"
    gradientUnits="userSpaceOnUse"
    x2="0" />
  <linearGradient
    id="linearGradient905"
    y1="543.79999"
    y2="503.79999"
    x2="0"
    gradientUnits="userSpaceOnUse">
   <stop
     stop-color="#2a2c2f"
     id="stop901" />
   <stop
     offset="1"
     stop-color="#424649"
     id="stop903" />
  </linearGradient>
 </defs>
 <rect
   style="display:inline;fill:url(#linearGradient919);fill-opacity:1;fill-rule:evenodd;stroke:none;stroke-width:0.92782;stroke-linejoin:round;stroke-miterlimit:7.8"
   id="rect1192"
   width="42.084602"
   height="42.712109"
   x="3.1629105"
   y="3.0184898"
   ry="0" />
 <g
   transform="matrix(1.0308661,0,0,1.0308661,-395.63944,-514.43243)"
   id="g40538">
  <rect
    style="fill:url(#linearGradient40571)"
    width="40"
    x="388.57001"
    y="503.79999"
    rx="20"
    height="40"
    id="rect40510" />
  <path
    style="opacity:0.4;fill:url(#d);fill-rule:evenodd"
    d="m 30,20 -11,9 13.229,13.229 c 4.439,-1.998 8,-5.561 10,-10 z"
    transform="translate(384.57,499.8)"
    id="path40512" />
  <rect
    style="fill:url(#b)"
    width="14"
    x="401.57001"
    y="516.79999"
    rx="7"
    height="14"
    id="rect40514" />
  <rect
    style="fill:url(#c)"
    width="4"
    x="406.57001"
    y="-525.79999"
    rx="2"
    height="4"
    transform="scale(1,-1)"
    id="rect40516" />
  <path
    style="fill:#ffffff;fill-opacity:0.275"
    d="m 24,18 c -3.324,0 -6,2.676 -6,6 0,3.324 2.676,6 6,6 3.324,0 6,-2.676 6,-6 0,-3.324 -2.676,-6 -6,-6 m 0,1 c 2.77,0 5,2.23 5,5 0,2.77 -2.23,5 -5,5 -2.77,0 -5,-2.23 -5,-5 0,-2.77 2.23,-5 5,-5"
    transform="translate(384.57,499.8)"
    id="path40518" />
  <g
    style="fill:#4c5053"
    id="g40534">
   <path
     d="m 418.07,507.34 c -0.971,-0.56 -1.973,-1 -2.99,-1.377 l -3.465,9.368 c 0.495,0.179 0.982,0.396 1.454,0.668 0.472,0.273 0.903,0.587 1.306,0.925 l 6.381,-7.685 c -0.83,-0.694 -1.716,-1.34 -2.687,-1.901"
     id="path40520" />
   <path
     d="m 399.07,540.25 c -0.971,-0.56 -1.857,-1.207 -2.687,-1.901 l 6.381,-7.685 c 0.403,0.339 0.834,0.653 1.306,0.925 0.472,0.273 0.96,0.489 1.454,0.668 l -3.465,9.368 c -1.016,-0.372 -2.02,-0.816 -2.99,-1.376"
     id="path40522" />
   <g
     style="fill-opacity:0.198"
     id="g40532">
    <path
      d="m 422.01,510.36 c -0.793,-0.793 -1.646,-1.481 -2.531,-2.103 l -5.771,8.152 c 0.431,0.301 0.846,0.636 1.232,1.022 0.386,0.386 0.721,0.801 1.022,1.232 l 8.152,-5.771 c -0.622,-0.885 -1.311,-1.739 -2.103,-2.531"
      id="path40524" />
    <path
      d="m 395.14,537.23 c -0.793,-0.793 -1.481,-1.646 -2.103,-2.532 l 8.152,-5.771 c 0.301,0.431 0.636,0.846 1.022,1.232 0.386,0.386 0.801,0.721 1.232,1.022 l -5.771,8.152 c -0.885,-0.622 -1.739,-1.311 -2.531,-2.103"
      id="path40526" />
    <path
      d="m 425.03,514.3 c -0.56,-0.971 -1.207,-1.857 -1.901,-2.687 l -7.685,6.381 c 0.339,0.403 0.653,0.834 0.925,1.306 0.273,0.472 0.489,0.96 0.668,1.454 l 9.368,-3.465 c -0.372,-1.016 -0.816,-2.02 -1.377,-2.99"
      id="path40528" />
    <path
      d="m 392.12,533.3 c -0.56,-0.971 -1,-1.973 -1.377,-2.99 l 9.368,-3.465 c 0.179,0.495 0.396,0.982 0.668,1.454 0.273,0.472 0.587,0.903 0.925,1.306 l -7.685,6.381 c -0.694,-0.83 -1.34,-1.716 -1.901,-2.687"
      id="path40530" />
   </g>
  </g>
  <path
    style="fill:#2d2f33"
    d="m 388.58,523.3 c -0.004,0.167 -0.012,0.332 -0.012,0.5 0,11.08 8.92,20 20,20 11.08,0 20,-8.92 20,-20 0,-0.168 -0.008,-0.333 -0.012,-0.5 -0.265,10.846 -9.08,19.5 -19.988,19.5 -10.912,0 -19.724,-8.654 -19.988,-19.5"
    id="path40536" />
 </g>
 <path
   style="display:inline;mix-blend-mode:normal;fill:url(#linearGradient3403);fill-opacity:1;stroke:url(#linearGradient20558);stroke-width:1.16242;stroke-linecap:butt;stroke-linejoin:round;stroke-miterlimit:4;stroke-dasharray:none;stroke-opacity:1"
   d="M 4.7043071,3.9814882 4.6913695,60.80196 H 58.59546 l 1.022155,-2.866369 c 0,0 -23.87537,0.766388 -32.844441,-4.140386 C 16.257548,48.042344 11.401114,4.0978197 11.401114,4.0978197 Z"
   id="path1686"
   transform="matrix(0.7518797,0,0,0.7518797,0.09970467,0.02488636)" />
 <rect
   style="display:inline;fill:none;fill-opacity:1;stroke:url(#linearGradient4557);stroke-width:3.71366;stroke-linejoin:round;stroke-miterlimit:7.8;stroke-dasharray:none;stroke-opacity:0.995146"
   id="rect4539"
   width="62.566689"
   height="62.866646"
   x="1.0323594"
   y="0.59551275"
   ry="6.2447233"
   rx="5.8029528"
   transform="matrix(0.70434793,0,0,0.70291231,1.3629847,1.5442064)" />
</svg>
