<?xml version="1.0" encoding="UTF-8" standalone="no"?>
<!-- Created with Inkscape (http://www.inkscape.org/) -->

<svg
  width="48"
  height="48"
  version="1.1"
  viewBox="0 0 48 48"
  id="svg22"
  xmlns:xlink="http://www.w3.org/1999/xlink"
  xmlns="http://www.w3.org/2000/svg"
  xmlns:svg="http://www.w3.org/2000/svg">
 <defs
   id="defs12">
  <linearGradient
    xlink:href="#linearGradient3487"
    id="linearGradient3403"
    gradientUnits="userSpaceOnUse"
    x1="6.9491749"
    y1="4.5549412"
    x2="11.215498"
    y2="59.052471" />
  <linearGradient
    id="linearGradient3487">
   <stop
     style="stop-color:#32373c;stop-opacity:1"
     offset="0"
     id="stop3481" />
   <stop
     id="stop3483"
     offset="0.36804965"
     style="stop-color:#1a1a1a;stop-opacity:1" />
   <stop
     style="stop-color:#31363b;stop-opacity:1"
     offset="1"
     id="stop3485" />
  </linearGradient>
  <linearGradient
    xlink:href="#linearGradient20604"
    id="linearGradient20558"
    gradientUnits="userSpaceOnUse"
    x1="25.802212"
    y1="20.373846"
    x2="25.111048"
    y2="58.912758" />
  <linearGradient
    id="linearGradient20604">
   <stop
     id="stop20598"
     offset="0"
     style="stop-color:#3d3d3d;stop-opacity:1" />
   <stop
     style="stop-color:#000000;stop-opacity:1"
     offset="0.61772454"
     id="stop20600" />
   <stop
     id="stop20602"
     offset="1"
     style="stop-color:#3d3d3d;stop-opacity:1" />
  </linearGradient>
  <filter
    style="color-interpolation-filters:sRGB"
    id="filter20720"
    x="-0.010581648"
    y="-0.010228869"
    width="1.0211628"
    height="1.0204578">
   <feGaussianBlur
     stdDeviation="7.2533519e-08"
     id="feGaussianBlur20722" />
  </filter>
  <linearGradient
    gradientTransform="translate(0.36067797,-0.13016949)"
    xlink:href="#linearGradient4555"
    id="linearGradient4557"
    x1="43.499737"
    y1="64.011795"
    x2="44.141731"
    y2="0.30621234"
    gradientUnits="userSpaceOnUse" />
  <linearGradient
    id="linearGradient4555">
   <stop
     style="stop-color:#141618;stop-opacity:1"
     offset="0"
     id="stop4551" />
   <stop
     id="stop4559"
     offset="0.51820582"
     style="stop-color:#686868;stop-opacity:1" />
   <stop
     style="stop-color:#31363b;stop-opacity:1"
     offset="1"
     id="stop4553" />
  </linearGradient>
  <filter
    style="color-interpolation-filters:sRGB"
    id="filter4601"
    x="-0.029677616"
    width="1.0593552"
    y="-0.029536015"
    height="1.059072">
   <feGaussianBlur
     stdDeviation="7.7507354e-08"
     id="feGaussianBlur4603" />
  </filter>
 </defs>
 <rect
   style="fill:#e4e4e4;fill-opacity:1"
   width="40"
   x="388.57001"
   y="503.79999"
   rx="0"
   height="40"
   id="rect8656"
   transform="matrix(1.0224038,0,0,1.0272979,-392.88143,-514.71623)" />
 <g
   id="g1">
  <path
    style="opacity:0.1;stroke-width:1.11905"
    d="m 40.128018,7.274057 c -0.44236,0.018744 -0.87092,0.1692204 -1.228332,0.430572 -0.357334,0.2614266 -0.628442,0.6222913 -0.780273,1.0381803 -0.151832,0.415964 -0.176965,0.86808 -0.07212,1.2982707 0.104922,0.430115 0.336039,0.817499 0.66225,1.116863 0.326209,0.299365 0.734001,0.496301 1.171503,0.563896 0.437578,0.0676 0.883792,0.0034 1.285158,-0.183594 0.401367,-0.186979 0.738519,-0.489298 0.968239,-0.8677 0.229873,-0.378478 0.342759,-0.8165437 0.323476,-1.2589297 C 42.432178,8.8190593 42.171517,8.2629793 41.734468,7.8619952 41.297421,7.4609348 40.720621,7.2489154 40.128021,7.274057 Z m -9.977457,3.354961 c -2.704136,0 -5.341629,0.861514 -7.547023,2.465405 -2.205327,1.603889 -3.869467,3.870856 -4.762514,6.486986 2.403759,-2.90949 7.022375,-4.476196 12.311722,-4.476196 5.289416,0 9.909522,1.56068 12.307352,4.476196 -0.893046,-2.61613 -2.557187,-4.883097 -4.762514,-6.486986 -2.205394,-1.603891 -4.842886,-2.465405 -7.547023,-2.465405 z m -10.536982,0.0022 c -0.164031,-0.0093 -0.328198,0.0067 -0.489584,0.0459 -0.32277,0.07831 -0.614509,0.249402 -0.839286,0.493955 -0.224777,0.244552 -0.373055,0.55042 -0.424015,0.878627 -0.05096,0.328207 -0.0023,0.664868 0.137696,0.966054 0.140024,0.301113 0.365317,0.553134 0.649136,0.725634 0.283819,0.172575 0.612343,0.256956 0.944197,0.242606 0.444165,-0.01916 0.861931,-0.212638 1.162762,-0.539854 0.300832,-0.32729 0.459744,-0.76014 0.4415,-1.204289 -0.01355,-0.33187 -0.125535,-0.65405 -0.321289,-0.922341 -0.195758,-0.268366 -0.46625,-0.47149 -0.77809,-0.585751 -0.155957,-0.05713 -0.318996,-0.09127 -0.483027,-0.100536 z m -1.772555,16.783495 c 0.893047,2.61613 2.557187,4.883096 4.762514,6.486986 2.205394,1.603889 4.842887,2.465404 7.547023,2.465404 2.704137,0 5.341629,-0.861515 7.547023,-2.465404 2.205327,-1.60389 3.869468,-3.870856 4.762514,-6.486986 -2.403758,2.915515 -7.022307,4.476195 -12.311723,4.476195 -5.289347,0 -9.909521,-1.56068 -12.307351,-4.476195 z m 3.803018,7.835527 c -0.55324,0.02262 -1.087091,0.209165 -1.534321,0.535483 -0.447305,0.326318 -0.788756,0.778372 -0.979168,1.298271 -0.190412,0.519824 -0.222502,1.083706 -0.0918,1.621747 0.130707,0.53804 0.418471,1.026377 0.826174,1.400996 0.407777,0.374546 0.917238,0.619044 1.464381,0.703777 0.547141,0.08473 1.10674,0.0041 1.608632,-0.229492 0.501965,-0.233671 0.923534,-0.610765 1.210846,-1.084079 0.287387,-0.473239 0.428588,-1.020542 0.404343,-1.573662 -0.03245,-0.739909 -0.357335,-1.43758 -0.90267,-1.938665 -0.545335,-0.501012 -1.266457,-0.764612 -2.006419,-0.734376 z"
    id="path2" />
  <path
    style="fill:#767677;stroke-width:1.11905"
    d="m 42.457967,8.2935973 c 0.01928,0.442387 -0.09307,0.880481 -0.322945,1.258959 -0.22972,0.378402 -0.566635,0.6801757 -0.968002,0.8671547 -0.401366,0.186981 -0.849193,0.250663 -1.286772,0.183067 -0.437502,-0.06759 -0.845245,-0.263459 -1.171455,-0.562824 -0.32621,-0.2993637 -0.55631,-0.6887557 -0.661227,-1.1188717 -0.104843,-0.430191 -0.07979,-0.8817604 0.07205,-1.2977243 0.151831,-0.4158889 0.42361,-0.7774289 0.780945,-1.0388555 0.357412,-0.2613516 0.784286,-0.4109215 1.226646,-0.4296644 0.592599,-0.025142 1.170925,0.1860016 1.607972,0.587062 0.437048,0.4009843 0.697059,0.9591412 0.722793,1.5516972 z"
    id="path4" />
  <path
    style="fill:#f37726;stroke-width:1.11905"
    d="m 30.147593,30.771931 c -5.289348,0 -9.908742,-1.560749 -12.306573,-4.476264 0.893047,2.61613 2.557452,4.883022 4.762778,6.486912 2.205395,1.60389 4.842624,2.465479 7.546759,2.465479 2.704137,0 5.341366,-0.861589 7.54676,-2.465479 2.205327,-1.60389 3.869732,-3.870782 4.762778,-6.486912 -2.403759,2.915515 -7.023086,4.476264 -12.312502,4.476264 z"
    id="path5" />
  <path
    style="fill:#f37726;stroke-width:1.11905"
    d="m 30.153454,13.986136 c 5.289416,0 9.90881,1.560748 12.30664,4.476264 -0.893046,-2.61613 -2.557451,-4.883023 -4.762779,-6.486912 -2.205393,-1.60389 -4.842622,-2.4654787 -7.546759,-2.4654787 -2.704135,0 -5.341364,0.8615887 -7.546759,2.4654787 -2.205326,1.603889 -3.869731,3.870782 -4.762778,6.486912 2.40376,-2.90949 7.023087,-4.476264 12.312435,-4.476264 z"
    id="path6" />
  <path
    style="fill:#989798;stroke-width:1.11905"
    d="m 24.552626,36.804292 c 0.02424,0.55312 -0.116174,1.101016 -0.403561,1.574255 -0.287311,0.473314 -0.708566,0.850696 -1.210532,1.084367 -0.501891,0.233671 -1.061908,0.313178 -1.609049,0.228445 -0.547142,-0.08474 -1.056788,-0.329902 -1.464565,-0.704447 -0.407703,-0.37462 -0.69509,-0.861745 -0.825796,-1.399785 -0.130705,-0.538041 -0.09878,-1.102733 0.09163,-1.622557 0.190412,-0.519899 0.530803,-0.971637 0.978108,-1.297955 0.44723,-0.326318 0.981271,-0.512583 1.534511,-0.535203 0.739962,-0.03024 1.461704,0.234118 2.007039,0.73513 0.545335,0.501085 0.869765,1.197842 0.902215,1.93775 z"
    id="path7" />
  <path
    style="fill:#6f7070;stroke-width:1.11905"
    d="m 19.592112,12.865584 c -0.331854,0.01435 -0.660475,-0.07006 -0.944294,-0.242644 -0.283819,-0.1725 -0.510136,-0.425371 -0.65016,-0.726483 -0.1401,-0.301187 -0.187673,-0.637179 -0.136713,-0.965386 0.05096,-0.328207 0.198142,-0.633898 0.422919,-0.87845 0.224777,-0.2445527 0.517064,-0.4168997 0.839835,-0.4952117 0.32277,-0.07839 0.661552,-0.05923 0.973468,0.05504 0.31184,0.114262 0.582804,0.318514 0.77856,0.5868797 0.195756,0.26829 0.307528,0.588712 0.321077,0.920583 0.01824,0.444148 -0.140486,0.877381 -0.441317,1.204672 -0.300832,0.327215 -0.71921,0.521849 -1.163375,0.541007 z"
    id="path8" />
 </g>
 <path
   style="display:inline;mix-blend-mode:normal;fill:url(#linearGradient3403);fill-opacity:1;stroke:url(#linearGradient20558);stroke-width:1.16242;stroke-linecap:butt;stroke-linejoin:round;stroke-miterlimit:4;stroke-dasharray:none;stroke-opacity:1"
   d="M 4.7043071,3.9814882 4.6913695,60.80196 H 58.59546 l 1.022155,-2.866369 c 0,0 -23.87537,0.766388 -32.844441,-4.140386 C 16.257548,48.042344 11.401114,4.0978197 11.401114,4.0978197 Z"
   id="path1686"
   transform="matrix(0.7518797,0,0,0.7518797,0.09970467,0.02488636)" />
 <rect
   style="display:inline;fill:none;fill-opacity:1;stroke:url(#linearGradient4557);stroke-width:3.71366;stroke-linejoin:round;stroke-miterlimit:7.8;stroke-dasharray:none;stroke-opacity:0.995146"
   id="rect4539"
   width="62.566689"
   height="62.866646"
   x="1.0323594"
   y="0.59551275"
   ry="6.2447233"
   rx="5.8029528"
   transform="matrix(0.70434793,0,0,0.70291231,1.3629847,1.5442064)" />
</svg>
