<?xml version="1.0" encoding="UTF-8" standalone="no"?>
<!-- Created with Inkscape (http://www.inkscape.org/) -->

<svg
  width="48"
  height="48"
  version="1.1"
  viewBox="0 0 48 48"
  id="svg22"
  xmlns:xlink="http://www.w3.org/1999/xlink"
  xmlns="http://www.w3.org/2000/svg"
  xmlns:svg="http://www.w3.org/2000/svg">
 <defs
   id="defs12">
  <linearGradient
    id="linearGradient1">
   <stop
     style="stop-color:#4691fb;stop-opacity:1;"
     offset="0"
     id="stop1" />
   <stop
     style="stop-color:#8ab6f0;stop-opacity:1;"
     offset="1"
     id="stop2" />
  </linearGradient>
  <linearGradient
    id="linearGradient917">
   <stop
     style="stop-color:#000000;stop-opacity:0.99607843"
     offset="0"
     id="stop913" />
   <stop
     style="stop-color:#353a3f;stop-opacity:0.99607843"
     offset="1"
     id="stop915" />
  </linearGradient>
  <linearGradient
    xlink:href="#linearGradient3487"
    id="linearGradient3403"
    gradientUnits="userSpaceOnUse"
    x1="6.9491749"
    y1="4.5549412"
    x2="11.215498"
    y2="59.052471" />
  <linearGradient
    id="linearGradient3487">
   <stop
     style="stop-color:#32373c;stop-opacity:1"
     offset="0"
     id="stop3481" />
   <stop
     id="stop3483"
     offset="0.36804965"
     style="stop-color:#1a1a1a;stop-opacity:1" />
   <stop
     style="stop-color:#31363b;stop-opacity:1"
     offset="1"
     id="stop3485" />
  </linearGradient>
  <linearGradient
    xlink:href="#linearGradient20604"
    id="linearGradient20558"
    gradientUnits="userSpaceOnUse"
    x1="25.802212"
    y1="20.373846"
    x2="25.111048"
    y2="58.912758" />
  <linearGradient
    id="linearGradient20604">
   <stop
     id="stop20598"
     offset="0"
     style="stop-color:#3d3d3d;stop-opacity:1" />
   <stop
     style="stop-color:#000000;stop-opacity:1"
     offset="0.61772454"
     id="stop20600" />
   <stop
     id="stop20602"
     offset="1"
     style="stop-color:#3d3d3d;stop-opacity:1" />
  </linearGradient>
  <filter
    style="color-interpolation-filters:sRGB"
    id="filter20720"
    x="-0.0105818"
    y="-0.010229016"
    width="1.0211631"
    height="1.0204581">
   <feGaussianBlur
     stdDeviation="3.5541424e-06"
     id="feGaussianBlur20722" />
  </filter>
  <linearGradient
    gradientTransform="translate(0.36067797,-0.13016949)"
    xlink:href="#linearGradient4555"
    id="linearGradient4557"
    x1="43.499737"
    y1="64.011795"
    x2="44.141731"
    y2="0.30621234"
    gradientUnits="userSpaceOnUse" />
  <linearGradient
    id="linearGradient4555">
   <stop
     style="stop-color:#141618;stop-opacity:1"
     offset="0"
     id="stop4551" />
   <stop
     id="stop4559"
     offset="0.51820582"
     style="stop-color:#686868;stop-opacity:1" />
   <stop
     style="stop-color:#31363b;stop-opacity:1"
     offset="1"
     id="stop4553" />
  </linearGradient>
  <filter
    style="color-interpolation-filters:sRGB"
    id="filter4601"
    x="-0.029677759"
    width="1.0593555"
    y="-0.029536157"
    height="1.0590723">
   <feGaussianBlur
     stdDeviation="3.7978604e-06"
     id="feGaussianBlur4603" />
  </filter>
  <linearGradient
    xlink:href="#linearGradient917"
    id="linearGradient919"
    x1="7.400631"
    y1="41.743092"
    x2="33.063145"
    y2="7.1074457"
    gradientUnits="userSpaceOnUse" />
  <linearGradient
    xlink:href="#linearGradient1"
    id="linearGradient2"
    x1="1.6896131"
    y1="28.399303"
    x2="1.6896131"
    y2="4.1894608"
    gradientUnits="userSpaceOnUse" />
 </defs>
 <rect
   style="display:inline;fill:url(#linearGradient919);fill-opacity:1;fill-rule:evenodd;stroke:none;stroke-width:0.92782;stroke-linejoin:round;stroke-miterlimit:7.8"
   id="rect1192"
   width="42.084602"
   height="42.712109"
   x="3.1629105"
   y="3.0184898"
   ry="0" />
 <path
   style="display:inline;opacity:1;fill:#f7fbfe;fill-opacity:1"
   d="m 28.783356,35.608101 c -1.104569,0 -2,0.895431 -2,2 0,1.104569 0.895431,2 2,2 1.104569,0 2,-0.895431 2,-2 0,-1.104569 -0.895431,-2 -2,-2 z"
   id="path5" />
 <g
   transform="matrix(0.38513323,0,0,0.38513323,17.540158,22.587905)"
   id="g39457">
  <path
    style="color:#31363b;fill:url(#linearGradient2);stroke:none"
    d="M 24,4 A 4,4 0 0 0 23.244141,4.0761719 4,4 0 0 0 20,8 4,4 0 0 0 20.326172,9.5722656 C 15.079082,11.179189 11.005333,16.004053 11,21.5 10.995,28.95001 8.30127,34.93572 4,36 V 38.882812 39 c 0,0 40.00006,-1e-5 40,0 V 38.882812 36 C 39.69873,34.93572 37.00494,28.95001 37,21.5 36.99956,16.00301 32.928528,11.175206 27.681641,9.5644531 A 4,4 0 0 0 28,8 4,4 0 0 0 24,4 Z"
    id="path4183" />
  <rect
    y="38"
    x="4"
    height="1"
    width="40"
    id="rect4211"
    style="opacity:1;fill:#2074e7;fill-opacity:1;stroke:none;stroke-width:1;stroke-miterlimit:4;stroke-dasharray:none;stroke-opacity:1" />
 </g>
 <path
   id="path4"
   style="display:inline;opacity:1;fill:#f7fbfe;fill-opacity:1"
   d="M 28.783203 7.6074219 C 27.678635 7.6074219 26.783203 8.502853 26.783203 9.6074219 C 26.783203 10.711991 27.678635 11.607422 28.783203 11.607422 C 29.887771 11.607422 30.783203 10.711991 30.783203 9.6074219 C 30.783203 8.502853 29.887771 7.6074219 28.783203 7.6074219 z M 36.900391 16.544922 C 36.852206 16.543912 36.804197 16.546671 36.755859 16.552734 C 36.62696 16.568904 36.498844 16.610434 36.378906 16.679688 L 28.068359 21.478516 C 26.934661 22.043065 26.505344 23.520401 26.964844 24.375 L 29.986328 29.607422 C 30.539818 30.566091 31.757198 30.89193 32.716797 30.337891 C 33.676356 29.783891 34.002688 28.566121 33.449219 27.607422 L 30.449219 22.412109 L 37.378906 18.412109 C 37.858686 18.135109 38.02103 17.524531 37.744141 17.044922 C 37.562431 16.730198 37.237686 16.55199 36.900391 16.544922 z M 14.783203 21.607422 C 13.678635 21.607422 12.783203 22.502854 12.783203 23.607422 C 12.783203 24.71199 13.678635 25.607422 14.783203 25.607422 C 15.887771 25.607422 16.783203 24.71199 16.783203 23.607422 C 16.783203 22.502854 15.887771 21.607422 14.783203 21.607422 z M 42.783203 21.607422 C 41.678635 21.607422 40.783203 22.502854 40.783203 23.607422 C 40.783203 24.71199 41.678635 25.607422 42.783203 25.607422 C 43.887771 25.607422 44.783203 24.71199 44.783203 23.607422 C 44.783203 22.502854 43.887771 21.607422 42.783203 21.607422 z " />
 <path
   style="display:inline;mix-blend-mode:normal;fill:url(#linearGradient3403);fill-opacity:1;stroke:url(#linearGradient20558);stroke-width:1.16242;stroke-linecap:butt;stroke-linejoin:round;stroke-miterlimit:4;stroke-dasharray:none;stroke-opacity:1"
   d="M 4.7043071,3.9814882 4.6913695,60.80196 H 58.59546 l 1.022155,-2.866369 c 0,0 -23.87537,0.766388 -32.844441,-4.140386 C 16.257548,48.042344 11.401114,4.0978197 11.401114,4.0978197 Z"
   id="path1686"
   transform="matrix(0.7518797,0,0,0.7518797,0.09970467,0.02488636)" />
 <rect
   style="display:inline;fill:none;fill-opacity:1;stroke:url(#linearGradient4557);stroke-width:3.71366;stroke-linejoin:round;stroke-miterlimit:7.8;stroke-dasharray:none;stroke-opacity:0.995146"
   id="rect4539"
   width="62.566689"
   height="62.866646"
   x="1.0323594"
   y="0.59551275"
   ry="6.2447233"
   rx="5.8029528"
   transform="matrix(0.70434793,0,0,0.70291231,1.3629847,1.5442064)" />
</svg>
