<?xml version="1.0" encoding="UTF-8" standalone="no"?>
<!-- Created with Inkscape (http://www.inkscape.org/) -->

<svg
  width="48"
  height="48"
  version="1.1"
  viewBox="0 0 48 48"
  id="svg22"
  xmlns:xlink="http://www.w3.org/1999/xlink"
  xmlns="http://www.w3.org/2000/svg"
  xmlns:svg="http://www.w3.org/2000/svg">
 <defs
   id="defs12">
  <linearGradient
    id="linearGradient1005-3-3"
    x1="5.2535"
    x2="9.3823996"
    y1="15.383"
    y2="2.9421"
    gradientTransform="matrix(0.99999,0,0,0.99999,1.632,-0.61743)"
    gradientUnits="userSpaceOnUse">
   <stop
     stop-color="#fa8200"
     offset="0"
     id="stop2" />
   <stop
     stop-color="#ff9600"
     offset=".36953"
     id="stop4" />
   <stop
     stop-color="#ffb400"
     offset="1"
     id="stop6" />
  </linearGradient>
  <filter
    id="filter4014"
    x="-0.062499932"
    y="-0.057692992"
    width="1.1249999"
    height="1.115386"
    color-interpolation-filters="sRGB">
   <feGaussianBlur
     stdDeviation="1.093751"
     id="feGaussianBlur9" />
  </filter>
  <linearGradient
    xlink:href="#linearGradient3487"
    id="linearGradient3403"
    gradientUnits="userSpaceOnUse"
    x1="6.9491749"
    y1="4.5549412"
    x2="11.215498"
    y2="59.052471" />
  <linearGradient
    id="linearGradient3487">
   <stop
     style="stop-color:#32373c;stop-opacity:1"
     offset="0"
     id="stop3481" />
   <stop
     id="stop3483"
     offset="0.36804965"
     style="stop-color:#1a1a1a;stop-opacity:1" />
   <stop
     style="stop-color:#31363b;stop-opacity:1"
     offset="1"
     id="stop3485" />
  </linearGradient>
  <linearGradient
    xlink:href="#linearGradient20604"
    id="linearGradient20558"
    gradientUnits="userSpaceOnUse"
    x1="25.802212"
    y1="20.373846"
    x2="25.111048"
    y2="58.912758" />
  <linearGradient
    id="linearGradient20604">
   <stop
     id="stop20598"
     offset="0"
     style="stop-color:#3d3d3d;stop-opacity:1" />
   <stop
     style="stop-color:#000000;stop-opacity:1"
     offset="0.61772454"
     id="stop20600" />
   <stop
     id="stop20602"
     offset="1"
     style="stop-color:#3d3d3d;stop-opacity:1" />
  </linearGradient>
  <linearGradient
    gradientTransform="translate(0.36067797,-0.13016949)"
    xlink:href="#linearGradient4555"
    id="linearGradient4557"
    x1="43.499737"
    y1="64.011795"
    x2="44.141731"
    y2="0.30621234"
    gradientUnits="userSpaceOnUse" />
  <linearGradient
    id="linearGradient4555">
   <stop
     style="stop-color:#141618;stop-opacity:1"
     offset="0"
     id="stop4551" />
   <stop
     id="stop4559"
     offset="0.51820582"
     style="stop-color:#686868;stop-opacity:1" />
   <stop
     style="stop-color:#31363b;stop-opacity:1"
     offset="1"
     id="stop4553" />
  </linearGradient>
  <filter
    style="color-interpolation-filters:sRGB"
    id="filter4601"
    x="-0.029679933"
    width="1.0593599"
    y="-0.02953832"
    height="1.0590766">
   <feGaussianBlur
     stdDeviation="6.0456132e-05"
     id="feGaussianBlur4603" />
  </filter>
  <linearGradient
    id="b"
    x1="434.57144"
    x2="384.57144"
    y1="543.79797"
    y2="503.798"
    gradientTransform="matrix(0.66666621,0,0,0.70000019,128.19065,165.13928)"
    gradientUnits="userSpaceOnUse">
   <stop
     stop-color="#343b40"
     offset="0"
     id="stop2-7" />
   <stop
     stop-color="#555e63"
     offset="1"
     id="stop4-6" />
  </linearGradient>
  <linearGradient
    id="a"
    x2="0"
    y1="43.999973"
    y2="4"
    gradientTransform="matrix(0.66666621,0,0,0.69999959,384.57143,514.998)"
    gradientUnits="userSpaceOnUse">
   <stop
     stop-color="#bd8d48"
     offset="0"
     id="stop7" />
   <stop
     stop-color="#e8b971"
     offset="1"
     id="stop9" />
  </linearGradient>
  <linearGradient
    id="c"
    x1="37.581001"
    x2="53.580002"
    y1="17.139999"
    y2="33.139999"
    gradientTransform="translate(351.07811,502.96041)"
    gradientUnits="userSpaceOnUse">
   <stop
     stop-color="#383e51"
     offset="0"
     id="stop12" />
   <stop
     stop-color="#655c6f"
     stop-opacity="0"
     offset="1"
     id="stop14" />
  </linearGradient>
 </defs>
 <g
   transform="matrix(1.2547065,0,0,1.5511294,-476.72382,-801.20886)"
   id="g53">
  <g
    stroke-width="0.666666"
    id="g27">
   <rect
     x="384.57144"
     y="517.79797"
     width="32.000042"
     height="28.000034"
     fill="url(#b)"
     id="rect19"
     ry="3.0000265"
     rx="3.0000422"
     style="fill:url(#b)" />
   <path
     d="m 387.57143,517.798 c -2,0 -3,1 -3,3 v 22 c 0,2 1,3 3,3 h 26 c 2,0 3,-1 3,-3 v -22 c 0,-2 -1,-3 -3,-3 v 0 z m -0.99996,2 h 27.99996 v 24 h -27.99996 z"
     fill="url(#a)"
     id="path21"
     style="fill:url(#a)" />
   <path
     d="M 386.57147,519.75255 V 543.798 h 27.99996 v -24.04545 z m 0.99996,1.04545 h 26 v 22 h -26 z"
     color="#000000"
     fill="#aa7f41"
     fill-opacity="0.498039"
     id="path23" />
   <rect
     x="403.57144"
     y="541.79803"
     width="3.9999599"
     height="0.99998999"
     color="#000000"
     fill="#007ad9"
     id="rect25" />
  </g>
  <g
    fill="#d6d6d6"
    id="g49">
   <rect
     x="408.57141"
     y="541.79803"
     width="3.9999881"
     height="1.00001"
     color="#000000"
     stroke-width="0.666666"
     id="rect29" />
   <path
     d="m 389.56764,531.798 c -0.004,0 -0.006,0.223 -0.006,0.5 0,0.277 0.003,0.5 0.006,0.5 h 9.98728 c 0.004,0 0.006,-0.223 0.006,-0.5 0,-0.277 -0.002,-0.5 -0.006,-0.5 z"
     stroke-width="0.79056"
     id="path31" />
   <text
     x="391.49927"
     y="530.59259"
     font-family="monospace"
     font-size="21.3333px"
     letter-spacing="0px"
     word-spacing="0px"
     style="line-height:1.25"
     xml:space="preserve"
     id="text35"><tspan
      x="391.49927"
      y="530.59259"
      fill="#d6d6d6"
      font-family="'Nimbus Sans'"
      font-size="10.6667px"
      id="tspan33">6</tspan></text>
   <text
     x="391.93033"
     y="541.3819"
     font-family="'Noto Sans'"
     font-size="10.6667px"
     letter-spacing="0px"
     word-spacing="0px"
     style="line-height:1.25"
     xml:space="preserve"
     id="text39"><tspan
      x="391.93033"
      y="541.3819"
      id="tspan37">3</tspan></text>
   <path
     d="m 400.57083,530.798 c -0.002,0 -0.002,0.223 -0.002,0.5 0,0.277 8e-4,0.5 0.002,0.5 h 3.9952 c 0.002,0 0.002,-0.223 0.002,-0.5 0,-0.277 -7.3e-4,-0.5 -0.002,-0.5 z"
     stroke-width="0.500012"
     id="path41" />
   <path
     d="m 400.57083,532.798 c -0.002,0 -0.002,0.223 -0.002,0.5 0,0.277 8e-4,0.5 0.002,0.5 h 3.9952 c 0.002,0 0.002,-0.223 0.002,-0.5 0,-0.277 -7.3e-4,-0.5 -0.002,-0.5 z"
     stroke-width="0.500012"
     id="path43" />
   <text
     x="405.63394"
     y="535.73547"
     font-family="'Noto Sans'"
     font-size="10.6667px"
     letter-spacing="0px"
     word-spacing="0px"
     style="line-height:1.25"
     xml:space="preserve"
     id="text47"><tspan
      x="405.63394"
      y="535.73547"
      id="tspan45">2</tspan></text>
  </g>
  <path
    d="m 406.8828,534.19274 -2.28459,-2.41809 -0.83942,-0.0147 -7.90055,-6.90819 c 0,0 -0.15447,-0.60456 -0.36905,-0.80906 -0.22194,-0.21152 -0.54764,-0.34479 -0.85422,-0.34106 -0.35915,0.004 -0.73439,0.17215 -0.9907,0.42378 -0.36687,0.36017 -0.51897,0.90524 -0.6326,1.40664 -0.11982,0.52873 -0.13408,1.12328 -0.14916,1.67224 -0.0138,0.50295 -0.039,0.96054 0.0773,1.44345 0.097,0.40286 0.33946,0.76432 0.591,1.0936 0.33046,0.43259 0.81158,0.72801 1.18197,1.12695 0.58313,0.62807 1.63144,1.98721 1.63144,1.98721 l -5.65311,-0.0145 3.54814,4.96489 -0.67056,0.0423 2.47261,2.92473 c 0,0 -0.45918,0.28733 -1.11,0.34122 -0.56438,0.0467 -1.80828,-0.28572 -2.51059,-0.4916 l -0.018,0.40909 6.30006,7.24573 18.6145,-0.0836 c 0.0128,-4.77727 0.01,-7.52128 0.0697,-12.29816 l -6.63928,-5.62918 c 0,0 -1.04555,-1.29727 -1.8307,-1.41702 -0.22078,-0.0337 -0.75634,-0.0303 -1.03911,0.0586 -0.62355,0.19616 -1.14857,0.6221 -1.14857,0.6221 l 2.3504,2.37857 z"
    fill="url(#c)"
    fill-rule="evenodd"
    opacity="0.2"
    id="path51"
    style="fill:url(#c)" />
 </g>
 <path
   style="display:inline;mix-blend-mode:normal;fill:url(#linearGradient3403);fill-opacity:1;stroke:url(#linearGradient20558);stroke-width:1.16242;stroke-linecap:butt;stroke-linejoin:round;stroke-miterlimit:4;stroke-dasharray:none;stroke-opacity:1"
   d="M 4.7043071,3.9814882 4.6913695,60.80196 H 58.59546 l 1.022155,-2.866369 c 0,0 -23.87537,0.766388 -32.844441,-4.140386 C 16.257548,48.042344 11.401114,4.0978197 11.401114,4.0978197 Z"
   id="path1686"
   transform="matrix(0.7518797,0,0,0.7518797,0.09970467,0.02488636)" />
 <rect
   style="display:inline;fill:none;fill-opacity:1;stroke:url(#linearGradient4557);stroke-width:3.71366;stroke-linejoin:round;stroke-miterlimit:7.8;stroke-dasharray:none;stroke-opacity:0.995146"
   id="rect4539"
   width="62.566689"
   height="62.866646"
   x="1.0323594"
   y="0.59551275"
   ry="6.2447233"
   rx="5.8029528"
   transform="matrix(0.70434793,0,0,0.70291231,1.3629847,1.5442064)" />
</svg>
