<?xml version="1.0" encoding="UTF-8" standalone="no"?>
<!-- Created with Inkscape (http://www.inkscape.org/) -->

<svg
  width="48"
  height="48"
  version="1.1"
  viewBox="0 0 48 48"
  id="svg22"
  xmlns:xlink="http://www.w3.org/1999/xlink"
  xmlns="http://www.w3.org/2000/svg"
  xmlns:svg="http://www.w3.org/2000/svg">
 <defs
   id="defs12">
  <linearGradient
    id="linearGradient917">
   <stop
     style="stop-color:#000000;stop-opacity:0.99607843"
     offset="0"
     id="stop913" />
   <stop
     style="stop-color:#353a3f;stop-opacity:0.99607843"
     offset="1"
     id="stop915" />
  </linearGradient>
  <linearGradient
    id="linearGradient1005-3-3"
    x1="5.2535"
    x2="9.3823996"
    y1="15.383"
    y2="2.9421"
    gradientTransform="matrix(0.99999,0,0,0.99999,1.632,-0.61743)"
    gradientUnits="userSpaceOnUse">
   <stop
     stop-color="#fa8200"
     offset="0"
     id="stop2" />
   <stop
     stop-color="#ff9600"
     offset=".36953"
     id="stop4" />
   <stop
     stop-color="#ffb400"
     offset="1"
     id="stop6" />
  </linearGradient>
  <filter
    id="filter4014"
    x="-0.062499932"
    y="-0.057692992"
    width="1.1249999"
    height="1.115386"
    color-interpolation-filters="sRGB">
   <feGaussianBlur
     stdDeviation="1.093751"
     id="feGaussianBlur9" />
  </filter>
  <linearGradient
    xlink:href="#linearGradient3487"
    id="linearGradient3403"
    gradientUnits="userSpaceOnUse"
    x1="6.9491749"
    y1="4.5549412"
    x2="11.215498"
    y2="59.052471" />
  <linearGradient
    id="linearGradient3487">
   <stop
     style="stop-color:#32373c;stop-opacity:1"
     offset="0"
     id="stop3481" />
   <stop
     id="stop3483"
     offset="0.36804965"
     style="stop-color:#1a1a1a;stop-opacity:1" />
   <stop
     style="stop-color:#31363b;stop-opacity:1"
     offset="1"
     id="stop3485" />
  </linearGradient>
  <linearGradient
    xlink:href="#linearGradient20604"
    id="linearGradient20558"
    gradientUnits="userSpaceOnUse"
    x1="25.802212"
    y1="20.373846"
    x2="25.111048"
    y2="58.912758" />
  <linearGradient
    id="linearGradient20604">
   <stop
     id="stop20598"
     offset="0"
     style="stop-color:#3d3d3d;stop-opacity:1" />
   <stop
     style="stop-color:#000000;stop-opacity:1"
     offset="0.61772454"
     id="stop20600" />
   <stop
     id="stop20602"
     offset="1"
     style="stop-color:#3d3d3d;stop-opacity:1" />
  </linearGradient>
  <linearGradient
    gradientTransform="translate(0.36067797,-0.13016949)"
    xlink:href="#linearGradient4555"
    id="linearGradient4557"
    x1="43.499737"
    y1="64.011795"
    x2="44.141731"
    y2="0.30621234"
    gradientUnits="userSpaceOnUse" />
  <linearGradient
    id="linearGradient4555">
   <stop
     style="stop-color:#141618;stop-opacity:1"
     offset="0"
     id="stop4551" />
   <stop
     id="stop4559"
     offset="0.51820582"
     style="stop-color:#686868;stop-opacity:1" />
   <stop
     style="stop-color:#31363b;stop-opacity:1"
     offset="1"
     id="stop4553" />
  </linearGradient>
  <filter
    style="color-interpolation-filters:sRGB"
    id="filter4601"
    x="-0.029678811"
    width="1.0593576"
    y="-0.029537204"
    height="1.0590744">
   <feGaussianBlur
     stdDeviation="3.1224787e-05"
     id="feGaussianBlur4603" />
  </filter>
  <linearGradient
    xlink:href="#linearGradient917"
    id="linearGradient919"
    x1="7.400631"
    y1="41.743092"
    x2="33.063145"
    y2="7.1074457"
    gradientUnits="userSpaceOnUse" />
  <linearGradient
    id="b"
    gradientUnits="userSpaceOnUse"
    x1="25"
    x2="38"
    y1="15.303711"
    y2="28.303711">
   <stop
     offset="0"
     stop-color="#3daee9"
     id="stop7" />
   <stop
     offset="1"
     stop-color="#2980b9"
     id="stop9" />
  </linearGradient>
  <linearGradient
    id="a"
    gradientTransform="matrix(-0.96631454,-0.25892304,0.25892304,-0.96631454,40.97786,53.40176)"
    gradientUnits="userSpaceOnUse"
    x1="394.57169"
    x2="422.57166"
    y1="525.79797"
    y2="553.79797">
   <stop
     offset="0"
     stop-color="#d6d9dc"
     id="stop2-3" />
   <stop
     offset="1"
     stop-color="#a1a9b1"
     id="stop4-1" />
  </linearGradient>
 </defs>
 <rect
   style="display:inline;fill:url(#linearGradient919);fill-opacity:1;fill-rule:evenodd;stroke:none;stroke-width:0.92782;stroke-linejoin:round;stroke-miterlimit:7.8"
   id="rect1192"
   width="42.084602"
   height="42.712109"
   x="3.1629105"
   y="3.0184898"
   ry="0" />
 <g
   id="g863"
   transform="translate(2.6121144,0.16382158)">
  <circle
    cx="24.000011"
    cy="23.999973"
    fill="#232629"
    fill-rule="evenodd"
    r="14"
    id="circle12" />
  <path
    d="m 17,10 v 1 h 5 v -1 z m -1,0.222656 A 16,16 0 0 0 14.742188,11 H 16 Z M 13.521484,12 A 16,16 0 0 0 13,12.427734 V 13 h 4 v -1 z m -1.914062,2 a 16,16 0 0 0 -0.81836,1 H 19 V 14 Z M 20,14 v 1 h 2 v -1 z m -9.777344,2 A 16,16 0 0 0 9.6875,17 H 14 V 16 Z M 15,16 v 1 h 8 V 16 Z M 9.1816406,18 A 16,16 0 0 0 9,18.597656 V 19 h 8 V 18 Z M 8.5742188,20 A 16,16 0 0 0 8.2949219,21 H 12 V 20 Z M 13,20 v 1 h 5 v -1 z m -5,4 a 16,16 0 0 0 0.097656,1 H 16 v -1 z m 9,0 v 1 h 2 v -1 z m -8,2 v 1 h 5 v -1 z m 6,0 v 1 h 10 v -1 z m -6.4257812,2 a 16,16 0 0 0 0.3027343,1 H 13 V 28 Z M 14,28 v 1 h 5 v -1 z m 6,0 v 1 h 2 v -1 z m 4,1 v 4 h 1 v -4 z m 3,0 v 4 h 3 v -4 z m 5,0 v 4 h 1 v -4 z m 3,0 v 4 h 2.210938 A 16,16 0 0 0 38,31.583984 V 29 Z m -7,1 h 1 v 2 h -1 z m 8,0 h 1 v 2 h -1 z m -25.777344,2 a 16,16 0 0 0 0.566406,1 H 18 V 32 Z M 19,32 v 1 h 2 v -1 z m -7,2 v 0.478516 A 16,16 0 0 0 12.427734,35 H 16 v -1 z m 5,0 v 1 h 5 v -1 z m 7,0 v 4 h 3 v -4 z m 5,0 v 4 h 1 v -4 z m 3,0 v 3.777344 A 16,16 0 0 0 33.257812,37 H 33 v -2 h 1 v 1.392578 a 16,16 0 0 0 1,-0.820312 V 34 Z m -7,1 h 1 v 2 h -1 z m -11.478516,1 a 16,16 0 0 0 1.220704,1 H 18 v -1 z"
    fill="#eff0f1"
    opacity="0.394"
    id="path14" />
  <path
    d="m 24.85353,23.14646 -0.35352,0.35351 -0.35351,0.35352 10.50082,10.50085 0.70703,-0.70703 z"
    fill="#ed1515"
    stroke-miterlimit="0"
    id="path16" />
  <path
    d="m 24.00001,9.99997 h 1 v 13.5 h -1 z"
    fill="#fcfcfc"
    fill-rule="evenodd"
    id="path18" />
  <path
    d="M 25,10 V 23.292969 L 35.314453,33.607422 A 15,15 0 0 0 38,29.144531 V 18.845703 A 15,15 0 0 0 29.103516,10 Z"
    fill="url(#b)"
    fill-rule="evenodd"
    id="path20"
    style="fill:url(#b)" />
  <path
    d="m 21.95117,43.89174 a 20.007962,20.007962 0 0 0 4.09869,0.006 l 0.47519,-3.10124 a 17.006768,17.006768 0 0 0 3.68881,-0.98586 l 1.95678,2.44197 a 20.007962,20.007962 0 0 0 3.55038,-2.0546 l -1.13545,-2.91216 a 17.006768,17.006768 0 0 0 2.7109,-2.69624 l 2.89415,1.12745 a 20.007962,20.007962 0 0 0 2.0509,-3.55479 L 39.81855,30.2205 a 17.006768,17.006768 0 0 0 0.60884,-1.81923 17.006768,17.006768 0 0 0 0.36951,-1.8773 l 3.09523,-0.47519 a 20.007962,20.007962 0 0 0 0.006,-4.09869 L 40.7969,21.47491 A 17.006768,17.006768 0 0 0 39.81103,17.78609 L 42.253,15.82931 a 20.007962,20.007962 0 0 0 -2.0546,-3.55038 l -2.91215,1.13545 A 17.006768,17.006768 0 0 0 34.59029,10.70369 L 35.71786,7.80972 A 20.007962,20.007962 0 0 0 32.16292,5.75881 L 30.22268,8.18187 A 17.006768,17.006768 0 0 0 28.40188,7.57289 17.006768,17.006768 0 0 0 26.52458,7.20337 L 26.05102,4.10825 a 20.007962,20.007962 0 0 0 -4.09869,-0.006 L 21.4752,7.20339 A 17.006768,17.006768 0 0 0 17.78669,8.18953 L 15.82995,5.74781 a 20.007962,20.007962 0 0 0 -3.55038,2.0546 l 1.13545,2.91216 a 17.006768,17.006768 0 0 0 -2.7109,2.69624 l -2.89436,-1.1284 a 20.007962,20.007962 0 0 0 -2.0509,3.55478 l 2.42296,1.94177 A 17.006768,17.006768 0 0 0 7.57299,19.5982 17.006768,17.006768 0 0 0 7.20348,21.47549 l -3.09523,0.47519 a 20.007962,20.007962 0 0 0 -0.006,4.09869 l 3.10123,0.47519 a 17.006768,17.006768 0 0 0 0.98587,3.68881 l -2.44197,1.95678 a 20.007962,20.007962 0 0 0 2.0546,3.55038 l 2.91216,-1.13545 a 17.006768,17.006768 0 0 0 2.69624,2.7109 l -1.12745,2.89415 a 20.007962,20.007962 0 0 0 3.55478,2.0509 l 1.94178,-2.42296 a 17.006768,17.006768 0 0 0 1.81923,0.60883 17.006768,17.006768 0 0 0 1.8773,0.36951 z m -1.57598,-6.36333 a 14.005573,14.005573 0 0 1 -9.90343,-17.15326 14.005573,14.005573 0 0 1 17.15325,-9.90343 14.005573,14.005573 0 0 1 9.90344,17.15325 14.005573,14.005573 0 0 1 -17.15326,9.90344"
    fill="url(#a)"
    stroke-linejoin="round"
    stroke-width="3"
    id="path22"
    style="fill:url(#a)" />
  <path
    d="m 12.58984,7.60156 c -0.10413,0.0661 -0.20765,0.13316 -0.31054,0.20117 l 1.13572,2.91184 c 0.0954,-0.087 0.19173,-0.17297 0.28906,-0.25781 z m 22.81641,0.008 -1.10502,2.83455 c 0.0973,0.0855 0.1937,0.17208 0.28906,0.25977 L 35.71875,7.81074 C 35.61521,7.74274 35.51104,7.67565 35.40625,7.60956 Z M 24.52344,9.0041 c -6.52939,-0.24371 -12.35976,4.05977 -14.05078,10.37109 -0.3096,1.23175 -0.45021,2.49988 -0.41797,3.76953 0.0464,-0.93482 0.18645,-1.86264 0.41797,-2.76953 C 12.47514,12.90459 20.15413,8.47137 27.625,10.47285 33.57612,12.071 37.78359,17.37098 37.99023,23.52949 38.2374,16.99964 33.93619,11.16663 27.625,9.47285 26.61196,9.20095 25.57158,9.04371 24.52344,9.0041 Z m 17.36719,6.11718 -2.33936,1.87398 c 0.093,0.26152 0.17964,0.52527 0.25976,0.79102 l 2.44288,-1.95601 c -0.11638,-0.23872 -0.2375,-0.47509 -0.36328,-0.70899 z m -35.76954,0.008 C 5.99596,15.36319 5.8755,15.59957 5.75977,15.83827 l 2.42205,1.94108 c 0.0814,-0.26513 0.16936,-0.52823 0.26367,-0.78906 z m 37.87305,8.33789 c -0.0129,0.52848 -0.0468,1.05624 -0.10156,1.58204 l -3.0957,0.47461 c -0.0877,0.63208 -0.21098,1.25872 -0.36915,1.87695 -0.16869,0.61776 -0.63562,2.01437 -0.87285,2.60918 l 0.26367,0.21094 c 0.1262,-0.33998 0.50497,-1.47277 0.60918,-1.82012 0.15817,-0.61823 0.28141,-1.24487 0.36915,-1.87695 l 3.0957,-0.47461 c 0.0895,-0.85759 0.12338,-1.72007 0.10156,-2.58204 z m -39.96875,0.0469 c -0.0282,0.84582 -0.003,1.69257 0.0762,2.53516 l 3.10157,0.47656 c 0.15678,0.98494 0.65957,2.74568 0.98622,3.688 L 8.44915,30.00482 C 7.98303,28.81656 7.39251,26.7881 7.20316,25.52581 L 4.10159,25.04925 c -0.045,-0.51056 -0.0705,-1.02265 -0.0762,-1.53516 z m 37.85352,8.35743 c -0.48298,0.99352 -1.04741,1.94534 -1.6875,2.8457 l -2.89453,-1.12695 c -0.79948,0.99746 -1.9983,2.16012 -3.00037,2.95381 l 0.28906,0.74219 c 0.88751,-0.72865 1.98837,-1.80382 2.71131,-2.696 l 2.89453,1.12695 c 0.80362,-1.11147 1.49083,-2.30263 2.05078,-3.55469 z m -35.76758,0.008 -0.36328,0.29101 c 0.56142,1.25087 1.24994,2.44072 2.05468,3.55078 l 2.91211,-1.13476 c 0.71731,0.89617 1.81279,1.97628 2.69554,2.71004 l 0.28906,-0.74023 c -0.99746,-0.79948 -2.1909,-1.96774 -2.9846,-2.96981 L 7.80273,34.72132 C 7.16148,33.82235 6.59574,32.87184 6.11133,31.87953 Z m 24.10156,6.93164 c -1.18826,0.46611 -2.42521,0.79697 -3.6875,0.98633 l -0.47461,3.10156 c -1.36313,0.13842 -2.73688,0.13646 -4.09961,-0.006 l -0.47461,-3.0957 c -0.63208,-0.0877 -1.25872,-0.21098 -1.87695,-0.36914 -0.61776,-0.1687 -1.2255,-0.37215 -1.82031,-0.60938 l -1.94141,2.42188 C 14.70121,40.7267 13.6151,40.10747 12.59375,39.39114 l -0.31055,0.79883 c 1.11148,0.80363 2.30264,1.49084 3.55469,2.05078 l 1.94141,-2.42187 c 0.59481,0.23723 1.20255,0.44068 1.82031,0.60937 0.61823,0.15817 1.24487,0.28141 1.87695,0.36914 l 0.47461,3.09571 c 1.36273,0.14232 2.73648,0.14428 4.09961,0.006 l 0.47461,-3.10156 c 1.26229,-0.18936 2.49924,-0.52022 3.6875,-0.98633 l 1.95703,2.4414 c 1.25087,-0.56142 2.44072,-1.24994 3.55078,-2.05468 L 35.41016,39.3991 c -1.01996,0.71746 -2.10476,1.338 -3.24024,1.85351 z"
    opacity="0.208"
    stroke-linejoin="round"
    stroke-width="3"
    id="path24" />
  <g
    fill-rule="evenodd"
    id="g30">
   <circle
     cx="24.50001"
     cy="23.499969"
     fill="#fcfcfc"
     r="1.5"
     id="circle26" />
   <circle
     cx="24.50001"
     cy="23.499969"
     fill="#232629"
     r="0.5"
     id="circle28" />
  </g>
 </g>
 <path
   style="display:inline;mix-blend-mode:normal;fill:url(#linearGradient3403);fill-opacity:1;stroke:url(#linearGradient20558);stroke-width:1.16242;stroke-linecap:butt;stroke-linejoin:round;stroke-miterlimit:4;stroke-dasharray:none;stroke-opacity:1"
   d="M 4.7043071,3.9814882 4.6913695,60.80196 H 58.59546 l 1.022155,-2.866369 c 0,0 -23.87537,0.766388 -32.844441,-4.140386 C 16.257548,48.042344 11.401114,4.0978197 11.401114,4.0978197 Z"
   id="path1686"
   transform="matrix(0.7518797,0,0,0.7518797,0.09970467,0.02488636)" />
 <rect
   style="display:inline;fill:none;fill-opacity:1;stroke:url(#linearGradient4557);stroke-width:3.71366;stroke-linejoin:round;stroke-miterlimit:7.8;stroke-dasharray:none;stroke-opacity:0.995146"
   id="rect4539"
   width="62.566689"
   height="62.866646"
   x="1.0323594"
   y="0.59551275"
   ry="6.2447233"
   rx="5.8029528"
   transform="matrix(0.70434793,0,0,0.70291231,1.3629847,1.5442064)" />
</svg>
