<?xml version="1.0" encoding="UTF-8" standalone="no"?>
<!-- Created with Inkscape (http://www.inkscape.org/) -->

<svg
  width="48"
  height="48"
  version="1.1"
  viewBox="0 0 48 48"
  id="svg22"
  xmlns:xlink="http://www.w3.org/1999/xlink"
  xmlns="http://www.w3.org/2000/svg"
  xmlns:svg="http://www.w3.org/2000/svg">
 <defs
   id="defs12">
  <linearGradient
    xlink:href="#linearGradient3487"
    id="linearGradient3403"
    gradientUnits="userSpaceOnUse"
    x1="6.9491749"
    y1="4.5549412"
    x2="11.215498"
    y2="59.052471" />
  <linearGradient
    id="linearGradient3487">
   <stop
     style="stop-color:#32373c;stop-opacity:1"
     offset="0"
     id="stop3481" />
   <stop
     id="stop3483"
     offset="0.36804965"
     style="stop-color:#1a1a1a;stop-opacity:1" />
   <stop
     style="stop-color:#31363b;stop-opacity:1"
     offset="1"
     id="stop3485" />
  </linearGradient>
  <linearGradient
    xlink:href="#linearGradient20604"
    id="linearGradient20558"
    gradientUnits="userSpaceOnUse"
    x1="25.802212"
    y1="20.373846"
    x2="25.111048"
    y2="58.912758" />
  <linearGradient
    id="linearGradient20604">
   <stop
     id="stop20598"
     offset="0"
     style="stop-color:#3d3d3d;stop-opacity:1" />
   <stop
     style="stop-color:#000000;stop-opacity:1"
     offset="0.61772454"
     id="stop20600" />
   <stop
     id="stop20602"
     offset="1"
     style="stop-color:#3d3d3d;stop-opacity:1" />
  </linearGradient>
  <filter
    style="color-interpolation-filters:sRGB"
    id="filter20720"
    x="-0.010609948"
    y="-0.010256226"
    width="1.0212194"
    height="1.0205125">
   <feGaussianBlur
     stdDeviation="0.00064774192"
     id="feGaussianBlur20722" />
  </filter>
  <linearGradient
    gradientTransform="translate(0.36067797,-0.13016949)"
    xlink:href="#linearGradient4555"
    id="linearGradient4557"
    x1="43.499737"
    y1="64.011795"
    x2="44.141731"
    y2="0.30621234"
    gradientUnits="userSpaceOnUse" />
  <linearGradient
    id="linearGradient4555">
   <stop
     style="stop-color:#141618;stop-opacity:1"
     offset="0"
     id="stop4551" />
   <stop
     id="stop4559"
     offset="0.51820582"
     style="stop-color:#686868;stop-opacity:1" />
   <stop
     style="stop-color:#31363b;stop-opacity:1"
     offset="1"
     id="stop4553" />
  </linearGradient>
  <filter
    style="color-interpolation-filters:sRGB"
    id="filter4601"
    x="-0.029704164"
    width="1.0594083"
    y="-0.029562436"
    height="1.0591249">
   <feGaussianBlur
     stdDeviation="0.00069215948"
     id="feGaussianBlur4603" />
  </filter>
 </defs>
 <rect
   x="4"
   y="4"
   width="56"
   height="56"
   rx="2.516855"
   ry="2.3457396"
   stroke-width="3.7795"
   id="rect24"
   style="display:inline;fill:#e4e4e4;fill-opacity:1"
   transform="matrix(0.74040621,0,0,0.73906725,1.5436865,-0.12656417)" />
 <g
   id="g1">
  <rect
    style="fill:#333333;stroke-width:1.55373"
    width="14.48449"
    height="1"
    x="20.425907"
    y="5.0235877"
    rx="0.5"
    ry="0.5"
    id="rect2" />
  <rect
    style="fill:#3f3f3f;stroke-width:1.1767"
    width="36"
    height="30"
    x="8.9103966"
    y="7.0235877"
    id="rect3" />
  <rect
    style="fill:#4d4d4d"
    width="4"
    height="4"
    x="26.910397"
    y="38.023586"
    rx="1"
    ry="1"
    id="rect4" />
  <rect
    style="fill:#4d4d4d"
    width="4"
    height="2"
    x="33.910397"
    y="39.023586"
    rx="1"
    ry="1"
    id="rect5" />
  <rect
    style="fill:#4d4d4d"
    width="4"
    height="2"
    x="19.910397"
    y="39.023586"
    rx="1"
    ry="1"
    id="rect6" />
  <circle
    style="fill:#333333"
    cx="36.410397"
    cy="5.5235877"
    r="0.5"
    id="circle6" />
  <path
    style="opacity:0.2"
    d="m 30.909397,13.023588 -4,0.605 v 14.469 l 4,-1.074 v -5.59 l 3.999999,6.59 4,-1.5 -4.999999,-6 5.001999,-6.498 -3.881,-1.002 -4.120999,6.559 z m -8.145,3.924 c -0.094,0 -0.189,0.037 -0.261,0.109 l -1.573,1.572 c -0.145,0.146 -0.11,0.353 0,0.526 l 1.627,2.555 c -0.12,0.25 -0.224,0.507 -0.312,0.771 -0.004,0.011 -0.01,0.022 -0.014,0.033 l -2.951,0.656 c -0.2,0.045 -0.371,0.166 -0.371,0.372 v 0.982 0.982 c 0,0.206 0.171,0.327 0.371,0.372 l 2.951,0.656 c 0.007,0.019 0.017,0.037 0.024,0.056 0.085,0.256 0.186,0.507 0.302,0.75 l -1.627,2.553 c -0.11,0.173 -0.145,0.38 0,0.526 l 1.573,1.572 c 0.145,0.145 0.378,0.145 0.523,0 l 2.551,-1.625 c 0.251,0.122 0.509,0.227 0.773,0.316 0.018,0.006 0.034,0.016 0.051,0.022 l 0.654,2.949 c 0,0.205 0.166,0.371 0.372,0.371 h 2.22 c 0.205,0 0.327,-0.171 0.371,-0.371 l 0.655,-3.039 c 0.3,-0.113 0.592,-0.248 0.873,-0.404 l 2.49,1.781 c 0.145,0.145 0.378,0.145 0.523,0 l 1.572999,-1.572 c 0.145,-0.146 0.11,-0.353 0,-0.526 l -0.948,-1.437 -0.099,0.037 c -0.225,0.084 -0.478999,-0.003 -0.603999,-0.209 l -0.996,-1.641 c -0.83,1.985 -2.79,3.381 -5.076,3.381 -3.038,0 -5.5,-2.462 -5.5,-5.5 0,-2.331 1.453,-4.318 3.5,-5.119 v -1.096 l -0.008,0.035 c -0.022,0.008 -0.042,0.02 -0.064,0.028 -0.261,0.086 -0.516,0.189 -0.764,0.308 l -2.547,-1.623 c -0.072,-0.072 -0.167,-0.109 -0.262,-0.109 z"
    id="path6" />
  <path
    style="fill:#ffffff"
    d="m 30.909397,12.023588 -4,0.605 v 14.469 l 4,-1.074 v -5.59 l 3.999999,6.59 4,-1.5 -4.999999,-6 5.001999,-6.498 -3.881,-1.002 -4.120999,6.559 z m -8.145,3.924 c -0.094,0 -0.189,0.037 -0.261,0.109 l -1.573,1.572 c -0.145,0.146 -0.11,0.353 0,0.526 l 1.627,2.555 c -0.12,0.25 -0.224,0.507 -0.312,0.771 -0.004,0.011 -0.01,0.022 -0.014,0.033 l -2.951,0.656 c -0.2,0.045 -0.371,0.166 -0.371,0.372 v 0.982 0.982 c 0,0.206 0.171,0.327 0.371,0.372 l 2.951,0.656 c 0.007,0.019 0.017,0.037 0.024,0.056 0.085,0.256 0.186,0.507 0.302,0.75 l -1.627,2.553 c -0.11,0.173 -0.145,0.38 0,0.526 l 1.573,1.572 c 0.145,0.145 0.378,0.145 0.523,0 l 2.551,-1.625 c 0.251,0.122 0.509,0.227 0.773,0.316 0.018,0.006 0.034,0.016 0.051,0.022 l 0.654,2.949 c 0,0.205 0.166,0.371 0.372,0.371 h 2.22 c 0.205,0 0.327,-0.171 0.371,-0.371 l 0.655,-3.039 c 0.3,-0.113 0.592,-0.248 0.873,-0.404 l 2.49,1.781 c 0.145,0.145 0.378,0.145 0.523,0 l 1.572999,-1.572 c 0.145,-0.146 0.11,-0.353 0,-0.526 l -0.948,-1.437 -0.099,0.037 c -0.225,0.084 -0.478999,-0.003 -0.603999,-0.209 l -0.996,-1.641 c -0.83,1.985 -2.79,3.381 -5.076,3.381 -3.038,0 -5.5,-2.462 -5.5,-5.5 0,-2.331 1.453,-4.318 3.5,-5.119 v -1.096 l -0.008,0.035 c -0.022,0.008 -0.042,0.02 -0.064,0.028 -0.261,0.086 -0.516,0.189 -0.764,0.308 l -2.547,-1.623 c -0.072,-0.072 -0.167,-0.109 -0.262,-0.109 z"
    id="path7" />
  <rect
    style="opacity:0.2;stroke-width:1.1767"
    width="36"
    height="1"
    x="8.9103966"
    y="7.0235877"
    id="rect7" />
  <rect
    style="opacity:0.2;fill:#ffffff;stroke-width:1.1767"
    width="36"
    height="1"
    x="8.9103966"
    y="37.023586"
    id="rect8" />
 </g>
 <path
   style="display:inline;mix-blend-mode:normal;fill:url(#linearGradient3403);fill-opacity:1;stroke:url(#linearGradient20558);stroke-width:1.16242;stroke-linecap:butt;stroke-linejoin:round;stroke-miterlimit:4;stroke-dasharray:none;stroke-opacity:1"
   d="M 4.7043071,3.9814882 4.6913695,60.80196 H 58.59546 l 1.022155,-2.866369 c 0,0 -23.87537,0.766388 -32.844441,-4.140386 C 16.257548,48.042344 11.401114,4.0978197 11.401114,4.0978197 Z"
   id="path1686"
   transform="matrix(0.74455909,0,0,0.74321262,0.48500704,0.3479564)" />
 <rect
   style="display:inline;fill:none;fill-opacity:1;stroke:url(#linearGradient4557);stroke-width:3.71366;stroke-linejoin:round;stroke-miterlimit:7.8;stroke-dasharray:none;stroke-opacity:0.995146"
   id="rect4539"
   width="62.566689"
   height="62.866646"
   x="1.0323594"
   y="0.59551275"
   ry="6.2447233"
   rx="5.8029528"
   transform="matrix(0.69749011,0,0,0.69480969,1.7359872,1.8497629)" />
</svg>
