<?xml version="1.0" encoding="UTF-8" standalone="no"?>
<!-- Created with Inkscape (http://www.inkscape.org/) -->

<svg
  width="48"
  height="48"
  version="1.1"
  viewBox="0 0 48 48"
  id="svg22"
  xmlns:xlink="http://www.w3.org/1999/xlink"
  xmlns="http://www.w3.org/2000/svg"
  xmlns:svg="http://www.w3.org/2000/svg">
 <defs
   id="defs12">
  <linearGradient
    id="linearGradient917">
   <stop
     style="stop-color:#000000;stop-opacity:0.99607843"
     offset="0"
     id="stop913" />
   <stop
     style="stop-color:#353a3f;stop-opacity:0.99607843"
     offset="1"
     id="stop915" />
  </linearGradient>
  <linearGradient
    id="linearGradient1005-3-3"
    x1="5.2535"
    x2="9.3823996"
    y1="15.383"
    y2="2.9421"
    gradientTransform="matrix(0.99999,0,0,0.99999,1.632,-0.61743)"
    gradientUnits="userSpaceOnUse">
   <stop
     stop-color="#fa8200"
     offset="0"
     id="stop2" />
   <stop
     stop-color="#ff9600"
     offset=".36953"
     id="stop4" />
   <stop
     stop-color="#ffb400"
     offset="1"
     id="stop6" />
  </linearGradient>
  <filter
    id="filter4014"
    x="-0.062499932"
    y="-0.057692992"
    width="1.1249999"
    height="1.115386"
    color-interpolation-filters="sRGB">
   <feGaussianBlur
     stdDeviation="1.093751"
     id="feGaussianBlur9" />
  </filter>
  <linearGradient
    xlink:href="#linearGradient3487"
    id="linearGradient3403"
    gradientUnits="userSpaceOnUse"
    x1="6.9491749"
    y1="4.5549412"
    x2="11.215498"
    y2="59.052471" />
  <linearGradient
    id="linearGradient3487">
   <stop
     style="stop-color:#32373c;stop-opacity:1"
     offset="0"
     id="stop3481" />
   <stop
     id="stop3483"
     offset="0.36804965"
     style="stop-color:#1a1a1a;stop-opacity:1" />
   <stop
     style="stop-color:#31363b;stop-opacity:1"
     offset="1"
     id="stop3485" />
  </linearGradient>
  <linearGradient
    xlink:href="#linearGradient20604"
    id="linearGradient20558"
    gradientUnits="userSpaceOnUse"
    x1="25.802212"
    y1="20.373846"
    x2="25.111048"
    y2="58.912758" />
  <linearGradient
    id="linearGradient20604">
   <stop
     id="stop20598"
     offset="0"
     style="stop-color:#3d3d3d;stop-opacity:1" />
   <stop
     style="stop-color:#000000;stop-opacity:1"
     offset="0.61772454"
     id="stop20600" />
   <stop
     id="stop20602"
     offset="1"
     style="stop-color:#3d3d3d;stop-opacity:1" />
  </linearGradient>
  <linearGradient
    gradientTransform="translate(0.36067797,-0.13016949)"
    xlink:href="#linearGradient4555"
    id="linearGradient4557"
    x1="43.499737"
    y1="64.011795"
    x2="44.141731"
    y2="0.30621234"
    gradientUnits="userSpaceOnUse" />
  <linearGradient
    id="linearGradient4555">
   <stop
     style="stop-color:#141618;stop-opacity:1"
     offset="0"
     id="stop4551" />
   <stop
     id="stop4559"
     offset="0.51820582"
     style="stop-color:#686868;stop-opacity:1" />
   <stop
     style="stop-color:#31363b;stop-opacity:1"
     offset="1"
     id="stop4553" />
  </linearGradient>
  <filter
    style="color-interpolation-filters:sRGB"
    id="filter4601"
    x="-0.029678208"
    width="1.0593564"
    y="-0.029536604"
    height="1.0590732">
   <feGaussianBlur
     stdDeviation="1.5503053e-05"
     id="feGaussianBlur4603" />
  </filter>
  <linearGradient
    xlink:href="#linearGradient917"
    id="linearGradient919"
    x1="7.400631"
    y1="41.743092"
    x2="33.063145"
    y2="7.1074457"
    gradientUnits="userSpaceOnUse" />
  <linearGradient
    x2="-14.394"
    x1="-44.389999"
    gradientTransform="translate(58.788,33.941)"
    gradientUnits="userSpaceOnUse"
    id="linearGradient35389"
    xlink:href="#b" />
  <linearGradient
    id="b"
    x1="-44.389999"
    x2="-14.394"
    gradientUnits="userSpaceOnUse"
    gradientTransform="translate(58.788,33.941)">
   <stop
     stop-color="#b0b8b8"
     id="stop35306" />
   <stop
     offset="1"
     stop-color="#eff1f1"
     id="stop35308" />
  </linearGradient>
  <linearGradient
    xlink:href="#b"
    id="f"
    y1="15.778"
    x1="3.2420001"
    y2="37"
    x2="40"
    gradientUnits="userSpaceOnUse"
    gradientTransform="matrix(-0.96593,-0.25882,0.25882,-0.96593,40.971,53.39)" />
  <linearGradient
    id="linearGradient903"
    x1="-44.389999"
    x2="-14.394"
    gradientUnits="userSpaceOnUse"
    gradientTransform="translate(58.788,33.941)">
   <stop
     stop-color="#b0b8b8"
     id="stop899" />
   <stop
     offset="1"
     stop-color="#eff1f1"
     id="stop901" />
  </linearGradient>
  <linearGradient
    id="e"
    y1="23"
    x1="24"
    y2="39"
    x2="40"
    gradientUnits="userSpaceOnUse">
   <stop
     stop-color="#292c2f"
     id="stop35321" />
   <stop
     offset="1"
     stop-opacity="0"
     id="stop35323" />
  </linearGradient>
  <linearGradient
    id="a"
    y1="13.444"
    x1="17.030001"
    y2="29.398001"
    x2="34.764"
    gradientUnits="userSpaceOnUse"
    gradientTransform="translate(-53.39,-40.971)">
   <stop
     stop-color="#375a7d"
     id="stop35301" />
   <stop
     offset="1"
     stop-color="#377d50"
     id="stop35303" />
  </linearGradient>
  <linearGradient
    id="c"
    y1="-25.452999"
    x1="-42.778999"
    y2="-11.201"
    x2="-18.1"
    gradientUnits="userSpaceOnUse">
   <stop
     stop-color="#338173"
     id="stop35311" />
   <stop
     offset="1"
     stop-color="#54d883"
     id="stop35313" />
  </linearGradient>
  <linearGradient
    id="d"
    x1="13.864"
    x2="27.049999"
    gradientUnits="userSpaceOnUse">
   <stop
     stop-color="#7ceca4"
     id="stop35316" />
   <stop
     offset="1"
     stop-color="#e5fbf7"
     id="stop35318" />
  </linearGradient>
 </defs>
 <rect
   style="display:inline;fill:url(#linearGradient919);fill-opacity:1;fill-rule:evenodd;stroke:none;stroke-width:0.92782;stroke-linejoin:round;stroke-miterlimit:7.8"
   id="rect1192"
   width="42.084602"
   height="42.712109"
   x="3.1629105"
   y="3.0184898"
   ry="0" />
 <g
   transform="translate(2.7079894,-0.36420209)"
   id="g35387">
  <g
    style="color:#000000"
    id="g35349">
   <g
     style="stroke-width:3;stroke-linejoin:round"
     id="g35333">
    <circle
      style="fill:url(#linearGradient35389);stroke-linecap:round"
      cx="29.393999"
      cy="16.971001"
      r="15"
      transform="rotate(15)"
      id="circle35329" />
    <path
      style="fill:url(#f)"
      d="m 21.951885,43.88376 a 20,20 0 0 0 4.097059,0.0059 l 0.475,-3.1 a 17,17 0 0 0 3.687344,-0.985474 l 1.956,2.441 a 20,20 0 0 0 3.54897,-2.053782 l -1.135,-2.911 a 17,17 0 0 0 2.709819,-2.695171 l 2.893,1.127 a 20,20 0 0 0 2.050081,-3.553369 l -2.422,-1.941 a 17,17 0 0 0 0.608591,-1.818511 17,17 0 0 0 0.369366,-1.876546 l 3.094,-0.475 a 20,20 0 0 0 0.0059,-4.097059 l -3.1,-0.475 a 17,17 0 0 0 -0.985474,-3.687344 l 2.441,-1.956 a 20,20 0 0 0 -2.053782,-3.54897 l -2.911,1.135 a 17,17 0 0 0 -2.694886,-2.70962 L 35.713,7.816 A 20,20 0 0 0 32.15947,5.765905 L 30.22,8.188 A 17,17 0 0 0 28.399924,7.579261 17,17 0 0 0 26.523378,7.209895 L 26.05,4.116 A 20,20 0 0 0 21.952942,4.11009 L 21.476,7.21 A 17,17 0 0 0 17.788962,8.195745 L 15.833,5.755 a 20,20 0 0 0 -3.54897,2.053784 l 1.135,2.911 a 17,17 0 0 0 -2.709819,2.695171 L 7.816,12.287 a 20,20 0 0 0 -2.050081,3.553369 l 2.422,1.941 A 17,17 0 0 0 7.579328,19.59988 17,17 0 0 0 7.209962,21.476426 l -3.094,0.475 a 20,20 0 0 0 -0.00591,4.097058 l 3.1,0.475 a 17,17 0 0 0 0.985475,3.687344 l -2.441,1.956 a 20,20 0 0 0 2.053784,3.54897 l 2.911,-1.135 a 17,17 0 0 0 2.695171,2.709819 l -1.127,2.893 a 20,20 0 0 0 3.553369,2.050081 l 1.941,-2.422 a 17,17 0 0 0 1.818511,0.608591 17,17 0 0 0 1.876546,0.369366 z m -1.575352,-6.360798 a 14,14 0 0 1 -9.899495,-17.14643 14,14 0 0 1 17.14643,-9.899495 14,14 0 0 1 9.899495,17.14643 14,14 0 0 1 -17.14643,9.899495"
      id="path35331" />
   </g>
   <path
     style="opacity:0.2;color-interpolation:sRGB;color-interpolation-filters:linearRGB;fill:url(#e);fill-rule:evenodd;color-rendering:auto;image-rendering:auto;shape-rendering:auto;text-rendering:auto"
     d="M 33.19,14.807 14.803,33.194 25.539,43.928 c 0.169,-0.013 0.338,-0.02 0.506,-0.037 l 0.475,-3.102 c 1.262,-0.189 2.499,-0.519 3.688,-0.984 l 1.957,2.441 c 1.25,-0.561 2.439,-1.25 3.549,-2.055 l -1.135,-2.91 c 1,-0.794 1.91,-1.698 2.709,-2.695 l 2.893,1.127 c 0.803,-1.111 1.491,-2.301 2.051,-3.553 L 39.81,30.219 c 0.237,-0.594 0.439,-1.201 0.607,-1.818 0.158,-0.618 0.283,-1.245 0.371,-1.877 l 3.092,-0.475 c 0.018,-0.17 0.028,-0.34 0.041,-0.51 z"
     id="path35335" />
   <g
     style="stroke-width:3;stroke-linejoin:round"
     id="g35347">
    <path
      style="opacity:0.2;fill:#172525"
      d="m 41.883,15.12 -2.078,1.666 c 0.096,0.259 0.186,0.52 0.27,0.783 l 2.172,-1.74 C 42.131,15.59 42.01,15.354 41.884,15.12 M 6.126,15.126 c -0.124,0.235 -0.244,0.472 -0.359,0.711 l 2.154,1.727 C 8.004,17.3 8.093,17.038 8.189,16.779 Z M 4.034,23.487 C 4.005,24.341 4.03,25.195 4.11,26.046 l 3.102,0.475 c 0.152,0.987 0.392,1.959 0.715,2.904 l 0.27,-0.217 C 7.731,28.02 7.401,26.783 7.213,25.52 L 4.111,25.045 C 4.065,24.527 4.04,24.007 4.035,23.486 m 39.934,0.02 c -0.008,0.514 -0.036,1.027 -0.084,1.539 l -3.092,0.475 c -0.088,0.632 -0.212,1.259 -0.371,1.877 -0.168,0.617 -0.371,1.224 -0.607,1.818 l 0.268,0.215 c 0.124,-0.341 0.238,-0.685 0.34,-1.033 0.159,-0.618 0.283,-1.245 0.371,-1.877 l 3.092,-0.475 c 0.082,-0.844 0.11,-1.692 0.084,-2.539 m -2.092,8.361 c -0.484,0.992 -1.05,1.943 -1.691,2.842 l -2.893,-1.127 c -0.799,0.997 -1.708,1.902 -2.709,2.695 l 0.291,0.744 c 0.886,-0.729 1.696,-1.547 2.418,-2.439 l 2.893,1.127 c 0.804,-1.111 1.491,-2.301 2.051,-3.553 z M 6.12,31.873 5.757,32.164 c 0.561,1.25 1.25,2.439 2.055,3.549 l 2.91,-1.135 c 0.715,0.901 1.519,1.728 2.4,2.467 l 0.295,-0.758 C 12.42,35.488 11.515,34.579 10.722,33.578 l -2.91,1.135 C 7.171,33.815 6.605,32.865 6.121,31.873 m 24.09,6.928 c -1.188,0.465 -2.425,0.796 -3.688,0.984 l -0.475,3.102 c -1.363,0.138 -2.736,0.135 -4.098,-0.008 L 21.475,39.787 C 20.843,39.699 20.216,39.575 19.598,39.416 18.981,39.248 18.374,39.045 17.78,38.809 l -1.941,2.422 c -1.136,-0.513 -2.221,-1.132 -3.242,-1.848 l -0.311,0.797 c 1.111,0.804 2.301,1.491 3.553,2.051 l 1.941,-2.422 c 0.594,0.237 1.201,0.439 1.818,0.607 0.618,0.159 1.245,0.283 1.877,0.371 l 0.475,3.092 c 1.362,0.143 2.735,0.145 4.098,0.008 l 0.475,-3.102 c 1.262,-0.189 2.499,-0.519 3.688,-0.984 l 1.957,2.441 c 1.25,-0.561 2.439,-1.25 3.549,-2.055 l -0.311,-0.795 c -1.019,0.716 -2.104,1.335 -3.238,1.85 z"
      id="path35337" />
    <g
      style="stroke-linecap:round"
      id="g35343">
     <circle
       style="fill:url(#a)"
       cx="-29.393999"
       cy="-16.971001"
       r="13"
       transform="matrix(-0.96593,-0.25882,0.25882,-0.96593,0,0)"
       id="circle35339" />
     <circle
       style="fill:url(#c)"
       cx="-29.393999"
       cy="-16.971001"
       r="12"
       transform="matrix(-0.96593,-0.25882,0.25882,-0.96593,0,0)"
       id="circle35341" />
    </g>
    <path
      style="fill:url(#d)"
      d="m 24.17,24.21 c 2.858,3.724 3.309,8.175 1.01,9.942 -2.302,1.766 -6.965,0.288 -9.823,-3.437 -2.858,-3.724 -2.828,-8.284 -0.526,-10.05 2.302,-1.766 6.484,-0.179 9.342,3.546"
      id="path35345" />
   </g>
  </g>
  <path
    style="fill:#334545;fill-rule:evenodd"
    d="m 15,28 4,4 2,-6 z"
    id="path35351" />
 </g>
 <path
   style="display:inline;mix-blend-mode:normal;fill:url(#linearGradient3403);fill-opacity:1;stroke:url(#linearGradient20558);stroke-width:1.16242;stroke-linecap:butt;stroke-linejoin:round;stroke-miterlimit:4;stroke-dasharray:none;stroke-opacity:1"
   d="M 4.7043071,3.9814882 4.6913695,60.80196 H 58.59546 l 1.022155,-2.866369 c 0,0 -23.87537,0.766388 -32.844441,-4.140386 C 16.257548,48.042344 11.401114,4.0978197 11.401114,4.0978197 Z"
   id="path1686"
   transform="matrix(0.7518797,0,0,0.7518797,0.09970467,0.02488636)" />
 <rect
   style="display:inline;fill:none;fill-opacity:1;stroke:url(#linearGradient4557);stroke-width:3.71366;stroke-linejoin:round;stroke-miterlimit:7.8;stroke-dasharray:none;stroke-opacity:0.995146"
   id="rect4539"
   width="62.566689"
   height="62.866646"
   x="1.0323594"
   y="0.59551275"
   ry="6.2447233"
   rx="5.8029528"
   transform="matrix(0.70434793,0,0,0.70291231,1.3629847,1.5442064)" />
</svg>
