<?xml version="1.0" encoding="UTF-8" standalone="no"?>
<!-- Created with Inkscape (http://www.inkscape.org/) -->

<svg
  width="48"
  height="48"
  version="1.1"
  viewBox="0 0 48 48"
  id="svg22"
  xmlns:xlink="http://www.w3.org/1999/xlink"
  xmlns="http://www.w3.org/2000/svg"
  xmlns:svg="http://www.w3.org/2000/svg">
 <defs
   id="defs12">
  <linearGradient
    id="linearGradient917">
   <stop
     style="stop-color:#000000;stop-opacity:0.99607843"
     offset="0"
     id="stop913" />
   <stop
     style="stop-color:#353a3f;stop-opacity:0.99607843"
     offset="1"
     id="stop915" />
  </linearGradient>
  <linearGradient
    id="linearGradient1005-3-3"
    x1="5.2535"
    x2="9.3823996"
    y1="15.383"
    y2="2.9421"
    gradientTransform="matrix(0.99999,0,0,0.99999,1.632,-0.61743)"
    gradientUnits="userSpaceOnUse">
   <stop
     stop-color="#fa8200"
     offset="0"
     id="stop2" />
   <stop
     stop-color="#ff9600"
     offset=".36953"
     id="stop4" />
   <stop
     stop-color="#ffb400"
     offset="1"
     id="stop6" />
  </linearGradient>
  <filter
    id="filter4014"
    x="-0.062499932"
    y="-0.057692992"
    width="1.1249999"
    height="1.115386"
    color-interpolation-filters="sRGB">
   <feGaussianBlur
     stdDeviation="1.093751"
     id="feGaussianBlur9" />
  </filter>
  <linearGradient
    xlink:href="#linearGradient3487"
    id="linearGradient3403"
    gradientUnits="userSpaceOnUse"
    x1="6.9491749"
    y1="4.5549412"
    x2="11.215498"
    y2="59.052471" />
  <linearGradient
    id="linearGradient3487">
   <stop
     style="stop-color:#32373c;stop-opacity:1"
     offset="0"
     id="stop3481" />
   <stop
     id="stop3483"
     offset="0.36804965"
     style="stop-color:#1a1a1a;stop-opacity:1" />
   <stop
     style="stop-color:#31363b;stop-opacity:1"
     offset="1"
     id="stop3485" />
  </linearGradient>
  <linearGradient
    xlink:href="#linearGradient20604"
    id="linearGradient20558"
    gradientUnits="userSpaceOnUse"
    x1="25.802212"
    y1="20.373846"
    x2="25.111048"
    y2="58.912758" />
  <linearGradient
    id="linearGradient20604">
   <stop
     id="stop20598"
     offset="0"
     style="stop-color:#3d3d3d;stop-opacity:1" />
   <stop
     style="stop-color:#000000;stop-opacity:1"
     offset="0.61772454"
     id="stop20600" />
   <stop
     id="stop20602"
     offset="1"
     style="stop-color:#3d3d3d;stop-opacity:1" />
  </linearGradient>
  <linearGradient
    gradientTransform="translate(0.36067797,-0.13016949)"
    xlink:href="#linearGradient4555"
    id="linearGradient4557"
    x1="43.499737"
    y1="64.011795"
    x2="44.141731"
    y2="0.30621234"
    gradientUnits="userSpaceOnUse" />
  <linearGradient
    id="linearGradient4555">
   <stop
     style="stop-color:#141618;stop-opacity:1"
     offset="0"
     id="stop4551" />
   <stop
     id="stop4559"
     offset="0.51820582"
     style="stop-color:#686868;stop-opacity:1" />
   <stop
     style="stop-color:#31363b;stop-opacity:1"
     offset="1"
     id="stop4553" />
  </linearGradient>
  <filter
    style="color-interpolation-filters:sRGB"
    id="filter4601"
    x="-0.029678257"
    width="1.0593565"
    y="-0.029536653"
    height="1.0590733">
   <feGaussianBlur
     stdDeviation="1.6781133e-05"
     id="feGaussianBlur4603" />
  </filter>
  <linearGradient
    xlink:href="#linearGradient917"
    id="linearGradient919"
    x1="7.400631"
    y1="41.743092"
    x2="33.063145"
    y2="7.1074457"
    gradientUnits="userSpaceOnUse" />
 </defs>
 <rect
   style="display:inline;fill:url(#linearGradient919);fill-opacity:1;fill-rule:evenodd;stroke:none;stroke-width:0.92782;stroke-linejoin:round;stroke-miterlimit:7.8"
   id="rect1192"
   width="42.084602"
   height="42.712109"
   x="3.1629105"
   y="3.0184898"
   ry="0" />
 <path
   d="m 22.601827,9.3535863 c 0,-0.210526 0.0421,-0.421052 0.0842,-0.631578 0.92631,-0.168422 1.89473,-0.252632 2.82105,-0.252632 0.96842,-0.0421 1.89474,0.08421 2.82105,0.252632 0.0421,0.210526 0.0842,0.421052 0.0842,0.631578 0,1.5999997 -1.30526,2.9052637 -2.90526,2.9052637 -1.6,0 -2.90526,-1.305264 -2.90526,-2.9052637 z m 21.85263,20.7999997 c 0.16842,0.378948 0.29473,0.8 0.29473,1.263158 v 8.631579 c 0,1.810527 -1.47368,3.242106 -3.2421,3.242106 h -10.69474 c -1.68421,0.463157 -3.45263,0.715789 -5.30526,0.715789 -11.03158,0 -20,-8.968421 -20,-20 0,-11.031579 8.96842,-19.9999997 20,-19.9999997 11.03158,0 20,8.9684207 19.91579,20.0842107 0,2.105263 -0.33684,4.168421 -0.96842,6.063157 z m -18.90526,12.463158 c 0.63157,0 1.26315,-0.0421 1.89473,-0.08421 -0.71579,-0.589474 -1.13684,-1.473684 -1.13684,-2.484211 V 39.54306 c -0.25263,0.0421 -0.54737,0.0421 -0.8,0.0421 -8.58947,5e-6 -15.57895,-6.947363 -15.57895,-15.578942 0,-5.473684 2.86316,-10.526316 7.57895,-13.347368 -0.0842,0.547368 -0.16842,1.052631 -0.16842,1.6 0,3.242105 1.89474,6.063157 4.67368,7.368421 v 14.778947 l 3.49474,3.494737 0.8,-0.8 v -5.684211 c 0,-1.473684 1.01053,-2.736842 2.4,-3.115789 v -1.389474 c 0,-1.136842 0.29474,-2.189474 0.7579,-3.157895 l -0.67369,-0.673684 0.21053,-3.452631 c 2.73684,-1.305264 4.67368,-4.126316 4.67368,-7.368421 0,-0.547369 -0.0421,-1.052632 -0.16842,-1.6 4.37895,2.652631 7.15789,7.2 7.53684,12.252631 0.8,1.136842 1.30527,2.484211 1.30527,4 v 1.389474 c 0.42105,0.126316 0.79999,0.336842 1.13684,0.589474 0.42105,-1.557895 0.67368,-3.2 0.67368,-4.884211 0,-10.273684 -8.37895,-18.6526317 -18.65263,-18.6526317 -10.27368,0 -18.65263,8.3789477 -18.65263,18.6526317 0,10.273684 8.37895,18.652632 18.69474,18.610526 z M 43.528137,31.45885 c 0,-1.263158 -1.05263,-2.31579 -2.31579,-2.31579 v -2.063158 c 0,-3.157895 -2.56842,-5.726316 -5.72631,-5.726316 -3.1579,0 -5.72632,2.568421 -5.72632,5.684211 v 2.063158 c -1.26316,0 -2.31579,1.052631 -2.31579,2.315789 v 8.294737 c 0,1.263158 1.05263,2.31579 2.31579,2.31579 h 11.45263 c 1.26316,0 2.31579,-1.052632 2.31579,-2.31579 z m -20.33684,1.768421 h 1.17895 V 21.564113 h -1.17895 z m 12.33684,-9.221053 c -1.6,0 -2.86316,1.221053 -2.86316,2.694737 v 0 2.357895 h 5.76843 v -2.357895 0 c 0,-1.473684 -1.30527,-2.694737 -2.90527,-2.694737 z"
   id="path682"
   style="color:#ffffff;fill:currentColor;fill-opacity:1;stroke-width:0.421053"
   class="ColorScheme-Text" />
 <path
   style="display:inline;mix-blend-mode:normal;fill:url(#linearGradient3403);fill-opacity:1;stroke:url(#linearGradient20558);stroke-width:1.16242;stroke-linecap:butt;stroke-linejoin:round;stroke-miterlimit:4;stroke-dasharray:none;stroke-opacity:1"
   d="M 4.7043071,3.9814882 4.6913695,60.80196 H 58.59546 l 1.022155,-2.866369 c 0,0 -23.87537,0.766388 -32.844441,-4.140386 C 16.257548,48.042344 11.401114,4.0978197 11.401114,4.0978197 Z"
   id="path1686"
   transform="matrix(0.7518797,0,0,0.7518797,0.09970467,0.02488636)" />
 <rect
   style="display:inline;fill:none;fill-opacity:1;stroke:url(#linearGradient4557);stroke-width:3.71366;stroke-linejoin:round;stroke-miterlimit:7.8;stroke-dasharray:none;stroke-opacity:0.995146"
   id="rect4539"
   width="62.566689"
   height="62.866646"
   x="1.0323594"
   y="0.59551275"
   ry="6.2447233"
   rx="5.8029528"
   transform="matrix(0.70434793,0,0,0.70291231,1.3629847,1.5442064)" />
</svg>
