<?xml version="1.0" encoding="UTF-8" standalone="no"?>
<!-- Created with Inkscape (http://www.inkscape.org/) -->

<svg
  width="48"
  height="48"
  version="1.1"
  viewBox="0 0 48 48"
  id="svg22"
  xmlns:xlink="http://www.w3.org/1999/xlink"
  xmlns="http://www.w3.org/2000/svg"
  xmlns:svg="http://www.w3.org/2000/svg">
 <defs
   id="defs12">
  <linearGradient
    id="linearGradient1005-3-3"
    x1="5.2535"
    x2="9.3823996"
    y1="15.383"
    y2="2.9421"
    gradientTransform="matrix(0.99999,0,0,0.99999,1.632,-0.61743)"
    gradientUnits="userSpaceOnUse">
   <stop
     stop-color="#fa8200"
     offset="0"
     id="stop2" />
   <stop
     stop-color="#ff9600"
     offset=".36953"
     id="stop4" />
   <stop
     stop-color="#ffb400"
     offset="1"
     id="stop6" />
  </linearGradient>
  <filter
    id="filter4014"
    x="-0.062499932"
    y="-0.057692992"
    width="1.1249999"
    height="1.115386"
    color-interpolation-filters="sRGB">
   <feGaussianBlur
     stdDeviation="1.093751"
     id="feGaussianBlur9" />
  </filter>
  <linearGradient
    xlink:href="#linearGradient3487"
    id="linearGradient3403"
    gradientUnits="userSpaceOnUse"
    x1="6.9491749"
    y1="4.5549412"
    x2="11.215498"
    y2="59.052471" />
  <linearGradient
    id="linearGradient3487">
   <stop
     style="stop-color:#32373c;stop-opacity:1"
     offset="0"
     id="stop3481" />
   <stop
     id="stop3483"
     offset="0.36804965"
     style="stop-color:#1a1a1a;stop-opacity:1" />
   <stop
     style="stop-color:#31363b;stop-opacity:1"
     offset="1"
     id="stop3485" />
  </linearGradient>
  <linearGradient
    xlink:href="#linearGradient20604"
    id="linearGradient20558"
    gradientUnits="userSpaceOnUse"
    x1="25.802212"
    y1="20.373846"
    x2="25.111048"
    y2="58.912758" />
  <linearGradient
    id="linearGradient20604">
   <stop
     id="stop20598"
     offset="0"
     style="stop-color:#3d3d3d;stop-opacity:1" />
   <stop
     style="stop-color:#000000;stop-opacity:1"
     offset="0.61772454"
     id="stop20600" />
   <stop
     id="stop20602"
     offset="1"
     style="stop-color:#3d3d3d;stop-opacity:1" />
  </linearGradient>
  <linearGradient
    gradientTransform="translate(0.36067797,-0.13016949)"
    xlink:href="#linearGradient4555"
    id="linearGradient4557"
    x1="43.499737"
    y1="64.011795"
    x2="44.141731"
    y2="0.30621234"
    gradientUnits="userSpaceOnUse" />
  <linearGradient
    id="linearGradient4555">
   <stop
     style="stop-color:#141618;stop-opacity:1"
     offset="0"
     id="stop4551" />
   <stop
     id="stop4559"
     offset="0.51820582"
     style="stop-color:#686868;stop-opacity:1" />
   <stop
     style="stop-color:#31363b;stop-opacity:1"
     offset="1"
     id="stop4553" />
  </linearGradient>
  <filter
    style="color-interpolation-filters:sRGB"
    id="filter4601"
    x="-0.029684003"
    width="1.059368"
    y="-0.029542371"
    height="1.0590847">
   <feGaussianBlur
     stdDeviation="0.00016656212"
     id="feGaussianBlur4603" />
  </filter>
  <linearGradient
    gradientUnits="userSpaceOnUse"
    y2="5.1285472"
    x2="35.057411"
    y1="53.859512"
    x1="11.086592"
    id="linearGradient4587-3"
    xlink:href="#linearGradient4585"
    gradientTransform="translate(0.36135313,-0.12490449)" />
  <linearGradient
    id="linearGradient4585">
   <stop
     id="stop4581"
     offset="0"
     style="stop-color:#197ef1;stop-opacity:1" />
   <stop
     id="stop4583"
     offset="1"
     style="stop-color:#21c5fb;stop-opacity:1" />
  </linearGradient>
  <linearGradient
    id="b"
    y1="524.79999"
    y2="531.79999"
    x1="401.57001"
    gradientUnits="userSpaceOnUse"
    x2="408.57001"
    gradientTransform="matrix(1.42857,0,0,1.42265,-159.1,-232.81)">
   <stop
     stop-color="#292c2f"
     id="stop33654" />
   <stop
     offset="1"
     stop-opacity="0"
     id="stop33656" />
  </linearGradient>
  <linearGradient
    id="c"
    y1="532.78998"
    y2="514.79999"
    x2="0"
    gradientUnits="userSpaceOnUse">
   <stop
     stop-color="#7cbaf8"
     id="stop33659" />
   <stop
     offset="1"
     stop-color="#f4fcff"
     id="stop33661" />
  </linearGradient>
 </defs>
 <g
   id="g875"
   transform="matrix(0.65436499,0,0,0.65436499,3.6120432,2.5031927)">
  <rect
    y="0.60077608"
    x="1.033034"
    height="62.866646"
    width="62.567139"
    id="rect4539-1"
    style="opacity:1;fill:url(#linearGradient4587-3);fill-opacity:1;stroke:none;stroke-width:1.146;stroke-linejoin:round;stroke-miterlimit:7.8;stroke-dasharray:none;stroke-opacity:0.995146" />
  <g
    transform="matrix(1.33,0,0,1.33,-501.58269,-668.15477)"
    id="g33676">
   <g
     style="fill-rule:evenodd"
     id="g33672">
    <path
      style="fill:#313437"
      d="m 424.57,513.8 -10,-10 v 10 z"
      id="path33668" />
    <path
      style="opacity:0.2;fill:url(#b)"
      d="m 414.57,513.8 10,9.959 V 513.8 Z"
      id="path33670" />
   </g>
   <path
     style="fill:url(#c);stroke-width:1.3"
     d="m 406.56763,514.798 a 6.996204,6.996203 0 0 0 -6.9962,6.9962 6.996204,6.996203 0 0 0 6.9962,6.99621 6.996204,6.996203 0 0 0 4.18328,-1.39964 l 5.407,5.407 1.413,-1.413 -5.407,-5.407 a 6.996204,6.996203 0 0 0 1.39963,-4.18328 6.996204,6.996203 0 0 0 -6.99621,-6.9962 m 0,1.99892 a 4.997289,4.997288 0 0 1 4.99729,4.99728 4.997289,4.997288 0 0 1 -0.0254,0.49973 4.997289,4.997288 0 0 1 -0.80621,2.25269 4.997289,4.997288 0 0 1 -1.41329,1.41329 4.997289,4.997288 0 0 1 -0.38066,0.22644 4.997289,4.997288 0 0 1 -0.0488,0.0293 4.997289,4.997288 0 0 1 -0.01,0.004 4.997289,4.997288 0 0 1 -0.44312,0.20497 4.997289,4.997288 0 0 1 -0.43531,0.15227 4.997289,4.997288 0 0 1 -0.0371,0.0137 4.997289,4.997288 0 0 1 -0.006,0.002 4.997289,4.997288 0 0 1 -0.45483,0.10736 4.997289,4.997288 0 0 1 -0.0254,0.006 4.997289,4.997288 0 0 1 -0.004,0 4.997289,4.997288 0 0 1 -0.36698,0.0508 4.997289,4.997288 0 0 1 -0.14836,0.0195 4.997289,4.997288 0 0 1 -0.39237,0.0156 4.997289,4.997288 0 0 1 -4.99728,-4.99729 4.997289,4.997288 0 0 1 0.0254,-0.49973 4.997289,4.997288 0 0 1 2.27221,-3.70502 4.997289,4.997288 0 0 1 0.88819,-0.45288 4.997289,4.997288 0 0 1 1.81151,-0.33966"
     id="path33674" />
  </g>
 </g>
 <path
   style="display:inline;mix-blend-mode:normal;fill:url(#linearGradient3403);fill-opacity:1;stroke:url(#linearGradient20558);stroke-width:1.16242;stroke-linecap:butt;stroke-linejoin:round;stroke-miterlimit:4;stroke-dasharray:none;stroke-opacity:1"
   d="M 4.7043071,3.9814882 4.6913695,60.80196 H 58.59546 l 1.022155,-2.866369 c 0,0 -23.87537,0.766388 -32.844441,-4.140386 C 16.257548,48.042344 11.401114,4.0978197 11.401114,4.0978197 Z"
   id="path1686"
   transform="matrix(0.7518797,0,0,0.7518797,0.09970467,0.02488636)" />
 <rect
   style="display:inline;fill:none;fill-opacity:1;stroke:url(#linearGradient4557);stroke-width:3.71366;stroke-linejoin:round;stroke-miterlimit:7.8;stroke-dasharray:none;stroke-opacity:0.995146"
   id="rect4539"
   width="62.566689"
   height="62.866646"
   x="1.0323594"
   y="0.59551275"
   ry="6.2447233"
   rx="5.8029528"
   transform="matrix(0.70434793,0,0,0.70291231,1.3629847,1.5442064)" />
</svg>
