<?xml version="1.0" encoding="UTF-8" standalone="no"?>
<!-- Created with Inkscape (http://www.inkscape.org/) -->

<svg
  width="48"
  height="48"
  version="1.1"
  viewBox="0 0 48 48"
  id="svg22"
  xmlns:xlink="http://www.w3.org/1999/xlink"
  xmlns="http://www.w3.org/2000/svg"
  xmlns:svg="http://www.w3.org/2000/svg">
 <defs
   id="defs12">
  <linearGradient
    xlink:href="#linearGradient3487"
    id="linearGradient3403"
    gradientUnits="userSpaceOnUse"
    x1="6.9491749"
    y1="4.5549412"
    x2="11.215498"
    y2="59.052471" />
  <linearGradient
    id="linearGradient3487">
   <stop
     style="stop-color:#32373c;stop-opacity:1"
     offset="0"
     id="stop3481" />
   <stop
     id="stop3483"
     offset="0.36804965"
     style="stop-color:#1a1a1a;stop-opacity:1" />
   <stop
     style="stop-color:#31363b;stop-opacity:1"
     offset="1"
     id="stop3485" />
  </linearGradient>
  <linearGradient
    xlink:href="#linearGradient20604"
    id="linearGradient20558"
    gradientUnits="userSpaceOnUse"
    x1="25.802212"
    y1="20.373846"
    x2="25.111048"
    y2="58.912758" />
  <linearGradient
    id="linearGradient20604">
   <stop
     id="stop20598"
     offset="0"
     style="stop-color:#3d3d3d;stop-opacity:1" />
   <stop
     style="stop-color:#000000;stop-opacity:1"
     offset="0.61772454"
     id="stop20600" />
   <stop
     id="stop20602"
     offset="1"
     style="stop-color:#3d3d3d;stop-opacity:1" />
  </linearGradient>
  <filter
    style="color-interpolation-filters:sRGB"
    id="filter20720"
    x="-0.010581646"
    y="-0.010228867"
    width="1.0211628"
    height="1.0204578">
   <feGaussianBlur
     stdDeviation="2.3684395e-08"
     id="feGaussianBlur20722" />
  </filter>
  <linearGradient
    gradientTransform="translate(0.36067797,-0.13016949)"
    xlink:href="#linearGradient4555"
    id="linearGradient4557"
    x1="43.499737"
    y1="64.011795"
    x2="44.141731"
    y2="0.30621234"
    gradientUnits="userSpaceOnUse" />
  <linearGradient
    id="linearGradient4555">
   <stop
     style="stop-color:#141618;stop-opacity:1"
     offset="0"
     id="stop4551" />
   <stop
     id="stop4559"
     offset="0.51820582"
     style="stop-color:#686868;stop-opacity:1" />
   <stop
     style="stop-color:#31363b;stop-opacity:1"
     offset="1"
     id="stop4553" />
  </linearGradient>
  <filter
    style="color-interpolation-filters:sRGB"
    id="filter4601"
    x="-0.029677614"
    width="1.0593552"
    y="-0.029536013"
    height="1.059072">
   <feGaussianBlur
     stdDeviation="2.5308503e-08"
     id="feGaussianBlur4603" />
  </filter>
 </defs>
 <rect
   x="4"
   y="4"
   width="56"
   height="56"
   rx="2.516855"
   ry="2.3457396"
   stroke-width="3.7795"
   id="rect24"
   style="display:inline;fill:#353535;fill-opacity:1"
   transform="matrix(0.74040621,0,0,0.73906725,1.5436865,-0.12656417)" />
 <g
   id="g1"
   transform="translate(0,0.79438699)">
  <g
    id="g3"
    transform="matrix(0.87304063,0,0,0.87304063,6.3256037,0.44382387)">
   <path
     style="opacity:0.2"
     d="m 39.953125,6.0527344 c -0.293001,-0.00432 -0.62883,0.025377 -1.011719,0.09375 L 17.138672,10.439453 C 13.909968,10.76111 14,13 14,14 V 28.265625 C 13.347214,28.093036 12.675205,28.003785 12,28 c -4.418278,0 -8,3.581722 -8,8 0,4.418278 3.581722,8 8,8 4.418278,0 8,-3.581722 8,-8 V 15.929688 l 16,-3.257813 v 10.59375 C 35.347214,23.093036 34.675205,23.003785 34,23 c -4.418278,0 -8,3.581722 -8,8 0,4.418278 2.081281,6.499559 6.499559,6.499559 4.418278,0 4.911434,-4.840579 8,-8 L 42,27.964695 V 8.5996094 c 2.54e-4,-0.875 0.0041,-2.5166422 -2.046875,-2.546875 z"
     id="path1" />
   <path
     style="fill:#ddf6f8;fill-opacity:1"
     d="m 39.953125,5.0527344 c -0.293001,-0.00432 -0.62883,0.025377 -1.011719,0.09375 L 17.138672,9.4394531 C 13.909968,9.7611104 14,12 14,13 V 27.265625 C 13.347214,27.093036 12.675205,27.003785 12,27 c -4.418278,0 -8,3.581722 -8,8 0,4.418278 3.581722,8 8,8 4.418278,0 8,-3.581722 8,-8 V 14.929688 l 16,-3.257813 v 10.59375 C 35.347214,22.093036 34.675205,22.003785 34,22 c -4.418278,0 -8,3.581722 -8,8 0,4.418278 2.081281,6.499559 6.499559,6.499559 4.418278,0 4.881313,-4.870308 8,-8 L 42,26.993822 V 7.5996094 c 2.54e-4,-0.875 0.0041,-2.5166422 -2.046875,-2.546875 z"
     id="path2" />
   <path
     style="opacity:0.2;fill:#ffffff"
     d="m 39.953125,5.0527344 c -0.293001,-0.00432 -0.62883,0.025377 -1.011719,0.09375 L 17.138672,9.4394531 C 13.909968,9.7611104 14,12 14,13 v 1 c 0,-1 -0.09003,-3.23889 3.138672,-3.560547 L 38.941406,6.1464844 c 0.382889,-0.068373 0.718718,-0.09807 1.011719,-0.09375 C 42.0041,6.0829672 42.000254,7.7246094 42,8.5996094 v -1 c 2.54e-4,-0.875 0.0041,-2.5166422 -2.046875,-2.546875 z M 34,22 a 8,8 0 0 0 -8,8 8,8 0 0 0 0.02148,0.423828 A 8,8 0 0 1 34,23 a 8,8 0 0 1 2,0.265625 v -1 A 8,8 0 0 0 34,22 Z M 12,27 A 8,8 0 0 0 4,35 8,8 0 0 0 4.0214844,35.423828 8,8 0 0 1 12,28 a 8,8 0 0 1 2,0.265625 v -1 A 8,8 0 0 0 12,27 Z"
     id="path3" />
  </g>
  <path
    style="opacity:0.2;stroke-width:0.873041"
    d="M 46.556189,19.158614 C 44.373587,15.37826 35.504368,16.506316 33.554868,17.592204 l -15.87799,9.166927 c -0.837735,0.483664 -1.12273,1.547464 -0.639109,2.385234 l 6.111284,10.584745 c 0.483664,0.837735 1.547464,1.122817 2.385147,0.639109 l 15.87799,-9.166926 c 1.234218,-0.73937 7.326819,-8.262544 5.144217,-12.042723 z m -3.0243,1.746081 a 1.7460813,1.7460813 0 0 1 -0.639109,2.385147 1.7460813,1.7460813 0 0 1 -2.385235,-0.639109 1.7460813,1.7460813 0 0 1 0.63911,-2.385235 1.7460813,1.7460813 0 0 1 2.385234,0.63911 z"
    id="path4" />
  <path
    fill="#f6dd79"
    d="M 46.556189,18.285283 C 44.373587,14.50493 35.504368,15.632986 33.554868,16.718874 L 17.676878,25.8858 c -0.837735,0.483665 -1.12273,1.547465 -0.639109,2.385235 l 6.111284,10.584744 c 0.483664,0.837735 1.547464,1.122818 2.385147,0.63911 l 15.87799,-9.166927 c 1.234218,-0.739369 7.326819,-8.262544 5.144217,-12.042722 z m -3.0243,1.746081 a 1.7460813,1.7460813 0 0 1 -0.639109,2.385147 1.7460813,1.7460813 0 0 1 -2.385235,-0.639109 1.7460813,1.7460813 0 0 1 0.63911,-2.385234 1.7460813,1.7460813 0 0 1 2.385234,0.639109 z"
    id="path5"
    style="fill:#79aef6;fill-opacity:1;stroke-width:0.873041" />
  <path
    opacity="0.2"
    d="m 43.531103,20.904405 a 1.7460813,1.7460813 0 0 0 -2.385234,-0.639109 1.7460813,1.7460813 0 0 0 -0.639109,2.385234 1.7460813,1.7460813 0 0 0 2.385234,0.639109 1.7460813,1.7460813 0 0 0 0.639109,-2.385147 z m -0.75607,0.43652 c 0.246249,0.426524 0.106965,0.946376 -0.319559,1.192574 -0.426524,0.24625 -0.946377,0.106965 -1.192574,-0.31955 -0.24625,-0.426524 -0.106965,-0.946376 0.31955,-1.192574 0.426524,-0.24625 0.946376,-0.106965 1.192574,0.319559 z"
    id="path6"
    style="stroke-width:0.873041" />
  <path
    fill="#ffffff"
    d="m 43.531103,20.031364 a 1.7460813,1.7460813 0 0 0 -2.385234,-0.639109 1.7460813,1.7460813 0 0 0 -0.639109,2.385234 1.7460813,1.7460813 0 0 0 2.385234,0.63911 1.7460813,1.7460813 0 0 0 0.639109,-2.385147 z m -0.75607,0.436521 c 0.246249,0.426524 0.106965,0.946376 -0.319559,1.192573 -0.426524,0.24625 -0.946377,0.106965 -1.192574,-0.31955 -0.24625,-0.426524 -0.106965,-0.946376 0.31955,-1.192574 0.426524,-0.246249 0.946376,-0.106965 1.192574,0.319559 z"
    id="path7"
    style="stroke-width:0.873041" />
  <path
    style="opacity:0.3;stroke-width:0.873041"
    d="m 19.422959,28.910188 0.873041,1.512106 1.512193,-0.873041 3.492163,6.048601 1.512194,-0.873041 -3.492163,-6.0486 1.512194,-0.873041 -0.873041,-1.512106 -1.512193,0.87304 -1.512194,0.873041 z m 6.0486,-3.492163 0.873041,1.512107 0.873041,1.512193 0.87304,1.512194 1.746081,3.0243 1.512194,-0.873041 -1.746081,-3.0243 1.512194,-0.87304 1.746081,3.0243 1.512194,-0.873041 -4.365204,-7.560794 -3.0243,1.746082 -1.512193,0.87304 z m 6.0486,-3.492162 0.873041,1.512106 3.492163,6.0486 1.512106,-0.873041 3.0243,-1.746081 -0.873041,-1.512193 -0.43652,-0.75608 0.756071,-0.43652 -0.873041,-1.512107 -3.0243,1.746082 0.873041,1.512106 0.75607,-0.43652 0.436521,0.756079 -1.512194,0.873041 -2.619122,-4.536494 3.0243,-1.746081 -0.873041,-1.512107 -4.536493,2.619122 z m -3.663453,4.131228 1.512194,-0.873041 0.873041,1.512194 -1.512194,0.873041 z"
    id="path8" />
  <g
    transform="matrix(0.75607938,-0.43652032,0.43652032,0.75607938,5.0802113,18.036467)"
    id="g10">
   <g
     transform="rotate(90,23.5,23.5)"
     id="g9">
    <path
      fill="#ffffff"
      opacity="0.2"
      transform="matrix(0.5,-0.86603,0.86603,0.5,-18.597,35.28)"
      d="m 39.109,19.264 c -3.1315,-0.06277 -6.2292,0.5695 -7.3457,1.1914 l -18.188,10.5 c -0.79268,0.45765 -1.1444,1.3689 -0.93359,2.2129 0.13261,-0.49311 0.45439,-0.93622 0.93359,-1.2129 l 18.188,-10.5 c 2.234,-1.244 12.393,-2.535 14.893,1.795 0.29345,0.50827 0.45122,1.0767 0.50781,1.6836 0.076,-0.986 -0.058,-1.906 -0.508,-2.684 -1.25,-2.1651 -4.4154,-2.9236 -7.5469,-2.9863 z"
      id="path9" />
   </g>
  </g>
 </g>
 <path
   style="display:inline;mix-blend-mode:normal;fill:url(#linearGradient3403);fill-opacity:1;stroke:url(#linearGradient20558);stroke-width:1.16242;stroke-linecap:butt;stroke-linejoin:round;stroke-miterlimit:4;stroke-dasharray:none;stroke-opacity:1"
   d="M 4.7043071,3.9814882 4.6913695,60.80196 H 58.59546 l 1.022155,-2.866369 c 0,0 -23.87537,0.766388 -32.844441,-4.140386 C 16.257548,48.042344 11.401114,4.0978197 11.401114,4.0978197 Z"
   id="path1686"
   transform="matrix(0.74455909,0,0,0.74321262,0.48500704,0.3479564)" />
 <rect
   style="display:inline;fill:none;fill-opacity:1;stroke:url(#linearGradient4557);stroke-width:3.71366;stroke-linejoin:round;stroke-miterlimit:7.8;stroke-dasharray:none;stroke-opacity:0.995146"
   id="rect4539"
   width="62.566689"
   height="62.866646"
   x="1.0323594"
   y="0.59551275"
   ry="6.2447233"
   rx="5.8029528"
   transform="matrix(0.69749011,0,0,0.69480969,1.7359872,1.8497629)" />
</svg>
