<?xml version="1.0" encoding="UTF-8" standalone="no"?>
<!-- Created with Inkscape (http://www.inkscape.org/) -->

<svg
  width="48"
  height="48"
  version="1.1"
  viewBox="0 0 48 48"
  id="svg22"
  xmlns:xlink="http://www.w3.org/1999/xlink"
  xmlns="http://www.w3.org/2000/svg"
  xmlns:svg="http://www.w3.org/2000/svg">
 <defs
   id="defs12">
  <linearGradient
    id="linearGradient1005-3-3"
    x1="5.2535"
    x2="9.3823996"
    y1="15.383"
    y2="2.9421"
    gradientTransform="matrix(0.99999,0,0,0.99999,1.632,-0.61743)"
    gradientUnits="userSpaceOnUse">
   <stop
     stop-color="#fa8200"
     offset="0"
     id="stop2" />
   <stop
     stop-color="#ff9600"
     offset=".36953"
     id="stop4" />
   <stop
     stop-color="#ffb400"
     offset="1"
     id="stop6" />
  </linearGradient>
  <filter
    id="filter4014"
    x="-0.062499932"
    y="-0.057692992"
    width="1.1249999"
    height="1.115386"
    color-interpolation-filters="sRGB">
   <feGaussianBlur
     stdDeviation="1.093751"
     id="feGaussianBlur9" />
  </filter>
  <linearGradient
    xlink:href="#linearGradient3487"
    id="linearGradient3403"
    gradientUnits="userSpaceOnUse"
    x1="6.9491749"
    y1="4.5549412"
    x2="11.215498"
    y2="59.052471" />
  <linearGradient
    id="linearGradient3487">
   <stop
     style="stop-color:#32373c;stop-opacity:1"
     offset="0"
     id="stop3481" />
   <stop
     id="stop3483"
     offset="0.36804965"
     style="stop-color:#1a1a1a;stop-opacity:1" />
   <stop
     style="stop-color:#31363b;stop-opacity:1"
     offset="1"
     id="stop3485" />
  </linearGradient>
  <linearGradient
    xlink:href="#linearGradient20604"
    id="linearGradient20558"
    gradientUnits="userSpaceOnUse"
    x1="25.802212"
    y1="20.373846"
    x2="25.111048"
    y2="58.912758" />
  <linearGradient
    id="linearGradient20604">
   <stop
     id="stop20598"
     offset="0"
     style="stop-color:#3d3d3d;stop-opacity:1" />
   <stop
     style="stop-color:#000000;stop-opacity:1"
     offset="0.61772454"
     id="stop20600" />
   <stop
     id="stop20602"
     offset="1"
     style="stop-color:#3d3d3d;stop-opacity:1" />
  </linearGradient>
  <linearGradient
    gradientTransform="translate(0.36067797,-0.13016949)"
    xlink:href="#linearGradient4555"
    id="linearGradient4557"
    x1="43.499737"
    y1="64.011795"
    x2="44.141731"
    y2="0.30621234"
    gradientUnits="userSpaceOnUse" />
  <linearGradient
    id="linearGradient4555">
   <stop
     style="stop-color:#141618;stop-opacity:1"
     offset="0"
     id="stop4551" />
   <stop
     id="stop4559"
     offset="0.51820582"
     style="stop-color:#686868;stop-opacity:1" />
   <stop
     style="stop-color:#31363b;stop-opacity:1"
     offset="1"
     id="stop4553" />
  </linearGradient>
  <filter
    style="color-interpolation-filters:sRGB"
    id="filter4601"
    x="-0.029730464"
    width="1.0594609"
    y="-0.029588611"
    height="1.0591772">
   <feGaussianBlur
     stdDeviation="0.0013777911"
     id="feGaussianBlur4603" />
  </filter>
  <linearGradient
    xlink:href="#linearGradient4266"
    id="linearGradient4272"
    x1="35"
    y1="44"
    x2="19"
    y2="3"
    gradientUnits="userSpaceOnUse"
    gradientTransform="matrix(1.05,0,0,1.05,-1.2,-1.2)" />
  <linearGradient
    id="linearGradient4266">
   <stop
     style="stop-color:#c6cdd1;stop-opacity:1"
     offset="0"
     id="stop30092" />
   <stop
     style="stop-color:#e0e5e7;stop-opacity:1"
     offset="1"
     id="stop30094" />
  </linearGradient>
  <linearGradient
    xlink:href="#linearGradient4217"
    id="linearGradient4229"
    x1="21"
    y1="21"
    x2="31"
    y2="31"
    gradientUnits="userSpaceOnUse" />
  <linearGradient
    id="linearGradient4217">
   <stop
     style="stop-color:#000000;stop-opacity:1;"
     offset="0"
     id="stop30087" />
   <stop
     style="stop-color:#000000;stop-opacity:0;"
     offset="1"
     id="stop30089" />
  </linearGradient>
  <linearGradient
    xlink:href="#linearGradient4172"
    id="linearGradient4171"
    gradientUnits="userSpaceOnUse"
    x1="-16"
    y1="12"
    x2="-8.6639996"
    y2="9.7440004"
    gradientTransform="translate(-12,12)" />
  <linearGradient
    id="linearGradient4172">
   <stop
     offset="0"
     style="stop-color:#bf4231;stop-opacity:1"
     id="stop30082" />
   <stop
     offset="1"
     style="stop-color:#e05e4c;stop-opacity:1"
     id="stop30084" />
  </linearGradient>
  <linearGradient
    xlink:href="#linearGradient4217"
    id="linearGradient4225"
    x1="9.2460003"
    y1="33.122002"
    x2="18"
    y2="41.875"
    gradientUnits="userSpaceOnUse"
    gradientTransform="translate(-2,2)" />
  <linearGradient
    xlink:href="#linearGradient4172"
    id="linearGradient4183"
    gradientUnits="userSpaceOnUse"
    gradientTransform="translate(-25.999998,-22.000002)"
    x1="-16"
    y1="12"
    x2="-8.6639996"
    y2="13.192" />
  <linearGradient
    xlink:href="#linearGradient4217"
    id="linearGradient4223"
    x1="34"
    y1="9"
    x2="43"
    y2="18"
    gradientUnits="userSpaceOnUse"
    gradientTransform="translate(2,-2.000281)" />
  <linearGradient
    xlink:href="#linearGradient4172"
    id="linearGradient4181"
    gradientUnits="userSpaceOnUse"
    x1="-16"
    y1="12"
    x2="-8.6639996"
    y2="13.988"
    gradientTransform="translate(2.000281,-50)" />
  <linearGradient
    xlink:href="#linearGradient4217"
    id="linearGradient4451"
    gradientUnits="userSpaceOnUse"
    x1="21"
    y1="21"
    x2="31"
    y2="31"
    gradientTransform="translate(-7,7)" />
  <linearGradient
    xlink:href="#linearGradient4172"
    id="linearGradient4453"
    gradientUnits="userSpaceOnUse"
    gradientTransform="translate(-19,5)"
    x1="-16"
    y1="12"
    x2="-8.6639996"
    y2="9.7440004" />
  <linearGradient
    xlink:href="#linearGradient4217"
    id="linearGradient4461"
    gradientUnits="userSpaceOnUse"
    x1="21"
    y1="21"
    x2="31"
    y2="31"
    gradientTransform="translate(7,-7)" />
  <linearGradient
    xlink:href="#linearGradient4172"
    id="linearGradient4463"
    gradientUnits="userSpaceOnUse"
    gradientTransform="translate(-5,19)"
    x1="-16"
    y1="12"
    x2="-8.6639996"
    y2="9.7440004" />
 </defs>
 <g
   id="g897"
   transform="matrix(0.99340855,0,0,0.9978423,1.4554581,-1.0307273)">
  <rect
    style="opacity:1;fill:url(#linearGradient4272);fill-opacity:1;stroke:none;stroke-width:2;stroke-linecap:round;stroke-linejoin:round;stroke-miterlimit:4;stroke-dasharray:none;stroke-opacity:1"
    width="42"
    height="42"
    x="3"
    y="3"
    rx="2.0999999"
    ry="2.0999999"
    id="rect30110" />
  <path
    style="opacity:1;fill:#d4ba94;fill-opacity:1;stroke:none;stroke-width:2;stroke-linecap:round;stroke-linejoin:round;stroke-miterlimit:4;stroke-dasharray:none;stroke-opacity:0"
    d="m 10,3 -7,7 7,7 7,-7 z m 7,7 7,7 7,-7 -7,-7 z m 14,0 7,7 7,-7 -7,-7 z m 7,7 -7,7 7,7 7,-7 z m 0,14 -7,7 7,7 7,-7 z m -7,7 -7,-7 -7,7 7,7 z m -14,0 -7,-7 -7,7 7,7 z m -7,-7 7,-7 -7,-7 -7,7 z m 7,-7 7,7 7,-7 -7,-7 z"
    id="path30112" />
  <path
    style="opacity:0.3;fill:url(#linearGradient4229);fill-opacity:1;stroke:none;stroke-width:2;stroke-linecap:round;stroke-linejoin:round;stroke-miterlimit:4;stroke-dasharray:none;stroke-opacity:0"
    d="m 26.519531,20.908203 -2.515625,0.488281 -3.017578,3.19336 -0.05664,1.966797 L 38.373047,44 H 42 c 1.108,0 2,-0.892 2,-2 v -3.611328 z"
    id="path30114" />
  <rect
    style="fill:url(#linearGradient4171);fill-opacity:1;stroke:none"
    width="8"
    height="8"
    x="-28"
    y="20"
    transform="rotate(-90)"
    ry="4"
    rx="4"
    id="rect30116" />
  <path
    style="opacity:0.3;fill:url(#linearGradient4225);fill-opacity:1;stroke:none;stroke-width:2;stroke-linecap:round;stroke-linejoin:round;stroke-miterlimit:4;stroke-dasharray:none;stroke-opacity:0"
    d="M 12.367188,34.75 9.8515625,35.238281 6.8339844,38.431641 6.7773438,40.398438 11.378906,45 h 11.238282 z"
    id="path30118" />
  <rect
    rx="4"
    ry="4"
    transform="matrix(0,-1,-1,0,0,0)"
    y="-14"
    x="-42"
    height="8"
    width="8"
    style="fill:url(#linearGradient4183);fill-opacity:1;stroke:none"
    id="rect30120" />
  <path
    style="opacity:0.3;fill:url(#linearGradient4223);fill-opacity:1;stroke:none;stroke-width:2;stroke-linecap:round;stroke-linejoin:round;stroke-miterlimit:4;stroke-dasharray:none;stroke-opacity:0"
    d="M 40.513672,6.8886719 37.998047,7.3769531 34.980469,10.570312 34.923828,12.537109 45,22.613281 V 11.375 Z"
    id="path30122" />
  <rect
    style="fill:url(#linearGradient4181);fill-opacity:1;stroke:none"
    width="8"
    height="8"
    x="-14"
    y="-42"
    transform="matrix(0,-1,-1,0,0,0)"
    ry="4"
    rx="4"
    id="rect30124" />
  <path
    style="opacity:0.3;fill:url(#linearGradient4451);fill-opacity:1;stroke:none;stroke-width:2;stroke-linecap:round;stroke-linejoin:round;stroke-miterlimit:4;stroke-dasharray:none;stroke-opacity:0"
    d="m 19.519531,27.908203 -2.515625,0.488281 -3.017578,3.19336 -0.05664,1.966797 L 25.373047,45 h 11.238281 z"
    id="path30128" />
  <rect
    rx="4"
    ry="4"
    transform="rotate(-90)"
    y="13"
    x="-35"
    height="8"
    width="8"
    style="fill:url(#linearGradient4453);fill-opacity:1;stroke:none"
    id="rect30130" />
  <path
    style="opacity:0.3;fill:url(#linearGradient4461);fill-opacity:1;stroke:none;stroke-width:2;stroke-linecap:round;stroke-linejoin:round;stroke-miterlimit:4;stroke-dasharray:none;stroke-opacity:0"
    d="m 33.519531,13.908203 -2.515625,0.488281 -3.017578,3.19336 -0.05664,1.966797 L 45,36.626953 V 25.388672 Z"
    id="path30132" />
  <rect
    style="fill:url(#linearGradient4463);fill-opacity:1;stroke:none"
    width="8"
    height="8"
    x="-21"
    y="27"
    transform="rotate(-90)"
    ry="4"
    rx="4"
    id="rect30134" />
 </g>
 <path
   style="display:inline;mix-blend-mode:normal;fill:url(#linearGradient3403);fill-opacity:1;stroke:url(#linearGradient20558);stroke-width:1.16242;stroke-linecap:butt;stroke-linejoin:round;stroke-miterlimit:4;stroke-dasharray:none;stroke-opacity:1"
   d="M 4.7043071,3.9814882 4.6913695,60.80196 H 58.59546 l 1.022155,-2.866369 c 0,0 -23.87537,0.766388 -32.844441,-4.140386 C 16.257548,48.042344 11.401114,4.0978197 11.401114,4.0978197 Z"
   id="path1686"
   transform="matrix(0.7518797,0,0,0.7518797,0.09970467,0.02488636)" />
 <rect
   style="display:inline;fill:none;fill-opacity:1;stroke:url(#linearGradient4557);stroke-width:3.71366;stroke-linejoin:round;stroke-miterlimit:7.8;stroke-dasharray:none;stroke-opacity:0.995146"
   id="rect4539"
   width="62.566689"
   height="62.866646"
   x="1.0323594"
   y="0.59551275"
   ry="6.2447233"
   rx="5.8029528"
   transform="matrix(0.70434793,0,0,0.70291231,1.3629847,1.5442064)" />
</svg>
