<?xml version="1.0" encoding="UTF-8" standalone="no"?>
<!-- Created with Inkscape (http://www.inkscape.org/) -->

<svg
  width="48"
  height="48"
  version="1.1"
  viewBox="0 0 48 48"
  id="svg22"
  xmlns:xlink="http://www.w3.org/1999/xlink"
  xmlns="http://www.w3.org/2000/svg"
  xmlns:svg="http://www.w3.org/2000/svg">
 <defs
   id="defs12">
  <linearGradient
    xlink:href="#linearGradient3487"
    id="linearGradient3403"
    gradientUnits="userSpaceOnUse"
    x1="6.9491749"
    y1="4.5549412"
    x2="11.215498"
    y2="59.052471" />
  <linearGradient
    id="linearGradient3487">
   <stop
     style="stop-color:#32373c;stop-opacity:1"
     offset="0"
     id="stop3481" />
   <stop
     id="stop3483"
     offset="0.36804965"
     style="stop-color:#1a1a1a;stop-opacity:1" />
   <stop
     style="stop-color:#31363b;stop-opacity:1"
     offset="1"
     id="stop3485" />
  </linearGradient>
  <linearGradient
    xlink:href="#linearGradient20604"
    id="linearGradient20558"
    gradientUnits="userSpaceOnUse"
    x1="25.802212"
    y1="20.373846"
    x2="25.111048"
    y2="58.912758" />
  <linearGradient
    id="linearGradient20604">
   <stop
     id="stop20598"
     offset="0"
     style="stop-color:#3d3d3d;stop-opacity:1" />
   <stop
     style="stop-color:#000000;stop-opacity:1"
     offset="0.61772454"
     id="stop20600" />
   <stop
     id="stop20602"
     offset="1"
     style="stop-color:#3d3d3d;stop-opacity:1" />
  </linearGradient>
  <filter
    style="color-interpolation-filters:sRGB"
    id="filter20720"
    x="-0.010581934"
    y="-0.010229146"
    width="1.0211634"
    height="1.0204583">
   <feGaussianBlur
     stdDeviation="6.6340747e-06"
     id="feGaussianBlur20722" />
  </filter>
  <linearGradient
    gradientTransform="translate(0.36067797,-0.13016949)"
    xlink:href="#linearGradient4555"
    id="linearGradient4557"
    x1="43.499737"
    y1="64.011795"
    x2="44.141731"
    y2="0.30621234"
    gradientUnits="userSpaceOnUse" />
  <linearGradient
    id="linearGradient4555">
   <stop
     style="stop-color:#141618;stop-opacity:1"
     offset="0"
     id="stop4551" />
   <stop
     id="stop4559"
     offset="0.51820582"
     style="stop-color:#686868;stop-opacity:1" />
   <stop
     style="stop-color:#31363b;stop-opacity:1"
     offset="1"
     id="stop4553" />
  </linearGradient>
  <filter
    style="color-interpolation-filters:sRGB"
    id="filter4601"
    x="-0.029677885"
    width="1.0593558"
    y="-0.029536283"
    height="1.0590726">
   <feGaussianBlur
     stdDeviation="7.0889925e-06"
     id="feGaussianBlur4603" />
  </filter>
  <linearGradient
    xlink:href="#linearGradient1"
    id="linearGradient24"
    x1="-9.7863646"
    y1="-1.8894"
    x2="-4.9803853"
    y2="2.7576001"
    gradientUnits="userSpaceOnUse" />
  <linearGradient
    id="linearGradient1">
   <stop
     style="stop-color:#ffff00;stop-opacity:1"
     offset="0"
     id="stop23" />
   <stop
     style="stop-color:#ffe680;stop-opacity:1"
     offset="1"
     id="stop24" />
  </linearGradient>
  <linearGradient
    id="sunrise"
    x1="0"
    x2="0"
    y1="0"
    y2="1">
   <stop
     offset="0%"
     style="stop-color: #FF8501; stop-opacity:1"
     id="stop11" />
   <stop
     offset="100%"
     style="stop-color: #FFCB01; stop-opacity:1"
     id="stop12" />
  </linearGradient>
 </defs>
 <rect
   style="fill:#c2352a;fill-opacity:1"
   width="40"
   x="388.57001"
   y="503.79999"
   rx="0"
   height="40"
   id="rect8656"
   transform="matrix(1.0224038,0,0,1.0272979,-392.88143,-514.71623)" />
 <path
   opacity="0.2"
   d="m 27.296547,9.3493983 c -0.260047,0.2293672 -0.325056,0.5734241 -0.325056,0.9748197 0,0.74544 0.260048,1.662883 0.390065,2.006915 0,0 0.195039,4.013957 0.260047,4.472666 -0.585103,0.0574 -1.62528,0.114678 -2.015382,0.229367 h -0.520095 c -1.105211,0.0574 -2.145376,0.114678 -2.600474,0.516086 l -0.195039,0.172028 0.195039,0.229367 c 0.325056,0.344045 0.455073,1.318852 0.585103,2.351073 0.325057,2.121718 0.715109,4.759421 2.665471,5.791517 l 0.390077,0.172029 V 25.86387 c 0,0 0.06512,-0.172028 0.06512,-0.401395 0,-0.172029 -0.06512,-0.458735 -0.130005,-0.86013 0.520082,0.0574 1.62528,0.172028 2.015383,0.172028 0.06599,0.460702 1.756891,19.153982 1.756891,19.153982 h 0.650113 c 0,0 0.715133,-18.464174 0.715133,-19.036939 0.455061,0 2.470481,0.0574 3.055573,0.114678 -0.129993,0.344057 -0.6501,1.777561 -0.6501,1.777561 l 0.910147,-0.74544 c 0.260047,-0.172029 5.916031,-4.702021 5.135952,-7.683881 -0.26006,-0.974807 -1.170208,-1.662884 -2.665471,-2.006916 h -0.130241 c -0.845139,0 -3.44555,0.0574 -5.395937,0.172029 0.06512,-1.49093 0.06512,-2.293672 0.06512,-2.695105 v -0.516011 c 0,-0.286718 0.325056,-0.688113 0.585103,-0.974819 0.26006,-0.344057 0.585104,-0.630763 0.585104,-0.974808 0,-0.114677 -0.06512,-0.229379 -0.12998,-0.344057 -0.390076,-0.516072 -3.25056,-1.8349612 -4.485738,-1.9496385 -0.390077,0.057401 -0.650125,0.1146773 -0.780142,0.2867058 z m 0.06512,9.4040407 h 0.325056 c 0,0.516073 0.195039,4.128633 0.260048,4.644744 -0.520095,-0.0574 -1.755274,-0.172029 -2.145376,-0.172029 -0.195038,-0.745452 -0.260047,-1.548206 -0.325056,-2.351072 -0.06487,-0.688102 -0.130005,-1.376253 -0.260047,-2.006916 0.585103,0 2.145375,-0.114677 2.145375,-0.114677 z m 3.96577,1.777561 c 0,0 0.06487,-1.376253 0.06487,-1.834962 0.845139,0.114677 1.950387,0.172028 2.990576,0.172028 h 1.17022 c 0,0.229367 -0.06512,0.516073 -0.06512,0.516073 -0.129992,1.261576 -0.325056,2.752381 -0.910172,4.243311 -0.390052,0 -2.795463,-0.114677 -3.315558,-0.172028 0,-0.401396 0.06512,-2.924459 0.06512,-2.924459 z"
   id="path1"
   style="stroke-width:1.24514" />
 <path
   fill="#ffffff"
   d="m 27.296547,8.1042588 c -0.260047,0.2293671 -0.325056,0.5734241 -0.325056,0.9748197 0,0.7454402 0.260048,1.6628835 0.390065,2.0069155 0,0 0.195039,4.013956 0.260047,4.472666 -0.585103,0.0574 -1.62528,0.114677 -2.015382,0.229367 h -0.520095 c -1.105211,0.0574 -2.145376,0.114677 -2.600474,0.516085 l -0.195039,0.172029 0.195039,0.229367 c 0.325056,0.344044 0.455073,1.318852 0.585103,2.351072 0.325057,2.121718 0.715109,4.759422 2.665471,5.791518 l 0.390077,0.172028 v -0.401395 c 0,0 0.06512,-0.172029 0.06512,-0.401396 0,-0.172028 -0.06512,-0.458734 -0.130005,-0.86013 0.520082,0.0574 1.62528,0.172029 2.015383,0.172029 0.06512,0.458734 1.755273,19.152736 1.755273,19.152736 h 0.650112 c 0,0 0.715133,-18.464174 0.715133,-19.036938 0.455062,0 2.470482,0.0574 3.055573,0.114677 -0.129993,0.344057 -0.6501,1.777561 -0.6501,1.777561 l 0.910147,-0.74544 c 0.260048,-0.172028 5.916032,-4.70202 5.135952,-7.683881 -0.26006,-0.974807 -1.170207,-1.662883 -2.66547,-2.006915 h -0.130242 c -0.845138,0 -3.44555,0.0574 -5.395937,0.172028 0.06512,-1.49093 0.06512,-2.293672 0.06512,-2.695105 v -0.51601 c 0,-0.286719 0.325056,-0.688114 0.585104,-0.97482 0.260059,-0.344056 0.585103,-0.630762 0.585103,-0.974807 0,-0.1146771 -0.06512,-0.2293794 -0.12998,-0.3440567 -0.390077,-0.516073 -3.250561,-1.8349622 -4.48574,-1.9496395 -0.390077,0.057401 -0.650124,0.1146773 -0.780142,0.2867058 z m 0.06512,9.4040402 h 0.325056 c 0,0.516073 0.195039,4.128634 0.260048,4.644744 -0.520095,-0.0574 -1.755274,-0.172028 -2.145376,-0.172028 -0.195038,-0.745453 -0.260047,-1.548207 -0.325056,-2.351073 -0.06487,-0.688101 -0.130005,-1.376253 -0.260047,-2.006916 0.585103,0 2.145375,-0.114677 2.145375,-0.114677 z m 3.96577,1.777561 c 0,0 0.06487,-1.376252 0.06487,-1.834962 0.845139,0.114678 1.950387,0.172029 2.990576,0.172029 h 1.17022 c 0,0.229367 -0.06512,0.516073 -0.06512,0.516073 -0.129992,1.261575 -0.325056,2.752381 -0.910172,4.243311 -0.390052,0 -2.795463,-0.114678 -3.315558,-0.172029 0,-0.401395 0.06512,-2.924459 0.06512,-2.924459 z"
   id="path2"
   style="stroke-width:1.24514" />
 <path
   style="display:inline;mix-blend-mode:normal;fill:url(#linearGradient3403);fill-opacity:1;stroke:url(#linearGradient20558);stroke-width:1.16242;stroke-linecap:butt;stroke-linejoin:round;stroke-miterlimit:4;stroke-dasharray:none;stroke-opacity:1"
   d="M 4.7043071,3.9814882 4.6913695,60.80196 H 58.59546 l 1.022155,-2.866369 c 0,0 -23.87537,0.766388 -32.844441,-4.140386 C 16.257548,48.042344 11.401114,4.0978197 11.401114,4.0978197 Z"
   id="path1686"
   transform="matrix(0.7518797,0,0,0.7518797,0.09970467,0.02488636)" />
 <rect
   style="display:inline;fill:none;fill-opacity:1;stroke:url(#linearGradient4557);stroke-width:3.71366;stroke-linejoin:round;stroke-miterlimit:7.8;stroke-dasharray:none;stroke-opacity:0.995146"
   id="rect4539"
   width="62.566689"
   height="62.866646"
   x="1.0323594"
   y="0.59551275"
   ry="6.2447233"
   rx="5.8029528"
   transform="matrix(0.70434793,0,0,0.70291231,1.3629847,1.5442064)" />
</svg>
