<?xml version="1.0" encoding="UTF-8" standalone="no"?>
<!-- Created with Inkscape (http://www.inkscape.org/) -->

<svg
   width="48"
   height="48"
   version="1.1"
   viewBox="0 0 48 48"
   id="svg22"
   sodipodi:docname="kmahjongg.svg"
   inkscape:version="1.1.2 (0a00cf5339, 2022-02-04)"
   xmlns:inkscape="http://www.inkscape.org/namespaces/inkscape"
   xmlns:sodipodi="http://sodipodi.sourceforge.net/DTD/sodipodi-0.dtd"
   xmlns:xlink="http://www.w3.org/1999/xlink"
   xmlns="http://www.w3.org/2000/svg"
   xmlns:svg="http://www.w3.org/2000/svg">
  <sodipodi:namedview
     id="namedview24"
     pagecolor="#ffffff"
     bordercolor="#666666"
     borderopacity="1.0"
     inkscape:showpageshadow="2"
     inkscape:pageopacity="0.0"
     inkscape:pagecheckerboard="0"
     inkscape:deskcolor="#d1d1d1"
     showgrid="false"
     inkscape:zoom="10.4"
     inkscape:cx="-8.75"
     inkscape:cy="32.548077"
     inkscape:window-width="3440"
     inkscape:window-height="1359"
     inkscape:window-x="0"
     inkscape:window-y="0"
     inkscape:window-maximized="1"
     inkscape:current-layer="svg22"
     inkscape:pageshadow="2" />
  <defs
     id="defs12">
    <linearGradient
       inkscape:collect="always"
       id="linearGradient917">
      <stop
         style="stop-color:#000000;stop-opacity:0.99607843"
         offset="0"
         id="stop913" />
      <stop
         style="stop-color:#353a3f;stop-opacity:0.99607843"
         offset="1"
         id="stop915" />
    </linearGradient>
    <linearGradient
       id="linearGradient1005-3-3"
       x1="5.2535"
       x2="9.3823996"
       y1="15.383"
       y2="2.9421"
       gradientTransform="matrix(0.99999,0,0,0.99999,1.632,-0.61743)"
       gradientUnits="userSpaceOnUse">
      <stop
         stop-color="#fa8200"
         offset="0"
         id="stop2" />
      <stop
         stop-color="#ff9600"
         offset=".36953"
         id="stop4" />
      <stop
         stop-color="#ffb400"
         offset="1"
         id="stop6" />
    </linearGradient>
    <filter
       id="filter4014"
       x="-0.062499932"
       y="-0.057692992"
       width="1.1249999"
       height="1.115386"
       color-interpolation-filters="sRGB">
      <feGaussianBlur
         stdDeviation="1.093751"
         id="feGaussianBlur9" />
    </filter>
    <linearGradient
       inkscape:collect="always"
       xlink:href="#linearGradient3487"
       id="linearGradient3403"
       gradientUnits="userSpaceOnUse"
       x1="6.9491749"
       y1="4.5549412"
       x2="11.215498"
       y2="59.052471" />
    <linearGradient
       id="linearGradient3487">
      <stop
         style="stop-color:#32373c;stop-opacity:1"
         offset="0"
         id="stop3481" />
      <stop
         id="stop3483"
         offset="0.36804965"
         style="stop-color:#1a1a1a;stop-opacity:1" />
      <stop
         style="stop-color:#31363b;stop-opacity:1"
         offset="1"
         id="stop3485" />
    </linearGradient>
    <linearGradient
       inkscape:collect="always"
       xlink:href="#linearGradient20604"
       id="linearGradient20558"
       gradientUnits="userSpaceOnUse"
       x1="25.802212"
       y1="20.373846"
       x2="25.111048"
       y2="58.912758" />
    <linearGradient
       id="linearGradient20604">
      <stop
         id="stop20598"
         offset="0"
         style="stop-color:#3d3d3d;stop-opacity:1" />
      <stop
         style="stop-color:#000000;stop-opacity:1"
         offset="0.61772454"
         id="stop20600" />
      <stop
         id="stop20602"
         offset="1"
         style="stop-color:#3d3d3d;stop-opacity:1" />
    </linearGradient>
    <filter
       inkscape:collect="always"
       style="color-interpolation-filters:sRGB"
       id="filter20720"
       x="-0.017024755"
       y="-0.016457183"
       width="1.0340491"
       height="1.0329144">
      <feGaussianBlur
         inkscape:collect="always"
         stdDeviation="0.14745661"
         id="feGaussianBlur20722" />
    </filter>
    <linearGradient
       gradientTransform="translate(0.36067797,-0.13016949)"
       xlink:href="#linearGradient4555"
       id="linearGradient4557"
       x1="43.499737"
       y1="64.011795"
       x2="44.141731"
       y2="0.30621234"
       gradientUnits="userSpaceOnUse" />
    <linearGradient
       id="linearGradient4555">
      <stop
         style="stop-color:#141618;stop-opacity:1"
         offset="0"
         id="stop4551" />
      <stop
         id="stop4559"
         offset="0.51820582"
         style="stop-color:#686868;stop-opacity:1" />
      <stop
         style="stop-color:#31363b;stop-opacity:1"
         offset="1"
         id="stop4553" />
    </linearGradient>
    <filter
       style="color-interpolation-filters:sRGB"
       id="filter4601"
       x="-0.030244955"
       width="1.0604899"
       y="-0.030100647"
       height="1.0602013">
      <feGaussianBlur
         stdDeviation="0.014790289"
         id="feGaussianBlur4603" />
    </filter>
    <linearGradient
       inkscape:collect="always"
       xlink:href="#linearGradient917"
       id="linearGradient919"
       x1="7.400631"
       y1="41.743092"
       x2="33.063145"
       y2="7.1074457"
       gradientUnits="userSpaceOnUse" />
    <linearGradient
       inkscape:collect="always"
       xlink:href="#linearGradient3286"
       id="linearGradient16987"
       gradientUnits="userSpaceOnUse"
       gradientTransform="matrix(0.90176,0,0,0.90176,12.830189,8.792453)"
       x1="78.849602"
       y1="16.027075"
       x2="43.563725"
       y2="96.220436" />
    <linearGradient
       id="linearGradient3286">
      <stop
         style="stop-color:#600b01;stop-opacity:1;"
         offset="0"
         id="stop3288" />
      <stop
         id="stop3296"
         offset="0.05720339"
         style="stop-color:#9f1701;stop-opacity:1;" />
      <stop
         style="stop-color:#6d0d00;stop-opacity:1;"
         offset="0.43245476"
         id="stop3298" />
      <stop
         id="stop3294"
         offset="0.5"
         style="stop-color:#9f1701;stop-opacity:1;" />
      <stop
         style="stop-color:#6d0d00;stop-opacity:1;"
         offset="0.61419129"
         id="stop3300" />
      <stop
         id="stop3302"
         offset="0.94915253"
         style="stop-color:#540800;stop-opacity:1;" />
      <stop
         style="stop-color:#3b0300;stop-opacity:1"
         offset="1"
         id="stop3290" />
    </linearGradient>
    <filter
       inkscape:collect="always"
       id="filter17025"
       x="-0.11266472"
       width="1.2253294"
       y="-0.10230283"
       height="1.2046057">
      <feGaussianBlur
         inkscape:collect="always"
         stdDeviation="3.5377989"
         id="feGaussianBlur17027" />
    </filter>
    <linearGradient
       inkscape:collect="always"
       xlink:href="#linearGradient3286"
       id="linearGradient16790"
       gradientUnits="userSpaceOnUse"
       x1="78.849602"
       y1="16.027075"
       x2="43.563725"
       y2="96.220436"
       gradientTransform="matrix(0.8272432,0,0,0.90176,16.032182,6.7924528)" />
    <linearGradient
       inkscape:collect="always"
       xlink:href="#linearGradient3464"
       id="linearGradient16787"
       gradientUnits="userSpaceOnUse"
       x1="76.406433"
       y1="87.774971"
       x2="28.61768"
       y2="38.874859"
       gradientTransform="matrix(0.8272432,0,0,0.90176,16.032182,6.7924528)" />
    <linearGradient
       inkscape:collect="always"
       id="linearGradient3464">
      <stop
         style="stop-color:#600b01;stop-opacity:1;"
         offset="0"
         id="stop3466" />
      <stop
         style="stop-color:#600b01;stop-opacity:0;"
         offset="1"
         id="stop3468" />
    </linearGradient>
    <radialGradient
       inkscape:collect="always"
       xlink:href="#linearGradient3596"
       id="radialGradient16784"
       gradientUnits="userSpaceOnUse"
       gradientTransform="matrix(0.2231846,-0.3352725,0.2303132,0.1821836,45.292935,92.314499)"
       cx="71.397865"
       cy="88.997154"
       fx="71.397865"
       fy="88.997154"
       r="41.786453" />
    <linearGradient
       id="linearGradient3596"
       inkscape:collect="always">
      <stop
         id="stop3598"
         offset="0"
         style="stop-color:#9f1701;stop-opacity:1" />
      <stop
         id="stop3600"
         offset="1"
         style="stop-color:#9f1701;stop-opacity:0" />
    </linearGradient>
    <radialGradient
       inkscape:collect="always"
       xlink:href="#linearGradient3486"
       id="radialGradient16781"
       gradientUnits="userSpaceOnUse"
       gradientTransform="matrix(0,0.3321518,-1.188088,0,166.6296,20.54515)"
       cx="208.50966"
       cy="106.87013"
       fx="208.50966"
       fy="106.87013"
       r="41.786453" />
    <linearGradient
       inkscape:collect="always"
       id="linearGradient3486">
      <stop
         style="stop-color:#0c0000;stop-opacity:1"
         offset="0"
         id="stop3488" />
      <stop
         style="stop-color:#3b0300;stop-opacity:0;"
         offset="1"
         id="stop3490" />
    </linearGradient>
    <radialGradient
       inkscape:collect="always"
       xlink:href="#linearGradient3464"
       id="radialGradient16778"
       gradientUnits="userSpaceOnUse"
       gradientTransform="matrix(0.6230354,0.2948853,-0.5293376,1.3289474,63.718069,-36.094862)"
       cx="62.57476"
       cy="56.654064"
       fx="62.57476"
       fy="56.654064"
       r="32.273457" />
    <linearGradient
       inkscape:collect="always"
       xlink:href="#linearGradient3486"
       id="linearGradient16775"
       gradientUnits="userSpaceOnUse"
       x1="83.572906"
       y1="44.366917"
       x2="69.402992"
       y2="46.033966"
       gradientTransform="matrix(0.8272432,0,0,0.90176,16.032182,6.7924528)" />
    <linearGradient
       inkscape:collect="always"
       xlink:href="#linearGradient3286"
       id="linearGradient16841"
       gradientUnits="userSpaceOnUse"
       gradientTransform="matrix(0.8272432,0,0,0.90176,4.0630072,-1.1824872)"
       x1="53.26244"
       y1="8.8552914"
       x2="21.69101"
       y2="90.266426" />
    <filter
       inkscape:collect="always"
       id="filter19243"
       x="-0.013150549"
       y="-0.011120992"
       width="1.0263011"
       height="1.022242">
      <feGaussianBlur
         inkscape:collect="always"
         stdDeviation="0.35112687"
         id="feGaussianBlur19245" />
    </filter>
    <filter
       inkscape:collect="always"
       id="filter19251"
       x="-0.013186403"
       y="-0.011151313"
       width="1.0263728"
       height="1.0223026">
      <feGaussianBlur
         inkscape:collect="always"
         stdDeviation="0.35208422"
         id="feGaussianBlur19253" />
    </filter>
    <radialGradient
       inkscape:collect="always"
       xlink:href="#linearGradient3286"
       id="radialGradient16836"
       gradientUnits="userSpaceOnUse"
       gradientTransform="matrix(0.0092187,0.901704,-1.4264506,0.01732918,50.984842,-12.024229)"
       cx="85.843369"
       cy="-8.9043465"
       fx="85.843369"
       fy="-8.9043465"
       r="35" />
    <radialGradient
       inkscape:collect="always"
       xlink:href="#linearGradient3331"
       id="radialGradient20816"
       gradientUnits="userSpaceOnUse"
       gradientTransform="matrix(0,2.1008005,-1.7609368,0,52.830344,-30.654682)"
       cx="19.309795"
       cy="20.236214"
       fx="19.309795"
       fy="20.236214"
       r="29.265625" />
    <linearGradient
       id="linearGradient3331">
      <stop
         style="stop-color:#ffebf2;stop-opacity:1;"
         offset="0"
         id="stop3333" />
      <stop
         style="stop-color:#fe005d;stop-opacity:0;"
         offset="1"
         id="stop3335" />
    </linearGradient>
    <filter
       inkscape:collect="always"
       id="filter20877"
       x="-0.027595994"
       y="-0.021471533"
       width="1.055192"
       height="1.0429431">
      <feGaussianBlur
         inkscape:collect="always"
         stdDeviation="0.6068963"
         id="feGaussianBlur20879" />
    </filter>
    <linearGradient
       inkscape:collect="always"
       xlink:href="#linearGradient3331"
       id="linearGradient16979"
       gradientUnits="userSpaceOnUse"
       x1="23.824764"
       y1="11.478929"
       x2="25.351994"
       y2="15.086097" />
    <filter
       inkscape:collect="always"
       id="filter16939"
       x="-0.028942901"
       y="-0.046725492"
       width="1.0578858"
       height="1.093451">
      <feGaussianBlur
         inkscape:collect="always"
         stdDeviation="0.70230257"
         id="feGaussianBlur16941" />
    </filter>
    <linearGradient
       inkscape:collect="always"
       xlink:href="#linearGradient3464"
       id="linearGradient16762"
       gradientUnits="userSpaceOnUse"
       spreadMethod="reflect"
       x1="70.849594"
       y1="41.931114"
       x2="72.238808"
       y2="41.931114"
       gradientTransform="matrix(0.8272432,0,0,0.90176,16.032182,6.7924528)" />
    <linearGradient
       inkscape:collect="always"
       xlink:href="#linearGradient3464"
       id="linearGradient16759"
       gradientUnits="userSpaceOnUse"
       gradientTransform="matrix(0.90176,0,0,0.8272432,-146.07554,16.740702)"
       spreadMethod="reflect"
       x1="70.849594"
       y1="41.931114"
       x2="72.238808"
       y2="41.931114" />
    <radialGradient
       inkscape:collect="always"
       xlink:href="#linearGradient3596"
       id="radialGradient16756"
       gradientUnits="userSpaceOnUse"
       gradientTransform="matrix(1.9622241,1.288743e-7,-1.3104814e-7,2.356819,-82.90595,-109.64684)"
       cx="87.171638"
       cy="84.320442"
       fx="87.171638"
       fy="84.320442"
       r="35.224953" />
    <filter
       inkscape:collect="always"
       id="filter20766"
       x="-0.028127721"
       y="-0.020928725"
       width="1.0562554"
       height="1.0418575">
      <feGaussianBlur
         inkscape:collect="always"
         stdDeviation="0.49516509"
         id="feGaussianBlur20768" />
    </filter>
    <linearGradient
       inkscape:collect="always"
       xlink:href="#linearGradient3331"
       id="linearGradient148043"
       gradientUnits="userSpaceOnUse"
       x1="23.824764"
       y1="11.478929"
       x2="25.351994"
       y2="15.086097" />
    <linearGradient
       inkscape:collect="always"
       xlink:href="#linearGradient3331"
       id="linearGradient148045"
       gradientUnits="userSpaceOnUse"
       x1="23.824764"
       y1="11.478929"
       x2="25.351994"
       y2="15.086097" />
  </defs>
  <rect
     style="display:inline;fill:url(#linearGradient919);fill-opacity:1;fill-rule:evenodd;stroke:none;stroke-width:0.92782;stroke-linejoin:round;stroke-miterlimit:7.8"
     id="rect1192"
     width="42.084602"
     height="42.712109"
     x="3.1629105"
     y="3.0184898"
     ry="0"
     inkscape:label="arriere" />
  <g
     id="g956"
     transform="matrix(0.45786395,0,0,0.45786395,4.0820384,0.63189956)">
    <path
       sodipodi:nodetypes="ccccccccccc"
       id="path16985"
       d="M 24.02186,12.629332 76.017578,8.959655 c 1.676751,-0.905279 6.031682,2.435004 10.001242,3.669677 1.07916,0.438456 2.17407,0.969636 2.17407,2.174072 V 89.62793 c 0,1.20443 -0.96963,2.17407 -2.17407,2.17407 H 22.21834 c -1.204435,0 -2.349039,-1.596 -3.351225,-2.42462 -5.020582,-4.83745 -5.950305,-4.37758 -6.036926,-6.99469 l 7.21408,-67.579286 c 0,-1.204436 2.773156,-2.174072 3.977591,-2.174072 z"
       style="fill:url(#linearGradient16987);fill-opacity:1;fill-rule:nonzero;stroke:none;stroke-width:1;stroke-linecap:butt;stroke-linejoin:round;stroke-miterlimit:4;stroke-dashoffset:0;stroke-opacity:1;filter:url(#filter17025)"
       transform="matrix(0.9433497,0,0,1,3.9288277,0)" />
    <path
       style="fill:url(#linearGradient16790);fill-opacity:1;fill-rule:nonzero;stroke:none;stroke-width:1;stroke-linecap:butt;stroke-linejoin:round;stroke-miterlimit:4;stroke-dashoffset:0;stroke-opacity:1"
       d="M 26.299031,10.629332 73.998088,6.9596554 c 1.538193,-0.9052792 5.533259,2.4350032 9.174792,3.6696766 0.989986,0.438456 1.994417,0.969636 1.994417,2.174072 v 74.824523 c 0,1.204436 -0.88951,2.174071 -1.994417,2.174071 H 24.644544 c -1.104906,0 -2.154926,-1.596001 -3.074297,-2.424618 -4.605707,-4.837447 -5.458602,-4.37758 -5.538065,-6.994685 l 6.617945,-67.579291 c 0,-1.204436 2.543997,-2.174072 3.648904,-2.174072 z"
       id="rect3429"
       sodipodi:nodetypes="ccccccccccc" />
    <path
       sodipodi:nodetypes="ccccccccc"
       id="path3442"
       d="m 73.998088,6.9596554 c 1.538193,-0.9052792 5.533259,2.4350032 9.174792,3.6696766 0.989986,0.438456 1.994417,0.969636 1.994417,2.174072 v 74.824523 c 0,1.204436 -0.88951,2.174071 -1.994417,2.174071 H 24.644544 c -1.104906,0 -2.154926,-1.596001 -3.074297,-2.424618 -4.605707,-4.837447 -5.458602,-4.37758 -5.538065,-6.994685 z"
       style="fill:url(#linearGradient16787);fill-opacity:1;fill-rule:nonzero;stroke:none;stroke-width:1;stroke-linecap:butt;stroke-linejoin:round;stroke-miterlimit:4;stroke-dashoffset:0;stroke-opacity:1" />
    <path
       sodipodi:nodetypes="ccccccccc"
       id="path3586"
       d="m 72.668648,7.3139815 c 1.538192,-0.9052792 5.533259,0.6314832 9.174792,1.8661567 0.989986,0.4384561 1.994417,0.9696358 1.994417,2.1740718 v 74.824523 c 0,1.204436 -0.88951,2.174071 -1.994417,2.174071 H 23.315104 c -1.104906,0 -2.154926,-1.596001 -3.074297,-2.424618 -4.605707,-4.837447 -3.804116,-4.37758 -3.883579,-6.994685 z"
       style="fill:url(#radialGradient16784);fill-opacity:1;fill-rule:nonzero;stroke:none;stroke-width:1;stroke-linecap:butt;stroke-linejoin:round;stroke-miterlimit:4;stroke-dashoffset:0;stroke-opacity:1" />
    <path
       sodipodi:nodetypes="ccccccccc"
       id="path3494"
       d="m 73.998088,6.9596554 c 1.538193,-0.9052792 5.533259,2.4350032 9.174792,3.6696766 0.989986,0.438456 1.994417,0.969636 1.994417,2.174072 v 74.824523 c 0,1.204436 -0.88951,2.174071 -1.994417,2.174071 H 24.644544 c -1.104906,0 -2.154926,-1.596001 -3.074297,-2.424618 -4.605707,-4.837447 -5.458602,-4.37758 -5.538065,-6.994685 z"
       style="fill:url(#radialGradient16781);fill-opacity:1;fill-rule:nonzero;stroke:none;stroke-width:1;stroke-linecap:butt;stroke-linejoin:round;stroke-miterlimit:4;stroke-dashoffset:0;stroke-opacity:1" />
    <path
       style="fill:url(#radialGradient16778);fill-opacity:1;fill-rule:nonzero;stroke:none;stroke-width:1px;stroke-linecap:butt;stroke-linejoin:miter;stroke-opacity:1"
       d="m 72.90515,15.781873 c -4.156032,0.957122 4.356178,6.278135 -0.252424,3.963782 -0.941398,-1.040227 -4.627017,-0.717438 -1.962937,0.566074 3.4815,1.079941 7.152194,2.568456 8.766009,6.44824 1.83286,1.857742 1.904312,6.912864 4.533839,6.850078 0.2402,-2.963567 -2.208442,-5.619489 -3.319472,-8.2792 -1.533178,-3.210564 1.882338,2.502963 2.279834,3.609849 0.957412,1.356426 2.592562,6.899624 2.229532,2.475162 1.008572,-2.483484 -3.363631,-5.475492 -1.909598,-6.902109 2.197128,1.093203 2.145856,-0.798743 0.107881,-0.993523 -3.516302,-0.373024 -3.899274,-5.886885 -7.431787,-6.81881 -1.516808,0.334305 -1.853316,0.146159 -3.040877,-0.919543 z m 1.292567,1.74716 c 1.741553,0.588937 4.590656,3.612799 4.304458,4.477842 -1.536454,-1.371436 -2.92459,-2.925207 -4.304458,-4.477842 z m -2.972905,16.0626 c -2.254816,-0.257167 -1.938261,1.533541 0.05134,1.316506 2.764801,1.402577 4.618358,4.264665 6.101392,7.066903 -2.726372,-1.797308 -5.431734,-6.600722 -8.940262,-4.976192 2.590721,1.80876 5.382859,3.826698 7.914022,6.051688 1.374941,0.568753 4.756133,4.48168 1.385059,2.859137 -3.824984,-1.448515 -7.143835,-4.043794 -10.496736,-6.449175 -3.323388,0.269324 1.995469,3.043696 2.909209,3.869406 3.093998,2.272114 6.628892,3.756163 10.253206,4.661707 -1.470259,1.388204 -4.831069,-1.261911 -7.013035,-1.265108 -1.248927,-0.860501 -4.386803,0.23272 -1.334484,0.785678 4.054989,1.039319 8.056433,2.374172 12.10118,3.329987 2.114479,0.294882 0.995252,-4.039029 -0.948301,-3.620884 -2.925633,-2.770694 -3.859133,-7.19452 -6.710662,-10.078676 -1.328974,-1.747837 -3.02749,-3.595976 -5.271928,-3.550977 z m 11.839918,15.52718 c 0.733576,0.142739 -0.116884,0.469995 0,0 z m -15.872729,0.67632 c -2.870892,1.667126 4.29889,1.486882 5.696541,1.822317 4.122158,0.43855 8.231724,1.081854 12.270147,2.094703 -1.159094,-2.664044 -4.961662,-1.265168 -7.217048,-2.299378 -3.587888,-0.499694 -7.187741,-0.9205 -10.74964,-1.617642 z m -4.627391,5.26966 c -0.76663,2.271829 4.08122,2.401194 5.411005,3.914851 3.67693,1.89265 7.41028,3.733764 11.36652,4.820949 0.187073,2.011929 2.942333,5.241906 1.938497,6.279453 -4.527685,-1.58313 -8.715654,-4.186896 -12.411083,-7.41857 -3.306715,-0.166155 1.138154,2.9223 2.212744,3.655807 4.301024,3.094021 9.268859,4.756093 14.076396,6.64181 0.571084,-1.548896 -1.821009,-1.664039 -0.999635,-3.159718 -1.327722,-2.009564 -3.677785,-6.610498 0.477533,-5.639792 1.024941,-1.337163 -4.094548,-0.0086 -4.076322,-2.45268 -1.124523,-2.312804 -5.76382,-5.120495 -6.757172,-2.910261 1.373063,0.448681 4.811539,2.602733 3.938343,3.292194 -5.172014,-1.679412 -9.807127,-4.863148 -14.777524,-7.011027 -0.131514,-0.03025 -0.266412,-0.0052 -0.399302,-0.01302 z m 6.747202,11.30018 c -2.993754,1.302774 2.85721,1.669627 3.438229,3.15616 4.986304,3.674332 8.675141,8.954515 12.408648,14.00546 0.769727,-4.033914 -3.028956,-6.237686 -4.899521,-9.11266 -2.963126,-3.318219 -6.249829,-6.820685 -10.454341,-8.051475 l -0.493015,0.0025 z m -16.829228,6.4814 c -1.712282,1.017158 -1.181697,5.050578 -3.533428,2.206276 -1.837303,-2.006791 -3.170461,0.633808 -1.096821,1.900402 0.522915,2.044832 0.08143,3.980368 1.620589,5.885183 1.530649,2.289281 2.40296,6.200403 4.891125,6.972499 1.975946,0.292924 3.123403,-0.0188 1.624435,-2.061122 -1.364824,-3.226893 1.918158,1.701039 3.063311,1.81254 1.414991,0.910028 3.629917,-0.05994 1.137776,-1.088562 -2.495853,-1.561667 -4.324318,-4.071822 -6.22456,-6.376445 -1.495492,-1.581716 -1.037101,-4.775983 1.430154,-3.020026 3.68296,1.360662 7.407311,2.636544 10.410224,5.505723 3.163528,2.020773 6.326255,4.31878 9.946528,5.227892 1.321042,0.223369 3.02243,-0.155591 0.776546,-0.626715 -3.319814,-0.787297 -5.692469,-3.496926 -8.335254,-5.566109 -3.169166,-2.402652 -7.044621,-3.437708 -9.878154,-6.384561 -1.916603,-1.3777 -3.662025,-3.63624 -5.832471,-4.386975 z m -20.50012,0.8454 c -0.545545,2.701762 3.892408,3.546386 5.191871,5.614624 4.382739,3.585644 8.837811,7.064785 13.317695,10.504336 3.973967,0.420372 -1.167168,-2.092243 -2.135825,-3.208554 C 43.069622,82.521426 37.969951,78.135045 32.809414,73.89092 32.564923,73.696164 32.265773,73.738637 31.982464,73.691773 Z m 21.198106,0.92994 c 1.24066,1.210736 4.60672,3.396531 4.464305,3.977578 -1.771539,-0.719875 -5.878847,-0.656035 -4.464305,-3.977578 z m 7.031567,0 c -1.170516,1.41854 1.997775,3.097085 2.741744,4.110484 5.762512,3.171717 10.672751,7.848864 16.406528,11.078536 4.133228,0.351363 -1.304964,-1.834982 -2.383222,-2.828028 -2.182267,-1.423675 -4.323099,-2.924348 -6.398659,-4.526952 2.49875,-1.255744 -2.890695,-2.169856 -3.75126,-3.042255 -2.331727,-1.37336 -4.16852,-3.63254 -6.615131,-4.791785 z m -9.926918,2.90254 c 1.470121,0.126261 0.652849,1.935039 0,0 z m 0.02585,2.62074 c 1.30488,0.747005 2.924431,5.366369 2.393806,4.53947 -0.811118,-1.504751 -1.639345,-2.999516 -2.393806,-4.53947 z"
       id="path3502" />
    <path
       style="fill:url(#linearGradient16775);fill-opacity:1;fill-rule:nonzero;stroke:none;stroke-width:1;stroke-linecap:butt;stroke-linejoin:round;stroke-miterlimit:4;stroke-dashoffset:0;stroke-opacity:1"
       d="m 73.998088,6.9596554 c 1.538193,-0.9052792 5.533259,2.4350032 9.174792,3.6696766 0.989986,0.438456 1.994417,0.969636 1.994417,2.174072 v 74.824523 c 0,1.204436 -0.88951,2.174071 -1.994417,2.174071 H 24.644544 c -1.104906,0 -2.154926,-1.596001 -3.074297,-2.424618 -4.605707,-4.837447 -5.458602,-4.37758 -5.538065,-6.994685 z"
       id="path3484"
       sodipodi:nodetypes="ccccccccc" />
    <rect
       style="fill:url(#linearGradient16841);fill-opacity:1;fill-rule:nonzero;stroke:none;stroke-width:1;stroke-linecap:butt;stroke-linejoin:round;stroke-miterlimit:4;stroke-dasharray:none;stroke-dashoffset:0;stroke-opacity:1"
       id="rect2160"
       width="58.782513"
       height="75.76342"
       x="16.033913"
       y="6.8028603"
       rx="2.4109206"
       ry="2.4109206" />
    <path
       style="fill:#3b0300;fill-opacity:0.518072;fill-rule:nonzero;stroke:none;stroke-width:1px;stroke-linecap:butt;stroke-linejoin:miter;stroke-opacity:1;filter:url(#filter19243)"
       d="m 24.975769,6.7924528 c -0.256761,0.2879347 -0.440775,0.7513365 -0.53542,1.46536 7.760423,2.4461982 15.981031,3.4806552 23.84028,5.7487202 2.157734,0.617312 8.68418,2.996626 3.0998,2.45166 -12.956295,-1.616898 -25.987407,-3.98282 -38.21208,-8.6794402 -0.220982,0.3404874 -0.33816,0.7738886 -0.33816,1.21174 v 0.64814 c 3.730764,1.0847952 8.294721,0.8586362 11.4129,3.3252402 5.785258,2.488642 12.200188,4.238702 17.02072,8.39764 -7.303053,-1.852859 -14.504144,-4.636129 -21.95222,-6.17142 -1.484444,-0.967994 -4.217936,-2.522755 -6.4814,-3.32524 v 2.22622 c 9.465364,3.513127 17.948653,9.423491 27.27824,13.30096 8.636429,4.418878 17.087863,9.29456 24.77022,15.24538 -3.379562,-4.407899 -8.884193,-6.320334 -13.2446,-9.55302 -9.785336,-5.802828 -20.109289,-10.616827 -29.98352,-16.25986 5.799887,-0.08451 10.883037,3.350623 16.4853,4.39608 10.656964,3.47191 18.608132,11.644317 27.53186,18.00702 3.741796,2.842531 7.479582,5.669079 11.24382,8.48218 v -0.7045 c -1.667802,-1.159639 -3.286647,-2.381081 -4.76242,-3.77612 -7.633561,-5.713822 -15.166601,-11.563921 -22.62854,-17.49978 9.008828,3.120658 17.132258,8.842037 26.74282,10.11662 0.176119,0.183602 0.409242,0.326136 0.64814,0.45088 v -1.2681 c -9.639814,-1.872335 -18.335163,-6.887427 -27.4755,-10.31388 -7.232576,-3.719031 -13.566829,-9.173085 -21.44498,-11.61016 -3.624259,-1.431538 4.138673,0.988727 5.60782,1.04266 8.609056,1.701613 17.365515,2.511953 25.98196,4.17064 1.51759,1.680238 8.863997,4.140395 4.33972,0.8454 3.749173,-1.797054 8.621398,1.583235 12.681,2.19804 0.0896,0.05205 0.207127,0.120901 0.30998,0.16908 v -1.74716 C 70.761392,18.092422 64.091176,18.7999 58.002729,16.627273 50.025574,14.06242 42.104783,11.260613 33.852469,9.6949928 31.804842,10.119917 29.117402,7.7316156 27.117449,6.7924528 Z m 15.2172,0 c 3.442066,3.0925174 6.959472,6.6106772 12.17376,5.8896202 5.113647,-0.655642 9.74041,1.475759 14.59724,2.56438 3.269935,0.712833 6.604588,1.221582 9.94754,1.43718 v -0.8454 c -4.984032,-0.334393 -9.959064,-2.209527 -14.85086,-2.98708 -1.98373,-0.777692 -0.555639,-1.311037 0.7045,-1.07084 4.681261,0.897179 9.442644,1.379861 14.14636,2.14168 v -3.46614 c -4.89831,-0.363643 -10.042879,0.97269 -14.62542,-1.3808202 -2.371346,-0.6841689 -4.700959,-1.4954513 -7.045,-2.28258 h -4.76242 c 3.438594,0.7404546 6.993071,1.2578677 9.89118,3.3252402 C 55.539424,9.5889729 50.914903,7.9926476 46.223489,6.7924528 Z m 4.227,1.23992 c 1.923704,0.1085313 9.808465,2.4421242 6.36868,3.6634002 -2.459769,-0.329281 -5.146753,-1.333737 -6.36868,-3.6634002 z m 10.82112,2.3389402 c 3.707326,-0.01797 3.202126,1.813037 0,0 z m 16.09078,0.76086 c 2.56692,-0.04592 6.067646,0.169891 4.48062,1.2681 -2.208499,-0.110101 -4.415382,-0.423904 -6.50958,-1.15538 0.42274,-0.05216 1.17332,-0.09741 2.02896,-0.11272 z m -58.50168,14.6536 v 1.88806 c 3.414775,2.893923 8.880023,3.482703 11.94832,7.045 4.935678,3.169182 9.723014,6.552505 14.48452,9.97572 -9.297075,-3.96674 -18.396296,-8.615467 -26.43284,-14.7945 v 2.47984 c 2.070725,2.199784 7.359898,2.957618 9.38394,5.15694 1.782613,0.898606 7.393877,3.631493 2.76164,1.5499 -4.080295,-1.8159 -8.096455,-3.809417 -12.14558,-5.69236 v 0.87358 c 4.969783,2.860832 10.625626,4.515321 15.72444,7.12954 11.609947,4.294614 22.565557,10.150467 32.91424,16.908 4.569368,2.675721 9.171679,5.271406 13.83638,7.77768 -6.871146,-5.633192 -15.390802,-8.653248 -22.71308,-13.58276 -2.324914,-0.961599 -5.674369,-4.133261 -1.1272,-1.63444 5.748969,2.750915 11.199017,6.092319 16.79528,9.13032 -2.859035,-3.864214 -8.394393,-4.186158 -11.5538,-7.55224 6.744931,2.227397 13.470993,4.474935 20.20506,6.73502 v -1.57808 c -2.233246,-0.369795 -4.788164,-0.575851 -6.14324,-1.71898 -12.674182,-4.218833 -26.391527,-7.081535 -36.85944,-15.9217 -6.774751,-5.06549 -13.594543,-10.19582 -21.07864,-14.17454 z m 0.02818,22.88216 c -0.0098,0.01027 -0.01855,0.01793 -0.02818,0.02818 v 4.28336 c 1.894037,2.137518 5.92958,3.97768 7.15772,6.0587 6.853306,5.499445 15.1328,8.788983 22.45946,13.55458 C 31.362072,68.864709 22.08415,61.753965 12.830189,54.782993 v 1.2681 c 3.030177,1.98711 6.200975,3.838416 8.56672,6.59412 -2.926724,-1.379322 -5.779458,-2.888406 -8.56672,-4.5088 v 0.92994 c 8.048836,4.531557 16.278923,8.732894 24.15026,13.55458 4.059375,2.840349 7.899752,6.083948 11.01838,9.94754 h 3.15616 c -0.40567,-1.408022 -1.749011,-3.112971 -3.15616,-3.04344 -1.977603,-2.274058 -8.103278,-5.830433 -7.97494,-6.9041 6.96278,2.748974 13.517739,6.303437 20.03598,9.94754 h 1.49354 c -2.243364,-1.221274 -4.164927,-3.377825 0.1409,-1.88806 4.608508,0.58925 9.253375,1.862631 13.92092,1.409 -5.254981,-2.744216 -11.629754,-0.09155 -16.908,-3.04344 C 46.369282,75.212766 35.785598,67.51124 24.919409,60.785333 20.27703,57.447993 15.902135,53.557897 12.858369,48.667933 Z m -0.02818,20.8532 v 0.64814 c 2.971786,5.444352 10.332404,6.60172 13.58276,11.89196 -4.306743,-2.435818 -8.746713,-5.063682 -13.58276,-6.28414 v 2.9589 c 2.743185,1.563552 5.794408,2.603384 8.67944,3.83248 h 8.36946 c -0.189708,-1.24857 -1.377323,-2.636837 -3.55068,-3.15616 -4.483453,-3.308255 -8.409554,-7.480529 -13.49822,-9.89118 z m 5.10058,9.66574 c 0.509378,0.178605 -0.505794,0.197563 0,0 z"
       id="path3247"
       transform="matrix(0.8849523,0,0,0.9601606,6.7551292,3.2894749)" />
    <path
       style="fill:#9f1701;fill-opacity:0.536145;fill-rule:nonzero;stroke:none;stroke-width:1px;stroke-linecap:butt;stroke-linejoin:miter;stroke-opacity:1;filter:url(#filter19251)"
       d="m 15.000049,6.7924528 c -0.519488,0 -0.979473,0.2054384 -1.35264,0.50724 7.769734,2.9205702 16.348583,2.4242979 24.20662,5.1287602 2.295658,0.671379 8.474667,2.483818 8.11584,2.90254 -11.22632,-1.140924 -22.202579,-3.82812 -32.94242,-7.2422602 -0.06586,0.1486885 -0.109563,0.3148279 -0.1409,0.47906 11.277968,3.6300242 22.930049,6.1859672 34.74594,7.1859002 2.463351,1.52724 -3.913644,-0.107382 -4.95968,-0.05636 C 32.694247,14.11826 22.419957,13.090128 13.111989,8.8777728 l -0.25362,-0.19726 c -0.01374,0.099172 -0.02818,0.2069079 -0.02818,0.30998 v 1.6908002 c 2.3396,0.7268 4.642648,1.56485 6.87592,2.62074 12.650517,3.894106 26.810143,3.008795 38.35298,10.25752 6.684647,3.502125 12.850735,7.819224 18.85242,12.37102 v -0.45088 c -1.36813,-0.981165 -2.717234,-1.96683 -4.00156,-3.04344 -11.390162,-8.302346 -24.416499,-15.1368 -38.66296,-16.42894 -5.88667,-0.974155 -11.835372,-2.097162 -17.27434,-4.6497 12.348441,3.659076 25.254089,4.795146 37.73302,7.83404 7.183634,2.868773 13.255223,7.821539 19.78236,11.86378 0.817489,0.568735 1.61588,1.164028 2.42348,1.74716 v -0.50724 c -2.528484,-1.691276 -5.087129,-3.328952 -7.52406,-5.10058 -4.192605,-2.742021 -8.481671,-5.368903 -12.90644,-7.72132 7.06605,1.550262 14.846138,2.575339 20.4305,7.58042 v -1.66262 c -1.827353,-1.224099 -4.360684,-2.573886 -5.32602,-2.84618 -5.365487,-2.330659 -11.288148,-2.612814 -16.87982,-4.14246 -1.786359,-1.947804 5.310594,0.419217 6.93228,0.16908 5.15449,0.711558 10.311712,1.614527 15.27356,3.21252 v -0.90176 c -8.744416,-2.407073 -17.915142,-2.645524 -26.79918,-4.3679 4.425758,-1.115498 9.081365,0.502021 13.61094,0.25362 4.40664,0.293874 8.797034,0.683126 13.18824,1.15538 v -0.81722 c -3.471381,-0.63467 -7.290514,0.199258 -10.76476,-0.61996 -6.142334,-0.306669 -12.295348,-0.538826 -18.42972,-0.9863 C 38.13692,11.327912 27.653249,10.0702 17.564429,7.8351128 17.238628,7.5437682 16.414948,7.1604086 15.479109,6.7924528 Z m 14.76632,7.2140802 c 7.247652,1.477307 14.65707,1.88161 21.89586,3.40978 -4.496566,0.116189 -8.940433,-1.520263 -13.47004,-1.80352 -2.825835,-0.439132 -5.644533,-0.93597 -8.42582,-1.60626 z m -16.93618,6.4814 v 0.59178 c 4.105028,1.987316 8.59129,3.210043 12.681,5.24148 16.196863,6.351173 32.976269,11.019367 49.68134,15.80898 0.297243,0.47057 0.974702,0.776248 1.71898,0.95812 v -1.23992 c -20.661894,-5.084062 -41.138403,-11.145292 -60.587,-19.8669 -1.165357,-0.494401 -2.328911,-0.99926 -3.49432,-1.49354 z m 0,2.87436 v 1.32446 c 2.175102,1.064258 4.548059,1.894753 6.45322,3.15616 13.996547,5.874185 28.032037,11.692419 41.87548,17.92248 5.205309,2.23392 10.443279,4.393541 15.75262,6.36868 v -0.53542 c -4.748933,-2.000694 -9.813592,-3.264249 -14.42816,-5.60782 -15.548245,-6.555135 -30.854106,-13.669512 -46.3561,-20.31778 -1.163558,-0.675937 -2.229804,-1.489454 -3.29706,-2.31076 z m 4.14246,1.80352 c 5.761977,3.164847 12.404464,4.084963 18.48608,6.4814 13.625882,4.380185 27.327493,8.673298 40.38194,14.59724 0.201085,0.361871 0.598934,0.653049 1.07084,0.90176 v -1.52172 C 57.491799,37.267498 36.958626,31.944075 16.972649,25.165813 Z m -4.14246,0.81722 v 2.14168 c 1.218531,0.468634 2.233156,1.211194 2.1135,2.76164 4.470103,7.074516 11.034704,12.508406 15.47082,19.61328 3.726423,4.742126 8.193819,8.864627 12.8219,12.70918 -11.209239,-8.334828 -21.385025,-18.347302 -28.65906,-30.34986 0.07948,-0.860755 -0.763956,-1.822273 -1.74716,-2.59256 v 2.64892 c 3.661883,4.510097 6.512011,9.658415 10.73658,13.72366 12.517232,13.423325 28.071054,23.48291 43.3972,33.36512 1.471726,0.882004 2.952702,1.731942 4.45244,2.56438 h 1.60626 c -5.535984,-3.015233 -10.941429,-6.280141 -16.09078,-9.91936 6.356499,3.317705 12.87298,6.305444 19.47238,9.10214 0.0765,-0.09368 0.165257,-0.175975 0.22544,-0.2818 -0.949954,-0.403292 -1.876877,-0.839615 -2.78982,-1.32446 -12.695568,-5.167635 -25.001534,-11.881586 -34.77412,-21.64224 -4.497337,-4.210311 -8.621318,-8.854986 -11.9765,-14.03364 9.409606,7.068109 19.196729,13.767478 29.89898,18.7397 -10.901523,-6.050291 -21.80322,-12.348202 -31.19526,-20.62776 -3.731285,-5.173184 -6.292149,-11.50923 -11.80742,-15.13266 -0.380034,-0.468908 -0.757116,-0.974415 -1.15538,-1.46536 z m 4.39608,6.00234 c 1.472894,1.518773 3.974944,5.606029 1.21174,1.71898 -0.415429,-0.567739 -0.824875,-1.131315 -1.21174,-1.71898 z m -4.39608,5.12876 v 5.2133 c 1.491919,1.883006 3.127293,3.697333 4.14246,5.66418 5.501927,6.575497 10.897412,13.290454 15.7808,20.31778 1.010364,2.941729 -3.496773,-2.640852 -4.6497,-3.32524 -5.863494,-5.525178 -11.515388,-11.528329 -15.10448,-18.82424 0.247351,-0.71614 0.122163,-1.282291 -0.16908,-1.6908 v 4.0861 c 5.72312,9.035467 13.780395,16.329324 21.75496,23.36122 2.789329,2.736923 4.130714,8.649377 6.73502,10.65204 h 0.95812 c 0.03237,-2.691927 -6.365236,-7.287607 -2.22622,-7.15772 3.968734,2.628122 8.108077,4.976317 12.34284,7.15772 h 1.2681 c -1.237267,-0.592383 -2.440145,-1.238038 -3.5225,-1.9726 -6.282319,-3.502991 -9.515589,-10.311517 -15.01994,-14.73814 -8.863956,-8.162609 -17.479589,-17.143811 -22.1213,-28.4618 -0.05087,-0.0983 -0.115975,-0.184311 -0.16908,-0.2818 z m 14.31544,22.09312 c 5.68437,5.568931 11.628366,10.969721 16.31622,17.44342 -7.873073,-3.024762 -10.926077,-11.678748 -16.31622,-17.44342 z m -14.31544,0.67632 v 2.90254 c 1.988515,2.922468 5.185618,5.435953 5.57964,9.13032 1.459294,2.086398 0.555449,4.753497 -1.18356,1.46536 -1.218169,-2.142134 -2.460167,-6.674305 -4.39608,-8.39764 v 2.31076 c 1.432262,2.455283 2.325071,5.237321 4.25518,7.43952 2.489399,3.192684 5.643445,5.791135 9.13032,7.83404 h 1.52172 c -1.022637,-1.27465 -4.975162,-2.9677 -5.38238,-5.01604 -3.406406,-5.189776 -4.377496,-11.691542 -8.65126,-16.37258 -0.301341,-0.425187 -0.58062,-0.864797 -0.87358,-1.29628 z"
       id="path3154"
       transform="matrix(0.8849523,0,0,1,6.7551292,0)" />
    <g
       inkscape:label="#g14211"
       transform="matrix(0.8042047,0,0,0.8042047,-134.00349,-427.00424)"
       id="g18331"
       style="display:inline;fill:#44000d;fill-opacity:1;stroke:#53000b;stroke-width:2.48693;stroke-linecap:round;stroke-linejoin:round;stroke-miterlimit:4;stroke-dasharray:none;stroke-opacity:1">
      <path
         id="path18333"
         d="m 217.76855,549.60638 c -2.47838,-0.46057 -0.37511,1.47971 0.0564,2.52982 2.28451,3.58388 1.51706,7.97138 1.82198,11.99394 0.0592,1.66315 0.10192,3.3264 0.0454,4.99028 -5.07586,0.93462 -10.13708,1.96247 -15.2475,2.69531 -1.23106,-0.62645 -1.29066,-3.00586 -3.01127,-2.58 -1.47049,0.60322 -2.95718,1.16663 -4.43433,1.75347 2.40742,2.08647 3.50013,5.06001 4.7276,7.89498 2.11928,4.20232 3.99709,8.52857 5.26434,13.06473 1.06498,3.31343 6.1097,1.56677 3.88143,-1.67909 -0.72165,-0.90773 1.72801,-0.39952 2.32514,-0.72968 1.94379,-0.26446 3.8999,-0.41023 5.8533,-0.58219 -0.0837,4.97256 -0.23802,9.94307 -0.57001,14.90387 0.0643,4.49823 -0.13043,9.01129 0.10065,13.49996 0.0986,1.08468 0.15456,2.33081 1.11065,3.04148 2.46283,-0.98755 2.76367,-4.0617 3.1393,-6.39608 0.5766,-3.48701 0.27535,-7.05275 0.46488,-10.57447 0.10484,-5.01659 0.20968,-10.03318 0.31452,-15.04978 6.00555,-0.64812 12.04017,-1.06844 18.02629,-1.86877 1.6464,-0.49936 2.24958,-2.98665 0.19257,-3.40505 -2.0132,-0.0734 0.32546,-1.78073 0.66435,-2.74486 1.48084,-2.07483 2.7613,-4.33179 4.36716,-6.29298 1.28737,-1.14414 3.61352,-2.17203 2.29283,-4.26801 -1.23484,-1.85109 -3.37532,-2.81649 -5.02321,-4.27659 -2.38489,-2.65255 -5.34381,-0.48727 -7.67118,0.8706 -3.93159,1.1301 -8.01416,1.45329 -12.06501,1.89661 0.0829,-4.25722 0.5365,-8.50199 0.66125,-12.76028 0.48276,-1.26093 2.38967,-3.08806 0.11908,-3.90967 -2.1844,-1.45563 -4.79257,-2.14332 -7.40663,-2.01755 z m 21.62439,21.16718 c 0.47136,2.54823 -0.37056,5.3917 -1.00819,7.93142 -0.76213,1.89731 -0.80914,4.92736 -3.46957,4.64246 -3.71545,0.685 -7.48739,0.96943 -11.23284,1.44174 0.23751,-4.21667 0.47501,-8.43335 0.71251,-12.65002 4.99671,-0.50918 9.96135,-1.42636 14.99809,-1.3656 z m -19.94999,2.1203 c -0.13063,4.12085 -0.26126,8.2417 -0.39189,12.36255 -3.25374,0.38332 -6.50747,0.76664 -9.7612,1.14996 -1.24687,-3.86926 -2.49374,-7.73852 -3.7406,-11.60779 4.63123,-0.6349 9.26246,-1.26981 13.89369,-1.90472 z"
         style="fill:#44000d;fill-opacity:1;stroke:#53000b;stroke-width:2.48693;stroke-linecap:round;stroke-linejoin:round;stroke-miterlimit:4;stroke-dasharray:none;stroke-opacity:1" />
      <use
         style="display:inline;fill:#44000d;fill-opacity:1;stroke:#53000b;stroke-width:2.48693;stroke-linecap:round;stroke-linejoin:round;stroke-miterlimit:4;stroke-dasharray:none;stroke-opacity:1"
         x="0"
         y="0"
         inkscape:tiled-clone-of="#facesize"
         xlink:href="#facesize"
         transform="translate(172.25,424.5)"
         id="use18335"
         width="774"
         height="1060" />
    </g>
    <g
       style="display:inline;fill:#eeeeec;fill-opacity:1"
       id="DRAGON_3"
       transform="matrix(0.8042047,0,0,0.8042047,-132.40248,-425.9369)"
       inkscape:label="#g14211">
      <path
         style="fill:#eeeeec;fill-opacity:1"
         d="m 217.76855,549.60638 c -2.47838,-0.46057 -0.37511,1.47971 0.0564,2.52982 2.28451,3.58388 1.51706,7.97138 1.82198,11.99394 0.0592,1.66315 0.10192,3.3264 0.0454,4.99028 -5.07586,0.93462 -10.13708,1.96247 -15.2475,2.69531 -1.23106,-0.62645 -1.29066,-3.00586 -3.01127,-2.58 -1.47049,0.60322 -2.95718,1.16663 -4.43433,1.75347 2.40742,2.08647 3.50013,5.06001 4.7276,7.89498 2.11928,4.20232 3.99709,8.52857 5.26434,13.06473 1.06498,3.31343 6.1097,1.56677 3.88143,-1.67909 -0.72165,-0.90773 1.72801,-0.39952 2.32514,-0.72968 1.94379,-0.26446 3.8999,-0.41023 5.8533,-0.58219 -0.0837,4.97256 -0.23802,9.94307 -0.57001,14.90387 0.0643,4.49823 -0.13043,9.01129 0.10065,13.49996 0.0986,1.08468 0.15456,2.33081 1.11065,3.04148 2.46283,-0.98755 2.76367,-4.0617 3.1393,-6.39608 0.5766,-3.48701 0.27535,-7.05275 0.46488,-10.57447 0.10484,-5.01659 0.20968,-10.03318 0.31452,-15.04978 6.00555,-0.64812 12.04017,-1.06844 18.02629,-1.86877 1.6464,-0.49936 2.24958,-2.98665 0.19257,-3.40505 -2.0132,-0.0734 0.32546,-1.78073 0.66435,-2.74486 1.48084,-2.07483 2.7613,-4.33179 4.36716,-6.29298 1.28737,-1.14414 3.61352,-2.17203 2.29283,-4.26801 -1.23484,-1.85109 -3.37532,-2.81649 -5.02321,-4.27659 -2.38489,-2.65255 -5.34381,-0.48727 -7.67118,0.8706 -3.93159,1.1301 -8.01416,1.45329 -12.06501,1.89661 0.0829,-4.25722 0.5365,-8.50199 0.66125,-12.76028 0.48276,-1.26093 2.38967,-3.08806 0.11908,-3.90967 -2.1844,-1.45563 -4.79257,-2.14332 -7.40663,-2.01755 z m 21.62439,21.16718 c 0.47136,2.54823 -0.37056,5.3917 -1.00819,7.93142 -0.76213,1.89731 -0.80914,4.92736 -3.46957,4.64246 -3.71545,0.685 -7.48739,0.96943 -11.23284,1.44174 0.23751,-4.21667 0.47501,-8.43335 0.71251,-12.65002 4.99671,-0.50918 9.96135,-1.42636 14.99809,-1.3656 z m -19.94999,2.1203 c -0.13063,4.12085 -0.26126,8.2417 -0.39189,12.36255 -3.25374,0.38332 -6.50747,0.76664 -9.7612,1.14996 -1.24687,-3.86926 -2.49374,-7.73852 -3.7406,-11.60779 4.63123,-0.6349 9.26246,-1.26981 13.89369,-1.90472 z"
         id="path2463" />
      <use
         height="1060"
         width="774"
         id="use8916"
         transform="translate(172.25,424.5)"
         xlink:href="#facesize"
         inkscape:tiled-clone-of="#facesize"
         y="0"
         x="0"
         style="display:inline;fill:#eeeeec;fill-opacity:1" />
    </g>
    <path
       style="fill:url(#radialGradient16836);fill-opacity:1;fill-rule:nonzero;stroke:none;stroke-width:0.971258;stroke-linecap:butt;stroke-linejoin:round;stroke-miterlimit:4;stroke-dasharray:none;stroke-dashoffset:0;stroke-opacity:1"
       d="m 18.824128,7.4405928 c -1.288762,0 -2.352473,1.159529 -2.352473,2.5643802 v 69.35098 c 0,1.404851 1.063711,2.564377 2.352473,2.56438 h 53.202076 c 1.288761,0 2.352473,-1.159528 2.352472,-2.56438 v -69.35098 c 0,-1.4048512 -1.063714,-2.5643802 -2.352472,-2.5643802 z m 0,0.90176 h 53.202076 c 0.857535,0 1.551081,0.7278357 1.551081,1.6626202 v 69.35098 c 10e-7,0.934785 -0.693543,1.6908 -1.551081,1.6908 H 18.824128 c -0.85754,-2e-6 -1.551081,-0.756016 -1.551081,-1.6908 v -69.35098 c 0,-0.9347854 0.693542,-1.6626202 1.551081,-1.6626202 z"
       id="rect3306" />
    <path
       sodipodi:type="inkscape:offset"
       inkscape:radius="0"
       inkscape:original="M 61.78125 8.28125 C 59.521014 8.4212747 57.072796 8.7521029 55.25 8.40625 C 42.451418 8.4062497 29.673583 8.40625 16.875 8.40625 C 18.307149 13.895364 24.729407 9.2457942 28.375 9.9375 C 41.173583 9.9374999 54.482667 9.3125 67.28125 9.3125 C 66.126719 8.1964941 64.041486 8.1412253 61.78125 8.28125 z M 14.5 10.46875 C 14.5 32.327036 14.5 54.204214 14.5 76.0625 C 16.824862 72.801621 14.647759 65.586976 15.40625 60.96875 C 15.40625 44.14307 16.40625 29.450681 16.40625 12.625 L 14.5 10.46875 z "
       style="fill:url(#radialGradient20816);fill-opacity:1;fill-rule:evenodd;stroke:none;stroke-width:1px;stroke-linecap:butt;stroke-linejoin:miter;stroke-opacity:1;filter:url(#filter20877)"
       id="path20814"
       transform="matrix(0.9173651,0,0,1,4.2622142,0)"
       d="m 61.78125,8.28125 c -2.260236,0.1400247 -4.708454,0.4708529 -6.53125,0.125 -12.798582,-3e-7 -25.576417,0 -38.375,0 1.432149,5.489114 7.854407,0.8395442 11.5,1.53125 12.798583,-10e-8 26.107667,-0.625 38.90625,-0.625 -1.154531,-1.1160059 -3.239764,-1.1712747 -5.5,-1.03125 z M 14.5,10.46875 c 0,21.858286 0,43.735464 0,65.59375 2.324862,-3.260879 0.147759,-10.475524 0.90625,-15.09375 0,-16.82568 1,-31.518069 1,-48.34375 z" />
    <ellipse
       style="fill:url(#linearGradient148043);fill-opacity:1;fill-rule:nonzero;stroke:none;stroke-width:1;stroke-linecap:butt;stroke-linejoin:round;stroke-miterlimit:4;stroke-dasharray:none;stroke-dashoffset:0;stroke-opacity:1"
       id="path3339"
       transform="matrix(0.8272432,0,0,0.59178,3.1342331,2.3902755)"
       cx="23.824764"
       cy="12.642531"
       rx="2.7490113"
       ry="2.4435656" />
    <path
       sodipodi:nodetypes="csssccccccc"
       style="fill:#ffcedc;fill-opacity:0.538462;fill-rule:evenodd;stroke:none;stroke-width:1px;stroke-linecap:butt;stroke-linejoin:miter;stroke-opacity:1;filter:url(#filter16939)"
       d="m 73.487883,43.93729 c -0.341277,1.355882 -0.680983,2.831023 -0.870727,3.969489 -0.455387,2.732318 -1.137054,6.825652 -6.146307,10.013358 -5.009251,3.187705 -46.227669,5.933048 -48.504602,5.24997 -2.276933,-0.68308 -1.368482,-4.790852 -2.279255,-9.117021 l -0.435364,-1.818283 v 25.803494 c 0,1.094575 0.877364,1.971938 1.97194,1.97194 h 54.292375 c 1.094575,0 1.971942,-0.877367 1.97194,-1.97194 z"
       id="path3359"
       transform="matrix(0.9173651,0,0,1,4.2622142,0)" />
    <ellipse
       transform="matrix(0.6600248,0,0,0.472158,12.59385,3.5768896)"
       id="path3396"
       style="fill:url(#linearGradient148045);fill-opacity:1;fill-rule:nonzero;stroke:none;stroke-width:1;stroke-linecap:butt;stroke-linejoin:round;stroke-miterlimit:4;stroke-dasharray:none;stroke-dashoffset:0;stroke-opacity:1"
       cx="23.824764"
       cy="12.642531"
       rx="2.7490113"
       ry="2.4435656" />
    <ellipse
       style="fill:url(#linearGradient16979);fill-opacity:1;fill-rule:nonzero;stroke:none;stroke-width:1;stroke-linecap:butt;stroke-linejoin:round;stroke-miterlimit:4;stroke-dasharray:none;stroke-dashoffset:0;stroke-opacity:1"
       id="path3400"
       transform="matrix(0.3733648,0,0,0.2670918,32.104441,5.7506756)"
       cx="23.824764"
       cy="12.642531"
       rx="2.7490113"
       ry="2.4435656" />
    <rect
       style="fill:url(#linearGradient16762);fill-opacity:1;fill-rule:nonzero;stroke:none;stroke-width:1;stroke-linecap:butt;stroke-linejoin:round;stroke-miterlimit:4;stroke-dasharray:none;stroke-dashoffset:0;stroke-opacity:1"
       id="rect3454"
       width="2.2984254"
       height="75.163925"
       x="73.492813"
       y="7.0222921"
       rx="2.4109206"
       ry="2.4109206" />
    <rect
       ry="2.4109206"
       rx="1.1159954"
       y="16.951548"
       x="-83.438942"
       height="57.46064"
       width="2.5054607"
       id="rect3474"
       style="fill:url(#linearGradient16759);fill-opacity:1;fill-rule:nonzero;stroke:none;stroke-width:1;stroke-linecap:butt;stroke-linejoin:round;stroke-miterlimit:4;stroke-dasharray:none;stroke-dashoffset:0;stroke-opacity:1"
       transform="rotate(-90)" />
    <path
       style="fill:url(#radialGradient16756);fill-opacity:1;fill-rule:evenodd;stroke:none;stroke-width:1px;stroke-linecap:butt;stroke-linejoin:miter;stroke-opacity:1"
       d="m 83.193986,13.048413 c 0,24.300554 0,48.601106 0,72.90166 2.084546,-2.864779 0.124823,-6.937416 0.827244,-10.296995 0,-20.868221 0,-41.736444 0,-62.604665 -0.275748,0 -0.551496,0 -0.827244,0 z m -57.286589,74.9588 c 2.1683,2.228546 5.564803,0.178383 8.238795,0.90176 15.797768,0 31.595539,0 47.393308,0 -2.168301,-2.228547 -5.564804,-0.178384 -8.238795,-0.90176 -15.797769,0 -31.595538,0 -47.393308,0 z"
       id="path3624" />
    <path
       style="fill:#888a85;fill-opacity:1;filter:url(#filter20766)"
       d="m 42.15625,16 c -0.696475,0.04295 -0.271375,0.684078 0.15625,1.3125 0.01864,-0.22147 0.252364,-0.314823 0.9375,-0.1875 2.10224,-0.101145 4.212045,0.454376 5.96875,1.625 0.114126,0.0413 0.223521,0.07769 0.3125,0.125 0.09618,-0.480025 -0.06213,-0.90467 -0.84375,-1.1875 -1.756707,-1.170625 -3.86651,-1.726145 -5.96875,-1.625 C 42.469609,16.0162 42.30007,15.99113 42.15625,16 Z m 1.21875,3.25 c 1.082923,2.635827 0.662125,5.69172 0.875,8.5 0.04757,1.337513 0.07671,2.6619 0.03125,4 -4.082029,0.751625 -8.171426,1.566896 -12.28125,2.15625 -0.990022,-0.503794 -1.022528,-2.404978 -2.40625,-2.0625 -1.182575,0.485114 -2.374569,0.934311 -3.5625,1.40625 0.328205,0.28445 0.633135,0.584816 0.90625,0.90625 1.063196,-0.418828 2.130338,-0.816336 3.1875,-1.25 1.383722,-0.342478 1.416225,1.589955 2.40625,2.09375 4.109824,-0.589354 8.199219,-1.435874 12.28125,-2.1875 0.04546,-1.3381 0.01633,-2.662486 -0.03125,-4 C 44.538706,25.612825 45.139601,22.114569 43.375,19.25 Z m 18.25,8.59375 c -1.329892,0.08533 -2.705199,1.036246 -3.875,1.71875 -2.97948,0.856424 -6.052829,1.140952 -9.125,1.46875 -0.01375,0.375435 -0.02393,0.749352 -0.03125,1.125 3.257713,-0.35652 6.525698,-0.622419 9.6875,-1.53125 1.871682,-1.092006 4.269563,-2.820693 6.1875,-0.6875 1.230839,1.090575 2.799102,1.831402 3.8125,3.125 -0.03281,-0.234941 -0.137865,-0.472849 -0.3125,-0.75 C 66.975689,30.823845 65.262741,30.049219 63.9375,28.875 63.218273,28.075052 62.422935,27.79255 61.625,27.84375 Z m -1.40625,6.3125 c 0.04586,1.756367 -0.480638,3.617262 -0.90625,5.3125 -0.612907,1.525825 -0.64172,3.947868 -2.78125,3.71875 -2.782145,0.512933 -5.63045,0.757374 -8.4375,1.09375 -0.02116,0.375629 -0.04134,0.749371 -0.0625,1.125 3.012109,-0.379834 6.043267,-0.605369 9.03125,-1.15625 2.13953,0.229118 2.16834,-2.192926 2.78125,-3.71875 0.512785,-2.042455 1.191568,-4.325702 0.8125,-6.375 -0.144663,-0.0017 -0.292981,-2.1e-4 -0.4375,0 z m -15.625,1.6875 c -0.187126,0.02565 -0.375374,0.03685 -0.5625,0.0625 -0.09316,2.938878 -0.188088,5.87362 -0.28125,8.8125 -2.553774,0.300856 -5.102482,0.605392 -7.65625,0.90625 0.117146,0.363524 0.226604,0.730226 0.34375,1.09375 2.616665,-0.308268 5.227076,-0.629231 7.84375,-0.9375 0.105053,-3.314007 0.207447,-6.623492 0.3125,-9.9375 z m -15.5,2.03125 c 0.251451,0.571016 0.471966,1.148776 0.71875,1.71875 1.704334,3.379527 3.230871,6.883248 4.25,10.53125 0.107058,0.333085 0.248101,0.600989 0.4375,0.8125 C 33.482437,47.382577 32.039438,43.956664 30.375,40.65625 29.967998,39.716237 29.545607,38.795089 29.09375,37.875 Z m 33.21875,5.1875 c -0.400942,0.529666 -0.6052,0.966537 0.3125,1 0.206782,0.04206 0.357532,0.131068 0.5,0.21875 0.04633,-0.513569 -0.181775,-1.006614 -0.8125,-1.21875 z m -18.03125,5.71875 c -0.188146,0.01656 -0.374313,0.01509 -0.5625,0.03125 -0.07124,3.632215 -0.163726,7.251054 -0.40625,10.875 0.05171,3.6175 -0.123335,7.265191 0.0625,10.875 0.07063,0.776894 0.13566,1.631812 0.6875,2.21875 -0.08637,-0.386634 -0.121327,-0.772111 -0.15625,-1.15625 -0.185835,-3.609809 -0.01079,-7.257501 -0.0625,-10.875 0.266988,-3.989499 0.370219,-7.969792 0.4375,-11.96875 z"
       id="path20743" />
  </g>
  <path
     style="display:inline;mix-blend-mode:normal;fill:url(#linearGradient3403);fill-opacity:1;stroke:url(#linearGradient20558);stroke-width:1.16242;stroke-linecap:butt;stroke-linejoin:round;stroke-miterlimit:4;stroke-dasharray:none;stroke-opacity:1;filter:url(#filter20720)"
     d="M 4.7043071,3.9814882 4.6913695,60.80196 H 58.59546 l 1.022155,-2.866369 c 0,0 -23.87537,0.766388 -32.844441,-4.140386 C 16.257548,48.042344 11.401114,4.0978197 11.401114,4.0978197 Z"
     id="path1686"
     sodipodi:nodetypes="ccccscc"
     transform="matrix(0.7518797,0,0,0.7518797,0.09970467,0.02488636)"
     inkscape:label="folder" />
  <rect
     style="display:inline;fill:none;fill-opacity:1;stroke:url(#linearGradient4557);stroke-width:3.71366;stroke-linejoin:round;stroke-miterlimit:7.8;stroke-dasharray:none;stroke-opacity:0.995146;filter:url(#filter4601)"
     id="rect4539"
     width="62.566689"
     height="62.866646"
     x="1.0323594"
     y="0.59551275"
     ry="6.2447233"
     rx="5.8029528"
     transform="matrix(0.70434793,0,0,0.70291231,1.3629847,1.5442064)"
     inkscape:label="contour" />
</svg>
