<?xml version="1.0" encoding="UTF-8" standalone="no"?>
<!-- Created with Inkscape (http://www.inkscape.org/) -->

<svg
  width="48"
  height="48"
  version="1.1"
  viewBox="0 0 48 48"
  id="svg22"
  xmlns:xlink="http://www.w3.org/1999/xlink"
  xmlns="http://www.w3.org/2000/svg"
  xmlns:svg="http://www.w3.org/2000/svg">
 <defs
   id="defs12">
  <linearGradient
    id="linearGradient1005-3-3"
    x1="5.2535"
    x2="9.3823996"
    y1="15.383"
    y2="2.9421"
    gradientTransform="matrix(0.99999,0,0,0.99999,1.632,-0.61743)"
    gradientUnits="userSpaceOnUse">
   <stop
     stop-color="#fa8200"
     offset="0"
     id="stop2" />
   <stop
     stop-color="#ff9600"
     offset=".36953"
     id="stop4" />
   <stop
     stop-color="#ffb400"
     offset="1"
     id="stop6" />
  </linearGradient>
  <filter
    id="filter4014"
    x="-0.062499932"
    y="-0.057692992"
    width="1.1249999"
    height="1.115386"
    color-interpolation-filters="sRGB">
   <feGaussianBlur
     stdDeviation="1.093751"
     id="feGaussianBlur9" />
  </filter>
  <linearGradient
    xlink:href="#linearGradient3487"
    id="linearGradient3403"
    gradientUnits="userSpaceOnUse"
    x1="6.9491749"
    y1="4.5549412"
    x2="11.215498"
    y2="59.052471" />
  <linearGradient
    id="linearGradient3487">
   <stop
     style="stop-color:#32373c;stop-opacity:1"
     offset="0"
     id="stop3481" />
   <stop
     id="stop3483"
     offset="0.36804965"
     style="stop-color:#1a1a1a;stop-opacity:1" />
   <stop
     style="stop-color:#31363b;stop-opacity:1"
     offset="1"
     id="stop3485" />
  </linearGradient>
  <linearGradient
    xlink:href="#linearGradient20604"
    id="linearGradient20558"
    gradientUnits="userSpaceOnUse"
    x1="25.802212"
    y1="20.373846"
    x2="25.111048"
    y2="58.912758" />
  <linearGradient
    id="linearGradient20604">
   <stop
     id="stop20598"
     offset="0"
     style="stop-color:#3d3d3d;stop-opacity:1" />
   <stop
     style="stop-color:#000000;stop-opacity:1"
     offset="0.61772454"
     id="stop20600" />
   <stop
     id="stop20602"
     offset="1"
     style="stop-color:#3d3d3d;stop-opacity:1" />
  </linearGradient>
  <linearGradient
    gradientTransform="translate(0.36067797,-0.13016949)"
    xlink:href="#linearGradient4555"
    id="linearGradient4557"
    x1="43.499737"
    y1="64.011795"
    x2="44.141731"
    y2="0.30621234"
    gradientUnits="userSpaceOnUse" />
  <linearGradient
    id="linearGradient4555">
   <stop
     style="stop-color:#141618;stop-opacity:1"
     offset="0"
     id="stop4551" />
   <stop
     id="stop4559"
     offset="0.51820582"
     style="stop-color:#686868;stop-opacity:1" />
   <stop
     style="stop-color:#31363b;stop-opacity:1"
     offset="1"
     id="stop4553" />
  </linearGradient>
  <filter
    style="color-interpolation-filters:sRGB"
    id="filter4601"
    x="-0.029693253"
    width="1.0593865"
    y="-0.029551577"
    height="1.0591032">
   <feGaussianBlur
     stdDeviation="0.00040770684"
     id="feGaussianBlur4603" />
  </filter>
  <linearGradient
    id="a"
    gradientUnits="userSpaceOnUse"
    x1="4"
    x2="4"
    y1="3"
    y2="45"
    gradientTransform="translate(-34.729525,-41.564393)">
   <stop
     offset="0"
     stop-color="#977a5c"
     id="stop2-7" />
   <stop
     offset="1"
     stop-color="#9d8062"
     id="stop4-6" />
  </linearGradient>
  <linearGradient
    id="b"
    gradientUnits="userSpaceOnUse"
    x1="4"
    x2="4"
    y1="3"
    y2="45">
   <stop
     offset="0"
     stop-color="#383e51"
     id="stop7" />
   <stop
     offset="1"
     stop-opacity="0"
     id="stop9" />
  </linearGradient>
  <linearGradient
    id="c"
    gradientUnits="userSpaceOnUse"
    x1="4"
    x2="4"
    y1="3"
    y2="45">
   <stop
     offset="0"
     stop-color="#21c9fb"
     id="stop12" />
   <stop
     offset="1"
     stop-color="#197cf1"
     id="stop14" />
  </linearGradient>
 </defs>
 <g
   id="g856"
   transform="translate(-74.440484,-17.558249)">
  <g
    id="g10783"
    transform="matrix(0.97732345,0,0,1.2901636,76.690033,10.15767)">
   <path
     d="M 4,8 V 40 H 44 V 8 Z"
     style="fill:#eff0f1"
     id="path19" />
   <path
     style="opacity:0.2;fill:url(#b)"
     d="m 33,15 -18,18 7,7 H 44 V 25 Z"
     id="path21" />
   <path
     style="fill:url(#c)"
     d="M 15,15 V 33 H 33 V 15 Z"
     id="path23" />
   <path
     d="M 14,14 V 34 H 34 V 14 Z m 1,1 h 18 v 17 1 H 15 v -1 z m 0,17 h 4 l 3,-3 -2,-2 z m 18,0 -6,-6 -6,6 z M 18.5,16 C 17.115,16 16,17.115 16,18.5 16,19.885 17.115,21 18.5,21 19.885,21 21,19.885 21,18.5 21,17.115 19.885,16 18.5,16 Z"
     style="fill:#ffffff"
     id="path25" />
   <path
     style="fill:#f8c94d"
     d="m 30,11 -2,2 7,7 2,-2 z m -18,17 -2,2 7,7 2,-2 z"
     id="path27" />
  </g>
 </g>
 <path
   style="display:inline;mix-blend-mode:normal;fill:url(#linearGradient3403);fill-opacity:1;stroke:url(#linearGradient20558);stroke-width:1.16242;stroke-linecap:butt;stroke-linejoin:round;stroke-miterlimit:4;stroke-dasharray:none;stroke-opacity:1"
   d="M 4.7043071,3.9814882 4.6913695,60.80196 H 58.59546 l 1.022155,-2.866369 c 0,0 -23.87537,0.766388 -32.844441,-4.140386 C 16.257548,48.042344 11.401114,4.0978197 11.401114,4.0978197 Z"
   id="path1686"
   transform="matrix(0.7518797,0,0,0.7518797,0.09970467,0.02488636)" />
 <rect
   style="display:inline;fill:none;fill-opacity:1;stroke:url(#linearGradient4557);stroke-width:3.71366;stroke-linejoin:round;stroke-miterlimit:7.8;stroke-dasharray:none;stroke-opacity:0.995146"
   id="rect4539"
   width="62.566689"
   height="62.866646"
   x="1.0323594"
   y="0.59551275"
   ry="6.2447233"
   rx="5.8029528"
   transform="matrix(0.70434793,0,0,0.70291231,1.3629847,1.5442064)" />
</svg>
