<?xml version="1.0" encoding="UTF-8" standalone="no"?>
<!-- Created with Inkscape (http://www.inkscape.org/) -->

<svg
  width="48"
  height="48"
  version="1.1"
  viewBox="0 0 48 48"
  id="svg22"
  xmlns:xlink="http://www.w3.org/1999/xlink"
  xmlns="http://www.w3.org/2000/svg"
  xmlns:svg="http://www.w3.org/2000/svg">
 <defs
   id="defs12">
  <linearGradient
    id="linearGradient1005-3-3"
    x1="5.2535"
    x2="9.3823996"
    y1="15.383"
    y2="2.9421"
    gradientTransform="matrix(0.99999,0,0,0.99999,1.632,-0.61743)"
    gradientUnits="userSpaceOnUse">
   <stop
     stop-color="#fa8200"
     offset="0"
     id="stop2" />
   <stop
     stop-color="#ff9600"
     offset=".36953"
     id="stop4" />
   <stop
     stop-color="#ffb400"
     offset="1"
     id="stop6" />
  </linearGradient>
  <filter
    id="filter4014"
    x="-0.062499932"
    y="-0.057692992"
    width="1.1249999"
    height="1.115386"
    color-interpolation-filters="sRGB">
   <feGaussianBlur
     stdDeviation="1.093751"
     id="feGaussianBlur9" />
  </filter>
  <linearGradient
    xlink:href="#linearGradient3487"
    id="linearGradient3403"
    gradientUnits="userSpaceOnUse"
    x1="6.9491749"
    y1="4.5549412"
    x2="11.215498"
    y2="59.052471" />
  <linearGradient
    id="linearGradient3487">
   <stop
     style="stop-color:#32373c;stop-opacity:1"
     offset="0"
     id="stop3481" />
   <stop
     id="stop3483"
     offset="0.36804965"
     style="stop-color:#1a1a1a;stop-opacity:1" />
   <stop
     style="stop-color:#31363b;stop-opacity:1"
     offset="1"
     id="stop3485" />
  </linearGradient>
  <linearGradient
    xlink:href="#linearGradient20604"
    id="linearGradient20558"
    gradientUnits="userSpaceOnUse"
    x1="25.802212"
    y1="20.373846"
    x2="25.111048"
    y2="58.912758" />
  <linearGradient
    id="linearGradient20604">
   <stop
     id="stop20598"
     offset="0"
     style="stop-color:#3d3d3d;stop-opacity:1" />
   <stop
     style="stop-color:#000000;stop-opacity:1"
     offset="0.61772454"
     id="stop20600" />
   <stop
     id="stop20602"
     offset="1"
     style="stop-color:#3d3d3d;stop-opacity:1" />
  </linearGradient>
  <linearGradient
    gradientTransform="translate(0.36067797,-0.13016949)"
    xlink:href="#linearGradient4555"
    id="linearGradient4557"
    x1="43.499737"
    y1="64.011795"
    x2="44.141731"
    y2="0.30621234"
    gradientUnits="userSpaceOnUse" />
  <linearGradient
    id="linearGradient4555">
   <stop
     style="stop-color:#141618;stop-opacity:1"
     offset="0"
     id="stop4551" />
   <stop
     id="stop4559"
     offset="0.51820582"
     style="stop-color:#686868;stop-opacity:1" />
   <stop
     style="stop-color:#31363b;stop-opacity:1"
     offset="1"
     id="stop4553" />
  </linearGradient>
  <filter
    style="color-interpolation-filters:sRGB"
    id="filter4601"
    x="-0.029891876"
    width="1.0597838"
    y="-0.029749252"
    height="1.0594985">
   <feGaussianBlur
     stdDeviation="0.0055856978"
     id="feGaussianBlur4603" />
  </filter>
  <linearGradient
    id="d"
    y1="543.79999"
    y2="503.79999"
    x2="0"
    gradientUnits="userSpaceOnUse"
    gradientTransform="matrix(1.05,0,0,0.85,-20.429,78.57)">
   <stop
     stop-color="#e3dfd6"
     id="stop24865" />
   <stop
     offset="1"
     stop-color="#f4f1e8"
     id="stop24867" />
  </linearGradient>
  <linearGradient
    id="c"
    y1="513.38"
    x1="399.98999"
    y2="537.38"
    x2="424.98999"
    gradientUnits="userSpaceOnUse"
    gradientTransform="translate(-2.414,-1.586)">
   <stop
     stop-color="#292c2f"
     id="stop24860" />
   <stop
     offset="1"
     stop-opacity="0"
     id="stop24862" />
  </linearGradient>
  <linearGradient
    id="b"
    y1="35"
    x1="42"
    y2="12"
    x2="22"
    gradientUnits="userSpaceOnUse"
    gradientTransform="translate(386.57,499.8)">
   <stop
     stop-color="#197cf1"
     id="stop24855" />
   <stop
     offset="1"
     stop-color="#20bcfa"
     id="stop24857" />
  </linearGradient>
  <linearGradient
    id="a"
    y1="35"
    x1="23"
    y2="13"
    x2="5"
    gradientUnits="userSpaceOnUse"
    gradientTransform="translate(382.57,499.8)">
   <stop
     stop-color="#c61423"
     id="stop24850" />
   <stop
     offset="1"
     stop-color="#dc2b41"
     id="stop24852" />
  </linearGradient>
 </defs>
 <g
   id="g882"
   transform="matrix(0.99035713,0,0,1.1683013,-380.35753,-588.25754)">
  <rect
    style="fill:url(#d)"
    width="42"
    x="387.57001"
    y="506.79999"
    height="34"
    id="rect24879" />
  <path
    style="opacity:0.2;fill:url(#c);fill-rule:evenodd"
    d="m 389.57,531.8 11,12 h 32 v -17 l -11,-11 h -7 v 16 l -16.381,-16 h -1.619 l -5,16 z"
    id="path24881" />
  <path
    style="fill:url(#b)"
    d="m 414.57,515.8 v 16 h 7 a 5,5 0 0 0 5,-5 5,5 0 0 0 -2.86523,-4.51563 4.00001,4.00001 0 0 0 0.86523,-2.48437 4.00001,4.00001 0 0 0 -4,-4 h -4 z m 2,2 h 4 a 2,2 0 0 1 2,2 2,2 0 0 1 -2,2 h -4 z m 0,6 h 5 a 2.999994,3.00001 0 0 1 3,3 2.999994,3.00001 0 0 1 -3,3 h -5 v -3 z m 0,3 a 5,5 0 0 0 0.004,0.0762 v -0.193 a 5,5 0 0 0 -0.004,0.11719"
    id="path24883" />
  <path
    style="fill:url(#a)"
    d="m 395.73,515.8 -6.109,16 h 2.283 l 1.42,-4 h 7.287 l 1.42,4 h 2.25 l -6.098,-16 z m 1.221,2.133 2.912,7.867 h -5.813 z"
    id="path24885" />
  <g
    transform="translate(384.57,499.8)"
    id="g24891">
   <path
     style="fill:#aa7f41"
     d="M 2,6 V 42 H 46 V 6 Z M 3,7 H 45 V 41 H 3 Z"
     id="path24887" />
   <path
     style="fill:#bdb49e"
     d="m 19,9 v 2 h 4 v 26 h -4 v 2 H 29 V 37 H 25 V 11 h 4 V 9 Z"
     id="path24889" />
  </g>
 </g>
 <path
   style="display:inline;mix-blend-mode:normal;fill:url(#linearGradient3403);fill-opacity:1;stroke:url(#linearGradient20558);stroke-width:1.16242;stroke-linecap:butt;stroke-linejoin:round;stroke-miterlimit:4;stroke-dasharray:none;stroke-opacity:1"
   d="M 4.7043071,3.9814882 4.6913695,60.80196 H 58.59546 l 1.022155,-2.866369 c 0,0 -23.87537,0.766388 -32.844441,-4.140386 C 16.257548,48.042344 11.401114,4.0978197 11.401114,4.0978197 Z"
   id="path1686"
   transform="matrix(0.7518797,0,0,0.7518797,0.09970467,0.02488636)" />
 <rect
   style="display:inline;fill:none;fill-opacity:1;stroke:url(#linearGradient4557);stroke-width:3.71366;stroke-linejoin:round;stroke-miterlimit:7.8;stroke-dasharray:none;stroke-opacity:0.995146"
   id="rect4539"
   width="62.566689"
   height="62.866646"
   x="1.0323594"
   y="0.59551275"
   ry="6.2447233"
   rx="5.8029528"
   transform="matrix(0.70434793,0,0,0.70291231,1.3629847,1.5442064)" />
</svg>
