<?xml version="1.0" encoding="UTF-8" standalone="no"?>
<!-- Created with Inkscape (http://www.inkscape.org/) -->

<svg
  width="48"
  height="48"
  version="1.1"
  viewBox="0 0 48 48"
  id="svg22"
  xmlns:xlink="http://www.w3.org/1999/xlink"
  xmlns="http://www.w3.org/2000/svg"
  xmlns:svg="http://www.w3.org/2000/svg">
 <defs
   id="defs12">
  <linearGradient
    xlink:href="#linearGradient3487"
    id="linearGradient3403"
    gradientUnits="userSpaceOnUse"
    x1="6.9491749"
    y1="4.5549412"
    x2="11.215498"
    y2="59.052471" />
  <linearGradient
    id="linearGradient3487">
   <stop
     style="stop-color:#32373c;stop-opacity:1"
     offset="0"
     id="stop3481" />
   <stop
     id="stop3483"
     offset="0.36804965"
     style="stop-color:#1a1a1a;stop-opacity:1" />
   <stop
     style="stop-color:#31363b;stop-opacity:1"
     offset="1"
     id="stop3485" />
  </linearGradient>
  <linearGradient
    xlink:href="#linearGradient20604"
    id="linearGradient20558"
    gradientUnits="userSpaceOnUse"
    x1="25.802212"
    y1="20.373846"
    x2="25.111048"
    y2="58.912758" />
  <linearGradient
    id="linearGradient20604">
   <stop
     id="stop20598"
     offset="0"
     style="stop-color:#3d3d3d;stop-opacity:1" />
   <stop
     style="stop-color:#000000;stop-opacity:1"
     offset="0.61772454"
     id="stop20600" />
   <stop
     id="stop20602"
     offset="1"
     style="stop-color:#3d3d3d;stop-opacity:1" />
  </linearGradient>
  <filter
    style="color-interpolation-filters:sRGB"
    id="filter20720"
    x="-0.010593709"
    y="-0.010240529"
    width="1.021187"
    height="1.0204811">
   <feGaussianBlur
     stdDeviation="0.00027611654"
     id="feGaussianBlur20722" />
  </filter>
  <linearGradient
    gradientTransform="translate(0.36067797,-0.13016949)"
    xlink:href="#linearGradient4555"
    id="linearGradient4557"
    x1="43.499737"
    y1="64.011795"
    x2="44.141731"
    y2="0.30621234"
    gradientUnits="userSpaceOnUse" />
  <linearGradient
    id="linearGradient4555">
   <stop
     style="stop-color:#141618;stop-opacity:1"
     offset="0"
     id="stop4551" />
   <stop
     id="stop4559"
     offset="0.51820582"
     style="stop-color:#686868;stop-opacity:1" />
   <stop
     style="stop-color:#31363b;stop-opacity:1"
     offset="1"
     id="stop4553" />
  </linearGradient>
  <filter
    style="color-interpolation-filters:sRGB"
    id="filter4601"
    x="-0.029688741"
    width="1.0593775"
    y="-0.029547276"
    height="1.0590946">
   <feGaussianBlur
     stdDeviation="0.00029505065"
     id="feGaussianBlur4603" />
  </filter>
 </defs>
 <rect
   style="fill:#f9e6fb;fill-opacity:1"
   width="40"
   height="40"
   x="4"
   y="4"
   rx="2"
   ry="2"
   id="rect2"
   transform="matrix(1.0524416,0,0,1.0524416,-0.58241397,-1.8943663)" />
 <path
   fill="#f65e5e"
   d="m 25.48,44 c 10.225,0 18.516,-8.9552 18.516,-20 0,-11.0448 -8.2907,-20 -18.516,-20 -5.2381,0 -9.4839,3.4776 -9.4839,9 0,5.5224 4.5976,8.643 9,10 4.3046,1.3268 9.9678,5.4776 9.9678,11 0,5.5224 -4.2458,10 -9.4839,10 z"
   id="path1"
   transform="translate(2.3814785,-1.135768)" />
 <path
   fill="#8d62ad"
   d="M 22.51,4 C 12.285,4 3.994,12.955 3.994,24 c 0,11.045 8.2907,20 18.516,20 5.2381,0 9.4839,-3.4776 9.4839,-9 0,-5.5224 -4.5976,-8.643 -9,-10 -4.3046,-1.3268 -9.9678,-5.4776 -9.9678,-11 0,-5.5224 4.2458,-10 9.4839,-10 z"
   id="path2"
   transform="translate(2.3814785,-1.135768)" />
 <circle
   cx="332.29001"
   cy="286.22"
   r="4"
   id="circle2"
   transform="translate(-307.90852,-251.35577)"
   style="fill:#714a8e;fill-opacity:1" />
 <circle
   cx="-336.29001"
   cy="-264.22"
   r="4"
   transform="rotate(180,-153.95426,-125.67788)"
   id="circle3"
   style="fill:#f44343;fill-opacity:1" />
 <circle
   cx="332.29001"
   cy="286.22"
   r="4"
   id="circle4"
   transform="translate(-307.90852,-252.35577)"
   style="fill:#f9e6fb;fill-opacity:1" />
 <circle
   cx="-336.29001"
   cy="-264.22"
   r="4"
   transform="rotate(180,-153.95426,-126.17788)"
   id="circle5"
   style="fill:#f9e6fb;fill-opacity:1" />
 <path
   opacity="0.2"
   d="M 20.738,5.0938 C 19.424,5.229 18.151,5.5134 16.932,5.9297 14.572,7.7488 13.033,10.682 13.033,14 c 0,0.145 0.02,0.286 0.028,0.43 0.242,-4.5215 3.322,-8.2372 7.4,-9.1878 0.092,-0.0505 0.183,-0.1009 0.277,-0.1484 z M 16.025,13.48 C 16.017,13.653 16,13.823 16,14 c 0,5.522 4.598,8.643 9,10 4.191,1.292 9.654,5.265 9.939,10.57 0.011,-0.19 0.028,-0.377 0.028,-0.57 0,-5.522 -5.662,-9.673 -9.967,-11 -4.271,-1.317 -8.713,-4.3 -8.975,-9.52 z M 4.023,24.5 c -0.0038,0.168 -0.0234,0.331 -0.0234,0.5 0,11.045 8.29,20 18.516,20 1.731,0 3.349,-0.386 4.746,-1.094 -0.586,0.061 -1.178,0.094 -1.778,0.094 0.707,0 1.393,-0.088 2.055,-0.242 2.676,-1.473 4.461,-4.183 4.461,-7.758 0,-0.165 -0.017,-0.32 -0.025,-0.48 -0.261,5.216 -4.389,8.48 -9.459,8.48 -10.07,0 -18.244,-8.688 -18.493,-19.5 z m 39.954,0 C 43.776,33.221 38.423,40.56 31.068,43.07 29.501,44.279 27.575,45 25.484,45 35.71,45 44,36.045 44,25 44,24.831 43.98,24.668 43.977,24.5 Z"
   id="path5"
   transform="translate(2.3814785,-1.135768)" />
 <path
   fill="#ffffff"
   opacity="0.2"
   d="M 22.516,4 C 12.29,4 4,12.955 4,24 4,24.169 4.0196,24.332 4.0234,24.5 4.2235,15.779 9.5774,8.44 16.9324,5.93 18.4994,4.7213 20.4254,4 22.5164,4 Z m 2.968,0 C 23.753,4 22.135,4.386 20.738,5.0938 21.324,5.0335 21.916,5 22.516,5 21.809,5 21.123,5.0878 20.461,5.2422 17.785,6.7146 16,9.4251 16,13 c 0,0.165 0.017,0.32 0.025,0.48 C 16.286,8.2638 20.414,5 25.484,5 35.554,5 43.729,13.688 43.977,24.5 43.98,24.332 44,24.169 44,24 44,12.955 35.71,4 25.484,4 Z M 13.061,14.43 c -0.011,0.19 -0.028,0.377 -0.028,0.57 0,5.522 5.662,9.673 9.967,11 4.271,1.317 8.713,4.3 8.975,9.52 C 31.983,35.347 32,35.177 32,35 32,29.478 27.402,26.357 23,25 18.809,23.708 13.346,19.735 13.061,14.43 Z m 21.878,20.14 c -0.242,4.521 -3.322,8.237 -7.4,9.188 -0.092,0.05 -0.183,0.101 -0.277,0.148 1.314,-0.135 2.587,-0.419 3.806,-0.836 2.36,-1.819 3.899,-4.752 3.899,-8.07 0,-0.145 -0.02,-0.286 -0.028,-0.43 z"
   id="path6"
   transform="translate(2.3814785,-1.135768)" />
 <path
   style="display:inline;mix-blend-mode:normal;fill:url(#linearGradient3403);fill-opacity:1;stroke:url(#linearGradient20558);stroke-width:1.16242;stroke-linecap:butt;stroke-linejoin:round;stroke-miterlimit:4;stroke-dasharray:none;stroke-opacity:1"
   d="M 4.7043071,3.9814882 4.6913695,60.80196 H 58.59546 l 1.022155,-2.866369 c 0,0 -23.87537,0.766388 -32.844441,-4.140386 C 16.257548,48.042344 11.401114,4.0978197 11.401114,4.0978197 Z"
   id="path1686"
   transform="matrix(0.7518797,0,0,0.7518797,0.09970467,0.02488636)" />
 <rect
   style="display:inline;fill:none;fill-opacity:1;stroke:url(#linearGradient4557);stroke-width:3.71366;stroke-linejoin:round;stroke-miterlimit:7.8;stroke-dasharray:none;stroke-opacity:0.995146"
   id="rect4539"
   width="62.567089"
   height="62.866646"
   x="1.0323594"
   y="0.59551275"
   ry="6.2447233"
   rx="5.8029528"
   transform="matrix(0.70434793,0,0,0.70291231,1.3629847,1.5442064)" />
</svg>
