<?xml version="1.0" encoding="UTF-8" standalone="no"?>
<!-- Created with Inkscape (http://www.inkscape.org/) -->

<svg
  width="48"
  height="48"
  version="1.1"
  viewBox="0 0 48 48"
  id="svg22"
  xmlns:xlink="http://www.w3.org/1999/xlink"
  xmlns="http://www.w3.org/2000/svg"
  xmlns:svg="http://www.w3.org/2000/svg">
 <defs
   id="defs12">
  <linearGradient
    xlink:href="#linearGradient3487"
    id="linearGradient3403"
    gradientUnits="userSpaceOnUse"
    x1="6.9491749"
    y1="4.5549412"
    x2="11.215498"
    y2="59.052471" />
  <linearGradient
    id="linearGradient3487">
   <stop
     style="stop-color:#32373c;stop-opacity:1"
     offset="0"
     id="stop3481" />
   <stop
     id="stop3483"
     offset="0.36804965"
     style="stop-color:#1a1a1a;stop-opacity:1" />
   <stop
     style="stop-color:#31363b;stop-opacity:1"
     offset="1"
     id="stop3485" />
  </linearGradient>
  <linearGradient
    xlink:href="#linearGradient20604"
    id="linearGradient20558"
    gradientUnits="userSpaceOnUse"
    x1="25.802212"
    y1="20.373846"
    x2="25.111048"
    y2="58.912758" />
  <linearGradient
    id="linearGradient20604">
   <stop
     id="stop20598"
     offset="0"
     style="stop-color:#3d3d3d;stop-opacity:1" />
   <stop
     style="stop-color:#000000;stop-opacity:1"
     offset="0.61772454"
     id="stop20600" />
   <stop
     id="stop20602"
     offset="1"
     style="stop-color:#3d3d3d;stop-opacity:1" />
  </linearGradient>
  <filter
    style="color-interpolation-filters:sRGB"
    id="filter20720"
    x="-0.010581935"
    y="-0.010229147"
    width="1.0211634"
    height="1.0204583">
   <feGaussianBlur
     stdDeviation="6.6424157e-06"
     id="feGaussianBlur20722" />
  </filter>
  <linearGradient
    gradientTransform="translate(0.36067797,-0.13016949)"
    xlink:href="#linearGradient4555"
    id="linearGradient4557"
    x1="43.499737"
    y1="64.011795"
    x2="44.141731"
    y2="0.30621234"
    gradientUnits="userSpaceOnUse" />
  <linearGradient
    id="linearGradient4555">
   <stop
     style="stop-color:#141618;stop-opacity:1"
     offset="0"
     id="stop4551" />
   <stop
     id="stop4559"
     offset="0.51820582"
     style="stop-color:#686868;stop-opacity:1" />
   <stop
     style="stop-color:#31363b;stop-opacity:1"
     offset="1"
     id="stop4553" />
  </linearGradient>
  <filter
    style="color-interpolation-filters:sRGB"
    id="filter4601"
    x="-0.029677886"
    width="1.0593558"
    y="-0.029536283"
    height="1.0590726">
   <feGaussianBlur
     stdDeviation="7.0979056e-06"
     id="feGaussianBlur4603" />
  </filter>
  <linearGradient
    id="linearGradient1168-8"
    x1="26.044001"
    x2="26.044001"
    y1="43.104"
    y2="39.647999"
    gradientUnits="userSpaceOnUse">
   <stop
     stop-opacity=".35"
     offset="0"
     id="stop93-5" />
   <stop
     stop-opacity="0"
     offset="1"
     id="stop95-9" />
  </linearGradient>
  <radialGradient
    id="radialGradient1158-7"
    cx="30.995001"
    cy="31.327"
    r="5.0110002"
    gradientTransform="matrix(0,1.1627,-1.006,0,63.512,-3.8249)"
    gradientUnits="userSpaceOnUse">
   <stop
     stop-opacity="0"
     offset="0"
     id="stop86-5" />
   <stop
     stop-opacity="0"
     offset=".8"
     id="stop88-3" />
   <stop
     stop-opacity=".35"
     offset="1"
     id="stop90-8" />
  </radialGradient>
  <linearGradient
    id="linearGradient1116-8"
    x1="26.044001"
    x2="26.044001"
    y1="52.608002"
    y2="47.869999"
    gradientUnits="userSpaceOnUse">
   <stop
     stop-opacity=".35"
     offset="0"
     id="stop64-3" />
   <stop
     stop-opacity="0"
     offset="1"
     id="stop66-1" />
  </linearGradient>
  <linearGradient
    id="linearGradient1132-8"
    x1="26.044001"
    x2="26.044001"
    y1="16.069"
    y2="12.62"
    gradientUnits="userSpaceOnUse">
   <stop
     stop-opacity=".35"
     offset="0"
     id="stop69-9" />
   <stop
     stop-opacity="0"
     offset="1"
     id="stop71-6" />
  </linearGradient>
  <linearGradient
    id="linearGradient1140-4"
    x1="26.044001"
    x2="26.044001"
    y1="22.046"
    y2="20.66"
    gradientUnits="userSpaceOnUse">
   <stop
     stop-opacity=".35"
     offset="0"
     id="stop74-3" />
   <stop
     stop-opacity="0"
     offset="1"
     id="stop76-3" />
  </linearGradient>
  <radialGradient
    id="radialGradient1148-3"
    cx="31.987"
    cy="35.464001"
    r="6.9260998"
    gradientTransform="matrix(1,0,0,1.1098,0,-6.9456)"
    gradientUnits="userSpaceOnUse">
   <stop
     offset="0"
     id="stop79-8" />
   <stop
     stop-opacity=".65"
     offset=".58402"
     id="stop81-6" />
   <stop
     stop-opacity="0"
     offset="1"
     id="stop83-0" />
  </radialGradient>
  <linearGradient
    xlink:href="#linearGradient917"
    id="linearGradient919"
    x1="7.400631"
    y1="41.743092"
    x2="33.063145"
    y2="7.1074457"
    gradientUnits="userSpaceOnUse"
    gradientTransform="matrix(0.99999999,0,0,0.97510574,0.91133539,0.08273796)" />
  <linearGradient
    id="linearGradient917">
   <stop
     style="stop-color:#000000;stop-opacity:0.99607843"
     offset="0"
     id="stop913" />
   <stop
     style="stop-color:#353a3f;stop-opacity:0.99607843"
     offset="1"
     id="stop915" />
  </linearGradient>
 </defs>
 <rect
   style="display:inline;fill:url(#linearGradient919);fill-opacity:1;fill-rule:evenodd;stroke:none;stroke-width:0.916198;stroke-linejoin:round;stroke-miterlimit:7.8"
   id="rect1192"
   width="42.084602"
   height="41.648823"
   x="4.0742378"
   y="3.0260856"
   ry="0" />
 <path
   d="m 11.112,3.7041 v 0.52916 h 1.5875 c 0.29316,0 0.52916,0.236 0.52916,0.52916 v 1.5875 h 0.52916 v -1.5875 c 0,-0.58631 -0.47201,-1.0583 -1.0583,-1.0583 z M 4.2329,3.70668 c -0.58631,0 -1.0583,0.47201 -1.0583,1.0583 v 1.5875 h 0.52916 v -1.5875 c 0,-0.29315 0.236,-0.52916 0.52916,-0.52916 h 1.5875 V 3.70666 Z M 7.6111,6.34988 7.50672,6.401039 C 7.37448,6.46602 7.31376,6.535969 7.20391,6.748829 7.10819,6.934269 7.02463,7.030629 6.91142,7.086779 6.843862,7.120296 6.78656,7.12358 6.13938,7.132255 5.46002,7.141365 5.43814,7.142954 5.34874,7.18393 5.22875,7.238933 5.12501,7.33963 5.07072,7.4542 l -0.043407,0.091984 -5.167e-4,1.8329 c -1.993e-4,2.0315 -0.00605,1.9263 0.12092,2.0748 0.035052,0.04098 0.11461,0.1002 0.17673,0.13126 l 0.11265,0.05633 h 6.0583997 l 0.11317,-0.05684 c 0.06819,-0.0341 0.13857,-0.08765 0.17725,-0.13487 0.12648,-0.15445 0.12008,-0.04117 0.11989,-2.0701 L 11.90529,7.546164 11.86188,7.45418 C 11.807596,7.33966 11.70386,7.23891 11.58386,7.18391 11.494469,7.142937 11.47257,7.141347 10.79322,7.132235 10.01334,7.121773 10.02041,7.1227574 9.8878503,6.990125 c -0.039235,-0.039261 -0.1108,-0.14764 -0.15916,-0.24133 -0.10986,-0.2129 -0.17057,-0.28278 -0.30281,-0.34779 l -0.10438,-0.051159 h -1.7105 z m 0.77514,1.079 c 0.15702,-0.00653 0.31562,0.00102 0.4315,0.024288 0.33837,0.067933 0.65835,0.23563 0.91209,0.47749 0.25863,0.24652 0.43037,0.53326 0.524,0.87642 0.03722,0.13637 0.04252,0.19647 0.04134,0.46921 -0.0011,0.28453 -0.0058,0.32787 -0.05064,0.47489 -0.08853,0.29077 -0.20458,0.50384 -0.39428,0.72603 -0.21476,0.25154 -0.59417,0.48225 -0.93325,0.56739 -0.20749,0.0521 -0.52072,0.07174 -0.69918,0.04392 -0.59192,-0.09225 -1.1143,-0.45819 -1.3818,-0.96788 C 6.674,9.811928 6.61832,9.557398 6.6319,9.186348 6.645561,8.813268 6.729247,8.550798 6.93111,8.245848 7.16944,7.885808 7.53583,7.617498 7.96511,7.488808 8.07388,7.456201 8.22925,7.435392 8.38627,7.428865 Z m 0.17622,0.5085 C 8.483848,7.93256 8.40352,7.93437 8.32217,7.94358 7.78936,8.003875 7.36275,8.36156 7.19357,8.88977 7.14089,9.05424 7.12947,9.35413 7.168766,9.53572 c 0.06175,0.28524 0.23697,0.57554 0.46042,0.7612 0.32623,0.27098 0.80483,0.36909 1.218,0.2496 0.20517,-0.05933 0.38896,-0.17121 0.55914,-0.34004 0.17585,-0.17445 0.26942,-0.32453 0.34364,-0.54982 C 9.789518,9.53661 9.796604,9.47988 9.798024,9.27633 9.7993533,9.07366 9.7932288,9.01599 9.756683,8.89962 9.580573,8.33845 9.112723,7.97116 8.562483,7.93742 Z m -5.3789,3.7041 v 1.5875 c 0,0.58631 0.47201,1.0616 1.0583,1.0583 h 1.5875 v -0.52916 h -1.5875 c -0.29315,0 -0.52916,-0.236 -0.52916,-0.52916 v -1.5875 z"
   opacity="0.03"
   stroke-width="1.0583"
   id="path114-8"
   transform="matrix(-2.7859848,0,0,2.7859848,49.435627,0.62698462)" />
 <path
   d="m 11.112,3.7041 v 0.52916 h 1.5875 c 0.29316,0 0.52916,0.236 0.52916,0.52916 v 1.5875 h 0.52916 v -1.5875 c 0,-0.58631 -0.47201,-1.0583 -1.0583,-1.0583 z M 4.2329,3.70668 c -0.58631,0 -1.0583,0.47201 -1.0583,1.0583 v 1.5875 h 0.52916 v -1.5875 c 0,-0.29315 0.236,-0.52916 0.52916,-0.52916 h 1.5875 V 3.70666 Z M 7.6111,6.34988 7.50672,6.401039 C 7.37448,6.46602 7.31376,6.535969 7.20391,6.748829 7.10819,6.934269 7.02463,7.030629 6.91142,7.086779 6.843862,7.120296 6.78656,7.12358 6.13938,7.132255 5.46002,7.141365 5.43814,7.142954 5.34874,7.18393 5.22875,7.238933 5.12501,7.33963 5.07072,7.4542 l -0.043407,0.091984 -5.167e-4,1.8329 c -1.993e-4,2.0315 -0.00605,1.9263 0.12092,2.0748 0.035052,0.04098 0.11461,0.1002 0.17673,0.13126 l 0.11265,0.05633 h 6.0583997 l 0.11317,-0.05684 c 0.06819,-0.0341 0.13857,-0.08765 0.17725,-0.13487 0.12648,-0.15445 0.12008,-0.04117 0.11989,-2.0701 L 11.90529,7.546164 11.86188,7.45418 C 11.807596,7.33966 11.70386,7.23891 11.58386,7.18391 11.494469,7.142937 11.47257,7.141347 10.79322,7.132235 10.01334,7.121773 10.02041,7.1227574 9.8878503,6.990125 c -0.039235,-0.039261 -0.1108,-0.14764 -0.15916,-0.24133 -0.10986,-0.2129 -0.17057,-0.28278 -0.30281,-0.34779 l -0.10438,-0.051159 h -1.7105 z m 0.77514,1.079 c 0.15702,-0.00653 0.31562,0.00102 0.4315,0.024288 0.33837,0.067933 0.65835,0.23563 0.91209,0.47749 0.25863,0.24652 0.43037,0.53326 0.524,0.87642 0.03722,0.13637 0.04252,0.19647 0.04134,0.46921 -0.0011,0.28453 -0.0058,0.32787 -0.05064,0.47489 -0.08853,0.29077 -0.20458,0.50384 -0.39428,0.72603 -0.21476,0.25154 -0.59417,0.48225 -0.93325,0.56739 -0.20749,0.0521 -0.52072,0.07174 -0.69918,0.04392 -0.59192,-0.09225 -1.1143,-0.45819 -1.3818,-0.96788 C 6.674,9.811928 6.61832,9.557398 6.6319,9.186348 6.645561,8.813268 6.729247,8.550798 6.93111,8.245848 7.16944,7.885808 7.53583,7.617498 7.96511,7.488808 8.07388,7.456201 8.22925,7.435392 8.38627,7.428865 Z m 0.17622,0.5085 C 8.483848,7.93256 8.40352,7.93437 8.32217,7.94358 7.78936,8.003875 7.36275,8.36156 7.19357,8.88977 7.14089,9.05424 7.12947,9.35413 7.168766,9.53572 c 0.06175,0.28524 0.23697,0.57554 0.46042,0.7612 0.32623,0.27098 0.80483,0.36909 1.218,0.2496 0.20517,-0.05933 0.38896,-0.17121 0.55914,-0.34004 0.17585,-0.17445 0.26942,-0.32453 0.34364,-0.54982 C 9.789518,9.53661 9.796604,9.47988 9.798024,9.27633 9.7993533,9.07366 9.7932288,9.01599 9.756683,8.89962 9.580573,8.33845 9.112723,7.97116 8.562483,7.93742 Z m -5.3789,3.7041 v 1.5875 c 0,0.58631 0.47201,1.0616 1.0583,1.0583 h 1.5875 v -0.52916 h -1.5875 c -0.29315,0 -0.52916,-0.236 -0.52916,-0.52916 v -1.5875 z"
   opacity="0.03"
   stroke-width="0.79373"
   id="path116-9"
   transform="matrix(-2.7859848,0,0,2.7859848,49.435627,0.62698462)" />
 <path
   d="m 11.112,3.7041 v 0.52916 h 1.5875 c 0.29316,0 0.52916,0.236 0.52916,0.52916 v 1.5875 h 0.52916 v -1.5875 c 0,-0.58631 -0.47201,-1.0583 -1.0583,-1.0583 z M 4.2329,3.70668 c -0.58631,0 -1.0583,0.47201 -1.0583,1.0583 v 1.5875 h 0.52916 v -1.5875 c 0,-0.29315 0.236,-0.52916 0.52916,-0.52916 h 1.5875 V 3.70666 Z M 7.6111,6.34988 7.50672,6.401039 C 7.37448,6.46602 7.31376,6.535969 7.20391,6.748829 7.10819,6.934269 7.02463,7.030629 6.91142,7.086779 6.843862,7.120296 6.78656,7.12358 6.13938,7.132255 5.46002,7.141365 5.43814,7.142954 5.34874,7.18393 5.22875,7.238933 5.12501,7.33963 5.07072,7.4542 l -0.043407,0.091984 -5.167e-4,1.8329 c -1.993e-4,2.0315 -0.00605,1.9263 0.12092,2.0748 0.035052,0.04098 0.11461,0.1002 0.17673,0.13126 l 0.11265,0.05633 h 6.0583997 l 0.11317,-0.05684 c 0.06819,-0.0341 0.13857,-0.08765 0.17725,-0.13487 0.12648,-0.15445 0.12008,-0.04117 0.11989,-2.0701 L 11.90529,7.546164 11.86188,7.45418 C 11.807596,7.33966 11.70386,7.23891 11.58386,7.18391 11.494469,7.142937 11.47257,7.141347 10.79322,7.132235 10.01334,7.121773 10.02041,7.1227574 9.8878503,6.990125 c -0.039235,-0.039261 -0.1108,-0.14764 -0.15916,-0.24133 -0.10986,-0.2129 -0.17057,-0.28278 -0.30281,-0.34779 l -0.10438,-0.051159 h -1.7105 z m 0.77514,1.079 c 0.15702,-0.00653 0.31562,0.00102 0.4315,0.024288 0.33837,0.067933 0.65835,0.23563 0.91209,0.47749 0.25863,0.24652 0.43037,0.53326 0.524,0.87642 0.03722,0.13637 0.04252,0.19647 0.04134,0.46921 -0.0011,0.28453 -0.0058,0.32787 -0.05064,0.47489 -0.08853,0.29077 -0.20458,0.50384 -0.39428,0.72603 -0.21476,0.25154 -0.59417,0.48225 -0.93325,0.56739 -0.20749,0.0521 -0.52072,0.07174 -0.69918,0.04392 -0.59192,-0.09225 -1.1143,-0.45819 -1.3818,-0.96788 C 6.674,9.811928 6.61832,9.557398 6.6319,9.186348 6.645561,8.813268 6.729247,8.550798 6.93111,8.245848 7.16944,7.885808 7.53583,7.617498 7.96511,7.488808 8.07388,7.456201 8.22925,7.435392 8.38627,7.428865 Z m 0.17622,0.5085 C 8.483848,7.93256 8.40352,7.93437 8.32217,7.94358 7.78936,8.003875 7.36275,8.36156 7.19357,8.88977 7.14089,9.05424 7.12947,9.35413 7.168766,9.53572 c 0.06175,0.28524 0.23697,0.57554 0.46042,0.7612 0.32623,0.27098 0.80483,0.36909 1.218,0.2496 0.20517,-0.05933 0.38896,-0.17121 0.55914,-0.34004 0.17585,-0.17445 0.26942,-0.32453 0.34364,-0.54982 C 9.789518,9.53661 9.796604,9.47988 9.798024,9.27633 9.7993533,9.07366 9.7932288,9.01599 9.756683,8.89962 9.580573,8.33845 9.112723,7.97116 8.562483,7.93742 Z m -5.3789,3.7041 v 1.5875 c 0,0.58631 0.47201,1.0616 1.0583,1.0583 h 1.5875 v -0.52916 h -1.5875 c -0.29315,0 -0.52916,-0.236 -0.52916,-0.52916 v -1.5875 z"
   opacity="0.03"
   stroke-width="0.52916"
   id="path118-7"
   transform="matrix(-2.7859848,0,0,2.7859848,49.435627,0.62698462)" />
 <path
   d="m 11.112,3.7041 v 0.52916 h 1.5875 c 0.29316,0 0.52916,0.236 0.52916,0.52916 v 1.5875 h 0.52916 v -1.5875 c 0,-0.58631 -0.47201,-1.0583 -1.0583,-1.0583 z M 4.2329,3.70668 c -0.58631,0 -1.0583,0.47201 -1.0583,1.0583 v 1.5875 h 0.52916 v -1.5875 c 0,-0.29315 0.236,-0.52916 0.52916,-0.52916 h 1.5875 V 3.70666 Z M 7.6111,6.34988 7.50672,6.401039 C 7.37448,6.46602 7.31376,6.535969 7.20391,6.748829 7.10819,6.934269 7.02463,7.030629 6.91142,7.086779 6.843862,7.120296 6.78656,7.12358 6.13938,7.132255 5.46002,7.141365 5.43814,7.142954 5.34874,7.18393 5.22875,7.238933 5.12501,7.33963 5.07072,7.4542 l -0.043407,0.091984 -5.167e-4,1.8329 c -1.993e-4,2.0315 -0.00605,1.9263 0.12092,2.0748 0.035052,0.04098 0.11461,0.1002 0.17673,0.13126 l 0.11265,0.05633 h 6.0583997 l 0.11317,-0.05684 c 0.06819,-0.0341 0.13857,-0.08765 0.17725,-0.13487 0.12648,-0.15445 0.12008,-0.04117 0.11989,-2.0701 L 11.90529,7.546164 11.86188,7.45418 C 11.807596,7.33966 11.70386,7.23891 11.58386,7.18391 11.494469,7.142937 11.47257,7.141347 10.79322,7.132235 10.01334,7.121773 10.02041,7.1227574 9.8878503,6.990125 c -0.039235,-0.039261 -0.1108,-0.14764 -0.15916,-0.24133 -0.10986,-0.2129 -0.17057,-0.28278 -0.30281,-0.34779 l -0.10438,-0.051159 h -1.7105 z m 0.77514,1.079 c 0.15702,-0.00653 0.31562,0.00102 0.4315,0.024288 0.33837,0.067933 0.65835,0.23563 0.91209,0.47749 0.25863,0.24652 0.43037,0.53326 0.524,0.87642 0.03722,0.13637 0.04252,0.19647 0.04134,0.46921 -0.0011,0.28453 -0.0058,0.32787 -0.05064,0.47489 -0.08853,0.29077 -0.20458,0.50384 -0.39428,0.72603 -0.21476,0.25154 -0.59417,0.48225 -0.93325,0.56739 -0.20749,0.0521 -0.52072,0.07174 -0.69918,0.04392 -0.59192,-0.09225 -1.1143,-0.45819 -1.3818,-0.96788 C 6.674,9.811928 6.61832,9.557398 6.6319,9.186348 6.645561,8.813268 6.729247,8.550798 6.93111,8.245848 7.16944,7.885808 7.53583,7.617498 7.96511,7.488808 8.07388,7.456201 8.22925,7.435392 8.38627,7.428865 Z m 0.17622,0.5085 C 8.483848,7.93256 8.40352,7.93437 8.32217,7.94358 7.78936,8.003875 7.36275,8.36156 7.19357,8.88977 7.14089,9.05424 7.12947,9.35413 7.168766,9.53572 c 0.06175,0.28524 0.23697,0.57554 0.46042,0.7612 0.32623,0.27098 0.80483,0.36909 1.218,0.2496 0.20517,-0.05933 0.38896,-0.17121 0.55914,-0.34004 0.17585,-0.17445 0.26942,-0.32453 0.34364,-0.54982 C 9.789518,9.53661 9.796604,9.47988 9.798024,9.27633 9.7993533,9.07366 9.7932288,9.01599 9.756683,8.89962 9.580573,8.33845 9.112723,7.97116 8.562483,7.93742 Z m -5.3789,3.7041 v 1.5875 c 0,0.58631 0.47201,1.0616 1.0583,1.0583 h 1.5875 v -0.52916 h -1.5875 c -0.29315,0 -0.52916,-0.236 -0.52916,-0.52916 v -1.5875 z"
   opacity="0.04"
   stroke-width="0.26458"
   id="path120-7"
   transform="matrix(-2.7859848,0,0,2.7859848,49.435627,0.62698462)" />
 <path
   d="m 11.112,3.7041 v 0.52916 h 1.5875 c 0.29316,0 0.52916,0.236 0.52916,0.52916 v 1.5875 h 0.52916 v -1.5875 c 0,-0.58631 -0.47201,-1.0583 -1.0583,-1.0583 z M 4.2329,3.70668 c -0.58631,0 -1.0583,0.47201 -1.0583,1.0583 v 1.5875 h 0.52916 v -1.5875 c 0,-0.29315 0.236,-0.52916 0.52916,-0.52916 h 1.5875 V 3.70666 Z M 7.6111,6.34988 7.50672,6.401039 C 7.37448,6.46602 7.31376,6.535969 7.20391,6.748829 7.10819,6.934269 7.02463,7.030629 6.91142,7.086779 6.843862,7.120296 6.78656,7.12358 6.13938,7.132255 5.46002,7.141365 5.43814,7.142954 5.34874,7.18393 5.22875,7.238933 5.12501,7.33963 5.07072,7.4542 l -0.043407,0.091984 -5.167e-4,1.8329 c -1.993e-4,2.0315 -0.00605,1.9263 0.12092,2.0748 0.035052,0.04098 0.11461,0.1002 0.17673,0.13126 l 0.11265,0.05633 h 6.0583997 l 0.11317,-0.05684 c 0.06819,-0.0341 0.13857,-0.08765 0.17725,-0.13487 0.12648,-0.15445 0.12008,-0.04117 0.11989,-2.0701 L 11.90529,7.546164 11.86188,7.45418 C 11.807596,7.33966 11.70386,7.23891 11.58386,7.18391 11.494469,7.142937 11.47257,7.141347 10.79322,7.132235 10.01334,7.121773 10.02041,7.1227574 9.8878503,6.990125 c -0.039235,-0.039261 -0.1108,-0.14764 -0.15916,-0.24133 -0.10986,-0.2129 -0.17057,-0.28278 -0.30281,-0.34779 l -0.10438,-0.051159 h -1.7105 z m 0.77514,1.079 c 0.15702,-0.00653 0.31562,0.00102 0.4315,0.024288 0.33837,0.067933 0.65835,0.23563 0.91209,0.47749 0.25863,0.24652 0.43037,0.53326 0.524,0.87642 0.03722,0.13637 0.04252,0.19647 0.04134,0.46921 -0.0011,0.28453 -0.0058,0.32787 -0.05064,0.47489 -0.08853,0.29077 -0.20458,0.50384 -0.39428,0.72603 -0.21476,0.25154 -0.59417,0.48225 -0.93325,0.56739 -0.20749,0.0521 -0.52072,0.07174 -0.69918,0.04392 -0.59192,-0.09225 -1.1143,-0.45819 -1.3818,-0.96788 C 6.674,9.811928 6.61832,9.557398 6.6319,9.186348 6.645561,8.813268 6.729247,8.550798 6.93111,8.245848 7.16944,7.885808 7.53583,7.617498 7.96511,7.488808 8.07388,7.456201 8.22925,7.435392 8.38627,7.428865 Z m 0.17622,0.5085 C 8.483848,7.93256 8.40352,7.93437 8.32217,7.94358 7.78936,8.003875 7.36275,8.36156 7.19357,8.88977 7.14089,9.05424 7.12947,9.35413 7.168766,9.53572 c 0.06175,0.28524 0.23697,0.57554 0.46042,0.7612 0.32623,0.27098 0.80483,0.36909 1.218,0.2496 0.20517,-0.05933 0.38896,-0.17121 0.55914,-0.34004 0.17585,-0.17445 0.26942,-0.32453 0.34364,-0.54982 C 9.789518,9.53661 9.796604,9.47988 9.798024,9.27633 9.7993533,9.07366 9.7932288,9.01599 9.756683,8.89962 9.580573,8.33845 9.112723,7.97116 8.562483,7.93742 Z m -5.3789,3.7041 v 1.5875 c 0,0.58631 0.47201,1.0616 1.0583,1.0583 h 1.5875 v -0.52916 h -1.5875 c -0.29315,0 -0.52916,-0.236 -0.52916,-0.52916 v -1.5875 z"
   opacity="0.05"
   stroke-width="0.0184"
   id="path124-6"
   transform="matrix(-2.7859848,0,0,2.7859848,49.435627,0.62698462)" />
 <path
   d="m 42,12 v 2 h 6 c 1.108,0 2,0.89199 2,2 v 6 h 2 v -6 c 0,-2.216 -1.784,-4 -4,-4 z m -26,0.0098 c -2.216,0 -4,1.784 -4,4 v 6 h 2 v -6 c 0,-1.108 0.89199,-2 2,-2 h 6 v -2 z M 28.768,22 28.37347,22.19336 c -0.49981,0.2456 -0.7293,0.50998 -1.1445,1.3145 -0.36178,0.7009 -0.6776,1.0651 -1.1055,1.2773 -0.25534,0.12668 -0.47193,0.13909 -2.918,0.17188 -2.5677,0.03442 -2.6504,0.04044 -2.9883,0.19531 -0.45353,0.20789 -0.84561,0.58848 -1.0508,1.0215 l -0.16406,0.34766 -0.002,6.9277 c -7.53e-4,7.6783 -0.02288,7.2805 0.45703,7.8418 0.13248,0.15489 0.43319,0.37872 0.66797,0.49609 l 0.42578,0.21289 h 22.898 l 0.42773,-0.21484 c 0.25773,-0.12888 0.52372,-0.33126 0.66992,-0.50976 0.47803,-0.58374 0.45387,-0.15562 0.45312,-7.8242 l -0.002,-6.9297 -0.16406,-0.34766 c -0.20518,-0.43281 -0.59725,-0.8136 -1.0508,-1.0215 -0.33786,-0.15486 -0.42062,-0.16087 -2.9883,-0.19531 -2.9476,-0.03954 -2.9209,-0.03582 -3.4219,-0.53711 -0.14829,-0.14839 -0.41879,-0.558 -0.60156,-0.91211 -0.41522,-0.80466 -0.6447,-1.0688 -1.1445,-1.3145 l -0.39453,-0.19336 h -6.4648 z m 2.9297,4.0781 c 0.59347,-0.02467 1.1929,0.0039 1.6309,0.0918 1.2789,0.25676 2.4883,0.89058 3.4473,1.8047 0.97751,0.93174 1.6266,2.0155 1.9805,3.3125 0.14068,0.51542 0.16071,0.74259 0.15625,1.7734 -0.0042,1.0754 -0.02181,1.2392 -0.19141,1.7949 -0.33461,1.099 -0.77321,1.9043 -1.4902,2.7441 -0.81169,0.9507 -2.2457,1.8227 -3.5273,2.1445 -0.78422,0.19692 -1.9681,0.27113 -2.6426,0.16602 -2.2372,-0.3487 -4.2117,-1.7318 -5.2227,-3.6582 -0.61237,-1.1668 -0.82283,-2.1288 -0.77148,-3.5312 0.05163,-1.4101 0.36793,-2.4021 1.1309,-3.5547 0.90078,-1.3608 2.2856,-2.3749 3.9082,-2.8613 0.41111,-0.12324 0.99833,-0.20189 1.5918,-0.22656 z M 32.36372,28 c -0.29712,-0.01821 -0.60072,-0.01136 -0.9082,0.02344 -2.0138,0.22789 -3.6262,1.5798 -4.2656,3.5762 -0.19911,0.62161 -0.24227,1.7551 -0.09375,2.4414 0.23339,1.0781 0.89563,2.1753 1.7402,2.877 1.233,1.0242 3.0419,1.395 4.6035,0.94336 0.77546,-0.22426 1.4701,-0.6471 2.1133,-1.2852 0.66464,-0.65935 1.0183,-1.2266 1.2988,-2.0781 0.14949,-0.45372 0.17627,-0.66814 0.18164,-1.4375 0.005,-0.766 -0.01812,-0.98398 -0.15625,-1.4238 -0.66561,-2.121 -2.4339,-3.5092 -4.5137,-3.6367 z m -20.33,14 v 6 c 0,2.216 1.784,4.0124 4,4 h 6 v -2 h -6 c -1.108,0 -2,-0.89199 -2,-2 v -6 z"
   fill="#f8f8f8"
   stroke-width="0.069543"
   id="path128-4"
   transform="matrix(-0.73711586,0,0,0.73711586,49.435627,0.62698462)" />
 <path
   transform="matrix(-0.73711586,0,0,0.73711586,49.435627,0.62698462)"
   d="m 19,32.412 v 1.0371 c -7.53e-4,7.6784 -0.02288,7.2805 0.45703,7.8418 0.13248,0.15489 0.43319,0.37872 0.66797,0.49609 l 0.42578,0.21289 h 22.898 l 0.42773,-0.21484 c 0.25773,-0.12888 0.52372,-0.33126 0.66992,-0.50976 0.47803,-0.58374 0.45388,-0.15558 0.45312,-7.8242 v -1.0371 c 0.0014,7.2301 0.01595,6.9233 -0.45312,7.4961 -0.1462,0.17848 -0.41219,0.38088 -0.66992,0.50977 l -0.42773,0.21484 h -22.898 L 20.125,40.4218 C 19.89022,40.30443 19.58951,40.08059 19.45703,39.92571 18.98611,39.37491 18.99865,39.65332 19,32.41201 Z"
   fill="url(#linearGradient1168)"
   id="path132-3"
   style="fill:url(#linearGradient1168-8)" />
 <path
   transform="matrix(-0.73711586,0,0,0.73711586,49.435627,0.62698462)"
   d="m 37.01,32.242 c -0.02033,0.33058 -0.05761,0.58532 -0.1582,0.89062 -0.2805,0.85151 -0.63418,1.4188 -1.2988,2.0781 -0.6432,0.6381 -1.3378,1.0609 -2.1133,1.2852 -1.5616,0.45164 -3.3705,0.08085 -4.6035,-0.94336 -0.84458,-0.7017 -1.5068,-1.7988 -1.7402,-2.877 -0.02086,-0.09641 -0.02957,-0.21672 -0.04297,-0.32812 -0.06269,0.57444 -0.05694,1.2317 0.04297,1.6934 0.23339,1.0781 0.89566,2.1752 1.7402,2.877 1.233,1.0242 3.0419,1.395 4.6035,0.94336 0.77547,-0.22426 1.4701,-0.64705 2.1133,-1.2852 0.66464,-0.65936 1.0183,-1.2266 1.2988,-2.0781 0.14949,-0.45372 0.17627,-0.66814 0.18164,-1.4375 0.0025,-0.37583 -0.0021,-0.61545 -0.02344,-0.81836 z"
   fill="url(#radialGradient1158)"
   id="path134-0"
   style="fill:url(#radialGradient1158-7)" />
 <path
   transform="matrix(-0.73711586,0,0,0.73711586,49.435627,0.62698462)"
   d="m 12.033,46.635 v 1.3652 c 0,2.216 1.784,4.0124 4,4 h 6 V 50.635 h -6 c -2.216,0.0124 -4,-1.784 -4,-4 z"
   fill="url(#linearGradient1116)"
   id="path174-0"
   style="display:none;fill:url(#linearGradient1116-8)" />
 <path
   transform="matrix(-0.73711586,0,0,0.73711586,49.435627,0.62698462)"
   d="m 42,12.635 v 1.3652 h 6 c 1.108,0 2,0.89198 2,2 V 14.635 c 0,-1.108 -0.89199,-2 -2,-2 z m -26,0.0098 c -1.108,0 -2,0.89199 -2,2 V 16.01 c 0,-1.108 0.89198,-2 2,-2 h 6 v -1.3652 z"
   fill="url(#linearGradient1132)"
   id="path176-9"
   style="display:inline;fill:url(#linearGradient1132-8)" />
 <path
   transform="matrix(-0.73711586,0,0,0.73711586,49.435627,0.62698462)"
   d="m 50,20.635 v 1.3652 h 2 V 20.635 Z M 12,20.6448 V 22.01 h 2 v -1.3652 z"
   fill="url(#linearGradient1140)"
   id="path178-2"
   style="display:inline;fill:url(#linearGradient1140-4)" />
 <path
   transform="matrix(-0.73711586,0,0,0.73711586,49.435627,0.62698462)"
   d="m 31.697,24.713 c -0.59348,0.02467 -1.1807,0.10332 -1.5918,0.22656 -1.6226,0.4864 -3.0074,1.5005 -3.9082,2.8613 -0.76298,1.1526 -1.0792,2.1446 -1.1309,3.5547 -0.01424,0.38896 -0.0017,0.73925 0.02734,1.0742 0.08485,-1.2522 0.39671,-2.1959 1.1035,-3.2637 0.90079,-1.3608 2.2856,-2.3749 3.9082,-2.8613 0.41111,-0.12324 0.99832,-0.20189 1.5918,-0.22656 0.59347,-0.02467 1.1929,0.0039 1.6309,0.0918 1.2789,0.25676 2.4883,0.89056 3.4473,1.8047 0.97752,0.93175 1.6266,2.0155 1.9805,3.3125 0.08878,0.32528 0.12182,0.60644 0.13867,0.97656 0.0054,-0.17938 0.0165,-0.28844 0.01758,-0.56836 0.0045,-1.0308 -0.01557,-1.258 -0.15625,-1.7734 -0.3539,-1.297 -1.003,-2.3808 -1.9805,-3.3125 -0.95901,-0.91413 -2.1684,-1.5479 -3.4473,-1.8047 -0.438,-0.08794 -1.0374,-0.11648 -1.6309,-0.0918 z"
   fill="url(#radialGradient1148)"
   id="path180-5"
   style="fill:url(#radialGradient1148-3)" />
 <path
   d="m 3.18356,11.64148 v 1.5875 c 0,0.58631 0.47201,1.0616 1.0583,1.0583 h 1.5875 v -0.52916 h -1.5875 c -0.29315,0 -0.52916,-0.236 -0.52916,-0.52916 v -1.5875 z"
   opacity="0.03"
   stroke-width="1.0583"
   id="path114-1"
   transform="matrix(2.7859848,0,0,2.7859848,2.2410447,0.69680585)" />
 <path
   d="m 3.18356,11.64148 v 1.5875 c 0,0.58631 0.47201,1.0616 1.0583,1.0583 h 1.5875 v -0.52916 h -1.5875 c -0.29315,0 -0.52916,-0.236 -0.52916,-0.52916 v -1.5875 z"
   opacity="0.03"
   stroke-width="0.79373"
   id="path116-0"
   transform="matrix(2.7859848,0,0,2.7859848,2.2410447,0.69680585)" />
 <path
   d="m 3.18356,11.64148 v 1.5875 c 0,0.58631 0.47201,1.0616 1.0583,1.0583 h 1.5875 v -0.52916 h -1.5875 c -0.29315,0 -0.52916,-0.236 -0.52916,-0.52916 v -1.5875 z"
   opacity="0.03"
   stroke-width="0.52916"
   id="path118-5"
   transform="matrix(2.7859848,0,0,2.7859848,2.2410447,0.69680585)" />
 <path
   d="m 3.18356,11.64148 v 1.5875 c 0,0.58631 0.47201,1.0616 1.0583,1.0583 h 1.5875 v -0.52916 h -1.5875 c -0.29315,0 -0.52916,-0.236 -0.52916,-0.52916 v -1.5875 z"
   opacity="0.04"
   stroke-width="0.26458"
   id="path120-1"
   transform="matrix(2.7859848,0,0,2.7859848,2.2410447,0.69680585)" />
 <path
   d="m 3.18356,11.64148 v 1.5875 c 0,0.58631 0.47201,1.0616 1.0583,1.0583 h 1.5875 v -0.52916 h -1.5875 c -0.29315,0 -0.52916,-0.236 -0.52916,-0.52916 v -1.5875 z"
   opacity="0.05"
   stroke-width="0.0184"
   id="path124-1"
   transform="matrix(2.7859848,0,0,2.7859848,2.2410447,0.69680585)" />
 <path
   d="m 19.588165,7.1828317 v 1.58748 c 0,0.5863093 0.472011,1.0616008 1.05832,1.05832 h 1.58748 v -0.52916 h -1.58748 c -0.293155,0 -0.52916,-0.2360027 -0.52916,-0.52916 v -1.58748 z"
   fill="#f8f8f8"
   stroke-width="0.0183997"
   id="path128-0"
   transform="matrix(2.7859848,0,0,2.7859848,-43.461038,11.644412)" />
 <path
   style="display:inline;mix-blend-mode:normal;fill:url(#linearGradient3403);fill-opacity:1;stroke:url(#linearGradient20558);stroke-width:1.16242;stroke-linecap:butt;stroke-linejoin:round;stroke-miterlimit:4;stroke-dasharray:none;stroke-opacity:1"
   d="M 4.7043071,3.9814882 4.6913695,60.80196 H 58.59546 l 1.022155,-2.866369 c 0,0 -23.87537,0.766388 -32.844441,-4.140386 C 16.257548,48.042344 11.401114,4.0978197 11.401114,4.0978197 Z"
   id="path1686"
   transform="matrix(0.7518797,0,0,0.7518797,0.09970467,0.02488636)" />
 <rect
   style="display:inline;fill:none;fill-opacity:1;stroke:url(#linearGradient4557);stroke-width:3.71366;stroke-linejoin:round;stroke-miterlimit:7.8;stroke-dasharray:none;stroke-opacity:0.995146"
   id="rect4539"
   width="62.566689"
   height="62.866646"
   x="1.0323594"
   y="0.59551275"
   ry="6.2447233"
   rx="5.8029528"
   transform="matrix(0.70434793,0,0,0.70291231,1.3629847,1.5442064)" />
</svg>
