<?xml version="1.0" encoding="UTF-8" standalone="no"?>
<!-- Created with Inkscape (http://www.inkscape.org/) -->

<svg
  width="48"
  height="48"
  version="1.1"
  viewBox="0 0 48 48"
  id="svg22"
  xmlns:xlink="http://www.w3.org/1999/xlink"
  xmlns="http://www.w3.org/2000/svg"
  xmlns:svg="http://www.w3.org/2000/svg">
 <defs
   id="defs12">
  <linearGradient
    id="linearGradient1005-3-3"
    x1="5.2535"
    x2="9.3823996"
    y1="15.383"
    y2="2.9421"
    gradientTransform="matrix(0.99999,0,0,0.99999,1.632,-0.61743)"
    gradientUnits="userSpaceOnUse">
   <stop
     stop-color="#fa8200"
     offset="0"
     id="stop2" />
   <stop
     stop-color="#ff9600"
     offset=".36953"
     id="stop4" />
   <stop
     stop-color="#ffb400"
     offset="1"
     id="stop6" />
  </linearGradient>
  <filter
    id="filter4014"
    x="-0.062499932"
    y="-0.057692992"
    width="1.1249999"
    height="1.115386"
    color-interpolation-filters="sRGB">
   <feGaussianBlur
     stdDeviation="1.093751"
     id="feGaussianBlur9" />
  </filter>
  <linearGradient
    xlink:href="#linearGradient3487"
    id="linearGradient3403"
    gradientUnits="userSpaceOnUse"
    x1="6.9491749"
    y1="4.5549412"
    x2="11.215498"
    y2="59.052471" />
  <linearGradient
    id="linearGradient3487">
   <stop
     style="stop-color:#32373c;stop-opacity:1"
     offset="0"
     id="stop3481" />
   <stop
     id="stop3483"
     offset="0.36804965"
     style="stop-color:#1a1a1a;stop-opacity:1" />
   <stop
     style="stop-color:#31363b;stop-opacity:1"
     offset="1"
     id="stop3485" />
  </linearGradient>
  <linearGradient
    xlink:href="#linearGradient20604"
    id="linearGradient20558"
    gradientUnits="userSpaceOnUse"
    x1="25.802212"
    y1="20.373846"
    x2="25.111048"
    y2="58.912758" />
  <linearGradient
    id="linearGradient20604">
   <stop
     id="stop20598"
     offset="0"
     style="stop-color:#3d3d3d;stop-opacity:1" />
   <stop
     style="stop-color:#000000;stop-opacity:1"
     offset="0.61772454"
     id="stop20600" />
   <stop
     id="stop20602"
     offset="1"
     style="stop-color:#3d3d3d;stop-opacity:1" />
  </linearGradient>
  <filter
    style="color-interpolation-filters:sRGB"
    id="filter20720"
    x="-0.017024755"
    y="-0.016457183"
    width="1.0340491"
    height="1.0329144">
   <feGaussianBlur
     stdDeviation="0.14745661"
     id="feGaussianBlur20722" />
  </filter>
  <linearGradient
    gradientTransform="translate(0.36067797,-0.13016949)"
    xlink:href="#linearGradient4555"
    id="linearGradient4557"
    x1="43.499737"
    y1="64.011795"
    x2="44.141731"
    y2="0.30621234"
    gradientUnits="userSpaceOnUse" />
  <linearGradient
    id="linearGradient4555">
   <stop
     style="stop-color:#141618;stop-opacity:1"
     offset="0"
     id="stop4551" />
   <stop
     id="stop4559"
     offset="0.51820582"
     style="stop-color:#686868;stop-opacity:1" />
   <stop
     style="stop-color:#31363b;stop-opacity:1"
     offset="1"
     id="stop4553" />
  </linearGradient>
  <filter
    style="color-interpolation-filters:sRGB"
    id="filter4601"
    x="-0.030244955"
    width="1.0604899"
    y="-0.030100647"
    height="1.0602013">
   <feGaussianBlur
     stdDeviation="0.014790289"
     id="feGaussianBlur4603" />
  </filter>
  <linearGradient
    y2="5.1285472"
    x2="35.057411"
    y1="59.389938"
    x1="31.050081"
    gradientTransform="translate(0.36135313,-0.12490449)"
    gradientUnits="userSpaceOnUse"
    id="linearGradient22779"
    xlink:href="#linearGradient22785" />
  <linearGradient
    id="linearGradient22785">
   <stop
     style="stop-color:#7ebbf8;stop-opacity:1"
     offset="0"
     id="stop22781" />
   <stop
     style="stop-color:#eff9ff;stop-opacity:1"
     offset="1"
     id="stop22783" />
  </linearGradient>
  <linearGradient
    id="b"
    y1="44"
    y2="4"
    x2="0"
    gradientUnits="userSpaceOnUse">
   <stop
     stop-color="#7cbaf8"
     id="stop22737" />
   <stop
     offset="1"
     stop-color="#f4fcff"
     id="stop22739" />
  </linearGradient>
  <linearGradient
    id="c"
    y1="39"
    y2="9"
    x2="0"
    gradientUnits="userSpaceOnUse"
    gradientTransform="matrix(1.02857,0,0,1.2,-5.314,-4.8)">
   <stop
     stop-color="#197cf1"
     id="stop22742" />
   <stop
     offset="1"
     stop-color="#20bcfa"
     id="stop22744" />
  </linearGradient>
  <linearGradient
    id="a"
    y1="1016.36"
    x1="13"
    y2="1040.36"
    gradientUnits="userSpaceOnUse"
    x2="36">
   <stop
     stop-color="#292c2f"
     id="stop22732" />
   <stop
     offset="1"
     stop-opacity="0"
     id="stop22734" />
  </linearGradient>
 </defs>
 <g
   id="g878"
   transform="matrix(0.65466084,0,0,0.65466084,3.4075675,2.9041395)">
  <rect
    y="0.60077608"
    x="1.033034"
    height="62.866646"
    width="62.567139"
    id="rect4539-1"
    style="opacity:1;fill:url(#linearGradient22779);fill-opacity:1;stroke:none;stroke-width:1.146;stroke-linejoin:round;stroke-miterlimit:7.8;stroke-dasharray:none;stroke-opacity:0.995146" />
  <g
    style="fill-rule:evenodd"
    transform="matrix(1.33,0,0,1.33,4.4067739,-1335.815)"
    id="g22757">
   <g
     style="color:#000000;stroke-width:2"
     id="g22753">
    <path
      style="fill:url(#b)"
      d="M 44,24 A 20,20 0 1 1 4,24 20,20 0 1 1 44,24"
      transform="translate(0,1004.36)"
      id="path22749" />
    <path
      style="fill:url(#c)"
      d="M 24,6 C 14.059,6 6,14.06 6,24 6,33.941 14.06,42 24,42 33.941,42 42,33.94 42,24 42,14.059 33.94,6 24,6 m -2,6 h 4 v 4 h -4 z m 0,8 h 4 V 36 H 22 V 24 Z"
      transform="translate(0,1004.36)"
      id="path22751" />
   </g>
   <path
     style="opacity:0.2;fill:url(#a)"
     d="m 26,1020.36 h -4 l 4,4 v 16 h -4 l 8,8 c 5.172,0 15,0 15,0 v -14 l -19,-18 z"
     id="path22755" />
  </g>
 </g>
 <path
   style="display:inline;mix-blend-mode:normal;fill:url(#linearGradient3403);fill-opacity:1;stroke:url(#linearGradient20558);stroke-width:1.16242;stroke-linecap:butt;stroke-linejoin:round;stroke-miterlimit:4;stroke-dasharray:none;stroke-opacity:1;filter:url(#filter20720)"
   d="M 4.7043071,3.9814882 4.6913695,60.80196 H 58.59546 l 1.022155,-2.866369 c 0,0 -23.87537,0.766388 -32.844441,-4.140386 C 16.257548,48.042344 11.401114,4.0978197 11.401114,4.0978197 Z"
   id="path1686"
   transform="matrix(0.7518797,0,0,0.7518797,0.09970467,0.02488636)" />
 <rect
   style="display:inline;fill:none;fill-opacity:1;stroke:url(#linearGradient4557);stroke-width:3.71366;stroke-linejoin:round;stroke-miterlimit:7.8;stroke-dasharray:none;stroke-opacity:0.995146;filter:url(#filter4601)"
   id="rect4539"
   width="62.566689"
   height="62.866646"
   x="1.0323594"
   y="0.59551275"
   ry="6.2447233"
   rx="5.8029528"
   transform="matrix(0.70434793,0,0,0.70291231,1.3629847,1.5442064)" />
</svg>
