<?xml version="1.0" encoding="UTF-8" standalone="no"?>
<!-- Created with Inkscape (http://www.inkscape.org/) -->

<svg
  width="48"
  height="48"
  version="1.1"
  viewBox="0 0 48 48"
  id="svg22"
  xmlns:xlink="http://www.w3.org/1999/xlink"
  xmlns="http://www.w3.org/2000/svg"
  xmlns:svg="http://www.w3.org/2000/svg">
 <defs
   id="defs12">
  <linearGradient
    id="linearGradient917">
   <stop
     style="stop-color:#000000;stop-opacity:0.99607843"
     offset="0"
     id="stop913" />
   <stop
     style="stop-color:#353a3f;stop-opacity:0.99607843"
     offset="1"
     id="stop915" />
  </linearGradient>
  <linearGradient
    id="linearGradient1005-3-3"
    x1="5.2535"
    x2="9.3823996"
    y1="15.383"
    y2="2.9421"
    gradientTransform="matrix(0.99999,0,0,0.99999,1.632,-0.61743)"
    gradientUnits="userSpaceOnUse">
   <stop
     stop-color="#fa8200"
     offset="0"
     id="stop2" />
   <stop
     stop-color="#ff9600"
     offset=".36953"
     id="stop4" />
   <stop
     stop-color="#ffb400"
     offset="1"
     id="stop6" />
  </linearGradient>
  <filter
    id="filter4014"
    x="-0.062499932"
    y="-0.057692992"
    width="1.1249999"
    height="1.115386"
    color-interpolation-filters="sRGB">
   <feGaussianBlur
     stdDeviation="1.093751"
     id="feGaussianBlur9" />
  </filter>
  <linearGradient
    xlink:href="#linearGradient3487"
    id="linearGradient3403"
    gradientUnits="userSpaceOnUse"
    x1="6.9491749"
    y1="4.5549412"
    x2="11.215498"
    y2="59.052471" />
  <linearGradient
    id="linearGradient3487">
   <stop
     style="stop-color:#32373c;stop-opacity:1"
     offset="0"
     id="stop3481" />
   <stop
     id="stop3483"
     offset="0.36804965"
     style="stop-color:#1a1a1a;stop-opacity:1" />
   <stop
     style="stop-color:#31363b;stop-opacity:1"
     offset="1"
     id="stop3485" />
  </linearGradient>
  <linearGradient
    xlink:href="#linearGradient20604"
    id="linearGradient20558"
    gradientUnits="userSpaceOnUse"
    x1="25.802212"
    y1="20.373846"
    x2="25.111048"
    y2="58.912758" />
  <linearGradient
    id="linearGradient20604">
   <stop
     id="stop20598"
     offset="0"
     style="stop-color:#3d3d3d;stop-opacity:1" />
   <stop
     style="stop-color:#000000;stop-opacity:1"
     offset="0.61772454"
     id="stop20600" />
   <stop
     id="stop20602"
     offset="1"
     style="stop-color:#3d3d3d;stop-opacity:1" />
  </linearGradient>
  <linearGradient
    gradientTransform="translate(0.36067797,-0.13016949)"
    xlink:href="#linearGradient4555"
    id="linearGradient4557"
    x1="43.499737"
    y1="64.011795"
    x2="44.141731"
    y2="0.30621234"
    gradientUnits="userSpaceOnUse" />
  <linearGradient
    id="linearGradient4555">
   <stop
     style="stop-color:#141618;stop-opacity:1"
     offset="0"
     id="stop4551" />
   <stop
     id="stop4559"
     offset="0.51820582"
     style="stop-color:#686868;stop-opacity:1" />
   <stop
     style="stop-color:#31363b;stop-opacity:1"
     offset="1"
     id="stop4553" />
  </linearGradient>
  <filter
    style="color-interpolation-filters:sRGB"
    id="filter4601"
    x="-0.029678248"
    width="1.0593565"
    y="-0.029536643"
    height="1.0590733">
   <feGaussianBlur
     stdDeviation="1.6535564e-05"
     id="feGaussianBlur4603" />
  </filter>
  <linearGradient
    xlink:href="#linearGradient917"
    id="linearGradient919"
    x1="7.400631"
    y1="41.743092"
    x2="33.063145"
    y2="7.1074457"
    gradientUnits="userSpaceOnUse" />
  <linearGradient
    gradientTransform="matrix(0,1,-1.16667,0,-452.67,-499.8)"
    gradientUnits="userSpaceOnUse"
    x2="503.79999"
    x1="543.79999"
    id="a-2">
   <stop
     id="stop9121"
     stop-color="#197cf1" />
   <stop
     id="stop9123"
     stop-color="#21c9fb"
     offset="1" />
  </linearGradient>
  <linearGradient
    gradientUnits="userSpaceOnUse"
    x2="0"
    y2="20"
    y1="44"
    id="e">
   <stop
     id="stop9141"
     stop-color="#eef1f2" />
   <stop
     id="stop9143"
     stop-color="#f9fafb"
     offset="1" />
  </linearGradient>
  <linearGradient
    gradientUnits="userSpaceOnUse"
    x2="414.57001"
    x1="384.57001"
    id="c-0">
   <stop
     id="stop9131"
     stop-opacity=".275" />
   <stop
     id="stop9133"
     stop-opacity="0"
     stop-color="#ffffff"
     offset="1" />
  </linearGradient>
  <linearGradient
    gradientUnits="userSpaceOnUse"
    x2="421.01999"
    y2="527.79999"
    x1="432.57001"
    y1="547.79999"
    id="d">
   <stop
     id="stop9136"
     stop-opacity=".082" />
   <stop
     id="stop9138"
     stop-opacity="0"
     offset="1" />
  </linearGradient>
  <linearGradient
    gradientUnits="userSpaceOnUse"
    x2="394.57001"
    y2="530.47998"
    x1="384.57001"
    y1="547.79999"
    id="b-7">
   <stop
     id="stop9126"
     stop-opacity="0"
     stop-color="#ffffff" />
   <stop
     id="stop9128"
     stop-opacity=".314"
     stop-color="#ffffff"
     offset="1" />
  </linearGradient>
  <linearGradient
    gradientUnits="userSpaceOnUse"
    x2="422.57001"
    y2="519.79999"
    x1="414.57001"
    y1="511.79999"
    id="f">
   <stop
     id="stop9146"
     stop-color="#292c2f" />
   <stop
     id="stop9148"
     stop-opacity="0"
     offset="1" />
  </linearGradient>
  <linearGradient
    gradientUnits="userSpaceOnUse"
    x2="0"
    y2="511.79999"
    y1="527.79999"
    id="g">
   <stop
     id="stop9151"
     stop-color="#7cbaf8" />
   <stop
     id="stop9153"
     stop-color="#f4fcff"
     offset="1" />
  </linearGradient>
 </defs>
 <rect
   style="display:inline;fill:url(#linearGradient919);fill-opacity:1;fill-rule:evenodd;stroke:none;stroke-width:0.92782;stroke-linejoin:round;stroke-miterlimit:7.8"
   id="rect1192"
   width="42.084602"
   height="42.712109"
   x="3.1629105"
   y="3.0184898"
   ry="0" />
 <g
   id="g9184"
   transform="matrix(1.0278127,0,0,1.0301433,-394.87914,-515.46445)">
  <g
    id="g9164"
    transform="translate(384.57,499.8)">
   <path
     id="path9158"
     d="M 24,8 4,20 24,35 44,20 Z"
     style="fill:#c8cfd3;fill-rule:evenodd" />
   <path
     style="fill:url(#a-2)"
     id="path9160"
     d="M 10,4 V 44 H 38 V 12 L 30,4 Z" />
   <path
     id="path9162"
     d="M 4,20 V 44 H 44 V 20 L 28,32 h -8 z"
     style="fill:url(#e)" />
  </g>
  <g
    id="g9172"
    style="fill-rule:evenodd">
   <path
     style="fill:url(#c-0)"
     id="path9166"
     d="m 388.57,543.8 16,-12 h 8 l 16,12 z" />
   <path
     id="path9168"
     d="m 428.57,543.8 -16,-12 16,-12 z"
     style="fill:url(#d)" />
   <path
     style="fill:url(#b-7)"
     id="path9170"
     d="m 388.57,543.8 16,-12 -16,-12 z" />
  </g>
  <rect
    id="rect9174"
    height="1"
    y="542.79999"
    x="388.57001"
    width="40"
    style="fill:#d1d3d4" />
  <g
    id="g9180"
    style="fill-rule:evenodd">
   <path
     id="path9176"
     d="m 422.57,511.8 h -8 v -8 z"
     style="fill:#313437" />
   <path
     id="path9178"
     d="m 414.57,511.8 h 8 v 8 z"
     style="opacity:0.2;fill:url(#f)" />
  </g>
  <path
    id="path9182"
    d="m 416.57,513.21 c 1.175,1.175 1.175,3.067 0,4.243 l -9.168,9.168 c -1.567,1.567 -4.09,1.567 -5.657,0 -1.567,-1.567 -1.567,-4.09 0,-5.657 l 9.168,-9.168 0.707,0.707 -9.168,9.168 c -1.175,1.175 -1.175,3.067 0,4.243 1.175,1.175 3.067,1.175 4.243,0 l 9.168,-9.168 c 0.783,-0.783 0.783,-2.045 0,-2.828 -0.783,-0.783 -2.045,-0.783 -2.828,0 l -9.168,9.168 c -0.392,0.392 -0.392,1.023 0,1.414 0.392,0.392 1.022,0.392 1.414,0 l 8.461,-8.461 0.707,0.707 -8.461,8.461 c -0.783,0.783 -2.045,0.783 -2.828,0 -0.783,-0.783 -0.783,-2.045 0,-2.828 l 9.168,-9.168 c 1.175,-1.175 3.067,-1.175 4.243,0"
    style="color-interpolation:sRGB;color-interpolation-filters:linearRGB;fill:url(#g);color-rendering:auto;image-rendering:auto;shape-rendering:auto;text-rendering:auto" />
 </g>
 <path
   style="display:inline;mix-blend-mode:normal;fill:url(#linearGradient3403);fill-opacity:1;stroke:url(#linearGradient20558);stroke-width:1.16242;stroke-linecap:butt;stroke-linejoin:round;stroke-miterlimit:4;stroke-dasharray:none;stroke-opacity:1"
   d="M 4.7043071,3.9814882 4.6913695,60.80196 H 58.59546 l 1.022155,-2.866369 c 0,0 -23.87537,0.766388 -32.844441,-4.140386 C 16.257548,48.042344 11.401114,4.0978197 11.401114,4.0978197 Z"
   id="path1686"
   transform="matrix(0.7518797,0,0,0.7518797,0.09970467,0.02488636)" />
 <rect
   style="display:inline;fill:none;fill-opacity:1;stroke:url(#linearGradient4557);stroke-width:3.71366;stroke-linejoin:round;stroke-miterlimit:7.8;stroke-dasharray:none;stroke-opacity:0.995146"
   id="rect4539"
   width="62.566689"
   height="62.866646"
   x="1.0323594"
   y="0.59551275"
   ry="6.2447233"
   rx="5.8029528"
   transform="matrix(0.70434793,0,0,0.70291231,1.3629847,1.5442064)" />
</svg>
