<?xml version="1.0" encoding="UTF-8" standalone="no"?>
<!-- Created with Inkscape (http://www.inkscape.org/) -->

<svg
  width="48"
  height="48"
  version="1.1"
  viewBox="0 0 48 48"
  id="svg22"
  xmlns:xlink="http://www.w3.org/1999/xlink"
  xmlns="http://www.w3.org/2000/svg"
  xmlns:svg="http://www.w3.org/2000/svg">
 <defs
   id="defs12">
  <linearGradient
    xlink:href="#linearGradient3487"
    id="linearGradient3403"
    gradientUnits="userSpaceOnUse"
    x1="6.9491749"
    y1="4.5549412"
    x2="11.215498"
    y2="59.052471" />
  <linearGradient
    id="linearGradient3487">
   <stop
     style="stop-color:#32373c;stop-opacity:1"
     offset="0"
     id="stop3481" />
   <stop
     id="stop3483"
     offset="0.36804965"
     style="stop-color:#1a1a1a;stop-opacity:1" />
   <stop
     style="stop-color:#31363b;stop-opacity:1"
     offset="1"
     id="stop3485" />
  </linearGradient>
  <linearGradient
    xlink:href="#linearGradient20604"
    id="linearGradient20558"
    gradientUnits="userSpaceOnUse"
    x1="25.802212"
    y1="20.373846"
    x2="25.111048"
    y2="58.912758" />
  <linearGradient
    id="linearGradient20604">
   <stop
     id="stop20598"
     offset="0"
     style="stop-color:#3d3d3d;stop-opacity:1" />
   <stop
     style="stop-color:#000000;stop-opacity:1"
     offset="0.61772454"
     id="stop20600" />
   <stop
     id="stop20602"
     offset="1"
     style="stop-color:#3d3d3d;stop-opacity:1" />
  </linearGradient>
  <filter
    style="color-interpolation-filters:sRGB"
    id="filter20720"
    x="-0.010585472"
    y="-0.010232566"
    width="1.0211705"
    height="1.0204652">
   <feGaussianBlur
     stdDeviation="8.7602535e-05"
     id="feGaussianBlur20722" />
  </filter>
  <linearGradient
    gradientTransform="translate(0.36067797,-0.13016949)"
    xlink:href="#linearGradient4555"
    id="linearGradient4557"
    x1="43.499737"
    y1="64.011795"
    x2="44.141731"
    y2="0.30621234"
    gradientUnits="userSpaceOnUse" />
  <linearGradient
    id="linearGradient4555">
   <stop
     style="stop-color:#141618;stop-opacity:1"
     offset="0"
     id="stop4551" />
   <stop
     id="stop4559"
     offset="0.51820582"
     style="stop-color:#686868;stop-opacity:1" />
   <stop
     style="stop-color:#31363b;stop-opacity:1"
     offset="1"
     id="stop4553" />
  </linearGradient>
  <filter
    style="color-interpolation-filters:sRGB"
    id="filter4601"
    x="-0.029681204"
    width="1.0593624"
    y="-0.029539586"
    height="1.0590792">
   <feGaussianBlur
     stdDeviation="9.3609696e-05"
     id="feGaussianBlur4603" />
  </filter>
 </defs>
 <rect
   x="4"
   y="4"
   width="56"
   height="56"
   rx="2.516855"
   ry="2.3457396"
   stroke-width="3.7795"
   id="rect24"
   style="display:inline;fill:#ffbd8e;fill-opacity:1"
   transform="matrix(0.74040621,0,0,0.73906725,1.5436865,-0.12656417)" />
 <path
   style="display:inline;mix-blend-mode:normal;fill:url(#linearGradient3403);fill-opacity:1;stroke:url(#linearGradient20558);stroke-width:1.16242;stroke-linecap:butt;stroke-linejoin:round;stroke-miterlimit:4;stroke-dasharray:none;stroke-opacity:1"
   d="M 4.7043071,3.9814882 4.6913695,60.80196 H 58.59546 l 1.022155,-2.866369 c 0,0 -23.87537,0.766388 -32.844441,-4.140386 C 16.257548,48.042344 11.401114,4.0978197 11.401114,4.0978197 Z"
   id="path1686"
   transform="matrix(0.74455909,0,0,0.74321262,0.48500704,0.3479564)" />
 <rect
   style="display:inline;fill:none;fill-opacity:1;stroke:url(#linearGradient4557);stroke-width:3.71366;stroke-linejoin:round;stroke-miterlimit:7.8;stroke-dasharray:none;stroke-opacity:0.995146"
   id="rect4539"
   width="62.566689"
   height="62.866646"
   x="1.0323594"
   y="0.59551275"
   ry="6.2447233"
   rx="5.8029528"
   transform="matrix(0.69749011,0,0,0.69480969,1.7359872,1.8497629)" />
 <path
   fill="#4d4d4d"
   d="m 18.058081,8.7466022 a 4.7025879,4.7027447 0 0 0 -4.702588,4.7025878 4.7025879,4.7027447 0 0 0 4.702588,4.702588 4.7025879,4.7027447 0 0 0 4.702588,-4.702588 4.7025879,4.7027447 0 0 0 -4.702588,-4.7025878 z m 21.94541,0 A 4.7025879,4.7025879 0 0 0 35.300903,13.44919 4.7025879,4.7025879 0 0 0 40.003491,18.151778 4.7025879,4.7025879 0 0 0 44.706079,13.44919 4.7025879,4.7025879 0 0 0 40.003491,8.7466022 Z M 29.030786,19.719307 a 9.4051759,6.2701172 0 0 0 -9.405176,6.270117 9.4051759,6.2701172 0 0 0 9.405176,6.270118 9.4051759,6.2701172 0 0 0 9.405176,-6.270118 9.4051759,6.2701172 0 0 0 -9.405176,-6.270117 z m -3.918823,3.135059 a 2.351294,2.351294 0 0 1 2.351294,2.351294 2.351294,2.351294 0 0 1 -2.351294,2.351294 2.351294,2.351294 0 0 1 -2.351294,-2.351294 2.351294,2.351294 0 0 1 2.351294,-2.351294 z m 7.837646,0 a 2.351294,2.351294 0 0 1 2.351294,2.351294 2.351294,2.351294 0 0 1 -2.351294,2.351294 2.351294,2.351294 0 0 1 -2.351294,-2.351294 2.351294,2.351294 0 0 1 2.351294,-2.351294 z M 16.490552,32.259542 A 14.500116,15.675293 0 0 0 29.037056,40.097188 14.500116,15.675293 0 0 0 41.57102,32.259542 H 39.810685 A 14.500116,15.675293 0 0 1 29.037056,37.485684 14.500116,15.675293 0 0 1 18.257157,32.259542 Z"
   id="path3"
   style="stroke-width:1.56753;fill:#4d4d4d;fill-opacity:0.317781" />
 <path
   fill="#4d4d4d"
   d="m 18.118064,8.2280705 a 4.7025879,4.7027447 0 0 0 -4.702588,4.7025875 4.7025879,4.7027447 0 0 0 4.702588,4.702588 4.7025879,4.7027447 0 0 0 4.702588,-4.702588 4.7025879,4.7027447 0 0 0 -4.702588,-4.7025875 z m 21.94541,0 a 4.7025879,4.7025879 0 0 0 -4.702588,4.7025875 4.7025879,4.7025879 0 0 0 4.702588,4.702588 4.7025879,4.7025879 0 0 0 4.702588,-4.702588 4.7025879,4.7025879 0 0 0 -4.702588,-4.7025875 z M 29.090769,19.200775 a 9.4051759,6.2701172 0 0 0 -9.405176,6.270117 9.4051759,6.2701172 0 0 0 9.405176,6.270118 9.4051759,6.2701172 0 0 0 9.405176,-6.270118 9.4051759,6.2701172 0 0 0 -9.405176,-6.270117 z m -3.918823,3.135059 a 2.351294,2.351294 0 0 1 2.351294,2.351294 2.351294,2.351294 0 0 1 -2.351294,2.351294 2.351294,2.351294 0 0 1 -2.351294,-2.351294 2.351294,2.351294 0 0 1 2.351294,-2.351294 z m 7.837646,0 a 2.351294,2.351294 0 0 1 2.351294,2.351294 2.351294,2.351294 0 0 1 -2.351294,2.351294 2.351294,2.351294 0 0 1 -2.351294,-2.351294 2.351294,2.351294 0 0 1 2.351294,-2.351294 z M 16.550535,31.74101 A 14.500116,15.675293 0 0 0 29.097039,39.578656 14.500116,15.675293 0 0 0 41.631003,31.74101 H 39.870668 A 14.500116,15.675293 0 0 1 29.097039,36.967152 14.500116,15.675293 0 0 1 18.31714,31.74101 Z"
   id="path3-5"
   style="stroke-width:1.56753" />
</svg>
