<?xml version="1.0" encoding="UTF-8" standalone="no"?>
<!-- Created with Inkscape (http://www.inkscape.org/) -->

<svg
  width="48"
  height="48"
  version="1.1"
  viewBox="0 0 48 48"
  id="svg22"
  xmlns:xlink="http://www.w3.org/1999/xlink"
  xmlns="http://www.w3.org/2000/svg"
  xmlns:svg="http://www.w3.org/2000/svg">
 <defs
   id="defs12">
  <linearGradient
    xlink:href="#linearGradient3487"
    id="linearGradient3403"
    gradientUnits="userSpaceOnUse"
    x1="6.9491749"
    y1="4.5549412"
    x2="11.215498"
    y2="59.052471" />
  <linearGradient
    id="linearGradient3487">
   <stop
     style="stop-color:#32373c;stop-opacity:1"
     offset="0"
     id="stop3481" />
   <stop
     id="stop3483"
     offset="0.36804965"
     style="stop-color:#1a1a1a;stop-opacity:1" />
   <stop
     style="stop-color:#31363b;stop-opacity:1"
     offset="1"
     id="stop3485" />
  </linearGradient>
  <linearGradient
    xlink:href="#linearGradient20604"
    id="linearGradient20558"
    gradientUnits="userSpaceOnUse"
    x1="25.802212"
    y1="20.373846"
    x2="25.111048"
    y2="58.912758" />
  <linearGradient
    id="linearGradient20604">
   <stop
     id="stop20598"
     offset="0"
     style="stop-color:#3d3d3d;stop-opacity:1" />
   <stop
     style="stop-color:#000000;stop-opacity:1"
     offset="0.61772454"
     id="stop20600" />
   <stop
     id="stop20602"
     offset="1"
     style="stop-color:#3d3d3d;stop-opacity:1" />
  </linearGradient>
  <filter
    style="color-interpolation-filters:sRGB"
    id="filter20720"
    x="-0.010586047"
    y="-0.010233122"
    width="1.0211716"
    height="1.0204663">
   <feGaussianBlur
     stdDeviation="0.00010075856"
     id="feGaussianBlur20722" />
  </filter>
  <linearGradient
    gradientTransform="translate(0.36067797,-0.13016949)"
    xlink:href="#linearGradient4555"
    id="linearGradient4557"
    x1="43.499737"
    y1="64.011795"
    x2="44.141731"
    y2="0.30621234"
    gradientUnits="userSpaceOnUse" />
  <linearGradient
    id="linearGradient4555">
   <stop
     style="stop-color:#141618;stop-opacity:1"
     offset="0"
     id="stop4551" />
   <stop
     id="stop4559"
     offset="0.51820582"
     style="stop-color:#686868;stop-opacity:1" />
   <stop
     style="stop-color:#31363b;stop-opacity:1"
     offset="1"
     id="stop4553" />
  </linearGradient>
  <filter
    style="color-interpolation-filters:sRGB"
    id="filter4601"
    x="-0.029681744"
    width="1.0593635"
    y="-0.029540122"
    height="1.0590802">
   <feGaussianBlur
     stdDeviation="0.00010766786"
     id="feGaussianBlur4603" />
  </filter>
 </defs>
 <rect
   x="4"
   y="4"
   width="56"
   height="56"
   rx="2.516855"
   ry="2.3457396"
   stroke-width="3.7795"
   id="rect24"
   style="display:inline;fill:#262626;fill-opacity:1"
   transform="matrix(0.74040621,0,0,0.73906725,1.5436865,-0.12656417)" />
 <g
   id="g4"
   transform="matrix(0.91021121,0,0,0.91021121,9.4966826,1.1901496)">
  <path
    style="opacity:0.2"
    d="m 24.000001,4.9995634 c -2.77,0 -5,2.676 -5,5.9999996 v 7.458984 l -3.308594,-3.308593 c -0.767218,-0.767219 -1.770224,-1.150391 -2.771484,-1.150391 -1.001262,0 -2.002313,0.383172 -2.769531,1.150391 -1.534438,1.534436 -1.534438,4.006579 0,5.541015 l 8.308593,8.308594 -8.308593,8.308594 c -1.534438,1.534436 -1.534438,4.00658 0,5.541015 1.534435,1.534437 4.00658,1.534437 5.541015,0 l 6.333985,-6.333984 c 0.60539,0.311054 1.272224,0.484375 1.974609,0.484375 0.702385,0 1.369219,-0.173321 1.974609,-0.484375 l 6.333985,6.333984 c 1.534436,1.534437 4.006579,1.534437 5.541015,0 1.534436,-1.534435 1.534436,-4.006579 0,-5.541015 l -8.308593,-8.308594 8.308593,-8.308594 c 1.534436,-1.534436 1.534436,-4.006579 0,-5.541015 -1.534436,-1.534436 -4.006579,-1.534436 -5.541015,0 l -3.308594,3.308593 v -7.458984 c 0,-3.3239995 -2.23,-5.9999995 -5,-5.9999996 z"
    id="path1" />
  <path
    style="fill:#478f30"
    d="m 24.000001,3.9995632 c -2.77,0 -5,2.676 -5,6 v 7.4589838 l -3.308594,-3.308593 c -0.767218,-0.767219 -1.770224,-1.150391 -2.771484,-1.150391 -1.001262,0 -2.002313,0.383172 -2.769531,1.150391 -1.534438,1.534436 -1.534438,4.006579 0,5.541015 l 8.308593,8.308594 -8.308593,8.308594 c -1.534438,1.534436 -1.534438,4.00658 0,5.541015 1.534435,1.534437 4.00658,1.534437 5.541015,0 l 6.333985,-6.333984 c 0.60539,0.311054 1.272224,0.484375 1.974609,0.484375 0.702385,0 1.369219,-0.173321 1.974609,-0.484375 l 6.333985,6.333984 c 1.534436,1.534437 4.006579,1.534437 5.541015,0 1.534436,-1.534435 1.534436,-4.006579 0,-5.541015 l -8.308593,-8.308594 8.308593,-8.308594 c 1.534436,-1.534436 1.534436,-4.006579 0,-5.541015 -1.534436,-1.534436 -4.006579,-1.534436 -5.541015,0 l -3.308594,3.308593 V 9.9995632 c 0,-3.324 -2.23,-6 -5,-6 z"
    id="path2" />
  <path
    style="opacity:0.1;fill:#ffffff"
    d="m 24,4 c -2.77,0 -5,2.676 -5,6 v 1 c 0,-3.3239996 2.23,-6 5,-6 2.77,0 5,2.6760005 5,6 V 10 C 29,6.676 26.77,4 24,4 Z M 12.919922,13 C 11.91866,13 10.917609,13.383172 10.150391,14.150391 9.254955,15.045825 8.8991842,16.258525 9.0488281,17.419922 9.1558386,16.591583 9.5117208,15.78906 10.150391,15.150391 10.917609,14.383172 11.91866,14 12.919922,14 c 1.00126,0 2.004266,0.383172 2.771484,1.150391 L 19,18.458984 v -1 L 15.691406,14.150391 C 14.924188,13.383172 13.921182,13 12.919922,13 Z m 22.160156,0 c -1.001645,0 -2.004266,0.383173 -2.771484,1.150391 L 29,17.458984 v 1 l 3.308594,-3.308593 c 1.534436,-1.534436 4.006579,-1.534436 5.541015,0 0.638669,0.638669 0.994553,1.441192 1.101563,2.269531 0.149644,-1.161397 -0.206128,-2.374097 -1.101563,-3.269531 C 37.082391,13.383173 36.081723,13 35.080078,13 Z M 17.958984,28.5 10.150391,36.308594 C 9.254955,37.204028 8.8991842,38.416728 9.0488281,39.578125 9.1558386,38.749786 9.5117208,37.947263 10.150391,37.308594 L 18.458984,29 Z m 12.082032,0 -0.5,0.5 8.308593,8.308594 c 0.638669,0.638669 0.994553,1.441192 1.101563,2.269531 0.149644,-1.161397 -0.206128,-2.374097 -1.101563,-3.269531 z"
    id="path3" />
  <rect
    style="opacity:0.2"
    width="30"
    height="24"
    x="-43"
    y="-36"
    rx="15"
    ry="12"
    transform="matrix(0,-1,-1,0,0,0)"
    id="rect3" />
  <rect
    style="fill:#b08e57"
    width="30"
    height="24"
    x="-42"
    y="-36"
    rx="15"
    ry="12"
    transform="matrix(0,-1,-1,0,0,0)"
    id="rect4" />
 </g>
 <path
   style="display:inline;mix-blend-mode:normal;fill:url(#linearGradient3403);fill-opacity:1;stroke:url(#linearGradient20558);stroke-width:1.16242;stroke-linecap:butt;stroke-linejoin:round;stroke-miterlimit:4;stroke-dasharray:none;stroke-opacity:1"
   d="M 4.7043071,3.9814882 4.6913695,60.80196 H 58.59546 l 1.022155,-2.866369 c 0,0 -23.87537,0.766388 -32.844441,-4.140386 C 16.257548,48.042344 11.401114,4.0978197 11.401114,4.0978197 Z"
   id="path1686"
   transform="matrix(0.74455909,0,0,0.74321262,0.48500704,0.3479564)" />
 <rect
   style="display:inline;fill:none;fill-opacity:1;stroke:url(#linearGradient4557);stroke-width:3.71366;stroke-linejoin:round;stroke-miterlimit:7.8;stroke-dasharray:none;stroke-opacity:0.995146"
   id="rect4539"
   width="62.566689"
   height="62.866646"
   x="1.0323594"
   y="0.59551275"
   ry="6.2447233"
   rx="5.8029528"
   transform="matrix(0.69749011,0,0,0.69480969,1.7359872,1.8497629)" />
</svg>
