<?xml version="1.0" encoding="UTF-8" standalone="no"?>
<!-- Created with Inkscape (http://www.inkscape.org/) -->

<svg
   width="48"
   height="48"
   version="1.1"
   viewBox="0 0 48 48"
   id="svg22"
   xmlns:xlink="http://www.w3.org/1999/xlink"
   xmlns="http://www.w3.org/2000/svg"
   xmlns:svg="http://www.w3.org/2000/svg">
  <defs
     id="defs12">
    <linearGradient
       xlink:href="#linearGradient3487"
       id="linearGradient3403"
       gradientUnits="userSpaceOnUse"
       x1="6.9491749"
       y1="4.5549412"
       x2="11.215498"
       y2="59.052471" />
    <linearGradient
       id="linearGradient3487">
      <stop
         style="stop-color:#32373c;stop-opacity:1"
         offset="0"
         id="stop3481" />
      <stop
         id="stop3483"
         offset="0.36804965"
         style="stop-color:#1a1a1a;stop-opacity:1" />
      <stop
         style="stop-color:#31363b;stop-opacity:1"
         offset="1"
         id="stop3485" />
    </linearGradient>
    <linearGradient
       xlink:href="#linearGradient20604"
       id="linearGradient20558"
       gradientUnits="userSpaceOnUse"
       x1="25.802212"
       y1="20.373846"
       x2="25.111048"
       y2="58.912758" />
    <linearGradient
       id="linearGradient20604">
      <stop
         id="stop20598"
         offset="0"
         style="stop-color:#3d3d3d;stop-opacity:1" />
      <stop
         style="stop-color:#000000;stop-opacity:1"
         offset="0.61772454"
         id="stop20600" />
      <stop
         id="stop20602"
         offset="1"
         style="stop-color:#3d3d3d;stop-opacity:1" />
    </linearGradient>
    <filter
       style="color-interpolation-filters:sRGB"
       id="filter20720"
       x="-0.017024755"
       y="-0.016457183"
       width="1.0340491"
       height="1.0329144">
      <feGaussianBlur
         stdDeviation="0.14745661"
         id="feGaussianBlur20722" />
    </filter>
    <linearGradient
       gradientTransform="translate(0.36067797,-0.13016949)"
       xlink:href="#linearGradient4555"
       id="linearGradient4557"
       x1="43.499737"
       y1="64.011795"
       x2="44.141731"
       y2="0.30621234"
       gradientUnits="userSpaceOnUse" />
    <linearGradient
       id="linearGradient4555">
      <stop
         style="stop-color:#141618;stop-opacity:1"
         offset="0"
         id="stop4551" />
      <stop
         id="stop4559"
         offset="0.51820582"
         style="stop-color:#686868;stop-opacity:1" />
      <stop
         style="stop-color:#31363b;stop-opacity:1"
         offset="1"
         id="stop4553" />
    </linearGradient>
    <filter
       style="color-interpolation-filters:sRGB"
       id="filter4601"
       x="-0.030244955"
       width="1.0604899"
       y="-0.030100647"
       height="1.0602013">
      <feGaussianBlur
         stdDeviation="0.014790289"
         id="feGaussianBlur4603" />
    </filter>
  </defs>
  <rect
     style="fill:#e4e4e4;fill-opacity:1"
     width="40"
     x="388.57001"
     y="503.79999"
     rx="0"
     height="40"
     id="rect8656"
     transform="matrix(1.0224038,0,0,1.0272979,-392.88143,-514.71623)" />
  <g
     id="g1">
    <path
       style="opacity:0.1"
       d="m 17.795782,11.360049 a 2.0002,2.0002 0 0 0 -1.392578,3.433593 l 3.644531,3.644532 a 12,12 0 0 0 -2.230469,6.941406 12,12 0 0 0 2.226562,6.945312 l -3.640624,3.640626 a 2.0002,2.0002 0 1 0 2.828124,2.828124 l 3.644532,-3.644531 a 12,12 0 0 0 6.941406,2.230469 12,12 0 0 0 6.945312,-2.226562 l 3.640626,3.640624 a 2.0002,2.0002 0 1 0 2.828124,-2.828124 l -3.644531,-3.644532 a 12,12 0 0 0 2.230469,-6.941406 12,12 0 0 0 -2.226562,-6.945312 l 3.640624,-3.640626 a 2.0002,2.0002 0 0 0 -1.453124,-3.433593 2.0002,2.0002 0 0 0 -1.375,0.605469 l -3.644532,3.644531 a 12,12 0 0 0 -6.941406,-2.230469 12,12 0 0 0 -6.945312,2.226562 l -3.640626,-3.640624 a 2.0002,2.0002 0 0 0 -1.435546,-0.605469 z m 12.021484,6.019531 a 8,8 0 0 1 4.056641,1.115234 l -4.056641,4.056641 -4.056641,-4.056641 A 8,8 0 0 1 29.817266,17.37958 Z M 22.9325,21.322939 26.989141,25.37958 22.9325,29.436221 A 8,8 0 0 1 21.817266,25.37958 8,8 0 0 1 22.9325,21.322939 Z m 13.769532,0 a 8,8 0 0 1 1.115234,4.056641 8,8 0 0 1 -1.115234,4.056641 L 32.645391,25.37958 Z m -6.884766,6.884766 4.056641,4.056641 a 8,8 0 0 1 -4.056641,1.115234 8,8 0 0 1 -4.056641,-1.115234 z"
       id="path2" />
    <path
       style="fill:#4f4f4f"
       d="m 29.817266,12.379567 a 12,12 0 0 0 -12,12 12,12 0 0 0 12,12 12,12 0 0 0 12,-12 12,12 0 0 0 -12,-12 z m 0,4 a 8,8 0 0 1 8,8 8,8 0 0 1 -8,8 8,8 0 0 1 -8,-8 8,8 0 0 1 8,-8 z"
       id="path4" />
    <path
       style="fill:none;stroke:#4f4f4f;stroke-width:4;stroke-linecap:round"
       d="m 17.817266,12.379567 24,24 v 0"
       id="path5" />
    <path
       style="fill:none;stroke:#4f4f4f;stroke-width:4;stroke-linecap:round"
       d="m 41.817266,12.379567 -24,24"
       id="path6" />
  </g>
  <path
     style="display:inline;mix-blend-mode:normal;fill:url(#linearGradient3403);fill-opacity:1;stroke:url(#linearGradient20558);stroke-width:1.16242;stroke-linecap:butt;stroke-linejoin:round;stroke-miterlimit:4;stroke-dasharray:none;stroke-opacity:1;filter:url(#filter20720)"
     d="M 4.7043071,3.9814882 4.6913695,60.80196 H 58.59546 l 1.022155,-2.866369 c 0,0 -23.87537,0.766388 -32.844441,-4.140386 C 16.257548,48.042344 11.401114,4.0978197 11.401114,4.0978197 Z"
     id="path1686"
     transform="matrix(0.7518797,0,0,0.7518797,0.09970467,0.02488636)" />
  <rect
     style="display:inline;fill:none;fill-opacity:1;stroke:url(#linearGradient4557);stroke-width:3.71366;stroke-linejoin:round;stroke-miterlimit:7.8;stroke-dasharray:none;stroke-opacity:0.995146;filter:url(#filter4601)"
     id="rect4539"
     width="62.566689"
     height="62.866646"
     x="1.0323594"
     y="0.59551275"
     ry="6.2447233"
     rx="5.8029528"
     transform="matrix(0.70434793,0,0,0.70291231,1.3629847,1.5442064)" />
</svg>
