<?xml version="1.0" encoding="UTF-8" standalone="no"?>
<!-- Created with Inkscape (http://www.inkscape.org/) -->

<svg
   width="48"
   height="48"
   version="1.1"
   viewBox="0 0 48 48"
   id="svg22"
   sodipodi:docname="libreoffice-base.svg"
   inkscape:version="1.3.2 (1:1.3.2+202311252150+091e20ef0f)"
   xmlns:inkscape="http://www.inkscape.org/namespaces/inkscape"
   xmlns:sodipodi="http://sodipodi.sourceforge.net/DTD/sodipodi-0.dtd"
   xmlns:xlink="http://www.w3.org/1999/xlink"
   xmlns="http://www.w3.org/2000/svg"
   xmlns:svg="http://www.w3.org/2000/svg">
  <sodipodi:namedview
     id="namedview24"
     pagecolor="#ffffff"
     bordercolor="#666666"
     borderopacity="1.0"
     inkscape:showpageshadow="2"
     inkscape:pageopacity="0.0"
     inkscape:pagecheckerboard="0"
     inkscape:deskcolor="#d1d1d1"
     showgrid="false"
     inkscape:zoom="7.96"
     inkscape:cx="-2.1356784"
     inkscape:cy="9.0452261"
     inkscape:window-width="1920"
     inkscape:window-height="996"
     inkscape:window-x="0"
     inkscape:window-y="0"
     inkscape:window-maximized="1"
     inkscape:current-layer="g19834"
     inkscape:pageshadow="2" />
  <defs
     id="defs12">
    <linearGradient
       id="linearGradient1005-3-3"
       x1="5.2535"
       x2="9.3823996"
       y1="15.383"
       y2="2.9421"
       gradientTransform="matrix(0.99999,0,0,0.99999,1.632,-0.61743)"
       gradientUnits="userSpaceOnUse">
      <stop
         stop-color="#fa8200"
         offset="0"
         id="stop2" />
      <stop
         stop-color="#ff9600"
         offset=".36953"
         id="stop4" />
      <stop
         stop-color="#ffb400"
         offset="1"
         id="stop6" />
    </linearGradient>
    <filter
       id="filter4014"
       x="-0.062499932"
       y="-0.057692992"
       width="1.1249999"
       height="1.115386"
       color-interpolation-filters="sRGB">
      <feGaussianBlur
         stdDeviation="1.093751"
         id="feGaussianBlur9" />
    </filter>
    <linearGradient
       inkscape:collect="always"
       xlink:href="#linearGradient3487"
       id="linearGradient3403"
       gradientUnits="userSpaceOnUse"
       x1="6.9491749"
       y1="4.5549412"
       x2="11.215498"
       y2="59.052471" />
    <linearGradient
       id="linearGradient3487">
      <stop
         style="stop-color:#32373c;stop-opacity:1"
         offset="0"
         id="stop3481" />
      <stop
         id="stop3483"
         offset="0.36804965"
         style="stop-color:#1a1a1a;stop-opacity:1" />
      <stop
         style="stop-color:#31363b;stop-opacity:1"
         offset="1"
         id="stop3485" />
    </linearGradient>
    <linearGradient
       inkscape:collect="always"
       xlink:href="#linearGradient20604"
       id="linearGradient20558"
       gradientUnits="userSpaceOnUse"
       x1="25.802212"
       y1="20.373846"
       x2="25.111048"
       y2="58.912758" />
    <linearGradient
       id="linearGradient20604">
      <stop
         id="stop20598"
         offset="0"
         style="stop-color:#3d3d3d;stop-opacity:1" />
      <stop
         style="stop-color:#000000;stop-opacity:1"
         offset="0.61772454"
         id="stop20600" />
      <stop
         id="stop20602"
         offset="1"
         style="stop-color:#3d3d3d;stop-opacity:1" />
    </linearGradient>
    <filter
       inkscape:collect="always"
       style="color-interpolation-filters:sRGB"
       id="filter20720"
       x="-0.017024755"
       y="-0.016457183"
       width="1.0340491"
       height="1.0329144">
      <feGaussianBlur
         inkscape:collect="always"
         stdDeviation="0.14745661"
         id="feGaussianBlur20722" />
    </filter>
    <linearGradient
       gradientTransform="translate(0.36067797,-0.13016949)"
       xlink:href="#linearGradient4555"
       id="linearGradient4557"
       x1="43.499737"
       y1="64.011795"
       x2="44.141731"
       y2="0.30621234"
       gradientUnits="userSpaceOnUse" />
    <linearGradient
       id="linearGradient4555">
      <stop
         style="stop-color:#141618;stop-opacity:1"
         offset="0"
         id="stop4551" />
      <stop
         id="stop4559"
         offset="0.51820582"
         style="stop-color:#686868;stop-opacity:1" />
      <stop
         style="stop-color:#31363b;stop-opacity:1"
         offset="1"
         id="stop4553" />
    </linearGradient>
    <filter
       style="color-interpolation-filters:sRGB"
       id="filter4601"
       x="-0.030244955"
       width="1.0604899"
       y="-0.030100647"
       height="1.0602013">
      <feGaussianBlur
         stdDeviation="0.014790289"
         id="feGaussianBlur4603" />
    </filter>
    <linearGradient
       id="b"
       y1="16"
       x1="16"
       y2="32"
       x2="32"
       gradientUnits="userSpaceOnUse"
       gradientTransform="translate(384.57,499.8)">
      <stop
         stop-color="#383e51"
         id="stop19812" />
      <stop
         offset="1"
         stop-color="#655c6f"
         stop-opacity="0"
         id="stop19814" />
    </linearGradient>
    <linearGradient
       id="c"
       y1="32"
       y2="16"
       x2="0"
       gradientUnits="userSpaceOnUse"
       gradientTransform="matrix(1.8831539,0,0,1.8831539,361.48137,481.5641)">
      <stop
         stop-color="#b985ce"
         id="stop19817" />
      <stop
         offset="1"
         stop-color="#e2cdeb"
         id="stop19819" />
    </linearGradient>
  </defs>
  <g
     id="g869"
     transform="matrix(0.65449663,0,0,0.65449663,4.2909202,2.5202497)">
    <rect
       y="0.60077608"
       x="1.033034"
       height="62.866646"
       width="62.567139"
       id="rect4539-1"
       style="opacity:1;fill:#9955b4;fill-opacity:1;stroke:none;stroke-width:1.146;stroke-linejoin:round;stroke-miterlimit:7.8;stroke-dasharray:none;stroke-opacity:0.995146" />
    <g
       transform="matrix(1.33,0,0,1.33,-502.39202,-668.55943)"
       id="g19834">
      <path
         style="color:#000000;fill:url(#c);stroke-width:3.76631"
         d="m 406.67708,511.69458 c -8.31978,0 -15.06524,1.68542 -15.06524,3.76631 v 22.59785 c 0,2.08088 6.74546,3.76631 15.06524,3.76631 8.31977,0 15.06523,-1.68543 15.06523,-3.76631 v -22.59785 c 0,-2.08089 -6.74546,-3.76631 -15.06523,-3.76631 m 0,1.88315 c 7.28027,0 13.18208,0.84366 13.18208,1.88316 0,1.0395 -5.90181,1.88315 -13.18208,1.88315 -7.28028,0 -13.18208,-0.84365 -13.18208,-1.88315 0,-1.0395 5.9018,-1.88316 13.18208,-1.88316 M 393.495,517.248 c 2.55167,1.17321 7.46482,1.9792 13.18208,1.9792 5.71725,0 10.6304,-0.80599 13.18208,-1.9792 v 5.7455 c 0,1.0395 -5.90181,1.88316 -13.18208,1.88316 -7.28028,0 -13.18208,-0.84366 -13.18208,-1.88316 z m 0,7.53262 c 2.55167,1.1732 7.46482,1.97919 13.18208,1.97919 5.71725,0 10.6304,-0.80599 13.18208,-1.97919 v 5.7455 c 0,1.0395 -5.90181,1.88316 -13.18208,1.88316 -7.28028,0 -13.18208,-0.84366 -13.18208,-1.88316 z m 0,7.53261 c 2.55167,1.17321 7.46482,1.9792 13.18208,1.9792 5.71725,0 10.6304,-0.80599 13.18208,-1.9792 v 5.74551 c 0,1.0395 -5.90181,1.88315 -13.18208,1.88315 -7.28028,0 -13.18208,-0.84365 -13.18208,-1.88315 z"
         id="path19832" />
    </g>
  </g>
  <path
     style="display:inline;mix-blend-mode:normal;fill:url(#linearGradient3403);fill-opacity:1;stroke:url(#linearGradient20558);stroke-width:1.16242;stroke-linecap:butt;stroke-linejoin:round;stroke-miterlimit:4;stroke-dasharray:none;stroke-opacity:1;filter:url(#filter20720)"
     d="M 4.7043071,3.9814882 4.6913695,60.80196 H 58.59546 l 1.022155,-2.866369 c 0,0 -23.87537,0.766388 -32.844441,-4.140386 C 16.257548,48.042344 11.401114,4.0978197 11.401114,4.0978197 Z"
     id="path1686"
     sodipodi:nodetypes="ccccscc"
     transform="matrix(0.7518797,0,0,0.7518797,0.09970467,0.02488636)"
     inkscape:label="folder" />
  <rect
     style="display:inline;fill:none;fill-opacity:1;stroke:url(#linearGradient4557);stroke-width:3.71366;stroke-linejoin:round;stroke-miterlimit:7.8;stroke-dasharray:none;stroke-opacity:0.995146;filter:url(#filter4601)"
     id="rect4539"
     width="62.566689"
     height="62.866646"
     x="1.0323594"
     y="0.59551275"
     ry="6.2447233"
     rx="5.8029528"
     transform="matrix(0.70434793,0,0,0.70291231,1.3629847,1.5442064)"
     inkscape:label="contour" />
</svg>
