<?xml version="1.0" encoding="UTF-8" standalone="no"?>
<!-- Created with Inkscape (http://www.inkscape.org/) -->

<svg
  width="48"
  height="48"
  version="1.1"
  viewBox="0 0 48 48"
  id="svg22"
  xmlns:xlink="http://www.w3.org/1999/xlink"
  xmlns="http://www.w3.org/2000/svg"
  xmlns:svg="http://www.w3.org/2000/svg">
 <defs
   id="defs12">
  <linearGradient
    xlink:href="#linearGradient3487"
    id="linearGradient3403"
    gradientUnits="userSpaceOnUse"
    x1="6.9491749"
    y1="4.5549412"
    x2="11.215498"
    y2="59.052471" />
  <linearGradient
    id="linearGradient3487">
   <stop
     style="stop-color:#32373c;stop-opacity:1"
     offset="0"
     id="stop3481" />
   <stop
     id="stop3483"
     offset="0.36804965"
     style="stop-color:#1a1a1a;stop-opacity:1" />
   <stop
     style="stop-color:#31363b;stop-opacity:1"
     offset="1"
     id="stop3485" />
  </linearGradient>
  <linearGradient
    xlink:href="#linearGradient20604"
    id="linearGradient20558"
    gradientUnits="userSpaceOnUse"
    x1="25.802212"
    y1="20.373846"
    x2="25.111048"
    y2="58.912758" />
  <linearGradient
    id="linearGradient20604">
   <stop
     id="stop20598"
     offset="0"
     style="stop-color:#3d3d3d;stop-opacity:1" />
   <stop
     style="stop-color:#000000;stop-opacity:1"
     offset="0.61772454"
     id="stop20600" />
   <stop
     id="stop20602"
     offset="1"
     style="stop-color:#3d3d3d;stop-opacity:1" />
  </linearGradient>
  <filter
    style="color-interpolation-filters:sRGB"
    id="filter20720"
    x="-0.010582867"
    y="-0.010230048"
    width="1.0211653"
    height="1.0204601">
   <feGaussianBlur
     stdDeviation="2.7986556e-05"
     id="feGaussianBlur20722" />
  </filter>
  <linearGradient
    gradientTransform="translate(0.36067797,-0.13016949)"
    xlink:href="#linearGradient4555"
    id="linearGradient4557"
    x1="43.499737"
    y1="64.011795"
    x2="44.141731"
    y2="0.30621234"
    gradientUnits="userSpaceOnUse" />
  <linearGradient
    id="linearGradient4555">
   <stop
     style="stop-color:#141618;stop-opacity:1"
     offset="0"
     id="stop4551" />
   <stop
     id="stop4559"
     offset="0.51820582"
     style="stop-color:#686868;stop-opacity:1" />
   <stop
     style="stop-color:#31363b;stop-opacity:1"
     offset="1"
     id="stop4553" />
  </linearGradient>
  <filter
    style="color-interpolation-filters:sRGB"
    id="filter4601"
    x="-0.029678571"
    width="1.0593571"
    y="-0.029537154"
    height="1.0590743">
   <feGaussianBlur
     stdDeviation="2.9905676e-05"
     id="feGaussianBlur4603" />
  </filter>
 </defs>
 <g
   id="g4"
   transform="matrix(1.0515763,0,0,1.0515763,-0.57907184,-1.3325291)">
  <rect
    style="fill:#1ab7ea"
    width="40"
    height="40"
    x="4"
    y="4"
    rx="4"
    ry="4"
    id="rect2" />
  <path
    style="opacity:0.2;stroke-width:0.949335"
    d="M 16.896883,11.949334 V 36.632031 H 29.238231 V 11.949334 Z M 29.238231,36.632031 H 41.57958 V 24.290683 Z m 8.544011,-24.682697 c -0.894354,2.381097 -2.339427,3.862513 -4.746673,4.746673 2.407401,0.885301 3.851782,2.365265 4.746673,4.746672 0.89379,-2.381252 2.339689,-3.861955 4.746672,-4.746672 -2.408188,-0.884108 -3.852934,-2.364433 -4.746672,-4.746673 z"
    id="path2" />
  <path
    style="fill:#ffffff;stroke-width:0.949335"
    d="M 16.896883,11 V 35.682697 H 29.238231 V 11 Z M 29.238231,35.682697 H 41.57958 V 23.341348 Z M 37.782242,11 c -0.894354,2.381097 -2.339427,3.862513 -4.746673,4.746672 2.407401,0.885301 3.851782,2.365265 4.746673,4.746673 0.89379,-2.381253 2.339689,-3.861956 4.746672,-4.746673 C 40.120726,14.862565 38.67598,13.38224 37.782242,11 Z"
    id="path3" />
 </g>
 <path
   style="display:inline;mix-blend-mode:normal;fill:url(#linearGradient3403);fill-opacity:1;stroke:url(#linearGradient20558);stroke-width:1.16242;stroke-linecap:butt;stroke-linejoin:round;stroke-miterlimit:4;stroke-dasharray:none;stroke-opacity:1"
   d="M 4.7043071,3.9814882 4.6913695,60.80196 H 58.59546 l 1.022155,-2.866369 c 0,0 -23.87537,0.766388 -32.844441,-4.140386 C 16.257548,48.042344 11.401114,4.0978197 11.401114,4.0978197 Z"
   id="path1686"
   transform="matrix(0.7518797,0,0,0.7518797,0.09970467,0.02488636)" />
 <rect
   style="display:inline;fill:none;fill-opacity:1;stroke:url(#linearGradient4557);stroke-width:3.71366;stroke-linejoin:round;stroke-miterlimit:7.8;stroke-dasharray:none;stroke-opacity:0.995146"
   id="rect4539"
   width="62.567089"
   height="62.866646"
   x="1.0323594"
   y="0.59551275"
   ry="6.2447233"
   rx="5.8029528"
   transform="matrix(0.70434793,0,0,0.70291231,1.3629847,1.5442064)" />
</svg>
