<?xml version="1.0" encoding="UTF-8" standalone="no"?>
<!-- Created with Inkscape (http://www.inkscape.org/) -->

<svg
  width="48"
  height="48"
  version="1.1"
  viewBox="0 0 48 48"
  id="svg22"
  xmlns:xlink="http://www.w3.org/1999/xlink"
  xmlns="http://www.w3.org/2000/svg"
  xmlns:svg="http://www.w3.org/2000/svg">
 <defs
   id="defs12">
  <linearGradient
    id="linearGradient917">
   <stop
     style="stop-color:#000000;stop-opacity:0.99607843"
     offset="0"
     id="stop913" />
   <stop
     style="stop-color:#353a3f;stop-opacity:0.99607843"
     offset="1"
     id="stop915" />
  </linearGradient>
  <linearGradient
    id="linearGradient1005-3-3"
    x1="5.2535"
    x2="9.3823996"
    y1="15.383"
    y2="2.9421"
    gradientTransform="matrix(0.99999,0,0,0.99999,1.632,-0.61743)"
    gradientUnits="userSpaceOnUse">
   <stop
     stop-color="#fa8200"
     offset="0"
     id="stop2" />
   <stop
     stop-color="#ff9600"
     offset=".36953"
     id="stop4" />
   <stop
     stop-color="#ffb400"
     offset="1"
     id="stop6" />
  </linearGradient>
  <filter
    id="filter4014"
    x="-0.062499932"
    y="-0.057692992"
    width="1.1249999"
    height="1.115386"
    color-interpolation-filters="sRGB">
   <feGaussianBlur
     stdDeviation="1.093751"
     id="feGaussianBlur9" />
  </filter>
  <linearGradient
    xlink:href="#linearGradient3487"
    id="linearGradient3403"
    gradientUnits="userSpaceOnUse"
    x1="6.9491749"
    y1="4.5549412"
    x2="11.215498"
    y2="59.052471" />
  <linearGradient
    id="linearGradient3487">
   <stop
     style="stop-color:#32373c;stop-opacity:1"
     offset="0"
     id="stop3481" />
   <stop
     id="stop3483"
     offset="0.36804965"
     style="stop-color:#1a1a1a;stop-opacity:1" />
   <stop
     style="stop-color:#31363b;stop-opacity:1"
     offset="1"
     id="stop3485" />
  </linearGradient>
  <linearGradient
    xlink:href="#linearGradient20604"
    id="linearGradient20558"
    gradientUnits="userSpaceOnUse"
    x1="25.802212"
    y1="20.373846"
    x2="25.111048"
    y2="58.912758" />
  <linearGradient
    id="linearGradient20604">
   <stop
     id="stop20598"
     offset="0"
     style="stop-color:#3d3d3d;stop-opacity:1" />
   <stop
     style="stop-color:#000000;stop-opacity:1"
     offset="0.61772454"
     id="stop20600" />
   <stop
     id="stop20602"
     offset="1"
     style="stop-color:#3d3d3d;stop-opacity:1" />
  </linearGradient>
  <linearGradient
    gradientTransform="translate(0.36067797,-0.13016949)"
    xlink:href="#linearGradient4555"
    id="linearGradient4557"
    x1="43.499737"
    y1="64.011795"
    x2="44.141731"
    y2="0.30621234"
    gradientUnits="userSpaceOnUse" />
  <linearGradient
    id="linearGradient4555">
   <stop
     style="stop-color:#141618;stop-opacity:1"
     offset="0"
     id="stop4551" />
   <stop
     id="stop4559"
     offset="0.51820582"
     style="stop-color:#686868;stop-opacity:1" />
   <stop
     style="stop-color:#31363b;stop-opacity:1"
     offset="1"
     id="stop4553" />
  </linearGradient>
  <filter
    style="color-interpolation-filters:sRGB"
    id="filter4601"
    x="-0.029713596"
    width="1.0594272"
    y="-0.029572012"
    height="1.059144">
   <feGaussianBlur
     stdDeviation="0.00094300204"
     id="feGaussianBlur4603" />
  </filter>
  <linearGradient
    xlink:href="#linearGradient917"
    id="linearGradient919"
    x1="7.400631"
    y1="41.743092"
    x2="33.063145"
    y2="7.1074457"
    gradientUnits="userSpaceOnUse" />
  <linearGradient
    xlink:href="#a"
    id="b"
    y1="44"
    y2="11"
    x2="0"
    gradientUnits="userSpaceOnUse" />
  <linearGradient
    id="a"
    y1="543.79999"
    y2="513.79999"
    x2="0"
    gradientUnits="userSpaceOnUse"
    gradientTransform="matrix(1.125,0,0,1,-51.07,0)">
   <stop
     stop-color="#197cf1"
     id="stop15319" />
   <stop
     offset="1"
     stop-color="#20bcfa"
     id="stop15321" />
  </linearGradient>
  <linearGradient
    y2="513.79999"
    x2="0"
    y1="543.79999"
    gradientTransform="matrix(1.125,0,0,1,-51.07,0)"
    gradientUnits="userSpaceOnUse"
    id="linearGradient15413"
    xlink:href="#a" />
  <linearGradient
    id="linearGradient907"
    y1="543.79999"
    y2="513.79999"
    x2="0"
    gradientUnits="userSpaceOnUse"
    gradientTransform="matrix(1.125,0,0,1,-51.07,0)">
   <stop
     stop-color="#197cf1"
     id="stop903" />
   <stop
     offset="1"
     stop-color="#20bcfa"
     id="stop905" />
  </linearGradient>
  <linearGradient
    id="i"
    y1="23"
    x1="16"
    y2="39"
    x2="32"
    gradientUnits="userSpaceOnUse">
   <stop
     stop-color="#292c2f"
     id="stop15343" />
   <stop
     offset="1"
     stop-opacity="0"
     id="stop15345" />
  </linearGradient>
  <linearGradient
    xlink:href="#a"
    id="d"
    y1="14"
    y2="10"
    gradientUnits="userSpaceOnUse"
    x2="0"
    gradientTransform="translate(384.57,499.8)" />
  <linearGradient
    id="linearGradient917-6"
    y1="543.79999"
    y2="513.79999"
    x2="0"
    gradientUnits="userSpaceOnUse"
    gradientTransform="matrix(1.125,0,0,1,-51.07,0)">
   <stop
     stop-color="#197cf1"
     id="stop913-2" />
   <stop
     offset="1"
     stop-color="#20bcfa"
     id="stop915-1" />
  </linearGradient>
  <linearGradient
    xlink:href="#a"
    id="linearGradient919-7"
    y1="14"
    y2="10"
    gradientUnits="userSpaceOnUse"
    x2="0" />
  <linearGradient
    id="linearGradient925"
    y1="543.79999"
    y2="513.79999"
    x2="0"
    gradientUnits="userSpaceOnUse"
    gradientTransform="matrix(1.125,0,0,1,-51.07,0)">
   <stop
     stop-color="#197cf1"
     id="stop921" />
   <stop
     offset="1"
     stop-color="#20bcfa"
     id="stop923" />
  </linearGradient>
  <linearGradient
    id="c"
    y1="10"
    y2="14"
    x2="0"
    gradientUnits="userSpaceOnUse"
    gradientTransform="translate(384.57,499.8)">
   <stop
     stop-color="#1d1e1e"
     id="stop15325" />
   <stop
     offset="1"
     stop-color="#44484c"
     id="stop15327" />
  </linearGradient>
  <linearGradient
    id="linearGradient934"
    y1="10"
    y2="14"
    x2="0"
    gradientUnits="userSpaceOnUse">
   <stop
     stop-color="#1d1e1e"
     id="stop930" />
   <stop
     offset="1"
     stop-color="#44484c"
     id="stop932" />
  </linearGradient>
  <linearGradient
    xlink:href="#a"
    id="e"
    y1="516.79999"
    y2="503.79999"
    x2="0"
    gradientUnits="userSpaceOnUse"
    gradientTransform="matrix(1,0,0,0.52978258,0,243.00837)" />
  <linearGradient
    id="linearGradient941"
    y1="543.79999"
    y2="513.79999"
    x2="0"
    gradientUnits="userSpaceOnUse"
    gradientTransform="matrix(1.125,0,0,1,-51.07,0)">
   <stop
     stop-color="#197cf1"
     id="stop937" />
   <stop
     offset="1"
     stop-color="#20bcfa"
     id="stop939" />
  </linearGradient>
  <linearGradient
    xlink:href="#f"
    id="g"
    y1="517.79999"
    y2="514.79999"
    x2="0"
    gradientUnits="userSpaceOnUse" />
  <linearGradient
    id="f"
    y1="18"
    y2="15"
    x2="0"
    gradientUnits="userSpaceOnUse">
   <stop
     stop-color="#c6cdd1"
     id="stop15332" />
   <stop
     offset="1"
     stop-color="#e0e5e7"
     id="stop15334" />
  </linearGradient>
  <linearGradient
    y2="15"
    x2="0"
    y1="18"
    gradientUnits="userSpaceOnUse"
    id="linearGradient15415"
    xlink:href="#f" />
  <linearGradient
    id="linearGradient952"
    y1="18"
    y2="15"
    x2="0"
    gradientUnits="userSpaceOnUse">
   <stop
     stop-color="#c6cdd1"
     id="stop948" />
   <stop
     offset="1"
     stop-color="#e0e5e7"
     id="stop950" />
  </linearGradient>
  <linearGradient
    id="h"
    y1="19"
    y2="3"
    x2="0"
    gradientUnits="userSpaceOnUse"
    gradientTransform="translate(0,-2)">
   <stop
     stop-color="#7cbaf8"
     id="stop15338" />
   <stop
     offset="1"
     stop-color="#f4fcff"
     id="stop15340" />
  </linearGradient>
 </defs>
 <rect
   style="display:inline;fill:url(#linearGradient919);fill-opacity:1;fill-rule:evenodd;stroke:none;stroke-width:0.92782;stroke-linejoin:round;stroke-miterlimit:7.8"
   id="rect1192"
   width="42.084602"
   height="42.712109"
   x="3.1629105"
   y="3.0184898"
   ry="0" />
 <g
   transform="matrix(1.090151,0,0,1.1419878,-420.10073,-577.42748)"
   id="g15373">
  <path
    style="fill:url(#b);fill-rule:evenodd"
    d="m 9,11 v 2 l 1,-1 z m 30,0 -1,1 1,1 z"
    transform="translate(384.57,499.8)"
    id="path15351" />
  <rect
    style="fill:url(#linearGradient15413)"
    width="36"
    x="390.57001"
    y="513.79999"
    rx="0"
    height="30"
    id="rect15353" />
  <path
    style="opacity:0.2;fill:url(#i)"
    d="m 20.707,23.293 -1.414,1.414 8,8 L 27,33 38,44 h 4 V 38 L 32,28 28.707,31.293 Z m -2.146,6.146 -2.121,2.121 5.5,5.5 -1.354,1.354 5.586,5.586 h 6.951 z"
    transform="translate(384.57,499.8)"
    id="path15355" />
  <rect
    style="fill:#1c5593"
    width="36"
    x="390.57001"
    y="542.79999"
    height="1"
    id="rect15357" />
  <path
    fill-rule="evenodd"
    id="use15359"
    d="m 394.57,509.8 -1,1 1,1 -4,2 h 36 l -4,-2 1,-1 -1,-1 h -14 z"
    style="fill:url(#d)" />
  <path
    fill-rule="evenodd"
    id="use15361"
    d="m 394.57,509.8 -1,1 1,1 -4,2 h 36 l -4,-2 1,-1 -1,-1 h -14 z"
    style="opacity:0.6;fill:url(#c)" />
  <path
    style="opacity:0.2"
    d="M 10,10 9,11 H 39 L 38,10 H 24 Z"
    transform="translate(384.57,499.8)"
    id="path15363" />
  <path
    style="fill:url(#e);stroke-width:0.727862"
    d="m 400.57,516.8 v -2.64891 c 0,-2.348 3.568,-4.23826 8,-4.23826 4.432,0 8,1.89026 8,4.23826 V 516.8 h -1 v -2.64891 c 0,-2.0545 -3.122,-3.70848 -7,-3.70848 -3.878,0 -7,1.65398 -7,3.70848 V 516.8 Z"
    id="path15365" />
  <path
    style="fill:url(#g)"
    d="m 401.07143,514.798 a 1.5,1.5 0 0 1 1.5,1.5 1.5,1.5 0 0 1 -1.5,1.5 1.5,1.5 0 0 1 -1.5,-1.5 1.5,1.5 0 0 1 1.5,-1.5 m 0,1 a 0.5,0.5 0 0 0 -0.5,0.5 0.5,0.5 0 0 0 0.5,0.5 0.5,0.5 0 0 0 0.5,-0.5 0.5,0.5 0 0 0 -0.5,-0.5"
    id="path15367" />
  <path
    style="fill:url(#linearGradient15415)"
    d="M 31.5,15 A 1.5,1.5 0 0 0 30,16.5 1.5,1.5 0 0 0 31.5,18 1.5,1.5 0 0 0 33,16.5 1.5,1.5 0 0 0 31.5,15 m 0,1 A 0.5,0.5 0 0 1 32,16.5 0.5,0.5 0 0 1 31.5,17 0.5,0.5 0 0 1 31,16.5 0.5,0.5 0 0 1 31.5,16"
    transform="translate(384.57,499.8)"
    id="path15369" />
  <path
    style="fill:url(#h)"
    d="M 7,3 C 6.446,3 6,3.446 6,4 6,4.554 6.446,5 7,5 7.554,5 8,4.554 8,4 8,3.446 7.554,3 7,3 m 7,0 -2,2 3,3 -3,3 2,2 5,-5 z M 4.5,9 C 3.669,9 3,9.669 3,10.5 3,11.331 3.669,12 4.5,12 5.331,12 6,11.331 6,10.5 6,9.669 5.331,9 4.5,9 M 9,15 c -1.108,0 -2,0.892 -2,2 0,1.108 0.892,2 2,2 1.108,0 2,-0.892 2,-2 0,-1.108 -0.892,-2 -2,-2"
    transform="translate(397.57,519.8)"
    id="path15371" />
 </g>
 <path
   style="display:inline;mix-blend-mode:normal;fill:url(#linearGradient3403);fill-opacity:1;stroke:url(#linearGradient20558);stroke-width:1.16242;stroke-linecap:butt;stroke-linejoin:round;stroke-miterlimit:4;stroke-dasharray:none;stroke-opacity:1"
   d="M 4.7043071,3.9814882 4.6913695,60.80196 H 58.59546 l 1.022155,-2.866369 c 0,0 -23.87537,0.766388 -32.844441,-4.140386 C 16.257548,48.042344 11.401114,4.0978197 11.401114,4.0978197 Z"
   id="path1686"
   transform="matrix(0.7518797,0,0,0.7518797,0.09970467,0.02488636)" />
 <rect
   style="display:inline;fill:none;fill-opacity:1;stroke:url(#linearGradient4557);stroke-width:3.71366;stroke-linejoin:round;stroke-miterlimit:7.8;stroke-dasharray:none;stroke-opacity:0.995146"
   id="rect4539"
   width="62.567089"
   height="62.866646"
   x="1.0323594"
   y="0.59551275"
   ry="6.2447233"
   rx="5.8029528"
   transform="matrix(0.70434793,0,0,0.70291231,1.3629847,1.5442064)" />
</svg>
