<?xml version="1.0" encoding="UTF-8" standalone="no"?>
<!-- Created with Inkscape (http://www.inkscape.org/) -->

<svg
  width="48"
  height="48"
  version="1.1"
  viewBox="0 0 48 48"
  id="svg22"
  xmlns:xlink="http://www.w3.org/1999/xlink"
  xmlns="http://www.w3.org/2000/svg"
  xmlns:svg="http://www.w3.org/2000/svg">
 <defs
   id="defs12">
  <linearGradient
    id="linearGradient1005-3-3"
    x1="5.2535"
    x2="9.3823996"
    y1="15.383"
    y2="2.9421"
    gradientTransform="matrix(0.99999,0,0,0.99999,1.632,-0.61743)"
    gradientUnits="userSpaceOnUse">
   <stop
     stop-color="#fa8200"
     offset="0"
     id="stop2" />
   <stop
     stop-color="#ff9600"
     offset=".36953"
     id="stop4" />
   <stop
     stop-color="#ffb400"
     offset="1"
     id="stop6" />
  </linearGradient>
  <filter
    id="filter4014"
    x="-0.062499932"
    y="-0.057692992"
    width="1.1249999"
    height="1.115386"
    color-interpolation-filters="sRGB">
   <feGaussianBlur
     stdDeviation="1.093751"
     id="feGaussianBlur9" />
  </filter>
  <linearGradient
    xlink:href="#linearGradient3487"
    id="linearGradient3403"
    gradientUnits="userSpaceOnUse"
    x1="6.9491749"
    y1="4.5549412"
    x2="11.215498"
    y2="59.052471" />
  <linearGradient
    id="linearGradient3487">
   <stop
     style="stop-color:#32373c;stop-opacity:1"
     offset="0"
     id="stop3481" />
   <stop
     id="stop3483"
     offset="0.36804965"
     style="stop-color:#1a1a1a;stop-opacity:1" />
   <stop
     style="stop-color:#31363b;stop-opacity:1"
     offset="1"
     id="stop3485" />
  </linearGradient>
  <linearGradient
    xlink:href="#linearGradient20604"
    id="linearGradient20558"
    gradientUnits="userSpaceOnUse"
    x1="25.802212"
    y1="20.373846"
    x2="25.111048"
    y2="58.912758" />
  <linearGradient
    id="linearGradient20604">
   <stop
     id="stop20598"
     offset="0"
     style="stop-color:#3d3d3d;stop-opacity:1" />
   <stop
     style="stop-color:#000000;stop-opacity:1"
     offset="0.61772454"
     id="stop20600" />
   <stop
     id="stop20602"
     offset="1"
     style="stop-color:#3d3d3d;stop-opacity:1" />
  </linearGradient>
  <linearGradient
    gradientTransform="translate(0.36067797,-0.13016949)"
    xlink:href="#linearGradient4555"
    id="linearGradient4557"
    x1="43.499737"
    y1="64.011795"
    x2="44.141731"
    y2="0.30621234"
    gradientUnits="userSpaceOnUse" />
  <linearGradient
    id="linearGradient4555">
   <stop
     style="stop-color:#141618;stop-opacity:1"
     offset="0"
     id="stop4551" />
   <stop
     id="stop4559"
     offset="0.51820582"
     style="stop-color:#686868;stop-opacity:1" />
   <stop
     style="stop-color:#31363b;stop-opacity:1"
     offset="1"
     id="stop4553" />
  </linearGradient>
  <filter
    style="color-interpolation-filters:sRGB"
    id="filter4601"
    x="-0.029680329"
    width="1.0593607"
    y="-0.029538714"
    height="1.0590774">
   <feGaussianBlur
     stdDeviation="7.0782438e-05"
     id="feGaussianBlur4603" />
  </filter>
  <linearGradient
    id="a"
    y1="543.79999"
    y2="503.79999"
    gradientUnits="userSpaceOnUse"
    x2="0"
    gradientTransform="matrix(1.125,0,0,1,-51.07,0)">
   <stop
     stop-color="#c6cdd1"
     id="stop15015" />
   <stop
     offset="1"
     stop-color="#e0e5e7"
     id="stop15017" />
  </linearGradient>
  <linearGradient
    id="b"
    y1="38"
    y2="5"
    x2="0"
    gradientUnits="userSpaceOnUse">
   <stop
     stop-color="#eef1f2"
     id="stop15020" />
   <stop
     offset="1"
     stop-color="#f9fafb"
     id="stop15022" />
  </linearGradient>
  <linearGradient
    id="c"
    y1="513.79999"
    x1="398.57001"
    y2="531.79999"
    x2="416.57001"
    gradientUnits="userSpaceOnUse"
    gradientTransform="translate(-384.57,-499.8)">
   <stop
     stop-color="#292c2f"
     id="stop15025" />
   <stop
     offset="1"
     stop-opacity="0"
     id="stop15027" />
  </linearGradient>
 </defs>
 <g
   transform="matrix(1.0313498,0,0,1.0313498,-394.87084,-516.42371)"
   id="g15082">
  <rect
    style="fill:url(#a)"
    width="36"
    x="390.57001"
    y="503.79999"
    rx="0"
    height="40"
    id="rect15032" />
  <rect
    style="fill:#99a1a7"
    width="36"
    x="390.57001"
    y="539.70001"
    height="4.0999999"
    id="rect15034" />
  <rect
    style="fill:#737b81;stroke-width:2.8;stroke-opacity:0.55"
    width="36"
    x="390.57001"
    y="542.79999"
    height="1"
    id="rect15036" />
  <g
    style="stroke-width:0.1"
    id="g15046">
   <g
     style="fill:#292c2e"
     id="g15042">
    <rect
      width="12"
      x="400.57001"
      y="540.79999"
      height="3"
      id="rect15038" />
    <path
      d="m 416.57,540.8 h 6 v 3 h -6 z"
      id="path15040" />
   </g>
   <path
     style="fill:url(#b)"
     d="m 8,5 v 15.05 c 1.698,0.243 3,1.684 3,3.451 0,1.768 -1.302,3.208 -3,3.451 v 3.049 c 0,8 16,8 16,8 h 10 l 6,-7 v -3.9 h -2 v -7.1 h 2 v -15 H 11 Z"
     transform="translate(384.57,499.8)"
     id="path15044" />
  </g>
  <path
    style="opacity:0.2;fill:url(#c);fill-rule:evenodd"
    d="M 27.25,13.254 19.596,21 41.996,43.9 V 28 Z"
    transform="translate(384.57,499.8)"
    id="path15048" />
  <path
    style="fill:#4d4d4d"
    d="m 395.57,506.8 c -0.139,0 -0.25,0.111 -0.25,0.25 0,0.139 0.111,0.25 0.25,0.25 0.139,0 0.25,-0.111 0.25,-0.25 0,-0.139 -0.111,-0.25 -0.25,-0.25 m 1.75,0 -0.5,0.5 0.75,0.75 -0.75,0.75 0.5,0.5 1.25,-1.25 z m -2.375,1.5 c -0.208,0 -0.375,0.167 -0.375,0.375 0,0.208 0.167,0.375 0.375,0.375 0.208,0 0.375,-0.167 0.375,-0.375 0,-0.208 -0.167,-0.375 -0.375,-0.375 m 1.125,1.5 c -0.277,0 -0.5,0.223 -0.5,0.5 0,0.277 0.223,0.5 0.5,0.5 0.277,0 0.5,-0.223 0.5,-0.5 0,-0.277 -0.223,-0.5 -0.5,-0.5"
    id="path15050" />
  <g
    style="stroke-width:0.1"
    id="g15072">
   <rect
     style="fill:#abb9be"
     width="12"
     x="402.57001"
     y="510.79999"
     rx="6"
     height="12"
     id="rect15052" />
   <rect
     style="fill:#ced6d9"
     width="10"
     x="403.57001"
     y="511.79999"
     rx="5"
     height="10"
     id="rect15054" />
   <g
     style="fill:#4d4d4d"
     id="g15062">
    <rect
      width="11"
      x="412.57001"
      y="505.79999"
      height="1"
      id="rect15056" />
    <rect
      width="9"
      x="414.57001"
      y="507.79999"
      height="1"
      id="rect15058" />
    <rect
      width="11"
      x="412.57001"
      y="509.79999"
      height="1"
      id="rect15060" />
   </g>
   <rect
     style="fill:#fdbc4a"
     width="10"
     x="397.57001"
     y="526.79999"
     height="5"
     id="rect15064" />
   <g
     style="fill:#ffffff"
     id="g15070">
    <rect
      width="8"
      x="398.57001"
      y="527.79999"
      height="1"
      id="rect15066" />
    <rect
      width="6"
      x="398.57001"
      y="529.79999"
      height="1"
      id="rect15068" />
   </g>
  </g>
  <path
    style="fill:#4c5154"
    d="m 402.57,541.8 v 1 h 8 v -1 z m 15,0 v 1 h 3 v 1 h 1 v -2 z"
    id="path15074" />
  <g
    style="fill:#202324"
    id="g15080">
   <rect
     width="12"
     x="400.57001"
     y="542.79999"
     height="1"
     id="rect15076" />
   <rect
     width="6"
     x="416.57001"
     y="542.79999"
     height="1"
     id="rect15078" />
  </g>
 </g>
 <path
   style="display:inline;mix-blend-mode:normal;fill:url(#linearGradient3403);fill-opacity:1;stroke:url(#linearGradient20558);stroke-width:1.16242;stroke-linecap:butt;stroke-linejoin:round;stroke-miterlimit:4;stroke-dasharray:none;stroke-opacity:1"
   d="M 4.7043071,3.9814882 4.6913695,60.80196 H 58.59546 l 1.022155,-2.866369 c 0,0 -23.87537,0.766388 -32.844441,-4.140386 C 16.257548,48.042344 11.401114,4.0978197 11.401114,4.0978197 Z"
   id="path1686"
   transform="matrix(0.7518797,0,0,0.7518797,0.09970467,0.02488636)" />
 <rect
   style="display:inline;fill:none;fill-opacity:1;stroke:url(#linearGradient4557);stroke-width:3.71366;stroke-linejoin:round;stroke-miterlimit:7.8;stroke-dasharray:none;stroke-opacity:0.995146"
   id="rect4539"
   width="62.566689"
   height="62.866646"
   x="1.0323594"
   y="0.59551275"
   ry="6.2447233"
   rx="5.8029528"
   transform="matrix(0.70434793,0,0,0.70291231,1.3629847,1.5442064)" />
</svg>
