<?xml version="1.0" encoding="UTF-8" standalone="no"?>
<!-- Created with Inkscape (http://www.inkscape.org/) -->

<svg
  width="48"
  height="48"
  version="1.1"
  viewBox="0 0 48 48"
  id="svg22"
  xmlns:xlink="http://www.w3.org/1999/xlink"
  xmlns="http://www.w3.org/2000/svg"
  xmlns:svg="http://www.w3.org/2000/svg">
 <defs
   id="defs12">
  <linearGradient
    id="linearGradient917">
   <stop
     style="stop-color:#000000;stop-opacity:0.99607843"
     offset="0"
     id="stop913" />
   <stop
     style="stop-color:#353a3f;stop-opacity:0.99607843"
     offset="1"
     id="stop915" />
  </linearGradient>
  <linearGradient
    xlink:href="#linearGradient3487"
    id="linearGradient3403"
    gradientUnits="userSpaceOnUse"
    x1="6.9491749"
    y1="4.5549412"
    x2="11.215498"
    y2="59.052471" />
  <linearGradient
    id="linearGradient3487">
   <stop
     style="stop-color:#32373c;stop-opacity:1"
     offset="0"
     id="stop3481" />
   <stop
     id="stop3483"
     offset="0.36804965"
     style="stop-color:#1a1a1a;stop-opacity:1" />
   <stop
     style="stop-color:#31363b;stop-opacity:1"
     offset="1"
     id="stop3485" />
  </linearGradient>
  <linearGradient
    xlink:href="#linearGradient20604"
    id="linearGradient20558"
    gradientUnits="userSpaceOnUse"
    x1="25.802212"
    y1="20.373846"
    x2="25.111048"
    y2="58.912758" />
  <linearGradient
    id="linearGradient20604">
   <stop
     id="stop20598"
     offset="0"
     style="stop-color:#3d3d3d;stop-opacity:1" />
   <stop
     style="stop-color:#000000;stop-opacity:1"
     offset="0.61772454"
     id="stop20600" />
   <stop
     id="stop20602"
     offset="1"
     style="stop-color:#3d3d3d;stop-opacity:1" />
  </linearGradient>
  <filter
    style="color-interpolation-filters:sRGB"
    id="filter20720"
    x="-0.010677339"
    y="-0.010321371"
    width="1.0213542"
    height="1.0206428">
   <feGaussianBlur
     stdDeviation="0.0021900643"
     id="feGaussianBlur20722" />
  </filter>
  <linearGradient
    gradientTransform="translate(0.36067797,-0.13016949)"
    xlink:href="#linearGradient4555"
    id="linearGradient4557"
    x1="43.499737"
    y1="64.011795"
    x2="44.141731"
    y2="0.30621234"
    gradientUnits="userSpaceOnUse" />
  <linearGradient
    id="linearGradient4555">
   <stop
     style="stop-color:#141618;stop-opacity:1"
     offset="0"
     id="stop4551" />
   <stop
     id="stop4559"
     offset="0.51820582"
     style="stop-color:#686868;stop-opacity:1" />
   <stop
     style="stop-color:#31363b;stop-opacity:1"
     offset="1"
     id="stop4553" />
  </linearGradient>
  <filter
    style="color-interpolation-filters:sRGB"
    id="filter4601"
    x="-0.029767383"
    width="1.0595348"
    y="-0.029625353"
    height="1.0592507">
   <feGaussianBlur
     stdDeviation="0.0023402434"
     id="feGaussianBlur4603" />
  </filter>
  <linearGradient
    xlink:href="#linearGradient917"
    id="linearGradient919"
    x1="7.400631"
    y1="41.743092"
    x2="33.063145"
    y2="7.1074457"
    gradientUnits="userSpaceOnUse"
    gradientTransform="matrix(0.98231257,0,0,0.98167643,0.39202837,0.29512659)" />
  <linearGradient
    xlink:href="#g"
    id="l"
    y1="24.302"
    x1="8.2729998"
    y2="8.3769999"
    gradientUnits="userSpaceOnUse"
    x2="24.149" />
  <linearGradient
    id="g">
   <stop
     stop-color="#e81877"
     id="stop42" />
   <stop
     offset=".312"
     stop-color="#dd1d8c"
     id="stop44" />
   <stop
     offset=".562"
     stop-color="#6d57b1"
     id="stop46" />
   <stop
     offset=".75"
     stop-color="#2a78c1"
     id="stop48" />
   <stop
     offset="1"
     stop-color="#018dcb"
     id="stop50" />
  </linearGradient>
  <clipPath
    id="k">
   <rect
     width="32"
     x="8"
     y="8"
     rx="16"
     height="32"
     id="rect102" />
  </clipPath>
  <linearGradient
    xlink:href="#h"
    id="n"
    y1="24.353001"
    x1="8.3850002"
    y2="8.5740004"
    gradientUnits="userSpaceOnUse"
    x2="23.846001"
    gradientTransform="matrix(1,0,0,-1,384.571,547.798)" />
  <linearGradient
    id="h">
   <stop
     stop-color="#e51561"
     id="stop54" />
   <stop
     offset=".312"
     stop-color="#e4156c"
     id="stop56" />
   <stop
     offset=".562"
     stop-color="#e71e2c"
     id="stop58" />
   <stop
     offset=".75"
     stop-color="#e8301e"
     id="stop60" />
   <stop
     offset="1"
     stop-color="#e6320e"
     id="stop62" />
  </linearGradient>
  <clipPath
    id="m">
   <rect
     width="32"
     x="392.57101"
     y="507.798"
     rx="16"
     height="32"
     id="rect105" />
  </clipPath>
  <linearGradient
    xlink:href="#i"
    id="p"
    y1="24.159"
    x1="8.125"
    y2="8.4809999"
    gradientUnits="userSpaceOnUse"
    x2="23.775"
    gradientTransform="matrix(-1,0,0,1,432.571,499.798)" />
  <linearGradient
    id="i">
   <stop
     stop-color="#bec900"
     id="stop66" />
   <stop
     offset=".312"
     stop-color="#9ec80a"
     id="stop68" />
   <stop
     offset=".562"
     stop-color="#71b93d"
     id="stop70" />
   <stop
     offset=".75"
     stop-color="#35a48f"
     id="stop72" />
   <stop
     offset="1"
     stop-color="#018fca"
     id="stop74" />
  </linearGradient>
  <clipPath
    id="o">
   <rect
     width="32"
     x="392.57101"
     y="507.798"
     rx="16"
     height="32"
     id="rect108" />
  </clipPath>
  <linearGradient
    xlink:href="#j"
    id="r"
    y1="24.063"
    x1="8.2329998"
    y2="7.7870002"
    gradientUnits="userSpaceOnUse"
    x2="23.264999"
    gradientTransform="rotate(180,216.286,273.899)" />
  <linearGradient
    id="j">
   <stop
     stop-color="#c1cc00"
     id="stop78" />
   <stop
     offset=".312"
     stop-color="#dfcd00"
     id="stop80" />
   <stop
     offset=".562"
     stop-color="#f0cc00"
     id="stop82" />
   <stop
     offset=".75"
     stop-color="#fd8c08"
     id="stop84" />
   <stop
     offset="1"
     stop-color="#f25c13"
     id="stop86" />
  </linearGradient>
  <clipPath
    id="q">
   <rect
     width="32"
     x="392.57101"
     y="507.798"
     rx="16"
     height="32"
     id="rect111" />
  </clipPath>
  <linearGradient
    xlink:href="#g"
    id="t"
    y1="24.160999"
    x1="8.2550001"
    y2="8.4020004"
    gradientUnits="userSpaceOnUse"
    x2="24.093" />
  <clipPath
    id="s">
   <rect
     width="32"
     x="8"
     y="8"
     rx="16"
     height="32"
     id="rect114" />
  </clipPath>
  <filter
    width="1.1668191"
    x="-0.083409542"
    y="-0.081094781"
    height="1.1621896"
    id="u"
    color-interpolation-filters="sRGB">
   <feGaussianBlur
     stdDeviation=".4"
     id="feGaussianBlur138" />
  </filter>
  <linearGradient
    xlink:href="#h"
    id="w"
    y1="23.598"
    x1="7.4899998"
    y2="8.2639999"
    gradientUnits="userSpaceOnUse"
    x2="24.468"
    gradientTransform="matrix(1,0,0,-1,384.571,547.798)" />
  <clipPath
    id="v">
   <rect
     width="32"
     x="392.57101"
     y="507.798"
     rx="16"
     height="32"
     id="rect117" />
  </clipPath>
  <linearGradient
    xlink:href="#j"
    id="y"
    y1="24.121"
    x1="8.3710003"
    y2="8.0299997"
    gradientUnits="userSpaceOnUse"
    x2="24.011999"
    gradientTransform="rotate(180,216.286,273.899)" />
  <clipPath
    id="x">
   <rect
     width="32"
     x="392.57101"
     y="507.798"
     rx="16"
     height="32"
     id="rect120" />
  </clipPath>
  <linearGradient
    xlink:href="#i"
    id="A"
    y1="24.08"
    x1="8.3940001"
    y2="8.3620005"
    gradientUnits="userSpaceOnUse"
    x2="24.139"
    gradientTransform="matrix(-1,0,0,1,432.571,499.798)" />
  <clipPath
    id="z">
   <rect
     width="32"
     x="392.57101"
     y="507.798"
     rx="16"
     height="32"
     id="rect123" />
  </clipPath>
  <linearGradient
    xlink:href="#g"
    id="B"
    gradientUnits="userSpaceOnUse"
    x1="8.4569998"
    y1="23.997999"
    x2="24.105"
    y2="8.2360001" />
  <linearGradient
    xlink:href="#h"
    id="C"
    y1="24.021999"
    x1="8.0430002"
    y2="8"
    gradientUnits="userSpaceOnUse"
    x2="24"
    gradientTransform="matrix(1,0,0,-1,384.571,547.798)" />
  <linearGradient
    xlink:href="#j"
    id="D"
    y1="24"
    x1="8"
    y2="8"
    gradientUnits="userSpaceOnUse"
    x2="24"
    gradientTransform="rotate(180,216.286,273.899)" />
  <linearGradient
    xlink:href="#i"
    id="E"
    y1="24.135"
    x1="8.1920004"
    y2="8.2329998"
    gradientUnits="userSpaceOnUse"
    x2="24.062"
    gradientTransform="matrix(-1,0,0,1,432.571,499.798)" />
  <linearGradient
    xlink:href="#g"
    id="G"
    y1="23.327999"
    x1="8.059"
    y2="8.3719997"
    gradientUnits="userSpaceOnUse"
    x2="23.775" />
  <clipPath
    id="F">
   <rect
     width="32"
     x="8"
     y="8"
     rx="16"
     height="32"
     id="rect126" />
  </clipPath>
  <linearGradient
    xlink:href="#h"
    id="I"
    y1="23.961"
    x1="8.323"
    y2="8.2550001"
    gradientUnits="userSpaceOnUse"
    x2="23.943001"
    gradientTransform="matrix(1,0,0,-1,384.571,547.798)" />
  <clipPath
    id="H">
   <rect
     width="32"
     x="392.57101"
     y="507.798"
     rx="16"
     height="32"
     id="rect129" />
  </clipPath>
  <linearGradient
    xlink:href="#i"
    id="M"
    y1="23.524"
    x1="7.302"
    y2="8.4689999"
    gradientUnits="userSpaceOnUse"
    x2="24.042"
    gradientTransform="matrix(-1,0,0,1,432.571,499.798)" />
  <clipPath
    id="L">
   <rect
     width="32"
     x="392.57101"
     y="507.798"
     rx="16"
     height="32"
     id="rect135" />
  </clipPath>
  <linearGradient
    id="O"
    y1="536.79999"
    y2="503.79999"
    x2="0"
    gradientUnits="userSpaceOnUse"
    gradientTransform="matrix(0.65486649,0,0,0.65486649,-252.312,-326.30921)">
   <stop
     stop-color="#2a2c2f"
     id="stop32" />
   <stop
     offset="1"
     stop-color="#424649"
     id="stop34" />
  </linearGradient>
 </defs>
 <rect
   style="display:inline;fill:url(#linearGradient919);fill-opacity:1;fill-rule:evenodd;stroke:none;stroke-width:0.911114;stroke-linejoin:round;stroke-miterlimit:7.8"
   id="rect1192"
   width="41.340233"
   height="41.92947"
   x="3.4989951"
   y="3.2583072"
   ry="0" />
 <g
   id="g949"
   transform="matrix(1.5000196,0,0,1.4990482,-98.738341,-5.3493748)">
  <g
    id="g173144"
    transform="matrix(0.89812113,0,0,1.261041,67.805,0.50979181)">
   <path
     d="m 24.159,10.832 c -5.838,1.535 -13.025,4.163 -13.403,5.493 -0.173,0.314 0.495,4.974 1.12,7.636 L 24,24 Z"
     transform="matrix(1.2579461,0.2386268,-0.33706633,0.89059879,-6.7770148,-11.723137)"
     clip-path="url(#k)"
     id="path143"
     style="fill:url(#l)" />
   <path
     d="m 408.557,536.313 c -3.734,0 -5.803,1.212 -7.895,1.889 -1.321,-3.807 -3.052,-10.433 -4.198,-15.28 l 12.107,0.876 z"
     transform="matrix(1.2579461,0.2386268,-0.33706633,0.89059879,-322.08279,-548.61674)"
     clip-path="url(#m)"
     id="path145"
     style="fill:url(#n)" />
   <path
     d="m 408.55,510.761 c 3.708,-0.73 7.008,-1.273 7.342,-0.962 0.574,0.533 3.584,9.873 4.929,15.046 l -12.25,-1.047 z"
     transform="matrix(1.2579461,0.2386268,-0.33706633,0.89059879,-322.08279,-548.61674)"
     clip-path="url(#o)"
     id="path147"
     style="fill:url(#p)" />
   <path
     d="m 408.557,536.313 c 6.337,-1.695 13.12,-2.183 13.873,-4.508 0.31,-0.961 -1.61,-5.283 -1.61,-7.502 l -12.249,-0.505 z"
     transform="matrix(1.2579461,0.2386268,-0.33706633,0.89059879,-322.08279,-548.61674)"
     clip-path="url(#q)"
     id="path149"
     style="fill:url(#r)" />
   <path
     d="m 23.93,11.46 c -5.762,0 -10.064,0.604 -10.573,1.537 -0.331,0.607 -0.977,7.298 -0.977,10.4 L 24,24 Z"
     transform="matrix(1.3023199,0,0,0.92201928,-15.931394,-6.7513908)"
     clip-path="url(#s)"
     id="path151"
     style="opacity:0.7;fill:url(#t);filter:url(#u)" />
   <path
     d="m 407.87,535.702 c -5.956,0 -6.454,-0.59 -10.763,-0.026 -0.104,-1.356 0.007,-8.688 0.007,-11.596 l 11.458,-0.282 z"
     transform="matrix(1.3023199,0,0,0.92201928,-516.76805,-467.57374)"
     clip-path="url(#v)"
     id="path153"
     style="opacity:0.7;fill:url(#w);filter:url(#u)" />
   <path
     d="m 408.56,535.636 c 8.864,0 11.678,-2.894 11.678,-11.758 l -11.667,-0.08 z"
     transform="matrix(1.3023199,0,0,0.92201928,-516.76805,-467.57374)"
     clip-path="url(#x)"
     id="path155"
     style="opacity:0.7;fill:url(#y);filter:url(#u)" />
   <path
     d="m 408.641,511.299 c 8.864,0 11.597,3.474 11.597,12.338 l -11.667,0.161 z"
     transform="matrix(1.3023199,0,0,0.92201928,-516.76805,-467.57374)"
     clip-path="url(#z)"
     id="path157"
     style="opacity:0.7;fill:url(#A);filter:url(#u)" />
   <path
     d="M 23.874,8.398 C 17.25,12.245 8.883,22.008 8.429,23.977 L 24,24 Z"
     transform="matrix(0.92087922,0.65196608,-0.92087922,0.65196608,15.324604,-15.916496)"
     clip-path="url(#s)"
     id="path159"
     style="opacity:0.35;fill:url(#B)" />
   <path
     d="m 408.571,539.798 c -7.337,-7.388 -11,-11.262 -15.616,-16.023 l 15.616,0.023 z"
     transform="matrix(0.92087922,0.65196608,-0.92087922,0.65196608,121.43444,-592.49591)"
     clip-path="url(#v)"
     id="path161"
     style="opacity:0.35;fill:url(#C)" />
   <path
     d="m 408.571,539.798 c 7.364,-3.653 11.204,-12.314 16,-16 h -16 z"
     transform="matrix(0.92087922,0.65196608,-0.92087922,0.65196608,121.43444,-592.49591)"
     clip-path="url(#x)"
     id="path163"
     style="opacity:0.35;fill:url(#D)" />
   <path
     d="m 408.445,508.218 c 6.409,5.87 9.963,9.238 16.126,15.58 h -16 z"
     transform="matrix(0.92087922,0.65196608,-0.92087922,0.65196608,121.43444,-592.49591)"
     clip-path="url(#z)"
     id="path165"
     style="opacity:0.35;fill:url(#E)" />
   <path
     d="m 23.98,11.81 c -3.284,-0.917 -8.176,-1.473 -8.282,-1.08 -0.78,2.89 -4.49,7.742 -4.49,13.266 L 24,24 Z"
     transform="matrix(0.33706633,0.89059879,-1.2579461,0.2386268,37.425164,-11.723137)"
     clip-path="url(#F)"
     id="path167"
     style="opacity:0.3;fill:url(#G)" />
   <path
     d="m 409.107,535.935 c -7.82,-2.059 -13.72,-3.915 -13.955,-4.417 -0.936,-0.885 0.46,-5.353 0.46,-7.72 h 12.96 z"
     transform="matrix(0.33706633,0.89059879,-1.2579461,0.2386268,536.51988,-473.49439)"
     clip-path="url(#H)"
     id="path169"
     style="opacity:0.3;fill:url(#I)" />
   <path
     d="m 408.541,511.797 c 4.89,1.31 13.51,4.12 14.262,4.684 0.067,1.414 -1.213,3.095 -1.213,6.954 l -13.019,0.363 z"
     transform="matrix(0.33706633,0.89059879,-1.2579461,0.2386268,536.51988,-473.49439)"
     clip-path="url(#L)"
     id="path173"
     style="opacity:0.3;fill:url(#M)" />
   <path
     d="m 15.32405,10.571536 a 5.0682397,3.6096313 0 0 0 -5.068245,3.609631 c 0,1.496355 1.258767,2.772197 3.077805,3.320861 l -3.077805,7.508037 H 20.39229 l -3.077805,-7.508037 a 5.040594,3.5899418 0 0 0 3.077805,-3.320861 5.0682397,3.6096313 0 0 0 -5.06824,-3.609631 z"
     overflow="visible"
     id="path28-2-7-2-7"
     style="fill:#fdfefe;fill-opacity:1;stroke:#2c2e31;stroke-width:0.56943;stroke-miterlimit:4;stroke-dasharray:none;stroke-opacity:1" />
   <path
     d="m 2.8043369,3.6125264 c -1.81398019,0 -3.27433248,1.4603523 -3.27433248,3.2743324 V 23.913388 c 0,1.81398 1.46035229,3.274332 3.27433248,3.274332 H 27.689264 c 1.81398,0 3.274332,-1.460352 3.274332,-3.274332 V 6.8868588 c 0,-1.8139801 -1.460352,-3.2743324 -3.274332,-3.2743324 z m 0.00262,1.3110427 H 27.691883 a 1.9665641,1.9665641 0 0 1 1.391591,0.5730082 c 0.352974,0.3523182 0.565805,0.8401937 0.569079,1.3784939 V 24.566944 H 0.84235688 V 6.8803102 A 1.9560862,1.9560862 0 0 1 2.8069569,4.9235691 Z"
     id="path177"
     style="fill:url(#O);stroke-width:0.654867" />
  </g>
 </g>
 <path
   style="display:inline;mix-blend-mode:normal;fill:url(#linearGradient3403);fill-opacity:1;stroke:url(#linearGradient20558);stroke-width:1.16242;stroke-linecap:butt;stroke-linejoin:round;stroke-miterlimit:4;stroke-dasharray:none;stroke-opacity:1"
   d="M 4.7043071,3.9814882 4.6913695,60.80196 H 58.59546 l 1.022155,-2.866369 c 0,0 -23.87537,0.766388 -32.844441,-4.140386 C 16.257548,48.042344 11.401114,4.0978197 11.401114,4.0978197 Z"
   id="path1686"
   transform="matrix(0.73858089,0,0,0.7381026,0.48996955,0.31955697)" />
 <rect
   style="display:inline;fill:none;fill-opacity:1;stroke:url(#linearGradient4557);stroke-width:3.71366;stroke-linejoin:round;stroke-miterlimit:7.8;stroke-dasharray:none;stroke-opacity:0.995146"
   id="rect4539"
   width="62.566689"
   height="62.866646"
   x="1.0323594"
   y="0.59551275"
   ry="6.2447233"
   rx="5.8029528"
   transform="matrix(0.69188984,0,0,0.69003247,1.7309053,1.8110378)" />
</svg>
