<?xml version="1.0" encoding="UTF-8" standalone="no"?>
<!-- Created with Inkscape (http://www.inkscape.org/) -->

<svg
  width="48"
  height="48"
  version="1.1"
  viewBox="0 0 48 48"
  id="svg22"
  xmlns:xlink="http://www.w3.org/1999/xlink"
  xmlns="http://www.w3.org/2000/svg"
  xmlns:svg="http://www.w3.org/2000/svg">
 <defs
   id="defs12">
  <linearGradient
    id="linearGradient1005-3-3"
    x1="5.2535"
    x2="9.3823996"
    y1="15.383"
    y2="2.9421"
    gradientTransform="matrix(0.99999,0,0,0.99999,1.632,-0.61743)"
    gradientUnits="userSpaceOnUse">
   <stop
     stop-color="#fa8200"
     offset="0"
     id="stop2" />
   <stop
     stop-color="#ff9600"
     offset=".36953"
     id="stop4" />
   <stop
     stop-color="#ffb400"
     offset="1"
     id="stop6" />
  </linearGradient>
  <filter
    id="filter4014"
    x="-0.062499932"
    y="-0.057692992"
    width="1.1249999"
    height="1.115386"
    color-interpolation-filters="sRGB">
   <feGaussianBlur
     stdDeviation="1.093751"
     id="feGaussianBlur9" />
  </filter>
  <linearGradient
    xlink:href="#linearGradient3487"
    id="linearGradient3403"
    gradientUnits="userSpaceOnUse"
    x1="6.9491749"
    y1="4.5549412"
    x2="11.215498"
    y2="59.052471" />
  <linearGradient
    id="linearGradient3487">
   <stop
     style="stop-color:#32373c;stop-opacity:1"
     offset="0"
     id="stop3481" />
   <stop
     id="stop3483"
     offset="0.36804965"
     style="stop-color:#1a1a1a;stop-opacity:1" />
   <stop
     style="stop-color:#31363b;stop-opacity:1"
     offset="1"
     id="stop3485" />
  </linearGradient>
  <linearGradient
    xlink:href="#linearGradient20604"
    id="linearGradient20558"
    gradientUnits="userSpaceOnUse"
    x1="25.802212"
    y1="20.373846"
    x2="25.111048"
    y2="58.912758" />
  <linearGradient
    id="linearGradient20604">
   <stop
     id="stop20598"
     offset="0"
     style="stop-color:#3d3d3d;stop-opacity:1" />
   <stop
     style="stop-color:#000000;stop-opacity:1"
     offset="0.61772454"
     id="stop20600" />
   <stop
     id="stop20602"
     offset="1"
     style="stop-color:#3d3d3d;stop-opacity:1" />
  </linearGradient>
  <linearGradient
    gradientTransform="translate(0.36067797,-0.13016949)"
    xlink:href="#linearGradient4555"
    id="linearGradient4557"
    x1="43.499737"
    y1="64.011795"
    x2="44.141731"
    y2="0.30621234"
    gradientUnits="userSpaceOnUse" />
  <linearGradient
    id="linearGradient4555">
   <stop
     style="stop-color:#141618;stop-opacity:1"
     offset="0"
     id="stop4551" />
   <stop
     id="stop4559"
     offset="0.51820582"
     style="stop-color:#686868;stop-opacity:1" />
   <stop
     style="stop-color:#31363b;stop-opacity:1"
     offset="1"
     id="stop4553" />
  </linearGradient>
  <filter
    style="color-interpolation-filters:sRGB"
    id="filter4601"
    x="-0.029681723"
    width="1.0593634"
    y="-0.029540291"
    height="1.0590806">
   <feGaussianBlur
     stdDeviation="0.00011207747"
     id="feGaussianBlur4603" />
  </filter>
 </defs>
 <g
   id="g1228"
   transform="matrix(1.0664873,0,0,1.0664873,1.2054787,-2.5429298)">
  <rect
    style="fill:#976e2e"
    width="40"
    height="36"
    x="-44"
    y="-42"
    rx="2"
    ry="2"
    transform="matrix(0,-1,-1,0,0,0)"
    id="rect2" />
  <path
    style="opacity:0.1"
    d="m 13,9 c -1.662,0 -3,1.338 -3,3 v 9 3 3 h 3 22 3 V 24 21 12 C 38,10.338 36.662,9 35,9 Z m 0,3 h 22 v 9 3 H 13 v -3 z"
    id="path4" />
  <path
    style="fill:#c3c3c3"
    d="m 13,8 c -1.662,0 -3,1.338 -3,3 v 9 3 3 h 3 22 3 V 23 20 11 C 38,9.338 36.662,8 35,8 Z m 0,3 h 22 v 9 3 H 13 v -3 z"
    id="path10" />
  <path
    style="opacity:0.2;fill:#ffffff"
    d="m 13,8 c -1.662,0 -3,1.338 -3,3 v 1 c 0,-1.662 1.338,-3 3,-3 h 22 c 1.662,0 3,1.338 3,3 V 11 C 38,9.338 36.662,8 35,8 Z m 0,15 v 1 h 22 v -1 z"
    id="path12" />
  <rect
    style="fill:#a4a4a4"
    width="2"
    height="9"
    x="23"
    y="25"
    id="rect14" />
  <path
    style="fill:none;stroke:#c3c3c3;stroke-width:2;stroke-linecap:round"
    d="m 21.002874,27 1,-5"
    id="path16" />
  <path
    style="opacity:0.2;fill:none;stroke:#000000;stroke-width:2;stroke-linecap:round"
    d="m 19.002874,28.000032 1,-5"
    id="path18" />
  <path
    style="fill:none;stroke:#c3c3c3;stroke-width:2;stroke-linecap:round"
    d="m 25.002874,27 1,-5"
    id="path20" />
  <path
    style="fill:none;stroke:#c3c3c3;stroke-width:2;stroke-linecap:round"
    d="m 29.002874,27 1,-5"
    id="path22" />
  <path
    style="opacity:0.2"
    d="M 19.988281,33 C 18.999835,33 18,33.999889 18,35.019531 V 43 h 6 a 2,2 0 0 1 2,-2 2,2 0 0 1 0.171875,0.0078 A 3,3 0 0 1 29,39 3,3 0 0 1 30,39.173828 V 33 Z"
    id="path24" />
  <path
    style="fill:#ffb22b"
    d="M 19.988281,32 C 18.999835,32 18,32.999889 18,34.019531 V 42 h 6 a 2,2 0 0 1 2,-2 2,2 0 0 1 0.171875,0.0078 A 3,3 0 0 1 29,38 3,3 0 0 1 30,38.173828 V 32 Z"
    id="path26" />
  <path
    style="opacity:0.2"
    d="m 29,33 a 2,2 0 0 0 -2,2 2,2 0 0 0 2,2 2,2 0 0 0 1,-0.271484 V 33.269531 A 2,2 0 0 0 29,33 Z"
    id="path28" />
  <circle
    style="opacity:0.2"
    cx="21"
    cy="40"
    r="1"
    id="circle30" />
  <path
    style="opacity:0.2"
    d="M 19.988281,32 C 18.999835,32 18,32.999889 18,34.019531 v 1.476563 A 2.5,2.5 0 0 0 19.5,36 2.5,2.5 0 0 0 22,33.5 2.5,2.5 0 0 0 21.498047,32 Z"
    id="path32" />
  <path
    style="opacity:0.1"
    d="m 29,33 a 2,2 0 0 0 -2,2 2,2 0 0 0 0.06445,0.496094 A 2,2 0 0 1 29,34 a 2,2 0 0 1 1,0.269531 v -1 A 2,2 0 0 0 29,33 Z"
    id="path34" />
  <path
    style="opacity:0.1"
    d="m 21,39 a 1,1 0 0 0 -1,1 1,1 0 0 0 0.134766,0.5 A 1,1 0 0 1 21,40 1,1 0 0 1 21.865234,40.5 1,1 0 0 0 22,40 1,1 0 0 0 21,39 Z"
    id="path36" />
  <path
    style="opacity:0.1"
    d="M 19.988281,32 C 18.999835,32 18,32.999889 18,34.019531 v 1 C 18,33.999889 18.999835,33 19.988281,33 h 1.509766 A 2.5,2.5 0 0 1 21.947266,33.996094 2.5,2.5 0 0 0 22,33.5 2.5,2.5 0 0 0 21.498047,32 Z"
    id="path38" />
  <path
    style="fill:none;stroke:#eaeaea;stroke-width:2;stroke-linecap:round"
    d="m 19.002874,27 1,-5"
    id="path40" />
  <path
    style="opacity:0.2;fill:none;stroke:#000000;stroke-width:2;stroke-linecap:round"
    d="m 23.002874,28.000032 1,-5"
    id="path42" />
  <path
    style="fill:none;stroke:#eaeaea;stroke-width:2;stroke-linecap:round"
    d="m 23.002874,27 1,-5"
    id="path44" />
  <path
    style="opacity:0.2;fill:none;stroke:#000000;stroke-width:2;stroke-linecap:round"
    d="m 27.002874,28.000032 1,-5"
    id="path46" />
  <path
    style="fill:none;stroke:#eaeaea;stroke-width:2;stroke-linecap:round"
    d="m 27.002874,27 1,-5"
    id="path48" />
 </g>
 <path
   style="display:inline;mix-blend-mode:normal;fill:url(#linearGradient3403);fill-opacity:1;stroke:url(#linearGradient20558);stroke-width:1.16242;stroke-linecap:butt;stroke-linejoin:round;stroke-miterlimit:4;stroke-dasharray:none;stroke-opacity:1"
   d="M 4.7043071,3.9814882 4.6913695,60.80196 H 58.59546 l 1.022155,-2.866369 c 0,0 -23.87537,0.766388 -32.844441,-4.140386 C 16.257548,48.042344 11.401114,4.0978197 11.401114,4.0978197 Z"
   id="path1686"
   transform="matrix(0.7518797,0,0,0.7518797,0.09970467,0.02488636)" />
 <rect
   style="display:inline;fill:none;fill-opacity:1;stroke:url(#linearGradient4557);stroke-width:3.71366;stroke-linejoin:round;stroke-miterlimit:7.8;stroke-dasharray:none;stroke-opacity:0.995146"
   id="rect4539"
   width="62.567089"
   height="62.866646"
   x="1.0323594"
   y="0.59551275"
   ry="6.2447233"
   rx="5.8029528"
   transform="matrix(0.70434793,0,0,0.70291231,1.3629847,1.5442064)" />
</svg>
