<?xml version="1.0" encoding="UTF-8" standalone="no"?>
<!-- Created with Inkscape (http://www.inkscape.org/) -->

<svg
  width="48"
  height="48"
  version="1.1"
  viewBox="0 0 48 48"
  id="svg22"
  xmlns:xlink="http://www.w3.org/1999/xlink"
  xmlns="http://www.w3.org/2000/svg"
  xmlns:svg="http://www.w3.org/2000/svg">
 <defs
   id="defs12">
  <linearGradient
    id="linearGradient917">
   <stop
     style="stop-color:#000000;stop-opacity:0.99607843"
     offset="0"
     id="stop913" />
   <stop
     style="stop-color:#353a3f;stop-opacity:0.99607843"
     offset="1"
     id="stop915" />
  </linearGradient>
  <linearGradient
    id="linearGradient1005-3-3"
    x1="5.2535"
    x2="9.3823996"
    y1="15.383"
    y2="2.9421"
    gradientTransform="matrix(0.99999,0,0,0.99999,1.632,-0.61743)"
    gradientUnits="userSpaceOnUse">
   <stop
     stop-color="#fa8200"
     offset="0"
     id="stop2" />
   <stop
     stop-color="#ff9600"
     offset=".36953"
     id="stop4" />
   <stop
     stop-color="#ffb400"
     offset="1"
     id="stop6" />
  </linearGradient>
  <filter
    id="filter4014"
    x="-0.062499932"
    y="-0.057692992"
    width="1.1249999"
    height="1.115386"
    color-interpolation-filters="sRGB">
   <feGaussianBlur
     stdDeviation="1.093751"
     id="feGaussianBlur9" />
  </filter>
  <linearGradient
    xlink:href="#linearGradient3487"
    id="linearGradient3403"
    gradientUnits="userSpaceOnUse"
    x1="6.9491749"
    y1="4.5549412"
    x2="11.215498"
    y2="59.052471" />
  <linearGradient
    id="linearGradient3487">
   <stop
     style="stop-color:#32373c;stop-opacity:1"
     offset="0"
     id="stop3481" />
   <stop
     id="stop3483"
     offset="0.36804965"
     style="stop-color:#1a1a1a;stop-opacity:1" />
   <stop
     style="stop-color:#31363b;stop-opacity:1"
     offset="1"
     id="stop3485" />
  </linearGradient>
  <linearGradient
    xlink:href="#linearGradient20604"
    id="linearGradient20558"
    gradientUnits="userSpaceOnUse"
    x1="25.802212"
    y1="20.373846"
    x2="25.111048"
    y2="58.912758" />
  <linearGradient
    id="linearGradient20604">
   <stop
     id="stop20598"
     offset="0"
     style="stop-color:#3d3d3d;stop-opacity:1" />
   <stop
     style="stop-color:#000000;stop-opacity:1"
     offset="0.61772454"
     id="stop20600" />
   <stop
     id="stop20602"
     offset="1"
     style="stop-color:#3d3d3d;stop-opacity:1" />
  </linearGradient>
  <filter
    style="color-interpolation-filters:sRGB"
    id="filter20720"
    x="-0.010582392"
    y="-0.010229589"
    width="1.0211643"
    height="1.0204592">
   <feGaussianBlur
     stdDeviation="1.7116695e-05"
     id="feGaussianBlur20722" />
  </filter>
  <linearGradient
    gradientTransform="translate(0.36067797,-0.13016949)"
    xlink:href="#linearGradient4555"
    id="linearGradient4557"
    x1="43.499737"
    y1="64.011795"
    x2="44.141731"
    y2="0.30621234"
    gradientUnits="userSpaceOnUse" />
  <linearGradient
    id="linearGradient4555">
   <stop
     style="stop-color:#141618;stop-opacity:1"
     offset="0"
     id="stop4551" />
   <stop
     id="stop4559"
     offset="0.51820582"
     style="stop-color:#686868;stop-opacity:1" />
   <stop
     style="stop-color:#31363b;stop-opacity:1"
     offset="1"
     id="stop4553" />
  </linearGradient>
  <filter
    style="color-interpolation-filters:sRGB"
    id="filter4601"
    x="-0.029678125"
    width="1.0593563"
    y="-0.02953671"
    height="1.0590734">
   <feGaussianBlur
     stdDeviation="1.8290437e-05"
     id="feGaussianBlur4603" />
  </filter>
  <linearGradient
    xlink:href="#linearGradient917"
    id="linearGradient919"
    x1="7.400631"
    y1="41.743092"
    x2="33.063145"
    y2="7.1074457"
    gradientUnits="userSpaceOnUse" />
  <linearGradient
    id="c"
    y1="523.79999"
    x1="403.57001"
    y2="536.79999"
    x2="416.57001"
    gradientUnits="userSpaceOnUse"
    gradientTransform="translate(-382.3618,-501.38052)">
   <stop
     stop-color="#292c2f"
     id="stop2-1" />
   <stop
     offset="1"
     stop-opacity="0"
     id="stop4-7" />
  </linearGradient>
  <linearGradient
    xlink:href="#b-2"
    id="linearGradient4189"
    x1="14.369"
    y1="22.521999"
    x2="26.521999"
    y2="22.521999"
    gradientUnits="userSpaceOnUse" />
  <linearGradient
    x1="36"
    gradientUnits="userSpaceOnUse"
    x2="14"
    y2="12"
    y1="44"
    id="b-2">
   <stop
     style="stop-color:#bfc9c9;stop-opacity:1"
     stop-color="#536161"
     id="stop13" />
   <stop
     style="stop-color:#fbfbfb;stop-opacity:1"
     stop-color="#f4f5f5"
     offset="1"
     id="stop15" />
  </linearGradient>
  <linearGradient
    xlink:href="#b-2"
    id="linearGradient4428"
    gradientUnits="userSpaceOnUse"
    x1="31.586"
    y1="36.345001"
    x2="1.2029999"
    y2="6.723" />
  <linearGradient
    id="linearGradient1067"
    y1="537.59998"
    x1="400.57001"
    y2="546.58002"
    x2="392.89999"
    gradientUnits="userSpaceOnUse"
    gradientTransform="matrix(1.25,0,0,1.26667,-92.14,-151.08)">
   <stop
     id="stop1063"
     stop-color="#ffc35a"
     style="stop-color:#faae2a;stop-opacity:1" />
   <stop
     id="stop1065"
     offset="1"
     stop-color="#faae2a"
     style="stop-color:#fcd187;stop-opacity:1" />
  </linearGradient>
  <linearGradient
    gradientUnits="userSpaceOnUse"
    x2="0"
    y2="2.987"
    y1="43.922001"
    id="h"
    gradientTransform="translate(-122.5135,-45.5035)">
   <stop
     id="stop4658"
     stop-color="#22a7f0"
     style="stop-color:#085077;stop-opacity:1" />
   <stop
     id="stop4660"
     stop-color="#19b5fe"
     offset="1"
     style="stop-color:#0db1fe;stop-opacity:1" />
  </linearGradient>
  <linearGradient
    id="paint0_linear"
    x1="51"
    y1="10"
    x2="11"
    y2="50"
    gradientUnits="userSpaceOnUse">
   <stop
     stop-color="#6EB4D9"
     id="stop9" />
   <stop
     offset="1"
     stop-color="#004E6E"
     id="stop10" />
  </linearGradient>
  <linearGradient
    id="paint1_linear"
    x1="8"
    y1="8"
    x2="48"
    y2="48"
    gradientUnits="userSpaceOnUse">
   <stop
     stop-color="#44F0D3"
     id="stop11" />
   <stop
     offset="1"
     stop-color="#3DAEE9"
     id="stop12" />
  </linearGradient>
  <linearGradient
    id="paint2_linear"
    x1="43"
    y1="18"
    x2="19.5854"
    y2="-11.2683"
    gradientUnits="userSpaceOnUse">
   <stop
     stop-color="#D1D5D9"
     id="stop13-6" />
   <stop
     offset="1"
     stop-color="#FCFFFF"
     id="stop14" />
  </linearGradient>
  <linearGradient
    id="paint3_linear"
    x1="38"
    y1="25"
    x2="14.02"
    y2="0.020815801"
    gradientUnits="userSpaceOnUse">
   <stop
     stop-color="#D1D5D9"
     id="stop15-2" />
   <stop
     offset="1"
     stop-color="#FCFFFF"
     id="stop16" />
  </linearGradient>
  <linearGradient
    id="paint4_linear"
    x1="33"
    y1="32"
    x2="9.3934402"
    y2="12.3279"
    gradientUnits="userSpaceOnUse">
   <stop
     stop-color="#D1D5D9"
     id="stop17" />
   <stop
     offset="1"
     stop-color="#FCFFFF"
     id="stop18" />
  </linearGradient>
 </defs>
 <rect
   style="display:inline;fill:url(#linearGradient919);fill-opacity:1;fill-rule:evenodd;stroke:none;stroke-width:0.92782;stroke-linejoin:round;stroke-miterlimit:7.8"
   id="rect1192"
   width="42.084602"
   height="42.712109"
   x="3.1629105"
   y="3.0184898"
   ry="0" />
 <g
   id="g18"
   transform="translate(-3.8456257,-4.9377798)">
  <path
    d="m 51,12 c 0,-1.1046 -0.8954,-2 -2,-2 H 13 c -1.1046,0 -2,0.8954 -2,2 v 26 c 0,1.1046 0.8954,2 2,2 h 17.5858 c 0.2652,0 0.5196,0.1054 0.7071,0.2929 l 8,8 C 39.9229,48.9229 41,48.4767 41,47.5858 V 41 c 0,-0.5523 0.4477,-1 1,-1 h 7 c 1.1046,0 2,-0.8954 2,-2 z"
    fill="url(#paint0_linear)"
    id="path1"
    style="fill:url(#paint0_linear)" />
  <path
    fill-rule="evenodd"
    clip-rule="evenodd"
    d="m 11,37 v 1 c 0,1.1046 0.8954,2 2,2 h 17.5858 c 0.2652,0 0.5196,0.1054 0.7071,0.2929 l 8,8 C 39.9229,48.9229 41,48.4767 41,47.5858 v -1 c 0,0.8909 -1.0771,1.3371 -1.7071,0.7071 l -8,-8 C 31.1054,39.1054 30.851,39 30.5858,39 H 13 c -1.1046,0 -2,-0.8954 -2,-2 z m 30,4 c 0,-0.5523 0.4477,-1 1,-1 h 7 c 1.1046,0 2,-0.8954 2,-2 v -1 c 0,1.1046 -0.8954,2 -2,2 h -7 c -0.5523,0 -1,0.4477 -1,1 z"
    fill="#000405"
    fill-opacity="0.1"
    id="path2" />
  <path
    d="M 8,10 C 8,8.89543 8.89543,8 10,8 h 36 c 1.1046,0 2,0.89543 2,2 v 26 c 0,1.1046 -0.8954,2 -2,2 H 28.4142 c -0.2652,0 -0.5196,0.1054 -0.7071,0.2929 l -8,8 C 19.0771,46.9229 18,46.4767 18,45.5858 V 39 c 0,-0.5523 -0.4477,-1 -1,-1 H 10 C 8.89543,38 8,37.1046 8,36 Z"
    fill="url(#paint1_linear)"
    id="path3"
    style="fill:url(#paint1_linear)" />
  <path
    fill-rule="evenodd"
    clip-rule="evenodd"
    d="m 8,35 v 1 c 0,1.1046 0.89543,2 2,2 h 7 c 0.5523,0 1,0.4477 1,1 v -1 c 0,-0.5523 -0.4477,-1 -1,-1 H 10 C 8.89543,37 8,36.1046 8,35 Z m 10,9.5858 v 1 c 0,0.8909 1.0771,1.3371 1.7071,0.7071 l 8,-8 C 27.8946,38.1054 28.149,38 28.4142,38 H 46 c 1.1046,0 2,-0.8954 2,-2 v -1 c 0,1.1046 -0.8954,2 -2,2 H 28.4142 c -0.2652,0 -0.5196,0.1054 -0.7071,0.2929 l -8,8 C 19.0771,45.9229 18,45.4767 18,44.5858 Z"
    fill="#031c5a"
    fill-opacity="0.1"
    id="path4" />
  <rect
    x="13"
    y="14"
    width="30"
    height="4"
    rx="2"
    fill="url(#paint2_linear)"
    id="rect4"
    style="fill:url(#paint2_linear)" />
  <rect
    x="12.5"
    y="13.5"
    width="31"
    height="5"
    rx="2.5"
    stroke="#004e6e"
    stroke-opacity="0.1"
    id="rect5" />
  <rect
    x="13"
    y="21"
    width="25"
    height="4"
    rx="2"
    fill="url(#paint3_linear)"
    id="rect6"
    style="fill:url(#paint3_linear)" />
  <rect
    x="12.5"
    y="20.5"
    width="26"
    height="5"
    rx="2.5"
    stroke="#004e6e"
    stroke-opacity="0.1"
    id="rect7" />
  <rect
    x="13"
    y="28"
    width="20"
    height="4"
    rx="2"
    fill="url(#paint4_linear)"
    id="rect8"
    style="fill:url(#paint4_linear)" />
  <rect
    x="12.5"
    y="27.5"
    width="21"
    height="5"
    rx="2.5"
    stroke="#004e6e"
    stroke-opacity="0.1"
    id="rect9" />
 </g>
 <path
   style="display:inline;mix-blend-mode:normal;fill:url(#linearGradient3403);fill-opacity:1;stroke:url(#linearGradient20558);stroke-width:1.16242;stroke-linecap:butt;stroke-linejoin:round;stroke-miterlimit:4;stroke-dasharray:none;stroke-opacity:1"
   d="M 4.7043071,3.9814882 4.6913695,60.80196 H 58.59546 l 1.022155,-2.866369 c 0,0 -23.87537,0.766388 -32.844441,-4.140386 C 16.257548,48.042344 11.401114,4.0978197 11.401114,4.0978197 Z"
   id="path1686"
   transform="matrix(0.7518797,0,0,0.7518797,0.09970467,0.02488636)" />
 <rect
   style="display:inline;fill:none;fill-opacity:1;stroke:url(#linearGradient4557);stroke-width:3.71366;stroke-linejoin:round;stroke-miterlimit:7.8;stroke-dasharray:none;stroke-opacity:0.995146"
   id="rect4539"
   width="62.567089"
   height="62.866646"
   x="1.0323594"
   y="0.59551275"
   ry="6.2447233"
   rx="5.8029528"
   transform="matrix(0.70434793,0,0,0.70291231,1.3629847,1.5442064)" />
</svg>
