<?xml version="1.0" encoding="UTF-8" standalone="no"?>
<!-- Created with Inkscape (http://www.inkscape.org/) -->

<svg
  width="48"
  height="48"
  version="1.1"
  viewBox="0 0 48 48"
  id="svg22"
  xmlns:xlink="http://www.w3.org/1999/xlink"
  xmlns="http://www.w3.org/2000/svg"
  xmlns:svg="http://www.w3.org/2000/svg">
 <defs
   id="defs12">
  <linearGradient
    xlink:href="#linearGradient3487"
    id="linearGradient3403"
    gradientUnits="userSpaceOnUse"
    x1="6.9491749"
    y1="4.5549412"
    x2="11.215498"
    y2="59.052471" />
  <linearGradient
    id="linearGradient3487">
   <stop
     style="stop-color:#32373c;stop-opacity:1"
     offset="0"
     id="stop3481" />
   <stop
     id="stop3483"
     offset="0.36804965"
     style="stop-color:#1a1a1a;stop-opacity:1" />
   <stop
     style="stop-color:#31363b;stop-opacity:1"
     offset="1"
     id="stop3485" />
  </linearGradient>
  <linearGradient
    xlink:href="#linearGradient20604"
    id="linearGradient20558"
    gradientUnits="userSpaceOnUse"
    x1="25.802212"
    y1="20.373846"
    x2="25.111048"
    y2="58.912758" />
  <linearGradient
    id="linearGradient20604">
   <stop
     id="stop20598"
     offset="0"
     style="stop-color:#3d3d3d;stop-opacity:1" />
   <stop
     style="stop-color:#000000;stop-opacity:1"
     offset="0.61772454"
     id="stop20600" />
   <stop
     id="stop20602"
     offset="1"
     style="stop-color:#3d3d3d;stop-opacity:1" />
  </linearGradient>
  <filter
    style="color-interpolation-filters:sRGB"
    id="filter20720"
    x="-0.010586167"
    y="-0.010233238"
    width="1.0211719"
    height="1.0204665">
   <feGaussianBlur
     stdDeviation="0.00010350025"
     id="feGaussianBlur20722" />
  </filter>
  <linearGradient
    gradientTransform="translate(0.36067797,-0.13016949)"
    xlink:href="#linearGradient4555"
    id="linearGradient4557"
    x1="43.499737"
    y1="64.011795"
    x2="44.141731"
    y2="0.30621234"
    gradientUnits="userSpaceOnUse" />
  <linearGradient
    id="linearGradient4555">
   <stop
     style="stop-color:#141618;stop-opacity:1"
     offset="0"
     id="stop4551" />
   <stop
     id="stop4559"
     offset="0.51820582"
     style="stop-color:#686868;stop-opacity:1" />
   <stop
     style="stop-color:#31363b;stop-opacity:1"
     offset="1"
     id="stop4553" />
  </linearGradient>
  <filter
    style="color-interpolation-filters:sRGB"
    id="filter4601"
    x="-0.029681856"
    width="1.0593637"
    y="-0.029540234"
    height="1.0590805">
   <feGaussianBlur
     stdDeviation="0.00011059756"
     id="feGaussianBlur4603" />
  </filter>
  <linearGradient
    id="c"
    gradientTransform="rotate(-165,-6.658,22.948)"
    gradientUnits="userSpaceOnUse"
    x1="-27.382999"
    x2="-20.311001"
    y1="21.552999"
    y2="47.945999">
   <stop
     offset="0"
     stop-color="#afb4b9"
     id="stop24" />
   <stop
     offset="1"
     stop-color="#cfd2d5"
     id="stop26" />
  </linearGradient>
  <linearGradient
    id="d"
    gradientUnits="userSpaceOnUse"
    x1="16"
    x2="16"
    y1="27"
    y2="5">
   <stop
     offset="0"
     stop-color="#1d99f3"
     id="stop13" />
   <stop
     offset="1"
     stop-color="#56b3f6"
     id="stop15" />
  </linearGradient>
  <linearGradient
    id="e"
    gradientUnits="userSpaceOnUse"
    x1="11"
    x2="20.947001"
    xlink:href="#a-0"
    y1="11"
    y2="20.947001" />
  <linearGradient
    id="a-0">
   <stop
     offset="0"
     stop-color="#292c2f"
     id="stop7-9" />
   <stop
     offset="1"
     stop-color="#0e0f10"
     stop-opacity="0"
     id="stop9-1" />
  </linearGradient>
  <linearGradient
    id="f"
    gradientUnits="userSpaceOnUse"
    x1="23"
    x2="30"
    xlink:href="#a-0"
    y1="15"
    y2="22" />
  <linearGradient
    id="g"
    gradientUnits="userSpaceOnUse"
    x1="24"
    x2="24"
    xlink:href="#b-7"
    y1="25"
    y2="7" />
  <linearGradient
    id="b-7">
   <stop
     offset="0"
     stop-color="#eff0f1"
     id="stop2-7" />
   <stop
     offset="1"
     stop-color="#fcfcfc"
     id="stop4-1" />
  </linearGradient>
  <linearGradient
    id="h"
    gradientUnits="userSpaceOnUse"
    x1="15"
    x2="22"
    xlink:href="#a-0"
    y1="15"
    y2="22" />
  <linearGradient
    id="i"
    gradientUnits="userSpaceOnUse"
    x1="16"
    x2="16"
    xlink:href="#b-7"
    y1="25"
    y2="7" />
  <linearGradient
    id="j"
    gradientUnits="userSpaceOnUse"
    x1="9.6359997"
    x2="17.271999"
    xlink:href="#a-0"
    y1="22.364"
    y2="30" />
  <linearGradient
    id="k"
    gradientUnits="userSpaceOnUse"
    x1="7"
    x2="7"
    xlink:href="#b-7"
    y1="25"
    y2="7" />
 </defs>
 <rect
   style="display:inline;fill:#292929;fill-opacity:1;fill-rule:evenodd;stroke:none;stroke-width:0.912071;stroke-linejoin:round;stroke-miterlimit:7.8"
   id="rect1192"
   width="41.370255"
   height="41.987106"
   x="3.5007112"
   y="3.2943227"
   ry="0" />
 <g
   id="g877"
   transform="matrix(1.5,0,0,1.5,0.86341547,-0.32192291)">
  <path
    d="M 16,2 A 14,14 0 0 0 13,2.336 V 4.395 A 12,12 0 0 0 9.916,5.672 L 8.463,4.219 A 14,14 0 0 0 4.209,8.453 L 5.672,9.916 A 12,12 0 0 0 4.39,13 H 2.34 A 14,14 0 0 0 2,16 14,14 0 0 0 2.336,19 h 2.059 a 12,12 0 0 0 1.277,3.084 l -1.453,1.453 a 14,14 0 0 0 4.234,4.254 L 9.916,26.328 A 12,12 0 0 0 13,27.61 v 2.05 a 14,14 0 0 0 3,0.34 13.997,13.997 0 0 0 3,-0.336 v -2.059 a 12,12 0 0 0 3.084,-1.277 l 1.453,1.453 a 14,14 0 0 0 4.254,-4.234 L 26.328,22.084 A 12,12 0 0 0 27.61,19 h 2.05 A 14,14 0 0 0 30,16 13.997,13.997 0 0 0 29.664,13 H 27.605 A 12,12 0 0 0 26.328,9.916 L 27.781,8.463 A 14,14 0 0 0 23.547,4.209 L 22.084,5.672 A 12,12 0 0 0 19,4.39 V 2.34 A 14,14 0 0 0 16,2 Z"
    fill="url(#c)"
    id="path29"
    style="fill:url(#c)" />
  <circle
    cx="16"
    cy="16"
    fill="url(#d)"
    r="11"
    id="circle31"
    style="fill:url(#d)" />
  <path
    d="m 16,8 a 8,8 0 0 0 -8,8 8,8 0 0 0 8,8 8,8 0 0 0 7.283,-4.717 L 23,19 l -4,4 -6,-6 2,-2 2,-2 4,4 2,-2 0.791,-0.791 a 8,8 0 0 0 -0.104,-0.416 l 0.26,0.26 L 25,13 l 3.49,3.49 1.367,1.367 a 14,14 0 0 0 0.07,-0.648 L 29,16.281 22.36,9.641 21.654,10.346 A 8,8 0 0 0 16,8 Z"
    fill="url(#e)"
    opacity="0.2"
    id="path33"
    style="fill:url(#e)" />
  <path
    d="m 25,13 -2,2 -2,2 6,6 0.121,-0.121 -0.793,-0.795 A 12,12 0 0 0 27.61,19 h 2.051 a 14,14 0 0 0 0.197,-1.143 z m 4.648,6.041 a 14,14 0 0 1 -0.275,1.01 14,14 0 0 0 0.275,-1.01 z m -0.275,1.01 a 14,14 0 0 1 -0.215,0.654 14,14 0 0 0 0.215,-0.654 z m -0.215,0.654 a 14,14 0 0 1 -0.084,0.22 l 0.018,-0.017 a 14,14 0 0 0 0.066,-0.203 z"
    fill="url(#f)"
    opacity="0.2"
    id="path35"
    style="fill:url(#f)" />
  <path
    d="m 23,13 v 2 h -2 v 2 h 2 v 2 h 2 v -2 h 2 v -2 h -2 v -2 z"
    fill="url(#g)"
    id="path37"
    style="fill:url(#g)" />
  <path
    d="m 13,17 6,6 4,-4 -6,-6 -2,2 z"
    fill="url(#h)"
    opacity="0.2"
    id="path39"
    style="fill:url(#h)" />
  <path
    d="m 15,13 v 2 h -2 v 2 h 2 v 2 h 2 v -2 h 2 v -2 h -2 v -2 z"
    fill="url(#i)"
    id="path41"
    style="fill:url(#i)" />
  <path
    d="m 22,22 -8,2 -4.363,-1.637 7.57,7.573 A 14,14 0 0 0 19,29.664 v -2.059 a 12,12 0 0 0 3.084,-1.277 l 1.453,1.453 a 14,14 0 0 0 2.35,-1.894 z m -3,7.664 A 14,14 0 0 0 19.998,29.391 14,14 0 0 1 19,29.664 Z m 0.998,-0.273 a 14,14 0 0 0 0.654,-0.215 14,14 0 0 1 -0.654,0.215 z m 0.654,-0.215 a 14,14 0 0 0 0.637,-0.244 14,14 0 0 1 -0.637,0.244 z m 0.637,-0.244 a 14,14 0 0 0 0.67,-0.293 14,14 0 0 1 -0.67,0.293 z m 0.67,-0.293 a 14,14 0 0 0 0.604,-0.307 14,14 0 0 1 -0.604,0.307 z m 0.604,-0.307 a 14,14 0 0 0 0.898,-0.506 14,14 0 0 1 -0.898,0.506 z"
    fill="url(#j)"
    opacity="0.2"
    id="path43"
    style="fill:url(#j)" />
  <path
    d="m 16,7 a 9,9 0 0 0 -9,9 9,9 0 0 0 9,9 9,9 0 0 0 6.36,-2.64 L 20.947,20.947 A 7,7 0 0 1 16,23 7,7 0 0 1 9,16 7,7 0 0 1 16,9 7,7 0 0 1 20.947,11.053 L 22.36,9.64 A 9,9 0 0 0 16,7 Z"
    fill="url(#k)"
    id="path45"
    style="fill:url(#k)" />
 </g>
 <path
   style="display:inline;mix-blend-mode:normal;fill:url(#linearGradient3403);fill-opacity:1;stroke:url(#linearGradient20558);stroke-width:1.16242;stroke-linecap:butt;stroke-linejoin:round;stroke-miterlimit:4;stroke-dasharray:none;stroke-opacity:1"
   d="M 4.7043071,3.9814882 4.6913695,60.80196 H 58.59546 l 1.022155,-2.866369 c 0,0 -23.87537,0.766388 -32.844441,-4.140386 C 16.257548,48.042344 11.401114,4.0978197 11.401114,4.0978197 Z"
   id="path1686"
   transform="matrix(0.73911719,0,0,0.7391172,0.48950047,0.35153292)" />
 <rect
   style="display:inline;fill:none;fill-opacity:1;stroke:url(#linearGradient4557);stroke-width:3.71366;stroke-linejoin:round;stroke-miterlimit:7.8;stroke-dasharray:none;stroke-opacity:0.995146"
   id="rect4539"
   width="62.566689"
   height="62.866646"
   x="1.0323594"
   y="0.59551275"
   ry="6.2447233"
   rx="5.8029528"
   transform="matrix(0.69239224,0,0,0.690981,1.7313375,1.8450639)" />
</svg>
