<?xml version="1.0" encoding="UTF-8" standalone="no"?>
<!-- Created with Inkscape (http://www.inkscape.org/) -->

<svg
  width="48"
  height="48"
  version="1.1"
  viewBox="0 0 48 48"
  id="svg22"
  xmlns:xlink="http://www.w3.org/1999/xlink"
  xmlns="http://www.w3.org/2000/svg"
  xmlns:svg="http://www.w3.org/2000/svg">
 <defs
   id="defs12">
  <linearGradient
    id="linearGradient12232">
   <stop
     style="stop-color:#14549a;stop-opacity:1;"
     offset="0"
     id="stop12228" />
   <stop
     style="stop-color:#09c4de;stop-opacity:1"
     offset="1"
     id="stop12230" />
  </linearGradient>
  <linearGradient
    id="linearGradient1005-3-3"
    x1="5.2535"
    x2="9.3823996"
    y1="15.383"
    y2="2.9421"
    gradientTransform="matrix(0.99999,0,0,0.99999,1.632,-0.61743)"
    gradientUnits="userSpaceOnUse">
   <stop
     stop-color="#fa8200"
     offset="0"
     id="stop2" />
   <stop
     stop-color="#ff9600"
     offset=".36953"
     id="stop4" />
   <stop
     stop-color="#ffb400"
     offset="1"
     id="stop6" />
  </linearGradient>
  <filter
    id="filter4014"
    x="-0.062499932"
    y="-0.057692992"
    width="1.1249999"
    height="1.115386"
    color-interpolation-filters="sRGB">
   <feGaussianBlur
     stdDeviation="1.093751"
     id="feGaussianBlur9" />
  </filter>
  <linearGradient
    xlink:href="#linearGradient3487"
    id="linearGradient3403"
    gradientUnits="userSpaceOnUse"
    x1="6.9491749"
    y1="4.5549412"
    x2="11.215498"
    y2="59.052471" />
  <linearGradient
    id="linearGradient3487">
   <stop
     style="stop-color:#32373c;stop-opacity:1"
     offset="0"
     id="stop3481" />
   <stop
     id="stop3483"
     offset="0.36804965"
     style="stop-color:#1a1a1a;stop-opacity:1" />
   <stop
     style="stop-color:#31363b;stop-opacity:1"
     offset="1"
     id="stop3485" />
  </linearGradient>
  <linearGradient
    xlink:href="#linearGradient20604"
    id="linearGradient20558"
    gradientUnits="userSpaceOnUse"
    x1="25.802212"
    y1="20.373846"
    x2="25.111048"
    y2="58.912758" />
  <linearGradient
    id="linearGradient20604">
   <stop
     id="stop20598"
     offset="0"
     style="stop-color:#3d3d3d;stop-opacity:1" />
   <stop
     style="stop-color:#000000;stop-opacity:1"
     offset="0.61772454"
     id="stop20600" />
   <stop
     id="stop20602"
     offset="1"
     style="stop-color:#3d3d3d;stop-opacity:1" />
  </linearGradient>
  <linearGradient
    gradientTransform="translate(0.36067797,-0.13016949)"
    xlink:href="#linearGradient4555"
    id="linearGradient4557"
    x1="43.499737"
    y1="64.011795"
    x2="44.141731"
    y2="0.30621234"
    gradientUnits="userSpaceOnUse" />
  <linearGradient
    id="linearGradient4555">
   <stop
     style="stop-color:#141618;stop-opacity:1"
     offset="0"
     id="stop4551" />
   <stop
     id="stop4559"
     offset="0.51820582"
     style="stop-color:#686868;stop-opacity:1" />
   <stop
     style="stop-color:#31363b;stop-opacity:1"
     offset="1"
     id="stop4553" />
  </linearGradient>
  <filter
    style="color-interpolation-filters:sRGB"
    id="filter4601"
    x="-0.029677725"
    width="1.0593555"
    y="-0.029536123"
    height="1.0590722">
   <feGaussianBlur
     stdDeviation="2.9111288e-06"
     id="feGaussianBlur4603" />
  </filter>
  <linearGradient
    id="linearGradient862-3"
    x1="2.7385068"
    x2="7.9373002"
    y1="14.140814"
    y2="1.852"
    gradientTransform="matrix(3.7795,0,0,3.7795,1.4324e-4,0.031541)"
    gradientUnits="userSpaceOnUse">
   <stop
     stop-color="#1a1a1a"
     offset="0"
     id="stop5"
     style="stop-color:#14549a;stop-opacity:1" />
   <stop
     stop-color="#4d4d4d"
     offset="1"
     id="stop7"
     style="stop-color:#09c2dd;stop-opacity:1" />
  </linearGradient>
  <filter
    id="filter904"
    x="-0.061616938"
    y="-0.058465921"
    width="1.1232339"
    height="1.1169318"
    color-interpolation-filters="sRGB">
   <feGaussianBlur
     stdDeviation="0.97558723"
     id="feGaussianBlur2" />
  </filter>
  <linearGradient
    gradientTransform="matrix(3.3923137,0,0,3.2909904,98.925809,-102.30844)"
    id="linearGradient3808"
    xlink:href="#linearGradient2888-4-3"
    y1="34.121754"
    y2="41.695"
    x1="-26.252876"
    x2="-21.25"
    gradientUnits="userSpaceOnUse" />
  <linearGradient
    id="linearGradient2888-4-3">
   <stop
     offset="0.0000000"
     style="stop-color:#fff"
     id="stop2889-50" />
   <stop
     offset="1"
     style="stop-color:#b4b4b4"
     id="stop2894-1" />
  </linearGradient>
  <linearGradient
    gradientTransform="translate(0.4,0.4)"
    xlink:href="#linearGradient8650"
    id="linearGradient876"
    y1="46.435871"
    x1="31.316032"
    y2="-4.5783005"
    gradientUnits="userSpaceOnUse"
    x2="21.308712" />
  <linearGradient
    id="linearGradient8650">
   <stop
     offset="0"
     style="stop-color:#154c95"
     id="stop8652" />
   <stop
     offset="1"
     style="stop-color:#07d6e9"
     id="stop8656" />
  </linearGradient>
  <linearGradient
    xlink:href="#linearGradient12232"
    id="linearGradient12234"
    x1="14.563506"
    y1="53.235176"
    x2="53.091866"
    y2="9.9130669"
    gradientUnits="userSpaceOnUse" />
 </defs>
 <g
   id="g960"
   transform="matrix(0.74768598,0,0,0.74768598,1.1687931,-0.4551679)">
  <rect
    style="fill:url(#linearGradient12234);fill-opacity:1;fill-rule:evenodd;stroke-width:0.12834;stroke-linejoin:round;paint-order:markers fill stroke"
    id="rect11593"
    width="55.234322"
    height="57.477139"
    x="3.2878201"
    y="4.3079076"
    rx="2.9823444"
    ry="4.4081807" />
  <g
    transform="scale(3.7796)"
    shape-rendering="auto"
    id="g22">
   <path
     d="m 4.3693,0.52916 c -2.1142,0 -3.8402,1.7835 -3.8402,3.9682 v 8.4675 c 0,2.1846 1.726,3.9682 3.8402,3.9682 h 8.1944 c 2.1142,0 3.8402,-1.7835 3.8402,-3.9682 v -8.4675 c 0,-2.1846 -1.726,-3.9682 -3.8402,-3.9682 z m 0.25704,0.52089 h 7.6808 c 1.8443,0 3.3291,1.5342 3.3291,3.44 v 7.9368 c 0,1.9058 -1.4847,3.44 -3.3291,3.44 h -7.6808 c -1.8443,0 -3.3291,-1.5342 -3.3291,-3.44 v -7.9368 c 0,-1.9058 1.4847,-3.44 3.3291,-3.44 z"
     color="#000000"
     color-rendering="auto"
     dominant-baseline="auto"
     image-rendering="auto"
     opacity="0.01"
     solid-color="#000000"
     stop-color="#000000"
     style="font-variant-ligatures:normal;font-variant-position:normal;font-variant-caps:normal;font-variant-numeric:normal;font-variant-alternates:normal;font-variant-east-asian:normal;font-feature-settings:normal;font-variation-settings:normal;text-indent:0;text-decoration-line:none;text-decoration-style:solid;text-decoration-color:#000000;text-transform:none;text-orientation:mixed;white-space:normal;shape-padding:0;shape-margin:0;inline-size:0;isolation:auto;mix-blend-mode:normal"
     id="path12" />
   <path
     d="m 4.3587,0.79373 c -1.9668,0 -3.5639,1.6528 -3.5639,3.6876 v 8.4996 c 0,2.0348 1.5971,3.6876 3.5639,3.6876 h 8.2162 c 1.9668,0 3.5644,-1.6528 3.5644,-3.6876 v -8.4996 c 0,-2.0348 -1.5976,-3.6876 -3.5644,-3.6876 z m 0.27222,0.25631 h 7.6718 c 1.8422,0 3.3251,1.5342 3.3251,3.44 v 7.9368 c 0,1.9058 -1.483,3.44 -3.3251,3.44 h -7.6718 c -1.8422,0 -3.3251,-1.5342 -3.3251,-3.44 v -7.9368 c 0,-1.9058 1.483,-3.44 3.3251,-3.44 z"
     color="#000000"
     color-rendering="auto"
     dominant-baseline="auto"
     image-rendering="auto"
     opacity="0.01"
     solid-color="#000000"
     stop-color="#000000"
     style="font-variant-ligatures:normal;font-variant-position:normal;font-variant-caps:normal;font-variant-numeric:normal;font-variant-alternates:normal;font-variant-east-asian:normal;font-feature-settings:normal;font-variation-settings:normal;text-indent:0;text-decoration-line:none;text-decoration-style:solid;text-decoration-color:#000000;text-transform:none;text-orientation:mixed;white-space:normal;shape-padding:0;shape-margin:0;inline-size:0;isolation:auto;mix-blend-mode:normal"
     id="path14" />
   <path
     d="m 4.3097,1.0583 c -1.8657,0 -3.3751,1.5383 -3.3751,3.439 v 8.4675 c 0,1.9007 1.57,3.439 3.4357,3.439 h 8.1996 c 1.8657,0 3.4274,-1.5383 3.4274,-3.439 V 4.4973 c 0,-1.9007 -1.51,-3.439 -3.3756,-3.439 h -0.09688 c 1.794,0.086515 3.2138,1.5819 3.2138,3.4318 v 7.9368 c 0,1.9058 -1.5059,3.44 -3.3766,3.44 h -7.7905 c -1.8707,0 -3.3766,-1.5342 -3.3766,-3.44 V 4.4901 c 0,-1.8498 1.4199,-3.3451 3.2138,-3.4318 z"
     color="#000000"
     color-rendering="auto"
     dominant-baseline="auto"
     image-rendering="auto"
     opacity="0.03"
     solid-color="#000000"
     stop-color="#000000"
     style="font-variant-ligatures:normal;font-variant-position:normal;font-variant-caps:normal;font-variant-numeric:normal;font-variant-alternates:normal;font-variant-east-asian:normal;font-feature-settings:normal;font-variation-settings:normal;text-indent:0;text-decoration-line:none;text-decoration-style:solid;text-decoration-color:#000000;text-transform:none;text-orientation:mixed;white-space:normal;shape-padding:0;shape-margin:0;inline-size:0;isolation:auto;mix-blend-mode:normal"
     id="path16" />
   <path
     transform="scale(0.26458)"
     d="m 4,46.969 v 2.0312 c 0,6.6479 5.8957,12 12.544,12 h 30.961 c 6.6479,0 12.495,-5.3521 12.495,-12 V 47.008 C 59.97883,54.1929 54.19,59.971 47,59.971 H 17.002 C 9.7988,59.971 4,54.1723 4,46.969 Z"
     color="#000000"
     color-rendering="auto"
     dominant-baseline="auto"
     image-rendering="auto"
     opacity="0.03"
     solid-color="#000000"
     stop-color="#000000"
     style="font-variant-ligatures:normal;font-variant-position:normal;font-variant-caps:normal;font-variant-numeric:normal;font-variant-alternates:normal;font-variant-east-asian:normal;font-feature-settings:normal;font-variation-settings:normal;text-indent:0;text-decoration-line:none;text-decoration-style:solid;text-decoration-color:#000000;text-transform:none;text-orientation:mixed;white-space:normal;shape-padding:0;shape-margin:0;inline-size:0;isolation:auto;mix-blend-mode:normal"
     id="path18" />
  </g>
  <g
    id="g927"
    transform="matrix(0.9527814,0,0,0.9527814,21.227165,5.2675253)">
   <g
     style="fill:#ffffff"
     id="g7"
     transform="matrix(1.4124243,0,0,1.4124243,-18.691924,-9.1870792)">
    <path
      id="path825"
      d="m 22.3027,18.8575 c -0.916995,-0.864255 -1.56152,-2.01269 -1.82812,-3.24316 -0.266601,-1.2334 -0.149414,-2.54297 0.328125,-3.71192 0.477539,-1.16602 1.31543,-2.17969 2.36719,-2.87109 1.05469,-0.694336 2.32031,-1.05762 3.58008,-1.03125 1.18945,0.023437 2.37012,0.395508 3.36035,1.05469 0.987307,0.65918 1.78418,1.60547 2.26465,2.69531 l 10.125,2.25 h -12.1817 c -0.679687,-1.11914 -1.8457,-1.93066 -3.13183,-2.17383 -0.884767,-0.169922 -1.81641,-0.07617 -2.64844,0.263672 -0.832035,0.339844 -1.56445,0.925785 -2.07715,1.66406 -0.512696,0.741211 -0.808591,1.62891 -0.834961,2.52832 -0.02929,0.899415 0.210938,1.80762 0.676758,2.57519" />
    <path
      id="path827"
      d="M 23.375,22.625 8.75,10.25 c -1.44141,1.48828 -2.26758,3.55371 -2.25,5.625 0.017578,2.10058 0.905272,4.18067 2.40821,5.64844 1.50293,1.46777 3.60352,2.30567 5.7041,2.27637 -1.15429,-0.158202 -2.25,-0.723633 -3.04981,-1.57325 -0.799807,-0.846682 -1.29785,-1.97461 -1.38867,-3.13477 -0.08496,-1.125 0.210937,-2.27344 0.82617,-3.2168 l 12.375,6.75" />
    <path
      id="path829"
      d="M 22.25,26 7.625,21.5 c -0.389648,1.48829 -0.269531,3.10254 0.333984,4.51758 0.606446,1.41211 1.69336,2.61328 3.04102,3.35742 1.02832,0.568359 2.20019,0.87012 3.375,0.87012 1.17481,0 2.34668,-0.301758 3.375,-0.87012 -0.94629,0.08496 -1.91016,-0.07031 -2.78027,-0.451172 -0.87012,-0.37793 -1.64356,-0.981442 -2.22363,-1.73144 -0.667969,-0.867188 -1.08106,-1.93067 -1.16602,-3.0205 l 10.6699,1.8281" />
    <path
      id="path831"
      d="m 29.0439,17.75 c -0.626954,0.741211 -1.03711,1.66406 -1.16894,2.625 -0.123046,0.908205 0,1.83692 0.240234,2.72168 0.240235,0.881836 0.597658,1.73144 0.949223,2.57812 0.351562,0.846683 0.700195,1.69629 0.92871,2.58398 0.225586,0.887692 0.328125,1.82227 0.175781,2.72461 -0.254883,1.51172 -1.21875,2.85644 -2.47558,3.73242 -1.25683,0.875978 -2.78906,1.30957 -4.31836,1.40918 -1.93067,0.125977 -3.89062,-0.266602 -5.625,-1.125 l 0.0439,9 2.25,-4.4766 c 2.97363,0.87012 6.29883,0.442383 8.95605,-1.14844 1.3418,-0.802732 2.51954,-1.8955 3.33984,-3.22559 0.823245,-1.33008 1.27734,-2.89746 1.2041,-4.45606 -0.105468,-2.22363 -1.23925,-4.25098 -2.32325,-6.19336 -1.08692,-1.94238 -2.17969,-4.00195 -2.19433,-6.22852 0,-0.172851 0.0058,-0.348632 0.01758,-0.521484" />
   </g>
  </g>
 </g>
 <path
   style="display:inline;mix-blend-mode:normal;fill:url(#linearGradient3403);fill-opacity:1;stroke:url(#linearGradient20558);stroke-width:1.16242;stroke-linecap:butt;stroke-linejoin:round;stroke-miterlimit:4;stroke-dasharray:none;stroke-opacity:1"
   d="M 4.7043071,3.9814882 4.6913695,60.80196 H 58.59546 l 1.022155,-2.866369 c 0,0 -23.87537,0.766388 -32.844441,-4.140386 C 16.257548,48.042344 11.401114,4.0978197 11.401114,4.0978197 Z"
   id="path1686"
   transform="matrix(0.7518797,0,0,0.7518797,0.09970467,0.02488636)" />
 <rect
   style="display:inline;fill:none;fill-opacity:1;stroke:url(#linearGradient4557);stroke-width:3.71366;stroke-linejoin:round;stroke-miterlimit:7.8;stroke-dasharray:none;stroke-opacity:0.995146"
   id="rect4539"
   width="62.566689"
   height="62.866646"
   x="1.0323594"
   y="0.59551275"
   ry="6.2447233"
   rx="5.8029528"
   transform="matrix(0.70434793,0,0,0.70291231,1.3629847,1.5442064)" />
</svg>
