<?xml version="1.0" encoding="UTF-8" standalone="no"?>
<!-- Created with Inkscape (http://www.inkscape.org/) -->

<svg
  width="48"
  height="48"
  version="1.1"
  viewBox="0 0 48 48"
  id="svg22"
  xmlns:xlink="http://www.w3.org/1999/xlink"
  xmlns="http://www.w3.org/2000/svg"
  xmlns:svg="http://www.w3.org/2000/svg">
 <defs
   id="defs12">
  <linearGradient
    xlink:href="#linearGradient3487"
    id="linearGradient3403"
    gradientUnits="userSpaceOnUse"
    x1="6.9491749"
    y1="4.5549412"
    x2="11.215498"
    y2="59.052471" />
  <linearGradient
    id="linearGradient3487">
   <stop
     style="stop-color:#32373c;stop-opacity:1"
     offset="0"
     id="stop3481" />
   <stop
     id="stop3483"
     offset="0.36804965"
     style="stop-color:#1a1a1a;stop-opacity:1" />
   <stop
     style="stop-color:#31363b;stop-opacity:1"
     offset="1"
     id="stop3485" />
  </linearGradient>
  <linearGradient
    xlink:href="#linearGradient20604"
    id="linearGradient20558"
    gradientUnits="userSpaceOnUse"
    x1="25.802212"
    y1="20.373846"
    x2="25.111048"
    y2="58.912758" />
  <linearGradient
    id="linearGradient20604">
   <stop
     id="stop20598"
     offset="0"
     style="stop-color:#3d3d3d;stop-opacity:1" />
   <stop
     style="stop-color:#000000;stop-opacity:1"
     offset="0.61772454"
     id="stop20600" />
   <stop
     id="stop20602"
     offset="1"
     style="stop-color:#3d3d3d;stop-opacity:1" />
  </linearGradient>
  <filter
    style="color-interpolation-filters:sRGB"
    id="filter20720"
    x="-0.010599452"
    y="-0.01024608"
    width="1.0211984"
    height="1.0204922">
   <feGaussianBlur
     stdDeviation="0.0004075347"
     id="feGaussianBlur20722" />
  </filter>
  <linearGradient
    gradientTransform="translate(0.36067797,-0.13016949)"
    xlink:href="#linearGradient4555"
    id="linearGradient4557"
    x1="43.499737"
    y1="64.011795"
    x2="44.141731"
    y2="0.30621234"
    gradientUnits="userSpaceOnUse" />
  <linearGradient
    id="linearGradient4555">
   <stop
     style="stop-color:#141618;stop-opacity:1"
     offset="0"
     id="stop4551" />
   <stop
     id="stop4559"
     offset="0.51820582"
     style="stop-color:#686868;stop-opacity:1" />
   <stop
     style="stop-color:#31363b;stop-opacity:1"
     offset="1"
     id="stop4553" />
  </linearGradient>
  <filter
    style="color-interpolation-filters:sRGB"
    id="filter4601"
    x="-0.029694318"
    width="1.0593886"
    y="-0.029552637"
    height="1.0591053">
   <feGaussianBlur
     stdDeviation="0.00043548054"
     id="feGaussianBlur4603" />
  </filter>
  <linearGradient
    id="b-5"
    gradientUnits="userSpaceOnUse"
    x1="-7.1999998"
    x2="-7.1999998"
    y1="-6"
    y2="-28"
    gradientTransform="matrix(1.5006263,0,0,1.4994002,23.362633,49.002354)">
   <stop
     offset="0"
     stop-color="#1b1e21"
     id="stop17" />
   <stop
     offset="1"
     stop-color="#363c42"
     id="stop19" />
  </linearGradient>
  <linearGradient
    id="c-6"
    gradientUnits="userSpaceOnUse"
    x1="-4.1999998"
    x2="11.8"
    y1="-25"
    y2="-9"
    gradientTransform="matrix(1.5006263,0,0,1.4994002,23.362633,49.002354)">
   <stop
     offset="0"
     stop-color="#292c2f"
     id="stop12" />
   <stop
     offset="1"
     stop-opacity="0"
     id="stop14" />
  </linearGradient>
  <linearGradient
    id="d-3"
    gradientUnits="userSpaceOnUse"
    x1="3.8"
    x2="13.8"
    y1="-17"
    y2="-7"
    gradientTransform="matrix(1.5006263,0,0,1.4994002,23.362633,49.002354)">
   <stop
     offset="0"
     id="stop22" />
   <stop
     offset="1"
     stop-opacity="0"
     id="stop24" />
  </linearGradient>
  <linearGradient
    id="e"
    gradientUnits="userSpaceOnUse"
    x1="3.8"
    x2="3.8"
    y1="-6"
    y2="-28"
    gradientTransform="matrix(1.5006263,0,0,1.4994002,23.362633,49.002354)">
   <stop
     offset="0"
     stop-color="#4d4d4d"
     id="stop7" />
   <stop
     offset="1"
     stop-color="#7f8c8d"
     id="stop9-9" />
  </linearGradient>
 </defs>
 <rect
   style="display:inline;fill:#717171;fill-opacity:1;fill-rule:evenodd;stroke:none;stroke-width:0.913016;stroke-linejoin:round;stroke-miterlimit:7.8"
   id="rect1192"
   width="41.430077"
   height="42.013466"
   x="3.5016186"
   y="3.2978075"
   ry="0" />
 <path
   d="m 29.065013,2.5209497 c -1.514413,0.0053 -3.023811,0.1742294 -4.501879,0.5037984 V 6.1120132 C 22.93875,6.5317181 21.381039,7.1761961 19.935202,8.0267473 L 17.754792,5.8481188 C 15.19261,7.4782793 13.014678,9.6441994 11.371129,12.19658 l 2.195416,2.193621 c -0.853856,1.444246 -1.501394,3.0007 -1.923803,4.624149 H 8.5664581 c -0.3318575,1.47664 -0.502923,2.984807 -0.5102129,4.498202 0.00532,1.513175 0.1743719,3.021341 0.5042104,4.498201 h 3.0897894 c 0.420048,1.623057 1.065053,3.179494 1.9163,4.62415 l -2.18041,2.178628 c 1.631493,2.560091 3.799184,4.736243 6.353651,6.378449 l 2.195416,-2.193623 c 1.445427,0.853159 3.003155,1.500168 4.627932,1.922231 v 3.073771 c 1.477847,0.331586 2.987247,0.502512 4.501879,0.509796 1.514412,-0.0053 3.023812,-0.174229 4.50188,-0.503798 v -3.087266 c 1.624384,-0.419705 3.182094,-1.064183 4.627931,-1.914734 l 2.18041,2.178629 c 2.562184,-1.63016 4.740116,-3.796081 6.383665,-6.34846 l -2.195417,-2.193623 c 0.853856,-1.444247 1.501395,-3.000701 1.923804,-4.62415 l -0.0075,-8.996403 C 46.05977,17.391294 45.414764,15.834856 44.563517,14.390201 l 2.180411,-2.178628 C 45.1124,9.6514829 42.944707,7.4753317 40.39024,5.8331248 L 38.194824,8.0267473 C 36.749396,7.1735881 35.19167,6.5265794 33.566893,6.1045162 V 3.0307457 C 32.089045,2.6991594 30.579645,2.5282336 29.065013,2.5209497 Z M 40.39024,5.8331248 C 38.316559,4.5171212 36.027948,3.574716 33.628418,3.0487385 c 2.39953,0.5259775 4.688141,1.4683827 6.761822,2.7843863 z m 6.421181,6.4939022 c -46.47695073,-12.3064614 -46.47695073,-12.3064614 0,0 z m -0.05252,22.501499 c -46.42442861,-34.8079604 -46.42442861,-34.8079604 0,0 z m -13.192006,9.171831 c 2.373713,-0.524786 4.638253,-1.457259 6.692793,-2.755899 -2.05454,1.29864 -4.31908,2.231113 -6.692793,2.755899 z M 17.739786,41.19198 c 2.073681,1.316004 4.362293,2.258409 6.761822,2.784386 -2.399529,-0.525977 -4.688141,-1.468382 -6.761822,-2.784386 z M 8.5604556,28.010753 c 0.5252152,2.371773 1.4584494,4.634463 2.7581514,6.687324 C 10.018905,32.645216 9.0856708,30.382526 8.5604556,28.010753 Z M 11.371129,12.19658 c -1.31708,2.071985 -2.2602558,4.358726 -2.7866633,6.756295 0.5264075,-2.397569 1.4695833,-4.68431 2.7866633,-6.756295 z M 24.563134,3.0247481 c -2.373713,0.5247861 -4.638253,1.4572578 -6.692793,2.7558977 2.05454,-1.2986399 4.31908,-2.2311116 6.692793,-2.7558977 z"
   id="path27"
   style="fill:#4e4e4e;fill-opacity:1;stroke-width:1.50001" />
 <path
   d="M 45.571903,23.512552 A 16.50689,16.493403 0 0 1 29.065013,40.005954 16.50689,16.493403 0 0 1 12.558124,23.512552 16.50689,16.493403 0 0 1 29.065013,7.0191502 16.50689,16.493403 0 0 1 45.571903,23.512552 Z"
   id="path29"
   style="fill:url(#b-5);stroke-width:1.50001" />
 <path
   d="m 29.861846,10.032945 a 13.484628,13.473611 0 0 0 -3.613509,0.286385 l 0.276116,1.476909 a 12.018517,12.008697 0 0 1 3.250356,-0.266893 11.990005,11.980208 0 0 1 10.025685,6.62135 l 1.34006,-0.670232 A 13.48763,13.47661 0 0 0 29.860345,10.032945 Z m -7.503131,1.77379 a 13.505637,13.494602 0 0 0 -5.522305,5.975109 l 1.305544,0.77519 a 12.008012,11.9982 0 0 1 4.892042,-5.408336 z m 18.42469,9.12235 c 0.021,0.09896 0.03902,0.19942 0.05852,0.29988 -0.01951,-0.10046 -0.03752,-0.200919 -0.06002,-0.29988 z m -25.03345,0.410836 c -0.07803,0.451319 -0.135055,0.910136 -0.166569,1.367453 -0.02701,0.5008 -0.02551,1.001599 0.003,1.502399 l 1.515633,0.08696 a 11.968996,11.959216 0 0 1 -0.021,-1.502399 11.990005,11.980208 0 0 1 0.114047,-1.057077 z m 25.255542,1.027089 c 0.01201,0.12445 0.02401,0.247401 0.03301,0.371851 -0.009,-0.12445 -0.02101,-0.247401 -0.03301,-0.371851 z"
   fill="#fcfcfc"
   id="path31"
   style="stroke-width:1.50001" />
 <path
   d="m 41.140554,17.480464 -1.34006,0.670232 a 11.93148,11.921731 0 0 1 1.248522,6.057577 11.847445,11.837765 0 0 1 -0.193581,1.491904 l 1.503627,0.08997 c 0.09004,-0.491802 0.153064,-0.989604 0.187578,-1.490404 a 13.435108,13.424131 0 0 0 -1.406086,-6.819272 z"
   fill="#ed1515"
   id="path33"
   style="stroke-width:1.50001" />
 <path
   d="M 45.571903,23.512552 A 16.50689,16.493403 0 0 1 29.065013,40.005954 16.50689,16.493403 0 0 1 12.558124,23.512552 16.50689,16.493403 0 0 1 29.065013,7.0191502 16.50689,16.493403 0 0 1 45.571903,23.512552 Z"
   opacity="0.2"
   id="path35"
   style="fill:url(#c-6);stroke-width:1.50001" />
 <path
   d="m 32.208825,24.049337 a 2.3124652,2.3105758 0 0 1 -0.02701,0.146942 c 0.01051,-0.04798 0.01801,-0.09746 0.02701,-0.146942 z"
   fill="#fcbcbe"
   id="path37"
   style="stroke-width:1.50001" />
 <path
   d="M 26.943127,25.632704 39.826345,39.545569 45.82885,30.886533 43.516045,27.535443 30.565639,23.512552 Z"
   opacity="0.2"
   id="path39"
   style="fill:url(#d-3);stroke-width:1.50001" />
 <path
   d="m 30.534127,23.211173 a 1.5006264,1.4994002 0 0 1 0.03151,0.301379 1.5006264,1.4994002 0 0 1 -0.507211,1.121551 l 12.275124,4.088864 0.708296,0.236906 0.475697,-1.42443 -0.712797,-0.236906 z"
   fill="#da4453"
   id="path41"
   style="stroke-width:1.50001" />
 <ellipse
   cx="29.065012"
   cy="23.512552"
   fill="#eff0f1"
   id="circle43"
   rx="3.0012527"
   ry="2.9988005"
   style="stroke-width:1.50001" />
 <path
   d="m 30.565639,23.512552 a 1.5006264,1.4994002 0 0 1 -1.500626,1.4994 1.5006264,1.4994002 0 0 1 -1.500626,-1.4994 1.5006264,1.4994002 0 0 1 1.500626,-1.4994 1.5006264,1.4994002 0 0 1 1.500626,1.4994 z"
   fill="#31363b"
   id="path45"
   style="stroke-width:1.50001" />
 <path
   d="m 29.065013,7.0191502 a 16.50689,16.493403 0 0 0 -16.506889,16.4934018 16.50689,16.493403 0 0 0 0.603252,4.333267 l 1.430096,-0.389845 A 15.006264,14.994002 0 0 1 14.058751,23.512552 15.006264,14.994002 0 0 1 29.065013,8.5185505 15.006264,14.994002 0 0 1 44.071277,23.512552 15.006264,14.994002 0 0 1 43.514545,27.451476 l 1.460109,0.395842 A 16.50689,16.493403 0 0 0 45.571903,23.512552 16.50689,16.493403 0 0 0 29.065013,7.0191502 Z"
   id="path47"
   style="fill:url(#e);stroke-width:1.50001" />
 <path
   style="display:inline;mix-blend-mode:normal;fill:url(#linearGradient3403);fill-opacity:1;stroke:url(#linearGradient20558);stroke-width:1.16242;stroke-linecap:butt;stroke-linejoin:round;stroke-miterlimit:4;stroke-dasharray:none;stroke-opacity:1"
   d="M 4.7043071,3.9814882 4.6913695,60.80196 H 58.59546 l 1.022155,-2.866369 c 0,0 -23.87537,0.766388 -32.844441,-4.140386 C 16.257548,48.042344 11.401114,4.0978197 11.401114,4.0978197 Z"
   id="path1686"
   transform="matrix(0.74018599,0,0,0.7395812,0.48605377,0.35317052)" />
 <rect
   style="display:inline;fill:none;fill-opacity:1;stroke:url(#linearGradient4557);stroke-width:3.71366;stroke-linejoin:round;stroke-miterlimit:7.8;stroke-dasharray:none;stroke-opacity:0.995146"
   id="rect4539"
   width="62.566689"
   height="62.866646"
   x="1.0323594"
   y="0.59551275"
   ry="6.2447233"
   rx="5.8029528"
   transform="matrix(0.69339346,0,0,0.69141478,1.7296864,1.8476391)" />
</svg>
