<?xml version="1.0" encoding="UTF-8" standalone="no"?>
<!-- Created with Inkscape (http://www.inkscape.org/) -->

<svg
   width="48"
   height="48"
   version="1.1"
   viewBox="0 0 48 48"
   id="svg22"
   sodipodi:docname="planetkde.svg"
   inkscape:version="1.1.2 (0a00cf5339, 2022-02-04)"
   xmlns:inkscape="http://www.inkscape.org/namespaces/inkscape"
   xmlns:sodipodi="http://sodipodi.sourceforge.net/DTD/sodipodi-0.dtd"
   xmlns:xlink="http://www.w3.org/1999/xlink"
   xmlns="http://www.w3.org/2000/svg"
   xmlns:svg="http://www.w3.org/2000/svg">
  <sodipodi:namedview
     id="namedview24"
     pagecolor="#ffffff"
     bordercolor="#666666"
     borderopacity="1.0"
     inkscape:showpageshadow="2"
     inkscape:pageopacity="0.0"
     inkscape:pagecheckerboard="0"
     inkscape:deskcolor="#d1d1d1"
     showgrid="false"
     inkscape:zoom="9.8"
     inkscape:cx="-2.1428571"
     inkscape:cy="9.0306122"
     inkscape:window-width="3440"
     inkscape:window-height="1359"
     inkscape:window-x="0"
     inkscape:window-y="0"
     inkscape:window-maximized="1"
     inkscape:current-layer="svg22"
     inkscape:pageshadow="2" />
  <defs
     id="defs12">
    <linearGradient
       id="linearGradient1005-3-3"
       x1="5.2535"
       x2="9.3823996"
       y1="15.383"
       y2="2.9421"
       gradientTransform="matrix(0.99999,0,0,0.99999,1.632,-0.61743)"
       gradientUnits="userSpaceOnUse">
      <stop
         stop-color="#fa8200"
         offset="0"
         id="stop2" />
      <stop
         stop-color="#ff9600"
         offset=".36953"
         id="stop4" />
      <stop
         stop-color="#ffb400"
         offset="1"
         id="stop6" />
    </linearGradient>
    <filter
       id="filter4014"
       x="-0.062499932"
       y="-0.057692992"
       width="1.1249999"
       height="1.115386"
       color-interpolation-filters="sRGB">
      <feGaussianBlur
         stdDeviation="1.093751"
         id="feGaussianBlur9" />
    </filter>
    <linearGradient
       inkscape:collect="always"
       xlink:href="#linearGradient3487"
       id="linearGradient3403"
       gradientUnits="userSpaceOnUse"
       x1="6.9491749"
       y1="4.5549412"
       x2="11.215498"
       y2="59.052471" />
    <linearGradient
       id="linearGradient3487">
      <stop
         style="stop-color:#32373c;stop-opacity:1"
         offset="0"
         id="stop3481" />
      <stop
         id="stop3483"
         offset="0.36804965"
         style="stop-color:#1a1a1a;stop-opacity:1" />
      <stop
         style="stop-color:#31363b;stop-opacity:1"
         offset="1"
         id="stop3485" />
    </linearGradient>
    <linearGradient
       inkscape:collect="always"
       xlink:href="#linearGradient20604"
       id="linearGradient20558"
       gradientUnits="userSpaceOnUse"
       x1="25.802212"
       y1="20.373846"
       x2="25.111048"
       y2="58.912758" />
    <linearGradient
       id="linearGradient20604">
      <stop
         id="stop20598"
         offset="0"
         style="stop-color:#3d3d3d;stop-opacity:1" />
      <stop
         style="stop-color:#000000;stop-opacity:1"
         offset="0.61772454"
         id="stop20600" />
      <stop
         id="stop20602"
         offset="1"
         style="stop-color:#3d3d3d;stop-opacity:1" />
    </linearGradient>
    <filter
       inkscape:collect="always"
       style="color-interpolation-filters:sRGB"
       id="filter20720"
       x="-0.017024755"
       y="-0.016457183"
       width="1.0340491"
       height="1.0329144">
      <feGaussianBlur
         inkscape:collect="always"
         stdDeviation="0.14745661"
         id="feGaussianBlur20722" />
    </filter>
    <linearGradient
       gradientTransform="translate(0.36067797,-0.13016949)"
       xlink:href="#linearGradient4555"
       id="linearGradient4557"
       x1="43.499737"
       y1="64.011795"
       x2="44.141731"
       y2="0.30621234"
       gradientUnits="userSpaceOnUse" />
    <linearGradient
       id="linearGradient4555">
      <stop
         style="stop-color:#141618;stop-opacity:1"
         offset="0"
         id="stop4551" />
      <stop
         id="stop4559"
         offset="0.51820582"
         style="stop-color:#686868;stop-opacity:1" />
      <stop
         style="stop-color:#31363b;stop-opacity:1"
         offset="1"
         id="stop4553" />
    </linearGradient>
    <filter
       style="color-interpolation-filters:sRGB"
       id="filter4601"
       x="-0.030244955"
       width="1.0604899"
       y="-0.030100647"
       height="1.0602013">
      <feGaussianBlur
         stdDeviation="0.014790289"
         id="feGaussianBlur4603" />
    </filter>
    <linearGradient
       gradientUnits="userSpaceOnUse"
       y2="5.1285472"
       x2="35.057411"
       y1="53.859512"
       x1="11.086592"
       id="linearGradient4587-3"
       xlink:href="#linearGradient4585"
       gradientTransform="translate(0.36135313,-0.12490449)" />
    <linearGradient
       id="linearGradient4585">
      <stop
         id="stop4581"
         offset="0"
         style="stop-color:#a8d8f8;stop-opacity:1" />
      <stop
         id="stop4583"
         offset="1"
         style="stop-color:#1a7be3;stop-opacity:1" />
    </linearGradient>
    <linearGradient
       id="b"
       y1="537.21997"
       y2="505.82999"
       x1="423.04001"
       gradientUnits="userSpaceOnUse"
       x2="398.97">
      <stop
         stop-color="#197cf1"
         id="stop11707" />
      <stop
         offset="1"
         stop-color="#20bcfa"
         id="stop11709" />
    </linearGradient>
    <linearGradient
       id="c"
       y1="506.87"
       y2="536.29999"
       x1="398.45999"
       x2="427.88"
       gradientUnits="userSpaceOnUse"
       gradientTransform="translate(0.001,0.001)">
      <stop
         stop-color="#abdaf9"
         id="stop11712" />
      <stop
         offset="1"
         stop-color="#7cbcec"
         id="stop11714" />
    </linearGradient>
    <linearGradient
       id="a"
       y1="16.316999"
       x1="17.900999"
       y2="38"
       x2="39.584"
       gradientUnits="userSpaceOnUse">
      <stop
         stop-color="#172525"
         id="stop11702" />
      <stop
         offset="1"
         stop-color="#172525"
         stop-opacity="0"
         id="stop11704" />
    </linearGradient>
  </defs>
  <g
     id="g882"
     transform="matrix(0.64966787,0,0,0.64966787,3.6813063,2.7365875)">
    <rect
       y="0.60077608"
       x="1.033034"
       height="62.866646"
       width="62.567139"
       id="rect4539-1"
       style="opacity:1;fill:url(#linearGradient4587-3);fill-opacity:1;stroke:none;stroke-width:1.146;stroke-linejoin:round;stroke-miterlimit:7.8;stroke-dasharray:none;stroke-opacity:0.995146" />
    <g
       transform="matrix(1.33,0,0,1.33,-507.65881,-664.75398)"
       id="g11731">
      <rect
         style="fill:url(#b)"
         width="40"
         x="388.57001"
         y="503.79999"
         rx="20"
         height="40"
         id="rect11719" />
      <path
         style="fill:url(#c);fill-rule:evenodd"
         d="m 408.57,503.8 c -1.452,0 -2.864,0.16 -4.227,0.451 l -1.773,3.549 -2.68,-2.01 c -4.806,2.311 -8.529,6.472 -10.254,11.584 l 3.934,-1.574 3,2 1,-3 13,-7 -0.793,-3.961 c -0.4,-0.024 -0.801,-0.039 -1.207,-0.039 m 14.81,6.568 -0.811,2.432 1,1 -4,6 2,7 6.633,0.83 c 0.239,-1.239 0.367,-2.519 0.367,-3.83 0,-3.425 -0.857,-6.641 -2.361,-9.453 l -1.639,-0.547 0.596,-1.193 c -0.535,-0.794 -1.144,-1.531 -1.785,-2.238 m -34.414,9.432 c -0.221,1.096 -0.346,2.227 -0.381,3.381 l 6.984,2.619 -1,-3 -2,-3 z m 6.603,6 5,12 v 4.338 c 2.449,1.065 5.151,1.662 8,1.662 0.199,0 0.395,-0.008 0.592,-0.014 l 6.408,-10.986 -16,-9 z"
         id="path11721" />
      <g
         transform="translate(384.57,499.8)"
         id="g11727">
        <path
           style="opacity:0.2;fill:#2b3c4d;stroke-width:2.8;stroke-opacity:0.55"
           d="m 4.01,23.5 c -0.004,0.167 -0.012,0.332 -0.012,0.5 0,11.08 8.92,20 20,20 11.08,0 20,-8.92 20,-20 0,-0.168 -0.008,-0.333 -0.012,-0.5 C 43.722,34.347 34.906,43 23.998,43 13.086,43 4.274,34.347 4.01,23.5"
           id="path11723" />
        <path
           style="opacity:0.4;fill:url(#a)"
           d="m 25.711,13.629 -3.668,5.361 -0.684,-0.588 -4.184,4.941 -3.529,2.232 3.758,4.197 -0.154,2.475 11.338,11.207 c 8.736,-2.039 15.236,-9.756 15.402,-19.09 l -9.691,-9.777 -5.865,1.83 z"
           id="path11725" />
      </g>
      <path
         style="color:#000000;color-interpolation:sRGB;color-interpolation-filters:linearRGB;fill:#fcfcfc;color-rendering:auto;image-rendering:auto;shape-rendering:auto;text-rendering:auto"
         d="m 12.339,1033.36 -2.833,0.265 v 10.94 l 2.802,-0.382 v -4.676 l 3.735,5.176 2.926,-0.882 -3.829,-4.97 3.86,-4.705 -2.988,-0.647 -3.704,4.705 z m -6.381,2.676 c -0.032,0 -0.07,0.017 -0.093,0.03 l -1.089,1.059 c -0.046,0.046 -0.065,0.123 -0.031,0.177 l 1.276,2 c -0.229,0.364 -0.398,0.762 -0.529,1.176 l -2.366,0.471 c -0.066,0.017 -0.124,0.054 -0.124,0.118 v 1.47 c 0,0.062 0.061,0.131 0.124,0.147 l 2.303,0.529 c 0.123,0.479 0.309,0.935 0.56,1.353 l -1.339,1.912 c -0.037,0.054 -0.018,0.131 0.031,0.177 l 1.09,1.029 c 0.046,0.042 0.13,0.064 0.187,0.03 l 2.086,-1.206 c 0.41,0.224 0.84,0.41 1.307,0.529 l 0.498,2.206 c 0.014,0.064 0.057,0.118 0.124,0.118 h 1.556 c 0.066,0 0.14,-0.057 0.156,-0.118 l 0.56,-2.206 c 0.482,-0.123 0.95,-0.325 1.37,-0.559 l 2.054,1.294 c 0.057,0.034 0.139,0.017 0.187,-0.03 l 1.089,-1.029 c 0.047,-0.046 0.065,-0.123 0.031,-0.176 l -0.747,-1.176 -0.249,0.088 c -0.036,0.017 -0.073,0 -0.093,-0.03 0,0 -0.471,-0.674 -1.089,-1.529 -0.74,1.368 -2.247,2.294 -3.984,2.294 -2.469,0 -4.482,-1.873 -4.482,-4.206 0,-1.716 1.091,-3.191 2.646,-3.852 v -1.088 c -0.283,0.094 -0.549,0.19 -0.809,0.324 0,0 -0.03,0 -0.031,0 l -2.086,-1.294 c -0.028,-0.017 -0.062,-0.032 -0.093,-0.029"
         transform="matrix(1.29841,0,0,1.29841,394.29,-828.32)"
         id="path11729" />
    </g>
  </g>
  <path
     style="display:inline;mix-blend-mode:normal;fill:url(#linearGradient3403);fill-opacity:1;stroke:url(#linearGradient20558);stroke-width:1.16242;stroke-linecap:butt;stroke-linejoin:round;stroke-miterlimit:4;stroke-dasharray:none;stroke-opacity:1;filter:url(#filter20720)"
     d="M 4.7043071,3.9814882 4.6913695,60.80196 H 58.59546 l 1.022155,-2.866369 c 0,0 -23.87537,0.766388 -32.844441,-4.140386 C 16.257548,48.042344 11.401114,4.0978197 11.401114,4.0978197 Z"
     id="path1686"
     sodipodi:nodetypes="ccccscc"
     transform="matrix(0.7518797,0,0,0.7518797,0.09970467,0.02488636)"
     inkscape:label="folder" />
  <rect
     style="display:inline;fill:none;fill-opacity:1;stroke:url(#linearGradient4557);stroke-width:3.71366;stroke-linejoin:round;stroke-miterlimit:7.8;stroke-dasharray:none;stroke-opacity:0.995146;filter:url(#filter4601)"
     id="rect4539"
     width="62.566689"
     height="62.866646"
     x="1.0323594"
     y="0.59551275"
     ry="6.2447233"
     rx="5.8029528"
     transform="matrix(0.70434793,0,0,0.70291231,1.3629847,1.5442064)"
     inkscape:label="contour" />
</svg>
