<?xml version="1.0" encoding="UTF-8" standalone="no"?>
<!-- Created with Inkscape (http://www.inkscape.org/) -->

<svg
  width="48"
  height="48"
  version="1.1"
  viewBox="0 0 48 48"
  id="svg22"
  xmlns:xlink="http://www.w3.org/1999/xlink"
  xmlns="http://www.w3.org/2000/svg"
  xmlns:svg="http://www.w3.org/2000/svg">
 <defs
   id="defs12">
  <linearGradient
    id="linearGradient917">
   <stop
     style="stop-color:#000000;stop-opacity:0.99607843"
     offset="0"
     id="stop913" />
   <stop
     style="stop-color:#353a3f;stop-opacity:0.99607843"
     offset="1"
     id="stop915" />
  </linearGradient>
  <linearGradient
    id="linearGradient1005-3-3"
    x1="5.2535"
    x2="9.3823996"
    y1="15.383"
    y2="2.9421"
    gradientTransform="matrix(0.99999,0,0,0.99999,1.632,-0.61743)"
    gradientUnits="userSpaceOnUse">
   <stop
     stop-color="#fa8200"
     offset="0"
     id="stop2" />
   <stop
     stop-color="#ff9600"
     offset=".36953"
     id="stop4" />
   <stop
     stop-color="#ffb400"
     offset="1"
     id="stop6" />
  </linearGradient>
  <filter
    id="filter4014"
    x="-0.062499932"
    y="-0.057692992"
    width="1.1249999"
    height="1.115386"
    color-interpolation-filters="sRGB">
   <feGaussianBlur
     stdDeviation="1.093751"
     id="feGaussianBlur9" />
  </filter>
  <linearGradient
    xlink:href="#linearGradient3487"
    id="linearGradient3403"
    gradientUnits="userSpaceOnUse"
    x1="6.9491749"
    y1="4.5549412"
    x2="11.215498"
    y2="59.052471" />
  <linearGradient
    id="linearGradient3487">
   <stop
     style="stop-color:#32373c;stop-opacity:1"
     offset="0"
     id="stop3481" />
   <stop
     id="stop3483"
     offset="0.36804965"
     style="stop-color:#1a1a1a;stop-opacity:1" />
   <stop
     style="stop-color:#31363b;stop-opacity:1"
     offset="1"
     id="stop3485" />
  </linearGradient>
  <linearGradient
    xlink:href="#linearGradient20604"
    id="linearGradient20558"
    gradientUnits="userSpaceOnUse"
    x1="25.802212"
    y1="20.373846"
    x2="25.111048"
    y2="58.912758" />
  <linearGradient
    id="linearGradient20604">
   <stop
     id="stop20598"
     offset="0"
     style="stop-color:#3d3d3d;stop-opacity:1" />
   <stop
     style="stop-color:#000000;stop-opacity:1"
     offset="0.61772454"
     id="stop20600" />
   <stop
     id="stop20602"
     offset="1"
     style="stop-color:#3d3d3d;stop-opacity:1" />
  </linearGradient>
  <linearGradient
    gradientTransform="translate(0.36067797,-0.13016949)"
    xlink:href="#linearGradient4555"
    id="linearGradient4557"
    x1="43.499737"
    y1="64.011795"
    x2="44.141731"
    y2="0.30621234"
    gradientUnits="userSpaceOnUse" />
  <linearGradient
    id="linearGradient4555">
   <stop
     style="stop-color:#141618;stop-opacity:1"
     offset="0"
     id="stop4551" />
   <stop
     id="stop4559"
     offset="0.51820582"
     style="stop-color:#686868;stop-opacity:1" />
   <stop
     style="stop-color:#31363b;stop-opacity:1"
     offset="1"
     id="stop4553" />
  </linearGradient>
  <filter
    style="color-interpolation-filters:sRGB"
    id="filter4601"
    x="-0.029677682"
    width="1.0593554"
    y="-0.02953608"
    height="1.0590722">
   <feGaussianBlur
     stdDeviation="1.7751557e-06"
     id="feGaussianBlur4603" />
  </filter>
  <linearGradient
    xlink:href="#linearGradient917"
    id="linearGradient919"
    x1="7.400631"
    y1="41.743092"
    x2="33.063145"
    y2="7.1074457"
    gradientUnits="userSpaceOnUse" />
  <linearGradient
    y2="503.79999"
    x2="0"
    y1="543.79999"
    gradientUnits="userSpaceOnUse"
    id="linearGradient10572"
    xlink:href="#a" />
  <linearGradient
    id="a"
    y1="543.79999"
    y2="503.79999"
    x2="0"
    gradientUnits="userSpaceOnUse">
   <stop
     stop-color="#a1adb3"
     id="stop10531" />
   <stop
     offset="1"
     stop-color="#bfc7cb"
     id="stop10533" />
  </linearGradient>
  <linearGradient
    xlink:href="#a"
    id="b"
    y1="537.79999"
    y2="509.79999"
    x2="0"
    gradientUnits="userSpaceOnUse"
    gradientTransform="translate(0,-1047.6)" />
  <linearGradient
    id="linearGradient886"
    y1="543.79999"
    y2="503.79999"
    x2="0"
    gradientUnits="userSpaceOnUse">
   <stop
     stop-color="#a1adb3"
     id="stop882" />
   <stop
     offset="1"
     stop-color="#bfc7cb"
     id="stop884" />
  </linearGradient>
  <linearGradient
    id="c"
    y1="31"
    y2="17"
    x2="0"
    gradientUnits="userSpaceOnUse"
    gradientTransform="matrix(1,0,0,-1,384.57,547.8)">
   <stop
     stop-color="#1d1e1e"
     id="stop10537" />
   <stop
     offset="1"
     stop-color="#44484c"
     id="stop10539" />
  </linearGradient>
 </defs>
 <rect
   style="display:inline;fill:url(#linearGradient919);fill-opacity:1;fill-rule:evenodd;stroke:none;stroke-width:0.92782;stroke-linejoin:round;stroke-miterlimit:7.8"
   id="rect1192"
   width="42.084602"
   height="42.712109"
   x="3.1629105"
   y="3.0184898"
   ry="0" />
 <g
   transform="translate(-382.13482,-500.27992)"
   id="g10552">
  <circle
    style="fill:url(#linearGradient10572)"
    r="20"
    cx="408.57001"
    cy="523.79999"
    id="ellipse10544" />
  <circle
    style="fill:url(#b)"
    r="14"
    cx="408.57001"
    cy="-523.79999"
    transform="scale(1,-1)"
    id="ellipse10546" />
  <path
    style="fill:url(#c)"
    d="m 408.57143,530.798 a 1,1 0 0 1 -1,-1 1,1 0 0 1 1,-1 1,1 0 0 1 1,1 1,1 0 0 1 -1,1 m -4.22852,-1.75781 a 1,1 0 0 1 -0.7207,-0.29297 1,1 0 0 1 0,-1.41406 1,1 0 0 1 1.41406,0 1,1 0 0 1 0,1.41406 1,1 0 0 1 -0.69336,0.29297 m 8.45704,0 a 1,1 0 0 1 -0.69336,-0.29297 1,1 0 0 1 0,-1.41406 1,1 0 0 1 1.41406,0 1,1 0 0 1 0,1.41406 1,1 0 0 1 -0.7207,0.29297 m -4.22852,-3.24219 a 2,2 0 0 1 -2,-2 2,2 0 0 1 2,-2 2,2 0 0 1 2,2 2,2 0 0 1 -2,2 m -6,-1 a 1,1 0 0 1 -1,-1 1,1 0 0 1 1,-1 1,1 0 0 1 1,1 1,1 0 0 1 -1,1 m 12,0 a 1,1 0 0 1 -1,-1 1,1 0 0 1 1,-1 1,1 0 0 1 1,1 1,1 0 0 1 -1,1 m -10.25781,-4.24219 a 1,1 0 0 1 -0.69141,-0.29297 1,1 0 0 1 0,-1.41406 1,1 0 0 1 1.41406,0 1,1 0 0 1 0,1.41406 1,1 0 0 1 -0.72265,0.29297 m 8.51562,0 a 1,1 0 0 1 -0.72265,-0.29297 1,1 0 0 1 0,-1.41406 1,1 0 0 1 1.41406,0 1,1 0 0 1 0,1.41406 1,1 0 0 1 -0.69141,0.29297 m -4.25781,-1.75781 a 1,1 0 0 1 -1,-1 1,1 0 0 1 1,-1 1,1 0 0 1 1,1 1,1 0 0 1 -1,1"
    id="path10548" />
  <path
    style="fill:#737b81"
    d="M 43.978516,23.417969 A 19.999985,20 0 0 1 24,43 19.999985,20 0 0 1 4.02148,23.582031 19.999985,20 0 0 0 4,24 19.999985,20 0 0 0 24,44 19.999985,20 0 0 0 44,24 19.999985,20 0 0 0 43.978516,23.417969"
    transform="translate(384.57,499.8)"
    id="path10550" />
 </g>
 <path
   style="display:inline;mix-blend-mode:normal;fill:url(#linearGradient3403);fill-opacity:1;stroke:url(#linearGradient20558);stroke-width:1.16242;stroke-linecap:butt;stroke-linejoin:round;stroke-miterlimit:4;stroke-dasharray:none;stroke-opacity:1"
   d="M 4.7043071,3.9814882 4.6913695,60.80196 H 58.59546 l 1.022155,-2.866369 c 0,0 -23.87537,0.766388 -32.844441,-4.140386 C 16.257548,48.042344 11.401114,4.0978197 11.401114,4.0978197 Z"
   id="path1686"
   transform="matrix(0.7518797,0,0,0.7518797,0.09970467,0.02488636)" />
 <rect
   style="display:inline;fill:none;fill-opacity:1;stroke:url(#linearGradient4557);stroke-width:3.71366;stroke-linejoin:round;stroke-miterlimit:7.8;stroke-dasharray:none;stroke-opacity:0.995146"
   id="rect4539"
   width="62.566689"
   height="62.866646"
   x="1.0323594"
   y="0.59551275"
   ry="6.2447233"
   rx="5.8029528"
   transform="matrix(0.70434793,0,0,0.70291231,1.3629847,1.5442064)" />
</svg>
