<?xml version="1.0" encoding="UTF-8" standalone="no"?>
<!-- Created with Inkscape (http://www.inkscape.org/) -->

<svg
  width="48"
  height="48"
  version="1.1"
  viewBox="0 0 48 48"
  id="svg22"
  xmlns:xlink="http://www.w3.org/1999/xlink"
  xmlns="http://www.w3.org/2000/svg"
  xmlns:svg="http://www.w3.org/2000/svg">
 <defs
   id="defs12">
  <linearGradient
    xlink:href="#linearGradient3487"
    id="linearGradient3403"
    gradientUnits="userSpaceOnUse"
    x1="6.9491749"
    y1="4.5549412"
    x2="11.215498"
    y2="59.052471" />
  <linearGradient
    id="linearGradient3487">
   <stop
     style="stop-color:#32373c;stop-opacity:1"
     offset="0"
     id="stop3481" />
   <stop
     id="stop3483"
     offset="0.36804965"
     style="stop-color:#1a1a1a;stop-opacity:1" />
   <stop
     style="stop-color:#31363b;stop-opacity:1"
     offset="1"
     id="stop3485" />
  </linearGradient>
  <linearGradient
    xlink:href="#linearGradient20604"
    id="linearGradient20558"
    gradientUnits="userSpaceOnUse"
    x1="25.802212"
    y1="20.373846"
    x2="25.111048"
    y2="58.912758" />
  <linearGradient
    id="linearGradient20604">
   <stop
     id="stop20598"
     offset="0"
     style="stop-color:#3d3d3d;stop-opacity:1" />
   <stop
     style="stop-color:#000000;stop-opacity:1"
     offset="0.61772454"
     id="stop20600" />
   <stop
     id="stop20602"
     offset="1"
     style="stop-color:#3d3d3d;stop-opacity:1" />
  </linearGradient>
  <filter
    style="color-interpolation-filters:sRGB"
    id="filter20720"
    x="-0.010581651"
    y="-0.010228872"
    width="1.0211628"
    height="1.0204578">
   <feGaussianBlur
     stdDeviation="1.4802759e-07"
     id="feGaussianBlur20722" />
  </filter>
  <linearGradient
    gradientTransform="translate(0.36067797,-0.13016949)"
    xlink:href="#linearGradient4555"
    id="linearGradient4557"
    x1="43.499737"
    y1="64.011795"
    x2="44.141731"
    y2="0.30621234"
    gradientUnits="userSpaceOnUse" />
  <linearGradient
    id="linearGradient4555">
   <stop
     style="stop-color:#141618;stop-opacity:1"
     offset="0"
     id="stop4551" />
   <stop
     id="stop4559"
     offset="0.51820582"
     style="stop-color:#686868;stop-opacity:1" />
   <stop
     style="stop-color:#31363b;stop-opacity:1"
     offset="1"
     id="stop4553" />
  </linearGradient>
  <filter
    style="color-interpolation-filters:sRGB"
    id="filter4601"
    x="-0.02967762"
    width="1.0593552"
    y="-0.029536018"
    height="1.059072">
   <feGaussianBlur
     stdDeviation="1.5817827e-07"
     id="feGaussianBlur4603" />
  </filter>
 </defs>
 <rect
   style="display:inline;fill:#ffd6c6;fill-opacity:1;fill-rule:evenodd;stroke:none;stroke-width:0.92782;stroke-linejoin:round;stroke-miterlimit:7.8"
   id="rect1192"
   width="42.084602"
   height="42.712109"
   x="3.1629105"
   y="3.0184898"
   ry="0" />
 <path
   d="m 102.31802,6.7652119 c 0.53482,0.2326676 0.97884,0.5105882 1.3273,0.837862 0.35254,0.3320116 0.61448,0.6870743 0.78898,1.0624735 0.1729,0.3767577 0.25905,0.7650071 0.25978,1.1663254 7.4e-4,0.4013182 -0.0837,0.7935102 -0.25048,1.1767872 -0.10575,0.242585 -0.21922,0.450552 -0.33909,0.625484 -0.12326,0.180611 -0.23977,0.330615 -0.34952,0.450009 -0.11311,0.125101 -0.21521,0.221343 -0.30324,0.289025 -0.0883,0.07056 -0.1614,0.136388 -0.20163,0.1602 l -0.41136,0.288581 c -0.19221,0.132671 -0.31213,0.26911 -0.35954,0.406342 -0.0549,0.138168 -0.0262,0.28684 0.0862,0.446004 0.0267,0.03751 0.0581,0.07383 0.0951,0.113499 0.0356,0.03812 0.0717,0.07036 0.10526,0.09647 l 7.99712,3.470333 -2.36625,5.415404 c -0.0264,0.03361 -0.0586,0.06979 -0.0984,0.106875 -0.037,0.03735 -0.0764,0.06851 -0.1122,0.09403 -0.15972,0.112778 -0.30843,0.142042 -0.44649,0.08764 -0.1372,-0.04695 -0.27325,-0.166373 -0.40695,-0.356678 l -0.2858,-0.411573 c -0.0252,-0.03886 -0.0908,-0.111719 -0.1595,-0.201045 -0.0674,-0.08782 -0.16491,-0.188135 -0.28974,-0.300816 -0.1176,-0.110683 -0.26721,-0.226635 -0.44751,-0.349248 -0.17459,-0.119244 -0.3839,-0.230634 -0.62469,-0.336896 -0.38292,-0.165404 -0.77502,-0.248568 -1.17654,-0.246527 -0.40151,0.002 -0.79181,0.09077 -1.16773,0.263464 -0.37615,0.175632 -0.73225,0.438603 -1.06556,0.792062 -0.32718,0.350922 -0.60805,0.794053 -0.84257,1.329377 -0.23316,0.536906 -0.37957,1.04307 -0.43177,1.517554 -0.0461,0.471965 -0.0119,0.90235 0.10676,1.289998 0.1172,0.389015 0.31204,0.730345 0.58591,1.025569 0.27251,0.293644 0.61314,0.528548 1.02327,0.706294 0.23647,0.104464 0.46157,0.182954 0.6794,0.240167 0.21488,0.057 0.40595,0.09602 0.57751,0.118793 0.17155,0.02278 0.31727,0.03481 0.43714,0.03607 0.1219,-0.0061 0.18849,-0.02485 0.23991,-0.03891 l 0.50001,-0.07042 c 0.23062,-0.03366 0.41146,-0.01622 0.53958,0.05238 0.13156,0.06283 0.21199,0.191537 0.23884,0.385972 0.007,0.04346 0.009,0.09394 0.009,0.147178 -0.001,0.05324 -0.005,0.100342 -0.0113,0.142741 l -3.47919,7.969007 -7.995818,-3.468853 c -0.03388,-0.02584 -0.06997,-0.05806 -0.106222,-0.09836 -0.03882,-0.03812 -0.06831,-0.07601 -0.09509,-0.113499 -0.112642,-0.158938 -0.141073,-0.307847 -0.08782,-0.44462 0.04895,-0.138573 0.168919,-0.27503 0.359539,-0.406345 l 0.412984,-0.289984 c 0.04026,-0.02372 0.113453,-0.08953 0.203072,-0.158533 0.08673,-0.06919 0.188766,-0.165495 0.301904,-0.290573 0.109714,-0.119469 0.226251,-0.269396 0.349521,-0.450009 0.119874,-0.174934 0.233357,-0.382901 0.339094,-0.625484 0.168108,-0.3817 0.249632,-0.774104 0.250479,-1.176785 -7.39e-4,-0.401325 -0.08689,-0.789577 -0.26138,-1.164967 -0.171555,-0.375185 -0.433487,-0.73025 -0.787403,-1.06383 -0.348669,-0.324338 -0.791111,-0.603617 -1.327301,-0.837864 -0.536403,-0.231305 -1.040976,-0.374426 -1.516884,-0.426629 -0.472049,-0.04452 -0.902976,-0.0061 -1.292564,0.112282 -0.386641,0.118613 -0.730361,0.315845 -1.026394,0.587595 -0.294677,0.273339 -0.532387,0.615941 -0.711561,1.026453 -0.102347,0.236907 -0.183179,0.463526 -0.240915,0.678491 -0.05772,0.214944 -0.09602,0.407646 -0.119356,0.579194 -0.02474,0.17 -0.03722,0.315656 -0.03751,0.437046 0.0056,0.12179 0.02426,0.188294 0.03654,0.241062 l 0.07042,0.498166 c 0.03156,0.228824 0.01352,0.409638 -0.05416,0.539492 -0.06326,0.131635 -0.1937,0.211048 -0.386936,0.240003 -0.04483,0.0056 -0.09408,0.0095 -0.147269,0.0086 -0.05319,-9.46e-4 -0.101739,-0.0059 -0.14434,-0.01036 l -5.37453,-2.331547 3.479191,-7.969003 c 0.0077,-0.04244 0.01126,-0.08946 0.01217,-0.142763 -3e-4,-0.05486 -0.0027,-0.102392 -0.0081,-0.147156 -0.02839,-0.193092 -0.107325,-0.323176 -0.238831,-0.385999 -0.129674,-0.06722 -0.3089,-0.08606 -0.539576,-0.05238 L 85.103,19.726288 c -0.05145,0.01419 -0.11796,0.03294 -0.241278,0.03728 -0.118523,2.21e-4 -0.267193,-0.01194 -0.435776,-0.03449 -0.1716,-0.02278 -0.362626,-0.06177 -0.580456,-0.118995 -0.214854,-0.05697 -0.441349,-0.137064 -0.678036,-0.238586 -0.408493,-0.179147 -0.750767,-0.412653 -1.023051,-0.70924 -0.27268,-0.293499 -0.467389,-0.634948 -0.586128,-1.022625 -0.117148,-0.389047 -0.151279,-0.819396 -0.106763,-1.289996 0.05378,-0.475849 0.198612,-0.980648 0.433363,-1.518923 0.234522,-0.535323 0.515391,-0.978454 0.841007,-1.328026 0.334882,-0.354849 0.689981,-0.618976 1.065544,-0.792085 0.37726,-0.173807 0.767571,-0.262524 1.16909,-0.264565 0.401514,-0.002 0.793623,0.0811 1.174963,0.247892 0.240996,0.103316 0.448698,0.216071 0.624686,0.336896 0.180295,0.122622 0.329995,0.23857 0.449087,0.34788 0.124808,0.112688 0.222334,0.213007 0.289733,0.300819 0.06871,0.08937 0.134315,0.162273 0.156573,0.200887 l 0.288745,0.411794 c 0.133707,0.190321 0.269809,0.309733 0.405372,0.358041 0.136725,0.05285 0.285528,0.02361 0.448087,-0.08899 0.03623,-0.02528 0.07265,-0.0567 0.112282,-0.09403 0.03983,-0.0371 0.07189,-0.0736 0.09888,-0.106379 l 2.365747,-5.4157467 5.376116,2.3301817 c 0.04098,0.0059 0.08818,0.0095 0.141434,0.01036 0.05326,9.22e-4 0.103744,-0.0014 0.147247,-0.0086 0.194623,-0.02737 0.325025,-0.106785 0.386972,-0.239967 0.06898,-0.128232 0.08709,-0.30905 0.05551,-0.537913 L 97.41303,9.9995455 C 97.39771,9.9465815 97.3805,9.8817214 97.37349,9.758272 97.37519,9.6384879 97.38768,9.4928074 97.411,9.3212235 97.43571,9.1512685 97.47399,8.9585687 97.53173,8.7436062 97.59107,8.5273101 97.670303,8.3020228 97.774229,8.0637501 97.953376,7.6532154 98.189531,7.3120055 98.484208,7.0386717 98.781321,6.7649594 99.123997,6.5697251 99.51219,6.449709 c 0.389583,-0.1183873 0.81893,-0.1554467 1.29097,-0.1109303 0.47591,0.052199 0.98048,0.1953221 1.51689,0.4266267 z"
   id="path22"
   style="isolation:isolate;fill:#808080;stroke-width:2.25285;fill-opacity:0.3317599"
   transform="translate(-65.515402,2.5158397)" />
 <path
   d="m 36.802618,8.6800692 c 0.53482,0.2326676 0.97884,0.5105882 1.3273,0.837862 0.35254,0.3320116 0.61448,0.6870738 0.78898,1.0624738 0.1729,0.376758 0.25905,0.765008 0.25978,1.166326 7.4e-4,0.401318 -0.0837,0.79351 -0.25048,1.176787 -0.10575,0.242585 -0.21922,0.450552 -0.33909,0.625484 -0.12326,0.180611 -0.23977,0.330615 -0.34952,0.450009 -0.11311,0.125101 -0.21521,0.221343 -0.30324,0.289025 -0.0883,0.07056 -0.1614,0.136388 -0.20163,0.1602 l -0.41136,0.288581 c -0.19221,0.132671 -0.31213,0.26911 -0.35954,0.406342 -0.0549,0.138168 -0.0262,0.28684 0.0862,0.446004 0.0267,0.03751 0.0581,0.07383 0.0951,0.113499 0.0356,0.03812 0.0717,0.07036 0.10526,0.09647 l 7.99712,3.470333 -2.36625,5.415404 c -0.0264,0.03361 -0.0586,0.06979 -0.0984,0.106875 -0.037,0.03735 -0.0764,0.06851 -0.1122,0.09403 -0.15972,0.112778 -0.30843,0.142042 -0.44649,0.08764 -0.1372,-0.04695 -0.27325,-0.166373 -0.40695,-0.356678 l -0.2858,-0.411573 c -0.0252,-0.03886 -0.0908,-0.111719 -0.1595,-0.201045 -0.0674,-0.08782 -0.16491,-0.188135 -0.28974,-0.300816 -0.1176,-0.110683 -0.26721,-0.226635 -0.44751,-0.349248 -0.17459,-0.119244 -0.3839,-0.230634 -0.62469,-0.336896 -0.38292,-0.165404 -0.77502,-0.248568 -1.17654,-0.246527 -0.40151,0.002 -0.79181,0.09077 -1.16773,0.263464 -0.37615,0.175632 -0.73225,0.438603 -1.06556,0.792062 -0.32718,0.350922 -0.60805,0.794053 -0.84257,1.329377 -0.23316,0.536906 -0.37957,1.04307 -0.43177,1.517554 -0.0461,0.471965 -0.0119,0.90235 0.10676,1.289998 0.1172,0.389015 0.31204,0.730345 0.58591,1.025569 0.27251,0.293644 0.61314,0.528548 1.02327,0.706294 0.23647,0.104464 0.46157,0.182954 0.6794,0.240167 0.21488,0.057 0.40595,0.09602 0.57751,0.118793 0.17155,0.02278 0.31727,0.03481 0.43714,0.03607 0.1219,-0.0061 0.18849,-0.02485 0.23991,-0.03891 l 0.50001,-0.07042 c 0.23062,-0.03366 0.41146,-0.01622 0.53958,0.05238 0.13156,0.06283 0.21199,0.191537 0.23884,0.385972 0.007,0.04346 0.009,0.09394 0.009,0.147178 -0.001,0.05324 -0.005,0.100342 -0.0113,0.142741 l -3.47919,7.969007 -7.995818,-3.468853 c -0.03388,-0.02584 -0.06997,-0.05806 -0.106222,-0.09836 -0.03882,-0.03812 -0.06831,-0.07601 -0.09509,-0.113499 -0.112642,-0.158938 -0.141073,-0.307847 -0.08782,-0.44462 0.04895,-0.138573 0.168919,-0.27503 0.359539,-0.406345 l 0.412984,-0.289984 c 0.04026,-0.02372 0.113453,-0.08953 0.203072,-0.158533 0.08673,-0.06919 0.188766,-0.165495 0.301904,-0.290573 0.109714,-0.119469 0.226251,-0.269396 0.349521,-0.450009 0.119874,-0.174934 0.233357,-0.382901 0.339094,-0.625484 0.168108,-0.3817 0.249632,-0.774104 0.250479,-1.176785 -7.39e-4,-0.401325 -0.08689,-0.789577 -0.26138,-1.164967 -0.171555,-0.375185 -0.433487,-0.73025 -0.787403,-1.06383 -0.348669,-0.324338 -0.791111,-0.603617 -1.327301,-0.837864 -0.536403,-0.231305 -1.040976,-0.374426 -1.516884,-0.426629 -0.472049,-0.04452 -0.902976,-0.0061 -1.292564,0.112282 -0.386641,0.118613 -0.730361,0.315845 -1.026394,0.587595 -0.294677,0.273339 -0.532387,0.615941 -0.711561,1.026453 -0.102347,0.236907 -0.183179,0.463526 -0.240915,0.678491 -0.05772,0.214944 -0.09602,0.407646 -0.119356,0.579194 -0.02474,0.17 -0.03722,0.315656 -0.03751,0.437046 0.0056,0.12179 0.02426,0.188294 0.03654,0.241062 l 0.07042,0.498166 c 0.03156,0.228824 0.01352,0.409638 -0.05416,0.539492 -0.06326,0.131635 -0.1937,0.211048 -0.386936,0.240003 -0.04483,0.0056 -0.09408,0.0095 -0.147269,0.0086 -0.05319,-9.46e-4 -0.101739,-0.0059 -0.14434,-0.01036 l -5.37453,-2.331547 3.479191,-7.969003 c 0.0077,-0.04244 0.01126,-0.08946 0.01217,-0.142763 -3e-4,-0.05486 -0.0027,-0.102392 -0.0081,-0.147156 -0.02839,-0.193092 -0.107325,-0.323176 -0.238831,-0.385999 -0.129674,-0.06722 -0.3089,-0.08606 -0.539576,-0.05238 l -0.499994,0.07038 c -0.05145,0.01419 -0.11796,0.03294 -0.241278,0.03728 -0.118523,2.21e-4 -0.267193,-0.01194 -0.435776,-0.03449 -0.1716,-0.02278 -0.362626,-0.06177 -0.580456,-0.118995 -0.214854,-0.05697 -0.441349,-0.137064 -0.678036,-0.238586 -0.408493,-0.179147 -0.750767,-0.412653 -1.023051,-0.70924 -0.27268,-0.293499 -0.467389,-0.634948 -0.586128,-1.022625 -0.117148,-0.389047 -0.151279,-0.819396 -0.106763,-1.289996 0.05378,-0.475849 0.198612,-0.980648 0.433363,-1.518923 0.234522,-0.535323 0.515391,-0.978454 0.841007,-1.328026 0.334882,-0.354849 0.689981,-0.618976 1.065544,-0.792085 0.37726,-0.173807 0.767571,-0.262524 1.16909,-0.264565 0.401514,-0.002 0.793623,0.0811 1.174963,0.247892 0.240996,0.103316 0.448698,0.216071 0.624686,0.336896 0.180295,0.122622 0.329995,0.23857 0.449087,0.34788 0.124808,0.112688 0.222334,0.213007 0.289733,0.300819 0.06871,0.08937 0.134315,0.162273 0.156573,0.200887 l 0.288745,0.411794 c 0.133707,0.190321 0.269809,0.309733 0.405372,0.358041 0.136725,0.05285 0.285528,0.02361 0.448087,-0.08899 0.03623,-0.02528 0.07265,-0.0567 0.112282,-0.09403 0.03983,-0.0371 0.07189,-0.0736 0.09888,-0.106379 l 2.365747,-5.415747 5.376116,2.330182 c 0.04098,0.0059 0.08818,0.0095 0.141434,0.01036 0.05326,9.22e-4 0.103744,-0.0014 0.147247,-0.0086 0.194623,-0.02737 0.325025,-0.106785 0.386972,-0.239967 0.06898,-0.128232 0.08709,-0.30905 0.05551,-0.537913 l -0.06892,-0.499616 c -0.01532,-0.05296 -0.03253,-0.117825 -0.03954,-0.241274 0.0017,-0.119784 0.01419,-0.265465 0.03751,-0.437048 0.02471,-0.169956 0.06299,-0.362656 0.12073,-0.577618 0.05934,-0.216296 0.138573,-0.441584 0.242499,-0.6798566 0.179147,-0.4105347 0.415302,-0.7517446 0.709979,-1.0250784 0.297113,-0.2737123 0.639789,-0.4689466 1.027982,-0.5889627 0.389583,-0.1183873 0.81893,-0.1554467 1.29097,-0.1109303 0.47591,0.052199 0.98048,0.1953221 1.51689,0.4266267 z"
   id="path22-3"
   style="isolation:isolate;fill:#ff4500;fill-opacity:1;stroke-width:2.25285" />
 <path
   style="display:inline;mix-blend-mode:normal;fill:url(#linearGradient3403);fill-opacity:1;stroke:url(#linearGradient20558);stroke-width:1.16242;stroke-linecap:butt;stroke-linejoin:round;stroke-miterlimit:4;stroke-dasharray:none;stroke-opacity:1"
   d="M 4.7043071,3.9814882 4.6913695,60.80196 H 58.59546 l 1.022155,-2.866369 c 0,0 -23.87537,0.766388 -32.844441,-4.140386 C 16.257548,48.042344 11.401114,4.0978197 11.401114,4.0978197 Z"
   id="path1686"
   transform="matrix(0.7518797,0,0,0.7518797,0.09970467,0.02488636)" />
 <rect
   style="display:inline;fill:none;fill-opacity:1;stroke:url(#linearGradient4557);stroke-width:3.71366;stroke-linejoin:round;stroke-miterlimit:7.8;stroke-dasharray:none;stroke-opacity:0.995146"
   id="rect4539"
   width="62.566689"
   height="62.866646"
   x="1.0323594"
   y="0.59551275"
   ry="6.2447233"
   rx="5.8029528"
   transform="matrix(0.70434793,0,0,0.70291231,1.3629847,1.5442064)" />
</svg>
