<?xml version="1.0" encoding="UTF-8" standalone="no"?>
<!-- Created with Inkscape (http://www.inkscape.org/) -->

<svg
   width="48"
   height="48"
   version="1.1"
   viewBox="0 0 48 48"
   id="svg22"
   xmlns:xlink="http://www.w3.org/1999/xlink"
   xmlns="http://www.w3.org/2000/svg"
   xmlns:svg="http://www.w3.org/2000/svg">
  <defs
     id="defs12">
    <linearGradient
       xlink:href="#linearGradient3487"
       id="linearGradient3403"
       gradientUnits="userSpaceOnUse"
       x1="6.9491749"
       y1="4.5549412"
       x2="11.215498"
       y2="59.052471" />
    <linearGradient
       id="linearGradient3487">
      <stop
         style="stop-color:#32373c;stop-opacity:1"
         offset="0"
         id="stop3481" />
      <stop
         id="stop3483"
         offset="0.36804965"
         style="stop-color:#1a1a1a;stop-opacity:1" />
      <stop
         style="stop-color:#31363b;stop-opacity:1"
         offset="1"
         id="stop3485" />
    </linearGradient>
    <linearGradient
       xlink:href="#linearGradient20604"
       id="linearGradient20558"
       gradientUnits="userSpaceOnUse"
       x1="25.802212"
       y1="20.373846"
       x2="25.111048"
       y2="58.912758" />
    <linearGradient
       id="linearGradient20604">
      <stop
         id="stop20598"
         offset="0"
         style="stop-color:#3d3d3d;stop-opacity:1" />
      <stop
         style="stop-color:#000000;stop-opacity:1"
         offset="0.61772454"
         id="stop20600" />
      <stop
         id="stop20602"
         offset="1"
         style="stop-color:#3d3d3d;stop-opacity:1" />
    </linearGradient>
    <filter
       style="color-interpolation-filters:sRGB"
       id="filter20720"
       x="-0.017024755"
       y="-0.016457183"
       width="1.0340491"
       height="1.0329144">
      <feGaussianBlur
         stdDeviation="0.14745661"
         id="feGaussianBlur20722" />
    </filter>
    <linearGradient
       gradientTransform="translate(0.36067797,-0.13016949)"
       xlink:href="#linearGradient4555"
       id="linearGradient4557"
       x1="43.499737"
       y1="64.011795"
       x2="44.141731"
       y2="0.30621234"
       gradientUnits="userSpaceOnUse" />
    <linearGradient
       id="linearGradient4555">
      <stop
         style="stop-color:#141618;stop-opacity:1"
         offset="0"
         id="stop4551" />
      <stop
         id="stop4559"
         offset="0.51820582"
         style="stop-color:#686868;stop-opacity:1" />
      <stop
         style="stop-color:#31363b;stop-opacity:1"
         offset="1"
         id="stop4553" />
    </linearGradient>
    <filter
       style="color-interpolation-filters:sRGB"
       id="filter4601"
       x="-0.030244955"
       width="1.0604899"
       y="-0.030100647"
       height="1.0602013">
      <feGaussianBlur
         stdDeviation="0.014790289"
         id="feGaussianBlur4603" />
    </filter>
  </defs>
  <path
     style="fill:#1ab5bc"
     d="m 35.987766,3.0576691 c -11.08,0 -24.782551,0.032653 -27.3391923,0.032653 0,3.674268 0.139562,26.9115246 0.139562,30.0310526 C 24.677449,33.672852 32.826164,15.00375 40.574355,9.2627471 43.1313,7.368185 45.601144,5.3101469 45.95071,4.9605814 44.396839,2.3154001 39.247107,3.0576691 35.987766,3.0576691 Z"
     id="path1" />
  <path
     style="fill:#df5b6f"
     d="m 46.091933,15.535009 -28.605469,10.831254 23.011641,17.23949 c 2.040565,0 3.575558,-0.04483 5.452605,-0.04483 0,-4.472623 0.141223,-14.958098 0.141223,-20.503255 0,-2.484565 0,-5.010124 0,-7.52266 z"
     id="path2" />
  <path
     style="fill:#445c5c"
     d="m 17.519667,26.278372 -8.8710933,6.574219 c 0,3.500172 0,8.214276 0,10.753162 2.2144303,0 13.3017893,0 17.4433593,0 h 14.406172 z"
     id="path3" />
  <path
     style="fill:#9f327b"
     d="M 45.95071,4.9605814 17.488417,26.368216 46.091933,15.535009 c 0,-2.585806 -0.141223,-7.9497136 -0.141223,-10.5744276 z"
     id="path4" />
  <path
     style="opacity:0.2"
     d="m 19.091933,10.057669 c -1.108,0 -2,0.892 -2,2 0,1.108 0.892,2 2,2 1.108,0 2,-0.892 2,-2 0,-1.108 -0.892,-2 -2,-2 z m 11,0 -4,4 6,6 -6,6 4,4 6,-6 4,-4 -4,-4 z m -15.5,11 c -1.38499,0 -2.5,1.11499 -2.5,2.5 0,1.38499 1.11501,2.5 2.5,2.5 1.38501,0 2.5,-1.11501 2.5,-2.5 0,-1.38501 -1.11499,-2.5 -2.5,-2.5 z m 8,10 c -1.939,0 -3.5,1.561 -3.5,3.5 0,1.939 1.561,3.5 3.5,3.5 1.939,0 3.5,-1.561 3.5,-3.5 0,-1.939 -1.561,-3.5 -3.5,-3.5 z"
     id="path7" />
  <path
     style="fill:#ffffff"
     d="m 19.091933,9.0576691 c -1.108,0 -2,0.892 -2,1.9999999 0,1.108 0.892,2 2,2 1.108,0 2,-0.892 2,-2 0,-1.1079999 -0.892,-1.9999999 -2,-1.9999999 z m 11,0 -4,3.9999999 6,6 -6,6 4,4 6,-6 4,-4 -4,-4 z m -15.5,10.9999999 c -1.38499,0 -2.5,1.11499 -2.5,2.5 0,1.38499 1.11501,2.5 2.5,2.5 1.38501,0 2.5,-1.11501 2.5,-2.5 0,-1.38501 -1.11499,-2.5 -2.5,-2.5 z m 8,10 c -1.939,0 -3.5,1.561 -3.5,3.5 0,1.939 1.561,3.5 3.5,3.5 1.939,0 3.5,-1.561 3.5,-3.5 0,-1.939 -1.561,-3.5 -3.5,-3.5 z"
     id="path8" />
  <path
     style="display:inline;mix-blend-mode:normal;fill:url(#linearGradient3403);fill-opacity:1;stroke:url(#linearGradient20558);stroke-width:1.16242;stroke-linecap:butt;stroke-linejoin:round;stroke-miterlimit:4;stroke-dasharray:none;stroke-opacity:1;filter:url(#filter20720)"
     d="M 4.7043071,3.9814882 4.6913695,60.80196 H 58.59546 l 1.022155,-2.866369 c 0,0 -23.87537,0.766388 -32.844441,-4.140386 C 16.257548,48.042344 11.401114,4.0978197 11.401114,4.0978197 Z"
     id="path1686"
     transform="matrix(0.7518797,0,0,0.7518797,0.09970467,0.02488636)" />
  <rect
     style="display:inline;fill:none;fill-opacity:1;stroke:url(#linearGradient4557);stroke-width:3.71366;stroke-linejoin:round;stroke-miterlimit:7.8;stroke-dasharray:none;stroke-opacity:0.995146;filter:url(#filter4601)"
     id="rect4539"
     width="62.566689"
     height="62.866646"
     x="1.0323594"
     y="0.59551275"
     ry="6.2447233"
     rx="5.8029528"
     transform="matrix(0.70434793,0,0,0.70291231,1.3629847,1.5442064)" />
</svg>
