<?xml version="1.0" encoding="UTF-8" standalone="no"?>
<!-- Created with Inkscape (http://www.inkscape.org/) -->

<svg
  width="48"
  height="48"
  version="1.1"
  viewBox="0 0 48 48"
  id="svg22"
  xmlns:xlink="http://www.w3.org/1999/xlink"
  xmlns="http://www.w3.org/2000/svg"
  xmlns:svg="http://www.w3.org/2000/svg">
 <defs
   id="defs12">
  <linearGradient
    id="linearGradient1005-3-3"
    x1="5.2535"
    x2="9.3823996"
    y1="15.383"
    y2="2.9421"
    gradientTransform="matrix(0.99999,0,0,0.99999,1.632,-0.61743)"
    gradientUnits="userSpaceOnUse">
   <stop
     stop-color="#fa8200"
     offset="0"
     id="stop2" />
   <stop
     stop-color="#ff9600"
     offset=".36953"
     id="stop4" />
   <stop
     stop-color="#ffb400"
     offset="1"
     id="stop6" />
  </linearGradient>
  <filter
    id="filter4014"
    x="-0.062499932"
    y="-0.057692992"
    width="1.1249999"
    height="1.115386"
    color-interpolation-filters="sRGB">
   <feGaussianBlur
     stdDeviation="1.093751"
     id="feGaussianBlur9" />
  </filter>
  <linearGradient
    xlink:href="#linearGradient3487"
    id="linearGradient3403"
    gradientUnits="userSpaceOnUse"
    x1="6.9491749"
    y1="4.5549412"
    x2="11.215498"
    y2="59.052471" />
  <linearGradient
    id="linearGradient3487">
   <stop
     style="stop-color:#32373c;stop-opacity:1"
     offset="0"
     id="stop3481" />
   <stop
     id="stop3483"
     offset="0.36804965"
     style="stop-color:#1a1a1a;stop-opacity:1" />
   <stop
     style="stop-color:#31363b;stop-opacity:1"
     offset="1"
     id="stop3485" />
  </linearGradient>
  <linearGradient
    xlink:href="#linearGradient20604"
    id="linearGradient20558"
    gradientUnits="userSpaceOnUse"
    x1="25.802212"
    y1="20.373846"
    x2="25.111048"
    y2="58.912758" />
  <linearGradient
    id="linearGradient20604">
   <stop
     id="stop20598"
     offset="0"
     style="stop-color:#3d3d3d;stop-opacity:1" />
   <stop
     style="stop-color:#000000;stop-opacity:1"
     offset="0.61772454"
     id="stop20600" />
   <stop
     id="stop20602"
     offset="1"
     style="stop-color:#3d3d3d;stop-opacity:1" />
  </linearGradient>
  <linearGradient
    gradientTransform="translate(0.36067797,-0.13016949)"
    xlink:href="#linearGradient4555"
    id="linearGradient4557"
    x1="43.499737"
    y1="64.011795"
    x2="44.141731"
    y2="0.30621234"
    gradientUnits="userSpaceOnUse" />
  <linearGradient
    id="linearGradient4555">
   <stop
     style="stop-color:#141618;stop-opacity:1"
     offset="0"
     id="stop4551" />
   <stop
     id="stop4559"
     offset="0.51820582"
     style="stop-color:#686868;stop-opacity:1" />
   <stop
     style="stop-color:#31363b;stop-opacity:1"
     offset="1"
     id="stop4553" />
  </linearGradient>
  <filter
    style="color-interpolation-filters:sRGB"
    id="filter4601"
    x="-0.029678524"
    width="1.059357"
    y="-0.029536918"
    height="1.0590738">
   <feGaussianBlur
     stdDeviation="2.3736627e-05"
     id="feGaussianBlur4603" />
  </filter>
  <linearGradient
    y2="512.79999"
    x2="0"
    y1="543.79999"
    gradientUnits="userSpaceOnUse"
    id="linearGradient10394"
    xlink:href="#a" />
  <linearGradient
    id="a"
    y1="543.79999"
    y2="512.79999"
    x2="0"
    gradientUnits="userSpaceOnUse">
   <stop
     stop-color="#cea476"
     id="stop10325" />
   <stop
     offset="1"
     stop-color="#dab58b"
     id="stop10327" />
  </linearGradient>
  <linearGradient
    xlink:href="#a"
    id="d"
    y1="512.79999"
    y2="503.79999"
    x2="0"
    gradientUnits="userSpaceOnUse" />
  <linearGradient
    id="linearGradient897"
    y1="543.79999"
    y2="512.79999"
    x2="0"
    gradientUnits="userSpaceOnUse">
   <stop
     stop-color="#cea476"
     id="stop893" />
   <stop
     offset="1"
     stop-color="#dab58b"
     id="stop895" />
  </linearGradient>
  <linearGradient
    y2="503.79999"
    x2="0"
    y1="512.79999"
    gradientTransform="translate(0,-0.001)"
    gradientUnits="userSpaceOnUse"
    id="linearGradient10396"
    xlink:href="#b" />
  <linearGradient
    id="b"
    y1="512.79999"
    y2="503.79999"
    x2="0"
    gradientUnits="userSpaceOnUse"
    gradientTransform="translate(0,-0.001)">
   <stop
     stop-color="#ebc69a"
     id="stop10330" />
   <stop
     offset="1"
     stop-color="#f4e0c8"
     stop-opacity="0"
     id="stop10332" />
  </linearGradient>
  <linearGradient
    xlink:href="#b"
    id="c"
    y1="512.79999"
    y2="503.79999"
    gradientUnits="userSpaceOnUse"
    x2="0"
    gradientTransform="matrix(1,0,0,0.55556,0,-797.69)" />
  <linearGradient
    id="linearGradient908"
    y1="512.79999"
    y2="503.79999"
    x2="0"
    gradientUnits="userSpaceOnUse"
    gradientTransform="translate(0,-0.001)">
   <stop
     stop-color="#ebc69a"
     id="stop904" />
   <stop
     offset="1"
     stop-color="#f4e0c8"
     stop-opacity="0"
     id="stop906" />
  </linearGradient>
  <linearGradient
    id="e"
    y1="516.79999"
    x1="399.57001"
    y2="534.79999"
    x2="417.57001"
    gradientUnits="userSpaceOnUse">
   <stop
     stop-color="#292c2f"
     id="stop10337" />
   <stop
     offset="1"
     stop-opacity="0"
     id="stop10339" />
  </linearGradient>
 </defs>
 <rect
   style="display:inline;fill:#d5ad82;fill-opacity:1;fill-rule:evenodd;stroke:none;stroke-width:0.92782;stroke-linejoin:round;stroke-miterlimit:7.8"
   id="rect1192"
   width="42.084602"
   height="42.712109"
   x="3.1629105"
   y="3.0184898"
   ry="0" />
 <g
   transform="matrix(0.96706825,0,0,0.93314191,-369.53146,-463.85709)"
   id="g10364">
  <rect
    style="fill:url(#linearGradient10394);stroke-width:2.8;stroke-opacity:0.55"
    width="40"
    x="388.57001"
    y="512.79999"
    height="31"
    id="rect10344" />
  <path
    style="fill:url(#d);fill-rule:evenodd"
    d="m 388.57,512.8 6,-9 h 29 l 5,9 z"
    id="path10346" />
  <g
    style="stroke-width:2.8;stroke-opacity:0.55"
    id="g10356">
   <path
     style="fill:#f4e0c8"
     d="m 405.57,503.8 v 13.458 l 1,-0.336 1,0.336 1,-0.336 1,0.336 1,-0.336 1,0.336 V 503.8 Z"
     id="path10348" />
   <rect
     style="fill:url(#linearGradient10396)"
     width="6"
     x="405.57001"
     y="503.79999"
     height="9"
     id="rect10350" />
   <rect
     style="fill:url(#c)"
     width="6"
     x="405.57001"
     y="-517.79999"
     height="5"
     transform="scale(1,-1)"
     id="rect10352" />
   <path
     style="fill:#5c4c3e"
     d="m 418.57,514.8 v 8 h 8 v -8 z m 1,1 h 6 v 6 h -6 z m 1,1 v 1 h 1 v -1 z m 2,0 v 2 h 2 v -2 z m -2,2 v 2 h 1 v -2 z m 2,1 v 1 h 2 v -1 z"
     id="path10354" />
  </g>
  <path
    style="opacity:0.2;fill:url(#e);fill-rule:evenodd"
    d="m 404.57,521.8 10,9.62 5,-0.62 v -4 l 9,9 v 8 h -26 l -6,-6 z"
    id="path10358" />
  <rect
    style="fill:#9f8569;stroke-width:2.8;stroke-opacity:0.55"
    width="40"
    x="388.57001"
    y="542.79999"
    height="1"
    id="rect10360" />
  <path
    style="fill:#5c4c3e"
    d="m 402.59,521.8 -6.02,16 h 1.947 l 1.924,-5.063 h 6.414 l 1.77,5.063 h 1.945 l -5.684,-16 z m 1.172,1.842 2.455,7.627 h -5.176 z m 12.639,2.061 c -1.679,0 -3.247,0.41 -4.152,0.885 l 0.508,1.381 c 0.972,-0.453 2.384,-0.777 3.688,-0.777 1.634,0 2.342,0.733 2.342,2.135 v 1.316 l -1.193,0.129 c -3.048,0.431 -6.05,0.84 -6.05,3.881 0,2.156 1.656,3.148 3.6,3.148 1.237,0 2.651,-0.388 3.689,-1.531 l 0.264,1.273 h 1.48 v -8.496 c 0,-2.588 -1.833,-3.344 -4.174,-3.344 m 2.385,6.168 v 2.846 c -0.773,1.035 -2.34,1.703 -3.467,1.703 -1.126,0 -1.967,-0.538 -1.967,-1.832 0,-1.617 0.995,-2.135 4.352,-2.566 0.022,0 1.082,-0.15 1.082,-0.15"
    id="path10362" />
 </g>
 <path
   style="display:inline;mix-blend-mode:normal;fill:url(#linearGradient3403);fill-opacity:1;stroke:url(#linearGradient20558);stroke-width:1.16242;stroke-linecap:butt;stroke-linejoin:round;stroke-miterlimit:4;stroke-dasharray:none;stroke-opacity:1"
   d="M 4.7043071,3.9814882 4.6913695,60.80196 H 58.59546 l 1.022155,-2.866369 c 0,0 -23.87537,0.766388 -32.844441,-4.140386 C 16.257548,48.042344 11.401114,4.0978197 11.401114,4.0978197 Z"
   id="path1686"
   transform="matrix(0.7518797,0,0,0.7518797,0.09970467,0.02488636)" />
 <rect
   style="display:inline;fill:none;fill-opacity:1;stroke:url(#linearGradient4557);stroke-width:3.71366;stroke-linejoin:round;stroke-miterlimit:7.8;stroke-dasharray:none;stroke-opacity:0.995146"
   id="rect4539"
   width="62.566689"
   height="62.866646"
   x="1.0323594"
   y="0.59551275"
   ry="6.2447233"
   rx="5.8029528"
   transform="matrix(0.70434793,0,0,0.70291231,1.3629847,1.5442064)" />
</svg>
