<?xml version="1.0" encoding="UTF-8" standalone="no"?>
<!-- Created with Inkscape (http://www.inkscape.org/) -->

<svg
   width="48"
   height="48"
   version="1.1"
   viewBox="0 0 48 48"
   id="svg22"
   sodipodi:docname="preferences-devices-cpu.svg"
   inkscape:version="1.1.2 (0a00cf5339, 2022-02-04)"
   xmlns:inkscape="http://www.inkscape.org/namespaces/inkscape"
   xmlns:sodipodi="http://sodipodi.sourceforge.net/DTD/sodipodi-0.dtd"
   xmlns:xlink="http://www.w3.org/1999/xlink"
   xmlns="http://www.w3.org/2000/svg"
   xmlns:svg="http://www.w3.org/2000/svg">
  <sodipodi:namedview
     id="namedview24"
     pagecolor="#ffffff"
     bordercolor="#666666"
     borderopacity="1.0"
     inkscape:showpageshadow="2"
     inkscape:pageopacity="0.0"
     inkscape:pagecheckerboard="0"
     inkscape:deskcolor="#d1d1d1"
     showgrid="false"
     inkscape:zoom="11.25"
     inkscape:cx="-11.288889"
     inkscape:cy="22.177778"
     inkscape:window-width="3440"
     inkscape:window-height="1359"
     inkscape:window-x="0"
     inkscape:window-y="0"
     inkscape:window-maximized="1"
     inkscape:current-layer="svg22"
     inkscape:pageshadow="2" />
  <defs
     id="defs12">
    <linearGradient
       id="linearGradient1005-3-3"
       x1="5.2535"
       x2="9.3823996"
       y1="15.383"
       y2="2.9421"
       gradientTransform="matrix(0.99999,0,0,0.99999,1.632,-0.61743)"
       gradientUnits="userSpaceOnUse">
      <stop
         stop-color="#fa8200"
         offset="0"
         id="stop2" />
      <stop
         stop-color="#ff9600"
         offset=".36953"
         id="stop4" />
      <stop
         stop-color="#ffb400"
         offset="1"
         id="stop6" />
    </linearGradient>
    <filter
       id="filter4014"
       x="-0.062499932"
       y="-0.057692992"
       width="1.1249999"
       height="1.115386"
       color-interpolation-filters="sRGB">
      <feGaussianBlur
         stdDeviation="1.093751"
         id="feGaussianBlur9" />
    </filter>
    <linearGradient
       inkscape:collect="always"
       xlink:href="#linearGradient3487"
       id="linearGradient3403"
       gradientUnits="userSpaceOnUse"
       x1="6.9491749"
       y1="4.5549412"
       x2="11.215498"
       y2="59.052471" />
    <linearGradient
       id="linearGradient3487">
      <stop
         style="stop-color:#32373c;stop-opacity:1"
         offset="0"
         id="stop3481" />
      <stop
         id="stop3483"
         offset="0.36804965"
         style="stop-color:#1a1a1a;stop-opacity:1" />
      <stop
         style="stop-color:#31363b;stop-opacity:1"
         offset="1"
         id="stop3485" />
    </linearGradient>
    <linearGradient
       inkscape:collect="always"
       xlink:href="#linearGradient20604"
       id="linearGradient20558"
       gradientUnits="userSpaceOnUse"
       x1="25.802212"
       y1="20.373846"
       x2="25.111048"
       y2="58.912758" />
    <linearGradient
       id="linearGradient20604">
      <stop
         id="stop20598"
         offset="0"
         style="stop-color:#3d3d3d;stop-opacity:1" />
      <stop
         style="stop-color:#000000;stop-opacity:1"
         offset="0.61772454"
         id="stop20600" />
      <stop
         id="stop20602"
         offset="1"
         style="stop-color:#3d3d3d;stop-opacity:1" />
    </linearGradient>
    <filter
       inkscape:collect="always"
       style="color-interpolation-filters:sRGB"
       id="filter20720"
       x="-0.017024755"
       y="-0.016457183"
       width="1.0340491"
       height="1.0329144">
      <feGaussianBlur
         inkscape:collect="always"
         stdDeviation="0.14745661"
         id="feGaussianBlur20722" />
    </filter>
    <linearGradient
       gradientTransform="translate(0.36067797,-0.13016949)"
       xlink:href="#linearGradient4555"
       id="linearGradient4557"
       x1="43.499737"
       y1="64.011795"
       x2="44.141731"
       y2="0.30621234"
       gradientUnits="userSpaceOnUse" />
    <linearGradient
       id="linearGradient4555">
      <stop
         style="stop-color:#141618;stop-opacity:1"
         offset="0"
         id="stop4551" />
      <stop
         id="stop4559"
         offset="0.51820582"
         style="stop-color:#686868;stop-opacity:1" />
      <stop
         style="stop-color:#31363b;stop-opacity:1"
         offset="1"
         id="stop4553" />
    </linearGradient>
    <filter
       style="color-interpolation-filters:sRGB"
       id="filter4601"
       x="-0.030244955"
       width="1.0604899"
       y="-0.030100647"
       height="1.0602013">
      <feGaussianBlur
         stdDeviation="0.014790289"
         id="feGaussianBlur4603" />
    </filter>
    <linearGradient
       xlink:href="#c"
       id="g"
       gradientUnits="userSpaceOnUse"
       y1="44"
       x2="0"
       y2="4" />
    <linearGradient
       id="c"
       y1="44"
       y2="4"
       gradientUnits="userSpaceOnUse"
       x2="0"
       gradientTransform="translate(0,1004.36)">
      <stop
         stop-color="#63984b"
         id="stop2-2" />
      <stop
         offset="1"
         stop-color="#8fc278"
         id="stop4-4" />
    </linearGradient>
    <linearGradient
       xlink:href="#b"
       id="h"
       gradientUnits="userSpaceOnUse"
       x1="17"
       y1="11"
       x2="44"
       y2="41" />
    <linearGradient
       id="b"
       y1="11"
       x1="17"
       y2="41"
       gradientUnits="userSpaceOnUse"
       x2="44"
       gradientTransform="translate(0,1004.36)">
      <stop
         id="stop7" />
      <stop
         offset="1"
         stop-opacity="0"
         id="stop9" />
    </linearGradient>
    <linearGradient
       xlink:href="#a"
       id="i"
       x1="15"
       y1="1042.36"
       x2="15"
       y2="1012.36"
       gradientUnits="userSpaceOnUse"
       gradientTransform="translate(0,-1004.36)" />
    <linearGradient
       id="a"
       y1="1040.95"
       y2="1012.95"
       gradientUnits="userSpaceOnUse"
       x2="0"
       gradientTransform="translate(-42)"
       x1="0"
       spreadMethod="pad">
      <stop
         stop-color="#999a9c"
         id="stop12" />
      <stop
         offset="1"
         stop-color="#dcdfdf"
         id="stop14" />
    </linearGradient>
  </defs>
  <g
     id="g860"
     transform="matrix(1.0826007,0,0,1.0826007,-1.3891204,-1.9604021)">
    <path
       d="M 10,4 A 5.983,5.983 0 0 0 4.47,7.66 6.01,6.01 0 0 0 4,10 v 3 l 3,2 -3,2 V 38 A 5.983,5.983 0 0 0 7.66,43.53 6.01,6.01 0 0 0 10,44 H 38 A 5.983,5.983 0 0 0 43.53,40.34 6.01,6.01 0 0 0 44,38 V 10 A 5.983,5.983 0 0 0 40.34,4.47 6.01,6.01 0 0 0 38,4 Z"
       id="path37"
       inkscape:connector-curvature="0"
       style="fill:#dce269;fill-rule:evenodd" />
    <path
       d="M 10,4 A 5.983,5.983 0 0 0 4.47,7.66 6.01,6.01 0 0 0 4,10 v 2 l 3,2 -3,2 v 22 a 5.983,5.983 0 0 0 1.754,4.246 C 6.072,42.565 6.489,42.76 6.873,43 h 34.254 c 0.384,-0.24 0.8,-0.435 1.12,-0.754 A 5.983,5.983 0 0 0 44,38 V 10 A 5.983,5.983 0 0 0 40.34,4.47 6.01,6.01 0 0 0 38,4 Z"
       id="path39"
       style="fill:url(#g);fill-rule:evenodd"
       inkscape:connector-curvature="0" />
    <g
       id="g43"
       style="color:#000000;fill:#dee372">
      <path
         d="m 9,40 v 1 h 1 v -1 z m 1,1 v 1 h 1 v -1 z m 1,0 h 1 v -1 h -1 z m 1,0 v 1 h 1 v -1 z m 1,0 h 1 v -1 h -1 z m 1,0 v 1 h 1 v -1 z m 1,0 h 1 v -1 h -1 z m 1,0 v 1 h 1 v -1 z m 1,0 h 1 v -1 h -1 z m 1,0 v 1 h 1 v -1 z m 1,0 h 1 v -1 h -1 z m 1,0 v 1 h 1 v -1 z m 1,0 h 1 v -1 h -1 z m 1,0 v 1 h 1 v -1 z m 1,0 h 1 v -1 h -1 z m 1,0 v 1 h 1 v -1 z m 11,-1 v 1 h 1 v -1 z m 1,1 v 1 h 1 v -1 z m 1,0 h 1 v -1 h -1 z m 1,0 v 1 h 1 v -1 z m 1,0 h 1 v -1 h -1 z m -4,0 h -1 v 1 h 1 z"
         id="path41"
         inkscape:connector-curvature="0"
         style="opacity:0.6" />
    </g>
    <path
       d="m 42,9 v 1 h 1 V 9 Z m 0,1 h -1 v 1 h 1 z m 0,1 v 1 h 1 v -1 z m 0,1 h -1 v 1 h 1 z m 0,1 v 1 h 1 v -1 z m 0,1 h -1 v 1 h 1 z m 0,1 v 1 h 1 v -1 z m 0,1 h -1 v 1 h 1 z m 0,1 v 1 h 1 v -1 z m 0,1 h -1 v 1 h 1 z m 0,1 v 1 h 1 v -1 z m 0,1 h -1 v 1 h 1 z m 0,1 v 1 h 1 v -1 z m 0,1 h -1 v 1 h 1 z m 0,1 v 1 h 1 v -1 z m 0,1 h -1 v 1 h 1 z"
       id="path45"
       inkscape:connector-curvature="0"
       style="color:#000000;opacity:0.6;fill:#dee372" />
    <path
       d="M 12.584,44 H 38 A 5.983,5.983 0 0 0 43.53,40.34 6.01,6.01 0 0 0 44,38 V 12 L 40,8 V 39 H 8 Z"
       id="path47"
       style="opacity:0.2;fill:url(#h);fill-rule:evenodd"
       inkscape:connector-curvature="0" />
    <path
       d="M 8,8 H 40 V 39 H 8 Z"
       id="path49"
       style="fill:url(#i);fill-rule:evenodd"
       inkscape:connector-curvature="0" />
    <path
       d="m 8,38 h 32 v 1 H 8 Z"
       id="path51"
       inkscape:connector-curvature="0"
       style="fill:#5c5c5c;fill-rule:evenodd" />
    <path
       d="m 31,11 v 6 h 2 v -2 h 2 v -2 h -2 v -2 z m 4,2 h 2 v -2 h -2 z m 0,2 v 2 h 2 V 15 Z M 11,29 v 2 h 6 v -2 z m 0,4 v 2 h 4 v -2 z"
       id="path53"
       inkscape:connector-curvature="0"
       style="fill:#484a4b;paint-order:stroke fill markers" />
  </g>
  <path
     style="display:inline;mix-blend-mode:normal;fill:url(#linearGradient3403);fill-opacity:1;stroke:url(#linearGradient20558);stroke-width:1.16242;stroke-linecap:butt;stroke-linejoin:round;stroke-miterlimit:4;stroke-dasharray:none;stroke-opacity:1;filter:url(#filter20720)"
     d="M 4.7043071,3.9814882 4.6913695,60.80196 H 58.59546 l 1.022155,-2.866369 c 0,0 -23.87537,0.766388 -32.844441,-4.140386 C 16.257548,48.042344 11.401114,4.0978197 11.401114,4.0978197 Z"
     id="path1686"
     sodipodi:nodetypes="ccccscc"
     transform="matrix(0.7518797,0,0,0.7518797,0.09970467,0.02488636)"
     inkscape:label="folder" />
  <rect
     style="display:inline;fill:none;fill-opacity:1;stroke:url(#linearGradient4557);stroke-width:3.71366;stroke-linejoin:round;stroke-miterlimit:7.8;stroke-dasharray:none;stroke-opacity:0.995146;filter:url(#filter4601)"
     id="rect4539"
     width="62.566689"
     height="62.866646"
     x="1.0323594"
     y="0.59551275"
     ry="6.2447233"
     rx="5.8029528"
     transform="matrix(0.70434793,0,0,0.70291231,1.3629847,1.5442064)"
     inkscape:label="contour" />
</svg>
