<?xml version="1.0" encoding="UTF-8" standalone="no"?>
<!-- Created with Inkscape (http://www.inkscape.org/) -->

<svg
   width="48"
   height="48"
   version="1.1"
   viewBox="0 0 48 48"
   id="svg22"
   xmlns:xlink="http://www.w3.org/1999/xlink"
   xmlns="http://www.w3.org/2000/svg"
   xmlns:svg="http://www.w3.org/2000/svg">
  <defs
     id="defs12">
    <linearGradient
       id="linearGradient1005-3-3"
       x1="5.2535"
       x2="9.3823996"
       y1="15.383"
       y2="2.9421"
       gradientTransform="matrix(0.99999,0,0,0.99999,1.632,-0.61743)"
       gradientUnits="userSpaceOnUse">
      <stop
         stop-color="#fa8200"
         offset="0"
         id="stop2" />
      <stop
         stop-color="#ff9600"
         offset=".36953"
         id="stop4" />
      <stop
         stop-color="#ffb400"
         offset="1"
         id="stop6" />
    </linearGradient>
    <filter
       id="filter4014"
       x="-0.062499932"
       y="-0.057692992"
       width="1.1249999"
       height="1.115386"
       color-interpolation-filters="sRGB">
      <feGaussianBlur
         stdDeviation="1.093751"
         id="feGaussianBlur9" />
    </filter>
    <linearGradient
       xlink:href="#linearGradient3487"
       id="linearGradient3403"
       gradientUnits="userSpaceOnUse"
       x1="6.9491749"
       y1="4.5549412"
       x2="11.215498"
       y2="59.052471" />
    <linearGradient
       id="linearGradient3487">
      <stop
         style="stop-color:#32373c;stop-opacity:1"
         offset="0"
         id="stop3481" />
      <stop
         id="stop3483"
         offset="0.36804965"
         style="stop-color:#1a1a1a;stop-opacity:1" />
      <stop
         style="stop-color:#31363b;stop-opacity:1"
         offset="1"
         id="stop3485" />
    </linearGradient>
    <linearGradient
       xlink:href="#linearGradient20604"
       id="linearGradient20558"
       gradientUnits="userSpaceOnUse"
       x1="25.802212"
       y1="20.373846"
       x2="25.111048"
       y2="58.912758" />
    <linearGradient
       id="linearGradient20604">
      <stop
         id="stop20598"
         offset="0"
         style="stop-color:#3d3d3d;stop-opacity:1" />
      <stop
         style="stop-color:#000000;stop-opacity:1"
         offset="0.61772454"
         id="stop20600" />
      <stop
         id="stop20602"
         offset="1"
         style="stop-color:#3d3d3d;stop-opacity:1" />
    </linearGradient>
    <filter
       style="color-interpolation-filters:sRGB"
       id="filter20720"
       x="-0.017024755"
       y="-0.016457183"
       width="1.0340491"
       height="1.0329144">
      <feGaussianBlur
         stdDeviation="0.14745661"
         id="feGaussianBlur20722" />
    </filter>
    <linearGradient
       gradientTransform="translate(0.36067797,-0.13016949)"
       xlink:href="#linearGradient4555"
       id="linearGradient4557"
       x1="43.499737"
       y1="64.011795"
       x2="44.141731"
       y2="0.30621234"
       gradientUnits="userSpaceOnUse" />
    <linearGradient
       id="linearGradient4555">
      <stop
         style="stop-color:#141618;stop-opacity:1"
         offset="0"
         id="stop4551" />
      <stop
         id="stop4559"
         offset="0.51820582"
         style="stop-color:#686868;stop-opacity:1" />
      <stop
         style="stop-color:#31363b;stop-opacity:1"
         offset="1"
         id="stop4553" />
    </linearGradient>
    <filter
       style="color-interpolation-filters:sRGB"
       id="filter4601"
       x="-0.030244955"
       width="1.0604899"
       y="-0.030100647"
       height="1.0602013">
      <feGaussianBlur
         stdDeviation="0.014790289"
         id="feGaussianBlur4603" />
    </filter>
    <linearGradient
       xlink:href="#b"
       id="h"
       gradientUnits="userSpaceOnUse"
       gradientTransform="translate(-384.57,-499.8)"
       x1="418.17001"
       y1="503.07999"
       x2="384.57001"
       y2="531.46002" />
    <linearGradient
       id="b"
       y1="503.07999"
       x1="418.17001"
       y2="531.46002"
       x2="384.57001"
       gradientUnits="userSpaceOnUse"
       gradientTransform="translate(-384.57,-499.8)">
      <stop
         stop-color="#4ce0c6"
         id="stop17" />
      <stop
         offset="1"
         stop-color="#3b85b5"
         id="stop19" />
    </linearGradient>
    <linearGradient
       xlink:href="#c"
       id="i"
       gradientUnits="userSpaceOnUse"
       gradientTransform="translate(-384.57,-499.8)"
       x1="404.04999"
       y1="521.63"
       x2="430.73999"
       y2="528.34998" />
    <linearGradient
       id="c"
       y1="521.63"
       x1="404.04999"
       y2="528.34998"
       x2="430.73999"
       gradientUnits="userSpaceOnUse"
       gradientTransform="translate(-444.57,-499.8)">
      <stop
         stop-color="#cc4a5e"
         id="stop12" />
      <stop
         offset="1"
         stop-color="#aa478a"
         id="stop14" />
    </linearGradient>
    <linearGradient
       xlink:href="#a"
       id="j"
       gradientUnits="userSpaceOnUse"
       gradientTransform="translate(-384.57,-499.8)"
       x1="398.09"
       y1="542.21997"
       x2="394"
       y2="524.90002" />
    <linearGradient
       id="a"
       y1="542.21997"
       x1="398.09"
       y2="524.90002"
       x2="394"
       gradientUnits="userSpaceOnUse"
       gradientTransform="translate(-384.57,-499.8)">
      <stop
         stop-color="#334545"
         id="stop2-3" />
      <stop
         offset="1"
         stop-color="#536161"
         id="stop4-8" />
    </linearGradient>
    <linearGradient
       xlink:href="#a"
       id="k"
       y1="568.79999"
       x1="431.57001"
       y2="562.79999"
       x2="439.57001"
       gradientUnits="userSpaceOnUse"
       gradientTransform="matrix(-1,0,0,1,454.57,-539.8)" />
    <linearGradient
       xlink:href="#a"
       id="l"
       y1="572.33002"
       x1="423.04999"
       y2="566.77002"
       x2="431.22"
       gradientUnits="userSpaceOnUse"
       gradientTransform="matrix(-1,0,0,1,454.57,-539.8)" />
    <linearGradient
       xlink:href="#a"
       id="m"
       y1="577.09998"
       x1="431.31"
       y2="571.45001"
       x2="440.63"
       gradientUnits="userSpaceOnUse"
       gradientTransform="matrix(-1,0,0,1,454.57,-539.8)" />
    <linearGradient
       xlink:href="#a"
       id="n"
       y1="577.35999"
       x1="430.57001"
       y2="591.33002"
       x2="423.75"
       gradientUnits="userSpaceOnUse"
       gradientTransform="matrix(-1,0,0,1,454.57,-539.8)" />
    <linearGradient
       xlink:href="#a"
       id="o"
       y1="586.48999"
       x1="431.31"
       y2="582.07001"
       x2="439.57001"
       gradientUnits="userSpaceOnUse"
       gradientTransform="matrix(-1,0,0,1,454.57,-539.8)" />
    <linearGradient
       xlink:href="#g"
       id="p"
       x1="15"
       y1="11"
       x2="35"
       y2="31"
       gradientUnits="userSpaceOnUse"
       gradientTransform="matrix(0.99076331,0,0,0.99412703,2.8668464,1.9603095)" />
    <linearGradient
       id="g"
       gradientUnits="userSpaceOnUse"
       x1="393.57101"
       x2="407.57101"
       y1="522.79797"
       y2="536.79797"
       gradientTransform="translate(-384.571,-515.798)">
      <stop
         offset="0"
         stop-color="#292c2f"
         id="stop40" />
      <stop
         offset="1"
         stop-opacity="0"
         id="stop42" />
    </linearGradient>
    <linearGradient
       xlink:href="#f"
       id="q"
       x1="13"
       y1="35"
       x2="13"
       y2="13"
       gradientUnits="userSpaceOnUse"
       gradientTransform="matrix(1.1921996,0,0,1,-0.52759191,0.25189546)" />
    <linearGradient
       id="f"
       gradientUnits="userSpaceOnUse"
       x2="0"
       y1="536.79797"
       y2="522.79797"
       gradientTransform="matrix(1.6087,0,0,1.6087,-620.396,-848.24)">
      <stop
         offset="0"
         stop-color="#eff0f1"
         id="stop35" />
      <stop
         offset="1"
         stop-color="#fcfcfc"
         id="stop37" />
    </linearGradient>
  </defs>
  <g
     id="g884"
     transform="matrix(0.90299024,0,0,1.1029267,3.3912843,-2.8951292)">
    <path
       d="M 6,4 A 5.983,5.983 0 0 0 0.47,7.66 6.01,6.01 0 0 0 0,10 V 38 A 5.983,5.983 0 0 0 3.66,43.53 6.01,6.01 0 0 0 6,44 H 42 A 5.983,5.983 0 0 0 47.53,40.34 6.01,6.01 0 0 0 48,38 V 10 A 5.983,5.983 0 0 0 44.34,4.47 6.01,6.01 0 0 0 42,4 Z"
       id="path49"
       style="fill:url(#h)" />
    <path
       d="m 46.79,41.441 c 0.258,-0.36 0.564,-0.686 0.74,-1.101 A 6.01,6.01 0 0 0 48,38 V 10 A 5.983,5.983 0 0 0 46.246,5.754 C 46.078,5.586 45.842,5.503 45.654,5.355 L 14.971,23.07 Z"
       id="path51"
       style="fill:url(#i)" />
    <path
       d="M 0,31.66 V 38 A 5.983,5.983 0 0 0 3.66,43.53 6.01,6.01 0 0 0 6,44 h 36 a 5.983,5.983 0 0 0 4.246,-1.754 c 0.257,-0.257 0.402,-0.604 0.61,-0.904 L 15,23 Z"
       id="path53"
       style="fill:url(#j)" />
    <path
       d="m 23.26,27.77 -8.259,-4.768 v 9.536 z"
       id="path55"
       style="fill:url(#k)" />
    <path
       d="m 31.52,32.53 -8.259,-4.768 v 9.536 z"
       id="path57"
       style="fill:url(#l)" />
    <path
       d="m 15,32.53 v 9.536 l 8.259,-4.768 z"
       id="path59"
       style="fill:url(#m)" />
    <path
       d="M 31.518,32.535 15,42.072 18.34,44 h 13.178 z"
       id="path61"
       style="fill:url(#n)" />
    <path
       d="M 15,41.928 V 44 h 3.59 z"
       id="path63"
       style="fill:url(#o)" />
    <path
       d="M 48,13.316 V 10 A 5.983,5.983 0 0 0 46.246,5.754 C 46.078,5.586 45.842,5.503 45.654,5.355 L 14.971,23.07 Z"
       id="path65"
       style="fill:#aa478a" />
    <path
       d="M 24,39 H 0.201 c 0.08,0.453 0.096,0.929 0.27,1.34 A 5.983,5.983 0 0 0 3.661,43.53 6.01,6.01 0 0 0 6,44 h 18 z"
       id="path67"
       style="fill:#ffffff;fill-opacity:0.784;paint-order:stroke fill markers" />
    <path
       d="m 24,39 v 5 h 18 a 5.983,5.983 0 0 0 5.53,-3.66 c 0.172,-0.411 0.19,-0.887 0.269,-1.34 z"
       id="path69"
       style="fill:#31363b;fill-opacity:0.863;paint-order:stroke fill markers" />
    <path
       d="m 40.116,40.035 a 2.332,2.332 0 0 1 -0.351,0.196 l 0.047,0.187 c 0.093,-0.029 0.177,-0.079 0.28,-0.145 v 1.69 h 0.23 v -1.928 z m 0.623,0.13 0.076,0.192 a 0.597,0.597 0 0 1 0.43,-0.158 c 0.22,0 0.342,0.12 0.342,0.335 v 0.013 c -0.003,0.15 -0.1,0.3 -0.251,0.465 l -0.666,0.74 0.03,0.211 h 1.127 l 0.016,-0.198 h -0.896 l 0.544,-0.582 c 0.212,-0.227 0.341,-0.412 0.344,-0.654 v -0.008 c 0,-0.317 -0.222,-0.526 -0.573,-0.526 -0.251,0 -0.415,0.069 -0.523,0.17 M 42.184,42 h 0.267 v -0.302 h -0.267 z m 0,-1.184 h 0.267 v -0.3 h -0.267 z m 1.504,0.62 c 0,0.235 -0.171,0.364 -0.425,0.364 a 0.666,0.666 0 0 1 -0.428,-0.14 l -0.074,0.187 c 0.072,0.069 0.254,0.148 0.505,0.148 0.375,0 0.648,-0.214 0.648,-0.558 0,-0.272 -0.15,-0.446 -0.386,-0.499 0.209,-0.063 0.339,-0.214 0.339,-0.462 0,-0.31 -0.267,-0.478 -0.553,-0.478 -0.267,0 -0.438,0.058 -0.555,0.147 l 0.074,0.188 a 0.694,0.694 0 0 1 0.43,-0.138 c 0.228,0 0.355,0.096 0.355,0.31 0,0.304 -0.28,0.338 -0.576,0.338 v 0.19 c 0.36,0 0.644,0.056 0.644,0.401 m 1.377,-1.107 v 0.972 h -0.645 z m 0.435,1.16 0.02,-0.188 h -0.239 v -1.263 h -0.24 l -0.848,1.253 v 0.198 h 0.872 v 0.479 h 0.216 v -0.479 z"
       id="path71"
       style="fill:#f9f9f9" />
    <path
       d="m 2.501,39.998 a 0.167,0.167 0 0 0 -0.166,0.167 0.167,0.167 0 0 0 0.166,0.167 0.167,0.167 0 0 0 0.167,-0.167 0.167,0.167 0 0 0 -0.167,-0.167 m 0.833,0 -0.323,0.26 0.432,0.536 -0.406,0.406 0.297,0.297 0.667,-0.667 z m -1.083,0.667 a 0.25,0.25 0 0 0 -0.25,0.25 0.25,0.25 0 0 0 0.25,0.25 0.25,0.25 0 0 0 0.25,-0.25 0.25,0.25 0 0 0 -0.25,-0.25 m 0.5,0.833 a 0.25,0.25 0 0 0 -0.25,0.25 0.25,0.25 0 0 0 0.25,0.25 0.25,0.25 0 0 0 0.25,-0.25 0.25,0.25 0 0 0 -0.25,-0.25"
       id="path73"
       style="color:#000000" />
    <path
       d="m 1.588,42 c 0.066,0.073 0.096,0.176 0.166,0.246 A 5.983,5.983 0 0 0 6,44 h 36 a 5.983,5.983 0 0 0 4.246,-1.754 c 0.07,-0.07 0.1,-0.173 0.166,-0.246 z"
       id="path75"
       style="fill-opacity:0.11" />
    <path
       d="m 46.206797,45.447402 a 5.9277369,5.947862 0 0 0 0.02576,-0.006 5.9277369,5.947862 0 0 0 0.556809,-0.203796 5.9277369,5.947862 0 0 0 0.535012,-0.256485 5.9277369,5.947862 0 0 0 0.504298,-0.308179 5.9277369,5.947862 0 0 0 0.471604,-0.35888 5.9277369,5.947862 0 0 0 0.435936,-0.40461 5.9277369,5.947862 0 0 0 0.392342,-0.446363 5.9277369,5.947862 0 0 0 0.346767,-0.481158 5.9277369,5.947862 0 0 0 0.296238,-0.514957 5.9277369,5.947862 0 0 0 0.185273,-0.403616 5.9544875,5.9747035 0 0 0 0.203106,-0.561682 5.9544875,5.9747035 0 0 0 0.147624,-0.578582 5.9544875,5.9747035 0 0 0 0.08719,-0.589517 5.9544875,5.9747035 0 0 0 0.02873,-0.596476 v -5.964762 l -12.879923,-12.923652 -5.94458,1.727793 -9.344879,-9.374618 -2.54428,1.682063 9.907633,9.94127 v 3.976508 z M 33.245631,45.701899 H 43.944884 L 20.166565,21.84285 l -3.67276,3.334302 6.188308,6.209318 -0.929336,2.783555 z"
       id="path77"
       style="opacity:0.2;fill:url(#p);stroke-width:0.992444" />
    <path
       d="m 21.528105,13.201898 c -0.990718,0 -1.7883,0.669001 -1.7883,1.500001 0,0.831 0.797582,1.5 1.7883,1.5 0.990718,0 1.788301,-0.669 1.788301,-1.5 0,-0.831 -0.797583,-1.500001 -1.788301,-1.500001 m 10.133699,0.100001 -3.576599,3 5.960999,5.000001 -5.960999,5.000001 3.576599,3.000001 9.537599,-8.000002 z M 17.951506,21.3019 a 2.9745387,2.4950006 0 0 0 -2.9805,2.500001 c 0,1.385 1.329302,2.5 2.9805,2.5 1.651196,0 2.980499,-1.115 2.980499,-2.5 0,-1.385 -1.329303,-2.500001 -2.980499,-2.500001 m 6.557099,8.000002 c -1.981436,0 -3.5766,1.338 -3.5766,3.000001 0,1.662 1.595164,3.000001 3.5766,3.000001 1.981436,0 3.5766,-1.338001 3.5766,-3.000001 0,-1.662001 -1.595164,-3.000001 -3.5766,-3.000001"
       style="color:#4d4d4d;overflow:visible;isolation:auto;mix-blend-mode:normal;solid-color:#000000;solid-opacity:1;fill:url(#q);stroke-width:1.09188"
       overflow="visible"
       id="path79" />
  </g>
  <path
     style="display:inline;mix-blend-mode:normal;fill:url(#linearGradient3403);fill-opacity:1;stroke:url(#linearGradient20558);stroke-width:1.16242;stroke-linecap:butt;stroke-linejoin:round;stroke-miterlimit:4;stroke-dasharray:none;stroke-opacity:1;filter:url(#filter20720)"
     d="M 4.7043071,3.9814882 4.6913695,60.80196 H 58.59546 l 1.022155,-2.866369 c 0,0 -23.87537,0.766388 -32.844441,-4.140386 C 16.257548,48.042344 11.401114,4.0978197 11.401114,4.0978197 Z"
     id="path1686"
     transform="matrix(0.7518797,0,0,0.7518797,0.09970467,0.02488636)" />
  <rect
     style="display:inline;fill:none;fill-opacity:1;stroke:url(#linearGradient4557);stroke-width:3.71366;stroke-linejoin:round;stroke-miterlimit:7.8;stroke-dasharray:none;stroke-opacity:0.995146;filter:url(#filter4601)"
     id="rect4539"
     width="62.566689"
     height="62.866646"
     x="1.0323594"
     y="0.59551275"
     ry="6.2447233"
     rx="5.8029528"
     transform="matrix(0.70434793,0,0,0.70291231,1.3629847,1.5442064)" />
</svg>
