<?xml version="1.0" encoding="UTF-8" standalone="no"?>
<!-- Created with Inkscape (http://www.inkscape.org/) -->

<svg
  width="48"
  height="48"
  version="1.1"
  viewBox="0 0 48 48"
  id="svg22"
  xmlns:xlink="http://www.w3.org/1999/xlink"
  xmlns="http://www.w3.org/2000/svg"
  xmlns:svg="http://www.w3.org/2000/svg">
 <defs
   id="defs12">
  <linearGradient
    id="linearGradient1005-3-3"
    x1="5.2535"
    x2="9.3823996"
    y1="15.383"
    y2="2.9421"
    gradientTransform="matrix(0.99999,0,0,0.99999,1.632,-0.61743)"
    gradientUnits="userSpaceOnUse">
   <stop
     stop-color="#fa8200"
     offset="0"
     id="stop2" />
   <stop
     stop-color="#ff9600"
     offset=".36953"
     id="stop4" />
   <stop
     stop-color="#ffb400"
     offset="1"
     id="stop6" />
  </linearGradient>
  <filter
    id="filter4014"
    x="-0.062499932"
    y="-0.057692992"
    width="1.1249999"
    height="1.115386"
    color-interpolation-filters="sRGB">
   <feGaussianBlur
     stdDeviation="1.093751"
     id="feGaussianBlur9" />
  </filter>
  <linearGradient
    xlink:href="#linearGradient3487"
    id="linearGradient3403"
    gradientUnits="userSpaceOnUse"
    x1="6.9491749"
    y1="4.5549412"
    x2="11.215498"
    y2="59.052471" />
  <linearGradient
    id="linearGradient3487">
   <stop
     style="stop-color:#32373c;stop-opacity:1"
     offset="0"
     id="stop3481" />
   <stop
     id="stop3483"
     offset="0.36804965"
     style="stop-color:#1a1a1a;stop-opacity:1" />
   <stop
     style="stop-color:#31363b;stop-opacity:1"
     offset="1"
     id="stop3485" />
  </linearGradient>
  <linearGradient
    xlink:href="#linearGradient20604"
    id="linearGradient20558"
    gradientUnits="userSpaceOnUse"
    x1="25.802212"
    y1="20.373846"
    x2="25.111048"
    y2="58.912758" />
  <linearGradient
    id="linearGradient20604">
   <stop
     id="stop20598"
     offset="0"
     style="stop-color:#3d3d3d;stop-opacity:1" />
   <stop
     style="stop-color:#000000;stop-opacity:1"
     offset="0.61772454"
     id="stop20600" />
   <stop
     id="stop20602"
     offset="1"
     style="stop-color:#3d3d3d;stop-opacity:1" />
  </linearGradient>
  <linearGradient
    gradientTransform="translate(0.36067797,-0.13016949)"
    xlink:href="#linearGradient4555"
    id="linearGradient4557"
    x1="43.499737"
    y1="64.011795"
    x2="44.141731"
    y2="0.30621234"
    gradientUnits="userSpaceOnUse" />
  <linearGradient
    id="linearGradient4555">
   <stop
     style="stop-color:#141618;stop-opacity:1"
     offset="0"
     id="stop4551" />
   <stop
     id="stop4559"
     offset="0.51820582"
     style="stop-color:#686868;stop-opacity:1" />
   <stop
     style="stop-color:#31363b;stop-opacity:1"
     offset="1"
     id="stop4553" />
  </linearGradient>
  <filter
    style="color-interpolation-filters:sRGB"
    id="filter4601"
    x="-0.02967764"
    width="1.0593553"
    y="-0.029536039"
    height="1.0590721">
   <feGaussianBlur
     stdDeviation="6.9756619e-07"
     id="feGaussianBlur4603" />
  </filter>
  <linearGradient
    id="k"
    y1="536.79999"
    y2="503.79999"
    x2="0"
    gradientUnits="userSpaceOnUse"
    gradientTransform="translate(-384.57,-499.8)">
   <stop
     stop-color="#2a2c2f"
     id="stop32" />
   <stop
     offset="1"
     stop-color="#424649"
     id="stop34" />
  </linearGradient>
  <linearGradient
    xlink:href="#h"
    id="l"
    x1="2.0039999"
    y1="31"
    x2="2"
    y2="6"
    gradientUnits="userSpaceOnUse" />
  <linearGradient
    id="h"
    gradientTransform="matrix(1.25,0,0,1.13333,-484.714,-607.238)"
    gradientUnits="userSpaceOnUse"
    x1="400.57101"
    x2="400.57101"
    y1="535.79797"
    y2="520.79797">
   <stop
     offset="0"
     stop-color="#232629"
     id="stop48" />
   <stop
     offset="1"
     stop-color="#292c30"
     id="stop50" />
  </linearGradient>
  <linearGradient
    id="n"
    gradientUnits="userSpaceOnUse"
    x1="391.23801"
    x2="397.07101"
    xlink:href="#i"
    y1="521.20898"
    y2="527.29797"
    gradientTransform="matrix(1.5,0,0,1.5,-574.856,-772.813)" />
  <linearGradient
    id="i">
   <stop
     offset="0"
     id="stop54" />
   <stop
     offset="1"
     stop-opacity="0"
     id="stop56" />
  </linearGradient>
  <linearGradient
    id="o"
    gradientUnits="userSpaceOnUse"
    x1="386.57101"
    x2="389.57101"
    xlink:href="#i"
    y1="520.90601"
    y2="523.79797"
    gradientTransform="matrix(1.5,0,0,1.5,-574.856,-772.813)" />
  <linearGradient
    xlink:href="#i"
    id="p"
    gradientUnits="userSpaceOnUse"
    gradientTransform="matrix(1.5,0,0,1.5,-574.856,-768.813)"
    x1="386.57101"
    y1="520.90601"
    x2="389.57101"
    y2="523.79797" />
  <linearGradient
    xlink:href="#i"
    id="q"
    gradientUnits="userSpaceOnUse"
    gradientTransform="matrix(1.5,0,0,1.5,-574.856,-764.813)"
    x1="386.57101"
    y1="520.90601"
    x2="389.57101"
    y2="523.79797" />
  <linearGradient
    xlink:href="#i"
    id="r"
    gradientUnits="userSpaceOnUse"
    gradientTransform="matrix(1.5,0,0,1.5,-574.856,-752.813)"
    x1="386.57101"
    y1="520.90601"
    x2="389.57101"
    y2="523.79797" />
  <linearGradient
    xlink:href="#i"
    id="s"
    gradientUnits="userSpaceOnUse"
    gradientTransform="matrix(1.5,0,0,1.5,-574.856,-760.813)"
    x1="386.57101"
    y1="520.90601"
    x2="389.57101"
    y2="523.79797" />
  <linearGradient
    xlink:href="#i"
    id="t"
    gradientUnits="userSpaceOnUse"
    gradientTransform="matrix(1.5,0,0,1.5,-574.856,-756.813)"
    x1="386.57101"
    y1="520.90601"
    x2="389.57101"
    y2="523.79797" />
  <linearGradient
    xlink:href="#i"
    id="u"
    gradientUnits="userSpaceOnUse"
    gradientTransform="matrix(1.5,0,0,1.5,-574.856,-756.813)"
    x1="391.23801"
    y1="521.20898"
    x2="397.07101"
    y2="527.29797" />
  <linearGradient
    xlink:href="#i"
    id="v"
    gradientUnits="userSpaceOnUse"
    gradientTransform="matrix(1.5,0,0,1.5,-574.856,-768.813)"
    x1="391.23801"
    y1="521.20898"
    x2="397.07101"
    y2="527.29797" />
  <linearGradient
    xlink:href="#i"
    id="w"
    gradientUnits="userSpaceOnUse"
    gradientTransform="matrix(1.5,0,0,1.5,-574.856,-764.813)"
    x1="391.23801"
    y1="521.20898"
    x2="397.07101"
    y2="527.29797" />
  <linearGradient
    xlink:href="#i"
    id="x"
    gradientUnits="userSpaceOnUse"
    gradientTransform="matrix(1.5,0,0,1.5,-574.856,-760.813)"
    x1="391.23801"
    y1="521.20898"
    x2="397.07101"
    y2="527.29797" />
  <linearGradient
    xlink:href="#i"
    id="y"
    gradientUnits="userSpaceOnUse"
    gradientTransform="matrix(1.5,0,0,1.5,-574.856,-752.813)"
    x1="391.23801"
    y1="521.20898"
    x2="397.07101"
    y2="527.29797" />
  <linearGradient
    xlink:href="#b"
    id="z"
    x1="12"
    y1="29"
    x2="12"
    y2="7"
    gradientUnits="userSpaceOnUse" />
  <linearGradient
    id="b">
   <stop
     stop-color="#c6cdd1"
     id="stop22" />
   <stop
     offset="1"
     stop-color="#e0e5e7"
     id="stop24" />
  </linearGradient>
 </defs>
 <g
   id="g1245"
   transform="matrix(0.88232898,0,0,1.2022827,3.6270502,-2.3506631)">
  <rect
    height="36"
    y="4"
    width="48"
    ry="5"
    rx="5"
    id="rect76"
    style="fill:url(#k)"
    x="0" />
  <path
    d="M 2.004,31 H 45.998 V 8.982 A 2.985,2.985 0 0 0 45.128,6.877 3.003,3.003 0 0 0 43.004,6.002 h -38 a 2.987,2.987 0 0 0 -3,2.988 V 31 Z"
    id="path80"
    style="fill:url(#l)" />
  <path
    d="m 12,9 2,2 H 26 L 29,9.884 26,7 Z"
    id="path84"
    style="opacity:0.2;fill:url(#n)" />
  <path
    d="m 5,9 3,2 h 2 L 11,11.384 13,10 10,7 Z"
    id="path86"
    style="opacity:0.2;fill:url(#o)" />
  <path
    d="m 2,31 h 44 v 2 H 2 Z"
    id="path88"
    style="fill:#333639" />
  <path
    d="m 5,13 3,2 h 2 L 11,15.384 13,14 10,11 Z"
    id="path90"
    style="opacity:0.2;fill:url(#p)" />
  <path
    d="m 5,17 3,2 h 2 L 11,19.384 13,18 10,15 Z"
    id="path92"
    style="opacity:0.2;fill:url(#q)" />
  <path
    d="m 5,29 3,2 h 2 L 11,31.384 13,30 10,27 Z"
    id="path94"
    style="opacity:0.2;fill:url(#r)" />
  <path
    d="m 5,21 3,2 h 2 L 11,23.384 13,22 10,19 Z"
    id="path96"
    style="opacity:0.2;fill:url(#s)" />
  <path
    d="m 5,25 3,2 h 2 L 11,27.384 13,26 10,23 Z"
    id="path98"
    style="opacity:0.2;fill:url(#t)" />
  <path
    d="m 12,25 2,2 H 26 L 29,25.884 26,23 Z"
    id="path100"
    style="opacity:0.2;fill:url(#u)" />
  <path
    d="m 5,7 v 2 h 5 V 7 Z m 0,4 v 2 h 5 v -2 z m 0,4 v 2 h 5 v -2 z m 0,4 v 2 h 5 v -2 z m 0,4 v 2 h 5 v -2 z m 0,4 v 2 h 5 v -2 z"
    id="path102"
    style="fill:#11d116;paint-order:stroke fill markers" />
  <path
    d="m 12,13 2,2 h 9 l 3,-1 -3,-3 z"
    id="path104"
    style="opacity:0.2;fill:url(#v)" />
  <path
    d="m 12,17 2,2 h 6 l 3,-1 -3,-3 z"
    id="path106"
    style="opacity:0.2;fill:url(#w)" />
  <path
    d="m 12,21 2,2 h 9 l 3,-1 -3,-3 z"
    id="path108"
    style="opacity:0.2;fill:url(#x)" />
  <path
    d="m 12,29 2,2 h 6 l 3,-1 -3,-3 z"
    id="path110"
    style="opacity:0.2;fill:url(#y)" />
  <path
    d="M 12,7 V 9 H 26 V 7 Z m 0,4 v 2 h 11 v -2 z m 0,4 v 2 h 8 v -2 z m 0,4 v 2 h 11 v -2 z m 0,4 v 2 h 14 v -2 z m 0,4 v 2 h 8 v -2 z"
    id="path112"
    style="fill:url(#z);paint-order:stroke fill markers" />
 </g>
 <path
   style="display:inline;mix-blend-mode:normal;fill:url(#linearGradient3403);fill-opacity:1;stroke:url(#linearGradient20558);stroke-width:1.16242;stroke-linecap:butt;stroke-linejoin:round;stroke-miterlimit:4;stroke-dasharray:none;stroke-opacity:1"
   d="M 4.7043071,3.9814882 4.6913695,60.80196 H 58.59546 l 1.022155,-2.866369 c 0,0 -23.87537,0.766388 -32.844441,-4.140386 C 16.257548,48.042344 11.401114,4.0978197 11.401114,4.0978197 Z"
   id="path1686"
   transform="matrix(0.7518797,0,0,0.7518797,0.09970467,0.02488636)" />
 <rect
   style="display:inline;fill:none;fill-opacity:1;stroke:url(#linearGradient4557);stroke-width:3.71366;stroke-linejoin:round;stroke-miterlimit:7.8;stroke-dasharray:none;stroke-opacity:0.995146"
   id="rect4539"
   width="62.566689"
   height="62.866646"
   x="1.0323594"
   y="0.59551275"
   ry="6.2447233"
   rx="5.8029528"
   transform="matrix(0.70434793,0,0,0.70291231,1.3629847,1.5442064)" />
</svg>
