<?xml version="1.0" encoding="UTF-8" standalone="no"?>
<!-- Created with Inkscape (http://www.inkscape.org/) -->

<svg
  width="48"
  height="48"
  version="1.1"
  viewBox="0 0 48 48"
  id="svg22"
  xmlns:xlink="http://www.w3.org/1999/xlink"
  xmlns="http://www.w3.org/2000/svg"
  xmlns:svg="http://www.w3.org/2000/svg">
 <defs
   id="defs12">
  <linearGradient
    id="linearGradient1005-3-3"
    x1="5.2535"
    x2="9.3823996"
    y1="15.383"
    y2="2.9421"
    gradientTransform="matrix(0.99999,0,0,0.99999,1.632,-0.61743)"
    gradientUnits="userSpaceOnUse">
   <stop
     stop-color="#fa8200"
     offset="0"
     id="stop2" />
   <stop
     stop-color="#ff9600"
     offset=".36953"
     id="stop4" />
   <stop
     stop-color="#ffb400"
     offset="1"
     id="stop6" />
  </linearGradient>
  <filter
    id="filter4014"
    x="-0.062499932"
    y="-0.057692992"
    width="1.1249999"
    height="1.115386"
    color-interpolation-filters="sRGB">
   <feGaussianBlur
     stdDeviation="1.093751"
     id="feGaussianBlur9" />
  </filter>
  <linearGradient
    xlink:href="#linearGradient3487"
    id="linearGradient3403"
    gradientUnits="userSpaceOnUse"
    x1="6.9491749"
    y1="4.5549412"
    x2="11.215498"
    y2="59.052471" />
  <linearGradient
    id="linearGradient3487">
   <stop
     style="stop-color:#32373c;stop-opacity:1"
     offset="0"
     id="stop3481" />
   <stop
     id="stop3483"
     offset="0.36804965"
     style="stop-color:#1a1a1a;stop-opacity:1" />
   <stop
     style="stop-color:#31363b;stop-opacity:1"
     offset="1"
     id="stop3485" />
  </linearGradient>
  <linearGradient
    xlink:href="#linearGradient20604"
    id="linearGradient20558"
    gradientUnits="userSpaceOnUse"
    x1="25.802212"
    y1="20.373846"
    x2="25.111048"
    y2="58.912758" />
  <linearGradient
    id="linearGradient20604">
   <stop
     id="stop20598"
     offset="0"
     style="stop-color:#3d3d3d;stop-opacity:1" />
   <stop
     style="stop-color:#000000;stop-opacity:1"
     offset="0.61772454"
     id="stop20600" />
   <stop
     id="stop20602"
     offset="1"
     style="stop-color:#3d3d3d;stop-opacity:1" />
  </linearGradient>
  <linearGradient
    gradientTransform="translate(0.36067797,-0.13016949)"
    xlink:href="#linearGradient4555"
    id="linearGradient4557"
    x1="43.499737"
    y1="64.011795"
    x2="44.141731"
    y2="0.30621234"
    gradientUnits="userSpaceOnUse" />
  <linearGradient
    id="linearGradient4555">
   <stop
     style="stop-color:#141618;stop-opacity:1"
     offset="0"
     id="stop4551" />
   <stop
     id="stop4559"
     offset="0.51820582"
     style="stop-color:#686868;stop-opacity:1" />
   <stop
     style="stop-color:#31363b;stop-opacity:1"
     offset="1"
     id="stop4553" />
  </linearGradient>
  <filter
    style="color-interpolation-filters:sRGB"
    id="filter4601"
    x="-0.029737563"
    width="1.0594751"
    y="-0.029595676"
    height="1.0591914">
   <feGaussianBlur
     stdDeviation="0.0015628583"
     id="feGaussianBlur4603" />
  </filter>
  <linearGradient
    id="n"
    gradientTransform="matrix(1.5078875,0.40403723,0.40403723,-1.5078875,-29.885987,40.491889)"
    gradientUnits="userSpaceOnUse"
    x1="8"
    x2="24"
    xlink:href="#i"
    y1="24"
    y2="8" />
  <linearGradient
    id="i">
   <stop
     offset="0"
     stop-color="#e51561"
     id="stop43" />
   <stop
     offset=".312"
     stop-color="#e4156c"
     id="stop45" />
   <stop
     offset=".562"
     stop-color="#e71e2c"
     id="stop47" />
   <stop
     offset=".75"
     stop-color="#e8301e"
     id="stop49" />
   <stop
     offset="1"
     stop-color="#e6320e"
     id="stop51" />
  </linearGradient>
  <linearGradient
    xlink:href="#j"
    id="o"
    gradientUnits="userSpaceOnUse"
    gradientTransform="matrix(-1.5078875,-0.40403723,-0.40403723,1.5078875,61.885387,-12.491783)"
    x1="8"
    y1="24"
    x2="24"
    y2="8" />
  <linearGradient
    id="j">
   <stop
     offset="0"
     stop-color="#bec900"
     id="stop55" />
   <stop
     offset=".312"
     stop-color="#9ec80a"
     id="stop57" />
   <stop
     offset=".562"
     stop-color="#71b93d"
     id="stop59" />
   <stop
     offset=".75"
     stop-color="#35a48f"
     id="stop61" />
   <stop
     offset="1"
     stop-color="#018fca"
     id="stop63" />
  </linearGradient>
  <linearGradient
    xlink:href="#k"
    id="p"
    gradientUnits="userSpaceOnUse"
    gradientTransform="matrix(-1.5078875,-0.40403723,0.40403723,-1.5078875,42.491765,59.885565)"
    x1="8"
    y1="24"
    x2="24"
    y2="8" />
  <linearGradient
    id="k">
   <stop
     offset="0"
     stop-color="#c1cc00"
     id="stop67" />
   <stop
     offset=".312"
     stop-color="#dfcd00"
     id="stop69" />
   <stop
     offset=".562"
     stop-color="#f0cc00"
     id="stop71" />
   <stop
     offset=".75"
     stop-color="#fd8c08"
     id="stop73" />
   <stop
     offset="1"
     stop-color="#f25c13"
     id="stop75" />
  </linearGradient>
  <linearGradient
    xlink:href="#j"
    id="q"
    gradientUnits="userSpaceOnUse"
    gradientTransform="matrix(-0.40403723,-1.5078875,-1.5078875,0.40403723,61.886107,40.491385)"
    x1="8"
    y1="24"
    x2="24"
    y2="8" />
  <linearGradient
    xlink:href="#j"
    id="r"
    gradientUnits="userSpaceOnUse"
    gradientTransform="matrix(-1.1038503,-1.1038503,-1.1038503,1.1038503,68.985328,13.999832)"
    x1="8"
    y1="24"
    x2="24"
    y2="8" />
  <linearGradient
    id="s"
    gradientTransform="matrix(0.40403723,1.5078875,-1.5078875,0.40403723,42.492937,-31.886741)"
    gradientUnits="userSpaceOnUse"
    x1="8"
    x2="24"
    xlink:href="#l"
    y1="24"
    y2="8" />
  <linearGradient
    id="l">
   <stop
     offset="0"
     stop-color="#e81877"
     id="stop81" />
   <stop
     offset=".312"
     stop-color="#dd1d8c"
     id="stop83" />
   <stop
     offset=".562"
     stop-color="#6d57b1"
     id="stop85" />
   <stop
     offset=".75"
     stop-color="#2a78c1"
     id="stop87" />
   <stop
     offset="1"
     stop-color="#018dcb"
     id="stop89" />
  </linearGradient>
  <linearGradient
    xlink:href="#l"
    id="t"
    gradientUnits="userSpaceOnUse"
    gradientTransform="matrix(1.5078875,0.40403723,-0.40403723,1.5078875,-10.491907,-31.885809)"
    x1="8"
    y1="24"
    x2="24"
    y2="8" />
  <linearGradient
    id="v"
    gradientTransform="matrix(1.1038503,1.1038503,1.1038503,-1.1038503,-36.984101,13.999751)"
    gradientUnits="userSpaceOnUse"
    x1="8"
    x2="24"
    xlink:href="#i"
    y1="24"
    y2="8" />
  <linearGradient
    id="w"
    gradientTransform="matrix(-1.1038503,-1.1038503,1.1038503,-1.1038503,15.999771,66.985322)"
    gradientUnits="userSpaceOnUse"
    x1="8"
    x2="24"
    xlink:href="#k"
    y1="24"
    y2="8" />
  <linearGradient
    id="x"
    gradientTransform="matrix(-0.40403723,-1.5078875,1.5078875,-0.40403723,-10.493176,59.886063)"
    gradientUnits="userSpaceOnUse"
    x1="8"
    x2="24"
    xlink:href="#k"
    y1="24"
    y2="8" />
  <linearGradient
    id="y"
    gradientTransform="matrix(1.1038503,1.1038503,-1.1038503,1.1038503,16.000129,-38.985727)"
    gradientUnits="userSpaceOnUse"
    x1="8"
    x2="24"
    xlink:href="#l"
    y1="24"
    y2="8" />
  <linearGradient
    xlink:href="#m"
    id="z"
    gradientUnits="userSpaceOnUse"
    gradientTransform="translate(-384.571,-515.798)"
    x1="394.57101"
    y1="523.79797"
    x2="408.57101"
    y2="537.79797" />
  <linearGradient
    id="m"
    gradientUnits="userSpaceOnUse"
    x1="394.57101"
    x2="408.57101"
    y1="523.79797"
    y2="537.79797"
    gradientTransform="translate(-344.571,-515.798)">
   <stop
     offset="0"
     stop-color="#292c2f"
     id="stop98" />
   <stop
     offset="1"
     stop-color="#292c2f"
     stop-opacity=".036"
     id="stop100" />
  </linearGradient>
  <linearGradient
    id="A"
    gradientTransform="matrix(0.99946,0,0,0.99953,-384.36,-515.548)"
    gradientUnits="userSpaceOnUse"
    x1="400.57101"
    x2="400.57101"
    y1="536.79797"
    y2="522.79797">
   <stop
     offset="0"
     stop-color="#eff0f1"
     id="stop103" />
   <stop
     offset="1"
     stop-color="#fcfcfc"
     id="stop105" />
  </linearGradient>
  <linearGradient
    xlink:href="#l"
    id="linearGradient180921"
    gradientUnits="userSpaceOnUse"
    gradientTransform="matrix(1.5078875,0.40403723,-0.40403723,1.5078875,-10.491907,-31.885809)"
    x1="8"
    y1="24"
    x2="24"
    y2="8" />
 </defs>
 <g
   transform="matrix(1.3259044,0,0,1.5612944,4.2739973,-1.0217086)"
   id="g147">
  <path
    d="m 0,9.713 v 15.289 a 5.004,5.004 0 0 0 0.025,0.498 5.004,5.004 0 0 0 0.075,0.496 5.004,5.004 0 0 0 0.123,0.484 5.004,5.004 0 0 0 0.17,0.47 5.004,5.004 0 0 0 0.216,0.45 5.004,5.004 0 0 0 0.262,0.428 5.004,5.004 0 0 0 0.303,0.399 5.004,5.004 0 0 0 0.287,0.312 4.99,4.99 0 0 0 0.37,0.334 4.99,4.99 0 0 0 0.4,0.297 4.99,4.99 0 0 0 0.43,0.254 4.99,4.99 0 0 0 0.452,0.21 4.99,4.99 0 0 0 0.471,0.165 4.99,4.99 0 0 0 0.484,0.115 4.99,4.99 0 0 0 0.495,0.068 A 4.99,4.99 0 0 0 5,30 h 6.713 L 16,14 Z"
    id="path111"
    style="fill:url(#n)" />
  <path
    d="M 32,18.287 V 7 A 5.004,5.004 0 0 0 31.977,6.5 5.004,5.004 0 0 0 31.902,6.006 5.004,5.004 0 0 0 31.779,5.521 5.004,5.004 0 0 0 31.607,5.051 5.004,5.004 0 0 0 31.391,4.6 5.004,5.004 0 0 0 31.129,4.174 5.004,5.004 0 0 0 30.829,3.775 5.004,5.004 0 0 0 30.539,3.461 4.99,4.99 0 0 0 30.169,3.127 4.99,4.99 0 0 0 29.768,2.83 4.99,4.99 0 0 0 29.34,2.576 4.99,4.99 0 0 0 28.887,2.366 4.99,4.99 0 0 0 28.416,2.203 4.99,4.99 0 0 0 27.932,2.086 4.99,4.99 0 0 0 27.438,2.02 4.99,4.99 0 0 0 27,2.002 H 19.215 L 16,14 Z"
    id="path113"
    style="fill:url(#o)" />
  <path
    d="M 11.713,30 H 27 a 5.004,5.004 0 0 0 0.5,-0.023 5.004,5.004 0 0 0 0.494,-0.075 5.004,5.004 0 0 0 0.485,-0.123 5.004,5.004 0 0 0 0.47,-0.172 5.004,5.004 0 0 0 0.451,-0.216 5.004,5.004 0 0 0 0.426,-0.26 5.004,5.004 0 0 0 0.399,-0.303 5.004,5.004 0 0 0 0.314,-0.289 4.99,4.99 0 0 0 0.336,-0.37 4.99,4.99 0 0 0 0.295,-0.401 4.99,4.99 0 0 0 0.254,-0.428 4.99,4.99 0 0 0 0.21,-0.453 4.99,4.99 0 0 0 0.165,-0.471 4.99,4.99 0 0 0 0.115,-0.484 4.99,4.99 0 0 0 0.068,-0.494 A 4.99,4.99 0 0 0 32,25 V 18.287 L 16,14 Z"
    id="path115"
    style="fill:url(#p)" />
  <path
    d="M 20.287,30 H 27 a 5.004,5.004 0 0 0 0.5,-0.023 5.004,5.004 0 0 0 0.494,-0.075 5.004,5.004 0 0 0 0.485,-0.123 5.004,5.004 0 0 0 0.47,-0.172 5.004,5.004 0 0 0 0.451,-0.216 5.004,5.004 0 0 0 0.426,-0.26 5.004,5.004 0 0 0 0.399,-0.303 5.004,5.004 0 0 0 0.314,-0.289 4.99,4.99 0 0 0 0.336,-0.37 4.99,4.99 0 0 0 0.295,-0.401 4.99,4.99 0 0 0 0.254,-0.428 4.99,4.99 0 0 0 0.21,-0.453 4.99,4.99 0 0 0 0.165,-0.471 4.99,4.99 0 0 0 0.115,-0.484 4.99,4.99 0 0 0 0.068,-0.494 A 4.99,4.99 0 0 0 32,25 V 9.713 L 16,14 Z"
    id="path117"
    style="opacity:0.3;fill:url(#q)" />
  <path
    d="m 30.54,28.54 a 4.99,4.99 0 0 0 0.335,-0.37 4.99,4.99 0 0 0 0.295,-0.402 4.99,4.99 0 0 0 0.254,-0.428 4.99,4.99 0 0 0 0.21,-0.453 4.99,4.99 0 0 0 0.165,-0.471 4.99,4.99 0 0 0 0.115,-0.484 4.99,4.99 0 0 0 0.068,-0.494 A 4.99,4.99 0 0 0 32,25 V 7 A 5.004,5.004 0 0 0 31.977,6.5 5.004,5.004 0 0 0 31.902,6.006 5.004,5.004 0 0 0 31.779,5.521 5.004,5.004 0 0 0 31.607,5.051 5.004,5.004 0 0 0 31.391,4.6 5.004,5.004 0 0 0 31.129,4.174 5.004,5.004 0 0 0 30.829,3.775 5.004,5.004 0 0 0 30.539,3.461 4.99,4.99 0 0 0 30.169,3.127 4.99,4.99 0 0 0 29.768,2.83 4.99,4.99 0 0 0 29.34,2.576 4.99,4.99 0 0 0 28.887,2.366 4.99,4.99 0 0 0 28.416,2.203 4.99,4.99 0 0 0 27.932,2.086 4.99,4.99 0 0 0 27.916,2.084 L 16,14 Z"
    id="path119"
    style="opacity:0.35;fill:url(#r)" />
  <path
    d="M 32,9.713 V 7 A 5.004,5.004 0 0 0 31.977,6.5 5.004,5.004 0 0 0 31.902,6.006 5.004,5.004 0 0 0 31.779,5.521 5.004,5.004 0 0 0 31.607,5.051 5.004,5.004 0 0 0 31.391,4.6 5.004,5.004 0 0 0 31.129,4.174 5.004,5.004 0 0 0 30.829,3.775 5.004,5.004 0 0 0 30.539,3.461 4.99,4.99 0 0 0 30.169,3.127 4.99,4.99 0 0 0 29.768,2.83 4.99,4.99 0 0 0 29.34,2.576 4.99,4.99 0 0 0 28.887,2.366 4.99,4.99 0 0 0 28.416,2.203 4.99,4.99 0 0 0 27.932,2.086 4.99,4.99 0 0 0 27.438,2.02 4.99,4.99 0 0 0 27,2.002 L 12.785,2 16,14 Z"
    id="path121"
    style="opacity:0.3;fill:url(#s)" />
  <path
    d="M 5,2 A 5.004,5.004 0 0 0 4.5,2.023 5.004,5.004 0 0 0 4.006,2.098 5.004,5.004 0 0 0 3.521,2.221 5.004,5.004 0 0 0 3.051,2.393 5.004,5.004 0 0 0 2.6,2.609 5.004,5.004 0 0 0 2.174,2.871 5.004,5.004 0 0 0 1.775,3.171 5.004,5.004 0 0 0 1.461,3.461 4.99,4.99 0 0 0 1.125,3.831 4.99,4.99 0 0 0 0.83,4.232 4.99,4.99 0 0 0 0.576,4.662 4.99,4.99 0 0 0 0.366,5.113 4.99,4.99 0 0 0 0.201,5.586 4.99,4.99 0 0 0 0.086,6.07 4.99,4.99 0 0 0 0.018,6.564 4.99,4.99 0 0 0 0,7.002 v 2.71 L 16,14 19.215,2.002 Z"
    id="path123"
    style="fill:url(#linearGradient180921)" />
  <path
    d="M 5,2 A 5.004,5.004 0 0 0 4.5,2.023 5.004,5.004 0 0 0 4.006,2.098 5.004,5.004 0 0 0 3.521,2.221 5.004,5.004 0 0 0 3.051,2.393 5.004,5.004 0 0 0 2.6,2.609 5.004,5.004 0 0 0 2.174,2.871 5.004,5.004 0 0 0 1.775,3.171 5.004,5.004 0 0 0 1.461,3.461 4.99,4.99 0 0 0 1.125,3.831 4.99,4.99 0 0 0 0.83,4.232 4.99,4.99 0 0 0 0.576,4.662 4.99,4.99 0 0 0 0.366,5.113 4.99,4.99 0 0 0 0.201,5.586 4.99,4.99 0 0 0 0.086,6.07 4.99,4.99 0 0 0 0.018,6.564 4.99,4.99 0 0 0 0,7.002 V 18.287 L 16,14 12.785,2 Z"
    id="path125"
    style="fill:url(#t)" />
  <path
    d="M 4.086,2.086 A 5.004,5.004 0 0 0 4.006,2.098 5.004,5.004 0 0 0 3.521,2.221 5.004,5.004 0 0 0 3.051,2.393 5.004,5.004 0 0 0 2.6,2.609 5.004,5.004 0 0 0 2.174,2.871 5.004,5.004 0 0 0 1.775,3.171 5.004,5.004 0 0 0 1.461,3.461 4.99,4.99 0 0 0 1.125,3.831 4.99,4.99 0 0 0 0.83,4.232 4.99,4.99 0 0 0 0.576,4.662 4.99,4.99 0 0 0 0.366,5.113 4.99,4.99 0 0 0 0.201,5.586 4.99,4.99 0 0 0 0.086,6.07 4.99,4.99 0 0 0 0.018,6.564 4.99,4.99 0 0 0 0,7.002 v 18 a 5.004,5.004 0 0 0 0.025,0.498 5.004,5.004 0 0 0 0.075,0.496 5.004,5.004 0 0 0 0.123,0.484 5.004,5.004 0 0 0 0.17,0.47 5.004,5.004 0 0 0 0.216,0.45 5.004,5.004 0 0 0 0.262,0.428 5.004,5.004 0 0 0 0.303,0.399 5.004,5.004 0 0 0 0.287,0.312 L 16,14 Z"
    id="path127"
    style="opacity:0.35;fill:url(#v)" />
  <path
    d="m 1.46,28.54 a 4.99,4.99 0 0 0 0.37,0.333 4.99,4.99 0 0 0 0.4,0.297 4.99,4.99 0 0 0 0.43,0.254 4.99,4.99 0 0 0 0.453,0.21 4.99,4.99 0 0 0 0.471,0.165 4.99,4.99 0 0 0 0.484,0.115 4.99,4.99 0 0 0 0.495,0.068 A 4.99,4.99 0 0 0 5,30 h 22 a 5.004,5.004 0 0 0 0.5,-0.023 5.004,5.004 0 0 0 0.494,-0.075 5.004,5.004 0 0 0 0.485,-0.123 5.004,5.004 0 0 0 0.47,-0.172 5.004,5.004 0 0 0 0.451,-0.216 5.004,5.004 0 0 0 0.426,-0.26 5.004,5.004 0 0 0 0.399,-0.303 5.004,5.004 0 0 0 0.314,-0.289 L 16,14 Z"
    id="path129"
    style="opacity:0.35;fill:url(#w)" />
  <path
    d="m 0,18.287 v 6.715 a 5.004,5.004 0 0 0 0.025,0.498 5.004,5.004 0 0 0 0.075,0.496 5.004,5.004 0 0 0 0.123,0.484 5.004,5.004 0 0 0 0.17,0.47 5.004,5.004 0 0 0 0.216,0.45 5.004,5.004 0 0 0 0.262,0.428 5.004,5.004 0 0 0 0.303,0.399 5.004,5.004 0 0 0 0.287,0.312 4.99,4.99 0 0 0 0.37,0.334 4.99,4.99 0 0 0 0.4,0.297 4.99,4.99 0 0 0 0.43,0.254 4.99,4.99 0 0 0 0.452,0.21 4.99,4.99 0 0 0 0.471,0.165 4.99,4.99 0 0 0 0.484,0.115 4.99,4.99 0 0 0 0.495,0.068 A 4.99,4.99 0 0 0 5,30 H 20.287 L 16,14 Z"
    id="path131"
    style="opacity:0.3;fill:url(#x)" />
  <path
    d="M 4,2 16,14 28,2 Z"
    id="path133"
    style="opacity:0.35;fill:url(#y)" />
  <path
    d="m 22.865,7.137 a 1.75,7.875 44.998 0 1 -4.332,6.804 1.75,7.875 44.998 0 1 -3.545,3.061 l 12.834,12.926 a 5.004,5.004 0 0 0 0.172,-0.026 5.004,5.004 0 0 0 0.485,-0.123 5.004,5.004 0 0 0 0.47,-0.172 5.004,5.004 0 0 0 0.451,-0.216 5.004,5.004 0 0 0 0.426,-0.26 5.004,5.004 0 0 0 0.399,-0.303 5.004,5.004 0 0 0 0.314,-0.289 4.99,4.99 0 0 0 0.336,-0.37 4.99,4.99 0 0 0 0.295,-0.401 4.99,4.99 0 0 0 0.254,-0.428 4.99,4.99 0 0 0 0.21,-0.453 4.99,4.99 0 0 0 0.165,-0.471 4.99,4.99 0 0 0 0.115,-0.484 4.99,4.99 0 0 0 0.068,-0.494 A 4.99,4.99 0 0 0 32,25 V 16.271 Z M 13.018,14.987 13,15 l 0.004,0.004 a 1.75,7.875 44.998 0 1 0.014,-0.018 z m 0.136,0.17 1.703,1.714 a 3.013,3.013 0 0 0 -1.703,-1.715 z m 0.696,1.618 c 0.422,0.389 0.4,0.942 0.4,1.305 C 14.25,19.248 12.503,21 9,21 l 9,9 h 9 a 5.004,5.004 0 0 0 0.07,-0.004 z"
    id="path135"
    style="opacity:0.25;fill:url(#z)" />
  <path
    d="m 0.102,26 a 5.004,5.004 0 0 0 0.12,0.48 5.004,5.004 0 0 0 0.17,0.47 5.004,5.004 0 0 0 0.217,0.45 5.004,5.004 0 0 0 0.262,0.428 5.004,5.004 0 0 0 0.303,0.399 5.004,5.004 0 0 0 0.287,0.312 4.99,4.99 0 0 0 0.37,0.334 4.99,4.99 0 0 0 0.4,0.297 4.99,4.99 0 0 0 0.43,0.254 4.99,4.99 0 0 0 0.452,0.21 4.99,4.99 0 0 0 0.471,0.165 4.99,4.99 0 0 0 0.484,0.115 4.99,4.99 0 0 0 0.495,0.068 A 4.99,4.99 0 0 0 5,30 h 11 v -4 z"
    id="path137"
    style="fill:#ffffff;fill-opacity:0.784" />
  <path
    d="m 16,30 h 11 a 5.004,5.004 0 0 0 0.5,-0.023 5.004,5.004 0 0 0 0.494,-0.075 5.004,5.004 0 0 0 0.485,-0.123 5.004,5.004 0 0 0 0.47,-0.172 5.004,5.004 0 0 0 0.451,-0.216 5.004,5.004 0 0 0 0.426,-0.26 5.004,5.004 0 0 0 0.399,-0.303 5.004,5.004 0 0 0 0.314,-0.289 4.99,4.99 0 0 0 0.336,-0.37 4.99,4.99 0 0 0 0.295,-0.401 4.99,4.99 0 0 0 0.254,-0.428 4.99,4.99 0 0 0 0.21,-0.453 4.99,4.99 0 0 0 0.165,-0.471 4.99,4.99 0 0 0 0.1,-0.416 H 16 Z"
    id="path139"
    style="fill:#31363b;fill-opacity:0.862" />
  <circle
    cx="27"
    cy="28"
    r="1"
    id="circle141"
    style="fill:#eff0f1" />
  <path
    d="m 4,27 v 1 h 1 v -1 z m 1,1 v 1 h 1 v -1 z"
    id="path143"
    style="fill:#4d4d4d" />
  <path
    d="m 22.574,7.006 a 1.75,7.875 44.998 0 0 -6.515,4.461 1.75,7.875 44.998 0 0 -3.1,3.6 3.037,3.037 0 0 1 1.976,1.975 1.75,7.875 44.998 0 0 3.599,-3.1 1.75,7.875 44.998 0 0 4.33,-6.806 1.75,7.875 44.998 0 0 -0.29,-0.13 M 12.5,16.331 C 9,17.269 11.625,19.484 9,21 c 3.503,0 5.25,-1.75 5.25,-2.919 0,-0.582 0.059,-1.653 -1.75,-1.75 z"
    id="path145"
    style="fill:url(#A)" />
 </g>
 <path
   style="display:inline;mix-blend-mode:normal;fill:url(#linearGradient3403);fill-opacity:1;stroke:url(#linearGradient20558);stroke-width:1.16242;stroke-linecap:butt;stroke-linejoin:round;stroke-miterlimit:4;stroke-dasharray:none;stroke-opacity:1"
   d="M 4.7043071,3.9814882 4.6913695,60.80196 H 58.59546 l 1.022155,-2.866369 c 0,0 -23.87537,0.766388 -32.844441,-4.140386 C 16.257548,48.042344 11.401114,4.0978197 11.401114,4.0978197 Z"
   id="path1686"
   transform="matrix(0.7518797,0,0,0.7518797,0.09970467,0.02488636)" />
 <rect
   style="display:inline;fill:none;fill-opacity:1;stroke:url(#linearGradient4557);stroke-width:3.71366;stroke-linejoin:round;stroke-miterlimit:7.8;stroke-dasharray:none;stroke-opacity:0.995146"
   id="rect4539"
   width="62.566689"
   height="62.866646"
   x="1.0323594"
   y="0.59551275"
   ry="6.2447233"
   rx="5.8029528"
   transform="matrix(0.70434793,0,0,0.70291231,1.3629847,1.5442064)" />
</svg>
