<?xml version="1.0" encoding="UTF-8" standalone="no"?>
<!-- Created with Inkscape (http://www.inkscape.org/) -->

<svg
   width="48"
   height="48"
   version="1.1"
   viewBox="0 0 48 48"
   id="svg22"
   xmlns:xlink="http://www.w3.org/1999/xlink"
   xmlns="http://www.w3.org/2000/svg"
   xmlns:svg="http://www.w3.org/2000/svg">
  <defs
     id="defs12">
    <linearGradient
       xlink:href="#linearGradient3487"
       id="linearGradient3403"
       gradientUnits="userSpaceOnUse"
       x1="6.9491749"
       y1="4.5549412"
       x2="11.215498"
       y2="59.052471" />
    <linearGradient
       id="linearGradient3487">
      <stop
         style="stop-color:#32373c;stop-opacity:1"
         offset="0"
         id="stop3481" />
      <stop
         id="stop3483"
         offset="0.36804965"
         style="stop-color:#1a1a1a;stop-opacity:1" />
      <stop
         style="stop-color:#31363b;stop-opacity:1"
         offset="1"
         id="stop3485" />
    </linearGradient>
    <linearGradient
       xlink:href="#linearGradient20604"
       id="linearGradient20558"
       gradientUnits="userSpaceOnUse"
       x1="25.802212"
       y1="20.373846"
       x2="25.111048"
       y2="58.912758" />
    <linearGradient
       id="linearGradient20604">
      <stop
         id="stop20598"
         offset="0"
         style="stop-color:#3d3d3d;stop-opacity:1" />
      <stop
         style="stop-color:#000000;stop-opacity:1"
         offset="0.61772454"
         id="stop20600" />
      <stop
         id="stop20602"
         offset="1"
         style="stop-color:#3d3d3d;stop-opacity:1" />
    </linearGradient>
    <filter
       style="color-interpolation-filters:sRGB"
       id="filter20720"
       x="-0.017024755"
       y="-0.016457183"
       width="1.0340491"
       height="1.0329144">
      <feGaussianBlur
         stdDeviation="0.14745661"
         id="feGaussianBlur20722" />
    </filter>
    <linearGradient
       gradientTransform="translate(0.36067797,-0.13016949)"
       xlink:href="#linearGradient4555"
       id="linearGradient4557"
       x1="43.499737"
       y1="64.011795"
       x2="44.141731"
       y2="0.30621234"
       gradientUnits="userSpaceOnUse" />
    <linearGradient
       id="linearGradient4555">
      <stop
         style="stop-color:#141618;stop-opacity:1"
         offset="0"
         id="stop4551" />
      <stop
         id="stop4559"
         offset="0.51820582"
         style="stop-color:#686868;stop-opacity:1" />
      <stop
         style="stop-color:#31363b;stop-opacity:1"
         offset="1"
         id="stop4553" />
    </linearGradient>
    <filter
       style="color-interpolation-filters:sRGB"
       id="filter4601"
       x="-0.030244955"
       width="1.0604899"
       y="-0.030100647"
       height="1.0602013">
      <feGaussianBlur
         stdDeviation="0.014790289"
         id="feGaussianBlur4603" />
    </filter>
    <linearGradient
       id="l"
       y1="536.79999"
       y2="503.79999"
       x2="0"
       gradientUnits="userSpaceOnUse">
      <stop
         stop-color="#2a2c2f"
         id="stop2-2" />
      <stop
         offset="1"
         stop-color="#424649"
         id="stop4-8" />
    </linearGradient>
    <linearGradient
       xlink:href="#b"
       id="m"
       gradientUnits="userSpaceOnUse"
       gradientTransform="translate(374.575,499.797)"
       x1="42.799"
       y1="5.342"
       x2="11.999"
       y2="31.357" />
    <linearGradient
       id="b"
       y1="5.342"
       x1="42.799"
       y2="31.357"
       x2="11.999"
       gradientUnits="userSpaceOnUse"
       gradientTransform="translate(-9.995,-40.003)">
      <stop
         stop-color="#1abc9c"
         id="stop12" />
      <stop
         offset="1"
         stop-color="#2980b9"
         id="stop14" />
    </linearGradient>
    <linearGradient
       xlink:href="#c"
       id="n"
       gradientUnits="userSpaceOnUse"
       gradientTransform="translate(374.575,499.797)"
       x1="29.855"
       y1="22.346001"
       x2="54.32"
       y2="28.506001" />
    <linearGradient
       id="c"
       y1="22.346001"
       x1="29.855"
       y2="28.506001"
       x2="54.32"
       gradientUnits="userSpaceOnUse"
       gradientTransform="translate(-9.995,-40.003)">
      <stop
         stop-color="#cc4a5e"
         id="stop17" />
      <stop
         offset="1"
         stop-color="#aa478a"
         id="stop19" />
    </linearGradient>
    <linearGradient
       xlink:href="#a"
       id="o"
       gradientUnits="userSpaceOnUse"
       x1="24.392"
       y1="41.220001"
       x2="20.643"
       y2="25.343"
       gradientTransform="translate(374.575,499.797)" />
    <linearGradient
       id="a"
       y1="41.220001"
       x1="24.392"
       y2="25.343"
       x2="20.643"
       gradientUnits="userSpaceOnUse">
      <stop
         stop-color="#334545"
         id="stop22" />
      <stop
         offset="1"
         stop-color="#536161"
         id="stop24" />
    </linearGradient>
    <linearGradient
       xlink:href="#a"
       id="p"
       y1="568.79999"
       x1="431.57001"
       y2="562.79999"
       x2="439.57001"
       gradientUnits="userSpaceOnUse"
       gradientTransform="matrix(-0.91667,0,0,0.91667,803.264,7.316)" />
    <linearGradient
       xlink:href="#a"
       id="q"
       y1="40.898998"
       x1="56.029999"
       y2="32.474998"
       x2="40.646999"
       gradientUnits="userSpaceOnUse"
       gradientTransform="translate(374.575,499.797)" />
    <linearGradient
       xlink:href="#a"
       id="r"
       y1="32.150002"
       x1="60.895"
       y2="27.059999"
       x2="53.41"
       gradientUnits="userSpaceOnUse"
       gradientTransform="translate(354.573,499.797)" />
    <linearGradient
       xlink:href="#a"
       id="s"
       y1="36.527"
       x1="33.32"
       y2="31.348"
       x2="24.780001"
       gradientUnits="userSpaceOnUse"
       gradientTransform="translate(374.575,499.797)" />
    <linearGradient
       xlink:href="#a"
       id="t"
       y1="36.764999"
       x1="34"
       y2="49.570999"
       x2="40.25"
       gradientUnits="userSpaceOnUse"
       gradientTransform="translate(374.575,499.797)" />
    <linearGradient
       xlink:href="#e"
       id="u"
       gradientUnits="userSpaceOnUse"
       x1="9"
       y1="5"
       x2="23"
       y2="19"
       gradientTransform="matrix(1.5,0,0,1.5,384.57,504.6122)" />
    <linearGradient
       id="e">
      <stop
         id="stop40" />
      <stop
         offset="1"
         stop-opacity="0"
         id="stop42" />
    </linearGradient>
    <linearGradient
       xlink:href="#j"
       id="v"
       gradientUnits="userSpaceOnUse"
       x1="401.57001"
       y1="529.79999"
       x2="401.57001"
       y2="508.79999"
       gradientTransform="matrix(1,0,0,0.6988906,0,156.51667)" />
    <linearGradient
       id="j">
      <stop
         stop-color="#eff0f1"
         id="stop66" />
      <stop
         offset="1"
         stop-color="#fcfcfc"
         id="stop68" />
    </linearGradient>
  </defs>
  <g
     id="g1054"
     transform="matrix(0.89102351,0,0,1.2057222,-339.03387,-605.10817)">
    <rect
       height="36"
       y="503.79999"
       x="384.57001"
       width="48"
       ry="5"
       rx="5"
       id="rect76"
       style="fill:url(#l)" />
    <path
       d="m 389.578,505.8 a 2.987,2.987 0 0 0 -3.004,2.99 v 27.008 h 44 v -27.002 a 2.984,2.984 0 0 0 -0.875,-2.119 3.003,3.003 0 0 0 -2.129,-0.877 z"
       id="path78"
       style="fill:url(#m)" />
    <path
       d="m 429.322,506.52 -29.027,16.759 21.681,12.519 h 8.6 v -3 l -0.002,-24.002 a 2.984,2.984 0 0 0 -0.875,-2.119 c -0.096,-0.096 -0.268,-0.074 -0.377,-0.156 z"
       id="path80"
       style="fill:url(#n)" />
    <path
       d="m 400.325,523.213 -13.75,7.94 v 4.644 h 35.605 z"
       id="path82"
       style="fill:url(#o)" />
    <path
       d="m 407.896,527.59 -7.571,-4.37 v 8.741 z"
       id="path84"
       style="fill:url(#p)" />
    <path
       d="m 415.466,531.957 v 3.844 h 6.656 z"
       id="path86"
       style="fill:url(#q)" />
    <path
       d="m 407.893,527.584 v 8.213 h 0.916 l 6.654,-3.842 z"
       id="path88"
       style="fill:url(#r)" />
    <path
       d="m 400.325,531.957 v 3.842 h 6.654 z"
       id="path90"
       style="fill:url(#s)" />
    <path
       d="m 415.466,531.957 -6.656,3.844 h 6.656 z"
       id="path92"
       style="fill:url(#t)" />
    <path
       d="m 430.574,508.796 a 2.984,2.984 0 0 0 -0.875,-2.119 c -0.095,-0.095 -0.266,-0.073 -0.373,-0.154 l -29.03,16.76 30.278,-8.942 z"
       id="path94"
       style="fill:#aa478a" />
    <path
       d="m 408.57,512.1122 -1,0.5 -2,1 -1,1 -0.5,2 -0.5,2 v 4 h -2 v 4.17671 l 11.11534,11.65417 13.88466,-0.13583 c 2.83799,0 5,0.96669 5,-5.69505 l -19.16429,-19.24716 z"
       id="path98"
       style="opacity:0.2;fill:url(#u);fill-rule:evenodd" />
    <path
       d="m 408.57,512.1122 a 5,3.494453 0 0 0 -5,3.49445 V 519.8 h -2 v 6.98891 h 14 V 519.8 h -2 v -4.19335 a 5,3.494453 0 0 0 -5,-3.49445 z m 0,0.69889 a 4,2.7955624 0 0 1 4,2.79556 V 519.8 h -8 v -4.19335 a 4,2.7955624 0 0 1 4,-2.79556 z"
       id="path100"
       style="fill:url(#v);stroke-width:0.835997;paint-order:stroke fill markers" />
  </g>
  <path
     style="display:inline;mix-blend-mode:normal;fill:url(#linearGradient3403);fill-opacity:1;stroke:url(#linearGradient20558);stroke-width:1.16242;stroke-linecap:butt;stroke-linejoin:round;stroke-miterlimit:4;stroke-dasharray:none;stroke-opacity:1;filter:url(#filter20720)"
     d="M 4.7043071,3.9814882 4.6913695,60.80196 H 58.59546 l 1.022155,-2.866369 c 0,0 -23.87537,0.766388 -32.844441,-4.140386 C 16.257548,48.042344 11.401114,4.0978197 11.401114,4.0978197 Z"
     id="path1686"
     transform="matrix(0.7518797,0,0,0.7518797,0.09970467,0.02488636)" />
  <rect
     style="display:inline;fill:none;fill-opacity:1;stroke:url(#linearGradient4557);stroke-width:3.71366;stroke-linejoin:round;stroke-miterlimit:7.8;stroke-dasharray:none;stroke-opacity:0.995146;filter:url(#filter4601)"
     id="rect4539"
     width="62.566689"
     height="62.866646"
     x="1.0323594"
     y="0.59551275"
     ry="6.2447233"
     rx="5.8029528"
     transform="matrix(0.70434793,0,0,0.70291231,1.3629847,1.5442064)" />
</svg>
