<?xml version="1.0" encoding="UTF-8" standalone="no"?>
<!-- Created with Inkscape (http://www.inkscape.org/) -->

<svg
  width="48"
  height="48"
  version="1.1"
  viewBox="0 0 48 48"
  id="svg22"
  xmlns:xlink="http://www.w3.org/1999/xlink"
  xmlns="http://www.w3.org/2000/svg"
  xmlns:svg="http://www.w3.org/2000/svg">
 <defs
   id="defs12">
  <linearGradient
    id="linearGradient1005-3-3"
    x1="5.2535"
    x2="9.3823996"
    y1="15.383"
    y2="2.9421"
    gradientTransform="matrix(0.99999,0,0,0.99999,1.632,-0.61743)"
    gradientUnits="userSpaceOnUse">
   <stop
     stop-color="#fa8200"
     offset="0"
     id="stop2" />
   <stop
     stop-color="#ff9600"
     offset=".36953"
     id="stop4" />
   <stop
     stop-color="#ffb400"
     offset="1"
     id="stop6" />
  </linearGradient>
  <filter
    id="filter4014"
    x="-0.062499932"
    y="-0.057692992"
    width="1.1249999"
    height="1.115386"
    color-interpolation-filters="sRGB">
   <feGaussianBlur
     stdDeviation="1.093751"
     id="feGaussianBlur9" />
  </filter>
  <linearGradient
    xlink:href="#linearGradient3487"
    id="linearGradient3403"
    gradientUnits="userSpaceOnUse"
    x1="6.9491749"
    y1="4.5549412"
    x2="11.215498"
    y2="59.052471" />
  <linearGradient
    id="linearGradient3487">
   <stop
     style="stop-color:#32373c;stop-opacity:1"
     offset="0"
     id="stop3481" />
   <stop
     id="stop3483"
     offset="0.36804965"
     style="stop-color:#1a1a1a;stop-opacity:1" />
   <stop
     style="stop-color:#31363b;stop-opacity:1"
     offset="1"
     id="stop3485" />
  </linearGradient>
  <linearGradient
    xlink:href="#linearGradient20604"
    id="linearGradient20558"
    gradientUnits="userSpaceOnUse"
    x1="25.802212"
    y1="20.373846"
    x2="25.111048"
    y2="58.912758" />
  <linearGradient
    id="linearGradient20604">
   <stop
     id="stop20598"
     offset="0"
     style="stop-color:#3d3d3d;stop-opacity:1" />
   <stop
     style="stop-color:#000000;stop-opacity:1"
     offset="0.61772454"
     id="stop20600" />
   <stop
     id="stop20602"
     offset="1"
     style="stop-color:#3d3d3d;stop-opacity:1" />
  </linearGradient>
  <linearGradient
    gradientTransform="translate(0.36067797,-0.13016949)"
    xlink:href="#linearGradient4555"
    id="linearGradient4557"
    x1="43.499737"
    y1="64.011795"
    x2="44.141731"
    y2="0.30621234"
    gradientUnits="userSpaceOnUse" />
  <linearGradient
    id="linearGradient4555">
   <stop
     style="stop-color:#141618;stop-opacity:1"
     offset="0"
     id="stop4551" />
   <stop
     id="stop4559"
     offset="0.51820582"
     style="stop-color:#686868;stop-opacity:1" />
   <stop
     style="stop-color:#31363b;stop-opacity:1"
     offset="1"
     id="stop4553" />
  </linearGradient>
  <filter
    style="color-interpolation-filters:sRGB"
    id="filter4601"
    x="-0.02967959"
    width="1.0593592"
    y="-0.029537979"
    height="1.059076">
   <feGaussianBlur
     stdDeviation="5.1534877e-05"
     id="feGaussianBlur4603" />
  </filter>
  <linearGradient
    id="linearGradient967"
    x1="24"
    x2="24"
    y1="294"
    y2="257"
    gradientTransform="matrix(3.7795277,0,0,3.6895388,0,-918.42522)"
    gradientUnits="userSpaceOnUse">
   <stop
     stop-color="#27ae60"
     offset="0"
     id="stop7" />
   <stop
     stop-color="#2ecc71"
     offset="1"
     id="stop9" />
  </linearGradient>
  <linearGradient
    id="linearGradient1500"
    x1="24"
    x2="24"
    y1="51.298779"
    y2="23.999998"
    gradientTransform="scale(3.7795278)"
    gradientUnits="userSpaceOnUse"
    xlink:href="#linearGradient1444" />
  <linearGradient
    id="linearGradient1444">
   <stop
     stop-color="#2980b9"
     offset="0"
     id="stop2-1" />
   <stop
     stop-color="#3daee9"
     offset="1"
     id="stop4-0" />
  </linearGradient>
  <linearGradient
    id="linearGradient1482"
    x1="24"
    x2="24"
    y1="51.298779"
    y2="23.999998"
    gradientUnits="userSpaceOnUse">
   <stop
     stop-color="#1d99f3"
     offset="0"
     id="stop13" />
   <stop
     stop-color="#3daee9"
     offset="1"
     id="stop15" />
  </linearGradient>
  <linearGradient
    id="linearGradient1446"
    x1="90.708664"
    x2="90.708664"
    y1="193.88515"
    y2="90.708656"
    gradientUnits="userSpaceOnUse"
    xlink:href="#linearGradient1444" />
 </defs>
 <g
   transform="matrix(1.0794937,0,0,1.1096931,-1.4489227,36.41029)"
   id="g59">
  <g
    transform="translate(0,-35.300002)"
    id="g43">
   <rect
     x="4"
     y="3.9999998"
     width="40"
     height="40"
     rx="6"
     ry="6"
     fill="#34495e"
     style="paint-order:stroke fill markers"
     id="rect23" />
   <path
     transform="scale(0.26458333)"
     d="m 37.794922,15.117188 c -12.56315,0 -22.677734,10.114584 -22.677734,22.677734 V 139.8418 c 0,12.56315 10.114584,22.67773 22.677734,22.67773 H 143.62109 c 12.56315,0 22.67774,-10.11458 22.67774,-22.67773 V 37.794922 c 0,-12.56315 -10.11459,-22.677734 -22.67774,-22.677734 z"
     fill="#34495e"
     style="paint-order:markers fill stroke"
     id="path25" />
   <path
     transform="scale(0.26458333)"
     d="m 37.794922,15.117188 c -12.56315,0 -22.677734,10.114584 -22.677734,22.677734 V 139.8418 c 0,12.56315 10.114584,22.67773 22.677734,22.67773 H 143.62109 c 12.56315,0 22.67774,-10.11458 22.67774,-22.67773 V 37.794922 c 0,-12.56315 -10.11459,-22.677734 -22.67774,-22.677734 z"
     fill="url(#linearGradient967)"
     style="fill:url(#linearGradient967);paint-order:markers fill stroke"
     id="path27" />
   <path
     transform="scale(0.26458333)"
     d="m 25.1875,18.925781 c -4.310722,2.878893 -7.568266,7.196833 -9.099609,12.279297 L 147.13281,162.25195 c 5.47766,-0.84457 10.29115,-3.64079 13.72657,-7.65429 L 25.187501,18.925778 Z"
     fill="#eff0f1"
     style="paint-order:normal"
     id="path29" />
   <path
     transform="scale(0.26458333)"
     d="M 156.23047,18.925781 83.798828,91.357422 94.488281,102.04688 165.33008,31.205078 c -1.53135,-5.082464 -4.78889,-9.400404 -9.09961,-12.279297 z"
     fill="#eff0f1"
     style="paint-order:normal"
     id="path31" />
   <path
     transform="scale(0.26458333)"
     d="M 159.20312,21.298828 88.037109,92.464844 a 3.7799053,3.7799053 0 0 0 0,5.345703 l 20.824221,20.824223 a 3.7799053,3.7799053 0 1 0 5.34375,-5.34571 L 96.052734,95.138672 163.79102,27.400391 c -1.17838,-2.290585 -2.73426,-4.350825 -4.5879,-6.101563 z"
     color="#000000"
     color-rendering="auto"
     dominant-baseline="auto"
     fill="url(#linearGradient1500)"
     image-rendering="auto"
     shape-rendering="auto"
     solid-color="#000000"
     style="font-variant-ligatures:normal;font-variant-position:normal;font-variant-caps:normal;font-variant-numeric:normal;font-variant-alternates:normal;font-feature-settings:normal;text-indent:0;text-decoration-line:none;text-decoration-style:solid;text-decoration-color:#000000;text-transform:none;text-orientation:mixed;white-space:normal;shape-padding:0;isolation:auto;mix-blend-mode:normal;fill:url(#linearGradient1500)"
     id="path33" />
   <path
     transform="scale(0.26458333)"
     d="M 15.117188,41.574219 V 64.251953 H 166.29883 V 41.574219 Z"
     fill="#f39c1f"
     style="paint-order:normal"
     id="path35" />
   <path
     transform="scale(0.26458333)"
     d="m 15.117188,45.353516 v 15.11914 H 166.29883 v -15.11914 z"
     fill="#fdbc4b"
     style="paint-order:normal"
     id="path37" />
   <path
     transform="scale(0.26458333)"
     d="m 15.117188,75.263672 v 15.421875 c 0.457234,0.117255 0.909409,0.243022 1.351562,0.384765 3.256341,1.043911 6.213298,2.771902 8.419922,4.980469 3.586059,3.589225 6.028682,9.457889 8.685547,16.242189 2.68901,6.86639 5.932902,15.1334 13.208984,21.34375 7.261369,6.19779 16.109584,8.17458 23.822266,9.22266 7.63728,1.03782 14.486184,1.35088 20.089843,3.07812 5.265666,1.62306 10.202878,4.63554 14.169918,8.58594 2.35852,2.3486 4.39061,5.06096 6.05665,7.99609 h 16.66796 c -2.65176,-6.96408 -6.7187,-13.3915 -12.05664,-18.70703 -5.66672,-5.64294 -12.65798,-9.94256 -20.384762,-12.32422 -8.151551,-2.51258 -15.882361,-2.70904 -22.507813,-3.60937 -6.550046,-0.89008 -12.35426,-2.59544 -16.041016,-5.74219 -3.708873,-3.16563 -6.369858,-8.77406 -8.947265,-15.35547 C 45.042788,100.11775 42.20563,91.994672 35.583984,85.367188 31.442438,81.221986 26.378576,78.37373 21.082031,76.675781 19.10306,76.041371 17.107817,75.589926 15.117188,75.263672 Z"
     color="#000000"
     color-rendering="auto"
     dominant-baseline="auto"
     fill="#fdbc4b"
     image-rendering="auto"
     shape-rendering="auto"
     solid-color="#000000"
     style="font-variant-ligatures:normal;font-variant-position:normal;font-variant-caps:normal;font-variant-numeric:normal;font-variant-alternates:normal;font-feature-settings:normal;text-indent:0;text-decoration-line:none;text-decoration-style:solid;text-decoration-color:#000000;text-transform:none;text-orientation:mixed;white-space:normal;shape-padding:0;isolation:auto;mix-blend-mode:normal;paint-order:fill markers stroke"
     id="path39" />
   <path
     d="m 28.118192,29.289755 c 0,0 0.316471,1.731132 0.828373,3.657143 l 5.86114,5.861139 c 0.657643,-0.175112 1.279872,-0.516673 1.795756,-1.032494 0.515811,-0.515739 0.85779,-1.138253 1.033013,-1.795756 l -5.861142,-5.861658 c -1.7e-4,-4.5e-5 -2.65e-4,4.5e-5 -5.3e-4,0 -1.925875,-0.511718 -3.656623,-0.828374 -3.656623,-0.828374 z"
     fill="#eff0f1"
     style="paint-order:normal"
     id="path41" />
  </g>
  <g
    transform="translate(0,-35.300002)"
    id="g57">
   <path
     d="m 29.348649,30.520222 c 0,0 1.26667,6.923013 2.828537,8.48507 1.561998,1.562211 4.094675,1.562374 5.656875,3.65e-4 1.562355,-1.562142 1.562355,-4.095098 0,-5.657239 -1.5622,-1.562009 -8.485412,-2.828196 -8.485412,-2.828196 z"
     fill="url(#linearGradient1482)"
     style="fill:url(#linearGradient1482);paint-order:normal"
     id="path45" />
   <path
     transform="scale(0.26458333)"
     d="M 15.117188,82.929688 V 139.8418 c 0,12.56315 10.114584,22.67773 22.677734,22.67773 h 81.611328 c -2.25047,-4.95126 -5.35423,-9.51492 -9.20703,-13.35156 -4.81688,-4.79667 -10.781121,-8.45272 -17.277345,-10.45508 -6.877604,-2.11991 -14.167464,-2.37467 -21.298828,-3.34375 -7.131364,-0.96907 -14.457579,-2.81015 -19.931641,-7.48242 C 46.198928,123.19873 43.246491,116.26101 40.613281,109.53711 37.980071,102.81321 35.34018,95.817337 30.236328,90.708984 27.062243,87.5321 23.051834,85.243974 18.775391,83.873047 17.574603,83.488103 16.352567,83.17602 15.117188,82.929688 Z"
     fill="url(#linearGradient1446)"
     style="fill:url(#linearGradient1446);paint-order:stroke fill markers"
     id="path47" />
   <circle
     transform="rotate(-45)"
     cx="-0.82842755"
     cy="50.333687"
     r="2.9937067"
     fill="#eff0f1"
     style="paint-order:normal"
     id="circle49" />
   <path
     transform="scale(0.26458333)"
     d="m 144.76367,15.148438 c 0.36767,0.01887 0.73261,0.04479 1.09571,0.08008 -0.36298,-0.03524 -0.72781,-0.06201 -1.09571,-0.08008 z m 1.44531,0.11914 c 0.31711,0.03572 0.63233,0.07462 0.94532,0.123047 -0.31281,-0.04854 -0.62834,-0.08734 -0.94532,-0.123047 z m 1.28907,0.185547 c 0.25193,0.04293 0.50492,0.08563 0.7539,0.136719 -0.24916,-0.0513 -0.50178,-0.09361 -0.7539,-0.136719 z m 7.93945,2.964844 c 0.39646,0.241519 0.78248,0.497132 1.16211,0.761719 -0.37978,-0.264665 -0.76571,-0.520233 -1.16211,-0.761719 z m 1.48633,0.992187 c 0.38775,0.280507 0.76986,0.568931 1.13867,0.873047 -0.36896,-0.304246 -0.75054,-0.592301 -1.13867,-0.873047 z m 5.33008,5.431641 c 0.2132,0.306831 0.41781,0.620202 0.61718,0.9375 -0.1983,-0.317899 -0.40381,-0.63049 -0.61718,-0.9375 z m 0.70898,1.080078 c 0.21182,0.342761 0.41501,0.691809 0.60742,1.046875 -0.19264,-0.355503 -0.39665,-0.703267 -0.60742,-1.046875 z m 0.60742,1.046875 c 0.23119,0.426623 0.44439,0.863912 0.64844,1.306641 -0.204,-0.442567 -0.41735,-0.880188 -0.64844,-1.306641 z m 0.80078,1.646484 c 0.198,0.448992 0.38742,0.90327 0.55664,1.367188 -0.16928,-0.46408 -0.35854,-0.918023 -0.55664,-1.367188 z m 0.55664,1.367188 c 0.1697,0.465191 0.31947,0.939113 0.45899,1.417969 -0.13955,-0.478717 -0.28941,-0.953101 -0.45899,-1.417969 z m 0.55665,1.765625 c 0.12922,0.471531 0.24842,0.94797 0.34765,1.431641 -0.0993,-0.483538 -0.21833,-0.960049 -0.34765,-1.431641 z m 0.81445,108.093753 c 0,0.62928 -0.0324,1.25116 -0.082,1.86718 0.0497,-0.61583 0.082,-1.2381 0.082,-1.86718 z m -0.10352,2.13672 c -0.0533,0.5768 -0.12924,1.14577 -0.22461,1.70898 0.0955,-0.56331 0.17118,-1.13208 0.22461,-1.70898 z m -0.28906,2.07421 c -0.10268,0.55147 -0.22362,1.0964 -0.36523,1.63282 0.14164,-0.53631 0.26247,-1.08146 0.36523,-1.63282 z m -0.44922,1.93555 c -0.15744,0.5643 -0.3303,1.12259 -0.5293,1.66797 0.19888,-0.5452 0.37185,-1.10385 0.5293,-1.66797 z m -0.5293,1.66797 c -0.16952,0.46475 -0.35805,0.91947 -0.55664,1.36914 0.19855,-0.45004 0.38702,-0.90413 0.55664,-1.36914 z m -0.70312,1.69336 c -0.20569,0.44653 -0.42119,0.88811 -0.6543,1.31836 0.23304,-0.43013 0.44883,-0.87185 0.6543,-1.31836 z m -1.19922,2.26953 c -0.37798,0.62335 -0.78616,1.22683 -1.2207,1.80859 0.43454,-0.58176 0.84272,-1.18524 1.2207,-1.80859 z m -1.2207,1.80859 c -0.23306,0.31202 -0.47611,0.6168 -0.72461,0.91602 0.24879,-0.29955 0.49129,-0.60365 0.72461,-0.91602 z m -0.93946,1.16407 c -0.18171,0.21247 -0.36532,0.42339 -0.55468,0.6289 0.18947,-0.20561 0.37286,-0.41633 0.55468,-0.6289 z m -0.83593,0.92578 c -0.1736,0.18171 -0.34782,0.36127 -0.52735,0.53711 0.17924,-0.17556 0.35403,-0.3557 0.52735,-0.53711 z m -0.84961,0.84375 c -0.1745,0.16433 -0.35158,0.32756 -0.53125,0.48633 0.17998,-0.15905 0.35645,-0.3217 0.53125,-0.48633 z m -0.89258,0.79687 c -0.16852,0.14273 -0.339,0.2821 -0.51172,0.41992 0.17267,-0.13777 0.34325,-0.27724 0.51172,-0.41992 z m -0.91992,0.74024 c -0.17112,0.13024 -0.34462,0.25738 -0.51953,0.38281 0.17498,-0.12547 0.34835,-0.25253 0.51953,-0.38281 z m -0.94922,0.6875 c -0.19553,0.13343 -0.39581,0.26127 -0.5957,0.38867 0.19998,-0.12744 0.40009,-0.2552 0.5957,-0.38867 z m -0.95899,0.62109 c -0.33151,0.2025 -0.66722,0.39833 -1.00976,0.58399 0.34256,-0.18564 0.67824,-0.38151 1.00976,-0.58399 z m -1.01171,0.58399 c -0.64227,0.34797 -1.30424,0.66527 -1.98243,0.95117 0.67819,-0.2859 1.34016,-0.6032 1.98243,-0.95117 z m -1.98243,0.95117 c -1.35746,0.57227 -2.78274,1.01709 -4.26172,1.31836 1.47889,-0.3011 2.90428,-0.74612 4.26172,-1.31836 z"
     fill="#34495e"
     fill-opacity="0.128319"
     style="paint-order:stroke fill markers"
     id="path51" />
   <path
     transform="scale(0.26458333)"
     d="m 37.794922,15.117188 c -12.56315,0 -22.677734,10.114584 -22.677734,22.677734 V 88.818359 H 166.29883 V 37.794922 c 0,-12.56315 -10.11459,-22.677734 -22.67774,-22.677734 H 37.794918 Z"
     fill="#ffffff"
     fill-opacity="0.128319"
     style="paint-order:stroke fill markers"
     id="path53" />
   <path
     transform="scale(0.26458333)"
     d="M 90.708984,15.117188 V 162.51953 h 52.912106 c 12.56315,0 22.67774,-10.11458 22.67774,-22.67773 V 37.794918 c 0,-12.56315 -10.11459,-22.677734 -22.67774,-22.677734 H 90.708984 Z"
     fill="#34495e"
     fill-opacity="0.0752212"
     style="paint-order:stroke fill markers"
     id="path55" />
  </g>
 </g>
 <path
   style="display:inline;mix-blend-mode:normal;fill:url(#linearGradient3403);fill-opacity:1;stroke:url(#linearGradient20558);stroke-width:1.16242;stroke-linecap:butt;stroke-linejoin:round;stroke-miterlimit:4;stroke-dasharray:none;stroke-opacity:1"
   d="M 4.7043071,3.9814882 4.6913695,60.80196 H 58.59546 l 1.022155,-2.866369 c 0,0 -23.87537,0.766388 -32.844441,-4.140386 C 16.257548,48.042344 11.401114,4.0978197 11.401114,4.0978197 Z"
   id="path1686"
   transform="matrix(0.7518797,0,0,0.7518797,0.09970467,0.02488636)" />
 <rect
   style="display:inline;fill:none;fill-opacity:1;stroke:url(#linearGradient4557);stroke-width:3.71366;stroke-linejoin:round;stroke-miterlimit:7.8;stroke-dasharray:none;stroke-opacity:0.995146"
   id="rect4539"
   width="62.566689"
   height="62.866646"
   x="1.0323594"
   y="0.59551275"
   ry="6.2447233"
   rx="5.8029528"
   transform="matrix(0.70434793,0,0,0.70291231,1.3629847,1.5442064)" />
</svg>
