<?xml version="1.0" encoding="UTF-8" standalone="no"?>
<!-- Created with Inkscape (http://www.inkscape.org/) -->

<svg
  width="48"
  height="48"
  version="1.1"
  viewBox="0 0 48 48"
  id="svg22"
  xmlns:xlink="http://www.w3.org/1999/xlink"
  xmlns="http://www.w3.org/2000/svg"
  xmlns:svg="http://www.w3.org/2000/svg">
 <defs
   id="defs12">
  <linearGradient
    id="linearGradient1005-3-3"
    x1="5.2535"
    x2="9.3823996"
    y1="15.383"
    y2="2.9421"
    gradientTransform="matrix(0.99999,0,0,0.99999,1.632,-0.61743)"
    gradientUnits="userSpaceOnUse">
   <stop
     stop-color="#fa8200"
     offset="0"
     id="stop2" />
   <stop
     stop-color="#ff9600"
     offset=".36953"
     id="stop4" />
   <stop
     stop-color="#ffb400"
     offset="1"
     id="stop6" />
  </linearGradient>
  <filter
    id="filter4014"
    x="-0.062499932"
    y="-0.057692992"
    width="1.1249999"
    height="1.115386"
    color-interpolation-filters="sRGB">
   <feGaussianBlur
     stdDeviation="1.093751"
     id="feGaussianBlur9" />
  </filter>
  <linearGradient
    xlink:href="#linearGradient3487"
    id="linearGradient3403"
    gradientUnits="userSpaceOnUse"
    x1="6.9491749"
    y1="4.5549412"
    x2="11.215498"
    y2="59.052471" />
  <linearGradient
    id="linearGradient3487">
   <stop
     style="stop-color:#32373c;stop-opacity:1"
     offset="0"
     id="stop3481" />
   <stop
     id="stop3483"
     offset="0.36804965"
     style="stop-color:#1a1a1a;stop-opacity:1" />
   <stop
     style="stop-color:#31363b;stop-opacity:1"
     offset="1"
     id="stop3485" />
  </linearGradient>
  <linearGradient
    xlink:href="#linearGradient20604"
    id="linearGradient20558"
    gradientUnits="userSpaceOnUse"
    x1="25.802212"
    y1="20.373846"
    x2="25.111048"
    y2="58.912758" />
  <linearGradient
    id="linearGradient20604">
   <stop
     id="stop20598"
     offset="0"
     style="stop-color:#3d3d3d;stop-opacity:1" />
   <stop
     style="stop-color:#000000;stop-opacity:1"
     offset="0.61772454"
     id="stop20600" />
   <stop
     id="stop20602"
     offset="1"
     style="stop-color:#3d3d3d;stop-opacity:1" />
  </linearGradient>
  <linearGradient
    gradientTransform="translate(0.36067797,-0.13016949)"
    xlink:href="#linearGradient4555"
    id="linearGradient4557"
    x1="43.499737"
    y1="64.011795"
    x2="44.141731"
    y2="0.30621234"
    gradientUnits="userSpaceOnUse" />
  <linearGradient
    id="linearGradient4555">
   <stop
     style="stop-color:#141618;stop-opacity:1"
     offset="0"
     id="stop4551" />
   <stop
     id="stop4559"
     offset="0.51820582"
     style="stop-color:#686868;stop-opacity:1" />
   <stop
     style="stop-color:#31363b;stop-opacity:1"
     offset="1"
     id="stop4553" />
  </linearGradient>
  <filter
    style="color-interpolation-filters:sRGB"
    id="filter4601"
    x="-0.029678105"
    width="1.0593562"
    y="-0.029536501"
    height="1.059073">
   <feGaussianBlur
     stdDeviation="1.281244e-05"
     id="feGaussianBlur4603" />
  </filter>
  <linearGradient
    gradientTransform="translate(0,14)"
    gradientUnits="userSpaceOnUse"
    x2="44"
    y2="28"
    x1="30.625"
    y1="14"
    id="f"
    xlink:href="#e-2" />
  <linearGradient
    gradientTransform="translate(0,-2)"
    gradientUnits="userSpaceOnUse"
    x2="43"
    y2="31"
    x1="4"
    y1="18"
    id="e-2">
   <stop
     id="stop4351"
     stop-color="#292c2f"
     style="stop-color:#000000;stop-opacity:1" />
   <stop
     id="stop4353"
     stop-opacity="0"
     offset="1"
     style="stop-color:#000000;stop-opacity:0.32644629" />
  </linearGradient>
  <radialGradient
    xlink:href="#linearGradient4301"
    id="radialGradient4309"
    cx="20.853001"
    cy="17.349001"
    fx="20.853001"
    fy="17.349001"
    r="8.1289997"
    gradientTransform="matrix(-0.01162882,1.1950891,-1.274916,-0.0124056,46.239569,-9.6229889)"
    gradientUnits="userSpaceOnUse" />
  <linearGradient
    id="linearGradient4301">
   <stop
     style="stop-color:#f10000;stop-opacity:1"
     offset="0"
     id="stop4303" />
   <stop
     style="stop-color:#b20000;stop-opacity:1"
     offset="1"
     id="stop4305" />
  </linearGradient>
  <linearGradient
    xlink:href="#linearGradient4305"
    id="linearGradient4311"
    x1="16.75"
    y1="-4.5"
    x2="36"
    y2="32"
    gradientUnits="userSpaceOnUse" />
  <linearGradient
    id="linearGradient4305">
   <stop
     style="stop-color:#ffffff;stop-opacity:1;"
     offset="0"
     id="stop4307" />
   <stop
     style="stop-color:#ffffff;stop-opacity:0;"
     offset="1"
     id="stop4309" />
  </linearGradient>
 </defs>
 <g
   id="g934"
   style="display:inline"
   transform="matrix(0.95227002,0,0,1.0658611,3.6667614,-2.3485541)">
  <g
    id="layer3"
    style="display:inline">
   <path
     style="color:#000000;clip-rule:nonzero;display:inline;overflow:visible;visibility:visible;opacity:1;isolation:auto;mix-blend-mode:normal;color-interpolation:sRGB;color-interpolation-filters:linearRGB;solid-color:#000000;solid-opacity:1;fill:#0d9e0e;fill-opacity:1;fill-rule:nonzero;stroke-width:2;stroke-linecap:butt;stroke-linejoin:bevel;stroke-miterlimit:4;stroke-dasharray:none;stroke-dashoffset:0;stroke-opacity:1;color-rendering:auto;image-rendering:auto;shape-rendering:auto;text-rendering:auto;enable-background:accumulate"
     d="M 24.15625,23.8125 4,18.84375 V 43 c 0,0.554007 0.4459958,1 1,1 h 16.019531 z"
     id="path4292" />
   <path
     style="color:#000000;clip-rule:nonzero;display:inline;overflow:visible;visibility:visible;opacity:1;isolation:auto;mix-blend-mode:normal;color-interpolation:sRGB;color-interpolation-filters:linearRGB;solid-color:#000000;solid-opacity:1;fill:#08c513;fill-opacity:1;fill-rule:nonzero;stroke-width:2;stroke-linecap:butt;stroke-linejoin:bevel;stroke-miterlimit:4;stroke-dasharray:none;stroke-dashoffset:0;stroke-opacity:1;color-rendering:auto;image-rendering:auto;shape-rendering:auto;text-rendering:auto;enable-background:accumulate"
     d="M 5,4 C 4.4459958,4 4,4.4459933 4,5 v 15 l 20,4 4,-20 z"
     id="path4278" />
   <path
     style="color:#000000;clip-rule:nonzero;display:inline;overflow:visible;visibility:visible;opacity:1;isolation:auto;mix-blend-mode:normal;color-interpolation:sRGB;color-interpolation-filters:linearRGB;solid-color:#000000;solid-opacity:1;fill:#08c513;fill-opacity:1;fill-rule:nonzero;stroke-width:2;stroke-linecap:butt;stroke-linejoin:bevel;stroke-miterlimit:4;stroke-dasharray:none;stroke-dashoffset:0;stroke-opacity:1;color-rendering:auto;image-rendering:auto;shape-rendering:auto;text-rendering:auto;enable-background:accumulate"
     d="M 44,28 24,24 20,44 h 23 c 0.554004,0 1,-0.445993 1,-1 z"
     id="path4295" />
   <path
     style="color:#000000;clip-rule:nonzero;display:inline;overflow:visible;visibility:visible;opacity:1;isolation:auto;mix-blend-mode:normal;color-interpolation:sRGB;color-interpolation-filters:linearRGB;solid-color:#000000;solid-opacity:1;fill:#0d9e0e;fill-opacity:1;fill-rule:nonzero;stroke-width:2;stroke-linecap:butt;stroke-linejoin:bevel;stroke-miterlimit:4;stroke-dasharray:none;stroke-dashoffset:0;stroke-opacity:1;color-rendering:auto;image-rendering:auto;shape-rendering:auto;text-rendering:auto;enable-background:accumulate"
     d="M 26.867417,4 23.801126,24.1875 44,28.03125 V 5 C 44,4.4459933 43.554004,4 43,4 Z"
     id="rect23" />
   <path
     style="opacity:0.738;fill:#056b00;fill-opacity:1"
     d="m 4,42 v 1 c 0,0.554007 0.445996,1 1,1 h 38 c 0.554004,0 1,-0.445993 1,-1 v -1 c 0,0.554007 -0.445996,1 -1,1 H 5 C 4.445996,43 4,42.554007 4,42 Z"
     id="rect4185" />
   <path
     style="opacity:0.2;fill:url(#f);fill-rule:evenodd"
     d="m 16,38 6,6 h 21 c 0.554004,0 1,-0.445993 1,-1 V 22 L 34,12 33,17.0625 31,19 h -8 l -7,-6.875 -1.1875,6.9375 1.9375,6.8125 7.3125,7.5 L 24,36 Z"
     id="path4373" />
   <path
     id="path4200"
     d="M 4,6 V 5 C 4,4.445993 4.445996,4 5,4 h 38 c 0.554004,0 1,0.445993 1,1 V 6 C 44,5.445993 43.554004,5 43,5 H 5 C 4.445996,5 4,5.445993 4,6 Z"
     style="opacity:0.35;fill:#ffffff;fill-opacity:1" />
   <path
     style="opacity:0.569;fill:#ffffff;fill-opacity:1"
     d="m 4.21875,4.25 v 0.15625 c 0,0.2155856 0.1491232,0.3955313 0.4238281,0.5019531 C 4.2013488,5.0554644 3.9980469,5.455426 3.9980469,5.7246094 v 0.15625 c 0,-0.3337806 0.4147347,-0.8789063 1,-0.8789063 h 0.1542969 c 0.020192,5.232e-4 0.033824,0.00586 0.054687,0.00586 H 42.761719 c 0.0208,0 0.03454,-0.00533 0.05469,-0.00586 h 0.181641 c 0.592899,0 1,0.5568444 1,0.890625 v -0.15625 c 0,-0.270768 -0.241895,-0.6822888 -0.671875,-0.8300781 C 43.598322,4.7995432 43.75,4.6207484 43.75,4.40625 V 4.25 c 0,0.3231934 -0.416191,0.5793962 -0.939453,0.5957031 H 5.1582031 C 4.6349399,4.8293962 4.21875,4.5731934 4.21875,4.25 Z"
     id="path4262" />
   <path
     id="path4269"
     d="m 4.21875,43.751953 v -0.15625 c 0,-0.215585 0.1491232,-0.395531 0.4238281,-0.501953 C 4.2013488,42.946489 3.9980469,42.546527 3.9980469,42.277344 v -0.15625 c 0,0.33378 0.4147347,0.878906 1,0.878906 h 0.1542969 c 0.020192,-5.23e-4 0.033824,-0.0059 0.054687,-0.0059 H 42.761719 c 0.0208,0 0.03454,0.0053 0.05469,0.0059 h 0.181641 c 0.592899,0 1,-0.556844 1,-0.890625 v 0.15625 c 0,0.270768 -0.241895,0.682289 -0.671875,0.830078 0.27215,0.106707 0.423828,0.285502 0.423828,0.5 v 0.15625 c 0,-0.323193 -0.416191,-0.579396 -0.939453,-0.595703 H 5.1582057 C 4.6349399,43.172557 4.21875,43.42876 4.21875,43.751953 Z"
     style="opacity:0.676;fill:#54ff58;fill-opacity:1" />
  </g>
  <g
    id="layer4"
    style="display:inline">
   <rect
     ry="1"
     rx="1"
     y="4"
     x="4"
     height="40"
     width="40"
     id="rect4314"
     style="color:#000000;clip-rule:nonzero;display:inline;overflow:visible;visibility:visible;opacity:1;isolation:auto;mix-blend-mode:normal;color-interpolation:sRGB;color-interpolation-filters:linearRGB;solid-color:#000000;solid-opacity:1;fill:#6e6e6e;fill-opacity:0.194215;fill-rule:nonzero;stroke:none;stroke-width:2;stroke-linecap:butt;stroke-linejoin:bevel;stroke-miterlimit:4;stroke-dasharray:none;stroke-dashoffset:0;stroke-opacity:1;marker:none;color-rendering:auto;image-rendering:auto;shape-rendering:auto;text-rendering:auto;enable-background:accumulate" />
  </g>
  <g
    id="layer1"
    style="display:inline">
   <rect
     style="color:#000000;clip-rule:nonzero;display:inline;overflow:visible;visibility:visible;opacity:1;isolation:auto;mix-blend-mode:normal;color-interpolation:sRGB;color-interpolation-filters:linearRGB;solid-color:#000000;solid-opacity:1;fill:#ffffff;fill-opacity:0.334711;fill-rule:nonzero;stroke:none;stroke-width:2;stroke-linecap:butt;stroke-linejoin:bevel;stroke-miterlimit:4;stroke-dasharray:none;stroke-dashoffset:0;stroke-opacity:1;marker:none;color-rendering:auto;image-rendering:auto;shape-rendering:auto;text-rendering:auto;enable-background:accumulate"
     id="rect4364"
     width="19.787001"
     height="7.0939999"
     x="14"
     y="12"
     rx="0"
     ry="0" />
   <path
     style="color:#000000;clip-rule:nonzero;display:inline;overflow:visible;visibility:visible;opacity:1;isolation:auto;mix-blend-mode:normal;color-interpolation:sRGB;color-interpolation-filters:linearRGB;solid-color:#000000;solid-opacity:1;fill:url(#radialGradient4309);fill-opacity:1;fill-rule:nonzero;stroke:none;stroke-width:2;stroke-linecap:butt;stroke-linejoin:bevel;stroke-miterlimit:4;stroke-dasharray:none;stroke-dashoffset:0;stroke-opacity:1;marker:none;color-rendering:auto;image-rendering:auto;shape-rendering:auto;text-rendering:auto;enable-background:accumulate"
     d="m 16.026117,19.217466 c 0.01566,4.47119 3.644355,8.087696 8.115572,8.08833 4.471217,-6.34e-4 8.099904,-3.61714 8.115571,-8.08833 L 32,16.99889 16,17.02099 Z"
     id="path4316" />
   <path
     style="color:#000000;clip-rule:nonzero;display:inline;overflow:visible;visibility:visible;opacity:1;isolation:auto;mix-blend-mode:normal;color-interpolation:sRGB;color-interpolation-filters:linearRGB;solid-color:#000000;solid-opacity:1;fill:#e8e8e8;fill-opacity:1;fill-rule:nonzero;stroke:none;stroke-width:2;stroke-linecap:butt;stroke-linejoin:bevel;stroke-miterlimit:4;stroke-dasharray:none;stroke-dashoffset:0;stroke-opacity:1;marker:none;color-rendering:auto;image-rendering:auto;shape-rendering:auto;text-rendering:auto;enable-background:accumulate"
     d="m 14,12 v 7 c 0,5.184944 3.947244,9.448901 9,9.951172 V 36 h -5 c -1.108,0 -2,0.892 -2,2 h 16 c 0,-1.108 -0.892,-2 -2,-2 H 25 V 28.951172 C 30.052756,28.448901 34,24.184944 34,19 v -7 h -2 v 7 l 0.002,0.03125 c 0,4.435537 -3.597666,8.03125 -8.033203,8.03125 C 19.533119,27.0625 16,23.435537 16,19 l 0.002,-0.03125 H 16 V 12 Z"
     id="rect4249" />
   <path
     style="color:#000000;clip-rule:nonzero;display:inline;overflow:visible;visibility:visible;opacity:0.239;isolation:auto;mix-blend-mode:normal;color-interpolation:sRGB;color-interpolation-filters:linearRGB;solid-color:#000000;solid-opacity:1;fill:#ffffff;fill-opacity:1;fill-rule:nonzero;stroke:none;stroke-width:2;stroke-linecap:butt;stroke-linejoin:bevel;stroke-miterlimit:4;stroke-dasharray:none;stroke-dashoffset:0;stroke-opacity:1;marker:none;color-rendering:auto;image-rendering:auto;shape-rendering:auto;text-rendering:auto;enable-background:accumulate"
     d="M 16,18.003791 32,18 V 17 H 16 Z"
     id="path4331" />
   <path
     id="path4283"
     d="m 14,12 v 7 c 0,5.184944 3.947244,9.448901 9,9.951172 V 36 h -5 c -1.108,0 -2,0.892 -2,2 h 16 c 0,-1.108 -0.892,-2 -2,-2 H 25 V 28.951172 C 30.052756,28.448901 34,24.184944 34,19 v -7 h -2 v 7 l 0.002,0.03125 c 0,4.435537 -3.597666,8.03125 -8.033203,8.03125 C 19.533119,27.0625 16,23.435537 16,19 l 0.002,-0.03125 H 16 V 12 Z"
     style="color:#000000;clip-rule:nonzero;display:inline;overflow:visible;visibility:visible;opacity:1;isolation:auto;mix-blend-mode:normal;color-interpolation:sRGB;color-interpolation-filters:linearRGB;solid-color:#000000;solid-opacity:1;fill:#e8e8e8;fill-opacity:1;fill-rule:nonzero;stroke:none;stroke-width:2;stroke-linecap:butt;stroke-linejoin:bevel;stroke-miterlimit:4;stroke-dasharray:none;stroke-dashoffset:0;stroke-opacity:1;marker:none;color-rendering:auto;image-rendering:auto;shape-rendering:auto;text-rendering:auto;enable-background:accumulate" />
  </g>
  <rect
    style="color:#000000;clip-rule:nonzero;display:inline;overflow:visible;visibility:visible;opacity:0.551;isolation:auto;mix-blend-mode:normal;color-interpolation:sRGB;color-interpolation-filters:linearRGB;solid-color:#000000;solid-opacity:1;fill:url(#linearGradient4311);fill-opacity:1;fill-rule:nonzero;stroke:none;stroke-width:2;stroke-linecap:butt;stroke-linejoin:bevel;stroke-miterlimit:4;stroke-dasharray:none;stroke-dashoffset:0;stroke-opacity:1;marker:none;color-rendering:auto;image-rendering:auto;shape-rendering:auto;text-rendering:auto;enable-background:accumulate"
    id="rect4303"
    width="40"
    height="40"
    x="4"
    y="4"
    rx="1"
    ry="1" />
  <path
    style="color:#000000;clip-rule:nonzero;display:inline;overflow:visible;visibility:visible;opacity:0.624;isolation:auto;mix-blend-mode:normal;color-interpolation:sRGB;color-interpolation-filters:linearRGB;solid-color:#000000;solid-opacity:1;fill:#ffffff;fill-opacity:1;fill-rule:nonzero;stroke:none;stroke-width:2;stroke-linecap:butt;stroke-linejoin:bevel;stroke-miterlimit:4;stroke-dasharray:none;stroke-dashoffset:0;stroke-opacity:1;marker:none;color-rendering:auto;image-rendering:auto;shape-rendering:auto;text-rendering:auto;enable-background:accumulate"
    id="path4313"
    d="m 17.926298,17.65717 0.224951,2.763864 2.763864,0.224951 -2.763864,0.22495 -0.224951,2.763865 -0.224951,-2.763865 -2.763864,-0.22495 2.763864,-0.224951 z" />
  <path
    d="m 19.734341,21.175812 0.118663,1.579527 1.579527,0.118664 -1.579527,0.118663 -0.118663,1.579527 -0.118664,-1.579527 -1.579527,-0.118664 1.579527,-0.118663 z"
    id="path4315"
    style="color:#000000;clip-rule:nonzero;display:inline;overflow:visible;visibility:visible;opacity:0.624;isolation:auto;mix-blend-mode:normal;color-interpolation:sRGB;color-interpolation-filters:linearRGB;solid-color:#000000;solid-opacity:1;fill:#ffffff;fill-opacity:1;fill-rule:nonzero;stroke:none;stroke-width:2;stroke-linecap:butt;stroke-linejoin:bevel;stroke-miterlimit:4;stroke-dasharray:none;stroke-dashoffset:0;stroke-opacity:1;marker:none;color-rendering:auto;image-rendering:auto;shape-rendering:auto;text-rendering:auto;enable-background:accumulate" />
  <path
    style="display:inline;opacity:0.7;fill:#ffffff;fill-opacity:1;fill-rule:evenodd;stroke:none;stroke-width:1px;stroke-linecap:butt;stroke-linejoin:miter;stroke-opacity:1"
    d="m 13.998505,12.014894 1.999786,-0.01105 v 0.287262 h -1.999786 z"
    id="path4271" />
  <path
    id="path4274"
    d="m 31.998505,12.014894 1.999786,-0.01105 v 0.287262 h -1.999786 z"
    style="display:inline;opacity:0.7;fill:#ffffff;fill-opacity:1;fill-rule:evenodd;stroke:none;stroke-width:1px;stroke-linecap:butt;stroke-linejoin:miter;stroke-opacity:1" />
  <path
    style="color:#000000;clip-rule:nonzero;display:inline;overflow:visible;visibility:visible;opacity:1;isolation:auto;mix-blend-mode:normal;color-interpolation:sRGB;color-interpolation-filters:linearRGB;solid-color:#000000;solid-opacity:1;fill:#ffffff;fill-opacity:1;fill-rule:nonzero;stroke:none;stroke-width:2;stroke-linecap:butt;stroke-linejoin:bevel;stroke-miterlimit:4;stroke-dasharray:none;stroke-dashoffset:0;stroke-opacity:1;marker:none;color-rendering:auto;image-rendering:auto;shape-rendering:auto;text-rendering:auto;enable-background:accumulate"
    d="m 16.064453,20.0625 c 0.474849,4.024148 3.824611,7.267659 7.907926,7.272422 4.084889,-0.0028 7.492049,-3.246796 7.967074,-7.272422 h -0.01172 c -0.50773,3.947004 -3.873908,7 -7.958984,7 -4.07491,0 -7.380588,-3.063177 -7.892578,-7 z"
    id="path4288" />
  <path
    style="color:#000000;clip-rule:nonzero;display:inline;overflow:visible;visibility:visible;opacity:1;isolation:auto;mix-blend-mode:normal;color-interpolation:sRGB;color-interpolation-filters:linearRGB;solid-color:#000000;solid-opacity:1;fill:#ffffff;fill-opacity:1;fill-rule:nonzero;stroke:none;stroke-width:2;stroke-linecap:butt;stroke-linejoin:bevel;stroke-miterlimit:4;stroke-dasharray:none;stroke-dashoffset:0;stroke-opacity:1;marker:none;color-rendering:auto;image-rendering:auto;shape-rendering:auto;text-rendering:auto;enable-background:accumulate"
    d="m 18,36 c -1.108,0 -2,0.892 -2,2 h 0.02539 C 16.148053,37.011245 16.976981,36.248047 18,36.248047 h 5 V 36 Z m 7,0 v 0.248047 h 5 c 1.023019,0 1.851947,0.763198 1.974609,1.751953 H 32 c 0,-1.108 -0.892,-2 -2,-2 z"
    id="path4298" />
 </g>
 <path
   style="display:inline;mix-blend-mode:normal;fill:url(#linearGradient3403);fill-opacity:1;stroke:url(#linearGradient20558);stroke-width:1.16242;stroke-linecap:butt;stroke-linejoin:round;stroke-miterlimit:4;stroke-dasharray:none;stroke-opacity:1"
   d="M 4.7043071,3.9814882 4.6913695,60.80196 H 58.59546 l 1.022155,-2.866369 c 0,0 -23.87537,0.766388 -32.844441,-4.140386 C 16.257548,48.042344 11.401114,4.0978197 11.401114,4.0978197 Z"
   id="path1686"
   transform="matrix(0.7518797,0,0,0.7518797,0.09970467,0.02488636)" />
 <rect
   style="display:inline;fill:none;fill-opacity:1;stroke:url(#linearGradient4557);stroke-width:3.71366;stroke-linejoin:round;stroke-miterlimit:7.8;stroke-dasharray:none;stroke-opacity:0.995146"
   id="rect4539"
   width="62.566689"
   height="62.866646"
   x="1.0323594"
   y="0.59551275"
   ry="6.2447233"
   rx="5.8029528"
   transform="matrix(0.70434793,0,0,0.70291231,1.3629847,1.5442064)" />
</svg>
