<?xml version="1.0" encoding="UTF-8" standalone="no"?>
<!-- Created with Inkscape (http://www.inkscape.org/) -->

<svg
  width="48"
  height="48"
  version="1.1"
  viewBox="0 0 48 48"
  id="svg22"
  xmlns:xlink="http://www.w3.org/1999/xlink"
  xmlns="http://www.w3.org/2000/svg"
  xmlns:svg="http://www.w3.org/2000/svg">
 <defs
   id="defs12">
  <linearGradient
    id="linearGradient1005-3-3"
    x1="5.2535"
    x2="9.3823996"
    y1="15.383"
    y2="2.9421"
    gradientTransform="matrix(0.99999,0,0,0.99999,1.632,-0.61743)"
    gradientUnits="userSpaceOnUse">
   <stop
     stop-color="#fa8200"
     offset="0"
     id="stop2" />
   <stop
     stop-color="#ff9600"
     offset=".36953"
     id="stop4" />
   <stop
     stop-color="#ffb400"
     offset="1"
     id="stop6" />
  </linearGradient>
  <filter
    id="filter4014"
    x="-0.062499932"
    y="-0.057692992"
    width="1.1249999"
    height="1.115386"
    color-interpolation-filters="sRGB">
   <feGaussianBlur
     stdDeviation="1.093751"
     id="feGaussianBlur9" />
  </filter>
  <linearGradient
    xlink:href="#linearGradient3487"
    id="linearGradient3403"
    gradientUnits="userSpaceOnUse"
    x1="6.9491749"
    y1="4.5549412"
    x2="11.215498"
    y2="59.052471" />
  <linearGradient
    id="linearGradient3487">
   <stop
     style="stop-color:#32373c;stop-opacity:1"
     offset="0"
     id="stop3481" />
   <stop
     id="stop3483"
     offset="0.36804965"
     style="stop-color:#1a1a1a;stop-opacity:1" />
   <stop
     style="stop-color:#31363b;stop-opacity:1"
     offset="1"
     id="stop3485" />
  </linearGradient>
  <linearGradient
    xlink:href="#linearGradient20604"
    id="linearGradient20558"
    gradientUnits="userSpaceOnUse"
    x1="25.802212"
    y1="20.373846"
    x2="25.111048"
    y2="58.912758" />
  <linearGradient
    id="linearGradient20604">
   <stop
     id="stop20598"
     offset="0"
     style="stop-color:#3d3d3d;stop-opacity:1" />
   <stop
     style="stop-color:#000000;stop-opacity:1"
     offset="0.61772454"
     id="stop20600" />
   <stop
     id="stop20602"
     offset="1"
     style="stop-color:#3d3d3d;stop-opacity:1" />
  </linearGradient>
  <filter
    style="color-interpolation-filters:sRGB"
    id="filter20720"
    x="-0.010583846"
    y="-0.010230995"
    width="1.0211672"
    height="1.020462">
   <feGaussianBlur
     stdDeviation="5.0389123e-05"
     id="feGaussianBlur20722" />
  </filter>
  <linearGradient
    gradientTransform="translate(0.36067797,-0.13016949)"
    xlink:href="#linearGradient4555"
    id="linearGradient4557"
    x1="43.499737"
    y1="64.011795"
    x2="44.141731"
    y2="0.30621234"
    gradientUnits="userSpaceOnUse" />
  <linearGradient
    id="linearGradient4555">
   <stop
     style="stop-color:#141618;stop-opacity:1"
     offset="0"
     id="stop4551" />
   <stop
     id="stop4559"
     offset="0.51820582"
     style="stop-color:#686868;stop-opacity:1" />
   <stop
     style="stop-color:#31363b;stop-opacity:1"
     offset="1"
     id="stop4553" />
  </linearGradient>
  <filter
    style="color-interpolation-filters:sRGB"
    id="filter4601"
    x="-0.029679489"
    width="1.059359"
    y="-0.029538068"
    height="1.0590761">
   <feGaussianBlur
     stdDeviation="5.3844452e-05"
     id="feGaussianBlur4603" />
  </filter>
  <linearGradient
    id="c"
    y1="523.79999"
    x1="403.57001"
    y2="536.79999"
    x2="416.57001"
    gradientUnits="userSpaceOnUse"
    gradientTransform="translate(-382.3618,-501.38052)">
   <stop
     stop-color="#292c2f"
     id="stop2-1" />
   <stop
     offset="1"
     stop-opacity="0"
     id="stop4-7" />
  </linearGradient>
  <linearGradient
    xlink:href="#b-2"
    id="linearGradient4189"
    x1="14.369"
    y1="22.521999"
    x2="26.521999"
    y2="22.521999"
    gradientUnits="userSpaceOnUse" />
  <linearGradient
    x1="36"
    gradientUnits="userSpaceOnUse"
    x2="14"
    y2="12"
    y1="44"
    id="b-2">
   <stop
     style="stop-color:#bfc9c9;stop-opacity:1"
     stop-color="#536161"
     id="stop13" />
   <stop
     style="stop-color:#fbfbfb;stop-opacity:1"
     stop-color="#f4f5f5"
     offset="1"
     id="stop15" />
  </linearGradient>
  <linearGradient
    xlink:href="#b-2"
    id="linearGradient4428"
    gradientUnits="userSpaceOnUse"
    x1="31.586"
    y1="36.345001"
    x2="1.2029999"
    y2="6.723" />
  <linearGradient
    id="linearGradient4225"
    x1="15.233"
    x2="39.609001"
    y1="11.995"
    y2="36.369999"
    gradientUnits="userSpaceOnUse">
   <stop
     id="stop2-3"
     offset="0" />
   <stop
     id="stop4-6"
     stop-opacity="0"
     offset="1" />
  </linearGradient>
  <linearGradient
    id="paint3_linear"
    x1="69.25"
    y1="28.75"
    x2="75.501099"
    y2="35.5"
    gradientUnits="userSpaceOnUse"
    gradientTransform="matrix(0.8,0,0,0.8,-30.36049,2.7520018)">
   <stop
     id="stop67" />
   <stop
     offset="1"
     stop-opacity="0"
     id="stop69" />
  </linearGradient>
  <linearGradient
    id="linearGradient943-0"
    x1="216"
    x2="216"
    y1="28"
    y2="284"
    gradientTransform="matrix(0.17079189,0,0,0.22990894,1.6440599,-11.866889)"
    gradientUnits="userSpaceOnUse">
   <stop
     stop-color="#d4279f"
     offset="0"
     id="stop13-7" />
   <stop
     stop-color="#fa3da3"
     offset="1"
     id="stop15-5" />
  </linearGradient>
  <linearGradient
    xlink:href="#linearGradient4145"
    id="linearGradient1015"
    x1="42.101719"
    y1="42.004982"
    x2="5.8400807"
    y2="6.0049806"
    gradientUnits="userSpaceOnUse"
    gradientTransform="matrix(-1.096102,0,0,1.096102,53.910819,-2.1261801)" />
  <linearGradient
    id="linearGradient4145">
   <stop
     id="stop1072"
     style="stop-color:#a0a0a0;stop-opacity:1;"
     offset="0" />
   <stop
     id="stop1074"
     style="stop-color:#555555;stop-opacity:1;"
     offset="1" />
  </linearGradient>
  <linearGradient
    xlink:href="#linearGradient1694-7"
    id="linearGradient1055"
    x1="42"
    y1="42"
    x2="6"
    y2="6"
    gradientUnits="userSpaceOnUse"
    gradientTransform="matrix(1.096102,0,0,1.096102,1.2978679,-2.12618)" />
  <linearGradient
    id="linearGradient1694-7"
    x1="38.310001"
    x2="264"
    y1="270.69"
    y2="268"
    gradientTransform="matrix(0,0.16314207,-0.16292331,0,49.414836,-0.96115588)"
    gradientUnits="userSpaceOnUse">
   <stop
     stop-color="#4d4d4d"
     offset="0"
     id="stop18" />
   <stop
     stop-color="#4d4d4d"
     offset="1"
     id="stop20" />
  </linearGradient>
 </defs>
 <g
   id="g2"
   style="enable-background:new"
   transform="translate(1.1543743,-0.91080804)">
  <path
    d="M 27.604316,3.9728352 V 44.027745 H 43.1677 C 43.946835,44.027745 44,43.872951 44,42.98136 V 5 C 44,4 43.959367,3.9721501 43.180232,3.9721501 Z"
    id="path61"
    style="fill:url(#linearGradient943-0);stroke-width:0.620305;enable-background:new" />
  <path
    style="fill:url(#linearGradient1015);fill-opacity:1;stroke-width:0.685109;enable-background:new"
    d="M 7.6047361,24.180268 V 43 c 0,0.944814 0.036215,1.02785 0.9999999,1.02785 h 18.99958 V 24.180268 Z"
    id="path61-5" />
  <path
    style="opacity:1;fill:url(#linearGradient1055);fill-opacity:1;stroke:none;stroke-width:2.1922;stroke-linecap:round;stroke-linejoin:round;stroke-miterlimit:4;stroke-dasharray:none;stroke-opacity:1"
    d="m 8.604736,3.9730282 c -0.949116,0 -0.9999999,0.06728 -0.9999999,1.0129728 V 24.180268 H 27.604316 V 3.9730282 Z"
    id="rect1019" />
  <path
    style="font-variant-ligatures:normal;font-variant-caps:normal;font-variant-numeric:normal;font-feature-settings:normal;fill:#f2f2f2;stroke-width:0.1787px"
    d="m 19.449952,9.7768028 c -0.496303,0 -1.186157,0.1734987 -2.524031,0.6272622 -0.129468,0.0432 -0.129737,0.0424 -0.237632,0.08563 l 0.08563,0.325405 c 0.841573,-0.216077 0.993764,-0.237632 1.209565,-0.237632 0.539456,0 0.667678,0.193538 0.969794,1.490014 l 0.627262,2.658904 -1.770463,2.526173 c -0.453143,0.648231 -0.863016,1.038299 -1.100383,1.038299 -0.129468,0 -0.345116,-0.0652 -0.560896,-0.194815 -0.280516,-0.151254 -0.497313,-0.216224 -0.691486,-0.216224 -0.431563,0 -0.732162,0.323558 -0.732162,0.755711 0,0.561806 0.410024,0.90771 1.078975,0.90771 0.668951,0 0.927012,-0.193531 2.005952,-1.490014 0.58261,-0.713081 1.057023,-1.361321 1.941729,-2.549722 l 0.648669,2.592539 c 0.280515,1.123612 0.559738,1.447197 1.250242,1.447197 0.820006,0 1.381671,-0.517213 2.633213,-2.461947 l -0.301853,-0.173408 c -0.172628,0.194474 -0.281056,0.323015 -0.475263,0.582304 -0.496303,0.648238 -0.755815,0.864894 -1.01475,0.864894 -0.302095,0 -0.495475,-0.281283 -0.64653,-0.886302 -0.06474,-0.237686 -0.06405,-0.27985 -0.08563,-0.344672 -0.539456,-2.204031 -0.777118,-3.19751 -0.777118,-3.521657 0.971039,-1.685383 1.724591,-2.616086 2.112993,-2.616086 0.129467,0 0.323878,0.06534 0.518079,0.173407 0.258941,0.151255 0.411653,0.194814 0.605854,0.194814 0.431563,0 0.732161,-0.323369 0.732161,-0.777119 0,-0.475372 -0.366283,-0.8006682 -0.88416,-0.8006682 -0.949473,0 -1.747858,0.7792702 -3.258334,3.0913512 L 20.571744,11.677855 C 20.269649,10.2085 20.032568,9.7768028 19.449952,9.7768028 Z M 31.703106,20.209039 v 1.896771 h 9.907734 v -1.896771 z m 0,5.68817 v 1.89463 h 9.907734 v -1.89463 z m -11.77575,2.288542 c -1.495458,0 -2.708596,0.441865 -3.639401,1.323029 -0.925739,0.881164 -1.389396,1.946201 -1.389396,3.19411 0,1.125645 0.333418,2.057355 0.999766,2.795916 0.666301,0.738563 1.402717,1.187873 2.211471,1.35086 l 0.01713,0.513798 h -2.083023 c -0.422168,0 -0.731549,-0.07147 -0.924836,-0.214083 -0.193278,-0.142593 -0.298632,-0.396218 -0.318982,-0.757851 h -0.282589 v 2.391301 h 4.273086 l -0.145577,-2.305668 c -0.76296,-0.280178 -1.280373,-0.76602 -1.549956,-1.45362 -0.269584,-0.692673 -0.404616,-1.458804 -0.404616,-2.299245 0,-1.161296 0.301077,-2.114365 0.901287,-2.858 0.605276,-0.748755 1.367868,-1.121792 2.28854,-1.121793 0.864713,1e-6 1.617691,0.350375 2.25857,1.053286 0.645991,0.702912 0.969794,1.714338 0.969794,3.033548 0,2.016975 -0.657267,3.233254 -1.969558,3.645824 l -0.196957,2.305668 h 4.270945 V 36.39153 h -0.280448 c -0.01017,0.280136 -0.09494,0.5124 -0.252617,0.695768 -0.152586,0.183363 -0.471582,0.276166 -0.954808,0.276166 h -2.119416 l 0.07493,-0.513798 c 0.976632,-0.28525 1.75098,-0.792965 2.320654,-1.526407 0.574787,-0.738562 0.860612,-1.636672 0.860612,-2.691016 0,-1.298825 -0.460159,-2.361722 -1.380831,-3.19197 -0.920672,-0.83532 -2.104136,-1.254522 -3.553769,-1.254522 z"
    id="path67" />
 </g>
 <path
   style="display:inline;mix-blend-mode:normal;fill:url(#linearGradient3403);fill-opacity:1;stroke:url(#linearGradient20558);stroke-width:1.16242;stroke-linecap:butt;stroke-linejoin:round;stroke-miterlimit:4;stroke-dasharray:none;stroke-opacity:1"
   d="M 4.7043071,3.9814882 4.6913695,60.80196 H 58.59546 l 1.022155,-2.866369 c 0,0 -23.87537,0.766388 -32.844441,-4.140386 C 16.257548,48.042344 11.401114,4.0978197 11.401114,4.0978197 Z"
   id="path1686"
   transform="matrix(0.7518797,0,0,0.7518797,0.09970467,0.02488636)" />
 <rect
   style="display:inline;fill:none;fill-opacity:1;stroke:url(#linearGradient4557);stroke-width:3.71366;stroke-linejoin:round;stroke-miterlimit:7.8;stroke-dasharray:none;stroke-opacity:0.995146"
   id="rect4539"
   width="62.567089"
   height="62.866646"
   x="1.0323594"
   y="0.59551275"
   ry="6.2447233"
   rx="5.8029528"
   transform="matrix(0.70434793,0,0,0.70291231,1.3629847,1.5442064)" />
</svg>
