<?xml version="1.0" encoding="UTF-8" standalone="no"?>
<!-- Created with Inkscape (http://www.inkscape.org/) -->

<svg
  width="48"
  height="48"
  version="1.1"
  viewBox="0 0 48 48"
  id="svg22"
  xmlns:xlink="http://www.w3.org/1999/xlink"
  xmlns="http://www.w3.org/2000/svg"
  xmlns:svg="http://www.w3.org/2000/svg">
 <defs
   id="defs12">
  <linearGradient
    id="linearGradient917">
   <stop
     style="stop-color:#000000;stop-opacity:0.99607843"
     offset="0"
     id="stop913" />
   <stop
     style="stop-color:#353a3f;stop-opacity:0.99607843"
     offset="1"
     id="stop915" />
  </linearGradient>
  <linearGradient
    xlink:href="#linearGradient3487"
    id="linearGradient3403"
    gradientUnits="userSpaceOnUse"
    x1="6.9491749"
    y1="4.5549412"
    x2="11.215498"
    y2="59.052471" />
  <linearGradient
    id="linearGradient3487">
   <stop
     style="stop-color:#32373c;stop-opacity:1"
     offset="0"
     id="stop3481" />
   <stop
     id="stop3483"
     offset="0.36804965"
     style="stop-color:#1a1a1a;stop-opacity:1" />
   <stop
     style="stop-color:#31363b;stop-opacity:1"
     offset="1"
     id="stop3485" />
  </linearGradient>
  <linearGradient
    xlink:href="#linearGradient20604"
    id="linearGradient20558"
    gradientUnits="userSpaceOnUse"
    x1="25.802212"
    y1="20.373846"
    x2="25.111048"
    y2="58.912758" />
  <linearGradient
    id="linearGradient20604">
   <stop
     id="stop20598"
     offset="0"
     style="stop-color:#3d3d3d;stop-opacity:1" />
   <stop
     style="stop-color:#000000;stop-opacity:1"
     offset="0.61772454"
     id="stop20600" />
   <stop
     id="stop20602"
     offset="1"
     style="stop-color:#3d3d3d;stop-opacity:1" />
  </linearGradient>
  <filter
    style="color-interpolation-filters:sRGB"
    id="filter20720"
    x="-0.010590356"
    y="-0.010237288"
    width="1.0211803"
    height="1.0204746">
   <feGaussianBlur
     stdDeviation="0.00019937752"
     id="feGaussianBlur20722" />
  </filter>
  <linearGradient
    gradientTransform="translate(0.36067797,-0.13016949)"
    xlink:href="#linearGradient4555"
    id="linearGradient4557"
    x1="43.499737"
    y1="64.011795"
    x2="44.141731"
    y2="0.30621234"
    gradientUnits="userSpaceOnUse" />
  <linearGradient
    id="linearGradient4555">
   <stop
     style="stop-color:#141618;stop-opacity:1"
     offset="0"
     id="stop4551" />
   <stop
     id="stop4559"
     offset="0.51820582"
     style="stop-color:#686868;stop-opacity:1" />
   <stop
     style="stop-color:#31363b;stop-opacity:1"
     offset="1"
     id="stop4553" />
  </linearGradient>
  <filter
    style="color-interpolation-filters:sRGB"
    id="filter4601"
    x="-0.029685596"
    width="1.0593712"
    y="-0.029544145"
    height="1.0590883">
   <feGaussianBlur
     stdDeviation="0.00021304942"
     id="feGaussianBlur4603" />
  </filter>
  <linearGradient
    xlink:href="#linearGradient917"
    id="linearGradient919"
    x1="7.400631"
    y1="41.743092"
    x2="33.063145"
    y2="7.1074457"
    gradientUnits="userSpaceOnUse" />
 </defs>
 <rect
   style="display:inline;fill:url(#linearGradient919);fill-opacity:1;fill-rule:evenodd;stroke:none;stroke-width:0.92782;stroke-linejoin:round;stroke-miterlimit:7.8"
   id="rect1192"
   width="42.084602"
   height="42.712109"
   x="3.1629105"
   y="3.0184898"
   ry="0" />
 <path
   style="isolation:isolate;fill:#ffffff;fill-opacity:0.15439259;stroke-width:2.34413"
   d="m 21.099928,5.2478836 c -0.02334,0.8602978 -1.523685,0.1147269 -1.589321,1.0993949 -1.66199,-0.7407451 0.126562,1.1275329 -0.04001,1.3009944 h -0.0067 l -0.126604,-0.015419 c -0.0798,-0.027088 -0.19699,-0.074929 -0.368101,-0.1826963 -0.351682,0.2812956 -0.60016,0.6493262 -0.806444,1.0595427 -1.387725,2.1589457 -2.062834,3.9592377 -2.519937,6.2306977 -0.581382,2.904371 -0.724376,6.296325 -0.665771,9.15616 0.06326,0.808727 0.264876,1.570567 0.925929,2.079246 1.861236,1.53071 3.410708,3.462269 4.974241,5.30476 3.077836,4.172839 5.773586,7.731229 7.531684,11.472465 -0.194574,-1.255646 -0.445381,-3.255195 -0.564938,-4.802317 -1.068919,-5.445408 -3.24896,-8.326346 -3.49978,-14.409357 -0.05859,-1.504932 1.563533,-4.547613 3.380236,-6.141617 2.740282,-2.409766 4.718736,-1.802634 8.216182,-1.286926 0.01875,0.0046 0.0443,0.0096 0.06301,0.01209 0.114644,0.02084 0.241706,0.04221 0.356308,0.06563 0.935327,0.08201 2.810631,0.445377 3.148186,-0.19924 -1.289197,-1.097137 -3.14106,-1.237789 -4.711623,-1.669104 -0.24604,-0.04688 -0.557907,-0.09843 -0.862644,-0.126563 l -1.535245,-0.340013 -0.384437,-0.1031 v 0.01375 l -5.499296,-1.071194 c -0.08672,-0.07972 -0.182821,-0.159401 -0.271961,-0.220328 l 5.365725,0.665733 v -0.02834 c 0.18753,0.04222 0.377394,0.07739 0.567271,0.100767 v 0.01209 l 3.790452,0.698513 c 0.654006,0.24379 1.352582,0.43132 2.006576,0.471172 1.080666,0.157067 2.451972,1.769817 2.805946,1.847175 -0.17357,-1.697184 -1.865927,-2.456678 -3.27241,-2.955979 C 35.86323,12.486487 33.406598,12.514616 33.146406,10.30645 33.076145,10.151675 33.010426,9.9994 32.926037,9.8516886 L 32.286096,9.0031134 32.3086,8.9901947 C 31.434208,7.9589858 30.20823,7.2065137 28.902551,6.9205423 27.606249,6.4727947 26.1482,6.0297687 24.776882,5.851619 24.312744,7.2205868 23.792352,4.7662721 22.674204,5.4929775 21.692011,5.6102465 21.827971,5.8680383 21.098948,5.2469793 Z m 6.774527,3.0872173 c 0.346932,-0.010002 0.743092,0.068053 1.141594,0.2390388 1.059555,0.457095 1.748721,1.4205304 1.544784,2.1542453 -0.201575,0.733711 -1.230671,0.951708 -2.290218,0.494601 C 27.211069,10.765887 26.519552,9.8165162 26.72349,9.0828014 26.852385,8.623356 27.297804,8.3537748 27.874455,8.3350218 Z"
   id="path22-3" />
 <path
   style="isolation:isolate;fill:#ffffff;fill-opacity:1;stroke-width:2.34413"
   d="m 20.969941,4.575048 c -0.02334,0.8602978 -1.523685,0.1147269 -1.589321,1.0993949 -1.66199,-0.7407451 0.126562,1.1275329 -0.04001,1.3009944 h -0.0067 l -0.126604,-0.015419 c -0.0798,-0.027088 -0.19699,-0.074929 -0.368101,-0.1826963 -0.351682,0.2812956 -0.60016,0.6493262 -0.806444,1.0595427 -1.387725,2.1589461 -2.062834,3.9592383 -2.519937,6.2306983 -0.581382,2.904371 -0.724376,6.296325 -0.665771,9.15616 0.06326,0.808727 0.264876,1.570567 0.925929,2.079246 1.861236,1.53071 3.410708,3.462269 4.974241,5.30476 3.077836,4.172839 5.773586,7.731229 7.531684,11.472465 -0.194574,-1.255646 -0.445381,-3.255195 -0.564938,-4.802317 -1.068919,-5.445408 -3.24896,-8.326346 -3.49978,-14.409357 -0.05859,-1.504932 1.563533,-4.547613 3.380236,-6.141617 2.740282,-2.409766 4.718736,-1.802634 8.216182,-1.286926 0.01875,0.0046 0.0443,0.0096 0.06301,0.01209 0.114644,0.02084 0.241706,0.04221 0.356308,0.06563 0.935327,0.08201 2.810631,0.445377 3.148186,-0.19924 -1.289197,-1.097137 -3.14106,-1.237789 -4.711623,-1.669104 -0.24604,-0.04688 -0.557907,-0.09843 -0.862644,-0.126563 l -1.535245,-0.340013 -0.384437,-0.1031 v 0.01375 l -5.499296,-1.071194 c -0.08672,-0.07972 -0.182821,-0.159401 -0.271961,-0.220328 l 5.365725,0.665733 v -0.02834 c 0.18753,0.04222 0.377394,0.07739 0.567271,0.100767 v 0.01209 l 3.790452,0.698513 c 0.654006,0.24379 1.352582,0.43132 2.006576,0.471172 1.080666,0.157067 2.451972,1.769817 2.805946,1.847175 -0.17357,-1.697184 -1.865927,-2.456678 -3.27241,-2.955979 C 35.733243,11.813652 33.276611,11.841781 33.016419,9.6336148 32.946159,9.4788398 32.880439,9.3265644 32.79605,9.178853 l -0.639941,-0.8485752 0.0225,-0.012919 C 31.304221,7.2861502 30.078243,6.5336781 28.772564,6.2477067 27.476262,5.7999591 26.018213,5.3569331 24.646895,5.1787834 24.182757,6.5477512 23.662365,4.0934365 22.544217,4.8201419 21.562024,4.9374109 21.697984,5.1952027 20.968961,4.5741437 Z m 6.774527,3.0872173 c 0.346932,-0.010002 0.743092,0.068053 1.141594,0.2390388 1.059555,0.457095 1.748721,1.4205304 1.544784,2.1542459 -0.201575,0.733711 -1.230671,0.951708 -2.290218,0.494601 -1.059546,-0.457099 -1.751063,-1.4064704 -1.547125,-2.1401852 0.128895,-0.4594454 0.574314,-0.7290266 1.150965,-0.7477796 z"
   id="path22-3-6" />
 <path
   style="display:inline;mix-blend-mode:normal;fill:url(#linearGradient3403);fill-opacity:1;stroke:url(#linearGradient20558);stroke-width:1.16242;stroke-linecap:butt;stroke-linejoin:round;stroke-miterlimit:4;stroke-dasharray:none;stroke-opacity:1"
   d="M 4.7043071,3.9814882 4.6913695,60.80196 H 58.59546 l 1.022155,-2.866369 c 0,0 -23.87537,0.766388 -32.844441,-4.140386 C 16.257548,48.042344 11.401114,4.0978197 11.401114,4.0978197 Z"
   id="path1686"
   transform="matrix(0.7518797,0,0,0.7518797,0.09970467,0.02488636)" />
 <rect
   style="display:inline;fill:none;fill-opacity:1;stroke:url(#linearGradient4557);stroke-width:3.71366;stroke-linejoin:round;stroke-miterlimit:7.8;stroke-dasharray:none;stroke-opacity:0.995146"
   id="rect4539"
   width="62.567089"
   height="62.866646"
   x="1.0323594"
   y="0.59551275"
   ry="6.2447233"
   rx="5.8029528"
   transform="matrix(0.70434793,0,0,0.70291231,1.3629847,1.5442064)" />
</svg>
