<?xml version="1.0" encoding="UTF-8" standalone="no"?>
<!-- Created with Inkscape (http://www.inkscape.org/) -->

<svg
   width="48"
   height="48"
   version="1.1"
   viewBox="0 0 48 48"
   id="svg22"
   sodipodi:docname="QOwnNotes.svg"
   inkscape:version="1.1.2 (0a00cf5339, 2022-02-04)"
   xmlns:inkscape="http://www.inkscape.org/namespaces/inkscape"
   xmlns:sodipodi="http://sodipodi.sourceforge.net/DTD/sodipodi-0.dtd"
   xmlns:xlink="http://www.w3.org/1999/xlink"
   xmlns="http://www.w3.org/2000/svg"
   xmlns:svg="http://www.w3.org/2000/svg">
  <sodipodi:namedview
     id="namedview24"
     pagecolor="#ffffff"
     bordercolor="#666666"
     borderopacity="1.0"
     inkscape:showpageshadow="2"
     inkscape:pageopacity="0.0"
     inkscape:pagecheckerboard="0"
     inkscape:deskcolor="#d1d1d1"
     showgrid="false"
     inkscape:zoom="11.25"
     inkscape:cx="-11.288889"
     inkscape:cy="29.288889"
     inkscape:window-width="3440"
     inkscape:window-height="1359"
     inkscape:window-x="0"
     inkscape:window-y="0"
     inkscape:window-maximized="1"
     inkscape:current-layer="svg22"
     inkscape:pageshadow="2" />
  <defs
     id="defs12">
    <linearGradient
       id="linearGradient1005-3-3"
       x1="5.2535"
       x2="9.3823996"
       y1="15.383"
       y2="2.9421"
       gradientTransform="matrix(0.99999,0,0,0.99999,1.632,-0.61743)"
       gradientUnits="userSpaceOnUse">
      <stop
         stop-color="#fa8200"
         offset="0"
         id="stop2" />
      <stop
         stop-color="#ff9600"
         offset=".36953"
         id="stop4" />
      <stop
         stop-color="#ffb400"
         offset="1"
         id="stop6" />
    </linearGradient>
    <filter
       id="filter4014"
       x="-0.062499932"
       y="-0.057692992"
       width="1.1249999"
       height="1.115386"
       color-interpolation-filters="sRGB">
      <feGaussianBlur
         stdDeviation="1.093751"
         id="feGaussianBlur9" />
    </filter>
    <linearGradient
       inkscape:collect="always"
       xlink:href="#linearGradient3487"
       id="linearGradient3403"
       gradientUnits="userSpaceOnUse"
       x1="6.9491749"
       y1="4.5549412"
       x2="11.215498"
       y2="59.052471" />
    <linearGradient
       id="linearGradient3487">
      <stop
         style="stop-color:#32373c;stop-opacity:1"
         offset="0"
         id="stop3481" />
      <stop
         id="stop3483"
         offset="0.36804965"
         style="stop-color:#1a1a1a;stop-opacity:1" />
      <stop
         style="stop-color:#31363b;stop-opacity:1"
         offset="1"
         id="stop3485" />
    </linearGradient>
    <linearGradient
       inkscape:collect="always"
       xlink:href="#linearGradient20604"
       id="linearGradient20558"
       gradientUnits="userSpaceOnUse"
       x1="25.802212"
       y1="20.373846"
       x2="25.111048"
       y2="58.912758" />
    <linearGradient
       id="linearGradient20604">
      <stop
         id="stop20598"
         offset="0"
         style="stop-color:#3d3d3d;stop-opacity:1" />
      <stop
         style="stop-color:#000000;stop-opacity:1"
         offset="0.61772454"
         id="stop20600" />
      <stop
         id="stop20602"
         offset="1"
         style="stop-color:#3d3d3d;stop-opacity:1" />
    </linearGradient>
    <filter
       inkscape:collect="always"
       style="color-interpolation-filters:sRGB"
       id="filter20720"
       x="-0.017024755"
       y="-0.016457183"
       width="1.0340491"
       height="1.0329144">
      <feGaussianBlur
         inkscape:collect="always"
         stdDeviation="0.14745661"
         id="feGaussianBlur20722" />
    </filter>
    <linearGradient
       gradientTransform="translate(0.36067797,-0.13016949)"
       xlink:href="#linearGradient4555"
       id="linearGradient4557"
       x1="43.499737"
       y1="64.011795"
       x2="44.141731"
       y2="0.30621234"
       gradientUnits="userSpaceOnUse" />
    <linearGradient
       id="linearGradient4555">
      <stop
         style="stop-color:#141618;stop-opacity:1"
         offset="0"
         id="stop4551" />
      <stop
         id="stop4559"
         offset="0.51820582"
         style="stop-color:#686868;stop-opacity:1" />
      <stop
         style="stop-color:#31363b;stop-opacity:1"
         offset="1"
         id="stop4553" />
    </linearGradient>
    <filter
       style="color-interpolation-filters:sRGB"
       id="filter4601"
       x="-0.030244955"
       width="1.0604899"
       y="-0.030100647"
       height="1.0602013">
      <feGaussianBlur
         stdDeviation="0.014790289"
         id="feGaussianBlur4603" />
    </filter>
    <linearGradient
       id="g"
       y1="548.89001"
       x1="393.73999"
       y2="525.04999"
       x2="393.57001"
       gradientUnits="userSpaceOnUse">
      <stop
         stop-color="#2a3561"
         id="stop8854" />
      <stop
         offset="1"
         stop-color="#192656"
         id="stop8856" />
    </linearGradient>
    <linearGradient
       id="a"
       y1="538.79999"
       x1="406.57001"
       y2="507.51999"
       gradientUnits="userSpaceOnUse"
       x2="429.12"
       gradientTransform="matrix(-1.81818,0,0,1.2469,1167.79,-128.03)">
      <stop
         stop-color="#1d1d5b"
         id="stop8824" />
      <stop
         offset="1"
         stop-color="#1f4778"
         id="stop8826" />
    </linearGradient>
    <linearGradient
       id="b"
       y1="-516.29999"
       x1="433.32001"
       y2="-498.04999"
       gradientUnits="userSpaceOnUse"
       x2="382.57001">
      <stop
         stop-color="#363d68"
         id="stop8829" />
      <stop
         offset="1"
         stop-color="#5272a2"
         stop-opacity=".427"
         id="stop8831" />
    </linearGradient>
    <linearGradient
       id="c"
       y1="61.25"
       y2="49.25"
       x1="46"
       gradientUnits="userSpaceOnUse"
       x2="45.75"
       gradientTransform="matrix(-1,0,0,1,442.57,482.8)">
      <stop
         stop-color="#3e5172"
         id="stop8834" />
      <stop
         offset="1"
         stop-color="#6f7da0"
         id="stop8836" />
    </linearGradient>
    <linearGradient
       id="d"
       y1="23.375"
       x1="52.625"
       y2="13.25"
       gradientUnits="userSpaceOnUse"
       x2="41.380001"
       gradientTransform="rotate(180,228.285,280.4)">
      <stop
         id="stop8839" />
      <stop
         offset="1"
         stop-color="#655c6f"
         stop-opacity="0"
         id="stop8841" />
    </linearGradient>
    <linearGradient
       id="e"
       x1="393.57001"
       gradientUnits="userSpaceOnUse"
       x2="439.57001">
      <stop
         stop-color="#ffffff"
         stop-opacity=".573"
         id="stop8844" />
      <stop
         offset="1"
         stop-color="#ffffff"
         stop-opacity="0"
         id="stop8846" />
    </linearGradient>
    <linearGradient
       id="f"
       x1="394.57001"
       gradientUnits="userSpaceOnUse"
       x2="435.57001">
      <stop
         stop-color="#0b084e"
         id="stop8849" />
      <stop
         offset="1"
         stop-color="#e88f21"
         stop-opacity="0"
         id="stop8851" />
    </linearGradient>
  </defs>
  <g
     transform="matrix(-1.0007117,0,0,1.0205272,434.41196,-511.48224)"
     id="g8885">
    <g
       style="color:#000000"
       id="g8865">
      <path
         style="fill:url(#g)"
         d="m 400.57,543.8 h -12 v -12 l 13,-1 z"
         id="path8861" />
      <path
         style="fill:url(#a)"
         d="m 428.57,503.8 v 40 h -28 l -12,-12 v -28 z"
         id="path8863" />
    </g>
    <g
       style="color:#4d4d4d;color-interpolation:sRGB;color-interpolation-filters:linearRGB;color-rendering:auto;image-rendering:auto;shape-rendering:auto;text-rendering:auto"
       id="g8871">
      <rect
         style="fill:url(#b)"
         x="388.57001"
         y="-510.79999"
         width="40"
         height="7"
         transform="scale(1,-1)"
         id="rect8867" />
      <path
         style="opacity:0.39;fill:#8bddff"
         d="m 408.41016,515.9245 a 6.221607,6.221607 0 0 1 6.22161,6.2216 6.221607,6.221607 0 0 1 -0.0712,0.89054 4.444005,4.444005 0 0 1 0.0712,-0.002 4.444005,4.444005 0 0 1 4.444,4.44401 4.444005,4.444005 0 0 1 -4.444,4.444 h -11.554 a 5.332806,5.332806 0 0 1 -5.3328,-5.33281 5.332806,5.332806 0 0 1 4.50476,-5.26337 6.221607,6.221607 0 0 1 6.16085,-5.40224 m 0,0.88907 a 5.332806,5.332806 0 0 0 -0.53294,0.026 5.332806,5.332806 0 0 0 -2.47718,0.90616 5.332806,5.332806 0 0 0 -0.002,0 5.332806,5.332806 0 0 0 -1.16482,1.08496 5.332806,5.332806 0 0 0 0,0.002 5.332806,5.332806 0 0 0 -1.07975,2.42858 5.332806,5.332806 0 0 0 -0.0763,0.88528 4.444005,4.444005 0 0 0 -0.88532,0.0885 4.444005,4.444005 0 0 0 -0.42879,0.10937 4.444005,4.444005 0 0 0 -0.002,0 4.444005,4.444005 0 0 0 -0.41489,0.15275 4.444005,4.444005 0 0 0 -0.002,0 4.444005,4.444005 0 0 0 -0.39754,0.1927 4.444005,4.444005 0 0 0 -0.004,0.002 4.444005,4.444005 0 0 0 -0.37496,0.23088 4.444005,4.444005 0 0 0 -0.004,0.002 4.444005,4.444005 0 0 0 -0.35066,0.26734 4.444005,4.444005 0 0 0 -0.002,0.002 4.444005,4.444005 0 0 0 -0.3229,0.30031 4.444005,4.444005 0 0 0 -0.002,0.002 4.444005,4.444005 0 0 0 -0.5503,0.69438 4.444005,4.444005 0 0 0 -0.002,0.002 4.444005,4.444005 0 0 0 -0.21873,0.38365 4.444005,4.444005 0 0 0 -0.002,0.002 4.444005,4.444005 0 0 0 -0.18054,0.40274 4.444005,4.444005 0 0 0 -0.002,0.002 4.444005,4.444005 0 0 0 -0.13887,0.42011 4.444005,4.444005 0 0 0 0,0.002 4.444005,4.444005 0 0 0 -0.0972,0.43225 4.444005,4.444005 0 0 0 0,0.002 4.444005,4.444005 0 0 0 -0.0538,0.43919 4.444005,4.444005 0 0 0 -0.0101,0.31383 4.444005,4.444005 0 0 0 4.444,4.444 h 11.554 a 3.555204,3.555204 0 0 0 3.55521,-3.5552 3.555204,3.555204 0 0 0 -0.0173,-0.35413 3.555204,3.555204 0 0 0 -3.53785,-3.20107 3.555204,3.555204 0 0 0 -0.2656,0.0122 3.555204,3.555204 0 0 0 0,0.002 3.555204,3.555204 0 0 0 -1.02768,0.23262 5.332806,5.332806 0 0 0 0.3038,-1.019 5.332806,5.332806 0 0 0 0.0659,-0.45135 5.332806,5.332806 0 0 0 0.0122,-0.10241 5.332806,5.332806 0 0 0 0.0226,-0.45139 5.332806,5.332806 0 0 0 -0.026,-0.53293 5.332806,5.332806 0 0 0 -5.30676,-4.79987 z"
         id="path8869" />
    </g>
    <g
       style="fill-rule:evenodd"
       id="g8877">
      <path
         style="fill:url(#c)"
         d="m 388.57,531.8 12,12 v -12 z"
         id="path8873" />
      <path
         style="opacity:0.2;fill:url(#d)"
         d="m 412.57,543.8 -12,-12 v 12 z"
         id="path8875" />
    </g>
    <g
       style="color:#4d4d4d;color-interpolation:sRGB;color-interpolation-filters:linearRGB;color-rendering:auto;image-rendering:auto;shape-rendering:auto;text-rendering:auto"
       id="g8883">
      <rect
         style="opacity:0.256;fill:url(#e)"
         x="388.57001"
         y="-504.79999"
         width="40"
         height="1"
         transform="scale(1,-1)"
         id="rect8879" />
      <rect
         style="opacity:0.144;fill:url(#f)"
         x="388.57001"
         y="-511.79999"
         width="40"
         height="1"
         transform="scale(1,-1)"
         id="rect8881" />
    </g>
  </g>
  <path
     style="display:inline;mix-blend-mode:normal;fill:url(#linearGradient3403);fill-opacity:1;stroke:url(#linearGradient20558);stroke-width:1.16242;stroke-linecap:butt;stroke-linejoin:round;stroke-miterlimit:4;stroke-dasharray:none;stroke-opacity:1;filter:url(#filter20720)"
     d="M 4.7043071,3.9814882 4.6913695,60.80196 H 58.59546 l 1.022155,-2.866369 c 0,0 -23.87537,0.766388 -32.844441,-4.140386 C 16.257548,48.042344 11.401114,4.0978197 11.401114,4.0978197 Z"
     id="path1686"
     sodipodi:nodetypes="ccccscc"
     transform="matrix(0.7518797,0,0,0.7518797,0.09970467,0.02488636)"
     inkscape:label="folder" />
  <rect
     style="display:inline;fill:none;fill-opacity:1;stroke:url(#linearGradient4557);stroke-width:3.71366;stroke-linejoin:round;stroke-miterlimit:7.8;stroke-dasharray:none;stroke-opacity:0.995146;filter:url(#filter4601)"
     id="rect4539"
     width="62.566689"
     height="62.866646"
     x="1.0323594"
     y="0.59551275"
     ry="6.2447233"
     rx="5.8029528"
     transform="matrix(0.70434793,0,0,0.70291231,1.3629847,1.5442064)"
     inkscape:label="contour" />
</svg>
