<?xml version="1.0" encoding="UTF-8" standalone="no"?>
<!-- Created with Inkscape (http://www.inkscape.org/) -->

<svg
  width="48"
  height="48"
  version="1.1"
  viewBox="0 0 48 48"
  id="svg22"
  xmlns:xlink="http://www.w3.org/1999/xlink"
  xmlns="http://www.w3.org/2000/svg"
  xmlns:svg="http://www.w3.org/2000/svg">
 <defs
   id="defs12">
  <linearGradient
    id="linearGradient1005-3-3"
    x1="5.2535"
    x2="9.3823996"
    y1="15.383"
    y2="2.9421"
    gradientTransform="matrix(0.99999,0,0,0.99999,1.632,-0.61743)"
    gradientUnits="userSpaceOnUse">
   <stop
     stop-color="#fa8200"
     offset="0"
     id="stop2" />
   <stop
     stop-color="#ff9600"
     offset=".36953"
     id="stop4" />
   <stop
     stop-color="#ffb400"
     offset="1"
     id="stop6" />
  </linearGradient>
  <filter
    id="filter4014"
    x="-0.062499932"
    y="-0.057692992"
    width="1.1249999"
    height="1.115386"
    color-interpolation-filters="sRGB">
   <feGaussianBlur
     stdDeviation="1.093751"
     id="feGaussianBlur9" />
  </filter>
  <linearGradient
    xlink:href="#linearGradient3487"
    id="linearGradient3403"
    gradientUnits="userSpaceOnUse"
    x1="6.9491749"
    y1="4.5549412"
    x2="11.215498"
    y2="59.052471" />
  <linearGradient
    id="linearGradient3487">
   <stop
     style="stop-color:#32373c;stop-opacity:1"
     offset="0"
     id="stop3481" />
   <stop
     id="stop3483"
     offset="0.36804965"
     style="stop-color:#1a1a1a;stop-opacity:1" />
   <stop
     style="stop-color:#31363b;stop-opacity:1"
     offset="1"
     id="stop3485" />
  </linearGradient>
  <linearGradient
    xlink:href="#linearGradient20604"
    id="linearGradient20558"
    gradientUnits="userSpaceOnUse"
    x1="25.802212"
    y1="20.373846"
    x2="25.111048"
    y2="58.912758" />
  <linearGradient
    id="linearGradient20604">
   <stop
     id="stop20598"
     offset="0"
     style="stop-color:#3d3d3d;stop-opacity:1" />
   <stop
     style="stop-color:#000000;stop-opacity:1"
     offset="0.61772454"
     id="stop20600" />
   <stop
     id="stop20602"
     offset="1"
     style="stop-color:#3d3d3d;stop-opacity:1" />
  </linearGradient>
  <linearGradient
    gradientTransform="translate(0.36067797,-0.13016949)"
    xlink:href="#linearGradient4555"
    id="linearGradient4557"
    x1="43.499737"
    y1="64.011795"
    x2="44.141731"
    y2="0.30621234"
    gradientUnits="userSpaceOnUse" />
  <linearGradient
    id="linearGradient4555">
   <stop
     style="stop-color:#141618;stop-opacity:1"
     offset="0"
     id="stop4551" />
   <stop
     id="stop4559"
     offset="0.51820582"
     style="stop-color:#686868;stop-opacity:1" />
   <stop
     style="stop-color:#31363b;stop-opacity:1"
     offset="1"
     id="stop4553" />
  </linearGradient>
  <filter
    style="color-interpolation-filters:sRGB"
    id="filter4601"
    x="-0.029679885"
    width="1.0593598"
    y="-0.029538273"
    height="1.0590765">
   <feGaussianBlur
     stdDeviation="5.9225505e-05"
     id="feGaussianBlur4603" />
  </filter>
  <linearGradient
    gradientTransform="translate(0.36135313,-0.12490449)"
    xlink:href="#linearGradient4585"
    id="linearGradient4587-3"
    x1="11.086592"
    y1="53.859512"
    x2="35.057411"
    y2="5.1285472"
    gradientUnits="userSpaceOnUse" />
  <linearGradient
    id="linearGradient4585">
   <stop
     style="stop-color:#51a639;stop-opacity:1"
     offset="0"
     id="stop4581" />
   <stop
     style="stop-color:#c1cd5a;stop-opacity:1"
     offset="1"
     id="stop4583" />
  </linearGradient>
  <linearGradient
    gradientUnits="userSpaceOnUse"
    y2="518.59198"
    x2="421.56601"
    y1="507.798"
    x1="416.57101"
    id="linearGradient4202"
    xlink:href="#linearGradient4167" />
  <linearGradient
    id="linearGradient4167">
   <stop
     id="stop7664"
     style="stop-color:#fff8ac;stop-opacity:1"
     offset="0" />
   <stop
     id="stop7666"
     style="stop-color:#f6bf3a;stop-opacity:1"
     offset="1" />
  </linearGradient>
  <linearGradient
    gradientUnits="userSpaceOnUse"
    y2="35"
    x2="30"
    y1="14"
    x1="9"
    id="linearGradient4229"
    xlink:href="#linearGradient4223" />
  <linearGradient
    id="linearGradient4223">
   <stop
     id="stop7654"
     offset="0"
     style="stop-color:#000000;stop-opacity:1;" />
   <stop
     id="stop7656"
     offset="1"
     style="stop-color:#000000;stop-opacity:0;" />
  </linearGradient>
 </defs>
 <g
   id="g883"
   transform="matrix(0.66229733,0,0,0.66229733,3.2976127,2.1275192)">
  <rect
    style="opacity:1;fill:url(#linearGradient4587-3);fill-opacity:1;stroke:none;stroke-width:1.146;stroke-linejoin:round;stroke-miterlimit:7.8;stroke-dasharray:none;stroke-opacity:0.995146"
    id="rect4539-1"
    width="62.567139"
    height="62.866646"
    x="1.033034"
    y="0.60077608" />
  <g
    id="g7692"
    transform="matrix(1.33,0,0,1.33,-505.88417,-663.52835)">
   <path
     id="path7678"
     d="m 419.57143,517.22657 3.708,2.57143 -0.981,-4.71429 3.273,-3.28571 h -4.314 l -1.686,-4 -1.686,4 h -4.314 l 3.273,3.28571 -0.98101,4.71429 z"
     style="opacity:0.1;fill:#000000;fill-opacity:1" />
   <path
     id="path7680"
     style="opacity:1;fill:url(#linearGradient4202);fill-opacity:1"
     d="m 419.57143,516.22657 3.708,2.57143 -0.981,-4.71429 3.273,-3.28571 h -4.314 l -1.686,-4 -1.686,4 h -4.314 l 3.273,3.28571 -0.98101,4.71429 z" />
   <path
     id="path7682"
     transform="translate(384.57143,499.798)"
     d="m 18.404297,13.851562 -8.4179689,3.103516 6.9160159,6.916016 -6.865235,3.160156 4.777344,4.777344 -4.123047,4.125 L 18.757812,44 H 41 c 1.662,0 3,-1.338 3,-3 V 33.902344 L 28.037109,17.939453 Z"
     style="opacity:0.25;fill:url(#linearGradient4229);fill-opacity:1;stroke:none;stroke-width:2;stroke-linecap:round;stroke-linejoin:round;stroke-miterlimit:4;stroke-dasharray:none;stroke-opacity:1" />
   <g
     id="g7690"
     transform="translate(382.57143,499.798)">
    <circle
      id="circle7684"
      style="opacity:1;fill:#f9f9f9;fill-opacity:1;stroke:none"
      cx="15"
      cy="34"
      r="3" />
    <path
      id="path7686"
      style="opacity:1;fill:#f9f9f9;fill-opacity:1;stroke:none"
      d="m 12,22 v 5 h 2.5 c 4.142,0 7.5,3.358 7.5,7.5 V 37 h 5 V 34.5 C 27,27.596 21.404,22 14.5,22" />
    <path
      id="path7688"
      style="opacity:1;fill:#f9f9f9;fill-opacity:1;stroke:none"
      d="m 12,12 v 5 h 3 a 17,17 0 0 1 17,17 v 3 h 5 V 34 A 22,22 0 0 0 15,12 Z" />
   </g>
  </g>
 </g>
 <path
   style="display:inline;mix-blend-mode:normal;fill:url(#linearGradient3403);fill-opacity:1;stroke:url(#linearGradient20558);stroke-width:1.16242;stroke-linecap:butt;stroke-linejoin:round;stroke-miterlimit:4;stroke-dasharray:none;stroke-opacity:1"
   d="M 4.7043071,3.9814882 4.6913695,60.80196 H 58.59546 l 1.022155,-2.866369 c 0,0 -23.87537,0.766388 -32.844441,-4.140386 C 16.257548,48.042344 11.401114,4.0978197 11.401114,4.0978197 Z"
   id="path1686"
   transform="matrix(0.7518797,0,0,0.7518797,0.09970467,0.02488636)" />
 <rect
   style="display:inline;fill:none;fill-opacity:1;stroke:url(#linearGradient4557);stroke-width:3.71366;stroke-linejoin:round;stroke-miterlimit:7.8;stroke-dasharray:none;stroke-opacity:0.995146"
   id="rect4539"
   width="62.566689"
   height="62.866646"
   x="1.0323594"
   y="0.59551275"
   ry="6.2447233"
   rx="5.8029528"
   transform="matrix(0.70434793,0,0,0.70291231,1.3629847,1.5442064)" />
</svg>
