<?xml version="1.0" encoding="UTF-8" standalone="no"?>
<!-- Created with Inkscape (http://www.inkscape.org/) -->

<svg
  width="48"
  height="48"
  version="1.1"
  viewBox="0 0 48 48"
  id="svg22"
  xmlns:xlink="http://www.w3.org/1999/xlink"
  xmlns="http://www.w3.org/2000/svg"
  xmlns:svg="http://www.w3.org/2000/svg">
 <defs
   id="defs12">
  <linearGradient
    id="linearGradient1005-3-3"
    x1="5.2535"
    x2="9.3823996"
    y1="15.383"
    y2="2.9421"
    gradientTransform="matrix(0.99999,0,0,0.99999,1.632,-0.61743)"
    gradientUnits="userSpaceOnUse">
   <stop
     stop-color="#fa8200"
     offset="0"
     id="stop2" />
   <stop
     stop-color="#ff9600"
     offset=".36953"
     id="stop4" />
   <stop
     stop-color="#ffb400"
     offset="1"
     id="stop6" />
  </linearGradient>
  <filter
    id="filter4014"
    x="-0.062499932"
    y="-0.057692992"
    width="1.1249999"
    height="1.115386"
    color-interpolation-filters="sRGB">
   <feGaussianBlur
     stdDeviation="1.093751"
     id="feGaussianBlur9" />
  </filter>
  <linearGradient
    xlink:href="#linearGradient3487"
    id="linearGradient3403"
    gradientUnits="userSpaceOnUse"
    x1="6.9491749"
    y1="4.5549412"
    x2="11.215498"
    y2="59.052471" />
  <linearGradient
    id="linearGradient3487">
   <stop
     style="stop-color:#32373c;stop-opacity:1"
     offset="0"
     id="stop3481" />
   <stop
     id="stop3483"
     offset="0.36804965"
     style="stop-color:#1a1a1a;stop-opacity:1" />
   <stop
     style="stop-color:#31363b;stop-opacity:1"
     offset="1"
     id="stop3485" />
  </linearGradient>
  <linearGradient
    xlink:href="#linearGradient20604"
    id="linearGradient20558"
    gradientUnits="userSpaceOnUse"
    x1="25.802212"
    y1="20.373846"
    x2="25.111048"
    y2="58.912758" />
  <linearGradient
    id="linearGradient20604">
   <stop
     id="stop20598"
     offset="0"
     style="stop-color:#3d3d3d;stop-opacity:1" />
   <stop
     style="stop-color:#000000;stop-opacity:1"
     offset="0.61772454"
     id="stop20600" />
   <stop
     id="stop20602"
     offset="1"
     style="stop-color:#3d3d3d;stop-opacity:1" />
  </linearGradient>
  <linearGradient
    gradientTransform="translate(0.36067797,-0.13016949)"
    xlink:href="#linearGradient4555"
    id="linearGradient4557"
    x1="43.499737"
    y1="64.011795"
    x2="44.141731"
    y2="0.30621234"
    gradientUnits="userSpaceOnUse" />
  <linearGradient
    id="linearGradient4555">
   <stop
     style="stop-color:#141618;stop-opacity:1"
     offset="0"
     id="stop4551" />
   <stop
     id="stop4559"
     offset="0.51820582"
     style="stop-color:#686868;stop-opacity:1" />
   <stop
     style="stop-color:#31363b;stop-opacity:1"
     offset="1"
     id="stop4553" />
  </linearGradient>
  <filter
    style="color-interpolation-filters:sRGB"
    id="filter4601"
    x="-0.029677723"
    width="1.0593554"
    y="-0.029536121"
    height="1.0590722">
   <feGaussianBlur
     stdDeviation="2.8570951e-06"
     id="feGaussianBlur4603" />
  </filter>
  <linearGradient
    gradientUnits="userSpaceOnUse"
    y2="5.1285472"
    x2="35.057411"
    y1="53.859512"
    x1="11.086592"
    id="linearGradient4587-3"
    xlink:href="#linearGradient4585"
    gradientTransform="translate(0.36135313,-0.12490449)" />
  <linearGradient
    id="linearGradient4585">
   <stop
     id="stop4581"
     offset="0"
     style="stop-color:#070707;stop-opacity:1" />
   <stop
     id="stop4583"
     offset="1"
     style="stop-color:#818181;stop-opacity:1" />
  </linearGradient>
  <linearGradient
    id="a"
    y1="61.200001"
    x1="-162.28999"
    y2="505.06"
    gradientUnits="userSpaceOnUse"
    x2="737.63"
    gradientTransform="matrix(0.06535,0.02041,-0.01819,0.05824,8.418,-1.328)">
   <stop
     stop-color="#fafafa"
     id="stop7265" />
   <stop
     offset="1"
     stop-color="#939393"
     id="stop7267" />
  </linearGradient>
  <linearGradient
    id="b"
    y1="41"
    x1="41"
    y2="18.25"
    x2="21.129999"
    gradientUnits="userSpaceOnUse">
   <stop
     stop-color="#502ae3"
     id="stop7270" />
   <stop
     offset="1"
     stop-color="#4db4f6"
     id="stop7272" />
  </linearGradient>
 </defs>
 <g
   id="g879"
   transform="matrix(0.65419247,0,0,0.65419247,3.7381136,2.4347185)">
  <rect
    y="0.60077608"
    x="1.033034"
    height="62.866646"
    width="62.567139"
    id="rect4539-1"
    style="opacity:1;fill:url(#linearGradient4587-3);fill-opacity:1;stroke:none;stroke-width:1.146;stroke-linejoin:round;stroke-miterlimit:7.8;stroke-dasharray:none;stroke-opacity:0.995146" />
  <g
    style="fill-rule:evenodd"
    transform="matrix(1.33,0,0,1.33,5.0163366,7.8870163)"
    id="g7289">
   <path
     style="color:#000000;color-interpolation:sRGB;color-interpolation-filters:linearRGB;fill:url(#a);color-rendering:auto;image-rendering:auto;shape-rendering:auto;text-rendering:auto"
     d="M 28.888715,5.374114 A 21.399735,17.01024 17.343928 0 0 3.391438,15.231519 21.399735,17.01024 17.343928 0 0 18.747047,37.847552 21.399735,17.01024 17.343928 0 0 44.24432,27.990144 21.399735,17.01024 17.343928 0 0 28.888715,5.374114 m 1.025951,6.582719 A 15.960636,12.680357 17.343928 0 1 41.36979,28.820272 15.960636,12.680357 17.343928 0 1 22.354254,36.16513 15.960636,12.680357 17.343928 0 1 10.900331,19.304459 15.960636,12.680357 17.343928 0 1 29.914666,11.956833"
     id="path7277" />
   <path
     style="fill:url(#b)"
     d="m 41.546,41.02 -6.863,0.004 -4.677,-6.913 c 0,0 -0.753,-1.295 -1.216,-1.671 -0.386,-0.313 -0.551,-0.425 -0.933,-0.425 h -0.868 l 0.002,9 -5.958,0.003 v -23 h 12.972 c 0,0 5.257,0.97 5.364,6.177 0.119,5.805 -5.081,7.513 -5.081,7.513 0.713,0.292 6.449,7.967 7.259,9.308 m -10.285,-18.01 -4.212,-0.003 -0.002,3.911 4.214,-0.001 c 0,0 1.952,-0.006 1.952,-1.989 0,-2.023 -1.952,-1.917 -1.952,-1.917"
     id="path7279" />
   <g
     style="fill:#ffffff;fill-opacity:0.196"
     id="g7285">
    <path
      d="m 21.03,18.02 v 1 h 12.973 c 0,0 5.278,0.983 5.363,5.178 C 39.26,18.991 34.003,18.02 34.003,18.02 Z"
      id="path7281" />
    <path
      style="color:#000000;color-interpolation:sRGB;color-interpolation-filters:linearRGB;color-rendering:auto;image-rendering:auto;shape-rendering:auto;text-rendering:auto"
      d="m 33.21,24.924 c 0,1.983 -1.953,1.99 -1.953,1.99 h -4.213 v 1 h 4.213 c 0,0 1.953,0.086 1.953,-2.99"
      id="path7283" />
   </g>
   <path
     style="color:#000000;color-interpolation:sRGB;color-interpolation-filters:linearRGB;fill-opacity:0.103;color-rendering:auto;image-rendering:auto;shape-rendering:auto;text-rendering:auto"
     d="m 16.517578,4.599609 a 21.399735,17.01024 17.343928 0 0 -0.597656,0.142578 c 0.201,-0.045 0.394,-0.103 0.598,-0.143 M 26.801,4.814 c 0.695,0.158 1.389,0.344 2.088,0.561 A 21.399735,17.01024 17.343928 0 0 26.800781,4.814453 M 28.889,5.375 c 0.59,0.184 1.161,0.396 1.727,0.615 A 21.399735,17.01024 17.343928 0 0 28.888672,5.375 M 14.634766,5.058594 a 21.399735,17.01024 17.343928 0 0 -0.751954,0.251953 c 0.251,-0.083 0.496,-0.177 0.752,-0.252 m -1.808594,0.619141 a 21.399735,17.01024 17.343928 0 0 -0.699219,0.308594 c 0.233,-0.103 0.46,-0.214 0.699,-0.309 m 18.877,0.771 c 0.281,0.124 0.564,0.245 0.838,0.377 A 21.399735,17.01024 17.343928 0 0 31.703125,6.449219 m -20.595703,0.00781 a 21.399735,17.01024 17.343928 0 0 -0.609375,0.34375 c 0.203,-0.115 0.4,-0.236 0.609,-0.344 M 9.509391,7.386469 A 21.399735,17.01024 17.343928 0 0 8.984375,7.757813 C 9.159,7.634 9.329,7.505 9.51,7.387 m 24.13,0.014 c 0.252,0.136 0.505,0.271 0.75,0.414 A 21.399735,17.01024 17.343928 0 0 33.64,7.400937 M 8.05273,8.457031 A 21.399735,17.01024 17.343928 0 0 7.595703,8.859375 C 7.748,8.725 7.895,8.586 8.05,8.457 M 35.5,8.51 c 0.206,0.135 0.415,0.266 0.615,0.406 A 21.399735,17.01024 17.343928 0 0 35.5,8.509766 m 1.686,1.211 c 0.19,0.149 0.384,0.295 0.568,0.449 A 21.399735,17.01024 17.343928 0 0 37.18555,9.720703 M 25.21,10.178 C 18.534,10.02 12.596,13.873 10.9,19.305 A 15.960636,12.680357 17.343928 0 1 29.914062,11.957031 15.960636,12.680357 17.343928 0 1 41.8125,25.25586 C 41.589,19.376 36.887,13.13 29.914,10.957 28.336,10.464 26.756,10.214 25.21,10.178 m 13.463,0.82 c 0.194,0.181 0.394,0.357 0.58,0.543 a 21.399735,17.01024 17.343928 0 0 -0.580078,-0.542969 m 1.371,1.391 c 0.18,0.2 0.368,0.395 0.539,0.6 A 21.399735,17.01024 17.343928 0 0 40.04883,12.388672 M 4.574219,12.529297 a 21.399735,17.01024 17.343928 0 0 -0.037109,0.06445 c 0.012,-0.022 0.025,-0.043 0.037,-0.064 m 36.697,1.344 c 0.163,0.217 0.336,0.429 0.488,0.65 a 21.399735,17.01024 17.343928 0 0 -0.48763,-0.6507 M 3.847656,14.00195 a 21.399735,17.01024 17.343928 0 0 -0.089844,0.214844 c 0.029,-0.072 0.06,-0.143 0.09,-0.215 m 38.498,1.453 c 0.134,0.22 0.28,0.436 0.404,0.66 a 21.399735,17.01024 17.343928 0 0 -0.404297,-0.660156 m 1.014,1.889 c 0.061,0.131 0.132,0.26 0.189,0.393 A 21.399735,17.01024 17.343928 0 0 43.35938,17.34375 m -32.715,3.01 c -0.049,0.243 -0.081,0.486 -0.111,0.73 a 15.960636,12.680357 17.343928 0 1 0.111328,-0.730469 m -0.168,1.232 c -0.021,0.278 -0.025,0.556 -0.023,0.834 a 15.960636,12.680357 17.343928 0 1 0.02344,-0.833985 m -0.018,1.268 c 0.013,0.286 0.042,0.571 0.078,0.855 a 15.960636,12.680357 17.343928 0 1 -0.07813,-0.855469 m 0.137,1.297 c 0.047,0.283 0.111,0.565 0.18,0.846 A 15.960636,12.680357 17.343928 0 1 10.59633,24.150124 m 0.287,1.281 c 0.079,0.276 0.176,0.548 0.275,0.82 a 15.960636,12.680357 17.343928 0 1 -0.27552,-0.821436 m -6.802734,0.03906 a 21.399735,17.01024 17.343928 0 0 0.261719,0.541016 C 4.257,25.829 4.159,25.651 4.08,25.469 m 37.736326,0.269529 a 15.960636,12.680357 17.343928 0 1 -0.01953,0.728516 c 0.017,-0.242 0.019,-0.485 0.02,-0.729 m -30.488,0.977 c 0.104,0.255 0.224,0.507 0.346,0.758 a 15.960636,12.680357 17.343928 0 1 -0.345703,-0.757812 m -6.443359,0.390625 a 21.399735,17.01024 17.343928 0 0 0.431641,0.703125 C 5.173,27.574 5.02,27.344 4.885,27.11 m 36.837888,0.03516 a 15.960636,12.680357 17.343928 0 1 -0.08984,0.59375 c 0.038,-0.196 0.063,-0.395 0.09,-0.594 m -29.813,0.814 c 0.131,0.246 0.28,0.486 0.428,0.727 A 15.960636,12.680357 17.343928 0 1 11.910156,27.95508 M 5.869141,28.6875 a 21.399735,17.01024 17.343928 0 0 0.519531,0.695312 C 6.214,29.15 6.03,28.924 5.869,28.688 m 38,0.338 c -0.024,0.06 -0.049,0.12 -0.074,0.18 a 21.399735,17.01024 17.343928 0 0 0.07422,-0.179687 m -31.24,0.135 c 0.162,0.242 0.342,0.476 0.52,0.711 a 15.960636,12.680357 17.343928 0 1 -0.519532,-0.710938 m 28.2832,0.847656 a 15.960636,12.680357 17.343928 0 1 -0.599609,1.123047 c 0.222,-0.361 0.423,-0.734 0.6,-1.123 m -0.599609,1.123047 a 15.960636,12.680357 17.343928 0 1 -2.623047,2.910157 c 1.05,-0.822 1.939,-1.799 2.623,-2.91 m -2.623047,2.910157 a 15.960636,12.680357 17.343928 0 1 -1.089844,0.763672 c 0.38,-0.237 0.743,-0.492 1.09,-0.764 M 7.04688,30.23047 a 21.399735,17.01024 17.343928 0 0 0.527344,0.589843 C 7.398,30.624 7.215,30.431 7.05,30.23 m 6.428,0.074 c 0.219,0.27 0.459,0.53 0.699,0.789 a 15.960636,12.680357 17.343928 0 1 -0.699219,-0.789062 m 29.633,0.305 c -0.019,0.035 -0.039,0.069 -0.059,0.104 a 21.399735,17.01024 17.343928 0 0 0.05859,-0.103516 m -28.672,0.775 c 0.341,0.351 0.7,0.69 1.078,1.018 a 15.960636,12.680357 17.343928 0 1 -1.078125,-1.017578 m 1.078,1.018 c 1.14,0.986 2.445,1.858 3.889,2.576 a 15.960636,12.680357 17.343928 0 1 -3.888672,-2.576172 m 3.889,2.576 c 0.465,0.232 0.944,0.446 1.438,0.645 a 15.960636,12.680357 17.343928 0 1 -1.4375,-0.644531 M 8.392578,31.695312 a 21.399735,17.01024 17.343928 0 0 0.53125,0.496094 C 8.747,32.03 8.563,31.865 8.393,31.695 m 33.766,0.387 c -0.011,0.015 -0.022,0.028 -0.033,0.043 a 21.399735,17.01024 17.343928 0 0 0.0332,-0.04297 M 9.88381,33.052733 a 21.399735,17.01024 17.343928 0 0 0.597656,0.470704 C 10.281,33.367 10.08,33.21 9.883,33.05 m 1.609375,1.232422 a 21.399735,17.01024 17.343928 0 0 0.660156,0.439453 c -0.221,-0.145 -0.445,-0.288 -0.66,-0.439 m 28.563,0.063 c -0.16,0.142 -0.314,0.288 -0.48,0.424 A 21.399735,17.01024 17.343928 0 0 40.056,34.346047 m -3.837891,0.673828 a 15.960636,12.680357 17.343928 0 1 -0.802735,0.441407 c 0.277,-0.136 0.539,-0.289 0.803,-0.441 m -22.941406,0.40625 a 21.399735,17.01024 17.343928 0 0 0.658203,0.363282 c -0.22,-0.12 -0.443,-0.238 -0.658,-0.363 m 25.418,0.004 c -0.195,0.139 -0.384,0.283 -0.586,0.414 a 21.399735,17.01024 17.343928 0 0 0.585937,-0.414062 m -3.800781,0.261718 a 15.960636,12.680357 17.343928 0 1 -0.765625,0.326172 c 0.262,-0.099 0.513,-0.214 0.766,-0.326 m -1.320312,0.511719 a 15.960636,12.680357 17.343928 0 1 -0.8125,0.257813 c 0.277,-0.076 0.544,-0.168 0.813,-0.258 m 3.629,0.178 c -0.23,0.131 -0.455,0.269 -0.693,0.391 a 21.399735,17.01024 17.343928 0 0 0.69336,-0.390626 m -22.10547,0.01172 a 21.399735,17.01024 17.343928 0 0 0.867188,0.390625 c -0.291,-0.128 -0.583,-0.254 -0.867,-0.391 m 8.559,0.121 c 0.308,0.074 0.615,0.135 0.922,0.193 a 15.960636,12.680357 17.343928 0 1 -0.921875,-0.193359 m 8.5,0.0918 a 15.960636,12.680357 17.343928 0 1 -0.81239,0.176866 c 0.274,-0.05 0.541,-0.113 0.809,-0.176 m -6.969,0.213 c 0.335,0.053 0.667,0.092 1,0.127 a 15.960636,12.680357 17.343928 0 1 -1,-0.126954 m 5.542969,0.05469 a 15.960636,12.680357 17.343928 0 1 -0.917969,0.113281 c 0.31,-0.028 0.614,-0.069 0.918,-0.113 m -3.98,0.129 c 0.338,0.026 0.672,0.037 1.01,0.045 a 15.960636,12.680357 17.343928 0 1 -1.00586,-0.04492 m 2.580078,0.01563 a 15.960636,12.680357 17.343928 0 1 -1.042969,0.04102 c 0.352,-0.002 0.697,-0.019 1.043,-0.041 m 6.23,0.193 c -0.25,0.111 -0.493,0.231 -0.75,0.332 a 21.399735,17.01024 17.343928 0 0 0.75,-0.332031 m -18.546875,0.01563 a 21.399735,17.01024 17.343928 0 0 1.734375,0.61914 c -0.593,-0.185 -1.166,-0.398 -1.734,-0.619 m 16.729,0.688 c -0.247,0.082 -0.487,0.173 -0.738,0.246 a 21.399735,17.01024 17.343928 0 0 0.738281,-0.246093 m -2.029,0.564 c -0.199,0.045 -0.392,0.101 -0.594,0.141 a 21.399735,17.01024 17.343928 0 0 0.59375,-0.140625"
     id="path7287" />
  </g>
 </g>
 <path
   style="display:inline;mix-blend-mode:normal;fill:url(#linearGradient3403);fill-opacity:1;stroke:url(#linearGradient20558);stroke-width:1.16242;stroke-linecap:butt;stroke-linejoin:round;stroke-miterlimit:4;stroke-dasharray:none;stroke-opacity:1"
   d="M 4.7043071,3.9814882 4.6913695,60.80196 H 58.59546 l 1.022155,-2.866369 c 0,0 -23.87537,0.766388 -32.844441,-4.140386 C 16.257548,48.042344 11.401114,4.0978197 11.401114,4.0978197 Z"
   id="path1686"
   transform="matrix(0.7518797,0,0,0.7518797,0.09970467,0.02488636)" />
 <rect
   style="display:inline;fill:none;fill-opacity:1;stroke:url(#linearGradient4557);stroke-width:3.71366;stroke-linejoin:round;stroke-miterlimit:7.8;stroke-dasharray:none;stroke-opacity:0.995146"
   id="rect4539"
   width="62.566689"
   height="62.866646"
   x="1.0323594"
   y="0.59551275"
   ry="6.2447233"
   rx="5.8029528"
   transform="matrix(0.70434793,0,0,0.70291231,1.3629847,1.5442064)" />
</svg>
