<?xml version="1.0" encoding="UTF-8" standalone="no"?>
<!-- Created with Inkscape (http://www.inkscape.org/) -->

<svg
  width="48"
  height="48"
  version="1.1"
  viewBox="0 0 48 48"
  id="svg22"
  xmlns:xlink="http://www.w3.org/1999/xlink"
  xmlns="http://www.w3.org/2000/svg"
  xmlns:svg="http://www.w3.org/2000/svg">
 <defs
   id="defs12">
  <linearGradient
    id="linearGradient1005-3-3"
    x1="5.2535"
    x2="9.3823996"
    y1="15.383"
    y2="2.9421"
    gradientTransform="matrix(0.99999,0,0,0.99999,1.632,-0.61743)"
    gradientUnits="userSpaceOnUse">
   <stop
     stop-color="#fa8200"
     offset="0"
     id="stop2" />
   <stop
     stop-color="#ff9600"
     offset=".36953"
     id="stop4" />
   <stop
     stop-color="#ffb400"
     offset="1"
     id="stop6" />
  </linearGradient>
  <filter
    id="filter4014"
    x="-0.062499932"
    y="-0.057692992"
    width="1.1249999"
    height="1.115386"
    color-interpolation-filters="sRGB">
   <feGaussianBlur
     stdDeviation="1.093751"
     id="feGaussianBlur9" />
  </filter>
  <linearGradient
    xlink:href="#linearGradient3487"
    id="linearGradient3403"
    gradientUnits="userSpaceOnUse"
    x1="6.9491749"
    y1="4.5549412"
    x2="11.215498"
    y2="59.052471" />
  <linearGradient
    id="linearGradient3487">
   <stop
     style="stop-color:#32373c;stop-opacity:1"
     offset="0"
     id="stop3481" />
   <stop
     id="stop3483"
     offset="0.36804965"
     style="stop-color:#1a1a1a;stop-opacity:1" />
   <stop
     style="stop-color:#31363b;stop-opacity:1"
     offset="1"
     id="stop3485" />
  </linearGradient>
  <linearGradient
    xlink:href="#linearGradient20604"
    id="linearGradient20558"
    gradientUnits="userSpaceOnUse"
    x1="25.802212"
    y1="20.373846"
    x2="25.111048"
    y2="58.912758" />
  <linearGradient
    id="linearGradient20604">
   <stop
     id="stop20598"
     offset="0"
     style="stop-color:#3d3d3d;stop-opacity:1" />
   <stop
     style="stop-color:#000000;stop-opacity:1"
     offset="0.61772454"
     id="stop20600" />
   <stop
     id="stop20602"
     offset="1"
     style="stop-color:#3d3d3d;stop-opacity:1" />
  </linearGradient>
  <linearGradient
    gradientTransform="translate(0.36067797,-0.13016949)"
    xlink:href="#linearGradient4555"
    id="linearGradient4557"
    x1="43.499737"
    y1="64.011795"
    x2="44.141731"
    y2="0.30621234"
    gradientUnits="userSpaceOnUse" />
  <linearGradient
    id="linearGradient4555">
   <stop
     style="stop-color:#141618;stop-opacity:1"
     offset="0"
     id="stop4551" />
   <stop
     id="stop4559"
     offset="0.51820582"
     style="stop-color:#686868;stop-opacity:1" />
   <stop
     style="stop-color:#31363b;stop-opacity:1"
     offset="1"
     id="stop4553" />
  </linearGradient>
  <filter
    style="color-interpolation-filters:sRGB"
    id="filter4601"
    x="-0.02967882"
    width="1.0593576"
    y="-0.029537212"
    height="1.0590744">
   <feGaussianBlur
     stdDeviation="3.1447423e-05"
     id="feGaussianBlur4603" />
  </filter>
  <linearGradient
    gradientUnits="userSpaceOnUse"
    y2="5.1285472"
    x2="35.057411"
    y1="53.859512"
    x1="11.086592"
    id="linearGradient4587-3"
    xlink:href="#linearGradient4585"
    gradientTransform="translate(0.36135313,-0.12490449)" />
  <linearGradient
    id="linearGradient4585">
   <stop
     id="stop4581"
     offset="0"
     style="stop-color:#302828;stop-opacity:1" />
   <stop
     id="stop4583"
     offset="1"
     style="stop-color:#ffafa5;stop-opacity:1" />
  </linearGradient>
  <filter
    height="1.0000056"
    y="-2.8043661e-06"
    width="1.0000056"
    x="-2.8177906e-06"
    id="filter4601-2"
    style="color-interpolation-filters:sRGB">
   <feGaussianBlur
     id="feGaussianBlur4603-9"
     stdDeviation="7.3458791e-05" />
  </filter>
  <linearGradient
    xlink:href="#linearGradient4174"
    id="linearGradient4181"
    x1="417.39099"
    y1="534.987"
    x2="402.98599"
    y2="504.664"
    gradientUnits="userSpaceOnUse" />
  <linearGradient
    id="linearGradient4174">
   <stop
     style="stop-color:#df2323;stop-opacity:1"
     offset="0"
     id="stop6423" />
   <stop
     style="stop-color:#e76f6f;stop-opacity:1"
     offset="1"
     id="stop6425" />
  </linearGradient>
 </defs>
 <g
   id="g881"
   transform="matrix(0.65199441,0,0,0.65199441,3.7776559,2.4899502)">
  <rect
    y="0.60077608"
    x="1.033034"
    height="62.866646"
    width="62.567139"
    id="rect4539-1"
    style="opacity:1;fill:url(#linearGradient4587-3);fill-opacity:1;stroke:none;stroke-width:1.146;stroke-linejoin:round;stroke-miterlimit:7.8;stroke-dasharray:none;stroke-opacity:0.995146" />
  <g
    transform="matrix(1.33,0,0,1.33,-505.25598,-659.92645)"
    id="g6447">
   <path
     d="m 409.63727,529.597 c -0.0543,0.32513 0.21268,1.09323 0.33573,1.54674 0.13446,0.4956 0.22781,0.94285 0.33574,1.3406 0.14467,0.53326 0.2016,0.84613 0.33574,1.34051 0.1582,0.58311 0.31602,0.98573 0.55956,1.54674 0.22815,0.52561 0.36197,0.87335 0.55956,1.23744 0.22651,0.41741 0.21266,1.09315 0.33574,1.54683 0.13986,0.51544 0.33607,1.03244 0.44765,1.44358 0.14143,0.52135 0.33574,0.68348 0.33574,1.3406 0,0.77011 -0.14584,0.86083 -0.8953,0.51561 -0.51413,-0.23684 -0.71124,-1.46797 -2.23824,-1.65765 -3.14372,-0.42529 -5.13366,1.43966 -5.17776,4 2.00313,-1.06354 5.05396,-1.98957 6.63261,-1.92989 0.64216,0 1.10422,0.0444 1.45487,0.20623 0.26523,0.12221 -0.34923,1.72366 -0.0875,1.72366 h 2.00002 c 0,0 0.0767,-1.97368 0.0415,-2.13615 -0.11001,-0.50683 0,-1.13098 0,-1.64998 0,-0.43168 0.11191,-0.98182 0.11191,-1.54666 0,-0.44315 0.13097,-0.81203 0.48371,-1.13698 0.13189,-0.12151 0.22383,-0.27494 0.33574,-0.41254 0.44088,-0.54161 -1.49487,0.24572 -2.01446,0.72453 0,0 -0.11191,-0.19587 -0.11191,-0.82499 0,-0.53779 -0.31299,-1.05044 -0.44765,-1.54674 -0.14919,-0.54988 -0.17813,-0.96598 -0.33573,-1.54674 -0.20709,-0.76332 -0.38504,-1.41914 -0.55957,-2.06243 -0.11922,-0.43942 -0.3351,-0.92572 -0.44765,-1.34043 -0.11351,-0.41845 -0.11191,-0.90162 -0.11191,-1.44376 0,-0.71087 0.0234,-0.90649 -0.33574,-1.23744 -0.5163,-0.47568 -1.54237,0.0888 -1.54237,0.51561 z"
     style="fill:#377d50;fill-rule:evenodd;stroke:none"
     id="path6431" />
   <path
     d="m 411.26935,504.81888 c -1.51975,0.32879 -2.09695,3.00094 -3.76092,2.97912 -2.01411,-0.0161 -4.53017,-0.0827 -6.8062,-0.91986 -2.11197,-0.0477 -2.58544,3.41512 -4.67033,3.1845 -1.60889,0.20463 -5.51113,2.01597 -6.21608,4.80851 -0.50686,1.7227 -0.23756,3.6509 0.92262,5.06087 1.42606,2.16025 3.23867,4.1384 5.45201,5.51798 1.62325,0.78836 3.48117,0.79066 5.17897,1.34543 0.29289,0.21856 0.91918,0.94519 1.13179,1.11884 l 0.0859,0.10912 c -0.85502,0.83957 -2.6562,1.37548 -1.69368,2.83642 0.56451,2.70571 3.3947,5.80929 5.71002,5.93819 2.31452,-0.17732 1.12898,-3.10323 1.90247,-4.47324 1.54646,-2.84691 4.0533,-0.99713 5.70744,0.26524 1.7416,1.1407 2.51968,-2.14751 4.14846,-0.729 1.11395,-0.502 2.51264,-2.33518 3.84661,-3.20182 1.0339,-1.44575 -0.53851,-3.69095 1.69568,-4.2949 1.44818,-1.09041 1.60024,-3.10433 2.86693,-4.36438 1.35559,-1.41365 1.05722,-4.46946 -1.41805,-4.1989 -1.61408,-0.0145 -4.67537,2.60762 -4.9896,-0.63334 -0.85229,-2.57655 -1.47604,-5.49211 -3.78294,-7.23121 -1.474,-1.59899 -3.94608,-3.06489 -5.3111,-3.11757 z"
     style="fill:url(#linearGradient4181);fill-opacity:1;fill-rule:evenodd;stroke:none"
     id="path6433" />
   <path
     d="m 400.57144,519.798 c 1.5561,1.25285 3.57058,2.22095 5.65337,2.20511 1.96894,-0.0856 3.95794,-1.80654 5.89828,-0.73077 1.55908,0.53198 3.51393,2.09809 1.75263,3.58534 -1.2376,0.6829 -2.56081,1.26668 -3.43112,2.39508 -1.32286,1.06128 -2.99504,1.61471 -4.53886,2.31196 -1.60006,0.88169 -3.06219,-0.97396 -3.47381,-1.61966 -0.0148,0.0151 -0.0365,0.026 -0.0517,0.0402 0,0 3.9e-4,0 0,0.0109 -8e-5,3.4e-4 -0.002,0 -0.002,0 4.1e-4,-4.2e-4 -4.3e-4,0 0,0 6.2e-4,-5.9e-4 0.002,0 0.002,0 1.4e-4,-0.0435 -0.0898,-0.20347 -0.33479,-0.56634 -1.38914,-1.41828 -1.55913,-3.63645 -1.3347,-5.48674 0.90852,-0.24495 0.19315,-1.38677 -0.13931,-2.13463 z"
     style="fill:#f57373;fill-opacity:1;fill-rule:evenodd;stroke:none"
     id="path6435" />
   <path
     d="m 410.51738,506.43616 c -0.88173,0.87822 -0.85518,2.58435 -2.34073,2.59192 1.3292,0.23232 1.292,1.02025 -0.0573,0.71392 -1.59757,-0.18205 -3.84111,-0.46769 -4.69145,1.27206 -1.0956,1.48429 -0.80092,3.36407 0.18287,4.78617 0.20809,2.16428 2.7382,0.58119 4.14146,0.86926 1.75754,-0.62268 3.75554,-2.11271 3.29845,-4.23551 -0.27947,-1.51316 2.0298,-1.02295 0.93408,-2.52368 -1.1092,-0.60189 -2.77255,-3.04486 -0.43733,-3.04625 2.3966,0.48021 3.38853,2.9537 4.87254,4.60404 1.15965,1.59997 1.89876,3.48801 1.95436,5.47469 0.25522,1.41227 1.07382,3.26004 -0.35327,4.32622 -1.48609,0.83439 1.52351,0.38966 1.22594,-0.81551 0.23922,-1.39548 2.30056,-2.74443 3.27665,-2.35747 -0.89329,0.67504 -3.08673,3.0099 -0.9223,3.40286 0.65194,0.0635 1.69783,0.2345 0.36783,0.12186 -1.85792,-0.64851 -3.519,0.60033 -4.44482,2.12263 -0.83761,0.45081 0.16427,-2.02173 -0.66393,-2.53047 0.73716,-2.05008 -0.56464,-4.05598 -2.43897,-4.91063 -1.68081,-0.38619 -2.23556,-3.17455 -2.56694,-3.83167 -0.27904,2.12001 -1.62783,3.83714 -3.78433,4.36441 1.49264,0.0426 2.90215,0.83482 4.45136,0.70844 0.85511,0.37322 3.43314,-0.35226 2.85167,1.00695 -1.85703,0.27337 -3.63872,-0.66452 -5.50301,-0.59806 -1.99013,-0.38984 -4.0341,-0.48743 -6.03592,-0.44803 -1.29438,-1.06018 -1.4888,-3.0813 -1.65498,-4.68197 -0.21358,-1.45967 1.50323,-2.61953 1.84756,-3.35867 -1.20814,-1.03079 -3.29469,0.0304 -3.94011,1.30398 -0.6615,1.36278 -1.4941,2.66693 -1.68581,4.19454 -0.5004,1.20274 -0.24382,2.78027 1.34521,2.65397 -0.42151,1.67138 -2.39498,-1.19413 -2.74525,-2.05939 -0.27149,-1.88395 1.2775,-3.37129 2.05687,-4.93107 1.23576,-1.09915 2.71862,-2.3325 4.43525,-2.3412 1.12968,-0.38123 1.72683,0.9652 2.76758,0.3547 1.99323,0.58084 3.06229,-0.21515 3.66374,-1.69056 0.16755,-0.20153 0.3454,-0.4048 0.59301,-0.51248 z"
     style="fill:#ffafa5;fill-rule:evenodd;stroke:none"
     id="path6437" />
   <g
     style="fill:#ffafa5;fill-rule:evenodd;stroke:none"
     transform="matrix(0.86978533,0,0,0.86978533,387.63657,-370.51357)"
     id="g6443">
    <path
      d="m 11.3769,1012.6819 c -0.9847,2.4591 -2.25062,5.5965 -0.416956,7.9734 1.16881,1.4944 3.22063,2.6262 2.74492,4.8443 -0.08076,1.4024 -0.157232,3.6558 -1.73141,1.9647 -1.77078,-0.83 -2.54551,-2.7184 -4.22154,-3.6934 -1.37302,-0.9062 -3.66733,-3.2481 -2.76168,-4.3284 0.85616,1.9235 2.42031,4.0852 4.7085,4.2034 2.91756,-0.2538 -0.83962,-2.882 -1.0226,-4.4495 -1.15239,-2.0516 -0.718753,-5.0231 1.51061,-6.1469 0.370468,-0.1921 0.775057,-0.3205 1.19015,-0.3676 z"
      style="fill:#ffafa5"
      id="path6439" />
    <path
      d="m 22.636,1013.8241 c 1.29924,-0.4252 3.56855,1.4002 3.37634,1.7651 -1.83607,-1.7127 -0.369981,1.1529 -0.853193,1.9031 0.812672,-1.3461 -1.93229,-3.1761 -2.03927,-2.1803 1.01603,0.4401 1.52376,2.156 0.454389,2.6726 1.18648,-1.1162 -0.48513,-3.1503 -1.50937,-1.9174 1.9058,1.6913 -2.92027,1.0786 -1.17005,-0.7514 0.366383,-0.6114 1.0615,-1.2572 1.74116,-1.4917 z"
      style="fill:#ffafa5"
      id="path6441" />
   </g>
   <path
     style="opacity:0.15;fill:#000000;fill-opacity:1;fill-rule:evenodd;stroke:none"
     d="m 5.0292969,16.251953 c -0.1195965,1.380775 0.237899,2.788101 1.1386719,3.882813 1.42606,2.16025 3.2378318,4.137998 5.4511722,5.517578 1.62325,0.78836 3.481887,0.790933 5.179687,1.345703 0.168996,0.126108 0.430255,0.399574 0.677734,0.660156 0.19514,-0.139594 0.384024,-0.281356 0.539063,-0.433594 l -0.08594,-0.107421 c -0.212611,-0.17365 -0.83797,-0.900581 -1.13086,-1.119141 -1.6978,-0.55477 -3.556437,-0.557343 -5.179687,-1.345703 C 9.4058006,23.272764 7.5940288,21.295016 6.1679688,19.134766 5.4849168,18.304651 5.118162,17.293635 5.0292969,16.251953 Z m 37.9121091,1.351563 c -0.09265,0.591262 -0.331702,1.16959 -0.742187,1.597656 -1.26669,1.26005 -1.419008,3.274824 -2.867188,4.365234 -2.23419,0.60395 -0.661412,2.849172 -1.695312,4.294922 -1.33397,0.86664 -2.731753,2.699172 -3.845703,3.201172 -1.62878,-1.41851 -2.406838,1.871169 -4.148438,0.730469 -1.65414,-1.26237 -4.162524,-3.112535 -5.708984,-0.265625 -0.77349,1.37001 0.412176,4.295336 -1.902344,4.472656 -2.31532,-0.1289 -5.144474,-3.23179 -5.708984,-5.9375 -0.0656,-0.09957 -0.08781,-0.185981 -0.128907,-0.277344 -0.199056,0.34438 -0.219004,0.749275 0.128907,1.277344 0.56451,2.70571 3.393664,5.8086 5.708984,5.9375 2.31452,-0.17732 1.128854,-3.102646 1.902344,-4.472656 1.54646,-2.84691 4.054844,-0.996745 5.708984,0.265625 1.7416,1.1407 2.519658,-2.148979 4.148438,-0.730469 1.11395,-0.502 2.511733,-2.334532 3.845703,-3.201172 1.0339,-1.44575 -0.538878,-3.690972 1.695312,-4.294922 1.44818,-1.09041 1.600498,-3.105184 2.867188,-4.365234 0.646135,-0.67381 0.904209,-1.715719 0.742187,-2.597656 z"
     transform="translate(384.57143,499.798)"
     id="path6445" />
  </g>
 </g>
 <path
   style="display:inline;mix-blend-mode:normal;fill:url(#linearGradient3403);fill-opacity:1;stroke:url(#linearGradient20558);stroke-width:1.16242;stroke-linecap:butt;stroke-linejoin:round;stroke-miterlimit:4;stroke-dasharray:none;stroke-opacity:1"
   d="M 4.7043071,3.9814882 4.6913695,60.80196 H 58.59546 l 1.022155,-2.866369 c 0,0 -23.87537,0.766388 -32.844441,-4.140386 C 16.257548,48.042344 11.401114,4.0978197 11.401114,4.0978197 Z"
   id="path1686"
   transform="matrix(0.7518797,0,0,0.7518797,0.09970467,0.02488636)" />
 <rect
   style="display:inline;fill:none;fill-opacity:1;stroke:url(#linearGradient4557);stroke-width:3.71366;stroke-linejoin:round;stroke-miterlimit:7.8;stroke-dasharray:none;stroke-opacity:0.995146"
   id="rect4539"
   width="62.566689"
   height="62.866646"
   x="1.0323594"
   y="0.59551275"
   ry="6.2447233"
   rx="5.8029528"
   transform="matrix(0.70434793,0,0,0.70291231,1.3629847,1.5442064)" />
</svg>
