<?xml version="1.0" encoding="UTF-8" standalone="no"?>
<!-- Created with Inkscape (http://www.inkscape.org/) -->

<svg
  width="48"
  height="48"
  version="1.1"
  viewBox="0 0 48 48"
  id="svg22"
  xmlns:xlink="http://www.w3.org/1999/xlink"
  xmlns="http://www.w3.org/2000/svg"
  xmlns:svg="http://www.w3.org/2000/svg">
 <defs
   id="defs12">
  <linearGradient
    id="linearGradient1005-3-3"
    x1="5.2535"
    x2="9.3823996"
    y1="15.383"
    y2="2.9421"
    gradientTransform="matrix(0.99999,0,0,0.99999,1.632,-0.61743)"
    gradientUnits="userSpaceOnUse">
   <stop
     stop-color="#fa8200"
     offset="0"
     id="stop2" />
   <stop
     stop-color="#ff9600"
     offset=".36953"
     id="stop4" />
   <stop
     stop-color="#ffb400"
     offset="1"
     id="stop6" />
  </linearGradient>
  <filter
    id="filter4014"
    x="-0.062499932"
    y="-0.057692992"
    width="1.1249999"
    height="1.115386"
    color-interpolation-filters="sRGB">
   <feGaussianBlur
     stdDeviation="1.093751"
     id="feGaussianBlur9" />
  </filter>
  <linearGradient
    xlink:href="#linearGradient3487"
    id="linearGradient3403"
    gradientUnits="userSpaceOnUse"
    x1="6.9491749"
    y1="4.5549412"
    x2="11.215498"
    y2="59.052471" />
  <linearGradient
    id="linearGradient3487">
   <stop
     style="stop-color:#32373c;stop-opacity:1"
     offset="0"
     id="stop3481" />
   <stop
     id="stop3483"
     offset="0.36804965"
     style="stop-color:#1a1a1a;stop-opacity:1" />
   <stop
     style="stop-color:#31363b;stop-opacity:1"
     offset="1"
     id="stop3485" />
  </linearGradient>
  <linearGradient
    xlink:href="#linearGradient20604"
    id="linearGradient20558"
    gradientUnits="userSpaceOnUse"
    x1="25.802212"
    y1="20.373846"
    x2="25.111048"
    y2="58.912758" />
  <linearGradient
    id="linearGradient20604">
   <stop
     id="stop20598"
     offset="0"
     style="stop-color:#3d3d3d;stop-opacity:1" />
   <stop
     style="stop-color:#000000;stop-opacity:1"
     offset="0.61772454"
     id="stop20600" />
   <stop
     id="stop20602"
     offset="1"
     style="stop-color:#3d3d3d;stop-opacity:1" />
  </linearGradient>
  <filter
    style="color-interpolation-filters:sRGB"
    id="filter20720"
    x="-0.010582033"
    y="-0.010229242"
    width="1.0211636"
    height="1.0204585">
   <feGaussianBlur
     stdDeviation="8.8909071e-06"
     id="feGaussianBlur20722" />
  </filter>
  <linearGradient
    gradientTransform="translate(0.36067797,-0.13016949)"
    xlink:href="#linearGradient4555"
    id="linearGradient4557"
    x1="43.499737"
    y1="64.011795"
    x2="44.141731"
    y2="0.30621234"
    gradientUnits="userSpaceOnUse" />
  <linearGradient
    id="linearGradient4555">
   <stop
     style="stop-color:#141618;stop-opacity:1"
     offset="0"
     id="stop4551" />
   <stop
     id="stop4559"
     offset="0.51820582"
     style="stop-color:#686868;stop-opacity:1" />
   <stop
     style="stop-color:#31363b;stop-opacity:1"
     offset="1"
     id="stop4553" />
  </linearGradient>
  <filter
    style="color-interpolation-filters:sRGB"
    id="filter4601"
    x="-0.029677978"
    width="1.059356"
    y="-0.029536375"
    height="1.0590727">
   <feGaussianBlur
     stdDeviation="9.5005826e-06"
     id="feGaussianBlur4603" />
  </filter>
  <linearGradient
    gradientUnits="userSpaceOnUse"
    y2="5.1285472"
    x2="35.057411"
    y1="53.859512"
    x1="11.086592"
    id="linearGradient4587-3"
    xlink:href="#linearGradient4585"
    gradientTransform="translate(0.36135313,-0.12490449)" />
  <linearGradient
    id="linearGradient4585">
   <stop
     id="stop4581"
     offset="0"
     style="stop-color:#2a2ac5;stop-opacity:1;" />
   <stop
     id="stop4583"
     offset="1"
     style="stop-color:#8585e9;stop-opacity:1;" />
  </linearGradient>
  <filter
    height="1.0003407"
    y="-0.00017033356"
    width="1.0003423"
    x="-0.00017114894"
    id="filter4601-2"
    style="color-interpolation-filters:sRGB">
   <feGaussianBlur
     id="feGaussianBlur4603-9"
     stdDeviation="0.0044617912" />
  </filter>
  <linearGradient
    gradientTransform="translate(-452.40278,-497.24379)"
    xlink:href="#1"
    id="0"
    x1="426.74097"
    y1="543.08612"
    x2="389.4765"
    y2="502.8252"
    gradientUnits="userSpaceOnUse" />
  <linearGradient
    id="1">
   <stop
     stop-color="#105be2"
     style="stop-color:#1919bf;stop-opacity:1"
     id="stop13" />
   <stop
     offset="1"
     stop-color="#26dbfc"
     style="stop-color:#9e9ef3;stop-opacity:1"
     id="stop15" />
  </linearGradient>
  <linearGradient
    xlink:href="#linearGradient4179"
    id="linearGradient4185"
    x1="4.9491525"
    y1="4.7118645"
    x2="43.118645"
    y2="42.779659"
    gradientUnits="userSpaceOnUse"
    gradientTransform="translate(3.3210155,0.05766701)" />
  <linearGradient
    id="linearGradient4179">
   <stop
     style="stop-color:#000000;stop-opacity:1;"
     offset="0"
     id="stop2-1" />
   <stop
     style="stop-color:#000000;stop-opacity:0;"
     offset="1"
     id="stop4-4" />
  </linearGradient>
 </defs>
 <rect
   y="0.60077608"
   x="1.033034"
   height="62.866646"
   width="62.567139"
   id="rect4539-1"
   style="display:inline;opacity:1;fill:url(#linearGradient4587-3);fill-opacity:1;stroke:none;stroke-width:1.146;stroke-linejoin:round;stroke-miterlimit:7.8;stroke-dasharray:none;stroke-opacity:0.995146"
   transform="matrix(0.65476583,0,0,0.65476583,3.5764338,2.5133523)" />
 <path
   style="opacity:0.3;fill:url(#linearGradient4185);fill-opacity:1;stroke:none;stroke-width:2;stroke-linecap:round;stroke-linejoin:round;stroke-miterlimit:4;stroke-dasharray:none;stroke-opacity:1"
   d="m 13.194797,17.317972 -1.606571,11.439352 7.87223,13.420732 9.489466,1.905002 C 38.768636,43.266715 46.523816,35.420129 47.201876,25.561573 L 33.428147,9.3685776 22.324205,9.0253659 17.514769,14.643087 Z"
   id="path24" />
 <path
   id="path5088"
   d="m 22.111551,7.9411207 c -0.667035,0 -1.206081,0.5390616 -1.206081,1.2060807 0,0.2561946 0.08016,0.4937392 0.216216,0.6891889 l -2.969593,3.4459447 c -0.129345,-0.03726 -0.267448,-0.06081 -0.408784,-0.06081 -0.811189,0 -1.466215,0.658426 -1.466215,1.469594 0,0.04265 0.0032,0.08327 0.0068,0.125 l -2.614864,1.722973 c -0.196928,-0.139424 -0.4363,-0.222973 -0.695945,-0.222973 -0.667036,0 -1.209459,0.54244 -1.209459,1.209459 0,0.417935 0.214546,0.783167 0.537162,0.999999 l -0.476352,8.999997 c -0.300811,0.158575 -0.503378,0.474158 -0.503378,0.837838 0,0.522883 0.423063,0.945945 0.945946,0.945945 0.04351,0 0.08642,-0.0011 0.128378,-0.0068 l 6.564187,6.729727 c -0.002,0.02517 -0.0034,0.04864 -0.0034,0.07432 0,0.522883 0.423063,0.945946 0.945946,0.945946 0.191703,0 0.371192,-0.05408 0.52027,-0.152027 l 3.560809,1.908783 c -0.0067,0.0515 -0.01013,0.102074 -0.01013,0.155405 0,0.667036 0.539045,1.209459 1.20608,1.209459 0.629825,0 1.146977,-0.48265 1.202703,-1.097972 l 9.648645,-2.817567 c 0.220378,0.292943 0.568022,0.483108 0.962837,0.483108 0.66702,0 1.206081,-0.539045 1.206081,-1.20608 0,-0.283089 -0.09702,-0.544089 -0.260135,-0.75 l 4.175674,-9.192564 c 0.667019,0 1.206081,-0.539046 1.206081,-1.206081 0,-0.58705 -0.417816,-1.076941 -0.972973,-1.185811 l -1.307443,-4.37162 c 0.210412,-0.173648 0.344595,-0.438985 0.344595,-0.733107 0,-0.522871 -0.423076,-0.945946 -0.945946,-0.945946 -0.06307,0 -0.126189,0.0085 -0.185811,0.02027 L 34.253439,9.8194984 c 0.009,-0.052343 0.01689,-0.1072594 0.01689,-0.1621621 0,-0.5228697 -0.423075,-0.9459456 -0.945945,-0.9459456 -0.297478,0 -0.5663,0.1367853 -0.739865,0.3513512 L 23.250064,8.7451745 C 23.083933,8.2767033 22.63697,7.9411207 22.111551,7.9411207 Z m 1.128378,1.638513 9.165537,0.3108107 c 0.05594,0.2226156 0.189427,0.4153126 0.371622,0.5439186 l -0.216216,1.023648 c -0.449139,0.101954 -0.818417,0.408378 -1.006757,0.817568 l -10.256753,1.192567 0.685811,-3.118242 c 0.04273,0.0046 0.08443,0.0068 0.128378,0.0068 0.514541,0 0.954379,-0.323723 1.128378,-0.7770263 z m 10.503375,0.9256753 5.851349,7.165538 c -0.06522,0.128508 -0.101351,0.271703 -0.101351,0.425676 0,0.272635 0.116251,0.519817 0.300675,0.692567 l -0.479729,1.351351 -5.128377,-6.564187 c 0.10861,-0.204948 0.168919,-0.437705 0.168919,-0.685811 0,-0.631294 -0.397082,-1.170698 -0.956081,-1.378378 l 0.195946,-0.945945 c 0.05202,-0.01554 0.100808,-0.03699 0.148649,-0.06081 z m -12.26351,0.189189 -0.621621,2.824323 -1.986486,0.233108 c -0.0051,-0.0061 -0.0117,-0.01088 -0.01689,-0.01689 z m 10.141889,3.239864 -2.972972,11.601347 c -0.08209,0.01863 -0.162373,0.04169 -0.239865,0.07095 l -7.672295,-8.675673 3.574324,-0.398648 c 0.160322,0.295128 0.471598,0.496621 0.83108,0.496621 0.52287,0 0.949324,-0.426441 0.949324,-0.949324 0,-0.07389 -0.01102,-0.143822 -0.02703,-0.212837 l 5.027026,-1.868243 z m -2.263513,0.263513 -3.472972,1.293919 c -0.173453,-0.217863 -0.443123,-0.358108 -0.743243,-0.358108 -0.522883,0 -0.945945,0.423076 -0.945945,0.945945 0,0.01466 0.0027,0.02942 0.0034,0.04392 l -3.574323,0.398649 0.293924,-1.341216 z m 3.868242,0.165541 5.594593,7.162159 -1.152027,3.239864 -7.033781,1.635135 c -0.101044,-0.173659 -0.227902,-0.328159 -0.378379,-0.45946 z m -12.743239,0.868243 -0.25,1.131756 -0.885135,-1 z m -3.888512,0.371621 c 0.08151,0.102783 0.174623,0.195868 0.280405,0.273649 l -0.206081,1.087837 -2.523647,0.283784 c -0.0024,-0.01019 -0.0041,-0.02032 -0.0068,-0.03041 z m 1.074324,0.554054 c 0.02503,0.0013 0.04898,0.0034 0.07432,0.0034 0.03153,0 0.06356,-0.0014 0.0946,-0.0034 l 0.547297,0.614865 -0.851351,0.09459 z m 1.054054,0.996621 1.070945,1.212838 -0.459459,2.091215 c -0.507309,0.01771 -0.912162,0.434331 -0.912162,0.945946 0,0.290691 0.131645,0.549302 0.337838,0.722973 l -3.16554,4.854728 1.854729,-9.685808 z M 16.584526,17.39382 14.57777,27.876925 c -0.337783,0.07006 -0.623835,0.283103 -0.793919,0.570945 l -0.570946,-0.108108 c -0.0095,-0.373809 -0.235523,-0.692603 -0.557432,-0.837837 l 0.466216,-8.777024 c 0.550119,-0.06828 0.983403,-0.509332 1.047297,-1.060811 z m 3.550674,1.358108 7.152025,8.094591 c -0.01141,0.04282 -0.02208,0.08438 -0.03041,0.128379 l -11.567563,1.239864 c -0.07913,-0.081 -0.171091,-0.1498 -0.27027,-0.206081 l 3.70608,-5.689187 c 0.07717,0.02032 0.159694,0.03041 0.243243,0.03041 0.52287,0 0.945945,-0.423062 0.945945,-0.945945 0,-0.389429 -0.23491,-0.722866 -0.570945,-0.868243 z m 20.020264,0.25 c 0.02629,0.0082 0.05386,0.01438 0.08108,0.02027 l 1.111486,3.722972 -1.733108,-2.219594 z m -1.033784,2.905404 1.66554,2.131756 -2.641891,0.614865 z m 1.760135,3.391891 -3.797296,8.358105 0.0777,-5.219593 c 0.41526,-0.07337 0.733108,-0.435301 0.733108,-0.871621 0,-0.352445 -0.205371,-0.654638 -0.503378,-0.797297 l 0.256757,-0.719595 z m -3.709459,0.861486 -0.18581,0.523648 c -0.478243,0.01263 -0.864865,0.400478 -0.864865,0.881757 0,0.397522 0.264387,0.735811 0.625,0.847972 l -0.08784,5.959458 c -0.300017,0.08659 -0.551302,0.286939 -0.706081,0.550675 l -5.270268,-1.138513 c -0.0054,-0.518209 -0.426453,-0.93581 -0.945946,-0.93581 -0.507125,0 -0.921453,0.397609 -0.945945,0.898648 l -1.287162,0.317568 1.587837,-4.918918 c 0.887838,-0.01765 1.620814,-0.6665 1.766892,-1.516891 z m -9.719591,2.04054 c 0.116854,0.211738 0.275106,0.397349 0.462838,0.547297 l -1.83108,5.66216 -3.932431,0.962837 -6.216215,-5.844592 c 0.01253,-0.02962 0.02361,-0.06044 0.03378,-0.09122 z m -13.966211,1.033783 0.14527,0.02703 c 0.009,0.05307 0.02146,0.104933 0.03716,0.155405 z m 0.935811,0.962838 c 0.12541,0.0441 0.261538,0.06757 0.402026,0.06757 0.0278,0 0.05375,-0.0015 0.08108,-0.0034 l 5.243242,4.932431 c -0.07811,-0.02086 -0.161941,-0.03378 -0.246622,-0.03378 -0.184631,0 -0.35436,0.05387 -0.5,0.14527 l -4.979727,-5.108106 z m 14.439184,3.959458 c 0.142091,0.34342 0.480226,0.584459 0.874999,0.584459 0.38017,0 0.707481,-0.224004 0.858108,-0.547297 l 4.638512,0.996621 -8.939186,2.614864 1.057432,-3.277026 z m -2.925675,0.716216 -0.939189,2.898647 c -0.08011,0.01211 -0.155594,0.03378 -0.22973,0.06081 L 22.513578,35.71138 Z m -4.864863,1.192567 0.604729,0.564189 -0.83108,-0.445946 c 0.0017,-0.02099 0.0031,-0.04284 0.0034,-0.06419 l 0.222972,-0.05405 z"
   style="display:inline;fill:#ffffff;fill-opacity:1;stroke:none;stroke-width:0.108108" />
 <path
   style="display:inline;mix-blend-mode:normal;fill:url(#linearGradient3403);fill-opacity:1;stroke:url(#linearGradient20558);stroke-width:1.16242;stroke-linecap:butt;stroke-linejoin:round;stroke-miterlimit:4;stroke-dasharray:none;stroke-opacity:1"
   d="M 4.7043071,3.9814882 4.6913695,60.80196 H 58.59546 l 1.022155,-2.866369 c 0,0 -23.87537,0.766388 -32.844441,-4.140386 C 16.257548,48.042344 11.401114,4.0978197 11.401114,4.0978197 Z"
   id="path1686"
   transform="matrix(0.7518797,0,0,0.7518797,0.09970467,0.02488636)" />
 <rect
   style="display:inline;fill:none;fill-opacity:1;stroke:url(#linearGradient4557);stroke-width:3.71366;stroke-linejoin:round;stroke-miterlimit:7.8;stroke-dasharray:none;stroke-opacity:0.995146"
   id="rect4539"
   width="62.566689"
   height="62.866646"
   x="1.0323594"
   y="0.59551275"
   ry="6.2447233"
   rx="5.8029528"
   transform="matrix(0.70434793,0,0,0.70291231,1.3629847,1.5442064)" />
</svg>
