<?xml version="1.0" encoding="UTF-8" standalone="no"?>
<!-- Created with Inkscape (http://www.inkscape.org/) -->

<svg
  width="48"
  height="48"
  version="1.1"
  viewBox="0 0 48 48"
  id="svg22"
  xmlns:xlink="http://www.w3.org/1999/xlink"
  xmlns="http://www.w3.org/2000/svg"
  xmlns:svg="http://www.w3.org/2000/svg">
 <defs
   id="defs12">
  <linearGradient
    id="linearGradient917">
   <stop
     style="stop-color:#000000;stop-opacity:0.99607843"
     offset="0"
     id="stop913" />
   <stop
     style="stop-color:#353a3f;stop-opacity:0.99607843"
     offset="1"
     id="stop915" />
  </linearGradient>
  <linearGradient
    id="linearGradient1005-3-3"
    x1="5.2535"
    x2="9.3823996"
    y1="15.383"
    y2="2.9421"
    gradientTransform="matrix(0.99999,0,0,0.99999,1.632,-0.61743)"
    gradientUnits="userSpaceOnUse">
   <stop
     stop-color="#fa8200"
     offset="0"
     id="stop2" />
   <stop
     stop-color="#ff9600"
     offset=".36953"
     id="stop4" />
   <stop
     stop-color="#ffb400"
     offset="1"
     id="stop6" />
  </linearGradient>
  <filter
    id="filter4014"
    x="-0.062499932"
    y="-0.057692992"
    width="1.1249999"
    height="1.115386"
    color-interpolation-filters="sRGB">
   <feGaussianBlur
     stdDeviation="1.093751"
     id="feGaussianBlur9" />
  </filter>
  <linearGradient
    xlink:href="#linearGradient3487"
    id="linearGradient3403"
    gradientUnits="userSpaceOnUse"
    x1="6.9491749"
    y1="4.5549412"
    x2="11.215498"
    y2="59.052471" />
  <linearGradient
    id="linearGradient3487">
   <stop
     style="stop-color:#32373c;stop-opacity:1"
     offset="0"
     id="stop3481" />
   <stop
     id="stop3483"
     offset="0.36804965"
     style="stop-color:#1a1a1a;stop-opacity:1" />
   <stop
     style="stop-color:#31363b;stop-opacity:1"
     offset="1"
     id="stop3485" />
  </linearGradient>
  <linearGradient
    xlink:href="#linearGradient20604"
    id="linearGradient20558"
    gradientUnits="userSpaceOnUse"
    x1="25.802212"
    y1="20.373846"
    x2="25.111048"
    y2="58.912758" />
  <linearGradient
    id="linearGradient20604">
   <stop
     id="stop20598"
     offset="0"
     style="stop-color:#3d3d3d;stop-opacity:1" />
   <stop
     style="stop-color:#000000;stop-opacity:1"
     offset="0.61772454"
     id="stop20600" />
   <stop
     id="stop20602"
     offset="1"
     style="stop-color:#3d3d3d;stop-opacity:1" />
  </linearGradient>
  <linearGradient
    gradientTransform="translate(0.36067797,-0.13016949)"
    xlink:href="#linearGradient4555"
    id="linearGradient4557"
    x1="43.499737"
    y1="64.011795"
    x2="44.141731"
    y2="0.30621234"
    gradientUnits="userSpaceOnUse" />
  <linearGradient
    id="linearGradient4555">
   <stop
     style="stop-color:#141618;stop-opacity:1"
     offset="0"
     id="stop4551" />
   <stop
     id="stop4559"
     offset="0.51820582"
     style="stop-color:#686868;stop-opacity:1" />
   <stop
     style="stop-color:#31363b;stop-opacity:1"
     offset="1"
     id="stop4553" />
  </linearGradient>
  <filter
    style="color-interpolation-filters:sRGB"
    id="filter4601"
    x="-0.029679921"
    width="1.0593598"
    y="-0.029538308"
    height="1.0590766">
   <feGaussianBlur
     stdDeviation="6.0147289e-05"
     id="feGaussianBlur4603" />
  </filter>
  <linearGradient
    xlink:href="#linearGradient917"
    id="linearGradient919"
    x1="7.400631"
    y1="41.743092"
    x2="33.063145"
    y2="7.1074457"
    gradientUnits="userSpaceOnUse" />
  <linearGradient
    id="b"
    y1="44"
    y2="18"
    x2="0"
    gradientUnits="userSpaceOnUse">
   <stop
     stop-color="#c6cdd1"
     id="stop4575" />
   <stop
     offset="1"
     stop-color="#e0e5e7"
     id="stop4577" />
  </linearGradient>
  <linearGradient
    y2="16"
    x2="0"
    y1="20"
    gradientUnits="userSpaceOnUse"
    id="linearGradient4788"
    xlink:href="#c" />
  <linearGradient
    id="c"
    y1="20"
    y2="16"
    x2="0"
    gradientUnits="userSpaceOnUse">
   <stop
     stop-color="#06a370"
     id="stop4580" />
   <stop
     offset="1"
     stop-color="#22d1b0"
     id="stop4582" />
  </linearGradient>
  <linearGradient
    xlink:href="#c"
    id="d"
    y1="21"
    y2="4"
    x2="0"
    gradientUnits="userSpaceOnUse" />
  <linearGradient
    id="linearGradient952"
    y1="20"
    y2="16"
    x2="0"
    gradientUnits="userSpaceOnUse">
   <stop
     stop-color="#06a370"
     id="stop948" />
   <stop
     offset="1"
     stop-color="#22d1b0"
     id="stop950" />
  </linearGradient>
  <linearGradient
    xlink:href="#h"
    id="j"
    y1="21"
    y2="12"
    x2="0"
    gradientUnits="userSpaceOnUse" />
  <linearGradient
    id="h"
    y1="17"
    y2="8"
    x2="0"
    gradientUnits="userSpaceOnUse">
   <stop
     stop-color="#c61423"
     id="stop4589" />
   <stop
     offset="1"
     stop-color="#dc2b41"
     id="stop4591" />
  </linearGradient>
  <linearGradient
    xlink:href="#c"
    id="g"
    y1="17"
    y2="10"
    x2="0"
    gradientUnits="userSpaceOnUse" />
  <linearGradient
    id="linearGradient963"
    y1="20"
    y2="16"
    x2="0"
    gradientUnits="userSpaceOnUse">
   <stop
     stop-color="#06a370"
     id="stop959" />
   <stop
     offset="1"
     stop-color="#22d1b0"
     id="stop961" />
  </linearGradient>
  <linearGradient
    xlink:href="#c"
    id="f"
    y1="16"
    y2="7"
    x2="0"
    gradientUnits="userSpaceOnUse" />
  <linearGradient
    id="linearGradient970"
    y1="20"
    y2="16"
    x2="0"
    gradientUnits="userSpaceOnUse">
   <stop
     stop-color="#06a370"
     id="stop966" />
   <stop
     offset="1"
     stop-color="#22d1b0"
     id="stop968" />
  </linearGradient>
  <linearGradient
    xlink:href="#h"
    id="i"
    y1="17"
    y2="12"
    x2="0"
    gradientUnits="userSpaceOnUse" />
  <linearGradient
    id="linearGradient977"
    y1="17"
    y2="8"
    x2="0"
    gradientUnits="userSpaceOnUse">
   <stop
     stop-color="#c61423"
     id="stop973" />
   <stop
     offset="1"
     stop-color="#dc2b41"
     id="stop975" />
  </linearGradient>
  <linearGradient
    xlink:href="#c"
    id="e"
    y1="15"
    y2="4"
    x2="0"
    gradientUnits="userSpaceOnUse" />
  <linearGradient
    id="linearGradient984"
    y1="20"
    y2="16"
    x2="0"
    gradientUnits="userSpaceOnUse">
   <stop
     stop-color="#06a370"
     id="stop980" />
   <stop
     offset="1"
     stop-color="#22d1b0"
     id="stop982" />
  </linearGradient>
  <linearGradient
    y2="8"
    x2="0"
    y1="17"
    gradientUnits="userSpaceOnUse"
    id="linearGradient4790"
    xlink:href="#h" />
  <linearGradient
    id="linearGradient991"
    y1="17"
    y2="8"
    x2="0"
    gradientUnits="userSpaceOnUse">
   <stop
     stop-color="#c61423"
     id="stop987" />
   <stop
     offset="1"
     stop-color="#dc2b41"
     id="stop989" />
  </linearGradient>
  <linearGradient
    id="a"
    y1="25"
    x1="8"
    y2="44"
    x2="27"
    gradientUnits="userSpaceOnUse">
   <stop
     id="stop4570" />
   <stop
     offset="1"
     stop-opacity="0"
     id="stop4572" />
  </linearGradient>
  <linearGradient
    id="k"
    y1="25"
    y2="10"
    x2="0"
    gradientUnits="userSpaceOnUse">
   <stop
     stop-color="#f39c12"
     id="stop4596" />
   <stop
     offset="1"
     stop-color="#f5ab35"
     id="stop4598" />
  </linearGradient>
 </defs>
 <rect
   style="display:inline;fill:url(#linearGradient919);fill-opacity:1;fill-rule:evenodd;stroke:none;stroke-width:0.92782;stroke-linejoin:round;stroke-miterlimit:7.8"
   id="rect1192"
   width="42.084602"
   height="42.712109"
   x="3.1629105"
   y="3.0184898"
   ry="0" />
 <g
   transform="matrix(1.0014578,0,0,1.026994,0.86083778,-0.48163195)"
   id="g4786">
  <rect
    style="fill:url(#b)"
    width="40"
    x="4"
    y="18"
    height="26"
    id="rect4603" />
  <g
    style="stroke-width:2;stroke-linecap:round;stroke-linejoin:bevel"
    id="g4697">
   <rect
     style="fill:url(#linearGradient4788)"
     width="4"
     x="8"
     y="16"
     height="9"
     id="rect4605" />
   <rect
     style="fill:url(#d)"
     width="4"
     x="12"
     y="4"
     height="21"
     id="rect4607" />
   <rect
     style="fill:url(#j)"
     width="4"
     x="16"
     y="12"
     height="13"
     id="rect4609" />
   <rect
     style="fill:url(#g)"
     width="4"
     x="20"
     y="10"
     height="15"
     id="rect4611" />
   <rect
     style="fill:url(#f)"
     width="4"
     x="24"
     y="7"
     height="18"
     id="rect4613" />
   <rect
     style="fill:url(#i)"
     width="4"
     x="28"
     y="12"
     height="13"
     id="rect4615" />
   <rect
     style="fill:url(#e)"
     width="4"
     x="32"
     y="4"
     height="21"
     id="rect4617" />
   <rect
     style="fill:url(#linearGradient4790)"
     width="4"
     x="36"
     y="8"
     height="17"
     id="rect4619" />
   <g
     style="fill:#eff0f1"
     id="g4653">
    <rect
      width="4"
      x="8"
      y="31"
      height="3"
      id="rect4621" />
    <rect
      width="4"
      x="8"
      y="39"
      height="3"
      id="rect4623" />
    <rect
      width="4"
      x="8"
      y="27"
      height="3"
      id="rect4625" />
    <rect
      width="4"
      x="14"
      y="31"
      height="3"
      id="rect4627" />
    <rect
      width="4"
      x="14"
      y="39"
      height="3"
      id="rect4629" />
    <rect
      width="4"
      x="14"
      y="27"
      height="3"
      id="rect4631" />
    <rect
      width="12"
      x="20"
      y="31"
      height="3"
      id="rect4633" />
    <rect
      width="12"
      x="20"
      y="39"
      height="3"
      id="rect4635" />
    <rect
      width="12"
      x="20"
      y="27"
      height="3"
      id="rect4637" />
    <rect
      width="6"
      x="34"
      y="31"
      height="3"
      id="rect4639" />
    <rect
      width="6"
      x="34"
      y="39"
      height="3"
      id="rect4641" />
    <rect
      width="6"
      x="34"
      y="27"
      height="3"
      id="rect4643" />
    <rect
      width="4"
      x="8"
      y="35"
      height="3"
      id="rect4645" />
    <rect
      width="4"
      x="14"
      y="35"
      height="3"
      id="rect4647" />
    <rect
      width="12"
      x="20"
      y="35"
      height="3"
      id="rect4649" />
    <rect
      width="6"
      x="34"
      y="35"
      height="3"
      id="rect4651" />
   </g>
   <rect
     style="fill:#4d4d4d"
     width="1"
     x="9"
     y="28"
     height="1"
     id="rect4655" />
   <rect
     style="fill:#c0392b"
     width="2"
     x="9"
     y="32"
     height="1"
     id="rect4657" />
   <rect
     style="fill:#4d4d4d"
     width="1"
     x="9"
     y="36"
     height="1"
     id="rect4659" />
   <rect
     style="fill:#258e52"
     width="2"
     x="9"
     y="40"
     height="1"
     id="rect4661" />
   <rect
     style="fill:#4d4d4d"
     width="1"
     x="15"
     y="40"
     height="1"
     id="rect4663" />
   <rect
     style="fill:#258e52"
     width="1"
     x="15"
     y="36"
     height="1"
     id="rect4665" />
   <rect
     style="fill:#c0392b"
     width="1"
     x="15"
     y="32"
     height="1"
     id="rect4667" />
   <g
     style="fill:#4d4d4d"
     id="g4673">
    <rect
      width="1"
      x="15"
      y="28"
      height="1"
      id="rect4669" />
    <rect
      width="4"
      x="21"
      y="28"
      height="1"
      id="rect4671" />
   </g>
   <g
     style="fill:#258e52"
     id="g4681">
    <rect
      width="2"
      x="21"
      y="32"
      height="1"
      id="rect4675" />
    <rect
      width="2"
      x="24"
      y="32"
      height="1"
      id="rect4677" />
    <rect
      width="3"
      x="21"
      y="36"
      height="1"
      id="rect4679" />
   </g>
   <g
     style="fill:#c0392b"
     id="g4687">
    <rect
      width="7"
      x="21"
      y="40"
      height="1"
      id="rect4683" />
    <rect
      width="1"
      x="29"
      y="40"
      height="1"
      id="rect4685" />
   </g>
   <rect
     style="fill:#258e52"
     width="3"
     x="35"
     y="28"
     height="1"
     id="rect4689" />
   <rect
     style="fill:#4d4d4d"
     width="1"
     x="35"
     y="32"
     height="1"
     id="rect4691" />
   <rect
     style="fill:#c0392b"
     width="2"
     x="35"
     y="36"
     height="1"
     id="rect4693" />
   <rect
     style="fill:#4d4d4d"
     width="3"
     x="35"
     y="40"
     height="1"
     id="rect4695" />
  </g>
  <path
    style="opacity:0.2;fill:url(#a);fill-rule:evenodd"
    d="M 8,25 27,44 H 44 V 29 l -4,-4 z"
    id="path4699" />
  <rect
    style="opacity:0.1;fill:#2e3132"
    width="40"
    x="4"
    y="43"
    height="1"
    id="rect4701" />
  <path
    style="fill:url(#k);fill-rule:evenodd"
    d="m 8,25 v -3 c 2,0 2,-3 4,-3 2,0 1.5,4 4,4 2.5,0 2,-4 4,-4 2,0 2,-4 4,-4 2,0 2,4 4,4 2,0 2,-2 4,-2 2,0 2,-5 4,-5 2,0 2,7 4,7 v 6 z"
    id="path4703" />
  <rect
    style="fill:#2e3132;fill-opacity:0.294"
    width="32"
    x="8"
    y="24"
    height="1"
    id="rect4705" />
 </g>
 <path
   style="display:inline;mix-blend-mode:normal;fill:url(#linearGradient3403);fill-opacity:1;stroke:url(#linearGradient20558);stroke-width:1.16242;stroke-linecap:butt;stroke-linejoin:round;stroke-miterlimit:4;stroke-dasharray:none;stroke-opacity:1"
   d="M 4.7043071,3.9814882 4.6913695,60.80196 H 58.59546 l 1.022155,-2.866369 c 0,0 -23.87537,0.766388 -32.844441,-4.140386 C 16.257548,48.042344 11.401114,4.0978197 11.401114,4.0978197 Z"
   id="path1686"
   transform="matrix(0.7518797,0,0,0.7518797,0.09970467,0.02488636)" />
 <rect
   style="display:inline;fill:none;fill-opacity:1;stroke:url(#linearGradient4557);stroke-width:3.71366;stroke-linejoin:round;stroke-miterlimit:7.8;stroke-dasharray:none;stroke-opacity:0.995146"
   id="rect4539"
   width="62.566689"
   height="62.866646"
   x="1.0323594"
   y="0.59551275"
   ry="6.2447233"
   rx="5.8029528"
   transform="matrix(0.70434793,0,0,0.70291231,1.3629847,1.5442064)" />
</svg>
