<?xml version="1.0" encoding="UTF-8" standalone="no"?>
<!-- Created with Inkscape (http://www.inkscape.org/) -->

<svg
  width="48"
  height="48"
  version="1.1"
  viewBox="0 0 48 48"
  id="svg22"
  xmlns:xlink="http://www.w3.org/1999/xlink"
  xmlns="http://www.w3.org/2000/svg"
  xmlns:svg="http://www.w3.org/2000/svg">
 <defs
   id="defs12">
  <linearGradient
    xlink:href="#linearGradient3487"
    id="linearGradient3403"
    gradientUnits="userSpaceOnUse"
    x1="6.9491749"
    y1="4.5549412"
    x2="11.215498"
    y2="59.052471" />
  <linearGradient
    id="linearGradient3487">
   <stop
     style="stop-color:#32373c;stop-opacity:1"
     offset="0"
     id="stop3481" />
   <stop
     id="stop3483"
     offset="0.36804965"
     style="stop-color:#1a1a1a;stop-opacity:1" />
   <stop
     style="stop-color:#31363b;stop-opacity:1"
     offset="1"
     id="stop3485" />
  </linearGradient>
  <linearGradient
    xlink:href="#linearGradient20604"
    id="linearGradient20558"
    gradientUnits="userSpaceOnUse"
    x1="25.802212"
    y1="20.373846"
    x2="25.111048"
    y2="58.912758" />
  <linearGradient
    id="linearGradient20604">
   <stop
     id="stop20598"
     offset="0"
     style="stop-color:#3d3d3d;stop-opacity:1" />
   <stop
     style="stop-color:#000000;stop-opacity:1"
     offset="0.61772454"
     id="stop20600" />
   <stop
     id="stop20602"
     offset="1"
     style="stop-color:#3d3d3d;stop-opacity:1" />
  </linearGradient>
  <filter
    style="color-interpolation-filters:sRGB"
    id="filter20720"
    x="-0.010581647"
    y="-0.010228868"
    width="1.0211628"
    height="1.0204578">
   <feGaussianBlur
     stdDeviation="5.3289932e-08"
     id="feGaussianBlur20722" />
  </filter>
  <linearGradient
    gradientTransform="translate(0.36067797,-0.13016949)"
    xlink:href="#linearGradient4555"
    id="linearGradient4557"
    x1="43.499737"
    y1="64.011795"
    x2="44.141731"
    y2="0.30621234"
    gradientUnits="userSpaceOnUse" />
  <linearGradient
    id="linearGradient4555">
   <stop
     style="stop-color:#141618;stop-opacity:1"
     offset="0"
     id="stop4551" />
   <stop
     id="stop4559"
     offset="0.51820582"
     style="stop-color:#686868;stop-opacity:1" />
   <stop
     style="stop-color:#31363b;stop-opacity:1"
     offset="1"
     id="stop4553" />
  </linearGradient>
  <filter
    style="color-interpolation-filters:sRGB"
    id="filter4601"
    x="-0.029677616"
    width="1.0593552"
    y="-0.029536014"
    height="1.059072">
   <feGaussianBlur
     stdDeviation="5.6944179e-08"
     id="feGaussianBlur4603" />
  </filter>
 </defs>
 <g
   id="g6"
   transform="matrix(1.0205018,0,0,1.0205018,1.2522959,-1.019787)">
  <rect
    style="fill:#dadada;fill-opacity:1"
    width="40"
    height="40"
    x="4"
    y="4"
    rx="0.72957867"
    ry="0.86167526"
    id="rect2" />
  <g
    id="g8"
    transform="matrix(0.86755405,0,0,0.86755405,5.7716303,3.3393548)">
   <circle
     style="opacity:0.2"
     cx="15.6"
     cy="16.6"
     r="11.6"
     id="circle1" />
   <path
     id="circle2"
     style="opacity:0.2"
     d="M 24,6 A 19,19 0 0 0 5,25 19,19 0 0 0 24,44 19,19 0 0 0 27.142578,43.710938 11.6,11.6 0 0 0 32.400391,45 11.6,11.6 0 0 0 44,33.400391 11.6,11.6 0 0 0 42.71875,28.107422 19,19 0 0 0 43,25 19,19 0 0 0 24,6 Z" />
   <path
     style="opacity:0.1;fill:#ffffff"
     d="M 15.599609,4 A 11.6,11.6 0 0 0 4,15.599609 11.6,11.6 0 0 0 4.0214844,16.185547 11.6,11.6 0 0 1 15.599609,5 11.6,11.6 0 0 1 27.179688,16.005859 11.6,11.6 0 0 0 27.199219,15.599609 11.6,11.6 0 0 0 15.599609,4 Z"
     id="path3" />
   <circle
     style="fill:#28a8ea;fill-opacity:1"
     cx="32.400002"
     cy="32.400002"
     r="11.6"
     id="circle4" />
   <circle
     style="fill:#28a8ea"
     cx="24"
     cy="24"
     r="19"
     id="circle6" />
   <circle
     style="fill:#28a8ea;fill-opacity:1"
     cx="15.6"
     cy="15.6"
     r="11.6"
     id="circle3" />
   <path
     style="opacity:0.2;fill-rule:evenodd"
     d="m 19.313838,24.659625 a 5.4909489,5.3946015 0 0 1 -1.721896,-1.786184 5.0228014,4.9346684 0 0 1 -0.589835,-2.467005 4.5129997,4.433812 0 0 1 1.063192,-2.98596 6.3998109,6.2875161 0 0 1 2.771522,-1.819963 10.703855,10.516039 0 0 1 3.629087,-0.599892 14.09324,13.845952 0 0 1 2.414824,0.181984 8.7172184,8.5642611 0 0 1 1.673926,0.424661 3.2460163,3.1890598 0 0 1 1.310383,0.822288 1.6939361,1.6642133 0 0 1 0.40473,1.105474 1.6301035,1.6015008 0 0 1 -0.425349,1.152632 1.4162094,1.3913598 0 0 1 -1.070216,0.438152 1.9264929,1.8926895 0 0 1 -0.795743,-0.175342 14.404792,14.152037 0 0 0 -1.893556,-0.68071 6.8733411,6.7527375 0 0 0 -1.82474,-0.222404 4.1647855,4.0917078 0 0 0 -2.284539,0.572881 1.9010021,1.867646 0 0 0 -0.912378,1.678354 1.7175599,1.6874226 0 0 0 0.473297,1.179533 4.3165862,4.2408449 0 0 0 1.2761,0.896472 q 0.802713,0.391156 2.394174,1.03805 a 2.4810428,2.437509 0 0 1 0.343072,0.134841 17.005557,16.707168 0 0 1 2.963592,1.496349 5.9754629,5.870614 0 0 1 1.824861,1.840102 4.9384166,4.8517643 0 0 1 0.658583,2.554561 5.230319,5.1385448 0 0 1 -0.912497,3.080388 5.4231038,5.3279469 0 0 1 -2.551885,1.860375 10.756538,10.567798 0 0 1 -3.834962,0.613397 12.082792,11.87078 0 0 1 -5.227414,-0.970634 2.8449911,2.7950712 0 0 1 -1.077066,-0.822295 1.8816769,1.8486599 0 0 1 -0.349916,-1.118965 1.4886091,1.4624891 0 0 1 0.45955,-1.139127 1.6951331,1.6653893 0 0 1 1.186815,-0.411148 3.0328222,2.9796066 0 0 1 1.385735,0.350477 q 0.795553,0.391178 1.255503,0.586519 a 6.3101638,6.199442 0 0 0 1.08397,0.336971 6.1977888,6.0890388 0 0 0 1.392457,0.141482 3.7167837,3.6515669 0 0 0 2.339473,-0.613286 2.0602031,2.0240536 0 0 0 0.788861,-1.678369 1.8155709,1.7837138 0 0 0 -0.493857,-1.226802 5.2506379,5.1585072 0 0 0 -1.454303,-1.037939 q -0.960611,-0.498719 -2.703074,-1.213296 a 16.746169,16.452331 0 0 1 -2.970503,-1.516622"
     id="path6" />
   <path
     style="fill:#ffffff;fill-rule:evenodd"
     d="m 19.313838,23.659625 a 5.4909489,5.3946015 0 0 1 -1.721896,-1.786184 5.0228014,4.9346684 0 0 1 -0.589835,-2.467005 4.5129997,4.433812 0 0 1 1.063192,-2.98596 6.3998109,6.2875161 0 0 1 2.771522,-1.819963 10.703855,10.516039 0 0 1 3.629087,-0.599892 14.09324,13.845952 0 0 1 2.414824,0.181984 8.7172184,8.5642611 0 0 1 1.673926,0.424661 3.2460163,3.1890598 0 0 1 1.310383,0.822288 1.6939361,1.6642133 0 0 1 0.40473,1.105474 1.6301035,1.6015008 0 0 1 -0.425349,1.152632 1.4162094,1.3913598 0 0 1 -1.070216,0.438152 1.9264929,1.8926895 0 0 1 -0.795743,-0.175342 14.404792,14.152037 0 0 0 -1.893556,-0.68071 6.8733411,6.7527375 0 0 0 -1.82474,-0.222404 4.1647855,4.0917078 0 0 0 -2.284539,0.572881 1.9010021,1.867646 0 0 0 -0.912378,1.678354 1.7175599,1.6874226 0 0 0 0.473297,1.179533 4.3165862,4.2408449 0 0 0 1.2761,0.896472 q 0.802713,0.391156 2.394174,1.03805 a 2.4810428,2.437509 0 0 1 0.343072,0.134841 17.005557,16.707168 0 0 1 2.963592,1.496349 5.9754629,5.870614 0 0 1 1.824861,1.840102 4.9384166,4.8517643 0 0 1 0.658583,2.554561 5.230319,5.1385448 0 0 1 -0.912497,3.080388 5.4231038,5.3279469 0 0 1 -2.551885,1.860375 10.756538,10.567798 0 0 1 -3.834962,0.613397 12.082792,11.87078 0 0 1 -5.227414,-0.970634 2.8449911,2.7950712 0 0 1 -1.077066,-0.822295 1.8816769,1.8486599 0 0 1 -0.349916,-1.118965 1.4886091,1.4624891 0 0 1 0.45955,-1.139127 1.6951331,1.6653893 0 0 1 1.186815,-0.411148 3.0328222,2.9796066 0 0 1 1.385735,0.350477 q 0.795553,0.391178 1.255503,0.586519 a 6.3101638,6.199442 0 0 0 1.08397,0.336971 6.1977888,6.0890388 0 0 0 1.392457,0.141482 3.7167837,3.6515669 0 0 0 2.339473,-0.613286 2.0602031,2.0240536 0 0 0 0.788861,-1.678369 1.8155709,1.7837138 0 0 0 -0.493857,-1.226802 5.2506379,5.1585072 0 0 0 -1.454303,-1.037939 q -0.960611,-0.498719 -2.703074,-1.213296 a 16.746169,16.452331 0 0 1 -2.970503,-1.516622"
     id="path7" />
   <path
     style="opacity:0.2;fill:#ffffff"
     d="M 24,5 A 19,19 0 0 0 5,24 19,19 0 0 0 5.0214844,24.591797 19,19 0 0 1 24,6 19,19 0 0 1 42.978516,24.408203 19,19 0 0 0 43,24 19,19 0 0 0 24,5 Z"
     id="path8" />
  </g>
 </g>
 <path
   style="display:inline;mix-blend-mode:normal;fill:url(#linearGradient3403);fill-opacity:1;stroke:url(#linearGradient20558);stroke-width:1.16242;stroke-linecap:butt;stroke-linejoin:round;stroke-miterlimit:4;stroke-dasharray:none;stroke-opacity:1"
   d="M 4.7043071,3.9814882 4.6913695,60.80196 H 58.59546 l 1.022155,-2.866369 c 0,0 -23.87537,0.766388 -32.844441,-4.140386 C 16.257548,48.042344 11.401114,4.0978197 11.401114,4.0978197 Z"
   id="path1686"
   transform="matrix(0.7518797,0,0,0.7518797,0.09970467,0.02488636)" />
 <rect
   style="display:inline;fill:none;fill-opacity:1;stroke:url(#linearGradient4557);stroke-width:3.71366;stroke-linejoin:round;stroke-miterlimit:7.8;stroke-dasharray:none;stroke-opacity:0.995146"
   id="rect4539"
   width="62.566689"
   height="62.866646"
   x="1.0323594"
   y="0.59551275"
   ry="6.2447233"
   rx="5.8029528"
   transform="matrix(0.70434793,0,0,0.70291231,1.3629847,1.5442064)" />
</svg>
