<?xml version="1.0" encoding="UTF-8" standalone="no"?>
<!-- Created with Inkscape (http://www.inkscape.org/) -->

<svg
  width="48"
  height="48"
  version="1.1"
  viewBox="0 0 48 48"
  id="svg22"
  xmlns:xlink="http://www.w3.org/1999/xlink"
  xmlns="http://www.w3.org/2000/svg"
  xmlns:svg="http://www.w3.org/2000/svg">
 <defs
   id="defs12">
  <linearGradient
    id="linearGradient917">
   <stop
     style="stop-color:#000000;stop-opacity:0.99607843"
     offset="0"
     id="stop913" />
   <stop
     style="stop-color:#353a3f;stop-opacity:0.99607843"
     offset="1"
     id="stop915" />
  </linearGradient>
  <linearGradient
    id="linearGradient1005-3-3"
    x1="5.2535"
    x2="9.3823996"
    y1="15.383"
    y2="2.9421"
    gradientTransform="matrix(0.99999,0,0,0.99999,1.632,-0.61743)"
    gradientUnits="userSpaceOnUse">
   <stop
     stop-color="#fa8200"
     offset="0"
     id="stop2" />
   <stop
     stop-color="#ff9600"
     offset=".36953"
     id="stop4" />
   <stop
     stop-color="#ffb400"
     offset="1"
     id="stop6" />
  </linearGradient>
  <filter
    id="filter4014"
    x="-0.062499932"
    y="-0.057692992"
    width="1.1249999"
    height="1.115386"
    color-interpolation-filters="sRGB">
   <feGaussianBlur
     stdDeviation="1.093751"
     id="feGaussianBlur9" />
  </filter>
  <linearGradient
    xlink:href="#linearGradient3487"
    id="linearGradient3403"
    gradientUnits="userSpaceOnUse"
    x1="6.9491749"
    y1="4.5549412"
    x2="11.215498"
    y2="59.052471" />
  <linearGradient
    id="linearGradient3487">
   <stop
     style="stop-color:#32373c;stop-opacity:1"
     offset="0"
     id="stop3481" />
   <stop
     id="stop3483"
     offset="0.36804965"
     style="stop-color:#1a1a1a;stop-opacity:1" />
   <stop
     style="stop-color:#31363b;stop-opacity:1"
     offset="1"
     id="stop3485" />
  </linearGradient>
  <linearGradient
    xlink:href="#linearGradient20604"
    id="linearGradient20558"
    gradientUnits="userSpaceOnUse"
    x1="25.802212"
    y1="20.373846"
    x2="25.111048"
    y2="58.912758" />
  <linearGradient
    id="linearGradient20604">
   <stop
     id="stop20598"
     offset="0"
     style="stop-color:#3d3d3d;stop-opacity:1" />
   <stop
     style="stop-color:#000000;stop-opacity:1"
     offset="0.61772454"
     id="stop20600" />
   <stop
     id="stop20602"
     offset="1"
     style="stop-color:#3d3d3d;stop-opacity:1" />
  </linearGradient>
  <linearGradient
    gradientTransform="translate(0.36067797,-0.13016949)"
    xlink:href="#linearGradient4555"
    id="linearGradient4557"
    x1="43.499737"
    y1="64.011795"
    x2="44.141731"
    y2="0.30621234"
    gradientUnits="userSpaceOnUse" />
  <linearGradient
    id="linearGradient4555">
   <stop
     style="stop-color:#141618;stop-opacity:1"
     offset="0"
     id="stop4551" />
   <stop
     id="stop4559"
     offset="0.51820582"
     style="stop-color:#686868;stop-opacity:1" />
   <stop
     style="stop-color:#31363b;stop-opacity:1"
     offset="1"
     id="stop4553" />
  </linearGradient>
  <filter
    style="color-interpolation-filters:sRGB"
    id="filter4601"
    x="-0.029677692"
    width="1.0593554"
    y="-0.02953609"
    height="1.0590722">
   <feGaussianBlur
     stdDeviation="2.0499904e-06"
     id="feGaussianBlur4603" />
  </filter>
  <linearGradient
    xlink:href="#linearGradient917"
    id="linearGradient919"
    x1="7.400631"
    y1="41.743092"
    x2="33.063145"
    y2="7.1074457"
    gradientUnits="userSpaceOnUse" />
  <linearGradient
    xlink:href="#a-5"
    id="linearGradient7883"
    gradientUnits="userSpaceOnUse"
    gradientTransform="matrix(-1,0,0,1,432.57,-499.8)"
    x1="424.57001"
    y1="512.78003"
    x2="393.26999"
    y2="536.79999"
    spreadMethod="reflect" />
  <linearGradient
    gradientTransform="matrix(-1,0,0,1,432.57,-499.8)"
    x2="393.26999"
    gradientUnits="userSpaceOnUse"
    x1="424.57001"
    y2="536.79999"
    y1="512.78003"
    id="a-5"
    spreadMethod="reflect">
   <stop
     id="stop7783"
     stop-color="#eff0f1" />
   <stop
     id="stop7785"
     stop-color="#bdc3c7"
     offset="1" />
  </linearGradient>
  <linearGradient
    gradientUnits="userSpaceOnUse"
    x2="12.558"
    y2="11.45"
    x1="36"
    y1="42"
    id="j">
   <stop
     id="stop7808"
     stop-color="#18222a" />
   <stop
     id="stop7810"
     stop-color="#566069"
     offset="1" />
  </linearGradient>
  <linearGradient
    x2="-403.54001"
    gradientUnits="userSpaceOnUse"
    x1="-409.69"
    y2="519.57001"
    y1="534.41998"
    xlink:href="#a-5"
    id="h" />
  <linearGradient
    gradientUnits="userSpaceOnUse"
    x2="428.57001"
    y2="534.90997"
    x1="389.07001"
    y1="518.54999"
    id="c-2"
    xlink:href="#b-6" />
  <linearGradient
    gradientUnits="userSpaceOnUse"
    x2="408.57001"
    y2="502.79999"
    x1="411.37"
    y1="517.52002"
    id="b-6">
   <stop
     id="stop7788"
     stop-color="#2f3943" />
   <stop
     id="stop7790"
     stop-color="#808c9b"
     offset="1" />
  </linearGradient>
  <linearGradient
    gradientUnits="userSpaceOnUse"
    x2="423.91"
    y2="541.27002"
    x1="395.10001"
    y1="512.45001"
    id="f"
    xlink:href="#e"
    spreadMethod="reflect" />
  <linearGradient
    gradientUnits="userSpaceOnUse"
    x2="39"
    x1="-1.875"
    id="e">
   <stop
     id="stop7795"
     stop-color="#197cf1" />
   <stop
     id="stop7797"
     stop-color="#21c9fb"
     offset="1" />
  </linearGradient>
  <linearGradient
    gradientTransform="translate(0,1)"
    gradientUnits="userSpaceOnUse"
    x2="406.82999"
    y2="528.98999"
    x1="408.85999"
    y1="546.04999"
    id="d"
    xlink:href="#b-6" />
  <linearGradient
    gradientTransform="translate(384.57,500.8)"
    gradientUnits="userSpaceOnUse"
    x2="9"
    x1="50"
    id="g"
    xlink:href="#e" />
  <linearGradient
    gradientUnits="userSpaceOnUse"
    x2="39"
    x1="-1.875"
    id="linearGradient941">
   <stop
     id="stop937"
     stop-color="#197cf1" />
   <stop
     id="stop939"
     stop-color="#21c9fb"
     offset="1" />
  </linearGradient>
  <linearGradient
    xlink:href="#b-6"
    id="linearGradient7885"
    gradientUnits="userSpaceOnUse"
    x1="411.37"
    y1="517.52002"
    x2="408.57001"
    y2="502.79999" />
  <linearGradient
    xlink:href="#e"
    id="linearGradient7887"
    gradientUnits="userSpaceOnUse"
    x1="-1.875"
    x2="39" />
  <linearGradient
    gradientUnits="userSpaceOnUse"
    x2="39"
    x1="-1.875"
    id="linearGradient955">
   <stop
     id="stop951"
     stop-color="#197cf1" />
   <stop
     id="stop953"
     stop-color="#21c9fb"
     offset="1" />
  </linearGradient>
  <linearGradient
    gradientUnits="userSpaceOnUse"
    x2="428.57001"
    x1="390.57001"
    id="i">
   <stop
     id="stop7803"
     stop-color="#292c2f" />
   <stop
     id="stop7805"
     stop-opacity="0"
     offset="1" />
  </linearGradient>
 </defs>
 <rect
   style="display:inline;fill:url(#linearGradient919);fill-opacity:1;fill-rule:evenodd;stroke:none;stroke-width:0.92782;stroke-linejoin:round;stroke-miterlimit:7.8"
   id="rect1192"
   width="42.084602"
   height="42.712109"
   x="3.1629105"
   y="3.0184898"
   ry="0" />
 <g
   id="g7841"
   transform="matrix(1.0033113,0,0,1.0033368,-384.57468,-502.26279)">
  <g
    id="g7823"
    style="stroke-width:2.8;stroke-opacity:0.55">
   <path
     style="fill:url(#linearGradient7883)"
     id="path7815"
     transform="translate(384.57,499.8)"
     d="M 24,4 C 12.92,4 4,12.92 4,24 4,35.08 12.92,44 24,44 35.08,44 44,35.08 44,24 44,12.92 35.08,4 24,4 m 0,3 c 2.216,0 4,1.784 4,4 0,2.216 -1.784,4 -4,4 -2.216,0 -4,-1.784 -4,-4 0,-2.216 1.784,-4 4,-4 m -11.539,6.506 c 0.768,-0.054 1.562,0.114 2.281,0.529 1.919,1.108 2.571,3.546 1.463,5.465 -1.108,1.919 -3.544,2.573 -5.463,1.465 C 8.823,19.857 8.169,17.419 9.277,15.5 9.97,14.301 11.181,13.595 12.461,13.506 m 23.08,0 c 1.28,0.089 2.491,0.795 3.184,1.994 1.108,1.919 0.454,4.357 -1.465,5.465 -1.919,1.108 -4.355,0.454 -5.463,-1.465 -1.108,-1.919 -0.456,-4.357 1.463,-5.465 0.72,-0.416 1.513,-0.583 2.281,-0.529 m -22.518,13 c 1.28,0.089 2.491,0.795 3.184,1.994 1.108,1.919 0.456,4.357 -1.463,5.465 -1.919,1.108 -4.357,0.454 -5.465,-1.465 -1.108,-1.919 -0.454,-4.357 1.465,-5.465 0.72,-0.416 1.511,-0.583 2.279,-0.529 m 21.957,0 c 0.768,-0.054 1.56,0.114 2.279,0.529 1.919,1.108 2.573,3.546 1.465,5.465 -1.108,1.919 -3.546,2.573 -5.465,1.465 C 31.34,32.857 30.688,30.419 31.796,28.5 32.489,27.301 33.7,26.595 34.98,26.506 M 24.001,33 c 2.216,0 4,1.784 4,4 0,2.216 -1.784,4 -4,4 -2.216,0 -4,-1.784 -4,-4 0,-2.216 1.784,-4 4,-4" />
   <path
     id="path7817"
     transform="translate(384.57,499.8)"
     d="M 24,8 A 15.999973,15.999973 0 0 0 21.08008,8.277344 C 20.415,8.991 20,9.943 20,11 c 0,2.216 1.784,4 4,4 2.22,0 4,-1.784 4,-4 C 28,9.943 27.585,8.993 26.92,8.279 A 15.999973,15.999973 0 0 0 24,8 m -11.539,5.506 c -0.208,0.014 -0.411,0.051 -0.615,0.098 A 15.999973,15.999973 0 0 0 8.929688,18.683594 C 9.218,19.611 9.832,20.439 10.742,20.965 12.661,22.07 15.1,21.419 16.205,19.5 17.313,17.581 16.661,15.14 14.742,14.04 14.02,13.62 13.229,13.452 12.461,13.506 m 23.078,0 c -0.768,-0.054 -1.562,0.114 -2.279,0.534 -1.92,1.1 -2.573,3.541 -1.465,5.46 1.108,1.919 3.545,2.57 5.465,1.465 0.91,-0.526 1.523,-1.356 1.81,-2.283 A 15.999973,15.999973 0 0 0 36.13281,13.597656 C 35.937,13.554 35.74,13.52 35.539,13.506 m -22.519,13 C 12.254,26.452 11.462,26.62 10.742,27.04 9.831,27.561 9.217,28.391 8.93,29.32 a 15.999973,15.999973 0 0 0 2.929375,5.072578 C 12.806,34.607 13.832,34.491 14.742,33.965 16.661,32.857 17.313,30.419 16.205,28.5 15.513,27.301 14.301,26.595 13.02,26.506 m 21.959,0 c -1.28,0.089 -2.492,0.795 -3.184,1.994 -1.108,1.919 -0.455,4.357 1.465,5.465 0.91,0.529 1.95,0.646 2.9,0.426 a 15.999973,15.999973 0 0 0 2.91031,-5.07459 C 38.782,28.389 38.17,27.561 37.26,27.04 36.538,26.62 35.746,26.452 34.979,26.506 M 24,33 c -2.216,0 -4,1.784 -4,4 0,1.06 0.415,2.01 1.08,2.721 A 15.999973,15.999973 0 0 0 24,40 15.999973,15.999973 0 0 0 26.919922,39.722656 C 27.585,39.01 28,38.06 28,37 28,34.784 26.22,33 24,33"
     style="fill:url(#j)" />
   <rect
     id="rect7819"
     transform="scale(-1,1)"
     height="14"
     rx="7"
     y="516.79999"
     x="-415.57001"
     width="14"
     style="fill:url(#h)" />
   <path
     id="path7821"
     d="m 388.58,523.3 c -0.004,0.167 -0.012,0.332 -0.012,0.5 0,11.08 8.92,20 20,20 11.08,0 20,-8.92 20,-20 0,-0.168 -0.008,-0.333 -0.012,-0.5 -0.264,10.847 -9.08,19.5 -19.988,19.5 -10.912,0 -19.724,-8.653 -19.988,-19.5"
     style="fill:#bdc3c7" />
  </g>
  <g
    id="g7839"
    style="color:#000000;stroke-width:3;stroke-linejoin:round">
   <path
     style="fill:url(#c-2)"
     id="path7825"
     d="m 402.57,511.8 24,24 h -12 l -24,-24 z" />
   <path
     id="path7827"
     d="m 395.76,511.8 -1.022,1.022 4.334,4.334 2.889,-2.889 -2.466,-2.466 z m 6.976,3.241 -2.889,2.889 4.334,4.334 2.891,-2.889 z m 5.108,5.108 -2.889,2.889 4.334,4.334 2.891,-2.889 z m 5.108,5.108 -2.889,2.889 4.334,4.334 2.891,-2.889 z m 5.108,5.108 -2.889,2.889 2.466,2.466 h 3.735 l 1.022,-1.022 z"
     style="fill:url(#f)" />
   <path
     id="path7829"
     d="m 393.57,535.8 v 8 h 25 l 8,-8 z"
     style="fill:url(#d)" />
   <path
     id="path7831"
     d="m 393.57,537.8 v 4 h 4 v -4 z m 5,0 v 4 h 6 v -4 z m 7,0 v 4 h 6 v -4 z m 7,0 v 4 h 6 v -4 z m 7,0 v 4 h 1 l 4,-4 z"
     style="fill:url(#g)" />
   <path
     style="fill:url(#linearGradient7885)"
     id="path7833"
     d="m 398.57,503.8 -8,8 h 33 v -8 z" />
   <path
     id="path7835"
     transform="translate(384.57,499.8)"
     d="m 13,6 h -1 l -4,4 h 5 z m 1,0 v 4 h 6 V 6 Z m 7,0 v 4 h 6 V 6 Z m 7,0 v 4 h 6 V 6 Z m 7,0 v 4 h 4 V 6 Z"
     style="fill:url(#linearGradient7887)" />
   <path
     id="path7837"
     d="m 423.57,510.57 v 1.225 h -33 l 24,24 h 9.994 c 2.506,-3.341 4.01,-7.484 4.01,-12 0,-5.086 -1.895,-9.703 -5,-13.225"
     style="opacity:0.2;fill:url(#i)" />
  </g>
 </g>
 <path
   style="display:inline;mix-blend-mode:normal;fill:url(#linearGradient3403);fill-opacity:1;stroke:url(#linearGradient20558);stroke-width:1.16242;stroke-linecap:butt;stroke-linejoin:round;stroke-miterlimit:4;stroke-dasharray:none;stroke-opacity:1"
   d="M 4.7043071,3.9814882 4.6913695,60.80196 H 58.59546 l 1.022155,-2.866369 c 0,0 -23.87537,0.766388 -32.844441,-4.140386 C 16.257548,48.042344 11.401114,4.0978197 11.401114,4.0978197 Z"
   id="path1686"
   transform="matrix(0.7518797,0,0,0.7518797,0.09970467,0.02488636)" />
 <rect
   style="display:inline;fill:none;fill-opacity:1;stroke:url(#linearGradient4557);stroke-width:3.71366;stroke-linejoin:round;stroke-miterlimit:7.8;stroke-dasharray:none;stroke-opacity:0.995146"
   id="rect4539"
   width="62.566689"
   height="62.866646"
   x="1.0323594"
   y="0.59551275"
   ry="6.2447233"
   rx="5.8029528"
   transform="matrix(0.70434793,0,0,0.70291231,1.3629847,1.5442064)" />
</svg>
