<?xml version="1.0" encoding="UTF-8" standalone="no"?>
<!-- Created with Inkscape (http://www.inkscape.org/) -->

<svg
  width="48"
  height="48"
  version="1.1"
  viewBox="0 0 48 48"
  id="svg22"
  xmlns:xlink="http://www.w3.org/1999/xlink"
  xmlns="http://www.w3.org/2000/svg"
  xmlns:svg="http://www.w3.org/2000/svg">
 <defs
   id="defs12">
  <linearGradient
    id="linearGradient1005-3-3"
    x1="5.2535"
    x2="9.3823996"
    y1="15.383"
    y2="2.9421"
    gradientTransform="matrix(0.99999,0,0,0.99999,1.632,-0.61743)"
    gradientUnits="userSpaceOnUse">
   <stop
     stop-color="#fa8200"
     offset="0"
     id="stop2" />
   <stop
     stop-color="#ff9600"
     offset=".36953"
     id="stop4" />
   <stop
     stop-color="#ffb400"
     offset="1"
     id="stop6" />
  </linearGradient>
  <filter
    id="filter4014"
    x="-0.062499932"
    y="-0.057692992"
    width="1.1249999"
    height="1.115386"
    color-interpolation-filters="sRGB">
   <feGaussianBlur
     stdDeviation="1.093751"
     id="feGaussianBlur9" />
  </filter>
  <linearGradient
    xlink:href="#linearGradient3487"
    id="linearGradient3403"
    gradientUnits="userSpaceOnUse"
    x1="6.9491749"
    y1="4.5549412"
    x2="11.215498"
    y2="59.052471" />
  <linearGradient
    id="linearGradient3487">
   <stop
     style="stop-color:#32373c;stop-opacity:1"
     offset="0"
     id="stop3481" />
   <stop
     id="stop3483"
     offset="0.36804965"
     style="stop-color:#1a1a1a;stop-opacity:1" />
   <stop
     style="stop-color:#31363b;stop-opacity:1"
     offset="1"
     id="stop3485" />
  </linearGradient>
  <linearGradient
    xlink:href="#linearGradient20604"
    id="linearGradient20558"
    gradientUnits="userSpaceOnUse"
    x1="25.802212"
    y1="20.373846"
    x2="25.111048"
    y2="58.912758" />
  <linearGradient
    id="linearGradient20604">
   <stop
     id="stop20598"
     offset="0"
     style="stop-color:#3d3d3d;stop-opacity:1" />
   <stop
     style="stop-color:#000000;stop-opacity:1"
     offset="0.61772454"
     id="stop20600" />
   <stop
     id="stop20602"
     offset="1"
     style="stop-color:#3d3d3d;stop-opacity:1" />
  </linearGradient>
  <linearGradient
    gradientTransform="translate(0.36067797,-0.13016949)"
    xlink:href="#linearGradient4555"
    id="linearGradient4557"
    x1="43.499737"
    y1="64.011795"
    x2="44.141731"
    y2="0.30621234"
    gradientUnits="userSpaceOnUse" />
  <linearGradient
    id="linearGradient4555">
   <stop
     style="stop-color:#141618;stop-opacity:1"
     offset="0"
     id="stop4551" />
   <stop
     id="stop4559"
     offset="0.51820582"
     style="stop-color:#686868;stop-opacity:1" />
   <stop
     style="stop-color:#31363b;stop-opacity:1"
     offset="1"
     id="stop4553" />
  </linearGradient>
  <filter
    style="color-interpolation-filters:sRGB"
    id="filter4601"
    x="-0.029714057"
    width="1.0594281"
    y="-0.029572281"
    height="1.0591446">
   <feGaussianBlur
     stdDeviation="0.00095005826"
     id="feGaussianBlur4603" />
  </filter>
  <linearGradient
    gradientUnits="userSpaceOnUse"
    y2="5.1285472"
    x2="35.057411"
    y1="53.859512"
    x1="11.086592"
    id="linearGradient4587-3"
    xlink:href="#linearGradient4585"
    gradientTransform="translate(0.36135313,-0.12490449)" />
  <linearGradient
    id="linearGradient4585">
   <stop
     id="stop4581"
     offset="0"
     style="stop-color:#1d95eb;stop-opacity:1" />
   <stop
     id="stop4583"
     offset="1"
     style="stop-color:#06528c;stop-opacity:1" />
  </linearGradient>
  <linearGradient
    xlink:href="#shadow-3"
    id="linearGradient4373"
    gradientUnits="userSpaceOnUse"
    gradientTransform="translate(5.9783302,-17.513484)"
    x1="21.084999"
    y1="1036.975"
    x2="35.969002"
    y2="1049.3621" />
  <linearGradient
    id="shadow-3">
   <stop
     style="stop-color:#31363b;stop-opacity:0.208"
     offset="0"
     id="stop18053" />
   <stop
     style="stop-color:#31363b;stop-opacity:0;"
     offset="1"
     id="stop18055" />
  </linearGradient>
  <linearGradient
    xlink:href="#shadow-3"
    id="linearGradient4199"
    x1="21.969"
    y1="1035.3621"
    x2="35.969002"
    y2="1049.3621"
    gradientUnits="userSpaceOnUse"
    gradientTransform="translate(10,-14.000047)" />
  <linearGradient
    xlink:href="#shadow-3"
    id="linearGradient4203"
    gradientUnits="userSpaceOnUse"
    x1="23"
    y1="1035.3621"
    x2="36"
    y2="1048.3621"
    gradientTransform="translate(13,-1021.3622)" />
  <linearGradient
    xlink:href="#shadow-3"
    id="linearGradient4377"
    gradientUnits="userSpaceOnUse"
    gradientTransform="translate(-6.3297472,-4.8518532)"
    x1="21.084999"
    y1="1036.975"
    x2="35.969002"
    y2="1049.3621" />
  <linearGradient
    xlink:href="#shadow-3"
    id="linearGradient4381"
    gradientUnits="userSpaceOnUse"
    gradientTransform="translate(-2.8703079,-1.1698725)"
    x1="21.969"
    y1="1035.3621"
    x2="35.969002"
    y2="1049.3621" />
  <linearGradient
    xlink:href="#shadow-3"
    id="linearGradient4227"
    gradientUnits="userSpaceOnUse"
    gradientTransform="translate(-15.75,-1005.8622)"
    x1="21.475"
    y1="1035.158"
    x2="34.474998"
    y2="1048.158" />
 </defs>
 <g
   id="g888"
   transform="matrix(0.65914383,0,0,0.65914383,3.3269121,2.2387167)">
  <rect
    y="0.60077608"
    x="1.033034"
    height="62.866646"
    width="62.567139"
    id="rect4539-1"
    style="opacity:1;fill:url(#linearGradient4587-3);fill-opacity:1;stroke:none;stroke-width:1.146;stroke-linejoin:round;stroke-miterlimit:7.8;stroke-dasharray:none;stroke-opacity:0.995146" />
  <g
    transform="matrix(1.33,0,0,1.33,6.0373567,-1338.2593)"
    id="g18087">
   <path
     d="m 26.586,1028.0254 8.104641,-0.4201 1.91027,-6.7552 -5.59099,-4.4419 -6.871493,5.8329 z"
     style="fill:url(#linearGradient4373);fill-opacity:1;fill-rule:evenodd;stroke:none;stroke-width:1px;stroke-linecap:butt;stroke-linejoin:miter;stroke-opacity:1"
     id="path18069" />
   <path
     style="fill:url(#linearGradient4199);fill-opacity:1;fill-rule:evenodd;stroke:none;stroke-width:1px;stroke-linecap:butt;stroke-linejoin:miter;stroke-opacity:1"
     d="M 31.027515,1028.3568 35,1027.3622 l 1.976562,-2.9766 -4,-4 -4.949047,4.9712 z"
     id="path18071" />
   <path
     style="fill:url(#linearGradient4203);fill-opacity:1;fill-rule:evenodd;stroke:none;stroke-width:1px;stroke-linecap:butt;stroke-linejoin:miter;stroke-opacity:1"
     d="M 35.923828,13.330078 C 37.206994,14.675942 38,16.493653 38,18.5 c -10e-7,4.142136 -3.357865,7.5 -7.5,7.5 -0.203438,-0.0015 -0.406734,-0.01127 -0.609375,-0.0293 l -5.896484,5.111328 c -0.0083,0.739616 -0.153346,1.471317 -0.427735,2.158203 -1.23712,3.074359 -4.732395,4.563589 -7.80664,3.326172 -0.24293,-0.09775 -0.470788,-0.215212 -0.69336,-0.339844 -0.04331,-0.0244 -0.08621,-0.04875 -0.128906,-0.07422 -0.211403,-0.125374 -0.414371,-0.260582 -0.605469,-0.408203 -0.0063,-0.0049 -0.01326,-0.0088 -0.01953,-0.01367 l -0.01172,0.002 8.19336,8.193359 C 22.994984,43.969391 23.497293,43.994196 24,44 a 20,20 0 0 0 1.310547,-0.04687 c 0.06663,-0.0043 0.132772,-0.01066 0.199219,-0.01563 a 20,20 0 0 0 1.845703,-0.222656 c 0.03199,-0.0054 0.06377,-0.01202 0.0957,-0.01758 a 20,20 0 0 0 1.396484,-0.3125 c 0.240477,-0.05998 0.481808,-0.116947 0.71875,-0.185547 A 20,20 0 0 0 30.7832,42.79492 c 0.221103,-0.07984 0.444706,-0.154851 0.662109,-0.242188 a 20,20 0 0 0 1.148441,-0.51367 C 32.813074,41.93437 33.035177,41.835015 33.25,41.722656 a 20,20 0 0 0 1.03125,-0.591797 c 0.231705,-0.139379 0.46789,-0.271541 0.693359,-0.419921 a 20,20 0 0 0 0.953125,-0.685547 c 0.206289,-0.153802 0.419094,-0.299475 0.619141,-0.460938 a 20,20 0 0 0 0.908203,-0.796875 c 0.190109,-0.173313 0.387023,-0.339092 0.570313,-0.519531 a 20,20 0 0 0 0.833984,-0.892578 c 0.163426,-0.181706 0.335418,-0.355335 0.492187,-0.542969 a 20,20 0 0 0 0.863282,-1.136719 c 0.102363,-0.141895 0.215754,-0.275269 0.314453,-0.419922 a 20,20 0 0 0 3.371094,-9.257812 c 6.3e-5,-6.43e-4 -6.4e-5,-0.0013 0,-0.002 a 20,20 0 0 0 0,-0.0059 A 20,20 0 0 0 44,24 20,20 0 0 0 43.779297,21.185547 Z"
     transform="translate(0,1004.3622)"
     id="path18073" />
   <path
     style="fill:url(#linearGradient4377);fill-opacity:1;fill-rule:evenodd;stroke:none;stroke-width:1px;stroke-linecap:butt;stroke-linejoin:miter;stroke-opacity:1"
     d="m 15.316486,1040.0683 6.358971,-0.6411 1.357843,-7.5507 -6.629553,-1.7681 -3.799998,4.5733 z"
     id="path18075" />
   <path
     d="m 16.985332,1040.2339 3.972485,-0.4165 2.210937,-3.4453 -3.0625,-3.1563 -6.933422,3.9868 z"
     style="fill:url(#linearGradient4381);fill-opacity:1;fill-rule:evenodd;stroke:none;stroke-width:1px;stroke-linecap:butt;stroke-linejoin:miter;stroke-opacity:1"
     id="path18077" />
   <path
     style="fill:url(#linearGradient4227);fill-opacity:1;fill-rule:evenodd;stroke:none;stroke-width:1px;stroke-linecap:butt;stroke-linejoin:miter;stroke-opacity:1"
     d="M 5.7695312,29.3125 19.363281,43.431641 a 20,20 0 0 0 3.13086,0.49414 l -8.19336,-8.193359 -2.001953,-4.97461 z"
     transform="translate(0,1004.3622)"
     id="path18079" />
   <path
     style="opacity:1;fill:#ffffff;fill-opacity:1;stroke:none;stroke-width:1;stroke-linecap:round;stroke-linejoin:round;stroke-miterlimit:4;stroke-dasharray:none;stroke-opacity:1"
     d="m 30.5,11 c -4.142135,0 -7.499999,3.357864 -7.5,7.5 0.0017,0.201484 0.01143,0.402819 0.0293,0.603516 -1.289636,1.575722 -4.80544,5.546997 -5.113281,5.902343 -2.416761,0.03284 -4.577852,1.51258 -5.482422,3.753907 -1.237432,3.074241 0.2518,6.569519 3.326172,7.80664 3.074245,1.237417 6.56952,-0.251813 7.80664,-3.326172 0.274389,-0.686886 0.419405,-1.418587 0.427735,-2.158203 l 5.896484,-5.111328 C 30.093269,25.98873 30.296562,25.998503 30.5,26 34.642135,26 37.999999,22.642136 38,18.5 37.999999,14.357864 34.642135,11 30.5,11 Z m 0,3 c 2.48528,0 4.499999,2.014718 4.5,4.5 -10e-7,2.485282 -2.01472,4.5 -4.5,4.5 -2.48528,0 -4.499999,-2.014718 -4.5,-4.5 1e-6,-2.485282 2.01472,-4.5 4.5,-4.5 z M 18.046875,27 c 0.496175,0.0058 0.986949,0.103774 1.447266,0.289062 2.049689,0.825003 3.042263,3.155585 2.216797,5.205079 -0.825003,2.049668 -3.155579,3.04224 -5.205079,2.216797 C 14.45617,33.885935 13.463596,31.555353 14.289062,29.505859 14.905127,27.975627 16.397393,26.980525 18.046875,27 Z"
     transform="translate(0,1004.3622)"
     id="path18081" />
   <circle
     r="3.5"
     style="opacity:1;fill:#ffffff;fill-opacity:1;stroke:none;stroke-width:1;stroke-linecap:round;stroke-linejoin:round;stroke-miterlimit:4;stroke-dasharray:none;stroke-opacity:1"
     cx="30.5"
     cy="1022.862"
     id="ellipse18083" />
   <path
     style="opacity:1;fill:#ffffff;fill-opacity:1;stroke:none;stroke-width:1;stroke-linecap:round;stroke-linejoin:round;stroke-miterlimit:4;stroke-dasharray:none;stroke-opacity:1"
     d="M 5.0722656,22.564453 A 19,19 0 0 0 5,24 19,19 0 0 0 5.7695312,29.3125 l 11.1113278,4.470703 a 3,3 0 0 0 3.902344,-1.664062 3,3 0 0 0 -1.664062,-3.902344 z"
     transform="translate(0,1004.3622)"
     id="path18085" />
  </g>
 </g>
 <path
   style="display:inline;mix-blend-mode:normal;fill:url(#linearGradient3403);fill-opacity:1;stroke:url(#linearGradient20558);stroke-width:1.16242;stroke-linecap:butt;stroke-linejoin:round;stroke-miterlimit:4;stroke-dasharray:none;stroke-opacity:1"
   d="M 4.7043071,3.9814882 4.6913695,60.80196 H 58.59546 l 1.022155,-2.866369 c 0,0 -23.87537,0.766388 -32.844441,-4.140386 C 16.257548,48.042344 11.401114,4.0978197 11.401114,4.0978197 Z"
   id="path1686"
   transform="matrix(0.7518797,0,0,0.7518797,0.09970467,0.02488636)" />
 <rect
   style="display:inline;fill:none;fill-opacity:1;stroke:url(#linearGradient4557);stroke-width:3.71366;stroke-linejoin:round;stroke-miterlimit:7.8;stroke-dasharray:none;stroke-opacity:0.995146"
   id="rect4539"
   width="62.566689"
   height="62.866646"
   x="1.0323594"
   y="0.59551275"
   ry="6.2447233"
   rx="5.8029528"
   transform="matrix(0.70434793,0,0,0.70291231,1.3629847,1.5442064)" />
</svg>
