<?xml version="1.0" encoding="UTF-8" standalone="no"?>
<!-- Created with Inkscape (http://www.inkscape.org/) -->

<svg
  width="48"
  height="48"
  version="1.1"
  viewBox="0 0 48 48"
  id="svg22"
  xmlns:xlink="http://www.w3.org/1999/xlink"
  xmlns="http://www.w3.org/2000/svg"
  xmlns:svg="http://www.w3.org/2000/svg">
 <defs
   id="defs12">
  <linearGradient
    id="linearGradient1005-3-3"
    x1="5.2535"
    x2="9.3823996"
    y1="15.383"
    y2="2.9421"
    gradientTransform="matrix(0.99999,0,0,0.99999,1.632,-0.61743)"
    gradientUnits="userSpaceOnUse">
   <stop
     stop-color="#fa8200"
     offset="0"
     id="stop2" />
   <stop
     stop-color="#ff9600"
     offset=".36953"
     id="stop4" />
   <stop
     stop-color="#ffb400"
     offset="1"
     id="stop6" />
  </linearGradient>
  <filter
    id="filter4014"
    x="-0.062499932"
    y="-0.057692992"
    width="1.1249999"
    height="1.115386"
    color-interpolation-filters="sRGB">
   <feGaussianBlur
     stdDeviation="1.093751"
     id="feGaussianBlur9" />
  </filter>
  <linearGradient
    xlink:href="#linearGradient3487"
    id="linearGradient3403"
    gradientUnits="userSpaceOnUse"
    x1="6.9491749"
    y1="4.5549412"
    x2="11.215498"
    y2="59.052471" />
  <linearGradient
    id="linearGradient3487">
   <stop
     style="stop-color:#32373c;stop-opacity:1"
     offset="0"
     id="stop3481" />
   <stop
     id="stop3483"
     offset="0.36804965"
     style="stop-color:#1a1a1a;stop-opacity:1" />
   <stop
     style="stop-color:#31363b;stop-opacity:1"
     offset="1"
     id="stop3485" />
  </linearGradient>
  <linearGradient
    xlink:href="#linearGradient20604"
    id="linearGradient20558"
    gradientUnits="userSpaceOnUse"
    x1="25.802212"
    y1="20.373846"
    x2="25.111048"
    y2="58.912758" />
  <linearGradient
    id="linearGradient20604">
   <stop
     id="stop20598"
     offset="0"
     style="stop-color:#3d3d3d;stop-opacity:1" />
   <stop
     style="stop-color:#000000;stop-opacity:1"
     offset="0.61772454"
     id="stop20600" />
   <stop
     id="stop20602"
     offset="1"
     style="stop-color:#3d3d3d;stop-opacity:1" />
  </linearGradient>
  <linearGradient
    gradientTransform="translate(0.36067797,-0.13016949)"
    xlink:href="#linearGradient4555"
    id="linearGradient4557"
    x1="43.499737"
    y1="64.011795"
    x2="44.141731"
    y2="0.30621234"
    gradientUnits="userSpaceOnUse" />
  <linearGradient
    id="linearGradient4555">
   <stop
     style="stop-color:#141618;stop-opacity:1"
     offset="0"
     id="stop4551" />
   <stop
     id="stop4559"
     offset="0.51820582"
     style="stop-color:#686868;stop-opacity:1" />
   <stop
     style="stop-color:#31363b;stop-opacity:1"
     offset="1"
     id="stop4553" />
  </linearGradient>
  <filter
    style="color-interpolation-filters:sRGB"
    id="filter4601"
    x="-0.029677666"
    width="1.0593553"
    y="-0.029536064"
    height="1.0590721">
   <feGaussianBlur
     stdDeviation="1.3765464e-06"
     id="feGaussianBlur4603" />
  </filter>
  <linearGradient
    id="b"
    gradientUnits="userSpaceOnUse"
    x1="44"
    x2="4"
    y1="44"
    y2="4">
   <stop
     offset="0"
     stop-color="#172525"
     id="stop7" />
   <stop
     offset="1"
     stop-color="#536161"
     id="stop9" />
  </linearGradient>
  <linearGradient
    id="a"
    gradientUnits="userSpaceOnUse"
    x1="23"
    x2="37"
    y1="20"
    y2="34">
   <stop
     offset="0"
     stop-color="#292c2f"
     id="stop2-8" />
   <stop
     offset="1"
     stop-opacity="0"
     id="stop4-5" />
  </linearGradient>
  <linearGradient
    id="c"
    gradientTransform="matrix(2.0428665,-6.8308524,5.7819337,2.3633129,25.219113,34.652812)"
    gradientUnits="userSpaceOnUse"
    x1="24"
    x2="24"
    y1="35"
    y2="13">
   <stop
     offset="0"
     stop-color="#23a2cd"
     id="stop12" />
   <stop
     offset=".53"
     stop-color="#00b8f5"
     id="stop14" />
   <stop
     offset="1"
     stop-color="#2ecbff"
     id="stop16" />
  </linearGradient>
  <linearGradient
    xlink:href="#c"
    id="linearGradient893"
    gradientUnits="userSpaceOnUse"
    gradientTransform="matrix(2.0428665,-6.8308524,5.7819337,2.3633129,25.219113,34.652812)"
    x1="24"
    y1="35"
    x2="24"
    y2="13" />
  <linearGradient
    xlink:href="#c"
    id="linearGradient234188"
    gradientUnits="userSpaceOnUse"
    gradientTransform="matrix(2.0428665,-6.8308524,5.7819337,2.3633129,25.219113,34.652812)"
    x1="24"
    y1="35"
    x2="24"
    y2="13" />
 </defs>
 <g
   id="g858"
   transform="matrix(1.0402774,0,0,1.0716339,-0.53405953,-1.4112443)">
  <rect
    fill="url(#b)"
    height="40"
    ry="1"
    width="40"
    x="4"
    y="4"
    id="rect19"
    style="fill:url(#b)" />
  <path
    d="M 17.3,33.060252 27.239748,43 H 44 V 33.5 L 34.5,24 31.533,26.967 h -5.631256 z"
    fill="url(#a)"
    opacity="0.4"
    id="path21"
    style="fill:url(#a)" />
  <path
    d="M 4,6 V 5 C 4,4.445993 4.445996,4 5,4 h 38 c 0.554004,0 1,0.445993 1,1 V 6 C 44,5.445993 43.554004,5 43,5 H 5 C 4.445996,5 4,5.445993 4,6 Z"
    fill="#ffffff"
    opacity="0.184"
    id="path23" />
  <path
    d="m 4,42 v 1 c 0,0.554007 0.445996,1 1,1 h 38 c 0.554004,0 1,-0.445993 1,-1 v -1 c 0,0.554007 -0.445996,1 -1,1 H 5 C 4.445996,43 4,42.554007 4,42 Z"
    opacity="0.481"
    id="path25" />
  <path
    d="M 23.672478,26.601189 14.1,19.821073 l 3.2,-4.880625 9.572478,6.780116 z"
    fill="url(#c)"
    opacity="0.61157"
    id="path27"
    style="fill:url(#linearGradient234188)" />
  <path
    d="M 24.188465,21.033 H 31.533 L 34.5,24 31.533,26.967 H 25.901744 L 17.3,33.060252 14.1,28.179407 20,24 Z"
    fill="url(#c)"
    id="path29"
    style="fill:url(#linearGradient893)" />
 </g>
 <path
   style="display:inline;mix-blend-mode:normal;fill:url(#linearGradient3403);fill-opacity:1;stroke:url(#linearGradient20558);stroke-width:1.16242;stroke-linecap:butt;stroke-linejoin:round;stroke-miterlimit:4;stroke-dasharray:none;stroke-opacity:1"
   d="M 4.7043071,3.9814882 4.6913695,60.80196 H 58.59546 l 1.022155,-2.866369 c 0,0 -23.87537,0.766388 -32.844441,-4.140386 C 16.257548,48.042344 11.401114,4.0978197 11.401114,4.0978197 Z"
   id="path1686"
   transform="matrix(0.7518797,0,0,0.7518797,0.09970467,0.02488636)" />
 <rect
   style="display:inline;fill:none;fill-opacity:1;stroke:url(#linearGradient4557);stroke-width:3.71366;stroke-linejoin:round;stroke-miterlimit:7.8;stroke-dasharray:none;stroke-opacity:0.995146"
   id="rect4539"
   width="62.566689"
   height="62.866646"
   x="1.0323594"
   y="0.59551275"
   ry="6.2447233"
   rx="5.8029528"
   transform="matrix(0.70434793,0,0,0.70291231,1.3629847,1.5442064)" />
</svg>
