<?xml version="1.0" encoding="UTF-8" standalone="no"?>
<!-- Created with Inkscape (http://www.inkscape.org/) -->

<svg
  width="48"
  height="48"
  version="1.1"
  viewBox="0 0 48 48"
  id="svg22"
  xmlns:xlink="http://www.w3.org/1999/xlink"
  xmlns="http://www.w3.org/2000/svg"
  xmlns:svg="http://www.w3.org/2000/svg">
 <defs
   id="defs12">
  <linearGradient
    id="linearGradient1005-3-3"
    x1="5.2535"
    x2="9.3823996"
    y1="15.383"
    y2="2.9421"
    gradientTransform="matrix(0.99999,0,0,0.99999,1.632,-0.61743)"
    gradientUnits="userSpaceOnUse">
   <stop
     stop-color="#fa8200"
     offset="0"
     id="stop2" />
   <stop
     stop-color="#ff9600"
     offset=".36953"
     id="stop4" />
   <stop
     stop-color="#ffb400"
     offset="1"
     id="stop6" />
  </linearGradient>
  <filter
    id="filter4014"
    x="-0.062499932"
    y="-0.057692992"
    width="1.1249999"
    height="1.115386"
    color-interpolation-filters="sRGB">
   <feGaussianBlur
     stdDeviation="1.093751"
     id="feGaussianBlur9" />
  </filter>
  <linearGradient
    xlink:href="#linearGradient3487"
    id="linearGradient3403"
    gradientUnits="userSpaceOnUse"
    x1="6.9491749"
    y1="4.5549412"
    x2="11.215498"
    y2="59.052471" />
  <linearGradient
    id="linearGradient3487">
   <stop
     style="stop-color:#32373c;stop-opacity:1"
     offset="0"
     id="stop3481" />
   <stop
     id="stop3483"
     offset="0.36804965"
     style="stop-color:#1a1a1a;stop-opacity:1" />
   <stop
     style="stop-color:#31363b;stop-opacity:1"
     offset="1"
     id="stop3485" />
  </linearGradient>
  <linearGradient
    xlink:href="#linearGradient20604"
    id="linearGradient20558"
    gradientUnits="userSpaceOnUse"
    x1="25.802212"
    y1="20.373846"
    x2="25.111048"
    y2="58.912758" />
  <linearGradient
    id="linearGradient20604">
   <stop
     id="stop20598"
     offset="0"
     style="stop-color:#3d3d3d;stop-opacity:1" />
   <stop
     style="stop-color:#000000;stop-opacity:1"
     offset="0.61772454"
     id="stop20600" />
   <stop
     id="stop20602"
     offset="1"
     style="stop-color:#3d3d3d;stop-opacity:1" />
  </linearGradient>
  <linearGradient
    gradientTransform="translate(0.36067797,-0.13016949)"
    xlink:href="#linearGradient4555"
    id="linearGradient4557"
    x1="43.499737"
    y1="64.011795"
    x2="44.141731"
    y2="0.30621234"
    gradientUnits="userSpaceOnUse" />
  <linearGradient
    id="linearGradient4555">
   <stop
     style="stop-color:#141618;stop-opacity:1"
     offset="0"
     id="stop4551" />
   <stop
     id="stop4559"
     offset="0.51820582"
     style="stop-color:#686868;stop-opacity:1" />
   <stop
     style="stop-color:#31363b;stop-opacity:1"
     offset="1"
     id="stop4553" />
  </linearGradient>
  <filter
    style="color-interpolation-filters:sRGB"
    id="filter4601"
    x="-0.029678423"
    width="1.0593568"
    y="-0.029536817"
    height="1.0590736">
   <feGaussianBlur
     stdDeviation="2.1101377e-05"
     id="feGaussianBlur4603" />
  </filter>
  <linearGradient
    id="b"
    y1="1048.36"
    y2="1008.36"
    x2="0"
    gradientUnits="userSpaceOnUse">
   <stop
     stop-color="#191915"
     id="stop17286" />
   <stop
     offset="1"
     stop-color="#272822"
     id="stop17288" />
  </linearGradient>
  <linearGradient
    y2="43"
    x2="38"
    y1="17.129999"
    x1="10.01"
    gradientTransform="matrix(1.0003,0,0,1.0048,-0.013,1004.15)"
    gradientUnits="userSpaceOnUse"
    id="linearGradient17473"
    xlink:href="#a" />
  <linearGradient
    id="a"
    y1="17.129999"
    y2="43"
    x1="10.01"
    x2="38"
    gradientUnits="userSpaceOnUse"
    gradientTransform="matrix(1.0003,0,0,1.0048,-0.013,1004.15)">
   <stop
     id="stop17281" />
   <stop
     offset="1"
     stop-opacity="0"
     id="stop17283" />
  </linearGradient>
  <linearGradient
    id="c"
    y1="12"
    y2="4"
    x2="0"
    gradientUnits="userSpaceOnUse"
    gradientTransform="matrix(1,0,0,1.125,0,-0.5)">
   <stop
     id="stop17291" />
   <stop
     offset="1"
     stop-opacity=".516"
     id="stop17293" />
  </linearGradient>
  <linearGradient
    id="d"
    y1="12"
    y2="5.7779999"
    gradientUnits="userSpaceOnUse"
    x2="0"
    gradientTransform="matrix(1,0,0,1.08793,0,1004.22)">
   <stop
     stop-opacity="0"
     id="stop17296" />
   <stop
     offset="1"
     stop-color="#ffffff"
     stop-opacity=".518"
     id="stop17298" />
  </linearGradient>
  <linearGradient
    id="e"
    xlink:href="#a"
    y1="7"
    y2="13"
    x1="40"
    x2="46"
    gradientUnits="userSpaceOnUse"
    gradientTransform="translate(0,1004.36)" />
 </defs>
 <g
   style="fill-rule:evenodd"
   transform="matrix(1.0483567,0,0,1.0565766,-0.98771337,-1062.5971)"
   id="g17402">
  <rect
    style="fill:url(#b)"
    width="40"
    x="4"
    y="1008.36"
    rx="0"
    height="40"
    id="rect17304" />
  <path
    style="opacity:0.2;fill:url(#linearGradient17473)"
    d="m 20,1022.36 -1,-1 v 1 h -9 l 1,1 h 4 v 1 h -5 l 1,1 h 6 v 1 h -7 l 1,1 v 7 l 1,1 h -2 v 1 l 1,1 h 3 v 1 h -4 c 3.079,3.138 7.03,6.868 10.122,10 H 44 v -9 c -5.02,-5.03 -12.98,-12.966 -18,-18 l -0.069,1.019 z m 11,0 h -4 c 0,0 11.868,11.813 17,17 v -4.942 c -4.1,-4.103 -8.864,-8.962 -12.964,-13.06 C 31,1021.357 31,1022.357 31,1022.357"
    id="path17306" />
  <g
    style="fill:#ffffff"
    id="g17326">
   <rect
     style="opacity:0.8"
     width="2"
     x="7"
     y="1021.36"
     rx="0"
     height="1"
     id="rect17308" />
   <rect
     style="opacity:0.8"
     width="2"
     x="7"
     y="1025.36"
     rx="0"
     height="1"
     id="rect17310" />
   <rect
     style="opacity:0.8"
     width="2"
     x="7"
     y="1023.36"
     rx="0"
     height="1"
     id="rect17312" />
   <rect
     style="opacity:0.8"
     width="2"
     x="7"
     y="1027.36"
     rx="0"
     height="1"
     id="rect17314" />
   <rect
     style="opacity:0.8"
     width="2"
     x="7"
     y="1031.36"
     rx="0"
     height="1"
     id="rect17316" />
   <rect
     style="opacity:0.8"
     width="2"
     x="7"
     y="1029.36"
     rx="0"
     height="1"
     id="rect17318" />
   <rect
     style="opacity:0.8"
     width="2"
     x="7"
     y="1033.36"
     rx="0"
     height="1"
     id="rect17320" />
   <rect
     style="opacity:0.8"
     width="2"
     x="7"
     y="1037.36"
     rx="0"
     height="1"
     id="rect17322" />
   <rect
     style="opacity:0.8"
     width="2"
     x="7"
     y="1035.36"
     rx="0"
     height="1"
     id="rect17324" />
  </g>
  <rect
    style="opacity:0.8;fill:#f92672"
    width="9"
    x="10"
    y="1021.36"
    rx="0"
    height="1"
    id="rect17328" />
  <g
    style="fill:#ffffff"
    id="g17334">
   <rect
     style="opacity:0.8"
     width="6"
     x="20"
     y="1021.36"
     rx="0"
     height="1"
     id="rect17330" />
   <rect
     style="opacity:0.8"
     width="4"
     x="27"
     y="1021.36"
     rx="0"
     height="1"
     id="rect17332" />
  </g>
  <rect
    style="opacity:0.8;fill:#fd971f"
    width="5"
    x="10"
    y="1023.36"
    rx="0"
    height="1"
    id="rect17336" />
  <rect
    style="opacity:0.8;fill:#ffffff"
    width="2"
    x="16"
    y="1023.36"
    rx="0"
    height="1"
    id="rect17338" />
  <rect
    style="opacity:0.8;fill:#a6e22e"
    width="9"
    x="19"
    y="1023.36"
    rx="0"
    height="1"
    id="rect17340" />
  <rect
    style="opacity:0.8;fill:#f92672"
    width="7"
    x="10"
    y="1025.36"
    rx="0"
    height="1"
    id="rect17342" />
  <rect
    style="opacity:0.8;fill:#fd971f"
    width="5"
    x="18"
    y="1025.36"
    rx="0"
    height="1"
    id="rect17344" />
  <rect
    style="opacity:0.8;fill:#ffffff"
    width="2"
    x="24"
    y="1025.36"
    rx="0"
    height="1"
    id="rect17346" />
  <rect
    style="opacity:0.8;fill:#f92672"
    width="4"
    x="12"
    y="1027.36"
    rx="0"
    height="1"
    id="rect17348" />
  <rect
    style="opacity:0.8;fill:#a6e22e"
    width="10"
    x="17"
    y="1027.36"
    rx="0"
    height="1"
    id="rect17350" />
  <rect
    style="opacity:0.8;fill:#ffffff"
    width="4"
    x="28"
    y="1027.36"
    rx="0"
    height="1"
    id="rect17352" />
  <rect
    style="opacity:0.8;fill:#f92672"
    width="6"
    x="12"
    y="1029.36"
    rx="0"
    height="1"
    id="rect17354" />
  <rect
    style="opacity:0.8;fill:#66d9ef"
    width="6"
    x="19"
    y="1029.36"
    rx="0"
    height="1"
    id="rect17356" />
  <rect
    style="opacity:0.8;fill:#a6e22e"
    width="4"
    x="26"
    y="1029.36"
    rx="0"
    height="1"
    id="rect17358" />
  <rect
    style="opacity:0.8;fill:#f92672"
    width="2"
    x="12"
    y="1031.36"
    rx="0"
    height="1"
    id="rect17360" />
  <rect
    style="opacity:0.8;fill:#66d9ef"
    width="13"
    x="15"
    y="1031.36"
    rx="0"
    height="1"
    id="rect17362" />
  <rect
    style="opacity:0.8;fill:#ffffff"
    width="5.5"
    x="29"
    y="1031.36"
    rx="0"
    height="1"
    id="rect17364" />
  <rect
    style="opacity:0.8;fill:#f92672"
    width="3"
    x="12"
    y="1033.36"
    rx="0"
    height="1"
    id="rect17366" />
  <rect
    style="opacity:0.8;fill:#66d9ef"
    width="11"
    x="16"
    y="1033.36"
    rx="0"
    height="1"
    id="rect17368" />
  <g
    style="fill:#ffffff"
    id="g17374">
   <rect
     style="opacity:0.8"
     width="4"
     x="28"
     y="1033.36"
     rx="0"
     height="1"
     id="rect17370" />
   <rect
     style="opacity:0.8"
     width="2"
     x="10"
     y="1035.36"
     rx="0"
     height="1"
     id="rect17372" />
  </g>
  <rect
    style="opacity:0.8;fill:#66d9ef"
    width="8"
    x="13"
    y="1035.36"
    rx="0"
    height="1"
    id="rect17376" />
  <rect
    style="opacity:0.8;fill:#fd971f"
    width="3"
    x="22"
    y="1035.36"
    rx="0"
    height="1"
    id="rect17378" />
  <rect
    style="opacity:0.8;fill:#f92672"
    width="4"
    x="10"
    y="1037.36"
    rx="0"
    height="1"
    id="rect17380" />
  <rect
    style="opacity:0.8;fill:#a6e22e"
    width="11"
    x="15"
    y="1037.36"
    rx="0"
    height="1"
    id="rect17382" />
  <rect
    style="opacity:0.8;fill:#ffffff"
    width="2.5"
    x="27"
    y="1037.36"
    rx="0"
    height="1"
    id="rect17384" />
  <path
    style="opacity:0.5;fill:url(#c)"
    d="m 4,4 v 8.906 H 4.469 C 8.309,12.906 8.284,6 10.844,6 h 11.531 c 2.56,0 2.424,6.664 6.234,6.969 L 29,13 H 44 V 4 Z"
    transform="translate(0,1004.36)"
    id="path17386" />
  <path
    style="fill:#d0d0d0"
    d="m 39,1011.36 1,2 1,-2 z"
    id="path17388" />
  <path
    style="opacity:0.1;fill:url(#d)"
    d="m 10.855,1010.36 c -2.56,0 -2.559,6.909 -6.398,6.909 H 4 v 0.091 h 25 v -0.091 h -0.227 c -3.84,0 -3.839,-6.909 -6.398,-6.909 z"
    id="path17390" />
  <path
    style="opacity:0.5"
    d="m 4,1044.36 v 4 h 40 v -4 z"
    id="path17392" />
  <path
    style="opacity:0.1;fill:#ffffff"
    d="m 4,1043.36 v 1 h 40 v -1 z"
    id="path17394" />
  <path
    style="opacity:0.6"
    d="m 4,1047.36 v 1 h 40 v -1 z"
    id="path17396" />
  <path
    style="opacity:0.2;fill:url(#e)"
    d="m 41,1011.36 3,3 v 3 l -4,-4 z"
    id="path17398" />
  <rect
    style="opacity:0.679;fill:#31322e"
    width="1"
    x="10"
    y="1027.36"
    rx="0"
    height="7"
    id="rect17400" />
 </g>
 <path
   style="display:inline;mix-blend-mode:normal;fill:url(#linearGradient3403);fill-opacity:1;stroke:url(#linearGradient20558);stroke-width:1.16242;stroke-linecap:butt;stroke-linejoin:round;stroke-miterlimit:4;stroke-dasharray:none;stroke-opacity:1"
   d="M 4.7043071,3.9814882 4.6913695,60.80196 H 58.59546 l 1.022155,-2.866369 c 0,0 -23.87537,0.766388 -32.844441,-4.140386 C 16.257548,48.042344 11.401114,4.0978197 11.401114,4.0978197 Z"
   id="path1686"
   transform="matrix(0.7518797,0,0,0.7518797,0.09970467,0.02488636)" />
 <rect
   style="display:inline;fill:none;fill-opacity:1;stroke:url(#linearGradient4557);stroke-width:3.71366;stroke-linejoin:round;stroke-miterlimit:7.8;stroke-dasharray:none;stroke-opacity:0.995146"
   id="rect4539"
   width="62.566689"
   height="62.866646"
   x="1.0323594"
   y="0.59551275"
   ry="6.2447233"
   rx="5.8029528"
   transform="matrix(0.70434793,0,0,0.70291231,1.3629847,1.5442064)" />
</svg>
