<?xml version="1.0" encoding="UTF-8" standalone="no"?>
<!-- Created with Inkscape (http://www.inkscape.org/) -->

<svg
  width="48"
  height="48"
  version="1.1"
  viewBox="0 0 48 48"
  id="svg22"
  xmlns:xlink="http://www.w3.org/1999/xlink"
  xmlns="http://www.w3.org/2000/svg"
  xmlns:svg="http://www.w3.org/2000/svg">
 <defs
   id="defs12">
  <linearGradient
    xlink:href="#linearGradient3487"
    id="linearGradient3403"
    gradientUnits="userSpaceOnUse"
    x1="6.9491749"
    y1="4.5549412"
    x2="11.215498"
    y2="59.052471" />
  <linearGradient
    id="linearGradient3487">
   <stop
     style="stop-color:#32373c;stop-opacity:1"
     offset="0"
     id="stop3481" />
   <stop
     id="stop3483"
     offset="0.36804965"
     style="stop-color:#1a1a1a;stop-opacity:1" />
   <stop
     style="stop-color:#31363b;stop-opacity:1"
     offset="1"
     id="stop3485" />
  </linearGradient>
  <linearGradient
    xlink:href="#linearGradient20604"
    id="linearGradient20558"
    gradientUnits="userSpaceOnUse"
    x1="25.802212"
    y1="20.373846"
    x2="25.111048"
    y2="58.912758" />
  <linearGradient
    id="linearGradient20604">
   <stop
     id="stop20598"
     offset="0"
     style="stop-color:#3d3d3d;stop-opacity:1" />
   <stop
     style="stop-color:#000000;stop-opacity:1"
     offset="0.61772454"
     id="stop20600" />
   <stop
     id="stop20602"
     offset="1"
     style="stop-color:#3d3d3d;stop-opacity:1" />
  </linearGradient>
  <filter
    style="color-interpolation-filters:sRGB"
    id="filter20720"
    x="-0.010582671"
    y="-0.010229859"
    width="1.0211649"
    height="1.0204597">
   <feGaussianBlur
     stdDeviation="2.350086e-05"
     id="feGaussianBlur20722" />
  </filter>
  <linearGradient
    gradientTransform="translate(0.36067797,-0.13016949)"
    xlink:href="#linearGradient4555"
    id="linearGradient4557"
    x1="43.499737"
    y1="64.011795"
    x2="44.141731"
    y2="0.30621234"
    gradientUnits="userSpaceOnUse" />
  <linearGradient
    id="linearGradient4555">
   <stop
     style="stop-color:#141618;stop-opacity:1"
     offset="0"
     id="stop4551" />
   <stop
     id="stop4559"
     offset="0.51820582"
     style="stop-color:#686868;stop-opacity:1" />
   <stop
     style="stop-color:#31363b;stop-opacity:1"
     offset="1"
     id="stop4553" />
  </linearGradient>
  <filter
    style="color-interpolation-filters:sRGB"
    id="filter4601"
    x="-0.029678577"
    width="1.0593572"
    y="-0.029536971"
    height="1.0590739">
   <feGaussianBlur
     stdDeviation="2.5112383e-05"
     id="feGaussianBlur4603" />
  </filter>
 </defs>
 <rect
   style="fill:#dedfdf;fill-opacity:1"
   width="40"
   height="40"
   x="4"
   y="4"
   rx="0.72957867"
   ry="0.86167526"
   id="rect2"
   transform="matrix(1.0205018,0,0,1.0205018,1.2522959,-1.019787)" />
 <g
   id="g6"
   transform="matrix(0.98217235,0,0,0.98217235,2.1721045,-2.8308139)">
  <path
    fill="#3a8268"
    d="m 41.778,6 c 1.2311,0 2.2222,1.2689 2.2222,2.5 v 26 c 0,1.231 -0.9911,2.5 -2.2222,2.5 H 23 l -5,5 -5,-5 H 6.2222 c -1.231,0 -2.222,-1.269 -2.222,-2.5 v -26 c 0,-1.2311 0.991,-2.5 2.222,-2.5 z"
    id="path1" />
  <path
    opacity="0.2"
    d="m 44,34.5 v 1 c 0,1.231 -0.9915,2.5 -2.2227,2.5 h -18.777 l -5,5 -5,-5 h -6.777 c -1.231,0 -2.223,-1.269 -2.223,-2.5 v -1 c 0,1.231 0.992,2.5 2.223,2.5 h 6.777 l 5,5 5,-5 h 18.777 c 1.2315,0 2.223,-1.269 2.223,-2.5 z"
    id="path2" />
  <path
    fill="#ffffff"
    opacity="0.1"
    d="m 41.777,6 c 1.2312,0 2.2227,1.2689 2.2227,2.5 v 1 C 43.9997,8.2689 43.0082,7 41.777,7 H 6.223 C 4.992,7 4,8.2689 4,9.5 v -1 C 4,7.2689 4.992,6 6.223,6 Z"
    id="path3" />
  <path
    opacity="0.2"
    d="m 15,29 v -2 h 12 v 2 z m 0,-4 v -2 h 18 v 2 z m 0,-4 v -2 h 18 v 2 z m 0,-4 v -2 h 18 v 2 z"
    id="path4" />
  <path
    fill="#9dc1b4"
    d="m 15,28 v -2 h 12 v 2 z m 0,-4 v -2 h 18 v 2 z m 0,-4 v -2 h 18 v 2 z m 0,-4 v -2 h 18 v 2 z"
    id="path5" />
  <circle
    opacity="0.2"
    cx="34.000301"
    cy="37"
    r="11"
    id="circle5" />
  <circle
    fill="#772bbe"
    cx="33.785152"
    cy="36"
    r="11"
    id="circle6" />
  <path
    fill="#ffffff"
    d="M 27.785152,39.327 V 42 h 2.6728 l 6.7507,-6.7507 -2.6728,-2.6728 z m 11.788,-6.4337 c 0.28271,-0.28271 0.28271,-0.72818 0,-1.0109 l -1.6705,-1.6705 c -0.28271,-0.28271 -0.72818,-0.28271 -1.0109,0 l -1.3964,1.405 2.6728,2.6728 z"
    id="path6" />
 </g>
 <path
   style="display:inline;mix-blend-mode:normal;fill:url(#linearGradient3403);fill-opacity:1;stroke:url(#linearGradient20558);stroke-width:1.16242;stroke-linecap:butt;stroke-linejoin:round;stroke-miterlimit:4;stroke-dasharray:none;stroke-opacity:1"
   d="M 4.7043071,3.9814882 4.6913695,60.80196 H 58.59546 l 1.022155,-2.866369 c 0,0 -23.87537,0.766388 -32.844441,-4.140386 C 16.257548,48.042344 11.401114,4.0978197 11.401114,4.0978197 Z"
   id="path1686"
   transform="matrix(0.7518797,0,0,0.7518797,0.09970467,0.02488636)" />
 <rect
   style="display:inline;fill:none;fill-opacity:1;stroke:url(#linearGradient4557);stroke-width:3.71366;stroke-linejoin:round;stroke-miterlimit:7.8;stroke-dasharray:none;stroke-opacity:0.995146"
   id="rect4539"
   width="62.566689"
   height="62.866646"
   x="1.0323594"
   y="0.59551275"
   ry="6.2447233"
   rx="5.8029528"
   transform="matrix(0.70434793,0,0,0.70291231,1.3629847,1.5442064)" />
</svg>
