<?xml version="1.0" encoding="UTF-8" standalone="no"?>
<!-- Created with Inkscape (http://www.inkscape.org/) -->

<svg
  width="48"
  height="48"
  version="1.1"
  viewBox="0 0 48 48"
  id="svg22"
  xmlns:xlink="http://www.w3.org/1999/xlink"
  xmlns="http://www.w3.org/2000/svg"
  xmlns:svg="http://www.w3.org/2000/svg">
 <defs
   id="defs12">
  <linearGradient
    xlink:href="#linearGradient3487"
    id="linearGradient3403"
    gradientUnits="userSpaceOnUse"
    x1="6.9491749"
    y1="4.5549412"
    x2="11.215498"
    y2="59.052471" />
  <linearGradient
    id="linearGradient3487">
   <stop
     style="stop-color:#32373c;stop-opacity:1"
     offset="0"
     id="stop3481" />
   <stop
     id="stop3483"
     offset="0.36804965"
     style="stop-color:#1a1a1a;stop-opacity:1" />
   <stop
     style="stop-color:#31363b;stop-opacity:1"
     offset="1"
     id="stop3485" />
  </linearGradient>
  <linearGradient
    xlink:href="#linearGradient20604"
    id="linearGradient20558"
    gradientUnits="userSpaceOnUse"
    x1="25.802212"
    y1="20.373846"
    x2="25.111048"
    y2="58.912758" />
  <linearGradient
    id="linearGradient20604">
   <stop
     id="stop20598"
     offset="0"
     style="stop-color:#3d3d3d;stop-opacity:1" />
   <stop
     style="stop-color:#000000;stop-opacity:1"
     offset="0.61772454"
     id="stop20600" />
   <stop
     id="stop20602"
     offset="1"
     style="stop-color:#3d3d3d;stop-opacity:1" />
  </linearGradient>
  <filter
    style="color-interpolation-filters:sRGB"
    id="filter20720"
    x="-0.010581889"
    y="-0.010229103"
    width="1.0211633"
    height="1.0204582">
   <feGaussianBlur
     stdDeviation="5.5987735e-06"
     id="feGaussianBlur20722" />
  </filter>
  <linearGradient
    gradientTransform="translate(0.36067797,-0.13016949)"
    xlink:href="#linearGradient4555"
    id="linearGradient4557"
    x1="43.499737"
    y1="64.011795"
    x2="44.141731"
    y2="0.30621234"
    gradientUnits="userSpaceOnUse" />
  <linearGradient
    id="linearGradient4555">
   <stop
     style="stop-color:#141618;stop-opacity:1"
     offset="0"
     id="stop4551" />
   <stop
     id="stop4559"
     offset="0.51820582"
     style="stop-color:#686868;stop-opacity:1" />
   <stop
     style="stop-color:#31363b;stop-opacity:1"
     offset="1"
     id="stop4553" />
  </linearGradient>
  <filter
    style="color-interpolation-filters:sRGB"
    id="filter4601"
    x="-0.029677843"
    width="1.0593557"
    y="-0.02953624"
    height="1.0590725">
   <feGaussianBlur
     stdDeviation="5.9826978e-06"
     id="feGaussianBlur4603" />
  </filter>
 </defs>
 <g
   id="g1"
   transform="matrix(1.0330185,0,0,1.0330185,61.180128,0.67036889)">
  <rect
    style="fill:#2d6abe"
    width="40"
    height="40"
    x="-54.545483"
    y="2.3154001"
    rx="2"
    ry="2"
    id="rect1" />
  <path
    style="opacity:0.2;fill:#ffffff"
    d="m -52.545481,2.3154001 c -1.108,0 -2,0.892 -2,2 v 6.3496089 l 8.259766,14.306641 1.685546,0.742188 4.892579,-3.994141 3.357421,-1.771485 13.498047,-7.46875 0.271485,-1.167968 -5.19336,-8.9960939 z"
    id="path1" />
  <path
    style="fill:#adadad"
    d="m -34.77009,16.362275 c -0.393684,0.08927 -0.751143,0.295579 -1.025391,0.591797 z m 3.71875,3.626953 -3.464844,2 11.076671,19.223408 c 1.333333,2.309895 4.798176,0.309895 3.464843,-2 z"
    id="path5" />
  <rect
    style="opacity:0.1"
    width="15.633"
    height="1.954"
    x="-47.209576"
    y="1.3083533"
    rx="1.117"
    ry="0.977"
    transform="rotate(-30)"
    id="rect5" />
  <rect
    style="fill:#3f3f3f"
    width="15.633"
    height="1.954"
    x="-46.709576"
    y="0.4383525"
    rx="1.117"
    ry="0.977"
    transform="rotate(-30)"
    id="rect6" />
  <g
    style="font-size:10.8992px;line-height:1.25;letter-spacing:0px;word-spacing:0px;opacity:0.2"
    transform="translate(-42.795481,-0.68459789)"
    id="g8">
   <path
     d="m 11.915531,38.809263 q 0,1.035422 -0.752043,1.613079 -0.752044,0.577656 -2.0272481,0.577656 -0.6539509,0 -1.2098092,-0.09809 -0.5558583,-0.09809 -0.9264305,-0.27248 v -0.93733 q 0.3923705,0.174387 0.9700272,0.316077 0.5885558,0.141689 1.2098092,0.141689 0.8610354,0 1.3079024,-0.337875 0.446866,-0.337874 0.446866,-0.915531 0,-0.381471 -0.163488,-0.643052 Q 10.60763,37.991824 10.20436,37.77384 9.80109,37.555857 9.1035424,37.294276 8.1008176,36.934603 7.5994552,36.411443 7.0980928,35.888282 7.0980928,34.98365 q 0,-0.610355 0.3160763,-1.057221 0.3160763,-0.446867 0.8719346,-0.686649 0.5558583,-0.239782 1.2970027,-0.239782 0.6321526,0 1.1662126,0.119891 0.53406,0.119891 0.980926,0.316077 l -0.305177,0.839237 q -0.40327,-0.174387 -0.882834,-0.294278 -0.479564,-0.119891 -0.980926,-0.119891 -0.7302452,0 -1.1008174,0.316076 -0.3705722,0.305177 -0.3705722,0.817439 0,0.39237 0.1634877,0.653951 0.1634878,0.26158 0.53406,0.479564 0.3705722,0.207084 1.0027247,0.435967 0.6866482,0.250681 1.1553132,0.544959 0.479564,0.283379 0.719346,0.686649 0.250681,0.403269 0.250681,1.013624 z"
     id="path6" />
   <path
     d="m 18.965429,33.10899 -2.779292,7.782016 H 15.205211 L 12.42592,33.10899 h 1.024523 l 1.754768,4.991826 q 0.174387,0.479564 0.283379,0.904632 0.119891,0.414169 0.207084,0.79564 0.0763,-0.381471 0.196186,-0.806539 0.119891,-0.425068 0.294277,-0.915532 l 1.74387,-4.970027 z"
     id="path7" />
   <path
     d="m 23.290701,36.782015 h 2.692098 v 3.814714 q -0.632152,0.207084 -1.275204,0.305177 -0.643052,0.09809 -1.460491,0.09809 -1.209809,0 -2.038147,-0.479564 -0.828338,-0.490463 -1.264305,-1.384196 -0.425068,-0.904632 -0.425068,-2.13624 0,-1.209809 0.468665,-2.103542 0.479564,-0.904632 1.384196,-1.395095 0.904632,-0.501363 2.179837,-0.501363 0.65395,0 1.231607,0.119891 0.588556,0.119891 1.089918,0.337875 L 25.503235,34.3079 q -0.414169,-0.174387 -0.93733,-0.305177 -0.512261,-0.141689 -1.068119,-0.141689 -1.395096,0 -2.179837,0.850136 -0.773842,0.839237 -0.773842,2.288828 0,0.926431 0.294278,1.645777 0.305177,0.708447 0.948229,1.111717 0.643052,0.39237 1.689373,0.39237 0.512262,0 0.871935,-0.0545 0.359673,-0.0545 0.653951,-0.13079 v -2.310627 h -1.711172 z"
     id="path8" />
  </g>
  <g
    style="font-size:10.8992px;line-height:1.25;letter-spacing:0px;word-spacing:0px;fill:#ffffff"
    id="g11"
    transform="translate(-42.795481,-1.6845999)">
   <path
     style="fill:#ffffff"
     d="m 11.915531,38.809263 q 0,1.035422 -0.752043,1.613079 -0.752044,0.577656 -2.0272481,0.577656 -0.6539509,0 -1.2098092,-0.09809 -0.5558583,-0.09809 -0.9264305,-0.27248 v -0.93733 q 0.3923705,0.174387 0.9700272,0.316077 0.5885558,0.141689 1.2098092,0.141689 0.8610354,0 1.3079024,-0.337875 0.446866,-0.337874 0.446866,-0.915531 0,-0.381471 -0.163488,-0.643052 Q 10.60763,37.991824 10.20436,37.77384 9.80109,37.555857 9.1035424,37.294276 8.1008176,36.934603 7.5994552,36.411443 7.0980928,35.888282 7.0980928,34.98365 q 0,-0.610355 0.3160763,-1.057221 0.3160763,-0.446867 0.8719346,-0.686649 0.5558583,-0.239782 1.2970027,-0.239782 0.6321526,0 1.1662126,0.119891 0.53406,0.119891 0.980926,0.316077 l -0.305177,0.839237 q -0.40327,-0.174387 -0.882834,-0.294278 -0.479564,-0.119891 -0.980926,-0.119891 -0.7302452,0 -1.1008174,0.316076 -0.3705722,0.305177 -0.3705722,0.817439 0,0.39237 0.1634877,0.653951 0.1634878,0.26158 0.53406,0.479564 0.3705722,0.207084 1.0027247,0.435967 0.6866482,0.250681 1.1553132,0.544959 0.479564,0.283379 0.719346,0.686649 0.250681,0.403269 0.250681,1.013624 z"
     id="path9" />
   <path
     style="fill:#ffffff"
     d="m 18.965429,33.10899 -2.779292,7.782016 H 15.205211 L 12.42592,33.10899 h 1.024523 l 1.754768,4.991826 q 0.174387,0.479564 0.283379,0.904632 0.119891,0.414169 0.207084,0.79564 0.0763,-0.381471 0.196186,-0.806539 0.119891,-0.425068 0.294277,-0.915532 l 1.74387,-4.970027 z"
     id="path10" />
   <path
     style="fill:#ffffff"
     d="m 23.290701,36.782015 h 2.692098 v 3.814714 q -0.632152,0.207084 -1.275204,0.305177 -0.643052,0.09809 -1.460491,0.09809 -1.209809,0 -2.038147,-0.479564 -0.828338,-0.490463 -1.264305,-1.384196 -0.425068,-0.904632 -0.425068,-2.13624 0,-1.209809 0.468665,-2.103542 0.479564,-0.904632 1.384196,-1.395095 0.904632,-0.501363 2.179837,-0.501363 0.65395,0 1.231607,0.119891 0.588556,0.119891 1.089918,0.337875 L 25.503235,34.3079 q -0.414169,-0.174387 -0.93733,-0.305177 -0.512261,-0.141689 -1.068119,-0.141689 -1.395096,0 -2.179837,0.850136 -0.773842,0.839237 -0.773842,2.288828 0,0.926431 0.294278,1.645777 0.305177,0.708447 0.948229,1.111717 0.643052,0.39237 1.689373,0.39237 0.512262,0 0.871935,-0.0545 0.359673,-0.0545 0.653951,-0.13079 v -2.310627 h -1.711172 z"
     id="path11" />
  </g>
  <rect
    style="opacity:0.1"
    width="27.357"
    height="3.908"
    x="-53.069576"
    y="-2.6016483"
    rx="1.954"
    ry="1.954"
    transform="rotate(-30)"
    id="rect11" />
  <rect
    style="fill:#3f3f3f"
    width="27.357"
    height="3.908"
    x="-52.569576"
    y="-3.4716463"
    rx="1.954"
    ry="1.954"
    transform="rotate(-30)"
    id="rect12" />
 </g>
 <path
   style="display:inline;mix-blend-mode:normal;fill:url(#linearGradient3403);fill-opacity:1;stroke:url(#linearGradient20558);stroke-width:1.16242;stroke-linecap:butt;stroke-linejoin:round;stroke-miterlimit:4;stroke-dasharray:none;stroke-opacity:1"
   d="M 4.7043071,3.9814882 4.6913695,60.80196 H 58.59546 l 1.022155,-2.866369 c 0,0 -23.87537,0.766388 -32.844441,-4.140386 C 16.257548,48.042344 11.401114,4.0978197 11.401114,4.0978197 Z"
   id="path1686"
   transform="matrix(0.7518797,0,0,0.7518797,0.09970467,0.02488636)" />
 <rect
   style="display:inline;fill:none;fill-opacity:1;stroke:url(#linearGradient4557);stroke-width:3.71366;stroke-linejoin:round;stroke-miterlimit:7.8;stroke-dasharray:none;stroke-opacity:0.995146"
   id="rect4539"
   width="62.566689"
   height="62.866646"
   x="1.0323594"
   y="0.59551275"
   ry="6.2447233"
   rx="5.8029528"
   transform="matrix(0.70434793,0,0,0.70291231,1.3629847,1.5442064)" />
</svg>
