<?xml version="1.0" encoding="UTF-8" standalone="no"?>
<!-- Created with Inkscape (http://www.inkscape.org/) -->

<svg
  width="48"
  height="48"
  version="1.1"
  viewBox="0 0 48 48"
  id="svg22"
  xmlns:xlink="http://www.w3.org/1999/xlink"
  xmlns="http://www.w3.org/2000/svg"
  xmlns:svg="http://www.w3.org/2000/svg">
 <defs
   id="defs12">
  <linearGradient
    xlink:href="#linearGradient3487"
    id="linearGradient3403"
    gradientUnits="userSpaceOnUse"
    x1="6.9491749"
    y1="4.5549412"
    x2="11.215498"
    y2="59.052471" />
  <linearGradient
    id="linearGradient3487">
   <stop
     style="stop-color:#32373c;stop-opacity:1"
     offset="0"
     id="stop3481" />
   <stop
     id="stop3483"
     offset="0.36804965"
     style="stop-color:#1a1a1a;stop-opacity:1" />
   <stop
     style="stop-color:#31363b;stop-opacity:1"
     offset="1"
     id="stop3485" />
  </linearGradient>
  <linearGradient
    xlink:href="#linearGradient20604"
    id="linearGradient20558"
    gradientUnits="userSpaceOnUse"
    x1="25.802212"
    y1="20.373846"
    x2="25.111048"
    y2="58.912758" />
  <linearGradient
    id="linearGradient20604">
   <stop
     id="stop20598"
     offset="0"
     style="stop-color:#3d3d3d;stop-opacity:1" />
   <stop
     style="stop-color:#000000;stop-opacity:1"
     offset="0.61772454"
     id="stop20600" />
   <stop
     id="stop20602"
     offset="1"
     style="stop-color:#3d3d3d;stop-opacity:1" />
  </linearGradient>
  <filter
    style="color-interpolation-filters:sRGB"
    id="filter20720"
    x="-0.010581662"
    y="-0.010228883"
    width="1.0211629"
    height="1.0204578">
   <feGaussianBlur
     stdDeviation="4.0300511e-07"
     id="feGaussianBlur20722" />
  </filter>
  <linearGradient
    gradientTransform="translate(0.36067797,-0.13016949)"
    xlink:href="#linearGradient4555"
    id="linearGradient4557"
    x1="43.499737"
    y1="64.011795"
    x2="44.141731"
    y2="0.30621234"
    gradientUnits="userSpaceOnUse" />
  <linearGradient
    id="linearGradient4555">
   <stop
     style="stop-color:#141618;stop-opacity:1"
     offset="0"
     id="stop4551" />
   <stop
     id="stop4559"
     offset="0.51820582"
     style="stop-color:#686868;stop-opacity:1" />
   <stop
     style="stop-color:#31363b;stop-opacity:1"
     offset="1"
     id="stop4553" />
  </linearGradient>
  <filter
    style="color-interpolation-filters:sRGB"
    id="filter4601"
    x="-0.02967763"
    width="1.0593553"
    y="-0.029536028"
    height="1.0590721">
   <feGaussianBlur
     stdDeviation="4.3064035e-07"
     id="feGaussianBlur4603" />
  </filter>
  <linearGradient
    gradientUnits="userSpaceOnUse"
    y2="5.1285472"
    x2="35.057411"
    y1="53.859512"
    x1="11.086592"
    id="linearGradient4587-3"
    xlink:href="#linearGradient4585"
    gradientTransform="translate(0.36135313,-0.12490449)" />
  <linearGradient
    id="linearGradient4585">
   <stop
     id="stop4581"
     offset="0"
     style="stop-color:#070707;stop-opacity:1" />
   <stop
     id="stop4583"
     offset="1"
     style="stop-color:#818181;stop-opacity:1" />
  </linearGradient>
  <filter
    height="1.0000401"
    y="-2.0069605e-05"
    width="1.0000403"
    x="-2.0165678e-05"
    id="filter4601-2"
    style="color-interpolation-filters:sRGB">
   <feGaussianBlur
     id="feGaussianBlur4603-9"
     stdDeviation="0.00052571195" />
  </filter>
  <linearGradient
    id="b"
    y1="517.79999"
    x1="399.57001"
    y2="534.79999"
    x2="416.57001"
    gradientUnits="userSpaceOnUse">
   <stop
     id="stop16250" />
   <stop
     offset="1"
     stop-opacity="0"
     id="stop16252" />
  </linearGradient>
  <linearGradient
    id="c"
    y1="537.79999"
    y2="508.79999"
    gradientUnits="userSpaceOnUse"
    x2="0">
   <stop
     stop-color="#026ddc"
     id="stop16255" />
   <stop
     offset="1"
     stop-color="#28b0fd"
     id="stop16257" />
  </linearGradient>
  <linearGradient
    y2="533.28003"
    x2="416.64999"
    y1="525.28003"
    x1="408.64999"
    gradientTransform="translate(-0.081,-0.48)"
    gradientUnits="userSpaceOnUse"
    id="linearGradient16311"
    xlink:href="#d" />
  <linearGradient
    id="d"
    y1="525.28003"
    x1="408.64999"
    y2="533.28003"
    x2="416.64999"
    gradientUnits="userSpaceOnUse"
    gradientTransform="translate(-0.081,-0.48)">
   <stop
     stop-opacity=".065"
     id="stop16260" />
   <stop
     offset="1"
     stop-opacity="0"
     id="stop16262" />
  </linearGradient>
  <linearGradient
    xlink:href="#d"
    id="e"
    y1="517.96002"
    x1="417.79001"
    y2="525.90997"
    gradientUnits="userSpaceOnUse"
    x2="426.22"
    gradientTransform="matrix(-1,0,0,1,817.2,-0.48)" />
 </defs>
 <g
   id="g882"
   transform="matrix(0.65979699,0,0,0.65979699,3.2811472,2.176384)">
  <rect
    y="0.60077608"
    x="1.033034"
    height="62.866646"
    width="62.567139"
    id="rect4539-1"
    style="opacity:1;fill:url(#linearGradient4587-3);fill-opacity:1;stroke:none;stroke-width:1.146;stroke-linejoin:round;stroke-miterlimit:7.8;stroke-dasharray:none;stroke-opacity:0.995146" />
  <g
    transform="matrix(1.33,0,0,1.33,-505.29552,-665.02312)"
    id="g16282">
   <path
     style="opacity:0.2;fill:url(#b);fill-rule:evenodd"
     d="m 398.28,532.51 10.291,10.291 c 6,1 17.781,-10.52 20,-16 l -20,-18 z"
     id="path16270" />
   <path
     style="fill:url(#c)"
     d="m 408.57,508.8 c -0.093,-0.003 -0.183,0.034 -0.248,0.101 -0.931,0.971 -1.877,2.061 -2.732,3.099 -10e-4,10e-4 0,0.003 0,0.004 -2.107,2.628 -3.709,5.328 -4.869,8.218 -1.081,2.693 -1.713,5.02 -2.288,8.416 -0.126,0.743 -0.253,1.644 -0.341,2.368 -0.044,0.362 -0.078,0.68 -0.097,0.915 -0.01,0.118 -0.015,0.214 -0.017,0.292 -0.001,0.039 0,0.072 0,0.112 0,0.02 0,0.042 0.014,0.079 0.01,0.037 0,0.111 0.149,0.202 0.08,0.049 0.09,0.039 0.11,0.044 0.02,0.005 0.035,0.008 0.051,0.011 0.032,0.005 0.066,0.009 0.105,0.013 0.078,0.008 0.174,0.016 0.276,0.022 0.808,0.044 1.999,0.25 2.789,0.481 0.533,0.156 0.884,0.285 1.405,0.516 0.12,0.053 0.231,0.102 0.313,0.138 0.041,0.018 0.075,0.032 0.1,0.042 0.012,0.005 0.023,0.009 0.032,0.013 10e-4,10e-4 0.002,0.002 10e-4,0.002 0,0.002 0.01,0.004 0.014,0.007 v -0.003 c 0,10e-4 0,10e-4 0,0.002 0.01,0.002 0.01,0.004 0.019,0.007 0,0.001 0.01,0.004 0.012,0.005 0,-10e-4 -0.011,0 -0.013,-10e-4 0.023,0.012 0.05,0.028 0.087,0.048 0.088,0.048 0.209,0.116 0.341,0.19 1.275,0.716 2.228,1.455 3.75,2.914 0.201,0.192 0.387,0.366 0.529,0.495 0.071,0.064 0.13,0.118 0.176,0.157 0.023,0.02 0.043,0.036 0.064,0.052 0.01,0.008 0.021,0.016 0.038,0.028 0.01,0.005 0.02,0.012 0.039,0.022 0.02,0.009 0.039,0.028 0.13,0.033 0.109,0.005 0.131,-0.019 0.153,-0.029 0.022,-0.01 0.034,-0.017 0.043,-0.023 0.019,-0.012 0.03,-0.02 0.041,-0.029 0.022,-0.017 0.043,-0.034 0.068,-0.055 0.05,-0.042 0.115,-0.1 0.192,-0.169 0.154,-0.139 0.358,-0.327 0.578,-0.536 1.259,-1.194 1.869,-1.699 2.746,-2.281 1.915,-1.271 3.621,-1.834 6.24,-2.056 l 0.212,-0.018 c 0.171,-0.014 0.302,-0.157 0.302,-0.328 v -0.125 c 0,-0.26 -0.062,-0.798 -0.146,-1.464 -0.084,-0.666 -0.19,-1.424 -0.287,-2 -0.575,-3.424 -1.228,-5.836 -2.323,-8.562 -0.986,-2.457 -2.399,-4.938 -4.087,-7.184 0,-0.005 -0.01,-0.01 -0.012,-0.015 -1.136,-1.345 -2.235,-2.756 -3.434,-4.065 -0.06,-0.066 -0.144,-0.104 -0.233,-0.107 z"
     id="path16274" />
   <g
     style="fill-rule:evenodd"
     id="g16280">
    <path
      style="fill:url(#linearGradient16311)"
      d="m 415.83,519.04 -17.797,13.467 c 0.02,0.03 0.042,0.063 0.102,0.1 0.08,0.049 0.092,0.038 0.111,0.043 0.02,0.005 0.035,0.009 0.051,0.012 0.032,0.005 0.067,0.008 0.105,0.012 0.078,0.008 0.174,0.018 0.275,0.023 0.808,0.044 1.999,0.249 2.789,0.48 0.533,0.156 0.886,0.285 1.406,0.516 0.12,0.053 0.23,0.101 0.313,0.137 0.041,0.018 0.074,0.032 0.1,0.043 0.012,0.005 0.022,0.01 0.031,0.014 0.001,0 0.003,0 0.004,0 l 0.002,0.002 c 0.004,0.002 0.007,0.003 0.014,0.006 h 0.002 c 0.005,0.002 0.008,0.003 0.018,0.006 0.004,0.001 0.007,0.005 0.012,0.006 -0.003,-0.001 -0.01,-0.001 -0.012,-0.002 0.023,0.012 0.049,0.028 0.086,0.049 0.088,0.048 0.21,0.115 0.342,0.189 1.275,0.716 2.228,1.455 3.75,2.914 0.201,0.192 0.388,0.367 0.529,0.496 0.071,0.064 0.129,0.116 0.176,0.156 0.023,0.02 0.043,0.037 0.065,0.053 0.01,0.008 0.021,0.016 0.039,0.027 0.009,0.005 0.019,0.012 0.039,0.021 0.02,0.009 0.038,0.029 0.129,0.033 0.109,0.005 0.132,-0.019 0.154,-0.029 0.022,-0.01 0.033,-0.018 0.043,-0.023 0.019,-0.012 0.03,-0.019 0.041,-0.027 0.022,-0.017 0.043,-0.034 0.068,-0.055 0.05,-0.042 0.114,-0.101 0.191,-0.17 0.154,-0.139 0.358,-0.327 0.578,-0.535 1.259,-1.194 1.869,-1.699 2.746,-2.281 1.915,-1.271 3.621,-1.834 6.24,-2.055 l 0.211,-0.018 c 0.171,-0.014 0.303,-0.159 0.303,-0.33 v -0.123 c 0,-0.26 -0.063,-0.799 -0.146,-1.465 -0.084,-0.666 -0.19,-1.424 -0.287,-2 -0.575,-3.424 -1.227,-5.836 -2.322,-8.563 -0.151,-0.376 -0.329,-0.752 -0.5,-1.129"
      id="path16276" />
    <path
      style="fill:url(#e)"
      d="m 401.29,519.04 17.797,13.467 c -0.02,0.03 -0.042,0.063 -0.102,0.1 -0.08,0.049 -0.092,0.038 -0.111,0.043 -0.02,0.005 -0.035,0.009 -0.051,0.012 -0.032,0.005 -0.067,0.008 -0.105,0.012 -0.078,0.008 -0.174,0.018 -0.275,0.023 -0.808,0.044 -1.999,0.249 -2.789,0.48 -0.533,0.156 -0.886,0.285 -1.406,0.516 -0.12,0.053 -0.23,0.101 -0.313,0.137 -0.041,0.018 -0.074,0.032 -0.1,0.043 -0.012,0.005 -0.022,0.01 -0.031,0.014 -10e-4,0 -0.003,0 -0.004,0 l -0.002,0.002 c -0.004,0.002 -0.007,0.003 -0.014,0.006 h -0.002 c -0.005,0.002 -0.008,0.003 -0.018,0.006 -0.004,0.001 -0.007,0.005 -0.012,0.006 0.003,-0.001 0.01,-0.001 0.012,-0.002 -0.023,0.012 -0.049,0.028 -0.086,0.049 -0.088,0.048 -0.21,0.115 -0.342,0.189 -1.275,0.716 -2.228,1.455 -3.75,2.914 -0.201,0.192 -0.388,0.367 -0.529,0.496 -0.071,0.064 -0.129,0.116 -0.176,0.156 -0.023,0.02 -0.043,0.037 -0.065,0.053 -0.01,0.008 -0.021,0.016 -0.039,0.027 -0.009,0.005 -0.019,0.012 -0.039,0.021 -0.02,0.009 -0.038,0.029 -0.129,0.033 -0.109,0.005 -0.132,-0.019 -0.154,-0.029 -0.022,-0.01 -0.033,-0.018 -0.043,-0.023 -0.019,-0.012 -0.03,-0.019 -0.041,-0.027 -0.022,-0.017 -0.043,-0.034 -0.068,-0.055 -0.05,-0.042 -0.114,-0.101 -0.191,-0.17 -0.154,-0.139 -0.358,-0.327 -0.578,-0.535 -1.259,-1.194 -1.869,-1.699 -2.746,-2.281 -1.915,-1.271 -3.621,-1.834 -6.24,-2.055 l -0.211,-0.018 c -0.171,-0.014 -0.303,-0.159 -0.303,-0.33 v -0.123 c 0,-0.26 0.063,-0.799 0.146,-1.465 0.084,-0.666 0.19,-1.424 0.287,-2 0.575,-3.424 1.227,-5.836 2.322,-8.563 0.151,-0.376 0.329,-0.752 0.5,-1.129"
      id="path16278" />
   </g>
  </g>
 </g>
 <path
   style="display:inline;mix-blend-mode:normal;fill:url(#linearGradient3403);fill-opacity:1;stroke:url(#linearGradient20558);stroke-width:1.16242;stroke-linecap:butt;stroke-linejoin:round;stroke-miterlimit:4;stroke-dasharray:none;stroke-opacity:1"
   d="M 4.7043071,3.9814882 4.6913695,60.80196 H 58.59546 l 1.022155,-2.866369 c 0,0 -23.87537,0.766388 -32.844441,-4.140386 C 16.257548,48.042344 11.401114,4.0978197 11.401114,4.0978197 Z"
   id="path1686"
   transform="matrix(0.7518797,0,0,0.7518797,0.09970467,0.02488636)" />
 <rect
   style="display:inline;fill:none;fill-opacity:1;stroke:url(#linearGradient4557);stroke-width:3.71366;stroke-linejoin:round;stroke-miterlimit:7.8;stroke-dasharray:none;stroke-opacity:0.995146"
   id="rect4539"
   width="62.566689"
   height="62.866646"
   x="1.0323594"
   y="0.59551275"
   ry="6.2447233"
   rx="5.8029528"
   transform="matrix(0.70434793,0,0,0.70291231,1.3629847,1.5442064)" />
</svg>
