<?xml version="1.0" encoding="UTF-8" standalone="no"?>
<!-- Created with Inkscape (http://www.inkscape.org/) -->

<svg
  width="48"
  height="48"
  version="1.1"
  viewBox="0 0 48 48"
  id="svg22"
  xmlns:xlink="http://www.w3.org/1999/xlink"
  xmlns="http://www.w3.org/2000/svg"
  xmlns:svg="http://www.w3.org/2000/svg">
 <defs
   id="defs12">
  <linearGradient
    id="linearGradient1005-3-3"
    x1="5.2535"
    x2="9.3823996"
    y1="15.383"
    y2="2.9421"
    gradientTransform="matrix(0.99999,0,0,0.99999,1.632,-0.61743)"
    gradientUnits="userSpaceOnUse">
   <stop
     stop-color="#fa8200"
     offset="0"
     id="stop2" />
   <stop
     stop-color="#ff9600"
     offset=".36953"
     id="stop4" />
   <stop
     stop-color="#ffb400"
     offset="1"
     id="stop6" />
  </linearGradient>
  <filter
    id="filter4014"
    x="-0.062499932"
    y="-0.057692992"
    width="1.1249999"
    height="1.115386"
    color-interpolation-filters="sRGB">
   <feGaussianBlur
     stdDeviation="1.093751"
     id="feGaussianBlur9" />
  </filter>
  <linearGradient
    xlink:href="#linearGradient3487"
    id="linearGradient3403"
    gradientUnits="userSpaceOnUse"
    x1="6.9491749"
    y1="4.5549412"
    x2="11.215498"
    y2="59.052471" />
  <linearGradient
    id="linearGradient3487">
   <stop
     style="stop-color:#32373c;stop-opacity:1"
     offset="0"
     id="stop3481" />
   <stop
     id="stop3483"
     offset="0.36804965"
     style="stop-color:#1a1a1a;stop-opacity:1" />
   <stop
     style="stop-color:#31363b;stop-opacity:1"
     offset="1"
     id="stop3485" />
  </linearGradient>
  <linearGradient
    xlink:href="#linearGradient20604"
    id="linearGradient20558"
    gradientUnits="userSpaceOnUse"
    x1="25.802212"
    y1="20.373846"
    x2="25.111048"
    y2="58.912758" />
  <linearGradient
    id="linearGradient20604">
   <stop
     id="stop20598"
     offset="0"
     style="stop-color:#3d3d3d;stop-opacity:1" />
   <stop
     style="stop-color:#000000;stop-opacity:1"
     offset="0.61772454"
     id="stop20600" />
   <stop
     id="stop20602"
     offset="1"
     style="stop-color:#3d3d3d;stop-opacity:1" />
  </linearGradient>
  <linearGradient
    gradientTransform="translate(0.36067797,-0.13016949)"
    xlink:href="#linearGradient4555"
    id="linearGradient4557"
    x1="43.499737"
    y1="64.011795"
    x2="44.141731"
    y2="0.30621234"
    gradientUnits="userSpaceOnUse" />
  <linearGradient
    id="linearGradient4555">
   <stop
     style="stop-color:#141618;stop-opacity:1"
     offset="0"
     id="stop4551" />
   <stop
     id="stop4559"
     offset="0.51820582"
     style="stop-color:#686868;stop-opacity:1" />
   <stop
     style="stop-color:#31363b;stop-opacity:1"
     offset="1"
     id="stop4553" />
  </linearGradient>
  <filter
    style="color-interpolation-filters:sRGB"
    id="filter4601"
    x="-0.029677902"
    width="1.0593558"
    y="-0.029536299"
    height="1.0590726">
   <feGaussianBlur
     stdDeviation="7.5308676e-06"
     id="feGaussianBlur4603" />
  </filter>
  <linearGradient
    id="a"
    y1="44"
    y2="4"
    gradientUnits="userSpaceOnUse"
    x2="0"
    gradientTransform="matrix(-1,0,0,1,432.57,499.8)">
   <stop
     stop-color="#197cf1"
     id="stop15019" />
   <stop
     offset="1"
     stop-color="#20bcfa"
     id="stop15021" />
  </linearGradient>
  <linearGradient
    y2="533.79999"
    x2="418.57001"
    y1="503.79999"
    x1="388.57001"
    gradientTransform="translate(-359.57,-505.8)"
    gradientUnits="userSpaceOnUse"
    id="linearGradient15082"
    xlink:href="#c" />
  <linearGradient
    id="c"
    y1="503.79999"
    x1="388.57001"
    y2="533.79999"
    x2="418.57001"
    gradientUnits="userSpaceOnUse"
    gradientTransform="translate(-359.57,-505.8)">
   <stop
     stop-color="#292c2f"
     id="stop15029" />
   <stop
     offset="1"
     stop-opacity="0"
     id="stop15031" />
  </linearGradient>
  <linearGradient
    id="b"
    y1="515.79999"
    y2="509.79999"
    x2="0"
    gradientUnits="userSpaceOnUse"
    gradientTransform="translate(25,-6)">
   <stop
     stop-color="#c61423"
     id="stop15024" />
   <stop
     offset="1"
     stop-color="#dc2b41"
     id="stop15026" />
  </linearGradient>
  <linearGradient
    xlink:href="#c"
    id="e"
    y1="504.87"
    x1="422.85001"
    y2="510.79999"
    x2="428.78"
    gradientUnits="userSpaceOnUse"
    gradientTransform="translate(-384.57,-499.8)" />
  <linearGradient
    id="d"
    y1="9"
    y2="5"
    x2="0"
    gradientUnits="userSpaceOnUse"
    gradientTransform="translate(384.57,499.8)">
   <stop
     stop-color="#f7aeb4"
     id="stop15034" />
   <stop
     offset="1"
     stop-color="#f8d4d9"
     id="stop15036" />
  </linearGradient>
 </defs>
 <g
   id="g883"
   transform="matrix(0.65823892,0,0,0.65823892,3.3249763,2.6631871)">
  <rect
    y="0.60077608"
    x="1.033034"
    height="62.866646"
    width="62.567139"
    id="rect4539-1"
    style="opacity:1;fill:#0669a3;fill-opacity:1;stroke:none;stroke-width:1.146;stroke-linejoin:round;stroke-miterlimit:7.8;stroke-dasharray:none;stroke-opacity:0.995146" />
  <g
    transform="matrix(1.33,0,0,1.33,-505.87445,-668.78182)"
    id="g15054">
   <g
     style="fill-rule:evenodd"
     id="g15046">
    <path
      style="fill:url(#a)"
      d="m 425.57,506.8 v 27 h -18 l -10,10 v -10 h -9 v -27 z"
      id="path15042" />
    <path
      style="opacity:0.2;fill:url(#linearGradient15082)"
      d="m 41,7 -2,2 2,2 z"
      transform="translate(384.57,499.8)"
      id="path15044" />
   </g>
   <circle
     style="fill:url(#b)"
     r="3"
     cx="425.57001"
     cy="506.79999"
     id="ellipse15048" />
   <path
     style="opacity:0.2;fill:url(#e);fill-rule:evenodd"
     d="M 43,7 42,7.33 40,8 39.65,8.465 41.179,9.994 a 2.999999,2.999999 0 0 0 2.689453,-2.125 z"
     transform="translate(384.57,499.8)"
     id="path15050" />
   <path
     style="fill:url(#d)"
     d="m 425.57,504.8 c -0.277,0 -0.5,0.223 -0.5,0.5 v 0.293 l -0.207,-0.207 c -0.196,-0.196 -0.511,-0.196 -0.707,0 -0.196,0.196 -0.196,0.511 0,0.707 l 0.207,0.207 h -0.293 c -0.277,0 -0.5,0.223 -0.5,0.5 0,0.277 0.223,0.5 0.5,0.5 h 0.293 l -0.207,0.207 c -0.196,0.196 -0.196,0.511 0,0.707 0.196,0.196 0.511,0.196 0.707,0 l 0.207,-0.207 v 0.293 c 0,0.277 0.223,0.5 0.5,0.5 0.277,0 0.5,-0.223 0.5,-0.5 v -0.293 l 0.207,0.207 c 0.196,0.196 0.511,0.196 0.707,0 0.196,-0.196 0.196,-0.511 0,-0.707 l -0.207,-0.207 h 0.293 c 0.277,0 0.5,-0.223 0.5,-0.5 0,-0.277 -0.223,-0.5 -0.5,-0.5 h -0.293 l 0.207,-0.207 c 0.196,-0.196 0.196,-0.511 0,-0.707 -0.196,-0.196 -0.511,-0.196 -0.707,0 l -0.207,0.207 V 505.3 c 0,-0.277 -0.223,-0.5 -0.5,-0.5"
     id="path15052" />
  </g>
 </g>
 <path
   style="display:inline;mix-blend-mode:normal;fill:url(#linearGradient3403);fill-opacity:1;stroke:url(#linearGradient20558);stroke-width:1.16242;stroke-linecap:butt;stroke-linejoin:round;stroke-miterlimit:4;stroke-dasharray:none;stroke-opacity:1"
   d="M 4.7043071,3.9814882 4.6913695,60.80196 H 58.59546 l 1.022155,-2.866369 c 0,0 -23.87537,0.766388 -32.844441,-4.140386 C 16.257548,48.042344 11.401114,4.0978197 11.401114,4.0978197 Z"
   id="path1686"
   transform="matrix(0.7518797,0,0,0.7518797,0.09970467,0.02488636)" />
 <rect
   style="display:inline;fill:none;fill-opacity:1;stroke:url(#linearGradient4557);stroke-width:3.71366;stroke-linejoin:round;stroke-miterlimit:7.8;stroke-dasharray:none;stroke-opacity:0.995146"
   id="rect4539"
   width="62.566689"
   height="62.866646"
   x="1.0323594"
   y="0.59551275"
   ry="6.2447233"
   rx="5.8029528"
   transform="matrix(0.70434793,0,0,0.70291231,1.3629847,1.5442064)" />
</svg>
