<?xml version="1.0" encoding="UTF-8" standalone="no"?>
<!-- Created with Inkscape (http://www.inkscape.org/) -->

<svg
  width="48"
  height="48"
  version="1.1"
  viewBox="0 0 48 48"
  id="svg22"
  xmlns:xlink="http://www.w3.org/1999/xlink"
  xmlns="http://www.w3.org/2000/svg"
  xmlns:svg="http://www.w3.org/2000/svg">
 <defs
   id="defs12">
  <linearGradient
    xlink:href="#linearGradient3487"
    id="linearGradient3403"
    gradientUnits="userSpaceOnUse"
    x1="6.9491749"
    y1="4.5549412"
    x2="11.215498"
    y2="59.052471" />
  <linearGradient
    id="linearGradient3487">
   <stop
     style="stop-color:#32373c;stop-opacity:1"
     offset="0"
     id="stop3481" />
   <stop
     id="stop3483"
     offset="0.36804965"
     style="stop-color:#1a1a1a;stop-opacity:1" />
   <stop
     style="stop-color:#31363b;stop-opacity:1"
     offset="1"
     id="stop3485" />
  </linearGradient>
  <linearGradient
    xlink:href="#linearGradient20604"
    id="linearGradient20558"
    gradientUnits="userSpaceOnUse"
    x1="25.802212"
    y1="20.373846"
    x2="25.111048"
    y2="58.912758" />
  <linearGradient
    id="linearGradient20604">
   <stop
     id="stop20598"
     offset="0"
     style="stop-color:#3d3d3d;stop-opacity:1" />
   <stop
     style="stop-color:#000000;stop-opacity:1"
     offset="0.61772454"
     id="stop20600" />
   <stop
     id="stop20602"
     offset="1"
     style="stop-color:#3d3d3d;stop-opacity:1" />
  </linearGradient>
  <filter
    style="color-interpolation-filters:sRGB"
    id="filter20720"
    x="-0.010582174"
    y="-0.010229378"
    width="1.0211639"
    height="1.0204588">
   <feGaussianBlur
     stdDeviation="1.212383e-05"
     id="feGaussianBlur20722" />
  </filter>
  <linearGradient
    gradientTransform="translate(0.36067797,-0.13016949)"
    xlink:href="#linearGradient4555"
    id="linearGradient4557"
    x1="43.499737"
    y1="64.011795"
    x2="44.141731"
    y2="0.30621234"
    gradientUnits="userSpaceOnUse" />
  <linearGradient
    id="linearGradient4555">
   <stop
     style="stop-color:#141618;stop-opacity:1"
     offset="0"
     id="stop4551" />
   <stop
     id="stop4559"
     offset="0.51820582"
     style="stop-color:#686868;stop-opacity:1" />
   <stop
     style="stop-color:#31363b;stop-opacity:1"
     offset="1"
     id="stop4553" />
  </linearGradient>
  <filter
    style="color-interpolation-filters:sRGB"
    id="filter4601"
    x="-0.02967811"
    width="1.0593562"
    y="-0.029536507"
    height="1.059073">
   <feGaussianBlur
     stdDeviation="1.2955196e-05"
     id="feGaussianBlur4603" />
  </filter>
 </defs>
 <g
   id="g866"
   transform="matrix(0.64285096,0,0,0.65794885,5.117163,2.2089243)">
  <rect
    y="0.60077608"
    x="1.033034"
    height="62.866646"
    width="62.567139"
    id="rect4539-1"
    style="opacity:1;fill:#28a4e2;fill-opacity:1;stroke:none;stroke-width:1.146;stroke-linejoin:round;stroke-miterlimit:7.8;stroke-dasharray:none;stroke-opacity:0.995146" />
  <g
    id="g1"
    transform="matrix(1.2785447,0,0,1.2785447,135.49892,-7.6768112)">
   <path
     style="opacity:0.2;stroke-width:1.53762"
     d="m -63.444044,46.996353 c 0.591116,-1.121668 3.991593,-20.293371 4.478487,-25.248164 0.525783,-4.912236 -2.216688,-3.998791 -4.739823,-3.168939 -6.189615,2.042712 -25.763359,10.321471 -31.120744,13.052687 -1.317568,0.534996 -1.888463,1.440841 -0.928676,2.226616 0.826008,0.664186 3.850037,1.579151 6.287616,2.042712 2.079798,0.61403 3.694481,0.02584 5.184717,-0.796414 3.580923,-2.074629 14.253693,-8.673927 14.829254,-9.041736 0.574005,-0.36781 1.202456,0.316134 0.882008,0.645946 -0.322003,0.329813 -7.88052,6.953429 -10.36321,9.947582 -1.314458,1.646025 -1.274013,2.526033 0.07622,3.564107 3.030252,2.320849 11.125441,7.613054 12.329452,7.933748 1.536904,0.407326 2.436024,0.06991 3.084697,-1.158145 z"
     id="path3" />
   <path
     style="fill:#ffffff;stroke-width:1.53762"
     d="m -63.444044,45.476478 c 0.591116,-1.121668 3.991593,-20.293371 4.478487,-25.248164 0.525783,-4.912236 -2.216688,-3.998791 -4.739823,-3.168939 -6.189615,2.042712 -25.763359,10.321471 -31.120744,13.052687 -1.317568,0.534996 -1.888463,1.440841 -0.928676,2.226616 0.826008,0.664186 3.850037,1.579151 6.287616,2.042712 2.079798,0.61403 3.694481,0.02584 5.184717,-0.796414 3.580923,-2.074629 14.253693,-8.673927 14.829254,-9.041736 0.574005,-0.36781 1.202456,0.316134 0.882008,0.645946 -0.322003,0.329813 -7.88052,6.953429 -10.36321,9.947582 -1.314458,1.646025 -1.274013,2.526033 0.07622,3.564107 3.030252,2.320849 11.125441,7.613054 12.329452,7.933748 1.536904,0.407326 2.436024,0.06991 3.084697,-1.158145 z"
     id="path4" />
  </g>
 </g>
 <path
   style="display:inline;mix-blend-mode:normal;fill:url(#linearGradient3403);fill-opacity:1;stroke:url(#linearGradient20558);stroke-width:1.16242;stroke-linecap:butt;stroke-linejoin:round;stroke-miterlimit:4;stroke-dasharray:none;stroke-opacity:1"
   d="M 4.7043071,3.9814882 4.6913695,60.80196 H 58.59546 l 1.022155,-2.866369 c 0,0 -23.87537,0.766388 -32.844441,-4.140386 C 16.257548,48.042344 11.401114,4.0978197 11.401114,4.0978197 Z"
   id="path1686"
   transform="matrix(0.7518797,0,0,0.7518797,0.09970467,0.02488636)" />
 <rect
   style="display:inline;fill:none;fill-opacity:1;stroke:url(#linearGradient4557);stroke-width:3.71366;stroke-linejoin:round;stroke-miterlimit:7.8;stroke-dasharray:none;stroke-opacity:0.995146"
   id="rect4539"
   width="62.566689"
   height="62.866646"
   x="1.0323594"
   y="0.59551275"
   ry="6.2447233"
   rx="5.8029528"
   transform="matrix(0.70434793,0,0,0.70291231,1.3629847,1.5442064)" />
</svg>
