<?xml version="1.0" encoding="UTF-8" standalone="no"?>
<!-- Created with Inkscape (http://www.inkscape.org/) -->

<svg
  width="48"
  height="48"
  version="1.1"
  viewBox="0 0 48 48"
  id="svg22"
  xmlns:xlink="http://www.w3.org/1999/xlink"
  xmlns="http://www.w3.org/2000/svg"
  xmlns:svg="http://www.w3.org/2000/svg">
 <defs
   id="defs12">
  <linearGradient
    xlink:href="#linearGradient3487"
    id="linearGradient3403"
    gradientUnits="userSpaceOnUse"
    x1="6.9491749"
    y1="4.5549412"
    x2="11.215498"
    y2="59.052471" />
  <linearGradient
    id="linearGradient3487">
   <stop
     style="stop-color:#32373c;stop-opacity:1"
     offset="0"
     id="stop3481" />
   <stop
     id="stop3483"
     offset="0.36804965"
     style="stop-color:#1a1a1a;stop-opacity:1" />
   <stop
     style="stop-color:#31363b;stop-opacity:1"
     offset="1"
     id="stop3485" />
  </linearGradient>
  <linearGradient
    xlink:href="#linearGradient20604"
    id="linearGradient20558"
    gradientUnits="userSpaceOnUse"
    x1="25.802212"
    y1="20.373846"
    x2="25.111048"
    y2="58.912758" />
  <linearGradient
    id="linearGradient20604">
   <stop
     id="stop20598"
     offset="0"
     style="stop-color:#3d3d3d;stop-opacity:1" />
   <stop
     style="stop-color:#000000;stop-opacity:1"
     offset="0.61772454"
     id="stop20600" />
   <stop
     id="stop20602"
     offset="1"
     style="stop-color:#3d3d3d;stop-opacity:1" />
  </linearGradient>
  <filter
    style="color-interpolation-filters:sRGB"
    id="filter20720"
    x="-0.010582337"
    y="-0.010229536"
    width="1.0211642"
    height="1.0204591">
   <feGaussianBlur
     stdDeviation="1.5857086e-05"
     id="feGaussianBlur20722" />
  </filter>
  <linearGradient
    gradientTransform="translate(0.36067797,-0.13016949)"
    xlink:href="#linearGradient4555"
    id="linearGradient4557"
    x1="43.499737"
    y1="64.011795"
    x2="44.141731"
    y2="0.30621234"
    gradientUnits="userSpaceOnUse" />
  <linearGradient
    id="linearGradient4555">
   <stop
     style="stop-color:#141618;stop-opacity:1"
     offset="0"
     id="stop4551" />
   <stop
     id="stop4559"
     offset="0.51820582"
     style="stop-color:#686868;stop-opacity:1" />
   <stop
     style="stop-color:#31363b;stop-opacity:1"
     offset="1"
     id="stop4553" />
  </linearGradient>
  <filter
    style="color-interpolation-filters:sRGB"
    id="filter4601"
    x="-0.029678263"
    width="1.0593565"
    y="-0.029536659"
    height="1.0590733">
   <feGaussianBlur
     stdDeviation="1.6944452e-05"
     id="feGaussianBlur4603" />
  </filter>
 </defs>
 <g
   id="g866"
   transform="matrix(0.64285096,0,0,0.65794885,5.117163,2.2089243)">
  <rect
    y="0.60077608"
    x="1.033034"
    height="62.866646"
    width="62.567139"
    id="rect4539-1"
    style="opacity:1;fill:#d44e41;fill-opacity:1;stroke:none;stroke-width:1.146;stroke-linejoin:round;stroke-miterlimit:7.8;stroke-dasharray:none;stroke-opacity:0.995146" />
  <g
    id="g1"
    transform="matrix(1.3184056,0,0,1.3184056,150.23834,-6.075958)">
   <path
     style="opacity:0.2;stroke-width:1.53762"
     d="m -84.272365,46.22188 c -4.570979,-1.57601 -6.966425,-2.040668 -8.845178,-1.983641 -1.996068,0.164788 -3.695293,0.752747 -5.652601,1.367403 -1.072598,0.298829 -1.074017,0.283301 -0.07185,-0.787526 0.562267,-0.600804 2.548943,-2.030561 4.414826,-3.177241 2.539306,-1.560534 3.946367,-1.962261 5.594704,-1.962261 2.596265,0 4.314118,-1.511075 3.758997,-3.160837 -2.084805,-3.243837 -7.068305,-7.478288 -7.068305,-8.632259 0,-0.965891 1.927791,-3.418355 4.234971,-5.746798 1.020902,-1.030305 1.46258,-1.854342 1.144142,-2.134599 -0.663547,-0.583972 -7.027055,-1.603757 -10.000718,-1.603757 -2.375091,0 -4.468643,0.711902 -4.468643,2.21087 0,0.415856 0.29122,1.570762 1.21805,2.566459 l 1.68515,1.810358 c -1.114637,1.214784 -1.590805,2.531563 -3.50792,2.531563 -2.7496,0 -2.7496,-2.127343 -2.73505,-4.196584 0.38825,-5.067097 8.481767,-10.146352 16.136933,-9.419102 4.841964,0.460825 9.086207,1.125062 13.721507,1.456686 2.578861,0.12159 4.195567,-0.496697 6.61425,-1.372154 1.752728,-0.634414 0.634964,1.406683 -1.988946,3.631915 -3.155987,2.676469 -5.023265,4.248272 -10.078266,3.803021 -3.780948,-0.333034 -4.815416,-0.524812 -5.681612,1.680136 -0.687388,1.749799 0.06297,3.417486 3.633486,6.978525 1.760671,1.755993 2.52944,2.890201 2.51723,4.000046 -0.01089,0.993202 -0.630509,1.966892 -1.997077,3.349232 -1.204889,1.218796 -1.894725,2.431181 -1.722396,2.694186 0.540672,0.825178 4.120428,2.592843 6.071505,2.592843 1.028383,0 2.969458,-0.276432 4.1238,-0.831911 1.952576,-0.939599 2.781376,-0.931124 2.781376,0.02844 0,0.759867 -6.146078,5.371837 -9.660995,5.363052 -0.639397,-0.0017 -2.516426,-0.485462 -4.171368,-1.056062 z"
     id="path3" />
   <path
     style="fill:#3f3f3f;stroke-width:1.53762"
     d="m -84.272365,44.70197 c -4.570979,-1.57601 -6.966425,-2.040668 -8.845178,-1.983641 -1.996068,0.164788 -3.695293,0.752747 -5.652601,1.367403 -1.072598,0.298829 -1.074017,0.283302 -0.07185,-0.787526 0.562267,-0.600804 2.548943,-2.030561 4.414826,-3.177241 2.539306,-1.560534 3.946367,-1.962261 5.594704,-1.962261 2.596265,0 4.314118,-1.511075 3.758997,-3.160837 -2.084805,-3.243837 -7.068305,-7.478288 -7.068305,-8.632259 0,-0.965891 1.927791,-3.418355 4.234971,-5.746798 1.020902,-1.030305 1.46258,-1.854342 1.144142,-2.134599 -0.663547,-0.583972 -7.027055,-1.603757 -10.000718,-1.603757 -2.375091,0 -4.468643,0.711902 -4.468643,2.21087 0,0.415856 0.29122,1.570762 1.21805,2.566459 l 1.68515,1.810358 c -1.114637,1.214785 -1.590805,2.531563 -3.50792,2.531563 -2.7496,0 -2.7496,-2.127343 -2.73505,-4.196584 0.38825,-5.067096 8.481767,-10.146352 16.136933,-9.419102 4.841964,0.460825 9.086207,1.125062 13.721507,1.456686 2.578861,0.12159 4.195567,-0.496696 6.61425,-1.372154 1.752728,-0.634414 0.634964,1.406683 -1.988946,3.631915 -3.155987,2.676469 -5.023265,4.248273 -10.078266,3.803021 -3.780948,-0.333034 -4.815416,-0.524812 -5.681612,1.680136 -0.687388,1.749799 0.06297,3.417486 3.633486,6.978525 1.760671,1.755993 2.52944,2.890201 2.51723,4.000046 -0.01089,0.993202 -0.630509,1.966892 -1.997077,3.349232 -1.204889,1.218797 -1.894725,2.431181 -1.722396,2.694186 0.540672,0.825178 4.120428,2.592843 6.071505,2.592843 1.028383,0 2.969458,-0.276432 4.1238,-0.831911 1.952576,-0.939599 2.781376,-0.931124 2.781376,0.02844 0,0.759867 -6.146078,5.371837 -9.660995,5.363052 -0.639397,-0.0017 -2.516426,-0.485462 -4.171368,-1.056062 z"
     id="path4" />
  </g>
 </g>
 <path
   style="display:inline;mix-blend-mode:normal;fill:url(#linearGradient3403);fill-opacity:1;stroke:url(#linearGradient20558);stroke-width:1.16242;stroke-linecap:butt;stroke-linejoin:round;stroke-miterlimit:4;stroke-dasharray:none;stroke-opacity:1"
   d="M 4.7043071,3.9814882 4.6913695,60.80196 H 58.59546 l 1.022155,-2.866369 c 0,0 -23.87537,0.766388 -32.844441,-4.140386 C 16.257548,48.042344 11.401114,4.0978197 11.401114,4.0978197 Z"
   id="path1686"
   transform="matrix(0.7518797,0,0,0.7518797,0.09970467,0.02488636)" />
 <rect
   style="display:inline;fill:none;fill-opacity:1;stroke:url(#linearGradient4557);stroke-width:3.71366;stroke-linejoin:round;stroke-miterlimit:7.8;stroke-dasharray:none;stroke-opacity:0.995146"
   id="rect4539"
   width="62.566689"
   height="62.866646"
   x="1.0323594"
   y="0.59551275"
   ry="6.2447233"
   rx="5.8029528"
   transform="matrix(0.70434793,0,0,0.70291231,1.3629847,1.5442064)" />
</svg>
