<?xml version="1.0" encoding="UTF-8" standalone="no"?>
<!-- Created with Inkscape (http://www.inkscape.org/) -->

<svg
  width="48"
  height="48"
  version="1.1"
  viewBox="0 0 48 48"
  id="svg22"
  xmlns:xlink="http://www.w3.org/1999/xlink"
  xmlns="http://www.w3.org/2000/svg"
  xmlns:svg="http://www.w3.org/2000/svg">
 <defs
   id="defs12">
  <linearGradient
    xlink:href="#linearGradient3487"
    id="linearGradient3403"
    gradientUnits="userSpaceOnUse"
    x1="6.9491749"
    y1="4.5549412"
    x2="11.215498"
    y2="59.052471" />
  <linearGradient
    id="linearGradient3487">
   <stop
     style="stop-color:#32373c;stop-opacity:1"
     offset="0"
     id="stop3481" />
   <stop
     id="stop3483"
     offset="0.36804965"
     style="stop-color:#1a1a1a;stop-opacity:1" />
   <stop
     style="stop-color:#31363b;stop-opacity:1"
     offset="1"
     id="stop3485" />
  </linearGradient>
  <linearGradient
    xlink:href="#linearGradient20604"
    id="linearGradient20558"
    gradientUnits="userSpaceOnUse"
    x1="25.802212"
    y1="20.373846"
    x2="25.111048"
    y2="58.912758" />
  <linearGradient
    id="linearGradient20604">
   <stop
     id="stop20598"
     offset="0"
     style="stop-color:#3d3d3d;stop-opacity:1" />
   <stop
     style="stop-color:#000000;stop-opacity:1"
     offset="0.61772454"
     id="stop20600" />
   <stop
     id="stop20602"
     offset="1"
     style="stop-color:#3d3d3d;stop-opacity:1" />
  </linearGradient>
  <filter
    style="color-interpolation-filters:sRGB"
    id="filter20720"
    x="-0.010586238"
    y="-0.010233307"
    width="1.021172"
    height="1.0204666">
   <feGaussianBlur
     stdDeviation="0.00010513253"
     id="feGaussianBlur20722" />
  </filter>
  <linearGradient
    gradientTransform="translate(0.36067797,-0.13016949)"
    xlink:href="#linearGradient4555"
    id="linearGradient4557"
    x1="43.499737"
    y1="64.011795"
    x2="44.141731"
    y2="0.30621234"
    gradientUnits="userSpaceOnUse" />
  <linearGradient
    id="linearGradient4555">
   <stop
     style="stop-color:#141618;stop-opacity:1"
     offset="0"
     id="stop4551" />
   <stop
     id="stop4559"
     offset="0.51820582"
     style="stop-color:#686868;stop-opacity:1" />
   <stop
     style="stop-color:#31363b;stop-opacity:1"
     offset="1"
     id="stop4553" />
  </linearGradient>
  <filter
    style="color-interpolation-filters:sRGB"
    id="filter4601"
    x="-0.029681923"
    width="1.0593638"
    y="-0.029540301"
    height="1.0590806">
   <feGaussianBlur
     stdDeviation="0.00011234177"
     id="feGaussianBlur4603" />
  </filter>
 </defs>
 <g
   id="g866"
   transform="matrix(0.64285096,0,0,0.65794885,5.117163,2.2089243)">
  <rect
    y="0.60077608"
    x="1.033034"
    height="62.866646"
    width="62.567139"
    id="rect4539-1"
    style="opacity:1;fill:#578418;fill-opacity:1;stroke:none;stroke-width:1.146;stroke-linejoin:round;stroke-miterlimit:7.8;stroke-dasharray:none;stroke-opacity:0.995146" />
  <g
    id="g7"
    transform="matrix(1.3555461,0,0,1.3244406,5.339503,-0.41436593)">
   <path
     opacity="0.2"
     d="m 43.982,23.348 c -0.0076,0.20859 -0.01832,0.41617 -0.0332,0.62305 -0.543,10.094 -9.31,18.017 -19.949,18.029 -2.2828,-0.008 -4.5472,-0.38714 -6.6953,-1.1211 l -5.305,3.121 v 1 l 5.3047,-3.1211 c 2.148,0.734 4.412,1.113 6.695,1.121 10.639,-0.012 19.406,-7.935 19.949,-18.029 0.01591,-0.22113 0.02754,-0.44286 0.03516,-0.66602 0.006,-0.102 0.012,-0.203 0.016,-0.305 -0.001,-0.041 -0.003,-0.082 -0.004,-0.123 0.001,-0.06 0.004,-0.118 0.004,-0.178 0,-0.11854 -0.01523,-0.23354 -0.01758,-0.35156 z M 4.014,23.4 c -0.0017,0.101 -0.0137,0.199 -0.0137,0.299 1.01e-4,0.06216 0.0051,0.12346 0.00586,0.18555 -0.0021,0.038 -0.0041,0.077 -0.0059,0.115 0.00988,5.887 3.089,11.41 8,15 v -1 c -4.7993,-3.509 -7.8408,-8.864 -7.9863,-14.6 z"
     id="path1" />
   <path
     fill="#bad632"
     d="m 23.994,4 c -0.56998,0.00422 -1.1395,0.031591 -1.707,0.082031 -0.4114,0.03259 -0.81493,0.085152 -1.2188,0.14062 -0.21405,0.027311 -0.42762,0.057914 -0.64062,0.091797 -0.57543,0.096959 -1.1403,0.21947 -1.6973,0.36133 -0.03648,0.00902 -0.07294,0.018131 -0.10938,0.027344 -8.442,2.1985 -14.621,9.4219 -14.621,17.996 1.01e-4,0.06216 0.0051,0.12346 0.00586,0.18555 -0.0021,0.038 -0.0041,0.077 -0.0059,0.115 0.00988,5.887 3.089,11.41 8,15 v 6 l 5.3047,-3.1211 c 2.148,0.734 4.412,1.113 6.695,1.121 10.639,-0.012 19.406,-7.935 19.949,-18.029 0.01591,-0.22113 0.02754,-0.44286 0.03516,-0.66602 0.006,-0.102 0.012,-0.203 0.016,-0.305 -0.001,-0.041 -0.002,-0.082 -0.004,-0.123 0.001,-0.06 0.004,-0.118 0.004,-0.178 0,-9.684 -7.877,-17.666 -18.004,-18.603 -0.553,-0.0489 -1.108,-0.0757 -1.664,-0.0804 -0.112,-0.0017 -0.221,-0.0156 -0.334,-0.0156 z"
     id="path2" />
   <path
     opacity="0.1"
     d="m 24,10 a 14,14 0 0 0 -14,14 14,14 0 0 0 14,14 14,14 0 0 0 1,-0.037 v 3.99 c 1.374,-0.066 2.711,-0.262 4,-0.58 V 37.072 A 14,14 0 0 0 38,24 14,14 0 0 0 24,10 Z"
     id="path3" />
   <path
     fill="#ffffff"
     opacity="0.2"
     d="m 23.994,4 a 20,19 0 0 0 -1.707,0.082 c -0.411,0.0326 -0.815,0.0852 -1.219,0.1407 a 20,19 0 0 0 -0.64,0.0918 C 19.852,4.4114 19.287,4.5339 18.73,4.6758 A 20,19 0 0 0 18.621,4.7031 C 10.179,6.9016 4,14.125 4,22.6991 c 10e-5,0.062 0.0051,0.124 0.0059,0.186 A 20,19 0 0 0 4,23.0001 a 20,19 0 0 0 0.0176,0.318 c 0.1811,-8.405 6.2874,-15.449 14.603,-17.615 a 20,19 0 0 1 0.109,-0.0272 c 0.557,-0.1419 1.122,-0.2644 1.698,-0.3613 a 20,19 0 0 1 0.64,-0.0918 c 0.404,-0.0555 0.808,-0.1081 1.219,-0.1407 a 20,19 0 0 1 1.707,-0.082 h 0.004 c 0.113,0 0.222,0.0139 0.334,0.0156 a 20,19 0 0 1 1.664,0.0801 c 10.003,0.9259 17.797,8.7283 17.986,18.252 10e-4,-0.015 0.002,-0.029 0.002,-0.043 a 20,19 0 0 0 0.016,-0.305 20,19 0 0 0 -0.004,-0.123 c 10e-4,-0.06 0.004,-0.118 0.004,-0.178 0,-9.684 -7.877,-17.666 -18.004,-18.603 a 20,19 0 0 0 -1.664,-0.0804 c -0.112,-0.0017 -0.221,-0.0156 -0.334,-0.0156 h -0.004 z"
     id="path4" />
   <path
     fill="#578418"
     d="m 24,9 a 14,14 0 0 0 -14,14 14,14 0 0 0 14,14 14,14 0 0 0 1,-0.037 v 4.99 c 1.374,-0.066 2.711,-0.262 4,-0.58 V 36.072 A 14,14 0 0 0 38,23 14,14 0 0 0 24,9 Z"
     id="path5" />
   <path
     opacity="0.1"
     d="m 24,17 a 7,7 0 0 0 -7,7 v 11.104 a 14,14 0 0 0 4,1.554 V 30.314 A 7,7 0 0 0 24,31 7,7 0 0 0 31,24 7,7 0 0 0 24,17 Z"
     id="path6" />
   <path
     fill="#252920"
     d="m 24,16 a 7,7 0 0 0 -7,7 v 12.104 a 14,14 0 0 0 4,1.554 V 29.314 A 7,7 0 0 0 24,30 7,7 0 0 0 31,23 7,7 0 0 0 24,16 Z"
     id="path7" />
  </g>
 </g>
 <path
   style="display:inline;mix-blend-mode:normal;fill:url(#linearGradient3403);fill-opacity:1;stroke:url(#linearGradient20558);stroke-width:1.16242;stroke-linecap:butt;stroke-linejoin:round;stroke-miterlimit:4;stroke-dasharray:none;stroke-opacity:1"
   d="M 4.7043071,3.9814882 4.6913695,60.80196 H 58.59546 l 1.022155,-2.866369 c 0,0 -23.87537,0.766388 -32.844441,-4.140386 C 16.257548,48.042344 11.401114,4.0978197 11.401114,4.0978197 Z"
   id="path1686"
   transform="matrix(0.7518797,0,0,0.7518797,0.09970467,0.02488636)" />
 <rect
   style="display:inline;fill:none;fill-opacity:1;stroke:url(#linearGradient4557);stroke-width:3.71366;stroke-linejoin:round;stroke-miterlimit:7.8;stroke-dasharray:none;stroke-opacity:0.995146"
   id="rect4539"
   width="62.566689"
   height="62.866646"
   x="1.0323594"
   y="0.59551275"
   ry="6.2447233"
   rx="5.8029528"
   transform="matrix(0.70434793,0,0,0.70291231,1.3629847,1.5442064)" />
</svg>
