<?xml version="1.0" encoding="UTF-8" standalone="no"?>
<!-- Created with Inkscape (http://www.inkscape.org/) -->

<svg
  width="48"
  height="48"
  version="1.1"
  viewBox="0 0 48 48"
  id="svg22"
  xmlns:xlink="http://www.w3.org/1999/xlink"
  xmlns="http://www.w3.org/2000/svg"
  xmlns:svg="http://www.w3.org/2000/svg">
 <defs
   id="defs12">
  <linearGradient
    id="linearGradient1005-3-3"
    x1="5.2535"
    x2="9.3823996"
    y1="15.383"
    y2="2.9421"
    gradientTransform="matrix(0.99999,0,0,0.99999,1.632,-0.61743)"
    gradientUnits="userSpaceOnUse">
   <stop
     stop-color="#fa8200"
     offset="0"
     id="stop2" />
   <stop
     stop-color="#ff9600"
     offset=".36953"
     id="stop4" />
   <stop
     stop-color="#ffb400"
     offset="1"
     id="stop6" />
  </linearGradient>
  <filter
    id="filter4014"
    x="-0.062499932"
    y="-0.057692992"
    width="1.1249999"
    height="1.115386"
    color-interpolation-filters="sRGB">
   <feGaussianBlur
     stdDeviation="1.093751"
     id="feGaussianBlur9" />
  </filter>
  <linearGradient
    xlink:href="#linearGradient3487"
    id="linearGradient3403"
    gradientUnits="userSpaceOnUse"
    x1="6.9491749"
    y1="4.5549412"
    x2="11.215498"
    y2="59.052471" />
  <linearGradient
    id="linearGradient3487">
   <stop
     style="stop-color:#32373c;stop-opacity:1"
     offset="0"
     id="stop3481" />
   <stop
     id="stop3483"
     offset="0.36804965"
     style="stop-color:#1a1a1a;stop-opacity:1" />
   <stop
     style="stop-color:#31363b;stop-opacity:1"
     offset="1"
     id="stop3485" />
  </linearGradient>
  <linearGradient
    xlink:href="#linearGradient20604"
    id="linearGradient20558"
    gradientUnits="userSpaceOnUse"
    x1="25.802212"
    y1="20.373846"
    x2="25.111048"
    y2="58.912758" />
  <linearGradient
    id="linearGradient20604">
   <stop
     id="stop20598"
     offset="0"
     style="stop-color:#3d3d3d;stop-opacity:1" />
   <stop
     style="stop-color:#000000;stop-opacity:1"
     offset="0.61772454"
     id="stop20600" />
   <stop
     id="stop20602"
     offset="1"
     style="stop-color:#3d3d3d;stop-opacity:1" />
  </linearGradient>
  <linearGradient
    gradientTransform="translate(0.36067797,-0.13016949)"
    xlink:href="#linearGradient4555"
    id="linearGradient4557"
    x1="43.499737"
    y1="64.011795"
    x2="44.141731"
    y2="0.30621234"
    gradientUnits="userSpaceOnUse" />
  <linearGradient
    id="linearGradient4555">
   <stop
     style="stop-color:#141618;stop-opacity:1"
     offset="0"
     id="stop4551" />
   <stop
     id="stop4559"
     offset="0.51820582"
     style="stop-color:#686868;stop-opacity:1" />
   <stop
     style="stop-color:#31363b;stop-opacity:1"
     offset="1"
     id="stop4553" />
  </linearGradient>
  <filter
    style="color-interpolation-filters:sRGB"
    id="filter4601"
    x="-0.029677787"
    width="1.0593556"
    y="-0.029536185"
    height="1.0590724">
   <feGaussianBlur
     stdDeviation="4.5274577e-06"
     id="feGaussianBlur4603" />
  </filter>
 </defs>
 <g
   id="g865"
   transform="matrix(0.66189841,0,0,0.66189841,3.5680315,2.5814471)">
  <rect
    y="0.60077608"
    x="1.033034"
    height="62.866646"
    width="62.567139"
    id="rect4539-1"
    style="opacity:1;fill:#1fb2f9;fill-opacity:1;stroke:none;stroke-width:1.146;stroke-linejoin:round;stroke-miterlimit:7.8;stroke-dasharray:none;stroke-opacity:0.995146" />
  <g
    transform="matrix(1.33,0,0,1.33,-504.22284,-665.62764)"
    id="g14644">
   <g
     transform="translate(384.67299,499.798)"
     id="g14642">
    <path
      style="fill:#ffffff"
      d="m 19.285156,8.2792969 c -0.465544,0 -0.863235,0.1620636 -1.191406,0.4902343 -0.328171,0.3300788 -0.492188,0.7277697 -0.492188,1.1914063 0,0.4636365 0.164017,0.8612375 0.492188,1.1875005 0.101122,0.10303 0.209786,0.191123 0.326172,0.261718 0.255668,0.156454 0.544695,0.234375 0.865234,0.234375 0.465545,0 0.859329,-0.166015 1.1875,-0.496093 0.328171,-0.326263 0.496094,-0.723864 0.496094,-1.1875005 0,-0.3205389 -0.07792,-0.6075682 -0.234375,-0.8613281 C 20.66378,8.9832232 20.575687,8.8725616 20.472656,8.7695312 20.144485,8.4413605 19.750701,8.2792969 19.285156,8.2792969 Z m 4.302735,0 c -0.465545,0 -0.863236,0.1620636 -1.191407,0.4902343 -0.330078,0.3300788 -0.492187,0.7277697 -0.492187,1.1914063 0,0.4636365 0.162109,0.8612375 0.492187,1.1875005 0.101123,0.10303 0.209786,0.191123 0.326172,0.261718 0.255668,0.156454 0.544696,0.234375 0.865235,0.234375 0.463636,0 0.857421,-0.166015 1.1875,-0.496093 0.32817,-0.326263 0.492187,-0.723864 0.492187,-1.1875005 0,-0.3205389 -0.07788,-0.6076133 -0.232422,-0.8632813 -0.0706,-0.1163861 -0.158643,-0.2250946 -0.259765,-0.328125 -0.330079,-0.3281707 -0.723864,-0.4902343 -1.1875,-0.4902343 z m 4.302734,0 c -0.467453,0 -0.863281,0.1620636 -1.193359,0.4902343 -0.328171,0.3300788 -0.492188,0.7277697 -0.492188,1.1914063 0,0.4636365 0.164017,0.8612375 0.492188,1.1875005 0.10303,0.10303 0.211738,0.191123 0.328125,0.261718 0.255668,0.156454 0.544695,0.234375 0.865234,0.234375 0.463637,0 0.857376,-0.166015 1.185547,-0.496093 0.330079,-0.326263 0.494141,-0.723864 0.49414,-1.1875005 0,-0.3205389 -0.07792,-0.6076133 -0.234374,-0.8632813 C 29.265343,8.9812701 29.179202,8.8725616 29.076172,8.7695312 28.748001,8.4413605 28.354262,8.2792969 27.890625,8.2792969 Z m -12.90625,4.5351561 c -0.465545,0 -0.863281,0.162109 -1.193359,0.492188 -0.328171,0.32817 -0.490235,0.725816 -0.490235,1.189453 0,0.463636 0.162064,0.861282 0.490235,1.189453 0.10303,0.10303 0.213692,0.191124 0.330078,0.261719 0.25376,0.154545 0.542742,0.232422 0.863281,0.232422 0.463637,0 0.859329,-0.16597 1.1875,-0.494141 0.330079,-0.328171 0.496094,-0.725817 0.496094,-1.189453 0,-0.320539 -0.07992,-0.607614 -0.238281,-0.863282 -0.07059,-0.116386 -0.156691,-0.225049 -0.257813,-0.326171 -0.328171,-0.330079 -0.723863,-0.492188 -1.1875,-0.492188 z m 17.205078,0 c -0.465544,0 -0.861282,0.162109 -1.189453,0.492188 -0.330079,0.32817 -0.492187,0.725816 -0.492188,1.189453 0,0.463636 0.162109,0.861282 0.492188,1.189453 0.10303,0.10303 0.211739,0.191124 0.328125,0.261719 0.25376,0.154545 0.540789,0.232422 0.861328,0.232422 0.463637,0 0.859375,-0.16597 1.189453,-0.494141 0.328171,-0.328171 0.492188,-0.725817 0.492188,-1.189453 0,-0.320539 -0.07792,-0.607659 -0.234375,-0.865235 -0.07059,-0.114478 -0.15669,-0.223096 -0.257813,-0.324218 -0.330078,-0.330079 -0.725816,-0.492188 -1.189453,-0.492188 z m -12.904297,4.535156 c -0.465544,0 -0.863235,0.162109 -1.191406,0.492188 -0.328171,0.328171 -0.492188,0.725816 -0.492188,1.189453 0,0.465545 0.164017,0.861328 0.492188,1.191406 0.101122,0.101123 0.209786,0.189171 0.326172,0.259766 0.255668,0.154545 0.544695,0.232422 0.865234,0.232422 0.465545,0 0.859329,-0.165925 1.1875,-0.492188 0.328171,-0.330078 0.496094,-0.725861 0.496094,-1.191406 0,-0.318631 -0.07792,-0.60566 -0.234375,-0.861328 -0.0706,-0.116386 -0.158688,-0.225095 -0.261719,-0.328125 -0.328171,-0.330079 -0.721955,-0.492188 -1.1875,-0.492188 z m 4.302735,0 c -0.465545,0 -0.863236,0.162109 -1.191407,0.492188 -0.330078,0.328171 -0.492187,0.725816 -0.492187,1.189453 0,0.465545 0.162109,0.861328 0.492187,1.191406 0.101123,0.101123 0.209786,0.189171 0.326172,0.259766 0.255668,0.154545 0.544696,0.232422 0.865235,0.232422 0.463636,0 0.857421,-0.165925 1.1875,-0.492188 0.32817,-0.330078 0.492187,-0.725861 0.492187,-1.191406 0,-0.320539 -0.07788,-0.607613 -0.232422,-0.863281 -0.0706,-0.116386 -0.158643,-0.22505 -0.259765,-0.326172 -0.330079,-0.330079 -0.723864,-0.492188 -1.1875,-0.492188 z m 4.302734,0 c -0.467453,0 -0.863281,0.162109 -1.193359,0.492188 -0.328171,0.328171 -0.492188,0.725816 -0.492188,1.189453 0,0.465545 0.164017,0.861328 0.492188,1.191406 0.10303,0.101123 0.211738,0.189171 0.328125,0.259766 0.255668,0.154545 0.544695,0.232422 0.865234,0.232422 0.463637,0 0.857376,-0.165925 1.185547,-0.492188 0.330079,-0.330078 0.494141,-0.725861 0.49414,-1.191406 0,-0.320539 -0.07792,-0.607613 -0.234374,-0.863281 -0.07059,-0.116386 -0.158644,-0.22505 -0.259766,-0.326172 -0.328171,-0.330079 -0.72191,-0.492188 -1.185547,-0.492188 z m -4.302734,4.535157 c -0.465545,0 -0.863236,0.164016 -1.191407,0.492187 -0.330078,0.328171 -0.492187,0.725817 -0.492187,1.189453 0,0.465545 0.162109,0.863236 0.492187,1.191406 0.101123,0.103031 0.209786,0.189171 0.326172,0.259766 0.255668,0.156454 0.544696,0.234375 0.865235,0.234375 0.463636,0 0.857421,-0.167878 1.1875,-0.494141 0.32817,-0.32817 0.492187,-0.725861 0.492187,-1.191406 0,-0.318631 -0.07792,-0.605705 -0.234375,-0.863281 -0.0706,-0.116386 -0.15669,-0.225049 -0.257812,-0.326172 -0.330079,-0.328171 -0.723864,-0.492187 -1.1875,-0.492187 z m 0,4.535156 c -0.465545,0 -0.863236,0.165925 -1.191407,0.492187 -0.330078,0.330079 -0.492187,0.725862 -0.492187,1.191407 0,0.463636 0.162109,0.861282 0.492187,1.189453 0.101123,0.101122 0.209786,0.189171 0.326172,0.259765 0.255668,0.156454 0.544696,0.234375 0.865235,0.234375 0.463636,0 0.857421,-0.165969 1.1875,-0.49414 0.32817,-0.328171 0.492187,-0.725817 0.492187,-1.189453 0,-0.320539 -0.07788,-0.607614 -0.232422,-0.863282 -0.0706,-0.116386 -0.158643,-0.225094 -0.259765,-0.328125 -0.330079,-0.326262 -0.723864,-0.492187 -1.1875,-0.492187 z m 0,4.537109 c -0.465545,0 -0.863236,0.163972 -1.191407,0.490235 -0.330078,0.330078 -0.492187,0.725861 -0.492187,1.191406 0,0.463636 0.162109,0.861282 0.492187,1.189453 0.101123,0.101122 0.209786,0.189171 0.326172,0.259766 0.255668,0.156453 0.544696,0.234375 0.865235,0.234375 0.463636,0 0.857421,-0.16597 1.1875,-0.494141 0.32817,-0.328171 0.492187,-0.725817 0.492187,-1.189453 0,-0.320539 -0.07788,-0.607613 -0.232422,-0.863281 -0.0706,-0.116387 -0.158643,-0.225095 -0.259765,-0.328125 -0.330079,-0.326263 -0.723864,-0.490235 -1.1875,-0.490235 z m -4.302735,4.535157 c -0.465544,0 -0.863235,0.163971 -1.191406,0.490234 -0.328171,0.330079 -0.492188,0.72777 -0.492188,1.191406 0,0.463637 0.164017,0.861282 0.492188,1.189453 0.101122,0.101123 0.209786,0.189171 0.326172,0.259766 0.255668,0.156453 0.544695,0.234375 0.865234,0.234375 0.465545,0 0.859329,-0.16597 1.1875,-0.494141 0.328171,-0.328171 0.496094,-0.725816 0.496094,-1.189453 0,-0.318631 -0.07792,-0.605705 -0.234375,-0.863281 -0.0706,-0.116386 -0.158688,-0.225095 -0.261719,-0.328125 -0.328171,-0.326263 -0.721955,-0.490234 -1.1875,-0.490234 z m 4.302735,0 c -0.465545,0 -0.863236,0.163971 -1.191407,0.490234 -0.330078,0.330079 -0.492187,0.72777 -0.492187,1.191406 0,0.463637 0.162109,0.861282 0.492187,1.189453 0.101123,0.101123 0.209786,0.189171 0.326172,0.259766 0.255668,0.156453 0.544696,0.234375 0.865235,0.234375 0.463636,0 0.857421,-0.16597 1.1875,-0.494141 0.32817,-0.328171 0.492187,-0.725816 0.492187,-1.189453 0,-0.320539 -0.07788,-0.607613 -0.232422,-0.863281 -0.0706,-0.116386 -0.158643,-0.225095 -0.259765,-0.328125 -0.330079,-0.326263 -0.723864,-0.490234 -1.1875,-0.490234 z"
      id="path14636" />
    <path
      style="fill-opacity:0.2"
      d="m 25.035156,9.0976562 c 0.154546,0.255668 0.232422,0.5427424 0.232422,0.8632813 0,0.4636365 -0.164017,0.8612375 -0.492187,1.1875005 -0.330079,0.330078 -0.723864,0.496093 -1.1875,0.496093 -0.320539,0 -0.609567,-0.07792 -0.865235,-0.234375 0.0706,0.114478 0.15669,0.223097 0.257813,0.324219 0.328171,0.328171 0.725861,0.496094 1.191406,0.496094 0.465545,0 0.859329,-0.167923 1.1875,-0.496094 0.328171,-0.326263 0.494141,-0.723909 0.494141,-1.189453 0,-0.463637 -0.16597,-0.8612825 -0.494141,-1.1894532 C 25.258253,9.2543464 25.149634,9.1682511 25.035156,9.0976562 Z m 4.300782,0 c 0.156453,0.255668 0.234374,0.5427424 0.234374,0.8632813 0,0.4636365 -0.164061,0.8612375 -0.49414,1.1875005 -0.328171,0.330078 -0.72191,0.496093 -1.185547,0.496093 -0.320539,0 -0.609566,-0.07792 -0.865234,-0.234375 0.07059,0.114478 0.15669,0.223097 0.257812,0.324219 0.328171,0.328171 0.725862,0.496094 1.191406,0.496094 0.463637,0 0.857422,-0.167923 1.1875,-0.496094 0.328171,-0.328171 0.492188,-0.725181 0.492188,-1.189453 0,-0.463637 -0.164017,-0.8612825 -0.492188,-1.1894532 C 29.560987,9.2543464 29.452324,9.1682511 29.335938,9.0976562 Z m -8.601563,0.00195 c 0.156453,0.2537599 0.234375,0.5407892 0.234375,0.8613281 0,0.4636367 -0.167923,0.8612377 -0.496094,1.1875007 -0.328171,0.330078 -0.721955,0.496093 -1.1875,0.496093 -0.320539,0 -0.609566,-0.07792 -0.865234,-0.234375 0.0706,0.114478 0.15669,0.223097 0.257812,0.324219 0.330079,0.328171 0.727815,0.496094 1.19336,0.496094 0.463636,0 0.857376,-0.167923 1.185547,-0.496094 0.330078,-0.326263 0.496093,-0.723909 0.496093,-1.189453 0,-0.463637 -0.166015,-0.8612827 -0.496093,-1.1894534 C 20.955518,9.2543464 20.848853,9.1682963 20.734375,9.0996094 Z m 8.599609,4.5312498 c 0.158362,0.257576 0.236328,0.544696 0.236328,0.865235 0,0.463636 -0.164061,0.861282 -0.49414,1.189453 -0.328171,0.328171 -0.72191,0.494141 -1.185547,0.494141 -0.320539,0 -0.609521,-0.07788 -0.863281,-0.232422 0.06869,0.11257 0.154737,0.221143 0.255859,0.322265 0.328171,0.330079 0.725862,0.496094 1.191406,0.496094 0.463637,0 0.857422,-0.166015 1.1875,-0.496094 0.328171,-0.326263 0.492188,-0.723863 0.492188,-1.1875 0,-0.465544 -0.164017,-0.861327 -0.492188,-1.191406 -0.10303,-0.10303 -0.211738,-0.189171 -0.328125,-0.259766 z m 4.302735,0 c 0.156453,0.257576 0.234375,0.544696 0.234375,0.865235 0,0.463636 -0.164017,0.861282 -0.492188,1.189453 -0.330078,0.328171 -0.725816,0.494141 -1.189453,0.494141 -0.320539,0 -0.607568,-0.07788 -0.861328,-0.232422 0.0706,0.11257 0.154737,0.221143 0.255859,0.322265 0.330079,0.330079 0.723954,0.496094 1.191407,0.496094 0.463636,0 0.859329,-0.166015 1.1875,-0.496094 0.330078,-0.326263 0.49414,-0.723863 0.49414,-1.1875 0,-0.465544 -0.164062,-0.861327 -0.49414,-1.191406 -0.101123,-0.10303 -0.209786,-0.189171 -0.326172,-0.259766 z m -17.207031,0.002 c 0.158361,0.255668 0.238281,0.542743 0.238281,0.863282 0,0.463636 -0.166015,0.861282 -0.496094,1.189453 -0.328171,0.328171 -0.723863,0.494141 -1.1875,0.494141 -0.320539,0 -0.609521,-0.07788 -0.863281,-0.232422 0.06869,0.11257 0.154737,0.221143 0.255859,0.322265 0.328171,0.330079 0.725862,0.496094 1.191406,0.496094 0.465545,0 0.857422,-0.166015 1.1875,-0.496094 0.328171,-0.326263 0.496094,-0.723863 0.496094,-1.1875 0,-0.465544 -0.167923,-0.861327 -0.496094,-1.191406 -0.101122,-0.101122 -0.209785,-0.187218 -0.326171,-0.257813 z m 4.302734,0 c 0.158361,0.255668 0.236328,0.542743 0.236328,0.863282 0,0.463636 -0.167923,0.861282 -0.496094,1.189453 -0.328171,0.328171 -0.721955,0.494141 -1.1875,0.494141 -0.318631,0 -0.607613,-0.07792 -0.863281,-0.234376 0.06869,0.114479 0.154737,0.223097 0.255859,0.324219 0.330079,0.330079 0.727815,0.496094 1.19336,0.496094 0.463636,0 0.857376,-0.166015 1.185547,-0.496094 0.330078,-0.326263 0.496093,-0.723863 0.496093,-1.1875 0,-0.465544 -0.166015,-0.861327 -0.496093,-1.191406 -0.101123,-0.101122 -0.209741,-0.187218 -0.324219,-0.257813 z m 4.300781,0 c 0.156454,0.255668 0.234375,0.542743 0.234375,0.863282 0,0.463636 -0.164017,0.861282 -0.492187,1.189453 -0.330079,0.328171 -0.723864,0.494141 -1.1875,0.494141 -0.320539,0 -0.609567,-0.07792 -0.865235,-0.234376 0.0706,0.114479 0.15669,0.223097 0.257813,0.324219 0.328171,0.330079 0.725861,0.496094 1.191406,0.496094 0.465545,0 0.859329,-0.166015 1.1875,-0.496094 0.328171,-0.326263 0.494141,-0.723863 0.494141,-1.1875 0,-0.465544 -0.16597,-0.861327 -0.494141,-1.191406 -0.101122,-0.101122 -0.209786,-0.187218 -0.326172,-0.257813 z m -12.902344,4.535157 c 0.156454,0.255668 0.234375,0.542742 0.234375,0.863281 0,0.465545 -0.165969,0.861328 -0.49414,1.191406 -0.330079,0.326263 -0.723909,0.492188 -1.189453,0.492188 -0.320539,0 -0.607569,-0.07788 -0.8613285,-0.232422 0.068687,0.114478 0.1527839,0.223096 0.2539065,0.324219 0.330078,0.32817 0.727815,0.49414 1.193359,0.49414 0.463637,0 0.859329,-0.16597 1.1875,-0.49414 0.330079,-0.328171 0.496094,-0.725817 0.496094,-1.189453 0,-0.465545 -0.166015,-0.861328 -0.496094,-1.191407 -0.101122,-0.101122 -0.20974,-0.187217 -0.324219,-0.257812 z m 4.300782,0 c 0.156453,0.255668 0.236328,0.542742 0.236328,0.863281 0,0.465545 -0.166015,0.861328 -0.496094,1.191406 -0.328171,0.326263 -0.723863,0.492188 -1.1875,0.492188 -0.320539,0 -0.609566,-0.07788 -0.865234,-0.232422 0.07059,0.114478 0.15669,0.223096 0.257812,0.324219 0.328171,0.32817 0.725862,0.49414 1.191406,0.49414 0.465545,0 0.857422,-0.16597 1.1875,-0.49414 0.328171,-0.328171 0.496094,-0.725817 0.496094,-1.189453 0,-0.465545 -0.167923,-0.861328 -0.496094,-1.191407 -0.101122,-0.101122 -0.20974,-0.187217 -0.324218,-0.257812 z m 8.603515,0 c 0.154546,0.255668 0.232422,0.542742 0.232422,0.863281 0,0.465545 -0.164017,0.861328 -0.492187,1.191406 -0.330079,0.326263 -0.723864,0.492188 -1.1875,0.492188 -0.320539,0 -0.609567,-0.07788 -0.865235,-0.232422 0.0706,0.114478 0.15669,0.223096 0.257813,0.324219 0.328171,0.32817 0.725861,0.49414 1.191406,0.49414 0.465545,0 0.859329,-0.16597 1.1875,-0.49414 0.328171,-0.328171 0.494141,-0.725817 0.494141,-1.189453 0,-0.465545 -0.16597,-0.861328 -0.494141,-1.191407 -0.101122,-0.101122 -0.209741,-0.187217 -0.324219,-0.257812 z m 4.300782,0 c 0.156453,0.255668 0.234374,0.542742 0.234374,0.863281 0,0.465545 -0.164061,0.861328 -0.49414,1.191406 -0.328171,0.326263 -0.72191,0.492188 -1.185547,0.492188 -0.320539,0 -0.609566,-0.07788 -0.865234,-0.232422 0.07059,0.114478 0.15669,0.223096 0.257812,0.324219 0.328171,0.32817 0.725862,0.49414 1.191406,0.49414 0.463637,0 0.857422,-0.16597 1.1875,-0.49414 0.328171,-0.328171 0.492188,-0.725817 0.492188,-1.189453 0,-0.465545 -0.164017,-0.861328 -0.492188,-1.191407 -0.101122,-0.101122 -0.209785,-0.187217 -0.326171,-0.257812 z m 4.300781,0 c 0.156453,0.255668 0.234375,0.542742 0.234375,0.863281 0,0.465545 -0.164017,0.861328 -0.492188,1.191406 -0.330078,0.326263 -0.725816,0.492188 -1.189453,0.492188 -0.320539,0 -0.607568,-0.07788 -0.861328,-0.232422 0.06869,0.114478 0.154737,0.223096 0.255859,0.324219 0.330079,0.32817 0.723954,0.49414 1.191407,0.49414 0.463636,0 0.859329,-0.16597 1.1875,-0.49414 0.330078,-0.328171 0.49414,-0.725817 0.49414,-1.189453 0,-0.465545 -0.164062,-0.861328 -0.49414,-1.191407 -0.101123,-0.101122 -0.209786,-0.187217 -0.326172,-0.257812 z m 4.302734,0 c 0.156454,0.255668 0.234375,0.542742 0.234375,0.863281 0,0.465545 -0.164062,0.861328 -0.49414,1.191406 -0.328171,0.326263 -0.723864,0.492188 -1.1875,0.492188 -0.320539,0 -0.607614,-0.07788 -0.863282,-0.232422 0.07059,0.114478 0.15669,0.223096 0.257813,0.324219 0.328171,0.32817 0.723908,0.49414 1.189453,0.49414 0.463636,0 0.859374,-0.16597 1.189453,-0.49414 0.328171,-0.328171 0.492188,-0.725817 0.492187,-1.189453 0,-0.465545 -0.164016,-0.861328 -0.492187,-1.191407 -0.101122,-0.101122 -0.209786,-0.187217 -0.326172,-0.257812 z m -17.205078,0.002 c 0.156453,0.255668 0.234375,0.542697 0.234375,0.861328 0,0.465545 -0.167923,0.861328 -0.496094,1.191406 -0.328171,0.326263 -0.721955,0.492188 -1.1875,0.492188 -0.320539,0 -0.609566,-0.07788 -0.865234,-0.232422 0.0706,0.114478 0.15669,0.223096 0.257812,0.324219 0.330079,0.32817 0.727815,0.49414 1.19336,0.49414 0.463636,0 0.857376,-0.16597 1.185547,-0.49414 0.330078,-0.328171 0.496093,-0.725817 0.496093,-1.189453 0,-0.465545 -0.166015,-0.861328 -0.496093,-1.191407 -0.101123,-0.101122 -0.207788,-0.185264 -0.322266,-0.255859 z m -8.603516,4.533203 c 0.156454,0.257576 0.234375,0.54465 0.234375,0.863281 0,0.465545 -0.165969,0.863236 -0.49414,1.191406 -0.330079,0.326263 -0.723909,0.494141 -1.189453,0.494141 -0.320539,0 -0.607569,-0.07788 -0.8613285,-0.232422 0.070595,0.11257 0.1527839,0.221143 0.2539065,0.322266 0.330078,0.328171 0.727815,0.494141 1.193359,0.494141 0.463637,0 0.859329,-0.16597 1.1875,-0.494141 0.330079,-0.328171 0.496094,-0.725817 0.496094,-1.189453 0,-0.463637 -0.166015,-0.861328 -0.496094,-1.191406 -0.101122,-0.101123 -0.20974,-0.187218 -0.324219,-0.257813 z m 4.298829,0 c 0.158361,0.257576 0.238281,0.54465 0.238281,0.863281 0,0.465545 -0.166015,0.863236 -0.496094,1.191406 -0.328171,0.326263 -0.723863,0.494141 -1.1875,0.494141 -0.320539,0 -0.609521,-0.07788 -0.863281,-0.232422 0.06869,0.11257 0.154737,0.221143 0.255859,0.322266 0.328171,0.328171 0.725862,0.494141 1.191406,0.494141 0.465545,0 0.857422,-0.16597 1.1875,-0.494141 0.328171,-0.328171 0.496094,-0.725817 0.496094,-1.189453 0,-0.463637 -0.167923,-0.861328 -0.496094,-1.191406 -0.101122,-0.101123 -0.209785,-0.187218 -0.326171,-0.257813 z m 8.603515,0 c 0.156454,0.257576 0.234375,0.54465 0.234375,0.863281 0,0.465545 -0.164017,0.863236 -0.492187,1.191406 -0.330079,0.326263 -0.723864,0.494141 -1.1875,0.494141 -0.320539,0 -0.609567,-0.07792 -0.865235,-0.234375 0.0706,0.114478 0.15669,0.223096 0.257813,0.324219 0.328171,0.328171 0.725861,0.494141 1.191406,0.494141 0.465545,0 0.859329,-0.16597 1.1875,-0.494141 0.328171,-0.328171 0.494141,-0.725817 0.494141,-1.189453 0,-0.463637 -0.16597,-0.861328 -0.494141,-1.191406 -0.101122,-0.101123 -0.209786,-0.187218 -0.326172,-0.257813 z m 4.300781,0 c 0.158362,0.255668 0.236328,0.542742 0.236328,0.863281 0,0.465545 -0.164061,0.863236 -0.49414,1.191406 -0.328171,0.326263 -0.72191,0.494141 -1.185547,0.494141 -0.320539,0 -0.609521,-0.07788 -0.863281,-0.232422 0.06869,0.11257 0.154737,0.221143 0.255859,0.322266 0.328171,0.328171 0.725862,0.494141 1.191406,0.494141 0.463637,0 0.857422,-0.16597 1.1875,-0.494141 0.328171,-0.328171 0.492188,-0.725817 0.492188,-1.189453 0,-0.463637 -0.164017,-0.861328 -0.492188,-1.191406 -0.10303,-0.101123 -0.211738,-0.187218 -0.328125,-0.257813 z m 4.302735,0 c 0.156453,0.255668 0.234375,0.542742 0.234375,0.863281 0,0.465545 -0.164017,0.863236 -0.492188,1.191406 -0.330078,0.326263 -0.725816,0.494141 -1.189453,0.494141 -0.320539,0 -0.607568,-0.07788 -0.861328,-0.232422 0.0706,0.11257 0.154737,0.221143 0.255859,0.322266 0.330079,0.328171 0.723954,0.494141 1.191407,0.494141 0.463636,0 0.859329,-0.16597 1.1875,-0.494141 0.330078,-0.328171 0.49414,-0.725817 0.49414,-1.189453 0,-0.463637 -0.164062,-0.861328 -0.49414,-1.191406 -0.101123,-0.101123 -0.209786,-0.187218 -0.326172,-0.257813 z m 4.300781,0 c 0.158361,0.255668 0.236328,0.542742 0.236328,0.863281 0,0.465545 -0.164062,0.863236 -0.49414,1.191406 -0.328171,0.326263 -0.723864,0.494141 -1.1875,0.494141 -0.320539,0 -0.607569,-0.07788 -0.861329,-0.232422 0.06869,0.11257 0.154737,0.221143 0.25586,0.322266 0.328171,0.328171 0.723908,0.494141 1.189453,0.494141 0.463636,0 0.859374,-0.16597 1.189453,-0.494141 0.328171,-0.328171 0.492188,-0.725817 0.492187,-1.189453 0,-0.463637 -0.164016,-0.861328 -0.492187,-1.191406 -0.10303,-0.101123 -0.211739,-0.187218 -0.328125,-0.257813 z m -17.203125,0.002 c 0.156453,0.255668 0.234375,0.542697 0.234375,0.861328 0,0.465545 -0.167923,0.863236 -0.496094,1.191406 -0.328171,0.326263 -0.721955,0.494141 -1.1875,0.494141 -0.318631,0 -0.607613,-0.07792 -0.863281,-0.234375 0.0706,0.114478 0.154737,0.223096 0.255859,0.324219 0.330079,0.328171 0.727815,0.494141 1.19336,0.494141 0.463636,0 0.857376,-0.16597 1.185547,-0.494141 0.330078,-0.328171 0.496093,-0.725817 0.496093,-1.189453 0,-0.463637 -0.166015,-0.861328 -0.496093,-1.191406 -0.101123,-0.101123 -0.209696,-0.187173 -0.322266,-0.25586 z m 8.601563,4.533203 c 0.156453,0.257576 0.234375,0.544696 0.234374,0.865235 0,0.463636 -0.164061,0.861282 -0.49414,1.189453 -0.328171,0.328171 -0.72191,0.49414 -1.185547,0.49414 -0.320539,0 -0.609566,-0.07788 -0.865234,-0.232421 0.07059,0.114478 0.15669,0.223096 0.257812,0.324218 0.328171,0.326263 0.725862,0.492188 1.191406,0.492188 0.463637,0 0.857422,-0.165925 1.1875,-0.492188 0.328171,-0.330078 0.492188,-0.727769 0.492188,-1.191406 0,-0.463637 -0.164017,-0.861282 -0.492188,-1.189453 -0.10303,-0.10303 -0.211693,-0.189171 -0.326171,-0.259766 z m 4.300781,0 c 0.156453,0.257576 0.234375,0.544696 0.234375,0.865235 0,0.463636 -0.164017,0.861282 -0.492188,1.189453 -0.330078,0.328171 -0.725816,0.49414 -1.189453,0.49414 -0.320539,0 -0.607568,-0.07788 -0.861328,-0.232421 0.06869,0.114478 0.154737,0.223096 0.255859,0.324218 0.330079,0.326263 0.723954,0.492188 1.191407,0.492188 0.463636,0 0.859329,-0.165925 1.1875,-0.492188 0.330078,-0.330078 0.49414,-0.727769 0.49414,-1.191406 0,-0.463637 -0.164062,-0.861282 -0.49414,-1.189453 -0.101123,-0.10303 -0.209786,-0.189171 -0.326172,-0.259766 z m 4.302734,0 c 0.156454,0.257576 0.234375,0.544696 0.234375,0.865235 0,0.463636 -0.164062,0.861282 -0.49414,1.189453 -0.328171,0.328171 -0.723864,0.49414 -1.1875,0.49414 -0.320539,0 -0.607614,-0.07788 -0.863282,-0.232421 0.07059,0.114478 0.15669,0.223096 0.257813,0.324218 0.328171,0.326263 0.723908,0.492188 1.189453,0.492188 0.463636,0 0.859374,-0.165925 1.189453,-0.492188 0.328171,-0.330078 0.492188,-0.727769 0.492187,-1.191406 0,-0.463637 -0.164016,-0.861282 -0.492187,-1.189453 -0.10303,-0.10303 -0.211694,-0.189171 -0.326172,-0.259766 z m -25.808594,0.002 c 0.156454,0.255668 0.234375,0.542743 0.234375,0.863282 0,0.463636 -0.165969,0.861282 -0.49414,1.189453 -0.330079,0.328171 -0.723909,0.49414 -1.189453,0.49414 -0.320539,0 -0.607569,-0.07788 -0.8613285,-0.232421 0.068687,0.114478 0.1527839,0.223096 0.2539065,0.324218 0.330078,0.326263 0.727815,0.492188 1.193359,0.492188 0.463637,0 0.859329,-0.165925 1.1875,-0.492188 0.330079,-0.330078 0.496094,-0.727769 0.496094,-1.191406 0,-0.463637 -0.166015,-0.861282 -0.496094,-1.189453 -0.101122,-0.101123 -0.20974,-0.187218 -0.324219,-0.257813 z m 4.300782,0 c 0.156453,0.255668 0.236328,0.542743 0.236328,0.863282 0,0.463636 -0.166015,0.861282 -0.496094,1.189453 -0.328171,0.328171 -0.723863,0.49414 -1.1875,0.49414 -0.320539,0 -0.609566,-0.07788 -0.865234,-0.232421 0.07059,0.114478 0.15669,0.223096 0.257812,0.324218 0.328171,0.326263 0.725862,0.492188 1.191406,0.492188 0.465545,0 0.857422,-0.165925 1.1875,-0.492188 0.328171,-0.330078 0.496094,-0.727769 0.496094,-1.191406 0,-0.463637 -0.167923,-0.861282 -0.496094,-1.189453 -0.101122,-0.101123 -0.20974,-0.187218 -0.324218,-0.257813 z m 4.302734,0 c 0.156453,0.257576 0.234375,0.544651 0.234375,0.863282 0,0.463636 -0.167923,0.861282 -0.496094,1.189453 -0.328171,0.328171 -0.721955,0.49414 -1.1875,0.49414 -0.320539,0 -0.609566,-0.07792 -0.865234,-0.234375 0.0706,0.116387 0.15669,0.22505 0.257812,0.326172 0.330079,0.326263 0.727815,0.492188 1.19336,0.492188 0.463636,0 0.857376,-0.165925 1.185547,-0.492188 0.330078,-0.330078 0.496093,-0.727769 0.496093,-1.191406 0,-0.463637 -0.166015,-0.861282 -0.496093,-1.189453 -0.101123,-0.101123 -0.207788,-0.187218 -0.322266,-0.257813 z m 4.300781,0 c 0.154546,0.255668 0.232422,0.542743 0.232422,0.863282 0,0.463636 -0.164017,0.861282 -0.492187,1.189453 -0.330079,0.328171 -0.723864,0.49414 -1.1875,0.49414 -0.320539,0 -0.609567,-0.07792 -0.865235,-0.234375 0.0706,0.116387 0.15669,0.22505 0.257813,0.326172 0.328171,0.326263 0.725861,0.492188 1.191406,0.492188 0.465545,0 0.859329,-0.165925 1.1875,-0.492188 0.328171,-0.330078 0.494141,-0.727769 0.494141,-1.191406 0,-0.463637 -0.16597,-0.861282 -0.494141,-1.189453 -0.101122,-0.101123 -0.209741,-0.187218 -0.324219,-0.257813 z m 4.300782,4.533204 c 0.156453,0.257575 0.234375,0.544695 0.234374,0.865234 0,0.463636 -0.164061,0.861282 -0.49414,1.189453 -0.328171,0.328171 -0.72191,0.494141 -1.185547,0.494141 -0.320539,0 -0.609566,-0.07788 -0.865234,-0.232422 0.07059,0.114478 0.15669,0.223096 0.257812,0.324218 0.328171,0.326263 0.725862,0.492188 1.191406,0.492188 0.463637,0 0.857422,-0.165925 1.1875,-0.492188 0.328171,-0.330078 0.492188,-0.725861 0.492188,-1.191406 0,-0.463636 -0.164017,-0.861282 -0.492188,-1.189453 -0.10303,-0.10303 -0.211693,-0.189171 -0.326171,-0.259765 z m 4.300781,0 c 0.156453,0.257575 0.234375,0.544695 0.234375,0.865234 0,0.463636 -0.164017,0.861282 -0.492188,1.189453 -0.330078,0.328171 -0.725816,0.494141 -1.189453,0.494141 -0.320539,0 -0.607568,-0.07788 -0.861328,-0.232422 0.06869,0.114478 0.154737,0.223096 0.255859,0.324218 0.330079,0.326263 0.723954,0.492188 1.191407,0.492188 0.463636,0 0.859329,-0.165925 1.1875,-0.492188 0.330078,-0.330078 0.49414,-0.725861 0.49414,-1.191406 0,-0.463636 -0.164062,-0.861282 -0.49414,-1.189453 -0.101123,-0.10303 -0.209786,-0.189171 -0.326172,-0.259765 z m -17.205078,0.002 c 0.156453,0.255668 0.236328,0.542742 0.236328,0.863281 0,0.463636 -0.166015,0.861282 -0.496094,1.189453 -0.328171,0.328171 -0.723863,0.494141 -1.1875,0.494141 -0.320539,0 -0.609566,-0.07788 -0.865234,-0.232422 0.07059,0.114478 0.15669,0.223096 0.257812,0.324218 0.328171,0.326263 0.725862,0.492188 1.191406,0.492188 0.465545,0 0.857422,-0.165925 1.1875,-0.492188 0.328171,-0.330078 0.496094,-0.725861 0.496094,-1.191406 0,-0.463636 -0.167923,-0.861282 -0.496094,-1.189453 -0.101122,-0.101122 -0.20974,-0.187218 -0.324218,-0.257812 z m 4.302734,0 c 0.156453,0.257576 0.234375,0.54465 0.234375,0.863281 0,0.463636 -0.167923,0.861282 -0.496094,1.189453 -0.328171,0.328171 -0.721955,0.494141 -1.1875,0.494141 -0.320539,0 -0.609566,-0.07792 -0.865234,-0.234375 0.0706,0.116386 0.15669,0.225049 0.257812,0.326171 0.330079,0.326263 0.727815,0.492188 1.19336,0.492188 0.463636,0 0.857376,-0.165925 1.185547,-0.492188 0.330078,-0.330078 0.496093,-0.725861 0.496093,-1.191406 0,-0.463636 -0.166015,-0.861282 -0.496093,-1.189453 -0.101123,-0.101122 -0.207788,-0.187218 -0.322266,-0.257812 z m 4.300781,0 c 0.154546,0.255668 0.232422,0.542742 0.232422,0.863281 0,0.463636 -0.164017,0.861282 -0.492187,1.189453 -0.330079,0.328171 -0.723864,0.494141 -1.1875,0.494141 -0.320539,0 -0.609567,-0.07792 -0.865235,-0.234375 0.0706,0.116386 0.15669,0.225049 0.257813,0.326171 0.328171,0.326263 0.725861,0.492188 1.191406,0.492188 0.465545,0 0.859329,-0.165925 1.1875,-0.492188 0.328171,-0.330078 0.494141,-0.725861 0.494141,-1.191406 0,-0.463636 -0.16597,-0.861282 -0.494141,-1.189453 -0.101122,-0.101122 -0.209741,-0.187218 -0.324219,-0.257812 z m 4.300782,4.533203 c 0.156453,0.257576 0.234375,0.544695 0.234374,0.865234 0,0.463637 -0.164061,0.861282 -0.49414,1.189453 -0.328171,0.328171 -0.72191,0.494141 -1.185547,0.494141 -0.320539,0 -0.609566,-0.07788 -0.865234,-0.232422 0.07059,0.114478 0.15669,0.223096 0.257812,0.324219 0.328171,0.326263 0.725862,0.49414 1.191406,0.49414 0.463637,0 0.857422,-0.167877 1.1875,-0.49414 0.328171,-0.328171 0.492188,-0.725862 0.492188,-1.191407 0,-0.463636 -0.164017,-0.861282 -0.492188,-1.189453 -0.10303,-0.10303 -0.211693,-0.18917 -0.326171,-0.259765 z m -8.601563,0.002 c 0.156453,0.257576 0.234375,0.54465 0.234375,0.863281 0,0.463637 -0.167923,0.861282 -0.496094,1.189453 -0.328171,0.328171 -0.721955,0.494141 -1.1875,0.494141 -0.320539,0 -0.609566,-0.07792 -0.865234,-0.234375 0.0706,0.116386 0.15669,0.225049 0.257812,0.326172 0.330079,0.326263 0.727815,0.49414 1.19336,0.49414 0.463636,0 0.857376,-0.167877 1.185547,-0.49414 0.330078,-0.328171 0.496093,-0.725862 0.496093,-1.191407 0,-0.463636 -0.166015,-0.861282 -0.496093,-1.189453 -0.101123,-0.101122 -0.207788,-0.187217 -0.322266,-0.257812 z m 4.300781,0 c 0.154546,0.255668 0.232422,0.542742 0.232422,0.863281 0,0.463637 -0.164017,0.861282 -0.492187,1.189453 -0.330079,0.328171 -0.723864,0.494141 -1.1875,0.494141 -0.320539,0 -0.609567,-0.07792 -0.865235,-0.234375 0.0706,0.116386 0.15669,0.225049 0.257813,0.326172 0.328171,0.326263 0.725861,0.49414 1.191406,0.49414 0.465545,0 0.859329,-0.167877 1.1875,-0.49414 0.328171,-0.328171 0.494141,-0.725862 0.494141,-1.191407 0,-0.463636 -0.16597,-0.861282 -0.494141,-1.189453 -0.101122,-0.101122 -0.209741,-0.187217 -0.324219,-0.257812 z"
      id="path14638" />
    <path
      style="fill:#64a2f1"
      d="m 19.285156,12.814453 c -0.465544,0 -0.863235,0.162109 -1.191406,0.492188 -0.328171,0.32817 -0.492187,0.725816 -0.492188,1.189453 0,0.463636 0.164017,0.861282 0.492188,1.189453 0.10303,0.10303 0.211739,0.189171 0.328125,0.259765 0.255668,0.156454 0.54465,0.234376 0.863281,0.234376 0.465545,0 0.859329,-0.16597 1.1875,-0.494141 0.328171,-0.328171 0.496094,-0.725817 0.496094,-1.189453 0,-0.320539 -0.07797,-0.607614 -0.236328,-0.863282 -0.0706,-0.116386 -0.156735,-0.225049 -0.259766,-0.326171 -0.328171,-0.330079 -0.721955,-0.492188 -1.1875,-0.492188 z m 4.302735,0 c -0.465545,0 -0.863236,0.162109 -1.191407,0.492188 -0.330078,0.32817 -0.492187,0.725816 -0.492187,1.189453 0,0.463636 0.162109,0.861282 0.492187,1.189453 0.101123,0.10303 0.209786,0.189171 0.326172,0.259765 0.255668,0.156454 0.544696,0.234376 0.865235,0.234376 0.463636,0 0.857421,-0.16597 1.1875,-0.494141 0.32817,-0.328171 0.492187,-0.725817 0.492187,-1.189453 0,-0.320539 -0.07792,-0.607614 -0.234375,-0.863282 -0.0706,-0.116386 -0.15669,-0.225049 -0.257812,-0.326171 -0.330079,-0.330079 -0.723864,-0.492188 -1.1875,-0.492188 z m 4.302734,0 c -0.467453,0 -0.863281,0.162109 -1.193359,0.492188 -0.328171,0.32817 -0.492188,0.725816 -0.492188,1.189453 0,0.463636 0.164017,0.861282 0.492188,1.189453 0.10303,0.10303 0.213692,0.191124 0.330078,0.261719 0.25376,0.154545 0.542742,0.232422 0.863281,0.232422 0.463637,0 0.857376,-0.16597 1.185547,-0.494141 0.330079,-0.328171 0.494141,-0.725817 0.49414,-1.189453 0,-0.320539 -0.07797,-0.607659 -0.236328,-0.865235 -0.07059,-0.114478 -0.15669,-0.223096 -0.257812,-0.324218 -0.328171,-0.330079 -0.72191,-0.492188 -1.185547,-0.492188 z m -17.208984,4.535156 c -0.465545,0 -0.8612827,0.162109 -1.1894535,0.492188 -0.3300787,0.328171 -0.4941406,0.725816 -0.4941406,1.189453 0,0.465545 0.1640619,0.861328 0.4941406,1.191406 0.1011224,0.101123 0.2117389,0.189171 0.328125,0.259766 0.2537595,0.154545 0.5407895,0.232422 0.8613285,0.232422 0.465544,0 0.859374,-0.165925 1.189453,-0.492188 0.328171,-0.330078 0.49414,-0.725861 0.49414,-1.191406 0,-0.320539 -0.07792,-0.607613 -0.234375,-0.863281 -0.07059,-0.116386 -0.158643,-0.22505 -0.259765,-0.326172 -0.330079,-0.330079 -0.723909,-0.492188 -1.189453,-0.492188 z m 4.302734,0 c -0.465545,0 -0.863281,0.162109 -1.193359,0.492188 -0.328171,0.328171 -0.490235,0.725816 -0.490235,1.189453 0,0.465545 0.162064,0.861328 0.490235,1.191406 0.10303,0.101123 0.211738,0.189171 0.328125,0.259766 0.255668,0.154545 0.544695,0.232422 0.865234,0.232422 0.463637,0 0.859329,-0.165925 1.1875,-0.492188 0.330079,-0.330078 0.496094,-0.725861 0.496094,-1.191406 0,-0.320539 -0.07987,-0.607613 -0.236328,-0.863281 -0.07059,-0.116386 -0.156736,-0.22505 -0.259766,-0.326172 -0.328171,-0.330079 -0.723863,-0.492188 -1.1875,-0.492188 z m 17.205078,0 c -0.465544,0 -0.861282,0.162109 -1.189453,0.492188 -0.330079,0.328171 -0.492187,0.725816 -0.492188,1.189453 0,0.465545 0.162109,0.861328 0.492188,1.191406 0.101122,0.101123 0.211739,0.189171 0.328125,0.259766 0.25376,0.154545 0.540789,0.232422 0.861328,0.232422 0.463637,0 0.859375,-0.165925 1.189453,-0.492188 0.328171,-0.330078 0.492188,-0.725861 0.492188,-1.191406 0,-0.320539 -0.07792,-0.607613 -0.234375,-0.863281 -0.07059,-0.116386 -0.15669,-0.22505 -0.257813,-0.326172 -0.330078,-0.330079 -0.725816,-0.492188 -1.189453,-0.492188 z m 4.302735,0 c -0.467453,0 -0.861328,0.162109 -1.191407,0.492188 -0.328171,0.328171 -0.490234,0.725816 -0.490234,1.189453 0,0.465545 0.162063,0.861328 0.490234,1.191406 0.103031,0.101123 0.211739,0.189171 0.328125,0.259766 0.255668,0.154545 0.542743,0.232422 0.863282,0.232422 0.463636,0 0.859329,-0.165925 1.1875,-0.492188 0.330078,-0.330078 0.49414,-0.725861 0.49414,-1.191406 0,-0.320539 -0.07792,-0.607613 -0.234375,-0.863281 -0.07059,-0.116386 -0.158643,-0.22505 -0.259765,-0.326172 -0.328171,-0.330079 -0.723864,-0.492188 -1.1875,-0.492188 z m -25.810547,4.535157 c -0.465545,0 -0.8612827,0.164016 -1.1894535,0.492187 -0.3300787,0.328171 -0.4941406,0.725817 -0.4941406,1.189453 0,0.465545 0.1640619,0.863236 0.4941406,1.191406 0.1030304,0.103031 0.2117389,0.191124 0.328125,0.261719 0.2537595,0.154546 0.5407895,0.232422 0.8613285,0.232422 0.465544,0 0.859374,-0.167878 1.189453,-0.494141 0.328171,-0.32817 0.49414,-0.725861 0.49414,-1.191406 0,-0.318631 -0.07792,-0.605705 -0.234375,-0.863281 -0.07059,-0.116386 -0.158643,-0.225049 -0.259765,-0.326172 -0.330079,-0.328171 -0.723909,-0.492187 -1.189453,-0.492187 z m 4.302734,0 c -0.465545,0 -0.863281,0.164016 -1.193359,0.492187 -0.328171,0.328171 -0.490235,0.725817 -0.490235,1.189453 0,0.465545 0.162064,0.863236 0.490235,1.191406 0.10303,0.103031 0.213692,0.191124 0.330078,0.261719 0.25376,0.154546 0.542742,0.232422 0.863281,0.232422 0.463637,0 0.859329,-0.167878 1.1875,-0.494141 0.330079,-0.32817 0.496094,-0.725861 0.496094,-1.191406 0,-0.318631 -0.07992,-0.605705 -0.238281,-0.863281 -0.07059,-0.116386 -0.156691,-0.225049 -0.257813,-0.326172 -0.328171,-0.328171 -0.723863,-0.492187 -1.1875,-0.492187 z m 4.300781,0 c -0.465544,0 -0.863235,0.164016 -1.191406,0.492187 -0.328171,0.328171 -0.492188,0.725817 -0.492188,1.189453 0,0.465545 0.164017,0.863236 0.492188,1.191406 0.10303,0.103031 0.211739,0.189171 0.328125,0.259766 0.255668,0.156454 0.54465,0.234375 0.863281,0.234375 0.465545,0 0.859329,-0.167878 1.1875,-0.494141 0.328171,-0.32817 0.496094,-0.725861 0.496094,-1.191406 0,-0.318631 -0.07792,-0.60566 -0.234375,-0.861328 -0.0706,-0.116386 -0.158688,-0.225095 -0.261719,-0.328125 -0.328171,-0.328171 -0.721955,-0.492187 -1.1875,-0.492187 z m 8.605469,0 c -0.467453,0 -0.863281,0.164016 -1.193359,0.492187 -0.328171,0.328171 -0.492188,0.725817 -0.492188,1.189453 0,0.465545 0.164017,0.863236 0.492188,1.191406 0.10303,0.103031 0.213692,0.191124 0.330078,0.261719 0.25376,0.154546 0.542742,0.232422 0.863281,0.232422 0.463637,0 0.857376,-0.167878 1.185547,-0.494141 0.330079,-0.32817 0.494141,-0.725861 0.49414,-1.191406 0,-0.320539 -0.07797,-0.607613 -0.236328,-0.863281 -0.07059,-0.116386 -0.15669,-0.225049 -0.257812,-0.326172 -0.328171,-0.328171 -0.72191,-0.492187 -1.185547,-0.492187 z m 4.298828,0 c -0.465544,0 -0.861282,0.164016 -1.189453,0.492187 -0.330079,0.328171 -0.492187,0.725817 -0.492188,1.189453 0,0.465545 0.162109,0.863236 0.492188,1.191406 0.10303,0.103031 0.211739,0.191124 0.328125,0.261719 0.25376,0.154546 0.540789,0.232422 0.861328,0.232422 0.463637,0 0.859375,-0.167878 1.189453,-0.494141 0.328171,-0.32817 0.492188,-0.725861 0.492188,-1.191406 0,-0.320539 -0.07792,-0.607613 -0.234375,-0.863281 -0.07059,-0.116386 -0.15669,-0.225049 -0.257813,-0.326172 -0.330078,-0.328171 -0.725816,-0.492187 -1.189453,-0.492187 z m 4.302735,0 c -0.467453,0 -0.861328,0.164016 -1.191407,0.492187 -0.328171,0.328171 -0.490234,0.725817 -0.490234,1.189453 0,0.465545 0.162063,0.863236 0.490234,1.191406 0.103031,0.103031 0.213692,0.191124 0.330078,0.261719 0.25376,0.154546 0.54079,0.232422 0.861329,0.232422 0.463636,0 0.859329,-0.167878 1.1875,-0.494141 0.330078,-0.32817 0.49414,-0.725861 0.49414,-1.191406 0,-0.320539 -0.07797,-0.607613 -0.236328,-0.863281 -0.07059,-0.116386 -0.15669,-0.225049 -0.257812,-0.326172 -0.328171,-0.328171 -0.723864,-0.492187 -1.1875,-0.492187 z m -25.810547,4.535156 c -0.465545,0 -0.8612827,0.165925 -1.1894535,0.492187 -0.3300787,0.330079 -0.4941406,0.725862 -0.4941406,1.191407 0,0.463636 0.1640619,0.861282 0.4941406,1.189453 0.1011224,0.10303 0.2117389,0.191124 0.328125,0.261719 0.2537595,0.154545 0.5407895,0.232421 0.8613285,0.232421 0.465544,0 0.859374,-0.165969 1.189453,-0.49414 0.328171,-0.328171 0.49414,-0.725817 0.49414,-1.189453 0,-0.320539 -0.07792,-0.607614 -0.234375,-0.863282 -0.07059,-0.116386 -0.158643,-0.225094 -0.259765,-0.328125 -0.330079,-0.326262 -0.723909,-0.492187 -1.189453,-0.492187 z m 4.302734,0 c -0.465545,0 -0.863281,0.165925 -1.193359,0.492187 -0.328171,0.330079 -0.490235,0.725862 -0.490235,1.191407 0,0.463636 0.162064,0.861282 0.490235,1.189453 0.10303,0.10303 0.211738,0.191124 0.328125,0.261719 0.255668,0.154545 0.544695,0.232421 0.865234,0.232421 0.463637,0 0.859329,-0.165969 1.1875,-0.49414 0.330079,-0.328171 0.496094,-0.725817 0.496094,-1.189453 0,-0.320539 -0.07987,-0.607614 -0.236328,-0.863282 -0.07059,-0.116386 -0.156736,-0.225094 -0.259766,-0.328125 -0.328171,-0.326262 -0.723863,-0.492187 -1.1875,-0.492187 z m 4.300781,0 c -0.465544,0 -0.863235,0.165925 -1.191406,0.492187 -0.328171,0.330079 -0.492188,0.725862 -0.492188,1.191407 0,0.463636 0.164017,0.861282 0.492188,1.189453 0.101122,0.101122 0.209786,0.189171 0.326172,0.259765 0.255668,0.156454 0.544695,0.234375 0.865234,0.234375 0.465545,0 0.859329,-0.165969 1.1875,-0.49414 0.328171,-0.328171 0.496094,-0.725817 0.496094,-1.189453 0,-0.318631 -0.07792,-0.605706 -0.234375,-0.863282 -0.0706,-0.116386 -0.158688,-0.225094 -0.261719,-0.328125 -0.328171,-0.326262 -0.721955,-0.492187 -1.1875,-0.492187 z m 8.605469,0 c -0.467453,0 -0.863281,0.165925 -1.193359,0.492187 -0.328171,0.330079 -0.492188,0.725862 -0.492188,1.191407 0,0.463636 0.164017,0.861282 0.492188,1.189453 0.10303,0.10303 0.211738,0.191124 0.328125,0.261719 0.255668,0.154545 0.544695,0.232421 0.865234,0.232421 0.463637,0 0.857376,-0.165969 1.185547,-0.49414 0.330079,-0.328171 0.494141,-0.725817 0.49414,-1.189453 0,-0.320539 -0.07792,-0.607659 -0.234374,-0.865235 -0.07059,-0.114478 -0.158644,-0.223141 -0.259766,-0.326172 -0.328171,-0.326262 -0.72191,-0.492187 -1.185547,-0.492187 z m 4.298828,0 c -0.465544,0 -0.861282,0.165925 -1.189453,0.492187 -0.330079,0.330079 -0.492187,0.725862 -0.492188,1.191407 0,0.463636 0.162109,0.861282 0.492188,1.189453 0.101122,0.10303 0.211739,0.191124 0.328125,0.261719 0.25376,0.154545 0.540789,0.232421 0.861328,0.232421 0.463637,0 0.859375,-0.165969 1.189453,-0.49414 0.328171,-0.328171 0.492188,-0.725817 0.492188,-1.189453 0,-0.320539 -0.07792,-0.607659 -0.234375,-0.865235 -0.07059,-0.114478 -0.15669,-0.223141 -0.257813,-0.326172 -0.330078,-0.326262 -0.725816,-0.492187 -1.189453,-0.492187 z m 4.302735,0 c -0.467453,0 -0.861328,0.165925 -1.191407,0.492187 -0.328171,0.330079 -0.490234,0.725862 -0.490234,1.191407 0,0.463636 0.162063,0.861282 0.490234,1.189453 0.103031,0.10303 0.211739,0.191124 0.328125,0.261719 0.255668,0.154545 0.542743,0.232421 0.863282,0.232421 0.463636,0 0.859329,-0.165969 1.1875,-0.49414 0.330078,-0.328171 0.49414,-0.725817 0.49414,-1.189453 0,-0.320539 -0.07792,-0.607659 -0.234375,-0.865235 -0.07059,-0.114478 -0.158643,-0.223141 -0.259765,-0.326172 -0.328171,-0.326262 -0.723864,-0.492187 -1.1875,-0.492187 z m -21.507813,4.537109 c -0.465545,0 -0.863281,0.163972 -1.193359,0.490235 -0.328171,0.330078 -0.490235,0.725861 -0.490235,1.191406 0,0.463636 0.162064,0.861282 0.490235,1.189453 0.10303,0.10303 0.211738,0.191124 0.328125,0.261719 0.255668,0.154545 0.544695,0.232422 0.865234,0.232422 0.463637,0 0.859329,-0.16597 1.1875,-0.494141 0.330079,-0.328171 0.496094,-0.725817 0.496094,-1.189453 0,-0.320539 -0.07987,-0.607613 -0.236328,-0.863281 -0.07059,-0.116387 -0.156736,-0.225095 -0.259766,-0.328125 -0.328171,-0.326263 -0.723863,-0.490235 -1.1875,-0.490235 z m 4.300781,0 c -0.465544,0 -0.863235,0.163972 -1.191406,0.490235 -0.328171,0.330078 -0.492188,0.725861 -0.492188,1.191406 0,0.463636 0.164017,0.861282 0.492188,1.189453 0.101122,0.101122 0.209786,0.189171 0.326172,0.259766 0.255668,0.156453 0.544695,0.234375 0.865234,0.234375 0.465545,0 0.859329,-0.16597 1.1875,-0.494141 0.328171,-0.328171 0.496094,-0.725817 0.496094,-1.189453 0,-0.318631 -0.07792,-0.605705 -0.234375,-0.863281 -0.0706,-0.116387 -0.158688,-0.225095 -0.261719,-0.328125 -0.328171,-0.326263 -0.721955,-0.490235 -1.1875,-0.490235 z m 8.605469,0 c -0.467453,0 -0.863281,0.163972 -1.193359,0.490235 -0.328171,0.330078 -0.492188,0.725861 -0.492188,1.191406 0,0.463636 0.164017,0.861282 0.492188,1.189453 0.10303,0.10303 0.211738,0.191124 0.328125,0.261719 0.255668,0.154545 0.544695,0.232422 0.865234,0.232422 0.463637,0 0.857376,-0.16597 1.185547,-0.494141 0.330079,-0.328171 0.494141,-0.725817 0.49414,-1.189453 0,-0.320539 -0.07792,-0.607659 -0.234374,-0.865234 -0.07059,-0.114479 -0.158644,-0.223142 -0.259766,-0.326172 -0.328171,-0.326263 -0.72191,-0.490235 -1.185547,-0.490235 z m 4.298828,0 c -0.465544,0 -0.861282,0.163972 -1.189453,0.490235 -0.330079,0.330078 -0.492187,0.725861 -0.492188,1.191406 0,0.463636 0.162109,0.861282 0.492188,1.189453 0.101122,0.10303 0.211739,0.191124 0.328125,0.261719 0.25376,0.154545 0.540789,0.232422 0.861328,0.232422 0.463637,0 0.859375,-0.16597 1.189453,-0.494141 0.328171,-0.328171 0.492188,-0.725817 0.492188,-1.189453 0,-0.320539 -0.07792,-0.607659 -0.234375,-0.865234 -0.07059,-0.114479 -0.15669,-0.223142 -0.257813,-0.326172 -0.330078,-0.326263 -0.725816,-0.490235 -1.189453,-0.490235 z m -4.298828,4.535157 c -0.467453,0 -0.863281,0.163971 -1.193359,0.490234 -0.328171,0.330079 -0.492188,0.72777 -0.492188,1.191406 0,0.463637 0.164017,0.861282 0.492188,1.189453 0.10303,0.103031 0.211738,0.191124 0.328125,0.261719 0.255668,0.154546 0.544695,0.232422 0.865234,0.232422 0.463637,0 0.857376,-0.16597 1.185547,-0.494141 0.330079,-0.328171 0.494141,-0.725816 0.49414,-1.189453 0,-0.320539 -0.07792,-0.607658 -0.234374,-0.865234 -0.07059,-0.114478 -0.158644,-0.223142 -0.259766,-0.326172 -0.328171,-0.326263 -0.72191,-0.490234 -1.185547,-0.490234 z"
      id="path14640" />
   </g>
  </g>
 </g>
 <path
   style="display:inline;mix-blend-mode:normal;fill:url(#linearGradient3403);fill-opacity:1;stroke:url(#linearGradient20558);stroke-width:1.16242;stroke-linecap:butt;stroke-linejoin:round;stroke-miterlimit:4;stroke-dasharray:none;stroke-opacity:1"
   d="M 4.7043071,3.9814882 4.6913695,60.80196 H 58.59546 l 1.022155,-2.866369 c 0,0 -23.87537,0.766388 -32.844441,-4.140386 C 16.257548,48.042344 11.401114,4.0978197 11.401114,4.0978197 Z"
   id="path1686"
   transform="matrix(0.7518797,0,0,0.7518797,0.09970467,0.02488636)" />
 <rect
   style="display:inline;fill:none;fill-opacity:1;stroke:url(#linearGradient4557);stroke-width:3.71366;stroke-linejoin:round;stroke-miterlimit:7.8;stroke-dasharray:none;stroke-opacity:0.995146"
   id="rect4539"
   width="62.566689"
   height="62.866646"
   x="1.0323594"
   y="0.59551275"
   ry="6.2447233"
   rx="5.8029528"
   transform="matrix(0.70434793,0,0,0.70291231,1.3629847,1.5442064)" />
</svg>
