<?xml version="1.0" encoding="UTF-8" standalone="no"?>
<!-- Created with Inkscape (http://www.inkscape.org/) -->

<svg
  width="48"
  height="48"
  version="1.1"
  viewBox="0 0 48 48"
  id="svg22"
  xmlns:xlink="http://www.w3.org/1999/xlink"
  xmlns="http://www.w3.org/2000/svg"
  xmlns:svg="http://www.w3.org/2000/svg">
 <defs
   id="defs12">
  <linearGradient
    id="linearGradient1005-3-3"
    x1="5.2535"
    x2="9.3823996"
    y1="15.383"
    y2="2.9421"
    gradientTransform="matrix(0.99999,0,0,0.99999,1.632,-0.61743)"
    gradientUnits="userSpaceOnUse">
   <stop
     stop-color="#fa8200"
     offset="0"
     id="stop2" />
   <stop
     stop-color="#ff9600"
     offset=".36953"
     id="stop4" />
   <stop
     stop-color="#ffb400"
     offset="1"
     id="stop6" />
  </linearGradient>
  <filter
    id="filter4014"
    x="-0.062499932"
    y="-0.057692992"
    width="1.1249999"
    height="1.115386"
    color-interpolation-filters="sRGB">
   <feGaussianBlur
     stdDeviation="1.093751"
     id="feGaussianBlur9" />
  </filter>
  <linearGradient
    xlink:href="#linearGradient3487"
    id="linearGradient3403"
    gradientUnits="userSpaceOnUse"
    x1="6.9491749"
    y1="4.5549412"
    x2="11.215498"
    y2="59.052471" />
  <linearGradient
    id="linearGradient3487">
   <stop
     style="stop-color:#32373c;stop-opacity:1"
     offset="0"
     id="stop3481" />
   <stop
     id="stop3483"
     offset="0.36804965"
     style="stop-color:#1a1a1a;stop-opacity:1" />
   <stop
     style="stop-color:#31363b;stop-opacity:1"
     offset="1"
     id="stop3485" />
  </linearGradient>
  <linearGradient
    xlink:href="#linearGradient20604"
    id="linearGradient20558"
    gradientUnits="userSpaceOnUse"
    x1="25.802212"
    y1="20.373846"
    x2="25.111048"
    y2="58.912758" />
  <linearGradient
    id="linearGradient20604">
   <stop
     id="stop20598"
     offset="0"
     style="stop-color:#3d3d3d;stop-opacity:1" />
   <stop
     style="stop-color:#000000;stop-opacity:1"
     offset="0.61772454"
     id="stop20600" />
   <stop
     id="stop20602"
     offset="1"
     style="stop-color:#3d3d3d;stop-opacity:1" />
  </linearGradient>
  <linearGradient
    gradientTransform="translate(0.36067797,-0.13016949)"
    xlink:href="#linearGradient4555"
    id="linearGradient4557"
    x1="43.499737"
    y1="64.011795"
    x2="44.141731"
    y2="0.30621234"
    gradientUnits="userSpaceOnUse" />
  <linearGradient
    id="linearGradient4555">
   <stop
     style="stop-color:#141618;stop-opacity:1"
     offset="0"
     id="stop4551" />
   <stop
     id="stop4559"
     offset="0.51820582"
     style="stop-color:#686868;stop-opacity:1" />
   <stop
     style="stop-color:#31363b;stop-opacity:1"
     offset="1"
     id="stop4553" />
  </linearGradient>
  <filter
    style="color-interpolation-filters:sRGB"
    id="filter4601"
    x="-0.029711064"
    width="1.0594221"
    y="-0.029569303"
    height="1.0591386">
   <feGaussianBlur
     stdDeviation="0.00087204671"
     id="feGaussianBlur4603" />
  </filter>
  <linearGradient
    id="b"
    y1="44"
    y2="4"
    x2="0"
    gradientUnits="userSpaceOnUse">
   <stop
     stop-color="#c6cdd1"
     id="stop7421" />
   <stop
     offset="1"
     stop-color="#e0e5e7"
     id="stop7423" />
  </linearGradient>
  <linearGradient
    id="a"
    y1="543.79999"
    y2="503.79999"
    x2="0"
    gradientUnits="userSpaceOnUse"
    gradientTransform="matrix(1,0,0,0.9,0,54.38)">
   <stop
     stop-color="#1d1e1e"
     id="stop7416" />
   <stop
     offset="1"
     stop-color="#44484c"
     id="stop7418" />
  </linearGradient>
 </defs>
 <g
   transform="matrix(1.0728132,0,0,1.0612514,-414.28727,-531.58327)"
   id="g7526">
  <path
    style="fill:url(#b);stroke-width:2.8;stroke-opacity:0.55"
    d="M 4,4 V 44 H 44 V 4 Z"
    transform="translate(384.57,499.8)"
    id="path7428" />
  <rect
    style="fill:#99a1a7"
    width="40"
    x="388.57001"
    y="542.79999"
    height="1"
    id="rect7430" />
  <path
    style="fill:#eff0f1;fill-rule:evenodd"
    d="m 402.57,514.8 v 15 l 12,-7.5 z"
    id="path7432" />
  <rect
    style="fill:url(#a)"
    width="40"
    x="388.57001"
    y="508.79999"
    rx="0"
    height="31"
    id="rect7434" />
  <g
    transform="translate(-51,-7)"
    id="g7442">
   <rect
     style="fill:#566069"
     width="40"
     x="439.57001"
     y="510.79999"
     height="4"
     id="rect7436" />
   <rect
     style="fill:#3daee9"
     width="40"
     x="439.57001"
     y="514.79999"
     height="1"
     id="rect7438" />
   <rect
     style="fill:#eff0f1"
     width="2"
     x="476.57001"
     y="511.79999"
     rx="1"
     height="2"
     id="rect7440" />
  </g>
  <g
    style="color:#000000;stroke-width:3;stroke-linecap:round;stroke-linejoin:round"
    id="g7452">
   <circle
     style="fill:#eff0f1"
     cx="395.07001"
     cy="533.29999"
     r="3.5"
     id="circle7444" />
   <circle
     style="fill:#3daefd"
     cx="395.07001"
     cy="533.29999"
     r="2.5"
     id="circle7446" />
   <circle
     style="fill:#eff0f1"
     cx="395.07001"
     cy="524.29999"
     r="3.5"
     id="circle7448" />
   <circle
     style="fill:#3daefd"
     cx="395.07001"
     cy="524.29999"
     r="2.5"
     id="circle7450" />
  </g>
  <g
    style="fill:#da4453"
    id="g7458">
   <rect
     width="2"
     x="399.57001"
     y="513.79999"
     height="1"
     id="rect7454" />
   <rect
     width="3"
     x="402.57001"
     y="513.79999"
     height="1"
     id="rect7456" />
  </g>
  <g
    style="fill:#95a5a6"
    id="g7466">
   <rect
     width="3"
     x="408.57001"
     y="513.79999"
     height="1"
     id="rect7460" />
   <rect
     width="6"
     x="413.57001"
     y="513.79999"
     height="1"
     id="rect7462" />
   <rect
     width="4"
     x="420.57001"
     y="513.79999"
     height="1"
     id="rect7464" />
  </g>
  <g
    style="fill:#bdc3c7"
    id="g7472">
   <rect
     width="4"
     x="399.57001"
     y="515.79999"
     height="1"
     id="rect7468" />
   <rect
     width="2"
     x="404.57001"
     y="515.79999"
     height="1"
     id="rect7470" />
  </g>
  <rect
    style="fill:#95a5a6"
    width="8"
    x="408.57001"
    y="515.79999"
    height="1"
    id="rect7474" />
  <g
    style="fill:#3daefd"
    id="g7480">
   <rect
     width="2"
     x="399.57001"
     y="522.79999"
     height="1"
     id="rect7476" />
   <rect
     width="3"
     x="402.57001"
     y="522.79999"
     height="1"
     id="rect7478" />
  </g>
  <g
    style="fill:#95a5a6"
    id="g7488">
   <rect
     width="4"
     x="408.57001"
     y="522.79999"
     height="1"
     id="rect7482" />
   <rect
     width="4"
     x="414.57001"
     y="522.79999"
     height="1"
     id="rect7484" />
   <rect
     width="5"
     x="419.57001"
     y="522.79999"
     height="1"
     id="rect7486" />
  </g>
  <rect
    style="fill:#bdc3c7"
    width="3"
    x="399.57001"
    y="524.79999"
    height="1"
    id="rect7490" />
  <g
    style="fill:#95a5a6"
    id="g7504">
   <rect
     width="3"
     x="408.57001"
     y="524.79999"
     height="1"
     id="rect7492" />
   <rect
     width="1"
     x="412.57001"
     y="524.79999"
     height="1"
     id="rect7494" />
   <rect
     width="5"
     x="414.57001"
     y="524.79999"
     height="1"
     id="rect7496" />
   <g
     transform="scale(-1,1)"
     id="g7502">
    <rect
      width="2"
      x="-419.57001"
      y="533.79999"
      height="1"
      id="rect7498" />
    <rect
      width="8"
      x="-416.57001"
      y="533.79999"
      height="1"
      id="rect7500" />
   </g>
  </g>
  <g
    transform="scale(-1,1)"
    id="g7518">
   <rect
     style="fill:#bdc3c7"
     width="7"
     x="-406.57001"
     y="533.79999"
     height="1"
     id="rect7506" />
   <g
     style="fill:#95a5a6"
     id="g7514">
    <rect
      width="2"
      x="-424.57001"
      y="531.79999"
      height="1"
      id="rect7508" />
    <rect
      width="3"
      x="-421.57001"
      y="531.79999"
      height="1"
      id="rect7510" />
    <rect
      width="9"
      x="-417.57001"
      y="531.79999"
      height="1"
      id="rect7512" />
   </g>
   <rect
     style="fill:#3daefd"
     width="5"
     x="-404.57001"
     y="531.79999"
     height="1"
     id="rect7516" />
  </g>
  <g
    style="fill-rule:evenodd"
    id="g7524">
   <path
     style="color:#000000;color-interpolation:sRGB;color-interpolation-filters:linearRGB;fill:#eff0f1;stroke-width:2;color-rendering:auto;image-rendering:auto;shape-rendering:auto;text-rendering:auto"
     d="m 395.07,511.72 -3.501,1.467 c 0,0 0.416,1.902 0.867,3 0.225,0.551 0.5,1.121 0.889,1.617 0.389,0.496 0.965,0.99 1.745,0.99 0.78,0 1.354,-0.494 1.743,-0.99 0.389,-0.496 0.664,-1.066 0.889,-1.617 0.451,-1.102 0.869,-3 0.869,-3 z"
     id="path7520" />
   <path
     style="fill:#da4453"
     d="m 392.57,513.8 2.5,-1 2.5,1 c 0,0 -0.928,4 -2.5,4 -1.572,0 -2.5,-4 -2.5,-4"
     id="path7522" />
  </g>
 </g>
 <path
   style="display:inline;mix-blend-mode:normal;fill:url(#linearGradient3403);fill-opacity:1;stroke:url(#linearGradient20558);stroke-width:1.16242;stroke-linecap:butt;stroke-linejoin:round;stroke-miterlimit:4;stroke-dasharray:none;stroke-opacity:1"
   d="M 4.7043071,3.9814882 4.6913695,60.80196 H 58.59546 l 1.022155,-2.866369 c 0,0 -23.87537,0.766388 -32.844441,-4.140386 C 16.257548,48.042344 11.401114,4.0978197 11.401114,4.0978197 Z"
   id="path1686"
   transform="matrix(0.7518797,0,0,0.7518797,0.09970467,0.02488636)" />
 <rect
   style="display:inline;fill:none;fill-opacity:1;stroke:url(#linearGradient4557);stroke-width:3.71366;stroke-linejoin:round;stroke-miterlimit:7.8;stroke-dasharray:none;stroke-opacity:0.995146"
   id="rect4539"
   width="62.566689"
   height="62.866646"
   x="1.0323594"
   y="0.59551275"
   ry="6.2447233"
   rx="5.8029528"
   transform="matrix(0.70434793,0,0,0.70291231,1.3629847,1.5442064)" />
</svg>
