<?xml version="1.0" encoding="UTF-8" standalone="no"?>
<!-- Created with Inkscape (http://www.inkscape.org/) -->

<svg
  width="48"
  height="48"
  version="1.1"
  viewBox="0 0 48 48"
  id="svg22"
  xmlns:xlink="http://www.w3.org/1999/xlink"
  xmlns="http://www.w3.org/2000/svg"
  xmlns:svg="http://www.w3.org/2000/svg">
 <defs
   id="defs12">
  <linearGradient
    id="linearGradient1005-3-3"
    x1="5.2535"
    x2="9.3823996"
    y1="15.383"
    y2="2.9421"
    gradientTransform="matrix(0.99999,0,0,0.99999,1.632,-0.61743)"
    gradientUnits="userSpaceOnUse">
   <stop
     stop-color="#fa8200"
     offset="0"
     id="stop2" />
   <stop
     stop-color="#ff9600"
     offset=".36953"
     id="stop4" />
   <stop
     stop-color="#ffb400"
     offset="1"
     id="stop6" />
  </linearGradient>
  <filter
    id="filter4014"
    x="-0.062499932"
    y="-0.057692992"
    width="1.1249999"
    height="1.115386"
    color-interpolation-filters="sRGB">
   <feGaussianBlur
     stdDeviation="1.093751"
     id="feGaussianBlur9" />
  </filter>
  <linearGradient
    xlink:href="#linearGradient3487"
    id="linearGradient3403"
    gradientUnits="userSpaceOnUse"
    x1="6.9491749"
    y1="4.5549412"
    x2="11.215498"
    y2="59.052471" />
  <linearGradient
    id="linearGradient3487">
   <stop
     style="stop-color:#32373c;stop-opacity:1"
     offset="0"
     id="stop3481" />
   <stop
     id="stop3483"
     offset="0.36804965"
     style="stop-color:#1a1a1a;stop-opacity:1" />
   <stop
     style="stop-color:#31363b;stop-opacity:1"
     offset="1"
     id="stop3485" />
  </linearGradient>
  <linearGradient
    xlink:href="#linearGradient20604"
    id="linearGradient20558"
    gradientUnits="userSpaceOnUse"
    x1="25.802212"
    y1="20.373846"
    x2="25.111048"
    y2="58.912758" />
  <linearGradient
    id="linearGradient20604">
   <stop
     id="stop20598"
     offset="0"
     style="stop-color:#3d3d3d;stop-opacity:1" />
   <stop
     style="stop-color:#000000;stop-opacity:1"
     offset="0.61772454"
     id="stop20600" />
   <stop
     id="stop20602"
     offset="1"
     style="stop-color:#3d3d3d;stop-opacity:1" />
  </linearGradient>
  <linearGradient
    gradientTransform="translate(0.36067797,-0.13016949)"
    xlink:href="#linearGradient4555"
    id="linearGradient4557"
    x1="43.499737"
    y1="64.011795"
    x2="44.141731"
    y2="0.30621234"
    gradientUnits="userSpaceOnUse" />
  <linearGradient
    id="linearGradient4555">
   <stop
     style="stop-color:#141618;stop-opacity:1"
     offset="0"
     id="stop4551" />
   <stop
     id="stop4559"
     offset="0.51820582"
     style="stop-color:#686868;stop-opacity:1" />
   <stop
     style="stop-color:#31363b;stop-opacity:1"
     offset="1"
     id="stop4553" />
  </linearGradient>
  <filter
    style="color-interpolation-filters:sRGB"
    id="filter4601"
    x="-0.029679536"
    width="1.0593591"
    y="-0.029537925"
    height="1.0590759">
   <feGaussianBlur
     stdDeviation="5.0117204e-05"
     id="feGaussianBlur4603" />
  </filter>
  <linearGradient
    id="a"
    y1="543.79999"
    y2="503.79999"
    x2="0"
    gradientUnits="userSpaceOnUse">
   <stop
     stop-color="#2a2c2f"
     id="stop6895" />
   <stop
     offset="1"
     stop-color="#424649"
     id="stop6897" />
  </linearGradient>
  <linearGradient
    id="b"
    y1="44"
    y2="12"
    x2="0"
    gradientUnits="userSpaceOnUse">
   <stop
     stop-color="#77b76b"
     id="stop6900" />
   <stop
     offset="1"
     stop-color="#58b4b4"
     id="stop6902" />
  </linearGradient>
  <linearGradient
    id="linearGradient904"
    y1="44"
    y2="12"
    x2="0"
    gradientUnits="userSpaceOnUse">
   <stop
     stop-color="#77b76b"
     id="stop900" />
   <stop
     offset="1"
     stop-color="#58b4b4"
     id="stop902" />
  </linearGradient>
  <linearGradient
    y2="21.927999"
    x2="13"
    y1="15"
    x1="9"
    gradientUnits="userSpaceOnUse"
    id="linearGradient6994"
    xlink:href="#e" />
  <linearGradient
    id="e"
    y1="15"
    x1="9"
    y2="21.927999"
    x2="13"
    gradientUnits="userSpaceOnUse">
   <stop
     stop-color="#ffffff"
     id="stop6911" />
   <stop
     offset="1"
     stop-color="#ffffff"
     stop-opacity="0"
     id="stop6913" />
  </linearGradient>
  <linearGradient
    xlink:href="#e"
    id="f"
    y1="23"
    x1="46"
    y2="30"
    gradientUnits="userSpaceOnUse"
    x2="39" />
  <linearGradient
    xlink:href="#h"
    id="i"
    y1="11"
    x1="6"
    y2="27"
    gradientUnits="userSpaceOnUse"
    x2="22"
    gradientTransform="translate(22,10)" />
  <linearGradient
    id="h"
    y1="15"
    x1="10"
    y2="41"
    x2="36"
    gradientUnits="userSpaceOnUse">
   <stop
     stop-color="#292c2f"
     id="stop6918" />
   <stop
     offset="1"
     stop-opacity="0"
     id="stop6920" />
  </linearGradient>
  <linearGradient
    xlink:href="#c"
    id="d"
    y1="21"
    y2="15"
    x2="0"
    gradientUnits="userSpaceOnUse"
    gradientTransform="translate(406.57,509.8)" />
  <linearGradient
    id="c"
    y1="21"
    y2="15"
    x2="0"
    gradientUnits="userSpaceOnUse">
   <stop
     stop-color="#b8ddd2"
     id="stop6905" />
   <stop
     offset="1"
     stop-color="#c4e4dd"
     id="stop6907" />
  </linearGradient>
  <linearGradient
    xlink:href="#e"
    id="g"
    y1="46"
    y2="38"
    gradientUnits="userSpaceOnUse"
    x2="0"
    gradientTransform="translate(384.57,499.8)" />
  <linearGradient
    xlink:href="#e"
    id="linearGradient948"
    y1="46"
    y2="38"
    gradientUnits="userSpaceOnUse"
    x2="0" />
  <linearGradient
    y2="41"
    x2="36"
    y1="15"
    x1="10"
    gradientUnits="userSpaceOnUse"
    id="linearGradient6996"
    xlink:href="#h" />
  <linearGradient
    y2="15"
    x2="0"
    y1="21"
    gradientUnits="userSpaceOnUse"
    id="linearGradient6998"
    xlink:href="#c" />
  <linearGradient
    id="linearGradient968"
    y1="21"
    y2="15"
    x2="0"
    gradientUnits="userSpaceOnUse">
   <stop
     stop-color="#b8ddd2"
     id="stop964" />
   <stop
     offset="1"
     stop-color="#c4e4dd"
     id="stop966" />
  </linearGradient>
 </defs>
 <g
   transform="matrix(0.94143971,0,0,1.0405409,-359.48498,-521.27179)"
   id="g6952">
  <rect
    style="fill:url(#a)"
    width="44"
    x="386.57001"
    y="503.79999"
    height="40"
    id="rect6928" />
  <g
    transform="translate(384.57,499.8)"
    id="g6940">
   <path
     style="opacity:0.11;fill:#1a1a1a;fill-rule:evenodd"
     d="M 14.332,17.936 C 13.909,17.918 13.457,17.937 12.977,17.995 6.787,18.739 7.716,25.472 2,28.546 V 42.001 H 46 V 31.646 C 45.623,31.49 45.232,31.276 44.811,30.921 36.029,21.688 33.38,31.931 26.151,29.075 21.006,26.478 20.684,18.2 14.333,17.936"
     id="path6930" />
   <path
     fill-rule="evenodd"
     id="use6932"
     d="M 24,30 C 19,27 19,17 12,18 6.361,18.806 7.207,26.099 2,29.428 V 44 H 46 V 32.488 C 44.367,32.637 43,34 41,32 33,22 30.586,33.088 24,30"
     style="fill:url(#b)" />
   <path
     fill-rule="evenodd"
     id="use6934"
     d="M 12.637,17.938 C 12.432,17.948 12.219,17.969 12,18.001 6.361,18.807 7.207,26.1 2,29.429 v 1 C 7.207,27.1 6.361,19.807 12,19.001 c 7,-1 7,9 12,12 6.586,3.088 9,-8 17,2 2,2 3.367,0.637 5,0.488 v -1 c -1.633,0.149 -3,1.512 -5,-0.488 -8,-10 -10.414,1.088 -17,-2 -4.844,-2.906 -4.995,-12.382 -11.363,-12.06"
     style="fill:url(#linearGradient6994)" />
   <path
     fill-rule="evenodd"
     id="use6936"
     d="M 12.637,17.938 C 12.432,17.948 12.219,17.969 12,18.001 6.361,18.807 7.207,26.1 2,29.429 v 1 C 7.207,27.1 6.361,19.807 12,19.001 c 7,-1 7,9 12,12 6.586,3.088 9,-8 17,2 2,2 3.367,0.637 5,0.488 v -1 c -1.633,0.149 -3,1.512 -5,-0.488 -8,-10 -10.414,1.088 -17,-2 -4.844,-2.906 -4.995,-12.382 -11.363,-12.06"
     style="fill:url(#f)" />
   <path
     style="opacity:0.2;fill:url(#i);fill-rule:evenodd"
     d="m 34,25 v 1 h -1 v 1 h -1 l 14,14 v -4 l -8,-8 z m 4,0 v 2 h -1 l 9,9 v -3 z m -6,4 v 2 l 13,13 h 1 V 42 L 33,29 Z"
     id="path6938" />
  </g>
  <path
    style="fill:url(#d)"
    d="m 416.57,524.8 v 2 h 1 v -1 h 1 v -1 z m 4,0 v 1 h 1 v 1 h 1 v -2 z m -4,4 v 2 h 2 v -1 h -1 v -1 z m 5,0 v 1 h -1 v 1 h 2 v -2 z"
    id="path6942" />
  <path
    fill-rule="evenodd"
    id="use6944"
    d="m 408.57,529.8 c -5,-3 -5,-13 -12,-12 -5.639,0.806 -4.793,8.099 -10,11.428 V 543.8 h 44 v -11.512 c -1.633,0.149 -3,1.512 -5,-0.488 -8,-10 -10.414,1.088 -17,-2"
    style="opacity:0.3;fill:url(#g)" />
  <path
    style="opacity:0.2;fill:url(#linearGradient6996);fill-rule:evenodd"
    d="m 12,15 v 1 h -1 v 1 h -1 l 27,27 h 4 L 16,19 Z m 4,0 v 2 h -1 l 27,27 h 3 z m -6,4 v 2 l 23,23 h 3 L 11,19 Z"
    transform="translate(384.57,499.8)"
    id="path6946" />
  <path
    style="fill:url(#linearGradient6998)"
    d="m 10,15 v 2 h 1 v -1 h 1 v -1 z m 4,0 v 1 h 1 v 1 h 1 v -2 z m -4,4 v 2 h 2 v -1 h -1 v -1 z m 5,0 v 1 h -1 v 1 h 2 v -2 z"
    transform="translate(384.57,499.8)"
    id="path6948" />
  <rect
    style="fill:#498d48"
    width="44"
    x="386.57001"
    y="542.79999"
    height="1"
    id="rect6950" />
 </g>
 <path
   style="display:inline;mix-blend-mode:normal;fill:url(#linearGradient3403);fill-opacity:1;stroke:url(#linearGradient20558);stroke-width:1.16242;stroke-linecap:butt;stroke-linejoin:round;stroke-miterlimit:4;stroke-dasharray:none;stroke-opacity:1"
   d="M 4.7043071,3.9814882 4.6913695,60.80196 H 58.59546 l 1.022155,-2.866369 c 0,0 -23.87537,0.766388 -32.844441,-4.140386 C 16.257548,48.042344 11.401114,4.0978197 11.401114,4.0978197 Z"
   id="path1686"
   transform="matrix(0.7518797,0,0,0.7518797,0.09970467,0.02488636)" />
 <rect
   style="display:inline;fill:none;fill-opacity:1;stroke:url(#linearGradient4557);stroke-width:3.71366;stroke-linejoin:round;stroke-miterlimit:7.8;stroke-dasharray:none;stroke-opacity:0.995146"
   id="rect4539"
   width="62.566689"
   height="62.866646"
   x="1.0323594"
   y="0.59551275"
   ry="6.2447233"
   rx="5.8029528"
   transform="matrix(0.70434793,0,0,0.70291231,1.3629847,1.5442064)" />
</svg>
