<?xml version="1.0" encoding="UTF-8" standalone="no"?>
<!-- Created with Inkscape (http://www.inkscape.org/) -->

<svg
  width="48"
  height="48"
  version="1.1"
  viewBox="0 0 48 48"
  id="svg22"
  xmlns:xlink="http://www.w3.org/1999/xlink"
  xmlns="http://www.w3.org/2000/svg"
  xmlns:svg="http://www.w3.org/2000/svg">
 <defs
   id="defs12">
  <linearGradient
    id="linearGradient917">
   <stop
     style="stop-color:#1a87f3;stop-opacity:1;"
     offset="0"
     id="stop913" />
   <stop
     style="stop-color:#1fb0f8;stop-opacity:1;"
     offset="1"
     id="stop915" />
  </linearGradient>
  <linearGradient
    id="linearGradient1005-3-3"
    x1="5.2535"
    x2="9.3823996"
    y1="15.383"
    y2="2.9421"
    gradientTransform="matrix(0.99999,0,0,0.99999,1.632,-0.61743)"
    gradientUnits="userSpaceOnUse">
   <stop
     stop-color="#fa8200"
     offset="0"
     id="stop2" />
   <stop
     stop-color="#ff9600"
     offset=".36953"
     id="stop4" />
   <stop
     stop-color="#ffb400"
     offset="1"
     id="stop6" />
  </linearGradient>
  <filter
    id="filter4014"
    x="-0.062499932"
    y="-0.057692992"
    width="1.1249999"
    height="1.115386"
    color-interpolation-filters="sRGB">
   <feGaussianBlur
     stdDeviation="1.093751"
     id="feGaussianBlur9" />
  </filter>
  <linearGradient
    xlink:href="#linearGradient3487"
    id="linearGradient3403"
    gradientUnits="userSpaceOnUse"
    x1="6.9491749"
    y1="4.5549412"
    x2="11.215498"
    y2="59.052471" />
  <linearGradient
    id="linearGradient3487">
   <stop
     style="stop-color:#32373c;stop-opacity:1"
     offset="0"
     id="stop3481" />
   <stop
     id="stop3483"
     offset="0.36804965"
     style="stop-color:#1a1a1a;stop-opacity:1" />
   <stop
     style="stop-color:#31363b;stop-opacity:1"
     offset="1"
     id="stop3485" />
  </linearGradient>
  <linearGradient
    xlink:href="#linearGradient20604"
    id="linearGradient20558"
    gradientUnits="userSpaceOnUse"
    x1="25.802212"
    y1="20.373846"
    x2="25.111048"
    y2="58.912758" />
  <linearGradient
    id="linearGradient20604">
   <stop
     id="stop20598"
     offset="0"
     style="stop-color:#3d3d3d;stop-opacity:1" />
   <stop
     style="stop-color:#000000;stop-opacity:1"
     offset="0.61772454"
     id="stop20600" />
   <stop
     id="stop20602"
     offset="1"
     style="stop-color:#3d3d3d;stop-opacity:1" />
  </linearGradient>
  <filter
    style="color-interpolation-filters:sRGB"
    id="filter20720"
    x="-0.010581673"
    y="-0.010228894"
    width="1.0211629"
    height="1.0204578">
   <feGaussianBlur
     stdDeviation="6.5280376e-07"
     id="feGaussianBlur20722" />
  </filter>
  <linearGradient
    gradientTransform="translate(0.36067797,-0.13016949)"
    xlink:href="#linearGradient4555"
    id="linearGradient4557"
    x1="43.499737"
    y1="64.011795"
    x2="44.141731"
    y2="0.30621234"
    gradientUnits="userSpaceOnUse" />
  <linearGradient
    id="linearGradient4555">
   <stop
     style="stop-color:#141618;stop-opacity:1"
     offset="0"
     id="stop4551" />
   <stop
     id="stop4559"
     offset="0.51820582"
     style="stop-color:#686868;stop-opacity:1" />
   <stop
     style="stop-color:#31363b;stop-opacity:1"
     offset="1"
     id="stop4553" />
  </linearGradient>
  <filter
    style="color-interpolation-filters:sRGB"
    id="filter4601"
    x="-0.02967745"
    width="1.0593549"
    y="-0.029536039"
    height="1.0590721">
   <feGaussianBlur
     stdDeviation="6.9756842e-07"
     id="feGaussianBlur4603" />
  </filter>
  <linearGradient
    xlink:href="#linearGradient917"
    id="linearGradient919"
    x1="7.400631"
    y1="41.743092"
    x2="33.063145"
    y2="7.1074457"
    gradientUnits="userSpaceOnUse" />
  <linearGradient
    id="c"
    y1="523.79999"
    x1="403.57001"
    y2="536.79999"
    x2="416.57001"
    gradientUnits="userSpaceOnUse"
    gradientTransform="translate(-382.3618,-501.38052)">
   <stop
     stop-color="#292c2f"
     id="stop2-1" />
   <stop
     offset="1"
     stop-opacity="0"
     id="stop4-7" />
  </linearGradient>
  <linearGradient
    xlink:href="#b-2"
    id="linearGradient4189"
    x1="14.369"
    y1="22.521999"
    x2="26.521999"
    y2="22.521999"
    gradientUnits="userSpaceOnUse" />
  <linearGradient
    x1="36"
    gradientUnits="userSpaceOnUse"
    x2="14"
    y2="12"
    y1="44"
    id="b-2">
   <stop
     style="stop-color:#bfc9c9;stop-opacity:1"
     stop-color="#536161"
     id="stop13" />
   <stop
     style="stop-color:#fbfbfb;stop-opacity:1"
     stop-color="#f4f5f5"
     offset="1"
     id="stop15" />
  </linearGradient>
  <linearGradient
    xlink:href="#b-2"
    id="linearGradient4428"
    gradientUnits="userSpaceOnUse"
    x1="31.586"
    y1="36.345001"
    x2="1.2029999"
    y2="6.723" />
  <linearGradient
    xlink:href="#a"
    id="b"
    x1="44"
    y1="44"
    x2="4"
    y2="4"
    gradientUnits="userSpaceOnUse" />
  <linearGradient
    id="a">
   <stop
     stop-color="#197cf1"
     id="stop1" />
   <stop
     offset="1"
     stop-color="#20bcfa"
     id="stop2-5" />
  </linearGradient>
 </defs>
 <rect
   style="display:inline;fill:url(#linearGradient919);fill-opacity:1;fill-rule:evenodd;stroke:none;stroke-width:0.92782;stroke-linejoin:round;stroke-miterlimit:7.8"
   id="rect1192"
   width="42.084602"
   height="42.712109"
   x="3.1629105"
   y="3.0184898"
   ry="0" />
 <path
   d="m 19.387,8.28 c -0.466,0 -0.864,0.161 -1.192,0.49 a 1.63,1.63 0 0 0 -0.492,1.19 c 0,0.465 0.164,0.862 0.492,1.188 a 1.626,1.626 0 0 0 1.191,0.496 c 0.466,0 0.86,-0.165 1.188,-0.496 0.328,-0.326 0.496,-0.723 0.496,-1.187 0,-0.32 -0.078,-0.608 -0.234,-0.861 A 1.76,1.76 0 0 0 20.574,8.77 1.613,1.613 0 0 0 19.387,8.28 Z m 4.302,0 c -0.465,0 -0.863,0.161 -1.191,0.49 -0.33,0.33 -0.492,0.727 -0.492,1.19 0,0.465 0.162,0.862 0.492,1.188 a 1.626,1.626 0 0 0 1.191,0.496 c 0.464,0 0.858,-0.165 1.188,-0.496 0.328,-0.326 0.492,-0.723 0.492,-1.187 A 1.635,1.635 0 0 0 24.877,8.77 1.62,1.62 0 0 0 23.689,8.28 Z m 4.303,0 c -0.467,0 -0.863,0.161 -1.193,0.49 a 1.63,1.63 0 0 0 -0.492,1.19 c 0,0.465 0.164,0.862 0.492,1.188 a 1.626,1.626 0 0 0 1.193,0.496 1.61,1.61 0 0 0 1.186,-0.496 A 1.61,1.61 0 0 0 29.672,9.961 1.619,1.619 0 0 0 29.178,8.77 1.612,1.612 0 0 0 27.992,8.28 Z m -12.906,4.534 c -0.466,0 -0.863,0.163 -1.193,0.493 a 1.62,1.62 0 0 0 -0.49,1.19 c 0,0.463 0.161,0.86 0.49,1.189 a 1.63,1.63 0 0 0 1.193,0.494 c 0.464,0 0.86,-0.166 1.187,-0.494 0.33,-0.329 0.497,-0.726 0.497,-1.19 0,-0.32 -0.08,-0.608 -0.239,-0.863 a 1.73,1.73 0 0 0 -0.258,-0.326 1.61,1.61 0 0 0 -1.187,-0.493 z m 17.205,0 c -0.466,0 -0.861,0.163 -1.19,0.493 -0.33,0.328 -0.492,0.725 -0.492,1.19 0,0.463 0.162,0.86 0.493,1.189 a 1.623,1.623 0 0 0 1.19,0.494 c 0.463,0 0.858,-0.166 1.188,-0.494 0.329,-0.329 0.493,-0.726 0.493,-1.19 A 1.63,1.63 0 0 0 33.48,13.306 1.618,1.618 0 0 0 32.291,12.814 Z M 19.387,17.35 c -0.466,0 -0.864,0.162 -1.192,0.492 a 1.622,1.622 0 0 0 -0.492,1.19 c 0,0.465 0.164,0.86 0.492,1.19 0.101,0.102 0.21,0.19 0.326,0.26 0.256,0.155 0.545,0.233 0.866,0.233 0.465,0 0.859,-0.166 1.187,-0.492 a 1.63,1.63 0 0 0 0.496,-1.192 1.617,1.617 0 0 0 -0.496,-1.19 1.608,1.608 0 0 0 -1.187,-0.491 z m 4.302,0 c -0.465,0 -0.863,0.162 -1.191,0.492 -0.33,0.328 -0.492,0.726 -0.492,1.19 0,0.465 0.162,0.86 0.492,1.19 0.101,0.102 0.21,0.19 0.326,0.26 0.256,0.155 0.545,0.233 0.865,0.233 0.464,0 0.858,-0.166 1.188,-0.492 0.328,-0.33 0.492,-0.726 0.492,-1.192 a 1.635,1.635 0 0 0 -0.492,-1.19 1.614,1.614 0 0 0 -1.188,-0.491 z m 4.303,0 a 1.62,1.62 0 0 0 -1.193,0.492 1.622,1.622 0 0 0 -0.492,1.19 c 0,0.465 0.164,0.86 0.492,1.19 a 1.642,1.642 0 0 0 1.193,0.492 c 0.464,0 0.858,-0.165 1.186,-0.491 0.33,-0.33 0.494,-0.726 0.494,-1.192 a 1.619,1.619 0 0 0 -0.494,-1.19 1.606,1.606 0 0 0 -1.186,-0.491 z m -4.303,4.535 c -0.465,0 -0.863,0.164 -1.191,0.492 -0.33,0.328 -0.492,0.726 -0.492,1.19 0,0.465 0.162,0.863 0.492,1.19 a 1.626,1.626 0 0 0 1.191,0.494 1.63,1.63 0 0 0 1.188,-0.493 c 0.328,-0.328 0.492,-0.726 0.492,-1.192 a 1.628,1.628 0 0 0 -0.492,-1.189 1.621,1.621 0 0 0 -1.188,-0.492 z m 0,4.535 c -0.465,0 -0.863,0.166 -1.191,0.492 a 1.62,1.62 0 0 0 -0.492,1.192 c 0,0.463 0.162,0.86 0.492,1.189 a 1.626,1.626 0 0 0 1.191,0.494 c 0.464,0 0.858,-0.166 1.188,-0.494 0.328,-0.328 0.492,-0.726 0.492,-1.19 a 1.635,1.635 0 0 0 -0.492,-1.19 1.628,1.628 0 0 0 -1.188,-0.493 z m 0,4.537 a 1.63,1.63 0 0 0 -1.191,0.49 1.62,1.62 0 0 0 -0.492,1.192 c 0,0.463 0.162,0.861 0.492,1.19 a 1.626,1.626 0 0 0 1.191,0.494 c 0.464,0 0.858,-0.167 1.188,-0.495 0.328,-0.328 0.492,-0.726 0.492,-1.19 a 1.635,1.635 0 0 0 -0.492,-1.19 1.627,1.627 0 0 0 -1.188,-0.491 z m -4.302,4.535 a 1.63,1.63 0 0 0 -1.192,0.49 1.63,1.63 0 0 0 -0.492,1.192 c 0,0.463 0.164,0.861 0.492,1.19 a 1.626,1.626 0 0 0 1.191,0.494 c 0.466,0 0.86,-0.167 1.188,-0.495 0.328,-0.328 0.496,-0.726 0.496,-1.19 a 1.628,1.628 0 0 0 -0.496,-1.19 1.62,1.62 0 0 0 -1.187,-0.49 z m 4.302,0 a 1.63,1.63 0 0 0 -1.191,0.49 c -0.33,0.33 -0.492,0.728 -0.492,1.192 0,0.463 0.162,0.861 0.492,1.19 a 1.626,1.626 0 0 0 1.191,0.494 c 0.464,0 0.858,-0.167 1.188,-0.495 0.328,-0.328 0.492,-0.726 0.492,-1.19 a 1.635,1.635 0 0 0 -0.492,-1.19 1.627,1.627 0 0 0 -1.188,-0.49 z"
   fill="#ffffff"
   id="path3"
   transform="matrix(1.1895434,0,0,1.1895434,-0.59663999,-5.3464108)" />
 <path
   d="m 25.137,9.098 c 0.154,0.255 0.232,0.542 0.232,0.863 0,0.464 -0.164,0.861 -0.492,1.187 -0.33,0.33 -0.724,0.497 -1.188,0.497 -0.32,0 -0.61,-0.078 -0.865,-0.235 0.07,0.115 0.157,0.223 0.258,0.324 0.328,0.329 0.726,0.496 1.191,0.496 0.466,0 0.86,-0.167 1.188,-0.496 0.328,-0.326 0.494,-0.724 0.494,-1.19 0,-0.463 -0.166,-0.86 -0.494,-1.189 A 1.781,1.781 0 0 0 25.137,9.098 Z m 4.3,0 c 0.157,0.255 0.235,0.542 0.235,0.863 0,0.464 -0.164,0.861 -0.494,1.187 a 1.61,1.61 0 0 1 -1.186,0.497 c -0.32,0 -0.61,-0.078 -0.865,-0.235 0.07,0.115 0.157,0.223 0.258,0.324 0.328,0.329 0.726,0.496 1.191,0.496 0.464,0 0.858,-0.167 1.188,-0.496 0.328,-0.328 0.492,-0.725 0.492,-1.19 0,-0.463 -0.164,-0.86 -0.492,-1.189 A 1.73,1.73 0 0 0 29.437,9.098 Z M 20.836,9.1 c 0.156,0.253 0.234,0.54 0.234,0.86 0,0.465 -0.168,0.862 -0.496,1.188 -0.328,0.33 -0.722,0.497 -1.187,0.497 -0.32,0 -0.61,-0.078 -0.866,-0.235 0.071,0.115 0.157,0.223 0.258,0.324 0.33,0.329 0.728,0.496 1.194,0.496 0.463,0 0.857,-0.167 1.185,-0.496 0.33,-0.326 0.496,-0.724 0.496,-1.19 0,-0.463 -0.166,-0.86 -0.496,-1.189 A 1.68,1.68 0 0 0 20.836,9.1 Z m 8.6,4.53 c 0.158,0.258 0.236,0.546 0.236,0.866 0,0.464 -0.164,0.861 -0.494,1.19 a 1.615,1.615 0 0 1 -1.186,0.494 c -0.32,0 -0.61,-0.078 -0.863,-0.233 0.069,0.113 0.155,0.221 0.256,0.323 0.328,0.33 0.726,0.496 1.191,0.496 0.464,0 0.858,-0.166 1.188,-0.496 0.328,-0.327 0.492,-0.724 0.492,-1.188 0,-0.466 -0.164,-0.861 -0.492,-1.191 a 1.737,1.737 0 0 0 -0.328,-0.26 z m 4.302,0 c 0.157,0.258 0.235,0.546 0.235,0.866 0,0.464 -0.164,0.861 -0.493,1.19 -0.33,0.328 -0.725,0.494 -1.189,0.494 -0.32,0 -0.608,-0.078 -0.861,-0.233 0.07,0.113 0.154,0.221 0.256,0.323 0.33,0.33 0.723,0.496 1.191,0.496 0.464,0 0.86,-0.166 1.187,-0.496 a 1.61,1.61 0 0 0 0.495,-1.188 c 0,-0.466 -0.164,-0.861 -0.495,-1.191 a 1.668,1.668 0 0 0 -0.326,-0.26 z m -17.207,0.003 c 0.159,0.256 0.239,0.543 0.239,0.863 0,0.464 -0.166,0.861 -0.497,1.19 a 1.62,1.62 0 0 1 -1.187,0.494 c -0.32,0 -0.61,-0.078 -0.863,-0.233 0.068,0.113 0.154,0.221 0.256,0.323 0.328,0.33 0.725,0.496 1.19,0.496 0.466,0 0.858,-0.166 1.188,-0.496 0.329,-0.327 0.497,-0.724 0.497,-1.188 a 1.63,1.63 0 0 0 -0.497,-1.191 1.73,1.73 0 0 0 -0.326,-0.258 z m 4.303,0 c 0.158,0.256 0.236,0.543 0.236,0.863 0,0.464 -0.168,0.861 -0.496,1.19 a 1.617,1.617 0 0 1 -1.187,0.494 c -0.319,0 -0.608,-0.078 -0.864,-0.235 0.07,0.115 0.155,0.223 0.256,0.325 0.33,0.33 0.728,0.496 1.194,0.496 a 1.61,1.61 0 0 0 1.185,-0.496 c 0.33,-0.327 0.496,-0.724 0.496,-1.188 0,-0.465 -0.166,-0.861 -0.496,-1.191 a 1.782,1.782 0 0 0 -0.324,-0.258 z m 4.3,0 c 0.157,0.256 0.235,0.543 0.235,0.863 0,0.464 -0.164,0.861 -0.492,1.19 -0.33,0.328 -0.724,0.494 -1.188,0.494 -0.32,0 -0.61,-0.078 -0.865,-0.235 0.07,0.115 0.157,0.223 0.258,0.325 0.328,0.33 0.726,0.496 1.191,0.496 0.466,0 0.86,-0.166 1.188,-0.496 0.328,-0.327 0.494,-0.724 0.494,-1.188 0,-0.465 -0.166,-0.861 -0.494,-1.191 a 1.73,1.73 0 0 0 -0.326,-0.258 z m -12.902,4.535 c 0.157,0.256 0.235,0.543 0.235,0.863 0,0.466 -0.166,0.862 -0.494,1.192 a 1.63,1.63 0 0 1 -1.19,0.492 c -0.32,0 -0.607,-0.078 -0.861,-0.233 0.069,0.115 0.153,0.224 0.254,0.325 0.33,0.328 0.728,0.494 1.193,0.494 0.464,0 0.86,-0.166 1.188,-0.494 0.33,-0.328 0.496,-0.726 0.496,-1.19 0,-0.465 -0.166,-0.861 -0.496,-1.191 a 1.781,1.781 0 0 0 -0.325,-0.258 z m 4.301,0 c 0.157,0.256 0.237,0.543 0.237,0.863 0,0.466 -0.166,0.862 -0.497,1.192 a 1.625,1.625 0 0 1 -1.187,0.492 c -0.32,0 -0.61,-0.078 -0.865,-0.233 0.07,0.115 0.156,0.224 0.258,0.325 0.328,0.328 0.725,0.494 1.19,0.494 a 1.62,1.62 0 0 0 1.188,-0.494 c 0.329,-0.328 0.497,-0.726 0.497,-1.19 a 1.63,1.63 0 0 0 -0.497,-1.191 1.782,1.782 0 0 0 -0.324,-0.258 z m 8.604,0 c 0.154,0.256 0.232,0.543 0.232,0.863 0,0.466 -0.164,0.862 -0.492,1.192 -0.33,0.326 -0.724,0.492 -1.188,0.492 -0.32,0 -0.61,-0.078 -0.865,-0.233 0.07,0.115 0.157,0.224 0.258,0.325 0.328,0.328 0.726,0.494 1.191,0.494 0.466,0 0.86,-0.166 1.188,-0.494 0.328,-0.328 0.494,-0.726 0.494,-1.19 0,-0.465 -0.166,-0.861 -0.494,-1.191 a 1.782,1.782 0 0 0 -0.324,-0.258 z m 4.3,0 c 0.157,0.256 0.235,0.543 0.235,0.863 0,0.466 -0.164,0.862 -0.494,1.192 a 1.621,1.621 0 0 1 -1.186,0.492 c -0.32,0 -0.61,-0.078 -0.865,-0.233 0.07,0.115 0.157,0.224 0.258,0.325 0.328,0.328 0.726,0.494 1.191,0.494 0.464,0 0.858,-0.166 1.188,-0.494 0.328,-0.328 0.492,-0.726 0.492,-1.19 0,-0.465 -0.164,-0.861 -0.492,-1.191 a 1.73,1.73 0 0 0 -0.327,-0.258 z m 4.301,0 c 0.157,0.256 0.235,0.543 0.235,0.863 0,0.466 -0.164,0.862 -0.493,1.192 -0.33,0.326 -0.725,0.492 -1.189,0.492 -0.32,0 -0.608,-0.078 -0.861,-0.233 0.068,0.115 0.154,0.224 0.256,0.325 0.33,0.328 0.723,0.494 1.191,0.494 0.464,0 0.86,-0.166 1.187,-0.494 0.33,-0.328 0.495,-0.726 0.495,-1.19 0,-0.465 -0.164,-0.861 -0.495,-1.191 a 1.73,1.73 0 0 0 -0.326,-0.258 z m 4.303,0 c 0.156,0.256 0.234,0.543 0.234,0.863 0,0.466 -0.164,0.862 -0.494,1.192 a 1.625,1.625 0 0 1 -1.187,0.492 c -0.32,0 -0.608,-0.078 -0.864,-0.233 0.071,0.115 0.157,0.224 0.258,0.325 0.328,0.328 0.724,0.494 1.19,0.494 0.463,0 0.86,-0.166 1.19,-0.494 0.327,-0.328 0.491,-0.726 0.491,-1.19 0,-0.465 -0.164,-0.861 -0.492,-1.191 A 1.73,1.73 0 0 0 38.041,18.168 Z M 20.836,18.17 c 0.156,0.256 0.234,0.543 0.234,0.861 0,0.466 -0.168,0.862 -0.496,1.192 a 1.622,1.622 0 0 1 -1.187,0.492 c -0.32,0 -0.61,-0.078 -0.866,-0.232 0.071,0.114 0.157,0.223 0.258,0.324 0.33,0.328 0.728,0.494 1.194,0.494 0.463,0 0.857,-0.166 1.185,-0.494 0.33,-0.328 0.496,-0.726 0.496,-1.19 0,-0.465 -0.166,-0.861 -0.496,-1.191 A 1.758,1.758 0 0 0 20.836,18.17 Z m -8.604,4.533 c 0.157,0.258 0.235,0.545 0.235,0.863 0,0.466 -0.166,0.864 -0.494,1.192 -0.33,0.326 -0.724,0.494 -1.19,0.494 -0.32,0 -0.607,-0.078 -0.861,-0.232 0.07,0.112 0.153,0.22 0.254,0.322 0.33,0.328 0.728,0.494 1.193,0.494 0.464,0 0.86,-0.166 1.188,-0.494 0.33,-0.328 0.496,-0.726 0.496,-1.19 0,-0.463 -0.166,-0.86 -0.496,-1.191 a 1.781,1.781 0 0 0 -0.325,-0.258 z m 4.3,0 c 0.158,0.258 0.238,0.545 0.238,0.863 0,0.466 -0.166,0.864 -0.497,1.192 a 1.627,1.627 0 0 1 -1.187,0.494 c -0.32,0 -0.61,-0.078 -0.863,-0.232 0.068,0.112 0.154,0.22 0.256,0.322 0.328,0.328 0.725,0.494 1.19,0.494 a 1.62,1.62 0 0 0 1.188,-0.494 c 0.329,-0.328 0.497,-0.726 0.497,-1.19 0,-0.463 -0.168,-0.86 -0.497,-1.191 a 1.73,1.73 0 0 0 -0.326,-0.258 z m 8.603,0 c 0.156,0.258 0.234,0.545 0.234,0.863 0,0.466 -0.164,0.864 -0.492,1.192 a 1.63,1.63 0 0 1 -1.188,0.494 c -0.32,0 -0.61,-0.078 -0.865,-0.234 0.07,0.114 0.157,0.223 0.258,0.324 0.328,0.328 0.726,0.494 1.191,0.494 0.466,0 0.86,-0.166 1.188,-0.494 0.328,-0.328 0.494,-0.726 0.494,-1.19 0,-0.463 -0.166,-0.86 -0.494,-1.191 a 1.73,1.73 0 0 0 -0.326,-0.258 z m 4.3,0 c 0.159,0.256 0.237,0.543 0.237,0.863 0,0.466 -0.164,0.864 -0.494,1.192 a 1.623,1.623 0 0 1 -1.186,0.494 c -0.32,0 -0.61,-0.078 -0.863,-0.232 0.069,0.112 0.155,0.22 0.256,0.322 0.328,0.328 0.726,0.494 1.191,0.494 0.464,0 0.858,-0.166 1.188,-0.494 0.328,-0.328 0.492,-0.726 0.492,-1.19 a 1.63,1.63 0 0 0 -0.492,-1.191 1.805,1.805 0 0 0 -0.328,-0.258 z m 4.303,0 c 0.157,0.256 0.235,0.543 0.235,0.863 0,0.466 -0.164,0.864 -0.493,1.192 -0.33,0.326 -0.725,0.494 -1.189,0.494 -0.32,0 -0.608,-0.078 -0.861,-0.232 0.07,0.112 0.154,0.22 0.256,0.322 0.33,0.328 0.723,0.494 1.191,0.494 0.464,0 0.86,-0.166 1.187,-0.494 0.33,-0.328 0.495,-0.726 0.495,-1.19 0,-0.463 -0.164,-0.86 -0.495,-1.191 a 1.73,1.73 0 0 0 -0.326,-0.258 z m 4.301,0 c 0.158,0.256 0.236,0.543 0.236,0.863 0,0.466 -0.164,0.864 -0.494,1.192 a 1.627,1.627 0 0 1 -1.187,0.494 c -0.32,0 -0.608,-0.078 -0.862,-0.232 0.07,0.112 0.155,0.22 0.256,0.322 0.328,0.328 0.724,0.494 1.19,0.494 0.463,0 0.86,-0.166 1.19,-0.494 0.327,-0.328 0.491,-0.726 0.491,-1.19 a 1.63,1.63 0 0 0 -0.492,-1.191 1.805,1.805 0 0 0 -0.328,-0.258 z m -17.203,0.002 c 0.156,0.256 0.234,0.543 0.234,0.862 0,0.465 -0.168,0.863 -0.496,1.191 a 1.624,1.624 0 0 1 -1.187,0.494 c -0.319,0 -0.608,-0.078 -0.864,-0.234 0.071,0.114 0.155,0.223 0.256,0.324 0.33,0.328 0.728,0.494 1.194,0.494 0.463,0 0.857,-0.166 1.185,-0.494 0.33,-0.328 0.496,-0.726 0.496,-1.19 0,-0.463 -0.166,-0.86 -0.496,-1.19 a 1.74,1.74 0 0 0 -0.322,-0.257 z m 8.601,4.533 c 0.157,0.258 0.235,0.545 0.235,0.866 0,0.463 -0.164,0.86 -0.494,1.19 a 1.615,1.615 0 0 1 -1.186,0.493 c -0.32,0 -0.61,-0.078 -0.865,-0.232 0.07,0.114 0.157,0.223 0.258,0.324 0.328,0.326 0.726,0.492 1.191,0.492 0.464,0 0.858,-0.166 1.188,-0.492 a 1.63,1.63 0 0 0 0.492,-1.191 c 0,-0.464 -0.164,-0.862 -0.492,-1.19 a 1.788,1.788 0 0 0 -0.327,-0.26 z m 4.301,0 c 0.157,0.258 0.235,0.545 0.235,0.866 0,0.463 -0.164,0.86 -0.493,1.19 -0.33,0.327 -0.725,0.493 -1.189,0.493 -0.32,0 -0.608,-0.078 -0.861,-0.232 0.068,0.114 0.154,0.223 0.256,0.324 0.33,0.326 0.723,0.492 1.191,0.492 0.464,0 0.86,-0.166 1.187,-0.492 0.33,-0.33 0.495,-0.728 0.495,-1.191 0,-0.464 -0.164,-0.862 -0.495,-1.19 a 1.668,1.668 0 0 0 -0.326,-0.26 z m 4.303,0 c 0.156,0.258 0.234,0.545 0.234,0.866 0,0.463 -0.164,0.86 -0.494,1.19 a 1.62,1.62 0 0 1 -1.187,0.493 c -0.32,0 -0.608,-0.078 -0.864,-0.232 0.071,0.114 0.157,0.223 0.258,0.324 0.328,0.326 0.724,0.492 1.19,0.492 0.463,0 0.86,-0.166 1.19,-0.492 a 1.63,1.63 0 0 0 0.491,-1.191 c 0,-0.464 -0.164,-0.862 -0.492,-1.19 a 1.788,1.788 0 0 0 -0.326,-0.26 z M 12.232,27.24 c 0.157,0.256 0.235,0.543 0.235,0.864 0,0.463 -0.166,0.861 -0.494,1.19 -0.33,0.327 -0.724,0.493 -1.19,0.493 -0.32,0 -0.607,-0.078 -0.861,-0.232 0.069,0.114 0.153,0.223 0.254,0.324 0.33,0.326 0.728,0.492 1.193,0.492 0.464,0 0.86,-0.166 1.188,-0.492 0.33,-0.33 0.496,-0.728 0.496,-1.191 0,-0.464 -0.166,-0.862 -0.496,-1.19 A 1.781,1.781 0 0 0 12.232,27.24 Z m 4.301,0 c 0.157,0.256 0.237,0.543 0.237,0.864 0,0.463 -0.166,0.861 -0.497,1.19 a 1.62,1.62 0 0 1 -1.187,0.493 c -0.32,0 -0.61,-0.078 -0.865,-0.232 0.07,0.114 0.156,0.223 0.258,0.324 0.328,0.326 0.725,0.492 1.19,0.492 0.466,0 0.858,-0.166 1.188,-0.492 0.329,-0.33 0.497,-0.728 0.497,-1.191 0,-0.464 -0.168,-0.862 -0.497,-1.19 A 1.781,1.781 0 0 0 16.533,27.24 Z m 4.303,0 c 0.156,0.258 0.234,0.545 0.234,0.864 0,0.463 -0.168,0.861 -0.496,1.19 a 1.617,1.617 0 0 1 -1.187,0.493 c -0.32,0 -0.61,-0.078 -0.866,-0.234 0.071,0.116 0.157,0.225 0.258,0.326 0.33,0.326 0.728,0.492 1.194,0.492 0.463,0 0.857,-0.166 1.185,-0.492 0.33,-0.33 0.496,-0.728 0.496,-1.191 0,-0.464 -0.166,-0.862 -0.496,-1.19 A 1.77,1.77 0 0 0 20.836,27.24 Z m 4.3,0 c 0.155,0.256 0.233,0.543 0.233,0.864 0,0.463 -0.164,0.861 -0.492,1.19 -0.33,0.327 -0.724,0.493 -1.188,0.493 -0.32,0 -0.61,-0.078 -0.865,-0.234 0.07,0.116 0.157,0.225 0.258,0.326 0.328,0.326 0.726,0.492 1.191,0.492 0.466,0 0.86,-0.166 1.188,-0.492 0.328,-0.33 0.494,-0.728 0.494,-1.191 0,-0.464 -0.166,-0.862 -0.494,-1.19 A 1.781,1.781 0 0 0 25.137,27.24 Z m 4.301,4.534 c 0.157,0.257 0.235,0.544 0.235,0.865 0,0.463 -0.164,0.861 -0.494,1.19 a 1.615,1.615 0 0 1 -1.186,0.493 c -0.32,0 -0.61,-0.077 -0.865,-0.232 0.07,0.115 0.157,0.223 0.258,0.324 0.328,0.327 0.726,0.492 1.191,0.492 0.464,0 0.858,-0.165 1.188,-0.492 0.328,-0.33 0.492,-0.726 0.492,-1.191 0,-0.464 -0.164,-0.861 -0.492,-1.19 a 1.788,1.788 0 0 0 -0.327,-0.26 z m 4.301,0 c 0.157,0.257 0.235,0.544 0.235,0.865 0,0.463 -0.164,0.861 -0.493,1.19 -0.33,0.327 -0.725,0.493 -1.189,0.493 -0.32,0 -0.608,-0.077 -0.861,-0.232 0.068,0.115 0.154,0.223 0.256,0.324 0.33,0.327 0.723,0.492 1.191,0.492 0.464,0 0.86,-0.165 1.187,-0.492 0.33,-0.33 0.495,-0.726 0.495,-1.191 0,-0.464 -0.164,-0.861 -0.495,-1.19 a 1.668,1.668 0 0 0 -0.326,-0.26 z m -17.205,0.002 c 0.157,0.255 0.237,0.542 0.237,0.863 0,0.464 -0.166,0.861 -0.497,1.19 a 1.62,1.62 0 0 1 -1.187,0.493 c -0.32,0 -0.61,-0.077 -0.865,-0.232 0.07,0.115 0.156,0.223 0.258,0.324 0.328,0.327 0.725,0.492 1.19,0.492 0.466,0 0.858,-0.165 1.188,-0.492 a 1.63,1.63 0 0 0 0.497,-1.191 c 0,-0.464 -0.168,-0.861 -0.497,-1.19 a 1.781,1.781 0 0 0 -0.324,-0.257 z m 4.303,0 c 0.156,0.257 0.234,0.544 0.234,0.863 0,0.464 -0.168,0.861 -0.496,1.19 a 1.617,1.617 0 0 1 -1.187,0.493 c -0.32,0 -0.61,-0.077 -0.866,-0.234 0.071,0.117 0.157,0.225 0.258,0.326 0.33,0.327 0.728,0.492 1.194,0.492 0.463,0 0.857,-0.165 1.185,-0.492 0.33,-0.33 0.496,-0.726 0.496,-1.191 0,-0.464 -0.166,-0.861 -0.496,-1.19 a 1.77,1.77 0 0 0 -0.322,-0.257 z m 4.3,0 c 0.155,0.255 0.233,0.542 0.233,0.863 0,0.464 -0.164,0.861 -0.492,1.19 -0.33,0.328 -0.724,0.493 -1.188,0.493 -0.32,0 -0.61,-0.077 -0.865,-0.234 0.07,0.117 0.157,0.225 0.258,0.326 0.328,0.327 0.726,0.492 1.191,0.492 0.466,0 0.86,-0.165 1.188,-0.492 0.328,-0.33 0.494,-0.726 0.494,-1.191 0,-0.464 -0.166,-0.861 -0.494,-1.19 a 1.781,1.781 0 0 0 -0.324,-0.257 z m 4.301,4.533 c 0.157,0.257 0.235,0.545 0.235,0.865 0,0.464 -0.164,0.861 -0.494,1.19 a 1.615,1.615 0 0 1 -1.186,0.494 c -0.32,0 -0.61,-0.078 -0.865,-0.233 0.07,0.115 0.157,0.223 0.258,0.324 0.328,0.327 0.726,0.495 1.191,0.495 a 1.63,1.63 0 0 0 1.188,-0.495 c 0.328,-0.328 0.492,-0.725 0.492,-1.191 0,-0.464 -0.164,-0.861 -0.492,-1.19 a 1.788,1.788 0 0 0 -0.327,-0.26 z m -8.601,0.002 c 0.156,0.257 0.234,0.544 0.234,0.863 0,0.464 -0.168,0.861 -0.496,1.19 a 1.617,1.617 0 0 1 -1.187,0.494 c -0.32,0 -0.61,-0.078 -0.866,-0.235 0.071,0.117 0.157,0.225 0.258,0.326 0.33,0.327 0.728,0.495 1.194,0.495 0.463,0 0.857,-0.168 1.185,-0.495 a 1.62,1.62 0 0 0 0.496,-1.19 c 0,-0.465 -0.166,-0.862 -0.496,-1.19 a 1.77,1.77 0 0 0 -0.322,-0.258 z m 4.3,0 c 0.155,0.255 0.233,0.543 0.233,0.863 0,0.464 -0.164,0.861 -0.492,1.19 -0.33,0.328 -0.724,0.494 -1.188,0.494 -0.32,0 -0.61,-0.078 -0.865,-0.235 0.07,0.117 0.157,0.225 0.258,0.326 0.328,0.327 0.726,0.495 1.191,0.495 0.466,0 0.86,-0.168 1.188,-0.495 0.328,-0.328 0.494,-0.725 0.494,-1.19 0,-0.465 -0.166,-0.862 -0.494,-1.19 a 1.782,1.782 0 0 0 -0.324,-0.258 z"
   fill-opacity="0.2"
   id="path4"
   transform="matrix(1.1895434,0,0,1.1895434,-0.59663999,-5.3464108)" />
 <path
   d="m 19.387,12.814 c -0.466,0 -0.864,0.163 -1.192,0.493 a 1.622,1.622 0 0 0 -0.492,1.19 c 0,0.463 0.164,0.86 0.492,1.189 a 1.624,1.624 0 0 0 1.191,0.494 c 0.466,0 0.86,-0.166 1.188,-0.494 0.328,-0.329 0.496,-0.726 0.496,-1.19 0,-0.32 -0.078,-0.608 -0.236,-0.863 a 1.668,1.668 0 0 0 -0.26,-0.326 1.608,1.608 0 0 0 -1.187,-0.493 z m 4.302,0 c -0.465,0 -0.863,0.163 -1.191,0.493 -0.33,0.328 -0.492,0.725 -0.492,1.19 0,0.463 0.162,0.86 0.492,1.189 a 1.626,1.626 0 0 0 1.191,0.494 c 0.464,0 0.858,-0.166 1.188,-0.494 0.328,-0.329 0.492,-0.726 0.492,-1.19 a 1.619,1.619 0 0 0 -0.492,-1.19 1.614,1.614 0 0 0 -1.188,-0.492 z m 4.303,0 a 1.62,1.62 0 0 0 -1.193,0.493 1.622,1.622 0 0 0 -0.492,1.19 c 0,0.463 0.164,0.86 0.492,1.189 a 1.63,1.63 0 0 0 1.193,0.494 c 0.464,0 0.858,-0.166 1.186,-0.494 0.33,-0.329 0.494,-0.726 0.494,-1.19 a 1.615,1.615 0 0 0 -0.494,-1.19 1.606,1.606 0 0 0 -1.186,-0.492 z M 10.783,17.35 c -0.465,0 -0.861,0.162 -1.19,0.492 -0.33,0.328 -0.493,0.726 -0.493,1.19 0,0.465 0.164,0.86 0.494,1.19 a 1.623,1.623 0 0 0 1.19,0.492 c 0.465,0 0.859,-0.165 1.189,-0.491 0.328,-0.33 0.494,-0.726 0.494,-1.192 a 1.619,1.619 0 0 0 -0.494,-1.19 1.615,1.615 0 0 0 -1.19,-0.491 z m 4.303,0 c -0.466,0 -0.863,0.162 -1.193,0.492 a 1.62,1.62 0 0 0 -0.49,1.19 c 0,0.465 0.161,0.86 0.49,1.19 a 1.642,1.642 0 0 0 1.193,0.492 c 0.464,0 0.86,-0.165 1.187,-0.491 0.33,-0.33 0.497,-0.726 0.497,-1.192 a 1.62,1.62 0 0 0 -0.497,-1.19 1.61,1.61 0 0 0 -1.187,-0.491 z m 17.205,0 c -0.466,0 -0.861,0.162 -1.19,0.492 -0.33,0.328 -0.492,0.726 -0.492,1.19 0,0.465 0.162,0.86 0.493,1.19 a 1.623,1.623 0 0 0 1.19,0.492 c 0.463,0 0.858,-0.165 1.188,-0.491 0.329,-0.33 0.493,-0.726 0.493,-1.192 A 1.619,1.619 0 0 0 33.48,17.841 1.618,1.618 0 0 0 32.291,17.35 Z m 4.303,0 c -0.468,0 -0.862,0.162 -1.192,0.492 a 1.62,1.62 0 0 0 -0.49,1.19 c 0,0.465 0.162,0.86 0.49,1.19 a 1.635,1.635 0 0 0 1.191,0.492 c 0.464,0 0.86,-0.165 1.188,-0.491 0.33,-0.33 0.494,-0.726 0.494,-1.192 a 1.619,1.619 0 0 0 -0.494,-1.19 1.61,1.61 0 0 0 -1.187,-0.491 z m -25.81,4.535 a 1.62,1.62 0 0 0 -1.19,0.492 c -0.33,0.328 -0.494,0.726 -0.494,1.19 0,0.465 0.164,0.863 0.494,1.19 a 1.623,1.623 0 0 0 1.19,0.494 c 0.465,10e-4 0.859,-0.167 1.189,-0.493 0.328,-0.328 0.494,-0.726 0.494,-1.192 a 1.628,1.628 0 0 0 -0.494,-1.189 1.622,1.622 0 0 0 -1.19,-0.492 z m 4.302,0 c -0.466,0 -0.863,0.164 -1.193,0.492 a 1.62,1.62 0 0 0 -0.49,1.19 c 0,0.465 0.161,0.863 0.49,1.19 a 1.63,1.63 0 0 0 1.193,0.494 c 0.464,10e-4 0.86,-0.167 1.187,-0.493 a 1.62,1.62 0 0 0 0.497,-1.192 c 0,-0.318 -0.08,-0.605 -0.239,-0.863 a 1.73,1.73 0 0 0 -0.258,-0.326 1.618,1.618 0 0 0 -1.187,-0.492 z m 4.3,0 c -0.465,0 -0.863,0.164 -1.19,0.492 a 1.622,1.622 0 0 0 -0.493,1.19 c 0,0.465 0.164,0.863 0.492,1.19 a 1.624,1.624 0 0 0 1.191,0.494 c 0.466,10e-4 0.86,-0.167 1.188,-0.493 0.328,-0.328 0.496,-0.726 0.496,-1.192 a 1.617,1.617 0 0 0 -0.496,-1.189 1.615,1.615 0 0 0 -1.187,-0.492 z m 8.606,0 c -0.467,0 -0.863,0.164 -1.193,0.492 a 1.622,1.622 0 0 0 -0.492,1.19 c 0,0.465 0.164,0.863 0.492,1.19 a 1.63,1.63 0 0 0 1.193,0.494 c 0.464,10e-4 0.858,-0.167 1.186,-0.493 0.33,-0.328 0.494,-0.726 0.494,-1.192 0,-0.32 -0.078,-0.607 -0.236,-0.863 a 1.73,1.73 0 0 0 -0.258,-0.326 1.614,1.614 0 0 0 -1.186,-0.492 z m 4.299,0 a 1.62,1.62 0 0 0 -1.19,0.492 c -0.33,0.328 -0.492,0.726 -0.492,1.19 0,0.465 0.162,0.863 0.493,1.19 a 1.623,1.623 0 0 0 1.19,0.494 c 0.463,10e-4 0.858,-0.167 1.188,-0.493 0.329,-0.328 0.493,-0.726 0.493,-1.192 A 1.619,1.619 0 0 0 33.48,22.377 1.625,1.625 0 0 0 32.291,21.885 Z m 4.303,0 c -0.468,0 -0.862,0.164 -1.192,0.492 a 1.62,1.62 0 0 0 -0.49,1.19 c 0,0.465 0.162,0.863 0.49,1.19 a 1.623,1.623 0 0 0 1.191,0.494 c 0.464,10e-4 0.86,-0.167 1.188,-0.493 0.33,-0.328 0.494,-0.726 0.494,-1.192 0,-0.32 -0.078,-0.607 -0.236,-0.863 a 1.73,1.73 0 0 0 -0.258,-0.326 1.618,1.618 0 0 0 -1.187,-0.492 z m -25.81,4.535 c -0.466,0 -0.862,0.166 -1.19,0.492 -0.33,0.33 -0.494,0.726 -0.494,1.192 0,0.463 0.164,0.86 0.494,1.189 a 1.623,1.623 0 0 0 1.19,0.494 c 0.465,0 0.859,-0.166 1.189,-0.494 0.328,-0.328 0.494,-0.726 0.494,-1.19 a 1.619,1.619 0 0 0 -0.494,-1.19 1.63,1.63 0 0 0 -1.19,-0.493 z m 4.302,0 c -0.466,0 -0.863,0.166 -1.193,0.492 -0.329,0.33 -0.49,0.726 -0.49,1.192 0,0.463 0.161,0.86 0.49,1.189 0.103,0.103 0.211,0.191 0.328,0.262 0.255,0.154 0.544,0.232 0.865,0.232 0.464,0 0.86,-0.166 1.187,-0.494 0.33,-0.328 0.497,-0.726 0.497,-1.19 0,-0.32 -0.08,-0.607 -0.237,-0.863 a 1.737,1.737 0 0 0 -0.26,-0.328 1.625,1.625 0 0 0 -1.187,-0.492 z m 4.3,0 c -0.465,0 -0.863,0.166 -1.19,0.492 -0.329,0.33 -0.493,0.726 -0.493,1.192 0,0.463 0.164,0.86 0.492,1.189 a 1.626,1.626 0 0 0 1.191,0.494 c 0.466,0 0.86,-0.166 1.188,-0.494 0.328,-0.328 0.496,-0.726 0.496,-1.19 a 1.628,1.628 0 0 0 -0.496,-1.19 1.622,1.622 0 0 0 -1.187,-0.493 z m 8.606,0 c -0.467,0 -0.863,0.166 -1.193,0.492 -0.328,0.33 -0.492,0.726 -0.492,1.192 0,0.463 0.164,0.86 0.492,1.189 0.103,0.103 0.212,0.191 0.328,0.262 0.256,0.154 0.545,0.232 0.865,0.232 0.464,0 0.858,-0.166 1.186,-0.494 0.33,-0.328 0.494,-0.726 0.494,-1.19 a 1.63,1.63 0 0 0 -0.494,-1.19 1.621,1.621 0 0 0 -1.186,-0.493 z m 4.299,0 c -0.466,0 -0.861,0.166 -1.19,0.492 a 1.62,1.62 0 0 0 -0.492,1.192 c 0,0.463 0.162,0.86 0.493,1.189 a 1.623,1.623 0 0 0 1.19,0.494 c 0.463,0 0.858,-0.166 1.188,-0.494 0.329,-0.328 0.493,-0.726 0.493,-1.19 A 1.63,1.63 0 0 0 33.48,26.913 1.633,1.633 0 0 0 32.291,26.42 Z m 4.303,0 c -0.468,0 -0.862,0.166 -1.192,0.492 -0.328,0.33 -0.49,0.726 -0.49,1.192 0,0.463 0.162,0.86 0.49,1.189 0.103,0.103 0.212,0.191 0.328,0.262 0.256,0.154 0.543,0.232 0.864,0.232 0.463,0 0.86,-0.166 1.187,-0.494 0.33,-0.328 0.494,-0.726 0.494,-1.19 a 1.63,1.63 0 0 0 -0.494,-1.19 1.625,1.625 0 0 0 -1.187,-0.493 z m -21.508,4.537 c -0.466,0 -0.863,0.164 -1.193,0.49 -0.329,0.33 -0.49,0.726 -0.49,1.192 0,0.463 0.161,0.861 0.49,1.19 a 1.642,1.642 0 0 0 1.193,0.494 c 0.464,0 0.86,-0.167 1.187,-0.495 0.33,-0.328 0.497,-0.726 0.497,-1.19 0,-0.32 -0.08,-0.607 -0.237,-0.863 a 1.737,1.737 0 0 0 -0.26,-0.328 1.624,1.624 0 0 0 -1.187,-0.49 z m 4.3,0 a 1.63,1.63 0 0 0 -1.19,0.49 c -0.329,0.33 -0.493,0.726 -0.493,1.192 0,0.463 0.164,0.861 0.492,1.19 a 1.626,1.626 0 0 0 1.191,0.494 c 0.466,0 0.86,-0.167 1.188,-0.495 0.328,-0.328 0.496,-0.726 0.496,-1.19 a 1.628,1.628 0 0 0 -0.496,-1.19 1.62,1.62 0 0 0 -1.187,-0.491 z m 8.606,0 c -0.467,0 -0.863,0.164 -1.193,0.49 -0.328,0.33 -0.492,0.726 -0.492,1.192 0,0.463 0.164,0.861 0.492,1.19 a 1.642,1.642 0 0 0 1.193,0.494 c 0.464,0 0.858,-0.167 1.186,-0.495 0.33,-0.328 0.494,-0.726 0.494,-1.19 a 1.63,1.63 0 0 0 -0.494,-1.19 1.62,1.62 0 0 0 -1.186,-0.491 z m 4.299,0 c -0.466,0 -0.861,0.164 -1.19,0.49 a 1.62,1.62 0 0 0 -0.492,1.192 c 0,0.463 0.162,0.861 0.493,1.19 a 1.623,1.623 0 0 0 1.19,0.494 c 0.463,0 0.858,-0.167 1.188,-0.495 0.329,-0.328 0.493,-0.726 0.493,-1.19 a 1.63,1.63 0 0 0 -0.493,-1.19 1.631,1.631 0 0 0 -1.189,-0.491 z m -4.299,4.535 c -0.467,0 -0.863,0.164 -1.193,0.49 a 1.63,1.63 0 0 0 -0.492,1.192 c 0,0.463 0.164,0.861 0.492,1.19 0.103,0.102 0.212,0.19 0.328,0.261 0.256,0.155 0.545,0.232 0.865,0.232 0.464,0 0.858,-0.166 1.186,-0.494 0.33,-0.328 0.494,-0.726 0.494,-1.19 a 1.63,1.63 0 0 0 -0.494,-1.19 1.62,1.62 0 0 0 -1.186,-0.49 z"
   fill="#64a2f1"
   id="path5"
   transform="matrix(1.1895434,0,0,1.1895434,-0.59663999,-5.3464108)" />
 <path
   style="display:inline;mix-blend-mode:normal;fill:url(#linearGradient3403);fill-opacity:1;stroke:url(#linearGradient20558);stroke-width:1.16242;stroke-linecap:butt;stroke-linejoin:round;stroke-miterlimit:4;stroke-dasharray:none;stroke-opacity:1"
   d="M 4.7043071,3.9814882 4.6913695,60.80196 H 58.59546 l 1.022155,-2.866369 c 0,0 -23.87537,0.766388 -32.844441,-4.140386 C 16.257548,48.042344 11.401114,4.0978197 11.401114,4.0978197 Z"
   id="path1686"
   transform="matrix(0.7518797,0,0,0.7518797,0.09970467,0.02488636)" />
 <rect
   style="display:inline;fill:none;fill-opacity:1;stroke:url(#linearGradient4557);stroke-width:3.71366;stroke-linejoin:round;stroke-miterlimit:7.8;stroke-dasharray:none;stroke-opacity:0.995146"
   id="rect4539"
   width="62.567089"
   height="62.866646"
   x="1.0323594"
   y="0.59551275"
   ry="6.2447233"
   rx="5.8029528"
   transform="matrix(0.70434793,0,0,0.70291231,1.3629847,1.5442064)" />
</svg>
