<?xml version="1.0" encoding="UTF-8" standalone="no"?>
<!-- Created with Inkscape (http://www.inkscape.org/) -->

<svg
  width="48"
  height="48"
  version="1.1"
  viewBox="0 0 48 48"
  id="svg22"
  xmlns:xlink="http://www.w3.org/1999/xlink"
  xmlns="http://www.w3.org/2000/svg"
  xmlns:svg="http://www.w3.org/2000/svg">
 <defs
   id="defs12">
  <linearGradient
    xlink:href="#linearGradient3487"
    id="linearGradient3403"
    gradientUnits="userSpaceOnUse"
    x1="6.9491749"
    y1="4.5549412"
    x2="11.215498"
    y2="59.052471" />
  <linearGradient
    id="linearGradient3487">
   <stop
     style="stop-color:#32373c;stop-opacity:1"
     offset="0"
     id="stop3481" />
   <stop
     id="stop3483"
     offset="0.36804965"
     style="stop-color:#1a1a1a;stop-opacity:1" />
   <stop
     style="stop-color:#31363b;stop-opacity:1"
     offset="1"
     id="stop3485" />
  </linearGradient>
  <linearGradient
    xlink:href="#linearGradient20604"
    id="linearGradient20558"
    gradientUnits="userSpaceOnUse"
    x1="25.802212"
    y1="20.373846"
    x2="25.111048"
    y2="58.912758" />
  <linearGradient
    id="linearGradient20604">
   <stop
     id="stop20598"
     offset="0"
     style="stop-color:#3d3d3d;stop-opacity:1" />
   <stop
     style="stop-color:#000000;stop-opacity:1"
     offset="0.61772454"
     id="stop20600" />
   <stop
     id="stop20602"
     offset="1"
     style="stop-color:#3d3d3d;stop-opacity:1" />
  </linearGradient>
  <filter
    style="color-interpolation-filters:sRGB"
    id="filter20720"
    x="-0.010582137"
    y="-0.010229342"
    width="1.0211638"
    height="1.0204587">
   <feGaussianBlur
     stdDeviation="1.1271213e-05"
     id="feGaussianBlur20722" />
  </filter>
  <linearGradient
    gradientTransform="translate(0.36067797,-0.13016949)"
    xlink:href="#linearGradient4555"
    id="linearGradient4557"
    x1="43.499737"
    y1="64.011795"
    x2="44.141731"
    y2="0.30621234"
    gradientUnits="userSpaceOnUse" />
  <linearGradient
    id="linearGradient4555">
   <stop
     style="stop-color:#141618;stop-opacity:1"
     offset="0"
     id="stop4551" />
   <stop
     id="stop4559"
     offset="0.51820582"
     style="stop-color:#686868;stop-opacity:1" />
   <stop
     style="stop-color:#31363b;stop-opacity:1"
     offset="1"
     id="stop4553" />
  </linearGradient>
  <filter
    style="color-interpolation-filters:sRGB"
    id="filter4601"
    x="-0.029677886"
    width="1.0593558"
    y="-0.029536472"
    height="1.0590729">
   <feGaussianBlur
     stdDeviation="1.2044113e-05"
     id="feGaussianBlur4603" />
  </filter>
  <linearGradient
    id="b"
    y1="511.79999"
    y2="543.53003"
    x2="0"
    gradientUnits="userSpaceOnUse"
    gradientTransform="matrix(1,0,0,1.04,0,-21.472)">
   <stop
     stop-color="#1d1e1e"
     id="stop12172" />
   <stop
     offset="1"
     stop-color="#2c2f32"
     id="stop12174" />
  </linearGradient>
  <linearGradient
    id="a"
    y1="44"
    y2="4"
    x2="0"
    gradientUnits="userSpaceOnUse">
   <stop
     stop-color="#1d1e1e"
     id="stop12167" />
   <stop
     offset="1"
     stop-color="#44484c"
     id="stop12169" />
  </linearGradient>
  <linearGradient
    id="c"
    y1="518.79999"
    x1="392.57001"
    y2="537.79999"
    x2="411.57001"
    gradientUnits="userSpaceOnUse"
    gradientTransform="translate(-384.57,-499.8)">
   <stop
     stop-color="#292c2f"
     id="stop12177" />
   <stop
     offset="1"
     stop-opacity="0"
     id="stop12179" />
  </linearGradient>
 </defs>
 <rect
   style="fill:url(#b)"
   width="36"
   x="390.57001"
   y="510.79999"
   height="26"
   id="rect12191"
   transform="matrix(-1.1933907,0,0,1.0739503,511.56115,-538.46628)" />
 <rect
   width="36"
   x="390.57001"
   y="511.79999"
   height="8"
   id="rect12193"
   style="fill:#181a1c"
   transform="matrix(-1.1933907,0,0,1.0739503,511.56115,-538.46628)" />
 <rect
   width="36"
   x="390.57001"
   y="527.79999"
   height="8"
   id="rect12195"
   style="fill:#181a1c"
   transform="matrix(-1.1933907,0,0,1.0739503,511.56115,-538.46628)" />
 <path
   d="m 6,28 v 0.75 H 6.094 L 6.344,28.344 6.147,28 Z m 0.559,0 0.16,0.281 h 0.5 L 7.379,28 Z m 1.201,0 -0.197,0.344 0.25,0.406 h 0.5 L 8.563,28.344 8.366,28 Z m 0.986,0 0.16,0.281 h 0.5 L 9.566,28 Z m 1.17,0 -0.197,0.344 0.25,0.406 h 0.5 L 10.719,28.344 10.522,28 Z m 1.049,0 0.16,0.281 h 0.5 L 11.785,28 Z m 1.17,0 -0.197,0.344 0.25,0.406 h 0.5 L 12.938,28.344 12.741,28 Z m 0.986,0 0.16,0.281 h 0.5 L 13.941,28 Z m 1.201,0 -0.197,0.344 0.25,0.406 h 0.5 L 15.125,28.344 14.928,28 Z m 1.018,0 0.16,0.281 H 16 L 16.16,28 Z m 1.201,0 -0.197,0.344 0.25,0.406 h 0.5 L 17.344,28.344 17.147,28 Z m 1.018,0 0.16,0.281 h 0.5 L 18.379,28 Z m 1.17,0 -0.197,0.344 0.25,0.406 h 0.5 L 19.532,28.344 19.335,28 Z m 1.049,0 0.16,0.281 h 0.5 L 20.598,28 Z m 1.17,0 -0.197,0.344 0.25,0.406 h 0.5 L 21.751,28.344 21.554,28 Z m 0.986,0 0.16,0.281 h 0.5 L 22.754,28 Z m 1.201,0 -0.197,0.344 0.25,0.406 h 0.5 L 23.938,28.344 23.741,28 Z m 1.018,0 0.16,0.281 h 0.5 L 24.973,28 Z m 1.201,0 -0.197,0.344 0.25,0.406 h 0.5 L 26.157,28.344 25.96,28 Z m 0.986,0 0.16,0.281 H 27 L 27.16,28 Z m 1.17,0 -0.197,0.344 0.25,0.406 h 0.5 L 28.313,28.344 28.116,28 Z m 1.049,0 0.16,0.281 h 0.5 L 29.379,28 Z m 1.17,0 -0.197,0.344 0.25,0.406 h 0.5 L 30.532,28.344 30.335,28 Z m 0.986,0 0.16,0.281 h 0.5 L 31.535,28 Z m 1.201,0 -0.197,0.344 0.25,0.406 h 0.5 L 32.719,28.344 32.522,28 Z m 1.018,0 0.16,0.281 h 0.5 L 33.754,28 Z m 1.201,0 -0.197,0.344 0.25,0.406 h 0.5 L 34.938,28.344 34.741,28 Z m 0.986,0 0.16,0.281 h 0.5 L 35.941,28 Z m 1.201,0 -0.197,0.344 0.25,0.406 h 0.5 L 37.125,28.344 36.928,28 Z m 1.018,0 0.16,0.281 H 38 L 38.16,28 Z m 1.201,0 -0.197,0.344 0.25,0.406 h 0.5 L 39.344,28.344 39.147,28 Z m 0.986,0 0.16,0.281 h 0.5 L 40.347,28 Z m 1.17,0 -0.197,0.344 0.25,0.406 h 0.5 L 41.5,28.344 41.303,28 Z m 1.049,0 0.16,0.281 H 42 V 28 Z m -35.03,0.625 -0.25,0.438 0.25,0.406 h 0.5 l 0.25,-0.406 -0.25,-0.438 z m 2.188,0 -0.25,0.438 0.25,0.406 h 0.5 l 0.25,-0.406 -0.25,-0.438 z m 2.219,0 -0.25,0.438 0.25,0.406 h 0.5 l 0.25,-0.406 -0.25,-0.438 z m 2.156,0 -0.25,0.438 0.25,0.406 h 0.5 l 0.25,-0.406 -0.25,-0.438 z m 2.219,0 -0.25,0.438 0.25,0.406 h 0.5 l 0.25,-0.406 -0.25,-0.438 z m 2.219,0 -0.25,0.438 0.25,0.406 h 0.5 l 0.25,-0.406 -0.25,-0.438 z m 2.219,0 -0.25,0.438 0.25,0.406 h 0.5 l 0.25,-0.406 -0.25,-0.438 z m 2.156,0 -0.25,0.438 0.25,0.406 h 0.5 l 0.25,-0.406 -0.25,-0.438 z m 2.219,0 -0.25,0.438 0.25,0.406 h 0.5 l 0.25,-0.406 -0.25,-0.438 z m 2.188,0 -0.25,0.438 0.25,0.406 h 0.5 l 0.25,-0.406 -0.25,-0.438 z m 2.219,0 -0.25,0.438 0.25,0.406 h 0.5 l 0.25,-0.406 -0.25,-0.438 z m 2.156,0 -0.25,0.438 0.25,0.406 h 0.5 l 0.25,-0.406 -0.25,-0.438 z m 2.219,0 -0.25,0.438 0.25,0.406 h 0.5 l 0.25,-0.406 -0.25,-0.438 z m 2.188,0 -0.25,0.438 0.25,0.406 h 0.5 l 0.25,-0.406 -0.25,-0.438 z m 2.219,0 -0.25,0.438 0.25,0.406 H 38 L 38.25,29.063 38,28.625 Z m 2.188,0 -0.25,0.438 0.25,0.406 h 0.5 l 0.25,-0.406 -0.25,-0.438 z m 2.219,0 -0.25,0.438 0.25,0.406 h 0.094 V 28.625 Z M 6.001,29.063 v 0.844 h 0.094 l 0.25,-0.438 -0.25,-0.406 z m 1.813,0 -0.25,0.406 0.25,0.438 h 0.5 l 0.25,-0.438 -0.25,-0.406 z m 2.156,0 -0.25,0.406 0.25,0.438 h 0.5 l 0.25,-0.438 -0.25,-0.406 z m 2.219,0 -0.25,0.406 0.25,0.438 h 0.5 l 0.25,-0.438 -0.25,-0.406 z m 2.188,0 -0.25,0.406 0.25,0.438 h 0.5 l 0.25,-0.438 -0.25,-0.406 z m 2.219,0 -0.25,0.406 0.25,0.438 h 0.5 l 0.25,-0.438 -0.25,-0.406 z m 2.188,0 -0.25,0.406 0.25,0.438 h 0.5 l 0.25,-0.438 -0.25,-0.406 z m 2.219,0 -0.25,0.406 0.25,0.438 h 0.5 l 0.25,-0.438 -0.25,-0.406 z m 2.188,0 -0.25,0.406 0.25,0.438 h 0.5 l 0.25,-0.438 -0.25,-0.406 z m 2.219,0 -0.25,0.406 0.25,0.438 h 0.5 l 0.25,-0.438 -0.25,-0.406 z m 2.156,0 -0.25,0.406 0.25,0.438 h 0.5 l 0.25,-0.438 -0.25,-0.406 z m 2.219,0 -0.25,0.406 0.25,0.438 h 0.5 l 0.25,-0.438 -0.25,-0.406 z m 2.188,0 -0.25,0.406 0.25,0.438 h 0.5 l 0.25,-0.438 -0.25,-0.406 z m 2.219,0 -0.25,0.406 0.25,0.438 h 0.5 l 0.25,-0.438 -0.25,-0.406 z m 2.188,0 -0.25,0.406 0.25,0.438 h 0.5 l 0.25,-0.438 -0.25,-0.406 z m 2.219,0 -0.25,0.406 0.25,0.438 h 0.5 l 0.25,-0.438 -0.25,-0.406 z m 2.156,0 -0.25,0.406 0.25,0.438 h 0.5 l 0.25,-0.438 -0.25,-0.406 z m -34.03,0.719 -0.25,0.438 0.25,0.406 h 0.5 l 0.25,-0.406 -0.25,-0.438 z m 2.188,0 -0.25,0.438 0.25,0.406 h 0.5 l 0.25,-0.406 -0.25,-0.438 z m 2.219,0 -0.25,0.438 0.25,0.406 h 0.5 l 0.25,-0.406 -0.25,-0.438 z m 2.156,0 -0.25,0.438 0.25,0.406 h 0.5 l 0.25,-0.406 -0.25,-0.438 z m 2.219,0 -0.25,0.438 0.25,0.406 h 0.5 l 0.25,-0.406 -0.25,-0.438 z m 2.219,0 -0.25,0.438 0.25,0.406 h 0.5 l 0.25,-0.406 -0.25,-0.438 z m 2.219,0 -0.25,0.438 0.25,0.406 h 0.5 l 0.25,-0.406 -0.25,-0.438 z m 2.156,0 -0.25,0.438 0.25,0.406 h 0.5 l 0.25,-0.406 -0.25,-0.438 z m 2.219,0 -0.25,0.438 0.25,0.406 h 0.5 l 0.25,-0.406 -0.25,-0.438 z m 2.188,0 -0.25,0.438 0.25,0.406 h 0.5 l 0.25,-0.406 -0.25,-0.438 z m 2.219,0 -0.25,0.438 0.25,0.406 h 0.5 l 0.25,-0.406 -0.25,-0.438 z m 2.156,0 -0.25,0.438 0.25,0.406 h 0.5 l 0.25,-0.406 -0.25,-0.438 z m 2.219,0 -0.25,0.438 0.25,0.406 h 0.5 l 0.25,-0.406 -0.25,-0.438 z m 2.188,0 -0.25,0.438 0.25,0.406 h 0.5 l 0.25,-0.406 -0.25,-0.438 z m 2.219,0 -0.25,0.438 0.25,0.406 h 0.5 l 0.25,-0.406 -0.25,-0.438 z m 2.188,0 -0.25,0.438 0.25,0.406 h 0.5 l 0.25,-0.406 -0.25,-0.438 z m 2.219,0 -0.25,0.438 0.25,0.406 H 42.01 V 29.782 Z M 6.01,30.251 v 0.875 h 0.094 l 0.25,-0.438 -0.25,-0.438 z m 1.813,0 -0.25,0.438 0.25,0.438 h 0.5 l 0.25,-0.438 -0.25,-0.438 z m 2.156,0 -0.25,0.438 0.25,0.438 h 0.5 l 0.25,-0.438 -0.25,-0.438 z m 2.219,0 -0.25,0.438 0.25,0.438 h 0.5 l 0.25,-0.438 -0.25,-0.438 z m 2.188,0 -0.25,0.438 0.25,0.438 h 0.5 l 0.25,-0.438 -0.25,-0.438 z m 2.219,0 -0.25,0.438 0.25,0.438 h 0.5 l 0.25,-0.438 -0.25,-0.438 z m 2.188,0 -0.25,0.438 0.25,0.438 h 0.5 l 0.25,-0.438 -0.25,-0.438 z m 2.219,0 -0.25,0.438 0.25,0.438 h 0.5 l 0.25,-0.438 -0.25,-0.438 z m 2.188,0 -0.25,0.438 0.25,0.438 h 0.5 l 0.25,-0.438 -0.25,-0.438 z m 2.219,0 -0.25,0.438 0.25,0.438 h 0.5 l 0.25,-0.438 -0.25,-0.438 z m 2.156,0 -0.25,0.438 0.25,0.438 h 0.5 l 0.25,-0.438 -0.25,-0.438 z m 2.219,0 -0.25,0.438 0.25,0.438 h 0.5 l 0.25,-0.438 -0.25,-0.438 z m 2.188,0 -0.25,0.438 0.25,0.438 h 0.5 l 0.25,-0.438 -0.25,-0.438 z m 2.219,0 -0.25,0.438 0.25,0.438 h 0.5 l 0.25,-0.438 -0.25,-0.438 z m 2.188,0 -0.25,0.438 0.25,0.438 h 0.5 l 0.25,-0.438 -0.25,-0.438 z m 2.219,0 -0.25,0.438 0.25,0.438 h 0.5 l 0.25,-0.438 -0.25,-0.438 z m 2.156,0 -0.25,0.438 0.25,0.438 h 0.5 l 0.25,-0.438 -0.25,-0.438 z m -34.03,0.719 -0.25,0.438 0.25,0.406 h 0.5 l 0.25,-0.406 -0.25,-0.438 z m 2.188,0 -0.25,0.438 0.25,0.406 h 0.5 l 0.25,-0.406 -0.25,-0.438 z m 2.219,0 -0.25,0.438 0.25,0.406 h 0.5 l 0.25,-0.406 -0.25,-0.438 z m 2.156,0 -0.25,0.438 0.25,0.406 h 0.5 l 0.25,-0.406 -0.25,-0.438 z m 2.219,0 -0.25,0.438 0.25,0.406 h 0.5 l 0.25,-0.406 -0.25,-0.438 z m 2.219,0 -0.25,0.438 0.25,0.406 h 0.5 l 0.25,-0.406 -0.25,-0.438 z m 2.219,0 -0.25,0.438 0.25,0.406 h 0.5 l 0.25,-0.406 -0.25,-0.438 z m 2.156,0 -0.25,0.438 0.25,0.406 h 0.5 l 0.25,-0.406 -0.25,-0.438 z m 2.219,0 -0.25,0.438 0.25,0.406 h 0.5 l 0.25,-0.406 -0.25,-0.438 z m 2.188,0 -0.25,0.438 0.25,0.406 h 0.5 l 0.25,-0.406 -0.25,-0.438 z m 2.219,0 -0.25,0.438 0.25,0.406 h 0.5 l 0.25,-0.406 -0.25,-0.438 z m 2.156,0 -0.25,0.438 0.25,0.406 h 0.5 l 0.25,-0.406 -0.25,-0.438 z m 2.219,0 -0.25,0.438 0.25,0.406 h 0.5 l 0.25,-0.406 -0.25,-0.438 z m 2.188,0 -0.25,0.438 0.25,0.406 h 0.5 l 0.25,-0.406 -0.25,-0.438 z m 2.219,0 -0.25,0.438 0.25,0.406 h 0.5 l 0.25,-0.406 -0.25,-0.438 z m 2.188,0 -0.25,0.438 0.25,0.406 h 0.5 l 0.25,-0.406 -0.25,-0.438 z m 2.219,0 -0.25,0.438 0.25,0.406 h 0.094 V 30.97 Z m -35.906,0.5 v 0.844 h 0.094 l 0.25,-0.406 -0.25,-0.438 z m 1.813,0 -0.25,0.438 0.25,0.406 h 0.5 l 0.25,-0.406 -0.25,-0.438 z m 2.156,0 -0.25,0.438 0.25,0.406 h 0.5 l 0.25,-0.406 -0.25,-0.438 z m 2.219,0 -0.25,0.438 0.25,0.406 h 0.5 l 0.25,-0.406 -0.25,-0.438 z m 2.188,0 -0.25,0.438 0.25,0.406 h 0.5 l 0.25,-0.406 -0.25,-0.438 z m 2.219,0 -0.25,0.438 0.25,0.406 h 0.5 l 0.25,-0.406 -0.25,-0.438 z m 2.188,0 -0.25,0.438 0.25,0.406 h 0.5 l 0.25,-0.406 -0.25,-0.438 z m 2.219,0 -0.25,0.438 0.25,0.406 h 0.5 l 0.25,-0.406 -0.25,-0.438 z m 2.188,0 -0.25,0.438 0.25,0.406 h 0.5 l 0.25,-0.406 -0.25,-0.438 z m 2.219,0 -0.25,0.438 0.25,0.406 h 0.5 l 0.25,-0.406 -0.25,-0.438 z m 2.156,0 -0.25,0.438 0.25,0.406 h 0.5 l 0.25,-0.406 -0.25,-0.438 z m 2.219,0 -0.25,0.438 0.25,0.406 h 0.5 l 0.25,-0.406 -0.25,-0.438 z m 2.188,0 -0.25,0.438 0.25,0.406 h 0.5 l 0.25,-0.406 -0.25,-0.438 z m 2.219,0 -0.25,0.438 0.25,0.406 h 0.5 l 0.25,-0.406 -0.25,-0.438 z m 2.188,0 -0.25,0.438 0.25,0.406 h 0.5 l 0.25,-0.406 -0.25,-0.438 z m 2.219,0 -0.25,0.438 0.25,0.406 h 0.5 l 0.25,-0.406 -0.25,-0.438 z m 2.156,0 -0.25,0.438 0.25,0.406 h 0.5 l 0.25,-0.406 -0.25,-0.438 z m -34.03,0.656 -0.25,0.438 0.25,0.406 h 0.5 l 0.25,-0.406 -0.25,-0.438 z m 2.188,0 -0.25,0.438 0.25,0.406 h 0.5 l 0.25,-0.406 -0.25,-0.438 z m 2.219,0 -0.25,0.438 0.25,0.406 h 0.5 l 0.25,-0.406 -0.25,-0.438 z m 2.156,0 -0.25,0.438 0.25,0.406 h 0.5 l 0.25,-0.406 -0.25,-0.438 z m 2.219,0 -0.25,0.438 0.25,0.406 h 0.5 l 0.25,-0.406 -0.25,-0.438 z m 2.219,0 -0.25,0.438 0.25,0.406 h 0.5 l 0.25,-0.406 -0.25,-0.438 z m 2.219,0 -0.25,0.438 0.25,0.406 h 0.5 l 0.25,-0.406 -0.25,-0.438 z m 2.156,0 -0.25,0.438 0.25,0.406 h 0.5 l 0.25,-0.406 -0.25,-0.438 z m 2.219,0 -0.25,0.438 0.25,0.406 h 0.5 l 0.25,-0.406 -0.25,-0.438 z m 2.188,0 -0.25,0.438 0.25,0.406 h 0.5 l 0.25,-0.406 -0.25,-0.438 z m 2.219,0 -0.25,0.438 0.25,0.406 h 0.5 l 0.25,-0.406 -0.25,-0.438 z m 2.156,0 -0.25,0.438 0.25,0.406 h 0.5 l 0.25,-0.406 -0.25,-0.438 z m 2.219,0 -0.25,0.438 0.25,0.406 h 0.5 l 0.25,-0.406 -0.25,-0.438 z m 2.188,0 -0.25,0.438 0.25,0.406 h 0.5 l 0.25,-0.406 -0.25,-0.438 z m 2.219,0 -0.25,0.438 0.25,0.406 h 0.5 l 0.25,-0.406 -0.25,-0.438 z m 2.188,0 -0.25,0.438 0.25,0.406 h 0.5 l 0.25,-0.406 -0.25,-0.438 z m 2.219,0 -0.25,0.438 0.25,0.406 h 0.094 V 32.126 Z M 6.028,32.657 v 0.844 h 0.094 l 0.25,-0.438 -0.25,-0.406 z m 1.813,0 -0.25,0.406 0.25,0.438 h 0.5 l 0.25,-0.438 -0.25,-0.406 z m 2.156,0 -0.25,0.406 0.25,0.438 h 0.5 l 0.25,-0.438 -0.25,-0.406 z m 2.219,0 -0.25,0.406 0.25,0.438 h 0.5 l 0.25,-0.438 -0.25,-0.406 z m 2.188,0 -0.25,0.406 0.25,0.438 h 0.5 l 0.25,-0.438 -0.25,-0.406 z m 2.219,0 -0.25,0.406 0.25,0.438 h 0.5 l 0.25,-0.438 -0.25,-0.406 z m 2.188,0 -0.25,0.406 0.25,0.438 h 0.5 l 0.25,-0.438 -0.25,-0.406 z m 2.219,0 -0.25,0.406 0.25,0.438 h 0.5 l 0.25,-0.438 -0.25,-0.406 z m 2.188,0 -0.25,0.406 0.25,0.438 h 0.5 l 0.25,-0.438 -0.25,-0.406 z m 2.219,0 -0.25,0.406 0.25,0.438 h 0.5 l 0.25,-0.438 -0.25,-0.406 z m 2.156,0 -0.25,0.406 0.25,0.438 h 0.5 l 0.25,-0.438 -0.25,-0.406 z m 2.219,0 -0.25,0.406 0.25,0.438 h 0.5 l 0.25,-0.438 -0.25,-0.406 z m 2.188,0 -0.25,0.406 0.25,0.438 h 0.5 l 0.25,-0.438 -0.25,-0.406 z m 2.219,0 -0.25,0.406 0.25,0.438 h 0.5 l 0.25,-0.438 -0.25,-0.406 z m 2.188,0 -0.25,0.406 0.25,0.438 h 0.5 l 0.25,-0.438 -0.25,-0.406 z m 2.219,0 -0.25,0.406 0.25,0.438 h 0.5 l 0.25,-0.438 -0.25,-0.406 z m 2.156,0 -0.25,0.406 0.25,0.438 h 0.5 l 0.25,-0.438 -0.25,-0.406 z m -34.03,0.625 -0.25,0.438 0.25,0.438 h 0.5 l 0.25,-0.438 -0.25,-0.438 z m 2.188,0 -0.25,0.438 0.25,0.438 h 0.5 L 9.69,33.72 9.44,33.282 Z m 2.219,0 -0.25,0.438 0.25,0.438 h 0.5 l 0.25,-0.438 -0.25,-0.438 z m 2.156,0 -0.25,0.438 0.25,0.438 h 0.5 l 0.25,-0.438 -0.25,-0.438 z m 2.219,0 -0.25,0.438 0.25,0.438 h 0.5 l 0.25,-0.438 -0.25,-0.438 z m 2.219,0 -0.25,0.438 0.25,0.438 h 0.5 l 0.25,-0.438 -0.25,-0.438 z m 2.219,0 -0.25,0.438 0.25,0.438 h 0.5 l 0.25,-0.438 -0.25,-0.438 z m 2.156,0 -0.25,0.438 0.25,0.438 h 0.5 l 0.25,-0.438 -0.25,-0.438 z m 2.219,0 -0.25,0.438 0.25,0.438 h 0.5 l 0.25,-0.438 -0.25,-0.438 z m 2.188,0 -0.25,0.438 0.25,0.438 h 0.5 l 0.25,-0.438 -0.25,-0.438 z m 2.219,0 -0.25,0.438 0.25,0.438 h 0.5 l 0.25,-0.438 -0.25,-0.438 z m 2.156,0 -0.25,0.438 0.25,0.438 h 0.5 l 0.25,-0.438 -0.25,-0.438 z m 2.219,0 -0.25,0.438 0.25,0.438 h 0.5 l 0.25,-0.438 -0.25,-0.438 z m 2.188,0 -0.25,0.438 0.25,0.438 h 0.5 l 0.25,-0.438 -0.25,-0.438 z m 2.219,0 -0.25,0.438 0.25,0.438 h 0.5 l 0.25,-0.438 -0.25,-0.438 z m 2.188,0 -0.25,0.438 0.25,0.438 h 0.5 l 0.25,-0.438 -0.25,-0.438 z m 2.219,0 -0.25,0.438 0.25,0.438 h 0.094 v -0.875 z m -35.906,0.5 v 0.875 h 0.094 l 0.25,-0.438 -0.25,-0.438 z m 1.813,0 -0.25,0.438 0.25,0.438 h 0.5 L 8.6,34.22 8.35,33.782 Z m 2.156,0 -0.25,0.438 0.25,0.438 h 0.5 l 0.25,-0.438 -0.25,-0.438 z m 2.219,0 -0.25,0.438 0.25,0.438 h 0.5 l 0.25,-0.438 -0.25,-0.438 z m 2.188,0 -0.25,0.438 0.25,0.438 h 0.5 l 0.25,-0.438 -0.25,-0.438 z m 2.219,0 -0.25,0.438 0.25,0.438 h 0.5 l 0.25,-0.438 -0.25,-0.438 z m 2.188,0 -0.25,0.438 0.25,0.438 h 0.5 l 0.25,-0.438 -0.25,-0.438 z m 2.219,0 -0.25,0.438 0.25,0.438 h 0.5 l 0.25,-0.438 -0.25,-0.438 z m 2.188,0 -0.25,0.438 0.25,0.438 h 0.5 l 0.25,-0.438 -0.25,-0.438 z m 2.219,0 -0.25,0.438 0.25,0.438 h 0.5 l 0.25,-0.438 -0.25,-0.438 z m 2.156,0 -0.25,0.438 0.25,0.438 h 0.5 l 0.25,-0.438 -0.25,-0.438 z m 2.219,0 -0.25,0.438 0.25,0.438 h 0.5 l 0.25,-0.438 -0.25,-0.438 z m 2.188,0 -0.25,0.438 0.25,0.438 h 0.5 l 0.25,-0.438 -0.25,-0.438 z m 2.219,0 -0.25,0.438 0.25,0.438 h 0.5 l 0.25,-0.438 -0.25,-0.438 z m 2.188,0 -0.25,0.438 0.25,0.438 h 0.5 l 0.25,-0.438 -0.25,-0.438 z m 2.219,0 -0.25,0.438 0.25,0.438 h 0.5 l 0.25,-0.438 -0.25,-0.438 z m 2.156,0 -0.25,0.438 0.25,0.438 h 0.5 l 0.25,-0.438 -0.25,-0.438 z m -34.03,0.719 -0.25,0.438 0.25,0.438 h 0.5 l 0.25,-0.438 -0.25,-0.438 z m 2.188,0 -0.25,0.438 0.25,0.438 h 0.5 l 0.25,-0.438 -0.25,-0.438 z m 2.219,0 -0.25,0.438 0.25,0.438 h 0.5 l 0.25,-0.438 -0.25,-0.438 z m 2.156,0 -0.25,0.438 0.25,0.438 h 0.5 l 0.25,-0.438 -0.25,-0.438 z m 2.219,0 -0.25,0.438 0.25,0.438 h 0.5 l 0.25,-0.438 -0.25,-0.438 z m 2.219,0 -0.25,0.438 0.25,0.438 h 0.5 l 0.25,-0.438 -0.25,-0.438 z m 2.219,0 -0.25,0.438 0.25,0.438 h 0.5 l 0.25,-0.438 -0.25,-0.438 z m 2.156,0 -0.25,0.438 0.25,0.438 h 0.5 l 0.25,-0.438 -0.25,-0.438 z m 2.219,0 -0.25,0.438 0.25,0.438 h 0.5 l 0.25,-0.438 -0.25,-0.438 z m 2.188,0 -0.25,0.438 0.25,0.438 h 0.5 l 0.25,-0.438 -0.25,-0.438 z m 2.219,0 -0.25,0.438 0.25,0.438 h 0.5 l 0.25,-0.438 -0.25,-0.438 z m 2.156,0 -0.25,0.438 0.25,0.438 h 0.5 l 0.25,-0.438 -0.25,-0.438 z m 2.219,0 -0.25,0.438 0.25,0.438 h 0.5 l 0.25,-0.438 -0.25,-0.438 z m 2.188,0 -0.25,0.438 0.25,0.438 h 0.5 l 0.25,-0.438 -0.25,-0.438 z m 2.219,0 -0.25,0.438 0.25,0.438 h 0.5 l 0.25,-0.438 -0.25,-0.438 z m 2.188,0 -0.25,0.438 0.25,0.438 h 0.5 l 0.25,-0.438 -0.25,-0.438 z m 2.219,0 -0.25,0.438 0.25,0.438 h 0.094 v -0.875 z m -35.906,0.5 v 0.844 H 6.14 L 6.39,35.439 6.14,35.001 Z m 1.813,0 -0.25,0.438 0.25,0.406 h 0.5 l 0.25,-0.406 -0.25,-0.438 z m 2.156,0 -0.25,0.438 0.25,0.406 h 0.5 l 0.25,-0.406 -0.25,-0.438 z m 2.219,0 -0.25,0.438 0.25,0.406 h 0.5 l 0.25,-0.406 -0.25,-0.438 z m 2.188,0 -0.25,0.438 0.25,0.406 h 0.5 l 0.25,-0.406 -0.25,-0.438 z m 2.219,0 -0.25,0.438 0.25,0.406 h 0.5 l 0.25,-0.406 -0.25,-0.438 z m 2.188,0 -0.25,0.438 0.25,0.406 h 0.5 l 0.25,-0.406 -0.25,-0.438 z m 2.219,0 -0.25,0.438 0.25,0.406 h 0.5 l 0.25,-0.406 -0.25,-0.438 z m 2.188,0 -0.25,0.438 0.25,0.406 h 0.5 l 0.25,-0.406 -0.25,-0.438 z m 2.219,0 -0.25,0.438 0.25,0.406 h 0.5 l 0.25,-0.406 -0.25,-0.438 z m 2.156,0 -0.25,0.438 0.25,0.406 h 0.5 l 0.25,-0.406 -0.25,-0.438 z m 2.219,0 -0.25,0.438 0.25,0.406 h 0.5 l 0.25,-0.406 -0.25,-0.438 z m 2.188,0 -0.25,0.438 0.25,0.406 h 0.5 l 0.25,-0.406 -0.25,-0.438 z m 2.219,0 -0.25,0.438 0.25,0.406 h 0.5 l 0.25,-0.406 -0.25,-0.438 z m 2.188,0 -0.25,0.438 0.25,0.406 h 0.5 l 0.25,-0.406 -0.25,-0.438 z m 2.219,0 -0.25,0.438 0.25,0.406 h 0.5 l 0.25,-0.406 -0.25,-0.438 z m 2.156,0 -0.25,0.438 0.25,0.406 h 0.5 L 41.55,35.439 41.3,35.001 Z M 6.77,35.689 6.592,36.002 H 7.447 L 7.269,35.689 Z m 2.188,0 -0.178,0.313 H 9.635 L 9.457,35.689 Z m 2.219,0 -0.178,0.313 h 0.855 l -0.178,-0.313 z m 2.156,0 -0.178,0.313 h 0.855 l -0.178,-0.313 z m 2.219,0 -0.178,0.313 h 0.855 l -0.178,-0.313 z m 2.219,0 -0.178,0.313 h 0.855 L 18.27,35.689 Z m 2.219,0 -0.178,0.313 h 0.855 l -0.178,-0.313 z m 2.156,0 -0.178,0.313 h 0.855 l -0.178,-0.313 z m 2.219,0 -0.178,0.313 h 0.855 l -0.178,-0.313 z m 2.188,0 -0.178,0.313 h 0.855 l -0.178,-0.313 z m 2.219,0 -0.178,0.313 h 0.855 l -0.178,-0.313 z m 2.156,0 -0.178,0.313 h 0.855 l -0.178,-0.313 z m 2.219,0 -0.178,0.313 h 0.855 l -0.178,-0.313 z m 2.188,0 -0.178,0.313 h 0.855 l -0.178,-0.313 z m 2.219,0 -0.178,0.313 h 0.855 l -0.178,-0.313 z m 2.188,0 -0.178,0.313 h 0.855 l -0.178,-0.313 z m 2.219,0 -0.178,0.313 h 0.271 v -0.313 z"
   transform="matrix(-1.1933907,0,0,1.0739503,52.618889,-1.7059201)"
   id="path12199"
   style="color:#000000;fill-opacity:0.311;stroke-width:0.2" />
 <path
   d="m 390.57,511.8 v 0.75 h 0.094 l 0.25,-0.406 -0.197,-0.344 z m 0.559,0 0.16,0.281 h 0.5 l 0.16,-0.281 z m 1.201,0 -0.197,0.344 0.25,0.406 h 0.5 l 0.25,-0.406 -0.197,-0.344 z m 0.986,0 0.16,0.281 h 0.5 l 0.16,-0.281 z m 1.17,0 -0.197,0.344 0.25,0.406 h 0.5 l 0.25,-0.406 -0.197,-0.344 z m 1.049,0 0.16,0.281 h 0.5 l 0.16,-0.281 z m 1.17,0 -0.197,0.344 0.25,0.406 h 0.5 l 0.25,-0.406 -0.197,-0.344 z m 0.986,0 0.16,0.281 h 0.5 l 0.16,-0.281 z m 1.201,0 -0.197,0.344 0.25,0.406 h 0.5 l 0.25,-0.406 -0.197,-0.344 z m 1.018,0 0.16,0.281 h 0.5 l 0.16,-0.281 z m 1.201,0 -0.197,0.344 0.25,0.406 h 0.5 l 0.25,-0.406 -0.197,-0.344 z m 1.018,0 0.16,0.281 h 0.5 l 0.16,-0.281 z m 1.17,0 -0.197,0.344 0.25,0.406 h 0.5 l 0.25,-0.406 -0.197,-0.344 z m 1.049,0 0.16,0.281 h 0.5 l 0.16,-0.281 z m 1.17,0 -0.197,0.344 0.25,0.406 h 0.5 l 0.25,-0.406 -0.197,-0.344 z m 0.986,0 0.16,0.281 h 0.5 l 0.16,-0.281 z m 1.201,0 -0.197,0.344 0.25,0.406 h 0.5 l 0.25,-0.406 -0.197,-0.344 z m 1.018,0 0.16,0.281 h 0.5 l 0.16,-0.281 z m 1.201,0 -0.197,0.344 0.25,0.406 h 0.5 l 0.25,-0.406 -0.197,-0.344 z m 0.986,0 0.16,0.281 h 0.5 l 0.16,-0.281 z m 1.17,0 -0.197,0.344 0.25,0.406 h 0.5 l 0.25,-0.406 -0.197,-0.344 z m 1.049,0 0.16,0.281 h 0.5 l 0.16,-0.281 z m 1.17,0 -0.197,0.344 0.25,0.406 h 0.5 l 0.25,-0.406 -0.197,-0.344 z m 0.986,0 0.16,0.281 h 0.5 l 0.16,-0.281 z m 1.201,0 -0.197,0.344 0.25,0.406 h 0.5 l 0.25,-0.406 -0.197,-0.344 z m 1.018,0 0.16,0.281 h 0.5 l 0.16,-0.281 z m 1.201,0 -0.197,0.344 0.25,0.406 h 0.5 l 0.25,-0.406 -0.197,-0.344 z m 0.986,0 0.16,0.281 h 0.5 l 0.16,-0.281 z m 1.201,0 -0.197,0.344 0.25,0.406 h 0.5 l 0.25,-0.406 -0.197,-0.344 z m 1.018,0 0.16,0.281 h 0.5 l 0.16,-0.281 z m 1.201,0 -0.197,0.344 0.25,0.406 h 0.5 l 0.25,-0.406 -0.197,-0.344 z m 0.986,0 0.16,0.281 h 0.5 l 0.16,-0.281 z m 1.17,0 -0.197,0.344 0.25,0.406 h 0.5 l 0.25,-0.406 -0.197,-0.344 z m 1.049,0 0.16,0.281 h 0.094 V 511.8 Z m -35.03,0.625 -0.25,0.438 0.25,0.406 h 0.5 l 0.25,-0.406 -0.25,-0.438 z m 2.188,0 -0.25,0.438 0.25,0.406 h 0.5 l 0.25,-0.406 -0.25,-0.438 z m 2.219,0 -0.25,0.438 0.25,0.406 h 0.5 l 0.25,-0.406 -0.25,-0.438 z m 2.156,0 -0.25,0.438 0.25,0.406 h 0.5 l 0.25,-0.406 -0.25,-0.438 z m 2.219,0 -0.25,0.438 0.25,0.406 h 0.5 l 0.25,-0.406 -0.25,-0.438 z m 2.219,0 -0.25,0.438 0.25,0.406 h 0.5 l 0.25,-0.406 -0.25,-0.438 z m 2.219,0 -0.25,0.438 0.25,0.406 h 0.5 l 0.25,-0.406 -0.25,-0.438 z m 2.156,0 -0.25,0.438 0.25,0.406 h 0.5 l 0.25,-0.406 -0.25,-0.438 z m 2.219,0 -0.25,0.438 0.25,0.406 h 0.5 l 0.25,-0.406 -0.25,-0.438 z m 2.188,0 -0.25,0.438 0.25,0.406 h 0.5 l 0.25,-0.406 -0.25,-0.438 z m 2.219,0 -0.25,0.438 0.25,0.406 h 0.5 l 0.25,-0.406 -0.25,-0.438 z m 2.156,0 -0.25,0.438 0.25,0.406 h 0.5 l 0.25,-0.406 -0.25,-0.438 z m 2.219,0 -0.25,0.438 0.25,0.406 h 0.5 l 0.25,-0.406 -0.25,-0.438 z m 2.188,0 -0.25,0.438 0.25,0.406 h 0.5 l 0.25,-0.406 -0.25,-0.438 z m 2.219,0 -0.25,0.438 0.25,0.406 h 0.5 l 0.25,-0.406 -0.25,-0.438 z m 2.188,0 -0.25,0.438 0.25,0.406 h 0.5 l 0.25,-0.406 -0.25,-0.438 z m 2.219,0 -0.25,0.438 0.25,0.406 h 0.094 v -0.844 z m -35.906,0.438 v 0.844 h 0.094 l 0.25,-0.438 -0.25,-0.406 z m 1.813,0 -0.25,0.406 0.25,0.438 h 0.5 l 0.25,-0.438 -0.25,-0.406 z m 2.156,0 -0.25,0.406 0.25,0.438 h 0.5 l 0.25,-0.438 -0.25,-0.406 z m 2.219,0 -0.25,0.406 0.25,0.438 h 0.5 l 0.25,-0.438 -0.25,-0.406 z m 2.188,0 -0.25,0.406 0.25,0.438 h 0.5 l 0.25,-0.438 -0.25,-0.406 z m 2.219,0 -0.25,0.406 0.25,0.438 h 0.5 l 0.25,-0.438 -0.25,-0.406 z m 2.188,0 -0.25,0.406 0.25,0.438 h 0.5 l 0.25,-0.438 -0.25,-0.406 z m 2.219,0 -0.25,0.406 0.25,0.438 h 0.5 l 0.25,-0.438 -0.25,-0.406 z m 2.188,0 -0.25,0.406 0.25,0.438 h 0.5 l 0.25,-0.438 -0.25,-0.406 z m 2.219,0 -0.25,0.406 0.25,0.438 h 0.5 l 0.25,-0.438 -0.25,-0.406 z m 2.156,0 -0.25,0.406 0.25,0.438 h 0.5 l 0.25,-0.438 -0.25,-0.406 z m 2.219,0 -0.25,0.406 0.25,0.438 h 0.5 l 0.25,-0.438 -0.25,-0.406 z m 2.188,0 -0.25,0.406 0.25,0.438 h 0.5 l 0.25,-0.438 -0.25,-0.406 z m 2.219,0 -0.25,0.406 0.25,0.438 h 0.5 l 0.25,-0.438 -0.25,-0.406 z m 2.188,0 -0.25,0.406 0.25,0.438 h 0.5 l 0.25,-0.438 -0.25,-0.406 z m 2.219,0 -0.25,0.406 0.25,0.438 h 0.5 l 0.25,-0.438 -0.25,-0.406 z m 2.156,0 -0.25,0.406 0.25,0.438 h 0.5 l 0.25,-0.438 -0.25,-0.406 z m -34.03,0.719 -0.25,0.438 0.25,0.406 h 0.5 l 0.25,-0.406 -0.25,-0.438 z m 2.188,0 -0.25,0.438 0.25,0.406 h 0.5 l 0.25,-0.406 -0.25,-0.438 z m 2.219,0 -0.25,0.438 0.25,0.406 h 0.5 l 0.25,-0.406 -0.25,-0.438 z m 2.156,0 -0.25,0.438 0.25,0.406 h 0.5 l 0.25,-0.406 -0.25,-0.438 z m 2.219,0 -0.25,0.438 0.25,0.406 h 0.5 l 0.25,-0.406 -0.25,-0.438 z m 2.219,0 -0.25,0.438 0.25,0.406 h 0.5 l 0.25,-0.406 -0.25,-0.438 z m 2.219,0 -0.25,0.438 0.25,0.406 h 0.5 l 0.25,-0.406 -0.25,-0.438 z m 2.156,0 -0.25,0.438 0.25,0.406 h 0.5 l 0.25,-0.406 -0.25,-0.438 z m 2.219,0 -0.25,0.438 0.25,0.406 h 0.5 l 0.25,-0.406 -0.25,-0.438 z m 2.188,0 -0.25,0.438 0.25,0.406 h 0.5 l 0.25,-0.406 -0.25,-0.438 z m 2.219,0 -0.25,0.438 0.25,0.406 h 0.5 l 0.25,-0.406 -0.25,-0.438 z m 2.156,0 -0.25,0.438 0.25,0.406 h 0.5 l 0.25,-0.406 -0.25,-0.438 z m 2.219,0 -0.25,0.438 0.25,0.406 h 0.5 l 0.25,-0.406 -0.25,-0.438 z m 2.188,0 -0.25,0.438 0.25,0.406 h 0.5 l 0.25,-0.406 -0.25,-0.438 z m 2.219,0 -0.25,0.438 0.25,0.406 h 0.5 l 0.25,-0.406 -0.25,-0.438 z m 2.188,0 -0.25,0.438 0.25,0.406 h 0.5 l 0.25,-0.406 -0.25,-0.438 z m 2.219,0 -0.25,0.438 0.25,0.406 h 0.094 v -0.844 z m -35.906,0.469 v 0.875 h 0.094 l 0.25,-0.438 -0.25,-0.438 z m 1.813,0 -0.25,0.438 0.25,0.438 h 0.5 l 0.25,-0.438 -0.25,-0.438 z m 2.156,0 -0.25,0.438 0.25,0.438 h 0.5 l 0.25,-0.438 -0.25,-0.438 z m 2.219,0 -0.25,0.438 0.25,0.438 h 0.5 l 0.25,-0.438 -0.25,-0.438 z m 2.188,0 -0.25,0.438 0.25,0.438 h 0.5 l 0.25,-0.438 -0.25,-0.438 z m 2.219,0 -0.25,0.438 0.25,0.438 h 0.5 l 0.25,-0.438 -0.25,-0.438 z m 2.188,0 -0.25,0.438 0.25,0.438 h 0.5 l 0.25,-0.438 -0.25,-0.438 z m 2.219,0 -0.25,0.438 0.25,0.438 h 0.5 l 0.25,-0.438 -0.25,-0.438 z m 2.188,0 -0.25,0.438 0.25,0.438 h 0.5 l 0.25,-0.438 -0.25,-0.438 z m 2.219,0 -0.25,0.438 0.25,0.438 h 0.5 l 0.25,-0.438 -0.25,-0.438 z m 2.156,0 -0.25,0.438 0.25,0.438 h 0.5 l 0.25,-0.438 -0.25,-0.438 z m 2.219,0 -0.25,0.438 0.25,0.438 h 0.5 l 0.25,-0.438 -0.25,-0.438 z m 2.188,0 -0.25,0.438 0.25,0.438 h 0.5 l 0.25,-0.438 -0.25,-0.438 z m 2.219,0 -0.25,0.438 0.25,0.438 h 0.5 l 0.25,-0.438 -0.25,-0.438 z m 2.188,0 -0.25,0.438 0.25,0.438 h 0.5 l 0.25,-0.438 -0.25,-0.438 z m 2.219,0 -0.25,0.438 0.25,0.438 h 0.5 l 0.25,-0.438 -0.25,-0.438 z m 2.156,0 -0.25,0.438 0.25,0.438 h 0.5 l 0.25,-0.438 -0.25,-0.438 z m -34.03,0.719 -0.25,0.438 0.25,0.406 h 0.5 l 0.25,-0.406 -0.25,-0.438 z m 2.188,0 -0.25,0.438 0.25,0.406 h 0.5 l 0.25,-0.406 -0.25,-0.438 z m 2.219,0 -0.25,0.438 0.25,0.406 h 0.5 l 0.25,-0.406 -0.25,-0.438 z m 2.156,0 -0.25,0.438 0.25,0.406 h 0.5 l 0.25,-0.406 -0.25,-0.438 z m 2.219,0 -0.25,0.438 0.25,0.406 h 0.5 l 0.25,-0.406 -0.25,-0.438 z m 2.219,0 -0.25,0.438 0.25,0.406 h 0.5 l 0.25,-0.406 -0.25,-0.438 z m 2.219,0 -0.25,0.438 0.25,0.406 h 0.5 l 0.25,-0.406 -0.25,-0.438 z m 2.156,0 -0.25,0.438 0.25,0.406 h 0.5 l 0.25,-0.406 -0.25,-0.438 z m 2.219,0 -0.25,0.438 0.25,0.406 h 0.5 l 0.25,-0.406 -0.25,-0.438 z m 2.188,0 -0.25,0.438 0.25,0.406 h 0.5 l 0.25,-0.406 -0.25,-0.438 z m 2.219,0 -0.25,0.438 0.25,0.406 h 0.5 l 0.25,-0.406 -0.25,-0.438 z m 2.156,0 -0.25,0.438 0.25,0.406 h 0.5 l 0.25,-0.406 -0.25,-0.438 z m 2.219,0 -0.25,0.438 0.25,0.406 h 0.5 l 0.25,-0.406 -0.25,-0.438 z m 2.188,0 -0.25,0.438 0.25,0.406 h 0.5 l 0.25,-0.406 -0.25,-0.438 z m 2.219,0 -0.25,0.438 0.25,0.406 h 0.5 l 0.25,-0.406 -0.25,-0.438 z m 2.188,0 -0.25,0.438 0.25,0.406 h 0.5 l 0.25,-0.406 -0.25,-0.438 z m 2.219,0 -0.25,0.438 0.25,0.406 h 0.094 v -0.844 z m -35.906,0.5 v 0.844 h 0.094 l 0.25,-0.406 -0.25,-0.438 z m 1.813,0 -0.25,0.438 0.25,0.406 h 0.5 l 0.25,-0.406 -0.25,-0.438 z m 2.156,0 -0.25,0.438 0.25,0.406 h 0.5 l 0.25,-0.406 -0.25,-0.438 z m 2.219,0 -0.25,0.438 0.25,0.406 h 0.5 l 0.25,-0.406 -0.25,-0.438 z m 2.188,0 -0.25,0.438 0.25,0.406 h 0.5 l 0.25,-0.406 -0.25,-0.438 z m 2.219,0 -0.25,0.438 0.25,0.406 h 0.5 l 0.25,-0.406 -0.25,-0.438 z m 2.188,0 -0.25,0.438 0.25,0.406 h 0.5 l 0.25,-0.406 -0.25,-0.438 z m 2.219,0 -0.25,0.438 0.25,0.406 h 0.5 l 0.25,-0.406 -0.25,-0.438 z m 2.188,0 -0.25,0.438 0.25,0.406 h 0.5 l 0.25,-0.406 -0.25,-0.438 z m 2.219,0 -0.25,0.438 0.25,0.406 h 0.5 l 0.25,-0.406 -0.25,-0.438 z m 2.156,0 -0.25,0.438 0.25,0.406 h 0.5 l 0.25,-0.406 -0.25,-0.438 z m 2.219,0 -0.25,0.438 0.25,0.406 h 0.5 l 0.25,-0.406 -0.25,-0.438 z m 2.188,0 -0.25,0.438 0.25,0.406 h 0.5 l 0.25,-0.406 -0.25,-0.438 z m 2.219,0 -0.25,0.438 0.25,0.406 h 0.5 l 0.25,-0.406 -0.25,-0.438 z m 2.188,0 -0.25,0.438 0.25,0.406 h 0.5 l 0.25,-0.406 -0.25,-0.438 z m 2.219,0 -0.25,0.438 0.25,0.406 h 0.5 l 0.25,-0.406 -0.25,-0.438 z m 2.156,0 -0.25,0.438 0.25,0.406 h 0.5 l 0.25,-0.406 -0.25,-0.438 z m -34.03,0.656 -0.25,0.438 0.25,0.406 h 0.5 l 0.25,-0.406 -0.25,-0.438 z m 2.188,0 -0.25,0.438 0.25,0.406 h 0.5 l 0.25,-0.406 -0.25,-0.438 z m 2.219,0 -0.25,0.438 0.25,0.406 h 0.5 l 0.25,-0.406 -0.25,-0.438 z m 2.156,0 -0.25,0.438 0.25,0.406 h 0.5 l 0.25,-0.406 -0.25,-0.438 z m 2.219,0 -0.25,0.438 0.25,0.406 h 0.5 l 0.25,-0.406 -0.25,-0.438 z m 2.219,0 -0.25,0.438 0.25,0.406 h 0.5 l 0.25,-0.406 -0.25,-0.438 z m 2.219,0 -0.25,0.438 0.25,0.406 h 0.5 l 0.25,-0.406 -0.25,-0.438 z m 2.156,0 -0.25,0.438 0.25,0.406 h 0.5 l 0.25,-0.406 -0.25,-0.438 z m 2.219,0 -0.25,0.438 0.25,0.406 h 0.5 l 0.25,-0.406 -0.25,-0.438 z m 2.188,0 -0.25,0.438 0.25,0.406 h 0.5 l 0.25,-0.406 -0.25,-0.438 z m 2.219,0 -0.25,0.438 0.25,0.406 h 0.5 l 0.25,-0.406 -0.25,-0.438 z m 2.156,0 -0.25,0.438 0.25,0.406 h 0.5 l 0.25,-0.406 -0.25,-0.438 z m 2.219,0 -0.25,0.438 0.25,0.406 h 0.5 l 0.25,-0.406 -0.25,-0.438 z m 2.188,0 -0.25,0.438 0.25,0.406 h 0.5 l 0.25,-0.406 -0.25,-0.438 z m 2.219,0 -0.25,0.438 0.25,0.406 h 0.5 l 0.25,-0.406 -0.25,-0.438 z m 2.188,0 -0.25,0.438 0.25,0.406 h 0.5 l 0.25,-0.406 -0.25,-0.438 z m 2.219,0 -0.25,0.438 0.25,0.406 h 0.094 v -0.844 z m -35.906,0.531 v 0.844 h 0.094 l 0.25,-0.438 -0.25,-0.406 z m 1.813,0 -0.25,0.406 0.25,0.438 h 0.5 l 0.25,-0.438 -0.25,-0.406 z m 2.156,0 -0.25,0.406 0.25,0.438 h 0.5 l 0.25,-0.438 -0.25,-0.406 z m 2.219,0 -0.25,0.406 0.25,0.438 h 0.5 l 0.25,-0.438 -0.25,-0.406 z m 2.188,0 -0.25,0.406 0.25,0.438 h 0.5 l 0.25,-0.438 -0.25,-0.406 z m 2.219,0 -0.25,0.406 0.25,0.438 h 0.5 l 0.25,-0.438 -0.25,-0.406 z m 2.188,0 -0.25,0.406 0.25,0.438 h 0.5 l 0.25,-0.438 -0.25,-0.406 z m 2.219,0 -0.25,0.406 0.25,0.438 h 0.5 l 0.25,-0.438 -0.25,-0.406 z m 2.188,0 -0.25,0.406 0.25,0.438 h 0.5 l 0.25,-0.438 -0.25,-0.406 z m 2.219,0 -0.25,0.406 0.25,0.438 h 0.5 l 0.25,-0.438 -0.25,-0.406 z m 2.156,0 -0.25,0.406 0.25,0.438 h 0.5 l 0.25,-0.438 -0.25,-0.406 z m 2.219,0 -0.25,0.406 0.25,0.438 h 0.5 l 0.25,-0.438 -0.25,-0.406 z m 2.188,0 -0.25,0.406 0.25,0.438 h 0.5 l 0.25,-0.438 -0.25,-0.406 z m 2.219,0 -0.25,0.406 0.25,0.438 h 0.5 l 0.25,-0.438 -0.25,-0.406 z m 2.188,0 -0.25,0.406 0.25,0.438 h 0.5 l 0.25,-0.438 -0.25,-0.406 z m 2.219,0 -0.25,0.406 0.25,0.438 h 0.5 l 0.25,-0.438 -0.25,-0.406 z m 2.156,0 -0.25,0.406 0.25,0.438 h 0.5 l 0.25,-0.438 -0.25,-0.406 z m -34.03,0.625 -0.25,0.438 0.25,0.438 h 0.5 l 0.25,-0.438 -0.25,-0.438 z m 2.188,0 -0.25,0.438 0.25,0.438 h 0.5 l 0.25,-0.438 -0.25,-0.438 z m 2.219,0 -0.25,0.438 0.25,0.438 h 0.5 l 0.25,-0.438 -0.25,-0.438 z m 2.156,0 -0.25,0.438 0.25,0.438 h 0.5 l 0.25,-0.438 -0.25,-0.438 z m 2.219,0 -0.25,0.438 0.25,0.438 h 0.5 l 0.25,-0.438 -0.25,-0.438 z m 2.219,0 -0.25,0.438 0.25,0.438 h 0.5 l 0.25,-0.438 -0.25,-0.438 z m 2.219,0 -0.25,0.438 0.25,0.438 h 0.5 l 0.25,-0.438 -0.25,-0.438 z m 2.156,0 -0.25,0.438 0.25,0.438 h 0.5 l 0.25,-0.438 -0.25,-0.438 z m 2.219,0 -0.25,0.438 0.25,0.438 h 0.5 l 0.25,-0.438 -0.25,-0.438 z m 2.188,0 -0.25,0.438 0.25,0.438 h 0.5 l 0.25,-0.438 -0.25,-0.438 z m 2.219,0 -0.25,0.438 0.25,0.438 h 0.5 l 0.25,-0.438 -0.25,-0.438 z m 2.156,0 -0.25,0.438 0.25,0.438 h 0.5 l 0.25,-0.438 -0.25,-0.438 z m 2.219,0 -0.25,0.438 0.25,0.438 h 0.5 l 0.25,-0.438 -0.25,-0.438 z m 2.188,0 -0.25,0.438 0.25,0.438 h 0.5 l 0.25,-0.438 -0.25,-0.438 z m 2.219,0 -0.25,0.438 0.25,0.438 h 0.5 l 0.25,-0.438 -0.25,-0.438 z m 2.188,0 -0.25,0.438 0.25,0.438 h 0.5 l 0.25,-0.438 -0.25,-0.438 z m 2.219,0 -0.25,0.438 0.25,0.438 h 0.094 v -0.875 z m -35.906,0.5 v 0.875 h 0.094 l 0.25,-0.438 -0.25,-0.438 z m 1.813,0 -0.25,0.438 0.25,0.438 h 0.5 l 0.25,-0.438 -0.25,-0.438 z m 2.156,0 -0.25,0.438 0.25,0.438 h 0.5 l 0.25,-0.438 -0.25,-0.438 z m 2.219,0 -0.25,0.438 0.25,0.438 h 0.5 l 0.25,-0.438 -0.25,-0.438 z m 2.188,0 -0.25,0.438 0.25,0.438 h 0.5 l 0.25,-0.438 -0.25,-0.438 z m 2.219,0 -0.25,0.438 0.25,0.438 h 0.5 l 0.25,-0.438 -0.25,-0.438 z m 2.188,0 -0.25,0.438 0.25,0.438 h 0.5 l 0.25,-0.438 -0.25,-0.438 z m 2.219,0 -0.25,0.438 0.25,0.438 h 0.5 l 0.25,-0.438 -0.25,-0.438 z m 2.188,0 -0.25,0.438 0.25,0.438 h 0.5 l 0.25,-0.438 -0.25,-0.438 z m 2.219,0 -0.25,0.438 0.25,0.438 h 0.5 l 0.25,-0.438 -0.25,-0.438 z m 2.156,0 -0.25,0.438 0.25,0.438 h 0.5 l 0.25,-0.438 -0.25,-0.438 z m 2.219,0 -0.25,0.438 0.25,0.438 h 0.5 l 0.25,-0.438 -0.25,-0.438 z m 2.188,0 -0.25,0.438 0.25,0.438 h 0.5 l 0.25,-0.438 -0.25,-0.438 z m 2.219,0 -0.25,0.438 0.25,0.438 h 0.5 l 0.25,-0.438 -0.25,-0.438 z m 2.188,0 -0.25,0.438 0.25,0.438 h 0.5 l 0.25,-0.438 -0.25,-0.438 z m 2.219,0 -0.25,0.438 0.25,0.438 h 0.5 l 0.25,-0.438 -0.25,-0.438 z m 2.156,0 -0.25,0.438 0.25,0.438 h 0.5 l 0.25,-0.438 -0.25,-0.438 z m -34.03,0.719 -0.25,0.438 0.25,0.438 h 0.5 l 0.25,-0.438 -0.25,-0.438 z m 2.188,0 -0.25,0.438 0.25,0.438 h 0.5 l 0.25,-0.438 -0.25,-0.438 z m 2.219,0 -0.25,0.438 0.25,0.438 h 0.5 l 0.25,-0.438 -0.25,-0.438 z m 2.156,0 -0.25,0.438 0.25,0.438 h 0.5 l 0.25,-0.438 -0.25,-0.438 z m 2.219,0 -0.25,0.438 0.25,0.438 h 0.5 l 0.25,-0.438 -0.25,-0.438 z m 2.219,0 -0.25,0.438 0.25,0.438 h 0.5 l 0.25,-0.438 -0.25,-0.438 z m 2.219,0 -0.25,0.438 0.25,0.438 h 0.5 l 0.25,-0.438 -0.25,-0.438 z m 2.156,0 -0.25,0.438 0.25,0.438 h 0.5 l 0.25,-0.438 -0.25,-0.438 z m 2.219,0 -0.25,0.438 0.25,0.438 h 0.5 l 0.25,-0.438 -0.25,-0.438 z m 2.188,0 -0.25,0.438 0.25,0.438 h 0.5 l 0.25,-0.438 -0.25,-0.438 z m 2.219,0 -0.25,0.438 0.25,0.438 h 0.5 l 0.25,-0.438 -0.25,-0.438 z m 2.156,0 -0.25,0.438 0.25,0.438 h 0.5 l 0.25,-0.438 -0.25,-0.438 z m 2.219,0 -0.25,0.438 0.25,0.438 h 0.5 l 0.25,-0.438 -0.25,-0.438 z m 2.188,0 -0.25,0.438 0.25,0.438 h 0.5 l 0.25,-0.438 -0.25,-0.438 z m 2.219,0 -0.25,0.438 0.25,0.438 h 0.5 l 0.25,-0.438 -0.25,-0.438 z m 2.188,0 -0.25,0.438 0.25,0.438 h 0.5 l 0.25,-0.438 -0.25,-0.438 z m 2.219,0 -0.25,0.438 0.25,0.438 h 0.094 v -0.875 z m -35.906,0.5 v 0.844 h 0.094 l 0.25,-0.406 -0.25,-0.438 z m 1.813,0 -0.25,0.438 0.25,0.406 h 0.5 l 0.25,-0.406 -0.25,-0.438 z m 2.156,0 -0.25,0.438 0.25,0.406 h 0.5 l 0.25,-0.406 -0.25,-0.438 z m 2.219,0 -0.25,0.438 0.25,0.406 h 0.5 l 0.25,-0.406 -0.25,-0.438 z m 2.188,0 -0.25,0.438 0.25,0.406 h 0.5 l 0.25,-0.406 -0.25,-0.438 z m 2.219,0 -0.25,0.438 0.25,0.406 h 0.5 l 0.25,-0.406 -0.25,-0.438 z m 2.188,0 -0.25,0.438 0.25,0.406 h 0.5 l 0.25,-0.406 -0.25,-0.438 z m 2.219,0 -0.25,0.438 0.25,0.406 h 0.5 l 0.25,-0.406 -0.25,-0.438 z m 2.188,0 -0.25,0.438 0.25,0.406 h 0.5 l 0.25,-0.406 -0.25,-0.438 z m 2.219,0 -0.25,0.438 0.25,0.406 h 0.5 l 0.25,-0.406 -0.25,-0.438 z m 2.156,0 -0.25,0.438 0.25,0.406 h 0.5 l 0.25,-0.406 -0.25,-0.438 z m 2.219,0 -0.25,0.438 0.25,0.406 h 0.5 l 0.25,-0.406 -0.25,-0.438 z m 2.188,0 -0.25,0.438 0.25,0.406 h 0.5 l 0.25,-0.406 -0.25,-0.438 z m 2.219,0 -0.25,0.438 0.25,0.406 h 0.5 l 0.25,-0.406 -0.25,-0.438 z m 2.188,0 -0.25,0.438 0.25,0.406 h 0.5 l 0.25,-0.406 -0.25,-0.438 z m 2.219,0 -0.25,0.438 0.25,0.406 h 0.5 l 0.25,-0.406 -0.25,-0.438 z m 2.156,0 -0.25,0.438 0.25,0.406 h 0.5 l 0.25,-0.406 -0.25,-0.438 z m -34.03,0.688 -0.178,0.313 h 0.855 l -0.178,-0.313 z m 2.188,0 -0.178,0.313 h 0.855 l -0.178,-0.313 z m 2.219,0 -0.178,0.313 h 0.855 l -0.178,-0.313 z m 2.156,0 -0.178,0.313 h 0.855 l -0.178,-0.313 z m 2.219,0 -0.178,0.313 h 0.855 l -0.178,-0.313 z m 2.219,0 -0.178,0.313 h 0.855 l -0.178,-0.313 z m 2.219,0 -0.178,0.313 h 0.855 l -0.178,-0.313 z m 2.156,0 -0.178,0.313 h 0.855 l -0.178,-0.313 z m 2.219,0 -0.178,0.313 h 0.855 l -0.178,-0.313 z m 2.188,0 -0.178,0.313 h 0.855 l -0.178,-0.313 z m 2.219,0 -0.178,0.313 h 0.855 l -0.178,-0.313 z m 2.156,0 -0.178,0.313 h 0.855 l -0.178,-0.313 z m 2.219,0 -0.178,0.313 h 0.855 l -0.178,-0.313 z m 2.188,0 -0.178,0.313 h 0.855 l -0.178,-0.313 z m 2.219,0 -0.178,0.313 h 0.855 l -0.178,-0.313 z m 2.188,0 -0.178,0.313 h 0.855 l -0.178,-0.313 z m 2.219,0 -0.178,0.313 h 0.271 v -0.313 z"
   id="path12201"
   style="color:#000000;fill-opacity:0.311;stroke-width:0.2"
   transform="matrix(-1.1933907,0,0,1.0739503,511.56115,-538.46628)" />
 <path
   style="fill:url(#a)"
   d="M 6,4 V 44 H 42 V 4 Z m 1,9 h 34 v 6 H 7 Z m 0,16 h 34 v 6 H 7 Z"
   transform="matrix(-1.1933907,0,0,1.0739503,52.618889,-1.7059201)"
   id="path12205" />
 <rect
   style="fill-opacity:0.471"
   width="34"
   x="391.57001"
   y="512.79999"
   height="1"
   id="rect12207"
   transform="matrix(-1.1933907,0,0,1.0739503,511.56115,-538.46628)" />
 <rect
   style="fill:#5599ff"
   width="3"
   x="393.57001"
   y="506.79999"
   height="1"
   id="rect12209"
   transform="matrix(-1.1933907,0,0,1.0739503,511.56115,-538.46628)" />
 <rect
   style="fill-opacity:0.471"
   width="34"
   x="391.57001"
   y="528.79999"
   height="1"
   id="rect12211"
   transform="matrix(-1.1933907,0,0,1.0739503,511.56115,-538.46628)" />
 <path
   style="opacity:0.4;fill:url(#c);fill-rule:evenodd"
   d="m 7,19 10,10 h 24 v 6 H 23 l 9,9 H 42 V 20.732 L 41,19 h -0.154 z"
   transform="matrix(-1.1933907,0,0,1.0739503,52.618889,-1.7059201)"
   id="path12213" />
 <rect
   style="fill:#5599ff"
   x="393.57001"
   y="523.29999"
   height="1"
   id="rect12215"
   width="3.0002222"
   transform="matrix(-1.1933907,0,0,1.0739503,511.56115,-538.46628)" />
 <rect
   style="fill:#5599ff"
   width="3"
   x="393.57001"
   y="539.29999"
   height="1"
   id="rect12217"
   transform="matrix(-1.1933907,0,0,1.0739503,511.56115,-538.46628)" />
 <rect
   style="fill:#080809"
   width="36"
   x="390.57001"
   y="542.79999"
   height="1"
   id="rect12219"
   transform="matrix(-1.1933907,0,0,1.0739503,511.56115,-538.46628)" />
 <path
   style="display:inline;mix-blend-mode:normal;fill:url(#linearGradient3403);fill-opacity:1;stroke:url(#linearGradient20558);stroke-width:1.16242;stroke-linecap:butt;stroke-linejoin:round;stroke-miterlimit:4;stroke-dasharray:none;stroke-opacity:1"
   d="M 4.7043071,3.9814882 4.6913695,60.80196 H 58.59546 l 1.022155,-2.866369 c 0,0 -23.87537,0.766388 -32.844441,-4.140386 C 16.257548,48.042344 11.401114,4.0978197 11.401114,4.0978197 Z"
   id="path1686"
   transform="matrix(0.7518797,0,0,0.7518797,0.09970467,0.02488636)" />
 <rect
   style="display:inline;fill:none;fill-opacity:1;stroke:url(#linearGradient4557);stroke-width:3.71366;stroke-linejoin:round;stroke-miterlimit:7.8;stroke-dasharray:none;stroke-opacity:0.995146"
   id="rect4539"
   width="62.567089"
   height="62.866646"
   x="1.0323594"
   y="0.59551275"
   ry="6.2447233"
   rx="5.8029528"
   transform="matrix(0.70434793,0,0,0.70291231,1.3629847,1.5442064)" />
 <path
   d="m 21.658503,21.606789 a 0.61528522,0.610158 0 0 0 -0.61653,0.611188 v 4.891553 a 0.61528522,0.610158 0 0 0 0.616322,0.611392 h 4.932658 a 0.61528522,0.610158 0 0 0 0.616323,-0.611392 v -4.891553 a 0.61528522,0.610158 0 0 0 -0.616323,-0.611188 z"
   id="path4"
   style="fill:none;stroke:#1c1c1c;stroke-width:0.609375;stroke-dasharray:none;stroke-opacity:1" />
 <path
   d="m 22.797974,20.418988 a 0.61528522,0.610158 0 0 0 -0.616322,0.611393 v 4.891553 a 0.61528522,0.610158 0 0 0 0.616322,0.611187 h 4.932658 a 0.61528522,0.610158 0 0 0 0.616322,-0.611187 v -4.891553 a 0.61528522,0.610158 0 0 0 -0.616322,-0.611187 h -4.932865"
   id="path5"
   style="fill:none;stroke:#363636;stroke-width:0.609375;stroke-dasharray:none;stroke-opacity:1" />
 <path
   d="M 23.64215,21.606789 H 21.591891"
   id="path6"
   style="stroke:#1c1c1c;stroke-width:0.609375;stroke-dasharray:none;stroke-opacity:1" />
</svg>
