<?xml version="1.0" encoding="UTF-8" standalone="no"?>
<!-- Created with Inkscape (http://www.inkscape.org/) -->

<svg
  width="48"
  height="48"
  version="1.1"
  viewBox="0 0 48 48"
  id="svg22"
  xmlns:xlink="http://www.w3.org/1999/xlink"
  xmlns="http://www.w3.org/2000/svg"
  xmlns:svg="http://www.w3.org/2000/svg">
 <defs
   id="defs12">
  <linearGradient
    id="linearGradient1005-3-3"
    x1="5.2535"
    x2="9.3823996"
    y1="15.383"
    y2="2.9421"
    gradientTransform="matrix(0.99999,0,0,0.99999,1.632,-0.61743)"
    gradientUnits="userSpaceOnUse">
   <stop
     stop-color="#fa8200"
     offset="0"
     id="stop2" />
   <stop
     stop-color="#ff9600"
     offset=".36953"
     id="stop4" />
   <stop
     stop-color="#ffb400"
     offset="1"
     id="stop6" />
  </linearGradient>
  <filter
    id="filter4014"
    x="-0.062499932"
    y="-0.057692992"
    width="1.1249999"
    height="1.115386"
    color-interpolation-filters="sRGB">
   <feGaussianBlur
     stdDeviation="1.093751"
     id="feGaussianBlur9" />
  </filter>
  <linearGradient
    xlink:href="#linearGradient3487"
    id="linearGradient3403"
    gradientUnits="userSpaceOnUse"
    x1="6.9491749"
    y1="4.5549412"
    x2="11.215498"
    y2="59.052471" />
  <linearGradient
    id="linearGradient3487">
   <stop
     style="stop-color:#32373c;stop-opacity:1"
     offset="0"
     id="stop3481" />
   <stop
     id="stop3483"
     offset="0.36804965"
     style="stop-color:#1a1a1a;stop-opacity:1" />
   <stop
     style="stop-color:#31363b;stop-opacity:1"
     offset="1"
     id="stop3485" />
  </linearGradient>
  <linearGradient
    xlink:href="#linearGradient20604"
    id="linearGradient20558"
    gradientUnits="userSpaceOnUse"
    x1="25.802212"
    y1="20.373846"
    x2="25.111048"
    y2="58.912758" />
  <linearGradient
    id="linearGradient20604">
   <stop
     id="stop20598"
     offset="0"
     style="stop-color:#3d3d3d;stop-opacity:1" />
   <stop
     style="stop-color:#000000;stop-opacity:1"
     offset="0.61772454"
     id="stop20600" />
   <stop
     id="stop20602"
     offset="1"
     style="stop-color:#3d3d3d;stop-opacity:1" />
  </linearGradient>
  <linearGradient
    gradientTransform="translate(0.36067797,-0.13016949)"
    xlink:href="#linearGradient4555"
    id="linearGradient4557"
    x1="43.499737"
    y1="64.011795"
    x2="44.141731"
    y2="0.30621234"
    gradientUnits="userSpaceOnUse" />
  <linearGradient
    id="linearGradient4555">
   <stop
     style="stop-color:#141618;stop-opacity:1"
     offset="0"
     id="stop4551" />
   <stop
     id="stop4559"
     offset="0.51820582"
     style="stop-color:#686868;stop-opacity:1" />
   <stop
     style="stop-color:#31363b;stop-opacity:1"
     offset="1"
     id="stop4553" />
  </linearGradient>
  <filter
    style="color-interpolation-filters:sRGB"
    id="filter4601"
    x="-0.029692165"
    width="1.0593843"
    y="-0.029550494"
    height="1.059101">
   <feGaussianBlur
     stdDeviation="0.00037933901"
     id="feGaussianBlur4603" />
  </filter>
  <linearGradient
    id="linearGradient1737"
    x1="26"
    x2="26"
    y1="-2.3248892"
    y2="36.339279"
    gradientTransform="matrix(1,0,0,0.97619054,-22.502366,-246.90532)"
    gradientUnits="userSpaceOnUse">
   <stop
     stop-color="#da4453"
     offset="0"
     id="stop1733" />
   <stop
     stop-color="#da4453"
     stop-opacity=".07522124"
     offset="1"
     id="stop1735"
     style="stop-color:#ec9da4;stop-opacity:1;" />
  </linearGradient>
 </defs>
 <rect
   style="display:inline;fill:#e7838d;fill-opacity:1;fill-rule:evenodd;stroke:none;stroke-width:0.92782;stroke-linejoin:round;stroke-miterlimit:7.8"
   id="rect1192"
   width="42.084602"
   height="42.712109"
   x="3.1629105"
   y="3.0184898"
   ry="0" />
 <g
   id="g857"
   transform="matrix(3.7795276,0,0,3.7795276,-69.473006,1.4794196)">
  <path
    d="M 24.897468,5.7838534 25.510065,4.5106596 24.954897,3.3511357 c 0,0 -0.12376,-0.344991 -0.525989,-0.344991 h -2.967719 c 0,0 -0.549191,0.053391 -0.451215,0.5444889 l 2.753713,5.8288621 c 0,0 0.407379,0.7647253 0.959154,0 l 2.406121,-5.0912336 c 0,0 0.09483,-0.2079863 0.19327,-0.2079863 h 1.376513 c 0,0 0.138553,-0.010838 0.07655,0.122986 -0.06198,0.1338358 -1.62079,3.4533747 -1.62079,3.4533747 0,0 -0.09296,0.2351091 -0.196906,0 L 26.419732,6.485635 25.827201,7.7479281 26.499257,9.200417 c 0,0 0.564652,1.173905 1.116376,0 0.551783,-1.1739032 2.663535,-5.60383 2.663535,-5.60383 0,0 0.293931,-0.590823 -0.381608,-0.590823 h -3.173357 c 0,0 -0.200562,0.00766 -0.317251,0.2497163 -0.116678,0.242347 -2.077508,4.4345685 -2.077508,4.4345685 0,0 -0.07294,0.1455857 -0.150419,0 -0.0775,-0.1455922 -1.652401,-3.4751835 -1.652401,-3.4751835 0,0 -0.07803,-0.1425866 0.130205,-0.1425866 h 1.310653 c 0,0 0.118509,-0.021045 0.216951,0.1941558 0.09846,0.2152274 0.712865,1.5173325 0.712865,1.5173325 z"
    fill="#ffffff"
    id="path221-3"
    style="stroke-width:0.96884" />
 </g>
 <path
   style="display:inline;mix-blend-mode:normal;fill:url(#linearGradient3403);fill-opacity:1;stroke:url(#linearGradient20558);stroke-width:1.16242;stroke-linecap:butt;stroke-linejoin:round;stroke-miterlimit:4;stroke-dasharray:none;stroke-opacity:1"
   d="M 4.7043071,3.9814882 4.6913695,60.80196 H 58.59546 l 1.022155,-2.866369 c 0,0 -23.87537,0.766388 -32.844441,-4.140386 C 16.257548,48.042344 11.401114,4.0978197 11.401114,4.0978197 Z"
   id="path1686"
   transform="matrix(0.7518797,0,0,0.7518797,0.09970467,0.02488636)" />
 <rect
   style="display:inline;fill:none;fill-opacity:1;stroke:url(#linearGradient4557);stroke-width:3.71366;stroke-linejoin:round;stroke-miterlimit:7.8;stroke-dasharray:none;stroke-opacity:0.995146"
   id="rect4539"
   width="62.566689"
   height="62.866646"
   x="1.0323594"
   y="0.59551275"
   ry="6.2447233"
   rx="5.8029528"
   transform="matrix(0.70434793,0,0,0.70291231,1.3629847,1.5442064)" />
</svg>
