<?xml version="1.0" encoding="UTF-8" standalone="no"?>
<!-- Created with Inkscape (http://www.inkscape.org/) -->

<svg
  width="48"
  height="48"
  version="1.1"
  viewBox="0 0 48 48"
  id="svg22"
  xmlns:xlink="http://www.w3.org/1999/xlink"
  xmlns="http://www.w3.org/2000/svg"
  xmlns:svg="http://www.w3.org/2000/svg">
 <defs
   id="defs12">
  <linearGradient
    id="linearGradient1005-3-3"
    x1="5.2535"
    x2="9.3823996"
    y1="15.383"
    y2="2.9421"
    gradientTransform="matrix(0.99999,0,0,0.99999,1.632,-0.61743)"
    gradientUnits="userSpaceOnUse">
   <stop
     stop-color="#fa8200"
     offset="0"
     id="stop2" />
   <stop
     stop-color="#ff9600"
     offset=".36953"
     id="stop4" />
   <stop
     stop-color="#ffb400"
     offset="1"
     id="stop6" />
  </linearGradient>
  <filter
    id="filter4014"
    x="-0.062499932"
    y="-0.057692992"
    width="1.1249999"
    height="1.115386"
    color-interpolation-filters="sRGB">
   <feGaussianBlur
     stdDeviation="1.093751"
     id="feGaussianBlur9" />
  </filter>
  <linearGradient
    xlink:href="#linearGradient3487"
    id="linearGradient3403"
    gradientUnits="userSpaceOnUse"
    x1="6.9491749"
    y1="4.5549412"
    x2="11.215498"
    y2="59.052471" />
  <linearGradient
    id="linearGradient3487">
   <stop
     style="stop-color:#32373c;stop-opacity:1"
     offset="0"
     id="stop3481" />
   <stop
     id="stop3483"
     offset="0.36804965"
     style="stop-color:#1a1a1a;stop-opacity:1" />
   <stop
     style="stop-color:#31363b;stop-opacity:1"
     offset="1"
     id="stop3485" />
  </linearGradient>
  <linearGradient
    xlink:href="#linearGradient20604"
    id="linearGradient20558"
    gradientUnits="userSpaceOnUse"
    x1="25.802212"
    y1="20.373846"
    x2="25.111048"
    y2="58.912758" />
  <linearGradient
    id="linearGradient20604">
   <stop
     id="stop20598"
     offset="0"
     style="stop-color:#3d3d3d;stop-opacity:1" />
   <stop
     style="stop-color:#000000;stop-opacity:1"
     offset="0.61772454"
     id="stop20600" />
   <stop
     id="stop20602"
     offset="1"
     style="stop-color:#3d3d3d;stop-opacity:1" />
  </linearGradient>
  <linearGradient
    gradientTransform="translate(0.36067797,-0.13016949)"
    xlink:href="#linearGradient4555"
    id="linearGradient4557"
    x1="43.499737"
    y1="64.011795"
    x2="44.141731"
    y2="0.30621234"
    gradientUnits="userSpaceOnUse" />
  <linearGradient
    id="linearGradient4555">
   <stop
     style="stop-color:#141618;stop-opacity:1"
     offset="0"
     id="stop4551" />
   <stop
     id="stop4559"
     offset="0.51820582"
     style="stop-color:#686868;stop-opacity:1" />
   <stop
     style="stop-color:#31363b;stop-opacity:1"
     offset="1"
     id="stop4553" />
  </linearGradient>
  <filter
    style="color-interpolation-filters:sRGB"
    id="filter4601"
    x="-0.029677892"
    width="1.0593558"
    y="-0.029536289"
    height="1.0590726">
   <feGaussianBlur
     stdDeviation="7.2481216e-06"
     id="feGaussianBlur4603" />
  </filter>
  <linearGradient
    xlink:href="#h"
    id="i"
    y1="513.71002"
    x1="392.47"
    y2="535.71997"
    gradientUnits="userSpaceOnUse"
    x2="391.54999"
    gradientTransform="matrix(-1.05579,0,0,1.04628,813.94,-24.685)" />
  <linearGradient
    id="h"
    y1="513.71002"
    x1="392.47"
    y2="535.71997"
    gradientUnits="userSpaceOnUse"
    x2="391.54999"
    gradientTransform="matrix(-1.05579,0,0,1.04628,839.94,-24.685)">
   <stop
     stop-color="#1c242a"
     id="stop10789" />
   <stop
     offset="1"
     stop-color="#2c3138"
     id="stop10791" />
  </linearGradient>
  <linearGradient
    y2="535.71997"
    x2="391.54999"
    y1="513.71002"
    x1="392.47"
    gradientTransform="matrix(-1.05579,0,0,1.04628,839.94,-24.685)"
    gradientUnits="userSpaceOnUse"
    id="linearGradient10873"
    xlink:href="#h" />
  <linearGradient
    id="f"
    x1="389.57001"
    gradientUnits="userSpaceOnUse"
    x2="427.57001"
    gradientTransform="matrix(0.70711,0.70711,-0.70711,0.70711,490.07,-135.58)">
   <stop
     stop-color="#fcfcfc"
     id="stop10779" />
   <stop
     offset="1"
     stop-color="#eff0f1"
     id="stop10781" />
  </linearGradient>
  <linearGradient
    id="g"
    y1="133.24001"
    x1="771.71997"
    y2="160.57001"
    x2="799.06"
    gradientUnits="userSpaceOnUse">
   <stop
     stop-color="#e5e7e8"
     id="stop10784" />
   <stop
     offset="1"
     stop-color="#dcdee0"
     id="stop10786" />
  </linearGradient>
  <linearGradient
    id="a"
    y1="512.95001"
    x1="392.22"
    y2="538.87"
    x2="430.91"
    gradientUnits="userSpaceOnUse"
    gradientTransform="matrix(1.05579,0,0,1.04628,-22.795,-24.685)">
   <stop
     stop-color="#303a44"
     id="stop10754" />
   <stop
     offset="1"
     stop-color="#525c68"
     id="stop10756" />
  </linearGradient>
  <linearGradient
    spreadMethod="reflect"
    id="b"
    y1="12.636"
    x1="11.08"
    y2="40.842999"
    x2="39.279999"
    gradientUnits="userSpaceOnUse"
    gradientTransform="matrix(1.07864,0,0,1.06893,-2.178,-1.825)">
   <stop
     stop-color="#f19519"
     id="stop10759" />
   <stop
     offset="1"
     stop-color="#fcdc4d"
     id="stop10761" />
  </linearGradient>
  <linearGradient
    id="c"
    y1="509.39999"
    x1="393.87"
    y2="513.10999"
    x2="398.44"
    gradientUnits="userSpaceOnUse"
    gradientTransform="matrix(1.05579,0,0,1.04628,-4.098,-6.327)">
   <stop
     stop-color="#292c2f"
     id="stop10764" />
   <stop
     offset="1"
     stop-opacity="0"
     id="stop10766" />
  </linearGradient>
  <linearGradient
    id="d"
    y1="517.94"
    x1="414.5"
    y2="535.71997"
    gradientUnits="userSpaceOnUse"
    x2="391.54999"
    gradientTransform="matrix(-1.05579,0,0,1.04628,839.94,-24.685)">
   <stop
     stop-color="#0a0d0f"
     id="stop10769" />
   <stop
     offset="1"
     stop-color="#808c9b"
     id="stop10771" />
  </linearGradient>
  <linearGradient
    spreadMethod="reflect"
    id="e"
    y1="12.636"
    x1="11.08"
    y2="40.842999"
    gradientUnits="userSpaceOnUse"
    x2="39.279999"
    gradientTransform="matrix(-1.07864,0,0,1.06893,50.18,-1.825)">
   <stop
     stop-color="#f19b19"
     id="stop10774" />
   <stop
     offset="1"
     stop-color="#ffd92e"
     id="stop10776" />
  </linearGradient>
 </defs>
 <g
   id="g911"
   transform="matrix(0.65853801,0,0,0.65853801,3.6198874,2.2261285)">
  <rect
    y="0.60077608"
    x="1.033034"
    height="62.866646"
    width="62.567139"
    id="rect4539-1"
    style="opacity:1;fill:#ebebeb;fill-opacity:1;stroke:none;stroke-width:1.146;stroke-linejoin:round;stroke-miterlimit:7.8;stroke-dasharray:none;stroke-opacity:0.995146" />
  <g
    transform="matrix(1.33,0,0,1.33,-506.74893,-664.819)"
    id="g10825">
   <g
     style="color:#000000;stroke-width:3;stroke-linejoin:round"
     id="g10801">
    <path
      style="fill:url(#i)"
      d="m 389.57,510.8 v 25 l 12.02,0.042 -0.021,-25.04 z"
      id="path10797" />
    <path
      style="fill:url(#linearGradient10873)"
      d="m 414.91,510.8 0.021,25.04 H 426.6 l -0.021,-25.04 z"
      id="path10799" />
   </g>
   <g
     style="stroke-width:8.587;stroke-opacity:0.55"
     transform="matrix(1.0508,0,0,1.0508,-20.807,-27.27)"
     id="g10809">
    <path
      style="opacity:0.4;fill:#f9f9f9"
      d="m 408.59,516.71 c -1.788,0 -3.576,0.685 -4.945,2.055 -2.74,2.74 -2.74,7.151 0,9.891 2.74,2.74 7.151,2.74 9.891,0 2.74,-2.74 2.74,-7.151 0,-9.891 -1.37,-1.37 -3.158,-2.055 -4.945,-2.055 m -0.002,3.95508 a 3.00255,3.00255 0 0 1 3.002,3.0039 3.00255,3.00255 0 0 1 -3.00195,3.00196 3.00255,3.00255 0 0 1 -3.00391,-3.00196 3.00255,3.00255 0 0 1 3.00391,-3.0039"
      id="path10803" />
    <path
      style="fill:url(#f)"
      d="m 408.59,504.69 c -4.857,0 -9.714,1.861 -13.436,5.582 -7.443,7.443 -7.443,19.428 0,26.871 7.443,7.443 19.428,7.443 26.871,0 7.443,-7.443 7.443,-19.428 0,-26.871 -3.721,-3.721 -8.579,-5.582 -13.436,-5.582 m 0,13.02 c 1.532,0 3.064,0.588 4.238,1.762 2.348,2.348 2.348,6.128 0,8.477 -2.348,2.348 -6.128,2.348 -8.477,0 -2.348,-2.348 -2.348,-6.128 0,-8.477 1.174,-1.174 2.706,-1.762 4.238,-1.762"
      id="path10805" />
    <path
      style="fill:url(#g)"
      d="m 408.77659,512.70843 a 11,11 0 0 0 -0.7793,0.0273 11,11 0 0 0 -1.08984,0.13281 11,11 0 0 0 -1.07422,0.24024 11,11 0 0 0 -1.04297,0.34765 11,11 0 0 0 -1.0039,0.44727 11,11 0 0 0 -0.95313,0.54883 11,11 0 0 0 -0.89453,0.63867 11,11 0 0 0 -0.82617,0.72656 11,11 0 0 0 -0.74805,0.80469 11,11 0 0 0 -0.66602,0.875 11,11 0 0 0 -0.57421,0.9375 11,11 0 0 0 -0.47852,0.99023 11,11 0 0 0 -0.37891,1.03321 11,11 0 0 0 -0.27148,1.06445 11,11 0 0 0 -0.16406,1.08594 11,11 0 0 0 -0.0547,1.09961 11,11 0 0 0 0.0273,0.7793 11,11 0 0 0 0.13281,1.08984 11,11 0 0 0 0.24219,1.07422 11,11 0 0 0 0.3457,1.04297 11,11 0 0 0 0.44727,1.0039 11,11 0 0 0 0.54883,0.95313 11,11 0 0 0 0.64062,0.89453 11,11 0 0 0 0.72461,0.82617 11,11 0 0 0 0.80469,0.74805 11,11 0 0 0 0.875,0.66602 11,11 0 0 0 0.9375,0.57421 11,11 0 0 0 0.99023,0.47852 11,11 0 0 0 1.03321,0.37891 11,11 0 0 0 1.06445,0.27148 11,11 0 0 0 1.08594,0.16406 11,11 0 0 0 1.09961,0.0547 11,11 0 0 0 0.7793,-0.0273 11,11 0 0 0 1.08984,-0.13281 11,11 0 0 0 1.07422,-0.24219 11,11 0 0 0 1.04297,-0.3457 11,11 0 0 0 1.0039,-0.44727 11,11 0 0 0 0.95313,-0.54883 11,11 0 0 0 0.89453,-0.64062 11,11 0 0 0 0.82617,-0.72461 11,11 0 0 0 0.74805,-0.80469 11,11 0 0 0 0.66601,-0.875 11,11 0 0 0 0.57422,-0.9375 11,11 0 0 0 0.47852,-0.99023 11,11 0 0 0 0.37891,-1.03321 11,11 0 0 0 0.27148,-1.06445 11,11 0 0 0 0.16406,-1.08594 11,11 0 0 0 0.0547,-1.09961 11,11 0 0 0 -0.0273,-0.7793 11,11 0 0 0 -0.13281,-1.08984 11,11 0 0 0 -0.24219,-1.07422 11,11 0 0 0 -0.3457,-1.04297 11,11 0 0 0 -0.44727,-1.0039 11,11 0 0 0 -0.54883,-0.95313 11,11 0 0 0 -0.63867,-0.89453 11,11 0 0 0 -0.72656,-0.82617 11,11 0 0 0 -0.80469,-0.74805 11,11 0 0 0 -0.875,-0.66601 11,11 0 0 0 -0.9375,-0.57422 11,11 0 0 0 -0.99024,-0.47852 11,11 0 0 0 -1.0332,-0.37891 11,11 0 0 0 -1.06445,-0.27148 11,11 0 0 0 -1.08594,-0.16406 11,11 0 0 0 -1.09961,-0.0547 m -0.191,4.998 c 1.533,0 3.068,0.585 4.242,1.76 2.349,2.349 2.349,6.135 0,8.484 -2.349,2.349 -6.133,2.349 -8.482,0 -2.349,-2.349 -2.349,-6.135 0,-8.484 1.175,-1.175 2.707,-1.76 4.24,-1.76"
      id="path10807" />
   </g>
   <path
     style="fill:#bdc3c7;stroke-width:2.8;stroke-opacity:0.55"
     d="m 388.58,523.3 c -0.004,0.167 -0.012,0.332 -0.012,0.5 0,11.08 8.92,20 20,20 11.08,0 20,-8.92 20,-20 0,-0.168 -0.008,-0.333 -0.012,-0.5 -0.264,10.847 -9.08,19.5 -19.988,19.5 -10.912,0 -19.724,-8.653 -19.988,-19.5"
     id="path10811" />
   <g
     style="color:#000000;stroke-width:3;stroke-linejoin:round"
     id="g10823">
    <path
      style="fill:url(#a)"
      d="m 395.57,504.8 31,31 -6,6 -31,-31 z"
      id="path10813" />
    <path
      style="fill:url(#b)"
      d="m 10,7 -3,3 2,2 3,-3 z m 3,3 -3,3 4,4 3,-3 z m 5,5 -3,3 4,4 3,-3 z m 5.238,4.738 -3.051,3.02 4.574,4.533 3.053,-3.02 z M 28,25 l -3,3 4,4 3,-3 z m 5,5 -3,3 4,4 3,-3 z m 5,5 -3,3 2,2 3,-3 z"
      transform="translate(384.57,499.8)"
      id="path10815" />
    <path
      style="opacity:0.671;fill:url(#c)"
      d="m 414.07,523.3 -6,6 8.5,8.5 6,-6 z"
      id="path10817" />
    <path
      style="fill:url(#d)"
      d="m 420.57,504.8 -31,31 6,6 31,-30.997 z"
      id="path10819" />
    <path
      style="fill:url(#e)"
      d="m 37,7 -2,2 3,3 2,-2 z m -3,3 -4,4 3,3 4,-4 z m -5,5 -4,4 3,3 4,-4 z m -5,5 -4,4 3,3 4,-4 z m -5,5 -4,4 3,3 4,-4 z m -5,5 -4,4 3,3 4,-4 z m -5,5 -2,2 3,3 2,-2 z"
      transform="translate(384.57,499.8)"
      id="path10821" />
   </g>
  </g>
 </g>
 <path
   style="display:inline;mix-blend-mode:normal;fill:url(#linearGradient3403);fill-opacity:1;stroke:url(#linearGradient20558);stroke-width:1.16242;stroke-linecap:butt;stroke-linejoin:round;stroke-miterlimit:4;stroke-dasharray:none;stroke-opacity:1"
   d="M 4.7043071,3.9814882 4.6913695,60.80196 H 58.59546 l 1.022155,-2.866369 c 0,0 -23.87537,0.766388 -32.844441,-4.140386 C 16.257548,48.042344 11.401114,4.0978197 11.401114,4.0978197 Z"
   id="path1686"
   transform="matrix(0.7518797,0,0,0.7518797,0.09970467,0.02488636)" />
 <rect
   style="display:inline;fill:none;fill-opacity:1;stroke:url(#linearGradient4557);stroke-width:3.71366;stroke-linejoin:round;stroke-miterlimit:7.8;stroke-dasharray:none;stroke-opacity:0.995146"
   id="rect4539"
   width="62.566689"
   height="62.866646"
   x="1.0323594"
   y="0.59551275"
   ry="6.2447233"
   rx="5.8029528"
   transform="matrix(0.70434793,0,0,0.70291231,1.3629847,1.5442064)" />
</svg>
