<?xml version="1.0" encoding="UTF-8" standalone="no"?>
<!-- Created with Inkscape (http://www.inkscape.org/) -->

<svg
  width="48"
  height="48"
  version="1.1"
  viewBox="0 0 48 48"
  id="svg22"
  xmlns:xlink="http://www.w3.org/1999/xlink"
  xmlns="http://www.w3.org/2000/svg"
  xmlns:svg="http://www.w3.org/2000/svg">
 <defs
   id="defs12">
  <linearGradient
    id="linearGradient1005-3-3"
    x1="5.2535"
    x2="9.3823996"
    y1="15.383"
    y2="2.9421"
    gradientTransform="matrix(0.99999,0,0,0.99999,1.632,-0.61743)"
    gradientUnits="userSpaceOnUse">
   <stop
     stop-color="#fa8200"
     offset="0"
     id="stop2" />
   <stop
     stop-color="#ff9600"
     offset=".36953"
     id="stop4" />
   <stop
     stop-color="#ffb400"
     offset="1"
     id="stop6" />
  </linearGradient>
  <filter
    id="filter4014"
    x="-0.062499932"
    y="-0.057692992"
    width="1.1249999"
    height="1.115386"
    color-interpolation-filters="sRGB">
   <feGaussianBlur
     stdDeviation="1.093751"
     id="feGaussianBlur9" />
  </filter>
  <linearGradient
    xlink:href="#linearGradient3487"
    id="linearGradient3403"
    gradientUnits="userSpaceOnUse"
    x1="6.9491749"
    y1="4.5549412"
    x2="11.215498"
    y2="59.052471" />
  <linearGradient
    id="linearGradient3487">
   <stop
     style="stop-color:#32373c;stop-opacity:1"
     offset="0"
     id="stop3481" />
   <stop
     id="stop3483"
     offset="0.36804965"
     style="stop-color:#1a1a1a;stop-opacity:1" />
   <stop
     style="stop-color:#31363b;stop-opacity:1"
     offset="1"
     id="stop3485" />
  </linearGradient>
  <linearGradient
    xlink:href="#linearGradient20604"
    id="linearGradient20558"
    gradientUnits="userSpaceOnUse"
    x1="25.802212"
    y1="20.373846"
    x2="25.111048"
    y2="58.912758" />
  <linearGradient
    id="linearGradient20604">
   <stop
     id="stop20598"
     offset="0"
     style="stop-color:#3d3d3d;stop-opacity:1" />
   <stop
     style="stop-color:#000000;stop-opacity:1"
     offset="0.61772454"
     id="stop20600" />
   <stop
     id="stop20602"
     offset="1"
     style="stop-color:#3d3d3d;stop-opacity:1" />
  </linearGradient>
  <linearGradient
    gradientTransform="translate(0.36067797,-0.13016949)"
    xlink:href="#linearGradient4555"
    id="linearGradient4557"
    x1="43.499737"
    y1="64.011795"
    x2="44.141731"
    y2="0.30621234"
    gradientUnits="userSpaceOnUse" />
  <linearGradient
    id="linearGradient4555">
   <stop
     style="stop-color:#141618;stop-opacity:1"
     offset="0"
     id="stop4551" />
   <stop
     id="stop4559"
     offset="0.51820582"
     style="stop-color:#686868;stop-opacity:1" />
   <stop
     style="stop-color:#31363b;stop-opacity:1"
     offset="1"
     id="stop4553" />
  </linearGradient>
  <filter
    style="color-interpolation-filters:sRGB"
    id="filter4601"
    x="-0.029678062"
    width="1.0593561"
    y="-0.029536459"
    height="1.0590729">
   <feGaussianBlur
     stdDeviation="1.1698865e-05"
     id="feGaussianBlur4603" />
  </filter>
  <linearGradient
    xlink:href="#a"
    id="linearGradient4574"
    x1="25"
    y1="44"
    x2="25"
    y2="4"
    gradientUnits="userSpaceOnUse" />
  <linearGradient
    id="a"
    y1="543.77002"
    x1="407.63"
    y2="504.13"
    x2="407.69"
    gradientUnits="userSpaceOnUse"
    gradientTransform="translate(-384.57,-499.8)"
    spreadMethod="pad">
   <stop
     stop-color="#c6cdd1"
     id="stop10127" />
   <stop
     offset="1"
     stop-color="#e0e5e7"
     id="stop10129" />
  </linearGradient>
  <linearGradient
    xlink:href="#a-5"
    id="linearGradient4582"
    x1="10.973"
    y1="24"
    x2="36.937"
    y2="24"
    gradientUnits="userSpaceOnUse"
    gradientTransform="matrix(1.0014118,0,0,1.0025662,0.01122552,0.43837376)" />
  <linearGradient
    gradientUnits="userSpaceOnUse"
    x2="0"
    y2="503.79999"
    y1="542.79999"
    id="a-5">
   <stop
     stop-color="#2a2c2f"
     id="stop10146" />
   <stop
     stop-color="#424649"
     offset="1"
     id="stop10148" />
  </linearGradient>
  <linearGradient
    xlink:href="#LO"
    id="linearGradient4586"
    gradientUnits="userSpaceOnUse"
    gradientTransform="matrix(0.08823783,0,0,0.08717268,-18.921205,3.3914604)"
    x1="319.20801"
    y1="235.149"
    x2="657.65302"
    y2="269.49399" />
  <linearGradient
    id="LO"
    gradientUnits="userSpaceOnUse"
    x1="319.20801"
    y1="235.149"
    x2="657.65302"
    y2="269.49399">
   <stop
     style="stop-color:#e54c18"
     offset="0"
     id="stop10137" />
   <stop
     style="stop-color:#fec350"
     offset="1"
     id="stop10139" />
  </linearGradient>
 </defs>
 <g
   id="g880"
   transform="matrix(1.0563641,0,0,1.0614085,-0.32117683,-2.2828345)">
  <rect
    style="fill:url(#linearGradient4574);fill-opacity:1"
    width="40"
    height="40"
    x="4"
    y="4"
    rx="3"
    id="rect10153" />
  <path
    d="M 11.289781,37.990877 21.106604,25.140893 11,11.012001 l 6.495906,0.0054 8.053174,11.109597 -12.041156,15.863875 H 11.289781 Z M 30.503991,38 22.506415,26.871331 34.647838,11 h 2.163265 L 26.954217,23.910613 37,38 Z"
    style="fill:url(#linearGradient4582);fill-opacity:1"
    id="path10159" />
  <path
    d="m 23.998621,15.929203 c -0.780996,0 -1.615396,0.05974 -2.366548,0.13098 1.338208,1.724274 2.448606,3.184374 3.726536,4.842605 -0.717264,-1.524905 -2.191443,-2.987197 -1.68181,-3.739243 0.504471,-0.744427 1.433959,-0.619128 1.50476,-0.619128 1.490204,0 2.924665,0.166272 4.265748,0.474001 l 0.314347,-0.427691 c -1.788652,-0.45489 -3.731444,-0.661524 -5.763033,-0.661524 z m 8.071004,1.391595 -0.28953,0.408622 c 4.131807,1.598454 6.926669,4.651561 6.926669,8.150646 0,5.152431 -6.058837,9.332924 -13.525205,9.332924 -7.466367,0 -13.527962,-4.180494 -13.527962,-9.332924 1e-6,-2.805893 1.797544,-5.32451 4.640758,-7.03647 l -0.874106,-1.315762 c -4.460081,1.868269 -7.4202488,5.147514 -7.4202497,8.880716 0,5.808636 7.1668967,10.520653 15.9986217,10.520653 8.831723,0 16.001378,-4.712016 16.001379,-10.520653 0,-3.873337 -3.187376,-7.260827 -7.930375,-9.087752 z"
    style="fill:url(#linearGradient4586);fill-opacity:1"
    id="path10169" />
 </g>
 <path
   style="display:inline;mix-blend-mode:normal;fill:url(#linearGradient3403);fill-opacity:1;stroke:url(#linearGradient20558);stroke-width:1.16242;stroke-linecap:butt;stroke-linejoin:round;stroke-miterlimit:4;stroke-dasharray:none;stroke-opacity:1"
   d="M 4.7043071,3.9814882 4.6913695,60.80196 H 58.59546 l 1.022155,-2.866369 c 0,0 -23.87537,0.766388 -32.844441,-4.140386 C 16.257548,48.042344 11.401114,4.0978197 11.401114,4.0978197 Z"
   id="path1686"
   transform="matrix(0.7518797,0,0,0.7518797,0.09970467,0.02488636)" />
 <rect
   style="display:inline;fill:none;fill-opacity:1;stroke:url(#linearGradient4557);stroke-width:3.71366;stroke-linejoin:round;stroke-miterlimit:7.8;stroke-dasharray:none;stroke-opacity:0.995146"
   id="rect4539"
   width="62.566689"
   height="62.866646"
   x="1.0323594"
   y="0.59551275"
   ry="6.2447233"
   rx="5.8029528"
   transform="matrix(0.70434793,0,0,0.70291231,1.3629847,1.5442064)" />
</svg>
