<?xml version="1.0" encoding="UTF-8" standalone="no"?>
<!-- Created with Inkscape (http://www.inkscape.org/) -->

<svg
  width="48"
  height="48"
  version="1.1"
  viewBox="0 0 48 48"
  id="svg22"
  xmlns:xlink="http://www.w3.org/1999/xlink"
  xmlns="http://www.w3.org/2000/svg"
  xmlns:svg="http://www.w3.org/2000/svg">
 <defs
   id="defs12">
  <linearGradient
    id="linearGradient917">
   <stop
     style="stop-color:#000000;stop-opacity:0.99607843"
     offset="0"
     id="stop913" />
   <stop
     style="stop-color:#353a3f;stop-opacity:0.99607843"
     offset="1"
     id="stop915" />
  </linearGradient>
  <linearGradient
    id="linearGradient1005-3-3"
    x1="5.2535"
    x2="9.3823996"
    y1="15.383"
    y2="2.9421"
    gradientTransform="matrix(0.99999,0,0,0.99999,1.632,-0.61743)"
    gradientUnits="userSpaceOnUse">
   <stop
     stop-color="#fa8200"
     offset="0"
     id="stop2" />
   <stop
     stop-color="#ff9600"
     offset=".36953"
     id="stop4" />
   <stop
     stop-color="#ffb400"
     offset="1"
     id="stop6" />
  </linearGradient>
  <filter
    id="filter4014"
    x="-0.062499932"
    y="-0.057692992"
    width="1.1249999"
    height="1.115386"
    color-interpolation-filters="sRGB">
   <feGaussianBlur
     stdDeviation="1.093751"
     id="feGaussianBlur9" />
  </filter>
  <linearGradient
    xlink:href="#linearGradient3487"
    id="linearGradient3403"
    gradientUnits="userSpaceOnUse"
    x1="6.9491749"
    y1="4.5549412"
    x2="11.215498"
    y2="59.052471" />
  <linearGradient
    id="linearGradient3487">
   <stop
     style="stop-color:#32373c;stop-opacity:1"
     offset="0"
     id="stop3481" />
   <stop
     id="stop3483"
     offset="0.36804965"
     style="stop-color:#1a1a1a;stop-opacity:1" />
   <stop
     style="stop-color:#31363b;stop-opacity:1"
     offset="1"
     id="stop3485" />
  </linearGradient>
  <linearGradient
    xlink:href="#linearGradient20604"
    id="linearGradient20558"
    gradientUnits="userSpaceOnUse"
    x1="25.802212"
    y1="20.373846"
    x2="25.111048"
    y2="58.912758" />
  <linearGradient
    id="linearGradient20604">
   <stop
     id="stop20598"
     offset="0"
     style="stop-color:#3d3d3d;stop-opacity:1" />
   <stop
     style="stop-color:#000000;stop-opacity:1"
     offset="0.61772454"
     id="stop20600" />
   <stop
     id="stop20602"
     offset="1"
     style="stop-color:#3d3d3d;stop-opacity:1" />
  </linearGradient>
  <linearGradient
    gradientTransform="translate(0.36067797,-0.13016949)"
    xlink:href="#linearGradient4555"
    id="linearGradient4557"
    x1="43.499737"
    y1="64.011795"
    x2="44.141731"
    y2="0.30621234"
    gradientUnits="userSpaceOnUse" />
  <linearGradient
    id="linearGradient4555">
   <stop
     style="stop-color:#141618;stop-opacity:1"
     offset="0"
     id="stop4551" />
   <stop
     id="stop4559"
     offset="0.51820582"
     style="stop-color:#686868;stop-opacity:1" />
   <stop
     style="stop-color:#31363b;stop-opacity:1"
     offset="1"
     id="stop4553" />
  </linearGradient>
  <filter
    style="color-interpolation-filters:sRGB"
    id="filter4601"
    x="-0.029677686"
    width="1.0593554"
    y="-0.029536084"
    height="1.0590722">
   <feGaussianBlur
     stdDeviation="1.8827169e-06"
     id="feGaussianBlur4603" />
  </filter>
  <linearGradient
    xlink:href="#linearGradient917"
    id="linearGradient919"
    x1="7.400631"
    y1="41.743092"
    x2="33.063145"
    y2="7.1074457"
    gradientUnits="userSpaceOnUse" />
  <linearGradient
    id="b"
    gradientTransform="matrix(1,0,0,1.08333,384.57,492.96)"
    gradientUnits="userSpaceOnUse"
    x1="25.07"
    x2="25"
    y1="33.844002"
    y2="10">
   <stop
     offset="0"
     stop-color="#73ba25"
     id="stop14" />
   <stop
     offset="1"
     stop-color="#96cb5c"
     id="stop16" />
  </linearGradient>
  <linearGradient
    id="c"
    gradientTransform="translate(-1)"
    gradientUnits="userSpaceOnUse"
    x1="11"
    x2="35"
    xlink:href="#a"
    y1="10"
    y2="34" />
  <linearGradient
    id="a"
    gradientTransform="translate(384.57,500.8)"
    gradientUnits="userSpaceOnUse"
    x1="10"
    x2="15"
    y1="36"
    y2="41">
   <stop
     offset="0"
     stop-color="#292c2f"
     id="stop8" />
   <stop
     offset="1"
     stop-opacity="0"
     id="stop10" />
  </linearGradient>
  <linearGradient
    id="d"
    gradientTransform="translate(384.57,499.8)"
    gradientUnits="userSpaceOnUse"
    x2="0"
    y1="20"
    y2="44">
   <stop
     offset="0"
     stop-color="#eff0f1"
     id="stop3" />
   <stop
     offset="1"
     stop-color="#bdc3c7"
     id="stop5" />
  </linearGradient>
  <linearGradient
    id="e"
    gradientTransform="translate(398.67,500.8)"
    gradientUnits="userSpaceOnUse"
    x1="9.9049997"
    x2="14.905"
    xlink:href="#a"
    y1="36"
    y2="41" />
  <linearGradient
    xlink:href="#a"
    id="linearGradient918"
    gradientUnits="userSpaceOnUse"
    gradientTransform="translate(384.57,500.8)"
    x1="10"
    y1="36"
    x2="15"
    y2="41" />
 </defs>
 <rect
   style="display:inline;fill:url(#linearGradient919);fill-opacity:1;fill-rule:evenodd;stroke:none;stroke-width:0.92782;stroke-linejoin:round;stroke-miterlimit:7.8"
   id="rect1192"
   width="42.084602"
   height="42.712109"
   x="3.1629105"
   y="3.0184898"
   ry="0" />
 <g
   id="g873"
   transform="translate(0.92497915,-0.41451886)">
  <path
    d="m 392.57,503.8 h 32 v 26 h -32 z"
    fill="url(#b)"
    transform="translate(-384.57,-499.8)"
    id="path19"
    style="fill:url(#b)" />
  <path
    d="m 24,10 16,16 v 4 H 29 l -6,-6 z"
    fill="url(#c)"
    opacity="0.2"
    id="path21"
    style="fill:url(#c)" />
  <path
    d="M 23,24 V 14 L 18.5,18.5 17,17 24,10 31,17 29.5,18.5 25,14 v 10 z"
    fill="#fcfcfc"
    id="path23" />
  <path
    d="m 24,34 c -1.662,0 -3,1.338 -3,3 0,1.662 1.338,3 3,3 a 2.993,2.993 0 0 0 2.813,-2 h 8.375 a 2.99,2.99 0 0 0 5.813,-1 c 0,-1.662 -1.338,-3 -3,-3 a 2.993,2.993 0 0 0 -2.813,2 H 26.813 A 2.99,2.99 0 0 0 24,34"
    fill="#232629"
    opacity="0.2"
    id="path25" />
  <path
    d="m 388.57,529.8 v 14 h 40 v -14 z"
    fill="url(#d)"
    transform="translate(-384.57,-499.8)"
    id="path27"
    style="fill:url(#d)" />
  <path
    d="m 26.81,38 h 8.375 a 2.99,2.99 0 0 0 5.813,-1 c 0,-1.662 -1.338,-3 -3,-3 a 2.993,2.993 0 0 0 -2.813,2 H 26.81 c 0.188,1 0.188,1 0,2"
    fill="#4d4d4d"
    opacity="0.779"
    id="path29" />
  <path
    d="m 406.67,539.13 4.762,4.667 h 8.143 l -9.143,-9.429 z"
    fill="url(#e)"
    opacity="0.2"
    transform="translate(-384.57,-499.8)"
    id="path31"
    style="fill:url(#e)" />
  <path
    d="m 392.57,539.13 4.619,4.667 h 13.381 l -4.867,-6.937 -7.133,-0.067 -2.238,-2.425 z"
    fill="url(#a)"
    opacity="0.2"
    transform="translate(-384.57,-499.8)"
    id="path33"
    style="fill:url(#linearGradient918)" />
  <path
    d="m 10,34 c -1.662,0 -3,1.338 -3,3 0,1.662 1.338,3 3,3 a 2.993,2.993 0 0 0 2.813,-2 h 8.375 a 2.99,2.99 0 0 0 5.813,-1 c 0,-1.662 -1.338,-3 -3,-3 a 2.993,2.993 0 0 0 -2.813,2 H 12.813 A 2.99,2.99 0 0 0 10,34"
    fill="#35b9ab"
    id="path35" />
  <path
    d="m 4,43 h 40 v 1 H 4 Z"
    fill="#95a5a6"
    id="path37" />
  <path
    d="m 4,30 h 40 v 1 H 4 Z"
    fill="#eff0f1"
    id="path39" />
 </g>
 <path
   style="display:inline;mix-blend-mode:normal;fill:url(#linearGradient3403);fill-opacity:1;stroke:url(#linearGradient20558);stroke-width:1.16242;stroke-linecap:butt;stroke-linejoin:round;stroke-miterlimit:4;stroke-dasharray:none;stroke-opacity:1"
   d="M 4.7043071,3.9814882 4.6913695,60.80196 H 58.59546 l 1.022155,-2.866369 c 0,0 -23.87537,0.766388 -32.844441,-4.140386 C 16.257548,48.042344 11.401114,4.0978197 11.401114,4.0978197 Z"
   id="path1686"
   transform="matrix(0.7518797,0,0,0.7518797,0.09970467,0.02488636)" />
 <rect
   style="display:inline;fill:none;fill-opacity:1;stroke:url(#linearGradient4557);stroke-width:3.71366;stroke-linejoin:round;stroke-miterlimit:7.8;stroke-dasharray:none;stroke-opacity:0.995146"
   id="rect4539"
   width="62.566689"
   height="62.866646"
   x="1.0323594"
   y="0.59551275"
   ry="6.2447233"
   rx="5.8029528"
   transform="matrix(0.70434793,0,0,0.70291231,1.3629847,1.5442064)" />
</svg>
