<?xml version="1.0" encoding="UTF-8" standalone="no"?>
<!-- Created with Inkscape (http://www.inkscape.org/) -->

<svg
  width="48"
  height="48"
  version="1.1"
  viewBox="0 0 48 48"
  id="svg22"
  xmlns:xlink="http://www.w3.org/1999/xlink"
  xmlns="http://www.w3.org/2000/svg"
  xmlns:svg="http://www.w3.org/2000/svg">
 <defs
   id="defs12">
  <linearGradient
    xlink:href="#linearGradient3487"
    id="linearGradient3403"
    gradientUnits="userSpaceOnUse"
    x1="6.9491749"
    y1="4.5549412"
    x2="11.215498"
    y2="59.052471" />
  <linearGradient
    id="linearGradient3487">
   <stop
     style="stop-color:#32373c;stop-opacity:1"
     offset="0"
     id="stop3481" />
   <stop
     id="stop3483"
     offset="0.36804965"
     style="stop-color:#1a1a1a;stop-opacity:1" />
   <stop
     style="stop-color:#31363b;stop-opacity:1"
     offset="1"
     id="stop3485" />
  </linearGradient>
  <linearGradient
    xlink:href="#linearGradient20604"
    id="linearGradient20558"
    gradientUnits="userSpaceOnUse"
    x1="25.802212"
    y1="20.373846"
    x2="25.111048"
    y2="58.912758" />
  <linearGradient
    id="linearGradient20604">
   <stop
     id="stop20598"
     offset="0"
     style="stop-color:#3d3d3d;stop-opacity:1" />
   <stop
     style="stop-color:#000000;stop-opacity:1"
     offset="0.61772454"
     id="stop20600" />
   <stop
     id="stop20602"
     offset="1"
     style="stop-color:#3d3d3d;stop-opacity:1" />
  </linearGradient>
  <filter
    style="color-interpolation-filters:sRGB"
    id="filter20720"
    x="-0.010628212"
    y="-0.010273881"
    width="1.021256"
    height="1.0205478">
   <feGaussianBlur
     stdDeviation="0.001065728"
     id="feGaussianBlur20722" />
  </filter>
  <linearGradient
    gradientTransform="translate(0.36067797,-0.13016949)"
    xlink:href="#linearGradient4555"
    id="linearGradient4557"
    x1="43.499737"
    y1="64.011795"
    x2="44.141731"
    y2="0.30621234"
    gradientUnits="userSpaceOnUse" />
  <linearGradient
    id="linearGradient4555">
   <stop
     style="stop-color:#141618;stop-opacity:1"
     offset="0"
     id="stop4551" />
   <stop
     id="stop4559"
     offset="0.51820582"
     style="stop-color:#686868;stop-opacity:1" />
   <stop
     style="stop-color:#31363b;stop-opacity:1"
     offset="1"
     id="stop4553" />
  </linearGradient>
  <filter
    style="color-interpolation-filters:sRGB"
    id="filter4601"
    x="-0.029721297"
    width="1.0594426"
    y="-0.029579487"
    height="1.059159">
   <feGaussianBlur
     stdDeviation="0.001138808"
     id="feGaussianBlur4603" />
  </filter>
 </defs>
 <rect
   style="display:inline;fill:#23aea1;fill-opacity:1;fill-rule:evenodd;stroke:none;stroke-width:0.151636;stroke-linejoin:round;paint-order:markers fill stroke"
   id="rect1901"
   width="39.721695"
   height="43.023083"
   x="6.1992769"
   y="2.2610679"
   rx="0.91300499"
   ry="42.921631" />
 <path
   style="fill:#030303;fill-opacity:0.313447;stroke-width:1.15978"
   d="m 18.314784,9.2977143 1.383904,3.2490017 3.383739,3.864928 c -1.097116,0.173227 -2.072971,0.467718 -2.99301,0.819949 -0.519687,0.25022 -1.016275,0.519687 -1.293442,1.068245 l -0.843047,1.493617 c -0.271393,0.548558 -0.846897,0.63924 -1.410852,1.083861 l -1.685863,1.416053 c -0.243765,0.192234 -0.434453,0.292401 -0.760458,0.542236 -0.328377,0.07404 -0.550537,0.07234 -0.852726,0.312932 -0.271392,0.225199 -0.240595,0.606301 -0.184777,0.962383 0.103927,0.550484 0.563957,1.039374 1.087492,1.408929 0.486966,0.217497 0.935436,0.105855 1.366582,-0.148215 0.177509,-0.134535 0.402075,-0.27603 0.737187,-0.415749 0.02502,-0.09816 3.959238,-2.412987 5.000537,-2.657433 1.062471,-0.273316 2.719693,-0.01365 3.918822,-0.387096 0.237288,0.06528 0.235288,0.416469 0.159754,0.545973 l -0.667891,7.106231 -0.0135,6.87141 -1.162557,1.73229 0.791077,-0.02694 0.931656,-0.716727 -0.708382,0.93615 c 0,0 4.055479,-0.271392 4.055479,-0.24252 0,0.02887 -1.251099,-8.218746 -1.251099,-8.218746 0,0 1.355036,-1.51479 1.383908,-1.535963 0.02887,-0.02309 4.95627,1.662998 4.95627,1.662998 l -0.75836,-0.895016 -0.623623,-0.344533 0.756433,0.250219 c 0,0 1.75731,2.12879 1.765008,2.159586 0.0076,0.02887 0.313737,-0.383028 0.313737,-0.383028 l -1.840074,7.468088 2.44445,0.833422 -0.07698,-1.141386 0.585129,1.416629 0.898864,0.05967 -0.309085,-1.076058 0.75948,0.885505 0.58128,-0.115485 -0.890799,-1.518808 1.065952,-7.263893 -1.408927,-1.112514 -1.091342,-1.462821 1.033599,1.052846 -1.120213,-1.59563 -0.08855,-2.107617 0.392652,1.815054 0.423448,-1.491694 -0.219423,1.741912 0.814175,1.786182 1.628352,1.212602 -0.03081,0.27909 1.281894,-0.469643 0.827647,-1.87087 0.07122,-1.158708 0.119325,1.174107 c 0,0 -0.712162,1.724587 -0.712162,1.784256 0,0.05775 0.929661,-0.879618 0.929661,-0.879618 l -1.020126,1.201054 1.630276,2.941041 0.552405,3.206657 0.19538,0.0511 0.004,0.187462 -1.188764,1.295469 0.858444,-0.186703 0.332985,-0.527387 -0.14628,0.642872 0.306036,0.01541 -0.07122,0.70254 0.639023,-0.571655 0.477342,0.1482 0.1482,-0.85267 v 0.866145 l 0.44847,-0.08854 0.217497,0.731412 0.319512,-0.921963 0.625548,-0.02887 c -0.596625,-4.527051 -1.38578,-8.474274 -1.597503,-13.001321 -0.02309,-0.862294 -0.74681,-2.386708 -1.526337,-3.383736 -0.910415,-1.048998 -2.769738,-3.291348 -5.408589,-3.920745 -1.439726,-0.171304 -2.906394,0.06159 -4.50395,0.583202 -1.412776,0.413826 -2.87175,0.338292 -4.457755,1.098571 0.373404,0.612077 0.868069,1.212603 1.711116,1.924764 0.263692,0.257921 0.73911,0.329135 1.206826,0.292566 -0.323361,0.115485 -0.656344,0.211724 -1.004725,0.02887 -0.567807,-0.384952 -1.035524,-0.866145 -1.482071,-1.374282 -0.271686,-0.337143 -0.50115,-0.706225 -0.683292,-1.099039 -0.269466,-0.612075 0.04813,-1.389681 0.567807,-2.22503 0.471567,-0.579354 0.991254,-1.145235 2.04795,-1.55136 0.950831,-0.379171 1.905513,-0.758349 2.808228,-1.258789 1.020125,-0.662119 2.648477,-2.771661 3.51462,-4.2460308 -2.359761,0.8661448 -4.717597,1.5590598 -7.063887,2.9410398 -0.877692,0.602451 -1.738062,1.535962 -2.615754,2.502195 -0.373405,0.423447 -0.777606,0.819949 -1.30884,1.100964 -0.729486,0.390727 -1.231849,0.01925 -1.568682,-0.279089 C 23.607481,15.43666 23.145027,14.819404 22.749442,14.15967 22.229755,13.447507 21.685048,12.733418 20.888194,12.021257 19.972006,11.17051 19.146283,10.188879 18.314784,9.2977143 Z m 14.928474,2.3347387 -2.078745,2.523366 1.410853,-0.48889 -2.839029,1.391605 z M 23.7022,18.48654 c 0.567806,0.0094 0.95276,0.259843 0.95276,0.259843 -1.258797,-0.338758 -1.949787,-0.05775 -2.488722,0.766055 -0.06351,-0.05197 0.358006,-0.767979 0.916189,-0.937359 0.223272,-0.06736 0.431147,-0.09239 0.619773,-0.08854 z m 0.07869,0.572889 c 0.274847,0.143445 0.312033,0.252838 0.362078,0.537703 0.04235,0.383028 -0.286791,0.608226 -0.506214,0.640947 -0.219422,0.03273 -0.500438,-0.02308 -0.662118,-0.259843 -0.0462,-0.09624 -0.16938,-0.450395 0.02694,-0.702539 0.296415,-0.217195 0.524076,-0.273669 0.779314,-0.216268 z m -9.463845,4.501009 c 0.294489,0.348383 0.581279,0.683291 0.721787,1.145234 0.01926,0.427299 -0.169379,0.417675 -0.354156,0.415752 -0.153981,-0.0018 -0.446547,-0.17708 -0.352233,-0.319512 0.09104,-0.184953 0.129653,-0.39132 0.111641,-0.596678 z m -1.077867,0.105855 c 0.230971,0.242519 0.458093,0.404201 0.500437,0.742959 0.01733,0.08084 0.03273,0.281016 -0.127038,0.25022 -0.465793,-0.440774 -0.184776,-0.392654 -0.37148,-0.99318 z"
   id="path4-7" />
 <path
   style="fill:#ffffff;stroke-width:1.15978"
   d="m 18.314784,8.9801871 1.383904,3.2490019 3.383739,3.864927 c -1.097116,0.173228 -2.072971,0.467718 -2.99301,0.81995 -0.519687,0.250219 -1.016275,0.519687 -1.293442,1.068244 l -0.843047,1.493619 c -0.271393,0.548558 -0.846897,0.63924 -1.410852,1.083861 l -1.685863,1.416053 c -0.243765,0.192234 -0.434453,0.292401 -0.760457,0.542236 -0.328377,0.07404 -0.550537,0.07234 -0.852727,0.312932 -0.271392,0.225199 -0.240594,0.606301 -0.184778,0.962383 0.103935,0.550484 0.563958,1.039374 1.087493,1.408929 0.486966,0.217497 0.935436,0.105855 1.366582,-0.148215 0.177509,-0.134535 0.402075,-0.27603 0.737187,-0.415749 0.02502,-0.09816 3.959238,-2.412987 5.000537,-2.657433 1.062471,-0.273316 2.719693,-0.01365 3.918822,-0.387096 0.237288,0.06528 0.235288,0.416469 0.159754,0.545973 l -0.667891,7.106231 -0.0135,6.87141 -1.162557,1.73229 0.791077,-0.02694 0.931656,-0.716727 -0.708382,0.93615 c 0,0 4.055479,-0.271392 4.055479,-0.24252 0,0.02887 -1.251099,-8.218746 -1.251099,-8.218746 0,0 1.355036,-1.51479 1.383908,-1.535963 0.02887,-0.02309 4.95627,1.662998 4.95627,1.662998 l -0.75836,-0.895016 -0.623623,-0.344533 0.756433,0.250219 c 0,0 1.75731,2.12879 1.765008,2.159586 0.0076,0.02887 0.313737,-0.383028 0.313737,-0.383028 l -1.840074,7.468088 2.44445,0.833422 -0.07698,-1.141386 0.585129,1.416629 0.898864,0.05967 -0.309085,-1.076058 0.75948,0.885505 0.58128,-0.115485 -0.890799,-1.518808 1.065952,-7.263893 -1.408927,-1.112514 -1.091342,-1.462821 1.033599,1.052846 -1.120213,-1.59563 -0.08855,-2.107617 0.392652,1.815054 0.423448,-1.491694 -0.219423,1.741912 0.814175,1.786182 1.628352,1.212602 -0.03081,0.27909 1.281894,-0.469643 0.827647,-1.87087 0.07122,-1.158708 0.119325,1.174107 c 0,0 -0.712162,1.724587 -0.712162,1.784256 0,0.05775 0.929661,-0.879618 0.929661,-0.879618 l -1.020126,1.201054 1.630276,2.941041 0.552405,3.206657 0.19538,0.0511 0.004,0.187462 -1.188764,1.295469 0.858444,-0.186703 0.332985,-0.527387 -0.14628,0.642872 0.306036,0.0154 -0.07122,0.70254 0.639023,-0.571655 0.477342,0.1482 0.1482,-0.85267 v 0.866145 l 0.44847,-0.08854 0.217497,0.731412 0.319512,-0.921963 0.625548,-0.02888 c -0.596625,-4.527051 -1.38578,-8.474274 -1.597503,-13.001321 -0.02309,-0.862294 -0.74681,-2.386708 -1.526337,-3.383736 -0.910415,-1.048998 -2.769738,-3.291349 -5.408589,-3.920746 -1.439726,-0.171305 -2.906394,0.06159 -4.50395,0.583201 -1.412776,0.413826 -2.87175,0.338292 -4.457755,1.098573 0.373404,0.612077 0.868069,1.212603 1.711116,1.924764 0.263692,0.257921 0.73911,0.329135 1.206826,0.292566 -0.323361,0.115485 -0.656344,0.211724 -1.004725,0.02887 -0.567807,-0.384952 -1.035524,-0.866145 -1.482071,-1.374282 -0.271686,-0.337143 -0.50115,-0.706225 -0.683292,-1.099039 -0.269466,-0.612077 0.04813,-1.389683 0.567807,-2.225031 0.471567,-0.579354 0.991254,-1.145235 2.04795,-1.551359 0.950831,-0.379173 1.905513,-0.758351 2.808228,-1.25879 1.020125,-0.662119 2.648477,-2.771662 3.51462,-4.246031 -2.359761,0.866145 -4.717597,1.55906 -7.063887,2.94104 -0.877692,0.602451 -1.738062,1.535962 -2.615754,2.502194 -0.373405,0.423447 -0.777606,0.81995 -1.30884,1.100964 -0.729486,0.390728 -1.231849,0.01926 -1.568682,-0.279088 C 23.607481,15.119133 23.145027,14.501877 22.749442,13.842142 22.229755,13.12998 21.685048,12.415891 20.888194,11.70373 19.972006,10.852983 19.146283,9.8713519 18.314784,8.9801871 Z m 14.928474,2.3347389 -2.078745,2.523366 1.410853,-0.48889 -2.839029,1.391605 z M 23.7022,18.169012 c 0.567806,0.0095 0.95276,0.259844 0.95276,0.259844 -1.258797,-0.338759 -1.949787,-0.05775 -2.488722,0.766056 -0.06351,-0.05197 0.358006,-0.767981 0.916189,-0.937361 0.223272,-0.06736 0.431147,-0.09239 0.619773,-0.08854 z m 0.07869,0.572891 c 0.274847,0.143445 0.312033,0.252838 0.362078,0.537703 0.04235,0.383028 -0.286791,0.608226 -0.506214,0.640947 -0.219422,0.03273 -0.500438,-0.02309 -0.662118,-0.259843 -0.0462,-0.09624 -0.16938,-0.450395 0.02694,-0.702539 0.296415,-0.217195 0.524076,-0.273669 0.779314,-0.216268 z m -9.463845,4.501009 c 0.294489,0.348383 0.581279,0.683291 0.721787,1.145234 0.01926,0.427299 -0.169379,0.417675 -0.354156,0.415752 -0.153981,-0.0018 -0.446547,-0.17708 -0.352233,-0.319512 0.09105,-0.184953 0.129645,-0.39132 0.111645,-0.596678 z m -1.077867,0.105855 c 0.23097,0.242519 0.458093,0.404201 0.500436,0.742959 0.01732,0.08084 0.03273,0.281016 -0.127035,0.25022 -0.465792,-0.440774 -0.184776,-0.392654 -0.371479,-0.99318 z"
   id="path4-7-5" />
 <path
   style="display:inline;mix-blend-mode:normal;fill:url(#linearGradient3403);fill-opacity:1;stroke:url(#linearGradient20558);stroke-width:1.16242;stroke-linecap:butt;stroke-linejoin:round;stroke-miterlimit:4;stroke-dasharray:none;stroke-opacity:1"
   d="M 4.7043071,3.9814882 4.6913695,60.80196 H 58.59546 l 1.022155,-2.866369 c 0,0 -23.87537,0.766388 -32.844441,-4.140386 C 16.257548,48.042344 11.401114,4.0978197 11.401114,4.0978197 Z"
   id="path1686"
   transform="matrix(0.74166996,0,0,0.74166996,0.48726792,0.34946933)" />
 <rect
   style="display:inline;fill:none;fill-opacity:1;stroke:url(#linearGradient4557);stroke-width:3.71366;stroke-linejoin:round;stroke-miterlimit:7.8;stroke-dasharray:none;stroke-opacity:0.995146"
   id="rect4539"
   width="62.566689"
   height="62.866646"
   x="1.0323594"
   y="0.59551275"
   ry="6.2447233"
   rx="5.8029528"
   transform="matrix(0.69478362,0,0,0.69336748,1.733394,1.8481587)" />
</svg>
