<?xml version="1.0" encoding="UTF-8" standalone="no"?>
<!-- Created with Inkscape (http://www.inkscape.org/) -->

<svg
   width="48"
   height="48"
   version="1.1"
   viewBox="0 0 48 48"
   id="svg22"
   xmlns:xlink="http://www.w3.org/1999/xlink"
   xmlns="http://www.w3.org/2000/svg"
   xmlns:svg="http://www.w3.org/2000/svg">
  <defs
     id="defs12">
    <linearGradient
       id="linearGradient917">
      <stop
         style="stop-color:#000000;stop-opacity:1;"
         offset="0"
         id="stop913" />
      <stop
         style="stop-color:#2a2a2a;stop-opacity:1;"
         offset="1"
         id="stop915" />
    </linearGradient>
    <linearGradient
       id="linearGradient1005-3-3"
       x1="5.2535"
       x2="9.3823996"
       y1="15.383"
       y2="2.9421"
       gradientTransform="matrix(0.99999,0,0,0.99999,1.632,-0.61743)"
       gradientUnits="userSpaceOnUse">
      <stop
         stop-color="#fa8200"
         offset="0"
         id="stop2" />
      <stop
         stop-color="#ff9600"
         offset=".36953"
         id="stop4" />
      <stop
         stop-color="#ffb400"
         offset="1"
         id="stop6" />
    </linearGradient>
    <filter
       id="filter4014"
       x="-0.062499932"
       y="-0.057692992"
       width="1.1249999"
       height="1.115386"
       color-interpolation-filters="sRGB">
      <feGaussianBlur
         stdDeviation="1.093751"
         id="feGaussianBlur9" />
    </filter>
    <linearGradient
       xlink:href="#linearGradient3487"
       id="linearGradient3403"
       gradientUnits="userSpaceOnUse"
       x1="6.9491749"
       y1="4.5549412"
       x2="11.215498"
       y2="59.052471" />
    <linearGradient
       id="linearGradient3487">
      <stop
         style="stop-color:#32373c;stop-opacity:1"
         offset="0"
         id="stop3481" />
      <stop
         id="stop3483"
         offset="0.36804965"
         style="stop-color:#1a1a1a;stop-opacity:1" />
      <stop
         style="stop-color:#31363b;stop-opacity:1"
         offset="1"
         id="stop3485" />
    </linearGradient>
    <linearGradient
       xlink:href="#linearGradient20604"
       id="linearGradient20558"
       gradientUnits="userSpaceOnUse"
       x1="25.802212"
       y1="20.373846"
       x2="25.111048"
       y2="58.912758" />
    <linearGradient
       id="linearGradient20604">
      <stop
         id="stop20598"
         offset="0"
         style="stop-color:#3d3d3d;stop-opacity:1" />
      <stop
         style="stop-color:#000000;stop-opacity:1"
         offset="0.61772454"
         id="stop20600" />
      <stop
         id="stop20602"
         offset="1"
         style="stop-color:#3d3d3d;stop-opacity:1" />
    </linearGradient>
    <filter
       style="color-interpolation-filters:sRGB"
       id="filter20720"
       x="-0.017024755"
       y="-0.016457183"
       width="1.0340491"
       height="1.0329144">
      <feGaussianBlur
         stdDeviation="0.14745661"
         id="feGaussianBlur20722" />
    </filter>
    <linearGradient
       gradientTransform="translate(0.36067797,-0.13016949)"
       xlink:href="#linearGradient4555"
       id="linearGradient4557"
       x1="43.499737"
       y1="64.011795"
       x2="44.141731"
       y2="0.30621234"
       gradientUnits="userSpaceOnUse" />
    <linearGradient
       id="linearGradient4555">
      <stop
         style="stop-color:#141618;stop-opacity:1"
         offset="0"
         id="stop4551" />
      <stop
         id="stop4559"
         offset="0.51820582"
         style="stop-color:#686868;stop-opacity:1" />
      <stop
         style="stop-color:#31363b;stop-opacity:1"
         offset="1"
         id="stop4553" />
    </linearGradient>
    <filter
       style="color-interpolation-filters:sRGB"
       id="filter4601"
       x="-0.030244762"
       width="1.0604895"
       y="-0.030100647"
       height="1.0602013">
      <feGaussianBlur
         stdDeviation="0.014790289"
         id="feGaussianBlur4603" />
    </filter>
    <linearGradient
       xlink:href="#linearGradient917"
       id="linearGradient919"
       x1="7.400631"
       y1="41.743092"
       x2="33.063145"
       y2="7.1074457"
       gradientUnits="userSpaceOnUse" />
    <linearGradient
       id="c"
       y1="523.79999"
       x1="403.57001"
       y2="536.79999"
       x2="416.57001"
       gradientUnits="userSpaceOnUse"
       gradientTransform="translate(-382.3618,-501.38052)">
      <stop
         stop-color="#292c2f"
         id="stop2-1" />
      <stop
         offset="1"
         stop-opacity="0"
         id="stop4-7" />
    </linearGradient>
    <linearGradient
       xlink:href="#b-2"
       id="linearGradient4189"
       x1="14.369"
       y1="22.521999"
       x2="26.521999"
       y2="22.521999"
       gradientUnits="userSpaceOnUse" />
    <linearGradient
       x1="36"
       gradientUnits="userSpaceOnUse"
       x2="14"
       y2="12"
       y1="44"
       id="b-2">
      <stop
         style="stop-color:#bfc9c9;stop-opacity:1"
         stop-color="#536161"
         id="stop13" />
      <stop
         style="stop-color:#fbfbfb;stop-opacity:1"
         stop-color="#f4f5f5"
         offset="1"
         id="stop15" />
    </linearGradient>
    <linearGradient
       xlink:href="#b-2"
       id="linearGradient4428"
       gradientUnits="userSpaceOnUse"
       x1="31.586"
       y1="36.345001"
       x2="1.2029999"
       y2="6.723" />
    <linearGradient
       xlink:href="#a"
       id="b"
       x1="44"
       y1="44"
       x2="4"
       y2="4"
       gradientUnits="userSpaceOnUse" />
    <linearGradient
       id="a">
      <stop
         stop-color="#197cf1"
         id="stop1" />
      <stop
         offset="1"
         stop-color="#20bcfa"
         id="stop2-5" />
    </linearGradient>
    <filter
       id="filter4140"
       x="-0.011606639"
       y="-0.029137495"
       width="1.0232133"
       height="1.058275">
      <feGaussianBlur
         stdDeviation="1.1655001"
         id="feGaussianBlur4142" />
    </filter>
    <filter
       id="filter5038"
       x="-0.024068556"
       y="-0.063043861"
       width="1.0481371"
       height="1.1260877">
      <feGaussianBlur
         stdDeviation="2.4298161"
         id="feGaussianBlur5040" />
    </filter>
    <linearGradient
       xlink:href="#linearGradient4167"
       id="linearGradient4252"
       gradientUnits="userSpaceOnUse"
       spreadMethod="reflect"
       x1="7"
       y1="986.36218"
       x2="128.01654"
       y2="986.36218" />
    <linearGradient
       id="linearGradient4167">
      <stop
         id="stop4169"
         offset="0"
         style="stop-color:#5f5f5f;stop-opacity:1" />
      <stop
         style="stop-color:#7b7b7b;stop-opacity:1;"
         offset="0.0015522"
         id="stop4171" />
      <stop
         style="stop-color:#b8b8b8;stop-opacity:1;"
         offset="0.015522"
         id="stop4173" />
      <stop
         id="stop4175"
         offset="0.06901909"
         style="stop-color:#7b7b7b;stop-opacity:1;" />
      <stop
         id="stop4177"
         offset="1"
         style="stop-color:#7b7b7b;stop-opacity:1;" />
    </linearGradient>
    <linearGradient
       xlink:href="#linearGradient3843"
       id="linearGradient4254"
       gradientUnits="userSpaceOnUse"
       x1="-98.954628"
       y1="1071.8698"
       x2="160"
       y2="922.36218" />
    <linearGradient
       id="linearGradient3843">
      <stop
         style="stop-color:#656565;stop-opacity:1"
         offset="0"
         id="stop3845" />
      <stop
         style="stop-color:#c8c8c3;stop-opacity:1"
         offset="1"
         id="stop3847" />
    </linearGradient>
    <radialGradient
       xlink:href="#linearGradient3968"
       id="radialGradient4256"
       gradientUnits="userSpaceOnUse"
       gradientTransform="matrix(1,0,0,0.38174282,0,606.73422)"
       cx="70"
       cy="957.78607"
       fx="2.5"
       fy="957.78607"
       r="120.5" />
    <linearGradient
       id="linearGradient3968">
      <stop
         style="stop-color:#ffffff;stop-opacity:1;"
         offset="0"
         id="stop3970" />
      <stop
         style="stop-color:#ffffff;stop-opacity:0;"
         offset="1"
         id="stop3972" />
    </linearGradient>
    <filter
       id="filter4021"
       x="-0.0025824086"
       y="-0.0059433082"
       width="1.0051648"
       height="1.0118866">
      <feGaussianBlur
         stdDeviation="0.22782686"
         id="feGaussianBlur4023" />
    </filter>
    <clipPath
       clipPathUnits="userSpaceOnUse"
       id="clipPath4233">
      <path
         id="path4235"
         d="m 43.1875,935.36218 c -3.228366,0 -6.158271,0.95893 -6.5625,2.15625 L 7.03125,1025.2059 c -0.014653,0.043 -0.025853,0.082 -0.03125,0.125 -0.0013,0.01 7.718e-4,0.021 0,0.031 v 0.063 l 0.03125,13.5312 c -0.4042159,1.3274 2.7632715,2.4063 7.09375,2.4063 h 226.75 c 4.33048,0 7.49237,-1.0789 7.09375,-2.4063 L 248,1025.4247 c 6.6e-4,-0.02 0.001,-0.042 0,-0.063 -0.004,-0.053 -0.0133,-0.1024 -0.0313,-0.1563 l -29.1875,-87.68747 c -0.39872,-1.19732 -3.33413,-2.15625 -6.5625,-2.15625 H 43.18745 Z"
         style="fill:url(#linearGradient4237);fill-opacity:1" />
    </clipPath>
    <linearGradient
       xlink:href="#linearGradient3863"
       id="linearGradient4237"
       gradientUnits="userSpaceOnUse"
       spreadMethod="reflect"
       x1="7"
       y1="986.36218"
       x2="135"
       y2="986.36218" />
    <linearGradient
       id="linearGradient3863">
      <stop
         style="stop-color:#5f5f5f;stop-opacity:1"
         offset="0"
         id="stop3865" />
      <stop
         id="stop4068"
         offset="0.007761"
         style="stop-color:#7b7b7b;stop-opacity:1;" />
      <stop
         id="stop4066"
         offset="0.015522"
         style="stop-color:#bcbcbc;stop-opacity:1;" />
      <stop
         style="stop-color:#7b7b7b;stop-opacity:1;"
         offset="0.11589409"
         id="stop4070" />
      <stop
         style="stop-color:#7b7b7b;stop-opacity:1;"
         offset="1"
         id="stop3867" />
    </linearGradient>
    <filter
       id="filter3948"
       x="-0.0012098194"
       width="1.0024196"
       y="-0.03740173"
       height="1.0748035">
      <feGaussianBlur
         stdDeviation="0.12127985"
         id="feGaussianBlur3950" />
    </filter>
    <filter
       id="filter3956"
       x="-0.006063018"
       width="1.012126"
       y="-0.10530879"
       height="1.2106176">
      <feGaussianBlur
         stdDeviation="0.60884365"
         id="feGaussianBlur3958" />
    </filter>
    <filter
       id="filter4222"
       x="-0.037338743"
       width="1.0746775"
       y="-0.57597516"
       height="2.1519503">
      <feGaussianBlur
         stdDeviation="3.9878742"
         id="feGaussianBlur4224" />
    </filter>
    <radialGradient
       xlink:href="#linearGradient3968"
       id="radialGradient4258"
       gradientUnits="userSpaceOnUse"
       gradientTransform="matrix(1.9453304,0,0,1.42511,-232.92192,697.69526)"
       cx="246.39207"
       cy="231.32736"
       fx="246.39207"
       fy="231.32736"
       r="2.2148299" />
    <filter
       id="filter4058"
       x="-0.13370356"
       width="1.2674071"
       y="-0.040097783"
       height="1.0801956">
      <feGaussianBlur
         stdDeviation="0.15611451"
         id="feGaussianBlur4060" />
    </filter>
    <radialGradient
       xlink:href="#linearGradient3968"
       id="radialGradient4260"
       gradientUnits="userSpaceOnUse"
       gradientTransform="matrix(1.9453304,0,0,1.42511,-232.92192,-98.666922)"
       cx="246.39207"
       cy="231.32736"
       fx="246.39207"
       fy="231.32736"
       r="2.2148299" />
    <radialGradient
       xlink:href="#linearGradient4434"
       id="radialGradient4440"
       cx="132.4727"
       cy="998.66046"
       fx="132.4727"
       fy="998.66046"
       r="107.35276"
       gradientTransform="matrix(1.2600405,-0.34465806,0.14341858,0.52432611,-179.50003,491.04907)"
       gradientUnits="userSpaceOnUse" />
    <linearGradient
       id="linearGradient4434">
      <stop
         style="stop-color:#23343f;stop-opacity:1;"
         offset="0"
         id="stop4436" />
      <stop
         style="stop-color:#0d2024;stop-opacity:1;"
         offset="1"
         id="stop4438" />
    </linearGradient>
    <radialGradient
       xlink:href="#linearGradient3863"
       id="radialGradient4373"
       cx="127.04667"
       cy="958.19019"
       fx="127.04667"
       fy="958.19019"
       r="107.90917"
       gradientTransform="matrix(0.99484353,0,0,0.36797026,1.2551139,606.48404)"
       gradientUnits="userSpaceOnUse" />
    <clipPath
       clipPathUnits="userSpaceOnUse"
       id="clipPath4998">
      <path
         id="path5000"
         d="m 362.86921,919.99013 -26.45662,78.12639 c -0.19856,0.56721 1.27628,1.28121 3.09023,1.24381 h 208.38863 c 2.0093,0.0413 3.38827,-0.6766 3.18972,-1.24381 l -24.42553,-78.12639 c -0.13052,-0.36761 -0.51164,-0.63052 -0.90158,-0.62189 H 364.76563 c -0.88506,0 -1.7682,0.34496 -1.89642,0.62189 z"
         style="fill:url(#radialGradient5002);fill-opacity:1;stroke:none" />
    </clipPath>
    <radialGradient
       xlink:href="#linearGradient4434"
       id="radialGradient5002"
       gradientUnits="userSpaceOnUse"
       gradientTransform="matrix(1.2600405,-0.34465806,0.14341858,0.52432611,136.59997,491.04907)"
       cx="132.4727"
       cy="998.66046"
       fx="132.4727"
       fy="998.66046"
       r="107.35276" />
    <filter
       id="filter5016"
       x="-0.032438606"
       y="-0.082718445"
       width="1.0648772"
       height="1.1654369">
      <feGaussianBlur
         stdDeviation="3.4466019"
         id="feGaussianBlur5018" />
    </filter>
    <linearGradient
       xlink:href="#linearGradient3968"
       id="linearGradient5848"
       x1="59.865498"
       y1="233.37621"
       x2="126.38495"
       y2="132.08623"
       gradientUnits="userSpaceOnUse" />
    <filter
       id="filter5820"
       x="-0.018012755"
       y="-0.04840443"
       width="1.0360255"
       height="1.0968089">
      <feGaussianBlur
         stdDeviation="1.7541388"
         id="feGaussianBlur5822" />
    </filter>
    <radialGradient
       xlink:href="#linearGradient4751"
       id="radialGradient4709"
       gradientUnits="userSpaceOnUse"
       gradientTransform="matrix(1,0,0,0.5,0,76.911537)"
       cx="129.75409"
       cy="153.82307"
       fx="129.75409"
       fy="133.43353"
       r="28.991379" />
    <linearGradient
       id="linearGradient4751">
      <stop
         id="stop4753"
         offset="0"
         style="stop-color:#0d2024;stop-opacity:1;" />
      <stop
         style="stop-color:#1d363e;stop-opacity:1;"
         offset="0.69463331"
         id="stop4755" />
      <stop
         id="stop4757"
         offset="1"
         style="stop-color:#2e4c59;stop-opacity:1;" />
    </linearGradient>
    <filter
       id="filter4737"
       x="-0.014490438"
       y="-0.030147527"
       width="1.0289809"
       height="1.0602951">
      <feGaussianBlur
         stdDeviation="0.35008149"
         id="feGaussianBlur4739" />
    </filter>
    <radialGradient
       xlink:href="#linearGradient4761"
       id="radialGradient4767"
       cx="127.38924"
       cy="179.20332"
       fx="127.0414"
       fy="190.19099"
       r="31.150429"
       gradientTransform="matrix(0.6807678,-0.01091386,0.00384216,0.2557717,40.591895,116.57251)"
       gradientUnits="userSpaceOnUse" />
    <linearGradient
       id="linearGradient4761">
      <stop
         style="stop-color:#72afc2;stop-opacity:1;"
         offset="0"
         id="stop4763" />
      <stop
         style="stop-color:#72afc2;stop-opacity:0;"
         offset="1"
         id="stop4765" />
    </linearGradient>
    <radialGradient
       xlink:href="#linearGradient3968"
       id="radialGradient5840"
       cx="8.6558361"
       cy="284.43265"
       fx="8.6558361"
       fy="284.43265"
       r="119.64941"
       gradientTransform="matrix(1,0,0,0.40281851,0.04533932,894.76767)"
       gradientUnits="userSpaceOnUse" />
    <radialGradient
       xlink:href="#linearGradient5826"
       id="radialGradient5832"
       cx="8.6558361"
       cy="285.18167"
       fx="8.6558361"
       fy="285.18167"
       r="119.14941"
       gradientTransform="matrix(1,0,0,0.40031249,0.04533932,895.18062)"
       gradientUnits="userSpaceOnUse" />
    <linearGradient
       id="linearGradient5826">
      <stop
         style="stop-color:#000000;stop-opacity:0"
         offset="0"
         id="stop5828" />
      <stop
         style="stop-color:#000000;stop-opacity:0;"
         offset="1"
         id="stop5830" />
    </linearGradient>
    <filter
       id="filter4963"
       x="-0.01776982"
       y="-0.04802694"
       width="1.0357958"
       height="1.1005653">
      <feGaussianBlur
         stdDeviation="1.4934987"
         id="feGaussianBlur4965" />
    </filter>
    <radialGradient
       xlink:href="#linearGradient3968"
       id="radialGradient5028"
       cx="128"
       cy="999.86212"
       fx="128"
       fy="999.86212"
       r="103"
       gradientTransform="matrix(1,0,0,0.07359835,0,925.77362)"
       gradientUnits="userSpaceOnUse" />
    <filter
       id="filter4725"
       x="-0.011370936"
       y="-0.062811188"
       width="1.0227419"
       height="1.1256224">
      <feGaussianBlur
         stdDeviation="0.24427821"
         id="feGaussianBlur4727" />
    </filter>
    <filter
       id="filter4626"
       x="-0.02699373"
       width="1.0539875"
       y="-0.12989307"
       height="1.2597861">
      <feGaussianBlur
         stdDeviation="0.6128699"
         id="feGaussianBlur4628" />
    </filter>
    <filter
       id="filter4640"
       x="-0.011568741"
       y="-0.061207199"
       width="1.0231375"
       height="1.1224144">
      <feGaussianBlur
         stdDeviation="0.26265853"
         id="feGaussianBlur4642" />
    </filter>
    <radialGradient
       xlink:href="#linearGradient4573"
       id="radialGradient4711"
       gradientUnits="userSpaceOnUse"
       gradientTransform="matrix(1,0,0,0.5,0,76.911537)"
       cx="129.75409"
       cy="153.82307"
       fx="129.75409"
       fy="133.43353"
       r="28.991379" />
    <linearGradient
       id="linearGradient4573">
      <stop
         style="stop-color:#0d2024;stop-opacity:1;"
         offset="0"
         id="stop4575" />
      <stop
         id="stop4749"
         offset="0.67977524"
         style="stop-color:#1d363e;stop-opacity:1;" />
      <stop
         style="stop-color:#2e4c59;stop-opacity:1;"
         offset="1"
         id="stop4577" />
    </linearGradient>
    <filter
       id="filter4593"
       x="-0.038318331"
       y="-0.081546969"
       width="1.0766367"
       height="1.1630939">
      <feGaussianBlur
         stdDeviation="0.92575109"
         id="feGaussianBlur4595" />
    </filter>
    <filter
       id="filter4679"
       x="-0.020537494"
       y="-0.086211909"
       width="1.041075"
       height="1.1724238">
      <feGaussianBlur
         stdDeviation="0.49526729"
         id="feGaussianBlur4681" />
    </filter>
    <filter
       id="filter4689"
       x="-0.036493624"
       width="1.0729872"
       y="-0.20665127"
       height="1.4133025">
      <feGaussianBlur
         stdDeviation="0.81789905"
         id="feGaussianBlur4691" />
    </filter>
    <filter
       id="filter4693"
       x="-0.017849107"
       y="-0.064392331"
       width="1.0356982"
       height="1.1287847">
      <feGaussianBlur
         stdDeviation="0.40894953"
         id="feGaussianBlur4695" />
    </filter>
    <filter
       id="filter4541"
       x="-0.028110964"
       width="1.0562219"
       y="-0.11800368"
       height="1.2360074">
      <feGaussianBlur
         stdDeviation="0.67790362"
         id="feGaussianBlur4543" />
    </filter>
    <radialGradient
       xlink:href="#linearGradient4533"
       id="radialGradient4707"
       gradientUnits="userSpaceOnUse"
       gradientTransform="matrix(1,2.5362044e-7,-2.5187962e-7,0.99313613,3.9842886e-5,-1.2405288)"
       cx="128.60504"
       cy="158.18224"
       fx="128.95859"
       fy="137.42232"
       r="25.75522" />
    <linearGradient
       id="linearGradient4533">
      <stop
         style="stop-color:#000000;stop-opacity:1;"
         offset="0"
         id="stop4535" />
      <stop
         style="stop-color:#5b91ac;stop-opacity:0;"
         offset="1"
         id="stop4537" />
    </linearGradient>
    <filter
       id="filter4525"
       x="-0.043392074"
       y="-0.070553554"
       width="1.0867841"
       height="1.1411071">
      <feGaussianBlur
         stdDeviation="0.97179409"
         id="feGaussianBlur4527" />
    </filter>
    <filter
       id="filter4555"
       x="-0.034794645"
       y="-0.044152388"
       width="1.0695893"
       height="1.0883048">
      <feGaussianBlur
         stdDeviation="0.55410591"
         id="feGaussianBlur4557" />
    </filter>
    <radialGradient
       xlink:href="#linearGradient4563"
       id="radialGradient4705"
       gradientUnits="userSpaceOnUse"
       gradientTransform="matrix(1.6266901,0,0,2.4297779,-80.559792,-1330.8713)"
       cx="128.3125"
       cy="929.45325"
       fx="128.66605"
       fy="919.89703"
       r="19.881996" />
    <linearGradient
       id="linearGradient4563">
      <stop
         style="stop-color:#000000;stop-opacity:1;"
         offset="0"
         id="stop4565" />
      <stop
         style="stop-color:#2f4a58;stop-opacity:1;"
         offset="1"
         id="stop4567" />
    </linearGradient>
    <radialGradient
       xlink:href="#linearGradient4401"
       id="radialGradient4703"
       gradientUnits="userSpaceOnUse"
       gradientTransform="matrix(1.0562068,-6.0583311e-8,4.6888763e-8,0.81745726,22.37309,-6.4053207)"
       cx="-397.83481"
       cy="-35.164536"
       fx="-398.03259"
       fy="-42.268036"
       r="8.125" />
    <linearGradient
       id="linearGradient4401">
      <stop
         style="stop-color:#1c2e37;stop-opacity:1;"
         offset="0"
         id="stop4403" />
      <stop
         id="stop4423"
         offset="0.23636365"
         style="stop-color:#2d627b;stop-opacity:1;" />
      <stop
         style="stop-color:#357c9d;stop-opacity:1;"
         offset="0.59327769"
         id="stop4427" />
      <stop
         id="stop4429"
         offset="0.87063479"
         style="stop-color:#9fcce0;stop-opacity:1" />
      <stop
         id="stop4421"
         offset="0.90454549"
         style="stop-color:#3e97bf;stop-opacity:1" />
      <stop
         style="stop-color:#9ecbdf;stop-opacity:1;"
         offset="0.94466507"
         id="stop4425" />
      <stop
         style="stop-color:#ffffff;stop-opacity:1;"
         offset="1"
         id="stop4405" />
    </linearGradient>
    <radialGradient
       xlink:href="#linearGradient4411"
       id="radialGradient4701"
       gradientUnits="userSpaceOnUse"
       cx="-397.875"
       cy="-33.375"
       fx="-398.08392"
       fy="-37.762276"
       r="8.125" />
    <linearGradient
       id="linearGradient4411">
      <stop
         style="stop-color:#13191b;stop-opacity:0;"
         offset="0"
         id="stop4413" />
      <stop
         id="stop4419"
         offset="0.93114913"
         style="stop-color:#13191b;stop-opacity:0" />
      <stop
         style="stop-color:#00385c;stop-opacity:1;"
         offset="1"
         id="stop4415" />
    </linearGradient>
    <radialGradient
       xlink:href="#linearGradient3968"
       id="radialGradient4666"
       gradientUnits="userSpaceOnUse"
       gradientTransform="matrix(3.6803222,0,0,2.2069122,-342.5199,683.49577)"
       cx="127.94012"
       cy="69.429588"
       fx="127.94012"
       fy="69.429588"
       r="3.2178454" />
    <radialGradient
       xlink:href="#linearGradient4401"
       id="radialGradient4699"
       gradientUnits="userSpaceOnUse"
       gradientTransform="matrix(1.0562068,-6.0583311e-8,4.6888763e-8,0.81745726,22.37309,-6.4053207)"
       cx="-397.83481"
       cy="-35.164536"
       fx="-398.03259"
       fy="-42.268036"
       r="8.125" />
    <radialGradient
       xlink:href="#linearGradient4411"
       id="radialGradient4697"
       gradientUnits="userSpaceOnUse"
       cx="-397.875"
       cy="-33.375"
       fx="-398.08392"
       fy="-37.762276"
       r="8.125" />
    <radialGradient
       xlink:href="#linearGradient3968"
       id="radialGradient4661"
       gradientUnits="userSpaceOnUse"
       gradientTransform="matrix(1.6904654,0,0,0.99884264,-88.030851,825.59515)"
       cx="127.94012"
       cy="69.429588"
       fx="127.94012"
       fy="69.429588"
       r="3.2178454" />
    <radialGradient
       xlink:href="#linearGradient4771"
       id="radialGradient4777"
       cx="129.75"
       cy="53.375"
       fx="129.75"
       fy="53.375"
       r="2.25"
       gradientUnits="userSpaceOnUse"
       gradientTransform="matrix(1.4096528,0,0,1,-53.152455,0)" />
    <linearGradient
       id="linearGradient4771">
      <stop
         style="stop-color:#000000;stop-opacity:1;"
         offset="0"
         id="stop4773" />
      <stop
         style="stop-color:#000000;stop-opacity:0;"
         offset="1"
         id="stop4775" />
    </linearGradient>
    <clipPath
       clipPathUnits="userSpaceOnUse"
       id="clipPath4785">
      <circle
         style="opacity:0.353591;fill:url(#radialGradient4790);fill-opacity:1;fill-rule:evenodd;stroke:none"
         id="path4788"
         transform="matrix(0.55087929,0,0,0.74447456,348.83658,72.651014)"
         cx="-397.875"
         cy="-33.375"
         r="8.125" />
    </clipPath>
    <radialGradient
       xlink:href="#linearGradient4411"
       id="radialGradient4790"
       gradientUnits="userSpaceOnUse"
       cx="-397.875"
       cy="-33.375"
       fx="-398.08392"
       fy="-37.762276"
       r="8.125" />
    <filter
       id="filter4804"
       x="-0.10521145"
       width="1.2104229"
       y="-0.10521145"
       height="1.2104229">
      <feGaussianBlur
         stdDeviation="0.19727146"
         id="feGaussianBlur4806" />
    </filter>
    <radialGradient
       xlink:href="#linearGradient4771"
       id="radialGradient4794"
       gradientUnits="userSpaceOnUse"
       gradientTransform="matrix(1.4096528,0,0,1,-53.152455,0)"
       cx="129.75"
       cy="53.375"
       fx="129.75"
       fy="53.375"
       r="2.25" />
    <clipPath
       clipPathUnits="userSpaceOnUse"
       id="clipPath26">
      <circle
         style="opacity:0.353591;fill:url(#radialGradient4790);fill-opacity:1;fill-rule:evenodd;stroke:none"
         id="path26"
         transform="matrix(0.55087929,0,0,0.74447456,348.83658,72.651014)"
         cx="-397.875"
         cy="-33.375"
         r="8.125" />
    </clipPath>
    <radialGradient
       xlink:href="#linearGradient4411"
       id="radialGradient26"
       gradientUnits="userSpaceOnUse"
       cx="-397.875"
       cy="-33.375"
       fx="-398.08392"
       fy="-37.762276"
       r="8.125" />
  </defs>
  <rect
     style="display:inline;fill:url(#linearGradient919);fill-opacity:1;fill-rule:evenodd;stroke:none;stroke-width:0.92782;stroke-linejoin:round;stroke-miterlimit:7.8"
     id="rect1192"
     width="42.084602"
     height="42.712109"
     x="3.1629105"
     y="3.0184898"
     ry="0" />
  <g
     id="g1"
     transform="matrix(0.14994013,0,0,0.14994013,9.8363341,-109.72956)">
    <g
       id="g4239"
       transform="translate(0,-21)">
      <path
         style="fill:#000000;fill-opacity:1;filter:url(#filter4140)"
         d="M 36.629552,948.02343 7.0348225,1039.701 c -0.4042159,1.1973 2.756646,2.1612 7.0871245,2.1612 H 240.86916 c 4.33048,0 7.49559,-0.9639 7.09697,-2.1612 l -29.19701,-91.67757 c -0.38295,-1.20246 -3.31851,-2.16125 -6.54688,-2.16125 H 43.186316 c -3.228366,0 -6.152535,0.96393 -6.556764,2.16125 v 0"
         id="path4130" />
      <path
         id="path3960"
         d="M 34.629552,952.02343 6.4348225,1039.201 c -0.4042159,1.1973 3.356646,3.1612 7.6871245,3.1612 H 240.86916 c 4.33048,0 8.19559,-1.6639 7.79697,-2.8612 l -26.89701,-87.47757 c -0.37089,-1.20624 -3.31851,-2.16125 -6.54688,-2.16125 H 41.186316 c -3.228366,0 -6.152535,0.96393 -6.556764,2.16125 v 0"
         style="fill:#000000;fill-opacity:1;filter:url(#filter5038)" />
      <path
         id="path3859"
         d="M 36.629552,937.75835 7,1025.3622 l 0.034822,13.6039 c -0.4042159,1.3274 2.756646,2.3961 7.087125,2.3961 H 240.86916 c 4.33048,0 7.49559,-1.0687 7.09697,-2.3961 l 0.0339,-13.6039 -5.02099,-7.0001 -24.20989,-80.60375 c -0.39872,-1.32747 -3.31851,-2.39617 -6.54688,-2.39617 H 43.186345 c -3.228366,0 -6.152535,1.0687 -6.556764,2.39617 v 0"
         style="fill:url(#linearGradient4252);fill-opacity:1" />
      <path
         style="fill:url(#linearGradient4254);fill-opacity:1"
         d="m 36.629552,937.52343 c 0,0 -29.5947295,87.67757 -29.5947295,87.67757 -0.4042159,1.1973 2.756646,2.1612 7.0871245,2.1612 0,0 226.747213,0 226.747213,0 4.33048,0 7.49559,-0.9639 7.09697,-2.1612 0,0 -29.19701,-87.67757 -29.19701,-87.67757 -0.39872,-1.19732 -3.31851,-2.16125 -6.54688,-2.16125 0,0 -169.035924,0 -169.035924,0 -3.228366,0 -6.152535,0.96393 -6.556764,2.16125 0,0 0,0 0,0"
         id="rect3037" />
      <path
         id="path3966"
         d="M 36.629552,937.52343 7.0348225,1025.201 c 0.2607703,0.767 3.0643165,1.9621 7.0871245,2.1612 57.136083,-26.2595 167.743583,-75.38624 204.647173,-89.83877 -0.39872,-1.19732 -3.31851,-2.16125 -6.54688,-2.16125 H 43.186316 c -3.228366,0 -6.152535,0.96393 -6.556764,2.16125 v 0"
         style="opacity:0.235043;fill:url(#radialGradient4256);fill-opacity:1;filter:url(#filter4021)" />
      <g
         clip-path="url(#clipPath4233)"
         id="g4226">
        <path
           style="opacity:0.527094;fill:#ffffff;fill-opacity:1;filter:url(#filter3948)"
           d="m 7.25,1025.1875 c -0.045277,0.1293 0.029093,0.5408 -0.03125,0.4063 0.03986,0.099 0.1455113,0.1985 0.28125,0.3124 0.1281728,0.1076 0.235992,6.956 0.4499693,7.0621 0.2392391,0.1186 -0.1447663,-6.8166 0.9250307,-6.4058 1.251921,0.3801 3.099887,0.5937 5.25,0.5937 h 226.75 c 1.68941,0 3.27759,-0.1506 4.45121,-0.3911 0.32004,-0.066 0.76073,5.5884 1.02883,5.5069 0.31793,-0.097 0.36759,-5.9147 0.60148,-6.0285 0.22634,-0.1101 0.40979,-0.2248 0.54348,-0.3369 0.13592,-0.1139 0.24103,-0.2127 0.28125,-0.3124 0.0402,-0.1 0.0357,-0.2053 0,-0.3126 l -0.0313,-0.094 c -0.47087,0.4071 -1.23131,0.702 -2.28125,0.9375 -1.23546,0.2771 -2.82186,0.4688 -4.59375,0.4688 h -226.75 c -1.771882,0 -3.357782,-0.1917 -4.59375,-0.4688 -1.050375,-0.2355 -1.8114306,-0.53 -2.28125,-0.9375 z"
           id="path3918" />
        <path
           id="path3880"
           d="m 7.15625,1024.8309 -0.125,0.375 c -0.1030864,0.3053 0.026128,0.5952 0.3476912,0.8576 0.2830561,0.231 0.1627245,12.4615 0.7166094,12.6418 0.428925,0.1396 1.4833126,-11.7593 2.0456534,-11.6588 1.121302,0.2005 2.482677,0.3157 3.983796,0.3157 h 226.75 c 1.20399,0 1.16859,0.059 2.14051,-0.074 0.79352,-0.1084 2.95098,10.9365 3.52757,10.7583 0.37822,-0.1168 0.39438,-11.5718 0.65933,-11.7127 0.6158,-0.3274 0.9043,-0.7132 0.76634,-1.1276 l -0.125,-0.375 c -0.69344,0.8809 -3.45023,1.5313 -6.96875,1.5313 H 14.125 c -3.518514,0 -6.2793658,-0.6504 -6.96875,-1.5313 z"
           style="opacity:0.527094;fill:#ffffff;fill-opacity:1;filter:url(#filter3956)" />
        <rect
           style="opacity:0.606838;fill:#ffffff;fill-opacity:1;filter:url(#filter4222)"
           id="rect4025"
           width="256.3262"
           height="16.616859"
           x="-1.7677672"
           y="1037.6844"
           rx="5.0507627"
           ry="5.0507627" />
        <path
           style="fill:url(#radialGradient4258);fill-opacity:1;stroke:none;filter:url(#filter4058)"
           d="m 242.80729,1027.0556 c 0.0837,0 4.52585,-0.8341 4.52585,-0.8341 0,0 -0.72204,0.042 -0.79754,0.6688 -0.18898,1.5679 0.4306,8.5677 -0.0504,8.6752 -0.0817,0.018 -1.30152,-8.6312 -1.30152,-8.6312 z"
           id="path4048" />
        <path
           transform="matrix(-1,0,0,1,254.764,796.36218)"
           id="path4062"
           d="m 244.53086,230.73759 c 0.0837,0 2.80228,-0.87832 2.80228,-0.87832 0,0 -0.21381,0.92628 -0.28931,1.55274 -0.18898,1.56789 0.0991,8.85495 -0.38185,8.96248 -0.0817,0.0183 -0.68816,-9.82511 -0.68816,-9.82511 z"
           style="fill:url(#radialGradient4260);fill-opacity:1;stroke:none;filter:url(#filter4058)" />
      </g>
    </g>
    <path
       style="fill:url(#radialGradient4440);fill-opacity:1;stroke:none"
       d="m 46.769206,919.99013 -26.456621,77.22639 c -0.198555,0.56721 1.276284,1.28121 3.090233,1.24381 H 231.79145 c 2.0093,0.0413 3.38827,-0.6766 3.18972,-1.24381 l -24.42553,-77.22639 c -0.13052,-0.36761 -0.51164,-0.63052 -0.90158,-0.62189 H 48.665626 c -0.88506,0 -1.768196,0.34496 -1.89642,0.62189 z"
       id="path4337" />
    <path
       style="fill:url(#radialGradient4373);fill-opacity:1;stroke:none"
       d="m 48.665626,919.36238 c -0.88506,0 -1.768196,0.34188 -1.89642,0.61634 l -26.256621,77.72022 c -0.07694,0.21783 0.08728,0.46824 0.435244,0.67797 l 25.821377,-76.42593 c 0.128224,-0.27446 1.01136,-0.61633 1.89642,-0.61633 H 209.65406 c 0.38994,-0.009 0.77106,0.25201 0.90158,0.61633 l 23.99028,75.92593 c 0.3417,-0.2102 0.51219,-0.46014 0.43525,-0.67797 l -24.42553,-77.22022 c -0.13052,-0.36433 -0.51164,-0.62487 -0.90158,-0.61634 z"
       id="path4354" />
    <path
       style="opacity:0.820628;fill:#000000;fill-opacity:1;stroke:none;filter:url(#filter5016)"
       d="m 315,895.36218 v 100 h 23.6875 l 27.1875,-72.375 c 0.12662,-0.27349 1.00094,-0.625 1.875,-0.625 h 155 c 0.38509,-0.009 0.7461,0.26195 0.875,0.625 l 25.25,72.375 H 570 v -100 z"
       id="rect4987"
       clip-path="url(#clipPath4998)"
       transform="translate(-315.6875,0.9)" />
    <path
       style="opacity:0.504951;fill:url(#linearGradient5848);fill-opacity:1;stroke:none;stroke-width:1px;stroke-linecap:butt;stroke-linejoin:miter;stroke-opacity:1;filter:url(#filter5820)"
       d="m 37.59798,123.71037 -25.635223,74.97737 c -0.931804,2.95081 -4.3015557,9.55597 -1.058059,9.25933 l 228.804502,0.32322 3.53553,-4.24264 -23.33452,-73.5391 18.03122,70.71067 v 3.88909 L 19.509776,203.3812 c -2.233522,-0.59208 -1.697493,-2.38143 -1.18566,-4.34619 l 25.162951,-77.73885 z"
       id="path5810"
       transform="translate(0,796.36218)" />
    <path
       transform="matrix(2.6115011,0,0,2.4167967,-210.45949,585.6497)"
       style="opacity:0.751381;fill:url(#radialGradient4709);fill-opacity:1;fill-rule:evenodd;stroke:none;filter:url(#filter4737)"
       d="m 158.74547,153.82307 c 0,8.00575 -12.97988,14.49569 -28.99138,14.49569 -16.0115,0 -28.99138,-6.48994 -28.99138,-14.49569 0,-8.00574 12.97988,-13.37378 28.99138,-13.37378 16.0115,0 28.99138,5.36804 28.99138,13.37378 z"
       id="path4608" />
    <path
       id="path4759"
       d="m 158.74547,153.82307 c 0,8.00575 -12.97988,14.49569 -28.99138,14.49569 -16.0115,0 -28.99138,-6.48994 -28.99138,-14.49569 0,-8.00574 12.97988,-13.37378 28.99138,-13.37378 16.0115,0 28.99138,5.36804 28.99138,13.37378 z"
       style="opacity:0.751381;fill:url(#radialGradient4767);fill-opacity:1;fill-rule:evenodd;stroke:none;filter:url(#filter4737)"
       transform="matrix(2.6017258,0,0,2.4077502,-209.19111,586.92028)" />
    <path
       id="path5824"
       d="m 28.143319,944.57255 -13.867456,52.19336 c -0.931804,2.95081 -1.829284,6.13029 1.414213,5.83359 l 224.064464,2.033 3.53553,-4.2427 -23.33452,-73.53907 18.03122,70.71067 v 3.8891 l -219.556655,-0.7071 c -2.233522,-0.5921 -2.544765,-2.71984 -2.032932,-4.6846 l 15.635223,-52.90046 z"
       style="opacity:0.547085;fill:url(#radialGradient5840);fill-opacity:1;stroke:url(#radialGradient5832);stroke-width:1px;stroke-linecap:butt;stroke-linejoin:miter;stroke-opacity:1;filter:url(#filter4963)" />
    <rect
       style="opacity:0.69802;fill:url(#radialGradient5028);fill-opacity:1;stroke:none"
       id="rect5020"
       width="206"
       height="1.7996315"
       x="25"
       y="998.4624" />
    <path
       transform="matrix(2.906391,0,0,-2.9259606,-244.75879,3741.478)"
       style="fill:#000000;fill-opacity:0.875;fill-rule:evenodd;stroke:none;filter:url(#filter4725)"
       d="m 102.37198,953.28147 c 3.14063,6.66211 13.5312,9.33381 25.44127,9.33381 14.73874,0 23.48847,-3.32796 26.11717,-8.65615 -5.26803,9.94923 -42.67397,12.39602 -51.55844,-0.67766 z"
       id="path4616" />
    <path
       id="path4610"
       d="m 100.83168,953.28147 c 4.32814,6.4739 14.64551,9.93042 26.07058,10.36858 0.40664,0.0156 0.86282,0.94725 1.27204,0.95519 0.42824,0.009 0.78838,-0.91015 1.18653,-0.91029 13.06347,-0.0518 22.68906,-4.9784 25.96083,-9.73582 -3.76559,5.79171 -15.00728,8.94263 -26.54426,8.98815 -0.18723,7.4e-4 -0.37451,-4.26794 -0.56181,-4.26884 -0.18729,-9e-4 -0.3746,4.26598 -0.5619,4.26344 -11.18,-0.15164 -22.41849,-3.23103 -26.82201,-9.66041 z"
       style="opacity:0.895028;fill:#000000;fill-opacity:0.875;fill-rule:evenodd;stroke:none;filter:url(#filter4626)"
       transform="matrix(2.596596,0,0,2.174199,-205.08594,-1104.2217)" />
    <path
       transform="matrix(2.596596,0,0,2.174199,-205.08594,-1107.0164)"
       style="opacity:0.895028;fill:#5e889d;fill-opacity:1;fill-rule:evenodd;stroke:none;filter:url(#filter4640)"
       d="m 100.83168,953.28147 c 4.48218,6.70432 15.07461,10.05766 26.98157,10.28891 13.69034,0.26589 24.1344,-4.70516 27.50841,-9.61125 -7.53526,11.58969 -45.39275,12.60478 -54.48998,-0.67766 z"
       id="path4634" />
    <path
       transform="matrix(1.7298024,0,0,1.3615927,-96.14898,744.07409)"
       style="fill:url(#radialGradient4711);fill-opacity:1;fill-rule:evenodd;stroke:none;filter:url(#filter4593)"
       d="m 158.74547,153.82307 c 0,8.00575 -12.97988,14.49569 -28.99138,14.49569 -16.0115,0 -28.99138,-6.48994 -28.99138,-14.49569 0,-8.00574 12.97988,-12.74999 28.99138,-12.74999 16.0115,0 28.99138,4.74425 28.99138,12.74999 z"
       id="path4571" />
    <path
       transform="matrix(1.7158903,0,0,1.3368663,-92.000148,-314.34401)"
       id="path4673"
       d="m 128.22232,934.35822 c -15.98667,0 -28.957457,5.93699 -28.957457,13.24977 0,0.18834 0.02139,0.35125 0.03846,0.53767 0.775277,-6.99612 13.431967,-12.55847 28.919047,-12.55847 15.48708,0 28.10536,5.56235 28.88065,12.55847 0.017,-0.18642 0.0385,-0.34933 0.0385,-0.53767 0,-7.31278 -12.93239,-13.24977 -28.91905,-13.24977 z"
       style="opacity:0.502762;fill:#598195;fill-opacity:1;fill-rule:evenodd;stroke:none;filter:url(#filter4679)" />
    <path
       id="path4683"
       d="m 155.34225,953.17067 c -2.48415,4.79195 -14.12106,6.99106 -25.66673,7.22829 -2.3389,-1.05907 -1.44942,-0.22922 -2.99337,-0.0149 -11.25116,-0.34396 -22.56166,-2.47544 -25.03522,-7.1665 -0.015,0.15429 -0.047,0.31287 -0.047,0.46875 0,6.00438 12.90198,8.98325 26.5949,8.98325 13.69293,0 27.19416,-2.97887 27.19416,-8.98325 0,-0.17127 -0.0289,-0.34629 -0.047,-0.51563 z"
       style="opacity:0.502762;fill:#74cbf8;fill-opacity:1;fill-rule:evenodd;stroke:none;filter:url(#filter4689)"
       transform="matrix(1.6687505,0,0,1.3972892,-85.956652,-373.17333)" />
    <path
       style="opacity:0.502762;fill:#000000;fill-opacity:0.919118;fill-rule:evenodd;stroke:none;filter:url(#filter4693)"
       d="m 155.9415,952.43933 c -2.48415,4.79195 -14.7186,8.65963 -26.26598,8.65963 -1.38465,0 -1.18921,-8.74465 -1.59291,-8.74465 -0.60149,0 -0.11994,8.76889 -1.40046,8.72974 -11.25116,-0.34398 -23.16091,-3.90678 -25.63447,-8.59784 -0.015,0.15429 -0.047,0.31287 -0.047,0.46875 0,5.42373 11.65295,9.72564 23.8758,10.47233 1.30853,0.0799 1.28258,4.16919 3.31835,4.16919 1.82763,0 2.12315,-4.13205 3.9346,-4.18756 11.43598,-0.35046 23.85881,-5.251 23.85881,-10.45396 0,-0.17127 -0.0289,-0.34629 -0.047,-0.51563 z"
       id="path4481"
       transform="matrix(1.6687505,0,0,1.3972892,-85.956652,-373.17333)" />
    <path
       style="opacity:0.502762;fill:#000000;fill-opacity:1;fill-rule:evenodd;stroke:none;filter:url(#filter4541)"
       d="m 128.22232,934.35822 c -15.98667,0 -28.957457,5.93699 -28.957457,13.24977 0,0.18834 0.02139,0.35125 0.03846,0.53767 0.775277,-6.99612 13.431967,-12.55847 28.919047,-12.55847 15.48708,0 28.10536,5.56235 28.88065,12.55847 0.017,-0.18642 0.0385,-0.34933 0.0385,-0.53767 0,-7.31278 -12.93239,-13.24977 -28.91905,-13.24977 z"
       id="path4486"
       transform="matrix(1.7158903,0,0,1.3368663,-92.000148,-313.50561)" />
    <path
       style="fill:url(#radialGradient4707);fill-opacity:1;stroke:none;filter:url(#filter4525)"
       d="m 128.69343,132.96342 c -8.29484,7.74651 -14.28225,18.24874 -26.2979,21.55157 l 4.37759,6.02559 9.19239,4.06587 10.96016,1.41421 9.89949,-1.06066 10.07627,-2.47487 9.24368,-6.45708 c -13.20559,-3.16824 -18.90105,-14.70771 -27.45168,-23.06463 z"
       id="path4493"
       transform="matrix(1.3673567,0,0,1.1449241,-47.348692,780.0754)" />
    <path
       id="path4553"
       d="m 128.3125,920.29343 c 0,9.92296 -7.59733,20.92897 -18.10849,26.80656 -0.77443,0.43305 -1.50097,1.14141 -0.54747,2.15846 1.03773,1.10691 3.81001,1.5107 4.46396,0.80015 6.06856,-6.59395 10.21428,-16.4656 14.192,-16.55032 3.97772,0.0848 8.08133,9.95637 14.14989,16.55032 0.65394,0.71056 3.46834,0.30676 4.50607,-0.80015 0.9535,-1.01705 0.22696,-1.62541 -0.54747,-2.05846 -10.51116,-5.8776 -18.10849,-16.9836 -18.10849,-26.90656 z"
       style="opacity:0.232044;fill:#b0c9d6;fill-opacity:1;stroke:none;filter:url(#filter4555)"
       transform="matrix(0.92871435,0,0,1.258738,8.999218,-241.54171)" />
    <path
       style="fill:url(#radialGradient4705);fill-opacity:1;stroke:none"
       d="m 128.16488,900.91111 c 0,12.82975 -9.15062,42.24891 -18.91249,49.84825 -0.71922,0.55991 -1.39397,2.76871 -0.50844,4.08369 0.96375,1.43116 3.53841,1.95323 4.14574,1.03454 5.63596,-8.52555 11.58102,-23.5487 15.27519,-23.65824 3.69416,0.10964 9.60012,15.13269 15.23608,23.65824 0.60732,0.91871 3.22109,0.39662 4.18485,-1.03454 0.88553,-1.31498 0.21078,-3.52378 -0.50844,-4.08369 -9.76187,-7.59936 -18.91249,-37.0185 -18.91249,-49.84825 z"
       id="path4476" />
    <circle
       style="fill:url(#radialGradient4703);fill-opacity:1;fill-rule:evenodd;stroke:none"
       id="path4391"
       transform="matrix(1.5413968,0,0,1.4955512,741.45133,896.38231)"
       cx="-397.875"
       cy="-33.375"
       r="8.125" />
    <circle
       transform="matrix(1.5413968,0,0,1.4955512,741.45133,896.38231)"
       id="path4409"
       style="opacity:0.353591;fill:url(#radialGradient4701);fill-opacity:1;fill-rule:evenodd;stroke:none"
       cx="-397.875"
       cy="-33.375"
       r="8.125" />
    <path
       style="opacity:0.78453;fill:url(#radialGradient4666);fill-opacity:1;fill-rule:evenodd;stroke:none"
       d="m 136.30593,839.53278 c 0,2.71784 -3.67418,4.92104 -8.2065,4.92104 -4.53235,0 -8.20651,-2.2032 -8.20651,-4.92104 0,-2.71782 3.67416,-5.09781 8.20651,-5.09781 4.53232,0 8.2065,2.37999 8.2065,5.09781 z"
       id="path4431" />
    <circle
       transform="matrix(0.7080026,0,0,0.67688253,409.8646,921.94704)"
       id="path4456"
       style="fill:url(#radialGradient4699);fill-opacity:1;fill-rule:evenodd;stroke:none"
       cx="-397.875"
       cy="-33.375"
       r="8.125" />
    <circle
       style="opacity:0.353591;fill:url(#radialGradient4697);fill-opacity:1;fill-rule:evenodd;stroke:none"
       id="path4458"
       transform="matrix(0.7080026,0,0,0.67688253,409.8646,921.94704)"
       cx="-397.875"
       cy="-33.375"
       r="8.125" />
    <path
       id="path4460"
       d="m 131.90602,896.21711 c 0,1.23007 -1.68765,2.22726 -3.76948,2.22726 -2.08182,0 -3.76945,-0.99719 -3.76945,-2.22726 0,-1.23008 1.68763,-2.30725 3.76945,-2.30725 2.08183,0 3.76948,1.07717 3.76948,2.30725 z"
       style="opacity:0.78453;fill:url(#radialGradient4661);fill-opacity:1;fill-rule:evenodd;stroke:none" />
    <circle
       style="opacity:0.618785;fill:url(#radialGradient4777);fill-opacity:1;fill-rule:evenodd;stroke:none;filter:url(#filter4804)"
       id="path4769"
       transform="matrix(2.7980663,0,0,2.0088682,-234.61655,750.436)"
       clip-path="url(#clipPath4785)"
       cx="129.75"
       cy="53.375"
       r="2.25" />
    <circle
       clip-path="url(#clipPath4785)"
       transform="matrix(1.2601753,0,0,0.90474123,-35.190462,856.08628)"
       id="path4792"
       style="opacity:0.823204;fill:url(#radialGradient4794);fill-opacity:1;fill-rule:evenodd;stroke:none"
       cx="129.75"
       cy="53.375"
       r="2.25" />
  </g>
  <path
     style="display:inline;mix-blend-mode:normal;fill:url(#linearGradient3403);fill-opacity:1;stroke:url(#linearGradient20558);stroke-width:1.16242;stroke-linecap:butt;stroke-linejoin:round;stroke-miterlimit:4;stroke-dasharray:none;stroke-opacity:1;filter:url(#filter20720)"
     d="M 4.7043071,3.9814882 4.6913695,60.80196 H 58.59546 l 1.022155,-2.866369 c 0,0 -23.87537,0.766388 -32.844441,-4.140386 C 16.257548,48.042344 11.401114,4.0978197 11.401114,4.0978197 Z"
     id="path1686"
     transform="matrix(0.7518797,0,0,0.7518797,0.09970467,0.02488636)" />
  <rect
     style="display:inline;fill:none;fill-opacity:1;stroke:url(#linearGradient4557);stroke-width:3.71366;stroke-linejoin:round;stroke-miterlimit:7.8;stroke-dasharray:none;stroke-opacity:0.995146;filter:url(#filter4601)"
     id="rect4539"
     width="62.567089"
     height="62.866646"
     x="1.0323594"
     y="0.59551275"
     ry="6.2447233"
     rx="5.8029528"
     transform="matrix(0.70434793,0,0,0.70291231,1.3629847,1.5442064)" />
</svg>
