<svg width="22" height="22" version="1.1" viewBox="0 0 22 22" xmlns="http://www.w3.org/2000/svg" xmlns:xlink="http://www.w3.org/1999/xlink">
<defs>
<linearGradient id="linearGradient3403" x1="6.9492" x2="11.215" y1="4.5549" y2="59.052" gradientUnits="userSpaceOnUse">
<stop style="stop-color:#32373c" offset="0"/>
<stop style="stop-color:#1a1a1a" offset=".36805"/>
<stop style="stop-color:#31363b" offset="1"/>
</linearGradient>
<linearGradient id="linearGradient20558" x1="25.802" x2="25.111" y1="20.374" y2="58.913" gradientUnits="userSpaceOnUse">
<stop style="stop-color:#3d3d3d" offset="0"/>
<stop offset=".61772"/>
<stop style="stop-color:#3d3d3d" offset="1"/>
</linearGradient>
<linearGradient id="linearGradient4557" x1="43.5" x2="44.142" y1="64.012" y2=".30621" gradientTransform="translate(.36068 -.13017)" gradientUnits="userSpaceOnUse">
<stop style="stop-color:#141618" offset="0"/>
<stop style="stop-color:#686868" offset=".51821"/>
<stop style="stop-color:#31363b" offset="1"/>
</linearGradient>
<linearGradient id="linearGradient919" x1="7.4006" x2="33.063" y1="41.743" y2="7.1074" gradientTransform="matrix(.44601 0 0 .44601 .41952 .35048)" gradientUnits="userSpaceOnUse">
<stop style="stop-opacity:.99608" offset="0"/>
<stop style="stop-color:#353a3f;stop-opacity:.99608" offset="1"/>
</linearGradient>
<linearGradient id="b" x2="0" y1="44" y2="4" gradientTransform="matrix(.47394 0 0 .47394 -1.4577 -.91255)" gradientUnits="userSpaceOnUse">
<stop stop-color="#1d1e1e" offset="0"/>
<stop stop-color="#44484c" offset="1"/>
</linearGradient>
<linearGradient id="c" x1="6" x2="6" y1="5" y2="4" xlink:href="#a"/>
<linearGradient id="a" x2="0" y1="507.8" y2="506.8" gradientUnits="userSpaceOnUse">
<stop stop-color="#3da103" offset="0"/>
<stop stop-color="#7ddf07" offset="1"/>
</linearGradient>
<linearGradient id="d" x1="6" x2="6" y1="16" y2="15" xlink:href="#a"/>
<linearGradient id="e" x1="6" x2="6" y1="27" y2="26" xlink:href="#a"/>
<linearGradient id="f" x1="5" x2="18" y1="12" y2="25" gradientTransform="matrix(.67705 0 0 .67705 -.98375 -.1678)" gradientUnits="userSpaceOnUse">
<stop stop-color="#292c2f" offset="0"/>
<stop stop-opacity="0" offset="1"/>
</linearGradient>
</defs>
<rect x="1.8302" y="1.6968" width="18.77" height="19.05" ry="0" style="fill-rule:evenodd;fill:url(#linearGradient919)"/>
<g transform="matrix(.87138 0 0 .92713 3.4116 1.1144)">
<path d="m1.0474 4.5716h17.603v11.51h-17.603z" fill="#111213" style="stroke-width:.67705"/>
<path d="m1.0474 1.1863v18.958h17.603v-18.958zm0.67705 4.0623h16.249v2.7082h-16.249zm0 7.4476h16.249v2.7082h-16.249z" fill="url(#b)" style="fill:url(#b);stroke-width:.67705"/>
<path d="m1.0474 19.467h17.603v0.67706h-17.603z" opacity=".2" style="stroke-width:.67705"/>
<g transform="matrix(.67705 0 0 .67705 -.98375 -.1678)" stroke-width=".7">
<path d="m5 4h2v1h-2z" fill="url(#c)" style="fill:url(#c)"/>
<path d="m5 15h2v1h-2z" fill="url(#d)" style="fill:url(#d)"/>
<path d="m5 26h2v1h-2z" fill="url(#e)" style="fill:url(#e)"/>
</g>
<path d="m1.7245 7.9569 4.7394 4.7394h11.51v2.7082h-8.8017l4.7394 4.7394h4.7394v-11.51l-0.67705-0.67705z" fill="url(#f)" fill-rule="evenodd" opacity=".4" style="fill:url(#f);stroke-width:.67705"/>
<rect x="8.5795" y="9.311" width="12.102" height="10.833" rx="1.5128" fill="#eff0f1" style="stroke-width:.71563"/>
<path d="m16.993 15.246c-0.64568 0-1.1655 0.48855-1.1655 1.0954v1.0954h-0.77699v2.1908h3.885v-2.1908h-0.77699v-1.0954c0-0.60686-0.51981-1.0954-1.1655-1.0954zm0 0.73027c0.21523 0 0.3885 0.16285 0.3885 0.36514v1.0954h-0.77699v-1.0954c0-0.20229 0.17327-0.36514 0.3885-0.36514zm-2.7195 0a3.885 3.2862 0 0 0-3.885 3.2862 3.885 3.2862 0 0 0 0.02564 0.36514h3.8593v-0.73027h-3.073a3.108 2.556 0 0 1 3.073-2.1908zm0-5.1119a2.331 2.1908 0 0 0-2.331 2.1908 2.331 2.1908 0 0 0 2.331 2.1908 2.331 2.1908 0 0 0 2.331-2.1908 2.331 2.1908 0 0 0-2.331-2.1908zm0 0.73027a1.554 1.4605 0 0 1 1.554 1.4605 1.554 1.4605 0 0 1-1.554 1.4605 1.554 1.4605 0 0 1-1.554-1.4605 1.554 1.4605 0 0 1 1.554-1.4605z" fill="#232629" style="stroke-width:.75327"/>
</g>
<path transform="matrix(.33535 0 0 .33535 .46399 .36158)" d="m4.7043 3.9815-0.012938 56.82h53.904l1.0222-2.8664s-23.875 0.76639-32.844-4.1404c-10.516-5.7529-15.372-49.697-15.372-49.697z" style="fill:url(#linearGradient3403);mix-blend-mode:normal;stroke-linejoin:round;stroke-width:1.1624;stroke:url(#linearGradient20558)"/>
<rect transform="matrix(.31415 0 0 .31351 1.0274 1.0392)" x="1.0324" y=".59551" width="62.567" height="62.867" rx="5.803" ry="6.2447" style="fill:none;stroke-linejoin:round;stroke-miterlimit:7.8;stroke-opacity:.99515;stroke-width:3.7137;stroke:url(#linearGradient4557)"/>
</svg>
