<svg width="22" height="22" version="1.1" viewBox="0 0 22 22" xmlns="http://www.w3.org/2000/svg" xmlns:xlink="http://www.w3.org/1999/xlink">
<defs>
<linearGradient id="linearGradient3403" x1="6.9492" x2="11.215" y1="4.5549" y2="59.052" gradientUnits="userSpaceOnUse">
<stop style="stop-color:#32373c" offset="0"/>
<stop style="stop-color:#1a1a1a" offset=".36805"/>
<stop style="stop-color:#31363b" offset="1"/>
</linearGradient>
<linearGradient id="linearGradient20558" x1="25.802" x2="25.111" y1="20.374" y2="58.913" gradientUnits="userSpaceOnUse">
<stop style="stop-color:#3d3d3d" offset="0"/>
<stop offset=".61772"/>
<stop style="stop-color:#3d3d3d" offset="1"/>
</linearGradient>
<linearGradient id="linearGradient4557" x1="43.5" x2="44.142" y1="64.012" y2=".30621" gradientTransform="translate(.36068 -.13017)" gradientUnits="userSpaceOnUse">
<stop style="stop-color:#141618" offset="0"/>
<stop style="stop-color:#686868" offset=".51821"/>
<stop style="stop-color:#31363b" offset="1"/>
</linearGradient>
<linearGradient id="linearGradient919" x1="7.4006" x2="33.063" y1="41.743" y2="7.1074" gradientTransform="matrix(.44212 0 0 .44212 .42246 .35295)" gradientUnits="userSpaceOnUse">
<stop style="stop-opacity:.99608" offset="0"/>
<stop style="stop-color:#353a3f;stop-opacity:.99608" offset="1"/>
</linearGradient>
<linearGradient id="b" x1="6" x2="26" y1="6" y2="26" gradientUnits="userSpaceOnUse" xlink:href="#a"/>
<linearGradient id="a">
<stop stop-color="#292c2f" offset="0"/>
<stop stop-opacity="0" offset="1"/>
</linearGradient>
<linearGradient id="c" x1="23" x2="30" y1="13" y2="20" gradientUnits="userSpaceOnUse" xlink:href="#a"/>
<linearGradient id="d" x1="2" x2="2" y1="30" y2="2" gradientUnits="userSpaceOnUse">
<stop stop-color="#a5a5a5" offset="0"/>
<stop stop-color="#f5f2f5" offset="1"/>
</linearGradient>
<linearGradient id="e" x1="11" x2="25" y1="11" y2="25" gradientUnits="userSpaceOnUse" xlink:href="#a"/>
<linearGradient id="f" x1="15" x2="15" y1="22" y2="10" gradientUnits="userSpaceOnUse">
<stop stop-color="#ffd42a" offset="0"/>
<stop stop-color="#ffdf62" offset="1"/>
</linearGradient>
</defs>
<rect x="1.8209" y="1.6875" width="18.607" height="18.884" ry="0" style="fill-rule:evenodd;fill:url(#linearGradient919)"/>
<g transform="matrix(.67115 0 0 .67115 .87561 -.077806)">
<rect x="2" y="2" width="28" height="28" rx="14" fill="#4f575f"/>
<path d="m18.594 2.248-2.975 0.38-4.135 2.388-1.502 2.601s-1.973 1.39-2.271 1.31c-2.517-0.029-3.869 0.665-4.58 1.548-0.301 0.703-0.537 1.44-0.72 2.197-6e-3 0.76 0.161 1.351 0.161 1.351 7.06 6.357 14.121 9.097 21.182 13.643a13.9 13.9 0 0 0 1.275-0.959l0.069-0.06c0.36-0.308 0.703-0.636 1.029-0.979 0.072-0.076 0.14-0.155 0.21-0.232a13.928 13.928 0 0 0 1.749-2.375l0.055-0.09a13.991 13.991 0 0 0 1.824-6.282l2e-3 -0.02v-1e-3l-1.824-7.638a13.95 13.95 0 0 0-9.55-6.783z" fill="url(#b)" fill-rule="evenodd" opacity=".2" style="fill:url(#b)"/>
<path d="m29.012 10.842-4.307 6.66 4.12 4.12a13.997 13.997 0 0 0 0.187-10.78z" fill="url(#c)" fill-rule="evenodd" opacity=".2" style="fill:url(#c)"/>
<path d="m16 2a14 14 0 0 0-13.059 9h0.059l3-1 2 2v-2l2-1v-1l2-1 2-2v1l1-1-1-1h2v1l2-1-1-1v-0.95a14 14 0 0 0-1-0.05zm10.375 4.625-0.375 0.375v1h1.469a14 14 0 0 0-1.094-1.375zm1.316 1.684-3.691 3.691-1 3v1l2 2 2 1 2.791-0.688a14 14 0 0 0 0.209-2.312 14 14 0 0 0-2.309-7.691zm-23.691 4.691-1 1h-0.838c-0.05 0.34-0.088 0.681-0.113 1.023v2e-3l1.951 0.975 1 1 2 1 1 1-1 1v2l1 2 2 2v2.629a14 14 0 0 0 6 1.371c0.17-3e-3 0.34-9e-3 0.51-0.018l0.49-0.982v-1l2-1 1-1v-2l1-1v-1l-1-1-3-1-2-2h-1l-1-1-3-1-2 1h-2v-2h-1v-2z" fill="url(#d)" style="fill:url(#d)"/>
<path d="m22 11v1h-1l-1 9-9 1c2 2 2.415 2.66 8 8 2.74-1.056 9.41-8.584 11-11z" fill="url(#e)" fill-rule="evenodd" opacity=".2" style="fill:url(#e)"/>
<path d="m14 10v1h-4v1h1v10h10v-10h1v-1h-4v-1zm1 1h2v1h-2zm-1 3h1v5h-1zm3 0h1v5h-1z" fill="url(#f)" style="fill:url(#f)"/>
<path d="M 29.979,15.414 A 14,14 0 0 1 16,29 14,14 0 0 1 2.021,15.586 14,14 0 0 0 2,16 14,14 0 0 0 16,30 14,14 0 0 0 30,16 14,14 0 0 0 29.979,15.414 Z" fill="#292c2f" opacity=".3"/>
</g>
<path transform="matrix(.33242 0 0 .33242 .46655 .36395)" d="m4.7043 3.9815-0.012938 56.82h53.904l1.0222-2.8664s-23.875 0.76639-32.844-4.1404c-10.516-5.7529-15.372-49.697-15.372-49.697z" style="fill:url(#linearGradient3403);mix-blend-mode:normal;stroke-linejoin:round;stroke-width:1.1624;stroke:url(#linearGradient20558)"/>
<rect transform="matrix(.31141 0 0 .31077 1.0251 1.0357)" x="1.0324" y=".59551" width="62.567" height="62.867" rx="5.803" ry="6.2447" style="fill:none;stroke-linejoin:round;stroke-miterlimit:7.8;stroke-opacity:.99515;stroke-width:3.7137;stroke:url(#linearGradient4557)"/>
</svg>
