<svg width="22" height="22" version="1.1" viewBox="0 0 22 22" xmlns="http://www.w3.org/2000/svg" xmlns:xlink="http://www.w3.org/1999/xlink">
<defs>
<linearGradient id="linearGradient3403" x1="6.9492" x2="11.215" y1="4.5549" y2="59.052" gradientUnits="userSpaceOnUse">
<stop style="stop-color:#32373c" offset="0"/>
<stop style="stop-color:#1a1a1a" offset=".36805"/>
<stop style="stop-color:#31363b" offset="1"/>
</linearGradient>
<linearGradient id="linearGradient20558" x1="25.802" x2="25.111" y1="20.374" y2="58.913" gradientUnits="userSpaceOnUse">
<stop style="stop-color:#3d3d3d" offset="0"/>
<stop offset=".61772"/>
<stop style="stop-color:#3d3d3d" offset="1"/>
</linearGradient>
<linearGradient id="linearGradient4557" x1="43.5" x2="44.142" y1="64.012" y2=".30621" gradientTransform="translate(.36068 -.13017)" gradientUnits="userSpaceOnUse">
<stop style="stop-color:#141618" offset="0"/>
<stop style="stop-color:#686868" offset=".51821"/>
<stop style="stop-color:#31363b" offset="1"/>
</linearGradient>
<linearGradient id="c" x1="32" x2="32" y1="30" y2="2" gradientTransform="matrix(.58714 0 0 .67102 1.3769 .19316)" gradientUnits="userSpaceOnUse">
<stop stop-color="#171d25" offset="0"/>
<stop stop-color="#303236" offset="1"/>
</linearGradient>
<linearGradient id="d" x1="22" x2="30" y1="9" y2="17" gradientTransform="matrix(.67102 0 0 .67102 .0349 .19316)" gradientUnits="userSpaceOnUse" xlink:href="#b"/>
<linearGradient id="b">
<stop offset="0"/>
<stop stop-opacity="0" offset="1"/>
</linearGradient>
<linearGradient id="e" x1="22" x2="29" y1="23" y2="30" gradientTransform="matrix(.67102 0 0 .67102 .0349 .19316)" gradientUnits="userSpaceOnUse" xlink:href="#b"/>
<linearGradient id="f" x1="16" x2="22" y1="9" y2="15" gradientTransform="matrix(.67102 0 0 .67102 1.2842 .11614)" gradientUnits="userSpaceOnUse" xlink:href="#a"/>
<linearGradient id="a">
<stop stop-color="#292c2f" offset="0"/>
<stop stop-opacity="0" offset="1"/>
</linearGradient>
<linearGradient id="g" x1="16" x2="22" y1="23.071" y2="29.071" gradientTransform="matrix(.67102 0 0 .67102 1.2842 .11614)" gradientUnits="userSpaceOnUse" xlink:href="#a"/>
</defs>
<g transform="translate(.65118 .045523)">
<path d="m1.3769 1.5352h18.789v18.789h-18.789z" fill="url(#c)" fill-rule="evenodd" style="fill:url(#c);stroke-width:.67102"/>
<path d="m2.048 10.258 1.342 1.342h16.104l0.67102 0.67102v-9.3943l-0.67102-0.67102z" fill="url(#d)" opacity=".2" style="fill:url(#d);stroke-width:.67102"/>
<path d="m2.048 19.653 0.67102 0.67102h17.446v-8.0522l-0.67102-0.67102z" fill="url(#e)" opacity=".2" style="fill:url(#e);stroke-width:.67102"/>
<path d="m2.048 2.2062h17.446v8.0522h-17.446z" fill="#397da1" fill-rule="evenodd" style="stroke-width:.67102"/>
<path d="m2.048 11.6h17.446v8.0522h-17.446z" fill="#4a4a4f" fill-rule="evenodd" style="stroke-width:.67102"/>
<path d="m12.692 2.8002 7.3812 7.3812h-10.065l-0.67102-0.67102 0.67102-6.0392z" fill="url(#f)" opacity=".2" style="fill:url(#f);stroke-width:.67102"/>
<path d="m9.3364 9.5104v-6.7102h3.3551l2.0131 2.0131v4.6971zm0.67102-0.67102h4.0261v-4.0261h-1.342v-1.342h-2.6841z" fill="#eff0f1" style="stroke-width:.67102"/>
<path d="m9.6478 17.97 1.6534 1.6534h9.4426v-0.04764l-6.3505-6.3512-2.3727-0.98237-2.0131 1.342-1.342 2.0131z" fill="url(#g)" opacity=".2" style="fill:url(#g);stroke-width:.67102"/>
<path d="m12.02 12.242a3.3551 3.3551 0 0 0-0.64418 0.06307l-0.02282 4e-3c-0.11139 0.02013-0.22076 0.0463-0.3288 0.07985a3.3081 3.3081 0 0 0-0.64351 0.28317 2.9713 2.9713 0 0 0-0.30867 0.19661c-0.06509 0.04697-0.12951 0.09394-0.19057 0.14494a2.6707 2.6707 0 0 0-0.07918 0.06979c-0.064418 0.05704-0.12884 0.11407-0.18789 0.17581-0.1436 0.14762-0.27042 0.30934-0.38449 0.48045a3.3819 3.3819 0 0 0-0.038248 0.05368 3.3457 3.3457 0 0 0-0.17044 0.30196 3.3605 3.3605 0 0 0-0.14427 0.33282c-0.021473 0.05771-0.046971 0.11407-0.065089 0.17312-0.00939 0.02952-0.014091 0.06039-0.022815 0.08992a3.039 3.039 0 0 0-0.063747 0.28183 3.3551 3.3551 0 0 0-0.03959 0.2778v0.0027a3.3551 3.3551 0 0 0-0.020802 0.34356 3.3551 3.3551 0 0 0 0.067102 0.66699c0.020131 0.11139 0.0463 0.22076 0.079851 0.3288a3.3054 3.3054 0 0 0 0.28317 0.64351 2.9713 2.9713 0 0 0 0.19661 0.30867 3.1055 3.1055 0 0 0 0.21473 0.26975c0.057037 0.06442 0.11407 0.12884 0.17581 0.18788 0.14762 0.1436 0.30934 0.27042 0.48112 0.38449 0.01745 0.01342 0.03556 0.0255 0.05368 0.03825 0.07985 0.051 0.16172 0.0973 0.24626 0.14091l0.05502 0.02952a3.3605 3.3605 0 0 0 0.33282 0.14427c0.05771 0.02147 0.11407 0.04697 0.17312 0.06509 0.02952 0.0094 0.06039 0.01409 0.09059 0.02214a3.1471 3.1471 0 0 0 0.28116 0.06442 3.3551 3.3551 0 0 0 0.27042 0.03825l0.0074 0.0013h0.0027a3.3551 3.3551 0 0 0 0.34356 0.0208 3.3551 3.3551 0 0 0 0.64418-0.06308l0.02281-4e-3c0.11139-0.02013 0.22076-0.0463 0.3288-0.07985a3.335 3.335 0 0 0 0.54017-0.22815l0.06844-0.03355a3.3551 3.3551 0 0 0 0.50326-0.33954c0.01342-0.01141 0.02885-0.02147 0.04294-0.03355a3.3551 3.3551 0 0 0 0.38516-0.38449c0.02684-0.03154 0.0557-0.06039 0.08119-0.09193a3.3551 3.3551 0 0 0 0.28317-0.41939c0.02617-0.04429 0.05234-0.0879 0.0765-0.1342a3.3551 3.3551 0 0 0 0.1946-0.45965c0.01074-0.0302 0.02751-0.05704 0.03691-0.08723 0.0094-0.0302 0.01409-0.06039 0.02214-0.09059l0.0027-0.0081 0.0067-0.02751a3.3551 3.3551 0 0 0 0.09327-0.51668l0.0013-0.0074v-0.0027a3.3551 3.3551 0 0 0 0.0208-0.34356 3.3551 3.3551 0 0 0-0.0671-0.66699c-0.02013-0.11139-0.04697-0.22144-0.07985-0.3288-0.0081-0.0255-0.02281-0.04831-0.03154-0.07381a3.3551 3.3551 0 0 0-0.53346-0.99109c-0.01946-0.02416-0.03355-0.05368-0.05368-0.07784-0.03489-0.04294-0.07583-0.08052-0.11407-0.11944a3.3551 3.3551 0 0 0-0.56433-0.49454c-0.02684-0.01812-0.051-0.03691-0.07784-0.05502a3.3685 3.3685 0 0 0-0.06039-0.03758 3.1243 3.1243 0 0 0-0.46233-0.24828c-0.0302-0.01208-0.06308-0.02147-0.09394-0.03355-0.07381-0.02885-0.14695-0.05838-0.22076-0.08119-0.02952-0.0094-0.06039-0.01409-0.08992-0.02214l-0.0081-0.0027a3.0793 3.0793 0 0 0-0.5442-0.09998l-0.0074-0.0013h-0.0027a3.3551 3.3551 0 0 0-0.34356-0.0208zm0 0.67102a2.6841 2.6841 0 0 1 1.4205 0.41133c-0.0013 0.0034-4e-3 0.0034-0.0054 0.0081 0.01208 0.02483 0.04362 0.02684 0.07247 0.03288l0.04429 0.0302c0.01678 0.02281 0.0302 0.04697 0.04026 0.07381a0.24828 0.24828 0 0 1 0 0.09394c-0.01879 0.04831-0.06912 0.04294-0.12548 0.0416-0.01543 0-0.02751 0.0013-0.0416 0-0.09461-6e-3 -0.18788-0.03623-0.23083 0.03154 0.0027 0.05167 0.01141 0.08052 0 0.12615-0.0087 0.03288-0.04362 0.05502-0.04227 0.08388 6.71e-4 0.01409 0.02818 0.04227 0.03154 0.0624 0.0027 0.01141-0.0047 0.03221 0 0.04228 0.0161 0.02952 0.05569-0.0047 0.08388 0 0.02684 4e-3 0.05234 0.04362 0.05234 0.07381a0.18117 0.18117 0 0 1-0.02013 0.08321c-0.02684 0.04026-0.07717 0.03087-0.11609 0.05234-0.03154 0.01879-0.04362 0.06308-0.06241 0.09461-0.02013 0.03355-0.04026 0.04563-0.03154 0.09394a0.22613 0.22613 0 0 1-0.11542 0.11609 0.26707 0.26707 0 0 0-0.09394 0.07381c-0.02214 0.02281-0.05167 0.03355-0.06308 0.05167-0.0087 0.01342-0.0013 0.04429-0.01074 0.06307-0.01342 0.0255-0.03556 0.04697-0.05234 0.07381-0.0081 0.01141-0.02281 0.0255-0.03154 0.0416-0.02013 0.03489-0.04563 0.06307-0.04227 0.09394 0.0027 0.0302 0.04026 0.03691 0.04227 0.06308 0.0013 0.01476-0.01141 0.02617-0.01074 0.04227 6.71e-4 0.02281 0.0087 0.03355 0.01074 0.05234 4e-3 0.04496-0.02281 0.06308-0.03154 0.09394-4e-3 0.01476 0.0034 0.03087 0 0.04227-0.0067 0.02214-0.0416 0.03623-0.0416 0.06308-6.71e-4 0.01879 0.02953 0.03556 0.03087 0.0624 0.0013 0.01812-0.01342 0.03556-0.01007 0.05234 0.0067 0.03355 0.06844 0.07918 0.09394 0.10535 0.03489 0.03422 0.06912 0.05771 0.08388 0.09394 0.01342 0.03154 0.01812 0.08186 0.04228 0.10535 0.01745 0.01678 0.051 0.02416 0.07381 0.0416 0.0208 0.01678 0.05033 0.02416 0.07314 0.04227 0.03691 0.02885 0.08723 0.08723 0.14628 0.08388 0.03154-0.0027 0.06039-0.01543 0.09461-0.02147 0.03623-6e-3 0.07851-0.02416 0.11542-0.0208 0.02818 0.0034 0.05435 0.02282 0.08388 0.0208a0.35027 0.35027 0 0 0 0.10468-0.03154c0.06039-0.02617 0.15366-0.07515 0.24157-0.06241 0.0671 0.0094 0.06777 0.08522 0.11474 0.11542 0.05368 0.0047 0.09394-0.01074 0.13689 0 0.03221 0.0074 0.06978 0.06844 0.07314 0.09394 0.0034 0.02684-0.01745 0.04697-0.0208 0.06308-0.0087 0.03556-0.01476 0.08254-0.0208 0.10468-0.0047 0.01812-0.01141 0.03489-0.01074 0.05234 0 0.0161 0.0255 0.05301 0.0416 0.07381 0.02013 0.0255 0.04899 0.04496 0.07381 0.07314 0.04429 0.051 0.06308 0.12078 0.09394 0.18856 0.0081 0.01745-0.0067 0.0208 0 0.04227-0.01342 0.102-0.04764 0.16977-0.11474 0.28317-0.03221 0.03624-0.06375 0.07985-0.06308 0.12548-0.0027 0.11005 0.05704 0.16641 0.05234 0.27243v4e-3a2.6841 2.6841 0 0 1-2.9505 0.97902c0-0.0034 4e-3 -4e-3 4e-3 -0.0081-0.0013-0.01745-0.01745-0.0255-0.03154-0.0416-0.01141-0.01342-0.0027-0.02952-0.01006-0.04228-0.01476-0.0208-0.03624-0.03154-0.04227-0.0624 0.04429-0.0087 0.10468 0.04898 0.16775 0.03154 0.0302-0.0087 0.08052-0.0671 0.09394-0.09461 0.0047-0.0087-4e-3 -0.04227 0-0.05234 6e-3 -0.01141 0.02013-0.01476 0.02147-0.0208 4e-3 -0.01677-0.0034-0.02147 0-0.03154 0.01074-0.03154 0.04496-0.051 0.06308-0.07381 0.01342-0.01677 0.02885-0.03422 0.0416-0.05234 0.01476-0.01879 0.02214-0.0255 0.03154-0.0416 0.0094-0.0557-0.03422-0.09797-0.0208-0.14695 0.01476-0.05502 0.09394-0.09059 0.14695-0.11542 0.01812-0.0087 0.03691-0.02617 0.05234-0.03154 0.03623-0.01275 0.08052-0.0087 0.11542-0.0208 0.05704-0.02013 0.0765-0.08388 0.10468-0.13622 0.01342-0.02416 0.02885-0.04563 0.03154-0.06308 2e-3 -0.01543-0.0034-0.03355 0-0.05234 0.0034-0.01812 0.0054-0.03221 0.01007-0.05234a0.53145 0.53145 0 0 0 0.01074-0.10468c0-0.02483-0.01006-0.03087-0.01074-0.05301-4e-3 -0.07918 0.02349-0.08254 0.05301-0.12548 0.01409-0.02147 0.0208-0.05838 0.03087-0.07381 0.04966-0.07247 0.13219-0.1087 0.12615-0.22009-0.0027-0.03623-0.01543-0.11407-0.04228-0.12548-0.01476-0.0067-0.05033-2e-3 -0.07314-0.01074-0.0718-0.02684-0.12414-0.1087-0.19929-0.11542h-0.0416c-0.02953 0-0.06173-0.02751-0.09394-0.03087-0.02147-0.0027-0.06173 6e-3 -0.07381 0-0.01879-0.0094-0.0161-0.04227-0.03154-0.05301-0.01208-0.0081-0.03355-0.01342-0.05234-0.02013a0.25029 0.25029 0 0 0-0.08388-0.02147c-0.01141-6.71e-4 -0.04026 2e-3 -0.05234 0-0.01946-0.0034-0.03489-0.02013-0.05234-0.03154-0.02214-0.01342-0.03355-0.02282-0.04227-0.0416 0.02013-0.06643-0.04966-0.07717-0.06308-0.11542-6e-3 -0.01812 0.0067-0.04697 0-0.06307-0.0074-0.02281-0.02684-0.03355-0.05234-0.05234a0.28652 0.28652 0 0 0-0.14695-0.07381c-0.02751-0.0034-0.06039 2e-3 -0.09394 0a0.16507 0.16507 0 0 1-0.10468-0.05234c-0.02617-0.02953-0.0302-0.05905-0.05301-0.07314-0.0208-0.01342-0.05838-0.01745-0.07314-0.03154-0.0067-6e-3 -0.0047-0.01745-0.01006-0.03154-0.01141-0.02214-0.03489-0.0255-0.02147-0.05234-0.02416-0.01208-0.01543 0.01543-0.0416 0.01074-0.02416-0.03355-0.04026-0.05234-0.09394-0.04227-0.02483 0.0047-0.04563 0.0416-0.07381 0.04227-0.02416 0-0.04227-0.03758-0.07381-0.04227-0.02349-0.0034-0.05637 0.02483-0.07314 0.0208-0.02617-0.0047-0.02885-0.03623-0.05234-0.05234-0.01745-0.01141-0.05368-0.04227-0.06308-0.0416-0.0302 0-0.05234 0.06442-0.09394 0.0416-0.0208-0.02617 0.03489-0.02751 0.01007-0.05234-0.01812-0.01812-0.02684 6.71e-4 -0.0416 0.01074-0.01745 0.01141-0.03355 0.02483-0.05234 0.03154-0.04227 0.01543-0.07247 0.01409-0.10535 0.03154-0.030196 0.01543-0.034222 0.04227-0.052339 0.07314-0.01342 0.0255-0.041603 0.06173-0.062405 0.06307-0.02617 0.0013-0.050326-0.03221-0.073812-0.04227-0.069786-0.0302-0.10938 0.02013-0.16775 0.0208-0.053681 6.71e-4 -0.12749-0.08522-0.12548-0.13622 0.00134-0.03087 0.017447-0.0765 0.020131-0.11542 0.00403-0.0302 0.031538-0.0557 0.032209-0.08388 0-0.03691-0.059721-0.06912-0.083877-0.07314-0.034893-0.0067-0.075154 0-0.11676 4e-3a2.6841 2.6841 0 0 1 0.25499-0.77301c0.00268 0 0.00671 0.0034 0.00872 4e-3 0.01946 0 0.023486-0.02416 0.041603-0.02147 0.018117 0.0034 0.049655 0.04093 0.052339 0.06307 0.00268 0.02684-0.018118 0.05368-0.010065 0.08388 0.028183 0.02952 0.084548 0.04563 0.12548 0.06308 0.026841-0.02214 0.00403-0.07381 0-0.10468-6.71e-4 -0.01409 0.00134-0.02952 0-0.04227-0.00336-0.02214-0.010736-0.04429-0.010736-0.06307 0-0.08723 0.067102-0.1228 0.12615-0.15702 0.024828-0.01476 0.051668-0.0416 0.073812-0.05234 0.03087-0.01543 0.04697-0.01678 0.07314-0.03154 0.0463-0.02684 0.08992-0.05368 0.12548-0.08388 0.01678-0.04026-0.0013-0.08723 0-0.12615 0.01678-0.01006 0.02416 0.0013 0.04227 0 0.02751-6e-3 0.03624-0.04697 0.05234-0.0624 0.0087-0.0094 0.04093-0.01208 0.05234-0.02147 0.02818-0.02147 0.02818-0.05301 0.05234-0.06241 0.0087-0.0034 0.02818-0.0067 0.0416-0.01074 0.01879-0.0047 0.04429-0.02147 0.07381-0.03154 0.01879-0.0067 0.06576-0.0034 0.07381-0.01006 0.0087-0.0094-0.0034-0.04898 0-0.06308 0.01409-0.06912 0.11609-0.07113 0.17782-0.09394 0.04228-0.01678 0.08858-0.05167 0.13622-0.04227-0.0094 0.03288-0.04965 0.02281-0.04227 0.0624 0.01074 0.0557 0.07515-0.01342 0.09461-0.02013 0.03758-0.0161 0.1087-0.02483 0.15702-0.04227 0.04294-0.01543 0.11407-0.04496 0.07381-0.09461-0.03355-2e-3 -0.04429 0.02952-0.07381 0.04227-0.02013 0.0034-0.02483-0.0094-0.0416-0.01074-0.01678-6.71e-4 -0.0255 0.01342-0.04227 0.01074-0.0161-0.0034-0.03892-0.03355-0.0416-0.05301-0.0067-0.051 0.05234-0.0671 0.07381-0.10468-0.01476-0.0463-0.0765-0.0027-0.11609-0.0208 4e-3 -0.02751 0.02013-0.05771 0.05301-0.06308a0.2107 0.2107 0 0 1 0.10468 0.0208c0.0087 0.0081-0.0034 0.02952 0.01006 0.04227 0.0161 0.01342 0.04227 0.0034 0.06307 0 0.0074-0.03489-0.04764-0.01946-0.0416-0.04227 0.04093-0.02684 0.11676-0.01342 0.16776-0.02013 0.02885-0.0047 0.05771-0.02818 0.08388-0.04227 0.02416-0.01409 0.04697-0.03355 0.07314-0.01074 0.0067 0.02483-0.01745 0.04026-0.03154 0.05234-0.04697 0.0416-0.08925 0.0879-0.12548 0.13622 0.02214 0.02214 0.05636 0.0067 0.09394 0.01074 0.01476 2e-3 0.03758 0.0081 0.05234 0.01074 0.01879 0.0034 0.03825-0.0034 0.05234 0 0.02617 6e-3 0.02684 0.0416 0.05301 0.0416 0.04093 0 0.04429-0.03489 0.02013-0.06308 0.0081-0.02885 0.02147-0.05368 0.01074-0.07381-0.01879-0.03691-0.09059 0.0067-0.09394-0.0416-0.0027-0.03019 0.03087-0.03959 0.0416-0.0624-0.0047-0.05905 0.04831-0.06241 0.04227-0.11542-0.0034-0.02214-0.02684-0.02147-0.04227-0.04228-0.0081-0.01074-0.01208-0.03355-0.0208-0.0416-0.0081-0.0067-0.01879-0.0094-0.02885-0.01342a2.6841 2.6841 0 0 1 0.50058-0.04965zm1.8151 0.71128a2.6841 2.6841 0 0 1 0.30263 0.32679c-0.02214 0-0.04362 0.01074-0.0624 0.01074-0.02684 0-0.08187-0.01342-0.11542-0.01074-0.02013 0.0013-0.03355 0.0094-0.05234 0.01074-0.05368 4e-3 -0.08455-0.0034-0.12615 0a0.44153 0.44153 0 0 0-0.11542 0.03087c-0.01342 0.0067-0.02349 0.02281-0.0416 0.03154-0.0087 4e-3 -0.02013 0.0054-0.03154 0.01074-0.01745 0.0081-0.04697 0.02684-0.06308 0.03154-0.02349 6e-3 -0.051-2e-3 -0.09394 0-0.03154 0.0013-0.08388-0.0047-0.08455-0.04228 0-0.05636 0.10401-0.03221 0.15769-0.0416 0.02013-4e-3 0.02818-0.02818 0.05234-0.04227 0.01141-0.0067 0.02013-0.01342 0.03154-0.0208 0.01812-0.01342 0.04898-0.03758 0.05234-0.05234 2e-3 -0.01342-0.01208-0.03221-0.01074-0.04227 0.0027-0.01275 0.0255-0.0255 0.04227-0.0416 0.0255-0.0255 0.0416-0.05704 0.07381-0.07381 0.0208-0.01141 0.06307-0.01409 0.07314-0.03087 0.0027-0.02013-6.71e-4 -0.02483 0-0.04227l0.01141-0.01141zm-4.4891 1.7473c0.016775 0.02348 0.034222 0.04697 0.05301 0.05771 0.00134 0.02013-0.00671 0.03758 0 0.05234 0.015434 0.02147 0.046971 0.02818 0.073812 0.04227 0.030196 0.01678 0.043616 0.05972 0.07247 0.07314 0.010736 4e-3 0.026841-0.0047 0.042274 0 0.040261 0.01208 0.048984 0.07381 0.083877 0.06308 0.022815-0.0067 0.027512-0.04093 0.031538-0.06308 0.015433-0.01611 0.028183-0.0416 0.052339-0.0416 0.037577-6.71e-4 0.048984 0.04697 0.063076 0.08388 0.00738 0.02013 0.025499 0.04026 0.031538 0.06241a0.55091 0.55091 0 0 1 0 0.16775c-0.010065 0.02818-0.050326 0.04294-0.073812 0.07381-0.010736 0.01409-0.022815 0.03221-0.031538 0.0416-0.014091 0.01812-0.030867 0.0255-0.041603 0.04227-0.00671 0.0087-0.0047 0.02885-0.010736 0.0416-0.018118 0.03892-0.046971 0.06844-0.031538 0.11542 0.00671 0.01879 0.031538 0.04026 0.031538 0.06308 0 0.02684-0.058378 0.03355-0.062405 0.06308-0.00336 0.0208 0.024157 0.06509 0.030867 0.09394 0.0047 0.02147 0.040261 0.03825 0.052339 0.05234 0.021473 0.02416 0.043616 0.05368 0.063076 0.08388 0.038919 0.05905 0.057037 0.13085 0.093943 0.18923 0.020131 0.02952 0.060392 0.05167 0.073812 0.08388 0.00671 0.01543-0.00604 0.04831 0 0.0624 0.022144 0.04966 0.12884 0.10132 0.17849 0.12615 0.02281 0.01141 0.0416 0.01946 0.06308 0.03154 0.03221 0.01812 0.09864 0.05502 0.11474 0.08388 0.01476 0.0255 0.02416 0.08455 0.03154 0.12548 0.0094 0.05368-0.0027 0.09931 0 0.15769 0.0013 0.03154 0.01074 0.05167 0.01074 0.08388v0.0416c-6.71e-4 0.03758 0.0034 0.07717 0 0.11542v0.04697a2.6841 2.6841 0 0 1-0.9958-2.317z" fill="#eff0f1" style="stroke-width:.67102"/>
</g>
<path transform="matrix(.33236 0 0 .33236 .4666 .364)" d="m4.7043 3.9815-0.012938 56.82h53.904l1.0222-2.8664s-23.875 0.76639-32.844-4.1404c-10.516-5.7529-15.372-49.697-15.372-49.697z" style="fill:url(#linearGradient3403);mix-blend-mode:normal;stroke-linejoin:round;stroke-width:1.1624;stroke:url(#linearGradient20558)"/>
<rect transform="matrix(.31135 0 0 .31071 1.025 1.0356)" x="1.0324" y=".59551" width="62.567" height="62.867" rx="5.803" ry="6.2447" style="fill:none;stroke-linejoin:round;stroke-miterlimit:7.8;stroke-opacity:.99515;stroke-width:3.7137;stroke:url(#linearGradient4557)"/>
</svg>
