<svg width="22" height="22" version="1.1" viewBox="0 0 22 22" xmlns="http://www.w3.org/2000/svg" xmlns:xlink="http://www.w3.org/1999/xlink">
<defs>
<linearGradient id="linearGradient3403" x1="6.9492" x2="11.215" y1="4.5549" y2="59.052" gradientUnits="userSpaceOnUse">
<stop style="stop-color:#32373c" offset="0"/>
<stop style="stop-color:#1a1a1a" offset=".36805"/>
<stop style="stop-color:#31363b" offset="1"/>
</linearGradient>
<linearGradient id="linearGradient20558" x1="25.802" x2="25.111" y1="20.374" y2="58.913" gradientUnits="userSpaceOnUse">
<stop style="stop-color:#3d3d3d" offset="0"/>
<stop offset=".61772"/>
<stop style="stop-color:#3d3d3d" offset="1"/>
</linearGradient>
<linearGradient id="linearGradient4557" x1="43.5" x2="44.142" y1="64.012" y2=".30621" gradientTransform="translate(.36068 -.13017)" gradientUnits="userSpaceOnUse">
<stop style="stop-color:#141618" offset="0"/>
<stop style="stop-color:#686868" offset=".51821"/>
<stop style="stop-color:#31363b" offset="1"/>
</linearGradient>
<linearGradient id="e" x1="9" x2="18" y1="14" y2="23" gradientUnits="userSpaceOnUse">
<stop stop-color="#4d4d4d" offset="0"/>
<stop stop-color="#232629" offset="1"/>
</linearGradient>
<linearGradient id="c" x1="23" x2="23" y1="18" y2="9" gradientUnits="userSpaceOnUse">
<stop stop-color="#c61423" offset="0"/>
<stop stop-color="#dc2b41" offset="1"/>
</linearGradient>
<linearGradient id="g" x1="11" x2="26" y1="8" y2="24" gradientTransform="translate(-2 1)" gradientUnits="userSpaceOnUse">
<stop stop-color="#292c2f" offset="0"/>
<stop stop-opacity="0" offset="1"/>
</linearGradient>
</defs>
<rect x="1.8218" y="1.6884" width="18.622" height="18.9" ry="0" style="fill-rule:evenodd;fill:#fafafa"/>
<g transform="matrix(.72313 0 0 .72313 .145 -1.1558)">
<path d="m16.5 6h-1v-2h1z" fill="#4d4d4d" stroke-width="1.4142"/>
<path d="m18 18-9 5 5-9z" fill="url(#e)" stroke-width=".52702" style="fill:url(#e)"/>
<path d="m14 14 9-5-5 9z" fill="url(#c)" stroke-width=".52702" style="fill:url(#c)"/>
<path d="m17 16a1 1 0 0 1-1 1 1 1 0 0 1-1-1 1 1 0 0 1 1-1 1 1 0 0 1 1 1z" fill="#bdc3c7"/>
<path d="m16.5 16a0.5 0.5 0 0 1-0.5 0.5 0.5 0.5 0 0 1-0.5-0.5 0.5 0.5 0 0 1 0.5-0.5 0.5 0.5 0 0 1 0.5 0.5z" fill="#9fa5a8"/>
<path d="m23 9-14 14 4.7891 4.7891c0.71733 0.13277 1.454 0.21094 2.2109 0.21094 3.4875 0 6.6082-1.4816 8.7969-3.8418l0.60938-0.70312c1.6206-2.0454 2.5938-4.6311 2.5938-7.4551 0-0.75692-0.07816-1.4936-0.21094-2.2109z" fill="url(#g)" fill-rule="evenodd" opacity=".2" style="fill:url(#g)"/>
<g fill="#4d4d4d" stroke-width="1.4142">
<path d="m6 15.5v1h-2v-1z"/>
<path d="m28 15.5v1h-2v-1z"/>
<path d="m16.5 28h-1v-2h1z"/>
</g>
</g>
<path transform="matrix(.33271 0 0 .33271 .4663 .36372)" d="m4.7043 3.9815-0.012938 56.82h53.904l1.0222-2.8664s-23.875 0.76639-32.844-4.1404c-10.516-5.7529-15.372-49.697-15.372-49.697z" style="fill:url(#linearGradient3403);mix-blend-mode:normal;stroke-linejoin:round;stroke-width:1.1624;stroke:url(#linearGradient20558)"/>
<rect transform="matrix(.31167 0 0 .31104 1.0253 1.036)" x="1.0324" y=".59551" width="62.567" height="62.867" rx="5.803" ry="6.2447" style="fill:none;stroke-linejoin:round;stroke-miterlimit:7.8;stroke-opacity:.99515;stroke-width:3.7137;stroke:url(#linearGradient4557)"/>
</svg>
