<?xml version="1.0" encoding="UTF-8" standalone="no"?>
<!-- Created with Inkscape (http://www.inkscape.org/) -->

<svg
   width="22"
   height="22"
   version="1.1"
   viewBox="0 0 22 22"
   id="svg22"
   sodipodi:docname="preferences-desktop-plasma-theme.svg"
   inkscape:version="1.1.2 (0a00cf5339, 2022-02-04)"
   xmlns:inkscape="http://www.inkscape.org/namespaces/inkscape"
   xmlns:sodipodi="http://sodipodi.sourceforge.net/DTD/sodipodi-0.dtd"
   xmlns:xlink="http://www.w3.org/1999/xlink"
   xmlns="http://www.w3.org/2000/svg"
   xmlns:svg="http://www.w3.org/2000/svg">
  <sodipodi:namedview
     id="namedview24"
     pagecolor="#ffffff"
     bordercolor="#666666"
     borderopacity="1.0"
     inkscape:showpageshadow="2"
     inkscape:pageopacity="0.0"
     inkscape:pagecheckerboard="0"
     inkscape:deskcolor="#d1d1d1"
     showgrid="false"
     inkscape:zoom="25.62"
     inkscape:cx="-4.0593286"
     inkscape:cy="13.934426"
     inkscape:window-width="3440"
     inkscape:window-height="1356"
     inkscape:window-x="0"
     inkscape:window-y="0"
     inkscape:window-maximized="1"
     inkscape:current-layer="g887"
     inkscape:pageshadow="2" />
  <defs
     id="defs12">
    <linearGradient
       id="linearGradient1005-3-3"
       x1="5.2535"
       x2="9.3823996"
       y1="15.383"
       y2="2.9421"
       gradientTransform="matrix(0.99999,0,0,0.99999,1.632,-0.61743)"
       gradientUnits="userSpaceOnUse">
      <stop
         stop-color="#fa8200"
         offset="0"
         id="stop2" />
      <stop
         stop-color="#ff9600"
         offset=".36953"
         id="stop4" />
      <stop
         stop-color="#ffb400"
         offset="1"
         id="stop6" />
    </linearGradient>
    <filter
       id="filter4014"
       x="-0.062499933"
       y="-0.057692993"
       width="1.1249999"
       height="1.115386"
       color-interpolation-filters="sRGB">
      <feGaussianBlur
         stdDeviation="1.093751"
         id="feGaussianBlur9" />
    </filter>
    <linearGradient
       inkscape:collect="always"
       xlink:href="#linearGradient3487"
       id="linearGradient3403"
       gradientUnits="userSpaceOnUse"
       x1="6.9491749"
       y1="4.5549412"
       x2="11.215498"
       y2="59.052471" />
    <linearGradient
       id="linearGradient3487">
      <stop
         style="stop-color:#32373c;stop-opacity:1"
         offset="0"
         id="stop3481" />
      <stop
         id="stop3483"
         offset="0.36804965"
         style="stop-color:#1a1a1a;stop-opacity:1" />
      <stop
         style="stop-color:#31363b;stop-opacity:1"
         offset="1"
         id="stop3485" />
    </linearGradient>
    <linearGradient
       inkscape:collect="always"
       xlink:href="#linearGradient20604"
       id="linearGradient20558"
       gradientUnits="userSpaceOnUse"
       x1="25.802212"
       y1="20.373846"
       x2="25.111048"
       y2="58.912758" />
    <linearGradient
       id="linearGradient20604">
      <stop
         id="stop20598"
         offset="0"
         style="stop-color:#3d3d3d;stop-opacity:1" />
      <stop
         style="stop-color:#000000;stop-opacity:1"
         offset="0.61772454"
         id="stop20600" />
      <stop
         id="stop20602"
         offset="1"
         style="stop-color:#3d3d3d;stop-opacity:1" />
    </linearGradient>
    <filter
       inkscape:collect="always"
       style="color-interpolation-filters:sRGB"
       id="filter20720"
       x="-0.017024755"
       y="-0.016457183"
       width="1.0340491"
       height="1.0329144">
      <feGaussianBlur
         inkscape:collect="always"
         stdDeviation="0.14745661"
         id="feGaussianBlur20722" />
    </filter>
    <linearGradient
       gradientTransform="translate(0.36067797,-0.13016949)"
       xlink:href="#linearGradient4555"
       id="linearGradient4557"
       x1="43.499737"
       y1="64.011795"
       x2="44.141731"
       y2="0.30621234"
       gradientUnits="userSpaceOnUse" />
    <linearGradient
       id="linearGradient4555">
      <stop
         style="stop-color:#141618;stop-opacity:1"
         offset="0"
         id="stop4551" />
      <stop
         id="stop4559"
         offset="0.51820582"
         style="stop-color:#686868;stop-opacity:1" />
      <stop
         style="stop-color:#31363b;stop-opacity:1"
         offset="1"
         id="stop4553" />
    </linearGradient>
    <filter
       style="color-interpolation-filters:sRGB"
       id="filter4601"
       x="-0.030244762"
       width="1.0604895"
       y="-0.030100647"
       height="1.0602013">
      <feGaussianBlur
         stdDeviation="0.014790289"
         id="feGaussianBlur4603" />
    </filter>
    <linearGradient
       xlink:href="#a"
       id="g"
       gradientUnits="userSpaceOnUse"
       gradientTransform="matrix(0.44615405,0,0,0.57255778,-171.72938,-286.59189)"
       x1="418.17001"
       y1="503.07901"
       x2="384.57101"
       y2="531.45801" />
    <linearGradient
       id="a">
      <stop
         stop-color="#1abc9c"
         id="stop3" />
      <stop
         offset="1"
         stop-color="#2980b9"
         id="stop5" />
    </linearGradient>
    <linearGradient
       xlink:href="#b"
       id="h"
       y1="521.633"
       x1="404.04501"
       y2="528.34998"
       x2="430.73599"
       gradientUnits="userSpaceOnUse"
       gradientTransform="matrix(0.44615405,0,0,0.57255778,-171.72938,-286.59256)" />
    <linearGradient
       id="b">
      <stop
         stop-color="#cc4a5e"
         id="stop9" />
      <stop
         offset="1"
         stop-color="#aa478a"
         id="stop11" />
    </linearGradient>
    <linearGradient
       xlink:href="#c"
       id="i"
       y1="542.224"
       x1="398.09201"
       y2="524.90002"
       x2="394.00299"
       gradientUnits="userSpaceOnUse"
       gradientTransform="matrix(0.44615405,0,0,0.57255778,-171.72938,-286.59256)" />
    <linearGradient
       id="c">
      <stop
         stop-color="#334545"
         id="stop15" />
      <stop
         offset="1"
         stop-color="#536161"
         id="stop17" />
    </linearGradient>
    <linearGradient
       xlink:href="#c"
       id="j"
       y1="568.79797"
       x1="431.57101"
       y2="562.79797"
       x2="439.57101"
       gradientUnits="userSpaceOnUse"
       gradientTransform="matrix(-0.44615405,0,0,0.57255778,202.65468,-309.49487)" />
    <linearGradient
       xlink:href="#c"
       id="k"
       y1="581.87"
       x1="406.53699"
       y2="572.67798"
       x2="423.32001"
       gradientUnits="userSpaceOnUse"
       gradientTransform="matrix(-0.44615405,0,0,0.57255778,202.65535,-309.49487)" />
    <linearGradient
       xlink:href="#c"
       id="l"
       y1="572.33398"
       x1="423.05399"
       y2="566.76599"
       x2="431.22501"
       gradientUnits="userSpaceOnUse"
       gradientTransform="matrix(-0.44615405,0,0,0.57255778,202.65468,-309.49487)" />
    <linearGradient
       xlink:href="#c"
       id="m"
       y1="577.10199"
       x1="431.31299"
       y2="571.44501"
       x2="440.63199"
       gradientUnits="userSpaceOnUse"
       gradientTransform="matrix(-0.44615405,0,0,0.57255778,202.65535,-309.49487)" />
    <linearGradient
       xlink:href="#c"
       id="n"
       y1="577.362"
       x1="430.56699"
       y2="591.328"
       x2="423.75"
       gradientUnits="userSpaceOnUse"
       gradientTransform="matrix(-0.44615405,0,0,0.57255778,202.65535,-309.49487)" />
    <linearGradient
       inkscape:collect="always"
       xlink:href="#o"
       id="linearGradient898"
       gradientUnits="userSpaceOnUse"
       gradientTransform="matrix(0.75332824,0,0,0.66922773,-290.61788,-344.66212)"
       x1="393.57101"
       y1="522.79797"
       x2="407.57101"
       y2="536.79797" />
    <linearGradient
       id="o"
       gradientUnits="userSpaceOnUse"
       x1="393.57101"
       x2="407.57101"
       y1="522.79797"
       y2="536.79797"
       gradientTransform="translate(-384.571,-515.798)">
      <stop
         offset="0"
         stop-color="#292c2f"
         id="stop42" />
      <stop
         offset="1"
         stop-opacity="0"
         id="stop44" />
    </linearGradient>
    <linearGradient
       id="p"
       gradientUnits="userSpaceOnUse"
       x2="0"
       y1="536.79797"
       y2="522.79797"
       gradientTransform="matrix(0.75332824,0,0,0.66922773,-290.61788,-344.66212)">
      <stop
         offset="0"
         stop-color="#eff0f1"
         id="stop47" />
      <stop
         offset="1"
         stop-color="#fcfcfc"
         id="stop49" />
    </linearGradient>
    <linearGradient
       inkscape:collect="always"
       xlink:href="#o"
       id="linearGradient72642"
       gradientUnits="userSpaceOnUse"
       gradientTransform="matrix(0.66922773,0,0,0.66922773,-257.51836,-344.66212)"
       x1="393.57101"
       y1="522.79797"
       x2="407.57101"
       y2="536.79797" />
  </defs>
  <g
     id="g887"
     transform="matrix(0.93239593,0,0,1.0449435,1.1879281,-1.0233496)">
    <path
       d="M 3.1933599,1.862658 A 3.3488156,3.3488156 0 0 0 0.82429376,2.8403997 3.3394464,3.3394464 0 0 0 -0.15277873,5.2094659 V 17.255565 a 3.3488156,3.3488156 0 0 0 0.97707249,2.367728 3.3394464,3.3394464 0 0 0 2.36906614,0.977741 H 17.91637 a 3.3488156,3.3488156 0 0 0 2.369066,-0.977072 3.3394464,3.3394464 0 0 0 0.977073,-2.369066 V 5.2087966 A 3.3488156,3.3488156 0 0 0 20.285436,2.8403997 3.3394464,3.3394464 0 0 0 17.91637,1.8633272 Z"
       id="path52"
       style="fill:url(#g);stroke-width:0.669228"
       inkscape:connector-curvature="0" />
    <path
       d="m 17.077158,20.601034 h 0.839212 a 3.3488156,3.3488156 0 0 0 2.369066,-0.977072 3.3387771,3.3387771 0 0 0 0.977073,-2.369066 V 5.2087966 A 3.3494848,3.3494848 0 0 0 20.285436,2.8397305 C 20.233906,2.7895384 20.159621,2.7674539 20.105414,2.7199387 L 6.5241063,12.781778 17.077828,20.601034 Z"
       id="path54"
       style="fill:url(#h);stroke-width:0.669228"
       inkscape:connector-curvature="0" />
    <path
       d="m -0.07447909,17.643048 c 0.03814599,0.314537 0.06558432,0.635097 0.18470686,0.916842 a 3.3387771,3.3387771 0 0 0 1.77880733,1.778138 3.3488156,3.3488156 0 0 0 1.3043248,0.263006 H 17.176873 L 6.5394986,12.741624 Z"
       id="path56"
       style="fill:url(#i);stroke-width:0.669228"
       inkscape:connector-curvature="0" />
    <path
       d="M 10.224266,15.471404 6.5394986,12.740955 v 5.460898 z"
       id="path58"
       style="fill:url(#j);stroke-width:0.669228"
       inkscape:connector-curvature="0" />
    <path
       d="m 13.908365,18.200515 v 2.400519 h 3.239732 l -3.239063,-2.400519 z"
       id="path60"
       style="fill:url(#k);stroke-width:0.669228"
       inkscape:connector-curvature="0" />
    <path
       d="m 10.224266,15.471404 v 5.12963 h 0.445706 l 3.239062,-2.39985 -3.684768,-2.730449 z"
       id="path62"
       style="fill:url(#l);stroke-width:0.669228"
       inkscape:connector-curvature="0" />
    <path
       d="m 6.5394986,18.201184 v 2.39985 h 3.2390622 z"
       id="path64"
       style="fill:url(#m);stroke-width:0.669228"
       inkscape:connector-curvature="0" />
    <path
       d="m 13.908365,18.200515 -3.239062,2.400519 h 3.239062 z"
       id="path66"
       style="fill:url(#n);stroke-width:0.669228"
       inkscape:connector-curvature="0" />
    <path
       d="M 21.262509,7.1970722 V 5.2094659 A 3.3494848,3.3494848 0 0 0 20.285436,2.8403997 c -0.05153,-0.050861 -0.125815,-0.072946 -0.180022,-0.120461 L 6.5241063,12.783116 Z"
       id="path68"
       inkscape:connector-curvature="0"
       style="fill:#aa478a;stroke-width:0.669228" />
    <path
       d="m 10.554865,17.924124 v 2.67691 h 7.361505 a 3.3488156,3.3488156 0 0 0 2.369066,-0.977072 3.3387771,3.3387771 0 0 0 0.714066,-1.064072 3.5803684,3.5803684 0 0 0 0.191399,-0.635766 z"
       id="path70"
       inkscape:connector-curvature="0"
       style="fill:#31363b;fill-opacity:0.863;stroke-width:0.669228" />
    <path
       d="m -0.07046372,17.924124 c 0.04483826,0.212145 0.09837648,0.439682 0.18069149,0.635766 a 3.3387771,3.3387771 0 0 0 1.77880733,1.778138 3.3488156,3.3488156 0 0 0 1.3043248,0.263006 h 7.3615051 v -2.67691 z"
       id="path72"
       inkscape:connector-curvature="0"
       style="fill:#ffffff;fill-opacity:0.784;stroke-width:0.669228" />
    <circle
       cx="18.585598"
       cy="19.262579"
       r="0.66922772"
       id="circle74"
       style="fill:#eff0f1;stroke-width:0.669228" />
    <path
       d="m 1.1856767,18.593351 v 0.669228 h 0.6692278 v -0.669228 z m 0.6692278,0.669228 v 0.669228 h 0.6692277 v -0.669228 z"
       id="path76"
       inkscape:connector-curvature="0"
       style="fill:#4d4d4d;stroke-width:0.669228" />
    <path
       d="m 19.924053,19.931807 a 3.3488156,3.3488156 0 0 0 0.150576,-0.115107 3.3488156,3.3488156 0 0 0 0.210138,-0.193407 3.3394464,3.3394464 0 0 0 0.22486,-0.247615 3.3394464,3.3394464 0 0 0 0.197423,-0.26836 3.3394464,3.3394464 0 0 0 0.169983,-0.286429 3.3394464,3.3394464 0 0 0 0.140538,-0.30316 3.3394464,3.3394464 0 0 0 0.110423,-0.315207 3.3394464,3.3394464 0 0 0 0.07696,-0.323906 3.3394464,3.3394464 0 0 0 0.04551,-0.330598 3.3394464,3.3394464 0 0 0 0.01205,-0.293122 V 14.577985 L 15.239459,8.5549353 13.231776,9.985075 8.5471818,5.2757194 H 7.877954 V 6.279561 l 4.684594,4.693294 -0.669228,0.928219 z m -1.068087,0.534713 a 3.3488156,3.3488156 0 0 1 -0.274384,0.06893 3.3488156,3.3488156 0 0 1 -0.330598,0.05019 3.3488156,3.3488156 0 0 1 -0.334614,0.01539 h 1.074111 l -0.133846,-0.13451 z"
       id="path78"
       style="opacity:0.2;fill:url(#linearGradient72642);fill-rule:evenodd;stroke-width:0.669228"
       inkscape:connector-curvature="0" />
    <path
       d="m 16.059036,20.601034 h 3.371143 a 3.7696544,3.3488156 0 0 0 0.376664,-0.01539 3.7696544,3.3488156 0 0 0 0.372144,-0.05019 3.7696544,3.3488156 0 0 0 0.308865,-0.06893 L 7.5577266,8.9798949 6.1603025,10.221312 9.636912,13.309798 8.8926237,14.23534 Z"
       id="path80"
       style="opacity:0.2;fill:url(#linearGradient898);fill-rule:evenodd;stroke-width:0.71003"
       inkscape:connector-curvature="0" />
    <path
       d="M 8.5069197,5.2087966 A 0.65765553,0.58423581 0 0 0 7.8477578,5.7943709 c 0,0.3245755 0.2937977,0.5855743 0.6591619,0.5855743 0.3653642,0 0.6591625,-0.2609988 0.6591625,-0.5855743 A 0.65765553,0.58423581 0 0 0 8.5069197,5.2087966 Z m 4.1433053,0 -1.506656,1.3384555 2.259984,2.0076832 -2.259984,2.0076827 1.506656,1.338456 L 14.91021,9.8933908 16.416866,8.5549353 14.91021,7.2164798 Z M 6.8586379,8.7222422 A 0.98685994,0.87668833 0 0 0 5.8702711,9.6009382 0.98685994,0.87668833 0 0 0 6.8593908,10.478965 0.98685994,0.87668833 0 0 0 7.8477578,9.600269 0.98685994,0.87668833 0 0 0 6.8586379,8.7222422 Z m 2.9666062,3.5134458 c -0.7307284,0 -1.3183244,0.521997 -1.3183244,1.171148 0,0.649151 0.587596,1.171149 1.3183244,1.171149 0.7307289,0 1.3183249,-0.521998 1.3183249,-1.171149 0,-0.649151 -0.587596,-1.171148 -1.3183249,-1.171148 z"
       id="path82"
       style="fill:url(#p);stroke-width:0.71003"
       inkscape:connector-curvature="0" />
  </g>
  <path
     style="display:inline;mix-blend-mode:normal;fill:url(#linearGradient3403);fill-opacity:1;stroke:url(#linearGradient20558);stroke-width:1.16242;stroke-linecap:butt;stroke-linejoin:round;stroke-miterlimit:4;stroke-dasharray:none;stroke-opacity:1;filter:url(#filter20720)"
     d="M 4.7043071,3.9814882 4.6913695,60.80196 H 58.59546 l 1.022155,-2.866369 c 0,0 -23.87537,0.766388 -32.844441,-4.140386 C 16.257548,48.042344 11.401114,4.0978197 11.401114,4.0978197 Z"
     id="path1686"
     sodipodi:nodetypes="ccccscc"
     transform="matrix(0.33147288,0,0,0.33147288,0.4673756,0.36471751)"
     inkscape:label="folder" />
  <rect
     style="display:inline;fill:none;fill-opacity:1;stroke:url(#linearGradient4557);stroke-width:3.71366;stroke-linejoin:round;stroke-miterlimit:7.8;stroke-dasharray:none;stroke-opacity:0.995146;filter:url(#filter4601)"
     id="rect4539"
     width="62.567089"
     height="62.866646"
     x="1.0323594"
     y="0.59551275"
     ry="6.2447233"
     rx="5.8029528"
     transform="matrix(0.31051807,0,0,0.30988516,1.0243039,1.0345233)"
     inkscape:label="contour" />
</svg>
