<svg width="22" height="22" version="1.1" viewBox="0 0 22 22" xmlns="http://www.w3.org/2000/svg" xmlns:xlink="http://www.w3.org/1999/xlink">
<defs>
<linearGradient id="linearGradient3403" x1="6.9492" x2="11.215" y1="4.5549" y2="59.052" gradientUnits="userSpaceOnUse">
<stop style="stop-color:#32373c" offset="0"/>
<stop style="stop-color:#1a1a1a" offset=".36805"/>
<stop style="stop-color:#31363b" offset="1"/>
</linearGradient>
<linearGradient id="linearGradient20558" x1="25.802" x2="25.111" y1="20.374" y2="58.913" gradientUnits="userSpaceOnUse">
<stop style="stop-color:#3d3d3d" offset="0"/>
<stop offset=".61772"/>
<stop style="stop-color:#3d3d3d" offset="1"/>
</linearGradient>
<linearGradient id="linearGradient4557" x1="43.5" x2="44.142" y1="64.012" y2=".30621" gradientTransform="translate(.36068 -.13017)" gradientUnits="userSpaceOnUse">
<stop style="stop-color:#141618" offset="0"/>
<stop style="stop-color:#686868" offset=".51821"/>
<stop style="stop-color:#31363b" offset="1"/>
</linearGradient>
<linearGradient id="linearGradient848" x2="0" y1="543.8" y2="502.66" gradientTransform="matrix(.44703 0 0 .42592 211.42 303.42)" gradientUnits="userSpaceOnUse" xlink:href="#a"/>
<linearGradient id="a" x2="0" y1="543.8" y2="502.66" gradientTransform="matrix(.66667 0 0 .63518 -256.38 -317.28)" gradientUnits="userSpaceOnUse">
<stop stop-color="#c6cdd1" offset="0"/>
<stop stop-color="#e0e5e7" offset="1"/>
</linearGradient>
</defs>
<g transform="matrix(.84441 0 0 .98646 -320.81 -509.28)">
<g transform="translate(.0014429 -.0019871)">
<path d="m404.79 522.2-0.67054-0.67055-20.034 12.74 1.6308 2.0116h16.928c1.1895 0 2.1457-0.95619 2.1457-2.1457z" style="fill:url(#linearGradient848);stroke-width:.67054"/>
<path d="m385.48 517.51a2.1404 2.1404 0 0 0-2.1457 2.1457v14.484c0 1.1902 0.9562 2.1457 2.1457 2.1457h0.23804l-1.6308-2.0116 20.034-12.74 0.67054 0.67055v-2.5481c0-1.1902-0.95619-2.1457-2.1457-2.1457z" style="fill:url(#linearGradient848);stroke-width:.67054"/>
<path d="m385.01 517.51a1.671 1.671 0 0 0-1.6764 1.6764v1.0058h21.457v-1.0058a1.671 1.671 0 0 0-1.6764-1.6764z" style="fill:#566069;stroke-width:.67054"/>
<path d="m383.33 520.19h21.457v0.67054h-21.457z" style="fill:#3daee9;stroke-width:.67054"/>
<rect x="384.01" y="521.53" width="20.116" height="13.411" ry="1.3411" style="fill:#fff;stroke-width:.67054"/>
<rect x="402.22" y="518.2" width="1.3411" height="1.1467" rx=".67054" style="fill:#eff0f1;stroke-width:.62004"/>
</g>
<g transform="matrix(.67054 0 0 .67054 125.43 170.3)">
<path transform="translate(384.57 515.8)" d="m4 11v6h7v-5h-3l-1-1z" style="fill:#7aabdc"/>
<path d="m388.57 534.8v6h7v-5h-3l-1-1z" style="fill:#7aabdc"/>
<path d="m398.57 526.8v6h5v-4l-2-2z" style="fill:#f95"/>
<path d="m401.57 526.8 2 2h-2z" style="fill-rule:evenodd;fill:#d45500"/>
<path d="m398.57 534.8v6h5v-4l-2-2z" style="fill:#71c837"/>
<path d="m401.57 534.8 2 2h-2z" style="fill-rule:evenodd;fill:#447821"/>
<rect x="406.57" y="526.8" width="6" height="6" rx="2.6e-5" style="fill:#333"/>
<rect x="407.57" y="528.8" width="4" height="2" rx="1" style="fill:#3daee9"/>
<rect x="409.57" y="528.8" width="2" height="2" rx="1" style="fill:#eff0f1"/>
</g>
</g>
<path transform="matrix(.33212 0 0 .33212 .46681 .36419)" d="m4.7043 3.9815-0.012938 56.82h53.904l1.0222-2.8664s-23.875 0.76639-32.844-4.1404c-10.516-5.7529-15.372-49.697-15.372-49.697z" style="fill:url(#linearGradient3403);mix-blend-mode:normal;stroke-linejoin:round;stroke-width:1.1624;stroke:url(#linearGradient20558)"/>
<rect transform="matrix(.31113 0 0 .31049 1.0248 1.0353)" x="1.0324" y=".59551" width="62.567" height="62.867" rx="5.803" ry="6.2447" style="fill:none;stroke-linejoin:round;stroke-miterlimit:7.8;stroke-opacity:.99515;stroke-width:3.7137;stroke:url(#linearGradient4557)"/>
</svg>
