<?xml version="1.0" encoding="UTF-8" standalone="no"?>
<!-- Created with Inkscape (http://www.inkscape.org/) -->

<svg
   width="22"
   height="22"
   version="1.1"
   viewBox="0 0 22 22"
   id="svg22"
   sodipodi:docname="preferences-gtk-config.svg"
   inkscape:version="1.1.2 (0a00cf5339, 2022-02-04)"
   xmlns:inkscape="http://www.inkscape.org/namespaces/inkscape"
   xmlns:sodipodi="http://sodipodi.sourceforge.net/DTD/sodipodi-0.dtd"
   xmlns:xlink="http://www.w3.org/1999/xlink"
   xmlns="http://www.w3.org/2000/svg"
   xmlns:svg="http://www.w3.org/2000/svg">
  <sodipodi:namedview
     id="namedview24"
     pagecolor="#ffffff"
     bordercolor="#666666"
     borderopacity="1.0"
     inkscape:showpageshadow="2"
     inkscape:pageopacity="0.0"
     inkscape:pagecheckerboard="0"
     inkscape:deskcolor="#d1d1d1"
     showgrid="false"
     inkscape:zoom="25.62"
     inkscape:cx="-2.0296643"
     inkscape:cy="16.783763"
     inkscape:window-width="3440"
     inkscape:window-height="1356"
     inkscape:window-x="0"
     inkscape:window-y="0"
     inkscape:window-maximized="1"
     inkscape:current-layer="g35"
     inkscape:pageshadow="2" />
  <defs
     id="defs12">
    <linearGradient
       id="linearGradient1005-3-3"
       x1="5.2535"
       x2="9.3823996"
       y1="15.383"
       y2="2.9421"
       gradientTransform="matrix(0.99999,0,0,0.99999,1.632,-0.61743)"
       gradientUnits="userSpaceOnUse">
      <stop
         stop-color="#fa8200"
         offset="0"
         id="stop2" />
      <stop
         stop-color="#ff9600"
         offset=".36953"
         id="stop4" />
      <stop
         stop-color="#ffb400"
         offset="1"
         id="stop6" />
    </linearGradient>
    <filter
       id="filter4014"
       x="-0.062499933"
       y="-0.057692993"
       width="1.1249999"
       height="1.115386"
       color-interpolation-filters="sRGB">
      <feGaussianBlur
         stdDeviation="1.093751"
         id="feGaussianBlur9" />
    </filter>
    <linearGradient
       inkscape:collect="always"
       xlink:href="#linearGradient3487"
       id="linearGradient3403"
       gradientUnits="userSpaceOnUse"
       x1="6.9491749"
       y1="4.5549412"
       x2="11.215498"
       y2="59.052471" />
    <linearGradient
       id="linearGradient3487">
      <stop
         style="stop-color:#32373c;stop-opacity:1"
         offset="0"
         id="stop3481" />
      <stop
         id="stop3483"
         offset="0.36804965"
         style="stop-color:#1a1a1a;stop-opacity:1" />
      <stop
         style="stop-color:#31363b;stop-opacity:1"
         offset="1"
         id="stop3485" />
    </linearGradient>
    <linearGradient
       inkscape:collect="always"
       xlink:href="#linearGradient20604"
       id="linearGradient20558"
       gradientUnits="userSpaceOnUse"
       x1="25.802212"
       y1="20.373846"
       x2="25.111048"
       y2="58.912758" />
    <linearGradient
       id="linearGradient20604">
      <stop
         id="stop20598"
         offset="0"
         style="stop-color:#3d3d3d;stop-opacity:1" />
      <stop
         style="stop-color:#000000;stop-opacity:1"
         offset="0.61772454"
         id="stop20600" />
      <stop
         id="stop20602"
         offset="1"
         style="stop-color:#3d3d3d;stop-opacity:1" />
    </linearGradient>
    <filter
       inkscape:collect="always"
       style="color-interpolation-filters:sRGB"
       id="filter20720"
       x="-0.017024755"
       y="-0.016457183"
       width="1.0340491"
       height="1.0329144">
      <feGaussianBlur
         inkscape:collect="always"
         stdDeviation="0.14745661"
         id="feGaussianBlur20722" />
    </filter>
    <linearGradient
       gradientTransform="translate(0.36067797,-0.13016949)"
       xlink:href="#linearGradient4555"
       id="linearGradient4557"
       x1="43.499737"
       y1="64.011795"
       x2="44.141731"
       y2="0.30621234"
       gradientUnits="userSpaceOnUse" />
    <linearGradient
       id="linearGradient4555">
      <stop
         style="stop-color:#141618;stop-opacity:1"
         offset="0"
         id="stop4551" />
      <stop
         id="stop4559"
         offset="0.51820582"
         style="stop-color:#686868;stop-opacity:1" />
      <stop
         style="stop-color:#31363b;stop-opacity:1"
         offset="1"
         id="stop4553" />
    </linearGradient>
    <filter
       style="color-interpolation-filters:sRGB"
       id="filter4601"
       x="-0.030244762"
       width="1.0604895"
       y="-0.030100647"
       height="1.0602013">
      <feGaussianBlur
         stdDeviation="0.014790289"
         id="feGaussianBlur4603" />
    </filter>
    <linearGradient
       inkscape:collect="always"
       xlink:href="#a"
       id="linearGradient848"
       gradientUnits="userSpaceOnUse"
       gradientTransform="matrix(0.44688495,0,0,0.42577644,212.40813,303.49006)"
       y1="543.79999"
       x2="0"
       y2="502.66" />
    <linearGradient
       id="a"
       x2="0"
       y1="543.79999"
       y2="502.66"
       gradientTransform="matrix(0.66667,0,0,0.63518,-256.38,-317.28)"
       gradientUnits="userSpaceOnUse">
      <stop
         stop-color="#c6cdd1"
         offset="0"
         id="stop2-2" />
      <stop
         stop-color="#e0e5e7"
         offset="1"
         id="stop4-1" />
    </linearGradient>
    <linearGradient
       inkscape:collect="always"
       xlink:href="#a"
       id="linearGradient850"
       gradientUnits="userSpaceOnUse"
       gradientTransform="matrix(0.44688495,0,0,0.42577644,212.40813,303.49006)"
       y1="543.79999"
       x2="0"
       y2="502.66" />
    <linearGradient
       id="linearGradient881"
       x2="0"
       y1="543.79999"
       y2="502.66"
       gradientTransform="matrix(0.66667,0,0,0.63518,-256.38,-317.28)"
       gradientUnits="userSpaceOnUse">
      <stop
         stop-color="#c6cdd1"
         offset="0"
         id="stop877" />
      <stop
         stop-color="#e0e5e7"
         offset="1"
         id="stop879" />
    </linearGradient>
    <radialGradient
       cx="25.641001"
       cy="3.6835999"
       r="17.995001"
       xlink:href="#linearGradient3052"
       id="radialGradient3082-3"
       gradientUnits="userSpaceOnUse"
       gradientTransform="matrix(0.39364485,-2.6812963e-7,0,0.17219861,385.80798,523.48162)" />
    <linearGradient
       id="linearGradient3052">
      <stop
         style="stop-color:#555753"
         id="stop3054" />
      <stop
         offset="1"
         style="stop-color:#2e3436"
         id="stop3056" />
    </linearGradient>
    <linearGradient
       inkscape:collect="always"
       xlink:href="#linearGradient4293"
       id="linearGradient969"
       gradientUnits="userSpaceOnUse"
       gradientTransform="matrix(0.67032407,0,0,0.67032407,383.59693,515.23029)"
       x1="9"
       y1="10.999974"
       x2="23"
       y2="25" />
    <linearGradient
       inkscape:collect="always"
       id="linearGradient4293">
      <stop
         id="stop4295" />
      <stop
         offset="1"
         style="stop-opacity:0"
         id="stop4297" />
    </linearGradient>
  </defs>
  <g
     id="g864"
     transform="matrix(0.90144703,0,0,1,-345.08178,-516.28911)">
    <g
       transform="translate(0.00143,-0.00198712)"
       id="g35">
      <path
         d="m 405.71619,522.20339 -0.67032,-0.67032 -20.02727,12.73616 1.63022,2.01097 h 16.92234 c 1.18915,0 2.14503,-0.95588 2.14503,-2.14504 z"
         id="path19"
         style="fill:url(#linearGradient848);stroke-width:0.670324"
         inkscape:connector-curvature="0" />
      <path
         d="m 386.41086,517.51112 a 2.1396744,2.1396744 0 0 0 -2.14504,2.14504 v 14.479 c 0,1.18983 0.95588,2.14504 2.14504,2.14504 h 0.23796 l -1.63022,-2.01097 20.02727,-12.73616 0.67032,0.67032 v -2.54723 c 0,-1.18982 -0.95588,-2.14504 -2.14503,-2.14504 z"
         id="path21"
         style="fill:url(#linearGradient850);stroke-width:0.670324"
         inkscape:connector-curvature="0" />
      <path
         d="m 385.94163,517.51112 a 1.6704476,1.6704476 0 0 0 -1.67581,1.67581 v 1.00549 h 21.45037 v -1.00549 a 1.6704476,1.6704476 0 0 0 -1.67581,-1.67581 z"
         id="path23"
         inkscape:connector-curvature="0"
         style="fill:#566069;stroke-width:0.670324" />
      <path
         d="m 384.26582,520.19242 h 21.45037 v 0.67032 h -21.45037 z"
         id="path25"
         inkscape:connector-curvature="0"
         style="fill:#3daee9;stroke-width:0.670324" />
      <rect
         x="384.93616"
         y="521.53308"
         width="20.109722"
         height="13.406482"
         ry="1.3406482"
         id="rect27"
         style="fill:#ffffff;stroke-width:0.670324" />
      <rect
         x="403.33826"
         y="518.24298"
         width="1.3406482"
         height="1.1929418"
         rx="0.67032409"
         id="rect29"
         style="fill:#eff0f1;stroke-width:0.63232" />
    </g>
    <path
       inkscape:connector-curvature="0"
       style="fill:url(#radialGradient3082-3);stroke-width:0.670324"
       id="path4490-5"
       d="m 397.67373,522.87172 c -1.90637,0 -2.264,2.7853 -1.1914,2.7853 1.07215,0 3.09801,-2.7853 1.1914,-2.7853 z m -2.93641,0.42853 c -0.03,-1.1e-4 -0.0627,0.003 -0.0965,0.006 -1.08033,0.1312 -0.70011,1.88922 -0.12501,1.92201 0.55688,0.032 1.16612,-1.92482 0.2211,-1.92788 z m -1.87324,0.64902 c -0.0661,-0.004 -0.13926,0.008 -0.22072,0.0401 -0.86832,0.34285 -0.13176,1.75812 0.35435,1.66299 0.44122,-0.0862 0.50447,-1.66329 -0.13363,-1.70316 z m -1.41731,1.15708 c -0.0755,-0.002 -0.15691,0.023 -0.244,0.0853 -0.69507,0.49878 0.23387,1.70377 0.64284,1.51695 0.35774,-0.16365 0.1295,-1.58389 -0.39894,-1.6023 z m 4.10523,1.15035 c -1.506,-0.0248 -3.49269,0.70999 -3.83158,2.18608 -0.36674,1.59727 1.51074,3.81348 3.4695,3.81348 0.96358,0 2.07496,-0.84674 2.28308,-1.91909 0.15879,-0.8176 -1.86886,-0.48994 -1.79611,0.051 0.0875,0.64854 -0.48904,0.96913 -1.05357,0.55112 -1.79697,-1.33096 2.97546,-1.99511 2.66067,-3.81348 -0.098,-0.56605 -0.82842,-0.8543 -1.73199,-0.86917 z" />
    <path
       inkscape:connector-curvature="0"
       style="opacity:0.2;fill:url(#linearGradient969);fill-rule:evenodd;stroke-width:0.670324"
       id="path4375-6"
       d="m 397.68565,522.86904 c -0.26818,0.78675 -0.68662,1.51081 -1.20979,2.19038 l -1.86981,-1.87125 -0.86176,1.3621 0.082,0.21233 0.21578,0.21232 0.43155,0.42467 0.86309,0.84931 c -0.0267,0.0252 0.0101,0.0489 -0.017,0.074 l -0.15376,-0.0812 -2.47905,-2.47905 -0.41487,0.763 0.2495,0.24951 -0.30279,0.40617 0.12123,0.1213 0.1213,0.12131 0.24269,0.24261 0.48522,0.48522 0.97044,0.97044 c -0.36757,-0.21693 -1.03773,-0.37603 -1.03773,-0.37603 l -0.35831,-0.33769 -0.7609,-0.76083 -0.38045,-0.38042 -0.19024,-0.1902 -0.0951,-0.0951 -0.13963,-0.0951 -0.29457,0.53672 0.16537,0.28721 -0.30867,0.24805 0.14063,0.15512 0.0734,0.15512 0.28128,0.31024 0.56255,0.62049 1.12512,1.24098 c -0.21887,0.12482 -1.02791,0.252 -1.25634,0.3728 l 0.69628,1.71749 3.95078,4.13869 h 8.04388 v -4.69227 z" />
  </g>
  <path
     style="display:inline;mix-blend-mode:normal;fill:url(#linearGradient3403);fill-opacity:1;stroke:url(#linearGradient20558);stroke-width:1.16242;stroke-linecap:butt;stroke-linejoin:round;stroke-miterlimit:4;stroke-dasharray:none;stroke-opacity:1;filter:url(#filter20720)"
     d="M 4.7043071,3.9814882 4.6913695,60.80196 H 58.59546 l 1.022155,-2.866369 c 0,0 -23.87537,0.766388 -32.844441,-4.140386 C 16.257548,48.042344 11.401114,4.0978197 11.401114,4.0978197 Z"
     id="path1686"
     sodipodi:nodetypes="ccccscc"
     transform="matrix(0.3320159,0,0,0.3320159,0.46690069,0.36427856)"
     inkscape:label="folder" />
  <rect
     style="display:inline;fill:none;fill-opacity:1;stroke:url(#linearGradient4557);stroke-width:3.71366;stroke-linejoin:round;stroke-miterlimit:7.8;stroke-dasharray:none;stroke-opacity:0.995146;filter:url(#filter4601)"
     id="rect4539"
     width="62.567089"
     height="62.866646"
     x="1.0323594"
     y="0.59551275"
     ry="6.2447233"
     rx="5.8029528"
     transform="matrix(0.31102677,0,0,0.31039282,1.0247413,1.0351817)"
     inkscape:label="contour" />
</svg>
