<svg width="22" height="22" version="1.1" viewBox="0 0 22 22" xmlns="http://www.w3.org/2000/svg" xmlns:xlink="http://www.w3.org/1999/xlink">
<defs>
<linearGradient id="linearGradient3403" x1="6.9492" x2="11.215" y1="4.5549" y2="59.052" gradientUnits="userSpaceOnUse">
<stop style="stop-color:#32373c" offset="0"/>
<stop style="stop-color:#1a1a1a" offset=".36805"/>
<stop style="stop-color:#31363b" offset="1"/>
</linearGradient>
<linearGradient id="linearGradient20558" x1="25.802" x2="25.111" y1="20.374" y2="58.913" gradientUnits="userSpaceOnUse">
<stop style="stop-color:#3d3d3d" offset="0"/>
<stop offset=".61772"/>
<stop style="stop-color:#3d3d3d" offset="1"/>
</linearGradient>
<linearGradient id="linearGradient4557" x1="43.5" x2="44.142" y1="64.012" y2=".30621" gradientTransform="translate(.36068 -.13017)" gradientUnits="userSpaceOnUse">
<stop style="stop-color:#141618" offset="0"/>
<stop style="stop-color:#686868" offset=".51821"/>
<stop style="stop-color:#31363b" offset="1"/>
</linearGradient>
<linearGradient id="linearGradient919" x1="7.4006" x2="33.063" y1="41.743" y2="7.1074" gradientTransform="matrix(.44229 0 0 .44229 .42233 .35284)" gradientUnits="userSpaceOnUse">
<stop style="stop-opacity:.99608" offset="0"/>
<stop style="stop-color:#353a3f;stop-opacity:.99608" offset="1"/>
</linearGradient>
<linearGradient id="b" x1="6" x2="26" y1="6" y2="26" gradientUnits="userSpaceOnUse" xlink:href="#a"/>
<linearGradient id="a">
<stop stop-color="#292c2f" offset="0"/>
<stop stop-opacity="0" offset="1"/>
</linearGradient>
<linearGradient id="c" x1="23" x2="30" y1="13" y2="20" gradientUnits="userSpaceOnUse" xlink:href="#a"/>
<linearGradient id="d" x1="2" x2="2" y1="30" y2="2" gradientUnits="userSpaceOnUse">
<stop stop-color="#a5a5a5" offset="0"/>
<stop stop-color="#f5f2f5" offset="1"/>
</linearGradient>
<linearGradient id="e" x1="9" x2="23" y1="12" y2="26" gradientUnits="userSpaceOnUse" xlink:href="#a"/>
<linearGradient id="f" x1="16" x2="16" y1="23" y2="9" gradientUnits="userSpaceOnUse">
<stop stop-color="#ffd42a" offset="0"/>
<stop stop-color="#ffdf62" offset="1"/>
</linearGradient>
</defs>
<rect x="1.8213" y="1.6879" width="18.614" height="18.891" ry="0" style="fill-rule:evenodd;fill:url(#linearGradient919)"/>
<g transform="matrix(.67141 0 0 .67141 1.0391 .48102)">
<rect x="2" y="2" width="28" height="28" rx="14" fill="#4f575f"/>
<path d="m18.594 2.248-2.975 0.38-4.135 2.388-1.502 2.601s-1.973 1.39-2.271 1.31c-2.517-0.029-3.869 0.665-4.58 1.548-0.301 0.703-0.537 1.44-0.72 2.197-6e-3 0.76 0.161 1.351 0.161 1.351 7.06 6.357 14.121 9.097 21.182 13.643a13.9 13.9 0 0 0 1.275-0.959l0.069-0.06c0.36-0.308 0.703-0.636 1.029-0.979 0.072-0.076 0.14-0.155 0.21-0.232a13.928 13.928 0 0 0 1.749-2.375l0.055-0.09a13.991 13.991 0 0 0 1.824-6.282l2e-3 -0.02v-1e-3l-1.824-7.638a13.95 13.95 0 0 0-9.55-6.783z" fill="url(#b)" fill-rule="evenodd" opacity=".2" style="fill:url(#b)"/>
<path d="m29.012 10.842-4.307 6.66 4.12 4.12a13.997 13.997 0 0 0 0.187-10.78z" fill="url(#c)" fill-rule="evenodd" opacity=".2" style="fill:url(#c)"/>
<path d="m16 2a14 14 0 0 0-13.059 9h0.059l3-1 2 2v-2l2-1v-1l2-1 2-2v1l1-1-1-1h2v1l2-1-1-1v-0.95a14 14 0 0 0-1-0.05zm10.375 4.625-0.375 0.375v1h1.469a14 14 0 0 0-1.094-1.375zm1.316 1.684-3.691 3.691-1 3v1l2 2 2 1 2.791-0.688a14 14 0 0 0 0.209-2.312 14 14 0 0 0-2.309-7.691zm-23.691 4.691-1 1h-0.838c-0.05 0.34-0.088 0.681-0.113 1.023v2e-3l1.951 0.975 1 1 2 1 1 1-1 1v2l1 2 2 2v2.629a14 14 0 0 0 6 1.371c0.17-3e-3 0.34-9e-3 0.51-0.018l0.49-0.982v-1l2-1 1-1v-2l1-1v-1l-1-1-3-1-2-2h-1l-1-1-3-1-2 1h-2v-2h-1v-2z" fill="url(#d)" style="fill:url(#d)"/>
<path d="M 29.979,15.414 A 14,14 0 0 1 16,29 14,14 0 0 1 2.021,15.586 14,14 0 0 0 2,16 14,14 0 0 0 16,30 14,14 0 0 0 30,16 14,14 0 0 0 29.979,15.414 Z" fill="#292c2f" opacity=".3"/>
<path d="m16 10.205c1.388 1.176 3.393 1.961 5.99 2.357-0.14 1.264-0.277 2.216-0.603 3.136-0.688 1.933-1.488 3.108-2.205 3.955-1.115 1.31-2.126 1.84-3.182 2.368-1.056-0.528-2.067-1.058-3.18-2.368-0.719-0.847-1.52-2.022-2.207-3.955-0.326-0.92-0.462-1.872-0.603-3.136 2.597-0.396 4.602-1.18 5.99-2.357z" fill="#4f575f"/>
<path d="m12.938 21.062 8.938 8.938h8.124v-11.093l-7-7-3 0.093-4-2-4 2-3-0.093 2 6.093z" fill="url(#e)" opacity=".2" style="fill:url(#e)"/>
<path d="m16 11.254c-1.526 1.06-3.24 1.596-4.96 1.96 0.815 4.622 2.57 6.599 4.96 7.837 2.39-1.238 4.145-3.215 4.96-7.837-1.72-0.364-3.434-0.9-4.96-1.96zm0-2.254s-1.75 2.324-7 2.907c0 0 0 8.17 7 11.093 7-2.924 7-11.093 7-11.093-5.25-0.583-7-2.907-7-2.907zm0 1.205c1.388 1.177 3.393 1.961 5.99 2.357-0.14 1.264-0.277 2.215-0.603 3.135-0.688 1.933-1.488 3.11-2.205 3.955-1.115 1.311-2.126 1.84-3.182 2.368-1.056-0.527-2.067-1.057-3.182-2.368-0.717-0.845-1.517-2.022-2.205-3.955-0.326-0.92-0.463-1.87-0.604-3.135 2.598-0.396 4.603-1.18 5.991-2.357z" fill="url(#f)" style="fill:url(#f)"/>
</g>
<path transform="matrix(.33255 0 0 .33255 .46643 .36385)" d="m4.7043 3.9815-0.012938 56.82h53.904l1.0222-2.8664s-23.875 0.76639-32.844-4.1404c-10.516-5.7529-15.372-49.697-15.372-49.697z" style="fill:url(#linearGradient3403);mix-blend-mode:normal;stroke-linejoin:round;stroke-width:1.1624;stroke:url(#linearGradient20558)"/>
<rect transform="matrix(.31153 0 0 .31089 1.0252 1.0358)" x="1.0324" y=".59551" width="62.567" height="62.867" rx="5.803" ry="6.2447" style="fill:none;stroke-linejoin:round;stroke-miterlimit:7.8;stroke-opacity:.99515;stroke-width:3.7137;stroke:url(#linearGradient4557)"/>
</svg>
