<svg width="22" height="22" version="1.1" viewBox="0 0 22 22" xmlns="http://www.w3.org/2000/svg" xmlns:xlink="http://www.w3.org/1999/xlink">
<style id="current-color-scheme" type="text/css">.ColorScheme-Highlight {
        color:#3daee9;
      }</style>
<defs>
<linearGradient id="linearGradient3403" x1="6.9492" x2="11.215" y1="4.5549" y2="59.052" gradientUnits="userSpaceOnUse">
<stop style="stop-color:#32373c" offset="0"/>
<stop style="stop-color:#1a1a1a" offset=".36805"/>
<stop style="stop-color:#31363b" offset="1"/>
</linearGradient>
<linearGradient id="linearGradient20558" x1="25.802" x2="25.111" y1="20.374" y2="58.913" gradientUnits="userSpaceOnUse">
<stop style="stop-color:#3d3d3d" offset="0"/>
<stop offset=".61772"/>
<stop style="stop-color:#3d3d3d" offset="1"/>
</linearGradient>
<linearGradient id="linearGradient8" x1="17" x2="17" y1="30" y2="2" gradientUnits="userSpaceOnUse">
<stop style="stop-color:#141618" offset="0"/>
<stop style="stop-color:#686868" offset=".5319"/>
<stop style="stop-color:#31363b" offset="1"/>
</linearGradient>
<linearGradient id="linearGradient25181" x1="404.19" x2="437.22" y1="508.8" y2="495.8" gradientTransform="matrix(.96896 0 0 1 12.924 0)" gradientUnits="userSpaceOnUse">
<stop style="stop-color:#1d1d1d" offset="0"/>
<stop style="stop-color:#393939" offset="1"/>
</linearGradient>
<linearGradient id="linearGradient30087" x1="19.622" x2="28.911" y1="13" y2="20" gradientTransform="matrix(.96896 0 0 1 .9867 0)" gradientUnits="userSpaceOnUse">
<stop style="stop-color:#161616" offset="0"/>
<stop style="stop-color:#3f3f3f" offset="1"/>
</linearGradient>
<linearGradient id="linearGradient3" x1="24.723" x2="27.189" y1="8.9494" y2="12.585" gradientUnits="userSpaceOnUse">
<stop offset="0"/>
<stop style="stop-color:#939393;stop-opacity:0" offset="1"/>
</linearGradient>
<linearGradient id="linearGradient8-5" x1="12" x2="12" y1="26" y2="15.72" gradientUnits="userSpaceOnUse">
<stop style="stop-color:#252525" offset="0"/>
<stop style="stop-color:#606060;stop-opacity:.33138" offset="1"/>
</linearGradient>
<linearGradient id="linearGradient10" x1="3.5" x2="15.062" y1="28" y2="18" gradientUnits="userSpaceOnUse" xlink:href="#linearGradient9"/>
<linearGradient id="linearGradient9">
<stop style="stop-color:#252525" offset="0"/>
<stop style="stop-color:#606060;stop-opacity:0" offset="1"/>
</linearGradient>
<linearGradient id="linearGradient12" x1="29.512" x2="22.118" y1="27.45" y2="19.444" gradientUnits="userSpaceOnUse" xlink:href="#linearGradient9"/>
<linearGradient id="s" x1="24.537" x2="32.844" y1="12.751" y2="21.699" gradientTransform="matrix(.96307 0 0 .95545 -3.6307 3.2679)" gradientUnits="userSpaceOnUse">
<stop stop-color="#292c2f" style="stop-color:#000" offset="0"/>
<stop stop-color="#292c2f" stop-opacity=".031" style="stop-color:#000;stop-opacity:0" offset="1"/>
</linearGradient>
<linearGradient id="t" x1="26.574" x2="20.519" y1="16.666" y2="10.947" gradientTransform="matrix(.96307 0 0 .95545 -3.6307 3.2679)" gradientUnits="userSpaceOnUse">
<stop stop-color="#f3f3f3" offset="0"/>
<stop stop-color="#fcfcfc" stop-opacity="0" offset="1"/>
</linearGradient>
<linearGradient id="u" x1="16" x2="16" y1="18" y2="6" gradientTransform="matrix(.96307 0 0 .95545 -3.6307 3.2679)" gradientUnits="userSpaceOnUse">
<stop stop-color="#f0f0f0" offset="0"/>
<stop stop-color="#fcfcfc" offset="1"/>
</linearGradient>
</defs>
<g transform="matrix(.66667 0 0 .66667 .33333 .33333)">
<path d="m4 2.6368c-1.1631 0-1.8725 0.81491-2.3086 1.3671 0 0-0.00192 0.00384-0.00195 0.00391-0.0054236 0.011491-0.46875 0.99801-0.46875 1.9922v17.879l10.779-6.7543 0.78952 0.37677 18.21-11.501s-3e-6 -3.3632-3-3.3632z" style="fill:url(#linearGradient25181);stroke-width:1.4113"/>
<path d="m12 18 3 6 16 2v-20z" style="fill:url(#linearGradient30087)"/>
<path class="ColorScheme-Highlight" d="m12 17.125-10.779 6.7543v2.1211c0 2.8008 2.7793 3.3194 2.7793 3.3194h23.604s3.3958-0.66699 3.3958-3.3194z" style="color:#3daee9;fill:#939393"/>
<path class="ColorScheme-Highlight" d="m12 18 19-12v4z" style="fill:currentColor"/>
<path d="m12 18 19-12v4z" style="color:#3daee9;fill:url(#linearGradient3)"/>
<path d="m12 18v10.677l12-5.6766z" style="fill:url(#linearGradient8-5)"/>
<path d="m12 28.677-6.1808-7.6792-4.5985 2.8814v2.1211c0 2.7963 2.7793 2.6766 2.7793 2.6766z" style="fill:url(#linearGradient10)"/>
<path d="m24 23 2.4012 5.9816 3.5988 0.01842 1-3z" style="fill:url(#linearGradient12);stroke-width:.226"/>
<path d="m12 28.677-6.1808-7.6792 6.1808-3.8729z" style="fill:#252525;stroke-width:.226"/>
<path d="m11.56 28.883 12.44-5.883 2.4012 5.9816z" style="fill:#252525;stroke-width:.226"/>
<path d="m18.179 7.41c-1.9639-0.027885-3.8556 0.73195-5.244 2.1064-2.8367 2.8073-2.8367 7.3579 0 10.165l10.349 10.318h4.7155l2-2-0.0081-11.774-6.7818-6.7094c-1.3362-1.3228-3.1408-2.0783-5.0309-2.1064z" style="fill:url(#s);opacity:.25;stroke-width:.95926"/>
<path d="m18.073 7.41c-4.0132 0-7.2665 3.2186-7.2665 7.189s3.2533 7.189 7.2665 7.189c4.0132 0 7.2665-3.2186 7.2665-7.189s-3.2533-7.189-7.2665-7.189zm0 1.1982c3.3443 0 6.0554 2.6822 6.0554 5.9908 0 3.3086-2.7111 5.9908-6.0554 5.9908-3.3443 0-6.0554-2.6822-6.0554-5.9908 0-3.3086 2.7111-5.9908 6.0554-5.9908z" style="fill:url(#t);stroke-width:.95926"/>
<path d="m18.073 7.41c-4.0132 0-7.2665 3.2186-7.2665 7.189s3.2533 7.189 7.2665 7.189c1.9119-0.0019 3.746-0.74928 5.1047-2.08l-0.84897-0.85069c-1.1329 1.1091-2.662 1.7316-4.2558 1.7325-3.3443 0-6.0554-2.6822-6.0554-5.9908 0-3.3086 2.7111-5.9908 6.0554-5.9908z" style="fill:url(#u);stroke-width:.95926"/>
<path transform="matrix(.49531 0 0 .49531 .32409 .23228)" d="m5.4025 3.5689v56.531h52.493l2.019-2.019s-24.172 0.62135-33.141-4.2854c-10.516-5.7529-15.314-50.226-15.314-50.226z" style="fill:url(#linearGradient3403);mix-blend-mode:normal;stroke-linejoin:round;stroke-width:1.1624;stroke:url(#linearGradient20558)"/>
<path d="m5 1c-4 0-4 4-4 4v21c0 5 4 5 4 5h22s4 0 4-4v-22s0-4-4-4zm0 2h22c2 0 2 2 2 2v22c0 2-2 2-2 2h-22s-2 0-2-3v-21s0-2 2-2z" style="fill:url(#linearGradient8);stroke-width:.226"/>
</g>
</svg>
