<svg width="22" height="22" version="1.1" viewBox="0 0 22 22" xmlns="http://www.w3.org/2000/svg" xmlns:xlink="http://www.w3.org/1999/xlink">
<defs>
<linearGradient id="linearGradient3403" x1="6.9492" x2="11.215" y1="4.5549" y2="59.052" gradientUnits="userSpaceOnUse">
<stop style="stop-color:#32373c" offset="0"/>
<stop style="stop-color:#1a1a1a" offset=".36805"/>
<stop style="stop-color:#31363b" offset="1"/>
</linearGradient>
<linearGradient id="linearGradient20558" x1="25.802" x2="25.111" y1="20.374" y2="58.913" gradientUnits="userSpaceOnUse">
<stop style="stop-color:#3d3d3d" offset="0"/>
<stop offset=".61772"/>
<stop style="stop-color:#3d3d3d" offset="1"/>
</linearGradient>
<linearGradient id="linearGradient4557" x1="43.5" x2="44.142" y1="64.012" y2=".30621" gradientTransform="translate(.36068 -.13017)" gradientUnits="userSpaceOnUse">
<stop style="stop-color:#141618" offset="0"/>
<stop style="stop-color:#686868" offset=".51821"/>
<stop style="stop-color:#31363b" offset="1"/>
</linearGradient>
<linearGradient id="linearGradient4643-8" x2="0" y1="543.8" y2="502.66" gradientTransform="matrix(.44543 0 0 .42439 212.65 304.08)" gradientUnits="userSpaceOnUse">
<stop style="stop-color:#c6cdd1" offset="0"/>
<stop style="stop-color:#e0e5e7" offset="1"/>
</linearGradient>
<linearGradient id="linearGradient4183" x1="391.57" x2="406.57" y1="525.8" y2="540.8" gradientTransform="matrix(.66814 0 0 .66814 127 171.44)" gradientUnits="userSpaceOnUse">
<stop offset="0"/>
<stop style="stop-opacity:0" offset="1"/>
</linearGradient>
</defs>
<g transform="matrix(.87255 0 0 1 -333.16 -515.97)">
<rect x="383.95" y="517.4" width="21.38" height="18.708" rx="0" style="fill:url(#linearGradient4643-8);stroke-width:.66814"/>
<path d="m384.62 534.77 20.044-13.363 0.66814 0.66814v14.031l-19.376 2e-5z" style="fill-rule:evenodd;fill:url(#linearGradient4183);opacity:.2;stroke-width:.66814"/>
<rect x="383.95" y="517.4" width="21.38" height="2.6725" style="fill:#566069;stroke-width:.66814"/>
<rect x="383.95" y="520.07" width="21.38" height=".66814" style="fill:#3daee9;stroke-width:.66814"/>
<rect x="384.62" y="521.41" width="20.044" height="13.363" style="fill:#fff;stroke-width:.66814"/>
<rect x="403.13" y="518.07" width="1.5267" height="1.3363" rx=".76334" style="fill:#eff0f1;stroke-width:.71415"/>
<rect x="389.04" y="526.75" width="10.211" height="5.3451" style="fill:#fff;stroke-width:2.8498"/>
</g>
<path transform="matrix(.33093 0 0 .33093 .46785 .36515)" d="m4.7043 3.9815-0.012938 56.82h53.904l1.0222-2.8664s-23.875 0.76639-32.844-4.1404c-10.516-5.7529-15.372-49.697-15.372-49.697z" style="fill:url(#linearGradient3403);mix-blend-mode:normal;stroke-linejoin:round;stroke-width:1.1624;stroke:url(#linearGradient20558)"/>
<rect transform="matrix(.31001 0 0 .30938 1.0239 1.0339)" x="1.0324" y=".59551" width="62.567" height="62.867" rx="5.803" ry="6.2447" style="fill:none;stroke-linejoin:round;stroke-miterlimit:7.8;stroke-opacity:.99515;stroke-width:3.7137;stroke:url(#linearGradient4557)"/>
</svg>
