<svg width="22" height="22" version="1.1" viewBox="0 0 22 22" xmlns="http://www.w3.org/2000/svg" xmlns:xlink="http://www.w3.org/1999/xlink">
<defs>
<linearGradient id="linearGradient3403" x1="6.9492" x2="11.215" y1="4.5549" y2="59.052" gradientUnits="userSpaceOnUse">
<stop style="stop-color:#32373c" offset="0"/>
<stop style="stop-color:#1a1a1a" offset=".36805"/>
<stop style="stop-color:#31363b" offset="1"/>
</linearGradient>
<linearGradient id="linearGradient20558" x1="25.802" x2="25.111" y1="20.374" y2="58.913" gradientUnits="userSpaceOnUse">
<stop style="stop-color:#3d3d3d" offset="0"/>
<stop offset=".61772"/>
<stop style="stop-color:#3d3d3d" offset="1"/>
</linearGradient>
<linearGradient id="linearGradient4557" x1="43.5" x2="44.142" y1="64.012" y2=".30621" gradientTransform="translate(.36068 -.13017)" gradientUnits="userSpaceOnUse">
<stop style="stop-color:#141618" offset="0"/>
<stop style="stop-color:#686868" offset=".51821"/>
<stop style="stop-color:#31363b" offset="1"/>
</linearGradient>
<linearGradient id="linearGradient919" x1="7.4006" x2="33.063" y1="41.743" y2="7.1074" gradientTransform="matrix(.44559 0 0 .44559 .41984 .35075)" gradientUnits="userSpaceOnUse">
<stop style="stop-opacity:.99608" offset="0"/>
<stop style="stop-color:#353a3f;stop-opacity:.99608" offset="1"/>
</linearGradient>
<linearGradient id="b" x2="0" y1="44" y2="4" gradientTransform="matrix(.47349 0 0 .47349 -1.4592 -.91218)" gradientUnits="userSpaceOnUse">
<stop stop-color="#1d1e1e" offset="0"/>
<stop stop-color="#44484c" offset="1"/>
</linearGradient>
<linearGradient id="c" x1="6" x2="6" y1="5" y2="4" xlink:href="#a"/>
<linearGradient id="a" x2="0" y1="507.8" y2="506.8" gradientUnits="userSpaceOnUse">
<stop stop-color="#3da103" offset="0"/>
<stop stop-color="#7ddf07" offset="1"/>
</linearGradient>
<linearGradient id="d" x1="6" x2="6" y1="16" y2="15" xlink:href="#a"/>
<linearGradient id="e" x1="6" x2="6" y1="27" y2="26" xlink:href="#a"/>
<linearGradient id="f" x1="5" x2="18" y1="12" y2="25" gradientTransform="matrix(.67641 0 0 .67641 -.98572 -.16813)" gradientUnits="userSpaceOnUse">
<stop stop-color="#292c2f" offset="0"/>
<stop stop-opacity="0" offset="1"/>
</linearGradient>
</defs>
<rect x="1.8292" y="1.6958" width="18.752" height="19.032" ry="0" style="fill-rule:evenodd;fill:url(#linearGradient919)"/>
<g transform="matrix(.87138 0 0 .92713 3.4116 1.1144)">
<path d="m1.0435 4.5667h17.587v11.499h-17.587z" fill="#111213" style="stroke-width:.67641"/>
<path d="m1.0435 1.1847v18.939h17.587v-18.939zm0.67641 4.0585h16.234v2.7056h-16.234zm0 7.4405h16.234v2.7056h-16.234z" fill="url(#b)" style="fill:url(#b);stroke-width:.67641"/>
<path d="m1.0435 19.448h17.587v0.67641h-17.587z" opacity=".2" style="stroke-width:.67641"/>
<g transform="matrix(.67641 0 0 .67641 -.98572 -.16813)" stroke-width=".7">
<path d="m5 4h2v1h-2z" fill="url(#c)" style="fill:url(#c)"/>
<path d="m5 15h2v1h-2z" fill="url(#d)" style="fill:url(#d)"/>
<path d="m5 26h2v1h-2z" fill="url(#e)" style="fill:url(#e)"/>
</g>
<path d="m1.7199 7.9488 4.7349 4.7349h11.499v2.7056h-8.7933l4.7349 4.7349h4.7349v-11.499l-0.67641-0.67641z" fill="url(#f)" fill-rule="evenodd" opacity=".4" style="fill:url(#f);stroke-width:.67641"/>
<rect x="8.5684" y="9.3016" width="12.091" height="10.823" rx="1.5114" fill="#eff0f1" style="stroke-width:.71495"/>
<path d="m17.49 10.375-1.5525 1.4592-1.5525 0.72957-0.77625 0.72958-3.8812 0.72958v1.4592l0.77625 0.72958v0.72958l0.77625 0.72958v0.72958l0.77625 0.72958h5.4337l0.77625 0.72958 2.3287-2.1887-0.77625-0.72958-0.77625-3.6479-1.5525 1.4592-1.5525 0.72958-0.77625 0.72958-3.6127 0.67996-0.26858-0.25243v-0.55886l3.4885-0.65662 0.85388-0.80253 1.5525-0.72958 1.2746-1.198-0.1832-0.85944-1.5525 1.4592-1.5525 0.72958-0.77625 0.72958-3.6127 0.67996-0.26858-0.25243v-0.55885l3.4885-0.65662 0.85388-0.80253 1.5525-0.72958 1.2746-1.198z" fill="#232629" style="stroke-width:.75255"/>
</g>
<path transform="matrix(.33503 0 0 .33503 .46427 .36184)" d="m4.7043 3.9815-0.012938 56.82h53.904l1.0222-2.8664s-23.875 0.76639-32.844-4.1404c-10.516-5.7529-15.372-49.697-15.372-49.697z" style="fill:url(#linearGradient3403);mix-blend-mode:normal;stroke-linejoin:round;stroke-width:1.1624;stroke:url(#linearGradient20558)"/>
<rect transform="matrix(.31385 0 0 .31321 1.0272 1.0388)" x="1.0324" y=".59551" width="62.567" height="62.867" rx="5.803" ry="6.2447" style="fill:none;stroke-linejoin:round;stroke-miterlimit:7.8;stroke-opacity:.99515;stroke-width:3.7137;stroke:url(#linearGradient4557)"/>
</svg>
