<svg width="22" height="22" version="1.1" viewBox="0 0 22 22" xmlns="http://www.w3.org/2000/svg" xmlns:xlink="http://www.w3.org/1999/xlink">
<defs>
<linearGradient id="linearGradient3403" x1="6.9492" x2="11.215" y1="4.5549" y2="59.052" gradientUnits="userSpaceOnUse">
<stop style="stop-color:#32373c" offset="0"/>
<stop style="stop-color:#1a1a1a" offset=".36805"/>
<stop style="stop-color:#31363b" offset="1"/>
</linearGradient>
<linearGradient id="linearGradient20558" x1="25.802" x2="25.111" y1="20.374" y2="58.913" gradientUnits="userSpaceOnUse">
<stop style="stop-color:#3d3d3d" offset="0"/>
<stop offset=".61772"/>
<stop style="stop-color:#3d3d3d" offset="1"/>
</linearGradient>
<linearGradient id="linearGradient4557" x1="43.5" x2="44.142" y1="64.012" y2=".30621" gradientTransform="translate(.36068 -.13017)" gradientUnits="userSpaceOnUse">
<stop style="stop-color:#141618" offset="0"/>
<stop style="stop-color:#686868" offset=".51821"/>
<stop style="stop-color:#31363b" offset="1"/>
</linearGradient>
<linearGradient id="b" x2="0" y1="543.8" y2="502.66" gradientTransform="matrix(.44628 0 0 .4252 -171.83 -211.99)" gradientUnits="userSpaceOnUse">
<stop stop-color="#c6cdd1" offset="0"/>
<stop stop-color="#e0e5e7" offset="1"/>
</linearGradient>
<linearGradient id="c" x1="7" x2="22" y1="10" y2="25" gradientTransform="matrix(.66941 0 0 .66941 -.20241 .40487)" gradientUnits="userSpaceOnUse">
<stop offset="0"/>
<stop stop-opacity="0" offset="1"/>
</linearGradient>
<radialGradient id="d" cx="2" cy="5.5" r="14.5" gradientTransform="matrix(0 .92332 -1.5235 0 9.5154 6.5909)" gradientUnits="userSpaceOnUse" xlink:href="#a"/>
<linearGradient id="a">
<stop stop-color="#292c2f" offset="0"/>
<stop stop-opacity="0" offset="1"/>
</linearGradient>
<radialGradient id="e" cx="12" cy="1" r="9.5" gradientTransform="matrix(0 .21139 -1.2684 -3.347e-5 2.4049 3.8925)" gradientUnits="userSpaceOnUse" xlink:href="#a"/>
<linearGradient id="f" x1="2" x2="2" y1="27" y2="9" gradientTransform="matrix(.66941 0 0 .66941 -.20241 .40487)" gradientUnits="userSpaceOnUse">
<stop stop-color="#31363b" offset="0"/>
<stop stop-color="#4f575f" offset="1"/>
</linearGradient>
</defs>
<g transform="matrix(.92408 0 0 1 1.3231 -.59203)">
<path d="m-0.20241 4.4213c0-2.0082 0.66941-2.6776 2.7485-2.6776h16.041c1.9618 0 2.6312 0.66941 2.6312 2.6776v14.058c0 1.3388-0.66941 2.0082-1.9985 2.0082h-17.414c-1.3388 0-2.0082-0.66941-2.0082-2.0686z" fill="url(#b)" style="fill:url(#b);stroke-width:.66941"/>
<path d="m0.467 19.148 20.082-13.388 0.66941 0.66941v14.058h-19.413z" fill="url(#c)" fill-rule="evenodd" opacity=".2" style="fill:url(#c);stroke-width:.66941"/>
<path d="m2.4752 1.7437h16.066c2.0082 0 2.6776 0.66941 2.6776 2.6776h-21.421c0-2.0082 0.66941-2.6776 2.6776-2.6776z" fill="#566069" style="stroke-width:.66941"/>
<path d="m-0.20241 4.4213h21.421v0.66941h-21.421z" fill="#3daee9" style="stroke-width:.66941"/>
<path d="m0.467 5.7602h20.082v13.388h-20.082z" fill="#eff0f1" style="stroke-width:.66941"/>
<rect x="18.267" y="2.6233" width="1.3388" height="1.1876" rx=".66941" fill="#eff0f1" style="stroke-width:.63048"/>
<path d="m1.1364 18.479 0.66941 0.66941h18.743v-10.041l-0.66941-0.66941z" fill="url(#d)" opacity=".2" style="fill:url(#d);stroke-width:.66941"/>
<path d="m1.1364 8.4378h18.743v10.041h-18.743z" fill="#fcfcfc" style="stroke-width:.66941"/>
<path d="m1.1364 7.099 1.3388 1.3388h10.711v-1.3388l-0.66941-0.66941z" fill="url(#e)" opacity=".2" style="fill:url(#e);stroke-width:.66941"/>
<path d="m1.1364 6.4296h12.049v0.66941h-12.049z" fill="#fcfcfc" style="stroke-width:.66941"/>
<path d="m1.1364 6.4296h6.0247v0.66941h-6.0247zm0 11.38h2.6776v0.66941h-2.6776zm4.0165 0h8.0329v0.66941h-8.0329zm-4.0165-1.3388h2.6776v0.66941h-2.6776zm4.0165 0h9.3717v0.66941h-9.3717zm-4.0165-1.3388h2.6776v0.66941h-2.6776zm4.0165 0h8.0329v0.66941h-8.0329zm-4.0165-1.3388h2.6776v0.66941h-2.6776zm4.0165 0h9.3717v0.66941h-9.3717zm-4.0165-1.3388h2.6776v0.66941h-2.6776zm4.0165 0h6.6941v0.66941h-6.6941zm-4.0165-1.3388h2.6776v0.66941h-2.6776zm4.0165 0h10.711v0.66941h-10.711zm-4.0165-1.3388h2.6776v0.66941h-2.6776zm4.0165 0h12.049v0.66941h-12.049zm-4.0165-1.3388h2.6776v0.66941h-2.6776zm4.0165 0h8.0329v0.66941h-8.0329z" fill="url(#f)" style="fill:url(#f);stroke-width:.66941"/>
</g>
<path transform="matrix(.33156 0 0 .33156 .4673 .36464)" d="m4.7043 3.9815-0.012938 56.82h53.904l1.0222-2.8664s-23.875 0.76639-32.844-4.1404c-10.516-5.7529-15.372-49.697-15.372-49.697z" style="fill:url(#linearGradient3403);mix-blend-mode:normal;stroke-linejoin:round;stroke-width:1.1624;stroke:url(#linearGradient20558)"/>
<rect transform="matrix(.3106 0 0 .30997 1.0244 1.0346)" x="1.0324" y=".59551" width="62.567" height="62.867" rx="5.803" ry="6.2447" style="fill:none;stroke-linejoin:round;stroke-miterlimit:7.8;stroke-opacity:.99515;stroke-width:3.7137;stroke:url(#linearGradient4557)"/>
</svg>
