<?xml version="1.0" encoding="UTF-8" standalone="no"?>
<!-- Created with Inkscape (http://www.inkscape.org/) -->

<svg
  width="22"
  height="22"
  version="1.1"
  viewBox="0 0 22 22"
  id="svg22"
  sodipodi:docname="preferences-desktop-cryptography.svg"
  inkscape:version="1.3.2 (1:1.3.2+202311252150+091e20ef0f)"
  xmlns:inkscape="http://www.inkscape.org/namespaces/inkscape"
  xmlns:sodipodi="http://sodipodi.sourceforge.net/DTD/sodipodi-0.dtd"
  xmlns:xlink="http://www.w3.org/1999/xlink"
  xmlns="http://www.w3.org/2000/svg"
  xmlns:svg="http://www.w3.org/2000/svg">
 <sodipodi:namedview
   id="namedview24"
   pagecolor="#ffffff"
   bordercolor="#666666"
   borderopacity="1.0"
   inkscape:showpageshadow="2"
   inkscape:pageopacity="0.0"
   inkscape:pagecheckerboard="0"
   inkscape:deskcolor="#d1d1d1"
   showgrid="false"
   inkscape:zoom="25.62"
   inkscape:cx="7.2989852"
   inkscape:cy="17.154567"
   inkscape:window-width="3440"
   inkscape:window-height="1356"
   inkscape:window-x="0"
   inkscape:window-y="0"
   inkscape:window-maximized="1"
   inkscape:current-layer="svg22"
   inkscape:pageshadow="2" />
 <defs
   id="defs12">
  <linearGradient
    inkscape:collect="always"
    id="linearGradient917">
   <stop
     style="stop-color:#000000;stop-opacity:0.99607843"
     offset="0"
     id="stop913" />
   <stop
     style="stop-color:#353a3f;stop-opacity:0.99607843"
     offset="1"
     id="stop915" />
  </linearGradient>
  <linearGradient
    id="linearGradient1005-3-3"
    x1="5.2535"
    x2="9.3823996"
    y1="15.383"
    y2="2.9421"
    gradientTransform="matrix(0.99999,0,0,0.99999,1.632,-0.61743)"
    gradientUnits="userSpaceOnUse">
   <stop
     stop-color="#fa8200"
     offset="0"
     id="stop2" />
   <stop
     stop-color="#ff9600"
     offset=".36953"
     id="stop4" />
   <stop
     stop-color="#ffb400"
     offset="1"
     id="stop6" />
  </linearGradient>
  <filter
    id="filter4014"
    x="-0.062499933"
    y="-0.057692993"
    width="1.1249999"
    height="1.115386"
    color-interpolation-filters="sRGB">
   <feGaussianBlur
     stdDeviation="1.093751"
     id="feGaussianBlur9" />
  </filter>
  <linearGradient
    inkscape:collect="always"
    xlink:href="#linearGradient3487"
    id="linearGradient3403"
    gradientUnits="userSpaceOnUse"
    x1="6.9491749"
    y1="4.5549412"
    x2="11.215498"
    y2="59.052471" />
  <linearGradient
    id="linearGradient3487">
   <stop
     style="stop-color:#32373c;stop-opacity:1"
     offset="0"
     id="stop3481" />
   <stop
     id="stop3483"
     offset="0.36804965"
     style="stop-color:#1a1a1a;stop-opacity:1" />
   <stop
     style="stop-color:#31363b;stop-opacity:1"
     offset="1"
     id="stop3485" />
  </linearGradient>
  <linearGradient
    inkscape:collect="always"
    xlink:href="#linearGradient20604"
    id="linearGradient20558"
    gradientUnits="userSpaceOnUse"
    x1="25.802212"
    y1="20.373846"
    x2="25.111048"
    y2="58.912758" />
  <linearGradient
    id="linearGradient20604">
   <stop
     id="stop20598"
     offset="0"
     style="stop-color:#3d3d3d;stop-opacity:1" />
   <stop
     style="stop-color:#000000;stop-opacity:1"
     offset="0.61772454"
     id="stop20600" />
   <stop
     id="stop20602"
     offset="1"
     style="stop-color:#3d3d3d;stop-opacity:1" />
  </linearGradient>
  <linearGradient
    gradientTransform="translate(0.36067797,-0.13016949)"
    xlink:href="#linearGradient4555"
    id="linearGradient4557"
    x1="43.499737"
    y1="64.011795"
    x2="44.141731"
    y2="0.30621234"
    gradientUnits="userSpaceOnUse" />
  <linearGradient
    id="linearGradient4555">
   <stop
     style="stop-color:#141618;stop-opacity:1"
     offset="0"
     id="stop4551" />
   <stop
     id="stop4559"
     offset="0.51820582"
     style="stop-color:#686868;stop-opacity:1" />
   <stop
     style="stop-color:#31363b;stop-opacity:1"
     offset="1"
     id="stop4553" />
  </linearGradient>
  <filter
    style="color-interpolation-filters:sRGB"
    id="filter4601"
    x="-0.029695182"
    width="1.0593904"
    y="-0.029553686"
    height="1.0591074">
   <feGaussianBlur
     stdDeviation="0.00046295923"
     id="feGaussianBlur4603" />
  </filter>
  <linearGradient
    inkscape:collect="always"
    xlink:href="#linearGradient917"
    id="linearGradient919"
    x1="7.400631"
    y1="41.743092"
    x2="33.063145"
    y2="7.1074457"
    gradientUnits="userSpaceOnUse"
    gradientTransform="matrix(0.44290722,0,0,0.44290722,0.42186879,0.35245026)" />
  <linearGradient
    id="a"
    gradientTransform="matrix(0.54545384,0,0,0.53846154,177.71482,249.75292)"
    gradientUnits="userSpaceOnUse"
    x1="386.57101"
    x2="386.57101"
    y1="549.79797"
    y2="497.798">
   <stop
     offset="0"
     stop-color="#7f8c8d"
     id="stop2-1" />
   <stop
     offset="1"
     stop-color="#afb0b3"
     id="stop4-1" />
  </linearGradient>
  <linearGradient
    id="d"
    gradientTransform="matrix(0.55555494,0,0,0.54843315,382.79368,514.4732)"
    gradientUnits="userSpaceOnUse"
    x1="12"
    x2="12"
    y1="48"
    y2="10">
   <stop
     offset="0"
     stop-color="#eef1f2"
     id="stop17" />
   <stop
     offset="1"
     stop-color="#f9fafb"
     id="stop19" />
  </linearGradient>
  <linearGradient
    id="c"
    gradientUnits="userSpaceOnUse"
    x1="12"
    x2="26"
    y1="11"
    y2="25">
   <stop
     offset="0"
     stop-color="#292c2f"
     id="stop12" />
   <stop
     offset="1"
     stop-color="#292c2f"
     stop-opacity=".137755"
     id="stop14" />
  </linearGradient>
  <linearGradient
    id="b"
    gradientUnits="userSpaceOnUse"
    x1="400.57144"
    x2="400.57144"
    y1="522.79797"
    y2="535.79797">
   <stop
     offset="0"
     stop-color="#da4453"
     id="stop7" />
   <stop
     offset="1"
     stop-color="#c72737"
     id="stop9" />
  </linearGradient>
 </defs>
 <rect
   style="display:inline;fill:url(#linearGradient919);fill-opacity:1;fill-rule:evenodd;stroke:none;stroke-width:0.410938;stroke-linejoin:round;stroke-miterlimit:7.8"
   id="rect1192"
   width="18.639574"
   height="18.917501"
   x="1.8227446"
   y="1.6893612"
   ry="0"
   inkscape:label="arriere" />
 <g
   id="g873"
   transform="matrix(0.67233706,0,0,0.67233706,1.4940289,0.15899991)">
  <g
    transform="translate(-384.57143,-515.798)"
    id="g40">
   <path
     d="m 388.57146,517.798 h 23.99996 v 28 h -23.99996 z"
     fill="url(#a)"
     stroke-width="0.541946"
     id="path22"
     style="fill:url(#a)" />
   <path
     d="m 409.57143,542.798 h 2.99999 v 3 h -2.99999 z m -20.99997,0 h 2.99997 v 3 h -2.99997 z"
     fill="#292c2f"
     opacity="0.3"
     stroke-width="0.522233"
     id="path24" />
   <path
     d="m 391.57145,542.798 h 17.99998 v 3 h -17.99998 z"
     fill="#292c2e"
     stroke-width="0.984823"
     id="path26" />
   <path
     d="m 393.57143,543.798 h 9 v 1 h -9 z m 10,0 h 4 v 1 h -4 z"
     fill="#f6b44d"
     stroke-width="1.00639"
     id="path28" />
   <path
     d="m 395.57143,519.86245 c -2.76142,0 -5,2.20953 -5,4.93555 v 5 c 0.70597,0.62334 1.1102,1.56499 1.11133,2.5 -10e-4,0.93463 -0.40565,1.87691 -1.11133,2.5 v 3 l 3,3 h 14 l 3,-3 v -3 c -0.70568,-0.62309 -1.11033,-1.56537 -1.11133,-2.5 10e-4,-0.93501 0.40536,-1.87666 1.11133,-2.5 v -5 c 0,-2.72602 -2.23858,-4.93555 -5,-4.93555 z"
     fill="url(#d)"
     stroke-width="0.551983"
     id="path30"
     style="fill:url(#d)" />
   <path
     d="M 16,7 V 7.00195 C 15.20468,7.00155 14.441736,7.3169832 13.878906,7.8789031 13.326676,8.4308563 13.01138,9.1763413 13,9.9570312 c 5.5e-4,0.0143 9.53e-4,0.028569 0.002,0.042969 H 13 v 3 h -2 v 7 l 7,7 H 28 V 17.75787 L 18.121094,7.8789062 Z"
     fill="url(#c)"
     opacity="0.2"
     transform="translate(384.57143,515.798)"
     id="path32"
     style="fill:url(#c)" />
   <path
     d="m 388.57143,544.798 h 24 v 1 h -24 z"
     fill="#292c2f"
     opacity="0.4"
     stroke-width="0.738551"
     id="path34" />
   <path
     d="m 400.57143,522.798 c -1.662,0 -3,1.338 -3,3 v 3 h -2 v 7 h 10 v -7 h -2 v -3 c 0,-1.662 -1.338,-3 -3,-3 z m 0,1 c 1.2465,0 2,0.5458 2,2 v 3 h -4 v -3 c 0,-1.4542 0.75351,-2 2,-2 z"
     fill="url(#b)"
     id="path36"
     style="fill:url(#b)" />
   <path
     d="m 388.57143,542.798 h 3 v 3 z m 21,0 h 3 v 3 h -3 z"
     fill="#292c2f"
     opacity="0.2"
     id="path38" />
  </g>
 </g>
 <path
   style="display:inline;mix-blend-mode:normal;fill:url(#linearGradient3403);fill-opacity:1;stroke:url(#linearGradient20558);stroke-width:1.16242;stroke-linecap:butt;stroke-linejoin:round;stroke-miterlimit:4;stroke-dasharray:none;stroke-opacity:1"
   d="M 4.7043071,3.9814882 4.6913695,60.80196 H 58.59546 l 1.022155,-2.866369 c 0,0 -23.87537,0.766388 -32.844441,-4.140386 C 16.257548,48.042344 11.401114,4.0978197 11.401114,4.0978197 Z"
   id="path1686"
   sodipodi:nodetypes="ccccscc"
   transform="matrix(0.33301295,0,0,0.33301295,0.34893269,0.40250462)"
   inkscape:label="folder" />
 <rect
   style="display:inline;fill:none;fill-opacity:1;stroke:url(#linearGradient4557);stroke-width:3.71366;stroke-linejoin:round;stroke-miterlimit:7.8;stroke-dasharray:none;stroke-opacity:0.995146"
   id="rect4539"
   width="62.567089"
   height="62.866646"
   x="1.0323594"
   y="0.59551275"
   ry="6.2447233"
   rx="5.8029528"
   transform="matrix(0.31196079,0,0,0.31132494,1.0255446,1.0363904)"
   inkscape:label="contour" />
</svg>
