<?xml version="1.0" encoding="UTF-8" standalone="no"?>
<!-- Created with Inkscape (http://www.inkscape.org/) -->

<svg
   width="22"
   height="22"
   version="1.1"
   viewBox="0 0 22 22"
   id="svg22"
   sodipodi:docname="preferences-desktop-display.svg"
   inkscape:version="1.1.2 (0a00cf5339, 2022-02-04)"
   xmlns:inkscape="http://www.inkscape.org/namespaces/inkscape"
   xmlns:sodipodi="http://sodipodi.sourceforge.net/DTD/sodipodi-0.dtd"
   xmlns:xlink="http://www.w3.org/1999/xlink"
   xmlns="http://www.w3.org/2000/svg"
   xmlns:svg="http://www.w3.org/2000/svg">
  <sodipodi:namedview
     id="namedview24"
     pagecolor="#ffffff"
     bordercolor="#666666"
     borderopacity="1.0"
     inkscape:showpageshadow="2"
     inkscape:pageopacity="0.0"
     inkscape:pagecheckerboard="0"
     inkscape:deskcolor="#d1d1d1"
     showgrid="false"
     inkscape:zoom="25.62"
     inkscape:cx="-5.1522248"
     inkscape:cy="16.588603"
     inkscape:window-width="3440"
     inkscape:window-height="1356"
     inkscape:window-x="0"
     inkscape:window-y="0"
     inkscape:window-maximized="1"
     inkscape:current-layer="svg22"
     inkscape:pageshadow="2" />
  <defs
     id="defs12">
    <linearGradient
       inkscape:collect="always"
       id="linearGradient917">
      <stop
         style="stop-color:#000000;stop-opacity:0.99607843"
         offset="0"
         id="stop913" />
      <stop
         style="stop-color:#353a3f;stop-opacity:0.99607843"
         offset="1"
         id="stop915" />
    </linearGradient>
    <linearGradient
       id="linearGradient1005-3-3"
       x1="5.2535"
       x2="9.3823996"
       y1="15.383"
       y2="2.9421"
       gradientTransform="matrix(0.99999,0,0,0.99999,1.632,-0.61743)"
       gradientUnits="userSpaceOnUse">
      <stop
         stop-color="#fa8200"
         offset="0"
         id="stop2" />
      <stop
         stop-color="#ff9600"
         offset=".36953"
         id="stop4" />
      <stop
         stop-color="#ffb400"
         offset="1"
         id="stop6" />
    </linearGradient>
    <filter
       id="filter4014"
       x="-0.062499933"
       y="-0.057692993"
       width="1.1249999"
       height="1.115386"
       color-interpolation-filters="sRGB">
      <feGaussianBlur
         stdDeviation="1.093751"
         id="feGaussianBlur9" />
    </filter>
    <linearGradient
       inkscape:collect="always"
       xlink:href="#linearGradient3487"
       id="linearGradient3403"
       gradientUnits="userSpaceOnUse"
       x1="6.9491749"
       y1="4.5549412"
       x2="11.215498"
       y2="59.052471" />
    <linearGradient
       id="linearGradient3487">
      <stop
         style="stop-color:#32373c;stop-opacity:1"
         offset="0"
         id="stop3481" />
      <stop
         id="stop3483"
         offset="0.36804965"
         style="stop-color:#1a1a1a;stop-opacity:1" />
      <stop
         style="stop-color:#31363b;stop-opacity:1"
         offset="1"
         id="stop3485" />
    </linearGradient>
    <linearGradient
       inkscape:collect="always"
       xlink:href="#linearGradient20604"
       id="linearGradient20558"
       gradientUnits="userSpaceOnUse"
       x1="25.802212"
       y1="20.373846"
       x2="25.111048"
       y2="58.912758" />
    <linearGradient
       id="linearGradient20604">
      <stop
         id="stop20598"
         offset="0"
         style="stop-color:#3d3d3d;stop-opacity:1" />
      <stop
         style="stop-color:#000000;stop-opacity:1"
         offset="0.61772454"
         id="stop20600" />
      <stop
         id="stop20602"
         offset="1"
         style="stop-color:#3d3d3d;stop-opacity:1" />
    </linearGradient>
    <filter
       inkscape:collect="always"
       style="color-interpolation-filters:sRGB"
       id="filter20720"
       x="-0.017024755"
       y="-0.016457183"
       width="1.0340491"
       height="1.0329144">
      <feGaussianBlur
         inkscape:collect="always"
         stdDeviation="0.14745661"
         id="feGaussianBlur20722" />
    </filter>
    <linearGradient
       gradientTransform="translate(0.36067797,-0.13016949)"
       xlink:href="#linearGradient4555"
       id="linearGradient4557"
       x1="43.499737"
       y1="64.011795"
       x2="44.141731"
       y2="0.30621234"
       gradientUnits="userSpaceOnUse" />
    <linearGradient
       id="linearGradient4555">
      <stop
         style="stop-color:#141618;stop-opacity:1"
         offset="0"
         id="stop4551" />
      <stop
         id="stop4559"
         offset="0.51820582"
         style="stop-color:#686868;stop-opacity:1" />
      <stop
         style="stop-color:#31363b;stop-opacity:1"
         offset="1"
         id="stop4553" />
    </linearGradient>
    <filter
       style="color-interpolation-filters:sRGB"
       id="filter4601"
       x="-0.030244762"
       width="1.0604895"
       y="-0.030100647"
       height="1.0602013">
      <feGaussianBlur
         stdDeviation="0.014790289"
         id="feGaussianBlur4603" />
    </filter>
    <linearGradient
       inkscape:collect="always"
       xlink:href="#linearGradient917"
       id="linearGradient919"
       x1="7.400631"
       y1="41.743092"
       x2="33.063145"
       y2="7.1074457"
       gradientUnits="userSpaceOnUse"
       gradientTransform="matrix(0.44358591,0,0,0.44358591,0.42135485,0.35202088)" />
    <clipPath
       id="clipPath4534-6">
      <rect
         width="31.999989"
         x="8.0000095"
         y="8"
         rx="15.999986"
         height="31.999971"
         id="rect4536-6" />
    </clipPath>
    <clipPath
       id="clipPath4584-3">
      <rect
         width="31.999989"
         x="392.57144"
         y="507.798"
         rx="15.999986"
         height="31.999971"
         id="rect4586-5" />
    </clipPath>
    <clipPath
       id="clipPath4550-1">
      <rect
         width="31.999989"
         x="392.57144"
         y="507.798"
         rx="15.999986"
         height="31.999971"
         id="rect4552-7" />
    </clipPath>
    <clipPath
       id="clipPath4568-1">
      <rect
         width="31.999989"
         x="392.57144"
         y="507.798"
         rx="15.999986"
         height="31.999971"
         id="rect4570-6" />
    </clipPath>
    <clipPath
       id="clipPath4528-10">
      <rect
         width="31.999989"
         x="8.0000095"
         y="8"
         rx="15.999986"
         height="31.999971"
         id="rect4530-8" />
    </clipPath>
    <clipPath
       id="clipPath4578-4">
      <rect
         width="31.999989"
         x="392.57144"
         y="507.798"
         rx="15.999986"
         height="31.999971"
         id="rect4580-9" />
    </clipPath>
    <clipPath
       id="clipPath4562-1">
      <rect
         width="31.999989"
         x="392.57144"
         y="507.798"
         rx="15.999986"
         height="31.999971"
         id="rect4564-87" />
    </clipPath>
    <clipPath
       id="clipPath4544-4">
      <rect
         width="31.999989"
         x="392.57144"
         y="507.798"
         rx="15.999986"
         height="31.999971"
         id="rect4546-8" />
    </clipPath>
    <clipPath
       id="clipPath1129">
      <rect
         width="31.999989"
         x="8.0000095"
         y="8"
         rx="15.999986"
         height="31.999971"
         id="rect1127" />
    </clipPath>
    <clipPath
       id="clipPath1146">
      <rect
         width="31.999989"
         x="392.57144"
         y="507.798"
         rx="15.999986"
         height="31.999971"
         id="rect1144" />
    </clipPath>
    <clipPath
       id="clipPath1163">
      <rect
         width="31.999989"
         x="392.57144"
         y="507.798"
         rx="15.999986"
         height="31.999971"
         id="rect1161" />
    </clipPath>
    <clipPath
       id="clipPath1180">
      <rect
         width="31.999989"
         x="392.57144"
         y="507.798"
         rx="15.999986"
         height="31.999971"
         id="rect1178" />
    </clipPath>
    <clipPath
       id="clipPath4528-1-3">
      <rect
         width="31.999989"
         x="8.0000095"
         y="8"
         rx="15.999986"
         height="31.999971"
         id="rect4530-7-9" />
    </clipPath>
    <clipPath
       id="clipPath4578-8-5">
      <rect
         width="31.999989"
         x="392.57144"
         y="507.798"
         rx="15.999986"
         height="31.999971"
         id="rect4580-7-9" />
    </clipPath>
    <clipPath
       id="clipPath4562-8-9">
      <rect
         width="31.999989"
         x="392.57144"
         y="507.798"
         rx="15.999986"
         height="31.999971"
         id="rect4564-8-6" />
    </clipPath>
    <clipPath
       id="clipPath4544-1-9">
      <rect
         width="31.999989"
         x="392.57144"
         y="507.798"
         rx="15.999986"
         height="31.999971"
         id="rect4546-1-1" />
    </clipPath>
    <linearGradient
       xlink:href="#a"
       id="e"
       y1="535.79797"
       y2="520.79797"
       x2="0"
       gradientUnits="userSpaceOnUse"
       gradientTransform="matrix(1.25,0,0,1.2,-484.714,-621.958)" />
    <linearGradient
       id="a">
      <stop
         stop-color="#60a5e7"
         stop-opacity="0"
         id="stop7" />
      <stop
         offset="1"
         stop-color="#a6f3fb"
         stop-opacity=".258"
         id="stop9" />
    </linearGradient>
    <linearGradient
       xlink:href="#b"
       id="f"
       x1="0"
       y1="25"
       x2="0"
       y2="2"
       gradientUnits="userSpaceOnUse" />
    <linearGradient
       id="b">
      <stop
         stop-color="#2a2c2f"
         id="stop2-7" />
      <stop
         offset="1"
         stop-color="#424649"
         id="stop4-7" />
    </linearGradient>
    <linearGradient
       xlink:href="#c"
       id="g"
       gradientUnits="userSpaceOnUse"
       x1="393.57101"
       y1="519.79797"
       x2="410.57101"
       y2="536.79797"
       gradientTransform="translate(-384.571,-515.798)" />
    <linearGradient
       id="c">
      <stop
         id="stop18" />
      <stop
         offset="1"
         stop-opacity="0"
         id="stop20" />
    </linearGradient>
    <linearGradient
       xlink:href="#d"
       id="h"
       y1="542.79797"
       y2="538.79797"
       x2="0"
       gradientUnits="userSpaceOnUse"
       gradientTransform="translate(-384.571,-513.798)" />
    <linearGradient
       id="d">
      <stop
         stop-color="#c6cdd1"
         id="stop12" />
      <stop
         offset="1"
         stop-color="#e0e5e7"
         id="stop14" />
    </linearGradient>
  </defs>
  <rect
     style="display:inline;fill:url(#linearGradient919);fill-opacity:1;fill-rule:evenodd;stroke:none;stroke-width:0.411568;stroke-linejoin:round;stroke-miterlimit:7.8"
     id="rect1192"
     width="18.668137"
     height="18.946489"
     x="1.8243773"
     y="1.6909804"
     ry="0"
     inkscape:label="arriere" />
  <g
     id="g849"
     transform="matrix(0.62890813,0,0,0.64267763,1.0791402,0.02427465)">
    <path
       inkscape:connector-curvature="0"
       style="fill:#ffffff"
       id="path832"
       d="M 4,3 C 3.585,3 3.19,3.11 2.83,3.313 2.471,3.514 2.149,3.808 1.877,4.17 1.335,4.893 1,5.892 1,7 V 21 H 31 V 7 C 31,5.892 30.666,4.893 30.123,4.17 A 3.117,3.117 0 0 0 29.17,3.313 2.371,2.371 0 0 0 28,3 Z" />
    <path
       d="M 4,3 C 3.585,3 3.19,3.11 2.83,3.313 2.471,3.514 2.149,3.808 1.877,4.17 1.335,4.893 1,5.892 1,7 V 21 H 31 V 7 C 31,5.892 30.666,4.893 30.123,4.17 A 3.117,3.117 0 0 0 29.17,3.313 2.371,2.371 0 0 0 28,3 Z"
       id="path28"
       style="fill:url(#e)"
       inkscape:connector-curvature="0" />
    <path
       d="M 4,2 C 1.784,2 0,3.784 0,6 v 15 c 0,2.216 1.784,4 4,4 h 24 c 2.216,0 4,-1.784 4,-4 V 6 C 32,3.784 30.216,2 28,2 Z m 0,1 h 24 c 1.662,0 3,1.784 3,4 V 21 H 1 V 7 C 1,4.784 2.338,3 4,3 Z"
       id="path30"
       style="fill:url(#f);paint-order:stroke fill markers"
       inkscape:connector-curvature="0" />
    <path
       d="m 30,4 1,3 V 21 H 1 l 4,4 h 23 c 0.554,0 1.082,-0.11 1.561,-0.312 a 3.989,3.989 0 0 0 1.27,-0.858 c 0.361,-0.361 0.655,-0.79 0.857,-1.27 A 4.008,4.008 0 0 0 32,21 V 6 Z"
       id="path32"
       style="opacity:0.2;fill:url(#g);fill-rule:evenodd"
       inkscape:connector-curvature="0" />
    <path
       d="m 13,25 h 6 v 4 h -6 z"
       id="path34"
       style="fill:url(#h)"
       inkscape:connector-curvature="0" />
    <path
       d="m 10,29 h 12 v 1 H 10 Z"
       id="path36"
       inkscape:connector-curvature="0"
       style="fill:#99a1a7" />
  </g>
  <path
     style="display:inline;mix-blend-mode:normal;fill:url(#linearGradient3403);fill-opacity:1;stroke:url(#linearGradient20558);stroke-width:1.16242;stroke-linecap:butt;stroke-linejoin:round;stroke-miterlimit:4;stroke-dasharray:none;stroke-opacity:1;filter:url(#filter20720)"
     d="M 4.7043071,3.9814882 4.6913695,60.80196 H 58.59546 l 1.022155,-2.866369 c 0,0 -23.87537,0.766388 -32.844441,-4.140386 C 16.257548,48.042344 11.401114,4.0978197 11.401114,4.0978197 Z"
     id="path1686"
     sodipodi:nodetypes="ccccscc"
     transform="matrix(0.33352324,0,0,0.33352324,0.46558243,0.36306012)"
     inkscape:label="folder" />
  <rect
     style="display:inline;fill:none;fill-opacity:1;stroke:url(#linearGradient4557);stroke-width:3.71366;stroke-linejoin:round;stroke-miterlimit:7.8;stroke-dasharray:none;stroke-opacity:0.995146;filter:url(#filter4601)"
     id="rect4539"
     width="62.567089"
     height="62.866646"
     x="1.0323594"
     y="0.59551275"
     ry="6.2447233"
     rx="5.8029528"
     transform="matrix(0.31243882,0,0,0.311802,1.0259556,1.0370091)"
     inkscape:label="contour" />
</svg>
