<svg width="22" height="22" version="1.1" viewBox="0 0 22 22" xmlns="http://www.w3.org/2000/svg" xmlns:xlink="http://www.w3.org/1999/xlink">
<defs>
<linearGradient id="linearGradient3403" x1="6.9492" x2="11.215" y1="4.5549" y2="59.052" gradientUnits="userSpaceOnUse">
<stop style="stop-color:#32373c" offset="0"/>
<stop style="stop-color:#1a1a1a" offset=".36805"/>
<stop style="stop-color:#31363b" offset="1"/>
</linearGradient>
<linearGradient id="linearGradient20558" x1="25.802" x2="25.111" y1="20.374" y2="58.913" gradientUnits="userSpaceOnUse">
<stop style="stop-color:#3d3d3d" offset="0"/>
<stop offset=".61772"/>
<stop style="stop-color:#3d3d3d" offset="1"/>
</linearGradient>
<linearGradient id="linearGradient4557" x1="43.5" x2="44.142" y1="64.012" y2=".30621" gradientTransform="translate(.36068 -.13017)" gradientUnits="userSpaceOnUse">
<stop style="stop-color:#141618" offset="0"/>
<stop style="stop-color:#686868" offset=".51821"/>
<stop style="stop-color:#31363b" offset="1"/>
</linearGradient>
<linearGradient id="linearGradient919" x1="7.4006" x2="33.063" y1="41.743" y2="7.1074" gradientTransform="matrix(.44117 0 0 .44117 .42318 .35355)" gradientUnits="userSpaceOnUse">
<stop style="stop-color:#1980f2" offset="0"/>
<stop style="stop-color:#1fb6f9" offset="1"/>
</linearGradient>
<linearGradient id="c" x1="9" x2="23" y1="9" y2="23" gradientTransform="translate(.5459 -14.632)" gradientUnits="userSpaceOnUse">
<stop stop-color="#292c2f" offset="0"/>
<stop stop-opacity="0" offset="1"/>
</linearGradient>
<linearGradient id="d" x2="0" y1="23" y2="9" gradientTransform="translate(.5459 -14.632)" gradientUnits="userSpaceOnUse" xlink:href="#a"/>
<linearGradient id="a">
<stop stop-color="#7cbaf8" offset="0"/>
<stop stop-color="#f4fcff" offset="1"/>
</linearGradient>
<linearGradient id="e" x1="-21" x2="-21" y1="23" y2="9" gradientTransform="matrix(.5 0 0 1 395.07 515.8)" gradientUnits="userSpaceOnUse" xlink:href="#a"/>
</defs>
<rect x="1.8186" y="1.6852" width="18.567" height="18.843" ry="0" style="fill-rule:evenodd;fill:url(#linearGradient919)"/>
<g transform="matrix(.77723 0 0 .78402 -1.7557 9.5071)">
<path d="m16.546-5.6356-2 1.004-1 2 0.285 2.715 2.715 1.285-3 1-3 3-1 3 7 7c6.09 0 11.23-3.856 13.166-9.264l-10.951-10.95z" fill="url(#c)" opacity=".2" style="fill:url(#c)"/>
<path d="m16.546-5.6316c-1.939 0-3.5 1.561-3.5 3.5 0 1.939 1.561 3.5 3.5 3.5s3.5-1.561 3.5-3.5c0-1.939-1.561-3.5-3.5-3.5zm0 7c-3.878 0-7 3.122-7 7h8v-1h-6.91a5.98 5.98 0 0 1 5.91-5c0.359 0 0.707 0.038 1.045 0.104l0.26-0.973a6.654 6.654 0 0 0-1.305-0.131zm0-6c1.385 0 2.5 1.115 2.5 2.5 0 1.385-1.115 2.5-2.5 2.5s-2.5-1.115-2.5-2.5c0-1.385 1.115-2.5 2.5-2.5z" fill="url(#d)" style="fill:url(#d)"/>
<g transform="translate(-384.03 -530.43)" fill="url(#e)" stroke-width=".707" style="fill:url(#e)">
<path d="m406.57 532.8v6h1v-6z" style="fill:url(#e)"/>
<path d="m402.57 537.8h6v-1h-6zm0-3h6v-1h-6z" style="fill:url(#e)"/>
<path d="m403.57 532.8v6h1v-6z" style="fill:url(#e)"/>
</g>
</g>
<path transform="matrix(.33171 0 0 .33171 .46717 .36453)" d="m4.7043 3.9815-0.012938 56.82h53.904l1.0222-2.8664s-23.875 0.76639-32.844-4.1404c-10.516-5.7529-15.372-49.697-15.372-49.697z" style="fill:url(#linearGradient3403);mix-blend-mode:normal;stroke-linejoin:round;stroke-width:1.1624;stroke:url(#linearGradient20558)"/>
<rect transform="matrix(.31074 0 0 .3101 1.0245 1.0348)" x="1.0324" y=".59551" width="62.567" height="62.867" rx="5.803" ry="6.2447" style="fill:none;stroke-linejoin:round;stroke-miterlimit:7.8;stroke-opacity:.99515;stroke-width:3.7137;stroke:url(#linearGradient4557)"/>
</svg>
