<svg width="22" height="22" version="1.1" viewBox="0 0 22 22" xmlns="http://www.w3.org/2000/svg" xmlns:xlink="http://www.w3.org/1999/xlink">
<defs>
<linearGradient id="linearGradient3403" x1="6.9492" x2="11.215" y1="4.5549" y2="59.052" gradientUnits="userSpaceOnUse">
<stop style="stop-color:#32373c" offset="0"/>
<stop style="stop-color:#1a1a1a" offset=".36805"/>
<stop style="stop-color:#31363b" offset="1"/>
</linearGradient>
<linearGradient id="linearGradient20558" x1="25.802" x2="25.111" y1="20.374" y2="58.913" gradientUnits="userSpaceOnUse">
<stop style="stop-color:#3d3d3d" offset="0"/>
<stop offset=".61772"/>
<stop style="stop-color:#3d3d3d" offset="1"/>
</linearGradient>
<linearGradient id="linearGradient4557" x1="43.5" x2="44.142" y1="64.012" y2=".30621" gradientTransform="translate(.36068 -.13017)" gradientUnits="userSpaceOnUse">
<stop style="stop-color:#141618" offset="0"/>
<stop style="stop-color:#686868" offset=".51821"/>
<stop style="stop-color:#31363b" offset="1"/>
</linearGradient>
<linearGradient id="c-3" x1="388.42" x2="388.42" y1="557.8" y2="505.8" gradientTransform="matrix(.39215 0 0 .35975 -152.04 -180.06)" gradientUnits="userSpaceOnUse">
<stop stop-color="#7f8c8d" offset="0"/>
<stop stop-color="#afb0b3" offset="1"/>
</linearGradient>
<linearGradient id="d-7" x1="-421.45" x2="-410.45" y1="-504.2" y2="-493.2" gradientTransform="matrix(.6681 0 0 .6681 .27621 .55946)" gradientUnits="userSpaceOnUse" xlink:href="#b-5"/>
<linearGradient id="b-5">
<stop stop-color="#292c2f" offset="0"/>
<stop stop-opacity="0" offset="1"/>
</linearGradient>
<linearGradient id="e-5" x1="1.333" x2="1.333" y1="48.714" y2="9.714" gradientTransform="matrix(.34857 0 0 .35975 -.18878 -.26231)" gradientUnits="userSpaceOnUse">
<stop stop-color="#eef1f2" offset="0"/>
<stop stop-color="#f9fafb" offset="1"/>
</linearGradient>
<linearGradient id="f-6" x1="10" x2="24" y1="9" y2="23" gradientTransform="matrix(.59527 0 0 .6681 1.756 .6765)" gradientUnits="userSpaceOnUse" xlink:href="#b-5"/>
<linearGradient id="g" x1="-11.306" x2="-11.306" y1="23.62" y2="7.62" gradientTransform="matrix(.59527 0 0 .6681 1.756 .6765)" gradientUnits="userSpaceOnUse">
<stop stop-color="#3e3e3e" offset="0"/>
<stop stop-color="#5c5c5c" offset="1"/>
</linearGradient>
</defs>
<g transform="matrix(1.1109 0 0 1 -.16727 -1.053)">
<path d="m6.2891 1.8957c-1.8506 0-3.3405 1.4899-3.3405 3.3405v15.366h16.034v-15.366c0-1.8506-1.4899-3.3405-3.3405-3.3405z" style="fill:url(#c-3);stroke-width:.6681"/>
<path d="m4.9529 18.598h12.026v2.0043h-12.026z" style="fill:#292c2e;stroke-width:.6681"/>
<path d="m6.2891 19.266h6.0129v0.6681h-6.0129zm6.681 0h2.6724v0.6681h-2.6724z" style="fill:#f6b44d;stroke-width:.6681"/>
<path d="m16.311 18.598h2.6724v2.0043h-2.6724zm-13.362 0h2.6724v2.0043h-2.6724z" style="fill:#292c2f;opacity:.2;stroke-width:.6681"/>
<path d="m2.9486 18.598h2.6724v2.0043h-0.6681zm13.362 0h2.6724v2.0043h-2.6724z" style="fill:#292c2f;opacity:.2;stroke-width:.6681"/>
<path d="m16.668 4.2106 2.315 2.3136v14.078h-9.3534l-5.3448-5.3448z" style="fill:url(#d-7);opacity:.2;stroke-width:.6681"/>
<path d="m7.6253 3.2319a3.3405 3.3405 0 0 0-3.3405 3.3405v3.1855a2.0043 2.0043 0 0 1 0.66543 1.4144 1.3362 1.3362 0 0 1 0.00267 0.07683 1.3362 1.3362 0 0 1-0.00668 0.13362 2.0043 2.0043 0 0 1 0 0.0033 2.0043 2.0043 0 0 1-0.66142 1.3529v2.5187l2.0043 2.0043h9.3534l2.0043-2.0043v-2.5174a2.0043 2.0043 0 0 1-0.66543-1.4144 1.3362 1.3362 0 0 1-0.0027-0.07683 1.3362 1.3362 0 0 1 0.0067-0.13696 2.0043 2.0043 0 0 1 0.66142-1.3529v-3.1868a3.3405 3.3405 0 0 0-3.3405-3.3405z" style="fill:url(#e-5);stroke-width:.6681"/>
<path d="m12.278 18.715h6.1455v-8.2337l-3.7722-4.2344-3.371-1.562-3.5716 2.0043-0.92862 3.3405 1.1304 3.7828z" style="fill:url(#f-6);opacity:.2;stroke-width:.63063"/>
<path d="m11.28 4.6851c-2.6382 0-4.7621 2.3838-4.7621 5.3448 0 2.961 2.1239 5.3448 4.7621 5.3448 2.6382 0 4.7621-2.3838 4.7621-5.3448 0-2.961-2.1239-5.3448-4.7621-5.3448m0 0.6681c2.3084 0 4.1669 2.0858 4.1669 4.6767 0 2.5909-1.8584 4.6767-4.1669 4.6767-2.3084 0-4.1669-2.0858-4.1669-4.6767 0-2.5909 1.8584-4.6767 4.1669-4.6767m-0.59527 0.6681v4.6767h3.5716v-0.6681h-2.9763v-4.0086z" style="fill:url(#g);stroke-width:.63063"/>
</g>
<path transform="matrix(.33091 0 0 .33091 .46786 .36517)" d="m4.7043 3.9815-0.012938 56.82h53.904l1.0222-2.8664s-23.875 0.76639-32.844-4.1404c-10.516-5.7529-15.372-49.697-15.372-49.697z" style="fill:url(#linearGradient3403);mix-blend-mode:normal;stroke-linejoin:round;stroke-width:1.1624;stroke:url(#linearGradient20558)"/>
<rect transform="matrix(.31 0 0 .30936 1.0239 1.0338)" x="1.0324" y=".59551" width="62.567" height="62.867" rx="5.803" ry="6.2447" style="fill:none;stroke-linejoin:round;stroke-miterlimit:7.8;stroke-opacity:.99515;stroke-width:3.7137;stroke:url(#linearGradient4557)"/>
</svg>
