<svg width="22" height="22" version="1.1" viewBox="0 0 22 22" xmlns="http://www.w3.org/2000/svg" xmlns:xlink="http://www.w3.org/1999/xlink">
<defs>
<linearGradient id="linearGradient3403" x1="6.9492" x2="11.215" y1="4.5549" y2="59.052" gradientUnits="userSpaceOnUse">
<stop style="stop-color:#32373c" offset="0"/>
<stop style="stop-color:#1a1a1a" offset=".36805"/>
<stop style="stop-color:#31363b" offset="1"/>
</linearGradient>
<linearGradient id="linearGradient20558" x1="25.802" x2="25.111" y1="20.374" y2="58.913" gradientUnits="userSpaceOnUse">
<stop style="stop-color:#3d3d3d" offset="0"/>
<stop offset=".61772"/>
<stop style="stop-color:#3d3d3d" offset="1"/>
</linearGradient>
<linearGradient id="linearGradient4557" x1="43.5" x2="44.142" y1="64.012" y2=".30621" gradientTransform="translate(.36068 -.13017)" gradientUnits="userSpaceOnUse">
<stop style="stop-color:#141618" offset="0"/>
<stop style="stop-color:#686868" offset=".51821"/>
<stop style="stop-color:#31363b" offset="1"/>
</linearGradient>
<linearGradient id="linearGradient919" x1="7.4006" x2="33.063" y1="41.743" y2="7.1074" gradientTransform="matrix(.44285 0 0 .44285 .42191 .35249)" gradientUnits="userSpaceOnUse">
<stop style="stop-opacity:.99608" offset="0"/>
<stop style="stop-color:#353a3f;stop-opacity:.99608" offset="1"/>
</linearGradient>
<linearGradient id="h" x1="10" x2="10" y1="8" y2="2" gradientUnits="userSpaceOnUse" xlink:href="#a"/>
<linearGradient id="a" x2="0" y1="30" y2="8" gradientUnits="userSpaceOnUse">
<stop stop-color="#cea476" offset="0"/>
<stop stop-color="#dab58b" offset="1"/>
</linearGradient>
<linearGradient id="i" x2="0" y1="30" y2="8" gradientUnits="userSpaceOnUse" xlink:href="#a"/>
<linearGradient id="j" x1="32" x2="32" y1="30" y2="8" gradientUnits="userSpaceOnUse">
<stop stop-color="#173f4f" offset="0"/>
<stop stop-color="#2f5361" offset="1"/>
</linearGradient>
<linearGradient id="k" x2="0" y1="30" y2="8" gradientUnits="userSpaceOnUse">
<stop stop-color="#cfd2d5" offset="0"/>
<stop stop-color="#eff0f1" offset="1"/>
</linearGradient>
<linearGradient id="l" x1="18" x2="30" y1="18" y2="30" gradientUnits="userSpaceOnUse">
<stop stop-color="#292c2f" offset="0"/>
<stop stop-opacity="0" offset="1"/>
</linearGradient>
<linearGradient id="m" x1="22" x2="22" y1="30" y2="8" gradientUnits="userSpaceOnUse">
<stop stop-color="#cfd2d5" offset="0"/>
<stop stop-color="#eff0f1" offset="1"/>
</linearGradient>
<linearGradient id="n" x1="18" x2="18" y1="8" y2="2" gradientUnits="userSpaceOnUse" xlink:href="#e">
<stop stop-color="#ebc69a" offset="0"/>
<stop stop-color="#f4e0c8" stop-opacity="0" offset="1"/>
</linearGradient>
<linearGradient id="e" x1="408.57" x2="408.57" y1="512.8" y2="504.7" gradientTransform="matrix(.66667 0 0 -.37037 -256.38 197.93)" gradientUnits="userSpaceOnUse">
<stop stop-color="#ebc69a" offset="0"/>
<stop stop-color="#173f4f" stop-opacity="0" offset="1"/>
</linearGradient>
<linearGradient id="o" x1="408.57" x2="408.57" y1="512.8" y2="504.7" gradientTransform="matrix(.66667 0 0 -.37037 -256.38 197.93)" gradientUnits="userSpaceOnUse" xlink:href="#e"/>
</defs>
<rect x="1.8226" y="1.6892" width="18.637" height="18.915" ry="0" style="fill-rule:evenodd;fill:url(#linearGradient919)"/>
<g transform="matrix(.67225 0 0 .67225 .22879 .38346)">
<path d="m6 2-4 6h28l-4-6h-19z" style="fill-rule:evenodd;fill:url(#h)"/>
<path d="m2 8v19.148a2.846 2.846 0 0 0 2.852 2.852h22.296a2.846 2.846 0 0 0 2.852-2.852v-19.148h-25.148z" style="fill:url(#i)"/>
<path d="m14 8v22h13.148c0.79 0 1.503-0.319 2.018-0.834a2.842 2.842 0 0 0 0.191-0.21 2.842 2.842 0 0 0 0.168-0.23 2.842 2.842 0 0 0 0.145-0.244 2.842 2.842 0 0 0 0.121-0.257 2.842 2.842 0 0 0 0.094-0.268 2.842 2.842 0 0 0 0.066-0.275 2.842 2.842 0 0 0 0.04-0.282 2.842 2.842 0 0 0 9e-3 -0.252v-19.148z" style="fill:url(#j)"/>
<path d="m2 8v19.148c0 0.79 0.319 1.503 0.834 2.018a2.842 2.842 0 0 0 2.018 0.834h9.148v-22z" style="fill:url(#k)"/>
<path d="m2.766 29c0.04 0.045 0.026 0.124 0.068 0.166a2.842 2.842 0 0 0 2.018 0.834h22.296c0.79 0 1.503-0.319 2.018-0.834 0.042-0.042 0.03-0.121 0.068-0.166z" style="fill:#232629;opacity:.2"/>
<path d="m21.516 30h5.632c0.79 0 1.503-0.319 2.018-0.834a2.842 2.842 0 0 0 0.191-0.21 2.842 2.842 0 0 0 0.168-0.23 2.842 2.842 0 0 0 0.145-0.244 2.842 2.842 0 0 0 0.121-0.257 2.842 2.842 0 0 0 0.094-0.268 2.842 2.842 0 0 0 0.066-0.275 2.842 2.842 0 0 0 0.04-0.282 2.842 2.842 0 0 0 9e-3 -0.252v-5.632l-3.05-3.051-1.95-0.465-2-2-4 3-3 4 2 2 0.465 1.95 3.05 3.05z" style="fill:url(#l);opacity:.2"/>
<path d="m21 16v1.102a5 5 0 0 0-1.754 0.73l-0.781-0.781-1.414 1.414 0.781 0.781a5 5 0 0 0-0.727 1.754h-1.105v2h1.102a5 5 0 0 0 0.73 1.754l-0.781 0.781 1.414 1.414 0.781-0.781a5 5 0 0 0 1.754 0.727v1.105h2v-1.102a5 5 0 0 0 1.754-0.73l0.781 0.781 1.414-1.414-0.781-0.781a5 5 0 0 0 0.727-1.754h1.105v-2h-1.102a5 5 0 0 0-0.73-1.754l0.781-0.781-1.414-1.414-0.781 0.781a5 5 0 0 0-1.754-0.727v-1.105zm1 2a4 4 0 0 1 2.87 1.213 4 4 0 0 1 1.13 2.787 4 4 0 0 1-1.213 2.87 4 4 0 0 1-2.787 1.13 4 4 0 0 1-2.87-1.213 4 4 0 0 1-1.13-2.787 4 4 0 0 1 1.213-2.87 4 4 0 0 1 2.787-1.13zm-1 2v4l3-2z" style="fill:url(#m)"/>
<g style="stroke-opacity:.55;stroke-width:1.867">
<path d="m14 2v9l1-1 1 1 1-1s1 1 1 0.972v-8.972z" style="fill:#f4e0c8"/>
<path d="m14 2h4v6h-4z" style="fill:url(#n)"/>
<path d="m14 8v3l1-1 1 1 1-1s1 1 1 0.973v-2.973z" style="fill:url(#o)"/>
</g>
</g>
<path transform="matrix(.33297 0 0 .33297 .46607 .36351)" d="m4.7043 3.9815-0.012938 56.82h53.904l1.0222-2.8664s-23.875 0.76639-32.844-4.1404c-10.516-5.7529-15.372-49.697-15.372-49.697z" style="fill:url(#linearGradient3403);mix-blend-mode:normal;stroke-linejoin:round;stroke-width:1.1624;stroke:url(#linearGradient20558)"/>
<rect transform="matrix(.31192 0 0 .31129 1.0255 1.0363)" x="1.0324" y=".59551" width="62.567" height="62.867" rx="5.803" ry="6.2447" style="fill:none;stroke-linejoin:round;stroke-miterlimit:7.8;stroke-opacity:.99515;stroke-width:3.7137;stroke:url(#linearGradient4557)"/>
</svg>
