<?xml version="1.0" encoding="UTF-8" standalone="no"?>
<svg
  width="64"
  height="64"
  version="1.1"
  id="svg10"
  xmlns="http://www.w3.org/2000/svg"
  xmlns:svg="http://www.w3.org/2000/svg">
 <defs
   id="defs14">
  <style
    id="current-color-scheme"
    type="text/css">.ColorScheme-Background { color:#31363b; }.ColorScheme-Text { color:#fcfcfc; }.ColorScheme-Highlight {color:#3daee9;}</style>
 </defs>
 <g
   id="g2"
   transform="matrix(2.0710929,0,0,-2.0714286,-1.1359699,65.142858)">
  <path
    fill="currentColor"
    d="M 16,2 C 7.2072549,2 2,9.6239637 1.997,16 1.994,22.376036 7,30 16,30 24.794688,30 30.001536,22.320699 30.001536,16 30.001536,9.6793012 25,2 16,2 Z"
    id="path9"
    class="ColorScheme-Background"
    style="display:inline" />
  <path
    id="path12"
    d="m 19,2.328125 c 0,0 -1.03418,1e-6 -1.03418,1.03418 C 17.96582,4.396484 19,4.3867188 19,4.3867188 24.896568,5.9091964 28.717329,11.607587 27.886719,17.640625 27.210276,22.449166 23.702202,26.375896 19,27.587891 c 0,0 -1.03418,0.02149 -1.03418,1.03418 0,1.012695 1.03418,1.02832 1.03418,1.02832 C 24.721354,28.397036 29.057788,23.714622 29.869141,17.914062 30.866115,10.678975 26.133824,3.8930497 19,2.328125 Z M 13,2.34375 C 7.68992,3.5067726 3.5330887,7.6384754 2.3378906,12.941406 0.69786212,20.266242 5.1264165,27.581111 12.376953,29.523438 L 13,29.634766 c 0,0 1,0 1.012696,-1.012696 C 14.025391,27.609375 13,27.609375 13,27.609375 l -0.105469,-0.01953 C 6.6808842,25.925096 2.8856671,19.656309 4.2910156,13.378906 5.279686,8.9884077 8.6421532,5.5203687 13,4.3964844 c 0,0 1.026367,-4e-7 1.026367,-1.0263674 C 14.026367,2.34375 13,2.34375 13,2.34375 Z"
    style="display:inline;fill:#c23847;fill-opacity:1" />
  <path
    d="M 10.19891,23.04454 8.9535871,21.799417 14.753945,16 8.9535871,10.200584 10.19891,8.9554611 15.999268,14.75488 21.799625,8.9554611 23.044948,10.200584 17.244591,16 l 5.800357,5.799417 -1.245323,1.245123 -5.800357,-5.799416 z"
    class="ColorScheme-Text"
    fill="currentColor"
    id="path8" />
 </g>
</svg>
