<?xml version="1.0" encoding="UTF-8" standalone="no"?>
<svg
   width="64"
   height="64"
   version="1.1"
   id="svg10"
   sodipodi:docname="dialog-question.svg"
   inkscape:version="1.1.2 (0a00cf5339, 2022-02-04)"
   xmlns:inkscape="http://www.inkscape.org/namespaces/inkscape"
   xmlns:sodipodi="http://sodipodi.sourceforge.net/DTD/sodipodi-0.dtd"
   xmlns:xlink="http://www.w3.org/1999/xlink"
   xmlns="http://www.w3.org/2000/svg"
   xmlns:svg="http://www.w3.org/2000/svg">
  <defs
     id="defs14">
    <filter
       id="d-3-0-3-6"
       x="-0.036000001"
       y="-0.036000001"
       width="1.072"
       height="1.072"
       color-interpolation-filters="sRGB">
      <feGaussianBlur
         stdDeviation="0.45000001"
         id="feGaussianBlur17-6-9-6-7" />
    </filter>
    <linearGradient
       id="linearGradient4"
       inkscape:collect="always">
      <stop
         style="stop-color:#2ad4ff;stop-opacity:1"
         offset="0"
         id="stop5" />
      <stop
         style="stop-color:#0066ff;stop-opacity:1"
         offset="1"
         id="stop6" />
    </linearGradient>
    <linearGradient
       inkscape:collect="always"
       xlink:href="#linearGradient4"
       id="linearGradient3"
       gradientUnits="userSpaceOnUse"
       gradientTransform="translate(-0.01000004,0.06499898)"
       x1="7.1900158"
       y1="-4.9100003"
       x2="8.8100166"
       y2="-4.9100003" />
  </defs>
  <sodipodi:namedview
     id="namedview12"
     pagecolor="#ffffff"
     bordercolor="#666666"
     borderopacity="1.0"
     inkscape:showpageshadow="2"
     inkscape:pageopacity="0.0"
     inkscape:pagecheckerboard="0"
     inkscape:deskcolor="#d1d1d1"
     showgrid="false"
     inkscape:zoom="13.09"
     inkscape:cx="20.626432"
     inkscape:cy="29.526356"
     inkscape:window-width="3440"
     inkscape:window-height="1359"
     inkscape:window-x="0"
     inkscape:window-y="0"
     inkscape:window-maximized="1"
     inkscape:current-layer="svg10"
     inkscape:pageshadow="2" />
  <path
     d="M 16,1 C 7.7157,1 1,7.7157 1,16 1,24.2843 7.7157,31 16,31 24.2843,31 31,24.2843 31,16 31,7.7157 24.2843,1 16,1 Z"
     filter="url(#d)"
     opacity="0.25"
     id="path22-2-6-2-9"
     style="filter:url(#d-3-0-3-6)"
     transform="matrix(1.961474,0,0,1.961474,0.65691759,0.65691729)" />
  <path
     d="m 32.040505,2.6183917 c -16.249441,0 -29.4221172,13.1726723 -29.4221172,29.4221113 0,16.249451 13.1726762,29.422115 29.4221172,29.422115 16.249452,0 29.422116,-13.172664 29.422116,-29.422115 0,-16.249439 -13.172664,-29.4221113 -29.422116,-29.4221113 z"
     id="path24-9-1-9-1"
     style="fill:#9b59b6;fill-opacity:1;stroke-width:0.761;stroke-miterlimit:4;stroke-dasharray:none" />
  <path
     d="m 32.040525,55.992026 c -12.896545,0 -23.9459451,-11.049359 -23.9459451,-23.945897 0,-12.89654 11.0494001,-24.0938711 23.9459451,-24.0938711 12.896545,0 23.945416,11.1973311 23.945416,24.0938711 0,12.896538 -11.048871,23.945897 -23.945416,23.945897 z"
     id="path26-1-8-1-2"
     style="fill:#1c202f;fill-opacity:1;stroke-width:2.12287"
     sodipodi:nodetypes="sssss" />
  <path
     style="fill:#ffffff;fill-opacity:1;stroke-width:3.1538;stroke-linecap:round;stroke-linejoin:round"
     id="rect4169"
     d="m 31.806213,13.078886 c -3.066189,0 -5.929152,1.075254 -7.9461,3.092205 -2.016951,2.016949 -3.092204,4.879911 -3.092204,7.946099 h 6.307602 c 0,-1.664497 0.501664,-2.743803 1.244273,-3.486429 0.742626,-0.742626 1.821932,-1.244272 3.486429,-1.244272 1.664513,0 2.743803,0.501646 3.486429,1.244272 0.742626,0.742627 1.244273,1.821932 1.244273,3.486429 0,1.445498 -0.284938,2.060449 -0.665255,2.605583 -0.380317,0.545119 -1.003334,1.059905 -1.931087,1.709335 -0.92777,0.649432 -2.160159,1.397569 -3.298555,2.725698 -1.138397,1.328128 -1.989605,3.340657 -1.989605,5.57459 v 1.5769 h 6.3076 v -1.5769 c 0,-0.919854 0.131199,-1.075579 0.471223,-1.472185 0.339949,-0.396606 1.081749,-0.929715 2.125119,-1.660057 1.043357,-0.730357 2.391482,-1.693916 3.489509,-3.267757 1.098028,-1.573842 1.798653,-3.718436 1.798653,-6.215207 0,-3.066188 -1.075236,-5.929149 -3.092204,-7.946099 -2.016948,-2.016951 -4.879896,-3.092205 -7.9461,-3.092205 z m -3.1538,31.538013 v 6.307603 h 6.3076 v -6.307603 z" />
</svg>
