<svg width="96" height="96" version="1.1" viewBox="0 0 96 96" xmlns="http://www.w3.org/2000/svg" xmlns:xlink="http://www.w3.org/1999/xlink">
<defs>
<style id="current-color-scheme" type="text/css">.ColorScheme-Highlight {
        color:#3daee9;
      }</style>
<linearGradient id="linearGradient6218-2" x1="408.33" x2="437.79" y1="555.74" y2="492.4" gradientTransform="matrix(.49005 0 0 .42369 -187.99 -204.88)" gradientUnits="userSpaceOnUse">
<stop style="stop-color:#353a3f;stop-opacity:.99608" offset="0"/>
<stop style="stop-color:#272727;stop-opacity:.98876" offset="1"/>
</linearGradient>
<linearGradient id="linearGradient850-5" x1="392.59" x2="420.29" y1="501.23" y2="503.48" gradientTransform="matrix(.49143 0 0 .31854 -188.93 -153.06)" gradientUnits="userSpaceOnUse">
<stop style="stop-color:#444647" offset="0"/>
<stop style="stop-color:#696969;stop-opacity:.42697" offset="1"/>
</linearGradient>
<radialGradient id="radialGradient6178-3-4" cx="397.99" cy="485.79" r="11.249" gradientTransform="matrix(-5.353e-5 .024235 -.51175 -.0011862 269.24 -6.224)" gradientUnits="userSpaceOnUse">
<stop style="stop-color:#d8dbd8" offset="0"/>
<stop style="stop-color:#272727;stop-opacity:.98876" offset="1"/>
</radialGradient>
<linearGradient id="linearGradient2676-7" x1="406.46" x2="414.47" y1="539.62" y2="506.87" gradientTransform="matrix(.49017 0 0 .49893 -187.96 -241.91)" gradientUnits="userSpaceOnUse">
<stop style="stop-color:#1a1b1b" offset="0"/>
<stop style="stop-color:#474747" offset="1"/>
</linearGradient>
<linearGradient id="linearGradient2684-4" x1="395.58" x2="404.77" y1="530.01" y2="505.63" gradientTransform="matrix(.49017 0 0 .49893 -187.96 -241.91)" gradientUnits="userSpaceOnUse">
<stop offset="0"/>
<stop style="stop-color:#c3c3c3;stop-opacity:0" offset="1"/>
</linearGradient>
<linearGradient id="linearGradient25155-4" x1="21.812" x2="4.0043" y1="3.9336" y2="4" gradientTransform="matrix(.5 0 0 .5 -.0021617 5.801e-7)" gradientUnits="userSpaceOnUse">
<stop style="stop-color:#1b1b1b" offset="0"/>
<stop style="stop-color:#090909;stop-opacity:.24541" offset=".49971"/>
<stop style="stop-color:#010101;stop-opacity:.23889" offset=".813"/>
<stop style="stop-opacity:.87011" offset="1"/>
</linearGradient>
<linearGradient id="linearGradient24" x1="12.021" x2="12.012" y1="7.2813" y2="-.72563" gradientTransform="matrix(.5 0 0 .5 -.0021617 5.801e-7)" gradientUnits="userSpaceOnUse" xlink:href="#linearGradient25029-3"/>
<linearGradient id="linearGradient25029-3" x1="12.021" x2="12.012" y1="7.2813" y2="-.72563" gradientUnits="userSpaceOnUse">
<stop style="stop-color:#4f5152" offset="0"/>
<stop style="stop-color:#010501" offset="1"/>
</linearGradient>
</defs>
<g transform="matrix(2.9675 0 0 2.9989 .019941 -.0015042)">
<path d="m1.2242 20.001v-18s0.023457-0.85555 0.77653-0.85555c0 0 9.7948-0.014237 9.9468 0l2.4893 1.8542 12.564 0.00149c3 0 3 3 3 3v14" style="fill:none;stroke-width:.34525;stroke:#000"/>
<path d="m2.0002 0.99966c-0.77656 0-0.77656 1-0.77656 1v20h28.776s5e-6 -9.6216 0-16c0-3-3.1212-3.2803-3.1212-3.2803l-12.691-0.076857-1.7782-1.3353c-0.26034-0.19459-0.47317-0.30754-0.82329-0.30754z" style="fill:url(#linearGradient6218-2);stroke-linecap:round;stroke-linejoin:bevel;stroke-width:.251;stroke:#000a00"/>
<path d="m1.278 19.054 0.037349-16.044 10.026 0.0287 0.65837-1.0386 1.6495 1.182h13.351c2.662 0 2.662 2.6617 2.662 2.6617v9" style="fill:none;stroke-width:.39565px;stroke:url(#linearGradient850-5)"/>
<path d="m14 2.6429v0.35716s8.6765-0.028469 13-5e-7l0.7982 0.080745s-0.49566-0.35848-0.9194-0.36105c-0.0032-1.93e-5 -12.879-0.076855-12.879-0.076855z" style="fill:url(#radialGradient6178-3-4);stroke-width:.33295"/>
<path d="m0.99798 6.9973v20s0 3 3 3c0 0 19.668 5.4e-4 24 0 3-3.51e-4 3-3 3-3 2.25e-4 -4.3303 0-16 0-16s0-0.99998-1-0.99998c0 0-9.8034 0-13.425-2-1.9089-1.054-3.0486-1.7447-4.0207-1.7447h-10.574c-1 0-0.97931 0.74471-0.97931 0.74471z" style="fill:none;stroke-linejoin:round;stroke-width:.66752;stroke:#000"/>
<path d="m0.85839 26.894s0.1312 3.104 3.1393 3.104c4.7341 4.99e-4 19.669 0 24 0 3 0 3-3 3-3v-16c0-1-1-1-1-1s-10.387 0.00579-14-2c-2.7549-1.5295-3-2-4-2h-10c-1 0-1 1-1 1z" style="fill:url(#linearGradient2676-7);stroke-linejoin:round;stroke-width:.64136;stroke:url(#linearGradient2684-4)"/>
<path class="ColorScheme-Highlight" d="m1.2234 2 1.1e-6 1h9.7765v-1.8559l-8.7765-1.2e-6c-1 1.2e-6 -1 0.8559-1 0.8559z" style="fill:currentColor;mix-blend-mode:normal;stroke-width:.5"/>
<path d="m2.2234 1.1216c-1 0-1 0.6233-1 0.87805v1.0102h9.7765s1.0444-1.3506 1-1.6128c-0.13862-0.25456-0.7189-0.27554-1-0.27554z" style="color:#3daee9;fill:url(#linearGradient25155-4);stroke-width:.345;stroke:url(#linearGradient24)"/>
<path d="m2.2234 1.3899c-1 0-1 0.6233-1 0.87805v0.74205h9.8595s0.5933-0.8606 0.9172-1.3677c-0.16569-0.20501-0.7189-0.25239-1-0.25239z" style="color:#3daee9;fill:none;stroke-width:.345;stroke:url(#linearGradient24)"/>
</g>
<path d="m28.493 49.549c-4.2519 0-8.3296 1.6816-11.336 4.675-3.0066 2.9932-4.6957 7.0531-4.6957 11.286 0 4.2331 1.6891 8.2929 4.6957 11.286 3.0064 2.9934 7.0843 4.675 11.336 4.675 4.2518 0 8.3296-1.6816 11.336-4.675 3.0066-2.9932 4.6957-7.0531 4.6957-11.286 0-2.8016-0.74078-5.5541-2.1478-7.9806-1.4073-2.4264-3.4309-4.4412-5.8682-5.8424-2.4372-1.4008-5.2018-2.1383-8.0159-2.1383zm-6.6875 9.1206h13.374c0.73294 0 1.3285 0.59294 1.3285 1.3227v3.0551c0 0.28611-0.1105 0.53595-0.26614 0.75262 0.15564 0.21664 0.26614 0.46649 0.26614 0.75263v3.0551c0 0.28613-0.1105 0.53597-0.26614 0.75264 0.15564 0.21667 0.26614 0.46647 0.26614 0.75262v3.0551c0 0.72972-0.59554 1.3227-1.3285 1.3227h-13.374c-0.73291 0-1.3285-0.59296-1.3285-1.3227v-3.0551c0-0.28615 0.1105-0.53595 0.26618-0.75262-0.15566-0.21669-0.26618-0.46651-0.26618-0.75264v-3.0551c0-0.28616 0.1105-0.536 0.26618-0.75263-0.15566-0.21667-0.26618-0.46653-0.26618-0.75262v-3.0551c0-0.72972 0.5956-1.3227 1.3285-1.3227zm0 1.1401c-0.102 0-0.18338 0.08103-0.18338 0.18258v3.0551c0 0.10145 0.0814 0.18257 0.18338 0.18257h13.374c0.102 0 0.18339-0.08101 0.18339-0.18257v-3.0551c0-0.10145-0.0814-0.18258-0.18339-0.18258zm0.96174 1.1401h4.5805v1.1401h-4.5805zm10.306 0h1.1451v1.1401h-1.1451zm-11.268 3.4202c-0.102 0-0.18341 0.08098-0.18341 0.18262v3.0551c0 0.10145 0.0814 0.18259 0.18341 0.18259h13.374c0.102 0 0.1834-0.08103 0.1834-0.18259v-3.0551c0-0.10145-0.0814-0.18262-0.1834-0.18262zm0.96171 1.1401h4.5805v1.1401h-4.5805zm10.306 0.08469h1.1451v1.1401h-1.1451zm-11.268 3.3357c-0.102 0-0.18341 0.08103-0.18341 0.1826v3.0551c0 0.10145 0.0814 0.18261 0.18341 0.18261h13.374c0.102 0 0.1834-0.08103 0.1834-0.18261v-3.0551c0-0.10145-0.0814-0.1826-0.1834-0.1826zm0.96172 1.1401h4.5805v1.1401h-4.5805zm10.306 0.1426h1.1451v1.1401h-1.1451z" fill-rule="evenodd" style="fill:#646464;stroke-width:.05713"/>
</svg>
