<?xml version="1.0" encoding="UTF-8" standalone="no"?>
<svg
   viewBox="0 0 96 96"
   version="1.1"
   id="svg12"
   width="96"
   height="96"
   xmlns:xlink="http://www.w3.org/1999/xlink"
   xmlns="http://www.w3.org/2000/svg"
   xmlns:svg="http://www.w3.org/2000/svg">
  <defs
     id="defs3051">
    <linearGradient
       id="linearGradient25153">
      <stop
         style="stop-color:#1b1b1b;stop-opacity:1"
         offset="0"
         id="stop25149" />
      <stop
         style="stop-color:#090909;stop-opacity:0.24540505"
         offset="0.49971318"
         id="stop1797" />
      <stop
         style="stop-color:#010101;stop-opacity:0.23888743"
         offset="0.9430303"
         id="stop2247" />
      <stop
         style="stop-color:#000000;stop-opacity:0.8012926"
         offset="1"
         id="stop25151" />
    </linearGradient>
    <linearGradient
       id="linearGradient14607">
      <stop
         style="stop-color:#4f5152;stop-opacity:1"
         offset="0"
         id="stop14603" />
      <stop
         style="stop-color:#010501;stop-opacity:1"
         offset="1"
         id="stop14605" />
    </linearGradient>
    <style
       type="text/css"
       id="current-color-scheme">
      .ColorScheme-Highlight {
        color:#3daee9;
      }
      </style>
    <filter
       height="1.0449693"
       y="-0.026935052"
       width="1.0344187"
       x="-0.017208866"
       id="filter940"
       style="color-interpolation-filters:sRGB">
      <feGaussianBlur
         id="feGaussianBlur942"
         stdDeviation="0.28795822" />
    </filter>
    <linearGradient
       gradientTransform="matrix(1.0005668,0,0,0.8509446,-0.23612742,72.315207)"
       gradientUnits="userSpaceOnUse"
       y2="492.39743"
       x2="437.78555"
       y1="555.7431"
       x1="408.33118"
       id="linearGradient6218"
       xlink:href="#linearGradient42869" />
    <linearGradient
       id="linearGradient42869">
      <stop
         style="stop-color:#353a3f;stop-opacity:0.99607843"
         offset="0"
         id="stop42865" />
      <stop
         style="stop-color:#272727;stop-opacity:0.98876405"
         offset="1"
         id="stop42867" />
    </linearGradient>
    <filter
       height="1.0667278"
       y="-0.033363852"
       width="1.0561312"
       x="-0.028065609"
       id="filter2714"
       style="color-interpolation-filters:sRGB">
      <feGaussianBlur
         id="feGaussianBlur2716"
         stdDeviation="0.56332734" />
    </filter>
    <linearGradient
       gradientUnits="userSpaceOnUse"
       y2="539.64374"
       x2="414.83517"
       y1="501.65286"
       x1="415.07861"
       id="linearGradient850"
       xlink:href="#linearGradient848" />
    <linearGradient
       id="linearGradient848">
      <stop
         id="stop844"
         offset="0"
         style="stop-color:#57595a;stop-opacity:0.99607843" />
      <stop
         id="stop846"
         offset="1"
         style="stop-color:#000000;stop-opacity:0.42696628" />
    </linearGradient>
    <filter
       height="1.03215"
       y="-0.025901777"
       width="1.0283593"
       x="-0.01417968"
       id="filter2706"
       style="color-interpolation-filters:sRGB">
      <feGaussianBlur
         id="feGaussianBlur2708"
         stdDeviation="0.140357" />
    </filter>
    <radialGradient
       gradientUnits="userSpaceOnUse"
       gradientTransform="matrix(-1.0705868e-4,0.04846987,-1.0235483,-0.0023723,538.49225,-12.44815)"
       r="11.24949"
       fy="485.79099"
       fx="397.99051"
       cy="485.79099"
       cx="397.99051"
       id="radialGradient6178-3"
       xlink:href="#linearGradient880" />
    <linearGradient
       id="linearGradient880">
      <stop
         style="stop-color:#d8dbd8;stop-opacity:1"
         offset="0"
         id="stop876" />
      <stop
         style="stop-color:#272727;stop-opacity:0.98876405"
         offset="1"
         id="stop878" />
    </linearGradient>
    <filter
       height="1.0707442"
       y="-0.035372174"
       width="1.0508627"
       x="-0.025431326"
       id="filter1073"
       style="color-interpolation-filters:sRGB">
      <feGaussianBlur
         id="feGaussianBlur1075"
         stdDeviation="0.39283137" />
    </filter>
    <linearGradient
       gradientUnits="userSpaceOnUse"
       y2="506.87347"
       x2="414.47186"
       y1="539.61627"
       x1="406.45694"
       id="linearGradient2676"
       xlink:href="#linearGradient2668" />
    <linearGradient
       id="linearGradient2668">
      <stop
         id="stop2664"
         offset="0"
         style="stop-color:#1a1b1b;stop-opacity:1" />
      <stop
         id="stop2666"
         offset="1"
         style="stop-color:#474747;stop-opacity:1" />
    </linearGradient>
    <linearGradient
       gradientUnits="userSpaceOnUse"
       y2="505.62521"
       x2="404.77097"
       y1="530.01428"
       x1="395.58017"
       id="linearGradient2684"
       xlink:href="#linearGradient2682" />
    <linearGradient
       id="linearGradient2682">
      <stop
         id="stop2678"
         offset="0"
         style="stop-color:#000000;stop-opacity:1;" />
      <stop
         id="stop2680"
         offset="1"
         style="stop-color:#c3c3c3;stop-opacity:0" />
    </linearGradient>
    <filter
       height="1.0397525"
       y="-0.019876304"
       width="1.0307531"
       x="-0.015376566"
       id="filter2690"
       style="color-interpolation-filters:sRGB">
      <feGaussianBlur
         id="feGaussianBlur2692"
         stdDeviation="0.13069192" />
    </filter>
    <filter
       style="color-interpolation-filters:sRGB"
       id="filter24684"
       x="-0.024959943"
       y="-0.15409672"
       width="1.0499199"
       height="1.3081934">
      <feGaussianBlur
         stdDeviation="0.21554955"
         id="feGaussianBlur24686" />
    </filter>
    <linearGradient
       xlink:href="#linearGradient14607"
       id="linearGradient25029"
       gradientUnits="userSpaceOnUse"
       x1="12.020759"
       y1="7.2813473"
       x2="12.011944"
       y2="-0.7256338" />
    <linearGradient
       xlink:href="#linearGradient25153"
       id="linearGradient25155"
       x1="21.812489"
       y1="3.9335968"
       x2="4.6537294"
       y2="4.034317"
       gradientUnits="userSpaceOnUse" />
    <filter
       style="color-interpolation-filters:sRGB"
       id="filter30328"
       x="-0.060622242"
       y="-0.37427998"
       width="1.121405"
       height="1.7485472">
      <feGaussianBlur
         stdDeviation="0.2547727"
         id="feGaussianBlur30330" />
    </filter>
  </defs>
  <path
     transform="matrix(1.4625178,0,0,1.4897513,-561.93053,-721.11731)"
     id="path6220-2"
     d="m 386.25703,524.61791 0.77838,-38.71157 22.03057,0.10242 3.50545,3.40716 c 0,0 18.10956,0.35097 27.33843,0.35097 2.88877,0 6.71919,2.18928 6.71919,7.16894 0,13.1364 0.12174,26.49022 0.12174,26.49022"
     style="display:inline;fill:none;fill-opacity:1;stroke:#000000;stroke-width:0.7;stroke-linecap:butt;stroke-linejoin:miter;stroke-miterlimit:4;stroke-dasharray:none;stroke-opacity:1;filter:url(#filter940)" />
  <path
     transform="matrix(1.4657086,0,0,1.4901074,-562.01583,-720.90146)"
     d="m 386.39384,486.19622 c 0,0 -0.10293,36.25523 -0.10293,49.28612 0,1.03908 0.48232,1.87652 1.08144,1.87652 h 58.39816 c 0.59911,0 1.34832,-0.83745 1.34161,-1.87652 0,0 -0.0268,-27.28049 -0.0268,-40.09035 0,-3.00572 -3.75125,-6.05898 -6.82146,-6.05898 -9.03444,0 -27.69471,-0.22684 -27.69471,-0.22684 l -4.13226,-2.8228 z"
     id="rect4180"
     style="display:inline;fill:url(#linearGradient6218);fill-opacity:1;stroke:#000a00;stroke-width:0.71;stroke-linecap:round;stroke-linejoin:bevel;stroke-miterlimit:4;stroke-dasharray:none;stroke-opacity:1;filter:url(#filter2714)" />
  <path
     transform="matrix(1.4707104,0,0,0.95331361,-565.16936,-458.07687)"
     id="path6220"
     d="m 387.04904,540.31904 0.076,-50.36617 20.73641,0.0901 1.41588,-3.75705 2.94655,4.20719 c 0,0 17.40991,0.34184 27.40616,0.34184 3.61218,0 6.32049,4.0507 6.32049,8.9451 0,12.76833 0.1165,38.20486 0.1165,38.20486"
     style="display:inline;fill:none;fill-opacity:1;stroke:url(#linearGradient850);stroke-width:1px;stroke-linecap:butt;stroke-linejoin:miter;stroke-opacity:1;filter:url(#filter2706)" />
  <path
     d="m 27.921427,5.4393704 v 0.380281 h 0.44553 l 25.49468,0.167876 h 0.44553 l -0.5452,-0.548167 h -0.44553 -24.94948 z"
     id="path4151-2-3-5"
     style="display:inline;fill:url(#radialGradient6178-3);fill-opacity:1;stroke-width:0.665905"
     transform="matrix(1.4963664,0,0,1.4963664,0.23365783,0.002518)" />
  <path
     transform="matrix(1.4669355,0,0,1.6174711,-562.6651,-790.27921)"
     style="display:inline;fill:none;fill-opacity:1;stroke:#000000;stroke-width:1.29693;stroke-linejoin:round;stroke-miterlimit:4;stroke-dasharray:none;stroke-opacity:1;filter:url(#filter1073)"
     id="path952"
     d="m 385.15633,501.64377 c 0,13.8136 0.0547,36.33599 0.0547,39.23108 0,2.8951 4.24366,4.43675 7.16501,4.43675 9.65801,10e-4 39.7482,-0.008 48.58578,-0.009 2.73024,-2.9e-4 6.73958,-3.06897 6.73961,-5.5723 4.6e-4,-8.01206 0.0257,-31.8933 0.0257,-31.8933 -21.39075,-0.31416 -23.00468,-0.49626 -28.48106,-3.68616 -5.47637,-3.18989 -6.84254,-3.7889 -8.06758,-3.79572 -8.19718,-0.0456 -25.32423,-0.0254 -25.32423,-0.0254 0,0 -0.68932,-0.094 -0.698,1.31379 z" />
  <path
     transform="matrix(1.4669355,0,0,1.4931594,-562.26744,-723.97907)"
     style="display:inline;fill:url(#linearGradient2676);fill-opacity:1;stroke:url(#linearGradient2684);stroke-width:1.29693;stroke-linejoin:round;stroke-miterlimit:4;stroke-dasharray:none;stroke-opacity:1;filter:url(#filter2690)"
     id="path952-7"
     d="m 385.15633,498.35321 c 0,13.8136 0.0547,28.03631 0.0547,40.41503 0,6.52543 4.5187,6.67224 7.29021,6.67224 9.65801,10e-4 38.73653,0 47.57411,0 4.29557,0 7.62608,-4.19689 7.62608,-7.71933 4.6e-4,-8.01206 0.0257,-32.38987 0.0257,-32.38987 -22.81136,0 -23.57647,-0.13663 -31.18143,-4.28484 -5.62028,-3.06564 -5.63216,-3.98161 -7.35295,-3.98161 -8.19718,-0.0456 -23.33849,-0.0254 -23.33849,-0.0254 0,0 -0.68932,-0.094 -0.698,1.31379 z" />
  <path
     style="display:inline;mix-blend-mode:normal;fill:currentColor;stroke:none;stroke-width:0.390115;stroke-miterlimit:4;stroke-dasharray:none;filter:url(#filter24684)"
     d="M 3.1185124,2.3943988 C 2.9060465,2.5755409 2.8406898,2.662737 2.8406898,3.1723004 c 0,0.7470828 0.00654,2.4587688 0.00654,2.4587688 H 22.075746 l 0.993727,-1.6353471 c 0,0 0.682408,-0.9793708 0.44826,-1.410869 -0.123324,-0.2272669 -0.513311,-0.2662912 -1.075516,-0.2662912 -0.820732,0 -18.1692197,-0.041813 -18.4326201,-0.041813 0,0 -0.7160982,-0.031538 -0.8910845,0.1176499 z"
     class="ColorScheme-Highlight"
     id="path4"
     transform="matrix(1.4963664,0,0,1.4963664,0.23365783,0.002518)" />
  <path
     style="color:#3daee9;display:inline;fill:url(#linearGradient25155);fill-opacity:1;stroke:url(#linearGradient25029);stroke-width:1.29;stroke-miterlimit:4;stroke-dasharray:none;filter:url(#filter30328)"
     d="M 3.1185124,2.3943988 C 2.9060465,2.5755409 2.8406898,2.662737 2.8406898,3.1723004 c 0,0.7470828 0.00654,2.4587688 0.00654,2.4587688 H 22.075746 l 0.993727,-1.6353471 c 0,0 0.682408,-0.9793708 0.44826,-1.410869 -0.123324,-0.2272669 -0.513311,-0.2662912 -1.075516,-0.2662912 -0.820732,0 -18.1692197,-0.041813 -18.4326201,-0.041813 0,0 -0.7160982,-0.031538 -0.8910845,0.1176499 z"
     id="path4-0"
     transform="matrix(1.4963664,0,0,1.4963664,0.23365783,0.002518)" />
  <g
     id="g376548"
     transform="matrix(1.4945459,0,0,1.4963664,63.21968,1.6587183)">
    <path
       d="m -13.372576,38.533423 c -0.533908,-1.265323 -1.321872,-2.404084 -2.287679,-3.391041 -0.991373,-0.986959 -2.135207,-1.7462 -3.406173,-2.277505 -1.322051,-0.556921 -2.719998,-0.860565 -4.168998,-0.860565 -1.44901,0 -2.846948,0.303628 -4.16881,0.860388 -1.270984,0.531521 -2.414817,1.315983 -3.406179,2.277509 -0.991367,0.986955 -1.754005,2.125704 -2.287666,3.391043 -0.559415,1.316169 -0.864409,2.707895 -0.864409,4.150469 0,1.442561 0.304984,2.834293 0.864223,4.150285 0.533895,1.26532 1.321862,2.404077 2.287669,3.391042 0.991363,0.986947 2.1352,1.746197 3.406178,2.277506 1.321867,0.556743 2.719984,0.835111 4.16881,0.835111 1.449,0 2.846948,-0.278377 4.16881,-0.835111 1.270973,-0.531534 2.414817,-1.315989 3.406178,-2.277506 0.991364,-0.986965 1.753994,-2.125722 2.287681,-3.391042 0.55923,-1.315992 0.838839,-2.707905 0.838839,-4.150285 3.67e-4,-1.442574 -0.279263,-2.8343 -0.838536,-4.150298 z"
       id="path67-9"
       style="fill:#646464;fill-opacity:1;stroke-width:0.0452915" />
    <path
       style="color:#232629;fill:#262727;fill-opacity:1;stroke:none;stroke-width:0.666998"
       d="m 20.207148,51.116062 c -0.800398,-0.1334 -1.934294,-0.600298 -2.601291,-1.033846 -1.534095,-1.000497 -2.538214,-2.113409 -3.158808,-3.502427 -0.2001,-0.466898 -0.318832,-0.800397 -0.666998,-2.000993 -0.0667,-0.300149 -0.179842,-0.636491 -0.221597,-0.7413 -0.07043,-0.176794 -0.07352,-0.236432 -0.04282,-0.826118 0.02915,-0.533599 0.1334,-1.333996 0.2001,-1.398023 0.0099,-0.01547 0.03308,-0.01914 0.05162,-0.0081 0.0627,0.03722 0.120673,-0.134859 0.177642,-0.527361 0.03121,-0.21504 0.08025,-0.440547 0.10898,-0.501132 0.02875,-0.06056 0.07739,-0.19429 0.108147,-0.297125 0.07078,-0.236692 0.167277,-0.418629 0.465611,-0.877799 0.131206,-0.20194 0.267593,-0.421891 0.303078,-0.488773 0.04175,-0.07869 0.08738,-0.117249 0.129264,-0.109251 0.04035,0.0077 0.106953,-0.04335 0.176701,-0.135399 0.303324,-0.400346 1.731973,-1.581493 1.864178,-1.541225 0.03608,0.01101 0.18684,-0.03862 0.335013,-0.110218 0.268007,-0.129523 0.386098,-0.159485 0.386098,-0.09797 0,0.01774 -0.03875,0.05803 -0.08608,0.08954 -0.08309,0.05529 -0.08142,0.05623 0.04782,0.02621 0.07365,-0.01714 0.197684,-0.04149 0.275636,-0.05416 0.09631,-0.01567 0.135468,-0.03875 0.122181,-0.07196 -0.01167,-0.02915 0.01608,-0.05803 0.06869,-0.07158 0.131706,-0.03382 0.336934,-0.02828 0.336934,0.0091 0,0.04489 -0.117345,0.09022 -0.210424,0.08136 -0.0635,-0.006 -0.06674,-6.67e-4 -0.01914,0.03048 0.04736,0.03122 0.04796,0.03789 0.0033,0.03835 -0.02982,3.07e-4 -0.04436,0.0099 -0.03242,0.02148 0.01201,0.01147 0.09176,-0.01334 0.177275,-0.05523 0.08551,-0.04189 0.242133,-0.09396 0.348039,-0.115755 0.130371,-0.02681 0.192562,-0.05796 0.192562,-0.09638 0,-0.04942 0.06056,-0.05363 0.468666,-0.03255 0.257775,0.01334 0.646754,0.05209 0.864402,0.08617 0.395703,0.06196 0.395737,0.06196 0.543203,-0.01948 0.176875,-0.09769 0.461369,-0.110406 0.536126,-0.02394 0.02735,0.03162 0.102631,0.08374 0.16729,0.115828 0.105479,0.05236 0.112456,0.05243 0.06787,6.67e-4 -0.08469,-0.09799 -5.8e-4,-0.09552 0.326422,0.0096 1.054236,0.33884 1.913683,0.9423 2.551419,1.791477 0.151235,0.201374 0.160393,0.291969 0.01714,0.16939 l -0.08199,-0.07015 0.06263,0.117509 c 0.03442,0.06463 0.06263,0.13726 0.06263,0.161399 0,0.02414 0.101384,0.202581 0.225285,0.396524 0.279259,0.437105 0.357378,0.58437 0.338642,0.638319 -0.0081,0.02314 -0.131752,-0.130823 -0.27493,-0.342122 -0.143171,-0.211285 -0.355043,-0.49597 -0.47082,-0.632622 -0.1729,-0.204068 -0.218182,-0.238974 -0.25346,-0.195357 -0.02361,0.02921 -0.08131,0.05836 -0.12821,0.0649 l -0.08526,0.01181 0.08434,0.158678 c 0.04636,0.08727 0.09049,0.140968 0.09802,0.119323 0.04029,-0.115908 0.227739,0.03648 0.312988,0.254389 0.02761,0.07068 0.101144,0.216228 0.163335,0.323445 0.06216,0.107217 0.105232,0.202447 0.09567,0.211632 -0.0095,0.0092 -0.0663,-0.02021 -0.125989,-0.0653 l -0.108587,-0.08198 0.07406,0.122018 c 0.04075,0.06712 0.108941,0.149206 0.151569,0.182437 0.05316,0.04149 0.0786,0.106963 0.08097,0.208784 0.0047,0.187993 0.116597,0.410078 0.177621,0.351513 0.09507,-0.09123 0.114617,-0.03422 0.09069,0.264568 -0.01761,0.220129 -0.0083,0.36522 0.03355,0.519249 0.0635,0.233844 0.04982,0.291561 -0.04302,0.182269 -0.05903,-0.0695 -0.05963,-0.06946 -0.03322,0.0027 0.05669,0.154622 0.09902,0.385939 0.08725,0.476727 -0.02194,0.169417 -0.08826,0.09898 -0.111062,-0.118043 l -0.02228,-0.211819 -0.0067,0.22542 c -0.0033,0.123986 -0.03388,0.363559 -0.06741,0.532389 -0.03388,0.170531 -0.05109,0.377167 -0.03869,0.464907 0.02328,0.165061 0.0068,0.171457 -0.136948,0.05323 -0.0585,-0.04816 -0.06859,-0.03842 -0.108774,0.104816 -0.03382,0.120517 -0.03355,0.189133 0.0013,0.290067 0.02501,0.07272 0.03955,0.171345 0.03228,0.219163 -0.01674,0.110359 -0.108861,0.144771 -0.108861,0.04069 0,-0.130876 -0.05189,-0.0843 -0.210424,0.188927 -0.428133,0.737805 -1.105562,1.308795 -1.872276,1.578118 -0.452018,0.158784 -0.755195,0.217662 -1.264948,0.245664 l -0.459108,0.02521 0.226839,0.06716 c 0.182911,0.05416 0.290324,0.06223 0.554749,0.04175 0.346425,-0.02688 0.75318,-0.09901 0.937619,-0.166302 0.07361,-0.02688 0.123321,-0.02808 0.14876,-0.004 0.05996,0.05756 -0.472834,0.283884 -0.789118,0.335164 -0.538174,0.08726 -1.258571,-0.0071 -1.894494,-0.247998 -0.43146,-0.16348 -1.071725,-0.589246 -0.97361,-0.647437 0.01861,-0.01101 0.140397,0.04462 0.270688,0.123705 0.166543,0.101054 0.236891,0.127668 0.236891,0.0896 0,-0.0719 0.02461,-0.06845 0.156945,0.02195 0.119486,0.08166 0.487008,0.23327 0.751706,0.310111 0.288543,0.08376 0.176668,-0.01774 -0.210424,-0.190955 -1.223921,-0.547584 -1.732013,-1.095281 -1.985239,-2.139956 -0.09286,-0.383083 0.0067,-1.222909 0.175987,-1.485922 0.04295,-0.06663 0.07804,-0.148612 0.07804,-0.182144 0,-0.145503 0.252825,-0.529934 0.512254,-0.778906 0.45714,-0.438707 0.932423,-0.620837 1.549403,-0.593736 0.298254,0.01314 0.425637,0.03829 0.673854,0.133138 0.28154,0.107603 0.636042,0.332856 0.527475,0.335171 -0.02555,5.4e-4 -0.137435,-0.03542 -0.248683,-0.07991 -0.169111,-0.06763 -0.277545,-0.08118 -0.661382,-0.08261 -0.538994,-0.002 -0.802438,0.07137 -1.186029,0.330382 -0.543829,0.367215 -0.84624,0.79018 -0.953339,1.333375 -0.07186,0.364487 -0.07406,0.46548 -0.01801,0.827026 0.03228,0.20833 0.05523,0.269463 0.09565,0.254589 0.03395,-0.01247 0.05316,0.006 0.05316,0.05056 0,0.129122 0.292759,0.652893 0.495793,0.887031 0.488689,0.563586 1.279188,0.92323 2.029247,0.92323 0.3893,0 0.703989,-0.07171 0.99366,-0.226427 0.116324,-0.06216 0.26315,-0.138086 0.326275,-0.168796 0.22273,-0.108344 0.360912,-0.232103 0.522466,-0.467915 0.08981,-0.131096 0.187446,-0.238353 0.216967,-0.238353 0.04362,0 0.04175,0.01894 -0.01007,0.100967 -0.170772,0.27047 0.230007,-0.221311 0.43755,-0.536899 l 0.232462,-0.353474 -0.02535,-0.232197 c -0.02435,-0.223125 -0.02081,-0.236745 0.09041,-0.348805 0.107133,-0.107911 0.116758,-0.139854 0.129104,-0.428341 0.01107,-0.258197 0.0033,-0.311799 -0.04402,-0.312092 -0.04415,-2.54e-4 -0.0631,-0.06826 -0.08211,-0.294083 -0.02515,-0.298865 -0.278719,-1.304546 -0.337755,-1.339565 -0.01781,-0.01054 -0.06727,-0.107269 -0.109874,-0.214894 -0.143805,-0.363206 -0.396037,-0.712458 -0.789318,-1.092933 -0.565895,-0.547451 -1.278735,-0.970188 -1.952083,-1.157641 -0.572764,-0.159452 -1.545373,-0.101574 -2.238144,0.133177 -0.338108,0.114574 -0.67124,0.266281 -0.727454,0.331282 -0.02548,0.02948 -0.0625,0.04409 -0.08217,0.03242 -0.02074,-0.01227 -0.01501,-0.04522 0.01361,-0.0783 0.127623,-0.147579 -0.295881,0.122525 -0.568523,0.362593 -0.164828,0.145136 -0.305698,0.268302 -0.313042,0.273698 -0.0073,0.0053 0.02475,2.53e-4 0.0713,-0.01141 0.07747,-0.01941 0.08075,-0.01427 0.03875,0.0611 -0.02695,0.04829 -0.167189,0.135132 -0.339108,0.209972 -0.288857,0.12574 -0.475683,0.263933 -0.624116,0.461665 -0.05923,0.07895 -0.0627,0.09595 -0.01581,0.07869 0.03288,-0.01214 0.05983,-0.0047 0.05983,0.01687 0,0.104856 -0.09927,0.221925 -0.246328,0.290495 -0.325809,0.151907 -0.898153,0.963318 -1.204738,1.70798 -0.136628,0.331837 -0.13446,0.32031 -0.06016,0.32031 0.0783,0 0.07285,0.08534 -0.03468,0.543755 -0.156672,0.667749 -0.156858,0.646384 0.01374,1.585796 0.207883,1.144594 0.32933,1.526944 0.560244,1.763863 0.05416,0.05556 0.10682,0.173799 0.130292,0.292569 0.02801,0.141815 0.07508,0.235412 0.163134,0.324485 0.08028,0.08121 0.107053,0.131017 0.07621,0.141809 -0.0605,0.02114 0.128918,0.292209 0.301737,0.431762 0.08694,0.07021 0.151375,0.0938 0.221169,0.081 0.152976,-0.02808 0.308727,0.05649 0.548052,0.297511 0.24871,0.250473 0.27363,0.317809 0.109041,0.29463 -0.106159,-0.01494 -0.108587,-0.01221 -0.05636,0.06437 0.03008,0.04402 0.14089,0.149813 0.246322,0.235125 0.14808,0.119837 0.186219,0.171678 0.16763,0.227888 -0.02675,0.08083 0.04949,0.156236 0.221997,0.219523 0.106953,0.03922 0.141417,0.123872 0.0609,0.149619 -0.02435,0.0078 0.126282,0.156597 0.334759,0.330676 0.234883,0.196124 0.392882,0.303621 0.4154,0.282623 0.0595,-0.05543 0.135727,-0.03855 0.137094,0.03035 0.0013,0.07519 0.06902,0.154175 0.311935,0.364873 0.15351,0.133144 0.191829,0.1499 0.285922,0.125027 0.08616,-0.02281 0.14035,-0.0081 0.261697,0.07056 0.2421,0.157064 0.388899,0.219757 0.514595,0.219757 0.123681,0 0.14129,0.03408 0.07707,0.149279 -0.03402,0.06096 -0.02675,0.07102 0.05143,0.07102 0.05002,0 0.191082,0.03302 0.313402,0.07343 0.278125,0.09184 0.394143,0.09808 0.324435,0.01748 -0.102971,-0.119069 0.006,-0.08653 0.374139,0.111453 0.514075,0.27666 0.774131,0.308264 1.797819,0.218496 0.151562,-0.01327 0.200859,-0.0053 0.200859,0.03161 0,0.03188 -0.131512,0.07976 -0.373025,0.135832 -0.317484,0.07371 -0.486941,0.08797 -1.138198,0.09578 -0.513181,0.006 -0.863722,-0.0073 -1.064408,-0.04069 z m -0.52334,-5.504109 c 0,-0.0078 -0.04736,-0.04182 -0.105212,-0.07561 l -0.105213,-0.0615 0.09032,0.07561 c 0.08814,0.07378 0.1201,0.09014 0.1201,0.0615 z m 5.267601,-3.84797 c -0.01221,-0.02928 -0.02128,-0.02061 -0.02315,0.02221 -0.002,0.03869 0.0074,0.06036 0.02008,0.04816 0.01274,-0.01221 0.01407,-0.04389 0.0027,-0.07037 z m -8.682156,-3.850765 c 0.04762,-0.05823 0.04622,-0.05956 -0.01447,-0.01387 -0.03682,0.02775 -0.06695,0.05663 -0.06695,0.06423 0,0.03021 0.03142,0.01074 0.0814,-0.05036 z m 0.435096,-0.339627 c 0.03809,-0.04042 0.06063,-0.07343 0.05009,-0.07343 -0.01054,0 -0.05029,0.03302 -0.08837,0.07343 -0.03809,0.04042 -0.06063,0.07343 -0.05009,0.07343 0.01054,0 0.05029,-0.03302 0.08838,-0.07343 z m 0.481586,-0.258104 c 0.126116,-0.04095 0.197778,-0.04822 0.224371,-0.02268 0.02661,0.02555 0.125282,0.01041 0.30896,-0.04742 0.148434,-0.04669 0.263057,-0.09146 0.25472,-0.09946 -0.0083,-0.008 -0.130558,0.02241 -0.271588,0.06761 -0.193703,0.0621 -0.263411,0.07131 -0.285015,0.03775 -0.03649,-0.0567 -0.384631,0.05503 -0.534265,0.171485 l -0.102251,0.07956 0.109881,-0.0633 c 0.06043,-0.03482 0.19327,-0.09041 0.295187,-0.12352 z m 1.102987,-0.0932 c 0.111109,-0.03168 0.195384,-0.06397 0.187286,-0.0717 -0.01788,-0.01714 -0.413665,0.09162 -0.413665,0.113687 0,0.02221 0.0033,0.02168 0.226379,-0.04195 z m 0.634442,-0.200159 0.153042,-0.02681 -0.133906,-0.0033 c -0.07365,-0.002 -0.176948,0.02208 -0.229554,0.05303 -0.0619,0.03648 -0.06867,0.04709 -0.01914,0.03008 0.04209,-0.01441 0.145379,-0.03829 0.229547,-0.05303 z m 0.303871,-0.06929 c 0.0118,-0.01828 -0.01301,-0.02461 -0.05516,-0.01407 -0.08934,0.02241 -0.10063,0.04736 -0.02141,0.04736 0.03035,0 0.06477,-0.01501 0.07657,-0.03328 z m 1.235253,0.01107 c -0.01274,-0.01221 -0.04569,-0.01347 -0.07333,-0.0027 -0.03055,0.01174 -0.02148,0.02041 0.02315,0.02221 0.04035,0.0013 0.0629,-0.0071 0.05022,-0.01928 z m -0.228754,-0.03982 c -0.03682,-0.0092 -0.09708,-0.0092 -0.133906,0 -0.03682,0.0092 -0.0067,0.01681 0.06695,0.01681 0.07365,0 0.103778,-0.0075 0.06695,-0.01681 z m -0.381576,-0.03809 c -0.07835,-0.0079 -0.216087,-0.008 -0.306072,-2.41e-4 -0.08998,0.0077 -0.02588,0.01421 0.142457,0.01434 0.168344,1.33e-4 0.241967,-0.006 0.163615,-0.01407 z m -0.499174,-0.03222 c -0.01274,-0.01221 -0.04569,-0.01354 -0.07333,-0.0027 -0.03055,0.01174 -0.02148,0.02041 0.02314,0.02221 0.04035,0.0013 0.0629,-0.0071 0.05023,-0.01928 z m -0.258976,8.825005 c -0.389706,-0.267969 -0.534098,-0.406569 -0.534098,-0.512699 0,-0.05629 0.01327,-0.102367 0.02948,-0.102367 0.05516,0 0.706671,0.652633 0.692424,0.693648 -0.0083,0.02374 -0.08686,-0.0091 -0.18782,-0.07858 z m -0.200532,-0.680387 c -0.202394,-0.196278 -0.267246,-0.301847 -0.185446,-0.301847 0.04916,0 0.425758,0.413812 0.425758,0.467821 0,0.02541 -0.0047,0.04622 -0.01074,0.04622 -0.006,0 -0.109215,-0.09548 -0.229554,-0.212179 z M 21.13282,44.19493 c -0.106853,-0.04135 -0.04015,-0.118049 0.133907,-0.153888 0.09995,-0.02061 0.258788,-0.07054 0.352968,-0.111019 0.09418,-0.04049 0.178042,-0.06707 0.186353,-0.0591 0.0083,0.008 -0.03435,0.08958 -0.09472,0.181343 -0.109167,0.165821 -0.111121,0.166822 -0.320259,0.164007 -0.115737,-0.0013 -0.231948,-0.01114 -0.258248,-0.02134 z m 1.147763,-0.821303 c -0.103271,-0.03982 -0.107546,-0.107624 -0.02134,-0.338486 0.07406,-0.198292 0.150869,-0.237413 0.108141,-0.05509 -0.01541,0.06563 -0.03589,0.160638 -0.04562,0.211118 l -0.01768,0.0918 0.07646,-0.08356 c 0.04522,-0.04942 0.08712,-0.165508 0.102564,-0.284137 0.01434,-0.110319 0.04135,-0.191522 0.06003,-0.180463 0.04736,0.02808 0.04229,0.318376 -0.0089,0.513547 -0.04475,0.170483 -0.08497,0.190347 -0.253705,0.125259 z m -9.0537,-0.460814 c -0.01274,-0.03195 -0.02321,-0.157237 -0.02321,-0.278435 0,-0.159898 0.01314,-0.216188 0.04782,-0.205175 0.05683,0.01801 0.09016,0.541687 0.03448,0.541687 -0.01974,0 -0.04629,-0.02615 -0.0591,-0.05809 z m 9.204002,-0.858817 c -0.05943,-0.07717 -0.07777,-0.138086 -0.0609,-0.202553 0.03462,-0.132391 0.125195,-0.113561 0.192015,0.03989 0.103952,0.238767 0.01374,0.350666 -0.131112,0.162633 z m -9.211872,-0.582922 c -0.0027,-0.208198 -2e-5,-0.214634 0.09601,-0.211119 0.08143,0.0027 0.101097,0.02354 0.110488,0.115728 0.0106,0.103949 -0.107193,0.310131 -0.177174,0.310131 -0.01447,0 -0.02768,-0.09663 -0.02935,-0.21474 z m 9.917128,-4.51363 c 0.0053,-0.328581 0.06303,-0.439893 0.10798,-0.209838 0.03135,0.160298 -0.0085,0.443362 -0.06923,0.491714 -0.03302,0.02628 -0.04289,-0.04536 -0.03875,-0.281876 z m -5.027128,-0.196905 c 0.01541,-0.04429 0.543149,-0.251727 0.640504,-0.251727 0.114377,0 -0.0908,0.134498 -0.327442,0.214648 -0.263851,0.08937 -0.334113,0.09768 -0.313062,0.03708 z"
       id="path5"
       transform="translate(-42.449559,-1.180161)" />
  </g>
</svg>
