<svg width="96" height="96" version="1.1" viewBox="0 0 96 96" xmlns="http://www.w3.org/2000/svg" xmlns:xlink="http://www.w3.org/1999/xlink">
<defs>
<style id="current-color-scheme" type="text/css">.ColorScheme-Highlight {
        color:#3daee9;
      }</style>
<linearGradient id="linearGradient6218-6" x1="408.33" x2="437.79" y1="555.74" y2="492.4" gradientTransform="matrix(.49005 0 0 .42369 -187.99 -204.88)" gradientUnits="userSpaceOnUse">
<stop style="stop-color:#353a3f;stop-opacity:.99608" offset="0"/>
<stop style="stop-color:#272727;stop-opacity:.98876" offset="1"/>
</linearGradient>
<linearGradient id="linearGradient850-6" x1="392.59" x2="420.29" y1="501.23" y2="503.48" gradientTransform="matrix(.49143 0 0 .31854 -188.93 -153.06)" gradientUnits="userSpaceOnUse">
<stop style="stop-color:#444647" offset="0"/>
<stop style="stop-color:#696969;stop-opacity:.42697" offset="1"/>
</linearGradient>
<radialGradient id="radialGradient6178-3-4" cx="397.99" cy="485.79" r="11.249" gradientTransform="matrix(-5.353e-5 .024235 -.51175 -.0011862 269.24 -6.224)" gradientUnits="userSpaceOnUse">
<stop style="stop-color:#d8dbd8" offset="0"/>
<stop style="stop-color:#272727;stop-opacity:.98876" offset="1"/>
</radialGradient>
<linearGradient id="linearGradient2676-9" x1="406.46" x2="414.47" y1="539.62" y2="506.87" gradientTransform="matrix(.49017 0 0 .49893 -187.96 -241.91)" gradientUnits="userSpaceOnUse">
<stop style="stop-color:#1a1b1b" offset="0"/>
<stop style="stop-color:#474747" offset="1"/>
</linearGradient>
<linearGradient id="linearGradient2684-5" x1="395.58" x2="404.77" y1="530.01" y2="505.63" gradientTransform="matrix(.49017 0 0 .49893 -187.96 -241.91)" gradientUnits="userSpaceOnUse">
<stop offset="0"/>
<stop style="stop-color:#c3c3c3;stop-opacity:0" offset="1"/>
</linearGradient>
<linearGradient id="linearGradient25155-0" x1="21.812" x2="4.0043" y1="3.9336" y2="4" gradientTransform="matrix(.5 0 0 .5 -.0021617 5.801e-7)" gradientUnits="userSpaceOnUse">
<stop style="stop-color:#1b1b1b" offset="0"/>
<stop style="stop-color:#090909;stop-opacity:.24541" offset=".49971"/>
<stop style="stop-color:#010101;stop-opacity:.23889" offset=".813"/>
<stop style="stop-opacity:.87011" offset="1"/>
</linearGradient>
<linearGradient id="linearGradient2" x1="12.021" x2="12.012" y1="7.2813" y2="-.72563" gradientTransform="matrix(.5 0 0 .5 -.0021617 5.801e-7)" gradientUnits="userSpaceOnUse" xlink:href="#linearGradient25029-4"/>
<linearGradient id="linearGradient25029-4" x1="12.021" x2="12.012" y1="7.2813" y2="-.72563" gradientUnits="userSpaceOnUse">
<stop style="stop-color:#4f5152" offset="0"/>
<stop style="stop-color:#010501" offset="1"/>
</linearGradient>
</defs>
<g transform="matrix(2.9675 0 0 2.9989 .019941 -.0015042)">
<path d="m1.2242 20.001v-18s0.023457-0.85555 0.77653-0.85555c0 0 9.7948-0.014237 9.9468 0l2.4893 1.8542 12.564 0.00149c3 0 3 3 3 3v14" style="fill:none;stroke-width:.34525;stroke:#000"/>
<path d="m2.0002 0.99966c-0.77656 0-0.77656 1-0.77656 1v20h28.776s5e-6 -9.6216 0-16c0-3-3.1212-3.2803-3.1212-3.2803l-12.691-0.076857-1.7782-1.3353c-0.26034-0.19459-0.47317-0.30754-0.82329-0.30754z" style="fill:url(#linearGradient6218-6);stroke-linecap:round;stroke-linejoin:bevel;stroke-width:.251;stroke:#000a00"/>
<path d="m1.278 19.054 0.037349-16.044 10.026 0.0287 0.65837-1.0386 1.6495 1.182h13.351c2.662 0 2.662 2.6617 2.662 2.6617v9" style="fill:none;stroke-width:.39565px;stroke:url(#linearGradient850-6)"/>
<path d="m14 2.6429v0.35716s8.6765-0.028469 13-5e-7l0.7982 0.080745s-0.49566-0.35848-0.9194-0.36105c-0.0032-1.93e-5 -12.879-0.076855-12.879-0.076855z" style="fill:url(#radialGradient6178-3-4);stroke-width:.33295"/>
<path d="m0.99798 6.9973v20s0 3 3 3c0 0 19.668 5.4e-4 24 0 3-3.51e-4 3-3 3-3 2.25e-4 -4.3303 0-16 0-16s0-0.99998-1-0.99998c0 0-9.8034 0-13.425-2-1.9089-1.054-3.0486-1.7447-4.0207-1.7447h-10.574c-1 0-0.97931 0.74471-0.97931 0.74471z" style="fill:none;stroke-linejoin:round;stroke-width:.66752;stroke:#000"/>
<path d="m0.85839 26.894s0.1312 3.104 3.1393 3.104c4.7341 4.99e-4 19.669 0 24 0 3 0 3-3 3-3v-16c0-1-1-1-1-1s-10.387 0.00579-14-2c-2.7549-1.5295-3-2-4-2h-10c-1 0-1 1-1 1z" style="fill:url(#linearGradient2676-9);stroke-linejoin:round;stroke-width:.64136;stroke:url(#linearGradient2684-5)"/>
<path class="ColorScheme-Highlight" d="m1.2234 2 1.1e-6 1h9.7765v-1.8559l-8.7765-1.2e-6c-1 1.2e-6 -1 0.8559-1 0.8559z" style="fill:currentColor;mix-blend-mode:normal;stroke-width:.5"/>
<path d="m2.2234 1.1216c-1 0-1 0.6233-1 0.87805v1.0102h9.7765s1.0444-1.3506 1-1.6128c-0.13862-0.25456-0.7189-0.27554-1-0.27554z" style="color:#3daee9;fill:url(#linearGradient25155-0);stroke-width:.345;stroke:url(#linearGradient2)"/>
<path d="m2.2234 1.3899c-1 0-1 0.6233-1 0.87805v0.74205h9.8595s0.5933-0.8606 0.9172-1.3677c-0.16569-0.20501-0.7189-0.25239-1-0.25239z" style="color:#3daee9;fill:none;stroke-width:.345;stroke:url(#linearGradient2)"/>
</g>
<g transform="matrix(1.4964 0 0 1.4964 -.078902 -.089805)">
<path transform="translate(38.843 3.859)" d="m-19.748 29.314c-5.917 0-10.714 4.7759-10.714 10.667 0 5.8908 4.7968 10.667 10.714 10.667 5.9175 0 10.714-4.7759 10.714-10.667 1.66e-4 -5.8912-4.7968-10.667-10.714-10.667z" style="fill:#646464;stroke-width:.043869"/>
<path d="m13.656 38.033c0.0979-0.0046 0.16102 0.02013 0.16102 0.02013h3.6935s0.48307 0.18535 0.48307 0.61391-0.3623 0.71455-0.3623 0.71455h-2.2443l1.5599 1.5096h1.9021v1.3385h-0.54346c-0.0039 0-0.0061-4.9e-5 -0.01007 0-0.49818 0.0063-0.8957 0.40605-0.8957 0.90576v0.48307h-1.2781l-0.02013-1.7511c-3e-6 -0.01119-1.409-1.4593-1.409-1.4593l-0.01007 2.0128c-3e-6 0-0.30408 0.48307-0.77493 0.48307-0.47085 0-0.72461-0.52333-0.72461-0.52333v-3.6432c0-2e-6 -0.07283-0.32841 0.12077-0.54346 0.0047-0.0052 0.0151-0.0151 0.02013-0.02013 0.10714-0.10714 0.23422-0.13628 0.33212-0.1409zm6.9945 0.04025s3.6215 0.01712 3.6231 0c7.82e-4 -0.0085 0.3512 0.01325 0.49314 0.13083 0.16088 0.13326 0.21134 0.43275 0.21134 0.43275v3.6834c-1e-6 2e-6 -0.18534 0.48307-0.61391 0.48307-0.42856 0-0.71455-0.35224-0.71455-0.35224v-2.0128l-1.6404 1.7713v1.409h-1.3989v-0.48307c0-0.50365-0.40211-0.90576-0.90576-0.90576h-0.42269v-1.3385h1.8115c0.06542 0 0.12978 0.0071 0.19122 0.02013l1.57-1.5197-2.3147-0.01007s-0.3925-0.2135-0.3925-0.68436c-2e-6 -0.18393 0.06343-0.3829 0.16102-0.48307 0.15224-0.15628 0.34218-0.1409 0.34218-0.1409zm-4.5288 5.968h1.2781v0.49314c0 0.50365 0.40212 0.90576 0.90576 0.90576h0.54346v1.3285h-1.8115c-0.50364 0-0.91583-0.40212-0.91583-0.90576zm4.4886 0h1.3989v1.8216c3e-6 0.02983-0.0073 0.0615-0.01007 0.09058l1.6102 1.419 0.05032-2.204c4e-6 4e-6 0.22356-0.37237 0.69442-0.37237 0.47085-4e-6 0.66423 0.46295 0.66423 0.46295l-0.03019 3.7036c5e-6 2e-6 -0.0071 0.32918-0.22141 0.54346-0.21428 0.21428-0.5032 0.12077-0.5032 0.12077h-3.6834s-0.48307-0.18534-0.48307-0.61391c0-0.42856 0.35224-0.71455 0.35224-0.71455h2.3952l-1.7411-1.5297h-1.8216v-1.3285h0.42269c0.50365 3e-6 0.90576-0.40212 0.90576-0.90576v-0.49314z" style="fill:#262727;stroke-width:.15198"/>
</g>
</svg>
