<svg width="96" height="96" version="1.1" viewBox="0 0 96 96" xmlns="http://www.w3.org/2000/svg" xmlns:xlink="http://www.w3.org/1999/xlink">
<defs>
<style id="current-color-scheme" type="text/css">.ColorScheme-Highlight {
        color:#3daee9;
      }</style>
<linearGradient id="linearGradient6218-6" x1="408.33" x2="437.79" y1="555.74" y2="492.4" gradientTransform="matrix(.49005 0 0 .42369 -187.99 -204.88)" gradientUnits="userSpaceOnUse">
<stop style="stop-color:#353a3f;stop-opacity:.99608" offset="0"/>
<stop style="stop-color:#272727;stop-opacity:.98876" offset="1"/>
</linearGradient>
<linearGradient id="linearGradient850-6" x1="392.59" x2="420.29" y1="501.23" y2="503.48" gradientTransform="matrix(.49143 0 0 .31854 -188.93 -153.06)" gradientUnits="userSpaceOnUse">
<stop style="stop-color:#444647" offset="0"/>
<stop style="stop-color:#696969;stop-opacity:.42697" offset="1"/>
</linearGradient>
<radialGradient id="radialGradient6178-3-4" cx="397.99" cy="485.79" r="11.249" gradientTransform="matrix(-5.353e-5 .024235 -.51175 -.0011862 269.24 -6.224)" gradientUnits="userSpaceOnUse">
<stop style="stop-color:#d8dbd8" offset="0"/>
<stop style="stop-color:#272727;stop-opacity:.98876" offset="1"/>
</radialGradient>
<linearGradient id="linearGradient2676-9" x1="406.46" x2="414.47" y1="539.62" y2="506.87" gradientTransform="matrix(.49017 0 0 .49893 -187.96 -241.91)" gradientUnits="userSpaceOnUse">
<stop style="stop-color:#1a1b1b" offset="0"/>
<stop style="stop-color:#474747" offset="1"/>
</linearGradient>
<linearGradient id="linearGradient2684-5" x1="395.58" x2="404.77" y1="530.01" y2="505.63" gradientTransform="matrix(.49017 0 0 .49893 -187.96 -241.91)" gradientUnits="userSpaceOnUse">
<stop offset="0"/>
<stop style="stop-color:#c3c3c3;stop-opacity:0" offset="1"/>
</linearGradient>
<linearGradient id="linearGradient25155-0" x1="21.812" x2="4.0043" y1="3.9336" y2="4" gradientTransform="matrix(.5 0 0 .5 -.0021617 5.801e-7)" gradientUnits="userSpaceOnUse">
<stop style="stop-color:#1b1b1b" offset="0"/>
<stop style="stop-color:#090909;stop-opacity:.24541" offset=".49971"/>
<stop style="stop-color:#010101;stop-opacity:.23889" offset=".813"/>
<stop style="stop-opacity:.87011" offset="1"/>
</linearGradient>
<linearGradient id="linearGradient2" x1="12.021" x2="12.012" y1="7.2813" y2="-.72563" gradientTransform="matrix(.5 0 0 .5 -.0021617 5.801e-7)" gradientUnits="userSpaceOnUse" xlink:href="#linearGradient25029-4"/>
<linearGradient id="linearGradient25029-4" x1="12.021" x2="12.012" y1="7.2813" y2="-.72563" gradientUnits="userSpaceOnUse">
<stop style="stop-color:#4f5152" offset="0"/>
<stop style="stop-color:#010501" offset="1"/>
</linearGradient>
</defs>
<g transform="matrix(2.9675 0 0 2.9989 .019941 -.0015042)">
<path d="m1.2242 20.001v-18s0.023457-0.85555 0.77653-0.85555c0 0 9.7948-0.014237 9.9468 0l2.4893 1.8542 12.564 0.00149c3 0 3 3 3 3v14" style="fill:none;stroke-width:.34525;stroke:#000"/>
<path d="m2.0002 0.99966c-0.77656 0-0.77656 1-0.77656 1v20h28.776s5e-6 -9.6216 0-16c0-3-3.1212-3.2803-3.1212-3.2803l-12.691-0.076857-1.7782-1.3353c-0.26034-0.19459-0.47317-0.30754-0.82329-0.30754z" style="fill:url(#linearGradient6218-6);stroke-linecap:round;stroke-linejoin:bevel;stroke-width:.251;stroke:#000a00"/>
<path d="m1.278 19.054 0.037349-16.044 10.026 0.0287 0.65837-1.0386 1.6495 1.182h13.351c2.662 0 2.662 2.6617 2.662 2.6617v9" style="fill:none;stroke-width:.39565px;stroke:url(#linearGradient850-6)"/>
<path d="m14 2.6429v0.35716s8.6765-0.028469 13-5e-7l0.7982 0.080745s-0.49566-0.35848-0.9194-0.36105c-0.0032-1.93e-5 -12.879-0.076855-12.879-0.076855z" style="fill:url(#radialGradient6178-3-4);stroke-width:.33295"/>
<path d="m0.99798 6.9973v20s0 3 3 3c0 0 19.668 5.4e-4 24 0 3-3.51e-4 3-3 3-3 2.25e-4 -4.3303 0-16 0-16s0-0.99998-1-0.99998c0 0-9.8034 0-13.425-2-1.9089-1.054-3.0486-1.7447-4.0207-1.7447h-10.574c-1 0-0.97931 0.74471-0.97931 0.74471z" style="fill:none;stroke-linejoin:round;stroke-width:.66752;stroke:#000"/>
<path d="m0.85839 26.894s0.1312 3.104 3.1393 3.104c4.7341 4.99e-4 19.669 0 24 0 3 0 3-3 3-3v-16c0-1-1-1-1-1s-10.387 0.00579-14-2c-2.7549-1.5295-3-2-4-2h-10c-1 0-1 1-1 1z" style="fill:url(#linearGradient2676-9);stroke-linejoin:round;stroke-width:.64136;stroke:url(#linearGradient2684-5)"/>
<path class="ColorScheme-Highlight" d="m1.2234 2 1.1e-6 1h9.7765v-1.8559l-8.7765-1.2e-6c-1 1.2e-6 -1 0.8559-1 0.8559z" style="fill:currentColor;mix-blend-mode:normal;stroke-width:.5"/>
<path d="m2.2234 1.1216c-1 0-1 0.6233-1 0.87805v1.0102h9.7765s1.0444-1.3506 1-1.6128c-0.13862-0.25456-0.7189-0.27554-1-0.27554z" style="color:#3daee9;fill:url(#linearGradient25155-0);stroke-width:.345;stroke:url(#linearGradient2)"/>
<path d="m2.2234 1.3899c-1 0-1 0.6233-1 0.87805v0.74205h9.8595s0.5933-0.8606 0.9172-1.3677c-0.16569-0.20501-0.7189-0.25239-1-0.25239z" style="color:#3daee9;fill:none;stroke-width:.345;stroke:url(#linearGradient2)"/>
</g>
<g transform="matrix(1.4963 0 0 1.4964 59.281 -1.636)">
<path d="m-20.576 34.206c-5.9066 0-10.714 4.7863-10.714 10.667 0 5.8804 4.8077 10.667 10.714 10.667 5.9066 0 10.714-4.7863 10.714-10.667 0-5.8804-4.8077-10.667-10.714-10.667z" style="fill:#646464;stroke-width:.044054"/>
<path class="ColorScheme-Background" transform="translate(-39.79 1.0216)" d="m25.304 36.975c-0.65324 0-6.0216 4.9607-7.0481 5.9724l-0.34381 0.34381c-0.09823 0.09823-0.01964 0.14735-0.09823 0.24558-0.09823 0.09823-0.14735 0.01474-0.24558 0.09823-0.09823 0.09823-0.01964 0.14735-0.09823 0.24558-0.09823 0.09823-0.14735 0.01474-0.24558 0.09823-0.61886 0.60903-1.5029 2.0137-1.5029 2.0137l0.54027 0.52062s1.4244-0.88408 2.0334-1.4735c0.09823-0.09823 0.01474-0.14735 0.09823-0.24558 0.09823-0.09823 0.16208-0.01964 0.24558-0.09823 0.09823-0.09823 0.01474-0.14735 0.09823-0.24558 0.09823-0.09823 0.16208-0.01964 0.24558-0.09823l0.34381-0.34381c1.0462-1.0609 6.3703-6.6699 6.0265-7.0186 0 0-0.02947-0.01474-0.04911-0.01474zm0.16208 4.5677c-0.29469 0.01964-0.6385 0.6385-0.88408 1.7927-0.49116 2.4558-5.2062 5.2062-5.9921 4.44-0.49116-0.49116 0.04912-1.3261-1.002-0.98231-0.52062 0.1719-0.85461 0.27996-1.1297 0.34381v0.06876c0 0.19646-0.01474 0.41748-0.06385 0.6385-0.09823 0.42239-0.22102 0.83496-0.54027 1.1493-0.60903 0.58939-1.3556 0.96758-1.6699 1.2132l-0.01964 0.01964c0.04912 0.03438 0.06876 0.04911 0.14735 0.09823a0.49116 0.49116 0 0 1 0.24558 0.29469c0.87426-0.26522 0.62868 0.10805 4.5334 0.10805 4.4941 0 6.999-3.944 6.999-6.9056 0-1.5717-0.29469-2.3084-0.62377-2.279zm-5.8447 4.4941c-0.14735 0-0.29469 0.04911-0.41257 0.1277-0.26522 0.19646-0.57465 0.49116-0.44204 0.65815 0.13261 0.17682 0.65815 0.1719 0.93319-0.02456 0.26522-0.19646 0.49116-0.44204 0.36346-0.60903-0.07367-0.09823-0.24558-0.14735-0.44204-0.14735zm-4.7937 0.1719c-0.52554 0-1.3114 0.19646-1.7878 0.66306-1.0609 1.056-1.0756 3.8556 1.0511 3.8556-1.3752-0.73673 0.35854-1.0658 1.4244-2.112 0.35854-0.34381 0.61886-1.4735 0.35854-1.7436l-0.54027-0.51571c-0.07859-0.09823-0.26522-0.14735-0.50589-0.14735z" style="color:#111111;fill:#262727;stroke-width:.49116"/>
</g>
</svg>
