<svg width="96" height="96" version="1.1" viewBox="0 0 96 96" xmlns="http://www.w3.org/2000/svg" xmlns:xlink="http://www.w3.org/1999/xlink">
<defs>
<style id="current-color-scheme" type="text/css">.ColorScheme-Highlight {
        color:#3daee9;
      }</style>
<linearGradient id="linearGradient6218-0" x1="408.33" x2="437.79" y1="555.74" y2="492.4" gradientTransform="matrix(.49005 0 0 .42369 -187.99 -204.88)" gradientUnits="userSpaceOnUse">
<stop style="stop-color:#353a3f;stop-opacity:.99608" offset="0"/>
<stop style="stop-color:#272727;stop-opacity:.98876" offset="1"/>
</linearGradient>
<linearGradient id="linearGradient850-6" x1="392.59" x2="420.29" y1="501.23" y2="503.48" gradientTransform="matrix(.49143 0 0 .31854 -188.93 -153.06)" gradientUnits="userSpaceOnUse">
<stop style="stop-color:#444647" offset="0"/>
<stop style="stop-color:#696969;stop-opacity:.42697" offset="1"/>
</linearGradient>
<radialGradient id="radialGradient6178-3-2" cx="397.99" cy="485.79" r="11.249" gradientTransform="matrix(-5.353e-5 .024235 -.51175 -.0011862 269.24 -6.224)" gradientUnits="userSpaceOnUse">
<stop style="stop-color:#d8dbd8" offset="0"/>
<stop style="stop-color:#272727;stop-opacity:.98876" offset="1"/>
</radialGradient>
<linearGradient id="linearGradient2676-6" x1="406.46" x2="414.47" y1="539.62" y2="506.87" gradientTransform="matrix(.49017 0 0 .49893 -187.96 -241.91)" gradientUnits="userSpaceOnUse">
<stop style="stop-color:#1a1b1b" offset="0"/>
<stop style="stop-color:#474747" offset="1"/>
</linearGradient>
<linearGradient id="linearGradient2684-1" x1="395.58" x2="404.77" y1="530.01" y2="505.63" gradientTransform="matrix(.49017 0 0 .49893 -187.96 -241.91)" gradientUnits="userSpaceOnUse">
<stop offset="0"/>
<stop style="stop-color:#c3c3c3;stop-opacity:0" offset="1"/>
</linearGradient>
<linearGradient id="linearGradient25155-8" x1="21.812" x2="4.0043" y1="3.9336" y2="4" gradientTransform="matrix(.5 0 0 .5 -.0021617 5.801e-7)" gradientUnits="userSpaceOnUse">
<stop style="stop-color:#1b1b1b" offset="0"/>
<stop style="stop-color:#090909;stop-opacity:.24541" offset=".49971"/>
<stop style="stop-color:#010101;stop-opacity:.23889" offset=".813"/>
<stop style="stop-opacity:.87011" offset="1"/>
</linearGradient>
<linearGradient id="linearGradient24" x1="12.021" x2="12.012" y1="7.2813" y2="-.72563" gradientTransform="matrix(.5 0 0 .5 -.0021617 5.801e-7)" gradientUnits="userSpaceOnUse" xlink:href="#linearGradient25029-7"/>
<linearGradient id="linearGradient25029-7" x1="12.021" x2="12.012" y1="7.2813" y2="-.72563" gradientUnits="userSpaceOnUse">
<stop style="stop-color:#4f5152" offset="0"/>
<stop style="stop-color:#010501" offset="1"/>
</linearGradient>
</defs>
<g transform="matrix(2.9675 0 0 2.9989 .019941 -.0015042)">
<path d="m1.2242 20.001v-18s0.023457-0.85555 0.77653-0.85555c0 0 9.7948-0.014237 9.9468 0l2.4893 1.8542 12.564 0.00149c3 0 3 3 3 3v14" style="fill:none;stroke-width:.34525;stroke:#000"/>
<path d="m2.0002 0.99966c-0.77656 0-0.77656 1-0.77656 1v20h28.776s5e-6 -9.6216 0-16c0-3-3.1212-3.2803-3.1212-3.2803l-12.691-0.076857-1.7782-1.3353c-0.26034-0.19459-0.47317-0.30754-0.82329-0.30754z" style="fill:url(#linearGradient6218-0);stroke-linecap:round;stroke-linejoin:bevel;stroke-width:.251;stroke:#000a00"/>
<path d="m1.278 19.054 0.037349-16.044 10.026 0.0287 0.65837-1.0386 1.6495 1.182h13.351c2.662 0 2.662 2.6617 2.662 2.6617v9" style="fill:none;stroke-width:.39565px;stroke:url(#linearGradient850-6)"/>
<path d="m14 2.6429v0.35716s8.6765-0.028469 13-5e-7l0.7982 0.080745s-0.49566-0.35848-0.9194-0.36105c-0.0032-1.93e-5 -12.879-0.076855-12.879-0.076855z" style="fill:url(#radialGradient6178-3-2);stroke-width:.33295"/>
<path d="m0.99798 6.9973v20s0 3 3 3c0 0 19.668 5.4e-4 24 0 3-3.51e-4 3-3 3-3 2.25e-4 -4.3303 0-16 0-16s0-0.99998-1-0.99998c0 0-9.8034 0-13.425-2-1.9089-1.054-3.0486-1.7447-4.0207-1.7447h-10.574c-1 0-0.97931 0.74471-0.97931 0.74471z" style="fill:none;stroke-linejoin:round;stroke-width:.66752;stroke:#000"/>
<path d="m0.85839 26.894s0.1312 3.104 3.1393 3.104c4.7341 4.99e-4 19.669 0 24 0 3 0 3-3 3-3v-16c0-1-1-1-1-1s-10.387 0.00579-14-2c-2.7549-1.5295-3-2-4-2h-10c-1 0-1 1-1 1z" style="fill:url(#linearGradient2676-6);stroke-linejoin:round;stroke-width:.64136;stroke:url(#linearGradient2684-1)"/>
<path class="ColorScheme-Highlight" d="m1.2234 2 1.1e-6 1h9.7765v-1.8559l-8.7765-1.2e-6c-1 1.2e-6 -1 0.8559-1 0.8559z" style="fill:currentColor;mix-blend-mode:normal;stroke-width:.5"/>
<path d="m2.2234 1.1216c-1 0-1 0.6233-1 0.87805v1.0102h9.7765s1.0444-1.3506 1-1.6128c-0.13862-0.25456-0.7189-0.27554-1-0.27554z" style="color:#3daee9;fill:url(#linearGradient25155-8);stroke-width:.345;stroke:url(#linearGradient24)"/>
<path d="m2.2234 1.3899c-1 0-1 0.6233-1 0.87805v0.74205h9.8595s0.5933-0.8606 0.9172-1.3677c-0.16569-0.20501-0.7189-0.25239-1-0.25239z" style="color:#3daee9;fill:none;stroke-width:.345;stroke:url(#linearGradient24)"/>
</g>
<g transform="matrix(1.4963 0 0 1.4964 -.45889 -.088235)">
<path d="m19.349 33.172c5.9134 0 10.714 4.7795 10.714 10.667 0 5.8871-4.8008 10.667-10.714 10.667-5.9134 0-10.714-4.7795-10.714-10.667 0-5.8871 4.8008-10.667 10.714-10.667z" fill-rule="evenodd" style="fill:#646464;stroke-width:.047725"/>
<path d="m23.574 37.553-0.16944 0.57865c-0.34701-0.02892-0.6966 0.0093-1.0294 0.11189l-0.28879-0.52857-0.95803 0.52324 0.2888 0.52857c-0.26681 0.2248-0.48743 0.49791-0.65112 0.80564l-0.57652-0.16838-0.30691 1.0465 0.57865 0.16944c-0.02892 0.34701 0.0083 0.69767 0.11083 1.0305l-0.52857 0.2888 0.52324 0.95803 0.52857-0.28986c0.2248 0.26681 0.49898 0.4885 0.8067 0.65219l-0.16944 0.57652 1.0475 0.30691 0.16944-0.57865c0.34701 0.02892 0.6966-0.0093 1.0294-0.11189l0.28986 0.52857 0.95696-0.52324-0.28879-0.52857c0.26681-0.2248 0.48743-0.49791 0.65112-0.80564l0.57652 0.16837 0.30691-1.0465-0.57865-0.16944c0.02892-0.34701-0.0083-0.69767-0.11083-1.0305l0.52857-0.2888-0.52324-0.95803-0.52857 0.28986c-0.2248-0.26681-0.49898-0.4885-0.80671-0.65219l0.16944-0.57652zm-7.8124 2.7121-1.0859 0.10657 0.05861 0.59997c-0.33283 0.10258-0.64265 0.26767-0.91327 0.48701l-0.46676-0.38257-0.69268 0.84294 0.46569 0.38257c-0.16368 0.30828-0.26554 0.64512-0.30265 0.99213l-0.59784 0.05861 0.10657 1.0859 0.59997-0.05861c0.10258 0.33283 0.26767 0.64264 0.48701 0.91327l-0.38257 0.46676 0.84294 0.69268 0.38257-0.46569c0.30827 0.16369 0.64512 0.26555 0.99213 0.30265l0.05861 0.59784 1.0859-0.10657-0.05861-0.59997c0.33283-0.10258 0.64265-0.26767 0.91327-0.48701l0.46676 0.38257 0.69268-0.84294-0.46569-0.38257c0.16368-0.30828 0.26554-0.64512 0.30265-0.99213l0.59784-0.05861-0.10656-1.0859-0.59997 0.05861c-0.10258-0.33283-0.26767-0.64264-0.48701-0.91327l0.38257-0.46676-0.84294-0.69268-0.38257 0.46569c-0.30827-0.16369-0.64512-0.26555-0.99213-0.30265zm4.6868 3.311v0.60316c-0.34156 0.06984-0.66615 0.20437-0.95696 0.39643l-0.42626-0.42626-0.77154 0.77154 0.42626 0.42626c-0.1926 0.29082-0.32817 0.61541-0.39856 0.95696h-0.60103v1.0912h0.60316c0.06984 0.34156 0.20437 0.66615 0.39642 0.95696l-0.42626 0.42626 0.77154 0.77154 0.42626-0.42626c0.29082 0.1926 0.61541 0.32817 0.95696 0.39856v0.60103h1.0912v-0.60316c0.34156-0.06984 0.66615-0.20437 0.95696-0.39643l0.42626 0.42626 0.77154-0.77154-0.42626-0.42626c0.1926-0.29082 0.32817-0.61541 0.39856-0.95696h0.60103v-1.0912h-0.60316c-0.06984-0.34156-0.20437-0.66615-0.39643-0.95696l0.42626-0.42626-0.77154-0.77154-0.42626 0.42626c-0.29082-0.1926-0.61541-0.32817-0.95696-0.39856v-0.60103z" style="color:#232629;fill:#262727"/>
</g>
</svg>
