<svg width="96" height="96" version="1.1" viewBox="0 0 96 96" xmlns="http://www.w3.org/2000/svg" xmlns:xlink="http://www.w3.org/1999/xlink">
<defs>
<style id="current-color-scheme" type="text/css">.ColorScheme-Highlight {
        color:#3daee9;
      }</style>
<linearGradient id="linearGradient6218-6" x1="408.33" x2="437.79" y1="555.74" y2="492.4" gradientTransform="matrix(.49005 0 0 .42369 -187.99 -204.88)" gradientUnits="userSpaceOnUse">
<stop style="stop-color:#353a3f;stop-opacity:.99608" offset="0"/>
<stop style="stop-color:#272727;stop-opacity:.98876" offset="1"/>
</linearGradient>
<linearGradient id="linearGradient850-6" x1="392.59" x2="420.29" y1="501.23" y2="503.48" gradientTransform="matrix(.49143 0 0 .31854 -188.93 -153.06)" gradientUnits="userSpaceOnUse">
<stop style="stop-color:#444647" offset="0"/>
<stop style="stop-color:#696969;stop-opacity:.42697" offset="1"/>
</linearGradient>
<radialGradient id="radialGradient6178-3-4" cx="397.99" cy="485.79" r="11.249" gradientTransform="matrix(-5.353e-5 .024235 -.51175 -.0011862 269.24 -6.224)" gradientUnits="userSpaceOnUse">
<stop style="stop-color:#d8dbd8" offset="0"/>
<stop style="stop-color:#272727;stop-opacity:.98876" offset="1"/>
</radialGradient>
<linearGradient id="linearGradient2676-9" x1="406.46" x2="414.47" y1="539.62" y2="506.87" gradientTransform="matrix(.49017 0 0 .49893 -187.96 -241.91)" gradientUnits="userSpaceOnUse">
<stop style="stop-color:#1a1b1b" offset="0"/>
<stop style="stop-color:#474747" offset="1"/>
</linearGradient>
<linearGradient id="linearGradient2684-5" x1="395.58" x2="404.77" y1="530.01" y2="505.63" gradientTransform="matrix(.49017 0 0 .49893 -187.96 -241.91)" gradientUnits="userSpaceOnUse">
<stop offset="0"/>
<stop style="stop-color:#c3c3c3;stop-opacity:0" offset="1"/>
</linearGradient>
<linearGradient id="linearGradient25155-0" x1="21.812" x2="4.0043" y1="3.9336" y2="4" gradientTransform="matrix(.5 0 0 .5 -.0021617 5.801e-7)" gradientUnits="userSpaceOnUse">
<stop style="stop-color:#1b1b1b" offset="0"/>
<stop style="stop-color:#090909;stop-opacity:.24541" offset=".49971"/>
<stop style="stop-color:#010101;stop-opacity:.23889" offset=".813"/>
<stop style="stop-opacity:.87011" offset="1"/>
</linearGradient>
<linearGradient id="linearGradient2" x1="12.021" x2="12.012" y1="7.2813" y2="-.72563" gradientTransform="matrix(.5 0 0 .5 -.0021617 5.801e-7)" gradientUnits="userSpaceOnUse" xlink:href="#linearGradient25029-4"/>
<linearGradient id="linearGradient25029-4" x1="12.021" x2="12.012" y1="7.2813" y2="-.72563" gradientUnits="userSpaceOnUse">
<stop style="stop-color:#4f5152" offset="0"/>
<stop style="stop-color:#010501" offset="1"/>
</linearGradient>
</defs>
<g transform="matrix(2.9675 0 0 2.9989 .019941 -.0015042)">
<path d="m1.2242 20.001v-18s0.023457-0.85555 0.77653-0.85555c0 0 9.7948-0.014237 9.9468 0l2.4893 1.8542 12.564 0.00149c3 0 3 3 3 3v14" style="fill:none;stroke-width:.34525;stroke:#000"/>
<path d="m2.0002 0.99966c-0.77656 0-0.77656 1-0.77656 1v20h28.776s5e-6 -9.6216 0-16c0-3-3.1212-3.2803-3.1212-3.2803l-12.691-0.076857-1.7782-1.3353c-0.26034-0.19459-0.47317-0.30754-0.82329-0.30754z" style="fill:url(#linearGradient6218-6);stroke-linecap:round;stroke-linejoin:bevel;stroke-width:.251;stroke:#000a00"/>
<path d="m1.278 19.054 0.037349-16.044 10.026 0.0287 0.65837-1.0386 1.6495 1.182h13.351c2.662 0 2.662 2.6617 2.662 2.6617v9" style="fill:none;stroke-width:.39565px;stroke:url(#linearGradient850-6)"/>
<path d="m14 2.6429v0.35716s8.6765-0.028469 13-5e-7l0.7982 0.080745s-0.49566-0.35848-0.9194-0.36105c-0.0032-1.93e-5 -12.879-0.076855-12.879-0.076855z" style="fill:url(#radialGradient6178-3-4);stroke-width:.33295"/>
<path d="m0.99798 6.9973v20s0 3 3 3c0 0 19.668 5.4e-4 24 0 3-3.51e-4 3-3 3-3 2.25e-4 -4.3303 0-16 0-16s0-0.99998-1-0.99998c0 0-9.8034 0-13.425-2-1.9089-1.054-3.0486-1.7447-4.0207-1.7447h-10.574c-1 0-0.97931 0.74471-0.97931 0.74471z" style="fill:none;stroke-linejoin:round;stroke-width:.66752;stroke:#000"/>
<path d="m0.85839 26.894s0.1312 3.104 3.1393 3.104c4.7341 4.99e-4 19.669 0 24 0 3 0 3-3 3-3v-16c0-1-1-1-1-1s-10.387 0.00579-14-2c-2.7549-1.5295-3-2-4-2h-10c-1 0-1 1-1 1z" style="fill:url(#linearGradient2676-9);stroke-linejoin:round;stroke-width:.64136;stroke:url(#linearGradient2684-5)"/>
<path class="ColorScheme-Highlight" d="m1.2234 2 1.1e-6 1h9.7765v-1.8559l-8.7765-1.2e-6c-1 1.2e-6 -1 0.8559-1 0.8559z" style="fill:currentColor;mix-blend-mode:normal;stroke-width:.5"/>
<path d="m2.2234 1.1216c-1 0-1 0.6233-1 0.87805v1.0102h9.7765s1.0444-1.3506 1-1.6128c-0.13862-0.25456-0.7189-0.27554-1-0.27554z" style="color:#3daee9;fill:url(#linearGradient25155-0);stroke-width:.345;stroke:url(#linearGradient2)"/>
<path d="m2.2234 1.3899c-1 0-1 0.6233-1 0.87805v0.74205h9.8595s0.5933-0.8606 0.9172-1.3677c-0.16569-0.20501-0.7189-0.25239-1-0.25239z" style="color:#3daee9;fill:none;stroke-width:.345;stroke:url(#linearGradient2)"/>
</g>
<g transform="matrix(1.4963 0 0 1.4946 -.33238 -.62596)">
<path transform="translate(49.105 9.71)" d="m-19.966 30.39c-0.5339-1.2653-1.3219-2.4041-2.2877-3.391-0.99138-0.98696-2.1352-1.7462-3.4062-2.2775-1.322-0.55692-2.72-0.86056-4.169-0.86056-1.449 0-2.847 0.30363-4.1688 0.86038-1.271 0.53152-2.4148 1.316-3.4062 2.2775-0.99138 0.98696-1.754 2.1257-2.2877 3.391-0.55942 1.3162-0.86441 2.7079-0.86441 4.1505 0 1.4426 0.30498 2.8343 0.86423 4.1503 0.53389 1.2653 1.3219 2.4041 2.2877 3.391 0.99136 0.98695 2.1352 1.7462 3.4062 2.2775 1.3219 0.55674 2.72 0.83511 4.1688 0.83511 1.449 0 2.8469-0.27838 4.1688-0.83511 1.271-0.53154 2.4148-1.316 3.4062-2.2775 0.99136-0.98697 1.754-2.1257 2.2877-3.391 0.55923-1.316 0.83884-2.7079 0.83884-4.1503 3.7e-4 -1.4426-0.27926-2.8343-0.83853-4.1503z" style="fill:#646464;stroke-width:.045292"/>
<path class="cls-1" d="m17.597 43.576-0.48675 0.48675v-0.96676zm7.4376-3.8014h0.0362c0.10012 1.59e-4 0.19497 0.04488 0.25879 0.12202 1.5193 1.5742 2.3238 4.9921 2.1495 7.2798-0.02788 0.55493-0.15646 1.1002-0.37948 1.6091-0.23332 0.48004-0.56988 0.79514-1.0205 0.87827-0.57391 0.10593-1.2913-0.19711-2.1535-1.0727-0.1113-0.11263-0.22661-0.22661-0.34461-0.34327-0.43281-0.4026-0.82904-0.84281-1.184-1.3155h-6.2645c-0.35484 0.47483-0.75205 0.91647-1.1867 1.3195-0.11665 0.11532-0.23198 0.22795-0.34193 0.33925-0.86218 0.87827-1.5796 1.1813-2.1535 1.0727-0.45054-0.07911-0.78847-0.39959-1.0218-0.87425-0.22287-0.50896-0.35145-1.0542-0.37948-1.6091-0.177-2.3023 0.63421-5.7402 2.1763-7.3024 0.0627-0.0644 0.1488-0.10068 0.23868-0.10057h0.03754c0.95072-1.3087 3.0841-1.3221 4.0348 0h1.0606l2.3976 0.0014c0.94802-1.3128 3.0841-1.3168 4.0348 0zm-8.7532 2.1146v0.89299h0.89299c1.011 0 1.011 1.5286 0 1.5286h-0.89299v0.89299c0 1.011-1.5286 1.011-1.5286 0v-0.89167h-0.89299c-1.011 0-1.011-1.5286 0-1.5286h0.89299v-0.89437c0-1.011 1.5286-1.011 1.5286 0zm6.9836-0.77772c0.44427 0.4444 0.12949 1.204-0.49882 1.204-0.62831 0-0.94309-0.75958-0.49882-1.204 0.27515-0.27631 0.72248-0.27631 0.99763 0zm0 3.076c0.44427 0.4444 0.12949 1.204-0.49882 1.204-0.62831 0-0.94309-0.75958-0.49882-1.204 0.27515-0.27631 0.72248-0.27631 0.99763 0zm1.6922-1.6091c0.44427 0.4444 0.12949 1.204-0.49882 1.204-0.62831 0-0.94309-0.75958-0.49882-1.204 0.27577-0.27482 0.72187-0.27482 0.99763 0zm-3.3858 0c0.44427 0.4444 0.12949 1.204-0.49882 1.204s-0.94309-0.75958-0.49882-1.204c0.27515-0.27631 0.72248-0.27631 0.99763 0zm-6.034-1.0567 0.48675 0.48675h-0.96814l0.48675-0.48675zm-2.0449 2.0543 0.48406 0.48675v-0.96676l-0.48675 0.48675zm2.0502 2.0489 0.48675-0.48675h-0.97348z" fill-rule="evenodd" stroke-width=".15696" style="fill:#262727"/>
</g>
</svg>
