<svg width="96" height="96" version="1.1" viewBox="0 0 96 96" xmlns="http://www.w3.org/2000/svg" xmlns:xlink="http://www.w3.org/1999/xlink">
<defs>
<style id="current-color-scheme" type="text/css">.ColorScheme-Highlight {
        color:#3daee9;
      }</style>
<linearGradient id="linearGradient6218-6" x1="408.33" x2="437.79" y1="555.74" y2="492.4" gradientTransform="matrix(.49005 0 0 .42369 -187.99 -204.88)" gradientUnits="userSpaceOnUse">
<stop style="stop-color:#353a3f;stop-opacity:.99608" offset="0"/>
<stop style="stop-color:#272727;stop-opacity:.98876" offset="1"/>
</linearGradient>
<linearGradient id="linearGradient850-6" x1="392.59" x2="420.29" y1="501.23" y2="503.48" gradientTransform="matrix(.49143 0 0 .31854 -188.93 -153.06)" gradientUnits="userSpaceOnUse">
<stop style="stop-color:#444647" offset="0"/>
<stop style="stop-color:#696969;stop-opacity:.42697" offset="1"/>
</linearGradient>
<radialGradient id="radialGradient6178-3-4" cx="397.99" cy="485.79" r="11.249" gradientTransform="matrix(-5.353e-5 .024235 -.51175 -.0011862 269.24 -6.224)" gradientUnits="userSpaceOnUse">
<stop style="stop-color:#d8dbd8" offset="0"/>
<stop style="stop-color:#272727;stop-opacity:.98876" offset="1"/>
</radialGradient>
<linearGradient id="linearGradient2676-9" x1="406.46" x2="414.47" y1="539.62" y2="506.87" gradientTransform="matrix(.49017 0 0 .49893 -187.96 -241.91)" gradientUnits="userSpaceOnUse">
<stop style="stop-color:#1a1b1b" offset="0"/>
<stop style="stop-color:#474747" offset="1"/>
</linearGradient>
<linearGradient id="linearGradient2684-5" x1="395.58" x2="404.77" y1="530.01" y2="505.63" gradientTransform="matrix(.49017 0 0 .49893 -187.96 -241.91)" gradientUnits="userSpaceOnUse">
<stop offset="0"/>
<stop style="stop-color:#c3c3c3;stop-opacity:0" offset="1"/>
</linearGradient>
<linearGradient id="linearGradient25155-0" x1="21.812" x2="4.0043" y1="3.9336" y2="4" gradientTransform="matrix(.5 0 0 .5 -.0021617 5.801e-7)" gradientUnits="userSpaceOnUse">
<stop style="stop-color:#1b1b1b" offset="0"/>
<stop style="stop-color:#090909;stop-opacity:.24541" offset=".49971"/>
<stop style="stop-color:#010101;stop-opacity:.23889" offset=".813"/>
<stop style="stop-opacity:.87011" offset="1"/>
</linearGradient>
<linearGradient id="linearGradient2" x1="12.021" x2="12.012" y1="7.2813" y2="-.72563" gradientTransform="matrix(.5 0 0 .5 -.0021617 5.801e-7)" gradientUnits="userSpaceOnUse" xlink:href="#linearGradient25029-4"/>
<linearGradient id="linearGradient25029-4" x1="12.021" x2="12.012" y1="7.2813" y2="-.72563" gradientUnits="userSpaceOnUse">
<stop style="stop-color:#4f5152" offset="0"/>
<stop style="stop-color:#010501" offset="1"/>
</linearGradient>
</defs>
<g transform="matrix(2.9675 0 0 2.9989 .019941 -.0015042)">
<path d="m1.2242 20.001v-18s0.023457-0.85555 0.77653-0.85555c0 0 9.7948-0.014237 9.9468 0l2.4893 1.8542 12.564 0.00149c3 0 3 3 3 3v14" style="fill:none;stroke-width:.34525;stroke:#000"/>
<path d="m2.0002 0.99966c-0.77656 0-0.77656 1-0.77656 1v20h28.776s5e-6 -9.6216 0-16c0-3-3.1212-3.2803-3.1212-3.2803l-12.691-0.076857-1.7782-1.3353c-0.26034-0.19459-0.47317-0.30754-0.82329-0.30754z" style="fill:url(#linearGradient6218-6);stroke-linecap:round;stroke-linejoin:bevel;stroke-width:.251;stroke:#000a00"/>
<path d="m1.278 19.054 0.037349-16.044 10.026 0.0287 0.65837-1.0386 1.6495 1.182h13.351c2.662 0 2.662 2.6617 2.662 2.6617v9" style="fill:none;stroke-width:.39565px;stroke:url(#linearGradient850-6)"/>
<path d="m14 2.6429v0.35716s8.6765-0.028469 13-5e-7l0.7982 0.080745s-0.49566-0.35848-0.9194-0.36105c-0.0032-1.93e-5 -12.879-0.076855-12.879-0.076855z" style="fill:url(#radialGradient6178-3-4);stroke-width:.33295"/>
<path d="m0.99798 6.9973v20s0 3 3 3c0 0 19.668 5.4e-4 24 0 3-3.51e-4 3-3 3-3 2.25e-4 -4.3303 0-16 0-16s0-0.99998-1-0.99998c0 0-9.8034 0-13.425-2-1.9089-1.054-3.0486-1.7447-4.0207-1.7447h-10.574c-1 0-0.97931 0.74471-0.97931 0.74471z" style="fill:none;stroke-linejoin:round;stroke-width:.66752;stroke:#000"/>
<path d="m0.85839 26.894s0.1312 3.104 3.1393 3.104c4.7341 4.99e-4 19.669 0 24 0 3 0 3-3 3-3v-16c0-1-1-1-1-1s-10.387 0.00579-14-2c-2.7549-1.5295-3-2-4-2h-10c-1 0-1 1-1 1z" style="fill:url(#linearGradient2676-9);stroke-linejoin:round;stroke-width:.64136;stroke:url(#linearGradient2684-5)"/>
<path class="ColorScheme-Highlight" d="m1.2234 2 1.1e-6 1h9.7765v-1.8559l-8.7765-1.2e-6c-1 1.2e-6 -1 0.8559-1 0.8559z" style="fill:currentColor;mix-blend-mode:normal;stroke-width:.5"/>
<path d="m2.2234 1.1216c-1 0-1 0.6233-1 0.87805v1.0102h9.7765s1.0444-1.3506 1-1.6128c-0.13862-0.25456-0.7189-0.27554-1-0.27554z" style="color:#3daee9;fill:url(#linearGradient25155-0);stroke-width:.345;stroke:url(#linearGradient2)"/>
<path d="m2.2234 1.3899c-1 0-1 0.6233-1 0.87805v0.74205h9.8595s0.5933-0.8606 0.9172-1.3677c-0.16569-0.20501-0.7189-0.25239-1-0.25239z" style="color:#3daee9;fill:none;stroke-width:.345;stroke:url(#linearGradient2)"/>
</g>
<path d="m28.493 49.549c-8.8534 0-16.032 7.1459-16.032 15.961 0 8.8153 7.1784 15.961 16.032 15.961 8.8535 0 16.032-7.1459 16.032-15.961 0-8.8153-7.1784-15.961-16.032-15.961zm0.07685 2.2105c7.6284 0 13.817 6.1568 13.817 13.751 0 7.5948-6.1899 13.751-13.817 13.751-4.119 0-7.8151-1.7973-10.345-4.6443 1.0404-0.80392 2.781-0.60778 4.9247-0.36449 1.0273 0.11625 2.1984 0.24945 3.4071 0.27629 3.377 0.01941 7.0104-0.59408 9.253-1.5697 1.4498-0.63304 2.3781-1.0499 2.9583-1.5756 0.20924-0.17092 0.31909-0.45633 0.43108-0.75248l0.07675-0.19991c0.094-0.23921 0.22887-0.75398 0.28933-1.0347 0.02693-0.1229 0.04044-0.25498-0.04731-0.32334l-0.31296 0.05875c-0.98399 0.58748-3.4424 1.7064-5.7455 1.7519-2.8539 0.05949-8.6059-2.8603-9.2058-3.1687l-0.05904-0.07058c-0.1438-0.34175-1.0046-2.3763-1.1869-2.8042 4.1403 2.7144 7.5729 4.2168 10.204 4.4503 2.925 0.25874 5.2066-1.3312 6.1824-2.0106 0.19043-0.12932 0.33598-0.23082 0.39563-0.2528l0.06482-0.10584c-0.16174-1.0236-1.6964-5.9768-2.852-7.1664-0.3204-0.32628-0.57511-0.64381-1.0924-0.94652-4.1828-2.4272-14.114-3.889-14.579-3.9565l-0.07676 0.02345-0.02948 0.06452s-0.03726 2.0532-0.04145 2.281c-0.3408-0.1122-1.3976-0.45674-2.9111-0.87009 1.9749-2.4329 5.0014-4.5914 10.298-4.5914zm3.6493 7.2781c0.07063-0.0011 0.14162-0.0019 0.21258 0 2.3431 0.08371 4.184 2.0486 4.1039 4.3798-0.04169 1.1278-0.51927 2.1697-1.3463 2.9395-0.82952 0.7738-1.9077 1.1771-3.0469 1.1405-2.339-0.08695-4.1799-2.0519-4.1039-4.3798 0.04003-1.1294 0.52024-2.178 1.3522-2.9454 0.7769-0.72541 1.7713-1.1188 2.8285-1.1346zm-0.11227 1.2463c-0.68242 0.04133-1.3264 0.31719-1.8305 0.7878-0.57451 0.537-0.91352 1.2641-0.93885 2.0517-0.05402 1.6274 1.2251 2.9968 2.858 3.057 0.79358 0.02452 1.5463-0.25236 2.1258-0.78776 0.5778-0.53947 0.91437-1.2732 0.93886-2.0576 0.05461-1.6298-1.2302-2.9942-2.8639-3.0512-0.09891-0.0031-0.19184-0.0049-0.28933 0zm0.77946 1.4756c0.72571 0 1.3109 0.39264 1.3109 0.87596 0 0.4809-0.58516 0.87596-1.3109 0.87596-0.7282 0-1.3168-0.3959-1.3168-0.87596 0-0.48331 0.5886-0.87596 1.3168-0.87596z" style="color:#4d4d4d;fill-rule:evenodd;fill:#646464"/>
</svg>
