<?xml version="1.0" encoding="UTF-8" standalone="no"?>
<svg
   viewBox="0 0 96 96"
   version="1.1"
   id="svg12"
   width="96"
   height="96"
   xmlns:xlink="http://www.w3.org/1999/xlink"
   xmlns="http://www.w3.org/2000/svg"
   xmlns:svg="http://www.w3.org/2000/svg">
  <defs
     id="defs3051">
    <linearGradient
       id="linearGradient25153">
      <stop
         style="stop-color:#1b1b1b;stop-opacity:1"
         offset="0"
         id="stop25149" />
      <stop
         style="stop-color:#090909;stop-opacity:0.24540505"
         offset="0.49971318"
         id="stop1797" />
      <stop
         style="stop-color:#010101;stop-opacity:0.23888743"
         offset="0.9430303"
         id="stop2247" />
      <stop
         style="stop-color:#000000;stop-opacity:0.8012926"
         offset="1"
         id="stop25151" />
    </linearGradient>
    <linearGradient
       id="linearGradient14607">
      <stop
         style="stop-color:#4f5152;stop-opacity:1"
         offset="0"
         id="stop14603" />
      <stop
         style="stop-color:#010501;stop-opacity:1"
         offset="1"
         id="stop14605" />
    </linearGradient>
    <style
       type="text/css"
       id="current-color-scheme">
      .ColorScheme-Highlight {
        color:#3daee9;
      }
      </style>
    <filter
       height="1.0449693"
       y="-0.026935052"
       width="1.0344187"
       x="-0.017208866"
       id="filter940"
       style="color-interpolation-filters:sRGB">
      <feGaussianBlur
         id="feGaussianBlur942"
         stdDeviation="0.28795822" />
    </filter>
    <linearGradient
       gradientTransform="matrix(1.0005668,0,0,0.8509446,-0.23612742,72.315207)"
       gradientUnits="userSpaceOnUse"
       y2="492.39743"
       x2="437.78555"
       y1="555.7431"
       x1="408.33118"
       id="linearGradient6218"
       xlink:href="#linearGradient42869" />
    <linearGradient
       id="linearGradient42869">
      <stop
         style="stop-color:#353a3f;stop-opacity:0.99607843"
         offset="0"
         id="stop42865" />
      <stop
         style="stop-color:#272727;stop-opacity:0.98876405"
         offset="1"
         id="stop42867" />
    </linearGradient>
    <filter
       height="1.0667278"
       y="-0.033363852"
       width="1.0561312"
       x="-0.028065609"
       id="filter2714"
       style="color-interpolation-filters:sRGB">
      <feGaussianBlur
         id="feGaussianBlur2716"
         stdDeviation="0.56332734" />
    </filter>
    <linearGradient
       gradientUnits="userSpaceOnUse"
       y2="539.64374"
       x2="414.83517"
       y1="501.65286"
       x1="415.07861"
       id="linearGradient850"
       xlink:href="#linearGradient848" />
    <linearGradient
       id="linearGradient848">
      <stop
         id="stop844"
         offset="0"
         style="stop-color:#57595a;stop-opacity:0.99607843" />
      <stop
         id="stop846"
         offset="1"
         style="stop-color:#000000;stop-opacity:0.42696628" />
    </linearGradient>
    <filter
       height="1.03215"
       y="-0.025901777"
       width="1.0283593"
       x="-0.01417968"
       id="filter2706"
       style="color-interpolation-filters:sRGB">
      <feGaussianBlur
         id="feGaussianBlur2708"
         stdDeviation="0.140357" />
    </filter>
    <radialGradient
       gradientUnits="userSpaceOnUse"
       gradientTransform="matrix(-1.0705868e-4,0.04846987,-1.0235483,-0.0023723,538.49225,-12.44815)"
       r="11.24949"
       fy="485.79099"
       fx="397.99051"
       cy="485.79099"
       cx="397.99051"
       id="radialGradient6178-3"
       xlink:href="#linearGradient880" />
    <linearGradient
       id="linearGradient880">
      <stop
         style="stop-color:#d8dbd8;stop-opacity:1"
         offset="0"
         id="stop876" />
      <stop
         style="stop-color:#272727;stop-opacity:0.98876405"
         offset="1"
         id="stop878" />
    </linearGradient>
    <filter
       height="1.0707442"
       y="-0.035372174"
       width="1.0508627"
       x="-0.025431326"
       id="filter1073"
       style="color-interpolation-filters:sRGB">
      <feGaussianBlur
         id="feGaussianBlur1075"
         stdDeviation="0.39283137" />
    </filter>
    <linearGradient
       gradientUnits="userSpaceOnUse"
       y2="506.87347"
       x2="414.47186"
       y1="539.61627"
       x1="406.45694"
       id="linearGradient2676"
       xlink:href="#linearGradient2668" />
    <linearGradient
       id="linearGradient2668">
      <stop
         id="stop2664"
         offset="0"
         style="stop-color:#1a1b1b;stop-opacity:1" />
      <stop
         id="stop2666"
         offset="1"
         style="stop-color:#474747;stop-opacity:1" />
    </linearGradient>
    <linearGradient
       gradientUnits="userSpaceOnUse"
       y2="505.62521"
       x2="404.77097"
       y1="530.01428"
       x1="395.58017"
       id="linearGradient2684"
       xlink:href="#linearGradient2682" />
    <linearGradient
       id="linearGradient2682">
      <stop
         id="stop2678"
         offset="0"
         style="stop-color:#000000;stop-opacity:1;" />
      <stop
         id="stop2680"
         offset="1"
         style="stop-color:#c3c3c3;stop-opacity:0" />
    </linearGradient>
    <filter
       height="1.0397525"
       y="-0.019876304"
       width="1.0307531"
       x="-0.015376566"
       id="filter2690"
       style="color-interpolation-filters:sRGB">
      <feGaussianBlur
         id="feGaussianBlur2692"
         stdDeviation="0.13069192" />
    </filter>
    <filter
       style="color-interpolation-filters:sRGB"
       id="filter24684"
       x="-0.024959943"
       y="-0.15409672"
       width="1.0499199"
       height="1.3081934">
      <feGaussianBlur
         stdDeviation="0.21554955"
         id="feGaussianBlur24686" />
    </filter>
    <linearGradient
       xlink:href="#linearGradient14607"
       id="linearGradient25029"
       gradientUnits="userSpaceOnUse"
       x1="12.020759"
       y1="7.2813473"
       x2="12.011944"
       y2="-0.7256338" />
    <linearGradient
       xlink:href="#linearGradient25153"
       id="linearGradient25155"
       x1="21.812489"
       y1="3.9335968"
       x2="4.6537294"
       y2="4.034317"
       gradientUnits="userSpaceOnUse" />
    <filter
       style="color-interpolation-filters:sRGB"
       id="filter30328"
       x="-0.060622242"
       y="-0.37427998"
       width="1.121405"
       height="1.7485472">
      <feGaussianBlur
         stdDeviation="0.2547727"
         id="feGaussianBlur30330" />
    </filter>
  </defs>
  <path
     transform="matrix(1.4625178,0,0,1.4897513,-561.93053,-721.11731)"
     id="path6220-2"
     d="m 386.25703,524.61791 0.77838,-38.71157 22.03057,0.10242 3.50545,3.40716 c 0,0 18.10956,0.35097 27.33843,0.35097 2.88877,0 6.71919,2.18928 6.71919,7.16894 0,13.1364 0.12174,26.49022 0.12174,26.49022"
     style="display:inline;fill:none;fill-opacity:1;stroke:#000000;stroke-width:0.7;stroke-linecap:butt;stroke-linejoin:miter;stroke-miterlimit:4;stroke-dasharray:none;stroke-opacity:1;filter:url(#filter940)" />
  <path
     transform="matrix(1.4657086,0,0,1.4901074,-562.01583,-720.90146)"
     d="m 386.39384,486.19622 c 0,0 -0.10293,36.25523 -0.10293,49.28612 0,1.03908 0.48232,1.87652 1.08144,1.87652 h 58.39816 c 0.59911,0 1.34832,-0.83745 1.34161,-1.87652 0,0 -0.0268,-27.28049 -0.0268,-40.09035 0,-3.00572 -3.75125,-6.05898 -6.82146,-6.05898 -9.03444,0 -27.69471,-0.22684 -27.69471,-0.22684 l -4.13226,-2.8228 z"
     id="rect4180"
     style="display:inline;fill:url(#linearGradient6218);fill-opacity:1;stroke:#000a00;stroke-width:0.71;stroke-linecap:round;stroke-linejoin:bevel;stroke-miterlimit:4;stroke-dasharray:none;stroke-opacity:1;filter:url(#filter2714)" />
  <path
     transform="matrix(1.4707104,0,0,0.95331361,-565.16936,-458.07687)"
     id="path6220"
     d="m 387.04904,540.31904 0.076,-50.36617 20.73641,0.0901 1.41588,-3.75705 2.94655,4.20719 c 0,0 17.40991,0.34184 27.40616,0.34184 3.61218,0 6.32049,4.0507 6.32049,8.9451 0,12.76833 0.1165,38.20486 0.1165,38.20486"
     style="display:inline;fill:none;fill-opacity:1;stroke:url(#linearGradient850);stroke-width:1px;stroke-linecap:butt;stroke-linejoin:miter;stroke-opacity:1;filter:url(#filter2706)" />
  <path
     d="m 27.921427,5.4393704 v 0.380281 h 0.44553 l 25.49468,0.167876 h 0.44553 l -0.5452,-0.548167 h -0.44553 -24.94948 z"
     id="path4151-2-3-5"
     style="display:inline;fill:url(#radialGradient6178-3);fill-opacity:1;stroke-width:0.665905"
     transform="matrix(1.4963664,0,0,1.4963664,0.23365783,0.002518)" />
  <path
     transform="matrix(1.4669355,0,0,1.6174711,-562.6651,-790.27921)"
     style="display:inline;fill:none;fill-opacity:1;stroke:#000000;stroke-width:1.29693;stroke-linejoin:round;stroke-miterlimit:4;stroke-dasharray:none;stroke-opacity:1;filter:url(#filter1073)"
     id="path952"
     d="m 385.15633,501.64377 c 0,13.8136 0.0547,36.33599 0.0547,39.23108 0,2.8951 4.24366,4.43675 7.16501,4.43675 9.65801,10e-4 39.7482,-0.008 48.58578,-0.009 2.73024,-2.9e-4 6.73958,-3.06897 6.73961,-5.5723 4.6e-4,-8.01206 0.0257,-31.8933 0.0257,-31.8933 -21.39075,-0.31416 -23.00468,-0.49626 -28.48106,-3.68616 -5.47637,-3.18989 -6.84254,-3.7889 -8.06758,-3.79572 -8.19718,-0.0456 -25.32423,-0.0254 -25.32423,-0.0254 0,0 -0.68932,-0.094 -0.698,1.31379 z" />
  <path
     transform="matrix(1.4669355,0,0,1.4931594,-562.26744,-723.97907)"
     style="display:inline;fill:url(#linearGradient2676);fill-opacity:1;stroke:url(#linearGradient2684);stroke-width:1.29693;stroke-linejoin:round;stroke-miterlimit:4;stroke-dasharray:none;stroke-opacity:1;filter:url(#filter2690)"
     id="path952-7"
     d="m 385.15633,498.35321 c 0,13.8136 0.0547,28.03631 0.0547,40.41503 0,6.52543 4.5187,6.67224 7.29021,6.67224 9.65801,10e-4 38.73653,0 47.57411,0 4.29557,0 7.62608,-4.19689 7.62608,-7.71933 4.6e-4,-8.01206 0.0257,-32.38987 0.0257,-32.38987 -22.81136,0 -23.57647,-0.13663 -31.18143,-4.28484 -5.62028,-3.06564 -5.63216,-3.98161 -7.35295,-3.98161 -8.19718,-0.0456 -23.33849,-0.0254 -23.33849,-0.0254 0,0 -0.68932,-0.094 -0.698,1.31379 z" />
  <path
     style="display:inline;mix-blend-mode:normal;fill:currentColor;stroke:none;stroke-width:0.390115;stroke-miterlimit:4;stroke-dasharray:none;filter:url(#filter24684)"
     d="M 3.1185124,2.3943988 C 2.9060465,2.5755409 2.8406898,2.662737 2.8406898,3.1723004 c 0,0.7470828 0.00654,2.4587688 0.00654,2.4587688 H 22.075746 l 0.993727,-1.6353471 c 0,0 0.682408,-0.9793708 0.44826,-1.410869 -0.123324,-0.2272669 -0.513311,-0.2662912 -1.075516,-0.2662912 -0.820732,0 -18.1692197,-0.041813 -18.4326201,-0.041813 0,0 -0.7160982,-0.031538 -0.8910845,0.1176499 z"
     class="ColorScheme-Highlight"
     id="path4"
     transform="matrix(1.4963664,0,0,1.4963664,0.23365783,0.002518)" />
  <path
     style="color:#3daee9;display:inline;fill:url(#linearGradient25155);fill-opacity:1;stroke:url(#linearGradient25029);stroke-width:1.29;stroke-miterlimit:4;stroke-dasharray:none;filter:url(#filter30328)"
     d="M 3.1185124,2.3943988 C 2.9060465,2.5755409 2.8406898,2.662737 2.8406898,3.1723004 c 0,0.7470828 0.00654,2.4587688 0.00654,2.4587688 H 22.075746 l 0.993727,-1.6353471 c 0,0 0.682408,-0.9793708 0.44826,-1.410869 -0.123324,-0.2272669 -0.513311,-0.2662912 -1.075516,-0.2662912 -0.820732,0 -18.1692197,-0.041813 -18.4326201,-0.041813 0,0 -0.7160982,-0.031538 -0.8910845,0.1176499 z"
     id="path4-0"
     transform="matrix(1.4963664,0,0,1.4963664,0.23365783,0.002518)" />
  <path
     style="color:#232629;display:inline;fill:#646464;fill-opacity:1;stroke:none;stroke-width:1.59967"
     d="m 28.493346,49.548896 c -0.641287,0 -1.122252,0 -1.603217,0 -1.122251,0.159613 -2.244503,0.319225 -3.206433,0.63845 -4.969971,1.596126 -8.978012,5.58644 -10.581228,10.53443 -0.320644,0.957675 -0.480965,2.074963 -0.641287,3.192251 0,0.478838 0,0.957675 0,1.596126 0,0.478837 0,1.117287 0,1.596125 0.160322,1.117288 0.320643,2.074963 0.641287,3.192251 1.603216,4.94799 5.611257,8.938304 10.581228,10.53443 0.96193,0.159612 2.084182,0.478837 3.206433,0.478837 0.480965,0.159613 0.96193,0.159613 1.603217,0.159613 0.480965,0 1.122252,0 1.603216,-0.159613 1.122252,0 2.084182,-0.319225 3.206433,-0.478837 0.96193,-0.319225 1.92386,-0.798063 2.88579,-1.276901 3.527076,-2.074963 6.412866,-5.267214 7.695439,-9.257529 0.160322,-1.117288 0.480965,-2.074963 0.480965,-3.192251 0.160322,-0.478838 0.160322,-1.117288 0.160322,-1.596125 0,-0.638451 0,-1.117288 -0.160322,-1.596126 0,-1.117288 -0.320643,-2.234576 -0.480965,-3.192251 -0.641286,-1.915351 -1.763538,-3.830702 -3.014047,-5.426828 -0.352707,-0.319225 -0.673351,-0.63845 -1.154316,-1.117288 -1.282573,-1.436513 -3.046111,-2.553801 -4.969971,-3.351863 -0.480965,-0.159613 -0.96193,-0.478838 -1.442895,-0.638451 -1.122251,-0.319225 -2.084181,-0.478837 -3.206433,-0.63845 -0.480964,0 -1.122251,0 -1.603216,0 z m 0,1.596126 c 2.404825,0 4.649328,0.63845 6.733509,1.596125 0,0 0,0.159613 0.160322,0.143652 0,0.01596 0,0.175573 0.06413,0.175573 0.09619,0 0.09619,0 0.09619,0.07981 0.160321,0.07981 0.160321,0.07981 0.160321,0.199515 0,0.0399 -0.160321,0.0399 -0.256514,0.199516 -0.06413,0.159613 -0.06413,0.159613 -0.06413,0.25538 0,0.06385 0,0.06385 0.06413,0.143652 -0.06413,0.07981 -0.06413,0.07981 -0.06413,0.239418 0.160322,0.159613 0.320643,0 0.480965,0 0.320643,-0.159612 0.480965,0 0.641286,-0.159612 0,-0.159613 0.160322,-0.159613 0.256515,-0.319225 0.06413,0.159612 0.22445,0.159612 0.288579,0.319225 -0.06413,0 -0.22445,0 -0.22445,0.06385 -0.160322,0.09577 -0.160322,0.09577 -0.320644,0.25538 0,0 0,0.143651 -0.160321,0.143651 -0.160322,0 -0.320643,-0.143651 -0.336676,-0.143651 -0.144289,0.159613 -0.144289,0.159613 -0.160321,0.319225 -0.14429,0.04964 -0.464933,-0.159612 -0.59319,0.07981 0.128257,0.165359 0.288579,0.07981 0.4489,0.199516 0.160322,0.0581 0.320644,0.359128 0.304611,0.454896 0.01603,0.07526 0.01603,0.38307 0,0.38307 -0.09443,0.319225 -0.337076,0.159613 -0.605214,0.159613 -0.07295,0 -0.180362,0.159612 -0.180362,0 -0.480965,0 -0.96193,0 -1.122251,0.25538 0.01443,0.223457 0,0.38307 0,0.542682 -0.04072,0.159613 -0.160322,0.319226 -0.200402,0.478838 0.0032,0 0.200402,0.159613 0.200402,0.319225 0,0 -0.160322,0 -0.0497,0.143652 0.07543,0.175573 0.210021,-0.01716 0.402407,0 0.126654,0.01596 0.288579,0.175573 0.288579,0.335186 0,0.121465 -0.160321,0.319225 -0.160321,0.478838 -0.108217,0.1316 -0.320644,0 -0.530665,0.191535 -0.110622,0.08499 -0.270944,0.287302 -0.270944,0.446915 -0.160321,0.159612 -0.320643,0.159612 -0.160321,0.478838 -0.151184,0.159612 -0.320644,0.319225 -0.577158,0.478837 -0.06413,0 -0.22445,0.159613 -0.240483,0.191535 -0.144289,0.03855 -0.144289,0.12769 -0.144289,0.191535 -0.160322,0.119151 -0.305349,0.255381 -0.360724,0.255381 -0.04088,0.06672 0.04008,0.159612 -0.05611,0.319225 -0.06413,0 -0.224451,0.159612 -0.224451,0.319225 -0.05788,0 -0.12962,0.159612 -0.176354,0.159612 -0.144289,0.218143 -0.144289,0.319226 -0.144289,0.478838 0,0.162166 0.160322,0.159613 0.144289,0.319225 0.01603,0.06959 -0.144289,0.159613 -0.144289,0.199516 0,0.119709 0.160322,0.119709 0.144289,0.279322 0.01603,0.159612 -0.103567,0.319225 -0.144289,0.478838 -0.02036,0.0097 0.01748,0.08455 0,0.143651 -0.03495,0.103429 -0.197484,0.167641 -0.160322,0.335186 -0.04329,0.05012 0.160322,0.131792 0.160322,0.159613 -0.04369,0.186747 -0.117676,0.267926 -0.160322,0.351147 0.09219,0.154745 0.38862,0.374946 0.51303,0.446916 0.164137,0.215253 0.32595,0.324715 0.399201,0.478837 0.0497,0.167913 0.08641,0.408497 0.193989,0.518741 0.0905,0.08124 0.248883,0.115448 0.336675,0.199516 0.122005,0.07837 0.262896,0.115336 0.320643,0.199516 0.227898,0.139341 0.468765,0.41935 0.751909,0.359128 0.148217,0.02873 0.284363,-0.03096 0.450504,0 0.171961,-0.0889 0.400804,-0.159613 0.545093,-0.159613 0.176354,0.01436 0.176354,0.108537 0.400805,0.159613 0.151744,-0.06784 0.340892,-0.137027 0.513029,-0.209093 0.282551,-0.125216 0.726594,-0.429357 1.1463,-0.269745 0.360723,0 0.360723,0.37659 0.553109,0.478838 0.254479,0.06305 0.445278,-0.0094 0.649303,0 0.15455,0.07757 0.33613,0.366981 0.344692,0.488414 0.02044,0.150036 -0.06413,0.150036 -0.06413,0.293687 -0.07078,0.174249 -0.101243,0.397436 -0.128257,0.504376 -0.02525,0.08451 -0.05499,0.165662 -0.03207,0.309649 0,0.01564 0.10158,0.190657 0.180362,0.319225 0.140282,0 0.234118,0.185773 0.300603,0.319225 0.26288,0.24368 0.352355,0.575786 0.480965,0.957675 0.05788,0.02139 -0.01491,0.0381 0,0.143651 -0.04409,0.483403 -0.210454,0.803139 -0.530664,1.292862 -0.110622,0.223937 -0.303922,0.430858 -0.270944,0.648027 -0.04128,0.522588 0.243769,0.792461 0.160322,1.299247 0.0077,0.676853 0.0626,0.782596 0.0096,1.085365 0.230671,0.175893 0.117516,0.517368 -0.0096,0.798063 -0.03896,0.247288 -0.135007,0.317294 -0.160322,0.51076 0.08948,0.04948 0.189641,0.06238 0.320643,0.04788 -2.62206,2.717276 -6.334898,4.389345 -10.420907,4.389345 -1.912636,0 -3.740513,-0.374625 -5.450936,-1.053443 0.03447,0.0037 0.04568,-0.04163 0,-0.04389 0.191584,-0.06385 0.480436,0.112048 0.591587,-0.09976 0.05507,-0.101513 -0.07335,-0.297486 0,-0.399031 0.05202,-0.06959 0.392772,-0.132239 0.530664,-0.150036 0.12449,-0.02578 0.283305,0.0057 0.320644,-0.0096 0.146293,-0.100875 0.267993,-0.259067 0.256514,-0.478838 -0.01395,-0.04421 -0.08946,-0.08421 -0.09619,-0.159612 -0.115431,-0.06385 -0.07239,-0.141465 -0.160321,-0.199516 -0.0198,-0.101513 -0.121155,-0.151217 -0.150703,-0.279322 0.210262,-0.06049 0.498889,0.213865 0.801609,0.159613 0.143247,-0.07063 0.384259,-0.345402 0.471345,-0.478838 3.21e-4,-0.0407 -0.04329,-0.199994 0,-0.25538 0.0063,-0.04908 0.07134,-0.06488 0.08016,-0.06385 0.02036,-0.108297 -0.01748,-0.130404 0,-0.175574 0.05242,-0.151951 0.213148,-0.245803 0.240483,-0.352744 0.127135,-0.08164 0.199231,-0.165662 0.320643,-0.249793 0.0098,-0.09002 0.04369,-0.121066 0.09619,-0.179564 0.03776,-0.283951 -0.170342,-0.48618 -0.112225,-0.718257 0.07591,-0.261094 0.453854,-0.429725 0.657318,-0.549067 0.137476,-0.0403 0.227737,-0.123221 0.320644,-0.149238 0.154838,-0.06097 0.367842,-0.04182 0.480965,-0.09976 0.32409,-0.09864 0.417012,-0.398951 0.545093,-0.654411 0.07014,-0.110053 0.14461,-0.209157 0.09619,-0.287303 0.07134,-0.08148 0.04569,-0.168295 0,-0.25538 0.07455,-0.08699 0.08697,-0.153659 0.160322,-0.25538 -0.01763,-0.118832 0,-0.353558 0,-0.542683 0,-0.06616 -0.04721,-0.09508 0,-0.159612 -0.07046,-0.417036 0.06052,-0.432487 0.200402,-0.638451 0.0699,-0.101513 0.100923,-0.27664 0.152306,-0.319225 0.234085,-0.378058 0.628348,-0.549402 0.59319,-1.117288 -0.0053,-0.13417 -0.0662,-0.503514 -0.193989,-0.558644 -0.07335,-0.03192 -0.243257,-0.0094 -0.351105,-0.04788 -0.343938,-0.129286 -0.593414,-0.521661 -0.945898,-0.51076 -0.08184,-0.04309 -0.12186,-0.03671 -0.256514,0 -0.08986,-0.04309 -0.243417,-0.172142 -0.400804,-0.159612 -0.09908,-0.0411 -0.292411,-8.78e-4 -0.400805,0 -0.04032,-0.0735 -0.02742,-0.230002 -0.160321,-0.319225 0.0018,-7.99e-4 -0.100041,-0.02793 -0.160322,0 -0.172907,-0.114922 -0.264723,-0.147961 -0.480965,-0.159613 -0.0022,-0.0032 -0.142157,0.008 -0.200402,0 -0.09042,-0.01436 -0.165981,-0.09744 -0.248498,-0.150036 -0.106855,-0.06385 -0.158687,-0.109159 -0.208419,-0.169189 0.102206,-0.343247 -0.230863,-0.395839 -0.294991,-0.63845 -0.02878,-0.02426 0.02958,-0.163986 0,-0.239419 -0.03743,-0.10742 -0.130582,-0.159485 -0.250102,-0.25538 -0.20985,-0.156468 -0.401178,-0.30545 -0.701396,-0.34315 -0.134029,-0.01437 -0.290599,0.01117 -0.501006,0 -0.118942,-0.01117 -0.322663,-0.104371 -0.4489,-0.2474 -0.12449,-0.14421 -0.144674,-0.284429 -0.192386,-0.351147 -0.162085,-0.06385 -0.340876,-0.08308 -0.416836,-0.150036 -0.02605,-0.02865 -0.01491,-0.08268 -0.04409,-0.16919 -0.05242,-0.08459 -0.16433,-0.101864 -0.100201,-0.223457 -0.116554,-0.06409 -0.07508,0.0672 -0.200402,0.04788 -0.113668,-0.159613 -0.194422,-0.252827 -0.456917,-0.143652 -0.110541,-0.03671 -0.207696,0.136772 -0.384772,0.143652 -0.07359,-7.99e-4 -0.161973,-0.183204 -0.311024,-0.143652 -0.113267,-0.07422 -0.271601,0.0573 -0.330262,0 -0.145412,0.01676 -0.156939,-0.133931 -0.320644,-0.209092 -0.03439,-0.05563 -0.203865,-0.202804 -0.256514,-0.2059 -0.13972,0.0091 -0.243785,0.31284 -0.384772,0.2059 -0.159199,-0.125216 0.10663,-0.133819 -0.01603,-0.249794 -0.08136,-0.08699 -0.124394,0.0035 -0.193989,0.04389 -0.082,0.06105 -0.160563,0.123859 -0.250904,0.09577 -0.201123,0.135352 -0.343617,0.128408 -0.501005,0.159613 -0.145732,0.125375 -0.165981,0.25107 -0.256515,0.399031 -0.061,0.121944 -0.192578,0.293464 -0.288579,0.239419 -0.128497,0.06784 -0.245949,-0.09326 -0.416836,-0.159613 -0.275064,-0.125136 -0.464596,0.116837 -0.801608,0.159613 -0.196378,-0.03671 -0.552741,-0.447522 -0.480965,-0.68793 -0.05211,-0.14836 0.02261,-0.366311 0,-0.549067 0.05451,-0.145088 0.187656,-0.26558 0.192386,-0.359129 0.0012,-0.216865 -0.286222,-0.368737 -0.402407,-0.38307 -0.274391,-0.0399 -0.640437,0.115959 -0.912231,0 -0.09844,-0.104626 0.07527,-0.159628 0.160322,-0.25538 -0.02974,-0.05507 -0.07046,-0.08866 0,-0.150036 -0.01523,-0.09249 0.106598,-0.150355 0.144289,-0.248995 0.03808,-0.0755 0.02405,-0.206427 0.05611,-0.399032 0.03784,-0.0048 0.141484,-0.0742 0.152306,-0.150036 0.0093,-0.09824 -0.07375,-0.235045 -0.152306,-0.296879 -0.241925,0.01245 -0.411193,0.03456 -0.521045,0.12769 -0.344836,0.112288 -0.263457,0.519874 -0.641287,0.63845 -0.04778,0.01484 -0.218262,0.05954 -0.320643,0.07981 0.187276,-1.044304 0.510549,-2.043115 0.96193,-2.992736 0.08072,0.02027 0.174366,0.09098 0.320643,0.0399 0.218053,0.08013 0.229372,-0.12338 0.480965,-0.239419 0.197292,0.03192 0.314102,-0.02314 0.480965,0 0.180041,0.01436 0.380235,0.190817 0.490584,0.199516 0.09371,0.0032 0.113348,-0.114283 0.150702,-0.09976 0.137476,0.01436 0.28603,0.194823 0.320644,0.299274 -0.0056,0.130563 -0.108137,0.253975 -0.06413,0.399031 0.131063,0.139342 0.399906,0.218047 0.545094,0.239419 0.178358,-0.04469 0.07046,-0.288069 0,-0.478838 0.04689,-0.02681 0.05772,-0.09858 0,-0.159612 0.03567,-0.104387 0,-0.209348 0,-0.299274 0,-0.414849 0.321397,-0.585714 0.641286,-0.754169 0.07936,-0.06361 0.205693,-0.191184 0.304611,-0.239419 0.154631,-0.07661 0.234295,-0.08404 0.356716,-0.159613 0.221501,-0.118831 0.429229,-0.250879 0.605214,-0.399031 0.07471,-0.182565 -0.01202,-0.4069 0,-0.542683 0.07471,-0.0992 0.111953,-0.0419 0.176354,0 0.154069,-0.07893 0.194743,-0.273735 0.270944,-0.319225 0.04337,-0.0735 0.19758,-0.08627 0.250102,-0.12769 0.134028,-0.106541 0.133868,-0.254837 0.280562,-0.351148 0.0109,0.03551 0.106133,0.0174 0.169941,0 0.08794,-0.02314 0.211208,-0.100476 0.311024,-0.150035 0.130502,-0.03192 0.355802,-0.01469 0.384772,-0.04948 0.04978,-0.04357 -0.0053,-0.23254 0,-0.279322 0.07591,-0.347764 0.563339,-0.358602 0.857721,-0.469261 0.204026,-0.07797 0.423955,-0.242643 0.681367,-0.16919 -0.07383,0.126653 -0.268362,0.08075 -0.22445,0.319226 0.04353,0.21412 0.351617,-0.111969 0.384772,-0.150036 0.237917,-0.0751 0.57844,-0.114937 0.811227,-0.16919 0.204427,-0.102391 0.543459,-0.243856 0.311024,-0.478837 -0.120241,-0.01117 -0.170726,0.14148 -0.311024,0.159612 -0.169941,0.05427 -0.118445,-0.0043 -0.169941,-0.01596 -0.108778,0.0029 -0.15168,0.07039 -0.22445,0.01596 -0.08473,0.02554 -0.194759,-0.11666 -0.256515,-0.209092 0.01804,-0.24408 0.301726,-0.319321 0.400805,-0.493203 -0.06701,-0.226474 -0.364572,-0.01875 -0.551507,-0.111729 0.02076,-0.124577 0.09643,-0.267159 0.150702,-0.293687 0.225573,-0.01987 0.525423,0.03982 0.601207,0.150036 0.04377,-0.01229 -0.01677,0.08858 0.0497,0.143651 0.07623,0.0727 0.201909,0.02035 0.294992,0 0.04096,-0.159373 -0.223536,-0.08619 -0.193989,-0.143651 0.197789,-0.17717 0.559282,-0.118113 0.851308,-0.150036 0.08986,-0.01987 0.225364,-0.132351 0.352708,-0.169189 0.114549,-0.09665 0.226278,-0.190115 0.288579,-0.07981 0.09507,0.118911 -0.02333,0.18847 -0.09619,0.248995 -0.218423,0.197664 -0.420316,0.419653 -0.545094,0.648825 0.0578,0.104546 0.22009,0.02961 0.400804,0.04389 0.0699,0.01436 0.17762,0.04437 0.250102,0.05586 0.08794,0.01436 0.180939,-0.01436 0.311024,0 0.06236,0.02905 0.06798,0.199516 0.192386,0.199516 0.196202,0 0.211945,-0.165822 0.128257,-0.299274 0.0048,-0.136469 0.06974,-0.253401 0,-0.355138 -0.07038,-0.173882 -0.413373,0.03558 -0.480965,-0.143651 0.03888,-0.194967 0.198014,-0.238892 0.256515,-0.319225 -0.02926,-0.30842 0.223536,-0.3262 0.22445,-0.63845 -0.04449,-0.04469 -0.157564,-0.04112 -0.22445,-0.139661 -0.04385,-0.05219 -0.06261,-0.1618 -0.112225,-0.179565 -0.145492,-0.147641 -0.427402,-0.125391 -0.444893,-0.368705 -0.008,-0.145486 0.02036,-0.242786 0,-0.397435 -0.02036,-0.149956 -0.17241,-0.571525 -0.300603,-0.606528 -0.163223,-0.02881 -0.255617,0.265213 -0.456917,0.414993 -0.09884,-0.01053 -0.286959,0.01038 -0.400804,-0.01596 -0.06389,-0.0085 -0.185636,-0.06017 -0.193989,-0.193131 -0.0077,-0.07725 0.01738,-0.104547 0.0497,-0.150036 0.0075,-0.01069 -0.0079,-0.03861 0,-0.05587 1.268134,-0.35686 2.622694,-0.542682 4.008041,-0.542682 z m -5.931901,1.2769 c -0.172293,0.473429 -0.584021,0.732307 -1.138284,0.718257 -0.128017,0.12769 -0.0715,0.371689 -0.144289,0.542682 -0.06124,0.153947 -0.25217,0.267 -0.400804,0.255381 -0.107897,-0.008 -0.400805,-0.147866 -0.400805,-0.255381 0,-0.07722 0.181021,-0.171221 0.200403,-0.303263 0.590055,-0.319976 1.208628,-0.645509 1.883779,-0.957676 z m 12.184445,0.518741 c 0.0064,0.0096 -0.04289,0.02227 -0.09619,0.05586 -0.10477,0.06073 -0.109836,0.161624 -0.192386,0.223458 -0.121443,0.01357 -0.285116,0.01245 -0.352707,0.119709 0.03567,0.09002 0.153347,0.118305 0.144289,0.199516 -0.03776,0.107419 -0.120882,0.118752 -0.144289,0.25538 0.148618,0.234806 0.517791,-0.0035 0.641286,-0.09577 0.141725,0.01676 0.216803,0.05323 0.160322,-0.01596 0.14974,-0.07238 0.112466,-0.232922 0.144289,-0.343167 0.0469,-0.121944 0.170903,-0.09219 0.176354,-0.199515 -0.03126,-0.10742 -0.240129,-0.216914 -0.480965,-0.199516 z m -15.871843,1.875448 c 0.156971,0.0985 0.246432,0.285061 0,0.319225 0.02092,0.06424 -0.330856,0.114282 -0.400804,0.159612 -0.02171,-0.06292 -0.03062,-0.09626 -0.0481,-0.159612 0.151216,-0.09829 0.33931,-0.207825 0.448901,-0.319225 z m 0.480965,0.462876 c 0.03984,0.0091 0.08867,0.149876 0.169941,0.159613 0.07912,0.0024 0.204186,-0.06839 0.311024,-0.04788 0.06236,0.02554 0.10663,0.253225 -0.01603,0.38307 -0.09018,-0.02873 -0.124538,-0.154186 -0.193989,-0.159613 -0.198607,0.05475 -0.252555,0.430587 -0.399201,0.319226 -0.141965,0.08539 -0.2451,-0.197728 -0.09619,-0.319226 -0.0029,-0.0672 -0.06205,-0.09249 -0.05611,-0.175573 0.04377,-0.05906 0.133853,-0.162247 0.280563,-0.159613 z m -0.641287,0.111729 c 8.02e-4,0 -0.0045,-0.02338 0.0096,0 -0.01996,0.147721 -0.08061,0.170881 -0.169941,0.223457 -0.237004,0.144769 -0.363818,0.301716 -0.480965,0.574606 0.02974,0.07238 -0.201509,0.313575 -0.300603,0.287302 -0.23027,-0.04333 0.09788,-0.475964 0.1499,-0.542682 0.05876,-0.07262 0.133837,-0.118194 0.150703,-0.159613 0.117115,-0.121146 0.136433,-0.292761 0.160321,-0.335186 0.109981,-0.05331 0.318479,-0.05978 0.480965,-0.04788 z m 19.719563,0.392647 c 0.210214,-0.01389 0.325934,0.260168 0.431266,0.405416 0.08697,0.10718 0.357757,0.264829 0.530664,0.343167 0.05154,0.04357 0.130085,0.109095 0.160322,0.150036 0.154838,0.04166 0.29896,0.09681 0.416836,0.193131 0.105861,0.108297 0.190013,0.262307 0.22445,0.335186 -0.02685,0.112846 -0.09475,0.18231 -0.08016,0.319225 0.10097,-0.03352 0.153347,-0.13583 0.200402,-0.25538 0.37778,0.542488 0.699514,1.115041 1.00201,1.70147 -0.06137,0.03824 -0.08778,0.07527 -0.160322,0.150036 0.03094,0.162454 0.154631,0.37003 -0.09619,0.399031 -0.148377,0.02027 -0.33233,-0.153164 -0.545093,-0.199515 -0.08738,-0.02027 -0.230655,0.02314 -0.300603,0 -0.160322,-0.05507 -0.113492,-0.253417 -0.244491,-0.349552 -0.08473,-0.05483 -0.281477,-0.134873 -0.407217,-0.169189 -0.07832,0.01197 -0.118462,0.03112 -0.169941,0 -0.129139,0.0088 -0.29916,0.01939 -0.320643,0 -0.138839,-0.07925 -0.340315,-0.162661 -0.360724,-0.223458 -0.03206,-0.113405 0.244683,-0.265196 0.200402,-0.414992 0.05651,-0.0097 -0.03551,-0.03523 -0.0497,-0.139661 -0.01154,-0.06385 0.01395,-0.158879 0,-0.179565 -0.02076,-0.09545 -0.131432,-0.166715 -0.250904,-0.175573 -0.105011,0 -0.210246,0.05586 -0.300603,0.05586 -0.128257,0.0032 -0.3908,-0.0644 -0.521045,-0.05586 -0.126254,0.01437 -0.190206,0.05012 -0.320644,0.05586 -0.2135,0.02027 -0.36292,-0.01436 -0.561125,0 -0.142847,0.008 -0.417029,0.08882 -0.551507,0.151632 -0.06661,0.03033 -0.112546,0.104227 -0.169941,0.147642 -0.07078,0.02027 -0.127776,0.02673 -0.176354,0.04389 -0.08561,0.04365 -0.225909,0.135351 -0.304611,0.09577 -0.113668,0.0889 -0.243961,0.05187 -0.4489,0 -0.150623,0.06784 -0.399891,0.03725 -0.352708,-0.139661 -0.05331,-0.269794 0.444925,-0.153165 0.641287,-0.179565 0.156313,-0.04022 0.193989,-0.152797 0.304611,-0.319225 0.06148,0.06784 0.103888,0.0348 0.160321,0 0.08337,-0.06097 0.231922,-0.179755 0.240483,-0.25538 0.01723,-0.05786 -0.05291,-0.147195 -0.06413,-0.191535 0.03126,-0.06297 0.141757,-0.123189 0.160322,-0.207496 0.182606,-0.115959 0.259256,-0.264845 0.416836,-0.343167 0.09595,-0.05507 0.298054,-0.06855 0.344692,-0.11971 0.01122,-0.122822 -0.0032,-0.145263 0,-0.223457 0.06413,-0.06408 0.04778,-0.09425 0.04008,-0.111729 0.217557,-0.02881 0.377509,0.06464 0.561126,0.05586 0.07872,-0.0032 0.165981,0.0057 0.250102,-0.05586 0.0703,-0.04046 0.130838,-0.108856 0.150702,-0.143651 0.125933,-0.0407 0.207232,-0.143891 0.320643,-0.150036 z m -18.404925,0.150036 c 0.03657,-0.0061 0.101612,0.0043 0.128257,0 0.08705,-0.0032 0.147576,0 0.160322,0 0.133067,0 0.231376,-0.02905 0.160321,0 0.05355,0.191471 -0.399537,0.119629 -0.545093,0 -0.0016,0.01357 0.05561,0.0061 0.09619,0 z m -0.55311,0.351147 c 0.04954,0 0.09788,-0.02227 0.150703,0 -0.13443,0.11117 -0.318319,0.174872 -0.551507,0.2474 -0.110782,0.0348 -0.280194,0.07191 -0.360724,-0.05586 0.03671,-0.144848 0.16138,-0.129286 0.160322,-0.143651 0.228458,-0.01437 0.452556,-0.04701 0.601206,-0.04788 z m 18.9901,0 c -0.0978,0.03033 -0.144851,0.221303 0,0.2474 0.06501,-0.04054 0.06573,-0.127531 0.0481,-0.2474 -0.03784,-0.04254 -0.02108,-0.01325 -0.0481,0 z m -0.03207,0.397436 c -0.06669,0.01389 -0.120962,-0.0029 -0.176354,0.04948 0.0091,0.162454 0.03808,0.256881 0,0.399032 0.09932,0.179867 0.310095,0.07191 0.356716,-0.04788 0.05547,-0.303711 -0.0605,-0.438743 -0.180362,-0.400627 z m 1.232874,0.847542 c -0.128258,-0.05626 -0.22522,-0.01053 -0.270944,0 0.07784,0.223953 0.27912,0.255747 0.521046,0.319225 0.08738,-0.0838 0.05948,-0.258859 0.120241,-0.319225 -0.125051,0 -0.192402,-0.04349 -0.320644,0 z m -25.457475,6.065278 c 0.108393,0.149828 0.219072,0.301296 0.356716,0.319225 0.07295,0.08755 0.157227,0.07949 0.250903,0 0.07543,0.114123 0.127167,0.176372 0.193989,0.199516 0.160562,0.05219 0.384612,0.04469 0.506617,0.119709 0.186951,0.06129 0.294991,0.385991 0.471345,0.478838 -0.01202,0.09289 -0.04922,0.179771 0,0.25538 0.05579,0.09553 0.208226,0.126876 0.330263,0.223457 0.149019,0.05132 0.211208,0.255396 0.311024,0.319226 0.08962,0.02027 0.164586,-0.02314 0.240482,0 0.19237,0.0581 0.234663,0.348577 0.400805,0.319225 0.107896,-0.05187 0.132826,-0.214791 0.144289,-0.319225 0.07896,-0.07837 0.14275,-0.159613 0.256515,-0.159613 0.180698,-0.04309 0.233556,0.182182 0.240482,0.359128 0.09796,0.09864 0.18429,0.194839 0.160322,0.299274 0.09387,0.179867 0.08794,0.690723 0,0.778111 0.0035,0.153388 -0.189837,0.224048 -0.300603,0.319225 -0.05243,0.11947 -0.10958,0.203043 -0.148298,0.25538 -0.0719,0.081 -0.149869,0.115256 -0.208418,0.223458 -0.02317,0.01357 -0.01796,0.10868 -0.144289,0.169189 0.01266,0.186061 -0.123015,0.325674 0,0.549067 -0.02092,0.09002 0,0.19195 0,0.239419 0,0.187545 -0.179994,0.219883 -0.160322,0.359129 -0.05451,0.101513 0.07832,0.312553 0.160322,0.448511 -0.02685,0.101912 0.139191,0.183059 0.200402,0.309648 0.101964,0.05331 0.207328,0.194121 0.300603,0.319225 0.183616,0.301349 0.270222,0.64217 0.444892,0.917773 0.01603,0.142214 0.292587,0.248181 0.336676,0.359128 0.0521,0.1154 -0.0091,0.26957 0,0.319225 0.12489,0.254949 0.635659,0.50246 0.865737,0.63845 0.116794,0.03527 0.204618,0.07159 0.256514,0.159613 0.204651,0.05722 0.522521,0.232763 0.641287,0.319225 0.02982,0.171823 0.07527,0.454066 0.110622,0.648027 0.04337,0.255699 -0.0117,0.472964 0,0.748583 0.0075,0.150834 0.0497,0.248165 0.0497,0.359128 0,0.0921 0.0032,0.187178 0,0.239419 -0.0032,0.179867 0.01443,0.365912 0,0.542683 -0.008,0.104626 -0.0064,0.221127 0,0.335186 0.008,0.06009 0.09443,0.09128 0,0.169189 0.106614,0.08451 -0.0088,0.183076 0,0.309649 0.02036,0.122917 0.215521,0.270671 0.256515,0.478837 0.02317,0.09353 0.06156,0.39908 0.06413,0.558644 -0.03126,0.08412 -0.05844,0.206443 -0.06413,0.239419 -0.01395,0.132479 0.0053,0.192701 0,0.319225 -4.000767,-2.614511 -6.66938,-7.052561 -6.66938,-12.130554 0,-0.651022 0.06604,-1.267332 0.144288,-1.915351 z m 5.466968,1.468435 c 0.190062,-0.06544 0.163769,0.180107 0,0.191535 -0.0578,0.02035 -0.05475,-0.14413 0,-0.191535 z"
     class="ColorScheme-Text"
     id="path5" />
</svg>
