<svg width="22" height="22" version="1.1" viewBox="0 0 22 22" xmlns="http://www.w3.org/2000/svg" xmlns:xlink="http://www.w3.org/1999/xlink">
<defs>
<linearGradient id="linearGradient3403" x1="6.9492" x2="11.215" y1="4.5549" y2="59.052" gradientUnits="userSpaceOnUse">
<stop style="stop-color:#32373c" offset="0"/>
<stop style="stop-color:#1a1a1a" offset=".36805"/>
<stop style="stop-color:#31363b" offset="1"/>
</linearGradient>
<linearGradient id="linearGradient20558" x1="25.802" x2="25.111" y1="20.374" y2="58.913" gradientUnits="userSpaceOnUse">
<stop style="stop-color:#3d3d3d" offset="0"/>
<stop offset=".61772"/>
<stop style="stop-color:#3d3d3d" offset="1"/>
</linearGradient>
<linearGradient id="linearGradient4557" x1="43.5" x2="44.142" y1="64.012" y2=".30621" gradientTransform="translate(.36068 -.13017)" gradientUnits="userSpaceOnUse">
<stop style="stop-color:#141618" offset="0"/>
<stop style="stop-color:#686868" offset=".51821"/>
<stop style="stop-color:#31363b" offset="1"/>
</linearGradient>
<linearGradient id="linearGradient919" x1="7.4006" x2="33.063" y1="41.743" y2="7.1074" gradientTransform="matrix(.45064 0 0 .45064 .41602 .34756)" gradientUnits="userSpaceOnUse">
<stop style="stop-opacity:.99608" offset="0"/>
<stop style="stop-color:#353a3f;stop-opacity:.99608" offset="1"/>
</linearGradient>
</defs>
<rect x="1.8413" y="1.7078" width="18.965" height="19.248" ry="0" style="fill-rule:evenodd;fill:url(#linearGradient919)"/>
<g transform="matrix(.50598 0 0 .50598 1.342 -.76684)">
<path d="m24.747 8.085c-0.39623 0.27195-0.76434 0.55757-1.1081 0.85405-1.98e-4 2.488e-4 -5.32e-4 4.616e-4 -7.2e-4 7.095e-4v2.493e-4l-2e-3 0.00189-1.3332 1.377-1.4292 2.3701-0.86918 2.6034-0.32428 2.8577c-0.04279 1.4364 0.10651 2.8636 0.4169 4.1936l0.0018 0.01778h0.0028c0.29702 1.266 0.35343 1.8637 0.91928 2.8743 6.4177-1.125 10.671 3.8353 9.2363 9.1903-0.75694 2.8249-3.0878 4.1854-5.3228 4.6957-3.1499 0.54769-5.8057-1.1526-6.4451-3.5388-0.12483-0.78692 0.06943-1.8446 0.51938-2.1115-0.25984 0.09055-0.57616 0.19455-0.95506 0.55185-0.63811 0.60159-0.65378 0.81414-1.4879 1.0477 0.40823-1.1505-1.8327-2.0858-1.4279-4.5536 0.0092-0.05716-0.10125 0.4725-0.09252 0.41382-0.9873 5.453 4.5982 11.591 10.795 9.9309 4.1988-1.048 6.7018-4.1311 7.5293-7.6111 0.47791-2.0096 0.33017-4.0818-0.10392-5.8211-0.35358-1.4166-1.0757-2.9112-2.1622-4.2836-0.3481-0.4397-0.71098-0.84223-1.0811-1.2166l-0.0085-0.01062-0.0316-0.02841c-0.83319-0.83696-1.6971-1.5286-2.5247-2.1829l-2.4517-2.1201c-0.04566-0.04866-0.09138-0.09692-0.13569-0.14627l-0.76325-1.0074c-0.06072-0.09799-0.11805-0.19846-0.17322-0.30035l-0.58462-1.6744-0.20787-2.3037 0.28508-1.9491c0.01242-0.04191 0.02553-0.08309 0.03898-0.12461z" style="fill:#f2f2f2"/>
<path d="m26.604 10.865c-0.21085 0.33728-0.39218 0.69912-0.55499 1.0761l-0.49245 0.9553-0.71016 2.2414c-0.03299 0.08557-0.06308 0.17396-0.08543 0.26911l1.1129 1.823 0.5675 0.59349c0.06775 0.07489 0.13726 0.14876 0.21121 0.22118l-0.19871-1.2856c-0.0053-0.03799-0.0099-0.07564-0.01454-0.11361l-0.05051-4.5809z" style="fill:#f2f2f2"/>
<path d="m15.653 22.997 0.07504 2.4928-0.53118 1.0539-0.06013 1.8603 0.50784 0.93218c0.03621 0.07597 0.07369 0.14982 0.11137 0.22154 0.20311-0.91003 0.58563-1.7795 1.1304-2.5363l0.16718-1.0606-0.48547-1.851z" style="fill:#f2f2f2"/>
<path d="m23.046 26.216c-3.5666 0-6.4579 2.8913-6.4579 6.458 0.0014 0.3323 0.02841 0.66425 0.08076 0.99254 0.07296 0.11326 0.14833 0.22509 0.20914 0.34474 0.0542 0.1065 0.08155 0.23076 0.11742 0.35218 0.01955-0.01418 0.07051-0.02486 0.08988-0.04045 0.13881-0.11574 0.31572-0.32024 0.65313-0.63848 0.43813-0.41304 0.84724-0.60336 1.1155-0.65861 0.59494-0.12248 0.75375-0.01419 1.2699 0.06567-0.42051 0.17432-0.54987 0.3661-0.87367 0.78017-0.01138 0.0142-0.18904 0.22757-0.26417 0.5614-0.07365 0.32733-0.08272 0.73377-0.03479 1.0549 0.58402 2.1108 2.9711 3.6781 5.902 3.1685 0.61982-0.14308 1.2357-0.36191 1.8218-0.64948 1.7671-1.2004 2.8262-3.197 2.829-5.3333 0-3.5667-2.8913-6.4579-6.4579-6.4579z" style="fill:#f2f2f2"/>
<path d="m26.941 4.079-0.11449 1.2693-0.3339 0.50229-0.14436 0.94018 0.20062 0.50396c0.04988 0.14876 0.1084 0.28331 0.16169 0.40562l0.10704 0.26911 0.23719-0.83576c0.03648-0.12461 0.07229-0.24923 0.10729-0.37888l0.30816-1.0862-0.13303-0.96879z" style="fill:#f2f2f2"/>
</g>
<path transform="matrix(.33882 0 0 .33882 .46095 .35878)" d="m4.7043 3.9815-0.012938 56.82h53.904l1.0222-2.8664s-23.875 0.76639-32.844-4.1404c-10.516-5.7529-15.372-49.697-15.372-49.697z" style="fill:url(#linearGradient3403);mix-blend-mode:normal;stroke-linejoin:round;stroke-width:1.1624;stroke:url(#linearGradient20558)"/>
<rect transform="matrix(.3174 0 0 .31676 1.0302 1.0434)" x="1.0324" y=".59551" width="62.567" height="62.867" rx="5.803" ry="6.2447" style="fill:none;stroke-linejoin:round;stroke-miterlimit:7.8;stroke-opacity:.99515;stroke-width:3.7137;stroke:url(#linearGradient4557)"/>
</svg>
