<?xml version="1.0" encoding="UTF-8" standalone="no"?>
<!-- Created with Inkscape (http://www.inkscape.org/) -->

<svg
   width="32"
   height="32"
   version="1.1"
   viewBox="0 0 32 32"
   id="svg22"
   sodipodi:docname="plasma-search.svg"
   inkscape:version="1.1.2 (0a00cf5339, 2022-02-04)"
   xmlns:inkscape="http://www.inkscape.org/namespaces/inkscape"
   xmlns:sodipodi="http://sodipodi.sourceforge.net/DTD/sodipodi-0.dtd"
   xmlns:xlink="http://www.w3.org/1999/xlink"
   xmlns="http://www.w3.org/2000/svg"
   xmlns:svg="http://www.w3.org/2000/svg">
  <sodipodi:namedview
     id="namedview24"
     pagecolor="#ffffff"
     bordercolor="#666666"
     borderopacity="1.0"
     inkscape:showpageshadow="2"
     inkscape:pageopacity="0.0"
     inkscape:pagecheckerboard="0"
     inkscape:deskcolor="#d1d1d1"
     showgrid="false"
     inkscape:zoom="31.56"
     inkscape:cx="19.296578"
     inkscape:cy="15.209125"
     inkscape:window-width="3440"
     inkscape:window-height="1356"
     inkscape:window-x="0"
     inkscape:window-y="0"
     inkscape:window-maximized="1"
     inkscape:current-layer="g1555"
     inkscape:pageshadow="2" />
  <defs
     id="defs12">
    <linearGradient
       inkscape:collect="always"
       id="linearGradient917">
      <stop
         style="stop-color:#000000;stop-opacity:0.99607843"
         offset="0"
         id="stop913" />
      <stop
         style="stop-color:#353a3f;stop-opacity:0.99607843"
         offset="1"
         id="stop915" />
    </linearGradient>
    <linearGradient
       id="linearGradient1005-3-3"
       x1="5.2535"
       x2="9.3823996"
       y1="15.383"
       y2="2.9421"
       gradientTransform="matrix(0.99999,0,0,0.99999,1.632,-0.61743)"
       gradientUnits="userSpaceOnUse">
      <stop
         stop-color="#fa8200"
         offset="0"
         id="stop2" />
      <stop
         stop-color="#ff9600"
         offset=".36953"
         id="stop4" />
      <stop
         stop-color="#ffb400"
         offset="1"
         id="stop6" />
    </linearGradient>
    <filter
       id="filter4014"
       x="-0.062499933"
       y="-0.057692993"
       width="1.1249999"
       height="1.115386"
       color-interpolation-filters="sRGB">
      <feGaussianBlur
         stdDeviation="1.093751"
         id="feGaussianBlur9" />
    </filter>
    <linearGradient
       inkscape:collect="always"
       xlink:href="#linearGradient3487"
       id="linearGradient3403"
       gradientUnits="userSpaceOnUse"
       x1="6.9491749"
       y1="4.5549412"
       x2="11.215498"
       y2="59.052471" />
    <linearGradient
       id="linearGradient3487">
      <stop
         style="stop-color:#32373c;stop-opacity:1"
         offset="0"
         id="stop3481" />
      <stop
         id="stop3483"
         offset="0.36804965"
         style="stop-color:#1a1a1a;stop-opacity:1" />
      <stop
         style="stop-color:#31363b;stop-opacity:1"
         offset="1"
         id="stop3485" />
    </linearGradient>
    <linearGradient
       inkscape:collect="always"
       xlink:href="#linearGradient20604"
       id="linearGradient20558"
       gradientUnits="userSpaceOnUse"
       x1="25.802212"
       y1="20.373846"
       x2="25.111048"
       y2="58.912758" />
    <linearGradient
       id="linearGradient20604">
      <stop
         id="stop20598"
         offset="0"
         style="stop-color:#3d3d3d;stop-opacity:1" />
      <stop
         style="stop-color:#000000;stop-opacity:1"
         offset="0.61772454"
         id="stop20600" />
      <stop
         id="stop20602"
         offset="1"
         style="stop-color:#3d3d3d;stop-opacity:1" />
    </linearGradient>
    <filter
       inkscape:collect="always"
       style="color-interpolation-filters:sRGB"
       id="filter20720"
       x="-0.017024755"
       y="-0.016457183"
       width="1.0340491"
       height="1.0329144">
      <feGaussianBlur
         inkscape:collect="always"
         stdDeviation="0.14745661"
         id="feGaussianBlur20722" />
    </filter>
    <linearGradient
       gradientTransform="translate(0.36067797,-0.13016949)"
       xlink:href="#linearGradient4555"
       id="linearGradient4557"
       x1="43.499737"
       y1="64.011795"
       x2="44.141731"
       y2="0.30621234"
       gradientUnits="userSpaceOnUse" />
    <linearGradient
       id="linearGradient4555">
      <stop
         style="stop-color:#141618;stop-opacity:1"
         offset="0"
         id="stop4551" />
      <stop
         id="stop4559"
         offset="0.51820582"
         style="stop-color:#686868;stop-opacity:1" />
      <stop
         style="stop-color:#31363b;stop-opacity:1"
         offset="1"
         id="stop4553" />
    </linearGradient>
    <filter
       style="color-interpolation-filters:sRGB"
       id="filter4601"
       x="-0.030244762"
       width="1.0604895"
       y="-0.030100647"
       height="1.0602013">
      <feGaussianBlur
         stdDeviation="0.014790289"
         id="feGaussianBlur4603" />
    </filter>
    <linearGradient
       inkscape:collect="always"
       xlink:href="#linearGradient917"
       id="linearGradient919"
       x1="7.400631"
       y1="41.743092"
       x2="33.063145"
       y2="7.1074457"
       gradientUnits="userSpaceOnUse"
       gradientTransform="matrix(0.65875771,0,0,0.65875771,0.25841203,0.21589031)" />
    <linearGradient
       xlink:href="#linearGradient4697"
       id="f"
       gradientUnits="userSpaceOnUse"
       gradientTransform="matrix(0.66667,0,0,0.85555,128.191,86.772)"
       x1="418.17001"
       y1="503.07901"
       x2="384.57101"
       y2="531.45801" />
    <linearGradient
       inkscape:collect="always"
       id="linearGradient4697">
      <stop
         style="stop-color:#1abc9c"
         id="stop4699" />
      <stop
         offset="1"
         style="stop-color:#2980b9"
         id="stop4701" />
    </linearGradient>
    <linearGradient
       xlink:href="#linearGradient4526"
       id="g"
       y1="521.633"
       x1="404.04501"
       y2="528.34998"
       x2="430.73599"
       gradientUnits="userSpaceOnUse"
       gradientTransform="matrix(0.66667,0,0,0.85555,128.191,86.771)" />
    <linearGradient
       inkscape:collect="always"
       id="linearGradient4526">
      <stop
         style="stop-color:#cc4a5e"
         id="stop4528" />
      <stop
         offset="1"
         style="stop-color:#aa478a"
         id="stop4530" />
    </linearGradient>
    <linearGradient
       xlink:href="#linearGradient4468"
       id="h"
       y1="542.224"
       x1="398.09201"
       y2="524.90002"
       x2="394.00299"
       gradientUnits="userSpaceOnUse"
       gradientTransform="matrix(0.66667,0,0,0.85555,128.191,86.771)" />
    <linearGradient
       inkscape:collect="always"
       id="linearGradient4468">
      <stop
         style="stop-color:#334545"
         id="stop4470" />
      <stop
         offset="1"
         style="stop-color:#536161"
         id="stop4472" />
    </linearGradient>
    <linearGradient
       xlink:href="#linearGradient4468"
       id="i"
       y1="568.79797"
       x1="431.57101"
       y2="562.79797"
       x2="439.57101"
       gradientUnits="userSpaceOnUse"
       gradientTransform="matrix(-0.66667,0,0,0.85555,687.618,52.549)" />
    <linearGradient
       xlink:href="#linearGradient4468"
       id="j"
       y1="581.87"
       x1="406.53699"
       y2="572.67798"
       x2="423.32001"
       gradientUnits="userSpaceOnUse"
       gradientTransform="matrix(-0.66667,0,0,0.85555,687.62,52.549)" />
    <linearGradient
       xlink:href="#linearGradient4468"
       id="k"
       y1="572.33398"
       x1="423.05399"
       y2="566.76599"
       x2="431.22501"
       gradientUnits="userSpaceOnUse"
       gradientTransform="matrix(-0.66667,0,0,0.85555,687.618,52.549)" />
    <linearGradient
       xlink:href="#linearGradient4468"
       id="l"
       y1="577.10199"
       x1="431.31299"
       y2="571.44501"
       x2="440.63199"
       gradientUnits="userSpaceOnUse"
       gradientTransform="matrix(-0.66667,0,0,0.85555,687.62,52.549)" />
    <linearGradient
       xlink:href="#linearGradient4468"
       id="m"
       y1="577.362"
       x1="430.56699"
       y2="591.328"
       x2="423.75"
       gradientUnits="userSpaceOnUse"
       gradientTransform="matrix(-0.66667,0,0,0.85555,687.62,52.549)" />
  </defs>
  <rect
     style="display:inline;fill:url(#linearGradient919);fill-opacity:1;fill-rule:evenodd;stroke:none;stroke-width:0.611209;stroke-linejoin:round;stroke-miterlimit:7.8"
     id="rect1192"
     width="27.723557"
     height="28.13693"
     x="2.3420036"
     y="2.2043438"
     ry="0"
     inkscape:label="arriere" />
  <g
     id="g1555"
     transform="matrix(0.9256087,0,0,1.0206115,-354.58724,-526.8658)">
    <g
       id="g1405">
      <path
         d="m 389.571,517.798 a 5.004,5.004 0 0 0 -3.54,1.461 4.99,4.99 0 0 0 -1.46,3.54 v 18 a 5.004,5.004 0 0 0 1.46,3.538 4.99,4.99 0 0 0 3.54,1.461 h 22 a 5.004,5.004 0 0 0 3.54,-1.46 4.99,4.99 0 0 0 1.46,-3.54 v -18 a 5.004,5.004 0 0 0 -1.46,-3.539 4.99,4.99 0 0 0 -3.54,-1.46 z"
         id="path37"
         style="fill:url(#f)"
         inkscape:connector-curvature="0" />
    </g>
    <path
       d="m 410.317,545.798 h 1.254 a 5.004,5.004 0 0 0 3.54,-1.46 4.989,4.989 0 0 0 1.46,-3.54 v -18 a 5.005,5.005 0 0 0 -1.46,-3.54 c -0.077,-0.075 -0.188,-0.108 -0.269,-0.179 l -20.294,15.035 15.77,11.684 z"
       id="path39"
       style="fill:url(#g)"
       inkscape:connector-curvature="0" />
    <path
       d="m 384.688,541.378 c 0.057,0.47 0.098,0.949 0.276,1.37 a 4.989,4.989 0 0 0 2.658,2.657 5.004,5.004 0 0 0 1.95,0.393 h 20.894 l -15.895,-11.744 z"
       id="path41"
       style="fill:url(#h)"
       inkscape:connector-curvature="0" />
    <path
       d="m 400.077,538.133 -5.506,-4.08 v 8.16 z"
       id="path43"
       style="fill:url(#i)"
       inkscape:connector-curvature="0" />
    <path
       d="m 405.582,542.211 v 3.587 h 4.841 l -4.84,-3.587 z"
       id="path45"
       style="fill:url(#j)"
       inkscape:connector-curvature="0" />
    <path
       d="m 400.077,538.133 v 7.665 h 0.666 l 4.84,-3.586 -5.506,-4.08 z"
       id="path47"
       style="fill:url(#k)"
       inkscape:connector-curvature="0" />
    <path
       d="m 394.571,542.212 v 3.586 h 4.84 z"
       id="path49"
       style="fill:url(#l)"
       inkscape:connector-curvature="0" />
    <path
       d="m 405.582,542.211 -4.84,3.587 h 4.84 z"
       id="path51"
       style="fill:url(#m)"
       inkscape:connector-curvature="0" />
    <path
       d="m 416.571,525.769 v -2.97 a 5.005,5.005 0 0 0 -1.46,-3.54 c -0.077,-0.076 -0.188,-0.109 -0.269,-0.18 l -20.294,15.037 z"
       id="path53"
       inkscape:connector-curvature="0"
       style="fill:#aa478a" />
    <path
       d="m 384.695,541.798 c 0.067,0.317 0.146,0.658 0.27,0.95 a 4.989,4.989 0 0 0 2.657,2.658 5.004,5.004 0 0 0 1.95,0.392 h 22 a 5.004,5.004 0 0 0 3.54,-1.46 4.989,4.989 0 0 0 1.066,-1.59 5.35,5.35 0 0 0 0.285,-0.95 z"
       id="path55"
       inkscape:connector-curvature="0"
       style="fill:#ffffff;fill-opacity:0.784" />
    <circle
       cx="412.57101"
       cy="543.79797"
       r="1"
       id="circle57"
       style="fill:#4d4d4d" />
    <path
       d="m 386.571,542.798 v 1 h 1 v -1 z m 1,1 v 1 h 1 v -1 z"
       id="path59"
       inkscape:connector-curvature="0"
       style="fill:#4d4d4d" />
    <path
       d="m 401.41039,523.80995 a 5.5,5.022369 0 0 0 -5.5,5.02237 5.5,5.022369 0 0 0 5.5,5.02237 5.5,5.022369 0 0 0 3.52,-1.16428 l 4.28,3.9074 0.704,-0.6456 -4.28,-3.90923 a 5.5,5.022369 0 0 0 1.276,-3.21066 5.5,5.022369 0 0 0 -5.5,-5.02237 z m 0,0.91316 a 4.5,4.109211 0 0 1 4.5,4.10921 4.5,4.109211 0 0 1 -4.5,4.10921 4.5,4.109211 0 0 1 -4.5,-4.10921 4.5,4.109211 0 0 1 4.5,-4.10921 z"
       id="path61"
       inkscape:connector-curvature="0"
       style="opacity:0.75;fill:#ffffff;stroke-width:0.955593" />
  </g>
  <path
     style="display:inline;mix-blend-mode:normal;fill:url(#linearGradient3403);fill-opacity:1;stroke:url(#linearGradient20558);stroke-width:1.16242;stroke-linecap:butt;stroke-linejoin:round;stroke-miterlimit:4;stroke-dasharray:none;stroke-opacity:1;filter:url(#filter20720)"
     d="M 4.7043071,3.9814882 4.6913695,60.80196 H 58.59546 l 1.022155,-2.866369 c 0,0 -23.87537,0.766388 -32.844441,-4.140386 C 16.257548,48.042344 11.401114,4.0978197 11.401114,4.0978197 Z"
     id="path1686"
     sodipodi:nodetypes="ccccscc"
     transform="matrix(0.49530655,0,0,0.49530655,0.32409325,0.23228439)"
     inkscape:label="folder" />
  <rect
     style="display:inline;fill:none;fill-opacity:1;stroke:url(#linearGradient4557);stroke-width:3.71366;stroke-linejoin:round;stroke-miterlimit:7.8;stroke-dasharray:none;stroke-opacity:0.995146;filter:url(#filter4601)"
     id="rect4539"
     width="62.567089"
     height="62.866646"
     x="1.0323594"
     y="0.59551275"
     ry="6.2447233"
     rx="5.8029528"
     transform="matrix(0.46399463,0,0,0.4630489,1.1562887,1.2331482)"
     inkscape:label="contour" />
</svg>
