<svg width="32" height="32" version="1.1" viewBox="0 0 32 32" xmlns="http://www.w3.org/2000/svg" xmlns:xlink="http://www.w3.org/1999/xlink">
<style id="current-color-scheme" type="text/css">.ColorScheme-Highlight {
        color:#3daee9;
      }</style>
<defs>
<linearGradient id="linearGradient3403" x1="6.9492" x2="11.215" y1="4.5549" y2="59.052" gradientUnits="userSpaceOnUse">
<stop style="stop-color:#32373c" offset="0"/>
<stop style="stop-color:#1a1a1a" offset=".36805"/>
<stop style="stop-color:#31363b" offset="1"/>
</linearGradient>
<linearGradient id="linearGradient20558" x1="25.802" x2="25.111" y1="20.374" y2="58.913" gradientUnits="userSpaceOnUse">
<stop style="stop-color:#3d3d3d" offset="0"/>
<stop offset=".61772"/>
<stop style="stop-color:#3d3d3d" offset="1"/>
</linearGradient>
<linearGradient id="linearGradient8" x1="17" x2="17" y1="30" y2="2" gradientUnits="userSpaceOnUse">
<stop style="stop-color:#141618" offset="0"/>
<stop style="stop-color:#686868" offset=".5319"/>
<stop style="stop-color:#31363b" offset="1"/>
</linearGradient>
<linearGradient id="linearGradient25181" x1="404.19" x2="437.22" y1="508.8" y2="495.8" gradientTransform="matrix(.96896 0 0 1 12.924 0)" gradientUnits="userSpaceOnUse">
<stop style="stop-color:#1d1d1d" offset="0"/>
<stop style="stop-color:#393939" offset="1"/>
</linearGradient>
<linearGradient id="linearGradient30087" x1="19.622" x2="28.911" y1="13" y2="20" gradientTransform="matrix(.96896 0 0 1 .9867 0)" gradientUnits="userSpaceOnUse">
<stop style="stop-color:#161616" offset="0"/>
<stop style="stop-color:#3f3f3f" offset="1"/>
</linearGradient>
<linearGradient id="linearGradient3" x1="24.723" x2="27.189" y1="8.9494" y2="12.585" gradientUnits="userSpaceOnUse">
<stop offset="0"/>
<stop style="stop-color:#939393;stop-opacity:0" offset="1"/>
</linearGradient>
<linearGradient id="linearGradient8-5" x1="12" x2="12" y1="26" y2="15.72" gradientUnits="userSpaceOnUse">
<stop style="stop-color:#252525" offset="0"/>
<stop style="stop-color:#606060;stop-opacity:.33138" offset="1"/>
</linearGradient>
<linearGradient id="linearGradient10" x1="3.5" x2="15.062" y1="28" y2="18" gradientUnits="userSpaceOnUse" xlink:href="#linearGradient9"/>
<linearGradient id="linearGradient9">
<stop style="stop-color:#252525" offset="0"/>
<stop style="stop-color:#606060;stop-opacity:0" offset="1"/>
</linearGradient>
<linearGradient id="linearGradient12" x1="29.512" x2="22.118" y1="27.45" y2="19.444" gradientUnits="userSpaceOnUse" xlink:href="#linearGradient9"/>
<linearGradient id="i" x1="15.408" x2="33.185" y1="9.7778" y2="29.037" gradientUnits="userSpaceOnUse">
<stop offset="0"/>
<stop stop-opacity="0" offset="1"/>
</linearGradient>
<linearGradient id="j" x1="17.635" x2="17.635" y1="9.8457" y2="32.002" gradientUnits="userSpaceOnUse">
<stop stop-color="#fccec0" offset="0"/>
<stop stop-color="#c98350" offset="1"/>
</linearGradient>
<linearGradient id="k" x1="18" x2="18" y1="21" y2="32" gradientUnits="userSpaceOnUse">
<stop stop-color="#a96535" stop-opacity="0" offset="0"/>
<stop stop-color="#a96535" offset="1"/>
</linearGradient>
<linearGradient id="l" x1="18" x2="18" y1="10" y2="25.5" gradientUnits="userSpaceOnUse">
<stop stop-color="#fff" offset="0"/>
<stop stop-color="#fff" stop-opacity=".5" offset="1"/>
</linearGradient>
</defs>
<path d="m4 2.6368c-1.1631 0-1.8725 0.81491-2.3086 1.3671 0 0-0.00192 0.00384-0.00195 0.00391-0.0054236 0.011491-0.46875 0.99801-0.46875 1.9922v17.879l10.779-6.7543 0.78952 0.37677 18.21-11.501s-3e-6 -3.3632-3-3.3632z" style="fill:url(#linearGradient25181);stroke-width:1.4113"/>
<path d="m12 18 3 6 16 2v-20z" style="fill:url(#linearGradient30087)"/>
<path d="m12 17.125-10.779 6.7543v2.1211c0 2.8008 2.7793 3.3194 2.7793 3.3194h23.604s3.3958-0.66699 3.3958-3.3194z" style="color:#3daee9;fill:#939393"/>
<path class="ColorScheme-Highlight" d="m12 18 19-12v4z" style="fill:currentColor"/>
<path d="m12 18 19-12v4z" style="color:#3daee9;fill:url(#linearGradient3)"/>
<path d="m12 18v10.677l12-5.6766z" style="fill:url(#linearGradient8-5)"/>
<path d="m12 28.677-6.1808-7.6792-4.5985 2.8814v2.1211c0 2.7963 2.7793 2.6766 2.7793 2.6766z" style="fill:url(#linearGradient10)"/>
<path d="m24 23 2.4012 5.9816 3.5988 0.01842 1-3z" style="fill:url(#linearGradient12);stroke-width:.226"/>
<path d="m12 28.677-6.1808-7.6792 6.1808-3.8729z" style="fill:#252525;stroke-width:.226"/>
<path d="m11.56 28.883 12.44-5.883 2.4012 5.9816z" style="fill:#252525;stroke-width:.226"/>
<path class="ColorScheme-Highlight" d="m21.378 11.512c0 2.7096-2.1965 4.9061-4.9061 4.9061-2.7095 0-4.9061-2.1965-4.9061-4.9061 0-2.7096 2.1966-4.9061 4.9061-4.9061 2.7096 0 4.9061 2.1965 4.9061 4.9061z" opacity=".5" style="color:#3daee9;fill:currentColor"/>
<path class="ColorScheme-Highlight" d="m20.486 11.512c0 2.2169-1.7971 4.0141-4.0141 4.0141-2.2168 0-4.0141-1.7971-4.0141-4.0141 0-2.2169 1.7972-4.0141 4.0141-4.0141 2.2169 0 4.0141 1.7972 4.0141 4.0141z" style="color:#3daee9;fill:currentColor"/>
<path d="m20.486 11.512c0 2.2169-1.7971 4.0141-4.0141 4.0141-2.2168 0-4.0141-1.7971-4.0141-4.0141 0-2.2169 1.7972-4.0141 4.0141-4.0141 2.2169 0 4.0141 1.7972 4.0141 4.0141z" fill-opacity=".4"/>
<path d="m17.528 28.22 0.14852-17.6 12.934 12.934c0 1.478-1.3466 4.6655-2.8246 4.6655z" fill="url(#i)" opacity=".2" style="fill:url(#i)"/>
<path d="m16.966 29.534c2.2089 0.24539 5.3294 0.26297 5.7637 0.26422 0.03524 9e-5 0.06869 7.14e-4 0.10383 0.0012 1.9183 0.03077 3.5778-1.2462 3.824-3.1541l0.61621-4.2475c0.52861-3.1717-1.85-3.9645-2.643-2.3787 0-1.8501-2.1144-2.9073-3.1717-1.3215 0-1.5857-2.2796-2.643-3.3368-1.0572v-5.8146c0-2.1144-3.1221-2.643-3.1221 0v11.282s-0.44601-1.338-1.338-2.23c-2.9076-2.9076-4.361-0.0661-4.361-0.0661 2.1145 1.5858 3.7157 8.2832 7.6648 8.722z" fill="url(#j)" style="fill:url(#j)"/>
<path d="m22.729 29.798c-0.43432-0.0012-3.5548-0.01882-5.7637-0.26422-2.5054-0.2784-4.0658-3.0759-5.4119-5.489-0.77556-1.3904-1.4799-2.6532-2.2529-3.2329 0 0 0.13095-0.25601 0.39287-0.53575 0.62412 0.6609 1.2177 1.7251 1.86 2.8767 1.3461 2.4131 2.9065 5.2106 5.4119 5.489 2.2089 0.24539 5.3294 0.26297 5.7637 0.26422 0.03095 8.9e-5 0.06057 5.35e-4 0.09125 0.0011l0.01258 1.79e-4c1.9183 0.03077 3.5778-1.2462 3.824-3.1542l0.61621-4.2474c0.02346-0.14031 0.04112-0.27599 0.05352-0.40694 0.04041 0.37625 0.0281 0.80924-0.05352 1.299l-0.6162 4.2474c-0.2462 1.9079-1.9057 3.1849-3.824 3.1542l-0.01258-1.78e-4c-0.03069-5.35e-4 -0.0603-9.81e-4 -0.09125-0.0011z" fill="url(#k)" style="fill:url(#k)"/>
<path d="m15 23.108s-0.44601-1.338-1.338-2.23c-2.9076-2.9076-4.361-0.0661-4.361-0.0661 0.13274 0.09955 0.26347 0.21926 0.39287 0.35627 0.61067-0.65206 1.9333-1.433 3.9681 0.60184 0.89202 0.89202 1.338 2.23 1.338 2.23zm3.1221-4.5757v-0.89202c1.0572-1.5858 3.3368-0.52861 3.3368 1.0571 1.0572-1.5857 3.1717-0.52861 3.1717 1.3215 0.75786-1.5156 2.9643-0.85839 2.6965 1.9718-0.22158-2.0608-2.026-2.4208-2.6965-1.0798 0-1.8501-2.1144-2.9073-3.1717-1.3215 0-1.5857-2.2796-2.643-3.3368-1.0571zm0-6.7067v0.89202c0-2.1144-3.1221-2.643-3.1221 0v-0.89202c0-2.643 3.1221-2.1144 3.1221 0z" clip-rule="evenodd" fill="url(#l)" fill-rule="evenodd" opacity=".6" style="fill:url(#l)"/>
<path transform="matrix(.49531 0 0 .49531 .32409 .23228)" d="m5.4025 3.5689v56.531h52.493l2.019-2.019s-24.172 0.62135-33.141-4.2854c-10.516-5.7529-15.314-50.226-15.314-50.226z" style="fill:url(#linearGradient3403);mix-blend-mode:normal;stroke-linejoin:round;stroke-width:1.1624;stroke:url(#linearGradient20558)"/>
<path d="m5 1c-4 0-4 4-4 4v21c0 5 4 5 4 5h22s4 0 4-4v-22s0-4-4-4zm0 2h22c2 0 2 2 2 2v22c0 2-2 2-2 2h-22s-2 0-2-3v-21s0-2 2-2z" style="fill:url(#linearGradient8);stroke-width:.226"/>
</svg>
