<svg width="32" height="32" version="1.1" viewBox="0 0 32 32" xmlns="http://www.w3.org/2000/svg" xmlns:xlink="http://www.w3.org/1999/xlink">
<defs>
<linearGradient id="linearGradient3403" x1="6.9492" x2="11.215" y1="4.5549" y2="59.052" gradientUnits="userSpaceOnUse">
<stop style="stop-color:#32373c" offset="0"/>
<stop style="stop-color:#1a1a1a" offset=".36805"/>
<stop style="stop-color:#31363b" offset="1"/>
</linearGradient>
<linearGradient id="linearGradient20558" x1="25.802" x2="25.111" y1="20.374" y2="58.913" gradientUnits="userSpaceOnUse">
<stop style="stop-color:#3d3d3d" offset="0"/>
<stop offset=".61772"/>
<stop style="stop-color:#3d3d3d" offset="1"/>
</linearGradient>
<linearGradient id="linearGradient4557" x1="43.5" x2="44.142" y1="64.012" y2=".30621" gradientTransform="translate(.36068 -.13017)" gradientUnits="userSpaceOnUse">
<stop style="stop-color:#141618" offset="0"/>
<stop style="stop-color:#686868" offset=".51821"/>
<stop style="stop-color:#31363b" offset="1"/>
</linearGradient>
<linearGradient id="linearGradient919" x1="7.4006" x2="33.063" y1="41.743" y2="7.1074" gradientTransform="matrix(.65876 0 0 .65876 .25841 .21589)" gradientUnits="userSpaceOnUse">
<stop style="stop-opacity:.99608" offset="0"/>
<stop style="stop-color:#353a3f;stop-opacity:.99608" offset="1"/>
</linearGradient>
<linearGradient id="e" x1="432.57" x2="432.57" y1="531.8" y2="507.8" gradientTransform="matrix(.58333 0 0 .625 154.24 211.42)" gradientUnits="userSpaceOnUse">
<stop stop-color="#c6cdd1" offset="0"/>
<stop stop-color="#e0e5e7" offset="1"/>
</linearGradient>
<linearGradient id="f" x1="426.57" x2="426.57" y1="514.8" y2="511.3" gradientTransform="matrix(.55556 0 0 1.1429 165.59 -57.542)" gradientUnits="userSpaceOnUse" xlink:href="#a"/>
<linearGradient id="a">
<stop stop-color="#18222a" offset="0"/>
<stop stop-color="#566069" offset="1"/>
</linearGradient>
<linearGradient id="g" x1="393.57" x2="393.57" y1="520.8" y2="519.8" gradientUnits="userSpaceOnUse" xlink:href="#b"/>
<linearGradient id="b">
<stop stop-color="#eef1f2" offset="0"/>
<stop stop-color="#f9fafb" offset="1"/>
</linearGradient>
<linearGradient id="h" x1="410.35" x2="410.35" y1="507.51" y2="505.8" gradientTransform="matrix(.5625 0 0 .58333 162.75 225.75)" gradientUnits="userSpaceOnUse" xlink:href="#b"/>
<linearGradient id="i" x1="403.24" x2="403.24" y1="519.8" y2="507.8" gradientTransform="matrix(.5625 0 0 .75 162.75 140.95)" gradientUnits="userSpaceOnUse" xlink:href="#b"/>
<linearGradient id="j" x1="426.57" x2="426.57" y1="533.8" y2="539.05" gradientTransform="matrix(.61111 0 0 .57143 142.89 237.77)" gradientUnits="userSpaceOnUse" xlink:href="#a"/>
<linearGradient id="k" x1="396.13" x2="421.02" y1="539.8" y2="539.8" gradientTransform="matrix(.72321 0 0 .5 97.087 275.9)" gradientUnits="userSpaceOnUse">
<stop stop-color="#e74c3c" offset="0"/>
<stop stop-color="#f39c1f" offset=".25"/>
<stop stop-color="#11d116" offset=".5"/>
<stop stop-color="#3498db" offset=".75"/>
<stop stop-color="#9b59b6" offset="1"/>
</linearGradient>
<linearGradient id="l" x1="395.97" x2="406.77" y1="533.8" y2="545.8" gradientTransform="matrix(.55556 0 0 .5 164.59 275.9)" gradientUnits="userSpaceOnUse" xlink:href="#c"/>
<linearGradient id="c">
<stop offset="0"/>
<stop stop-opacity="0" offset="1"/>
</linearGradient>
<linearGradient id="m" x1="402.57" x2="382.57" y1="537.8" y2="530.8" gradientUnits="userSpaceOnUse" xlink:href="#d"/>
<linearGradient id="d">
<stop stop-color="#2f3943" offset="0"/>
<stop stop-color="#4d5662" offset="1"/>
</linearGradient>
<linearGradient id="n" x1="352.57" x2="361.57" y1="528.8" y2="528.8" gradientTransform="rotate(-90 371.57 521.8)" gradientUnits="userSpaceOnUse" xlink:href="#d"/>
<linearGradient id="o" x1="352.57" x2="361.57" y1="528.8" y2="528.8" gradientTransform="matrix(0,-1,-1,0,935.37,893.37)" gradientUnits="userSpaceOnUse" xlink:href="#d"/>
<linearGradient id="p" x1="383.57" x2="390.57" y1="530.8" y2="537.8" gradientUnits="userSpaceOnUse" xlink:href="#c"/>
</defs>
<rect x="2.342" y="2.2043" width="27.724" height="28.137" ry="0" style="fill-rule:evenodd;fill:url(#linearGradient919)"/>
<g transform="matrix(1.0403 0 0 1 -393.06 -519.21)">
<g stroke-linejoin="round">
<path d="m378.57 528.8h28v15h-28z" fill="url(#e)" style="fill:url(#e)"/>
<path d="m378.57 543.8h28v1h-28z" fill="#737b81"/>
<path d="m382.57 522.8h20v8h-20z" fill="url(#f)" style="fill:url(#f)"/>
<path d="m383.57 519.8h18v9h-18z" fill="url(#g)" style="fill:url(#g)"/>
<path d="m383.57 520.8h18v7h-18z" fill="url(#h)" style="fill:url(#h)"/>
<path d="m383.57 521.8h18v9h-18z" fill="url(#i)" style="fill:url(#i)"/>
<path d="m381.57 542.8h22v4h-22z" fill="url(#j)" style="fill:url(#j)"/>
<path d="m382.57 542.8h20v5h-20z" fill="#eff0f1"/>
<path d="m383.57 542.8h18v4h-18z" fill="url(#k)" style="fill:url(#k)"/>
</g>
<path d="m381.57 542.8 5 5h14v-1h1v-4z" fill="url(#l)" fill-rule="evenodd" opacity=".2" style="fill:url(#l)"/>
<path d="m380.57 539.8h24v1h-24z" fill="#99a1a7"/>
<path d="m382.57 530.8v5c0 0.554 0.446 1 1 1h18c0.554 0 1-0.446 1-1v-5z" fill="url(#m)" style="fill:url(#m)"/>
<path d="m378.57 541.8h1c0.554 0 1-0.446 1-1v-10c0-0.554-0.446-1-1-1h-1z" fill="url(#n)" style="fill:url(#n)"/>
<path d="m406.57 541.8h-1c-0.554 0-1-0.446-1-1v-10c0-0.554 0.446-1 1-1h1z" fill="url(#o)" style="fill:url(#o)"/>
<path d="m382.57 530.8 8 8h12v-8z" fill="url(#p)" fill-rule="evenodd" opacity=".2" style="fill:url(#p)"/>
<circle cx="406.07" cy="540.3" r=".5" fill="#11d116"/>
</g>
<path transform="matrix(.49531 0 0 .49531 .32409 .23228)" d="m4.7043 3.9815-0.012938 56.82h53.904l1.0222-2.8664s-23.875 0.76639-32.844-4.1404c-10.516-5.7529-15.372-49.697-15.372-49.697z" style="fill:url(#linearGradient3403);mix-blend-mode:normal;stroke-linejoin:round;stroke-width:1.1624;stroke:url(#linearGradient20558)"/>
<rect transform="matrix(.46399 0 0 .46305 1.1563 1.2331)" x="1.0324" y=".59551" width="62.567" height="62.867" rx="5.803" ry="6.2447" style="fill:none;stroke-linejoin:round;stroke-miterlimit:7.8;stroke-opacity:.99515;stroke-width:3.7137;stroke:url(#linearGradient4557)"/>
</svg>
