<svg width="32" height="32" version="1.1" viewBox="0 0 32 32" xmlns="http://www.w3.org/2000/svg" xmlns:xlink="http://www.w3.org/1999/xlink">
<defs>
<linearGradient id="linearGradient3403" x1="6.9492" x2="11.215" y1="4.5549" y2="59.052" gradientUnits="userSpaceOnUse">
<stop style="stop-color:#32373c" offset="0"/>
<stop style="stop-color:#1a1a1a" offset=".36805"/>
<stop style="stop-color:#31363b" offset="1"/>
</linearGradient>
<linearGradient id="linearGradient20558" x1="25.802" x2="25.111" y1="20.374" y2="58.913" gradientUnits="userSpaceOnUse">
<stop style="stop-color:#3d3d3d" offset="0"/>
<stop offset=".61772"/>
<stop style="stop-color:#3d3d3d" offset="1"/>
</linearGradient>
<linearGradient id="linearGradient4557" x1="43.5" x2="44.142" y1="64.012" y2=".30621" gradientTransform="translate(.36068 -.13017)" gradientUnits="userSpaceOnUse">
<stop style="stop-color:#141618" offset="0"/>
<stop style="stop-color:#686868" offset=".51821"/>
<stop style="stop-color:#31363b" offset="1"/>
</linearGradient>
<linearGradient id="linearGradient919" x1="7.4006" x2="33.063" y1="41.743" y2="7.1074" gradientTransform="matrix(.65876 0 0 .65876 .25841 .21589)" gradientUnits="userSpaceOnUse">
<stop style="stop-color:#1980f1" offset="0"/>
<stop style="stop-color:#20bcf9" offset="1"/>
</linearGradient>
<linearGradient id="b" x1="24.263" x2="37.703" y1="26.227" y2="39.259" gradientTransform="matrix(.77562 0 0 .79718 380.45 509.32)" gradientUnits="userSpaceOnUse">
<stop stop-color="#292c2f" offset="0"/>
<stop stop-color="#292c2f" stop-opacity="0" offset="1"/>
</linearGradient>
<linearGradient id="c" x2="0" y1="532.79" y2="514.8" gradientTransform="matrix(1.4173,0,0,1.4172,-177.73,-210.24)" gradientUnits="userSpaceOnUse">
<stop stop-color="#7cbaf8" offset="0"/>
<stop stop-color="#f4fcff" offset="1"/>
</linearGradient>
</defs>
<rect x="2.342" y="2.2043" width="27.724" height="28.137" ry="0" style="fill-rule:evenodd;fill:url(#linearGradient919)"/>
<g transform="translate(-382.37 -516)">
<g fill="#fff" stroke-width="1.0326">
<use transform="translate(-4.7118,2.5303)" width="100%" height="100%" xlink:href="#rect904"/>
<use transform="translate(-2.4035 .66645)" width="100%" height="100%" xlink:href="#rect904"/>
<use transform="matrix(-1 0 0 1 799.53 .96459)" width="100%" height="100%" xlink:href="#rect904"/>
<use transform="matrix(-1,0,0,1,801.79,2.5861)" width="100%" height="100%" xlink:href="#rect904"/>
</g>
<path d="m404.57 521.3 2.1796 5.3192-0.6336 6.4874-2.4751 3.3143-4.7799 1.5826-8.2911-2.7035 10.5 10.5c5.8989-0.0177 13.459-7.5413 13.5-14.5z" fill="url(#b)" opacity=".2" stroke-width=".78633" style="fill:url(#b)"/>
<path d="m399.94 534.47c-0.63257-0.27783-1.8175-0.25861-2.3666-0.0249-1.8013 0.7666-4.0384 0.20952-4.0108-1.5199 0.0249-1.5643 0.54807-2.1544 2.2923-3.2216 1.3474-1.0899 1.8253-1.4947 2.6967-1.4522 1.223 0.0596 1.68 0.55952 2.598 1.4522 1.5353 0.98647 2.5472 1.4353 2.4725 3.0223-0.0371 1.8939-2.3676 2.1695-3.682 1.7441z" fill="#fff" opacity=".69" stroke-width=".70457"/>
<path id="rect904" d="m398.46 527.74c-0.50579-0.0287-0.93617-0.43839-0.96378-1.0639-0.0255-0.57606 0.0523-1.1673 0.63454-1.6882 0.11271-1.254 0.18173-1.1982 0.5473-2.3714 0.2246 1.2049 0.26418 1.4308 0.27741 2.3818 0.50354 0.36173 0.62303 0.81917 0.5552 1.522-0.0579 0.59947-0.42322 1.2176-1.0507 1.2196z" fill="#fff" opacity=".69" stroke-width=".62128"/>
<path d="m398.49 519.35c-5.4761 0-9.9154 4.4392-9.9154 9.9152-1e-5 5.476 4.4393 9.9152 9.9154 9.9152 2.1385-5e-3 4.2181-0.70038 5.9288-1.9836l4.483 4.6008 2.0026-2.0026-4.483-4.6008c1.2832-1.7106 1.9791-3.7903 1.9836-5.9287 0-5.476-4.4393-9.9152-9.9154-9.9152m0 2.8329c3.9115-1e-5 7.0824 3.1708 7.0824 7.0823 0 3.9336-3.1679 7.0829-7.0832 7.0829-3.9115 0-7.0824-3.1709-7.0824-7.0823 0-4.4087 3.1069-7.0823 7.0825-7.0823" fill="url(#c)" stroke-width="1.8424" style="fill:url(#c)"/>
</g>
<path transform="matrix(.49531 0 0 .49531 .32409 .23228)" d="m4.7043 3.9815-0.012938 56.82h53.904l1.0222-2.8664s-23.875 0.76639-32.844-4.1404c-10.516-5.7529-15.372-49.697-15.372-49.697z" style="fill:url(#linearGradient3403);mix-blend-mode:normal;stroke-linejoin:round;stroke-width:1.1624;stroke:url(#linearGradient20558)"/>
<rect transform="matrix(.46399 0 0 .46305 1.1563 1.2331)" x="1.0324" y=".59551" width="62.567" height="62.867" rx="5.803" ry="6.2447" style="fill:none;stroke-linejoin:round;stroke-miterlimit:7.8;stroke-opacity:.99515;stroke-width:3.7137;stroke:url(#linearGradient4557)"/>
</svg>
