<svg width="32" height="32" version="1.1" viewBox="0 0 32 32" xmlns="http://www.w3.org/2000/svg" xmlns:xlink="http://www.w3.org/1999/xlink">
<defs>
<linearGradient id="linearGradient3403" x1="6.9492" x2="11.215" y1="4.5549" y2="59.052" gradientUnits="userSpaceOnUse">
<stop style="stop-color:#32373c" offset="0"/>
<stop style="stop-color:#1a1a1a" offset=".36805"/>
<stop style="stop-color:#31363b" offset="1"/>
</linearGradient>
<linearGradient id="linearGradient20558" x1="25.802" x2="25.111" y1="20.374" y2="58.913" gradientUnits="userSpaceOnUse">
<stop style="stop-color:#3d3d3d" offset="0"/>
<stop offset=".61772"/>
<stop style="stop-color:#3d3d3d" offset="1"/>
</linearGradient>
<linearGradient id="linearGradient4557" x1="43.5" x2="44.142" y1="64.012" y2=".30621" gradientTransform="translate(.36068 -.13017)" gradientUnits="userSpaceOnUse">
<stop style="stop-color:#141618" offset="0"/>
<stop style="stop-color:#686868" offset=".51821"/>
<stop style="stop-color:#31363b" offset="1"/>
</linearGradient>
<linearGradient id="b" x1="378.57" x2="378.57" y1="553.8" y2="525.8" gradientUnits="userSpaceOnUse">
<stop stop-color="#63984b" offset="0"/>
<stop stop-color="#8fc278" offset="1"/>
</linearGradient>
<linearGradient id="c" x1="392.57" x2="406.57" y1="539.8" y2="553.8" gradientUnits="userSpaceOnUse" xlink:href="#a">
<stop offset="0"/>
<stop stop-opacity="0" offset="1"/>
</linearGradient>
<linearGradient id="a" x1="389.57" x2="399.57" y1="536.8" y2="546.8" gradientUnits="userSpaceOnUse">
<stop stop-color="#292c2f" offset="0"/>
<stop stop-opacity="0" offset="1"/>
</linearGradient>
<linearGradient id="d" x1="394.57" x2="394.57" y1="549.8" y2="529.8" gradientUnits="userSpaceOnUse">
<stop stop-color="#999a9c" offset="0"/>
<stop stop-color="#dcdfdf" offset="1"/>
</linearGradient>
<linearGradient id="e" x1="394.86" x2="394.86" y1="543.8" y2="535.8" gradientUnits="userSpaceOnUse">
<stop stop-color="#2a2c2f" offset="0"/>
<stop stop-color="#424649" offset="1"/>
</linearGradient>
<linearGradient id="linearGradient899" x1="389.57" x2="399.57" y1="536.8" y2="546.8" gradientUnits="userSpaceOnUse" xlink:href="#a"/>
</defs>
<g transform="translate(.73816 -.44281)">
<path transform="translate(-376.57 -523.8)" d="m378.57 530.8v-2c0-2 1-3 3.0756-3h21.785c2.1398 0 3.1398 1 3.1398 3v22c0 2-1 3-2.9435 3h-22.056c-2 0-3-1-3-3.0164v-16.984l2-1z" fill="url(#b)" style="fill:url(#b)"/>
<path d="m29 27-2 2h2z" fill="#e6ea97" fill-rule="evenodd"/>
<path transform="translate(-376.57 -523.8)" d="m382.57 549.8 4 4h20v-20l-4-4z" fill="url(#c)" opacity=".2" style="fill:url(#c)"/>
<path transform="translate(-376.57 -523.8)" d="m382.57 529.8h20v20h-20z" fill="url(#d)" style="fill:url(#d)"/>
<path transform="translate(-376.57 -523.8)" d="m391.42 536.94 2.646 2.646h1.5v-0.292h0.5l6.5 6.5v4h-1l-8.5-8.5 0.647-0.646-3-3zm-1.072 2.573-1.063 1.062 2.25 2.25-0.676 0.676 6.291 6.293h3.479z" fill="url(#a)" opacity=".2" style="fill:url(#linearGradient899)"/>
<path transform="translate(-376.57 -523.8)" d="m391.57 541.8c-0.554 0-1 0.446-1 1s0.446 1 1 1 1-0.446 1-1-0.446-1-1-1zm-1.75-2.5a0.748 0.748 0 0 0-0.75 0.75 0.75 0.75 0 1 0 1.5 0 0.748 0.748 0 0 0-0.75-0.75zm3.75-2.5-1 1 1.5 1.5-1.5 1.5 1 1 2.5-2.5-1-1zm-2.5 0a0.5 0.5 0 1 0 0 1 0.5 0.5 0 1 0 0-1z" fill="url(#e)" style="fill:url(#e)"/>
<path d="m6 25h20v1h-20z" fill="#616365"/>
<path d="m7 21h4v1h-4zm0 2h2v1h-2zm15-16v3h1v-1h1v-1h-1v-1zm2 1h1v-1h-1zm0 1v1h1v-1z" fill="#484a4b"/>
<path d="m5 27h1v1h-1zm1 1h1v1h-1zm1-1h1v1h-1zm1 1h1v1h-1zm1-1h1v1h-1zm1 1h1v1h-1zm1-1h1v1h-1zm14 0h1v1h-1zm-1 1h1v1h-1zm-1-1h1v1h-1zm-1 1h1v1h-1zm-1-1h1v1h-1zm-1 1h1v1h-1zm-1-1h1v1h-1zm-1 1h1v1h-1zm-6 0h1v1h-1zm15-24h1v1h-1zm1 1h1v1h-1zm-1 1h1v1h-1zm1 1h1v1h-1zm-1 1h1v1h-1zm1 1h1v1h-1zm-1 1h1v1h-1zm1 1h1v1h-1zm-1 1h1v1h-1zm1 1h1v1h-1zm-1 11h1v1h-1zm1-1h1v1h-1zm-1-1h1v1h-1zm1-1h1v1h-1zm-1-1h1v1h-1z"/>
<path d="m3 29h26s-1 1-2 1h-22s-1 0-2-1z" fill="#4a7937"/>
</g>
<path transform="matrix(.49531 0 0 .49531 .32409 .23228)" d="m4.7043 3.9815-0.012938 56.82h53.904l1.0222-2.8664s-23.875 0.76639-32.844-4.1404c-10.516-5.7529-15.372-49.697-15.372-49.697z" style="fill:url(#linearGradient3403);mix-blend-mode:normal;stroke-linejoin:round;stroke-width:1.1624;stroke:url(#linearGradient20558)"/>
<rect transform="matrix(.46399 0 0 .46305 1.1563 1.2331)" x="1.0324" y=".59551" width="62.567" height="62.867" rx="5.803" ry="6.2447" style="fill:none;stroke-linejoin:round;stroke-miterlimit:7.8;stroke-opacity:.99515;stroke-width:3.7137;stroke:url(#linearGradient4557)"/>
</svg>
