<svg width="32" height="32" version="1.1" viewBox="0 0 32 32" xmlns="http://www.w3.org/2000/svg" xmlns:xlink="http://www.w3.org/1999/xlink">
<defs>
<linearGradient id="linearGradient3403" x1="6.9492" x2="11.215" y1="4.5549" y2="59.052" gradientUnits="userSpaceOnUse">
<stop style="stop-color:#32373c" offset="0"/>
<stop style="stop-color:#1a1a1a" offset=".36805"/>
<stop style="stop-color:#31363b" offset="1"/>
</linearGradient>
<linearGradient id="linearGradient20558" x1="25.802" x2="25.111" y1="20.374" y2="58.913" gradientUnits="userSpaceOnUse">
<stop style="stop-color:#3d3d3d" offset="0"/>
<stop offset=".61772"/>
<stop style="stop-color:#3d3d3d" offset="1"/>
</linearGradient>
<linearGradient id="linearGradient4557" x1="43.5" x2="44.142" y1="64.012" y2=".30621" gradientTransform="translate(.36068 -.13017)" gradientUnits="userSpaceOnUse">
<stop style="stop-color:#141618" offset="0"/>
<stop style="stop-color:#686868" offset=".51821"/>
<stop style="stop-color:#31363b" offset="1"/>
</linearGradient>
<linearGradient id="b" x2="0" y1="543.8" y2="502.66" gradientTransform="matrix(.66667 0 0 .63518 -256.38 -317.28)" gradientUnits="userSpaceOnUse">
<stop stop-color="#c6cdd1" offset="0"/>
<stop stop-color="#e0e5e7" offset="1"/>
</linearGradient>
<linearGradient id="c" x1="391.57" x2="406.57" y1="525.8" y2="540.8" gradientTransform="translate(-384.57 -515.8)" gradientUnits="userSpaceOnUse" xlink:href="#a"/>
<linearGradient id="a">
<stop offset="0"/>
<stop stop-opacity="0" offset="1"/>
</linearGradient>
<linearGradient id="d" x1="14.345" x2="25.67" y1="16.076" y2="25.264" gradientTransform="matrix(1.1672 0 0 1.0766 -1.505 -.91869)" gradientUnits="userSpaceOnUse" xlink:href="#a"/>
<linearGradient id="linearGradient864" x1="8" x2="8" y1="25" y2="11" gradientTransform="matrix(1.1672 0 0 1.0766 -1.505 -.91869)" gradientUnits="userSpaceOnUse" xlink:href="#e"/>
<linearGradient id="e" x1="8" x2="8" y1="25" y2="11" gradientUnits="userSpaceOnUse">
<stop stop-color="#2e3436" offset="0"/>
<stop stop-color="#555753" offset="1"/>
</linearGradient>
</defs>
<g transform="matrix(.86147 0 0 1 2.5108 -.1051)">
<path d="m0 2h32v28h-32z" fill="url(#b)" style="fill:url(#b)"/>
<path d="m1 28 30-20 1 1v21h-29z" fill="url(#c)" fill-rule="evenodd" opacity=".2" style="fill:url(#c)"/>
<path d="m0 2h32v4h-32z" fill="#566069"/>
<path d="m0 6h32v1h-32z" fill="#3daee9"/>
<path d="m1 8h30v20h-30z" fill="#fff"/>
<rect x="29" y="3" width="2" height="1.7008" rx="1" fill="#eff0f1" style="stroke-width:.92216"/>
<path d="m7.8328 10.923h18.676l8.1706 7.5359v10.766h-19.843l-7.0034-6.4593z" fill="url(#d)" opacity=".2" style="fill:url(#d);stroke-width:1.121"/>
<path d="m9 12h16.341v9.689h-16.341z" fill="#fcfcfc"/>
<path d="m17.171 12a10.505 9.689 0 0 0-9.1943 5.0254c0.15057 0.39187 0.4167 0.72883 0.7657 0.97751a9.3378 8.6125 0 0 1 8.4285-4.9263 4.6689 4.3062 0 0 0-4.6689 4.3062 4.6689 4.3062 0 0 0 4.6689 4.3062 4.6689 4.3062 0 0 0 4.6689-4.3062 4.6689 4.3062 0 0 0-4.2604-4.2869 9.3378 8.6125 0 0 1 8.0189 4.9069c0.3525-0.25192 0.62213-0.59211 0.77037-0.98828a10.505 9.689 0 0 0-9.1978-5.0146zm0 2.1531a3.5017 3.2297 0 0 1 3.5017 3.2297 3.5017 3.2297 0 0 1-3.5017 3.2297 3.5017 3.2297 0 0 1-3.5017-3.2297 3.5017 3.2297 0 0 1 3.5017-3.2297zm0 1.0766a2.3345 2.1531 0 0 0-2.3345 2.1531 2.3345 2.1531 0 0 0 2.3345 2.1531 2.3345 2.1531 0 0 0 2.3345-2.1531 2.3345 2.1531 0 0 0-0.10505-0.63302 1.1672 1.0766 0 0 1-1.0622 0.63302 1.1672 1.0766 0 0 1-1.1672-1.0766 1.1672 1.0766 0 0 1 0.68866-0.97967 2.3345 2.1531 0 0 0-0.68866-0.09689z" style="fill:url(#linearGradient864);stroke-width:1.121"/>
<path d="m7.8328 10.923v11.842h8.1706v2.1531h-3.5017v1.0766h9.3378v-1.0766h-3.5017v-2.1531h8.1706v-11.842h-17.508zm1.1672 1.0766h16.341v9.689h-16.341z" style="fill:url(#linearGradient864);stroke-width:1.121"/>
</g>
<path transform="matrix(.49531 0 0 .49531 .32409 .23228)" d="m4.7043 3.9815-0.012938 56.82h53.904l1.0222-2.8664s-23.875 0.76639-32.844-4.1404c-10.516-5.7529-15.372-49.697-15.372-49.697z" style="fill:url(#linearGradient3403);mix-blend-mode:normal;stroke-linejoin:round;stroke-width:1.1624;stroke:url(#linearGradient20558)"/>
<rect transform="matrix(.46399 0 0 .46305 1.1563 1.2331)" x="1.0324" y=".59551" width="62.567" height="62.867" rx="5.803" ry="6.2447" style="fill:none;stroke-linejoin:round;stroke-miterlimit:7.8;stroke-opacity:.99515;stroke-width:3.7137;stroke:url(#linearGradient4557)"/>
</svg>
