<?xml version="1.0" encoding="UTF-8" standalone="no"?>
<!-- Created with Inkscape (http://www.inkscape.org/) -->

<svg
   width="32"
   height="32"
   version="1.1"
   viewBox="0 0 32 32"
   id="svg22"
   sodipodi:docname="preferences-desktop-activities.svg"
   inkscape:version="1.1.2 (0a00cf5339, 2022-02-04)"
   xmlns:inkscape="http://www.inkscape.org/namespaces/inkscape"
   xmlns:sodipodi="http://sodipodi.sourceforge.net/DTD/sodipodi-0.dtd"
   xmlns:xlink="http://www.w3.org/1999/xlink"
   xmlns="http://www.w3.org/2000/svg"
   xmlns:svg="http://www.w3.org/2000/svg">
  <sodipodi:namedview
     id="namedview24"
     pagecolor="#ffffff"
     bordercolor="#666666"
     borderopacity="1.0"
     inkscape:showpageshadow="2"
     inkscape:pageopacity="0.0"
     inkscape:pagecheckerboard="0"
     inkscape:deskcolor="#d1d1d1"
     showgrid="false"
     inkscape:zoom="31.56"
     inkscape:cx="6.9074778"
     inkscape:cy="18.678707"
     inkscape:window-width="3440"
     inkscape:window-height="1356"
     inkscape:window-x="0"
     inkscape:window-y="0"
     inkscape:window-maximized="1"
     inkscape:current-layer="g869"
     inkscape:pageshadow="2" />
  <defs
     id="defs12">
    <linearGradient
       id="linearGradient1005-3-3"
       x1="5.2535"
       x2="9.3823996"
       y1="15.383"
       y2="2.9421"
       gradientTransform="matrix(0.99999,0,0,0.99999,1.632,-0.61743)"
       gradientUnits="userSpaceOnUse">
      <stop
         stop-color="#fa8200"
         offset="0"
         id="stop2" />
      <stop
         stop-color="#ff9600"
         offset=".36953"
         id="stop4" />
      <stop
         stop-color="#ffb400"
         offset="1"
         id="stop6" />
    </linearGradient>
    <filter
       id="filter4014"
       x="-0.062499933"
       y="-0.057692993"
       width="1.1249999"
       height="1.115386"
       color-interpolation-filters="sRGB">
      <feGaussianBlur
         stdDeviation="1.093751"
         id="feGaussianBlur9" />
    </filter>
    <linearGradient
       inkscape:collect="always"
       xlink:href="#linearGradient3487"
       id="linearGradient3403"
       gradientUnits="userSpaceOnUse"
       x1="6.9491749"
       y1="4.5549412"
       x2="11.215498"
       y2="59.052471" />
    <linearGradient
       id="linearGradient3487">
      <stop
         style="stop-color:#32373c;stop-opacity:1"
         offset="0"
         id="stop3481" />
      <stop
         id="stop3483"
         offset="0.36804965"
         style="stop-color:#1a1a1a;stop-opacity:1" />
      <stop
         style="stop-color:#31363b;stop-opacity:1"
         offset="1"
         id="stop3485" />
    </linearGradient>
    <linearGradient
       inkscape:collect="always"
       xlink:href="#linearGradient20604"
       id="linearGradient20558"
       gradientUnits="userSpaceOnUse"
       x1="25.802212"
       y1="20.373846"
       x2="25.111048"
       y2="58.912758" />
    <linearGradient
       id="linearGradient20604">
      <stop
         id="stop20598"
         offset="0"
         style="stop-color:#3d3d3d;stop-opacity:1" />
      <stop
         style="stop-color:#000000;stop-opacity:1"
         offset="0.61772454"
         id="stop20600" />
      <stop
         id="stop20602"
         offset="1"
         style="stop-color:#3d3d3d;stop-opacity:1" />
    </linearGradient>
    <filter
       inkscape:collect="always"
       style="color-interpolation-filters:sRGB"
       id="filter20720"
       x="-0.017024755"
       y="-0.016457183"
       width="1.0340491"
       height="1.0329144">
      <feGaussianBlur
         inkscape:collect="always"
         stdDeviation="0.14745661"
         id="feGaussianBlur20722" />
    </filter>
    <linearGradient
       gradientTransform="translate(0.36067797,-0.13016949)"
       xlink:href="#linearGradient4555"
       id="linearGradient4557"
       x1="43.499737"
       y1="64.011795"
       x2="44.141731"
       y2="0.30621234"
       gradientUnits="userSpaceOnUse" />
    <linearGradient
       id="linearGradient4555">
      <stop
         style="stop-color:#141618;stop-opacity:1"
         offset="0"
         id="stop4551" />
      <stop
         id="stop4559"
         offset="0.51820582"
         style="stop-color:#686868;stop-opacity:1" />
      <stop
         style="stop-color:#31363b;stop-opacity:1"
         offset="1"
         id="stop4553" />
    </linearGradient>
    <filter
       style="color-interpolation-filters:sRGB"
       id="filter4601"
       x="-0.030244762"
       width="1.0604895"
       y="-0.030100647"
       height="1.0602013">
      <feGaussianBlur
         stdDeviation="0.014790289"
         id="feGaussianBlur4603" />
    </filter>
    <linearGradient
       id="c"
       gradientTransform="matrix(0.875,0,0,1,2,0)"
       gradientUnits="userSpaceOnUse"
       x1="32"
       x2="32"
       y1="30"
       y2="2">
      <stop
         offset="0"
         stop-color="#171d25"
         id="stop16" />
      <stop
         offset="1"
         stop-color="#303236"
         id="stop18" />
    </linearGradient>
    <linearGradient
       id="d"
       gradientUnits="userSpaceOnUse"
       x1="22"
       x2="30"
       xlink:href="#b"
       y1="9"
       y2="17" />
    <linearGradient
       id="b">
      <stop
         offset="0"
         id="stop10" />
      <stop
         offset="1"
         stop-opacity="0"
         id="stop12" />
    </linearGradient>
    <linearGradient
       id="e"
       gradientUnits="userSpaceOnUse"
       x1="22"
       x2="29"
       xlink:href="#b"
       y1="23"
       y2="30" />
    <linearGradient
       id="f"
       gradientUnits="userSpaceOnUse"
       x1="16"
       x2="22"
       xlink:href="#a"
       y1="9"
       y2="15"
       gradientTransform="translate(1.8618082,-0.11477356)" />
    <linearGradient
       id="a">
      <stop
         offset="0"
         stop-color="#292c2f"
         id="stop2-5" />
      <stop
         offset="1"
         stop-opacity="0"
         id="stop4-9" />
    </linearGradient>
    <linearGradient
       id="g"
       gradientUnits="userSpaceOnUse"
       x1="16"
       x2="22"
       xlink:href="#a"
       y1="23.070999"
       y2="29.070999"
       gradientTransform="translate(1.8618082,-0.11477356)" />
  </defs>
  <g
     id="g869"
     transform="translate(0.6511825,0.04552282)">
    <path
       d="M 2,2 H 30 V 30 H 2 Z"
       fill="url(#c)"
       fill-rule="evenodd"
       id="path21"
       style="fill:url(#c)" />
    <path
       d="m 3,15 2,2 h 24 l 1,1 V 4 L 29,3 Z"
       fill="url(#d)"
       opacity="0.2"
       id="path23"
       style="fill:url(#d)" />
    <path
       d="m 3,29 1,1 H 30 V 18 l -1,-1 z"
       fill="url(#e)"
       opacity="0.2"
       id="path25"
       style="fill:url(#e)" />
    <path
       d="M 3,3 H 29 V 15 H 3 Z"
       fill="#397da1"
       fill-rule="evenodd"
       id="path27" />
    <path
       d="M 3,17 H 29 V 29 H 3 Z"
       fill="#4a4a4f"
       fill-rule="evenodd"
       id="path29" />
    <path
       d="m 18.861808,3.8852264 11,10.9999996 h -15 l -1,-1 1,-8.9999996 z"
       fill="url(#f)"
       opacity="0.2"
       id="path31"
       style="fill:url(#f)" />
    <path
       d="M 13.861808,13.885226 V 3.8852264 h 5 l 1,1 1,1 1,1 v 6.9999996 z m 1,-1 h 6 V 6.8852264 h -2 v -2 h -4 z"
       fill="#eff0f1"
       id="path33" />
    <path
       d="m 14.325808,26.492226 2.464,2.464 h 14.072 v -0.071 l -9.464,-9.465 -3.536,-1.464 -3,2 -2,3 z"
       fill="url(#g)"
       opacity="0.2"
       id="path35"
       style="fill:url(#g)" />
    <path
       d="m 17.861808,17.956226 a 5,5 0 0 0 -0.96,0.094 l -0.034,0.006 c -0.166,0.03 -0.329,0.069 -0.49,0.119 a 4.93,4.93 0 0 0 -0.959,0.422 4.428,4.428 0 0 0 -0.46,0.293 c -0.097,0.07 -0.193,0.14 -0.284,0.216 a 3.98,3.98 0 0 0 -0.118,0.104 c -0.096,0.085 -0.192,0.17 -0.28,0.262 -0.214,0.22 -0.403,0.461 -0.573,0.716 a 5.04,5.04 0 0 0 -0.057,0.08 4.986,4.986 0 0 0 -0.254,0.45 5.008,5.008 0 0 0 -0.215,0.496 c -0.032,0.086 -0.07,0.17 -0.097,0.258 -0.014,0.044 -0.021,0.09 -0.034,0.134 a 4.529,4.529 0 0 0 -0.095,0.42 5,5 0 0 0 -0.059,0.414 v 0.004 a 5,5 0 0 0 -0.031,0.512 5,5 0 0 0 0.1,0.994 c 0.03,0.166 0.069,0.329 0.119,0.49 a 4.926,4.926 0 0 0 0.422,0.959 4.428,4.428 0 0 0 0.293,0.46 4.628,4.628 0 0 0 0.32,0.402 c 0.085,0.096 0.17,0.192 0.262,0.28 0.22,0.214 0.461,0.403 0.717,0.573 0.026,0.02 0.053,0.038 0.08,0.057 0.119,0.076 0.241,0.145 0.367,0.21 l 0.082,0.044 a 5.008,5.008 0 0 0 0.496,0.215 c 0.086,0.032 0.17,0.07 0.258,0.097 0.044,0.014 0.09,0.021 0.135,0.033 a 4.69,4.69 0 0 0 0.419,0.096 5,5 0 0 0 0.403,0.057 l 0.011,0.002 h 0.004 a 5,5 0 0 0 0.512,0.031 5,5 0 0 0 0.96,-0.094 l 0.034,-0.006 c 0.166,-0.03 0.329,-0.069 0.49,-0.119 a 4.97,4.97 0 0 0 0.805,-0.34 l 0.102,-0.05 a 5,5 0 0 0 0.75,-0.506 c 0.02,-0.017 0.043,-0.032 0.064,-0.05 a 5,5 0 0 0 0.574,-0.573 c 0.04,-0.047 0.083,-0.09 0.121,-0.137 a 5,5 0 0 0 0.422,-0.625 c 0.039,-0.066 0.078,-0.131 0.114,-0.2 a 5,5 0 0 0 0.29,-0.685 c 0.016,-0.045 0.041,-0.085 0.055,-0.13 0.014,-0.045 0.021,-0.09 0.033,-0.135 l 0.004,-0.012 0.01,-0.041 a 5,5 0 0 0 0.139,-0.77 l 0.002,-0.011 v -0.004 a 5,5 0 0 0 0.031,-0.512 5,5 0 0 0 -0.1,-0.994 c -0.03,-0.166 -0.07,-0.33 -0.119,-0.49 -0.012,-0.038 -0.034,-0.072 -0.047,-0.11 a 5,5 0 0 0 -0.795,-1.477 c -0.029,-0.036 -0.05,-0.08 -0.08,-0.116 -0.052,-0.064 -0.113,-0.12 -0.17,-0.178 a 5,5 0 0 0 -0.841,-0.737 c -0.04,-0.027 -0.076,-0.055 -0.116,-0.082 a 5.02,5.02 0 0 0 -0.09,-0.056 4.656,4.656 0 0 0 -0.689,-0.37 c -0.045,-0.018 -0.094,-0.032 -0.14,-0.05 -0.11,-0.043 -0.219,-0.087 -0.329,-0.121 -0.044,-0.014 -0.09,-0.021 -0.134,-0.033 l -0.012,-0.004 a 4.589,4.589 0 0 0 -0.811,-0.149 l -0.011,-0.002 h -0.004 a 5,5 0 0 0 -0.512,-0.031 z m 0,1 a 4,4 0 0 1 2.117,0.613 c -0.002,0.005 -0.006,0.005 -0.008,0.012 0.018,0.037 0.065,0.04 0.108,0.049 l 0.066,0.045 c 0.025,0.034 0.045,0.07 0.06,0.11 a 0.37,0.37 0 0 1 0,0.14 c -0.028,0.072 -0.103,0.064 -0.187,0.062 -0.023,0 -0.041,0.002 -0.062,0 -0.141,-0.009 -0.28,-0.054 -0.344,0.047 0.004,0.077 0.017,0.12 0,0.188 -0.013,0.049 -0.065,0.082 -0.063,0.125 10e-4,0.021 0.042,0.063 0.047,0.093 0.004,0.017 -0.007,0.048 0,0.063 0.024,0.044 0.083,-0.007 0.125,0 0.04,0.006 0.078,0.065 0.078,0.11 a 0.27,0.27 0 0 1 -0.03,0.124 c -0.04,0.06 -0.115,0.046 -0.173,0.078 -0.047,0.028 -0.065,0.094 -0.093,0.141 -0.03,0.05 -0.06,0.068 -0.047,0.14 a 0.337,0.337 0 0 1 -0.172,0.173 0.398,0.398 0 0 0 -0.14,0.11 c -0.033,0.034 -0.077,0.05 -0.094,0.077 -0.013,0.02 -0.002,0.066 -0.016,0.094 -0.02,0.038 -0.053,0.07 -0.078,0.11 -0.012,0.017 -0.034,0.038 -0.047,0.062 -0.03,0.052 -0.068,0.094 -0.063,0.14 0.004,0.045 0.06,0.055 0.063,0.094 0.002,0.022 -0.017,0.039 -0.016,0.063 0.001,0.034 0.013,0.05 0.016,0.078 0.006,0.067 -0.034,0.094 -0.047,0.14 -0.006,0.022 0.005,0.046 0,0.063 -0.01,0.033 -0.062,0.054 -0.062,0.094 -10e-4,0.028 0.044,0.053 0.046,0.093 0.002,0.027 -0.02,0.053 -0.015,0.078 0.01,0.05 0.102,0.118 0.14,0.157 0.052,0.051 0.103,0.086 0.125,0.14 0.02,0.047 0.027,0.122 0.063,0.157 0.026,0.025 0.076,0.036 0.11,0.062 0.031,0.025 0.075,0.036 0.109,0.063 0.055,0.043 0.13,0.13 0.218,0.125 0.047,-0.004 0.09,-0.023 0.141,-0.032 0.054,-0.009 0.117,-0.036 0.172,-0.031 0.042,0.005 0.081,0.034 0.125,0.031 a 0.522,0.522 0 0 0 0.156,-0.047 c 0.09,-0.039 0.229,-0.112 0.36,-0.093 0.1,0.014 0.101,0.127 0.171,0.172 0.08,0.007 0.14,-0.016 0.204,0 0.048,0.011 0.104,0.102 0.109,0.14 0.005,0.04 -0.026,0.07 -0.031,0.094 -0.013,0.053 -0.022,0.123 -0.031,0.156 -0.007,0.027 -0.017,0.052 -0.016,0.078 0,0.024 0.038,0.079 0.062,0.11 0.03,0.038 0.073,0.067 0.11,0.109 0.066,0.076 0.094,0.18 0.14,0.281 0.012,0.026 -0.01,0.031 0,0.063 -0.02,0.152 -0.071,0.253 -0.171,0.422 -0.048,0.054 -0.095,0.119 -0.094,0.187 -0.004,0.164 0.085,0.248 0.078,0.406 v 0.006 a 4,4 0 0 1 -4.397,1.459 c 0,-0.005 0.006,-0.006 0.006,-0.012 -0.002,-0.026 -0.026,-0.038 -0.047,-0.062 -0.017,-0.02 -0.004,-0.044 -0.015,-0.063 -0.022,-0.031 -0.054,-0.047 -0.063,-0.093 0.066,-0.013 0.156,0.073 0.25,0.047 0.045,-0.013 0.12,-0.1 0.14,-0.141 0.007,-0.013 -0.006,-0.063 0,-0.078 0.009,-0.017 0.03,-0.022 0.032,-0.031 0.006,-0.025 -0.005,-0.032 0,-0.047 0.016,-0.047 0.067,-0.076 0.094,-0.11 0.02,-0.025 0.043,-0.051 0.062,-0.078 0.022,-0.028 0.033,-0.038 0.047,-0.062 0.014,-0.083 -0.051,-0.146 -0.031,-0.219 0.022,-0.082 0.14,-0.135 0.219,-0.172 0.027,-0.013 0.055,-0.039 0.078,-0.047 0.054,-0.019 0.12,-0.013 0.172,-0.031 0.085,-0.03 0.114,-0.125 0.156,-0.203 0.02,-0.036 0.043,-0.068 0.047,-0.094 0.003,-0.023 -0.005,-0.05 0,-0.078 0.005,-0.027 0.008,-0.048 0.015,-0.078 a 0.792,0.792 0 0 0 0.016,-0.156 c 0,-0.037 -0.015,-0.046 -0.016,-0.079 -0.006,-0.118 0.035,-0.123 0.079,-0.187 0.021,-0.032 0.031,-0.087 0.046,-0.11 0.074,-0.108 0.197,-0.162 0.188,-0.328 -0.004,-0.054 -0.023,-0.17 -0.063,-0.187 -0.022,-0.01 -0.075,-0.003 -0.109,-0.016 -0.107,-0.04 -0.185,-0.162 -0.297,-0.172 h -0.062 c -0.044,0 -0.092,-0.041 -0.14,-0.046 -0.032,-0.004 -0.092,0.009 -0.11,0 -0.028,-0.014 -0.024,-0.063 -0.047,-0.079 -0.018,-0.012 -0.05,-0.02 -0.078,-0.03 a 0.373,0.373 0 0 0 -0.125,-0.032 c -0.017,-0.001 -0.06,0.003 -0.078,0 -0.029,-0.005 -0.052,-0.03 -0.078,-0.047 -0.033,-0.02 -0.05,-0.034 -0.063,-0.062 0.03,-0.099 -0.074,-0.115 -0.094,-0.172 -0.009,-0.027 0.01,-0.07 0,-0.094 -0.011,-0.034 -0.04,-0.05 -0.078,-0.078 a 0.427,0.427 0 0 0 -0.219,-0.11 c -0.041,-0.005 -0.09,0.003 -0.14,0 a 0.246,0.246 0 0 1 -0.156,-0.078 c -0.039,-0.044 -0.045,-0.088 -0.079,-0.109 -0.031,-0.02 -0.087,-0.026 -0.109,-0.047 -0.01,-0.009 -0.007,-0.026 -0.015,-0.047 -0.017,-0.033 -0.052,-0.038 -0.032,-0.078 -0.036,-0.018 -0.023,0.023 -0.062,0.016 -0.036,-0.05 -0.06,-0.078 -0.14,-0.063 -0.037,0.007 -0.068,0.062 -0.11,0.063 -0.036,0 -0.063,-0.056 -0.11,-0.063 -0.035,-0.005 -0.084,0.037 -0.109,0.031 -0.039,-0.007 -0.043,-0.054 -0.078,-0.078 -0.026,-0.017 -0.08,-0.063 -0.094,-0.062 -0.045,0 -0.078,0.096 -0.14,0.062 -0.031,-0.039 0.052,-0.041 0.015,-0.078 -0.027,-0.027 -0.04,0.001 -0.062,0.016 -0.026,0.017 -0.05,0.037 -0.078,0.047 -0.063,0.023 -0.108,0.021 -0.157,0.047 -0.045,0.023 -0.051,0.063 -0.078,0.109 -0.02,0.038 -0.062,0.092 -0.093,0.094 -0.039,0.002 -0.075,-0.048 -0.11,-0.063 -0.104,-0.045 -0.163,0.03 -0.25,0.031 -0.08,0.001 -0.19,-0.127 -0.187,-0.203 0.002,-0.046 0.026,-0.114 0.03,-0.172 0.006,-0.045 0.047,-0.083 0.048,-0.125 0,-0.055 -0.089,-0.103 -0.125,-0.109 -0.052,-0.01 -0.112,0 -0.174,0.006 a 4,4 0 0 1 0.38,-1.152 c 0.004,0 0.01,0.005 0.013,0.006 0.029,0 0.035,-0.036 0.062,-0.032 0.027,0.005 0.074,0.061 0.078,0.094 0.004,0.04 -0.027,0.08 -0.015,0.125 0.042,0.044 0.126,0.068 0.187,0.094 0.04,-0.033 0.006,-0.11 0,-0.156 -10e-4,-0.021 0.002,-0.044 0,-0.063 -0.005,-0.033 -0.016,-0.066 -0.016,-0.094 0,-0.13 0.1,-0.183 0.188,-0.234 0.037,-0.022 0.077,-0.062 0.11,-0.078 0.046,-0.023 0.07,-0.025 0.109,-0.047 0.069,-0.04 0.134,-0.08 0.187,-0.125 0.025,-0.06 -0.002,-0.13 0,-0.188 0.025,-0.015 0.036,0.002 0.063,0 0.041,-0.009 0.054,-0.07 0.078,-0.093 0.013,-0.014 0.061,-0.018 0.078,-0.032 0.042,-0.032 0.042,-0.079 0.078,-0.093 0.013,-0.005 0.042,-0.01 0.062,-0.016 0.028,-0.007 0.066,-0.032 0.11,-0.047 0.028,-0.01 0.098,-0.005 0.11,-0.015 0.013,-0.014 -0.005,-0.073 0,-0.094 0.021,-0.103 0.173,-0.106 0.265,-0.14 0.063,-0.025 0.132,-0.077 0.203,-0.063 -0.014,0.049 -0.074,0.034 -0.063,0.093 0.016,0.083 0.112,-0.02 0.141,-0.03 0.056,-0.024 0.162,-0.037 0.234,-0.063 0.064,-0.023 0.17,-0.067 0.11,-0.141 -0.05,-0.003 -0.066,0.044 -0.11,0.063 -0.03,0.005 -0.037,-0.014 -0.062,-0.016 -0.025,-0.001 -0.038,0.02 -0.063,0.016 -0.024,-0.005 -0.058,-0.05 -0.062,-0.079 -0.01,-0.076 0.078,-0.1 0.11,-0.156 -0.022,-0.069 -0.114,-0.004 -0.173,-0.031 0.006,-0.041 0.03,-0.086 0.079,-0.094 a 0.314,0.314 0 0 1 0.156,0.031 c 0.013,0.012 -0.005,0.044 0.015,0.063 0.024,0.02 0.063,0.005 0.094,0 0.011,-0.052 -0.071,-0.029 -0.062,-0.063 0.061,-0.04 0.174,-0.02 0.25,-0.03 0.043,-0.007 0.086,-0.042 0.125,-0.063 0.036,-0.021 0.07,-0.05 0.109,-0.016 0.01,0.037 -0.026,0.06 -0.047,0.078 -0.07,0.062 -0.133,0.131 -0.187,0.203 0.033,0.033 0.084,0.01 0.14,0.016 0.022,0.003 0.056,0.012 0.078,0.016 0.028,0.005 0.057,-0.005 0.078,0 0.039,0.009 0.04,0.062 0.079,0.062 0.061,0 0.066,-0.052 0.03,-0.094 0.012,-0.043 0.032,-0.08 0.016,-0.11 -0.028,-0.055 -0.135,0.01 -0.14,-0.062 -0.004,-0.045 0.046,-0.059 0.062,-0.093 -0.007,-0.088 0.072,-0.093 0.063,-0.172 -0.005,-0.033 -0.04,-0.032 -0.063,-0.063 -0.012,-0.016 -0.018,-0.05 -0.031,-0.062 -0.012,-0.01 -0.028,-0.014 -0.043,-0.02 a 4,4 0 0 1 0.746,-0.074 z m 2.705,1.06 a 4,4 0 0 1 0.451,0.487 c -0.033,0 -0.065,0.016 -0.093,0.016 -0.04,0 -0.122,-0.02 -0.172,-0.016 -0.03,0.002 -0.05,0.014 -0.078,0.016 -0.08,0.006 -0.126,-0.005 -0.188,0 a 0.658,0.658 0 0 0 -0.172,0.046 c -0.02,0.01 -0.035,0.034 -0.062,0.047 -0.013,0.006 -0.03,0.008 -0.047,0.016 -0.026,0.012 -0.07,0.04 -0.094,0.047 -0.035,0.009 -0.076,-0.003 -0.14,0 -0.047,0.002 -0.125,-0.007 -0.126,-0.063 0,-0.084 0.155,-0.048 0.235,-0.062 0.03,-0.006 0.042,-0.042 0.078,-0.063 0.017,-0.01 0.03,-0.02 0.047,-0.031 0.027,-0.02 0.073,-0.056 0.078,-0.078 0.003,-0.02 -0.018,-0.048 -0.016,-0.063 0.004,-0.019 0.038,-0.038 0.063,-0.062 0.038,-0.038 0.062,-0.085 0.11,-0.11 0.031,-0.017 0.094,-0.021 0.109,-0.046 0.004,-0.03 -10e-4,-0.037 0,-0.063 l 0.017,-0.017 z m -6.69,2.604 c 0.025,0.035 0.051,0.07 0.079,0.086 0.002,0.03 -0.01,0.056 0,0.078 0.023,0.032 0.07,0.042 0.11,0.063 0.045,0.025 0.065,0.089 0.108,0.109 0.016,0.006 0.04,-0.007 0.063,0 0.06,0.018 0.073,0.11 0.125,0.094 0.034,-0.01 0.041,-0.061 0.047,-0.094 0.023,-0.024 0.042,-0.062 0.078,-0.062 0.056,-0.001 0.073,0.07 0.094,0.125 0.011,0.03 0.038,0.06 0.047,0.093 a 0.821,0.821 0 0 1 0,0.25 c -0.015,0.042 -0.075,0.064 -0.11,0.11 -0.016,0.021 -0.034,0.048 -0.047,0.062 -0.021,0.027 -0.046,0.038 -0.062,0.063 -0.01,0.013 -0.007,0.043 -0.016,0.062 -0.027,0.058 -0.07,0.102 -0.047,0.172 0.01,0.028 0.047,0.06 0.047,0.094 0,0.04 -0.087,0.05 -0.093,0.094 -0.005,0.031 0.036,0.097 0.046,0.14 0.007,0.032 0.06,0.057 0.078,0.078 0.032,0.036 0.065,0.08 0.094,0.125 0.058,0.088 0.085,0.195 0.14,0.282 0.03,0.044 0.09,0.077 0.11,0.125 0.01,0.023 -0.009,0.072 0,0.093 0.033,0.074 0.192,0.151 0.266,0.188 0.034,0.017 0.062,0.029 0.094,0.047 0.048,0.027 0.147,0.082 0.171,0.125 0.022,0.038 0.036,0.126 0.047,0.187 0.014,0.08 -0.004,0.148 0,0.235 0.002,0.047 0.016,0.077 0.016,0.125 v 0.062 c -10e-4,0.056 0.005,0.115 0,0.172 v 0.07 a 4,4 0 0 1 -1.484,-3.453 z"
       fill="#eff0f1"
       id="path37" />
  </g>
  <path
     style="display:inline;mix-blend-mode:normal;fill:url(#linearGradient3403);fill-opacity:1;stroke:url(#linearGradient20558);stroke-width:1.16242;stroke-linecap:butt;stroke-linejoin:round;stroke-miterlimit:4;stroke-dasharray:none;stroke-opacity:1;filter:url(#filter20720)"
     d="M 4.7043071,3.9814882 4.6913695,60.80196 H 58.59546 l 1.022155,-2.866369 c 0,0 -23.87537,0.766388 -32.844441,-4.140386 C 16.257548,48.042344 11.401114,4.0978197 11.401114,4.0978197 Z"
     id="path1686"
     sodipodi:nodetypes="ccccscc"
     transform="matrix(0.49530655,0,0,0.49530655,0.32409325,0.23228439)"
     inkscape:label="folder" />
  <rect
     style="display:inline;fill:none;fill-opacity:1;stroke:url(#linearGradient4557);stroke-width:3.71366;stroke-linejoin:round;stroke-miterlimit:7.8;stroke-dasharray:none;stroke-opacity:0.995146;filter:url(#filter4601)"
     id="rect4539"
     width="62.567089"
     height="62.866646"
     x="1.0323594"
     y="0.59551275"
     ry="6.2447233"
     rx="5.8029528"
     transform="matrix(0.46399463,0,0,0.4630489,1.1562887,1.2331482)"
     inkscape:label="contour" />
</svg>
