<svg width="32" height="32" version="1.1" viewBox="0 0 32 32" xmlns="http://www.w3.org/2000/svg" xmlns:xlink="http://www.w3.org/1999/xlink">
<defs>
<linearGradient id="linearGradient3403" x1="6.9492" x2="11.215" y1="4.5549" y2="59.052" gradientUnits="userSpaceOnUse">
<stop style="stop-color:#32373c" offset="0"/>
<stop style="stop-color:#1a1a1a" offset=".36805"/>
<stop style="stop-color:#31363b" offset="1"/>
</linearGradient>
<linearGradient id="linearGradient20558" x1="25.802" x2="25.111" y1="20.374" y2="58.913" gradientUnits="userSpaceOnUse">
<stop style="stop-color:#3d3d3d" offset="0"/>
<stop offset=".61772"/>
<stop style="stop-color:#3d3d3d" offset="1"/>
</linearGradient>
<linearGradient id="linearGradient4557" x1="43.5" x2="44.142" y1="64.012" y2=".30621" gradientTransform="translate(.36068 -.13017)" gradientUnits="userSpaceOnUse">
<stop style="stop-color:#141618" offset="0"/>
<stop style="stop-color:#686868" offset=".51821"/>
<stop style="stop-color:#31363b" offset="1"/>
</linearGradient>
<linearGradient id="c-3" x1="388.42" x2="388.42" y1="557.8" y2="505.8" gradientTransform="matrix(.58696 0 0 .53846 -227.99 -270.35)" gradientUnits="userSpaceOnUse">
<stop stop-color="#7f8c8d" offset="0"/>
<stop stop-color="#afb0b3" offset="1"/>
</linearGradient>
<linearGradient id="d-7" x1="-421.45" x2="-410.45" y1="-504.2" y2="-493.2" gradientUnits="userSpaceOnUse">
<stop stop-color="#292c2f" offset="0"/>
<stop stop-opacity="0" offset="1"/>
</linearGradient>
<linearGradient id="e-5" x1="1.333" x2="1.333" y1="48.714" y2="9.714" gradientTransform="matrix(.52174 0 0 .53846 -.696 -1.23)" gradientUnits="userSpaceOnUse">
<stop stop-color="#eef1f2" offset="0"/>
<stop stop-color="#f9fafb" offset="1"/>
</linearGradient>
</defs>
<g transform="matrix(1.1109 0 0 1 -.16727 -1.053)">
<path d="m9 2c-2.77 0-5 2.23-5 5v23h24v-23c0-2.77-2.23-5-5-5z" style="fill:url(#c-3)"/>
<path d="m7 27h18v3h-18z" style="fill:#292c2e"/>
<path d="m9 28h9v1h-9zm10 0h4v1h-4z" style="fill:#f6b44d"/>
<path d="m24 27h4v3h-4zm-20 0h4v3h-4z" style="fill:#292c2f;opacity:.2"/>
<path d="m4 27h4v3h-1zm20 0h4v3h-4z" style="fill:#292c2f;opacity:.2"/>
<path d="m24.535 5.465 3.465 3.463v21.072h-14l-8-8z" style="fill:url(#d-7);opacity:.2"/>
<path d="m11 4a5 5 0 0 0-5 5v4.768a3 3 0 0 1 0.996 2.117 2 2 0 0 1 4e-3 0.115 2 2 0 0 1-0.01 0.2 3 3 0 0 1 0 5e-3 3 3 0 0 1-0.99 2.025v3.77l3 3h14l3-3v-3.768a3 3 0 0 1-0.996-2.117 2 2 0 0 1-4e-3 -0.115 2 2 0 0 1 0.01-0.205 3 3 0 0 1 0.99-2.025v-4.77a5 5 0 0 0-5-5z" style="fill:url(#e-5)"/>
</g>
<path transform="matrix(.49531 0 0 .49531 .32409 .23228)" d="m4.7043 3.9815-0.012938 56.82h53.904l1.0222-2.8664s-23.875 0.76639-32.844-4.1404c-10.516-5.7529-15.372-49.697-15.372-49.697z" style="fill:url(#linearGradient3403);mix-blend-mode:normal;stroke-linejoin:round;stroke-width:1.1624;stroke:url(#linearGradient20558)"/>
<rect transform="matrix(.46399 0 0 .46305 1.1563 1.2331)" x="1.0324" y=".59551" width="62.567" height="62.867" rx="5.803" ry="6.2447" style="fill:none;stroke-linejoin:round;stroke-miterlimit:7.8;stroke-opacity:.99515;stroke-width:3.7137;stroke:url(#linearGradient4557)"/>
</svg>
