<svg width="32" height="32" version="1.1" viewBox="0 0 32 32" xmlns="http://www.w3.org/2000/svg" xmlns:xlink="http://www.w3.org/1999/xlink">
<defs>
<linearGradient id="linearGradient3403" x1="6.9492" x2="11.215" y1="4.5549" y2="59.052" gradientUnits="userSpaceOnUse">
<stop style="stop-color:#32373c" offset="0"/>
<stop style="stop-color:#1a1a1a" offset=".36805"/>
<stop style="stop-color:#31363b" offset="1"/>
</linearGradient>
<linearGradient id="linearGradient20558" x1="25.802" x2="25.111" y1="20.374" y2="58.913" gradientUnits="userSpaceOnUse">
<stop style="stop-color:#3d3d3d" offset="0"/>
<stop offset=".61772"/>
<stop style="stop-color:#3d3d3d" offset="1"/>
</linearGradient>
<linearGradient id="linearGradient4557" x1="43.5" x2="44.142" y1="64.012" y2=".30621" gradientTransform="translate(.36068 -.13017)" gradientUnits="userSpaceOnUse">
<stop style="stop-color:#141618" offset="0"/>
<stop style="stop-color:#686868" offset=".51821"/>
<stop style="stop-color:#31363b" offset="1"/>
</linearGradient>
<linearGradient id="linearGradient919" x1="7.4006" x2="33.063" y1="41.743" y2="7.1074" gradientTransform="matrix(.65876 0 0 .65876 .25841 .21589)" gradientUnits="userSpaceOnUse">
<stop style="stop-opacity:.99608" offset="0"/>
<stop style="stop-color:#353a3f;stop-opacity:.99608" offset="1"/>
</linearGradient>
<linearGradient id="f" x2="0" y1="25" y2="2" gradientTransform="translate(384.57 515.8)" gradientUnits="userSpaceOnUse">
<stop style="stop-color:#2a2c2f" offset="0"/>
<stop style="stop-color:#424649" offset="1"/>
</linearGradient>
<linearGradient id="g" x1="393.57" x2="410.57" y1="519.8" y2="536.8" gradientUnits="userSpaceOnUse">
<stop offset="0"/>
<stop style="stop-opacity:0" offset="1"/>
</linearGradient>
<linearGradient id="h" x2="0" y1="542.8" y2="538.8" gradientTransform="translate(0,2)" gradientUnits="userSpaceOnUse" xlink:href="#linearGradient4303"/>
<linearGradient id="linearGradient4303">
<stop style="stop-color:#c6cdd1" offset="0"/>
<stop style="stop-color:#e0e5e7" offset="1"/>
</linearGradient>
<linearGradient id="i" x2="0" y1="536.8" y2="518.8" gradientUnits="userSpaceOnUse">
<stop style="stop-color:#39a1d8" offset="0"/>
<stop style="stop-color:#4db4e8" offset="1"/>
</linearGradient>
<linearGradient id="j" x2="0" y1="524.8" y2="522.8" gradientTransform="matrix(1.2772 0 0 1.0627 -111.81 -30.489)" gradientUnits="userSpaceOnUse" xlink:href="#linearGradient4303"/>
<linearGradient id="k" x1="9" x2="23" y1="5" y2="19" gradientTransform="matrix(1.2772 0 0 1.0627 379.35 517.65)" gradientUnits="userSpaceOnUse">
<stop style="stop-color:#383e51" offset="0"/>
<stop style="stop-color:#655c6f;stop-opacity:0" offset="1"/>
</linearGradient>
</defs>
<rect x="2.342" y="2.2043" width="27.724" height="28.137" ry="0" style="fill-rule:evenodd;fill:url(#linearGradient919)"/>
<g transform="matrix(.82694 0 0 .96461 -314.35 -497.84)">
<g transform="matrix(.99442 0 0 .99442 2.1465 2.7645)">
<path d="m388.57 517.8c-2.216 0-4 1.784-4 4v15c0 2.216 1.784 4 4 4h24c2.216 0 4-1.784 4-4v-15c0-2.216-1.784-4-4-4zm0 1h24c1.662 0 3 1.784 3 4v14h-30v-14c0-2.216 1.338-4 3-4z" style="fill:url(#f);paint-order:stroke fill markers"/>
<path d="m414.57 519.8 1 3v14h-30l4 4h23c0.554 0 1.082-0.11 1.561-0.312a3.989 3.989 0 0 0 1.27-0.858c0.361-0.361 0.655-0.79 0.857-1.27a4.008 4.008 0 0 0 0.312-1.56v-15z" style="fill-rule:evenodd;fill:url(#g);opacity:.2"/>
<path d="m397.57 540.8h6v4h-6z" style="fill:url(#h)"/>
<path d="m394.57 544.8h12v1h-12z" style="fill:#99a1a7"/>
<path d="m388.57 518.8c-0.415 0-0.81 0.11-1.17 0.313-0.359 0.201-0.681 0.495-0.953 0.857-0.542 0.723-0.877 1.722-0.877 2.83v14h30v-14c0-1.108-0.334-2.107-0.877-2.83a3.117 3.117 0 0 0-0.953-0.857 2.371 2.371 0 0 0-1.17-0.313z" style="fill:url(#i)"/>
<path d="m390.85 527.21h17.88v-3.1881h-17.88z" style="fill:url(#j);stroke-width:1.165"/>
<path d="m397.23 536.78h21.712v-4.2508l-10.217-8.5016v3.1881h-17.88l5.1086 4.2508h-5.1086z" style="fill-rule:evenodd;fill:url(#k);stroke-width:1.165"/>
<path d="m390.85 531.46h17.88v-3.1881h-17.88z" style="fill:url(#j);stroke-width:1.165"/>
<ellipse cx="392.76" cy="525.62" rx=".63858" ry=".53135" style="fill:#4d4d4d;stroke-width:1.165"/>
<ellipse cx="392.76" cy="529.87" rx=".63858" ry=".53135" style="fill:#4d4d4d;stroke-width:1.165"/>
<ellipse cx="395.32" cy="529.87" rx=".63858" ry=".53135" style="fill:#4d4d4d;stroke-width:1.165"/>
<ellipse cx="397.87" cy="529.87" rx=".63858" ry=".53135" style="fill:#4d4d4d;stroke-width:1.165"/>
</g>
</g>
<path transform="matrix(.49531 0 0 .49531 .32409 .23228)" d="m4.7043 3.9815-0.012938 56.82h53.904l1.0222-2.8664s-23.875 0.76639-32.844-4.1404c-10.516-5.7529-15.372-49.697-15.372-49.697z" style="fill:url(#linearGradient3403);mix-blend-mode:normal;stroke-linejoin:round;stroke-width:1.1624;stroke:url(#linearGradient20558)"/>
<rect transform="matrix(.46399 0 0 .46305 1.1563 1.2331)" x="1.0324" y=".59551" width="62.567" height="62.867" rx="5.803" ry="6.2447" style="fill:none;stroke-linejoin:round;stroke-miterlimit:7.8;stroke-opacity:.99515;stroke-width:3.7137;stroke:url(#linearGradient4557)"/>
</svg>
