<svg width="32" height="32" version="1.1" viewBox="0 0 32 32" xmlns="http://www.w3.org/2000/svg" xmlns:xlink="http://www.w3.org/1999/xlink">
<defs>
<linearGradient id="linearGradient3403" x1="6.9492" x2="11.215" y1="4.5549" y2="59.052" gradientUnits="userSpaceOnUse">
<stop style="stop-color:#32373c" offset="0"/>
<stop style="stop-color:#1a1a1a" offset=".36805"/>
<stop style="stop-color:#31363b" offset="1"/>
</linearGradient>
<linearGradient id="linearGradient20558" x1="25.802" x2="25.111" y1="20.374" y2="58.913" gradientUnits="userSpaceOnUse">
<stop style="stop-color:#3d3d3d" offset="0"/>
<stop offset=".61772"/>
<stop style="stop-color:#3d3d3d" offset="1"/>
</linearGradient>
<linearGradient id="linearGradient4557" x1="43.5" x2="44.142" y1="64.012" y2=".30621" gradientTransform="translate(.36068 -.13017)" gradientUnits="userSpaceOnUse">
<stop style="stop-color:#141618" offset="0"/>
<stop style="stop-color:#686868" offset=".51821"/>
<stop style="stop-color:#31363b" offset="1"/>
</linearGradient>
<linearGradient id="linearGradient4643-8" x2="0" y1="543.8" y2="502.66" gradientTransform="matrix(.66667 0 0 .63518 128.19 198.52)" gradientUnits="userSpaceOnUse">
<stop style="stop-color:#c6cdd1" offset="0"/>
<stop style="stop-color:#e0e5e7" offset="1"/>
</linearGradient>
<linearGradient id="linearGradient4183" x1="391.57" x2="406.57" y1="525.8" y2="540.8" gradientTransform="translate(-7e-6,2.9e-5)" gradientUnits="userSpaceOnUse" xlink:href="#linearGradient4293"/>
<linearGradient id="linearGradient4293">
<stop offset="0"/>
<stop style="stop-opacity:0" offset="1"/>
</linearGradient>
<linearGradient id="e" x1="384.57" x2="411.57" y1="513.8" y2="538.8" gradientUnits="userSpaceOnUse" xlink:href="#linearGradient4293"/>
<linearGradient id="f" x1="391.19" x2="410.16" y1="530.46" y2="545.54" gradientTransform="translate(-.010239 -.010045)" gradientUnits="userSpaceOnUse" xlink:href="#linearGradient4293"/>
</defs>
<g transform="matrix(.87255 0 0 1 -333.16 -515.97)">
<rect x="384.57" y="517.8" width="32" height="28" rx="0" style="fill:url(#linearGradient4643-8)"/>
<path d="m385.57 543.8 30-20 1 1-1e-5 21-29 3e-5z" style="fill-rule:evenodd;fill:url(#linearGradient4183);opacity:.2"/>
<rect x="384.57" y="517.8" width="32" height="4" style="fill:#566069"/>
<rect x="384.57" y="521.8" width="32" height="1" style="fill:#3daee9"/>
<rect x="385.57" y="523.8" width="30" height="20" style="fill:#fff"/>
<rect x="413.29" y="518.8" width="2.285" height="2" rx="1.1425" style="fill:#eff0f1;stroke-width:1.0689"/>
<rect x="392.19" y="531.78" width="15.282" height="8" style="fill:#fff;stroke-width:4.2652"/>
<g transform="matrix(1.1461 0 0 1 -58.236 -.0039634)">
<path d="m392.56 529.79 8.0102 8.01h8l6 6h1v-8l-7.0102-7.01v1z" fill="url(#e)" opacity=".25" style="fill:url(#e)"/>
<path d="m393.02 539.79 4.325 4h17.219l-6-6v1h-11.601l-0.98372 1.3638-1.415-0.0308z" fill="url(#f)" opacity=".25" style="fill:url(#f)"/>
<path d="m401.06 526.79c-1.2139 0-2.219 0.85593-2.4492 2h-6.0508v1h6.0508c0.2302 1.1441 1.2354 2 2.4492 2s2.219-0.85593 2.4492-2h5.0508v-1h-5.0508c-0.2302-1.1441-1.2354-2-2.4492-2zm-6 9c-1.385 0-2.5 1.115-2.5 2.5s1.115 2.5 2.5 2.5c1.2139 0 2.219-0.85593 2.4492-2h11.051v-1h-11.051c-0.2302-1.1441-1.2354-2-2.4492-2zm0 1c0.831 0 1.5 0.669 1.5 1.5s-0.669 1.5-1.5 1.5-1.5-0.669-1.5-1.5 0.669-1.5 1.5-1.5z" fill="#353b3e"/>
</g>
</g>
<path transform="matrix(.49531 0 0 .49531 .32409 .23228)" d="m4.7043 3.9815-0.012938 56.82h53.904l1.0222-2.8664s-23.875 0.76639-32.844-4.1404c-10.516-5.7529-15.372-49.697-15.372-49.697z" style="fill:url(#linearGradient3403);mix-blend-mode:normal;stroke-linejoin:round;stroke-width:1.1624;stroke:url(#linearGradient20558)"/>
<rect transform="matrix(.46399 0 0 .46305 1.1563 1.2331)" x="1.0324" y=".59551" width="62.567" height="62.867" rx="5.803" ry="6.2447" style="fill:none;stroke-linejoin:round;stroke-miterlimit:7.8;stroke-opacity:.99515;stroke-width:3.7137;stroke:url(#linearGradient4557)"/>
</svg>
