<svg width="32" height="32" version="1.1" viewBox="0 0 32 32" xmlns="http://www.w3.org/2000/svg" xmlns:xlink="http://www.w3.org/1999/xlink">
<defs>
<linearGradient id="linearGradient3403" x1="6.9492" x2="11.215" y1="4.5549" y2="59.052" gradientUnits="userSpaceOnUse">
<stop style="stop-color:#32373c" offset="0"/>
<stop style="stop-color:#1a1a1a" offset=".36805"/>
<stop style="stop-color:#31363b" offset="1"/>
</linearGradient>
<linearGradient id="linearGradient20558" x1="25.802" x2="25.111" y1="20.374" y2="58.913" gradientUnits="userSpaceOnUse">
<stop style="stop-color:#3d3d3d" offset="0"/>
<stop offset=".61772"/>
<stop style="stop-color:#3d3d3d" offset="1"/>
</linearGradient>
<linearGradient id="linearGradient4557" x1="43.5" x2="44.142" y1="64.012" y2=".30621" gradientTransform="translate(.36068 -.13017)" gradientUnits="userSpaceOnUse">
<stop style="stop-color:#141618" offset="0"/>
<stop style="stop-color:#686868" offset=".51821"/>
<stop style="stop-color:#31363b" offset="1"/>
</linearGradient>
<linearGradient id="linearGradient919" x1="7.4006" x2="33.063" y1="41.743" y2="7.1074" gradientTransform="matrix(.65876 0 0 .65876 .25841 .21589)" gradientUnits="userSpaceOnUse">
<stop style="stop-opacity:.99608" offset="0"/>
<stop style="stop-color:#353a3f;stop-opacity:.99608" offset="1"/>
</linearGradient>
<linearGradient id="linearGradient4304" x2="0" y1="545.8" y2="517.8" gradientTransform="translate(-5.78e-6)" gradientUnits="userSpaceOnUse">
<stop style="stop-color:#42a603" offset="0"/>
<stop style="stop-color:#78da06" offset="1"/>
</linearGradient>
<linearGradient id="linearGradient4217" x2="0" y1="543.8" y2="503.8" gradientTransform="matrix(.7 0 0 .7 114.57 165.14)" gradientUnits="userSpaceOnUse">
<stop style="stop-color:#197cf1" offset="0"/>
<stop style="stop-color:#21c9fb" offset="1"/>
</linearGradient>
<linearGradient id="linearGradient4385" x1="401.57" x2="408.57" y1="524.8" y2="531.8" gradientTransform="translate(-5.78e-6)" gradientUnits="userSpaceOnUse" xlink:href="#linearGradient4227"/>
<linearGradient id="linearGradient4227">
<stop style="stop-color:#292c2f" offset="0"/>
<stop style="stop-opacity:0" offset="1"/>
</linearGradient>
<linearGradient id="linearGradient4389" x1="401.57" x2="408.57" y1="524.8" y2="531.8" gradientTransform="translate(6)" gradientUnits="userSpaceOnUse" xlink:href="#linearGradient4227"/>
<linearGradient id="linearGradient4207" x2="0" y1="537.8" y2="525.8" gradientTransform="translate(-5.78e-6)" gradientUnits="userSpaceOnUse">
<stop style="stop-color:#7cbaf8" offset="0"/>
<stop style="stop-color:#f4fcff" offset="1"/>
</linearGradient>
</defs>
<rect x="2.342" y="2.2043" width="27.724" height="28.137" ry="0" style="fill-rule:evenodd;fill:url(#linearGradient919)"/>
<g transform="translate(-383.87 -515.71)">
<path d="m392.57 517.8v28h19.023c1.9774 0 2.9774-1 2.9774-3l-1e-5 -18-7-7z" style="fill:url(#linearGradient4304)"/>
<path d="m414.57 524.8-7-7v4c0 2 1 3 3.0248 3z" style="fill-rule:evenodd;fill:#313437"/>
<path d="m386.57 520.8v22c0 2 1 3 3.0415 3h18.959v-21l-7-7h-12.019c-1.9809 0-2.9809 1-2.9809 3z" style="fill:url(#linearGradient4217)"/>
<path d="m408.57 524.8-7-7v4c0 2 1 3 2.9529 3z" style="fill-rule:evenodd;fill:#313437"/>
<path d="m401.57 524.8 7 7v-7z" style="fill-rule:evenodd;fill:url(#linearGradient4385);opacity:.01"/>
<path d="m407.57 524.8 7 7v-7z" style="fill-rule:evenodd;fill:url(#linearGradient4389);opacity:.2"/>
<path d="m392.57 525.8v12h6l4-4v-8h-9zm1 1h8v7h-3v3h-5z" style="fill:url(#linearGradient4207)"/>
</g>
<path transform="matrix(.49531 0 0 .49531 .32409 .23228)" d="m4.7043 3.9815-0.012938 56.82h53.904l1.0222-2.8664s-23.875 0.76639-32.844-4.1404c-10.516-5.7529-15.372-49.697-15.372-49.697z" style="fill:url(#linearGradient3403);mix-blend-mode:normal;stroke-linejoin:round;stroke-width:1.1624;stroke:url(#linearGradient20558)"/>
<rect transform="matrix(.46399 0 0 .46305 1.1563 1.2331)" x="1.0324" y=".59551" width="62.567" height="62.867" rx="5.803" ry="6.2447" style="fill:none;stroke-linejoin:round;stroke-miterlimit:7.8;stroke-opacity:.99515;stroke-width:3.7137;stroke:url(#linearGradient4557)"/>
</svg>
