<svg width="32" height="32" version="1.1" viewBox="0 0 32 32" xmlns="http://www.w3.org/2000/svg" xmlns:xlink="http://www.w3.org/1999/xlink">
<defs>
<linearGradient id="linearGradient3403" x1="6.9492" x2="11.215" y1="4.5549" y2="59.052" gradientUnits="userSpaceOnUse">
<stop style="stop-color:#32373c" offset="0"/>
<stop style="stop-color:#1a1a1a" offset=".36805"/>
<stop style="stop-color:#31363b" offset="1"/>
</linearGradient>
<linearGradient id="linearGradient20558" x1="25.802" x2="25.111" y1="20.374" y2="58.913" gradientUnits="userSpaceOnUse">
<stop style="stop-color:#3d3d3d" offset="0"/>
<stop offset=".61772"/>
<stop style="stop-color:#3d3d3d" offset="1"/>
</linearGradient>
<linearGradient id="linearGradient4557" x1="43.5" x2="44.142" y1="64.012" y2=".30621" gradientTransform="translate(.36068 -.13017)" gradientUnits="userSpaceOnUse">
<stop style="stop-color:#141618" offset="0"/>
<stop style="stop-color:#686868" offset=".51821"/>
<stop style="stop-color:#31363b" offset="1"/>
</linearGradient>
<linearGradient id="linearGradient4643-8" x2="0" y1="543.8" y2="502.66" gradientTransform="matrix(.66667 0 0 .63518 128.19 198.52)" gradientUnits="userSpaceOnUse">
<stop style="stop-color:#c6cdd1" offset="0"/>
<stop style="stop-color:#e0e5e7" offset="1"/>
</linearGradient>
<linearGradient id="linearGradient4183" x1="391.57" x2="406.57" y1="525.8" y2="540.8" gradientUnits="userSpaceOnUse">
<stop offset="0"/>
<stop style="stop-opacity:0" offset="1"/>
</linearGradient>
<linearGradient id="linearGradient4181" x2="0" y1="27" y2="9" gradientTransform="matrix(1.1111 0 0 1 381.24 515.8)" gradientUnits="userSpaceOnUse">
<stop style="stop-color:#2e3436" offset="0"/>
<stop style="stop-color:#555753" offset="1"/>
</linearGradient>
<linearGradient id="linearGradient4220" x1="18" x2="30" y1="15" y2="27" gradientTransform="matrix(1.1047 0 0 1 381.22 515.8)" gradientUnits="userSpaceOnUse">
<stop style="stop-color:#292c2f" offset="0"/>
<stop style="stop-opacity:0" offset="1"/>
</linearGradient>
</defs>
<g transform="matrix(.87259 0 0 1 -333.35 -515.86)">
<rect x="384.57" y="517.8" width="32" height="28" rx="0" style="fill:url(#linearGradient4643-8)"/>
<path d="m385.57 543.8 30-20 1 1-1e-5 21-29 3e-5z" style="fill-rule:evenodd;fill:url(#linearGradient4183);opacity:.2"/>
<rect x="384.57" y="517.8" width="32" height="4" style="fill:#566069"/>
<rect x="384.57" y="521.8" width="32" height="1" style="fill:#3daee9"/>
<rect x="385.57" y="523.8" width="30" height="20" style="fill:#fff"/>
<rect x="413.34" y="518.8" width="2.2285" height="2" rx="1.1142" style="fill:#eff0f1;stroke-width:1.0556"/>
<path d="m383.46 524.8v1h30v-1zm0 3v1h24.444v-1zm0 3v1h10v-1zm17.778 0v12h13.333v-12zm1.1111 1h11.111v10h-11.111v-1zm0 9h2.2222l2.2222-2-1.1111-1zm11.111 0-3.3333-3-3.3333 3zm-8.3333-8c-0.92334 0-1.6667 0.669-1.6667 1.5s0.74333 1.5 1.6667 1.5c0.92333 0 1.6667-0.669 1.6667-1.5s-0.74333-1.5-1.6667-1.5zm-21.667 1v1h15.556v-1zm0 3v1h12.222v-1zm0 3v1h15.556v-1z" style="color:#000000;fill:url(#linearGradient4181);stroke-width:2.1082"/>
<path d="m408.95 530.98-1.2148 0.5v0.31836h-2.2094s-1.1047 1-2.2094 1c-1.1047 0-1.1047 2-1.1047 2v3l1.1047 3 0.31285-0.49414 0.12946 1.1758 5.0812 4.3184h7.733v-9l-3.9765-4.0195 0.56098 1.5293z" style="fill-rule:evenodd;fill:url(#linearGradient4220);opacity:.2;stroke-width:1.051"/>
<path d="m407.94 530.8c-3.6606 0-6.628 2.6863-6.628 6s2.9675 6 6.628 6c3.6606 0 6.628-2.6863 6.628-6s-2.9675-6-6.628-6zm0 1c3.0505 0 5.5234 2.2386 5.5234 5 0 1.2051-0.49071 2.2948-1.2751 3.1582l-7.737-7.0039c0.95372-0.71009 2.1575-1.1543 3.4888-1.1543zm-4.2482 1.8418 7.737 7.0039c-0.95372 0.71009-2.1575 1.1543-3.4888 1.1543-3.0505 0-5.5234-2.2386-5.5234-5 0-1.2051 0.49071-2.2948 1.2751-3.1582z" style="color:#000000;fill:#da4453;stroke-width:2.1021"/>
</g>
<path transform="matrix(.49531 0 0 .49531 .32409 .23228)" d="m4.7043 3.9815-0.012938 56.82h53.904l1.0222-2.8664s-23.875 0.76639-32.844-4.1404c-10.516-5.7529-15.372-49.697-15.372-49.697z" style="fill:url(#linearGradient3403);mix-blend-mode:normal;stroke-linejoin:round;stroke-width:1.1624;stroke:url(#linearGradient20558)"/>
<rect transform="matrix(.46399 0 0 .46305 1.1563 1.2331)" x="1.0324" y=".59551" width="62.567" height="62.867" rx="5.803" ry="6.2447" style="fill:none;stroke-linejoin:round;stroke-miterlimit:7.8;stroke-opacity:.99515;stroke-width:3.7137;stroke:url(#linearGradient4557)"/>
</svg>
