<svg width="32" height="32" version="1.1" viewBox="0 0 32 32" xmlns="http://www.w3.org/2000/svg" xmlns:xlink="http://www.w3.org/1999/xlink">
<defs>
<linearGradient id="linearGradient3403" x1="6.9492" x2="11.215" y1="4.5549" y2="59.052" gradientUnits="userSpaceOnUse">
<stop style="stop-color:#32373c" offset="0"/>
<stop style="stop-color:#1a1a1a" offset=".36805"/>
<stop style="stop-color:#31363b" offset="1"/>
</linearGradient>
<linearGradient id="linearGradient20558" x1="25.802" x2="25.111" y1="20.374" y2="58.913" gradientUnits="userSpaceOnUse">
<stop style="stop-color:#3d3d3d" offset="0"/>
<stop offset=".61772"/>
<stop style="stop-color:#3d3d3d" offset="1"/>
</linearGradient>
<linearGradient id="linearGradient4557" x1="43.5" x2="44.142" y1="64.012" y2=".30621" gradientTransform="translate(.36068 -.13017)" gradientUnits="userSpaceOnUse">
<stop style="stop-color:#141618" offset="0"/>
<stop style="stop-color:#686868" offset=".51821"/>
<stop style="stop-color:#31363b" offset="1"/>
</linearGradient>
<linearGradient id="linearGradient4643-8" x2="0" y1="543.8" y2="502.66" gradientTransform="matrix(.66667 0 0 .63518 128.19 198.52)" gradientUnits="userSpaceOnUse">
<stop style="stop-color:#c6cdd1" offset="0"/>
<stop style="stop-color:#e0e5e7" offset="1"/>
</linearGradient>
<linearGradient id="linearGradient4183" x1="391.57" x2="406.57" y1="525.8" y2="540.8" gradientTransform="translate(-7e-6,2.9e-5)" gradientUnits="userSpaceOnUse" xlink:href="#linearGradient4293"/>
<linearGradient id="linearGradient4293">
<stop offset="0"/>
<stop style="stop-opacity:0" offset="1"/>
</linearGradient>
<linearGradient id="linearGradient4226" x1="9" x2="23" y1="11" y2="25" gradientUnits="userSpaceOnUse" xlink:href="#linearGradient4293"/>
<linearGradient id="linearGradient4224" x2="0" y1="25" y2="11" gradientUnits="userSpaceOnUse">
<stop style="stop-color:#2e3436" offset="0"/>
<stop style="stop-color:#555753" offset="1"/>
</linearGradient>
</defs>
<g transform="matrix(.87255 0 0 1 -333.16 -515.97)">
<rect x="384.57" y="517.8" width="32" height="28" rx="0" style="fill:url(#linearGradient4643-8)"/>
<path d="m385.57 543.8 30-20 1 1-1e-5 21-29 3e-5z" style="fill-rule:evenodd;fill:url(#linearGradient4183);opacity:.2"/>
<rect x="384.57" y="517.8" width="32" height="4" style="fill:#566069"/>
<rect x="384.57" y="521.8" width="32" height="1" style="fill:#3daee9"/>
<rect x="385.57" y="523.8" width="30" height="20" style="fill:#fff"/>
<rect x="413.29" y="518.8" width="2.285" height="2" rx="1.1425" style="fill:#eff0f1;stroke-width:1.0689"/>
<rect x="392.19" y="531.78" width="15.282" height="8" style="fill:#fff;stroke-width:4.2652"/>
<g transform="matrix(1.1461 0 0 1 -56.535 -.47377)">
<path transform="translate(384.57 515.8)" d="m16 11-2 4 2.332 2.332-1.332 0.66797-2-2-4 2 12 12h11v-3l-9-9z" style="fill-rule:evenodd;fill:url(#linearGradient4226);opacity:.2"/>
<path transform="translate(384.57 515.8)" d="m16 11-2 4h4zm-3 5-4 2 4 2zm6 0v4l4-2zm-3 1c-0.554 0-1 0.446-1 1s0.446 1 1 1 1-0.446 1-1-0.446-1-1-1zm-2 4 2 4 2-4z" style="fill:url(#linearGradient4224);stroke-width:.1"/>
</g>
</g>
<path transform="matrix(.49531 0 0 .49531 .32409 .23228)" d="m4.7043 3.9815-0.012938 56.82h53.904l1.0222-2.8664s-23.875 0.76639-32.844-4.1404c-10.516-5.7529-15.372-49.697-15.372-49.697z" style="fill:url(#linearGradient3403);mix-blend-mode:normal;stroke-linejoin:round;stroke-width:1.1624;stroke:url(#linearGradient20558)"/>
<rect transform="matrix(.46399 0 0 .46305 1.1563 1.2331)" x="1.0324" y=".59551" width="62.567" height="62.867" rx="5.803" ry="6.2447" style="fill:none;stroke-linejoin:round;stroke-miterlimit:7.8;stroke-opacity:.99515;stroke-width:3.7137;stroke:url(#linearGradient4557)"/>
</svg>
