<svg width="32" height="32" version="1.1" viewBox="0 0 32 32" xmlns="http://www.w3.org/2000/svg" xmlns:xlink="http://www.w3.org/1999/xlink">
<defs>
<linearGradient id="linearGradient3403" x1="6.9492" x2="11.215" y1="4.5549" y2="59.052" gradientUnits="userSpaceOnUse">
<stop style="stop-color:#32373c" offset="0"/>
<stop style="stop-color:#1a1a1a" offset=".36805"/>
<stop style="stop-color:#31363b" offset="1"/>
</linearGradient>
<linearGradient id="linearGradient20558" x1="25.802" x2="25.111" y1="20.374" y2="58.913" gradientUnits="userSpaceOnUse">
<stop style="stop-color:#3d3d3d" offset="0"/>
<stop offset=".61772"/>
<stop style="stop-color:#3d3d3d" offset="1"/>
</linearGradient>
<linearGradient id="linearGradient4557" x1="43.5" x2="44.142" y1="64.012" y2=".30621" gradientTransform="translate(.36068 -.13017)" gradientUnits="userSpaceOnUse">
<stop style="stop-color:#141618" offset="0"/>
<stop style="stop-color:#686868" offset=".51821"/>
<stop style="stop-color:#31363b" offset="1"/>
</linearGradient>
<linearGradient id="linearGradient4643" x2="0" y1="543.8" y2="502.66" gradientTransform="matrix(.66667 0 0 .68056 128.19 175.71)" gradientUnits="userSpaceOnUse">
<stop style="stop-color:#c6cdd1" offset="0"/>
<stop style="stop-color:#e0e5e7" offset="1"/>
</linearGradient>
<linearGradient id="linearGradient4183" x2="0" y1="540.8" y2="524.8" gradientUnits="userSpaceOnUse">
<stop style="stop-color:#f2f2f2" offset="0"/>
<stop style="stop-color:#f9f9f9" offset="1"/>
</linearGradient>
<linearGradient id="linearGradient4202" x1="407.57" x2="408.57" gradientUnits="userSpaceOnUse" xlink:href="#linearGradient4204"/>
<linearGradient id="linearGradient4204">
<stop style="stop-color:#23262c" offset="0"/>
<stop style="stop-color:#4e5462" offset=".7"/>
<stop style="stop-color:#23262c" offset="1"/>
</linearGradient>
<linearGradient id="linearGradient4169" x1="407.57" x2="408.57" gradientUnits="userSpaceOnUse">
<stop style="stop-color:#74868f" offset="0"/>
<stop style="stop-color:#d3d9dc" offset=".7"/>
<stop style="stop-color:#d6dddf" offset="1"/>
</linearGradient>
<linearGradient id="linearGradient4220" x1="407.57" x2="408.57" gradientUnits="userSpaceOnUse">
<stop style="stop-color:#147de1" offset="0"/>
<stop style="stop-color:#88bff4" offset=".7"/>
<stop style="stop-color:#3995ed" offset="1"/>
</linearGradient>
<linearGradient id="linearGradient4187" x1="400.57" x2="414.57" y1="525.8" y2="539.8" gradientTransform="translate(-384.57 -515.8)" gradientUnits="userSpaceOnUse">
<stop style="stop-color:#292c2f" offset="0"/>
<stop style="stop-opacity:0" offset="1"/>
</linearGradient>
<linearGradient id="linearGradient4241" x1="23" x2="24" gradientUnits="userSpaceOnUse" xlink:href="#linearGradient4204"/>
<linearGradient id="linearGradient877" x1="385.57" x2="415.57" y1="544.8" y2="544.8" gradientUnits="userSpaceOnUse">
<stop style="stop-color:#c6cdd1" offset="0"/>
<stop style="stop-color:#cfd7da" offset="1"/>
</linearGradient>
</defs>
<g transform="matrix(.91905 0 0 1 -352.12 -516.05)">
<rect x="384.57" y="517.8" width="32" height="28" rx="2.1084" ry="2" style="fill:url(#linearGradient4643)"/>
<rect x="384.57" y="517.8" width="32" height="5" rx="2" ry="2" style="fill:#23262c"/>
<rect x="411.57" y="519.8" width="3" height="1" style="fill:#3995ed"/>
<rect x="386.57" y="519.8" width="3" height="1" style="fill:#ebf4fd"/>
<rect x="387.57" y="524.8" width="26" height="16" style="fill:url(#linearGradient4183)"/>
<rect x="387.57" y="524.8" width="26" height="1" style="fill:#cad3d6"/>
<rect x="407.57" y="526.8" width=".99999" height="7" style="fill:url(#linearGradient4202)"/>
<rect x="407.57" y="533.8" width="1" height="5" style="fill:url(#linearGradient4169)"/>
<rect x="407.57" y="537.8" width="1" height="1" style="fill:url(#linearGradient4220)"/>
<path transform="translate(384.57 515.8)" d="m24 11-0.5 13 6 6h2.5v-11l-2-2z" style="fill-rule:evenodd;fill:url(#linearGradient4187);opacity:.2"/>
<path transform="translate(384.57 515.8)" d="m23 23v0.30078l0.5 0.69922 0.5-0.69922v-0.30078z" style="fill-rule:evenodd;fill:url(#linearGradient4241)"/>
<rect x="385.57" y="543.8" width="30" height="2" ry=".99999" style="fill:url(#linearGradient877)"/>
</g>
<path transform="matrix(.49531 0 0 .49531 .32409 .23228)" d="m4.7043 3.9815-0.012938 56.82h53.904l1.0222-2.8664s-23.875 0.76639-32.844-4.1404c-10.516-5.7529-15.372-49.697-15.372-49.697z" style="fill:url(#linearGradient3403);mix-blend-mode:normal;stroke-linejoin:round;stroke-width:1.1624;stroke:url(#linearGradient20558)"/>
<rect transform="matrix(.46399 0 0 .46305 1.1563 1.2331)" x="1.0324" y=".59551" width="62.567" height="62.867" rx="5.803" ry="6.2447" style="fill:none;stroke-linejoin:round;stroke-miterlimit:7.8;stroke-opacity:.99515;stroke-width:3.7137;stroke:url(#linearGradient4557)"/>
</svg>
