<?xml version="1.0" encoding="UTF-8" standalone="no"?>
<!-- Created with Inkscape (http://www.inkscape.org/) -->

<svg
   width="32"
   height="32"
   version="1.1"
   viewBox="0 0 32 32"
   id="svg22"
   sodipodi:docname="preferences-system-network-iscsi.svg"
   inkscape:version="1.1.2 (0a00cf5339, 2022-02-04)"
   xmlns:inkscape="http://www.inkscape.org/namespaces/inkscape"
   xmlns:sodipodi="http://sodipodi.sourceforge.net/DTD/sodipodi-0.dtd"
   xmlns:xlink="http://www.w3.org/1999/xlink"
   xmlns="http://www.w3.org/2000/svg"
   xmlns:svg="http://www.w3.org/2000/svg">
  <sodipodi:namedview
     id="namedview24"
     pagecolor="#ffffff"
     bordercolor="#666666"
     borderopacity="1.0"
     inkscape:showpageshadow="2"
     inkscape:pageopacity="0.0"
     inkscape:pagecheckerboard="0"
     inkscape:deskcolor="#d1d1d1"
     showgrid="false"
     inkscape:zoom="25.62"
     inkscape:cx="11.202186"
     inkscape:cy="16.900859"
     inkscape:window-width="3440"
     inkscape:window-height="1356"
     inkscape:window-x="0"
     inkscape:window-y="0"
     inkscape:window-maximized="1"
     inkscape:current-layer="svg22"
     inkscape:pageshadow="2" />
  <defs
     id="defs12">
    <linearGradient
       id="linearGradient1005-3-3"
       x1="5.2535"
       x2="9.3823996"
       y1="15.383"
       y2="2.9421"
       gradientTransform="matrix(0.99999,0,0,0.99999,1.632,-0.61743)"
       gradientUnits="userSpaceOnUse">
      <stop
         stop-color="#fa8200"
         offset="0"
         id="stop2" />
      <stop
         stop-color="#ff9600"
         offset=".36953"
         id="stop4" />
      <stop
         stop-color="#ffb400"
         offset="1"
         id="stop6" />
    </linearGradient>
    <filter
       id="filter4014"
       x="-0.062499933"
       y="-0.057692993"
       width="1.1249999"
       height="1.115386"
       color-interpolation-filters="sRGB">
      <feGaussianBlur
         stdDeviation="1.093751"
         id="feGaussianBlur9" />
    </filter>
    <linearGradient
       inkscape:collect="always"
       xlink:href="#linearGradient3487"
       id="linearGradient3403"
       gradientUnits="userSpaceOnUse"
       x1="6.9491749"
       y1="4.5549412"
       x2="11.215498"
       y2="59.052471" />
    <linearGradient
       id="linearGradient3487">
      <stop
         style="stop-color:#32373c;stop-opacity:1"
         offset="0"
         id="stop3481" />
      <stop
         id="stop3483"
         offset="0.36804965"
         style="stop-color:#1a1a1a;stop-opacity:1" />
      <stop
         style="stop-color:#31363b;stop-opacity:1"
         offset="1"
         id="stop3485" />
    </linearGradient>
    <linearGradient
       inkscape:collect="always"
       xlink:href="#linearGradient20604"
       id="linearGradient20558"
       gradientUnits="userSpaceOnUse"
       x1="25.802212"
       y1="20.373846"
       x2="25.111048"
       y2="58.912758" />
    <linearGradient
       id="linearGradient20604">
      <stop
         id="stop20598"
         offset="0"
         style="stop-color:#3d3d3d;stop-opacity:1" />
      <stop
         style="stop-color:#000000;stop-opacity:1"
         offset="0.61772454"
         id="stop20600" />
      <stop
         id="stop20602"
         offset="1"
         style="stop-color:#3d3d3d;stop-opacity:1" />
    </linearGradient>
    <filter
       inkscape:collect="always"
       style="color-interpolation-filters:sRGB"
       id="filter20720"
       x="-0.017024755"
       y="-0.016457183"
       width="1.0340491"
       height="1.0329144">
      <feGaussianBlur
         inkscape:collect="always"
         stdDeviation="0.14745661"
         id="feGaussianBlur20722" />
    </filter>
    <linearGradient
       gradientTransform="translate(0.36067797,-0.13016949)"
       xlink:href="#linearGradient4555"
       id="linearGradient4557"
       x1="43.499737"
       y1="64.011795"
       x2="44.141731"
       y2="0.30621234"
       gradientUnits="userSpaceOnUse" />
    <linearGradient
       id="linearGradient4555">
      <stop
         style="stop-color:#141618;stop-opacity:1"
         offset="0"
         id="stop4551" />
      <stop
         id="stop4559"
         offset="0.51820582"
         style="stop-color:#686868;stop-opacity:1" />
      <stop
         style="stop-color:#31363b;stop-opacity:1"
         offset="1"
         id="stop4553" />
    </linearGradient>
    <filter
       style="color-interpolation-filters:sRGB"
       id="filter4601"
       x="-0.030244762"
       width="1.0604895"
       y="-0.030100647"
       height="1.0602013">
      <feGaussianBlur
         stdDeviation="0.014790289"
         id="feGaussianBlur4603" />
    </filter>
    <linearGradient
       id="b"
       gradientTransform="matrix(0.58696,0,0,0.53846,-227.988,-270.353)"
       gradientUnits="userSpaceOnUse"
       x1="388.423"
       x2="388.423"
       y1="557.79797"
       y2="505.798">
      <stop
         offset="0"
         stop-color="#7f8c8d"
         id="stop19" />
      <stop
         offset="1"
         stop-color="#afb0b3"
         id="stop21" />
    </linearGradient>
    <linearGradient
       id="c"
       gradientUnits="userSpaceOnUse"
       x1="-421.44699"
       x2="-410.44699"
       xlink:href="#a"
       y1="-504.20401"
       y2="-493.20401" />
    <linearGradient
       id="a">
      <stop
         offset="0"
         stop-color="#292c2f"
         id="stop2-6" />
      <stop
         offset="1"
         stop-opacity="0"
         id="stop4-4" />
    </linearGradient>
    <linearGradient
       id="d"
       gradientTransform="matrix(0.52174,0,0,0.53846,-0.696,-1.23)"
       gradientUnits="userSpaceOnUse"
       x1="1.3329999"
       x2="1.3329999"
       y1="48.714001"
       y2="9.7139997">
      <stop
         offset="0"
         stop-color="#eef1f2"
         id="stop14" />
      <stop
         offset="1"
         stop-color="#f9fafb"
         id="stop16" />
    </linearGradient>
    <linearGradient
       id="e"
       gradientUnits="userSpaceOnUse"
       x1="10"
       x2="24"
       xlink:href="#a"
       y1="9"
       y2="23" />
    <linearGradient
       id="f"
       gradientUnits="userSpaceOnUse"
       x1="16"
       x2="16"
       y1="22"
       y2="6">
      <stop
         offset="0"
         stop-color="#3e3e3e"
         id="stop8" />
      <stop
         offset="1"
         stop-color="#5c5c5c"
         id="stop10" />
    </linearGradient>
  </defs>
  <g
     id="g875"
     transform="translate(2.0926353,-0.09896441)">
    <path
       d="M 4,2 H 28 V 30 H 4 Z"
       fill="url(#b)"
       id="path24"
       style="fill:url(#b)" />
    <path
       d="m 7,27 h 18 v 3 H 7 Z"
       fill="#292c2e"
       id="path26" />
    <path
       d="m 9,28 h 9 v 1 H 9 Z m 10,0 h 4 v 1 h -4 z"
       fill="#f6b44d"
       id="path28" />
    <path
       d="m 24,27 h 4 v 3 H 24 Z M 4,27 h 4 v 3 H 4 Z"
       fill="#292c2f"
       opacity="0.2"
       id="path30" />
    <path
       d="m 4,27 h 4 v 3 H 7 Z m 20,0 h 4 v 3 h -4 z"
       fill="#292c2f"
       opacity="0.2"
       id="path32" />
    <path
       d="M 24.535,5.465 28,8.928 V 30 H 14 L 6,22 Z"
       fill="url(#c)"
       opacity="0.2"
       id="path34"
       style="fill:url(#c)" />
    <path
       d="M 11,4 A 5,5 0 0 0 6,9 v 4.768 A 3,3 0 0 1 6.996,15.885 2,2 0 0 1 7,16 2,2 0 0 1 6.99,16.2 3,3 0 0 1 6.99,16.205 3,3 0 0 1 6,18.23 V 22 l 3,3 h 14 l 3,-3 V 18.232 A 3,3 0 0 1 25.004,16.115 2,2 0 0 1 25,16 2,2 0 0 1 25.01,15.795 3,3 0 0 1 26,13.77 V 9 A 5,5 0 0 0 21,4 Z"
       fill="url(#d)"
       id="path36"
       style="fill:url(#d)" />
    <path
       d="m 4,29 h 3 v 1 H 4 Z m 21,0 h 3 v 1 h -3 z"
       fill="#292c2f"
       opacity="0.2"
       id="path38" />
    <path
       d="M 17.676,27 H 28 V 14.676 L 21.663,8.338 16,6 l -6,3 -1.56,5 1.899,5.662 z"
       fill="url(#e)"
       opacity="0.2"
       id="path40"
       style="fill:url(#e)" />
    <path
       d="M 16.004,6 C 15.685,6 15.376,6.026 15.066,6.063 A 8.18,8.18 0 0 0 14.16,6.219 C 14.066,6.241 13.975,6.286 13.88,6.313 13.795,6.336 13.712,6.35 13.63,6.376 13.524,6.409 13.415,6.435 13.316,6.47 13.209,6.508 13.109,6.553 13.003,6.595 12.797,6.678 12.607,6.777 12.41,6.875 12.339,6.912 12.26,6.932 12.19,6.97 11.96,7.09 11.75,7.233 11.535,7.376 11.453,7.431 11.365,7.474 11.285,7.531 11.252,7.555 11.224,7.569 11.191,7.594 11.097,7.665 11,7.736 10.91,7.814 10.803,7.902 10.7,8 10.597,8.094 10.565,8.124 10.535,8.158 10.503,8.188 l -0.031,0.031 c -0.016,0.016 -0.015,0.047 -0.031,0.063 -0.21,0.204 -0.44,0.399 -0.625,0.625 -0.005,0.01 0.005,0.025 0,0.03 C 9.635,9.157 9.473,9.386 9.316,9.626 9.295,9.658 9.274,9.686 9.253,9.72 9.238,9.744 9.206,9.757 9.19,9.783 9.13,9.881 9.089,9.992 9.034,10.095 c -0.018,0.033 -0.045,0.061 -0.063,0.094 -0.075,0.146 -0.15,0.29 -0.22,0.438 -0.003,0.01 0.005,0.023 0,0.031 a 8.026,8.026 0 0 0 -0.312,0.78 c -0.019,0.054 -0.045,0.104 -0.063,0.157 -0.003,0.01 0.003,0.022 0,0.03 -0.02,0.063 -0.044,0.126 -0.063,0.189 -0.073,0.256 -0.14,0.513 -0.188,0.78 -0.034,0.192 -0.074,0.397 -0.094,0.594 A 8.104,8.104 0 0 0 8,14.001 c 0,0.403 0.036,0.8 0.094,1.187 0.006,0.041 -0.007,0.085 0,0.125 0.044,0.266 0.118,0.525 0.188,0.78 0.026,0.097 0.064,0.187 0.094,0.282 0.04,0.129 0.079,0.249 0.125,0.374 a 7.9,7.9 0 0 0 0.25,0.625 c 0.05,0.106 0.102,0.21 0.156,0.313 a 8,8 0 0 0 0.5,0.844 c 0.016,0.024 0.046,0.039 0.063,0.063 0.198,0.28 0.394,0.56 0.625,0.812 0.04,0.044 0.084,0.082 0.125,0.125 0.04,0.042 0.084,0.084 0.125,0.125 0.214,0.214 0.45,0.405 0.688,0.594 0.306,0.244 0.629,0.459 0.969,0.655 0.012,0.01 0.019,0.024 0.03,0.031 0.054,0.03 0.104,0.065 0.157,0.094 0.315,0.156 0.691,0.325 0.937,0.438 0.11,0.042 0.231,0.057 0.344,0.094 0.053,0.018 0.103,0.046 0.156,0.063 0.136,0.041 0.268,0.09 0.406,0.125 l 0.125,0.031 c 0.292,0.07 0.602,0.121 0.906,0.156 0.31,0.036 0.618,0.063 0.938,0.063 0.34,0 0.67,-0.021 1,-0.063 0.365,-0.048 0.68,-0.124 1,-0.188 A 7.909,7.909 0 0 0 22.219,19 c 0.028,-0.035 0.067,-0.058 0.094,-0.094 0.01,-0.012 0.022,-0.02 0.031,-0.03 0.014,-0.019 0.018,-0.045 0.031,-0.064 a 7.964,7.964 0 0 0 1.344,-2.811 c 0.056,-0.217 0.118,-0.432 0.156,-0.656 0.005,-0.03 -0.005,-0.063 0,-0.094 0.006,-0.04 0.025,-0.079 0.031,-0.125 0.006,-0.043 0.026,-0.082 0.031,-0.125 h -0.03 c 0.043,-0.329 0.093,-0.659 0.093,-1 0,-0.551 -0.05,-1.103 -0.156,-1.624 -0.009,-0.043 -0.022,-0.082 -0.03,-0.125 -0.047,-0.207 -0.125,-0.422 -0.189,-0.624 -0.003,-0.01 0.003,-0.022 0,-0.031 a 3.439,3.439 0 0 0 -0.03,-0.094 c -0.04,-0.12 -0.082,-0.258 -0.126,-0.375 -0.012,-0.032 -0.018,-0.064 -0.03,-0.094 -0.044,-0.11 -0.109,-0.206 -0.157,-0.313 -0.002,0 0.002,-0.026 0,-0.031 -0.025,-0.054 -0.068,-0.103 -0.094,-0.156 A 7.813,7.813 0 0 0 22.875,9.94 C 22.817,9.842 22.781,9.724 22.719,9.628 22.695,9.592 22.65,9.57 22.625,9.534 22.558,9.434 22.478,9.349 22.406,9.253 22.326,9.153 22.266,9.037 22.187,8.94 22.182,8.93 22.192,8.915 22.187,8.909 22.015,8.699 21.817,8.506 21.624,8.315 21.531,8.223 21.44,8.121 21.344,8.035 21.315,8.009 21.278,7.996 21.249,7.971 a 8.131,8.131 0 0 0 -0.656,-0.5 C 20.538,7.434 20.493,7.384 20.437,7.347 20.367,7.301 20.289,7.266 20.218,7.222 20.084,7.138 19.953,7.048 19.813,6.972 A 8.093,8.093 0 0 0 19.438,6.784 7.9,7.9 0 0 0 18.782,6.503 7.649,7.649 0 0 0 17.969,6.253 7.757,7.757 0 0 0 16,6.003 m 0,1 a 7.023,7.023 0 0 1 1.406,0.157 h 0.03 c 0.167,0.035 0.339,0.079 0.5,0.125 0.097,0.027 0.188,0.063 0.282,0.094 0.172,0.057 0.334,0.117 0.5,0.188 0.194,0.08 0.379,0.152 0.563,0.25 l -0.094,0.03 a 0.319,0.319 0 0 0 -0.125,0.125 c -0.02,0.048 0.005,0.115 0,0.188 0.038,0.017 0.06,0.09 0.125,0.125 0.025,0.014 0.04,-0.01 0.063,0 0.038,0.021 0.07,0.087 0.063,0.125 -0.011,0.055 -0.088,0.022 -0.125,0.063 0.006,0.078 -0.043,0.105 -0.063,0.156 0.012,0.033 0.057,0.024 0.063,0.063 -0.007,0.043 -0.08,0.049 -0.063,0.094 0.072,0.056 0.15,-0.022 0.219,-0.031 0.149,-0.02 0.283,0.04 0.375,-0.031 -0.012,-0.071 0.1,-0.092 0.094,-0.156 C 19.807,8.52 19.723,8.507 19.688,8.474 19.668,8.456 19.648,8.415 19.625,8.38 19.599,8.34 19.561,8.293 19.531,8.255 19.491,8.203 19.406,8.138 19.406,8.099 c 0,-0.045 0.052,-0.063 0.063,-0.125 -0.012,-0.057 -0.117,0 -0.125,-0.063 a 0.162,0.162 0 0 1 0.03,-0.063 c 0.15,0.082 0.299,0.179 0.439,0.281 l 0.094,0.063 c 0.108,0.081 0.207,0.17 0.313,0.25 -0.067,0.012 -0.101,0.09 -0.156,0.156 a 0.464,0.464 0 0 1 -0.156,0.125 c -0.028,0.012 -0.068,-0.016 -0.094,0 -0.037,0.025 -0.051,0.096 -0.094,0.125 -0.031,0.02 -0.124,0.094 -0.156,0.094 -0.038,0 -0.098,-0.04 -0.125,-0.031 -0.04,0.013 -0.017,0.077 -0.063,0.094 -0.088,0.03 -0.25,-0.07 -0.281,0.063 0.038,0.076 0.153,0.05 0.219,0.094 a 0.475,0.475 0 0 1 0.125,0.188 0.644,0.644 0 0 1 0,0.219 c -0.041,0.106 -0.16,0.097 -0.281,0.094 -0.034,-10e-4 -0.063,0 -0.094,0 -0.207,-0.014 -0.407,-0.085 -0.5,0.063 0.007,0.113 0.025,0.183 0,0.28 -0.018,0.072 -0.097,0.125 -0.094,0.188 0.002,0.032 0.055,0.082 0.063,0.125 0.005,0.023 -0.011,0.073 0,0.094 0.034,0.066 0.127,-0.01 0.188,0 0.059,0.01 0.126,0.121 0.125,0.188 a 0.346,0.346 0 0 1 -0.063,0.156 c -0.058,0.09 -0.167,0.077 -0.25,0.125 -0.07,0.039 -0.084,0.119 -0.125,0.188 -0.044,0.074 -0.081,0.11 -0.063,0.219 a 0.485,0.485 0 0 1 -0.25,0.25 c -0.037,0.017 -0.092,0.039 -0.125,0.063 a 0.63,0.63 0 0 0 -0.094,0.094 c -0.047,0.052 -0.1,0.085 -0.125,0.125 -0.02,0.03 -0.01,0.084 -0.031,0.125 -0.03,0.056 -0.088,0.1 -0.125,0.156 -0.017,0.026 -0.043,0.059 -0.063,0.094 -0.042,0.077 -0.101,0.15 -0.094,0.218 0.007,0.066 0.089,0.068 0.094,0.125 0.004,0.032 -0.033,0.06 -0.031,0.094 0,0.051 0.027,0.086 0.03,0.125 0.01,0.1 -0.043,0.12 -0.062,0.188 -0.01,0.032 0.008,0.068 0,0.094 -0.016,0.05 -0.093,0.098 -0.094,0.156 -0.001,0.042 0.059,0.097 0.063,0.156 0.002,0.04 -0.038,0.057 -0.031,0.094 0.014,0.073 0.162,0.162 0.219,0.219 0.075,0.075 0.155,0.139 0.188,0.219 0.027,0.067 0.04,0.168 0.094,0.219 0.039,0.037 0.106,0.054 0.156,0.094 0.047,0.036 0.107,0.055 0.156,0.094 0.08,0.064 0.183,0.197 0.313,0.188 0.068,-0.01 0.142,-0.05 0.219,-0.063 0.079,-0.014 0.17,-0.04 0.25,-0.031 0.06,0.01 0.124,0.066 0.188,0.063 0.067,0 0.143,-0.061 0.219,-0.094 0.131,-0.057 0.338,-0.153 0.53,-0.125 0.146,0.02 0.15,0.217 0.25,0.28 0.118,0.01 0.22,-0.053 0.313,-0.03 0.07,0.017 0.15,0.132 0.156,0.188 0.007,0.058 -0.054,0.12 -0.063,0.156 -0.018,0.078 -0.017,0.169 -0.03,0.218 -0.012,0.038 -0.033,0.086 -0.032,0.125 a 0.54,0.54 0 0 0 0.094,0.188 c 0.044,0.056 0.103,0.096 0.156,0.156 a 1.8,1.8 0 0 1 0.22,0.375 c 0.016,0.037 -0.017,0.077 0,0.125 -0.03,0.224 -0.104,0.377 -0.25,0.625 -0.07,0.08 -0.159,0.15 -0.157,0.25 -0.005,0.24 0.136,0.392 0.125,0.624 -0.024,0.312 0.024,0.333 0,0.5 0.105,0.053 0.031,0.233 0,0.344 -0.045,0.132 -0.1,0.162 -0.125,0.25 0.071,0.03 0.171,0.019 0.25,0 0,0 0.096,0.4 0.094,0.406 a 7.003,7.003 0 0 1 -2.937,1.718 c -0.55,0.133 -0.713,0.133 -0.97,0.188 a 6.383,6.383 0 0 1 -1.03,0.094 c -0.243,0 -0.483,-0.01 -0.719,-0.031 -0.182,-0.018 -0.354,-0.062 -0.53,-0.094 a 7.17,7.17 0 0 1 -0.157,-0.031 c -0.163,-0.055 -0.35,-0.088 -0.5,-0.125 a 7.067,7.067 0 0 1 -0.5,-0.156 c 0.014,-0.013 0.027,-0.011 0.031,-0.031 0.01,-0.04 0.002,-0.062 0,-0.125 0.015,-0.065 0.08,-0.058 0.094,-0.125 -0.028,-0.048 -0.083,-0.038 -0.125,-0.063 a 0.133,0.133 0 0 1 -0.063,-0.125 c 0.07,-0.029 0.2,0.066 0.25,-0.031 0.025,-0.046 -0.034,-0.14 0,-0.188 0.023,-0.03 0.17,-0.055 0.22,-0.063 0.07,-0.012 0.147,-0.01 0.187,-0.03 a 0.223,0.223 0 0 0 0.094,-0.189 c -0.004,-0.039 -0.033,-0.059 -0.063,-0.094 -0.025,-0.029 -0.013,-0.066 -0.03,-0.094 -0.032,-0.047 -0.08,-0.058 -0.095,-0.125 0.096,-0.019 0.236,0.102 0.375,0.063 0.066,-0.019 0.157,-0.188 0.188,-0.25 0.01,-0.019 -0.01,-0.04 0,-0.063 0.012,-0.026 0.06,-0.049 0.063,-0.063 0.01,-0.036 -0.008,-0.07 0,-0.094 0.024,-0.068 0.085,-0.075 0.125,-0.125 0.03,-0.038 0.065,-0.087 0.094,-0.125 0.031,-0.04 0.042,-0.089 0.063,-0.125 0.02,-0.121 -0.06,-0.205 -0.03,-0.312 0.031,-0.12 0.195,-0.165 0.312,-0.22 0.04,-0.018 0.092,-0.05 0.125,-0.062 0.08,-0.028 0.176,-0.036 0.25,-0.063 0.125,-0.046 0.157,-0.167 0.219,-0.281 a 0.611,0.611 0 0 0 0.063,-0.156 c 0.005,-0.035 -0.007,-0.053 0,-0.094 0.006,-0.04 0.02,-0.081 0.031,-0.125 a 1.1,1.1 0 0 0 0.031,-0.219 c 0,-0.053 -0.029,-0.078 -0.031,-0.125 -0.009,-0.173 0.061,-0.218 0.125,-0.313 0.032,-0.047 0.04,-0.09 0.063,-0.125 0.108,-0.16 0.295,-0.225 0.28,-0.468 -0.004,-0.08 -0.034,-0.256 -0.093,-0.281 -0.034,-0.015 -0.107,-0.011 -0.156,-0.031 -0.158,-0.06 -0.274,-0.27 -0.438,-0.281 -0.035,0 -0.055,0.03 -0.094,0.03 -0.065,0 -0.147,-0.052 -0.219,-0.062 -0.046,-0.01 -0.129,0.013 -0.156,0 -0.042,-0.02 -0.029,-0.102 -0.063,-0.125 -0.027,-0.018 -0.084,-0.015 -0.125,-0.031 -0.066,-0.025 -0.112,-0.056 -0.188,-0.063 -0.023,-10e-4 -0.067,0 -0.094,0 -0.042,-0.01 -0.086,-0.04 -0.125,-0.063 a 0.208,0.208 0 0 1 -0.094,-0.094 c 0.044,-0.144 -0.096,-0.167 -0.125,-0.25 -0.014,-0.039 0.013,-0.09 0,-0.125 -0.017,-0.05 -0.07,-0.084 -0.125,-0.125 -0.097,-0.074 -0.174,-0.139 -0.313,-0.156 -0.06,-0.01 -0.145,0 -0.219,0 a 0.367,0.367 0 0 1 -0.219,-0.125 c -0.056,-0.065 -0.076,-0.125 -0.125,-0.156 -0.047,-0.03 -0.124,-0.03 -0.156,-0.063 -0.014,-0.014 -0.017,-0.03 -0.03,-0.063 -0.024,-0.048 -0.062,-0.098 -0.032,-0.156 -0.053,-0.027 -0.035,0.072 -0.094,0.063 -0.052,-0.074 -0.1,-0.115 -0.219,-0.094 -0.054,0.01 -0.093,0.06 -0.156,0.063 -0.052,0 -0.088,-0.053 -0.156,-0.063 -0.052,-0.01 -0.12,0.036 -0.156,0.031 -0.057,-0.01 -0.073,-0.059 -0.125,-0.094 -0.038,-0.025 -0.104,-0.095 -0.125,-0.094 -0.067,0 -0.126,0.143 -0.219,0.094 -0.045,-0.057 0.085,-0.07 0.031,-0.125 -0.04,-0.04 -0.06,0.01 -0.094,0.031 a 0.666,0.666 0 0 1 -0.125,0.063 c -0.092,0.034 -0.147,0.025 -0.219,0.063 -0.066,0.034 -0.087,0.088 -0.125,0.156 -0.03,0.056 -0.079,0.153 -0.125,0.156 -0.056,0 -0.105,-0.072 -0.155,-0.094 -0.153,-0.066 -0.248,0.03 -0.375,0.031 -0.118,0 -0.287,-0.17 -0.281,-0.28 0.004,-0.067 0.054,-0.166 0.063,-0.25 0.006,-0.066 0.062,-0.127 0.063,-0.188 0,-0.081 -0.135,-0.147 -0.188,-0.156 -0.125,-0.023 -0.295,0.06 -0.438,0 -0.027,-0.045 0.047,-0.081 0.063,-0.125 0.009,-0.025 -0.01,-0.034 0,-0.063 0.016,-0.042 0.074,-0.08 0.094,-0.125 0.015,-0.034 0.016,-0.082 0.03,-0.125 0.018,-0.05 0.06,-0.091 0.064,-0.125 0.005,-0.045 -0.027,-0.095 -0.063,-0.125 -0.111,0.01 -0.187,0 -0.25,0.031 -0.144,0.066 -0.106,0.266 -0.25,0.313 -0.05,0.016 -0.133,0.02 -0.188,0.03 -0.047,0.01 -0.107,0.033 -0.156,0.032 A 0.354,0.354 0 0 1 9.192,12.661 0.174,0.174 0 0 1 9.161,12.598 c 0.002,-0.01 -0.002,-0.021 0,-0.031 0.046,-0.223 0.093,-0.444 0.156,-0.656 0.003,-0.01 -0.003,-0.022 0,-0.03 0.042,-0.14 0.103,-0.27 0.156,-0.407 0.013,-0.01 0.019,-0.023 0.03,-0.03 0.078,-0.054 0.157,-0.12 0.25,-0.125 0.058,0 0.165,0.02 0.22,0.03 0.05,0.01 0.082,0.06 0.125,0.064 0.123,0.01 0.149,-0.103 0.25,-0.156 0.104,0.015 0.156,-0.01 0.25,0 0.064,0.01 0.138,0.09 0.188,0.094 0.042,0 0.053,-0.07 0.094,-0.063 0.04,0.01 0.119,0.108 0.125,0.156 0.007,0.06 -0.048,0.122 -0.031,0.187 0.063,0.064 0.19,0.056 0.28,0.094 0.06,-0.048 0.01,-0.118 0,-0.187 -10e-4,-0.031 0.005,-0.066 0,-0.094 -0.005,-0.048 -0.03,-0.084 -0.03,-0.125 -10e-4,-0.19 0.154,-0.3 0.28,-0.375 0.056,-0.033 0.108,-0.07 0.156,-0.094 0.067,-0.034 0.1,-0.063 0.156,-0.094 0.101,-0.057 0.202,-0.092 0.281,-0.156 0.037,-0.086 -0.004,-0.196 0,-0.281 0.037,-0.022 0.055,0 0.094,0 0.061,-0.013 0.09,-0.091 0.125,-0.125 0.02,-0.02 0.07,-0.043 0.094,-0.063 0.061,-0.048 0.072,-0.104 0.125,-0.125 0.02,-0.01 0.064,-0.017 0.094,-0.031 0.04,-0.011 0.092,-0.04 0.156,-0.063 0.042,-0.014 0.14,-0.015 0.156,-0.031 0.02,-0.02 -0.006,-0.095 0,-0.125 0.032,-0.15 0.272,-0.168 0.406,-0.219 0.094,-0.036 0.178,-0.114 0.281,-0.094 -0.02,0.072 -0.11,0.038 -0.094,0.125 0.023,0.121 0.176,-0.013 0.22,-0.03 0.08,-0.035 0.236,-0.056 0.343,-0.095 0.094,-0.034 0.245,-0.08 0.156,-0.188 -0.074,0 -0.092,0.066 -0.156,0.094 -0.044,0.01 -0.056,-0.027 -0.094,-0.03 -0.036,0 -0.057,0.037 -0.094,0.03 -0.037,-0.01 -0.088,-0.082 -0.094,-0.125 -0.015,-0.11 0.11,-0.136 0.156,-0.219 -0.03,-0.1 -0.166,-0.024 -0.25,-0.063 a 0.148,0.148 0 0 1 0.125,-0.124 c 0.057,-0.01 0.185,0.01 0.22,0.03 0.02,0.018 0,0.067 0.03,0.095 0.034,0.03 0.081,0.01 0.125,0 0.016,-0.076 -0.106,-0.043 -0.094,-0.094 0.09,-0.06 0.265,-0.016 0.375,-0.031 0.063,-0.01 0.131,-0.062 0.188,-0.094 0.054,-0.03 0.1,-0.081 0.156,-0.031 0.016,0.054 -0.032,0.066 -0.063,0.094 a 2.182,2.182 0 0 0 -0.28,0.312 c 0.048,0.048 0.135,0.022 0.218,0.031 0.032,0 0.06,0.025 0.094,0.031 0.04,0.01 0.094,-0.012 0.125,0 0.056,0.014 0.07,0.094 0.125,0.094 0.091,0 0.083,-0.125 0.031,-0.188 0.016,-0.063 0.053,-0.08 0.031,-0.125 C 15.087,8.86 14.917,8.956 14.908,8.848 14.903,8.781 14.978,8.773 15.002,8.723 14.992,8.595 15.108,8.589 15.096,8.473 15.09,8.426 15.036,8.425 15.002,8.38 14.985,8.357 14.992,8.304 14.972,8.286 14.902,8.226 14.762,8.242 14.752,8.13 14.748,8.064 14.762,8.015 14.752,7.942 14.743,7.875 14.686,7.674 14.627,7.661 14.552,7.645 14.498,7.775 14.408,7.817 A 0.389,0.389 0 0 1 14.22,7.847 C 14.188,7.837 14.131,7.816 14.126,7.754 14.12,7.684 14.176,7.672 14.189,7.598 14.179,7.554 14.139,7.568 14.095,7.535 14.046,7.498 14.005,7.419 13.939,7.41 c -0.033,0 -0.093,0.029 -0.125,0.031 -0.06,0 -0.106,-0.015 -0.156,-0.031 0.021,-0.01 0.041,-0.024 0.063,-0.031 0.122,-0.042 0.25,-0.059 0.375,-0.094 0.022,-0.01 0.041,-0.025 0.063,-0.031 0.031,0.033 0.056,0.103 0.094,0.125 0.025,0.014 0.063,-0.01 0.094,0 0.098,0.03 0.174,0.085 0.281,0.063 0.037,-0.065 -0.074,-0.074 -0.03,-0.125 0.071,0.01 0.131,0.04 0.187,0.063 0.077,-0.056 0.128,-0.066 0.125,-0.156 0,-0.046 -0.062,-0.063 -0.094,-0.094 0.063,-0.011 0.124,-0.022 0.188,-0.031 0.005,0.017 0.021,0.03 0.031,0.031 0.038,0.01 0.165,-0.051 0.188,-0.063 0.004,0 -0.006,-0.027 0,-0.031 0.253,-0.027 0.521,-0.031 0.781,-0.031 m -2.5,0.469 c -0.023,0.043 -0.047,0.079 -0.094,0.094 0.012,0.065 -0.084,0.105 -0.094,0.156 -0.006,0.035 -0.002,0.094 0,0.125 0.02,0.319 -0.25,0.476 -0.563,0.468 -0.06,0.058 -0.029,0.17 -0.063,0.25 -0.028,0.067 -0.12,0.131 -0.188,0.125 -0.05,0 -0.125,-0.079 -0.125,-0.125 0,-0.057 0.081,-0.09 0.031,-0.156 C 12.415,8.367 12.514,8.325 12.502,8.255 12.49,8.181 12.406,8.236 12.314,8.225 A 0.923,0.923 0 0 1 12.126,8.161 C 12.227,8.094 12.331,8.035 12.439,7.973 12.533,7.917 12.624,7.868 12.72,7.817 12.972,7.691 13.242,7.574 13.501,7.474 m 5.375,0.75 c -0.027,0 -0.04,0.017 -0.063,0.03 -0.051,0.031 -0.054,0.08 -0.094,0.094 -0.054,0.021 -0.117,0.01 -0.125,0.063 -0.006,0.041 0.033,0.055 0.03,0.094 -0.02,0.05 -0.052,0.066 -0.062,0.125 0.068,0.11 0.229,-0.01 0.313,-0.03 0.038,-0.012 0.073,0 0.094,-0.032 0.023,-0.035 0.013,-0.105 0.03,-0.156 0.02,-0.056 0.07,-0.043 0.064,-0.094 -0.006,-0.05 -0.106,-0.102 -0.188,-0.094 m -7.312,0.78 c 0.06,0.017 0.196,0.194 0.063,0.25 a 0.931,0.931 0 0 1 -0.22,0.032 C 11.361,9.276 11.329,9.2 11.282,9.192 c -0.092,-0.016 -0.218,0.1 -0.281,0 0.016,-0.06 0.086,-0.043 0.156,-0.063 0.125,-0.034 0.298,-0.153 0.406,-0.125 m 0.25,0.313 c 0.03,0 0.055,0.059 0.093,0.063 0.036,0 0.072,-0.036 0.094,-0.031 0.056,0.015 0.084,0.115 0.031,0.156 -0.044,0 -0.06,-0.037 -0.094,-0.031 C 11.847,9.49 11.817,9.667 11.75,9.662 11.686,9.652 11.654,9.521 11.719,9.474 11.721,9.434 11.686,9.42 11.688,9.38 11.708,9.355 11.76,9.314 11.812,9.317 M 11.5,9.347 c 0.019,0.002 0.024,0 0.03,0 -0.008,0.072 -0.038,0.092 -0.093,0.126 a 0.378,0.378 0 0 0 -0.188,0.25 c -0.01,0.036 -0.111,0.133 -0.156,0.124 -0.106,-0.022 0.038,-0.22 0.063,-0.25 0.027,-0.032 0.062,-0.055 0.094,-0.093 0.03,-0.037 0.033,-0.105 0.063,-0.125 a 0.441,0.441 0 0 1 0.188,-0.031 m 9.498,0.03 c 0.048,0.014 0.058,0.07 0.094,0.095 0.027,0.018 0.064,0.012 0.094,0.03 0.035,0.023 0.054,0.06 0.094,0.095 0.056,0.047 0.14,0.088 0.22,0.125 0.015,0.01 0.043,0.023 0.062,0.03 0.055,0.072 0.104,0.145 0.156,0.22 0.006,0.04 0.012,0.098 0.031,0.124 0.052,0.071 0.131,0.132 0.188,0.22 0,0.082 0.036,0.132 0.094,0.155 0.073,0.124 0.15,0.248 0.22,0.375 0.028,0.058 0.034,0.129 0.062,0.188 -0.02,0 -0.043,0.01 -0.063,0 -0.066,-0.116 -0.409,-0.139 -0.438,0.03 -0.013,0.076 0.05,0.176 -0.063,0.189 -0.07,0.01 -0.153,-0.073 -0.25,-0.094 -0.04,-0.01 -0.094,0.014 -0.125,0 -0.073,-0.025 -0.062,-0.112 -0.125,-0.156 a 0.547,0.547 0 0 0 -0.188,-0.063 h -0.094 c -0.045,-0.01 -0.118,-0.01 -0.156,-0.031 -0.036,-0.022 -0.116,-0.062 -0.125,-0.094 -0.014,-0.05 0.09,-0.114 0.094,-0.156 0.002,-0.03 -0.023,-0.045 -0.03,-0.094 -0.006,-0.029 0.005,-0.074 0,-0.094 -0.01,-0.034 -0.072,-0.062 -0.126,-0.063 -0.048,0 -0.084,0.03 -0.125,0.031 -0.059,0.001 -0.177,-0.037 -0.25,-0.03 -0.043,0 -0.083,0.027 -0.124,0.03 -0.116,0.01 -0.191,-0.01 -0.281,0 a 0.76,0.76 0 0 0 -0.25,0.063 c -0.031,0.014 -0.054,0.043 -0.094,0.063 a 0.619,0.619 0 0 1 -0.063,0.031 c -0.038,0.017 -0.09,0.053 -0.125,0.063 -0.052,0.013 -0.124,0 -0.22,0 -0.067,0 -0.186,-0.014 -0.187,-0.094 -10e-4,-0.123 0.227,-0.072 0.344,-0.094 0.044,-0.01 0.073,-0.063 0.125,-0.094 0.025,-0.015 0.039,-0.015 0.063,-0.03 0.04,-0.029 0.119,-0.094 0.125,-0.126 0.006,-0.03 -0.035,-0.072 -0.031,-0.094 0.005,-0.028 0.057,-0.058 0.094,-0.094 0.056,-0.055 0.087,-0.12 0.156,-0.156 0.047,-0.025 0.135,-0.024 0.156,-0.063 0.005,-0.043 -10e-4,-0.055 0,-0.094 0.029,-0.027 0.038,-0.058 0.063,-0.063 0.072,-0.016 0.135,0.035 0.219,0.031 a 0.29,0.29 0 0 0 0.124,-0.03 c 0.033,-0.023 0.062,-0.046 0.094,-0.064 0.035,-0.018 0.051,-0.059 0.094,-0.063 0.105,-0.01 0.171,0.124 0.22,0.188 0.04,0.053 0.152,0.12 0.218,0.156 0.037,0.021 0.084,0.045 0.125,0.063 0.087,0.04 0.247,0.165 0.25,0.25 0.002,0.042 -0.038,0.054 -0.03,0.094 0.065,0.011 0.122,-0.059 0.124,-0.125 0.001,-0.04 -0.039,-0.05 -0.03,-0.094 0.03,-0.066 0.147,-0.01 0.187,-0.03 C 21.589,9.958 21.472,9.947 21.408,9.908 21.374,9.888 21.35,9.86 21.314,9.845 21.262,9.825 21.198,9.813 21.158,9.782 21.12,9.753 21.101,9.702 21.064,9.657 21.01,9.593 20.906,9.584 20.939,9.438 20.955,9.416 20.976,9.369 21.002,9.375 m -8.811,0.22 h 0.094 c 0.034,0 0.08,-0.019 0.094,0 -0.022,0.087 -0.212,0.062 -0.281,0.03 0.004,-0.033 0.05,-0.027 0.094,-0.03 M 11.879,9.75 c 0.023,0 0.039,-0.01 0.063,0 a 0.71,0.71 0 0 1 -0.25,0.125 c -0.051,0.016 -0.116,0.025 -0.125,-0.03 -0.011,-0.07 0.047,-0.057 0.094,-0.064 0.058,-0.01 0.15,-0.029 0.219,-0.03 m 8.687,0 c -0.043,0.013 -0.066,0.112 0,0.124 0.03,-0.018 0.039,-0.068 0.03,-0.125 -0.016,-0.018 -0.016,0 -0.03,0 m -0.031,0.188 c -0.021,0.01 -0.04,0.01 -0.063,0.031 0,0.075 0.015,0.123 0,0.188 0.043,0.082 0.134,0.026 0.156,-0.031 0.026,-0.139 -0.03,-0.205 -0.094,-0.188 m 0.437,0.375 c 0.05,0.08 0.141,0.137 0.25,0.156 0.04,-0.03 0.044,-0.105 0.063,-0.156 h -0.156 c -0.059,0 -0.122,-0.028 -0.156,0 M 9.287,13 c 0.164,-0.01 0.212,0.215 0.344,0.28 0.033,0.018 0.082,0.023 0.125,0.032 0.035,0.01 0.06,0.02 0.094,0.03 0.07,0.025 0.162,0.01 0.219,0.032 0.085,0.038 0.146,0.206 0.219,0.25 0.004,0.042 -0.013,0.092 0,0.124 0.035,0.047 0.099,0.064 0.156,0.094 0.068,0.037 0.092,0.127 0.156,0.156 0.022,0.01 0.059,-0.01 0.094,0 0.088,0.027 0.112,0.147 0.188,0.125 0.05,-0.014 0.055,-0.078 0.063,-0.125 0.033,-0.036 0.074,-0.093 0.125,-0.094 0.083,0 0.095,0.075 0.125,0.156 0.017,0.046 0.05,0.108 0.063,0.156 0.02,0.083 0.017,0.325 0,0.375 -0.021,0.06 -0.106,0.089 -0.156,0.156 -0.024,0.03 -0.044,0.07 -0.063,0.094 -0.032,0.04 -0.07,0.057 -0.094,0.094 -0.014,0.02 -0.018,0.066 -0.031,0.094 -0.04,0.085 -0.096,0.148 -0.063,0.25 0.014,0.042 0.062,0.076 0.063,0.125 0,0.058 -0.115,0.093 -0.125,0.156 -0.007,0.047 0.048,0.126 0.063,0.188 0.01,0.047 0.097,0.094 0.125,0.125 0.047,0.053 0.082,0.12 0.125,0.187 0.085,0.13 0.136,0.28 0.219,0.406 0.043,0.066 0.127,0.12 0.156,0.188 0.015,0.035 -0.014,0.094 0,0.125 0.048,0.108 0.266,0.228 0.375,0.281 0.05,0.025 0.11,0 0.156,0.031 a 0.919,0.919 0 0 1 0.25,0.219 c 0.032,0.056 0.047,0.193 0.063,0.28 0.02,0.118 -0.005,0.218 0,0.345 0.004,0.069 0.03,0.119 0.03,0.188 0,0.024 0.002,0.07 0,0.094 -0.001,0.083 0.008,0.165 0,0.25 a 0.744,0.744 0 0 0 0,0.124 c 0.005,0.041 0.029,0.057 0.032,0.094 0.002,0.04 -0.035,0.095 -0.031,0.125 0.009,0.084 0.077,0.142 0.094,0.22 0.013,0.06 0.039,0.207 0.03,0.28 -0.004,0.04 -0.024,0.083 -0.03,0.125 -0.004,0.033 0.005,0.062 0,0.094 -0.006,0.047 -0.034,0.081 -0.031,0.125 0.006,0.09 0.08,0.16 0.094,0.25 0.005,0.03 -0.001,0.065 0,0.094 0,0.027 0.023,0.038 0.03,0.063 a 6.979,6.979 0 0 1 -0.75,-0.5 7.065,7.065 0 0 1 -0.655,-0.563 l -0.031,-0.03 A 7.23,7.23 0 0 1 10.509,18.312 C 10.405,18.18 10.291,18.045 10.196,17.906 10.14,17.823 10.092,17.742 10.04,17.656 10.008,17.605 9.977,17.552 9.946,17.5 A 6.577,6.577 0 0 1 9.696,17.031 C 9.646,16.931 9.615,16.823 9.571,16.718 A 6.742,6.742 0 0 1 9.29,15.968 C 9.236,15.784 9.204,15.598 9.165,15.406 9.135,15.26 9.092,15.117 9.071,14.968 A 6.563,6.563 0 0 1 9.04,14.718 7.108,7.108 0 0 1 9.072,13.125 v -0.03 c 0.063,0 0.149,-0.093 0.219,-0.095 m 2.688,0.75 c 0.064,-0.03 0.084,0.117 0.03,0.125 -0.05,0.01 -0.08,-0.102 -0.03,-0.125"
       fill="url(#f)"
       id="path42"
       style="fill:url(#f)" />
  </g>
  <path
     style="display:inline;mix-blend-mode:normal;fill:url(#linearGradient3403);fill-opacity:1;stroke:url(#linearGradient20558);stroke-width:1.16242;stroke-linecap:butt;stroke-linejoin:round;stroke-miterlimit:4;stroke-dasharray:none;stroke-opacity:1;filter:url(#filter20720)"
     d="M 4.7043071,3.9814882 4.6913695,60.80196 H 58.59546 l 1.022155,-2.866369 c 0,0 -23.87537,0.766388 -32.844441,-4.140386 C 16.257548,48.042344 11.401114,4.0978197 11.401114,4.0978197 Z"
     id="path1686"
     sodipodi:nodetypes="ccccscc"
     transform="matrix(0.49530655,0,0,0.49530655,0.32409325,0.23228439)"
     inkscape:label="folder" />
  <rect
     style="display:inline;fill:none;fill-opacity:1;stroke:url(#linearGradient4557);stroke-width:3.71366;stroke-linejoin:round;stroke-miterlimit:7.8;stroke-dasharray:none;stroke-opacity:0.995146;filter:url(#filter4601)"
     id="rect4539"
     width="62.567089"
     height="62.866646"
     x="1.0323594"
     y="0.59551275"
     ry="6.2447233"
     rx="5.8029528"
     transform="matrix(0.46399463,0,0,0.4630489,1.1562887,1.2331482)"
     inkscape:label="contour" />
</svg>
