<?xml version="1.0" encoding="UTF-8" standalone="no"?>
<svg
  id="svg1067"
  version="1.1"
  viewBox="0 0 32 32"
  width="32"
  height="32"
  xmlns="http://www.w3.org/2000/svg"
  xmlns:svg="http://www.w3.org/2000/svg">
 <defs
   id="defs1043">
  <linearGradient
    id="linearGradient2554"
    x1="29.879181"
    x2="28.900299"
    y1="37.185726"
    y2="28.185877"
    gradientTransform="matrix(4.0862992,0,0,4.0000661,-113.09527,-117.74537)"
    gradientUnits="userSpaceOnUse">
   <stop
     id="stop1038"
     stop-color="#242424"
     offset="0" />
   <stop
     id="stop1040"
     stop-color="#878787"
     offset="1" />
  </linearGradient>
  <style
    type="text/css"
    id="current-color-scheme">
    .ColorScheme-Highlight { color:#3daee9; }
    .ColorScheme-ViewBackground { color:#3daee9; }
    </style>
 </defs>
 <circle
   style="fill:#232329;stroke-width:0.5;stroke-dasharray:none;opacity:1;fill-opacity:1"
   id="path3"
   cx="16"
   cy="16"
   r="11" />
 <path
   id="path1045"
   d="M 10.500298,3.0149768 21.434564,3 c 0.999999,-0.00137 2,1 2,2 v 22 c 0,1 -1.000001,1.99863 -2,2 l -10.934266,0.01498 c -0.9999994,0.0014 -2.0000004,-1 -2.0000004,-2 V 5.0149768 c 0,-1 1.000001,-1.9986303 2.0000004,-2 z"
   fill="url(#linearGradient2554)"
   stroke="#050505"
   style="fill:url(#linearGradient2554);stroke-width:0.5;stroke-dasharray:none" />
 <path
   d="m 15.658706,8.3709657 c -0.228477,-0.00844 -0.45046,0.077529 -0.618812,0.2388575 -0.168326,0.1545516 -0.263151,0.3765203 -0.263309,0.6149475 l -0.0034,5.1730663 -2.827335,-2.68013 c -0.221622,-0.218161 -0.544134,-0.302169 -0.839909,-0.216912 -0.295794,0.09195 -0.517761,0.326498 -0.585061,0.629415 -0.06724,0.302901 0.03346,0.613594 0.255412,0.824241 l 3.60327,3.397564 -3.600107,3.329744 c -0.222173,0.208254 -0.32322,0.518112 -0.255841,0.821322 0.06737,0.303223 0.289752,0.539026 0.586224,0.63339 0.296455,0.08771 0.619823,0.0067 0.841963,-0.207862 l 2.828184,-2.618906 0.0087,5.131686 c 5.48e-4,0.323009 0.182067,0.619431 0.47181,0.760932 0.282999,0.148257 0.626652,0.121271 0.889323,-0.06696 l 4.270711,-3.112737 c 0.201652,-0.146605 0.32891,-0.37981 0.348252,-0.632865 0.01303,-0.253045 -0.08945,-0.492625 -0.27191,-0.665689 l -3.617989,-3.347325 3.601968,-3.336142 c 0.181925,-0.175195 0.283085,-0.418053 0.269763,-0.674617 -0.02008,-0.256554 -0.147926,-0.493071 -0.349842,-0.641949 L 16.135496,8.5382697 C 15.994586,8.4351202 15.833432,8.379344 15.658706,8.371014 Z m 0.8212,2.5661713 2.08233,1.551658 -2.083185,1.928128 z m 0.0076,7.386156 2.091818,1.93706 -2.082466,1.507921 z"
   style="color:#3daee9;display:inline;fill:#1a1a1b;fill-opacity:1;fill-rule:nonzero;stroke:none;stroke-width:1.72486"
   id="path1-6-5" />
 <path
   d="m 15.372079,8.0478166 c -0.229085,-0.00637 -0.451444,0.080884 -0.619904,0.2425785 -0.168448,0.1549677 -0.262784,0.3773308 -0.262784,0.6131589 v 5.161394 l -2.836735,-2.648076 c -0.222367,-0.21562 -0.545801,-0.296486 -0.842264,-0.208881 -0.29648,0.09429 -0.518835,0.330161 -0.586225,0.633382 -0.06733,0.303205 0.03359,0.613162 0.256054,0.822052 l 3.611632,3.369051 -3.611632,3.369043 c -0.222359,0.20889 -0.323433,0.518841 -0.256054,0.822051 0.06737,0.303223 0.289745,0.539049 0.586225,0.633385 0.296463,0.08768 0.619897,0.0064 0.842264,-0.208888 L 14.489391,18 v 5.161381 c 0,0.323433 0.181927,0.61991 0.471669,0.761413 0.282998,0.148262 0.626641,0.121309 0.889437,-0.06735 l 4.278695,-3.139963 c 0.202139,-0.148263 0.330159,-0.384067 0.350379,-0.640116 0.01391,-0.256042 -0.08769,-0.498624 -0.269526,-0.673818 l -3.61162,-3.369045 3.61162,-3.369054 c 0.181925,-0.175195 0.283,-0.417762 0.269526,-0.67381 -0.02023,-0.256044 -0.148276,-0.491877 -0.350379,-0.640119 L 15.850497,8.2095689 C 15.708972,8.1085159 15.547274,8.0545944 15.372079,8.0478645 Z m 0.828798,2.5402614 2.088811,1.529557 -2.088811,1.947313 z m 0,7.411922 2.088811,1.947315 -2.088811,1.529556 z"
   fill="currentColor"
   class="ColorScheme-Highlight"
   id="path1-6" />
</svg>
