<?xml version="1.0" encoding="UTF-8" standalone="no"?>
<!-- Created with Inkscape (http://www.inkscape.org/) -->

<svg
   width="32"
   height="32"
   version="1.1"
   viewBox="0 0 32 32"
   id="svg22"
   sodipodi:docname="preferences-desktop-baloo.svg"
   inkscape:version="1.1.2 (0a00cf5339, 2022-02-04)"
   xmlns:inkscape="http://www.inkscape.org/namespaces/inkscape"
   xmlns:sodipodi="http://sodipodi.sourceforge.net/DTD/sodipodi-0.dtd"
   xmlns:xlink="http://www.w3.org/1999/xlink"
   xmlns="http://www.w3.org/2000/svg"
   xmlns:svg="http://www.w3.org/2000/svg">
  <sodipodi:namedview
     id="namedview24"
     pagecolor="#ffffff"
     bordercolor="#666666"
     borderopacity="1.0"
     inkscape:showpageshadow="2"
     inkscape:pageopacity="0.0"
     inkscape:pagecheckerboard="0"
     inkscape:deskcolor="#d1d1d1"
     showgrid="false"
     inkscape:zoom="15.78"
     inkscape:cx="-10.392902"
     inkscape:cy="21.799747"
     inkscape:window-width="3440"
     inkscape:window-height="1356"
     inkscape:window-x="0"
     inkscape:window-y="0"
     inkscape:window-maximized="1"
     inkscape:current-layer="svg22"
     inkscape:pageshadow="2" />
  <defs
     id="defs12">
    <linearGradient
       inkscape:collect="always"
       id="linearGradient917">
      <stop
         style="stop-color:#1980f1;stop-opacity:1"
         offset="0"
         id="stop913" />
      <stop
         style="stop-color:#20bcf9;stop-opacity:1"
         offset="1"
         id="stop915" />
    </linearGradient>
    <linearGradient
       id="linearGradient1005-3-3"
       x1="5.2535"
       x2="9.3823996"
       y1="15.383"
       y2="2.9421"
       gradientTransform="matrix(0.99999,0,0,0.99999,1.632,-0.61743)"
       gradientUnits="userSpaceOnUse">
      <stop
         stop-color="#fa8200"
         offset="0"
         id="stop2" />
      <stop
         stop-color="#ff9600"
         offset=".36953"
         id="stop4" />
      <stop
         stop-color="#ffb400"
         offset="1"
         id="stop6" />
    </linearGradient>
    <filter
       id="filter4014"
       x="-0.062499933"
       y="-0.057692993"
       width="1.1249999"
       height="1.115386"
       color-interpolation-filters="sRGB">
      <feGaussianBlur
         stdDeviation="1.093751"
         id="feGaussianBlur9" />
    </filter>
    <linearGradient
       inkscape:collect="always"
       xlink:href="#linearGradient3487"
       id="linearGradient3403"
       gradientUnits="userSpaceOnUse"
       x1="6.9491749"
       y1="4.5549412"
       x2="11.215498"
       y2="59.052471" />
    <linearGradient
       id="linearGradient3487">
      <stop
         style="stop-color:#32373c;stop-opacity:1"
         offset="0"
         id="stop3481" />
      <stop
         id="stop3483"
         offset="0.36804965"
         style="stop-color:#1a1a1a;stop-opacity:1" />
      <stop
         style="stop-color:#31363b;stop-opacity:1"
         offset="1"
         id="stop3485" />
    </linearGradient>
    <linearGradient
       inkscape:collect="always"
       xlink:href="#linearGradient20604"
       id="linearGradient20558"
       gradientUnits="userSpaceOnUse"
       x1="25.802212"
       y1="20.373846"
       x2="25.111048"
       y2="58.912758" />
    <linearGradient
       id="linearGradient20604">
      <stop
         id="stop20598"
         offset="0"
         style="stop-color:#3d3d3d;stop-opacity:1" />
      <stop
         style="stop-color:#000000;stop-opacity:1"
         offset="0.61772454"
         id="stop20600" />
      <stop
         id="stop20602"
         offset="1"
         style="stop-color:#3d3d3d;stop-opacity:1" />
    </linearGradient>
    <filter
       inkscape:collect="always"
       style="color-interpolation-filters:sRGB"
       id="filter20720"
       x="-0.017024755"
       y="-0.016457183"
       width="1.0340491"
       height="1.0329144">
      <feGaussianBlur
         inkscape:collect="always"
         stdDeviation="0.14745661"
         id="feGaussianBlur20722" />
    </filter>
    <linearGradient
       gradientTransform="translate(0.36067797,-0.13016949)"
       xlink:href="#linearGradient4555"
       id="linearGradient4557"
       x1="43.499737"
       y1="64.011795"
       x2="44.141731"
       y2="0.30621234"
       gradientUnits="userSpaceOnUse" />
    <linearGradient
       id="linearGradient4555">
      <stop
         style="stop-color:#141618;stop-opacity:1"
         offset="0"
         id="stop4551" />
      <stop
         id="stop4559"
         offset="0.51820582"
         style="stop-color:#686868;stop-opacity:1" />
      <stop
         style="stop-color:#31363b;stop-opacity:1"
         offset="1"
         id="stop4553" />
    </linearGradient>
    <filter
       style="color-interpolation-filters:sRGB"
       id="filter4601"
       x="-0.030244762"
       width="1.0604895"
       y="-0.030100647"
       height="1.0602013">
      <feGaussianBlur
         stdDeviation="0.014790289"
         id="feGaussianBlur4603" />
    </filter>
    <linearGradient
       inkscape:collect="always"
       xlink:href="#linearGradient917"
       id="linearGradient919"
       x1="7.400631"
       y1="41.743092"
       x2="33.063145"
       y2="7.1074457"
       gradientUnits="userSpaceOnUse"
       gradientTransform="matrix(0.65875771,0,0,0.65875771,0.25841203,0.21589031)" />
    <linearGradient
       id="linearGradient862"
       x1="370.22"
       x2="370.03"
       y1="509.64001"
       y2="479.76001"
       gradientTransform="matrix(0.93333,0,0,0.93333,25.839779,73.924134)"
       gradientUnits="userSpaceOnUse">
      <stop
         stop-color="#197cf1"
         offset="0"
         id="stop2-9" />
      <stop
         stop-color="#21c9fb"
         offset="1"
         id="stop4-1" />
    </linearGradient>
    <linearGradient
       id="b"
       x1="24.263"
       x2="37.702999"
       y1="26.226999"
       y2="39.258999"
       gradientTransform="matrix(0.77562,0,0,0.79718,380.45,509.32)"
       gradientUnits="userSpaceOnUse">
      <stop
         stop-color="#292c2f"
         offset="0"
         id="stop12" />
      <stop
         stop-color="#292c2f"
         stop-opacity="0"
         offset="1"
         id="stop14" />
    </linearGradient>
    <linearGradient
       id="c"
       x2="0"
       y1="532.78998"
       y2="514.79999"
       gradientTransform="matrix(1.4173,0,0,1.4172,-177.73,-210.24)"
       gradientUnits="userSpaceOnUse">
      <stop
         stop-color="#7cbaf8"
         offset="0"
         id="stop7" />
      <stop
         stop-color="#f4fcff"
         offset="1"
         id="stop9" />
    </linearGradient>
  </defs>
  <rect
     style="display:inline;fill:url(#linearGradient919);fill-opacity:1;fill-rule:evenodd;stroke:none;stroke-width:0.611209;stroke-linejoin:round;stroke-miterlimit:7.8"
     id="rect1192"
     width="27.723557"
     height="28.13693"
     x="2.3420036"
     y="2.2043438"
     ry="0"
     inkscape:label="arriere" />
  <g
     transform="translate(-382.36589,-515.99618)"
     id="g38">
    <g
       fill="#ffffff"
       stroke-width="1.0326"
       id="g32"
       style="display:inline">
      <use
         transform="translate(-4.7118,2.5303)"
         width="100%"
         height="100%"
         xlink:href="#rect904"
         id="use24"
         x="0"
         y="0" />
      <use
         transform="translate(-2.4035,0.66645)"
         width="100%"
         height="100%"
         xlink:href="#rect904"
         id="use26"
         x="0"
         y="0" />
      <use
         transform="matrix(-1,0,0,1,799.53,0.96459)"
         width="100%"
         height="100%"
         xlink:href="#rect904"
         id="use28"
         x="0"
         y="0" />
      <use
         transform="matrix(-1,0,0,1,801.79,2.5861)"
         width="100%"
         height="100%"
         xlink:href="#rect904"
         id="use30"
         x="0"
         y="0"
         style="display:inline" />
    </g>
    <path
       d="m 404.57,521.3 2.1796,5.3192 -0.6336,6.4874 -2.4751,3.3143 -4.7799,1.5826 -8.2911,-2.7035 10.5,10.5 c 5.8989,-0.0177 13.459,-7.5413 13.5,-14.5 z"
       fill="url(#b)"
       opacity="0.2"
       stroke-width="0.78633"
       id="path34"
       style="fill:url(#b)" />
    <path
       d="m 399.94,534.47 c -0.63257,-0.27783 -1.8175,-0.25861 -2.3666,-0.0249 -1.8013,0.7666 -4.0384,0.20952 -4.0108,-1.5199 0.0249,-1.5643 0.54807,-2.1544 2.2923,-3.2216 1.3474,-1.0899 1.8253,-1.4947 2.6967,-1.4522 1.223,0.0596 1.68,0.55952 2.598,1.4522 1.5353,0.98647 2.5472,1.4353 2.4725,3.0223 -0.0371,1.8939 -2.3676,2.1695 -3.682,1.7441 z"
       fill="#ffffff"
       opacity="0.69"
       stroke-width="0.70457"
       id="path21" />
    <path
       id="rect904"
       d="m 398.46,527.74 c -0.50579,-0.0287 -0.93617,-0.43839 -0.96378,-1.0639 -0.0255,-0.57606 0.0523,-1.1673 0.63454,-1.6882 0.11271,-1.254 0.18173,-1.1982 0.5473,-2.3714 0.2246,1.2049 0.26418,1.4308 0.27741,2.3818 0.50354,0.36173 0.62303,0.81917 0.5552,1.522 -0.0579,0.59947 -0.42322,1.2176 -1.0507,1.2196 z"
       fill="#ffffff"
       opacity="0.69"
       stroke-width="0.62128" />
    <path
       d="m 398.49,519.35 c -5.4761,0 -9.9154,4.4392 -9.9154,9.9152 -10e-6,5.476 4.4393,9.9152 9.9154,9.9152 2.1385,-0.005 4.2181,-0.70038 5.9288,-1.9836 l 4.483,4.6008 2.0026,-2.0026 -4.483,-4.6008 c 1.2832,-1.7106 1.9791,-3.7903 1.9836,-5.9287 0,-5.476 -4.4393,-9.9152 -9.9154,-9.9152 m 0,2.8329 c 3.9115,-1e-5 7.0824,3.1708 7.0824,7.0823 0,3.9336 -3.1679,7.0829 -7.0832,7.0829 -3.9115,0 -7.0824,-3.1709 -7.0824,-7.0823 0,-4.4087 3.1069,-7.0823 7.0825,-7.0823"
       fill="url(#c)"
       stroke-width="1.8424"
       id="path36"
       style="display:inline;fill:url(#c)" />
  </g>
  <path
     style="display:inline;mix-blend-mode:normal;fill:url(#linearGradient3403);fill-opacity:1;stroke:url(#linearGradient20558);stroke-width:1.16242;stroke-linecap:butt;stroke-linejoin:round;stroke-miterlimit:4;stroke-dasharray:none;stroke-opacity:1;filter:url(#filter20720)"
     d="M 4.7043071,3.9814882 4.6913695,60.80196 H 58.59546 l 1.022155,-2.866369 c 0,0 -23.87537,0.766388 -32.844441,-4.140386 C 16.257548,48.042344 11.401114,4.0978197 11.401114,4.0978197 Z"
     id="path1686"
     sodipodi:nodetypes="ccccscc"
     transform="matrix(0.49530655,0,0,0.49530655,0.32409325,0.23228439)"
     inkscape:label="folder" />
  <rect
     style="display:inline;fill:none;fill-opacity:1;stroke:url(#linearGradient4557);stroke-width:3.71366;stroke-linejoin:round;stroke-miterlimit:7.8;stroke-dasharray:none;stroke-opacity:0.995146;filter:url(#filter4601)"
     id="rect4539"
     width="62.567089"
     height="62.866646"
     x="1.0323594"
     y="0.59551275"
     ry="6.2447233"
     rx="5.8029528"
     transform="matrix(0.46399463,0,0,0.4630489,1.1562887,1.2331482)"
     inkscape:label="contour" />
</svg>
