<?xml version="1.0" encoding="UTF-8" standalone="no"?>
<!-- Created with Inkscape (http://www.inkscape.org/) -->

<svg
   width="32"
   height="32"
   version="1.1"
   viewBox="0 0 32 32"
   id="svg22"
   sodipodi:docname="preferences-desktop-gestures-screenedges.svg"
   inkscape:version="1.1.2 (0a00cf5339, 2022-02-04)"
   xmlns:inkscape="http://www.inkscape.org/namespaces/inkscape"
   xmlns:sodipodi="http://sodipodi.sourceforge.net/DTD/sodipodi-0.dtd"
   xmlns:xlink="http://www.w3.org/1999/xlink"
   xmlns="http://www.w3.org/2000/svg"
   xmlns:svg="http://www.w3.org/2000/svg">
  <sodipodi:namedview
     id="namedview24"
     pagecolor="#ffffff"
     bordercolor="#666666"
     borderopacity="1.0"
     inkscape:showpageshadow="2"
     inkscape:pageopacity="0.0"
     inkscape:pagecheckerboard="0"
     inkscape:deskcolor="#d1d1d1"
     showgrid="false"
     inkscape:zoom="18.116076"
     inkscape:cx="14.95909"
     inkscape:cy="13.855098"
     inkscape:window-width="3440"
     inkscape:window-height="1356"
     inkscape:window-x="0"
     inkscape:window-y="0"
     inkscape:window-maximized="1"
     inkscape:current-layer="g873"
     inkscape:pageshadow="2" />
  <defs
     id="defs12">
    <linearGradient
       id="linearGradient1005-3-3"
       x1="5.2535"
       x2="9.3823996"
       y1="15.383"
       y2="2.9421"
       gradientTransform="matrix(0.99999,0,0,0.99999,1.632,-0.61743)"
       gradientUnits="userSpaceOnUse">
      <stop
         stop-color="#fa8200"
         offset="0"
         id="stop2" />
      <stop
         stop-color="#ff9600"
         offset=".36953"
         id="stop4" />
      <stop
         stop-color="#ffb400"
         offset="1"
         id="stop6" />
    </linearGradient>
    <filter
       id="filter4014"
       x="-0.062499933"
       y="-0.057692993"
       width="1.1249999"
       height="1.115386"
       color-interpolation-filters="sRGB">
      <feGaussianBlur
         stdDeviation="1.093751"
         id="feGaussianBlur9" />
    </filter>
    <linearGradient
       inkscape:collect="always"
       xlink:href="#linearGradient3487"
       id="linearGradient3403"
       gradientUnits="userSpaceOnUse"
       x1="6.9491749"
       y1="4.5549412"
       x2="11.215498"
       y2="59.052471" />
    <linearGradient
       id="linearGradient3487">
      <stop
         style="stop-color:#32373c;stop-opacity:1"
         offset="0"
         id="stop3481" />
      <stop
         id="stop3483"
         offset="0.36804965"
         style="stop-color:#1a1a1a;stop-opacity:1" />
      <stop
         style="stop-color:#31363b;stop-opacity:1"
         offset="1"
         id="stop3485" />
    </linearGradient>
    <linearGradient
       inkscape:collect="always"
       xlink:href="#linearGradient20604"
       id="linearGradient20558"
       gradientUnits="userSpaceOnUse"
       x1="25.802212"
       y1="20.373846"
       x2="25.111048"
       y2="58.912758" />
    <linearGradient
       id="linearGradient20604">
      <stop
         id="stop20598"
         offset="0"
         style="stop-color:#3d3d3d;stop-opacity:1" />
      <stop
         style="stop-color:#000000;stop-opacity:1"
         offset="0.61772454"
         id="stop20600" />
      <stop
         id="stop20602"
         offset="1"
         style="stop-color:#3d3d3d;stop-opacity:1" />
    </linearGradient>
    <filter
       inkscape:collect="always"
       style="color-interpolation-filters:sRGB"
       id="filter20720"
       x="-0.017024755"
       y="-0.016457183"
       width="1.0340491"
       height="1.0329144">
      <feGaussianBlur
         inkscape:collect="always"
         stdDeviation="0.14745661"
         id="feGaussianBlur20722" />
    </filter>
    <linearGradient
       gradientTransform="translate(0.36067797,-0.13016949)"
       xlink:href="#linearGradient4555"
       id="linearGradient4557"
       x1="43.499737"
       y1="64.011795"
       x2="44.141731"
       y2="0.30621234"
       gradientUnits="userSpaceOnUse" />
    <linearGradient
       id="linearGradient4555">
      <stop
         style="stop-color:#141618;stop-opacity:1"
         offset="0"
         id="stop4551" />
      <stop
         id="stop4559"
         offset="0.51820582"
         style="stop-color:#686868;stop-opacity:1" />
      <stop
         style="stop-color:#31363b;stop-opacity:1"
         offset="1"
         id="stop4553" />
    </linearGradient>
    <filter
       style="color-interpolation-filters:sRGB"
       id="filter4601"
       x="-0.030244762"
       width="1.0604895"
       y="-0.030100647"
       height="1.0602013">
      <feGaussianBlur
         stdDeviation="0.014790289"
         id="feGaussianBlur4603" />
    </filter>
    <linearGradient
       xlink:href="#a"
       id="g"
       gradientUnits="userSpaceOnUse"
       gradientTransform="matrix(0.66667,0,0,0.85555,-256.38,-429.026)"
       x1="418.17001"
       y1="503.07901"
       x2="384.57101"
       y2="531.45801" />
    <linearGradient
       id="a">
      <stop
         stop-color="#1abc9c"
         id="stop3" />
      <stop
         offset="1"
         stop-color="#2980b9"
         id="stop5" />
    </linearGradient>
    <linearGradient
       xlink:href="#b"
       id="h"
       y1="521.633"
       x1="404.04501"
       y2="528.34998"
       x2="430.73599"
       gradientUnits="userSpaceOnUse"
       gradientTransform="matrix(0.66667,0,0,0.85555,-256.38,-429.027)" />
    <linearGradient
       id="b">
      <stop
         stop-color="#cc4a5e"
         id="stop9" />
      <stop
         offset="1"
         stop-color="#aa478a"
         id="stop11" />
    </linearGradient>
    <linearGradient
       xlink:href="#c"
       id="i"
       y1="542.224"
       x1="398.09201"
       y2="524.90002"
       x2="394.00299"
       gradientUnits="userSpaceOnUse"
       gradientTransform="matrix(0.66667,0,0,0.85555,-256.38,-429.027)" />
    <linearGradient
       id="c">
      <stop
         stop-color="#334545"
         id="stop15" />
      <stop
         offset="1"
         stop-color="#536161"
         id="stop17" />
    </linearGradient>
    <linearGradient
       xlink:href="#c"
       id="j"
       y1="568.79797"
       x1="431.57101"
       y2="562.79797"
       x2="439.57101"
       gradientUnits="userSpaceOnUse"
       gradientTransform="matrix(-0.66667,0,0,0.85555,303.047,-463.249)" />
    <linearGradient
       xlink:href="#c"
       id="k"
       y1="572.33398"
       x1="423.05399"
       y2="566.76599"
       x2="431.22501"
       gradientUnits="userSpaceOnUse"
       gradientTransform="matrix(-0.66667,0,0,0.85555,303.047,-463.249)" />
    <linearGradient
       xlink:href="#c"
       id="l"
       y1="581.87"
       x1="406.53699"
       y2="572.67798"
       x2="423.32001"
       gradientUnits="userSpaceOnUse"
       gradientTransform="matrix(-0.66667,0,0,0.85555,303.048,-463.249)" />
    <linearGradient
       xlink:href="#c"
       id="m"
       y1="577.10199"
       x1="431.31299"
       y2="571.44501"
       x2="440.63199"
       gradientUnits="userSpaceOnUse"
       gradientTransform="matrix(-0.66667,0,0,0.85555,303.048,-463.249)" />
    <linearGradient
       xlink:href="#c"
       id="n"
       y1="577.362"
       x1="430.56699"
       y2="591.328"
       x2="423.75"
       gradientUnits="userSpaceOnUse"
       gradientTransform="matrix(-0.66667,0,0,0.85555,303.048,-463.249)" />
  </defs>
  <g
     id="g873"
     transform="matrix(0.91525197,0,0,1.0019458,2.1296985,-0.17387576)">
    <path
       d="M 5,2 A 5.004,5.004 0 0 0 1.46,3.461 4.99,4.99 0 0 0 0,7.001 v 18 A 5.004,5.004 0 0 0 1.46,28.539 4.99,4.99 0 0 0 5,30 H 27 A 5.004,5.004 0 0 0 30.54,28.54 4.99,4.99 0 0 0 32,25 V 7 A 5.004,5.004 0 0 0 30.54,3.461 4.99,4.99 0 0 0 27,2.001 Z"
       id="path42"
       style="fill:url(#g)"
       inkscape:connector-curvature="0" />
    <path
       d="M 25.746,30 H 27 A 5.004,5.004 0 0 0 30.54,28.54 4.989,4.989 0 0 0 32,25 V 7 A 5.005,5.005 0 0 0 30.54,3.46 C 30.463,3.385 30.352,3.352 30.271,3.281 L 9.977,18.316 25.747,30 Z"
       id="path44"
       style="fill:url(#h)"
       inkscape:connector-curvature="0" />
    <path
       d="m 0.117,25.58 c 0.057,0.47 0.098,0.949 0.276,1.37 A 4.989,4.989 0 0 0 3.051,29.607 5.004,5.004 0 0 0 5,30 H 25.895 L 10,18.256 Z"
       id="path46"
       style="fill:url(#i)"
       inkscape:connector-curvature="0" />
    <path
       d="M 15.506,22.335 10,18.255 v 8.16 z"
       id="path48"
       style="fill:url(#j)"
       inkscape:connector-curvature="0" />
    <path
       d="M 15.506,22.335 V 30 h 0.666 l 4.84,-3.586 -5.506,-4.08 z"
       id="path50"
       style="fill:url(#k)"
       inkscape:connector-curvature="0" />
    <path
       d="M 32,9.971 V 7.001 A 5.005,5.005 0 0 0 30.54,3.461 C 30.463,3.385 30.352,3.352 30.271,3.281 L 9.977,18.318 Z"
       id="path52"
       inkscape:connector-curvature="0"
       style="fill:#aa478a" />
    <path
       d="M 21.011,26.413 V 30 h 4.841 l -4.84,-3.587 z"
       id="path56"
       style="fill:url(#l)"
       inkscape:connector-curvature="0" />
    <path
       d="M 5,2 A 5.004,5.004 0 0 0 4.5,2.023 5.004,5.004 0 0 0 4.006,2.098 5.004,5.004 0 0 0 3.521,2.221 5.004,5.004 0 0 0 3.051,2.393 5.004,5.004 0 0 0 2.6,2.609 5.004,5.004 0 0 0 2.174,2.871 5.004,5.004 0 0 0 1.775,3.171 5.004,5.004 0 0 0 1.461,3.461 4.99,4.99 0 0 0 1.125,3.831 4.99,4.99 0 0 0 0.83,4.232 4.99,4.99 0 0 0 0.576,4.662 4.99,4.99 0 0 0 0.366,5.113 4.99,4.99 0 0 0 0.201,5.586 4.99,4.99 0 0 0 0.086,6.07 4.99,4.99 0 0 0 0.018,6.564 4.99,4.99 0 0 0 0,7.002 V 12 A 10,10 0 0 0 10,2 Z M 22,2.002 A 10,10 0 0 0 32,12 V 7 A 5.004,5.004 0 0 0 31.977,6.5 5.004,5.004 0 0 0 31.902,6.006 5.004,5.004 0 0 0 31.779,5.521 5.004,5.004 0 0 0 31.607,5.051 5.004,5.004 0 0 0 31.391,4.6 5.004,5.004 0 0 0 31.129,4.174 5.004,5.004 0 0 0 30.829,3.775 5.004,5.004 0 0 0 30.539,3.461 4.99,4.99 0 0 0 30.169,3.127 4.99,4.99 0 0 0 29.768,2.83 4.99,4.99 0 0 0 29.34,2.576 4.99,4.99 0 0 0 28.887,2.366 4.99,4.99 0 0 0 28.416,2.203 4.99,4.99 0 0 0 27.932,2.086 4.99,4.99 0 0 0 27.438,2.02 4.99,4.99 0 0 0 27,2.002 Z M 0.002,20 v 5.041 a 5.004,5.004 0 0 0 0.023,0.459 5.004,5.004 0 0 0 0.075,0.496 5.004,5.004 0 0 0 0.123,0.484 5.004,5.004 0 0 0 0.17,0.47 5.004,5.004 0 0 0 0.216,0.45 5.004,5.004 0 0 0 0.262,0.428 5.004,5.004 0 0 0 0.303,0.399 5.004,5.004 0 0 0 0.287,0.312 4.99,4.99 0 0 0 0.37,0.334 4.99,4.99 0 0 0 0.4,0.297 4.99,4.99 0 0 0 0.43,0.254 4.99,4.99 0 0 0 0.452,0.21 4.99,4.99 0 0 0 0.471,0.165 4.99,4.99 0 0 0 0.484,0.115 4.99,4.99 0 0 0 0.495,0.068 A 4.99,4.99 0 0 0 5,30 h 5.002 a 10,10 0 0 0 -10,-10 z M 32,20 A 10,10 0 0 0 22,30 h 5 a 5.004,5.004 0 0 0 0.5,-0.023 5.004,5.004 0 0 0 0.494,-0.075 5.004,5.004 0 0 0 0.485,-0.123 5.004,5.004 0 0 0 0.47,-0.172 5.004,5.004 0 0 0 0.451,-0.216 5.004,5.004 0 0 0 0.426,-0.26 5.004,5.004 0 0 0 0.399,-0.303 5.004,5.004 0 0 0 0.314,-0.289 4.99,4.99 0 0 0 0.336,-0.37 4.99,4.99 0 0 0 0.295,-0.401 4.99,4.99 0 0 0 0.254,-0.428 4.99,4.99 0 0 0 0.21,-0.453 4.99,4.99 0 0 0 0.165,-0.471 4.99,4.99 0 0 0 0.115,-0.484 4.99,4.99 0 0 0 0.068,-0.494 A 4.99,4.99 0 0 0 32,25 Z"
       id="path54"
       inkscape:connector-curvature="0"
       style="fill:#93cee9" />
    <path
       d="M 10,26.414 V 30 h 4.84 z"
       id="path58"
       style="fill:url(#m)"
       inkscape:connector-curvature="0" />
    <path
       d="M 21.011,26.413 16.171,30 h 4.84 z"
       id="path60"
       style="fill:url(#n)"
       inkscape:connector-curvature="0" />
    <path
       d="m 0.124,26 c 0.067,0.317 0.146,0.658 0.269,0.95 A 4.989,4.989 0 0 0 3.051,29.608 5.004,5.004 0 0 0 5,30 h 22 a 5.004,5.004 0 0 0 3.54,-1.46 4.989,4.989 0 0 0 1.067,-1.59 5.35,5.35 0 0 0 0.285,-0.95 z"
       id="path62"
       inkscape:connector-curvature="0"
       style="fill:#ffffff;fill-opacity:0.784" />
    <ellipse
       cx="28"
       cy="27.918076"
       id="circle64"
       style="fill:#4d4d4d;stroke-width:0.958162"
       rx="1"
       ry="0.91807461" />
    <path
       d="m 2,27 v 1 h 1 v -1 z m 1,1 v 1 h 1 v -1 z"
       id="path66"
       inkscape:connector-curvature="0"
       style="fill:#4d4d4d" />
  </g>
  <path
     style="display:inline;mix-blend-mode:normal;fill:url(#linearGradient3403);fill-opacity:1;stroke:url(#linearGradient20558);stroke-width:1.16242;stroke-linecap:butt;stroke-linejoin:round;stroke-miterlimit:4;stroke-dasharray:none;stroke-opacity:1;filter:url(#filter20720)"
     d="M 4.7043071,3.9814882 4.6913695,60.80196 H 58.59546 l 1.022155,-2.866369 c 0,0 -23.87537,0.766388 -32.844441,-4.140386 C 16.257548,48.042344 11.401114,4.0978197 11.401114,4.0978197 Z"
     id="path1686"
     sodipodi:nodetypes="ccccscc"
     transform="matrix(0.49530655,0,0,0.49530655,0.32409325,0.23228439)"
     inkscape:label="folder" />
  <rect
     style="display:inline;fill:none;fill-opacity:1;stroke:url(#linearGradient4557);stroke-width:3.71366;stroke-linejoin:round;stroke-miterlimit:7.8;stroke-dasharray:none;stroke-opacity:0.995146;filter:url(#filter4601)"
     id="rect4539"
     width="62.567089"
     height="62.866646"
     x="1.0323594"
     y="0.59551275"
     ry="6.2447233"
     rx="5.8029528"
     transform="matrix(0.46399463,0,0,0.4630489,1.1562887,1.2331482)"
     inkscape:label="contour" />
</svg>
