<svg width="32" height="32" version="1.1" viewBox="0 0 32 32" xmlns="http://www.w3.org/2000/svg" xmlns:xlink="http://www.w3.org/1999/xlink">
<defs>
<linearGradient id="linearGradient3403" x1="6.9492" x2="11.215" y1="4.5549" y2="59.052" gradientUnits="userSpaceOnUse">
<stop style="stop-color:#32373c" offset="0"/>
<stop style="stop-color:#1a1a1a" offset=".36805"/>
<stop style="stop-color:#31363b" offset="1"/>
</linearGradient>
<linearGradient id="linearGradient20558" x1="25.802" x2="25.111" y1="20.374" y2="58.913" gradientUnits="userSpaceOnUse">
<stop style="stop-color:#3d3d3d" offset="0"/>
<stop offset=".61772"/>
<stop style="stop-color:#3d3d3d" offset="1"/>
</linearGradient>
<linearGradient id="linearGradient4557" x1="43.5" x2="44.142" y1="64.012" y2=".30621" gradientTransform="translate(.36068 -.13017)" gradientUnits="userSpaceOnUse">
<stop style="stop-color:#141618" offset="0"/>
<stop style="stop-color:#686868" offset=".51821"/>
<stop style="stop-color:#31363b" offset="1"/>
</linearGradient>
<linearGradient id="linearGradient848" x2="0" y1="543.8" y2="502.66" gradientTransform="matrix(.66667 0 0 .63518 -256.38 -317.28)" gradientUnits="userSpaceOnUse" xlink:href="#a"/>
<linearGradient id="a" x2="0" y1="543.8" y2="502.66" gradientTransform="matrix(.66667 0 0 .63518 -256.38 -317.28)" gradientUnits="userSpaceOnUse">
<stop stop-color="#c6cdd1" offset="0"/>
<stop stop-color="#e0e5e7" offset="1"/>
</linearGradient>
<linearGradient id="linearGradient4183" x1="391.57" x2="406.57" y1="525.8" y2="540.8" gradientTransform="translate(-1 -.022131)" gradientUnits="userSpaceOnUse">
<stop offset="0"/>
<stop style="stop-opacity:0" offset="1"/>
</linearGradient>
<linearGradient id="linearGradient4296" x2="0" y1="543.8" y2="523.8" gradientTransform="translate(.10001 -6.2e-5)" gradientUnits="userSpaceOnUse">
<stop stop-color="#21c9fb" offset="0"/>
<stop stop-color="#197cf1" offset="1"/>
</linearGradient>
<linearGradient id="linearGradient4220" x1="393.57" x2="407.57" y1="524.8" y2="538.8" gradientTransform="matrix(1.0916 0 0 1 -38.241 1.0999)" gradientUnits="userSpaceOnUse">
<stop style="stop-color:#292c2f" offset="0"/>
<stop style="stop-opacity:0" offset="1"/>
</linearGradient>
<linearGradient id="linearGradient4235-5" x2="0" y1="-533.8" y2="-523.8" gradientTransform="matrix(1.0916 0 0 1 -36.058 -3)" gradientUnits="userSpaceOnUse" xlink:href="#linearGradient4159"/>
<linearGradient id="linearGradient4159">
<stop style="stop-color:#2a2c2f" offset="0"/>
<stop style="stop-color:#424649" offset="1"/>
</linearGradient>
<linearGradient id="linearGradient4270" x2="0" y1="543.8" y2="539.8" gradientTransform="translate(.10001 -6.2e-5)" gradientUnits="userSpaceOnUse" xlink:href="#linearGradient4159"/>
</defs>
<g transform="matrix(.91508 0 0 1 -350.27 -516.04)">
<g transform="translate(.0878 -.0019871)">
<path transform="translate(384.57,515.8)" d="m32 9-1-1-29.877 19 2.432 3h25.245c1.774 0 3.2-1.426 3.2-3.2z" style="fill:url(#linearGradient848)"/>
<path transform="translate(384.57,515.8)" d="m3.2 2a3.192 3.192 0 0 0-3.2 3.2v21.6c0 1.775 1.426 3.2 3.2 3.2h0.355l-2.432-3 29.877-19 1 1v-3.8c0-1.775-1.426-3.2-3.2-3.2z" style="fill:url(#linearGradient848)"/>
<path d="m387.07 517.8a2.492 2.492 0 0 0-2.5 2.5v1.5h32v-1.5a2.492 2.492 0 0 0-2.5-2.5z" style="fill:#566069"/>
<path d="m384.57 521.8h32v1h-32z" style="fill:#3daee9"/>
<rect x="385.57" y="523.8" width="30" height="20" ry="2" style="fill:#fff"/>
<rect x="412.59" y="518.76" width="2" height="1.7554" rx="1" style="fill:#eff0f1;stroke-width:.93685"/>
</g>
<path d="m384.57 543.78 30-20 1 1-1e-5 21-29 3e-5z" style="fill-rule:evenodd;fill:url(#linearGradient4183);opacity:.2"/>
<rect x="385.67" y="523.8" width="30" height="20" rx="2.1" ry="2.0001" style="fill:url(#linearGradient4296)"/>
<rect x="394.67" y="525.8" width="13.1" height="12" rx="6.5498" style="fill:#ebf9fe;opacity:.3;stroke-width:1.0448"/>
<path d="m405.04 528.3-7.6905 7.0449 9.2256 8.4492h9.9335v-4.9004z" style="fill-rule:evenodd;fill:url(#linearGradient4220);opacity:.2;stroke-width:1.0448"/>
<rect transform="scale(1,-1)" x="395.76" y="-536.8" width="10.916" height="10" rx="5.4582" style="fill:url(#linearGradient4235-5);stroke-width:1.0448"/>
<path d="m399.04 528.8v6l4.9124-3z" style="fill-rule:evenodd;fill:#fff;stroke-width:1.0448"/>
<rect x="385.67" y="539.8" width="30" height="4" rx="1.8995" ry="2" style="fill:url(#linearGradient4270)"/>
<rect x="387.48" y="540.8" width="16" height="2" rx="1" style="fill:#3092df"/>
<rect x="401.48" y="540.8" width="2.2895" height="2" rx="1.1448" style="fill:#daebf9;stroke-width:1.0699"/>
</g>
<path transform="matrix(.49531 0 0 .49531 .32409 .23228)" d="m4.7043 3.9815-0.012938 56.82h53.904l1.0222-2.8664s-23.875 0.76639-32.844-4.1404c-10.516-5.7529-15.372-49.697-15.372-49.697z" style="fill:url(#linearGradient3403);mix-blend-mode:normal;stroke-linejoin:round;stroke-width:1.1624;stroke:url(#linearGradient20558)"/>
<rect transform="matrix(.46399 0 0 .46305 1.1563 1.2331)" x="1.0324" y=".59551" width="62.567" height="62.867" rx="5.803" ry="6.2447" style="fill:none;stroke-linejoin:round;stroke-miterlimit:7.8;stroke-opacity:.99515;stroke-width:3.7137;stroke:url(#linearGradient4557)"/>
</svg>
