<?xml version="1.0" encoding="UTF-8" standalone="no"?>
<!-- Created with Inkscape (http://www.inkscape.org/) -->

<svg
   width="32"
   height="32"
   version="1.1"
   viewBox="0 0 32 32"
   id="svg22"
   sodipodi:docname="preferences-online-accounts.svg"
   inkscape:version="1.1.2 (0a00cf5339, 2022-02-04)"
   xmlns:inkscape="http://www.inkscape.org/namespaces/inkscape"
   xmlns:sodipodi="http://sodipodi.sourceforge.net/DTD/sodipodi-0.dtd"
   xmlns:xlink="http://www.w3.org/1999/xlink"
   xmlns="http://www.w3.org/2000/svg"
   xmlns:svg="http://www.w3.org/2000/svg">
  <sodipodi:namedview
     id="namedview24"
     pagecolor="#ffffff"
     bordercolor="#666666"
     borderopacity="1.0"
     inkscape:showpageshadow="2"
     inkscape:pageopacity="0.0"
     inkscape:pagecheckerboard="0"
     inkscape:deskcolor="#d1d1d1"
     showgrid="false"
     inkscape:zoom="25.62"
     inkscape:cx="11.202186"
     inkscape:cy="16.900859"
     inkscape:window-width="3440"
     inkscape:window-height="1356"
     inkscape:window-x="0"
     inkscape:window-y="0"
     inkscape:window-maximized="1"
     inkscape:current-layer="svg22"
     inkscape:pageshadow="2" />
  <defs
     id="defs12">
    <linearGradient
       inkscape:collect="always"
       id="linearGradient917">
      <stop
         style="stop-color:#000000;stop-opacity:0.99607843"
         offset="0"
         id="stop913" />
      <stop
         style="stop-color:#353a3f;stop-opacity:0.99607843"
         offset="1"
         id="stop915" />
    </linearGradient>
    <linearGradient
       id="linearGradient1005-3-3"
       x1="5.2535"
       x2="9.3823996"
       y1="15.383"
       y2="2.9421"
       gradientTransform="matrix(0.99999,0,0,0.99999,1.632,-0.61743)"
       gradientUnits="userSpaceOnUse">
      <stop
         stop-color="#fa8200"
         offset="0"
         id="stop2" />
      <stop
         stop-color="#ff9600"
         offset=".36953"
         id="stop4" />
      <stop
         stop-color="#ffb400"
         offset="1"
         id="stop6" />
    </linearGradient>
    <filter
       id="filter4014"
       x="-0.062499933"
       y="-0.057692993"
       width="1.1249999"
       height="1.115386"
       color-interpolation-filters="sRGB">
      <feGaussianBlur
         stdDeviation="1.093751"
         id="feGaussianBlur9" />
    </filter>
    <linearGradient
       inkscape:collect="always"
       xlink:href="#linearGradient3487"
       id="linearGradient3403"
       gradientUnits="userSpaceOnUse"
       x1="6.9491749"
       y1="4.5549412"
       x2="11.215498"
       y2="59.052471" />
    <linearGradient
       id="linearGradient3487">
      <stop
         style="stop-color:#32373c;stop-opacity:1"
         offset="0"
         id="stop3481" />
      <stop
         id="stop3483"
         offset="0.36804965"
         style="stop-color:#1a1a1a;stop-opacity:1" />
      <stop
         style="stop-color:#31363b;stop-opacity:1"
         offset="1"
         id="stop3485" />
    </linearGradient>
    <linearGradient
       inkscape:collect="always"
       xlink:href="#linearGradient20604"
       id="linearGradient20558"
       gradientUnits="userSpaceOnUse"
       x1="25.802212"
       y1="20.373846"
       x2="25.111048"
       y2="58.912758" />
    <linearGradient
       id="linearGradient20604">
      <stop
         id="stop20598"
         offset="0"
         style="stop-color:#3d3d3d;stop-opacity:1" />
      <stop
         style="stop-color:#000000;stop-opacity:1"
         offset="0.61772454"
         id="stop20600" />
      <stop
         id="stop20602"
         offset="1"
         style="stop-color:#3d3d3d;stop-opacity:1" />
    </linearGradient>
    <filter
       inkscape:collect="always"
       style="color-interpolation-filters:sRGB"
       id="filter20720"
       x="-0.017024755"
       y="-0.016457183"
       width="1.0340491"
       height="1.0329144">
      <feGaussianBlur
         inkscape:collect="always"
         stdDeviation="0.14745661"
         id="feGaussianBlur20722" />
    </filter>
    <linearGradient
       gradientTransform="translate(0.36067797,-0.13016949)"
       xlink:href="#linearGradient4555"
       id="linearGradient4557"
       x1="43.499737"
       y1="64.011795"
       x2="44.141731"
       y2="0.30621234"
       gradientUnits="userSpaceOnUse" />
    <linearGradient
       id="linearGradient4555">
      <stop
         style="stop-color:#141618;stop-opacity:1"
         offset="0"
         id="stop4551" />
      <stop
         id="stop4559"
         offset="0.51820582"
         style="stop-color:#686868;stop-opacity:1" />
      <stop
         style="stop-color:#31363b;stop-opacity:1"
         offset="1"
         id="stop4553" />
    </linearGradient>
    <filter
       style="color-interpolation-filters:sRGB"
       id="filter4601"
       x="-0.030244762"
       width="1.0604895"
       y="-0.030100647"
       height="1.0602013">
      <feGaussianBlur
         stdDeviation="0.014790289"
         id="feGaussianBlur4603" />
    </filter>
    <linearGradient
       inkscape:collect="always"
       xlink:href="#linearGradient917"
       id="linearGradient919"
       x1="7.400631"
       y1="41.743092"
       x2="33.063145"
       y2="7.1074457"
       gradientUnits="userSpaceOnUse"
       gradientTransform="matrix(0.65875771,0,0,0.65875771,0.25841203,0.21589031)" />
    <linearGradient
       xlink:href="#a"
       id="f"
       y1="545.79797"
       y2="517.79797"
       x2="0"
       gradientUnits="userSpaceOnUse" />
    <linearGradient
       id="a">
      <stop
         style="stop-color:#197cf1"
         id="stop2-5" />
      <stop
         offset="1"
         style="stop-color:#20bcfa"
         id="stop4-7" />
    </linearGradient>
    <linearGradient
       gradientTransform="translate(384.571,515.798)"
       id="g"
       gradientUnits="userSpaceOnUse"
       x1="23"
       x2="30"
       xlink:href="#e"
       y1="13"
       y2="20" />
    <linearGradient
       id="e">
      <stop
         offset="0"
         stop-color="#292c2f"
         id="stop25" />
      <stop
         offset="1"
         stop-opacity="0"
         id="stop27" />
    </linearGradient>
    <linearGradient
       gradientTransform="translate(384.571,515.798)"
       id="h"
       gradientUnits="userSpaceOnUse"
       x1="2"
       x2="2"
       y1="30"
       y2="2">
      <stop
         offset="0"
         stop-color="#54d883"
         id="stop31" />
      <stop
         offset="1"
         stop-color="#abf9c7"
         id="stop33" />
    </linearGradient>
    <linearGradient
       xlink:href="#c"
       id="i"
       y1="524.79797"
       x1="393.57101"
       y2="538.79797"
       x2="407.57101"
       gradientUnits="userSpaceOnUse" />
    <linearGradient
       id="c">
      <stop
         style="stop-color:#383e51"
         id="stop14" />
      <stop
         offset="1"
         style="stop-color:#655c6f;stop-opacity:0"
         id="stop16" />
    </linearGradient>
    <linearGradient
       xlink:href="#b"
       id="j"
       y1="23"
       y2="9"
       x2="0"
       gradientUnits="userSpaceOnUse"
       gradientTransform="translate(384.571,515.798)" />
    <linearGradient
       id="b">
      <stop
         style="stop-color:#7cbaf8"
         id="stop8" />
      <stop
         offset="1"
         style="stop-color:#f4fcff"
         id="stop10" />
    </linearGradient>
  </defs>
  <rect
     style="display:inline;fill:url(#linearGradient919);fill-opacity:1;fill-rule:evenodd;stroke:none;stroke-width:0.611209;stroke-linejoin:round;stroke-miterlimit:7.8"
     id="rect1192"
     width="27.723557"
     height="28.13693"
     x="2.3420036"
     y="2.2043438"
     ry="0"
     inkscape:label="arriere" />
  <g
     id="g878"
     transform="translate(0.66607718,-0.49107391)">
    <g
       transform="translate(-384.571,-515.798)"
       id="g50">
      <rect
         width="28"
         x="386.57101"
         y="517.79797"
         rx="14"
         height="28"
         style="fill:url(#f)"
         id="rect38" />
      <path
         style="opacity:0.2;fill:url(#g);fill-rule:evenodd"
         d="m 414.301,529.068 -4.73,4.73 3.758,3.758 a 13.984,13.984 0 0 0 0.972,-8.488 z"
         id="path40" />
      <path
         style="fill:url(#h)"
         d="m 400.571,517.798 a 14,14 0 0 0 -13.059,9 h 0.06 l 3,-1 1,1 1,1 v -2 l 2,-1 v -1 l 2,-1 2,-2 v 1 l 1,-1 -1,-1 h 2 v 1 l 2,-1 -1,-1 v -0.95 a 14,14 0 0 0 -1,-0.05 z m 10.375,4.625 -0.375,0.375 v 1 h 1.47 a 14,14 0 0 0 -1.095,-1.375 z m 1.316,1.684 -0.69,0.691 -2,2 -1,1 -1,3 v 1 l 1,1 1,1 2,1 2.79,-0.688 a 14,14 0 0 0 0.21,-2.312 14,14 0 0 0 -2.31,-7.691 z m -23.69,4.691 -1,1 h -0.839 c -0.05,0.34 -0.088,0.681 -0.113,1.023 v 0.002 l 1.951,0.975 1,1 2,1 1,1 -1,1 v 2 l 1,2 2,2 v 2.629 a 14,14 0 0 0 6,1.371 c 0.17,-0.003 0.34,-0.009 0.51,-0.018 l 0.49,-0.982 v -1 l 2,-1 1,-1 v -2 l 1,-1 v -1 l -1,-1 -3,-1 -1,-1 -1,-1 h -1 l -1,-1 -3,-1 -2,1 h -2 v -2 h -1 v -2 z"
         id="path42" />
      <path
         style="opacity:0.2;fill:#292c2f"
         d="m 414.55,531.212 a 14,14 0 0 1 -13.979,13.586 14,14 0 0 1 -13.979,-13.414 14,14 0 0 0 -0.02,0.414 14,14 0 0 0 14,14 14,14 0 0 0 14,-14 14,14 0 0 0 -0.022,-0.586 z"
         id="path44" />
      <path
         style="opacity:0.2;fill:url(#i);fill-rule:evenodd"
         d="m 400.571,524.798 c 0.218,0 0.43,0.022 0.635,0.063 h 0.004 c 0.205,0.037 0.401,0.098 0.592,0.17 l -0.23,-0.233 z m 0,1 a 2.493,2.493 0 0 0 -2.5,2.5 c 0,1.385 1.115,2.5 2.5,2.5 a 2.48,2.48 0 0 0 1.545,-0.545 l -1.545,1.545 -1.113,1.113 c -0.32,0.062 -0.632,0.142 -0.932,0.25 h -0.002 c -0.221,0.096 -0.446,0.189 -0.666,0.287 -0.068,0.031 -0.131,0.068 -0.199,0.1 a 5.983,5.983 0 0 0 -1.511,1.2 l -0.002,10e-4 a 6.061,6.061 0 0 0 -0.918,1.322 l -0.028,0.06 c -0.07,0.138 -0.134,0.28 -0.193,0.425 -0.02,0.051 -0.038,0.104 -0.057,0.156 -0.045,0.123 -0.09,0.245 -0.129,0.371 -0.016,0.056 -0.028,0.112 -0.043,0.168 a 5.908,5.908 0 0 0 -0.093,0.387 l -0.008,0.055 -1.106,1.105 7,7 h 14 v -10 l -1,1 -9,-9 -0.732,-0.73 c 0.071,0.19 0.132,0.386 0.17,0.591 v 0.004 c 0.037,0.207 0.062,0.418 0.062,0.635 l -1.545,1.545 a 2.48,2.48 0 0 0 0.545,-1.545 c 0,-1.385 -1.115,-2.5 -2.5,-2.5 z"
         id="path46" />
      <path
         style="fill:url(#j)"
         d="m 400.571,524.798 a 3.492,3.492 0 0 0 -3.5,3.5 c 0,1.939 1.561,3.5 3.5,3.5 1.94,0 3.5,-1.561 3.5,-3.5 0,-1.939 -1.56,-3.5 -3.5,-3.5 z m 0,7 c -3.878,0 -7,3.122 -7,7 h 10 v -1 h -8.91 a 5.98,5.98 0 0 1 5.91,-5 c 1.147,0 2.2,0.34 3.106,0.895 l 0.744,-0.745 a 6.977,6.977 0 0 0 -3.85,-1.15 z m 0,-6 c 1.385,0 2.5,1.115 2.5,2.5 0,1.385 -1.115,2.5 -2.5,2.5 a 2.495,2.495 0 0 1 -2.5,-2.5 c 0,-1.385 1.115,-2.5 2.5,-2.5 z m 6,6 c -0.554,0 -1,0.446 -1,1 0,0.554 0.446,1 1,1 0.554,0 1,-0.446 1,-1 0,-0.554 -0.446,-1 -1,-1 z m -1,3 v 4 h 2 v -4 z"
         id="path48" />
    </g>
  </g>
  <path
     style="display:inline;mix-blend-mode:normal;fill:url(#linearGradient3403);fill-opacity:1;stroke:url(#linearGradient20558);stroke-width:1.16242;stroke-linecap:butt;stroke-linejoin:round;stroke-miterlimit:4;stroke-dasharray:none;stroke-opacity:1;filter:url(#filter20720)"
     d="M 4.7043071,3.9814882 4.6913695,60.80196 H 58.59546 l 1.022155,-2.866369 c 0,0 -23.87537,0.766388 -32.844441,-4.140386 C 16.257548,48.042344 11.401114,4.0978197 11.401114,4.0978197 Z"
     id="path1686"
     sodipodi:nodetypes="ccccscc"
     transform="matrix(0.49530655,0,0,0.49530655,0.32409325,0.23228439)"
     inkscape:label="folder" />
  <rect
     style="display:inline;fill:none;fill-opacity:1;stroke:url(#linearGradient4557);stroke-width:3.71366;stroke-linejoin:round;stroke-miterlimit:7.8;stroke-dasharray:none;stroke-opacity:0.995146;filter:url(#filter4601)"
     id="rect4539"
     width="62.567089"
     height="62.866646"
     x="1.0323594"
     y="0.59551275"
     ry="6.2447233"
     rx="5.8029528"
     transform="matrix(0.46399463,0,0,0.4630489,1.1562887,1.2331482)"
     inkscape:label="contour" />
</svg>
