<svg width="32" height="32" version="1.1" viewBox="0 0 32 32" xmlns="http://www.w3.org/2000/svg" xmlns:xlink="http://www.w3.org/1999/xlink">
<defs>
<linearGradient id="linearGradient3403" x1="6.9492" x2="11.215" y1="4.5549" y2="59.052" gradientUnits="userSpaceOnUse">
<stop style="stop-color:#32373c" offset="0"/>
<stop style="stop-color:#1a1a1a" offset=".36805"/>
<stop style="stop-color:#31363b" offset="1"/>
</linearGradient>
<linearGradient id="linearGradient20558" x1="25.802" x2="25.111" y1="20.374" y2="58.913" gradientUnits="userSpaceOnUse">
<stop style="stop-color:#3d3d3d" offset="0"/>
<stop offset=".61772"/>
<stop style="stop-color:#3d3d3d" offset="1"/>
</linearGradient>
<linearGradient id="linearGradient4557" x1="43.5" x2="44.142" y1="64.012" y2=".30621" gradientTransform="translate(.36068 -.13017)" gradientUnits="userSpaceOnUse">
<stop style="stop-color:#141618" offset="0"/>
<stop style="stop-color:#686868" offset=".51821"/>
<stop style="stop-color:#31363b" offset="1"/>
</linearGradient>
<linearGradient id="linearGradient919" x1="7.4006" x2="33.063" y1="41.743" y2="7.1074" gradientTransform="matrix(.65876 0 0 .65876 .25841 .21589)" gradientUnits="userSpaceOnUse">
<stop style="stop-color:#197ff1" offset="0"/>
<stop style="stop-color:#1fb4f9" offset="1"/>
</linearGradient>
<linearGradient id="linearGradient4216" x1="13.008" x2="20.759" y1="13.401" y2="20.773" gradientTransform="matrix(1.2978 0 0 1.2978 -1.769 -6.2799)" gradientUnits="userSpaceOnUse">
<stop style="stop-color:#383e51" offset="0"/>
<stop style="stop-color:#655c6f;stop-opacity:0" offset="1"/>
</linearGradient>
<linearGradient id="linearGradient4188" x2="0" y1="538.8" y2="524.8" gradientTransform="matrix(1.2978 0 0 1.2978 -500.87 -675.69)" gradientUnits="userSpaceOnUse">
<stop style="stop-color:#7cbaf8" offset="0"/>
<stop style="stop-color:#f4fcff" offset="1"/>
</linearGradient>
</defs>
<rect x="2.342" y="2.2043" width="27.724" height="28.137" ry="0" style="fill-rule:evenodd;fill:url(#linearGradient919)"/>
<path transform="matrix(.49531 0 0 .49531 .32409 .23228)" d="m4.7043 3.9815-0.012938 56.82h53.904l1.0222-2.8664s-23.875 0.76639-32.844-4.1404c-10.516-5.7529-15.372-49.697-15.372-49.697z" style="fill:url(#linearGradient3403);mix-blend-mode:normal;stroke-linejoin:round;stroke-width:1.1624;stroke:url(#linearGradient20558)"/>
<rect transform="matrix(.46399 0 0 .46305 1.1563 1.2331)" x="1.0324" y=".59551" width="62.567" height="62.867" rx="5.803" ry="6.2447" style="fill:none;stroke-linejoin:round;stroke-miterlimit:7.8;stroke-opacity:.99515;stroke-width:3.7137;stroke:url(#linearGradient4557)"/>
<path d="m21.065 10.572-2.0684 2.6514 2.5728 1.4854c-1.0433 0.4888-2.8613 1.3792 1.3206 2.3726 0.4409 0.10473-0.08194 0.88162-0.19518 1.2978h0.19518l3.5082 3.5082-0.50696 1.6831 4.8187 4.8187c1.4839-1.25 2.7499-2.7406 3.7693-4.403zm-2.0684 1.3181-0.10646 0.14702c0.16273 0.03808 0.31766 0.09412 0.47401 0.14702zm-5.683 7.9542-0.80607 1.1305 11.077 11.077c1.9478-0.50427 3.7705-1.3082 5.4042-2.3827l-8.3268-8.3268c-0.83975 0.58364-1.8586 0.93028-2.9632 0.93028-1.8564 0-3.4679-0.97091-4.3852-2.4283z" style="fill-rule:evenodd;fill:url(#linearGradient4216);opacity:.2;stroke-width:1.2978"/>
<path d="m20.294 5.4005c-1.0785 0-1.9467 0.86824-1.9467 1.9467 0 1.0785 0.86824 1.9467 1.9467 1.9467 1.0785 0 1.9467-0.86824 1.9467-1.9467 0-1.0785-0.86824-1.9467-1.9467-1.9467zm-1.5133 4.3016-2.3219 7.7616c-0.01168 0.02687-0.0144 0.05749-0.02284 0.08617l-0.03543 0.13434 0.0078 0.0026c-0.0012 0.01479-0.0078 0.0279-0.0078 0.04309 0 0.3595 0.28942 0.64891 0.64891 0.64891h5.8402l2.9961 5.1913 0.89733-0.5171-1.2978-5.972-4.8009-0.90746 0.06839-0.98604 4.7325 1.8935-4.6767-3.7388 0.26363-2.7452-2.2915-0.8948zm-1.0824 0.88972c-3.595 0-6.4891 2.8941-6.4891 6.4891 0 3.595 2.8941 6.4891 6.4891 6.4891 1.464 0 2.8-0.49596 3.8833-1.308l-0.93281-0.93281c-0.83637 0.58567-1.8455 0.94294-2.9505 0.94294-2.876 0-5.1913-2.3153-5.1913-5.1913 0-2.876 2.3153-5.1913 5.1913-5.1913z" style="fill:url(#linearGradient4188);stroke-width:1.2978"/>
</svg>
