<svg width="32" height="32" version="1.1" viewBox="0 0 32 32" xmlns="http://www.w3.org/2000/svg" xmlns:xlink="http://www.w3.org/1999/xlink">
<defs>
<linearGradient id="linearGradient3403" x1="6.9492" x2="11.215" y1="4.5549" y2="59.052" gradientUnits="userSpaceOnUse">
<stop style="stop-color:#32373c" offset="0"/>
<stop style="stop-color:#1a1a1a" offset=".36805"/>
<stop style="stop-color:#31363b" offset="1"/>
</linearGradient>
<linearGradient id="linearGradient20558" x1="25.802" x2="25.111" y1="20.374" y2="58.913" gradientUnits="userSpaceOnUse">
<stop style="stop-color:#3d3d3d" offset="0"/>
<stop offset=".61772"/>
<stop style="stop-color:#3d3d3d" offset="1"/>
</linearGradient>
<linearGradient id="linearGradient4557" x1="43.5" x2="44.142" y1="64.012" y2=".30621" gradientTransform="translate(.36068 -.13017)" gradientUnits="userSpaceOnUse">
<stop style="stop-color:#141618" offset="0"/>
<stop style="stop-color:#686868" offset=".51821"/>
<stop style="stop-color:#31363b" offset="1"/>
</linearGradient>
<linearGradient id="b" x2="0" y1="543.8" y2="502.66" gradientTransform="matrix(.41667 0 0 .40833 -159.24 -203.25)" gradientUnits="userSpaceOnUse">
<stop stop-color="#c6cdd1" offset="0"/>
<stop stop-color="#e0e5e7" offset="1"/>
</linearGradient>
<linearGradient id="c" x1="5.375" x2="14.75" y1="7" y2="16.375" gradientUnits="userSpaceOnUse">
<stop offset="0"/>
<stop stop-opacity="0" offset="1"/>
</linearGradient>
<linearGradient id="a" x1="8.2082" x2="19.361" y1="6.403" y2="18.837" gradientTransform="matrix(1.2358 0 0 1 -4.7154 0)" gradientUnits="userSpaceOnUse" xlink:href="#c"/>
<linearGradient id="linearGradient1287" x1="8.2082" x2="19.361" y1="6.403" y2="18.837" gradientTransform="matrix(1.2358 0 0 1 -5.9512 -6)" gradientUnits="userSpaceOnUse" xlink:href="#c"/>
<linearGradient id="linearGradient891" x1="5.375" x2="14.75" y1="7" y2="16.375" gradientUnits="userSpaceOnUse" xlink:href="#c"/>
</defs>
<g transform="matrix(1.3038 0 0 1.5035 2.7764 -1.1424)">
<path d="m1 2h20v18h-20z" fill="url(#b)" stroke-width=".63387" style="fill:url(#b)"/>
<path d="m2 18 18-11 1 1v12h-17z" fill="url(#c)" fill-rule="evenodd" opacity=".2" stroke-width=".625" style="fill:url(#linearGradient891)"/>
<path d="m1 2h20v3h-20z" fill="#566069" stroke-width=".68465"/>
<path d="m1 5h20v1h-20z" fill="#3daee9" stroke-width=".79057"/>
<path d="m2 7h18v11h-18z" fill="#fff" stroke-width=".57446"/>
<rect x="18.75" y="2.75" width="1.5" height="1.277" rx=".75" fill="#eff0f1" stroke-width=".692"/>
<path d="m15.057 14-1.2358 2 2.4715 2h3.7073z" style="fill:url(#a);opacity:.3;stroke-width:1.1116"/>
<path d="m13.821 8-1.2358 2 7.4146 6v-3z" style="fill:url(#linearGradient1287);opacity:.3;stroke-width:1.1116"/>
<path d="m13.821 8-1.2358 2h2.4715zm0 3.5c-0.34231 0-0.61788 0.223-0.61788 0.5 0 0.28 0.27558 0.5 0.61788 0.5 0.34231 0 0.61788-0.223 0.61788-0.5s-0.27558-0.5-0.61788-0.5zm-1.2358 2.5 1.2358 2 1.2358-2z" style="fill:#4a525a;stroke-width:1.1116"/>
</g>
<path transform="matrix(.49531 0 0 .49531 .32409 .23228)" d="m4.7043 3.9815-0.012938 56.82h53.904l1.0222-2.8664s-23.875 0.76639-32.844-4.1404c-10.516-5.7529-15.372-49.697-15.372-49.697z" style="fill:url(#linearGradient3403);mix-blend-mode:normal;stroke-linejoin:round;stroke-width:1.1624;stroke:url(#linearGradient20558)"/>
<rect transform="matrix(.46399 0 0 .46305 1.1563 1.2331)" x="1.0324" y=".59551" width="62.567" height="62.867" rx="5.803" ry="6.2447" style="fill:none;stroke-linejoin:round;stroke-miterlimit:7.8;stroke-opacity:.99515;stroke-width:3.7137;stroke:url(#linearGradient4557)"/>
</svg>
