<svg width="32" height="32" version="1.1" viewBox="0 0 32 32" xmlns="http://www.w3.org/2000/svg" xmlns:xlink="http://www.w3.org/1999/xlink">
<defs>
<linearGradient id="linearGradient3403" x1="6.9492" x2="11.215" y1="4.5549" y2="59.052" gradientUnits="userSpaceOnUse">
<stop style="stop-color:#32373c" offset="0"/>
<stop style="stop-color:#1a1a1a" offset=".36805"/>
<stop style="stop-color:#31363b" offset="1"/>
</linearGradient>
<linearGradient id="linearGradient20558" x1="25.802" x2="25.111" y1="20.374" y2="58.913" gradientUnits="userSpaceOnUse">
<stop style="stop-color:#3d3d3d" offset="0"/>
<stop offset=".61772"/>
<stop style="stop-color:#3d3d3d" offset="1"/>
</linearGradient>
<linearGradient id="linearGradient4557" x1="43.5" x2="44.142" y1="64.012" y2=".30621" gradientTransform="translate(.36068 -.13017)" gradientUnits="userSpaceOnUse">
<stop style="stop-color:#141618" offset="0"/>
<stop style="stop-color:#686868" offset=".51821"/>
<stop style="stop-color:#31363b" offset="1"/>
</linearGradient>
<linearGradient id="b" x2="0" y1="543.8" y2="502.66" gradientTransform="matrix(.66667 0 0 .63518 -256.38 -317.28)" gradientUnits="userSpaceOnUse">
<stop stop-color="#c6cdd1" offset="0"/>
<stop stop-color="#e0e5e7" offset="1"/>
</linearGradient>
<linearGradient id="c" x1="7" x2="22" y1="10" y2="25" gradientUnits="userSpaceOnUse">
<stop offset="0"/>
<stop stop-opacity="0" offset="1"/>
</linearGradient>
<radialGradient id="d" cx="2" cy="5.5" r="14.5" gradientTransform="matrix(0 1.3793 -2.2759 0 14.517 9.241)" gradientUnits="userSpaceOnUse" xlink:href="#a"/>
<linearGradient id="a">
<stop stop-color="#292c2f" offset="0"/>
<stop stop-opacity="0" offset="1"/>
</linearGradient>
<radialGradient id="e" cx="12" cy="1" r="9.5" gradientTransform="matrix(0 .31579 -1.8948 -5e-5 3.895 5.21)" gradientUnits="userSpaceOnUse" xlink:href="#a"/>
<linearGradient id="f" x1="2" x2="2" y1="27" y2="9" gradientUnits="userSpaceOnUse">
<stop stop-color="#31363b" offset="0"/>
<stop stop-color="#4f575f" offset="1"/>
</linearGradient>
</defs>
<g transform="matrix(.92408 0 0 1 1.3231 -.59203)">
<path d="m0 6c0-3 1-4 4.1059-4h23.964c2.9306 0 3.9306 1 3.9306 4v21c0 2-1 3-2.9855 3h-26.015c-2 0-3-1-3-3.0901z" fill="url(#b)" style="fill:url(#b)"/>
<path d="m1 28 30-20 1 1v21h-29z" fill="url(#c)" fill-rule="evenodd" opacity=".2" style="fill:url(#c)"/>
<path d="m4 2h24c3 0 4 1 4 4h-32c0-3 1-4 4-4z" fill="#566069"/>
<path d="m0 6h32v1h-32z" fill="#3daee9"/>
<path d="m1 8h30v20h-30z" fill="#eff0f1"/>
<rect x="27.591" y="3.314" width="2" height="1.7741" rx="1" fill="#eff0f1" style="stroke-width:.94184"/>
<path d="m2 27 1 1h28v-15l-1-1z" fill="url(#d)" opacity=".2" style="fill:url(#d)"/>
<path d="m2 12h28v15h-28z" fill="#fcfcfc"/>
<path d="m2 10 2 2h16v-2l-1-1z" fill="url(#e)" opacity=".2" style="fill:url(#e)"/>
<path d="m2 9h18v1h-18z" fill="#fcfcfc"/>
<path d="m2 9h9v1h-9zm0 17h4v1h-4zm6 0h12v1h-12zm-6-2h4v1h-4zm6 0h14v1h-14zm-6-2h4v1h-4zm6 0h12v1h-12zm-6-2h4v1h-4zm6 0h14v1h-14zm-6-2h4v1h-4zm6 0h10v1h-10zm-6-2h4v1h-4zm6 0h16v1h-16zm-6-2h4v1h-4zm6 0h18v1h-18zm-6-2h4v1h-4zm6 0h12v1h-12z" fill="url(#f)" style="fill:url(#f)"/>
</g>
<path transform="matrix(.49531 0 0 .49531 .32409 .23228)" d="m4.7043 3.9815-0.012938 56.82h53.904l1.0222-2.8664s-23.875 0.76639-32.844-4.1404c-10.516-5.7529-15.372-49.697-15.372-49.697z" style="fill:url(#linearGradient3403);mix-blend-mode:normal;stroke-linejoin:round;stroke-width:1.1624;stroke:url(#linearGradient20558)"/>
<rect transform="matrix(.46399 0 0 .46305 1.1563 1.2331)" x="1.0324" y=".59551" width="62.567" height="62.867" rx="5.803" ry="6.2447" style="fill:none;stroke-linejoin:round;stroke-miterlimit:7.8;stroke-opacity:.99515;stroke-width:3.7137;stroke:url(#linearGradient4557)"/>
</svg>
