<?xml version="1.0" encoding="UTF-8" standalone="no"?>
<!-- Created with Inkscape (http://www.inkscape.org/) -->

<svg
   width="32"
   height="32"
   version="1.1"
   viewBox="0 0 32 32"
   id="svg22"
   sodipodi:docname="preferences-system-splash.svg"
   inkscape:version="1.1.2 (0a00cf5339, 2022-02-04)"
   xmlns:inkscape="http://www.inkscape.org/namespaces/inkscape"
   xmlns:sodipodi="http://sodipodi.sourceforge.net/DTD/sodipodi-0.dtd"
   xmlns:xlink="http://www.w3.org/1999/xlink"
   xmlns="http://www.w3.org/2000/svg"
   xmlns:svg="http://www.w3.org/2000/svg">
  <sodipodi:namedview
     id="namedview24"
     pagecolor="#ffffff"
     bordercolor="#666666"
     borderopacity="1.0"
     inkscape:showpageshadow="2"
     inkscape:pageopacity="0.0"
     inkscape:pagecheckerboard="0"
     inkscape:deskcolor="#d1d1d1"
     showgrid="false"
     inkscape:zoom="18.116076"
     inkscape:cx="17.525871"
     inkscape:cy="15.235088"
     inkscape:window-width="1920"
     inkscape:window-height="996"
     inkscape:window-x="0"
     inkscape:window-y="0"
     inkscape:window-maximized="1"
     inkscape:current-layer="g926"
     inkscape:pageshadow="2" />
  <defs
     id="defs12">
    <linearGradient
       inkscape:collect="always"
       id="linearGradient917">
      <stop
         style="stop-color:#000000;stop-opacity:0.99607843"
         offset="0"
         id="stop913" />
      <stop
         style="stop-color:#353a3f;stop-opacity:0.99607843"
         offset="1"
         id="stop915" />
    </linearGradient>
    <linearGradient
       id="linearGradient1005-3-3"
       x1="5.2535"
       x2="9.3823996"
       y1="15.383"
       y2="2.9421"
       gradientTransform="matrix(0.99999,0,0,0.99999,1.632,-0.61743)"
       gradientUnits="userSpaceOnUse">
      <stop
         stop-color="#fa8200"
         offset="0"
         id="stop2" />
      <stop
         stop-color="#ff9600"
         offset=".36953"
         id="stop4" />
      <stop
         stop-color="#ffb400"
         offset="1"
         id="stop6" />
    </linearGradient>
    <filter
       id="filter4014"
       x="-0.062499933"
       y="-0.057692993"
       width="1.1249999"
       height="1.115386"
       color-interpolation-filters="sRGB">
      <feGaussianBlur
         stdDeviation="1.093751"
         id="feGaussianBlur9" />
    </filter>
    <linearGradient
       inkscape:collect="always"
       xlink:href="#linearGradient3487"
       id="linearGradient3403"
       gradientUnits="userSpaceOnUse"
       x1="6.9491749"
       y1="4.5549412"
       x2="11.215498"
       y2="59.052471" />
    <linearGradient
       id="linearGradient3487">
      <stop
         style="stop-color:#32373c;stop-opacity:1"
         offset="0"
         id="stop3481" />
      <stop
         id="stop3483"
         offset="0.36804965"
         style="stop-color:#1a1a1a;stop-opacity:1" />
      <stop
         style="stop-color:#31363b;stop-opacity:1"
         offset="1"
         id="stop3485" />
    </linearGradient>
    <linearGradient
       inkscape:collect="always"
       xlink:href="#linearGradient20604"
       id="linearGradient20558"
       gradientUnits="userSpaceOnUse"
       x1="25.802212"
       y1="20.373846"
       x2="25.111048"
       y2="58.912758" />
    <linearGradient
       id="linearGradient20604">
      <stop
         id="stop20598"
         offset="0"
         style="stop-color:#3d3d3d;stop-opacity:1" />
      <stop
         style="stop-color:#000000;stop-opacity:1"
         offset="0.61772454"
         id="stop20600" />
      <stop
         id="stop20602"
         offset="1"
         style="stop-color:#3d3d3d;stop-opacity:1" />
    </linearGradient>
    <filter
       inkscape:collect="always"
       style="color-interpolation-filters:sRGB"
       id="filter20720"
       x="-0.017024755"
       y="-0.016457183"
       width="1.0340491"
       height="1.0329144">
      <feGaussianBlur
         inkscape:collect="always"
         stdDeviation="0.14745661"
         id="feGaussianBlur20722" />
    </filter>
    <linearGradient
       gradientTransform="translate(0.36067797,-0.13016949)"
       xlink:href="#linearGradient4555"
       id="linearGradient4557"
       x1="43.499737"
       y1="64.011795"
       x2="44.141731"
       y2="0.30621234"
       gradientUnits="userSpaceOnUse" />
    <linearGradient
       id="linearGradient4555">
      <stop
         style="stop-color:#141618;stop-opacity:1"
         offset="0"
         id="stop4551" />
      <stop
         id="stop4559"
         offset="0.51820582"
         style="stop-color:#686868;stop-opacity:1" />
      <stop
         style="stop-color:#31363b;stop-opacity:1"
         offset="1"
         id="stop4553" />
    </linearGradient>
    <filter
       style="color-interpolation-filters:sRGB"
       id="filter4601"
       x="-0.030244762"
       width="1.0604895"
       y="-0.030100647"
       height="1.0602013">
      <feGaussianBlur
         stdDeviation="0.014790289"
         id="feGaussianBlur4603" />
    </filter>
    <linearGradient
       inkscape:collect="always"
       xlink:href="#linearGradient917"
       id="linearGradient919"
       x1="7.400631"
       y1="41.743092"
       x2="33.063145"
       y2="7.1074457"
       gradientUnits="userSpaceOnUse"
       gradientTransform="matrix(0.65875771,0,0,0.65875771,0.25841203,0.21589031)" />
    <linearGradient
       xlink:href="#a-6"
       id="h-3"
       x1="0"
       y1="25"
       x2="0"
       y2="2"
       gradientUnits="userSpaceOnUse" />
    <linearGradient
       id="a-6">
      <stop
         stop-color="#2a2c2f"
         id="stop3" />
      <stop
         offset="1"
         stop-color="#424649"
         id="stop5" />
    </linearGradient>
    <linearGradient
       xlink:href="#b-5"
       id="i-7"
       gradientUnits="userSpaceOnUse"
       gradientTransform="translate(-384.571,-515.798)"
       x1="393.57101"
       y1="519.79797"
       x2="410.57101"
       y2="536.79797" />
    <linearGradient
       id="b-5">
      <stop
         id="stop9-3" />
      <stop
         offset="1"
         stop-opacity="0"
         id="stop11" />
    </linearGradient>
    <linearGradient
       xlink:href="#c-6"
       id="j-5"
       y1="503.07901"
       x1="418.17001"
       y2="531.45801"
       x2="384.57101"
       gradientUnits="userSpaceOnUse"
       gradientTransform="matrix(0.625,0,0,0.55,-239.357,-274.089)" />
    <linearGradient
       id="c-6">
      <stop
         stop-color="#1abc9c"
         id="stop15-2" />
      <stop
         offset="1"
         stop-color="#2980b9"
         id="stop17" />
    </linearGradient>
    <linearGradient
       xlink:href="#d-1"
       id="k-9"
       y1="521.633"
       x1="404.04501"
       y2="528.34998"
       x2="430.73599"
       gradientUnits="userSpaceOnUse"
       gradientTransform="matrix(0.625,0,0,0.55,-239.357,-274.089)" />
    <linearGradient
       id="d-1">
      <stop
         stop-color="#cc4a5e"
         id="stop21" />
      <stop
         offset="1"
         stop-color="#aa478a"
         id="stop23-2" />
    </linearGradient>
    <linearGradient
       xlink:href="#e-0"
       id="l-7"
       y1="542.224"
       x1="398.09201"
       y2="524.90002"
       x2="394.00299"
       gradientUnits="userSpaceOnUse"
       gradientTransform="matrix(0.625,0,0,0.55,-239.357,-274.089)" />
    <linearGradient
       id="e-0">
      <stop
         stop-color="#334545"
         id="stop27" />
      <stop
         offset="1"
         stop-color="#536161"
         id="stop29" />
    </linearGradient>
    <linearGradient
       xlink:href="#e-0"
       id="m-9"
       y1="568.79797"
       x1="431.57101"
       y2="562.79797"
       x2="439.57101"
       gradientUnits="userSpaceOnUse"
       gradientTransform="matrix(-0.625,0,0,0.55,285.107,-296.089)" />
    <linearGradient
       xlink:href="#e-0"
       id="n-3"
       y1="581.87"
       x1="406.53699"
       y2="572.67798"
       x2="423.32001"
       gradientUnits="userSpaceOnUse"
       gradientTransform="matrix(-0.625,0,0,0.55,285.107,-296.089)" />
    <linearGradient
       xlink:href="#e-0"
       id="o-6"
       y1="572.33398"
       x1="423.05399"
       y2="566.76599"
       x2="431.22501"
       gradientUnits="userSpaceOnUse"
       gradientTransform="matrix(-0.625,0,0,0.55,285.107,-296.089)" />
    <linearGradient
       xlink:href="#e-0"
       id="p"
       y1="577.10199"
       x1="431.31299"
       y2="571.44501"
       x2="440.63199"
       gradientUnits="userSpaceOnUse"
       gradientTransform="matrix(-0.625,0,0,0.55,285.107,-296.089)" />
    <linearGradient
       xlink:href="#e-0"
       id="q"
       y1="577.362"
       x1="430.56699"
       y2="591.328"
       x2="423.75"
       gradientUnits="userSpaceOnUse"
       gradientTransform="matrix(-0.625,0,0,0.55,285.107,-296.089)" />
    <linearGradient
       xlink:href="#f-0"
       id="r"
       y1="542.79797"
       y2="538.79797"
       x2="0"
       gradientUnits="userSpaceOnUse"
       gradientTransform="translate(-384.572,-513.798)" />
    <linearGradient
       id="f-0">
      <stop
         stop-color="#c6cdd1"
         id="stop38-6" />
      <stop
         offset="1"
         stop-color="#e0e5e7"
         id="stop40-2" />
    </linearGradient>
    <linearGradient
       id="s"
       gradientUnits="userSpaceOnUse"
       x1="14"
       x2="23"
       y1="10"
       y2="19">
      <stop
         offset="0"
         stop-color="#292c2f"
         id="stop60" />
      <stop
         offset="1"
         stop-color="#292c2f"
         stop-opacity=".031"
         id="stop62" />
    </linearGradient>
    <linearGradient
       id="t"
       gradientUnits="userSpaceOnUse"
       x1="19.514"
       x2="15"
       y1="15.555"
       y2="11">
      <stop
         offset="0"
         stop-color="#f3f3f3"
         id="stop55" />
      <stop
         offset="1"
         stop-color="#fcfcfc"
         stop-opacity="0"
         id="stop57" />
    </linearGradient>
    <linearGradient
       id="u"
       gradientUnits="userSpaceOnUse"
       x1="16"
       x2="16"
       y1="18"
       y2="6">
      <stop
         offset="0"
         stop-color="#f0f0f0"
         id="stop50-6" />
      <stop
         offset="1"
         stop-color="#fcfcfc"
         id="stop52" />
    </linearGradient>
  </defs>
  <rect
     style="display:inline;fill:url(#linearGradient919);fill-opacity:1;fill-rule:evenodd;stroke:none;stroke-width:0.611209;stroke-linejoin:round;stroke-miterlimit:7.8"
     id="rect1192"
     width="27.723557"
     height="28.13693"
     x="2.3420036"
     y="2.2043438"
     ry="0"
     inkscape:label="arriere" />
  <g
     id="g926"
     transform="matrix(0.87711201,0,0,0.95545199,1.9771481,-0.17370865)">
    <path
       d="M 4,2 C 1.784,2 0,3.784 0,6 v 14.999999 c 0,2.216 1.784,4 4,4 h 24 c 2.216,0 4,-1.784 4,-4 V 6 C 32,3.784 30.216,2 28,2 Z m 0,1 h 24 c 1.662,0 3,1.784 3,4 V 20.999999 H 1 V 7 C 1,4.784 2.338,3 4,3 Z"
       id="path65-1"
       style="fill:url(#h-3);paint-order:stroke fill markers"
       inkscape:connector-curvature="0" />
    <path
       d="m 30,4 1,3 V 20.999999 H 1 l 4,4 h 23 c 0.554,0 1.082,-0.11 1.56,-0.313 a 3.989,3.989 0 0 0 1.27,-0.857 c 0.362,-0.361 0.656,-0.79 0.858,-1.27 A 4.008,4.008 0 0 0 32,21 V 6 Z"
       id="path67-8"
       style="opacity:0.2;fill:url(#i-7);fill-rule:evenodd"
       inkscape:connector-curvature="0" />
    <path
       d="M 4,3 C 3.584,3 3.19,3.11 2.83,3.313 2.47,3.514 2.148,3.808 1.877,4.17 1.335,4.893 1,5.892 1,7 V 20.999999 H 31 V 7 C 31,5.892 30.665,4.893 30.123,4.17 A 3.117,3.117 0 0 0 29.17,3.313 2.372,2.372 0 0 0 28,3 Z"
       id="path69-7"
       style="fill:url(#j-5)"
       inkscape:connector-curvature="0" />
    <path
       d="M 25.137,20.999999 H 31 V 7 C 31,5.892 30.665,4.893 30.123,4.17 29.977,3.975 29.783,3.858 29.609,3.707 L 10.354,13.49 Z"
       id="path71"
       style="fill:url(#k-9)"
       inkscape:connector-curvature="0" />
    <path
       d="M 10.375,13.45 1,18.213999 V 21 h 24.276 z"
       id="path73-9"
       style="fill:url(#l-7)"
       inkscape:connector-curvature="0" />
    <path
       d="m 15.537,16.072999 -5.162,-2.623 v 5.245 z"
       id="path75-2"
       style="fill:url(#m-9)"
       inkscape:connector-curvature="0" />
    <path
       d="M 20.698,18.693999 V 21 h 4.538 z"
       id="path77-0"
       style="fill:url(#n-3)"
       inkscape:connector-curvature="0" />
    <path
       d="m 15.537,16.072999 v 4.927 h 0.624 l 4.537,-2.305 z"
       id="path79-2"
       style="fill:url(#o-6)"
       inkscape:connector-curvature="0" />
    <path
       d="m 10.375,18.694999 v 2.305 h 4.537 z"
       id="path81-3"
       style="fill:url(#p)"
       inkscape:connector-curvature="0" />
    <path
       d="M 20.698,18.693999 16.16,21 h 4.538 z"
       id="path83-7"
       style="fill:url(#q)"
       inkscape:connector-curvature="0" />
    <path
       d="M 31,8.125 V 7 C 31,5.892 30.665,4.893 30.123,4.17 29.977,3.975 29.783,3.858 29.609,3.707 L 10.354,13.49 Z"
       id="path85-5"
       inkscape:connector-curvature="0"
       style="fill:#aa478a" />
    <path
       d="m 13,24.999999 h 6 v 4 h -6 z"
       id="path87"
       style="fill:url(#r)"
       inkscape:connector-curvature="0" />
    <path
       d="m 10,28.999999 h 12 v 1 H 10 Z"
       id="path89"
       inkscape:connector-curvature="0"
       style="fill:#99a1a7" />
    <g
       id="g97"
       transform="matrix(1.0980057,0,0,1,-1.9746621,0)">
      <path
         d="m 16.088,6 a 6,6 0 0 0 -4.33,1.758 6,6 0 0 0 0,8.484 L 16.516,21 H 31 V 18.516 L 20.242,7.758 A 6,6 0 0 0 16.088,6 Z"
         id="path91"
         style="opacity:0.25;fill:url(#s)"
         inkscape:connector-curvature="0" />
      <path
         d="m 16,6 a 6,6 0 0 0 -6,6 6,6 0 0 0 6,6 6,6 0 0 0 6,-6 6,6 0 0 0 -6,-6 z m 0,1 a 5,5 0 0 1 5,5 5,5 0 0 1 -5,5 5,5 0 0 1 -5,-5 5,5 0 0 1 5,-5 z"
         id="path93"
         style="fill:url(#t)"
         inkscape:connector-curvature="0" />
      <path
         d="m 16,6 a 6,6 0 0 0 -6,6 6,6 0 0 0 6,6 6,6 0 0 0 4.215,-1.736 l -0.701,-0.71 A 5,5 0 0 1 16,17 5,5 0 0 1 11,12 5,5 0 0 1 16,7 Z"
         id="path95"
         style="fill:url(#u)"
         inkscape:connector-curvature="0" />
    </g>
  </g>
  <path
     style="display:inline;mix-blend-mode:normal;fill:url(#linearGradient3403);fill-opacity:1;stroke:url(#linearGradient20558);stroke-width:1.16242;stroke-linecap:butt;stroke-linejoin:round;stroke-miterlimit:4;stroke-dasharray:none;stroke-opacity:1;filter:url(#filter20720)"
     d="M 4.7043071,3.9814882 4.6913695,60.80196 H 58.59546 l 1.022155,-2.866369 c 0,0 -23.87537,0.766388 -32.844441,-4.140386 C 16.257548,48.042344 11.401114,4.0978197 11.401114,4.0978197 Z"
     id="path1686"
     sodipodi:nodetypes="ccccscc"
     transform="matrix(0.49530655,0,0,0.49530655,0.32409325,0.23228439)"
     inkscape:label="folder" />
  <rect
     style="display:inline;fill:none;fill-opacity:1;stroke:url(#linearGradient4557);stroke-width:3.71366;stroke-linejoin:round;stroke-miterlimit:7.8;stroke-dasharray:none;stroke-opacity:0.995146;filter:url(#filter4601)"
     id="rect4539"
     width="62.567089"
     height="62.866646"
     x="1.0323594"
     y="0.59551275"
     ry="6.2447233"
     rx="5.8029528"
     transform="matrix(0.46399463,0,0,0.4630489,1.1562887,1.2331482)"
     inkscape:label="contour" />
</svg>
