<svg width="32" height="32" version="1.1" viewBox="0 0 32 32" xmlns="http://www.w3.org/2000/svg" xmlns:xlink="http://www.w3.org/1999/xlink">
<defs>
<linearGradient id="linearGradient3403" x1="6.9492" x2="11.215" y1="4.5549" y2="59.052" gradientUnits="userSpaceOnUse">
<stop style="stop-color:#32373c" offset="0"/>
<stop style="stop-color:#1a1a1a" offset=".36805"/>
<stop style="stop-color:#31363b" offset="1"/>
</linearGradient>
<linearGradient id="linearGradient20558" x1="25.802" x2="25.111" y1="20.374" y2="58.913" gradientUnits="userSpaceOnUse">
<stop style="stop-color:#3d3d3d" offset="0"/>
<stop offset=".61772"/>
<stop style="stop-color:#3d3d3d" offset="1"/>
</linearGradient>
<linearGradient id="linearGradient4557" x1="43.5" x2="44.142" y1="64.012" y2=".30621" gradientTransform="translate(.36068 -.13017)" gradientUnits="userSpaceOnUse">
<stop style="stop-color:#141618" offset="0"/>
<stop style="stop-color:#686868" offset=".51821"/>
<stop style="stop-color:#31363b" offset="1"/>
</linearGradient>
<linearGradient id="linearGradient919" x1="7.4006" x2="33.063" y1="41.743" y2="7.1074" gradientTransform="matrix(.65876 0 0 .65876 .25841 .21589)" gradientUnits="userSpaceOnUse">
<stop style="stop-color:#1980f2" offset="0"/>
<stop style="stop-color:#20b8f9" offset="1"/>
</linearGradient>
<linearGradient id="linearGradient4309" x1="9" x2="21.273" y1="9" y2="20.953" gradientTransform="matrix(1.0699 0 0 1.0641 380.77 510.14)" gradientUnits="userSpaceOnUse">
<stop style="stop-color:#292c2f" offset="0"/>
<stop style="stop-opacity:0" offset="1"/>
</linearGradient>
<linearGradient id="linearGradient4211" x2="0" y1="537.8" y2="523.8" gradientTransform="matrix(1.0699 0 0 1.0641 -31.754 -37.65)" gradientUnits="userSpaceOnUse">
<stop style="stop-color:#7cbaf8" offset="0"/>
<stop style="stop-color:#f4fcff" offset="1"/>
</linearGradient>
</defs>
<rect x="2.342" y="2.2043" width="27.724" height="28.137" ry="0" style="fill-rule:evenodd;fill:url(#linearGradient919)"/>
<g transform="matrix(1.04 0 0 1.04 -396.12 -532.62)">
<path d="m400.03 520.78-1.0699 1.0641v2.1282l2.1398 2.1282v1.0641l-4.2796-4.2563h-3.2097l-1.0699 1.0641v2.1282l1.0699 1.0641 1.0699 1.0641v1.0641h-2.1398l-1.0699 1.0641-1.0699 2.1282-1.0699 2.1282 7.4328 7.3925c0.37304 0.0275 0.746 0.0561 1.1263 0.0561 7.2972 0 13.338-5.14 14.69-11.992l-9.3407-9.29h-1.0699z" style="fill-rule:evenodd;fill:url(#linearGradient4309);opacity:.2;stroke-width:1.067"/>
<path d="m401.1 519.82c-1.7782 0-3.2097 1.4238-3.2097 3.1923 0 1.5474 1.0967 2.8311 2.5619 3.1278-1.2456 0.14927-2.3555 0.7202-3.1846 1.567a6.4194 6.3845 0 0 1 0.99467 0.54451c0.75565-0.66954 1.7414-1.089 2.8377-1.089 2.3709 0 4.2796 1.8983 4.2796 4.2564h-4.6536a6.4194 6.3845 0 0 1 0.2821 1.0641h5.4414v-1.0641c0-2.7287-2.0468-4.9618-4.7017-5.2789 1.4652-0.29669 2.5619-1.5804 2.5619-3.1278 0-1.7685-1.4315-3.1923-3.2097-3.1923zm0 1.0641c1.1854 0 2.1398 0.94916 2.1398 2.1282s-0.95434 2.1282-2.1398 2.1282c-1.1854 0-2.1398-0.94916-2.1398-2.1282s0.95435-2.1282 2.1398-2.1282zm-6.4194 0.95809c-1.7782 0-3.2097 1.4238-3.2097 3.1923s1.4315 3.1923 3.2097 3.1923c1.7782 0 3.2097-1.4238 3.2097-3.1923s-1.4315-3.1923-3.2097-3.1923zm0 6.3845c-2.9636 0-5.3495 2.3729-5.3495 5.3204v1.0641h10.699v-1.0641c0-2.9476-2.3858-5.3204-5.3495-5.3204zm0-5.3204c1.1854 0 2.1398 0.94916 2.1398 2.1282s-0.95435 2.1282-2.1398 2.1282c-1.1854 0-2.1398-0.94916-2.1398-2.1282s0.95435-2.1282 2.1398-2.1282zm0 6.3845c2.3709 0 4.2796 1.8983 4.2796 4.2564h-8.5592c0-2.358 1.9087-4.2564 4.2796-4.2564z" style="fill:url(#linearGradient4211);stroke-width:1.067"/>
</g>
<path transform="matrix(.49531 0 0 .49531 .32409 .23228)" d="m4.7043 3.9815-0.012938 56.82h53.904l1.0222-2.8664s-23.875 0.76639-32.844-4.1404c-10.516-5.7529-15.372-49.697-15.372-49.697z" style="fill:url(#linearGradient3403);mix-blend-mode:normal;stroke-linejoin:round;stroke-width:1.1624;stroke:url(#linearGradient20558)"/>
<rect transform="matrix(.46399 0 0 .46305 1.1563 1.2331)" x="1.0324" y=".59551" width="62.567" height="62.867" rx="5.803" ry="6.2447" style="fill:none;stroke-linejoin:round;stroke-miterlimit:7.8;stroke-opacity:.99515;stroke-width:3.7137;stroke:url(#linearGradient4557)"/>
</svg>
