<?xml version="1.0" encoding="UTF-8" standalone="no"?>
<svg
   viewBox="0 0 16 16"
   id="svg6"
   version="1.1"
   xmlns="http://www.w3.org/2000/svg"
   xmlns:svg="http://www.w3.org/2000/svg">
  <defs
     id="defs3051">
    <style
       id="current-color-scheme" />
  </defs>
  <path
     style="fill:#fdbc4b;fill-opacity:1;stroke-width:0.752443"
     d="M 3.9216587,2.0395 A 1.8924406,1.8923613 0 0 0 2.039,3.9220797 V 12.07842 A 1.8924406,1.8923613 0 0 0 3.9216587,13.961 H 12.078341 A 1.8924406,1.8923613 0 0 0 13.961,12.07842 V 5.2140019 A 1.8924406,1.8923613 0 0 0 12.078341,3.3314222 H 8.6042265 L 7.9398033,2.6670266 7.6132345,2.3412244 7.3122504,2.0402524 H 3.9216587 Z M 6.4047814,5.6474016 H 13.333447 V 12.07842 c 0,0.695246 -0.559831,1.255053 -1.255106,1.255053 H 3.9216587 A 1.2520959,1.2520434 0 0 1 2.6665529,12.07842 V 7.1522615 h 2.2280384 v -0.00602 l 0.00602,0.00602 1.5049233,-1.5048599 z"
     id="path1-5" />
</svg>
