<?xml version="1.0" encoding="UTF-8" standalone="no"?>
<svg
   viewBox="0 0 16 16"
   version="1.1"
   id="svg1"
   xmlns="http://www.w3.org/2000/svg"
   xmlns:svg="http://www.w3.org/2000/svg">
  <defs
     id="defs3051">
    <style
       type="text/css"
       id="current-color-scheme">
      .ColorScheme-Text {
        color:#eff0f1;
      }
      </style>
  </defs>
  <path
     style="fill:currentColor;fill-opacity:1;stroke:none"
     id="path5-3-9-8-7-7"
     class="ColorScheme-Text"
     d="m 14.093986,8.0000012 c 0,-3.3507436 -2.728404,-6.0670329 -6.0939867,-6.0670329 -3.3655791,0 -6.0939849,2.7162893 -6.0939849,6.0670329 0,3.3507318 2.7284058,6.0670308 6.0939849,6.0670308 h 6.0939867 v -1.011176 h -2.729628 c 1.703775,-1.123014 2.728829,-3.021424 2.729628,-5.0558548 z M 10.984934,12.09036 C 10.304375,12.582621 9.3514653,12.432522 8.8569084,11.754617 8.3624787,11.076953 8.5132274,10.128499 9.1940162,9.6359915 9.8748453,9.1437423 10.827569,9.2938328 11.322047,9.9717395 11.816758,10.649379 11.665736,11.597858 10.984934,12.09036 Z m -0.07446,-6.62644 c 0.800087,-0.2589596 1.659614,0.1770027 1.919708,0.9736498 0.259834,0.7968933 -0.178001,1.6525329 -0.97827,1.9112537 C 11.051858,8.6077804 10.192336,8.1718191 9.9321946,7.3751736 9.6723823,6.5785316 10.110236,5.7226424 10.910504,5.4639166 Z M 8.0002673,2.9441428 c 0.8413964,0 1.5234915,0.6791301 1.5234915,1.5167587 0,0.8376227 -0.6820951,1.5167523 -1.5234915,1.5167523 -0.8412725,0 -1.5234865,-0.6791296 -1.5234865,-1.5167523 0,-0.8376286 0.682214,-1.5167587 1.5234865,-1.5167587 z M 3.170307,6.4375698 C 3.4304955,5.6409227 4.2899824,5.2049626 5.0900721,5.4636755 5.8903153,5.7226424 6.3281673,6.5782854 6.0683161,7.3749258 5.8082288,8.1715662 4.9487811,8.6075375 4.1486292,8.3488235 3.3483214,8.0901027 2.9103927,7.2344631 3.1702449,6.4375698 Z M 7.1432678,11.754624 C 6.6487527,12.432522 5.6959042,12.582621 5.0152366,12.09036 4.3345606,11.597858 4.1835651,10.649379 4.6782417,9.9717395 5.17265,9.2940773 6.1256022,9.1437423 6.8062755,9.636241 c 0.6806733,0.49226 0.8314722,1.440715 0.3369923,2.118383 z M 7.4924167,8.0000012 c 0,-0.2792123 0.2273555,-0.5055881 0.5077903,-0.5055881 0.2804381,0 0.5078372,0.2263758 0.5078372,0.5055881 0,0.2792055 -0.2273991,0.5055864 -0.5078372,0.5055864 -0.2804348,0 -0.5077903,-0.2263809 -0.5077903,-0.5055864 z m 0,0" />
</svg>
