<?xml version="1.0" encoding="UTF-8" standalone="no"?>
<svg
   viewBox="0 0 16 16"
   version="1.1"
   id="svg1"
   xmlns="http://www.w3.org/2000/svg"
   xmlns:svg="http://www.w3.org/2000/svg">
  <defs
     id="defs3051">
    <style type="text/css" id="current-color-scheme">.ColorScheme-Text { color: #fcfcfc; } </style>
  </defs>
  <path
     style="fill:currentColor"
     d="m 2,3 c 0,0.5842491 0,9.505551 0,10 0,0.494449 0.4859628,1 1,1 0.5140372,0 9.497303,0 10,0 0.502697,0 1,-0.515143 1,-1 C 14,12.515143 14,3.5355263 14,3 14,2.4644737 13.511284,2 13,2 12.488716,2 3.512127,2 3,2 2.487873,2 2,2.4157509 2,3 Z m 1,0 h 10 v 8 H 3 Z M 4,4 V 7 H 7 V 5 H 6 L 5.1,4 Z m -1,8 h 1 v 1 H 3 Z m 2,0 h 4 v 1 H 5 Z m 5,0 h 1 v 1 h -1 z m 2,0 h 1 v 1 h -1 z"
     class="ColorScheme-Text"
     id="path1" />
</svg>
