<?xml version="1.0" encoding="UTF-8" standalone="no"?>
<svg
   viewBox="0 0 16 16"
   version="1.1"
   id="svg1"
   xmlns="http://www.w3.org/2000/svg"
   xmlns:svg="http://www.w3.org/2000/svg">
  <defs
     id="defs3051">
    <style
       type="text/css"
       id="current-color-scheme">
      .ColorScheme-Text {
        color:#eff0f1;
      }
      </style>
  </defs>
  <path
     class="ColorScheme-Text"
     d="m 13.593498,2 c -0.05196,0.00241 -0.12757,0.03704 -0.168046,0.076965 L 2.0901397,13.257908 C 2.049666,13.297856 2.0090939,13.381712 2,13.444341 l 0.1383525,0.479738 C 2.1775647,13.965824 2.2521652,14 2.3041727,14 H 13.597998 c 0.05199,0 0.133337,-0.02126 0.180798,-0.04725 l 0.182579,-0.223333 C 13.982641,13.671386 14,13.571859 14,13.508232 V 2.4128999 C 14,2.3492929 13.974558,2.255539 13.94349,2.2045578 Z m -1.239793,10.303158 c 0.05199,0 0.106355,0.007 0.120818,0.01543 0.01446,0.0086 0.0263,0.105151 0.0263,0.168745 v 0.957725 c 0,0.06361 -0.0053,0.131074 -0.01184,0.149905 -0.0066,0.01885 -0.0833,0.03428 -0.13528,0.03428 h -0.03856 c -0.05199,0 -0.106365,-0.007 -0.120818,-0.01542 -0.01447,-0.0086 -0.0263,-0.105124 -0.0263,-0.168746 V 12.48735 c 0,-0.06361 0.0053,-0.131032 0.01182,-0.149904 0.0066,-0.01885 0.0833,-0.03428 0.135282,-0.03428 z m -1.636316,0 c 0.05199,0 0.106364,0.007 0.120823,0.01543 0.01447,0.0086 0.0263,0.105151 0.0263,0.168745 v 0.957725 c 0,0.06361 -0.0053,0.131074 -0.01185,0.149905 -0.0065,0.01885 -0.0833,0.03428 -0.135281,0.03428 h -0.03856 c -0.05199,0 -0.106354,-0.007 -0.120821,-0.01542 -0.01447,-0.0086 -0.0263,-0.105124 -0.0263,-0.168746 V 12.48735 c 0,-0.06361 0.0053,-0.131032 0.01185,-0.149904 0.0066,-0.01885 0.0833,-0.03428 0.135283,-0.03428 z m -1.6363338,0 c 0.051998,0 0.1063546,0.007 0.1208183,0.01543 0.01446,0.0086 0.026295,0.105151 0.026295,0.168745 v 0.957725 c 0,0.06361 -0.00532,0.131074 -0.01182,0.149905 -0.00652,0.01885 -0.083322,0.03428 -0.1353045,0.03428 H 9.042516 c -0.051998,0 -0.106365,-0.007 -0.1208198,-0.01542 -0.01446,-0.0086 -0.026295,-0.105124 -0.026295,-0.168746 V 12.48735 c 0,-0.06361 0.00532,-0.131032 0.01182,-0.149904 0.0066,-0.01885 0.083295,-0.03428 0.1352805,-0.03428 z m -1.6362884,0 c 0.05199,0 0.1063544,0.007 0.1208182,0.01543 0.01446,0.0086 0.026295,0.105151 0.026295,0.168745 v 0.957725 c 0,0.06361 -0.00532,0.131074 -0.01182,0.149905 -0.0066,0.01885 -0.083295,0.03428 -0.135282,0.03428 H 7.406213 c -0.051998,0 -0.106365,-0.007 -0.1208182,-0.01542 -0.01446,-0.0086 -0.026295,-0.105124 -0.026295,-0.168746 V 12.48735 c 0,-0.06361 0.0054,-0.131032 0.011842,-0.149904 0.0066,-0.01885 0.083296,-0.03428 0.135282,-0.03428 z m -1.6363375,0 c 0.051994,0 0.1063544,0.007 0.1208217,0.01543 0.014452,0.0086 0.026298,0.105151 0.026298,0.168745 v 0.957725 c 0,0.06361 -0.00537,0.131074 -0.011847,0.149905 -0.00657,0.01885 -0.083296,0.03428 -0.1352816,0.03428 h -0.038528 c -0.051994,0 -0.1063653,-0.007 -0.1208229,-0.01542 -0.014463,-0.0086 -0.026298,-0.105124 -0.026298,-0.168746 V 12.48735 c 0,-0.06361 0.00537,-0.131032 0.011824,-0.149904 0.00657,-0.01885 0.083318,-0.03428 0.1353048,-0.03428 z M 11.569415,7.6330671 c 0.03109,0.050973 0.05649,0.1447421 0.05649,0.2083421 v 2.4457398 c 0,0.0636 -0.01739,0.163125 -0.03862,0.221186 l -0.096,0.11745 c -0.04747,0.02599 -0.12881,0.04726 -0.180795,0.04726 H 8.7855358 c -0.05199,0 -0.1265873,-0.03418 -0.1657996,-0.07596 l -0.083901,-0.29084 c 0.00909,-0.06263 0.049635,-0.146521 0.090096,-0.186435 L 11.192759,7.5879665 c 0.04047,-0.039923 0.116088,-0.074548 0.168048,-0.076948 z"
     id="path1-5"
     style="color:#eff0f1;display:inline;fill:currentColor;fill-opacity:1;stroke-width:0.0259236" />
</svg>
