<?xml version="1.0" encoding="UTF-8" standalone="no"?>
<svg
   viewBox="0 0 16 16"
   version="1.1"
   id="svg1"
   xmlns="http://www.w3.org/2000/svg"
   xmlns:svg="http://www.w3.org/2000/svg">
  <defs
     id="defs3051">
    <style
       type="text/css"
       id="current-color-scheme">.ColorScheme-Text { color: #fcfcfc; } </style>
  </defs>
  <path
     style="fill:currentColor"
     d="m 4,11 v 1 h 8 V 11 Z M 4,2 C 2.892,2 2,2.892 2,4 v 8 c 0,1.108 0.892,2 2,2 h 8 c 1.108,0 2,-0.892 2,-2 V 4 C 14,2.892 13.108,2 12,2 Z m 0,1 h 8 c 0.554,0 1,0.446 1,1 v 8 c 0,0.456911 -0.383925,0.9375 -1,0.9375 H 4 C 3.3525635,12.9375 3,12.468666 3,12 V 4 C 3,3.446 3.446,3 4,3 Z"
     class="ColorScheme-Text"
     id="path1" />
</svg>
