<?xml version="1.0" encoding="UTF-8" standalone="no"?>
<!-- Created with Inkscape (http://www.inkscape.org/) -->

<svg
   width="64"
   height="64"
   version="1.1"
   viewBox="0 0 64 64"
   id="svg22"
   xmlns:xlink="http://www.w3.org/1999/xlink"
   xmlns="http://www.w3.org/2000/svg"
   xmlns:svg="http://www.w3.org/2000/svg">
  <defs
     id="defs12">
    <linearGradient
       id="linearGradient917">
      <stop
         style="stop-color:#000000;stop-opacity:0.99607843"
         offset="0"
         id="stop913" />
      <stop
         style="stop-color:#353a3f;stop-opacity:0.99607843"
         offset="1"
         id="stop915" />
    </linearGradient>
    <linearGradient
       xlink:href="#linearGradient3487"
       id="linearGradient3403"
       gradientUnits="userSpaceOnUse"
       x1="6.9491749"
       y1="4.5549412"
       x2="11.215498"
       y2="59.052471" />
    <linearGradient
       id="linearGradient3487">
      <stop
         style="stop-color:#32373c;stop-opacity:1"
         offset="0"
         id="stop3481" />
      <stop
         id="stop3483"
         offset="0.36804965"
         style="stop-color:#1a1a1a;stop-opacity:1" />
      <stop
         style="stop-color:#31363b;stop-opacity:1"
         offset="1"
         id="stop3485" />
    </linearGradient>
    <linearGradient
       xlink:href="#linearGradient20604"
       id="linearGradient20558"
       gradientUnits="userSpaceOnUse"
       x1="25.802212"
       y1="20.373846"
       x2="25.111048"
       y2="58.912758" />
    <linearGradient
       id="linearGradient20604">
      <stop
         id="stop20598"
         offset="0"
         style="stop-color:#3d3d3d;stop-opacity:1" />
      <stop
         style="stop-color:#000000;stop-opacity:1"
         offset="0.61772454"
         id="stop20600" />
      <stop
         id="stop20602"
         offset="1"
         style="stop-color:#3d3d3d;stop-opacity:1" />
    </linearGradient>
    <filter
       style="color-interpolation-filters:sRGB"
       id="filter20720"
       x="-0.017024755"
       y="-0.016457183"
       width="1.0340491"
       height="1.0329144">
      <feGaussianBlur
         stdDeviation="0.14745661"
         id="feGaussianBlur20722" />
    </filter>
    <linearGradient
       gradientTransform="translate(0.36067797,-0.13016949)"
       xlink:href="#linearGradient4555"
       id="linearGradient4557"
       x1="43.499737"
       y1="64.011795"
       x2="44.141731"
       y2="0.30621234"
       gradientUnits="userSpaceOnUse" />
    <linearGradient
       id="linearGradient4555">
      <stop
         style="stop-color:#141618;stop-opacity:1"
         offset="0"
         id="stop4551" />
      <stop
         id="stop4559"
         offset="0.51820582"
         style="stop-color:#686868;stop-opacity:1" />
      <stop
         style="stop-color:#31363b;stop-opacity:1"
         offset="1"
         id="stop4553" />
    </linearGradient>
    <filter
       style="color-interpolation-filters:sRGB"
       id="filter4601"
       x="-0.030244762"
       width="1.0604895"
       y="-0.030100647"
       height="1.0602013">
      <feGaussianBlur
         stdDeviation="0.014790289"
         id="feGaussianBlur4603" />
    </filter>
    <linearGradient
       xlink:href="#linearGradient917"
       id="linearGradient919"
       x1="7.400631"
       y1="41.743092"
       x2="33.063145"
       y2="7.1074457"
       gradientUnits="userSpaceOnUse"
       gradientTransform="matrix(1.340081,0,0,1.340081,-0.2575326,-0.21515559)" />
    <linearGradient
       id="c"
       y1="527.01398"
       x1="406.50101"
       y2="539.82501"
       x2="419.974"
       gradientUnits="userSpaceOnUse"
       gradientTransform="matrix(1.4696763,0,0,1.4986937,-568.41923,-754.50856)">
      <stop
         stop-color="#292c2f"
         id="stop6525" />
      <stop
         offset="1"
         stop-opacity="0"
         id="stop6527" />
    </linearGradient>
    <radialGradient
       id="a"
       cx="21.166668"
       cy="280.06601"
       gradientUnits="userSpaceOnUse"
       r="12.699996">
      <stop
         offset="0"
         stop-color="#313437"
         id="stop2-8" />
      <stop
         offset=".97916687"
         stop-color="#313437"
         stop-opacity=".498039"
         id="stop4-1" />
      <stop
         offset="1"
         stop-color="#313437"
         stop-opacity="0"
         id="stop6-0" />
    </radialGradient>
    <linearGradient
       id="c-0"
       gradientUnits="userSpaceOnUse"
       x1="29.633333"
       x2="29.633333"
       y1="282.71255"
       y2="278.47922">
      <stop
         offset="0"
         stop-color="#ccc"
         id="stop14" />
      <stop
         offset="1"
         stop-color="#ccc"
         stop-opacity="0"
         id="stop16" />
    </linearGradient>
    <linearGradient
       id="d"
       gradientUnits="userSpaceOnUse"
       x1="4.7625008"
       x2="4.7625008"
       y1="292.76672"
       y2="267.36673">
      <stop
         offset="0"
         stop-color="#197cf1"
         id="stop19" />
      <stop
         offset="1"
         stop-color="#20bcfa"
         id="stop21" />
    </linearGradient>
    <linearGradient
       id="e"
       gradientUnits="userSpaceOnUse"
       x1="3.968751"
       x2="8.2020817"
       y1="269.21875"
       y2="273.452"
       gradientTransform="matrix(1.7539714,0,0,1.7539714,1.5715485,-202.98323)">
      <stop
         offset="0"
         stop-color="#292c2f"
         id="stop24" />
      <stop
         offset="1"
         stop-opacity="0"
         id="stop26" />
    </linearGradient>
    <linearGradient
       id="f"
       gradientUnits="userSpaceOnUse"
       x1="10.99999"
       x2="10.99999"
       y1="17"
       y2="1"
       gradientTransform="matrix(0.46407161,0,0,0.46407161,7.1404095,267.82654)">
      <stop
         offset="0"
         stop-color="#7cbaf8"
         id="stop29" />
      <stop
         offset="1"
         stop-color="#f4fcff"
         id="stop31" />
    </linearGradient>
  </defs>
  <rect
     style="display:inline;fill:url(#linearGradient919);fill-opacity:1;fill-rule:evenodd;stroke:none;stroke-width:1.24335;stroke-linejoin:round;stroke-miterlimit:7.8"
     id="rect1192"
     width="56.396774"
     height="57.237686"
     x="3.9810236"
     y="3.8298652"
     ry="0" />
  <path
     d="M 26.784972,45.494141 40.873288,59.860618 H 61.448757 V 50.868457 L 41.481735,30.507203 Z"
     style="opacity:0.4;fill:url(#c);fill-rule:evenodd;stroke-width:1.48413"
     id="path6538" />
  <g
     transform="matrix(2.0011258,0,0,2.1173773,-2.6187578,-561.72186)"
     id="g72">
    <g
       transform="translate(-2.381251)"
       id="g60">
      <path
         d="m 21.166667,276.36238 a 3.7042129,3.7042129 0 0 0 -3.704212,3.70428 3.7042129,3.7042129 0 0 0 3.704212,3.70428 3.7042129,3.7042129 0 0 0 3.704213,-3.70428 3.7042129,3.7042129 0 0 0 -3.704213,-3.70428 z m 0,2.70103 a 1.0032232,1.0032232 0 0 1 1.003228,1.00325 1.0032232,1.0032232 0 0 1 -1.003228,1.00325 1.0032232,1.0032232 0 0 1 -1.003227,-1.00325 1.0032232,1.0032232 0 0 1 1.003227,-1.00325 z"
         fill-opacity="0.156863"
         id="path34" />
      <path
         d="m 21.166667,267.36666 a 12.699996,12.699996 0 0 0 -12.7000011,12.7 12.699996,12.699996 0 0 0 12.7000011,12.7 12.699996,12.699996 0 0 0 12.700001,-12.7 12.699996,12.699996 0 0 0 -12.700001,-12.7 z m 0,9.26042 a 3.4395781,3.4395781 0 0 1 3.439584,3.43958 3.4395781,3.4395781 0 0 1 -3.439584,3.43959 3.4395781,3.4395781 0 0 1 -3.439583,-3.43959 3.4395781,3.4395781 0 0 1 3.439583,-3.43958 z"
         fill="url(#a)"
         id="path36"
         style="fill:url(#a)" />
      <path
         d="M 21.166667,267.63125 A 12.435412,12.435412 0 0 0 8.7312489,280.06666 12.435412,12.435412 0 0 0 21.166667,292.50208 12.435412,12.435412 0 0 0 33.602084,280.06666 12.435412,12.435412 0 0 0 21.166667,267.63125 Z m 0,8.99583 a 3.4395832,3.4395832 0 0 0 -0.289904,0.0145 3.4395781,3.4395781 0 0 1 0.289904,-0.0145 z m 0.289905,0.0145 a 3.4395781,3.4395781 0 0 1 0.17725,0.0217 3.4395832,3.4395832 0 0 0 -0.17725,-0.0217 z m -0.757059,0.0217 a 3.4395832,3.4395832 0 0 0 -0.166915,0.0248 3.4395781,3.4395781 0 0 1 0.166915,-0.0248 z m 1.101224,0.0248 a 3.4395781,3.4395781 0 0 1 0.172083,0.0388 3.4395832,3.4395832 0 0 0 -0.172083,-0.0388 z m -1.440222,0.0388 a 3.4395832,3.4395832 0 0 0 -0.157096,0.0403 3.4395781,3.4395781 0 0 1 0.157096,-0.0403 z m 1.769401,0.0403 a 3.4395781,3.4395781 0 0 1 0.172083,0.0568 3.4395832,3.4395832 0 0 0 -0.172083,-0.0568 z m -2.09858,0.0568 a 3.4395832,3.4395832 0 0 0 -0.156579,0.0568 3.4395781,3.4395781 0 0 1 0.156579,-0.0568 z m 2.427242,0.0568 a 3.4395781,3.4395781 0 0 1 0.157614,0.0708 3.4395832,3.4395832 0 0 0 -0.157614,-0.0708 z m -2.741435,0.0708 a 3.4395832,3.4395832 0 0 0 -0.155029,0.0754 3.4395781,3.4395781 0 0 1 0.155029,-0.0754 z m 3.054078,0.0754 a 3.4395781,3.4395781 0 0 1 0.143144,0.0816 3.4395832,3.4395832 0 0 0 -0.143144,-0.0816 z m -3.352251,0.0816 a 3.4395832,3.4395832 0 0 0 -0.153995,0.0946 3.4395781,3.4395781 0 0 1 0.153995,-0.0946 z m 3.64939,0.0946 a 3.4395781,3.4395781 0 0 1 0.134876,0.0966 3.4395832,3.4395832 0 0 0 -0.134876,-0.0966 z m -3.938261,0.0966 a 3.4395832,3.4395832 0 0 0 -0.137976,0.10438 3.4395781,3.4395781 0 0 1 0.137976,-0.10438 z m 4.211113,0.10438 a 3.4395781,3.4395781 0 0 1 0.132808,0.11679 3.4395832,3.4395832 0 0 0 -0.132808,-0.11679 z m -4.481897,0.11679 a 3.4395832,3.4395832 0 0 0 -0.123507,0.11472 3.4395781,3.4395781 0 0 1 0.123507,-0.11472 z m 4.738212,0.11472 a 3.4395781,3.4395781 0 0 1 0.114722,0.12351 3.4395832,3.4395832 0 0 0 -0.114722,-0.12351 z m -4.976441,0.12351 a 3.4395832,3.4395832 0 0 0 -0.116788,0.13281 3.4395781,3.4395781 0 0 1 0.116788,-0.13281 z m 5.207951,0.13281 a 3.4395781,3.4395781 0 0 1 0.104387,0.13798 3.4395832,3.4395832 0 0 0 -0.104387,-0.13798 z m -5.429126,0.13798 a 3.4395832,3.4395832 0 0 0 -0.09663,0.13487 3.4395781,3.4395781 0 0 1 0.09663,-0.13487 z m 5.630148,0.13487 a 3.4395781,3.4395781 0 0 1 0.09457,0.154 3.4395832,3.4395832 0 0 0 -0.09457,-0.154 z m -5.821351,0.154 a 3.4395832,3.4395832 0 0 0 -0.08165,0.14314 3.4395781,3.4395781 0 0 1 0.08165,-0.14314 z m 5.997567,0.14314 a 3.4395781,3.4395781 0 0 1 0.07545,0.15503 3.4395832,3.4395832 0 0 0 -0.07545,-0.15503 z m -6.154663,0.15503 a 3.4395832,3.4395832 0 0 0 -0.0708,0.15761 3.4395781,3.4395781 0 0 1 0.0708,-0.15761 z m 3.115055,0.12661 a 1.3229165,1.3229165 0 0 1 1.322917,1.32291 1.3229165,1.3229165 0 0 1 -1.322917,1.32292 1.3229165,1.3229165 0 0 1 -1.322916,-1.32292 1.3229165,1.3229165 0 0 1 1.322916,-1.32291 z m 3.185853,0.031 a 3.4395781,3.4395781 0 0 1 0.05684,0.15658 3.4395832,3.4395832 0 0 0 -0.05684,-0.15658 z m -6.428549,0.15658 a 3.4395832,3.4395832 0 0 0 -0.05684,0.17209 3.4395781,3.4395781 0 0 1 0.05684,-0.17209 z m 6.542237,0.17209 a 3.4395781,3.4395781 0 0 1 0.04031,0.15709 3.4395832,3.4395832 0 0 0 -0.04031,-0.15709 z m -6.639388,0.15709 a 3.4395832,3.4395832 0 0 0 -0.03876,0.17208 3.4395781,3.4395781 0 0 1 0.03876,-0.17208 z m 6.718453,0.17208 a 3.4395781,3.4395781 0 0 1 0.0248,0.16692 3.4395832,3.4395832 0 0 0 -0.0248,-0.16692 z m -6.782015,0.16692 a 3.4395832,3.4395832 0 0 0 -0.0217,0.17725 3.4395781,3.4395781 0 0 1 0.0217,-0.17725 z m 6.828523,0.17725 a 3.4395781,3.4395781 0 0 1 0.01447,0.2899 3.4395832,3.4395832 0 0 0 -0.01447,-0.2899 z m -6.864697,0.2899 a 3.4395832,3.4395832 0 0 0 0.01447,0.28991 3.4395781,3.4395781 0 0 1 -0.01447,-0.28991 z m 6.864697,0.28991 a 3.4395781,3.4395781 0 0 1 -0.0217,0.17725 3.4395832,3.4395832 0 0 0 0.0217,-0.17725 z m -6.828523,0.17725 a 3.4395832,3.4395832 0 0 0 0.0248,0.16691 3.4395781,3.4395781 0 0 1 -0.0248,-0.16691 z m 6.782015,0.16691 a 3.4395781,3.4395781 0 0 1 -0.03876,0.17209 3.4395832,3.4395832 0 0 0 0.03876,-0.17209 z m -6.718453,0.17209 a 3.4395832,3.4395832 0 0 0 0.04031,0.15709 3.4395781,3.4395781 0 0 1 -0.04031,-0.15709 z m 6.639388,0.15709 a 3.4395781,3.4395781 0 0 1 -0.05684,0.17209 3.4395832,3.4395832 0 0 0 0.05684,-0.17209 z m -6.542237,0.17209 a 3.4395832,3.4395832 0 0 0 0.05684,0.15657 3.4395781,3.4395781 0 0 1 -0.05684,-0.15657 z m 6.428549,0.15657 a 3.4395781,3.4395781 0 0 1 -0.0708,0.15762 3.4395832,3.4395832 0 0 0 0.0708,-0.15762 z m -6.300908,0.15762 a 3.4395832,3.4395832 0 0 0 0.07545,0.15503 3.4395781,3.4395781 0 0 1 -0.07545,-0.15503 z m 6.154663,0.15503 a 3.4395781,3.4395781 0 0 1 -0.08165,0.14314 3.4395832,3.4395832 0 0 0 0.08165,-0.14314 z m -5.997567,0.14314 a 3.4395832,3.4395832 0 0 0 0.09457,0.154 3.4395781,3.4395781 0 0 1 -0.09457,-0.154 z m 5.821351,0.154 a 3.4395781,3.4395781 0 0 1 -0.09663,0.13487 3.4395832,3.4395832 0 0 0 0.09663,-0.13487 z m -5.630148,0.13487 a 3.4395832,3.4395832 0 0 0 0.104387,0.13798 3.4395781,3.4395781 0 0 1 -0.104387,-0.13798 z m 5.429126,0.13798 a 3.4395781,3.4395781 0 0 1 -0.116788,0.13281 3.4395832,3.4395832 0 0 0 0.116788,-0.13281 z m -5.207951,0.13281 a 3.4395832,3.4395832 0 0 0 0.114722,0.1235 3.4395781,3.4395781 0 0 1 -0.114722,-0.1235 z m 4.976441,0.1235 a 3.4395781,3.4395781 0 0 1 -0.123507,0.11472 3.4395832,3.4395832 0 0 0 0.123507,-0.11472 z m -4.738212,0.11472 a 3.4395832,3.4395832 0 0 0 0.132808,0.11679 3.4395781,3.4395781 0 0 1 -0.132808,-0.11679 z m 4.481897,0.11679 a 3.4395781,3.4395781 0 0 1 -0.137976,0.10439 3.4395832,3.4395832 0 0 0 0.137976,-0.10439 z m -4.211113,0.10439 a 3.4395832,3.4395832 0 0 0 0.134876,0.0966 3.4395781,3.4395781 0 0 1 -0.134876,-0.0966 z m 3.938261,0.0966 a 3.4395781,3.4395781 0 0 1 -0.153995,0.0946 3.4395832,3.4395832 0 0 0 0.153995,-0.0946 z m -3.64939,0.0946 a 3.4395832,3.4395832 0 0 0 0.143144,0.0816 3.4395781,3.4395781 0 0 1 -0.143144,-0.0816 z m 3.352251,0.0816 a 3.4395781,3.4395781 0 0 1 -0.155029,0.0754 3.4395832,3.4395832 0 0 0 0.155029,-0.0754 z m -3.054078,0.0754 a 3.4395832,3.4395832 0 0 0 0.157614,0.0708 3.4395781,3.4395781 0 0 1 -0.157614,-0.0708 z m 2.741435,0.0708 a 3.4395781,3.4395781 0 0 1 -0.156579,0.0568 3.4395832,3.4395832 0 0 0 0.156579,-0.0568 z m -2.427242,0.0568 a 3.4395832,3.4395832 0 0 0 0.172083,0.0568 3.4395781,3.4395781 0 0 1 -0.172083,-0.0568 z m 2.09858,0.0568 a 3.4395781,3.4395781 0 0 1 -0.157096,0.0403 3.4395832,3.4395832 0 0 0 0.157096,-0.0403 z m -1.769401,0.0403 a 3.4395832,3.4395832 0 0 0 0.172083,0.0388 3.4395781,3.4395781 0 0 1 -0.172083,-0.0388 z m 1.440222,0.0388 a 3.4395781,3.4395781 0 0 1 -0.166915,0.0248 3.4395832,3.4395832 0 0 0 0.166915,-0.0248 z m -1.101224,0.0248 a 3.4395832,3.4395832 0 0 0 0.17725,0.0217 3.4395781,3.4395781 0 0 1 -0.17725,-0.0217 z m 0.757059,0.0217 a 3.4395781,3.4395781 0 0 1 -0.289905,0.0145 3.4395832,3.4395832 0 0 0 0.289905,-0.0145 z"
         id="path38"
         style="fill:#dddddd;fill-opacity:1" />
      <path
         d="M 21.166667,268.16041 A 11.906245,11.906245 0 0 0 9.2604156,280.06666 11.906245,11.906245 0 0 0 21.166667,291.97291 11.906245,11.906245 0 0 0 33.072918,280.06666 11.906245,11.906245 0 0 0 21.166667,268.16041 Z m 0,8.46667 a 3.4395781,3.4395781 0 0 1 3.439584,3.43958 3.4395781,3.4395781 0 0 1 -3.439584,3.43959 3.4395781,3.4395781 0 0 1 -3.439583,-3.43959 3.4395781,3.4395781 0 0 1 3.439583,-3.43958 z m 0,0.79375 a 2.6458282,2.6458282 0 0 0 -2.645833,2.64583 2.6458282,2.6458282 0 0 0 2.645833,2.64584 2.6458282,2.6458282 0 0 0 2.645834,-2.64584 2.6458282,2.6458282 0 0 0 -2.645834,-2.64583 z m 0,1.32292 a 1.3229115,1.3229115 0 0 1 1.322917,1.32291 1.3229115,1.3229115 0 0 1 -1.322917,1.32292 1.3229115,1.3229115 0 0 1 -1.322916,-1.32292 1.3229115,1.3229115 0 0 1 1.322916,-1.32291 z"
         fill="#313437"
         id="path40" />
      <path
         d="m 28.839584,278.47921 v 0.52916 1.66037 c -0.07805,-0.0453 -0.1675,-0.0729 -0.264584,-0.0729 -0.293157,0 -0.529166,0.23601 -0.529166,0.52917 0,0.29316 0.236009,0.52917 0.529166,0.52917 0.293157,0 0.529167,-0.23601 0.529167,-0.52917 v -1.5875 h 1.852083 v 0.60203 c -0.07805,-0.0453 -0.1675,-0.0729 -0.264583,-0.0729 -0.293157,0 -0.529167,0.23601 -0.529167,0.52916 0,0.29316 0.23601,0.52917 0.529167,0.52917 0.293157,0 0.529167,-0.23601 0.529167,-0.52917 v -2.11666 h -2.38125 z m 0.264583,0.52916 h 1.852083 v 0.26459 h -1.852083 z"
         fill="url(#c)"
         id="path42"
         style="fill:url(#c-0)" />
      <g
         fill="#4c5053"
         id="g56">
        <path
           d="m 26.822133,270.27108 c -0.577927,-0.33354 -1.174773,-0.59804 -1.779756,-0.81944 l -2.062656,5.57723 c 0.294443,0.10736 0.584737,0.23544 0.865846,0.39782 0.281108,0.1621 0.537832,0.34924 0.777498,0.55086 l 3.798623,-4.57478 c -0.494258,-0.41316 -1.021625,-0.79789 -1.599555,-1.13169 z"
           id="path44" />
        <path
           d="m 15.5112,289.86225 c -0.57793,-0.3338 -1.105322,-0.71828 -1.599559,-1.13168 l 3.798627,-4.57478 c 0.239666,0.20164 0.49639,0.38872 0.777473,0.55085 0.281109,0.16228 0.571405,0.29114 0.865871,0.39783 l -2.062656,5.57723 c -0.604983,-0.2214 -1.201851,-0.48591 -1.779756,-0.81945 z"
           id="path46" />
        <g
           fill-opacity="0.19774"
           id="g54">
          <path
             d="m 13.168606,288.0646 c -0.471869,-0.47172 -0.881699,-0.97979 -1.252166,-1.50679 l 4.853277,-3.43604 c 0.17925,0.25688 0.378869,0.50394 0.608402,0.73344 0.229507,0.22951 0.476562,0.42922 0.733368,0.60841 l -3.435838,4.85325 c -0.527079,-0.37039 -1.035171,-0.7803 -1.507043,-1.25227 z"
             id="path48" />
          <path
             d="m 30.962223,274.41112 c -0.333669,-0.57785 -0.718373,-1.10524 -1.131581,-1.5994 l -4.574905,3.79852 c 0.201643,0.23977 0.388647,0.49637 0.550928,0.77755 0.162344,0.28118 0.291142,0.57145 0.397851,0.86582 l 5.577156,-2.06273 c -0.2214,-0.60488 -0.485781,-1.20165 -0.819449,-1.77976 z"
             id="path50" />
          <path
             d="m 11.371085,285.72221 c -0.333644,-0.57811 -0.598023,-1.17488 -0.819424,-1.77976 l 5.577131,-2.06273 c 0.106693,0.29437 0.23557,0.58489 0.397876,0.86582 0.162326,0.28118 0.349261,0.53779 0.550903,0.77755 l -4.57488,3.79853 c -0.413233,-0.49417 -0.797935,-1.02156 -1.131606,-1.59941 z"
             id="path52" />
        </g>
      </g>
      <path
         d="M 80,52 A 12,12 0 0 0 68,64 12,12 0 0 0 80,76 12,12 0 0 0 92,64 12,12 0 0 0 80,52 Z m 0,1 A 11,11 0 0 1 91,64 11,11 0 0 1 80,75 11,11 0 0 1 69,64 11,11 0 0 1 80,53 Z"
         fill-opacity="0.078431"
         transform="matrix(0.26458334,0,0,0.26458334,-1e-6,263.13333)"
         id="path58" />
    </g>
    <path
       d="m 2.3812485,267.36666 v 25.4 H 27.781249 v -10.84791 h -2.38125 c -1.026054,0 -1.852083,-0.82603 -1.852083,-1.85209 0,-1.02605 0.826029,-1.85208 1.852083,-1.85208 h 2.38125 v -10.84792 z"
       fill="url(#d)"
       id="path62"
       style="fill:url(#d)" />
    <path
       d="m 10.717019,269.35468 -0.656227,0.65623 3.712574,3.71258 -0.135968,0.13593 5.104788,5.1048 h 0.271916 1.312453 0.271915 v -2.78443 l -2.320355,-2.32037 -2.320359,-2.32034 -1.528173,1.52816 -3.712574,-3.71257 z m -0.9961219,2.85242 -0.9843393,0.98434 2.5523932,2.5524 -0.628127,0.62811 2.592274,2.59229 h 3.225842 z"
       fill="url(#e)"
       opacity="0.2"
       id="path64"
       style="fill:url(#e);stroke-width:1.75397" />
    <path
       d="m 10.38891,269.21875 c -0.257095,0 -0.4640711,0.20697 -0.4640711,0.46407 0,0.25709 0.2069761,0.46408 0.4640711,0.46408 0.257096,0 0.464072,-0.20699 0.464072,-0.46408 0,-0.2571 -0.206976,-0.46407 -0.464072,-0.46407 z m 3.248502,0 -0.928144,0.92815 1.392215,1.39221 -1.392215,1.39222 0.928144,0.92813 1.392215,-1.39221 0.928142,-0.92814 z m -4.4086805,2.78443 c -0.3856436,0 -0.6961074,0.31047 -0.6961074,0.69612 0,0.38562 0.3104638,0.69609 0.6961074,0.69609 0.3856434,0 0.6961074,-0.31047 0.6961074,-0.69609 0,-0.38565 -0.310464,-0.69612 -0.6961074,-0.69612 z m 2.0883215,2.78443 c -0.514191,0 -0.928143,0.41395 -0.928143,0.92815 0,0.51419 0.413952,0.92813 0.928143,0.92813 0.514191,0 0.928144,-0.41394 0.928144,-0.92813 0,-0.5142 -0.413953,-0.92815 -0.928144,-0.92815 z"
       fill="url(#f)"
       id="path66"
       style="fill:url(#f);stroke-width:0.464071" />
    <path
       d="M 27.516666,267.36666 V 277.95 h -2.38125 c -1.026054,0 -1.852083,0.82602 -1.852083,1.85208 0,0.58063 0.264987,1.09701 0.680578,1.43609 -0.260127,-0.31882 -0.415995,-0.72608 -0.415995,-1.17151 0,-1.02605 0.826029,-1.85208 1.852083,-1.85208 h 2.38125 v -10.84792 z m 0,14.55209 v 10.33991 H 2.3812487 l -2e-7,0.508 H 27.781249 v -10.84791 z"
       fill-opacity="0.313725"
       id="path68" />
    <path
       d="m 2.3812485,267.36666 2e-7,0.508 H 27.516666 v -0.508 z m 21.1733855,12.8323 c -0.0031,0.0439 -0.0067,0.0876 -0.0067,0.13229 0,1.02605 0.826029,1.85208 1.852083,1.85208 h 2.38125 v -0.26458 h -2.38125 c -0.981317,0 -1.777613,-0.7563 -1.845365,-1.71979 z"
       fill="#ffffff"
       fill-opacity="0.235294"
       id="path70" />
  </g>
  <path
     style="display:inline;mix-blend-mode:normal;fill:url(#linearGradient3403);fill-opacity:1;stroke:url(#linearGradient20558);stroke-width:1.16242;stroke-linecap:butt;stroke-linejoin:round;stroke-miterlimit:4;stroke-dasharray:none;stroke-opacity:1;filter:url(#filter20720)"
     d="M 4.7043071,3.9814882 4.6913695,60.80196 H 58.59546 l 1.022155,-2.866369 c 0,0 -23.87537,0.766388 -32.844441,-4.140386 C 16.257548,48.042344 11.401114,4.0978197 11.401114,4.0978197 Z"
     id="path1686"
     transform="matrix(1.0075797,0,0,1.0075797,-0.12392027,-0.18180586)" />
  <rect
     style="display:inline;fill:none;fill-opacity:1;stroke:url(#linearGradient4557);stroke-width:3.71366;stroke-linejoin:round;stroke-miterlimit:7.8;stroke-dasharray:none;stroke-opacity:0.995146;filter:url(#filter4601)"
     id="rect4539"
     width="62.567089"
     height="62.866646"
     x="1.0323594"
     y="0.59551275"
     ry="6.2447233"
     rx="5.8029528"
     transform="matrix(0.94388326,0,0,0.94195942,1.5689773,1.854206)" />
</svg>
