<?xml version="1.0" encoding="UTF-8" standalone="no"?>
<svg
   viewBox="0 0 24 24"
   width="24"
   height="24"
   version="1.1"
   id="svg11"
   sodipodi:docname="emblem-locked.svg"
   inkscape:version="1.1.2 (0a00cf5339, 2022-02-04)"
   xmlns:inkscape="http://www.inkscape.org/namespaces/inkscape"
   xmlns:sodipodi="http://sodipodi.sourceforge.net/DTD/sodipodi-0.dtd"
   xmlns="http://www.w3.org/2000/svg"
   xmlns:svg="http://www.w3.org/2000/svg">
  <defs
     id="defs15" />
  <sodipodi:namedview
     id="namedview13"
     pagecolor="#ffffff"
     bordercolor="#666666"
     borderopacity="1.0"
     inkscape:pageshadow="2"
     inkscape:pageopacity="0.0"
     inkscape:pagecheckerboard="0"
     showgrid="false"
     inkscape:zoom="26.25"
     inkscape:cx="12"
     inkscape:cy="12.019048"
     inkscape:window-width="3440"
     inkscape:window-height="1359"
     inkscape:window-x="0"
     inkscape:window-y="0"
     inkscape:window-maximized="1"
     inkscape:current-layer="g9" />
  <style
     type="text/css"
     id="current-color-scheme">
        .ColorScheme-NegativeText {
            color:#da4453;
        }
        .ColorScheme-Text {
            color:#eff0f1;
        }
    </style>
  <g
     transform="translate(1,1)"
     id="g9">
    <path
       style="display:inline;fill:#414141;fill-opacity:1;stroke:#e38805;stroke-width:1.4;stroke-miterlimit:4;stroke-dasharray:none;stroke-opacity:1"
       class="ColorScheme-NegativeText"
       d="M 11,0.70626213 A 10.293738,10.293738 0 0 0 0.70626213,11 10.293738,10.293738 0 0 0 11,21.293738 10.293738,10.293738 0 0 0 21.293738,11 10.293738,10.293738 0 0 0 11,0.70626213 Z"
       id="path3" />
    <path
       d="M 11,0 A 11,11 0 0 0 0,11 11,11 0 0 0 11,22 11,11 0 0 0 22,11 11,11 0 0 0 11,0 Z m 0,1 A 10,10 0 0 1 21,11 10,10 0 0 1 11,21 10,10 0 0 1 1,11 10,10 0 0 1 11,1 Z"
       style="display:none;fill:currentColor;fill-opacity:0.6;stroke:none"
       class="ColorScheme-Text"
       id="path7" />
    <path
       d="m 10.919266,4.470415 c -1.7065316,0 -3.0803819,1.3738503 -3.0803819,3.0803819 v 3.0803821 h -1.540191 v 6.160764 H 15.539839 V 10.631179 H 13.999648 V 7.5507969 c 0,-1.7065316 -1.37385,-3.0803819 -3.080382,-3.0803819 m 0,0.7700955 c 1.279899,0 2.310286,1.202119 2.310286,2.6953342 V 10.631179 H 8.6089796 V 7.9358447 c 0,-1.4932152 1.0303877,-2.6953342 2.3102864,-2.6953342"
       fill="#ffffff"
       id="path7-9"
       style="stroke-width:0.770095" />
  </g>
</svg>
