<?xml version="1.0" encoding="UTF-8" standalone="no"?>
<svg
   height="24"
   width="24"
   viewBox="0 0 24 24"
   version="1.1"
   id="svg11"
   sodipodi:docname="emblem-warning.svg"
   inkscape:version="1.1.2 (0a00cf5339, 2022-02-04)"
   xmlns:inkscape="http://www.inkscape.org/namespaces/inkscape"
   xmlns:sodipodi="http://sodipodi.sourceforge.net/DTD/sodipodi-0.dtd"
   xmlns="http://www.w3.org/2000/svg"
   xmlns:svg="http://www.w3.org/2000/svg">
  <defs
     id="defs15" />
  <sodipodi:namedview
     id="namedview13"
     pagecolor="#ffffff"
     bordercolor="#666666"
     borderopacity="1.0"
     inkscape:pageshadow="2"
     inkscape:pageopacity="0.0"
     inkscape:pagecheckerboard="0"
     showgrid="false"
     inkscape:zoom="26.25"
     inkscape:cx="12"
     inkscape:cy="12.019048"
     inkscape:window-width="3440"
     inkscape:window-height="1359"
     inkscape:window-x="0"
     inkscape:window-y="0"
     inkscape:window-maximized="1"
     inkscape:current-layer="g9" />
  <style
     type="text/css"
     id="current-color-scheme">
        .ColorScheme-NeutralText {
            color:#f67400;
        }
        .ColorScheme-Text {
            color:#eff0f1;
        }
    </style>
  <g
     transform="translate(1,1)"
     id="g9">
    <path
       d="m 11.008,0 a 1,1 0 0 0 -0.903,0.553 l -10,20 A 1,1 0 0 0 1,22 h 20 a 1,1 0 0 0 0.895,-1.447 l -10,-20 A 1,1 0 0 0 11.008,0 Z"
       style="fill:#414141;fill-opacity:1;stroke:none"
       class="ColorScheme-NeutralText"
       id="path3" />
    <path
       d="m 10,4 v 12 h 2 V 4 Z m 0,14 v 2 h 2 v -2 z"
       fill="#ffffff"
       id="path5" />
    <path
       d="m 11.008,0 a 1,1 0 0 0 -0.903,0.553 l -10,20 A 1,1 0 0 0 1,22 h 20 a 1,1 0 0 0 0.895,-1.447 l -10,-20 A 1,1 0 0 0 11.008,0 Z M 11,1 21,21 H 1 Z"
       style="fill:#e38805;fill-opacity:1;stroke:none"
       class="ColorScheme-Text"
       id="path7" />
  </g>
</svg>
