<?xml version="1.0" encoding="UTF-8" standalone="no"?>
<svg
   viewBox="0 0 24 24"
   width="24"
   height="24"
   version="1.1"
   id="svg11"
   sodipodi:docname="emblem-shared.svg"
   inkscape:version="1.1.2 (0a00cf5339, 2022-02-04)"
   xmlns:inkscape="http://www.inkscape.org/namespaces/inkscape"
   xmlns:sodipodi="http://sodipodi.sourceforge.net/DTD/sodipodi-0.dtd"
   xmlns="http://www.w3.org/2000/svg"
   xmlns:svg="http://www.w3.org/2000/svg">
  <defs
     id="defs15" />
  <sodipodi:namedview
     id="namedview13"
     pagecolor="#ffffff"
     bordercolor="#666666"
     borderopacity="1.0"
     inkscape:pageshadow="2"
     inkscape:pageopacity="0.0"
     inkscape:pagecheckerboard="0"
     showgrid="false"
     inkscape:zoom="26.25"
     inkscape:cx="10.857143"
     inkscape:cy="15.6"
     inkscape:window-width="3440"
     inkscape:window-height="1359"
     inkscape:window-x="0"
     inkscape:window-y="0"
     inkscape:window-maximized="1"
     inkscape:current-layer="g9" />
  <style
     type="text/css"
     id="current-color-scheme">
        .ColorScheme-Highlight {
            color:#3daee9;
        }
        .ColorScheme-Text {
            color:#eff0f1;
        }
    </style>
  <g
     transform="translate(1,1)"
     id="g9">
    <path
       d="M 11,0 A 11,11 0 0 0 0,11 11,11 0 0 0 11,22 11,11 0 0 0 22,11 11,11 0 0 0 11,0 Z"
       style="fill:#414141;fill-opacity:1;stroke:none"
       class="ColorScheme-Highlight"
       id="path3" />
    <path
       d="M 11,0 A 11,11 0 0 0 0,11 11,11 0 0 0 11,22 11,11 0 0 0 22,11 11,11 0 0 0 11,0 Z m 0,1 A 10,10 0 0 1 21,11 10,10 0 0 1 11,21 10,10 0 0 1 1,11 10,10 0 0 1 11,1 Z"
       style="fill:#3daee9;fill-opacity:1;stroke:none"
       class="ColorScheme-Text"
       id="path7" />
    <path
       d="m 12.774729,6.7719451 a 0.41986111,0.41986111 0 1 0 0,0.8397222 0.41986111,0.41986111 0 1 0 0,-0.8397222 z m 0,7.5575009 a 0.41986111,0.41986111 0 1 0 0,0.839722 0.41986111,0.41986111 0 1 0 0,-0.839722 z m -1.679444,-0.839722 a 0.41986111,0.41986111 0 1 0 0,0.839722 0.41986111,0.41986111 0 1 0 0,-0.839722 z M 9.4158402,12.650001 a 0.4198615,0.4198615 0 1 0 0,0.839723 0.4198615,0.4198615 0 1 0 0,-0.839723 z m 0,-4.1986115 a 0.41986115,0.41986115 0 1 0 0,0.8397223 0.41986115,0.41986115 0 1 0 0,-0.8397223 z M 11.095285,7.6116673 a 0.41986111,0.41986111 0 1 0 0,0.8397222 0.41986111,0.41986111 0 1 0 0,-0.8397222 z m 4.618472,6.7177787 c -0.930412,0 -1.679444,0.749032 -1.679444,1.679444 0,0.930413 0.749032,1.679445 1.679444,1.679445 0.930412,0 1.679445,-0.749032 1.679445,-1.679445 0,-0.930412 -0.749033,-1.679444 -1.679445,-1.679444 z M 6.4768124,9.2911118 c -0.9304122,0 -1.6794445,0.7490322 -1.6794445,1.6794452 0,0.930412 0.7490323,1.679444 1.6794445,1.679444 0.9304122,0 1.6794444,-0.749032 1.6794444,-1.679444 0,-0.930413 -0.7490322,-1.6794452 -1.6794444,-1.6794452 z M 15.713757,4.2527784 c -0.930412,0 -1.679444,0.7490322 -1.679444,1.6794445 0,0.9304122 0.749032,1.6794444 1.679444,1.6794444 0.930412,0 1.679445,-0.7490322 1.679445,-1.6794444 0,-0.9304123 -0.749033,-1.6794445 -1.679445,-1.6794445 z"
       fill="#ffffff"
       id="path7-1"
       style="stroke-width:0.839722" />
  </g>
</svg>
