<?xml version="1.0" encoding="UTF-8" standalone="no"?>
<svg
   viewBox="0 0 24 24"
   width="24"
   height="24"
   version="1.1"
   id="svg11"
   sodipodi:docname="vcs-locally-modified.svg"
   inkscape:version="1.1.2 (0a00cf5339, 2022-02-04)"
   xmlns:inkscape="http://www.inkscape.org/namespaces/inkscape"
   xmlns:sodipodi="http://sodipodi.sourceforge.net/DTD/sodipodi-0.dtd"
   xmlns="http://www.w3.org/2000/svg"
   xmlns:svg="http://www.w3.org/2000/svg">
  <defs
     id="defs15" />
  <sodipodi:namedview
     id="namedview13"
     pagecolor="#ffffff"
     bordercolor="#666666"
     borderopacity="1.0"
     inkscape:pageshadow="2"
     inkscape:pageopacity="0.0"
     inkscape:pagecheckerboard="0"
     showgrid="false"
     inkscape:zoom="26.25"
     inkscape:cx="12"
     inkscape:cy="12.019048"
     inkscape:window-width="3440"
     inkscape:window-height="1359"
     inkscape:window-x="0"
     inkscape:window-y="0"
     inkscape:window-maximized="1"
     inkscape:current-layer="g9" />
  <style
     type="text/css"
     id="current-color-scheme">
        .ColorScheme-NeutralText {
            color:#f67400;
        }
        .ColorScheme-Text {
            color:#eff0f1;
        }
    </style>
  <g
     transform="translate(1,1)"
     id="g9">
    <path
       d="M 22,11 A 11,11 0 0 1 11,22 11,11 0 0 1 0,11 11,11 0 0 1 11,0 11,11 0 0 1 22,11 Z"
       style="fill:#414141;fill-opacity:1;stroke:none"
       class="ColorScheme-NeutralText"
       id="path3" />
    <path
       d="m 18.569486,10.921439 -4,3 v -2 H 5.5694859 a 1,1 0 0 0 -1,1 v 5.988 a 10,10 0 0 1 -2,-2.008 v -4.98 a 2,2 0 0 1 2,-2 H 14.569486 v -2 z m -15.6600001,7.879 a 11,11 0 0 1 -0.078,-0.074 11,11 0 0 0 0.078,0.074 z"
       fill="#ffffff"
       id="path5" />
    <path
       d="M 22,11 A 11,11 0 0 1 11,22 11,11 0 0 1 0,11 11,11 0 0 1 11,0 11,11 0 0 1 22,11 Z m -1,0 A 10,10 0 0 0 11,1 10,10 0 0 0 1,11 10,10 0 0 0 11,21 10,10 0 0 0 21,11 Z"
       style="fill:#3daee9;fill-opacity:1;stroke:none"
       class="ColorScheme-Text"
       id="path7" />
  </g>
</svg>
