<?xml version="1.0" encoding="UTF-8" standalone="no"?>
<svg
   height="16"
   width="16"
   viewBox="0 0 16 16"
   version="1.1"
   id="svg11"
   sodipodi:docname="emblem-warning.svg"
   inkscape:version="1.1.2 (0a00cf5339, 2022-02-04)"
   xmlns:inkscape="http://www.inkscape.org/namespaces/inkscape"
   xmlns:sodipodi="http://sodipodi.sourceforge.net/DTD/sodipodi-0.dtd"
   xmlns="http://www.w3.org/2000/svg"
   xmlns:svg="http://www.w3.org/2000/svg">
  <defs
     id="defs15" />
  <sodipodi:namedview
     id="namedview13"
     pagecolor="#ffffff"
     bordercolor="#666666"
     borderopacity="1.0"
     inkscape:pageshadow="2"
     inkscape:pageopacity="0.0"
     inkscape:pagecheckerboard="0"
     showgrid="false"
     inkscape:zoom="26.25"
     inkscape:cx="-0.91428571"
     inkscape:cy="11.961905"
     inkscape:window-width="3440"
     inkscape:window-height="1359"
     inkscape:window-x="0"
     inkscape:window-y="0"
     inkscape:window-maximized="1"
     inkscape:current-layer="g9" />
  <style
     type="text/css"
     id="current-color-scheme">
        .ColorScheme-NeutralText {
            color:#f67400;
        }
        .ColorScheme-Text {
            color:#eff0f1;
        }
    </style>
  <g
     transform="translate(1,1)"
     id="g9">
    <path
       d="M 7.0902743,-1.2700315e-5 A 0.64411702,0.64411702 0 0 0 6.5086366,0.35618401 L 0.06746641,13.238524 a 0.64411702,0.64411702 0 0 0 0.57648474,0.932038 H 13.526292 a 0.64411702,0.64411702 0 0 0 0.576484,-0.932038 L 7.6616061,0.35618401 A 0.64411702,0.64411702 0 0 0 7.0902743,-1.2700315e-5 Z"
       style="fill:#414141;fill-opacity:1;stroke:none;stroke-width:0.644117"
       class="ColorScheme-NeutralText"
       id="path3" />
    <path
       d="M 6.4410044,2.5764554 V 10.30586 h 1.288234 V 2.5764554 Z m 0,9.0176386 v 1.288234 h 1.288234 v -1.288234 z"
       fill="#ffffff"
       id="path5"
       style="stroke-width:0.644117" />
    <path
       d="M 7.0902743,-1.2700315e-5 A 0.64411702,0.64411702 0 0 0 6.5086366,0.35618401 L 0.06746641,13.238524 a 0.64411702,0.64411702 0 0 0 0.57648474,0.932038 H 13.526292 a 0.64411702,0.64411702 0 0 0 0.576484,-0.932038 L 7.6616061,0.35618401 A 0.64411702,0.64411702 0 0 0 7.0902743,-1.2700315e-5 Z M 7.0851214,0.64410432 13.526292,13.526445 H 0.64395115 Z"
       style="fill:#e38805;fill-opacity:1;stroke:none;stroke-width:0.644117"
       class="ColorScheme-Text"
       id="path7" />
  </g>
</svg>
