<?xml version="1.0" encoding="UTF-8" standalone="no"?>
<svg
   viewBox="0 0 16 16"
   width="16"
   height="16"
   version="1.1"
   id="svg11"
   sodipodi:docname="emblem-error.svg"
   inkscape:version="1.1.2 (0a00cf5339, 2022-02-04)"
   xmlns:inkscape="http://www.inkscape.org/namespaces/inkscape"
   xmlns:sodipodi="http://sodipodi.sourceforge.net/DTD/sodipodi-0.dtd"
   xmlns="http://www.w3.org/2000/svg"
   xmlns:svg="http://www.w3.org/2000/svg">
  <defs
     id="defs15" />
  <sodipodi:namedview
     id="namedview13"
     pagecolor="#ffffff"
     bordercolor="#666666"
     borderopacity="1.0"
     inkscape:pageshadow="2"
     inkscape:pageopacity="0.0"
     inkscape:pagecheckerboard="0"
     showgrid="false"
     inkscape:zoom="26.25"
     inkscape:cx="-0.91428571"
     inkscape:cy="11.961905"
     inkscape:window-width="3440"
     inkscape:window-height="1359"
     inkscape:window-x="0"
     inkscape:window-y="0"
     inkscape:window-maximized="1"
     inkscape:current-layer="g9" />
  <style
     type="text/css"
     id="current-color-scheme">
        .ColorScheme-NegativeText {
            color:#da4453;
        }
        .ColorScheme-Text {
            color:#eff0f1;
        }
    </style>
  <g
     transform="translate(1,1)"
     id="g9">
    <path
       style="display:inline;fill:#414141;fill-opacity:1;stroke:#da4453;stroke-width:0.910293;stroke-miterlimit:4;stroke-dasharray:none;stroke-opacity:1"
       class="ColorScheme-NegativeText"
       d="M 7.1544899,0.46140846 A 6.6930815,6.6930815 0 0 0 0.46140846,7.1544899 6.6930815,6.6930815 0 0 0 7.1544899,13.847571 6.6930815,6.6930815 0 0 0 13.847571,7.1544899 6.6930815,6.6930815 0 0 0 7.1544899,0.46140846 Z"
       id="path3" />
    <path
       d="M 11,0 A 11,11 0 0 0 0,11 11,11 0 0 0 11,22 11,11 0 0 0 22,11 11,11 0 0 0 11,0 Z m 0,1 A 10,10 0 0 1 21,11 10,10 0 0 1 11,21 10,10 0 0 1 1,11 10,10 0 0 1 11,1 Z"
       style="display:none;fill:currentColor;fill-opacity:0.6;stroke:none"
       class="ColorScheme-Text"
       id="path7" />
    <path
       d="M 4.2513647,3.5839112 3.6301885,4.2050873 6.5234464,7.098345 3.6301885,9.9916023 4.2513647,10.612779 7.1446223,7.7195209 10.03788,10.612779 10.659056,9.9916023 7.7657982,7.098345 10.659056,4.2050873 10.03788,3.5839112 7.1446223,6.4771687 Z"
       fill="#ffffff"
       id="path5"
       style="stroke-width:0.439304" />
  </g>
</svg>
