<?xml version="1.0" encoding="UTF-8" standalone="no"?>
<svg
   viewBox="0 0 16 16"
   width="16"
   height="16"
   version="1.1"
   id="svg11"
   sodipodi:docname="emblem-locked.svg"
   inkscape:version="1.1.2 (0a00cf5339, 2022-02-04)"
   xmlns:inkscape="http://www.inkscape.org/namespaces/inkscape"
   xmlns:sodipodi="http://sodipodi.sourceforge.net/DTD/sodipodi-0.dtd"
   xmlns="http://www.w3.org/2000/svg"
   xmlns:svg="http://www.w3.org/2000/svg">
  <defs
     id="defs15" />
  <sodipodi:namedview
     id="namedview13"
     pagecolor="#ffffff"
     bordercolor="#666666"
     borderopacity="1.0"
     inkscape:pageshadow="2"
     inkscape:pageopacity="0.0"
     inkscape:pagecheckerboard="0"
     showgrid="false"
     inkscape:zoom="26.25"
     inkscape:cx="-0.91428571"
     inkscape:cy="11.961905"
     inkscape:window-width="3440"
     inkscape:window-height="1359"
     inkscape:window-x="0"
     inkscape:window-y="0"
     inkscape:window-maximized="1"
     inkscape:current-layer="g9" />
  <style
     type="text/css"
     id="current-color-scheme">
        .ColorScheme-NegativeText {
            color:#da4453;
        }
        .ColorScheme-Text {
            color:#eff0f1;
        }
    </style>
  <g
     transform="translate(1,1)"
     id="g9">
    <path
       style="display:inline;fill:#414141;fill-opacity:1;stroke:#e38805;stroke-width:0.902987;stroke-miterlimit:4;stroke-dasharray:none;stroke-opacity:1"
       class="ColorScheme-NegativeText"
       d="M 7.0971192,0.45775552 A 6.6393637,6.6393637 0 0 0 0.45775552,7.0971192 6.6393637,6.6393637 0 0 0 7.0971192,13.736483 6.6393637,6.6393637 0 0 0 13.736483,7.0971192 6.6393637,6.6393637 0 0 0 7.0971192,0.45775552 Z"
       id="path3" />
    <path
       d="M 11,0 A 11,11 0 0 0 0,11 11,11 0 0 0 11,22 11,11 0 0 0 22,11 11,11 0 0 0 11,0 Z m 0,1 A 10,10 0 0 1 21,11 10,10 0 0 1 11,21 10,10 0 0 1 1,11 10,10 0 0 1 11,1 Z"
       style="display:none;fill:currentColor;fill-opacity:0.6;stroke:none"
       class="ColorScheme-Text"
       id="path7" />
    <path
       d="m 7.0450465,2.8855985 c -1.1006968,0 -1.9868172,0.8861205 -1.9868172,1.9868173 V 6.8592331 H 4.0648206 V 10.832868 H 10.025272 V 6.8592331 H 9.0318638 V 4.8724158 c 0,-1.1006968 -0.8861203,-1.9868173 -1.9868173,-1.9868173 m 0,0.4967044 c 0.8255228,0 1.4901126,0.7753554 1.4901126,1.7384651 V 6.8592331 H 5.5549336 V 5.120768 c 0,-0.9631097 0.6645903,-1.7384651 1.4901129,-1.7384651"
       fill="#ffffff"
       id="path7-9"
       style="stroke-width:0.496704" />
  </g>
</svg>
