<?xml version="1.0" encoding="UTF-8" standalone="no"?>
<svg
   viewBox="0 0 16 16"
   width="16"
   height="16"
   version="1.1"
   id="svg11"
   sodipodi:docname="emblem-question.svg"
   inkscape:version="1.1.2 (0a00cf5339, 2022-02-04)"
   xmlns:inkscape="http://www.inkscape.org/namespaces/inkscape"
   xmlns:sodipodi="http://sodipodi.sourceforge.net/DTD/sodipodi-0.dtd"
   xmlns="http://www.w3.org/2000/svg"
   xmlns:svg="http://www.w3.org/2000/svg">
  <defs
     id="defs15" />
  <sodipodi:namedview
     id="namedview13"
     pagecolor="#ffffff"
     bordercolor="#666666"
     borderopacity="1.0"
     inkscape:pageshadow="2"
     inkscape:pageopacity="0.0"
     inkscape:pagecheckerboard="0"
     showgrid="false"
     inkscape:zoom="26.25"
     inkscape:cx="-0.91428571"
     inkscape:cy="11.961905"
     inkscape:window-width="3440"
     inkscape:window-height="1359"
     inkscape:window-x="0"
     inkscape:window-y="0"
     inkscape:window-maximized="1"
     inkscape:current-layer="g9" />
  <style
     type="text/css"
     id="current-color-scheme">
        .ColorScheme-NegativeText {
            color:#da4453;
        }
        .ColorScheme-Text {
            color:#eff0f1;
        }
    </style>
  <g
     transform="translate(1,1)"
     id="g9">
    <path
       style="display:inline;fill:#414141;fill-opacity:1;stroke:#9b59b6;stroke-width:0.89917;stroke-miterlimit:4;stroke-dasharray:none;stroke-opacity:1"
       class="ColorScheme-NegativeText"
       d="M 7.0671457,0.45584703 A 6.6112987,6.6112987 0 0 0 0.45584703,7.0671457 6.6112987,6.6112987 0 0 0 7.0671457,13.678444 6.6112987,6.6112987 0 0 0 13.678444,7.0671457 6.6112987,6.6112987 0 0 0 7.0671457,0.45584703 Z"
       id="path3" />
    <path
       d="M 11,0 A 11,11 0 0 0 0,11 11,11 0 0 0 11,22 11,11 0 0 0 22,11 11,11 0 0 0 11,0 Z m 0,1 A 10,10 0 0 1 21,11 10,10 0 0 1 11,21 10,10 0 0 1 1,11 10,10 0 0 1 11,1 Z"
       style="display:none;fill:currentColor;fill-opacity:0.6;stroke:none"
       class="ColorScheme-Text"
       id="path7" />
    <path
       d="M 7.0695098,2.8836051 A 2.6007755,2.6007755 0 0 0 4.4687344,5.4843806 H 5.5090446 A 1.5604653,1.5604653 0 0 1 7.0695098,3.9239153 1.5604653,1.5604653 0 0 1 8.6299753,5.4843806 1.5604653,1.5604653 0 0 1 7.0695098,7.0448456 H 6.5493549 V 9.1254661 H 7.5896648 V 8.0321 A 2.6007755,2.6007755 0 0 0 9.6702852,5.4843806 2.6007755,2.6007755 0 0 0 7.0695098,2.8836051 Z M 6.5493549,10.165776 v 1.040311 h 1.0403099 v -1.040311 z"
       fill="#ffffff"
       id="path7-5"
       style="stroke-width:0.520155" />
  </g>
</svg>
