<?xml version="1.0" encoding="UTF-8" standalone="no"?>
<svg
   viewBox="0 0 16 16"
   width="16"
   height="16"
   version="1.1"
   id="svg11"
   sodipodi:docname="emblem-unlocked.svg"
   inkscape:version="1.1.2 (0a00cf5339, 2022-02-04)"
   xmlns:inkscape="http://www.inkscape.org/namespaces/inkscape"
   xmlns:sodipodi="http://sodipodi.sourceforge.net/DTD/sodipodi-0.dtd"
   xmlns="http://www.w3.org/2000/svg"
   xmlns:svg="http://www.w3.org/2000/svg">
  <defs
     id="defs15" />
  <sodipodi:namedview
     id="namedview13"
     pagecolor="#ffffff"
     bordercolor="#666666"
     borderopacity="1.0"
     inkscape:pageshadow="2"
     inkscape:pageopacity="0.0"
     inkscape:pagecheckerboard="0"
     showgrid="false"
     inkscape:zoom="26.25"
     inkscape:cx="-0.91428571"
     inkscape:cy="11.961905"
     inkscape:window-width="3440"
     inkscape:window-height="1359"
     inkscape:window-x="0"
     inkscape:window-y="0"
     inkscape:window-maximized="1"
     inkscape:current-layer="g9" />
  <style
     type="text/css"
     id="current-color-scheme">
        .ColorScheme-NegativeText {
            color:#da4453;
        }
        .ColorScheme-Text {
            color:#eff0f1;
        }
    </style>
  <g
     transform="translate(1,1)"
     id="g9">
    <path
       style="display:inline;fill:#414141;fill-opacity:1;stroke:#e38805;stroke-width:0.904461;stroke-miterlimit:4;stroke-dasharray:none;stroke-opacity:1"
       class="ColorScheme-NegativeText"
       d="M 7.1086984,0.4584928 A 6.6502057,6.6502057 0 0 0 0.4584928,7.1086984 6.6502057,6.6502057 0 0 0 7.1086984,13.758904 6.6502057,6.6502057 0 0 0 13.758904,7.1086984 6.6502057,6.6502057 0 0 0 7.1086984,0.4584928 Z"
       id="path3" />
    <path
       d="m 7.13987,2.8343364 c -1.1740259,0 -2.1191803,0.9451543 -2.1191803,2.1191802 V 5.4833118 H 5.5504848 V 5.2184142 c 0,-1.0272726 0.7088658,-1.8542827 1.5893852,-1.8542827 0.8805196,0 1.5893854,0.8270101 1.5893854,1.8542827 V 7.072697 H 3.9610995 v 4.238361 H 10.31864 V 7.072697 H 9.25905 V 4.9535166 c 0,-1.1740259 -0.9451543,-2.1191802 -2.11918,-2.1191802 z"
       fill="#ffffff"
       id="path7-9"
       style="stroke-width:0.529795" />
    <path
       d="M 11,0 A 11,11 0 0 0 0,11 11,11 0 0 0 11,22 11,11 0 0 0 22,11 11,11 0 0 0 11,0 Z m 0,1 A 10,10 0 0 1 21,11 10,10 0 0 1 11,21 10,10 0 0 1 1,11 10,10 0 0 1 11,1 Z"
       style="display:none;fill:currentColor;fill-opacity:0.6;stroke:none"
       class="ColorScheme-Text"
       id="path7" />
  </g>
</svg>
