<?xml version="1.0" encoding="UTF-8" standalone="no"?>
<svg
   viewBox="0 0 16 16"
   width="16"
   height="16"
   version="1.1"
   id="svg11"
   sodipodi:docname="package-remove-auto.svg"
   inkscape:version="1.1.2 (0a00cf5339, 2022-02-04)"
   xmlns:inkscape="http://www.inkscape.org/namespaces/inkscape"
   xmlns:sodipodi="http://sodipodi.sourceforge.net/DTD/sodipodi-0.dtd"
   xmlns="http://www.w3.org/2000/svg"
   xmlns:svg="http://www.w3.org/2000/svg">
  <defs
     id="defs15" />
  <sodipodi:namedview
     id="namedview13"
     pagecolor="#ffffff"
     bordercolor="#666666"
     borderopacity="1.0"
     inkscape:pageshadow="2"
     inkscape:pageopacity="0.0"
     inkscape:pagecheckerboard="0"
     showgrid="false"
     inkscape:zoom="26.25"
     inkscape:cx="6.247619"
     inkscape:cy="4.4761905"
     inkscape:window-width="3440"
     inkscape:window-height="1359"
     inkscape:window-x="0"
     inkscape:window-y="0"
     inkscape:window-maximized="1"
     inkscape:current-layer="g9" />
  <style
     type="text/css"
     id="current-color-scheme">
        .ColorScheme-NegativeText {
            color:#da4453;
        }
        .ColorScheme-Text {
            color:#eff0f1;
        }
    </style>
  <g
     transform="translate(1,1)"
     id="g9">
    <path
       style="display:inline;fill:#414141;fill-opacity:1;stroke:#da4453;stroke-width:0.903369;stroke-miterlimit:4;stroke-dasharray:none;stroke-opacity:1"
       class="ColorScheme-NegativeText"
       d="M 7.1001209,0.45794665 A 6.6421744,6.6421744 0 0 0 0.45794665,7.1001209 6.6421744,6.6421744 0 0 0 7.1001209,13.742295 6.6421744,6.6421744 0 0 0 13.742295,7.1001209 6.6421744,6.6421744 0 0 0 7.1001209,0.45794665 Z"
       id="path3" />
    <path
       d="M 2.7363848,6.5546538 V 7.6455881 H 11.463857 V 6.5546538 Z"
       fill="#ffffff"
       id="path5"
       style="display:inline;stroke-width:0.838843;stroke-miterlimit:4;stroke-dasharray:none" />
    <path
       d="M 11,0 A 11,11 0 0 0 0,11 11,11 0 0 0 11,22 11,11 0 0 0 22,11 11,11 0 0 0 11,0 Z m 0,1 A 10,10 0 0 1 21,11 10,10 0 0 1 11,21 10,10 0 0 1 1,11 10,10 0 0 1 11,1 Z"
       style="display:none;fill:currentColor;fill-opacity:0.6;stroke:none"
       class="ColorScheme-Text"
       id="path7" />
    <path
       d="m 11.957503,11.187902 a 0.6894528,0.6894528 0 0 1 -0.689452,0.689453 0.6894528,0.6894528 0 0 1 -0.689453,-0.689453 0.6894528,0.6894528 0 0 1 0.689453,-0.689454 0.6894528,0.6894528 0 0 1 0.689452,0.689454 z"
       id="path9"
       style="fill:#fefefe;fill-opacity:1;stroke-width:0.68945" />
    <path
       d="m 7.8207859,11.187902 a 0.6894528,0.6894528 0 0 1 -0.689453,0.689453 0.6894528,0.6894528 0 0 1 -0.689453,-0.689453 0.6894528,0.6894528 0 0 1 0.689453,-0.689454 0.6894528,0.6894528 0 0 1 0.689453,0.689454 z"
       id="path11"
       style="fill:#fefefe;fill-opacity:1;stroke-width:0.68945" />
    <path
       d="m 9.8891449,11.187902 a 0.6894528,0.6894528 0 0 1 -0.689453,0.689453 0.6894528,0.6894528 0 0 1 -0.689453,-0.689453 0.6894528,0.6894528 0 0 1 0.689453,-0.689454 0.6894528,0.6894528 0 0 1 0.689453,0.689454 z"
       id="path13"
       style="fill:#fefefe;fill-opacity:1;stroke-width:0.68945" />
  </g>
</svg>
