<?xml version="1.0" encoding="UTF-8" standalone="no"?>
<svg
   viewBox="0 0 16 16"
   width="16"
   height="16"
   version="1.1"
   id="svg11"
   sodipodi:docname="package-install-auto.svg"
   inkscape:version="1.1.2 (0a00cf5339, 2022-02-04)"
   xmlns:inkscape="http://www.inkscape.org/namespaces/inkscape"
   xmlns:sodipodi="http://sodipodi.sourceforge.net/DTD/sodipodi-0.dtd"
   xmlns="http://www.w3.org/2000/svg"
   xmlns:svg="http://www.w3.org/2000/svg">
  <defs
     id="defs15" />
  <sodipodi:namedview
     id="namedview13"
     pagecolor="#ffffff"
     bordercolor="#666666"
     borderopacity="1.0"
     inkscape:pageshadow="2"
     inkscape:pageopacity="0.0"
     inkscape:pagecheckerboard="0"
     showgrid="false"
     inkscape:zoom="37.12"
     inkscape:cx="4.606681"
     inkscape:cy="8.9304957"
     inkscape:window-width="3440"
     inkscape:window-height="1359"
     inkscape:window-x="0"
     inkscape:window-y="0"
     inkscape:window-maximized="1"
     inkscape:current-layer="g15" />
  <style
     type="text/css"
     id="current-color-scheme">
        .ColorScheme-Highlight {
            color:#3daee9;
        }
        .ColorScheme-Text {
            color:#eff0f1;
        }
    </style>
  <g
     transform="translate(1,1)"
     id="g9">
    <path
       d="M 7.127381,0 A 7.127381,7.127381 0 0 0 0,7.127381 7.127381,7.127381 0 0 0 7.127381,14.254762 7.127381,7.127381 0 0 0 14.254762,7.127381 7.127381,7.127381 0 0 0 7.127381,0 Z"
       style="fill:#414141;fill-opacity:1;stroke:none;stroke-width:0.647944"
       class="ColorScheme-Highlight"
       id="path3" />
    <path
       d="M 7.127381,0 A 7.127381,7.127381 0 0 0 0,7.127381 7.127381,7.127381 0 0 0 7.127381,14.254762 7.127381,7.127381 0 0 0 14.254762,7.127381 7.127381,7.127381 0 0 0 7.127381,0 Z m 0,0.64794372 A 6.4794372,6.4794372 0 0 1 13.606818,7.127381 6.4794372,6.4794372 0 0 1 7.127381,13.606818 6.4794372,6.4794372 0 0 1 0.64794372,7.127381 6.4794372,6.4794372 0 0 1 7.127381,0.64794372 Z"
       style="fill:#3daee9;fill-opacity:1;stroke:none;stroke-width:0.647944"
       class="ColorScheme-Text"
       id="path7" />
    <g
       fill="#ffffff"
       id="g15"
       transform="matrix(0.73224417,0,0,0.73224417,1.2119385,1.8703487)">
      <path
         d="m 7,2.1114809 v 4 H 3 v 2 H 7 V 12.111481 H 9 V 8.1114809 h 4 v -2 H 9 v -4 z"
         id="path7-9" />
      <path
         d="m 14.00265,13.862825 a 0.84540857,0.84540857 0 0 1 -0.845409,0.845408 0.84540857,0.84540857 0 0 1 -0.845408,-0.845408 0.84540857,0.84540857 0 0 1 0.845408,-0.845409 0.84540857,0.84540857 0 0 1 0.845409,0.845409 z"
         id="path9"
         style="stroke-width:0.845409" />
      <path
         d="M 8.9301981,13.862825 A 0.84540857,0.84540857 0 0 1 8.0847895,14.708233 0.84540857,0.84540857 0 0 1 7.239381,13.862825 0.84540857,0.84540857 0 0 1 8.0847895,13.017416 0.84540857,0.84540857 0 0 1 8.9301981,13.862825 Z"
         id="path11"
         style="stroke-width:0.845409" />
      <path
         d="m 11.466424,13.862825 a 0.84540857,0.84540857 0 0 1 -0.845408,0.845408 0.84540857,0.84540857 0 0 1 -0.8454095,-0.845408 0.84540857,0.84540857 0 0 1 0.8454095,-0.845409 0.84540857,0.84540857 0 0 1 0.845408,0.845409 z"
         id="path13"
         style="stroke-width:0.845409" />
    </g>
  </g>
</svg>
