<?xml version="1.0" encoding="UTF-8" standalone="no"?>
<svg
   viewBox="0 0 16 16"
   width="16"
   height="16"
   version="1.1"
   id="svg11"
   sodipodi:docname="package-installed-outdated.svg"
   inkscape:version="1.1.2 (0a00cf5339, 2022-02-04)"
   xmlns:inkscape="http://www.inkscape.org/namespaces/inkscape"
   xmlns:sodipodi="http://sodipodi.sourceforge.net/DTD/sodipodi-0.dtd"
   xmlns="http://www.w3.org/2000/svg"
   xmlns:svg="http://www.w3.org/2000/svg">
  <defs
     id="defs15" />
  <sodipodi:namedview
     id="namedview13"
     pagecolor="#ffffff"
     bordercolor="#666666"
     borderopacity="1.0"
     inkscape:pageshadow="2"
     inkscape:pageopacity="0.0"
     inkscape:pagecheckerboard="0"
     showgrid="false"
     inkscape:zoom="52.5"
     inkscape:cx="5.5428571"
     inkscape:cy="8.0857143"
     inkscape:window-width="3440"
     inkscape:window-height="1359"
     inkscape:window-x="0"
     inkscape:window-y="0"
     inkscape:window-maximized="1"
     inkscape:current-layer="g9" />
  <style
     type="text/css"
     id="current-color-scheme">
        .ColorScheme-NegativeText {
            color:#da4453;
        }
        .ColorScheme-Text {
            color:#eff0f1;
        }
    </style>
  <g
     transform="translate(1,1)"
     id="g9">
    <path
       style="display:inline;fill:#414141;fill-opacity:1;stroke:#e38805;stroke-width:0.902987;stroke-miterlimit:4;stroke-dasharray:none;stroke-opacity:1"
       class="ColorScheme-NegativeText"
       d="M 7.0971192,0.45775552 A 6.6393637,6.6393637 0 0 0 0.45775552,7.0971192 6.6393637,6.6393637 0 0 0 7.0971192,13.736483 6.6393637,6.6393637 0 0 0 13.736483,7.0971192 6.6393637,6.6393637 0 0 0 7.0971192,0.45775552 Z"
       id="path3" />
    <path
       d="M 11,0 A 11,11 0 0 0 0,11 11,11 0 0 0 11,22 11,11 0 0 0 22,11 11,11 0 0 0 11,0 Z m 0,1 A 10,10 0 0 1 21,11 10,10 0 0 1 11,21 10,10 0 0 1 1,11 10,10 0 0 1 11,1 Z"
       style="display:none;fill:currentColor;fill-opacity:0.6;stroke:none"
       class="ColorScheme-Text"
       id="path7" />
    <path
       d="M 7.1322218,2.817851 A 4.3010185,4.3010185 0 0 0 2.8312034,7.1188695 4.3010185,4.3010185 0 0 0 7.1322218,11.419888 4.3010185,4.3010185 0 0 0 11.43324,7.1188695 4.3010185,4.3010185 0 0 0 7.1322218,2.817851 Z m 0,1.4336728 A 2.8673456,2.8673456 0 0 1 9.9995675,7.1188695 2.8673456,2.8673456 0 0 1 7.1322218,9.9862154 2.8673456,2.8673456 0 0 1 4.2648762,7.1188695 2.8673456,2.8673456 0 0 1 6.4153854,4.3453286 V 7.8357059 H 9.2827311 V 7.1188695 H 7.1322218 Z"
       fill="#ffffff"
       id="path7-9"
       style="stroke-width:0.716836" />
  </g>
</svg>
