<?xml version="1.0" encoding="UTF-8" standalone="no"?>
<svg
   viewBox="0 0 16 16"
   width="16"
   height="16"
   version="1.1"
   id="svg11"
   sodipodi:docname="vcs-normal.svg"
   inkscape:version="1.1.2 (0a00cf5339, 2022-02-04)"
   xmlns:inkscape="http://www.inkscape.org/namespaces/inkscape"
   xmlns:sodipodi="http://sodipodi.sourceforge.net/DTD/sodipodi-0.dtd"
   xmlns="http://www.w3.org/2000/svg"
   xmlns:svg="http://www.w3.org/2000/svg">
  <defs
     id="defs15" />
  <sodipodi:namedview
     id="namedview13"
     pagecolor="#ffffff"
     bordercolor="#666666"
     borderopacity="1.0"
     inkscape:pageshadow="2"
     inkscape:pageopacity="0.0"
     inkscape:pagecheckerboard="0"
     showgrid="false"
     inkscape:zoom="26.25"
     inkscape:cx="-0.91428571"
     inkscape:cy="11.961905"
     inkscape:window-width="3440"
     inkscape:window-height="1359"
     inkscape:window-x="0"
     inkscape:window-y="0"
     inkscape:window-maximized="1"
     inkscape:current-layer="g9" />
  <style
     type="text/css"
     id="current-color-scheme">
        .ColorScheme-NegativeText {
            color:#da4453;
        }
        .ColorScheme-Text {
            color:#eff0f1;
        }
    </style>
  <g
     transform="translate(1,1)"
     id="g9">
    <path
       style="display:inline;fill:#414141;fill-opacity:1;stroke:#27c658;stroke-width:0.902533;stroke-miterlimit:4;stroke-dasharray:none;stroke-opacity:1"
       class="ColorScheme-NegativeText"
       d="M 7.093557,0.45752871 A 6.6360284,6.6360284 0 0 0 0.45752871,7.093557 6.6360284,6.6360284 0 0 0 7.093557,13.729585 6.6360284,6.6360284 0 0 0 13.729585,7.093557 6.6360284,6.6360284 0 0 0 7.093557,0.45752871 Z"
       id="path3" />
    <path
       d="M 11,0 A 11,11 0 0 0 0,11 11,11 0 0 0 11,22 11,11 0 0 0 22,11 11,11 0 0 0 11,0 Z m 0,1 A 10,10 0 0 1 21,11 10,10 0 0 1 11,21 10,10 0 0 1 1,11 10,10 0 0 1 11,1 Z"
       style="display:none;fill:currentColor;fill-opacity:0.6;stroke:none"
       class="ColorScheme-Text"
       id="path7" />
    <path
       d="M 11.156022,3.5994175 5.8716576,8.8837825 3.0491444,6.0612695 2.1788798,6.9315336 5.8716576,10.624311 12.026287,4.4696822 Z"
       fill="#ffffff"
       id="path7-4"
       style="stroke-width:0.615463" />
  </g>
</svg>
