<?xml version="1.0" encoding="UTF-8" standalone="no"?>
<svg
   viewBox="0 0 22 22"
   version="1.1"
   id="svg1"
   xmlns="http://www.w3.org/2000/svg"
   xmlns:svg="http://www.w3.org/2000/svg">
  <defs
     id="defs1" />
  <path
     style="fill:#fdbc4b;fill-opacity:1"
     d="M 5.58,3.078 A 2.515,2.515 0 0 0 3.078,5.58 V 16.42 A 2.515,2.515 0 0 0 5.58,18.922 H 16.42 A 2.515,2.515 0 0 0 18.922,16.42 V 7.297 A 2.515,2.515 0 0 0 16.42,4.795 H 11.803 L 10.92,3.912 10.486,3.479 l -0.4,-0.4 H 5.58 Z m 3.3,4.795 h 9.208 v 8.547 c 0,0.924 -0.744,1.668 -1.668,1.668 H 5.58 A 1.664,1.664 0 0 1 3.912,16.42 V 9.873 H 6.873 V 9.865 l 0.008,0.008 2,-2 z"
     id="path1-5" />
</svg>
