<?xml version="1.0" encoding="UTF-8" standalone="no"?>
<svg
   viewBox="0 0 22 22"
   version="1.1"
   id="svg1"
   xmlns="http://www.w3.org/2000/svg"
   xmlns:svg="http://www.w3.org/2000/svg">
  <defs
     id="defs3051">
    <style
       type="text/css"
       id="current-color-scheme">
      .ColorScheme-Text {
        color:#eff0f1
      }
      </style>
  </defs>
  <path
     class="ColorScheme-Text"
     d="m 18.457998,3.144531 c -0.06928,0.00318 -0.170094,0.04894 -0.224062,0.1016929 L 3.1201862,18.019481 C 3.0662214,18.072264 3.0121252,18.183062 3,18.265814 l 0.18447,0.633872 C 3.236753,18.954838 3.3362203,19 3.4055636,19 H 18.463998 c 0.06932,0 0.177783,-0.0281 0.241064,-0.06242 l 0.243437,-0.295096 C 18.976855,18.565805 19,18.434302 19,18.350232 V 3.690091 C 19,3.606048 18.96608,3.4821719 18.92465,3.4148111 Z m -1.653058,13.61345 c 0.06932,0 0.141806,0.0093 0.161091,0.02038 0.01928,0.01132 0.03506,0.138935 0.03506,0.222961 v 1.265432 c 0,0.08404 -0.0071,0.173187 -0.0158,0.198068 -0.0088,0.0249 -0.111061,0.04529 -0.180372,0.04529 h -0.05142 c -0.06933,0 -0.14182,-0.0093 -0.161091,-0.02037 -0.01929,-0.01132 -0.03506,-0.1389 -0.03506,-0.222961 v -1.265434 c 0,-0.08404 0.0071,-0.173133 0.01576,-0.198069 0.0088,-0.0249 0.111061,-0.04529 0.180376,-0.04529 z m -2.181755,0 c 0.06932,0 0.14182,0.0093 0.161097,0.02038 0.01929,0.01132 0.03506,0.138935 0.03506,0.222961 v 1.265432 c 0,0.08404 -0.0071,0.173187 -0.0158,0.198068 -0.0087,0.0249 -0.111061,0.04529 -0.180374,0.04529 h -0.05142 c -0.06933,0 -0.141806,-0.0093 -0.161096,-0.02037 -0.01929,-0.01132 -0.03506,-0.1389 -0.03506,-0.222961 v -1.265434 c 0,-0.08404 0.0071,-0.173133 0.0158,-0.198069 0.0088,-0.0249 0.111061,-0.04529 0.180376,-0.04529 z m -2.181778,0 c 0.06933,0 0.141806,0.0093 0.161091,0.02038 0.01928,0.01132 0.03506,0.138935 0.03506,0.222961 v 1.265432 c 0,0.08404 -0.0071,0.173187 -0.01576,0.198068 -0.0087,0.0249 -0.111096,0.04529 -0.180406,0.04529 h -0.05137 c -0.06933,0 -0.14182,-0.0093 -0.161093,-0.02037 -0.01928,-0.01132 -0.03506,-0.1389 -0.03506,-0.222961 v -1.265434 c 0,-0.08404 0.0071,-0.173133 0.01576,-0.198069 0.0088,-0.0249 0.111061,-0.04529 0.180374,-0.04529 z m -2.181718,0 c 0.06932,0 0.141806,0.0093 0.161091,0.02038 0.01928,0.01132 0.03506,0.138935 0.03506,0.222961 v 1.265432 c 0,0.08404 -0.0071,0.173187 -0.01576,0.198068 -0.0088,0.0249 -0.111061,0.04529 -0.180376,0.04529 h -0.05142 c -0.06933,0 -0.14182,-0.0093 -0.161091,-0.02037 -0.01928,-0.01132 -0.03506,-0.1389 -0.03506,-0.222961 v -1.265434 c 0,-0.08404 0.0072,-0.173133 0.01579,-0.198069 0.0088,-0.0249 0.111062,-0.04529 0.180376,-0.04529 z m -2.1817833,0 c 0.069326,0 0.1418058,0.0093 0.1610957,0.02038 0.01927,0.01132 0.035064,0.138935 0.035064,0.222961 v 1.265432 c 0,0.08404 -0.00716,0.173187 -0.015796,0.198068 -0.00876,0.0249 -0.1110622,0.04529 -0.1803754,0.04529 h -0.05137 c -0.069326,0 -0.1418204,-0.0093 -0.1610972,-0.02037 -0.019284,-0.01132 -0.035064,-0.1389 -0.035064,-0.222961 v -1.265434 c 0,-0.08404 0.00716,-0.173133 0.015766,-0.198069 0.00876,-0.0249 0.1110918,-0.04529 0.1804065,-0.04529 z m 7.6813143,-6.17054 c 0.04145,0.06735 0.07531,0.191246 0.07531,0.27528 v 3.231529 c 0,0.08403 -0.02319,0.215536 -0.0515,0.292252 l -0.127997,0.155184 c -0.06329,0.03434 -0.171746,0.06245 -0.241059,0.06245 h -3.366593 c -0.06932,0 -0.168783,-0.04515 -0.221066,-0.100355 l -0.111868,-0.384284 c 0.01212,-0.08274 0.06618,-0.193595 0.120128,-0.246333 l 3.422437,-3.345311 c 0.05397,-0.05275 0.154784,-0.0985 0.224064,-0.101671 z"
     id="path1-5"
     style="color:#eff0f1;display:inline;fill:currentColor;fill-opacity:1;stroke-width:0.0344083" />
</svg>
