<?xml version="1.0" encoding="UTF-8" standalone="no"?>
<svg
   viewBox="0 0 22 22"
   version="1.1"
   id="svg1"
   xmlns="http://www.w3.org/2000/svg"
   xmlns:svg="http://www.w3.org/2000/svg">
  <defs
     id="defs3051">
    <style type="text/css" id="current-color-scheme"> .ColorScheme-Text { color:#eff0f1; } </style>
  </defs>
  <path
     style="fill:currentColor;fill-opacity:1;stroke:none"
     d="m 5,16 v 1 H 17 V 16 Z M 5,3 C 3.892,3 3,3.892 3,5 v 12 c 0,1.108 0.892,2 2,2 h 12 c 1.108,0 2,-0.892 2,-2 V 5 C 19,3.892 18.108,3 17,3 Z m 0,1 h 12 c 0.554,0 1,0.446 1,1 v 12 c 0,0.456911 -0.383925,0.9375 -1,0.9375 H 5 C 4.3525635,17.9375 4,17.468666 4,17 V 5 C 4,4.446 4.446,4 5,4 Z"
     class="ColorScheme-Text"
     id="path1" />
</svg>
