<?xml version="1.0" encoding="UTF-8" standalone="no"?>
<svg
   viewBox="0 0 22 22"
   version="1.1"
   id="svg1"
   xmlns="http://www.w3.org/2000/svg"
   xmlns:svg="http://www.w3.org/2000/svg">
  <defs
     id="defs3051">
    <style
       type="text/css"
       id="current-color-scheme"> .ColorScheme-Text { color:#eff0f1; } </style>
  </defs>
  <path
     style="fill:currentColor;fill-opacity:1;stroke:none"
     d="M 11,3 10.292969,3.7070312 3,11 3.7070312,11.707031 4,11.414062 c 0,0 0,4.773438 0,5.679688 C 4,18 4.5555372,19 6.0703125,19 7.5850878,19 10,19 10,19 h 3 c 0,0 2.125,0 3.0625,0 C 17,19 18,18 18,17.09375 18,16.1875 18,11.414062 18,11.414062 L 18.292969,11.707031 19,11 17,9 16.292969,9.7070312 17,10.414062 c 0,0 0,6.239253 0,6.691601 C 17,17.558011 16.515562,18 16.073012,18 15.630462,18 13,18 13,18 V 13 H 10 9 v 5 C 9,18 6.6135628,18 6.0599847,18 5.5064066,18 5,17.53972 5,17.103501 5,16.667282 5,10.414062 5,10.414062 L 11,4.4140625 12.292969,5.7070312 13,5 11.707031,3.7070312 Z m 3,2 v 3 h 2 V 5 Z"
     class="ColorScheme-Text"
     id="path1" />
</svg>
