<svg width="32" height="32" version="1.1" xmlns="http://www.w3.org/2000/svg" xmlns:xlink="http://www.w3.org/1999/xlink">
<style id="current-color-scheme" type="text/css">.ColorScheme-Highlight {
        color:#3daee9;
      }</style>
<defs>
<linearGradient id="linearGradient3403" x1="3.75" x2="5.8889" y1="2.5357" y2="29.5" gradientUnits="userSpaceOnUse">
<stop style="stop-color:#32373c" offset="0"/>
<stop style="stop-color:#1a1a1a" offset=".36805"/>
<stop style="stop-color:#31363b" offset="1"/>
</linearGradient>
<linearGradient id="linearGradient20558" x1="12.775" x2="12.775" y1="10.378" y2="29.5" gradientUnits="userSpaceOnUse">
<stop style="stop-color:#3d3d3d" offset="0"/>
<stop offset=".61772"/>
<stop style="stop-color:#3d3d3d" offset="1"/>
</linearGradient>
<filter id="filter20720" x="-.01718" y="-.016566" width="1.0344" height="1.0331" style="color-interpolation-filters:sRGB">
<feGaussianBlur stdDeviation="0.07327375"/>
</filter>
<linearGradient id="linearGradient8" x1="17" x2="17" y1="30" y2="2" gradientUnits="userSpaceOnUse">
<stop style="stop-color:#141618" offset="0"/>
<stop style="stop-color:#686868" offset=".5319"/>
<stop style="stop-color:#31363b" offset="1"/>
</linearGradient>
<linearGradient id="linearGradient4" x1="5.4461" x2="27.711" y1="27" y2="4.7078" gradientUnits="userSpaceOnUse">
<stop offset="0"/>
<stop style="stop-color:#3e3e3e" offset="1"/>
</linearGradient>
<linearGradient id="linearGradient6" x1="24.584" x2="9.5368" y1="8.0134" y2="23.988" gradientUnits="userSpaceOnUse">
<stop style="stop-color:#ddd" offset="0"/>
<stop style="stop-color:#787878" offset="1"/>
</linearGradient>
<linearGradient id="linearGradient4220" x1="11" x2="33" y1="7" y2="28" gradientUnits="userSpaceOnUse">
<stop style="stop-color:#292c2f" offset="0"/>
<stop style="stop-opacity:0" offset="1"/>
</linearGradient>
<linearGradient id="linearGradient4235" x1="25.374" x2="14" y1="-21.874" y2="-10" gradientUnits="userSpaceOnUse">
<stop style="stop-color:#202222" offset="0"/>
<stop style="stop-color:#424649" offset="1"/>
</linearGradient>
<linearGradient id="linearGradient4338" x2="0" y1="538.8" y2="519.8" gradientUnits="userSpaceOnUse">
<stop style="stop-color:#2a2c2f" offset="0"/>
<stop style="stop-color:#424649" offset="1"/>
</linearGradient>
<linearGradient id="linearGradient11" x1="23" x2="13" y1="9" y2="20" gradientUnits="userSpaceOnUse">
<stop style="stop-color:#6a6a6a" offset="0"/>
<stop style="stop-color:#919191" offset="1"/>
</linearGradient>
</defs>
<rect x="3" y="2" width="26" height="27" ry="0" style="fill-rule:evenodd;fill:url(#linearGradient4)"/>
<rect x="4" y="4" width="24" height="21" rx="3" ry="3" style="fill:url(#linearGradient6)"/>
<rect x="10.626" y="7.126" width="14.748" height="14.748" rx="7.1981" style="fill-opacity:.77122;fill:url(#linearGradient11)"/>
<path d="m22 10-8.5791 8.4419 6.5581 6.5581h8.021v-9z" style="fill-rule:evenodd;fill:url(#linearGradient4220);opacity:.2"/>
<path d="m3 2v27h26v-27zm1 2.0435 21-0.043457c3-0.00621 3 3 3 3v15s0 3.0073-2.9901 3h-21.01z" style="fill:url(#linearGradient4338)"/>
<rect x="20.463" y="25.464" width="7.5368" height="1.5357" style="fill:#1c1e20"/>
<rect class="ColorScheme-Highlight" x="7.9879" y="25.464" width="13.012" height="1.5357" fill="currentColor"/>
<rect x="21" y="25.464" width="1" height="1.5357" rx="0" ry="0" style="fill:#daebf9"/>
<rect transform="scale(1,-1)" x="11.953" y="-20.522" width="12.095" height="12.045" rx="6.0473" style="fill:url(#linearGradient4235)"/>
<path d="m16.207 10.5v8l5.5557-4z" style="fill-rule:evenodd;fill:#fff"/>
<path d="m3 2v28h26l1-1s-12 0.22222-16.415-2.1226c-5.2321-2.7788-7.585-24.877-7.585-24.877z" style="fill:url(#linearGradient3403);filter:url(#filter20720);mix-blend-mode:normal;stroke-linejoin:round;stroke-width:.576;stroke:url(#linearGradient20558)"/>
<path d="m5 1c-4 0-4 4-4 4v21c0 5 4 5 4 5h22s4 0 4-4v-22s0-4-4-4zm0 2h22c2 0 2 2 2 2v22c0 2-2 2-2 2h-22s-2 0-2-3v-21s0-2 2-2z" style="fill:url(#linearGradient8);stroke-width:.226"/>
</svg>
