<?xml version="1.0" encoding="UTF-8" standalone="no"?>
<svg
  width="32"
  height="32"
  version="1.1"
  viewBox="0 0 32 32"
  id="svg22"
  xmlns:xlink="http://www.w3.org/1999/xlink"
  xmlns="http://www.w3.org/2000/svg"
  xmlns:svg="http://www.w3.org/2000/svg">
 <style
   type="text/css"
   id="current-color-scheme">
  .ColorScheme-Highlight {
        color:#3daee9;
      }
      </style>
 <defs
   id="defs12">
  <linearGradient
    id="linearGradient7">
   <stop
     style="stop-color:#141618;stop-opacity:1;"
     offset="0"
     id="stop7" />
   <stop
     style="stop-color:#686868;stop-opacity:1;"
     offset="0.53189832"
     id="stop9" />
   <stop
     style="stop-color:#31363b;stop-opacity:1;"
     offset="1"
     id="stop8" />
  </linearGradient>
  <linearGradient
    xlink:href="#linearGradient3487"
    id="linearGradient3403"
    gradientUnits="userSpaceOnUse"
    x1="6.9491749"
    y1="4.5549412"
    x2="11.215498"
    y2="59.052471" />
  <linearGradient
    id="linearGradient3487">
   <stop
     style="stop-color:#32373c;stop-opacity:1"
     offset="0"
     id="stop3481" />
   <stop
     id="stop3483"
     offset="0.36804965"
     style="stop-color:#1a1a1a;stop-opacity:1" />
   <stop
     style="stop-color:#31363b;stop-opacity:1"
     offset="1"
     id="stop3485" />
  </linearGradient>
  <linearGradient
    xlink:href="#linearGradient20604"
    id="linearGradient20558"
    gradientUnits="userSpaceOnUse"
    x1="25.802212"
    y1="20.373846"
    x2="25.111048"
    y2="58.912758" />
  <linearGradient
    id="linearGradient20604">
   <stop
     id="stop20598"
     offset="0"
     style="stop-color:#3d3d3d;stop-opacity:1" />
   <stop
     style="stop-color:#000000;stop-opacity:1"
     offset="0.61772454"
     id="stop20600" />
   <stop
     id="stop20602"
     offset="1"
     style="stop-color:#3d3d3d;stop-opacity:1" />
  </linearGradient>
  <filter
    style="color-interpolation-filters:sRGB"
    id="filter20720"
    x="-0.017154225"
    y="-0.016541574"
    width="1.0343069"
    height="1.0330831">
   <feGaussianBlur
     stdDeviation="0.14745661"
     id="feGaussianBlur20722" />
  </filter>
  <linearGradient
    xlink:href="#linearGradient7"
    id="linearGradient8"
    x1="17"
    y1="30"
    x2="17"
    y2="2"
    gradientUnits="userSpaceOnUse" />
  <linearGradient
    xlink:href="#linearGradient4273"
    id="linearGradient3085"
    y1="543.79797"
    x1="434.57144"
    y2="503.798"
    gradientUnits="userSpaceOnUse"
    x2="384.57144"
    gradientTransform="matrix(0.66666621,0,0,0.70000019,-256.38078,-350.65872)" />
  <linearGradient
    id="linearGradient4273">
   <stop
     style="stop-color:#343b40"
     id="stop4275" />
   <stop
     offset="1"
     style="stop-color:#555e63"
     id="stop4277" />
  </linearGradient>
  <linearGradient
    xlink:href="#linearGradient4152-0"
    id="linearGradient3087"
    y1="43.999973"
    y2="4.1917577"
    gradientUnits="userSpaceOnUse"
    x2="-1.9607389"
    gradientTransform="matrix(0.66666621,0,0,0.69999959,0,-0.8)" />
  <linearGradient
    id="linearGradient4152-0">
   <stop
     style="stop-color:#bd8d48"
     id="stop4154-0" />
   <stop
     offset="1"
     style="stop-color:#e8b971"
     id="stop4156-8" />
  </linearGradient>
 </defs>
 <rect
   width="25.341169"
   x="4.0612292"
   y="2.0000346"
   height="26.090137"
   style="display:inline;fill:url(#linearGradient3085);stroke-width:0.666666"
   id="rect4567"
   rx="0"
   ry="0" />
 <path
   id="rect4778"
   style="display:inline;fill:url(#linearGradient3087);stroke-width:0.666666"
   d="M 4.0612294,4 H 28.287109 v 23.914062 l -24.2258796,0.008 V 30.008 l 24.8308416,-0.0076 1.395038,-1.588315 V 3.4003906 L 28.953125,2 H 4.0612294 Z" />
 <path
   id="rect4553"
   style="color:#000000;fill:#aa7f41;fill-opacity:0.498039;stroke-width:0.666666"
   d="M 4.0605469 4 L 4.0605469 4.9550781 L 27.378906 4.9550781 L 27.378906 27 L 4.0605469 27 L 4.0605469 27.914062 L 28.287109 27.914062 L 28.287109 4 L 4.0605469 4 z " />
 <rect
   width="3.9999599"
   x="19.000011"
   y="26.000034"
   height="0.99998999"
   class="ColorScheme-Highlight"
   fill="currentColor"
   id="rect4568" />
 <rect
   width="3.9999881"
   x="23.999981"
   y="26.000034"
   height="1.00001"
   style="color:#000000;fill:#d6d6d6;stroke-width:0.666666"
   id="rect4570" />
 <path
   id="path3864"
   style="font-style:normal;font-variant:normal;font-weight:normal;font-stretch:normal;font-size:12.7938px;line-height:125%;font-family:Oxygen;-inkscape-font-specification:Oxygen;letter-spacing:0px;word-spacing:0px;fill:#f2f2f2;fill-opacity:1;stroke:none"
   d="m 139.39004,627.06162 -0.98002,-3.7e-4 -3.43642,5.0879 -9e-4,0.80204 3.53872,-8.4e-4 -4e-4,1.94133 0.87783,7e-5 3.9e-4,-1.94133 0.89103,6.3e-4 0.0729,-0.75879 -0.96356,-0.001 z m -0.88084,1.1888 0.003,3.94074 -2.61702,-8.4e-4 z m -4.78676,1.70529 -5.05709,2e-5 -6.3e-4,0.75371 5.05709,-2e-5 z m -7.55053,-2.81831 c -0.33177,-0.1513 -0.72105,-0.22694 -1.16595,-0.22695 -0.92819,10e-6 -1.6325,0.22745 -2.11404,0.68108 l 0.30378,0.78328 c 0.42571,-0.42919 1.00769,-0.64446 1.74745,-0.64446 0.44316,0 0.78561,0.12251 1.02639,0.36328 0.24076,0.23728 0.36088,0.57023 0.36089,1.00292 l -0.1197,0.33108 c -0.0768,0.22333 -0.19961,0.49471 -0.37059,0.81573 -0.16749,0.32103 -0.34303,0.58434 -0.52447,0.78673 l -2.70673,3.00424 0.11995,0.85656 4.58028,3.6e-4 0.059,-0.80547 -3.6277,0.001 2.20723,-2.36244 c 0.16051,-0.17098 0.31753,-0.38374 0.47106,-0.63847 0.15702,-0.25473 0.28721,-0.48712 0.38841,-0.69999 0.10119,-0.21285 0.19759,-0.43782 0.28832,-0.67511 0.0942,-0.23727 0.15517,-0.39727 0.18307,-0.47754 0.0279,-0.0838 0.0484,-0.14921 0.0624,-0.19806 0,-0.64553 -0.21189,-1.15968 -0.63411,-1.54352 -0.15833,-0.14524 -0.33585,-0.26357 -0.53492,-0.35435 z m 7.54912,5.03655 -5.04937,8e-4 -0.001,0.74274 5.0516,2e-4 z m -14.15348,-3.25968 -0.71632,7e-5 8.3e-4,2.21923 -2.08415,-1.7e-4 -1.4e-4,0.71083 2.07866,4e-4 -3.2e-4,2.24565 0.71632,-7e-5 3.2e-4,-2.24566 2.04575,0.002 0.001,-0.71307 -2.04127,3.1e-4 z m -5.14133,-1.77753 c -0.33177,-0.1513 -0.72105,-0.22695 -1.16595,-0.22696 -0.92819,1e-5 -1.63251,0.22746 -2.11405,0.68108 l 0.30379,0.78328 c 0.42571,-0.42919 1.00892,-0.6412 1.74868,-0.6412 0.44316,0 0.78437,0.11925 1.02515,0.36002 0.24076,0.23729 0.36212,0.57349 0.36213,1.00618 l -0.12093,0.32783 c -0.0768,0.22333 -0.20062,0.49695 -0.37161,0.81797 -0.16749,0.32103 -0.342,0.5821 -0.52345,0.78449 l -2.70672,3.00424 0.12217,0.85756 4.57805,-6.5e-4 0.059,-0.80546 -3.6277,0.001 2.20946,-2.36144 c 0.16051,-0.17097 0.31753,-0.38373 0.47107,-0.63846 0.15702,-0.25472 0.28497,-0.48815 0.38617,-0.701 0.10119,-0.21285 0.19759,-0.43783 0.28832,-0.67511 0.0942,-0.23728 0.15516,-0.39728 0.18306,-0.47754 0.0279,-0.0838 0.0484,-0.14921 0.0624,-0.19806 0,-0.64553 -0.21188,-1.15968 -0.6341,-1.54352 -0.15834,-0.14524 -0.33587,-0.26358 -0.53493,-0.35435 z"
   transform="matrix(0.60771785,-0.27408548,0.27408548,0.60771785,-231.80837,-333.85417)" />
 <path
   style="display:inline;mix-blend-mode:normal;fill:url(#linearGradient3403);fill-opacity:1;stroke:url(#linearGradient20558);stroke-width:1.16242;stroke-linecap:butt;stroke-linejoin:round;stroke-miterlimit:4;stroke-dasharray:none;stroke-opacity:1;filter:url(#filter20720)"
   d="M 5.4025265,3.5689324 V 60.09958 H 57.895271 l 2.018951,-2.018952 c 0,0 -24.171977,0.621351 -33.141048,-4.285423 C 16.257548,48.042344 11.459382,3.5689324 11.459382,3.5689324 Z"
   id="path1686"
   transform="matrix(0.49530655,0,0,0.49530655,0.32409325,0.23228439)" />
 <path
   id="rect5"
   style="display:inline;opacity:1;fill:url(#linearGradient8);stroke-width:0.226"
   d="M 5,1 C 1,1 1,5 1,5 v 21 c 0,5 4,5 4,5 h 22 c 0,0 4,0 4,-4 V 5 c 0,0 0,-4 -4,-4 z m 0,2 h 22 c 2,0 2,2 2,2 v 22 c 0,2 -2,2 -2,2 H 5 C 5,29 3,29 3,26 V 5 C 3,5 3,3 5,3 Z" />
</svg>
