<svg width="32" height="32" version="1.1" xmlns="http://www.w3.org/2000/svg" xmlns:xlink="http://www.w3.org/1999/xlink">
<style id="current-color-scheme" type="text/css">.ColorScheme-Highlight {
        color:#3daee9;
      }</style>
<defs>
<linearGradient id="linearGradient3403" x1="3.75" x2="5.8889" y1="2.5357" y2="29.5" gradientUnits="userSpaceOnUse">
<stop style="stop-color:#32373c" offset="0"/>
<stop style="stop-color:#1a1a1a" offset=".36805"/>
<stop style="stop-color:#31363b" offset="1"/>
</linearGradient>
<linearGradient id="linearGradient20558" x1="12.775" x2="12.775" y1="10.378" y2="29.5" gradientUnits="userSpaceOnUse">
<stop style="stop-color:#3d3d3d" offset="0"/>
<stop offset=".61772"/>
<stop style="stop-color:#3d3d3d" offset="1"/>
</linearGradient>
<filter id="filter20720" x="-.01718" y="-.016566" width="1.0344" height="1.0331" style="color-interpolation-filters:sRGB">
<feGaussianBlur stdDeviation="0.07327375"/>
</filter>
<linearGradient id="linearGradient8" x1="17" x2="17" y1="30" y2="2" gradientUnits="userSpaceOnUse">
<stop style="stop-color:#141618" offset="0"/>
<stop style="stop-color:#686868" offset=".5319"/>
<stop style="stop-color:#31363b" offset="1"/>
</linearGradient>
<linearGradient id="linearGradient2" x1="6.494" x2="24.754" y1="26.286" y2="6.7899" gradientTransform="translate(-.53684 .46426)" gradientUnits="userSpaceOnUse">
<stop style="stop-color:#252f2f" offset="0"/>
<stop style="stop-color:#5f7575" offset="1"/>
</linearGradient>
<linearGradient id="linearGradient4306" x1="14.799" x2="23.868" y1="1.5368" y2="10.548" gradientTransform="translate(-.53684 .46426)" gradientUnits="userSpaceOnUse" xlink:href="#linearGradient4296"/>
<linearGradient id="linearGradient4296">
<stop offset="0"/>
<stop style="stop-opacity:0" offset="1"/>
</linearGradient>
<linearGradient id="linearGradient4304" x1="4.1534" x2="15.296" y1="8.3444" y2="18.515" gradientTransform="translate(-.53684 .46426)" gradientUnits="userSpaceOnUse" xlink:href="#linearGradient4296"/>
<linearGradient id="linearGradient4302" x1="-1.0321" x2="16.93" y1="-2.0965" y2="13.704" gradientTransform="translate(-.53684 .46426)" gradientUnits="userSpaceOnUse" xlink:href="#linearGradient4296"/>
<linearGradient id="linearGradient21" x1="17.956" x2="21.692" y1="4.2894" y2="8.2513" gradientTransform="translate(-.53684 .46426)" gradientUnits="userSpaceOnUse">
<stop style="stop-color:#ea7676" offset="0"/>
<stop style="stop-color:#db1313" offset="1"/>
</linearGradient>
<linearGradient id="linearGradient15" x1="8.333" x2="12.095" y1="4.5715" y2="8.3333" gradientTransform="translate(-.53684 .46426)" gradientUnits="userSpaceOnUse">
<stop style="stop-color:#fff15b" offset="0"/>
<stop style="stop-color:#ffa92d" offset="1"/>
</linearGradient>
<linearGradient id="linearGradient19" x1="10.156" x2="14.062" y1="13.714" y2="17.324" gradientTransform="translate(-.53684 .46426)" gradientUnits="userSpaceOnUse">
<stop style="stop-color:#69dc92" offset="0"/>
<stop style="stop-color:#329254" offset="1"/>
</linearGradient>
<linearGradient id="linearGradient30" x1="13.531" x2="17.003" y1="21.825" y2="25.855" gradientTransform="translate(-.53684 .46426)" gradientUnits="userSpaceOnUse">
<stop style="stop-color:#3daee9;stop-opacity:0" offset="0"/>
<stop style="stop-opacity:.42041" offset="1"/>
</linearGradient>
<linearGradient id="linearGradient13" x1="11.847" x2="28.46" y1="13.704" y2="17.312" gradientTransform="translate(-.53684 .46426)" gradientUnits="userSpaceOnUse" xlink:href="#linearGradient4296"/>
<linearGradient id="linearGradient23" x1="23.648" x2="25.262" y1="12.157" y2="13.037" gradientTransform="translate(-.53684 .46426)" gradientUnits="userSpaceOnUse">
<stop style="stop-color:#b9b9b9" offset="0"/>
<stop style="stop-color:#2f2f2f" offset="1"/>
</linearGradient>
<linearGradient id="linearGradient25" x1="21.55" x2="26.87" y1="19.181" y2="23.823" gradientTransform="translate(-.53684 .46426)" gradientUnits="userSpaceOnUse">
<stop style="stop-color:#4c5e5e" offset="0"/>
<stop style="stop-opacity:0" offset="1"/>
</linearGradient>
<linearGradient id="linearGradient17" x1="19.075" x2="19.902" y1="21.755" y2="22.232" gradientTransform="translate(-.53684 .46426)" gradientUnits="userSpaceOnUse">
<stop style="stop-color:#2f2f2f" offset="0"/>
<stop style="stop-color:#1d1d1d" offset="1"/>
</linearGradient>
</defs>
<rect x="4.8924" y="2.5606" width="24.531" height="27.404" ry="0" style="fill-rule:evenodd;fill:url(#linearGradient2)"/>
<path d="m17.984 9.1741 4.6139 4.6139 2.942-4.2758-4.541-4.5994z" style="fill:url(#linearGradient4306);opacity:.4"/>
<path d="m9.9494 18.151 7.47 7.5249 2.7102-4.8285-6.6794-6.6794z" style="fill:url(#linearGradient4304);opacity:.4"/>
<path d="m8.0257 9.0248 16.041 16.041 0.014955-7.4749-12.542-12.542z" style="fill:url(#linearGradient4302);opacity:.4"/>
<circle cx="19.273" cy="6.8884" r="2.6238" style="fill:url(#linearGradient21);stroke-width:.576"/>
<circle cx="9.6691" cy="6.9247" r="2.66" style="fill:url(#linearGradient15);stroke-width:.576"/>
<circle cx="11.539" cy="16.019" r="2.66" style="fill:url(#linearGradient19);stroke-width:.576"/>
<circle class="ColorScheme-Highlight" cx="14.759" cy="24.28" r="2.66" fill="currentColor"/>
<circle cx="14.759" cy="24.28" r="2.66" style="fill:url(#linearGradient30);stroke-width:.576"/>
<path d="m29.217 5.7534-1.2941-1.3124-10.744 19.545-2.7747 2.9075 3.6216 3.0943 10.937-0.02401z" style="fill:url(#linearGradient13)"/>
<path d="m17.461 22.517c-0.34199-0.0042-0.70265 0.15043-1.0332 0.53516-0.80071 0.93225-2.0234 3.8418-2.0234 3.8418s2.3637 0.23534 3.6348-0.48828c1.2-0.68314 1.3242-2.0026 0.85938-2.9551-0.0672-0.13711-0.15888-0.27142-0.28125-0.38672 0 0-0.59131-0.3589-0.82227-0.49219-0.10773-0.03449-0.21999-0.05328-0.33398-0.05469z" style="fill-rule:evenodd;fill:#cecece;stroke-width:.77765"/>
<path d="m27.923 4.441-0.4584-0.21131c-1.3517 2.0439-5.0163 8.4031-5.0163 8.4031s-3.2311 5.7689-4.2438 8.9077c0.37794 0.28932 1.1301 0.80194 1.1301 0.80194 1.2457-1.838 4.3777-7.8147 4.3777-7.8147 0.02085-0.01204 2.5078-4.9636 4.2107-10.087z" style="fill-rule:evenodd;fill:url(#linearGradient23);stroke-width:.77765"/>
<ellipse cx="24.76" cy="23.251" rx="3.3254" ry="3.3547" style="stroke-width:.576;stroke:url(#linearGradient25)"/>
<path d="m17.461 22.517 1.4375 0.93359 0.46693-1.1866-1.1442-0.79341z" style="fill:url(#linearGradient17);stroke-width:.576"/>
<path class="ColorScheme-Highlight" d="m14.405 26.894s3.6535 0.1651 4.9861 0.36552c1.3325 0.20042 1.5997 0.67205 3.0075 0.68962 1.4078 0.01756 1.8503-0.05469 2.3819 0.1043 0.53164 0.15899 0.75998 0.38503 0.75998 0.38503s-0.2208-0.19994-0.84009-0.3261-2.0236-0.04392-2.8875-0.09418c-0.86388-0.05026-1.3995-0.38171-2.54-0.57698s-3.2555-0.17059-4.0551-0.35221c-0.79961-0.18162-0.8129-0.195-0.8129-0.195z" fill="currentColor"/>
<path d="m3 2v28h26l1-1s-12 0.22222-16.415-2.1226c-5.2321-2.7788-7.585-24.877-7.585-24.877z" style="fill:url(#linearGradient3403);filter:url(#filter20720);mix-blend-mode:normal;stroke-linejoin:round;stroke-width:.576;stroke:url(#linearGradient20558)"/>
<path d="m5 1c-4 0-4 4-4 4v21c0 5 4 5 4 5h22s4 0 4-4v-22s0-4-4-4zm0 2h22c2 0 2 2 2 2v22c0 2-2 2-2 2h-22s-2 0-2-3v-21s0-2 2-2z" style="fill:url(#linearGradient8);stroke-width:.226"/>
</svg>
