<?xml version="1.0" encoding="UTF-8" standalone="no"?>
<svg
  width="32"
  height="32"
  version="1.1"
  viewBox="0 0 32 32"
  id="svg22"
  xmlns:xlink="http://www.w3.org/1999/xlink"
  xmlns="http://www.w3.org/2000/svg"
  xmlns:svg="http://www.w3.org/2000/svg">
 <style
   type="text/css"
   id="current-color-scheme">
  .ColorScheme-Highlight {
        color:#3daee9;
      }
      </style>
 <defs
   id="defs12">
  <linearGradient
    id="linearGradient7">
   <stop
     style="stop-color:#141618;stop-opacity:1;"
     offset="0"
     id="stop7" />
   <stop
     style="stop-color:#686868;stop-opacity:1;"
     offset="0.53189832"
     id="stop9" />
   <stop
     style="stop-color:#31363b;stop-opacity:1;"
     offset="1"
     id="stop8" />
  </linearGradient>
  <linearGradient
    xlink:href="#linearGradient3487"
    id="linearGradient3403"
    gradientUnits="userSpaceOnUse"
    x1="6.9491749"
    y1="4.5549412"
    x2="11.215498"
    y2="59.052471" />
  <linearGradient
    id="linearGradient3487">
   <stop
     style="stop-color:#32373c;stop-opacity:1"
     offset="0"
     id="stop3481" />
   <stop
     id="stop3483"
     offset="0.36804965"
     style="stop-color:#1a1a1a;stop-opacity:1" />
   <stop
     style="stop-color:#31363b;stop-opacity:1"
     offset="1"
     id="stop3485" />
  </linearGradient>
  <linearGradient
    xlink:href="#linearGradient20604"
    id="linearGradient20558"
    gradientUnits="userSpaceOnUse"
    x1="25.802212"
    y1="20.373846"
    x2="25.111048"
    y2="58.912758" />
  <linearGradient
    id="linearGradient20604">
   <stop
     id="stop20598"
     offset="0"
     style="stop-color:#3d3d3d;stop-opacity:1" />
   <stop
     style="stop-color:#000000;stop-opacity:1"
     offset="0.61772454"
     id="stop20600" />
   <stop
     id="stop20602"
     offset="1"
     style="stop-color:#3d3d3d;stop-opacity:1" />
  </linearGradient>
  <filter
    style="color-interpolation-filters:sRGB"
    id="filter20720"
    x="-0.017154225"
    y="-0.016541574"
    width="1.0343069"
    height="1.0330831">
   <feGaussianBlur
     stdDeviation="0.14745661"
     id="feGaussianBlur20722" />
  </filter>
  <linearGradient
    xlink:href="#linearGradient7"
    id="linearGradient8"
    x1="17"
    y1="30"
    x2="17"
    y2="2"
    gradientUnits="userSpaceOnUse" />
  <linearGradient
    xlink:href="#linearGradient4273"
    id="linearGradient3085"
    y1="543.79797"
    x1="434.57144"
    y2="503.798"
    gradientUnits="userSpaceOnUse"
    x2="384.57144"
    gradientTransform="matrix(0.66666621,0,0,0.70000019,-256.38078,-350.65872)" />
  <linearGradient
    id="linearGradient4273">
   <stop
     style="stop-color:#343b40"
     id="stop4275" />
   <stop
     offset="1"
     style="stop-color:#555e63"
     id="stop4277" />
  </linearGradient>
  <linearGradient
    xlink:href="#linearGradient4152-0"
    id="linearGradient3087"
    y1="43.999973"
    y2="4.1917577"
    gradientUnits="userSpaceOnUse"
    x2="-1.9607389"
    gradientTransform="matrix(0.66666621,0,0,0.69999959,0,-0.8)" />
  <linearGradient
    id="linearGradient4152-0">
   <stop
     style="stop-color:#bd8d48"
     id="stop4154-0" />
   <stop
     offset="1"
     style="stop-color:#e8b971"
     id="stop4156-8" />
  </linearGradient>
  <linearGradient
    xlink:href="#linearGradient4239"
    id="linearGradient4247"
    x1="651.11835"
    y1="91.058014"
    x2="658.9588"
    y2="91.051048"
    gradientUnits="userSpaceOnUse"
    gradientTransform="translate(-640.89992,-92.791144)" />
  <linearGradient
    id="linearGradient4239">
   <stop
     style="stop-color:#000000;stop-opacity:1;"
     offset="0"
     id="stop4241" />
   <stop
     style="stop-color:#000000;stop-opacity:0;"
     offset="1"
     id="stop4243" />
  </linearGradient>
  <linearGradient
    xlink:href="#linearGradient4239"
    id="linearGradient4245"
    x1="19.461546"
    y1="23.999929"
    x2="24.470917"
    y2="29.392141"
    gradientUnits="userSpaceOnUse"
    gradientTransform="translate(-3,-2.99993)" />
  <linearGradient
    xlink:href="#linearGradient4239"
    id="linearGradient4249"
    x1="24.808319"
    y1="13.474539"
    x2="30.336611"
    y2="18.488667"
    gradientUnits="userSpaceOnUse"
    gradientTransform="translate(-3,-2.99993)" />
 </defs>
 <rect
   width="25.341169"
   x="4.0612292"
   y="2.0000346"
   height="26.090137"
   style="display:inline;fill:url(#linearGradient3085);stroke-width:0.666666"
   id="rect4567"
   rx="0"
   ry="0" />
 <path
   id="rect4778"
   style="display:inline;fill:url(#linearGradient3087);stroke-width:0.666666"
   d="M 4.0612294,4 H 28.287109 v 23.914062 l -24.2258796,0.008 V 30.008 L 28.892071,30.0004 30.287109,28.412085 V 3.4003906 L 28.953125,2 H 4.0612294 Z" />
 <path
   id="rect4553"
   style="color:#000000;display:inline;fill:#aa7f41;fill-opacity:0.498039;stroke-width:0.666666"
   d="M 4.0605469,4 V 4.9550781 H 27.378906 V 27 H 4.0605469 v 0.914062 H 28.287109 V 4 Z" />
 <rect
   width="3.9999599"
   x="19.000011"
   y="26.000034"
   height="0.99998999"
   class="ColorScheme-Highlight"
   fill="currentColor"
   id="rect4568"
   style="display:inline" />
 <rect
   width="3.9999881"
   x="23.999981"
   y="26.000034"
   height="1.00001"
   style="color:#000000;display:inline;fill:#d6d6d6;stroke-width:0.666666"
   id="rect4570" />
 <ellipse
   style="color:#000000;display:inline;overflow:visible;visibility:visible;fill:none;stroke:#d6d6d6;stroke-width:1;stroke-miterlimit:4;stroke-dasharray:none;stroke-opacity:1;marker:none;enable-background:accumulate"
   id="path3011-2"
   transform="rotate(-90)"
   cx="-15.335217"
   cy="17.17417"
   rx="8.5000391"
   ry="3.5000391" />
 <ellipse
   style="color:#000000;display:inline;overflow:visible;visibility:visible;fill:none;stroke:#d6d6d6;stroke-width:1.00347;stroke-miterlimit:4;stroke-dasharray:none;stroke-opacity:1;marker:none;enable-background:accumulate"
   id="path3011-2-8"
   transform="matrix(-0.74741636,-0.66435592,-0.74741636,0.66435592,0,0)"
   cx="-22.96969"
   cy="-0.39143178"
   rx="10.365829"
   ry="4.5713162" />
 <ellipse
   ry="3.4997938"
   rx="9.499794"
   cy="15.335217"
   cx="17.17417"
   id="ellipse4193"
   style="color:#000000;display:inline;overflow:visible;visibility:visible;fill:none;stroke:#d6d6d6;stroke-width:1.00041;stroke-miterlimit:4;stroke-dasharray:none;stroke-opacity:1;marker:none;enable-background:accumulate" />
 <rect
   style="display:inline;opacity:0.2;fill:url(#linearGradient4247);fill-opacity:1;stroke:none;stroke-width:1;stroke-linecap:round;stroke-linejoin:round;stroke-miterlimit:4;stroke-dasharray:none;stroke-opacity:1"
   id="rect4212"
   width="16.379469"
   height="3.6515474"
   x="12.284952"
   y="-3.2713974"
   transform="rotate(45)" />
 <path
   style="display:inline;opacity:0.2;fill:url(#linearGradient4245);fill-opacity:1;stroke:none;stroke-width:1;stroke-linecap:round;stroke-linejoin:round;stroke-miterlimit:4;stroke-dasharray:none;stroke-opacity:1"
   d="m 19.316385,21.452186 -2.816406,2.816406 4.728516,4.728516 h 5.630859 z"
   id="rect4214" />
 <path
   style="display:inline;opacity:0.2;fill:url(#linearGradient4249);fill-opacity:1;stroke:none;stroke-width:1;stroke-linecap:round;stroke-linejoin:round;stroke-miterlimit:4;stroke-dasharray:none;stroke-opacity:1"
   d="M 24.622772,10.474609 21.808319,13.289062 30,22 v -5.630859 z"
   id="rect4216" />
 <path
   id="path4208"
   d="M 10,6 C 8.89536,6 8,6.89536 8,8 c 0,1.10464 0.89536,2 2,2 1.10464,0 2,-0.89536 2,-2 0,-1.10464 -0.89536,-2 -2,-2 z"
   style="color:#000000;display:inline;overflow:visible;visibility:visible;fill:#54a3d8;fill-opacity:1;stroke:none;stroke-width:1;marker:none;enable-background:accumulate" />
 <path
   style="color:#000000;display:inline;overflow:visible;visibility:visible;fill:#e05e4c;fill-opacity:1;stroke:none;stroke-width:1;marker:none;enable-background:accumulate"
   d="m 23.345428,10 c -1.10464,0 -2,0.89536 -2,2 0,1.10464 0.89536,2 2,2 1.10464,0 2,-0.89536 2,-2 0,-1.10464 -0.89536,-2 -2,-2 z"
   id="path4210" />
 <path
   style="color:#000000;display:inline;overflow:visible;visibility:visible;fill:#ffa92d;fill-opacity:1;stroke:none;stroke-width:1;marker:none;enable-background:accumulate"
   d="m 18,21 c -1.10464,0 -2,0.89536 -2,2 0,1.10464 0.89536,2 2,2 1.10464,0 2,-0.89536 2,-2 0,-1.10464 -0.89536,-2 -2,-2 z"
   id="path4204" />
 <path
   style="display:inline;mix-blend-mode:normal;fill:url(#linearGradient3403);fill-opacity:1;stroke:url(#linearGradient20558);stroke-width:1.16242;stroke-linecap:butt;stroke-linejoin:round;stroke-miterlimit:4;stroke-dasharray:none;stroke-opacity:1;filter:url(#filter20720)"
   d="M 5.4025265,3.5689324 V 60.09958 H 57.895271 l 2.018951,-2.018952 c 0,0 -24.171977,0.621351 -33.141048,-4.285423 C 16.257548,48.042344 11.459382,3.5689324 11.459382,3.5689324 Z"
   id="path1686"
   transform="matrix(0.49530655,0,0,0.49530655,0.32409325,0.23228439)" />
 <path
   id="rect5"
   style="display:inline;opacity:1;fill:url(#linearGradient8);stroke-width:0.226"
   d="M 5,1 C 1,1 1,5 1,5 v 21 c 0,5 4,5 4,5 h 22 c 0,0 4,0 4,-4 V 5 c 0,0 0,-4 -4,-4 z m 0,2 h 22 c 2,0 2,2 2,2 v 22 c 0,2 -2,2 -2,2 H 5 C 5,29 3,29 3,26 V 5 C 3,5 3,3 5,3 Z" />
</svg>
