<?xml version="1.0" encoding="UTF-8" standalone="no"?>
<svg
  width="32"
  height="32"
  version="1.1"
  viewBox="0 0 32 32"
  id="svg22"
  xmlns:xlink="http://www.w3.org/1999/xlink"
  xmlns="http://www.w3.org/2000/svg"
  xmlns:svg="http://www.w3.org/2000/svg">
  <style type="text/css" id="current-color-scheme">
  .ColorScheme-Highlight {
        color:#3daee9;
      }
      </style>
 <defs
   id="defs12">
  <linearGradient
    id="linearGradient7">
   <stop
     style="stop-color:#141618;stop-opacity:1;"
     offset="0"
     id="stop7" />
   <stop
     style="stop-color:#686868;stop-opacity:1;"
     offset="0.53189832"
     id="stop9" />
   <stop
     style="stop-color:#31363b;stop-opacity:1;"
     offset="1"
     id="stop8" />
  </linearGradient>
  <linearGradient
    xlink:href="#linearGradient3487"
    id="linearGradient3403"
    gradientUnits="userSpaceOnUse"
    x1="6.9491749"
    y1="4.5549412"
    x2="11.215498"
    y2="59.052471" />
  <linearGradient
    id="linearGradient3487">
   <stop
     style="stop-color:#32373c;stop-opacity:1"
     offset="0"
     id="stop3481" />
   <stop
     id="stop3483"
     offset="0.36804965"
     style="stop-color:#1a1a1a;stop-opacity:1" />
   <stop
     style="stop-color:#31363b;stop-opacity:1"
     offset="1"
     id="stop3485" />
  </linearGradient>
  <linearGradient
    xlink:href="#linearGradient20604"
    id="linearGradient20558"
    gradientUnits="userSpaceOnUse"
    x1="25.802212"
    y1="20.373846"
    x2="25.111048"
    y2="58.912758" />
  <linearGradient
    id="linearGradient20604">
   <stop
     id="stop20598"
     offset="0"
     style="stop-color:#3d3d3d;stop-opacity:1" />
   <stop
     style="stop-color:#000000;stop-opacity:1"
     offset="0.61772454"
     id="stop20600" />
   <stop
     id="stop20602"
     offset="1"
     style="stop-color:#3d3d3d;stop-opacity:1" />
  </linearGradient>
  <filter
    style="color-interpolation-filters:sRGB"
    id="filter20720"
    x="-0.017154225"
    y="-0.016541574"
    width="1.0343069"
    height="1.0330831">
   <feGaussianBlur
     stdDeviation="0.14745661"
     id="feGaussianBlur20722" />
  </filter>
  <linearGradient
    xlink:href="#linearGradient7"
    id="linearGradient8"
    x1="17"
    y1="30"
    x2="17"
    y2="2"
    gradientUnits="userSpaceOnUse" />
  <linearGradient
    xlink:href="#linearGradient4159"
    id="linearGradient4251"
    y1="543.79797"
    y2="523.79797"
    x2="0"
    gradientUnits="userSpaceOnUse"
    gradientTransform="translate(-384.57141,-515.79797)" />
  <linearGradient
    id="linearGradient4159">
   <stop
     style="stop-color:#2a2c2f"
     id="stop4161" />
   <stop
     offset="1"
     style="stop-color:#424649"
     id="stop4163" />
  </linearGradient>
  <linearGradient
    xlink:href="#linearGradient4400"
    id="linearGradient4244"
    y1="521.79803"
    x1="397.57144"
    y2="537.79797"
    x2="413.57141"
    gradientUnits="userSpaceOnUse"
    gradientTransform="translate(-384.57141,-512.79797)" />
  <linearGradient
    id="linearGradient4400">
   <stop
     style="stop-color:#020303"
     id="stop4402" />
   <stop
     offset="1"
     style="stop-color:#424649;stop-opacity:0"
     id="stop4404" />
  </linearGradient>
  <linearGradient
    xlink:href="#linearGradient4430"
    id="linearGradient4329"
    y1="28"
    x1="15"
    y2="8"
    x2="14"
    gradientUnits="userSpaceOnUse"
    gradientTransform="translate(2e-5,3e-5)" />
  <linearGradient
    id="linearGradient4430">
   <stop
     style="stop-color:#404245"
     id="stop4432" />
   <stop
     offset="1"
     style="stop-color:#585d60"
     id="stop4434" />
  </linearGradient>
  <linearGradient
    xlink:href="#linearGradient4430"
    id="linearGradient4583"
    y1="26"
    y2="6"
    x2="0"
    gradientUnits="userSpaceOnUse"
    gradientTransform="translate(2e-5,2.00003)" />
  <linearGradient
    xlink:href="#linearGradient4303"
    id="linearGradient4556"
    y1="25"
    y2="6.00003"
    x2="0"
    gradientUnits="userSpaceOnUse"
    gradientTransform="translate(2e-5,3.00003)" />
  <linearGradient
    id="linearGradient4303">
   <stop
     style="stop-color:#989a9b"
     id="stop4305" />
   <stop
     offset="1"
     style="stop-color:#f6f6f7"
     id="stop4307" />
  </linearGradient>
  <linearGradient
    xlink:href="#linearGradient4159"
    id="linearGradient4191"
    y1="525.79797"
    y2="527.79797"
    x2="0"
    gradientUnits="userSpaceOnUse"
    gradientTransform="translate(-384.57142,-512.79797)" />
 </defs>
 <rect
   width="23"
   x="6"
   y="2"
   height="4"
   style="fill:#566069"
   id="rect4647-8" />
 <rect
   width="24.000023"
   x="6"
   y="6.0000038"
   height="1"
   class="ColorScheme-Highlight" fill="currentColor"
   id="rect4649-8" />
 <rect
   width="23.5"
   x="6"
   y="7"
   height="22.5"
   style="fill:url(#linearGradient4251)"
   id="rect4653-5"
   rx="6.1580402e-05"
   ry="6.1580402e-05" />
 <rect
   width="2"
   x="25"
   y="3.4638097"
   rx="1"
   height="2"
   style="fill:#eff0f1"
   id="rect4661-1" />
 <path
   style="opacity:0.2;fill:url(#linearGradient4244);fill-rule:evenodd"
   id="path4236"
   d="M 20,9.00003 15.556641,27.755889 17.800781,29 30,29 30,20 Z" />
 <path
   style="fill:url(#linearGradient4329);stroke-width:0.1;stroke-linecap:square"
   id="rect4315"
   d="m 8,7 2e-5,4.00003 L 7,11 v 1 l 1.00002,3e-5 v 12 l 1,1 h 14 v 3 h 1 v -3 L 30,25 v -1 l -5.99998,3e-5 v -12 L 30,12 v -1 l -5.99998,3e-5 L 24,7 h -1 l 2e-5,4.00003 h -14 L 9,7 Z m 1.00002,5.00003 h 14 v 12 h -14 z" />
 <path
   style="fill:url(#linearGradient4583);stroke-width:0.1;stroke-linecap:square"
   id="path4560"
   d="M 10.896484,7 C 9.093507,11.020931 5.3282808,14.90885 1.00002,15.736358 v 1.027344 C 5.890192,15.899451 10.111207,11.592731 12,7 Z M 30,18.972656 C 25.112033,19.838748 21.784191,24.408824 19.896485,29 H 21 c 1.801828,-4.01944 4.673937,-8.170744 9,-9 z" />
 <path
   style="fill:url(#linearGradient4556);stroke-width:0.1;stroke-linecap:square"
   id="rect4530"
   d="m 18,9.00003 v 2.17383 c -1.197859,0.423507 -1.999044,1.555649 -2,2.82617 0.0012,1.081103 0.583903,2.077968 1.52539,2.60937 l -1.44336,5.39063 H 15 v 1 h 0.81445 l -0.80859,3.01562 0.57227,1.71875 1.26953,-4.73437 h 4.30273 l 1.26758,4.73437 0.57226,-1.71875 -0.80859,-3.01562 H 23 v -1 H 21.91406 L 20.4707,16.61136 C 21.414305,16.080623 21.998757,15.082652 22,14.00003 21.998219,12.730225 21.197185,11.599077 20,11.17581 V 9.00003 Z m 0.46875,7.94922 c 0.175223,0.03268 0.353009,0.04968 0.53125,0.0508 0.177473,5.4e-5 0.354601,-0.01564 0.5293,-0.0469 l 1.35156,5.04688 h -3.76563 z" />
 <circle
   cx="19"
   cy="13.99976"
   style="color:#000000;color-interpolation:sRGB;color-interpolation-filters:linearRGB;fill:url(#linearGradient4191);color-rendering:auto;image-rendering:auto;shape-rendering:auto;text-rendering:auto"
   r="1"
   id="path4234" />
 <path
   style="display:inline;mix-blend-mode:normal;fill:url(#linearGradient3403);fill-opacity:1;stroke:url(#linearGradient20558);stroke-width:1.16242;stroke-linecap:butt;stroke-linejoin:round;stroke-miterlimit:4;stroke-dasharray:none;stroke-opacity:1;filter:url(#filter20720)"
   d="M 5.4025265,3.5689324 V 60.09958 H 57.895271 l 2.018951,-2.018952 c 0,0 -24.171977,0.621351 -33.141048,-4.285423 C 16.257548,48.042344 11.459382,3.5689324 11.459382,3.5689324 Z"
   id="path1686"
   transform="matrix(0.49530655,0,0,0.49530655,0.32409325,0.23228439)" />
 <path
   id="rect5"
   style="display:inline;opacity:1;fill:url(#linearGradient8);stroke-width:0.226"
   d="M 5,1 C 1,1 1,5 1,5 v 21 c 0,5 4,5 4,5 h 22 c 0,0 4,0 4,-4 V 5 c 0,0 0,-4 -4,-4 z m 0,2 h 22 c 2,0 2,2 2,2 v 22 c 0,2 -2,2 -2,2 H 5 C 5,29 3,29 3,26 V 5 C 3,5 3,3 5,3 Z" />
</svg>
