<?xml version="1.0" encoding="UTF-8" standalone="no"?>
<svg
  width="32"
  height="32"
  version="1.1"
  viewBox="0 0 32 32"
  id="svg22"
  xmlns:xlink="http://www.w3.org/1999/xlink"
  xmlns="http://www.w3.org/2000/svg"
  xmlns:svg="http://www.w3.org/2000/svg">
   <style
   type="text/css"
   id="current-color-scheme">
  .ColorScheme-Highlight {
        color:#3daee9;
      }
      </style>
 <defs
   id="defs12">
  <linearGradient
    id="linearGradient7">
   <stop
     style="stop-color:#141618;stop-opacity:1;"
     offset="0"
     id="stop7" />
   <stop
     style="stop-color:#686868;stop-opacity:1;"
     offset="0.53189832"
     id="stop9" />
   <stop
     style="stop-color:#31363b;stop-opacity:1;"
     offset="1"
     id="stop8" />
  </linearGradient>
  <linearGradient
    xlink:href="#linearGradient3487"
    id="linearGradient3403"
    gradientUnits="userSpaceOnUse"
    x1="6.9491749"
    y1="4.5549412"
    x2="11.215498"
    y2="59.052471" />
  <linearGradient
    id="linearGradient3487">
   <stop
     style="stop-color:#32373c;stop-opacity:1"
     offset="0"
     id="stop3481" />
   <stop
     id="stop3483"
     offset="0.36804965"
     style="stop-color:#1a1a1a;stop-opacity:1" />
   <stop
     style="stop-color:#31363b;stop-opacity:1"
     offset="1"
     id="stop3485" />
  </linearGradient>
  <linearGradient
    xlink:href="#linearGradient20604"
    id="linearGradient20558"
    gradientUnits="userSpaceOnUse"
    x1="25.802212"
    y1="20.373846"
    x2="25.111048"
    y2="58.912758" />
  <linearGradient
    id="linearGradient20604">
   <stop
     id="stop20598"
     offset="0"
     style="stop-color:#3d3d3d;stop-opacity:1" />
   <stop
     style="stop-color:#000000;stop-opacity:1"
     offset="0.61772454"
     id="stop20600" />
   <stop
     id="stop20602"
     offset="1"
     style="stop-color:#3d3d3d;stop-opacity:1" />
  </linearGradient>
  <filter
    style="color-interpolation-filters:sRGB"
    id="filter20720"
    x="-0.017154225"
    y="-0.016541574"
    width="1.0343069"
    height="1.0330831">
   <feGaussianBlur
     stdDeviation="0.14745661"
     id="feGaussianBlur20722" />
  </filter>
  <linearGradient
    xlink:href="#linearGradient7"
    id="linearGradient8"
    x1="17"
    y1="30"
    x2="17"
    y2="2"
    gradientUnits="userSpaceOnUse" />
  <linearGradient
    xlink:href="#linearGradient4273"
    id="linearGradient3085"
    y1="543.79797"
    x1="434.57144"
    y2="503.798"
    gradientUnits="userSpaceOnUse"
    x2="384.57144"
    gradientTransform="matrix(0.66666621,0,0,0.70000019,-256.38078,-350.65872)" />
  <linearGradient
    id="linearGradient4273">
   <stop
     style="stop-color:#343b40"
     id="stop4275" />
   <stop
     offset="1"
     style="stop-color:#555e63"
     id="stop4277" />
  </linearGradient>
  <linearGradient
    xlink:href="#linearGradient4152-0"
    id="linearGradient3087"
    y1="43.999973"
    y2="4.1917577"
    gradientUnits="userSpaceOnUse"
    x2="-1.9607389"
    gradientTransform="matrix(0.66666621,0,0,0.69999959,0,-0.8)" />
  <linearGradient
    id="linearGradient4152-0">
   <stop
     style="stop-color:#bd8d48"
     id="stop4154-0" />
   <stop
     offset="1"
     style="stop-color:#e8b971"
     id="stop4156-8" />
  </linearGradient>
 </defs>
 <rect
   width="25.341169"
   x="4.0612292"
   y="2.0000346"
   height="26.090137"
   style="display:inline;fill:url(#linearGradient3085);stroke-width:0.666666"
   id="rect4567"
   rx="0"
   ry="0" />
 <path
   id="rect4778"
   style="display:inline;fill:url(#linearGradient3087);stroke-width:0.666666"
   d="M 4.0612294,4 H 28.287109 v 23.914062 l -24.2258796,0.008 V 30.008 l 24.8308416,-0.0076 1.395038,-1.588315 V 3.4003906 L 28.953125,2 H 4.0612294 Z" />
 <path
   id="rect4553"
   style="color:#000000;fill:#aa7f41;fill-opacity:0.498039;stroke-width:0.666666"
   d="M 4.0605469 4 L 4.0605469 4.9550781 L 27.378906 4.9550781 L 27.378906 27 L 4.0605469 27 L 4.0605469 27.914062 L 28.287109 27.914062 L 28.287109 4 L 4.0605469 4 z " />
 <rect
   width="3.9999599"
   x="19.000011"
   y="26.000034"
   height="0.99998999"
   class="ColorScheme-Highlight"
   fill="currentColor"
   id="rect4568" />
 <rect
   width="3.9999881"
   x="23.999981"
   y="26.000034"
   height="1.00001"
   style="color:#000000;fill:#d6d6d6;stroke-width:0.666666"
   id="rect4570" />
 <path
   style="display:inline;mix-blend-mode:normal;fill:url(#linearGradient3403);fill-opacity:1;stroke:url(#linearGradient20558);stroke-width:1.16242;stroke-linecap:butt;stroke-linejoin:round;stroke-miterlimit:4;stroke-dasharray:none;stroke-opacity:1;filter:url(#filter20720)"
   d="M 5.4025265,3.5689324 V 60.09958 H 57.895271 l 2.018951,-2.018952 c 0,0 -24.171977,0.621351 -33.141048,-4.285423 C 16.257548,48.042344 11.459382,3.5689324 11.459382,3.5689324 Z"
   id="path1686"
   transform="matrix(0.49530655,0,0,0.49530655,0.32409325,0.23228439)" />
 <path
   id="rect5"
   style="display:inline;opacity:1;fill:url(#linearGradient8);stroke-width:0.226"
   d="M 5,1 C 1,1 1,5 1,5 v 21 c 0,5 4,5 4,5 h 22 c 0,0 4,0 4,-4 V 5 c 0,0 0,-4 -4,-4 z m 0,2 h 22 c 2,0 2,2 2,2 v 22 c 0,2 -2,2 -2,2 H 5 C 5,29 3,29 3,26 V 5 C 3,5 3,3 5,3 Z" />
</svg>
