<?xml version="1.0" encoding="UTF-8" standalone="no"?>
<!-- Created with Inkscape (http://www.inkscape.org/) -->

<svg
   width="32"
   height="32"
   version="1.1"
   viewBox="0 0 32 32"
   id="svg22"
   sodipodi:docname="applications-games.svg"
   inkscape:version="1.1.2 (0a00cf5339, 2022-02-04)"
   xmlns:inkscape="http://www.inkscape.org/namespaces/inkscape"
   xmlns:sodipodi="http://sodipodi.sourceforge.net/DTD/sodipodi-0.dtd"
   xmlns:xlink="http://www.w3.org/1999/xlink"
   xmlns="http://www.w3.org/2000/svg"
   xmlns:svg="http://www.w3.org/2000/svg">
  <sodipodi:namedview
     id="namedview24"
     pagecolor="#ffffff"
     bordercolor="#666666"
     borderopacity="1.0"
     inkscape:showpageshadow="2"
     inkscape:pageopacity="0.0"
     inkscape:pagecheckerboard="0"
     inkscape:deskcolor="#d1d1d1"
     showgrid="false"
     inkscape:zoom="22.31629"
     inkscape:cx="7.8418052"
     inkscape:cy="23.211744"
     inkscape:window-width="3440"
     inkscape:window-height="1356"
     inkscape:window-x="0"
     inkscape:window-y="0"
     inkscape:window-maximized="1"
     inkscape:current-layer="svg22"
     inkscape:pageshadow="2" />
  <defs
     id="defs12">
    <linearGradient
       inkscape:collect="always"
       id="linearGradient917">
      <stop
         style="stop-color:#000000;stop-opacity:0.99607843"
         offset="0"
         id="stop913" />
      <stop
         style="stop-color:#353a3f;stop-opacity:0.99607843"
         offset="1"
         id="stop915" />
    </linearGradient>
    <linearGradient
       id="linearGradient1005-3-3"
       x1="5.2535"
       x2="9.3823996"
       y1="15.383"
       y2="2.9421"
       gradientTransform="matrix(0.99999,0,0,0.99999,1.632,-0.61743)"
       gradientUnits="userSpaceOnUse">
      <stop
         stop-color="#fa8200"
         offset="0"
         id="stop2" />
      <stop
         stop-color="#ff9600"
         offset=".36953"
         id="stop4" />
      <stop
         stop-color="#ffb400"
         offset="1"
         id="stop6" />
    </linearGradient>
    <filter
       id="filter4014"
       x="-0.062499933"
       y="-0.057692993"
       width="1.1249999"
       height="1.115386"
       color-interpolation-filters="sRGB">
      <feGaussianBlur
         stdDeviation="1.093751"
         id="feGaussianBlur9" />
    </filter>
    <linearGradient
       inkscape:collect="always"
       xlink:href="#linearGradient3487"
       id="linearGradient3403"
       gradientUnits="userSpaceOnUse"
       x1="6.9491749"
       y1="4.5549412"
       x2="11.215498"
       y2="59.052471" />
    <linearGradient
       id="linearGradient3487">
      <stop
         style="stop-color:#32373c;stop-opacity:1"
         offset="0"
         id="stop3481" />
      <stop
         id="stop3483"
         offset="0.36804965"
         style="stop-color:#1a1a1a;stop-opacity:1" />
      <stop
         style="stop-color:#31363b;stop-opacity:1"
         offset="1"
         id="stop3485" />
    </linearGradient>
    <linearGradient
       inkscape:collect="always"
       xlink:href="#linearGradient20604"
       id="linearGradient20558"
       gradientUnits="userSpaceOnUse"
       x1="25.802212"
       y1="20.373846"
       x2="25.111048"
       y2="58.912758" />
    <linearGradient
       id="linearGradient20604">
      <stop
         id="stop20598"
         offset="0"
         style="stop-color:#3d3d3d;stop-opacity:1" />
      <stop
         style="stop-color:#000000;stop-opacity:1"
         offset="0.61772454"
         id="stop20600" />
      <stop
         id="stop20602"
         offset="1"
         style="stop-color:#3d3d3d;stop-opacity:1" />
    </linearGradient>
    <filter
       inkscape:collect="always"
       style="color-interpolation-filters:sRGB"
       id="filter20720"
       x="-0.017024755"
       y="-0.016457183"
       width="1.0340491"
       height="1.0329144">
      <feGaussianBlur
         inkscape:collect="always"
         stdDeviation="0.14745661"
         id="feGaussianBlur20722" />
    </filter>
    <linearGradient
       gradientTransform="translate(0.36067797,-0.13016949)"
       xlink:href="#linearGradient4555"
       id="linearGradient4557"
       x1="43.499737"
       y1="64.011795"
       x2="44.141731"
       y2="0.30621234"
       gradientUnits="userSpaceOnUse" />
    <linearGradient
       id="linearGradient4555">
      <stop
         style="stop-color:#141618;stop-opacity:1"
         offset="0"
         id="stop4551" />
      <stop
         id="stop4559"
         offset="0.51820582"
         style="stop-color:#686868;stop-opacity:1" />
      <stop
         style="stop-color:#31363b;stop-opacity:1"
         offset="1"
         id="stop4553" />
    </linearGradient>
    <filter
       style="color-interpolation-filters:sRGB"
       id="filter4601"
       x="-0.030244762"
       width="1.0604895"
       y="-0.030100647"
       height="1.0602013">
      <feGaussianBlur
         stdDeviation="0.014790289"
         id="feGaussianBlur4603" />
    </filter>
    <linearGradient
       inkscape:collect="always"
       xlink:href="#linearGradient917"
       id="linearGradient919"
       x1="7.400631"
       y1="41.743092"
       x2="33.063145"
       y2="7.1074457"
       gradientUnits="userSpaceOnUse"
       gradientTransform="matrix(0.65875771,0,0,0.65875771,0.25841203,0.21589031)" />
    <linearGradient
       id="d"
       gradientUnits="userSpaceOnUse"
       x1="16"
       x2="16"
       y1="26"
       y2="6">
      <stop
         offset="0"
         stop-color="#535a61"
         id="stop39" />
      <stop
         offset=".25"
         stop-color="#6f7881"
         id="stop41" />
      <stop
         offset="1"
         stop-color="#adb6bb"
         id="stop43" />
    </linearGradient>
    <linearGradient
       id="e"
       gradientUnits="userSpaceOnUse"
       x1="6"
       x2="6"
       xlink:href="#b"
       y1="15"
       y2="9" />
    <linearGradient
       id="b">
      <stop
         offset="0"
         stop-color="#6f7881"
         id="stop29" />
      <stop
         offset="1"
         stop-color="#b0b4b8"
         id="stop31" />
    </linearGradient>
    <linearGradient
       id="f"
       gradientUnits="userSpaceOnUse"
       x1="8"
       x2="8"
       xlink:href="#c"
       y1="15"
       y2="9" />
    <linearGradient
       id="c">
      <stop
         offset="0"
         stop-color="#171e25"
         id="stop34" />
      <stop
         offset="1"
         stop-color="#333c45"
         id="stop36" />
    </linearGradient>
    <linearGradient
       id="g"
       gradientTransform="rotate(-90,24,10)"
       gradientUnits="userSpaceOnUse"
       x1="22.9"
       x2="25.1"
       y1="10"
       y2="10">
      <stop
         offset="0"
         stop-color="#fdae23"
         id="stop2-9" />
      <stop
         offset="1"
         stop-color="#fdca73"
         id="stop4-1" />
    </linearGradient>
    <linearGradient
       id="h"
       gradientTransform="rotate(-90,26,12)"
       gradientUnits="userSpaceOnUse"
       x1="24.9"
       x2="27.1"
       y1="12"
       y2="12">
      <stop
         offset="0"
         stop-color="#da4453"
         id="stop7" />
      <stop
         offset="1"
         stop-color="#e47681"
         id="stop9" />
    </linearGradient>
    <linearGradient
       id="i"
       gradientTransform="rotate(-90,24,14)"
       gradientUnits="userSpaceOnUse"
       x1="22.9"
       x2="25.1"
       y1="14"
       y2="14">
      <stop
         offset="0"
         stop-color="#27ab5f"
         id="stop12" />
      <stop
         offset="1"
         stop-color="#4bd786"
         id="stop14" />
    </linearGradient>
    <linearGradient
       id="j"
       gradientTransform="rotate(-90,22,12)"
       gradientUnits="userSpaceOnUse"
       x1="20.9"
       x2="23.1"
       y1="12"
       y2="12">
      <stop
         offset="0"
         stop-color="#0c85dc"
         id="stop17" />
      <stop
         offset="1"
         stop-color="#43aaf5"
         id="stop19" />
    </linearGradient>
    <radialGradient
       id="k"
       cx="2"
       cy="20.834999"
       gradientTransform="matrix(1.998,0,2e-5,11.988,-1.996,-223.769)"
       gradientUnits="userSpaceOnUse"
       r="1.001"
       xlink:href="#a" />
    <linearGradient
       id="a">
      <stop
         offset="0"
         stop-color="#0f1419"
         id="stop22" />
      <stop
         offset="1"
         stop-color="#22282e"
         id="stop24" />
    </linearGradient>
    <linearGradient
       id="l"
       gradientUnits="userSpaceOnUse"
       x1="19"
       x2="19"
       xlink:href="#b"
       y1="22"
       y2="16" />
    <linearGradient
       id="m"
       gradientUnits="userSpaceOnUse"
       x1="19"
       x2="19"
       xlink:href="#c"
       y1="21"
       y2="17" />
    <radialGradient
       id="n"
       cx="3.0009999"
       cy="19.834"
       gradientTransform="matrix(-1.998,0,0,11.988,35.996,-211.768)"
       gradientUnits="userSpaceOnUse"
       r="1.001"
       xlink:href="#a" />
  </defs>
  <rect
     style="display:inline;fill:url(#linearGradient919);fill-opacity:1;fill-rule:evenodd;stroke:none;stroke-width:0.611209;stroke-linejoin:round;stroke-miterlimit:7.8"
     id="rect1192"
     width="27.723557"
     height="28.13693"
     x="2.3420036"
     y="2.2043438"
     ry="0"
     inkscape:label="arriere" />
  <g
     id="g910"
     transform="matrix(0.87235818,0,0,0.87793231,3.4938209,2.0369754)">
    <path
       d="M 7,6 C 4.239,6 2,9.358 2,13.5 V 14 l 1,1 V 25 L 2.979,25.482 A 2.5,2.5 0 0 0 6.268,25.268 L 10.535,21 h 10.93 l 4.267,4.268 a 2.5,2.5 0 0 0 3.29,0.212 L 29,25 V 15 l 1,-1 V 13.5 C 30,9.358 27.761,6 25,6 Z"
       fill="url(#d)"
       id="path50"
       style="fill:url(#d)" />
    <path
       d="m 28,12 a 4,4 0 0 1 -4,4 4,4 0 0 1 -4,-4 4,4 0 0 1 4,-4 4,4 0 0 1 4,4 z m -16,0 a 4,4 0 0 1 -4,4 4,4 0 0 1 -4,-4 4,4 0 0 1 4,-4 4,4 0 0 1 4,4 z"
       fill="#6f7881"
       id="path52" />
    <circle
       cx="8"
       cy="12"
       fill="url(#e)"
       r="3"
       id="circle54"
       style="fill:url(#e)" />
    <path
       d="M 8,9 A 3,3 0 0 0 7,9.174 V 11 H 5.176 A 3,3 0 0 0 5,12 3,3 0 0 0 5.174,13 H 7 v 1.824 A 3,3 0 0 0 8,15 3,3 0 0 0 9,14.826 V 13 h 1.824 A 3,3 0 0 0 11,12 3,3 0 0 0 10.826,11 H 9 V 9.176 A 3,3 0 0 0 8,9 Z"
       fill="url(#f)"
       id="path56"
       style="fill:url(#f)" />
    <path
       d="M 24,8.9 A 1.1,1.1 0 0 1 25.1,10 1.1,1.1 0 0 1 24,11.1 1.1,1.1 0 0 1 22.9,10 1.1,1.1 0 0 1 24,8.9 Z"
       fill="url(#g)"
       id="path58"
       style="fill:url(#g)" />
    <path
       d="M 26,10.9 A 1.1,1.1 0 0 1 27.1,12 1.1,1.1 0 0 1 26,13.1 1.1,1.1 0 0 1 24.9,12 1.1,1.1 0 0 1 26,10.9 Z"
       fill="url(#h)"
       id="path60"
       style="fill:url(#h)" />
    <path
       d="M 24,12.9 A 1.1,1.1 0 0 1 25.1,14 1.1,1.1 0 0 1 24,15.1 1.1,1.1 0 0 1 22.9,14 1.1,1.1 0 0 1 24,12.9 Z"
       fill="url(#i)"
       id="path62"
       style="fill:url(#i)" />
    <path
       d="M 22,10.9 A 1.1,1.1 0 0 1 23.1,12 1.1,1.1 0 0 1 22,13.1 1.1,1.1 0 0 1 20.9,12 1.1,1.1 0 0 1 22,10.9 Z"
       fill="url(#j)"
       id="path64"
       style="fill:url(#j)" />
    <path
       d="M 10.535,20 6.268,24.268 A 2.5,2.5 0 0 1 3,24.496 V 25 L 2.979,25.482 A 2.5,2.5 0 0 0 6.268,25.268 L 10.535,21 h 10.93 l 4.267,4.268 a 2.5,2.5 0 0 0 3.29,0.212 L 29,25 v -0.502 a 2.5,2.5 0 0 1 -3.268,-0.23 L 21.465,20 Z"
       fill="#292c2f"
       opacity="0.2"
       id="path66" />
    <path
       d="m 2,14 a 2,4 0 0 1 2,4 v 4 l -0.002,0.002 a 2,4 0 0 1 0,0.004 A 2,4 0 0 1 2.978,25.49 2.5,2.5 0 0 1 1.998,23.506 2.5,2.5 0 0 1 2,23.465 V 18 Z"
       fill="url(#k)"
       id="path68"
       style="fill:url(#k)" />
    <path
       d="m 23,19 a 3,3 0 0 1 -3,3 3,3 0 0 1 -3,-3 3,3 0 0 1 3,-3 3,3 0 0 1 3,3 z m -8,0 a 3,3 0 0 1 -3,3 3,3 0 0 1 -3,-3 3,3 0 0 1 3,-3 3,3 0 0 1 3,3 z"
       fill="url(#l)"
       id="path70"
       style="fill:url(#l)" />
    <path
       d="m 22,19 a 2,2 0 0 1 -2,2 2,2 0 0 1 -2,-2 2,2 0 0 1 2,-2 2,2 0 0 1 2,2 z m -8,0 a 2,2 0 0 1 -2,2 2,2 0 0 1 -2,-2 2,2 0 0 1 2,-2 2,2 0 0 1 2,2 z"
       fill="url(#m)"
       id="path72"
       style="fill:url(#m)" />
    <path
       d="m 30,14 a 2,4 0 0 0 -2,4 v 4 l 0.002,0.002 a 2,4 0 0 0 0,0.004 2,4 0 0 0 1.02,3.484 2.5,2.5 0 0 0 0.98,-1.984 A 2.5,2.5 0 0 0 30,23.465 V 18 Z"
       fill="url(#n)"
       id="path74"
       style="fill:url(#n)" />
  </g>
  <path
     style="display:inline;mix-blend-mode:normal;fill:url(#linearGradient3403);fill-opacity:1;stroke:url(#linearGradient20558);stroke-width:1.16242;stroke-linecap:butt;stroke-linejoin:round;stroke-miterlimit:4;stroke-dasharray:none;stroke-opacity:1;filter:url(#filter20720)"
     d="M 4.7043071,3.9814882 4.6913695,60.80196 H 58.59546 l 1.022155,-2.866369 c 0,0 -23.87537,0.766388 -32.844441,-4.140386 C 16.257548,48.042344 11.401114,4.0978197 11.401114,4.0978197 Z"
     id="path1686"
     sodipodi:nodetypes="ccccscc"
     transform="matrix(0.49530655,0,0,0.49530655,0.32409325,0.23228439)"
     inkscape:label="folder" />
  <rect
     style="display:inline;fill:none;fill-opacity:1;stroke:url(#linearGradient4557);stroke-width:3.71366;stroke-linejoin:round;stroke-miterlimit:7.8;stroke-dasharray:none;stroke-opacity:0.995146;filter:url(#filter4601)"
     id="rect4539"
     width="62.567089"
     height="62.866646"
     x="1.0323594"
     y="0.59551275"
     ry="6.2447233"
     rx="5.8029528"
     transform="matrix(0.46399463,0,0,0.4630489,1.1562887,1.2331482)"
     inkscape:label="contour" />
</svg>
