<?xml version="1.0" encoding="UTF-8" standalone="no"?>
<svg
   viewBox="0 0 24 24"
   width="24"
   height="24"
   version="1.1"
   id="svg2"
   xmlns="http://www.w3.org/2000/svg"
   xmlns:svg="http://www.w3.org/2000/svg">
  <defs
     id="defs3051">
    <style
       type="text/css"
       id="current-color-scheme">
      .ColorScheme-Text {
        color:#eff0f1;
      }
      </style>
  </defs>
  <path
     d="M 4.5,4 C 3.115,4 2,5.1893333 2,6.6666667 V 17.333333 C 2,18.810667 3.115,20 4.5,20 h 15 C 20.885,20 22,18.810667 22,17.333333 V 6.6666667 C 22,5.1893333 20.885,4 19.5,4 Z m 0,1.3333333 h 15 c 0.6111,0 1.0931,0.47208 1.203613,1.0885467 l -8.02975,6.820267 c -0.381988,0.324466 -0.965675,0.324466 -1.347625,0 L 3.2964875,6.42188 C 3.406995,5.8054133 3.889,5.3333333 4.5001,5.3333333 Z M 3.25,8.0650667 7.881375,12 3.25,15.934933 V 8.0652 Z m 17.5,0 V 15.9348 L 16.118625,11.999867 20.75,8.0649333 Z M 8.8725,12.843733 10.334875,14.08592 c 0.913587,0.776013 2.4165,0.776013 3.330125,0 l 1.462375,-1.242187 5.576125,4.7344 C 20.592987,18.1946 20.110987,18.66668 19.499887,18.66668 H 4.4998875 c -0.6111,0 -1.0931,-0.47208 -1.2036125,-1.088547 l 5.576125,-4.7344 z"
     id="path1"
     class="ColorScheme-Text"
     style="fill:currentColor;fill-opacity:1;stroke-width:1.29099" />
</svg>
