<?xml version="1.0" encoding="UTF-8" standalone="no"?>
<svg
   viewBox="0 0 24 24"
   width="24"
   height="24"
   version="1.1"
   id="svg1"
   xmlns="http://www.w3.org/2000/svg"
   xmlns:svg="http://www.w3.org/2000/svg">
  <defs
     id="defs3051">
    <style
       type="text/css"
       id="current-color-scheme">
      .ColorScheme-Text {
        color:#eff0f1
      }
      </style>
  </defs>
  <path
     class="ColorScheme-Text"
     d="m 19.457998,4.144531 c -0.06928,0.00318 -0.170094,0.04894 -0.224062,0.1016929 L 4.1201862,19.019477 C 4.0662214,19.07226 4.0121252,19.183058 4,19.26581 l 0.18447,0.633872 C 4.236753,19.954837 4.3362203,20 4.4055636,20 H 19.463998 c 0.06932,0 0.177783,-0.0281 0.241064,-0.06242 l 0.243437,-0.295096 C 19.976855,19.565801 20,19.434298 20,19.350228 V 4.6900909 C 20,4.6060478 19.966078,4.4821718 19.924654,4.414811 Z M 17.80494,17.757978 c 0.06932,0 0.141806,0.0093 0.161091,0.02038 0.01928,0.01132 0.03506,0.138935 0.03506,0.222961 v 1.265431 c 0,0.08404 -0.0071,0.173187 -0.0158,0.198069 -0.0088,0.0249 -0.111061,0.04529 -0.180372,0.04529 h -0.05142 c -0.06933,0 -0.14182,-0.0093 -0.161091,-0.02037 -0.01929,-0.01132 -0.03506,-0.138899 -0.03506,-0.222961 v -1.265434 c 0,-0.08404 0.0071,-0.173132 0.01576,-0.198068 0.0088,-0.0249 0.111061,-0.04529 0.180376,-0.04529 z m -2.181755,0 c 0.06932,0 0.14182,0.0093 0.161097,0.02038 0.01929,0.01132 0.03506,0.138935 0.03506,0.222961 v 1.265431 c 0,0.08404 -0.0071,0.173187 -0.0158,0.198069 -0.0087,0.0249 -0.111061,0.04529 -0.180374,0.04529 h -0.05142 c -0.06933,0 -0.141806,-0.0093 -0.161096,-0.02037 -0.01929,-0.01132 -0.03506,-0.138899 -0.03506,-0.222961 v -1.265434 c 0,-0.08404 0.0071,-0.173132 0.0158,-0.198068 0.0088,-0.0249 0.111061,-0.04529 0.180376,-0.04529 z m -2.181778,0 c 0.06933,0 0.141806,0.0093 0.161091,0.02038 0.01928,0.01132 0.03506,0.138935 0.03506,0.222961 v 1.265431 c 0,0.08404 -0.0071,0.173187 -0.01576,0.198069 -0.0087,0.0249 -0.111096,0.04529 -0.180406,0.04529 h -0.05137 c -0.06933,0 -0.14182,-0.0093 -0.161093,-0.02037 -0.01928,-0.01132 -0.03506,-0.138899 -0.03506,-0.222961 v -1.265434 c 0,-0.08404 0.0071,-0.173132 0.01576,-0.198068 0.0088,-0.0249 0.111061,-0.04529 0.180374,-0.04529 z m -2.181718,0 c 0.06932,0 0.141806,0.0093 0.161091,0.02038 0.01928,0.01132 0.03506,0.138935 0.03506,0.222961 v 1.265431 c 0,0.08404 -0.0071,0.173187 -0.01576,0.198069 -0.0088,0.0249 -0.111061,0.04529 -0.180376,0.04529 h -0.05142 c -0.06933,0 -0.14182,-0.0093 -0.161091,-0.02037 -0.01928,-0.01132 -0.03506,-0.138899 -0.03506,-0.222961 v -1.265434 c 0,-0.08404 0.0072,-0.173132 0.01579,-0.198068 0.0088,-0.0249 0.111062,-0.04529 0.180376,-0.04529 z m -2.1817833,0 c 0.069326,0 0.1418058,0.0093 0.1610957,0.02038 0.01927,0.01132 0.035064,0.138935 0.035064,0.222961 v 1.265431 c 0,0.08404 -0.00716,0.173187 -0.015796,0.198069 -0.00876,0.0249 -0.1110622,0.04529 -0.1803754,0.04529 h -0.05137 c -0.069326,0 -0.1418204,-0.0093 -0.1610972,-0.02037 -0.019284,-0.01132 -0.035064,-0.138899 -0.035064,-0.222961 v -1.265434 c 0,-0.08404 0.00716,-0.173132 0.015766,-0.198068 0.00876,-0.0249 0.1110918,-0.04529 0.1804065,-0.04529 z M 16.75922,11.587439 c 0.04145,0.06735 0.07531,0.191246 0.07531,0.27528 v 3.231528 c 0,0.08403 -0.02319,0.215536 -0.0515,0.292252 l -0.127997,0.155184 c -0.06329,0.03434 -0.171746,0.06245 -0.241059,0.06245 h -3.366593 c -0.06932,0 -0.168783,-0.04515 -0.221066,-0.100357 l -0.111868,-0.384284 c 0.01212,-0.08275 0.06618,-0.193596 0.120128,-0.246334 l 3.422437,-3.34531 c 0.05397,-0.05275 0.154784,-0.0985 0.224064,-0.101671 z"
     id="path1-5"
     style="display:inline;fill:currentColor;fill-opacity:1;stroke-width:0.0344083" />
</svg>
