<?xml version="1.0" encoding="UTF-8" standalone="no"?>
<svg
   viewBox="0 0 24 24"
   width="24"
   height="24"
   version="1.1"
   id="svg2"
   xmlns="http://www.w3.org/2000/svg"
   xmlns:svg="http://www.w3.org/2000/svg">
  <defs
     id="defs3051">
    <style
       type="text/css"
       id="current-color-scheme"> .ColorScheme-Text { color:#eff0f1; } </style>
  </defs>
  <path
     style="fill:currentColor;stroke-width:1.33333"
     d="M 5.3305088,17.333333 H 8 l 2.666667,-2.666666 -1.3333337,-1.333334 z m 13.3122262,0 -3.976068,-4 -4,4 z M 8.6666667,6.6666667 c -1.0666667,0 -2,0.9333333 -2,2 0,1.0666666 0.9333333,2.0000003 2,2.0000003 1.0666666,0 2.0000003,-0.9333337 2.0000003,-2.0000003 0,-1.0666667 -0.9333337,-2 -2.0000003,-2 z M 6.6666667,4 C 5.1893333,4 4,5.1893333 4,6.6666667 V 17.333333 C 4,18.810667 5.1893333,20 6.6666667,20 H 17.333333 C 18.810667,20 20,18.810667 20,17.333333 V 6.6666667 C 20,5.1893333 18.810667,4 17.333333,4 Z m 0,1.3333333 H 17.333333 c 0.738667,0 1.333334,0.5946667 1.333334,1.3333334 V 17.333333 c 0,0.609215 -0.5119,1.25 -1.333334,1.25 H 6.6666667 c -0.8632487,0 -1.3333334,-0.625112 -1.3333334,-1.25 V 6.6666667 C 5.3333333,5.928 5.928,5.3333333 6.6666667,5.3333333 Z"
     class="ColorScheme-Text"
     id="path1" />
</svg>
