<?xml version="1.0" encoding="UTF-8" standalone="no"?>
<svg
   viewBox="0 0 24 24"
   width="24"
   height="24"
   version="1.1"
   id="svg1"
   xmlns="http://www.w3.org/2000/svg"
   xmlns:svg="http://www.w3.org/2000/svg">
  <defs
     id="defs3051">
    <style type="text/css" id="current-color-scheme"> .ColorScheme-Text { color:#eff0f1; } </style>
  </defs>
  <path
     style="fill:currentColor;fill-opacity:1;stroke:none"
     d="m 11.451181,4.0004285 c -1.35622,0.03715 -2.6848453,0.6568749 -3.5869367,1.6799159 -1.5894622,1.7204822 -1.7164062,4.5687516 -0.2969275,6.4308266 1.2559949,0.191923 2.3575306,1.122554 2.7777282,2.329131 0.625923,1.633734 -0.160977,3.64095 -1.7235425,4.405009 C 7.0954035,19.682114 5.017672,19.155233 4.0660653,17.690258 4.0437053,17.657578 4.0218747,17.624578 4,17.591578 c 0.7102618,1.165855 1.9072693,2.015987 3.2370667,2.291983 2.2727651,0.527518 4.7830583,-0.785881 5.6731473,-2.956174 -0.463114,-1.192453 -0.214312,-2.619403 0.612071,-3.589493 1.090327,-1.363251 3.208165,-1.680101 4.645794,-0.697861 1.481899,0.91378 2.068152,2.991229 1.285302,4.554589 -0.01697,0.03591 -0.03423,0.07155 -0.05172,0.107227 0.646544,-1.202917 0.778285,-2.67297 0.350433,-3.972311 -0.683007,-2.247942 -3.066461,-3.7828653 -5.375802,-3.474655 -0.334342,0.421873 -0.768007,0.753647 -1.250986,0.979069 -0.01679,0.0079 -0.0336,0.01572 -0.05056,0.02359 -0.004,0.002 -0.0076,0.0032 -0.0112,0.0052 -0.245705,0.110253 -0.506148,0.193181 -0.777448,0.24514 -0.0028,4.76e-4 -0.0052,0.0013 -0.0081,0.0013 -0.02607,0.0052 -0.05225,0.0097 -0.07855,0.01371 -0.400358,0.06791 -0.81193,0.06804 -1.212821,-0.0079 -0.657496,-0.103593 -1.2579103,-0.416013 -1.7420613,-0.859582 -0.021631,-0.01958 -0.042826,-0.03971 -0.064004,-0.05979 -0.011069,-0.0107 -0.022217,-0.02116 -0.033122,-0.03196 C 8.8553246,9.8794156 8.6113949,9.545514 8.4291626,9.174982 8.4109666,9.1385674 8.393472,9.1018087 8.3764546,9.0647901 8.375777,9.0627501 8.374428,9.0608034 8.3737213,9.0587634 8.1394841,8.5463983 8.0231973,7.9803108 8.0641532,7.407849 8.0807963,6.7501249 8.3016964,6.1206914 8.6629338,5.5858763 8.8704118,5.2746497 9.1254413,4.9986914 9.4168262,4.7669802 c 0.00399,-0.00321 0.00792,-0.00665 0.011787,-0.00936 0.030936,-0.024365 0.06206,-0.048472 0.093805,-0.071804 0.030608,-0.022879 0.061724,-0.044928 0.093057,-0.066741 0.00593,-0.00399 0.011947,-0.00853 0.018017,-0.012533 C 10.13392,4.261836 10.718314,4.04341 11.33381,4.00854 c 3.7e-5,-6.2e-6 1.22e-4,8.7e-6 1.61e-4,0 0.0116,-6.784e-4 0.02339,-0.0018 0.03516,-0.00251 C 11.396491,4.00399 11.423841,4.00204 11.451191,4 Z"
     class="ColorScheme-Text"
     id="path1" />
</svg>
