<?xml version="1.0" encoding="UTF-8" standalone="no"?>
<svg
   viewBox="0 0 24 24"
   width="24"
   height="24"
   version="1.1"
   id="svg2"
   xmlns="http://www.w3.org/2000/svg"
   xmlns:svg="http://www.w3.org/2000/svg">
  <defs
     id="defs3051">
    <style
       type="text/css"
       id="current-color-scheme"> .ColorScheme-Text { color:#eff0f1; } </style>
  </defs>
  <path
     style="color:#eff0f1;fill:currentColor;fill-opacity:1;stroke-width:1"
     d="m 4.3488563,4 c -0.47463,0 -0.857302,0.38272 -0.857302,0.857264 v 14.28547 c 0,0.474547 0.403632,0.717599 0.857302,0.857267 H 8.491554 V 8.9999997 h 5.999999 V 4 Z M 15.491553,4 v 16.000001 h 4.142736 c 0.474544,0 0.857264,-0.38272 0.857264,-0.857267 V 4.857264 C 20.491553,4.38272 20.108833,4 19.634289,4 Z M 4.4915543,5 H 13.491553 V 7.9999997 H 8.491554 a 1.0000998,1.0000998 0 0 0 -0.9999997,1 V 19.000001 h -2.95313 c -0.0193,-0.016 -0.03578,-0.016 -0.0463,-0.01997 z M 16.491553,5 h 3 v 14.000001 h -3 z M 9.4915537,9.9999994 V 20.000001 H 14.491553 V 9.9999994 Z M 10.491553,11 h 3 v 8.000001 h -3 z"
     id="path4-3"
     class="ColorScheme-Text" />
</svg>
