<?xml version="1.0" encoding="UTF-8" standalone="no"?>
<svg
   viewBox="0 0 24 24"
   width="24"
   height="24"
   version="1.1"
   id="svg2"
   xmlns="http://www.w3.org/2000/svg"
   xmlns:svg="http://www.w3.org/2000/svg">
  <defs
     id="defs3051">
    <style
       type="text/css"
       id="current-color-scheme"> .ColorScheme-Text { color:#eff0f1; } </style>
  </defs>
  <path
     d="M 12.00598,4 C 7.5825874,4 4,7.6730228 4,12.203055 c 0,3.625057 2.2936201,6.699151 5.4741655,7.783079 0.4002208,0.07623 0.5468505,-0.1768 0.5468505,-0.394469 0,-0.194868 -0.01381,-0.710899 -0.01534,-1.394842 -2.2269897,0.494793 -2.6967086,-1.100361 -2.6967086,-1.100361 -0.3642547,-0.946807 -0.8906665,-1.20003 -0.8906665,-1.20003 -0.7252429,-0.508609 0.055001,-0.498223 0.055001,-0.498223 0.8038931,0.05642 1.2262659,0.845423 1.2262659,0.845423 0.7138705,1.254139 1.8740842,0.891679 2.3317252,0.682256 0.07154,-0.530853 0.278182,-0.891797 0.507059,-1.097034 -1.7779697,-0.205191 -3.6467283,-0.910646 -3.6467283,-4.05356 0,-0.895376 0.3102288,-1.627183 0.8239141,-2.2011514 -0.089249,-0.2071519 -0.3602382,-1.0412639 0.069349,-2.1711036 0,0 0.6704575,-0.219776 2.2015739,0.8410876 0.6405143,-0.1822399 1.3210523,-0.2725438 2.0015583,-0.2768638 0.680446,0.008 1.360983,0.09376 2.00141,0.2768638 1.521137,-1.0608636 2.191658,-0.8410876 2.191658,-0.8410876 0.430322,1.1298397 0.160131,1.9639517 0.0808,2.1711036 0.510378,0.5739684 0.82062,1.3057754 0.82062,2.2011514 0,3.151424 -1.871385,3.844818 -3.652703,4.046609 0.280188,0.246209 0.540388,0.749132 0.540388,1.517921 0,1.097817 -0.01534,1.979841 -0.01534,2.24634 0,0.214781 0.14025,0.471545 0.550399,0.389501 C 17.708295,18.898774 20,15.822688 20,12.203055 20.000001,7.6730228 16.415294,4 11.99405,4 Z"
     id="path2-3-3"
     style="fill:#eff0f1;fill-opacity:1;stroke-width:0.681263" />
</svg>
