<?xml version="1.0" encoding="UTF-8" standalone="no"?>
<svg
   viewBox="0 0 24 24"
   width="24"
   height="24"
   version="1.1"
   id="svg2"
   xmlns="http://www.w3.org/2000/svg"
   xmlns:svg="http://www.w3.org/2000/svg">
  <defs
     id="defs3051">
    <style
       type="text/css"
       id="current-color-scheme"> .ColorScheme-Text { color:#eff0f1; } </style>
  </defs>
  <g
     transform="translate(1,1)"
     id="g2">
    <path
       style="color:#eff0f1;opacity:1;fill:currentColor;fill-opacity:1;stroke:none"
       d="M 7,4.96875 C 7,6.499874 7,14.503906 7,14.503906 6.567749,14.177956 6.0413714,14.001126 5.5,14 4.1192881,14 3,15.119288 3,16.5 3,17.880712 4.1192881,19 5.5,19 6.8807119,19 8,17.880712 8,16.5 V 7 h 10 v 5.503906 C 17.567749,12.177956 17.041371,12.001126 16.5,12 15.119288,12 14,13.119288 14,14.5 c 0,1.380712 1.119288,2.5 2.5,2.5 1.380712,0 2.5,-1.119288 2.5,-2.5 0,0 0,-8.0419075 0,-9.53125 C 19,3.4794075 18.488138,3 17.052083,3 15.616028,3 10.625053,3 9.041667,3 7.4582814,3 7,3.437626 7,4.96875 Z M 9.041667,4 c 1.041667,0 7.057334,0 8.010416,0 C 18.005165,4 18,4.4274376 18,4.96875 18,5.5100624 18,6 18,6 H 8 C 8,6 8,5.9375 8,4.96875 8,4 8,4 9.041667,4 Z"
       class="ColorScheme-Text"
       id="path4867" />
  </g>
</svg>
