<?xml version="1.0" encoding="UTF-8" standalone="no"?>
<svg
   viewBox="0 0 22 22"
   version="1.1"
   id="svg6"
   xmlns="http://www.w3.org/2000/svg"
   xmlns:svg="http://www.w3.org/2000/svg"
   xmlns:rdf="http://www.w3.org/1999/02/22-rdf-syntax-ns#"
   xmlns:cc="http://creativecommons.org/ns#"
   xmlns:dc="http://purl.org/dc/elements/1.1/">
  <metadata
     id="metadata10">
    <rdf:RDF>
      <cc:Work
         rdf:about="">
        <dc:format>image/svg+xml</dc:format>
        <dc:type
           rdf:resource="http://purl.org/dc/dcmitype/StillImage" />
      </cc:Work>
    </rdf:RDF>
  </metadata>
  <defs
     id="defs3051">
    <style
       type="text/css"
       id="current-color-scheme">.ColorScheme-Text { color:#eff0f1 }
</style>
  </defs>
  <path
     d="m 6.9691821,7.60864 c 0.040669,0.2399816 0.2500551,0.4207494 0.5001101,0.4207494 h 0.515739 c 0.306322,0 0.5501226,-0.2649172 0.5094918,-0.5609992 C 8.3757519,6.5894937 7.9819113,5.7791669 7.3505149,5.1402522 6.9004185,4.6821052 6.6128488,4.1024054 6.525334,3.4728452 6.49097,3.2266261 6.2784001,3.0427449 6.0220967,3.0427449 H 5.509479 c -0.3063159,0 -0.5438682,0.2649172 -0.5094858,0.5609981 0.1219122,0.9942117 0.5626255,1.9105078 1.2690314,2.6304527 0.3750843,0.3802326 0.615765,0.8570787 0.7001575,1.3744443 z m 3.5007819,0 c 0.04065,0.2399816 0.250057,0.4207494 0.500113,0.4207494 h 0.515739 c 0.306319,0 0.550125,-0.2649172 0.50949,-0.5609992 C 11.876535,6.5894937 11.482691,5.7791669 10.851302,5.1402522 10.4012,4.6821052 10.113633,4.1024054 10.026118,3.4728452 9.9917543,3.2266261 9.7791844,3.0427449 9.5228822,3.0427449 H 9.010262 c -0.3063148,0 -0.5469942,0.2649172 -0.5094833,0.5609981 0.1218876,0.9942117 0.562623,1.9105078 1.2690301,2.6304527 0.3750852,0.3802326 0.6157632,0.8570787 0.7001552,1.3744443 z m 5.029254,1.4180768 H 3.9966409 c -0.5532499,0 -1.000219,0.4456803 -1.000219,0.9973282 v 5.983971 C 2.9964219,17.659842 4.34047,19 5.9970912,19 h 6.0013408 c 1.656621,0 3.000673,-1.340158 3.000673,-2.991984 h 0.500113 C 17.430898,16.008016 19,14.443458 19,12.517366 19,10.591276 17.430898,9.0267168 15.499218,9.0267168 Z m 0,4.9866422 h -0.500113 v -2.991986 h 0.500113 c 0.828307,0 1.500334,0.670078 1.500334,1.495993 0,0.825911 -0.672027,1.495993 -1.500334,1.495993 z"
     id="path70"
     style="stroke-width:0.0293749;fill-opacity:1;fill:currentColor;"
     class="ColorScheme-Text" />
</svg>
