<?xml version="1.0" encoding="UTF-8" standalone="no"?>
<svg
   viewBox="0 0 24 24"
   version="1.1"
   id="svg1"
   width="24"
   height="24"
   xmlns="http://www.w3.org/2000/svg"
   xmlns:svg="http://www.w3.org/2000/svg">
  <defs
     id="defs3051">
    <style
       type="text/css"
       id="current-color-scheme">
      .ColorScheme-Text {
        color:#eff0f1
      }
      </style>
  </defs>
  <path
     style="fill:currentColor;fill-opacity:1;stroke:none;stroke-width:1.1"
     d="m 17.582315,3.3021529 c -0.077,-8.78e-4 -0.155973,0.021664 -0.230447,0.072062 -0.03976,0.029291 -0.212528,0.2492499 -0.382282,0.4895679 L 16.660529,4.305307 16.548532,4.224088 c -0.156739,-0.1097921 -0.307977,-0.1340733 -0.44905,-0.066343 -0.09749,0.046632 -0.326003,0.3599889 -1.825264,2.4775708 -0.94617,1.3349795 -1.715554,2.4376562 -1.71327,2.4546965 0.0019,0.014213 0.38608,0.3328823 0.850714,0.7034656 L 14.2613,10.47178 15.379074,8.8898393 c 0.615201,-0.870297 1.12704,-1.5745675 1.139309,-1.5647821 0.03981,0.031623 0.112261,0.7148347 0.09799,0.9345226 -0.0057,0.1198362 -0.04792,0.3351812 -0.09153,0.4781281 -0.07778,0.255442 -0.08626,0.270413 -1.472055,2.2373661 -0.766434,1.087407 -1.404586,2.01098 -1.416062,2.047484 -0.03292,0.100661 0.0035,0.28895 0.07537,0.396916 0.119884,0.182027 0.41639,0.23956 0.584729,0.109813 0.11631,-0.09014 2.861151,-4.0149317 2.948434,-4.2196547 0.254954,-0.5838033 0.307746,-1.3313826 0.146452,-2.0669321 -0.06372,-0.2919503 -0.147062,-0.5725859 -0.228296,-0.7720969 -0.02366,-0.054465 0.0157,-0.1241709 0.272444,-0.4907093 0.2426,-0.349891 0.298225,-0.4481461 0.302595,-0.5387516 0.0097,-0.192833 -0.04587,-0.3001682 -0.223985,-0.4472452 L 17.348632,4.8566369 17.678151,4.3865165 C 17.948266,3.997698 18.006667,3.8960269 18.010897,3.805442 18.023041,3.516637 17.813285,3.304772 17.582311,3.3021491 Z M 12.03114,9.8220804 c -0.0081,0.00121 -1.016267,1.4241666 -2.2420069,3.1581616 -1.9714507,2.792268 -2.251857,3.205576 -2.4336856,3.560795 -0.361242,0.707197 -0.754349,1.785364 -1.0154703,2.770394 -0.1692719,0.631772 -0.1777652,0.574601 0.058148,0.440382 0.7276672,-0.417461 1.6781988,-1.095132 2.2312395,-1.593378 0.5407792,-0.487775 0.6328552,-0.611793 2.9236533,-3.852476 l 2.20324,-3.120412 -0.856098,-0.682878 C 12.429313,10.12713 12.039232,9.8208576 12.03114,9.8220804 Z M 9.8672718,19.538085 c -0.9438079,0.102905 -3.5310651,0.324925 -3.619831,0.412186 -0.1742166,0.17101 0.070374,1.019426 0.3173903,0.942707 0.065612,-0.02113 1.7831661,-0.316506 2.9874634,-0.423922 0.2701619,-0.0492 3.2950825,-0.349774 3.5522775,-0.382414 0,0 4.428312,-0.482792 4.318754,-0.590281 -0.523533,-0.513655 -7.5560542,0.04173 -7.5560542,0.04173 z"
     id="path5"
     class="ColorScheme-Text" />
</svg>
