<?xml version="1.0" encoding="UTF-8" standalone="no"?>
<svg
   viewBox="0 0 24 24"
   width="24"
   height="24"
   version="1.1"
   id="svg2"
   xmlns="http://www.w3.org/2000/svg"
   xmlns:svg="http://www.w3.org/2000/svg">
  <defs
     id="defs3051">
    <style
       type="text/css"
       id="current-color-scheme"> .ColorScheme-Text { color:#eff0f1; } </style>
  </defs>
  <path
     id="path2-6"
     style="color:#eff0f1;fill:currentColor;fill-opacity:1;stroke-width:0.177773"
     class="ColorScheme-Text"
     d="M 12,4 C 11.612625,4 11.299571,4.3040367 11.277344,4.6855469 9.7923722,4.8311469 8.4356628,5.4198718 7.3417969,6.3183594 7.0564652,6.0616486 6.6185907,6.069084 6.34375,6.34375 6.0690843,6.6185941 6.0616406,7.0564638 6.3183594,7.3417969 5.4198803,8.4354845 4.8313267,9.7923669 4.6855469,11.277344 4.3036893,11.299574 4,11.612623 4,12 c 0,0.387378 0.3036893,0.700433 0.6855469,0.722656 0.1455998,1.484976 0.7345064,2.841681 1.6328125,3.935547 -0.2567068,0.28551 -0.2492621,0.723201 0.025391,0.998047 0.2748447,0.274667 0.7123642,0.282102 0.9980469,0.02539 1.0936929,0.898666 2.4505753,1.487034 3.9355467,1.632812 C 11.299614,19.695965 11.612625,20 12,20 c 0.387373,0 0.700431,-0.304035 0.722656,-0.685547 1.484975,-0.1456 2.841682,-0.734146 3.935547,-1.632812 0.28569,0.256709 0.723203,0.249271 0.998047,-0.02539 0.274666,-0.274846 0.282105,-0.712714 0.02539,-0.998047 0.898666,-1.093689 1.487034,-2.450571 1.632812,-3.935547 C 19.69632,12.700426 20,12.387378 20,12 20,11.612623 19.696319,11.299566 19.314453,11.277344 19.168852,9.7921899 18.579951,8.4356624 17.681641,7.3417969 17.938173,7.056286 17.931089,6.6185941 17.65625,6.34375 17.381583,6.0690838 16.943536,6.0616489 16.658203,6.3183594 15.564511,5.419872 14.207629,4.8313248 12.722656,4.6855469 12.700256,4.3040367 12.387373,4 12,4 Z M 11.285156,4.8417969 C 11.339886,5.1891738 11.637158,5.4550781 12,5.4550781 c 0.36285,0 0.66027,-0.2659043 0.714844,-0.6132812 1.447997,0.1436438 2.770337,0.7167761 3.83789,1.5917969 -0.204443,0.2844442 -0.17966,0.6818556 0.07617,0.9375 0.255644,0.2556441 0.651281,0.2786627 0.935547,0.074219 0.8752,1.0675546 1.450106,2.3902472 1.59375,3.8378902 C 18.810824,11.338313 18.54492,11.637156 18.54492,12 c 0,0.362844 0.265725,0.661864 0.613281,0.716797 -0.143645,1.447642 -0.716598,2.770159 -1.591797,3.837891 -0.284265,-0.204443 -0.681856,-0.181614 -0.9375,0.07422 -0.255643,0.255823 -0.278829,0.653413 -0.07422,0.9375 -1.067554,0.875197 -2.391849,1.448153 -3.839844,1.591797 -0.05473,-0.347376 -0.352,-0.613281 -0.714844,-0.613281 -0.362846,0 -0.660261,0.265905 -0.714844,0.613281 -1.4479983,-0.143644 -2.7722866,-0.7166 -3.8398435,-1.591797 0.2046248,-0.284442 0.181663,-0.682033 -0.074219,-0.9375 -0.2556478,-0.255644 -0.6532293,-0.28079 -0.9375,-0.07617 C 5.5583946,15.485357 4.9834936,14.164439 4.8398438,12.716797 5.1872234,12.661687 5.4550781,12.362844 5.4550781,12 c 0,-0.362844 -0.2678547,-0.661864 -0.6152343,-0.716797 0.1436498,-1.4476435 0.7187238,-2.7701583 1.59375,-3.8378905 0.2844407,0.2047996 0.6820282,0.1816032 0.9375,-0.074219 0.2556437,-0.2556444 0.2785975,-0.6532336 0.074219,-0.9375 C 8.5130444,5.558573 9.8371587,4.9854407 11.285156,4.8417969 Z M 12,6.5976562 c -0.394133,0 -0.71235,0.3141453 -0.724609,0.7050782 C 8.9971699,7.653134 7.2460937,9.6254251 7.2460938,12 c 0,2.374576 1.7512491,4.346865 4.0292972,4.697266 0.0125,0.390933 0.330476,0.705078 0.724609,0.705078 0.394128,0 0.712341,-0.314145 0.724609,-0.705078 2.27822,-0.350401 4.029297,-2.32269 4.029297,-4.697266 0,-2.3745749 -1.751077,-4.346866 -4.029297,-4.6972656 C 12.712059,6.9118015 12.394128,6.5976563 12,6.5976562 Z m -0.712891,0.8613282 c 0.06292,0.3377774 0.356802,0.59375 0.712891,0.59375 0.356087,0 0.65191,-0.2557948 0.714844,-0.59375 2.197018,0.3443552 3.882812,2.248574 3.882812,4.5410156 0,2.292443 -1.68566,4.196661 -3.882812,4.541016 -0.06289,-0.337778 -0.358753,-0.59375 -0.714844,-0.59375 -0.356087,0 -0.651909,0.255795 -0.714844,0.59375 C 9.0880018,16.196661 7.4023438,14.292443 7.4023438,12 c 0,-2.2924416 1.6874332,-4.1966604 3.8847652,-4.5410156 z M 12,9.921875 c -1.147557,0 -2.078125,0.930571 -2.078125,2.078125 0,1.147555 0.930568,2.078125 2.078125,2.078125 1.147548,0 2.078125,-0.93057 2.078125,-2.078125 0,-1.147554 -0.930577,-2.078125 -2.078125,-2.078125 z m -0.390625,0.464844 c 0.04846,-0.0027 0.09314,0.02942 0.105469,0.07813 0.01427,0.05565 -0.02063,0.110955 -0.07617,0.125 -0.38952,0.09937 -0.722775,0.359644 -0.916016,0.714844 -0.01887,0.03431 -0.05522,0.05469 -0.0918,0.05469 -0.01691,0 -0.03296,-0.0052 -0.04883,-0.01367 -0.05026,-0.02755 -0.07051,-0.09032 -0.04297,-0.140625 0.220978,-0.405333 0.603491,-0.702984 1.048829,-0.816406 0.007,-0.0019 0.01456,-0.0016 0.02148,-0.0019 z" />
</svg>
