<?xml version="1.0" encoding="UTF-8" standalone="no"?>
<svg
   viewBox="0 0 20 20"
   width="24"
   height="24"
   version="1.1"
   id="svg1"
   xmlns="http://www.w3.org/2000/svg"
   xmlns:svg="http://www.w3.org/2000/svg">
  <defs
     id="defs3051">
    <style
       type="text/css"
       id="current-color-scheme">
      .ColorScheme-Text {
        color:#eff0f1;
      }
      </style>
  </defs>
  <path
     style="fill:currentColor;fill-opacity:1;stroke:none"
     id="path5"
     class="ColorScheme-Text"
     d="m 17.73429,10.000002 c 0,-4.2526572 -3.462804,-7.7000838 -7.7342924,-7.7000838 -4.2714836,0 -7.7342883,3.4474266 -7.7342883,7.7000838 0,4.252638 3.4628047,7.700079 7.7342883,7.700079 H 17.73429 v -1.283354 h -3.464357 c 2.162376,-1.425291 3.463343,-3.834693 3.464357,-6.416725 z m -3.945909,5.19135 c -0.863744,0.62476 -2.073145,0.434261 -2.700822,-0.426114 -0.627513,-0.860069 -0.436189,-2.063817 0.427848,-2.68889 0.864084,-0.624748 2.073252,-0.434258 2.700827,0.426118 0.627871,0.860039 0.4362,2.063818 -0.427853,2.688886 z m -0.09449,-8.4100629 c 1.015443,-0.3286643 2.106327,0.2246452 2.436431,1.2357233 0.329773,1.0113912 -0.225913,2.0973416 -1.24159,2.4257016 C 13.873323,10.771376 12.782446,10.218065 12.452283,9.2069885 12.122538,8.1959178 12.678247,7.10965 13.69392,6.7812847 Z m -3.69355,-3.1980209 c 1.067873,0 1.933566,0.8619301 1.933566,1.9250211 0,1.0630838 -0.865693,1.9250135 -1.933566,1.9250135 -1.0677143,0 -1.9335602,-0.8619297 -1.9335602,-1.9250135 0,-1.063091 0.8658459,-1.9250211 1.9335602,-1.9250211 z M 3.8703088,8.0170124 C 4.2005315,7.0059343 5.2913646,6.4526277 6.3068129,6.7809786 7.3224557,7.10965 7.8781639,8.1956046 7.548368,9.2066752 7.2182736,10.217745 6.1274908,10.771066 5.1119638,10.442714 4.096239,10.114354 3.540434,9.0284036 3.8702301,8.0170124 Z M 8.9126633,14.765245 C 8.2850389,15.625613 7.0757155,15.816112 6.2118339,15.191352 5.3479419,14.566284 5.1563032,13.362505 5.784131,12.502466 6.411618,11.6424 7.6210745,11.4516 8.484963,12.076663 c 0.8638887,0.624761 1.0552765,1.82851 0.4277003,2.688582 z m 0.4431262,-4.765243 c 0,-0.3543684 0.2885536,-0.6416781 0.6444735,-0.6416781 0.355921,0 0.64453,0.2873097 0.64453,0.6416781 0,0.354357 -0.288609,0.641673 -0.64453,0.641673 -0.3559199,0 -0.6444735,-0.287315 -0.6444735,-0.641673 z m 0,0" />
</svg>
