<?xml version="1.0" encoding="UTF-8" standalone="no"?>
<svg
   viewBox="0 0 24 24"
   width="24"
   height="24"
   version="1.1"
   id="svg2"
   xmlns="http://www.w3.org/2000/svg"
   xmlns:svg="http://www.w3.org/2000/svg">
  <defs
     id="defs3051">
    <style
       type="text/css"
       id="current-color-scheme"> .ColorScheme-Text { color:#eff0f1; } </style>
  </defs>
  <path
     d="m 21.666665,11.646559 c 0,-1.462336 -1.219919,-2.6485116 -2.714981,-2.6485116 -0.589029,0 -1.151651,0.184192 -1.616217,0.519552 -1.317976,-0.64832 -2.88485,-1.038608 -4.542712,-1.130864 L 13.876662,5.466064 16.497179,6.1032 c 0.05678,1.0495994 0.951632,1.8819354 2.039165,1.8819354 1.125062,0 2.042807,-0.8948 2.042807,-1.9923354 C 20.579151,4.8951999 19.661406,4 18.536344,4 17.769671,4 17.101447,4.4123841 16.750293,5.0239519 L 13.159032,4.1474239 11.595797,8.3645434 C 9.794669,8.4171834 8.087953,8.8139354 6.664534,9.5100795 6.199996,9.1751194 5.64102,8.9943994 5.052112,8.9943994 c -1.499214,0.008 -2.718777,1.1935996 -2.718777,2.6521596 0,0.714271 0.30219,1.403263 0.819341,1.896639 -0.0349,0.209968 -0.05381,0.423872 -0.05381,0.637137 0,1.602427 0.958919,3.090532 2.695871,4.188145 C 7.456299,19.4216 9.6576332,20 11.991266,20 c 2.333746,0 4.531198,-0.5784 6.196409,-1.63152 1.736952,-1.101546 2.696146,-2.589503 2.696146,-4.188145 0,-0.209937 -0.02001,-0.419553 -0.04906,-0.629521 0.524944,-0.49 0.831006,-1.182352 0.831006,-1.904255 z M 7.748187,13.193342 c 0,-0.850672 0.709673,-1.543167 1.582009,-1.543167 0.872447,0 1.582353,0.692495 1.582353,1.543167 0,0.85072 -0.709906,1.543457 -1.582353,1.543457 -0.872336,0 -1.582009,-0.692737 -1.582009,-1.543457 z m 4.353805,4.884164 c -1.227233,0 -2.4242344,-0.339106 -3.458913,-0.979722 l 0.607992,-0.932115 c 0.853156,0.530601 1.842568,0.810558 2.854501,0.810558 1.011976,0 1.997696,-0.279957 2.854652,-0.810558 l 0.607894,0.932115 c -1.041999,0.640616 -2.23907,0.979722 -3.466126,0.979722 z m 2.805363,-3.340707 c -0.872258,0 -1.58193,-0.692737 -1.58193,-1.543457 0,-0.850672 0.709672,-1.543167 1.58193,-1.543167 0.872296,0 1.582262,0.692495 1.582262,1.543167 0,0.85072 -0.709966,1.543457 -1.582262,1.543457 z m 0,0"
     id="path2-3-3"
     style="color:#eff0f1;fill:currentColor;fill-opacity:1;stroke-width:0.0372948"
     class="ColorScheme-Text" />
</svg>
