<?xml version="1.0" encoding="UTF-8" standalone="no"?>
<svg
   viewBox="0 0 24 24"
   width="24"
   height="24"
   version="1.1"
   id="svg1"
   xmlns="http://www.w3.org/2000/svg"
   xmlns:svg="http://www.w3.org/2000/svg">
  <defs
     id="defs3051">
    <style type="text/css" id="current-color-scheme"> .ColorScheme-Text { color:#eff0f1; } </style>
  </defs>
  <path
     style="fill:currentColor;fill-opacity:1;stroke:none"
     d="m 6,17 v 1 H 18 V 17 Z M 6,4 C 4.892,4 4,4.892 4,6 v 12 c 0,1.108 0.892,2 2,2 h 12 c 1.108,0 2,-0.892 2,-2 V 6 C 20,4.892 19.108,4 18,4 Z m 0,1 h 12 c 0.554,0 1,0.446 1,1 v 12 c 0,0.456911 -0.383925,0.9375 -1,0.9375 H 6 C 5.3525635,18.9375 5,18.468666 5,18 V 6 C 5,5.446 5.446,5 6,5 Z"
     class="ColorScheme-Text"
     id="path1" />
</svg>
