<?xml version="1.0" encoding="UTF-8" standalone="no"?>
<svg
   height="22"
   width="22"
   viewBox="0 0 22 22"
   version="1.1"
   id="svg11"
   sodipodi:docname="emblem-warning.svg"
   inkscape:version="1.1.2 (0a00cf5339, 2022-02-04)"
   xmlns:inkscape="http://www.inkscape.org/namespaces/inkscape"
   xmlns:sodipodi="http://sodipodi.sourceforge.net/DTD/sodipodi-0.dtd"
   xmlns="http://www.w3.org/2000/svg"
   xmlns:svg="http://www.w3.org/2000/svg">
  <defs
     id="defs15" />
  <sodipodi:namedview
     id="namedview13"
     pagecolor="#ffffff"
     bordercolor="#666666"
     borderopacity="1.0"
     inkscape:pageshadow="2"
     inkscape:pageopacity="0.0"
     inkscape:pagecheckerboard="0"
     showgrid="false"
     inkscape:zoom="26.25"
     inkscape:cx="-0.91428571"
     inkscape:cy="11.961905"
     inkscape:window-width="3440"
     inkscape:window-height="1359"
     inkscape:window-x="0"
     inkscape:window-y="0"
     inkscape:window-maximized="1"
     inkscape:current-layer="g9" />
  <style
     type="text/css"
     id="current-color-scheme">
        .ColorScheme-NeutralText {
            color:#f67400;
        }
        .ColorScheme-Text {
            color:#eff0f1;
        }
    </style>
  <g
     transform="translate(1,1)"
     id="g9">
    <path
       d="M 10.096527,-2.9547743e-6 A 0.91720254,0.91720254 0 0 0 9.268293,0.50721005 L 0.09626767,18.851261 a 0.91720254,0.91720254 0 0 0 0.82089628,1.327192 H 19.261215 a 0.91720254,0.91720254 0 0 0 0.820896,-1.327192 L 10.910086,0.50721005 A 0.91720254,0.91720254 0 0 0 10.096527,-2.9547743e-6 Z"
       style="fill:#414141;fill-opacity:1;stroke:none;stroke-width:0.917203"
       class="ColorScheme-NeutralText"
       id="path3" />
    <path
       d="M 9.1719868,3.6688072 V 14.675238 H 11.006392 V 3.6688072 Z m 0,12.8408358 v 1.834405 h 1.8344052 v -1.834405 z"
       fill="#ffffff"
       id="path5"
       style="stroke-width:0.917203" />
    <path
       d="M 10.096527,-2.9547743e-6 A 0.91720254,0.91720254 0 0 0 9.268293,0.50721005 L 0.09626767,18.851261 a 0.91720254,0.91720254 0 0 0 0.82089628,1.327192 H 19.261215 a 0.91720254,0.91720254 0 0 0 0.820896,-1.327192 L 10.910086,0.50721005 A 0.91720254,0.91720254 0 0 0 10.096527,-2.9547743e-6 Z M 10.089189,0.91719958 19.261215,19.26125 H 0.91716395 Z"
       style="fill:#e38805;fill-opacity:1;stroke:none;stroke-width:0.917203"
       class="ColorScheme-Text"
       id="path7" />
  </g>
</svg>
