<?xml version="1.0" encoding="UTF-8" standalone="no"?>
<svg
   viewBox="0 0 22 22"
   width="22"
   height="22"
   version="1.1"
   id="svg11"
   sodipodi:docname="emblem-unlocked.svg"
   inkscape:version="1.1.2 (0a00cf5339, 2022-02-04)"
   xmlns:inkscape="http://www.inkscape.org/namespaces/inkscape"
   xmlns:sodipodi="http://sodipodi.sourceforge.net/DTD/sodipodi-0.dtd"
   xmlns="http://www.w3.org/2000/svg"
   xmlns:svg="http://www.w3.org/2000/svg">
  <defs
     id="defs15" />
  <sodipodi:namedview
     id="namedview13"
     pagecolor="#ffffff"
     bordercolor="#666666"
     borderopacity="1.0"
     inkscape:pageshadow="2"
     inkscape:pageopacity="0.0"
     inkscape:pagecheckerboard="0"
     showgrid="false"
     inkscape:zoom="26.25"
     inkscape:cx="-0.68571429"
     inkscape:cy="11.961905"
     inkscape:window-width="3440"
     inkscape:window-height="1359"
     inkscape:window-x="0"
     inkscape:window-y="0"
     inkscape:window-maximized="1"
     inkscape:current-layer="g9" />
  <style
     type="text/css"
     id="current-color-scheme">
        .ColorScheme-NegativeText {
            color:#da4453;
        }
        .ColorScheme-Text {
            color:#eff0f1;
        }
    </style>
  <g
     transform="translate(1,1)"
     id="g9">
    <path
       style="display:inline;fill:#414141;fill-opacity:1;stroke:#e38805;stroke-width:1.27199;stroke-miterlimit:4;stroke-dasharray:none;stroke-opacity:1"
       class="ColorScheme-NegativeText"
       d="M 9.9947661,0.64225626 A 9.35251,9.35251 0 0 0 0.64225626,9.9947661 9.35251,9.35251 0 0 0 9.9947661,19.347276 9.35251,9.35251 0 0 0 19.347276,9.9947661 9.35251,9.35251 0 0 0 9.9947661,0.64225626 Z"
       id="path3" />
    <path
       d="m 10.038604,3.9835215 c -1.6510898,0 -2.9803069,1.3292168 -2.9803069,2.9803069 V 7.7089052 H 7.803374 V 7.3363669 c 0,-1.4447039 0.9969127,-2.6077687 2.23523,-2.6077687 1.238318,0 2.235231,1.1630648 2.235231,2.6077687 V 9.9441355 H 5.5681436 V 15.90475 H 14.509064 V 9.9441355 H 13.018911 V 6.9638284 c 0,-1.6510901 -1.329217,-2.9803069 -2.980307,-2.9803069 z"
       fill="#ffffff"
       id="path7-9"
       style="stroke-width:0.745077" />
    <path
       d="M 11,0 A 11,11 0 0 0 0,11 11,11 0 0 0 11,22 11,11 0 0 0 22,11 11,11 0 0 0 11,0 Z m 0,1 A 10,10 0 0 1 21,11 10,10 0 0 1 11,21 10,10 0 0 1 1,11 10,10 0 0 1 11,1 Z"
       style="display:none;fill:currentColor;fill-opacity:0.6;stroke:none"
       class="ColorScheme-Text"
       id="path7" />
  </g>
</svg>
