<?xml version="1.0" encoding="UTF-8" standalone="no"?>
<svg
   viewBox="0 0 22 22"
   width="22"
   height="22"
   version="1.1"
   id="svg11"
   sodipodi:docname="emblem-readonly.svg"
   inkscape:version="1.1.2 (0a00cf5339, 2022-02-04)"
   xmlns:inkscape="http://www.inkscape.org/namespaces/inkscape"
   xmlns:sodipodi="http://sodipodi.sourceforge.net/DTD/sodipodi-0.dtd"
   xmlns="http://www.w3.org/2000/svg"
   xmlns:svg="http://www.w3.org/2000/svg">
  <defs
     id="defs15" />
  <sodipodi:namedview
     id="namedview13"
     pagecolor="#ffffff"
     bordercolor="#666666"
     borderopacity="1.0"
     inkscape:pageshadow="2"
     inkscape:pageopacity="0.0"
     inkscape:pagecheckerboard="0"
     showgrid="false"
     inkscape:zoom="26.25"
     inkscape:cx="-0.91428571"
     inkscape:cy="11.961905"
     inkscape:window-width="3440"
     inkscape:window-height="1359"
     inkscape:window-x="0"
     inkscape:window-y="0"
     inkscape:window-maximized="1"
     inkscape:current-layer="g9" />
  <style
     type="text/css"
     id="current-color-scheme">
        .ColorScheme-NegativeText {
            color:#da4453;
        }
        .ColorScheme-Text {
            color:#eff0f1;
        }
    </style>
  <g
     transform="translate(1,1)"
     id="g9">
    <path
       style="display:inline;fill:#414141;fill-opacity:1;stroke:#7f8c8d;stroke-width:1.29312;stroke-miterlimit:4;stroke-dasharray:none;stroke-opacity:1"
       class="ColorScheme-NegativeText"
       d="m 10.160745,0.65282454 a 9.5079201,9.5079201 0 0 0 -9.50792046,9.50792046 9.5079201,9.5079201 0 0 0 9.50792046,9.50792 9.5079201,9.5079201 0 0 0 9.50792,-9.50792 9.5079201,9.5079201 0 0 0 -9.50792,-9.50792046 z"
       id="path3" />
    <path
       d="M 11,0 A 11,11 0 0 0 0,11 11,11 0 0 0 11,22 11,11 0 0 0 22,11 11,11 0 0 0 11,0 Z m 0,1 A 10,10 0 0 1 21,11 10,10 0 0 1 11,21 10,10 0 0 1 1,11 10,10 0 0 1 11,1 Z"
       style="display:none;fill:currentColor;fill-opacity:0.6;stroke:none"
       class="ColorScheme-Text"
       id="path7" />
    <path
       d="m 10.086174,4.1296242 c -1.5762563,0 -2.8452277,1.2689714 -2.8452277,2.8452274 V 9.8200791 H 5.8183326 V 15.510534 H 14.354015 V 9.8200791 H 12.931401 V 6.9748516 c 0,-1.576256 -1.268971,-2.8452274 -2.845227,-2.8452274 m 0,0.7113069 c 1.182192,0 2.13392,1.1103499 2.13392,2.4895739 V 9.8200791 H 7.9522532 V 7.330505 c 0,-1.379224 0.9517285,-2.4895739 2.1339208,-2.4895739"
       fill="#ffffff"
       id="path7-9"
       style="stroke-width:0.711306" />
  </g>
</svg>
