<?xml version="1.0" encoding="UTF-8" standalone="no"?>
<svg
   viewBox="0 0 22 22"
   width="22"
   height="22"
   version="1.1"
   id="svg11"
   sodipodi:docname="emblem-shared.svg"
   inkscape:version="1.1.2 (0a00cf5339, 2022-02-04)"
   xmlns:inkscape="http://www.inkscape.org/namespaces/inkscape"
   xmlns:sodipodi="http://sodipodi.sourceforge.net/DTD/sodipodi-0.dtd"
   xmlns="http://www.w3.org/2000/svg"
   xmlns:svg="http://www.w3.org/2000/svg">
  <defs
     id="defs15" />
  <sodipodi:namedview
     id="namedview13"
     pagecolor="#ffffff"
     bordercolor="#666666"
     borderopacity="1.0"
     inkscape:pageshadow="2"
     inkscape:pageopacity="0.0"
     inkscape:pagecheckerboard="0"
     showgrid="false"
     inkscape:zoom="26.25"
     inkscape:cx="10.895238"
     inkscape:cy="15.542857"
     inkscape:window-width="3440"
     inkscape:window-height="1359"
     inkscape:window-x="0"
     inkscape:window-y="0"
     inkscape:window-maximized="1"
     inkscape:current-layer="g9" />
  <style
     type="text/css"
     id="current-color-scheme">
        .ColorScheme-Highlight {
            color:#3daee9;
        }
        .ColorScheme-Text {
            color:#eff0f1;
        }
    </style>
  <g
     transform="translate(1,1)"
     id="g9">
    <path
       d="M 10.068127,0 A 10.068127,10.068127 0 0 0 0,10.068127 10.068127,10.068127 0 0 0 10.068127,20.136254 10.068127,10.068127 0 0 0 20.136254,10.068127 10.068127,10.068127 0 0 0 10.068127,0 Z"
       style="fill:#414141;fill-opacity:1;stroke:none;stroke-width:0.915284"
       class="ColorScheme-Highlight"
       id="path3" />
    <path
       d="M 10.068127,0 A 10.068127,10.068127 0 0 0 0,10.068127 10.068127,10.068127 0 0 0 10.068127,20.136254 10.068127,10.068127 0 0 0 20.136254,10.068127 10.068127,10.068127 0 0 0 10.068127,0 Z m 0,0.91528426 A 9.1528426,9.1528426 0 0 1 19.220969,10.068127 9.1528426,9.1528426 0 0 1 10.068127,19.220969 9.1528426,9.1528426 0 0 1 0.91528426,10.068127 9.1528426,9.1528426 0 0 1 10.068127,0.91528426 Z"
       style="fill:#3daee9;fill-opacity:1;stroke:none;stroke-width:0.915284"
       class="ColorScheme-Text"
       id="path7" />
    <path
       d="m 11.692508,6.1982548 a 0.38429227,0.38429227 0 1 0 0,0.7685845 0.38429227,0.38429227 0 1 0 0,-0.7685845 z m 0,6.9172612 a 0.3842925,0.3842925 0 1 0 0,0.768585 0.3842925,0.3842925 0 1 0 0,-0.768585 z M 10.15534,12.346932 a 0.38429227,0.38429227 0 1 0 0,0.768584 0.38429227,0.38429227 0 1 0 0,-0.768584 z M 8.6181703,11.578347 a 0.38429262,0.38429262 0 1 0 0,0.768585 0.38429262,0.38429262 0 1 0 0,-0.768585 z m 0,-3.8429232 a 0.3842923,0.3842923 0 1 0 0,0.7685846 0.3842923,0.3842923 0 1 0 0,-0.7685846 z M 10.15534,6.9668393 a 0.38429227,0.38429227 0 1 0 0,0.7685845 0.38429227,0.38429227 0 1 0 0,-0.7685845 z m 4.227214,6.1486767 c -0.851591,0 -1.537168,0.685578 -1.537168,1.537169 0,0.851592 0.685577,1.53717 1.537168,1.53717 0.851592,0 1.53717,-0.685578 1.53717,-1.53717 0,-0.851591 -0.685578,-1.537169 -1.53717,-1.537169 z M 5.9281244,8.5040084 c -0.8515916,0 -1.5371691,0.6855774 -1.5371691,1.5371696 0,0.851592 0.6855775,1.537169 1.5371691,1.537169 0.8515917,0 1.5371691,-0.685577 1.5371691,-1.537169 0,-0.8515922 -0.6855774,-1.5371696 -1.5371691,-1.5371696 z M 14.382554,3.8925011 c -0.851591,0 -1.537168,0.6855774 -1.537168,1.5371691 0,0.8515917 0.685577,1.5371691 1.537168,1.5371691 0.851592,0 1.53717,-0.6855774 1.53717,-1.5371691 0,-0.8515917 -0.685578,-1.5371691 -1.53717,-1.5371691 z"
       fill="#ffffff"
       id="path7-1"
       style="stroke-width:0.768584" />
  </g>
</svg>
