<?xml version="1.0" encoding="UTF-8" standalone="no"?>
<svg
   viewBox="0 0 22 22"
   width="22"
   height="22"
   version="1.1"
   id="svg11"
   sodipodi:docname="emblem-unavailable.svg"
   inkscape:version="1.1.2 (0a00cf5339, 2022-02-04)"
   xmlns:inkscape="http://www.inkscape.org/namespaces/inkscape"
   xmlns:sodipodi="http://sodipodi.sourceforge.net/DTD/sodipodi-0.dtd"
   xmlns="http://www.w3.org/2000/svg"
   xmlns:svg="http://www.w3.org/2000/svg">
  <defs
     id="defs15" />
  <sodipodi:namedview
     id="namedview13"
     pagecolor="#ffffff"
     bordercolor="#666666"
     borderopacity="1.0"
     inkscape:pageshadow="2"
     inkscape:pageopacity="0.0"
     inkscape:pagecheckerboard="0"
     showgrid="false"
     inkscape:zoom="26.25"
     inkscape:cx="10.895238"
     inkscape:cy="15.542857"
     inkscape:window-width="3440"
     inkscape:window-height="1359"
     inkscape:window-x="0"
     inkscape:window-y="0"
     inkscape:window-maximized="1"
     inkscape:current-layer="g9" />
  <style
     type="text/css"
     id="current-color-scheme">
        .ColorScheme-Highlight {
            color:#3daee9;
        }
        .ColorScheme-Text {
            color:#eff0f1;
        }
    </style>
  <g
     transform="translate(1,1)"
     id="g9">
    <path
       d="M 10.061254,0 A 10.061254,10.061254 0 0 0 0,10.061254 10.061254,10.061254 0 0 0 10.061254,20.122507 10.061254,10.061254 0 0 0 20.122507,10.061254 10.061254,10.061254 0 0 0 10.061254,0 Z"
       style="fill:#414141;fill-opacity:1;stroke:none;stroke-width:0.914659"
       class="ColorScheme-Highlight"
       id="path3" />
    <path
       d="M 10.061254,0 A 10.061254,10.061254 0 0 0 0,10.061254 10.061254,10.061254 0 0 0 10.061254,20.122507 10.061254,10.061254 0 0 0 20.122507,10.061254 10.061254,10.061254 0 0 0 10.061254,0 Z m 0,0.91465943 A 9.1465943,9.1465943 0 0 1 19.207848,10.061254 9.1465943,9.1465943 0 0 1 10.061254,19.207848 9.1465943,9.1465943 0 0 1 0.91465943,10.061254 9.1465943,9.1465943 0 0 1 10.061254,0.91465943 Z"
       style="fill:#7f8c8d;fill-opacity:1;stroke:none;stroke-width:0.914659"
       class="ColorScheme-Text"
       id="path7" />
    <path
       d="m 5.7956875,4.8075348 -0.9230076,0.9230077 4.2991005,4.2991005 -4.2991005,4.299101 0.9230076,0.923007 4.2991005,-4.2991 4.2991,4.2991 0.923008,-0.923007 -4.299101,-4.299101 4.299101,-4.2991005 -0.923008,-0.9230077 -4.2991,4.2991004 z"
       fill="#ffffff"
       id="path5"
       style="stroke-width:0.652763" />
  </g>
</svg>
