<?xml version="1.0" encoding="UTF-8" standalone="no"?>
<svg
   viewBox="0 0 22 22"
   width="22"
   height="22"
   version="1.1"
   id="svg11"
   sodipodi:docname="emblem-error.svg"
   inkscape:version="1.1.2 (0a00cf5339, 2022-02-04)"
   xmlns:inkscape="http://www.inkscape.org/namespaces/inkscape"
   xmlns:sodipodi="http://sodipodi.sourceforge.net/DTD/sodipodi-0.dtd"
   xmlns="http://www.w3.org/2000/svg"
   xmlns:svg="http://www.w3.org/2000/svg">
  <defs
     id="defs15" />
  <sodipodi:namedview
     id="namedview13"
     pagecolor="#ffffff"
     bordercolor="#666666"
     borderopacity="1.0"
     inkscape:pageshadow="2"
     inkscape:pageopacity="0.0"
     inkscape:pagecheckerboard="0"
     showgrid="false"
     inkscape:zoom="26.25"
     inkscape:cx="12"
     inkscape:cy="11.961905"
     inkscape:window-width="3440"
     inkscape:window-height="1359"
     inkscape:window-x="0"
     inkscape:window-y="0"
     inkscape:window-maximized="1"
     inkscape:current-layer="g9" />
  <style
     type="text/css"
     id="current-color-scheme">
        .ColorScheme-NegativeText {
            color:#da4453;
        }
        .ColorScheme-Text {
            color:#eff0f1;
        }
    </style>
  <g
     transform="translate(1,1)"
     id="g9">
    <path
       style="display:inline;fill:#414141;fill-opacity:1;stroke:#da4453;stroke-width:1.28587;stroke-miterlimit:4;stroke-dasharray:none;stroke-opacity:1"
       class="ColorScheme-NegativeText"
       d="M 10.103771,0.64919692 A 9.4545746,9.4545746 0 0 0 0.64919692,10.103771 9.4545746,9.4545746 0 0 0 10.103771,19.558346 9.4545746,9.4545746 0 0 0 19.558346,10.103771 9.4545746,9.4545746 0 0 0 10.103771,0.64919692 Z"
       id="path3" />
    <path
       d="M 11,0 A 11,11 0 0 0 0,11 11,11 0 0 0 11,22 11,11 0 0 0 22,11 11,11 0 0 0 11,0 Z m 0,1 A 10,10 0 0 1 21,11 10,10 0 0 1 11,21 10,10 0 0 1 1,11 10,10 0 0 1 11,1 Z"
       style="display:none;fill:currentColor;fill-opacity:0.6;stroke:none"
       class="ColorScheme-Text"
       id="path7" />
    <path
       d="m 6.0028482,5.0600105 -0.8774668,0.8774666 4.0869848,4.0869849 -4.0869848,4.086984 0.8774668,0.877467 4.0869848,-4.086985 4.086984,4.086985 0.877467,-0.877467 -4.086985,-4.086984 4.086985,-4.0869849 -0.877467,-0.8774666 -4.086984,4.0869843 z"
       fill="#ffffff"
       id="path5"
       style="stroke-width:0.620556" />
  </g>
</svg>
