<svg width="24" height="24" version="1.1" viewBox="0 0 24 24" xmlns="http://www.w3.org/2000/svg" xmlns:xlink="http://www.w3.org/1999/xlink">
<defs>
<linearGradient id="linearGradient3403" x1="6.9492" x2="11.215" y1="4.5549" y2="59.052" gradientUnits="userSpaceOnUse">
<stop style="stop-color:#32373c" offset="0"/>
<stop style="stop-color:#1a1a1a" offset=".36805"/>
<stop style="stop-color:#31363b" offset="1"/>
</linearGradient>
<linearGradient id="linearGradient20558" x1="25.802" x2="25.111" y1="20.374" y2="58.913" gradientUnits="userSpaceOnUse">
<stop style="stop-color:#3d3d3d" offset="0"/>
<stop offset=".61772"/>
<stop style="stop-color:#3d3d3d" offset="1"/>
</linearGradient>
<linearGradient id="linearGradient4557" x1="43.5" x2="44.142" y1="64.012" y2=".30621" gradientTransform="translate(.36068 -.13017)" gradientUnits="userSpaceOnUse">
<stop style="stop-color:#141618" offset="0"/>
<stop style="stop-color:#686868" offset=".51821"/>
<stop style="stop-color:#31363b" offset="1"/>
</linearGradient>
<linearGradient id="linearGradient981" x1="439.57" x2="429.57" y1="502.8" y2="512.8" gradientTransform="matrix(.23505 0 0 .24734 -89.24 -119.76)" gradientUnits="userSpaceOnUse" xlink:href="#linearGradient4434"/>
<linearGradient id="linearGradient4434" x1="439.57" x2="429.57" y1="502.8" y2="512.8" gradientTransform="matrix(.17723 0 0 .17723 -65.364 -82.795)" gradientUnits="userSpaceOnUse">
<stop stop-color="#2e3440" offset="0"/>
<stop stop-opacity="0" offset="1"/>
</linearGradient>
</defs>
<rect x="1.9393" y="1.8049" width="20.678" height="20.986" ry="0" style="fill-rule:evenodd"/>
<g transform="matrix(.56578 0 0 .56578 -40.327 -1.3779)">
<g transform="matrix(2.5173 0 0 2.535 74.052 4.0022)" stroke-width=".20247">
<path d="m10.321 7.0745 1.4103 1.4841 1.6453-1.7314-1.4103-1.4841z" fill="url(#linearGradient4434)" fill-rule="evenodd" opacity=".9" style="fill:url(#linearGradient981);stroke-width:.27545"/>
<path d="m6.6474 3.2625c-0.35882 0-0.64769 0.28685-0.64769 0.64317 0 0.35631 0.28887 0.64317 0.64769 0.64317 0.35882 0 0.64769-0.28685 0.64769-0.64317 0-0.35631-0.28887-0.64317-0.64769-0.64317zm4.5338 0-1.2954 1.2863 1.9431 1.9295-1.9431 1.9295 1.2954 1.2863 3.2384-3.2158zm-6.153 3.859c-0.53823 0-0.97153 0.43028-0.97153 0.96475 0 0.53447 0.4333 0.96475 0.97153 0.96475s0.97153-0.43028 0.97153-0.96475c0-0.53447-0.4333-0.96475-0.97153-0.96475zm2.9146 3.859c-0.71764 0-1.2954 0.5737-1.2954 1.2863 0 0.71263 0.57774 1.2863 1.2954 1.2863s1.2954-0.5737 1.2954-1.2863c0-0.71263-0.57774-1.2863-1.2954-1.2863z" style="fill:#939393;stroke-width:.13068"/>
</g>
</g>
<path transform="matrix(.36943 0 0 .36943 .43418 .33403)" d="m4.7043 3.9815-0.012938 56.82h53.904l1.0222-2.8664s-23.875 0.76639-32.844-4.1404c-10.516-5.7529-15.372-49.697-15.372-49.697z" style="fill:url(#linearGradient3403);mix-blend-mode:normal;stroke-linejoin:round;stroke-width:1.1624;stroke:url(#linearGradient20558)"/>
<rect transform="matrix(.34608 0 0 .34537 1.0549 1.0805)" x="1.0324" y=".59551" width="62.567" height="62.867" rx="5.803" ry="6.2447" style="fill:none;stroke-linejoin:round;stroke-miterlimit:7.8;stroke-opacity:.99515;stroke-width:3.7137;stroke:url(#linearGradient4557)"/>
</svg>
