<?xml version="1.0" encoding="UTF-8" standalone="no"?>
<svg
   viewBox="0 0 48 48"
   version="1.1"
   id="svg12"
   width="48"
   height="48"
   xmlns:xlink="http://www.w3.org/1999/xlink"
   xmlns="http://www.w3.org/2000/svg"
   xmlns:svg="http://www.w3.org/2000/svg">
  <defs
     id="defs3051">
    <linearGradient
       id="linearGradient25153">
      <stop
         style="stop-color:#1b1b1b;stop-opacity:1"
         offset="0"
         id="stop25149" />
      <stop
         style="stop-color:#090909;stop-opacity:0.24540505"
         offset="0.49971318"
         id="stop1797" />
      <stop
         style="stop-color:#010101;stop-opacity:0.23888743"
         offset="0.9430303"
         id="stop2247" />
      <stop
         style="stop-color:#000000;stop-opacity:0.8012926"
         offset="1"
         id="stop25151" />
    </linearGradient>
    <linearGradient
       id="linearGradient14607">
      <stop
         style="stop-color:#4f5152;stop-opacity:1"
         offset="0"
         id="stop14603" />
      <stop
         style="stop-color:#010501;stop-opacity:1"
         offset="1"
         id="stop14605" />
    </linearGradient>
    <style
       type="text/css"
       id="current-color-scheme">
      .ColorScheme-Highlight {
        color:#3daee9;
      }
      </style>
    <filter
       height="1.0449693"
       y="-0.026935052"
       width="1.0344187"
       x="-0.017208866"
       id="filter940"
       style="color-interpolation-filters:sRGB">
      <feGaussianBlur
         id="feGaussianBlur942"
         stdDeviation="0.28795822" />
    </filter>
    <linearGradient
       gradientTransform="matrix(1.0005668,0,0,0.8509446,-0.23612742,72.315207)"
       gradientUnits="userSpaceOnUse"
       y2="492.39743"
       x2="437.78555"
       y1="555.7431"
       x1="408.33118"
       id="linearGradient6218"
       xlink:href="#linearGradient42869" />
    <linearGradient
       id="linearGradient42869">
      <stop
         style="stop-color:#353a3f;stop-opacity:0.99607843"
         offset="0"
         id="stop42865" />
      <stop
         style="stop-color:#272727;stop-opacity:0.98876405"
         offset="1"
         id="stop42867" />
    </linearGradient>
    <filter
       height="1.0667278"
       y="-0.033363852"
       width="1.0561312"
       x="-0.028065609"
       id="filter2714"
       style="color-interpolation-filters:sRGB">
      <feGaussianBlur
         id="feGaussianBlur2716"
         stdDeviation="0.56332734" />
    </filter>
    <linearGradient
       gradientUnits="userSpaceOnUse"
       y2="539.64374"
       x2="414.83517"
       y1="501.65286"
       x1="415.07861"
       id="linearGradient850"
       xlink:href="#linearGradient848" />
    <linearGradient
       id="linearGradient848">
      <stop
         id="stop844"
         offset="0"
         style="stop-color:#57595a;stop-opacity:0.99607843" />
      <stop
         id="stop846"
         offset="1"
         style="stop-color:#000000;stop-opacity:0.42696628" />
    </linearGradient>
    <filter
       height="1.03215"
       y="-0.025901777"
       width="1.0283593"
       x="-0.01417968"
       id="filter2706"
       style="color-interpolation-filters:sRGB">
      <feGaussianBlur
         id="feGaussianBlur2708"
         stdDeviation="0.140357" />
    </filter>
    <radialGradient
       gradientUnits="userSpaceOnUse"
       gradientTransform="matrix(-1.0705868e-4,0.04846987,-1.0235483,-0.0023723,538.49225,-12.44815)"
       r="11.24949"
       fy="485.79099"
       fx="397.99051"
       cy="485.79099"
       cx="397.99051"
       id="radialGradient6178-3"
       xlink:href="#linearGradient880" />
    <linearGradient
       id="linearGradient880">
      <stop
         style="stop-color:#d8dbd8;stop-opacity:1"
         offset="0"
         id="stop876" />
      <stop
         style="stop-color:#272727;stop-opacity:0.98876405"
         offset="1"
         id="stop878" />
    </linearGradient>
    <filter
       height="1.0707442"
       y="-0.035372174"
       width="1.0508627"
       x="-0.025431326"
       id="filter1073"
       style="color-interpolation-filters:sRGB">
      <feGaussianBlur
         id="feGaussianBlur1075"
         stdDeviation="0.39283137" />
    </filter>
    <linearGradient
       gradientUnits="userSpaceOnUse"
       y2="506.87347"
       x2="414.47186"
       y1="539.61627"
       x1="406.45694"
       id="linearGradient2676"
       xlink:href="#linearGradient2668" />
    <linearGradient
       id="linearGradient2668">
      <stop
         id="stop2664"
         offset="0"
         style="stop-color:#1a1b1b;stop-opacity:1" />
      <stop
         id="stop2666"
         offset="1"
         style="stop-color:#474747;stop-opacity:1" />
    </linearGradient>
    <linearGradient
       gradientUnits="userSpaceOnUse"
       y2="505.62521"
       x2="404.77097"
       y1="530.01428"
       x1="395.58017"
       id="linearGradient2684"
       xlink:href="#linearGradient2682" />
    <linearGradient
       id="linearGradient2682">
      <stop
         id="stop2678"
         offset="0"
         style="stop-color:#000000;stop-opacity:1;" />
      <stop
         id="stop2680"
         offset="1"
         style="stop-color:#c3c3c3;stop-opacity:0" />
    </linearGradient>
    <filter
       height="1.0397525"
       y="-0.019876304"
       width="1.0307531"
       x="-0.015376566"
       id="filter2690"
       style="color-interpolation-filters:sRGB">
      <feGaussianBlur
         id="feGaussianBlur2692"
         stdDeviation="0.13069192" />
    </filter>
    <filter
       style="color-interpolation-filters:sRGB"
       id="filter24684"
       x="-0.024959943"
       y="-0.15409672"
       width="1.0499199"
       height="1.3081934">
      <feGaussianBlur
         stdDeviation="0.21554955"
         id="feGaussianBlur24686" />
    </filter>
    <linearGradient
       xlink:href="#linearGradient14607"
       id="linearGradient25029"
       gradientUnits="userSpaceOnUse"
       x1="12.020759"
       y1="7.2813473"
       x2="12.011944"
       y2="-0.7256338" />
    <linearGradient
       xlink:href="#linearGradient25153"
       id="linearGradient25155"
       x1="21.812489"
       y1="3.9335968"
       x2="4.6537294"
       y2="4.034317"
       gradientUnits="userSpaceOnUse" />
    <filter
       style="color-interpolation-filters:sRGB"
       id="filter30328"
       x="-0.060622242"
       y="-0.37427998"
       width="1.121405"
       height="1.7485472">
      <feGaussianBlur
         stdDeviation="0.2547727"
         id="feGaussianBlur30330" />
    </filter>
  </defs>
  <path
     transform="matrix(0.7312589,0,0,0.74487565,-280.96527,-360.55865)"
     id="path6220-2"
     d="m 386.25703,524.61791 0.77838,-38.71157 22.03057,0.10242 3.50545,3.40716 c 0,0 18.10956,0.35097 27.33843,0.35097 2.88877,0 6.71919,2.18928 6.71919,7.16894 0,13.1364 0.12174,26.49022 0.12174,26.49022"
     style="display:inline;fill:none;fill-opacity:1;stroke:#000000;stroke-width:0.7;stroke-linecap:butt;stroke-linejoin:miter;stroke-miterlimit:4;stroke-dasharray:none;stroke-opacity:1;filter:url(#filter940)" />
  <path
     transform="matrix(0.7328543,0,0,0.7450537,-281.00792,-360.45073)"
     d="m 386.39384,486.19622 c 0,0 -0.10293,36.25523 -0.10293,49.28612 0,1.03908 0.48232,1.87652 1.08144,1.87652 h 58.39816 c 0.59911,0 1.34832,-0.83745 1.34161,-1.87652 0,0 -0.0268,-27.28049 -0.0268,-40.09035 0,-3.00572 -3.75125,-6.05898 -6.82146,-6.05898 -9.03444,0 -27.69471,-0.22684 -27.69471,-0.22684 l -4.13226,-2.8228 z"
     id="rect4180"
     style="display:inline;fill:url(#linearGradient6218);fill-opacity:1;stroke:#000a00;stroke-width:0.71;stroke-linecap:round;stroke-linejoin:bevel;stroke-miterlimit:4;stroke-dasharray:none;stroke-opacity:1;filter:url(#filter2714)" />
  <path
     transform="matrix(0.7353552,0,0,0.47665681,-282.58469,-229.03843)"
     id="path6220"
     d="m 387.04904,540.31904 0.076,-50.36617 20.73641,0.0901 1.41588,-3.75705 2.94655,4.20719 c 0,0 17.40991,0.34184 27.40616,0.34184 3.61218,0 6.32049,4.0507 6.32049,8.9451 0,12.76833 0.1165,38.20486 0.1165,38.20486"
     style="display:inline;fill:none;fill-opacity:1;stroke:url(#linearGradient850);stroke-width:1px;stroke-linecap:butt;stroke-linejoin:miter;stroke-opacity:1;filter:url(#filter2706)" />
  <path
     d="m 27.921427,5.4393704 v 0.380281 h 0.44553 l 25.49468,0.167876 h 0.44553 l -0.5452,-0.548167 h -0.44553 -24.94948 z"
     id="path4151-2-3-5"
     style="display:inline;fill:url(#radialGradient6178-3);fill-opacity:1;stroke-width:0.665905"
     transform="matrix(0.7481832,0,0,0.7481832,0.11682151,0.0012592)" />
  <path
     transform="matrix(0.73346775,0,0,0.80873555,-281.33256,-395.1396)"
     style="display:inline;fill:none;fill-opacity:1;stroke:#000000;stroke-width:1.29693;stroke-linejoin:round;stroke-miterlimit:4;stroke-dasharray:none;stroke-opacity:1;filter:url(#filter1073)"
     id="path952"
     d="m 385.15633,501.64377 c 0,13.8136 0.0547,36.33599 0.0547,39.23108 0,2.8951 4.24366,4.43675 7.16501,4.43675 9.65801,10e-4 39.7482,-0.008 48.58578,-0.009 2.73024,-2.9e-4 6.73958,-3.06897 6.73961,-5.5723 4.6e-4,-8.01206 0.0257,-31.8933 0.0257,-31.8933 -21.39075,-0.31416 -23.00468,-0.49626 -28.48106,-3.68616 -5.47637,-3.18989 -6.84254,-3.7889 -8.06758,-3.79572 -8.19718,-0.0456 -25.32423,-0.0254 -25.32423,-0.0254 0,0 -0.68932,-0.094 -0.698,1.31379 z" />
  <path
     transform="matrix(0.73346775,0,0,0.7465797,-281.13373,-361.98953)"
     style="display:inline;fill:url(#linearGradient2676);fill-opacity:1;stroke:url(#linearGradient2684);stroke-width:1.29693;stroke-linejoin:round;stroke-miterlimit:4;stroke-dasharray:none;stroke-opacity:1;filter:url(#filter2690)"
     id="path952-7"
     d="m 385.15633,498.35321 c 0,13.8136 0.0547,28.03631 0.0547,40.41503 0,6.52543 4.5187,6.67224 7.29021,6.67224 9.65801,10e-4 38.73653,0 47.57411,0 4.29557,0 7.62608,-4.19689 7.62608,-7.71933 4.6e-4,-8.01206 0.0257,-32.38987 0.0257,-32.38987 -22.81136,0 -23.57647,-0.13663 -31.18143,-4.28484 -5.62028,-3.06564 -5.63216,-3.98161 -7.35295,-3.98161 -8.19718,-0.0456 -23.33849,-0.0254 -23.33849,-0.0254 0,0 -0.68932,-0.094 -0.698,1.31379 z" />
  <path
     style="display:inline;mix-blend-mode:normal;fill:currentColor;stroke:none;stroke-width:0.390115;stroke-miterlimit:4;stroke-dasharray:none;filter:url(#filter24684)"
     d="M 3.1185124,2.3943988 C 2.9060465,2.5755409 2.8406898,2.662737 2.8406898,3.1723004 c 0,0.7470828 0.00654,2.4587688 0.00654,2.4587688 H 22.075746 l 0.993727,-1.6353471 c 0,0 0.682408,-0.9793708 0.44826,-1.410869 -0.123324,-0.2272669 -0.513311,-0.2662912 -1.075516,-0.2662912 -0.820732,0 -18.1692197,-0.041813 -18.4326201,-0.041813 0,0 -0.7160982,-0.031538 -0.8910845,0.1176499 z"
     class="ColorScheme-Highlight"
     id="path4"
     transform="matrix(0.7481832,0,0,0.7481832,0.11682151,0.0012592)" />
  <path
     style="color:#3daee9;display:inline;fill:url(#linearGradient25155);fill-opacity:1;stroke:url(#linearGradient25029);stroke-width:1.29;stroke-miterlimit:4;stroke-dasharray:none;filter:url(#filter30328)"
     d="M 3.1185124,2.3943988 C 2.9060465,2.5755409 2.8406898,2.662737 2.8406898,3.1723004 c 0,0.7470828 0.00654,2.4587688 0.00654,2.4587688 H 22.075746 l 0.993727,-1.6353471 c 0,0 0.682408,-0.9793708 0.44826,-1.410869 -0.123324,-0.2272669 -0.513311,-0.2662912 -1.075516,-0.2662912 -0.820732,0 -18.1692197,-0.041813 -18.4326201,-0.041813 0,0 -0.7160982,-0.031538 -0.8910845,0.1176499 z"
     id="path4-0"
     transform="matrix(0.7481832,0,0,0.7481832,0.11682151,0.0012592)" />
  <g
     id="g905"
     transform="matrix(0.74817433,0,0,0.74729157,0.0564879,0.00827909)">
    <path
       d="m -9.0151968,39.454379 c -0.533896,-1.265319 -1.3218592,-2.404083 -2.2876642,-3.391037 -0.991374,-0.986959 -2.135206,-1.7462 -3.406179,-2.277504 -1.322044,-0.556927 -2.719992,-0.860567 -4.168991,-0.860567 -1.44901,0 -2.84696,0.30363 -4.168809,0.86039 -1.270982,0.531521 -2.414815,1.315982 -3.406178,2.277507 -0.991373,0.986958 -1.754003,2.125703 -2.287665,3.391045 -0.559414,1.316167 -0.864407,2.707897 -0.864407,4.150468 0,1.44256 0.304983,2.834292 0.864223,4.150285 0.533887,1.265312 1.321859,2.404076 2.287665,3.391039 0.991363,0.98695 2.135203,1.746192 3.40618,2.277507 1.321865,0.556743 2.719981,0.835111 4.168808,0.835111 1.448999,0 2.846947,-0.278378 4.168807,-0.835111 1.270973,-0.531532 2.414813,-1.315989 3.406179,-2.277507 0.991362,-0.986963 1.7539912,-2.125727 2.2876782,-3.391039 0.559231,-1.315993 0.838841,-2.707906 0.838841,-4.150285 3.66e-4,-1.442571 -0.279277,-2.834301 -0.838538,-4.150302 z"
       id="path67-3"
       style="fill:#646464;fill-opacity:1;stroke-width:0.0452917"
       transform="translate(37.857305,0.21596866)" />
    <path
       style="color:#eff0f1;isolation:isolate;fill:#262727;fill-opacity:1;stroke-width:0.908961"
       d="m 15.838901,50.670732 c 0.293193,-0.01387 0.559876,-0.173719 0.705943,-0.426081 0.114642,-0.196293 0.146058,-0.428632 0.08749,-0.64752 -0.06006,-0.218944 -0.203668,-0.40525 -0.401843,-0.519279 -0.198177,-0.113561 -0.433739,-0.143774 -0.65472,-0.0856 -0.220116,0.05915 -0.409112,0.201663 -0.523301,0.398012 -0.11465,0.196222 -0.145199,0.428693 -0.08651,0.647559 0.05921,0.21885 0.203634,0.405308 0.401817,0.518243 0.142458,0.0818 0.306803,0.121878 0.471225,0.114537 z m 5.546901,-1.334208 c 0.144293,0 0.283078,-0.05797 0.385382,-0.158271 0.1027,-0.101634 0.158895,-0.237887 0.158895,-0.380774 0,-0.297602 -0.243863,-0.538189 -0.544277,-0.538189 -0.299547,0 -0.542487,0.2415 -0.542487,0.538189 0,0.296615 0.24294,0.53816 0.542487,0.539045 z m -1.368926,-0.137499 c 0.126125,0 0.247515,-0.04895 0.336065,-0.137387 0.09,-0.0895 0.139743,-0.208131 0.138834,-0.332864 0,-0.259681 -0.212761,-0.469501 -0.47486,-0.469501 -0.261197,0 -0.473035,0.210775 -0.473925,0.469501 0,0.259511 0.211841,0.470267 0.473925,0.470267 z m 2.959744,-0.05309 c 0.169908,0 0.33338,-0.06609 0.45296,-0.185414 0.12012,-0.118994 0.188083,-0.281307 0.188083,-0.449518 0,-0.168315 -0.06683,-0.329268 -0.188083,-0.448695 -0.119163,-0.118256 -0.283052,-0.185393 -0.45296,-0.185393 -0.169885,0 -0.332386,0.06608 -0.452988,0.18539 -0.120002,0.118982 -0.187209,0.280379 -0.187209,0.448695 0,0.168211 0.06583,0.330097 0.187209,0.449517 0.120119,0.117956 0.283103,0.185414 0.452988,0.185414 z M 18.890027,48.81661 c 0.228248,0 0.412728,-0.182715 0.412728,-0.40788 6.44e-4,-0.108133 -0.04417,-0.212601 -0.120133,-0.289433 -0.07675,-0.07636 -0.182606,-0.119978 -0.292119,-0.118874 -0.227456,0 -0.411895,0.182713 -0.411895,0.408841 6.43e-4,0.225156 0.184439,0.407003 0.411895,0.40786 z m -3.288554,-0.443225 c 0.250248,-0.01387 0.478565,-0.149174 0.603633,-0.364507 0.203631,-0.349993 0.08136,-0.79594 -0.270294,-0.99765 -0.352501,-0.201704 -0.802727,-0.08181 -1.007309,0.266869 -0.09767,0.168237 -0.12405,0.367229 -0.07429,0.554457 0.05026,0.187252 0.174469,0.347348 0.343382,0.444103 0.122906,0.07015 0.262975,0.103773 0.404556,0.09668 z m 2.430992,-0.07666 c 0.09417,0 0.186285,-0.03621 0.25385,-0.103461 0.06608,-0.06527 0.104915,-0.156463 0.104915,-0.250508 0,-0.09317 -0.03668,-0.184562 -0.104915,-0.25051 -0.06696,-0.06621 -0.157984,-0.103993 -0.25385,-0.103993 -0.09363,0 -0.185361,0.03748 -0.252023,0.103993 -0.06683,0.06608 -0.104648,0.156466 -0.104648,0.25051 0,0.195396 0.159822,0.353657 0.356113,0.353657 z m -4.305812,-0.185503 c 0.250273,-0.01388 0.477681,-0.149236 0.603648,-0.364497 0.202692,-0.349155 0.08111,-0.795113 -0.270382,-0.99763 -0.168979,-0.09666 -0.370673,-0.122839 -0.559803,-0.07382 -0.188917,0.04964 -0.349671,0.172722 -0.447388,0.340998 -0.203651,0.349073 -0.08109,0.795044 0.270226,0.996727 0.122096,0.07162 0.262114,0.103642 0.403699,0.09808 z m 7.411686,-0.335536 c 0.299494,0 0.543324,-0.241521 0.542421,-0.539114 0,-0.296682 -0.242927,-0.537228 -0.542421,-0.537228 -0.300468,0 -0.544248,0.240546 -0.544248,0.537228 0,0.143837 0.05767,0.280404 0.158887,0.381716 0.102685,0.101652 0.241009,0.157398 0.385361,0.157398 z m -3.741512,-0.09548 c 0.08005,6.41e-4 0.157081,-0.03144 0.21373,-0.08726 0.05743,-0.05681 0.08958,-0.1317 0.08958,-0.211633 0,-0.07904 -0.03232,-0.155539 -0.08958,-0.211592 -0.05767,-0.0568 -0.133114,-0.08864 -0.21373,-0.08864 -0.07883,0 -0.157064,0.03207 -0.213636,0.08864 -0.05742,0.0568 -0.08829,0.131841 -0.08829,0.211592 0,0.07919 0.03199,0.15559 0.08829,0.211633 0.05753,0.0568 0.134078,0.08864 0.213636,0.08726 z m 2.372546,-0.03972 c 0.261177,-6.4e-4 0.474003,-0.210738 0.474003,-0.470406 -6.45e-4,-0.259539 -0.212826,-0.46945 -0.474003,-0.46945 -0.262071,0 -0.474803,0.209911 -0.474803,0.46945 -6.44e-4,0.124919 0.04869,0.244248 0.138683,0.332915 0.08958,0.08854 0.210071,0.1375 0.336046,0.1375 z m 2.957923,-0.05311 c 0.169878,0 0.333317,-0.06608 0.453888,-0.186352 0.119433,-0.117967 0.187261,-0.280402 0.187261,-0.448617 0,-0.168214 -0.06682,-0.329241 -0.187261,-0.44862 -0.120134,-0.119092 -0.28401,-0.186349 -0.453888,-0.186349 -0.169817,0 -0.332386,0.06621 -0.452887,0.186351 -0.119152,0.118819 -0.187272,0.280406 -0.187272,0.448619 0,0.168215 0.06655,0.330114 0.187272,0.448618 0.119989,0.118973 0.28307,0.186352 0.452887,0.186352 z m -4.084792,-0.329338 c 0.227379,-6.16e-4 0.41095,-0.183531 0.411876,-0.408763 0,-0.225271 -0.184497,-0.407953 -0.411876,-0.408837 -0.109101,0 -0.21458,0.0443 -0.292256,0.11993 -0.07726,0.07617 -0.121253,0.180897 -0.121253,0.288578 6.44e-4,0.22606 0.185413,0.408754 0.413724,0.408754 z m 5.82727,-0.301189 c 0.407311,0 0.737875,-0.327478 0.737875,-0.730818 0,-0.403413 -0.330564,-0.729957 -0.737875,-0.729957 -0.407315,0 -0.736959,0.326544 -0.736959,0.729957 0,0.40334 0.329644,0.730818 0.736959,0.730818 z m -6.684832,-0.218922 c 0.197281,0 0.357115,-0.158339 0.357115,-0.353693 0,-0.195374 -0.159834,-0.353603 -0.357115,-0.353603 -0.197166,0 -0.357059,0.158229 -0.357059,0.353603 0,0.195354 0.159893,0.353693 0.357059,0.353693 z m -1.951491,-0.315651 c 0.217352,-0.01388 0.415499,-0.129769 0.524169,-0.31566 0.08563,-0.146531 0.108295,-0.31933 0.06351,-0.482127 -0.04454,-0.162861 -0.151582,-0.30126 -0.298625,-0.385323 -0.306875,-0.175444 -0.697706,-0.07166 -0.874892,0.232431 -0.176158,0.303017 -0.07327,0.691009 0.233751,0.866547 0.106262,0.06156 0.228309,0.09013 0.351577,0.08472 z M 13.95869,46.160859 c 0.217249,-0.01388 0.414569,-0.129772 0.524087,-0.316604 0.08564,-0.145635 0.107328,-0.319243 0.0637,-0.481161 -0.04471,-0.162835 -0.150653,-0.302068 -0.298608,-0.386237 -0.147017,-0.08476 -0.322346,-0.106227 -0.485849,-0.06253 -0.164414,0.04432 -0.30511,0.150173 -0.389984,0.295765 -0.176262,0.303874 -0.07249,0.691961 0.235576,0.866559 0.10552,0.06206 0.228368,0.09029 0.350714,0.08557 z m 6.470048,-0.121746 c 0.300512,0 0.544244,-0.240605 0.544244,-0.538244 0,-0.142862 -0.05743,-0.279477 -0.158863,-0.380771 -0.102702,-0.101654 -0.241059,-0.158264 -0.385381,-0.158264 -0.144242,0 -0.282189,0.05793 -0.384456,0.158264 -0.102687,0.101646 -0.159825,0.237909 -0.158901,0.380771 0,0.297639 0.243866,0.538244 0.543357,0.538244 z m -1.368901,-0.135565 c 0.126141,0 0.247515,-0.04936 0.336042,-0.138357 0.09041,-0.08865 0.13882,-0.20809 0.13882,-0.332031 0,-0.124778 -0.04906,-0.245124 -0.13882,-0.332842 -0.08958,-0.08946 -0.21,-0.138345 -0.336042,-0.138345 -0.262046,6.42e-4 -0.473962,0.211662 -0.473962,0.471215 0,0.25876 0.211916,0.469434 0.473962,0.470406 z m 2.95971,-0.05671 c 0.169891,0 0.333391,-0.0661 0.453031,-0.185408 0.119993,-0.118951 0.188089,-0.2804 0.188089,-0.448626 0,-0.168233 -0.06676,-0.330172 -0.188089,-0.448677 -0.119157,-0.118959 -0.28314,-0.186307 -0.453031,-0.186307 -0.169853,0 -0.332357,0.06624 -0.452897,0.186308 -0.119164,0.118261 -0.187256,0.280445 -0.187256,0.448677 0,0.168241 0.06676,0.329217 0.187256,0.448626 0.119987,0.118271 0.283044,0.185409 0.452897,0.185407 z m -9.551243,-0.253233 c 0.218147,-0.01389 0.416306,-0.129638 0.525026,-0.316617 0.08572,-0.145605 0.108089,-0.319318 0.0637,-0.482055 -0.04468,-0.162875 -0.151646,-0.301283 -0.298609,-0.385383 -0.306935,-0.174545 -0.697758,-0.07147 -0.874992,0.232465 -0.176108,0.303945 -0.07316,0.691044 0.233849,0.866524 0.10614,0.06166 0.228178,0.09032 0.350657,0.08573 z m 5.464578,-0.07593 c 0.109258,0 0.214664,-0.04341 0.292245,-0.118828 0.07727,-0.07642 0.121253,-0.180954 0.121253,-0.289444 -6.42e-4,-0.225243 -0.185345,-0.407913 -0.41374,-0.407913 -0.227377,0 -0.410884,0.18267 -0.411835,0.407913 0,0.226098 0.184458,0.408805 0.411835,0.408805 z m 5.829135,-0.301135 c 0.407266,0 0.736957,-0.326517 0.736957,-0.729964 0,-0.403391 -0.329691,-0.730842 -0.736957,-0.730842 -0.407264,0 -0.736942,0.327451 -0.736942,0.730842 0,0.403447 0.329678,0.729964 0.736942,0.729964 z m -7.389734,-0.398846 c 0.184418,-0.01385 0.352483,-0.109127 0.445595,-0.26863 0.149785,-0.257798 0.06099,-0.58699 -0.199951,-0.735342 -0.259424,-0.148342 -0.591765,-0.06043 -0.742465,0.197141 -0.149773,0.257789 -0.06179,0.587045 0.198194,0.735333 0.09059,0.05114 0.194478,0.07671 0.298627,0.07213 z M 14.49745,44.556363 c 0.185354,-0.01388 0.352446,-0.110369 0.444663,-0.269646 0.149818,-0.256835 0.06232,-0.586097 -0.198136,-0.73534 -0.125061,-0.07243 -0.273993,-0.09029 -0.412708,-0.05253 -0.139815,0.03625 -0.25854,0.127691 -0.33062,0.251411 -0.149805,0.256945 -0.06231,0.586186 0.199023,0.735361 0.09071,0.05112 0.19359,0.07594 0.297778,0.07213 z m 5.862822,-0.427951 c 0.06908,-6.21e-4 0.136999,-0.02076 0.197246,-0.05499 0.197272,-0.113418 0.263948,-0.362716 0.150685,-0.558071 -0.114695,-0.1954 -0.367119,-0.261386 -0.563452,-0.149213 -0.197277,0.113425 -0.264898,0.363542 -0.150704,0.558067 0.07577,0.129771 0.215496,0.208015 0.366225,0.204391 z m 5.187987,-0.07532 c 0.228292,0 0.447471,-0.09029 0.609069,-0.250545 0.16166,-0.160163 0.252088,-0.377227 0.252088,-0.603367 0,-0.471224 -0.385387,-0.853813 -0.861157,-0.853813 -0.229217,0 -0.448418,0.08989 -0.610033,0.24964 -0.161576,0.160094 -0.253024,0.377131 -0.253024,0.604173 0,0.22614 0.09069,0.443204 0.253024,0.604228 0.161615,0.16004 0.380816,0.249653 0.610033,0.249653 z m -12.540304,-0.06331 c 0.184519,-0.01388 0.35245,-0.110238 0.445683,-0.269541 0.14968,-0.256849 0.06099,-0.586159 -0.20001,-0.735378 -0.260298,-0.148327 -0.591826,-0.06045 -0.742489,0.198068 -0.149812,0.256952 -0.06192,0.586115 0.198215,0.735391 0.09017,0.05111 0.194565,0.0763 0.298601,0.07202 z m 4.105801,-0.379016 c 0.160732,-0.01389 0.307845,-0.09542 0.388096,-0.235171 0.06326,-0.107191 0.07996,-0.236026 0.04839,-0.356359 -0.03227,-0.120896 -0.112457,-0.223382 -0.220979,-0.285786 -0.109101,-0.06208 -0.239281,-0.07907 -0.36074,-0.04827 -0.12126,0.03209 -0.225591,0.111339 -0.2886,0.218935 -0.06283,0.108302 -0.07978,0.237012 -0.04814,0.357294 0.03383,0.119932 0.112619,0.223409 0.221921,0.285853 0.07771,0.04585 0.169009,0.06622 0.260224,0.06208 z m 4.432734,-0.04586 c 0.06099,-0.0023 0.119441,-0.01873 0.170808,-0.04839 0.08164,-0.04762 0.142495,-0.123809 0.167134,-0.214333 0.02331,-0.09071 0.01398,-0.18726 -0.03576,-0.26864 -0.04861,-0.08058 -0.125017,-0.1402 -0.217325,-0.164639 -0.09125,-0.02363 -0.189045,-0.01389 -0.271278,0.03489 -0.169812,0.09915 -0.228291,0.313835 -0.129904,0.483021 0.06396,0.112455 0.186294,0.180004 0.3169,0.177306 z m -6.308485,-0.217959 c 0.161655,-0.01388 0.30774,-0.09431 0.388154,-0.233408 0.06351,-0.107184 0.07987,-0.236043 0.04878,-0.35728 -0.03251,-0.119924 -0.112483,-0.223434 -0.221012,-0.285803 -0.108267,-0.06207 -0.238362,-0.07797 -0.360652,-0.04776 -0.121154,0.03364 -0.224655,0.111341 -0.287737,0.219814 -0.130878,0.22434 -0.05204,0.511971 0.173596,0.641303 0.07764,0.04575 0.168909,0.06635 0.259324,0.06207 z m 7.376048,-0.0084 c 0.04986,-0.0023 0.100182,-0.01663 0.143416,-0.03993 0.144253,-0.08171 0.193639,-0.265097 0.110231,-0.407956 -0.03926,-0.06828 -0.105621,-0.118964 -0.183533,-0.139316 -0.07676,-0.02087 -0.159782,-0.01389 -0.229249,0.03089 -0.0691,0.03878 -0.119163,0.104424 -0.14063,0.181806 -0.02105,0.07642 -0.01399,0.15829 0.03193,0.22706 0.05377,0.09334 0.157938,0.151896 0.268491,0.149206 z m -2.535041,-0.280516 c 0.07979,-0.0023 0.157985,-0.02167 0.227399,-0.06208 0.108132,-0.06254 0.188063,-0.165463 0.220939,-0.285777 0.03391,-0.119937 0.01652,-0.248798 -0.04813,-0.357346 -0.0629,-0.107459 -0.16715,-0.186303 -0.288587,-0.21789 -0.121106,-0.03363 -0.251162,-0.01659 -0.359809,0.04776 -0.22738,0.130455 -0.305034,0.416957 -0.174414,0.642147 0.0875,0.148238 0.248389,0.238767 0.421834,0.234177 z m -6.329484,-0.282094 c 0.160687,-0.01389 0.306852,-0.09431 0.388098,-0.233417 0.0627,-0.108017 0.07971,-0.236945 0.04801,-0.357307 -0.03397,-0.119934 -0.112478,-0.223322 -0.220889,-0.285764 -0.10922,-0.06207 -0.23938,-0.07796 -0.360838,-0.04777 -0.121143,0.03348 -0.225481,0.111343 -0.288492,0.21976 -0.130886,0.224347 -0.05204,0.511949 0.173555,0.641304 0.07886,0.04572 0.169811,0.06608 0.261062,0.06209 z m 4.206184,-0.03625 c 0.140686,-0.01112 0.26761,-0.08476 0.337972,-0.204456 0.05304,-0.09335 0.06909,-0.205323 0.04026,-0.310229 -0.03053,-0.10442 -0.09907,-0.193574 -0.192682,-0.247783 -0.09418,-0.05302 -0.207298,-0.06826 -0.313242,-0.03974 -0.105202,0.02823 -0.195426,0.09667 -0.250181,0.190878 -0.0537,0.09334 -0.06902,0.20533 -0.04026,0.310232 0.02861,0.10401 0.09768,0.193593 0.192662,0.247797 0.06746,0.03813 0.146053,0.05865 0.225501,0.05316 z m 3.570736,-0.09085 c 0.06902,-0.0023 0.137005,-0.02076 0.197221,-0.05314 0.197263,-0.113553 0.264868,-0.363599 0.15068,-0.558123 -0.114698,-0.195363 -0.366132,-0.262277 -0.56343,-0.149179 -0.197275,0.113424 -0.264831,0.362668 -0.150681,0.558022 0.07659,0.128654 0.215507,0.206229 0.36621,0.203528 z m 1.26112,-0.07976 c 0.06099,-0.0023 0.118453,-0.01874 0.16987,-0.04839 0.08119,-0.04758 0.142457,-0.123807 0.167128,-0.214343 0.02418,-0.09071 0.01398,-0.187262 -0.03503,-0.268643 -0.04839,-0.08059 -0.126128,-0.141089 -0.2174,-0.164617 -0.09069,-0.02352 -0.189028,-0.01388 -0.271181,0.03488 -0.08135,0.04763 -0.141613,0.124779 -0.166239,0.215163 -0.02389,0.09016 -0.01399,0.187276 0.03576,0.268653 0.06397,0.11148 0.186382,0.179133 0.3169,0.176462 z m -6.70753,-0.08977 c 0.140624,-0.01384 0.267559,-0.08475 0.337836,-0.205263 0.114638,-0.19533 0.04749,-0.444987 -0.150727,-0.558162 -0.09414,-0.05239 -0.20727,-0.06829 -0.313198,-0.03878 -0.104761,0.0282 -0.195403,0.0968 -0.250181,0.189894 -0.114657,0.195394 -0.04749,0.445038 0.150695,0.558118 0.0674,0.03879 0.146991,0.05945 0.225575,0.05496 z m 3.377026,-0.558847 c 0.09098,-0.0023 0.17992,-0.02674 0.259396,-0.07299 0.25933,-0.148363 0.347897,-0.47758 0.198192,-0.735311 -0.149791,-0.256898 -0.482232,-0.345545 -0.742494,-0.197208 -0.125015,0.07214 -0.216429,0.189018 -0.253884,0.327434 -0.03674,0.138349 -0.01908,0.284893 0.0537,0.408898 0.10018,0.170902 0.284852,0.273948 0.483918,0.268578 z m -2.54423,0 c 0.122097,-0.0097 0.231986,-0.07242 0.293153,-0.17552 0.04839,-0.08072 0.06099,-0.178241 0.03574,-0.268672 -0.0237,-0.09085 -0.08563,-0.168185 -0.16714,-0.215225 -0.170775,-0.09667 -0.388106,-0.03831 -0.486844,0.130597 -0.04788,0.0798 -0.06099,0.177291 -0.03529,0.267707 0.02397,0.09113 0.08564,0.168229 0.166198,0.215251 0.05999,0.03454 0.127981,0.04901 0.195454,0.04706 z m -2.322299,-0.01389 c 0.140632,-0.01112 0.268504,-0.08336 0.33879,-0.204472 0.05298,-0.09265 0.06723,-0.205334 0.03907,-0.309306 -0.02848,-0.104563 -0.09767,-0.194424 -0.191724,-0.248768 -0.09435,-0.05239 -0.208211,-0.06828 -0.313224,-0.03975 -0.10552,0.02995 -0.196305,0.09805 -0.250253,0.19088 -0.05355,0.09319 -0.06923,0.205298 -0.04026,0.310261 0.02854,0.104138 0.09768,0.19441 0.19178,0.247839 0.06746,0.03831 0.146138,0.0588 0.225531,0.05314 z m 8.176964,-0.25611 c 0.0674,-0.0023 0.136045,-0.02076 0.196403,-0.05515 0.09432,-0.05267 0.163415,-0.142893 0.192676,-0.247819 0.02861,-0.104008 0.01399,-0.216215 -0.04026,-0.31026 -0.114684,-0.194525 -0.366175,-0.261418 -0.56345,-0.14923 -0.09418,0.05304 -0.16439,0.143793 -0.192726,0.248728 -0.02861,0.103723 -0.01398,0.216146 0.04026,0.310217 0.07586,0.128659 0.216401,0.207232 0.3671,0.203498 z m -1.520514,-0.07284 c 0.07886,-0.0023 0.157071,-0.0215 0.225559,-0.06207 0.109108,-0.06207 0.189083,-0.16459 0.221915,-0.284866 0.03231,-0.120899 0.01653,-0.24972 -0.04795,-0.357293 -0.06283,-0.108157 -0.167222,-0.187226 -0.288663,-0.219809 -0.122084,-0.03209 -0.251983,-0.01663 -0.360619,0.04777 -0.109103,0.06242 -0.189144,0.165566 -0.221941,0.285839 -0.03257,0.119928 -0.01524,0.248721 0.04833,0.35727 0.08818,0.149254 0.250214,0.238848 0.423745,0.234279 z m -5.822706,-0.228809 c 0.121154,-0.01111 0.231064,-0.07298 0.292243,-0.176369 0.04884,-0.08059 0.06099,-0.178184 0.03577,-0.268662 -0.02389,-0.09072 -0.08424,-0.168299 -0.166217,-0.215319 -0.08136,-0.04763 -0.179883,-0.06045 -0.271274,-0.03487 -0.09091,0.02402 -0.169759,0.08475 -0.217255,0.165576 -0.04862,0.08072 -0.06099,0.177264 -0.03535,0.26862 0.02389,0.09015 0.08406,0.167348 0.166201,0.214365 0.05999,0.03475 0.128108,0.04933 0.196431,0.04797 z m 0.806428,-0.320197 c 0.102538,-0.0084 0.195412,-0.06147 0.24752,-0.148379 0.08259,-0.14289 0.03378,-0.325544 -0.111401,-0.407928 -0.06902,-0.03976 -0.151594,-0.05082 -0.229249,-0.03113 -0.07708,0.02119 -0.143326,0.07161 -0.183565,0.139363 -0.03907,0.06827 -0.05026,0.150068 -0.03093,0.226912 0.02092,0.07671 0.07236,0.14206 0.140609,0.181854 0.05026,0.03008 0.108081,0.04342 0.166262,0.03812 z m 2.181713,-0.237025 c 0.106175,-0.0038 0.211794,-0.03349 0.304961,-0.08642 0.305898,-0.17546 0.4118,-0.562629 0.234668,-0.866511 -0.08564,-0.145647 -0.224624,-0.25235 -0.388971,-0.295775 -0.164388,-0.04521 -0.338824,-0.02099 -0.486745,0.06266 -0.147115,0.08475 -0.253915,0.222493 -0.297767,0.385313 -0.04463,0.162836 -0.0205,0.336518 0.06327,0.48207 0.117617,0.200805 0.335148,0.32209 0.569874,0.317549 z m 4.073791,-0.207973 c 0.08025,-0.0023 0.158023,-0.02168 0.227361,-0.0621 0.10827,-0.06208 0.189078,-0.164696 0.221091,-0.285944 0.034,-0.119928 0.01629,-0.248667 -0.04865,-0.356308 -0.06258,-0.108025 -0.166231,-0.187267 -0.288596,-0.219823 -0.121104,-0.03374 -0.251122,-0.01659 -0.359812,0.04796 -0.109111,0.06208 -0.189049,0.165432 -0.221901,0.285835 -0.03391,0.119933 -0.01668,0.248725 0.04833,0.357268 0.08735,0.14833 0.248421,0.238654 0.421893,0.234267 z m -1.862925,-0.14564 c 0.09098,-0.0023 0.18074,-0.02671 0.259333,-0.07226 0.125015,-0.07299 0.216451,-0.189923 0.252985,-0.327372 0.03668,-0.138348 0.01908,-0.285867 -0.05367,-0.409778 -0.149733,-0.256845 -0.482119,-0.34456 -0.742425,-0.196278 -0.25938,0.149286 -0.348863,0.478509 -0.199143,0.73535 0.100185,0.171086 0.285027,0.274111 0.484055,0.269605 z m -3.714119,-0.681991 c 0.123035,-0.0048 0.243872,-0.03639 0.350759,-0.09791 0.16978,-0.09681 0.293099,-0.256922 0.344206,-0.44412 0.05026,-0.187248 0.02389,-0.386259 -0.07437,-0.554406 -0.09767,-0.168304 -0.258415,-0.290421 -0.447463,-0.340149 -0.189068,-0.04965 -0.390811,-0.02352 -0.559742,0.07365 -0.352536,0.20178 -0.473079,0.647642 -0.269416,0.99678 0.134083,0.231525 0.386232,0.371763 0.655658,0.366306 z m 4.955169,-0.311151 c 0.09069,-0.0038 0.179924,-0.02671 0.259351,-0.07353 0.259354,-0.148402 0.347935,-0.477624 0.198186,-0.735359 -0.149809,-0.256989 -0.482203,-0.345633 -0.742438,-0.197295 -0.260325,0.148365 -0.348856,0.477545 -0.199113,0.735414 0.09906,0.170945 0.284873,0.274964 0.484014,0.270442 z m -2.285817,-0.13115 c 0.107293,-0.0038 0.212837,-0.03211 0.305938,-0.08601 0.305963,-0.174537 0.410952,-0.56261 0.234723,-0.86655 -0.08564,-0.145604 -0.225588,-0.252362 -0.389033,-0.295725 -0.164378,-0.0443 -0.33977,-0.02076 -0.486765,0.06252 -0.146977,0.08476 -0.254775,0.223393 -0.298634,0.386232 -0.04467,0.161966 -0.02049,0.335577 0.06396,0.481163 0.117479,0.200826 0.33508,0.322084 0.568914,0.316607 z M 14.89464,38.989862 c 0.14337,-0.0048 0.284945,-0.0443 0.409153,-0.115347 0.411855,-0.235215 0.553424,-0.75705 0.315945,-1.16501 -0.238368,-0.407904 -0.765208,-0.548202 -1.177147,-0.312015 -0.411882,0.235127 -0.552447,0.756986 -0.314953,1.164954 0.156952,0.270444 0.451032,0.434188 0.767002,0.426955 z m 5.924928,-0.670269 c 0.106318,-0.0038 0.211898,-0.03224 0.305029,-0.08559 0.306937,-0.174581 0.411896,-0.562687 0.23471,-0.866572 -0.08564,-0.145632 -0.224673,-0.252348 -0.389047,-0.295794 -0.164326,-0.0442 -0.338762,-0.02036 -0.486699,0.06266 -0.147049,0.08475 -0.253865,0.222501 -0.297752,0.385335 -0.04509,0.162815 -0.02079,0.3365 0.0635,0.482144 0.117906,0.200793 0.336048,0.321955 0.569796,0.316522 z m -2.744202,-0.04169 c 0.122923,-0.0038 0.244773,-0.03638 0.350654,-0.09791 0.353486,-0.201656 0.473945,-0.647605 0.271276,-0.997724 -0.09767,-0.167221 -0.259391,-0.290233 -0.448409,-0.340926 -0.189061,-0.04888 -0.389964,-0.02305 -0.559774,0.07352 -0.169825,0.09681 -0.293166,0.256849 -0.343373,0.44413 -0.05026,0.187269 -0.02331,0.386205 0.07419,0.554469 0.135071,0.230677 0.386286,0.370868 0.655691,0.364498 z"
       id="g907" />
  </g>
</svg>
