<?xml version="1.0" encoding="UTF-8" standalone="no"?>
<svg
   viewBox="0 0 48 48"
   version="1.1"
   id="svg12"
   width="48"
   height="48"
   xmlns:xlink="http://www.w3.org/1999/xlink"
   xmlns="http://www.w3.org/2000/svg"
   xmlns:svg="http://www.w3.org/2000/svg">
  <defs
     id="defs3051">
    <linearGradient
       id="linearGradient25153">
      <stop
         style="stop-color:#1b1b1b;stop-opacity:1"
         offset="0"
         id="stop25149" />
      <stop
         style="stop-color:#090909;stop-opacity:0.24540505"
         offset="0.49971318"
         id="stop1797" />
      <stop
         style="stop-color:#010101;stop-opacity:0.23888743"
         offset="0.9430303"
         id="stop2247" />
      <stop
         style="stop-color:#000000;stop-opacity:0.8012926"
         offset="1"
         id="stop25151" />
    </linearGradient>
    <linearGradient
       id="linearGradient14607">
      <stop
         style="stop-color:#4f5152;stop-opacity:1"
         offset="0"
         id="stop14603" />
      <stop
         style="stop-color:#010501;stop-opacity:1"
         offset="1"
         id="stop14605" />
    </linearGradient>
    <style
       type="text/css"
       id="current-color-scheme">
      .ColorScheme-Highlight {
        color:#3daee9;
      }
      </style>
    <filter
       height="1.0449693"
       y="-0.026935052"
       width="1.0344187"
       x="-0.017208866"
       id="filter940"
       style="color-interpolation-filters:sRGB">
      <feGaussianBlur
         id="feGaussianBlur942"
         stdDeviation="0.28795822" />
    </filter>
    <linearGradient
       gradientTransform="matrix(1.0005668,0,0,0.8509446,-0.23612742,72.315207)"
       gradientUnits="userSpaceOnUse"
       y2="492.39743"
       x2="437.78555"
       y1="555.7431"
       x1="408.33118"
       id="linearGradient6218"
       xlink:href="#linearGradient42869" />
    <linearGradient
       id="linearGradient42869">
      <stop
         style="stop-color:#353a3f;stop-opacity:0.99607843"
         offset="0"
         id="stop42865" />
      <stop
         style="stop-color:#272727;stop-opacity:0.98876405"
         offset="1"
         id="stop42867" />
    </linearGradient>
    <filter
       height="1.0667278"
       y="-0.033363852"
       width="1.0561312"
       x="-0.028065609"
       id="filter2714"
       style="color-interpolation-filters:sRGB">
      <feGaussianBlur
         id="feGaussianBlur2716"
         stdDeviation="0.56332734" />
    </filter>
    <linearGradient
       gradientUnits="userSpaceOnUse"
       y2="539.64374"
       x2="414.83517"
       y1="501.65286"
       x1="415.07861"
       id="linearGradient850"
       xlink:href="#linearGradient848" />
    <linearGradient
       id="linearGradient848">
      <stop
         id="stop844"
         offset="0"
         style="stop-color:#57595a;stop-opacity:0.99607843" />
      <stop
         id="stop846"
         offset="1"
         style="stop-color:#000000;stop-opacity:0.42696628" />
    </linearGradient>
    <filter
       height="1.03215"
       y="-0.025901777"
       width="1.0283593"
       x="-0.01417968"
       id="filter2706"
       style="color-interpolation-filters:sRGB">
      <feGaussianBlur
         id="feGaussianBlur2708"
         stdDeviation="0.140357" />
    </filter>
    <radialGradient
       gradientUnits="userSpaceOnUse"
       gradientTransform="matrix(-1.0705868e-4,0.04846987,-1.0235483,-0.0023723,538.49225,-12.44815)"
       r="11.24949"
       fy="485.79099"
       fx="397.99051"
       cy="485.79099"
       cx="397.99051"
       id="radialGradient6178-3"
       xlink:href="#linearGradient880" />
    <linearGradient
       id="linearGradient880">
      <stop
         style="stop-color:#d8dbd8;stop-opacity:1"
         offset="0"
         id="stop876" />
      <stop
         style="stop-color:#272727;stop-opacity:0.98876405"
         offset="1"
         id="stop878" />
    </linearGradient>
    <filter
       height="1.0707442"
       y="-0.035372174"
       width="1.0508627"
       x="-0.025431326"
       id="filter1073"
       style="color-interpolation-filters:sRGB">
      <feGaussianBlur
         id="feGaussianBlur1075"
         stdDeviation="0.39283137" />
    </filter>
    <linearGradient
       gradientUnits="userSpaceOnUse"
       y2="506.87347"
       x2="414.47186"
       y1="539.61627"
       x1="406.45694"
       id="linearGradient2676"
       xlink:href="#linearGradient2668" />
    <linearGradient
       id="linearGradient2668">
      <stop
         id="stop2664"
         offset="0"
         style="stop-color:#1a1b1b;stop-opacity:1" />
      <stop
         id="stop2666"
         offset="1"
         style="stop-color:#474747;stop-opacity:1" />
    </linearGradient>
    <linearGradient
       gradientUnits="userSpaceOnUse"
       y2="505.62521"
       x2="404.77097"
       y1="530.01428"
       x1="395.58017"
       id="linearGradient2684"
       xlink:href="#linearGradient2682" />
    <linearGradient
       id="linearGradient2682">
      <stop
         id="stop2678"
         offset="0"
         style="stop-color:#000000;stop-opacity:1;" />
      <stop
         id="stop2680"
         offset="1"
         style="stop-color:#c3c3c3;stop-opacity:0" />
    </linearGradient>
    <filter
       height="1.0397525"
       y="-0.019876304"
       width="1.0307531"
       x="-0.015376566"
       id="filter2690"
       style="color-interpolation-filters:sRGB">
      <feGaussianBlur
         id="feGaussianBlur2692"
         stdDeviation="0.13069192" />
    </filter>
    <filter
       style="color-interpolation-filters:sRGB"
       id="filter24684"
       x="-0.024959943"
       y="-0.15409672"
       width="1.0499199"
       height="1.3081934">
      <feGaussianBlur
         stdDeviation="0.21554955"
         id="feGaussianBlur24686" />
    </filter>
    <linearGradient
       xlink:href="#linearGradient14607"
       id="linearGradient25029"
       gradientUnits="userSpaceOnUse"
       x1="12.020759"
       y1="7.2813473"
       x2="12.011944"
       y2="-0.7256338" />
    <linearGradient
       xlink:href="#linearGradient25153"
       id="linearGradient25155"
       x1="21.812489"
       y1="3.9335968"
       x2="4.6537294"
       y2="4.034317"
       gradientUnits="userSpaceOnUse" />
    <filter
       style="color-interpolation-filters:sRGB"
       id="filter30328"
       x="-0.060622242"
       y="-0.37427998"
       width="1.121405"
       height="1.7485472">
      <feGaussianBlur
         stdDeviation="0.2547727"
         id="feGaussianBlur30330" />
    </filter>
  </defs>
  <path
     transform="matrix(0.7312589,0,0,0.74487565,-280.96527,-360.55865)"
     id="path6220-2"
     d="m 386.25703,524.61791 0.77838,-38.71157 22.03057,0.10242 3.50545,3.40716 c 0,0 18.10956,0.35097 27.33843,0.35097 2.88877,0 6.71919,2.18928 6.71919,7.16894 0,13.1364 0.12174,26.49022 0.12174,26.49022"
     style="display:inline;fill:none;fill-opacity:1;stroke:#000000;stroke-width:0.7;stroke-linecap:butt;stroke-linejoin:miter;stroke-miterlimit:4;stroke-dasharray:none;stroke-opacity:1;filter:url(#filter940)" />
  <path
     transform="matrix(0.7328543,0,0,0.7450537,-281.00792,-360.45073)"
     d="m 386.39384,486.19622 c 0,0 -0.10293,36.25523 -0.10293,49.28612 0,1.03908 0.48232,1.87652 1.08144,1.87652 h 58.39816 c 0.59911,0 1.34832,-0.83745 1.34161,-1.87652 0,0 -0.0268,-27.28049 -0.0268,-40.09035 0,-3.00572 -3.75125,-6.05898 -6.82146,-6.05898 -9.03444,0 -27.69471,-0.22684 -27.69471,-0.22684 l -4.13226,-2.8228 z"
     id="rect4180"
     style="display:inline;fill:url(#linearGradient6218);fill-opacity:1;stroke:#000a00;stroke-width:0.71;stroke-linecap:round;stroke-linejoin:bevel;stroke-miterlimit:4;stroke-dasharray:none;stroke-opacity:1;filter:url(#filter2714)" />
  <path
     transform="matrix(0.7353552,0,0,0.47665681,-282.58469,-229.03843)"
     id="path6220"
     d="m 387.04904,540.31904 0.076,-50.36617 20.73641,0.0901 1.41588,-3.75705 2.94655,4.20719 c 0,0 17.40991,0.34184 27.40616,0.34184 3.61218,0 6.32049,4.0507 6.32049,8.9451 0,12.76833 0.1165,38.20486 0.1165,38.20486"
     style="display:inline;fill:none;fill-opacity:1;stroke:url(#linearGradient850);stroke-width:1px;stroke-linecap:butt;stroke-linejoin:miter;stroke-opacity:1;filter:url(#filter2706)" />
  <path
     d="m 27.921427,5.4393704 v 0.380281 h 0.44553 l 25.49468,0.167876 h 0.44553 l -0.5452,-0.548167 h -0.44553 -24.94948 z"
     id="path4151-2-3-5"
     style="display:inline;fill:url(#radialGradient6178-3);fill-opacity:1;stroke-width:0.665905"
     transform="matrix(0.7481832,0,0,0.7481832,0.11682151,0.0012592)" />
  <path
     transform="matrix(0.73346775,0,0,0.80873555,-281.33256,-395.1396)"
     style="display:inline;fill:none;fill-opacity:1;stroke:#000000;stroke-width:1.29693;stroke-linejoin:round;stroke-miterlimit:4;stroke-dasharray:none;stroke-opacity:1;filter:url(#filter1073)"
     id="path952"
     d="m 385.15633,501.64377 c 0,13.8136 0.0547,36.33599 0.0547,39.23108 0,2.8951 4.24366,4.43675 7.16501,4.43675 9.65801,10e-4 39.7482,-0.008 48.58578,-0.009 2.73024,-2.9e-4 6.73958,-3.06897 6.73961,-5.5723 4.6e-4,-8.01206 0.0257,-31.8933 0.0257,-31.8933 -21.39075,-0.31416 -23.00468,-0.49626 -28.48106,-3.68616 -5.47637,-3.18989 -6.84254,-3.7889 -8.06758,-3.79572 -8.19718,-0.0456 -25.32423,-0.0254 -25.32423,-0.0254 0,0 -0.68932,-0.094 -0.698,1.31379 z" />
  <path
     transform="matrix(0.73346775,0,0,0.7465797,-281.13373,-361.98953)"
     style="display:inline;fill:url(#linearGradient2676);fill-opacity:1;stroke:url(#linearGradient2684);stroke-width:1.29693;stroke-linejoin:round;stroke-miterlimit:4;stroke-dasharray:none;stroke-opacity:1;filter:url(#filter2690)"
     id="path952-7"
     d="m 385.15633,498.35321 c 0,13.8136 0.0547,28.03631 0.0547,40.41503 0,6.52543 4.5187,6.67224 7.29021,6.67224 9.65801,10e-4 38.73653,0 47.57411,0 4.29557,0 7.62608,-4.19689 7.62608,-7.71933 4.6e-4,-8.01206 0.0257,-32.38987 0.0257,-32.38987 -22.81136,0 -23.57647,-0.13663 -31.18143,-4.28484 -5.62028,-3.06564 -5.63216,-3.98161 -7.35295,-3.98161 -8.19718,-0.0456 -23.33849,-0.0254 -23.33849,-0.0254 0,0 -0.68932,-0.094 -0.698,1.31379 z" />
  <path
     style="display:inline;mix-blend-mode:normal;fill:currentColor;stroke:none;stroke-width:0.390115;stroke-miterlimit:4;stroke-dasharray:none;filter:url(#filter24684)"
     d="M 3.1185124,2.3943988 C 2.9060465,2.5755409 2.8406898,2.662737 2.8406898,3.1723004 c 0,0.7470828 0.00654,2.4587688 0.00654,2.4587688 H 22.075746 l 0.993727,-1.6353471 c 0,0 0.682408,-0.9793708 0.44826,-1.410869 -0.123324,-0.2272669 -0.513311,-0.2662912 -1.075516,-0.2662912 -0.820732,0 -18.1692197,-0.041813 -18.4326201,-0.041813 0,0 -0.7160982,-0.031538 -0.8910845,0.1176499 z"
     class="ColorScheme-Highlight"
     id="path4"
     transform="matrix(0.7481832,0,0,0.7481832,0.11682151,0.0012592)" />
  <path
     style="color:#3daee9;display:inline;fill:url(#linearGradient25155);fill-opacity:1;stroke:url(#linearGradient25029);stroke-width:1.29;stroke-miterlimit:4;stroke-dasharray:none;filter:url(#filter30328)"
     d="M 3.1185124,2.3943988 C 2.9060465,2.5755409 2.8406898,2.662737 2.8406898,3.1723004 c 0,0.7470828 0.00654,2.4587688 0.00654,2.4587688 H 22.075746 l 0.993727,-1.6353471 c 0,0 0.682408,-0.9793708 0.44826,-1.410869 -0.123324,-0.2272669 -0.513311,-0.2662912 -1.075516,-0.2662912 -0.820732,0 -18.1692197,-0.041813 -18.4326201,-0.041813 0,0 -0.7160982,-0.031538 -0.8910845,0.1176499 z"
     id="path4-0"
     transform="matrix(0.7481832,0,0,0.7481832,0.11682151,0.0012592)" />
  <path
     style="color:#232629;display:inline;fill:#646464;fill-opacity:1;stroke:none;stroke-width:0.799833"
     d="m 14.246665,24.774448 c -0.320643,0 -0.561126,0 -0.801608,0 -0.561125,0.0798 -1.122251,0.159613 -1.603216,0.319226 -2.4849856,0.798062 -4.4890062,2.79322 -5.2906144,5.267215 -0.1603217,0.478839 -0.2404826,1.037482 -0.3206433,1.596126 0,0.239419 0,0.478838 0,0.798063 0,0.239419 0,0.558645 0,0.798064 0.080161,0.558644 0.1603216,1.037482 0.3206433,1.596126 0.8016082,2.473995 2.8056288,4.469153 5.2906144,5.267215 0.480965,0.0798 1.042091,0.23942 1.603216,0.23942 0.240482,0.0798 0.480965,0.0798 0.801608,0.0798 0.240483,0 0.561125,0 0.801609,-0.0798 0.561124,0 1.042089,-0.159613 1.603214,-0.23942 0.480966,-0.159611 0.961931,-0.399031 1.442896,-0.63845 1.763537,-1.037482 3.206432,-2.633608 3.847719,-4.628765 0.08016,-0.558644 0.240483,-1.037482 0.240483,-1.596126 0.08016,-0.239419 0.08016,-0.558645 0.08016,-0.798064 0,-0.319225 0,-0.558644 -0.08016,-0.798063 0,-0.558644 -0.160323,-1.117287 -0.240483,-1.596126 -0.320643,-0.957675 -0.881768,-1.915351 -1.507024,-2.713414 -0.176353,-0.159613 -0.336675,-0.319226 -0.577158,-0.558645 -0.641286,-0.718256 -1.523054,-1.2769 -2.484984,-1.675932 -0.240483,-0.0798 -0.480965,-0.239418 -0.721449,-0.319224 -0.561125,-0.159613 -1.04209,-0.23942 -1.603214,-0.319226 -0.240484,0 -0.561126,0 -0.801609,0 z m 0,0.798063 c 1.202412,0 2.324663,0.319225 3.366754,0.798063 0,0 0,0.0798 0.08016,0.07183 0,0.0079 0,0.08779 0.03207,0.08779 0.04809,0 0.04809,0 0.04809,0.03991 0.08016,0.03991 0.08016,0.03991 0.08016,0.09976 0,0.01995 -0.08016,0.01995 -0.128256,0.09976 -0.03207,0.0798 -0.03207,0.0798 -0.03207,0.127685 0,0.03192 0,0.03192 0.03207,0.07183 -0.03207,0.03991 -0.03207,0.03991 -0.03207,0.119709 0.08016,0.0798 0.160322,0 0.240483,0 0.160321,-0.0798 0.240482,0 0.320642,-0.0798 0,-0.0798 0.08016,-0.0798 0.128257,-0.159613 0.03207,0.0798 0.11223,0.0798 0.144282,0.159613 -0.03207,0 -0.112229,0 -0.112229,0.03192 -0.08016,0.04788 -0.08016,0.04788 -0.160323,0.127685 0,0 0,0.07183 -0.08016,0.07183 -0.08016,0 -0.160321,-0.07183 -0.168338,-0.07183 -0.07214,0.0798 -0.07214,0.0798 -0.08016,0.159611 -0.07214,0.02482 -0.232467,-0.0798 -0.296595,0.03991 0.06412,0.08267 0.144283,0.03991 0.224451,0.09976 0.08016,0.02904 0.160321,0.179564 0.152305,0.227448 0.0081,0.03763 0.0081,0.191535 0,0.191535 -0.04721,0.159612 -0.168538,0.0798 -0.302608,0.0798 -0.03647,0 -0.09017,0.0798 -0.09017,0 -0.240482,0 -0.480965,0 -0.561126,0.127685 0.0072,0.111733 0,0.191535 0,0.271342 -0.02037,0.0798 -0.08016,0.159611 -0.100198,0.239419 0.0016,0 0.100198,0.0798 0.100198,0.159611 0,0 -0.08016,0 -0.02486,0.07183 0.03771,0.08779 0.105003,-0.0085 0.201203,0 0.06333,0.0079 0.144283,0.08779 0.144283,0.167593 0,0.06074 -0.08016,0.159611 -0.08016,0.239418 -0.05411,0.0658 -0.160323,0 -0.265333,0.09577 -0.05531,0.0425 -0.135469,0.143651 -0.135469,0.223457 -0.08016,0.0798 -0.160321,0.0798 -0.08016,0.23942 -0.0756,0.0798 -0.160322,0.159611 -0.288579,0.239419 -0.03207,0 -0.11223,0.0798 -0.120235,0.09577 -0.07214,0.01927 -0.07214,0.06385 -0.07214,0.09577 -0.08016,0.05957 -0.152674,0.127685 -0.180362,0.127685 -0.02044,0.03335 0.02004,0.0798 -0.02806,0.159613 -0.03207,0 -0.11223,0.0798 -0.11223,0.159613 -0.02894,0 -0.06481,0.0798 -0.08818,0.0798 -0.07214,0.10907 -0.07214,0.159612 -0.07214,0.239418 0,0.08109 0.08016,0.0798 0.07214,0.159613 0.0081,0.03479 -0.07214,0.0798 -0.07214,0.09976 0,0.05986 0.08016,0.05986 0.07214,0.139656 0.0081,0.0798 -0.05179,0.159613 -0.07214,0.23942 -0.01018,0.0049 0.0087,0.04227 0,0.07183 -0.01748,0.05171 -0.09875,0.08383 -0.08016,0.167593 -0.02164,0.02506 0.08016,0.0659 0.08016,0.0798 -0.02185,0.09337 -0.05884,0.13397 -0.08016,0.175574 0.04609,0.07738 0.194309,0.187473 0.256514,0.223457 0.08206,0.107634 0.162975,0.162358 0.1996,0.239419 0.02486,0.08396 0.0432,0.204248 0.097,0.259371 0.04525,0.04063 0.12444,0.05773 0.168337,0.09976 0.06101,0.03919 0.131444,0.05767 0.160322,0.09976 0.11395,0.06967 0.234382,0.209675 0.375955,0.179564 0.0741,0.01436 0.142188,-0.01549 0.225251,0 0.08598,-0.04446 0.200402,-0.0798 0.272547,-0.0798 0.08818,0.0072 0.08818,0.05427 0.200402,0.0798 0.07587,-0.03392 0.170446,-0.06852 0.256514,-0.104551 0.141275,-0.06261 0.363298,-0.21468 0.573151,-0.134868 0.180361,0 0.180361,0.188295 0.276554,0.239419 0.127239,0.03153 0.222639,-0.0046 0.324651,0 0.07727,0.03879 0.168065,0.18349 0.172346,0.244208 0.01018,0.07501 -0.03207,0.07501 -0.03207,0.146839 -0.03539,0.08712 -0.05062,0.198717 -0.06412,0.252187 -0.01257,0.04226 -0.02749,0.08282 -0.01603,0.154825 0,0.0078 0.05079,0.09533 0.09017,0.159612 0.07014,0 0.117064,0.09289 0.150303,0.159613 0.131444,0.121835 0.176177,0.287894 0.240482,0.478838 0.02894,0.01062 -0.0075,0.01905 0,0.07182 -0.02204,0.241702 -0.105227,0.40157 -0.265332,0.646432 -0.05531,0.111973 -0.151961,0.215429 -0.135469,0.324013 -0.02064,0.261294 0.121881,0.39623 0.08016,0.649624 0.0039,0.338427 0.0313,0.391298 0.0048,0.542682 0.115328,0.08794 0.05876,0.258685 -0.0048,0.399032 -0.01948,0.123645 -0.0675,0.158646 -0.08016,0.25538 0.04474,0.02473 0.09483,0.03119 0.160322,0.02394 -1.311031,1.358638 -3.16745,2.194673 -5.210453,2.194673 -0.956317,0 -1.870257,-0.187312 -2.725468,-0.526721 0.01724,0.0018 0.02284,-0.02081 0,-0.02195 0.09579,-0.03192 0.240218,0.05602 0.295794,-0.04987 0.02754,-0.05076 -0.03667,-0.148739 0,-0.199517 0.02601,-0.03479 0.196385,-0.06612 0.265332,-0.07501 0.06225,-0.01287 0.141649,0.0028 0.160322,-0.0048 0.07314,-0.05044 0.134003,-0.129541 0.128257,-0.239419 -0.007,-0.0221 -0.04473,-0.04211 -0.04809,-0.0798 -0.05772,-0.03192 -0.0362,-0.07073 -0.08016,-0.09976 -0.0099,-0.05076 -0.06057,-0.07561 -0.07534,-0.139656 0.105137,-0.03024 0.249443,0.106931 0.400803,0.0798 0.07162,-0.03531 0.19213,-0.172701 0.235674,-0.239419 1.6e-4,-0.02035 -0.02164,-0.100002 0,-0.127685 0.0031,-0.02454 0.03567,-0.03244 0.04007,-0.03192 0.01018,-0.05415 -0.0087,-0.0652 0,-0.08779 0.02622,-0.07597 0.106574,-0.122897 0.120236,-0.176373 0.06357,-0.04082 0.09962,-0.08284 0.160321,-0.124901 0.0049,-0.04501 0.02185,-0.06053 0.04809,-0.08978 0.01889,-0.141976 -0.08517,-0.24309 -0.05612,-0.359128 0.03796,-0.130543 0.226928,-0.214864 0.328659,-0.274534 0.06874,-0.02016 0.113876,-0.06161 0.160322,-0.07462 0.07742,-0.03048 0.183921,-0.0209 0.240482,-0.04987 0.162045,-0.04932 0.208507,-0.199476 0.272547,-0.327206 0.03508,-0.05502 0.07231,-0.104581 0.04809,-0.143651 0.03567,-0.04075 0.02285,-0.08416 0,-0.127685 0.03727,-0.0435 0.04349,-0.07684 0.08016,-0.127685 -0.0088,-0.05942 0,-0.176779 0,-0.271341 0,-0.03308 -0.02361,-0.04754 0,-0.0798 -0.03523,-0.208517 0.03026,-0.216243 0.100199,-0.319224 0.03496,-0.05076 0.05046,-0.138324 0.07615,-0.159613 0.117048,-0.18903 0.314175,-0.274702 0.296595,-0.558645 -0.0027,-0.06708 -0.0331,-0.251756 -0.097,-0.279322 -0.03668,-0.01597 -0.121628,-0.0046 -0.175552,-0.02394 -0.171969,-0.06464 -0.296707,-0.26083 -0.472949,-0.25538 -0.04093,-0.02155 -0.06093,-0.01836 -0.128256,0 -0.04494,-0.02155 -0.121702,-0.08607 -0.200402,-0.0798 -0.04955,-0.02054 -0.146199,-4.38e-4 -0.200403,0 -0.02016,-0.03675 -0.01377,-0.114995 -0.08016,-0.159613 8.82e-4,-3.98e-4 -0.05002,-0.01392 -0.08016,0 -0.08645,-0.05746 -0.132356,-0.07398 -0.240482,-0.0798 -0.0011,-0.0016 -0.07108,0.004 -0.100199,0 -0.04521,-0.0072 -0.08299,-0.04872 -0.124246,-0.07501 -0.05342,-0.03192 -0.07934,-0.05457 -0.104209,-0.08459 0.0511,-0.171623 -0.115432,-0.19792 -0.1475,-0.319225 -0.01436,-0.01212 0.01482,-0.082 0,-0.119709 -0.01872,-0.05371 -0.06529,-0.07974 -0.125054,-0.127685 -0.104927,-0.07825 -0.200595,-0.152733 -0.350703,-0.171584 -0.06701,-0.0072 -0.145301,0.0055 -0.250503,0 -0.05947,-0.0055 -0.161332,-0.05218 -0.224451,-0.123704 -0.06224,-0.07211 -0.07234,-0.142215 -0.09619,-0.175574 -0.08104,-0.03192 -0.170438,-0.04154 -0.208418,-0.07501 -0.01302,-0.01437 -0.0075,-0.04134 -0.02204,-0.08459 -0.02621,-0.0423 -0.08216,-0.05094 -0.0501,-0.111734 -0.05828,-0.03204 -0.03754,0.03359 -0.100201,0.02394 -0.05683,-0.0798 -0.09721,-0.126413 -0.228458,-0.07182 -0.05527,-0.01836 -0.103849,0.06838 -0.192386,0.07182 -0.03679,-3.98e-4 -0.08099,-0.09161 -0.155512,-0.07182 -0.05663,-0.03711 -0.1358,0.02866 -0.165131,0 -0.07271,0.0084 -0.07847,-0.06696 -0.160322,-0.104552 -0.01719,-0.02782 -0.101932,-0.101408 -0.128258,-0.10295 -0.06986,0.0045 -0.1218919,0.15642 -0.1923857,0.10295 -0.0796,-0.06261 0.053315,-0.06692 -0.00802,-0.124901 -0.040681,-0.0435 -0.062196,0.0018 -0.096995,0.02195 -0.041003,0.03053 -0.08028,0.06193 -0.1254521,0.04788 -0.100561,0.06768 -0.1718088,0.06421 -0.2505026,0.0798 -0.072866,0.06268 -0.08299,0.125531 -0.1282578,0.199517 -0.030501,0.06098 -0.096289,0.146734 -0.1442903,0.119709 -0.064249,0.03392 -0.1229741,-0.04663 -0.2084181,-0.0798 -0.1375326,-0.06256 -0.232298,0.05842 -0.400804,0.0798 -0.098189,-0.01836 -0.2763706,-0.223762 -0.2404826,-0.343965 -0.026052,-0.07417 0.011298,-0.183155 0,-0.274534 0.027254,-0.07254 0.093829,-0.132788 0.096193,-0.179564 6.013e-4,-0.108427 -0.1431111,-0.184369 -0.2012037,-0.191535 -0.1371958,-0.01995 -0.3202184,0.05798 -0.4561149,0 -0.049218,-0.05231 0.037636,-0.07982 0.080161,-0.127685 -0.014874,-0.02753 -0.035231,-0.04434 0,-0.07501 -0.00762,-0.04625 0.053299,-0.07518 0.072144,-0.124497 0.019039,-0.03775 0.012031,-0.10322 0.028056,-0.199517 0.018918,-0.0024 0.070742,-0.03709 0.076153,-0.07501 0.00465,-0.04913 -0.036874,-0.117525 -0.076153,-0.148439 -0.1209629,0.0063 -0.2055964,0.01728 -0.2605226,0.06385 -0.1724179,0.05614 -0.131728,0.259938 -0.3206434,0.319225 -0.023888,0.0075 -0.1091309,0.02976 -0.1603216,0.03991 0.093639,-0.522152 0.2552746,-1.021557 0.480965,-1.496368 0.040361,0.01018 0.087183,0.04549 0.1603217,0.01995 0.1090261,0.04006 0.1146855,-0.0617 0.2404825,-0.119709 0.098646,0.01597 0.157051,-0.01152 0.2404824,0 0.09002,0.0072 0.1901175,0.09541 0.2452921,0.09976 0.046854,0.0016 0.056673,-0.05715 0.075351,-0.04987 0.068739,0.0072 0.1430154,0.09741 0.1603217,0.149637 -0.0028,0.06529 -0.054068,0.126982 -0.032065,0.199517 0.065532,0.06967 0.1999532,0.109025 0.272547,0.119709 0.089179,-0.02234 0.035231,-0.14404 0,-0.239419 0.023447,-0.01347 0.028858,-0.04929 0,-0.0798 0.017836,-0.05219 0,-0.104671 0,-0.149637 0,-0.207424 0.1606982,-0.292856 0.3206432,-0.377084 0.03968,-0.0318 0.102846,-0.09559 0.1523055,-0.119709 0.077316,-0.03831 0.1171471,-0.04202 0.1783578,-0.0798 0.11075,-0.05942 0.2146146,-0.125441 0.3026071,-0.199517 0.037354,-0.09128 -0.00602,-0.203451 0,-0.271341 0.037354,-0.0496 0.055976,-0.02095 0.088177,0 0.07703,-0.03946 0.09737,-0.136872 0.135472,-0.159613 0.02168,-0.03675 0.09879,-0.04314 0.125051,-0.06385 0.06701,-0.05327 0.06693,-0.127415 0.140281,-0.175573 0.0054,0.01776 0.05307,0.0087 0.08497,0 0.04397,-0.01152 0.105604,-0.05023 0.155512,-0.07501 0.06525,-0.01597 0.177901,-0.0073 0.192386,-0.02474 0.02489,-0.02179 -0.0026,-0.116267 0,-0.139655 0.03796,-0.173881 0.281669,-0.179301 0.428861,-0.234631 0.102012,-0.03898 0.211977,-0.121325 0.340683,-0.08459 -0.03691,0.06333 -0.13418,0.04037 -0.112225,0.159613 0.02176,0.107065 0.175809,-0.05598 0.192386,-0.07501 0.118959,-0.03754 0.28922,-0.05748 0.405613,-0.08459 0.102219,-0.05119 0.271729,-0.121924 0.155513,-0.239419 -0.06012,-0.0055 -0.08537,0.07073 -0.155513,0.0798 -0.08497,0.02713 -0.05923,-0.0021 -0.08497,-0.0079 -0.05439,0.0014 -0.07584,0.03519 -0.11223,0.0079 -0.04236,0.01272 -0.09739,-0.05833 -0.128256,-0.104551 0.009,-0.122044 0.150863,-0.15966 0.200401,-0.246602 -0.0335,-0.113245 -0.182285,-0.0094 -0.275752,-0.05586 0.01038,-0.06229 0.04822,-0.133581 0.07535,-0.146839 0.112785,-0.0099 0.262712,0.01992 0.300603,0.07501 0.02188,-0.0061 -0.0084,0.04429 0.02486,0.07183 0.03811,0.03635 0.100947,0.01018 0.1475,0 0.02049,-0.07968 -0.111766,-0.0431 -0.097,-0.07183 0.0989,-0.08858 0.279641,-0.05906 0.425654,-0.07501 0.04494,-0.0099 0.112678,-0.06617 0.176353,-0.08459 0.05727,-0.04832 0.113143,-0.09505 0.144283,-0.03991 0.04754,0.05945 -0.01167,0.09424 -0.04809,0.124497 -0.109207,0.09884 -0.210157,0.209827 -0.272547,0.324414 0.0289,0.05227 0.110045,0.01481 0.200402,0.02195 0.03496,0.0072 0.08881,0.02219 0.125054,0.02794 0.04397,0.0072 0.09047,-0.0072 0.155512,0 0.03119,0.01451 0.03398,0.09976 0.09619,0.09976 0.0981,0 0.105975,-0.08291 0.06413,-0.149637 0.0024,-0.06823 0.03487,-0.126697 0,-0.177569 -0.03519,-0.08694 -0.206687,0.01779 -0.240481,-0.07183 0.01944,-0.09749 0.099,-0.11944 0.128256,-0.159613 -0.01467,-0.154209 0.111766,-0.163101 0.11223,-0.319226 -0.02225,-0.02234 -0.07879,-0.02056 -0.11223,-0.06983 -0.02192,-0.0261 -0.03131,-0.08089 -0.05612,-0.08978 -0.07274,-0.07382 -0.213701,-0.0627 -0.222447,-0.184354 -0.004,-0.07274 0.01018,-0.1214 0,-0.198717 -0.01018,-0.07498 -0.08621,-0.285763 -0.150301,-0.303264 -0.08161,-0.01437 -0.127808,0.132608 -0.228459,0.207496 -0.04941,-0.0052 -0.143474,0.0052 -0.200402,-0.0079 -0.03195,-0.0042 -0.09282,-0.03009 -0.097,-0.09656 -0.0039,-0.03862 0.0087,-0.05227 0.02486,-0.07501 0.0037,-0.0054 -0.0039,-0.0193 0,-0.02794 0.634067,-0.17843 1.311346,-0.271341 2.004021,-0.271341 z m -2.96595,0.63845 c -0.08615,0.236715 -0.292011,0.366154 -0.569142,0.359128 -0.06401,0.06385 -0.03575,0.185846 -0.07214,0.271343 -0.03062,0.07697 -0.126085,0.133505 -0.200402,0.127685 -0.05395,-0.004 -0.200402,-0.07394 -0.200402,-0.127685 0,-0.03861 0.09051,-0.08561 0.1002,-0.151633 0.295028,-0.159987 0.604314,-0.322755 0.94189,-0.478838 z m 6.092222,0.259372 c 0.0031,0.0048 -0.02144,0.01107 -0.04809,0.02794 -0.05239,0.03036 -0.05492,0.08082 -0.09619,0.111734 -0.06072,0.0067 -0.142562,0.0063 -0.176354,0.05985 0.01784,0.04501 0.07668,0.05915 0.07214,0.09976 -0.01888,0.05371 -0.06044,0.05938 -0.07214,0.127685 0.07431,0.117405 0.258895,-0.0018 0.320644,-0.04788 0.07087,0.0084 0.108399,0.02662 0.08016,-0.0079 0.07487,-0.0362 0.05624,-0.116462 0.07214,-0.171583 0.02345,-0.06098 0.08544,-0.0461 0.08818,-0.09976 -0.01564,-0.05371 -0.120071,-0.108457 -0.240482,-0.09976 z m -7.9359208,0.937723 c 0.078486,0.04925 0.1232165,0.142529 0,0.159613 0.01046,0.03213 -0.165428,0.05715 -0.2004021,0.0798 -0.010849,-0.03145 -0.015311,-0.04812 -0.024049,-0.0798 0.075607,-0.04914 0.1696546,-0.103908 0.2244511,-0.159613 z m 0.2404825,0.231439 c 0.01992,0.0045 0.044337,0.07494 0.08497,0.0798 0.039559,0.0012 0.1020933,-0.03419 0.1555119,-0.02394 0.031182,0.01272 0.053315,0.126608 -0.00802,0.191535 -0.045091,-0.01437 -0.062268,-0.07709 -0.096995,-0.0798 -0.099303,0.02737 -0.1262782,0.215293 -0.1996005,0.159613 -0.070982,0.04269 -0.1225506,-0.09886 -0.048096,-0.159613 -0.00144,-0.03359 -0.031022,-0.04625 -0.028056,-0.08779 0.021883,-0.02952 0.066926,-0.08112 0.1402814,-0.0798 z m -0.3206433,0.05586 c 4.008e-4,0 -0.00224,-0.01167 0.0048,0 -0.00998,0.07386 -0.040306,0.08544 -0.08497,0.111734 -0.1185014,0.07238 -0.181909,0.150858 -0.2404824,0.287302 0.014874,0.0362 -0.1007541,0.156788 -0.1503016,0.143651 -0.1151345,-0.02167 0.048938,-0.237982 0.07495,-0.27134 0.029379,-0.03632 0.066917,-0.05909 0.075351,-0.0798 0.058557,-0.06057 0.068216,-0.146375 0.080161,-0.167593 0.05499,-0.02665 0.1592394,-0.02988 0.2404825,-0.02394 z m 9.8597796,0.196323 c 0.105107,-0.0069 0.162967,0.13008 0.215633,0.202709 0.04349,0.05358 0.178879,0.132413 0.265332,0.171584 0.02577,0.02179 0.06505,0.05454 0.08016,0.07501 0.07742,0.02083 0.149475,0.04841 0.208419,0.09656 0.05293,0.05415 0.09501,0.131157 0.112229,0.167593 -0.01347,0.05643 -0.04738,0.09116 -0.04007,0.159613 0.05049,-0.01676 0.07667,-0.06792 0.100199,-0.127685 0.18889,0.271245 0.349756,0.557521 0.501005,0.850735 -0.03069,0.01912 -0.04389,0.03763 -0.08016,0.07501 0.01547,0.08122 0.07732,0.185015 -0.04809,0.199517 -0.07419,0.01018 -0.166164,-0.07658 -0.272546,-0.09976 -0.04368,-0.01018 -0.115328,0.01152 -0.150302,0 -0.08016,-0.02753 -0.05674,-0.126712 -0.12224,-0.174776 -0.04236,-0.02741 -0.140737,-0.06744 -0.203609,-0.08459 -0.03916,0.006 -0.05923,0.01556 -0.08497,0 -0.06457,0.0043 -0.14958,0.0097 -0.160321,0 -0.06942,-0.03962 -0.170157,-0.08133 -0.180363,-0.111734 -0.01603,-0.0567 0.122346,-0.132593 0.100199,-0.207497 0.02825,-0.0049 -0.01776,-0.01761 -0.02485,-0.06984 -0.0058,-0.03192 0.007,-0.07944 0,-0.08978 -0.01032,-0.04772 -0.06572,-0.08336 -0.125458,-0.08779 -0.05251,0 -0.105122,0.02794 -0.150301,0.02794 -0.06414,0.0016 -0.1954,-0.0322 -0.260522,-0.02794 -0.06313,0.0072 -0.09511,0.02506 -0.160323,0.02794 -0.106753,0.01018 -0.181459,-0.0072 -0.280562,0 -0.07142,0.004 -0.208515,0.04441 -0.275754,0.07582 -0.03331,0.01516 -0.05626,0.05212 -0.08497,0.07382 -0.03539,0.01018 -0.0639,0.01332 -0.08818,0.02195 -0.04281,0.02183 -0.112948,0.06768 -0.152305,0.04788 -0.05683,0.04446 -0.121987,0.02593 -0.224451,0 -0.07531,0.03392 -0.199946,0.01863 -0.176354,-0.06984 -0.02665,-0.134897 0.222463,-0.07658 0.320643,-0.08978 0.07816,-0.02011 0.097,-0.0764 0.152306,-0.159613 0.03074,0.03392 0.05194,0.0174 0.08016,0 0.04169,-0.03048 0.115956,-0.08987 0.120236,-0.127685 0.0087,-0.02893 -0.02646,-0.07359 -0.03207,-0.09577 0.01564,-0.03148 0.07089,-0.06159 0.08016,-0.103743 0.09131,-0.05798 0.129633,-0.132429 0.208419,-0.171584 0.04797,-0.02753 0.149026,-0.03428 0.172346,-0.05986 0.0057,-0.06141 -0.0016,-0.07263 0,-0.111734 0.03207,-0.03204 0.02388,-0.04712 0.02004,-0.05586 0.108773,-0.01436 0.188754,0.03232 0.280563,0.02794 0.03936,-0.0016 0.08299,0.0028 0.125054,-0.02794 0.03515,-0.02023 0.06542,-0.05442 0.07534,-0.07183 0.06297,-0.02035 0.103611,-0.07194 0.160321,-0.07501 z m -9.202461,0.07503 c 0.01828,-0.003 0.05081,0.0021 0.06413,0 0.04353,-0.0016 0.07379,0 0.08016,0 0.06653,0 0.115688,-0.01451 0.08016,0 0.02677,0.09574 -0.199768,0.05981 -0.2725462,0 -8.016e-4,0.0067 0.027808,0.003 0.048096,0 z m -0.2765548,0.175573 c 0.02477,0 0.048938,-0.01107 0.075351,0 -0.067215,0.05559 -0.1591592,0.08743 -0.2757533,0.123705 -0.055391,0.0174 -0.1400973,0.03596 -0.1803617,-0.02794 0.018356,-0.07242 0.08069,-0.06464 0.080161,-0.07183 0.1142291,-0.0072 0.226278,-0.02351 0.3006032,-0.02394 z m 9.4950478,0 c -0.0489,0.01516 -0.07242,0.110657 0,0.123705 0.0325,-0.02028 0.03286,-0.06376 0.02405,-0.123705 -0.01891,-0.02126 -0.01047,-0.0066 -0.02405,0 z m -0.01603,0.198718 c -0.03336,0.0069 -0.06048,-0.0014 -0.08818,0.02473 0.0046,0.08122 0.01903,0.128433 0,0.199515 0.04967,0.08993 0.155048,0.03596 0.178357,-0.02394 0.02773,-0.151856 -0.03026,-0.219372 -0.09017,-0.200314 z m 0.616437,0.423771 c -0.06412,-0.02813 -0.112604,-0.0052 -0.135469,0 0.03892,0.111973 0.139554,0.127879 0.260523,0.159613 0.04368,-0.0419 0.02973,-0.129436 0.06012,-0.159613 -0.06252,0 -0.0962,-0.02174 -0.160322,0 z M 7.1043382,31.79741 c 0.054197,0.07491 0.1095364,0.150648 0.1783578,0.159613 0.036473,0.04377 0.078613,0.03974 0.1254521,0 0.037715,0.05706 0.063584,0.08818 0.096995,0.09976 0.08028,0.0261 0.1923058,0.02234 0.2533082,0.05985 0.093476,0.03065 0.1474955,0.192996 0.2356728,0.239419 -0.00602,0.04645 -0.02461,0.08989 0,0.127685 0.027896,0.04776 0.1041134,0.06343 0.1651313,0.111734 0.074509,0.02566 0.1056039,0.127699 0.155512,0.159612 0.04481,0.01018 0.082293,-0.01152 0.1202416,0 0.096185,0.02904 0.1173311,0.17429 0.2004021,0.159613 0.053948,-0.02593 0.066413,-0.107394 0.072144,-0.159613 0.03948,-0.03919 0.071375,-0.0798 0.1282578,-0.0798 0.09035,-0.02155 0.116779,0.09108 0.1202417,0.179564 0.048979,0.04932 0.092145,0.09741 0.080161,0.149637 0.046935,0.08993 0.043969,0.345361 0,0.389055 0.00177,0.07669 -0.094918,0.112018 -0.1503016,0.159613 -0.026212,0.05974 -0.054791,0.101529 -0.07415,0.127685 -0.035952,0.04051 -0.074934,0.05762 -0.1042092,0.111734 -0.011582,0.0067 -0.00898,0.05435 -0.072144,0.08459 0.00633,0.09303 -0.061508,0.162838 0,0.274534 -0.01046,0.04501 0,0.09598 0,0.11971 0,0.09378 -0.089996,0.109938 -0.080161,0.179565 -0.027255,0.05076 0.039158,0.156276 0.080161,0.224255 -0.013423,0.05095 0.069596,0.09153 0.1002003,0.154824 0.050982,0.02665 0.1036646,0.09706 0.1503016,0.159613 0.091809,0.150674 0.1351114,0.321084 0.2224463,0.458886 0.00802,0.07111 0.146294,0.124094 0.1683377,0.179564 0.026052,0.0577 -0.00456,0.134793 0,0.159613 0.062445,0.127476 0.3178296,0.25123 0.4328684,0.319225 0.058397,0.01764 0.1023088,0.03579 0.1282579,0.0798 0.1023252,0.02861 0.26126,0.116387 0.320643,0.159613 0.0149,0.08591 0.03764,0.227032 0.05531,0.324013 0.02168,0.127849 -0.0059,0.236482 0,0.374292 0.0038,0.07542 0.02485,0.124079 0.02485,0.179564 0,0.04604 0.0016,0.09358 0,0.119709 -0.0016,0.08993 0.0072,0.182956 0,0.271341 -0.004,0.05231 -0.0032,0.110566 0,0.167594 0.004,0.03005 0.04721,0.04564 0,0.08459 0.05331,0.04226 -0.0044,0.09153 0,0.154825 0.01018,0.06145 0.10776,0.135331 0.128258,0.239418 0.01158,0.04676 0.03078,0.199539 0.03206,0.279322 -0.01563,0.04206 -0.02922,0.10322 -0.03206,0.11971 -0.007,0.06624 0.0026,0.09635 0,0.159613 -2.0003838,-1.307256 -3.3346904,-3.526283 -3.3346904,-6.06528 0,-0.325511 0.033018,-0.633666 0.072144,-0.957676 z m 2.7334841,0.734219 c 0.09503,-0.03273 0.081885,0.09005 0,0.09577 -0.028898,0.01017 -0.027375,-0.07207 0,-0.09577 z"
     class="ColorScheme-Text"
     id="path5" />
</svg>
