<svg width="48" height="48" version="1.1" viewBox="0 0 48 48" xmlns="http://www.w3.org/2000/svg" xmlns:xlink="http://www.w3.org/1999/xlink">
<defs>
<style id="current-color-scheme" type="text/css">.ColorScheme-Highlight {
        color:#3daee9;
      }</style>
<linearGradient id="linearGradient6218-9" x1="408.33" x2="437.79" y1="555.74" y2="492.4" gradientTransform="matrix(.49005 0 0 .42369 -187.99 -204.88)" gradientUnits="userSpaceOnUse">
<stop style="stop-color:#353a3f;stop-opacity:.99608" offset="0"/>
<stop style="stop-color:#272727;stop-opacity:.98876" offset="1"/>
</linearGradient>
<linearGradient id="linearGradient850-6" x1="392.59" x2="420.29" y1="501.23" y2="503.48" gradientTransform="matrix(.49143 0 0 .31854 -188.93 -153.06)" gradientUnits="userSpaceOnUse">
<stop style="stop-color:#444647" offset="0"/>
<stop style="stop-color:#696969;stop-opacity:.42697" offset="1"/>
</linearGradient>
<radialGradient id="radialGradient6178-3-9" cx="397.99" cy="485.79" r="11.249" gradientTransform="matrix(-5.353e-5 .024235 -.51175 -.0011862 269.24 -6.224)" gradientUnits="userSpaceOnUse">
<stop style="stop-color:#d8dbd8" offset="0"/>
<stop style="stop-color:#272727;stop-opacity:.98876" offset="1"/>
</radialGradient>
<linearGradient id="linearGradient2676-3" x1="406.46" x2="414.47" y1="539.62" y2="506.87" gradientTransform="matrix(.49017 0 0 .49893 -187.96 -241.91)" gradientUnits="userSpaceOnUse">
<stop style="stop-color:#1a1b1b" offset="0"/>
<stop style="stop-color:#474747" offset="1"/>
</linearGradient>
<linearGradient id="linearGradient2684-3" x1="395.58" x2="404.77" y1="530.01" y2="505.63" gradientTransform="matrix(.49017 0 0 .49893 -187.96 -241.91)" gradientUnits="userSpaceOnUse">
<stop offset="0"/>
<stop style="stop-color:#c3c3c3;stop-opacity:0" offset="1"/>
</linearGradient>
<linearGradient id="linearGradient25155-8" x1="21.812" x2="4.0043" y1="3.9336" y2="4" gradientTransform="matrix(.5 0 0 .5 -.0021617 5.801e-7)" gradientUnits="userSpaceOnUse">
<stop style="stop-color:#1b1b1b" offset="0"/>
<stop style="stop-color:#090909;stop-opacity:.24541" offset=".49971"/>
<stop style="stop-color:#010101;stop-opacity:.23889" offset=".813"/>
<stop style="stop-opacity:.87011" offset="1"/>
</linearGradient>
<linearGradient id="linearGradient24" x1="12.021" x2="12.012" y1="7.2813" y2="-.72563" gradientTransform="matrix(.5 0 0 .5 -.0021617 5.801e-7)" gradientUnits="userSpaceOnUse" xlink:href="#linearGradient25029-0"/>
<linearGradient id="linearGradient25029-0" x1="12.021" x2="12.012" y1="7.2813" y2="-.72563" gradientUnits="userSpaceOnUse">
<stop style="stop-color:#4f5152" offset="0"/>
<stop style="stop-color:#010501" offset="1"/>
</linearGradient>
</defs>
<g transform="matrix(1.4837 0 0 1.4995 .010931 -.0017219)">
<path d="m1.2242 20.001v-18s0.023457-0.85555 0.77653-0.85555c0 0 9.7948-0.014237 9.9468 0l2.4893 1.8542 12.564 0.00149c3 0 3 3 3 3v14" style="fill:none;stroke-width:.34525;stroke:#000"/>
<path d="m2.0002 0.99966c-0.77656 0-0.77656 1-0.77656 1v20h28.776s5e-6 -9.6216 0-16c0-3-3.1212-3.2803-3.1212-3.2803l-12.691-0.076857-1.7782-1.3353c-0.26034-0.19459-0.47317-0.30754-0.82329-0.30754z" style="fill:url(#linearGradient6218-9);stroke-linecap:round;stroke-linejoin:bevel;stroke-width:.251;stroke:#000a00"/>
<path d="m1.278 19.054 0.037349-16.044 10.026 0.0287 0.65837-1.0386 1.6495 1.182h13.351c2.662 0 2.662 2.6617 2.662 2.6617v9" style="fill:none;stroke-width:.39565px;stroke:url(#linearGradient850-6)"/>
<path d="m14 2.6429v0.35716s8.6765-0.028469 13-5e-7l0.7982 0.080745s-0.49566-0.35848-0.9194-0.36105c-0.0032-1.93e-5 -12.879-0.076855-12.879-0.076855z" style="fill:url(#radialGradient6178-3-9);stroke-width:.33295"/>
<path d="m0.99798 6.9973v20s0 3 3 3c0 0 19.668 5.4e-4 24 0 3-3.51e-4 3-3 3-3 2.25e-4 -4.3303 0-16 0-16s0-0.99998-1-0.99998c0 0-9.8034 0-13.425-2-1.9089-1.054-3.0486-1.7447-4.0207-1.7447h-10.574c-1 0-0.97931 0.74471-0.97931 0.74471z" style="fill:none;stroke-linejoin:round;stroke-width:.66752;stroke:#000"/>
<path d="m0.85839 26.894s0.1312 3.104 3.1393 3.104c4.7341 4.99e-4 19.669 0 24 0 3 0 3-3 3-3v-16c0-1-1-1-1-1s-10.387 0.00579-14-2c-2.7549-1.5295-3-2-4-2h-10c-1 0-1 1-1 1z" style="fill:url(#linearGradient2676-3);stroke-linejoin:round;stroke-width:.64136;stroke:url(#linearGradient2684-3)"/>
<path class="ColorScheme-Highlight" d="m1.2234 2 1.1e-6 1h9.7765v-1.8559l-8.7765-1.2e-6c-1 1.2e-6 -1 0.8559-1 0.8559z" style="fill:currentColor;mix-blend-mode:normal;stroke-width:.5"/>
<path d="m2.2234 1.1216c-1 0-1 0.6233-1 0.87805v1.0102h9.7765s1.0444-1.3506 1-1.6128c-0.13862-0.25456-0.7189-0.27554-1-0.27554z" style="color:#3daee9;fill:url(#linearGradient25155-8);stroke-width:.345;stroke:url(#linearGradient24)"/>
<path d="m2.2234 1.3899c-1 0-1 0.6233-1 0.87805v0.74205h9.8595s0.5933-0.8606 0.9172-1.3677c-0.16569-0.20501-0.7189-0.25239-1-0.25239z" style="color:#3daee9;fill:none;stroke-width:.345;stroke:url(#linearGradient24)"/>
</g>
<path class="ColorScheme-Text" d="m14.247 24.774h-0.80161c-0.56112 0.0798-1.1223 0.15961-1.6032 0.31923-2.485 0.79806-4.489 2.7932-5.2906 5.2672-0.16032 0.47884-0.24048 1.0375-0.32064 1.5961v0.79806 0.79806c0.080161 0.55864 0.16032 1.0375 0.32064 1.5961 0.80161 2.474 2.8056 4.4692 5.2906 5.2672 0.48096 0.0798 1.0421 0.23942 1.6032 0.23942 0.24048 0.0798 0.48096 0.0798 0.80161 0.0798 0.24048 0 0.56112 0 0.80161-0.0798 0.56112 0 1.0421-0.15961 1.6032-0.23942 0.48097-0.15961 0.96193-0.39903 1.4429-0.63845 1.7635-1.0375 3.2064-2.6336 3.8477-4.6288 0.08016-0.55864 0.24048-1.0375 0.24048-1.5961 0.08016-0.23942 0.08016-0.55864 0.08016-0.79806 0-0.31922 0-0.55864-0.08016-0.79806 0-0.55864-0.16032-1.1173-0.24048-1.5961-0.32064-0.95768-0.88177-1.9154-1.507-2.7134-0.17635-0.15961-0.33668-0.31923-0.57716-0.55864-0.64129-0.71826-1.5231-1.2769-2.485-1.6759-0.24048-0.0798-0.48096-0.23942-0.72145-0.31922-0.56112-0.15961-1.0421-0.23942-1.6032-0.31923h-0.80161zm0 0.79806c1.2024 0 2.3247 0.31922 3.3668 0.79806 0 0 0 0.0798 0.08016 0.07183 0 0.0079 0 0.08779 0.03207 0.08779 0.04809 0 0.04809 0 0.04809 0.03991 0.08016 0.03991 0.08016 0.03991 0.08016 0.09976 0 0.01995-0.08016 0.01995-0.12826 0.09976-0.03207 0.0798-0.03207 0.0798-0.03207 0.12768 0 0.03192 0 0.03192 0.03207 0.07183-0.03207 0.03991-0.03207 0.03991-0.03207 0.11971 0.08016 0.0798 0.16032 0 0.24048 0 0.16032-0.0798 0.24048 0 0.32064-0.0798 0-0.0798 0.08016-0.0798 0.12826-0.15961 0.03207 0.0798 0.11223 0.0798 0.14428 0.15961-0.03207 0-0.11223 0-0.11223 0.03192-0.08016 0.04788-0.08016 0.04788-0.16032 0.12768 0 0 0 0.07183-0.08016 0.07183s-0.16032-0.07183-0.16834-0.07183c-0.07214 0.0798-0.07214 0.0798-0.08016 0.15961-0.07214 0.02482-0.23247-0.0798-0.2966 0.03991 0.06412 0.08267 0.14428 0.03991 0.22445 0.09976 0.08016 0.02904 0.16032 0.17956 0.1523 0.22745 0.0081 0.03763 0.0081 0.19154 0 0.19154-0.04721 0.15961-0.16854 0.0798-0.30261 0.0798-0.03647 0-0.09017 0.0798-0.09017 0-0.24048 0-0.48096 0-0.56113 0.12768 0.0072 0.11173 0 0.19154 0 0.27134-0.02037 0.0798-0.08016 0.15961-0.1002 0.23942 0.0016 0 0.1002 0.0798 0.1002 0.15961 0 0-0.08016 0-0.02486 0.07183 0.03771 0.08779 0.105-0.0085 0.2012 0 0.06333 0.0079 0.14428 0.08779 0.14428 0.16759 0 0.06074-0.08016 0.15961-0.08016 0.23942-0.05411 0.0658-0.16032 0-0.26533 0.09577-0.05531 0.0425-0.13547 0.14365-0.13547 0.22346-0.08016 0.0798-0.16032 0.0798-0.08016 0.23942-0.0756 0.0798-0.16032 0.15961-0.28858 0.23942-0.03207 0-0.11223 0.0798-0.12024 0.09577-0.07214 0.01927-0.07214 0.06385-0.07214 0.09577-0.08016 0.05957-0.15267 0.12768-0.18036 0.12768-0.02044 0.03335 0.02004 0.0798-0.02806 0.15961-0.03207 0-0.11223 0.0798-0.11223 0.15961-0.02894 0-0.06481 0.0798-0.08818 0.0798-0.07214 0.10907-0.07214 0.15961-0.07214 0.23942 0 0.08109 0.08016 0.0798 0.07214 0.15961 0.0081 0.03479-0.07214 0.0798-0.07214 0.09976 0 0.05986 0.08016 0.05986 0.07214 0.13966 0.0081 0.0798-0.05179 0.15961-0.07214 0.23942-0.01018 0.0049 0.0087 0.04227 0 0.07183-0.01748 0.05171-0.09875 0.08383-0.08016 0.16759-0.02164 0.02506 0.08016 0.0659 0.08016 0.0798-0.02185 0.09337-0.05884 0.13397-0.08016 0.17557 0.04609 0.07738 0.19431 0.18747 0.25651 0.22346 0.08206 0.10763 0.16298 0.16236 0.1996 0.23942 0.02486 0.08396 0.0432 0.20425 0.097 0.25937 0.04525 0.04063 0.12444 0.05773 0.16834 0.09976 0.06101 0.03919 0.13144 0.05767 0.16032 0.09976 0.11395 0.06967 0.23438 0.20968 0.37596 0.17956 0.0741 0.01436 0.14219-0.01549 0.22525 0 0.08598-0.04446 0.2004-0.0798 0.27255-0.0798 0.08818 0.0072 0.08818 0.05427 0.2004 0.0798 0.07587-0.03392 0.17045-0.06852 0.25651-0.10455 0.14128-0.06261 0.3633-0.21468 0.57315-0.13487 0.18036 0 0.18036 0.1883 0.27655 0.23942 0.12724 0.03153 0.22264-0.0046 0.32465 0 0.07727 0.03879 0.16806 0.18349 0.17235 0.24421 0.01018 0.07501-0.03207 0.07501-0.03207 0.14684-0.03539 0.08712-0.05062 0.19872-0.06412 0.25219-0.01257 0.04226-0.02749 0.08282-0.01603 0.15482 0 0.0078 0.05079 0.09533 0.09017 0.15961 0.07014 0 0.11706 0.09289 0.1503 0.15961 0.13144 0.12184 0.17618 0.28789 0.24048 0.47884 0.02894 0.01062-0.0075 0.01905 0 0.07182-0.02204 0.2417-0.10523 0.40157-0.26533 0.64643-0.05531 0.11197-0.15196 0.21543-0.13547 0.32401-0.02064 0.26129 0.12188 0.39623 0.08016 0.64962 0.0039 0.33843 0.0313 0.3913 0.0048 0.54268 0.11533 0.08794 0.05876 0.25868-0.0048 0.39903-0.01948 0.12364-0.0675 0.15865-0.08016 0.25538 0.04474 0.02473 0.09483 0.03119 0.16032 0.02394-1.311 1.3586-3.1674 2.1947-5.2105 2.1947-0.95632 0-1.8703-0.18731-2.7255-0.52672 0.01724 0.0018 0.02284-0.02081 0-0.02195 0.09579-0.03192 0.24022 0.05602 0.29579-0.04987 0.02754-0.05076-0.03667-0.14874 0-0.19952 0.02601-0.03479 0.19638-0.06612 0.26533-0.07501 0.06225-0.01287 0.14165 0.0028 0.16032-0.0048 0.07314-0.05044 0.134-0.12954 0.12826-0.23942-7e-3 -0.0221-0.04473-0.04211-0.04809-0.0798-0.05772-0.03192-0.0362-0.07073-0.08016-0.09976-0.0099-0.05076-0.06057-0.07561-0.07534-0.13966 0.10514-0.03024 0.24944 0.10693 0.4008 0.0798 0.07162-0.03531 0.19213-0.1727 0.23567-0.23942 1.6e-4 -0.02035-0.02164-0.1 0-0.12768 0.0031-0.02454 0.03567-0.03244 0.04007-0.03192 0.01018-0.05415-0.0087-0.0652 0-0.08779 0.02622-0.07597 0.10657-0.1229 0.12024-0.17637 0.06357-0.04082 0.09962-0.08284 0.16032-0.1249 0.0049-0.04501 0.02185-0.06053 0.04809-0.08978 0.01889-0.14198-0.08517-0.24309-0.05612-0.35913 0.03796-0.13054 0.22693-0.21486 0.32866-0.27453 0.06874-0.02016 0.11388-0.06161 0.16032-0.07462 0.07742-0.03048 0.18392-0.0209 0.24048-0.04987 0.16204-0.04932 0.20851-0.19948 0.27255-0.32721 0.03508-0.05502 0.07231-0.10458 0.04809-0.14365 0.03567-0.04075 0.02285-0.08416 0-0.12768 0.03727-0.0435 0.04349-0.07684 0.08016-0.12768-0.0088-0.05942 0-0.17678 0-0.27134 0-0.03308-0.02361-0.04754 0-0.0798-0.03523-0.20852 0.03026-0.21624 0.1002-0.31922 0.03496-0.05076 0.05046-0.13832 0.07615-0.15961 0.11705-0.18903 0.31418-0.2747 0.2966-0.55864-0.0027-0.06708-0.0331-0.25176-0.097-0.27932-0.03668-0.01597-0.12163-0.0046-0.17555-0.02394-0.17197-0.06464-0.29671-0.26083-0.47295-0.25538-0.04093-0.02155-0.06093-0.01836-0.12826 0-0.04494-0.02155-0.1217-0.08607-0.2004-0.0798-0.04955-0.02054-0.1462-4.38e-4 -0.2004 0-0.02016-0.03675-0.01377-0.115-0.08016-0.15961 8.82e-4 -3.98e-4 -0.05002-0.01392-0.08016 0-0.08645-0.05746-0.13236-0.07398-0.24048-0.0798-0.0011-0.0016-0.07108 4e-3 -0.1002 0-0.04521-0.0072-0.08299-0.04872-0.12425-0.07501-0.05342-0.03192-0.07934-0.05457-0.10421-0.08459 0.0511-0.17162-0.11543-0.19792-0.1475-0.31922-0.01436-0.01212 0.01482-0.082 0-0.11971-0.01872-0.05371-0.06529-0.07974-0.12505-0.12768-0.10493-0.07825-0.2006-0.15273-0.3507-0.17158-0.06701-0.0072-0.1453 0.0055-0.2505 0-0.05947-0.0055-0.16133-0.05218-0.22445-0.1237-0.06224-0.07211-0.07234-0.14222-0.09619-0.17557-0.08104-0.03192-0.17044-0.04154-0.20842-0.07501-0.01302-0.01437-0.0075-0.04134-0.02204-0.08459-0.02621-0.0423-0.08216-0.05094-0.0501-0.11173-0.05828-0.03204-0.03754 0.03359-0.1002 0.02394-0.05683-0.0798-0.09721-0.12641-0.22846-0.07182-0.05527-0.01836-0.10385 0.06838-0.19239 0.07182-0.03679-3.98e-4 -0.08099-0.09161-0.15551-0.07182-0.05663-0.03711-0.1358 0.02866-0.16513 0-0.07271 0.0084-0.07847-0.06696-0.16032-0.10455-0.01719-0.02782-0.10193-0.10141-0.12826-0.10295-0.06986 0.0045-0.12189 0.15642-0.19239 0.10295-0.0796-0.06261 0.053315-0.06692-0.00802-0.1249-0.040681-0.0435-0.062196 0.0018-0.096995 0.02195-0.041003 0.03053-0.08028 0.06193-0.12545 0.04788-0.10056 0.06768-0.17181 0.06421-0.2505 0.0798-0.072866 0.06268-0.08299 0.12553-0.12826 0.19952-0.030501 0.06098-0.096289 0.14673-0.14429 0.11971-0.064249 0.03392-0.12297-0.04663-0.20842-0.0798-0.13753-0.06256-0.2323 0.05842-0.4008 0.0798-0.098189-0.01836-0.27637-0.22376-0.24048-0.34396-0.026052-0.07417 0.011298-0.18316 0-0.27453 0.027254-0.07254 0.093829-0.13279 0.096193-0.17956 6.013e-4 -0.10843-0.14311-0.18437-0.2012-0.19154-0.1372-0.01995-0.32022 0.05798-0.45611 0-0.049218-0.05231 0.037636-0.07982 0.080161-0.12768-0.014874-0.02753-0.035231-0.04434 0-0.07501-0.00762-0.04625 0.053299-0.07518 0.072144-0.1245 0.019039-0.03775 0.012031-0.10322 0.028056-0.19952 0.018918-0.0024 0.070742-0.03709 0.076153-0.07501 0.00465-0.04913-0.036874-0.11752-0.076153-0.14844-0.12096 0.0063-0.2056 0.01728-0.26052 0.06385-0.17242 0.05614-0.13173 0.25994-0.32064 0.31922-0.023888 0.0075-0.10913 0.02976-0.16032 0.03991 0.093639-0.52215 0.25527-1.0216 0.48096-1.4964 0.040361 0.01018 0.087183 0.04549 0.16032 0.01995 0.10903 0.04006 0.11469-0.0617 0.24048-0.11971 0.098646 0.01597 0.15705-0.01152 0.24048 0 0.09002 0.0072 0.19012 0.09541 0.24529 0.09976 0.046854 0.0016 0.056673-0.05715 0.075351-0.04987 0.068739 0.0072 0.14302 0.09741 0.16032 0.14964-0.0028 0.06529-0.054068 0.12698-0.032065 0.19952 0.065532 0.06967 0.19995 0.10902 0.27255 0.11971 0.089179-0.02234 0.035231-0.14404 0-0.23942 0.023447-0.01347 0.028858-0.04929 0-0.0798 0.017836-0.05219 0-0.10467 0-0.14964 0-0.20742 0.1607-0.29286 0.32064-0.37708 0.03968-0.0318 0.10285-0.09559 0.15231-0.11971 0.077316-0.03831 0.11715-0.04202 0.17836-0.0798 0.11075-0.05942 0.21461-0.12544 0.30261-0.19952 0.037354-0.09128-0.00602-0.20345 0-0.27134 0.037354-0.0496 0.055976-0.02095 0.088177 0 0.07703-0.03946 0.09737-0.13687 0.13547-0.15961 0.02168-0.03675 0.09879-0.04314 0.12505-0.06385 0.06701-0.05327 0.06693-0.12742 0.14028-0.17557 0.0054 0.01776 0.05307 0.0087 0.08497 0 0.04397-0.01152 0.1056-0.05023 0.15551-0.07501 0.06525-0.01597 0.1779-0.0073 0.19239-0.02474 0.02489-0.02179-0.0026-0.11627 0-0.13966 0.03796-0.17388 0.28167-0.1793 0.42886-0.23463 0.10201-0.03898 0.21198-0.12132 0.34068-0.08459-0.03691 0.06333-0.13418 0.04037-0.11222 0.15961 0.02176 0.10706 0.17581-0.05598 0.19239-0.07501 0.11896-0.03754 0.28922-0.05748 0.40561-0.08459 0.10222-0.05119 0.27173-0.12192 0.15551-0.23942-0.06012-0.0055-0.08537 0.07073-0.15551 0.0798-0.08497 0.02713-0.05923-0.0021-0.08497-0.0079-0.05439 0.0014-0.07584 0.03519-0.11223 0.0079-0.04236 0.01272-0.09739-0.05833-0.12826-0.10455 9e-3 -0.12204 0.15086-0.15966 0.2004-0.2466-0.0335-0.11324-0.18228-0.0094-0.27575-0.05586 0.01038-0.06229 0.04822-0.13358 0.07535-0.14684 0.11278-0.0099 0.26271 0.01992 0.3006 0.07501 0.02188-0.0061-0.0084 0.04429 0.02486 0.07183 0.03811 0.03635 0.10095 0.01018 0.1475 0 0.02049-0.07968-0.11177-0.0431-0.097-0.07183 0.0989-0.08858 0.27964-0.05906 0.42565-0.07501 0.04494-0.0099 0.11268-0.06617 0.17635-0.08459 0.05727-0.04832 0.11314-0.09505 0.14428-0.03991 0.04754 0.05945-0.01167 0.09424-0.04809 0.1245-0.10921 0.09884-0.21016 0.20983-0.27255 0.32441 0.0289 0.05227 0.11004 0.01481 0.2004 0.02195 0.03496 0.0072 0.08881 0.02219 0.12505 0.02794 0.04397 0.0072 0.09047-0.0072 0.15551 0 0.03119 0.01451 0.03398 0.09976 0.09619 0.09976 0.0981 0 0.10598-0.08291 0.06413-0.14964 0.0024-0.06823 0.03487-0.1267 0-0.17757-0.03519-0.08694-0.20669 0.01779-0.24048-0.07183 0.01944-0.09749 0.099-0.11944 0.12826-0.15961-0.01467-0.15421 0.11177-0.1631 0.11223-0.31923-0.02225-0.02234-0.07879-0.02056-0.11223-0.06983-0.02192-0.0261-0.03131-0.08089-0.05612-0.08978-0.07274-0.07382-0.2137-0.0627-0.22245-0.18435-4e-3 -0.07274 0.01018-0.1214 0-0.19872-0.01018-0.07498-0.08621-0.28576-0.1503-0.30326-0.08161-0.01437-0.12781 0.13261-0.22846 0.2075-0.04941-0.0052-0.14347 0.0052-0.2004-0.0079-0.03195-0.0042-0.09282-0.03009-0.097-0.09656-0.0039-0.03862 0.0087-0.05227 0.02486-0.07501 0.0037-0.0054-0.0039-0.0193 0-0.02794 0.63407-0.17843 1.3113-0.27134 2.004-0.27134zm-2.966 0.63845c-0.08615 0.23672-0.29201 0.36615-0.56914 0.35913-0.06401 0.06385-0.03575 0.18585-0.07214 0.27134-0.03062 0.07697-0.12608 0.1335-0.2004 0.12768-0.05395-4e-3 -0.2004-0.07394-0.2004-0.12768 0-0.03861 0.09051-0.08561 0.1002-0.15163 0.29503-0.15999 0.60431-0.32276 0.94189-0.47884zm6.0922 0.25937c0.0031 0.0048-0.02144 0.01107-0.04809 0.02794-0.05239 0.03036-0.05492 0.08082-0.09619 0.11173-0.06072 0.0067-0.14256 0.0063-0.17635 0.05985 0.01784 0.04501 0.07668 0.05915 0.07214 0.09976-0.01888 0.05371-0.06044 0.05938-0.07214 0.12768 0.07431 0.1174 0.2589-0.0018 0.32064-0.04788 0.07087 0.0084 0.1084 0.02662 0.08016-0.0079 0.07487-0.0362 0.05624-0.11646 0.07214-0.17158 0.02345-0.06098 0.08544-0.0461 0.08818-0.09976-0.01564-0.05371-0.12007-0.10846-0.24048-0.09976zm-7.9359 0.93772c0.078486 0.04925 0.12322 0.14253 0 0.15961 0.01046 0.03213-0.16543 0.05715-0.2004 0.0798-0.010849-0.03145-0.015311-0.04812-0.024049-0.0798 0.075607-0.04914 0.16965-0.10391 0.22445-0.15961zm0.24048 0.23144c0.01992 0.0045 0.044337 0.07494 0.08497 0.0798 0.039559 0.0012 0.10209-0.03419 0.15551-0.02394 0.031182 0.01272 0.053315 0.12661-0.00802 0.19154-0.045091-0.01437-0.062268-0.07709-0.096995-0.0798-0.099303 0.02737-0.12628 0.21529-0.1996 0.15961-0.070982 0.04269-0.12255-0.09886-0.048096-0.15961-0.00144-0.03359-0.031022-0.04625-0.028056-0.08779 0.021883-0.02952 0.066926-0.08112 0.14028-0.0798zm-0.32064 0.05586c4.008e-4 0-0.00224-0.01167 0.0048 0-0.00998 0.07386-0.040306 0.08544-0.08497 0.11173-0.1185 0.07238-0.18191 0.15086-0.24048 0.2873 0.014874 0.0362-0.10075 0.15679-0.1503 0.14365-0.11513-0.02167 0.048938-0.23798 0.07495-0.27134 0.029379-0.03632 0.066917-0.05909 0.075351-0.0798 0.058557-0.06057 0.068216-0.14638 0.080161-0.16759 0.05499-0.02665 0.15924-0.02988 0.24048-0.02394zm9.8598 0.19632c0.10511-0.0069 0.16297 0.13008 0.21563 0.20271 0.04349 0.05358 0.17888 0.13241 0.26533 0.17158 0.02577 0.02179 0.06505 0.05454 0.08016 0.07501 0.07742 0.02083 0.14948 0.04841 0.20842 0.09656 0.05293 0.05415 0.09501 0.13116 0.11223 0.16759-0.01347 0.05643-0.04738 0.09116-0.04007 0.15961 0.05049-0.01676 0.07667-0.06792 0.1002-0.12768 0.18889 0.27124 0.34976 0.55752 0.501 0.85074-0.03069 0.01912-0.04389 0.03763-0.08016 0.07501 0.01547 0.08122 0.07732 0.18502-0.04809 0.19952-0.07419 0.01018-0.16616-0.07658-0.27255-0.09976-0.04368-0.01018-0.11533 0.01152-0.1503 0-0.08016-0.02753-0.05674-0.12671-0.12224-0.17478-0.04236-0.02741-0.14074-0.06744-0.20361-0.08459-0.03916 6e-3 -0.05923 0.01556-0.08497 0-0.06457 0.0043-0.14958 0.0097-0.16032 0-0.06942-0.03962-0.17016-0.08133-0.18036-0.11173-0.01603-0.0567 0.12235-0.13259 0.1002-0.2075 0.02825-0.0049-0.01776-0.01761-0.02485-0.06984-0.0058-0.03192 7e-3 -0.07944 0-0.08978-0.01032-0.04772-0.06572-0.08336-0.12546-0.08779-0.05251 0-0.10512 0.02794-0.1503 0.02794-0.06414 0.0016-0.1954-0.0322-0.26052-0.02794-0.06313 0.0072-0.09511 0.02506-0.16032 0.02794-0.10675 0.01018-0.18146-0.0072-0.28056 0-0.07142 4e-3 -0.20852 0.04441-0.27575 0.07582-0.03331 0.01516-0.05626 0.05212-0.08497 0.07382-0.03539 0.01018-0.0639 0.01332-0.08818 0.02195-0.04281 0.02183-0.11295 0.06768-0.1523 0.04788-0.05683 0.04446-0.12199 0.02593-0.22445 0-0.07531 0.03392-0.19995 0.01863-0.17635-0.06984-0.02665-0.1349 0.22246-0.07658 0.32064-0.08978 0.07816-0.02011 0.097-0.0764 0.15231-0.15961 0.03074 0.03392 0.05194 0.0174 0.08016 0 0.04169-0.03048 0.11596-0.08987 0.12024-0.12768 0.0087-0.02893-0.02646-0.07359-0.03207-0.09577 0.01564-0.03148 0.07089-0.06159 0.08016-0.10374 0.09131-0.05798 0.12963-0.13243 0.20842-0.17158 0.04797-0.02753 0.14903-0.03428 0.17235-0.05986 0.0057-0.06141-0.0016-0.07263 0-0.11173 0.03207-0.03204 0.02388-0.04712 0.02004-0.05586 0.10877-0.01436 0.18875 0.03232 0.28056 0.02794 0.03936-0.0016 0.08299 0.0028 0.12505-0.02794 0.03515-0.02023 0.06542-0.05442 0.07534-0.07183 0.06297-0.02035 0.10361-0.07194 0.16032-0.07501zm-9.2025 0.07503c0.01828-3e-3 0.05081 0.0021 0.06413 0 0.04353-0.0016 0.07379 0 0.08016 0 0.06653 0 0.11569-0.01451 0.08016 0 0.02677 0.09574-0.19977 0.05981-0.27255 0-8.016e-4 0.0067 0.027808 3e-3 0.048096 0zm-0.27655 0.17557c0.02477 0 0.048938-0.01107 0.075351 0-0.067215 0.05559-0.15916 0.08743-0.27575 0.1237-0.055391 0.0174-0.1401 0.03596-0.18036-0.02794 0.018356-0.07242 0.08069-0.06464 0.080161-0.07183 0.11423-0.0072 0.22628-0.02351 0.3006-0.02394zm9.495 0c-0.0489 0.01516-0.07242 0.11066 0 0.1237 0.0325-0.02028 0.03286-0.06376 0.02405-0.1237-0.01891-0.02126-0.01047-0.0066-0.02405 0zm-0.01603 0.19872c-0.03336 0.0069-0.06048-0.0014-0.08818 0.02473 0.0046 0.08122 0.01903 0.12843 0 0.19952 0.04967 0.08993 0.15505 0.03596 0.17836-0.02394 0.02773-0.15186-0.03026-0.21937-0.09017-0.20031zm0.61644 0.42377c-0.06412-0.02813-0.1126-0.0052-0.13547 0 0.03892 0.11197 0.13955 0.12788 0.26052 0.15961 0.04368-0.0419 0.02973-0.12944 0.06012-0.15961-0.06252 0-0.0962-0.02174-0.16032 0zm-12.729 3.0326c0.054197 0.07491 0.10954 0.15065 0.17836 0.15961 0.036473 0.04377 0.078613 0.03974 0.12545 0 0.037715 0.05706 0.063584 0.08818 0.096995 0.09976 0.08028 0.0261 0.19231 0.02234 0.25331 0.05985 0.093476 0.03065 0.1475 0.193 0.23567 0.23942-0.00602 0.04645-0.02461 0.08989 0 0.12768 0.027896 0.04776 0.10411 0.06343 0.16513 0.11173 0.074509 0.02566 0.1056 0.1277 0.15551 0.15961 0.04481 0.01018 0.082293-0.01152 0.12024 0 0.096185 0.02904 0.11733 0.17429 0.2004 0.15961 0.053948-0.02593 0.066413-0.10739 0.072144-0.15961 0.03948-0.03919 0.071375-0.0798 0.12826-0.0798 0.09035-0.02155 0.11678 0.09108 0.12024 0.17956 0.048979 0.04932 0.092145 0.09741 0.080161 0.14964 0.046935 0.08993 0.043969 0.34536 0 0.38906 0.00177 0.07669-0.094918 0.11202-0.1503 0.15961-0.026212 0.05974-0.054791 0.10153-0.07415 0.12768-0.035952 0.04051-0.074934 0.05762-0.10421 0.11173-0.011582 0.0067-0.00898 0.05435-0.072144 0.08459 0.00633 0.09303-0.061508 0.16284 0 0.27453-0.01046 0.04501 0 0.09598 0 0.11971 0 0.09378-0.089996 0.10994-0.080161 0.17956-0.027255 0.05076 0.039158 0.15628 0.080161 0.22426-0.013423 0.05095 0.069596 0.09153 0.1002 0.15482 0.050982 0.02665 0.10366 0.09706 0.1503 0.15961 0.091809 0.15067 0.13511 0.32108 0.22245 0.45889 0.00802 0.07111 0.14629 0.12409 0.16834 0.17956 0.026052 0.0577-0.00456 0.13479 0 0.15961 0.062445 0.12748 0.31783 0.25123 0.43287 0.31922 0.058397 0.01764 0.10231 0.03579 0.12826 0.0798 0.10233 0.02861 0.26126 0.11639 0.32064 0.15961 0.0149 0.08591 0.03764 0.22703 0.05531 0.32401 0.02168 0.12785-0.0059 0.23648 0 0.37429 0.0038 0.07542 0.02485 0.12408 0.02485 0.17956 0 0.04604 0.0016 0.09358 0 0.11971-0.0016 0.08993 0.0072 0.18296 0 0.27134-4e-3 0.05231-0.0032 0.11057 0 0.16759 4e-3 0.03005 0.04721 0.04564 0 0.08459 0.05331 0.04226-0.0044 0.09153 0 0.15482 0.01018 0.06145 0.10776 0.13533 0.12826 0.23942 0.01158 0.04676 0.03078 0.19954 0.03206 0.27932-0.01563 0.04206-0.02922 0.10322-0.03206 0.11971-7e-3 0.06624 0.0026 0.09635 0 0.15961-2.0004-1.3073-3.3347-3.5263-3.3347-6.0653 0-0.32551 0.033018-0.63367 0.072144-0.95768zm2.7335 0.73422c0.09503-0.03273 0.081885 0.09005 0 0.09577-0.028898 0.01017-0.027375-0.07207 0-0.09577z" style="color:#232629;fill:#646464"/>
</svg>
