<svg width="48" height="48" version="1.1" viewBox="0 0 48 48" xmlns="http://www.w3.org/2000/svg" xmlns:xlink="http://www.w3.org/1999/xlink">
<defs>
<style id="current-color-scheme" type="text/css">.ColorScheme-Highlight {
        color:#3daee9;
      }</style>
<linearGradient id="linearGradient6218-6" x1="408.33" x2="437.79" y1="555.74" y2="492.4" gradientTransform="matrix(.49005 0 0 .42369 -187.99 -204.88)" gradientUnits="userSpaceOnUse">
<stop style="stop-color:#353a3f;stop-opacity:.99608" offset="0"/>
<stop style="stop-color:#272727;stop-opacity:.98876" offset="1"/>
</linearGradient>
<linearGradient id="linearGradient850-5" x1="392.59" x2="420.29" y1="501.23" y2="503.48" gradientTransform="matrix(.49143 0 0 .31854 -188.93 -153.06)" gradientUnits="userSpaceOnUse">
<stop style="stop-color:#444647" offset="0"/>
<stop style="stop-color:#696969;stop-opacity:.42697" offset="1"/>
</linearGradient>
<radialGradient id="radialGradient6178-3-2" cx="397.99" cy="485.79" r="11.249" gradientTransform="matrix(-5.353e-5 .024235 -.51175 -.0011862 269.24 -6.224)" gradientUnits="userSpaceOnUse">
<stop style="stop-color:#d8dbd8" offset="0"/>
<stop style="stop-color:#272727;stop-opacity:.98876" offset="1"/>
</radialGradient>
<linearGradient id="linearGradient2676-6" x1="406.46" x2="414.47" y1="539.62" y2="506.87" gradientTransform="matrix(.49017 0 0 .49893 -187.96 -241.91)" gradientUnits="userSpaceOnUse">
<stop style="stop-color:#1a1b1b" offset="0"/>
<stop style="stop-color:#474747" offset="1"/>
</linearGradient>
<linearGradient id="linearGradient2684-5" x1="395.58" x2="404.77" y1="530.01" y2="505.63" gradientTransform="matrix(.49017 0 0 .49893 -187.96 -241.91)" gradientUnits="userSpaceOnUse">
<stop offset="0"/>
<stop style="stop-color:#c3c3c3;stop-opacity:0" offset="1"/>
</linearGradient>
<linearGradient id="linearGradient25155-8" x1="21.812" x2="4.0043" y1="3.9336" y2="4" gradientTransform="matrix(.5 0 0 .5 -.0021617 5.801e-7)" gradientUnits="userSpaceOnUse">
<stop style="stop-color:#1b1b1b" offset="0"/>
<stop style="stop-color:#090909;stop-opacity:.24541" offset=".49971"/>
<stop style="stop-color:#010101;stop-opacity:.23889" offset=".813"/>
<stop style="stop-opacity:.87011" offset="1"/>
</linearGradient>
<linearGradient id="linearGradient24" x1="12.021" x2="12.012" y1="7.2813" y2="-.72563" gradientTransform="matrix(.5 0 0 .5 -.0021617 5.801e-7)" gradientUnits="userSpaceOnUse" xlink:href="#linearGradient25029-7"/>
<linearGradient id="linearGradient25029-7" x1="12.021" x2="12.012" y1="7.2813" y2="-.72563" gradientUnits="userSpaceOnUse">
<stop style="stop-color:#4f5152" offset="0"/>
<stop style="stop-color:#010501" offset="1"/>
</linearGradient>
</defs>
<g transform="matrix(1.4837 0 0 1.4995 .010931 -.0017219)">
<path d="m1.2242 20.001v-18s0.023457-0.85555 0.77653-0.85555c0 0 9.7948-0.014237 9.9468 0l2.4893 1.8542 12.564 0.00149c3 0 3 3 3 3v14" style="fill:none;stroke-width:.34525;stroke:#000"/>
<path d="m2.0002 0.99966c-0.77656 0-0.77656 1-0.77656 1v20h28.776s5e-6 -9.6216 0-16c0-3-3.1212-3.2803-3.1212-3.2803l-12.691-0.076857-1.7782-1.3353c-0.26034-0.19459-0.47317-0.30754-0.82329-0.30754z" style="fill:url(#linearGradient6218-6);stroke-linecap:round;stroke-linejoin:bevel;stroke-width:.251;stroke:#000a00"/>
<path d="m1.278 19.054 0.037349-16.044 10.026 0.0287 0.65837-1.0386 1.6495 1.182h13.351c2.662 0 2.662 2.6617 2.662 2.6617v9" style="fill:none;stroke-width:.39565px;stroke:url(#linearGradient850-5)"/>
<path d="m14 2.6429v0.35716s8.6765-0.028469 13-5e-7l0.7982 0.080745s-0.49566-0.35848-0.9194-0.36105c-0.0032-1.93e-5 -12.879-0.076855-12.879-0.076855z" style="fill:url(#radialGradient6178-3-2);stroke-width:.33295"/>
<path d="m0.99798 6.9973v20s0 3 3 3c0 0 19.668 5.4e-4 24 0 3-3.51e-4 3-3 3-3 2.25e-4 -4.3303 0-16 0-16s0-0.99998-1-0.99998c0 0-9.8034 0-13.425-2-1.9089-1.054-3.0486-1.7447-4.0207-1.7447h-10.574c-1 0-0.97931 0.74471-0.97931 0.74471z" style="fill:none;stroke-linejoin:round;stroke-width:.66752;stroke:#000"/>
<path d="m0.85839 26.894s0.1312 3.104 3.1393 3.104c4.7341 4.99e-4 19.669 0 24 0 3 0 3-3 3-3v-16c0-1-1-1-1-1s-10.387 0.00579-14-2c-2.7549-1.5295-3-2-4-2h-10c-1 0-1 1-1 1z" style="fill:url(#linearGradient2676-6);stroke-linejoin:round;stroke-width:.64136;stroke:url(#linearGradient2684-5)"/>
<path class="ColorScheme-Highlight" d="m1.2234 2 1.1e-6 1h9.7765v-1.8559l-8.7765-1.2e-6c-1 1.2e-6 -1 0.8559-1 0.8559z" style="fill:currentColor;mix-blend-mode:normal;stroke-width:.5"/>
<path d="m2.2234 1.1216c-1 0-1 0.6233-1 0.87805v1.0102h9.7765s1.0444-1.3506 1-1.6128c-0.13862-0.25456-0.7189-0.27554-1-0.27554z" style="color:#3daee9;fill:url(#linearGradient25155-8);stroke-width:.345;stroke:url(#linearGradient24)"/>
<path d="m2.2234 1.3899c-1 0-1 0.6233-1 0.87805v0.74205h9.8595s0.5933-0.8606 0.9172-1.3677c-0.16569-0.20501-0.7189-0.25239-1-0.25239z" style="color:#3daee9;fill:none;stroke-width:.345;stroke:url(#linearGradient24)"/>
</g>
<path d="m14.246 24.774c-0.41914 0-0.83143 0.0347-1.2332 0.09643-0.20424 0.08554-0.40165 0.18997-0.58446 0.3156-0.0055 0.0036-0.0091 0.0081-0.01466 0.01167-0.02865 0.01991-0.05967 0.04049-0.08766 0.06137-0.02904 0.02129-0.05645 0.04206-0.08475 0.06429-0.0034 0.0024-0.0081 0.0058-0.01167 0.0088-0.26651 0.21144-0.4999 0.4641-0.68966 0.74809-0.3304 0.48802-0.53125 1.0626-0.54647 1.6628-0.03747 0.52238 0.06922 1.0374 0.28346 1.505 5.98e-4 0.0018 0.0022 0.0039 0.0028 0.0058 0.01556 0.03377 0.03012 0.06905 0.04676 0.10228 0.16668 0.33811 0.39034 0.64068 0.65752 0.90005 0.01002 0.0099 0.01911 0.01945 0.02922 0.02922 0.01938 0.01833 0.03866 0.03766 0.05846 0.05552 0.44282 0.40476 0.99426 0.68861 1.5956 0.78316 0.36667 0.06927 0.74137 0.07072 1.1076 0.0088 0.02404-0.0037 0.04921-7e-3 0.07306-0.01167 0.0028 0 0.0034-0.0025 0.0058-3e-3 0.24814-0.04741 0.48831-0.12148 0.71304-0.22209 0.0033-0.0018 0.0051-4e-3 0.0088-0.0058 0.01551-0.0072 0.0314-0.01332 0.04676-0.02045 0.44175-0.2057 0.83974-0.50924 1.1455-0.8942 2.1122-0.28124 4.2906 1.1194 4.9153 3.1706 0.22168 0.67165 0.27762 1.3933 0.17826 2.0923 0.25716-0.78199 0.39744-1.6164 0.39744-2.4839 1.24e-4 -4.4072-3.586-7.9806-8.013-7.9806zm-1.7096 0.1841c-3.6055 0.77967-6.3064 3.9736-6.3064 7.7965 0 2.0002 0.73949 3.8274 1.9609 5.2279 0.96434 0.64467 2.2755 0.76227 3.311 0.19579 1.4292-0.69721 2.1505-2.5273 1.578-4.0181-0.38433-1.101-1.3907-1.9523-2.5395-2.1274-1.2983-1.6992-1.1849-4.2979 0.26885-5.8679 0.47105-0.53296 1.0696-0.94427 1.7271-1.2069zm6.0404 7.0397c-0.97617-0.02478-1.9688 0.37972-2.5921 1.1572-0.75584 0.88522-0.98174 2.1848-0.55816 3.2729-0.81411 1.9804-3.1113 3.1786-5.19 2.6972-0.58183-0.12047-1.134-0.36106-1.6248-0.69549 1.4477 1.4243 3.4381 2.3056 5.6342 2.3056 3.3882 0 6.2818-2.0947 7.4548-5.0525 0.14635-1.2168-0.40893-2.5139-1.467-3.1648-0.49309-0.33611-1.0712-0.50529-1.657-0.52016z" style="fill:#646464;stroke-width:.7481"/>
</svg>
