<svg width="48" height="48" version="1.1" viewBox="0 0 48 48" xmlns="http://www.w3.org/2000/svg" xmlns:xlink="http://www.w3.org/1999/xlink">
<defs>
<style id="current-color-scheme" type="text/css">.ColorScheme-Highlight {
        color:#3daee9;
      }</style>
<linearGradient id="linearGradient6218-0" x1="408.33" x2="437.79" y1="555.74" y2="492.4" gradientTransform="matrix(.49005 0 0 .42369 -187.99 -204.88)" gradientUnits="userSpaceOnUse">
<stop style="stop-color:#353a3f;stop-opacity:.99608" offset="0"/>
<stop style="stop-color:#272727;stop-opacity:.98876" offset="1"/>
</linearGradient>
<linearGradient id="linearGradient850-5" x1="392.59" x2="420.29" y1="501.23" y2="503.48" gradientTransform="matrix(.49143 0 0 .31854 -188.93 -153.06)" gradientUnits="userSpaceOnUse">
<stop style="stop-color:#444647" offset="0"/>
<stop style="stop-color:#696969;stop-opacity:.42697" offset="1"/>
</linearGradient>
<radialGradient id="radialGradient6178-3-0" cx="397.99" cy="485.79" r="11.249" gradientTransform="matrix(-5.353e-5 .024235 -.51175 -.0011862 269.24 -6.224)" gradientUnits="userSpaceOnUse">
<stop style="stop-color:#d8dbd8" offset="0"/>
<stop style="stop-color:#272727;stop-opacity:.98876" offset="1"/>
</radialGradient>
<linearGradient id="linearGradient2676-2" x1="406.46" x2="414.47" y1="539.62" y2="506.87" gradientTransform="matrix(.49017 0 0 .49893 -187.96 -241.91)" gradientUnits="userSpaceOnUse">
<stop style="stop-color:#1a1b1b" offset="0"/>
<stop style="stop-color:#474747" offset="1"/>
</linearGradient>
<linearGradient id="linearGradient2684-9" x1="395.58" x2="404.77" y1="530.01" y2="505.63" gradientTransform="matrix(.49017 0 0 .49893 -187.96 -241.91)" gradientUnits="userSpaceOnUse">
<stop offset="0"/>
<stop style="stop-color:#c3c3c3;stop-opacity:0" offset="1"/>
</linearGradient>
<linearGradient id="linearGradient25155-4" x1="21.812" x2="4.0043" y1="3.9336" y2="4" gradientTransform="matrix(.5 0 0 .5 -.0021617 5.801e-7)" gradientUnits="userSpaceOnUse">
<stop style="stop-color:#1b1b1b" offset="0"/>
<stop style="stop-color:#090909;stop-opacity:.24541" offset=".49971"/>
<stop style="stop-color:#010101;stop-opacity:.23889" offset=".813"/>
<stop style="stop-opacity:.87011" offset="1"/>
</linearGradient>
<linearGradient id="linearGradient24" x1="12.021" x2="12.012" y1="7.2813" y2="-.72563" gradientTransform="matrix(.5 0 0 .5 -.0021617 5.801e-7)" gradientUnits="userSpaceOnUse" xlink:href="#linearGradient25029-3"/>
<linearGradient id="linearGradient25029-3" x1="12.021" x2="12.012" y1="7.2813" y2="-.72563" gradientUnits="userSpaceOnUse">
<stop style="stop-color:#4f5152" offset="0"/>
<stop style="stop-color:#010501" offset="1"/>
</linearGradient>
</defs>
<g transform="matrix(1.4837 0 0 1.4995 .010931 -.0017219)">
<path d="m1.2242 20.001v-18s0.023457-0.85555 0.77653-0.85555c0 0 9.7948-0.014237 9.9468 0l2.4893 1.8542 12.564 0.00149c3 0 3 3 3 3v14" style="fill:none;stroke-width:.34525;stroke:#000"/>
<path d="m2.0002 0.99966c-0.77656 0-0.77656 1-0.77656 1v20h28.776s5e-6 -9.6216 0-16c0-3-3.1212-3.2803-3.1212-3.2803l-12.691-0.076857-1.7782-1.3353c-0.26034-0.19459-0.47317-0.30754-0.82329-0.30754z" style="fill:url(#linearGradient6218-0);stroke-linecap:round;stroke-linejoin:bevel;stroke-width:.251;stroke:#000a00"/>
<path d="m1.278 19.054 0.037349-16.044 10.026 0.0287 0.65837-1.0386 1.6495 1.182h13.351c2.662 0 2.662 2.6617 2.662 2.6617v9" style="fill:none;stroke-width:.39565px;stroke:url(#linearGradient850-5)"/>
<path d="m14 2.6429v0.35716s8.6765-0.028469 13-5e-7l0.7982 0.080745s-0.49566-0.35848-0.9194-0.36105c-0.0032-1.93e-5 -12.879-0.076855-12.879-0.076855z" style="fill:url(#radialGradient6178-3-0);stroke-width:.33295"/>
<path d="m0.99798 6.9973v20s0 3 3 3c0 0 19.668 5.4e-4 24 0 3-3.51e-4 3-3 3-3 2.25e-4 -4.3303 0-16 0-16s0-0.99998-1-0.99998c0 0-9.8034 0-13.425-2-1.9089-1.054-3.0486-1.7447-4.0207-1.7447h-10.574c-1 0-0.97931 0.74471-0.97931 0.74471z" style="fill:none;stroke-linejoin:round;stroke-width:.66752;stroke:#000"/>
<path d="m0.85839 26.894s0.1312 3.104 3.1393 3.104c4.7341 4.99e-4 19.669 0 24 0 3 0 3-3 3-3v-16c0-1-1-1-1-1s-10.387 0.00579-14-2c-2.7549-1.5295-3-2-4-2h-10c-1 0-1 1-1 1z" style="fill:url(#linearGradient2676-2);stroke-linejoin:round;stroke-width:.64136;stroke:url(#linearGradient2684-9)"/>
<path class="ColorScheme-Highlight" d="m1.2234 2 1.1e-6 1h9.7765v-1.8559l-8.7765-1.2e-6c-1 1.2e-6 -1 0.8559-1 0.8559z" style="fill:currentColor;mix-blend-mode:normal;stroke-width:.5"/>
<path d="m2.2234 1.1216c-1 0-1 0.6233-1 0.87805v1.0102h9.7765s1.0444-1.3506 1-1.6128c-0.13862-0.25456-0.7189-0.27554-1-0.27554z" style="color:#3daee9;fill:url(#linearGradient25155-4);stroke-width:.345;stroke:url(#linearGradient24)"/>
<path d="m2.2234 1.3899c-1 0-1 0.6233-1 0.87805v0.74205h9.8595s0.5933-0.8606 0.9172-1.3677c-0.16569-0.20501-0.7189-0.25239-1-0.25239z" style="color:#3daee9;fill:none;stroke-width:.345;stroke:url(#linearGradient24)"/>
</g>
<g transform="matrix(.47438 0 0 .47228 62.854 12.688)">
<path transform="translate(-76.596 2.0119)" d="m-34.865 26.173c-1.4892 1.0526-3.8849 2.839-5.2392 5.198l-0.8079 1.4072 11.742 6.1918 3.3 1.83 3.27-1.8 11.63-6.4923-0.99153-1.626c-1.0685-1.7523-3.8962-4.1873-4.8458-4.6656 0 0-3.9146-2.6359-9.0628-2.6359s-8.9946 2.5928-8.9946 2.5928zm-6.4197 7.3811s-1.4837 3.0091-1.4837 6.9241 1.6278 7.2363 1.6278 7.2363l11.07-8.0945zm30.726-0.22299-11.112 6.2689 11.234 7.7587s1.4642-2.9819 1.4642-6.8805-1.5859-7.1471-1.5859-7.1471zm-12.072 6.8089-3 1.67c-0.1547 0.08932-0.3453 0.08932-0.5 0l-2.94-1.64-11.597 8.4685c0.31168 0.54126 4.7797 8.7377 14.797 8.7377 10.017 0 14.325-7.9342 15.011-9.1379z" style="color:#111111;fill:#646464"/>
<path d="m-99.848 49.021c-0.34688-0.20946-1.1769-0.39059-1.8563-0.39059-2.2031 0-3.5154 1.6366-3.5154 3.4545 0 1.246 0.70871 1.9982 1.7198 1.9982 0.76949 0 1.4175-0.39059 1.8562-1.0973h0.0445c0.12216 0.73676 0.60564 1.0973 1.36 1.0973 1.7197 0 2.942-1.4125 2.942-3.5755 0-2.5385-1.9614-4.3564-4.6326-4.3564-3.4091 0-5.7033 2.6591-5.7033 5.7081 0 2.9592 2.2626 4.7468 4.7681 4.7468 1.1011 0 1.8552-0.12079 2.7914-0.51125 0 0 0.62088-0.21555 0.42465-0.6854-0.1962-0.47004-0.69541-0.27484-0.69541-0.27484-0.60465 0.28584-1.434 0.43573-2.1576 0.43573-2.2486 0-3.8482-1.3526-3.8482-3.8753 0-2.794 2.006-4.5222 4.2544-4.5222 2.3235 0 3.5611 1.4877 3.5611 3.3507 0 1.7273-0.78453 2.463-1.3731 2.4328-0.39231-0.01007-0.4689-0.37545-0.34874-1.1262zm-1.9624 2.2988c-0.12049 0.84055-0.60486 1.3671-1.0407 1.3671-0.40737 0-0.6175-0.30104-0.6175-0.82646 0-1.0218 0.64915-1.8783 1.4933-1.8783 0.12133 0 0.24156 0.01007 0.3467 0.04603z" style="fill:#262727;stroke-width:1.0088"/>
</g>
</svg>
