<svg width="48" height="48" version="1.1" viewBox="0 0 48 48" xmlns="http://www.w3.org/2000/svg" xmlns:xlink="http://www.w3.org/1999/xlink">
<defs>
<style id="current-color-scheme" type="text/css">.ColorScheme-Highlight {
        color:#3daee9;
      }</style>
<linearGradient id="linearGradient6218-1" x1="408.33" x2="437.79" y1="555.74" y2="492.4" gradientTransform="matrix(.49005 0 0 .42369 -187.99 -204.88)" gradientUnits="userSpaceOnUse">
<stop style="stop-color:#353a3f;stop-opacity:.99608" offset="0"/>
<stop style="stop-color:#272727;stop-opacity:.98876" offset="1"/>
</linearGradient>
<linearGradient id="linearGradient850-0" x1="392.59" x2="420.29" y1="501.23" y2="503.48" gradientTransform="matrix(.49143 0 0 .31854 -188.93 -153.06)" gradientUnits="userSpaceOnUse">
<stop style="stop-color:#444647" offset="0"/>
<stop style="stop-color:#696969;stop-opacity:.42697" offset="1"/>
</linearGradient>
<radialGradient id="radialGradient6178-3-1" cx="397.99" cy="485.79" r="11.249" gradientTransform="matrix(-5.353e-5 .024235 -.51175 -.0011862 269.24 -6.224)" gradientUnits="userSpaceOnUse">
<stop style="stop-color:#d8dbd8" offset="0"/>
<stop style="stop-color:#272727;stop-opacity:.98876" offset="1"/>
</radialGradient>
<linearGradient id="linearGradient2676-3" x1="406.46" x2="414.47" y1="539.62" y2="506.87" gradientTransform="matrix(.49017 0 0 .49893 -187.96 -241.91)" gradientUnits="userSpaceOnUse">
<stop style="stop-color:#1a1b1b" offset="0"/>
<stop style="stop-color:#474747" offset="1"/>
</linearGradient>
<linearGradient id="linearGradient2684-7" x1="395.58" x2="404.77" y1="530.01" y2="505.63" gradientTransform="matrix(.49017 0 0 .49893 -187.96 -241.91)" gradientUnits="userSpaceOnUse">
<stop offset="0"/>
<stop style="stop-color:#c3c3c3;stop-opacity:0" offset="1"/>
</linearGradient>
<linearGradient id="linearGradient25155-7" x1="21.812" x2="4.0043" y1="3.9336" y2="4" gradientTransform="matrix(.5 0 0 .5 -.0021617 5.801e-7)" gradientUnits="userSpaceOnUse">
<stop style="stop-color:#1b1b1b" offset="0"/>
<stop style="stop-color:#090909;stop-opacity:.24541" offset=".49971"/>
<stop style="stop-color:#010101;stop-opacity:.23889" offset=".813"/>
<stop style="stop-opacity:.87011" offset="1"/>
</linearGradient>
<linearGradient id="linearGradient24" x1="12.021" x2="12.012" y1="7.2813" y2="-.72563" gradientTransform="matrix(.5 0 0 .5 -.0021617 5.801e-7)" gradientUnits="userSpaceOnUse" xlink:href="#linearGradient25029-2"/>
<linearGradient id="linearGradient25029-2" x1="12.021" x2="12.012" y1="7.2813" y2="-.72563" gradientUnits="userSpaceOnUse">
<stop style="stop-color:#4f5152" offset="0"/>
<stop style="stop-color:#010501" offset="1"/>
</linearGradient>
</defs>
<g transform="matrix(1.4837 0 0 1.4995 .010931 -.0017219)">
<path d="m1.2242 20.001v-18s0.023457-0.85555 0.77653-0.85555c0 0 9.7948-0.014237 9.9468 0l2.4893 1.8542 12.564 0.00149c3 0 3 3 3 3v14" style="fill:none;stroke-width:.34525;stroke:#000"/>
<path d="m2.0002 0.99966c-0.77656 0-0.77656 1-0.77656 1v20h28.776s5e-6 -9.6216 0-16c0-3-3.1212-3.2803-3.1212-3.2803l-12.691-0.076857-1.7782-1.3353c-0.26034-0.19459-0.47317-0.30754-0.82329-0.30754z" style="fill:url(#linearGradient6218-1);stroke-linecap:round;stroke-linejoin:bevel;stroke-width:.251;stroke:#000a00"/>
<path d="m1.278 19.054 0.037349-16.044 10.026 0.0287 0.65837-1.0386 1.6495 1.182h13.351c2.662 0 2.662 2.6617 2.662 2.6617v9" style="fill:none;stroke-width:.39565px;stroke:url(#linearGradient850-0)"/>
<path d="m14 2.6429v0.35716s8.6765-0.028469 13-5e-7l0.7982 0.080745s-0.49566-0.35848-0.9194-0.36105c-0.0032-1.93e-5 -12.879-0.076855-12.879-0.076855z" style="fill:url(#radialGradient6178-3-1);stroke-width:.33295"/>
<path d="m0.99798 6.9973v20s0 3 3 3c0 0 19.668 5.4e-4 24 0 3-3.51e-4 3-3 3-3 2.25e-4 -4.3303 0-16 0-16s0-0.99998-1-0.99998c0 0-9.8034 0-13.425-2-1.9089-1.054-3.0486-1.7447-4.0207-1.7447h-10.574c-1 0-0.97931 0.74471-0.97931 0.74471z" style="fill:none;stroke-linejoin:round;stroke-width:.66752;stroke:#000"/>
<path d="m0.85839 26.894s0.1312 3.104 3.1393 3.104c4.7341 4.99e-4 19.669 0 24 0 3 0 3-3 3-3v-16c0-1-1-1-1-1s-10.387 0.00579-14-2c-2.7549-1.5295-3-2-4-2h-10c-1 0-1 1-1 1z" style="fill:url(#linearGradient2676-3);stroke-linejoin:round;stroke-width:.64136;stroke:url(#linearGradient2684-7)"/>
<path class="ColorScheme-Highlight" d="m1.2234 2 1.1e-6 1h9.7765v-1.8559l-8.7765-1.2e-6c-1 1.2e-6 -1 0.8559-1 0.8559z" style="fill:currentColor;mix-blend-mode:normal;stroke-width:.5"/>
<path d="m2.2234 1.1216c-1 0-1 0.6233-1 0.87805v1.0102h9.7765s1.0444-1.3506 1-1.6128c-0.13862-0.25456-0.7189-0.27554-1-0.27554z" style="color:#3daee9;fill:url(#linearGradient25155-7);stroke-width:.345;stroke:url(#linearGradient24)"/>
<path d="m2.2234 1.3899c-1 0-1 0.6233-1 0.87805v0.74205h9.8595s0.5933-0.8606 0.9172-1.3677c-0.16569-0.20501-0.7189-0.25239-1-0.25239z" style="color:#3daee9;fill:none;stroke-width:.345;stroke:url(#linearGradient24)"/>
</g>
<g transform="matrix(.03159 0 0 .03145 3.1902 23.949)" style="fill:#646464">
<path d="m350 26.25c-44.543 0-88.301 11.723-126.88 33.996-38.574 22.27-70.609 54.305-92.879 92.879s-33.996 82.332-33.996 126.88c0 67.297 26.734 131.84 74.32 179.43 47.59 47.586 112.13 74.32 179.43 74.32s131.84-26.734 179.43-74.32c47.586-47.59 74.32-112.13 74.32-179.43 0-44.543-11.723-88.301-33.996-126.88-22.27-38.574-54.305-70.609-92.879-92.879-38.574-22.273-82.332-33.996-126.88-33.996zm8.75 41.766c12.57 0.52734 25.141 2.2891 37.633 5.0938 7.6404 1.9066 10.853 2.6571 16.918 4.5467 2.7539 0.85938 5.5352 1.6055 8.2695 2.5977 9.3203 3.3398 18.254 7.3555 26.832 11.863l-19.961 34.555c-6.4219-3.3945-13.07-6.4883-20.027-9.0586-16.246-6.0039-32.98-9.3242-49.664-10.184zm-17.5 0.26562v39.203c-24.34 1.2773-48.152 7.7891-69.727 19.141l-19.789-34.316c11.262-5.8867 22.863-11.059 34.934-14.832 4.8175-1.5029 9.0571-2.4516 16.984-4.2738 12.34-2.7656 24.895-4.3906 37.598-4.9219zm122.29 32.609c10.762 6.8555 20.719 14.699 29.941 23.273 5.3836 5.133 8.049 8.013 12.309 12.477 8.5078 9.3516 16.234 19.367 22.934 30.078l-35.238 20.336h-4e-3c-0.21875 0.125-0.4375 0.25781-0.64453 0.39844-12.43-20.48-29.172-38.199-49.355-51.781zm-227.02 0.19922 19.996 34.59c-13.578 9.0586-26.02 20.113-36.742 33.188-4.832 5.8945-9.1211 12.07-13.023 18.422-0.082-0.0664-0.16406-0.13281-0.24609-0.19922l-35.648-20.609c4.9023-7.7539 10.266-15.301 16.27-22.488 2.207-2.6445 4.6953-4.9414 7.0078-7.4531 4.9752-5.5234 8.0792-8.4669 12.234-12.507 9.4062-8.668 19.527-16.273 30.148-23.004zm113.48 56.5 25.977 151.62v-4e-3c5.7891 6.4141 9.0039 14.738 9.0234 23.379 0 9.2812-3.6875 18.184-10.25 24.75-6.5664 6.5625-15.469 10.25-24.75 10.25s-18.184-3.6875-24.75-10.25c-6.5625-6.5664-10.25-15.469-10.25-24.75 0.0195-8.6406 3.2344-16.965 9.0234-23.379zm-187.89 24.133 35.648 20.574v-4e-3c0.1875 0.11719 0.38281 0.22656 0.57812 0.33203-10.398 21.785-15.793 45.375-16.168 69.145-0.93359-0.31641-1.918-0.47266-2.9062-0.46094h-40.672c0.4375-12.633 2.0547-25.203 4.75-37.562 1.5238-6.5415 2.4514-10.055 4.4095-16.922 3.6992-12.043 8.4609-23.812 14.355-35.137zm375.29 0.26562c5.7656 11.164 10.441 22.906 14.184 35.035 1.6934 6.4096 3.3176 12.275 4.4809 16.91 2.7383 12.387 4.5508 25.07 5.0586 38.043l-43.648 0.52734c-0.48828-24.602-6.3164-48.242-16.441-69.625v4e-3c0.41016-0.16797 0.80859-0.36719 1.1914-0.59766zm-354.65 106.16c1.9453 23.918 8.9102 47.633 21.09 69.418l-39.992 22.457c-6.3828-11.906-11.434-24.262-15.414-36.844-2.6861-8.8822-2.7659-10.58-4.5787-16.902-2.8281-12.379-4.6367-24.898-5.2305-37.461h40.641c1.1953 0.0156 2.3828-0.21875 3.4844-0.67969z" style="fill:#646464"/>
<path d="m358.75 332.5c0 4.8359-3.918 8.75-8.75 8.75s-8.75-3.9141-8.75-8.75c0-4.832 3.918-8.75 8.75-8.75s8.75 3.918 8.75 8.75z" style="fill:#646464"/>
</g>
</svg>
