<svg width="48" height="48" version="1.1" viewBox="0 0 48 48" xmlns="http://www.w3.org/2000/svg" xmlns:xlink="http://www.w3.org/1999/xlink">
<defs>
<style id="current-color-scheme" type="text/css">.ColorScheme-Highlight {
        color:#3daee9;
      }</style>
<linearGradient id="linearGradient6218-9" x1="408.33" x2="437.79" y1="555.74" y2="492.4" gradientTransform="matrix(.49005 0 0 .42369 -187.99 -204.88)" gradientUnits="userSpaceOnUse">
<stop style="stop-color:#353a3f;stop-opacity:.99608" offset="0"/>
<stop style="stop-color:#272727;stop-opacity:.98876" offset="1"/>
</linearGradient>
<linearGradient id="linearGradient850-4" x1="392.59" x2="420.29" y1="501.23" y2="503.48" gradientTransform="matrix(.49143 0 0 .31854 -188.93 -153.06)" gradientUnits="userSpaceOnUse">
<stop style="stop-color:#444647" offset="0"/>
<stop style="stop-color:#696969;stop-opacity:.42697" offset="1"/>
</linearGradient>
<radialGradient id="radialGradient6178-3-5" cx="397.99" cy="485.79" r="11.249" gradientTransform="matrix(-5.353e-5 .024235 -.51175 -.0011862 269.24 -6.224)" gradientUnits="userSpaceOnUse">
<stop style="stop-color:#d8dbd8" offset="0"/>
<stop style="stop-color:#272727;stop-opacity:.98876" offset="1"/>
</radialGradient>
<linearGradient id="linearGradient2676-1" x1="406.46" x2="414.47" y1="539.62" y2="506.87" gradientTransform="matrix(.49017 0 0 .49893 -187.96 -241.91)" gradientUnits="userSpaceOnUse">
<stop style="stop-color:#1a1b1b" offset="0"/>
<stop style="stop-color:#474747" offset="1"/>
</linearGradient>
<linearGradient id="linearGradient2684-0" x1="395.58" x2="404.77" y1="530.01" y2="505.63" gradientTransform="matrix(.49017 0 0 .49893 -187.96 -241.91)" gradientUnits="userSpaceOnUse">
<stop offset="0"/>
<stop style="stop-color:#c3c3c3;stop-opacity:0" offset="1"/>
</linearGradient>
<linearGradient id="linearGradient25155-3" x1="21.812" x2="4.0043" y1="3.9336" y2="4" gradientTransform="matrix(.5 0 0 .5 -.0021617 5.801e-7)" gradientUnits="userSpaceOnUse">
<stop style="stop-color:#1b1b1b" offset="0"/>
<stop style="stop-color:#090909;stop-opacity:.24541" offset=".49971"/>
<stop style="stop-color:#010101;stop-opacity:.23889" offset=".813"/>
<stop style="stop-opacity:.87011" offset="1"/>
</linearGradient>
<linearGradient id="linearGradient24" x1="12.021" x2="12.012" y1="7.2813" y2="-.72563" gradientTransform="matrix(.5 0 0 .5 -.0021617 5.801e-7)" gradientUnits="userSpaceOnUse" xlink:href="#linearGradient25029-7"/>
<linearGradient id="linearGradient25029-7" x1="12.021" x2="12.012" y1="7.2813" y2="-.72563" gradientUnits="userSpaceOnUse">
<stop style="stop-color:#4f5152" offset="0"/>
<stop style="stop-color:#010501" offset="1"/>
</linearGradient>
</defs>
<g transform="matrix(1.4837 0 0 1.4995 .010931 -.0017219)">
<path d="m1.2242 20.001v-18s0.023457-0.85555 0.77653-0.85555c0 0 9.7948-0.014237 9.9468 0l2.4893 1.8542 12.564 0.00149c3 0 3 3 3 3v14" style="fill:none;stroke-width:.34525;stroke:#000"/>
<path d="m2.0002 0.99966c-0.77656 0-0.77656 1-0.77656 1v20h28.776s5e-6 -9.6216 0-16c0-3-3.1212-3.2803-3.1212-3.2803l-12.691-0.076857-1.7782-1.3353c-0.26034-0.19459-0.47317-0.30754-0.82329-0.30754z" style="fill:url(#linearGradient6218-9);stroke-linecap:round;stroke-linejoin:bevel;stroke-width:.251;stroke:#000a00"/>
<path d="m1.278 19.054 0.037349-16.044 10.026 0.0287 0.65837-1.0386 1.6495 1.182h13.351c2.662 0 2.662 2.6617 2.662 2.6617v9" style="fill:none;stroke-width:.39565px;stroke:url(#linearGradient850-4)"/>
<path d="m14 2.6429v0.35716s8.6765-0.028469 13-5e-7l0.7982 0.080745s-0.49566-0.35848-0.9194-0.36105c-0.0032-1.93e-5 -12.879-0.076855-12.879-0.076855z" style="fill:url(#radialGradient6178-3-5);stroke-width:.33295"/>
<path d="m0.99798 6.9973v20s0 3 3 3c0 0 19.668 5.4e-4 24 0 3-3.51e-4 3-3 3-3 2.25e-4 -4.3303 0-16 0-16s0-0.99998-1-0.99998c0 0-9.8034 0-13.425-2-1.9089-1.054-3.0486-1.7447-4.0207-1.7447h-10.574c-1 0-0.97931 0.74471-0.97931 0.74471z" style="fill:none;stroke-linejoin:round;stroke-width:.66752;stroke:#000"/>
<path d="m0.85839 26.894s0.1312 3.104 3.1393 3.104c4.7341 4.99e-4 19.669 0 24 0 3 0 3-3 3-3v-16c0-1-1-1-1-1s-10.387 0.00579-14-2c-2.7549-1.5295-3-2-4-2h-10c-1 0-1 1-1 1z" style="fill:url(#linearGradient2676-1);stroke-linejoin:round;stroke-width:.64136;stroke:url(#linearGradient2684-0)"/>
<path class="ColorScheme-Highlight" d="m1.2234 2 1.1e-6 1h9.7765v-1.8559l-8.7765-1.2e-6c-1 1.2e-6 -1 0.8559-1 0.8559z" style="fill:currentColor;mix-blend-mode:normal;stroke-width:.5"/>
<path d="m2.2234 1.1216c-1 0-1 0.6233-1 0.87805v1.0102h9.7765s1.0444-1.3506 1-1.6128c-0.13862-0.25456-0.7189-0.27554-1-0.27554z" style="color:#3daee9;fill:url(#linearGradient25155-3);stroke-width:.345;stroke:url(#linearGradient24)"/>
<path d="m2.2234 1.3899c-1 0-1 0.6233-1 0.87805v0.74205h9.8595s0.5933-0.8606 0.9172-1.3677c-0.16569-0.20501-0.7189-0.25239-1-0.25239z" style="color:#3daee9;fill:none;stroke-width:.345;stroke:url(#linearGradient24)"/>
</g>
<g transform="matrix(.74818 0 0 .74818 -.039458 -.044902)">
<path transform="translate(38.843 3.859)" d="m-19.748 29.314c-5.917 0-10.714 4.7759-10.714 10.667 0 5.8908 4.7968 10.667 10.714 10.667 5.9175 0 10.714-4.7759 10.714-10.667 1.66e-4 -5.8912-4.7968-10.667-10.714-10.667z" style="fill:#646464;stroke-width:.043869"/>
<path class="st0" transform="translate(.13411 .08713)" d="m25.762 48.492-2.4102-2.4102c-0.1344 0.20675-0.27957 0.40599-0.43462 0.59698l-0.889-0.88903c0.03832-0.05001 0.07625-0.1004 0.11334-0.15166 0.02499-0.03459 0.04959-0.06918 0.07331-0.10416 0.0041-0.0054 0.0079-0.0113 0.01168-0.01666 0.02416-0.0354 0.04831-0.07124 0.07166-0.10707 0.05083-0.07748 0.09956-0.15581 0.14624-0.2358 0.49953-0.85201 0.78658-1.8436 0.78658-2.9006 0-1.057-0.28705-2.0486-0.78658-2.9006-0.49956-0.85119-1.2111-1.5628-2.0623-2.0623-0.85204-0.49956-1.8436-0.78661-2.9006-0.78661-1.057 0-2.0486 0.28705-2.9006 0.78661-0.03497 0.02042-0.06958 0.04125-0.10417 0.06291-0.04416 0.02708-0.08833 0.055-0.13167 0.08333-0.07706 0.0504-0.15329 0.1025-0.22787 0.15666-0.02503 0.01791-0.04958 0.03627-0.07417 0.05459-0.02582 0.0196-0.05165 0.03916-0.07748 0.05877-0.02373 0.01875-0.04792 0.03749-0.07166 0.05664-0.04667 0.03749-0.0929 0.07542-0.13833 0.11458-0.23329 0.1987-0.45077 0.41618-0.6495 0.6495-0.03916 0.04541-0.07709 0.09126-0.11458 0.13833-0.01916 0.02375-0.03795 0.04792-0.05666 0.07166-0.01958 0.02583-0.03917 0.05167-0.05873 0.07749-0.01832 0.02456-0.03664 0.04916-0.05458 0.07415-0.05416 0.07458-0.10623 0.15081-0.15666 0.2279-0.02834 0.04335-0.05626 0.08751-0.08333 0.13167-0.02169 0.03456-0.04249 0.06915-0.06292 0.10416-0.49956 0.85201-0.78661 1.8436-0.78661 2.9006 0 1.057 0.28705 2.0486 0.78658 2.9006 0.49956 0.85116 1.2112 1.5628 2.0623 2.0623 0.85201 0.49956 1.8436 0.78661 2.9006 0.78661 1.057 0 2.0486-0.28705 2.9006-0.78661 0.0533-0.03124 0.10583-0.06334 0.1579-0.09624 0.02624-0.01622 0.05207-0.03292 0.0779-0.04998 0.03585-0.02332 0.07166-0.04749 0.10707-0.07166 0.0054-0.0038 0.0113-0.0075 0.01665-0.01168 0.03497-0.02374 0.06958-0.04833 0.10417-0.07333 0.05126-0.03708 0.10165-0.075 0.15166-0.11331l0.88897 0.88897c-0.19099 0.15502-0.39023 0.30021-0.59692 0.43465l2.4102 2.4102c0.28454 0.28454 0.65786 0.42702 1.0311 0.42702 0.37329 0 0.7466-0.14248 1.0311-0.42705 0.56953-0.56953 0.56953-1.4928 0-2.0623zm-5.9915-2.8394c-0.01168 0.0083-0.02331 0.01624-0.03542 0.02374-0.01334 0.0095-0.02708 0.01833-0.04084 0.02708-0.01243 0.0083-0.02503 0.01624-0.03748 0.02417-0.01626 0.01042-0.03245 0.02042-0.04873 0.02999-0.01542 0.0095-0.0304 0.01875-0.04582 0.02793-0.03291 0.0196-0.06586 0.03832-0.09917 0.05707-0.0025 0.0018-5e-3 0.0029-0.0079 0.0046-0.02712 0.01499-0.05458 0.02958-0.08208 0.04374-0.0108 0.0063-0.02169 0.01205-0.03291 0.0175-0.02167 0.0113-0.04374 0.02209-0.06578 0.03292-0.0421 0.02084-0.0846 0.04084-0.12752 0.05997-0.50871 0.22832-1.0724 0.35538-1.6653 0.35538-0.59286 0-1.1565-0.12706-1.6653-0.35538-0.91493-0.41001-1.6523-1.1474-2.0623-2.0624-0.22835-0.50868-0.35541-1.0724-0.35541-1.6653 0-0.59285 0.12706-1.1566 0.35538-1.6653 0.06415-0.1429 0.13622-0.28163 0.21581-0.41538 0.0092-0.01542 0.01832-0.0304 0.02789-0.04583 0.02582-0.04292 0.05292-0.08541 0.08126-0.12706 0.01542-0.02375 0.03124-0.04706 0.04788-0.07042 0.01958-0.02917 0.04001-0.05793 0.06128-0.08624 0.03203-0.04374 0.06497-0.08708 0.09872-0.12958 0.19291-0.24204 0.41288-0.46204 0.65495-0.65495 0.04249-0.03374 0.08584-0.06666 0.12958-0.09875 0.02834-0.02126 0.0571-0.04168 0.08623-0.06124 0.02336-0.01665 0.04669-0.03251 0.07043-0.04792 0.04168-0.02832 0.08418-0.0554 0.12707-0.08124 0.01542-0.0095 0.0304-0.01875 0.04583-0.02793 0.13373-0.07957 0.27248-0.15166 0.41539-0.21581 0.50871-0.22832 1.0724-0.35538 1.6653-0.35538s1.1566 0.12706 1.6653 0.35538c0.91492 0.40997 1.6523 1.1474 2.0623 2.0623 0.22832 0.50871 0.35538 1.0724 0.35538 1.6653 0 0.59285-0.12707 1.1566-0.35538 1.6653-0.01916 0.04292-0.03917 0.08541-0.05997 0.12749-0.0108 0.02209-0.02167 0.04416-0.03291 0.06585-0.0054 0.0113-0.0113 0.02209-0.01749 0.03292-0.01418 0.02751-0.02877 0.055-0.04374 0.08208-0.0018 0.0029-0.0029 0.0054-0.0046 0.0079-0.01837 0.03333-0.03748 0.06624-0.0571 0.09916-0.0092 0.01542-0.01832 0.03041-0.02789 0.04583-0.0095 0.01626-0.01958 0.03251-0.03001 0.04873-0.0079 0.01256-0.01581 0.02501-0.02416 0.03749-0.0088 0.01374-0.01753 0.0275-0.02708 0.04083-0.0075 0.01206-0.01543 0.02375-0.02373 0.0354-0.0079 0.01168-0.01585 0.02332-0.02415 0.03498-0.0041 0.0072-0.0092 0.01418-0.01459 0.02085-0.0092 0.01374-0.01916 0.02793-0.02918 0.04168-0.07582 0.1054-0.15666 0.20666-0.24247 0.30371-0.0154 0.01793-0.03124 0.0354-0.04706 0.05291-0.02042 0.0225-0.04083 0.045-0.06167 0.06667-0.02416 0.02542-0.04916 0.05083-0.07417 0.07584-0.02495 0.02499-0.0504 0.04998-0.07582 0.07415-0.02167 0.02084-0.04416 0.04122-0.06666 0.06167-0.01753 0.01583-0.03497 0.03166-0.05292 0.04706-0.09705 0.08584-0.19831 0.16665-0.30372 0.2425-0.01376 0.01005-0.02793 0.01999-0.04168 0.02917-0.0067 0.0054-0.01376 0.01042-0.02084 0.01458-0.01168 0.0083-0.02332 0.01622-0.03497 0.02415z" style="fill:#262727;stroke-width:.028237"/>
</g>
</svg>
