<svg width="48" height="48" version="1.1" viewBox="0 0 48 48" xmlns="http://www.w3.org/2000/svg" xmlns:xlink="http://www.w3.org/1999/xlink">
<defs>
<style id="current-color-scheme" type="text/css">.ColorScheme-Highlight {
        color:#3daee9;
      }</style>
<linearGradient id="linearGradient6218-0" x1="408.33" x2="437.79" y1="555.74" y2="492.4" gradientTransform="matrix(.49005 0 0 .42369 -187.99 -204.88)" gradientUnits="userSpaceOnUse">
<stop style="stop-color:#353a3f;stop-opacity:.99608" offset="0"/>
<stop style="stop-color:#272727;stop-opacity:.98876" offset="1"/>
</linearGradient>
<linearGradient id="linearGradient850-8" x1="392.59" x2="420.29" y1="501.23" y2="503.48" gradientTransform="matrix(.49143 0 0 .31854 -188.93 -153.06)" gradientUnits="userSpaceOnUse">
<stop style="stop-color:#444647" offset="0"/>
<stop style="stop-color:#696969;stop-opacity:.42697" offset="1"/>
</linearGradient>
<radialGradient id="radialGradient6178-3-6" cx="397.99" cy="485.79" r="11.249" gradientTransform="matrix(-5.353e-5 .024235 -.51175 -.0011862 269.24 -6.224)" gradientUnits="userSpaceOnUse">
<stop style="stop-color:#d8dbd8" offset="0"/>
<stop style="stop-color:#272727;stop-opacity:.98876" offset="1"/>
</radialGradient>
<linearGradient id="linearGradient2676-2" x1="406.46" x2="414.47" y1="539.62" y2="506.87" gradientTransform="matrix(.49017 0 0 .49893 -187.96 -241.91)" gradientUnits="userSpaceOnUse">
<stop style="stop-color:#1a1b1b" offset="0"/>
<stop style="stop-color:#474747" offset="1"/>
</linearGradient>
<linearGradient id="linearGradient2684-4" x1="395.58" x2="404.77" y1="530.01" y2="505.63" gradientTransform="matrix(.49017 0 0 .49893 -187.96 -241.91)" gradientUnits="userSpaceOnUse">
<stop offset="0"/>
<stop style="stop-color:#c3c3c3;stop-opacity:0" offset="1"/>
</linearGradient>
<linearGradient id="linearGradient25155-7" x1="21.812" x2="4.0043" y1="3.9336" y2="4" gradientTransform="matrix(.5 0 0 .5 -.0021617 5.801e-7)" gradientUnits="userSpaceOnUse">
<stop style="stop-color:#1b1b1b" offset="0"/>
<stop style="stop-color:#090909;stop-opacity:.24541" offset=".49971"/>
<stop style="stop-color:#010101;stop-opacity:.23889" offset=".813"/>
<stop style="stop-opacity:.87011" offset="1"/>
</linearGradient>
<linearGradient id="linearGradient24" x1="12.021" x2="12.012" y1="7.2813" y2="-.72563" gradientTransform="matrix(.5 0 0 .5 -.0021617 5.801e-7)" gradientUnits="userSpaceOnUse" xlink:href="#linearGradient25029-9"/>
<linearGradient id="linearGradient25029-9" x1="12.021" x2="12.012" y1="7.2813" y2="-.72563" gradientUnits="userSpaceOnUse">
<stop style="stop-color:#4f5152" offset="0"/>
<stop style="stop-color:#010501" offset="1"/>
</linearGradient>
</defs>
<g transform="matrix(1.4837 0 0 1.4995 .010931 -.0017219)">
<path d="m1.2242 20.001v-18s0.023457-0.85555 0.77653-0.85555c0 0 9.7948-0.014237 9.9468 0l2.4893 1.8542 12.564 0.00149c3 0 3 3 3 3v14" style="fill:none;stroke-width:.34525;stroke:#000"/>
<path d="m2.0002 0.99966c-0.77656 0-0.77656 1-0.77656 1v20h28.776s5e-6 -9.6216 0-16c0-3-3.1212-3.2803-3.1212-3.2803l-12.691-0.076857-1.7782-1.3353c-0.26034-0.19459-0.47317-0.30754-0.82329-0.30754z" style="fill:url(#linearGradient6218-0);stroke-linecap:round;stroke-linejoin:bevel;stroke-width:.251;stroke:#000a00"/>
<path d="m1.278 19.054 0.037349-16.044 10.026 0.0287 0.65837-1.0386 1.6495 1.182h13.351c2.662 0 2.662 2.6617 2.662 2.6617v9" style="fill:none;stroke-width:.39565px;stroke:url(#linearGradient850-8)"/>
<path d="m14 2.6429v0.35716s8.6765-0.028469 13-5e-7l0.7982 0.080745s-0.49566-0.35848-0.9194-0.36105c-0.0032-1.93e-5 -12.879-0.076855-12.879-0.076855z" style="fill:url(#radialGradient6178-3-6);stroke-width:.33295"/>
<path d="m0.99798 6.9973v20s0 3 3 3c0 0 19.668 5.4e-4 24 0 3-3.51e-4 3-3 3-3 2.25e-4 -4.3303 0-16 0-16s0-0.99998-1-0.99998c0 0-9.8034 0-13.425-2-1.9089-1.054-3.0486-1.7447-4.0207-1.7447h-10.574c-1 0-0.97931 0.74471-0.97931 0.74471z" style="fill:none;stroke-linejoin:round;stroke-width:.66752;stroke:#000"/>
<path d="m0.85839 26.894s0.1312 3.104 3.1393 3.104c4.7341 4.99e-4 19.669 0 24 0 3 0 3-3 3-3v-16c0-1-1-1-1-1s-10.387 0.00579-14-2c-2.7549-1.5295-3-2-4-2h-10c-1 0-1 1-1 1z" style="fill:url(#linearGradient2676-2);stroke-linejoin:round;stroke-width:.64136;stroke:url(#linearGradient2684-4)"/>
<path class="ColorScheme-Highlight" d="m1.2234 2 1.1e-6 1h9.7765v-1.8559l-8.7765-1.2e-6c-1 1.2e-6 -1 0.8559-1 0.8559z" style="fill:currentColor;mix-blend-mode:normal;stroke-width:.5"/>
<path d="m2.2234 1.1216c-1 0-1 0.6233-1 0.87805v1.0102h9.7765s1.0444-1.3506 1-1.6128c-0.13862-0.25456-0.7189-0.27554-1-0.27554z" style="color:#3daee9;fill:url(#linearGradient25155-7);stroke-width:.345;stroke:url(#linearGradient24)"/>
<path d="m2.2234 1.3899c-1 0-1 0.6233-1 0.87805v0.74205h9.8595s0.5933-0.8606 0.9172-1.3677c-0.16569-0.20501-0.7189-0.25239-1-0.25239z" style="color:#3daee9;fill:none;stroke-width:.345;stroke:url(#linearGradient24)"/>
</g>
<path d="m14.247 24.774c-4.4268 0-8.0161 3.573-8.0161 7.9806 0 4.4077 3.5893 7.9806 8.0161 7.9806 4.4268 0 8.0161-3.573 8.0161-7.9806 0-4.4077-3.5893-7.9806-8.0161-7.9806zm0.03843 1.1052c3.8143 0 6.9089 3.0784 6.9089 6.8754 0 3.7974-3.095 6.8754-6.9089 6.8754-2.0595 0-3.9076-0.89866-5.1728-2.3222 0.52021-0.40196 1.3905-0.30389 2.4624-0.18224 0.51365 0.05813 1.0992 0.12472 1.7036 0.13814 1.6885 0.0097 3.5053-0.29704 4.6266-0.78483 0.72492-0.31652 1.1891-0.52497 1.4792-0.78778 0.10462-0.08546 0.15955-0.22816 0.21554-0.37624l0.03837-0.09996c0.047-0.1196 0.11444-0.37699 0.14467-0.51734 0.01347-0.06144 0.02022-0.12749-0.02366-0.16167l-0.15649 0.02937c-0.492 0.29374-1.7212 0.85318-2.8728 0.87596-1.427 0.02975-4.303-1.4302-4.603-1.5844l-0.02952-0.0353c-0.0719-0.17087-0.50232-1.1881-0.59346-1.4021 2.0702 1.3572 3.7865 2.1084 5.102 2.2252 1.4625 0.12938 2.6034-0.66559 3.0913-1.0053 0.09521-0.06466 0.16799-0.11541 0.19782-0.1264l0.03241-0.05291c-0.08086-0.51178-0.8482-2.9884-1.426-3.5832-0.1602-0.16314-0.28756-0.32191-0.54624-0.47326-2.0914-1.2136-7.0572-1.9445-7.2898-1.9783l-0.03838 0.01167-0.01474 0.03226s-0.01863 1.0266-0.02073 1.1405c-0.1704-0.05605-0.69879-0.22832-1.4556-0.43499 0.98747-1.2164 2.5008-2.2957 5.1492-2.2957zm1.8247 3.6391c0.03532-5.29e-4 0.07081-9.73e-4 0.10629 0 1.1716 0.04185 2.092 1.0243 2.052 2.1899-0.02084 0.56388-0.25964 1.0849-0.67318 1.4697-0.41477 0.3869-0.95385 0.58856-1.5235 0.57026-1.1695-0.04347-2.09-1.0259-2.052-2.1899 0.02002-0.56469 0.26012-1.089 0.67612-1.4727 0.38846-0.3627 0.88565-0.55942 1.4143-0.56731zm-0.05613 0.62316c-0.34122 0.02066-0.6632 0.15859-0.91528 0.3939-0.28726 0.2685-0.45677 0.63205-0.46944 1.0259-0.02701 0.81368 0.61254 1.4984 1.429 1.5285 0.3968 0.01227 0.77318-0.12617 1.0629-0.39388 0.2889-0.26973 0.45719-0.63662 0.46944-1.0288 0.02731-0.81489-0.6151-1.4971-1.432-1.5256-0.04946-0.0015-0.09592-0.0024-0.14467 0zm0.38974 0.7378c0.36286 0 0.65545 0.19632 0.65545 0.43798 0 0.24045-0.29259 0.43798-0.65545 0.43798-0.36411 0-0.65842-0.19795-0.65842-0.43798 0-0.24166 0.29431-0.43798 0.65842-0.43798z" style="color:#4d4d4d;fill-rule:evenodd;fill:#646464"/>
</svg>
