<svg width="48" height="48" version="1.1" viewBox="0 0 48 48" xmlns="http://www.w3.org/2000/svg" xmlns:xlink="http://www.w3.org/1999/xlink">
<defs>
<style id="current-color-scheme" type="text/css">.ColorScheme-Highlight {
        color:#3daee9;
      }</style>
<linearGradient id="linearGradient6218-7" x1="408.33" x2="437.79" y1="555.74" y2="492.4" gradientTransform="matrix(.49005 0 0 .42369 -187.99 -204.88)" gradientUnits="userSpaceOnUse">
<stop style="stop-color:#353a3f;stop-opacity:.99608" offset="0"/>
<stop style="stop-color:#272727;stop-opacity:.98876" offset="1"/>
</linearGradient>
<linearGradient id="linearGradient850-5" x1="392.59" x2="420.29" y1="501.23" y2="503.48" gradientTransform="matrix(.49143 0 0 .31854 -188.93 -153.06)" gradientUnits="userSpaceOnUse">
<stop style="stop-color:#444647" offset="0"/>
<stop style="stop-color:#696969;stop-opacity:.42697" offset="1"/>
</linearGradient>
<radialGradient id="radialGradient6178-3-9" cx="397.99" cy="485.79" r="11.249" gradientTransform="matrix(-5.353e-5 .024235 -.51175 -.0011862 269.24 -6.224)" gradientUnits="userSpaceOnUse">
<stop style="stop-color:#d8dbd8" offset="0"/>
<stop style="stop-color:#272727;stop-opacity:.98876" offset="1"/>
</radialGradient>
<linearGradient id="linearGradient2676-6" x1="406.46" x2="414.47" y1="539.62" y2="506.87" gradientTransform="matrix(.49017 0 0 .49893 -187.96 -241.91)" gradientUnits="userSpaceOnUse">
<stop style="stop-color:#1a1b1b" offset="0"/>
<stop style="stop-color:#474747" offset="1"/>
</linearGradient>
<linearGradient id="linearGradient2684-2" x1="395.58" x2="404.77" y1="530.01" y2="505.63" gradientTransform="matrix(.49017 0 0 .49893 -187.96 -241.91)" gradientUnits="userSpaceOnUse">
<stop offset="0"/>
<stop style="stop-color:#c3c3c3;stop-opacity:0" offset="1"/>
</linearGradient>
<linearGradient id="linearGradient25155-1" x1="21.812" x2="4.0043" y1="3.9336" y2="4" gradientTransform="matrix(.5 0 0 .5 -.0021617 5.801e-7)" gradientUnits="userSpaceOnUse">
<stop style="stop-color:#1b1b1b" offset="0"/>
<stop style="stop-color:#090909;stop-opacity:.24541" offset=".49971"/>
<stop style="stop-color:#010101;stop-opacity:.23889" offset=".813"/>
<stop style="stop-opacity:.87011" offset="1"/>
</linearGradient>
<linearGradient id="linearGradient24" x1="12.021" x2="12.012" y1="7.2813" y2="-.72563" gradientTransform="matrix(.5 0 0 .5 -.0021617 5.801e-7)" gradientUnits="userSpaceOnUse" xlink:href="#linearGradient25029-7"/>
<linearGradient id="linearGradient25029-7" x1="12.021" x2="12.012" y1="7.2813" y2="-.72563" gradientUnits="userSpaceOnUse">
<stop style="stop-color:#4f5152" offset="0"/>
<stop style="stop-color:#010501" offset="1"/>
</linearGradient>
</defs>
<g transform="matrix(1.4837 0 0 1.4995 .010931 -.0017219)">
<path d="m1.2242 20.001v-18s0.023457-0.85555 0.77653-0.85555c0 0 9.7948-0.014237 9.9468 0l2.4893 1.8542 12.564 0.00149c3 0 3 3 3 3v14" style="fill:none;stroke-width:.34525;stroke:#000"/>
<path d="m2.0002 0.99966c-0.77656 0-0.77656 1-0.77656 1v20h28.776s5e-6 -9.6216 0-16c0-3-3.1212-3.2803-3.1212-3.2803l-12.691-0.076857-1.7782-1.3353c-0.26034-0.19459-0.47317-0.30754-0.82329-0.30754z" style="fill:url(#linearGradient6218-7);stroke-linecap:round;stroke-linejoin:bevel;stroke-width:.251;stroke:#000a00"/>
<path d="m1.278 19.054 0.037349-16.044 10.026 0.0287 0.65837-1.0386 1.6495 1.182h13.351c2.662 0 2.662 2.6617 2.662 2.6617v9" style="fill:none;stroke-width:.39565px;stroke:url(#linearGradient850-5)"/>
<path d="m14 2.6429v0.35716s8.6765-0.028469 13-5e-7l0.7982 0.080745s-0.49566-0.35848-0.9194-0.36105c-0.0032-1.93e-5 -12.879-0.076855-12.879-0.076855z" style="fill:url(#radialGradient6178-3-9);stroke-width:.33295"/>
<path d="m0.99798 6.9973v20s0 3 3 3c0 0 19.668 5.4e-4 24 0 3-3.51e-4 3-3 3-3 2.25e-4 -4.3303 0-16 0-16s0-0.99998-1-0.99998c0 0-9.8034 0-13.425-2-1.9089-1.054-3.0486-1.7447-4.0207-1.7447h-10.574c-1 0-0.97931 0.74471-0.97931 0.74471z" style="fill:none;stroke-linejoin:round;stroke-width:.66752;stroke:#000"/>
<path d="m0.85839 26.894s0.1312 3.104 3.1393 3.104c4.7341 4.99e-4 19.669 0 24 0 3 0 3-3 3-3v-16c0-1-1-1-1-1s-10.387 0.00579-14-2c-2.7549-1.5295-3-2-4-2h-10c-1 0-1 1-1 1z" style="fill:url(#linearGradient2676-6);stroke-linejoin:round;stroke-width:.64136;stroke:url(#linearGradient2684-2)"/>
<path class="ColorScheme-Highlight" d="m1.2234 2 1.1e-6 1h9.7765v-1.8559l-8.7765-1.2e-6c-1 1.2e-6 -1 0.8559-1 0.8559z" style="fill:currentColor;mix-blend-mode:normal;stroke-width:.5"/>
<path d="m2.2234 1.1216c-1 0-1 0.6233-1 0.87805v1.0102h9.7765s1.0444-1.3506 1-1.6128c-0.13862-0.25456-0.7189-0.27554-1-0.27554z" style="color:#3daee9;fill:url(#linearGradient25155-1);stroke-width:.345;stroke:url(#linearGradient24)"/>
<path d="m2.2234 1.3899c-1 0-1 0.6233-1 0.87805v0.74205h9.8595s0.5933-0.8606 0.9172-1.3677c-0.16569-0.20501-0.7189-0.25239-1-0.25239z" style="color:#3daee9;fill:none;stroke-width:.345;stroke:url(#linearGradient24)"/>
</g>
<g transform="matrix(.74817 0 0 .74729 31.968 2.7154)">
<path d="m-13.811 36.048c-0.5339-1.2653-1.3219-2.4041-2.2877-3.391-0.99137-0.98697-2.1352-1.7462-3.4062-2.2775-1.322-0.55692-2.72-0.86056-4.169-0.86056-1.449 0-2.847 0.30363-4.1688 0.86039-1.271 0.53152-2.4148 1.316-3.4062 2.2775-0.99137 0.98696-1.754 2.1257-2.2877 3.391-0.55941 1.3162-0.86441 2.7079-0.86441 4.1505 0 1.4426 0.30498 2.8343 0.86422 4.1503 0.53389 1.2653 1.3219 2.4041 2.2877 3.391 0.99136 0.98695 2.1352 1.7462 3.4062 2.2775 1.3219 0.55674 2.72 0.83511 4.1688 0.83511 1.449 0 2.8469-0.27838 4.1688-0.83511 1.271-0.53153 2.4148-1.316 3.4062-2.2775 0.99136-0.98696 1.754-2.1257 2.2877-3.391 0.55923-1.316 0.83884-2.7079 0.83884-4.1503 3.68e-4 -1.4426-0.27928-2.8343-0.83854-4.1503z" style="fill:#646464;stroke-width:.045292"/>
<path d="m-27.703 33.543c-0.50735 0-1.0014 0.26703-1.4686 0.66757l1.4486 0.40054c0.35381 0.06676 0.55408 0.44727 0.48732 0.80108l-0.20027 0.64754c-0.06676 0.35381-0.44727 0.55408-0.80108 0.48732l-1.5621-0.43392c0.09346 0.48065 0.33378 0.92792 0.82778 1.235 1.1816 0.69427 2.7036 0.33378 3.3045 0.93459l0.20694 0.20027a0.66757 0.66757 0 0 1 0.07343-0.04005l0.70762-0.22697a0.66757 0.66757 0 0 1 0.68092 0.15354l0.16689-0.15354-1.1349-1.1349c-0.86784-0.84113-0.70094-2.1095-1.6489-3.0508-0.33378-0.33378-0.7143-0.48732-1.0881-0.48732zm9.3726 0.10014-0.69427 0.23365s-0.26703 0.7143-0.73432 1.2016l-4.239 4.2324-0.4673-0.47397-0.70094 0.247c-0.4673 0.4673-0.7143 1.1682-1.2016 1.6422-0.4673 0.47397-1.1682 0.69427-2.1095 1.6556l-2.2964 2.3565c-0.33378 0.26035-0.33378 0.68759 0 0.95462l0.86784 0.93459c0.26703 0.26703 0.69427 0.26703 0.95462 0l2.3565-2.3632c0.9613-0.94127 1.1816-1.6422 1.6556-2.1095 0.47397-0.48732 1.1749-0.73432 1.6422-1.2016l0.247-0.70094-0.47397-0.4673 4.2324-4.239c0.48732-0.4673 1.2016-0.73432 1.2016-0.73432l0.23365-0.69427zm-4.0989 5.9747-0.15354 0.16689a0.66757 0.66757 0 0 1 0.15354 0.68092l-0.22697 0.70762a0.66757 0.66757 0 0 1-0.04005 0.07343l1.1349 1.1282c0.84781 0.84781 0.84781 2.7504 1.8024 3.6916 0.77438 0.78105 2.0428 0.78105 2.8238 0 0.78105-0.77438 0.78105-2.0428 0-2.8438-0.95462-0.86784-2.8238-0.86784-3.6916-1.8024zm3.7384 3.7384 0.33378 0.2203 0.35381-0.2203 0.18024 0.36716 0.40054-0.01335v0.40722l0.36049 0.17357-0.22697 0.36049 0.22697 0.34714-0.36049 0.18692v0.40722l-0.40054-0.01335-0.18024 0.36048-0.35381-0.2203-0.33378 0.2203-0.20027-0.36048-0.40054 0.01335v-0.40722l-0.33378-0.18692 0.20027-0.34714-0.20027-0.36049 0.33378-0.17357v-0.40722l0.40054 0.01335z" style="color:#111111;fill:#262727;stroke-width:.66757"/>
</g>
</svg>
