<?xml version="1.0" encoding="UTF-8" standalone="no"?>
<svg
   viewBox="0 0 48 48"
   version="1.1"
   id="svg12"
   width="48"
   height="48"
   xmlns:xlink="http://www.w3.org/1999/xlink"
   xmlns="http://www.w3.org/2000/svg"
   xmlns:svg="http://www.w3.org/2000/svg">
  <defs
     id="defs3051">
    <linearGradient
       id="linearGradient25153">
      <stop
         style="stop-color:#1b1b1b;stop-opacity:1"
         offset="0"
         id="stop25149" />
      <stop
         style="stop-color:#090909;stop-opacity:0.24540505"
         offset="0.49971318"
         id="stop1797" />
      <stop
         style="stop-color:#010101;stop-opacity:0.23888743"
         offset="0.9430303"
         id="stop2247" />
      <stop
         style="stop-color:#000000;stop-opacity:0.8012926"
         offset="1"
         id="stop25151" />
    </linearGradient>
    <linearGradient
       id="linearGradient14607">
      <stop
         style="stop-color:#4f5152;stop-opacity:1"
         offset="0"
         id="stop14603" />
      <stop
         style="stop-color:#010501;stop-opacity:1"
         offset="1"
         id="stop14605" />
    </linearGradient>
    <style
       type="text/css"
       id="current-color-scheme">
      .ColorScheme-Highlight {
        color:#3daee9;
      }
      </style>
    <filter
       height="1.0449693"
       y="-0.026935052"
       width="1.0344187"
       x="-0.017208866"
       id="filter940"
       style="color-interpolation-filters:sRGB">
      <feGaussianBlur
         id="feGaussianBlur942"
         stdDeviation="0.28795822" />
    </filter>
    <linearGradient
       gradientTransform="matrix(1.0005668,0,0,0.8509446,-0.23612742,72.315207)"
       gradientUnits="userSpaceOnUse"
       y2="492.39743"
       x2="437.78555"
       y1="555.7431"
       x1="408.33118"
       id="linearGradient6218"
       xlink:href="#linearGradient42869" />
    <linearGradient
       id="linearGradient42869">
      <stop
         style="stop-color:#353a3f;stop-opacity:0.99607843"
         offset="0"
         id="stop42865" />
      <stop
         style="stop-color:#272727;stop-opacity:0.98876405"
         offset="1"
         id="stop42867" />
    </linearGradient>
    <filter
       height="1.0667278"
       y="-0.033363852"
       width="1.0561312"
       x="-0.028065609"
       id="filter2714"
       style="color-interpolation-filters:sRGB">
      <feGaussianBlur
         id="feGaussianBlur2716"
         stdDeviation="0.56332734" />
    </filter>
    <linearGradient
       gradientUnits="userSpaceOnUse"
       y2="539.64374"
       x2="414.83517"
       y1="501.65286"
       x1="415.07861"
       id="linearGradient850"
       xlink:href="#linearGradient848" />
    <linearGradient
       id="linearGradient848">
      <stop
         id="stop844"
         offset="0"
         style="stop-color:#57595a;stop-opacity:0.99607843" />
      <stop
         id="stop846"
         offset="1"
         style="stop-color:#000000;stop-opacity:0.42696628" />
    </linearGradient>
    <filter
       height="1.03215"
       y="-0.025901777"
       width="1.0283593"
       x="-0.01417968"
       id="filter2706"
       style="color-interpolation-filters:sRGB">
      <feGaussianBlur
         id="feGaussianBlur2708"
         stdDeviation="0.140357" />
    </filter>
    <radialGradient
       gradientUnits="userSpaceOnUse"
       gradientTransform="matrix(-1.0705868e-4,0.04846987,-1.0235483,-0.0023723,538.49225,-12.44815)"
       r="11.24949"
       fy="485.79099"
       fx="397.99051"
       cy="485.79099"
       cx="397.99051"
       id="radialGradient6178-3"
       xlink:href="#linearGradient880" />
    <linearGradient
       id="linearGradient880">
      <stop
         style="stop-color:#d8dbd8;stop-opacity:1"
         offset="0"
         id="stop876" />
      <stop
         style="stop-color:#272727;stop-opacity:0.98876405"
         offset="1"
         id="stop878" />
    </linearGradient>
    <filter
       height="1.0707442"
       y="-0.035372174"
       width="1.0508627"
       x="-0.025431326"
       id="filter1073"
       style="color-interpolation-filters:sRGB">
      <feGaussianBlur
         id="feGaussianBlur1075"
         stdDeviation="0.39283137" />
    </filter>
    <linearGradient
       gradientUnits="userSpaceOnUse"
       y2="506.87347"
       x2="414.47186"
       y1="539.61627"
       x1="406.45694"
       id="linearGradient2676"
       xlink:href="#linearGradient2668" />
    <linearGradient
       id="linearGradient2668">
      <stop
         id="stop2664"
         offset="0"
         style="stop-color:#1a1b1b;stop-opacity:1" />
      <stop
         id="stop2666"
         offset="1"
         style="stop-color:#474747;stop-opacity:1" />
    </linearGradient>
    <linearGradient
       gradientUnits="userSpaceOnUse"
       y2="505.62521"
       x2="404.77097"
       y1="530.01428"
       x1="395.58017"
       id="linearGradient2684"
       xlink:href="#linearGradient2682" />
    <linearGradient
       id="linearGradient2682">
      <stop
         id="stop2678"
         offset="0"
         style="stop-color:#000000;stop-opacity:1;" />
      <stop
         id="stop2680"
         offset="1"
         style="stop-color:#c3c3c3;stop-opacity:0" />
    </linearGradient>
    <filter
       height="1.0397525"
       y="-0.019876304"
       width="1.0307531"
       x="-0.015376566"
       id="filter2690"
       style="color-interpolation-filters:sRGB">
      <feGaussianBlur
         id="feGaussianBlur2692"
         stdDeviation="0.13069192" />
    </filter>
    <filter
       style="color-interpolation-filters:sRGB"
       id="filter24684"
       x="-0.024959943"
       y="-0.15409672"
       width="1.0499199"
       height="1.3081934">
      <feGaussianBlur
         stdDeviation="0.21554955"
         id="feGaussianBlur24686" />
    </filter>
    <linearGradient
       xlink:href="#linearGradient14607"
       id="linearGradient25029"
       gradientUnits="userSpaceOnUse"
       x1="12.020759"
       y1="7.2813473"
       x2="12.011944"
       y2="-0.7256338" />
    <linearGradient
       xlink:href="#linearGradient25153"
       id="linearGradient25155"
       x1="21.812489"
       y1="3.9335968"
       x2="4.6537294"
       y2="4.034317"
       gradientUnits="userSpaceOnUse" />
    <filter
       style="color-interpolation-filters:sRGB"
       id="filter30328"
       x="-0.060622242"
       y="-0.37427998"
       width="1.121405"
       height="1.7485472">
      <feGaussianBlur
         stdDeviation="0.2547727"
         id="feGaussianBlur30330" />
    </filter>
  </defs>
  <path
     transform="matrix(0.7312589,0,0,0.74487565,-280.96527,-360.55865)"
     id="path6220-2"
     d="m 386.25703,524.61791 0.77838,-38.71157 22.03057,0.10242 3.50545,3.40716 c 0,0 18.10956,0.35097 27.33843,0.35097 2.88877,0 6.71919,2.18928 6.71919,7.16894 0,13.1364 0.12174,26.49022 0.12174,26.49022"
     style="display:inline;fill:none;fill-opacity:1;stroke:#000000;stroke-width:0.7;stroke-linecap:butt;stroke-linejoin:miter;stroke-miterlimit:4;stroke-dasharray:none;stroke-opacity:1;filter:url(#filter940)" />
  <path
     transform="matrix(0.7328543,0,0,0.7450537,-281.00792,-360.45073)"
     d="m 386.39384,486.19622 c 0,0 -0.10293,36.25523 -0.10293,49.28612 0,1.03908 0.48232,1.87652 1.08144,1.87652 h 58.39816 c 0.59911,0 1.34832,-0.83745 1.34161,-1.87652 0,0 -0.0268,-27.28049 -0.0268,-40.09035 0,-3.00572 -3.75125,-6.05898 -6.82146,-6.05898 -9.03444,0 -27.69471,-0.22684 -27.69471,-0.22684 l -4.13226,-2.8228 z"
     id="rect4180"
     style="display:inline;fill:url(#linearGradient6218);fill-opacity:1;stroke:#000a00;stroke-width:0.71;stroke-linecap:round;stroke-linejoin:bevel;stroke-miterlimit:4;stroke-dasharray:none;stroke-opacity:1;filter:url(#filter2714)" />
  <path
     transform="matrix(0.7353552,0,0,0.47665681,-282.58469,-229.03843)"
     id="path6220"
     d="m 387.04904,540.31904 0.076,-50.36617 20.73641,0.0901 1.41588,-3.75705 2.94655,4.20719 c 0,0 17.40991,0.34184 27.40616,0.34184 3.61218,0 6.32049,4.0507 6.32049,8.9451 0,12.76833 0.1165,38.20486 0.1165,38.20486"
     style="display:inline;fill:none;fill-opacity:1;stroke:url(#linearGradient850);stroke-width:1px;stroke-linecap:butt;stroke-linejoin:miter;stroke-opacity:1;filter:url(#filter2706)" />
  <path
     d="m 27.921427,5.4393704 v 0.380281 h 0.44553 l 25.49468,0.167876 h 0.44553 l -0.5452,-0.548167 h -0.44553 -24.94948 z"
     id="path4151-2-3-5"
     style="display:inline;fill:url(#radialGradient6178-3);fill-opacity:1;stroke-width:0.665905"
     transform="matrix(0.7481832,0,0,0.7481832,0.11682151,0.0012592)" />
  <path
     transform="matrix(0.73346775,0,0,0.80873555,-281.33256,-395.1396)"
     style="display:inline;fill:none;fill-opacity:1;stroke:#000000;stroke-width:1.29693;stroke-linejoin:round;stroke-miterlimit:4;stroke-dasharray:none;stroke-opacity:1;filter:url(#filter1073)"
     id="path952"
     d="m 385.15633,501.64377 c 0,13.8136 0.0547,36.33599 0.0547,39.23108 0,2.8951 4.24366,4.43675 7.16501,4.43675 9.65801,10e-4 39.7482,-0.008 48.58578,-0.009 2.73024,-2.9e-4 6.73958,-3.06897 6.73961,-5.5723 4.6e-4,-8.01206 0.0257,-31.8933 0.0257,-31.8933 -21.39075,-0.31416 -23.00468,-0.49626 -28.48106,-3.68616 -5.47637,-3.18989 -6.84254,-3.7889 -8.06758,-3.79572 -8.19718,-0.0456 -25.32423,-0.0254 -25.32423,-0.0254 0,0 -0.68932,-0.094 -0.698,1.31379 z" />
  <path
     transform="matrix(0.73346775,0,0,0.7465797,-281.13373,-361.98953)"
     style="display:inline;fill:url(#linearGradient2676);fill-opacity:1;stroke:url(#linearGradient2684);stroke-width:1.29693;stroke-linejoin:round;stroke-miterlimit:4;stroke-dasharray:none;stroke-opacity:1;filter:url(#filter2690)"
     id="path952-7"
     d="m 385.15633,498.35321 c 0,13.8136 0.0547,28.03631 0.0547,40.41503 0,6.52543 4.5187,6.67224 7.29021,6.67224 9.65801,10e-4 38.73653,0 47.57411,0 4.29557,0 7.62608,-4.19689 7.62608,-7.71933 4.6e-4,-8.01206 0.0257,-32.38987 0.0257,-32.38987 -22.81136,0 -23.57647,-0.13663 -31.18143,-4.28484 -5.62028,-3.06564 -5.63216,-3.98161 -7.35295,-3.98161 -8.19718,-0.0456 -23.33849,-0.0254 -23.33849,-0.0254 0,0 -0.68932,-0.094 -0.698,1.31379 z" />
  <path
     style="display:inline;mix-blend-mode:normal;fill:currentColor;stroke:none;stroke-width:0.390115;stroke-miterlimit:4;stroke-dasharray:none;filter:url(#filter24684)"
     d="M 3.1185124,2.3943988 C 2.9060465,2.5755409 2.8406898,2.662737 2.8406898,3.1723004 c 0,0.7470828 0.00654,2.4587688 0.00654,2.4587688 H 22.075746 l 0.993727,-1.6353471 c 0,0 0.682408,-0.9793708 0.44826,-1.410869 -0.123324,-0.2272669 -0.513311,-0.2662912 -1.075516,-0.2662912 -0.820732,0 -18.1692197,-0.041813 -18.4326201,-0.041813 0,0 -0.7160982,-0.031538 -0.8910845,0.1176499 z"
     class="ColorScheme-Highlight"
     id="path4"
     transform="matrix(0.7481832,0,0,0.7481832,0.11682151,0.0012592)" />
  <path
     style="color:#3daee9;display:inline;fill:url(#linearGradient25155);fill-opacity:1;stroke:url(#linearGradient25029);stroke-width:1.29;stroke-miterlimit:4;stroke-dasharray:none;filter:url(#filter30328)"
     d="M 3.1185124,2.3943988 C 2.9060465,2.5755409 2.8406898,2.662737 2.8406898,3.1723004 c 0,0.7470828 0.00654,2.4587688 0.00654,2.4587688 H 22.075746 l 0.993727,-1.6353471 c 0,0 0.682408,-0.9793708 0.44826,-1.410869 -0.123324,-0.2272669 -0.513311,-0.2662912 -1.075516,-0.2662912 -0.820732,0 -18.1692197,-0.041813 -18.4326201,-0.041813 0,0 -0.7160982,-0.031538 -0.8910845,0.1176499 z"
     id="path4-0"
     transform="matrix(0.7481832,0,0,0.7481832,0.11682151,0.0012592)" />
  <g
     id="g926"
     transform="matrix(0.74815192,0,0,0.74818322,74.748715,32.983181)">
    <path
       d="m -79.628125,-2.007875 c 0,0.279031 -0.227227,0.505234 -0.507472,0.505234 -0.280253,0 -0.507499,-0.226236 -0.507499,-0.505234 0,-0.279 0.227246,-0.505223 0.507499,-0.505223 0.280245,0 0.507472,0.226223 0.507472,0.505223"
       id="path67-4-9"
       style="fill:#646464;fill-opacity:1;stroke-width:0.0428679" />
    <path
       d="m -81.73333,0.87373 h -3.026275 c -0.225569,0 -0.394738,0.187126 -0.394738,0.39298 0,0.205834 0.18797,0.392967 0.394738,0.392967 h 3.026275 c 0.225558,0 0.394724,-0.187133 0.394724,-0.392967 0,-0.205854 -0.169166,-0.39298 -0.394724,-0.39298 z"
       id="path69-4-3"
       style="fill:#646464;fill-opacity:1;stroke-width:0.0428679" />
    <path
       d="m -78.03072,-2.007875 c 0,0.279031 -0.227247,0.505234 -0.507498,0.505234 -0.280232,0 -0.507473,-0.226236 -0.507473,-0.505234 0,-0.279 0.227241,-0.505223 0.507473,-0.505223 0.280251,0 0.507498,0.226223 0.507498,0.505223"
       id="path71-4-7"
       style="fill:#646464;fill-opacity:1;stroke-width:0.0428679" />
    <path
       d="m -79.628125,1.304023 c 0,0.279028 -0.227227,0.505238 -0.507472,0.505238 -0.280253,0 -0.507499,-0.226232 -0.507499,-0.505238 0,-0.279007 0.227246,-0.505229 0.507499,-0.505229 0.280245,0 0.507472,0.226222 0.507472,0.505229"
       id="path73-4-4"
       style="fill:#646464;fill-opacity:1;stroke-width:0.0428679" />
    <path
       d="m -76.451807,-2.007875 c 0,0.279031 -0.227245,0.505234 -0.507499,0.505234 -0.28025,0 -0.50748,-0.226236 -0.50748,-0.505234 0,-0.279 0.22723,-0.505223 0.50748,-0.505223 0.280254,0 0.507499,0.226223 0.507499,0.505223"
       id="path75-7-5"
       style="fill:#646464;fill-opacity:1;stroke-width:0.0428679" />
    <path
       d="m -76.451807,1.304023 c 0,0.279028 -0.227245,0.505238 -0.507499,0.505238 -0.28025,0 -0.50748,-0.226232 -0.50748,-0.505238 0,-0.279007 0.22723,-0.505229 0.50748,-0.505229 0.280254,0 0.507499,0.226222 0.507499,0.505229"
       id="path77-6-2"
       style="fill:#646464;fill-opacity:1;stroke-width:0.0428679" />
    <path
       d="m -78.03072,1.304023 c 0,0.279028 -0.227247,0.505238 -0.507498,0.505238 -0.280232,0 -0.507473,-0.226232 -0.507473,-0.505238 0,-0.279007 0.227241,-0.505229 0.507473,-0.505229 0.280251,0 0.507498,0.226222 0.507498,0.505229"
       id="path79-3-5"
       style="fill:#646464;fill-opacity:1;stroke-width:0.0428679" />
    <path
       d="m -81.73333,-2.438597 h -3.026275 c -0.225569,0 -0.394738,0.187132 -0.394738,0.39298 0,0.224545 0.18797,0.392963 0.394738,0.392963 h 3.026275 c 0.225558,0 0.394724,-0.168418 0.394724,-0.392963 0,-0.205848 -0.169166,-0.39298 -0.394724,-0.39298 z"
       id="path81-1-4"
       style="fill:#646464;fill-opacity:1;stroke-width:0.0428679" />
    <path
       d="m -80.868903,-10.971555 c -5.920817,0 -10.714277,4.771734 -10.714277,10.666679 0,5.894945 4.793021,10.666674 10.714277,10.666674 5.921264,0 10.71427,-4.771729 10.71427,-10.666674 0,-5.894945 -4.793006,-10.666679 -10.71427,-10.666679 z m 1.015013,14.801942 v 0.561398 h 4.060081 V 5.084191 H -79.85389 V 5.7766 h -2.030027 V 5.084191 h -4.060077 V 4.391785 h 4.060077 V 3.830387 h 0.676679 V 2.389462 h -3.646536 c -0.601505,0 -1.09022,-0.486526 -1.09022,-1.085356 0,-0.598815 0.488715,-1.085366 1.09022,-1.085366 h 7.988648 c 0.601497,0 1.090208,0.486551 1.090208,1.085366 0,0.59883 -0.488711,1.085356 -1.090208,1.085356 h -3.608944 v 1.440925 z m 2.969871,-4.752895 h -7.969755 c -0.601505,0 -1.09022,-0.486548 -1.09022,-1.085367 0,-0.598816 0.488715,-1.085356 1.09022,-1.085356 h 7.988648 c 0.601497,0 1.090208,0.48654 1.090208,1.085356 0,0.598819 -0.50749,1.085367 -1.108975,1.085367 z m 0,-3.293503 h -7.969755 c -0.601505,0 -1.09022,-0.486546 -1.09022,-1.085366 0,-0.598825 0.488715,-1.085355 1.09022,-1.085355 h 7.988648 c 0.601497,0 1.090208,0.48653 1.090208,1.085355 0,0.59882 -0.50749,1.085366 -1.108975,1.085366 z"
       id="path83-7-7"
       style="fill:#646464;fill-opacity:1;stroke-width:0.0428679" />
    <path
       d="m -78.03072,-5.301377 c 0,0.279027 -0.227247,0.505236 -0.507498,0.505236 -0.280232,0 -0.507473,-0.226229 -0.507473,-0.505236 0,-0.278998 0.227241,-0.505231 0.507473,-0.505231 0.280251,0 0.507498,0.226233 0.507498,0.505231"
       id="path85-5-4"
       style="fill:#646464;fill-opacity:1;stroke-width:0.0428679" />
    <path
       d="m -79.628125,-5.301377 c 0,0.279027 -0.227227,0.505236 -0.507472,0.505236 -0.280253,0 -0.507499,-0.226229 -0.507499,-0.505236 0,-0.278998 0.227246,-0.505231 0.507499,-0.505231 0.280245,0 0.507472,0.226233 0.507472,0.505231"
       id="path87-9-4"
       style="fill:#646464;fill-opacity:1;stroke-width:0.0428679" />
    <path
       d="m -76.451807,-5.301377 c 0,0.279027 -0.227245,0.505236 -0.507499,0.505236 -0.28025,0 -0.50748,-0.226229 -0.50748,-0.505236 0,-0.278998 0.22723,-0.505231 0.50748,-0.505231 0.280254,0 0.507499,0.226233 0.507499,0.505231"
       id="path89-6-3"
       style="fill:#646464;fill-opacity:1;stroke-width:0.0428679" />
    <path
       d="m -81.73333,-5.732097 h -3.026275 c -0.225569,0 -0.394738,0.18712 -0.394738,0.392979 0,0.205831 0.18797,0.39297 0.394738,0.39297 h 3.026275 c 0.225558,0 0.394724,-0.187139 0.394724,-0.39297 0,-0.205859 -0.169166,-0.392979 -0.394724,-0.392979 z"
       id="path91-2-0"
       style="fill:#646464;fill-opacity:1;stroke-width:0.0428679" />
  </g>
</svg>
