<?xml version="1.0" encoding="UTF-8" standalone="no"?>
<svg
   viewBox="0 0 48 48"
   version="1.1"
   id="svg12"
   width="48"
   height="48"
   xmlns:xlink="http://www.w3.org/1999/xlink"
   xmlns="http://www.w3.org/2000/svg"
   xmlns:svg="http://www.w3.org/2000/svg">
  <defs
     id="defs3051">
    <linearGradient
       id="linearGradient5">
      <stop
         style="stop-color:#a4a4a4;stop-opacity:1;"
         offset="0"
         id="stop5" />
      <stop
         style="stop-color:#949494;stop-opacity:1;"
         offset="1"
         id="stop6" />
    </linearGradient>
    <linearGradient
       id="linearGradient3">
      <stop
         style="stop-color:#030303;stop-opacity:1;"
         offset="0.06094626"
         id="stop3" />
      <stop
         style="stop-color:#2d2d2d;stop-opacity:1;"
         offset="0.13274361"
         id="stop7" />
      <stop
         style="stop-color:#6d6d6d;stop-opacity:1;"
         offset="0.93682063"
         id="stop11" />
      <stop
         style="stop-color:#a0a0a0;stop-opacity:1;"
         offset="1"
         id="stop4" />
    </linearGradient>
    <linearGradient
       id="linearGradient1">
      <stop
         style="stop-color:#313131;stop-opacity:1;"
         offset="0"
         id="stop1" />
      <stop
         style="stop-color:#444444;stop-opacity:0.99322248;"
         offset="1"
         id="stop2" />
    </linearGradient>
    <linearGradient
       gradientUnits="userSpaceOnUse"
       y2="506.87347"
       x2="414.47186"
       y1="539.61627"
       x1="406.45694"
       id="linearGradient2676"
       xlink:href="#linearGradient2668" />
    <linearGradient
       id="linearGradient2668">
      <stop
         id="stop2664"
         offset="0"
         style="stop-color:#1a1b1b;stop-opacity:1" />
      <stop
         id="stop2666"
         offset="1"
         style="stop-color:#474747;stop-opacity:1" />
    </linearGradient>
    <linearGradient
       gradientUnits="userSpaceOnUse"
       y2="507.17001"
       x2="395.65891"
       y1="535.29559"
       x1="395.65891"
       id="linearGradient2684"
       xlink:href="#linearGradient2682" />
    <linearGradient
       id="linearGradient2682">
      <stop
         id="stop2678"
         offset="0"
         style="stop-color:#363636;stop-opacity:1;" />
      <stop
         id="stop2680"
         offset="1"
         style="stop-color:#c3c3c3;stop-opacity:0" />
    </linearGradient>
    <linearGradient
       xlink:href="#linearGradient1"
       id="linearGradient2"
       x1="21.210644"
       y1="12.817462"
       x2="21.261421"
       y2="19.097761"
       gradientUnits="userSpaceOnUse" />
    <linearGradient
       xlink:href="#linearGradient3"
       id="linearGradient4"
       x1="8.7220764"
       y1="7.9959073"
       x2="8.7220764"
       y2="6.0040927"
       gradientUnits="userSpaceOnUse" />
    <linearGradient
       xlink:href="#linearGradient5"
       id="linearGradient6"
       x1="10.272138"
       y1="6.4026146"
       x2="10.272138"
       y2="3.7415628"
       gradientUnits="userSpaceOnUse" />
    <filter
       height="1.0289815"
       y="-0.014491464"
       width="1.0208935"
       x="-0.010446753"
       id="filter1073-3"
       style="color-interpolation-filters:sRGB">
      <feGaussianBlur
         id="feGaussianBlur1075-6"
         stdDeviation="0.0045126144" />
    </filter>
    <linearGradient
       xlink:href="#linearGradient10"
       id="linearGradient12"
       x1="8.1285"
       y1="10.76616"
       x2="8.1285"
       y2="24.064884"
       gradientUnits="userSpaceOnUse" />
    <linearGradient
       id="linearGradient10">
      <stop
         style="stop-color:#858585;stop-opacity:1;"
         offset="0"
         id="stop10" />
      <stop
         style="stop-color:#d6d6d6;stop-opacity:0.20784314;"
         offset="1"
         id="stop12" />
    </linearGradient>
  </defs>
  <g
     id="g2">
    <path
       transform="matrix(0.73233403,0,0,0.80516307,-280.82098,-393.33301)"
       style="display:inline;fill:none;fill-opacity:1;stroke:#070707;stroke-width:1.29693;stroke-linejoin:round;stroke-miterlimit:4;stroke-dasharray:none;stroke-opacity:1;filter:url(#filter1073-3)"
       id="path952"
       d="m 384.86959,504.91062 c 0,1.95596 0.0727,32.84976 0.0727,35.74671 0,2.72737 1.87428,5.15635 6.42304,5.15635 9.65801,10e-4 40.46092,-0.008 49.2985,-0.009 5.5573,0 7.31582,-2.2311 7.31582,-5.14735 4.6e-4,-8.01206 -0.10565,-34.61135 -0.10565,-36.56731 0,-1.95596 -0.19172,-3.76394 -4.97311,-3.76394 h -4.39592 -10.55469 c -6.68659,0 -15.40173,0.0359 -16.62677,0.029 -8.19718,-0.0456 -21.60425,-0.0254 -21.60425,-0.0254 -3.69136,-0.18522 -4.83245,1.25986 -4.84283,4.03784 z" />
    <path
       transform="matrix(0.73855685,0,0,0.74827908,-283.41129,-362.81347)"
       style="display:inline;fill:url(#linearGradient2676);fill-opacity:1;stroke:url(#linearGradient2684);stroke-width:1.29693;stroke-linejoin:round;stroke-miterlimit:4;stroke-dasharray:none;stroke-opacity:1"
       id="path952-7"
       d="m 385.21103,538.76824 c 0,6.52543 4.5187,6.67224 7.29021,6.67224 9.65801,10e-4 38.57912,0 47.4167,0 4.29557,0 7.78349,-0.85883 7.78349,-6.67224 10e-4,-24.97932 0.0203,-34.14195 0.0203,-36.26075 0,-2.1188 -0.13333,-5.44286 -5.06981,-5.44286 h -33.45917 -19.65944 c -4.3593,0 -4.38635,3.35036 -4.39926,5.44286 -0.0129,2.0925 0.077,9.83434 0.077,36.26075 z" />
    <path
       id="path22"
       style="display:inline;opacity:1;fill:url(#linearGradient12);fill-opacity:1;stroke:url(#linearGradient2);stroke-width:0.124283;stroke-dasharray:none;stroke-opacity:1"
       transform="matrix(1.6648062,0,0,1.493914,-2.6369167,0.17430421)"
       d="m 24.00001,9 c 0.554,0 1,0.4014 1,0.9 v 16.2 c 0,0.5 -0.4,0.9 -1,0.9 -0.6,0 -1,-0.4014 -1,-0.9 V 9.9 c 0,-0.5 0.4,-0.9 1,-0.9 z m -5,0 c 0.554,0 1,0.4014 1,0.9 v 16.2 c 0,0.5 -0.4,0.9 -1,0.9 -0.6,0 -1,-0.4014 -1,-0.9 V 9.9 c 0,-0.5 0.4,-0.9 1,-0.9 z m -11,0 c 0.554,0 1,0.4014 1,0.9 v 16.2 c 0,0.5 -0.4,0.9 -1,0.9 -0.6,0 -1,-0.4014 -1,-0.9 V 9.9 c 0,-0.5 0.4,-0.9 1,-0.9 z m 5,0 c 0.554,0 1,0.4014 1,0.9 v 16.2 c 0,0.5 -0.4,0.9 -1,0.9 -0.6,0 -1,-0.4014 -1,-0.9 V 9.9 c 0,-0.5 0.4,-0.9 1,-0.9 z" />
    <path
       d="M 13.011831,3.920383 C 12.457869,3.9104556 11,5.2045584 11,5.6086181 V 6 h 2 V 5.5994512 c -4.57e-4,-0.1328591 0.101609,-0.6000008 0.233,-0.6060314 h 5.535 C 18.898996,4.9997898 19.000341,5.511005 19,5.5994512 V 6 h 2 V 5.6086181 C 21,5.2355363 20.04359,4.0463967 18.988806,4.0274943 Z"
       id="path16"
       style="display:inline;fill:url(#linearGradient6);fill-opacity:1;stroke:#848484;stroke-width:0.0310314;stroke-dasharray:none;stroke-opacity:1"
       transform="matrix(1.9999999,0,0,1.2980965,-7.9999984,0.8183824)" />
    <path
       d="M 5.0750237,6.0040925 C 4.5248022,6.0040925 4.0818441,6.4024555 4.0818441,7 V 7.9959075 H 27.918156 V 7 c 0,-0.5517327 -0.397272,-0.9959075 -0.993179,-0.9959075 z"
       id="path18"
       style="display:inline;fill:url(#linearGradient4);stroke-width:0.994542"
       transform="matrix(1.9999999,0,0,1.2980965,-7.9999984,0.8183824)" />
  </g>
</svg>
