<?xml version="1.0" encoding="UTF-8" standalone="no"?>
<svg
   width="64"
   version="1.1"
   height="64"
   id="svg13"
   sodipodi:docname="application-x-java-archive.svg"
   inkscape:version="1.3.2 (1:1.3.2+202311252150+091e20ef0f)"
   viewBox="0 0 64 64"
   xmlns:inkscape="http://www.inkscape.org/namespaces/inkscape"
   xmlns:sodipodi="http://sodipodi.sourceforge.net/DTD/sodipodi-0.dtd"
   xmlns:xlink="http://www.w3.org/1999/xlink"
   xmlns="http://www.w3.org/2000/svg"
   xmlns:svg="http://www.w3.org/2000/svg"
   xmlns:rdf="http://www.w3.org/1999/02/22-rdf-syntax-ns#"
   xmlns:cc="http://creativecommons.org/ns#"
   xmlns:dc="http://purl.org/dc/elements/1.1/">
  <style
     type="text/css"
     id="current-color-scheme">
      .ColorScheme-Text {
        color:#232629;
      }
      .ColorScheme-Highlight {
        color:#3daee9;
      }
   </style>
  <metadata
     id="metadata17">
    <rdf:RDF>
      <cc:Work
         rdf:about="">
        <dc:format>image/svg+xml</dc:format>
        <dc:type
           rdf:resource="http://purl.org/dc/dcmitype/StillImage" />
      </cc:Work>
    </rdf:RDF>
  </metadata>
  <sodipodi:namedview
     pagecolor="#ffffff"
     bordercolor="#666666"
     borderopacity="1"
     objecttolerance="10"
     gridtolerance="10"
     guidetolerance="10"
     inkscape:pageopacity="0"
     inkscape:pageshadow="2"
     inkscape:window-width="3440"
     inkscape:window-height="1356"
     id="namedview15"
     showgrid="false"
     inkscape:zoom="14.38"
     inkscape:cx="14.394993"
     inkscape:cy="31.189152"
     inkscape:window-x="0"
     inkscape:window-y="0"
     inkscape:window-maximized="1"
     inkscape:current-layer="g887"
     inkscape:pagecheckerboard="0"
     inkscape:showpageshadow="2"
     inkscape:deskcolor="#d1d1d1">
  </sodipodi:namedview>
  <defs
     id="defs5455">
    <linearGradient
       inkscape:collect="always"
       xlink:href="#linearGradient6251"
       id="linearGradient5849-3"
       gradientUnits="userSpaceOnUse"
       gradientTransform="matrix(0.95999914,0,0,0.81203889,340.73136,255.4131)"
       y1="394.54437"
       x2="0"
       y2="335.43387" />
    <linearGradient
       inkscape:collect="always"
       id="linearGradient6251">
      <stop
         style="stop-color:#ffffff;stop-opacity:0"
         offset="0"
         id="stop6253" />
      <stop
         style="stop-color:#ffffff;stop-opacity:0.2"
         offset="1"
         id="stop6255" />
    </linearGradient>
  </defs>
  <g
     inkscape:label="Capa 1"
     inkscape:groupmode="layer"
     id="layer1"
     transform="translate(-384.57143,-515.798)">
    <g
       id="g887">
      <rect
         style="color:#000000;isolation:auto;mix-blend-mode:normal;color-interpolation:sRGB;color-interpolation-filters:linearRGB;solid-color:#000000;solid-opacity:1;fill:#414141;fill-opacity:1;stroke-width:2;color-rendering:auto;image-rendering:auto;shape-rendering:auto"
         ry="5.1960425"
         isolation="auto"
         mix-blend-mode="normal"
         id="rect5837-5"
         width="47.999935"
         height="48.000004"
         x="392.57147"
         y="527.79797" />
      <path
         shape-rendering="auto"
         solid-opacity="1"
         color-interpolation="sRGB"
         stroke-linecap="square"
         isolation="auto"
         stroke-width="4"
         color-rendering="auto"
         image-rendering="auto"
         color-interpolation-filters="linearRGB"
         opacity="0.9"
         solid-color="#000000"
         mix-blend-mode="normal"
         id="path5843"
         class="ColorScheme-Highlight"
         d="m 426.62482,529.79827 v 2 h 2 v -2 z m 2,2 v 2 h 2 v -2 z m 0,2 h -2 v 2 h 2 z m 0,2 v 2 h 2 v -2 z m 0,2 h -2 v 2 h 2 z m 0,2 v 2 h 2 v -2 z m 0,2 h -2 v 1.12108 2.87893 h 4 v -2 h -2 z"
         inkscape:connector-curvature="0"
         style="fill:currentColor;fill-opacity:1" />
      <rect
         ry="5.1009235"
         style="color:#000000;display:inline;isolation:auto;mix-blend-mode:normal;color-interpolation:sRGB;color-interpolation-filters:linearRGB;solid-color:#000000;solid-opacity:1;fill:url(#linearGradient5849-3);stroke-width:2;color-rendering:auto;image-rendering:auto;shape-rendering:auto"
         isolation="auto"
         mix-blend-mode="normal"
         y="527.79797"
         x="392.57147"
         height="48.000027"
         width="47.999958"
         id="rect5847-5" />
      <path
         inkscape:connector-curvature="0"
         id="path850"
         d="m 397.76673,527.79815 c -2.87862,0 -5.19532,2.3167 -5.19532,5.19532 v 1.64842 c 0,-2.8786 2.3167,-5.1953 5.19532,-5.1953 h 37.60932 c 2.87862,0 5.19532,2.3167 5.19532,5.1953 v -1.64842 c 0,-2.87862 -2.3167,-5.19532 -5.19532,-5.19532 z"
         style="color:#000000;opacity:0.5;isolation:auto;mix-blend-mode:normal;color-interpolation:sRGB;color-interpolation-filters:linearRGB;solid-color:#000000;solid-opacity:1;fill:#ffffff;stroke-width:2;color-rendering:auto;image-rendering:auto;shape-rendering:auto" />
      <path
         inkscape:connector-curvature="0"
         id="rect5837-3"
         d="m 392.57141,568.94691 v 1.64454 c 0,2.8786 2.3167,5.19922 5.19532,5.19922 h 37.60932 c 2.87862,0 5.19532,-2.32062 5.19532,-5.19922 v -1.64454 c 0,2.87862 -2.3167,5.19532 -5.19532,5.19532 h -37.60932 c -2.87862,0 -5.19532,-2.3167 -5.19532,-5.19532 z"
         style="color:#000000;opacity:0.3;isolation:auto;mix-blend-mode:normal;color-interpolation:sRGB;color-interpolation-filters:linearRGB;solid-color:#000000;solid-opacity:1;fill:#000000;fill-opacity:1;stroke-width:2;color-rendering:auto;image-rendering:auto;shape-rendering:auto" />
      <path
         opacity="0.4"
         d="m 406.11666,548.7343 v 6 h 2 v -6 z m -4,2 v 4 h 2 v -4 z m 7.99999,0 v 4 h 2 v -4 z m -11.99999,2 v 2 h 2 v -2 z m -1.99999,4 v 8.00001 c 0,3.6262 2.01119,6 5.99999,6 h -4 v 2 h 15.99999 v -2 h -4 c 3.14478,0 5.0145,-1.455 6,-4 h 2 c 2,0 2,-0.006 2,-2.1875 v -2.1875 c 0,-3.63641 0,-3.62501 -2,-3.62501 h -2 v -2 z m 1.99999,2 h 15.99999 v 0.9375 1.0625 4.00001 c 0,3.0218 -2.676,4 -5.99999,4 h -4 c -3.324,0 -6,-0.9782 -6,-4 z m 17.99999,2 h 1 1 v 2.00001 2 h -2 z"
         id="rect4166"
         inkscape:connector-curvature="0"
         style="opacity:0.75;fill:#ffffff;fill-opacity:1;stroke-width:2" />
    </g>
  </g>
</svg>
