<?xml version="1.0" encoding="UTF-8" standalone="no"?>
<svg
   width="64"
   height="64"
   version="1.1"
   id="svg33"
   sodipodi:docname="application-x-kdenlivetitle.svg"
   inkscape:version="1.3.2 (1:1.3.2+202311252150+091e20ef0f)"
   viewBox="0 0 64 64"
   xmlns:inkscape="http://www.inkscape.org/namespaces/inkscape"
   xmlns:sodipodi="http://sodipodi.sourceforge.net/DTD/sodipodi-0.dtd"
   xmlns:xlink="http://www.w3.org/1999/xlink"
   xmlns="http://www.w3.org/2000/svg"
   xmlns:svg="http://www.w3.org/2000/svg"
   xmlns:rdf="http://www.w3.org/1999/02/22-rdf-syntax-ns#"
   xmlns:cc="http://creativecommons.org/ns#"
   xmlns:dc="http://purl.org/dc/elements/1.1/">
  <style
     type="text/css"
     id="current-color-scheme">
      .ColorScheme-Text {
        color:#232629;
      }
      .ColorScheme-Highlight {
        color:#3daee9;
      }
   </style>
  <metadata
     id="metadata37">
    <rdf:RDF>
      <cc:Work
         rdf:about="">
        <dc:format>image/svg+xml</dc:format>
        <dc:type
           rdf:resource="http://purl.org/dc/dcmitype/StillImage" />
      </cc:Work>
    </rdf:RDF>
  </metadata>
  <sodipodi:namedview
     pagecolor="#ffffff"
     bordercolor="#666666"
     borderopacity="1"
     objecttolerance="10"
     gridtolerance="10"
     guidetolerance="10"
     inkscape:pageopacity="0"
     inkscape:pageshadow="2"
     inkscape:window-width="3440"
     inkscape:window-height="1356"
     id="namedview35"
     showgrid="false"
     inkscape:zoom="11.67"
     inkscape:cx="20.308483"
     inkscape:cy="17.652099"
     inkscape:window-x="0"
     inkscape:window-y="0"
     inkscape:window-maximized="1"
     inkscape:current-layer="svg33"
     inkscape:pagecheckerboard="0"
     inkscape:showpageshadow="2"
     inkscape:deskcolor="#d1d1d1">
  </sodipodi:namedview>
  <defs
     id="defs17">
    <linearGradient
       id="a"
       y1="61"
       y2="3"
       x2="0"
       gradientUnits="userSpaceOnUse"
       gradientTransform="matrix(0,-0.5,-0.48276,0,31.45,52)">
      <stop
         stop-color="#5e6b78"
         id="stop2" />
      <stop
         offset="1"
         stop-color="#768492"
         id="stop4" />
    </linearGradient>
    <linearGradient
       id="b"
       y1="542.79999"
       x1="386.57001"
       y2="520.79999"
       x2="414.57001"
       gradientUnits="userSpaceOnUse"
       gradientTransform="translate(-384.57,-515.8)">
      <stop
         stop-color="#383e51"
         id="stop7" />
      <stop
         offset="1"
         stop-color="#655c6f"
         stop-opacity="0"
         id="stop9" />
    </linearGradient>
    <linearGradient
       id="c"
       y1="27"
       x1="2"
       y2="5"
       x2="30"
       gradientUnits="userSpaceOnUse">
      <stop
         stop-color="#dedede"
         id="stop12" />
      <stop
         offset="1"
         stop-color="#fbfbfb"
         id="stop14" />
    </linearGradient>
    <linearGradient
       inkscape:collect="always"
       xlink:href="#a-3"
       id="linearGradient872"
       x1="35.666187"
       y1="29.845545"
       x2="35.666187"
       y2="2.091089"
       gradientUnits="userSpaceOnUse"
       gradientTransform="matrix(1.9999995,0,0,1.9999995,-79.999979,-5.9999838)" />
    <linearGradient
       id="a-3"
       y1="394.54001"
       y2="325.98001"
       gradientUnits="userSpaceOnUse"
       x2="0"
       gradientTransform="matrix(0.48276,0,0,0.40835,0.07,-131.12)">
      <stop
         stop-color="#ffffff"
         stop-opacity="0"
         id="stop2-6" />
      <stop
         offset="1"
         stop-color="#ffffff"
         stop-opacity=".2"
         id="stop4-7" />
    </linearGradient>
  </defs>
  <path
     style="display:inline;fill:#414141;fill-opacity:1;stroke-width:2"
     d="M 9.1015686,10 C 7.688615,10 6.4141853,10.570195 5.4921956,11.492187 4.5702038,12.414177 4.000008,13.688606 4.000008,15.10156 v 33.796867 c 0,1.412954 0.5701958,2.687384 1.4921876,3.609373 0.9219897,0.921992 2.1964194,1.492188 3.609373,1.492188 H 54.898432 c 1.412954,0 2.687383,-0.570196 3.609373,-1.492188 0.921992,-0.921989 1.492188,-2.196419 1.492188,-3.609373 V 23.999996 15.10156 c 0,-1.412954 -0.570196,-2.687383 -1.492188,-3.609373 C 57.585815,10.570195 56.311386,10 54.898432,10 Z"
     id="path910"
     inkscape:connector-curvature="0" />
  <path
     d="M 32.002852,19.996009 A 11.999997,11.999997 0 0 0 20.002856,31.996006 11.999997,11.999997 0 0 0 32.002852,43.996003 11.999997,11.999997 0 0 0 44.002849,31.996006 11.999997,11.999997 0 0 0 32.002852,19.996009 m 0,1.999999 a 9.9999973,9.9999974 0 0 1 9.999998,9.999998 9.9999973,9.9999974 0 0 1 -9.999998,9.999997 9.9999973,9.9999974 0 0 1 -9.999997,-9.999997 9.9999973,9.9999974 0 0 1 9.999997,-9.999998 m -3.999999,3.999999 v 11.999997 l 9.999998,-5.999998 z"
     id="path15"
     class="ColorScheme-Highlight"
     inkscape:connector-curvature="0"
     style="opacity:0.75;color-interpolation:sRGB;color-interpolation-filters:linearRGB;fill:currentColor;fill-opacity:1;stroke-width:2;color-rendering:auto;image-rendering:auto;shape-rendering:auto;text-rendering:auto" />
  <path
     style="color:#000000;opacity:0.75;color-interpolation:sRGB;color-interpolation-filters:linearRGB;fill:#ffffff;stroke-width:1.77778;color-rendering:auto;image-rendering:auto;shape-rendering:auto;text-rendering:auto"
     d="m 6.2222214,16.00001 v 3.555557 h 3.555555 V 16.00001 Z"
     id="path964"
     inkscape:connector-curvature="0" />
  <path
     style="color:#000000;opacity:0.75;color-interpolation:sRGB;color-interpolation-filters:linearRGB;fill:#ffffff;stroke-width:1.77778;color-rendering:auto;image-rendering:auto;shape-rendering:auto;text-rendering:auto"
     d="m 54.222208,16.00001 v 3.555557 h 3.555555 V 16.00001 Z"
     id="path962"
     inkscape:connector-curvature="0" />
  <path
     style="color:#000000;opacity:0.75;color-interpolation:sRGB;color-interpolation-filters:linearRGB;fill:#ffffff;stroke-width:1.77778;color-rendering:auto;image-rendering:auto;shape-rendering:auto;text-rendering:auto"
     d="m 6.2222214,23.11112 v 3.555553 h 3.555555 V 23.11112 Z"
     id="path960"
     inkscape:connector-curvature="0" />
  <path
     style="color:#000000;opacity:0.75;color-interpolation:sRGB;color-interpolation-filters:linearRGB;fill:#ffffff;stroke-width:1.77778;color-rendering:auto;image-rendering:auto;shape-rendering:auto;text-rendering:auto"
     d="m 54.222208,23.11112 v 3.555553 h 3.555555 V 23.11112 Z"
     id="path958"
     inkscape:connector-curvature="0" />
  <path
     style="color:#000000;opacity:0.75;color-interpolation:sRGB;color-interpolation-filters:linearRGB;fill:#ffffff;stroke-width:1.77778;color-rendering:auto;image-rendering:auto;shape-rendering:auto;text-rendering:auto"
     d="m 6.2222214,30.222228 v 3.555555 h 3.555555 v -3.555555 z"
     id="path956"
     inkscape:connector-curvature="0" />
  <path
     style="color:#000000;opacity:0.75;color-interpolation:sRGB;color-interpolation-filters:linearRGB;fill:#ffffff;stroke-width:1.77778;color-rendering:auto;image-rendering:auto;shape-rendering:auto;text-rendering:auto"
     d="m 54.222208,30.222228 v 3.555555 h 3.555555 v -3.555555 z"
     id="path954"
     inkscape:connector-curvature="0" />
  <path
     style="color:#000000;opacity:0.75;color-interpolation:sRGB;color-interpolation-filters:linearRGB;fill:#ffffff;stroke-width:1.77778;color-rendering:auto;image-rendering:auto;shape-rendering:auto;text-rendering:auto"
     d="m 6.2222214,37.333338 v 3.555553 h 3.555555 v -3.555553 z"
     id="path952"
     inkscape:connector-curvature="0" />
  <path
     style="color:#000000;opacity:0.75;color-interpolation:sRGB;color-interpolation-filters:linearRGB;fill:#ffffff;stroke-width:1.77778;color-rendering:auto;image-rendering:auto;shape-rendering:auto;text-rendering:auto"
     d="m 54.222208,37.333338 v 3.555553 h 3.555555 v -3.555553 z"
     id="path950"
     inkscape:connector-curvature="0" />
  <path
     style="color:#000000;opacity:0.75;color-interpolation:sRGB;color-interpolation-filters:linearRGB;fill:#ffffff;stroke-width:1.77778;color-rendering:auto;image-rendering:auto;shape-rendering:auto;text-rendering:auto"
     d="m 6.2222214,44.444446 v 3.555556 h 3.555555 v -3.555556 z"
     id="path948"
     inkscape:connector-curvature="0" />
  <path
     style="color:#000000;opacity:0.75;color-interpolation:sRGB;color-interpolation-filters:linearRGB;fill:#ffffff;stroke-width:1.77778;color-rendering:auto;image-rendering:auto;shape-rendering:auto;text-rendering:auto"
     d="m 54.222208,44.444446 v 3.555556 h 3.555555 v -3.555556 z"
     id="path17"
     inkscape:connector-curvature="0" />
  <rect
     style="display:inline;opacity:0.5;fill:url(#linearGradient872);fill-opacity:1;fill-rule:nonzero;stroke:none;stroke-width:4;stroke-linejoin:miter;stroke-miterlimit:4;stroke-dasharray:none;stroke-opacity:1"
     id="rect843-3"
     width="55.999985"
     height="43.999989"
     x="4.0000153"
     y="9.9999886"
     ry="5.1009188" />
  <path
     style="display:inline;opacity:1;fill:#282828;fill-opacity:1;fill-rule:nonzero;stroke:none;stroke-width:4;stroke-linejoin:miter;stroke-miterlimit:4;stroke-dasharray:none;stroke-opacity:1"
     d="m 59.999985,47.125002 c 0,1.412953 -0.570196,3.508333 -1.492188,4.430325 -0.92199,0.921989 -2.196419,1.492185 -3.609373,1.492185 H 9.1015606 c -1.4129536,0 -2.6873833,-0.570196 -3.609373,-1.492185 C 4.5701958,50.633335 4,48.537955 4,47.125002 v 1.773437 C 4,51.724349 6.2756514,54 9.1015606,54 H 54.898424 c 2.825909,0 5.101561,-2.275651 5.101561,-5.101561 z"
     id="path941"
     inkscape:connector-curvature="0"
     sodipodi:nodetypes="csssscssssc" />
  <path
     style="opacity:1;fill:#ffffff;fill-opacity:0.411765;fill-rule:nonzero;stroke:none;stroke-width:4;stroke-linejoin:miter;stroke-miterlimit:4;stroke-dasharray:none;stroke-opacity:1"
     d="M 9.1015606,10.000011 C 6.2756514,10.000011 4,12.275663 4,15.101572 V 16.87501 C 4,15.462056 4.5701958,14.187626 5.4921876,13.265637 6.4141773,12.343645 7.688607,11.773449 9.1015606,11.773449 H 54.898424 c 1.412954,0 2.687383,0.570196 3.609373,1.492188 0.921992,0.921989 1.492188,2.196419 1.492188,3.609373 v -1.773438 c 0,-2.825909 -2.275652,-5.101561 -5.101561,-5.101561 z"
     id="rect843-3-6"
     inkscape:connector-curvature="0" />
</svg>
