<?xml version="1.0" encoding="UTF-8" standalone="no"?>
<svg
   width="64"
   height="64"
   version="1.1"
   id="svg29"
   sodipodi:docname="application-pgp-signature.svg"
   inkscape:version="1.3.2 (1:1.3.2+202311252150+091e20ef0f)"
   xmlns:inkscape="http://www.inkscape.org/namespaces/inkscape"
   xmlns:sodipodi="http://sodipodi.sourceforge.net/DTD/sodipodi-0.dtd"
   xmlns:xlink="http://www.w3.org/1999/xlink"
   xmlns="http://www.w3.org/2000/svg"
   xmlns:svg="http://www.w3.org/2000/svg">
  <style
     type="text/css"
     id="current-color-scheme">
      .ColorScheme-Text {
        color:#232629;
      }
      .ColorScheme-Highlight {
        color:#3daee9;
      }
   </style>
  <sodipodi:namedview
     id="namedview31"
     pagecolor="#ffffff"
     bordercolor="#666666"
     borderopacity="1.0"
     inkscape:pageshadow="2"
     inkscape:pageopacity="0.0"
     inkscape:pagecheckerboard="0"
     showgrid="false"
     inkscape:zoom="9.81"
     inkscape:cx="-0.91743119"
     inkscape:cy="15.953109"
     inkscape:window-width="3440"
     inkscape:window-height="1356"
     inkscape:window-x="0"
     inkscape:window-y="0"
     inkscape:window-maximized="1"
     inkscape:current-layer="svg29"
     inkscape:showpageshadow="2"
     inkscape:deskcolor="#d1d1d1">
  </sodipodi:namedview>
  <defs
     id="defs13">
    <linearGradient
       id="a"
       y1="392.36"
       y2="365.36"
       x2="0"
       gradientUnits="userSpaceOnUse"
       gradientTransform="translate(309.57 152.44)">
      <stop
         stop-color="#fff"
         stop-opacity="0"
         id="stop2" />
      <stop
         offset="1"
         stop-color="#fff"
         stop-opacity=".2"
         id="stop4" />
    </linearGradient>
    <linearGradient
       id="b"
       y1="17"
       y2="24"
       x1="47"
       x2="54"
       gradientUnits="userSpaceOnUse"
       gradientTransform="matrix(2,0,0,1.999999,-54,-15.999981)">
      <stop
         stop-color="#060606"
         id="stop7" />
      <stop
         offset="1"
         stop-opacity="0"
         id="stop9" />
    </linearGradient>
    <linearGradient
       xlink:href="#a"
       id="c"
       x1="5"
       y1="30"
       x2="5"
       y2="2"
       gradientUnits="userSpaceOnUse"
       gradientTransform="matrix(2,0,0,1.999999,-40,1.15e-5)" />
  </defs>
  <path
     d="M 40,4.0000095 H 16 c -3.324,0 -6,2.6759986 -6,5.9999965 v 43.999978 c 0,3.323999 2.676,5.999997 6,5.999997 h 32 c 3.324,0 6,-2.675998 6,-5.999997 V 18.000002 Z"
     id="path15"
     style="fill:#555555;fill-opacity:1;stroke-width:2" />
  <path
     d="m 16,4.0000095 a 5.98,5.979997 0 0 0 -4.246,1.7539991 c -0.062,0.062 -0.04,0.1799999 -0.1,0.2459999 H 40 v -1.999999 z"
     color="#000000"
     opacity="0.5"
     fill="#ffffff"
     id="path17"
     style="display:inline;stroke-width:2" />
  <path
     d="m 11.652,57.999982 c 0.06,0.066 0.04,0.184 0.102,0.246 A 5.98,5.979997 0 0 0 16,59.999981 h 32 a 5.98,5.979997 0 0 0 4.246,-1.753999 c 0.062,-0.062 0.04,-0.18 0.1,-0.246 H 11.654 Z"
     id="path19"
     class="ColorScheme-Highlight"
     style="display:inline;opacity:1;fill:currentColor;fill-opacity:1;stroke-width:2" />
  <path
     d="M 54,18.000002 40,4.0000095 V 18.000002 Z"
     color="#000000"
     opacity="0.5"
     fill="#ffffff"
     fill-rule="evenodd"
     id="path21"
     style="stroke-width:2" />
  <path
     d="M 40,18.000002 54,31.999995 V 18.000002 Z"
     opacity="0.1"
     fill="url(#b)"
     fill-rule="evenodd"
     id="path23"
     style="fill:url(#b);stroke-width:2" />
  <path
     d="M 40,4.0000093 H 16 c -3.324,0 -6,2.6759988 -6,5.9999967 v 43.999978 c 0,3.323999 2.676,5.999997 6,5.999997 h 32 c 3.324,0 6,-2.675998 6,-5.999997 V 18.000002 Z"
     opacity="0.4"
     fill="url(#c)"
     id="path27"
     style="fill:url(#c);stroke-width:2" />
  <path
     d="m 42.135422,18.836502 a 0.74,0.73999963 0 0 0 -0.41,0.118 c -0.07,0.048 -0.38,0.416 -0.684,0.815997 l -0.55,0.734 -0.2,-0.136 c -0.276,-0.186 -0.546,-0.226 -0.796,-0.114 -0.174,0.078 -0.58,0.6 -3.262,4.129998 -1.692,2.223999 -3.07,4.059998 -3.066,4.089998 0.002,0.024 0.68,0.56 1.504,1.183999 l 1.504,1.14 2,-2.633999 c 1.1,-1.449999 2.016,-2.623999 2.04,-2.607999 0.068,0.052 0.19,1.194 0.162,1.562 -0.01,0.2 -0.084,0.561999 -0.164,0.799999 -0.14,0.428 -0.158,0.454 -2.636,3.731998 -1.372,1.812 -2.51,3.347999 -2.532,3.409999 -0.06,0.168 0.002,0.481999 0.13,0.663999 0.21,0.306 0.74,0.402 1.04,0.186 0.206,-0.148 5.116,-6.683996 5.272,-7.025996 0.458,-0.974 0.558,-2.225999 0.278,-3.457998 a 8,7.999996 0 0 0 -0.4,-1.292 c -0.04,-0.092 0.03,-0.21 0.49,-0.819999 0.434,-0.584 0.534,-0.748 0.542,-0.9 0.02,-0.32 -0.08,-0.5 -0.394,-0.75 l -0.294,-0.229999 0.59,-0.784 c 0.484,-0.648 0.586,-0.818 0.594,-0.97 a 0.788,0.78799961 0 0 0 -0.758,-0.843997 z m -9.918,10.855992 c -0.014,0.002 -1.816,2.371999 -4.008,5.261998 -3.526,4.651997 -4.028,5.339997 -4.354,5.933997 -0.648,1.179999 -1.356,2.979998 -1.83,4.623997 -0.306,1.056 -0.318,0.958 0.102,0.734 1.296,-0.689998 2.99,-1.811997 3.978,-2.639999 0.964,-0.809999 1.128,-1.019999 5.226,-6.417996 l 3.94,-5.199998 -1.514,-1.151999 a 50.414,50.413975 0 0 0 -1.54,-1.144 z m 0.434,12.051994 a 2.232,2.2319989 0 0 0 -0.52,0.022 c -0.608,0.13 -1.286,0.658 -1.612,1.266 a 5.666,5.6659972 0 0 0 -0.318,0.785999 8.106,8.1059959 0 0 1 -0.164,0.51 c -0.046,0.06 -1.214,0.34 -1.898,0.458 -1.612,0.282 -2.052,0.388 -2.21,0.536 -0.31,0.287999 -0.07,0.571999 0.37,0.443999 0.12,-0.036 0.614,-0.132 1.094,-0.214 0.48,-0.082 1.216,-0.233999 1.632,-0.327999 0.416,-0.1 0.768,-0.166 0.786,-0.148 0.018,0.018 -0.052,0.354 -0.164,0.745999 l -0.2,0.702 -0.44,0.196 a 6.06,6.059997 0 0 0 -0.766,0.41 c -0.55,0.363999 -0.66,0.819999 -0.274,1.113999 0.212,0.158 0.8,0.15 1.16,-0.008 0.322,-0.146 0.506,-0.354 0.76,-0.887999 0.132,-0.276 0.236,-0.42 0.32,-0.436 0.062,-0.02 0.646,-0.134 1.292,-0.27 0.644,-0.128 1.228,-0.252 1.304,-0.27 0.124,-0.03 0.136,-0.02 0.1,0.094 a 3.636,3.6359982 0 0 1 -0.24,0.456 1.316,1.3159993 0 0 0 -0.2,0.486 c 0,0.179999 0.154,0.363999 0.278,0.315999 a 0.528,0.52799974 0 0 1 0.136,-0.036 c 0.03,0 0.16,-0.092 0.29,-0.21 0.24,-0.215999 0.82,-1.279999 0.82,-1.499999 0,-0.112 0.088,-0.144 0.14,-0.056 0.02,0.03 0.152,0.086 0.298,0.12 0.206,0.054 0.264,0.096 0.264,0.19 0,0.18 0.3,0.444 0.564,0.496 a 1.396,1.3959993 0 0 0 0.75,-0.126 c 0.1,-0.04 0.106,-0.028 0.07,0.126 a 3.918,3.917998 0 0 1 -0.38,0.668 c -0.386,0.573999 -0.854,1.487999 -0.976,1.893999 -0.1,0.345999 -0.056,0.603999 0.126,0.725999 0.164,0.106 0.434,0.06 0.574,-0.094 0.124,-0.134 0.788,-1.545999 1.034,-2.189999 0.176,-0.451999 0.26,-0.573999 0.656,-0.995999 0.328,-0.346 0.434,-0.432 0.364,-0.298 -0.118,0.252 -0.11,0.446 0.02,0.562 0.276,0.252 0.674,0.01 1.02,-0.624 0.206,-0.376 0.36,-0.49 1.12,-0.848 l 0.4,-0.179999 -0.044,0.215999 a 4.54,4.5399977 0 0 1 -0.296,0.738 c -0.276,0.58 -0.328,0.95 -0.164,1.265999 0.112,0.216 0.224,0.22 0.764,0.034 0.75,-0.251999 1.734,-0.829999 1.986,-1.163999 0.346,-0.468 0.45,-0.92 0.238,-1.073999 -0.216,-0.158 -0.338,-0.092 -0.614,0.311999 -0.37,0.55 -0.83,0.978 -1.27,1.196 -0.206,0.106 -0.384,0.174 -0.4,0.156 -0.026,-0.024 0.446,-1.282 0.698,-1.873999 a 1.19,1.1899994 0 0 0 0.094,-0.34 c 0,-0.164 -0.21,-0.352 -0.384,-0.352 -0.08,0 -0.468,0.16 -0.856,0.36 -0.804,0.398 -0.746,0.432 -0.542,-0.318 0.124,-0.46 0.08,-0.586 -0.204,-0.616 -0.27,-0.03 -0.374,0.06 -0.62,0.5 -0.16,0.298 -0.37,0.544 -0.774,0.918 -0.534,0.491999 -0.556,0.509999 -0.68,0.419999 -0.188,-0.132 -0.294,-0.116 -0.75,0.114 -0.446,0.222 -0.59,0.252 -0.702,0.118 -0.094,-0.112 0.05,-0.17 0.866,-0.328 0.792,-0.151999 0.892,-0.195999 0.892,-0.359999 0,-0.264 -0.22,-0.514 -0.606,-0.684 -0.668,-0.298 -0.746,-0.318 -1.04,-0.24 -0.316,0.08 -0.782,0.536 -0.846,0.816 -0.064,0.294 -0.266,0.206 -0.266,-0.12 0,-0.132 -0.164,-0.474 -0.26,-0.534 -0.2,-0.134 -0.518,0.16 -0.764,0.7 l -0.196,0.413999 -0.432,0.094 a 151.66,151.65992 0 0 1 -2.416,0.492 c -0.14,0.024 -0.166,0.012 -0.136,-0.07 0.024,-0.06 0.094,-0.314 0.164,-0.58 0.182,-0.723999 0.236,-0.819999 0.5,-0.911999 0.316,-0.112 1.382,-0.57 1.656,-0.712 a 3.48,3.4799983 0 0 0 0.586,-0.44 c 0.592,-0.549999 0.688,-1.059999 0.266,-1.433999 a 1.742,1.7419991 0 0 0 -0.34,-0.234 1.854,1.8539991 0 0 0 -0.488,-0.082 z m -0.29,0.69 c 0.31,0.02 0.432,0.048 0.52,0.14 0.12,0.12 0.12,0.126 0.012,0.348 a 1.376,1.3759993 0 0 1 -0.44,0.446 c -0.36,0.245999 -1.476,0.699999 -1.512,0.617999 -0.048,-0.134 0.308,-0.937999 0.54,-1.195999 0.302,-0.346 0.392,-0.384 0.88,-0.356 z m -3.308,4.905998 c 0.044,0.004 0.042,0.04 0.008,0.11 -0.076,0.145999 -0.276,0.253999 -0.386,0.213999 -0.128,-0.052 -0.094,-0.126 0.112,-0.229999 a 0.68,0.67999966 0 0 1 0.266,-0.094 z"
     opacity="0.75"
     id="path17-5"
     style="fill:#ffffff;fill-opacity:1;stroke-width:2" />
</svg>
