<?xml version="1.0" encoding="UTF-8" standalone="no"?>
<svg
   width="64"
   height="64"
   version="1.1"
   id="svg29"
   sodipodi:docname="application-vnd.oasis.opendocument.formula.svg"
   inkscape:version="1.3.2 (1:1.3.2+202311252150+091e20ef0f)"
   xmlns:inkscape="http://www.inkscape.org/namespaces/inkscape"
   xmlns:sodipodi="http://sodipodi.sourceforge.net/DTD/sodipodi-0.dtd"
   xmlns:xlink="http://www.w3.org/1999/xlink"
   xmlns="http://www.w3.org/2000/svg"
   xmlns:svg="http://www.w3.org/2000/svg">
  <style
     type="text/css"
     id="current-color-scheme">
      .ColorScheme-Text {
        color:#232629;
      }
      .ColorScheme-Highlight {
        color:#3daee9;
      }
   </style>
  <sodipodi:namedview
     id="namedview31"
     pagecolor="#ffffff"
     bordercolor="#666666"
     borderopacity="1.0"
     inkscape:pageshadow="2"
     inkscape:pageopacity="0.0"
     inkscape:pagecheckerboard="0"
     showgrid="false"
     inkscape:zoom="9.8125"
     inkscape:cx="-12.636943"
     inkscape:cy="24.611465"
     inkscape:window-width="3440"
     inkscape:window-height="1356"
     inkscape:window-x="0"
     inkscape:window-y="0"
     inkscape:window-maximized="1"
     inkscape:current-layer="svg29"
     inkscape:showpageshadow="2"
     inkscape:deskcolor="#d1d1d1">
  </sodipodi:namedview>
  <defs
     id="defs13">
    <linearGradient
       id="a"
       y1="392.36"
       y2="365.36"
       x2="0"
       gradientUnits="userSpaceOnUse"
       gradientTransform="translate(309.57 152.44)">
      <stop
         stop-color="#fff"
         stop-opacity="0"
         id="stop2" />
      <stop
         offset="1"
         stop-color="#fff"
         stop-opacity=".2"
         id="stop4" />
    </linearGradient>
    <linearGradient
       id="b"
       y1="17"
       y2="24"
       x1="47"
       x2="54"
       gradientUnits="userSpaceOnUse"
       gradientTransform="matrix(1.999999,0,0,1.999999,-53.999968,-15.999981)">
      <stop
         stop-color="#060606"
         id="stop7" />
      <stop
         offset="1"
         stop-opacity="0"
         id="stop9" />
    </linearGradient>
    <linearGradient
       xlink:href="#a"
       id="c"
       x1="5"
       y1="30"
       x2="5"
       y2="2"
       gradientUnits="userSpaceOnUse"
       gradientTransform="matrix(1.999999,0,0,1.999999,-39.999975,1.15e-5)" />
  </defs>
  <path
     d="M 39.999985,4.0000095 H 15.999997 C 12.675999,4.0000095 10,6.6760081 10,10.000006 v 43.999978 c 0,3.323999 2.675999,5.999997 5.999997,5.999997 h 31.999984 c 3.323998,0 5.999997,-2.675998 5.999997,-5.999997 V 18.000002 Z"
     id="path15"
     style="fill:#555555;fill-opacity:1;stroke-width:2" />
  <path
     d="m 15.999997,4.0000095 a 5.979997,5.979997 0 0 0 -4.245998,1.7539991 c -0.062,0.062 -0.04,0.1799999 -0.1,0.2459999 h 28.345986 v -1.999999 z"
     color="#000000"
     opacity="0.5"
     fill="#ffffff"
     id="path17"
     style="display:inline;stroke-width:2" />
  <path
     d="m 11.651999,57.999982 c 0.06,0.066 0.04,0.184 0.102,0.246 a 5.979997,5.979997 0 0 0 4.245998,1.753999 h 31.999984 a 5.979997,5.979997 0 0 0 4.245998,-1.753999 c 0.062,-0.062 0.04,-0.18 0.1,-0.246 h -40.69198 z"
     id="path19"
     class="ColorScheme-Highlight"
     style="display:inline;opacity:1;fill:currentColor;fill-opacity:1;stroke-width:2" />
  <path
     d="M 53.999978,18.000002 39.999985,4.0000095 V 18.000002 Z"
     color="#000000"
     opacity="0.5"
     fill="#ffffff"
     fill-rule="evenodd"
     id="path21"
     style="stroke-width:2" />
  <path
     d="M 39.999985,18.000002 53.999978,31.999995 V 18.000002 Z"
     opacity="0.1"
     fill="url(#b)"
     fill-rule="evenodd"
     id="path23"
     style="fill:url(#b);stroke-width:2" />
  <path
     d="M 39.999985,4.0000093 H 15.999997 C 12.675999,4.0000093 10,6.6760081 10,10.000006 v 43.999978 c 0,3.323999 2.675999,5.999997 5.999997,5.999997 h 31.999984 c 3.323998,0 5.999997,-2.675998 5.999997,-5.999997 V 18.000002 Z"
     opacity="0.4"
     fill="url(#c)"
     id="path27"
     style="fill:url(#c);stroke-width:2" />
  <path
     d="m 44.246407,26.417674 -13.999993,0.008 -4.881998,13.381993 -3.109998,-5.389997 h -1.999999 v 1.999999 h 0.855999 l 4.265998,7.385996 6.039997,-15.385992 h 12.839994 z m -7.999996,3.999998 c -3.323998,0 -5.999997,2.675999 -5.999997,5.999997 a 5.985997,5.985997 0 0 0 9.999995,4.449998 v 1.549999 h 1.999999 V 30.417672 h -1.999999 v 1.549999 a 5.959997,5.959997 0 0 0 -3.999998,-1.549999 m 0,1.999999 c 2.215999,0 3.999998,1.783999 3.999998,3.999998 0,2.215999 -1.783999,3.999998 -3.999998,3.999998 -2.215999,0 -3.999998,-1.783999 -3.999998,-3.999998 0,-2.215999 1.783999,-3.999998 3.999998,-3.999998"
     opacity="0.75"
     fill="#ffffff"
     id="path27-1"
     style="stroke-width:2" />
</svg>
