<?xml version="1.0" encoding="UTF-8" standalone="no"?>
<svg
   width="64"
   height="64"
   version="1.1"
   id="svg33"
   sodipodi:docname="application-vnd.oasis.opendocument.web-template.svg"
   inkscape:version="1.3.2 (1:1.3.2+202311252150+091e20ef0f)"
   xmlns:inkscape="http://www.inkscape.org/namespaces/inkscape"
   xmlns:sodipodi="http://sodipodi.sourceforge.net/DTD/sodipodi-0.dtd"
   xmlns:xlink="http://www.w3.org/1999/xlink"
   xmlns="http://www.w3.org/2000/svg"
   xmlns:svg="http://www.w3.org/2000/svg">
  <style
     type="text/css"
     id="current-color-scheme">
      .ColorScheme-Text {
        color:#232629;
      }
      .ColorScheme-Highlight {
        color:#3daee9;
      }
   </style>
  <sodipodi:namedview
     id="namedview35"
     pagecolor="#ffffff"
     bordercolor="#666666"
     borderopacity="1.0"
     inkscape:pageshadow="2"
     inkscape:pageopacity="0.0"
     inkscape:pagecheckerboard="0"
     showgrid="false"
     inkscape:zoom="9.81"
     inkscape:cx="16.004077"
     inkscape:cy="15.953109"
     inkscape:window-width="3440"
     inkscape:window-height="1356"
     inkscape:window-x="0"
     inkscape:window-y="0"
     inkscape:window-maximized="1"
     inkscape:current-layer="svg33"
     inkscape:showpageshadow="2"
     inkscape:deskcolor="#d1d1d1">
  </sodipodi:namedview>
  <defs
     id="defs13">
    <linearGradient
       id="c"
       y1="17"
       y2="24"
       x1="47"
       x2="54"
       gradientUnits="userSpaceOnUse"
       gradientTransform="translate(357.57,507.8)">
      <stop
         stop-color="#060606"
         id="stop2" />
      <stop
         offset="1"
         stop-opacity="0"
         id="stop4" />
    </linearGradient>
    <linearGradient
       xlink:href="#a"
       id="b"
       x1="5"
       y1="30"
       x2="5"
       y2="2"
       gradientUnits="userSpaceOnUse"
       gradientTransform="matrix(1.999999,0,0,1.999999,-39.999975,1.14e-5)" />
    <linearGradient
       id="a"
       y1="392.36"
       y2="365.36"
       x2="0"
       gradientUnits="userSpaceOnUse"
       gradientTransform="translate(309.57 152.44)">
      <stop
         stop-color="#fff"
         stop-opacity="0"
         id="stop8" />
      <stop
         offset="1"
         stop-color="#fff"
         stop-opacity=".2"
         id="stop10" />
    </linearGradient>
  </defs>
  <path
     d="M 39.999985,4.0000094 H 15.999997 C 12.675999,4.0000094 10,6.676008 10,10.000006 v 43.999978 c 0,3.323999 2.675999,5.999997 5.999997,5.999997 h 31.999984 c 3.323998,0 5.999997,-2.675998 5.999997,-5.999997 V 18.000002 Z"
     id="path15"
     style="display:inline;fill:#555555;fill-opacity:1;stroke-width:2" />
  <path
     d="m 15.999997,4.0000094 c -0.782,0 -1.315999,0.5539997 -1.999999,0.8239996 V 7.9960074 H 10.828 c -0.27,0.6819996 -0.822,1.2159994 -0.824,1.995999 v 0.004 h 3.995998 V 13.996004 H 10.004 v 1.999999 h 3.995998 v 3.999998 H 10.004 V 21.996 h 3.995998 v 3.999998 H 10.004 v 1.999999 h 3.995998 v 3.999998 H 10.004 v 1.999999 h 3.995998 v 3.999998 H 10.004 v 1.999999 h 3.995998 v 3.999998 H 10.004 v 1.999999 h 3.995998 v 3.999998 H 10.004 v 1.999999 h 3.995998 v 3.999998 H 10.824 c 0.269999,0.686 0.339999,1.465999 0.827999,1.999999 h 2.347999 v 1.18 c 0.68,0.268 1.213999,0.819999 1.991999,0.819999 h 0.008 v -1.999999 h 3.999998 v 1.999999 h 1.999999 v -1.999999 h 3.999998 v 1.999999 h 1.999999 v -1.999999 h 3.999998 v 1.999999 h 1.999999 v -1.999999 h 3.999998 v 1.999999 h 1.999999 v -1.999999 h 3.999998 v 1.999999 h 1.999999 v -1.999999 h 3.999998 v 1.18 c 0.684,-0.27 1.465999,-0.34 1.999999,-0.828 v -0.352 h 0.348 c 0.487999,-0.534 0.557999,-1.313999 0.827999,-1.999999 h -1.175999 v -3.999998 h 1.999999 v -1.999999 h -1.999999 v -3.999998 h 1.999999 v -1.999999 h -1.999999 v -3.999998 h 1.999999 v -1.999999 h -1.999999 v -3.999998 h 1.999999 v -1.999999 h -1.999999 v -3.999998 h 1.999999 V 25.995998 H 51.999979 V 21.996 h 1.999999 V 19.996001 H 51.999979 V 15.996003 L 49.99998,13.996004 H 45.999982 V 9.9960064 l -1.999999,-1.999999 h -3.999998 v -3.995998 h -1.999999 v 3.995998 h -3.999998 v -3.995998 h -1.999999 v 3.995998 h -3.999998 v -3.995998 h -1.999999 v 3.995998 h -3.999998 v -3.995998 h -1.999999 v 3.995998 h -3.999998 z m 0,5.995997 h 3.999998 v 3.9999976 h -3.999998 z m 5.999997,0 h 3.999998 v 3.9999976 h -3.999998 z m 5.999997,0 h 3.999998 v 3.9999976 h -3.999998 z m 5.999997,0 h 3.999998 v 3.9999976 h -3.999998 z m 5.999997,0 h 3.999998 V 13.996004 H 39.999985 Z M 15.999997,15.996003 h 3.999998 v 3.999998 h -3.999998 z m 5.999997,0 h 3.999998 v 3.999998 h -3.999998 z m 5.999997,0 h 3.999998 v 3.999998 h -3.999998 z m 5.999997,0 h 3.999998 v 3.999998 h -3.999998 z m 5.999997,0 h 3.999998 v 3.999998 h -3.999998 z m 5.999997,0 h 3.999998 v 3.999998 H 45.999982 Z M 15.999997,21.996 h 3.999998 v 3.999998 h -3.999998 z m 5.999997,0 h 3.999998 v 3.999998 h -3.999998 z m 5.999997,0 h 3.999998 v 3.999998 h -3.999998 z m 5.999997,0 h 3.999998 v 3.999998 h -3.999998 z m 5.999997,0 h 3.999998 v 3.999998 h -3.999998 z m 5.999997,0 h 3.999998 v 3.999998 h -3.999998 z m -29.999985,5.999997 h 3.999998 v 3.999998 h -3.999998 z m 5.999997,0 h 3.999998 v 3.999998 h -3.999998 z m 5.999997,0 h 3.999998 v 3.999998 h -3.999998 z m 5.999997,0 h 3.999998 v 3.999998 h -3.999998 z m 5.999997,0 h 3.999998 v 3.999998 h -3.999998 z m 5.999997,0 h 3.999998 v 3.999998 h -3.999998 z m -29.999985,5.999997 h 3.999998 v 3.999998 h -3.999998 z m 5.999997,0 h 3.999998 v 3.999998 h -3.999998 z m 5.999997,0 h 3.999998 v 3.999998 h -3.999998 z m 5.999997,0 h 3.999998 v 3.999998 h -3.999998 z m 5.999997,0 h 3.999998 v 3.999998 h -3.999998 z m 5.999997,0 h 3.999998 v 3.999998 h -3.999998 z m -29.999985,5.999997 h 3.999998 v 3.999998 h -3.999998 z m 5.999997,0 h 3.999998 v 3.999998 h -3.999998 z m 5.999997,0 h 3.999998 v 3.999998 h -3.999998 z m 5.999997,0 h 3.999998 v 3.999998 h -3.999998 z m 5.999997,0 h 3.999998 v 3.999998 h -3.999998 z m 5.999997,0 h 3.999998 v 3.999998 h -3.999998 z m -29.999985,5.999997 h 3.999998 v 3.999998 h -3.999998 v -1.999999 z m 5.999997,0 h 3.999998 v 3.999998 h -3.999998 v -1.999999 z m 5.999997,0 h 3.999998 v 3.999998 h -3.999998 v -1.999999 z m 5.999997,0 h 3.999998 v 3.999998 h -3.999998 v -1.999999 z m 5.999997,0 h 3.999998 v 3.999998 h -3.999998 v -1.999999 z m 5.999997,0 h 3.999998 v 3.999998 h -3.999998 v -1.999999 z m -29.999985,5.999997 h 3.999998 v 3.999998 h -3.999998 v -1.999999 z m 5.999997,0 h 3.999998 v 3.999998 h -3.999998 v -1.999999 z m 5.999997,0 h 3.999998 v 3.999998 h -3.999998 v -1.999999 z m 5.999997,0 h 3.999998 v 3.999998 h -3.999998 v -1.999999 z m 5.999997,0 h 3.999998 v 3.999998 h -3.999998 v -1.999999 z m 5.999997,0 h 3.999998 v 3.999998 h -3.999998 v -1.999999 z"
     color="#000000"
     opacity="0.15"
     fill="#ffffff"
     id="path17"
     style="display:inline;stroke-width:2" />
  <path
     d="m 15.999997,4.0000094 a 5.979997,5.979997 0 0 0 -4.245998,1.7539991 c -0.062,0.062 -0.04,0.1799999 -0.1,0.2459999 h 28.345986 v -1.999999 z"
     opacity="0.6"
     id="path21"
     style="display:inline;stroke-width:2" />
  <path
     d="m 11.651999,57.999982 c 0.06,0.066 0.04,0.184 0.102,0.246 a 5.979997,5.979997 0 0 0 4.245998,1.753999 h 31.999984 a 5.979997,5.979997 0 0 0 4.245998,-1.753999 c 0.062,-0.062 0.04,-0.18 0.1,-0.246 z"
     id="path23"
     class="ColorScheme-Highlight"
     style="display:inline;opacity:1;fill:currentColor;fill-opacity:1;stroke-width:2" />
  <path
     d="m 32.619989,21.432001 a 11.999994,11.999994 0 1 0 0,23.999988 11.999994,11.999994 0 0 0 0,-23.999988 m 0,1.999999 c 0.345999,0 0.663999,0.028 0.999999,0.062 h 0.25 c 0.106,0.02 0.208,0.046 0.312,0.062 0.288,0.046 0.534,0.117999 0.811999,0.187999 0.514,0.126 1.022,0.298 1.5,0.5 0.264,0.112 0.497999,0.242 0.749999,0.376 v 0.062 c 0.058,0.026 0.09,0.134 0.188,0.188 0.036,0.02 0.028,0.044 0.062,0.062 0.058,0.032 0.136,0.068 0.126,0.124 -0.016,0.08 -0.132,0.064 -0.188,0.124 0.008,0.116 -0.096,0.11 -0.126,0.188 0.018,0.05 0.116,0.066 0.126,0.124 -0.01,0.064 -0.15,0.06 -0.126,0.124 0.108,0.084 0.21,0.02 0.312,0 0.224,-0.028 0.424,-0.02 0.562,-0.124 -0.018,-0.106 0.2,-0.092 0.188,-0.188 0.058,0.042 0.13,0.082 0.188,0.124 -0.022,0.02 -0.038,0.052 -0.062,0.062 -0.042,0.02 -0.086,0.038 -0.126,0.062 l -0.188,0.123999 c -0.046,0.032 -0.14,0.188 -0.188,0.188 -0.058,0 -0.146,-0.074 -0.188,-0.062 -0.06,0.02 -0.058,0.102 -0.126,0.124 -0.132,0.048 -0.392,-0.072 -0.438,0.124 0.056,0.114 0.274,0.062 0.376,0.124 a 0.61999969,0.61999969 0 0 1 0.188,0.25 1.1859994,1.1859994 0 0 1 0,0.376 c -0.062,0.16 -0.254,0.126 -0.438,0.124 h -0.126 c -0.31,-0.02 -0.609999,-0.16 -0.749999,0.062 0.01,0.17 0.038,0.29 0,0.438 -0.028,0.108 -0.194,0.219999 -0.188,0.311999 0.002,0.048 0.114,0.12 0.126,0.188 0.008,0.036 -0.016,0.09 0,0.124 0.052,0.098 0.158,-0.02 0.25,0 0.088,0.02 0.187999,0.152 0.187999,0.25 a 0.51999974,0.51999974 0 0 1 -0.062,0.25 c -0.088,0.132 -0.25,0.116 -0.376,0.188 -0.104,0.06 -0.126,0.21 -0.188,0.312 -0.066,0.112 -0.15,0.152 -0.126,0.312 a 0.73399963,0.73399963 0 0 1 -0.376,0.375999 c -0.054,0.024 -0.138,0.026 -0.188,0.062 -0.04,0.028 -0.068,0.124 -0.126,0.188 -0.07,0.078 -0.15,0.128 -0.188,0.188 -0.028,0.046 -0.032,0.124 -0.062,0.188 -0.044,0.084 -0.132,0.104 -0.188,0.188 -0.026,0.04 -0.034,0.136 -0.062,0.188 -0.064,0.116 -0.135999,0.21 -0.125999,0.312 0.01,0.096 0.119999,0.1 0.125999,0.188 0.006,0.048 -0.064,0.072 -0.062,0.124 0.002,0.076 0.056,0.128 0.062,0.188 0.014,0.147999 -0.096,0.211999 -0.125999,0.311999 -0.014,0.048 0.012,0.086 0,0.124 -0.024,0.074 -0.124,0.162 -0.126,0.25 -0.002,0.062 0.12,0.1 0.126,0.188 0.004,0.058 -0.074,0.132 -0.062,0.188 0.022,0.108 0.227999,0.228 0.311999,0.312 0.114,0.114 0.262,0.192 0.312,0.312 0.042,0.102 0.048,0.298 0.126,0.375999 0.058,0.056 0.176,0.066 0.25,0.124 0.07,0.054 0.114,0.066 0.188,0.124 0.122,0.096 0.306,0.326 0.5,0.312 0.102,-0.02 0.198,-0.106 0.312,-0.124 0.117999,-0.02 0.255999,-0.072 0.375999,-0.062 0.092,0.02 0.216,0.068 0.312,0.062 0.1,-0.02 0.198,-0.02 0.312,-0.062 0.198,-0.086 0.524,-0.23 0.812,-0.188 0.22,0.032 0.222,0.278 0.375999,0.376 0.176,0.02 0.298,-0.034 0.438,0 0.106,0.026 0.24,0.166 0.25,0.25 0.01,0.086 -0.114,0.196 -0.126,0.25 -0.028,0.116 0.02,0.238 0,0.312 -0.016,0.058 -0.064,0.13 -0.062,0.188 0,0.052 0.072,0.182 0.126,0.25 0.066,0.084 0.17,0.16 0.25,0.249999 0.146,0.168 0.21,0.34 0.312,0.562 0.026,0.056 -0.024,0.116 0,0.188 -0.044,0.336 -0.154,0.566 -0.376,0.938 -0.104,0.12 -0.252,0.225999 -0.25,0.375999 -0.008,0.36 0.204,0.59 0.188,0.938 -0.036,0.468 0.036,0.5 0,0.75 0.158,0.08 0.046,0.333999 0,0.499999 -0.068,0.198 -0.15,0.242 -0.188,0.376 0.106,0.046 0.258,0.028 0.376,0 l -0.188,0.188 a 10.447995,10.447995 0 0 1 -1.499999,1.249999 9.879995,9.879995 0 0 1 -3.437998,1.5 9.931995,9.931995 0 0 1 -2.125999,0.188 c -0.38,0 -0.756,-0.02 -1.126,-0.062 -0.294,-0.034 -0.59,-0.066 -0.875999,-0.124 -0.566,-0.116 -1.098,-0.356 -1.626,-0.562 -0.018,-0.034 -0.066,-0.084 -0.062,-0.124 0.104,-0.044 0.3,0.148 0.376,0 0.038,-0.07 -0.05,-0.242 0,-0.312 0.036,-0.048 0.238,-0.048 0.312,-0.062 0.106,-0.02 0.252,-0.034 0.312,-0.062 0.066,-0.042 0.136,-0.19 0.126,-0.312 -0.006,-0.058 -0.08,-0.072 -0.126,-0.124 -0.038,-0.044 0.026,-0.084 0,-0.124 -0.048,-0.07 -0.168,-0.086 -0.188,-0.187999 0.144,-0.028 0.354,0.12 0.562,0.062 0.098,-0.028 0.266,-0.22 0.312,-0.312 0.014,-0.028 -0.016,-0.088 0,-0.124 0.018,-0.036 0.056,-0.106 0.062,-0.124 0.014,-0.054 -0.012,-0.026 0,-0.062 0.036,-0.102 0.128,-0.178 0.188,-0.25 0.046,-0.056 0.145999,-0.13 0.187999,-0.188 0.048,-0.062 0.03,-0.068 0.062,-0.124 0.03,-0.182 -0.106,-0.34 -0.062,-0.5 0.048,-0.18 0.326,-0.291999 0.5,-0.375999 0.06,-0.028 0.138,-0.044 0.188,-0.062 0.12,-0.042 0.264,-0.086 0.376,-0.124 0.188,-0.068 0.22,-0.204 0.312,-0.376 0.044,-0.08 0.116,-0.192 0.126,-0.25 0.008,-0.052 -0.01,-0.064 0,-0.124 0.01,-0.058 -0.016,-0.12 0,-0.188 a 2.079999,2.079999 0 0 0 0.062,-0.376 c 0,-0.08 -0.06,-0.116 -0.062,-0.188 -0.014,-0.259999 0.092,-0.231999 0.188,-0.375999 0.048,-0.07 0.092,-0.2 0.126,-0.25 0.161999,-0.24 0.457999,-0.324 0.437999,-0.688 -0.008,-0.12 -0.1,-0.4 -0.188,-0.438 -0.05,-0.022 -0.114,-0.036 -0.188,-0.062 -0.235999,-0.088 -0.441999,-0.355999 -0.687999,-0.375999 h -0.126 c -0.096,0 -0.204,-0.048 -0.312,-0.062 -0.068,-0.02 -0.21,0.02 -0.25,0 -0.062,-0.03 -0.076,-0.154 -0.126,-0.188 -0.04,-0.028 -0.126,-0.04 -0.188,-0.062 -0.098,-0.036 -0.136,-0.118 -0.25,-0.124 -0.036,0 -0.086,0.02 -0.125999,0 -0.062,-0.02 -0.13,-0.026 -0.188,-0.062 -0.072,-0.044 -0.158,-0.062 -0.188,-0.124 0.066,-0.216 -0.144,-0.25 -0.188,-0.376 -0.02,-0.058 0.02,-0.198 0,-0.25 -0.026,-0.074 -0.106,-0.126 -0.188,-0.188 a 0.74999962,0.74999962 0 0 0 -0.438,-0.188 c -0.092,-0.02 -0.202,0.02 -0.312,0 a 0.71599964,0.71599964 0 0 1 -0.376,-0.188 c -0.084,-0.098 -0.113999,-0.203999 -0.187999,-0.249999 -0.07,-0.044 -0.14,-0.08 -0.188,-0.124 -0.022,-0.02 -0.042,-0.02 -0.062,-0.062 -0.036,-0.074 -0.106,-0.098 -0.062,-0.188 -0.08,-0.04 -0.038,0.076 -0.126,0.062 -0.078,-0.11 -0.136,-0.22 -0.312,-0.188 -0.08,0.02 -0.156,0.186 -0.25,0.188 -0.078,0 -0.148,-0.172 -0.25,-0.188 -0.078,-0.02 -0.196,0.072 -0.25,0.062 -0.086,-0.02 -0.11,-0.072 -0.188,-0.124 -0.058,-0.038 -0.156,-0.126 -0.188,-0.124 -0.1,0 -0.173999,0.198 -0.311999,0.124 -0.068,-0.086 0.142,-0.108 0.062,-0.188 -0.06,-0.058 -0.076,0.034 -0.126,0.062 -0.056,0.036 -0.126,0.04 -0.188,0.062 -0.138,0.052 -0.268,0.068 -0.376,0.124 a 0.37399981,0.37399981 0 0 0 -0.188,0.188 c -0.046,0.084 -0.118,0.246 -0.188,0.25 -0.084,0 -0.112,-0.09 -0.188,-0.124 -0.23,-0.1 -0.372,0.058 -0.561999,0.062 -0.176,0 -0.446,-0.272 -0.438,-0.438 0.006,-0.102 0.05,-0.25 0.062,-0.376 0.01,-0.1 0.124,-0.222 0.126,-0.312 0.002,-0.124 -0.232,-0.174 -0.312,-0.188 -0.188,-0.034 -0.412,0.084 -0.626,0 -0.04,-0.068 0.038,-0.12 0.062,-0.188 0.014,-0.036 -0.014,-0.084 0,-0.124 0.024,-0.064 0.158,-0.119999 0.188,-0.187999 0.022,-0.052 -0.022,-0.122 0,-0.188 0.026,-0.072 0.12,-0.136 0.126,-0.188 0.008,-0.068 -0.072,-0.144 -0.126,-0.188 -0.166,0.02 -0.278,0.02 -0.376,0.062 -0.216,0.098 -0.158,0.37 -0.376,0.438 a 1.8279991,1.8279991 0 0 1 -0.249999,0.062 c -0.036,0.02 -0.084,0 -0.126,0 0.004,-0.02 -0.004,-0.042 0,-0.062 0.01,-0.046 0.052,-0.08 0.062,-0.124 a 9.8399951,9.8399951 0 0 1 0.625999,-1.875999 h 0.062 c 0.076,0.02 0.122,0.12 0.188,0.124 0.184,0.02 0.222,-0.17 0.376,-0.25 0.156,0.022 0.234,-0.02 0.376,0 0.096,0.02 0.236,0.116 0.312,0.124 0.064,0 0.066,-0.07 0.126,-0.062 0.06,0.02 0.177999,0.116 0.187999,0.188 0.01,0.09 -0.088,0.213999 -0.062,0.311999 0.094,0.096 0.304,0.132 0.438,0.188 0.088,-0.074 0.014,-0.208 0,-0.312 -0.002,-0.046 0.006,-0.145999 0,-0.187999 -0.01,-0.072 -0.062,-0.126 -0.062,-0.188 0,-0.286 0.246,-0.388 0.438,-0.5 0.082,-0.048 0.178,-0.152 0.25,-0.188 0.102,-0.05 0.166,-0.02 0.25,-0.062 0.152,-0.086 0.256,-0.216 0.376,-0.312 0.054,-0.13 -0.006,-0.31 0,-0.438 0.054,-0.034 0.13,0 0.187999,0 0.092,-0.02 0.136,-0.136 0.188,-0.188 0.03,-0.03 0.09,-0.032 0.126,-0.062 0.092,-0.072 0.108,-0.156 0.188,-0.188 a 0.52799973,0.52799973 0 0 1 0.126,-0.062 c 0.06,-0.02 0.154,-0.026 0.25,-0.062 0.062,-0.022 0.226,-0.036 0.25,-0.062 0.03,-0.03 -0.008,-0.142 0,-0.188 0.048,-0.226 0.36,-0.236 0.562,-0.312 0.14,-0.052 0.282,-0.216 0.437999,-0.188 -0.03,0.108 -0.15,0.12 -0.126,0.25 0.034,0.182 0.248,-0.036 0.312,-0.062 0.122,-0.052 0.34,-0.128 0.5,-0.188 0.14,-0.05 0.382,-0.088 0.25,-0.25 -0.11,-0.02 -0.154,0.086 -0.25,0.124 -0.066,0.02 -0.068,-0.056 -0.126,-0.062 -0.054,0 -0.072,0.072 -0.126,0.062 -0.054,-0.02 -0.116,-0.122 -0.126,-0.188 -0.022,-0.168 0.12,-0.188 0.188,-0.312 -0.046,-0.152 -0.248,-0.066 -0.376,-0.124 a 0.22599989,0.22599989 0 0 1 0.188,-0.187999 0.73999963,0.73999963 0 0 1 0.376,0.062 c 0.03,0.026 -0.046,0.084 0,0.124 0.052,0.046 0.12,0.02 0.188,0 0.024,-0.114 -0.144,-0.05 -0.126,-0.124 0.136,-0.088 0.396,-0.04 0.562,-0.062 a 1.3539993,1.3539993 0 0 0 0.312,-0.124 c 0.08,-0.046 0.104,-0.138 0.188,-0.062 0.024,0.082 -0.016,0.144 -0.062,0.188 -0.154,0.135999 -0.318,0.279999 -0.438,0.437999 0.074,0.072 0.188,0.048 0.312,0.062 0.048,0.02 0.138,0 0.188,0 0.06,0.02 0.139999,-0.02 0.187999,0 0.084,0.02 0.104,0.188 0.188,0.188 0.136,0 0.078,-0.16 0,-0.25 0.024,-0.094 0.096,-0.184 0.062,-0.25 -0.062,-0.124 -0.3,0.036 -0.312,-0.124 -0.008,-0.1 0.09,-0.111999 0.126,-0.187999 -0.016,-0.192 0.144,-0.202 0.126,-0.376 -0.01,-0.072 -0.076,-0.056 -0.126,-0.124 -0.026,-0.036 -0.032,-0.16 -0.062,-0.188 -0.104,-0.088 -0.299999,-0.02 -0.311999,-0.188 -0.006,-0.1 0.014,-0.206 0,-0.312 -0.014,-0.102 -0.1,-0.418 -0.188,-0.438 -0.112,-0.024 -0.178,0.188 -0.312,0.25 a 0.74999962,0.74999962 0 0 1 -0.312,0.062 c -0.048,-0.02 -0.12,-0.03 -0.126,-0.124 -0.008,-0.084 0.094,-0.122 0.126,-0.188 0.008,-0.02 -0.004,-0.04 0,-0.062 0.146,-0.04 0.29,-0.09 0.438,-0.124 0.084,-0.02 0.166,-0.046 0.25,-0.062 0.06,-0.02 0.128,0.02 0.188,0 a 9.6899951,9.6899951 0 0 1 1.811999,-0.186 z m -4.061998,0.937999 c -0.064,0.366 -0.406,0.51 -0.812,0.5 -0.092,0.088 -0.012,0.252 -0.062,0.376 -0.042,0.102 -0.21,0.196 -0.312,0.188 -0.074,0 -0.188,-0.118 -0.188,-0.188 0,-0.086 0.136,-0.09 0.062,-0.188 0.004,-0.02 0.042,-0.042 0.062,-0.062 0.04,-0.026 0.084,-0.038 0.126,-0.062 0.362,-0.222 0.734,-0.386 1.126,-0.562 m 8.375995,0.374 c -0.036,0.02 -0.03,0.042 -0.062,0.062 -0.076,0.046 -0.129999,0.104 -0.187999,0.124 -0.082,0.03 -0.176,0.05 -0.188,0.124 -0.01,0.062 0.064,0.068 0.062,0.124 -0.03,0.074 -0.046,0.098 -0.062,0.188 0.102,0.166 0.312,-0.036 0.437999,-0.062 0.056,-0.02 0.096,-0.02 0.126,-0.062 0.034,-0.054 0.036,-0.112 0.062,-0.188 0.028,-0.084 0.134,-0.114 0.126,-0.188 -0.008,-0.074 -0.188,-0.134 -0.312,-0.124 m -10.937994,1.251999 c 0.094,0.076 0.228,0.242 0.062,0.312 a 1.0279995,1.0279995 0 0 1 -0.312,0.062 c -0.02,0 -0.046,-0.048 -0.062,-0.062 0.104,-0.1 0.204,-0.216 0.312,-0.312 m 0.376,0.376 c 0.048,0 0.068,0.122 0.126,0.124 0.054,0 0.092,-0.07 0.126,-0.062 0.084,0.022 0.142,0.188 0.062,0.25 -0.066,0.02 -0.076,-0.07 -0.126,-0.062 -0.136,0.024 -0.21,0.32 -0.312,0.312 -0.096,-0.02 -0.16,-0.242 -0.062,-0.312 0.002,-0.06 -0.004,-0.062 0,-0.124 0.03,-0.036 0.108,-0.13 0.188,-0.124 z m -0.5,0.062 c 0.028,0 0.052,-0.02 0.062,0 -0.014,0.106 -0.044,0.138 -0.126,0.188 -0.142,0.086 -0.266,0.192 -0.312,0.376 -0.014,0.054 -0.182,0.2 -0.25,0.188 -0.158,-0.034 0.09,-0.33 0.126,-0.376 0.04,-0.05 0.078,-0.068 0.126,-0.124 0.046,-0.056 0.082,-0.156 0.126,-0.188 a 0.49199975,0.49199975 0 0 1 0.25,-0.062 z m 13.561993,0.312 c 0.158,-0.02 0.24,0.154 0.312,0.25 a 1.2599994,1.2599994 0 0 0 0.312,0.25 c 0.056,0.03 0.126,0.098 0.188,0.124 0.13,0.058 0.37,0.248 0.376,0.375999 0.002,0.064 -0.072,0.128 -0.062,0.188 0.098,0.02 0.186,-0.152 0.188,-0.25 0.183999,0.26 0.341999,0.536 0.499999,0.812 0.076,0.13 0.18,0.24 0.25,0.376 -0.088,0.026 -0.11,0.04 -0.126,0.124 -0.02,0.112 0.044,0.292 -0.126,0.312 -0.106,0.02 -0.23,-0.09 -0.376,-0.124 -0.06,-0.02 -0.139999,0.02 -0.187999,0 -0.11,-0.036 -0.094,-0.184 -0.188,-0.25 a 0.95199952,0.95199952 0 0 0 -0.312,-0.124 c -0.054,0 -0.068,0.02 -0.126,0 -0.068,-0.02 -0.194,0.028 -0.25,0 a 0.64599968,0.64599968 0 0 1 -0.188,-0.188 c -0.022,-0.074 0.184,-0.124 0.188,-0.188 0.004,-0.048 -0.052,-0.114 -0.062,-0.188 -0.008,-0.044 0.01,-0.094 0,-0.124 -0.014,-0.052 -0.106,-0.06 -0.188,-0.062 h -0.751999 c -0.174,0.02 -0.302,-0.02 -0.438,0 -0.098,0 -0.284,0.084 -0.376,0.124 l -0.126,0.062 c -0.028,0.02 -0.09,0.046 -0.126,0.062 -0.056,0.026 -0.134,0.108 -0.188,0.124 -0.078,0.02 -0.17,-0.02 -0.312,0 -0.102,0 -0.248,-0.066 -0.25,-0.188 -0.002,-0.186 0.324,-0.09 0.5,-0.124 0.066,-0.02 0.108,-0.076 0.188,-0.124 0.038,-0.022 0.026,-0.038 0.062,-0.062 0.06,-0.042 0.178,-0.14 0.188,-0.188 0.008,-0.044 -0.006,-0.09 0,-0.123999 0.008,-0.042 0.072,-0.068 0.126,-0.124 0.084,-0.084 0.146,-0.196 0.25,-0.25 0.07,-0.036 0.156,-0.068 0.188,-0.124 0.008,-0.064 -0.002,-0.064 0,-0.124 a 0.26199987,0.26199987 0 0 1 0.126,-0.062 c 0.108,-0.024 0.186,0 0.311999,0 0.054,0 0.13,0.026 0.188,0 0.048,-0.032 0.076,-0.102 0.126,-0.124 a 0.49599975,0.49599975 0 0 1 0.188,-0.062 z m 1.126,1.187999 h -0.25 c -0.088,0 -0.198,-0.046 -0.25,0 0.074,0.12 0.21,0.158 0.376,0.188 a 0.3979998,0.3979998 0 0 0 0.126,-0.188 M 26.877992,26.807998 h 0.187999 c 0.05,0 0.106,-0.02 0.126,0 -0.032,0.132 -0.333999,0.11 -0.437999,0.062 0.006,-0.05 0.062,-0.054 0.126,-0.062 m -0.438,0.25 c -0.088,0.064 -0.174,0.144 -0.312,0.188 -0.076,0.024 -0.174,0.022 -0.188,-0.062 -0.016,-0.104 0.12,-0.052 0.188,-0.062 0.088,-0.02 0.21,-0.058 0.312,-0.062 z m 12.999993,0 c -0.066,0.022 -0.098,0.168 0,0.188 0.046,-0.028 0.074,-0.102 0.062,-0.188 -0.026,-0.028 -0.042,-0.02 -0.062,0 m -0.126,0.312 c 0.002,0.112 0.022,0.216 0,0.311999 0.064,0.124 0.218,0.022 0.25,-0.062 0.038,-0.208 -0.028,-0.276 -0.126,-0.25 -0.032,0.02 -0.092,-0.026 -0.126,0 m -16.561991,4.685997 c 0.112,0.102 0.177999,0.246 0.311999,0.312 a 0.94199953,0.94199953 0 0 0 0.188,0.062 c 0.052,0.02 0.076,-0.02 0.126,0 0.106,0.036 0.228,0.086 0.312,0.124 0.128,0.056 0.264,0.248 0.376,0.312 0.006,0.064 -0.02,0.14 0,0.188 0.052,0.07 0.104,0.14 0.188,0.188 0.102,0.056 0.154,0.144 0.25,0.188 0.034,0.02 0.072,-0.02 0.126,0 0.132,0.04 0.198,0.221999 0.311999,0.187999 0.074,-0.022 0.05,-0.115999 0.062,-0.187999 0.05,-0.054 0.11,-0.124 0.188,-0.124 0.124,0 0.142,0.192 0.188,0.311999 0.026,0.068 0.106,0.116 0.126,0.188 a 1.8819991,1.8819991 0 0 1 0,0.562 c -0.032,0.092 -0.174,0.086 -0.25,0.188 -0.036,0.048 -0.034,0.154 -0.062,0.188 -0.048,0.058 -0.09,0.07 -0.126,0.124 -0.02,0.03 -0.044,0.084 -0.062,0.124 -0.06,0.128 -0.173999,0.222 -0.125999,0.376 0.02,0.062 0.125999,0.114 0.125999,0.188 0,0.088 -0.173999,0.153999 -0.187999,0.249999 -0.01,0.07 0.04,0.156 0.062,0.25 0.016,0.07 0.145999,0.142 0.187999,0.188 0.07,0.078 0.124,0.214 0.188,0.312 0.126,0.194 0.188,0.434 0.312,0.626 0.066,0.098 0.206,0.146 0.25,0.25 0.022,0.052 -0.02,0.14 0,0.187999 0.072,0.162 0.4,0.358 0.562,0.438 0.076,0.038 0.18,0.022 0.25,0.062 0.106,0.06 0.321999,0.22 0.375999,0.312 0.048,0.084 0.038,0.304 0.062,0.438 0.03,0.176 -0.008,0.31 0,0.5 0.006,0.104 0.062,0.146 0.062,0.249999 0,0.036 0.002,0.15 0,0.188 -0.002,0.124 0.01,0.25 0,0.376 a 1.1799994,1.1799994 0 0 0 0,0.188 c 0.006,0.062 0.058,0.07 0.062,0.124 0.004,0.058 -0.068,0.142 -0.062,0.188 0.014,0.126 0.1,0.196 0.126,0.312 0.02,0.092 0.074,0.328 0.062,0.438 -0.008,0.058 -0.054,0.121999 -0.062,0.187999 -0.006,0.052 0.008,0.078 0,0.124 -0.006,0.046 0.012,0.086 0,0.124 l -0.188,-0.124 A 10.447995,10.447995 0 0 1 25.567992,40.49599 c -0.062,-0.062 -0.128,-0.124 -0.188,-0.188 a 10.219995,10.219995 0 0 1 -0.999999,-1.249999 c -0.028,-0.04 -0.036,-0.086 -0.062,-0.124 a 9.6259952,9.6259952 0 0 1 -0.876,-1.625999 c -0.018,-0.042 -0.046,-0.082 -0.062,-0.124 a 10.079995,10.079995 0 0 1 -0.499999,-1.625999 c -0.024,-0.106 -0.042,-0.206 -0.062,-0.312 a 9.935995,9.935995 0 0 1 -0.188,-1.813999 c 0,-0.476 0.06,-0.918 0.126,-1.376 m 3.875998,1.062 c 0.096,-0.044 0.078,0.112 0,0.124 -0.074,0.02 -0.072,-0.088 0,-0.124"
     id="path23-4"
     style="fill:#ffffff;fill-opacity:1;stroke-width:2" />
  <path
     d="M 39.999985,4.0000094 H 15.999997 C 12.675999,4.0000094 10,6.676008 10,10.000006 v 43.999978 c 0,3.323999 2.675999,5.999997 5.999997,5.999997 h 31.999984 c 3.323998,0 5.999997,-2.675998 5.999997,-5.999997 V 18.000002 Z"
     opacity="0.4"
     fill="url(#b)"
     id="path25"
     style="display:inline;fill:url(#b);stroke-width:2" />
  <g
     fill-rule="evenodd"
     id="g31"
     style="display:inline"
     transform="matrix(1.999999,0,0,1.999999,5.6294644e-6,1.1400117e-5)">
    <path
       d="m 404.57,524.8 7,7 v -7 z"
       opacity="0.2"
       fill="url(#c)"
       transform="translate(-384.57,-515.8)"
       id="path27"
       style="display:inline;fill:url(#c)" />
    <path
       d="M 27,9 20,2 v 7 z"
       id="path29"
       style="display:inline;opacity:0.6;fill:#ffffff;fill-opacity:1" />
  </g>
</svg>
