<?xml version="1.0" encoding="UTF-8" standalone="no"?>
<svg
   width="64"
   height="64"
   version="1.1"
   id="svg29"
   sodipodi:docname="application-x-plasma.svg"
   inkscape:version="1.3.2 (1:1.3.2+202311252150+091e20ef0f)"
   xmlns:inkscape="http://www.inkscape.org/namespaces/inkscape"
   xmlns:sodipodi="http://sodipodi.sourceforge.net/DTD/sodipodi-0.dtd"
   xmlns:xlink="http://www.w3.org/1999/xlink"
   xmlns="http://www.w3.org/2000/svg"
   xmlns:svg="http://www.w3.org/2000/svg">
  <style
     type="text/css"
     id="current-color-scheme">
      .ColorScheme-Text {
        color:#232629;
      }
      .ColorScheme-Highlight {
        color:#3daee9;
      }
   </style>
  <sodipodi:namedview
     id="namedview31"
     pagecolor="#ffffff"
     bordercolor="#666666"
     borderopacity="1.0"
     inkscape:pageshadow="2"
     inkscape:pageopacity="0.0"
     inkscape:pagecheckerboard="0"
     showgrid="false"
     inkscape:zoom="9.8125"
     inkscape:cx="-9.2738853"
     inkscape:cy="19.617834"
     inkscape:window-width="3440"
     inkscape:window-height="1356"
     inkscape:window-x="0"
     inkscape:window-y="0"
     inkscape:window-maximized="1"
     inkscape:current-layer="svg29"
     inkscape:showpageshadow="2"
     inkscape:deskcolor="#d1d1d1">
  </sodipodi:namedview>
  <defs
     id="defs13">
    <linearGradient
       id="a"
       y1="392.36"
       y2="365.36"
       x2="0"
       gradientUnits="userSpaceOnUse"
       gradientTransform="translate(309.57 152.44)">
      <stop
         stop-color="#fff"
         stop-opacity="0"
         id="stop2" />
      <stop
         offset="1"
         stop-color="#fff"
         stop-opacity=".2"
         id="stop4" />
    </linearGradient>
    <linearGradient
       id="b"
       y1="17"
       y2="24"
       x1="47"
       x2="54"
       gradientUnits="userSpaceOnUse"
       gradientTransform="matrix(2,0,0,1.999999,-54,-15.999981)">
      <stop
         stop-color="#060606"
         id="stop7" />
      <stop
         offset="1"
         stop-opacity="0"
         id="stop9" />
    </linearGradient>
    <linearGradient
       xlink:href="#a"
       id="c"
       x1="5"
       y1="30"
       x2="5"
       y2="2"
       gradientUnits="userSpaceOnUse"
       gradientTransform="matrix(2,0,0,1.999999,-40,1.15e-5)" />
  </defs>
  <path
     d="M 40,4.0000095 H 16 c -3.324,0 -6,2.6759986 -6,5.9999965 v 43.999978 c 0,3.323999 2.676,5.999997 6,5.999997 h 32 c 3.324,0 6,-2.675998 6,-5.999997 V 18.000002 Z"
     id="path15"
     style="fill:#555555;fill-opacity:1;stroke-width:2" />
  <path
     d="m 16,4.0000095 a 5.98,5.979997 0 0 0 -4.246,1.7539991 c -0.062,0.062 -0.04,0.1799999 -0.1,0.2459999 H 40 v -1.999999 z"
     color="#000000"
     opacity="0.5"
     fill="#ffffff"
     id="path17"
     style="display:inline;stroke-width:2" />
  <path
     d="m 11.652,57.999982 c 0.06,0.066 0.04,0.184 0.102,0.246 A 5.98,5.979997 0 0 0 16,59.999981 h 32 a 5.98,5.979997 0 0 0 4.246,-1.753999 c 0.062,-0.062 0.04,-0.18 0.1,-0.246 H 11.654 Z"
     id="path19"
     class="ColorScheme-Highlight"
     style="display:inline;opacity:1;fill:currentColor;fill-opacity:1;stroke-width:2" />
  <path
     d="M 54,18.000002 40,4.0000095 V 18.000002 Z"
     color="#000000"
     opacity="0.5"
     fill="#ffffff"
     fill-rule="evenodd"
     id="path21"
     style="stroke-width:2" />
  <path
     d="M 40,18.000002 54,31.999995 V 18.000002 Z"
     opacity="0.1"
     fill="url(#b)"
     fill-rule="evenodd"
     id="path23"
     style="fill:url(#b);stroke-width:2" />
  <path
     d="M 40,4.0000093 H 16 c -3.324,0 -6,2.6759988 -6,5.9999967 v 43.999978 c 0,3.323999 2.676,5.999997 6,5.999997 h 32 c 3.324,0 6,-2.675998 6,-5.999997 V 18.000002 Z"
     opacity="0.4"
     fill="url(#c)"
     id="path27"
     style="fill:url(#c);stroke-width:2" />
  <path
     style="line-height:normal;-inkscape-font-specification:Sans;text-indent:0;text-align:start;text-decoration-line:none;text-transform:none;stroke-width:2;marker:none"
     d="m 26.718028,23.26308 a 2,1.999999 0 0 0 -2,1.999999 2,1.999999 0 0 0 2,1.999999 2,1.999999 0 0 0 2,-1.999999 2,1.999999 0 0 0 -2,-1.999999 z m 10,0 -3.876,3.125998 5.188,6.435997 -4.874,4.875997 3.562,3.561999 8,-7.999996 z m -13,7.999996 a 3,2.9999985 0 0 0 -3,2.999998 3,2.9999985 0 0 0 3,2.999999 3,2.9999985 0 0 0 3,-2.999999 3,2.9999985 0 0 0 -3,-2.999998 z m 6,9.999995 a 3,2.9999985 0 0 0 -3,2.999998 3,2.9999985 0 0 0 3,2.999999 3,2.9999985 0 0 0 3,-2.999999 3,2.9999985 0 0 0 -3,-2.999998 z"
     color="#000000"
     font-weight="400"
     font-family="Sans"
     overflow="visible"
     opacity="0.7"
     id="path28" />
</svg>
