<?xml version="1.0" encoding="UTF-8" standalone="no"?>
<svg
   width="64"
   height="64"
   version="1.1"
   id="svg29"
   sodipodi:docname="application-dicom.svg"
   inkscape:version="1.3.2 (1:1.3.2+202311252150+091e20ef0f)"
   viewBox="0 0 64 64"
   xmlns:inkscape="http://www.inkscape.org/namespaces/inkscape"
   xmlns:sodipodi="http://sodipodi.sourceforge.net/DTD/sodipodi-0.dtd"
   xmlns:xlink="http://www.w3.org/1999/xlink"
   xmlns="http://www.w3.org/2000/svg"
   xmlns:svg="http://www.w3.org/2000/svg">
  <style
     type="text/css"
     id="current-color-scheme">
      .ColorScheme-Text {
        color:#232629;
      }
      .ColorScheme-Highlight {
        color:#3daee9;
      }
   </style>
  <sodipodi:namedview
     id="namedview31"
     pagecolor="#ffffff"
     bordercolor="#666666"
     borderopacity="1.0"
     inkscape:pageshadow="2"
     inkscape:pageopacity="0.0"
     inkscape:pagecheckerboard="0"
     showgrid="false"
     inkscape:zoom="7.44"
     inkscape:cx="22.244624"
     inkscape:cy="21.841398"
     inkscape:window-width="1920"
     inkscape:window-height="996"
     inkscape:window-x="0"
     inkscape:window-y="0"
     inkscape:window-maximized="1"
     inkscape:current-layer="svg29"
     inkscape:showpageshadow="2"
     inkscape:deskcolor="#d1d1d1">
  </sodipodi:namedview>
  <defs
     id="defs13">
    <linearGradient
       id="a"
       y1="392.35999"
       y2="365.35999"
       x2="0"
       gradientUnits="userSpaceOnUse"
       gradientTransform="translate(309.57,152.44)">
      <stop
         stop-color="#fff"
         stop-opacity="0"
         id="stop2" />
      <stop
         offset="1"
         stop-color="#fff"
         stop-opacity=".2"
         id="stop4" />
    </linearGradient>
    <linearGradient
       id="b"
       y1="17"
       y2="24"
       x1="47"
       x2="54"
       gradientUnits="userSpaceOnUse"
       gradientTransform="matrix(2,0,0,1.999999,-54,-15.999981)">
      <stop
         stop-color="#060606"
         id="stop7" />
      <stop
         offset="1"
         stop-opacity="0"
         id="stop9" />
    </linearGradient>
    <linearGradient
       xlink:href="#a"
       id="c"
       x1="5"
       y1="30"
       x2="5"
       y2="2"
       gradientUnits="userSpaceOnUse"
       gradientTransform="matrix(2,0,0,1.999999,-40,1.15e-5)" />
  </defs>
  <path
     d="M 40,4.0000095 H 16 c -3.324,0 -6,2.6759992 -6,5.9999975 v 43.999977 c 0,3.323999 2.676,5.999997 6,5.999997 h 32 c 3.324,0 6,-2.675998 6,-5.999997 V 18.000002 Z"
     id="path15"
     style="fill:#555555;fill-opacity:1;stroke-width:2" />
  <path
     d="m 16,4.0000095 a 5.98,5.979997 0 0 0 -4.246,1.7539997 c -0.062,0.062 -0.04,0.1799999 -0.1,0.2459999 H 40 V 4.0000095 Z"
     color="#000000"
     opacity="0.5"
     fill="#ffffff"
     id="path17"
     style="display:inline;stroke-width:2" />
  <path
     d="m 11.652,57.999982 c 0.06,0.066 0.04,0.184 0.102,0.246 A 5.98,5.979997 0 0 0 16,59.999981 h 32 a 5.98,5.979997 0 0 0 4.246,-1.753999 c 0.062,-0.062 0.04,-0.18 0.1,-0.246 H 11.654 Z"
     id="path19"
     class="ColorScheme-Highlight"
     style="display:inline;opacity:1;fill:currentColor;fill-opacity:1;stroke-width:2" />
  <path
     d="M 54,18.000002 40,4.0000095 V 18.000002 Z"
     color="#000000"
     opacity="0.5"
     fill="#ffffff"
     fill-rule="evenodd"
     id="path21"
     style="stroke-width:2" />
  <path
     d="M 40,18.000002 54,31.999995 V 18.000002 Z"
     opacity="0.1"
     fill="url(#b)"
     fill-rule="evenodd"
     id="path23"
     style="fill:url(#b);stroke-width:2" />
  <path
     d="M 40,4.0000093 H 16 c -3.324,0 -6,2.6759994 -6,5.9999977 v 43.999977 c 0,3.323999 2.676,5.999997 6,5.999997 h 32 c 3.324,0 6,-2.675998 6,-5.999997 V 18.000002 Z"
     opacity="0.4"
     fill="url(#c)"
     id="path27"
     style="fill:url(#c);stroke-width:2" />
  <path
     d="m 30.47356,20.368193 c -1.362,0 -3.138,0.774 -4.762,2.065999 a 2.738,2.7379986 0 0 0 -1.464,3.531998 3.656,3.6559982 0 0 0 -2.794,4.671998 3.65,3.6499982 0 0 0 -0.441998,4.671998 3.66,3.6599982 0 0 0 1.227998,5.265997 4.12,4.1199979 0 0 0 2.836,4.413998 4.106,4.1059979 0 0 0 3.554,2.039999 4.12,4.1199979 0 0 0 3.684,-2.285999 4.128,4.1279979 0 0 0 3.688,2.285999 4.1,4.0999979 0 0 0 3.55,-2.039999 4.124,4.1239979 0 0 0 2.84,-4.413998 3.66,3.6599982 0 0 0 1.228,-5.265997 3.65,3.6499982 0 0 0 -0.442,-4.671998 3.656,3.6559982 0 0 0 -2.794,-4.671998 2.74,2.7399986 0 0 0 -1.464,-3.531998 c -1.624,-1.291999 -3.4,-2.065999 -4.762,-2.065999 -0.758,0 -1.43,0.374 -1.844,0.946 a 2.272,2.2719989 0 0 0 -1.84,-0.946 m 0,0.864 c 0.778,0 1.41,0.635999 1.41,1.413999 v 5.585997 a 2.26,2.2599989 0 0 0 -1.41,-0.492 0.43200022,0.432 0 1 0 0,0.864 c 0.778,0 1.41,0.632 1.41,1.409999 v 10.381995 a 4.12,4.1199979 0 0 0 -2.184,-1.457999 0.434,0.43399978 0 0 0 -0.532,0.304 0.434,0.43399978 0 0 0 0.304,0.531999 3.256,3.2559984 0 0 1 2.41,3.135999 c 0,1.793999 -1.46,3.253998 -3.254,3.253998 a 3.246,3.2459984 0 0 1 -2.878,-1.741999 0.426,0.42599979 0 0 0 -0.27,-0.214 3.258,3.2579984 0 0 1 -2.344,-3.791998 0.432,0.43199978 0 0 0 -0.246,-0.48 2.796,2.7959986 0 0 1 -1.282,-3.951998 3.64,3.6399982 0 0 0 2.414,0.914 0.43200022,0.432 0 0 0 0,-0.864 2.796,2.7959986 0 0 1 -1.788,-4.935997 0.426,0.42599979 0 0 0 0.12,-0.492 2.796,2.7959986 0 0 1 2.588,-3.841998 c 1.54,0 2.792,1.253999 2.792,2.791998 a 0.432,0.43199978 0 1 0 0.864,0 c 0,-1.937999 -1.514,-3.521998 -3.422,-3.643998 a 1.872,1.8719991 0 1 1 3.292,-1.777999 0.43161329,0.43161307 0 0 0 0.778,-0.374 2.76,2.7599986 0 0 0 -1.832,-1.467999 c 1.102,-0.672 2.188,-1.053999 3.054,-1.053999 m 3.684,0 c 0.866,0 1.952,0.381999 3.054,1.053999 a 2.766,2.7659986 0 0 0 -1.832,1.467999 0.43,0.42999978 0 0 0 0.2,0.574 0.434,0.43399978 0 0 0 0.578,-0.2 1.86,1.8599991 0 0 1 2.422,-0.899999 1.874,1.8739991 0 0 1 0.87,2.677998 3.66,3.6599982 0 0 0 -3.422,3.643998 c 0,0.238 0.196,0.434 0.434,0.434 a 0.432,0.43199978 0 0 0 0.43,-0.434 c 0,-1.539999 1.254,-2.791998 2.792,-2.791998 a 2.796,2.7959986 0 0 1 2.584,3.841998 0.428,0.42799979 0 0 0 0.126,0.492 2.796,2.7959986 0 0 1 -1.788,4.935997 0.432,0.43199978 0 0 0 -0.434,0.43 c 0,0.238 0.196,0.434 0.434,0.434 a 3.64,3.6399982 0 0 0 2.414,-0.914 2.794,2.7939986 0 0 1 -1.282,3.951998 0.432,0.43199978 0 0 0 -0.25,0.48 3.258,3.2579984 0 0 1 -2.34,3.791998 0.434,0.43399978 0 0 0 -0.27,0.214 3.248,3.2479984 0 0 1 -2.878,1.741999 c -1.794,0 -3.254,-1.459999 -3.254,-3.253998 0,-0.122 -0.006,-0.24 -0.016,-0.36 a 0.442,0.44199978 0 0 0 0.016,-0.118 V 28.170189 c 0,-0.777999 0.632,-1.413999 1.41,-1.413999 a 0.432,0.43199978 0 0 0 0.434,-0.43 0.436,0.43599978 0 0 0 -0.434,-0.434 2.26,2.2599989 0 0 0 -1.41,0.492 v -3.741998 c 0,-0.778 0.632,-1.413999 1.41,-1.413999 m 6.45,7.429996 a 0.432,0.43199978 0 0 0 -0.434,0.43 2.792,2.7919986 0 0 1 -4.786,1.955999 0.432,0.43199978 0 0 0 -0.618,0.601999 c 0.598,0.612 1.372,0.988 2.21,1.078 a 2.738,2.7379986 0 0 0 2.704,2.323999 0.432,0.43199978 0 0 0 0.434,-0.43 0.436,0.43599978 0 0 0 -0.434,-0.434 1.876,1.8759991 0 0 1 -1.828,-1.471999 3.664,3.6639982 0 0 0 3.184,-3.625998 0.432,0.43199978 0 0 0 -0.434,-0.43 m -15.66,0.462 a 0.432,0.43199978 0 0 0 -0.434,0.429999 c 0,1.854 1.39,3.389999 3.18,3.625999 a 1.872,1.8719991 0 0 1 -1.824,1.471999 0.432,0.43199978 0 0 0 -0.434,0.43 c 0,0.238 0.196,0.433999 0.434,0.433999 a 2.74,2.7399986 0 0 0 2.704,-2.323998 3.616,3.6159982 0 0 0 2.21,-1.078 0.432,0.43199978 0 0 0 -0.618,-0.601999 2.796,2.7959986 0 0 1 -4.788,-1.956 0.43,0.42999978 0 0 0 -0.43,-0.429999 m 9.212,6.449996 a 0.43200022,0.432 0 0 0 0,0.864 2.796,2.7959986 0 0 1 2.776,3.083998 3.664,3.6639982 0 0 0 -2.29,3.389999 0.432,0.43199978 0 1 0 0.864,0 c 0,-1.539999 1.254,-2.791999 2.792,-2.791999 a 0.432,0.43199978 0 0 0 0.434,-0.43 0.436,0.43599978 0 0 0 -0.434,-0.433999 c -0.166,0 -0.328,0.014 -0.488,0.036 v -0.062 c 0,-2.019999 -1.64,-3.655999 -3.656,-3.655999 m -5.066,0.922 c -2.02,0 -3.656,1.635999 -3.656,3.651998 v 0.066 a 3.57,3.5699982 0 0 0 -0.488,-0.036 0.432,0.43199978 0 0 0 -0.434,0.43 c 0,0.238 0.196,0.434 0.434,0.434 1.54,0 2.792,1.253999 2.792,2.791998 a 0.432,0.43199978 0 0 0 0.864,0 c 0,-1.531999 -0.95,-2.847998 -2.29,-3.389998 a 2.796,2.7959986 0 0 1 2.776,-3.083998 0.432,0.43199978 0 0 0 0.43,-0.434 h 0.004 a 0.432,0.43199978 0 0 0 -0.434,-0.43"
     opacity="0.75"
     fill="#fbfbfb"
     id="path28"
     style="display:inline;stroke-width:2" />
</svg>
