<?xml version="1.0" encoding="UTF-8" standalone="no"?>
<svg
   width="64"
   height="64"
   version="1.1"
   id="svg29"
   sodipodi:docname="application-vnd.appimage.svg"
   inkscape:version="1.3.2 (1:1.3.2+202311252150+091e20ef0f)"
   xmlns:inkscape="http://www.inkscape.org/namespaces/inkscape"
   xmlns:sodipodi="http://sodipodi.sourceforge.net/DTD/sodipodi-0.dtd"
   xmlns:xlink="http://www.w3.org/1999/xlink"
   xmlns="http://www.w3.org/2000/svg"
   xmlns:svg="http://www.w3.org/2000/svg">
  <style
     type="text/css"
     id="current-color-scheme">
      .ColorScheme-Text {
        color:#232629;
      }
      .ColorScheme-Highlight {
        color:#3daee9;
      }
   </style>
  <sodipodi:namedview
     id="namedview31"
     pagecolor="#ffffff"
     bordercolor="#666666"
     borderopacity="1.0"
     inkscape:pageshadow="2"
     inkscape:pageopacity="0.0"
     inkscape:pagecheckerboard="0"
     showgrid="false"
     inkscape:zoom="10.51"
     inkscape:cx="-0.95147479"
     inkscape:cy="15.937203"
     inkscape:window-width="3440"
     inkscape:window-height="1356"
     inkscape:window-x="0"
     inkscape:window-y="0"
     inkscape:window-maximized="1"
     inkscape:current-layer="svg29"
     inkscape:showpageshadow="2"
     inkscape:deskcolor="#d1d1d1">
  </sodipodi:namedview>
  <defs
     id="defs13">
    <linearGradient
       id="a"
       y1="392.36"
       y2="365.36"
       x2="0"
       gradientUnits="userSpaceOnUse"
       gradientTransform="translate(309.57 152.44)">
      <stop
         stop-color="#fff"
         stop-opacity="0"
         id="stop2" />
      <stop
         offset="1"
         stop-color="#fff"
         stop-opacity=".2"
         id="stop4" />
    </linearGradient>
    <linearGradient
       id="b"
       y1="17"
       y2="24"
       x1="47"
       x2="54"
       gradientUnits="userSpaceOnUse"
       gradientTransform="matrix(2,0,0,1.999999,-54,-15.999981)">
      <stop
         stop-color="#060606"
         id="stop7" />
      <stop
         offset="1"
         stop-opacity="0"
         id="stop9" />
    </linearGradient>
    <linearGradient
       xlink:href="#a"
       id="c"
       x1="5"
       y1="30"
       x2="5"
       y2="2"
       gradientUnits="userSpaceOnUse"
       gradientTransform="matrix(2,0,0,1.999999,-40,1.15e-5)" />
  </defs>
  <path
     d="M 40,4.0000095 H 16 c -3.324,0 -6,2.6759986 -6,5.9999965 v 43.999978 c 0,3.323999 2.676,5.999997 6,5.999997 h 32 c 3.324,0 6,-2.675998 6,-5.999997 V 18.000002 Z"
     id="path15"
     style="fill:#555555;fill-opacity:1;stroke-width:2" />
  <path
     d="m 16,4.0000095 a 5.98,5.979997 0 0 0 -4.246,1.7539991 c -0.062,0.062 -0.04,0.1799999 -0.1,0.2459999 H 40 v -1.999999 z"
     color="#000000"
     opacity="0.5"
     fill="#ffffff"
     id="path17"
     style="display:inline;stroke-width:2" />
  <path
     d="m 11.652,57.999982 c 0.06,0.066 0.04,0.184 0.102,0.246 A 5.98,5.979997 0 0 0 16,59.999981 h 32 a 5.98,5.979997 0 0 0 4.246,-1.753999 c 0.062,-0.062 0.04,-0.18 0.1,-0.246 H 11.654 Z"
     id="path19"
     class="ColorScheme-Highlight"
     style="display:inline;opacity:1;fill:currentColor;fill-opacity:1;stroke-width:2" />
  <path
     d="M 54,18.000002 40,4.0000095 V 18.000002 Z"
     color="#000000"
     opacity="0.5"
     fill="#ffffff"
     fill-rule="evenodd"
     id="path21"
     style="stroke-width:2" />
  <path
     d="M 40,18.000002 54,31.999995 V 18.000002 Z"
     opacity="0.1"
     fill="url(#b)"
     fill-rule="evenodd"
     id="path23"
     style="fill:url(#b);stroke-width:2" />
  <path
     d="M 40,4.0000093 H 16 c -3.324,0 -6,2.6759988 -6,5.9999967 v 43.999978 c 0,3.323999 2.676,5.999997 6,5.999997 h 32 c 3.324,0 6,-2.675998 6,-5.999997 V 18.000002 Z"
     opacity="0.4"
     fill="url(#c)"
     id="path27"
     style="fill:url(#c);stroke-width:2" />
  <g
     id="g839"
     transform="matrix(2,0,0,1.999999,-0.2150562,-0.74283773)"
     style="opacity:0.75">
    <path
       style="marker:none"
       d="m 15.185748,12.371842 v 1.8 h -0.956 l 1.856,2.1 1.856,-2.1 h -0.956 v -1.8 z"
       overflow="visible"
       fill="#ffffff"
       fill-opacity="0.75"
       id="path17-9" />
    <rect
       y="11.633842"
       x="10.557748"
       ry="0.63300002"
       rx="0.63300002"
       height="11.055"
       width="11.055"
       fill="none"
       stroke="#ffffff"
       stroke-width="0.945"
       stroke-linecap="round"
       stroke-linejoin="round"
       stroke-opacity="0.75"
       id="rect19"
       style="display:inline" />
    <path
       d="m 15.757748,16.571842 c -0.052,0 -0.084,0.088 -0.084,0.197 v 0.684 a 1.87,1.87 0 0 0 -0.582,0.244 l -0.487,-0.488 c -0.077,-0.076 -0.16,-0.111 -0.197,-0.075 l -0.46,0.46 c -0.036,0.036 -0.001,0.12 0.076,0.196 l 0.487,0.488 a 1.87,1.87 0 0 0 -0.244,0.581 h -0.684 c -0.109,0 -0.197,0.033 -0.197,0.085 v 0.656 c 0,0.052 0.088,0.084 0.197,0.084 h 0.684 c 0.048,0.21 0.133,0.406 0.244,0.582 l -0.487,0.487 c -0.077,0.077 -0.112,0.16 -0.075,0.197 l 0.459,0.46 c 0.037,0.036 0.12,10e-4 0.197,-0.076 l 0.487,-0.487 c 0.176,0.11 0.373,0.196 0.582,0.244 v 0.684 c 0,0.108 0.032,0.197 0.084,0.197 h 0.656 c 0.052,0 0.085,-0.089 0.085,-0.197 v -0.684 a 1.87,1.87 0 0 0 0.58,-0.244 l 0.488,0.487 c 0.077,0.077 0.16,0.112 0.197,0.075 l 0.46,-0.46 c 0.036,-0.036 0.001,-0.12 -0.075,-0.196 l -0.488,-0.487 a 1.87,1.87 0 0 0 0.244,-0.582 h 0.684 c 0.109,0 0.197,-0.032 0.197,-0.084 v -0.656 c 0,-0.052 -0.088,-0.085 -0.197,-0.085 h -0.684 a 1.87,1.87 0 0 0 -0.244,-0.581 l 0.487,-0.488 c 0.077,-0.076 0.112,-0.16 0.075,-0.196 l -0.459,-0.46 c -0.037,-0.036 -0.12,-0.001 -0.197,0.075 l -0.487,0.488 a 1.87,1.87 0 0 0 -0.582,-0.244 v -0.684 c 0,-0.109 -0.032,-0.197 -0.084,-0.197 z m 0.328,1.865 c 0.459,0 0.834,0.376 0.834,0.835 a 0.837,0.837 0 0 1 -0.834,0.834 0.837,0.837 0 0 1 -0.834,-0.834 c 0,-0.459 0.375,-0.835 0.834,-0.835 z"
       style="display:inline;marker:none"
       overflow="visible"
       fill="#ffffff"
       fill-opacity="0.75"
       id="path21-4" />
  </g>
</svg>
