<?xml version="1.0" encoding="UTF-8" standalone="no"?>
<svg
   width="64"
   height="64"
   version="1.1"
   id="svg29"
   sodipodi:docname="application-vnd.visio.svg"
   inkscape:version="1.3.2 (1:1.3.2+202311252150+091e20ef0f)"
   xmlns:inkscape="http://www.inkscape.org/namespaces/inkscape"
   xmlns:sodipodi="http://sodipodi.sourceforge.net/DTD/sodipodi-0.dtd"
   xmlns:xlink="http://www.w3.org/1999/xlink"
   xmlns="http://www.w3.org/2000/svg"
   xmlns:svg="http://www.w3.org/2000/svg">
  <style
     type="text/css"
     id="current-color-scheme">
      .ColorScheme-Text {
        color:#232629;
      }
      .ColorScheme-Highlight {
        color:#3daee9;
      }
   </style>
  <sodipodi:namedview
     id="namedview31"
     pagecolor="#ffffff"
     bordercolor="#666666"
     borderopacity="1.0"
     inkscape:pageshadow="2"
     inkscape:pageopacity="0.0"
     inkscape:pagecheckerboard="0"
     showgrid="false"
     inkscape:zoom="6.9384853"
     inkscape:cx="-17.438965"
     inkscape:cy="22.122984"
     inkscape:window-width="3440"
     inkscape:window-height="1356"
     inkscape:window-x="0"
     inkscape:window-y="0"
     inkscape:window-maximized="1"
     inkscape:current-layer="svg29"
     inkscape:showpageshadow="2"
     inkscape:deskcolor="#d1d1d1">
  </sodipodi:namedview>
  <defs
     id="defs13">
    <linearGradient
       id="a"
       y1="392.36"
       y2="365.36"
       x2="0"
       gradientUnits="userSpaceOnUse"
       gradientTransform="translate(309.57 152.44)">
      <stop
         stop-color="#fff"
         stop-opacity="0"
         id="stop2" />
      <stop
         offset="1"
         stop-color="#fff"
         stop-opacity=".2"
         id="stop4" />
    </linearGradient>
    <linearGradient
       id="b"
       y1="17"
       y2="24"
       x1="47"
       x2="54"
       gradientUnits="userSpaceOnUse"
       gradientTransform="matrix(1.999999,0,0,1.999999,-53.999968,-15.999981)">
      <stop
         stop-color="#060606"
         id="stop7" />
      <stop
         offset="1"
         stop-opacity="0"
         id="stop9" />
    </linearGradient>
    <linearGradient
       xlink:href="#a"
       id="c"
       x1="5"
       y1="30"
       x2="5"
       y2="2"
       gradientUnits="userSpaceOnUse"
       gradientTransform="matrix(1.999999,0,0,1.999999,-39.999975,1.15e-5)" />
  </defs>
  <path
     d="M 39.999985,4.0000095 H 15.999997 C 12.675999,4.0000095 10,6.6760081 10,10.000006 v 43.999978 c 0,3.323999 2.675999,5.999997 5.999997,5.999997 h 31.999984 c 3.323998,0 5.999997,-2.675998 5.999997,-5.999997 V 18.000002 Z"
     id="path15"
     style="fill:#555555;fill-opacity:1;stroke-width:2" />
  <path
     d="m 15.999997,4.0000095 a 5.979997,5.979997 0 0 0 -4.245998,1.7539991 c -0.062,0.062 -0.04,0.1799999 -0.1,0.2459999 h 28.345986 v -1.999999 z"
     color="#000000"
     opacity="0.5"
     fill="#ffffff"
     id="path17"
     style="display:inline;stroke-width:2" />
  <path
     d="m 11.651999,57.999982 c 0.06,0.066 0.04,0.184 0.102,0.246 a 5.979997,5.979997 0 0 0 4.245998,1.753999 h 31.999984 a 5.979997,5.979997 0 0 0 4.245998,-1.753999 c 0.062,-0.062 0.04,-0.18 0.1,-0.246 h -40.69198 z"
     id="path19"
     class="ColorScheme-Highlight"
     style="display:inline;opacity:1;fill:currentColor;fill-opacity:1;stroke-width:2" />
  <path
     d="M 53.999978,18.000002 39.999985,4.0000095 V 18.000002 Z"
     color="#000000"
     opacity="0.5"
     fill="#ffffff"
     fill-rule="evenodd"
     id="path21"
     style="stroke-width:2" />
  <path
     d="M 39.999985,18.000002 53.999978,31.999995 V 18.000002 Z"
     opacity="0.1"
     fill="url(#b)"
     fill-rule="evenodd"
     id="path23"
     style="fill:url(#b);stroke-width:2" />
  <path
     d="M 39.999985,4.0000093 H 15.999997 C 12.675999,4.0000093 10,6.6760081 10,10.000006 v 43.999978 c 0,3.323999 2.675999,5.999997 5.999997,5.999997 h 31.999984 c 3.323998,0 5.999997,-2.675998 5.999997,-5.999997 V 18.000002 Z"
     opacity="0.4"
     fill="url(#c)"
     id="path27"
     style="fill:url(#c);stroke-width:2" />
  <path
     d="m 39.753841,22.251114 -3.241998,3.241999 h -9.933995 a 2.9999985,2.9999985 0 0 0 -2.823999,-1.999999 2.9999985,2.9999985 0 0 0 -2.999998,2.999998 2.9999985,2.9999985 0 0 0 1.999999,2.823999 v 14.175992 h 5.999997 v 1.999999 h 5.999997 v -1.999999 h 5.999997 V 29.73511 l 3.239998,-3.239998 z m 0,2.827999 1.413999,1.413999 -1.413999,1.413999 -1.413999,-1.413999 z m -15.999992,0.414 a 0.9999995,0.9999995 0 0 1 1,0.999999 0.9999995,0.9999995 0 0 1 -1,1 0.9999995,0.9999995 0 0 1 -0.999999,-1 0.9999995,0.9999995 0 0 1 0.999999,-0.999999 m 2.823999,1.999999 h 9.933995 l 2.241999,2.241998 v 11.757994 h -3.999998 v -1.999998 h -5.999997 v 1.999998 H 24.753849 V 29.317111 a 2.9999985,2.9999985 0 0 0 1.823999,-1.823999 m 4.175998,13.997992 h 1.999999 v 1.999999 h -1.999999 z"
     opacity="0.75"
     fill="#ffffff"
     id="path29"
     style="stroke-width:2" />
</svg>
