<?xml version="1.0" encoding="UTF-8" standalone="no"?>
<svg
   width="64"
   version="1.1"
   height="64"
   id="svg13"
   sodipodi:docname="application-x-deb.svg"
   inkscape:version="1.3.2 (1:1.3.2+202311252150+091e20ef0f)"
   viewBox="0 0 64 64"
   xmlns:inkscape="http://www.inkscape.org/namespaces/inkscape"
   xmlns:sodipodi="http://sodipodi.sourceforge.net/DTD/sodipodi-0.dtd"
   xmlns:xlink="http://www.w3.org/1999/xlink"
   xmlns="http://www.w3.org/2000/svg"
   xmlns:svg="http://www.w3.org/2000/svg"
   xmlns:rdf="http://www.w3.org/1999/02/22-rdf-syntax-ns#"
   xmlns:cc="http://creativecommons.org/ns#"
   xmlns:dc="http://purl.org/dc/elements/1.1/">
  <style
     type="text/css"
     id="current-color-scheme">
      .ColorScheme-Text {
        color:#232629;
      }
      .ColorScheme-Highlight {
        color:#3daee9;
      }
   </style>
  <metadata
     id="metadata17">
    <rdf:RDF>
      <cc:Work
         rdf:about="">
        <dc:format>image/svg+xml</dc:format>
        <dc:type
           rdf:resource="http://purl.org/dc/dcmitype/StillImage" />
      </cc:Work>
    </rdf:RDF>
  </metadata>
  <sodipodi:namedview
     pagecolor="#ffffff"
     bordercolor="#666666"
     borderopacity="1"
     objecttolerance="10"
     gridtolerance="10"
     guidetolerance="10"
     inkscape:pageopacity="0"
     inkscape:pageshadow="2"
     inkscape:window-width="1920"
     inkscape:window-height="996"
     id="namedview15"
     showgrid="false"
     inkscape:zoom="8.26"
     inkscape:cx="36.016949"
     inkscape:cy="34.68523"
     inkscape:window-x="0"
     inkscape:window-y="0"
     inkscape:window-maximized="1"
     inkscape:current-layer="g887"
     inkscape:pagecheckerboard="0"
     inkscape:showpageshadow="2"
     inkscape:deskcolor="#d1d1d1">
  </sodipodi:namedview>
  <defs
     id="defs5455">
    <linearGradient
       inkscape:collect="always"
       xlink:href="#linearGradient6251"
       id="linearGradient5849-3"
       gradientUnits="userSpaceOnUse"
       gradientTransform="matrix(0.95999914,0,0,0.81203771,340.73136,255.4135)"
       y1="394.54437"
       x2="0"
       y2="335.43387" />
    <linearGradient
       inkscape:collect="always"
       id="linearGradient6251">
      <stop
         style="stop-color:#ffffff;stop-opacity:0"
         offset="0"
         id="stop6253" />
      <stop
         style="stop-color:#ffffff;stop-opacity:0.2"
         offset="1"
         id="stop6255" />
    </linearGradient>
  </defs>
  <g
     inkscape:label="Capa 1"
     inkscape:groupmode="layer"
     id="layer1"
     transform="translate(-384.57143,-515.798)">
    <g
       id="g887">
      <rect
         style="color:#000000;isolation:auto;mix-blend-mode:normal;color-interpolation:sRGB;color-interpolation-filters:linearRGB;solid-color:#000000;solid-opacity:1;fill:#414141;fill-opacity:1;stroke-width:2;color-rendering:auto;image-rendering:auto;shape-rendering:auto"
         ry="5.1960349"
         isolation="auto"
         mix-blend-mode="normal"
         id="rect5837-5"
         width="47.999935"
         height="47.999935"
         x="392.57147"
         y="527.79797" />
      <path
         shape-rendering="auto"
         solid-opacity="1"
         color-interpolation="sRGB"
         stroke-linecap="square"
         isolation="auto"
         stroke-width="4"
         color-rendering="auto"
         image-rendering="auto"
         color-interpolation-filters="linearRGB"
         opacity="0.9"
         solid-color="#000000"
         mix-blend-mode="normal"
         id="path5843"
         class="ColorScheme-Highlight"
         d="m 426.10506,529.79826 v 2 h 2 v -2 z m 2,2 v 2 h 2 v -2 z m 0,2 h -2 v 2 h 2 z m 0,2 v 2 h 2 v -2 z m 0,2 h -2 v 2 h 2 z m 0,2 v 1.99999 h 2 v -1.99999 z m 0,1.99999 h -2 v 1.12108 2.87892 h 4 v -2 h -2 z"
         inkscape:connector-curvature="0"
         style="fill:currentColor;fill-opacity:1" />
      <rect
         ry="5.1009159"
         style="color:#000000;display:inline;isolation:auto;mix-blend-mode:normal;color-interpolation:sRGB;color-interpolation-filters:linearRGB;solid-color:#000000;solid-opacity:1;fill:url(#linearGradient5849-3);stroke-width:2;color-rendering:auto;image-rendering:auto;shape-rendering:auto"
         isolation="auto"
         mix-blend-mode="normal"
         y="527.79797"
         x="392.57147"
         height="47.999958"
         width="47.999958"
         id="rect5847-5" />
      <path
         inkscape:connector-curvature="0"
         id="path850"
         d="m 397.76673,527.79815 c -2.87862,0 -5.19532,2.31669 -5.19532,5.19531 v 1.64842 c 0,-2.8786 2.3167,-5.1953 5.19532,-5.1953 h 37.60932 c 2.87862,0 5.19532,2.3167 5.19532,5.1953 v -1.64842 c 0,-2.87862 -2.3167,-5.19531 -5.19532,-5.19531 z"
         style="color:#000000;opacity:0.5;isolation:auto;mix-blend-mode:normal;color-interpolation:sRGB;color-interpolation-filters:linearRGB;solid-color:#000000;solid-opacity:1;fill:#ffffff;stroke-width:2;color-rendering:auto;image-rendering:auto;shape-rendering:auto" />
      <path
         inkscape:connector-curvature="0"
         id="rect5837-3"
         d="m 392.57141,568.94685 v 1.64454 c 0,2.8786 2.3167,5.19921 5.19532,5.19921 h 37.60932 c 2.87862,0 5.19532,-2.32061 5.19532,-5.19921 v -1.64454 c 0,2.87862 -2.3167,5.19531 -5.19532,5.19531 h -37.60932 c -2.87862,0 -5.19532,-2.31669 -5.19532,-5.19531 z"
         style="color:#000000;opacity:0.3;isolation:auto;mix-blend-mode:normal;color-interpolation:sRGB;color-interpolation-filters:linearRGB;solid-color:#000000;solid-opacity:1;fill:#000000;fill-opacity:1;stroke-width:2;color-rendering:auto;image-rendering:auto;shape-rendering:auto" />
      <path
         fill="#ffffff"
         opacity="0.75"
         d="m 407.10702,573.05259 c -1.31136,-0.21462 -3.19112,-0.9441 -4.35572,-1.69018 -2.55774,-1.63896 -4.22814,-3.45832 -5.26193,-5.73114 -0.34346,-0.75508 -0.5311,-1.34114 -1.06792,-3.33451 -0.1334,-0.49566 -0.29956,-1.0415 -0.36912,-1.21292 -0.1174,-0.28944 -0.1226,-0.38684 -0.0714,-1.35174 0.0484,-0.91688 0.20636,-2.1572 0.29106,-2.28782 0.016,-0.024 0.0552,-0.032 0.086,-0.02 0.1044,0.062 0.20098,-0.22062 0.2959,-0.86288 0.052,-0.35184 0.1338,-0.72086 0.1816,-0.82008 0.0478,-0.1 0.1288,-0.31782 0.1802,-0.48604 0.1178,-0.38744 0.27864,-0.68508 0.7756,-1.43634 0.21858,-0.33064 0.44575,-0.69048 0.50487,-0.79988 0.0696,-0.128 0.1456,-0.192 0.21534,-0.178 0.0672,0.02 0.1782,-0.07 0.29432,-0.22162 0.5053,-0.65506 2.88514,-2.58785 3.10538,-2.52183 0.06,0.02 0.31122,-0.064 0.55806,-0.18 0.44642,-0.21182 0.64316,-0.26082 0.64316,-0.16 0,0.03 -0.0646,0.094 -0.1434,0.146 -0.1384,0.09 -0.1356,0.092 0.0796,0.042 0.1226,-0.028 0.3293,-0.068 0.45916,-0.088 0.1604,-0.026 0.22566,-0.064 0.20342,-0.118 -0.0204,-0.048 0.0266,-0.094 0.1144,-0.116 0.21938,-0.056 0.56122,-0.048 0.56122,0.02 0,0.074 -0.1954,0.148 -0.35052,0.134 -0.1056,-0.02 -0.1112,0 -0.0318,0.05 0.079,0.052 0.0798,0.062 0.006,0.064 -0.0498,6e-4 -0.074,0.02 -0.054,0.036 0.0204,0.02 0.153,-0.022 0.2953,-0.09 0.1426,-0.068 0.40334,-0.154 0.57976,-0.19 0.21718,-0.044 0.32078,-0.094 0.32078,-0.158 0,-0.08 0.1008,-0.088 0.7807,-0.054 0.42938,0.022 1.07736,0.086 1.4399,0.142 0.65918,0.102 0.65924,0.102 0.90488,-0.032 0.29466,-0.16 0.76856,-0.18 0.89308,-0.04 0.0456,0.052 0.17099,0.138 0.27865,0.19 0.1758,0.086 0.1874,0.086 0.113,0 -0.1412,-0.16 -9.6e-4,-0.156 0.54376,0.02 1.75614,0.55446 3.18782,1.54194 4.25014,2.93147 0.25194,0.32944 0.26718,0.47784 0.0286,0.27722 l -0.1366,-0.114 0.1042,0.192 c 0.0574,0.106 0.1042,0.22462 0.1042,0.26422 0,0.04 0.1688,0.33144 0.37528,0.64866 0.46518,0.71528 0.59532,0.9563 0.5641,1.0445 -0.014,0.038 -0.21946,-0.21402 -0.45798,-0.55964 -0.2385,-0.34584 -0.59142,-0.81168 -0.7843,-1.0353 -0.288,-0.33384 -0.36344,-0.39104 -0.42222,-0.31964 -0.0394,0.048 -0.1354,0.096 -0.21356,0.106 l -0.142,0.02 0.1404,0.25962 c 0.0772,0.142 0.1506,0.23062 0.1632,0.196 0.067,-0.19 0.3794,0.06 0.52138,0.41624 0.046,0.116 0.1686,0.35384 0.27212,0.52924 0.1036,0.176 0.1754,0.33124 0.1594,0.34624 -0.016,0.02 -0.1104,-0.032 -0.20986,-0.106 l -0.1808,-0.134 0.1234,0.20002 c 0.0678,0.11 0.1814,0.24402 0.25246,0.29842 0.0886,0.068 0.131,0.174 0.1348,0.34164 0.008,0.30762 0.1942,0.67106 0.2959,0.57526 0.1584,-0.15 0.191,-0.056 0.151,0.43284 -0.0294,0.36024 -0.014,0.59766 0.0558,0.84968 0.1056,0.38264 0.083,0.47704 -0.0716,0.29822 -0.0984,-0.114 -0.0994,-0.114 -0.0554,0 0.0944,0.25304 0.165,0.63166 0.1454,0.78008 -0.0366,0.27722 -0.147,0.162 -0.185,-0.194 l -0.037,-0.34662 -0.01,0.36882 c -0.006,0.20282 -0.0564,0.59486 -0.1124,0.8711 -0.0564,0.27902 -0.085,0.61724 -0.0646,0.76066 0.0386,0.27022 0.012,0.28064 -0.22814,0.088 -0.0976,-0.078 -0.1142,-0.064 -0.1812,0.172 -0.0564,0.198 -0.0558,0.30944 0.002,0.47466 0.0418,0.12 0.0658,0.28042 0.0538,0.35862 -0.028,0.18 -0.1814,0.23684 -0.1814,0.066 0,-0.21422 -0.0864,-0.138 -0.35052,0.30922 -0.71322,1.20711 -1.84166,2.14141 -3.11886,2.58225 -0.75296,0.25962 -1.258,0.35602 -2.10715,0.40184 l -0.76478,0.042 0.37786,0.11 c 0.30472,0.088 0.48364,0.102 0.92411,0.068 0.57706,-0.044 1.25464,-0.162 1.56188,-0.27224 0.1226,-0.044 0.20544,-0.046 0.2478,-0.02 0.1,0.094 -0.78766,0.46446 -1.31452,0.54846 -0.89645,0.142 -2.09649,-0.02 -3.15581,-0.40584 -0.71876,-0.26762 -1.78528,-0.9643 -1.62186,-1.0593 0.031,-0.02 0.2339,0.074 0.45092,0.20222 0.27744,0.166 0.39462,0.20902 0.39462,0.146 0,-0.118 0.0412,-0.112 0.26144,0.036 0.1992,0.134 0.81126,0.38164 1.25218,0.50744 0.48066,0.138 0.2943,-0.03 -0.35052,-0.31262 -2.0388,-0.8959 -2.8852,-1.79217 -3.307,-3.50153 -0.1548,-0.62686 0.01,-2.0012 0.29316,-2.43144 0.0714,-0.11 0.1298,-0.24322 0.1298,-0.29802 0,-0.23824 0.42116,-0.8673 0.85332,-1.27454 0.76152,-0.71786 1.55322,-1.01588 2.581,-0.97168 0.49684,0.022 0.70902,0.062 1.1225,0.21782 0.469,0.176 1.05949,0.54484 0.87865,0.54844 -0.0426,10e-4 -0.22894,-0.058 -0.41423,-0.13 -0.28174,-0.11 -0.46234,-0.132 -1.10174,-0.136 -0.89784,0 -1.3367,0.116 -1.9757,0.54066 -0.9059,0.60086 -1.40966,1.29292 -1.58806,2.1818 -0.1198,0.59626 -0.1234,0.76168 -0.03,1.35334 0.0538,0.34082 0.092,0.44084 0.1592,0.41664 0.0566,-0.02 0.0886,0.02 0.0886,0.082 0,0.21142 0.48766,1.0685 0.82588,1.45154 0.81404,0.92229 2.13088,1.51075 3.38032,1.51075 0.64847,0 1.17271,-0.118 1.65523,-0.37064 0.1938,-0.102 0.43836,-0.22582 0.54352,-0.27604 0.371,-0.178 0.60118,-0.37981 0.87032,-0.76565 0.1496,-0.21462 0.31224,-0.39004 0.3614,-0.39004 0.0726,0 0.0694,0.03 -0.016,0.166 -0.28446,0.44244 0.38314,-0.36224 0.7289,-0.8785 l 0.3872,-0.57844 -0.0422,-0.38004 c -0.0406,-0.36504 -0.0346,-0.38744 0.1506,-0.57066 0.1784,-0.176 0.1944,-0.22902 0.21504,-0.70106 0.018,-0.42244 0.006,-0.51006 -0.0734,-0.51066 -0.0734,-4e-4 -0.105,-0.112 -0.1368,-0.48104 -0.042,-0.48904 -0.46428,-2.1348 -0.56264,-2.19202 -0.0298,-0.02 -0.112,-0.176 -0.183,-0.35162 -0.23954,-0.59426 -0.65974,-1.16592 -1.31486,-1.78838 -0.94266,-0.89588 -2.1301,-1.58756 -3.25175,-1.89438 -0.95412,-0.26081 -2.57428,-0.16599 -3.72832,0.21802 -0.56322,0.188 -1.11814,0.43564 -1.21176,0.54206 -0.0426,0.048 -0.104,0.072 -0.1368,0.054 -0.0346,-0.02 -0.025,-0.074 0.0226,-0.128 0.21258,-0.24162 -0.49288,0.20042 -0.94704,0.59326 -0.27458,0.23762 -0.50924,0.43904 -0.52148,0.44784 -0.012,0.02 0.0412,4e-4 0.1188,-0.02 0.129,-0.032 0.1346,-0.022 0.0646,0.1 -0.0448,0.078 -0.27852,0.22122 -0.56488,0.34362 -0.48118,0.20582 -0.7924,0.43184 -1.03966,0.75548 -0.0988,0.13 -0.1044,0.158 -0.0262,0.128 0.0548,-0.02 0.0996,-0.02 0.0996,0.028 0,0.172 -0.1654,0.36322 -0.41032,0.47544 -0.54274,0.24862 -1.49612,1.57616 -2.00685,2.79466 -0.22758,0.54306 -0.22398,0.52426 -0.1002,0.52426 0.1306,0 0.1214,0.14 -0.0578,0.88968 -0.261,1.0927 -0.2613,1.0577 0.0228,2.59486 0.34629,1.87297 0.54859,2.49863 0.93325,2.88627 0.0902,0.09 0.178,0.28442 0.21706,0.47884 0.0466,0.23202 0.125,0.38504 0.27172,0.53086 0.1338,0.132 0.1784,0.21442 0.1268,0.23202 -0.1008,0.034 0.21474,0.47804 0.50264,0.70646 0.1448,0.116 0.25216,0.154 0.36844,0.132 0.25478,-0.046 0.51426,0.092 0.91292,0.48684 0.4143,0.40984 0.45582,0.52006 0.1816,0.48204 -0.177,-0.024 -0.1808,-0.02 -0.0938,0.106 0.0502,0.072 0.23468,0.24522 0.4103,0.38484 0.2467,0.196 0.3102,0.28082 0.27926,0.37284 -0.0446,0.132 0.0824,0.25562 0.3698,0.35922 0.1782,0.064 0.23558,0.20282 0.1014,0.24482 -0.0406,0.02 0.21036,0.25624 0.55766,0.54126 0.39128,0.32084 0.65444,0.49664 0.69196,0.46244 0.0992,-0.09 0.22612,-0.064 0.22838,0.048 0.002,0.124 0.115,0.25222 0.5196,0.59704 0.25574,0.21782 0.31956,0.24524 0.4763,0.20462 0.1436,-0.038 0.2338,-0.02 0.43594,0.116 0.4033,0.25702 0.64782,0.35964 0.85722,0.35964 0.206,0 0.23534,0.056 0.1284,0.24422 -0.0566,0.1 -0.0446,0.116 0.0856,0.116 0.0836,0 0.31834,0.054 0.52208,0.12 0.46328,0.15 0.65656,0.16 0.54044,0.028 -0.1714,-0.196 0.01,-0.142 0.62326,0.182 0.85634,0.45284 1.28951,0.50444 2.99479,0.35764 0.25246,-0.022 0.3346,-0.02 0.3346,0.052 0,0.052 -0.2191,0.13 -0.6214,0.22242 -0.52888,0.12 -0.81114,0.144 -1.89601,0.156 -0.85486,0.02 -1.43878,-0.02 -1.77308,-0.066 z m -0.87178,-9.00648 c 0,-0.02 -0.0788,-0.068 -0.1754,-0.124 l -0.1754,-0.1 0.1504,0.124 c 0.1468,0.12 0.20016,0.148 0.20016,0.1 z m 8.77477,-6.29659 c -0.0204,-0.048 -0.0354,-0.034 -0.0384,0.036 -0.002,0.064 0.012,0.1 0.0334,0.078 0.0212,-0.02 0.0234,-0.072 0.006,-0.116 z m -14.50251,-6.34201 c 0.0792,-0.094 0.077,-0.098 -0.024,-0.022 -0.0612,0.046 -0.1116,0.092 -0.1116,0.10399 0,0.048 0.0524,0.02 0.1356,-0.084 z m 0.7248,-0.55586 c 0.0636,-0.066 0.101,-0.12 0.0834,-0.12 -0.018,0 -0.0836,0.054 -0.1472,0.12 -0.0634,0.066 -0.101,0.12 -0.0834,0.12 0.018,0 0.0836,-0.054 0.1472,-0.12 z m 0.80222,-0.42224 c 0.21008,-0.068 0.32946,-0.078 0.37378,-0.038 0.0444,0.042 0.20866,0.02 0.51464,-0.078 0.24728,-0.076 0.43822,-0.15 0.42432,-0.162 -0.014,-0.02 -0.21748,0.038 -0.4524,0.11 -0.3227,0.102 -0.43882,0.116 -0.47478,0.062 -0.0608,-0.092 -0.64072,0.09 -0.89,0.28062 l -0.1702,0.13 0.183,-0.104 c 0.1006,-0.056 0.32196,-0.148 0.49172,-0.20202 z m 1.83738,-0.152 c 0.1852,-0.052 0.32546,-0.104 0.31196,-0.118 -0.0298,-0.028 -0.6891,0.15 -0.6891,0.186 0,0.036 0.006,0.034 0.37714,-0.068 z m 1.05684,-0.32744 0.25494,-0.044 h -0.22308 c -0.1226,0 -0.29474,0.036 -0.38238,0.086 -0.1032,0.06 -0.1144,0.078 -0.0318,0.048 0.07,-0.024 0.2422,-0.062 0.3824,-0.086 z m 0.50616,-0.114 c 0.0204,-0.03 -0.0216,-0.04 -0.0918,-0.024 -0.1488,0.038 -0.1676,0.078 -0.0356,0.078 0.0506,0 0.108,-0.026 0.1274,-0.054 z m 2.05772,0.02 c -0.0212,-0.02 -0.0762,-0.022 -0.1222,0 -0.051,0.02 -0.0356,0.034 0.0384,0.036 0.0672,0 0.1048,-0.02 0.0838,-0.032 z m -0.38108,-0.066 c -0.0612,-0.02 -0.1616,-0.02 -0.22306,0 -0.0612,0.02 -0.01,0.028 0.1116,0.028 0.1226,0 0.1728,-0.02 0.1116,-0.028 z m -0.63562,-0.062 c -0.1306,-0.02 -0.35996,-0.02 -0.50986,-4e-4 -0.1498,0.02 -0.0432,0.024 0.23732,0.024 0.28042,2e-4 0.40306,-0.02 0.27254,-0.024 z m -0.83152,-0.052 c -0.0212,-0.02 -0.0762,-0.022 -0.1222,0 -0.0508,0.02 -0.0358,0.034 0.0384,0.036 0.0672,0 0.1048,-0.02 0.0838,-0.032 z m -0.4314,14.44056 c -0.64918,-0.43844 -0.8897,-0.66526 -0.8897,-0.83908 0,-0.092 0.0222,-0.168 0.049,-0.168 0.0918,0 1.17718,1.0679 1.15344,1.1351 -0.014,0.04 -0.1448,-0.02 -0.31284,-0.128 z m -0.33408,-1.1133 c -0.33712,-0.32122 -0.44516,-0.49403 -0.3089,-0.49403 0.0818,0 0.70926,0.67725 0.70926,0.76565 0,0.042 -0.008,0.076 -0.018,0.076 -0.01,0 -0.182,-0.156 -0.3824,-0.34704 z m 3.73032,-1.31471 c -0.178,-0.068 -0.0668,-0.194 0.22306,-0.25182 0.1666,-0.034 0.43107,-0.116 0.58797,-0.182 0.1568,-0.066 0.29656,-0.11 0.3104,-0.098 0.014,0.02 -0.0572,0.146 -0.1578,0.29684 -0.1818,0.27122 -0.185,0.27282 -0.53347,0.26822 -0.1928,0 -0.38638,-0.02 -0.4302,-0.034 z m 1.91195,-1.34414 c -0.172,-0.066 -0.1792,-0.176 -0.0354,-0.55364 0.1234,-0.32464 0.25132,-0.38844 0.1802,-0.09 -0.0256,0.106 -0.0598,0.26282 -0.076,0.34544 l -0.0294,0.15 0.1272,-0.136 c 0.0754,-0.08 0.1452,-0.27102 0.1708,-0.46504 0.024,-0.18 0.0688,-0.31344 0.1,-0.29544 0.0788,0.046 0.0704,0.52106 -0.014,0.84048 -0.0746,0.27884 -0.1416,0.31144 -0.42262,0.20482 z m -15.08166,-0.75446 c -0.0212,-0.052 -0.0386,-0.25724 -0.0386,-0.45546 0,-0.26162 0.0218,-0.35382 0.0796,-0.33582 0.0946,0.03 0.1502,0.88628 0.0574,0.88628 -0.0328,0 -0.0772,-0.042 -0.0984,-0.094 z m 15.33202,-1.40514 c -0.099,-0.126 -0.1296,-0.22622 -0.1014,-0.33164 0.0576,-0.21662 0.20856,-0.186 0.31988,0.066 0.173,0.39062 0.0228,0.57384 -0.2184,0.26622 z m -15.34512,-0.9541 c -0.004,-0.34062 -4e-5,-0.35102 0.16,-0.34542 0.1356,0 0.1684,0.038 0.184,0.19 0.018,0.17 -0.1786,0.50746 -0.29512,0.50746 -0.024,0 -0.046,-0.158 -0.0488,-0.35144 z m 16.51994,-7.38549 c 0.01,-0.53786 0.1048,-0.71988 0.1798,-0.34344 0.0522,0.26222 -0.014,0.72546 -0.1152,0.80468 -0.055,0.042 -0.0714,-0.074 -0.0646,-0.46124 z m -8.37419,-0.32224 c 0.0256,-0.072 0.90478,-0.41204 1.06696,-0.41204 0.1906,0 -0.1512,0.22002 -0.54544,0.35124 -0.43954,0.146 -0.55658,0.16 -0.52152,0.062 z"
         id="path4181-7"
         inkscape:connector-curvature="0"
         inkscape:label="Capa 1"
         style="stroke-width:2" />
    </g>
  </g>
</svg>
