<?xml version="1.0" encoding="UTF-8" standalone="no"?>
<svg
   width="64"
   height="64"
   version="1.1"
   id="svg29"
   sodipodi:docname="application-x-pem-key.svg"
   inkscape:version="1.3.2 (1:1.3.2+202311252150+091e20ef0f)"
   xmlns:inkscape="http://www.inkscape.org/namespaces/inkscape"
   xmlns:sodipodi="http://sodipodi.sourceforge.net/DTD/sodipodi-0.dtd"
   xmlns:xlink="http://www.w3.org/1999/xlink"
   xmlns="http://www.w3.org/2000/svg"
   xmlns:svg="http://www.w3.org/2000/svg">
  <style
     type="text/css"
     id="current-color-scheme">
      .ColorScheme-Text {
        color:#232629;
      }
      .ColorScheme-Highlight {
        color:#3daee9;
      }
   </style>
  <sodipodi:namedview
     id="namedview31"
     pagecolor="#ffffff"
     bordercolor="#666666"
     borderopacity="1.0"
     inkscape:pageshadow="2"
     inkscape:pageopacity="0.0"
     inkscape:pagecheckerboard="0"
     showgrid="false"
     inkscape:zoom="6.9384853"
     inkscape:cx="-20.897933"
     inkscape:cy="18.087521"
     inkscape:window-width="3440"
     inkscape:window-height="1356"
     inkscape:window-x="0"
     inkscape:window-y="0"
     inkscape:window-maximized="1"
     inkscape:current-layer="svg29"
     inkscape:showpageshadow="2"
     inkscape:deskcolor="#d1d1d1">
  </sodipodi:namedview>
  <defs
     id="defs13">
    <linearGradient
       id="a"
       y1="392.36"
       y2="365.36"
       x2="0"
       gradientUnits="userSpaceOnUse"
       gradientTransform="translate(309.57 152.44)">
      <stop
         stop-color="#fff"
         stop-opacity="0"
         id="stop2" />
      <stop
         offset="1"
         stop-color="#fff"
         stop-opacity=".2"
         id="stop4" />
    </linearGradient>
    <linearGradient
       id="b"
       y1="17"
       y2="24"
       x1="47"
       x2="54"
       gradientUnits="userSpaceOnUse"
       gradientTransform="matrix(2,0,0,1.999999,-53.999999,-15.999981)">
      <stop
         stop-color="#060606"
         id="stop7" />
      <stop
         offset="1"
         stop-opacity="0"
         id="stop9" />
    </linearGradient>
    <linearGradient
       xlink:href="#a"
       id="c"
       x1="5"
       y1="30"
       x2="5"
       y2="2"
       gradientUnits="userSpaceOnUse"
       gradientTransform="matrix(2,0,0,1.999999,-39.999999,1.14e-5)" />
  </defs>
  <path
     d="M 40,4.0000094 H 16 c -3.324,0 -6,2.6759986 -6,5.9999966 v 43.999978 c 0,3.323999 2.676,5.999997 6,5.999997 h 32 c 3.324,0 6,-2.675998 6,-5.999997 V 18.000002 Z"
     id="path15"
     style="fill:#555555;fill-opacity:1;stroke-width:2" />
  <path
     d="m 16,4.0000094 a 5.9799999,5.979997 0 0 0 -4.246,1.7539991 c -0.062,0.062 -0.04,0.1799999 -0.1,0.2459999 H 40 v -1.999999 z"
     color="#000000"
     opacity="0.5"
     fill="#ffffff"
     id="path17"
     style="display:inline;stroke-width:2" />
  <path
     d="m 11.652,57.999982 c 0.06,0.066 0.04,0.184 0.102,0.246 A 5.9799999,5.979997 0 0 0 16,59.999981 h 32 a 5.9799999,5.979997 0 0 0 4.246,-1.753999 c 0.062,-0.062 0.04,-0.18 0.1,-0.246 H 11.654 Z"
     id="path19"
     class="ColorScheme-Highlight"
     style="display:inline;opacity:1;fill:currentColor;fill-opacity:1;stroke-width:2" />
  <path
     d="M 54,18.000002 40,4.0000094 V 18.000002 Z"
     color="#000000"
     opacity="0.5"
     fill="#ffffff"
     fill-rule="evenodd"
     id="path21"
     style="stroke-width:2" />
  <path
     d="M 40,18.000002 54,31.999995 V 18.000002 Z"
     opacity="0.1"
     fill="url(#b)"
     fill-rule="evenodd"
     id="path23"
     style="fill:url(#b);stroke-width:2" />
  <path
     d="M 40,4.0000092 H 16 c -3.324,0 -6.0000004,2.6759988 -6.0000004,5.9999968 v 43.999978 c 0,3.323999 2.6760004,5.999997 6.0000004,5.999997 h 32 c 3.324,0 6,-2.675998 6,-5.999997 V 18.000002 Z"
     opacity="0.4"
     fill="url(#c)"
     id="path27"
     style="fill:url(#c);stroke-width:2" />
  <g
     fill="#ffffff"
     id="g33"
     transform="matrix(2,0,0,1.999999,-0.6907763,-1.4384941)"
     style="opacity:0.75">
    <path
       opacity="0.75"
       d="m 18.634685,11.855437 a 3.925,3.925 0 0 0 -3.926,3.924 3.9,3.9 0 0 0 0.365,1.646 l -0.672,0.795 -0.059,0.746 c -0.006,0.006 -0.73,0.025 -0.73,0.025 l -0.373,0.271 c 0,0 0.003,0.812 0,0.801 l -0.002,0.002 -0.799,0.014 -0.338,0.385 -0.008,0.729 c 0,0 -0.688,-0.043 -0.758,0.021 -0.441,0.406 -0.738,0.695 -0.738,0.695 l 0.004,1.908 0.373,-0.002 5.084,-5.082 c 0.305,0.266 0.658,0.471 1.035,0.633 0.475,0.205 0.991,0.334 1.541,0.334 a 3.925,3.925 0 0 0 3.928,-3.922 3.926,3.926 0 0 0 -3.928,-3.924 m 0.75,1.869 a 1.309,1.309 0 1 1 0,2.618 1.309,1.309 0 0 1 0,-2.618"
       id="path29" />
    <path
       opacity="0.5"
       d="m 19.384685,13.723437 a 1.309,1.309 0 1 0 0,2.618 1.309,1.309 0 0 0 0,-2.618 m 0,0.748 a 0.561,0.561 0 1 1 0,1.122 0.561,0.561 0 0 1 0,-1.122 m -3.326,4.262 -5.086,5.084 h 1.869 l 4.439,-4.361 a 3.926,3.926 0 0 1 -1.223,-0.723"
       id="path31" />
  </g>
</svg>
