<?xml version="1.0" encoding="UTF-8" standalone="no"?>
<svg
   width="64"
   height="64"
   version="1.1"
   id="svg33"
   sodipodi:docname="application-x-wmf.svg"
   inkscape:version="1.3.2 (1:1.3.2+202311252150+091e20ef0f)"
   xmlns:inkscape="http://www.inkscape.org/namespaces/inkscape"
   xmlns:sodipodi="http://sodipodi.sourceforge.net/DTD/sodipodi-0.dtd"
   xmlns:xlink="http://www.w3.org/1999/xlink"
   xmlns="http://www.w3.org/2000/svg"
   xmlns:svg="http://www.w3.org/2000/svg">
  <style
     type="text/css"
     id="current-color-scheme">
      .ColorScheme-Text {
        color:#232629;
      }
      .ColorScheme-Highlight {
        color:#3daee9;
      }
   </style>
  <sodipodi:namedview
     id="namedview35"
     pagecolor="#ffffff"
     bordercolor="#666666"
     borderopacity="1.0"
     inkscape:pageshadow="2"
     inkscape:pageopacity="0.0"
     inkscape:pagecheckerboard="0"
     showgrid="false"
     inkscape:zoom="9.8125"
     inkscape:cx="10.598726"
     inkscape:cy="14.828025"
     inkscape:window-width="3440"
     inkscape:window-height="1356"
     inkscape:window-x="0"
     inkscape:window-y="0"
     inkscape:window-maximized="1"
     inkscape:current-layer="svg33"
     inkscape:showpageshadow="2"
     inkscape:deskcolor="#d1d1d1">
  </sodipodi:namedview>
  <defs
     id="defs13">
    <linearGradient
       id="c"
       y1="17"
       y2="24"
       x1="47"
       x2="54"
       gradientUnits="userSpaceOnUse"
       gradientTransform="translate(357.57,507.8)">
      <stop
         stop-color="#060606"
         id="stop2" />
      <stop
         offset="1"
         stop-opacity="0"
         id="stop4" />
    </linearGradient>
    <linearGradient
       xlink:href="#a"
       id="b"
       x1="5"
       y1="30"
       x2="5"
       y2="2"
       gradientUnits="userSpaceOnUse"
       gradientTransform="matrix(2,0,0,1.999999,-40,1.14e-5)" />
    <linearGradient
       id="a"
       y1="392.36"
       y2="365.36"
       x2="0"
       gradientUnits="userSpaceOnUse"
       gradientTransform="translate(309.57 152.44)">
      <stop
         stop-color="#fff"
         stop-opacity="0"
         id="stop8" />
      <stop
         offset="1"
         stop-color="#fff"
         stop-opacity=".2"
         id="stop10" />
    </linearGradient>
  </defs>
  <path
     d="M 40,4.0000094 H 16 c -3.324,0 -6,2.6759986 -6,5.9999966 v 43.999978 c 0,3.323999 2.676,5.999997 6,5.999997 h 31.999999 c 3.324,0 6,-2.675998 6,-5.999997 V 18.000002 Z"
     id="path15"
     style="fill:#555555;fill-opacity:1;stroke-width:2" />
  <path
     d="m 16,4.0000094 c -0.782,0 -1.316,0.5539997 -2,0.8239996 v 3.1719984 h -3.172 c -0.27,0.6819996 -0.822,1.2159994 -0.824,1.995999 v 0.004 H 14 v 3.9999976 h -3.996 v 1.999999 H 14 v 3.999998 H 10.004 V 21.996 H 14 v 3.999998 h -3.996 v 1.999999 H 14 v 3.999998 h -3.996 v 1.999999 H 14 v 3.999998 h -3.996 v 1.999999 H 14 v 3.999998 h -3.996 v 1.999999 H 14 v 3.999998 h -3.996 v 1.999999 H 14 v 3.999998 h -3.176 c 0.27,0.686 0.34,1.465999 0.828,1.999999 H 14 v 1.18 c 0.68,0.268 1.214,0.819999 1.992,0.819999 H 16 v -1.999999 h 4 v 1.999999 h 2 v -1.999999 h 4 v 1.999999 h 2 v -1.999999 h 4 v 1.999999 h 2 v -1.999999 h 4 v 1.999999 h 2 v -1.999999 h 4 v 1.999999 h 2 v -1.999999 h 3.999999 v 1.18 c 0.684,-0.27 1.466,-0.34 2,-0.828 v -0.352 h 0.348 c 0.488,-0.534 0.558,-1.313999 0.828,-1.999999 h -1.176 v -3.999998 h 2 v -1.999999 h -2 v -3.999998 h 2 v -1.999999 h -2 v -3.999998 h 2 v -1.999999 h -2 v -3.999998 h 2 v -1.999999 h -2 v -3.999998 h 2 v -1.999999 h -2 V 21.996 h 2 v -1.999999 h -2 v -3.999998 l -2,-1.999999 H 46 V 9.9960064 l -2,-1.999999 h -4 v -3.995998 h -2 v 3.995998 h -4 v -3.995998 h -2 v 3.995998 h -4 v -3.995998 h -2 v 3.995998 h -4 v -3.995998 h -2 v 3.995998 h -4 z m 0,5.995997 h 4 v 3.9999976 h -4 z m 6,0 h 4 v 3.9999976 h -4 z m 6,0 h 4 v 3.9999976 h -4 z m 6,0 h 4 v 3.9999976 h -4 z m 6,0 h 4 V 13.996004 H 40 Z M 16,15.996003 h 4 v 3.999998 h -4 z m 6,0 h 4 v 3.999998 h -4 z m 6,0 h 4 v 3.999998 h -4 z m 6,0 h 4 v 3.999998 h -4 z m 6,0 h 4 v 3.999998 h -4 z m 6,0 h 3.999999 v 3.999998 H 46 Z M 16,21.996 h 4 v 3.999998 h -4 z m 6,0 h 4 v 3.999998 h -4 z m 6,0 h 4 v 3.999998 h -4 z m 6,0 h 4 v 3.999998 h -4 z m 6,0 h 4 v 3.999998 h -4 z m 6,0 h 3.999999 v 3.999998 H 46 Z m -30,5.999997 h 4 v 3.999998 h -4 z m 6,0 h 4 v 3.999998 h -4 z m 6,0 h 4 v 3.999998 h -4 z m 6,0 h 4 v 3.999998 h -4 z m 6,0 h 4 v 3.999998 h -4 z m 6,0 h 3.999999 v 3.999998 H 46 Z m -30,5.999997 h 4 v 3.999998 h -4 z m 6,0 h 4 v 3.999998 h -4 z m 6,0 h 4 v 3.999998 h -4 z m 6,0 h 4 v 3.999998 h -4 z m 6,0 h 4 v 3.999998 h -4 z m 6,0 h 3.999999 v 3.999998 H 46 Z m -30,5.999997 h 4 v 3.999998 h -4 z m 6,0 h 4 v 3.999998 h -4 z m 6,0 h 4 v 3.999998 h -4 z m 6,0 h 4 v 3.999998 h -4 z m 6,0 h 4 v 3.999998 h -4 z m 6,0 h 3.999999 v 3.999998 H 46 Z m -30,5.999997 h 4 v 3.999998 h -4 v -1.999999 z m 6,0 h 4 v 3.999998 h -4 v -1.999999 z m 6,0 h 4 v 3.999998 h -4 v -1.999999 z m 6,0 h 4 v 3.999998 h -4 v -1.999999 z m 6,0 h 4 v 3.999998 h -4 v -1.999999 z m 6,0 h 3.999999 v 3.999998 H 46 v -1.999999 z m -30,5.999997 h 4 v 3.999998 h -4 v -1.999999 z m 6,0 h 4 v 3.999998 h -4 v -1.999999 z m 6,0 h 4 v 3.999998 h -4 v -1.999999 z m 6,0 h 4 v 3.999998 h -4 v -1.999999 z m 6,0 h 4 v 3.999998 h -4 v -1.999999 z m 6,0 h 3.999999 v 3.999998 H 46 v -1.999999 z"
     opacity="0.15"
     id="path17"
     style="display:inline;stroke-width:2" />
  <path
     d="m 24,19.996001 v 5.999997 h 2 v 3.299999 a 3,2.9999985 0 0 0 -2,2.823998 3,2.9999985 0 0 0 2,2.823999 v 3.051998 h -2 v 5.999997 h 6 v -3.619998 a 14,11.999994 0 0 0 10,3.619998 V 41.99599 A 12,9.999995 0 0 1 28.46,34.733994 3,2.9999985 0 0 0 30,32.119995 3,2.9999985 0 0 0 28.402,29.475997 12,9.999995 0 0 1 40,21.994 V 19.994001 A 14,11.999994 0 0 0 30,23.6 V 19.994001 Z M 26,21.996 h 2 v 1.999999 h -2 z m 0,17.999991 h 2 v 1.999999 h -2 z"
     id="path19"
     style="display:inline;opacity:0.75;fill:#ffffff;fill-opacity:1;stroke-width:2" />
  <path
     d="m 16,4.0000094 a 5.9799999,5.979997 0 0 0 -4.246,1.7539991 c -0.062,0.062 -0.04,0.1799999 -0.1,0.2459999 H 40 v -1.999999 z"
     opacity="0.5"
     id="path21"
     style="display:inline;stroke-width:2" />
  <path
     d="m 11.652,57.999982 c 0.06,0.066 0.04,0.184 0.102,0.246 A 5.9799999,5.979997 0 0 0 16,59.999981 h 31.999999 a 5.9799999,5.979997 0 0 0 4.246,-1.753999 c 0.062,-0.062 0.04,-0.18 0.1,-0.246 z"
     id="path23"
     class="ColorScheme-Highlight"
     style="display:inline;opacity:1;fill:currentColor;fill-opacity:1;stroke-width:2" />
  <path
     d="M 40,4.0000094 H 16 c -3.324,0 -6,2.6759986 -6,5.9999966 v 43.999978 c 0,3.323999 2.676,5.999997 6,5.999997 h 31.999999 c 3.324,0 6,-2.675998 6,-5.999997 V 18.000002 Z"
     opacity="0.4"
     fill="url(#b)"
     id="path25"
     style="display:inline;fill:url(#b);stroke-width:2" />
  <g
     fill-rule="evenodd"
     id="g31"
     style="display:inline"
     transform="matrix(2,0,0,1.999999,7.3636363e-7,1.1400117e-5)">
    <path
       d="m 404.57,524.8 7,7 v -7 z"
       opacity="0.2"
       fill="url(#c)"
       transform="translate(-384.57,-515.8)"
       id="path27"
       style="display:inline;fill:url(#c)" />
    <path
       d="M 27,9 20,2 v 7 z"
       id="path29"
       style="display:inline;opacity:0.5;fill:#ffffff;fill-opacity:1" />
  </g>
</svg>
