<?xml version="1.0" encoding="UTF-8" standalone="no"?>
<svg
   width="64"
   height="64"
   version="1.1"
   id="svg29"
   sodipodi:docname="application-x-partial-download.svg"
   inkscape:version="1.3.2 (1:1.3.2+202311252150+091e20ef0f)"
   viewBox="0 0 64 64"
   xmlns:inkscape="http://www.inkscape.org/namespaces/inkscape"
   xmlns:sodipodi="http://sodipodi.sourceforge.net/DTD/sodipodi-0.dtd"
   xmlns:xlink="http://www.w3.org/1999/xlink"
   xmlns="http://www.w3.org/2000/svg"
   xmlns:svg="http://www.w3.org/2000/svg">
   <style
     type="text/css"
     id="current-color-scheme">
      .ColorScheme-Text {
        color:#232629;
      }
      .ColorScheme-Highlight {
        color:#3daee9;
      }
   </style>
  <sodipodi:namedview
     id="namedview31"
     pagecolor="#ffffff"
     bordercolor="#666666"
     borderopacity="1.0"
     inkscape:pageshadow="2"
     inkscape:pageopacity="0.0"
     inkscape:pagecheckerboard="0"
     showgrid="false"
     inkscape:zoom="9.15"
     inkscape:cx="16.065574"
     inkscape:cy="15.956284"
     inkscape:window-width="3440"
     inkscape:window-height="1356"
     inkscape:window-x="0"
     inkscape:window-y="0"
     inkscape:window-maximized="1"
     inkscape:current-layer="svg29"
     inkscape:showpageshadow="2"
     inkscape:deskcolor="#d1d1d1">
  </sodipodi:namedview>
  <defs
     id="defs13">
    <linearGradient
       id="c"
       y1="524.79999"
       x1="404.57001"
       y2="531.79999"
       x2="411.57001"
       gradientUnits="userSpaceOnUse"
       gradientTransform="matrix(2,0,0,1.9999997,-769.14,-1031.5998)">
      <stop
         stop-color="#383e51"
         id="stop2" />
      <stop
         offset="1"
         stop-color="#655c6f"
         stop-opacity="0"
         id="stop4" />
    </linearGradient>
    <linearGradient
       id="a"
       y1="392.35999"
       y2="365.35999"
       x2="0"
       gradientUnits="userSpaceOnUse"
       gradientTransform="translate(309.57,152.44)">
      <stop
         stop-color="#fff"
         stop-opacity="0"
         id="stop7" />
      <stop
         offset="1"
         stop-color="#fff"
         stop-opacity=".2"
         id="stop9" />
    </linearGradient>
    <linearGradient
       xlink:href="#a"
       id="b"
       gradientUnits="userSpaceOnUse"
       gradientTransform="matrix(2,0,0,1.9999997,-40,1.01e-5)"
       x1="5"
       y1="30"
       x2="5"
       y2="2" />
  </defs>
  <path
     d="m 16,4.0000094 c -3.324,0 -6,2.6759995 -6,5.9999986 V 58 L 15.5,54.000001 21,58 26.5,54.000001 32,58 37.5,54.000001 43,58 48.5,54.000001 54,58 V 18.000007 L 40,4.0000094 Z"
     fill="#cccccc"
     id="path15"
     style="stroke-width:2" />
  <path
     d="m 16,4.0000094 a 5.98,5.979999 0 0 0 -4.246,1.7539997 c -0.062,0.062 -0.04,0.18 -0.1,0.246 H 40 V 4.0000094 Z"
     color="#000000"
     opacity="0.5"
     fill="#ffffff"
     id="path17"
     style="stroke-width:2" />
  <path
     d="m 16,4.0000094 c -3.324,0 -6,2.6759995 -6,5.9999986 V 60 H 54 V 18.000007 L 40,4.0000094 Z"
     opacity="0.4"
     fill="url(#b)"
     id="path19"
     style="fill:url(#b);stroke-width:2" />
  <path
     d="M 54,18.000007 40,4.0000094 V 18.000007 Z"
     opacity="0.5"
     fill="#ffffff"
     fill-rule="evenodd"
     id="path21"
     style="stroke-width:2" />
  <path
     d="M 54,32.000005 40,18.000007 h 14 z"
     opacity="0.2"
     fill="url(#c)"
     fill-rule="evenodd"
     id="path23"
     style="fill:url(#c);stroke-width:2" />
  <path
     d="m 32.524,21.831766 a 12,11.999998 0 1 0 0,23.999996 12,11.999998 0 0 0 0,-23.999996 m 0,2 a 10.001001,10.000999 0 1 1 -0.002,20.001997 10.001001,10.000999 0 0 1 0.002,-20.001997 m -2,2 v 9.999998 h 10 v -2 h -8 v -7.999998 z"
     opacity="0.5"
     id="path25"
     class="ColorScheme-Highlight"
     style="stroke-width:2;fill:currentColor;fill-opacity:1" />
  <path
     d="M 15.5,54.000001 10,58 v 2 L 15.5,56.000001 21,60 26.5,56.000001 32,60 37.5,56.000001 43,60 48.5,56.000001 54,60 V 58 L 48.5,54.000001 43,58 37.5,54.000001 32,58 26.5,54.000001 21,58 Z"
     color="#000000"
     opacity="0.25"
     id="path27"
     style="stroke-width:2" />
</svg>
