<?xml version="1.0" encoding="UTF-8" standalone="no"?>
<svg
   width="64"
   height="64"
   version="1.1"
   id="svg29"
   sodipodi:docname="application-x-labplot2.svg"
   inkscape:version="1.3.2 (1:1.3.2+202311252150+091e20ef0f)"
   xmlns:inkscape="http://www.inkscape.org/namespaces/inkscape"
   xmlns:sodipodi="http://sodipodi.sourceforge.net/DTD/sodipodi-0.dtd"
   xmlns:xlink="http://www.w3.org/1999/xlink"
   xmlns="http://www.w3.org/2000/svg"
   xmlns:svg="http://www.w3.org/2000/svg">
  <style
     type="text/css"
     id="current-color-scheme">
      .ColorScheme-Text {
        color:#232629;
      }
      .ColorScheme-Highlight {
        color:#3daee9;
      }
   </style>
  <sodipodi:namedview
     id="namedview31"
     pagecolor="#ffffff"
     bordercolor="#666666"
     borderopacity="1.0"
     inkscape:pageshadow="2"
     inkscape:pageopacity="0.0"
     inkscape:pagecheckerboard="0"
     showgrid="false"
     inkscape:zoom="9.15"
     inkscape:cx="-0.98360656"
     inkscape:cy="16.010929"
     inkscape:window-width="3440"
     inkscape:window-height="1356"
     inkscape:window-x="0"
     inkscape:window-y="0"
     inkscape:window-maximized="1"
     inkscape:current-layer="svg29"
     inkscape:showpageshadow="2"
     inkscape:deskcolor="#d1d1d1">
  </sodipodi:namedview>
  <defs
     id="defs13">
    <linearGradient
       id="a"
       y1="392.36"
       y2="365.36"
       x2="0"
       gradientUnits="userSpaceOnUse"
       gradientTransform="translate(309.57 152.44)">
      <stop
         stop-color="#fff"
         stop-opacity="0"
         id="stop2" />
      <stop
         offset="1"
         stop-color="#fff"
         stop-opacity=".2"
         id="stop4" />
    </linearGradient>
    <linearGradient
       id="b"
       y1="17"
       y2="24"
       x1="47"
       x2="54"
       gradientUnits="userSpaceOnUse"
       gradientTransform="matrix(2,0,0,1.999999,-54,-15.999981)">
      <stop
         stop-color="#060606"
         id="stop7" />
      <stop
         offset="1"
         stop-opacity="0"
         id="stop9" />
    </linearGradient>
    <linearGradient
       xlink:href="#a"
       id="c"
       x1="5"
       y1="30"
       x2="5"
       y2="2"
       gradientUnits="userSpaceOnUse"
       gradientTransform="translate(-20)" />
  </defs>
  <path
     d="M 40,4.0000094 H 16 c -3.324,0 -6,2.6759986 -6,5.9999966 v 43.999978 c 0,3.323999 2.676,5.999997 6,5.999997 h 32 c 3.324,0 6,-2.675998 6,-5.999997 V 18.000002 Z"
     id="path15"
     style="display:inline;fill:#555555;fill-opacity:1;stroke-width:2" />
  <path
     d="m 16,4.0000094 a 5.98,5.979997 0 0 0 -4.246,1.7539991 c -0.062,0.062 -0.04,0.1799999 -0.1,0.2459999 H 40 v -1.999999 z"
     color="#000000"
     opacity="0.5"
     fill="#ffffff"
     id="path17"
     style="display:inline;stroke-width:2" />
  <path
     d="m 11.652,57.999982 c 0.06,0.066 0.04,0.184 0.102,0.246 A 5.98,5.979997 0 0 0 16,59.999981 h 32 a 5.98,5.979997 0 0 0 4.246,-1.753999 c 0.062,-0.062 0.04,-0.18 0.1,-0.246 H 11.654 Z"
     id="path19"
     class="ColorScheme-Highlight"
     style="display:inline;opacity:1;fill:currentColor;fill-opacity:1;stroke-width:2" />
  <path
     d="M 54,18.000002 40,4.0000094 V 18.000002 Z"
     color="#000000"
     opacity="0.5"
     fill="#ffffff"
     fill-rule="evenodd"
     id="path21"
     style="stroke-width:2" />
  <path
     d="M 40,18.000002 54,31.999995 V 18.000002 Z"
     opacity="0.1"
     fill="url(#b)"
     fill-rule="evenodd"
     id="path23"
     style="display:inline;fill:url(#b);stroke-width:2" />
  <path
     d="M 20,1.9999999 H 7.9999996 c -1.662,0 -3,1.3380001 -3,3.0000001 v 22 c 0,1.662 1.338,3 3,3 H 24 c 1.662,0 3,-1.338 3,-3 V 9 Z"
     opacity="0.4"
     fill="url(#c)"
     id="path27"
     style="display:none;fill:url(#c)" />
  <g
     id="g851"
     transform="matrix(2,0,0,1.999999,0.5459046,-1.4011435)">
    <path
       d="m 8.667,18.009 c 4.695,0 5.564,5.974 7.635,5.993 2.071,0.016 3.005,-6.007 7.698,-6.007"
       id="path30"
       inkscape:connector-curvature="0"
       style="fill:none;stroke:#1d99f3;stroke-width:0.667" />
    <path
       d="m 8.667,17.363 c 4.695,0 5.65,-4.067 7.656,-4.063 1.994,0.005 2.984,4.695 7.677,4.695"
       id="path32"
       inkscape:connector-curvature="0"
       style="fill:none;stroke:#da4453;stroke-width:0.667" />
    <path
       d="m 8.667,17.363 c 4.695,0 4.98,-6.676 7.646,-6.676 2.667,0 2.994,7.307 7.687,7.307"
       id="path34"
       inkscape:connector-curvature="0"
       style="fill:none;stroke:#d6d6d6;stroke-width:0.667" />
    <g
       id="g42"
       style="fill:#d6d6d6">
      <path
         d="M 8,10.333 H 8.667 V 25.667 H 8 Z"
         id="path36"
         inkscape:connector-curvature="0"
         style="color:#000000" />
      <path
         d="m 8,17.667 h 16 v 0.666 H 8 Z"
         id="path38"
         inkscape:connector-curvature="0" />
      <path
         d="m 12,17 h 0.667 v 2 H 12 Z m 4,0 h 0.667 v 2 H 16 Z m 4,0 h 0.667 v 2 H 20 Z"
         id="path40"
         inkscape:connector-curvature="0" />
    </g>
  </g>
</svg>
