<?xml version="1.0" encoding="UTF-8" standalone="no"?>
<svg
   width="64"
   height="64"
   version="1.1"
   id="svg33"
   sodipodi:docname="application-vnd.oasis.opendocument.text-template.svg"
   inkscape:version="1.3.2 (1:1.3.2+202311252150+091e20ef0f)"
   xmlns:inkscape="http://www.inkscape.org/namespaces/inkscape"
   xmlns:sodipodi="http://sodipodi.sourceforge.net/DTD/sodipodi-0.dtd"
   xmlns:xlink="http://www.w3.org/1999/xlink"
   xmlns="http://www.w3.org/2000/svg"
   xmlns:svg="http://www.w3.org/2000/svg">
  <style
     type="text/css"
     id="current-color-scheme">
      .ColorScheme-Text {
        color:#232629;
      }
      .ColorScheme-Highlight {
        color:#3daee9;
      }
   </style>
  <sodipodi:namedview
     id="namedview35"
     pagecolor="#ffffff"
     bordercolor="#666666"
     borderopacity="1.0"
     inkscape:pageshadow="2"
     inkscape:pageopacity="0.0"
     inkscape:pagecheckerboard="0"
     showgrid="false"
     inkscape:zoom="9.8125"
     inkscape:cx="9.1719745"
     inkscape:cy="12.687898"
     inkscape:window-width="3440"
     inkscape:window-height="1356"
     inkscape:window-x="0"
     inkscape:window-y="0"
     inkscape:window-maximized="1"
     inkscape:current-layer="svg33"
     inkscape:showpageshadow="2"
     inkscape:deskcolor="#d1d1d1">
  </sodipodi:namedview>
  <defs
     id="defs13">
    <linearGradient
       id="c"
       y1="17"
       y2="24"
       x1="47"
       x2="54"
       gradientUnits="userSpaceOnUse"
       gradientTransform="translate(357.57,507.8)">
      <stop
         stop-color="#060606"
         id="stop2" />
      <stop
         offset="1"
         stop-opacity="0"
         id="stop4" />
    </linearGradient>
    <linearGradient
       xlink:href="#a"
       id="b"
       x1="5"
       y1="30"
       x2="5"
       y2="2"
       gradientUnits="userSpaceOnUse"
       gradientTransform="matrix(1.999999,0,0,1.999999,-39.999975,1.14e-5)" />
    <linearGradient
       id="a"
       y1="392.36"
       y2="365.36"
       x2="0"
       gradientUnits="userSpaceOnUse"
       gradientTransform="translate(309.57 152.44)">
      <stop
         stop-color="#fff"
         stop-opacity="0"
         id="stop8" />
      <stop
         offset="1"
         stop-color="#fff"
         stop-opacity=".2"
         id="stop10" />
    </linearGradient>
  </defs>
  <path
     d="M 39.999985,4.0000094 H 15.999997 C 12.675999,4.0000094 10,6.676008 10,10.000006 v 43.999978 c 0,3.323999 2.675999,5.999997 5.999997,5.999997 h 31.999984 c 3.323998,0 5.999997,-2.675998 5.999997,-5.999997 V 18.000002 Z"
     id="path15"
     style="display:inline;fill:#555555;fill-opacity:1;stroke-width:2" />
  <path
     d="m 15.999997,4.0000094 c -0.782,0 -1.315999,0.5539997 -1.999999,0.8239996 V 7.9960074 H 10.828 c -0.27,0.6819996 -0.822,1.2159994 -0.824,1.995999 v 0.004 h 3.995998 V 13.996004 H 10.004 v 1.999999 h 3.995998 v 3.999998 H 10.004 V 21.996 h 3.995998 v 3.999998 H 10.004 v 1.999999 h 3.995998 v 3.999998 H 10.004 v 1.999999 h 3.995998 v 3.999998 H 10.004 v 1.999999 h 3.995998 v 3.999998 H 10.004 v 1.999999 h 3.995998 v 3.999998 H 10.004 v 1.999999 h 3.995998 v 3.999998 H 10.824 c 0.269999,0.686 0.339999,1.465999 0.827999,1.999999 h 2.347999 v 1.18 c 0.68,0.268 1.213999,0.819999 1.991999,0.819999 h 0.008 v -1.999999 h 3.999998 v 1.999999 h 1.999999 v -1.999999 h 3.999998 v 1.999999 h 1.999999 v -1.999999 h 3.999998 v 1.999999 h 1.999999 v -1.999999 h 3.999998 v 1.999999 h 1.999999 v -1.999999 h 3.999998 v 1.999999 h 1.999999 v -1.999999 h 3.999998 v 1.18 c 0.684,-0.27 1.465999,-0.34 1.999999,-0.828 v -0.352 h 0.348 c 0.487999,-0.534 0.557999,-1.313999 0.827999,-1.999999 h -1.175999 v -3.999998 h 1.999999 v -1.999999 h -1.999999 v -3.999998 h 1.999999 v -1.999999 h -1.999999 v -3.999998 h 1.999999 v -1.999999 h -1.999999 v -3.999998 h 1.999999 v -1.999999 h -1.999999 v -3.999998 h 1.999999 V 25.995998 H 51.999979 V 21.996 h 1.999999 V 19.996001 H 51.999979 V 15.996003 L 49.99998,13.996004 H 45.999982 V 9.9960064 l -1.999999,-1.999999 h -3.999998 v -3.995998 h -1.999999 v 3.995998 h -3.999998 v -3.995998 h -1.999999 v 3.995998 h -3.999998 v -3.995998 h -1.999999 v 3.995998 h -3.999998 v -3.995998 h -1.999999 v 3.995998 h -3.999998 z m 0,5.995997 h 3.999998 v 3.9999976 h -3.999998 z m 5.999997,0 h 3.999998 v 3.9999976 h -3.999998 z m 5.999997,0 h 3.999998 v 3.9999976 h -3.999998 z m 5.999997,0 h 3.999998 v 3.9999976 h -3.999998 z m 5.999997,0 h 3.999998 V 13.996004 H 39.999985 Z M 15.999997,15.996003 h 3.999998 v 3.999998 h -3.999998 z m 5.999997,0 h 3.999998 v 3.999998 h -3.999998 z m 5.999997,0 h 3.999998 v 3.999998 h -3.999998 z m 5.999997,0 h 3.999998 v 3.999998 h -3.999998 z m 5.999997,0 h 3.999998 v 3.999998 h -3.999998 z m 5.999997,0 h 3.999998 v 3.999998 H 45.999982 Z M 15.999997,21.996 h 3.999998 v 3.999998 h -3.999998 z m 5.999997,0 h 3.999998 v 3.999998 h -3.999998 z m 5.999997,0 h 3.999998 v 3.999998 h -3.999998 z m 5.999997,0 h 3.999998 v 3.999998 h -3.999998 z m 5.999997,0 h 3.999998 v 3.999998 h -3.999998 z m 5.999997,0 h 3.999998 v 3.999998 h -3.999998 z m -29.999985,5.999997 h 3.999998 v 3.999998 h -3.999998 z m 5.999997,0 h 3.999998 v 3.999998 h -3.999998 z m 5.999997,0 h 3.999998 v 3.999998 h -3.999998 z m 5.999997,0 h 3.999998 v 3.999998 h -3.999998 z m 5.999997,0 h 3.999998 v 3.999998 h -3.999998 z m 5.999997,0 h 3.999998 v 3.999998 h -3.999998 z m -29.999985,5.999997 h 3.999998 v 3.999998 h -3.999998 z m 5.999997,0 h 3.999998 v 3.999998 h -3.999998 z m 5.999997,0 h 3.999998 v 3.999998 h -3.999998 z m 5.999997,0 h 3.999998 v 3.999998 h -3.999998 z m 5.999997,0 h 3.999998 v 3.999998 h -3.999998 z m 5.999997,0 h 3.999998 v 3.999998 h -3.999998 z m -29.999985,5.999997 h 3.999998 v 3.999998 h -3.999998 z m 5.999997,0 h 3.999998 v 3.999998 h -3.999998 z m 5.999997,0 h 3.999998 v 3.999998 h -3.999998 z m 5.999997,0 h 3.999998 v 3.999998 h -3.999998 z m 5.999997,0 h 3.999998 v 3.999998 h -3.999998 z m 5.999997,0 h 3.999998 v 3.999998 h -3.999998 z m -29.999985,5.999997 h 3.999998 v 3.999998 h -3.999998 v -1.999999 z m 5.999997,0 h 3.999998 v 3.999998 h -3.999998 v -1.999999 z m 5.999997,0 h 3.999998 v 3.999998 h -3.999998 v -1.999999 z m 5.999997,0 h 3.999998 v 3.999998 h -3.999998 v -1.999999 z m 5.999997,0 h 3.999998 v 3.999998 h -3.999998 v -1.999999 z m 5.999997,0 h 3.999998 v 3.999998 h -3.999998 v -1.999999 z m -29.999985,5.999997 h 3.999998 v 3.999998 h -3.999998 v -1.999999 z m 5.999997,0 h 3.999998 v 3.999998 h -3.999998 v -1.999999 z m 5.999997,0 h 3.999998 v 3.999998 h -3.999998 v -1.999999 z m 5.999997,0 h 3.999998 v 3.999998 h -3.999998 v -1.999999 z m 5.999997,0 h 3.999998 v 3.999998 h -3.999998 v -1.999999 z m 5.999997,0 h 3.999998 v 3.999998 h -3.999998 v -1.999999 z"
     color="#000000"
     opacity="0.15"
     fill="#ffffff"
     id="path17"
     style="display:inline;stroke-width:2" />
  <path
     d="m 15.999997,4.0000094 a 5.979997,5.979997 0 0 0 -4.245998,1.7539991 c -0.062,0.062 -0.04,0.1799999 -0.1,0.2459999 h 28.345986 v -1.999999 z"
     opacity="0.6"
     id="path21"
     style="display:inline;stroke-width:2" />
  <path
     d="m 11.651999,57.999982 c 0.06,0.066 0.04,0.184 0.102,0.246 a 5.979997,5.979997 0 0 0 4.245998,1.753999 h 31.999984 a 5.979997,5.979997 0 0 0 4.245998,-1.753999 c 0.062,-0.062 0.04,-0.18 0.1,-0.246 z"
     id="path23"
     class="ColorScheme-Highlight"
     style="display:inline;opacity:1;fill:currentColor;fill-opacity:1;stroke-width:2" />
  <path
     d="m 19.999995,21.996 v 1.999999 H 31.999989 V 21.996 Z m 0,5.999997 v 1.999999 h 23.999988 v -1.999999 z m 0,5.999997 v 1.999999 h 9.999995 v -1.999999 z m 11.999994,0 V 45.995988 H 43.999983 V 33.995994 Z m 1.999999,1.999999 h 7.999996 v 7.999996 h -7.999996 z m -13.999993,1.999999 v 1.999999 h 9.999995 v -1.999999 z m 0,5.999997 v 1.999999 h 9.999995 v -1.999999 z"
     id="path19"
     sodipodi:nodetypes="ccccccccccccccccccccccccccccccccccc"
     style="fill:#ffffff;fill-opacity:1;stroke-width:2" />
  <path
     d="M 39.999985,4.0000094 H 15.999997 C 12.675999,4.0000094 10,6.676008 10,10.000006 v 43.999978 c 0,3.323999 2.675999,5.999997 5.999997,5.999997 h 31.999984 c 3.323998,0 5.999997,-2.675998 5.999997,-5.999997 V 18.000002 Z"
     opacity="0.4"
     fill="url(#b)"
     id="path25"
     style="display:inline;fill:url(#b);stroke-width:2" />
  <g
     fill-rule="evenodd"
     id="g31"
     style="display:inline"
     transform="matrix(1.999999,0,0,1.999999,5.6294644e-6,1.1400117e-5)">
    <path
       d="m 404.57,524.8 7,7 v -7 z"
       opacity="0.2"
       fill="url(#c)"
       transform="translate(-384.57,-515.8)"
       id="path27"
       style="display:inline;fill:url(#c)" />
    <path
       d="M 27,9 20,2 v 7 z"
       id="path29"
       style="display:inline;opacity:0.6;fill:#ffffff;fill-opacity:1" />
  </g>
</svg>
