<?xml version="1.0" encoding="UTF-8" standalone="no"?>
<svg
   width="64"
   height="64"
   version="1.1"
   id="svg29"
   sodipodi:docname="application-x-m4.svg"
   inkscape:version="1.3.2 (1:1.3.2+202311252150+091e20ef0f)"
   xmlns:inkscape="http://www.inkscape.org/namespaces/inkscape"
   xmlns:sodipodi="http://sodipodi.sourceforge.net/DTD/sodipodi-0.dtd"
   xmlns:xlink="http://www.w3.org/1999/xlink"
   xmlns="http://www.w3.org/2000/svg"
   xmlns:svg="http://www.w3.org/2000/svg">
  <style
     type="text/css"
     id="current-color-scheme">
      .ColorScheme-Text {
        color:#232629;
      }
      .ColorScheme-Highlight {
        color:#3daee9;
      }
   </style>
  <sodipodi:namedview
     id="namedview31"
     pagecolor="#ffffff"
     bordercolor="#666666"
     borderopacity="1.0"
     inkscape:pageshadow="2"
     inkscape:pageopacity="0.0"
     inkscape:pagecheckerboard="0"
     showgrid="false"
     inkscape:zoom="10.51"
     inkscape:cx="-0.95147479"
     inkscape:cy="15.937203"
     inkscape:window-width="3440"
     inkscape:window-height="1356"
     inkscape:window-x="0"
     inkscape:window-y="0"
     inkscape:window-maximized="1"
     inkscape:current-layer="svg29"
     inkscape:showpageshadow="2"
     inkscape:deskcolor="#d1d1d1">
  </sodipodi:namedview>
  <defs
     id="defs13">
    <linearGradient
       id="a"
       y1="392.36"
       y2="365.36"
       x2="0"
       gradientUnits="userSpaceOnUse"
       gradientTransform="translate(309.57 152.44)">
      <stop
         stop-color="#fff"
         stop-opacity="0"
         id="stop2" />
      <stop
         offset="1"
         stop-color="#fff"
         stop-opacity=".2"
         id="stop4" />
    </linearGradient>
    <linearGradient
       id="b"
       y1="17"
       y2="24"
       x1="47"
       x2="54"
       gradientUnits="userSpaceOnUse"
       gradientTransform="matrix(2,0,0,1.999999,-54,-15.999981)">
      <stop
         stop-color="#060606"
         id="stop7" />
      <stop
         offset="1"
         stop-opacity="0"
         id="stop9" />
    </linearGradient>
    <linearGradient
       xlink:href="#a"
       id="c"
       x1="5"
       y1="30"
       x2="5"
       y2="2"
       gradientUnits="userSpaceOnUse"
       gradientTransform="translate(-20)" />
  </defs>
  <path
     d="M 40,4.0000094 H 16 c -3.324,0 -6,2.6759986 -6,5.9999966 v 43.999978 c 0,3.323999 2.676,5.999997 6,5.999997 h 32 c 3.324,0 6,-2.675998 6,-5.999997 V 18.000002 Z"
     id="path15"
     style="display:inline;fill:#b9b9b9;fill-opacity:1;stroke-width:2" />
  <path
     d="m 16,4.0000094 a 5.98,5.979997 0 0 0 -4.246,1.7539991 c -0.062,0.062 -0.04,0.1799999 -0.1,0.2459999 H 40 v -1.999999 z"
     color="#000000"
     opacity="0.5"
     fill="#ffffff"
     id="path17"
     style="display:inline;stroke-width:2" />
  <path
     d="m 11.652,57.999982 c 0.06,0.066 0.04,0.184 0.102,0.246 A 5.98,5.979997 0 0 0 16,59.999981 h 32 a 5.98,5.979997 0 0 0 4.246,-1.753999 c 0.062,-0.062 0.04,-0.18 0.1,-0.246 H 11.654 Z"
     id="path19"
     class="ColorScheme-Highlight"
     style="display:inline;opacity:1;fill:currentColor;fill-opacity:1;stroke-width:2" />
  <path
     d="M 54,18.000002 40,4.0000094 V 18.000002 Z"
     color="#000000"
     opacity="0.5"
     fill="#ffffff"
     fill-rule="evenodd"
     id="path21"
     style="stroke-width:2" />
  <path
     d="M 40,18.000002 54,31.999995 V 18.000002 Z"
     opacity="0.1"
     fill="url(#b)"
     fill-rule="evenodd"
     id="path23"
     style="display:inline;fill:url(#b);stroke-width:2" />
  <path
     d="M 20,1.9999999 H 7.9999996 c -1.662,0 -3,1.3380001 -3,3.0000001 v 22 c 0,1.662 1.338,3 3,3 H 24 c 1.662,0 3,-1.338 3,-3 V 9 Z"
     opacity="0.4"
     fill="url(#c)"
     id="path27"
     style="display:none;fill:url(#c)" />
  <g
     fill="#8096a0"
     id="g36"
     transform="matrix(2,0,0,1.999999,-0.0766786,-2.3413476)"
     style="fill:#4a4a4a;fill-opacity:1">
    <path
       d="m 18.307252,15.157049 c 0.019,-0.152 0.033,-0.306 0.033,-0.463 0,-0.157 -0.014,-0.311 -0.033,-0.463 l 1,-0.785 a 0.237,0.237 0 0 0 0.057,-0.304 l -0.949,-1.644 a 0.234,0.234 0 0 0 -0.289,-0.102 l -1.182,0.477 a 3.618,3.618 0 0 0 -0.802,-0.467 l -0.178,-1.258 a 0.243,0.243 0 0 0 -0.237,-0.1989998 h -1.898 a 0.24,0.24 0 0 0 -0.235,0.1989998 l -0.178,1.258 a 3.542,3.542 0 0 0 -0.802,0.467 l -1.182,-0.477 a 0.237,0.237 0 0 0 -0.289,0.102 l -0.949,1.644 a 0.239,0.239 0 0 0 0.057,0.304 l 1,0.785 a 3.723,3.723 0 0 0 -0.033,0.463 c 0,0.157 0.014,0.311 0.033,0.463 l -1,0.785 a 0.237,0.237 0 0 0 -0.057,0.304 l 0.949,1.644 a 0.234,0.234 0 0 0 0.289,0.102 l 1.182,-0.477 c 0.244,0.187 0.513,0.346 0.802,0.467 l 0.178,1.258 a 0.239,0.239 0 0 0 0.235,0.199 h 1.898 a 0.24,0.24 0 0 0 0.235,-0.199 l 0.178,-1.258 c 0.289,-0.121 0.558,-0.278 0.802,-0.467 l 1.182,0.477 c 0.107,0.04 0.23,0 0.289,-0.102 l 0.949,-1.644 a 0.239,0.239 0 0 0 -0.057,-0.304 z m -3.526,1.198 a 1.661,1.661 0 1 1 0,-3.322 1.661,1.661 0 1 1 0,3.322 m 6.236,7.192 c 0.065,-0.091 0.129,-0.185 0.184,-0.286 0.055,-0.101 0.1,-0.205 0.141,-0.309 l 0.921,-0.153 a 0.172,0.172 0 0 0 0.143,-0.175 l -0.033,-1.39 a 0.173,0.173 0 0 0 -0.15,-0.167 l -0.927,-0.108 a 2.668,2.668 0 0 0 -0.351,-0.582 l 0.327,-0.871 a 0.178,0.178 0 0 0 -0.083,-0.211 l -1.22,-0.666 a 0.175,0.175 0 0 0 -0.221,0.046 l -0.555,0.746 a 2.57,2.57 0 0 0 -0.679,0.019 l -0.592,-0.721 a 0.174,0.174 0 0 0 -0.222,-0.036 l -1.187,0.724 a 0.174,0.174 0 0 0 -0.07,0.215 l 0.368,0.856 a 2.792,2.792 0 0 0 -0.184,0.286 c -0.055,0.101 -0.1,0.205 -0.141,0.309 l -0.919,0.154 a 0.172,0.172 0 0 0 -0.143,0.175 l 0.033,1.39 a 0.173,0.173 0 0 0 0.15,0.167 l 0.927,0.108 c 0.091,0.206 0.208,0.402 0.351,0.582 l -0.327,0.871 a 0.175,0.175 0 0 0 0.081,0.21 l 1.22,0.666 c 0.076,0.042 0.17,0.019 0.221,-0.046 l 0.555,-0.746 c 0.228,0.024 0.456,0.017 0.679,-0.019 l 0.592,0.721 a 0.174,0.174 0 0 0 0.222,0.036 l 1.187,-0.724 a 0.174,0.174 0 0 0 0.07,-0.215 z m -2.686,-0.467 a 1.2151672,1.2151672 0 1 1 1.163,-2.134 1.2151672,1.2151672 0 0 1 -1.163,2.134"
       id="path34"
       style="fill:#4a4a4a;fill-opacity:1" />
  </g>
</svg>
