<?xml version="1.0" encoding="UTF-8" standalone="no"?>
<svg
   width="64"
   height="64"
   version="1.1"
   id="svg32"
   sodipodi:docname="image-x-psd.svg"
   inkscape:version="1.3.2 (1:1.3.2+202311252150+091e20ef0f)"
   xmlns:inkscape="http://www.inkscape.org/namespaces/inkscape"
   xmlns:sodipodi="http://sodipodi.sourceforge.net/DTD/sodipodi-0.dtd"
   xmlns:xlink="http://www.w3.org/1999/xlink"
   xmlns="http://www.w3.org/2000/svg"
   xmlns:svg="http://www.w3.org/2000/svg">
  <style
     type="text/css"
     id="current-color-scheme">
      .ColorScheme-Text {
        color:#232629;
      }
      .ColorScheme-Highlight {
        color:#3daee9;
      }
      </style>
  <sodipodi:namedview
     id="namedview34"
     pagecolor="#ffffff"
     bordercolor="#666666"
     borderopacity="1.0"
     inkscape:pageshadow="2"
     inkscape:pageopacity="0.0"
     inkscape:pagecheckerboard="0"
     showgrid="false"
     inkscape:zoom="13.876971"
     inkscape:cx="15.27711"
     inkscape:cy="27.635715"
     inkscape:window-width="3440"
     inkscape:window-height="1356"
     inkscape:window-x="0"
     inkscape:window-y="0"
     inkscape:window-maximized="1"
     inkscape:current-layer="g842"
     inkscape:showpageshadow="2"
     inkscape:deskcolor="#d1d1d1">
  </sodipodi:namedview>
  <defs
     id="defs14">
    <linearGradient
       id="b"
       y1="17"
       x1="47"
       y2="24"
       gradientUnits="userSpaceOnUse"
       x2="54"
       gradientTransform="translate(360.57 510.8)">
      <stop
         stop-color="#060606"
         id="stop2" />
      <stop
         offset="1"
         stop-opacity="0"
         id="stop4" />
    </linearGradient>
    <linearGradient
       xlink:href="#a"
       id="c"
       x1="-.978"
       y1="29.155"
       x2="-.978"
       y2="-1.341"
       gradientUnits="userSpaceOnUse"
       gradientTransform="translate(-20.004)" />
    <linearGradient
       id="a"
       y1="392.36"
       y2="320.48"
       gradientUnits="userSpaceOnUse"
       x2="0"
       gradientTransform="matrix(.5 0 0 .42294 418.57 378.93)">
      <stop
         stop-color="#fff"
         stop-opacity="0"
         id="stop8" />
      <stop
         offset="1"
         stop-color="#fff"
         stop-opacity=".2"
         id="stop10" />
    </linearGradient>
    <linearGradient
       xlink:href="#b"
       id="d"
       gradientUnits="userSpaceOnUse"
       gradientTransform="translate(360.57 510.8)"
       x1="47"
       y1="17"
       x2="54"
       y2="24" />
    <linearGradient
       xlink:href="#a-1"
       id="b-6"
       gradientUnits="userSpaceOnUse"
       x1="-75"
       y1="59"
       x2="-75"
       y2="-1"
       gradientTransform="matrix(2.0033738,0,0,2.0042613,80.263396,-1.1200577)" />
    <linearGradient
       id="a-1"
       y1="392.35999"
       y2="320.48001"
       x2="0"
       gradientUnits="userSpaceOnUse"
       gradientTransform="matrix(1,0,0,0.84587,-34,-272.73)">
      <stop
         stop-color="#fff"
         stop-opacity="0"
         id="stop3" />
      <stop
         offset="1"
         stop-color="#fff"
         stop-opacity=".2"
         id="stop5" />
    </linearGradient>
    <linearGradient
       gradientTransform="matrix(2.0033738,0,0,2.0042613,12.148687,14.914034)"
       id="c-0"
       y1="17.475"
       y2="31"
       x1="41.616001"
       x2="54"
       gradientUnits="userSpaceOnUse">
      <stop
         stop-color="#060606"
         id="stop8-6" />
      <stop
         offset="1"
         stop-opacity="0"
         id="stop10-1" />
    </linearGradient>
  </defs>
  <g
     id="g842"
     transform="matrix(0.49933608,0,0,0.49933608,-0.00555211,-0.54951507)"
     style="display:inline">
    <path
       d="M 92.28364,20.926818 H 18.158808 c -5.549345,0 -10.0168693,4.469503 -10.0168693,10.021307 v 80.170455 c 0,5.5518 4.4675243,10.0213 10.0168693,10.0213 H 110.314 c 5.54935,0 10.01687,-4.4695 10.01687,-10.0213 V 48.986477 Z"
       id="path15"
       inkscape:connector-curvature="0"
       style="display:inline;fill:#555555;fill-opacity:1;stroke-width:2.00382" />
    <path
       d="M 92.28364,20.926818 H 18.158808 c -5.549345,0 -10.0168693,4.469503 -10.0168693,10.021307 v 80.170455 c 0,5.5518 4.4675243,10.0213 10.0168693,10.0213 H 110.314 c 5.54935,0 10.01687,-4.4695 10.01687,-10.0213 V 48.986477 Z"
       id="path17"
       style="display:inline;fill:url(#b-6);stroke-width:2.00382"
       inkscape:connector-curvature="0" />
    <path
       d="m 120.33087,109.08626 a 10.024883,10.029324 0 0 1 -2.92492,7.09508 9.994832,9.9992598 0 0 1 -7.09195,2.92622 H 18.158808 a 10.026886,10.031328 0 0 1 -7.091943,-2.92622 9.994832,9.9992598 0 0 1 -2.9249263,-7.09709 v 2.03433 c 0,5.5518 4.4675243,10.0213 10.0168693,10.0213 H 110.314 c 5.54935,0 10.01687,-4.4695 10.01687,-10.0213 z"
       id="path19"
       inkscape:connector-curvature="0"
       style="display:inline;opacity:1;fill:#363636;fill-opacity:1;stroke-width:2.00382" />
    <path
       d="M 92.28364,20.926818 H 18.158808 c -5.549345,0 -10.0168693,4.469503 -10.0168693,10.021307 v 2.284858 a 10.026886,10.031328 0 0 1 2.9249263,-7.091077 9.994832,9.9992598 0 0 1 7.091943,-2.93023 H 92.28364 Z"
       id="path21"
       inkscape:connector-curvature="0"
       style="display:inline;opacity:0.3;fill:#ffffff;stroke-width:2.00382" />
    <path
       d="M 93.746103,47.549421 120.33087,77.046135 V 48.986477 H 97.221957 c -1.362295,0 -2.584353,-0.553177 -3.475854,-1.437056 z"
       id="path23"
       style="display:inline;opacity:0.2;fill:url(#c-0);fill-rule:evenodd;stroke-width:2.00382"
       inkscape:connector-curvature="0" />
    <path
       d="m 92.28364,20.926818 v 23.119154 a 4.9202861,4.9224658 0 0 0 4.938317,4.940505 h 23.108913 z"
       id="path25"
       inkscape:connector-curvature="0"
       style="display:inline;opacity:0.6;fill:#ffffff;fill-rule:evenodd;stroke-width:2.00382" />
    <path
       style="opacity:0.75;isolation:auto;mix-blend-mode:normal;solid-opacity:1;fill:currentColor;fill-opacity:1;stroke-width:4.01297"
       d="M 52.856394,50.51498 A 14.800545,14.807101 0 0 0 38.023755,65.354193 c 0,2.70935 0.730197,5.238076 1.989989,7.417598 l -0.01202,-0.004 0.204616,0.321109 c 0.144443,0.232803 0.280845,0.46962 0.433304,0.690381 L 60.274737,104.91473 V 80.18939 H 77.574803 A 14.800545,14.807101 0 0 0 92.407445,65.346164 14.800545,14.807101 0 0 0 77.574803,50.510966 Z m 24.714383,4.945066 a 9.8857529,9.8901324 0 0 1 9.889765,9.894147 9.8857529,9.8901324 0 0 1 -9.885755,9.890131 9.8857529,9.8901324 0 0 1 -9.889763,-9.890131 9.8857529,9.8901324 0 0 1 9.889763,-9.894147"
       overflow="visible"
       id="path26"
       class="ColorScheme-Highlight" />
  </g>
</svg>
