<?xml version="1.0" encoding="UTF-8" standalone="no"?>
<svg
   width="64"
   height="64"
   version="1.1"
   id="svg29"
   sodipodi:docname="text-rust.svg"
   inkscape:version="1.3.2 (1:1.3.2+202311252150+091e20ef0f)"
   xmlns:inkscape="http://www.inkscape.org/namespaces/inkscape"
   xmlns:sodipodi="http://sodipodi.sourceforge.net/DTD/sodipodi-0.dtd"
   xmlns:xlink="http://www.w3.org/1999/xlink"
   xmlns="http://www.w3.org/2000/svg"
   xmlns:svg="http://www.w3.org/2000/svg">
  <style
     type="text/css"
     id="current-color-scheme">
      .ColorScheme-Text {
        color:#232629;
      }
      .ColorScheme-Highlight {
        color:#3daee9;
      }
   </style>
  <sodipodi:namedview
     id="namedview31"
     pagecolor="#ffffff"
     bordercolor="#666666"
     borderopacity="1.0"
     inkscape:pageshadow="2"
     inkscape:pageopacity="0.0"
     inkscape:pagecheckerboard="0"
     showgrid="false"
     inkscape:zoom="9.8125"
     inkscape:cx="6.6242038"
     inkscape:cy="28.687898"
     inkscape:window-width="3440"
     inkscape:window-height="1356"
     inkscape:window-x="0"
     inkscape:window-y="0"
     inkscape:window-maximized="1"
     inkscape:current-layer="svg29"
     inkscape:showpageshadow="2"
     inkscape:deskcolor="#d1d1d1">
  </sodipodi:namedview>
  <defs
     id="defs13">
    <linearGradient
       id="a"
       y1="392.36"
       y2="365.36"
       x2="0"
       gradientUnits="userSpaceOnUse"
       gradientTransform="translate(309.57 152.44)">
      <stop
         stop-color="#fff"
         stop-opacity="0"
         id="stop2" />
      <stop
         offset="1"
         stop-color="#fff"
         stop-opacity=".2"
         id="stop4" />
    </linearGradient>
    <linearGradient
       id="b"
       y1="17"
       y2="24"
       x1="47"
       x2="54"
       gradientUnits="userSpaceOnUse"
       gradientTransform="matrix(2,0,0,1.999999,-54,-15.999981)">
      <stop
         stop-color="#060606"
         id="stop7" />
      <stop
         offset="1"
         stop-opacity="0"
         id="stop9" />
    </linearGradient>
    <linearGradient
       xlink:href="#a"
       id="c"
       x1="5"
       y1="30"
       x2="5"
       y2="2"
       gradientUnits="userSpaceOnUse"
       gradientTransform="matrix(2,0,0,1.999999,-40,1.15e-5)" />
  </defs>
  <path
     d="M 40,4.0000095 H 16 c -3.324,0 -6,2.6759986 -6,5.9999965 v 43.999978 c 0,3.323999 2.676,5.999997 6,5.999997 h 32 c 3.324,0 6,-2.675998 6,-5.999997 V 18.000002 Z"
     id="path15"
     style="fill:#555555;fill-opacity:1;stroke-width:2" />
  <path
     d="m 16,4.0000095 a 5.98,5.979997 0 0 0 -4.246,1.7539991 c -0.062,0.062 -0.04,0.1799999 -0.1,0.2459999 H 40 v -1.999999 z"
     color="#000000"
     opacity="0.5"
     fill="#ffffff"
     id="path17"
     style="display:inline;stroke-width:2" />
  <path
     d="m 11.652,57.999982 c 0.06,0.066 0.04,0.184 0.102,0.246 A 5.98,5.979997 0 0 0 16,59.999981 h 32 a 5.98,5.979997 0 0 0 4.246,-1.753999 c 0.062,-0.062 0.04,-0.18 0.1,-0.246 H 11.654 Z"
     id="path19"
     class="ColorScheme-Highlight"
     style="display:inline;opacity:1;fill:currentColor;fill-opacity:1;stroke-width:2" />
  <path
     d="M 54,18.000002 40,4.0000095 V 18.000002 Z"
     color="#000000"
     opacity="0.5"
     fill="#ffffff"
     fill-rule="evenodd"
     id="path21"
     style="stroke-width:2" />
  <path
     d="M 40,18.000002 54,31.999995 V 18.000002 Z"
     opacity="0.1"
     fill="url(#b)"
     fill-rule="evenodd"
     id="path23"
     style="fill:url(#b);stroke-width:2" />
  <path
     d="M 40,4.0000093 H 16 c -3.324,0 -6,2.6759988 -6,5.9999967 v 43.999978 c 0,3.323999 2.676,5.999997 6,5.999997 h 32 c 3.324,0 6,-2.675998 6,-5.999997 V 18.000002 Z"
     opacity="0.4"
     fill="url(#c)"
     id="path27"
     style="fill:url(#c);stroke-width:2" />
  <path
     fill="#e8d9eb"
     d="m 20.25671,22.528662 v 4.439998 h 4 v 11.107994 h -4 v 4.419998 c 4.224,0.018 7.758,0.022 12,0.022 v -4.441998 h -4 v -3.403998 l 4.976,0.038 c 0.328,0.002 1.75,0.106 2.204,2.183999 0.142,0.637999 0.456,2.713998 0.668,3.381998 0.214,0.746 1.08,2.243999 2,2.243999 1.984,-0.016 4.302,0.008 6.146,0.008 v -5.301997 a 1.92,1.919999 0 0 1 -0.89,0.317999 c -0.724,0.094 -1.526,-0.345999 -1.624,-0.849999 -0.426,-2.741999 -1.138,-3.327998 -2.26,-4.337998 1.394,-1.009999 2.844,-2.501999 2.844,-4.497998 0,-2.153999 -1.294,-3.513998 -2.176,-4.177998 -1.238,-0.929999 -2.606,-1.139999 -2.976,-1.139999 -5.656,0.032 -11.324,0 -16.918,0 z m 8,4.439998 h 6 c 0.242,0 2,0.605999 2,1.857999 0,1.039999 -1.344,1.601999 -2.268,1.601999 l -5.732,-0.038 z"
     id="path32"
     style="opacity:0.75;fill:#ffffff;fill-opacity:1;stroke-width:2" />
</svg>
