<?xml version="1.0" encoding="UTF-8" standalone="no"?>
<svg
   width="64"
   height="64"
   version="1.1"
   id="svg29"
   sodipodi:docname="text-dockerfile.svg"
   inkscape:version="1.3.2 (1:1.3.2+202311252150+091e20ef0f)"
   xmlns:inkscape="http://www.inkscape.org/namespaces/inkscape"
   xmlns:sodipodi="http://sodipodi.sourceforge.net/DTD/sodipodi-0.dtd"
   xmlns:xlink="http://www.w3.org/1999/xlink"
   xmlns="http://www.w3.org/2000/svg"
   xmlns:svg="http://www.w3.org/2000/svg">
  <style
     type="text/css"
     id="current-color-scheme">
      .ColorScheme-Text {
        color:#232629;
      }
      .ColorScheme-Highlight {
        color:#3daee9;
      }
   </style>
  <sodipodi:namedview
     id="namedview31"
     pagecolor="#ffffff"
     bordercolor="#666666"
     borderopacity="1.0"
     inkscape:pageshadow="2"
     inkscape:pageopacity="0.0"
     inkscape:pagecheckerboard="0"
     showgrid="false"
     inkscape:zoom="9.8125"
     inkscape:cx="-28.229299"
     inkscape:cy="18.089172"
     inkscape:window-width="3440"
     inkscape:window-height="1356"
     inkscape:window-x="0"
     inkscape:window-y="0"
     inkscape:window-maximized="1"
     inkscape:current-layer="svg29"
     inkscape:showpageshadow="2"
     inkscape:deskcolor="#d1d1d1">
  </sodipodi:namedview>
  <defs
     id="defs13">
    <linearGradient
       id="a"
       y1="392.36"
       y2="365.36"
       x2="0"
       gradientUnits="userSpaceOnUse"
       gradientTransform="translate(309.57 152.44)">
      <stop
         stop-color="#fff"
         stop-opacity="0"
         id="stop2" />
      <stop
         offset="1"
         stop-color="#fff"
         stop-opacity=".2"
         id="stop4" />
    </linearGradient>
    <linearGradient
       id="b"
       y1="17"
       y2="24"
       x1="47"
       x2="54"
       gradientUnits="userSpaceOnUse"
       gradientTransform="matrix(2,0,0,1.999999,-54,-15.999981)">
      <stop
         stop-color="#060606"
         id="stop7" />
      <stop
         offset="1"
         stop-opacity="0"
         id="stop9" />
    </linearGradient>
    <linearGradient
       xlink:href="#a"
       id="c"
       x1="5"
       y1="30"
       x2="5"
       y2="2"
       gradientUnits="userSpaceOnUse"
       gradientTransform="matrix(2,0,0,1.999999,-40,1.15e-5)" />
  </defs>
  <path
     d="M 40,4.0000095 H 16 c -3.324,0 -6,2.6759986 -6,5.9999965 v 43.999978 c 0,3.323999 2.676,5.999997 6,5.999997 h 32 c 3.324,0 6,-2.675998 6,-5.999997 V 18.000002 Z"
     id="path15"
     style="fill:#555555;fill-opacity:1;stroke-width:2" />
  <path
     d="m 16,4.0000095 a 5.98,5.979997 0 0 0 -4.246,1.7539991 c -0.062,0.062 -0.04,0.1799999 -0.1,0.2459999 H 40 v -1.999999 z"
     color="#000000"
     opacity="0.5"
     fill="#ffffff"
     id="path17"
     style="display:inline;stroke-width:2" />
  <path
     d="m 11.652,57.999982 c 0.06,0.066 0.04,0.184 0.102,0.246 A 5.98,5.979997 0 0 0 16,59.999981 h 32 a 5.98,5.979997 0 0 0 4.246,-1.753999 c 0.062,-0.062 0.04,-0.18 0.1,-0.246 H 11.654 Z"
     id="path19"
     class="ColorScheme-Highlight"
     style="display:inline;opacity:1;fill:currentColor;fill-opacity:1;stroke-width:2" />
  <path
     d="M 54,18.000002 40,4.0000095 V 18.000002 Z"
     color="#000000"
     opacity="0.5"
     fill="#ffffff"
     fill-rule="evenodd"
     id="path21"
     style="stroke-width:2" />
  <path
     d="M 40,18.000002 54,31.999995 V 18.000002 Z"
     opacity="0.1"
     fill="url(#b)"
     fill-rule="evenodd"
     id="path23"
     style="fill:url(#b);stroke-width:2" />
  <path
     d="M 40,4.0000093 H 16 c -3.324,0 -6,2.6759988 -6,5.9999967 v 43.999978 c 0,3.323999 2.676,5.999997 6,5.999997 h 32 c 3.324,0 6,-2.675998 6,-5.999997 V 18.000002 Z"
     opacity="0.4"
     fill="url(#c)"
     id="path27"
     style="fill:url(#c);stroke-width:2" />
  <path
     d="m 27.91057,25.625288 v 3.115999 h 3.116 v -3.115999 z m 4,0 v 3.115999 h 3.116 v -3.115999 z m 8.52,2.565999 a 3,2.9999985 0 0 0 -1.204,3.245999 3,2.9999985 0 0 0 2.664,2.209998 3,2.9999985 0 0 0 2.824,1.999999 3,2.9999985 0 0 0 2.824,-1.999999 3,2.9999985 0 0 0 -2.824,-1.999999 3,2.9999985 0 0 0 -1.696,0.532 3,2.9999985 0 0 0 -2.588,-3.987998 z m 1.46,5.455997 H 17.890572 c 0,6.627997 5.371998,9.999995 11.999998,9.999995 6.628,0 12,-3.371998 12,-9.999995 z m -19.118,-4.007998 v 3.117999 h 3.118 v -3.117999 z m 4,0 v 3.117999 h 3.118 v -3.117999 z m 4,0 v 3.117999 h 3.118 v -3.117999 z m 4,0 v 3.117999 h 3.118 v -3.117999 z m -11.882,6.007997 a 1,0.9999995 0 0 1 1,1 1,0.9999995 0 0 1 -1,0.999999 1,0.9999995 0 0 1 -1,-0.999999 1,0.9999995 0 0 1 1,-1 z"
     style="isolation:auto;mix-blend-mode:normal;solid-color:#000000;solid-opacity:1;fill:#ffffff;fill-opacity:1;marker:none"
     color="#000000"
     overflow="visible"
     opacity="0.75"
     stroke-width="0.264"
     id="path27-1" />
</svg>
