<?xml version="1.0" encoding="UTF-8" standalone="no"?>
<svg
   width="64"
   height="64"
   version="1.1"
   id="svg29"
   sodipodi:docname="text-x-sass.svg"
   inkscape:version="1.3.2 (1:1.3.2+202311252150+091e20ef0f)"
   xmlns:inkscape="http://www.inkscape.org/namespaces/inkscape"
   xmlns:sodipodi="http://sodipodi.sourceforge.net/DTD/sodipodi-0.dtd"
   xmlns:xlink="http://www.w3.org/1999/xlink"
   xmlns="http://www.w3.org/2000/svg"
   xmlns:svg="http://www.w3.org/2000/svg">
  <style
     type="text/css"
     id="current-color-scheme">
      .ColorScheme-Text {
        color:#232629;
      }
      .ColorScheme-Highlight {
        color:#3daee9;
      }
   </style>
  <sodipodi:namedview
     id="namedview31"
     pagecolor="#ffffff"
     bordercolor="#666666"
     borderopacity="1.0"
     inkscape:pageshadow="2"
     inkscape:pageopacity="0.0"
     inkscape:pagecheckerboard="0"
     showgrid="false"
     inkscape:zoom="9.8125"
     inkscape:cx="-14.165605"
     inkscape:cy="23.286624"
     inkscape:window-width="3440"
     inkscape:window-height="1356"
     inkscape:window-x="0"
     inkscape:window-y="0"
     inkscape:window-maximized="1"
     inkscape:current-layer="svg29"
     inkscape:showpageshadow="2"
     inkscape:deskcolor="#d1d1d1">
  </sodipodi:namedview>
  <defs
     id="defs13">
    <linearGradient
       id="a"
       y1="392.36"
       y2="365.36"
       x2="0"
       gradientUnits="userSpaceOnUse"
       gradientTransform="translate(309.57 152.44)">
      <stop
         stop-color="#fff"
         stop-opacity="0"
         id="stop2" />
      <stop
         offset="1"
         stop-color="#fff"
         stop-opacity=".2"
         id="stop4" />
    </linearGradient>
    <linearGradient
       id="b"
       y1="17"
       y2="24"
       x1="47"
       x2="54"
       gradientUnits="userSpaceOnUse"
       gradientTransform="matrix(2,0,0,1.999999,-54,-15.999981)">
      <stop
         stop-color="#060606"
         id="stop7" />
      <stop
         offset="1"
         stop-opacity="0"
         id="stop9" />
    </linearGradient>
    <linearGradient
       xlink:href="#a"
       id="c"
       x1="5"
       y1="30"
       x2="5"
       y2="2"
       gradientUnits="userSpaceOnUse"
       gradientTransform="matrix(2,0,0,1.999999,-40,1.15e-5)" />
    <linearGradient
       id="e"
       y1="536.83002"
       x1="406.84"
       y2="524.58002"
       x2="400.70999"
       gradientUnits="userSpaceOnUse">
      <stop
         stop-color="#c61423"
         id="stop17" />
      <stop
         offset="1"
         stop-color="#dc2b41"
         id="stop19" />
    </linearGradient>
    <linearGradient
       id="f"
       y1="524.58002"
       x1="400.70999"
       y2="536.83002"
       x2="394.59"
       gradientUnits="userSpaceOnUse">
      <stop
         stop-color="#197cf1"
         id="stop12" />
      <stop
         offset="1"
         stop-color="#20bcfa"
         id="stop14" />
    </linearGradient>
    <linearGradient
       id="g"
       x1="406.84"
       x2="394.59"
       gradientUnits="userSpaceOnUse">
      <stop
         stop-color="#42a603"
         id="stop7-9" />
      <stop
         offset="1"
         stop-color="#78da06"
         id="stop9-0" />
    </linearGradient>
  </defs>
  <path
     d="M 40,4.0000095 H 16 c -3.324,0 -6,2.6759986 -6,5.9999965 v 43.999978 c 0,3.323999 2.676,5.999997 6,5.999997 h 32 c 3.324,0 6,-2.675998 6,-5.999997 V 18.000002 Z"
     id="path15"
     style="fill:#555555;fill-opacity:1;stroke-width:2" />
  <path
     d="m 16,4.0000095 a 5.98,5.979997 0 0 0 -4.246,1.7539991 c -0.062,0.062 -0.04,0.1799999 -0.1,0.2459999 H 40 v -1.999999 z"
     color="#000000"
     opacity="0.5"
     fill="#ffffff"
     id="path17"
     style="display:inline;stroke-width:2" />
  <path
     d="m 11.652,57.999982 c 0.06,0.066 0.04,0.184 0.102,0.246 A 5.98,5.979997 0 0 0 16,59.999981 h 32 a 5.98,5.979997 0 0 0 4.246,-1.753999 c 0.062,-0.062 0.04,-0.18 0.1,-0.246 H 11.654 Z"
     id="path19"
     class="ColorScheme-Highlight"
     style="display:inline;opacity:1;fill:currentColor;fill-opacity:1;stroke-width:2" />
  <path
     d="M 54,18.000002 40,4.0000095 V 18.000002 Z"
     color="#000000"
     opacity="0.5"
     fill="#ffffff"
     fill-rule="evenodd"
     id="path21"
     style="stroke-width:2" />
  <path
     d="M 40,18.000002 54,31.999995 V 18.000002 Z"
     opacity="0.1"
     fill="url(#b)"
     fill-rule="evenodd"
     id="path23"
     style="fill:url(#b);stroke-width:2" />
  <path
     d="M 40,4.0000093 H 16 c -3.324,0 -6,2.6759988 -6,5.9999967 v 43.999978 c 0,3.323999 2.676,5.999997 6,5.999997 h 32 c 3.324,0 6,-2.675998 6,-5.999997 V 18.000002 Z"
     opacity="0.4"
     fill="url(#c)"
     id="path27"
     style="display:inline;fill:url(#c);stroke-width:2" />
  <path
     d="m 44.027868,34.165718 a 6.8671338,6.8671304 0 0 0 -2.8525,0.632766 c -0.294468,-0.55634 -0.590058,-1.042996 -0.63951,-1.404895 -0.05508,-0.422594 -0.12362,-0.67997 -0.05508,-1.18461 0.06744,-0.503514 0.375388,-1.218325 0.375388,-1.276769 -0.0068,-0.05282 -0.06744,-0.3102 -0.701324,-0.31582 -0.632766,-0.0134 -1.180112,0.11688 -1.241928,0.27536 a 6.4962412,6.4962379 0 0 0 -0.26412,0.895761 c -0.11014,0.55072 -1.265532,2.501839 -1.924146,3.526851 -0.21467,-0.39899 -0.398992,-0.750778 -0.43608,-1.031756 -0.0562,-0.42147 -0.12364,-0.678846 -0.0562,-1.182361 0.06856,-0.504638 0.375388,-1.218326 0.375388,-1.277892 -0.0056,-0.05282 -0.06744,-0.310201 -0.7002,-0.314697 -0.632766,-0.0146 -1.180114,0.116879 -1.24193,0.274235 -0.06182,0.15734 -0.12924,0.532736 -0.26412,0.895762 -0.12926,0.36415 -1.665644,3.620136 -2.06576,4.469816 -0.202304,0.433831 -0.381008,0.778875 -0.510258,1.013773 -0.12924,0.233774 -0.0056,0.0168 -0.018,0.04046 l -0.17196,0.310202 v 0.0134 c -0.08654,0.14612 -0.1787,0.287724 -0.221412,0.287724 -0.03034,0 -0.09216,-0.393372 0.0112,-0.932852 0.228154,-1.129535 0.781122,-2.89296 0.775502,-2.9559 0,-0.03146 0.10452,-0.340546 -0.356282,-0.499018 -0.449566,-0.15734 -0.609162,0.10564 -0.645128,0.10564 -0.03708,0 -0.06744,0.09328 -0.06744,0.09328 0,0 0.49677,-1.984837 -0.953082,-1.984837 -0.910374,0 -2.164664,0.942967 -2.785068,1.803887 -0.39337,0.204552 -1.229564,0.638384 -2.114088,1.101437 -0.338298,0.17534 -0.68896,0.363026 -1.020516,0.532738 l -0.06744,-0.0708 c -1.75885,-1.786937 -5.01034,-3.051342 -4.87547,-5.453153 0.04946,-0.873282 0.369768,-3.175062 6.245606,-5.963499 4.813738,-2.283799 8.667648,-1.657777 9.337504,-0.262998 0.953082,1.991581 -2.059016,5.692637 -7.062696,6.226497 -1.906164,0.204554 -2.907574,-0.497894 -3.15933,-0.762014 -0.265246,-0.275359 -0.30121,-0.286599 -0.400116,-0.233776 -0.1596,0.08204 -0.06182,0.32706 0,0.474292 0.14724,0.368646 0.762016,1.025014 1.80726,1.353198 0.915992,0.286597 3.15371,0.445069 5.857856,-0.55072 3.031204,-1.11942 5.39705,-4.223678 4.702468,-6.818801 -0.706942,-2.641204 -5.304888,-3.507744 -9.649952,-2.037661 -2.588382,0.87778 -5.39143,2.247833 -7.406612,4.047224 -2.39844,2.132069 -2.779448,3.994398 -2.618728,4.767652 0.558588,2.759216 4.547368,4.557482 6.145578,5.887075 l -0.220288,0.11802 c -0.799104,0.374264 -3.84267,1.891551 -4.604686,3.49538 -0.86092,1.816249 0.13486,3.123365 0.799104,3.298696 2.053396,0.5451 4.15512,-0.433831 5.293648,-2.044405 1.129538,-1.610573 0.994668,-3.70218 0.472046,-4.656385 l -0.018,-0.03596 0.627146,-0.350662 c 0.40461,-0.22928 0.804724,-0.439452 1.155386,-0.621526 -0.19668,0.509134 -0.337176,1.112678 -0.412478,1.991579 -0.08542,1.030632 0.357406,2.366969 0.940718,2.894087 0.258502,0.228154 0.565332,0.233774 0.756398,0.233774 0.676598,0 0.983426,-0.532736 1.321726,-1.171122 0.418096,-0.778873 0.786742,-1.681379 0.786742,-1.681379 0,0 -0.460806,2.442271 0.79798,2.442271 0.46193,0 0.922736,-0.567578 1.131786,-0.86092 v 0.0134 l 0.03708,-0.05844 c 0.04946,-0.06968 0.07418,-0.1124 0.07418,-0.1124 v -0.0134 c 0.18432,-0.303455 0.595676,-1.000285 1.210458,-2.15567 0.793486,-1.486942 1.555502,-3.349273 1.555502,-3.349273 0,0 0.07418,0.45631 0.30121,1.205964 0.13486,0.445069 0.43046,0.931725 0.65749,1.404895 -0.18432,0.247262 -0.294466,0.387752 -0.294466,0.387752 l 0.0056,0.0134 c -0.14724,0.18656 -0.313572,0.386628 -0.485532,0.584437 -0.627146,0.715934 -1.376798,1.52965 -1.475704,1.76455 -0.11688,0.275357 -0.09216,0.479911 0.13486,0.644003 0.16634,0.11688 0.460806,0.14048 0.775504,0.11688 a 3.6032784,3.6032766 0 0 0 1.155386,-0.251758 c 0.30683,-0.10452 0.657492,-0.262996 0.995792,-0.497895 0.614782,-0.433832 0.989046,-1.048614 0.95308,-1.86795 -0.0192,-0.451813 -0.17196,-0.896885 -0.363024,-1.318353 a 24.432836,24.432824 0 0 0 1.88818,-3.075036 c 0,0 0.07306,0.456309 0.300086,1.205963 0.11688,0.38213 0.350662,0.79798 0.55971,1.207085 -0.910372,0.708068 -1.481322,1.528528 -1.678008,2.068007 -0.363024,0.99579 -0.0798,1.446482 0.454064,1.551006 0.240518,0.04832 0.584436,-0.05732 0.842938,-0.16296 a 3.8887534,3.8887515 0 0 0 1.063224,-0.521498 c 0.614784,-0.433832 1.20484,-1.036251 1.17337,-1.851091 a 3.4088408,3.4088391 0 0 0 -0.26412,-1.094696 c 0.775502,-0.304579 1.775788,-0.481035 3.049186,-0.333801 2.735616,0.303457 3.27622,1.933137 3.171696,2.61198 -0.10452,0.67997 -0.675476,1.054236 -0.866542,1.171122 -0.19106,0.11126 -0.251756,0.15286 -0.233774,0.2349 0.02472,0.12362 0.11126,0.11688 0.276484,0.0944 0.228156,-0.03596 1.438614,-0.557462 1.488066,-1.809506 0.07306,-1.611697 -1.530776,-3.369502 -4.376534,-3.35152 z m -21.095924,6.777217 c -0.904754,0.944091 -2.177028,1.300371 -2.717632,0.995791 -0.584436,-0.322564 -0.35628,-1.710601 0.756396,-2.71201 0.675474,-0.609164 1.554378,-1.171122 2.13207,-1.517288 0.12926,-0.07642 0.325936,-0.1877 0.559712,-0.321441 a 0.79685726,0.79685686 0 0 1 0.06182,-0.03596 c 0.0427,-0.02248 0.09216,-0.05282 0.14162,-0.08204 0.411354,1.429621 0.018,2.682788 -0.935098,3.672958 z m 6.607508,-4.282122 c -0.314696,0.732794 -0.977808,2.613107 -1.376798,2.507459 -0.345042,-0.08878 -0.55409,-1.51167 -0.06744,-2.917689 0.245014,-0.708068 0.767634,-1.551005 1.075588,-1.879187 0.497896,-0.528242 1.0385,-0.703574 1.17337,-0.486656 0.1596,0.280978 -0.60804,2.319763 -0.804726,2.776073 z m 5.452122,2.483857 c -0.13486,0.06406 -0.2585,0.1124 -0.313572,0.07642 -0.0427,-0.02472 0.0562,-0.1124 0.0562,-0.1124 0,0 0.681094,-0.696828 0.951958,-1.018268 0.15398,-0.1877 0.337174,-0.404612 0.534984,-0.650749 v 0.06968 c 0,0.842938 -0.848558,1.404896 -1.229566,1.634176 z m 4.20345,-0.913746 c -0.09778,-0.06968 -0.08542,-0.286598 0.247262,-0.966567 0.12926,-0.26974 0.423718,-0.719308 0.933976,-1.14752 0.06182,0.17534 0.0989,0.345044 0.09216,0.503516 -0.0056,1.054233 -0.792362,1.446479 -1.272276,1.610571 z"
     id="path17-1"
     inkscape:connector-curvature="0"
     style="opacity:0.75;fill:#ffffff;stroke-width:1.12392" />
</svg>
