<svg xmlns="http://www.w3.org/2000/svg" viewBox="0 0 24 24" width="24" height="24">
  <style type="text/css" id="current-color-scheme">.ColorScheme-Text {color:#fcfcfc;}</style>
  <g transform="translate(1,1)">
    <g class="ColorScheme-Text" fill="currentColor">
      <path d="m 11,3 c -4.4319912,0 -8,3.5680088 -8,8 0,3.172994 1.8334241,5.615659 4.5,6.875 V 16.742188 C 5.4064087,15.577287 4,13.598752 4,11 4.2288754,6.8580142 7.1127803,4 11,4 c 3.88722,0 6.93733,2.977288 7,7 0,2.598752 -1.406409,4.577287 -3.5,5.742188 V 17.875 C 17.166576,16.615659 19,14.172994 19,11 19,6.5680088 15.431992,3 11,3 Z m -1.7617188,8 c -0.999998,0 -1,1 -1,1 v 6 c 0,0 2e-6,1 1,1 0.9999988,0 0.9999998,-1 0.9999998,-1 v -6 c 0,0 -1e-6,-1 -0.9999998,-1 z m 3.5214848,0 c -0.999998,0 -1,1 -1,1 v 6 c 0,0 2e-6,1 1,1 0.999998,0 1,-1 1,-1 v -6 c 0,0 -2e-6,-1 -1,-1 z"/>
    </g>
  </g>
</svg>
