<svg xmlns="http://www.w3.org/2000/svg" viewBox="0 0 24 24" width="24" height="24">
  <style type="text/css" id="current-color-scheme">.ColorScheme-Text {color:#fcfcfc;}</style>
  <g transform="translate(1,1)">
    <g class="ColorScheme-Text" fill="currentColor">
      <path d="M 9,3.2558594 C 5.5591397,4.1494923 3,7.2896578 3,11 c 0,3.710342 2.5591397,6.850508 6,7.744141 V 17.714844 C 6.0918325,16.865368 4,14.203242 4,11 4,7.7967576 6.0918325,5.1346318 9,4.2851562 Z m 4,0 V 4.2851562 C 15.908168,5.1346318 18,7.7967576 18,11 c 0,3.203242 -2.091832,5.865368 -5,6.714844 v 1.029297 C 16.44086,17.850508 19,14.710342 19,11 19,7.2896578 16.44086,4.1494923 13,3.2558594 Z M 11,3 c -0.999999,0 -1,1 -1,1 v 10 4 c 0,0 10e-7,1.003734 1,1 0.999999,-0.0037 0.984375,-1 0.984375,-1 L 12,14 V 4 c 0,0 -10e-7,-1 -1,-1 z"/>
    </g>
  </g>
</svg>
