<svg xmlns="http://www.w3.org/2000/svg" viewBox="0 0 24 24" width="24" height="24">
  <defs id="defs3051">
    <style type="text/css" id="current-color-scheme">.ColorScheme-Text {color:#fcfcfc;}</style>
  </defs>
  <g transform="translate(1,1)">
    <path style="fill:currentColor;fill-opacity:1;stroke:none" d="M 11,3 C 6.5680044,3 3,6.5680044 3,11 3,11 3,11.5 3.5,11.5 4,11.5 4,11 4,11 4,7.1127761 7.1127761,4 10.996114,4 14.879452,4 18,7.1127759 18,11 c 0,3.877996 -3.122004,7 -7,7 0,0 -0.5,0 -0.5,0.5 0,0.5 0.5,0.5 0.5,0.5 4.431996,0 8,-3.568004 8,-8 C 19,6.5680044 15.431996,3 11,3 Z M 7,10.773727 3.707032,14.066696 3,14.773727 3.707032,15.480758 7,18.773727 c 0,0 0.5000001,0.5 1,0 0.5,-0.5 0,-1 0,-1 l -2.9716592,-3 2.9716592,-3 c 0,0 0.4999997,-0.500001 0,-1 -0.4999997,-0.5 -1,0 -1,0 z" class="ColorScheme-Text"/>
  </g>
</svg>
