<svg xmlns="http://www.w3.org/2000/svg" version="1.1" viewBox="0 0 24 24" width="24" height="24">
  <defs>
    <style type="text/css" id="current-color-scheme"> .ColorScheme-Text { color:#fcfcfc; } </style>
  </defs>
  <g transform="translate(1,1)">
    <path d="m 11,3 c -4.4319868,0 -8,3.5680132 -8,8 0,0 1e-6,0.5 0.5,0.5 C 3.999999,11.5 4,11 4,11 4,7.1127839 7.1127633,4 10.996094,4 H 11 C 11,4 11.498047,3.996094 11.498047,3.498047 11.498047,3 11,3 11,3 Z m 3.68247,0 c -0.140991,0.00671 -0.296875,0.064453 -0.453125,0.2207031 -0.499999,0.4999975 0,1 0,1 L 16.96875,7 14.229345,9.7706553 c 0,0 -0.5,0.5000007 0,0.9999997 0.499998,0.499999 1,0 1,0 C 16.563236,9.4372287 17.664503,8.3318189 19,7 17.664381,5.6683044 16.563003,4.5543617 15.229345,3.2207031 15.229345,3.2207031 14.99265,2.98523 14.68247,3 Z M 6.779296,11.220704 3,15 6.779296,18.773438 c 0,0 0.5000011,0.499998 1,0 0.499999,-0.5 0,-1 0,-1 L 5.0292969,15 7.779296,12.220704 c 0,0 0.5,-0.5 0,-1 -0.5,-0.5 -0.9556772,-0.04432 -1,0 z M 18,11 c 0,3.877988 -3.122012,7 -7,7 0,0 -0.5,0 -0.5,0.5 0,0.5 0.5,0.5 0.5,0.5 4.431988,0 8,-3.568012 8,-8 0,0 0,-0.5 -0.5,-0.5 C 18,10.5 18,11 18,11 Z" class="ColorScheme-Text" fill="currentColor"/>
  </g>
</svg>
