<?xml version="1.0" encoding="UTF-8" standalone="no"?>
<svg
   viewBox="0 0 8 8"
   version="1.1"
   id="svg7"
   sodipodi:docname="emblem-shared.svg"
   inkscape:version="1.1.2 (0a00cf5339, 2022-02-04)"
   xmlns:inkscape="http://www.inkscape.org/namespaces/inkscape"
   xmlns:sodipodi="http://sodipodi.sourceforge.net/DTD/sodipodi-0.dtd"
   xmlns="http://www.w3.org/2000/svg"
   xmlns:svg="http://www.w3.org/2000/svg">
  <defs
     id="defs11" />
  <sodipodi:namedview
     id="namedview9"
     pagecolor="#ffffff"
     bordercolor="#666666"
     borderopacity="1.0"
     inkscape:pageshadow="2"
     inkscape:pageopacity="0.0"
     inkscape:pagecheckerboard="0"
     showgrid="false"
     inkscape:zoom="78.75"
     inkscape:cx="4"
     inkscape:cy="3.9936508"
     inkscape:window-width="3440"
     inkscape:window-height="1359"
     inkscape:window-x="0"
     inkscape:window-y="0"
     inkscape:window-maximized="1"
     inkscape:current-layer="svg7" />
  <style
     type="text/css"
     id="current-color-scheme">
        .ColorScheme-NegativeText {
            color:#da4453;
        }
    </style>
  <circle
     style="fill:#3daee9;fill-opacity:1;stroke:none"
     class="ColorScheme-NegativeText"
     cx="4"
     cy="4"
     r="4"
     id="circle3" />
  <path
     d="m 5.8074602,1.007854 a 1,1 0 1 0 0,2 1,1 0 0 0 0,-2 z m -2,3.5 a 0.5,0.5 0 1 0 0,1 0.5,0.5 0 0 0 0,-1 z m -2,-1.5 a 1,1 0 1 0 0,2 1,1 0 0 0 0,-2 z m 4,2 a 1,1 0 1 0 0,2 1,1 0 0 0 0,-2 z m -2,-2.5 a 0.5,0.5 0 1 0 0,1 0.5,0.5 0 0 0 0,-1 z"
     fill="#ffffff"
     id="path5" />
</svg>
