<?xml version="1.0" encoding="UTF-8" standalone="no"?>
<svg
   viewBox="0 0 32 32"
   version="1.1"
   id="svg12"
   sodipodi:docname="folder-IOTA.svg"
   inkscape:version="1.1.2 (0a00cf5339, 2022-02-04)"
   width="32"
   height="32"
   xmlns:inkscape="http://www.inkscape.org/namespaces/inkscape"
   xmlns:sodipodi="http://sodipodi.sourceforge.net/DTD/sodipodi-0.dtd"
   xmlns:xlink="http://www.w3.org/1999/xlink"
   xmlns="http://www.w3.org/2000/svg"
   xmlns:svg="http://www.w3.org/2000/svg">
  <sodipodi:namedview
     id="namedview14"
     pagecolor="#ffffff"
     bordercolor="#666666"
     borderopacity="1.0"
     inkscape:pageshadow="2"
     inkscape:pageopacity="0.0"
     inkscape:pagecheckerboard="0"
     showgrid="false"
     inkscape:zoom="22.627417"
     inkscape:cx="9.7153563"
     inkscape:cy="17.264841"
     inkscape:window-width="1920"
     inkscape:window-height="996"
     inkscape:window-x="0"
     inkscape:window-y="0"
     inkscape:window-maximized="1"
     inkscape:current-layer="svg12"
     inkscape:snap-nodes="true"
     inkscape:object-paths="true"
     showguides="true"
     inkscape:guide-bbox="true"
     inkscape:snap-intersection-paths="true"
     inkscape:snap-smooth-nodes="true"
     inkscape:snap-midpoints="true">
    <sodipodi:guide
       position="9.6842658,4.6250324"
       orientation="0,-1"
       id="guide4749" />
    <sodipodi:guide
       position="4.3460068,9.9395738"
       orientation="1,0"
       id="guide4751" />
  </sodipodi:namedview>
  <defs
     id="defs3051">
    <linearGradient
       inkscape:collect="always"
       id="linearGradient25153">
      <stop
         style="stop-color:#1b1b1b;stop-opacity:1"
         offset="0"
         id="stop25149" />
      <stop
         style="stop-color:#090909;stop-opacity:0.24540505"
         offset="0.49971318"
         id="stop1797" />
      <stop
         style="stop-color:#010101;stop-opacity:0.23888743"
         offset="0.9430303"
         id="stop2247" />
      <stop
         style="stop-color:#000000;stop-opacity:0.8012926"
         offset="1"
         id="stop25151" />
    </linearGradient>
    <linearGradient
       inkscape:collect="always"
       id="linearGradient14607">
      <stop
         style="stop-color:#4f5152;stop-opacity:1"
         offset="0"
         id="stop14603" />
      <stop
         style="stop-color:#010501;stop-opacity:1"
         offset="1"
         id="stop14605" />
    </linearGradient>
    <style
       type="text/css"
       id="current-color-scheme">
      .ColorScheme-Text {
        color:#232629;
      }
      .ColorScheme-Highlight {
        color:#3daee9;
      }
      </style>
    <filter
       height="1.0449693"
       y="-0.026935052"
       width="1.0344187"
       x="-0.017208866"
       id="filter940"
       style="color-interpolation-filters:sRGB">
      <feGaussianBlur
         id="feGaussianBlur942"
         stdDeviation="0.28795822" />
    </filter>
    <linearGradient
       gradientTransform="matrix(1.0005668,0,0,0.8509446,-0.23612742,72.315207)"
       gradientUnits="userSpaceOnUse"
       y2="492.39743"
       x2="437.78555"
       y1="555.7431"
       x1="408.33118"
       id="linearGradient6218"
       xlink:href="#linearGradient42869" />
    <linearGradient
       id="linearGradient42869">
      <stop
         style="stop-color:#353a3f;stop-opacity:0.99607843"
         offset="0"
         id="stop42865" />
      <stop
         style="stop-color:#272727;stop-opacity:0.98876405"
         offset="1"
         id="stop42867" />
    </linearGradient>
    <filter
       height="1.0667278"
       y="-0.033363852"
       width="1.0561312"
       x="-0.028065609"
       id="filter2714"
       style="color-interpolation-filters:sRGB">
      <feGaussianBlur
         id="feGaussianBlur2716"
         stdDeviation="0.56332734" />
    </filter>
    <radialGradient
       r="10.859361"
       fy="487.69391"
       fx="398.76016"
       cy="487.69391"
       cx="398.76016"
       gradientTransform="matrix(-7.685935e-4,0.15609892,-1.7620566,-0.00728959,850.60261,-66.13108)"
       gradientUnits="userSpaceOnUse"
       id="radialGradient6119"
       xlink:href="#linearGradient6109" />
    <linearGradient
       id="linearGradient6109">
      <stop
         id="stop6105"
         offset="0"
         style="stop-color:#498fff;stop-opacity:1;" />
      <stop
         id="stop6107"
         offset="1"
         style="stop-color:#010006;stop-opacity:1" />
    </linearGradient>
    <linearGradient
       gradientTransform="matrix(1,0,0,0.79783267,-406.29559,-396.90111)"
       gradientUnits="userSpaceOnUse"
       y2="483.23215"
       x2="394.73306"
       y1="493.14221"
       x1="394.80273"
       id="linearGradient6103"
       xlink:href="#linearGradient6101" />
    <linearGradient
       id="linearGradient6101">
      <stop
         id="stop6097"
         offset="0"
         style="stop-color:#000304;stop-opacity:1" />
      <stop
         id="stop6099"
         offset="1"
         style="stop-color:#595959;stop-opacity:0.62352943" />
    </linearGradient>
    <linearGradient
       gradientUnits="userSpaceOnUse"
       y2="539.64374"
       x2="414.83517"
       y1="501.65286"
       x1="415.07861"
       id="linearGradient850"
       xlink:href="#linearGradient848" />
    <linearGradient
       id="linearGradient848">
      <stop
         id="stop844"
         offset="0"
         style="stop-color:#57595a;stop-opacity:0.99607843" />
      <stop
         id="stop846"
         offset="1"
         style="stop-color:#000000;stop-opacity:0.42696628" />
    </linearGradient>
    <filter
       height="1.03215"
       y="-0.025901777"
       width="1.0283593"
       x="-0.01417968"
       id="filter2706"
       style="color-interpolation-filters:sRGB">
      <feGaussianBlur
         id="feGaussianBlur2708"
         stdDeviation="0.140357" />
    </filter>
    <radialGradient
       gradientUnits="userSpaceOnUse"
       gradientTransform="matrix(-5.3340695e-5,0.02414953,-0.50997058,-0.00118197,268.40841,-5.990022)"
       r="11.24949"
       fy="485.79099"
       fx="397.99051"
       cy="485.79099"
       cx="397.99051"
       id="radialGradient6178-3"
       xlink:href="#linearGradient880" />
    <linearGradient
       id="linearGradient880">
      <stop
         style="stop-color:#d8dbd8;stop-opacity:1"
         offset="0"
         id="stop876" />
      <stop
         style="stop-color:#272727;stop-opacity:0.98876405"
         offset="1"
         id="stop878" />
    </linearGradient>
    <filter
       height="1.0707442"
       y="-0.035372174"
       width="1.0508627"
       x="-0.025431326"
       id="filter1073"
       style="color-interpolation-filters:sRGB">
      <feGaussianBlur
         id="feGaussianBlur1075"
         stdDeviation="0.39283137" />
    </filter>
    <linearGradient
       gradientUnits="userSpaceOnUse"
       y2="506.87347"
       x2="414.47186"
       y1="539.61627"
       x1="406.45694"
       id="linearGradient2676"
       xlink:href="#linearGradient2668" />
    <linearGradient
       id="linearGradient2668">
      <stop
         id="stop2664"
         offset="0"
         style="stop-color:#1a1b1b;stop-opacity:1" />
      <stop
         id="stop2666"
         offset="1"
         style="stop-color:#474747;stop-opacity:1" />
    </linearGradient>
    <linearGradient
       gradientUnits="userSpaceOnUse"
       y2="505.62521"
       x2="404.77097"
       y1="530.01428"
       x1="395.58017"
       id="linearGradient2684"
       xlink:href="#linearGradient2682" />
    <linearGradient
       id="linearGradient2682">
      <stop
         id="stop2678"
         offset="0"
         style="stop-color:#000000;stop-opacity:1;" />
      <stop
         id="stop2680"
         offset="1"
         style="stop-color:#c3c3c3;stop-opacity:0" />
    </linearGradient>
    <filter
       height="1.0397525"
       y="-0.019876304"
       width="1.0307531"
       x="-0.015376566"
       id="filter2690"
       style="color-interpolation-filters:sRGB">
      <feGaussianBlur
         id="feGaussianBlur2692"
         stdDeviation="0.13069192" />
    </filter>
    <filter
       inkscape:collect="always"
       style="color-interpolation-filters:sRGB"
       id="filter24684"
       x="-0.024959943"
       y="-0.15409672"
       width="1.0499199"
       height="1.3081934">
      <feGaussianBlur
         inkscape:collect="always"
         stdDeviation="0.21554955"
         id="feGaussianBlur24686" />
    </filter>
    <linearGradient
       inkscape:collect="always"
       xlink:href="#linearGradient14607"
       id="linearGradient25029"
       gradientUnits="userSpaceOnUse"
       x1="12.020759"
       y1="7.2813473"
       x2="12.011944"
       y2="-0.7256338" />
    <linearGradient
       inkscape:collect="always"
       xlink:href="#linearGradient25153"
       id="linearGradient25155"
       x1="21.812489"
       y1="3.9335968"
       x2="4.6537294"
       y2="4.034317"
       gradientUnits="userSpaceOnUse" />
    <filter
       inkscape:collect="always"
       style="color-interpolation-filters:sRGB"
       id="filter30328"
       x="-0.060622242"
       y="-0.37427998"
       width="1.121405"
       height="1.7485472">
      <feGaussianBlur
         inkscape:collect="always"
         stdDeviation="0.2547727"
         id="feGaussianBlur30330" />
    </filter>
  </defs>
  <path
     transform="matrix(0.48696751,0,0,0.4960353,-187.06995,-239.89567)"
     id="path6220-2"
     d="m 386.25703,524.61791 0.77838,-38.71157 22.03057,0.10242 3.50545,3.40716 c 0,0 18.10956,0.35097 27.33843,0.35097 2.88877,0 6.71919,2.18928 6.71919,7.16894 0,13.1364 0.12174,26.49022 0.12174,26.49022"
     style="display:inline;fill:none;fill-opacity:1;stroke:#000000;stroke-width:0.7;stroke-linecap:butt;stroke-linejoin:miter;stroke-miterlimit:4;stroke-dasharray:none;stroke-opacity:1;filter:url(#filter940)"
     sodipodi:nodetypes="ccccssc"
     inkscape:label="dégradé arrière noir" />
  <path
     transform="matrix(0.48802992,0,0,0.49615387,-187.09835,-239.8238)"
     d="m 386.39384,486.19622 c 0,0 -0.10293,36.25523 -0.10293,49.28612 0,1.03908 0.48232,1.87652 1.08144,1.87652 h 58.39816 c 0.59911,0 1.34832,-0.83745 1.34161,-1.87652 0,0 -0.0268,-27.28049 -0.0268,-40.09035 0,-3.00572 -3.75125,-6.05898 -6.82146,-6.05898 -9.03444,0 -27.69471,-0.22684 -27.69471,-0.22684 l -4.13226,-2.8228 z"
     id="rect4180"
     style="display:inline;fill:url(#linearGradient6218);fill-opacity:1;stroke:#000a00;stroke-width:0.71;stroke-linecap:round;stroke-linejoin:bevel;stroke-miterlimit:4;stroke-dasharray:none;stroke-opacity:1;filter:url(#filter2714)"
     sodipodi:nodetypes="cssscssccc"
     inkscape:label="arrière plan" />
  <path
     transform="matrix(0.48969536,0,0,0.31742024,-188.14836,-152.31236)"
     id="path6220"
     d="m 387.04904,540.31904 0.076,-50.36617 20.73641,0.0901 1.41588,-3.75705 2.94655,4.20719 c 0,0 17.40991,0.34184 27.40616,0.34184 3.61218,0 6.32049,4.0507 6.32049,8.9451 0,12.76833 0.1165,38.20486 0.1165,38.20486"
     style="display:inline;fill:none;fill-opacity:1;stroke:url(#linearGradient850);stroke-width:1px;stroke-linecap:butt;stroke-linejoin:miter;stroke-opacity:1;filter:url(#filter2706)"
     sodipodi:nodetypes="cccccssc"
     inkscape:label="contour haut" />
  <path
     d="m 14.022662,2.922219 v 0.1894704 h 0.221981 l 12.702416,0.083642 h 0.221979 L 26.897399,2.922214 h -0.22198 -12.430776 z"
     id="path4151-2-3-5"
     style="display:inline;fill:url(#radialGradient6178-3);fill-opacity:1;stroke-width:0.331779"
     inkscape:label="reflet haut" />
  <path
     transform="matrix(0.48843843,0,0,0.53856155,-187.31454,-262.92418)"
     style="display:inline;fill:none;fill-opacity:1;stroke:#000000;stroke-width:1.29693;stroke-linejoin:round;stroke-miterlimit:4;stroke-dasharray:none;stroke-opacity:1;filter:url(#filter1073)"
     id="path952"
     d="m 385.15633,501.64377 c 0,13.8136 0.0547,36.33599 0.0547,39.23108 0,2.8951 4.24366,4.43675 7.16501,4.43675 9.65801,10e-4 39.7482,-0.008 48.58578,-0.009 2.73024,-2.9e-4 6.73958,-3.06897 6.73961,-5.5723 4.6e-4,-8.01206 0.0257,-31.8933 0.0257,-31.8933 -21.39075,-0.31416 -23.00468,-0.49626 -28.48106,-3.68616 -5.47637,-3.18989 -6.84254,-3.7889 -8.06758,-3.79572 -8.19718,-0.0456 -25.32423,-0.0254 -25.32423,-0.0254 0,0 -0.68932,-0.094 -0.698,1.31379 z"
     inkscape:label="ombrage folder"
     sodipodi:nodetypes="czcscczsccc" />
  <path
     transform="matrix(0.48843843,0,0,0.4971701,-187.18213,-240.84854)"
     style="display:inline;fill:url(#linearGradient2676);fill-opacity:1;stroke:url(#linearGradient2684);stroke-width:1.29693;stroke-linejoin:round;stroke-miterlimit:4;stroke-dasharray:none;stroke-opacity:1;filter:url(#filter2690)"
     id="path952-7"
     d="m 385.15633,498.35321 c 0,13.8136 0.0547,28.03631 0.0547,40.41503 0,6.52543 4.5187,6.67224 7.29021,6.67224 9.65801,10e-4 38.73653,0 47.57411,0 4.29557,0 7.62608,-4.19689 7.62608,-7.71933 4.6e-4,-8.01206 0.0257,-32.38987 0.0257,-32.38987 -22.81136,0 -23.57647,-0.13663 -31.18143,-4.28484 -5.62028,-3.06564 -5.63216,-3.98161 -7.35295,-3.98161 -8.19718,-0.0456 -23.33849,-0.0254 -23.33849,-0.0254 0,0 -0.68932,-0.094 -0.698,1.31379 z"
     inkscape:label="premier plan folder"
     sodipodi:nodetypes="cscsccscccc" />
  <path
     style="display:inline;mix-blend-mode:normal;fill:currentColor;stroke:none;stroke-width:0.390115;stroke-miterlimit:4;stroke-dasharray:none;filter:url(#filter24684)"
     d="M 3.1185124,2.3943988 C 2.9060465,2.5755409 2.8406898,2.662737 2.8406898,3.1723004 c 0,0.7470828 0.00654,2.4587688 0.00654,2.4587688 H 22.075746 l 0.993727,-1.6353471 c 0,0 0.682408,-0.9793708 0.44826,-1.410869 -0.123324,-0.2272669 -0.513311,-0.2662912 -1.075516,-0.2662912 -0.820732,0 -18.1692197,-0.041813 -18.4326201,-0.041813 0,0 -0.7160982,-0.031538 -0.8910845,0.1176499 z"
     class="ColorScheme-Highlight"
     id="path4"
     sodipodi:nodetypes="sscccsscs"
     inkscape:label="AA-couleur-courant"
     transform="matrix(0.49823791,0,0,0.49823791,0.11114963,0.21211849)" />
  <path
     style="color:#3daee9;display:inline;fill:url(#linearGradient25155);fill-opacity:1;stroke:url(#linearGradient25029);stroke-width:1.29;stroke-miterlimit:4;stroke-dasharray:none;filter:url(#filter30328)"
     d="M 3.1185124,2.3943988 C 2.9060465,2.5755409 2.8406898,2.662737 2.8406898,3.1723004 c 0,0.7470828 0.00654,2.4587688 0.00654,2.4587688 H 22.075746 l 0.993727,-1.6353471 c 0,0 0.682408,-0.9793708 0.44826,-1.410869 -0.123324,-0.2272669 -0.513311,-0.2662912 -1.075516,-0.2662912 -0.820732,0 -18.1692197,-0.041813 -18.4326201,-0.041813 0,0 -0.7160982,-0.031538 -0.8910845,0.1176499 z"
     class="ColorScheme-Highlight"
     id="path4-0"
     sodipodi:nodetypes="sscccsscs"
     inkscape:label="AA-degradé"
     transform="matrix(0.49823791,0,0,0.49823791,0.11114963,0.21211849)" />
  <g
     id="g905"
     transform="translate(0.15106099,-0.16778092)">
    <g
       id="g276765"
       transform="matrix(0.49867801,0,0,0.49867801,18.947355,0.48516638)">
      <path
         d="m -9.0151968,39.454379 c -0.533896,-1.265319 -1.3218592,-2.404083 -2.2876642,-3.391037 -0.991374,-0.986959 -2.135206,-1.7462 -3.406179,-2.277504 -1.322044,-0.556927 -2.719992,-0.860567 -4.168991,-0.860567 -1.44901,0 -2.84696,0.30363 -4.168809,0.86039 -1.270982,0.531521 -2.414815,1.315982 -3.406178,2.277507 -0.991373,0.986958 -1.754003,2.125703 -2.287665,3.391045 -0.559414,1.316167 -0.864407,2.707897 -0.864407,4.150468 0,1.44256 0.304983,2.834292 0.864223,4.150285 0.533887,1.265312 1.321859,2.404076 2.287665,3.391039 0.991363,0.98695 2.135203,1.746192 3.40618,2.277507 1.321865,0.556743 2.719981,0.835111 4.168808,0.835111 1.448999,0 2.846947,-0.278378 4.168807,-0.835111 1.270973,-0.531532 2.414813,-1.315989 3.406179,-2.277507 0.991362,-0.986963 1.7539912,-2.125727 2.2876782,-3.391039 0.559231,-1.315993 0.838841,-2.707906 0.838841,-4.150285 3.66e-4,-1.442571 -0.279277,-2.834301 -0.838538,-4.150302 z"
         id="path67-3"
         style="fill:#646464;fill-opacity:1;stroke-width:0.0452917" />
    </g>
    <path
       style="color:#eff0f1;isolation:isolate;fill:#272727;fill-opacity:1;stroke-width:0.453279"
       class="ColorScheme-Text"
       d="m 7.9672608,25.645847 c 0.1462089,-0.0069 0.2791979,-0.08663 0.3520383,-0.212477 0.057169,-0.09789 0.072836,-0.213749 0.043629,-0.322904 -0.029951,-0.109182 -0.1015647,-0.202089 -0.2003903,-0.258953 -0.098827,-0.05663 -0.2162961,-0.0717 -0.3264944,-0.04269 -0.109767,0.0295 -0.2040152,0.100565 -0.2609587,0.19848 -0.057173,0.09785 -0.072408,0.21378 -0.043141,0.322924 0.029527,0.109135 0.1015478,0.202118 0.2003773,0.258436 0.071041,0.04079 0.152996,0.06078 0.2349896,0.05712 z m 2.7661172,-0.66534 c 0.07196,0 0.141165,-0.02891 0.192182,-0.07893 0.05121,-0.05068 0.07924,-0.118629 0.07924,-0.189884 0,-0.148407 -0.121609,-0.268383 -0.271419,-0.268383 -0.149377,0 -0.270526,0.120431 -0.270526,0.268383 0,0.147916 0.121149,0.268369 0.270526,0.26881 z m -0.682653,-0.06857 c 0.0629,0 0.12343,-0.02441 0.167588,-0.06851 0.04488,-0.04463 0.06969,-0.103791 0.06923,-0.165992 0,-0.129498 -0.106099,-0.23413 -0.236802,-0.23413 -0.1302537,0 -0.2358926,0.105109 -0.2363364,0.23413 0,0.129412 0.1056404,0.234511 0.2363364,0.234511 z m 1.475959,-0.02647 c 0.08473,0 0.16625,-0.03296 0.225882,-0.09246 0.0599,-0.05934 0.09379,-0.140282 0.09379,-0.224165 0,-0.08394 -0.03333,-0.164199 -0.09379,-0.223754 -0.05942,-0.05897 -0.141152,-0.09245 -0.225882,-0.09245 -0.08472,0 -0.165753,0.03295 -0.225895,0.09245 -0.05984,0.05933 -0.09336,0.139819 -0.09336,0.223754 0,0.08388 0.03283,0.164613 0.09336,0.224165 0.0599,0.05882 0.141177,0.09246 0.225895,0.09246 z m -2.0378937,-0.16423 c 0.1138222,0 0.2058183,-0.09111 0.2058183,-0.2034 3.212e-4,-0.05392 -0.022027,-0.10602 -0.059908,-0.144334 -0.038274,-0.03808 -0.091062,-0.05983 -0.1456734,-0.05928 -0.1134273,0 -0.2054029,0.09112 -0.2054029,0.20388 3.206e-4,0.11228 0.091976,0.202963 0.2054029,0.203391 z M 7.8488607,24.500211 c 0.1247932,-0.0069 0.2386498,-0.07439 0.3010185,-0.181772 0.1015463,-0.174534 0.040572,-0.396917 -0.1347897,-0.497506 -0.1757845,-0.100585 -0.4003023,-0.0408 -0.5023228,0.133082 -0.048706,0.0839 -0.061861,0.183129 -0.037047,0.276495 0.025064,0.09338 0.087004,0.173215 0.171237,0.221465 0.061291,0.03498 0.1311399,0.05175 0.2017432,0.04821 z m 1.2122823,-0.03823 c 0.046961,0 0.092896,-0.01806 0.1265894,-0.05159 0.032953,-0.03255 0.052319,-0.07803 0.052319,-0.124923 0,-0.04646 -0.018292,-0.09204 -0.052319,-0.124924 -0.033392,-0.03302 -0.078783,-0.05186 -0.1265894,-0.05186 -0.046691,0 -0.092435,0.01869 -0.1256784,0.05186 -0.033327,0.03295 -0.052186,0.07803 -0.052186,0.124924 0,0.09744 0.0797,0.176361 0.1775857,0.176361 z m -2.1472138,-0.09251 c 0.1248056,-0.0069 0.238209,-0.07442 0.301026,-0.181767 0.101078,-0.174116 0.040448,-0.396505 -0.1348336,-0.497496 -0.084266,-0.0482 -0.1848465,-0.06126 -0.2791614,-0.03681 -0.094209,0.02475 -0.1743733,0.08613 -0.2231026,0.170048 -0.1015563,0.174075 -0.040438,0.396471 0.1347558,0.497046 0.060887,0.03571 0.1307105,0.05168 0.2013158,0.04891 z m 3.6960448,-0.167324 c 0.149351,0 0.270944,-0.120442 0.270493,-0.268845 0,-0.147949 -0.121142,-0.267904 -0.270493,-0.267904 -0.149837,0 -0.271404,0.119955 -0.271404,0.267904 0,0.07173 0.02876,0.139832 0.07923,0.190354 0.05121,0.05069 0.120186,0.07849 0.192171,0.07849 z m -1.8658097,-0.04761 c 0.039919,3.19e-4 0.078333,-0.01568 0.1065824,-0.04351 0.028639,-0.02833 0.044672,-0.06568 0.044672,-0.105537 0,-0.03942 -0.016117,-0.07756 -0.044672,-0.105516 -0.028759,-0.02832 -0.066381,-0.0442 -0.1065824,-0.0442 -0.039311,0 -0.078324,0.01599 -0.1065356,0.0442 -0.028634,0.02832 -0.044028,0.06575 -0.044028,0.105516 0,0.03949 0.015953,0.07759 0.044028,0.105537 0.028689,0.02832 0.066862,0.0442 0.1065356,0.04351 z m 1.1831365,-0.01981 c 0.1302432,-3.19e-4 0.2363752,-0.10509 0.2363752,-0.234581 -3.22e-4,-0.129426 -0.106132,-0.234104 -0.2363752,-0.234104 -0.1306891,0 -0.2367738,0.104678 -0.2367738,0.234104 -3.212e-4,0.0623 0.024281,0.121801 0.069158,0.166018 0.044672,0.04415 0.1047578,0.06857 0.1675788,0.06857 z m 1.4750512,-0.02648 c 0.08471,0 0.166218,-0.03295 0.226344,-0.09293 0.05956,-0.05883 0.09338,-0.13983 0.09338,-0.223716 0,-0.08388 -0.03332,-0.164185 -0.09338,-0.223716 -0.05991,-0.05939 -0.14163,-0.09293 -0.226344,-0.09293 -0.08468,0 -0.165754,0.03302 -0.225845,0.09293 -0.05942,0.05925 -0.09339,0.139833 -0.09339,0.223717 0,0.08388 0.03319,0.164621 0.09339,0.223716 0.05984,0.05933 0.141161,0.09293 0.225845,0.09293 z M 9.365356,23.944012 c 0.1133889,-3.07e-4 0.2049317,-0.09152 0.2053935,-0.203841 0,-0.112338 -0.092005,-0.203437 -0.2053935,-0.203878 -0.054406,0 -0.1070063,0.02209 -0.1457416,0.05981 -0.038528,0.03799 -0.060466,0.09021 -0.060466,0.143908 3.212e-4,0.112731 0.092461,0.203836 0.2063151,0.203836 z m 2.905931,-0.150196 c 0.203117,0 0.367962,-0.163307 0.367962,-0.364443 0,-0.201173 -0.164845,-0.364014 -0.367962,-0.364014 -0.203119,0 -0.367505,0.162841 -0.367505,0.364014 0,0.201136 0.164386,0.364443 0.367505,0.364443 z M 8.9377087,23.684644 c 0.09838,0 0.1780854,-0.07896 0.1780854,-0.176379 0,-0.09743 -0.079706,-0.176334 -0.1780854,-0.176334 -0.098322,0 -0.1780575,0.0789 -0.1780575,0.176334 0,0.09742 0.079735,0.176379 0.1780575,0.176379 z M 7.964543,23.527236 c 0.1083887,-0.0069 0.2072002,-0.06471 0.2613916,-0.157413 0.042702,-0.07307 0.054004,-0.159243 0.031671,-0.240426 -0.022211,-0.08122 -0.075591,-0.150232 -0.1489177,-0.192152 -0.1530318,-0.08749 -0.3479306,-0.03574 -0.4362894,0.115908 -0.087846,0.151108 -0.036538,0.344591 0.1165665,0.432128 0.05299,0.0307 0.1138527,0.04495 0.1753237,0.04225 z M 7.0296409,23.396873 c 0.1083373,-0.0069 0.2067365,-0.06471 0.2613507,-0.157884 0.042707,-0.07262 0.053522,-0.159199 0.031766,-0.239944 -0.022296,-0.0812 -0.075127,-0.150635 -0.1489092,-0.192608 -0.073314,-0.04227 -0.1607469,-0.05297 -0.2422823,-0.03118 -0.08199,0.0221 -0.1521516,0.07489 -0.1944764,0.147491 -0.087898,0.151536 -0.036149,0.345066 0.1174766,0.432134 0.05262,0.03095 0.1138821,0.04503 0.1748933,0.04267 z m 3.2264711,-0.06071 c 0.149858,0 0.271402,-0.119985 0.271402,-0.268411 0,-0.07124 -0.02864,-0.139369 -0.07922,-0.189882 -0.05122,-0.05069 -0.120211,-0.07892 -0.192181,-0.07892 -0.07193,0 -0.140722,0.02889 -0.19172,0.07892 -0.05121,0.05069 -0.079701,0.11864 -0.079241,0.189882 0,0.148426 0.121611,0.268411 0.27096,0.268411 z m -0.6826412,-0.0676 c 0.062904,0 0.1234303,-0.02461 0.1675767,-0.069 0.045085,-0.04421 0.069226,-0.10377 0.069226,-0.165577 0,-0.06222 -0.024465,-0.122238 -0.069226,-0.165981 -0.044671,-0.04461 -0.1047223,-0.06899 -0.1675767,-0.06899 -0.1306766,3.2e-4 -0.2363544,0.105551 -0.2363544,0.234984 0,0.129038 0.1056778,0.234097 0.2363544,0.234581 z m 1.4759422,-0.02828 c 0.08472,0 0.166255,-0.03296 0.225917,-0.09246 0.05984,-0.05932 0.0938,-0.13983 0.0938,-0.22372 0,-0.08389 -0.03329,-0.16465 -0.0938,-0.223746 -0.05942,-0.05932 -0.141196,-0.09291 -0.225917,-0.09291 -0.0847,0 -0.165739,0.03303 -0.22585,0.09291 -0.05942,0.05897 -0.09338,0.139852 -0.09338,0.223745 0,0.0839 0.03329,0.164173 0.09338,0.22372 0.05983,0.05898 0.141148,0.09246 0.22585,0.09246 z M 6.2864182,23.113996 c 0.1087851,-0.0069 0.2076027,-0.06465 0.2618189,-0.15789 0.042747,-0.07261 0.053902,-0.159237 0.031766,-0.24039 -0.022281,-0.08122 -0.075623,-0.150244 -0.1489097,-0.192182 -0.1530617,-0.08704 -0.3479566,-0.03564 -0.4363393,0.115925 -0.087821,0.15157 -0.036483,0.344608 0.1166154,0.432116 0.05293,0.03075 0.1137873,0.04504 0.1748649,0.04275 z m 2.7250649,-0.03787 c 0.054485,0 0.1070482,-0.02165 0.1457362,-0.05926 0.038533,-0.03811 0.060466,-0.09024 0.060466,-0.144339 -3.202e-4,-0.112324 -0.092427,-0.203417 -0.2063231,-0.203417 -0.1133879,0 -0.2048988,0.09109 -0.205373,0.203417 0,0.11275 0.091985,0.203862 0.205373,0.203862 z m 2.9068619,-0.150169 c 0.203094,0 0.367504,-0.162827 0.367504,-0.364017 0,-0.201162 -0.16441,-0.364455 -0.367504,-0.364455 -0.203094,0 -0.367497,0.163293 -0.367497,0.364455 0,0.20119 0.164403,0.364017 0.367497,0.364017 z M 8.2332467,22.727066 c 0.091965,-0.0069 0.1757755,-0.05442 0.2222084,-0.13396 0.074694,-0.128558 0.030414,-0.292719 -0.099711,-0.366699 -0.1293691,-0.07397 -0.2951002,-0.03013 -0.370251,0.09831 -0.074688,0.128554 -0.030813,0.292747 0.098835,0.366695 0.045175,0.0255 0.096982,0.03825 0.1489187,0.03597 z m -0.934938,-0.13032 c 0.092432,-0.0069 0.1757571,-0.05504 0.2217437,-0.134467 0.074711,-0.128078 0.031078,-0.292273 -0.098806,-0.366697 -0.062365,-0.03612 -0.1366343,-0.04503 -0.2058084,-0.0262 -0.069723,0.01808 -0.1289282,0.06368 -0.1648729,0.125373 -0.074705,0.128133 -0.031073,0.292318 0.099248,0.366709 0.045235,0.02549 0.096539,0.03787 0.1484953,0.03597 z m 2.9236603,-0.21341 c 0.03445,-3.09e-4 0.06832,-0.01035 0.09836,-0.02742 0.09838,-0.05656 0.131625,-0.180879 0.07514,-0.278298 -0.0572,-0.09744 -0.183075,-0.130347 -0.280981,-0.07441 -0.09838,0.05656 -0.1320993,0.18129 -0.07515,0.278296 0.03778,0.06471 0.107463,0.103732 0.182628,0.101925 z m 2.587135,-0.03756 c 0.113844,0 0.223144,-0.04503 0.303729,-0.124941 0.08062,-0.07987 0.125711,-0.188115 0.125711,-0.300886 0,-0.234989 -0.192184,-0.425778 -0.42944,-0.425778 -0.114305,0 -0.223616,0.04483 -0.30421,0.12449 -0.08057,0.07983 -0.126177,0.188067 -0.126177,0.301288 0,0.112771 0.04523,0.221016 0.126177,0.301315 0.08059,0.07981 0.189905,0.124496 0.30421,0.124496 z m -6.2535737,-0.03157 c 0.092016,-0.0069 0.1757591,-0.05497 0.2222523,-0.134414 0.074642,-0.128085 0.030414,-0.292304 -0.099741,-0.366717 -0.1298049,-0.07397 -0.2951306,-0.03015 -0.3702629,0.09877 -0.074708,0.128136 -0.030878,0.292282 0.098845,0.366723 0.044966,0.02549 0.097025,0.03805 0.1489057,0.03591 z M 8.603003,22.125198 c 0.080154,-0.0069 0.1535155,-0.04758 0.1935349,-0.117275 0.031546,-0.05345 0.039874,-0.117701 0.024131,-0.177708 -0.016092,-0.06029 -0.05608,-0.111396 -0.1101974,-0.142516 -0.054406,-0.03096 -0.1193242,-0.03943 -0.1798931,-0.02407 -0.06047,0.016 -0.1124973,0.05552 -0.1439185,0.109178 -0.031332,0.05401 -0.039784,0.118193 -0.024006,0.178175 0.01687,0.05981 0.056161,0.111409 0.1106672,0.142549 0.038752,0.02286 0.084281,0.03302 0.129768,0.03096 z m 2.210507,-0.02287 c 0.03041,-0.0011 0.05956,-0.0093 0.08518,-0.02413 0.04071,-0.02375 0.07106,-0.06174 0.08335,-0.106883 0.01162,-0.04523 0.007,-0.09338 -0.01783,-0.133965 -0.02424,-0.04018 -0.06234,-0.06991 -0.108375,-0.0821 -0.0455,-0.01178 -0.09427,-0.0069 -0.13528,0.0174 -0.08468,0.04944 -0.113844,0.156503 -0.06478,0.240872 0.0319,0.05608 0.0929,0.08976 0.158031,0.08842 z M 7.6676072,21.993637 c 0.080614,-0.0069 0.1534632,-0.04703 0.1935639,-0.116396 0.031671,-0.05345 0.039829,-0.117709 0.024325,-0.178167 -0.016212,-0.0598 -0.056093,-0.111422 -0.1102138,-0.142524 -0.05399,-0.03095 -0.1188659,-0.03888 -0.1798493,-0.02382 -0.060417,0.01678 -0.1120305,0.05552 -0.1434881,0.109617 -0.065266,0.111873 -0.025951,0.255308 0.086569,0.319803 0.038717,0.02281 0.084231,0.03309 0.1293192,0.03095 z m 3.6782728,-0.0042 c 0.02486,-0.0011 0.04996,-0.0083 0.07152,-0.01991 0.07193,-0.04075 0.09656,-0.132198 0.05497,-0.203439 -0.01958,-0.03405 -0.05267,-0.05932 -0.09152,-0.06947 -0.03828,-0.01041 -0.07968,-0.0069 -0.114321,0.0154 -0.03446,0.01934 -0.05942,0.05207 -0.07013,0.09066 -0.0105,0.03811 -0.007,0.07894 0.01592,0.11323 0.02681,0.04655 0.07876,0.07575 0.13389,0.07441 z M 10.081711,21.84955 c 0.03979,-0.0011 0.07878,-0.01081 0.113399,-0.03096 0.05392,-0.03119 0.09378,-0.08251 0.110177,-0.142511 0.01691,-0.05981 0.0082,-0.12407 -0.024,-0.1782 -0.03137,-0.05359 -0.08335,-0.09291 -0.143912,-0.108657 -0.06039,-0.01677 -0.125249,-0.0083 -0.179429,0.02382 -0.1133894,0.06506 -0.1521137,0.207928 -0.086976,0.320225 0.043634,0.07392 0.1238661,0.119068 0.210359,0.116779 z M 6.9253365,21.708887 c 0.080131,-0.0069 0.1530203,-0.04703 0.1935359,-0.1164 0.031267,-0.05387 0.03975,-0.11816 0.023942,-0.178181 -0.01694,-0.05981 -0.05609,-0.111366 -0.1101525,-0.142505 -0.054466,-0.03095 -0.1193735,-0.03888 -0.1799419,-0.02382 -0.060411,0.0167 -0.1124425,0.05552 -0.1438647,0.109589 -0.06527,0.111877 -0.025951,0.255298 0.086548,0.319804 0.039326,0.0228 0.084681,0.03295 0.1301859,0.03096 z m 2.0975314,-0.01808 c 0.070157,-0.0055 0.1334512,-0.04227 0.1685392,-0.101958 0.02645,-0.04655 0.034454,-0.10239 0.020077,-0.154704 -0.015225,-0.05207 -0.049404,-0.09653 -0.096086,-0.123564 -0.046965,-0.02644 -0.1033749,-0.03404 -0.1562069,-0.01982 -0.052462,0.01408 -0.097455,0.04821 -0.1247597,0.09519 -0.026779,0.04655 -0.034419,0.102393 -0.020077,0.154706 0.014267,0.05187 0.048711,0.09654 0.096076,0.123571 0.033641,0.01901 0.072833,0.02925 0.1124524,0.02651 z m 1.7806471,-0.0453 c 0.03442,-0.0011 0.06832,-0.01035 0.09835,-0.0265 0.09837,-0.05663 0.132084,-0.181319 0.07514,-0.278324 -0.0572,-0.09742 -0.182582,-0.130791 -0.28097,-0.07439 -0.09838,0.05656 -0.132066,0.180855 -0.07514,0.278273 0.03819,0.06416 0.107468,0.102842 0.18262,0.101495 z m 0.628893,-0.03977 c 0.03041,-0.0011 0.05907,-0.0093 0.08471,-0.02413 0.04049,-0.02373 0.07104,-0.06174 0.08334,-0.106888 0.01206,-0.04523 0.007,-0.09338 -0.01747,-0.133966 -0.02413,-0.04019 -0.0629,-0.07036 -0.108413,-0.08209 -0.04523,-0.01173 -0.09426,-0.0069 -0.135232,0.01739 -0.04057,0.02375 -0.07062,0.06222 -0.0829,0.107297 -0.01191,0.04496 -0.007,0.09339 0.01783,0.133971 0.0319,0.05559 0.09295,0.08933 0.158032,0.088 z m -3.3448975,-0.04477 c 0.070126,-0.0069 0.1334258,-0.04226 0.1684714,-0.10236 0.057168,-0.09741 0.023682,-0.221906 -0.075164,-0.278343 -0.046946,-0.02613 -0.103361,-0.03406 -0.156185,-0.01934 -0.052242,0.01406 -0.097443,0.04827 -0.1247597,0.0947 -0.057177,0.09744 -0.023682,0.22193 0.075148,0.278321 0.033611,0.01934 0.073301,0.02965 0.1124892,0.02741 z m 1.6840487,-0.278685 c 0.04537,-0.0011 0.089722,-0.01333 0.129355,-0.0364 0.1293218,-0.07399 0.1734888,-0.238159 0.098834,-0.366684 -0.074698,-0.128109 -0.2404785,-0.172316 -0.3702654,-0.09834 -0.062342,0.03597 -0.1079284,0.09426 -0.1266064,0.163284 -0.018321,0.06899 -0.00951,0.14207 0.026779,0.203908 0.049958,0.08523 0.1420495,0.136612 0.2413193,0.133934 z m -1.2687516,0 c 0.060887,-0.0048 0.1156863,-0.03611 0.146189,-0.08753 0.024131,-0.04025 0.030414,-0.08889 0.017823,-0.133981 -0.011819,-0.04531 -0.042702,-0.08387 -0.083349,-0.107328 -0.085162,-0.04821 -0.19354,-0.0191 -0.2427784,0.06513 -0.023877,0.0398 -0.030414,0.08841 -0.017598,0.1335 0.011953,0.04544 0.042707,0.08389 0.082879,0.107341 0.029916,0.01722 0.063821,0.02444 0.097469,0.02347 z m -1.1580794,-0.0069 c 0.07013,-0.0055 0.133897,-0.04157 0.1689471,-0.101965 0.02642,-0.0462 0.033526,-0.102396 0.019483,-0.154244 -0.014202,-0.05214 -0.048706,-0.09696 -0.095608,-0.124055 -0.04705,-0.02613 -0.1038303,-0.03405 -0.1561979,-0.01982 -0.05262,0.01494 -0.097893,0.0489 -0.1247957,0.09519 -0.026704,0.04647 -0.034523,0.102377 -0.020077,0.15472 0.014232,0.05193 0.048711,0.09695 0.095637,0.123592 0.033641,0.0191 0.072876,0.02932 0.1124673,0.0265 z M 11.4224,21.147636 c 0.03361,-0.0011 0.06784,-0.01035 0.09794,-0.0275 0.04704,-0.02626 0.08149,-0.07126 0.09608,-0.123582 0.01427,-0.05187 0.007,-0.107822 -0.02008,-0.15472 -0.05719,-0.097 -0.182604,-0.130363 -0.28098,-0.07442 -0.04697,0.02645 -0.08198,0.07171 -0.09611,0.124035 -0.01427,0.05172 -0.007,0.107787 0.02008,0.154698 0.03783,0.06416 0.107915,0.103342 0.183065,0.10148 z m -0.758247,-0.03632 c 0.03933,-0.0011 0.07833,-0.01072 0.112482,-0.03095 0.05441,-0.03095 0.09429,-0.08208 0.110664,-0.142056 0.01611,-0.06029 0.0082,-0.12453 -0.02391,-0.178174 -0.03133,-0.05394 -0.08339,-0.09337 -0.14395,-0.109614 -0.06088,-0.016 -0.125658,-0.0083 -0.179832,0.02382 -0.05441,0.03113 -0.09432,0.08256 -0.110678,0.142541 -0.01624,0.05981 -0.0076,0.124032 0.0241,0.178163 0.04397,0.07443 0.124776,0.119108 0.211312,0.11683 z M 7.760498,20.99721 c 0.060417,-0.0055 0.1152265,-0.03639 0.1457351,-0.08795 0.024355,-0.04019 0.030414,-0.08886 0.017838,-0.133976 -0.011913,-0.04524 -0.042009,-0.08393 -0.082889,-0.107375 -0.040573,-0.02375 -0.089704,-0.03015 -0.1352784,-0.01739 -0.045335,0.01198 -0.084655,0.04226 -0.1083403,0.08257 -0.024246,0.04025 -0.030414,0.0884 -0.017628,0.133954 0.011913,0.04496 0.041919,0.08345 0.082881,0.1069 0.029916,0.01733 0.063885,0.0246 0.097956,0.02392 z m 0.4021479,-0.159675 c 0.051133,-0.0042 0.097448,-0.03065 0.1234327,-0.07399 0.041186,-0.07126 0.016845,-0.162342 -0.055553,-0.203425 -0.034419,-0.01983 -0.075597,-0.02534 -0.1143214,-0.01552 -0.038438,0.01057 -0.071473,0.03571 -0.09154,0.0695 -0.019483,0.03404 -0.025064,0.07484 -0.015424,0.113157 0.010432,0.03825 0.036084,0.07084 0.070119,0.09069 0.025063,0.015 0.053898,0.02165 0.082911,0.01901 z m 1.0879723,-0.118199 c 0.052947,-0.0019 0.105617,-0.0167 0.1520773,-0.0431 0.1525446,-0.0875 0.2053556,-0.28057 0.1170238,-0.43211 C 9.4770123,20.171496 9.4077042,20.118285 9.325748,20.09663 9.243771,20.07408 9.1567839,20.08616 9.083019,20.12788 c -0.073363,0.04226 -0.1266219,0.110952 -0.1484899,0.192147 -0.022256,0.0812 -0.010223,0.167814 0.031551,0.240398 0.058653,0.100137 0.1671309,0.160619 0.2841836,0.158354 z m 2.0315098,-0.103712 c 0.04002,-0.0011 0.0788,-0.01081 0.11338,-0.03097 0.05399,-0.03096 0.09429,-0.08213 0.110253,-0.142594 0.01696,-0.05981 0.0081,-0.124005 -0.02426,-0.177683 -0.03121,-0.05387 -0.0829,-0.09339 -0.143917,-0.109621 -0.06039,-0.01683 -0.125229,-0.0083 -0.17943,0.02392 -0.05441,0.03096 -0.09427,0.0825 -0.110657,0.14254 -0.01691,0.05981 -0.0083,0.124034 0.0241,0.178162 0.04356,0.07397 0.123882,0.119011 0.210389,0.116823 z m -0.929,-0.07263 c 0.04537,-0.0011 0.09013,-0.01332 0.129324,-0.03603 0.06234,-0.0364 0.107939,-0.09471 0.126158,-0.163253 0.01829,-0.06899 0.0095,-0.142555 -0.02676,-0.204347 -0.07467,-0.128083 -0.240422,-0.171825 -0.370231,-0.09788 -0.129347,0.07445 -0.17397,0.238622 -0.09931,0.366703 0.04996,0.08532 0.142137,0.136693 0.241387,0.134446 z M 8.5009789,20.202903 c 0.061355,-0.0024 0.1216136,-0.01815 0.1749158,-0.04883 0.084666,-0.04828 0.1461621,-0.128121 0.171648,-0.221472 0.025064,-0.09338 0.011913,-0.192619 -0.037087,-0.27647 -0.048706,-0.08393 -0.1288659,-0.144827 -0.2231399,-0.169625 -0.094284,-0.02476 -0.1948889,-0.01173 -0.2791311,0.03673 -0.1758019,0.100624 -0.2359141,0.322965 -0.1343518,0.497073 0.066864,0.115456 0.1926054,0.18539 0.3269622,0.182668 z m 2.4710341,-0.155164 c 0.04523,-0.0019 0.08972,-0.01332 0.129332,-0.03667 0.129335,-0.074 0.173508,-0.238181 0.09883,-0.366707 -0.07471,-0.128155 -0.240464,-0.17236 -0.370237,-0.09839 -0.129818,0.07399 -0.173967,0.238141 -0.09929,0.366735 0.0494,0.08525 0.14206,0.137118 0.241367,0.134863 z m -1.1398869,-0.0654 c 0.053505,-0.0019 0.1061371,-0.01601 0.1525645,-0.04289 0.1525774,-0.08704 0.2049324,-0.280561 0.1170514,-0.432129 -0.04271,-0.07261 -0.1124959,-0.125848 -0.1940024,-0.147472 -0.081972,-0.02209 -0.1694358,-0.01035 -0.242739,0.03118 -0.073294,0.04227 -0.1270507,0.111401 -0.1489222,0.192606 -0.022276,0.08077 -0.010218,0.167345 0.031896,0.239945 0.058584,0.100148 0.167097,0.160616 0.2837049,0.157885 z M 7.4963786,19.820854 c 0.071496,-0.0024 0.1420958,-0.02209 0.2040356,-0.05752 0.2053831,-0.117296 0.2759804,-0.377524 0.1575549,-0.580965 -0.1188689,-0.203412 -0.3815924,-0.273376 -0.5870174,-0.155595 -0.2053965,0.117253 -0.2754931,0.377493 -0.1570601,0.580937 0.078269,0.134865 0.2249197,0.21652 0.382487,0.212913 z M 10.45101,19.486606 c 0.05302,-0.0019 0.105669,-0.01608 0.152111,-0.04268 0.153063,-0.08706 0.205404,-0.2806 0.117045,-0.43214 -0.04271,-0.07262 -0.11204,-0.125841 -0.194009,-0.147506 -0.08195,-0.02204 -0.168933,-0.01015 -0.242706,0.03125 -0.07333,0.04226 -0.126597,0.110956 -0.148483,0.192158 -0.02249,0.08119 -0.01037,0.167805 0.03167,0.240435 0.0588,0.100131 0.16758,0.160551 0.284145,0.157842 z m -1.3684733,-0.02079 c 0.061299,-0.0019 0.122063,-0.01814 0.1748635,-0.04883 0.1762757,-0.100561 0.2363459,-0.322946 0.1352794,-0.497543 -0.048706,-0.08339 -0.1293526,-0.144732 -0.2236118,-0.170012 -0.09428,-0.02437 -0.1944664,-0.01149 -0.2791469,0.03666 -0.084688,0.04828 -0.1461955,0.128085 -0.1712326,0.221478 -0.025064,0.09339 -0.011624,0.192592 0.036997,0.276501 0.067357,0.115034 0.1926324,0.184944 0.3269787,0.181767 z"
       id="start-here-kde-9-7-3-6" />
  </g>
</svg>
