<svg width="32" height="32" version="1.1" viewBox="0 0 32 32" xmlns="http://www.w3.org/2000/svg">
<defs>
<style id="current-color-scheme" type="text/css">.ColorScheme-Highlight {
        color:#3daee9;
      }</style>
<linearGradient id="linearGradient6218" x1="408.33" x2="437.79" y1="555.74" y2="492.4" gradientTransform="matrix(1.0006 0 0 .85094 -.23613 72.315)" gradientUnits="userSpaceOnUse">
<stop style="stop-color:#353a3f;stop-opacity:.99608" offset="0"/>
<stop style="stop-color:#272727;stop-opacity:.98876" offset="1"/>
</linearGradient>
<linearGradient id="linearGradient850" x1="392.59" x2="420.29" y1="501.23" y2="503.48" gradientUnits="userSpaceOnUse">
<stop style="stop-color:#444647" offset="0"/>
<stop style="stop-color:#696969;stop-opacity:.42697" offset="1"/>
</linearGradient>
<radialGradient id="radialGradient6178-3" cx="397.99" cy="485.79" r="11.249" gradientTransform="matrix(-.00010706 .04847 -1.0235 -.0023723 538.49 -12.448)" gradientUnits="userSpaceOnUse">
<stop style="stop-color:#d8dbd8" offset="0"/>
<stop style="stop-color:#272727;stop-opacity:.98876" offset="1"/>
</radialGradient>
<linearGradient id="linearGradient2676" x1="406.46" x2="414.47" y1="539.62" y2="506.87" gradientUnits="userSpaceOnUse">
<stop style="stop-color:#1a1b1b" offset="0"/>
<stop style="stop-color:#474747" offset="1"/>
</linearGradient>
<linearGradient id="linearGradient2684" x1="395.58" x2="404.77" y1="530.01" y2="505.63" gradientUnits="userSpaceOnUse">
<stop offset="0"/>
<stop style="stop-color:#c3c3c3;stop-opacity:0" offset="1"/>
</linearGradient>
<linearGradient id="linearGradient25029" x1="12.021" x2="12.012" y1="7.2813" y2="-.72563" gradientUnits="userSpaceOnUse">
<stop style="stop-color:#4f5152" offset="0"/>
<stop style="stop-color:#010501" offset="1"/>
</linearGradient>
<linearGradient id="linearGradient25155" x1="21.812" x2="4.0043" y1="3.9336" y2="4" gradientUnits="userSpaceOnUse">
<stop style="stop-color:#1b1b1b" offset="0"/>
<stop style="stop-color:#090909;stop-opacity:.24541" offset=".49971"/>
<stop style="stop-color:#010101;stop-opacity:.23889" offset=".813"/>
<stop style="stop-opacity:.87011" offset="1"/>
</linearGradient>
</defs>
<path transform="matrix(.48869 0 0 .49779 -187.85 -240.96)" d="m386.9 524.24v-36.16s0.048-1.7187 1.589-1.7187c0 0 20.043-0.0286 20.354 0l5.0939 3.7249 25.709 3e-3c6.1389 0 6.1389 6.0266 6.1389 6.0266v28.124" style="fill:none;stroke-width:.7;stroke:#000"/>
<path transform="matrix(.48976 0 0 .49791 -187.87 -240.89)" d="m387.68 485.81c-1.5856 0-1.5856 2.0084-1.5856 2.0084v40.168h58.756s1e-5 -19.324 0-32.134c0-6.0252-6.373-6.5882-6.373-6.5882l-25.913-0.15436-3.6307-2.6818c-0.53156-0.39081-0.96613-0.61766-1.681-0.61766z" style="fill:url(#linearGradient6218);stroke-linecap:round;stroke-linejoin:bevel;stroke-width:.50828;stroke:#000a00"/>
<path transform="matrix(.49143 0 0 .31854 -188.93 -153.06)" d="m387.05 540.32 0.076-50.366 20.402 0.0901 1.3397-3.2606 3.3565 3.7108h27.167c5.4168 0 5.4168 8.3559 5.4168 8.3559v28.254" style="fill:none;stroke-width:1px;stroke:url(#linearGradient850)"/>
<path transform="matrix(.5 0 0 .5 -.0021617 5.801e-7)" d="m28.004 5.2857v0.73421s17.353-0.056939 26-9e-7l1.5964 0.14159s-0.99131-0.71696-1.8388-0.7221z" style="fill:url(#radialGradient6178-3);stroke-width:.6659"/>
<path transform="matrix(.49017 0 0 .54047 -188.09 -264.07)" d="m385.76 501.54v37.005s0 5.5507 6.1203 5.5507c0 0 40.125 1e-3 48.963 0 6.1203-6.5e-4 6.1203-5.5507 6.1203-5.5507 4.6e-4 -8.0121 0-29.604 0-29.604s0-1.8502-2.0401-1.8502c0 0-20 0-27.389-3.7005-3.8944-1.9502-6.2195-3.2282-8.2026-3.2282h-21.573c-2.0401 0-1.9979 1.3779-1.9979 1.3779z" style="fill:none;stroke-linejoin:round;stroke-width:1.2969;stroke:#000"/>
<path transform="matrix(.49017 0 0 .49893 -187.96 -241.91)" d="m385.21 538.76s0.26767 6.2213 6.4045 6.2213c9.658 1e-3 40.126 0 48.963 0 6.1203 0 6.1203-6.0129 6.1203-6.0129v-32.069c0-2.0043-2.0401-2.0043-2.0401-2.0043s-21.191 0.0116-28.562-4.0086c-5.6203-3.0656-6.1203-4.0086-8.1604-4.0086h-20.401c-2.0401 0-2.0401 2.0043-2.0401 2.0043z" style="fill:url(#linearGradient2676);stroke-linejoin:round;stroke-width:1.2969;stroke:url(#linearGradient2684)"/>
<g transform="matrix(.49888 0 0 .49888 19.711 -2.0283)">
<path d="m-10.902 41.378c-0.5339-1.2653-1.3219-2.4041-2.2877-3.391-0.99138-0.98697-2.1352-1.7462-3.4062-2.2775-1.322-0.55693-2.72-0.86057-4.169-0.86057-1.449 0-2.847 0.30363-4.1688 0.86039-1.271 0.53152-2.4148 1.316-3.4062 2.2775-0.99137 0.98696-1.754 2.1257-2.2877 3.391-0.55942 1.3162-0.86441 2.7079-0.86441 4.1505 0 1.4426 0.30498 2.8343 0.86422 4.1503 0.53389 1.2653 1.3219 2.4041 2.2877 3.391 0.99136 0.98695 2.1352 1.7462 3.4062 2.2775 1.3219 0.55674 2.72 0.83511 4.1688 0.83511 1.449 0 2.8469-0.27838 4.1688-0.83511 1.271-0.53153 2.4148-1.316 3.4062-2.2775 0.99136-0.98696 1.754-2.1257 2.2877-3.391 0.55923-1.316 0.83884-2.7079 0.83884-4.1503 3.7e-4 -1.4426-0.27927-2.8343-0.83854-4.1503z" style="fill:#646464;stroke-width:.045292"/>
<path d="m-13.877 46.172c-0.034 0.13834-0.10334 0.2608-0.22371 0.33782-0.18939 0.12088-0.42001 0.08572-0.58352-0.06129-0.15319-0.13654-0.20485-0.36747-0.15666-0.56718 0.0497-0.2084 0.20827-0.3922 0.41138-0.45002 0.45268-0.12767 0.64033 0.3729 0.5525 0.74066zm-0.27709-1.4216c-0.28053-0.1139-0.18421-1.6106 0.0724-3.4277 0.0724-0.50774 0.19626-0.7478 0.33567-0.8704 0.19965-0.17316 0.56282-0.1803 0.8089-0.14352 0.28229 0.04059 0.55256 0.1752 0.75737 0.37647 0.18073 0.17873 0.20136 0.36061 0.13937 0.59711-0.10159 0.37645-0.27534 0.7371-0.44234 1.0888-0.03878 0.08562-0.38559 0.75279-0.43198 0.83503-0.83476 1.4952-1.0017 1.6404-1.2392 1.5442z" style="fill:#282929;stroke-width:.017359"/>
<path d="m-19.817 44.077c0.16521 0.71796 0.14798 1.5057 4e-3 2.0728-0.13244 0.53571-0.49217 1.0154-1.0636 1.1764-0.501 0.14185-1.0844 0.03793-1.4424-0.3116-0.58861-0.57425-0.93284-1.9223-0.77968-2.9009 0.12398-0.78587 0.5405-1.7927 1.4545-1.8365 0.0595-2e-3 0.11705-9.96e-4 0.17546 2e-3 0.93123 0.08572 1.4389 0.88422 1.649 1.7964zm-1.6833 1.6334c0.05089 0.01072 0.10338 0.01072 0.15483-4e-3 0.17384-0.05009 0.27368-0.23462 0.32013-0.41313 0.07098-0.2714 0.0607-0.56376-0.03256-0.8299-0.0473-0.13482-0.11514-0.26612-0.22033-0.36417-0.36995-0.34482-0.73988 0.01342-0.80369 0.42192-0.04965 0.31868 0.0232 0.68805 0.21854 0.94544 0.09147 0.11906 0.22219 0.22228 0.36162 0.24679z" style="fill:#282929;stroke-width:.017359"/>
<path d="m-17.802 45.598c-1e-3 1.3251 0.12905 2.3388-0.44413 2.4596-0.46468 0.09607-0.44913-0.31866-0.48539-0.66706-0.1376-1.3497-0.26323-3.5922-0.31669-4.9492 0.0376-0.58302 0.42179-0.94013 0.82108-1.0275 0.61616-0.13485 1.2736-0.09637 1.8193 0.24672 1.0792 0.67938 1.1653 1.9258 0.51122 2.9429-0.35806 0.55498-1.4407 0.95777-1.9054 0.92259zm0.13765-2.9709c-0.0669 0.01116-0.17723 0.04048-0.20827 0.10836-0.074 0.1558-0.0695 1.1452 0.0607 1.56 0.0219 0.06893 0.0661 0.13296 0.13425 0.15747 0.24442 0.09119 0.46475-0.2136 0.56459-0.3974 0.1394-0.25557 0.1841-0.55664 0.0962-0.83686-0.08273-0.26079-0.33906-0.63903-0.64714-0.59157z" style="fill:#282929;stroke-width:.017359"/>
<path d="m-23.974 43.285c-0.40448 0.87024-1.0758 1.5616-2.0051 1.9031 0.26693 0.709 0.53865 1.4093 0.80375 2.1165 0.14809 0.3816 0.28918 0.80004 0.16002 1.1764-0.13424 0.38518-0.65725 0.49193-1.0378 0.0823-0.73161-0.79135-3.2048-5.8052-3.3872-6.1817-0.15502-0.32384-0.38716-0.67054-0.38049-1.0451 0.0121-0.56379 0.86942-1.1345 1.2804-1.4267 0.57508-0.40808 1.2393-0.68648 1.9502-0.68807 0.5543 0 1.0276 0.1542 1.4476 0.42707 0.64363 0.42036 1.0913 1.0906 1.2566 1.8487 0.14444 0.66709 0.11352 1.35-0.088 1.7876m-1.8846-0.95248c-0.14462-0.53381-0.47171-1.0257-0.88312-1.3706-0.0894-0.07536-0.18593-0.14551-0.29748-0.18385-0.77115-0.25744-0.43724 1.0538-0.31158 1.3848 0.17378 0.46383 0.43723 1.0503 0.78992 1.4004 0.0774 0.07706 0.16872 0.1454 0.27362 0.16636 0.16009 0.03427 0.30807-0.08059 0.38913-0.21354 0.0661-0.11033 0.09262-0.24162 0.10843-0.36933 0.028-0.27129 2e-3 -0.5481-0.0697-0.81424z" style="fill:#282929;stroke-width:.017359"/>
<path d="m-14.753 49.95c-2e-3 0.7686-0.46467 1.5372-1.482 1.5372-1.0172 0-1.4905-0.75629-1.4905-1.5284 0-0.96288 0.65919-1.5581 1.5112-1.5581 0.98799 0.01072 1.4699 0.75455 1.4613 1.5493zm-1.4613-1.0644c-0.63856 0-0.99663 0.45174-1 1.0679 0 0.53571 0.2943 1.0382 0.98792 1.0382 0.69361 0 0.95869-0.54441 0.95869-1.0434 0.01076-0.51823-0.26154-1.0504-0.94658-1.0627zm1.8881 2.2076c0 0.11384 2e-3 -0.54097 0-0.64074h0.46818l0.034 0.40095c0.15327 0.08939 0.39071 0.15582 0.58523 0.15582 0.3615 0 0.73843-0.09256 0.73843-0.4517-0.0121-0.32566-0.43204-0.39215-0.77107-0.42724-0.57661-0.06003-1.0413-0.20293-1.0413-0.86128 0-0.58648 0.65228-0.87874 1.1376-0.87874 0.39072-0.01072 0.66782 0.05272 1.0207 0.34127 0 0.23645-2e-3 0.37646-2e-3 0.61273h-0.45258l-0.028-0.38854c-0.18244-0.08949-0.37008-0.11387-0.51462-0.1103-0.31156 2e-3 -0.64374 0.15224-0.64374 0.41836 0 0.2608 0.21515 0.33258 0.59722 0.3887 0.62314 0.08403 1.2238 0.2275 1.2238 0.90329-2e-3 0.73875-0.68504 0.93314-1.2702 0.93314-0.44576 9.96e-4 -0.72465-0.0824-1.0775-0.39572z" style="fill:#282929;stroke-width:.017359"/>
<path d="m-18.357 51.235c0 0.1348-0.10672 0.24331-0.23918 0.24331h-2.766c-0.13254 0-0.23917-0.10851-0.23917-0.24331v-0.022c0-0.13486 0.1066-0.24323 0.23917-0.24323h2.766c0.13242 0 0.23918 0.10838 0.23918 0.24323z" style="fill:#282929;stroke-width:.017359"/>
</g>
<path class="ColorScheme-Highlight" transform="matrix(.5 0 0 .5 -.0021617 5.801e-7)" d="m2.4512 4 2.2e-6 2h19.553v-3.7118l-17.553-2.4e-6c-2 2.4e-6 -2 1.7118-2 1.7118z" style="fill:currentColor;mix-blend-mode:normal"/>
<path transform="matrix(.5 0 0 .5 -.0021617 5.801e-7)" d="m4.4512 2.2432c-2 0-2 1.2466-2 1.7561v2.0205h19.553s2.0889-2.7012 2-3.2256c-0.27723-0.50911-1.4378-0.55108-2-0.55108z" style="color:#3daee9;fill:url(#linearGradient25155);stroke-width:.69;stroke:url(#linearGradient25029)"/>
<path transform="matrix(.5 0 0 .5 -.0021617 5.801e-7)" d="m4.4512 2.7797c-2 0-2 1.2466-2 1.7561v1.4841h19.719s1.1866-1.7212 1.8344-2.7354c-0.33138-0.41002-1.4378-0.50478-2-0.50478z" style="color:#3daee9;fill:none;stroke-width:.69;stroke:url(#linearGradient25029)"/>
</svg>
