<svg width="32" height="32" version="1.1" viewBox="0 0 32 32" xmlns="http://www.w3.org/2000/svg">
<defs>
<style id="current-color-scheme" type="text/css">.ColorScheme-Highlight {
        color:#3daee9;
      }</style>
<linearGradient id="linearGradient6218" x1="408.33" x2="437.79" y1="555.74" y2="492.4" gradientTransform="matrix(1.0006 0 0 .85094 -.23613 72.315)" gradientUnits="userSpaceOnUse">
<stop style="stop-color:#353a3f;stop-opacity:.99608" offset="0"/>
<stop style="stop-color:#272727;stop-opacity:.98876" offset="1"/>
</linearGradient>
<linearGradient id="linearGradient850" x1="392.59" x2="420.29" y1="501.23" y2="503.48" gradientUnits="userSpaceOnUse">
<stop style="stop-color:#444647" offset="0"/>
<stop style="stop-color:#696969;stop-opacity:.42697" offset="1"/>
</linearGradient>
<radialGradient id="radialGradient6178-3" cx="397.99" cy="485.79" r="11.249" gradientTransform="matrix(-.00010706 .04847 -1.0235 -.0023723 538.49 -12.448)" gradientUnits="userSpaceOnUse">
<stop style="stop-color:#d8dbd8" offset="0"/>
<stop style="stop-color:#272727;stop-opacity:.98876" offset="1"/>
</radialGradient>
<linearGradient id="linearGradient2676" x1="406.46" x2="414.47" y1="539.62" y2="506.87" gradientUnits="userSpaceOnUse">
<stop style="stop-color:#1a1b1b" offset="0"/>
<stop style="stop-color:#474747" offset="1"/>
</linearGradient>
<linearGradient id="linearGradient2684" x1="395.58" x2="404.77" y1="530.01" y2="505.63" gradientUnits="userSpaceOnUse">
<stop offset="0"/>
<stop style="stop-color:#c3c3c3;stop-opacity:0" offset="1"/>
</linearGradient>
<linearGradient id="linearGradient25029" x1="12.021" x2="12.012" y1="7.2813" y2="-.72563" gradientUnits="userSpaceOnUse">
<stop style="stop-color:#4f5152" offset="0"/>
<stop style="stop-color:#010501" offset="1"/>
</linearGradient>
<linearGradient id="linearGradient25155" x1="21.812" x2="4.0043" y1="3.9336" y2="4" gradientUnits="userSpaceOnUse">
<stop style="stop-color:#1b1b1b" offset="0"/>
<stop style="stop-color:#090909;stop-opacity:.24541" offset=".49971"/>
<stop style="stop-color:#010101;stop-opacity:.23889" offset=".813"/>
<stop style="stop-opacity:.87011" offset="1"/>
</linearGradient>
</defs>
<path transform="matrix(.48869 0 0 .49779 -187.85 -240.96)" d="m386.9 524.24v-36.16s0.048-1.7187 1.589-1.7187c0 0 20.043-0.0286 20.354 0l5.0939 3.7249 25.709 3e-3c6.1389 0 6.1389 6.0266 6.1389 6.0266v28.124" style="fill:none;stroke-width:.7;stroke:#000"/>
<path transform="matrix(.48976 0 0 .49791 -187.87 -240.89)" d="m387.68 485.81c-1.5856 0-1.5856 2.0084-1.5856 2.0084v40.168h58.756s1e-5 -19.324 0-32.134c0-6.0252-6.373-6.5882-6.373-6.5882l-25.913-0.15436-3.6307-2.6818c-0.53156-0.39081-0.96613-0.61766-1.681-0.61766z" style="fill:url(#linearGradient6218);stroke-linecap:round;stroke-linejoin:bevel;stroke-width:.50828;stroke:#000a00"/>
<path transform="matrix(.49143 0 0 .31854 -188.93 -153.06)" d="m387.05 540.32 0.076-50.366 20.402 0.0901 1.3397-3.2606 3.3565 3.7108h27.167c5.4168 0 5.4168 8.3559 5.4168 8.3559v28.254" style="fill:none;stroke-width:1px;stroke:url(#linearGradient850)"/>
<path transform="matrix(.5 0 0 .5 -.0021617 5.801e-7)" d="m28.004 5.2857v0.73421s17.353-0.056939 26-9e-7l1.5964 0.14159s-0.99131-0.71696-1.8388-0.7221z" style="fill:url(#radialGradient6178-3);stroke-width:.6659"/>
<path transform="matrix(.49017 0 0 .54047 -188.09 -264.07)" d="m385.76 501.54v37.005s0 5.5507 6.1203 5.5507c0 0 40.125 1e-3 48.963 0 6.1203-6.5e-4 6.1203-5.5507 6.1203-5.5507 4.6e-4 -8.0121 0-29.604 0-29.604s0-1.8502-2.0401-1.8502c0 0-20 0-27.389-3.7005-3.8944-1.9502-6.2195-3.2282-8.2026-3.2282h-21.573c-2.0401 0-1.9979 1.3779-1.9979 1.3779z" style="fill:none;stroke-linejoin:round;stroke-width:1.2969;stroke:#000"/>
<path transform="matrix(.49017 0 0 .49893 -187.96 -241.91)" d="m385.21 538.76s0.26767 6.2213 6.4045 6.2213c9.658 1e-3 40.126 0 48.963 0 6.1203 0 6.1203-6.0129 6.1203-6.0129v-32.069c0-2.0043-2.0401-2.0043-2.0401-2.0043s-21.191 0.0116-28.562-4.0086c-5.6203-3.0656-6.1203-4.0086-8.1604-4.0086h-20.401c-2.0401 0-2.0401 2.0043-2.0401 2.0043z" style="fill:url(#linearGradient2676);stroke-linejoin:round;stroke-width:1.2969;stroke:url(#linearGradient2684)"/>
<g transform="matrix(.5 0 0 .5 -.18984 -1.2527)">
<path transform="translate(38.843 3.859)" d="m-19.748 29.314c-5.917 0-10.714 4.7759-10.714 10.667 0 5.8908 4.7968 10.667 10.714 10.667 5.9175 0 10.714-4.7759 10.714-10.667 1.66e-4 -5.8912-4.7968-10.667-10.714-10.667z" style="fill:#646464;stroke-width:.043869"/>
<path d="m13.656 38.033c0.0979-0.0046 0.16102 0.02013 0.16102 0.02013h3.6935s0.48307 0.18535 0.48307 0.61391-0.3623 0.71455-0.3623 0.71455h-2.2443l1.5599 1.5096h1.9021v1.3385h-0.54346c-0.0039 0-0.0061-4.9e-5 -0.01007 0-0.49818 0.0063-0.8957 0.40605-0.8957 0.90576v0.48307h-1.2781l-0.02013-1.7511c-3e-6 -0.01119-1.409-1.4593-1.409-1.4593l-0.01007 2.0128c-3e-6 0-0.30408 0.48307-0.77493 0.48307-0.47085 0-0.72461-0.52333-0.72461-0.52333v-3.6432c0-2e-6 -0.07283-0.32841 0.12077-0.54346 0.0047-0.0052 0.0151-0.0151 0.02013-0.02013 0.10714-0.10714 0.23422-0.13628 0.33212-0.1409zm6.9945 0.04025s3.6215 0.01712 3.6231 0c7.82e-4 -0.0085 0.3512 0.01325 0.49314 0.13083 0.16088 0.13326 0.21134 0.43275 0.21134 0.43275v3.6834c-1e-6 2e-6 -0.18534 0.48307-0.61391 0.48307-0.42856 0-0.71455-0.35224-0.71455-0.35224v-2.0128l-1.6404 1.7713v1.409h-1.3989v-0.48307c0-0.50365-0.40211-0.90576-0.90576-0.90576h-0.42269v-1.3385h1.8115c0.06542 0 0.12978 0.0071 0.19122 0.02013l1.57-1.5197-2.3147-0.01007s-0.3925-0.2135-0.3925-0.68436c-2e-6 -0.18393 0.06343-0.3829 0.16102-0.48307 0.15224-0.15628 0.34218-0.1409 0.34218-0.1409zm-4.5288 5.968h1.2781v0.49314c0 0.50365 0.40212 0.90576 0.90576 0.90576h0.54346v1.3285h-1.8115c-0.50364 0-0.91583-0.40212-0.91583-0.90576zm4.4886 0h1.3989v1.8216c3e-6 0.02983-0.0073 0.0615-0.01007 0.09058l1.6102 1.419 0.05032-2.204c4e-6 4e-6 0.22356-0.37237 0.69442-0.37237 0.47085-4e-6 0.66423 0.46295 0.66423 0.46295l-0.03019 3.7036c5e-6 2e-6 -0.0071 0.32918-0.22141 0.54346-0.21428 0.21428-0.5032 0.12077-0.5032 0.12077h-3.6834s-0.48307-0.18534-0.48307-0.61391c0-0.42856 0.35224-0.71455 0.35224-0.71455h2.3952l-1.7411-1.5297h-1.8216v-1.3285h0.42269c0.50365 3e-6 0.90576-0.40212 0.90576-0.90576v-0.49314z" style="fill:#262727;stroke-width:.15198"/>
</g>
<path class="ColorScheme-Highlight" transform="matrix(.5 0 0 .5 -.0021617 5.801e-7)" d="m2.4512 4 2.2e-6 2h19.553v-3.7118l-17.553-2.4e-6c-2 2.4e-6 -2 1.7118-2 1.7118z" style="fill:currentColor;mix-blend-mode:normal"/>
<path transform="matrix(.5 0 0 .5 -.0021617 5.801e-7)" d="m4.4512 2.2432c-2 0-2 1.2466-2 1.7561v2.0205h19.553s2.0889-2.7012 2-3.2256c-0.27723-0.50911-1.4378-0.55108-2-0.55108z" style="color:#3daee9;fill:url(#linearGradient25155);stroke-width:.69;stroke:url(#linearGradient25029)"/>
<path transform="matrix(.5 0 0 .5 -.0021617 5.801e-7)" d="m4.4512 2.7797c-2 0-2 1.2466-2 1.7561v1.4841h19.719s1.1866-1.7212 1.8344-2.7354c-0.33138-0.41002-1.4378-0.50478-2-0.50478z" style="color:#3daee9;fill:none;stroke-width:.69;stroke:url(#linearGradient25029)"/>
</svg>
