<?xml version="1.0" encoding="UTF-8" standalone="no"?>
<svg
   viewBox="0 0 32 32"
   version="1.1"
   id="svg12"
   sodipodi:docname="folder-mail.svg"
   inkscape:version="1.1.2 (0a00cf5339, 2022-02-04)"
   width="32"
   height="32"
   xmlns:inkscape="http://www.inkscape.org/namespaces/inkscape"
   xmlns:sodipodi="http://sodipodi.sourceforge.net/DTD/sodipodi-0.dtd"
   xmlns:xlink="http://www.w3.org/1999/xlink"
   xmlns="http://www.w3.org/2000/svg"
   xmlns:svg="http://www.w3.org/2000/svg">
  <sodipodi:namedview
     id="namedview14"
     pagecolor="#ffffff"
     bordercolor="#666666"
     borderopacity="1.0"
     inkscape:pageshadow="2"
     inkscape:pageopacity="0.0"
     inkscape:pagecheckerboard="0"
     showgrid="false"
     inkscape:zoom="22.627417"
     inkscape:cx="9.7153563"
     inkscape:cy="17.264841"
     inkscape:window-width="1920"
     inkscape:window-height="996"
     inkscape:window-x="0"
     inkscape:window-y="0"
     inkscape:window-maximized="1"
     inkscape:current-layer="svg12"
     inkscape:snap-nodes="true"
     inkscape:object-paths="true"
     showguides="true"
     inkscape:guide-bbox="true"
     inkscape:snap-intersection-paths="true"
     inkscape:snap-smooth-nodes="true"
     inkscape:snap-midpoints="true">
    <sodipodi:guide
       position="9.6842658,4.6250324"
       orientation="0,-1"
       id="guide4749" />
    <sodipodi:guide
       position="4.3460068,9.9395738"
       orientation="1,0"
       id="guide4751" />
  </sodipodi:namedview>
  <defs
     id="defs3051">
    <linearGradient
       inkscape:collect="always"
       id="linearGradient25153">
      <stop
         style="stop-color:#1b1b1b;stop-opacity:1"
         offset="0"
         id="stop25149" />
      <stop
         style="stop-color:#090909;stop-opacity:0.24540505"
         offset="0.49971318"
         id="stop1797" />
      <stop
         style="stop-color:#010101;stop-opacity:0.23888743"
         offset="0.9430303"
         id="stop2247" />
      <stop
         style="stop-color:#000000;stop-opacity:0.8012926"
         offset="1"
         id="stop25151" />
    </linearGradient>
    <linearGradient
       inkscape:collect="always"
       id="linearGradient14607">
      <stop
         style="stop-color:#4f5152;stop-opacity:1"
         offset="0"
         id="stop14603" />
      <stop
         style="stop-color:#010501;stop-opacity:1"
         offset="1"
         id="stop14605" />
    </linearGradient>
    <style
       type="text/css"
       id="current-color-scheme">
      .ColorScheme-Text {
        color:#232629;
      }
      .ColorScheme-Highlight {
        color:#3daee9;
      }
      </style>
    <filter
       height="1.0449693"
       y="-0.026935052"
       width="1.0344187"
       x="-0.017208866"
       id="filter940"
       style="color-interpolation-filters:sRGB">
      <feGaussianBlur
         id="feGaussianBlur942"
         stdDeviation="0.28795822" />
    </filter>
    <linearGradient
       gradientTransform="matrix(1.0005668,0,0,0.8509446,-0.23612742,72.315207)"
       gradientUnits="userSpaceOnUse"
       y2="492.39743"
       x2="437.78555"
       y1="555.7431"
       x1="408.33118"
       id="linearGradient6218"
       xlink:href="#linearGradient42869" />
    <linearGradient
       id="linearGradient42869">
      <stop
         style="stop-color:#353a3f;stop-opacity:0.99607843"
         offset="0"
         id="stop42865" />
      <stop
         style="stop-color:#272727;stop-opacity:0.98876405"
         offset="1"
         id="stop42867" />
    </linearGradient>
    <filter
       height="1.0667278"
       y="-0.033363852"
       width="1.0561312"
       x="-0.028065609"
       id="filter2714"
       style="color-interpolation-filters:sRGB">
      <feGaussianBlur
         id="feGaussianBlur2716"
         stdDeviation="0.56332734" />
    </filter>
    <radialGradient
       r="10.859361"
       fy="487.69391"
       fx="398.76016"
       cy="487.69391"
       cx="398.76016"
       gradientTransform="matrix(-7.685935e-4,0.15609892,-1.7620566,-0.00728959,850.60261,-66.13108)"
       gradientUnits="userSpaceOnUse"
       id="radialGradient6119"
       xlink:href="#linearGradient6109" />
    <linearGradient
       id="linearGradient6109">
      <stop
         id="stop6105"
         offset="0"
         style="stop-color:#498fff;stop-opacity:1;" />
      <stop
         id="stop6107"
         offset="1"
         style="stop-color:#010006;stop-opacity:1" />
    </linearGradient>
    <linearGradient
       gradientTransform="matrix(1,0,0,0.79783267,-406.29559,-396.90111)"
       gradientUnits="userSpaceOnUse"
       y2="483.23215"
       x2="394.73306"
       y1="493.14221"
       x1="394.80273"
       id="linearGradient6103"
       xlink:href="#linearGradient6101" />
    <linearGradient
       id="linearGradient6101">
      <stop
         id="stop6097"
         offset="0"
         style="stop-color:#000304;stop-opacity:1" />
      <stop
         id="stop6099"
         offset="1"
         style="stop-color:#595959;stop-opacity:0.62352943" />
    </linearGradient>
    <linearGradient
       gradientUnits="userSpaceOnUse"
       y2="539.64374"
       x2="414.83517"
       y1="501.65286"
       x1="415.07861"
       id="linearGradient850"
       xlink:href="#linearGradient848" />
    <linearGradient
       id="linearGradient848">
      <stop
         id="stop844"
         offset="0"
         style="stop-color:#57595a;stop-opacity:0.99607843" />
      <stop
         id="stop846"
         offset="1"
         style="stop-color:#000000;stop-opacity:0.42696628" />
    </linearGradient>
    <filter
       height="1.03215"
       y="-0.025901777"
       width="1.0283593"
       x="-0.01417968"
       id="filter2706"
       style="color-interpolation-filters:sRGB">
      <feGaussianBlur
         id="feGaussianBlur2708"
         stdDeviation="0.140357" />
    </filter>
    <radialGradient
       gradientUnits="userSpaceOnUse"
       gradientTransform="matrix(-5.3340695e-5,0.02414953,-0.50997058,-0.00118197,268.40841,-5.990022)"
       r="11.24949"
       fy="485.79099"
       fx="397.99051"
       cy="485.79099"
       cx="397.99051"
       id="radialGradient6178-3"
       xlink:href="#linearGradient880" />
    <linearGradient
       id="linearGradient880">
      <stop
         style="stop-color:#d8dbd8;stop-opacity:1"
         offset="0"
         id="stop876" />
      <stop
         style="stop-color:#272727;stop-opacity:0.98876405"
         offset="1"
         id="stop878" />
    </linearGradient>
    <filter
       height="1.0707442"
       y="-0.035372174"
       width="1.0508627"
       x="-0.025431326"
       id="filter1073"
       style="color-interpolation-filters:sRGB">
      <feGaussianBlur
         id="feGaussianBlur1075"
         stdDeviation="0.39283137" />
    </filter>
    <linearGradient
       gradientUnits="userSpaceOnUse"
       y2="506.87347"
       x2="414.47186"
       y1="539.61627"
       x1="406.45694"
       id="linearGradient2676"
       xlink:href="#linearGradient2668" />
    <linearGradient
       id="linearGradient2668">
      <stop
         id="stop2664"
         offset="0"
         style="stop-color:#1a1b1b;stop-opacity:1" />
      <stop
         id="stop2666"
         offset="1"
         style="stop-color:#474747;stop-opacity:1" />
    </linearGradient>
    <linearGradient
       gradientUnits="userSpaceOnUse"
       y2="505.62521"
       x2="404.77097"
       y1="530.01428"
       x1="395.58017"
       id="linearGradient2684"
       xlink:href="#linearGradient2682" />
    <linearGradient
       id="linearGradient2682">
      <stop
         id="stop2678"
         offset="0"
         style="stop-color:#000000;stop-opacity:1;" />
      <stop
         id="stop2680"
         offset="1"
         style="stop-color:#c3c3c3;stop-opacity:0" />
    </linearGradient>
    <filter
       height="1.0397525"
       y="-0.019876304"
       width="1.0307531"
       x="-0.015376566"
       id="filter2690"
       style="color-interpolation-filters:sRGB">
      <feGaussianBlur
         id="feGaussianBlur2692"
         stdDeviation="0.13069192" />
    </filter>
    <filter
       inkscape:collect="always"
       style="color-interpolation-filters:sRGB"
       id="filter24684"
       x="-0.024959943"
       y="-0.15409672"
       width="1.0499199"
       height="1.3081934">
      <feGaussianBlur
         inkscape:collect="always"
         stdDeviation="0.21554955"
         id="feGaussianBlur24686" />
    </filter>
    <linearGradient
       inkscape:collect="always"
       xlink:href="#linearGradient14607"
       id="linearGradient25029"
       gradientUnits="userSpaceOnUse"
       x1="12.020759"
       y1="7.2813473"
       x2="12.011944"
       y2="-0.7256338" />
    <linearGradient
       inkscape:collect="always"
       xlink:href="#linearGradient25153"
       id="linearGradient25155"
       x1="21.812489"
       y1="3.9335968"
       x2="4.6537294"
       y2="4.034317"
       gradientUnits="userSpaceOnUse" />
    <filter
       inkscape:collect="always"
       style="color-interpolation-filters:sRGB"
       id="filter30328"
       x="-0.060622242"
       y="-0.37427998"
       width="1.121405"
       height="1.7485472">
      <feGaussianBlur
         inkscape:collect="always"
         stdDeviation="0.2547727"
         id="feGaussianBlur30330" />
    </filter>
  </defs>
  <path
     transform="matrix(0.48696751,0,0,0.4960353,-187.06995,-239.89567)"
     id="path6220-2"
     d="m 386.25703,524.61791 0.77838,-38.71157 22.03057,0.10242 3.50545,3.40716 c 0,0 18.10956,0.35097 27.33843,0.35097 2.88877,0 6.71919,2.18928 6.71919,7.16894 0,13.1364 0.12174,26.49022 0.12174,26.49022"
     style="display:inline;fill:none;fill-opacity:1;stroke:#000000;stroke-width:0.7;stroke-linecap:butt;stroke-linejoin:miter;stroke-miterlimit:4;stroke-dasharray:none;stroke-opacity:1;filter:url(#filter940)"
     sodipodi:nodetypes="ccccssc"
     inkscape:label="dégradé arrière noir" />
  <path
     transform="matrix(0.48802992,0,0,0.49615387,-187.09835,-239.8238)"
     d="m 386.39384,486.19622 c 0,0 -0.10293,36.25523 -0.10293,49.28612 0,1.03908 0.48232,1.87652 1.08144,1.87652 h 58.39816 c 0.59911,0 1.34832,-0.83745 1.34161,-1.87652 0,0 -0.0268,-27.28049 -0.0268,-40.09035 0,-3.00572 -3.75125,-6.05898 -6.82146,-6.05898 -9.03444,0 -27.69471,-0.22684 -27.69471,-0.22684 l -4.13226,-2.8228 z"
     id="rect4180"
     style="display:inline;fill:url(#linearGradient6218);fill-opacity:1;stroke:#000a00;stroke-width:0.71;stroke-linecap:round;stroke-linejoin:bevel;stroke-miterlimit:4;stroke-dasharray:none;stroke-opacity:1;filter:url(#filter2714)"
     sodipodi:nodetypes="cssscssccc"
     inkscape:label="arrière plan" />
  <path
     transform="matrix(0.48969536,0,0,0.31742024,-188.14836,-152.31236)"
     id="path6220"
     d="m 387.04904,540.31904 0.076,-50.36617 20.73641,0.0901 1.41588,-3.75705 2.94655,4.20719 c 0,0 17.40991,0.34184 27.40616,0.34184 3.61218,0 6.32049,4.0507 6.32049,8.9451 0,12.76833 0.1165,38.20486 0.1165,38.20486"
     style="display:inline;fill:none;fill-opacity:1;stroke:url(#linearGradient850);stroke-width:1px;stroke-linecap:butt;stroke-linejoin:miter;stroke-opacity:1;filter:url(#filter2706)"
     sodipodi:nodetypes="cccccssc"
     inkscape:label="contour haut" />
  <path
     d="m 14.022662,2.922219 v 0.1894704 h 0.221981 l 12.702416,0.083642 h 0.221979 L 26.897399,2.922214 h -0.22198 -12.430776 z"
     id="path4151-2-3-5"
     style="display:inline;fill:url(#radialGradient6178-3);fill-opacity:1;stroke-width:0.331779"
     inkscape:label="reflet haut" />
  <path
     transform="matrix(0.48843843,0,0,0.53856155,-187.31454,-262.92418)"
     style="display:inline;fill:none;fill-opacity:1;stroke:#000000;stroke-width:1.29693;stroke-linejoin:round;stroke-miterlimit:4;stroke-dasharray:none;stroke-opacity:1;filter:url(#filter1073)"
     id="path952"
     d="m 385.15633,501.64377 c 0,13.8136 0.0547,36.33599 0.0547,39.23108 0,2.8951 4.24366,4.43675 7.16501,4.43675 9.65801,10e-4 39.7482,-0.008 48.58578,-0.009 2.73024,-2.9e-4 6.73958,-3.06897 6.73961,-5.5723 4.6e-4,-8.01206 0.0257,-31.8933 0.0257,-31.8933 -21.39075,-0.31416 -23.00468,-0.49626 -28.48106,-3.68616 -5.47637,-3.18989 -6.84254,-3.7889 -8.06758,-3.79572 -8.19718,-0.0456 -25.32423,-0.0254 -25.32423,-0.0254 0,0 -0.68932,-0.094 -0.698,1.31379 z"
     inkscape:label="ombrage folder"
     sodipodi:nodetypes="czcscczsccc" />
  <path
     transform="matrix(0.48843843,0,0,0.4971701,-187.18213,-240.84854)"
     style="display:inline;fill:url(#linearGradient2676);fill-opacity:1;stroke:url(#linearGradient2684);stroke-width:1.29693;stroke-linejoin:round;stroke-miterlimit:4;stroke-dasharray:none;stroke-opacity:1;filter:url(#filter2690)"
     id="path952-7"
     d="m 385.15633,498.35321 c 0,13.8136 0.0547,28.03631 0.0547,40.41503 0,6.52543 4.5187,6.67224 7.29021,6.67224 9.65801,10e-4 38.73653,0 47.57411,0 4.29557,0 7.62608,-4.19689 7.62608,-7.71933 4.6e-4,-8.01206 0.0257,-32.38987 0.0257,-32.38987 -22.81136,0 -23.57647,-0.13663 -31.18143,-4.28484 -5.62028,-3.06564 -5.63216,-3.98161 -7.35295,-3.98161 -8.19718,-0.0456 -23.33849,-0.0254 -23.33849,-0.0254 0,0 -0.68932,-0.094 -0.698,1.31379 z"
     inkscape:label="premier plan folder"
     sodipodi:nodetypes="cscsccscccc" />
  <path
     style="display:inline;mix-blend-mode:normal;fill:currentColor;stroke:none;stroke-width:0.390115;stroke-miterlimit:4;stroke-dasharray:none;filter:url(#filter24684)"
     d="M 3.1185124,2.3943988 C 2.9060465,2.5755409 2.8406898,2.662737 2.8406898,3.1723004 c 0,0.7470828 0.00654,2.4587688 0.00654,2.4587688 H 22.075746 l 0.993727,-1.6353471 c 0,0 0.682408,-0.9793708 0.44826,-1.410869 -0.123324,-0.2272669 -0.513311,-0.2662912 -1.075516,-0.2662912 -0.820732,0 -18.1692197,-0.041813 -18.4326201,-0.041813 0,0 -0.7160982,-0.031538 -0.8910845,0.1176499 z"
     class="ColorScheme-Highlight"
     id="path4"
     sodipodi:nodetypes="sscccsscs"
     inkscape:label="AA-couleur-courant"
     transform="matrix(0.49823791,0,0,0.49823791,0.11114963,0.21211849)" />
  <path
     style="color:#3daee9;display:inline;fill:url(#linearGradient25155);fill-opacity:1;stroke:url(#linearGradient25029);stroke-width:1.29;stroke-miterlimit:4;stroke-dasharray:none;filter:url(#filter30328)"
     d="M 3.1185124,2.3943988 C 2.9060465,2.5755409 2.8406898,2.662737 2.8406898,3.1723004 c 0,0.7470828 0.00654,2.4587688 0.00654,2.4587688 H 22.075746 l 0.993727,-1.6353471 c 0,0 0.682408,-0.9793708 0.44826,-1.410869 -0.123324,-0.2272669 -0.513311,-0.2662912 -1.075516,-0.2662912 -0.820732,0 -18.1692197,-0.041813 -18.4326201,-0.041813 0,0 -0.7160982,-0.031538 -0.8910845,0.1176499 z"
     class="ColorScheme-Highlight"
     id="path4-0"
     sodipodi:nodetypes="sscccsscs"
     inkscape:label="AA-degradé"
     transform="matrix(0.49823791,0,0,0.49823791,0.11114963,0.21211849)" />
  <g
     id="g178370"
     transform="matrix(0.49835434,0,0,0.49835434,20.303932,-0.37746825)">
    <g
       id="g226633"
       transform="translate(36.072281,-0.84152375)">
      <path
         d="m -47.518776,41.725435 c -0.533898,-1.265323 -1.321855,-2.404074 -2.287659,-3.391043 -0.991364,-0.986953 -2.135196,-1.746196 -3.406157,-2.277492 -1.322039,-0.556929 -2.719981,-0.860566 -4.168974,-0.860566 -1.449002,0 -2.846942,0.303627 -4.168792,0.860384 -1.27097,0.53152 -2.4148,1.315976 -3.40616,2.277506 -0.99136,0.986954 -1.75399,2.125706 -2.28765,3.391042 -0.55941,1.316167 -0.86441,2.707892 -0.86441,4.150465 0,1.442563 0.30499,2.834294 0.86422,4.150288 0.5339,1.265326 1.32186,2.404076 2.28767,3.391047 0.99135,0.986948 2.13518,1.746193 3.40615,2.277505 1.32186,0.556744 2.71997,0.835112 4.168789,0.835112 1.448992,0 2.846932,-0.278378 4.168786,-0.835112 1.270968,-0.531537 2.414798,-1.315994 3.406164,-2.277505 0.991358,-0.986971 1.753985,-2.125721 2.287658,-3.391047 0.559227,-1.315994 0.838836,-2.707902 0.838836,-4.150288 3.64e-4,-1.442573 -0.279264,-2.834298 -0.838522,-4.150296 z"
         id="path67-3"
         style="fill:#646464;fill-opacity:1;stroke-width:0.0452914" />
      <path
         d="m -57.36639,47.437067 -6.777498,-3.812226 v 7.192232 c 0,0.798291 0.65002,1.445942 1.45238,1.445942 h 10.650504 c 0.802022,0 1.452574,-0.647143 1.452574,-1.445942 v -7.192872 z"
         id="path2-3"
         style="fill:#282929;fill-opacity:1;stroke-width:0.518848" />
      <path
         d="m -61.991098,44.836138 -0.004,-4.288035 c -1.6e-4,-0.199368 0.16276,-0.361245 0.36288,-0.361245 h 8.533207 c 0.200288,0 0.362975,0.161877 0.362975,0.361245 l 0.01489,4.320244 1.054466,-0.632872 1.078523,-0.611274 -1.422505,-1.008462 v -2.067636 c 0,-0.597942 -0.488232,-1.084476 -1.089439,-1.084476 h -3.073271 l -1.074071,-6.28e-4 -1.311971,8.61e-4 h -3.073374 c -0.6007,-2.74e-4 -1.08953,0.486172 -1.08953,1.08405 v 2.067797 l -1.42177,1.009112 1.22529,0.70656 z"
         id="path4-09"
         style="fill:#282929;fill-opacity:1;stroke-width:0.518853"
         sodipodi:nodetypes="cssssccccssccccscccc" />
      <path
         d="m -55.7414,42.119817 c -0.206711,-0.12482 -0.7013,-0.232758 -1.106188,-0.232758 -1.312824,0 -2.094886,0.975255 -2.094886,2.058572 0,0.742504 0.42233,1.190753 1.024823,1.190753 0.458547,0 0.844711,-0.232758 1.106093,-0.653868 h 0.02645 c 0.07282,0.439042 0.36091,0.653868 0.810464,0.653868 1.024804,0 1.753152,-0.841731 1.753152,-2.13067 0,-1.512727 -1.16884,-2.596001 -2.760606,-2.596001 -2.03151,0 -3.39864,1.584605 -3.39864,3.401517 0,1.763407 1.348312,2.828697 2.841351,2.828697 0.656171,0 1.105538,-0.07198 1.663438,-0.304661 0,0 0.369984,-0.128449 0.253045,-0.408435 -0.116922,-0.2801 -0.414395,-0.163782 -0.414395,-0.163782 -0.360322,0.170333 -0.854542,0.259659 -1.285754,0.259659 -1.34,0 -2.293175,-0.806024 -2.293175,-2.309336 0,-1.665003 1.195426,-2.694837 2.53526,-2.694837 1.384609,0 2.12207,0.88654 2.12207,1.996727 0,1.0293 -0.467506,1.467732 -0.818225,1.449761 -0.233777,-0.006 -0.279425,-0.223733 -0.207816,-0.671126 z m -1.169403,1.36991 c -0.0718,0.500891 -0.360444,0.814674 -0.620163,0.814674 -0.24276,0 -0.367981,-0.179393 -0.367981,-0.492498 0,-0.608906 0.386839,-1.119279 0.889898,-1.119279 0.0723,0 0.143941,0.006 0.206591,0.02743 z"
         id="path6"
         style="fill:#282929;fill-opacity:1;stroke-width:0.601144" />
    </g>
  </g>
</svg>
