<svg width="32" height="32" version="1.1" viewBox="0 0 32 32" xmlns="http://www.w3.org/2000/svg" xmlns:xlink="http://www.w3.org/1999/xlink">
<defs>
<style id="current-color-scheme" type="text/css">.ColorScheme-Highlight {
        color:#3daee9;
      }</style>
<linearGradient id="linearGradient6218" x1="408.33" x2="437.79" y1="555.74" y2="492.4" gradientTransform="matrix(1.0006 0 0 .85094 -.23613 72.315)" gradientUnits="userSpaceOnUse">
<stop style="stop-color:#353a3f;stop-opacity:.99608" offset="0"/>
<stop style="stop-color:#272727;stop-opacity:.98876" offset="1"/>
</linearGradient>
<linearGradient id="linearGradient850" x1="392.59" x2="420.29" y1="501.23" y2="503.48" gradientUnits="userSpaceOnUse">
<stop style="stop-color:#444647" offset="0"/>
<stop style="stop-color:#696969;stop-opacity:.42697" offset="1"/>
</linearGradient>
<radialGradient id="radialGradient6178-3" cx="397.99" cy="485.79" r="11.249" gradientTransform="matrix(-.00010706 .04847 -1.0235 -.0023723 538.49 -12.448)" gradientUnits="userSpaceOnUse">
<stop style="stop-color:#d8dbd8" offset="0"/>
<stop style="stop-color:#272727;stop-opacity:.98876" offset="1"/>
</radialGradient>
<linearGradient id="linearGradient2676" x1="406.46" x2="414.47" y1="539.62" y2="506.87" gradientUnits="userSpaceOnUse">
<stop style="stop-color:#1a1b1b" offset="0"/>
<stop style="stop-color:#474747" offset="1"/>
</linearGradient>
<linearGradient id="linearGradient2684" x1="395.58" x2="404.77" y1="530.01" y2="505.63" gradientUnits="userSpaceOnUse">
<stop offset="0"/>
<stop style="stop-color:#c3c3c3;stop-opacity:0" offset="1"/>
</linearGradient>
<linearGradient id="linearGradient25029" x1="12.021" x2="12.012" y1="7.2813" y2="-.72563" gradientUnits="userSpaceOnUse">
<stop style="stop-color:#4f5152" offset="0"/>
<stop style="stop-color:#010501" offset="1"/>
</linearGradient>
<linearGradient id="linearGradient25155" x1="21.812" x2="4.0043" y1="3.9336" y2="4" gradientUnits="userSpaceOnUse">
<stop style="stop-color:#1b1b1b" offset="0"/>
<stop style="stop-color:#090909;stop-opacity:.24541" offset=".49971"/>
<stop style="stop-color:#010101;stop-opacity:.23889" offset=".813"/>
<stop style="stop-opacity:.87011" offset="1"/>
</linearGradient>
</defs>
<path transform="matrix(.48869 0 0 .49779 -187.85 -240.96)" d="m386.9 524.24v-36.16s0.048-1.7187 1.589-1.7187c0 0 20.043-0.0286 20.354 0l5.0939 3.7249 25.709 3e-3c6.1389 0 6.1389 6.0266 6.1389 6.0266v28.124" style="fill:none;stroke-width:.7;stroke:#000"/>
<path transform="matrix(.48976 0 0 .49791 -187.87 -240.89)" d="m387.68 485.81c-1.5856 0-1.5856 2.0084-1.5856 2.0084v40.168h58.756s1e-5 -19.324 0-32.134c0-6.0252-6.373-6.5882-6.373-6.5882l-25.913-0.15436-3.6307-2.6818c-0.53156-0.39081-0.96613-0.61766-1.681-0.61766z" style="fill:url(#linearGradient6218);stroke-linecap:round;stroke-linejoin:bevel;stroke-width:.50828;stroke:#000a00"/>
<path transform="matrix(.49143 0 0 .31854 -188.93 -153.06)" d="m387.05 540.32 0.076-50.366 20.402 0.0901 1.3397-3.2606 3.3565 3.7108h27.167c5.4168 0 5.4168 8.3559 5.4168 8.3559v28.254" style="fill:none;stroke-width:1px;stroke:url(#linearGradient850)"/>
<path transform="matrix(.5 0 0 .5 -.0021617 5.801e-7)" d="m28.004 5.2857v0.73421s17.353-0.056939 26-9e-7l1.5964 0.14159s-0.99131-0.71696-1.8388-0.7221z" style="fill:url(#radialGradient6178-3);stroke-width:.6659"/>
<path transform="matrix(.49017 0 0 .54047 -188.09 -264.07)" d="m385.76 501.54v37.005s0 5.5507 6.1203 5.5507c0 0 40.125 1e-3 48.963 0 6.1203-6.5e-4 6.1203-5.5507 6.1203-5.5507 4.6e-4 -8.0121 0-29.604 0-29.604s0-1.8502-2.0401-1.8502c0 0-20 0-27.389-3.7005-3.8944-1.9502-6.2195-3.2282-8.2026-3.2282h-21.573c-2.0401 0-1.9979 1.3779-1.9979 1.3779z" style="fill:none;stroke-linejoin:round;stroke-width:1.2969;stroke:#000"/>
<path transform="matrix(.49017 0 0 .49893 -187.96 -241.91)" d="m385.21 538.76s0.26767 6.2213 6.4045 6.2213c9.658 1e-3 40.126 0 48.963 0 6.1203 0 6.1203-6.0129 6.1203-6.0129v-32.069c0-2.0043-2.0401-2.0043-2.0401-2.0043s-21.191 0.0116-28.562-4.0086c-5.6203-3.0656-6.1203-4.0086-8.1604-4.0086h-20.401c-2.0401 0-2.0401 2.0043-2.0401 2.0043z" style="fill:url(#linearGradient2676);stroke-linejoin:round;stroke-width:1.2969;stroke:url(#linearGradient2684)"/>
<g transform="matrix(.49939 0 0 .5 -.12109 -1.2373)">
<path transform="translate(37.857 .21597)" d="m-9.0152 39.454c-0.5339-1.2653-1.3219-2.4041-2.2877-3.391-0.99137-0.98696-2.1352-1.7462-3.4062-2.2775-1.322-0.55693-2.72-0.86057-4.169-0.86057-1.449 0-2.847 0.30363-4.1688 0.86039-1.271 0.53152-2.4148 1.316-3.4062 2.2775-0.99137 0.98696-1.754 2.1257-2.2877 3.391-0.55941 1.3162-0.86441 2.7079-0.86441 4.1505 0 1.4426 0.30498 2.8343 0.86422 4.1503 0.53389 1.2653 1.3219 2.4041 2.2877 3.391 0.99136 0.98695 2.1352 1.7462 3.4062 2.2775 1.3219 0.55674 2.72 0.83511 4.1688 0.83511 1.449 0 2.8469-0.27838 4.1688-0.83511 1.271-0.53153 2.4148-1.316 3.4062-2.2775 0.99136-0.98696 1.754-2.1257 2.2877-3.391 0.55923-1.316 0.83884-2.7079 0.83884-4.1503 3.66e-4 -1.4426-0.27928-2.8343-0.83854-4.1503z" style="fill:#646464;stroke-width:.045292"/>
<path d="m15.839 50.671c0.29319-0.01387 0.55988-0.17372 0.70594-0.42608 0.11464-0.19629 0.14606-0.42863 0.08749-0.64752-0.06006-0.21894-0.20367-0.40525-0.40184-0.51928-0.19818-0.11356-0.43374-0.14377-0.65472-0.0856-0.22012 0.05915-0.40911 0.20166-0.5233 0.39801-0.11465 0.19622-0.1452 0.42869-0.08651 0.64756 0.05921 0.21885 0.20363 0.40531 0.40182 0.51824 0.14246 0.0818 0.3068 0.12188 0.47122 0.11454zm5.5469-1.3342c0.14429 0 0.28308-0.05797 0.38538-0.15827 0.1027-0.10163 0.1589-0.23789 0.1589-0.38077 0-0.2976-0.24386-0.53819-0.54428-0.53819-0.29955 0-0.54249 0.2415-0.54249 0.53819 0 0.29662 0.24294 0.53816 0.54249 0.53904zm-1.3689-0.1375c0.12612 0 0.24752-0.04895 0.33606-0.13739 0.09-0.0895 0.13974-0.20813 0.13883-0.33286 0-0.25968-0.21276-0.4695-0.47486-0.4695-0.2612 0-0.47304 0.21078-0.47392 0.4695 0 0.25951 0.21184 0.47027 0.47392 0.47027zm2.9597-0.05309c0.16991 0 0.33338-0.06609 0.45296-0.18541 0.12012-0.11899 0.18808-0.28131 0.18808-0.44952 0-0.16832-0.06683-0.32927-0.18808-0.4487-0.11916-0.11826-0.28305-0.18539-0.45296-0.18539-0.16988 0-0.33239 0.06608-0.45299 0.18539-0.12 0.11898-0.18721 0.28038-0.18721 0.4487 0 0.16821 0.06583 0.3301 0.18721 0.44952 0.12012 0.11796 0.2831 0.18541 0.45299 0.18541zm-4.0866-0.32932c0.22825 0 0.41273-0.18272 0.41273-0.40788 6.44e-4 -0.10813-0.04417-0.2126-0.12013-0.28943-0.07675-0.07636-0.18261-0.11998-0.29212-0.11887-0.22746 0-0.4119 0.18271-0.4119 0.40884 6.43e-4 0.22516 0.18444 0.407 0.4119 0.40786zm-3.2886-0.44322c0.25025-0.01387 0.47856-0.14917 0.60363-0.36451 0.20363-0.34999 0.08136-0.79594-0.27029-0.99765-0.3525-0.2017-0.80273-0.08181-1.0073 0.26687-0.09767 0.16824-0.12405 0.36723-0.07429 0.55446 0.05026 0.18725 0.17447 0.34735 0.34338 0.4441 0.12291 0.07015 0.26298 0.10377 0.40456 0.09668zm2.431-0.07666c0.09417 0 0.18628-0.03621 0.25385-0.10346 0.06608-0.06527 0.10492-0.15646 0.10492-0.25051 0-0.09317-0.03668-0.18456-0.10492-0.25051-0.06696-0.06621-0.15798-0.10399-0.25385-0.10399-0.09363 0-0.18536 0.03748-0.25202 0.10399-0.06683 0.06608-0.10465 0.15647-0.10465 0.25051 0 0.1954 0.15982 0.35366 0.35611 0.35366zm-4.3058-0.1855c0.25027-0.01388 0.47768-0.14924 0.60365-0.3645 0.20269-0.34916 0.08111-0.79511-0.27038-0.99763-0.16898-0.09666-0.37067-0.12284-0.5598-0.07382-0.18892 0.04964-0.34967 0.17272-0.44739 0.341-0.20365 0.34907-0.08109 0.79504 0.27023 0.99673 0.1221 0.07162 0.26211 0.10364 0.4037 0.09808zm7.4117-0.33554c0.29949 0 0.54332-0.24152 0.54242-0.53911 0-0.29668-0.24293-0.53723-0.54242-0.53723-0.30047 0-0.54425 0.24055-0.54425 0.53723 0 0.14384 0.05767 0.2804 0.15889 0.38172 0.10268 0.10165 0.24101 0.1574 0.38536 0.1574zm-3.7415-0.09548c0.08005 6.41e-4 0.15708-0.03144 0.21373-0.08726 0.05743-0.05681 0.08958-0.1317 0.08958-0.21163 0-0.07904-0.03232-0.15554-0.08958-0.21159-0.05767-0.0568-0.13311-0.08864-0.21373-0.08864-0.07883 0-0.15706 0.03207-0.21364 0.08864-0.05742 0.0568-0.08829 0.13184-0.08829 0.21159 0 0.07919 0.03199 0.15559 0.08829 0.21163 0.05753 0.0568 0.13408 0.08864 0.21364 0.08726zm2.3725-0.03972c0.26118-6.4e-4 0.474-0.21074 0.474-0.47041-6.45e-4 -0.25954-0.21283-0.46945-0.474-0.46945-0.26207 0-0.4748 0.20991-0.4748 0.46945-6.44e-4 0.12492 0.04869 0.24425 0.13868 0.33292 0.08958 0.08854 0.21007 0.1375 0.33605 0.1375zm2.9579-0.05311c0.16988 0 0.33332-0.06608 0.45389-0.18635 0.11943-0.11797 0.18726-0.2804 0.18726-0.44862 0-0.16821-0.06682-0.32924-0.18726-0.44862-0.12013-0.11909-0.28401-0.18635-0.45389-0.18635-0.16982 0-0.33239 0.06621-0.45289 0.18635-0.11915 0.11882-0.18727 0.28041-0.18727 0.44862 0 0.16822 0.06655 0.33011 0.18727 0.44862 0.11999 0.11897 0.28307 0.18635 0.45289 0.18635zm-4.0848-0.32934c0.22738-6.16e-4 0.41095-0.18353 0.41188-0.40876 0-0.22527-0.1845-0.40795-0.41188-0.40884-0.1091 0-0.21458 0.0443-0.29226 0.11993-0.07726 0.07617-0.12125 0.1809-0.12125 0.28858 6.44e-4 0.22606 0.18541 0.40875 0.41372 0.40875zm5.8273-0.30119c0.40731 0 0.73788-0.32748 0.73788-0.73082 0-0.40341-0.33056-0.72996-0.73788-0.72996-0.40732 0-0.73696 0.32654-0.73696 0.72996 0 0.40334 0.32964 0.73082 0.73696 0.73082zm-6.6848-0.21892c0.19728 0 0.35712-0.15834 0.35712-0.35369 0-0.19537-0.15983-0.3536-0.35712-0.3536-0.19717 0-0.35706 0.15823-0.35706 0.3536 0 0.19535 0.15989 0.35369 0.35706 0.35369zm-1.9515-0.31565c0.21735-0.01388 0.4155-0.12977 0.52417-0.31566 0.08563-0.14653 0.1083-0.31933 0.06351-0.48213-0.04454-0.16286-0.15158-0.30126-0.29862-0.38532-0.30688-0.17544-0.69771-0.07166-0.87489 0.23243-0.17616 0.30302-0.07327 0.69101 0.23375 0.86655 0.10626 0.06156 0.22831 0.09013 0.35158 0.08472zm-1.8748-0.26142c0.21725-0.01388 0.41457-0.12977 0.52409-0.3166 0.08564-0.14564 0.10733-0.31924 0.0637-0.48116-0.04471-0.16284-0.15065-0.30207-0.29861-0.38624-0.14702-0.08476-0.32235-0.10623-0.48585-0.06253-0.16441 0.04432-0.30511 0.15017-0.38998 0.29576-0.17626 0.30387-0.07249 0.69196 0.23558 0.86656 0.10552 0.06206 0.22837 0.09029 0.35071 0.08557zm6.47-0.12175c0.30051 0 0.54424-0.2406 0.54424-0.53824 0-0.14286-0.05743-0.27948-0.15886-0.38077-0.1027-0.10165-0.24106-0.15826-0.38538-0.15826-0.14424 0-0.28219 0.05793-0.38446 0.15826-0.10269 0.10165-0.15982 0.23791-0.1589 0.38077 0 0.29764 0.24387 0.53824 0.54336 0.53824zm-1.3689-0.13556c0.12614 0 0.24752-0.04936 0.33604-0.13836 0.09041-0.08865 0.13882-0.20809 0.13882-0.33203 0-0.12478-0.04906-0.24512-0.13882-0.33284-0.08958-0.08946-0.21-0.13834-0.33604-0.13834-0.26205 6.42e-4 -0.47396 0.21166-0.47396 0.47122 0 0.25876 0.21192 0.46943 0.47396 0.47041zm2.9597-0.05671c0.16989 0 0.33339-0.0661 0.45303-0.18541 0.11999-0.11895 0.18809-0.2804 0.18809-0.44863 0-0.16823-0.06676-0.33017-0.18809-0.44868-0.11916-0.11896-0.28314-0.18631-0.45303-0.18631-0.16985 0-0.33236 0.06624-0.4529 0.18631-0.11916 0.11826-0.18726 0.28044-0.18726 0.44868 0 0.16824 0.06676 0.32922 0.18726 0.44863 0.11999 0.11827 0.28304 0.18541 0.4529 0.18541zm-9.5512-0.25323c0.21815-0.01389 0.41631-0.12964 0.52503-0.31662 0.08572-0.1456 0.10809-0.31932 0.0637-0.48206-0.04468-0.16288-0.15165-0.30128-0.29861-0.38538-0.30694-0.17454-0.69776-0.07147-0.87499 0.23246-0.17611 0.30394-0.07316 0.69104 0.23385 0.86652 0.10614 0.06166 0.22818 0.09032 0.35066 0.08573zm5.4646-0.07593c0.10926 0 0.21466-0.04341 0.29224-0.11883 0.07727-0.07642 0.12125-0.18095 0.12125-0.28944-6.42e-4 -0.22524-0.18534-0.40791-0.41374-0.40791-0.22738 0-0.41088 0.18267-0.41184 0.40791 0 0.2261 0.18446 0.4088 0.41184 0.4088zm5.8291-0.30114c0.40727 0 0.73696-0.32652 0.73696-0.72996 0-0.40339-0.32969-0.73084-0.73696-0.73084-0.40726 0-0.73694 0.32745-0.73694 0.73084 0 0.40345 0.32968 0.72996 0.73694 0.72996zm-7.3897-0.39885c0.18442-0.01385 0.35248-0.10913 0.4456-0.26863 0.14978-0.2578 0.06099-0.58699-0.19995-0.73534-0.25942-0.14834-0.59176-0.06043-0.74246 0.19714-0.14977 0.25779-0.06179 0.58704 0.19819 0.73533 0.09059 0.05114 0.19448 0.07671 0.29863 0.07213zm-1.8748-0.26133c0.18535-0.01388 0.35245-0.11037 0.44466-0.26965 0.14982-0.25684 0.06232-0.5861-0.19814-0.73534-0.12506-0.07243-0.27399-0.09029-0.41271-0.05253-0.13982 0.03625-0.25854 0.12769-0.33062 0.25141-0.1498 0.25694-0.06231 0.58619 0.19902 0.73536 0.09071 0.05112 0.19359 0.07594 0.29778 0.07213zm5.8628-0.42795c0.06908-6.21e-4 0.137-0.02076 0.19725-0.05499 0.19727-0.11342 0.26395-0.36272 0.15068-0.55807-0.1147-0.1954-0.36712-0.26139-0.56345-0.14921-0.19728 0.11342-0.2649 0.36354-0.1507 0.55807 0.07577 0.12977 0.2155 0.20802 0.36622 0.20439zm5.188-0.07532c0.22829 0 0.44747-0.09029 0.60907-0.25054 0.16166-0.16016 0.25209-0.37723 0.25209-0.60337 0-0.47122-0.38539-0.85381-0.86116-0.85381-0.22922 0-0.44842 0.08989-0.61003 0.24964-0.16158 0.16009-0.25302 0.37713-0.25302 0.60417 0 0.22614 0.09069 0.4432 0.25302 0.60423 0.16162 0.16004 0.38082 0.24965 0.61003 0.24965zm-12.54-0.06331c0.18452-0.01388 0.35245-0.11024 0.44568-0.26954 0.14968-0.25685 0.06099-0.58616-0.20001-0.73538-0.2603-0.14833-0.59183-0.06045-0.74249 0.19807-0.14981 0.25695-0.06192 0.58612 0.19822 0.73539 0.09017 0.05111 0.19456 0.0763 0.2986 0.07202zm4.1058-0.37902c0.16073-0.01389 0.30784-0.09542 0.3881-0.23517 0.06326-0.10719 0.07996-0.23603 0.04839-0.35636-0.03227-0.1209-0.11246-0.22338-0.22098-0.28579-0.1091-0.06208-0.23928-0.07907-0.36074-0.04827-0.12126 0.03209-0.22559 0.11134-0.2886 0.21894-0.06283 0.1083-0.07978 0.23701-0.04814 0.35729 0.03383 0.11993 0.11262 0.22341 0.22192 0.28585 0.07771 0.04585 0.16901 0.06622 0.26022 0.06208zm4.4327-0.04586c0.06099-0.0023 0.11944-0.01873 0.17081-0.04839 0.08164-0.04762 0.1425-0.12381 0.16713-0.21433 0.02331-0.09071 0.01398-0.18726-0.03576-0.26864-0.04861-0.08058-0.12502-0.1402-0.21732-0.16464-0.09125-0.02363-0.18904-0.01389-0.27128 0.03489-0.16981 0.09915-0.22829 0.31384-0.1299 0.48302 0.06396 0.11246 0.18629 0.18 0.3169 0.17731zm-6.3085-0.21796c0.16166-0.01388 0.30774-0.09431 0.38815-0.23341 0.06351-0.10718 0.07987-0.23604 0.04878-0.35728-0.03251-0.11992-0.11248-0.22343-0.22101-0.2858-0.10827-0.06207-0.23836-0.07797-0.36065-0.04776-0.12115 0.03364-0.22466 0.11134-0.28774 0.21981-0.13088 0.22434-0.05204 0.51197 0.1736 0.6413 0.07764 0.04575 0.16891 0.06635 0.25932 0.06207zm7.376-0.0084c0.04986-0.0023 0.10018-0.01663 0.14342-0.03993 0.14425-0.08171 0.19364-0.2651 0.11023-0.40796-0.03926-0.06828-0.10562-0.11896-0.18353-0.13932-0.07676-0.02087-0.15978-0.01389-0.22925 0.03089-0.0691 0.03878-0.11916 0.10442-0.14063 0.18181-0.02105 0.07642-0.01399 0.15829 0.03193 0.22706 0.05377 0.09334 0.15794 0.1519 0.26849 0.14921zm-2.535-0.28052c0.07979-0.0023 0.15798-0.02167 0.2274-0.06208 0.10813-0.06254 0.18806-0.16546 0.22094-0.28578 0.03391-0.11994 0.01652-0.2488-0.04813-0.35735-0.0629-0.10746-0.16715-0.1863-0.28859-0.21789-0.12111-0.03363-0.25116-0.01659-0.35981 0.04776-0.22738 0.13046-0.30503 0.41696-0.17441 0.64215 0.0875 0.14824 0.24839 0.23877 0.42183 0.23418zm-6.3295-0.28209c0.16069-0.01389 0.30685-0.09431 0.3881-0.23342 0.0627-0.10802 0.07971-0.23694 0.04801-0.35731-0.03397-0.11993-0.11248-0.22332-0.22089-0.28576-0.10922-0.06207-0.23938-0.07796-0.36084-0.04777-0.12114 0.03348-0.22548 0.11134-0.28849 0.21976-0.13089 0.22435-0.05204 0.51195 0.17356 0.6413 0.07886 0.04572 0.16981 0.06608 0.26106 0.06209zm4.2062-0.03625c0.14069-0.01112 0.26761-0.08476 0.33797-0.20446 0.05304-0.09335 0.06909-0.20532 0.04026-0.31023-0.03053-0.10442-0.09907-0.19357-0.19268-0.24778-0.09418-0.05302-0.2073-0.06826-0.31324-0.03974-0.1052 0.02823-0.19543 0.09667-0.25018 0.19088-0.0537 0.09334-0.06902 0.20533-0.04026 0.31023 0.02861 0.10401 0.09768 0.19359 0.19266 0.2478 0.06746 0.03813 0.14605 0.05865 0.2255 0.05316zm3.5707-0.09085c0.06902-0.0023 0.137-0.02076 0.19722-0.05314 0.19726-0.11355 0.26487-0.3636 0.15068-0.55812-0.1147-0.19536-0.36613-0.26228-0.56343-0.14918-0.19728 0.11342-0.26483 0.36267-0.15068 0.55802 0.07659 0.12865 0.21551 0.20623 0.36621 0.20353zm1.2611-0.07976c0.06099-0.0023 0.11845-0.01874 0.16987-0.04839 0.08119-0.04758 0.14246-0.12381 0.16713-0.21434 0.02418-0.09071 0.01398-0.18726-0.03503-0.26864-0.04839-0.08059-0.12613-0.14109-0.2174-0.16462-0.09069-0.02352-0.18903-0.01388-0.27118 0.03488-0.08135 0.04763-0.14161 0.12478-0.16624 0.21516-0.02389 0.09016-0.01399 0.18728 0.03576 0.26865 0.06397 0.11148 0.18638 0.17913 0.3169 0.17646zm-6.7075-0.08977c0.14062-0.01384 0.26756-0.08475 0.33784-0.20526 0.11464-0.19533 0.04749-0.44499-0.15073-0.55816-0.09414-0.05239-0.20727-0.06829-0.3132-0.03878-0.10476 0.0282-0.1954 0.0968-0.25018 0.18989-0.11466 0.19539-0.04749 0.44504 0.1507 0.55812 0.0674 0.03879 0.14699 0.05945 0.22558 0.05496zm3.377-0.55885c0.09098-0.0023 0.17992-0.02674 0.2594-0.07299 0.25933-0.14836 0.3479-0.47758 0.19819-0.73531-0.14979-0.2569-0.48223-0.34554-0.74249-0.19721-0.12502 0.07214-0.21643 0.18902-0.25388 0.32743-0.03674 0.13835-0.01908 0.28489 0.0537 0.4089 0.10018 0.1709 0.28485 0.27395 0.48392 0.26858zm-2.5442 0c0.1221-0.0097 0.23199-0.07242 0.29315-0.17552 0.04839-0.08072 0.06099-0.17824 0.03574-0.26867-0.0237-0.09085-0.08563-0.16818-0.16714-0.21522-0.17078-0.09667-0.38811-0.03831-0.48684 0.1306-0.04788 0.0798-0.06099 0.17729-0.03529 0.26771 0.02397 0.09113 0.08564 0.16823 0.1662 0.21525 0.05999 0.03454 0.12798 0.04901 0.19545 0.04706zm-2.3223-0.01389c0.14063-0.01112 0.2685-0.08336 0.33879-0.20447 0.05298-0.09265 0.06723-0.20533 0.03907-0.30931-0.02848-0.10456-0.09767-0.19442-0.19172-0.24877-0.09435-0.05239-0.20821-0.06828-0.31322-0.03975-0.10552 0.02995-0.1963 0.09805-0.25025 0.19088-0.05355 0.09319-0.06923 0.2053-0.04026 0.31026 0.02854 0.10414 0.09768 0.19441 0.19178 0.24784 0.06746 0.03831 0.14614 0.0588 0.22553 0.05314zm8.177-0.25611c0.0674-0.0023 0.13604-0.02076 0.1964-0.05515 0.09432-0.05267 0.16342-0.14289 0.19268-0.24782 0.02861-0.10401 0.01399-0.21622-0.04026-0.31026-0.11468-0.19452-0.36618-0.26142-0.56345-0.14923-0.09418 0.05304-0.16439 0.14379-0.19273 0.24873-0.02861 0.10372-0.01398 0.21615 0.04026 0.31022 0.07586 0.12866 0.2164 0.20723 0.3671 0.2035zm-1.5205-0.07284c0.07886-0.0023 0.15707-0.0215 0.22556-0.06207 0.10911-0.06207 0.18908-0.16459 0.22192-0.28487 0.03231-0.1209 0.01653-0.24972-0.04795-0.35729-0.06283-0.10816-0.16722-0.18723-0.28866-0.21981-0.12208-0.03209-0.25198-0.01663-0.36062 0.04777-0.1091 0.06242-0.18914 0.16557-0.22194 0.28584-0.03257 0.11993-0.01524 0.24872 0.04833 0.35727 0.08818 0.14925 0.25021 0.23885 0.42374 0.23428zm-5.8227-0.22881c0.12115-0.01111 0.23106-0.07298 0.29224-0.17637 0.04884-0.08059 0.06099-0.17818 0.03577-0.26866-0.02389-0.09072-0.08424-0.1683-0.16622-0.21532-0.08136-0.04763-0.17988-0.06045-0.27127-0.03487-0.09091 0.02402-0.16976 0.08475-0.21726 0.16558-0.04862 0.08072-0.06099 0.17726-0.03535 0.26862 0.02389 0.09015 0.08406 0.16735 0.1662 0.21436 0.05999 0.03475 0.12811 0.04933 0.19643 0.04797zm0.80643-0.3202c0.10254-0.0084 0.19541-0.06147 0.24752-0.14838 0.08259-0.14289 0.03378-0.32554-0.1114-0.40793-0.06902-0.03976-0.15159-0.05082-0.22925-0.03113-0.07708 0.02119-0.14333 0.07161-0.18356 0.13936-0.03907 0.06827-0.05026 0.15007-0.03093 0.22691 0.02092 0.07671 0.07236 0.14206 0.14061 0.18185 0.05026 0.03008 0.10808 0.04342 0.16626 0.03812zm2.1817-0.23702c0.10618-0.0038 0.21179-0.03349 0.30496-0.08642 0.3059-0.17546 0.4118-0.56263 0.23467-0.86651-0.08564-0.14565-0.22462-0.25235-0.38897-0.29578-0.16439-0.04521-0.33882-0.02099-0.48674 0.06266-0.14712 0.08475-0.25392 0.22249-0.29777 0.38531-0.04463 0.16284-0.0205 0.33652 0.06327 0.48207 0.11762 0.2008 0.33515 0.32209 0.56987 0.31755zm4.0738-0.20797c0.08025-0.0023 0.15802-0.02168 0.22736-0.0621 0.10827-0.06208 0.18908-0.1647 0.22109-0.28594 0.034-0.11993 0.01629-0.24867-0.04865-0.35631-0.06258-0.10802-0.16623-0.18727-0.2886-0.21982-0.1211-0.03374-0.25112-0.01659-0.35981 0.04796-0.10911 0.06208-0.18905 0.16543-0.2219 0.28584-0.03391 0.11993-0.01668 0.24872 0.04833 0.35727 0.08735 0.14833 0.24842 0.23865 0.42189 0.23427zm-1.8629-0.14564c0.09098-0.0023 0.18074-0.02671 0.25933-0.07226 0.12502-0.07299 0.21645-0.18992 0.25298-0.32737 0.03668-0.13835 0.01908-0.28587-0.05367-0.40978-0.14973-0.25684-0.48212-0.34456-0.74242-0.19628-0.25938 0.14929-0.34886 0.47851-0.19914 0.73535 0.10018 0.17109 0.28503 0.27411 0.48406 0.2696zm-3.7141-0.68199c0.12304-0.0048 0.24387-0.03639 0.35076-0.09791 0.16978-0.09681 0.2931-0.25692 0.34421-0.44412 0.05026-0.18725 0.02389-0.38626-0.07437-0.55441-0.09767-0.1683-0.25842-0.29042-0.44746-0.34015-0.18907-0.04965-0.39081-0.02352-0.55974 0.07365-0.35254 0.20178-0.47308 0.64764-0.26942 0.99678 0.13408 0.23152 0.38623 0.37176 0.65566 0.36631zm4.9552-0.31115c0.09069-0.0038 0.17992-0.02671 0.25935-0.07353 0.25935-0.1484 0.34794-0.47762 0.19819-0.73536-0.14981-0.25699-0.4822-0.34563-0.74244-0.1973-0.26032 0.14836-0.34886 0.47754-0.19911 0.73541 0.09906 0.17094 0.28487 0.27496 0.48401 0.27044zm-2.2858-0.13115c0.10729-0.0038 0.21284-0.03211 0.30594-0.08601 0.30596-0.17454 0.41095-0.56261 0.23472-0.86655-0.08564-0.1456-0.22559-0.25236-0.38903-0.29572-0.16438-0.0443-0.33977-0.02076-0.48676 0.06252-0.14698 0.08476-0.25478 0.22339-0.29863 0.38623-0.04467 0.16197-0.02049 0.33558 0.06396 0.48116 0.11748 0.20083 0.33508 0.32208 0.56891 0.31661zm-4.6839-0.32382c0.14337-0.0048 0.28494-0.0443 0.40915-0.11535 0.41186-0.23522 0.55342-0.75705 0.31594-1.165-0.23837-0.4079-0.76521-0.5482-1.1771-0.31202-0.41188 0.23513-0.55245 0.75699-0.31495 1.165 0.15695 0.27044 0.45103 0.43419 0.767 0.42696zm5.9249-0.67027c0.10632-0.0038 0.2119-0.03224 0.30503-0.08559 0.30694-0.17458 0.4119-0.56269 0.23471-0.86657-0.08564-0.14563-0.22467-0.25235-0.38905-0.29579-0.16433-0.0442-0.33876-0.02036-0.4867 0.06266-0.14705 0.08475-0.25386 0.2225-0.29775 0.38534-0.04509 0.16282-0.02079 0.3365 0.0635 0.48214 0.11791 0.20079 0.33605 0.32196 0.5698 0.31652zm-2.7442-0.04169c0.12292-0.0038 0.24477-0.03638 0.35065-0.09791 0.35349-0.20166 0.47394-0.6476 0.27128-0.99772-0.09767-0.16722-0.25939-0.29023-0.44841-0.34093-0.18906-0.04888-0.38996-0.02305-0.55977 0.07352-0.16982 0.09681-0.29317 0.25685-0.34337 0.44413-0.05026 0.18727-0.02331 0.3862 0.07419 0.55447 0.13507 0.23068 0.38629 0.37087 0.65569 0.3645z" style="color:#eff0f1;fill:#262727;isolation:isolate;stroke-width:.90896"/>
</g>
<path class="ColorScheme-Highlight" transform="matrix(.5 0 0 .5 -.0021617 5.801e-7)" d="m2.4512 4 2.2e-6 2h19.553v-3.7118l-17.553-2.4e-6c-2 2.4e-6 -2 1.7118-2 1.7118z" style="fill:currentColor;mix-blend-mode:normal"/>
<path transform="matrix(.5 0 0 .5 -.0021617 5.801e-7)" d="m4.4512 2.2432c-2 0-2 1.2466-2 1.7561v2.0205h19.553s2.0889-2.7012 2-3.2256c-0.27723-0.50911-1.4378-0.55108-2-0.55108z" style="color:#3daee9;fill:url(#linearGradient25155);stroke-width:.69;stroke:url(#linearGradient25029)"/>
<path transform="matrix(.5 0 0 .5 -.0021617 5.801e-7)" d="m4.4512 2.7797c-2 0-2 1.2466-2 1.7561v1.4841h19.719s1.1866-1.7212 1.8344-2.7354c-0.33138-0.41002-1.4378-0.50478-2-0.50478z" style="color:#3daee9;fill:none;stroke-width:.69;stroke:url(#linearGradient25029)"/>
</svg>
