<svg width="32" height="32" version="1.1" viewBox="0 0 32 32" xmlns="http://www.w3.org/2000/svg">
<defs>
<style id="current-color-scheme" type="text/css">.ColorScheme-Highlight {
        color:#3daee9;
      }</style>
<linearGradient id="linearGradient6218" x1="408.33" x2="437.79" y1="555.74" y2="492.4" gradientTransform="matrix(1.0006 0 0 .85094 -.23613 72.315)" gradientUnits="userSpaceOnUse">
<stop style="stop-color:#353a3f;stop-opacity:.99608" offset="0"/>
<stop style="stop-color:#272727;stop-opacity:.98876" offset="1"/>
</linearGradient>
<linearGradient id="linearGradient850" x1="392.59" x2="420.29" y1="501.23" y2="503.48" gradientUnits="userSpaceOnUse">
<stop style="stop-color:#444647" offset="0"/>
<stop style="stop-color:#696969;stop-opacity:.42697" offset="1"/>
</linearGradient>
<radialGradient id="radialGradient6178-3" cx="397.99" cy="485.79" r="11.249" gradientTransform="matrix(-.00010706 .04847 -1.0235 -.0023723 538.49 -12.448)" gradientUnits="userSpaceOnUse">
<stop style="stop-color:#d8dbd8" offset="0"/>
<stop style="stop-color:#272727;stop-opacity:.98876" offset="1"/>
</radialGradient>
<linearGradient id="linearGradient2676" x1="406.46" x2="414.47" y1="539.62" y2="506.87" gradientUnits="userSpaceOnUse">
<stop style="stop-color:#1a1b1b" offset="0"/>
<stop style="stop-color:#474747" offset="1"/>
</linearGradient>
<linearGradient id="linearGradient2684" x1="395.58" x2="404.77" y1="530.01" y2="505.63" gradientUnits="userSpaceOnUse">
<stop offset="0"/>
<stop style="stop-color:#c3c3c3;stop-opacity:0" offset="1"/>
</linearGradient>
<linearGradient id="linearGradient25029" x1="12.021" x2="12.012" y1="7.2813" y2="-.72563" gradientUnits="userSpaceOnUse">
<stop style="stop-color:#4f5152" offset="0"/>
<stop style="stop-color:#010501" offset="1"/>
</linearGradient>
<linearGradient id="linearGradient25155" x1="21.812" x2="4.0043" y1="3.9336" y2="4" gradientUnits="userSpaceOnUse">
<stop style="stop-color:#1b1b1b" offset="0"/>
<stop style="stop-color:#090909;stop-opacity:.24541" offset=".49971"/>
<stop style="stop-color:#010101;stop-opacity:.23889" offset=".813"/>
<stop style="stop-opacity:.87011" offset="1"/>
</linearGradient>
</defs>
<path transform="matrix(.48869 0 0 .49779 -187.85 -240.96)" d="m386.9 524.24v-36.16s0.048-1.7187 1.589-1.7187c0 0 20.043-0.0286 20.354 0l5.0939 3.7249 25.709 3e-3c6.1389 0 6.1389 6.0266 6.1389 6.0266v28.124" style="fill:none;stroke-width:.7;stroke:#000"/>
<path transform="matrix(.48976 0 0 .49791 -187.87 -240.89)" d="m387.68 485.81c-1.5856 0-1.5856 2.0084-1.5856 2.0084v40.168h58.756s1e-5 -19.324 0-32.134c0-6.0252-6.373-6.5882-6.373-6.5882l-25.913-0.15436-3.6307-2.6818c-0.53156-0.39081-0.96613-0.61766-1.681-0.61766z" style="fill:url(#linearGradient6218);stroke-linecap:round;stroke-linejoin:bevel;stroke-width:.50828;stroke:#000a00"/>
<path transform="matrix(.49143 0 0 .31854 -188.93 -153.06)" d="m387.05 540.32 0.076-50.366 20.402 0.0901 1.3397-3.2606 3.3565 3.7108h27.167c5.4168 0 5.4168 8.3559 5.4168 8.3559v28.254" style="fill:none;stroke-width:1px;stroke:url(#linearGradient850)"/>
<path transform="matrix(.5 0 0 .5 -.0021617 5.801e-7)" d="m28.004 5.2857v0.73421s17.353-0.056939 26-9e-7l1.5964 0.14159s-0.99131-0.71696-1.8388-0.7221z" style="fill:url(#radialGradient6178-3);stroke-width:.6659"/>
<path transform="matrix(.49017 0 0 .54047 -188.09 -264.07)" d="m385.76 501.54v37.005s0 5.5507 6.1203 5.5507c0 0 40.125 1e-3 48.963 0 6.1203-6.5e-4 6.1203-5.5507 6.1203-5.5507 4.6e-4 -8.0121 0-29.604 0-29.604s0-1.8502-2.0401-1.8502c0 0-20 0-27.389-3.7005-3.8944-1.9502-6.2195-3.2282-8.2026-3.2282h-21.573c-2.0401 0-1.9979 1.3779-1.9979 1.3779z" style="fill:none;stroke-linejoin:round;stroke-width:1.2969;stroke:#000"/>
<path transform="matrix(.49017 0 0 .49893 -187.96 -241.91)" d="m385.21 538.76s0.26767 6.2213 6.4045 6.2213c9.658 1e-3 40.126 0 48.963 0 6.1203 0 6.1203-6.0129 6.1203-6.0129v-32.069c0-2.0043-2.0401-2.0043-2.0401-2.0043s-21.191 0.0116-28.562-4.0086c-5.6203-3.0656-6.1203-4.0086-8.1604-4.0086h-20.401c-2.0401 0-2.0401 2.0043-2.0401 2.0043z" style="fill:url(#linearGradient2676);stroke-linejoin:round;stroke-width:1.2969;stroke:url(#linearGradient2684)"/>
<g transform="matrix(.12508 0 0 .12508 -42.749 -48.354)">
<path transform="matrix(3.9973 0 0 3.9973 495.51 391.98)" d="m-19.748 29.314c-5.917 0-10.714 4.7759-10.714 10.667 0 5.8908 4.7968 10.667 10.714 10.667 5.9175 0 10.714-4.7759 10.714-10.667 1.66e-4 -5.8912-4.7968-10.667-10.714-10.667z" style="fill:#646464;stroke-width:.043869"/>
<path transform="matrix(2.6714 0 0 2.6714 543.95 470.92)" d="m-46.686 20.377 2.9382-4.9716c5.115 1.6957 11.292 6.1412 11.292 14.943s-6.0241 13.312-11.759 14.989l-1.264-5.0177c-0.24142-1.3121-0.41986-2.5874-0.52483-3.7788-0.50908 0.05249-1.0759 0.10497-1.6795 0.10497-2.1885 0-3.847-0.55107-4.9596-1.1021-1.1021-0.55632-1.7109-1.1546-1.7109-1.1546-0.20993-0.20993-0.20993-0.52483 0-0.73476 0.11021-0.10497 0.23092-0.15745 0.37263-0.15745 0.1417 2.1e-5 0.26241 0.05248 0.36738 0.15745 0 0 0.45135 0.4566 1.438 0.94469 0.99193 0.49859 2.4824 0.99718 4.4925 0.99718 0.57731 0 1.1179-0.05248 1.6112-0.10497-0.19419-2.96-0.03674-5.1433-0.03674-5.1433h-3.149s-0.41986-5.0646 2.5717-9.9718zm0.61405 15.115c0.021 0.34114 0.05248 0.68228 0.07872 1.0497 1.3646-0.18894 2.4667-0.57731 3.2539-0.99718 1.1021-0.55632 1.7109-1.1546 1.7109-1.1546 0.20993-0.20993 0.20993-0.52483 0-0.73476-0.09447-0.10497-0.21518-0.15745-0.35688-0.15745-0.1417 2.1e-5 -0.26241 0.05248-0.36738 0.15745 0 0-0.45135 0.4566-1.438 0.94469-0.70327 0.35164-1.6585 0.70327-2.8866 0.89221zm-7.3843-10.392c0.28866 0 0.52483 0.23617 0.52483 0.52483v2.0993c0 0.28866-0.23617 0.52483-0.52483 0.52483-0.28866 0-0.52483-0.23617-0.52483-0.52483v-2.0993c0-0.28866 0.23617-0.52483 0.52483-0.52483zm11.546 0c-0.28866 0-0.52483 0.23617-0.52483 0.52483v2.0993c0 0.28866 0.23617 0.52483 0.52483 0.52483s0.52483-0.23617 0.52483-0.52483v-2.0993c0-0.28866-0.23617-0.52483-0.52483-0.52483z" style="fill:#262727"/>
</g>
<path class="ColorScheme-Highlight" transform="matrix(.5 0 0 .5 -.0021617 5.801e-7)" d="m2.4512 4 2.2e-6 2h19.553v-3.7118l-17.553-2.4e-6c-2 2.4e-6 -2 1.7118-2 1.7118z" style="fill:currentColor;mix-blend-mode:normal"/>
<path transform="matrix(.5 0 0 .5 -.0021617 5.801e-7)" d="m4.4512 2.2432c-2 0-2 1.2466-2 1.7561v2.0205h19.553s2.0889-2.7012 2-3.2256c-0.27723-0.50911-1.4378-0.55108-2-0.55108z" style="color:#3daee9;fill:url(#linearGradient25155);stroke-width:.69;stroke:url(#linearGradient25029)"/>
<path transform="matrix(.5 0 0 .5 -.0021617 5.801e-7)" d="m4.4512 2.7797c-2 0-2 1.2466-2 1.7561v1.4841h19.719s1.1866-1.7212 1.8344-2.7354c-0.33138-0.41002-1.4378-0.50478-2-0.50478z" style="color:#3daee9;fill:none;stroke-width:.69;stroke:url(#linearGradient25029)"/>
</svg>
