<svg width="32" height="32" version="1.1" viewBox="0 0 32 32" xmlns="http://www.w3.org/2000/svg" xmlns:xlink="http://www.w3.org/1999/xlink">
<defs>
<style id="current-color-scheme" type="text/css">.ColorScheme-Highlight {
        color:#3daee9;
      }</style>
<linearGradient id="linearGradient6218" x1="408.33" x2="437.79" y1="555.74" y2="492.4" gradientTransform="matrix(1.0006 0 0 .85094 -.23613 72.315)" gradientUnits="userSpaceOnUse">
<stop style="stop-color:#353a3f;stop-opacity:.99608" offset="0"/>
<stop style="stop-color:#272727;stop-opacity:.98876" offset="1"/>
</linearGradient>
<linearGradient id="linearGradient850" x1="392.59" x2="420.29" y1="501.23" y2="503.48" gradientUnits="userSpaceOnUse">
<stop style="stop-color:#444647" offset="0"/>
<stop style="stop-color:#696969;stop-opacity:.42697" offset="1"/>
</linearGradient>
<radialGradient id="radialGradient6178-3" cx="397.99" cy="485.79" r="11.249" gradientTransform="matrix(-.00010706 .04847 -1.0235 -.0023723 538.49 -12.448)" gradientUnits="userSpaceOnUse">
<stop style="stop-color:#d8dbd8" offset="0"/>
<stop style="stop-color:#272727;stop-opacity:.98876" offset="1"/>
</radialGradient>
<linearGradient id="linearGradient2676" x1="406.46" x2="414.47" y1="539.62" y2="506.87" gradientUnits="userSpaceOnUse">
<stop style="stop-color:#1a1b1b" offset="0"/>
<stop style="stop-color:#474747" offset="1"/>
</linearGradient>
<linearGradient id="linearGradient2684" x1="395.58" x2="404.77" y1="530.01" y2="505.63" gradientUnits="userSpaceOnUse">
<stop offset="0"/>
<stop style="stop-color:#c3c3c3;stop-opacity:0" offset="1"/>
</linearGradient>
<linearGradient id="linearGradient25029" x1="12.021" x2="12.012" y1="7.2813" y2="-.72563" gradientUnits="userSpaceOnUse">
<stop style="stop-color:#4f5152" offset="0"/>
<stop style="stop-color:#010501" offset="1"/>
</linearGradient>
<linearGradient id="linearGradient25155" x1="21.812" x2="4.0043" y1="3.9336" y2="4" gradientUnits="userSpaceOnUse">
<stop style="stop-color:#1b1b1b" offset="0"/>
<stop style="stop-color:#090909;stop-opacity:.24541" offset=".49971"/>
<stop style="stop-color:#010101;stop-opacity:.23889" offset=".813"/>
<stop style="stop-opacity:.87011" offset="1"/>
</linearGradient>
</defs>
<path transform="matrix(.48869 0 0 .49779 -187.85 -240.96)" d="m386.9 524.24v-36.16s0.048-1.7187 1.589-1.7187c0 0 20.043-0.0286 20.354 0l5.0939 3.7249 25.709 3e-3c6.1389 0 6.1389 6.0266 6.1389 6.0266v28.124" style="fill:none;stroke-width:.7;stroke:#000"/>
<path transform="matrix(.48976 0 0 .49791 -187.87 -240.89)" d="m387.68 485.81c-1.5856 0-1.5856 2.0084-1.5856 2.0084v40.168h58.756s1e-5 -19.324 0-32.134c0-6.0252-6.373-6.5882-6.373-6.5882l-25.913-0.15436-3.6307-2.6818c-0.53156-0.39081-0.96613-0.61766-1.681-0.61766z" style="fill:url(#linearGradient6218);stroke-linecap:round;stroke-linejoin:bevel;stroke-width:.50828;stroke:#000a00"/>
<path transform="matrix(.49143 0 0 .31854 -188.93 -153.06)" d="m387.05 540.32 0.076-50.366 20.402 0.0901 1.3397-3.2606 3.3565 3.7108h27.167c5.4168 0 5.4168 8.3559 5.4168 8.3559v28.254" style="fill:none;stroke-width:1px;stroke:url(#linearGradient850)"/>
<path transform="matrix(.5 0 0 .5 -.0021617 5.801e-7)" d="m28.004 5.2857v0.73421s17.353-0.056939 26-9e-7l1.5964 0.14159s-0.99131-0.71696-1.8388-0.7221z" style="fill:url(#radialGradient6178-3);stroke-width:.6659"/>
<path transform="matrix(.49017 0 0 .54047 -188.09 -264.07)" d="m385.76 501.54v37.005s0 5.5507 6.1203 5.5507c0 0 40.125 1e-3 48.963 0 6.1203-6.5e-4 6.1203-5.5507 6.1203-5.5507 4.6e-4 -8.0121 0-29.604 0-29.604s0-1.8502-2.0401-1.8502c0 0-20 0-27.389-3.7005-3.8944-1.9502-6.2195-3.2282-8.2026-3.2282h-21.573c-2.0401 0-1.9979 1.3779-1.9979 1.3779z" style="fill:none;stroke-linejoin:round;stroke-width:1.2969;stroke:#000"/>
<path transform="matrix(.49017 0 0 .49893 -187.96 -241.91)" d="m385.21 538.76s0.26767 6.2213 6.4045 6.2213c9.658 1e-3 40.126 0 48.963 0 6.1203 0 6.1203-6.0129 6.1203-6.0129v-32.069c0-2.0043-2.0401-2.0043-2.0401-2.0043s-21.191 0.0116-28.562-4.0086c-5.6203-3.0656-6.1203-4.0086-8.1604-4.0086h-20.401c-2.0401 0-2.0401 2.0043-2.0401 2.0043z" style="fill:url(#linearGradient2676);stroke-linejoin:round;stroke-width:1.2969;stroke:url(#linearGradient2684)"/>
<g transform="matrix(.49999 0 0 .49999 20.132 -1.859)">
<path d="m-21.521 45.859c-0.79476 0-1.4129 0.64463-1.4129 1.4066 0 0.79123 0.64752 1.4066 1.4129 1.4066 0.79478 0 1.4129-0.64463 1.4129-1.4066 0-0.79125-0.6475-1.4066-1.4129-1.4066z" stroke-miterlimit="10" stroke-width=".88108" style="fill:#646464"/>
<path d="m-21.551 34.386c-5.9251 0-10.714 4.7679-10.714 10.667 0 5.8988 4.7892 10.667 10.714 10.667 5.9251 0 10.714-4.7679 10.714-10.667 0-5.8988-4.7892-10.667-10.714-10.667zm6.754 13.52c0 0.48908-0.39917 0.88628-0.89025 0.88628h-1.5658c-0.06148 0.12223-0.092 0.27515-0.1534 0.39739l1.0745 1.0697c0.1534 0.15275 0.27635 0.39739 0.27635 0.64185 0 0.24444-0.092 0.45838-0.27635 0.64182l-0.89025 0.8863c-0.15342 0.15274-0.39916 0.27515-0.64469 0.27515-0.24554 0-0.46043-0.09163-0.6447-0.27515l-0.98233-0.97798c-0.18426 0.09163-0.39917 0.18343-0.61404 0.27514v1.6198c0 0.24445-0.09204 0.4584-0.27637 0.6113-0.15342 0.15274-0.39917 0.27515-0.61404 0.27515h-1.2587c-0.24554 0-0.46044-0.09163-0.64469-0.27515-0.15343-0.15273-0.27638-0.39738-0.27638-0.64182v-1.6505c-0.2149-0.09164-0.46045-0.18343-0.6447-0.30566l-1.0132 1.0087c-0.15343 0.15273-0.39916 0.27514-0.6447 0.27514-0.24554 0-0.46046-0.09163-0.6447-0.27514l-0.89024-0.88628c-0.1534-0.15275-0.27637-0.39738-0.27637-0.64184 0-0.24445 0.09204-0.45839 0.27637-0.64182l1.1051-1.1002c-0.06143-0.12221-0.09203-0.30567-0.15341-0.4584h-1.5349c-0.49123 0-0.89022-0.39739-0.89022-0.88629v-1.2531c0-0.24444 0.09204-0.45839 0.27636-0.6113 0.15344-0.15274 0.39917-0.27515 0.64471-0.27515h1.6579c0.06145-0.15274 0.12276-0.30567 0.21489-0.45839l-1.0438-1.0392c-0.1534-0.15274-0.27637-0.39739-0.27637-0.64185 0-0.24443 0.09204-0.45839 0.27637-0.64182l0.89024-0.88629c0.33768-0.33617 0.89024-0.33617 1.2587 0l1.1051 1.1002c0.12276-0.06115 0.27637-0.09163 0.39916-0.15273v-1.5281c0-0.48908 0.39915-0.88626 0.89024-0.88626h1.2587c0.49125 0 0.89023 0.39738 0.89023 0.88626v1.5893c0.15342 0.06117 0.30703 0.12223 0.49127 0.21393l1.1051-1.0697c0.15341-0.15273 0.39914-0.27514 0.64469-0.27514 0.24554 0 0.46043 0.09163 0.6447 0.27514l0.89024 0.88628c0.33766 0.33618 0.33766 0.88628 0 1.2531l-1.136 1.1309c0.06147 0.09163 0.092 0.21394 0.12277 0.30568h1.5964c0.49125 0 0.89022 0.39738 0.89022 0.88627z" stroke-miterlimit="10" stroke-width=".91895" style="fill:#646464"/>
<path transform="translate(-30.263 1.2338)" d="m7.8801 33.183v3.5636h-1.2925l2.1541 2.1541 2.1541-2.1541h-1.2925v-3.5636l-0.89107-0.031576z" style="color:#111111;fill:#262727;stroke-width:.86165"/>
</g>
<path class="ColorScheme-Highlight" transform="matrix(.5 0 0 .5 -.0021617 5.801e-7)" d="m2.4512 4 2.2e-6 2h19.553v-3.7118l-17.553-2.4e-6c-2 2.4e-6 -2 1.7118-2 1.7118z" style="fill:currentColor;mix-blend-mode:normal"/>
<path transform="matrix(.5 0 0 .5 -.0021617 5.801e-7)" d="m4.4512 2.2432c-2 0-2 1.2466-2 1.7561v2.0205h19.553s2.0889-2.7012 2-3.2256c-0.27723-0.50911-1.4378-0.55108-2-0.55108z" style="color:#3daee9;fill:url(#linearGradient25155);stroke-width:.69;stroke:url(#linearGradient25029)"/>
<path transform="matrix(.5 0 0 .5 -.0021617 5.801e-7)" d="m4.4512 2.7797c-2 0-2 1.2466-2 1.7561v1.4841h19.719s1.1866-1.7212 1.8344-2.7354c-0.33138-0.41002-1.4378-0.50478-2-0.50478z" style="color:#3daee9;fill:none;stroke-width:.69;stroke:url(#linearGradient25029)"/>
</svg>
