<svg width="32" height="32" version="1.1" viewBox="0 0 32 32" xmlns="http://www.w3.org/2000/svg">
<defs>
<style id="current-color-scheme" type="text/css">.ColorScheme-Highlight {
        color:#3daee9;
      }</style>
<linearGradient id="linearGradient6218" x1="408.33" x2="437.79" y1="555.74" y2="492.4" gradientTransform="matrix(1.0006 0 0 .85094 -.23613 72.315)" gradientUnits="userSpaceOnUse">
<stop style="stop-color:#353a3f;stop-opacity:.99608" offset="0"/>
<stop style="stop-color:#272727;stop-opacity:.98876" offset="1"/>
</linearGradient>
<linearGradient id="linearGradient850" x1="392.59" x2="420.29" y1="501.23" y2="503.48" gradientUnits="userSpaceOnUse">
<stop style="stop-color:#444647" offset="0"/>
<stop style="stop-color:#696969;stop-opacity:.42697" offset="1"/>
</linearGradient>
<radialGradient id="radialGradient6178-3" cx="397.99" cy="485.79" r="11.249" gradientTransform="matrix(-.00010706 .04847 -1.0235 -.0023723 538.49 -12.448)" gradientUnits="userSpaceOnUse">
<stop style="stop-color:#d8dbd8" offset="0"/>
<stop style="stop-color:#272727;stop-opacity:.98876" offset="1"/>
</radialGradient>
<linearGradient id="linearGradient2676" x1="406.46" x2="414.47" y1="539.62" y2="506.87" gradientUnits="userSpaceOnUse">
<stop style="stop-color:#1a1b1b" offset="0"/>
<stop style="stop-color:#474747" offset="1"/>
</linearGradient>
<linearGradient id="linearGradient2684" x1="395.58" x2="404.77" y1="530.01" y2="505.63" gradientUnits="userSpaceOnUse">
<stop offset="0"/>
<stop style="stop-color:#c3c3c3;stop-opacity:0" offset="1"/>
</linearGradient>
<linearGradient id="linearGradient25029" x1="12.021" x2="12.012" y1="7.2813" y2="-.72563" gradientUnits="userSpaceOnUse">
<stop style="stop-color:#4f5152" offset="0"/>
<stop style="stop-color:#010501" offset="1"/>
</linearGradient>
<linearGradient id="linearGradient25155" x1="21.812" x2="4.0043" y1="3.9336" y2="4" gradientUnits="userSpaceOnUse">
<stop style="stop-color:#1b1b1b" offset="0"/>
<stop style="stop-color:#090909;stop-opacity:.24541" offset=".49971"/>
<stop style="stop-color:#010101;stop-opacity:.23889" offset=".813"/>
<stop style="stop-opacity:.87011" offset="1"/>
</linearGradient>
</defs>
<path transform="matrix(.48869 0 0 .49779 -187.85 -240.96)" d="m386.9 524.24v-36.16s0.048-1.7187 1.589-1.7187c0 0 20.043-0.0286 20.354 0l5.0939 3.7249 25.709 3e-3c6.1389 0 6.1389 6.0266 6.1389 6.0266v28.124" style="fill:none;stroke-width:.7;stroke:#000"/>
<path transform="matrix(.48976 0 0 .49791 -187.87 -240.89)" d="m387.68 485.81c-1.5856 0-1.5856 2.0084-1.5856 2.0084v40.168h58.756s1e-5 -19.324 0-32.134c0-6.0252-6.373-6.5882-6.373-6.5882l-25.913-0.15436-3.6307-2.6818c-0.53156-0.39081-0.96613-0.61766-1.681-0.61766z" style="fill:url(#linearGradient6218);stroke-linecap:round;stroke-linejoin:bevel;stroke-width:.50828;stroke:#000a00"/>
<path transform="matrix(.49143 0 0 .31854 -188.93 -153.06)" d="m387.05 540.32 0.076-50.366 20.402 0.0901 1.3397-3.2606 3.3565 3.7108h27.167c5.4168 0 5.4168 8.3559 5.4168 8.3559v28.254" style="fill:none;stroke-width:1px;stroke:url(#linearGradient850)"/>
<path transform="matrix(.5 0 0 .5 -.0021617 5.801e-7)" d="m28.004 5.2857v0.73421s17.353-0.056939 26-9e-7l1.5964 0.14159s-0.99131-0.71696-1.8388-0.7221z" style="fill:url(#radialGradient6178-3);stroke-width:.6659"/>
<path transform="matrix(.49017 0 0 .54047 -188.09 -264.07)" d="m385.76 501.54v37.005s0 5.5507 6.1203 5.5507c0 0 40.125 1e-3 48.963 0 6.1203-6.5e-4 6.1203-5.5507 6.1203-5.5507 4.6e-4 -8.0121 0-29.604 0-29.604s0-1.8502-2.0401-1.8502c0 0-20 0-27.389-3.7005-3.8944-1.9502-6.2195-3.2282-8.2026-3.2282h-21.573c-2.0401 0-1.9979 1.3779-1.9979 1.3779z" style="fill:none;stroke-linejoin:round;stroke-width:1.2969;stroke:#000"/>
<path transform="matrix(.49017 0 0 .49893 -187.96 -241.91)" d="m385.21 538.76s0.26767 6.2213 6.4045 6.2213c9.658 1e-3 40.126 0 48.963 0 6.1203 0 6.1203-6.0129 6.1203-6.0129v-32.069c0-2.0043-2.0401-2.0043-2.0401-2.0043s-21.191 0.0116-28.562-4.0086c-5.6203-3.0656-6.1203-4.0086-8.1604-4.0086h-20.401c-2.0401 0-2.0401 2.0043-2.0401 2.0043z" style="fill:url(#linearGradient2676);stroke-linejoin:round;stroke-width:1.2969;stroke:url(#linearGradient2684)"/>
<g transform="matrix(.49999 0 0 .4994 -12.006 2.8613)">
<path d="m52.59 31.529c-0.5339-1.2653-1.3219-2.4041-2.2877-3.391-0.99138-0.98696-2.1352-1.7462-3.4062-2.2775-1.322-0.55692-2.72-0.86057-4.169-0.86057-1.449 0-2.847 0.30363-4.1688 0.8604-1.271 0.53152-2.4148 1.316-3.4062 2.2775-0.99137 0.98696-1.754 2.1257-2.2877 3.391-0.55942 1.3162-0.86441 2.7079-0.86441 4.1505 0 1.4426 0.30498 2.8343 0.86422 4.1503 0.53389 1.2653 1.3219 2.4041 2.2877 3.391 0.99136 0.98695 2.1352 1.7462 3.4062 2.2775 1.3219 0.55674 2.72 0.83511 4.1688 0.83511 1.449 0 2.8469-0.27838 4.1688-0.83511 1.271-0.53153 2.4148-1.316 3.4062-2.2775 0.99136-0.98696 1.754-2.1257 2.2877-3.391 0.55923-1.316 0.83884-2.7079 0.83884-4.1503 3.68e-4 -1.4426-0.27927-2.8343-0.83854-4.1503z" style="fill:#646464;stroke-width:.045292"/>
<path d="m41.429 29.987c0.03455 0.02997 0.0537 0.07348 0.0532 0.11848v4.9106c0 0.04141-0.01677 0.08103-0.0462 0.11034-0.0295 0.02947-0.06921 0.04599-0.11076 0.04599h-7.0259c-0.08664 0-0.15666-0.06988-0.15666-0.15604v-3.8761c-7.04e-4 -0.07766 0.0559-0.14442 0.13319-0.15605l7.0274-1.0296c0.04471-8e-3 0.0903 5e-3 0.12524 0.03333z" style="fill:#262727;stroke-width:.029035"/>
<path d="m49.812 36.311v6.1335c0 0.04589-0.0203 0.08929-0.0547 0.1185-0.02851 0.02399-0.0642 0.03706-0.102 0.03706h-0.0232l-7.0414-1.0358c-0.0426-7e-3 -0.0803-0.03037-0.10499-0.0652-0.02513-0.03545-0.03472-0.08019-0.0247-0.12324 7e-3 -0.02977 0.01077-0.06022 9e-3 -0.09029v-4.9744c0-0.08632 0.07032-0.15604 0.15674-0.15604h7.0288c0.0415 0 0.08125 0.0167 0.1107 0.04599 0.0296 0.02937 0.0462 0.06892 0.0462 0.11033z" style="fill:#262727;stroke-width:.029035"/>
<path d="m41.482 36.311v4.9107c4.36e-4 0.0456-0.01947 0.08899-0.05309 0.11848-0.02887 0.02429-0.0652 0.03753-0.10349 0.03706h-0.0217l-7.0274-1.0342c-0.07717-0.01156-0.13413-0.07776-0.1332-0.15605v-3.8761c0-0.08653 0.0702-0.15605 0.15662-0.15605h7.0259c0.0415 0 0.08121 0.0167 0.1107 0.046 0.0296 0.02937 0.0462 0.06892 0.0462 0.11033z" style="fill:#262727;stroke-width:.029035"/>
<path d="m49.812 28.883v6.1335c0 0.04141-0.01673 0.08103-0.0462 0.11034-0.0295 0.02947-0.06929 0.04599-0.11072 0.04599h-7.0288c-0.0866 0-0.15674-0.06988-0.15674-0.15607v-4.9683c3.42e-4 -0.03047-3e-3 -0.06115-9e-3 -0.09009-0.01077-0.04282-3.34e-4 -0.08781 0.0247-0.12321 0.0241-0.03555 0.0623-0.05934 0.105-0.0652l7.0413-1.0342c0.0458-7e-3 0.09148 7e-3 0.1263 0.03604 0.03455 0.03027 0.0543 0.07408 0.0537 0.11948z" style="fill:#262727;stroke-width:.029035"/>
</g>
<path class="ColorScheme-Highlight" transform="matrix(.5 0 0 .5 -.0021617 5.801e-7)" d="m2.4512 4 2.2e-6 2h19.553v-3.7118l-17.553-2.4e-6c-2 2.4e-6 -2 1.7118-2 1.7118z" style="fill:currentColor;mix-blend-mode:normal"/>
<path transform="matrix(.5 0 0 .5 -.0021617 5.801e-7)" d="m4.4512 2.2432c-2 0-2 1.2466-2 1.7561v2.0205h19.553s2.0889-2.7012 2-3.2256c-0.27723-0.50911-1.4378-0.55108-2-0.55108z" style="color:#3daee9;fill:url(#linearGradient25155);stroke-width:.69;stroke:url(#linearGradient25029)"/>
<path transform="matrix(.5 0 0 .5 -.0021617 5.801e-7)" d="m4.4512 2.7797c-2 0-2 1.2466-2 1.7561v1.4841h19.719s1.1866-1.7212 1.8344-2.7354c-0.33138-0.41002-1.4378-0.50478-2-0.50478z" style="color:#3daee9;fill:none;stroke-width:.69;stroke:url(#linearGradient25029)"/>
</svg>
