<?xml version="1.0" encoding="UTF-8" standalone="no"?>
<svg
   viewBox="0 0 32 32"
   version="1.1"
   id="svg12"
   sodipodi:docname="folder-sign.svg"
   inkscape:version="1.1.2 (0a00cf5339, 2022-02-04)"
   width="32"
   height="32"
   xmlns:inkscape="http://www.inkscape.org/namespaces/inkscape"
   xmlns:sodipodi="http://sodipodi.sourceforge.net/DTD/sodipodi-0.dtd"
   xmlns:xlink="http://www.w3.org/1999/xlink"
   xmlns="http://www.w3.org/2000/svg"
   xmlns:svg="http://www.w3.org/2000/svg">
  <sodipodi:namedview
     id="namedview14"
     pagecolor="#ffffff"
     bordercolor="#666666"
     borderopacity="1.0"
     inkscape:pageshadow="2"
     inkscape:pageopacity="0.0"
     inkscape:pagecheckerboard="0"
     showgrid="false"
     inkscape:zoom="22.627417"
     inkscape:cx="9.7153563"
     inkscape:cy="17.264841"
     inkscape:window-width="1920"
     inkscape:window-height="996"
     inkscape:window-x="0"
     inkscape:window-y="0"
     inkscape:window-maximized="1"
     inkscape:current-layer="svg12"
     inkscape:snap-nodes="true"
     inkscape:object-paths="true"
     showguides="true"
     inkscape:guide-bbox="true"
     inkscape:snap-intersection-paths="true"
     inkscape:snap-smooth-nodes="true"
     inkscape:snap-midpoints="true">
    <sodipodi:guide
       position="9.6842658,4.6250324"
       orientation="0,-1"
       id="guide4749" />
    <sodipodi:guide
       position="4.3460068,9.9395738"
       orientation="1,0"
       id="guide4751" />
  </sodipodi:namedview>
  <defs
     id="defs3051">
    <linearGradient
       inkscape:collect="always"
       id="linearGradient25153">
      <stop
         style="stop-color:#1b1b1b;stop-opacity:1"
         offset="0"
         id="stop25149" />
      <stop
         style="stop-color:#090909;stop-opacity:0.24540505"
         offset="0.49971318"
         id="stop1797" />
      <stop
         style="stop-color:#010101;stop-opacity:0.23888743"
         offset="0.9430303"
         id="stop2247" />
      <stop
         style="stop-color:#000000;stop-opacity:0.8012926"
         offset="1"
         id="stop25151" />
    </linearGradient>
    <linearGradient
       inkscape:collect="always"
       id="linearGradient14607">
      <stop
         style="stop-color:#4f5152;stop-opacity:1"
         offset="0"
         id="stop14603" />
      <stop
         style="stop-color:#010501;stop-opacity:1"
         offset="1"
         id="stop14605" />
    </linearGradient>
    <style
       type="text/css"
       id="current-color-scheme">
      .ColorScheme-Text {
        color:#232629;
      }
      .ColorScheme-Highlight {
        color:#3daee9;
      }
      </style>
    <filter
       height="1.0449693"
       y="-0.026935052"
       width="1.0344187"
       x="-0.017208866"
       id="filter940"
       style="color-interpolation-filters:sRGB">
      <feGaussianBlur
         id="feGaussianBlur942"
         stdDeviation="0.28795822" />
    </filter>
    <linearGradient
       gradientTransform="matrix(1.0005668,0,0,0.8509446,-0.23612742,72.315207)"
       gradientUnits="userSpaceOnUse"
       y2="492.39743"
       x2="437.78555"
       y1="555.7431"
       x1="408.33118"
       id="linearGradient6218"
       xlink:href="#linearGradient42869" />
    <linearGradient
       id="linearGradient42869">
      <stop
         style="stop-color:#353a3f;stop-opacity:0.99607843"
         offset="0"
         id="stop42865" />
      <stop
         style="stop-color:#272727;stop-opacity:0.98876405"
         offset="1"
         id="stop42867" />
    </linearGradient>
    <filter
       height="1.0667278"
       y="-0.033363852"
       width="1.0561312"
       x="-0.028065609"
       id="filter2714"
       style="color-interpolation-filters:sRGB">
      <feGaussianBlur
         id="feGaussianBlur2716"
         stdDeviation="0.56332734" />
    </filter>
    <radialGradient
       r="10.859361"
       fy="487.69391"
       fx="398.76016"
       cy="487.69391"
       cx="398.76016"
       gradientTransform="matrix(-7.685935e-4,0.15609892,-1.7620566,-0.00728959,850.60261,-66.13108)"
       gradientUnits="userSpaceOnUse"
       id="radialGradient6119"
       xlink:href="#linearGradient6109" />
    <linearGradient
       id="linearGradient6109">
      <stop
         id="stop6105"
         offset="0"
         style="stop-color:#498fff;stop-opacity:1;" />
      <stop
         id="stop6107"
         offset="1"
         style="stop-color:#010006;stop-opacity:1" />
    </linearGradient>
    <linearGradient
       gradientTransform="matrix(1,0,0,0.79783267,-406.29559,-396.90111)"
       gradientUnits="userSpaceOnUse"
       y2="483.23215"
       x2="394.73306"
       y1="493.14221"
       x1="394.80273"
       id="linearGradient6103"
       xlink:href="#linearGradient6101" />
    <linearGradient
       id="linearGradient6101">
      <stop
         id="stop6097"
         offset="0"
         style="stop-color:#000304;stop-opacity:1" />
      <stop
         id="stop6099"
         offset="1"
         style="stop-color:#595959;stop-opacity:0.62352943" />
    </linearGradient>
    <linearGradient
       gradientUnits="userSpaceOnUse"
       y2="539.64374"
       x2="414.83517"
       y1="501.65286"
       x1="415.07861"
       id="linearGradient850"
       xlink:href="#linearGradient848" />
    <linearGradient
       id="linearGradient848">
      <stop
         id="stop844"
         offset="0"
         style="stop-color:#57595a;stop-opacity:0.99607843" />
      <stop
         id="stop846"
         offset="1"
         style="stop-color:#000000;stop-opacity:0.42696628" />
    </linearGradient>
    <filter
       height="1.03215"
       y="-0.025901777"
       width="1.0283593"
       x="-0.01417968"
       id="filter2706"
       style="color-interpolation-filters:sRGB">
      <feGaussianBlur
         id="feGaussianBlur2708"
         stdDeviation="0.140357" />
    </filter>
    <radialGradient
       gradientUnits="userSpaceOnUse"
       gradientTransform="matrix(-5.3340695e-5,0.02414953,-0.50997058,-0.00118197,268.40841,-5.990022)"
       r="11.24949"
       fy="485.79099"
       fx="397.99051"
       cy="485.79099"
       cx="397.99051"
       id="radialGradient6178-3"
       xlink:href="#linearGradient880" />
    <linearGradient
       id="linearGradient880">
      <stop
         style="stop-color:#d8dbd8;stop-opacity:1"
         offset="0"
         id="stop876" />
      <stop
         style="stop-color:#272727;stop-opacity:0.98876405"
         offset="1"
         id="stop878" />
    </linearGradient>
    <filter
       height="1.0707442"
       y="-0.035372174"
       width="1.0508627"
       x="-0.025431326"
       id="filter1073"
       style="color-interpolation-filters:sRGB">
      <feGaussianBlur
         id="feGaussianBlur1075"
         stdDeviation="0.39283137" />
    </filter>
    <linearGradient
       gradientUnits="userSpaceOnUse"
       y2="506.87347"
       x2="414.47186"
       y1="539.61627"
       x1="406.45694"
       id="linearGradient2676"
       xlink:href="#linearGradient2668" />
    <linearGradient
       id="linearGradient2668">
      <stop
         id="stop2664"
         offset="0"
         style="stop-color:#1a1b1b;stop-opacity:1" />
      <stop
         id="stop2666"
         offset="1"
         style="stop-color:#474747;stop-opacity:1" />
    </linearGradient>
    <linearGradient
       gradientUnits="userSpaceOnUse"
       y2="505.62521"
       x2="404.77097"
       y1="530.01428"
       x1="395.58017"
       id="linearGradient2684"
       xlink:href="#linearGradient2682" />
    <linearGradient
       id="linearGradient2682">
      <stop
         id="stop2678"
         offset="0"
         style="stop-color:#000000;stop-opacity:1;" />
      <stop
         id="stop2680"
         offset="1"
         style="stop-color:#c3c3c3;stop-opacity:0" />
    </linearGradient>
    <filter
       height="1.0397525"
       y="-0.019876304"
       width="1.0307531"
       x="-0.015376566"
       id="filter2690"
       style="color-interpolation-filters:sRGB">
      <feGaussianBlur
         id="feGaussianBlur2692"
         stdDeviation="0.13069192" />
    </filter>
    <filter
       inkscape:collect="always"
       style="color-interpolation-filters:sRGB"
       id="filter24684"
       x="-0.024959943"
       y="-0.15409672"
       width="1.0499199"
       height="1.3081934">
      <feGaussianBlur
         inkscape:collect="always"
         stdDeviation="0.21554955"
         id="feGaussianBlur24686" />
    </filter>
    <linearGradient
       inkscape:collect="always"
       xlink:href="#linearGradient14607"
       id="linearGradient25029"
       gradientUnits="userSpaceOnUse"
       x1="12.020759"
       y1="7.2813473"
       x2="12.011944"
       y2="-0.7256338" />
    <linearGradient
       inkscape:collect="always"
       xlink:href="#linearGradient25153"
       id="linearGradient25155"
       x1="21.812489"
       y1="3.9335968"
       x2="4.6537294"
       y2="4.034317"
       gradientUnits="userSpaceOnUse" />
    <filter
       inkscape:collect="always"
       style="color-interpolation-filters:sRGB"
       id="filter30328"
       x="-0.060622242"
       y="-0.37427998"
       width="1.121405"
       height="1.7485472">
      <feGaussianBlur
         inkscape:collect="always"
         stdDeviation="0.2547727"
         id="feGaussianBlur30330" />
    </filter>
  </defs>
  <path
     transform="matrix(0.48696751,0,0,0.4960353,-187.06995,-239.89567)"
     id="path6220-2"
     d="m 386.25703,524.61791 0.77838,-38.71157 22.03057,0.10242 3.50545,3.40716 c 0,0 18.10956,0.35097 27.33843,0.35097 2.88877,0 6.71919,2.18928 6.71919,7.16894 0,13.1364 0.12174,26.49022 0.12174,26.49022"
     style="display:inline;fill:none;fill-opacity:1;stroke:#000000;stroke-width:0.7;stroke-linecap:butt;stroke-linejoin:miter;stroke-miterlimit:4;stroke-dasharray:none;stroke-opacity:1;filter:url(#filter940)"
     sodipodi:nodetypes="ccccssc"
     inkscape:label="dégradé arrière noir" />
  <path
     transform="matrix(0.48802992,0,0,0.49615387,-187.09835,-239.8238)"
     d="m 386.39384,486.19622 c 0,0 -0.10293,36.25523 -0.10293,49.28612 0,1.03908 0.48232,1.87652 1.08144,1.87652 h 58.39816 c 0.59911,0 1.34832,-0.83745 1.34161,-1.87652 0,0 -0.0268,-27.28049 -0.0268,-40.09035 0,-3.00572 -3.75125,-6.05898 -6.82146,-6.05898 -9.03444,0 -27.69471,-0.22684 -27.69471,-0.22684 l -4.13226,-2.8228 z"
     id="rect4180"
     style="display:inline;fill:url(#linearGradient6218);fill-opacity:1;stroke:#000a00;stroke-width:0.71;stroke-linecap:round;stroke-linejoin:bevel;stroke-miterlimit:4;stroke-dasharray:none;stroke-opacity:1;filter:url(#filter2714)"
     sodipodi:nodetypes="cssscssccc"
     inkscape:label="arrière plan" />
  <path
     transform="matrix(0.48969536,0,0,0.31742024,-188.14836,-152.31236)"
     id="path6220"
     d="m 387.04904,540.31904 0.076,-50.36617 20.73641,0.0901 1.41588,-3.75705 2.94655,4.20719 c 0,0 17.40991,0.34184 27.40616,0.34184 3.61218,0 6.32049,4.0507 6.32049,8.9451 0,12.76833 0.1165,38.20486 0.1165,38.20486"
     style="display:inline;fill:none;fill-opacity:1;stroke:url(#linearGradient850);stroke-width:1px;stroke-linecap:butt;stroke-linejoin:miter;stroke-opacity:1;filter:url(#filter2706)"
     sodipodi:nodetypes="cccccssc"
     inkscape:label="contour haut" />
  <path
     d="m 14.022662,2.922219 v 0.1894704 h 0.221981 l 12.702416,0.083642 h 0.221979 L 26.897399,2.922214 h -0.22198 -12.430776 z"
     id="path4151-2-3-5"
     style="display:inline;fill:url(#radialGradient6178-3);fill-opacity:1;stroke-width:0.331779"
     inkscape:label="reflet haut" />
  <path
     transform="matrix(0.48843843,0,0,0.53856155,-187.31454,-262.92418)"
     style="display:inline;fill:none;fill-opacity:1;stroke:#000000;stroke-width:1.29693;stroke-linejoin:round;stroke-miterlimit:4;stroke-dasharray:none;stroke-opacity:1;filter:url(#filter1073)"
     id="path952"
     d="m 385.15633,501.64377 c 0,13.8136 0.0547,36.33599 0.0547,39.23108 0,2.8951 4.24366,4.43675 7.16501,4.43675 9.65801,10e-4 39.7482,-0.008 48.58578,-0.009 2.73024,-2.9e-4 6.73958,-3.06897 6.73961,-5.5723 4.6e-4,-8.01206 0.0257,-31.8933 0.0257,-31.8933 -21.39075,-0.31416 -23.00468,-0.49626 -28.48106,-3.68616 -5.47637,-3.18989 -6.84254,-3.7889 -8.06758,-3.79572 -8.19718,-0.0456 -25.32423,-0.0254 -25.32423,-0.0254 0,0 -0.68932,-0.094 -0.698,1.31379 z"
     inkscape:label="ombrage folder"
     sodipodi:nodetypes="czcscczsccc" />
  <path
     transform="matrix(0.48843843,0,0,0.4971701,-187.18213,-240.84854)"
     style="display:inline;fill:url(#linearGradient2676);fill-opacity:1;stroke:url(#linearGradient2684);stroke-width:1.29693;stroke-linejoin:round;stroke-miterlimit:4;stroke-dasharray:none;stroke-opacity:1;filter:url(#filter2690)"
     id="path952-7"
     d="m 385.15633,498.35321 c 0,13.8136 0.0547,28.03631 0.0547,40.41503 0,6.52543 4.5187,6.67224 7.29021,6.67224 9.65801,10e-4 38.73653,0 47.57411,0 4.29557,0 7.62608,-4.19689 7.62608,-7.71933 4.6e-4,-8.01206 0.0257,-32.38987 0.0257,-32.38987 -22.81136,0 -23.57647,-0.13663 -31.18143,-4.28484 -5.62028,-3.06564 -5.63216,-3.98161 -7.35295,-3.98161 -8.19718,-0.0456 -23.33849,-0.0254 -23.33849,-0.0254 0,0 -0.68932,-0.094 -0.698,1.31379 z"
     inkscape:label="premier plan folder"
     sodipodi:nodetypes="cscsccscccc" />
  <path
     style="display:inline;mix-blend-mode:normal;fill:currentColor;stroke:none;stroke-width:0.390115;stroke-miterlimit:4;stroke-dasharray:none;filter:url(#filter24684)"
     d="M 3.1185124,2.3943988 C 2.9060465,2.5755409 2.8406898,2.662737 2.8406898,3.1723004 c 0,0.7470828 0.00654,2.4587688 0.00654,2.4587688 H 22.075746 l 0.993727,-1.6353471 c 0,0 0.682408,-0.9793708 0.44826,-1.410869 -0.123324,-0.2272669 -0.513311,-0.2662912 -1.075516,-0.2662912 -0.820732,0 -18.1692197,-0.041813 -18.4326201,-0.041813 0,0 -0.7160982,-0.031538 -0.8910845,0.1176499 z"
     class="ColorScheme-Highlight"
     id="path4"
     sodipodi:nodetypes="sscccsscs"
     inkscape:label="AA-couleur-courant"
     transform="matrix(0.49823791,0,0,0.49823791,0.11114963,0.21211849)" />
  <path
     style="color:#3daee9;display:inline;fill:url(#linearGradient25155);fill-opacity:1;stroke:url(#linearGradient25029);stroke-width:1.29;stroke-miterlimit:4;stroke-dasharray:none;filter:url(#filter30328)"
     d="M 3.1185124,2.3943988 C 2.9060465,2.5755409 2.8406898,2.662737 2.8406898,3.1723004 c 0,0.7470828 0.00654,2.4587688 0.00654,2.4587688 H 22.075746 l 0.993727,-1.6353471 c 0,0 0.682408,-0.9793708 0.44826,-1.410869 -0.123324,-0.2272669 -0.513311,-0.2662912 -1.075516,-0.2662912 -0.820732,0 -18.1692197,-0.041813 -18.4326201,-0.041813 0,0 -0.7160982,-0.031538 -0.8910845,0.1176499 z"
     class="ColorScheme-Highlight"
     id="path4-0"
     sodipodi:nodetypes="sscccsscs"
     inkscape:label="AA-degradé"
     transform="matrix(0.49823791,0,0,0.49823791,0.11114963,0.21211849)" />
  <g
     id="g137981"
     transform="matrix(0.50033011,0,0,0.50033011,71.273116,22.286838)">
    <path
       d="m -113.23339,-4.6346991 c -0.53391,-1.265322 -1.32188,-2.404085 -2.28768,-3.391031 -0.99138,-0.986967 -2.13521,-1.74621 -3.40617,-2.2775159 -1.32206,-0.556914 -2.72001,-0.860568 -4.16901,-0.860568 -1.44901,0 -2.84694,0.303638 -4.16881,0.860391 -1.27098,0.5315239 -2.41481,1.3159829 -3.40618,2.2775089 -0.99136,0.986956 -1.754,2.12571 -2.28766,3.391046 -0.55942,1.316165 -0.86441,2.707892 -0.86441,4.15046197 0,1.442561 0.30498,2.83429503 0.86422,4.15028903 0.5339,1.265322 1.32186,2.404077 2.28767,3.391043 0.99136,0.986947 2.1352,1.746197 3.40618,2.277505 1.32187,0.556747 2.71998,0.8351151 4.16881,0.8351151 1.449,0 2.84695,-0.2783791 4.16881,-0.8351151 1.27097,-0.531534 2.41482,-1.315991 3.40618,-2.277505 0.99136,-0.986966 1.75399,-2.125721 2.28768,-3.391043 0.55923,-1.315994 0.83884,-2.70790303 0.83884,-4.15028903 3.6e-4,-1.44256997 -0.27926,-2.83429697 -0.83854,-4.15029297 z"
       id="path67-7-3"
       style="fill:#646464;fill-opacity:1;stroke-width:0.045292" />
    <path
       d="m -125.41138,2.1264859 c 0.0596,0.04369 0.12903,0.06511 0.19785,0.06511 0.1022,0 0.20297,-0.04661 0.2683,-0.134701 0.59261,-0.798316 1.26,-1.54942603 1.98365,-2.23280303 0.13345,-0.126148 0.13915,-0.33608 0.0125,-0.469175 -0.12684,-0.132865 -0.33759,-0.138423 -0.47127,-0.01244 -0.75178,0.709895 -1.44517,1.490517 -2.06097,2.31996003 -0.10957,0.147447 -0.0783,0.355176 0.0699,0.464204 z"
       id="path79-3-6"
       style="fill:#262727;fill-opacity:1;stroke-width:0.0296933" />
    <path
       d="m -122.51282,-0.69255013 c 0.0765,0 0.15346,-0.02607 0.21634,-0.07942 0.22645,-0.192574 0.46188,-0.38224397 0.69957,-0.56358997 l 1.74931,-1.335062 c 0.146,-0.111454 0.17366,-0.319897 0.0618,-0.465239 -0.11184,-0.14535 -0.32122,-0.17267 -0.46732,-0.0615 l -1.74931,1.33506 c -0.24701,0.188646 -0.49161,0.385643 -0.72689,0.585739 -0.13996,0.118964 -0.15647,0.32856097 -0.037,0.46789497 0.0656,0.07696 0.15927,0.116317 0.25342,0.116317 z"
       id="path81-6-7"
       style="fill:#262727;fill-opacity:1;stroke-width:0.0296933" />
    <path
       d="m -129.63306,6.9702349 h 1.24221 4.8e-4 6.8e-4 1.78418 c 0.18401,0 0.33327,-0.148709 0.33327,-0.331796 0,-0.183199 -0.14938,-0.331789 -0.33327,-0.331789 h -1.17992 l 0.60428,-0.953288 c 0.0545,-0.03481 0.11416,-0.07726 0.18912,-0.132396 0.34793,-0.256349 1.07204,-0.790099 2.1055,-1.261114 0.91662,-0.449743 2.93746,-1.193173 2.95782,-1.200693 0.10992,-0.04054 0.19064,-0.135533 0.21215,-0.250334 0.0216,-0.114793 -0.0189,-0.232389 -0.10693,-0.309816 l -0.13055,-0.114687 c 1.45041,-0.0693 1.58993,-0.151037 1.65781,-0.190836 0.33504,-0.202886 0.60995,-0.378355 0.86511,-0.552284 1.12969,-0.76983903 2.00436,-1.78412103 2.59964,-3.014269 0.009,-0.01969 0.0174,-0.04043 0.0228,-0.06213 0.003,-0.01068 0.003,-0.02159 0.005,-0.03237 8e-4,-0.0093 0.004,-0.01919 0.004,-0.02937 0,-6.98e-4 -1.2e-4,-8.01e-4 0,-9.94e-4 8e-4,-0.01691 -3.4e-4,-0.03354 -0.002,-0.05015 -4.6e-4,-0.005 0,-0.01068 -8.2e-4,-0.01606 -0.002,-0.01342 -0.006,-0.0263 -0.009,-0.03942 -0.005,-0.01969 -0.0125,-0.03882 -0.0216,-0.05694 -0.004,-0.007 -0.006,-0.01647 -0.0107,-0.02409 -0.004,-0.007 -0.009,-0.01266 -0.0139,-0.01938 -0.0115,-0.01658 -0.0243,-0.03203 -0.0387,-0.04645 -0.0107,-0.01068 -0.0204,-0.02092 -0.0322,-0.02977 -0.003,-0.002 -0.007,-0.005 -0.0113,-0.007 -0.0146,-0.0093 -0.0293,-0.01989 -0.0455,-0.02779 -4.6e-4,-1.14e-4 -8e-4,-6.91e-4 -8e-4,-8e-4 -0.005,-0.002 -0.0119,-0.004 -0.0177,-0.006 -0.0139,-0.005 -0.028,-0.01165 -0.043,-0.01563 -0.0125,-0.003 -0.0251,-0.005 -0.0378,-0.006 -0.008,-7.96e-4 -0.0166,-0.004 -0.0254,-0.004 l -0.31327,-0.01959 0.90963,-0.525297 c 0.007,-0.004 0.0135,-0.0092 0.0204,-0.01485 0.005,-0.004 0.0116,-0.007 0.0173,-0.01225 0.0248,-0.01936 0.0468,-0.04096 0.0646,-0.0655 0.002,-0.003 0.004,-0.006 0.006,-0.0093 0.0177,-0.02618 0.0314,-0.05416 0.0408,-0.08382 8.1e-4,-0.002 0.002,-0.004 0.003,-0.007 8e-4,-0.002 8e-4,-0.005 0.002,-0.0083 1.3e-4,-3.36e-4 1.3e-4,-6.8e-4 3.6e-4,-7.96e-4 0.113,-0.38237 0.19867,-0.774134 0.2533,-1.157539 0.25434,-1.54627 0.0274,-2.998262 -0.0476,-3.475266 -0.006,-0.03864 -0.0107,-0.06929 -0.0139,-0.09098 0,-0.002 1.2e-4,-0.005 1.2e-4,-0.0083 0,-0.01265 -0.002,-0.02483 -0.004,-0.03731 -4.7e-4,-0.005 -7e-4,-0.0092 -8.1e-4,-0.01372 -0.002,-0.01687 -0.006,-0.03322 -0.012,-0.04907 -8e-4,-0.004 -0.002,-0.0083 -0.004,-0.01299 -0.005,-0.01509 -0.0123,-0.02937 -0.02,-0.04328 -0.003,-0.005 -0.005,-0.01068 -0.008,-0.01563 -0.007,-0.01214 -0.0158,-0.02339 -0.0249,-0.03438 -0.005,-0.006 -0.009,-0.01244 -0.0151,-0.01832 -0.008,-0.0093 -0.0183,-0.01791 -0.0282,-0.02618 -0.006,-0.005 -0.0135,-0.01185 -0.0208,-0.0172 -0.0107,-0.007 -0.0219,-0.01414 -0.0333,-0.02033 -0.005,-0.004 -0.0107,-0.007 -0.0169,-0.01068 -0.003,-0.002 -0.005,-0.002 -0.008,-0.003 -0.006,-0.002 -0.013,-0.005 -0.0196,-0.007 -0.16298,-0.0658 -0.28085,9.93e-4 -0.59578,0.18702 -0.34792,0.205071 -0.99554,0.586651 -1.9424,1.016572 -0.36292,0.178792 -0.90243,0.400558 -1.47334,0.635232 -0.69226,0.284584 -1.40822,0.57865 -2.00168,0.87054 -0.0929,0.04524 -0.26282,0.128106 -0.62761,1.111257 l -0.0289,-0.128651 c -0.0234,-0.104717 -0.0961,-0.191654 -0.1953,-0.233663 -0.099,-0.04171 -0.21251,-0.03343 -0.30444,0.02273 -0.0255,0.01564 -0.62728,0.383407 -0.93207,0.591146 -0.79337,0.54035 -1.46809,1.210345 -2.00412,1.990007 -0.0504,0.07274 -0.15577,0.224525 -0.10072,1.47212097 l -0.10107,-0.130503 c -0.0751,-0.0968 -0.19762,-0.145484 -0.31876,-0.124766 -0.12136,0.01999 -0.22144,0.104981 -0.26097,0.221046 -0.0181,0.05346 -0.44579,1.315631 -0.53975,1.96718603 -0.25225,1.534486 -0.0284,2.986127 0.0452,3.463426 0.002,0.01214 0.003,0.02099 0.005,0.03163 l -0.81314,1.282179 h -1.05937 c -0.18403,0 -0.33328,0.148713 -0.33328,0.331794 0,0.183085 0.14925,0.3318 0.33328,0.3318 z m 2.48096,-5.340006 c 0.0474,-0.327866 0.19565,-0.85062403 0.32059,-1.25799403 l 0.37863,0.489085 c 0.0899,0.116433 0.24598,0.15994903 0.38363,0.107167 0.13766,-0.05284 0.22413,-0.189336 0.21262,-0.335484 -0.0686,-0.872395 -0.11029,-1.92461997 -0.0622,-2.16395197 0.48651,-0.699356 1.0953,-1.300481 1.80985,-1.787004 0.13229,-0.08999 0.32979,-0.216055 0.50651,-0.326808 l 0.18796,0.843334 c 0.0328,0.146984 0.16101,0.253688 0.31236,0.259702 0.15111,0.006 0.28747,-0.09019 0.33175,-0.234482 0.23587,-0.766482 0.56879,-1.67822 0.70923,-1.877503 0.5666,-0.276122 1.25422,-0.558608 1.91984,-0.832217 0.58183,-0.239103 1.13146,-0.465005 1.50517,-0.649367 0.86863,-0.394409 1.49285,-0.749937 1.87172,-0.971925 0.0848,0.617304 0.19611,1.758644 -1.3e-4,2.952764 -0.0457,0.319166 -0.11413,0.639416 -0.20168,0.954213 l -1.74371,1.007078 c -0.0554,0.03205 -0.0969,0.07776 -0.12522,0.129965 -0.002,0.003 -0.004,0.006 -0.006,0.0093 -0.006,0.01363 -0.0113,0.02799 -0.0162,0.04211 -0.002,0.006 -0.005,0.01224 -0.007,0.01885 -0.005,0.02108 -0.009,0.04253 -0.0107,0.06454 0,1.23e-4 -1.3e-4,4.48e-4 -1.3e-4,6.98e-4 -3.5e-4,0.005 7.1e-4,0.0083 4.7e-4,0.01332 -3.4e-4,0.01731 -3.4e-4,0.03446 0.002,0.05178 8.1e-4,0.01068 0.004,0.02061 0.007,0.03094 0.002,0.01068 0.004,0.02159 0.007,0.03205 0.005,0.01647 0.0134,0.03163 0.0215,0.04697 0.002,0.004 0.003,0.0083 0.005,0.01215 1.2e-4,1.27e-4 1.2e-4,3.64e-4 3.5e-4,4.72e-4 0.0135,0.02294 0.0303,0.04348 0.0488,0.06255 0.005,0.005 0.0113,0.01068 0.0173,0.01606 0.0145,0.01299 0.03,0.02449 0.0466,0.03478 0.006,0.004 0.0117,0.007 0.0178,0.01068 0.0227,0.01214 0.0465,0.02222 0.072,0.02905 0.002,6.99e-4 0.005,6.99e-4 0.007,0.002 0.0185,0.004 0.0373,0.0083 0.0572,0.0093 l 0.89744,0.05582 c -0.53008,0.92699797 -1.24827,1.70379097 -2.14164,2.31266597 -0.23902,0.162954 -0.49732,0.32796803 -0.80711,0.51615803 -0.21704,0.05168 -1.29094,0.114469 -2.19384,0.144544 -0.13647,0.005 -0.25633,0.09147 -0.30247,0.219554 -0.0462,0.127885 -0.009,0.27092 0.0931,0.361097 l 0.3376,0.296852 c -0.67461,0.255661 -1.83825,0.708167 -2.49224,1.029315 -0.38386,0.174872 -0.7246,0.357485 -1.02427,0.533058 l 0.52308,-0.773799 c 0.0817,-0.129281 0.16482,-0.257508 0.24992,-0.38424 0.10221,-0.152412 0.0608,-0.358543 -0.0922,-0.46025 -0.15311,-0.101753 -0.36016,-0.06032 -0.46231,0.09177 -0.0884,0.131935 -0.17484,0.265141 -0.254,0.390614 l -0.96622,1.430274 c -0.0672,-0.648578 -0.11205,-1.58841 0.0474,-2.558369 z"
       id="path83-5-5"
       style="fill:#262727;fill-opacity:1;stroke-width:0.0296933" />
    <path
       d="m -125.63339,6.3065879 c -0.18403,0 -0.33328,0.148716 -0.33328,0.331797 0,0.1832 0.14938,0.331786 0.33328,0.331786 h 2.72823 c 0.18402,0 0.33326,-0.148701 0.33326,-0.331786 0,-0.183219 -0.14938,-0.331797 -0.33326,-0.331797 z"
       id="path85-6-3"
       style="fill:#262727;fill-opacity:1;stroke-width:0.0296933" />
  </g>
</svg>
