<svg width="32" height="32" version="1.1" viewBox="0 0 32 32" xmlns="http://www.w3.org/2000/svg">
<defs>
<style id="current-color-scheme" type="text/css">.ColorScheme-Highlight {
        color:#3daee9;
      }</style>
<linearGradient id="linearGradient6218" x1="408.33" x2="437.79" y1="555.74" y2="492.4" gradientTransform="matrix(1.0006 0 0 .85094 -.23613 72.315)" gradientUnits="userSpaceOnUse">
<stop style="stop-color:#353a3f;stop-opacity:.99608" offset="0"/>
<stop style="stop-color:#272727;stop-opacity:.98876" offset="1"/>
</linearGradient>
<linearGradient id="linearGradient850" x1="392.59" x2="420.29" y1="501.23" y2="503.48" gradientUnits="userSpaceOnUse">
<stop style="stop-color:#444647" offset="0"/>
<stop style="stop-color:#696969;stop-opacity:.42697" offset="1"/>
</linearGradient>
<radialGradient id="radialGradient6178-3" cx="397.99" cy="485.79" r="11.249" gradientTransform="matrix(-.00010706 .04847 -1.0235 -.0023723 538.49 -12.448)" gradientUnits="userSpaceOnUse">
<stop style="stop-color:#d8dbd8" offset="0"/>
<stop style="stop-color:#272727;stop-opacity:.98876" offset="1"/>
</radialGradient>
<linearGradient id="linearGradient2676" x1="406.46" x2="414.47" y1="539.62" y2="506.87" gradientUnits="userSpaceOnUse">
<stop style="stop-color:#1a1b1b" offset="0"/>
<stop style="stop-color:#474747" offset="1"/>
</linearGradient>
<linearGradient id="linearGradient2684" x1="395.58" x2="404.77" y1="530.01" y2="505.63" gradientUnits="userSpaceOnUse">
<stop offset="0"/>
<stop style="stop-color:#c3c3c3;stop-opacity:0" offset="1"/>
</linearGradient>
<linearGradient id="linearGradient25029" x1="12.021" x2="12.012" y1="7.2813" y2="-.72563" gradientUnits="userSpaceOnUse">
<stop style="stop-color:#4f5152" offset="0"/>
<stop style="stop-color:#010501" offset="1"/>
</linearGradient>
<linearGradient id="linearGradient25155" x1="21.812" x2="4.0043" y1="3.9336" y2="4" gradientUnits="userSpaceOnUse">
<stop style="stop-color:#1b1b1b" offset="0"/>
<stop style="stop-color:#090909;stop-opacity:.24541" offset=".49971"/>
<stop style="stop-color:#010101;stop-opacity:.23889" offset=".813"/>
<stop style="stop-opacity:.87011" offset="1"/>
</linearGradient>
</defs>
<path transform="matrix(.48869 0 0 .49779 -187.85 -240.96)" d="m386.9 524.24v-36.16s0.048-1.7187 1.589-1.7187c0 0 20.043-0.0286 20.354 0l5.0939 3.7249 25.709 3e-3c6.1389 0 6.1389 6.0266 6.1389 6.0266v28.124" style="fill:none;stroke-width:.7;stroke:#000"/>
<path transform="matrix(.48976 0 0 .49791 -187.87 -240.89)" d="m387.68 485.81c-1.5856 0-1.5856 2.0084-1.5856 2.0084v40.168h58.756s1e-5 -19.324 0-32.134c0-6.0252-6.373-6.5882-6.373-6.5882l-25.913-0.15436-3.6307-2.6818c-0.53156-0.39081-0.96613-0.61766-1.681-0.61766z" style="fill:url(#linearGradient6218);stroke-linecap:round;stroke-linejoin:bevel;stroke-width:.50828;stroke:#000a00"/>
<path transform="matrix(.49143 0 0 .31854 -188.93 -153.06)" d="m387.05 540.32 0.076-50.366 20.402 0.0901 1.3397-3.2606 3.3565 3.7108h27.167c5.4168 0 5.4168 8.3559 5.4168 8.3559v28.254" style="fill:none;stroke-width:1px;stroke:url(#linearGradient850)"/>
<path transform="matrix(.5 0 0 .5 -.0021617 5.801e-7)" d="m28.004 5.2857v0.73421s17.353-0.056939 26-9e-7l1.5964 0.14159s-0.99131-0.71696-1.8388-0.7221z" style="fill:url(#radialGradient6178-3);stroke-width:.6659"/>
<path transform="matrix(.49017 0 0 .54047 -188.09 -264.07)" d="m385.76 501.54v37.005s0 5.5507 6.1203 5.5507c0 0 40.125 1e-3 48.963 0 6.1203-6.5e-4 6.1203-5.5507 6.1203-5.5507 4.6e-4 -8.0121 0-29.604 0-29.604s0-1.8502-2.0401-1.8502c0 0-20 0-27.389-3.7005-3.8944-1.9502-6.2195-3.2282-8.2026-3.2282h-21.573c-2.0401 0-1.9979 1.3779-1.9979 1.3779z" style="fill:none;stroke-linejoin:round;stroke-width:1.2969;stroke:#000"/>
<path transform="matrix(.49017 0 0 .49893 -187.96 -241.91)" d="m385.21 538.76s0.26767 6.2213 6.4045 6.2213c9.658 1e-3 40.126 0 48.963 0 6.1203 0 6.1203-6.0129 6.1203-6.0129v-32.069c0-2.0043-2.0401-2.0043-2.0401-2.0043s-21.191 0.0116-28.562-4.0086c-5.6203-3.0656-6.1203-4.0086-8.1604-4.0086h-20.401c-2.0401 0-2.0401 2.0043-2.0401 2.0043z" style="fill:url(#linearGradient2676);stroke-linejoin:round;stroke-width:1.2969;stroke:url(#linearGradient2684)"/>
<g transform="matrix(.021111 0 0 .021018 1.9685 14.782)" style="fill:#646464">
<path d="m350 26.25c-44.543 0-88.301 11.723-126.88 33.996-38.574 22.27-70.609 54.305-92.879 92.879s-33.996 82.332-33.996 126.88c0 67.297 26.734 131.84 74.32 179.43 47.59 47.586 112.13 74.32 179.43 74.32s131.84-26.734 179.43-74.32c47.586-47.59 74.32-112.13 74.32-179.43 0-44.543-11.723-88.301-33.996-126.88-22.27-38.574-54.305-70.609-92.879-92.879-38.574-22.273-82.332-33.996-126.88-33.996zm8.75 41.766c12.57 0.52734 25.141 2.2891 37.633 5.0938 7.6404 1.9066 10.853 2.6571 16.918 4.5467 2.7539 0.85938 5.5352 1.6055 8.2695 2.5977 9.3203 3.3398 18.254 7.3555 26.832 11.863l-19.961 34.555c-6.4219-3.3945-13.07-6.4883-20.027-9.0586-16.246-6.0039-32.98-9.3242-49.664-10.184zm-17.5 0.26562v39.203c-24.34 1.2773-48.152 7.7891-69.727 19.141l-19.789-34.316c11.262-5.8867 22.863-11.059 34.934-14.832 4.8175-1.5029 9.0571-2.4516 16.984-4.2738 12.34-2.7656 24.895-4.3906 37.598-4.9219zm122.29 32.609c10.762 6.8555 20.719 14.699 29.941 23.273 5.3836 5.133 8.049 8.013 12.309 12.477 8.5078 9.3516 16.234 19.367 22.934 30.078l-35.238 20.336h-4e-3c-0.21875 0.125-0.4375 0.25781-0.64453 0.39844-12.43-20.48-29.172-38.199-49.355-51.781zm-227.02 0.19922 19.996 34.59c-13.578 9.0586-26.02 20.113-36.742 33.188-4.832 5.8945-9.1211 12.07-13.023 18.422-0.082-0.0664-0.16406-0.13281-0.24609-0.19922l-35.648-20.609c4.9023-7.7539 10.266-15.301 16.27-22.488 2.207-2.6445 4.6953-4.9414 7.0078-7.4531 4.9752-5.5234 8.0792-8.4669 12.234-12.507 9.4062-8.668 19.527-16.273 30.148-23.004zm113.48 56.5 25.977 151.62v-4e-3c5.7891 6.4141 9.0039 14.738 9.0234 23.379 0 9.2812-3.6875 18.184-10.25 24.75-6.5664 6.5625-15.469 10.25-24.75 10.25s-18.184-3.6875-24.75-10.25c-6.5625-6.5664-10.25-15.469-10.25-24.75 0.0195-8.6406 3.2344-16.965 9.0234-23.379zm-187.89 24.133 35.648 20.574v-4e-3c0.1875 0.11719 0.38281 0.22656 0.57812 0.33203-10.398 21.785-15.793 45.375-16.168 69.145-0.93359-0.31641-1.918-0.47266-2.9062-0.46094h-40.672c0.4375-12.633 2.0547-25.203 4.75-37.562 1.5238-6.5415 2.4514-10.055 4.4095-16.922 3.6992-12.043 8.4609-23.812 14.355-35.137zm375.29 0.26562c5.7656 11.164 10.441 22.906 14.184 35.035 1.6934 6.4096 3.3176 12.275 4.4809 16.91 2.7383 12.387 4.5508 25.07 5.0586 38.043l-43.648 0.52734c-0.48828-24.602-6.3164-48.242-16.441-69.625v4e-3c0.41016-0.16797 0.80859-0.36719 1.1914-0.59766zm-354.65 106.16c1.9453 23.918 8.9102 47.633 21.09 69.418l-39.992 22.457c-6.3828-11.906-11.434-24.262-15.414-36.844-2.6861-8.8822-2.7659-10.58-4.5787-16.902-2.8281-12.379-4.6367-24.898-5.2305-37.461h40.641c1.1953 0.0156 2.3828-0.21875 3.4844-0.67969z" style="fill:#646464"/>
<path d="m358.75 332.5c0 4.8359-3.918 8.75-8.75 8.75s-8.75-3.9141-8.75-8.75c0-4.832 3.918-8.75 8.75-8.75s8.75 3.918 8.75 8.75z" style="fill:#646464"/>
</g>
<path class="ColorScheme-Highlight" transform="matrix(.5 0 0 .5 -.0021617 5.801e-7)" d="m2.4512 4 2.2e-6 2h19.553v-3.7118l-17.553-2.4e-6c-2 2.4e-6 -2 1.7118-2 1.7118z" style="fill:currentColor;mix-blend-mode:normal"/>
<path transform="matrix(.5 0 0 .5 -.0021617 5.801e-7)" d="m4.4512 2.2432c-2 0-2 1.2466-2 1.7561v2.0205h19.553s2.0889-2.7012 2-3.2256c-0.27723-0.50911-1.4378-0.55108-2-0.55108z" style="color:#3daee9;fill:url(#linearGradient25155);stroke-width:.69;stroke:url(#linearGradient25029)"/>
<path transform="matrix(.5 0 0 .5 -.0021617 5.801e-7)" d="m4.4512 2.7797c-2 0-2 1.2466-2 1.7561v1.4841h19.719s1.1866-1.7212 1.8344-2.7354c-0.33138-0.41002-1.4378-0.50478-2-0.50478z" style="color:#3daee9;fill:none;stroke-width:.69;stroke:url(#linearGradient25029)"/>
</svg>
