<?xml version="1.0" encoding="UTF-8" standalone="no"?>
<svg
   viewBox="0 0 32 32"
   version="1.1"
   id="svg12"
   width="32"
   height="32"
   xmlns:xlink="http://www.w3.org/1999/xlink"
   xmlns="http://www.w3.org/2000/svg"
   xmlns:svg="http://www.w3.org/2000/svg">
  <defs
     id="defs3051">
    <linearGradient
       id="linearGradient25153">
      <stop
         style="stop-color:#1b1b1b;stop-opacity:1"
         offset="0"
         id="stop25149" />
      <stop
         style="stop-color:#090909;stop-opacity:0.24540505"
         offset="0.49971318"
         id="stop1797" />
      <stop
         style="stop-color:#010101;stop-opacity:0.23888743"
         offset="0.9430303"
         id="stop2247" />
      <stop
         style="stop-color:#000000;stop-opacity:0.8012926"
         offset="1"
         id="stop25151" />
    </linearGradient>
    <linearGradient
       id="linearGradient14607">
      <stop
         style="stop-color:#4f5152;stop-opacity:1"
         offset="0"
         id="stop14603" />
      <stop
         style="stop-color:#010501;stop-opacity:1"
         offset="1"
         id="stop14605" />
    </linearGradient>
    <style
       type="text/css"
       id="current-color-scheme">
      .ColorScheme-Highlight {
        color:#3daee9;
      }
      </style>
    <filter
       height="1.0449693"
       y="-0.026935052"
       width="1.0344187"
       x="-0.017208866"
       id="filter940"
       style="color-interpolation-filters:sRGB">
      <feGaussianBlur
         id="feGaussianBlur942"
         stdDeviation="0.28795822" />
    </filter>
    <linearGradient
       gradientTransform="matrix(1.0005668,0,0,0.8509446,-0.23612742,72.315207)"
       gradientUnits="userSpaceOnUse"
       y2="492.39743"
       x2="437.78555"
       y1="555.7431"
       x1="408.33118"
       id="linearGradient6218"
       xlink:href="#linearGradient42869" />
    <linearGradient
       id="linearGradient42869">
      <stop
         style="stop-color:#353a3f;stop-opacity:0.99607843"
         offset="0"
         id="stop42865" />
      <stop
         style="stop-color:#272727;stop-opacity:0.98876405"
         offset="1"
         id="stop42867" />
    </linearGradient>
    <filter
       height="1.0667278"
       y="-0.033363852"
       width="1.0561312"
       x="-0.028065609"
       id="filter2714"
       style="color-interpolation-filters:sRGB">
      <feGaussianBlur
         id="feGaussianBlur2716"
         stdDeviation="0.56332734" />
    </filter>
    <linearGradient
       gradientUnits="userSpaceOnUse"
       y2="539.64374"
       x2="414.83517"
       y1="501.65286"
       x1="415.07861"
       id="linearGradient850"
       xlink:href="#linearGradient848" />
    <linearGradient
       id="linearGradient848">
      <stop
         id="stop844"
         offset="0"
         style="stop-color:#57595a;stop-opacity:0.99607843" />
      <stop
         id="stop846"
         offset="1"
         style="stop-color:#000000;stop-opacity:0.42696628" />
    </linearGradient>
    <filter
       height="1.03215"
       y="-0.025901777"
       width="1.0283593"
       x="-0.01417968"
       id="filter2706"
       style="color-interpolation-filters:sRGB">
      <feGaussianBlur
         id="feGaussianBlur2708"
         stdDeviation="0.140357" />
    </filter>
    <radialGradient
       gradientUnits="userSpaceOnUse"
       gradientTransform="matrix(-1.0705868e-4,0.04846987,-1.0235483,-0.0023723,538.49225,-12.44815)"
       r="11.24949"
       fy="485.79099"
       fx="397.99051"
       cy="485.79099"
       cx="397.99051"
       id="radialGradient6178-3"
       xlink:href="#linearGradient880" />
    <linearGradient
       id="linearGradient880">
      <stop
         style="stop-color:#d8dbd8;stop-opacity:1"
         offset="0"
         id="stop876" />
      <stop
         style="stop-color:#272727;stop-opacity:0.98876405"
         offset="1"
         id="stop878" />
    </linearGradient>
    <filter
       height="1.0707442"
       y="-0.035372174"
       width="1.0508627"
       x="-0.025431326"
       id="filter1073"
       style="color-interpolation-filters:sRGB">
      <feGaussianBlur
         id="feGaussianBlur1075"
         stdDeviation="0.39283137" />
    </filter>
    <linearGradient
       gradientUnits="userSpaceOnUse"
       y2="506.87347"
       x2="414.47186"
       y1="539.61627"
       x1="406.45694"
       id="linearGradient2676"
       xlink:href="#linearGradient2668" />
    <linearGradient
       id="linearGradient2668">
      <stop
         id="stop2664"
         offset="0"
         style="stop-color:#1a1b1b;stop-opacity:1" />
      <stop
         id="stop2666"
         offset="1"
         style="stop-color:#474747;stop-opacity:1" />
    </linearGradient>
    <linearGradient
       gradientUnits="userSpaceOnUse"
       y2="505.62521"
       x2="404.77097"
       y1="530.01428"
       x1="395.58017"
       id="linearGradient2684"
       xlink:href="#linearGradient2682" />
    <linearGradient
       id="linearGradient2682">
      <stop
         id="stop2678"
         offset="0"
         style="stop-color:#000000;stop-opacity:1;" />
      <stop
         id="stop2680"
         offset="1"
         style="stop-color:#c3c3c3;stop-opacity:0" />
    </linearGradient>
    <filter
       height="1.0397525"
       y="-0.019876304"
       width="1.0307531"
       x="-0.015376566"
       id="filter2690"
       style="color-interpolation-filters:sRGB">
      <feGaussianBlur
         id="feGaussianBlur2692"
         stdDeviation="0.13069192" />
    </filter>
    <filter
       style="color-interpolation-filters:sRGB"
       id="filter24684"
       x="-0.024959943"
       y="-0.15409672"
       width="1.0499199"
       height="1.3081934">
      <feGaussianBlur
         stdDeviation="0.21554955"
         id="feGaussianBlur24686" />
    </filter>
    <linearGradient
       xlink:href="#linearGradient14607"
       id="linearGradient25029"
       gradientUnits="userSpaceOnUse"
       x1="12.020759"
       y1="7.2813473"
       x2="12.011944"
       y2="-0.7256338" />
    <linearGradient
       xlink:href="#linearGradient25153"
       id="linearGradient25155"
       x1="21.812489"
       y1="3.9335968"
       x2="4.6537294"
       y2="4.034317"
       gradientUnits="userSpaceOnUse" />
    <filter
       style="color-interpolation-filters:sRGB"
       id="filter30328"
       x="-0.060622242"
       y="-0.37427998"
       width="1.121405"
       height="1.7485472">
      <feGaussianBlur
         stdDeviation="0.2547727"
         id="feGaussianBlur30330" />
    </filter>
  </defs>
  <path
     transform="matrix(0.48868956,0,0,0.49778956,-187.84518,-240.95703)"
     id="path6220-2"
     d="m 386.25703,524.61791 0.77838,-38.71157 22.03057,0.10242 3.50545,3.40716 c 0,0 18.10956,0.35097 27.33843,0.35097 2.88877,0 6.71919,2.18928 6.71919,7.16894 0,13.1364 0.12174,26.49022 0.12174,26.49022"
     style="display:inline;fill:none;fill-opacity:1;stroke:#000000;stroke-width:0.7;stroke-linecap:butt;stroke-linejoin:miter;stroke-miterlimit:4;stroke-dasharray:none;stroke-opacity:1;filter:url(#filter940)" />
  <path
     transform="matrix(0.48975606,0,0,0.49790856,-187.87368,-240.88503)"
     d="m 386.39384,486.19622 c 0,0 -0.10293,36.25523 -0.10293,49.28612 0,1.03908 0.48232,1.87652 1.08144,1.87652 h 58.39816 c 0.59911,0 1.34832,-0.83745 1.34161,-1.87652 0,0 -0.0268,-27.28049 -0.0268,-40.09035 0,-3.00572 -3.75125,-6.05898 -6.82146,-6.05898 -9.03444,0 -27.69471,-0.22684 -27.69471,-0.22684 l -4.13226,-2.8228 z"
     id="rect4180"
     style="display:inline;fill:url(#linearGradient6218);fill-opacity:1;stroke:#000a00;stroke-width:0.71;stroke-linecap:round;stroke-linejoin:bevel;stroke-miterlimit:4;stroke-dasharray:none;stroke-opacity:1;filter:url(#filter2714)" />
  <path
     transform="matrix(0.49142706,0,0,0.31854304,-188.92768,-153.06402)"
     id="path6220"
     d="m 387.04904,540.31904 0.076,-50.36617 20.73641,0.0901 1.41588,-3.75705 2.94655,4.20719 c 0,0 17.40991,0.34184 27.40616,0.34184 3.61218,0 6.32049,4.0507 6.32049,8.9451 0,12.76833 0.1165,38.20486 0.1165,38.20486"
     style="display:inline;fill:none;fill-opacity:1;stroke:url(#linearGradient850);stroke-width:1px;stroke-linecap:butt;stroke-linejoin:miter;stroke-opacity:1;filter:url(#filter2706)" />
  <path
     d="m 27.921427,5.4393704 v 0.380281 h 0.44553 l 25.49468,0.167876 h 0.44553 l -0.5452,-0.548167 h -0.44553 -24.94948 z"
     id="path4151-2-3-5"
     style="display:inline;fill:url(#radialGradient6178-3);fill-opacity:1;stroke-width:0.665905"
     transform="matrix(0.50000006,0,0,0.50000006,-0.0021617,5.8009813e-7)" />
  <path
     transform="matrix(0.49016606,0,0,0.54046506,-188.09068,-264.06703)"
     style="display:inline;fill:none;fill-opacity:1;stroke:#000000;stroke-width:1.29693;stroke-linejoin:round;stroke-miterlimit:4;stroke-dasharray:none;stroke-opacity:1;filter:url(#filter1073)"
     id="path952"
     d="m 385.15633,501.64377 c 0,13.8136 0.0547,36.33599 0.0547,39.23108 0,2.8951 4.24366,4.43675 7.16501,4.43675 9.65801,10e-4 39.7482,-0.008 48.58578,-0.009 2.73024,-2.9e-4 6.73958,-3.06897 6.73961,-5.5723 4.6e-4,-8.01206 0.0257,-31.8933 0.0257,-31.8933 -21.39075,-0.31416 -23.00468,-0.49626 -28.48106,-3.68616 -5.47637,-3.18989 -6.84254,-3.7889 -8.06758,-3.79572 -8.19718,-0.0456 -25.32423,-0.0254 -25.32423,-0.0254 0,0 -0.68932,-0.094 -0.698,1.31379 z" />
  <path
     transform="matrix(0.49016606,0,0,0.49892856,-187.95768,-241.91303)"
     style="display:inline;fill:url(#linearGradient2676);fill-opacity:1;stroke:url(#linearGradient2684);stroke-width:1.29693;stroke-linejoin:round;stroke-miterlimit:4;stroke-dasharray:none;stroke-opacity:1;filter:url(#filter2690)"
     id="path952-7"
     d="m 385.15633,498.35321 c 0,13.8136 0.0547,28.03631 0.0547,40.41503 0,6.52543 4.5187,6.67224 7.29021,6.67224 9.65801,10e-4 38.73653,0 47.57411,0 4.29557,0 7.62608,-4.19689 7.62608,-7.71933 4.6e-4,-8.01206 0.0257,-32.38987 0.0257,-32.38987 -22.81136,0 -23.57647,-0.13663 -31.18143,-4.28484 -5.62028,-3.06564 -5.63216,-3.98161 -7.35295,-3.98161 -8.19718,-0.0456 -23.33849,-0.0254 -23.33849,-0.0254 0,0 -0.68932,-0.094 -0.698,1.31379 z" />
  <path
     style="display:inline;mix-blend-mode:normal;fill:currentColor;stroke:none;stroke-width:0.390115;stroke-miterlimit:4;stroke-dasharray:none;filter:url(#filter24684)"
     d="M 3.1185124,2.3943988 C 2.9060465,2.5755409 2.8406898,2.662737 2.8406898,3.1723004 c 0,0.7470828 0.00654,2.4587688 0.00654,2.4587688 H 22.075746 l 0.993727,-1.6353471 c 0,0 0.682408,-0.9793708 0.44826,-1.410869 -0.123324,-0.2272669 -0.513311,-0.2662912 -1.075516,-0.2662912 -0.820732,0 -18.1692197,-0.041813 -18.4326201,-0.041813 0,0 -0.7160982,-0.031538 -0.8910845,0.1176499 z"
     class="ColorScheme-Highlight"
     id="path4"
     transform="matrix(0.50000006,0,0,0.50000006,-0.0021617,5.8009813e-7)" />
  <path
     style="color:#3daee9;display:inline;fill:url(#linearGradient25155);fill-opacity:1;stroke:url(#linearGradient25029);stroke-width:1.29;stroke-miterlimit:4;stroke-dasharray:none;filter:url(#filter30328)"
     d="M 3.1185124,2.3943988 C 2.9060465,2.5755409 2.8406898,2.662737 2.8406898,3.1723004 c 0,0.7470828 0.00654,2.4587688 0.00654,2.4587688 H 22.075746 l 0.993727,-1.6353471 c 0,0 0.682408,-0.9793708 0.44826,-1.410869 -0.123324,-0.2272669 -0.513311,-0.2662912 -1.075516,-0.2662912 -0.820732,0 -18.1692197,-0.041813 -18.4326201,-0.041813 0,0 -0.7160982,-0.031538 -0.8910845,0.1176499 z"
     id="path4-0"
     transform="matrix(0.50000006,0,0,0.50000006,-0.0021617,5.8009813e-7)" />
  <path
     style="color:#232629;display:inline;fill:#646464;fill-opacity:1;stroke:none;stroke-width:0.534511"
     d="m 9.4404729,16.555564 c -0.2142766,0 -0.374984,0 -0.5356915,0 -0.374984,0.05333 -0.7499681,0.106667 -1.071383,0.213334 -1.6606436,0.533333 -2.9998725,1.866668 -3.535564,3.520003 -0.1071383,0.320001 -0.1607075,0.693334 -0.2142766,1.066668 0,0.16 0,0.32 0,0.533334 0,0.16 0,0.373334 0,0.533334 0.053569,0.373334 0.1071383,0.693334 0.2142766,1.066668 0.5356915,1.653335 1.8749204,2.98667 3.535564,3.520003 0.3214149,0.05333 0.696399,0.160001 1.071383,0.160001 0.1607075,0.05333 0.3214149,0.05333 0.5356915,0.05333 0.1607074,0 0.374984,0 0.5356915,-0.05333 0.3749836,0 0.6963986,-0.106667 1.0713826,-0.160001 0.321415,-0.106666 0.64283,-0.266667 0.964245,-0.426667 1.178521,-0.693334 2.142766,-1.760002 2.571319,-3.093336 0.05357,-0.373334 0.160708,-0.693334 0.160708,-1.066668 0.05357,-0.16 0.05357,-0.373334 0.05357,-0.533334 0,-0.213334 0,-0.373334 -0.05357,-0.533334 0,-0.373334 -0.107139,-0.746667 -0.160708,-1.066668 -0.214276,-0.64 -0.58926,-1.280001 -1.0071,-1.813335 -0.117852,-0.106667 -0.22499,-0.213334 -0.385698,-0.373334 -0.428553,-0.48 -1.017813,-0.853334 -1.660643,-1.120001 -0.160708,-0.05333 -0.321415,-0.16 -0.482123,-0.213333 -0.374984,-0.106667 -0.696399,-0.160001 -1.0713826,-0.213334 -0.1607075,0 -0.3749841,0 -0.5356915,0 z m 0,0.533334 c 0.8035371,0 1.5535051,0.213333 2.2499041,0.533334 0,0 0,0.05333 0.05357,0.048 0,0.0053 0,0.05867 0.02143,0.05867 0.03214,0 0.03214,0 0.03214,0.02667 0.05357,0.02667 0.05357,0.02667 0.05357,0.06667 0,0.01333 -0.05357,0.01333 -0.08571,0.06667 -0.02143,0.05333 -0.02143,0.05333 -0.02143,0.08533 0,0.02133 0,0.02133 0.02143,0.048 -0.02143,0.02667 -0.02143,0.02667 -0.02143,0.08 0.05357,0.05333 0.107139,0 0.160708,0 0.107138,-0.05333 0.160707,0 0.214276,-0.05333 0,-0.05333 0.05357,-0.05333 0.08571,-0.106667 0.02143,0.05333 0.075,0.05333 0.09642,0.106667 -0.02143,0 -0.075,0 -0.075,0.02133 -0.05357,0.032 -0.05357,0.032 -0.107139,0.08533 0,0 0,0.048 -0.05357,0.048 -0.05357,0 -0.107138,-0.048 -0.112495,-0.048 -0.04821,0.05333 -0.04821,0.05333 -0.05357,0.106666 -0.04821,0.01659 -0.155351,-0.05333 -0.198206,0.02667 0.04285,0.05525 0.09642,0.02667 0.149994,0.06667 0.05357,0.01941 0.107138,0.12 0.101781,0.152 0.0054,0.02515 0.0054,0.128 0,0.128 -0.03155,0.106667 -0.112629,0.05333 -0.202224,0.05333 -0.02437,0 -0.06026,0.05333 -0.06026,0 -0.160707,0 -0.321415,0 -0.374984,0.08533 0.0048,0.07467 0,0.128 0,0.181334 -0.01361,0.05333 -0.05357,0.106666 -0.06696,0.16 0.0011,0 0.06696,0.05333 0.06696,0.106666 0,0 -0.05357,0 -0.01661,0.048 0.0252,0.05867 0.07017,-0.0057 0.134458,0 0.04232,0.0053 0.09642,0.05867 0.09642,0.112 0,0.04059 -0.05357,0.106666 -0.05357,0.16 -0.03616,0.04397 -0.107139,0 -0.177314,0.064 -0.03696,0.0284 -0.09053,0.096 -0.09053,0.149333 -0.05357,0.05333 -0.107138,0.05333 -0.05357,0.160001 -0.05052,0.05333 -0.107139,0.106666 -0.192849,0.16 -0.02143,0 -0.075,0.05333 -0.08035,0.064 -0.04821,0.01288 -0.04821,0.04267 -0.04821,0.064 -0.05357,0.03981 -0.102028,0.08533 -0.120531,0.08533 -0.01366,0.02229 0.01339,0.05333 -0.01875,0.106667 -0.02143,0 -0.075,0.05333 -0.075,0.106667 -0.01934,0 -0.04331,0.05333 -0.05893,0.05333 -0.04821,0.07289 -0.04821,0.106667 -0.04821,0.16 0,0.05419 0.05357,0.05333 0.04821,0.106667 0.0054,0.02325 -0.04821,0.05333 -0.04821,0.06667 0,0.04 0.05357,0.04 0.04821,0.09333 0.0054,0.05333 -0.03461,0.106667 -0.04821,0.160001 -0.0068,0.0033 0.0058,0.02825 0,0.048 -0.01168,0.03456 -0.06599,0.05602 -0.05357,0.112 -0.01446,0.01675 0.05357,0.04404 0.05357,0.05333 -0.0146,0.0624 -0.03932,0.08953 -0.05357,0.117334 0.0308,0.05171 0.129851,0.125285 0.171421,0.149333 0.05484,0.07193 0.108911,0.108501 0.133387,0.16 0.01661,0.05611 0.02887,0.136496 0.06482,0.173334 0.03024,0.02715 0.08316,0.03858 0.112495,0.06667 0.04077,0.02619 0.08784,0.03854 0.107138,0.06667 0.07615,0.04656 0.156631,0.140123 0.25124,0.12 0.04952,0.0096 0.09502,-0.01035 0.150529,0 0.05746,-0.02971 0.133923,-0.05333 0.182135,-0.05333 0.05893,0.0048 0.05893,0.03627 0.133923,0.05333 0.0507,-0.02267 0.113904,-0.04579 0.171421,-0.06987 0.09441,-0.04184 0.242781,-0.143467 0.38302,-0.09013 0.12053,0 0.12053,0.125835 0.184813,0.16 0.08503,0.02107 0.148783,-0.0031 0.216955,0 0.05164,0.02592 0.112313,0.122624 0.115174,0.163201 0.0068,0.05013 -0.02143,0.05013 -0.02143,0.09813 -0.02365,0.05822 -0.03383,0.1328 -0.04285,0.168533 -0.0084,0.02824 -0.01837,0.05535 -0.01071,0.103467 0,0.0052 0.03394,0.06371 0.06026,0.106667 0.04687,0 0.07823,0.06208 0.100443,0.106667 0.08784,0.08142 0.117734,0.192395 0.160707,0.32 0.01934,0.0071 -0.005,0.01273 0,0.048 -0.01473,0.161526 -0.07032,0.268363 -0.177314,0.432001 -0.03696,0.07483 -0.101551,0.143968 -0.09053,0.216533 -0.01379,0.174619 0.08145,0.264795 0.05357,0.434134 0.0026,0.226166 0.02092,0.261499 0.0032,0.362667 0.07707,0.05877 0.03927,0.172875 -0.0032,0.266667 -0.01302,0.08263 -0.04511,0.106021 -0.05357,0.170667 0.0299,0.01653 0.06337,0.02084 0.107139,0.016 -0.876124,0.907958 -2.116715,1.466668 -3.4819951,1.466668 -0.6390794,0 -1.2498379,-0.125178 -1.8213511,-0.352 0.011517,0.0012 0.015262,-0.01391 0,-0.01467 0.064015,-0.02133 0.1605307,0.03744 0.1976702,-0.03333 0.018401,-0.03392 -0.024508,-0.0994 0,-0.133334 0.017383,-0.02325 0.131239,-0.04419 0.1773139,-0.05013 0.041596,-0.0086 0.094662,0.0019 0.1071383,-0.0032 0.048882,-0.03371 0.089546,-0.08657 0.085711,-0.16 -0.00466,-0.01477 -0.029892,-0.02814 -0.032141,-0.05333 -0.03857,-0.02133 -0.024187,-0.04727 -0.053569,-0.06667 -0.00662,-0.03392 -0.040482,-0.05053 -0.050355,-0.09333 0.070256,-0.02021 0.1666964,0.07146 0.2678457,0.05333 0.047864,-0.0236 0.1283945,-0.115413 0.1574933,-0.16 1.071e-4,-0.0136 -0.014464,-0.06683 0,-0.08533 0.00209,-0.0164 0.023838,-0.02168 0.026785,-0.02133 0.0068,-0.03619 -0.00584,-0.04357 0,-0.05867 0.017517,-0.05077 0.07122,-0.08213 0.080354,-0.117867 0.04248,-0.02728 0.06657,-0.05536 0.1071383,-0.08347 0.00327,-0.03008 0.014598,-0.04045 0.032141,-0.06 0.012616,-0.09488 -0.056917,-0.162453 -0.037498,-0.24 0.025365,-0.08724 0.1516489,-0.14359 0.2196335,-0.183467 0.045936,-0.01347 0.076095,-0.04117 0.1071383,-0.04987 0.051737,-0.02037 0.1229091,-0.01397 0.1607075,-0.03333 0.10829,-0.03296 0.1393387,-0.133307 0.1821351,-0.218667 0.023436,-0.03677 0.048319,-0.06989 0.032141,-0.096 0.023838,-0.02723 0.015267,-0.05624 0,-0.08533 0.02491,-0.02907 0.029061,-0.05135 0.053569,-0.08533 -0.00589,-0.03971 0,-0.118139 0,-0.181333 0,-0.02211 -0.015776,-0.03177 0,-0.05333 -0.023544,-0.139349 0.020222,-0.144512 0.066961,-0.213333 0.023356,-0.03392 0.033722,-0.09244 0.050891,-0.106667 0.078216,-0.126326 0.2099536,-0.183579 0.1982059,-0.373334 -0.00177,-0.04483 -0.022119,-0.168245 -0.064819,-0.186667 -0.024508,-0.01067 -0.081281,-0.0031 -0.1173164,-0.016 -0.1149219,-0.0432 -0.1982809,-0.174309 -0.316058,-0.170667 -0.027347,-0.0144 -0.040718,-0.01227 -0.085711,0 -0.030026,-0.0144 -0.081334,-0.05752 -0.1339229,-0.05333 -0.033106,-0.01373 -0.097705,-2.93e-4 -0.1339229,0 -0.013473,-0.02456 -0.00916,-0.07685 -0.053569,-0.106667 5.892e-4,-2.66e-4 -0.033427,-0.0093 -0.053569,0 -0.057774,-0.0384 -0.088453,-0.04944 -0.1607074,-0.05333 -7.5e-4,-0.0011 -0.0475,0.0027 -0.066961,0 -0.030213,-0.0048 -0.05546,-0.03256 -0.083032,-0.05013 -0.035704,-0.02133 -0.053023,-0.03647 -0.06964,-0.05653 0.03415,-0.114693 -0.07714,-0.132267 -0.098567,-0.213333 -0.00962,-0.0081 0.00988,-0.0548 0,-0.08 -0.012508,-0.03589 -0.043632,-0.05329 -0.083568,-0.08533 -0.070122,-0.05229 -0.1340514,-0.102069 -0.234365,-0.114667 -0.044784,-0.0048 -0.097099,0.0037 -0.1674036,0 -0.039743,-0.0037 -0.1078133,-0.03487 -0.1499936,-0.08267 -0.041596,-0.04819 -0.048341,-0.09504 -0.064283,-0.117333 -0.054158,-0.02133 -0.1138987,-0.02776 -0.1392798,-0.05013 -0.0087,-0.0096 -0.00498,-0.02763 -0.014731,-0.05653 -0.017517,-0.02827 -0.054908,-0.03404 -0.033481,-0.07467 -0.038945,-0.02141 -0.025086,0.02245 -0.066961,0.016 -0.03798,-0.05333 -0.064963,-0.08448 -0.1526721,-0.048 -0.036936,-0.01227 -0.069399,0.0457 -0.128566,0.048 -0.024588,-2.66e-4 -0.054121,-0.06122 -0.1039242,-0.048 -0.037847,-0.0248 -0.090751,0.01915 -0.1103524,0 -0.048587,0.0056 -0.052439,-0.04475 -0.1071383,-0.06987 -0.011491,-0.01859 -0.068118,-0.06777 -0.085711,-0.0688 -0.046686,0.003 -0.081457,0.104533 -0.128566,0.0688 -0.053194,-0.04184 0.035629,-0.04472 -0.00536,-0.08347 -0.027186,-0.02907 -0.041564,0.0012 -0.064819,0.01467 -0.027401,0.0204 -0.053649,0.04139 -0.083836,0.032 -0.067202,0.04523 -0.1148148,0.04291 -0.1674036,0.05333 -0.048694,0.04189 -0.05546,0.08389 -0.085711,0.133334 -0.020383,0.04075 -0.064347,0.09806 -0.096425,0.08 -0.042936,0.02267 -0.08218,-0.03116 -0.1392798,-0.05333 -0.091909,-0.04181 -0.155238,0.03904 -0.2678457,0.05333 -0.065617,-0.01227 -0.1846904,-0.149537 -0.1607075,-0.229867 -0.01741,-0.04957 0.00755,-0.1224 0,-0.183467 0.018213,-0.04848 0.062703,-0.08874 0.064283,-0.12 4.018e-4,-0.07246 -0.095637,-0.123211 -0.1344586,-0.128 -0.091684,-0.01333 -0.2139927,0.03875 -0.3048084,0 -0.032891,-0.03496 0.025151,-0.05334 0.053569,-0.08533 -0.00994,-0.0184 -0.023544,-0.02963 0,-0.05013 -0.00509,-0.03091 0.035618,-0.05024 0.048212,-0.0832 0.012723,-0.02523 0.00804,-0.06898 0.018749,-0.133334 0.012642,-0.0016 0.047275,-0.02479 0.050891,-0.05013 0.00311,-0.03283 -0.024642,-0.07854 -0.050891,-0.0992 -0.080836,0.0042 -0.1373941,0.01155 -0.1740997,0.04267 -0.1152219,0.03752 -0.08803,0.173713 -0.2142767,0.213334 -0.015964,0.005 -0.072929,0.01989 -0.1071383,0.02667 0.062576,-0.348947 0.1705926,-0.682692 0.321415,-1.000001 0.026972,0.0068 0.058262,0.0304 0.1071383,0.01333 0.072859,0.02677 0.076641,-0.04123 0.1607075,-0.08 0.065922,0.01067 0.1049526,-0.0077 0.1607074,0 0.060158,0.0048 0.12705,0.06376 0.1639216,0.06667 0.031311,0.0011 0.037873,-0.03819 0.050355,-0.03333 0.045936,0.0048 0.095573,0.0651 0.1071383,0.1 -0.00187,0.04363 -0.036132,0.08486 -0.021428,0.133334 0.043793,0.04656 0.1336229,0.07286 0.1821352,0.08 0.059596,-0.01493 0.023544,-0.09626 0,-0.16 0.015669,-0.009 0.019285,-0.03294 0,-0.05333 0.011919,-0.03488 0,-0.06995 0,-0.1 0,-0.138619 0.10739,-0.195712 0.2142766,-0.252 0.026517,-0.02125 0.068729,-0.06388 0.1017813,-0.08 0.051668,-0.0256 0.078286,-0.02808 0.1191914,-0.05333 0.074011,-0.03971 0.1434207,-0.08383 0.2022235,-0.133334 0.024963,-0.061 -0.00402,-0.135963 0,-0.181333 0.024963,-0.03315 0.037407,-0.014 0.058926,0 0.05148,-0.02637 0.065071,-0.09147 0.090532,-0.106667 0.01449,-0.02456 0.066018,-0.02883 0.083568,-0.04267 0.044784,-0.0356 0.04473,-0.08515 0.093746,-0.117333 0.00364,0.01187 0.035463,0.0058 0.056783,0 0.029383,-0.0077 0.070572,-0.03357 0.1039242,-0.05013 0.043605,-0.01067 0.118886,-0.0049 0.128566,-0.01653 0.016633,-0.01456 -0.00177,-0.0777 0,-0.09333 0.025365,-0.116202 0.1882313,-0.119824 0.286595,-0.1568 0.068172,-0.02605 0.1416583,-0.08108 0.2276689,-0.05653 -0.024669,0.04232 -0.089669,0.02698 -0.074997,0.106667 0.014544,0.07155 0.1174879,-0.03741 0.128566,-0.05013 0.079497,-0.02509 0.1932774,-0.03841 0.2710599,-0.05653 0.068306,-0.03421 0.1815887,-0.08148 0.1039241,-0.16 -0.040177,-0.0037 -0.057046,0.04727 -0.1039241,0.05333 -0.056783,0.01813 -0.039577,-0.0014 -0.056783,-0.0053 -0.036347,9.6e-4 -0.050682,0.02352 -0.074997,0.0053 -0.028311,0.0085 -0.065076,-0.03898 -0.085711,-0.06987 0.00603,-0.08156 0.1008171,-0.106698 0.1339229,-0.1648 -0.022392,-0.07568 -0.1218163,-0.0063 -0.1842779,-0.03733 0.00694,-0.04163 0.032222,-0.08927 0.050355,-0.09813 0.075372,-0.0066 0.1755622,0.01331 0.2008843,0.05013 0.014624,-0.0041 -0.0056,0.0296 0.016606,0.048 0.025472,0.02429 0.067465,0.0068 0.098567,0 0.013687,-0.05325 -0.074692,-0.0288 -0.064819,-0.048 0.066088,-0.0592 0.186876,-0.03947 0.2844522,-0.05013 0.030025,-0.0066 0.075302,-0.04422 0.1178521,-0.05653 0.038275,-0.03229 0.075607,-0.06352 0.096424,-0.02667 0.031766,0.03973 -0.00779,0.06298 -0.032141,0.0832 -0.072983,0.06605 -0.1404422,0.140224 -0.1821351,0.216801 0.019312,0.03493 0.07354,0.0099 0.1339229,0.01467 0.023356,0.0048 0.059349,0.01483 0.083568,0.01867 0.029383,0.0048 0.060458,-0.0048 0.1039241,0 0.020838,0.0097 0.022713,0.06667 0.064283,0.06667 0.065558,0 0.070818,-0.05541 0.042855,-0.1 0.00161,-0.0456 0.023303,-0.08467 0,-0.118667 -0.023517,-0.0581 -0.1381227,0.01189 -0.1607074,-0.048 0.01299,-0.06515 0.066163,-0.07982 0.085711,-0.106667 -0.00978,-0.103056 0.074692,-0.108998 0.074997,-0.213334 -0.014865,-0.01493 -0.052648,-0.01374 -0.074997,-0.04667 -0.014651,-0.01744 -0.020919,-0.05406 -0.037498,-0.06 -0.048614,-0.04933 -0.14281,-0.0419 -0.1486544,-0.123201 -0.00268,-0.04861 0.0068,-0.08113 0,-0.1328 -0.0068,-0.05011 -0.057608,-0.190971 -0.1004422,-0.202667 -0.054539,-0.0096 -0.085411,0.08862 -0.152672,0.138667 -0.033025,-0.0035 -0.095883,0.0035 -0.1339229,-0.0053 -0.021347,-0.0028 -0.062028,-0.02011 -0.064819,-0.06453 -0.00257,-0.02581 0.00581,-0.03493 0.016606,-0.05013 0.00252,-0.0036 -0.00262,-0.0129 0,-0.01867 0.4237287,-0.119242 0.876335,-0.181333 1.3392287,-0.181333 z m -1.9820585,0.426667 c -0.057569,0.158193 -0.1951423,0.244695 -0.3803411,0.24 -0.042775,0.04267 -0.023892,0.124198 -0.048212,0.181334 -0.020463,0.05144 -0.084259,0.08922 -0.1339228,0.08533 -0.036052,-0.0027 -0.1339229,-0.04941 -0.1339229,-0.08533 0,-0.0258 0.060486,-0.05721 0.066961,-0.101334 0.1971586,-0.106917 0.4038455,-0.215692 0.6294378,-0.32 z m 4.0712556,0.173334 c 0.0021,0.0032 -0.01433,0.0074 -0.03214,0.01867 -0.03501,0.02029 -0.0367,0.05401 -0.06428,0.07467 -0.04058,0.0045 -0.09527,0.0042 -0.117852,0.04 0.01192,0.03008 0.05124,0.03953 0.04821,0.06667 -0.01262,0.03589 -0.04039,0.03968 -0.04821,0.08533 0.04966,0.07846 0.173012,-0.0012 0.214277,-0.032 0.04736,0.0056 0.07244,0.01779 0.05357,-0.0053 0.05003,-0.02419 0.03758,-0.07783 0.04821,-0.114667 0.01567,-0.04075 0.0571,-0.03081 0.05893,-0.06667 -0.01045,-0.03589 -0.08024,-0.07248 -0.160707,-0.06667 z m -5.3033461,0.626667 c 0.05245,0.03291 0.082342,0.09525 0,0.106667 0.00699,0.02147 -0.1105507,0.03819 -0.1339229,0.05333 -0.00725,-0.02102 -0.010232,-0.03216 -0.016071,-0.05333 0.050526,-0.03284 0.1133753,-0.06944 0.1499939,-0.106667 z m 0.1607075,0.154667 c 0.013312,0.003 0.029629,0.05008 0.056783,0.05333 0.026436,8e-4 0.068226,-0.02285 0.1039241,-0.016 0.020838,0.0085 0.035629,0.08461 -0.00536,0.128 -0.030133,-0.0096 -0.041612,-0.05152 -0.064819,-0.05333 -0.066361,0.01829 -0.084388,0.143877 -0.1333872,0.106667 -0.047435,0.02853 -0.081897,-0.06607 -0.032141,-0.106667 -9.642e-4,-0.02245 -0.020731,-0.03091 -0.018749,-0.05867 0.014624,-0.01973 0.044725,-0.05421 0.093746,-0.05333 z m -0.2142766,0.03733 c 2.678e-4,0 -0.0015,-0.0078 0.00321,0 -0.00667,0.04936 -0.026935,0.0571 -0.056783,0.07467 -0.079191,0.04837 -0.1215645,0.100816 -0.1607074,0.192 0.00994,0.02419 -0.067331,0.104779 -0.1004422,0.096 -0.076941,-0.01448 0.032704,-0.15904 0.050087,-0.181333 0.019633,-0.02427 0.044719,-0.03949 0.050355,-0.05333 0.039132,-0.04048 0.045587,-0.09782 0.053569,-0.112 0.036748,-0.01781 0.1064151,-0.01997 0.1607075,-0.016 z m 6.5890052,0.1312 c 0.07024,-0.0046 0.108906,0.08693 0.144101,0.135467 0.02906,0.03581 0.11954,0.08849 0.177314,0.114667 0.01722,0.01456 0.04347,0.03645 0.05357,0.05013 0.05174,0.01392 0.09989,0.03235 0.13928,0.06453 0.03537,0.03619 0.06349,0.08765 0.075,0.112 -0.009,0.03771 -0.03166,0.06092 -0.02678,0.106667 0.03374,-0.0112 0.05124,-0.04539 0.06696,-0.08533 0.12623,0.181269 0.233732,0.372583 0.334807,0.568534 -0.02051,0.01278 -0.02933,0.02515 -0.05357,0.05013 0.01034,0.05428 0.05167,0.123643 -0.03214,0.133334 -0.04958,0.0068 -0.111043,-0.05118 -0.182135,-0.06667 -0.02919,-0.0068 -0.07707,0.0077 -0.100442,0 -0.05357,-0.0184 -0.03792,-0.08468 -0.08169,-0.1168 -0.02831,-0.01832 -0.09405,-0.04507 -0.136066,-0.05653 -0.02617,0.004 -0.03958,0.0104 -0.05678,0 -0.04315,0.0029 -0.09996,0.0065 -0.107138,0 -0.04639,-0.02648 -0.113711,-0.05435 -0.120531,-0.07467 -0.01071,-0.03789 0.08176,-0.08861 0.06696,-0.138667 0.01888,-0.0033 -0.01187,-0.01177 -0.01661,-0.04667 -0.0039,-0.02133 0.0047,-0.05309 0,-0.06 -0.0069,-0.03189 -0.04392,-0.05571 -0.08384,-0.05867 -0.03509,0 -0.07025,0.01867 -0.100442,0.01867 -0.04286,0.0011 -0.13058,-0.02152 -0.174099,-0.01867 -0.04219,0.0048 -0.06356,0.01675 -0.107139,0.01867 -0.07134,0.0068 -0.121264,-0.0048 -0.187492,0 -0.04773,0.0027 -0.139344,0.02968 -0.184278,0.05067 -0.02226,0.01013 -0.0376,0.03483 -0.05678,0.04933 -0.02365,0.0068 -0.0427,0.0089 -0.05893,0.01467 -0.02861,0.01459 -0.07548,0.04523 -0.101781,0.032 -0.03798,0.02971 -0.08152,0.01733 -0.149994,0 -0.05033,0.02267 -0.133618,0.01245 -0.117852,-0.04667 -0.01781,-0.09015 0.148665,-0.05118 0.214276,-0.06 0.05223,-0.01344 0.06482,-0.05106 0.101782,-0.106667 0.02054,0.02267 0.03471,0.01163 0.05357,0 0.02786,-0.02037 0.07749,-0.06006 0.08035,-0.08533 0.0058,-0.01933 -0.01768,-0.04918 -0.02143,-0.064 0.01045,-0.02104 0.04737,-0.04116 0.05357,-0.06933 0.06102,-0.03875 0.08663,-0.0885 0.13928,-0.114667 0.03206,-0.0184 0.09959,-0.02291 0.115174,-0.04 0.0038,-0.04104 -0.0011,-0.04854 0,-0.07467 0.02143,-0.02141 0.01596,-0.03149 0.01339,-0.03733 0.07269,-0.0096 0.126139,0.0216 0.187492,0.01867 0.0263,-0.0011 0.05546,0.0019 0.08357,-0.01867 0.02349,-0.01352 0.04372,-0.03637 0.05035,-0.048 0.04208,-0.0136 0.06924,-0.04808 0.107138,-0.05013 z M 6.6120218,18.6889 c 0.012219,-0.002 0.033952,0.0014 0.042855,0 0.029088,-0.0011 0.04931,0 0.053569,0 0.044462,0 0.077311,-0.0097 0.053569,0 0.017892,0.06398 -0.1334996,0.03997 -0.182135,0 -5.357e-4,0.0045 0.018583,0.002 0.032142,0 z m -0.1848136,0.117333 c 0.016553,0 0.032704,-0.0074 0.050355,0 -0.044918,0.03715 -0.1063615,0.05843 -0.1842779,0.08267 -0.037016,0.01163 -0.093623,0.02403 -0.1205305,-0.01867 0.012267,-0.0484 0.053923,-0.0432 0.053569,-0.048 0.076336,-0.0048 0.151215,-0.01571 0.2008844,-0.016 z m 6.3452658,0 c -0.03268,0.01013 -0.0484,0.07395 0,0.08267 0.02172,-0.01355 0.02196,-0.04261 0.01607,-0.08267 -0.01264,-0.01421 -0.007,-0.0044 -0.01607,0 z m -0.01071,0.1328 c -0.02229,0.0046 -0.04042,-9.6e-4 -0.05893,0.01653 0.0031,0.05428 0.01272,0.08583 0,0.133333 0.03319,0.0601 0.103614,0.02403 0.119191,-0.016 0.01853,-0.101483 -0.02022,-0.146603 -0.06026,-0.133867 z m 0.411947,0.2832 c -0.04285,-0.0188 -0.07525,-0.0035 -0.09053,0 0.02601,0.07483 0.09326,0.08546 0.1741,0.106667 0.02919,-0.028 0.01987,-0.0865 0.04018,-0.106667 -0.04178,0 -0.06429,-0.01453 -0.107139,0 z m -8.5062455,2.026669 c 0.036218,0.05006 0.0732,0.100676 0.1191914,0.106667 0.024374,0.02925 0.052535,0.02656 0.083836,0 0.025204,0.03813 0.042491,0.05893 0.064819,0.06667 0.053649,0.01744 0.1285124,0.01493 0.1692785,0.04 0.062467,0.02048 0.098567,0.128976 0.1574933,0.16 -0.00402,0.03104 -0.016446,0.06007 0,0.08533 0.018642,0.03192 0.069576,0.04239 0.1103525,0.07467 0.049792,0.01715 0.070572,0.08534 0.1039241,0.106667 0.029945,0.0068 0.054994,-0.0077 0.080354,0 0.064278,0.01941 0.078409,0.116475 0.1339229,0.106667 0.036052,-0.01733 0.044382,-0.07177 0.048212,-0.106667 0.026383,-0.02619 0.047698,-0.05333 0.085711,-0.05333 0.060378,-0.0144 0.07804,0.06087 0.080354,0.12 0.032731,0.03296 0.061578,0.0651 0.053569,0.1 0.031365,0.0601 0.029383,0.2308 0,0.26 0.00118,0.05125 -0.063431,0.07486 -0.1004422,0.106667 -0.017517,0.03992 -0.036615,0.06785 -0.049552,0.08533 -0.024026,0.02707 -0.050076,0.03851 -0.06964,0.07467 -0.00774,0.0045 -0.006,0.03632 -0.048212,0.05653 0.00423,0.06217 -0.041104,0.108822 0,0.183467 -0.00699,0.03008 0,0.06414 0,0.08 0,0.06267 -0.060142,0.07347 -0.053569,0.120001 -0.018214,0.03392 0.026168,0.104437 0.053569,0.149866 -0.00897,0.03405 0.046509,0.06117 0.066961,0.103467 0.03407,0.01781 0.069276,0.06486 0.1004422,0.106667 0.061353,0.100693 0.090291,0.214576 0.1486544,0.306667 0.00536,0.04752 0.097764,0.08293 0.1124952,0.12 0.01741,0.03856 -0.00305,0.09008 0,0.106667 0.04173,0.08519 0.2123963,0.167893 0.2892734,0.213333 0.039025,0.01179 0.06837,0.02392 0.085711,0.05333 0.068381,0.01912 0.1745925,0.07778 0.2142766,0.106667 0.00996,0.05741 0.025151,0.151722 0.036963,0.216533 0.01449,0.08544 -0.00391,0.158038 0,0.250134 0.00252,0.0504 0.016606,0.08292 0.016606,0.12 0,0.03077 0.00107,0.06254 0,0.08 -0.00107,0.0601 0.00482,0.122267 0,0.181333 -0.00268,0.03496 -0.00214,0.07389 0,0.112001 0.00268,0.02008 0.031552,0.0305 0,0.05653 0.035623,0.02824 -0.00295,0.06117 0,0.103467 0.0068,0.04107 0.072013,0.09044 0.085711,0.16 0.00774,0.03125 0.020571,0.133349 0.021428,0.186667 -0.010446,0.02811 -0.019526,0.06898 -0.021428,0.08 -0.00466,0.04427 0.00177,0.06439 0,0.106667 -1.3367983,-0.87362 -2.2284767,-2.356563 -2.2284767,-4.053338 0,-0.217534 0.022065,-0.42347 0.048212,-0.640001 z m 1.8267082,0.490668 c 0.063506,-0.02187 0.054721,0.06018 0,0.064 -0.019312,0.0068 -0.018294,-0.04816 0,-0.064 z"
     class="ColorScheme-Text"
     id="path5" />
</svg>
