<?xml version="1.0" encoding="UTF-8" standalone="no"?>
<svg
  width="32"
  height="32"
  version="1.1"
  viewBox="0 0 32 32"
  id="svg25"
  xmlns="http://www.w3.org/2000/svg"
  xmlns:svg="http://www.w3.org/2000/svg">
 <defs
   id="defs16">
  <style
    id="current-color-scheme"
    type="text/css">.ColorScheme-Highlight {
        color:#3daee9;
      }</style>
  <linearGradient
    id="linearGradient6218"
    x1="408.33"
    x2="437.79"
    y1="555.74"
    y2="492.4"
    gradientTransform="matrix(1.0006 0 0 .85094 -.23613 72.315)"
    gradientUnits="userSpaceOnUse">
   <stop
     style="stop-color:#353a3f;stop-opacity:.99608"
     offset="0"
     id="stop1" />
   <stop
     style="stop-color:#272727;stop-opacity:.98876"
     offset="1"
     id="stop2" />
  </linearGradient>
  <linearGradient
    id="linearGradient850"
    x1="392.59"
    x2="420.29"
    y1="501.23"
    y2="503.48"
    gradientUnits="userSpaceOnUse">
   <stop
     style="stop-color:#444647"
     offset="0"
     id="stop3" />
   <stop
     style="stop-color:#696969;stop-opacity:.42697"
     offset="1"
     id="stop4" />
  </linearGradient>
  <radialGradient
    id="radialGradient6178-3"
    cx="397.99"
    cy="485.79"
    r="11.249"
    gradientTransform="matrix(-.00010706 .04847 -1.0235 -.0023723 538.49 -12.448)"
    gradientUnits="userSpaceOnUse">
   <stop
     style="stop-color:#d8dbd8"
     offset="0"
     id="stop5" />
   <stop
     style="stop-color:#272727;stop-opacity:.98876"
     offset="1"
     id="stop6" />
  </radialGradient>
  <linearGradient
    id="linearGradient2676"
    x1="406.46"
    x2="414.47"
    y1="539.62"
    y2="506.87"
    gradientUnits="userSpaceOnUse">
   <stop
     style="stop-color:#1a1b1b"
     offset="0"
     id="stop7" />
   <stop
     style="stop-color:#474747"
     offset="1"
     id="stop8" />
  </linearGradient>
  <linearGradient
    id="linearGradient2684"
    x1="395.58"
    x2="404.77"
    y1="530.01"
    y2="505.63"
    gradientUnits="userSpaceOnUse">
   <stop
     offset="0"
     id="stop9" />
   <stop
     style="stop-color:#c3c3c3;stop-opacity:0"
     offset="1"
     id="stop10" />
  </linearGradient>
  <linearGradient
    id="linearGradient25029"
    x1="12.021"
    x2="12.012"
    y1="7.2813"
    y2="-.72563"
    gradientUnits="userSpaceOnUse">
   <stop
     style="stop-color:#4f5152"
     offset="0"
     id="stop11" />
   <stop
     style="stop-color:#010501"
     offset="1"
     id="stop12" />
  </linearGradient>
  <linearGradient
    id="linearGradient25155"
    x1="21.812"
    x2="4.0043"
    y1="3.9336"
    y2="4"
    gradientUnits="userSpaceOnUse">
   <stop
     style="stop-color:#1b1b1b"
     offset="0"
     id="stop13" />
   <stop
     style="stop-color:#090909;stop-opacity:.24541"
     offset=".49971"
     id="stop14" />
   <stop
     style="stop-color:#010101;stop-opacity:.23889"
     offset=".813"
     id="stop15" />
   <stop
     style="stop-opacity:.87011"
     offset="1"
     id="stop16" />
  </linearGradient>
 </defs>
 <path
   transform="matrix(.48869 0 0 .49779 -187.85 -240.96)"
   d="m386.9 524.24v-36.16s0.048-1.7187 1.589-1.7187c0 0 20.043-0.0286 20.354 0l5.0939 3.7249 25.709 3e-3c6.1389 0 6.1389 6.0266 6.1389 6.0266v28.124"
   style="fill:none;stroke-width:.7;stroke:#000"
   id="path16" />
 <path
   transform="matrix(.48976 0 0 .49791 -187.87 -240.89)"
   d="m387.68 485.81c-1.5856 0-1.5856 2.0084-1.5856 2.0084v40.168h58.756s1e-5 -19.324 0-32.134c0-6.0252-6.373-6.5882-6.373-6.5882l-25.913-0.15436-3.6307-2.6818c-0.53156-0.39081-0.96613-0.61766-1.681-0.61766z"
   style="fill:url(#linearGradient6218);stroke-linecap:round;stroke-linejoin:bevel;stroke-width:.50828;stroke:#000a00"
   id="path17" />
 <path
   transform="matrix(.49143 0 0 .31854 -188.93 -153.06)"
   d="m387.05 540.32 0.076-50.366 20.402 0.0901 1.3397-3.2606 3.3565 3.7108h27.167c5.4168 0 5.4168 8.3559 5.4168 8.3559v28.254"
   style="fill:none;stroke-width:1px;stroke:url(#linearGradient850)"
   id="path18" />
 <path
   transform="matrix(.5 0 0 .5 -.0021617 5.801e-7)"
   d="m28.004 5.2857v0.73421s17.353-0.056939 26-9e-7l1.5964 0.14159s-0.99131-0.71696-1.8388-0.7221z"
   style="fill:url(#radialGradient6178-3);stroke-width:.6659"
   id="path19" />
 <path
   transform="matrix(.49017 0 0 .54047 -188.09 -264.07)"
   d="m385.76 501.54v37.005s0 5.5507 6.1203 5.5507c0 0 40.125 1e-3 48.963 0 6.1203-6.5e-4 6.1203-5.5507 6.1203-5.5507 4.6e-4 -8.0121 0-29.604 0-29.604s0-1.8502-2.0401-1.8502c0 0-20 0-27.389-3.7005-3.8944-1.9502-6.2195-3.2282-8.2026-3.2282h-21.573c-2.0401 0-1.9979 1.3779-1.9979 1.3779z"
   style="fill:none;stroke-linejoin:round;stroke-width:1.2969;stroke:#000"
   id="path20" />
 <path
   transform="matrix(.49017 0 0 .49893 -187.96 -241.91)"
   d="m385.21 538.76s0.26767 6.2213 6.4045 6.2213c9.658 1e-3 40.126 0 48.963 0 6.1203 0 6.1203-6.0129 6.1203-6.0129v-32.069c0-2.0043-2.0401-2.0043-2.0401-2.0043s-21.191 0.0116-28.562-4.0086c-5.6203-3.0656-6.1203-4.0086-8.1604-4.0086h-20.401c-2.0401 0-2.0401 2.0043-2.0401 2.0043z"
   style="fill:url(#linearGradient2676);stroke-linejoin:round;stroke-width:1.2969;stroke:url(#linearGradient2684)"
   id="path21" />
 <path
   d="m14.714 20.667c0-2.9455-2.3985-5.3333-5.357-5.3333-2.9586 0-5.357 2.3878-5.357 5.3333 0 2.9455 2.3985 5.3333 5.357 5.3333h5.357v-0.8889h-2.3995c1.4977-0.9872 2.3988-2.656 2.3995-4.4444zm-2.7331 3.5957c-0.59826 0.43273-1.4359 0.30078-1.8707-0.29514-0.43464-0.59571-0.30212-1.4295 0.29634-1.8624 0.5985-0.43272 1.436-0.30078 1.8707 0.29514 0.43488 0.59569 0.30213 1.4295-0.29635 1.8624zm-0.06545-5.8251c0.70333-0.22764 1.4589 0.1556 1.6876 0.8559 0.22841 0.70052-0.15647 1.4527-0.85996 1.6801-0.70331 0.22764-1.4589-0.1556-1.6876-0.85591-0.22839-0.7003 0.15651-1.4527 0.86-1.6801zm-2.5583-2.2151c0.73964 0 1.3393 0.597 1.3393 1.3333 0 0.73633-0.59961 1.3333-1.3393 1.3333-0.73954 0-1.3393-0.597-1.3393-1.3333 0-0.73633 0.59971-1.3333 1.3393-1.3333zm-4.2459 3.071c0.22872-0.70031 0.98427-1.0835 1.6876-0.85612 0.70347 0.22765 1.0884 0.97982 0.85994 1.6801-0.22863 0.7003-0.98415 1.0836-1.6875 0.85612-0.70353-0.22743-1.0885-0.9796-0.86007-1.6801zm3.4925 4.6741c-0.43471 0.59592-1.2723 0.72786-1.8707 0.29514-0.59836-0.43294-0.7311-1.2667-0.29624-1.8624 0.43462-0.59571 1.2723-0.72787 1.8707-0.29493 0.59836 0.43273 0.73092 1.2665 0.29624 1.8622zm0.30692-3.3006c0-0.24545 0.19986-0.44445 0.44638-0.44445 0.24652 0 0.44642 0.199 0.44642 0.44445 0 0.24544-0.1999 0.44444-0.44642 0.44444-0.24652 0-0.44638-0.199-0.44638-0.44444z"
   style="color:#d6dbf1;enable-background:new;fill:#646464;stroke-width:.055679"
   id="path22" />
 <path
   class="ColorScheme-Highlight"
   transform="matrix(.5 0 0 .5 -.0021617 5.801e-7)"
   d="m2.4512 4 2.2e-6 2h19.553v-3.7118l-17.553-2.4e-6c-2 2.4e-6 -2 1.7118-2 1.7118z"
   style="fill:currentColor;mix-blend-mode:normal"
   id="path23" />
 <path
   transform="matrix(.5 0 0 .5 -.0021617 5.801e-7)"
   d="m4.4512 2.2432c-2 0-2 1.2466-2 1.7561v2.0205h19.553s2.0889-2.7012 2-3.2256c-0.27723-0.50911-1.4378-0.55108-2-0.55108z"
   style="color:#3daee9;fill:url(#linearGradient25155);stroke-width:.69;stroke:url(#linearGradient25029)"
   id="path24" />
 <path
   transform="matrix(.5 0 0 .5 -.0021617 5.801e-7)"
   d="m4.4512 2.7797c-2 0-2 1.2466-2 1.7561v1.4841h19.719s1.1866-1.7212 1.8344-2.7354c-0.33138-0.41002-1.4378-0.50478-2-0.50478z"
   style="color:#3daee9;fill:none;stroke-width:.69;stroke:url(#linearGradient25029)"
   id="path25" />
</svg>
