<?xml version="1.0" encoding="UTF-8" standalone="no"?>
<svg
  viewBox="0 0 32 32"
  version="1.1"
  id="svg12"
  width="32"
  height="32"
  sodipodi:docname="user-home.svg"
  inkscape:version="1.3.2 (1:1.3.2+202311252150+091e20ef0f)"
  xmlns:inkscape="http://www.inkscape.org/namespaces/inkscape"
  xmlns:sodipodi="http://sodipodi.sourceforge.net/DTD/sodipodi-0.dtd"
  xmlns:xlink="http://www.w3.org/1999/xlink"
  xmlns="http://www.w3.org/2000/svg"
  xmlns:svg="http://www.w3.org/2000/svg">
 <sodipodi:namedview
   id="namedview1"
   pagecolor="#ffffff"
   bordercolor="#000000"
   borderopacity="0.25"
   inkscape:showpageshadow="2"
   inkscape:pageopacity="0.0"
   inkscape:pagecheckerboard="0"
   inkscape:deskcolor="#d1d1d1"
   inkscape:zoom="25.0625"
   inkscape:cx="16"
   inkscape:cy="16"
   inkscape:current-layer="svg12" />
 <defs
   id="defs3051">
  <linearGradient
    id="linearGradient25153">
   <stop
     style="stop-color:#1b1b1b;stop-opacity:1"
     offset="0"
     id="stop25149" />
   <stop
     style="stop-color:#090909;stop-opacity:0.24540505"
     offset="0.49971318"
     id="stop1797" />
   <stop
     style="stop-color:#010101;stop-opacity:0.23888743"
     offset="0.9430303"
     id="stop2247" />
   <stop
     style="stop-color:#000000;stop-opacity:0.8012926"
     offset="1"
     id="stop25151" />
  </linearGradient>
  <linearGradient
    id="linearGradient14607">
   <stop
     style="stop-color:#4f5152;stop-opacity:1"
     offset="0"
     id="stop14603" />
   <stop
     style="stop-color:#010501;stop-opacity:1"
     offset="1"
     id="stop14605" />
  </linearGradient>
  <style
    type="text/css"
    id="current-color-scheme">
      .ColorScheme-Highlight {
        color:#3daee9;
      }
      </style>
  <filter
    height="1.0092643"
    y="-0.0090825269"
    width="1.01157"
    x="-0.0057845595"
    id="filter940"
    style="color-interpolation-filters:sRGB">
   <feGaussianBlur
     id="feGaussianBlur942"
     stdDeviation="2.0426602e-07" />
  </filter>
  <linearGradient
    gradientTransform="matrix(1.0005668,0,0,0.8509446,-0.23612742,72.315207)"
    gradientUnits="userSpaceOnUse"
    y2="492.39743"
    x2="437.78555"
    y1="555.7431"
    x1="408.33118"
    id="linearGradient6218"
    xlink:href="#linearGradient42869" />
  <linearGradient
    id="linearGradient42869">
   <stop
     style="stop-color:#353a3f;stop-opacity:0.99607843"
     offset="0"
     id="stop42865" />
   <stop
     style="stop-color:#272727;stop-opacity:0.98876405"
     offset="1"
     id="stop42867" />
  </linearGradient>
  <filter
    height="1.0139021"
    y="-0.006951012"
    width="1.0116944"
    x="-0.0058472141"
    id="filter2714"
    style="color-interpolation-filters:sRGB">
   <feGaussianBlur
     id="feGaussianBlur2716"
     stdDeviation="0.00026454623" />
  </filter>
  <linearGradient
    gradientUnits="userSpaceOnUse"
    y2="539.64374"
    x2="414.83517"
    y1="501.65286"
    x1="415.07861"
    id="linearGradient850"
    xlink:href="#linearGradient848" />
  <linearGradient
    id="linearGradient848">
   <stop
     id="stop844"
     offset="0"
     style="stop-color:#57595a;stop-opacity:0.99607843" />
   <stop
     id="stop846"
     offset="1"
     style="stop-color:#000000;stop-opacity:0.42696628" />
  </linearGradient>
  <filter
    height="1.0196862"
    y="-0.019669888"
    width="1.0169482"
    x="-0.008474159"
    id="filter2706"
    style="color-interpolation-filters:sRGB">
   <feGaussianBlur
     id="feGaussianBlur2708"
     stdDeviation="5.3501288e-05" />
  </filter>
  <radialGradient
    gradientUnits="userSpaceOnUse"
    gradientTransform="matrix(-1.0705868e-4,0.04846987,-1.0235483,-0.0023723,538.49225,-12.44815)"
    r="11.24949"
    fy="485.79099"
    fx="397.99051"
    cy="485.79099"
    cx="397.99051"
    id="radialGradient6178-3"
    xlink:href="#linearGradient880" />
  <linearGradient
    id="linearGradient880">
   <stop
     style="stop-color:#d8dbd8;stop-opacity:1"
     offset="0"
     id="stop876" />
   <stop
     style="stop-color:#272727;stop-opacity:0.98876405"
     offset="1"
     id="stop878" />
  </linearGradient>
  <filter
    height="1.0288303"
    y="-0.014415251"
    width="1.020728"
    x="-0.010363981"
    id="filter1073"
    style="color-interpolation-filters:sRGB">
   <feGaussianBlur
     id="feGaussianBlur1075"
     stdDeviation="7.6719496e-06" />
  </filter>
  <linearGradient
    gradientUnits="userSpaceOnUse"
    y2="506.87347"
    x2="414.47186"
    y1="539.61627"
    x1="406.45694"
    id="linearGradient2676"
    xlink:href="#linearGradient2668" />
  <linearGradient
    id="linearGradient2668">
   <stop
     id="stop2664"
     offset="0"
     style="stop-color:#1a1b1b;stop-opacity:1" />
   <stop
     id="stop2666"
     offset="1"
     style="stop-color:#474747;stop-opacity:1" />
  </linearGradient>
  <linearGradient
    gradientUnits="userSpaceOnUse"
    y2="505.62521"
    x2="404.77097"
    y1="530.01428"
    x1="395.58017"
    id="linearGradient2684"
    xlink:href="#linearGradient2682" />
  <linearGradient
    id="linearGradient2682">
   <stop
     id="stop2678"
     offset="0"
     style="stop-color:#000000;stop-opacity:1;" />
   <stop
     id="stop2680"
     offset="1"
     style="stop-color:#c3c3c3;stop-opacity:0" />
  </linearGradient>
  <filter
    height="1.026794"
    y="-0.013397042"
    width="1.0207282"
    x="-0.010364092"
    id="filter2690"
    style="color-interpolation-filters:sRGB">
   <feGaussianBlur
     id="feGaussianBlur2692"
     stdDeviation="1.0731546e-05" />
  </filter>
  <filter
    style="color-interpolation-filters:sRGB"
    id="filter24684"
    x="-2.6103017e-06"
    y="-1.6115378e-05"
    width="1.0000052"
    height="1.0000322">
   <feGaussianBlur
     stdDeviation="2.2542092e-05"
     id="feGaussianBlur24686" />
  </filter>
  <linearGradient
    xlink:href="#linearGradient14607"
    id="linearGradient25029"
    gradientUnits="userSpaceOnUse"
    x1="12.020759"
    y1="7.2813473"
    x2="12.011944"
    y2="-0.7256338" />
  <linearGradient
    xlink:href="#linearGradient25153"
    id="linearGradient25155"
    x1="21.812489"
    y1="3.9335968"
    x2="4.6537294"
    y2="4.034317"
    gradientUnits="userSpaceOnUse" />
  <filter
    style="color-interpolation-filters:sRGB"
    id="filter30328"
    x="-0.031120423"
    y="-0.19214281"
    width="1.0624014"
    height="1.3842729">
   <feGaussianBlur
     stdDeviation="3.3587812e-07"
     id="feGaussianBlur30330" />
  </filter>
 </defs>
 <path
   transform="matrix(0.48868956,0,0,0.49778956,-187.84518,-240.95703)"
   id="path6220-2"
   d="m 386.25703,524.61791 0.77838,-38.71157 22.03057,0.10242 3.50545,3.40716 c 0,0 18.10956,0.35097 27.33843,0.35097 2.88877,0 6.71919,2.18928 6.71919,7.16894 0,13.1364 0.12174,26.49022 0.12174,26.49022"
   style="display:inline;fill:none;fill-opacity:1;stroke:#000000;stroke-width:0.7;stroke-linecap:butt;stroke-linejoin:miter;stroke-miterlimit:4;stroke-dasharray:none;stroke-opacity:1" />
 <path
   transform="matrix(0.48975606,0,0,0.49790856,-187.87368,-240.88503)"
   d="m 386.39384,486.19622 c 0,0 -0.10293,36.25523 -0.10293,49.28612 0,1.03908 0.48232,1.87652 1.08144,1.87652 h 58.39816 c 0.59911,0 1.34832,-0.83745 1.34161,-1.87652 0,0 -0.0268,-27.28049 -0.0268,-40.09035 0,-3.00572 -3.75125,-6.05898 -6.82146,-6.05898 -9.03444,0 -27.69471,-0.22684 -27.69471,-0.22684 l -4.13226,-2.8228 z"
   id="rect4180"
   style="display:inline;fill:url(#linearGradient6218);fill-opacity:1;stroke:#000a00;stroke-width:0.71;stroke-linecap:round;stroke-linejoin:bevel;stroke-miterlimit:4;stroke-dasharray:none;stroke-opacity:1" />
 <path
   transform="matrix(0.49142706,0,0,0.31854304,-188.92768,-153.06402)"
   id="path6220"
   d="m 387.04904,540.31904 0.076,-50.36617 20.73641,0.0901 1.41588,-3.75705 2.94655,4.20719 c 0,0 17.40991,0.34184 27.40616,0.34184 3.61218,0 6.32049,4.0507 6.32049,8.9451 0,12.76833 0.1165,38.20486 0.1165,38.20486"
   style="display:inline;fill:none;fill-opacity:1;stroke:url(#linearGradient850);stroke-width:1px;stroke-linecap:butt;stroke-linejoin:miter;stroke-opacity:1" />
 <path
   d="m 27.921427,5.4393704 v 0.380281 h 0.44553 l 25.49468,0.167876 h 0.44553 l -0.5452,-0.548167 h -0.44553 -24.94948 z"
   id="path4151-2-3-5"
   style="display:inline;fill:url(#radialGradient6178-3);fill-opacity:1;stroke-width:0.665905"
   transform="matrix(0.50000006,0,0,0.50000006,-0.0021617,5.8009813e-7)" />
 <path
   transform="matrix(0.49016606,0,0,0.54046506,-188.09068,-264.06703)"
   style="display:inline;fill:none;fill-opacity:1;stroke:#000000;stroke-width:1.29693;stroke-linejoin:round;stroke-miterlimit:4;stroke-dasharray:none;stroke-opacity:1"
   id="path952"
   d="m 385.15633,501.64377 c 0,13.8136 0.0547,36.33599 0.0547,39.23108 0,2.8951 4.24366,4.43675 7.16501,4.43675 9.65801,10e-4 39.7482,-0.008 48.58578,-0.009 2.73024,-2.9e-4 6.73958,-3.06897 6.73961,-5.5723 4.6e-4,-8.01206 0.0257,-31.8933 0.0257,-31.8933 -21.39075,-0.31416 -23.00468,-0.49626 -28.48106,-3.68616 -5.47637,-3.18989 -6.84254,-3.7889 -8.06758,-3.79572 -8.19718,-0.0456 -25.32423,-0.0254 -25.32423,-0.0254 0,0 -0.68932,-0.094 -0.698,1.31379 z" />
 <path
   transform="matrix(0.49016606,0,0,0.49892856,-187.95768,-241.91303)"
   style="display:inline;fill:url(#linearGradient2676);fill-opacity:1;stroke:url(#linearGradient2684);stroke-width:1.29693;stroke-linejoin:round;stroke-miterlimit:4;stroke-dasharray:none;stroke-opacity:1"
   id="path952-7"
   d="m 385.15633,498.35321 c 0,13.8136 0.0547,28.03631 0.0547,40.41503 0,6.52543 4.5187,6.67224 7.29021,6.67224 9.65801,10e-4 38.73653,0 47.57411,0 4.29557,0 7.62608,-4.19689 7.62608,-7.71933 4.6e-4,-8.01206 0.0257,-32.38987 0.0257,-32.38987 -22.81136,0 -23.57647,-0.13663 -31.18143,-4.28484 -5.62028,-3.06564 -5.63216,-3.98161 -7.35295,-3.98161 -8.19718,-0.0456 -23.33849,-0.0254 -23.33849,-0.0254 0,0 -0.68932,-0.094 -0.698,1.31379 z" />
 <path
   style="display:inline;mix-blend-mode:normal;fill:currentColor;stroke:none;stroke-width:0.390115;stroke-miterlimit:4;stroke-dasharray:none"
   d="M 3.1185124,2.3943988 C 2.9060465,2.5755409 2.8406898,2.662737 2.8406898,3.1723004 c 0,0.7470828 0.00654,2.4587688 0.00654,2.4587688 H 22.075746 l 0.993727,-1.6353471 c 0,0 0.682408,-0.9793708 0.44826,-1.410869 -0.123324,-0.2272669 -0.513311,-0.2662912 -1.075516,-0.2662912 -0.820732,0 -18.1692197,-0.041813 -18.4326201,-0.041813 0,0 -0.7160982,-0.031538 -0.8910845,0.1176499 z"
   class="ColorScheme-Highlight"
   id="path4"
   transform="matrix(0.50000006,0,0,0.50000006,-0.0021617,5.8009813e-7)" />
 <path
   style="color:#3daee9;display:inline;mix-blend-mode:normal;fill:url(#linearGradient25155);fill-opacity:1;stroke:url(#linearGradient25029);stroke-width:1.29;stroke-miterlimit:4;stroke-dasharray:none"
   d="M 3.1185124,2.3943988 C 2.9060465,2.5755409 2.8406898,2.662737 2.8406898,3.1723004 c 0,0.7470828 0.00654,2.4587688 0.00654,2.4587688 H 22.075746 l 0.993727,-1.6353471 c 0,0 0.682408,-0.9793708 0.44826,-1.410869 -0.123324,-0.2272669 -0.513311,-0.2662912 -1.075516,-0.2662912 -0.820732,0 -18.1692197,-0.041813 -18.4326201,-0.041813 0,0 -0.7160982,-0.031538 -0.8910845,0.1176499 z"
   id="path4-0"
   transform="matrix(0.50000006,0,0,0.50000006,-0.0021617,5.8009813e-7)" />
 <g
   id="g2"
   transform="matrix(0.499991,0,0,0.49999873,-0.16621573,-0.0366275)">
  <path
    d="m 19.213949,33.184509 c -2.841661,0 -5.56676,1.123863 -7.576114,3.124203 -2.009273,2.000345 -3.138135,4.713672 -3.138135,7.542466 0,2.828769 1.128862,5.542017 3.138135,7.542438 2.009283,2.000352 4.734706,3.12421 7.576114,3.12421 2.841434,0 5.566779,-1.123858 7.576138,-3.12421 2.009267,-2.000336 3.138129,-4.71367 3.138129,-7.542438 0,-1.872353 -0.4951,-3.711805 -1.435461,-5.333355 -0.940341,-1.621562 -2.292947,-2.968093 -3.92168,-3.90427 -1.628787,-0.936168 -3.47646,-1.429086 -5.357156,-1.429086 z"
    id="path67-1-7"
    style="display:inline;fill:#646464;fill-opacity:1;stroke-width:0.0424229" />
  <path
    fill="#231f20"
    d="m 25.87296,43.240269 -6.048283,-6.048282 c -0.168703,-0.168704 -0.389897,-0.253164 -0.610875,-0.253164 -0.220979,0 -0.442173,0.08446 -0.610877,0.253164 l -6.048281,6.048282 c -0.33741,0.338271 -0.320558,0.867495 0.01685,1.204905 0.338272,0.339134 0.832718,0.389032 1.171205,0.05055 l 0.29507,-0.295285 v 5.698994 c 0,0.477598 0.386444,0.864041 0.86404,0.864041 h 3.456161 v -3.456162 h 1.728081 v 3.456162 h 3.456162 c 0.477596,0 0.864041,-0.386443 0.864041,-0.864041 v -5.682147 l 0.25813,0.258133 c 0.337409,0.337408 0.853024,0.307167 1.191511,-0.03046 0.337625,-0.337192 0.355338,-0.86728 0.01707,-1.204688 z"
    id="path1"
    style="fill:#262727;fill-opacity:1;stroke-width:0.21601" />
 </g>
</svg>
