<svg version="1.1" viewBox="0 0 16 16" xmlns="http://www.w3.org/2000/svg">
<defs>
<style type="text/css" id="current-color-scheme"> .ColorScheme-Text { color:#fcfcfc; } </style>
</defs>
<path d="M 8,2 C 5.0751587,2.00384 2.5792684,4.1160647 2.0917969,7 c 0,0 0,0.5117188 0.5117188,0.5117188 C 3.1152345,7.5117188 3.1152344,7 3.1152344,7 3.5893503,4.6772669 5.6293821,3.0067411 8,3 8,3 8.5,3 8.5,2.5 8.5,2 8,2 8,2 Z m 2.623222,0.00586 c -0.0997,0.00475 -0.209827,0.045765 -0.320312,0.15625 -0.3535528,0.3535523 0,0.7070312 0,0.7070312 L 12.442494,5 10.30291,7.1395836 c 0,0 -0.3535528,0.3534782 0,0.7070312 0.353552,0.3535529 0.707031,0 0.707031,0 L 13.856556,5 11.009941,2.1621094 c 0,0 -0.167388,-0.1666943 -0.386719,-0.1562494 z M 5.2304688,8 C 5.0111381,7.9895557 4.84375,8.15625 4.84375,8.15625 3.2149031,9.7862555 3.6171104,9.3828882 2,11 l 2.84375,2.841797 c 0,0 0.3534787,0.353553 0.7070313,0 0.3535526,-0.353553 0,-0.708985 0,-0.708985 L 3.4140625,11 5.5507813,8.8632813 c 0,0 0.3535526,-0.3534782 0,-0.7070313 C 5.4402958,8.0457647 5.3301646,8.0047475 5.2304688,8 Z M 12.884766,9 C 12.41065,11.322733 10.370618,12.993259 8,13 8,13 7.5,13 7.5,13.5 7.5,14 8,14 8,14 c 2.924841,-0.0038 5.420732,-2.116065 5.908203,-5 0,0 0,-0.5117185 -0.511718,-0.5117185 C 12.884766,8.4882815 12.884766,9 12.884766,9 Z" class="ColorScheme-Text" fill="currentColor"/>
</svg>
