<svg viewBox="0 0 22 22" xmlns="http://www.w3.org/2000/svg">
    <style
        type="text/css"
        id="current-color-scheme">
        .ColorScheme-Text {
            color:#eff0f1;
        }
    </style>
    <g class="ColorScheme-Text" fill="currentColor">
        <path d="m 14,12 c 0,0 0,-1 -1,-1 -1,0 -1,1 -1,1 v 6 c 0,0 0,1 1,1 1,0 1,-1 1,-1 z m 2,0 v 6 c 0,0 0,1 1,1 1,0 1,-1 1,-1 v -6 c 0,0 0,-1 -1,-1 -1,0 -1,1 -1,1 z M 11,3 c 4.265642,0 7.985062,3.2975003 7.985062,7.504732 C 18.985062,10.73739 18.780663,11 18.503135,11 18.225607,11 17.98311,10.758057 17.98311,10.507551 17.98311,8.6723401 16.528913,4 11,4 7,4 4,7 4,11 4,15 6.8596658,17.730513 10.50485,17.982921 10.776852,18 11,18.229169 11,18.5 11,18.770831 10.780197,19 10.50441,18.985043 6.3050129,18.730757 3,15.265533 3,11 3,6.5680044 6.568004,3 11,3 Z"/>
    </g>
</svg>
