<svg width="16" height="16" version="1.1" viewBox="0 0 16 16" xmlns="http://www.w3.org/2000/svg" xmlns:xlink="http://www.w3.org/1999/xlink">
<defs>
<linearGradient id="linearGradient3403" x1="6.9492" x2="11.215" y1="4.5549" y2="59.052" gradientUnits="userSpaceOnUse">
<stop style="stop-color:#32373c" offset="0"/>
<stop style="stop-color:#1a1a1a" offset=".36805"/>
<stop style="stop-color:#31363b" offset="1"/>
</linearGradient>
<linearGradient id="linearGradient20558" x1="25.802" x2="25.111" y1="20.374" y2="58.913" gradientUnits="userSpaceOnUse">
<stop style="stop-color:#3d3d3d" offset="0"/>
<stop offset=".61772"/>
<stop style="stop-color:#3d3d3d" offset="1"/>
</linearGradient>
<linearGradient id="linearGradient4557" x1="43.5" x2="44.142" y1="64.012" y2=".30621" gradientTransform="translate(.36068 -.13017)" gradientUnits="userSpaceOnUse">
<stop style="stop-color:#141618" offset="0"/>
<stop style="stop-color:#686868" offset=".51821"/>
<stop style="stop-color:#31363b" offset="1"/>
</linearGradient>
<linearGradient id="linearGradient981" x1="439.57" x2="429.57" y1="502.8" y2="512.8" gradientTransform="matrix(.15451 0 0 .1626 -58.86 -78.791)" gradientUnits="userSpaceOnUse" xlink:href="#linearGradient4434"/>
<linearGradient id="linearGradient4434" x1="439.57" x2="429.57" y1="502.8" y2="512.8" gradientTransform="matrix(.17723 0 0 .17723 -65.364 -82.795)" gradientUnits="userSpaceOnUse">
<stop stop-color="#2e3440" offset="0"/>
<stop stop-opacity="0" offset="1"/>
</linearGradient>
</defs>
<rect x="1.5343" y="1.4033" width="13.593" height="13.796" ry="0" style="fill-rule:evenodd"/>
<g transform="matrix(.56578 0 0 .56578 -40.327 -1.3779)">
<g transform="matrix(2.5173 0 0 2.535 74.052 4.0022)" stroke-width=".20247">
<path d="m6.589 4.59 0.9271 0.97561 1.0816-1.1382-0.9271-0.97561z" fill="url(#linearGradient4434)" fill-rule="evenodd" opacity=".9" style="fill:url(#linearGradient981);stroke-width:.18108"/>
<path d="m4.1741 2.0841c-0.23588 0-0.42577 0.18857-0.42577 0.4228 0 0.23423 0.1899 0.4228 0.42577 0.4228 0.23588 0 0.42577-0.18857 0.42577-0.4228 0-0.23423-0.1899-0.4228-0.42577-0.4228zm2.9804 0-0.85155 0.8456 1.2773 1.2684-1.2773 1.2684 0.85155 0.8456 2.1289-2.114zm-4.0448 2.5368c-0.35382 0-0.63866 0.28285-0.63866 0.6342s0.28484 0.6342 0.63866 0.6342 0.63866-0.28285 0.63866-0.6342-0.28484-0.6342-0.63866-0.6342zm1.916 2.5368c-0.47176 0-0.85155 0.37714-0.85155 0.8456 0 0.46846 0.37979 0.8456 0.85155 0.8456s0.85155-0.37714 0.85155-0.8456c0-0.46846-0.37979-0.8456-0.85155-0.8456z" style="fill:#939393;stroke-width:.085905"/>
</g>
</g>
<path transform="matrix(.24286 0 0 .24286 .54488 .43635)" d="m4.7043 3.9815-0.012938 56.82h53.904l1.0222-2.8664s-23.875 0.76639-32.844-4.1404c-10.516-5.7529-15.372-49.697-15.372-49.697z" style="fill:url(#linearGradient3403);mix-blend-mode:normal;stroke-linejoin:round;stroke-width:1.1624;stroke:url(#linearGradient20558)"/>
<rect transform="matrix(.2275 0 0 .22704 .95291 .92709)" x="1.0324" y=".59551" width="62.567" height="62.867" rx="5.803" ry="6.2447" style="fill:none;stroke-linejoin:round;stroke-miterlimit:7.8;stroke-opacity:.99515;stroke-width:3.7137;stroke:url(#linearGradient4557)"/>
</svg>
