<svg width="16" height="16" version="1.1" viewBox="0 0 16 16" xmlns="http://www.w3.org/2000/svg" xmlns:xlink="http://www.w3.org/1999/xlink">
<defs>
<linearGradient id="linearGradient3403" x1="6.9492" x2="11.215" y1="4.5549" y2="59.052" gradientUnits="userSpaceOnUse">
<stop style="stop-color:#32373c" offset="0"/>
<stop style="stop-color:#1a1a1a" offset=".36805"/>
<stop style="stop-color:#31363b" offset="1"/>
</linearGradient>
<linearGradient id="linearGradient20558" x1="25.802" x2="25.111" y1="20.374" y2="58.913" gradientUnits="userSpaceOnUse">
<stop style="stop-color:#3d3d3d" offset="0"/>
<stop offset=".61772"/>
<stop style="stop-color:#3d3d3d" offset="1"/>
</linearGradient>
<linearGradient id="linearGradient4557" x1="43.5" x2="44.142" y1="64.012" y2=".30621" gradientTransform="translate(.36068 -.13017)" gradientUnits="userSpaceOnUse">
<stop style="stop-color:#141618" offset="0"/>
<stop style="stop-color:#686868" offset=".51821"/>
<stop style="stop-color:#31363b" offset="1"/>
</linearGradient>
<linearGradient id="b" x1="9" x2="64" y1="13" y2="68" gradientTransform="matrix(1.5612 0 0 1.5612 -4.9469 -7.3027)" gradientUnits="userSpaceOnUse">
<stop stop-color="#fcfcfc" offset="0"/>
<stop stop-color="#e74c3c" offset="1"/>
</linearGradient>
<linearGradient id="a" x1="8" x2="8" y2="16" gradientUnits="userSpaceOnUse">
<stop stop-color="#34495e" offset="0"/>
<stop stop-color="#391847" offset="1"/>
</linearGradient>
<linearGradient id="b-2" x1="8" x2="8" y1="11.6" y2="16" gradientUnits="userSpaceOnUse">
<stop stop-color="#494d76" offset="0"/>
<stop stop-color="#552968" offset="1"/>
</linearGradient>
<linearGradient id="c" x1="3.9998" x2="3.6349" y1="5" y2="14.192" gradientUnits="userSpaceOnUse">
<stop stop-color="#538094" offset="0"/>
<stop stop-color="#136b2f" offset="1"/>
</linearGradient>
<linearGradient id="d" x1="2.8" x2="2.3756" y1="5" y2="14.18" gradientUnits="userSpaceOnUse">
<stop stop-color="#6599af" offset="0"/>
<stop stop-color="#1da848" offset="1"/>
</linearGradient>
<linearGradient id="e" x1="3.7998" x2="3.7998" y1="8.2001" y2="14.2" gradientUnits="userSpaceOnUse">
<stop stop-color="#2ecc71" offset="0"/>
<stop stop-color="#cef829" offset="1"/>
</linearGradient>
<linearGradient id="f" x1="3.8003" x2="3.8003" y1="9.8" y2="14.2" gradientUnits="userSpaceOnUse">
<stop stop-color="#84fe9f" offset="0"/>
<stop stop-color="#84fe9f" stop-opacity="0" offset="1"/>
</linearGradient>
<linearGradient id="g" x1="7.0474" x2="6.7886" y1="3" y2="14.194" gradientUnits="userSpaceOnUse">
<stop stop-color="#537594" offset="0"/>
<stop stop-color="#11686d" offset="1"/>
</linearGradient>
<linearGradient id="h" x1="5.9998" x2="5.5016" y1="3.4" y2="14.177" gradientUnits="userSpaceOnUse">
<stop stop-color="#5d8da8" offset="0"/>
<stop stop-color="#0e957d" offset="1"/>
</linearGradient>
<linearGradient id="i" x1="6.9998" x2="6.9998" y1="8.2" y2="14.2" gradientUnits="userSpaceOnUse">
<stop stop-color="#3daee9" offset="0"/>
<stop stop-color="#1cdc9a" offset="1"/>
</linearGradient>
<linearGradient id="j" x1="6.9998" x2="6.9998" y1="8.2" y2="14.2" gradientUnits="userSpaceOnUse">
<stop stop-color="#55def0" offset="0"/>
<stop stop-color="#55def0" stop-opacity="0" offset="1"/>
</linearGradient>
<linearGradient id="k" x1="6" x2="8" y1="3.5" y2="3.5" gradientUnits="userSpaceOnUse">
<stop stop-color="#70a2b9" offset="0"/>
<stop stop-color="#507694" offset="1"/>
</linearGradient>
<linearGradient id="l" x1="11" x2="11.062" y1="3.2001" y2="14.4" gradientUnits="userSpaceOnUse">
<stop stop-color="#537594" offset="0"/>
<stop stop-color="#9a265e" offset="1"/>
</linearGradient>
<linearGradient id="m" x1="9.5002" x2="9.5002" y1="2.7924" y2="14" gradientUnits="userSpaceOnUse">
<stop stop-color="#7998be" stop-opacity=".8" offset="0"/>
<stop stop-color="#9265a2" offset=".5"/>
<stop stop-color="#622e2e" offset="1"/>
</linearGradient>
<linearGradient id="n" x1="10.984" x2="10.984" y1="10.424" y2="13.515" gradientUnits="userSpaceOnUse">
<stop stop-color="#e74c3c" offset="0"/>
<stop stop-color="#da4453" offset=".5"/>
<stop stop-color="#9b59b6" offset="1"/>
</linearGradient>
<linearGradient id="o" x1="9" x2="9" y1="10.524" y2="13" gradientUnits="userSpaceOnUse">
<stop stop-color="#fa8e6c" offset="0"/>
<stop stop-color="#fa8e6c" stop-opacity="0" offset="1"/>
</linearGradient>
<linearGradient id="p" x1="9.3999" x2="12.2" y1="3.4001" y2="3.4001" gradientUnits="userSpaceOnUse">
<stop stop-color="#99afd2" offset="0"/>
<stop stop-color="#6a87ab" offset="1"/>
</linearGradient>
</defs>
<g transform="matrix(.81534 0 0 .82527 2.5629 1.3978)">
<path d="m0 2c0-1.1046 0.89543-2 2-2h12c1.1046 0 2 0.89543 2 2v12c0 1.1046-0.8954 2-2 2h-12c-1.1046 0-2-0.8954-2-2z" fill="url(#a)" style="fill:url(#a)"/>
<path d="m0 11h16v3c0 1.1045-0.8954 2-2 2h-12c-1.1046 0-2-0.8955-2-2z" fill="url(#b)" style="fill:url(#b-2)"/>
<path d="m2 5h3l-1.7e-4 8c-1e-5 0.5523-0.44772 1-1 1-0.55229 0-1-0.4477-0.99999-1l2.1e-4 -6z" fill="url(#c)" style="fill:url(#c)"/>
<path d="m4.0002 5h-2.0002l1.0002 0.5v7.5c0 0.5523 0.44772 1 1 1z" clip-rule="evenodd" fill="url(#d)" fill-rule="evenodd" style="fill:url(#d)"/>
<path d="m3 10c0.62942-0.31468 1.3706-0.3148 2 0v2.9999c0 0.5523-0.44772 1-1 1s-1-0.4477-1-1z" fill="url(#e)" style="fill:url(#e)"/>
<path d="m4.0003 9.764c-0.34265-2e-5 -0.68531 0.07867-1.0001 0.23606l7e-5 2c2e-5 0.5523 0.44774 1 1 1z" clip-rule="evenodd" fill="url(#f)" fill-rule="evenodd" style="fill:url(#f)"/>
<path d="m3 12v1c0 0.5523 0.44772 1 1 1s1-0.4477 1-1v-1c0 0.5523-0.44772 1-1 1s-1-0.4477-1-1z" fill="#99ad1d"/>
<path d="m6 3h2v10c0 0.5523-0.44772 1-1 1s-1-0.4477-1-1z" fill="url(#g)" style="fill:url(#g)"/>
<path d="m7.0002 5-1-0.49995-2.2e-4 8.4997c-1e-5 0.5525 0.4478 1.0003 1.0002 1.0003z" clip-rule="evenodd" fill="url(#h)" fill-rule="evenodd" style="fill:url(#h)"/>
<path d="m6 7.9999 2.0002 0.5-1.9e-4 4.5c-2e-5 0.5523-0.44774 1-1 1-0.5523 0-1-0.4477-1-1z" fill="url(#i)" style="fill:url(#i)"/>
<path d="m7 8.2499-1-0.25-1.9e-4 3.9997c-3e-5 0.5524 0.44778 1.0003 1.0002 1.0003z" fill="url(#j)" style="fill:url(#j)"/>
<path d="m6 12v1c0 0.5523 0.44773 1 1 1 0.55228 0 1-0.4477 1-1v-1c-2e-5 0.5523-0.44774 1-1 1-0.55229 0-1-0.4477-1-1z" fill="#149b8b"/>
<path d="m5.5 3h3v1h-3z" fill="url(#k)" style="fill:url(#k)"/>
<path d="m10 3h2v4.5l3 5.5001c0 0.5522-0.4476 0.9999-0.9999 0.9999h-6.0001c-0.55225 0-0.99995-0.4477-0.99995-0.9999l3-5.5001z" fill="url(#l)" style="fill:url(#l)"/>
<path d="m11 5.0001-1.0002-0.5 2e-4 2.9999-3.0002 5.5001h4z" clip-rule="evenodd" fill="url(#m)" fill-rule="evenodd" style="fill:url(#m)"/>
<path d="m15 13-1.6363-3-5 0.5-1.3638 2.5z" clip-rule="evenodd" fill="url(#n)" fill-rule="evenodd" style="fill:url(#n)"/>
<path d="m11 10.237-2.6362 0.2636-1.3638 2.5h4z" fill="url(#o)" style="fill:url(#o)"/>
<path d="m9.5 3h3v1h-3z" fill="url(#p)" style="fill:url(#p)"/>
</g>
<path transform="matrix(.24114 0 0 .24114 .54638 .43774)" d="m4.7043 3.9815-0.012938 56.82h53.904l1.0222-2.8664s-23.875 0.76639-32.844-4.1404c-10.516-5.7529-15.372-49.697-15.372-49.697z" style="fill:url(#linearGradient3403);mix-blend-mode:normal;stroke-linejoin:round;stroke-width:1.1624;stroke:url(#linearGradient20558)"/>
<rect transform="matrix(.2259 0 0 .22544 .95153 .92501)" x="1.0324" y=".59551" width="62.567" height="62.867" rx="5.803" ry="6.2447" style="fill:none;stroke-linejoin:round;stroke-miterlimit:7.8;stroke-opacity:.99515;stroke-width:3.7137;stroke:url(#linearGradient4557)"/>
</svg>
