<svg width="16" height="16" version="1.1" viewBox="0 0 16 16" xmlns="http://www.w3.org/2000/svg" xmlns:xlink="http://www.w3.org/1999/xlink">
<defs>
<linearGradient id="linearGradient3403" x1="6.9492" x2="11.215" y1="4.5549" y2="59.052" gradientUnits="userSpaceOnUse">
<stop style="stop-color:#32373c" offset="0"/>
<stop style="stop-color:#1a1a1a" offset=".36805"/>
<stop style="stop-color:#31363b" offset="1"/>
</linearGradient>
<linearGradient id="linearGradient20558" x1="25.802" x2="25.111" y1="20.374" y2="58.913" gradientUnits="userSpaceOnUse">
<stop style="stop-color:#3d3d3d" offset="0"/>
<stop offset=".61772"/>
<stop style="stop-color:#3d3d3d" offset="1"/>
</linearGradient>
<linearGradient id="linearGradient4557" x1="43.5" x2="44.142" y1="64.012" y2=".30621" gradientTransform="translate(.36068 -.13017)" gradientUnits="userSpaceOnUse">
<stop style="stop-color:#141618" offset="0"/>
<stop style="stop-color:#686868" offset=".51821"/>
<stop style="stop-color:#31363b" offset="1"/>
</linearGradient>
<linearGradient id="b-44" x2="0" y1="20" y2="4" gradientTransform="matrix(.5659 0 0 .56229 2.776 1.7947)" gradientUnits="userSpaceOnUse">
<stop stop-color="#60c0f4" offset="0"/>
<stop stop-color="#b9e9ff" offset="1"/>
</linearGradient>
</defs>
<rect x="1.591" y=".86282" width="13.703" height="13.681" style="fill:#1bb1fa"/>
<path d="m5.0396 4.0438v0.56229h9.0544v-0.56229zm0 1.1246v0.56229h7.3567v-0.56229zm0 2.2491v0.56229h9.0544v-0.56229zm0 1.1246v0.56229h1.1318v-0.56229zm0 2.2491v0.56228h9.0544v-0.56228zm0 1.1246v0.56229h7.3567v-0.56229zm7.9226 0.56229v0.56229h1.1318v-0.56229z" style="fill:url(#b-44);stroke-width:.56409"/>
<path transform="matrix(.25199 0 0 .25038 -.051739 .010338)" d="m4.7043 3.9815-0.012938 56.82h53.904l1.0222-2.8664s-23.875 0.76639-32.844-4.1404c-10.516-5.7529-15.372-49.697-15.372-49.697z" style="fill:url(#linearGradient3403);mix-blend-mode:normal;stroke-linejoin:round;stroke-width:1.1624;stroke:url(#linearGradient20558)"/>
<rect transform="matrix(.23606 0 0 .23407 .37164 .51628)" x="1.0324" y=".59551" width="62.567" height="62.867" rx="5.803" ry="6.2447" style="fill:none;stroke-linejoin:round;stroke-miterlimit:7.8;stroke-opacity:.99515;stroke-width:3.7137;stroke:url(#linearGradient4557)"/>
</svg>
