<svg width="16" height="16" version="1.1" viewBox="0 0 16 16" xmlns="http://www.w3.org/2000/svg" xmlns:xlink="http://www.w3.org/1999/xlink">
<defs>
<linearGradient id="linearGradient3403" x1="6.9492" x2="11.215" y1="4.5549" y2="59.052" gradientUnits="userSpaceOnUse">
<stop style="stop-color:#32373c" offset="0"/>
<stop style="stop-color:#1a1a1a" offset=".36805"/>
<stop style="stop-color:#31363b" offset="1"/>
</linearGradient>
<linearGradient id="linearGradient20558" x1="25.802" x2="25.111" y1="20.374" y2="58.913" gradientUnits="userSpaceOnUse">
<stop style="stop-color:#3d3d3d" offset="0"/>
<stop offset=".61772"/>
<stop style="stop-color:#3d3d3d" offset="1"/>
</linearGradient>
<linearGradient id="linearGradient4557" x1="43.5" x2="44.142" y1="64.012" y2=".30621" gradientTransform="translate(.36068 -.13017)" gradientUnits="userSpaceOnUse">
<stop style="stop-color:#141618" offset="0"/>
<stop style="stop-color:#686868" offset=".51821"/>
<stop style="stop-color:#31363b" offset="1"/>
</linearGradient>
<linearGradient id="b" x1="388.57" x2="398.57" y1="504.8" y2="514.8" gradientUnits="userSpaceOnUse">
<stop stop-color="#383e51" offset="0"/>
<stop stop-color="#655c6f" stop-opacity="0" offset="1"/>
</linearGradient>
<linearGradient id="c" x2="0" y1="32" y2="16" gradientTransform="matrix(.4375 0 0 .4375 381.56 497.76)" gradientUnits="userSpaceOnUse">
<stop stop-color="#b985ce" offset="0"/>
<stop stop-color="#e2cdeb" offset="1"/>
</linearGradient>
</defs>
<rect x="1.5343" y="1.4033" width="13.593" height="13.796" ry="0" style="fill-rule:evenodd;fill:#9b59b6"/>
<g transform="translate(-383.78 -500.79)" style="fill-opacity:.96288;fill:#fef7ff;mix-blend-mode:overlay">
<g transform="translate(1.0588 .52945)">
<path d="m396.57 504.8h-8v7l3 3h7v-8z" fill="url(#b)" fill-rule="evenodd" opacity=".2" style="fill:url(#b)"/>
<path d="m388.57 504.8v7h8v-7m-7 1h6v1h-6zm0 2h6v1h-6zm0 2h6v1h-6z" fill="url(#c)" stroke-width=".875" style="fill:url(#c)"/>
</g>
</g>
<path transform="matrix(.24286 0 0 .24286 .54488 .43635)" d="m4.7043 3.9815-0.012938 56.82h53.904l1.0222-2.8664s-23.875 0.76639-32.844-4.1404c-10.516-5.7529-15.372-49.697-15.372-49.697z" style="fill:url(#linearGradient3403);mix-blend-mode:normal;stroke-linejoin:round;stroke-width:1.1624;stroke:url(#linearGradient20558)"/>
<rect transform="matrix(.2275 0 0 .22704 .95291 .92709)" x="1.0324" y=".59551" width="62.567" height="62.867" rx="5.803" ry="6.2447" style="fill:none;stroke-linejoin:round;stroke-miterlimit:7.8;stroke-opacity:.99515;stroke-width:3.7137;stroke:url(#linearGradient4557)"/>
</svg>
