<svg xmlns="http://www.w3.org/2000/svg" viewBox="0 0 16 16" id="svg6">
  <defs id="defs3051">
    <style type="text/css" id="current-color-scheme">
      .ColorScheme-Text {
        color:#eff0f1;
      }
      </style>
  </defs>
    <path 
        style="fill:currentColor;fill-opacity:1;stroke:none" 
        d="M 3.94,2 C 2.8671899,1.9966665 1.9966665,2.8671899 2,3.94 v 8.212 C 2,13.176 2.824,14 3.848,14 h 8.304 c 1.02154,0.0022 1.850218,-0.82646 1.848,-1.848 V 5.848 C 14.002218,4.8264603 13.17354,3.9977817 12.152,4 H 9.008 L 7.008,2 7,2.008 V 2 Z M 3.82,3 H 6.592 L 7.594,4 H 7 V 4.008 L 6.992,4 6.84,4.152 4.992,6 H 3 V 3.82 C 3,3.365 3.365,3 3.82,3 Z m 6.172,3.756 c 0.021666,-3.004e-4 0.043334,-3.004e-4 0.065,0 1.254165,0.00207 2.284496,0.9909754 2.338,2.244 0,0 0.605,0 0.605,1 0,1 0,1 0,2 0,1 -1,1 -1,1 H 8 C 8,13 7,13 7,12 7,11 7,11 7,10 7,9 7.717,9 7.717,9 7.7689816,7.7709012 8.7623037,6.7911144 9.992,6.756 Z m 0.057,0.781 C 9.2287698,7.5426678 8.5524596,8.1814294 8.5,9 h 3.115 C 11.5623,8.1779841 10.880703,7.5379474 10.057,7.537 c -0.0027,-6.8e-6 -0.0053,-6.8e-6 -0.008,0 z"
        class="ColorScheme-Text"/>
</svg>
