<svg width="16" height="16" version="1.1" viewBox="0 0 16 16" xmlns="http://www.w3.org/2000/svg" xmlns:xlink="http://www.w3.org/1999/xlink">
<defs>
<linearGradient id="linearGradient3403" x1="6.9492" x2="11.215" y1="4.5549" y2="59.052" gradientUnits="userSpaceOnUse">
<stop style="stop-color:#32373c" offset="0"/>
<stop style="stop-color:#1a1a1a" offset=".36805"/>
<stop style="stop-color:#31363b" offset="1"/>
</linearGradient>
<linearGradient id="linearGradient20558" x1="25.802" x2="25.111" y1="20.374" y2="58.913" gradientUnits="userSpaceOnUse">
<stop style="stop-color:#3d3d3d" offset="0"/>
<stop offset=".61772"/>
<stop style="stop-color:#3d3d3d" offset="1"/>
</linearGradient>
<linearGradient id="linearGradient4557" x1="43.5" x2="44.142" y1="64.012" y2=".30621" gradientTransform="translate(.36068 -.13017)" gradientUnits="userSpaceOnUse">
<stop style="stop-color:#141618" offset="0"/>
<stop style="stop-color:#686868" offset=".51821"/>
<stop style="stop-color:#31363b" offset="1"/>
</linearGradient>
<linearGradient id="linearGradient919" x1="7.4006" x2="33.063" y1="41.743" y2="7.1074" gradientTransform="matrix(.32039 0 0 .32039 .51465 .42996)" gradientUnits="userSpaceOnUse">
<stop style="stop-opacity:.99608" offset="0"/>
<stop style="stop-color:#353a3f;stop-opacity:.99608" offset="1"/>
</linearGradient>
<linearGradient id="b" x1="36" x2="14" y1="44" y2="12" gradientTransform="matrix(.35138 0 0 .35831 -.19502 -.82434)" gradientUnits="userSpaceOnUse">
<stop stop-color="#536161" style="stop-color:#bfc9c9" offset="0"/>
<stop stop-color="#f4f5f5" style="stop-color:#fbfbfb" offset="1"/>
</linearGradient>
<linearGradient id="c" x1="406.5" x2="419.97" y1="527.01" y2="539.83" gradientTransform="matrix(.35138 0 0 .35831 -135.32 -179.91)" gradientUnits="userSpaceOnUse">
<stop stop-color="#292c2f" offset="0"/>
<stop stop-opacity="0" offset="1"/>
</linearGradient>
</defs>
<rect x="1.528" y="1.3971" width="13.484" height="13.685" ry="0" style="fill-rule:evenodd;fill:url(#linearGradient919)"/>
<path d="m6.978 4.192-0.49684 0.50665 3.0169 3.0765-3.0169 3.0765 0.49684 0.50666 3.5138-3.5831-0.49684-0.50665z" style="fill:url(#b)"/>
<path d="m6.9801 11.358 3.3683 3.4348h4.9193v-2.1499l-4.7738-4.868z" style="fill-rule:evenodd;fill:url(#c);opacity:.4;stroke-width:.35483"/>
<path transform="matrix(.2409 0 0 .2409 .54659 .43793)" d="m4.7043 3.9815-0.012938 56.82h53.904l1.0222-2.8664s-23.875 0.76639-32.844-4.1404c-10.516-5.7529-15.372-49.697-15.372-49.697z" style="fill:url(#linearGradient3403);mix-blend-mode:normal;stroke-linejoin:round;stroke-width:1.1624;stroke:url(#linearGradient20558)"/>
<rect transform="matrix(.22567 0 0 .22521 .95133 .92471)" x="1.0324" y=".59551" width="62.567" height="62.867" rx="5.803" ry="6.2447" style="fill:none;stroke-linejoin:round;stroke-miterlimit:7.8;stroke-opacity:.99515;stroke-width:3.7137;stroke:url(#linearGradient4557)"/>
</svg>
