<?xml version="1.0" encoding="UTF-8"?>
<svg xmlns="http://www.w3.org/2000/svg" xmlns:xlink="http://www.w3.org/1999/xlink" xmlns:cc="http://creativecommons.org/ns#" xmlns:dc="http://purl.org/dc/elements/1.1/" xmlns:rdf="http://www.w3.org/1999/02/22-rdf-syntax-ns#" xmlns:inkscape="http://www.inkscape.org/namespaces/inkscape" xmlns:sodipodi="http://sodipodi.sourceforge.net/DTD/sodipodi-0.dtd" width="22" height="22">
    <style type="text/css" id="current-color-scheme">
      .ColorScheme-Text {
        color:#fcfcfc;
      }
      .ColorScheme-Background {
        color:#eff0f1;
      }
      .ColorScheme-Highlight {
        color:#3498db;
      }
      .ColorScheme-ViewText {
        color:#31363b;
      }
      .ColorScheme-ViewBackground {
        color:#fcfcfc;
      }
      .ColorScheme-ViewHover {
        color:#93cee9;
      }
      .ColorScheme-ViewFocus{
        color:#3daee9;
      }
      .ColorScheme-ButtonText {
        color:#31363b;
      }
      .ColorScheme-ButtonBackground {
        color:#eff0f1;
      }
      .ColorScheme-ButtonHover {
        color:#93cee9;
      }
      .ColorScheme-ButtonFocus{
        color:#3daee9;
      }
      .ColorScheme-NegativeText{
        color:#e74c3c;
      }
      </style>
    <g id="network-wired-activated-locked" transform="translate(-22,0)">
    <path class="ColorScheme-Text" id="path4571" d="m 25,5 c 0,2 0,0 0,2 0,2 2,2 2,2 v 7 c 0,1.662 1.338,3 3,3 h 1 1 2 v -5 h -5 v 1 1 h 1 1 V 17 17.726562 18 h -1 c -1.108,0 -2,-0.892 -2,-2 V 9 c 0,0 2,0 2,-2 0,-2 0,0 0,-2 0,-2 -2,-2 -2,-2 h -1 c 0,0 -2,0 -2,2 z m 6,-2 v 1 h 7 c 2,0 2,2 2,2 v 5 h 1 V 6 c 0,0 0,-3 -3,-3 z m -5,2 c 0,-1 1,-1 1,-1 h 1 c 0,0 1,0 1,1 0,1 0,1 0,2 0,1 -1,1 -1,1 H 26.915005 C 26.915005,8 26,8 26,7 26,6 26,6 26,5 Z m 1,0 v 2 h 1 V 5 Z m -2,5 v 6 h 1 v -6 z m 13,2 c -1.108,0 -2,0.892 -2,2 v 2 c 0,0 -1,0 -1,1 v 1 c 0,1 1,1 1,1 h 4 c 0,0 1,0 1,-1 v -1 c 0,-1 -1,-1 -1,-1 v -2 c 0,-1.108 -0.892,-2 -2,-2 z m 0,1 c 0.554,0 1,0.446 1,1 v 2 h -2 v -2 c 0,-0.554 0.446,-1 1,-1 z" style="opacity:1;fill:currentColor;fill-opacity:1;stroke:none"/>
    <rect y="0" x="22" height="22" width="22" id="rect4574" style="opacity:1;fill:none;fill-opacity:1;stroke:none"/>
  </g>
</svg>
