<svg id="svg6" version="1.1" viewBox="0 0 22 22" xmlns="http://www.w3.org/2000/svg">
    <style id="current-color-scheme" type="text/css">.ColorScheme-Text {color:#fcfcfc;}.ColorScheme-NegativeText {color:#da4453;}</style>
    <path id="path1595" class="ColorScheme-Text" d="m 3,5 c 0,2 0,0 0,2 0,2 2,2 2,2 v 7 c 0,1.662 1.338,3 3,3 h 4 V 14 H 7 v 2 h 2 v 2 H 8 C 6.892,18 6,17.108 6,16 V 9 C 6,9 8,9 8,7 8,5 8,7 8,5 8,3 6,3 6,3 H 5 C 5,3 3,3 3,5 Z M 9,3 v 1 c 0,0 5,0 7,0 2,0 2,2 2,2 v 5 h 1 V 6 C 19,6 19,3 16,3 13,3 9,3 9,3 Z M 5,4 H 6 C 6,4 7,4 7,5 7,6 7,6 7,7 7,8 6,8 6,8 H 5 C 5,8 4,8 4,7 4,6 4,6 4,5 4,4 5,4 5,4 Z M 5,5 V 7 H 6 V 5 Z m -2,5 v 6 h 1 v -6 z" fill="currentColor" opacity=".5"/>
    <path id="path1609" class="ColorScheme-NegativeText" d="M 13.84845,13.003252 13,13.851689 15.15156,16.003252 13,18.154815 l 0.84845,0.848437 2.15156,-2.151564 2.15154,2.151564 L 19,18.154815 16.84844,16.003252 19,13.851689 18.15155,13.003252 16.00001,15.154815 Z" fill="currentColor"/>
</svg>
