<svg id="svg7" version="1.1" viewBox="0 0 22 22" xmlns="http://www.w3.org/2000/svg">
    <defs id="defs3">
            <style type="text/css" id="current-color-scheme">
                .ColorScheme-Text {            color:#eff0f1;        }
                .ColorScheme-NegativeText {            color:#da4453;        }
            </style>
    </defs>
    <path id="path787" d="m 13,3.2519531 c 0,0 -0.519531,0.00195 -0.519531,0.5195313 C 12.480469,4.2890619 13,4.2910156 13,4.2910156 15.891445,5.1515869 18,7.8290129 18,11 c -0.0063,0.486366 -0.06322,0.970755 -0.169922,1.445312 0.161143,0.08311 0.316449,0.177073 0.464844,0.28125 0.07407,0.05157 0.146381,0.105643 0.216797,0.16211 0.069,0.05634 0.136091,0.114964 0.201172,0.175781 0.001,9.59e-4 0.0029,9.93e-4 0.0039,0.002 C 18.900969,12.392916 18.996179,11.698207 19,11 19,7.2720854 16.450791,4.139802 13,3.2519531 Z m -4,0.00195 C 5.7023501,4.1028598 3.2280542,7.0005082 3.015625,10.509766 3.00081,10.767792 3.2450508,11 3.4824219,11 3.7197928,11 4.0009456,10.790468 4.0175781,10.513672 4.2204509,7.557553 6.2574569,5.1051618 9,4.2890625 c 0,0 0.5175783,-6e-7 0.5175781,-0.5175781 C 9.5175779,3.2539069 9,3.2539062 9,3.2539062 Z M 3,13 v 1 2.5 c 0,0 1e-6,0.5 0.5,0.5 C 3.999999,17 4,16.5 4,16.5 V 14.804688 C 5.3909787,17.377592 8.0751968,18.986326 11,19 c 0.700257,-0.0039 1.396968,-0.09982 2.072266,-0.285156 -0.06085,-0.06572 -0.119479,-0.133468 -0.175782,-0.203125 -0.05783,-0.07181 -0.113313,-0.145116 -0.166015,-0.220703 C 12.627707,18.143138 12.535048,17.988489 12.453125,17.828125 11.976085,17.936024 11.489049,17.993631 11,18 8.3012962,17.994597 5.8460375,16.438309 4.6894531,14 H 6.5 C 6.5,14 6.9909215,14.0439 7,13.517578 7.0090785,12.991257 6.5,13 6.5,13 H 4.3027344 3.2695312 Z" class="ColorScheme-Text" fill="currentColor" stroke-linecap="round" style="paint-order:markers fill stroke"/>
    <path id="path1701" d="m19 16a3 3 0 0 1-3 3 3 3 0 0 1-3-3 3 3 0 0 1 3-3 3 3 0 0 1 3 3z" class="ColorScheme-NegativeText" fill="currentColor" stroke-linecap="round" style="paint-order:markers fill stroke"/>
</svg>
